<svg xmlns="http://www.w3.org/2000/svg"  viewBox="0 0 48 48" width="1600px" height="1600px"><path fill="#f44336" d="M9.604,6h35.902c1.279,0,2.23,1.185,1.952,2.434l-7.111,32C40.145,41.349,39.333,42,38.396,42H2.493 c-1.279,0-2.23-1.185-1.952-2.434l7.111-32C7.855,6.651,8.667,6,9.604,6z"/><path fill="#fff" d="M26,26H7c0,0,0-7,12.567-9.818C21.681,15.708,23,14.878,23,14c0-0.994-0.718-2-4-2 c-4,0-4,2.878-4,3H9c0-2.421,2.881-7,10-7c6.643,0,10,3.232,10,6c0,3.87-4.88,5.012-8.304,6.02 c-1.846,0.543-3.727,1.096-5.232,1.98H26V26z"/><polygon fill="#fff" points="24,39 18,39 22,22 28,22"/><polygon fill="#fff" points="23,31 25,35 41,22 34,22"/><polygon fill="#fff" points="31,27 26,30 30,39 37,39"/></svg>