<svg xmlns="http://www.w3.org/2000/svg"  viewBox="0 0 48 48" width="1600px" height="1600px"><path fill="#ffea00" d="M9.807,34.5c-4.029,0-7.307-3.277-7.307-7.307V14.807C2.5,10.778,5.778,7.5,9.807,7.5h1.387	c4.029,0,7.307,3.278,7.307,7.307V15.5h-7v-2c0-0.551-0.449-1-1-1s-1,0.449-1,1v4.271c0.976-0.819,2.199-1.271,3.5-1.271	c3.033,0,5.5,2.467,5.5,5.5v5.193c0,4.029-3.278,7.307-7.307,7.307H9.807z M10.5,21.5c-0.551,0-1,0.449-1,1v6c0,0.552,0.449,1,1,1	s1-0.448,1-1v-6C11.5,21.949,11.051,21.5,10.5,21.5z"/><path fill="#212121" d="M11.193,8C14.953,8,18,11.047,18,14.807V15h-6v-1.5c0-0.828-0.672-1.5-1.5-1.5S9,12.672,9,13.5V15	v4.027C9.911,17.804,11.357,17,13,17c2.761,0,5,2.239,5,5v2v3.193C18,30.953,14.953,34,11.193,34H9.807C6.047,34,3,30.953,3,27.193	V14.807C3,11.047,6.047,8,9.807,8H11.193 M10.5,30c0.828,0,1.5-0.672,1.5-1.5v-6c0-0.828-0.672-1.5-1.5-1.5S9,21.672,9,22.5v6	C9,29.328,9.672,30,10.5,30 M11.193,7H9.807C5.502,7,2,10.502,2,14.807v12.387C2,31.498,5.502,35,9.807,35h1.387	C15.498,35,19,31.498,19,27.193V24v-2c0-3.308-2.692-6-6-6c-1.075,0-2.103,0.283-3,0.809V15v-1.5c0-0.276,0.224-0.5,0.5-0.5	s0.5,0.224,0.5,0.5V15v1h1h6h1v-1v-0.193C19,10.502,15.498,7,11.193,7L11.193,7z M10.5,29c-0.276,0-0.5-0.224-0.5-0.5v-6	c0-0.276,0.224-0.5,0.5-0.5s0.5,0.224,0.5,0.5v6C11,28.776,10.776,29,10.5,29L10.5,29z"/><path fill="#ffea00" d="M26.807,34.5c-4.029,0-7.307-3.277-7.307-7.307V14.807c0-4.029,3.277-7.307,7.307-7.307h1.387	c4.029,0,7.307,3.278,7.307,7.307v12.387c0,4.029-3.277,7.307-7.307,7.307H26.807z M27.5,12.5c-0.552,0-1,0.449-1,1v15	c0,0.552,0.448,1,1,1s1-0.448,1-1v-15C28.5,12.949,28.052,12.5,27.5,12.5z"/><path fill="#212121" d="M28.193,8C31.953,8,35,11.047,35,14.807v12.387C35,30.953,31.953,34,28.193,34h-1.387	C23.047,34,20,30.953,20,27.193V14.807C20,11.047,23.047,8,26.807,8H28.193 M27.5,30c0.828,0,1.5-0.672,1.5-1.5v-15	c0-0.828-0.672-1.5-1.5-1.5S26,12.672,26,13.5v15C26,29.328,26.672,30,27.5,30 M28.193,7h-1.387C22.502,7,19,10.502,19,14.807	v12.387C19,31.498,22.502,35,26.807,35h1.387C32.498,35,36,31.498,36,27.193V14.807C36,10.502,32.498,7,28.193,7L28.193,7z M27.5,29	c-0.276,0-0.5-0.224-0.5-0.5v-15c0-0.276,0.224-0.5,0.5-0.5s0.5,0.224,0.5,0.5v15C28,28.776,27.776,29,27.5,29L27.5,29z"/><path fill="#212121" d="M46.573,32.893l0.022-0.01l0.012-0.635l0.128-6.926l0.04-2.165l-0.872-0.617l-1.674,1.374	l-1.245,1.021l-0.38,0.312l0.015,0.491l0.003,0.115c-0.272-0.129-0.534-0.167-0.713-0.167c-1.442,0-2.612,1.738-3.048,2.485	c-0.011,0.02-0.017,0.038-0.028,0.058c-0.431-0.289-0.881-0.375-1.227-0.375c-0.344,0-0.636,0.074-0.793,0.113l-0.055,0.014	c-0.108,0.02-0.364,0.072-0.992,0.482l-0.021-0.331l-1.331,0.628l-1.149,0.543l-0.631,0.298l0.005,0.054l-0.414,0.171l-1.468,0.606	l-0.673,0.278l0.037,0.465c-0.292-0.124-0.599-0.195-0.908-0.195c-0.121,0-0.237,0.01-0.345,0.028l-0.063,0.01l-0.061,0.018	c-0.082,0.025-1.385,0.448-2.296,2.062c-0.352-0.346-0.814-0.572-1.394-0.572c-0.16,0-0.326,0.017-0.494,0.051	c-0.712,0.142-1.278,0.563-1.726,1.095l-0.016-0.642l-1.292,0.444l-3.064,1.053l-0.593,0.204c-0.315-0.123-0.664-0.192-1.039-0.192	c-1.277,0-2.483,0.807-3.147,2.107c-0.415,0.813-0.455,1.674-0.114,2.491c0.167,0.401,0.421,0.774,0.746,1.106l-0.183,1.023	c0,0-0.161,0.9-0.289,1.671l-0.121,0.724l1.527,0.949c0.642,0.325,1.293,0.49,1.936,0.49c0.844,0,1.609-0.298,2.22-0.822	l0.048,0.522l1.23-0.466l3.032-1.149l0.541-0.205c0.24,0.098,0.492,0.164,0.76,0.173l0.096,0.002c1.165,0,1.954-0.751,2.465-1.635	c0.618,0.542,1.299,0.549,1.567,0.549c0.755,0,1.731-0.453,2.505-1.537l0.043-0.025l0.086,1.072l1.371-0.794l1.213-0.702	l0.011-0.007l0.164,0.399l1.007-0.636l0.363-0.229l0.001,0.008l1.086-0.181c0.098-0.016,0.327-0.054,1.473-0.592	c0.6-0.281,1.183-0.954,1.651-1.859c0.29,0.257,0.841,0.637,1.585,0.637c0.321,0,0.638-0.072,0.942-0.213	c0.595-0.286,1.09-0.679,1.475-1.153c0.309,0.224,0.666,0.338,1.012,0.338c0.125,0,0.251-0.014,0.373-0.041	c1.019-0.227,1.639-1.18,1.58-2.428C47.059,33.607,46.858,33.196,46.573,32.893z"/><path fill="#f44336" d="M16.011,38.124c-0.223-1.181,1.117-1.085,1.181-0.255c0,0,0.702-0.319,1.309-0.638 c0-2.043-2.762-2.406-3.926-0.128c-0.758,1.484,0.439,2.896,2.17,3.447c0.857,0.272,0.383,1.404-0.319,1.404 c-0.384,0-1.309-0.511-1.309-0.511s-0.16,0.894-0.287,1.66c2.266,1.149,4.165-0.472,3.894-2.489 C18.46,38.658,16.298,39.081,16.011,38.124z"/><polygon fill="#f44336" points="20.894,41.028 20.702,39.145 22.043,38.73 21.915,37.677 20.574,38.06 20.447,36.145 21.883,35.73 21.851,34.422 18.787,35.475 19.457,42.783 22.489,41.634 22.266,40.517"/><path fill="#f44336" d="M24.181,39.496c-0.255-0.894-0.191-1.819,0.128-3.128c0.319-1.308,0.798-0.67,0.798-0.67 l1.117-0.638c0,0-0.032-1.787-1.468-1.5s-2.202,2.521-2.33,3.511c-0.128,0.989,0,4.404,1.755,4.468s2.234-2.713,2.234-2.713 s-0.702-0.064-1.181-0.096C25.202,39.464,24.436,40.39,24.181,39.496z"/><path fill="#f44336" d="M29.032,31.996c0,0-2.33,0.702-2.457,4.596c-0.128,3.894,1.209,3.862,1.723,3.862 c0.83,0,2.504-1.157,2.745-4.66C31.266,32.539,29.798,31.868,29.032,31.996z M28.617,38.634c-0.926-0.032-0.818-1.695-0.638-2.681 c0.255-1.404,1.085-1.596,1.085-1.596c0.67-0.128,0.894,0.989,0.894,1.755C29.957,36.853,29.543,38.666,28.617,38.634z"/><polygon fill="#f44336" points="33.691,30.209 34.043,34.166 32.606,30.751 31.138,31.358 31.777,39.305 32.989,38.603 32.67,34.805 34.138,38.379 35.351,37.613 34.84,29.666"/><path fill="#f44336" d="M36.947,28.964c-0.351,0.064-1.532,0.989-1.532,0.989l0.543,7.883c0,0,0.191-0.032,1.213-0.511 c1.021-0.479,2.33-3.16,2.011-6.128C38.862,28.23,37.298,28.9,36.947,28.964z M37.17,35.986c-0.096-1.053-0.319-5.266-0.319-5.266 s1.021-0.574,1.085,1.213S37.617,35.379,37.17,35.986z"/><path fill="#f44336" d="M40.936,29.188c0.511-1.436,0.957,0.128,0.957,0.128s0.479-0.479,0.926-0.957 c-0.16-2.84-1.979-1.596-3.096,0.319c-1.117,1.915,0.128,3.096,0.67,3.415c0.543,0.319,1.628,0.351,1.34,1.436 c-0.287,1.085-1.66,0.319-1.66,0.319l-0.287,1.66c0,0,0.67,0.798,1.564,0.383c2.394-1.149,1.979-3.989,1.213-4.883 C41.798,30.113,40.426,30.624,40.936,29.188z"/><polygon fill="#f44336" points="44.734,31.613 44.862,24.688 43.617,25.709 43.809,32.028"/><path fill="#f44336" d="M44.191,32.698c0,0-0.799,0.251-0.766,1.181c0.032,0.894,0.566,1.179,0.989,1.085 c0.574-0.128,0.83-0.734,0.798-1.404C45.181,32.89,44.606,32.603,44.191,32.698z"/></svg>