<svg xmlns="http://www.w3.org/2000/svg"  viewBox="0 0 48 48" width="1600px" height="1600px" clip-rule="evenodd"><path fill="#212121" d="M38,42H10c-2.209,0-4-1.791-4-4V10c0-2.209,1.791-4,4-4h28c2.209,0,4,1.791,4,4v28	C42,40.209,40.209,42,38,42z"/><path fill="#ffa726" fill-rule="evenodd" d="M34.768,27.326l-0.229,0.014 c-0.222,0.005-0.443,0.029-0.661,0.072c-0.493,0.086-0.968,0.252-1.407,0.491c-0.104,0.063-0.52,0.269-0.444,0.458 c0.059,0.152,0.662,0.026,0.857,0.012c0.385-0.026,0.573-0.059,0.937-0.058h0.667c0.199-0.003,0.399,0.01,0.596,0.039 c0.131,0.029,0.254,0.087,0.359,0.171c0.152,0.13,0.124,0.571,0.072,0.778c-0.154,0.668-0.355,1.324-0.602,1.963 c-0.043,0.104-0.379,0.76-0.006,0.681c0.169-0.036,0.51-0.416,0.615-0.543c0.52-0.665,0.848-1.431,1.093-2.394 c0.056-0.224,0.185-1.103,0.058-1.308C36.464,27.362,35.362,27.315,34.768,27.326z M33.955,29.2l-0.595,0.261l-0.988,0.373 c-0.878,0.34-1.857,0.563-2.834,0.806l-1.145,0.215l-1.348,0.177l-0.432,0.032c-0.173,0.036-0.376,0.016-0.569,0.046 c-0.428,0.05-0.858,0.067-1.288,0.053l-0.975,0.006l-0.7-0.026l-0.451-0.026c-0.104-0.021-0.227-0.006-0.34-0.027l-1.367-0.15 c-0.405-0.076-0.84-0.104-1.224-0.208l-0.321-0.053l-1.19-0.266c-0.849-0.265-1.693-0.472-2.486-0.778 c-0.88-0.34-1.799-0.712-2.578-1.172l-0.771-0.444c-0.14-0.084-0.254-0.208-0.478-0.208c-0.167,0.082-0.218,0.19-0.104,0.386 c0.084,0.114,0.185,0.213,0.301,0.295l0.354,0.327c0.51,0.406,1.022,0.823,1.577,1.184c0.479,0.312,0.989,0.578,1.491,0.87 l0.752,0.36c0.43,0.189,0.876,0.385,1.328,0.562l1.158,0.386c0.624,0.208,1.304,0.312,1.977,0.478l1.42,0.208l0.458,0.033 l0.772,0.058h0.281c0.273,0.038,0.55,0.041,0.824,0.007l0.295-0.007l0.36-0.006l1.23-0.098c0.552-0.123,1.132-0.104,1.655-0.262 l1.204-0.293c0.718-0.208,1.423-0.455,2.114-0.74c0.859-0.359,1.682-0.797,2.459-1.308c0.266-0.179,0.643-0.312,0.714-0.687 C34.553,29.244,34.229,29.124,33.955,29.2z" clip-rule="evenodd"/><path fill="#fff" fill-rule="evenodd" d="M13.779,19.237c-0.068-0.101-0.328-0.078-0.51-0.078 c-0.52,0-0.751-0.072-0.798,0.425l-0.02,0.014c-0.408-0.312-0.796-0.609-1.544-0.595l-0.249,0.02 c-0.144,0.022-0.287,0.056-0.425,0.104c-0.509,0.209-0.912,0.614-1.119,1.124c-0.099,0.247-0.171,0.504-0.216,0.766 c-0.055,0.258-0.068,0.523-0.04,0.785c0.04,0.246,0.016,0.46,0.066,0.674c0.181,0.769,0.542,1.369,1.204,1.655 c0.365,0.157,0.766,0.207,1.158,0.145c0.264-0.046,0.517-0.14,0.746-0.278l0.281-0.208h0.006c0.031,0.233,0.028,0.47-0.011,0.702 c-0.117,0.665-0.312,0.889-0.975,1.007c-0.186,0.033-0.376,0.037-0.563,0.014l-0.55-0.072l-0.806-0.195 c-0.06,0.012-0.11,0.054-0.131,0.111c-0.018,0.271-0.009,0.543,0.026,0.812c0.093,0.154,0.39,0.215,0.577,0.275 c0.624,0.199,1.633,0.294,2.309,0.059c0.774-0.266,1.264-0.788,1.505-1.592c0.113-0.383,0.104-0.865,0.104-1.361v-3.553 C13.805,19.825,13.846,19.338,13.779,19.237z M12.326,21.069v1.825c-0.137,0.098-0.29,0.173-0.451,0.223 c-1.102,0.345-1.518-0.429-1.518-1.446c-0.016-0.312,0.024-0.625,0.118-0.923c0.097-0.25,0.247-0.468,0.491-0.569 c0.087-0.035,0.193-0.027,0.287-0.066c0.276-0.01,0.551,0.033,0.812,0.125l0.244,0.116C12.367,20.458,12.326,20.906,12.326,21.069z" clip-rule="evenodd"/><path fill="#fff" fill-rule="evenodd" d="M19.281,23.778v-2.335c0-0.455,0.034-0.964-0.072-1.322 c-0.249-0.842-0.961-1.131-2.061-1.12l-0.589,0.039c-0.337,0.046-0.669,0.118-0.995,0.216c-0.142,0.049-0.358,0.085-0.416,0.215 c-0.058,0.13-0.047,0.816,0.032,0.87c0.117,0.08,0.676-0.104,0.833-0.137c0.452-0.098,1.482-0.198,1.734,0.125 c0.181,0.233,0.151,0.688,0.147,1.106c-0.104,0.025-0.283-0.044-0.392-0.066l-0.497-0.052c-0.183-0.021-0.368-0.014-0.55,0.02 c-0.853,0.147-1.457,0.471-1.655,1.262c-0.306,1.217,0.748,2.205,1.956,1.95c0.307-0.059,0.602-0.173,0.87-0.334l0.347-0.255 c0.089,0.116,0.054,0.291,0.17,0.38s1.007,0.121,1.093,0C19.32,24.22,19.281,23.959,19.281,23.778z M17.888,23.137 c-0.249,0.33-1.249,0.659-1.589,0.189c-0.245-0.347-0.081-0.864,0.208-1.033c0.124-0.073,0.278-0.053,0.432-0.111 c0.349,0,0.643,0.053,0.937,0.066C17.929,22.363,17.891,22.958,17.888,23.137z" clip-rule="evenodd"/><path fill="#fff" fill-rule="evenodd" d="M20.517,23.958c0,0.182-0.022,0.362,0.092,0.432 c0.065,0.039,0.218,0.02,0.312,0.02c0.218,0,0.966,0.046,1.047-0.059c0.104-0.13,0.046-0.814,0.046-1.053v-2.856 c0.197-0.114,0.411-0.194,0.635-0.236c0.352-0.082,0.818-0.083,0.994,0.151c0.155,0.208,0.131,0.579,0.131,0.942v1.977 c0,0.269-0.06,1.019,0.092,1.113c0.094,0.056,0.52,0.02,0.667,0.02c0.147,0,0.577,0.035,0.668-0.033 c0.123-0.093,0.072-0.758,0.072-0.995c0-0.98,0.002-1.962,0.006-2.944c0.05-0.082,0.255-0.116,0.354-0.15 c0.431-0.152,1.105-0.252,1.314,0.17c0.104,0.219,0.072,0.616,0.072,0.937v1.961c0,0.233-0.052,0.867,0.046,0.995 c0.057,0.074,0.19,0.059,0.321,0.059c0.196,0,0.971,0.034,1.06-0.033c0.129-0.098,0.078-0.493,0.078-0.713v-2.035 c0-0.858,0.067-1.639-0.312-2.127c-0.679-0.885-2.468-0.411-3.122,0.151h-0.026c-0.251-0.421-0.683-0.659-1.365-0.648l-0.275,0.02 c-0.187,0.025-0.37,0.066-0.549,0.124c-0.229,0.085-0.45,0.189-0.661,0.312l-0.321,0.197c-0.117-0.14-0.046-0.368-0.208-0.464 c-0.063-0.039-0.902-0.049-1.02-0.02c-0.044,0.011-0.083,0.036-0.111,0.072c-0.069,0.104-0.033,0.79-0.033,0.988L20.517,23.958z" clip-rule="evenodd"/><path fill="#fff" fill-rule="evenodd" d="M33.655,23.277l-0.674,0.124 c-0.246,0.047-0.497,0.056-0.745,0.027c-0.175-0.013-0.349-0.037-0.52-0.073c-0.512-0.155-0.852-0.537-0.858-1.191 c0.122-0.055,0.52-0.012,0.687-0.012h1.665c0.239,0,0.624,0.049,0.771-0.059c0.197-0.147,0.182-1.129,0.119-1.446 c-0.215-1.072-0.862-1.665-2.159-1.642l-0.157,0.006l-0.471,0.066c-0.506,0.127-0.942,0.36-1.223,0.713 c-0.157,0.189-0.287,0.4-0.386,0.624c-0.256,0.608-0.327,1.709-0.11,2.437c0.175,0.582,0.482,1.033,0.949,1.325v0.003 c0.642,0.403,1.801,0.49,2.715,0.262c0.23-0.057,0.679-0.138,0.759-0.327c0.025-0.261,0.029-0.524,0.013-0.786 c-0.016-0.041-0.046-0.076-0.084-0.098C33.861,23.196,33.735,23.256,33.655,23.277z M30.926,20.788v0.003 c0.118-0.338,0.312-0.585,0.655-0.693l0.292-0.056c0.776-0.007,0.991,0.394,0.981,1.172c-0.104,0.048-0.442,0.012-0.589,0.012 h-1.411C30.812,21.116,30.893,20.884,30.926,20.788z" clip-rule="evenodd"/><path fill="#fff" fill-rule="evenodd" d="M39.008,22.165c-0.312-0.541-0.991-0.752-1.596-1.001 c-0.287-0.118-0.758-0.216-0.825-0.549c-0.143-0.712,1.321-0.506,1.754-0.399c0.121,0.029,0.401,0.138,0.478,0.039 c0.077-0.1,0.04-0.342,0.04-0.496c0-0.128,0.017-0.291-0.033-0.374c-0.075-0.126-0.272-0.161-0.425-0.208 c-0.394-0.124-0.805-0.183-1.218-0.175l-0.374,0.026c-0.233,0.034-0.461,0.095-0.68,0.182c-0.372,0.152-0.671,0.442-0.833,0.811 c-0.232,0.574-0.015,1.336,0.334,1.616c0.416,0.336,0.981,0.528,1.517,0.746c0.271,0.11,0.578,0.174,0.635,0.497 c0.155,0.879-1.51,0.561-2.009,0.432c-0.104-0.028-0.433-0.139-0.52-0.092c-0.119,0.068-0.072,0.401-0.072,0.582 c0,0.104-0.016,0.252,0.026,0.321c0.125,0.208,0.815,0.339,1.119,0.4c1.207,0.239,2.281-0.169,2.669-0.929 c0.195-0.367,0.23-1.053,0.012-1.431V22.165z" clip-rule="evenodd"/></svg>