<svg xmlns="http://www.w3.org/2000/svg"  viewBox="0 0 48 48" width="1600px" height="1600px"><path fill="#87643c" d="M46.567,25.129h-1.433V22.98h-0.716l0.716-5.015h2.149l-2.149-4.299l-14.328-0.682v-0.751h-1.563 c-0.116-0.49-0.309-0.949-0.567-1.366l1.105-1.105l-1.52-1.52l-1.105,1.105c-0.417-0.257-0.875-0.451-1.366-0.567V7.219h-2.149 v1.563c-0.509,0.109-0.949,0.309-1.366,0.567L21.17,8.242l-1.52,1.52l1.105,1.105c-0.279,0.38-0.451,0.875-0.567,1.366h-1.563 v0.751L4.299,13.666l-2.866,4.299h2.149v2.149h1.165L4.299,22.98H2.866v2.52C1.138,26.657,0,28.625,0,30.86 c0,3.561,2.814,7.098,6.375,7.098c2.866,0,7.953-0.65,7.953-0.65v-3.231c0.898,0.676,2.012,1.082,3.224,1.082 c0.615,0,1.202-0.108,1.752-0.298c0.709,1.045,1.905,1.731,3.263,1.731c0.171,0,0.337-0.014,0.501-0.035 c0.456,1.671,1.982,2.901,3.797,2.901c1.122,0,2.132-0.471,2.85-1.224l10.404,1.224l0.268-1.34c0.722,0.82,1.777,1.34,2.956,1.34 c2.176,0,3.94-1.764,3.94-3.94c0-0.122-0.007-0.241-0.018-0.36l0.001,0.002l-0.002-0.015c-0.007-0.078-0.02-0.154-0.032-0.231 l-0.666-4.768H48L46.567,25.129z"/><path fill="#fff" d="M21.441,15.813c-0.03-0.057-0.069-0.108-0.117-0.15c-0.047-0.042-0.102-0.074-0.165-0.096 c-0.063-0.022-0.128-0.029-0.196-0.021c-0.072,0.008-0.139,0.029-0.2,0.062c-0.061,0.032-0.112,0.075-0.153,0.128 c-0.041,0.053-0.072,0.112-0.09,0.181c-0.018,0.068-0.02,0.142-0.006,0.222c0.013,0.068,0.036,0.129,0.069,0.182 c0.034,0.054,0.075,0.097,0.123,0.132c0.049,0.034,0.104,0.059,0.165,0.073c0.061,0.015,0.125,0.018,0.193,0.011 c0.071-0.009,0.133-0.028,0.188-0.06c0.054-0.032,0.1-0.071,0.136-0.119c0.037-0.048,0.064-0.102,0.082-0.165 c0.017-0.062,0.024-0.128,0.021-0.197C21.488,15.932,21.472,15.871,21.441,15.813z M21.251,16.129 c-0.011,0.036-0.026,0.067-0.047,0.095c-0.02,0.028-0.044,0.051-0.074,0.069c-0.029,0.018-0.061,0.029-0.097,0.031 c-0.072,0.005-0.134-0.011-0.19-0.049c-0.054-0.039-0.088-0.097-0.1-0.173c-0.006-0.041-0.004-0.08,0.005-0.12 c0.009-0.04,0.026-0.075,0.048-0.107c0.022-0.032,0.048-0.058,0.079-0.078c0.031-0.021,0.064-0.033,0.099-0.037 c0.035-0.003,0.07,0.003,0.102,0.016c0.033,0.014,0.062,0.034,0.09,0.059c0.027,0.024,0.048,0.054,0.066,0.087 c0.018,0.033,0.027,0.067,0.03,0.102C21.266,16.059,21.263,16.094,21.251,16.129z M20.432,16.27c0.004,0.06-0.004,0.111-0.02,0.154 c-0.016,0.042-0.039,0.077-0.067,0.105c-0.029,0.028-0.064,0.049-0.105,0.064c-0.04,0.015-0.083,0.024-0.13,0.027 c-0.046,0.004-0.092-0.001-0.138-0.014c-0.047-0.012-0.09-0.034-0.129-0.065c-0.039-0.032-0.072-0.072-0.1-0.122 c-0.027-0.049-0.043-0.112-0.048-0.184l-0.042-0.492l-0.158,0.011l-0.019-0.224l0.169-0.015l-0.034-0.398l0.234-0.017l0.034,0.394 l0.368-0.032l0.007,0.189l-0.36,0.031l0.045,0.51c0.002,0.027,0.006,0.052,0.011,0.077c0.005,0.026,0.014,0.048,0.026,0.067 c0.012,0.019,0.029,0.034,0.049,0.044c0.021,0.011,0.047,0.016,0.079,0.015c0.047-0.002,0.08-0.014,0.095-0.037 c0.016-0.022,0.024-0.044,0.024-0.067c0.001-0.019-0.001-0.034-0.009-0.043c-0.007-0.01-0.016-0.015-0.026-0.015 c-0.01,0-0.019,0.005-0.028,0.015c-0.009,0.01-0.014,0.025-0.016,0.044l-0.163-0.056c-0.001-0.039,0.011-0.08,0.04-0.122 c0.028-0.042,0.081-0.067,0.158-0.075c0.071-0.009,0.13,0.011,0.176,0.057C20.403,16.143,20.427,16.201,20.432,16.27z M18.585,16.492c-0.039,0.016-0.077,0.024-0.115,0.027c-0.027,0.001-0.054-0.004-0.081-0.011c-0.028-0.007-0.052-0.019-0.075-0.034 c-0.023-0.015-0.042-0.033-0.057-0.054c-0.016-0.021-0.025-0.044-0.027-0.071l0.654-0.068c-0.001-0.117-0.02-0.212-0.054-0.284 c-0.036-0.072-0.077-0.128-0.125-0.166c-0.049-0.038-0.1-0.063-0.153-0.075c-0.054-0.011-0.101-0.016-0.141-0.013 c-0.049,0.004-0.1,0.016-0.151,0.037c-0.052,0.021-0.099,0.052-0.141,0.092c-0.042,0.04-0.077,0.09-0.104,0.15 c-0.027,0.06-0.039,0.13-0.038,0.208c0.002,0.088,0.018,0.164,0.047,0.228c0.029,0.064,0.068,0.117,0.115,0.158 c0.047,0.042,0.102,0.072,0.163,0.09c0.062,0.019,0.123,0.027,0.187,0.024c0.066-0.004,0.125-0.016,0.181-0.039 c0.054-0.022,0.103-0.06,0.145-0.113l-0.138-0.15C18.653,16.455,18.623,16.476,18.585,16.492z M18.292,16.014 c0.042-0.036,0.085-0.055,0.13-0.06c0.044-0.004,0.088,0.006,0.131,0.032c0.043,0.026,0.07,0.067,0.082,0.121l-0.41,0.046 C18.229,16.095,18.251,16.049,18.292,16.014z M17.92,16.71l-0.353,0.029l-0.049-0.631c-0.004-0.054-0.02-0.092-0.05-0.115 c-0.029-0.023-0.059-0.032-0.091-0.029c-0.032,0.004-0.06,0.021-0.085,0.05c-0.025,0.029-0.035,0.07-0.032,0.121 c0.009,0.151,0.024,0.324,0.042,0.519l0.16-0.011l0.011,0.148l-0.426,0.038c-0.013-0.248-0.029-0.49-0.047-0.725 c-0.003-0.035-0.017-0.062-0.042-0.08c-0.025-0.018-0.053-0.025-0.082-0.023c-0.029,0.003-0.055,0.018-0.077,0.044 c-0.021,0.027-0.031,0.066-0.027,0.119c0.002,0.029,0.005,0.067,0.01,0.112c0.004,0.046,0.01,0.111,0.016,0.196 c0.007,0.085,0.016,0.196,0.027,0.335l-0.388,0.026l-0.017-0.201l0.135-0.014l-0.073-0.704l-0.142,0.015l-0.014-0.16l0.382-0.029 l0.019,0.146c0.024-0.034,0.055-0.059,0.091-0.076c0.036-0.016,0.08-0.027,0.131-0.032c0.042-0.003,0.084,0.004,0.128,0.021 c0.044,0.017,0.074,0.043,0.092,0.077c0.027-0.044,0.062-0.075,0.108-0.095c0.044-0.021,0.088-0.033,0.13-0.037 c0.092-0.009,0.17,0.014,0.236,0.069c0.065,0.056,0.102,0.135,0.112,0.239l0.036,0.477l0.116-0.008L17.92,16.71z M16.23,16.192 c-0.03-0.057-0.069-0.108-0.117-0.15c-0.047-0.042-0.102-0.074-0.165-0.097c-0.063-0.021-0.128-0.029-0.196-0.021 c-0.073,0.009-0.139,0.029-0.2,0.062c-0.061,0.033-0.112,0.076-0.154,0.128c-0.042,0.052-0.072,0.112-0.089,0.181 c-0.019,0.068-0.02,0.142-0.006,0.222c0.012,0.068,0.036,0.129,0.069,0.182c0.034,0.054,0.075,0.097,0.123,0.131 c0.049,0.035,0.103,0.059,0.165,0.074c0.061,0.015,0.126,0.018,0.193,0.011c0.071-0.009,0.133-0.029,0.188-0.06 c0.054-0.032,0.1-0.071,0.136-0.119c0.037-0.048,0.064-0.102,0.082-0.165c0.018-0.062,0.025-0.128,0.021-0.196 C16.278,16.312,16.261,16.251,16.23,16.192z M16.041,16.509c-0.011,0.035-0.027,0.067-0.047,0.095 c-0.02,0.028-0.045,0.051-0.074,0.069c-0.029,0.018-0.062,0.029-0.097,0.031c-0.071,0.005-0.134-0.011-0.189-0.049 c-0.055-0.039-0.089-0.097-0.1-0.173c-0.006-0.041-0.004-0.08,0.006-0.12c0.009-0.039,0.025-0.075,0.048-0.107 c0.022-0.032,0.048-0.058,0.078-0.078c0.031-0.021,0.064-0.033,0.1-0.037c0.035-0.003,0.069,0.003,0.102,0.016 c0.033,0.014,0.062,0.034,0.089,0.058c0.027,0.025,0.049,0.054,0.067,0.087c0.017,0.034,0.027,0.067,0.029,0.102 C16.056,16.438,16.052,16.473,16.041,16.509z M15.02,16.618l0.133,0.133c-0.056,0.075-0.117,0.13-0.184,0.168 c-0.067,0.037-0.137,0.059-0.21,0.064c-0.064,0.005-0.125-0.004-0.186-0.025c-0.061-0.021-0.115-0.052-0.161-0.093 c-0.047-0.04-0.085-0.088-0.115-0.143c-0.031-0.054-0.049-0.112-0.055-0.173c-0.006-0.067,0-0.131,0.019-0.191 c0.019-0.06,0.049-0.114,0.087-0.16c0.038-0.047,0.085-0.085,0.139-0.115s0.114-0.047,0.178-0.054 c0.042-0.003,0.084-0.004,0.126-0.001c0.043,0.002,0.083,0.014,0.123,0.034l0.054-0.121l0.208,0.09l-0.16,0.34 c-0.037-0.047-0.085-0.082-0.143-0.104c-0.059-0.022-0.115-0.03-0.168-0.023c-0.068,0.008-0.122,0.037-0.161,0.085 c-0.039,0.049-0.056,0.113-0.048,0.192c0.006,0.08,0.034,0.143,0.085,0.188c0.05,0.044,0.107,0.067,0.169,0.064 c0.047-0.001,0.098-0.017,0.152-0.046C14.953,16.699,14.994,16.662,15.02,16.618z M14.187,17.008l-0.484,0.044l-0.019-0.226 l0.123-0.006l-0.097-1.18l-0.16,0.014l-0.016-0.181l0.4-0.022l0.107,1.359l0.129-0.005L14.187,17.008z M13.234,16.882 c-0.039,0.016-0.077,0.024-0.115,0.026c-0.027,0.001-0.054-0.003-0.081-0.01c-0.028-0.007-0.052-0.019-0.075-0.034 c-0.023-0.015-0.042-0.033-0.057-0.054c-0.016-0.021-0.025-0.044-0.027-0.07l0.654-0.068c-0.001-0.117-0.02-0.212-0.054-0.284 c-0.035-0.072-0.077-0.128-0.125-0.165c-0.048-0.038-0.1-0.063-0.153-0.075c-0.054-0.011-0.101-0.016-0.141-0.013 c-0.049,0.004-0.1,0.016-0.151,0.037c-0.052,0.021-0.099,0.052-0.141,0.092c-0.042,0.04-0.077,0.09-0.104,0.15 c-0.027,0.06-0.039,0.13-0.038,0.208c0.002,0.088,0.018,0.164,0.047,0.228c0.029,0.064,0.068,0.116,0.115,0.158 c0.048,0.042,0.102,0.072,0.163,0.09c0.062,0.019,0.123,0.027,0.187,0.024c0.066-0.004,0.125-0.016,0.181-0.039 c0.054-0.022,0.103-0.06,0.145-0.113l-0.138-0.15C13.302,16.844,13.272,16.866,13.234,16.882z M12.941,16.404 c0.042-0.036,0.085-0.055,0.131-0.06c0.044-0.004,0.088,0.006,0.131,0.032c0.043,0.027,0.07,0.067,0.082,0.122l-0.41,0.046 C12.878,16.485,12.9,16.439,12.941,16.404z M12.473,15.832l-0.135,0.012l-0.203,1.265l-0.267,0.029l-0.221-0.565l-0.101,0.65 l-0.474,0.025l-0.019-0.164l0.171-0.009l-0.346-1.107l-0.12,0.009l-0.011-0.213l0.328-0.028l0.322,1.05l0.099-0.645l0.254-0.02 l0.195,0.58l0.128-0.797l-0.185,0.011l-0.019-0.227l0.582-0.038L12.473,15.832z"/><path fill="#4e342e" d="M24.172,32.562c-0.219-0.231-0.443-0.402-0.655-0.561c-0.418-0.309-0.827-0.577-1.007-0.837 c-0.089-0.128-0.119-0.214-0.115-0.328c0.002-0.109,0.045-0.294,0.105-0.392c0.107-0.203,0.357-0.31,0.701-0.28 c0.332,0.034,0.666,0.209,0.769,0.446c0.01,0.025-0.002,0.393-0.002,0.393l1.003-0.004l-0.007-2.278l-1.003,0.004l0.001,0.5 c-0.183-0.092-0.373-0.165-0.568-0.205c-0.33-0.067-0.693-0.064-1.048,0.06c-0.357,0.117-0.691,0.38-0.897,0.701 c-0.205,0.331-0.306,0.647-0.317,1.041c-0.014,0.393,0.15,0.803,0.357,1.078c0.428,0.557,0.906,0.819,1.292,1.108 c0.396,0.27,0.701,0.556,0.747,0.764c0.027,0.102,0.023,0.241-0.029,0.391c-0.051,0.138-0.116,0.217-0.198,0.266 c-0.154,0.105-0.519,0.065-0.741-0.136c-0.225-0.198-0.296-0.443-0.198-0.754l-1.07-0.365c-0.109,0.32-0.155,0.702-0.059,1.068 c0.087,0.368,0.304,0.691,0.571,0.925c0.526,0.457,1.324,0.679,2.072,0.291c0.363-0.198,0.615-0.547,0.737-0.881 c0.119-0.321,0.176-0.704,0.086-1.094C24.606,33.097,24.388,32.786,24.172,32.562z M28.208,35.123 c-0.219-0.231-0.443-0.402-0.655-0.561c-0.418-0.309-0.827-0.577-1.007-0.837c-0.089-0.128-0.119-0.214-0.115-0.328 c0.002-0.109,0.045-0.294,0.105-0.392c0.107-0.203,0.357-0.31,0.701-0.28c0.332,0.034,0.666,0.209,0.769,0.446 c0.01,0.025-0.002,0.393-0.002,0.393l1.003-0.004l-0.007-2.278l-1.003,0.004l0.001,0.5c-0.183-0.092-0.373-0.165-0.568-0.205 c-0.33-0.067-0.693-0.064-1.048,0.06c-0.357,0.117-0.691,0.38-0.897,0.701c-0.205,0.331-0.306,0.647-0.317,1.041 c-0.014,0.393,0.15,0.803,0.357,1.078c0.428,0.557,0.906,0.819,1.292,1.108c0.396,0.27,0.701,0.556,0.747,0.764 c0.027,0.102,0.023,0.241-0.029,0.391c-0.051,0.138-0.116,0.217-0.198,0.266c-0.154,0.105-0.519,0.065-0.741-0.136 c-0.225-0.198-0.296-0.443-0.198-0.754l-1.071-0.367c-0.109,0.32-0.155,0.702-0.059,1.068c0.087,0.368,0.304,0.691,0.571,0.925 c0.526,0.457,1.324,0.679,2.072,0.291c0.363-0.198,0.615-0.547,0.737-0.881c0.119-0.321,0.176-0.704,0.086-1.094 C28.642,35.659,28.424,35.347,28.208,35.123z M14.078,31.405c-0.168-0.547-0.613-0.951-1.114-1.107 c-0.25-0.086-0.517-0.098-0.769-0.069c-0.239,0.019-0.534,0.143-0.673,0.216c-0.091,0.047-0.181,0.094-0.27,0.143l-0.018-0.494 l-2.31,0.097l0.042,1.002l0.875-0.037l0.142,3.929l-0.621,0.016l0.042,1.002l3.244-0.189l-0.037-0.896l-1.195,0.03l-0.117-3.212 c0.183-0.128,0.442-0.259,0.696-0.365c0.175-0.072,0.211-0.079,0.321-0.085c0.092,0,0.183,0.007,0.259,0.045 c0.158,0.065,0.267,0.201,0.288,0.33c0.016,0.064,0.009,0.128-0.014,0.197c-0.006,0.034-0.029,0.071-0.045,0.109l-0.115,0.218 l1.201,0.591L14,32.621c0.049-0.124,0.097-0.246,0.12-0.385C14.175,31.97,14.168,31.673,14.078,31.405z M21.834,19.987 c0.567,0,1.027-0.46,1.027-1.027c0-0.567-0.46-1.027-1.027-1.027c-0.567,0-1.027,0.46-1.027,1.027 C20.807,19.528,21.267,19.987,21.834,19.987z M22.862,25.097V21.75v-0.312v-0.81l-2.517,0.044v1.077h1.187v3.347h-0.933v1.186 h3.095v-1.186H22.862z M30.694,28.626c0.567,0,1.027-0.46,1.027-1.027c0-0.567-0.46-1.027-1.027-1.027 c-0.567,0-1.027,0.46-1.027,1.027C29.666,28.167,30.126,28.626,30.694,28.626z M31.721,33.735v-3.346v-0.312v-0.81l-2.516,0.044 v1.077h1.187v3.346h-0.933v1.186h3.095v-1.186H31.721z M17.518,27.821c-1.655,0-3.002,1.368-3.002,3.059 c0,1.684,1.347,3.052,3.002,3.052c1.655,0,2.995-1.368,2.995-3.052C20.513,29.19,19.173,27.821,17.518,27.821z M17.518,32.657 c-0.888,0-1.612-0.795-1.612-1.777c0-0.981,0.724-1.777,1.612-1.777s1.605,0.795,1.605,1.777 C19.123,31.862,18.406,32.657,17.518,32.657z M9.752,27.879l-0.408,0.63L8.491,29.82c-0.287-0.387-0.673-0.702-1.139-0.881 c-0.086-0.036-0.172-0.064-0.265-0.093c-1.49-0.416-3.073,0.573-3.532,2.214c-0.451,1.641,0.387,3.303,1.877,3.718 c0.853,0.236,1.745,0.049,2.454-0.45l0.541,1.36c-0.681,0.444-1.476,0.695-2.307,0.695c-0.373,0-0.738-0.05-1.096-0.15 c-2.285-0.638-3.797-2.651-2.987-5.567c0.559-2.013,2.393-3.417,4.356-3.417c0.373,0,0.738,0.05,1.096,0.143 c0.244,0.064,0.473,0.158,0.695,0.265l0.365-0.559L9.752,27.879z M38.555,24.329c0.039-0.433,0.077-0.865,0.122-1.297l0.105-1.032 c0.016-0.168,0.037-0.334,0.048-0.583c-0.001-0.226-0.015-0.456-0.068-0.683c-0.197-0.941-1.04-1.626-1.906-1.8 c-0.45-0.095-0.888-0.062-1.295,0.04c-0.414,0.108-0.795,0.318-1.108,0.57l0.577,0.813c0.249-0.149,0.507-0.237,0.769-0.274 c0.267-0.039,0.537-0.023,0.757,0.055c0.479,0.139,0.794,0.524,0.941,0.931c0.038,0.105,0.061,0.222,0.062,0.34 c0.001,0.042-0.004,0.103-0.01,0.168c-0.408-0.328-0.949-0.533-1.547-0.533c-1.261,0-2.285,0.888-2.285,1.992 c0,1.103,1.024,1.999,2.285,1.999c0.387,0,0.745-0.092,1.065-0.241l-0.049,0.549l2.047,0.183l0.102-1.142L38.555,24.329z M36.26,24.096c-0.63,0-1.082-0.444-1.082-0.989c0-0.544,0.451-0.981,1.082-0.981c0.444,0,0.888,0.208,1.082,0.523l-0.004,0.428 c-0.028,0.198-0.06,0.396-0.09,0.594C37.033,23.922,36.646,24.096,36.26,24.096z M43.463,16.968l-2.272-0.435l-0.216,1.126 l0.936,0.179l-1.336,7.24l-0.619-0.109l-0.198,1.129l2.684,0.474l0.198-1.129l-0.724-0.128L43.463,16.968z M32.412,24.619 l0.097-3.333c0.028-0.964-0.719-1.775-1.683-1.825l0,0c-1.103,0-1.526,0.668-1.526,0.668s-0.33-0.878-1.358-0.878 c-1.028,0-1.358,0.62-1.358,0.62l0.011-0.911l-2.361-0.038v0.858h0.695v4.459h-0.799v1.176h2.297v-0.917l0.097-3.205 c0.012-0.41,0.348-0.736,0.759-0.736l0,0c0.43,0,0.774,0.357,0.759,0.787l-0.162,4.503h2.475v-0.796l-0.917,0.004l0.105-3.489 c0.014-0.45,0.383-0.808,0.833-0.808l0,0c0.475,0,0.854,0.396,0.832,0.871l-0.188,4.141h2.109v-1.151H32.412z M13.178,19.985 l-0.128-1.006l2.248-0.306l0.079,0.927c0,0,0.651-0.976,1.992-0.976l0,0c0.94,0,1.732,0.701,1.844,1.635l0.374,3.098l0.64-0.049 l0.118,1.143l-2.01,0.223l-0.431-3.809c-0.064-0.565-0.563-0.979-1.131-0.937l0,0c-1.247,0.167-1.136,1.365-1.136,1.365 l0.527,3.513l-2.09,0.335l-0.125-0.891l0.747-0.105l-0.628-4.412L13.178,19.985z M32.801,31.876l0.063-0.873l2.213,0.142 l-0.055,0.927c0,0,0.831-0.828,2.145-0.562l0,0c0.921,0.186,1.558,1.03,1.484,1.967l-0.246,3.111l0.638,0.079l-0.11,1.144 l-2.014-0.18l0.332-3.819c0.049-0.567-0.358-1.071-0.923-1.142l0,0c-1.255-0.084-1.384,1.114-1.384,1.114l-0.178,3.548 l-2.115-0.085l0.053-0.898l0.753,0.044l0.258-4.449L32.801,31.876z M13.002,24.387l-0.625,0.039l-3.048-7.674l-3.274,0.32 l0.1,1.214l1.283-0.105l-1.125,6.986l-0.927,0.114l0.161,1.315l0.007-0.001v0.001l1.891-0.222l0.501-3.202L9.981,23l0.641,1.535 l-1.369,0.085l0.102,1.333l3.74-0.345L13.002,24.387z M8.19,21.99l0.43-2.722l1.046,2.622L8.19,21.99z M45.602,35.801 c-0.011-0.103-0.036-0.224-0.053-0.311l-0.052-0.224l-0.827-3.579c-0.194-0.86-0.404-1.715-0.614-2.571l0.577-0.14l-0.235-1.009 l-1.985,0.479l0.207,0.888c-0.508-0.213-1.082-0.281-1.661-0.153c-1.497,0.322-2.443,1.805-2.113,3.296 c0.322,1.497,1.805,2.443,3.296,2.121c0.621-0.137,1.139-0.478,1.519-0.928l0.469,1.921l0.054,0.223l0.027,0.141 c0.008,0.087,0.01,0.176-0.005,0.262c-0.027,0.173-0.107,0.341-0.223,0.476c-0.226,0.275-0.638,0.392-0.931,0.298 c-0.155-0.047-0.299-0.143-0.4-0.274c-0.204-0.296-0.176-0.484-0.059-0.565c0.13-0.089,0.25-0.016,0.316,0.077l0.769-0.529 c-0.261-0.469-0.769-0.759-1.284-0.64c-0.502,0.086-0.988,0.474-1.113,1.039c-0.109,0.586,0.067,0.984,0.296,1.365 c0.243,0.377,0.62,0.657,1.043,0.809c0.878,0.303,1.828-0.018,2.401-0.665c0.287-0.323,0.486-0.728,0.56-1.158 C45.62,36.238,45.622,36.018,45.602,35.801z M41.905,33.309c-0.903,0-1.626-0.702-1.626-1.569c0-0.86,0.724-1.562,1.626-1.562 c0.279,0,0.544,0.072,0.774,0.193h0.007l0.559,2.25C42.958,33.037,42.464,33.309,41.905,33.309z"/><path fill="#ffca28" d="M24.156,31.876c-0.219-0.231-0.443-0.402-0.655-0.561c-0.418-0.309-0.827-0.577-1.007-0.837 c-0.089-0.128-0.119-0.214-0.115-0.328c0.002-0.109,0.045-0.294,0.105-0.392c0.107-0.203,0.357-0.31,0.701-0.28 c0.332,0.034,0.666,0.209,0.769,0.446c0.01,0.025-0.002,0.393-0.002,0.393l1.003-0.004l-0.007-2.278l-1.003,0.004l0.001,0.5 c-0.183-0.092-0.373-0.165-0.568-0.205c-0.33-0.067-0.693-0.064-1.048,0.06c-0.357,0.117-0.691,0.38-0.897,0.701 c-0.205,0.331-0.306,0.647-0.317,1.041c-0.014,0.393,0.15,0.803,0.357,1.078c0.428,0.557,0.906,0.819,1.292,1.108 c0.396,0.27,0.701,0.556,0.747,0.764c0.027,0.102,0.023,0.241-0.029,0.391c-0.051,0.138-0.116,0.217-0.198,0.266 c-0.154,0.105-0.519,0.065-0.741-0.136c-0.225-0.198-0.296-0.443-0.198-0.754l-1.07-0.365c-0.109,0.32-0.155,0.702-0.059,1.068 c0.087,0.368,0.304,0.691,0.571,0.925c0.526,0.457,1.324,0.679,2.072,0.291c0.363-0.198,0.615-0.547,0.737-0.881 c0.119-0.321,0.176-0.704,0.086-1.094C24.59,32.411,24.372,32.1,24.156,31.876z M28.192,34.437 c-0.219-0.231-0.443-0.402-0.655-0.561c-0.418-0.309-0.827-0.577-1.007-0.837c-0.089-0.128-0.119-0.214-0.115-0.328 c0.002-0.109,0.045-0.294,0.105-0.392c0.107-0.203,0.357-0.31,0.701-0.28c0.332,0.034,0.666,0.209,0.769,0.446 c0.01,0.025-0.002,0.393-0.002,0.393l1.003-0.004l-0.007-2.278L27.982,30.6l0.001,0.5c-0.183-0.092-0.373-0.165-0.568-0.205 c-0.33-0.067-0.693-0.064-1.048,0.06c-0.357,0.117-0.691,0.38-0.897,0.701c-0.205,0.331-0.306,0.647-0.317,1.041 c-0.014,0.393,0.15,0.803,0.357,1.078c0.428,0.557,0.906,0.819,1.292,1.108c0.396,0.27,0.701,0.556,0.747,0.764 c0.027,0.102,0.023,0.241-0.029,0.391c-0.051,0.138-0.116,0.217-0.198,0.266c-0.154,0.105-0.519,0.065-0.741-0.136 c-0.225-0.198-0.296-0.443-0.198-0.754l-1.071-0.367c-0.109,0.32-0.155,0.702-0.059,1.068c0.087,0.368,0.304,0.691,0.571,0.925 c0.526,0.457,1.324,0.679,2.072,0.291c0.363-0.198,0.615-0.547,0.737-0.881c0.119-0.321,0.176-0.704,0.086-1.094 C28.626,34.973,28.408,34.661,28.192,34.437z M14.062,30.719c-0.168-0.547-0.613-0.951-1.114-1.107 c-0.25-0.086-0.517-0.098-0.769-0.069c-0.239,0.019-0.534,0.143-0.673,0.216c-0.091,0.047-0.181,0.094-0.27,0.143l-0.018-0.494 l-2.31,0.097l0.042,1.002l0.875-0.037l0.142,3.929l-0.621,0.016l0.042,1.002l3.244-0.189l-0.037-0.896l-1.195,0.03l-0.117-3.212 c0.183-0.128,0.442-0.259,0.696-0.365c0.175-0.072,0.211-0.079,0.321-0.085c0.092,0,0.183,0.007,0.259,0.045 c0.158,0.065,0.267,0.201,0.288,0.33c0.016,0.064,0.009,0.128-0.014,0.197c-0.006,0.034-0.029,0.071-0.045,0.109l-0.115,0.218 l1.201,0.591l0.112-0.252c0.049-0.124,0.097-0.246,0.12-0.385C14.159,31.284,14.152,30.987,14.062,30.719z M21.819,19.301 c0.567,0,1.027-0.46,1.027-1.027c0-0.567-0.46-1.027-1.027-1.027c-0.567,0-1.027,0.46-1.027,1.027 C20.791,18.842,21.251,19.301,21.819,19.301z M22.846,24.411v-3.347v-0.312v-0.81l-2.517,0.044v1.077h1.187v3.347h-0.933v1.186 h3.095v-1.186H22.846z M30.678,27.94c0.567,0,1.027-0.46,1.027-1.027c0-0.567-0.46-1.027-1.027-1.027 c-0.567,0-1.027,0.46-1.027,1.027C29.65,27.48,30.11,27.94,30.678,27.94z M31.705,33.049v-3.346v-0.312v-0.81l-2.516,0.044v1.077 h1.187v3.346h-0.933v1.186h3.095v-1.186H31.705z M17.502,27.135c-1.655,0-3.002,1.368-3.002,3.059c0,1.684,1.347,3.052,3.002,3.052 c1.655,0,2.995-1.368,2.995-3.052C20.497,28.503,19.157,27.135,17.502,27.135z M17.502,31.971c-0.888,0-1.612-0.795-1.612-1.777 c0-0.981,0.724-1.777,1.612-1.777c0.888,0,1.605,0.795,1.605,1.777C19.107,31.176,18.39,31.971,17.502,31.971z M9.736,27.192 l-0.408,0.63l-0.853,1.311c-0.287-0.387-0.673-0.702-1.139-0.881c-0.086-0.036-0.172-0.064-0.265-0.093 c-1.49-0.416-3.073,0.573-3.532,2.214c-0.451,1.641,0.387,3.303,1.877,3.718c0.853,0.236,1.745,0.049,2.454-0.45l0.541,1.36 c-0.681,0.444-1.476,0.695-2.307,0.695c-0.373,0-0.738-0.05-1.096-0.15c-2.285-0.638-3.797-2.651-2.987-5.567 c0.559-2.013,2.393-3.417,4.356-3.417c0.373,0,0.738,0.05,1.096,0.143c0.244,0.064,0.473,0.158,0.695,0.265l0.365-0.559 L9.736,27.192z M38.539,23.643c0.039-0.433,0.077-0.865,0.122-1.297l0.105-1.032c0.016-0.168,0.037-0.334,0.048-0.583 c-0.001-0.226-0.015-0.456-0.068-0.683c-0.197-0.941-1.04-1.626-1.906-1.8c-0.45-0.095-0.888-0.062-1.295,0.04 c-0.414,0.108-0.795,0.318-1.108,0.57l0.577,0.813c0.249-0.149,0.507-0.237,0.769-0.274c0.267-0.039,0.537-0.023,0.757,0.055 c0.479,0.139,0.794,0.524,0.941,0.931c0.038,0.105,0.061,0.222,0.062,0.34c0.001,0.042-0.004,0.103-0.01,0.168 c-0.408-0.328-0.949-0.533-1.547-0.533c-1.261,0-2.285,0.888-2.285,1.992c0,1.103,1.024,1.999,2.285,1.999 c0.387,0,0.745-0.092,1.065-0.241l-0.049,0.549l2.047,0.183l0.102-1.142L38.539,23.643z M36.244,23.41 c-0.63,0-1.082-0.444-1.082-0.989s0.451-0.981,1.082-0.981c0.444,0,0.888,0.208,1.082,0.523l-0.004,0.428 c-0.028,0.198-0.06,0.396-0.09,0.594C37.017,23.236,36.63,23.41,36.244,23.41z M43.447,16.282l-2.272-0.435l-0.216,1.126 l0.936,0.179l-1.336,7.24l-0.619-0.109l-0.198,1.129l2.684,0.474l0.198-1.129L41.9,24.63L43.447,16.282z M32.396,23.933 l0.097-3.333c0.028-0.964-0.719-1.775-1.683-1.825l0,0c-1.103,0-1.526,0.668-1.526,0.668s-0.33-0.878-1.358-0.878 s-1.358,0.62-1.358,0.62l0.011-0.911l-2.361-0.038v0.858h0.695v4.459h-0.799v1.176h2.297v-0.917l0.097-3.205 c0.012-0.41,0.348-0.736,0.759-0.736l0,0c0.43,0,0.774,0.357,0.759,0.787l-0.162,4.503h2.475v-0.796l-0.917,0.004l0.105-3.489 c0.014-0.45,0.383-0.808,0.833-0.808l0,0c0.475,0,0.854,0.396,0.832,0.871l-0.188,4.141h2.109v-1.151H32.396z M13.162,19.299 l-0.128-1.006l2.248-0.306l0.079,0.927c0,0,0.651-0.976,1.992-0.976l0,0c0.94,0,1.732,0.701,1.844,1.635l0.374,3.098l0.64-0.049 l0.118,1.143l-2.01,0.223l-0.431-3.809c-0.064-0.565-0.563-0.979-1.131-0.937l0,0c-1.247,0.167-1.136,1.365-1.136,1.365 l0.527,3.513l-2.09,0.335l-0.125-0.891l0.747-0.105l-0.628-4.412L13.162,19.299z M32.785,31.19l0.063-0.873l2.213,0.142 l-0.055,0.927c0,0,0.831-0.828,2.145-0.562l0,0c0.921,0.186,1.558,1.03,1.484,1.967l-0.246,3.111l0.638,0.079l-0.11,1.144 l-2.014-0.18l0.332-3.819c0.049-0.567-0.358-1.071-0.923-1.142l0,0c-1.255-0.084-1.384,1.114-1.384,1.114l-0.178,3.548 l-2.115-0.085l0.053-0.898l0.753,0.044l0.258-4.449L32.785,31.19z M12.987,23.701l-0.625,0.039l-3.048-7.674l-3.274,0.32l0.1,1.214 l1.283-0.105l-1.125,6.986L5.37,24.595l0.161,1.315l0.007-0.001v0.001l1.891-0.222l0.501-3.202l2.035-0.172l0.641,1.535 l-1.369,0.085l0.102,1.333l3.74-0.345L12.987,23.701z M8.174,21.303l0.43-2.722l1.046,2.622L8.174,21.303z M45.586,35.115 c-0.011-0.103-0.036-0.224-0.053-0.311l-0.052-0.224l-0.827-3.579c-0.194-0.86-0.404-1.715-0.614-2.571l0.577-0.14l-0.235-1.009 l-1.985,0.479l0.207,0.888c-0.508-0.213-1.082-0.281-1.661-0.153c-1.497,0.322-2.443,1.805-2.113,3.296 c0.322,1.497,1.805,2.443,3.296,2.121c0.621-0.137,1.139-0.478,1.519-0.928l0.469,1.921l0.054,0.223l0.027,0.141 c0.008,0.087,0.01,0.176-0.005,0.262c-0.027,0.173-0.107,0.341-0.223,0.476c-0.226,0.275-0.638,0.392-0.931,0.298 c-0.155-0.047-0.299-0.143-0.4-0.274c-0.204-0.296-0.176-0.484-0.059-0.565c0.13-0.089,0.25-0.016,0.316,0.077l0.769-0.529 c-0.261-0.469-0.769-0.759-1.284-0.64c-0.502,0.086-0.988,0.474-1.113,1.039c-0.109,0.586,0.067,0.984,0.296,1.365 c0.243,0.377,0.62,0.657,1.043,0.809c0.878,0.303,1.828-0.018,2.401-0.665c0.287-0.323,0.486-0.728,0.56-1.158 C45.604,35.552,45.606,35.332,45.586,35.115z M41.889,32.623c-0.903,0-1.626-0.702-1.626-1.569c0-0.86,0.724-1.562,1.626-1.562 c0.279,0,0.544,0.072,0.774,0.193h0.007l0.559,2.25C42.942,32.351,42.448,32.623,41.889,32.623z"/><circle cx="24.686" cy="12.941" r="3.197" fill="#87643c"/><circle cx="24.686" cy="12.941" r="2.686" fill="#f7e7c1"/><circle cx="24.686" cy="12.941" r=".314" fill="#87643c"/><path fill="#87643c" d="M24.676,11.08c-0.138,0-0.25-0.112-0.25-0.25v-0.591c0-0.138,0.112-0.25,0.25-0.25 s0.25,0.112,0.25,0.25v0.591C24.926,10.968,24.813,11.08,24.676,11.08z"/><path fill="#87643c" d="M24.676,13.08c-0.138,0-0.25-0.112-0.25-0.25v-0.931c0-0.138,0.112-0.25,0.25-0.25 s0.25,0.112,0.25,0.25v0.931C24.926,12.968,24.813,13.08,24.676,13.08z"/><path fill="#87643c" d="M23.989,13.889c-0.061,0-0.121-0.021-0.169-0.066c-0.102-0.093-0.108-0.251-0.015-0.353 l0.654-0.711c0.093-0.102,0.252-0.108,0.353-0.015c0.102,0.093,0.108,0.251,0.015,0.353l-0.654,0.711 C24.124,13.861,24.057,13.889,23.989,13.889z"/><path fill="#87643c" d="M24.676,15.883c-0.138,0-0.25-0.112-0.25-0.25v-0.59c0-0.138,0.112-0.25,0.25-0.25 s0.25,0.112,0.25,0.25v0.59C24.926,15.771,24.813,15.883,24.676,15.883z"/><path fill="#87643c" d="M27.372,13.187h-0.59c-0.138,0-0.25-0.112-0.25-0.25s0.112-0.25,0.25-0.25h0.59 c0.138,0,0.25,0.112,0.25,0.25S27.51,13.187,27.372,13.187z"/><path fill="#87643c" d="M22.569,13.187h-0.591c-0.138,0-0.25-0.112-0.25-0.25s0.112-0.25,0.25-0.25h0.591 c0.138,0,0.25,0.112,0.25,0.25S22.707,13.187,22.569,13.187z"/><path fill="#87643c" d="M26.165,11.696c-0.064,0-0.128-0.024-0.177-0.073c-0.098-0.098-0.098-0.256,0-0.354l0.417-0.417 c0.098-0.098,0.256-0.098,0.354,0s0.098,0.256,0,0.354l-0.417,0.417C26.293,11.672,26.229,11.696,26.165,11.696z"/><path fill="#87643c" d="M23.187,11.696c-0.063,0-0.128-0.024-0.177-0.073l-0.418-0.417c-0.098-0.098-0.098-0.256,0-0.354 c0.097-0.098,0.255-0.098,0.354,0l0.418,0.417c0.098,0.098,0.098,0.256,0,0.354C23.314,11.672,23.251,11.696,23.187,11.696z"/><path fill="#87643c" d="M26.582,15.093c-0.064,0-0.128-0.024-0.177-0.073l-0.417-0.417c-0.098-0.098-0.098-0.256,0-0.354 s0.256-0.098,0.354,0l0.417,0.417c0.098,0.098,0.098,0.256,0,0.354C26.71,15.068,26.646,15.093,26.582,15.093z"/><path fill="#87643c" d="M24.103,13.571c0,0-0.028-0.617-0.503-0.524c-0.474,0.094-0.334,0.536-0.328,0.707 c0.005,0.171-0.041,0.644-0.232,0.901c0.244-0.161,0.626-0.331,0.897-0.273s0.631-0.064,0.676-0.299S24.463,13.545,24.103,13.571z"/></svg>