<svg xmlns="http://www.w3.org/2000/svg"  viewBox="0 0 48 48" width="1600px" height="1600px"><rect width="28" height="4" x="5" y="9" fill="#d84315"/><rect width="8" height="20" x="5" y="9" fill="#d84315"/><rect width="8" height="20" x="25" y="9" fill="#d84315"/><path fill="#ff6f00" d="M25,29c3.333-3,6.667-6,10-9v9C31.667,29,28.333,29,25,29z"/><rect width="28" height="4" x="15" y="36" fill="#fbc02d"/><rect width="8" height="20" x="15" y="20" fill="#fbc02d"/><rect width="8" height="20" x="35" y="20" fill="#fbc02d"/><path fill="#b52e0f" d="M23,20c-3.333,3-6.667,6-10,9v-9C16.333,20,19.667,20,23,20z"/><rect width="5" height="5" x="36" y="12" fill="#d84315"/><rect width="5" height="5" x="7" y="32" fill="#fbc02d" transform="rotate(45.001 9.5 34.5)"/></svg>