<svg xmlns="http://www.w3.org/2000/svg"  viewBox="0 0 48 48" width="1600px" height="1600px"><polygon fill="#263238" points="9,12 5.25,12 2.5,25.75 7.5,30.25 11,30.25"/><polygon fill="#263238" points="39,12 42.75,12 45.5,25.75 40.5,30.25 37,30.25"/><path fill="#263238" d="M11.521,34.066L11.521,34.066L3.652,20.177L9.434,6.878C9.626,6.436,9.982,6.085,10.427,5.9	l12.856-5.351c0.459-0.191,0.975-0.191,1.433,0L37.573,5.9c0.445,0.185,0.801,0.536,0.994,0.978l5.781,13.299l-7.87,13.889l0,0	c0.69,0.759,0.639,1.932-0.116,2.627L25.263,46.914c-0.714,0.658-1.813,0.658-2.527,0L11.638,36.692	C10.883,35.997,10.831,34.824,11.521,34.066z"/><polygon fill="#ffa726" points="24,4 24,13 20.5,11 21.5,5"/><polygon fill="#2675a8" points="24,12.5 24,42 17.77,36.87 16.33,35.68 15.5,35 15.2,34.48 15.16,34.4 7,20 12,8.5 13,8.09 20.5,5 20,10"/><polygon fill="#56acd6" points="20.5,5 20.37,6.26 20,10 16,12 12.94,9.32 12,8.5"/><polygon fill="#ffecb3" points="21.5,5 24,7 24,4"/><circle cx="17" cy="9.5" r="1" fill="#2675a8"/><circle cx="17" cy="9.5" r=".5" fill="#56acd6"/><polygon fill="#2b9dd7" points="16.5,34.5 16.33,35.68 15.5,35 7,20 12,8.5 13,8.09 13,9 8.25,20"/><polygon fill="#81d4fa" points="20.5,5 20.37,6.26 12.94,9.32 12,8.5"/><polygon fill="#f57c00" points="24,39.5 24,44 14.5,35.25 15.2,34.48 15.22,34.46 17,32.5"/><polygon fill="#ffa726" points="24,39.5 24,41 18,35 18.75,34.25"/><polygon fill="#9a4c00" points="24,42.75 24,44 14.5,35.25 15.2,34.48 15.16,34.4 15.22,34.46 17.77,36.87"/><polygon fill="#ffd54f" points="18.75,34.25 18,35 14.5,35.25 17,32.5"/><polygon fill="#ffa726" points="24,4 24,13 27.5,11 26.5,5"/><polygon fill="#2675a8" points="24,12.5 24,42 30.23,36.87 31.67,35.68 32.5,35 32.8,34.48 32.84,34.4 41,20 36,8.5 35,8.09 27.5,5 28,10"/><polygon fill="#56acd6" points="27.5,5 27.63,6.26 28,10 32,12 35.06,9.32 36,8.5"/><polygon fill="#ffecb3" points="26.5,5 24,7 24,4"/><circle cx="31" cy="9.5" r="1" fill="#2675a8"/><polygon fill="#2b9dd7" points="31.5,34.5 31.67,35.68 32.5,35 41,20 36,8.5 35,8.09 35,9 39.75,20"/><polygon fill="#81d4fa" points="27.5,5 27.63,6.26 35.06,9.32 36,8.5"/><polygon fill="#f57c00" points="24,39.5 24,44 33.5,35.25 32.8,34.48 32.78,34.46 31,32.5"/><polygon fill="#ffa726" points="24,39.5 24,41 30,35 29.25,34.25"/><polygon fill="#9a4c00" points="24,42.75 24,44 33.5,35.25 32.8,34.48 32.84,34.4 32.78,34.46 30.23,36.87"/><polygon fill="#ffd54f" points="29.25,34.25 30,35 33.5,35.25 31,32.5"/><circle cx="31" cy="9.5" r=".5" fill="#56acd6"/><polygon fill="#263238" points="41.316,13 37.715,13 35.75,15.947 35.75,13 32.215,13 31.43,14.178 30.894,13 28,13 27.691,13 19.75,13 19.751,15.34 17.704,13 11.75,13 11.75,16.059 9.507,13 5.915,13 3.663,25.386 7.88,29 11,29 11,28.662 11.281,29 20.08,29 21.388,29 26.75,29 27.347,29 29.917,29 30.25,28.2 30.583,29 36.219,29 36.798,28.305 37.029,29 39.891,29 43.843,25.353"/><polygon fill="#9a4c00" points="9,14 11.75,17.75 13.5,28 10.75,25 8.75,15"/><polygon fill="#9a4c00" points="10,28 10,27.25 12,27.25 9,23 7,23 6.25,24.25 6.75,25 8,27"/><polygon fill="#6b2d00" points="4.75,25 8.25,28 10,28 6.75,25"/><polygon fill="#6b2d00" points="9.25,25 11.75,28 13.5,28 11.25,25"/><polygon fill="#9a4c00" points="16.5,28 16.5,20 14,20 14,26"/><polygon fill="#6b2d00" points="12.75,25 14.75,28 16.5,28 14.75,25"/><polygon fill="#9a4c00" points="16.75,25 19,25 18.5,24.25 20,23 20,19 19,16 17.5,19.5 16.75,21.25"/><polygon fill="#9a4c00" points="27,16 26.25,21 24.5,21 24.5,23.75 21.5,23.75 21.5,15 26.25,15"/><polygon fill="#6b2d00" points="20.75,25 21,28 26.5,28 27,25 23.75,24.25"/><polygon fill="#9a4c00" points="28.5,14 27.75,17.5 27.75,28 29.5,25 29.5,15.5"/><polygon fill="#6b2d00" points="28.5,25 27.75,28 29.25,28 30.5,25"/><polygon fill="#9a4c00" points="31.25,28 30,25 30,18 33,22.25 33.25,25.75"/><polygon fill="#6b2d00" points="32.75,25 31.25,28 33,28 34.75,25"/><polygon fill="#9a4c00" points="38.25,14 35.75,17.75 34,28 36.75,25.75 38.75,16"/><polygon fill="#9a4c00" points="32.75,14 30.75,17 32.75,20.5 33.75,19.5"/><polygon fill="#9a4c00" points="36,27.25 37.5,27.25 37.75,28 40.25,26.5 41.5,23.5 39.5,23 37.25,23.75"/><polygon fill="#6b2d00" points="36.25,25 34,28 35.75,28 38.25,25"/><polygon fill="#6b2d00" points="40.75,25 37.75,28 39.5,28 42.75,25"/><polygon fill="#6b2d00" points="38.5,22.5 41,22.25 39.5,17.75"/><polygon fill="#6b2d00" points="14.5,15.5 17.5,15.5 17.5,19 14.25,19"/><polygon fill="#6b2d00" points="6.5,22.25 8,17.75 9.5,22.25"/><g><path fill="#ffe082" d="M9,14l2.25,11h-2L9,24H7l-0.25,1h-2l2-11H9z M7.25,22h1.5L8,19L7.25,22z"/><path fill="#ffe082" d="M17.25,14L19,16v3l-1.5,1.5L19,25h-2.25l-1.25-4.5h-0.75V25h-2V14H17.25z M16.5,18.5L17,18v-1.5 L16.5,16h-1.75v2.5H16.5z"/><polygon fill="#ffe082" points="20.75,14 20.75,25 27,25 27,23 22.5,23 22.5,20.5 24.5,20.5 24.5,18.5 22.5,18.5 22.5,16 27,16 27,14"/><polygon fill="#ffe082" points="28.5,14 28.5,25 30.5,25 30.5,19.5 32.75,25 34.75,25 34.75,14 32.75,14 32.75,19.5 30.25,14"/><path fill="#ffe082" d="M40.5,14l2.25,11h-2l-0.25-1h-2l-0.25,1h-2l2-11H40.5z M38.75,22h1.5l-0.75-3L38.75,22z"/></g><polygon fill="#6b2d00" points="16.75,25 19,25 20,28 17.75,28"/></svg>