<svg xmlns="http://www.w3.org/2000/svg"  viewBox="0 0 48 48" width="1600px" height="1600px"><path fill="#b0bec5" d="M46.961,27.976c-0.116-0.077-0.458-0.339-0.585-0.849C46.325,26.924,46.242,26.52,46.14,26 c-0.273-1.402-0.694-3.743-1.093-6c-0.495-2.801-0.952-5.45-1.034-5.925C44.005,14.027,43.964,14,43.916,14h-7.833 c-0.037,0.031-0.061,0.051-0.098,0.082l-0.344,1.837C35.631,15.966,35.59,16,35.542,16h-3.839c-0.046,0-0.086,0.031-0.097,0.076 L30.625,20l-0.5,2h-0.25l-0.667-2l-1.311-3.932C27.884,16.028,27.846,16,27.803,16h-5.184c-0.055,0-0.1,0.045-0.1,0.1l0,2.348 c0,0.031,0.013,0.058,0.038,0.077C22.67,18.615,23,18.964,23,20c0,0,0,3.6,0,6c0,0.599,0,1.126,0,1.5c0,0.375-0.25,0.875-0.75,1 c-0.5-0.125-0.75-0.625-0.75-1V26v-0.688c0-1.001-0.811-1.813-1.813-1.813h-1.125c1.691,0,2.938-1.371,2.938-3.063V20v-0.938 c0-1.691-1.371-3.062-3.063-3.062h-6.359c-0.046,0-0.086-0.032-0.097-0.077l-0.462-1.849C11.508,14.031,11.468,14,11.422,14H4.084 c-0.049,0-0.089,0.027-0.097,0.075C3.905,14.55,3.448,17.199,2.953,20c-0.399,2.258-0.82,4.599-1.093,6 c-0.101,0.519-0.184,0.922-0.235,1.125c-0.129,0.516-0.477,0.81-0.59,0.893C1.011,28.037,1,28.064,1,28.094V30.9 C1,30.955,1.045,31,1.1,31h5.675c0.055,0,0.1-0.045,0.1-0.1l0-2.846c0-0.047-0.034-0.084-0.079-0.093C6.344,27.866,6,27.48,6,27 v-0.875c0-0.055,0.045-0.1,0.1-0.1h2.8c0.055,0,0.1,0.045,0.1,0.1V27c0,0.48-0.344,0.866-0.796,0.961 c-0.046,0.01-0.079,0.046-0.079,0.093l0,2.846c0,0.055,0.045,0.1,0.1,0.1h7.425c0.055,0,0.1-0.045,0.1-0.1l0-2.594 c0-0.034-0.013-0.063-0.041-0.081C15.551,28.126,15,27.726,15,26.987V26v-0.9c0-0.055,0.045-0.1,0.1-0.1H16c0.552,0,1,0.448,1,1v0.5 c0,0.203,0,0.407,0,0.5c0,0.743,0,2.124,0,2.75c0,0.875,0.25,1.25,0.25,1.25h9.65c0.055,0,0.1-0.045,0.1-0.1v-2.589 c0-0.036-0.015-0.067-0.047-0.084c-0.145-0.078-0.453-0.365-0.453-0.99c0-0.31,0-0.754,0-1.237c0-1.344,0-3,0-3l1.031,3l1.696,4.932 C29.241,30.973,29.279,31,29.322,31h1.353c0.045,0,0.084-0.03,0.096-0.073L32.156,26L33,23c0,0,0,1.656,0,3c0,0.483,0,0.927,0,1.237 c0,0.625-0.308,0.911-0.453,0.99c-0.032,0.017-0.047,0.048-0.047,0.084V30.9c0,0.055,0.045,0.1,0.1,0.1h6.175 c0.055,0,0.1-0.045,0.1-0.1v-2.844c0-0.047-0.034-0.083-0.079-0.093C38.344,27.868,38,27.482,38,27.002V26.1 c0-0.055,0.045-0.1,0.1-0.1h2.8c0.055,0,0.1,0.045,0.1,0.1v0.902c0,0.48-0.344,0.866-0.796,0.961 c-0.046,0.01-0.079,0.046-0.079,0.093V30.9c0,0.055,0.045,0.1,0.1,0.1H46.9c0.055,0,0.1-0.045,0.1-0.1v-2.845 C47,28.022,46.988,27.994,46.961,27.976z M8.378,23H6.622c-0.063,0-0.11-0.058-0.098-0.12L7.1,20l0.302-1.51 c0.021-0.107,0.175-0.107,0.196,0L7.9,20l0.576,2.88C8.488,22.942,8.441,23,8.378,23z M17,21c0,0.552-0.448,1-1,1h-0.9 c-0.055,0-0.1-0.045-0.1-0.1V20v-0.9c0-0.055,0.045-0.1,0.1-0.1H16c0.552,0,1,0.448,1,1V21z M40.378,23.002h-1.756 c-0.063,0-0.11-0.058-0.098-0.12L39.1,20l0.302-1.508c0.021-0.107,0.175-0.107,0.196,0L39.9,20l0.576,2.882 C40.488,22.944,40.441,23.002,40.378,23.002z"/><path fill="#b0bec5" d="M35.9,10H12.1c-0.106,0-0.139,0.142-0.045,0.189l3.392,1.534C15.786,11.893,16,12.239,16,12.618V14.9 c0,0.055,0.045,0.1,0.1,0.1h6.8c0.055,0,0.1-0.045,0.1-0.1c0,0,0-2.689,0-2.9c0-0.552,0.448-1,1-1s1,0.448,1,1c0,0.143,0,2.9,0,2.9 c0,0.055,0.045,0.1,0.1,0.1h6.8c0.055,0,0.1-0.045,0.1-0.1v-2.492c0-0.399,0.238-0.76,0.604-0.918l3.34-1.3 C36.039,10.142,36.005,10,35.9,10z"/><path fill="#9e9e9e" d="M35.945 36.811l-3.392-1.534C32.214 35.107 32 34.761 32 34.382V32.1c0-.055-.045-.1-.1-.1h-6.8c-.055 0-.1.045-.1.1 0 0 0 2.698 0 2.9 0 .552-.448 1-1 1s-1-.448-1-1c0-.202 0-2.9 0-2.9 0-.055-.045-.1-.1-.1h-6.8c-.055 0-.1.045-.1.1v2.492c0 .399-.238.76-.604.918l-3.34 1.3C11.961 36.858 11.995 37 12.1 37h23.8C36.005 37 36.039 36.858 35.945 36.811zM29.227 30.932C29.241 30.973 29.279 31 29.322 31h1.353c.045 0 .084-.03.096-.073L32.156 26h-4.625L29.227 30.932zM41 26.1v.902c0 .48-.344.866-.796.961-.046.01-.079.046-.079.093V30.9c0 .055.045.1.1.1H46.9c.055 0 .1-.045.1-.1v-2.845c0-.033-.012-.061-.039-.079-.116-.077-.458-.339-.585-.849C46.325 26.924 46.242 26.52 46.14 26H40.9C40.955 26 41 26.045 41 26.1zM33 27.237c0 .625-.308.911-.453.99-.032.017-.047.048-.047.084V30.9c0 .055.045.1.1.1h6.175c.055 0 .1-.045.1-.1v-2.844c0-.047-.034-.083-.079-.093C38.344 27.868 38 27.482 38 27.002V26.1c0-.055.045-.1.1-.1H33C33 26.483 33 26.927 33 27.237zM1.625 27.125c-.129.516-.477.81-.59.893C1.011 28.037 1 28.064 1 28.094V30.9C1 30.955 1.045 31 1.1 31h5.675c.055 0 .1-.045.1-.1l0-2.846c0-.047-.034-.084-.079-.093C6.344 27.866 6 27.48 6 27v-.875c0-.055.045-.1.1-.1h2.8c.055 0 .1.045.1.1V27c0 .48-.344.866-.796.961-.046.01-.079.046-.079.093l0 2.846c0 .055.045.1.1.1h7.425c.055 0 .1-.045.1-.1l0-2.594c0-.034-.013-.063-.041-.081C15.551 28.126 15 27.726 15 26.987V26H1.86C1.758 26.519 1.676 26.922 1.625 27.125zM23 27.5c0 .375-.25.875-.75 1-.5-.125-.75-.625-.75-1V26H17v.5c0 .203 0 .407 0 .5 0 .743 0 2.124 0 2.75 0 .875.25 1.25.25 1.25h9.65c.055 0 .1-.045.1-.1v-2.589c0-.036-.015-.067-.047-.084-.145-.078-.453-.365-.453-.99 0-.31 0-.754 0-1.237H23C23 26.599 23 27.126 23 27.5z"/><path fill="#9badb6" d="M39.9 20l.576 2.882c.012.062-.035.12-.098.12h-1.756c-.063 0-.11-.058-.098-.12L39.1 20h-8.475l-.5 2h-.25l-.667-2H23c0 0 0 3.6 0 6h3.5c0-1.344 0-3 0-3l1.031 3h4.625L33 23c0 0 0 1.656 0 3h5.1 2.8 5.24c-.273-1.402-.694-3.743-1.093-6H39.9zM21.5 25.313c0-1.001-.811-1.813-1.813-1.813h-1.125c1.691 0 2.938-1.371 2.938-3.063V20H17v1c0 .552-.448 1-1 1h-.9c-.055 0-.1-.045-.1-.1V20H7.9l.576 2.88C8.488 22.942 8.441 23 8.378 23H6.622c-.063 0-.11-.058-.098-.12L7.1 20H2.953c-.399 2.258-.82 4.599-1.093 6H15v-.9c0-.055.045-.1.1-.1H16c.552 0 1 .448 1 1h4.5V25.313z"/></svg>