<svg xmlns="http://www.w3.org/2000/svg"  viewBox="0 0 48 48" width="1600px" height="1600px" baseProfile="basic"><path fill="#e61e25" d="M18.012,7.007c0.852,0,1.132,0,1.984,0c0,2.02,0,4.041,0,6.061	c0.016,1.681-0.032,3.362-0.113,5.059c-0.113,2.425-0.273,4.865-0.659,7.274c-0.273,1.649-0.852,3.249-1.56,4.768	c-1.158,2.441-2.959,4.51-5.001,6.255c-1.817,1.616-4.004,2.78-6.287,3.588C5.091,40.467,3.367,40.806,2,41c0-1.697,0-3.378,0-5.075	c1.64-0.242,4.162-0.774,5.625-1.55c1.737-0.921,3.28-2.15,4.599-3.621c1.351-1.503,2.428-3.249,3.248-5.092	c0.965-2.134,1.479-4.429,1.833-6.724c0.434-2.926,0.627-5.884,0.691-8.842C18.012,9.062,18.012,8.009,18.012,7.007z"/><path fill="#e61e25" d="M22.014,7.007c1.333-0.016,2.653,0,3.986,0c0,11.315,0,22.646,0,33.96	c-1.333,0-2.653,0-3.986,0c-0.014-3.605,0-7.225-0.014-10.83C22.014,22.428,22.014,14.717,22.014,7.007z"/><path fill="#e61e25" d="M28.001,7.007C28.854,7.007,29.169,7,30.005,7c-0.032,3.459,0.096,6.977,0.498,10.419	c0.338,2.667,0.929,5.357,1.99,7.831c0.997,2.408,2.856,4.597,4.738,6.391c1.801,1.713,3.972,3.039,6.335,3.799	c0.659,0.21,1.742,0.372,2.433,0.485c0,1.697,0,3.378,0,5.075c-1.351-0.178-3.077-0.533-4.363-0.97	c-1.528-0.533-3.007-1.228-4.374-2.117c-0.997-0.647-1.897-1.406-2.766-2.214c-1.431-1.325-2.701-2.829-3.666-4.542	c-0.756-1.325-1.302-2.764-1.737-4.219c-0.386-1.471-0.563-2.99-0.708-4.51c-0.289-3.265-0.402-6.546-0.386-9.828	C28.001,10.741,28.001,8.85,28.001,7.007z"/></svg>