<svg xmlns="http://www.w3.org/2000/svg"  viewBox="0 0 48 48" width="1600px" height="1600px"><path fill="#37474f" d="M25.727,47c-0.292,0-0.59-0.161-0.734-0.414c-0.025-0.044-0.046-0.089-0.061-0.137	c-0.04-0.097-0.112-0.283-0.25-0.653c-0.132,0.219-0.364,0.365-0.624,0.386c-0.275,0.031-0.549-0.097-0.717-0.32l-0.558-0.747	l-0.573,0.752c-0.169,0.222-0.439,0.342-0.72,0.315c-0.279-0.026-0.523-0.194-0.648-0.444l-0.3-0.605l-0.829,0.819	c-0.197,0.195-0.48,0.274-0.752,0.214c-0.271-0.063-0.49-0.259-0.581-0.52c-0.166-0.475-0.297-0.859-0.402-1.172	c-0.367,0.365-0.674,0.673-0.674,0.673c-0.184,0.184-0.446,0.268-0.701,0.226c-0.257-0.041-0.478-0.202-0.594-0.434l-0.447-0.887	l-0.892,0.444c-0.25,0.124-0.548,0.112-0.786-0.035c-0.238-0.148-0.384-0.406-0.384-0.684c-0.003-0.239-0.092-0.59-0.202-0.678	c-0.081-0.053-0.397-0.117-0.631-0.125c-0.435-0.016-0.783-0.37-0.783-0.803c0-0.006-0.007-0.846-0.295-1.474	c-0.01-0.015-0.047-0.065-0.099-0.132h-1.222c-0.304,0-0.582-0.169-0.72-0.438c-0.138-0.27-0.112-0.593,0.067-0.837l0.29-0.397	c-0.3-0.229-0.634-0.545-0.939-0.971c-0.2-0.281-0.487-0.789-0.708-1.197l-1.772,0.586c-0.291,0.097-0.611,0.021-0.826-0.194	c-0.216-0.215-0.292-0.533-0.195-0.822l0.515-1.535L5.276,34.63c-0.262-0.049-0.482-0.222-0.59-0.463	c-0.107-0.243-0.089-0.52,0.051-0.747l0.346-0.557l-0.826-0.411c-0.233-0.116-0.394-0.335-0.436-0.589	c-0.041-0.255,0.043-0.514,0.226-0.696l0.174-0.173l-0.922-0.744c-0.198-0.16-0.308-0.402-0.298-0.655	c0.01-0.252,0.14-0.486,0.35-0.63l0.689-0.471l-0.716-0.534c-0.224-0.167-0.345-0.437-0.32-0.715	c0.025-0.277,0.193-0.521,0.443-0.646l0.722-0.358l-0.991-1.233c-0.153-0.19-0.211-0.437-0.158-0.674	c0.052-0.237,0.209-0.438,0.427-0.546l0.496-0.247l-0.644-0.52c-0.193-0.155-0.303-0.389-0.299-0.637	c0.004-0.247,0.122-0.477,0.32-0.626c0.083-0.063,0.169-0.129,0.25-0.194c-0.13-0.19-0.284-0.414-0.426-0.618	c-0.183-0.262-0.191-0.606-0.023-0.878l0.59-0.953l-0.647-1.527c-0.105-0.249-0.078-0.533,0.073-0.757l0.525-0.784	c-0.145-0.235-0.278-0.439-0.351-0.537c-0.14-0.109-0.244-0.263-0.288-0.446c-0.094-0.388,0.115-0.786,0.488-0.933	c0.025-0.013,0.269-0.136,0.555-0.281l-0.02-0.021C3.748,13.533,3.728,13.06,4,12.741l0,0c-0.001,0,0.126-0.177,0.203-0.534	l0.019-0.086c0.262-1.165,0.395-2.133,0.395-2.874c0-0.294,0.162-0.565,0.421-0.705C5.39,8.35,5.793,8.057,5.923,7.901	C5.969,7.465,6.226,7.115,6.49,6.792c0.314-0.375,1.451-1.683,1.451-1.683c0.153-0.177,0.376-0.278,0.611-0.278	C8.739,4.83,8.978,4.798,9.098,4.761c0.145-0.22,0.488-0.761,0.488-0.761c0.149-0.233,0.406-0.373,0.683-0.373H11	c0.026-0.007,0.065-0.018,0.065-0.018c0.136-0.079,0.293-0.162,0.589-0.251c0.271-0.08,0.657-0.091,1.17-0.098	c0.044-0.001,0.086-0.001,0.124-0.002c0.034-0.036,0.069-0.079,0.098-0.116c0.184-0.243,0.492-0.362,0.794-0.307	c0.293,0.055,0.617,0.105,0.768,0.122c0.017-0.027,0.034-0.06,0.044-0.087c0.106-0.295,0.376-0.51,0.69-0.539	c0.309-0.029,0.618,0.118,0.775,0.389l0,0c0.001,0.001,0.077,0.102,0.199,0.102c0.164,0,0.443-0.279,0.541-0.432	c0.132-0.206,0.351-0.34,0.596-0.367c0.249-0.022,0.488,0.061,0.66,0.234L18.5,2.648l1.102-0.544	c0.215-0.107,0.468-0.112,0.688-0.014c1.468,0.65,1.547,0.715,1.637,0.789c0.017,0.014,0.038,0.032,0.227,0.212l0.315-0.626	c0.274-0.544,1.171-0.544,1.445,0l0.446,0.887l0.882-0.441c0.309-0.157,0.686-0.096,0.934,0.149l0.52,0.517	c0.699-0.109,2.194-0.368,3.364-0.737c1.535-0.485,2.605-0.787,2.605-0.787c0.283-0.081,0.588,0,0.795,0.208l0.382,0.385	c1.502-0.759,1.538-0.736,1.911-0.491c0.239,0.157,0.377,0.428,0.362,0.712l0,0c0.006,0,0.156,1.062,1.01,1.062	c0.077,0,1.882,0.01,2.749,0.935c0.099,0.097,0.16,0.224,0.209,0.326c0.069,0.146,0.164,0.346,0.478,0.585l0.07,0.049	c0.258,0.178,0.69,0.477,0.997,1.07c0.12,0.23,0.892,1.121,1.538,1.808c0.296,0.316,0.288,0.809-0.019,1.115l-0.015,0.015	l0.613,0.304c0.232,0.116,0.394,0.335,0.436,0.589s-0.043,0.514-0.226,0.696l-0.296,0.295l1.164,1.446	c0.27,0.335,0.225,0.822-0.099,1.105c-0.158,0.139-0.33,0.311-0.447,0.443c0.09,0.094,0.225,0.206,0.345,0.282	c0.199,0.126,0.334,0.334,0.367,0.566c0.032,0.233-0.037,0.469-0.194,0.646c-0.296,0.334-0.59,0.809-0.604,0.979	c0.012,0.184,0.329,0.786,0.653,1.229c0.234,0.32,0.199,0.761-0.082,1.04l-0.32,0.318l0.401,0.549	c0.192,0.263,0.207,0.616,0.035,0.893l-0.536,0.867l0.521,0.777c0.237,0.354,0.155,0.832-0.187,1.087l-0.569,0.425l0.447,0.222	c0.272,0.137,0.445,0.414,0.445,0.719c0,0.304-0.173,0.582-0.447,0.719l-0.892,0.444l0.447,0.887	c0.199,0.397,0.038,0.879-0.361,1.078l-0.613,0.305l0.823,0.818c0.231,0.23,0.3,0.575,0.175,0.875	c-0.125,0.3-0.421,0.495-0.747,0.495h-0.309l0.223,0.444c0.199,0.397,0.038,0.879-0.361,1.078l-1.169,0.581v0.307	c0,0.214-0.085,0.418-0.237,0.568l-0.485,0.482l0.696,2.771c0.072,0.284-0.018,0.585-0.234,0.784	c-0.216,0.2-0.525,0.267-0.804,0.173l-1.949-0.646l-0.851,0.846l0.548,1.088c0.141,0.28,0.105,0.617-0.091,0.861	c-0.195,0.244-0.519,0.353-0.825,0.278c0,0-0.896-0.219-1.369-0.339c-0.187,0.218-0.454,0.81-0.592,1.34	c-0.09,0.349-0.405,0.595-0.767,0.601l-0.988,0.017l-0.499,1.134c-0.097,0.22-0.287,0.385-0.52,0.451	c-0.229,0.065-0.481,0.025-0.68-0.112l-0.416-0.286l-0.476,1.477c-0.084,0.263-0.298,0.463-0.567,0.532	c-0.267,0.07-0.555-0.003-0.756-0.192l-0.76-0.712l-0.345,1.158c-0.082,0.272-0.301,0.482-0.578,0.551	c-0.247,0.064-0.509,0.004-0.706-0.155c-0.544,0.72-1.391,0.981-1.769,0.991C25.742,47,25.735,47,25.727,47z M3.882,15.678	c-0.022,0.002-0.044,0.003-0.065,0.003C3.838,15.681,3.86,15.68,3.882,15.678z M7.519,8.119L7.519,8.119L7.519,8.119z M7.532,8.035	C7.532,8.035,7.532,8.035,7.532,8.035C7.532,8.035,7.532,8.035,7.532,8.035z M38.701,5.965c0.005,0.005,0.01,0.01,0.015,0.015	C38.71,5.975,38.706,5.97,38.701,5.965z"/><path fill="#fdd835" d="M14,19v-2l8,1v1h4v-1l7.96-0.965L34,19l2-3c-0.328-0.362-1,0-1.465-0.627	c-0.929-1.253-2.247-2.779-3.374-2.779c-0.797,0-0.797,0-0.797,0L28.77,11l-1.594,1.594V11l-0.797,1.594L25.581,11l-0.797,0.797	L23.986,11l-0.797,0.797L22.392,11l-1.594,1.594L20,11v1.594L17.608,11c0,0-0.797,1.594-1.594,1.594	c-0.797,0-0.797,0.797-1.594,0.797c-1.446,0-1.462,1.249-2.419,2.608L14,19z"/><path fill="#fdd835" d="M36.203,21.028L37,20.23l-1.096-0.797L37,17.839l-0.027-0.964l-3.014,4.161v2L26,22v-1h-4v1l-8,1v-2	l-3-4v1l1.312,1.559l-1.594,0.797l1.594,0.797l-1.594,0.797l0.797,0.797l-0.797,0.797l0.797,0.797l-0.797,0.797l1.594,0.797	l-1.594,0.797l1.594,0.797l-1.594,1.594c0,0,1.143,0.295,2.093,1.794c1.893,2.99,6.406,4.689,6.406,4.689l0.797-0.797l0.797,1.594	l0.598-0.698l0.997,1.495l0.797-0.797L24,38l0.797-0.797L25.594,38l0.797-2.392l0.797,0.797l0.797-0.797l0.797,0.797l5.851-4.091	C35.432,29.923,37,29,37,29l-0.797-1.594L37,26.608l-1.594-0.797L37,25.014l-0.797-0.797l1.594-0.797L37,22.622l0.797-0.797	L36.203,21.028z M24,33l-4,1l3-2v-3l-4-2c0,0,1.412-1,5-1s5,1,5,1l-4,2v3l3,2L24,33z M28,31.5c0,0.276-0.224,0.5-0.5,0.5	S27,31.776,27,31.5s0.224-0.5,0.5-0.5S28,31.224,28,31.5z M29.5,30c-0.276,0-0.5-0.224-0.5-0.5s0.224-0.5,0.5-0.5s0.5,0.224,0.5,0.5	S29.776,30,29.5,30z M20,31.5c0,0.276-0.224,0.5-0.5,0.5S19,31.776,19,31.5s0.224-0.5,0.5-0.5S20,31.224,20,31.5z M28,29.5	c0,0.276-0.224,0.5-0.5,0.5S27,29.776,27,29.5s0.224-0.5,0.5-0.5S28,29.224,28,29.5z M19.5,30c-0.276,0-0.5-0.224-0.5-0.5	s0.224-0.5,0.5-0.5s0.5,0.224,0.5,0.5S19.776,30,19.5,30z M18,29.5c0,0.276-0.224,0.5-0.5,0.5S17,29.776,17,29.5s0.224-0.5,0.5-0.5	S18,29.224,18,29.5z"/></svg>