<svg xmlns="http://www.w3.org/2000/svg"  viewBox="0 0 48 48" width="1600px" height="1600px"><path fill="#78909c" d="M38.145,36.761c3.057-3.38,4.932-7.845,4.932-12.761c0-10.536-8.541-19.077-19.077-19.077 c-1.827,0-3.589,0.265-5.26,0.749c-0.292,0.085,0.622,3.942-1.921,6.115c-3.212,2.745-10.003,3.951-10.145,4.259 C5.555,18.467,4.923,21.157,4.923,24c0,10.144,7.917,18.438,17.909,19.042c0.208,0.013,1.027-3.874,5.061-5.574 C31.36,36.007,38.14,36.69,38.145,36.761z"/><path fill="#212121" d="M24,42.077c-9.967,0-18.077-8.109-18.077-18.077c0-3.064,0.772-5.949,2.123-8.48 c-0.354-0.223-0.356-2.559-0.305-3.251C5.35,15.573,3.923,19.619,3.923,24c0,11.07,9.006,20.077,20.077,20.077 C26.522,44.077,25.896,42.077,24,42.077z"/><path fill="#212121" d="M24,3.923c-2.778,0-5.42,0.577-7.826,1.604c0.025,0.023,0.433,0.522,0.525,0.774 c0.006,0.004,0.938,0.626,1.076,0.759C19.719,6.34,21.809,5.923,24,5.923c9.967,0,18.077,8.109,18.077,18.077 c0,4.315-1.552,8.254-4.087,11.362c0.046,0.13,0.082,0.269,0.093,0.425c0.053,0.792,0.1,1.572,0.127,2.349 c3.618-3.629,5.867-8.619,5.867-14.137C44.077,12.93,35.07,3.923,24,3.923z"/><path fill="#fafafa" d="M19.09,12.996c0.768-0.948,1.23-2.152,1.23-3.464c0-3.042-2.475-5.517-5.516-5.517L6.574,4v19.152 h8.693c3.199,0,5.802-2.604,5.802-5.803C21.069,15.615,20.3,14.06,19.09,12.996z M10.447,7.516h4.356 c1.112,0,2.016,0.904,2.016,2.017c0,1.111-0.904,2.016-2.016,2.016h-4.356V7.516z M15.267,19.652h-4.82v-4.604h4.82 c1.27,0,2.302,1.032,2.302,2.302S16.537,19.652,15.267,19.652z"/><path fill="#212121" d="M15.267,24.152H6.574c-0.552,0-1-0.447-1-1V4c0-0.266,0.105-0.521,0.293-0.708 C6.055,3.105,6.31,3,6.574,3c0,0,0.001,0,0.002,0l8.229,0.016c3.591,0,6.514,2.923,6.514,6.517c0,1.181-0.327,2.343-0.933,3.352 c1.078,1.233,1.683,2.818,1.683,4.466C22.069,21.101,19.018,24.152,15.267,24.152z M7.574,22.152h7.693 c2.648,0,4.802-2.154,4.802-4.803c0-1.373-0.598-2.687-1.64-3.603c-0.403-0.354-0.455-0.964-0.117-1.381 c0.658-0.813,1.006-1.792,1.006-2.834c0-2.49-2.026-4.517-4.516-4.517L7.574,5.002V22.152z M15.267,20.652h-4.82 c-0.552,0-1-0.447-1-1v-4.604c0-0.553,0.448-1,1-1h4.82c1.821,0,3.302,1.481,3.302,3.302 C18.569,19.171,17.088,20.652,15.267,20.652z M11.447,18.652h3.82c0.718,0,1.302-0.584,1.302-1.303 c0-0.718-0.584-1.302-1.302-1.302h-3.82V18.652z M14.803,12.548h-4.356c-0.552,0-1-0.447-1-1V7.516c0-0.553,0.448-1,1-1h4.356 c1.663,0,3.016,1.354,3.016,3.017S16.466,12.548,14.803,12.548z M11.447,10.548h3.356c0.56,0,1.016-0.456,1.016-1.016 c0-0.561-0.456-1.017-1.016-1.017h-3.356V10.548z"/><g><polygon fill="#fafafa" points="24.945,32.205 28.278,42.655 28.404,43.077 32.177,43.077 32.303,42.655 35.713,32.205 35.753,32.205 35.753,43.077 39.609,43.077 39.609,24.077 33.835,24.077 30.29,35.927 26.745,24.077 21.072,24.077 21.072,43.077 24.928,43.077 24.928,32.205"/><path fill="#212121" d="M39.609,44.077h-3.856c-0.552,0-1-0.447-1-1V38.37l-1.618,4.993 c-0.126,0.424-0.516,0.714-0.958,0.714h-3.773c-0.442,0-0.831-0.29-0.958-0.713l-0.126-0.422l-1.391-4.363v4.498 c0,0.553-0.448,1-1,1h-3.856c-0.552,0-1-0.447-1-1v-19c0-0.553,0.448-1,1-1h5.674c0.442,0,0.832,0.29,0.958,0.714l2.586,8.646 l2.587-8.646c0.126-0.424,0.516-0.714,0.958-0.714h5.774c0.552,0,1,0.447,1,1v19C40.609,43.63,40.161,44.077,39.609,44.077z M36.753,42.077h1.856v-17H34.58l-3.332,11.136c-0.126,0.424-0.516,0.714-0.958,0.714l0,0c-0.442,0-0.832-0.29-0.958-0.714 l-3.331-11.136h-3.929v17h1.856v-9.873c0-0.553,0.448-1,1-1c0.435,0,0.837,0.281,0.969,0.696l3.245,10.177h2.297l3.322-10.184 c0.134-0.411,0.518-0.689,0.951-0.689c0.552,0,1.04,0.447,1.04,1V42.077z"/></g></svg>