<svg xmlns="http://www.w3.org/2000/svg"  viewBox="0 0 48 48" width="1600px" height="1600px"><path fill="#1976d2" d="M38,42H10c-2.209,0-4-1.791-4-4V10c0-2.209,1.791-4,4-4h28c2.209,0,4,1.791,4,4v28	C42,40.209,40.209,42,38,42z"/><polygon fill="#42a5f5" points="32.766,12.071 29.486,6 26.387,6 31.856,14.225"/><polygon fill="#42a5f5" points="42,19.056 37.241,6 32.835,6 42,24.644"/><polygon fill="#42a5f5" points="6.915,36.055 16.154,32.273 6,27.764 6,35.071"/><polygon fill="#42a5f5" points="27.596,31.124 6,15.672 6,18.609 23.431,29.353"/><path fill="#42a5f5" d="M6,10v2.691l20.064,12.688l3.383-3.702L15.953,6H10C7.791,6,6,7.791,6,10z"/><polygon fill="#8bc34a" points="28.027,18.055 19.218,8.337 14.048,7.188 13.856,10.97 25.872,21.837"/><polygon fill="#8bc34a" points="9.069,11.544 26.255,24.326 24.293,24.9 8.064,14.799"/><path fill="#f44336" d="M10.601,12.98c0,0-0.444-0.558-1.293-1.245c-2.011-1.628-4.021,1.197-2.25,2.537	s2.872,1.484,2.872,1.484l-1.149-1.101l2.346,0.957l-1.101-1.388l2.872,1.484l-1.676-1.723l1.197,0.527L10.601,12.98z"/><path fill="#f44336" d="M40.09,26.001c0,0-2.25-1.532-4.883-0.191c-2.633,1.34-7.707,3.83-7.707,3.83l7.468,11.681h5.262	C41.297,40.602,42,39.384,42,38V25.836C41.529,25.726,40.869,25.695,40.09,26.001z"/><path fill="#fb8c00" d="M40.569,28.204c-0.479-1.293-2.872-1.532-3.782-0.574c0,0-1.34-1.005-4.165,0.048	c-2.824,1.053-3.303,2.202-3.303,2.202l5.697,9.862l6.765-0.491C41.912,38.854,42,38.439,42,38v-9.596	C41.702,28.229,41.251,28.094,40.569,28.204z"/><path fill="#ffc107" d="M9.691,12.693l-0.67,0.144l1.245,1.197L8.543,13.65l1.053,1.101c0,0-1.293-0.287-2.106-0.814	c-0.814-0.527-0.814-1.436-0.431-1.963C7.441,11.448,8.83,11.592,9.691,12.693z"/><polygon fill="#ffc107" points="41.91,28.97 40.33,31.507 39.612,28.204 38.798,30.932 34.92,28.108 37.984,31.65 32.479,32.847 38.463,33.422 35.016,38.353 39.324,34.379 39.995,37.682 40.426,34.475 42,35.323 42,33.778 41.718,33.47 42,33.233 42,32.025 41.431,32.177"/><path fill="#ff0" d="M8.854,12.382c-0.455-0.239-1.264-0.628-1.604,0.144c-0.319,0.726,1.077,1.364,1.077,1.364	l-0.431-0.742l1.101,0.215l-0.766-0.694L8.854,12.382z"/><path fill="#d81b60" d="M36.628,27.868L35,28.347c0,0,0,1.213,2.553,1.245C37.043,28.89,36.628,27.868,36.628,27.868z"/><path fill="#d81b60" d="M37.713,28.06l0.766,1.149c0,0,0.702-0.638,0.574-1.181C38.606,27.996,37.713,28.06,37.713,28.06z"/><polygon fill="#d81b60" points="36.691,34.188 36.723,34.571 37.457,34.379 37.457,33.964"/><polygon fill="#d81b60" points="37.968,34.922 37.362,35.847 37.745,36.486 38.734,36.039"/><path fill="#ff8a65" d="M33.819,37.922c0,0,2.681-1.197,2.346-4.979c-0.048-0.862-1.771-2.585-2.106-2.777	c-0.335-0.191-3.016-1.053-4.213-1.34c-1.197-0.287-14.17,0.335-17.138,1.053s15.606,9.287,15.606,9.287l3.16-0.191L33.819,37.922z"/><path fill="#616161" d="M26.255,38.688c0,0,6.702-2.777,8.043-4.596c-0.814-1.628-1.532-2.824-1.532-2.824l-4.117-1.149	c0,0-8.952-0.431-14.17,0.67C16.298,32.177,26.255,38.688,26.255,38.688z"/><path fill="#fff" d="M29.128,31.076c0,0-2.729,0.766-3.351-2.059c-2.202,0.431-5.745,5.122-5.745,5.122l2.729,1.963	L29.128,31.076z"/><path fill="#212121" d="M29.686,30.741c0,0,2.816,3.734,1.093,5.793c-2.202,1.293-2.681,1.34-2.681,1.34l-4.492-2.394	C23.606,35.48,28.011,31.603,29.686,30.741z"/><path fill="#212121" d="M26.926,27.581c0,0-3.973,0.383-5.41-5.505c-0.383-1.484-1.34-1.58-1.34-1.58	s0.048-1.293-0.718-1.771s-3.59,4.261-3.59,4.261s0.67,1.005,1.532,0.957c0.191,1.436,6.415,4.5,7.085,4.644	c-1.293,1.388-4.356,3.878-5.793,4.261c0.431,0.431,1.532,1.005,1.532,1.005s3.543-3.734,6.271-5.218	C26.734,28.395,26.926,27.581,26.926,27.581z"/><path fill="#ff3d00" d="M28.84,28.06l-2.92-0.096c0,0-0.574,2.298,0.479,2.968c1.053,0.67,4.835,0.239,4.835,0.239	S29.941,28.443,28.84,28.06z"/><path fill="#b71c1c" d="M39.037,10.491c0,0-6.535-2.035-10.723,2.035s-3.351,4.38-3.351,4.38l11.633,8.641	c0,0,3.519-1.867,4.117-5.577c-1.149,1.053-2.585,1.58-2.585,1.58c1.742-1.652,2.824-3.507,3.872-5.351V13.51	c-1.752-0.822-4.997-1.271-4.997-1.271L39.037,10.491z"/><path fill="#f57c00" d="M37.505,20.807l0.239,1.197c0,0,2.672-2.656,4.255-5.728v-0.154	C40.547,18.335,37.505,20.807,37.505,20.807z"/><path fill="#ed9c5c" d="M30.277,28.443c0,0-1.34,1.771-1.963,2.25c-0.622,0.479-2.489-0.287-1.819-1.245	c0.67-0.957,1.149-1.963,1.149-1.963L30.277,28.443z"/><path fill="#ff3d00" d="M19.218,20.305l1.101-2.346c0,0-1.197-1.005-1.628-1.58c-1.149,0.574-2.394-0.144-2.394-0.144	l-0.766-1.149c0,0-1.053-0.191-1.867,1.293c-0.814,1.484-1.484,4.117-0.383,4.883s2.157,1.656,2.585,1.723	c0.91,0.144,2.059-0.191,2.633-1.34C19.074,20.496,19.218,20.305,19.218,20.305z"/><path fill="#7b3201" d="M25.059,16.69c0,0-2.91,3.008-1.517,6.359C24.935,26.4,25.059,16.69,25.059,16.69z"/><path fill="#f44336" d="M12.851,10.443c1.053,0.622,3.734,2.011,4.787,3.064c-0.431-0.957-0.766-1.293-0.766-1.293	l2.872,1.771L18.5,12.214l3.303,1.915l-4.356-4.548l2.681,1.58l-2.011-2.968l1.676,0.766c0,0-1.589-1.905-2.796-2.959h-4.87	c-0.012,0.014-0.03,0.024-0.042,0.039C12.085,6.039,10.17,8.289,12.851,10.443z"/><path fill="#f57c00" d="M36.715,24.637c0,0,3.207-2.274,3.949-4.524c-0.335,2.441-2.585,4.715-3.83,5.266	C35.59,25.93,36.715,24.637,36.715,24.637z"/><path fill="#f4bb75" d="M37.793,18.007c0,0,1.005,8.665-3.878,10.484s-8.33-0.527-9.383-2.106	c-0.55-0.825-1.008-1.689-0.987-3.376c0.019-1.544,0.963-3.733,1.562-7.3C25.578,12.899,33.963,14.608,37.793,18.007z"/><path fill="#ed9c5c" d="M28.872,20.273c-0.447,3.191-1.733,2.746-1.819,4.596c-0.111,2.378,1.737,4.563,6.862,3.622	c-4.883,1.819-8.33-0.527-9.383-2.106c-0.55-0.825-1.008-1.689-0.987-3.376c0.019-1.544,0.963-3.733,1.562-7.3	C25.578,12.899,29.511,16.156,28.872,20.273z"/><path fill="#ed9c5c" d="M31.019,23.392c0.144,0.383,1.364,0.814,3.088,0.455c1.903-0.396,2.36-1.306,2.13-3.375	c-0.311-2.801-3.87-4.842-4.811-1.771C30.516,21.669,31.019,23.392,31.019,23.392z"/><polygon fill="#ff1744" points="41.359,15.757 38.87,16.642 39.253,18.294"/><path fill="#8d6e63" d="M24.372,25.156c0,0,0.479,1.5,2.649,1.755c2.17,0.255,4.117,0.383,5.138,0.287	c1.021-0.096,2.426-0.447,2.585-1.564c-0.543,0.75-1.644,1.141-2.888,1.109c-1.245-0.032-4.269-0.104-5.003-0.263	C26.12,26.321,25.011,25.954,24.372,25.156z"/><path fill="#fff" d="M31.234,23.105c0,0,1.484,0.598,2.92,0.168c0.841-0.252,1.077-0.742,1.101-1.628	c0.024-0.886-0.407-2.059-0.742-2.585s-1.58-1.101-2.585,0.455C30.923,21.071,31.234,23.105,31.234,23.105z"/><path fill="#fff" d="M27.596,22.459c0,0-1.269-0.12-2.035-0.67c-0.51-0.367-0.503-1.053-0.144-2.178	s1.388-2.394,2.226-2.011C28.481,17.983,28.649,20.807,27.596,22.459z"/><path fill="#f4bb75" d="M34.944,19.778c0,0-2.418-0.239-3.279,0.239c0.455-1.197,0.981-1.46,1.747-1.532	C34.178,18.414,34.824,19.347,34.944,19.778z"/><path fill="#f4bb75" d="M25.992,18.414c0,0,1.484,0.503,2.394,1.316c-0.024-1.245-0.287-1.939-0.814-2.226	C27.045,17.217,26.04,18.126,25.992,18.414z"/><path fill="#7b3201" d="M31.019,18.677c0,0-0.263-1.077-0.144-1.652s0.718-0.144,0.718-0.144s0.287-0.574,0.742-0.335	c0.287-0.383,1.053-0.12,1.053-0.12l1.484,0.024l-0.144,1.173C34.729,17.624,32.91,17.408,31.019,18.677z"/><path fill="#7b3201" d="M28.888,18.294c0,0-0.886-1.508-2.106-1.915c0.455-0.503,1.125-0.742,1.125-0.742l0.335,0.263	c0,0,0.455,0.048,0.503,0.383c0.335,0.168,0.574,0.383,0.431,0.934C29.032,17.767,28.888,18.294,28.888,18.294z"/><path fill="#f57c00" d="M35.662,12.19c0.072,0,2.106-1.676,3.375-1.699c-0.981,0.886-2.585,2.202-2.585,2.202L35.662,12.19z"/><path fill="#ff1744" d="M41.926,14.392c0,0-1.261-0.838-4.157-1.149c0.864,1.939,1.098,1.436,1.098,1.436L41.926,14.392z"/><path fill="#ff1744" d="M34.154,10.371c0,0-2.657,1.34-2.441,3.686c-0.91-0.096-1.987-0.311-1.987-0.311	S29.678,10.802,34.154,10.371z"/><ellipse cx="32.993" cy="20.951" fill="#424242" rx=".877" ry=".634" transform="rotate(-81.245 32.995 20.952)"/><ellipse cx="27.392" cy="20.057" fill="#424242" rx=".899" ry=".634" transform="rotate(-81.245 27.394 20.058)"/><ellipse cx="26.991" cy="20.068" fill="#fff" rx=".377" ry=".322" transform="rotate(-81.245 26.992 20.069)"/><ellipse cx="32.544" cy="20.929" fill="#fff" rx=".377" ry=".322" transform="rotate(-81.245 32.546 20.93)"/><path fill="#424242" d="M18.149,26.56c-4.755-0.287-3.351,4.596-3.351,4.596l9.67,6.606c0,0,1.053,3,1.787-0.574	C26.989,33.613,22.904,26.847,18.149,26.56z M20.191,31.698l-4.34-1.596c0,0-0.192-2.649,2.968-1.979	c3.16,0.67,5.617,5.298,5.649,6.096C22.362,33.039,20.191,31.698,20.191,31.698z"/><polygon fill="#212121" points="15.564,30.932 19.713,32.273 25.649,35.783 23.734,36.358"/><path fill="#212121" d="M14.67,30.422c0,0,0-2.84,2.394-2.904s6.479,2.074,9.351,7.691s-1.053,2.521-1.053,2.521	l-0.894-3.511c0,0-1.883-4.947-4.947-5.872c-3.064-0.926-3.638,0.862-3.83,2.043C15.5,31.571,14.67,30.422,14.67,30.422z"/><path fill="#37474f" d="M37.864,21.095c0-1.316-3.944-4.603-7.229-5.481c-3.285-0.878-5.745,0.718-5.745,0.718	s0.263-1.676,0.694-2.346c0.431-0.67,6.726-2.059,12.207,1.723C39.229,17.552,37.864,21.095,37.864,21.095z"/><path fill="#b0bec5" d="M37.553,12.525c-0.598-0.383-3.753-1.952-5.218,0.574c-1.442,2.487,2.633,5.027,3.016,5.242	c0.383,0.215,3.255,1.604,3.902-0.622C39.899,15.493,39.133,13.626,37.553,12.525z"/><path fill="#ff5722" d="M37.074,13.363c-0.503-0.335-3.105-1.491-3.878,0.239c-0.742,1.662,1.46,3.207,2.035,3.638	c0.574,0.431,2.489,1.46,3.184-0.12S38.367,14.273,37.074,13.363z"/><path fill="#b0bec5" d="M30.492,13.531c0,0-0.191,1.723-2.824,2.561c-2.633,0.838-2.777,0.862-3.16,0.814	s-0.838-1.269,0.359-3.375s2.705-2.202,3.543-2.154S30.492,12.142,30.492,13.531z"/><path fill="#ff5722" d="M25.202,15.972c0,0-1.197-0.048-0.168-1.795s1.985-2.04,2.585-2.202	c1.771-0.479,2.273,1.647,0.263,3.112C27.045,15.685,25.202,15.972,25.202,15.972z"/><ellipse cx="26.784" cy="13.531" fill="#fb8c00" rx=".945" ry=".643" transform="rotate(-30 26.783 13.532)"/><ellipse cx="35.049" cy="14.291" fill="#fb8c00" rx="1.128" ry=".89" transform="rotate(-42.345 35.047 14.291)"/><path fill="#b0bec5" d="M37.242,18.653c0,0,1.795,0.263,0.574,2.202c0,0.215-0.048,0.598-0.048,0.598	s0.818-0.513,1.293-1.699c0.479-1.197,0.383-3.471,0.383-3.471S38.989,18.581,37.242,18.653z"/><polygon fill="#ff0" points="39.436,30.071 39.372,32.241 37.585,32.337 39.34,33.134 38.574,33.868 39.5,33.549 39.819,34.986 40.298,33.486 41.415,34.092 40.585,32.879 41.894,32.368 40.138,32.305"/><path fill="#f4bb75" d="M23.048,36.007c0,0,0.574-1.867,3.207-0.67c0.048,1.412,0.12,2.561,0.12,2.561L23.048,36.007z"/><path fill="#ff3d00" d="M10,42h24.519c0.601-1.326,1.986-4.794,1.646-8.004c-1.197,2.202-4.117,3.447-7.229,4.931	c-11.824-7.229-13.979-9.144-17.569-9.431L6,32.7V38C6,40.209,7.791,42,10,42z"/><path fill="#ffcc80" d="M14.383,21.406c0,0-1.197,0.048-0.91-1.819c0.287-1.867,1.053-3.543,1.771-4.356	c0.718-0.814,3.447,1.771,2.537,3.734S15.771,21.406,14.383,21.406z"/><path fill="#b71c1c" d="M10,42h11.049l5.525-4.429c0,0-9.606-6.878-13.34-7.723C11.214,30.966,8.38,32.84,6,34.47V38	C6,40.209,7.791,42,10,42z"/><path fill="#ffcc80" d="M20.223,18.198c0,0-1.372-1.149-1.532-1.819c0.351-1.021,1.309-1.085,1.723-0.734	C20.83,15.996,21.021,16.954,20.223,18.198z"/><path fill="#ff3d00" d="M28.601,36.055c0,0,0.048-1.723-2.394-1.963c0,0.574,0.048,1.245,0.048,1.245v1.939	c0,0,0.527,1.221,1.293,0.886S28.697,36.868,28.601,36.055z"/><path fill="#ffca28" d="M13.761,31.124c0,0,7.995,2.968,4.835,5.649c-1.532,1.245-4.739,1.149-7.66-0.191	c2.872,2.298,3.303,2.824,3.303,2.824l-1.963,1.819l-5.84-5.553l2.059-1.197c1.245,0.527,6.319,1.723,7.229,0.766	c1.306-1.374-2.011-2.633-3.207-2.777C13.043,31.746,13.761,31.124,13.761,31.124z"/><path fill="#ff0" d="M37.681,22.794c0,0-0.447,3.511-2.617,5.138c-2.17,1.628-5.713,1.277-7.213,0.798	c1.979,0.223,4.819,0.064,6.798-1.149C36.628,26.368,37.521,23.432,37.681,22.794z"/><path fill="#ffa726" d="M32.032,29.464l1.883,0.957c0,0,1.5,0.862,1.979,2.936c0.096,3.287-0.479,5.936-0.479,5.936	l0.543-1.372c0,0,0.67-3.223,0.207-4.979c-0.463-1.755-2.186-2.904-2.186-2.904L32.032,29.464z"/><path fill="#ffc107" d="M12.66,6.709C11.846,7.81,12.42,9.055,13.09,9.486l2.202,1.628l-0.287-1.245l3.016,1.676l-2.011-3.16	l2.011,0.766l-1.293-1.915h0.814c0,0-0.866-0.829-1.564-1.236H13.52C13.201,6.16,12.9,6.384,12.66,6.709z"/><path fill="#ff0" d="M15.723,6.47c0,0-1.34-0.766-2.154,0s-0.479,1.867,0.287,2.394C14,8.48,13.904,7.714,13.904,7.714	l1.771,0.814l-0.622-1.149l1.34,0.287L15.723,6.47z"/><polygon fill="#ff8a65" points="26.255,37.315 20.156,42 24.195,42 28.936,38.847"/><path fill="#263238" d="M35.926,37.682c-0.44,0.382-1.994,2.632-3.132,4.318H38c1.909,0,3.501-1.34,3.899-3.13	c-0.894-0.477-2.391-1.264-3.197-1.619C37.505,36.725,36.644,37.06,35.926,37.682z"/></svg>