<svg xmlns="http://www.w3.org/2000/svg"  viewBox="0 0 48 48" width="1600px" height="1600px"><path fill="#424242" d="M45,9h-1V7h-2V5h-2V3h-2V1h-2v2h-2V1h-4v2h-2V1h-2v2h-2h-2v2h-1h-1v2h-6v2h-4v2H8V9H6v2H4v2h2v2H4v4 H2v6h2v2h2v-2h2v-4h2v-2h2v2h2v2h2v2h2v2h2v6h2v2h2v8h-2v2v1v1h16h2v-8h-2v-2h2v-6v-1v-1h2v-6h-2v-2h2v-2h2v-2h2v-2h-2v-2h2v-2V9H45 z M20,23v-2h-2v-2h-2v-2h-2v-2h2v-2h2v2h2v2h2v-2h2v4h-2v2h2v2h2v2h-4v-2H20z"/><path fill="#6d4c41" d="M26 5L22 5 22 11 20 11 20 15 22 15 22 13 26 13 26 11 28 11 28 13 32 13 32 15 34 15 34 13 36 13 36 15 38 15 38 17 40 17 40 15 42 15 42 11 40 11 40 9 42 9 42 7 38 7 38 5 36 5 36 7 34 7 34 5 32 5 32 3 30 3 30 5z"/><path fill="#827717" d="M6 11H8V13H6z"/><path fill="#757575" d="M6 19H8V21H6zM4 21H6V25H4zM8 17H10V19H8zM10 15H12V17H10zM12 13H14V15H12zM14 11H16V13H14zM18 9H20V11H18z"/><path fill="#827717" d="M12 17H14V19H12zM14 19H16V21H14zM16 21H18V23H16zM18 23H20V25H18zM20 25H22V27H20z"/><path fill="#ffab91" d="M34 15L36 15 36 21 34 21 34 23 26 23 26 21 24 21 24 19 26 19 26 13 28 13 28 19 30 19 30 15 32 15 32 17 34 17z"/><path fill="#4e342e" d="M32 3H34V5H32zM36 3H38V5H36zM34 5H36V7H34zM24 7H28V9H24zM38 5H40V7H38zM40 15L40 17 38 17 38 19 42 19 42 17 44 17 44 15zM30 11L30 9 28 9 28 13 32 13 32 11zM24 11H26V13H24zM36 13H38V15H36zM38 11H40V13H38zM34 9H38V11H34zM40 9L40 11 42 11 42 13 44 13 44 11 44 9z"/><path fill="#fafafa" d="M30 15H32V19H30z"/><path fill="#ff8a65" d="M34 19H36V21H34zM32 21H34V23H32z"/><path fill="#bdbdbd" d="M4 19H6V21H4zM6 15H8V19H6zM8 13H10V17H8zM10 11H12V15H10zM12 11H14V13H12zM14 9H18V11H14z"/><path fill="#ffab91" d="M22 27H26V32H22z"/><path fill="#ff8a65" d="M25 27L25 31 22 31 22 33 27 33 27 31 27 27z"/><path fill="#9ccc65" d="M34 23L34 25 27 25 27 31 34 31 34 29 40 29 40 23z"/><path fill="#689f38" d="M36 21H38V23H36zM36 31H38V35H36zM34 27H36V29H34z"/><path fill="#9ccc65" d="M32 33H36V35H32z"/><path fill="#689f38" d="M30 29H34V31H30zM38 27H40V29H38z"/><path fill="#33691e" d="M24 43H26V45H24zM26 41H28V43H26zM32 43L32 41 30 41 30 43 28 43 28 45 34 45 34 43z"/><path fill="#ffa726" d="M26 35H28V41H26zM34 41L34 35 30 35 30 41 32 41 32 43 36 43 36 41z"/><path fill="#6d4c41" d="M38 37L38 35 34 35 34 41 36 41 36 43 34 43 34 45 36 45 38 45 38 39 36 39 36 37z"/></svg>