<svg xmlns="http://www.w3.org/2000/svg"  viewBox="0 0 48 48" width="1600px" height="1600px"><path fill="#90a4ae" d="M8.491,28.884c0.109,0.918,0.69,2.108,1.203,3.127H9.222H6.111c-0.233,0-0.459-0.023-0.669-0.078	c-1.097-0.233-1.968-1.05-2.294-2.1C3.047,29.537,3,29.226,3,28.899v-7.34c0-0.856,0.7-1.556,1.556-1.556H6V18.01	c0-3.173,0.928-5.629,4-6.01h1.016c-0.824,1.828-1.793,3.879-1.793,6.01v7H9.23c-0.482,1.034-0.786,2.077-0.786,3.111	C8.444,28.355,8.46,28.611,8.491,28.884z"/><path fill="#90a4ae" d="M39.51,28.884c-0.109,0.918-0.69,2.108-1.203,3.127h0.472h3.111c0.233,0,0.459-0.023,0.669-0.078	c1.097-0.233,1.968-1.05,2.294-2.1c0.101-0.296,0.148-0.607,0.148-0.933v-7.34c0-0.856-0.7-1.556-1.556-1.556h-1.444V18.01	c0-3.173-0.928-5.629-4-6.01h-1.016c0.824,1.828,1.793,3.879,1.793,6.01v7h-0.008c0.482,1.034,0.786,2.077,0.786,3.111	C39.557,28.355,39.541,28.611,39.51,28.884z"/><path fill="#455a64" d="M39,17.776v7h-0.008c-0.608-1.299-1.484-2.59-2.361-3.889c-1.579-2.333-6.632-4.918-12.639-4.918	c-6.961,0-11.053,3.111-12.632,5.444c-0.876,1.299-1.753,2.59-2.361,3.889v-0.526v-7c0-2.131,0.458-4.169,1.295-5.997	c0.466-1.027,1.042-1.991,1.721-2.87C14.739,5.324,19.097,2.998,24,2.998c4.895,0,9.253,2.318,11.984,5.903	c0.679,0.887,1.255,1.851,1.721,2.878C38.542,13.607,39,15.645,39,17.776z"/><path fill="#d7ccc8" d="M39.192,24.688c-0.616-1.305-1.504-2.602-2.392-3.906c-1.009-1.479-1.519-4.189-1.717-5.987	c-0.112-1.019-0.964-1.791-1.988-1.792L14.924,13c-1.036,0-1.915,0.786-2.001,1.819c-0.152,1.836-0.58,4.29-1.723,5.963	c-0.888,1.305-1.776,2.602-2.392,3.906C8.312,25.727,8,26.774,8,27.813c0,1.023,0.304,2.5,0.984,3.828	c0.872,1.719,2.368,3.203,4.616,3.203c3.024,0,3.16,3.57,3.344,5.985C17,41.619,17,42.275,17,42.658c0,1.371,7,1.363,7,1.363	s7,0.008,7-1.363c0-0.383,0-1.039,0.056-1.828c0.184-2.414,0.32-5.985,3.344-5.985c2.248,0,3.744-1.484,4.616-3.203	C39.696,30.313,40,28.837,40,27.813C40,26.774,39.688,25.727,39.192,24.688z"/><path fill="#263238" d="M26.984,35.846c0,0.742-0.513,1.154-1.197,1.154c-0.94,0-1.624-1.567-1.795-2.226	c0,0.825-0.684,2.226-1.795,2.226C21.513,37,21,36.588,21,35.846c0-1.567,1.881-4.617,2.992-4.865	C25.104,31.393,26.984,34.279,26.984,35.846z"/><path fill="#263238" d="M19.434,22.818c-2.714-1-5.126,0.3-5.93,2.9c-1.307,3.8,0.201,5.6,1.407,6	c3.216,0.9,5.93-0.3,6.834-3.3C22.449,26.518,21.645,23.618,19.434,22.818L19.434,22.818z"/><path fill="#263238" d="M28.559,22.818c-2.211,0.8-3.015,3.7-2.312,5.6c0.905,3,3.618,4.2,6.834,3.3	c1.206-0.4,2.714-2.2,1.407-6C33.685,23.118,31.273,21.818,28.559,22.818L28.559,22.818z"/></svg>