<svg xmlns="http://www.w3.org/2000/svg"  viewBox="0 0 48 48" width="1600px" height="1600px"><path fill="#212121" d="M41.389,17.363l-0.717-1.529l-1.434,0.893l-0.286,0.178c-0.557-1.027-1.224-1.985-1.973-2.871 l0.996-0.583l1.307-0.764l-0.776-1.3l-1.344-2.25c-0.738-1.193-1.989-1.865-3.444-1.865c-0.863,0-1.766,0.237-2.609,0.684 l-1.668,0.949C27.731,8.327,25.905,8,24,8c-0.675,0-1.338,0.05-1.993,0.127c-0.679-0.72-1.719-1.145-2.896-1.145 c-0.661,0-1.324,0.136-1.916,0.392l-0.059,0.025l-0.056,0.03L4.164,14.388l-2.002,1.079l1.78,1.416l1.436,1.142l1.644,6.555 C7.018,24.721,7,24.858,7,25c0,9.389,7.611,17,17,17s17-7.611,17-17c0-0.397-0.033-0.786-0.059-1.176 C42.319,22.07,42.517,19.767,41.389,17.363z"/><path fill="#fff" d="M24,42.125c-9.443,0-17.125-7.683-17.125-17.125c0-0.083,0.006-0.164,0.011-0.245 c0.004-0.054,0.008-0.108,0.01-0.162l-1.63-6.497l-3.331-2.649l15.21-8.188c0.608-0.263,1.288-0.402,1.966-0.402 c1.164,0,2.232,0.414,2.943,1.139c0.707-0.081,1.344-0.12,1.945-0.12c1.83,0,3.656,0.301,5.428,0.895l1.62-0.922 c0.864-0.459,1.787-0.701,2.671-0.701c1.5,0,2.794,0.702,3.551,1.924l2.186,3.66l-2.284,1.335c0.703,0.846,1.317,1.74,1.827,2.663 l1.728-1.077l0.777,1.657c1.129,2.407,0.975,4.732-0.435,6.553l0.008,0.105c0.024,0.335,0.049,0.683,0.049,1.032 C41.125,34.442,33.442,42.125,24,42.125z M2.387,15.486l3.101,2.467l1.659,6.612l0,0.017c-0.002,0.064-0.006,0.127-0.011,0.19 C7.13,24.848,7.125,24.923,7.125,25c0,9.305,7.57,16.875,16.875,16.875S40.875,34.305,40.875,25c0-0.34-0.024-0.683-0.048-1.014 l-0.015-0.202l0.029-0.038c1.375-1.749,1.529-3.997,0.435-6.331l-0.658-1.402l-1.713,1.067l-0.063-0.117 c-0.536-0.99-1.195-1.949-1.958-2.851l-0.096-0.113l2.323-1.358l-2.056-3.441c-0.709-1.146-1.926-1.804-3.337-1.804 c-0.844,0-1.726,0.231-2.551,0.669l-1.714,0.976l-0.053-0.018C27.638,8.428,25.821,8.125,24,8.125 c-0.609,0-1.256,0.041-1.978,0.125l-0.063,0.007l-0.043-0.045c-0.663-0.703-1.686-1.106-2.805-1.106 c-0.645,0-1.29,0.132-1.866,0.382L17.14,7.54L2.387,15.486z"/><path fill="#01579b" d="M23.585,11.021C23.724,11.017,23.86,11,24,11c0.539,0,1.068,0.037,1.591,0.097l2.653-1.51 C26.89,9.215,25.472,9,24,9c-0.464,0-0.92,0.031-1.374,0.069L23.585,11.021z"/><path fill="#01579b" d="M38.099,17.436c-0.559-1.039-1.236-2.002-2.001-2.887l-1.763,1.031 c0.803,0.88,1.499,1.856,2.058,2.92L38.099,17.436z"/><path fill="#01579b" d="M39.989,24.786c-0.125,0.103-0.234,0.214-0.369,0.311l-0.031,0.022l-0.032,0.02l-1.617,1.034 C37.344,33.354,31.336,39,24,39c-5.404,0-10.084-3.067-12.418-7.55l-2.005-0.347l-0.391-0.068C11.57,36.878,17.3,41,24,41 c8.837,0,16-7.163,16-16C40,24.928,39.99,24.858,39.989,24.786z"/><path fill="#bdbdbd" d="M4.875,15.708l1.833,1.458l3.125,12.458L12,30l10.5-6.25l-1.417-3.958l-7.208,4.292L11.625,16 l5.833-3.167l0.625,1.417l4.25-2.375L21.167,9.5c-0.5-1-2.125-1.292-3.375-0.75L4.875,15.708z"/><path fill="#fff" d="M8.781,15.563l2.625,9.281c0.219,0.656,1.028,1.973,2.5,1.188c1.344-0.717,7.781-4.438,7.781-4.438 L22.5,23.75L12,30l-2.167-0.375L6.708,17.167l-1.833-1.458L8.781,15.563z"/><path fill="#fff" d="M20.219,13.094l-0.656-1.313c-0.583-1.01-1.521-1.26-2.625-0.688l-8.156,4.469L11.625,16 l5.833-3.188l0.625,1.438L20.219,13.094z"/><path fill="#01579b" d="M37.219,12.156l-1.344-2.25c-0.813-1.313-2.531-1.438-4.063-0.625l-11.75,6.688l1.875,1.406 l4.313,11.5l6.438-1.125l6.063-3.875c1.844-1.313,2.469-3.344,1.281-5.875L30,24.25l-3.25-8L32.375,13l0.781,1.531L37.219,12.156z"/><path fill="#039be5" d="M23.813,15.844l3.719,9.438C28.219,26.625,29.563,26.875,31,26l9.625-5.969 c0,0,0.469,2.281-1.875,3.844s-6.063,3.875-6.063,3.875l-6.438,1.125l-4.313-11.5l-1.875-1.406L23.813,15.844z"/><path fill="#039be5" d="M31.406,11.5c0,0,2-0.969,2.75,0.313s0.906,1.563,0.906,1.563l-1.906,1.156L32.375,13l-5.625,3.25 l-2.938-0.406L31.406,11.5z"/><path fill="#039be5" d="M37.941,26.172C37.344,33.354,31.336,39,24,39c-5.404,0-10.084-3.067-12.418-7.55l-1.21-0.209 C12.742,36.405,17.945,40,24,40c8.111,0,14.702-6.443,14.974-14.488L37.941,26.172z"/><path fill="#039be5" d="M37.246,17.968c-0.559-1.051-1.247-2.02-2.03-2.904l-0.881,0.515 c0.803,0.88,1.499,1.856,2.058,2.92L37.246,17.968z"/><path fill="#039be5" d="M23.585,11.021C23.724,11.017,23.86,11,24,11c0.539,0,1.068,0.037,1.591,0.097l1.4-0.797 C26.024,10.104,25.024,10,24,10c-0.302,0-0.597,0.028-0.894,0.045L23.585,11.021z"/><path fill="#212121" d="M6.763,26.718L1.781,40.023c0,0,17.39-1.764,28.653-1.114c0.65-0.805,3.868-5.91,3.868-5.91 l-4.641-5.446C29.661,27.553,16.51,28.079,6.763,26.718z"/><path fill="#fff" d="M1.594,40.301l0.07-0.188l5.066-13.53l0.098,0.013c9.69,1.234,22.229,0.693,22.354,0.687 l0.057-0.002l0.039,0.04l5.506,5.728l-0.053,0.082c-0.133,0.211-3.261,5.172-3.914,5.98l-0.041,0.051l-0.063-0.004 C19.468,38.502,1.969,40.263,1.794,40.28L1.594,40.301z M6.895,26.855L1.969,40.012c1.978-0.192,18.085-1.707,28.692-1.109 c0.674-0.872,3.394-5.171,3.806-5.824l-5.33-5.545C28.209,27.572,16.255,28.034,6.895,26.855z"/><path fill="#fff" d="M14.53,28.946l-1.888,8.324l5.013-0.186l0.155-1.361l-2.785,0.031l0.928-5.415 C15.953,30.338,16.479,29.038,14.53,28.946z"/><path fill="#fff" d="M19.171,29.131L18.46,35.32c-0.289,2.341,5.528,2.486,5.477-0.093l0.093-6.096 c-1.135,0.031-1.712,0.423-1.733,1.269l-0.155,4.487c0.01,1.248-1.929,1.331-1.795,0l0.557-5.724L19.171,29.131z"/><path fill="#fff" d="M25.174,29.131l0.093,3.218h-0.619v1.207h0.65l0.093,3.466h5.106l-0.155-1.3l-3.094-0.031 l-0.124-2.197l2.197,0.062l-0.093-1.145l-2.197-0.031l-0.093-2.135l1.547,0.062c0.782,0.019,1.12-0.391,1.145-1.114L25.174,29.131z"/><path fill="#fff" d="M11.405,28.698H8.682l-1.269,3.589H6.856l-0.464,1.331H6.98l-1.269,3.899 c0,0,1.64,0.124,3.497-0.186s2.321-1.269,2.568-1.64c0.248-0.371,0.433-1.145,0.464-1.578c0.031-0.433-0.093-0.805-0.681-1.145 c0.464-0.124,1.021-0.774,1.176-1.083c0.155-0.309,0.155-0.402,0.309-1.609C13.199,29.069,11.405,28.698,11.405,28.698z M10.022,35.371c-0.248,0.66-1.114,0.722-1.114,0.722l-0.763,0.021l0.701-2.537c0,0,0.227,0.021,0.866,0.021 c0.639,0,0.619,0.701,0.619,0.701S10.27,34.711,10.022,35.371z M11.26,30.709c0,0-0.124,0.454-0.309,1.031 c-0.186,0.578-0.99,0.578-0.99,0.578h-0.64l0.66-2.331c0,0,0.103,0.041,0.722,0.041C11.322,30.029,11.26,30.709,11.26,30.709z"/><path fill="#bdbdbd" d="M11.559,32.968c0.02-0.005,0.042-0.024,0.062-0.031H6.629l-0.237,0.681H6.98l-1.269,3.899 c0,0,1.64,0.124,3.497-0.186s2.321-1.269,2.568-1.64c0.248-0.371,0.433-1.145,0.464-1.578 C12.271,33.68,12.147,33.309,11.559,32.968z M10.022,35.371c-0.248,0.66-1.114,0.722-1.114,0.722l-0.763,0.021l0.701-2.537 c0,0,0.227,0.021,0.866,0.021c0.639,0,0.619,0.701,0.619,0.701S10.27,34.711,10.022,35.371z M23.971,32.937l-0.035,2.29 c0.052,2.579-5.766,2.434-5.477,0.093l0.274-2.383h1.803l-0.19,1.949c-0.134,1.331,1.805,1.248,1.795,0l0.067-1.949H23.971z M30.342,35.722l0.155,1.3h-5.106l-0.093-3.466h-0.65v-0.619h4.622l0.05,0.619l-2.197-0.062l0.124,2.197L30.342,35.722z M15.025,35.753l2.785-0.031l-0.155,1.361l-5.013,0.186l0.982-4.332h1.883L15.025,35.753z"/><path fill="#212121" d="M45.875,40.023l-6.569-7.014c0,0,1.702-4.572,1.672-6.395c-0.597,0.064-4.718,0.33-4.718,0.33 s-0.279,1.533-0.577,1.98c-0.388-0.448-1.593-1.753-1.593-1.753l-5.357,0.227l4.939,5.941c0,0-2.668,4.441-3.683,5.528 c1.314,0.064,5.962,0.354,5.962,0.354l1.433-2.271l2.449,2.622C39.833,39.573,44.999,39.858,45.875,40.023z"/><path fill="#039be5" d="M30.187,28.079l4.487,5.137c0,0-2.073,3.744-3.218,5.044c0.835,0,3.744,0.124,3.744,0.124 s1.392-1.98,1.826-2.785c0.897,0.835,3.373,3.187,3.373,3.187l3.744,0.309l-5.879-5.879c0,0,1.578-3.992,1.733-5.57 c-0.712,0.124-3.001,0.186-3.001,0.186s-0.619,2.073-1.083,2.723c-0.464-0.402-2.63-2.537-2.63-2.537L30.187,28.079z"/><g><path fill="#01579b" d="M38.371,32.937l0.263-0.99l-1.361,0.99h-0.928l-0.248-0.557l-1.667,0.557l0.243,0.278 c0,0-2.073,3.744-3.218,5.044c0.835,0,3.744,0.124,3.744,0.124s1.392-1.98,1.826-2.785c0.897,0.835,3.373,3.187,3.373,3.187 l3.744,0.309l-5.879-5.879C38.263,33.216,38.305,33.109,38.371,32.937z"/></g><g><path fill="#fff" d="M44.472,39.247l-4.127-0.341l-0.032-0.03c-0.023-0.022-2.288-2.173-3.256-3.077 c-0.496,0.864-1.701,2.579-1.755,2.656l-0.04,0.056l-0.067-0.003c-0.029-0.001-2.915-0.123-3.738-0.123H31.18l0.183-0.208 c1.033-1.173,2.859-4.408,3.16-4.945l-4.518-5.244l3.326-0.097l0.038,0.038c0.021,0.02,1.902,1.875,2.517,2.436 c0.438-0.729,0.982-2.549,0.988-2.568L36.9,27.71l0.091-0.003c0.022-0.001,2.289-0.063,2.983-0.184l0.162-0.028l-0.017,0.164 c-0.145,1.474-1.485,4.949-1.711,5.526L44.472,39.247z M40.452,38.664l3.361,0.278l-5.697-5.696l0.03-0.076 c0.016-0.038,1.473-3.738,1.706-5.376c-0.748,0.096-2.361,0.148-2.765,0.16c-0.125,0.406-0.653,2.084-1.075,2.674l-0.08,0.111 l-0.104-0.09c-0.434-0.376-2.297-2.21-2.598-2.505l-2.695,0.077l4.289,4.979l-0.042,0.076c-0.081,0.146-1.902,3.427-3.061,4.861 c0.953,0.016,3.012,0.101,3.413,0.117c0.229-0.327,1.395-2.002,1.779-2.716l0.077-0.143l0.118,0.11 C37.943,36.281,40.16,38.386,40.452,38.664z"/></g><g><path fill="#fff" d="M46.47,40.216l-0.388-0.072c-0.857-0.16-6.193-0.438-6.247-0.441l-0.047-0.003l-0.034-0.033 l-2.438-2.404l-1.282,2.093l-0.072-0.002c-0.049-0.002-4.858-0.165-6.155-0.228l-0.271-0.014l0.186-0.197 c0.922-0.981,3.434-4.915,3.814-5.514l-5.032-6.121l5.443-0.131l0.037,0.034c0.054,0.048,1.196,1.096,1.688,1.615 c0.208-0.451,0.412-1.405,0.479-1.775l0.018-0.096l0.098-0.007c0.041-0.002,4.118-0.264,4.705-0.326l0.137-0.015l0.002,0.137 c0.027,1.705-1.422,5.7-1.65,6.317L46.47,40.216z M39.896,39.455c0.512,0.026,4.464,0.236,5.865,0.393l-6.59-6.754l0.027-0.074 c0.017-0.044,1.609-4.316,1.661-6.164c-0.837,0.072-3.883,0.27-4.48,0.308c-0.067,0.348-0.31,1.519-0.577,1.917l-0.091,0.136 l-0.106-0.123c-0.345-0.394-1.526-1.485-1.752-1.692l-4.829,0.117l4.821,5.863l-0.049,0.076c-0.11,0.176-2.596,4.101-3.717,5.43 c1.466,0.064,5.245,0.194,5.818,0.214l1.37-2.237L39.896,39.455z"/></g><g><path fill="#fff" d="M11.377,28.948c0.193,0.045,1.535,0.395,1.42,1.296l-0.039,0.309 c-0.115,0.904-0.124,0.978-0.246,1.22c-0.138,0.276-0.65,0.856-1.017,0.953l-0.583,0.156l0.522,0.302 c0.497,0.288,0.582,0.562,0.557,0.911c-0.031,0.435-0.218,1.151-0.423,1.457l-0.067,0.104c-0.257,0.406-0.736,1.162-2.334,1.428 c-1.025,0.171-1.984,0.207-2.609,0.207c-0.202,0-0.374-0.004-0.508-0.008l1.167-3.588l0.107-0.327H6.98H6.744l0.29-0.831h0.379 H7.59l0.059-0.167l1.21-3.423H11.377 M8.99,32.568h0.331h0.64c0.04,0,0.99-0.009,1.228-0.751c0.188-0.584,0.313-1.042,0.32-1.085 c0.004-0.044,0.032-0.44-0.219-0.715c-0.099-0.109-0.282-0.239-0.587-0.239c-0.469,0-0.618-0.024-0.63-0.024c-0.001,0-0.001,0,0,0 l-0.257-0.103l-0.076,0.267L9.08,32.25L8.99,32.568 M7.814,36.373l0.338-0.009l0.774-0.021c0.042-0.003,1.03-0.083,1.33-0.884 c0.254-0.677,0.32-1.105,0.325-1.153c0.001-0.045,0.005-0.445-0.262-0.72c-0.152-0.156-0.362-0.239-0.607-0.239 c-0.614,0-0.842-0.019-0.844-0.02l-0.208-0.018L8.606,33.51l-0.701,2.537L7.814,36.373 M14.726,29.211 c0.477,0.051,0.802,0.193,0.948,0.417c0.178,0.273,0.048,0.615,0.048,0.616l-0.01,0.025l-0.005,0.027l-0.928,5.415l-0.051,0.296 l0.3-0.003l2.502-0.028l-0.098,0.866l-4.473,0.166L14.726,29.211 M25.432,29.385l3.923,0.054c-0.08,0.43-0.34,0.618-0.858,0.618 c0,0-0.001,0-0.001,0l-1.547-0.062l-0.272-0.011l0.012,0.272l0.093,2.135l0.01,0.236l0.236,0.003l1.97,0.028l0.052,0.64 l-1.918-0.054l-0.272-0.008l0.015,0.272l0.124,2.197l0.013,0.234l0.234,0.002l2.875,0.029l0.095,0.802h-4.581l-0.086-3.222 l-0.007-0.243h-0.243h-0.4v-0.707h0.369h0.257l-0.007-0.257L25.432,29.385 M19.394,29.385l1.235,0.022l-0.531,5.454 c-0.046,0.455,0.115,0.74,0.259,0.899c0.198,0.218,0.496,0.344,0.819,0.344c0.334,0,0.655-0.131,0.881-0.359 c0.222-0.224,0.337-0.521,0.335-0.85l0.155-4.489c0.011-0.452,0.172-0.918,1.229-1.01l-0.089,5.836 c0.007,0.353-0.116,0.661-0.366,0.916c-0.442,0.451-1.26,0.72-2.189,0.72c-0.944,0-1.778-0.28-2.177-0.731 c-0.2-0.226-0.283-0.491-0.247-0.789L19.394,29.385 M11.405,28.698H8.682l-1.269,3.589H6.856l-0.464,1.331H6.98l-1.269,3.899 c0,0,0.324,0.024,0.847,0.024c0.654,0,1.618-0.038,2.65-0.21c1.857-0.309,2.321-1.269,2.568-1.64 c0.248-0.371,0.433-1.145,0.464-1.578c0.031-0.433-0.093-0.805-0.681-1.145c0.464-0.124,1.021-0.774,1.176-1.083 c0.155-0.309,0.155-0.402,0.309-1.609C13.199,29.069,11.405,28.698,11.405,28.698L11.405,28.698z M9.321,32.318l0.66-2.331 c0,0,0.103,0.041,0.722,0.041s0.557,0.681,0.557,0.681s-0.124,0.454-0.309,1.031c-0.186,0.578-0.99,0.578-0.99,0.578H9.321 L9.321,32.318z M8.145,36.114l0.701-2.537c0,0,0.227,0.021,0.866,0.021c0.639,0,0.619,0.701,0.619,0.701s-0.062,0.413-0.309,1.073 c-0.248,0.66-1.114,0.722-1.114,0.722L8.145,36.114L8.145,36.114z M14.53,28.946l-1.888,8.324l5.013-0.186l0.155-1.361 l-2.785,0.031l0.928-5.415C15.953,30.338,16.479,29.038,14.53,28.946L14.53,28.946z M25.174,29.131l0.093,3.218h-0.619v1.207h0.65 l0.093,3.466h5.106l-0.155-1.3l-3.094-0.031l-0.124-2.197l2.197,0.062l-0.093-1.145l-2.197-0.031l-0.093-2.135l1.547,0.062 c0.017,0,0.034,0.001,0.051,0.001c0.746,0,1.07-0.407,1.094-1.115L25.174,29.131L25.174,29.131z M24.029,29.131 c-1.135,0.031-1.712,0.423-1.733,1.269l-0.155,4.487c0.005,0.634-0.493,0.967-0.966,0.967c-0.459,0-0.895-0.313-0.829-0.967 l0.557-5.724l-1.733-0.031L18.46,35.32c-0.145,1.177,1.252,1.799,2.672,1.799c1.405,0,2.831-0.609,2.805-1.891L24.029,29.131 L24.029,29.131z"/></g></svg>