<svg xmlns="http://www.w3.org/2000/svg"  viewBox="0 0 48 48" width="1600px" height="1600px"><rect width="48" height="25" y="11" fill="#3f51b5"/><path fill="#fff" d="M7.109,19.492c0.032-0.632,0.06-1.176,0.09-1.753c-0.274,0-0.489,0-0.796,0	c-0.099,1.722-0.198,3.441-0.3,5.201c0.275,0,0.506,0,0.797,0c0.058-0.817,0.116-1.635,0.176-2.477c1.223,0,2.39,0,3.619,0	c0,0.394-0.069,2.958-0.118,3.861c-0.046,0.836-0.457,1.323-1.312,1.369c-1.301,0.071-2.607,0.057-3.911,0.063	c-0.615,0.003-1.23-0.021-1.844-0.055c-0.793-0.044-1.17-0.413-1.131-1.184c0.137-2.708,0.29-5.415,0.458-8.121	c0.051-0.831,0.611-1.346,1.536-1.363c1.696-0.032,3.394-0.04,5.089,0.006c1.104,0.031,1.483,0.489,1.451,1.571	c-0.024,0.83-0.15,2.865-0.15,2.865S8.288,19.492,7.109,19.492z"/><path fill="#fff" d="M11.075,25.658c0.151-3.57,0.3-7.09,0.451-10.655c1.208,0,2.371,0,3.63,0	c-0.109,3.543-0.218,7.075-0.329,10.655C13.58,25.658,12.379,25.658,11.075,25.658z"/><path fill="#fff" d="M16.431,18.42l-0.768-0.074c0.014-1.581,0.009-0.997,0.022-2.579l0.78-0.061	c0.04-0.187,0.081-0.377,0.13-0.604c1.169,0,2.336,0,3.542,0c0.04,0.18,0.082,0.419,0.139,0.675c1.416,0,2.89,0,4.36,0v2.49h-4.474	c0,1.583,0,3.162,0,4.712c0.22,0,0.45,0,0.809,0c0-1.327,0.01-4.005,0.01-4.005l3.665,0.007c0,0-0.07,4.604-0.035,5.266	c0.038,0.714-0.178,1.192-0.775,1.372c-0.387,0.117-1.117,0.19-1.521,0.196c-1.455,0.022-2.596,0.008-4.051,0.002	c-0.241-0.001-0.485-0.024-0.723-0.064c-0.883-0.15-1.263-0.595-1.244-1.48c0.038-1.736,0.089-3.472,0.134-5.207	C16.436,18.867,16.431,18.667,16.431,18.42z"/><path fill="#fff" d="M25.337,15.095c1.208,0,2.511,0,3.73,0c0.014,0.253,0,10.578,0,10.578s-2.635,0.001-3.73,0.001	C25.337,22.074,25.337,18.693,25.337,15.095z"/><path fill="#fff" d="M33.39,17.578c0.02,0.454,0.037,0.832,0.056,1.265c0.837,0,1.613,0,2.46,0c0,0.918,0,1.779,0,2.73	c-0.743,0-1.53,0-2.356,0c0,0.465,0,0.844,0,1.309c0.817,0,1.642,0,2.521,0c0.048,0.96,0.093,1.837,0.14,2.774	c-2.158,0-4.265,0-6.456,0c0-3.558,0-7.079,0-10.651c1.954,0,3.956,0,6.04,0c0,0.827,0,1.662,0,2.572	C35.029,17.578,34.237,17.578,33.39,17.578z"/><path fill="#fff" d="M44.777,18.236c-1.208,0-2.47,0-3.677,0l0.005-0.56c0,0-0.579,0-0.862,0	c0.019,0.404,0.036,0.768,0.057,1.21c0.875,0,1.726-0.009,2.577,0.005c0.314,0.005,0.637,0.022,0.938,0.102	c0.755,0.2,1.034,0.575,1.082,1.342c0.082,1.29,0.162,2.579,0.258,3.868c0.058,0.783-0.31,1.333-1.102,1.47	c-0.472,0.082-0.964,0.059-1.448,0.064c-1.268,0.012-2.537,0.034-3.805,0.008c-0.419-0.009-0.851-0.104-1.247-0.244	c-0.518-0.183-0.689-0.582-0.778-1.154c-0.104-0.67-0.063-1.324-0.102-2.048c1.254,0,2.467,0,3.715,0l0.003,0.598	c0,0,0.589,0,0.855,0c0-0.393,0-0.755,0-1.194c-0.22-0.012-0.433-0.029-0.647-0.036c-0.912-0.028-1.829-0.007-2.735-0.095	c-0.784-0.075-1.183-0.556-1.222-1.334c-0.065-1.291-0.118-2.582-0.154-3.874c-0.024-0.863,0.451-1.353,1.328-1.36	c1.81-0.014,3.619-0.013,5.429-0.001c0.876,0.006,1.379,0.513,1.418,1.367C44.687,16.94,44.777,18.236,44.777,18.236z"/><path fill="#fff" d="M6.418,27.596h0.175v-1.282c0,0-1.802-0.487-2.492,0.09c-0.72,0.601-1.077,1.615-0.028,2.547 s1.399,0.991,1.617,1.573c0.219,0.583-0.597,0.962-1.253,0.772c-0.656-0.189-0.932-0.772-0.903-1.195H3.403V31.5 c0,0,0.437,0.568,2.083,0.204s1.322-1.834,1.18-2.171c-0.092-0.218-0.67-0.874-1.807-1.573c0,0-0.799-0.634-0.146-1.238 c0.52-0.481,1.291-0.099,1.53,0.204C6.351,27.062,6.375,27.159,6.418,27.596z"/><path fill="#fff" d="M44.533,27.596h0.175v-1.282c0,0-1.802-0.487-2.492,0.09c-0.72,0.601-1.077,1.615-0.028,2.547 s1.399,0.991,1.617,1.573c0.219,0.583-0.597,0.962-1.253,0.772c-0.656-0.189-0.932-0.772-0.903-1.195h-0.131V31.5 c0,0,0.437,0.568,2.083,0.204s1.322-1.834,1.18-2.171c-0.092-0.218-0.67-0.874-1.807-1.573c0,0-0.799-0.634-0.146-1.238 c0.52-0.481,1.291-0.099,1.53,0.204C44.465,27.062,44.489,27.159,44.533,27.596z"/><path fill="#fff" d="M16.982,26.242v0.165c0,0,0.35-0.058,0.389,0.175l-1.117,2.146l-1.233-2.176 c0,0-0.126-0.165,0.32-0.204h0.097v-0.107H11.08v0.117c0.408,0,0.33,0.253,0.33,0.253l-1.904,2.098c0,0,0-1.875,0-2.117 s0.592-0.194,0.592-0.194v-0.155H7.516v0.146c0.544-0.068,0.602,0.214,0.602,0.214v4.73c-0.175,0.301-0.602,0.253-0.602,0.253 v0.136h2.7v-0.175c-0.767,0.01-0.728-0.35-0.728-0.35V28.98l2.282,2.739h1.923v-0.233c0,0-0.318-0.02-0.69-0.194 c-0.906-0.424-2.574-2.706-2.574-2.706s1.39-1.568,1.759-1.879c0.369-0.311,0.874-0.359,0.874-0.359h0.357l1.884,3.03v1.972 c0,0,0.087,0.253-0.622,0.233v0.136h2.729v-0.165h-0.505c0,0-0.243-0.058-0.272-0.476s0-1.68,0-1.68l1.748-2.991h0.563v-0.165 H16.982z"/><path fill="#fff" d="M19.707,26.242v0.146h0.476c0,0,0.194,0.068,0.194,0.35v4.536c0,0,0,0.311-0.67,0.253v0.194h4.06 L24,30.311l-0.087,0.01c0,0-0.097,0.68-0.651,0.826h-1.311c0,0-0.291,0.029-0.262-0.524l0.039-4.099c0,0,0.049-0.155,0.68-0.165 v-0.117H19.707z"/><path fill="#fff" d="M24.862,26.242v0.087h0.486c0,0,0.233,0.117,0.185,0.388v4.594c0,0-0.071,0.223-0.332,0.243h-0.338 v0.165h2.758v-0.165h-0.466c0,0-0.272-0.019-0.301-0.291v-4.662c0,0,0.049-0.214,0.408-0.253h0.311v-0.107h-2.711 C24.862,26.241,24.862,26.242,24.862,26.242z"/><path fill="#fff" d="M29.349,26.115v5.128c0,0,0.068,0.321-0.699,0.311v0.165h2.166v-0.146h-0.495 c0,0-0.223-0.049-0.223-0.34v-2.991l3.759,3.555h0.272l0.049-5.177c0,0,0.078-0.34,0.748-0.272v-0.107h-2.185v0.107 c0,0,0.728-0.039,0.728,0.262v3.108l-3.934-3.603C29.535,26.115,29.349,26.115,29.349,26.115z"/><path fill="#fff" d="M35.92,26.234v0.102c0,0,0.575-0.066,0.619,0.27v4.626c0,0-0.051,0.386-0.619,0.35v0.153h4.028 v-1.348h-0.102c0,0-0.051,0.772-0.699,0.772h-0.889c0,0-0.466,0.095-0.466-0.466v-1.617h1.289c0,0,0.386,0.051,0.386,0.656h0.131 v-1.428h-0.146c0,0,0.051,0.138-0.131,0.16h-1.45v-1.683h1.479c0,0,0.153-0.015,0.168,0.554h0.189v-1.1L35.92,26.234L35.92,26.234z"/></svg>