<svg xmlns="http://www.w3.org/2000/svg"  viewBox="0 0 48 48" width="1600px" height="1600px"><polygon fill="#f57f17" points="24,2.667 24,45 8,37 4.75,11.333 5.5,10 8.25,8 15,8"/><polygon fill="#827717" points="24,25 24,45 8,37 13,25"/><polygon fill="#f9a825" points="24,2.667 24,45 40,37 43.25,11.333 42.5,10 39.75,8 33,8"/><polygon fill="#603813" points="24,25 24,45 40,37 35,25"/><polygon fill="#d81b60" points="9.398,34.14 6.527,10.2 8.44,8.5 15.137,8.5 24,3.248 32.863,8.5 39.56,8.5 41.473,10.2 38.602,34.14 24,41.441"/><path fill="#880e4f" d="M21.5,14l-6.333,5.167L14,17.667l-3.333,2.167L15,31.333c0,0,3.875-1.708,7.5-1.667	c2.505,0.029,6.667,0.833,6.667,0.833l3.564-0.976L21.5,14z"/><polygon fill="#f57f17" points="30.172,20.016 29.172,20.016 33,16 34,16"/><polygon fill="#fdd835" points="17.828,20.016 18.828,20.016 15,16 14,16"/><path fill="#ffb300" d="M34,16l-3.704,3.885L26.083,12H24h-2.083l-4.212,7.885L14,16l-1.198,1.15l2.468,12.374	C17.487,28.396,19.572,26.99,24,27c4.428-0.01,6.513,1.396,8.73,2.524l2.468-12.374L34,16z"/><path fill="#ff6d00" d="M24,12h-2.083l-4.212,7.885L14,16l-1.198,1.15l2.468,12.374C17.487,28.396,19.572,26.99,24,27V12z"/><path fill="#880e4f" d="M39.37,9H33h-0.274L32.49,8.86L24,3.829L15.51,8.86L15.274,9H15H8.63l-1.575,1.4l2.807,23.413	L24,40.882l14.137-7.069L40.945,10.4L39.37,9z M36.28,32.506L24,37.646l-11.28-5.14L10.165,11.2l0.225-0.2H15h0.822l0.707-0.419	L24,6.154l7.471,4.427L32.178,11H33h5.609l0.225,0.2L36.28,32.506z"/><polygon fill="#c2185b" points="24,3.978 15.313,8.978 15.787,11 24,6.154"/><polygon fill="#ec407a" points="7.628,8.978 15.26,8.978 15.787,11 10.414,11"/><polygon fill="#ec407a" points="24,3.978 32.687,8.978 32.213,11 24,6.154"/><polygon fill="#f06292" points="39.37,9 33,9 32.726,9 32.49,8.86 24,3.829 24,6.154 31.471,10.581 32.178,11 33,11 38.609,11 38.835,11.2 36.28,32.506 24,37.646 24,40.882 38.137,33.813 40.945,10.4"/><polygon fill="#ec407a" points="39.484,8.978 32.74,8.978 32.213,11 38.586,11"/><polygon fill="#c2185b" points="36.28,32.506 24,37.646 24,40.882 38.137,33.813"/><path fill="#ffca28" d="M24,4.991l7.98,4.729L32.452,10H33h5.99l0.9,0.8l-2.681,22.36L24,39.764L10.791,33.16L8.11,10.8 l0.9-0.8H15h0.548l0.472-0.279L24,4.991 M24,2.667L15,8H8.25L6,10l2.934,24.467L24,42l15.066-7.533L42,10l-2.25-2H33L24,2.667 L24,2.667z"/></svg>