<svg xmlns="http://www.w3.org/2000/svg"  viewBox="0 0 48 48" width="1600px" height="1600px"><polygon fill="#603813" points="41,35 39,37.052 22,46 7,38 6,37.4 5.932,9.998 7,8 16,8 24,2 32,8 41,8"/><polygon fill="#448aff" points="41,33 24,43 7,35 7,8 16,8 24,2 32,8 41,8"/><path fill="#0d47a1" d="M25,8l5.6,4.2l1.067,0.8H33h4v19.661l-12.058,8.191L12,34V13h5h1.333l1.067-0.8L25,8 M25,3L17,9H8v26	l17,8l16-8V9h-8L25,3L25,3z"/><path fill="#0d47a1" d="M36.029,16.497L37,33c-7.08,1.905-13.806,1.606-20-2l-0.5-16l3.5,4l8-2l5,1l1.5-3l1.086,0.724	C35.847,15.898,36.011,16.184,36.029,16.497z"/><path fill="#ffb300" d="M24,7l5.6,4.2l1.067,0.8H32h5v20.592l-13,6.882l-13-6.882V12h5h1.333l1.067-0.8L24,7 M24,2L16,8H7v27	l17,9l17-9V8h-9L24,2L24,2z"/><path fill="#f57f17" d="M14.89,20h3l-0.92-4.598C16.924,15.168,16.719,15,16.48,15H14.5c-0.316,0-0.552,0.289-0.49,0.598	L14.89,20z"/><path fill="#fffde7" d="M34.11,20h-3l0.92-4.598C32.076,15.168,32.281,15,32.52,15h1.98c0.316,0,0.552,0.289,0.49,0.598	L34.11,20z"/><path fill="#ffb300" d="M33.377,18.34c-0.223,0.391-0.68,0.573-1.117,0.465c-0.428-0.106-0.851-0.196-1.271-0.275	c-0.386-0.073-0.696-0.357-0.791-0.738l-1.029-4.114c-0.102-0.406-0.446-0.714-0.863-0.759c-2.216-0.238-4.42-0.235-6.613,0	c-0.417,0.045-0.761,0.352-0.862,0.759l-0.984,3.937c-0.099,0.395-0.427,0.685-0.829,0.745c-0.748,0.111-1.507,0.256-2.279,0.447	c-0.436,0.108-0.893-0.075-1.116-0.465L14,15.5l0.454,7.033L20.484,23l4.016,0l4.016,0l6.03-0.468L35,15.5L33.377,18.34z"/><ellipse cx="24.5" cy="22.5" fill="#e65100" rx="10" ry="1.5"/><path fill="#ffb300" d="M34.5,24c0-0.828-4.477-1.5-10-1.5s-10,0.672-10,1.5l1,6.5l9-0.474l9,0.474L34.5,24z"/><ellipse cx="24.5" cy="30.5" fill="#e65100" rx="9" ry="1.5"/><rect width="3.91" height="3.91" x="23.045" y="23.545" fill="#fffde7" transform="rotate(-45.001 25 25.5)"/><ellipse cx="24.5" cy="31.333" fill="#0d47a1" rx="7" ry="1"/><polygon fill="#f57f17" points="27.765,25.5 25,28.265 22.235,25.5"/><polygon fill="#f57f17" points="27.765,25.5 25,28.265 25,22.735"/><polygon fill="#e65100" points="27.765,25.5 25,28.265 25,25.5"/><rect width="1.965" height="1.965" x="24.017" y="24.517" fill="#fdd835" transform="rotate(-45.001 25 25.5)"/><path fill="#ffb300" d="M24,4.5l6.8,5.1l0.533,0.4H32h7v23.796l-15,7.941L9,33.796V10h7h0.667L17.2,9.6L24,4.5 M24,2L16,8H7	v27l17,9l17-9V8h-9L24,2L24,2z"/><polygon fill="#fdd835" points="37,32.5 39,34 39,10 37,12"/><polygon fill="#f57f17" points="17.333,12 11,12 9,10 16.333,10"/><polygon fill="#e65100" points="41,33 24,41.75 24,44 41,35"/><polygon fill="#e65100" points="39,34 41,35 41,8 39,10"/><polygon fill="#f57f17" points="30.667,12 37,12 39,10 31.667,10"/><polygon fill="#e65100" points="24,4.5 16.333,10 17.333,12 24,7"/><polygon fill="#f57f17" points="7,33 24,41.75 24,44 7,35"/><polygon fill="#fdd835" points="9,34 7,35 7,8 9,10"/><polygon fill="#e65100" points="11,32.5 9,34 9,10 11,12"/><polygon fill="#f57f17" points="24,4.5 31.667,10 30.667,12 24,7"/></svg>