<svg xmlns="http://www.w3.org/2000/svg"  viewBox="0 0 48 48" width="1600px" height="1600px"><path fill="#a0f" d="M44,24l-1,1h-5.04c0.03-0.33,0.04-0.66,0.04-1c0-7.73-6.27-14-14-14c-0.34,0-0.67,0.01-1,0.04V5l1-1 c5.52,0,10.52,2.24,14.14,5.86C42.04,13.76,44,18.88,44,24z"/><path fill="#ff4081" d="M44,24c0,5.52-2.24,10.52-5.86,14.14C34.24,42.04,29.12,44,24,44l-1-1v-5.04 c0.33,0.03,0.66,0.04,1,0.04c7.39,0,13.45-5.74,13.96-13c0.03-0.33,0.04-0.66,0.04-1H44z"/><path fill="#00e5ff" d="M24,38v6c-5.52,0-10.52-2.24-14.14-5.86C5.95,34.24,4,29.12,4,24l1-1h5.04 C10.01,23.33,10,23.66,10,24c0,7.39,5.74,13.45,13,13.96C23.33,37.99,23.66,38,24,38z"/><path fill="#ffea00" d="M24,4v6c-0.34,0-0.67,0.01-1,0.04C16.07,10.53,10.53,16.07,10.04,23C10.01,23.33,10,23.66,10,24H4 c0-5.52,2.24-10.52,5.86-14.14C13.76,5.95,18.88,4,24,4z"/></svg>