<svg xmlns="http://www.w3.org/2000/svg"  viewBox="0 0 48 48" width="1600px" height="1600px"><path fill="#ffeb3b" d="M23.549,10.481c0,0-1.539-0.077-1.77-2.097c-0.866,0.5-0.673,1.443-0.673,1.443 s-0.904,0.327-0.038,0.827s2.405,0.212,2.405,0.212L23.549,10.481z"/><path fill="#ffeb3b" d="M24.213,10.481c0,0,1.539-0.077,1.77-2.097c0.866,0.5,0.673,1.443,0.673,1.443 s0.904,0.327,0.038,0.827s-2.405,0.212-2.405,0.212L24.213,10.481z"/><path fill="#ffca28" d="M23.251,10.635c0,0-0.837,0.087-1.472-0.606c-1.385,0.548-1.991,1.472-2.598,2.857 c1.183,1.27,1.789,2.078,1.876,3.435c1.443,0.866,5.917,0.087,5.917,0.087s-0.173-2.54,1.587-3.492 c-0.375-1.703-1.616-2.626-2.396-2.915c-0.664,0.664-1.154,0.666-1.645,0.695c0.058-0.289,0.115-0.52,0.115-0.52l-1.472-0.002 L23.251,10.635z"/><path fill="#bf360c" d="M23.309,11.183c0,0-1.385,0.26-1.963-0.26c0,0-1.039,0.75-1.241,1.674	c0.606,0.722,1.299,1.501,1.299,1.501l0.433-0.924l0.722,0.693l1.01-1.27L23.309,11.183z"/><path fill="#bf360c" d="M24.406,11.183c0,0,1.385,0.26,1.963-0.26c0,0,1.039,0.75,1.241,1.674	c-0.606,0.722-1.299,1.501-1.299,1.501l-0.433-0.924l-0.722,0.693l-0.996-1.254L24.406,11.183z"/><path fill="#ffca28" d="M25.18,8.532c0-0.26-0.211-0.471-0.471-0.471c-0.209,0-0.38,0.138-0.442,0.326 c-0.121-0.028-0.242-0.056-0.376-0.056c-0.127,0-0.242,0.028-0.357,0.054c-0.063-0.186-0.234-0.323-0.441-0.323 c-0.26,0-0.471,0.211-0.471,0.471c0,0.13,0.053,0.247,0.137,0.332c-0.082,0.125-0.137,0.26-0.137,0.408 c0,0.521,0.569,0.943,1.27,0.943s1.27-0.422,1.27-0.943c0-0.145-0.052-0.278-0.13-0.4C25.122,8.787,25.18,8.667,25.18,8.532z"/><polygon fill="#00c853" points="20.932,14.079 20.432,15.175 21.51,15.772 22.01,14.656"/><path fill="#2979ff" d="M24.3,13.829c0-0.673-0.847-0.654-0.808-0.038c-0.731-0.077-0.693,0.866-0.077,0.789	c0.019,0.596,0.885,0.577,0.904,0C24.983,14.706,25.012,13.71,24.3,13.829z"/><path fill="#ff3d00" d="M26.07,14.502c-0.017,0.406,0.135,0.847,0.539,0.943c0.404,0.096,0.712-0.115,0.75-0.481	c0.038-0.366-0.115-0.75-0.423-0.904C26.628,13.906,26.089,14.04,26.07,14.502z"/><ellipse cx="24.001" cy="16.301" fill="#8d6e63" rx="2.954" ry=".587"/><path fill="#6d4c41" d="M6.084,25.517c0,0,17.906-5.609,34.845-0.149c0.632,3.938,0.52,7.653,0.52,7.653	c-8.201-2.566-25.224-2.638-34.065-0.817C6.158,29.121,6.084,25.517,6.084,25.517z"/><path fill="#ff3d00" d="M5.443,18.819c0,0,18.549-5.811,36.097-0.154c0.654,4.079,0.539,7.927,0.539,7.927	c-8.495-2.659-26.13-2.732-35.289-0.847C5.52,22.552,5.443,18.819,5.443,18.819z"/><path fill="#bf360c" d="M8.56,18.068c-0.899,2.663-0.807,5.588-0.491,8.745l-3.55-0.779l1.443-7.273	C5.963,18.761,6.54,18.241,8.56,18.068z"/><path fill="#bf360c" d="M38.596,17.819c0.617,2.863,0.716,5.717,0.734,8.904l4.519-0.574l-1.289-7.215	C42.56,18.934,40.4,18.324,38.596,17.819z"/><path fill="#ff3d00" d="M6.675,17.279c0,0-0.962,3.502,1.001,8.312c-0.847,0.154-6.042-1.385-6.042-1.385l1.001-3.579	l-2.655-3.04C-0.021,17.587,4.481,14.278,6.675,17.279z"/><path fill="#ff3d00" d="M41.155,17.279c0,0,0.962,3.502-1.001,8.312c0.847,0.154,6.042-1.385,6.042-1.385l-1.001-3.579	l2.655-3.04C47.851,17.587,43.349,14.278,41.155,17.279z"/><path fill="#3e2723" d="M0.106,23.957c0,0,1.596,8.106,0.319,11.585c0.255,0.511,0.511,0.766,0.511,0.766	c16.277-1.628,32.298-1.819,46.213-0.128l0.67-0.989c0,0-0.862-2.617,0-10.883l-5.809,5.298l-1.404-1.66l-2.553,2.138l-2.84-2.489	l-3.734,2.33l-0.957-0.128l-1.915-2.394l-2.745,2.298l-2.266-1.309l-2.298-0.543l-2.394,1.5l-0.862-0.255l-2.138,1.149l-2.298-2.649	l-4.053-1.691l-1.596,0.064l-3.16,2.489l-2.266,0.064L1.16,24.468L0.106,23.957z"/><path fill="#ffca28" d="M0.816,35.545c-0.068,0-0.134-0.028-0.182-0.078c-0.056-0.06-0.08-0.142-0.063-0.221 c1.077-5.385-0.482-11.148-0.499-11.206c-0.022-0.082-0.002-0.169,0.054-0.233c0.048-0.054,0.116-0.084,0.187-0.084 c0.012,0,4.154,0.625,4.154,0.625c0.119,0.018,0.209,0.119,0.212,0.239c0,0,0.037,1.27,0.046,2.622 c0.5-0.684,0.512-2.005,0.46-2.543c-0.006-0.069,0.017-0.14,0.064-0.191c0.047-0.053,0.115-0.082,0.185-0.082 c0.107,0,0.92,0.016,1.287,0.461c0.15-0.082,0.296-0.123,0.438-0.123c0.432,0,0.695,0.372,0.828,0.715 c0.155-0.051,0.367-0.098,0.631-0.098c0.165,0,0.336,0.019,0.508,0.056c0.065,0.014,0.123,0.053,0.159,0.108 c0.036,0.057,0.048,0.125,0.034,0.19C8.85,27.811,8.57,28.31,6.834,29.729C8.255,30.671,9,32.892,9.26,33.824l0.091-8.083 c0.001-0.068,0.029-0.134,0.08-0.18c0.046-0.044,0.107-0.067,0.17-0.067c0.005,0,2.456,0.144,2.456,0.144 c0.123,0.008,0.221,0.103,0.234,0.223c0.004-0.005,0.009-0.01,0.014-0.014c0.046-0.042,0.106-0.065,0.168-0.065 c0.008,0,2.608,0.241,2.608,0.241c0.098,0.009,0.181,0.074,0.213,0.167l0.615,1.765v-1.683c0-0.068,0.028-0.134,0.077-0.181 c0.046-0.045,0.108-0.069,0.173-0.069c0.003,0,2.261,0.096,2.261,0.096c0.134,0.006,0.239,0.116,0.239,0.25v1.738 c0.486-1.248,1.508-2.252,3.292-2.252c1.016,0,1.82,0.307,2.392,0.913c0.47,0.498,0.696,1.109,0.805,1.617v-2.089 c0-0.138,0.112-0.25,0.25-0.25h2.586c0.986,0,2.708,0.576,3.245,2.587c0.19-0.691,0.536-1.451,1.09-2.022 c0.563-0.581,1.247-0.876,2.032-0.876c1.852,0,2.938,1.328,3.365,2.698l0.047-3.146c0.002-0.129,0.102-0.235,0.23-0.245 c0,0,3.315-0.265,3.322-0.265c0.116,0,0.219,0.081,0.244,0.196l0.581,2.635l1.047-2.858c0.032-0.09,0.113-0.152,0.207-0.163 c0.019-0.001,1.802-0.193,4.054-0.359c0.006-0.001,0.013-0.001,0.019-0.001c0.072,0,0.143,0.031,0.189,0.087 c0.052,0.061,0.072,0.142,0.054,0.22c-0.913,3.958-0.256,10.377-0.249,10.441c0.007,0.073-0.018,0.146-0.068,0.199 c-0.048,0.05-0.112,0.077-0.181,0.077c-0.005,0-4.213-0.256-4.213-0.256c-0.12-0.008-0.218-0.1-0.232-0.22l0,0 c-0.001,0-0.03-0.145-0.24-0.69c-0.048-0.124,0.01-0.264,0.131-0.318l0.122-0.052c0.339-0.145,0.51-0.216,0.683-1.261 c0.135-0.803,0.115-2.132,0.084-2.985l-1.322,2.175c-0.046,0.074-0.127,0.12-0.214,0.12c-0.002,0-0.004,0-0.006,0 c-0.089-0.002-0.171-0.052-0.214-0.13c-0.005-0.01-0.449-0.823-0.918-1.767c-0.38,3.093,0.38,3.818,0.389,3.825 c0.076,0.068,0.109,0.183,0.073,0.278l-0.255,0.687c-0.036,0.099-0.131,0.163-0.234,0.163c-0.006,0-2.985-0.209-2.985-0.209 c-0.132-0.009-0.234-0.12-0.232-0.253l0.038-2.567c-0.461,1.557-1.519,2.414-3.052,2.414c-2.248,0-3.088-1.596-3.399-2.887 c-0.587,2.018-2.464,2.574-3.198,2.6c-0.233,0.008-0.604,0.011-0.994,0.011c-0.774,0-1.627-0.011-1.627-0.011 c-0.137-0.002-0.247-0.113-0.247-0.25v-1.546c-0.108,0.292-0.259,0.572-0.459,0.824c-0.577,0.725-1.458,1.092-2.618,1.092 c-1.856,0-2.914-0.907-3.412-2.077v1.684c0,0.131-0.102,0.24-0.232,0.249c0,0-2.022,0.145-2.028,0.145 c-0.099,0-0.189-0.059-0.229-0.15l-0.89-2.058l0.029,2.002c0.002,0.134-0.102,0.245-0.235,0.254c0,0-2.595,0.159-2.6,0.159 c-0.063,0-0.125-0.024-0.171-0.068c-0.032-0.03-0.056-0.068-0.068-0.11c-0.029,0.096-0.112,0.168-0.216,0.178 c0,0-2.505,0.24-2.513,0.24c-0.061,0-0.12-0.022-0.165-0.062c-0.005,0.008-0.01,0.016-0.015,0.023 c-0.042,0.058-0.105,0.095-0.176,0.103c0,0-3.337,0.352-3.346,0.352c-0.058,0-0.114-0.02-0.159-0.057 c-0.052-0.043-0.084-0.104-0.09-0.172c-0.069-0.792-0.269-1.475-0.586-2.011v2.085c0,0.125-0.092,0.23-0.215,0.247 C4.753,34.991,0.828,35.545,0.816,35.545z M22.024,28.795c-0.557,0-0.718,0.629-0.756,1.156c-0.036,0.507,0.067,0.943,0.275,1.168 c0.12,0.129,0.277,0.191,0.48,0.191c0.359,0,0.57-0.119,0.692-0.241h-0.118c-0.138,0-0.25-0.112-0.25-0.25V29.79 c0-0.138,0.112-0.25,0.25-0.25h0.237c-0.022-0.027-0.039-0.059-0.048-0.094C22.78,29.42,22.606,28.795,22.024,28.795z M33.748,30.326c0.065,0,0.129,0.025,0.177,0.073c0.072,0.072,0.093,0.181,0.054,0.274c-0.021,0.049-0.031,0.091-0.031,0.129 c0,0.214,0.206,0.389,0.46,0.389s0.46-0.175,0.46-0.389c0-0.038-0.01-0.08-0.031-0.129c-0.04-0.094-0.019-0.203,0.054-0.274 c0.048-0.048,0.112-0.073,0.177-0.073c0.033,0,0.067,0.007,0.099,0.021c0.05,0.021,0.091,0.031,0.128,0.031 c0.214,0,0.388-0.207,0.388-0.461s-0.174-0.46-0.388-0.46c-0.038,0-0.08,0.01-0.128,0.03c-0.031,0.014-0.065,0.021-0.099,0.021 c-0.065,0-0.129-0.025-0.177-0.073c-0.072-0.072-0.094-0.182-0.053-0.275c0.021-0.048,0.03-0.09,0.03-0.128 c0-0.214-0.206-0.388-0.46-0.388s-0.46,0.174-0.46,0.388c0,0.038,0.01,0.08,0.03,0.128c0.04,0.094,0.02,0.202-0.053,0.275 c-0.048,0.048-0.111,0.073-0.177,0.073c-0.033,0-0.066-0.007-0.098-0.02c-0.049-0.021-0.091-0.031-0.129-0.031 c-0.214,0-0.389,0.206-0.389,0.46s0.175,0.461,0.389,0.461c0.037,0,0.078-0.01,0.129-0.032 C33.682,30.333,33.715,30.326,33.748,30.326z M27.42,31.042c0.115,0.015,0.286,0.029,0.517,0.029c0.389,0,0.803-0.424,0.803-1.21 c0-0.804-0.564-1.019-0.898-1.019H27.42V31.042z"/><path fill="#3e2723" d="M0.314,23.973l4.117,0.622c0,0,0.048,1.628,0.048,3.16c1.197-0.622,0.957-3.112,0.957-3.112 s1.053,0,1.197,0.574c0.207-0.17,0.382-0.236,0.528-0.236c0.51,0,0.669,0.811,0.669,0.811s0.282-0.193,0.788-0.193 c0.136,0,0.289,0.014,0.456,0.05c-0.479,2.154-0.718,2.537-2.681,4.117c1.939,0.934,2.729,4.532,2.729,4.532l-3.319,0.351 c-0.095-1.092-0.436-2.066-1.085-2.729v2.824l-3.902,0.551C1.918,29.79,0.314,23.973,0.314,23.973 M47.468,24.476 C46.535,28.521,47.213,35,47.213,35l-4.197-0.255c0,0-0.016-0.128-0.255-0.75c0.463-0.207,0.734-0.207,0.949-1.5 c0.215-1.293,0.048-3.854,0.048-3.854l-1.747,2.872c0,0-0.694-1.269-1.269-2.489c-0.67,4.045,0.359,4.859,0.359,4.859l-0.255,0.686 l-2.968-0.207l0.136-9.072l3.303-0.263l0.766,3.471l1.34-3.662C43.423,24.835,45.194,24.643,47.468,24.476 M9.601,25.744 l2.441,0.144l-0.048,8.106l-2.489,0.239L9.601,25.744 M34.351,25.984c2.322,0,3.327,2.25,3.327,3.782 c0,1.532-0.383,4.189-3.064,4.189c-2.681,0-3.279-2.441-3.327-3.973C31.251,28.833,32.029,25.984,34.351,25.984 M33.748,29.258 c-0.071-0.03-0.146-0.051-0.226-0.051c-0.353,0-0.638,0.318-0.638,0.71c0,0.392,0.286,0.71,0.638,0.71 c0.08,0,0.156-0.021,0.226-0.051c-0.03,0.071-0.051,0.146-0.051,0.226c0,0.353,0.318,0.638,0.71,0.638 c0.392,0,0.71-0.286,0.71-0.638c0-0.08-0.021-0.156-0.051-0.226c0.071,0.03,0.146,0.051,0.226,0.051 c0.352,0,0.638-0.318,0.638-0.71c0-0.392-0.286-0.71-0.638-0.71c-0.08,0-0.156,0.021-0.226,0.051 c0.03-0.071,0.051-0.146,0.051-0.226c0-0.353-0.318-0.638-0.71-0.638c-0.392,0-0.71,0.286-0.71,0.638 C33.697,29.112,33.718,29.187,33.748,29.258 M12.473,26.032l2.585,0.239l1.101,3.16v-3.16l2.25,0.096v7.277l-2.011,0.144 l-1.388-3.207l0.048,3.255l-2.585,0.16V26.032 M21.952,26.104c3.231,0,3.04,3.279,3.04,3.279h-1.963c0,0-0.215-0.838-1.005-0.838 c-0.79,0-0.968,0.863-1.005,1.388c-0.048,0.67,0.12,1.628,1.005,1.628c0.886,0,1.101-0.622,1.101-0.742c-0.215,0-0.527,0-0.527,0 V29.79h2.441c0.287,1.245,0.12,3.997-2.968,3.997c-3.375,0-3.519-3.04-3.519-3.686C18.553,29.455,18.721,26.104,21.952,26.104 M27.984,26.295c0.981,0,3.16,0.67,3.16,3.686s-2.441,3.662-3.136,3.686c-0.231,0.008-0.598,0.011-0.985,0.011 c-0.773,0-1.624-0.011-1.624-0.011v-7.372C25.399,26.295,27.003,26.295,27.984,26.295 M27.936,31.322 c0.527,0,1.053-0.527,1.053-1.46c0-0.934-0.67-1.269-1.149-1.269c-0.479,0-0.67,0-0.67,0v2.657 C27.17,31.25,27.41,31.322,27.936,31.322 M33.748,30.577h0.005 M0.314,23.473c-0.142,0-0.278,0.06-0.374,0.168 c-0.112,0.127-0.153,0.301-0.108,0.465c0.016,0.057,1.558,5.772,0.494,11.091c-0.032,0.159,0.015,0.323,0.127,0.441 c0.095,0.101,0.227,0.157,0.363,0.157c0.023,0,0.047-0.002,0.07-0.005l3.902-0.551c0.247-0.035,0.43-0.246,0.43-0.495v-0.677 c0.039,0.199,0.068,0.407,0.087,0.625c0.012,0.134,0.077,0.257,0.18,0.342c0.09,0.074,0.202,0.114,0.318,0.114 c0.017,0,0.035-0.001,0.053-0.003l3.319-0.351c0.077-0.008,0.15-0.034,0.215-0.075c0.038,0.009,0.077,0.014,0.116,0.014 c0.016,0,0.032-0.001,0.048-0.002l2.489-0.239c0.069-0.007,0.134-0.027,0.192-0.059c0.073,0.04,0.155,0.061,0.239,0.061 c0.01,0,0.021,0,0.031-0.001l2.585-0.16c0.267-0.016,0.473-0.239,0.469-0.506l-0.011-0.749l0.393,0.907 c0.08,0.184,0.261,0.301,0.459,0.301c0.012,0,0.024,0,0.036-0.001l2.011-0.144c0.262-0.019,0.464-0.236,0.464-0.499v-0.744 c0.632,0.823,1.648,1.388,3.162,1.388c1.241,0,2.187-0.399,2.813-1.186c0.005-0.006,0.009-0.012,0.014-0.018v0.584 c0,0.274,0.22,0.497,0.494,0.5c0,0,0.854,0.011,1.63,0.011c0.393,0,0.767-0.003,1.002-0.011c0.695-0.024,2.342-0.489,3.152-2.073 c0.582,1.507,1.785,2.36,3.437,2.36c1.231,0,2.177-0.505,2.783-1.444l-0.02,1.344c-0.004,0.265,0.2,0.488,0.465,0.506l2.968,0.207 c0.012,0.001,0.023,0.001,0.035,0.001c0.208,0,0.395-0.129,0.468-0.326l0.255-0.686c0.076-0.203,0.012-0.432-0.158-0.567 c0,0,0,0,0,0c0.004,0-0.512-0.579-0.372-2.743c0.301,0.582,0.529,0.999,0.533,1.006c0.086,0.157,0.249,0.256,0.427,0.26 c0.004,0,0.008,0,0.011,0c0.174,0,0.336-0.091,0.427-0.24l0.881-1.447c0.008,0.726-0.01,1.536-0.101,2.087 c-0.151,0.909-0.264,0.956-0.534,1.071l-0.126,0.055c-0.242,0.109-0.357,0.388-0.262,0.636c0.197,0.511,0.229,0.655,0.23,0.661 c0.048,0.218,0.238,0.395,0.461,0.408l4.197,0.255c0.01,0.001,0.02,0.001,0.03,0.001c0.136,0,0.267-0.055,0.361-0.154 c0.102-0.106,0.151-0.252,0.136-0.398c-0.007-0.064-0.658-6.444,0.245-10.359c0.036-0.155-0.004-0.317-0.108-0.438 c-0.095-0.111-0.234-0.175-0.38-0.175c-0.012,0-0.024,0-0.037,0.001c-2.256,0.166-4.044,0.359-4.062,0.361 c-0.189,0.02-0.35,0.147-0.416,0.325l-0.752,2.054l-0.397-1.798c-0.051-0.231-0.255-0.392-0.488-0.392 c-0.013,0-0.027,0.001-0.04,0.002l-3.303,0.263c-0.257,0.02-0.456,0.233-0.46,0.491l-0.03,2.018 c-0.612-1.017-1.64-1.817-3.132-1.817c-0.843,0-1.608,0.329-2.211,0.952c-0.403,0.416-0.701,0.926-0.914,1.442 c-0.743-1.601-2.303-2.082-3.242-2.082h-2.585c-0.276,0-0.5,0.224-0.5,0.5v0.785c-0.105-0.168-0.229-0.332-0.374-0.485 c-0.62-0.658-1.486-0.991-2.573-0.991c-1.45,0-2.428,0.615-3.043,1.49v-0.727c0-0.268-0.211-0.488-0.479-0.5l-2.25-0.096 c-0.007,0-0.014,0-0.021,0c-0.129,0-0.253,0.05-0.346,0.139c-0.098,0.094-0.154,0.225-0.154,0.361v0.205l-0.129-0.37 c-0.064-0.185-0.231-0.315-0.426-0.333l-2.585-0.239c-0.015-0.001-0.031-0.002-0.046-0.002c-0.025,0-0.05,0.002-0.075,0.006 c-0.084-0.085-0.199-0.141-0.327-0.148L9.63,25.245c-0.01-0.001-0.02-0.001-0.029-0.001c-0.065,0-0.129,0.013-0.188,0.037 c-0.065-0.06-0.146-0.103-0.235-0.121c-0.189-0.04-0.377-0.06-0.56-0.06c-0.187,0-0.351,0.021-0.492,0.051 c-0.184-0.348-0.495-0.669-0.966-0.669c-0.127,0-0.255,0.025-0.384,0.074c-0.471-0.397-1.229-0.412-1.34-0.412 c-0.141,0-0.275,0.06-0.37,0.164c-0.095,0.104-0.141,0.244-0.128,0.384c0.015,0.165,0.025,0.427,0.013,0.725 c-0.011-0.498-0.02-0.827-0.02-0.834c-0.007-0.242-0.186-0.444-0.425-0.48l-4.117-0.622C0.364,23.475,0.339,23.473,0.314,23.473 L0.314,23.473z M47.468,24.976h0.005H47.468L47.468,24.976z M7.239,29.719c1.018-0.853,1.502-1.404,1.842-2.255l-0.055,4.914 C8.646,31.455,8.065,30.39,7.239,29.719L7.239,29.719z M33.727,29.749c0.132,0,0.264-0.048,0.358-0.142 c0.144-0.144,0.202-0.356,0.122-0.544c-0.01-0.023-0.011-0.033-0.011-0.033c0-0.063,0.09-0.136,0.21-0.136 c0.12,0,0.21,0.073,0.21,0.138c-0.08,0.188-0.043,0.42,0.101,0.565c0.1,0.1,0.232,0.158,0.366,0.158c0.06,0,0.12-0.012,0.177-0.036 c0.005-0.001,0.011-0.001,0.016-0.001c0.088,0,0.153,0.086,0.153,0.2c0,0.12-0.073,0.21-0.138,0.21 c-0.065-0.028-0.136-0.041-0.206-0.041c-0.132,0-0.264,0.048-0.359,0.143c-0.144,0.144-0.202,0.356-0.122,0.544 c0.011,0.096-0.079,0.169-0.199,0.169c-0.12,0-0.21-0.073-0.21-0.138c0.002-0.005,0.004-0.009,0.006-0.014 c0.03-0.064,0.048-0.136,0.048-0.212c0-0.276-0.221-0.5-0.498-0.5h-0.005c-0.07,0-0.136,0.014-0.196,0.04 c-0.005,0.001-0.01,0.001-0.015,0.001c-0.088,0-0.153-0.086-0.153-0.2c0-0.12,0.073-0.21,0.138-0.21 C33.586,29.735,33.657,29.749,33.727,29.749L33.727,29.749z M22.024,31.061c-0.171,0-0.249-0.06-0.297-0.112 c-0.158-0.169-0.24-0.554-0.209-0.98c0.03-0.421,0.142-0.924,0.507-0.924c0.218,0,0.354,0.138,0.432,0.265 c-0.207,0.061-0.358,0.253-0.358,0.479v1.029c0,0.085,0.021,0.165,0.059,0.235C22.116,31.058,22.072,31.061,22.024,31.061 L22.024,31.061z M27.67,29.093h0.17c0.066,0,0.649,0.022,0.649,0.769c0,0.662-0.324,0.96-0.553,0.96 c-0.101,0-0.19-0.003-0.266-0.007V29.093L27.67,29.093z"/><polygon fill="#3e2723" points="11.023,18.511 9.099,19.434 9.676,21.666 12.139,22.744 23.222,21.589 19.682,19.665"/><path fill="#ffca28" d="M30.293,23.802c-0.032,0-0.064-0.006-0.096-0.019c-0.062-0.026-0.112-0.076-0.137-0.139l-0.422-1.068	l0.01,0.713c0.002,0.138-0.107,0.251-0.245,0.253c0,0-1.562,0.029-1.563,0.029c-0.065,0-0.128-0.025-0.175-0.071	c-0.048-0.047-0.075-0.111-0.075-0.178l-0.017-3.516c-0.037,0.024-0.081,0.04-0.128,0.042l-1.273,0.049l-0.001,0.005l1.069,0.023	c0.066,0.001,0.13,0.03,0.176,0.078c0.046,0.049,0.07,0.114,0.068,0.18l-0.029,0.866c-0.005,0.133-0.112,0.239-0.244,0.242	l-1.043,0.023l0.006,0.117l1.151,0.024c0.068,0.001,0.133,0.031,0.18,0.081c0.046,0.05,0.069,0.117,0.064,0.186l-0.086,1.299	c-0.008,0.131-0.117,0.233-0.249,0.233c-0.001,0-2.543-0.029-2.543-0.029c-0.051,0-0.1-0.017-0.14-0.045	c-0.026,0.01-0.054,0.015-0.083,0.016c0,0-1.216,0.029-1.218,0.029c-0.066,0-0.129-0.026-0.176-0.072	c-0.048-0.048-0.075-0.113-0.074-0.181l0.003-0.223l-0.889,0.476c-0.037,0.02-0.078,0.03-0.118,0.03	c-0.025,0-0.05-0.004-0.075-0.011c-0.064-0.02-0.117-0.065-0.148-0.125l-0.332-0.649l-0.032,0.578	c-0.007,0.131-0.115,0.234-0.246,0.236c0,0-0.934,0.014-0.935,0.014c-0.135,0-0.246-0.107-0.25-0.243l-0.035-1.204	c-0.379,0.746-1.107,1.24-1.961,1.24c-0.919,0-1.715-0.564-2.088-1.379c-0.357,0.815-1.117,1.379-1.996,1.379	c-0.582,0-1.112-0.247-1.507-0.65c0.083,0.477,0.137,0.838,0.138,0.844c0.015,0.097-0.029,0.194-0.111,0.247	c-0.206,0.133-0.629,0.212-1.132,0.212c-0.542,0-1.905-0.103-2.846-1.059c-0.6-0.609-0.897-1.436-0.881-2.456	c0.032-2.147,1.343-3.379,3.597-3.379c0.63,0,1.185,0.103,1.404,0.172c0.13,0.041,0.203,0.178,0.165,0.309	c0,0-0.527,1.783-0.531,1.793c0.406-0.539,1.02-0.882,1.706-0.882c0.879,0,1.639,0.564,1.996,1.379	c0.373-0.815,1.169-1.379,2.088-1.379c0.801,0,1.491,0.43,1.887,1.092l-0.03-1.013c-0.002-0.068,0.024-0.134,0.072-0.183	c0.047-0.048,0.111-0.075,0.178-0.075c0.001,0,1.184,0.015,1.184,0.015c0.068,0.001,0.132,0.029,0.179,0.078	c0.046,0.049,0.071,0.115,0.068,0.182L21.5,18.856l0.547-0.735c0.041-0.055,0.103-0.09,0.171-0.099	c0.01-0.001,0.02-0.002,0.03-0.002c0.058,0,0.114,0.02,0.159,0.057l0.649,0.536l0.002-0.202c0.002-0.137,0.113-0.247,0.25-0.247	h1.241c0.057,0,0.111,0.019,0.155,0.054c0.037-0.024,0.082-0.038,0.13-0.039c0,0,2.629-0.043,2.63-0.043	c0.035,0,0.069,0.007,0.101,0.021l-0.004-0.925c0-0.104,0.063-0.198,0.161-0.234c0.036-0.014,0.904-0.341,1.845-0.341	c1.199,0,1.972,0.52,2.255,1.509c0.01-0.001,0.037-0.002,0.041-0.001l1.271,0.058c0.13,0.006,0.234,0.111,0.238,0.242	c0,0,0.062,1.955,0.058,2.65c-0.001,0.195,0.055,0.272,0.078,0.296l0.127-0.015c0.03-0.03,0.078-0.103,0.074-0.247l-0.029-2.674	c-0.001-0.135,0.104-0.246,0.238-0.252c0,0,1.191-0.058,1.195-0.058c0.062,0,0.123,0.023,0.169,0.066	c0.021,0.02,0.04,0.043,0.053,0.069c0.024-0.01,0.051-0.017,0.079-0.019c0,0,1.281-0.087,1.287-0.087	c0.094,0,0.18,0.052,0.223,0.137l0.467,0.918l0.041-0.875c0.003-0.066,0.033-0.129,0.082-0.173c0.046-0.042,0.106-0.065,0.168-0.065	c0.004,0,1.168,0.058,1.168,0.058c0.133,0.006,0.237,0.116,0.237,0.25v4.445c0,0.138-0.112,0.25-0.25,0.25h-1.271	c-0.104,0-0.198-0.065-0.234-0.163l-0.312-0.843l-0.012,0.904c-0.001,0.068-0.029,0.132-0.078,0.179	c-0.047,0.044-0.108,0.068-0.172,0.068c-0.004,0-1.339-0.058-1.339-0.058c-0.134-0.006-0.239-0.116-0.239-0.25V22.47	c-0.36,0.792-1.038,0.987-1.628,0.987c0,0-0.091-0.001-0.094-0.001c-0.611-0.021-1.038-0.254-1.329-0.574	c-0.002,0.02-0.006,0.04-0.013,0.059c-0.022,0.066-0.072,0.12-0.137,0.148l-1.588,0.693C30.361,23.795,30.327,23.802,30.293,23.802z M23.015,21.846l0.03-2.354l-0.767,0.971L23.015,21.846z M31.074,20.614c0.17,0.408,0.368,0.83,0.545,1.189	c-0.038-0.197-0.051-0.383-0.046-0.539l0.012-1.156C31.448,20.317,31.275,20.491,31.074,20.614z M17.984,20.108	c-0.236,0-0.429,0.25-0.429,0.558s0.192,0.558,0.429,0.558c0.232,0,0.429-0.255,0.429-0.558S18.216,20.108,17.984,20.108z M13.9,20.108c-0.214,0-0.396,0.255-0.396,0.558s0.181,0.558,0.396,0.558s0.396-0.255,0.396-0.558S14.114,20.108,13.9,20.108z M11.186,19.167c-1.024,0-1.109,0.653-1.137,0.868c-0.044,0.342,0.01,0.604,0.162,0.776c0.217,0.247,0.604,0.298,0.892,0.298	c0.199,0,0.418-0.026,0.609-0.072c-0.017-0.121-0.026-0.245-0.026-0.371c0-0.548,0.167-1.055,0.448-1.461	c-0.046,0.042-0.106,0.066-0.169,0.066c-0.023,0-0.047-0.003-0.07-0.01C11.893,19.26,11.566,19.167,11.186,19.167z M29.438,19.277	c0.3,0,0.538-0.062,0.637-0.165c0.028-0.029,0.06-0.075,0.056-0.168c-0.007-0.17-0.052-0.282-0.59-0.282l-0.122,0.001v0.614	C29.425,19.277,29.432,19.277,29.438,19.277z"/><path fill="#3e2723" d="M29.567,16.907c0.909,0,1.872,0.327,2.083,1.637c0.13,0.808-0.202,1.688-0.895,1.948	c0.433,1.097,1.126,2.367,1.126,2.367l-1.587,0.693l-0.924-2.338l0.029,2.078l-1.559,0.029l-0.029-6.09	C27.811,17.231,28.662,16.907,29.567,16.907 M29.22,18.415c-0.018,0-0.035,0-0.052,0v1.097c0.073,0.009,0.166,0.015,0.269,0.015	c0.408,0,0.962-0.104,0.943-0.593c-0.019-0.474-0.422-0.522-0.841-0.522C29.432,18.412,29.323,18.415,29.22,18.415 M11.157,17.1	c0.635,0,1.156,0.106,1.329,0.16l-0.52,1.761c0,0-0.355-0.105-0.779-0.105c-0.572,0-1.269,0.19-1.385,1.086	c-0.14,1.081,0.609,1.357,1.302,1.357c0.306,0,0.602-0.054,0.805-0.116c0.202,0.924,0.375,2.078,0.375,2.078	c-0.148,0.095-0.523,0.172-0.996,0.172c-1.355,0-3.517-0.63-3.478-3.26C7.849,17.602,9.773,17.1,11.157,17.1 M22.248,18.27	l0.874,0.722l-1.14,1.443l1.068,2.006l-1.052,0.563l-0.753-1.472l-0.084,1.501l-0.93,0.014l-0.139-4.733l1.181,0.014l-0.056,1.328	L22.248,18.27 M37.682,18.386l1.154,0.058v4.445h-1.27l-0.779-2.107l-0.029,2.251l-1.328-0.058V18.53l1.27-0.087l0.895,1.761	L37.682,18.386 M27.465,18.386h0.005 M27.465,18.386l-0.029,1.212l-1.501,0.058l-0.029,0.491l1.328,0.029l-0.029,0.866l-1.299,0.029	l0.029,0.606l1.385,0.029l-0.087,1.299l-2.54-0.029l0.144-4.546L27.465,18.386 M35.113,18.415c0,0,0.087,2.381,0.072,2.785	c-0.013,0.37-0.014,2.007-1.633,2.007c-0.028,0-0.056,0-0.084-0.001c-1.703-0.058-1.645-1.934-1.645-1.934l0.029-2.857l1.27,0.058	c0,0,0.062,1.948,0.058,2.641c-0.002,0.395,0.187,0.572,0.379,0.572c0.203,0,0.41-0.197,0.4-0.543l-0.029-2.67L35.113,18.415 M24.55,18.415h0.005 M24.55,18.415l-0.087,4.531l-1.212,0.029l0.058-4.56H24.55 M17.984,18.492c1.14,0,1.991,0.959,1.991,2.16	c0,1.201-0.852,2.189-1.991,2.189c-1.14,0-2.064-0.973-2.064-2.174C15.92,19.465,16.844,18.492,17.984,18.492 M17.984,21.474	c0.375,0,0.679-0.362,0.679-0.808c0-0.446-0.304-0.808-0.679-0.808c-0.375,0-0.679,0.362-0.679,0.808	C17.305,21.112,17.609,21.474,17.984,21.474 M13.9,18.492c1.084,0,1.963,0.973,1.963,2.174c0,1.201-0.879,2.174-1.963,2.174	c-1.084,0-1.963-0.973-1.963-2.174C11.937,19.465,12.816,18.492,13.9,18.492 M13.9,21.474c0.356,0,0.645-0.362,0.645-0.808	c0-0.446-0.289-0.808-0.645-0.808c-0.356,0-0.645,0.362-0.645,0.808C13.254,21.112,13.543,21.474,13.9,21.474 M29.567,16.407	C29.567,16.407,29.567,16.407,29.567,16.407c-0.986,0-1.896,0.342-1.934,0.357c-0.195,0.074-0.323,0.261-0.322,0.47l0.003,0.655	l-2.484,0.041c-0.038,0.001-0.074,0.005-0.109,0.014c-0.052-0.018-0.108-0.028-0.166-0.028H24.55h-1.241	c-0.178,0-0.335,0.093-0.423,0.234l-0.319-0.264c-0.09-0.074-0.203-0.114-0.318-0.114c-0.02,0-0.04,0.001-0.06,0.004	c-0.136,0.016-0.259,0.088-0.341,0.198l-0.116,0.156c-0.023-0.053-0.055-0.101-0.095-0.144c-0.093-0.098-0.222-0.154-0.357-0.156	l-1.181-0.014c-0.002,0-0.004,0-0.006,0c-0.134,0-0.262,0.054-0.357,0.149c-0.095,0.097-0.147,0.229-0.143,0.365l0.008,0.283	c-0.432-0.388-0.994-0.62-1.615-0.62c-0.857,0-1.617,0.441-2.083,1.117c-0.447-0.676-1.178-1.117-2.001-1.117	c-0.44,0-0.853,0.126-1.211,0.346l0.276-0.936c0.077-0.261-0.069-0.536-0.329-0.618c-0.201-0.064-0.769-0.184-1.479-0.184	c-2.41,0-3.812,1.322-3.847,3.626c-0.016,1.09,0.304,1.976,0.953,2.635c1.007,1.023,2.451,1.133,3.024,1.133	c0.264,0,0.915-0.025,1.267-0.252c0.165-0.107,0.252-0.3,0.223-0.494c-0.002-0.012-0.014-0.092-0.034-0.22	c0.345,0.2,0.738,0.313,1.156,0.313c0.823,0,1.554-0.441,2.001-1.117c0.466,0.676,1.226,1.117,2.083,1.117	c0.68,0,1.288-0.28,1.733-0.74l0.014,0.462c0.008,0.271,0.23,0.485,0.5,0.485c0.003,0,0.005,0,0.008,0l0.93-0.014	c0.178-0.003,0.333-0.098,0.42-0.241c0.063,0.089,0.154,0.156,0.259,0.189c0.049,0.015,0.099,0.023,0.149,0.023	c0.082,0,0.163-0.02,0.236-0.059l0.55-0.294c0.025,0.067,0.065,0.129,0.117,0.18c0.094,0.093,0.22,0.144,0.352,0.144	c0.004,0,0.008,0,0.012,0l1.212-0.029c0.015,0,0.029-0.001,0.043-0.003c0.054,0.02,0.111,0.031,0.17,0.032l2.54,0.029	c0.002,0,0.004,0,0.006,0c0.046,0,0.091-0.006,0.134-0.018c0.025,0.072,0.067,0.139,0.123,0.193	c0.093,0.091,0.219,0.142,0.349,0.142c0.003,0,0.006,0,0.009,0l1.559-0.029c0.15-0.003,0.283-0.071,0.373-0.177l0.048,0.121	c0.05,0.126,0.149,0.227,0.274,0.278c0.061,0.025,0.126,0.038,0.191,0.038c0.068,0,0.136-0.014,0.2-0.042l1.587-0.693	c0.031-0.014,0.061-0.03,0.089-0.05c0.313,0.249,0.731,0.419,1.282,0.438l0.101,0.002c0.414,0,0.982-0.093,1.428-0.514	c0.078,0.16,0.239,0.273,0.428,0.281l1.328,0.058c0.007,0,0.014,0,0.022,0c0.127,0,0.25-0.049,0.343-0.137	c0.047-0.044,0.084-0.097,0.111-0.154c0.092,0.092,0.218,0.147,0.354,0.147h1.27c0.276,0,0.5-0.224,0.5-0.5v-4.445	c0-0.266-0.209-0.486-0.475-0.499l-1.154-0.058c-0.008,0-0.017-0.001-0.025-0.001c-0.124,0-0.244,0.046-0.336,0.13	c-0.083,0.075-0.138,0.176-0.157,0.286l-0.043-0.084c-0.086-0.169-0.258-0.273-0.446-0.273c-0.011,0-0.023,0-0.034,0.001	l-1.235,0.084c-0.09-0.074-0.202-0.114-0.318-0.114c-0.008,0-0.016,0-0.024,0.001l-1.183,0.058c-0.157,0.008-0.294,0.087-0.38,0.205	c-0.087-0.119-0.224-0.198-0.381-0.205l-1.139-0.052C31.651,16.94,30.803,16.407,29.567,16.407L29.567,16.407z M29.668,19.011	v-0.097c0.167,0.007,0.221,0.028,0.237,0.037C29.878,18.962,29.8,18.993,29.668,19.011L29.668,19.011z M11.103,20.859	c-0.333,0-0.583-0.076-0.704-0.213c-0.102-0.117-0.137-0.311-0.102-0.579c0.042-0.321,0.18-0.65,0.889-0.65	c0.204,0,0.392,0.03,0.51,0.054c-0.166,0.36-0.26,0.766-0.26,1.195c0,0.056,0.002,0.113,0.005,0.168	C11.329,20.85,11.213,20.859,11.103,20.859L11.103,20.859z M22.576,20.489l0.21-0.266l-0.008,0.644L22.576,20.489L22.576,20.489z M17.984,20.974c-0.071,0-0.179-0.123-0.179-0.308c0-0.185,0.108-0.308,0.179-0.308s0.179,0.123,0.179,0.308	C18.162,20.851,18.055,20.974,17.984,20.974L17.984,20.974z M13.9,20.974c-0.037,0-0.145-0.106-0.145-0.308	c0-0.202,0.108-0.308,0.145-0.308c0.037,0,0.145,0.106,0.145,0.308C14.045,20.868,13.937,20.974,13.9,20.974L13.9,20.974z"/></svg>