<svg xmlns="http://www.w3.org/2000/svg"  viewBox="0 0 48 48" width="1600px" height="1600px" baseProfile="basic"><path fill="#f9a825" d="M40,43H29c-2.209,0-4-1.791-4-4v-9c0-2.209,1.791-4,4-4h11c2.209,0,4,1.791,4,4v9	C44,41.209,42.209,43,40,43z M29,39h11v-9H29V39z"/><path fill="#f9a825" d="M19,43H8c-2.209,0-4-1.791-4-4v-9c0-2.209,1.791-4,4-4h11c2.209,0,4,1.791,4,4v0H8v9h11v-3h-5	c-1.657,0-3-1.343-3-3v0h12v6C23,41.209,21.209,43,19,43z"/><path fill="#f9a825" d="M18,22H8c-2.209,0-4-1.791-4-4V9c0-2.209,1.791-4,4-4h10c2.209,0,4,1.791,4,4v0H8v9h14v0	C22,20.209,20.209,22,18,22z"/><path fill="#f9a825" d="M40,22H29c-2.209,0-4-1.791-4-4v0h15v-2.5H29c-2.209,0-4-1.791-4-4V9c0-2.209,1.791-4,4-4h11	c2.209,0,4,1.791,4,4v0H29v2.5h11c2.209,0,4,1.791,4,4V18C44,20.209,42.209,22,40,22z"/></svg>