<svg xmlns="http://www.w3.org/2000/svg"  viewBox="0 0 48 48" width="1600px" height="1600px"><path fill="#37474f" d="M39,5H21C10.51,5,2,13.51,2,24s8.51,19,19,19c7.81,0,14.51-4.71,17.43-11.45l0.01-0.01 c1.31-2.54,5.66-12.81,7.17-17.22C45.77,13.84,46,13.06,46,12C46,8.13,42.87,5,39,5z M21,39c-8.28,0-15-6.72-15-15 c0-8.28,6.72-15,15-15s15,6.72,15,15C36,32.28,29.28,39,21,39z"/><path fill="#37474f" d="M30.543,14.458c0.129,0.277,0.286,0.618,0.457,0.986c-0.354,0.069-0.795,0.1-1.194,0.246 c-0.455,0.167-0.872,0.44-1.307,0.662c-0.373,0.19-1.293,0.643-1.293,0.643l-0.641,0.147c-0.068,0.835-0.492,0.993-1.187,0.806 c-0.184-0.049-0.521,0.04-0.621,0.183c-0.667,0.953-1.717,1.037-2.703,1.184c-0.696,0.104-1.02,0.368-1.078,1.077 c-0.028,0.343-0.228,0.69-0.413,0.998c-0.375,0.625-0.186,0.991,0.317,1.499c0.771,0.778,1.395,1.703,2.066,2.577 c0.073,0.095,0.109,0.302,0.056,0.395c-0.38,0.658,0.005,1.107,0.411,1.528c1.445,1.497,1.549,3.45,1.747,5.334 c0.118,1.124,0.255,2.184,0.89,3.151c0.172,0.261,0.329,0.79,0.201,0.931c-0.197,0.216-0.65,0.213-0.987,0.196 c-1.202-0.064-1.978-0.947-2.166-2.113c-0.264-1.634-0.712-3.239-1.085-4.856c-0.02-0.087-0.068-0.176-0.126-0.245 c-0.92-1.09-1.818-2.199-2.776-3.255c-0.557-0.614-0.869-0.523-1.184,0.267c-0.801,2.011-1.6,4.022-2.371,6.045 c-0.259,0.681-0.685,0.995-1.416,0.943c-0.381-0.027-0.783,0-0.685,0.581c0.091,0.543,0.188,1.084-0.575,1.245 c-0.681,0.144-1.337-0.204-1.612-0.882c-0.607-1.495-0.188-2.867,1.295-3.788c0.656-0.407,0.952-0.913,1.137-1.621 c0.402-1.541,0.935-3.05,1.296-4.599c0.15-0.643-0.035-1.357-0.014-2.038c0.02-0.639,0.082-1.28,0.175-1.913 c0.194-1.323,0.429-2.641,0.633-3.963c0.172-1.118,1.033-1.779,1.724-2.526c0.389-0.42,0.61-0.804,0.646-1.374 C18.232,11.755,18.888,11,20,11c1,0,1.936,0.534,2.163,1.596c0.071,0.33-0.105,0.708-0.132,1.067 c-0.017,0.231,0.032,0.468,0.052,0.702c0.214-0.031,0.448-0.018,0.639-0.102c0.784-0.341,1.525-0.707,2.408-0.18 c0.322,0.193,0.807,0.131,1.219,0.153c0.598,0.033,1.141-0.165,1.808,0.157C28.791,14.698,29.688,14.458,30.543,14.458z M23.817,15.945c-0.906-0.433-1.654-0.297-2.067,0.309c-0.068,0.099-0.13,0.315-0.085,0.356c0.099,0.089,0.298,0.174,0.403,0.131 C22.627,16.513,23.17,16.245,23.817,15.945z"/></svg>