<svg xmlns="http://www.w3.org/2000/svg"  viewBox="0 0 48 48" width="1600px" height="1600px"><rect width="3" height="3" x="36" y="23" fill="#cfd8dc"/><polygon fill="#eceff1" points="40 26 36.5 24.5 39 23 33 20.25 33 29.75 40 26"/><polygon fill="#eceff1" points="23 5 34 10 21 17 10 11 23 5"/><polygon fill="#cfd8dc" points="34 39 21 46 21 17 34 10 34 39"/><polygon fill="#cfd8dc" points="40 35.75 21 46 21 36 40 26 40 35.75"/><polygon fill="#cfd8dc" points="40 37.5 29 43.5 29 36.5 40 30.75 40 37.5"/><polygon fill="#eceff1" points="10 40 21 46 21 17 10 11 10 40"/><polygon fill="#eceff1" points="40 30.75 36.5 29.25 25.5 35 25.5 42 29 43.5 29 36.5 40 30.75"/><polygon fill="#f48fb1" points="16 11 16 6 20 8 20 13 16 11"/><polygon fill="#f06292" points="16 6 23 3 27 5 20 8 16 6"/><polygon fill="#ec407a" points="20 8 20 13 27 9.5 27 5 20 8"/><polygon fill="#f48fb1" points="10 29 10 24.451 14 26 14 30.75 10 29"/><polygon fill="#ec407a" points="14 26 14 30.75 17 29 17 24.5 14 26"/><polygon fill="#424242" points="24 22 24 19.5 26.5 18.25 26.5 20.75 24 22"/><polygon fill="#ff8a65" points="8.5 25 8.5 20 12.5 22 12.5 27 8.5 25"/><polygon fill="#ff7043" points="8.5 20 13 18 17 20 12.5 22 8.5 20"/><polygon fill="#e64a19" points="12.5 22 12.5 27 17 24.5 17 20 12.5 22"/></svg>