<svg xmlns="http://www.w3.org/2000/svg"  viewBox="0 0 48 48" width="1600px" height="1600px"><path fill="#c2c8ce" d="M28,15v1.5h-8V15c0-2.21,1.79-4,4-4S28,12.79,28,15z"/><path fill="#b5bcc3" d="M20,16.5h8V21c0,2.21-1.79,4-4,4c-1.1,0-2.1-0.45-2.83-1.17C20.45,23.1,20,22.1,20,21V16.5z"/><path fill="#c2c8ce" d="M18,11.55v5.27H6.34c-0.58-1.62-0.44-3.5,0.54-5.09c1.7-2.75,5.37-3.5,8.17-1.89L18,11.55z"/><path fill="#c2c8ce" d="M41.66,16.82H30v-5.27l2.95-1.71c2.8-1.61,6.47-0.86,8.17,1.89C42.1,13.32,42.24,15.2,41.66,16.82z"/><path fill="#b5bcc3" d="M19.74,25.22h-4.75c-1.38-1.95-3.18-3.6-5.31-4.82l-0.73-0.42c-1.27-0.73-2.16-1.87-2.61-3.16H18V21	C18,22.58,18.61,24.06,19.74,25.22z"/><path fill="#b5bcc3" d="M41.66,16.82c-0.45,1.29-1.34,2.43-2.61,3.16l-0.73,0.42c-2.13,1.22-3.93,2.87-5.31,4.82h-4.75	C29.34,24.14,30,22.65,30,21v-4.18H41.66z"/><path fill="#a9b1b9" d="M29.95,33.61c-0.05,0.49-0.07,1-0.07,1.5l0.01,0.97c0,3.26-2.64,5.92-5.89,5.92s-5.89-2.66-5.89-5.92	l0.01-0.97c0-0.5-0.02-1.01-0.07-1.5c-0.24-3.06-1.32-5.95-3.06-8.39h4.75l0.03,0.03C20.91,26.38,22.41,27,24,27	c1.66,0,3.17-0.68,4.26-1.78h4.75C31.27,27.66,30.19,30.55,29.95,33.61z"/><path fill="#9ca5ae" d="M29.882,35.109l0.01,0.968C29.892,39.344,27.25,42,24,42s-5.892-2.656-5.892-5.924l0.01-0.968	c0-0.503-0.02-1.007-0.069-1.501h11.902C29.902,34.102,29.882,34.605,29.882,35.109z"/></svg>