<svg xmlns="http://www.w3.org/2000/svg"  viewBox="0 0 48 48" width="1600px" height="1600px"><path fill="#fff" d="M33.5,17.3c0,0,2.9-3.2,2.9-7.6c0-4.4-1-5.7-1-5.7l-7.2,8.2L33.5,17.3z"/><path fill="#3e2723" d="M33.5,18.3c-0.3,0-0.5-0.1-0.7-0.3l-5.3-5.1c-0.4-0.4-0.4-1-0.1-1.4l7.2-8.2 c0.2-0.2,0.5-0.4,0.8-0.3c0.3,0,0.6,0.2,0.8,0.4c0.2,0.3,1.1,1.8,1.1,6.3c0,4.8-3,8.2-3.1,8.3C34.1,18.2,33.8,18.3,33.5,18.3 C33.5,18.3,33.5,18.3,33.5,18.3z M29.6,12.1l3.8,3.7c0.8-1.2,2-3.4,2-6.1c0-1.7-0.2-3-0.3-3.8L29.6,12.1z"/><path fill="#fff" d="M20.2,10.6c0,0-2.7-5.2-4.8-7.6c-1.9,3.8-1.9,7.6-1.9,7.6l0.3,2.9l1.1,1.9L20.2,10.6z"/><path fill="#3e2723" d="M15,16.4c0,0-0.1,0-0.1,0c-0.3,0-0.6-0.2-0.7-0.5L13,14c-0.1-0.1-0.1-0.3-0.1-0.4l-0.3-2.9 c0,0,0-0.1,0-0.1c0-0.2,0-4.2,2-8.1C14.7,2.2,15,2,15.3,2c0.3,0,0.7,0.1,0.9,0.4c2.1,2.5,4.8,7.6,4.9,7.8c0.2,0.4,0.1,0.9-0.2,1.2 l-5.2,4.7C15.5,16.3,15.2,16.4,15,16.4z M14.8,13.2l0.4,0.6l3.7-3.4c-0.6-1.2-2-3.6-3.3-5.5c-1.1,2.8-1.1,5.3-1.1,5.6L14.8,13.2z"/><path fill="#f44336" d="M35.4,15.4c1.9,1.3,5.3,3,5.7,5.7c0.2,1.7-1.9,1.9-1.9,1.9c2.1,1.5,4.4,4.4,3.6,6.7 c-0.5,1.4-1.7,1.9-1.7,1.9s2,6.7-1,7.6c-1.1,0.3-2-0.8-2-0.8S34,45,24,45c-7,0-10-3-12-6c-0.6,1.7-2,2-3,1c-0.3-0.3-1-1.5-1-4 c0-1.8,0.1-3.6,0.1-4.5c0,0-1.5,0.6-2.4-0.2C3.1,28.8,8.8,24,8.8,24s-1.4,0.3-1.9-1c-0.8-2.2,3.6-4,3.6-4s-3.4,0.3-3.6-1.7 c-0.3-3.4,11.4-3.8,11.4-3.8c-1.8-1.1-1.9-1.9-1.9-1.9s-0.1-1,1.9-1c3.4,0,6.8,1.7,6.8,1.7s-1.3-2.5,0.8-3c0.9-0.2,1.9,0.3,3,1.6 C31.2,13.7,33.6,14.1,35.4,15.4z"/><path fill="#3e2723" d="M24,46c-6.5,0-9.8-2.5-11.9-5.2c-0.4,0.4-0.8,0.6-1.3,0.7c-0.9,0.2-1.8-0.1-2.5-0.8 C8,40.4,7,39.2,7,36c0-1,0-2.1,0.1-3.3c-0.7,0-1.5-0.2-2.1-0.7c-0.7-0.7-1-1.5-1-2.4c0.1-1.9,1.6-3.8,2.8-5.1 c-0.3-0.2-0.6-0.6-0.8-1.1c-0.6-1.6,0.4-2.9,1.6-3.8c-0.9-0.4-1.6-1-1.7-2.1c-0.1-0.7,0.2-1.4,0.7-1.9c1.6-1.8,6.3-2.6,9.3-2.8 c-0.3-0.4-0.4-0.8-0.4-0.9l0-0.1c0-0.2,0-0.7,0.5-1.2c0.5-0.5,1.3-0.8,2.4-0.8c2,0,4,0.6,5.4,1.1c0-0.3,0.1-0.7,0.2-1 c0.2-0.5,0.7-1.1,1.7-1.3c0.8-0.2,2.3-0.2,4,2c1.3,1.6,2.7,2.3,4.1,3c0.7,0.4,1.5,0.7,2.2,1.3c0.3,0.3,0.8,0.5,1.2,0.8 c1.9,1.2,4.5,2.9,4.9,5.6c0.1,0.7-0.1,1.3-0.5,1.8c-0.2,0.2-0.3,0.4-0.5,0.5c1.8,1.8,3.5,4.4,2.7,6.7c-0.3,0.9-0.9,1.6-1.5,2 c0.5,2,1.4,7.1-1.8,8.1c-0.8,0.3-1.6,0-2.1-0.3C36.7,41.8,32.2,46,24,46z M11.7,36.8l1.1,1.7C14.8,41.3,17.5,44,24,44 c9.3,0,13.1-5.8,13.3-6.1l0.8-1.2l0.9,1.1c0.1,0.1,0.6,0.6,0.9,0.5c1.5-0.5,0.8-4.6,0.3-6.4L39.9,31l0.9-0.3c0,0,0.8-0.4,1.1-1.3 c0.5-1.6-1.3-4.2-3.3-5.6l-2.1-1.5l2.5-0.3c0.3,0,0.8-0.2,1-0.4c0-0.1,0.1-0.1,0.1-0.3c-0.2-1.8-2.3-3.1-4-4.2 c-0.5-0.3-0.9-0.6-1.3-0.9l0,0c-0.6-0.4-1.2-0.7-1.9-1.1c-1.5-0.7-3.1-1.6-4.7-3.5c-0.8-0.9-1.5-1.4-2-1.3 c-0.3,0.1-0.4,0.2-0.4,0.2c-0.2,0.3,0.1,1,0.2,1.4l1.4,2.8l-2.7-1.4c0,0-3.1-1.6-6.3-1.6c-0.3,0-0.5,0-0.7,0.1 c0.2,0.2,0.6,0.6,1.2,1l2.8,1.7l-3.3,0.1c-3.3,0.1-9,0.8-10.3,2.3c-0.2,0.2-0.2,0.3-0.2,0.4c0.1,0.7,1.7,0.8,2.6,0.8l5.9-0.4 l-5.5,2.3c-1.5,0.6-3.4,2-3.1,2.8C8,23.1,8.6,23,8.6,23l3.8-0.7l-2.9,2.5c-1.3,1.1-3.4,3.4-3.4,4.9c0,0.4,0.1,0.7,0.4,0.9 c0.3,0.3,1.2,0.1,1.3,0L9.2,30l-0.1,1.6C9,33.2,9,34.7,9,36c0,2.1,0.5,3.1,0.7,3.3c0.1,0.1,0.4,0.3,0.7,0.3 c0.3-0.1,0.5-0.4,0.7-0.9L11.7,36.8z"/><path fill="#fff" d="M16,26.9c0-2.6,1.2-5.4,3.5-6.8c2.5-1.5,5.5-1.3,8.5-0.6c2.5,1,4.4,3.3,4.9,5.9 c0.5,2.6-0.6,5.5-2.7,7.1c-2,1.4-4.2,1.5-7,1.4c-2.1-0.2-4.4-0.9-5.7-2.6c-0.9-1.1-1.3-2.4-1.4-3.8C16,27.4,16,27.2,16,26.9z"/><path fill="#fff" d="M24.6,35c-0.5,0-1,0-1.5,0c-3-0.3-5.2-1.3-6.5-2.9c-0.9-1.1-1.5-2.6-1.6-4.3c0-0.3,0-0.5,0-0.8l0,0 c0-3.2,1.5-6.1,3.9-7.6c3.1-1.9,6.8-1.3,9.3-0.7l0.2,0.1c2.8,1.2,4.9,3.8,5.5,6.7c0.6,3.1-0.7,6.3-3.1,8.1 C28.9,34.7,26.9,35,24.6,35z M23.9,20c-1.5,0-2.8,0.3-3.9,1c-1.8,1.1-3,3.4-3,5.9v0c0,0.2,0,0.4,0,0.6c0.1,0.9,0.3,2.2,1.2,3.2 c1,1.2,2.7,1.9,5.1,2.2c2.6,0.1,4.6,0.1,6.3-1.2c1.8-1.3,2.8-3.8,2.3-6.1c-0.4-2.2-2.1-4.2-4.2-5.2C26.3,20.2,25,20,23.9,20z"/><path d="M24.5,21c-0.7,0-1.4,0.3-2,0.9c0.3,0.4,0.5,1,0.5,1.6c0,1.4-0.9,2.5-2,2.5c0,2.8,1.6,5,3.5,5s3.5-2.2,3.5-5 S26.4,21,24.5,21z"/><path fill="#fff" d="M20,39c0.4,1.4,1.1,3,2.5,3c1.6,0,2.3-1.8,2.5-3H20z"/><path fill="#3e2723" d="M37,31c0,0-5.6,6.3-12.3,6.9C24.1,38,23.4,38,22.8,38c-5.2,0-7.8-2.1-7.8-2.1 c0.8,2.4,4.2,4.1,8.1,4.1c2.2,0,4.5-0.5,6.6-1.7C35.1,35.3,37,31,37,31z"/></svg>