<svg xmlns="http://www.w3.org/2000/svg"  viewBox="0 0 48 48" width="1600px" height="1600px"><path fill="#be1622" d="M48,12l-2,2v23l-4-3v-8l-2,4l-2-4v5l-4-3V12.992C34,12.444,34.444,12,34.992,12H38l2,3l2-3H48z"/><path fill="#be1622" d="M9.953,11.999L0,11.996L2,14v23l10-8V14.047C12,12.916,11.084,12,9.953,11.999z M9,24l-3,2V16h3V24z"/><path fill="#be1622" d="M21,12h-6c-1.105,0-2,0.895-2,2v14l7,5l3-3V14C23,12.895,22.105,12,21,12z M20,26l-3-2v-8h3V26z"/><path fill="#be1622" d="M31,12h-5c-1.105,0-2,0.895-2,2v16l3,3l6-5V14C33,12.895,32.105,12,31,12z M30,24l-3,2V16h3V24z"/></svg>