<svg xmlns="http://www.w3.org/2000/svg"  viewBox="0 0 48 48" width="1600px" height="1600px"><path fill="#e53935" d="M35.25,31.001C36.283,31.724,37,33,37,34c0,1.25-0.25,2.125-1.125,3c0,0,0.125,0.125,0.75,0.125 c3.5,0,4.375-1.944,4.375-2.625c0-2-2-2.5-2-2.5c0.625-0.015,1.218,0.034,1.806,0.185c1.683,0.431,2.943,1.374,3.729,2.924 c0.306,0.604,0.456,1.206,0.464,1.794c0.016,1.159-0.5,2.346-1.625,3.346C41.525,41.894,38.125,42,38,42 c0.329,0.363,1.25,1.125,2.625,1.125C41.25,43.125,42,43,42,43c-0.036,0.047-0.75,0.875-2.64,1.576 C38.584,44.835,37.798,44.988,37,45c-0.47,0.007-0.943-0.035-1.42-0.132c-1.906-0.386-3.215-1.502-4.036-3.206 C31.27,41.094,31,39.875,31,39.625c-0.618,0.604-0.977,1.337-1,2.125c0.125,1.625,1.013,2.232,1,2.25c-0.144-0.059-3-0.625-3-4.625 c-0.013-0.642,0.003-1.161,0-1.75c-0.005-1.031-0.475-1.89-1.282-2.555c-1.359-1.12-2.723-2.236-4.093-3.343 c-0.935-0.756-1.518-1.686-1.531-2.901c-0.008-0.758-0.367-1.313-0.959-1.76c-0.372-0.281-0.749-0.561-1.086-0.88 c-0.595-0.564-0.706-1.262-0.503-2.047c0.035,0.029,0.064,0.041,0.068,0.059c0.233,0.944,0.953,1.287,1.831,1.429 c0.471,0.076,0.951,0.109,1.416,0.208c0.488,0.105,0.765,0.449,0.877,0.92c0.069,0.291,0.124,0.586,0.192,0.877 c0.131,0.561,0.416,0.795,0.997,0.832c0.382,0.024,0.765,0.043,1.146,0.081c0.597,0.06,1.115,0.299,1.578,0.676 c1.614,1.314,3.236,2.619,4.851,3.931C31.917,33.488,32.625,34,33.375,34c0.875,0,2-0.625,2-1.875 C35.375,31.375,35.25,31.001,35.25,31.001z"/><path fill="#e53935" d="M25.891 36.073c-1.139-.939-2.284-1.872-3.431-2.802-.641 1.039-3.108 4.728-6.589 4.728-1.726 0-3.306-1.013-4.121-2.592-.49-.95-.75-2.052-.75-3.031 0-4.25 2.675-6.575 2.739-6.658-.726-.179-1.273-.103-1.864.29-.598.398-1.679 1.077-1.758 1.119C10 27.125 10 27.125 10 27l.375-2.5C9.799 24.694 8.5 25.375 7 26.875c-.75.75-1.357 1.416-1.357 1.416C5.25 26.875 5.875 24.375 5.997 23.5 6.069 22.99 5.872 23 5.872 23c-.25 0-.997.765-1.372 1.156-1.159 1.206-1.895 2.584-2.31 4.208C2.112 28.672 2.063 29.063 2 29.375 2.024 29.383 2.625 28.5 3.125 28.5c.25 0 .265.383.257.518-.013.209-.084.418-.15.621C2.768 31.074 2.503 32.525 2.492 34c-.005.676.044 1.356.151 2.042.183 1.167.467 2.021.981 3.083.726 1.5 2.033 2.812 2.125 2.875-.063-.214-.188-.505-.209-.67-.042-.319-.107-.647-.072-.962.044-.396.39-.486.678-.206.129.126 1.545 1.465 2.38 2.011 1.893 1.236 3.89 1.82 5.974 1.827 1.083.004 2.189-.148 3.317-.444 1.632-.429 3.072-1.223 4.356-2.295 1.645-1.372 2.912-3.132 3.921-4.989C26.028 36.205 25.969 36.137 25.891 36.073zM31.32 22.083c-1.992 1.314-3.654 3.497-5.105 5.364-.01.013-.016.027-.023.04.451.164.881.4 1.28.725.533.434 1.067.865 1.601 1.298.043-.087.083-.166.118-.239.989-2.037 2.183-4.476 3.696-6.181 1.478-1.666 4.073-2.181 5.999-1.251.24.116.434.167.624.16.194-.007.384-.073.615-.193 1.506-.778 3.133-1.17 4.829-1.159C45.288 20.65 46 20.75 46 20.75c-.625-.625-1.444-1.26-2.156-1.661C42.519 18.344 41.157 18 39.75 18c-2 0-3 .624-3.535.624-.215 0-.32-.058-.394-.156-.065-.085-.04-.276.01-.395C36.125 17.5 36.934 17.045 37 17c-.625 0-2.003.741-2.796 1.355-.533.412-1.062.829-1.599 1.236-.108.082-.238.147-.368.185-.353.103-.533-.071-.429-.414.047-.154.119-.304.199-.444.129-.227.275-.445.425-.683-3.807 2.391-4.459 5.671-4.432 5.641 1.118-1.216 2.382-2.165 3.875-2.875 1.495-.711 3.125-1.125 5-1.125 0 0 .125.101.125.125 0 0-.75 0-1.545.237C33.954 20.583 32.592 21.243 31.32 22.083z"/><path fill="#e53935" d="M16.75,11.25c0,0.5,0.132,0.997,0.275,1.413c0.372,1.086,1.086,1.964,1.899,2.76 c0.802,0.785,1.649,1.525,2.467,2.294c0.825,0.775,1.542,1.63,1.968,2.686c0.241,0.597,0.36,1.216,0.266,1.858 c-0.026,0.179,0.04,0.265,0.199,0.333c0.406,0.173,0.664,0.46,0.686,0.915c0.01,0.215,0.144,0.181,0.273,0.114 c0.716-0.372,1.045-0.935,1.091-0.997c0.082,0.171,0.127,0.383,0.125,0.625c-0.012,1.346-1.205,3.555-2.328,3.995 c0.015-0.098,0.026-0.177,0.04-0.256c0.158-0.888-0.284-1.616-1.153-1.906c-0.587-0.196-1.072-0.2-1.685-0.209 c-0.094-0.001-0.357,0-0.5,0c0.047-0.108,0.393-0.823,0.47-1.101c0.11-0.395-0.034-0.677-0.439-0.766 c-0.439-0.097-0.896-0.158-1.345-0.156c-1.032,0.005-2.055,0.129-3.059,0.372c-0.14,0.034-0.366,0.106-0.503,0.151 c0.875,0,2,0.375,2,0.375s-0.5,1-0.5,1.625c0,0.5,0.25,0.875,0.5,0.875S17.886,26.082,18,26c-0.023,0.136-0.161,0.855-0.18,1.193 C17.791,27.724,18,28,18.625,28c0.125,0,0.25,0,0.375,0c-0.25,0.875-2.132,2.027-3.25,2c-0.074-0.002-0.143-0.009-0.208-0.022 C16,29.75,16.69,28.875,16.69,28.501l-1.492,0.19c0,0,0.509-0.635,0.672-0.954c0.423-0.825,0.47-1.668-0.09-2.456 c-0.473-0.666-1.239-0.951-2.03-1.03c-1.25,0-1.9,0.35-2,0.375c0.569-1.24,1.381-2.005,2.625-2.625c-1-0.5-2-0.625-2-0.625 c1-0.625,2.5-1.125,3.625-1.375c-0.125,0-0.437,0.004-0.5,0c-3.75,0-5.219,1.938-5.25,2c0.605,0.104,1,0.125,1.75,0.375 c0,0-2,0.375-5,2.625c0.02-0.113,0.375-0.875,0.375-1.625c0-2.625-3.324-2.099-3.375-2.125c0.081-0.073,0.75-0.625,2.863-1.645 c0.396-0.214,1.512-0.73,1.512-1.355c0-0.875-1.735-2.15-1.875-2.25c1.375,0,2.147,0.129,3.25,0.375 c-0.588-1.004-0.752-2.05-0.486-3.088c0.426,0.8,1.038,1.428,1.784,1.92c0.686,0.453,1.409,0.852,2.111,1.282 c0.532,0.326,1.084,0.628,1.576,1.005c0.378,0.29,0.677,0.681,1.008,1.028c0.055,0.058,0.099,0.126,0.149,0.189 c0.029-0.014,0.057-0.028,0.086-0.042c-0.079-0.197-0.142-0.402-0.239-0.591c-0.393-0.765-0.974-1.378-1.693-1.852 c-0.295-0.195-0.456-0.426-0.513-0.753c-0.171-0.969-0.175-1.919,0.011-2.85C13.645,12.121,14.25,11,14.25,11v0.125 c0.034,1.325,0.538,2.386,1.375,3.375c0.878,1.037,2.027,1.805,3.017,2.73c1.733,1.645,2.471,2.568,2.608,2.77 c0,0-0.051-0.214-0.082-0.283c-0.476-1.091-1.247-1.97-2.11-2.778c-0.75-0.702-1.512-1.393-2.275-2.082 c-0.276-0.25-0.439-0.547-0.483-0.91C16.125,12.5,16.737,11.259,16.75,11.25z M19,20c0,0,0.08,0.497,0.199,0.743 C19.75,21.875,21,22,21,22s0-0.875-1.25-1.75C19.381,19.992,19,20,19,20z"/><path fill="#e53935" d="M8,12.625C8.25,11.375,9,10,9,10s0.463,1.573,1.25,2.625c0.389,0.52,0.909,1.098,1.514,1.497 c0.114,0.075,0.229,0.149,0.346,0.222c-0.022-0.674,0.031-1.334,0.159-1.974c0.109-0.545,0.492-1.328,0.73-1.784V10.5 C13,8.567,14.343,7,16,7s3,1.567,3,3.5c0,1.377-0.111,2.059-0.271,2.5c-0.014,0.037-0.028,0.071-0.042,0.106 c0.131,0.212,0.287,0.426,0.465,0.645c0.011,0.013,0.02,0.026,0.031,0.039c0.187,0.226,0.4,0.459,0.65,0.704 c0.471,0.461,0.976,0.922,1.463,1.367c0.33,0.301,0.66,0.602,0.985,0.908c0.079,0.074,0.142,0.147,0.217,0.221 C24.042,15.314,25,13.142,25,11c0-5-4.029-8-9-8s-9,3.125-9,8c0,1.216,0.318,2.439,0.865,3.58C7.829,14.041,7.892,13.167,8,12.625z"/></svg>