<svg xmlns="http://www.w3.org/2000/svg"  viewBox="0 0 48 48" width="1600px" height="1600px" clip-rule="evenodd"><path fill="#0098e7" fill-rule="evenodd" d="M16.677,23.713c0,0,2.716,5.801,3.226,6.057	c0.51,0.256,3.986,0.31,4.571,0.256c0.585-0.054,3.797-3.346,3.955-3.861c0.158-0.515,0.198-3.38-0.158-4.635	c-0.357-1.255-2.301-3.734-2.932-3.823c-0.631-0.09-4.164-0.397-4.74-0.09s-3.335,3.073-3.501,3.913	C16.931,22.369,16.677,23.713,16.677,23.713z" clip-rule="evenodd"/><path fill="#ffa700" fill-rule="evenodd" d="M35.439,21.061c0.397,1.032,1.476,1.772,2.48,2.249	c0.701,0.333,1.716,0.575,2.601,0.751c1.103,0.219,4.412,0.858,4.23,3.253c-0.064,0.841-1.029,1.513-1.748,1.792	c-1.202,0.468-2.815,0.322-3.93,0.138c-1.045-0.172-1.978-0.656-2.758-1.241c-0.551-0.414-1.125-0.965-1.321-1.655	c-0.196-0.689-0.265-1.172-0.265-1.172s-0.448,1.31-1.034,2.413c-0.514,0.967-2.137,2.206-2.137,2.206s1.386-0.522,2.137-0.689	c0.621-0.138,1.586-0.069,2.275,0.207c0.389,0.156,2.042,0.74,3.103,0.945c1.171,0.227,2.963,0.502,5.169,0.007	c0.908-0.204,1.838-0.773,2.413-1.403c0.575-0.629,1.062-1.595,0.965-2.376c-0.138-1.107-0.965-1.792-1.723-2.206	c-1.074-0.586-3.309-1.034-4.575-1.448c-0.918-0.3-2.022-0.909-2.441-1.559c-0.774-1.199-0.349-2.297,0.536-2.922	c1.122-0.793,2.451-0.817,3.378-0.552c0.995,0.285,1.835,1.264,2.137,1.792c0.276,0.483-0.048,1.38-0.048,1.38L48,18.317	c0,0-1.551,0.035-2.18-0.172c-0.565-0.186-1.382-0.732-2.266-1.059c-1.517-0.561-3.551-0.425-5.851,0.576	c-0.248,0.108-0.497,0.227-0.735,0.358c-0.234,0.088-1.541,0.565-2.239,0.469c-0.919-0.126-2.645-1.143-4.241-1.914	c-1.344-0.649-4.635-1.57-4.635-1.57s3.739,1.459,4.635,2.08c1.17,0.81,2.517,1.748,3.413,3.403c0.514,0.95,0.896,2.758,0.896,2.758	s0.046-1.39,0.138-1.792c0.04-0.175,0.069-0.345,0.347-0.414C35.324,21.029,35.385,21.043,35.439,21.061z" clip-rule="evenodd"/><path fill="#ffa700" fill-rule="evenodd" d="M22.685,17.662c2.68,0,4.856,2.744,4.856,6.125	s-2.176,6.125-4.856,6.125c-2.68,0-4.856-2.745-4.856-6.125S20.005,17.662,22.685,17.662z M22.716,16.787	c4.29,0,7.772,3.131,7.772,6.987s-3.483,6.987-7.772,6.987s-7.772-3.131-7.772-6.987S18.426,16.787,22.716,16.787z" clip-rule="evenodd"/><path fill="#ffa700" fill-rule="evenodd" d="M5.392,23.522h4.132c0.482,0,0.835,0.148,1.145,0.517	c0.197,0.235,0.517,0.862,0.517,0.862c-0.265-1.241-0.172-2.172,0.138-3.137c0,0-0.31,0.237-0.561,0.429	c-0.347,0.266-0.818,0.487-1.162,0.487H5.392v-4.56h5.529c1.132,0,1.541,1.623,1.541,1.623c0.801-1.267,2.409-2.491,3.943-3.186	l-3.185,0.415H3.872C2.676,16.45,0.924,15.788,0,15.864c0.818,0.689,2.19,2.143,2.19,2.816v9.791c0,0.618-1.033,2.229-2,2.844	c0,0,1.952-0.998,3.681-1.059c1.957-0.069,5.212-0.185,5.212-0.185s1.474-0.001,2.969,0.345c1.487,0.344,3.014,0.949,3.925,1.232	c3.792,1.181,7.583,0.79,7.583,0.79s-3.792-0.047-7.583-1.678c-3.26-1.403-4.149-3.905-4.149-3.905s-0.223,1.163-0.641,1.581	c-0.418,0.418-0.986,0.653-1.577,0.653H5.392V23.522z" clip-rule="evenodd"/><circle cx="22.828" cy="23.846" r="1.545" fill="#dff4ff" fill-rule="evenodd" clip-rule="evenodd"/><path fill="#dff4ff" fill-rule="evenodd" d="M24.259,20.496c0,0,2.319,3.287-0.942,4.826	c-0.205-0.544-0.517-1.371-0.517-1.371S24.597,23.465,24.259,20.496z" clip-rule="evenodd"/><path fill="#dff4ff" fill-rule="evenodd" d="M21.398,27.195c0,0-2.318-3.287,0.942-4.826	c0.205,0.544,0.517,1.371,0.517,1.371S21.218,24.104,21.398,27.195z" clip-rule="evenodd"/></svg>