<svg xmlns="http://www.w3.org/2000/svg"  viewBox="0 0 48 48" width="1600px" height="1600px" baseProfile="basic"><path fill="#ffe082" d="M24,17c-1.37,0-2.68,0.28-3.87,0.78l-0.051,1.273l0.811,0.577C21.85,19.22,22.9,19,24,19	c4.41,0,8,3.59,8,8s-3.59,8-8,8c-2.88,0-5.4-1.53-6.82-3.82l-1.49,1.38C17.49,35.23,20.54,37,24,37c5.51,0,10-4.49,10-10	S29.51,17,24,17z"/><path fill="#ffca28" d="M27.36,22.57c-2.06,0.29-3.98,1.49-5.09,3.43c-0.08,0.14-0.15,0.27-0.22,0.41l-1.024-0.252	L20.43,25.2c0.03-0.07,0.07-0.13,0.11-0.2c1.35-2.35,3.61-3.86,6.09-4.33l0.981,0.988L27.36,22.57z"/><path fill="#ffca28" d="M19.67,38.5c-4.963,0-9-4.038-9-9h2c0,3.86,3.141,7,7,7s7-3.14,7-7h2	C28.67,34.462,24.633,38.5,19.67,38.5z"/><rect width="2" height="39" x="23" y="7" fill="#ffb300"/><path fill="#ffca28" d="M24,47c-9.882,0-17.32-5.971-17.632-6.225l1.263-1.551C7.702,39.282,14.849,45,24,45	c9.178,0,16.297-5.717,16.368-5.775l1.264,1.55C41.32,41.029,33.882,47,24,47z"/><path fill="#ffca28" d="M28.67,29.5h-2c0-3.86-3.141-7-7-7s-7,3.14-7,7l-0.975,0.447L10.67,29.5c0-4.962,4.037-9,9-9	S28.67,24.538,28.67,29.5z"/><path fill="#ffca28" d="M24,31c-4.963,0-9-4.038-9-9s4.037-9,9-9s9,4.038,9,9S28.963,31,24,31z M24,15c-3.859,0-7,3.14-7,7	s3.141,7,7,7s7-3.14,7-7S27.859,15,24,15z"/><path fill="#ffca28" d="M32.56,35.07c-2.18,1.65-5.22,1.94-7.73,0.49c-1.62-0.93-2.78-2.44-3.26-4.25	c-0.45-1.65-0.28-3.38,0.48-4.9l-1.62-1.21c-1.12,2.04-1.4,4.38-0.79,6.63c0.62,2.32,2.11,4.26,4.19,5.46	c1.41,0.82,2.96,1.21,4.48,1.21c1.79,0,3.55-0.53,5.04-1.54L32.56,35.07z"/><path fill="#ffca28" d="M24,7c-5.064,0-9.074-0.988-9.242-1.03l0.484-1.94C15.281,4.04,19.193,5,24,5s8.719-0.96,8.758-0.97	l0.484,1.94C33.074,6.012,29.064,7,24,7z"/><polygon fill="#ffb300" points="22,7 23,8 24.963,8 26,7 24.5,2 23.5,2"/><path fill="#ffe082" d="M16,27c0,1.53,0.44,2.96,1.18,4.18l-0.417,1.041L15.69,32.56C14.62,30.97,14,29.06,14,27	c0-4.14,2.53-7.7,6.13-9.22l0.76,1.85C18.02,20.85,16,23.69,16,27z"/><path fill="#ffca28" d="M36.12,34c-0.71,1.23-1.66,2.22-2.77,2.96l-0.655-0.744L32.56,35.07c0.72-0.54,1.35-1.24,1.83-2.07	c1.93-3.34,0.78-7.63-2.56-9.56c-1.1-0.64-2.3-0.94-3.49-0.94c-0.33,0-0.66,0.02-0.98,0.07l-0.73-1.9c2.05-0.4,4.25-0.09,6.2,1.04	C37.13,24.19,38.61,29.7,36.12,34z"/></svg>