<svg xmlns="http://www.w3.org/2000/svg"  viewBox="0 0 48 48" width="1600px" height="1600px"><path fill="#212121" d="M169.721,1797.101l-38.568-8.953c-10.726-0.801-12.968-1.603-16.97-5.45 c-3.042-2.886-5.123-4.008-5.764-2.886c-2.081,3.367-2.813,1.148-1.052-2.219c1.441-2.725-0.549-4.033-4.872-10.927 c-2.722-4.649-7.524-11.382-10.726-15.23c-4.803-5.771-6.404-6.733-11.848-6.733c-4.002,0-9.445-1.764-15.369-4.97 c-10.566-5.931-52.453-28.968-54.709-33.936c-0.403-0.887-0.044-6.623-0.044-7.745c0-1.764,24.495-30.781,26.576-31.422 c2.241-0.801,15.69,12.505,37.142,36.392c8.965,10.1,21.613,24.208,28.017,31.422c6.244,7.054,14.249,16.192,17.451,20.2 c3.362,4.008,13.288,12.184,22.093,18.276c9.446,6.252,15.062,11.631,16.195,11.855 C159.659,1785.245,162.036,1796.139,169.721,1797.101z" transform="matrix(.1 0 0 -.1 0 209)"/><path fill="#ffb64d" d="M167.655,1795.327l-36.502,0.481c-10.726-0.801-12.968-1.603-16.97-5.45 c-3.042-2.886-5.123-4.008-5.764-2.886c-2.081,3.367-4.323,1.924-2.562-1.443c1.441-2.725,0.961-4.81-3.362-11.703 c-2.722-4.649-7.524-11.382-10.726-15.23c-4.803-5.771-6.404-6.733-11.848-6.733c-4.002,0-9.445-1.764-15.369-4.97 c-10.566-5.931-29.297-17.795-33.46-21.322c-10.086-8.657-21.293-19.238-21.293-20.359c0-1.764,24.495-30.781,26.576-31.422 c2.241-0.801,15.69,12.505,37.142,36.392c8.965,10.1,21.613,24.208,28.017,31.422c6.244,7.054,14.249,16.192,17.451,20.2 c3.362,4.008,13.288,12.184,22.093,18.276c9.446,6.252,17.515,12.89,16.554,13.53 C156.672,1794.75,159.97,1794.365,167.655,1795.327z" transform="matrix(.1 0 0 -.1 0 209)"/><path fill="#212121" d="M304.852,1796.88l38.568-8.953c10.726-0.801,12.968-1.603,16.97-5.45 c3.042-2.886,5.123-4.008,5.764-2.886c2.081,3.367,2.813,1.147,1.052-2.219c-1.441-2.725,0.549-4.033,4.872-10.927 c2.722-4.649,7.524-11.382,10.726-15.23c4.803-5.771,6.404-6.733,11.848-6.733c4.002,0,9.445-1.764,15.369-4.97 c10.566-5.931,52.453-28.968,54.709-33.936c0.403-0.887,0.044-6.623,0.044-7.745c0-1.764-24.495-30.781-26.576-31.422 c-2.241-0.801-15.69,12.505-37.142,36.392c-8.965,10.1-21.613,24.208-28.017,31.422c-6.244,7.054-14.249,16.192-17.451,20.2 c-3.362,4.008-13.288,12.184-22.094,18.276c-9.446,6.252-15.062,11.631-16.195,11.855 C314.914,1785.024,312.537,1795.918,304.852,1796.88z" transform="matrix(.1 0 0 -.1 0 209)"/><path fill="#ffb64d" d="M306.918,1795.106l36.502,0.481c10.726-0.801,12.968-1.603,16.97-5.45 c3.042-2.886,5.123-4.008,5.764-2.886c2.081,3.367,4.323,1.924,2.562-1.443c-1.441-2.725-0.961-4.81,3.362-11.703 c2.722-4.649,7.524-11.382,10.726-15.23c4.803-5.771,6.404-6.733,11.848-6.733c4.002,0,9.445-1.764,15.369-4.97 c10.566-5.931,29.297-17.795,33.46-21.322c10.086-8.657,21.293-19.238,21.293-20.359c0-1.764-24.495-30.781-26.576-31.422 c-2.241-0.801-15.69,12.505-37.142,36.392c-8.965,10.1-21.613,24.208-28.017,31.422c-6.244,7.054-14.249,16.192-17.451,20.2 c-3.362,4.008-13.288,12.184-22.094,18.276c-9.446,6.252-17.515,12.89-16.554,13.531 C317.901,1794.53,314.603,1794.144,306.918,1795.106z" transform="matrix(.1 0 0 -.1 0 209)"/><polygon fill="#212121" points="34.633,37.746 23.986,30.515 12.42,37.623 12.419,36.755 15.742,29.872 4,29.872 3,30.872 2,28.872 1.983,28.006 17.258,28.001 17.258,28.872 14.58,35.121 24.014,29.324 32.367,34.998 29.742,28.872 29.747,28.003 46.004,27.996 46,28.872 44,30.872 43,29.872 31.258,29.872 34.621,36.866"/><polygon fill="#d50000" points="34.633,37.204 23.986,29.972 12.42,37.081 12.432,36.746 15.742,29.33 4,29.33 3,30.33 2,28.33 1.983,28.006 17.258,27.999 17.258,28.33 14.58,34.579 24.014,28.781 32.367,34.456 29.742,28.33 29.753,28.015 45.999,28.001 46,28.33 44,30.33 43,29.33 31.258,29.33 34.619,36.87"/><path fill="#212121" d="M46.974,6.717c-0.413,0.127-1.911,1.07-2.307,1.387c-0.133,0.116-8.438,4.526-8.836,4.857	c-0.249,0.232-0.282,0.216-0.282-0.05c0-0.182-0.083-0.249-0.249-0.182c-0.133,0.05-0.348-0.066-0.481-0.265	c-0.298-0.414-0.542-0.267-0.443,0.28c0.083,0.431-3.95,2.571-4.961,3.168c-0.232,0.133-0.63,0.332-0.879,0.431	c-0.282,0.099-0.431,0.265-0.381,0.398c0.05,0.133-0.083,0.232-0.365,0.282c-0.249,0.033-0.033,0.083,0.464,0.083	c0.497,0.017,1.21-0.066,1.575-0.182c0.696-0.216,4.177-2.089,4.874-2.636c0.229-0.175,0.273-0.25,0.275-0.291	c0.003-0.065,0.014-0.209-0.008-0.186c-0.1,0.107-0.514,0.406-0.748,0.56c-0.779,0.53-1.16,0.647-1.16,0.398	c0-0.332,2.221-1.608,2.288-1.343c0.033,0.133,0.116,0.232,0.199,0.232c0.381,0,3.15-1.575,7.244-4.128	c1.111-0.696,2.437-1.492,2.951-1.774c0.514-0.282,1.044-0.63,1.21-0.796C47.008,6.903,47.032,6.699,46.974,6.717z"/><path fill="#ffb64d" d="M44.666,7.906c-0.133,0.116-8.438,4.526-8.836,4.857c-0.249,0.232-0.282,0.216-0.282-0.05	c0-0.182-0.083-0.249-0.249-0.182c-0.133,0.05-0.348-0.066-0.481-0.265c-0.298-0.414-0.63-0.249-0.53,0.298	c0.083,0.431-3.862,2.553-4.874,3.15c-0.232,0.133-0.63,0.332-0.879,0.431c-0.282,0.099-0.431,0.265-0.381,0.398	c0.05,0.133-0.083,0.232-0.365,0.282c-0.249,0.033-0.033,0.083,0.464,0.083c0.497,0.017,1.21-0.066,1.575-0.182	c0.696-0.216,4.177-2.089,4.874-2.636c0.564-0.431,0.199-0.365-0.481,0.083c-0.779,0.53-1.16,0.647-1.16,0.398	c0-0.332,2.221-1.608,2.288-1.343c0.033,0.133,0.116,0.232,0.199,0.232c0.381,0,3.15-1.575,7.244-4.128	c1.111-0.696,2.437-1.492,2.951-1.774c0.514-0.282,1.044-0.63,1.21-0.796C47.219,6.48,45.164,7.508,44.666,7.906z"/><path fill="#212121" d="M1.219,6.96c0.166,0.166,0.696,0.514,1.21,0.796c0.514,0.282,1.84,1.078,2.951,1.774	c4.095,2.553,6.863,4.128,7.244,4.128c0.083,0,0.166-0.099,0.199-0.232c0.066-0.265,2.288,1.011,2.288,1.343	c0,0.249-0.381,0.133-1.16-0.398c-0.234-0.154-0.648-0.453-0.748-0.56c-0.021-0.023-0.011,0.122-0.008,0.186	c0.002,0.041,0.046,0.116,0.275,0.291c0.696,0.547,4.177,2.42,4.874,2.636c0.365,0.116,1.078,0.199,1.575,0.182	c0.497,0,0.713-0.05,0.464-0.083c-0.282-0.05-0.414-0.149-0.365-0.282c0.05-0.133-0.099-0.298-0.381-0.398	c-0.249-0.099-0.647-0.298-0.879-0.431c-1.011-0.597-5.044-2.737-4.961-3.168c0.099-0.547-0.144-0.694-0.443-0.28	c-0.133,0.199-0.348,0.315-0.481,0.265c-0.166-0.066-0.249,0-0.249,0.182c0,0.265-0.033,0.282-0.282,0.05	C11.945,12.629,3.64,8.22,3.507,8.104C3.11,7.786,1.612,6.844,1.199,6.717C1.141,6.699,1.166,6.903,1.219,6.96z"/><polygon fill="#212121" points="2.726,16.992 1.997,17.003 1.996,17.638 2.726,17.638"/><polygon fill="#212121" points="46,17.641 27.193,17.641 24,11.37 20.807,17.641 2,17.641 3,15.641 3,16.641 20.193,16.641 24,9.167 27.807,16.641 45,16.641 45,15.641 46,16.997"/><polygon fill="#d50000" points="46,17.338 27.193,17.338 24,11.067 20.807,17.338 2,17.338 2.002,17 3,15.338 3,16.338 20.193,16.338 24,8.864 27.807,16.338 45,16.338 45,15.338 46.004,17.003"/><rect width=".496" height=".384" x="40.543" y="19.328" fill="#212121"/><rect width=".27" height=".156" x="40.543" y="19.334" fill="#d50000"/><rect width=".41" height=".378" x="34.46" y="19.328" fill="#212121"/><rect width=".27" height=".167" x="34.458" y="19.337" fill="#d50000"/><rect width=".299" height=".377" x="7.712" y="26.059" fill="#212121"/><rect width=".299" height=".381" x="9.502" y="26.078" fill="#212121"/><polygon fill="#212121" points="22.775,19.283 20.21,19.346 20.21,19.721 22.775,19.664"/><polygon fill="#d50000" points="22.772,19.283 20.21,19.349 20.21,19.52 22.772,19.445"/><polygon fill="#212121" points="17.309,19.359 14.764,19.33 14.764,19.709 17.308,19.741"/><polygon fill="#d50000" points="17.309,19.544 14.766,19.507 14.764,19.332 17.309,19.371"/><polygon fill="#212121" points="13.98,19.4 11.884,19.358 11.884,19.736 13.977,19.793"/><rect width=".568" height=".378" x="40.773" y="26.067" fill="#212121"/><rect width=".245" height=".171" x="40.773" y="26.066" fill="#d50000"/><path fill="#212121" d="M405.429,1892.905c0-0.641,1.601-1.924,3.682-2.725c3.362-1.603,3.522-2.405,4.002-28.857 c0.16-14.909,0-28.857-0.48-30.62c-0.32-1.924-2.401-4.008-4.323-4.809c-2.401-0.802,2.882-1.443,15.369-1.763 c16.81-0.481,19.692-0.16,26.096,2.886c10.566,5.13,15.529,13.466,16.17,28.055c0.8,13.146-1.281,21.001-7.364,28.215 c-7.204,8.497-14.729,10.901-35.061,10.901C413.593,1894.188,405.429,1893.707,405.429,1892.905z M445.132,1885.37 c13.288-11.222,13.928-40.079,1.121-52.102c-4.483-4.328-14.249-6.733-19.372-4.649l-3.842,1.443v29.658v29.658h8.645 C438.569,1889.378,441.29,1888.577,445.132,1885.37z" transform="matrix(.1 0 0 -.1 0 209)"/><path fill="#212121" d="M344.592,1892.905c0-0.641,1.601-1.924,3.682-2.725c3.362-1.603,3.522-2.405,4.002-28.857 c0.16-14.909,0-28.857-0.48-30.62c-0.32-1.924-5.214-1.293-7.135-1.774c-0.195-0.18,0.138-3.393,0.001-3.717 c-0.441-1.046,7.783-1.478,27.947-1.722l27.216-0.16l0.48,8.978c0.32,6.894,0,8.978-1.761,8.978c-1.281,0-2.882-1.763-3.362-4.008 c-1.761-6.733-7.204-8.978-20.332-8.497l-11.847,0.481l-0.48,14.108l-0.48,13.947h10.566c7.845,0,10.726-0.641,11.367-2.405 c1.921-4.97,3.842-2.084,3.842,5.611c0,8.657-1.281,9.939-4.483,4.809c-1.601-2.565-3.682-3.206-11.527-3.206h-9.606v13.627v13.627 h10.086c12.327,0,17.451-2.405,19.372-9.298c2.241-7.855,4.963-5.29,5.443,4.97l0.453,12.905l-26.549-3.767 C356.439,1894.188,344.592,1893.707,344.592,1892.905z" transform="matrix(.1 0 0 -.1 0 209)"/><path fill="#212121" d="M202.106,1892.745c0-0.802,1.441-1.764,3.202-2.244c3.042-0.802,3.202-2.245,3.202-31.582 c0-29.338-0.16-30.78-3.202-31.582c-0.957-0.255-3.118,2.565-3.385,2.031c-0.015-0.03,0.067-3.41,0.008-3.698 c-0.236-1.167,4.63-2.02,12.983-2.02c7.044,0,12.808,0.321,12.808,0.802c0,0.297-0.012,3.697-0.012,3.757 c0,0.732-3.134-1.659-3.991-1.352l-4.002,1.603v30.46v30.46l4.002,1.603c2.241,0.802,4.002,1.924,4.002,2.405 s-5.763,0.802-12.808,0.802C207.87,1894.188,202.106,1893.546,202.106,1892.745z" transform="matrix(.1 0 0 -.1 0 209)"/><path fill="#212121" d="M147.673,1892.905c0-0.641,1.601-1.924,3.682-2.725c3.362-1.603,3.522-2.244,4.002-30.46 l0.48-28.857l-8.915-3.407l-0.051-3.808h24.495h24.335v8.817c0,6.733-0.48,8.817-2.401,8.817c-1.281,0-2.401-1.443-2.401-3.206 s-1.441-4.649-3.202-6.413c-2.722-2.725-4.963-3.206-12.488-2.886l-9.125,0.481v29.658c0,29.177,0,29.658,3.682,31.261 c6.404,2.886,3.682,4.008-9.286,4.008C153.437,1894.188,147.673,1893.707,147.673,1892.905z" transform="matrix(.1 0 0 -.1 0 209)"/><path fill="#212121" d="M250.455,1894.188c-6.884-1.603-12.648-7.054-13.928-13.146c-1.921-8.497,1.761-13.466,16.65-22.925 c18.251-11.382,22.093-19.077,13.608-27.574c-3.522-3.527-5.123-4.008-11.527-3.206c-8.645,0.962-12.648,4.97-14.089,14.108 c-0.8,4.809-1.761,6.252-4.163,6.252c-2.722,0-3.042-0.962-2.562-9.138c0.48-9.298,0.48-9.298,7.685-12.825 c12.808-6.573,29.938-3.848,36.342,5.771c7.525,11.222,3.202,22.284-12.808,32.063c-19.212,12.024-21.453,14.909-16.33,22.124 c2.722,3.848,9.446,5.611,14.729,3.527c1.921-0.641,4.963-4.168,6.884-7.855c1.761-3.527,3.682-6.413,4.002-6.413 c0.48,0,0.8,3.206,0.8,7.214c0,5.611-0.8,7.535-3.522,9.459C267.425,1894.669,257.019,1895.791,250.455,1894.188z" transform="matrix(.1 0 0 -.1 0 209)"/><path fill="#212121" d="M14.793,1892.905c0-0.641,1.601-1.924,3.682-2.725c3.522-1.603,3.522-2.244,4.002-31.742 l0.32-29.979l-7.965-0.176c-0.158-0.383-0.04-3.351-0.04-3.832s12.648-0.802,28.017-0.802h28.017v8.817 c0,6.413-0.64,8.817-2.241,8.817c-1.281,0-2.722-1.763-3.202-4.008c-1.761-6.733-7.204-8.978-20.332-8.497l-11.847,0.481 l-0.48,14.108l-0.48,13.947H42.81c7.845,0,10.726-0.641,11.367-2.405c0.64-1.282,2.081-2.405,3.362-2.405 c2.882,0,2.241,14.589-0.64,15.711c-1.121,0.321-2.081-0.481-2.081-1.924c0-3.046-5.283-4.489-14.569-3.848l-7.044,0.481 l-0.48,13.306l-0.48,13.146H42.33c12.488,0,17.611-2.405,19.692-9.298c2.241-7.695,4.803-5.29,5.283,4.97l0.447,12.89 l-26.543-3.752c-12.146,0-23.31,3.809-26.228,2.679C14.239,1896.58,14.793,1893.038,14.793,1892.905z" transform="matrix(.1 0 0 -.1 0 209)"/><path fill="#212121" d="M77.231,1893.065c0.095-0.796,1.121-2.725,2.401-4.328c3.522-4.649,3.522-59.958,0-61.24 c-0.282-0.108-0.54-0.215-0.774-0.322c-0.145-0.066-0.281-0.132-0.408-0.197c-3.599-1.85,0.242-3.329,9.187-3.329 c10.887,0,13.928,2.084,5.603,3.848l-4.803,0.802v22.123c0,18.436,0.32,21.642,2.081,19.719 c1.281-1.283,11.047-12.665,21.773-25.33c10.726-12.505,20.332-22.444,21.133-21.963c0.8,0.641,1.441,15.23,1.441,33.826 c0,27.734,0.32,33.025,2.401,33.666c5.443,2.084,1.761,3.848-8.005,3.848c-5.924,0-10.406-0.641-10.406-1.603 c0-0.802,1.281-1.603,3.042-1.603c5.763,0,6.724-3.527,6.244-25.811l-0.48-21.482l-20.652,25.33 c-17.931,21.803-25.219,28.881-29.027,28.375C76.284,1897.168,77.156,1893.695,77.231,1893.065z" transform="matrix(.1 0 0 -.1 0 209)"/><path fill="#212121" d="M288.558,1884.569c0-10.26,2.241-12.825,4.002-4.809c1.441,6.733,4.963,9.619,11.367,9.619h5.443 v-29.177c0-16.192-0.64-30.139-1.281-31.101c-0.64-0.962-3.976,0.51-5.737-0.291c0-0.045,0.002-3.542-0.024-3.805 c-0.047-0.479,1.501-0.723,5.121-1.034c3.682-0.321,9.766-0.321,13.608,0c3.871,0.369,5.4,0.508,5.386,0.959 c-0.015,0.47,0.015,2.873,0,2.888l-7.467,0.641v30.46v30.46h5.443c6.404,0,9.926-2.886,11.367-9.619 c1.761-8.016,4.002-5.451,4.002,4.809v9.619h-25.615h-25.615V1884.569z" transform="matrix(.1 0 0 -.1 0 209)"/><path fill="#d50000" d="M40.543,19.502c0,0.064,0.16,0.192,0.368,0.273c0.336,0.16,0.352,0.24,0.4,2.886	c0.016,1.491,0,2.886-0.048,3.062c-0.032,0.192-0.24,0.401-0.432,0.481c-0.24,0.08,0.288,0.144,1.537,0.176	c1.681,0.048,1.969,0.016,2.61-0.289c1.057-0.513,1.553-1.347,1.617-2.806c0.08-1.315-0.128-2.1-0.736-2.822	c-0.72-0.85-1.473-1.09-3.506-1.09C41.359,19.374,40.543,19.422,40.543,19.502z M44.513,20.256c1.329,1.122,1.393,4.008,0.112,5.21	c-0.448,0.433-1.425,0.673-1.937,0.465l-0.384-0.144v-2.966v-2.966h0.865C43.857,19.855,44.129,19.935,44.513,20.256z"/><path fill="#d50000" d="M34.459,19.502c0,0.064,0.16,0.192,0.368,0.273c0.336,0.16,0.352,0.24,0.4,2.886	c0.016,1.491,0,2.886-0.048,3.062c-0.032,0.192-0.518,0.328-0.711,0.376c-0.012,0.018-0.006,0.143-0.004,0.177	c0.006,0.105,0.802,0.145,2.796,0.169l2.733,0.019l0.045-0.897c0.032-0.689-0.007-0.902-0.184-0.902	c-0.128,0-0.288,0.176-0.336,0.401c-0.176,0.673-0.72,0.898-2.033,0.85L36.3,25.867l-0.048-1.411l-0.048-1.395h1.057	c0.784,0,1.073,0.064,1.137,0.24c0.192,0.497,0.384,0.208,0.384-0.561c0-0.866-0.128-0.994-0.448-0.481	c-0.16,0.257-0.368,0.321-1.153,0.321H36.22v-1.363v-1.363h1.009c1.233,0,1.745,0.24,1.937,0.93	c0.224,0.786,0.496,0.529,0.544-0.497l0.045-1.08l-2.655,0.166C35.644,19.374,34.459,19.422,34.459,19.502z"/><path fill="#d50000" d="M20.211,19.518c0,0.08,0.144,0.176,0.32,0.224c0.304,0.08,0.32,0.224,0.32,3.158	s-0.016,3.078-0.32,3.158c-0.128,0.034-0.31-0.054-0.339,0.003c-0.001,0.002,0.004,0.143,0.001,0.165	c-0.021,0.116,0.466,0.201,1.298,0.201c0.704,0,1.281-0.032,1.281-0.08c0-0.025,0-0.173-0.001-0.174	c-0.059-0.059-0.291-0.028-0.399-0.066l-0.4-0.16v-3.046v-3.046l0.4-0.16c0.224-0.08,0.4-0.192,0.4-0.24s-0.576-0.08-1.281-0.08	S20.211,19.438,20.211,19.518z"/><path fill="#d50000" d="M14.767,19.502c0,0.064,0.16,0.192,0.368,0.273c0.336,0.16,0.352,0.224,0.4,3.046l0.048,2.886	l-0.891,0.548l-0.005,0.174h2.449h2.433v-0.882c0-0.673-0.048-0.882-0.24-0.882c-0.128,0-0.24,0.144-0.24,0.321	c0,0.176-0.144,0.465-0.32,0.641c-0.272,0.273-0.496,0.321-1.249,0.289l-0.913-0.048v-2.966c0-2.918,0-2.966,0.368-3.126	c0.64-0.289,0.368-0.401-0.929-0.401C15.344,19.374,14.767,19.422,14.767,19.502z"/><path fill="#d50000" d="M25.046,19.374c-0.688,0.16-1.265,0.705-1.393,1.315c-0.192,0.85,0.176,1.347,1.665,2.292	c1.825,1.138,2.209,1.908,1.361,2.757c-0.352,0.353-0.512,0.401-1.153,0.321c-0.865-0.096-1.265-0.497-1.409-1.411	c-0.08-0.481-0.176-0.625-0.416-0.625c-0.272,0-0.304,0.096-0.256,0.914c0.048,0.93,0.048,0.93,0.768,1.283	c1.281,0.657,2.994,0.385,3.634-0.577c0.752-1.122,0.32-2.228-1.281-3.206c-1.921-1.202-2.145-1.491-1.633-2.212	c0.272-0.385,0.945-0.561,1.473-0.353c0.192,0.064,0.496,0.417,0.688,0.786c0.176,0.353,0.368,0.641,0.4,0.641	c0.048,0,0.08-0.321,0.08-0.721c0-0.561-0.08-0.753-0.352-0.946C26.743,19.326,25.702,19.214,25.046,19.374z"/><path fill="#d50000" d="M1.46,19.498c0,0.064,0.18,0.197,0.388,0.277c0.352,0.16,0.352,0.224,0.4,3.174l0.032,2.998	l-0.4,0.16c-0.132,0.047-0.33,0.02-0.403,0.07c0,0-0.002,0.15-0.002,0.17c0,0.048,1.27,0.081,2.807,0.081h2.802v-0.882	c0-0.641-0.064-0.882-0.224-0.882c-0.128,0-0.272,0.176-0.32,0.401c-0.176,0.673-0.72,0.898-2.033,0.85L3.32,25.867l-0.048-1.411	l-0.048-1.395h1.057c0.784,0,1.073,0.064,1.137,0.24c0.064,0.128,0.208,0.24,0.336,0.24c0.288,0,0.224-1.459-0.064-1.571	c-0.112-0.032-0.208,0.048-0.208,0.192c0,0.305-0.528,0.449-1.457,0.385L3.32,22.5l-0.048-1.331l-0.048-1.315h1.009	c1.249,0,1.761,0.24,1.969,0.93c0.224,0.77,0.48,0.529,0.528-0.497l0.042-1.084l-2.652,0.17c-1.241,0-2.335-0.121-2.622-0.062	C1.449,19.322,1.46,19.486,1.46,19.498z"/><path fill="#d50000" d="M7.7,19.389c-0.011,0.079,0.135,0.37,0.263,0.53c0.352,0.465,0.352,5.996,0,6.124	c-0.047,0.018-0.088,0.036-0.122,0.054C7.81,26.113,7.71,26.032,7.71,26.057c0,0.001,0,0.145,0.001,0.171	c0.006,0.118,0.388,0.199,1.053,0.199c0.676,0,1.033-0.08,1.036-0.184c0.002-0.061,0.003-0.166,0-0.17l-0.957-0.111v-2.212	c0-1.844,0.032-2.164,0.208-1.972c0.128,0.128,1.105,1.266,2.177,2.533c1.073,1.25,2.07,2.297,2.151,2.249	c0.036-0.12,0.107-1.576,0.107-3.435c0-2.773,0.032-3.302,0.24-3.367c0.177-0.068,0.257-0.132,0.252-0.188	c-0.002-0.019,0.01-0.16-0.003-0.171c-0.107-0.087-0.495-0.026-1.05-0.026c-0.462,0-0.9-0.08-1.042-0.018	c0,0,0.002,0.157,0.002,0.178c0,0.08,0.128,0.16,0.304,0.16c0.576,0,0.672,0.353,0.624,2.581l-0.048,2.148l-2.065-2.533	c-1.793-2.18-2.316-2.66-2.7-2.66C7.744,19.231,7.713,19.291,7.7,19.389z"/><path fill="#d50000" d="M28.856,20.336c0,1.026,0.224,1.283,0.4,0.481c0.144-0.673,0.496-0.962,1.137-0.962h0.544v2.918	c0,1.619-0.064,3.014-0.128,3.11c-0.064,0.096-0.395,0.144-0.571,0.224c-0.006,0.002-0.009,0.163-0.005,0.19	c0.005,0.045,0.162,0.069,0.512,0.099c0.368,0.032,0.977,0.032,1.361,0c0.371-0.035,0.537-0.051,0.539-0.091	c0.002-0.032,0.004-0.168-0.004-0.177l-0.744-0.181v-3.046v-3.046h0.544c0.64,0,0.993,0.289,1.137,0.962	c0.176,0.802,0.4,0.545,0.4-0.481v-0.962h-2.562h-2.562V20.336z"/><path fill="#ffd740" d="M25.046,19.204c-0.688,0.16-1.265,0.705-1.393,1.315c-0.192,0.85,0.176,1.347,1.665,2.292	c1.825,1.138,2.209,1.908,1.361,2.757c-0.352,0.353-0.512,0.401-1.153,0.321c-0.865-0.096-1.265-0.497-1.409-1.411	c-0.08-0.481-0.176-0.625-0.416-0.625c-0.272,0-0.304,0.096-0.256,0.914c0.048,0.93,0.048,0.93,0.768,1.283	c1.281,0.657,2.994,0.385,3.634-0.577c0.752-1.122,0.32-2.228-1.281-3.206c-1.921-1.202-2.145-1.491-1.633-2.212	c0.272-0.385,0.945-0.561,1.473-0.353c0.192,0.064,0.496,0.417,0.688,0.786c0.176,0.353,0.368,0.641,0.4,0.641	c0.048,0,0.08-0.321,0.08-0.721c0-0.561-0.08-0.753-0.352-0.946C26.743,19.156,25.702,19.043,25.046,19.204z"/><path fill="#ffd740" d="M1.479,19.332c0,0.064,0.16,0.192,0.368,0.273c0.352,0.16,0.352,0.224,0.4,3.174l0.032,2.998	l-0.4,0.16c-0.224,0.08-0.404,0.193-0.404,0.241c0,0.048,1.269,0.079,2.806,0.079h2.802v-0.882c0-0.641-0.064-0.882-0.224-0.882	c-0.128,0-0.272,0.176-0.32,0.401c-0.176,0.673-0.72,0.898-2.033,0.85L3.32,25.697l-0.048-1.411l-0.048-1.395h1.057	c0.784,0,1.073,0.064,1.137,0.24c0.064,0.128,0.208,0.24,0.336,0.24c0.288,0,0.224-1.459-0.064-1.571	c-0.112-0.032-0.208,0.048-0.208,0.192c0,0.305-0.528,0.449-1.457,0.385L3.32,22.33l-0.048-1.331l-0.048-1.315h1.009	c1.249,0,1.761,0.24,1.969,0.93c0.224,0.77,0.48,0.529,0.528-0.497l0.048-0.914H4.121C2.664,19.204,1.479,19.245,1.479,19.332z"/><path fill="#ffd740" d="M7.723,19.316c0,0.08,0.112,0.273,0.24,0.433c0.352,0.465,0.352,5.996,0,6.124	c-0.544,0.208-0.176,0.385,0.8,0.385c1.089,0,1.393-0.208,0.56-0.385l-0.48-0.08V23.58c0-1.844,0.032-2.164,0.208-1.972	c0.128,0.128,1.105,1.266,2.177,2.533c1.073,1.25,2.033,2.244,2.113,2.196c0.08-0.064,0.144-1.523,0.144-3.383	c0-2.773,0.032-3.302,0.24-3.367c0.544-0.208,0.176-0.385-0.8-0.385c-0.592,0-1.042,0.058-1.042,0.154	c0,0.08,0.13,0.167,0.306,0.167c0.576,0,0.672,0.353,0.624,2.581l-0.048,2.148l-2.065-2.533c-1.793-2.18-2.129-2.517-2.514-2.517	C7.931,19.204,7.723,19.252,7.723,19.316z"/><path fill="#ffd740" d="M14.767,19.332c0,0.064,0.16,0.192,0.368,0.273c0.336,0.16,0.352,0.224,0.4,3.046l0.048,2.886	l-0.448,0.353l-0.448,0.369h2.449h2.433v-0.882c0-0.673-0.048-0.882-0.24-0.882c-0.128,0-0.24,0.144-0.24,0.321	s-0.144,0.465-0.32,0.641c-0.272,0.273-0.496,0.321-1.249,0.289l-0.913-0.048v-2.966c0-2.918,0-2.966,0.368-3.126	c0.64-0.289,0.368-0.401-0.929-0.401C15.344,19.204,14.767,19.252,14.767,19.332z"/><path fill="#ffd740" d="M20.211,19.348c0,0.08,0.144,0.176,0.32,0.224c0.304,0.08,0.32,0.224,0.32,3.158	s-0.016,3.078-0.32,3.158c-0.72,0.192-0.24,0.369,0.961,0.369c0.704,0,1.281-0.032,1.281-0.08s-0.176-0.16-0.4-0.24l-0.4-0.16	v-3.046v-3.046l0.4-0.16c0.224-0.08,0.4-0.192,0.4-0.24c0-0.048-0.576-0.08-1.281-0.08S20.211,19.268,20.211,19.348z"/><path fill="#ffd740" d="M28.856,20.166c0,1.026,0.224,1.283,0.4,0.481c0.144-0.673,0.496-0.962,1.137-0.962h0.544v2.918	c0,1.619-0.064,3.014-0.128,3.11s-0.256,0.224-0.432,0.305c-0.256,0.128-0.192,0.16,0.368,0.208c0.368,0.032,0.977,0.032,1.361,0	c0.672-0.064,0.672-0.064,0.24-0.257l-0.448-0.192v-3.046v-3.046h0.544c0.64,0,0.993,0.289,1.137,0.962	c0.176,0.802,0.4,0.545,0.4-0.481v-0.962h-2.562h-2.562V20.166z"/><path fill="#ffd740" d="M34.459,19.332c0,0.064,0.16,0.192,0.368,0.273c0.336,0.16,0.352,0.24,0.4,2.886	c0.016,1.491,0,2.886-0.048,3.062c-0.032,0.192-0.24,0.385-0.432,0.433c-0.72,0.192-0.128,0.257,2.514,0.289l2.722,0.016	l0.048-0.898c0.032-0.689,0-0.898-0.176-0.898c-0.128,0-0.288,0.176-0.336,0.401c-0.176,0.673-0.72,0.898-2.033,0.85L36.3,25.697	l-0.048-1.411l-0.048-1.395h1.057c0.784,0,1.073,0.064,1.137,0.24c0.192,0.497,0.384,0.208,0.384-0.561	c0-0.866-0.128-0.994-0.448-0.481c-0.16,0.257-0.368,0.321-1.153,0.321H36.22v-1.363v-1.363h1.009c1.233,0,1.745,0.24,1.937,0.93	c0.224,0.786,0.496,0.529,0.544-0.497l0.048-0.914h-2.658C35.644,19.204,34.459,19.252,34.459,19.332z"/><path fill="#ffd740" d="M40.543,19.332c0,0.064,0.16,0.192,0.368,0.273c0.336,0.16,0.352,0.24,0.4,2.886	c0.016,1.491,0,2.886-0.048,3.062c-0.032,0.192-0.24,0.401-0.432,0.481c-0.24,0.08,0.288,0.144,1.537,0.176	c1.681,0.048,1.969,0.016,2.61-0.289c1.057-0.513,1.553-1.347,1.617-2.806c0.08-1.315-0.128-2.1-0.736-2.822	c-0.72-0.85-1.473-1.09-3.506-1.09C41.359,19.204,40.543,19.252,40.543,19.332z M44.513,20.085c1.329,1.122,1.393,4.008,0.112,5.21	c-0.448,0.433-1.425,0.673-1.937,0.465l-0.384-0.144v-2.966v-2.966h0.865C43.857,19.685,44.129,19.765,44.513,20.085z"/><g><polygon fill="#ffb64d" points="46,17 27.193,17 24,10.729 20.807,17 2,17 3,15 3,16 20.193,16 24,8.526 27.807,16 45,16 45,15"/></g><path fill="#ffb64d" d="M1.219,6.762c0.166,0.166,0.696,0.514,1.21,0.796s1.84,1.078,2.951,1.774	c4.095,2.553,6.863,4.128,7.244,4.128c0.083,0,0.166-0.099,0.199-0.232c0.066-0.265,2.288,1.011,2.288,1.343	c0,0.249-0.381,0.133-1.16-0.398c-0.68-0.448-1.044-0.514-0.481-0.083c0.696,0.547,4.177,2.42,4.874,2.636	c0.365,0.116,1.078,0.199,1.575,0.182c0.497,0,0.713-0.05,0.464-0.083c-0.282-0.05-0.414-0.149-0.365-0.282	c0.05-0.133-0.099-0.298-0.381-0.398c-0.249-0.099-0.647-0.298-0.879-0.431c-1.011-0.597-4.957-2.719-4.874-3.15	c0.099-0.547-0.232-0.713-0.53-0.298c-0.133,0.199-0.348,0.315-0.481,0.265c-0.166-0.066-0.249,0-0.249,0.182	c0,0.265-0.033,0.282-0.282,0.05c-0.398-0.332-8.703-4.741-8.836-4.857C3.01,7.508,0.954,6.48,1.219,6.762z"/><g><polygon fill="#ffb64d" points="34.633,36.874 23.986,29.643 12.42,36.751 15.742,29 4,29 3,30 2,28 17.258,28 14.58,34.249 24.014,28.451 32.367,34.126 29.742,28 46,28 44,30 43,29 31.258,29"/></g></svg>