<svg xmlns="http://www.w3.org/2000/svg"  viewBox="0 0 48 48" width="1600px" height="1600px" clip-rule="evenodd"><path fill="#424242" d="M37.846,37.539l-13,6.067c-0.536,0.25-1.155,0.25-1.692,0l-13-6.067C9.45,37.21,9,36.503,9,35.726V8	c0-1.105,0.895-2,2-2h26c1.105,0,2,0.895,2,2v27.726C39,36.503,38.55,37.21,37.846,37.539z"/><path fill="#fff" fill-rule="evenodd" d="M29.39,37H18.588c-0.137,0-0.178,0.187-0.053,0.243l5.288,2.407	c0.033,0.015,0.071,0.015,0.104,0.001l5.513-2.407C29.567,37.189,29.528,37,29.39,37z" clip-rule="evenodd"/><polygon fill="#fff" points="12.449,24.717 16.781,24.717 16.781,22.551 14.615,22.551 14.615,18.941 16.781,18.941 16.781,16.776 14.615,16.776 14.615,13.166 16.781,13.166 16.781,11 12.449,11"/><rect width="2.166" height="13.717" x="25.444" y="11" fill="#fff"/><path fill="#fff" d="M20.39,20.385h1.153c1.644,0,2.457-0.822,2.457-2.486V13.64c0-1.767-0.868-2.64-2.626-2.64h-0.729	h-2.42v13.717h2.166v-4.332H20.39z M20.39,13.166h0.722c0.399,0,0.722,0.323,0.722,0.722v3.61c0,0.399-0.323,0.722-0.722,0.722	H20.39V13.166z"/><path fill="#fff" d="M35.551,22.154v-2.491h-2.166v2.04c0,0.579-0.279,0.848-0.858,0.848h-0.429	c-0.601,0-0.879-0.269-0.879-0.848v-4.206v-2.763v-0.847c0-0.399,0.323-0.722,0.722-0.722h0.722c0.399,0,0.722,0.323,0.722,0.722	v0.722v1.444h2.166v-2.438c0-1.764-0.877-2.616-2.695-2.616H31.77c-1.817,0-2.716,0.872-2.716,2.637v8.445	c0,1.764,0.899,2.636,2.716,2.636h1.1C34.664,24.717,35.551,23.869,35.551,22.154z"/><polygon fill="#fff" points="35.494,31.194 35.488,31.134 35.476,31.074 35.464,31.014 35.452,30.96 35.434,30.906 35.416,30.853 35.393,30.805 35.363,30.751 35.333,30.703 35.297,30.648 35.262,30.601 35.22,30.559 35.178,30.511 35.13,30.469 35.083,30.427 35.035,30.397 34.987,30.361 34.94,30.331 34.886,30.301 34.832,30.271 34.772,30.241 34.712,30.218 34.653,30.188 34.587,30.164 34.534,30.146 34.48,30.128 34.42,30.11 34.367,30.092 34.307,30.074 34.248,30.056 34.188,30.044 34.122,30.026 34.062,30.008 33.997,29.996 33.931,29.978 33.866,29.96 33.8,29.942 33.74,29.93 33.687,29.912 33.633,29.9 33.585,29.883 33.538,29.871 33.466,29.846 33.4,29.823 33.341,29.798 33.293,29.768 33.239,29.738 33.198,29.696 33.174,29.661 33.144,29.595 33.138,29.517 33.138,29.505 33.144,29.445 33.168,29.391 33.203,29.337 33.257,29.289 33.299,29.265 33.347,29.241 33.4,29.229 33.46,29.217 33.525,29.205 33.597,29.205 33.657,29.205 33.71,29.211 33.77,29.217 33.83,29.223 33.889,29.235 33.949,29.248 34.009,29.259 34.068,29.277 34.128,29.295 34.194,29.313 34.241,29.337 34.295,29.355 34.342,29.379 34.397,29.403 34.444,29.427 34.498,29.451 34.546,29.481 34.6,29.505 34.647,29.541 34.695,29.571 34.748,29.601 34.796,29.636 34.832,29.588 34.862,29.541 34.897,29.493 34.933,29.445 34.969,29.391 34.999,29.343 35.035,29.295 35.071,29.248 35.101,29.199 35.136,29.151 35.172,29.103 35.202,29.055 35.237,29.002 35.273,28.953 35.309,28.906 35.339,28.858 35.375,28.81 35.327,28.774 35.28,28.738 35.232,28.702 35.184,28.672 35.13,28.636 35.083,28.606 35.029,28.576 34.975,28.546 34.927,28.522 34.873,28.492 34.814,28.468 34.761,28.445 34.707,28.42 34.653,28.402 34.593,28.378 34.54,28.367 34.486,28.348 34.426,28.33 34.372,28.319 34.313,28.307 34.254,28.295 34.199,28.283 34.14,28.27 34.075,28.265 34.015,28.253 33.949,28.247 33.889,28.247 33.824,28.24 33.758,28.235 33.693,28.235 33.627,28.235 33.562,28.235 33.502,28.235 33.443,28.24 33.383,28.247 33.323,28.253 33.263,28.259 33.21,28.27 33.15,28.283 33.096,28.295 33.042,28.307 32.995,28.319 32.941,28.337 32.881,28.36 32.822,28.378 32.768,28.402 32.715,28.432 32.661,28.457 32.607,28.486 32.559,28.516 32.512,28.552 32.464,28.588 32.422,28.618 32.375,28.66 32.333,28.708 32.291,28.75 32.249,28.798 32.213,28.846 32.178,28.894 32.148,28.948 32.118,29.002 32.095,29.055 32.07,29.11 32.047,29.163 32.035,29.217 32.017,29.271 32.005,29.325 31.993,29.379 31.987,29.439 31.981,29.493 31.975,29.553 31.975,29.613 31.975,29.625 31.975,29.691 31.981,29.756 31.987,29.816 31.993,29.876 32.005,29.93 32.017,29.99 32.035,30.038 32.052,30.092 32.07,30.14 32.095,30.182 32.125,30.235 32.154,30.283 32.184,30.325 32.219,30.367 32.256,30.409 32.297,30.451 32.339,30.493 32.38,30.529 32.428,30.559 32.476,30.595 32.53,30.625 32.578,30.655 32.637,30.685 32.691,30.715 32.75,30.738 32.81,30.763 32.87,30.786 32.935,30.811 32.989,30.828 33.042,30.846 33.096,30.865 33.155,30.876 33.21,30.895 33.269,30.913 33.329,30.924 33.389,30.943 33.448,30.954 33.514,30.973 33.574,30.984 33.639,31.003 33.699,31.014 33.758,31.032 33.812,31.044 33.866,31.062 33.914,31.074 33.955,31.086 34.027,31.116 34.087,31.14 34.14,31.164 34.188,31.188 34.236,31.224 34.277,31.26 34.307,31.302 34.331,31.361 34.337,31.433 34.337,31.446 34.331,31.506 34.313,31.559 34.289,31.608 34.254,31.649 34.206,31.686 34.164,31.709 34.116,31.727 34.062,31.739 34.009,31.751 33.949,31.763 33.884,31.769 33.812,31.769 33.752,31.769 33.687,31.763 33.627,31.763 33.567,31.751 33.502,31.745 33.443,31.733 33.383,31.721 33.323,31.709 33.269,31.691 33.21,31.673 33.15,31.655 33.096,31.631 33.042,31.613 32.989,31.589 32.935,31.566 32.881,31.541 32.834,31.511 32.78,31.488 32.732,31.458 32.679,31.421 32.631,31.391 32.578,31.356 32.53,31.32 32.476,31.284 32.428,31.248 32.392,31.296 32.351,31.338 32.315,31.386 32.273,31.433 32.237,31.476 32.202,31.523 32.16,31.571 32.125,31.613 32.082,31.661 32.047,31.703 32.005,31.751 31.969,31.799 31.934,31.841 31.892,31.889 31.856,31.937 31.814,31.979 31.778,32.026 31.826,32.069 31.867,32.104 31.915,32.141 31.963,32.176 32.011,32.212 32.058,32.248 32.106,32.278 32.154,32.308 32.208,32.338 32.256,32.368 32.309,32.398 32.363,32.422 32.417,32.452 32.47,32.476 32.524,32.5 32.583,32.523 32.637,32.541 32.697,32.56 32.75,32.583 32.81,32.601 32.87,32.62 32.923,32.631 32.983,32.649 33.042,32.661 33.102,32.673 33.162,32.685 33.222,32.698 33.282,32.703 33.341,32.715 33.406,32.721 33.466,32.728 33.525,32.733 33.591,32.733 33.651,32.739 33.71,32.739 33.776,32.739 33.842,32.739 33.901,32.739 33.961,32.733 34.027,32.728 34.087,32.721 34.14,32.715 34.199,32.709 34.259,32.698 34.313,32.685 34.367,32.673 34.426,32.661 34.48,32.643 34.54,32.625 34.6,32.608 34.659,32.583 34.719,32.56 34.772,32.53 34.826,32.506 34.88,32.476 34.927,32.44 34.975,32.41 35.023,32.374 35.064,32.338 35.112,32.296 35.148,32.261 35.19,32.218 35.225,32.176 35.255,32.129 35.291,32.081 35.321,32.033 35.351,31.985 35.375,31.931 35.398,31.883 35.423,31.829 35.441,31.769 35.452,31.715 35.47,31.655 35.482,31.595 35.488,31.529 35.494,31.47 35.5,31.404 35.5,31.338 35.5,31.326 35.5,31.26"/><polygon fill="#fff" points="31.251,31.679 31.192,31.679 31.132,31.679 31.073,31.679 31.013,31.679 30.953,31.679 30.894,31.679 30.834,31.679 30.768,31.679 30.708,31.679 30.649,31.679 30.59,31.679 30.529,31.679 30.47,31.679 30.411,31.679 30.351,31.679 30.291,31.679 30.232,31.679 30.172,31.679 30.112,31.679 30.052,31.679 29.993,31.679 29.933,31.679 29.874,31.679 29.814,31.679 29.754,31.679 29.695,31.679 29.635,31.679 29.569,31.679 29.51,31.679 29.45,31.679 29.39,31.679 29.331,31.679 29.271,31.679 29.211,31.679 29.152,31.679 29.093,31.679 29.033,31.679 29.033,31.619 29.033,31.553 29.033,31.493 29.033,31.433 29.033,31.368 29.033,31.308 29.033,31.248 29.033,31.182 29.033,31.122 29.033,31.062 29.033,30.996 29.033,30.936 29.093,30.936 29.152,30.936 29.211,30.936 29.271,30.936 29.331,30.936 29.39,30.936 29.45,30.936 29.51,30.936 29.564,30.936 29.623,30.936 29.683,30.936 29.742,30.936 29.802,30.936 29.862,30.936 29.921,30.936 29.981,30.936 30.041,30.936 30.101,30.936 30.16,30.936 30.22,30.936 30.28,30.936 30.339,30.936 30.398,30.936 30.458,30.936 30.518,30.936 30.577,30.936 30.631,30.936 30.691,30.936 30.751,30.936 30.81,30.936 30.87,30.936 30.929,30.936 30.989,30.936 31.048,30.936 31.108,30.936 31.108,30.876 31.108,30.823 31.108,30.763 31.108,30.703 31.108,30.648 31.108,30.589 31.108,30.529 31.108,30.469 31.108,30.415 31.108,30.355 31.108,30.295 31.108,30.241 31.108,30.182 31.108,30.122 31.108,30.068 31.108,30.008 31.048,30.008 30.989,30.008 30.929,30.008 30.87,30.008 30.81,30.008 30.751,30.008 30.691,30.008 30.631,30.008 30.577,30.008 30.518,30.008 30.458,30.008 30.398,30.008 30.339,30.008 30.28,30.008 30.22,30.008 30.16,30.008 30.101,30.008 30.041,30.008 29.981,30.008 29.921,30.008 29.862,30.008 29.802,30.008 29.742,30.008 29.683,30.008 29.623,30.008 29.564,30.008 29.51,30.008 29.45,30.008 29.39,30.008 29.331,30.008 29.271,30.008 29.211,30.008 29.152,30.008 29.093,30.008 29.033,30.008 29.033,29.948 29.033,29.888 29.033,29.828 29.033,29.768 29.033,29.708 29.033,29.648 29.033,29.595 29.033,29.535 29.033,29.475 29.033,29.415 29.033,29.355 29.033,29.295 29.093,29.295 29.152,29.295 29.211,29.295 29.271,29.295 29.331,29.295 29.39,29.295 29.444,29.295 29.504,29.295 29.564,29.295 29.623,29.295 29.683,29.295 29.742,29.295 29.802,29.295 29.862,29.295 29.921,29.295 29.981,29.295 30.041,29.295 30.101,29.295 30.16,29.295 30.213,29.295 30.273,29.295 30.333,29.295 30.393,29.295 30.452,29.295 30.512,29.295 30.572,29.295 30.631,29.295 30.691,29.295 30.751,29.295 30.81,29.295 30.87,29.295 30.929,29.295 30.983,29.295 31.043,29.295 31.102,29.295 31.162,29.295 31.222,29.295 31.281,29.295 31.341,29.295 31.341,29.235 31.341,29.181 31.341,29.121 31.341,29.061 31.341,29.002 31.341,28.948 31.341,28.888 31.341,28.828 31.341,28.774 31.341,28.714 31.341,28.654 31.341,28.6 31.341,28.54 31.341,28.48 31.341,28.42 31.341,28.367 31.341,28.307 31.281,28.307 31.222,28.307 31.162,28.307 31.102,28.307 31.043,28.307 30.983,28.307 30.923,28.307 30.864,28.307 30.804,28.307 30.745,28.307 30.685,28.307 30.625,28.307 30.565,28.307 30.506,28.307 30.452,28.307 30.393,28.307 30.333,28.307 30.273,28.307 30.213,28.307 30.154,28.307 30.094,28.307 30.035,28.307 29.975,28.307 29.915,28.307 29.856,28.307 29.796,28.307 29.737,28.307 29.677,28.307 29.617,28.307 29.558,28.307 29.498,28.307 29.438,28.307 29.379,28.307 29.319,28.307 29.259,28.307 29.199,28.307 29.14,28.307 29.08,28.307 29.021,28.307 28.961,28.307 28.902,28.307 28.842,28.307 28.783,28.307 28.728,28.307 28.669,28.307 28.609,28.307 28.55,28.307 28.49,28.307 28.431,28.307 28.371,28.307 28.311,28.307 28.252,28.307 28.192,28.307 28.132,28.307 28.072,28.307 28.012,28.307 27.953,28.307 27.893,28.307 27.893,28.367 27.893,28.427 27.893,28.486 27.893,28.546 27.893,28.606 27.893,28.666 27.893,28.726 27.893,28.786 27.893,28.846 27.893,28.906 27.893,28.965 27.893,29.025 27.893,29.085 27.893,29.145 27.893,29.205 27.893,29.265 27.893,29.325 27.893,29.385 27.893,29.439 27.893,29.498 27.893,29.558 27.893,29.618 27.893,29.678 27.893,29.738 27.893,29.798 27.893,29.858 27.893,29.918 27.893,29.978 27.893,30.038 27.893,30.098 27.893,30.158 27.893,30.218 27.893,30.277 27.893,30.337 27.893,30.397 27.893,30.457 27.893,30.517 27.893,30.577 27.893,30.637 27.893,30.697 27.893,30.757 27.893,30.816 27.893,30.876 27.893,30.936 27.893,30.996 27.893,31.056 27.893,31.116 27.893,31.176 27.893,31.236 27.893,31.296 27.893,31.356 27.893,31.416 27.893,31.476 27.893,31.536 27.893,31.589 27.893,31.649 27.893,31.709 27.893,31.769 27.893,31.829 27.893,31.889 27.893,31.949 27.893,32.009 27.893,32.069 27.893,32.129 27.893,32.189 27.893,32.248 27.893,32.308 27.893,32.368 27.893,32.428 27.893,32.488 27.893,32.548 27.893,32.608 27.893,32.668 27.953,32.668 28.012,32.668 28.072,32.668 28.132,32.668 28.192,32.668 28.252,32.668 28.311,32.668 28.371,32.668 28.431,32.668 28.496,32.668 28.555,32.668 28.615,32.668 28.675,32.668 28.735,32.668 28.794,32.668 28.854,32.668 28.914,32.668 28.973,32.668 29.033,32.668 29.093,32.668 29.152,32.668 29.211,32.668 29.271,32.668 29.331,32.668 29.39,32.668 29.45,32.668 29.51,32.668 29.569,32.668 29.635,32.668 29.695,32.668 29.754,32.668 29.814,32.668 29.874,32.668 29.933,32.668 29.993,32.668 30.052,32.668 30.112,32.668 30.172,32.668 30.232,32.668 30.291,32.668 30.351,32.668 30.411,32.668 30.47,32.668 30.529,32.668 30.59,32.668 30.649,32.668 30.708,32.668 30.768,32.668 30.834,32.668 30.894,32.668 30.953,32.668 31.013,32.668 31.073,32.668 31.132,32.668 31.192,32.668 31.251,32.668 31.311,32.668 31.371,32.668 31.371,32.608 31.371,32.553 31.371,32.493 31.371,32.433 31.371,32.374 31.371,32.321 31.371,32.261 31.371,32.201 31.371,32.146 31.371,32.086 31.371,32.026 31.371,31.973 31.371,31.913 31.371,31.853 31.371,31.793 31.371,31.739 31.371,31.679 31.311,31.679"/><polygon fill="#fff" points="26.894,28.307 26.84,28.307 26.78,28.307 26.721,28.307 26.661,28.307 26.607,28.307 26.547,28.307 26.488,28.307 26.429,28.307 26.375,28.307 26.315,28.307 26.255,28.307 26.196,28.307 26.142,28.307 26.083,28.307 26.023,28.307 25.963,28.307 25.91,28.307 25.85,28.307 25.791,28.307 25.761,28.355 25.731,28.408 25.695,28.456 25.665,28.51 25.635,28.558 25.605,28.612 25.57,28.659 25.54,28.714 25.51,28.761 25.48,28.809 25.444,28.863 25.415,28.911 25.385,28.965 25.355,29.013 25.319,29.066 25.289,29.114 25.259,29.162 25.229,29.216 25.199,29.264 25.164,29.317 25.134,29.365 25.104,29.419 25.075,29.467 25.038,29.521 25.009,29.568 24.979,29.616 24.949,29.67 24.914,29.718 24.884,29.772 24.854,29.82 24.824,29.873 24.788,29.922 24.758,29.975 24.728,30.023 24.699,29.975 24.669,29.922 24.633,29.873 24.604,29.82 24.574,29.772 24.544,29.718 24.514,29.67 24.478,29.616 24.448,29.568 24.418,29.521 24.389,29.467 24.359,29.419 24.323,29.365 24.293,29.317 24.263,29.264 24.234,29.216 24.204,29.162 24.168,29.114 24.138,29.066 24.108,29.013 24.078,28.965 24.043,28.911 24.013,28.863 23.983,28.809 23.953,28.761 23.923,28.714 23.888,28.659 23.858,28.612 23.828,28.558 23.799,28.51 23.768,28.456 23.732,28.408 23.702,28.355 23.673,28.307 23.613,28.307 23.554,28.307 23.5,28.307 23.44,28.307 23.38,28.307 23.321,28.307 23.267,28.307 23.208,28.307 23.148,28.307 23.088,28.307 23.035,28.307 22.975,28.307 22.916,28.307 22.856,28.307 22.803,28.307 22.743,28.307 22.683,28.307 22.623,28.307 22.57,28.307 22.51,28.307 22.45,28.307 22.45,28.367 22.45,28.427 22.45,28.486 22.45,28.546 22.45,28.606 22.45,28.666 22.45,28.726 22.45,28.786 22.45,28.846 22.45,28.906 22.45,28.965 22.45,29.025 22.45,29.085 22.45,29.145 22.45,29.205 22.45,29.265 22.45,29.325 22.45,29.385 22.45,29.439 22.45,29.498 22.45,29.558 22.45,29.618 22.45,29.678 22.45,29.738 22.45,29.798 22.45,29.858 22.45,29.918 22.45,29.978 22.45,30.038 22.45,30.098 22.45,30.158 22.45,30.218 22.45,30.277 22.45,30.337 22.45,30.397 22.45,30.457 22.45,30.517 22.45,30.577 22.45,30.637 22.45,30.697 22.45,30.757 22.45,30.816 22.45,30.876 22.45,30.936 22.45,30.996 22.45,31.056 22.45,31.116 22.45,31.176 22.45,31.236 22.45,31.296 22.45,31.356 22.45,31.416 22.45,31.476 22.45,31.536 22.45,31.589 22.45,31.649 22.45,31.709 22.45,31.769 22.45,31.829 22.45,31.889 22.45,31.949 22.45,32.009 22.45,32.069 22.45,32.129 22.45,32.189 22.45,32.248 22.45,32.308 22.45,32.368 22.45,32.428 22.45,32.488 22.45,32.548 22.45,32.608 22.45,32.668 22.51,32.668 22.57,32.668 22.629,32.668 22.689,32.668 22.748,32.668 22.808,32.668 22.868,32.668 22.927,32.668 22.987,32.668 23.047,32.668 23.106,32.668 23.166,32.668 23.226,32.668 23.286,32.668 23.345,32.668 23.405,32.668 23.464,32.668 23.524,32.668 23.584,32.668 23.584,32.608 23.584,32.548 23.584,32.488 23.584,32.428 23.584,32.367 23.584,32.307 23.584,32.247 23.584,32.187 23.584,32.128 23.584,32.068 23.584,32.014 23.584,31.954 23.584,31.894 23.584,31.834 23.584,31.774 23.584,31.714 23.584,31.654 23.584,31.594 23.584,31.534 23.584,31.474 23.584,31.414 23.584,31.355 23.584,31.294 23.584,31.234 23.584,31.174 23.584,31.114 23.584,31.054 23.584,30.994 23.584,30.934 23.584,30.874 23.584,30.814 23.584,30.754 23.584,30.701 23.584,30.641 23.584,30.58 23.584,30.52 23.584,30.46 23.584,30.4 23.584,30.34 23.584,30.28 23.584,30.221 23.584,30.161 23.584,30.101 23.619,30.149 23.649,30.203 23.685,30.251 23.715,30.305 23.75,30.353 23.78,30.407 23.816,30.455 23.846,30.509 23.882,30.556 23.911,30.611 23.947,30.659 23.977,30.713 24.013,30.761 24.043,30.815 24.078,30.862 24.108,30.917 24.144,30.965 24.18,31.019 24.21,31.067 24.245,31.121 24.275,31.169 24.312,31.223 24.341,31.271 24.377,31.325 24.406,31.373 24.443,31.427 24.473,31.475 24.508,31.529 24.538,31.577 24.574,31.631 24.604,31.679 24.639,31.733 24.669,31.781 24.705,31.835 24.728,31.835 24.758,31.787 24.794,31.733 24.824,31.685 24.86,31.637 24.889,31.583 24.926,31.535 24.955,31.487 24.985,31.433 25.021,31.385 25.051,31.337 25.087,31.289 25.117,31.235 25.152,31.187 25.182,31.139 25.212,31.085 25.248,31.037 25.278,30.989 25.313,30.935 25.343,30.887 25.379,30.839 25.409,30.785 25.439,30.737 25.474,30.689 25.504,30.635 25.54,30.586 25.57,30.539 25.605,30.491 25.635,30.437 25.665,30.389 25.701,30.34 25.731,30.287 25.766,30.239 25.796,30.191 25.832,30.137 25.862,30.089 25.862,30.149 25.862,30.209 25.862,30.269 25.862,30.329 25.862,30.389 25.862,30.448 25.862,30.508 25.862,30.568 25.862,30.629 25.862,30.689 25.862,30.749 25.862,30.808 25.862,30.868 25.862,30.928 25.862,30.989 25.862,31.049 25.862,31.108 25.862,31.168 25.862,31.228 25.862,31.288 25.862,31.348 25.862,31.408 25.862,31.468 25.862,31.528 25.862,31.588 25.862,31.648 25.862,31.708 25.862,31.768 25.862,31.828 25.862,31.888 25.862,31.948 25.862,32.008 25.862,32.068 25.862,32.128 25.862,32.187 25.862,32.247 25.862,32.307 25.862,32.367 25.862,32.428 25.862,32.488 25.862,32.548 25.862,32.608 25.862,32.668 25.922,32.668 25.981,32.668 26.041,32.668 26.106,32.668 26.166,32.668 26.225,32.668 26.285,32.668 26.345,32.668 26.405,32.668 26.47,32.668 26.53,32.668 26.59,32.668 26.649,32.668 26.709,32.668 26.768,32.668 26.834,32.668 26.894,32.668 26.953,32.668 27.013,32.668 27.013,32.608 27.013,32.548 27.013,32.488 27.013,32.428 27.013,32.368 27.013,32.308 27.013,32.248 27.013,32.189 27.013,32.129 27.013,32.069 27.013,32.009 27.013,31.949 27.013,31.889 27.013,31.829 27.013,31.769 27.013,31.709 27.013,31.649 27.013,31.589 27.013,31.536 27.013,31.476 27.013,31.416 27.013,31.356 27.013,31.296 27.013,31.236 27.013,31.176 27.013,31.116 27.013,31.056 27.013,30.996 27.013,30.936 27.013,30.876 27.013,30.816 27.013,30.757 27.013,30.697 27.013,30.637 27.013,30.577 27.013,30.517 27.013,30.457 27.013,30.397 27.013,30.337 27.013,30.277 27.013,30.218 27.013,30.158 27.013,30.098 27.013,30.038 27.013,29.978 27.013,29.918 27.013,29.858 27.013,29.798 27.013,29.738 27.013,29.678 27.013,29.618 27.013,29.558 27.013,29.498 27.013,29.439 27.013,29.385 27.013,29.325 27.013,29.265 27.013,29.205 27.013,29.145 27.013,29.085 27.013,29.025 27.013,28.965 27.013,28.906 27.013,28.846 27.013,28.786 27.013,28.726 27.013,28.666 27.013,28.606 27.013,28.546 27.013,28.486 27.013,28.427 27.013,28.367 27.013,28.307 26.953,28.307"/><path fill="#fff" d="M21.917,32.56l-0.024-0.054l-0.018-0.06l-0.024-0.054l-0.024-0.054l-0.024-0.054l-0.024-0.054 l-0.024-0.054l-0.024-0.06l-0.024-0.054l-0.018-0.054l-0.024-0.054L21.641,31.9l-0.024-0.054l-0.025-0.062l-0.024-0.054 l-0.024-0.054l-0.024-0.054l-0.017-0.054l-0.024-0.054l-0.024-0.06L21.431,31.4l-0.024-0.054l-0.024-0.054l-0.024-0.054 l-0.024-0.054l-0.018-0.06l-0.024-0.054l-0.024-0.054l-0.024-0.054l-0.024-0.054l-0.024-0.054l-0.024-0.06l-0.024-0.054 l-0.018-0.054l-0.024-0.054l-0.024-0.054l-0.024-0.054l-0.024-0.06L21.02,30.42l-0.024-0.054l-0.024-0.054l-0.017-0.054 l-0.024-0.054l-0.024-0.054l-0.024-0.06l-0.024-0.054l-0.024-0.054l-0.024-0.054l-0.024-0.054l-0.018-0.054l-0.024-0.06 l-0.024-0.054l-0.024-0.054l-0.024-0.054l-0.024-0.054l-0.024-0.054l-0.024-0.06l-0.018-0.054l-0.024-0.054l-0.024-0.054 l-0.024-0.054l-0.024-0.054l-0.024-0.06l-0.024-0.054l-0.024-0.054l-0.017-0.054l-0.024-0.054L20.35,28.83l-0.024-0.06 l-0.024-0.054l-0.024-0.054l-0.024-0.054l-0.024-0.054l-0.01-0.044l-0.024-0.06l-0.024-0.054l-0.024-0.054l-0.024-0.054h-0.06 H20.01h-0.068h-0.059h-0.059H19.77h-0.06h-0.06h-0.059h-0.054h-0.06h-0.06H19.36h-0.054h-0.06h-0.059h-0.059h-0.055h-0.059 l-0.024,0.054l-0.024,0.054l-0.024,0.054l-0.018,0.06L18.9,28.563l-0.024,0.054l-0.024,0.054l-0.024,0.054l-0.024,0.054 l-0.024,0.06l-0.024,0.054l-0.017,0.054l-0.024,0.054l-0.024,0.054l-0.024,0.054l-0.024,0.06l-0.024,0.054l-0.024,0.054 l-0.024,0.054l-0.018,0.054l-0.024,0.054l-0.024,0.06l-0.024,0.054l-0.024,0.054l-0.024,0.054l-0.024,0.054l-0.024,0.054 l-0.018,0.06l-0.024,0.054l-0.024,0.054l-0.024,0.054l-0.024,0.054l-0.024,0.054l-0.024,0.06l-0.024,0.054l-0.018,0.054 l-0.024,0.054l-0.024,0.054l-0.024,0.054l-0.024,0.054l-0.024,0.06l-0.024,0.054l-0.024,0.054l-0.018,0.054l-0.024,0.054 l-0.024,0.054l-0.024,0.06l-0.024,0.054l-0.024,0.054l-0.024,0.054l-0.024,0.054l-0.018,0.054l-0.024,0.06l-0.024,0.054 l-0.024,0.054l-0.024,0.054l-0.024,0.054l-0.024,0.054l-0.024,0.06l-0.025,0.053l-0.024,0.054l-0.024,0.054l-0.024,0.054 l-0.024,0.054l-0.024,0.06L17.488,31.9l-0.025,0.054l-0.018,0.054l-0.024,0.054l-0.024,0.054l-0.024,0.06l-0.024,0.054 l-0.024,0.054l-0.024,0.054l-0.024,0.054l-0.018,0.054l-0.024,0.06l-0.024,0.054l-0.024,0.054l-0.024,0.054h0.059h0.06h0.059h0.06 h0.066h0.059h0.059h0.06h0.06h0.059h0.059h0.06h0.06h0.059h0.066h0.059h0.06h0.059h0.059h0.059l0.024-0.054l0.018-0.054 l0.024-0.054l0.024-0.06l0.018-0.054l0.024-0.054l0.024-0.054l0.018-0.054l0.024-0.054l0.024-0.054l0.017-0.054l0.024-0.06 l0.024-0.054l0.018-0.054l0.024-0.054h0.059h0.06h0.06h0.059h0.054h0.059h0.059h0.059h0.06h0.06h0.059H19.4h0.06h0.06h0.054h0.059 h0.06h0.059h0.063h0.06h0.059h0.06h0.059h0.06h0.054h0.059h0.059h0.059h0.059l0.024,0.054l0.018,0.054l0.024,0.054l0.024,0.06 l0.018,0.054l0.024,0.054l0.024,0.054l0.017,0.054l0.024,0.054l0.024,0.054l0.017,0.054l0.024,0.06l0.024,0.054l0.018,0.054 l0.024,0.054h0.06h0.059h0.054h0.059h0.06h0.06h0.059h0.054h0.06h0.06h0.059h0.059h0.06h0.054h0.06h0.059h0.06h0.059h0.054h0.06 h0.059l-0.024-0.054L21.917,32.56z M19.997,30.924h-0.06h-0.059h-0.06h-0.059H19.7h-0.06h-0.059h-0.054h-0.06h-0.06h-0.059h-0.059 h-0.06h-0.06H19.11h-0.06l0.024-0.054l0.018-0.054l0.024-0.06l0.024-0.054l0.017-0.054l0.024-0.054l0.024-0.06l0.024-0.054 l0.018-0.054l0.024-0.054l0.024-0.054l0.017-0.06l0.024-0.054l0.024-0.054l0.018-0.054l0.024-0.054l0.024-0.06l0.024-0.054 l0.017-0.054l0.024-0.054l0.024-0.06l0.018-0.054l0.024-0.054l0.024,0.054l0.018,0.054l0.024,0.06l0.024,0.054l0.018,0.054 l0.024,0.054l0.024,0.06l0.018,0.054l0.024,0.054l0.024,0.054l0.017,0.054l0.026,0.059l0.018,0.054l0.024,0.054l0.024,0.054 l0.018,0.054l0.024,0.06l0.024,0.054l0.018,0.054l0.024,0.054l0.024,0.06l0.018,0.054l0.024,0.054L19.997,30.924L19.997,30.924z"/><polygon fill="#fff" points="16.603,30.128 16.544,30.128 16.484,30.128 16.425,30.128 16.365,30.128 16.305,30.128 16.246,30.128 16.186,30.128 16.126,30.128 16.066,30.128 16.006,30.128 15.947,30.128 15.888,30.128 15.828,30.128 15.768,30.128 15.709,30.128 15.649,30.128 15.589,30.128 15.53,30.128 15.47,30.128 15.411,30.128 15.351,30.128 15.291,30.128 15.231,30.128 15.172,30.128 15.112,30.128 15.052,30.128 14.993,30.128 14.933,30.128 14.874,30.128 14.814,30.128 14.754,30.128 14.754,30.188 14.754,30.241 14.754,30.301 14.754,30.361 14.754,30.421 14.754,30.475 14.754,30.535 14.754,30.595 14.754,30.655 14.754,30.708 14.754,30.768 14.754,30.828 14.754,30.888 14.754,30.943 14.754,31.003 14.814,31.003 14.868,31.003 14.928,31.003 14.987,31.003 15.047,31.003 15.1,31.003 15.16,31.003 15.22,31.003 15.279,31.003 15.333,31.003 15.392,31.003 15.452,31.003 15.512,31.003 15.565,31.003 15.625,31.003 15.625,31.062 15.625,31.122 15.625,31.182 15.625,31.242 15.625,31.308 15.625,31.368 15.625,31.428 15.625,31.488 15.625,31.548 15.578,31.578 15.535,31.601 15.482,31.626 15.434,31.649 15.381,31.673 15.327,31.686 15.268,31.703 15.208,31.715 15.148,31.727 15.089,31.733 15.023,31.739 14.957,31.745 14.886,31.745 14.82,31.745 14.754,31.739 14.695,31.733 14.636,31.721 14.576,31.709 14.516,31.691 14.456,31.673 14.402,31.649 14.349,31.626 14.295,31.601 14.247,31.571 14.2,31.541 14.152,31.506 14.104,31.47 14.063,31.433 14.026,31.391 13.985,31.35 13.949,31.308 13.913,31.26 13.883,31.212 13.854,31.164 13.824,31.11 13.8,31.056 13.776,30.996 13.759,30.948 13.741,30.895 13.729,30.841 13.716,30.786 13.704,30.733 13.699,30.673 13.693,30.619 13.687,30.559 13.687,30.499 13.687,30.487 13.687,30.421 13.693,30.361 13.699,30.301 13.711,30.235 13.722,30.182 13.734,30.122 13.752,30.062 13.776,30.008 13.794,29.954 13.818,29.9 13.848,29.853 13.877,29.798 13.907,29.751 13.937,29.708 13.973,29.661 14.015,29.618 14.051,29.577 14.092,29.541 14.134,29.505 14.176,29.469 14.224,29.439 14.271,29.409 14.319,29.379 14.373,29.355 14.426,29.331 14.48,29.313 14.534,29.295 14.587,29.283 14.647,29.271 14.701,29.265 14.76,29.259 14.82,29.259 14.886,29.259 14.951,29.265 15.017,29.271 15.077,29.277 15.136,29.289 15.196,29.301 15.25,29.313 15.303,29.331 15.357,29.349 15.404,29.367 15.452,29.391 15.5,29.415 15.553,29.445 15.602,29.475 15.649,29.505 15.697,29.535 15.744,29.571 15.792,29.601 15.84,29.643 15.888,29.678 15.924,29.631 15.965,29.588 16.001,29.541 16.043,29.493 16.078,29.445 16.114,29.403 16.156,29.355 16.192,29.308 16.234,29.259 16.269,29.217 16.305,29.17 16.347,29.121 16.382,29.08 16.418,29.032 16.46,28.983 16.496,28.936 16.538,28.894 16.574,28.846 16.526,28.81 16.478,28.768 16.43,28.732 16.382,28.696 16.335,28.666 16.287,28.63 16.234,28.6 16.186,28.57 16.133,28.54 16.085,28.51 16.031,28.486 15.977,28.457 15.924,28.432 15.87,28.408 15.816,28.385 15.763,28.367 15.714,28.348 15.661,28.337 15.607,28.319 15.553,28.307 15.5,28.295 15.446,28.283 15.387,28.27 15.327,28.259 15.273,28.253 15.208,28.24 15.148,28.235 15.089,28.235 15.023,28.229 14.957,28.223 14.891,28.223 14.826,28.223 14.767,28.223 14.701,28.223 14.641,28.229 14.581,28.235 14.522,28.24 14.462,28.247 14.402,28.259 14.343,28.265 14.283,28.277 14.23,28.295 14.17,28.307 14.116,28.325 14.063,28.337 14.009,28.36 13.949,28.378 13.902,28.397 13.842,28.427 13.788,28.45 13.734,28.475 13.681,28.505 13.627,28.535 13.573,28.565 13.526,28.595 13.478,28.624 13.43,28.66 13.382,28.69 13.335,28.726 13.293,28.762 13.245,28.804 13.204,28.84 13.162,28.882 13.12,28.923 13.084,28.965 13.043,29.008 13.007,29.05 12.971,29.098 12.935,29.145 12.899,29.193 12.869,29.241 12.839,29.289 12.81,29.337 12.78,29.385 12.75,29.439 12.727,29.493 12.703,29.547 12.678,29.601 12.655,29.655 12.631,29.715 12.613,29.768 12.595,29.828 12.577,29.883 12.566,29.942 12.547,30.002 12.536,30.056 12.529,30.116 12.517,30.175 12.512,30.241 12.506,30.301 12.506,30.361 12.5,30.427 12.5,30.487 12.5,30.499 12.5,30.559 12.5,30.625 12.506,30.685 12.512,30.745 12.517,30.805 12.524,30.858 12.536,30.918 12.542,30.973 12.554,31.032 12.572,31.086 12.584,31.146 12.601,31.2 12.613,31.254 12.637,31.308 12.655,31.356 12.678,31.41 12.703,31.463 12.727,31.518 12.75,31.571 12.78,31.619 12.81,31.673 12.839,31.721 12.869,31.769 12.905,31.817 12.935,31.865 12.971,31.907 13.007,31.955 13.043,31.996 13.084,32.039 13.126,32.081 13.168,32.116 13.21,32.159 13.251,32.194 13.293,32.231 13.341,32.266 13.389,32.302 13.436,32.338 13.484,32.368 13.532,32.398 13.585,32.428 13.633,32.458 13.687,32.488 13.741,32.511 13.794,32.536 13.848,32.56 13.907,32.583 13.961,32.601 14.015,32.625 14.069,32.643 14.128,32.655 14.182,32.673 14.242,32.685 14.295,32.698 14.355,32.709 14.415,32.721 14.475,32.728 14.534,32.733 14.593,32.739 14.659,32.745 14.718,32.751 14.778,32.751 14.844,32.751 14.909,32.751 14.975,32.751 15.04,32.745 15.1,32.739 15.166,32.733 15.225,32.728 15.291,32.721 15.351,32.715 15.411,32.703 15.47,32.691 15.523,32.679 15.583,32.668 15.637,32.649 15.697,32.631 15.75,32.613 15.804,32.595 15.858,32.578 15.911,32.553 15.971,32.53 16.025,32.506 16.085,32.482 16.138,32.452 16.192,32.428 16.246,32.398 16.299,32.368 16.353,32.338 16.4,32.308 16.448,32.278 16.496,32.242 16.544,32.212 16.591,32.176 16.633,32.146 16.681,32.111 16.722,32.074 16.722,32.015 16.722,31.955 16.722,31.895 16.722,31.841 16.722,31.781 16.722,31.721 16.722,31.661 16.722,31.601 16.722,31.541 16.722,31.488 16.722,31.428 16.722,31.368 16.722,31.308 16.722,31.248 16.722,31.188 16.722,31.128 16.722,31.074 16.722,31.014 16.722,30.954 16.722,30.895 16.722,30.835 16.722,30.775 16.722,30.715 16.722,30.661 16.722,30.601 16.722,30.541 16.722,30.481 16.722,30.421 16.722,30.361 16.722,30.307 16.722,30.247 16.722,30.188 16.722,30.128 16.663,30.128"/></svg>