<svg xmlns="http://www.w3.org/2000/svg"  viewBox="0 0 48 48" width="1600px" height="1600px"><circle cx="24" cy="24.5" r="14.5" fill="#080807"/><circle cx="24" cy="24.5" r="14" fill="#f8f4e8"/><circle cx="24" cy="24.5" r="13.5" fill="#e7d5a6"/><circle cx="24" cy="24.329" r="11.329" fill="#434037"/><ellipse cx="24" cy="24.5" fill="#080807" rx="7" ry="7.5"/><path fill="#e3c470" d="M0.756,29.675l2.292-10.782c0.031-0.146,0.16-0.25,0.309-0.25H6.56c0.139,0,0.252,0.114,0.251,0.253	l-0.251,1.03c-0.063,0.136-0.199,0.223-0.348,0.223H4.287l-0.705,3.316h1.619c0.176,0,0.318,0.143,0.317,0.319l-0.23,0.927	c-0.096,0.166-0.274,0.269-0.466,0.269l-1.56-0.009L2.51,28.508h2.144c0.16,0,0.288,0.131,0.284,0.291L4.71,29.693	c-0.085,0.195-0.278,0.321-0.491,0.321H1.03C0.852,30.014,0.719,29.85,0.756,29.675z"/><path fill="#e3c470" d="M10.112,18.636h1.191c0.186,0,0.325,0.171,0.286,0.353l-1.936,9.11	c-0.271,1.277-1.326,1.915-2.538,1.915c-1.222,0-1.868-0.638-1.597-1.915l1.962-9.232c0.029-0.135,0.148-0.231,0.286-0.231h1.065	c0.185,0,0.324,0.171,0.286,0.352l-1.843,8.806c-0.06,0.282,0.024,0.424,0.252,0.424c0.228,0,0.372-0.142,0.432-0.424l1.868-8.926	C9.855,18.733,9.974,18.636,10.112,18.636z"/><path fill="#e3c470" d="M12.99,30.014c-0.15,0-0.271-0.121-0.261-0.271c0.07-1.146-0.015-4.02,0.053-4.814l-0.367,0.01	l-0.969,4.779c-0.03,0.171-0.178,0.296-0.352,0.296h-0.956c-0.161,0-0.279-0.15-0.243-0.306l2.294-10.79	c0.035-0.164,0.18-0.282,0.348-0.282h1.902c0.692,0,1.17,0.155,1.436,0.463c0.266,0.309,0.32,0.837,0.161,1.583l-0.5,2.35	c-0.094,0.442-0.218,0.786-0.371,1.03c-0.153,0.244-0.635,0.426-0.894,0.564c-0.045,0.849,0.128,3.953,0.093,5.133	c-0.004,0.143-0.119,0.255-0.262,0.255H12.99z M14.438,20.682c0.076-0.359-0.056-0.539-0.397-0.539h-0.608l-0.729,3.429h0.622	c0.332,0,0.535-0.176,0.609-0.525L14.438,20.682z"/><path fill="#e3c470" d="M35.18,18.636h1.191c0.186,0,0.325,0.171,0.286,0.353l-1.936,9.11	c-0.271,1.277-1.326,1.915-2.538,1.915c-1.222,0-1.868-0.638-1.597-1.915l1.962-9.232c0.029-0.135,0.148-0.231,0.286-0.231h1.065	c0.185,0,0.324,0.171,0.286,0.352l-1.843,8.806c-0.06,0.282,0.024,0.424,0.252,0.424c0.228,0,0.372-0.142,0.432-0.424l1.868-8.926	C34.922,18.733,35.041,18.636,35.18,18.636z"/><path fill="#e3c470" d="M28.636,30.014c-0.15,0-0.271-0.121-0.261-0.271c0.07-1.146-0.015-4.02,0.053-4.814l-0.367,0.01	l-0.969,4.779c-0.03,0.171-0.178,0.296-0.352,0.296h-0.956c-0.161,0-0.279-0.15-0.243-0.306l2.294-10.79	c0.035-0.164,0.18-0.282,0.348-0.282h1.902c0.692,0,1.17,0.155,1.436,0.463c0.266,0.309,0.32,0.837,0.161,1.583l-0.5,2.35	c-0.094,0.442-0.218,0.786-0.371,1.03c-0.153,0.244-0.635,0.426-0.894,0.564c-0.045,0.849,0.128,3.953,0.093,5.133	c-0.004,0.143-0.119,0.255-0.262,0.255H28.636z M30.085,20.682c0.076-0.359-0.056-0.539-0.397-0.539H29.08l-0.729,3.429h0.622	c0.332,0,0.535-0.176,0.609-0.525L30.085,20.682z"/><path fill="#e3c470" d="M16.549,20.428c0.271-1.276,1.223-1.915,2.445-1.915c1.221,0,1.856,0.639,1.585,1.915l-1.631,7.672	c-0.271,1.277-1.177,1.915-2.399,1.915c-1.222,0-1.903-0.638-1.631-1.915L16.549,20.428z M18.929,20.573	c0.06-0.282-0.024-0.424-0.252-0.424s-0.372,0.142-0.432,0.424l-1.562,7.273c-0.06,0.282,0.024,0.424,0.252,0.424	s0.372-0.142,0.432-0.424L18.929,20.573z"/><path fill="#e3c470" d="M22.086,30.014c-0.15,0-0.261-0.141-0.225-0.287l2.043-9.585c0,0-1.012,0-1.386,0	c-0.19,0-0.202-0.196-0.186-0.275c0.067-0.32,0.208-0.979,0.208-0.979c0.031-0.147,0.161-0.253,0.312-0.253l4.207,0	c0.12-0.008,0.213,0.103,0.185,0.22l-0.269,1.049c-0.036,0.14-0.162,0.238-0.306,0.238h-1.259l-1.987,9.605	c-0.03,0.154-0.165,0.266-0.322,0.266H22.086z"/><path fill="#e3c470" d="M38.267,25.613c0.032-0.134,0.152-0.228,0.289-0.228h1.143c0.142,0,0.243,0.138,0.201,0.273	l-0.568,2.428c-0.14,0.656-0.375,1.141-0.706,1.457c-0.331,0.314-1.1,0.472-1.702,0.472c-1.24,0-1.883-0.791-1.613-2.059	l1.628-7.657c0.275-1.294,1.19-1.785,2.43-1.785c1.131,0,1.74,0.639,1.469,1.915l-0.451,2.107c-0.032,0.149-0.163,0.255-0.315,0.255	h-1.009c-0.141,0-0.243-0.136-0.202-0.272l0.443-2.09c0.06-0.282-0.024-0.424-0.252-0.424c-0.228,0-0.372,0.142-0.432,0.424	l-1.631,7.672c-0.06,0.282,0.023,0.424,0.251,0.424s0.372-0.142,0.432-0.424L38.267,25.613z"/><path fill="#e3c470" d="M43.401,30.014c-0.148,0-0.275-0.106-0.301-0.252l-0.792-4.448l-1.081,4.436	c-0.038,0.155-0.177,0.265-0.337,0.265h-1.107c-0.151,0-0.262-0.141-0.228-0.287l2.421-10.857c0.03-0.136,0.151-0.233,0.291-0.233	h1.189c0.149,0,0.256,0.144,0.213,0.287l-0.922,3.615l2.439-3.727c0.072-0.109,0.194-0.175,0.325-0.175l1.687-0.001	c0.143,0.034,0.203,0.205,0.113,0.321l-3.51,4.81l1.23,5.878c0.04,0.19-0.105,0.369-0.3,0.369H43.401z"/><path fill="#e3c470" d="M32.514,34.56c0.093-0.074,0.172-0.159,0.24-0.254c0.122-0.171,0.21-0.388,0.269-0.665l0.229-1.076 c0.14-0.661-0.072-1.025-0.275-1.215C32.722,31.115,32.345,31,31.824,31h-1.409l-0.074,0.35C30.105,31.131,29.78,31,29.334,31 c-0.197,0-0.372,0.031-0.539,0.072L28.81,31h-2.686H25.71h-1.134c-0.202,0-0.382,0.127-0.45,0.317l-1.505,4.201h-0.127L23.454,31 H22.3h-0.739h-1.605h-0.727h-2.614h-0.716h-1.177l-0.063,0.295C14.435,31.111,14.136,31,13.705,31 c-1.226,0-1.576,0.782-1.676,1.249l-0.162,0.761c-0.032,0.151-0.044,0.298-0.037,0.434c0.007,0.134,0.031,0.27,0.071,0.399 c0.039,0.13,0.096,0.259,0.168,0.385c0.01,0.018,0.021,0.037,0.032,0.055h-0.504l-0.318,1.496 c-0.116,0.549,0.058,0.889,0.225,1.078c0.231,0.26,0.6,0.393,1.095,0.393c0.329,0,0.597-0.075,0.835-0.186l-0.04,0.186h1.178h0.715 h3.342l0.053-0.249c0.227,0.148,0.501,0.249,0.87,0.249c0.267,0,0.497-0.05,0.708-0.125l-0.027,0.125h1.767h1.052h1.938h0.663 h1.229l0.132-0.621c0.031,0.06,0.041,0.132,0.084,0.186c0.234,0.289,0.613,0.435,1.128,0.435c0.359,0,0.652-0.089,0.908-0.224 l-0.048,0.224h2.839c0.253,0,0.462-0.195,0.477-0.447c0.025-0.419,0.061-1.017,0.074-1.27C32.493,35.213,32.505,34.89,32.514,34.56 z M14.114,33.813h0.01l-0.003,0.012C14.118,33.82,14.117,33.817,14.114,33.813z"/><path fill="#e3c470" d="M36.296,31.365C36.055,31.12,35.701,31,35.214,31c-0.446,0-0.815,0.103-1.095,0.304 c-0.3,0.216-0.5,0.55-0.595,0.997l-0.325,1.53h0.735c-0.021,0.021-0.042,0.043-0.063,0.064c-0.17,0.171-0.31,0.319-0.422,0.45 c-0.122,0.144-0.222,0.281-0.303,0.41c-0.09,0.145-0.162,0.297-0.214,0.452c-0.046,0.135-0.089,0.294-0.128,0.476l-0.333,1.568 h2.675c0.226,0,0.421-0.158,0.468-0.379l0.286-1.345h-1.13c0.004-0.007,0.008-0.013,0.012-0.02 c0.049-0.078,0.115-0.165,0.196-0.259c0.092-0.108,0.215-0.237,0.37-0.391c0.286-0.287,0.509-0.557,0.68-0.824 c0.188-0.291,0.315-0.589,0.378-0.887l0.133-0.627C36.646,32.025,36.563,31.638,36.296,31.365z"/><path fill="#080807" d="M13.109,35.162c0.014-0.066,0.019-0.126,0.016-0.179c-0.004-0.054-0.02-0.113-0.052-0.176 c-0.031-0.064-0.076-0.139-0.134-0.223c-0.059-0.085-0.136-0.192-0.232-0.325c-0.072-0.104-0.135-0.2-0.187-0.291 c-0.052-0.091-0.093-0.182-0.12-0.273c-0.028-0.091-0.044-0.182-0.049-0.275c-0.005-0.094,0.004-0.193,0.027-0.301l0.162-0.761 c0.119-0.558,0.507-0.836,1.166-0.836c0.347,0,0.579,0.068,0.696,0.204c0.118,0.136,0.146,0.347,0.085,0.632l-0.199,0.935h-0.743 l0.199-0.935c0.023-0.108-0.03-0.161-0.159-0.161c-0.129,0-0.205,0.054-0.228,0.161l-0.161,0.755 c-0.014,0.066-0.017,0.125-0.008,0.176c0.008,0.052,0.029,0.109,0.06,0.17c0.031,0.062,0.075,0.134,0.133,0.214 c0.057,0.08,0.13,0.182,0.217,0.306c0.084,0.12,0.151,0.228,0.202,0.326c0.051,0.097,0.09,0.189,0.116,0.278 c0.025,0.089,0.037,0.178,0.035,0.27c-0.002,0.091-0.015,0.191-0.038,0.303l-0.155,0.731c-0.058,0.272-0.179,0.48-0.363,0.625 c-0.185,0.144-0.45,0.217-0.797,0.217c-0.342,0-0.576-0.073-0.705-0.217c-0.128-0.144-0.163-0.353-0.105-0.625l0.23-1.084h0.773 l-0.23,1.084c-0.024,0.111,0.029,0.166,0.158,0.166c0.134,0,0.213-0.056,0.236-0.166L13.109,35.162z"/><path fill="#080807" d="M14.036,36.729l1.107-5.208h0.828l-1.107,5.208H14.036z"/><path fill="#080807" d="M17.454,36.729l0.312-1.468c0.062-0.291,0.124-0.58,0.188-0.868 c0.063-0.286,0.133-0.575,0.211-0.867c-0.046,0.144-0.098,0.298-0.156,0.465c-0.058,0.166-0.13,0.371-0.214,0.614 c-0.085,0.242-0.187,0.534-0.307,0.873c-0.121,0.34-0.266,0.757-0.437,1.25h-0.699l0.268-3.297 c-0.099,0.607-0.214,1.219-0.345,1.835l-0.311,1.462h-0.752l1.107-5.208h1.094c-0.048,0.467-0.09,0.873-0.125,1.215 c-0.035,0.342-0.066,0.636-0.093,0.883c-0.027,0.246-0.048,0.452-0.063,0.617c-0.015,0.165-0.029,0.302-0.042,0.414 s-0.025,0.206-0.033,0.282c-0.008,0.075-0.018,0.148-0.027,0.215c0.019-0.067,0.041-0.139,0.065-0.215 c0.024-0.076,0.053-0.171,0.087-0.285c0.034-0.114,0.078-0.254,0.13-0.417c0.053-0.165,0.119-0.371,0.199-0.617 c0.081-0.247,0.177-0.542,0.29-0.883c0.113-0.342,0.247-0.745,0.402-1.209h1.109l-1.107,5.208H17.454z"/><path fill="#080807" d="M20.846,31.521h0.811l-0.921,4.332c-0.124,0.584-0.519,0.876-1.185,0.876 c-0.671,0-0.945-0.292-0.82-0.876l0.921-4.332h0.819l-0.921,4.332c-0.027,0.129,0.022,0.193,0.147,0.193 c0.125,0,0.202-0.064,0.229-0.193L20.846,31.521z"/><path fill="#080807" d="M20.876,36.729l1.107-5.208h0.828l-0.96,4.518h0.927l-0.147,0.69H20.876z"/><path fill="#080807" d="M24.342,36.729l0.066-0.74H23.8l-0.263,0.74h-0.798l1.867-5.208h0.957l-0.393,5.208H24.342z M24.45,35.362c0.032-0.341,0.067-0.683,0.104-1.025c0.037-0.341,0.079-0.691,0.124-1.05c-0.211,0.709-0.434,1.4-0.669,2.075H24.45 z"/><path fill="#080807" d="M25.633,36.729l0.961-4.519h-0.608l0.147-0.689h2.035l-0.147,0.689h-0.6l-0.961,4.519H25.633z"/><path fill="#080807" d="M28.153,32.388c0.123-0.578,0.516-0.867,1.18-0.867c0.664,0,0.935,0.289,0.812,0.867l-0.739,3.475 c-0.123,0.578-0.517,0.867-1.18,0.867c-0.664,0-0.935-0.289-0.812-0.867L28.153,32.388z M29.335,32.388 c0.027-0.129-0.021-0.192-0.145-0.192c-0.124,0-0.199,0.064-0.227,0.192l-0.739,3.475c-0.027,0.128,0.021,0.191,0.145,0.191 c0.124,0,0.199-0.064,0.226-0.191L29.335,32.388z"/><path fill="#080807" d="M30.983,36.729c0.043-0.396,0.083-0.784,0.118-1.162c0.034-0.377,0.064-0.765,0.087-1.161h-0.137 l-0.494,2.323H29.73l1.107-5.208h0.987c0.38,0,0.646,0.07,0.798,0.212c0.152,0.142,0.192,0.383,0.12,0.724l-0.229,1.076 c-0.043,0.203-0.104,0.359-0.184,0.471c-0.079,0.112-0.189,0.2-0.329,0.263c-0.009,0.423-0.023,0.836-0.043,1.24 c-0.02,0.405-0.044,0.813-0.07,1.222H30.983z M31.906,32.457c0.035-0.164-0.041-0.246-0.229-0.246h-0.159l-0.334,1.57h0.167 c0.182,0,0.29-0.08,0.325-0.241L31.906,32.457z"/><path fill="#080807" d="M33.115,36.729l0.2-0.939c0.034-0.159,0.071-0.298,0.111-0.417c0.04-0.119,0.094-0.234,0.163-0.344 c0.068-0.11,0.154-0.226,0.258-0.347c0.103-0.121,0.235-0.26,0.393-0.419c0.128-0.129,0.239-0.247,0.335-0.354 s0.177-0.211,0.247-0.313c0.069-0.102,0.126-0.205,0.171-0.31c0.045-0.104,0.08-0.217,0.105-0.337l0.117-0.551 c0.028-0.13-0.021-0.194-0.147-0.194c-0.12,0-0.194,0.064-0.222,0.194l-0.194,0.914h-0.811l0.192-0.901 c0.067-0.317,0.197-0.545,0.389-0.682c0.192-0.138,0.456-0.206,0.791-0.206c0.335,0,0.572,0.069,0.71,0.21s0.174,0.366,0.108,0.679 l-0.133,0.626c-0.051,0.238-0.152,0.475-0.306,0.713c-0.153,0.239-0.357,0.484-0.611,0.739c-0.165,0.162-0.297,0.302-0.397,0.419 c-0.1,0.117-0.18,0.224-0.241,0.319c-0.061,0.097-0.105,0.188-0.134,0.276s-0.054,0.183-0.076,0.288l-0.054,0.256h1.179 l-0.145,0.683H33.115z"/><polygon fill="#e3c470" points="24.016,13.623 24.304,14.506 25.233,14.506 24.481,15.052 24.768,15.936 24.016,15.39 23.265,15.936 23.552,15.052 22.8,14.506 23.729,14.506"/><polygon fill="#e3c470" points="20.784,14.118 21.071,15.001 22,15.001 21.248,15.547 21.535,16.431 20.784,15.885 20.032,16.431 20.319,15.547 19.568,15.001 20.497,15.001"/><polygon fill="#e3c470" points="18.034,15.614 18.321,16.498 19.25,16.498 18.498,17.044 18.785,17.928 18.034,17.382 17.282,17.928 17.569,17.044 16.818,16.498 17.747,16.498"/><polygon fill="#e3c470" points="27.216,14.118 26.929,15.001 26,15.001 26.752,15.547 26.465,16.431 27.216,15.885 27.968,16.431 27.681,15.547 28.432,15.001 27.503,15.001"/><polygon fill="#e3c470" points="29.966,15.622 29.679,16.506 28.75,16.506 29.502,17.052 29.215,17.936 29.966,17.389 30.718,17.936 30.431,17.052 31.182,16.506 30.253,16.506"/><g><path fill="#080807" d="M6.56,18.643c0.139,0,0.252,0.114,0.251,0.253l-0.251,1.03c-0.063,0.136-0.199,0.222-0.348,0.222 H4.287l-0.705,3.316h1.619c0.176,0,0.318,0.143,0.317,0.319l-0.23,0.927c-0.096,0.166-0.274,0.269-0.466,0.269l-1.56-0.009 L2.51,28.508h2.144c0.16,0,0.288,0.131,0.284,0.291L4.71,29.693c-0.085,0.195-0.278,0.321-0.491,0.321H1.03 c-0.178,0-0.311-0.164-0.274-0.339l2.292-10.782c0.031-0.146,0.16-0.25,0.309-0.25H6.56 M6.56,18.143H3.357 c-0.383,0-0.718,0.272-0.798,0.646L0.267,29.571c-0.049,0.231,0.008,0.47,0.157,0.653c0.149,0.184,0.37,0.289,0.606,0.289h3.189 c0.412,0,0.784-0.244,0.949-0.621l0.016-0.037l0.01-0.039l0.228-0.894l0.014-0.055l0.001-0.057 c0.005-0.213-0.074-0.414-0.223-0.567c-0.149-0.152-0.348-0.236-0.561-0.236H3.128l0.539-2.535L4.82,25.48 c0.372,0,0.717-0.199,0.902-0.518L5.757,24.9l0.017-0.069l0.23-0.927l0.014-0.058l0-0.06c0.001-0.219-0.083-0.425-0.238-0.581 c-0.154-0.155-0.36-0.241-0.579-0.241H4.2l0.492-2.316h1.52c0.343,0,0.658-0.201,0.802-0.512l0.021-0.044l0.012-0.048l0.251-1.03 l0.014-0.057l0-0.058c0.002-0.202-0.076-0.392-0.218-0.535C6.951,18.222,6.762,18.143,6.56,18.143L6.56,18.143z"/><path fill="#080807" d="M11.303,18.636c0.186,0,0.324,0.171,0.286,0.353l-1.936,9.11c-0.271,1.277-1.326,1.915-2.538,1.915 c-1.222,0-1.868-0.638-1.597-1.915l1.962-9.232c0.029-0.135,0.148-0.232,0.286-0.232h1.065c0.185,0,0.324,0.171,0.286,0.352 l-1.843,8.806c-0.06,0.283,0.024,0.424,0.252,0.424c0.228,0,0.372-0.142,0.432-0.424l1.868-8.926 c0.028-0.135,0.148-0.232,0.286-0.232H11.303 M11.303,18.136h-1.191c-0.258,0-0.494,0.127-0.64,0.327 c-0.008-0.012-0.017-0.023-0.026-0.034c-0.151-0.186-0.375-0.293-0.615-0.293H7.766c-0.372,0-0.698,0.264-0.775,0.627l-1.962,9.232 c-0.2,0.941,0.058,1.51,0.31,1.821c0.258,0.318,0.775,0.698,1.775,0.698c1.564,0,2.724-0.885,3.027-2.311l1.936-9.11 c0.05-0.235-0.008-0.477-0.159-0.663C11.768,18.243,11.543,18.136,11.303,18.136L11.303,18.136z"/><path fill="#080807" d="M14.437,18.636c0.692,0,1.17,0.155,1.436,0.463c0.266,0.309,0.32,0.837,0.161,1.583l-0.5,2.35 c-0.094,0.442-0.218,0.786-0.371,1.03c-0.153,0.244-0.635,0.426-0.894,0.564c-0.045,0.849,0.128,3.953,0.093,5.133 c-0.004,0.143-0.119,0.255-0.262,0.255H12.99c-0.15,0-0.271-0.121-0.261-0.271c0.07-1.146-0.015-4.02,0.053-4.814l-0.367,0.01 l-0.969,4.779c-0.03,0.171-0.178,0.296-0.352,0.296h-0.956c-0.161,0-0.279-0.15-0.243-0.306l2.294-10.79 c0.035-0.164,0.18-0.282,0.348-0.282H14.437 M12.705,23.572h0.622c0.332,0,0.535-0.176,0.609-0.526l0.503-2.365 c0.076-0.359-0.056-0.539-0.397-0.539h-0.608L12.705,23.572 M14.437,18.136h-1.902c-0.402,0-0.754,0.285-0.837,0.678l-2.294,10.79 c-0.05,0.215,0.002,0.447,0.145,0.627c0.143,0.18,0.357,0.283,0.587,0.283h0.956c0.417,0,0.772-0.298,0.844-0.709l0.321-1.581 c-0.001,0.594-0.007,1.131-0.029,1.489c-0.013,0.206,0.061,0.411,0.203,0.561c0.143,0.152,0.347,0.24,0.558,0.24h1.111 c0.415,0,0.75-0.325,0.762-0.74c0.018-0.606-0.017-1.685-0.051-2.728c-0.026-0.794-0.052-1.609-0.05-2.104 c0.299-0.145,0.645-0.326,0.825-0.614c0.186-0.297,0.329-0.687,0.437-1.192l0.5-2.35c0.195-0.916,0.106-1.574-0.271-2.013 C15.887,18.35,15.277,18.136,14.437,18.136L14.437,18.136z M13.838,20.643h0.097l-0.489,2.3c-0.017,0.079-0.039,0.114-0.046,0.119 c-0.004,0.002-0.027,0.01-0.074,0.01h-0.004L13.838,20.643L13.838,20.643z"/><path fill="#080807" d="M18.994,18.513c1.221,0,1.856,0.639,1.585,1.915l-1.631,7.672c-0.271,1.277-1.177,1.915-2.399,1.915 c-1.222,0-1.903-0.638-1.631-1.915l1.631-7.672C16.82,19.152,17.772,18.513,18.994,18.513 M16.935,28.27 c0.228,0,0.372-0.142,0.432-0.424l1.562-7.273c0.06-0.283-0.024-0.424-0.252-0.424c-0.228,0-0.372,0.142-0.432,0.424l-1.562,7.273 C16.623,28.128,16.707,28.27,16.935,28.27 M18.994,18.013c-1.53,0-2.627,0.864-2.934,2.311l-1.631,7.672 c-0.197,0.928,0.063,1.495,0.316,1.808c0.263,0.324,0.789,0.711,1.805,0.711c1.501,0,2.58-0.864,2.888-2.311l1.631-7.672 c0.161-0.759,0.057-1.373-0.309-1.826C20.503,18.39,19.989,18.013,18.994,18.013L18.994,18.013z"/></g><g><path fill="#080807" d="M36.371,18.636c0.186,0,0.325,0.171,0.286,0.353l-1.936,9.11c-0.271,1.277-1.326,1.915-2.538,1.915 c-1.222,0-1.868-0.638-1.597-1.915l1.962-9.232c0.029-0.135,0.148-0.232,0.286-0.232h1.065c0.186,0,0.324,0.171,0.286,0.352 l-1.843,8.806c-0.06,0.283,0.024,0.424,0.252,0.424c0.228,0,0.372-0.142,0.432-0.424l1.868-8.926 c0.028-0.135,0.148-0.232,0.286-0.232H36.371 M36.371,18.136H35.18c-0.258,0-0.494,0.127-0.64,0.327 c-0.008-0.012-0.017-0.023-0.026-0.034c-0.151-0.186-0.375-0.293-0.615-0.293h-1.065c-0.372,0-0.698,0.264-0.775,0.628 l-1.962,9.232c-0.2,0.941,0.058,1.51,0.31,1.821c0.258,0.318,0.775,0.698,1.775,0.698c1.564,0,2.724-0.885,3.027-2.311l1.936-9.11 c0.05-0.235-0.008-0.477-0.159-0.663C36.835,18.243,36.611,18.136,36.371,18.136L36.371,18.136z"/><path fill="#080807" d="M30.084,18.636c0.692,0,1.17,0.155,1.436,0.463c0.266,0.309,0.32,0.837,0.161,1.583l-0.5,2.35 c-0.094,0.442-0.218,0.786-0.371,1.03c-0.153,0.244-0.635,0.426-0.894,0.564c-0.045,0.849,0.128,3.953,0.093,5.133 c-0.004,0.143-0.119,0.255-0.262,0.255h-1.111c-0.15,0-0.271-0.121-0.261-0.271c0.07-1.146-0.015-4.02,0.053-4.814l-0.367,0.01 l-0.969,4.779c-0.03,0.171-0.178,0.296-0.352,0.296h-0.956c-0.161,0-0.279-0.15-0.243-0.306l2.294-10.79 c0.035-0.164,0.18-0.282,0.348-0.282H30.084 M28.351,23.572h0.622c0.332,0,0.535-0.176,0.609-0.526l0.503-2.365 c0.076-0.359-0.056-0.539-0.397-0.539H29.08L28.351,23.572 M30.084,18.136h-1.902c-0.402,0-0.754,0.285-0.837,0.678l-2.294,10.79 c-0.05,0.215,0.002,0.447,0.145,0.627c0.143,0.18,0.357,0.283,0.587,0.283h0.956c0.417,0,0.772-0.298,0.844-0.71l0.321-1.581 c-0.001,0.594-0.007,1.131-0.029,1.49c-0.013,0.206,0.061,0.411,0.203,0.561c0.143,0.152,0.347,0.24,0.558,0.24h1.111 c0.415,0,0.75-0.325,0.762-0.74c0.018-0.607-0.017-1.685-0.051-2.728c-0.026-0.794-0.052-1.61-0.05-2.104 c0.299-0.145,0.645-0.326,0.825-0.614c0.186-0.297,0.329-0.687,0.437-1.192l0.5-2.35c0.195-0.916,0.106-1.574-0.271-2.013 C31.534,18.35,30.923,18.136,30.084,18.136L30.084,18.136z M29.485,20.643h0.097l-0.489,2.3c-0.017,0.079-0.039,0.114-0.046,0.119 c0,0,0,0,0,0c0,0-0.019,0.01-0.074,0.01h-0.004L29.485,20.643L29.485,20.643z"/><path fill="#080807" d="M22.853,18.636l4.207,0c0.004,0,0.008,0,0.012,0c0.114,0,0.2,0.108,0.173,0.221l-0.269,1.049 c-0.036,0.14-0.162,0.238-0.306,0.238h-1.259l-1.987,9.605c-0.029,0.154-0.165,0.266-0.322,0.266h-1.016 c-0.15,0-0.26-0.141-0.225-0.286l2.043-9.585c0,0-1.012,0-1.386,0c-0.19,0-0.202-0.196-0.186-0.275 c0.066-0.32,0.208-0.979,0.208-0.979C22.572,18.741,22.702,18.636,22.853,18.636 M22.853,18.136L22.853,18.136 c-0.384,0-0.721,0.273-0.801,0.649c0,0-0.142,0.66-0.209,0.981c-0.036,0.175-0.017,0.432,0.144,0.631 c0.129,0.158,0.317,0.246,0.531,0.246h0.768l-1.914,8.98c-0.05,0.205-0.001,0.433,0.138,0.611c0.14,0.178,0.349,0.28,0.575,0.28 h1.016c0.397,0,0.739-0.283,0.813-0.672l1.903-9.199h0.851c0.373,0,0.698-0.252,0.791-0.613l0.269-1.049 c0.051-0.209,0.006-0.42-0.124-0.585c-0.129-0.165-0.324-0.26-0.533-0.26H22.853L22.853,18.136z"/><path fill="#080807" d="M39.369,18.513c1.131,0,1.74,0.639,1.469,1.915l-0.451,2.107c-0.032,0.149-0.163,0.255-0.315,0.255 h-1.009c-0.141,0-0.243-0.136-0.202-0.272l0.443-2.09c0.06-0.282-0.024-0.424-0.252-0.424c-0.228,0-0.372,0.142-0.432,0.424 l-1.631,7.672c-0.06,0.283,0.023,0.424,0.251,0.424c0.228,0,0.372-0.142,0.432-0.424l0.594-2.486 c0.032-0.134,0.152-0.228,0.289-0.228h1.143c0.142,0,0.243,0.138,0.201,0.273l-0.568,2.428c-0.14,0.656-0.375,1.141-0.706,1.457 c-0.331,0.314-1.1,0.471-1.702,0.471c-1.24,0-1.883-0.791-1.613-2.059l1.628-7.657C37.213,19.003,38.129,18.513,39.369,18.513 M39.369,18.013c-2.03,0-2.708,1.186-2.919,2.181l-1.628,7.657c-0.209,0.984,0.075,1.595,0.35,1.934 c0.386,0.477,0.992,0.729,1.753,0.729c0.648,0,1.573-0.159,2.047-0.609c0.405-0.386,0.691-0.963,0.851-1.716l0.566-2.418 c0.057-0.18,0.018-0.417-0.116-0.598c-0.133-0.181-0.347-0.289-0.572-0.289h-1.143c-0.143,0-0.278,0.037-0.395,0.104l0.404-1.902 c0.132,0.128,0.311,0.203,0.497,0.203h1.009c0.385,0,0.723-0.273,0.804-0.65l0.451-2.107c0.205-0.965-0.054-1.54-0.308-1.853 C40.773,18.375,40.287,18.013,39.369,18.013L39.369,18.013z"/><path fill="#080807" d="M47.199,18.636c0.143,0.034,0.203,0.205,0.113,0.321l-3.51,4.81l1.23,5.878 c0.04,0.19-0.105,0.369-0.3,0.369h-1.332c-0.148,0-0.275-0.106-0.301-0.253l-0.792-4.448l-1.081,4.436 c-0.038,0.155-0.177,0.265-0.337,0.265h-1.107c-0.151,0-0.262-0.141-0.228-0.287l2.421-10.857c0.03-0.136,0.151-0.233,0.291-0.233 h1.189c0.149,0,0.256,0.144,0.214,0.287l-0.922,3.615l2.439-3.727c0.071-0.109,0.193-0.175,0.323-0.175c0.001,0,0.001,0,0.002,0 L47.199,18.636 M47.258,18.136l-0.059,0l-1.687,0.001c-0.301,0-0.578,0.15-0.743,0.401l-0.794,1.213l0.18-0.704 c0.06-0.198,0.018-0.437-0.118-0.619c-0.136-0.182-0.353-0.291-0.58-0.291h-1.189c-0.377,0-0.697,0.257-0.779,0.624l-2.421,10.857 c-0.05,0.214,0,0.441,0.14,0.618c0.14,0.177,0.35,0.278,0.575,0.278h1.107c0.392,0,0.73-0.266,0.823-0.646l0.519-2.129l0.376,2.111 c0.069,0.385,0.402,0.665,0.794,0.665h1.332c0.244,0,0.472-0.109,0.626-0.298c0.154-0.189,0.213-0.435,0.163-0.673l-1.185-5.661 l3.379-4.631c0.138-0.178,0.178-0.426,0.099-0.652c-0.079-0.226-0.266-0.394-0.499-0.45L47.258,18.136L47.258,18.136z"/></g></svg>