<svg xmlns="http://www.w3.org/2000/svg"  viewBox="0 0 48 48" width="1600px" height="1600px" baseProfile="basic"><rect width="48" height="2" y="10" fill="#00796b"/><rect width="48" height="2" y="38" fill="#00796b"/><path fill="#00796b" d="M15.093,20.913h-0.061l-0.005,0.02h-1.711h-0.032h-0.227c-1.481,0-2.778,0.995-3.161,2.426	L9.57,24.581h2.771l0.244-0.912c0.006-0.018,0.013-0.033,0.019-0.058c0.007-0.032,0.015-0.065,0.023-0.098l0.105-0.392	c0.142-0.442,0.378-0.808,0.956-0.808c0.678,0,0.652,1.17,0.497,1.746l0.007,0.003l-0.48,1.795h-1.711h-0.108h-0.072	c-1.528,0-2.865,1.027-3.26,2.502l-0.724,2.708c-0.285,1.066,0.518,2.112,1.621,2.112h0.082l-0.005,0.013	c0.745,0.025,1.781-0.619,2.556-1.272l-0.337,1.259h2.771l2.581-9.649C17.456,22.21,16.461,20.913,15.093,20.913z M12.503,30.37	c-0.464,1.134-1.815,1.015-1.634-0.288l0.418-1.561c0.383-1.079,1.013-1.402,2.011-1.191l0.022-0.012L12.503,30.37z M8.217,25.831	h-3.48l-1.965,7.348H0l4.586-17.145h1.546h1.225h4.49l-0.599,2.449H6.702l-1.31,4.899h3.425L8.217,25.831z M28.69,20.855h1.842	l-5.899,6.673l1.198-4.477C26.177,21.755,27.35,20.855,28.69,20.855z M31.78,21.059c0.815,0.4,1.298,1.338,1.043,2.291l-0.659,2.463	h-3.422l3.276-6.407l0.014-0.018L31.78,21.059z M48,20.933l-0.477,1.87h-1.516l-2.049,7.579c-0.105,0.388,0.185,0.77,0.586,0.774	l0.73,0.008l-0.546,2.016h-2.032c-1.739,0-1.896-1.388-1.497-2.895l1.996-7.482H42.09l0.477-1.87h1.126l0.82-3.075l3.205-1.388	l-1.206,4.462H48z M41.605,20.933L38.33,33.179h-2.771l0.29-1.084c-0.745,0.588-1.666,1.12-2.344,1.097l0.008-0.02	c-1.144-0.037-1.968-1.126-1.669-2.242l0.688-2.571c0.018-0.066,0.047-0.126,0.068-0.19l1.936-7.237h2.771l-2.309,8.633h-0.017	l-0.138,0.516c-0.151,1.088,0.767,1.353,1.345,0.75l2.648-9.899H41.605z M32.012,26.381l-1.181,4.415	c-0.364,1.359-1.568,2.309-2.962,2.372l-1.519,0.81L32.012,26.381z M22.869,16.034l-4.586,17.145h-2.771l4.586-17.145H22.869z M26.717,16.034l-4.586,17.145H19.36l4.586-17.145H26.717z M25.892,33.179c-1.398,0-2.416-1.326-2.055-2.677l0.727-2.717h3.476	l-1.884,5.394H25.892z"/></svg>