<svg xmlns="http://www.w3.org/2000/svg"  viewBox="0 0 48 48" width="1600px" height="1600px"><path fill="#ffc107" d="M34.926,17.541H32.98v2.555h0.94c0.511,0,0.734,0.404,0.734,0.734v9.595h3.1V20.377	C37.762,18.745,36.558,17.541,34.926,17.541z"/><path fill="#ffc107" d="M43.639,17.409c2.795,0,4.171,1.294,4.171,3.561c0,2.16-1.624,2.844-1.624,2.844S48,24.458,48,26.848	c0,1.517-0.519,3.743-4.369,3.743s-4.369-2.226-4.369-3.743c0-2.391,1.814-3.034,1.814-3.034s-1.624-0.684-1.624-2.844	C39.468,18.704,40.845,17.409,43.639,17.409z M43.639,22.702c0.338,0,0.627-0.016,0.932-0.305s0.28-0.882,0.28-1.146	c0-0.478-0.016-0.783-0.305-1.072c-0.206-0.214-0.552-0.28-0.907-0.28s-0.701,0.066-0.907,0.28	c-0.289,0.297-0.305,0.594-0.305,1.072c0,0.264-0.033,0.849,0.28,1.146C43.021,22.693,43.301,22.702,43.639,22.702z M43.639,28.101	c0.528,0,0.725-0.091,0.89-0.206c0.28-0.198,0.42-0.478,0.42-1.294c0-0.503-0.025-0.948-0.371-1.22	c-0.289-0.223-0.552-0.223-0.948-0.223c-0.396,0-0.659,0-0.948,0.231c-0.346,0.272-0.371,0.717-0.371,1.22	c0,0.816,0.148,1.096,0.42,1.294C42.914,28.01,43.112,28.101,43.639,28.101L43.639,28.101z"/><path fill="#37474f" d="M28.026,17.508h-2.737c-1.624,0-2.828,1.204-2.828,2.828v10.049h3.108v-9.587	c0-0.33,0.223-0.734,0.734-0.734h0.734c0.511,0,0.734,0.313,0.734,0.734v2.646h-1.64v2.555h1.64v4.386h3.1V20.344	C30.862,18.712,29.658,17.508,28.026,17.508L28.026,17.508z"/><path fill="#37474f" d="M13.526,20.36v10.032h3.133v-5.152h3.495v-2.58H16.65v-1.838c0-0.33,0.223-0.742,0.734-0.742h4.048	v-2.572h-5.053C14.738,17.508,13.526,18.72,13.526,20.36z"/><path fill="#37474f" d="M9.099,17.508h3.124v12.876H9.099V17.508z"/><path fill="#37474f" d="M0.081,20.36v10.032h3.133v-5.152h3.495v-2.58H3.213v-1.838c0-0.33,0.223-0.742,0.734-0.742h4.048	v-2.572H2.933C1.292,17.508,0.081,18.72,0.081,20.36z"/></svg>