<svg xmlns="http://www.w3.org/2000/svg"  viewBox="0 0 48 48" width="1600px" height="1600px"><path fill="#9e9e9e" d="M25.569,15.563c-0.43-0.92-1.18-1.68-2.12-2.11c-0.43-0.21-0.9-0.34-1.4-0.39l-10.039-1.04 c-2.42-0.25-4.579,1.52-4.829,3.949l-2.16,21.115c-0.24,2.429,1.51,4.599,3.929,4.849l10.039,1.04c2.42,0.25,4.579-1.52,4.829-3.949 l2.16-21.115C26.059,17.072,25.909,16.273,25.569,15.563z M16.5,21c-1.38,0-2.5-1.12-2.5-2.5s1.12-2.5,2.5-2.5 c0.1,0,0.21,0.01,0.31,0.02c1.23,0.15,2.19,1.2,2.19,2.48c0,0.71-0.3,1.36-0.78,1.82C17.78,20.74,17.17,21,16.5,21z"/><path fill="#424242" d="M18.634,17.193C18.195,16.477,17.402,16,16.5,16c0,0-0.633-0.337-1.32-0.902l-0.338-0.273 c-2.855-2.28-6.722-6.854-8.27-8.819L5.002,7.245c0.754,0.957,7.47,9.388,11.135,10.696C16.246,17.98,16.359,18,16.473,18 c0.123,0,0.245-0.022,0.36-0.067C16.875,17.917,17.576,17.643,18.634,17.193z"/><path fill="#757575" d="M20.03,12.85L16,12.43c-0.01,0.7,0.1,1.4,0.32,2.08l0.49,1.51c1.23,0.15,2.19,1.2,2.19,2.48 c0,0.71-0.3,1.36-0.78,1.82l4.67,14.27c0.26,0.8,0.66,1.51,1.17,2.11l0.89-8.69L20.03,12.85z"/><path fill="#bdbdbd" d="M42.781,28.114L36.209,8.033c-0.755-2.308-3.244-3.568-5.558-2.815l-9.609,3.126 c-2.315,0.753-3.579,3.234-2.823,5.542l6.572,20.081c0.755,2.308,3.244,3.568,5.558,2.815l9.609-3.126 C42.273,32.903,43.537,30.422,42.781,28.114z M27.5,14c-1.381,0-2.5-1.119-2.5-2.5c0-1.381,1.119-2.5,2.5-2.5s2.5,1.119,2.5,2.5 C30,12.881,28.881,14,27.5,14z"/><path fill="#424242" d="M26.001,13.507c1.759-1.285,8.439-6.252,11.988-10.134l-1.476-1.35 c-3.271,3.578-9.552,8.291-11.501,9.725C25.083,12.468,25.451,13.098,26.001,13.507z"/><path fill="#eceff1" d="M33.303 32.542c0 0-1.007-3.593-1.405-4.771-.355-1.051-1.586-4.144-1.586-4.144L32.238 23c0 0 .895 3.19 1.325 4.344C34.851 30.804 35.729 32 35.729 32L33.303 32.542zM33.375 18c-.564-.002-1.255.068-1.927.191L31.313 17l-4 1.303.585.932c-.075.027-.127.046-.148.054C24.125 20.625 24 23.006 24 23.006c1.125-1.25 3-1.718 4.75-2.343.012-.004.024-.009.036-.013l1.152 1.835 1.925-.627-.244-2.15c1.457-.474 2.27-.939 4.755-.702L37 18.797C35.9 18.346 34.743 18.005 33.375 18z"/><path fill="#cfd8dc" d="M19.625,33c-0.25,0-0.375,0.25-0.375,0.25c-2.418-0.346-3.284-0.929-3.589-1.257l0.337-2.585 c0.015-0.114-0.051-0.225-0.158-0.266l-1.497-0.576C14.635,26.905,15,25.125,15,25.125L14.625,25l0-1l-1.249-0.375V23.25L12.125,23 l-0.119,0.516C11.261,23.532,11,24.375,11,24.375l0.5,0.25l-0.25,1l0.503,0.288L11,31.163l-0.25-0.038l-0.25,1.5h-0.375L10,34 c0,0,0.249,0,0.499,0C10.69,34,11,34.124,11,34.493c0,0.091-0.021,0.196-0.082,0.315c-0.188,0.363-0.292,0.428-0.293,0.692 C10.625,35.875,11,36,11,36s0.303-0.599,0.75-0.375c0.5,0.25,0.875,0.5,0.875,0.75S12.125,37,12.125,37s1.27,0.067,1.5-0.625 c0.125-0.375,0-0.5,0-0.875s0.424-0.502,0.634-0.5c0.07,0.001,0.141,0.016,0.208,0.048c0,0,2.032,1.952,3.658,1.952 c0.243,0,0.25-0.5,0.375-0.5s0.125,0.125,0.375,0.125s1.125-3,1.125-3.25C20,33.125,19.874,33,19.625,33z M13.995,30.996 c0.181-0.008,0.536-0.035,0.834-0.134c0.131-0.044,0.202-0.186,0.158-0.316c-0.044-0.131-0.186-0.2-0.316-0.158 c-0.211,0.071-0.465,0.095-0.63,0.105c0.049-0.396,0.125-0.892,0.215-1.424l1.22,0.47l-0.318,2.437C15.109,31.986,15.065,32,15,32 C14.101,32,13.987,31.378,13.995,30.996z"/></svg>