<svg xmlns="http://www.w3.org/2000/svg"  viewBox="0 0 48 48" width="1600px" height="1600px"><polygon fill="#212121" points="0,36 6.794,25.324 15,27 10,35"/><path fill="#212121" d="M10,21h30c0,0,6-1.096,8-6.048L18,15C18,15,13,15,10,21z"/><polygon fill="#212121" points="25,23 2,23 18,26 14,32 20.02,30.968"/><polygon fill="#212121" points="32,23 27,23 21.903,30.645 27.86,29.624"/><path fill="#212121" d="M40,23h-6l-4.194,6.29l3.064-0.525c1.942-0.333,3.694-1.37,4.917-2.915C38.89,24.457,40,23,40,23z"/></svg>