<svg xmlns="http://www.w3.org/2000/svg"  viewBox="0 0 48 48" width="1600px" height="1600px"><path fill="#e53935" d="M45,22.5c0,1.25-4,7.5-4,7.5H15c-1.75-2.75-6.75-13.75-6-18.5C9.6,7.72,31.52,5.71,37,9	C39.5,10.5,45,21.25,45,22.5z"/><path fill="#ad1457" d="M45,22.5c0,1.25-4,7.5-4,7.5h-9c-0.5-7.75,0.5-15.25,1.5-18S36,8.5,37,9C39.5,10.5,45,21.25,45,22.5z"/><path fill="#fedfbe" d="M44.79,32.83c-0.2,0.63-0.43,1.21-0.69,1.72c-0.26,0.51-0.95,0.61-1.37,0.22	C42.1,34.2,40.75,33,40,32.5c-1.17,0.89-2.4,1.67-3.65,2.36C27.69,39.62,17.75,40,16,40c-2,0-7-0.75-7-2.5s3-3,5-3.5l-0.99-2.07	l-0.93-1.95c3.3-1.89,9.67-4.23,13.42-5.48C29,26,34,29,34,29h6c0,0,2.38-2.16,4.92-4.88c0.23-0.23,0.63-0.1,0.66,0.22	C45.8,27.37,45.52,30.49,44.79,32.83z"/><path fill="#f49687" d="M44.79,32.83c-0.2,0.63-0.43,1.21-0.69,1.72c-0.26,0.51-0.95,0.61-1.37,0.22	C42.1,34.2,40.75,33,40,32.5c-1.17,0.89-2.4,1.67-3.65,2.36L35.5,33.5L33,35.25l-4-6.75l-5.5,5l-1-5.5l-9.49,3.93l-0.93-1.95	c3.3-1.89,9.67-4.23,13.42-5.48C29,26,34,29,34,29h6l3.5-0.75c0.25,2-0.5,3.25-0.5,3.25L44.79,32.83z"/><path fill="#29b6f6" d="M29,26l-4,4l-1.75-4.75c-2.75,1-8,3-11.17,4.73c0,0,0.17,0.52,0.67,1.52	c-1.31,0.19-4.29,1.49-6.44,2.97C5.58,34.97,4.95,35.49,4.5,36C5,31.5,6.75,29,9,27c-2.75,0.25-5.5,0.75-8,2	c1.75-4,7.75-13.25,9.5-13.5s5,1.75,8,3.5c0-2.25,1-5,3.5-7C23,18,26,23,29,26z"/><path fill="#fff" d="M25.25,36.25c3,0.25,5.5-0.5,6.25-0.75c0.5-1,0.75-2.75,0.75-3.5C31,32.25,30.5,32.5,30,33.25	S27.25,35.5,25.25,36.25z"/><path fill="#263238" d="M22.769,36.779c-1.118,0-2.022-0.143-2.454-0.315c-0.256-0.103-0.381-0.394-0.279-0.649	c0.103-0.257,0.396-0.382,0.65-0.278c1.114,0.443,7.523,0.661,9.362-3.249c0.118-0.25,0.415-0.355,0.666-0.239	c0.25,0.117,0.357,0.415,0.24,0.665C29.43,35.947,25.475,36.779,22.769,36.779z"/><path fill="#263238" d="M28.5,33.75c-0.17,0-0.335-0.087-0.429-0.243c-0.142-0.236-0.065-0.544,0.171-0.686	c1.297-0.778,3.15-1.321,4.507-1.321c0.276,0,0.5,0.224,0.5,0.5s-0.224,0.5-0.5,0.5c-1.194,0-2.836,0.484-3.993,1.179	C28.677,33.728,28.588,33.75,28.5,33.75z"/><path fill="#263238" d="M42.5,33c-0.157,0-0.305-0.073-0.4-0.2c-0.771-1.027-1.303-1.828-1.574-2.642	c-0.06-0.18-0.013-0.378,0.121-0.512c0.509-0.51,1.549-1.304,2.63-1.844c0.154-0.077,0.338-0.069,0.486,0.021	C43.91,27.916,44,28.077,44,28.25c0,1.262-0.492,3.352-1.053,4.474c-0.078,0.155-0.23,0.259-0.402,0.274	C42.53,32.999,42.515,33,42.5,33z M41.587,30.136c0.177,0.413,0.443,0.849,0.789,1.345c0.237-0.691,0.452-1.559,0.556-2.336	C42.412,29.471,41.931,29.832,41.587,30.136z"/><path fill="#18ffff" d="M5.5,26.5c3.25-1.75,8-2.25,9-2.25c-1.45,1.21-5.23,5.21-8.19,10.22C5.58,34.97,4.95,35.49,4.5,36	C5,31.5,6.75,29,9,27c-2.75,0.25-5.5,0.75-8,2c1.75-4,7.75-13.25,9.5-13.5s5,1.75,8,3.5c0-2.25,1-5,3.5-7c-2,4-1.75,7-1.5,10.5	c-2-1.25-7.5-3-8.75-2.5S6.25,25.25,5.5,26.5z"/><path fill="#263238" d="M17,27.5c-0.25,1.5,0.25,4.25,1.5,6s2.25,1.25,2,0s-0.25-2.75-0.25-3.25C19.5,29.5,17,27.5,17,27.5z"/><path fill="#263238" d="M25,29.75c0,0.75,0.25,2.5,1,3.5s1.5,1.018,1.5-0.75c0-2,0.25-4.25,1.5-7.25	C28,26.5,25.5,29,25,29.75z"/><path fill="#263238" d="M23,32.5c-0.076,0-0.152-0.018-0.224-0.053c-4.912-2.456-9.521-8.317-11.724-12.724	c-0.124-0.247-0.023-0.547,0.224-0.671c0.247-0.125,0.547-0.023,0.671,0.224c2.079,4.157,6.351,9.643,10.926,12.095	c5.586-6.675,10.277-11.347,14.333-14.276c0.225-0.163,0.536-0.111,0.698,0.112c0.162,0.224,0.111,0.537-0.112,0.698	c-4.05,2.925-8.763,7.641-14.409,14.415C23.287,32.438,23.145,32.5,23,32.5z"/><path fill="#263238" d="M23,36.75c-0.276,0-0.5-0.224-0.5-0.5s0.224-0.5,0.5-0.5c3.812,0,6.714-0.229,8.068-0.633l0.07-0.341	c0.194-0.938,0.362-1.749,0.362-2.526c0-0.276,0.224-0.5,0.5-0.5s0.5,0.224,0.5,0.5c0,0.88-0.177,1.736-0.383,2.729l-0.127,0.619	c-0.034,0.17-0.153,0.31-0.314,0.37C29.861,36.648,25.461,36.75,23,36.75z"/><path fill="#29b6f6" d="M40,29v7c-1.75-2.25-3.25-4-6-6c-0.5,1.75-1,3-1,3c-1.21-1.94-3.83-6.69-3.99-6.99L29,26L40,29z"/><path fill="#18ffff" d="M33,33c-1.21-1.94-3.83-6.69-3.99-6.99L32,29L33,33z"/></svg>