<svg xmlns="http://www.w3.org/2000/svg"  viewBox="0 0 48 48" width="1600px" height="1600px"><ellipse cx="24.25" cy="22.75" fill="#d50000" rx="13.081" ry="24.042" transform="rotate(-45.001 24.25 22.75)"/><path fill="#00b0ff" d="M45,20c-1.335,2.002-3.667,3.482-5,4l3-10c0,0-11-6-19-7c0,0-11,2-17,6c0,0-0.967,0.883,0,5l-5,8 l0.713-0.428C4.612,24.433,6.836,23.382,9,23c0.28,0.78,0.643,2.107,1,3c-3.816,4.101-4,10-4,10c1.32-1.32,1.669-2.046,3-3l5,2 c0,0-5,6,10,6c5.099,0,10.573-4.211,12.417-6.251L38,36v-4c2,3,4,3,4,3l-2-6C45,25,45,20,45,20z"/><path fill="#f5f5f5" d="M37.5,35.207l-4.354-4.354c-0.195-0.195-0.195-0.512,0-0.707s0.512-0.195,0.707,0l2.646,2.646V31 c0-0.276,0.224-0.5,0.5-0.5s0.5,0.224,0.5,0.5V35.207z"/><path fill="#f5f5f5" d="M39.585,24.234L39.585,24.234c0.64,0.765,1.745,0.993,2.606,0.491 c1.098-0.641,2.402-1.811,2.708-3.834C44.899,20.891,42.266,23.872,39.585,24.234z"/><path fill="#f5f5f5" d="M8.703,33.224C8.703,33.224,9,26,17,24c0,0-3-3-8,3c-1.575,1.89-2.14,3.726-2.55,6.152L6.027,35.66 L8.703,33.224z"/><path fill="#fafafa" d="M15.346,31.144c0,0,1.692,5.206,2.654,4.856s0.856-2.606,0.856-2.606L15.346,31.144z"/><polygon fill="#fafafa" points="21.824,31.734 25.479,26.596 25.91,27 25,32.932 24.234,33.197"/><path fill="#fafafa" d="M27.484,36.186C27.484,36.186,29,32,29,31h2c0.399,0.239,3,2,1,4L27.484,36.186z"/><path fill="#f5f5f5" d="M10.312,13.517C12.866,12.588,18.718,10.509,24,9V7l-10,3l-7,3v5l2-1v-1.605 C9,14.555,9.523,13.804,10.312,13.517z"/><path fill="#f5f5f5" d="M7,23c0,0,4-8,12.25-4.297c0,0-7.827-7.495-14.538,2.901l-2.528,4.044L7,23z"/><path fill="#f5f5f5" d="M13.399,30.465l2.072,4.409c0.197,0.418,0.155,0.951-0.195,1.253C15.112,36.27,14.988,36.531,15,37 c0.016,0.606-0.342,1.781,4.25,3.479c0,0-8.269-1.612-5.085-5.753L12.298,31L13.399,30.465z"/><path fill="#212121" d="M28.902,30.51c-0.22,0.044-0.384,0.229-0.4,0.454c-0.476,6.514-6.038,7.763-6.274,7.812 c-0.27,0.057-0.443,0.321-0.386,0.592c0.049,0.235,0.257,0.397,0.488,0.397c0.034,0,0.068-0.003,0.102-0.011 c0.041-0.008,2.622-0.576,4.66-2.812c4.871-0.859,5.875-2.231,6.038-2.975c0.081-0.364,0.03-0.748-0.16-1.21 C32.048,30.521,29.909,30.308,28.902,30.51z M32.152,33.752c-0.003,0.014-0.03,0.106-0.139,0.248H30.5c-0.276,0-0.5,0.224-0.5,0.5 c0,0.27,0.214,0.486,0.482,0.496c-0.592,0.249-1.386,0.507-2.47,0.746c0.712-1.114,1.26-2.52,1.45-4.288 c0.415-0.028,1.128,0.051,1.75,0.546H30.5c-0.276,0-0.5,0.224-0.5,0.5s0.224,0.5,0.5,0.5h1.472c0.023,0.049,0.05,0.087,0.072,0.139 C32.186,33.484,32.174,33.654,32.152,33.752z"/><path fill="#212121" d="M40.599,29.215C45.443,26.05,45.5,20.251,45.5,20c0-0.221-0.144-0.415-0.355-0.479 c-0.21-0.065-0.439,0.018-0.561,0.201c-1.198,1.796-2.79,2.846-3.791,3.372l2.686-8.951c0.07-0.232-0.038-0.482-0.255-0.591 c-7.952-3.977-18.981-7.005-19.092-7.035c0,0,0,0,0,0c-0.065-0.017-0.134-0.023-0.206-0.012c-0.007,0.001-0.013,0.006-0.02,0.007 c-0.006,0.001-0.012-0.002-0.018,0C10.934,9.502,6.867,12.475,6.7,12.6c-0.126,0.095-0.2,0.243-0.2,0.4 c0,1.751,0.144,3.503,0.427,5.203c-3.058,3.002-5.224,7.274-5.374,7.573c-0.106,0.213-0.048,0.471,0.14,0.617 c0.187,0.147,0.452,0.141,0.633-0.014c0.042-0.036,2.612-2.189,5.889-3.198c0.226,0.594,0.593,1.476,1.098,2.641 C7.294,27.857,5.5,31.051,5.5,36c0,0.211,0.133,0.399,0.332,0.471C5.887,36.49,5.944,36.5,6,36.5c0.147,0,0.29-0.065,0.387-0.184 c0.031-0.038,1.154-1.376,3.222-3.012c0.044,0.057,0.099,0.108,0.168,0.143l3.437,1.719c-0.355,0.524-0.499,1.085-0.427,1.674 c0.204,1.659,2.082,2.864,2.457,3.089c2.21,1.326,4.468,1.846,6.654,1.846c6.896-0.001,13.058-5.182,14.592-6.578l1.158,1.157 c0.144,0.143,0.358,0.186,0.545,0.108C38.378,36.385,38.5,36.202,38.5,36v-2.821c2.296,2.139,3.246,2.321,3.5,2.321 c0.161,0,0.312-0.077,0.406-0.208c0.094-0.13,0.12-0.298,0.068-0.45L40.599,29.215z M39.521,23.856 c-0.054,0.179-0.003,0.372,0.131,0.502s0.328,0.172,0.506,0.116c0.107-0.036,2.234-0.765,4.138-2.789 c-0.369,1.867-1.418,4.849-4.317,6.719l-2.222-1.333c-0.129-0.077-0.289-0.092-0.431-0.04c-0.143,0.053-0.253,0.167-0.301,0.311 l-0.249,0.746c-0.049-0.033-0.104-0.061-0.165-0.075l-6.198-1.43l-2.428-10.199c-0.057-0.241-0.282-0.394-0.529-0.382 c-0.247,0.021-0.44,0.22-0.456,0.467l-0.309,4.962L24.61,7.693c2.524,0.726,11.141,3.309,17.789,6.568L39.521,23.856z M23.587,7.612l2.318,15.298c-3.694-2.944-8.319-6.241-11.747-7.385c-2.229-0.74-4.416,0.247-6.328,1.857 c-0.195-1.354-0.318-2.732-0.329-4.117C8.444,12.663,12.831,10.143,23.587,7.612z M9.187,22.926 c1.409-0.312,2.906-0.382,4.37,0.044c-0.918,0.383-2.197,1.055-3.466,2.135C9.69,24.172,9.386,23.44,9.187,22.926z M6.545,34.687 c0.656-9.307,8.228-11.123,8.564-11.198c0.206-0.047,0.361-0.218,0.387-0.428s-0.083-0.413-0.272-0.508 c-1.289-0.645-2.612-0.901-3.904-0.901c-3.072,0-5.959,1.455-7.762,2.604c1.957-3.224,6.2-9.141,10.284-7.781 c3.935,1.312,9.737,5.798,12.846,8.355c0.146,0.12,0.346,0.147,0.517,0.073c0.172-0.075,0.288-0.24,0.3-0.428l0.286-4.597 l1.557,6.539C17.37,25.134,9.197,32.039,6.545,34.687z M14.874,29.982c2.57-1.26,5.675-2.292,9.248-2.613l-3.403,4.765 c-0.474,0.661-1.377,0.827-2.053,0.376L14.874,29.982z M18.55,33.549l-0.789,1.719c-0.056,0.126-0.11,0.165-0.124,0.165 c-0.03,0-0.081-0.037-0.095-0.067l-1.514-3.411l2.082,1.388C18.251,33.435,18.402,33.487,18.55,33.549z M25.407,27.291 c0.001-0.001,0.001-0.003,0.002-0.004c0.015-0.001,0.03-0.001,0.045-0.002l-0.837,5.859l-2.297-1.531L25.407,27.291z M10.448,32.665c0.453-0.333,0.945-0.671,1.469-1.009c0.397,0.872,0.754,1.653,1.033,2.26L10.448,32.665z M37.5,34.793 l-0.146-0.146l-0.5-0.5l-1-1c-0.195-0.195-0.512-0.195-0.707,0s-0.195,0.512,0,0.707l0.635,0.635 c-1.95,1.772-11.463,9.718-20.024,4.583c-0.677-0.406-1.856-1.359-1.979-2.354c-0.058-0.473,0.13-0.919,0.575-1.364 c0.114-0.113,0.166-0.275,0.14-0.434c-0.007-0.046-0.033-0.083-0.052-0.124l0.012-0.006c0-0.001-0.741-1.6-1.68-3.665 c0.349-0.209,0.708-0.416,1.083-0.619l0.618,0.412l2.154,4.854c0.176,0.395,0.581,0.66,1.008,0.661c0,0,0.001,0,0.001,0 c0.444,0,0.822-0.276,1.035-0.752l0.882-1.921c0.76-0.017,1.5-0.376,1.977-1.044l0.206-0.288l2.324,1.549 c0.168,0.112,0.36,0.169,0.554,0.169c0.138,0,0.277-0.029,0.409-0.088c0.315-0.141,0.533-0.429,0.582-0.771l0.86-6.018 c1.111,0.002,2.256,0.068,3.444,0.225l6.477,1.495c0.03,0.007,0.059,0.001,0.089,0.003l-0.451,1.352 c-0.06,0.18-0.013,0.378,0.121,0.512l1.354,1.354V34.793z M38.354,31.646l-1.281-1.281l0.705-2.116l1.807,1.085l1.572,4.718 C40.57,33.667,39.663,32.956,38.354,31.646z"/></svg>