<svg xmlns="http://www.w3.org/2000/svg"  viewBox="0 0 48 48" width="1600px" height="1600px"><circle cx="24" cy="24" r="20" fill="#7e7a9b"/><circle cx="24" cy="24" r="19" fill="#33253e"/><path fill="#213857" d="M26.966,30.104c5.882-2.38,10.326-6.921,13.158-11.289c-2.164-6.804-8.529-11.734-16.05-11.734 c-9.303,0-16.844,7.541-16.844,16.844c0,2.212,0.438,4.319,1.213,6.254C15.118,32.399,21.335,32.383,26.966,30.104z M10.199,27.646 c-0.318-1.189-0.504-2.431-0.504-3.72c0-7.941,6.438-14.379,14.379-14.379c5.94,0,11.038,3.603,13.23,8.743 c-2.768,3.424-6.517,6.651-11.16,8.529C21.245,28.801,15.901,29.069,10.199,27.646z"/><path fill="#476682" d="M18.001,32.327c-3.116,0-6.361-0.558-9.715-1.673l-0.22-0.073L7.98,30.365 c-0.829-2.069-1.249-4.236-1.249-6.44c0-9.563,7.78-17.344,17.344-17.344c7.585,0,14.227,4.855,16.527,12.083l0.071,0.226 l-0.128,0.198c-1.992,3.07-6.38,8.644-13.392,11.481C24.255,31.741,21.196,32.327,18.001,32.327z M8.823,29.778 c6.479,2.109,12.518,2.063,17.955-0.138l0,0c6.608-2.673,10.813-7.891,12.797-10.898c-2.232-6.686-8.432-11.161-15.5-11.161 c-9.012,0-16.344,7.332-16.344,16.344C7.731,25.925,8.099,27.893,8.823,29.778z M17.175,29.04c-2.299,0-4.668-0.303-7.097-0.909 L9.792,28.06l-0.076-0.285c-0.345-1.291-0.521-2.586-0.521-3.849c0-8.205,6.675-14.879,14.879-14.879 c5.972,0,11.345,3.551,13.69,9.046l0.118,0.277l-0.189,0.234c-2.236,2.767-6.023,6.519-11.361,8.678 C23.437,28.453,20.374,29.04,17.175,29.04z M10.609,27.232c5.493,1.316,10.654,1.023,15.348-0.878 c4.99-2.018,8.583-5.495,10.767-8.144c-2.246-4.97-7.179-8.164-12.649-8.164c-7.653,0-13.879,6.226-13.879,13.879 C10.196,25.009,10.334,26.119,10.609,27.232z"/><path fill="#213857" d="M40.89,23.353c-3.108,3.918-7.369,7.645-12.691,9.798c-3.257,1.318-6.67,1.976-10.217,1.976 c-2.337,0-4.732-0.286-7.181-0.857c3.083,3.949,7.875,6.499,13.273,6.499c9.303,0,16.844-7.541,16.844-16.844 C40.919,23.732,40.896,23.545,40.89,23.353z"/><path fill="#476682" d="M24.075,41.269c-5.367,0-10.348-2.438-13.667-6.69l-0.872-1.116l1.379,0.321 c6.034,1.407,11.815,1.04,17.097-1.096c5.886-2.381,10.039-6.56,12.486-9.645l0.843-1.063l0.062,1.573 c0.009,0.124,0.017,0.247,0.017,0.373C41.419,33.488,33.639,41.269,24.075,41.269z M12.132,35.063 c3.09,3.325,7.368,5.206,11.942,5.206c8.741,0,15.902-6.896,16.325-15.535c-2.59,3.022-6.584,6.685-12.013,8.881 C23.337,35.656,17.863,36.146,12.132,35.063z"/><path fill="#e4b2e5" d="M11.911,24.117c-1.635,0-2.965-1.33-2.965-2.965v-2.465c0-1.635,1.33-2.965,2.965-2.965 c1.067,0,2.057,0.578,2.583,1.508c0.136,0.24,0.051,0.545-0.189,0.681c-0.24,0.135-0.546,0.052-0.681-0.189 c-0.349-0.617-1.005-1-1.713-1c-1.083,0-1.965,0.881-1.965,1.965v2.465c0,1.083,0.881,1.965,1.965,1.965s1.965-0.882,1.965-1.965 v-0.804c0-0.276,0.224-0.5,0.5-0.5s0.5,0.224,0.5,0.5v0.804C14.876,22.787,13.546,24.117,11.911,24.117z"/><path fill="#9ce7ea" d="M25.95,34.155c-1.635,0-2.964-1.33-2.964-2.965v-4.93c0-0.276,0.224-0.5,0.5-0.5s0.5,0.224,0.5,0.5 v4.93c0,1.083,0.881,1.965,1.964,1.965c1.084,0,1.966-0.882,1.966-1.965v-4.93c0-0.276,0.224-0.5,0.5-0.5s0.5,0.224,0.5,0.5v4.93 C28.916,32.825,27.586,34.155,25.95,34.155z"/><path fill="#e4b2e5" d="M15.487,24.117c-0.059,0-0.118-0.01-0.176-0.032c-0.258-0.097-0.389-0.385-0.292-0.644l2.783-7.395 c0.073-0.195,0.26-0.324,0.468-0.324l0,0c0.208,0,0.395,0.129,0.468,0.324l2.783,7.395c0.098,0.259-0.033,0.547-0.292,0.644 c-0.258,0.099-0.547-0.034-0.644-0.292l-2.315-6.152l-2.315,6.152C15.879,23.994,15.689,24.117,15.487,24.117z"/><path fill="#e4b2e5" d="M25.107,24.117c-2,0-3.628-1.883-3.628-4.198s1.628-4.197,3.628-4.197 c0.646,0,1.268,0.202,1.848,0.601c0.228,0.156,0.285,0.468,0.129,0.695c-0.156,0.228-0.466,0.287-0.695,0.129 c-0.41-0.282-0.841-0.425-1.281-0.425c-1.449,0-2.628,1.434-2.628,3.197s1.179,3.198,2.628,3.198c0.439,0,0.87-0.143,1.281-0.425 c0.229-0.155,0.539-0.098,0.695,0.129c0.156,0.228,0.099,0.539-0.129,0.695C26.375,23.915,25.753,24.117,25.107,24.117z"/><path fill="#9ce7ea" d="M15.115,34.155c-2.003,0-3.632-1.883-3.632-4.197s1.629-4.197,3.632-4.197 c0.638,0,1.277,0.208,1.849,0.601c0.228,0.156,0.285,0.468,0.129,0.695s-0.468,0.286-0.695,0.129 c-0.41-0.282-0.842-0.425-1.283-0.425c-1.452,0-2.632,1.435-2.632,3.197s1.181,3.197,2.632,3.197c0.441,0,0.873-0.143,1.283-0.425 c0.228-0.155,0.539-0.098,0.695,0.129c0.156,0.228,0.099,0.539-0.129,0.695C16.392,33.947,15.752,34.155,15.115,34.155z"/><path fill="#e4b2e5" d="M28.487,24.117c-0.276,0-0.5-0.224-0.5-0.5v-7.395c0-0.276,0.224-0.5,0.5-0.5s0.5,0.224,0.5,0.5 v7.395C28.987,23.894,28.764,24.117,28.487,24.117z"/><path fill="#e4b2e5" d="M32.702,24.117c-0.276,0-0.5-0.224-0.5-0.5v-7.395c0-0.276,0.224-0.5,0.5-0.5s0.5,0.224,0.5,0.5 v7.395C33.202,23.894,32.979,24.117,32.702,24.117z"/><path fill="#9ce7ea" d="M18.556,34.155c-0.276,0-0.5-0.224-0.5-0.5V26.26c0-0.276,0.224-0.5,0.5-0.5s0.5,0.224,0.5,0.5 v7.395C19.056,33.932,18.832,34.155,18.556,34.155z"/><path fill="#e4b2e5" d="M32.291,20.83h-3.519c-0.276,0-0.5-0.224-0.5-0.5s0.224-0.5,0.5-0.5h3.519 c0.276,0,0.5,0.224,0.5,0.5S32.567,20.83,32.291,20.83z"/><path fill="#9ce7ea" d="M22.713,34.155h-4.157c-0.276,0-0.5-0.224-0.5-0.5s0.224-0.5,0.5-0.5h4.157 c0.276,0,0.5,0.224,0.5,0.5S22.989,34.155,22.713,34.155z"/><path fill="#e4b2e5" d="M19.805,21.83h-2.963c-0.276,0-0.5-0.224-0.5-0.5s0.224-0.5,0.5-0.5h2.963 c0.276,0,0.5,0.224,0.5,0.5S20.081,21.83,19.805,21.83z"/><path fill="#e4b2e5" d="M34.106,24.117c-0.06,0-0.119-0.01-0.178-0.033c-0.258-0.098-0.388-0.387-0.289-0.645l2.816-7.395 c0.073-0.194,0.26-0.322,0.467-0.322l0,0c0.208,0,0.394,0.128,0.467,0.322l2.815,7.395c0.099,0.258-0.031,0.547-0.289,0.645 c-0.257,0.098-0.547-0.031-0.645-0.29l-2.349-6.167l-2.35,6.167C34.498,23.995,34.308,24.117,34.106,24.117z"/><path fill="#e4b2e5" d="M38.306,21.83h-2.964c-0.276,0-0.5-0.224-0.5-0.5s0.224-0.5,0.5-0.5h2.964 c0.276,0,0.5,0.224,0.5,0.5S38.582,21.83,38.306,21.83z"/><path fill="#e4b2e5" d="M14.224,20.83h-2.063c-0.276,0-0.5-0.224-0.5-0.5s0.224-0.5,0.5-0.5h2.063 c0.276,0,0.5,0.224,0.5,0.5S14.5,20.83,14.224,20.83z"/><path fill="#9ce7ea" d="M32.565,30.047h-2.257c-0.276,0-0.5-0.224-0.5-0.5v-3.286c0-0.276,0.224-0.5,0.5-0.5h2.257 c1.182,0,2.144,0.961,2.144,2.143S33.747,30.047,32.565,30.047z M30.809,29.047h1.757c0.631,0,1.144-0.513,1.144-1.144 c0-0.63-0.513-1.143-1.144-1.143h-1.757C30.809,26.76,30.809,29.047,30.809,29.047z"/><path fill="#9ce7ea" d="M32.935,34.155h-2.626c-0.276,0-0.5-0.224-0.5-0.5v-4.108c0-0.276,0.224-0.5,0.5-0.5h2.626 c1.408,0,2.555,1.146,2.555,2.554C35.49,33.009,34.343,34.155,32.935,34.155z M30.809,33.155h2.126 c0.857,0,1.555-0.697,1.555-1.555c0-0.856-0.697-1.554-1.555-1.554h-2.126C30.809,30.046,30.809,33.155,30.809,33.155z"/></svg>