<svg xmlns="http://www.w3.org/2000/svg"  viewBox="0 0 48 48" width="1600px" height="1600px"><path fill="#388e3c" d="M9.93,14.59c-1.18,2.75-1.79,5.72-1.9,8.7c-1.26,0.05-2.53,0.1-3.8,0.16 C4.98,19.86,7.15,16.79,9.93,14.59z"/><path fill="#fbc02d" d="M8.03,24.71c0.11,2.97,0.73,5.95,1.9,8.69c-2.78-2.19-4.95-5.26-5.7-8.85 C5.5,24.61,6.77,24.66,8.03,24.71z"/><path fill="#ef6c00" d="M18.01,42.54c1.34,0.69,2.8,1.17,4.27,1.38c-9.69-0.82-17.4-8.54-18.2-18.24 c0.2,1.49,0.68,2.96,1.38,4.31c1.13,2.17,2.79,4.06,4.75,5.54c0.43,0.34,0.88,0.64,1.34,0.93c0.29,0.45,0.59,0.9,0.92,1.33 C13.95,39.74,15.84,41.41,18.01,42.54z"/><path fill="#fbc02d" d="M5.46,18.01c-0.69,1.34-1.17,2.8-1.38,4.27C4.9,12.55,12.69,4.81,22.44,4.07 c-1.53,0.19-3.05,0.67-4.43,1.39c-2.17,1.13-4.06,2.79-5.54,4.75c-0.34,0.43-0.64,0.88-0.93,1.34c-0.45,0.29-0.9,0.59-1.33,0.92 C8.26,13.95,6.59,15.84,5.46,18.01z"/><path fill="#1976d2" d="M23.22,37c0.01,0.32,0.03,0.65,0.04,0.97c-3.65-0.11-7.29-1-10.51-2.73 c-1.72-3.2-2.61-6.83-2.72-10.46c4.32,0.15,8.65,0.19,12.98,0.21C23.03,28.99,23.07,33,23.22,37z"/><path fill="#ef6c00" d="M23.26,10.03c-0.01,0.32-0.03,0.65-0.04,0.97c-0.14,4-0.19,8.01-0.21,12.01 c-4.33,0.02-8.66,0.06-12.98,0.21c0.12-3.64,1-7.26,2.73-10.47C15.97,11.02,19.61,10.14,23.26,10.03z"/><path fill="#1976d2" d="M23.33 39.97c.06 1.27.12 2.54.2 3.81-3.63-.73-6.73-2.91-8.94-5.71C17.35 39.25 20.34 39.87 23.33 39.97zM23.53 4.22c-.07 1.27-.14 2.54-.19 3.81-2.99.1-5.99.72-8.74 1.9C16.81 7.13 19.9 4.95 23.53 4.22z"/><path fill="#ef6c00" d="M24.47,43.78c0.08-1.27,0.14-2.54,0.2-3.81c2.99-0.1,5.98-0.72,8.73-1.9 C31.2,40.87,28.1,43.05,24.47,43.78z"/><path fill="#fbc02d" d="M24.66,8.03c-0.05-1.27-0.12-2.54-0.19-3.81c3.63,0.73,6.73,2.91,8.94,5.71 C30.65,8.75,27.66,8.13,24.66,8.03z"/><path fill="#388e3c" d="M24.99,24.99c4.33-0.02,8.66-0.06,12.98-0.21c-0.12,3.64-1,7.26-2.73,10.47 c-3.21,1.73-6.85,2.61-10.5,2.72c0.01-0.32,0.03-0.65,0.04-0.97C24.93,33,24.97,28.99,24.99,24.99z"/><path fill="#1976d2" d="M37.97 23.22c-4.32-.15-8.65-.19-12.98-.21-.02-4-.07-8.01-.21-12.01-.01-.32-.03-.65-.04-.97 3.65.11 7.29 1 10.51 2.73C36.97 15.96 37.85 19.58 37.97 23.22zM42.54 29.99c.69-1.34 1.17-2.8 1.38-4.27-.82 9.73-8.61 17.47-18.36 18.21 1.53-.19 3.05-.67 4.43-1.39 2.17-1.13 4.06-2.79 5.54-4.75.34-.43.64-.88.93-1.34.45-.29.9-.59 1.33-.92C39.74 34.05 41.41 32.16 42.54 29.99z"/><path fill="#1976d2" d="M29.99,5.46c-1.34-0.69-2.8-1.17-4.27-1.38c9.69,0.82,17.4,8.54,18.2,18.24 c-0.2-1.49-0.67-2.96-1.38-4.31c-1.13-2.17-2.79-4.06-4.75-5.54c-0.43-0.34-0.88-0.64-1.34-0.93c-0.29-0.45-0.59-0.9-0.92-1.33 C34.05,8.26,32.16,6.59,29.99,5.46z"/><path fill="#ef6c00" d="M39.97,24.71c1.26-0.05,2.53-0.1,3.8-0.16c-0.75,3.59-2.92,6.66-5.7,8.86 C39.25,30.67,39.86,27.69,39.97,24.71z"/><path fill="#fbc02d" d="M43.77,23.45c-1.27-0.06-2.54-0.11-3.8-0.16c-0.11-2.98-0.73-5.95-1.9-8.69 C40.85,16.79,43.02,19.86,43.77,23.45z"/><path fill="#f5f5f5" d="M43.93,22.35c-0.2-1.5-0.68-2.98-1.39-4.34c-1.13-2.17-2.79-4.06-4.75-5.54 c-0.43-0.34-0.88-0.64-1.34-0.93c-0.29-0.45-0.59-0.9-0.92-1.33c-1.48-1.95-3.37-3.62-5.54-4.75c-1.36-0.7-2.83-1.18-4.32-1.39 h-0.03C25.1,4.02,24.55,4,24,4c-0.51,0-1.01,0.02-1.51,0.06c-1.55,0.19-3.08,0.67-4.48,1.4c-2.17,1.13-4.06,2.79-5.54,4.75 c-0.34,0.43-0.64,0.88-0.93,1.34c-0.45,0.29-0.9,0.59-1.33,0.92c-1.95,1.48-3.62,3.37-4.75,5.54c-0.7,1.36-1.18,2.83-1.39,4.32 v0.03C4.02,22.9,4,23.45,4,24c0,0.56,0.02,1.11,0.07,1.65c0.2,1.5,0.69,2.98,1.39,4.34c1.13,2.17,2.79,4.06,4.75,5.54 c0.43,0.34,0.88,0.64,1.34,0.93c0.29,0.45,0.59,0.9,0.92,1.33c1.48,1.95,3.37,3.62,5.54,4.75c1.36,0.7,2.83,1.18,4.32,1.39h0.03 C22.9,43.98,23.45,44,24,44c0.51,0,1.01-0.02,1.51-0.06c1.55-0.19,3.08-0.67,4.48-1.4c2.17-1.13,4.06-2.79,5.54-4.75 c0.34-0.43,0.64-0.88,0.93-1.34c0.45-0.29,0.9-0.59,1.33-0.92c1.95-1.48,3.62-3.37,4.75-5.54c0.7-1.36,1.18-2.83,1.39-4.32v-0.03 C43.98,25.1,44,24.55,44,24C44,23.44,43.98,22.89,43.93,22.35z M12.76,12.75c3.21-1.73,6.85-2.61,10.5-2.72 c-0.01,0.32-0.03,0.65-0.04,0.97c-0.14,4-0.19,8.01-0.21,12.01c-4.33,0.02-8.66,0.06-12.98,0.21 C10.15,19.58,11.03,15.96,12.76,12.75z M4.23,24.55c1.27,0.06,2.54,0.11,3.8,0.16c0.11,2.97,0.73,5.95,1.9,8.69 C7.15,31.21,4.98,28.14,4.23,24.55z M8.03,23.29c-1.26,0.05-2.53,0.1-3.8,0.16c0.75-3.59,2.92-6.66,5.7-8.86 C8.75,17.34,8.14,20.31,8.03,23.29z M12.75,35.24c-1.72-3.2-2.61-6.83-2.72-10.46c4.32,0.15,8.65,0.19,12.98,0.21 c0.02,4,0.06,8.01,0.21,12.01c0.01,0.32,0.03,0.65,0.04,0.97C19.61,37.86,15.97,36.97,12.75,35.24z M14.59,38.07 c2.76,1.18,5.75,1.8,8.74,1.9c0.06,1.27,0.12,2.54,0.2,3.81C19.9,43.05,16.8,40.87,14.59,38.07z M23.34,8.03 c-2.99,0.1-5.99,0.72-8.74,1.9c2.21-2.8,5.3-4.98,8.93-5.71C23.46,5.49,23.39,6.76,23.34,8.03z M33.41,9.93 c-2.76-1.18-5.75-1.8-8.75-1.9c-0.05-1.27-0.12-2.54-0.19-3.81C28.1,4.95,31.2,7.13,33.41,9.93z M24.47,43.78 c0.08-1.27,0.14-2.54,0.2-3.81c2.99-0.1,5.98-0.72,8.73-1.9C31.2,40.87,28.1,43.05,24.47,43.78z M35.24,35.25 c-3.21,1.73-6.85,2.61-10.5,2.72c0.01-0.32,0.03-0.65,0.04-0.97c0.15-4,0.19-8.01,0.21-12.01c4.33-0.02,8.66-0.06,12.98-0.21 C37.85,28.42,36.97,32.04,35.24,35.25z M24.99,23.01c-0.02-4-0.07-8.01-0.21-12.01c-0.01-0.32-0.03-0.65-0.04-0.97 c3.65,0.11,7.29,1,10.51,2.73c1.72,3.2,2.6,6.82,2.72,10.46C33.65,23.07,29.32,23.03,24.99,23.01z M38.07,33.41 c1.18-2.74,1.79-5.72,1.9-8.7c1.26-0.05,2.53-0.1,3.8-0.16C43.02,28.14,40.85,31.21,38.07,33.41z M39.97,23.29 c-0.11-2.98-0.73-5.95-1.9-8.69c2.78,2.19,4.95,5.26,5.7,8.85C42.5,23.39,41.23,23.34,39.97,23.29z"/></svg>