<svg xmlns="http://www.w3.org/2000/svg"  viewBox="0 0 48 48" width="1600px" height="1600px"><path fill="#8bc34a" d="M20.942,38h-1.695c-1.986,0-3.833-1.083-4.819-2.826L8,24l8.025-14h8.321l-7.44,14.016l0.097,0.055L20.462,30h4.943L20.942,38z M11.065,14.632l-2.177-3.789C8.574,10.319,8.016,10,7.415,10H0l6.849,11.986L11.065,14.632z M33.497,12.826C32.511,11.083,30.665,10,28.677,10H26.61l-4.247,8h5.099L31,24l-7.768,14h8.667L40,24L33.497,12.826z M41.148,26.009l-4.235,7.32l2.199,3.828C39.426,37.681,39.984,38,40.585,38H48L41.148,26.009z"/></svg>