<svg xmlns="http://www.w3.org/2000/svg"  viewBox="0 0 48 48" width="1600px" height="1600px"><path fill="#ff5252" d="M47,16c-1.158,1.291-3.908,5-11,5c-2.683,0-9.269-0.985-11-1c-1.978-0.017-14,0.344-14,11c0,8.341,6.002,8.776,8,9l0,0c9.836,0,11-4.487,11-9c0-1.543-0.6-3.28-1.935-4.543C27.007,25.455,26.364,25,24,25c-1.147,0-5,0.617-5,4c0,1.5,2,1.826,2,3.653C21,34.156,19.746,35,18.402,35c-1.771,0-3.4-1.375-3.4-3.768C15.002,27.406,18.25,23,24,23c7.008,0,8.447,3.644,10.551,3.92c3.43,0.44,7.175-0.92,9.347-0.92C40.959,27.277,39.6,33,35,33c0,3.067-3.169,6.425-4,7c2.044,0,3.654-0.646,5-1c-1.021,0.745-4.925,3-17,3c-4.217,0-14-0.888-14-10c0-9.703,7.974-14,20-14c-1.406-0.767-5.06-2-8-2c-2.191-0.032-4.687,1.16-6.665,2.048C8.335,18.946,6.264,19.075,4.067,19C3.4,18.977,1.971,18.586,1,18c7.547-1.628,6.54-7.91,16-11c-3.152,2.162-5.051,4.929-5,5c7.475-4.082,12.98-5.312,18-6c-5.144,1.678-8.719,4.061-13,7c0,0,3.089-1,7-1c6.644,0,11.4,6,16,6C42.277,18,47,15.906,47,16z"/><path fill="#d50000" d="M15.103,31.232c0,2.393,1.629,3.768,3.4,3.768c1.344,0,2.598-0.844,2.598-2.347c0-1.827-2-2.153-2-3.653c0-4.315,3.943-5.555,5-6C18.352,23,15.103,27.406,15.103,31.232z"/><path fill="#d50000" d="M11,31c0-12.376,12.022-13.017,14-13c1.731,0.015,6.597-0.304,9.595-1.998C31.541,14.257,28.176,12,24.102,12c-3.911,0-7,1-7,1c4.281-2.939,7.856-5.322,13-7c-5.02,0.688-10.525,1.918-18,6c-0.051-0.071,1.848-2.838,5-5c-9.46,3.09-8.453,9.372-16,11c0.971,0.586,2.4,0.977,3.067,1c2.197,0.075,4.269-0.054,6.268-0.952c1.978-0.888,4.474-2.08,6.665-2.048c2.94,0,6.594,1.233,8,2C13.076,18,5,22.297,5,32c0,9.039,9.725,9.985,13.996,9.999C16.994,41.773,11,39.336,11,31z"/></svg>