<svg xmlns="http://www.w3.org/2000/svg"  viewBox="0 0 48 48" width="1600px" height="1600px"><path fill="#5c6bc0" d="M38,16c0,0,3-1,4.736-2.403C43.201,13.152,43.417,12.49,43,12c-1.12-1.316-6.376-3.486-11-4l-2,4	c0,0,8.972-0.541,10,1C40.806,14.209,38,16,38,16z"/><path fill="#5c6bc0" d="M8.988,16c0,0-3-1-4.736-2.403C3.787,13.152,3.571,12.49,3.988,12c1.12-1.316,6.376-3.486,11-4l2,4	c0,0-8.972-0.541-10,1C6.182,14.209,8.988,16,8.988,16z"/><path fill="#5c6bc0" d="M23.522,16.06c-6.821-0.154-12.382,4.996-12.544,11.488c-0.004,0.178-0.005,0.356-0.001,0.534	c0,8.462,5.208,13.919,14.117,13.919c3.883,0,6.874-1.018,8.91-3.492c0,0,0-3.991,0-4.989c0-2.302,2.983-2.521,2.983-2.521	l-12.989-0.019c0,0,4.008,0.736,4.008,2.987c0,0.998,0.019,5.01,0.019,5.01c-0.608,0.579-2.165,1.063-3.025,1.039	c-6.979,0-8.074-8.938-8.074-11.931s1.238-10.031,8.168-10.031c7.862,0.499,8.91,7.483,8.91,7.483l-0.026-8.531	c-1.297,0.329-2.742,0.538-4.166,0.05C27.973,16.448,25.468,15.986,23.522,16.06z"/><path fill="#5c6bc0" d="M24,13l-0.418-1.672c-0.358-1.433-1.477-2.552-2.91-2.91L19,8l1.672-0.418	c1.433-0.358,2.552-1.477,2.91-2.91L24,3l0.418,1.672c0.358,1.433,1.477,2.552,2.91,2.91L29,8l-1.672,0.418	c-1.433,0.358-2.552,1.477-2.91,2.91L24,13z"/></svg>