<svg xmlns="http://www.w3.org/2000/svg"  viewBox="0 0 48 48" width="1600px" height="1600px"><ellipse cx="24.063" cy="22.766" fill="#e8eaf6" rx="14.392" ry="13.766"/><path fill="#9e9e9e" d="M39.181,32.405c0,5.529-3.375,9.804-7.506,9.804s-8.145-4.414-8.145-9.944s4.04-9.871,8.171-9.871	S39.181,26.875,39.181,32.405z"/><path fill="#9e9e9e" d="M8.819,32.405c0,5.529,3.375,9.804,7.506,9.804s8.145-4.414,8.145-9.944s-4.04-9.871-8.171-9.871	S8.819,26.875,8.819,32.405z"/><path fill="#ffe0b2" d="M24.063,14.006v26.906l6.702-3.046c0.662-0.301,1.16-0.874,1.365-1.571l2.649-8.992V14.006H24.063z"/><path fill="#ffe0b2" d="M24.063,14.006v26.906l-6.702-3.046c-0.662-0.301-1.16-0.874-1.365-1.571l-2.649-8.992V14.006H24.063	z"/><path fill="#5e35b1" d="M20.309,30.437v1.064c0,0.113-0.013,0.213-0.038,0.325c-0.138,0.864-0.888,1.514-1.79,1.539h-0.05	c-0.838,0-1.564-0.551-1.79-1.377l-0.15-0.551l-0.113-0.4c-0.263-0.926,0.225-1.89,1.114-2.24l0.263-0.1	C18.982,28.21,20.309,29.123,20.309,30.437z"/><path fill="#ff9e80" d="M24.063,34.655V38.2h-0.292c-1.221,0-2.211-0.99-2.211-2.211v-1.334H24.063z"/><path fill="#5e35b1" d="M31.747,31.038l-0.113,0.4l-0.15,0.551c-0.225,0.826-0.951,1.377-1.79,1.377h-0.05	c-0.901-0.025-1.652-0.676-1.79-1.539c-0.025-0.113-0.038-0.213-0.038-0.325v-1.064c0-1.314,1.327-2.228,2.553-1.74l0.263,0.1	C31.522,29.148,32.01,30.112,31.747,31.038z"/><path fill="#536dfe" d="M20.271,31.826c-0.138,0.864-0.888,1.514-1.79,1.539h-0.05c-0.838,0-1.564-0.551-1.79-1.377	l-0.15-0.551c0.2-0.413,0.551-0.751,1.001-0.926l0.263-0.113C18.882,29.962,20.083,30.675,20.271,31.826z"/><path fill="#536dfe" d="M31.634,31.438l-0.15,0.551c-0.225,0.826-0.951,1.377-1.79,1.377h-0.05	c-0.901-0.025-1.652-0.676-1.79-1.539c0.188-1.151,1.389-1.865,2.515-1.427l0.263,0.113C31.083,30.688,31.434,31.025,31.634,31.438z"/><circle cx="28.443" cy="30.9" r=".626" fill="#fff"/><path fill="#ff9e80" d="M24.063,34.655V38.2h0.292c1.221,0,2.211-0.99,2.211-2.211v-1.334H24.063z"/><rect width="5.006" height="1.251" x="21.56" y="34.655" fill="#ff6e40"/><circle cx="17.18" cy="30.9" r=".626" fill="#fff"/><path fill="#ffd180" d="M33.925,17.093H19.59c0.65,1.736,1.722,3.563,3.181,5.268c3.961,4.634,9.244,6.621,11.798,4.437	C36.651,25.019,36.277,21.02,33.925,17.093z"/><ellipse cx="31.521" cy="19.283" fill="#e8eaf6" rx="6.085" ry="11.039" transform="rotate(-40.527 31.52 19.283)"/><path fill="#ffd180" d="M23.305,21.21c-0.202-1.461-0.22-2.889-0.089-4.26h-7.21c-0.353,1.278-0.472,2.628-0.281,4.006	c0.742,5.364,5.69,9.183,11.385,9.067C25.18,27.742,23.786,24.686,23.305,21.21z"/><ellipse cx="15.645" cy="16.715" fill="#e8eaf6" rx="4.83" ry="3.66" transform="rotate(122.731 15.645 16.716)"/><path fill="#e8eaf6" d="M25.789,15.405c-1.9-0.417-3.405-1.994-3.944-4.033c-2.419,1.951-3.961,4.894-3.961,8.187	c0,5.415,4.169,9.876,9.557,10.542c-1.524-2.524-2.44-5.743-2.44-9.251C25.001,18.922,25.287,17.089,25.789,15.405z"/><rect width="2" height="12" x="23" y="3" fill="#ff9e80"/><path fill="#ff9e80" d="M20.5,6.9c0,0,0.437-0.572,1.094-0.976c0.328-0.225,0.711-0.392,1.121-0.532 c0.41-0.125,0.848-0.188,1.285-0.192c0.437,0.005,0.875,0.071,1.285,0.196c0.205,0.054,0.403,0.155,0.591,0.239 c0.188,0.073,0.366,0.187,0.53,0.293C27.062,6.331,27.5,6.9,27.5,6.9v0.2c0,0-0.438,0.031-1.094,0.054 C25.75,7.166,24.875,7.183,24,7.2c-0.875-0.017-1.75-0.033-2.406-0.046C20.937,7.132,20.5,7.1,20.5,7.1V6.9z"/><polygon fill="#ff9e80" points="22.073,14.3 24,17.227 25.927,14.3 24,12.373"/><polygon fill="#ff9e80" points="22.412,3.266 24,0.854 25.588,3.266 24,4.854"/><path fill="#ff9e80" d="M24,8c-6.075,0-11,1.343-11,3c0,1.084,2.114,2.03,5.271,2.557l0.623-0.623 C17.723,12.729,17,12.454,17,12.15c0-0.635,3.134-1.15,7-1.15s7,0.515,7,1.15c0,0.304-0.722,0.579-1.894,0.785l0.623,0.623 C32.886,13.03,35,12.084,35,11C35,9.343,30.075,8,24,8z"/><ellipse cx="18.478" cy="13.227" fill="#ff9e80" rx=".738" ry=".352"/><ellipse cx="29.478" cy="13.227" fill="#ff9e80" rx=".738" ry=".352"/><path fill="#cfd8dc" d="M29.078,44.8L29.078,44.8c5.721-0.119,9.87-5.49,8.54-11.055l-3.113-13.028l7.643,5.007l1.637,8.065	C45.492,42.194,36.663,48.804,29.078,44.8L29.078,44.8z"/><path fill="#e8eaf6" d="M30.633,21.984l2.682,10.825c0.932,3.762-1.406,7.557-5.185,8.416l0,0l1.929,0.956	c4.017,1.99,8.669-1.162,8.311-5.631l-1.168-14.566H30.633z"/><path fill="#e8eaf6" d="M48,23.273l-0.244,0.108c-2.578,1.146-5.606,0.295-7.209-2.026l-3.819-5.307	c-0.211-0.293-0.552-0.465-0.913-0.46l-3.496,0.05l2.353,5.761c2.161,5.293,9.104,6.521,12.949,2.291L48,23.273z"/><path fill="#cfd8dc" d="M18.922,44.8L18.922,44.8c-5.721-0.119-9.87-5.49-8.54-11.055l3.113-13.028l-7.643,5.007	l-1.637,8.065C2.508,42.194,11.337,48.804,18.922,44.8L18.922,44.8z"/><path fill="#e8eaf6" d="M0,23.273l0.244,0.108c2.578,1.146,5.606,0.295,7.209-2.026l3.819-5.307	c0.211-0.293,0.552-0.465,0.913-0.46l3.496,0.05L13.329,21.4c-2.161,5.293-9.104,6.521-12.949,2.291L0,23.273z"/><path fill="#e8eaf6" d="M17.367,21.984l-2.682,10.825c-0.932,3.762,1.406,7.557,5.185,8.416l0,0L17.94,42.18	c-4.017,1.99-8.669-1.162-8.311-5.631l1.168-14.566l7.809-4.131L17.367,21.984z"/></svg>