<svg xmlns="http://www.w3.org/2000/svg"  viewBox="0 0 48 48" width="1600px" height="1600px"><path fill="#ffd600" d="M35.292,42H12.708C9.003,42,6,38.997,6,35.292V12.708C6,9.003,9.003,6,12.708,6h22.583	C38.997,6,42,9.003,42,12.708v22.583C42,38.997,38.997,42,35.292,42z"/><path fill="#e65100" d="M35.188,7H14v1.188C14,11.398,11.398,14,8.188,14H7v21.188C7,38.398,9.602,41,12.813,41	h22.375C38.398,41,41,38.398,41,35.188V12.813C41,9.602,38.398,7,35.188,7z" opacity=".68"/><path fill="#006064" d="M35.083,8H15v0.292C15,11.997,11.997,15,8.292,15H8v20.083C8,37.799,10.201,40,12.917,40h22.167	C37.799,40,40,37.799,40,35.083V12.917C40,10.201,37.799,8,35.083,8z"/><rect width="29" height="1" x="10" y="36" fill="#00838f"/><path fill="#0097a7" d="M37,29V8.388c-0.317-0.134-0.653-0.23-1-0.296v31.815c0.347-0.066,0.683-0.161,1-0.296V30h3v-1H37z"/><rect width="1" height="3" x="29" y="37" fill="#0097a7"/><path fill="#0097a7" d="M14,11.803c-0.284,0.46-0.617,0.887-1,1.265V15v1v12H8v1h5v11h1V16h8v-1h-8V11.803z"/><rect width="29" height="1" x="9" y="36" fill="#0097a7"/><rect width="28" height="1" x="9" y="36" fill="#00acc1"/><rect width="26" height="1" x="10" y="36" fill="#80cbc4"/><rect width="25" height="1" x="10" y="36" fill="#b2dfdb"/><rect width="25" height="1" x="9" y="36" fill="#e0f2f1"/><path d="M41.057,20.943L27.285,34.715c-0.247,0.247-0.648,0.247-0.896,0L13.285,21.61c-0.247-0.247-0.247-0.648,0-0.896	L27.057,6.943c0.247-0.247,0.648-0.247,0.896,0l13.104,13.104C41.304,20.295,41.304,20.696,41.057,20.943z"/><rect width="18.856" height="17.913" x="17.743" y="11.872" fill="#ffb300" transform="rotate(-45.001 27.17 20.83)"/><path fill="#ffeb3b" d="M40.171,20.496L27.504,7.829L14.171,21.162l1.743,1.743C18.899,23.612,22.128,24,25.5,24	c4.857,0,9.417-0.804,13.377-2.211L40.171,20.496z"/><rect width="4.714" height="4.714" x="19.147" y="18.805" transform="rotate(-45.001 21.504 21.163)"/><rect width="13.199" height="3.771" x="22.238" y="20.61" transform="rotate(-45.001 28.838 22.496)"/><rect width="11.314" height="1.886" x="23.181" y="21.553" fill="#80deea" transform="rotate(-45.001 28.838 22.496)"/><rect width="4.714" height="4.714" x="25.147" y="12.805" transform="rotate(-45.001 27.504 15.163)"/><rect width="2.828" height="2.828" x="20.09" y="19.748" fill="#80deea" transform="rotate(-45.001 21.504 21.163)"/><rect width="2.828" height="2.828" x="26.09" y="13.748" fill="#80deea" transform="rotate(-45.001 27.504 15.163)"/><path fill="#263238" d="M8,35.083c0,0.496,0.095,0.965,0.232,1.417h8.732l-5.232-9L8,33.92V35.083z"/><path fill="#fff" d="M8,34.915l3.732-6.42L16.095,36H8.092c0.066,0.347,0.161,0.683,0.296,1h9.445l-6.101-10.495L8,32.925	V34.915z"/><path fill="#fff" d="M8.092,36c0.066,0.347,0.161,0.683,0.296,1H33v-1H8.092z"/><path d="M11.601,10.511C11.847,10.244,12,9.891,12,9.5C12,8.672,11.328,8,10.5,8H9.029H9H8.887C8.397,8,8,8.397,8,8.887v2.226	C8,11.603,8.397,12,8.887,12h0.142c0.49,0,0.887-0.397,0.887-0.887V11h0.501l0.39,0.676c0.175,0.304,0.564,0.408,0.867,0.232	c0.304-0.175,0.408-0.563,0.232-0.867L11.601,10.511z"/><circle cx="10.5" cy="9.5" r=".5" fill="#ffd600"/></svg>