<svg xmlns="http://www.w3.org/2000/svg"  viewBox="0 0 48 48" width="1600px" height="1600px" baseProfile="basic"><path fill="#37474f" d="M13.12,18.62l-2.74,1.5L9,19c0,0,0.26,1.12,1,2c1,0,1.2-0.33,1.57-0.52	c0.14,0.38,0.51,0.64,0.93,0.64c0.55,0,1-0.44,1-1c0-0.01,0-0.01,0-0.02l1.5,0.52c0.33-0.08,0.67-0.33,1-0.74L13.12,18.62z M13.12,18.62l-2.74,1.5L9,19c0,0,0.26,1.12,1,2c1,0,1.2-0.33,1.57-0.52c0.14,0.38,0.51,0.64,0.93,0.64c0.55,0,1-0.44,1-1	c0-0.01,0-0.01,0-0.02l1.5,0.52c0.33-0.08,0.67-0.33,1-0.74L13.12,18.62z M14.59,11.88c3.17-0.5,7.17,2.01,9.73,4.74	c0.89,0.95,1.81,1.93,2.87,2.87c4.12,3.62,9.98,7.48,14.43,5.25c2.92-1.46,4.39-3.33,4.5-5.71c-0.88,0.83-2.14,1.5-3.63,1.92	c-4.51,1.25-10.8,0.13-14.68-5.2c-5.11-7.03-8.75-8.4-13.31-8.4c-4.38,0-6.81,3.29-6.81,3.29c-0.28-0.24-1.74-1.35-3.32,0.32	c-1.72,1.81,0.4,4.62,0.43,4.64L5.11,16l-0.67,1.8c-0.27,0.73-0.09,1.55,0.47,2.11l0.71,0.71l-0.3,0.55	c-0.16,0.28-0.18,0.62-0.04,0.92l0.8,1.71l-0.61,0.41c-0.14,0.09-1.34,0.83-3.03,0.5c0.14,0.68,0.45,0.94,1.06,0.94h1.25l-0.46,1.17	C4.27,26.86,2.47,31.51,4,34.35c0.75,1.4,3.06,3.92,5.37,2.76l0.48-0.23l0.42,0.33c0.18,0.13,4.18,3.22,8.12,1.35	C17.56,37.67,16,35,16,35s2,1,4.42,0.59c-1.3-1.47-1.96-2.96-1.37-5.53l0.38-1.68l1.1,1.33C21.34,30.68,25,33,28,33	c-0.38-0.49-2-2-2-2c0.34,0.16,10.21,3.94,16.79-1.33c-3.05,0.03-11.77-0.57-16.53-7.86c-0.77-1.18-1.58-2.33-2.55-3.35	c-0.22-0.23-0.43-0.45-0.64-0.68c-2.43-2.6-4.34-4.66-8.06-4.53c-3.29,0.12-5.37,2.12-5.62,2.36C9.59,15.25,11.3,12.41,14.59,11.88z M22.85,21.59c1.87,3.45,4.31,5.79,7.26,6.97L31,28.92l-0.95,0.03h-0.03c-0.46,0-5.78-0.16-7.54-7.21l-0.39-1.55L22.85,21.59z M7,27.5c0.75,0,1.62-0.62,1.62-0.62l2.5,0.87C11.12,27.75,9,29.5,7,27.5z M11.77,15.44l0.66-0.28c2.2-0.9,4.21-0.28,5.84,1.78	c1.04,1.33,0.64,2.93,0.11,3.92c0.77,0.37,1.69,1.16,1.87,2.58c0.13,1.07-0.47,2.11-1.57,2.7c-0.54,0.29-1.12,0.43-1.69,0.43	c-0.8,0-1.57-0.28-2.19-0.82c-1.37-1.18-2.05-1.13-3.87-1.15c-1.43,1.28-2.29,1.26-2.96,0.82L7.85,25.3C7.09,24.28,7.81,21.91,8,21	c-0.44-0.25-1.13-0.69-1.47-0.98c-0.57-0.49-0.8-1.26-0.62-1.99c0.24-0.9,0.65-1.9,1.04-2.67l0.52-0.82l0.37,0.89	c0.16,0.41,0.38,0.66,0.67,0.78C9.27,16.51,10.54,15.97,11.77,15.44z M10,21c1,0,1.2-0.33,1.57-0.52c0.14,0.38,0.51,0.64,0.93,0.64	c0.55,0,1-0.44,1-1c0-0.01,0-0.01,0-0.02l1.5,0.52c0.33-0.08,0.67-0.33,1-0.74l-2.88-1.26l-2.74,1.5L9,19C9,19,9.26,20.12,10,21z"/><path fill="#37474f" d="M45.26,24.34c-0.35,1.25-1.1,2.22-1.89,2.93c-0.52,0.47-1.19,0.75-1.9,0.77	c-2.07,0.07-6.86-0.16-10.17-3.39C35.59,27.2,41,28,45.26,24.34z"/></svg>