<svg xmlns="http://www.w3.org/2000/svg"  viewBox="0 0 48 48" width="1600px" height="1600px"><path fill="#455A64" d="M25.693,28h-7.399C17.015,28,16,29.002,16,30.232v7.532C16,38.999,17.015,40,18.294,40h7.399C26.966,40,28,38.999,28,37.764v-7.532C28,29.002,26.966,28,25.693,28z M25,36.136C25,36.61,24.606,37,24.117,37l-0.01-0.005V37h-4.211v-0.005L19.885,37C19.394,37,19,36.61,19,36.136v-4.269v-0.006C19,31.385,19.394,31,19.885,31h0.01h4.211h0.01C24.606,31,25,31.385,25,31.862V36.136z M27.693,8h-7.399C19.015,8,18,9.002,18,10.232v7.532C18,18.999,19.015,20,20.294,20h7.399C28.966,20,30,18.999,30,17.764v-7.532C30,9.002,28.966,8,27.693,8z M27,16.136C27,16.61,26.606,17,26.117,17l-0.01-0.005V17h-4.211v-0.005L21.885,17C21.394,17,21,16.61,21,16.136v-4.269v-0.006C21,11.385,21.394,11,21.885,11h0.01h4.211h0.01C26.606,11,27,11.385,27,11.862V16.136z M45,40h-3v-9h-2.105h-0.01C39.393,31,39,31.384,39,31.861v0.006V40l-3,0v-9h-1.993H34c-0.493,0-1,0.377-1,0.854v0.006V40h-3l0-9.776C30,28.994,31.031,28,32.309,28H45V40L45,40z M14,40H5.294C4.015,40,3,38.999,3,37.764v-7.532C3,29.002,4.015,28,5.294,28H14v3.021L6.895,31h-0.01C6.394,31,6,31.385,6,31.862v0.006v4.269C6,36.61,6.394,37,6.885,37l0.01-0.005V37H14V40z M45,10.232v12.532C45,23.999,43.966,25,42.693,25H33v-3h9V11.862C42,11.385,41.606,11,41.117,11h-0.01h-4.211h-0.01C36.394,11,36,11.385,36,11.862v0.006v4.269C36,16.61,36.394,17,36.885,17l0.01-0.005V17H40v3h-4.706C34.015,20,33,18.999,33,17.764v-7.532C33,9.002,34.015,8,35.294,8h7.399C43.966,8,45,9.002,45,10.232z M15,10.232v12.532C15,23.999,13.966,25,12.693,25H3v-3h9V11.862C12,11.385,11.606,11,11.117,11h-0.01H6.895h-0.01C6.394,11,6,11.385,6,11.862v0.006v4.269C6,16.61,6.394,17,6.885,17l0.01-0.005V17H10v3H5.294C4.015,20,3,18.999,3,17.764v-7.532C3,9.002,4.015,8,5.294,8h7.399C13.966,8,15,9.002,15,10.232z"/></svg>