<svg xmlns="http://www.w3.org/2000/svg"  viewBox="0 0 48 48" width="1600px" height="1600px" clip-rule="evenodd" baseProfile="basic"><path fill="#78909c" fill-rule="evenodd" d="M23.999,4.001	c-11.04,0-20.001,8.961-20.001,20.001s8.961,20.001,20.001,20.001s20.001-8.961,20.001-20.001S35.039,4.001,23.999,4.001z" clip-rule="evenodd"/><path fill="#fff" fill-rule="evenodd" d="M23.999,8.001	c8.832,0,16.001,7.169,16.001,16.001s-7.169,16.001-16.001,16.001S7.998,32.834,7.998,24.002S15.167,8.001,23.999,8.001z" clip-rule="evenodd"/><path fill="#b0bec5" fill-rule="evenodd" d="M23.998,37.082	l-3.999-14.081l4.001-16.692L41.07,30.603L23.998,37.082z" clip-rule="evenodd"/><path fill="#37474f" d="M23.998,37.082L6.93,30.603L23.999,6.311L23.998,37.082z"/><path fill="#d7ccc8" fill-rule="evenodd" d="M23.999,19.001	c2.761,0,5.003,2.241,5.003,5.001s-2.241,5.001-5.003,5.001c-2.761,0-5.003-2.241-5.003-5.001S21.238,19.001,23.999,19.001z" clip-rule="evenodd"/><path fill="#37474f" d="M23.999,21.001c1.656,0,3.001,1.345,3.001,3.001	c0,1.656-1.345,3.001-3.001,3.001s-3.001-1.345-3.001-3.001C20.998,22.346,22.343,21.001,23.999,21.001z"/></svg>