<svg xmlns="http://www.w3.org/2000/svg"  viewBox="0 0 48 48" width="1600px" height="1600px" baseProfile="basic"><path fill="#81d4fa" d="M13.083,41h21.834C38.829,41,42,31.41,42,31.41V13.083C42,9.171,38.829,6,34.917,6H13.083	C9.171,6,6,9.171,6,13.083V34.15C6,34.15,9.171,41,13.083,41z"/><path fill="#b3e5fc" d="M13.83,27.72c-1.74-1.14-3.36-0.62-4.16-0.12c-1.38,0.88-1.29,2.59-1.29,2.59	c-0.09-0.1-1.19-0.22-1.62,0.36c-0.42,0.59,0.21,1.24,0.21,1.24C6.59,31.55,6.26,31.58,6,31.7v0.74c0.53-0.03,1.9-0.1,2.77-0.12	c1.1-0.01,1.1,0.06,2.19,0.13c1.74,0.1,6.77,0.11,6.77,0.11l0.36-1.74C18.09,30.82,15.78,29,13.83,27.72z"/><path fill="#80cbc4" d="M42,31.41v3.51c0,0.151-0.005,0.301-0.014,0.45c-0.232,3.7-3.307,5.63-7.066,5.63H13.08	c-2.995,0-5.555-0.859-6.59-3.486C6.174,36.711,6,35.836,6,34.92v-0.77c1.33,0.7,2.37,0.94,4.55,0.94c3.79,0,7.92-3.09,12-3.09	c4.08,0,9,1.01,11.65,1.01C36.51,33.01,38.9,31.8,42,31.41z"/><path fill="#a5d6a7" d="M41.98,35.37c-0.13,2.16-1.23,4.05-2.87,5.25L24.4,40.5C24.4,40.5,34.98,36.94,41.98,35.37z"/><path fill="#4db6ac" d="M40.74,38.95c-0.126,0.182-0.26,0.358-0.403,0.527c-0.491,0.584-2.078,1.087-2.737,1.483l-26.01,0.58	c-0.935-0.345-2.778-0.887-3.476-1.576C7.415,39.275,6.86,38.44,6.5,37.51c1.12-0.34,2.571-0.727,3.13-0.89	c1.544-0.45,1.446-1.729,2.66-2.2c0.242-0.094,1.79,0.22,2.7,1.27c0.91,1.06,1.25,1.48,3.52,1.32c2.28-0.15,6.72,0.42,6.72,0.42	s3.32-0.81,4.22-1.5c0.9-0.68,0.77,0.49,1.78,0.04c1.01-0.46-0.16,0.58,0.81,1.4c0.98,0.81,1.11-0.39,3.13,0	c2.03,0.39,0.2,1.08,1.41,1.34c1.2,0.26,1.14-1.08,1.95-1.11c0.82-0.03,0.35,0.5,1.18,0.18c0.83-0.32,0.47,0.45,0.75,0.96	C40.51,38.83,40.61,38.9,40.74,38.95z"/><path fill="#81c784" d="M40.34,39.48c-1.3,1.54-3.25,2.52-5.42,2.52H13.08c-1.95,0-3.7-0.78-4.99-2.05	C11.32,39.6,17.91,39,25,39C32.11,39,37.7,39.3,40.34,39.48z"/><path fill="#fff3e0" d="M28.83,42H14.61c0.68-1.32,1.67-4.02,1.67-8.41c0-1.32,0.5-3.62,0.5-3.62l9.59,1.24	c0,0-0.04,5.88,0.78,7.86C27.64,40.24,28.6,40.66,28.83,42z"/><path fill="#e53935" d="M27.24,42h-3.25c-0.85-1.28-3.21-4.86-3.9-6.37L24,37.4C24,37.4,25.8,40.35,27.24,42z"/><path fill="#ff9800" d="M21.046,28.989c0,0-1.761,1.492-1.932,3.595s1.125,5.014,4.5,5.723	c2.474,0.52,5.185-0.245,5.136-1.296c-0.049-1.052-1.541-3.082-1.467-4.109C27.356,31.875,21.046,28.989,21.046,28.989z"/><path fill="#e65100" d="M24.62,35.86c-2.89-1.32-4.31-3.93-3.86-5.7c0.1-0.38,0.21-0.78,0.33-1.15	c0.54,0.25,6.27,2.92,6.19,3.89c-0.05,0.8,0.84,2.22,1.26,3.29c0,0.01,0,0.01,0,0.01C28.85,37.52,27.35,37.11,24.62,35.86z"/><path fill="#fff" d="M25.978,20.217c3.554,0.359,6.946,2.022,6.946,6.261c0,4.663-4.043,5.315-4.043,5.315l-2.902-3.783	V20.217z"/><path fill="#eceff1" d="M26.979,27.671V21.37c2.461,0.465,4.945,1.764,4.945,5.108c0,2.831-1.725,3.838-2.657,4.176	L26.979,27.671z"/><path fill="#212121" d="M29.508,25.626c0,0,0.832,0.073,0.832,1.504c0,1.431-1.688,1.773-1.688,1.773l-1.382-1.541	l1.085-1.357c0,0,0.089,0.685,0.64,0.685C29.777,26.69,29.508,25.626,29.508,25.626z"/><path fill="#bf360c" d="M21.071,29.723c0.065,1.728,1.214,2.666,2.397,3.245c0.766,0.375,1.027,2.469,1.712,2.661	s1.402,0.065,0.799-1.893c-0.603-1.958-1.924-3.347-1.924-3.347L21.071,29.723z"/><path fill="#e53935" d="M38.7,13.7c0,2.57-1.21,4.23-3.88,5.38c-2.68,1.14-6.42,2.01-6.42,6.252L16.03,20.22	c-2.51,0.71-5.93,0.81-5.93-3.56c0-3.88,2.66-5.34,3.72-5.34c1.48,0,2.52,2.39,3.42,3.58c0.54,0.72,1.49,1.24,2.08,1.24	c0.58,0,1.18-0.6,1.18-1.63c0-1.49-2.41-2.93-2.41-5.22c0-1.25,1.1-2.46,2.43-3.29h5.5c0.76,0.94,1.22,2.37,1.2,3.98	c-0.04,2.84-0.23,5.54,1.04,5.54s2.9-3.78,3.23-4.86c0.33-1.07,1.04-2.67,3.39-2.67S38.7,11.12,38.7,13.7z"/><path fill="#ff9800" d="M27.234,26.495l-5.793,3.867c2.174,1.855,9.707,5.01,10.098,3.543	C31.929,32.438,30.658,28.28,27.234,26.495z"/><path fill="#eceff1" d="M18.054,31.435c3.848,0,10.446-3.065,10.446-6.261c0-2.576-0.761-9.196-7.511-9.196	s-7.38,7.402-7.38,9.717S13.587,31.435,18.054,31.435z"/><path fill="#212121" d="M24.4,25.01c0,1.5-0.83,2.71-1.85,2.71s-1.85-1.21-1.85-2.71c0-0.45,0.07-0.86,0.22-1.23	c0.14,0.42,0.48,0.71,0.88,0.71c0.52,0,0.95-0.52,0.95-1.17c0-0.42-0.19-0.79-0.46-0.99c0.08-0.01,0.17-0.02,0.26-0.02	C23.57,22.31,24.4,23.52,24.4,25.01z"/><path fill="#b3e5fc" d="M12.18,24.46c0,0-0.97,0.22-2.54,0.22H6v-6.29c1.52,0.51,1.77,2.59,1.77,2.59s0.71-0.75,1.82-0.5	c1.36,0.3,1.58,1.86,1.19,2.64C11.73,23.77,12.18,24.46,12.18,24.46z"/><path fill="#b3e5fc" d="M42,26.53V30l-9.57-0.03c0,0,0.97-0.8,1.52-0.83c0,0,0.28-0.87,1.16-0.67	c0.88,0.19,0.46,0.81,0.59,0.94c0.13,0.13,0.91,0.1,1.53-0.21s0.55,0.09,1.06,0c0,0-0.68-0.41-0.05-1.14	c0.42-0.49,1.08-0.13,1.08-0.13S39.84,25.92,42,26.53z"/><path fill="#fff" d="M15.3,24.24c-0.48,3.56,2.84,6.89,6.38,6.54c-1.29,0.41-2.56,0.65-3.63,0.65	c-4.46,0-5.44-3.42-5.44-5.73c0-2.32,1.63-9.72,8.38-9.72c0.88,0,1.65,0.11,2.34,0.32C17.49,15.52,15.67,21.54,15.3,24.24z"/></svg>