<svg xmlns="http://www.w3.org/2000/svg"  viewBox="0 0 48 48" width="1600px" height="1600px" clip-rule="evenodd"><polygon fill="#445a65" fill-rule="evenodd" points="40,18 44.214,18 46.289,16 48,16 48,17 45,23 42.354,22" clip-rule="evenodd"/><polygon fill="#445a65" fill-rule="evenodd" points="18,19 21.343,14 23.832,15.811 22.31,18 22.853,19" clip-rule="evenodd"/><polygon fill="#445a65" fill-rule="evenodd" points="32.5,31 27.305,39.352 27.305,41 30.5,41 33,37.258 37.189,35.208 39.333,31" clip-rule="evenodd"/><polygon fill="#445a65" fill-rule="evenodd" points="4,19 3,20 4,28 6,30 15,30 16,31 34,31 36,33 39.5,33 42,28 41,27 42.753,24 43.184,24.5 43.754,24 46.5,24 48,21 43,21 39,16 37,16 34,11 31,13 32,15 28,19" clip-rule="evenodd"/><path fill="#445a65" fill-rule="evenodd" d="M42.997,24.688c0.718,0,1.301,0.583,1.301,1.301	c0,0.718-0.583,1.301-1.301,1.301c-0.718,0-1.301-0.583-1.301-1.301C41.696,25.271,42.279,24.688,42.997,24.688z" clip-rule="evenodd"/><circle cx="42.997" cy="26" r="1" fill="#ced7db" fill-rule="evenodd" clip-rule="evenodd"/><polygon fill="#445a65" fill-rule="evenodd" points="23,31 28.726,36 32.5,36 29.765,31.703 32.131,31.703 33,30.747 28.837,30.747" clip-rule="evenodd"/><polygon fill="#ced7db" fill-rule="evenodd" points="17,29 22,20 24,20 23,22 30,17 31,18 24.293,25 31,35 29,35 21,28 19,29" clip-rule="evenodd"/><polygon fill="#445a65" fill-rule="evenodd" points="26.084,26.874 24.884,26.874 23.57,24.859 28,21.351" clip-rule="evenodd"/><path fill="#ced7db" fill-rule="evenodd" d="M25.908,25L29,23l-1,2H25.908z M24.011,24.927L29,21h3l-4,7	l-1-1.5h-2L24.011,24.927z" clip-rule="evenodd"/><polygon fill="#ced7db" fill-rule="evenodd" points="29,27 33.107,19.5 36,19.5 31.701,27.072" clip-rule="evenodd"/><polygon fill="#445a65" fill-rule="evenodd" points="10,30 12.5,33.279 15,30" clip-rule="evenodd"/><ellipse cx="22.006" cy="25" fill="#445a65" fill-rule="evenodd" clip-rule="evenodd" rx="1.006" ry="1"/><polygon fill="#ced7db" fill-rule="evenodd" points="12,29 11,28.264 16,20 17,22 21.5,15 22.853,16 21.5,18 22,19 17,28 15.747,25 13,29 14,30 12.612,32 11,30" clip-rule="evenodd"/><polygon fill="#445a65" fill-rule="evenodd" points="9.745,18.769 8.574,18 9.652,15.771 6.778,14.313 3.833,19.721 9,20.273" clip-rule="evenodd"/><polygon fill="#445a65" fill-rule="evenodd" points="4.266,19 0,27 0,29.5 4,29.5 5,28" clip-rule="evenodd"/><polygon fill="#ced7db" fill-rule="evenodd" points="0,28 1,29 3.5,29 9,19 8,18 9,16 7,15" clip-rule="evenodd"/><polygon fill="#445a65" fill-rule="evenodd" points="6.274,24 5.361,21.615 7.592,21.615" clip-rule="evenodd"/><polygon fill="#445a65" fill-rule="evenodd" points="12.932,19.369 12.32,17.5 10.281,17.5 9.222,19.369" clip-rule="evenodd"/><polygon fill="#445a65" fill-rule="evenodd" points="26,19 28.5,17.5 26.745,17.5 29.5,13.5 41,13.5 41.997,15.5 40.5,18 32.314,15.722 31.222,19" clip-rule="evenodd"/><polygon fill="#ced7db" fill-rule="evenodd" points="10.5,18 12,18 12.5,19.92 9.305,27 6,27 7,25 6,22 8.5,22" clip-rule="evenodd"/><polygon fill="#ff6e00" fill-rule="evenodd" points="36.665,20 38,20 40.5,15.654 40.5,15 40,14 30,14 28,17 35,17 35.5,18 34.775,19 36,19" clip-rule="evenodd"/><ellipse cx="12.151" cy="24.176" fill="#445a65" fill-rule="evenodd" clip-rule="evenodd" rx="3.204" ry="3.176"/><path fill="#ced7db" fill-rule="evenodd" d="M12.151,21.351c1.573,0,2.849,1.266,2.849,2.824	S13.723,27,12.151,27c-1.573,0-2.849-1.266-2.849-2.824S10.578,21.351,12.151,21.351z" clip-rule="evenodd"/><path fill="#445a65" fill-rule="evenodd" d="M12.097,22.715c0.81,0,1.467,0.646,1.467,1.441	c0,0.796-0.657,1.441-1.467,1.441c-0.81,0-1.467-0.646-1.467-1.441C10.63,23.361,11.288,22.715,12.097,22.715z" clip-rule="evenodd"/><polygon fill="#ff6e00" fill-rule="evenodd" points="36.247,20 39.136,20 38.354,21.812 40,24 41,24 41,26 36.5,34.5 32.5,36.813 30,40.5 28,40.5 28,39.5 35,28 36,28 35,27 35,24 34,24" clip-rule="evenodd"/><circle cx="37.5" cy="25.5" r="1.5" fill="#0ff" fill-rule="evenodd" clip-rule="evenodd"/><path fill="#36474f" d="M37.5,27.75c-1.24,0-2.25-1.009-2.25-2.25s1.01-2.25,2.25-2.25s2.25,1.009,2.25,2.25 S38.74,27.75,37.5,27.75z M37.5,24.75c-0.413,0-0.75,0.336-0.75,0.75s0.337,0.75,0.75,0.75s0.75-0.336,0.75-0.75 S37.913,24.75,37.5,24.75z"/><polygon fill="#ced7db" fill-rule="evenodd" points="40,19 38.778,21.5 39.5,22.5 40.817,20.761 43,19.5 43.184,19" clip-rule="evenodd"/><polygon fill="#ced7db" fill-rule="evenodd" points="40,23 42.5,23 43.184,24 47.5,16.5 46.5,16.5 45,18 43.778,20 43,20 41.147,21 40,22.5" clip-rule="evenodd"/><polygon fill="#445a65" fill-rule="evenodd" points="43.5,20.762 42.646,22 41.717,22" clip-rule="evenodd"/><polygon fill="#445a65" fill-rule="evenodd" points="41.511,27.979 45.5,27.979 43.643,31.281 39.801,31.295" clip-rule="evenodd"/><polygon fill="#ced7db" fill-rule="evenodd" points="28.997,30.5 29.997,28.5 43.997,28.5 42.997,30.5" clip-rule="evenodd"/></svg>