<svg xmlns="http://www.w3.org/2000/svg"  viewBox="0 0 48 48" width="1600px" height="1600px"><circle cx="26" cy="21" r="7" fill="#455a64"/><path fill="#455a64" d="M31,3l1.25,2.25L27.5,13H30l4,7v2l-1.04,1.69L26.6,34.06l-1.35,2.19l-6.75,4l-4,4.75H12l-0.5-1	l11.76-18.81l0.53-0.86L24,24l-1.91-3.83L21.5,19H20l-1-2l4-7h0.625L23,9H12l-0.75-1.25l2.25-4L15,3H31 M32.177,1H31H15h-0.472	l-0.422,0.211l-1.5,0.75l-0.548,0.274L11.757,2.77l-2.25,4l-0.57,1.013l0.598,0.996l0.75,1.25L10.868,11H12h8.125l-2.862,5.008	l-0.531,0.929l0.479,0.957l1,2L18.764,21H20h0.269l0.036,0.071l1.407,2.821l-0.154,0.249L9.804,42.94l-0.595,0.951l0.502,1.003	l0.5,1L10.764,47H12h2.5h0.93l0.599-0.712l3.781-4.491l6.458-3.827l0.424-0.251l0.259-0.42l1.35-2.19l6.362-10.374l1.038-1.687	L36,22.566V22v-2v-0.531l-0.263-0.461l-4-7L31.161,11h-0.089l2.884-4.705l0.61-0.996l-0.567-1.021l-1.25-2.25L32.177,1L32.177,1z"/><circle cx="26" cy="21" r="5" fill="#37474f"/><polygon fill="#fb8c00" points="34,20 34,22 32.96,23.69 26.6,34.06 25.25,36.25 18.5,40.25 14.5,45 12,45 11.5,44 23.26,25.19 23.79,24.33 24,24 22.09,20.17 21.5,19 20,19 19,17 23,10 26,10 27.5,13 30,13"/><polygon fill="#ffa726" points="11.25,7.75 12,9 23,9 25.5,13 27.5,13 32.25,5.25 31,3 15,3 13.5,3.75"/><path fill="#ffb74d" d="M31,21c0,2.76-2.24,5-5,5c-1.01,0-1.95-0.3-2.74-0.81l0.53-0.86L24,24l-1.91-3.83L21.5,19h-0.09	c0.78-1.76,2.54-3,4.59-3C28.76,16,31,18.24,31,21z"/><circle cx="26" cy="21" r="3" fill="#455a64"/><circle cx="26" cy="21" r="1" fill="#64b5f6"/><polygon fill="#e65100" points="32.96,23.69 26.6,34.06 25.5,31.5 28,27"/><circle cx="17.5" cy="37.5" r=".5" fill="#455a64"/><circle cx="28" cy="27" r=".5" fill="#455a64"/><circle cx="21.5" cy="16.5" r=".5" fill="#455a64"/><circle cx="27.5" cy="9.5" r=".5" fill="#455a64"/><path fill="#455a64" d="M29.46,4.297l0.889,1.6c0.078,0.14,0.282,0.136,0.353-0.008l0.277-0.553	c0.031-0.061,0.028-0.134-0.007-0.192l-0.628-1.047C30.307,4.037,30.242,4,30.172,4h-0.538C29.482,4,29.386,4.164,29.46,4.297z"/><path fill="#455a64" d="M12.511,7.454l0.645-1.029c0.146-0.233,0.499-0.233,0.645,0l0.645,1.029	C14.596,7.694,14.416,8,14.123,8h-1.289C12.541,8,12.361,7.694,12.511,7.454z"/><path fill="#455a64" d="M22,36.639l0.031-1.214c0.007-0.275,0.311-0.455,0.555-0.328l1.079,0.558	c0.252,0.13,0.252,0.485,0,0.634l-1.11,0.656C22.304,37.094,21.993,36.923,22,36.639z"/><polygon fill="#455a64" points="30.75,14 24.978,14 22.08,9.521 22.92,8.979 25.522,13 30.75,13"/></svg>