<svg xmlns="http://www.w3.org/2000/svg"  viewBox="0 0 48 48" width="1600px" height="1600px" clip-rule="evenodd" baseProfile="basic"><linearGradient id="U7pKtRrBdKKHVQR2Qd8D0a" x1="-149.794" x2="-143.531" y1="282.526" y2="282.526" gradientTransform="matrix(.7184 .6956 -1.0881 .3383 423.863 19.496)" gradientUnits="userSpaceOnUse"><stop offset="0" stop-color="#768088"/><stop offset="1" stop-color="#535f69"/></linearGradient><path fill="url(#U7pKtRrBdKKHVQR2Qd8D0a)" d="M11.007,9.999c1.656,0,3,1.344,3,3s-1.344,3-3,3	c-1.656,0-3-1.344-3-3S9.351,9.999,11.007,9.999z"/><linearGradient id="U7pKtRrBdKKHVQR2Qd8D0b" x1="-147.595" x2="-141.333" y1="278.006" y2="278.006" gradientTransform="matrix(.7184 .6956 -1.0881 .3383 443.355 19.496)" gradientUnits="userSpaceOnUse"><stop offset="0" stop-color="#768088"/><stop offset="1" stop-color="#535f69"/></linearGradient><path fill="url(#U7pKtRrBdKKHVQR2Qd8D0b)" d="M36.997,9.999c-1.656,0-3,1.344-3,3s1.344,3,3,3	c1.656,0,3-1.344,3-3S38.653,9.999,36.997,9.999z"/><linearGradient id="U7pKtRrBdKKHVQR2Qd8D0c" x1="22.718" x2="62.823" y1="610.704" y2="610.704" gradientTransform="rotate(90 326.778 307.933)" gradientUnits="userSpaceOnUse"><stop offset="0" stop-color="#f44f5b"/><stop offset=".443" stop-color="#ee3d4a"/><stop offset="1" stop-color="#e5202e"/></linearGradient><path fill="url(#U7pKtRrBdKKHVQR2Qd8D0c)" d="M24.007,45.999c-2.664,0-4.797-1.111-6-3	c-0.739,0.661-1.885,1-3,1c-3.072,0-7-3.311-7-7c-3,0-6-4-6-8c0-6.117,3.637-12.413,9-16c0.961-3.228,2.955-6.487,7.136-8.049	c1.609-0.601,3.541,1.049,5.864,1.049c2.321,0,4.252-1.651,5.86-1.051c4.184,1.561,6.177,4.823,7.14,8.051c5.363,3.587,9,9.883,9,16	c0,4-3,8-6,8c0,3.689-3.928,7-7,7c-1.115,0-2.261-0.339-3-1C28.805,44.889,26.671,45.999,24.007,45.999z"/><linearGradient id="U7pKtRrBdKKHVQR2Qd8D0d" x1="-195.671" x2="-185.835" y1="243.952" y2="243.952" gradientTransform="matrix(.7652 .6438 -.9087 .5423 392.719 1.1)" gradientUnits="userSpaceOnUse"><stop offset="0" stop-color="#dae4ed"/><stop offset="1" stop-color="#c2ccd5"/></linearGradient><path fill="url(#U7pKtRrBdKKHVQR2Qd8D0d)" d="M20.007,13.999c-2.192,0-4-1.807-4-4	c0-2.043,0.947-3.644,2.14-5.051c1.608-0.6,3.539-0.949,5.86-0.949c2.316,0,4.245,0.349,5.852,0.947	c1.193,1.408,2.143,3.009,2.143,5.053c0,2.193-1.808,4-4,4c0,2.828-2.161,4-4,4C22.163,17.999,20.007,16.827,20.007,13.999z"/><linearGradient id="U7pKtRrBdKKHVQR2Qd8D0e" x1="-169.597" x2="-169.597" y1="-102.186" y2="-94.444" gradientTransform="translate(193.603 106.443)" gradientUnits="userSpaceOnUse"><stop offset="0" stop-color="#fed100"/><stop offset="1" stop-color="#e36001"/></linearGradient><path fill="url(#U7pKtRrBdKKHVQR2Qd8D0e)" d="M22.007,7.999V4.093c0.632-0.061,1.297-0.093,2-0.093	c0.7,0,1.365,0.032,1.997,0.093v3.907c0,2.315-0.609,4-2,4S22.007,10.314,22.007,7.999z"/><path fill="#454545" fill-rule="evenodd" d="M17.007,10.001	c0-0.551,0.448-1,1-1h2.015c0.551,0,1,0.449,1,1c0,0.552-0.449,1-1,1h-2.015C17.455,11.001,17.007,10.553,17.007,10.001z" clip-rule="evenodd"/><path fill="#454545" fill-rule="evenodd" d="M24.007,25.001	c-0.552,0-1-0.332-1-1.5s0.448-1.501,1-1.501c0.552,0,1,0.333,1,1.501S24.559,25.001,24.007,25.001z" clip-rule="evenodd"/><path fill="#454545" fill-rule="evenodd" d="M8.007,25.001	c-0.552,0-1-0.332-1-1.5s0.448-1.501,1-1.501c0.552,0,1,0.333,1,1.501S8.559,25.001,8.007,25.001z" clip-rule="evenodd"/><path fill="#454545" fill-rule="evenodd" d="M16.007,23.001	c-0.552,0-1-0.332-1-1.5c0-1.168,0.448-1.501,1-1.501c0.552,0,1,0.333,1,1.501C17.007,22.669,16.559,23.001,16.007,23.001z" clip-rule="evenodd"/><path fill="#454545" fill-rule="evenodd" d="M32.007,23.001	c-0.552,0-1-0.332-1-1.5c0-1.168,0.448-1.501,1-1.501c0.552,0,1,0.333,1,1.501C33.007,22.669,32.559,23.001,32.007,23.001z" clip-rule="evenodd"/><path fill="#454545" fill-rule="evenodd" d="M40.007,24.999	c-0.552,0-1-0.332-1-1.5c0-1.168,0.448-1.501,1-1.501c0.552,0,1,0.333,1,1.501C41.007,24.667,40.559,24.999,40.007,24.999z" clip-rule="evenodd"/><path fill="#454545" fill-rule="evenodd" d="M24.007,34.999	c-0.552,0-1-0.332-1-1.5s0.448-1.501,1-1.501c0.552,0,1,0.333,1,1.501S24.559,34.999,24.007,34.999z" clip-rule="evenodd"/><path fill="#454545" fill-rule="evenodd" d="M11.007,30.001	c-0.552,0-1-0.332-1-1.5s0.448-1.501,1-1.501c0.552,0,1,0.333,1,1.501S11.559,30.001,11.007,30.001z" clip-rule="evenodd"/><path fill="#454545" fill-rule="evenodd" d="M19.007,30.001	c-0.552,0-1-0.332-1-1.5s0.448-1.501,1-1.501c0.552,0,1,0.333,1,1.501S19.559,30.001,19.007,30.001z" clip-rule="evenodd"/><path fill="#454545" fill-rule="evenodd" d="M36.999,30.001	c0.552,0,1-0.332,1-1.5s-0.448-1.501-1-1.501c-0.552,0-1,0.333-1,1.501S36.447,30.001,36.999,30.001z" clip-rule="evenodd"/><path fill="#454545" fill-rule="evenodd" d="M28.999,30.001	c0.552,0,1-0.332,1-1.5s-0.448-1.501-1-1.501c-0.552,0-1,0.333-1,1.501S28.447,30.001,28.999,30.001z" clip-rule="evenodd"/><path fill="#454545" fill-rule="evenodd" d="M26.993,10.001	c0-0.551,0.448-1,1-1h2.015c0.551,0,1,0.449,1,1c0,0.552-0.449,1-1,1h-2.015C27.441,11.001,26.993,10.553,26.993,10.001z" clip-rule="evenodd"/><path fill="#454545" fill-rule="evenodd" d="M22.007,14.001	c0-0.551,0.448-1,1-1h2.015c0.551,0,1,0.449,1,1c0,0.552-0.449,1-1,1h-2.015C22.455,15.001,22.007,14.553,22.007,14.001z" clip-rule="evenodd"/><path fill="#454545" fill-rule="evenodd" d="M8.007,36.999	c0-1.536,1.016-4,2.681-4c1.156,0,1.319,0.98,1.319,1.643C12.007,36.131,9.513,36.999,8.007,36.999z" clip-rule="evenodd"/><path fill="#454545" fill-rule="evenodd" d="M18.007,42.999	c-0.565-0.791-1-2-1-3c0-0.781,0.449-2,1.556-2c1.056,0,1.444,0.819,1.444,1.819C20.027,41.026,19.313,41.83,18.007,42.999z" clip-rule="evenodd"/><path fill="#454545" fill-rule="evenodd" d="M39.994,36.999	c0-1.536-1.016-4-2.681-4c-1.156,0-1.319,0.98-1.319,1.643C35.994,36.131,38.489,36.999,39.994,36.999z" clip-rule="evenodd"/><path fill="#454545" fill-rule="evenodd" d="M29.994,42.999	c0.565-0.791,1-2,1-3c0-0.781-0.449-2-1.556-2c-1.056,0-1.444,0.819-1.444,1.819C27.974,41.026,28.689,41.83,29.994,42.999z" clip-rule="evenodd"/></svg>