<svg xmlns="http://www.w3.org/2000/svg"  viewBox="0 0 48 48" width="1600px" height="1600px"><path fill="#dd2c00" d="M40,18c0-8.837-7.163-16-16-16S8,9.163,8,18c0,10,16,28,16,28S40,28,40,18z"/><path fill="#eee" d="M33,12c-2.09-1.45-5-4.5-7.5-4.5c-1.69,0-3.17,0.35-4.51,1.22C20.62,8.43,20.15,8.16,19.5,8	c0.4,0.4,0.69,0.77,0.92,1.12c-0.45,0.35-0.88,0.75-1.3,1.23C18.77,9.88,18.13,9.28,17,9c0.85,0.85,1.25,1.61,1.42,2.2	c-0.26,0.36-0.52,0.76-0.78,1.18c-0.35-0.48-0.99-1.09-2.14-1.38c1,1,1.37,1.87,1.5,2.5c-0.25,0.45-0.49,0.94-0.73,1.45	c-0.38-0.37-0.94-0.74-1.77-0.95c0.73,0.73,1.12,1.39,1.33,1.94c-0.25,0.58-0.5,1.19-0.75,1.85c-0.37-0.32-0.88-0.61-1.58-0.79	c0.58,0.58,0.95,1.12,1.18,1.59c-0.3,0.36-0.78,0.66-1.38,0.89c-0.38-0.38-0.95-0.77-1.8-0.98c0.44,0.44,0.76,0.86,0.99,1.24	c-1.24,0.33-2.789,0.461-4.279,0.431c0.42,2.3,1.459,4.869,2.799,7.479c0.22-0.17,0.45-0.36,0.69-0.56C13,27.36,15.17,28.17,16,29	c0.5,0.5,1.5,0.5,2,0s2-1.5,3-1.5s2-1.5,3.5,0c0-1.5-2-1.5-2.5-1.5c0.5-0.5,1.5-1,2.5-1c-1-0.5-2.5-0.5-3.5,0.5s-1.5,2.5-3,2	s-2,0.5-2.5,0c-0.38-0.38-1.32-1.04-1.98-2.2c0.6-0.7,1.12-1.47,1.48-2.3c2.04-0.41,4.75-1.48,5.67-3.5	c0.77,1.18,1.65,2.05,2.33,2.5c1.5,1,3,1,3.5,1.5s2.5,2,4,2c1.37,0,2.31-0.83,1.69-1.36C32.23,23.9,32.18,23.55,32,23	c-0.16,0.32-0.32,0.57-0.48,0.79c-0.18-0.07-0.35-0.13-0.53-0.2c0.02-0.24-0.02-0.57-0.2-1.09c-0.16,0.33-0.33,0.59-0.49,0.81	c-0.19-0.09-0.39-0.2-0.6-0.34c0-0.23-0.05-0.53-0.2-0.97c-0.11,0.22-0.22,0.42-0.34,0.59c-0.16-0.13-0.32-0.27-0.49-0.44	c-0.03-0.18-0.08-0.38-0.17-0.65c-0.06,0.11-0.11,0.2-0.17,0.3c-1.2-1.47,0.06-3.37-2.33-4.8c1.13-1.13,2.41-0.51,3.76,0.25	c-0.06,0.26-0.14,0.52-0.26,0.75c0.24-0.12,0.48-0.3,0.7-0.51c0.21,0.12,0.42,0.23,0.64,0.34c-0.06,0.41-0.17,0.82-0.34,1.17	c0.35-0.18,0.71-0.48,1.02-0.85c0.28,0.12,0.56,0.21,0.85,0.27C32.35,18.96,32.23,19.53,32,20c0.55-0.27,1.09-0.85,1.47-1.48	c0.32,0.02,0.62,0.05,0.89,0.1C34.32,19.1,34.2,19.59,34,20c0.45-0.22,0.89-0.66,1.25-1.15c0.23,0.08,0.43,0.18,0.61,0.27	c-0.04,0.48-0.16,0.97-0.36,1.38c0.37-0.19,0.75-0.51,1.07-0.9c0.17,0.15,0.32,0.29,0.43,0.4c1-0.5,2-1.5,2-2.5	C39,16.2,36.85,14.67,33,12z M26.8,12.7c-0.2,0.42-0.65,0.97-1.63,1.26c-0.1,0.03-0.2,0.04-0.29,0.04c-0.39,0-0.75-0.21-0.88-0.55	c-0.16-0.42,0.1-0.87,0.59-1.01c0.35-0.1,0.45-0.25,0.5-0.35c0.12-0.25,0.07-0.61-0.11-0.93c-0.23-0.4-0.05-0.88,0.41-1.08	c0.46-0.19,1.01-0.03,1.24,0.36C27.05,11.18,27.12,12.03,26.8,12.7z M29.16,15c-1.17,0-1.6-1.2-0.61-2c0.49-0.4-1.14-1.5,0.03-1.94	C29.74,10.62,31,12.92,31,13.8S30.32,15,29.16,15z"/></svg>