<svg xmlns="http://www.w3.org/2000/svg"  viewBox="0 0 48 48" width="1600px" height="1600px" baseProfile="basic"><polygon fill="#ffb74d" points="42.98,34.96 43,35 30.7,35.56 24.04,46.27 24,46.19 17.34,35.58 5,35 10.64,24.03 5.02,13.04 5,13 17.3,12.44 23.96,1.73 24,1.81 30.66,12.42 43,13 37.36,23.97"/><polygon fill="#ffcc80" points="24,24 43,13 30.656,12.417 24,1.806 24,24"/><polygon fill="#ffb74d" points="42.978,34.957 37.359,23.973 43,13 24,24"/><polygon fill="#fb8c00" points="24,24 24,24 24,46.194 24.045,46.266 30.703,35.556 43,35 42.978,34.957"/><polygon fill="#ffb74d" points="5,35 17.344,35.583 24,46.194 24,24"/><polygon fill="#ffcc80" points="24,24 5.022,13.043 10.641,24.027 5,35 24,24"/><polygon fill="#ffe0b2" points="24,1.806 23.955,1.734 17.297,12.444 5,13 5.022,13.043 24,24"/><rect width="14" height="7" x="17" y="20" fill="#ffcc80"/><path fill="#37474f" d="M30,17v-2H18v2h-2v12h1v4h3v-4h2v3h4v-3h2v4h3v-4h1V17H30z M22,26h-4v-4h4V26z M30,26h-4v-4h4V26z"/></svg>