<svg xmlns="http://www.w3.org/2000/svg"  viewBox="0 0 48 48" width="1600px" height="1600px"><path fill="#ff5722" d="M6 33L13 37.941 13 29.941 6 25z"/><path fill="#29b6f6" d="M6 14L6 22 13 26.941 13 18.941z"/><path fill="#eeff41" d="M15 39.353L23 45 23 37 15 31.353z"/><path fill="#ab47bc" d="M15 20.353L15 28.353 23 34 23 26z"/><path fill="#29b6f6" d="M42 33L35 37.941 35 29.941 42 25z"/><path fill="#ab47bc" d="M42 14L42 22 35 26.941 35 18.941z"/><path fill="#ff5722" d="M33 39.353L25 45 25 37 33 31.353z"/><path fill="#eeff41" d="M33 20.353L33 28.353 25 34 25 26z"/><path fill="#29b6f6" d="M22.37,12.615l-6.631-4.42c-0.32-0.213-0.733-0.224-1.064-0.029L7.346,12.5l7.274,5.092L22.37,12.615 z"/><path fill="#ab47bc" d="M24.206,11.436l7.023-4.51L25.15,3.33c-0.349-0.219-0.747-0.328-1.145-0.329V3 c-0.001,0-0.002,0-0.003,0S24.001,3,24,3v0.001c-0.398,0.001-0.797,0.11-1.145,0.329l-5.728,3.386L24.206,11.436z"/><path fill="#eeff41" d="M26.023,12.647l7.389,4.926l7.245-5.071l-6.97-4.122c-0.325-0.192-0.731-0.185-1.049,0.019 L26.023,12.647z"/><path fill="#ff5722" d="M23.636,14.18l-7.244,4.652L24,24.157v0.003l0.003-0.002l0.003,0.002v-0.003l7.648-5.354 l-6.922-4.615C24.4,13.968,23.97,13.965,23.636,14.18z"/></svg>