<svg xmlns="http://www.w3.org/2000/svg"  viewBox="0 0 48 48" width="1600px" height="1600px"><path fill="#dd9f05" d="M24 7A19 19 0 1 0 24 45A19 19 0 1 0 24 7Z"/><path fill="#01579b" d="M24 9A17 17 0 1 0 24 43A17 17 0 1 0 24 9Z"/><path fill="#0277bd" d="M34 32c.917 2.917-2.167 5.045-4.583 5.045-1.322 0-2.958-.504-3.417-2.045-1.705.906-3.164 1.909-4 2.518V39h12.915c1.998-1.678 3.614-3.794 4.671-6.22C38.731 32.46 36.988 32 34 32zM36.563 14.571c-3.958 1.163-6.771 3.275-8.052 4.386C27.629 21.634 25.517 24.582 22 27v7c0 0 2.796-5.109 9.417-6.667 4.316-1.016 8.045-1.305 9.581-1.386C40.984 21.562 39.303 17.576 36.563 14.571z"/><path fill="#0091ea" d="M34.919,12.993c-0.949-0.796-1.981-1.497-3.089-2.073C30.717,11.435,29.324,12.143,28,13 c0.629,0.787,0.957,1.84,0.985,3.04C30.435,15.017,32.438,13.852,34.919,12.993z"/><path fill="#0277bd" d="M24 11A15 15 0 1 0 24 41A15 15 0 1 0 24 11Z"/><path fill="#00b0ff" d="M29.557,12.076C29.04,12.362,28.516,12.666,28,13c0.629,0.787,0.957,1.84,0.985,3.04 c1.005-0.709,2.293-1.482,3.804-2.178C31.795,13.141,30.714,12.538,29.557,12.076z"/><path fill="#0091ea" d="M39,26c0-4.19-1.721-7.974-4.491-10.695c-2.875,1.18-4.954,2.746-5.999,3.652 C27.629,21.634,25.517,24.582,22,27v7c0,0,2.796-5.109,9.417-6.667c2.994-0.704,5.685-1.055,7.578-1.234 C38.995,26.066,39,26.034,39,26z"/><path fill="#b3831d" d="M39.473 37H33v2h4.83C38.422 38.371 38.971 37.705 39.473 37zM22 7.107v37.786C22.658 44.962 23.324 45 24 45V7C23.324 7 22.658 7.038 22 7.107zM11 39.83c.629.591 1.295 1.141 2 1.643V10.527c-.705.502-1.371 1.052-2 1.643V39.83z"/><path fill="#01579b" d="M11,36.943c0.609,0.723,1.28,1.392,2,2.005V13.051c-0.72,0.613-1.391,1.282-2,2.005V36.943z"/><path fill="#ffc107" d="M10 3L22 3 22 39 42 39 37 45 10 45 13 41 13 7z"/><path fill="#01579b" d="M24,37V9c-0.678,0-1.343,0.051-2,0.128V39h12.943c0.723-0.609,1.392-1.28,2.005-2H24z"/><path fill="#0277bd" d="M24,25.395c-0.582,0.544-1.238,1.081-2,1.605v7c0,0,0.636-1.149,2-2.521V25.395z"/><path fill="#e8a30a" d="M22 39L22 3 20 3 20 41 40.333 41 42 39z"/><path fill="#0091ea" d="M34,32c0.917,2.917-2.167,5.045-4.583,5.045c-1.322,0-2.958-0.504-3.417-2.045 c-1.705,0.906-3.164,1.909-4,2.518V39h9.462c2.687-1.546,4.843-3.896,6.15-6.727C36.693,32.117,35.505,32,34,32z"/><path fill="#0277bd" d="M36.349,37.65c0.196-0.206,0.366-0.435,0.551-0.65h-6.89c-0.2,0.027-0.399,0.045-0.593,0.045 c-0.209,0-0.426-0.018-0.644-0.045H24v-0.836c-0.824,0.519-1.518,1.003-2,1.354V39h12.915c0.497-0.418,0.971-0.863,1.418-1.333 C36.338,37.662,36.343,37.656,36.349,37.65z"/></svg>