<svg xmlns="http://www.w3.org/2000/svg"  viewBox="0 0 48 48" width="1600px" height="1600px"><path fill="#37474f" d="M47.92,23.07c0,0-9.89,10.19-18.92,13.45v-4.25c2.99-1.79,5-5.12,5-8.95C34,17.62,29.52,13,24,13 s-10,4.62-10,10.32c0,3.75,1.93,7.02,4.82,8.84c-0.42,1.17-0.94,2.45-1.58,3.65C8.73,31.98,0.08,23.07,0.08,23.07S14.13,10,24,10 S47.92,23.07,47.92,23.07z"/><path fill="#37474f" d="M17,24l7-9l7,9l-4,5v8c0,0-2.083,0-4,0s-4-1-4-1s3-1.25,3-7L17,24z M24,22.19l-3.354,3.354 l3.833,3.354l3.354-3.354L24,22.19z"/><polygon fill="#37474f" points="22.055,25.49 24,23.545 26.537,25.603 24.365,27.538"/><rect width="2" height="5" x="25" y="36" fill="#37474f"/><rect width="2" height="5" x="22" y="36" fill="#37474f"/></svg>