<svg xmlns="http://www.w3.org/2000/svg"  viewBox="0 0 48 48" width="1600px" height="1600px" baseProfile="basic"><path fill="#37474f" d="M24,10C14.13,10,0.08,23.07,0.08,23.07s8.65,8.91,17.16,12.74c0.64-1.2,1.16-2.48,1.58-3.65 C15.93,30.34,14,27.07,14,23.32C14,17.62,18.48,13,24,13s10,4.62,10,10.32c0,3.83-2.01,7.16-5,8.95v4.25 c9.03-3.26,18.92-13.45,18.92-13.45S33.87,10,24,10z"/><path fill="#37474f" d="M30,18h-9l-3,1v8l4,2c0,5.75-3,7-3,7s1.423,0.676,3,0.913V41h2v-4c0.346,0,0.683,0,1,0v4h2v-4v-1v-7 h3V18z M23,26c-0.55,0-1-0.45-1-1s0.45-1,1-1s1,0.45,1,1S23.55,26,23,26z M27,26c-0.55,0-1-0.45-1-1s0.45-1,1-1s1,0.45,1,1 S27.55,26,27,26z"/></svg>