<svg xmlns="http://www.w3.org/2000/svg"  viewBox="0 0 48 48" width="1600px" height="1600px"><path fill="#616161" d="M42,34h-2V19.06c0-1.411-0.756-2.732-1.972-3.448l-12-7.059c-1.252-0.735-2.805-0.735-4.057,0 l-12,7.059C8.756,16.328,8,17.648,8,19.06V34H6V19.06c0-2.117,1.134-4.098,2.958-5.171l12-7.059c1.875-1.104,4.207-1.104,6.084,0 l12,7.059C40.866,14.961,42,16.943,42,19.06V34z"/><polygon fill="#616161" points="44,36 44,35 4,35 4,36 7,36 7,37 4,37 4,38 9,38 9,39 5,39 5,40 15,40 15,41 9,41 9,42 19,42 19,43 18,43 18,44 30,44 30,43 29,43 29,42 39,42 39,41 33,41 33,40 43,40 43,39 39,39 39,38 44,38 44,37 41,37 41,36"/><path fill="#616161" d="M35.94,29.94C34.06,34.1,29.87,37,25,37c-6.63,0-12-5.37-12-12c0-4.87,2.9-9.06,7.06-10.94 C19.38,15.57,19,17.24,19,19c0,6.63,5.37,12,12,12C32.76,31,34.43,30.62,35.94,29.94z"/><polygon fill="#616161" points="36.156,23.944 35.6,22.556 35.044,23.944 33.656,24.5 35.044,25.056 35.6,26.444 36.156,25.056 37.544,24.5"/><polygon fill="#616161" points="28.056,26.044 28.5,27.156 28.944,26.044 30.056,25.6 28.944,25.156 28.5,24.044 28.056,25.156 26.944,25.6"/><polygon fill="#616161" points="22.5,20.056 22.944,18.944 24.056,18.5 22.944,18.056 22.5,16.944 22.056,18.056 20.944,18.5 22.056,18.944"/><polygon fill="#616161" points="26.5,22.778 26.833,21.944 27.667,21.611 26.833,21.278 26.5,20.444 26.167,21.278 25.333,21.611 26.167,21.944"/><polygon fill="#616161" points="32.5,18.567 32.833,17.733 33.667,17.4 32.833,17.067 32.5,16.233 32.167,17.067 31.333,17.4 32.167,17.733"/><polygon fill="#616161" points="23.389,13.444 23.722,12.611 24.556,12.278 23.722,11.944 23.389,11.111 23.056,11.944 22.222,12.278 23.056,12.611"/><polygon fill="#616161" points="10.6,20.667 10.933,19.833 11.767,19.5 10.933,19.167 10.6,18.333 10.267,19.167 9.433,19.5 10.267,19.833"/><polygon fill="#616161" points="10.556,29.778 10.111,30.889 9,31.333 10.111,31.778 10.556,32.889 11,31.778 12.111,31.333 11,30.889"/></svg>