<svg xmlns="http://www.w3.org/2000/svg"  viewBox="0 0 48 48" width="1600px" height="1600px"><polygon fill="#ffac00" points="0,23.377 4.4,23.377 5.478,16.388 6.664,23.377 8.28,23.377 11.605,16.388 10.947,23.377 14.344,23.377 13.055,22.068 13.777,14.327 11.048,14.327 8.152,19.896 6.982,14.327 4.197,14.327 2.694,21.456"/><path fill="#ffac00" d="M30.027,20.157c-0.251-1.309-2.049-1.736-2.049-1.736c1.405-0.374,1.396-1.463,1.396-1.463	c0.035-0.213,0.029-0.443-0.001-0.684c-0.119-1.234-1.517-1.77-2.007-1.779h-3.982v8.883h4.275c1.816-0.031,2.321-1.677,2.321-1.677	C30.213,21.08,30.027,20.157,30.027,20.157z M25.361,15.719l1.333-0.021c0,0,0.704,0.408,0.689,1.077c0,0,0.052,0.989-0.782,1.004	h-1.24V15.719z M26.967,21.869h-1.606v-2.342h1.606c0,0,0.875,0.404,0.875,1.142C27.841,20.668,27.822,21.587,26.967,21.869z"/><polygon fill="#ffac00" points="30.443,15.792 29.659,14.411 32.991,14.411 32.412,15.792 32.696,22.066 33.736,23.377 30.076,23.377 30.772,21.929"/><polygon fill="#ffac00" points="34.247,23.377 33.561,14.411 35.482,14.411 36.077,21.291 39.504,21.291 39.718,23.377"/><polygon fill="#ffac00" points="40.176,23.377 38.866,14.327 43.767,14.188 44.074,14.828 43.934,15.664 41.011,15.803 41.289,17.641 44.241,17.585 44.575,18.337 44.464,19.312 41.637,19.395 41.846,21.372 45.16,21.372 48,23.377"/><polygon fill="#ffac00" points="2.702,32.6 4.17,24.108 6,24.122 5.021,30.639 8.029,30.639 7.737,32.244"/><polygon fill="#ffac00" points="8.28,31.503 9.31,24.43 13.32,24.43 13.181,25.806 10.8,25.806 10.646,27.187 12.874,27.214 12.735,28.551 10.424,28.635 10.229,30.138 12.846,30.11 12.735,31.503"/><path fill="#ffac00" d="M19.334,26.212c0,0-1.582-0.849-2.848-0.324c-1.452,0.603-2.091,2.738-0.824,3.821	c0,0,0.86,0.708,2.14,0.207l0.139-1.253l-1.356-0.069l0.12-1.339l2.899-0.007l-0.131,3.643c0,0-1.949,1.225-4.093,0.613	c0,0-1.954-0.326-2.061-3.175c0.028-1.214,0.722-3.733,3.187-3.908c0,0,2.271-0.186,2.967,0.232L19.334,26.212z"/><polygon fill="#ffac00" points="20.448,31.28 20.699,24.43 24.653,24.43 24.653,25.655 22.286,25.655 22.286,27.131 24.458,27.131 24.486,28.523 22.203,28.551 22.203,29.943 24.876,29.999 24.876,31.391 20.448,31.391"/><polygon fill="#ffac00" points="25.572,31.391 25.572,24.43 27.271,24.43 30.501,28.885 30.288,24.43 31.858,24.43 32.2,31.391 30.501,31.391 27.076,26.574 27.215,31.391"/><path fill="#ffac00" d="M39.078,26.323c-0.947-1.782-2.98-1.894-2.98-1.894h-3.286l0.613,6.962h3.759	c1.754-0.418,2.172-1.838,2.172-1.838C39.941,27.855,39.078,26.323,39.078,26.323z M36.571,30.027h-1.587l-0.334-4.221h1.392	c0,0,1.587,0.629,1.643,2.244C37.685,28.05,37.908,29.414,36.571,30.027z"/><path fill="#ffac00" d="M40.203,31.779l-0.068-1.752c0,0,0.573,0.472,2.395,0.752c0.625,0.096,1.481-0.628,0.507-1.28	c0,0-1.487-0.665-1.927-0.948c0,0-1.431-0.891-1.551-1.782c0,0-0.508-1.587,0.983-2.16c0.337-0.13,0.573-0.19,1.023-0.23l3.285,0.05	L44.322,26c0,0-0.761-0.182-1.903-0.194c-0.714-0.007-1.662,0.584-0.651,1.111c0.323,0.168,1.236,0.676,2.21,1.216	c0,0,1.505,0.753,1.42,2.45c0,0-0.006,1.249-1.448,1.699C43.951,32.282,42.129,32.748,40.203,31.779z"/><path fill="#ffac00" d="M18.662,14.51c-2.421-0.205-4.552,1.61-4.759,4.055c-0.207,2.444,1.588,4.592,4.01,4.797	c2.421,0.205,4.552-1.61,4.759-4.055C22.879,16.862,21.084,14.715,18.662,14.51z M20.598,19.326	c-0.267,1.643-1.506,2.808-2.768,2.603c-1.262-0.205-2.069-1.703-1.802-3.345c0.267-1.643,1.506-2.808,2.768-2.603	C20.058,16.186,20.865,17.684,20.598,19.326z"/><path fill="#8b024f" d="M36.28,32.766H11.708l-1.261,1.252v0.313l1.485,1.565l24.124-0.057l1.513-1.508v-0.256L36.28,32.766 z M15.472,35.105c-0.075,0.068-0.18,0.123-0.317,0.164c-0.154,0.046-0.306,0.069-0.458,0.069h-1.12v-1.976h0.906 c0.239,0,0.455,0.031,0.647,0.093c0.164,0.053,0.282,0.134,0.352,0.244c0.038,0.059,0.058,0.129,0.058,0.209 c0,0.132-0.072,0.239-0.214,0.318c-0.06,0.034-0.13,0.059-0.211,0.077c0.134,0.025,0.248,0.075,0.342,0.15 c0.062,0.05,0.108,0.115,0.138,0.195c0.015,0.041,0.022,0.087,0.022,0.137C15.617,34.912,15.568,35.018,15.472,35.105z M17.583,35.338l-0.141-0.454H16.81l-0.147,0.454h-0.63l0.682-1.974h0.832l0.672,1.974H17.583z M20.815,35.338h-0.65l-0.832-1.265 v1.265h-0.605v-1.976h0.679l0.803,1.328v-1.328h0.605V35.338z M23.263,34.04h-0.628v-0.232c0-0.047-0.034-0.088-0.102-0.121 c-0.068-0.034-0.15-0.05-0.247-0.05c-0.096,0-0.178,0.017-0.245,0.05c-0.067,0.034-0.101,0.074-0.101,0.121v1.081 c0,0.047,0.034,0.087,0.101,0.12c0.067,0.033,0.149,0.05,0.245,0.05c0.096,0,0.178-0.017,0.247-0.049 c0.068-0.033,0.102-0.073,0.102-0.12v-0.388H22.3v-0.299h0.964v0.69c0,0.131-0.094,0.242-0.282,0.334 c-0.188,0.091-0.413,0.137-0.675,0.137c-0.267,0-0.494-0.046-0.68-0.139c-0.187-0.092-0.28-0.203-0.28-0.332v-1.078 c0-0.131,0.094-0.243,0.282-0.335c0.188-0.092,0.414-0.138,0.679-0.138c0.267,0,0.493,0.046,0.679,0.139 c0.186,0.092,0.279,0.204,0.279,0.334V34.04z M26.823,35.105c-0.075,0.068-0.18,0.123-0.317,0.164 c-0.154,0.046-0.306,0.069-0.458,0.069h-1.12l0.002-1.996l0.904,0.02c0.239,0.005,0.455,0.031,0.647,0.093 c0.164,0.053,0.282,0.134,0.352,0.244c0.038,0.059,0.058,0.129,0.058,0.209c0,0.132-0.072,0.239-0.214,0.318 c-0.06,0.034-0.13,0.059-0.211,0.077c0.134,0.025,0.249,0.075,0.343,0.15c0.062,0.05,0.108,0.115,0.138,0.195 c0.015,0.041,0.022,0.087,0.022,0.137C26.967,34.912,26.919,35.018,26.823,35.105z M28.933,35.338l-0.142-0.454H28.16l-0.147,0.454 h-0.63l0.685-1.978l0.829,0.004l0.672,1.974H28.933z M32.165,35.338h-0.65l-0.832-1.265v1.265h-0.605v-1.976h0.679l0.803,1.328 v-1.328h0.605V35.338z M34.614,34.04h-0.628v-0.232c0-0.047-0.034-0.088-0.102-0.121c-0.068-0.034-0.15-0.05-0.246-0.05 c-0.096,0-0.178,0.017-0.245,0.05c-0.067,0.034-0.101,0.074-0.101,0.121v1.081c0,0.047,0.034,0.087,0.101,0.12 c0.067,0.033,0.149,0.05,0.245,0.05c0.096,0,0.178-0.017,0.246-0.049c0.068-0.033,0.102-0.073,0.102-0.12v-0.388H33.65v-0.299 h0.964v0.69c0,0.131-0.094,0.242-0.282,0.334c-0.188,0.091-0.413,0.137-0.675,0.137c-0.267,0-0.494-0.046-0.68-0.139 c-0.187-0.092-0.28-0.203-0.28-0.332v-1.078c0-0.131,0.094-0.243,0.282-0.335c0.188-0.092,0.414-0.138,0.679-0.138 c0.267,0,0.493,0.046,0.679,0.139c0.186,0.092,0.279,0.204,0.279,0.334V34.04z"/><path fill="#8b024f" d="M25.834,34.454h-0.253v0.589h0.253c0.205,0,0.347-0.052,0.426-0.156 c0.028-0.036,0.042-0.077,0.042-0.123c0-0.11-0.043-0.191-0.128-0.241C26.096,34.477,25.983,34.454,25.834,34.454z"/><polygon fill="#8b024f" points="16.903,34.594 17.351,34.594 17.127,33.816"/><path fill="#8b024f" d="M26.211,34.034c0.023-0.034,0.035-0.075,0.035-0.125c0-0.082-0.041-0.144-0.122-0.186 c-0.075-0.039-0.172-0.058-0.291-0.058h-0.253v0.504h0.253C26.021,34.169,26.147,34.124,26.211,34.034z"/><polygon fill="#8b024f" points="28.253,34.594 28.702,34.594 28.478,33.816"/><path fill="#8b024f" d="M14.861,34.034c0.023-0.034,0.035-0.075,0.035-0.125c0-0.082-0.041-0.144-0.122-0.186 c-0.075-0.039-0.172-0.058-0.291-0.058h-0.253v0.504h0.253C14.671,34.169,14.797,34.124,14.861,34.034z"/><path fill="#8b024f" d="M14.483,34.454h-0.253v0.589h0.253c0.205,0,0.347-0.052,0.426-0.156 c0.028-0.036,0.042-0.077,0.042-0.123c0-0.11-0.043-0.191-0.128-0.241C14.746,34.477,14.633,34.454,14.483,34.454z"/></svg>