<svg xmlns="http://www.w3.org/2000/svg"  viewBox="0 0 48 48" width="1600px" height="1600px"><path fill="#212121" d="M42.134,8.811l-0.145-0.038c-0.158-0.04-0.32-0.06-0.483-0.06h-5.68	C35.977,8.5,36.125,8.27,36.267,8.02L38.6,4.059c0.501-0.85,0.32-1.941-0.426-2.581C37.801,1.16,37.342,1,36.882,1	s-0.921,0.16-1.294,0.481c-1.371,1.174-3.965,2.939-5.247,3.062h-2.935c-0.617-0.278-1.279-0.423-1.943-0.423h-2.295	c-0.074,0-0.147,0.004-0.221,0.012c-0.526,0.059-1.037,0.197-1.525,0.41h-3.43c-1.283-0.123-3.877-1.889-5.248-3.063	C12.371,1.16,11.911,1,11.451,1s-0.92,0.16-1.293,0.48C9.414,2.12,9.233,3.21,9.734,4.059l2.347,3.985	c0.137,0.24,0.279,0.462,0.425,0.669H5.892c-1.344,0-3.961,0.978-5.246,4.642c-0.365,1.042-0.506,2.161-0.417,3.325L1.865,38.2	c0.225,2.963,2.069,5.484,4.697,6.422C7.263,44.873,7.984,45,8.703,45H39.63c0.164,0,0.326-0.02,0.485-0.06	c0.493-0.125,4.85-1.327,6.098-5.116c0.6-1.821,1.225-9.444,1.858-22.658C48.257,13.295,45.76,9.782,42.134,8.811z"/><path fill="#318869" d="M2.222,16.617l1.636,21.451c0.158,2.069,1.427,3.963,3.368,4.654 c0.455,0.162,0.949,0.262,1.476,0.262H39.63c0,0,3.749-0.945,4.686-3.781c0.739-2.236,1.478-16.229,1.758-22.044 c0.139-2.883-1.685-5.541-4.452-6.279c-0.039-0.01-0.078-0.02-0.117-0.03H5.891c0,0-2.206,0-3.361,3.284 C2.251,14.926,2.158,15.777,2.222,16.617z"/><path fill="#212121" d="M13.42,17.17h-0.013h-1.114l-1.419,3.09l-1.366-3.09H8.394v9.095c-0.08,0,1.114,0.027,1.114,0.027 V24.82H8.791l0.716-0.214v-5.081l1.366,2.888l1.419-2.922v6.774c-0.08,0,1.114,0.027,1.114,0.027v-9.094L13.42,17.17z"/><polygon fill="#212121" points="19.176,20.219 19.839,19.979 19.109,19.751 19.109,17.183 20.316,17.183 22.292,23.75 22.292,17.183 23.499,17.183 23.499,26.265 22.451,26.265 20.303,20.233 20.303,24.004 19.706,24.606 20.316,24.901 20.316,26.184 19.202,26.184"/><path fill="#212121" d="M28.114,18.146v-1.103h3.979v1.063C32.093,18.106,28.114,18.166,28.114,18.146z"/><path fill="#212121" d="M29.467,17.705v8.627h1.194v-2.127h-0.736l0.776-0.441v-6.059 C30.701,17.705,29.467,17.725,29.467,17.705z"/><path fill="#212121" d="M35.933,26.312v-1.123h-2.268v-3.711h1.93v-0.843h-1.989v-2.568h2.387v-1.063H32.59v9.289 C32.59,26.291,35.962,26.281,35.933,26.312z"/><path fill="#212121" d="M36.45,26.292v-9.269h1.253v9.299C37.699,26.316,36.459,26.289,36.45,26.292z"/><path fill="#212121" d="M37.395,17.655h1.104c0,0,0.746,0.211,0.746,1.324c0,1.113,0,1.384,0,1.384 s-0.219,1.244-1.074,1.244h-0.726v0.782h1.8c0,0,1.064-0.251,1.064-1.876s0-2.277,0-2.277s-0.298-1.254-1.681-1.254 s-2.188,0-2.188,0L37.395,17.655z"/><polygon fill="#212121" points="38.091,22.129 38.767,24.185 39.583,24.376 38.877,24.456 39.414,26.291 40.816,26.291 39.294,21.908"/><path fill="#212121" d="M26.815,18.414v1.164h0.995v-2.555h-1.021v0.415c0,0-1.141-0.455-1.79-0.04 c-0.65,0.415-0.928,1.565-0.902,1.953v0.322c0,1.228,0.858,2.339,2.064,2.508c0.015,0.002,0.03,0.004,0.045,0.006 c0,0,0.769,0.107,0.782,0.909v1.645c0,0,0.119,0.802-0.849,0.829c-0.968,0.027-1.034-0.575-1.034-0.575v-1.177h-1.021v2.555h0.995 v-0.575c0,0,0.159,0.441,1.194,0.495c1.034,0.053,1.764-0.361,1.963-1.471s0-2.421,0-2.421s-0.332-0.95-2.228-1.271 c0,0-0.809-0.053-0.769-1.378c0.04-1.324,0.279-1.765,1.167-1.485L26.815,18.414z"/><path fill="#212121" d="M16.324,17.09c-1.274,0-2.308,2.072-2.308,4.628s1.033,4.628,2.308,4.628s2.308-2.072,2.308-4.628 S17.599,17.09,16.324,17.09z M16.324,25.65c-0.571,0-1.034-1.778-1.034-3.972s0.463-3.972,1.034-3.972 c0.571,0,1.034,1.778,1.034,3.972C17.359,23.871,16.896,25.65,16.324,25.65z"/><path fill="#ee3177" d="M13.075,31.367v-2.668l-0.656-1.585c0,0-4.068,0.311-4.098,0.281v0.923h1.154v9.269h1.213V31.97 h0.497l1.492,5.517l1.074-0.281l-1.472-5.457L13.075,31.367z M10.668,31.006l-0.02-2.789l1.174-0.04l0.199,2.608L10.668,31.006z"/><path fill="#ee3177" d="M16.437,27.796c0,0-0.497,0-1.532,0c-1.034,0-1.074,1.906-1.074,1.906 c-0.02,0.02-0.219,4.273,0.06,5.477c0.279,1.204,0.875,1.404,0.875,1.404h1.85c0.776-1.324,0.656-6.56,0.656-7.523 C17.273,28.097,16.437,27.796,16.437,27.796z M15.9,35.6h-0.875l-0.119-6.961l1.313-0.02L15.9,35.6z"/><path fill="#ee3177" d="M19.063,27.535l-1.651,9.71h1.015l0.477-3.29h1.333l0.517,3.13h1.134l-1.631-9.55H19.063z M19.063,32.872l0.497-3.651l0.557,3.571L19.063,32.872z"/><path fill="#ee3177" d="M23.818,27.716H21.63v0.883h0.696l0.159,7.804c0.02-0.02,0.995,0.04,0.995,0.04 c0.637,0.06,2.089-0.682,2.168-1.545c0.08-0.863-0.08-4.755-0.358-5.958C25.011,27.736,23.818,27.716,23.818,27.716z M23.539,35.319l-0.179-6.6c0.995-0.221,1.114,1.284,1.114,1.284l0.159,4.995L23.539,35.319z"/><path fill="#ee3177" d="M25.648,28.378h1.572v8.165h1.273v-8.165h1.293v-1.063c0,0-4.197,0.055-4.138,0.055V28.378z"/><path fill="#ee3177" d="M33.704,31.668c0,0,0-1.244-0.159-2.548s-1.194-1.364-1.194-1.364h-2.208l-0.139,9.249 c0.02,0,1.094-0.06,1.094-0.06v-4.494h0.696l1.074,4.474h0.995l-1.054-4.695C33.287,32.19,33.704,31.668,33.704,31.668z M31.098,31.447l-0.02-2.869l1.273,0.1l0.458,2.548L31.098,31.447z"/><polygon fill="#ee3177" points="34.58,36.563 35.495,36.583 35.495,27.495 34.58,27.495"/><path fill="#ee3177" d="M39.852,27.616c-0.155-0.174-0.59-0.389-0.816-0.441c-0.795-0.186-3.263,0.12-3.263,0.12v0.903 h0.557l0.159,8.807l1.174-0.1l-0.159-4.895h1.452c0.995-0.221,1.353-0.642,1.353-0.642C40.488,29.2,40.477,28.319,39.852,27.616z M37.444,31.086l0.04-2.869l1.114-0.06l0.517,2.648L37.444,31.086z"/><g><path fill="#fff" d="M4.91,27.119L4.642,16.674l0.027-0.116c0.275-1.211,1.292-3.291,3.355-3.407 c1.941-0.111,3.794-0.005,3.872,0l-0.107,1.887c-0.018,0-1.83-0.102-3.66,0c-1.001,0.056-1.489,1.457-1.605,1.847L6.786,27.07 L4.91,27.119z"/></g><g><polygon fill="#fff" points="40.787,40.611 34.228,40.611 34.228,38.721 39.765,38.721 41.373,36.203 42.471,19.755 44.341,19.882 43.211,36.816"/></g><g><polygon fill="#fff" points="15.555,40.825 8.477,40.825 5.954,38.693 5.072,28.19 6.94,28.031 7.756,37.75 9.159,38.935 15.555,38.935"/></g><g><path fill="#fff" d="M16.47,40.014c0,0,1.83-1.605,3.342-1.685c0,0,0.398,1.806,4.337,1.605l-1.313,1.364l-0.044-0.056 c-0.43-0.554-1.131-0.829-1.816-0.694c-0.587,0.115-1.184,0.287-1.204,0.51l0,0c-0.374-0.873-1.289-1.377-2.219-1.223 L16.47,40.014z"/></g><g><path fill="#fff" d="M32.723,40.014c0,0-1.83-1.605-3.342-1.685c0,0-0.398,1.806-4.337,1.605l1.313,1.364l0.044-0.056 c0.43-0.554,1.131-0.829,1.816-0.694c0.587,0.115,1.184,0.287,1.204,0.51l0,0c0.374-0.873,1.289-1.377,2.219-1.223L32.723,40.014z"/></g><g><path fill="#7b5c4d" d="M11.452,3.16c0,0,3.939,3.37,6.465,3.531h4.854l-2.825,2.708h-2.725c0,0-2.009,0.201-3.422-2.267 L11.452,3.16z"/><path fill="#7b5c4d" d="M36.882,3.16c0,0-3.939,3.37-6.465,3.531h-4.854l2.825,2.708h2.725c0,0,2.009,0.201,3.422-2.267 L36.882,3.16z"/><path fill="#eed19d" d="M21.378,14.375l0.159-1.444l-1.252-0.833c-0.46-0.307-0.738-0.826-0.738-1.382v-0.513 c0,0,0.756-3.611,3.621-3.932h2.295c0.897,0,1.761,0.415,2.269,1.16c0.426,0.624,0.863,1.526,1.086,2.772l0,0 c0.144,0.731-0.213,1.469-0.874,1.803l-0.638,0.323c0,0,0.444,0.805,0.358,1.846c-0.004,0.053-0.178,0.14-0.408,0.233 c-0.658,0.264-1.36,0.397-2.068,0.422l-0.915,0.033c-0.64,0.023-1.279-0.05-1.898-0.218L21.378,14.375z"/><path fill="#7b5c4d" d="M22.383,11.935l0.092,0.007c0.377,0.029,0.747-0.11,1.014-0.379l0,0 c0.24-0.242,0.377-0.57,0.38-0.913l0.015-1.652c0,0-0.338-1.304-1.492-0.983c0,0-1.691,1.063-1.83,1.966l-0.02,0.843l1.174,0.864 C21.912,11.831,22.143,11.917,22.383,11.935z"/><path fill="#7b5c4d" d="M26.322,11.815l-0.092,0.007c-0.377,0.029-0.747-0.11-1.014-0.379l0,0 c-0.24-0.242-0.377-0.57-0.38-0.913L24.82,8.878c0,0,0.338-1.304,1.492-0.983c0,0,1.691,1.063,1.83,1.966l0.02,0.843l-1.174,0.864 C26.793,11.711,26.562,11.796,26.322,11.815z"/></g><g><rect width="6.708" height="1.89" x="13.283" y="12.988" fill="#fff"/><polygon fill="#fff" points="41.292,12.988 28.906,12.988 28.906,14.878 40.639,14.878 42.575,16.423 42.575,18.32 44.449,18.32 44.449,15.51"/></g></svg>