<svg xmlns="http://www.w3.org/2000/svg"  viewBox="0 0 48 48" width="1600px" height="1600px"><path fill="#212121" d="M44.907,24.524l-1.644-0.483l-1.31-3.394l-1.597-4.138v-3.025v-0.795l-0.562-0.562l-0.525-0.525 l-0.562-0.562h-0.795h-4.565c-1.21-0.757-3.145-1.669-3.58-1.872l-0.072-0.033l-0.074-0.027C27.627,8.373,25.34,8,22.821,8 c-3.38,0-6.134,0.674-6.726,0.83l-0.339-0.218l-1.012,0.582l-3.208,1.845h-4.94H5.214l-0.437,1.312l-0.35,1.05l-0.098,0.295v0.311 v5.617l-0.343,1.372L3.725,22.04l-1.339-0.191l-0.501,1.53l-1.351,4.127l-0.44,1.344l1.154,0.818l3.08,2.182v1.468v0.956 l0.763,0.576c2.038,1.537,2.567,2.537,2.652,2.722l1.031,1.389l1.943,0.019c1.067,0.001,2.811,0.009,4.843,0.021l-0.137,1.048 l1.384,0.319l-0.116,1.449l1.542,0.176v1.244l1.812,0.101l2.251,0.125l1.037,0.058l0.615-0.837l0.165-0.224l3.612-1.612 l0.663-0.296h0.231h1.918v-1.444l0.78,0.006l4.043,0.025h1.918v-1.715c0.272-0.503,1.362-1.663,2.398-2.541l0.678-0.575l0.001-0.89 v-1.801c0.268-0.168,0.52-0.339,0.759-0.513l4.379-3.188l2.468-2.392L44.907,24.524z"/><path fill="#898989" d="M9.598,36.894c0,0-0.3-1.451-3.352-3.752v-19.31l0.35-1.051h5.453l3.652-2.101l0.7,0.45l0.1-0.6 c0,0,6.753-1.901,12.456,0.2c0,0,2.901,1.351,3.802,2.051h5.153l0.525,0.525v19.935c0,0-3.077,2.601-3.077,3.802h-2.15l-0.85-1.051 l-1.026,1.026C31.334,37.019,9.548,36.844,9.598,36.894z"/><path fill="#b5b4b7" d="M22.821,11.733c2.022,0,3.828,0.282,5.37,0.838c1.286,0.602,2.905,1.442,3.341,1.781l0.542,0.421 h0.686h3.678v17.553c-1.045,0.949-1.826,1.826-2.34,2.627l-0.184-0.227L32.516,33l-1.571,1.571l-0.433,0.433 c-3.349-0.026-15.764-0.122-19.699-0.127c-0.487-0.729-1.279-1.647-2.567-2.712V14.773h3.803h0.534l0.463-0.266l2.597-1.494 l2.231,1.434l0.378-2.269C19.311,11.975,20.965,11.733,22.821,11.733 M22.821,9.733c-3.518,0-6.319,0.789-6.319,0.789l-0.1,0.6 l-0.7-0.45l-3.652,2.101H6.597l-0.35,1.051v19.31c3.027,2.283,3.347,3.729,3.352,3.752c0.004-0.006,0.337-0.009,0.92-0.009 c4.138,0,20.816,0.134,20.816,0.134l1.026-1.026l0.85,1.05h2.151c0-1.201,3.077-3.802,3.077-3.802V13.298l-0.525-0.525H32.76 c-0.9-0.7-3.802-2.051-3.802-2.051C26.928,9.974,24.765,9.733,22.821,9.733L22.821,9.733z M9.598,36.885L9.598,36.885L9.598,36.885 L9.598,36.885z"/><path fill="#b8b8bb" d="M41.814,25.439l-1.651-4.202l-12.956,9.655h-0.95l-2.551,1.951l-4.452,1.351l-1.301-0.2 l-1.051,2.801l0.8,0.45l-0.15,1.151l1.301,0.3l-0.1,1.251l1.401,0.16v1.141l2.251,0.125l0.625-0.85l-0.675-0.05l0.051-1.346 L32.8,32.768c0.969-0.582,2.008-1.04,3.091-1.363l0,0c1.47-0.439,2.854-1.124,4.094-2.027l4.379-3.188L41.814,25.439z"/><polygon fill="#b8b8bb" points="27.607,31.961 26.819,32.111 25.956,33.349 24.137,33.255 23.531,32.884 19.253,34.193 17.952,33.993 17.44,35.319 6.859,31.117 2.357,27.927 3.708,23.8 5.133,24.138 5.846,21.287 20.516,31.679 22.505,30.591 23.593,31.454 26.819,31.792"/><polygon fill="#616161" points="40.163,21.162 38.112,26.064 39.713,25.814 39.663,27.115 41.289,26.639 41.614,27.14 44.365,26.189 41.814,25.439"/><polygon fill="#b8b8bb" points="2.357,27.927 5.133,28.115 6.109,26.652 7.535,26.389 5.859,21.269 5.106,23.997 3.708,23.8"/><path fill="#212121" d="M8.748,21.312v-5.603l0.65-0.125l-0.675-0.275v-0.225h0.825l1.376,2.801l1.151-2.976h0.95v6.403 h-0.85v-4.527l-0.907,2.195h-0.694l-0.9-1.67v4.014C9.673,21.324,8.748,21.262,8.748,21.312z"/><polygon fill="#212121" points="18.734,17.085 18.734,21.249 17.721,21.249 17.721,14.046 18.79,14.046 20.572,18.623 20.572,16.39 21.266,16.39 20.516,16.053 20.516,13.839 21.585,13.839 21.585,21.137 20.61,21.137"/><polygon fill="#212121" points="25.487,14.064 25.487,14.74 26.913,14.908 26.913,21.212 27.813,21.212 27.813,19.279 27.026,18.792 27.795,18.904 27.795,14.89 29.539,14.965 29.539,14.271"/><polygon fill="#212121" points="30.083,14.44 32.578,14.777 32.578,15.34 30.909,15.34 30.909,17.441 32.316,17.441 32.316,18.135 30.871,18.135 30.871,20.705 32.485,20.705 32.485,21.212 30.008,21.212"/><path fill="#212121" d="M36.396,17.901c0.101-0.439,0.066-0.713,0-1.801c-0.067-1.114-1.219-1.257-1.219-1.257h-1.36v0.003 H33.16v3.652l0.375,0.125l-0.35,0.2v2.364c-0.031,0.031,0.775,0,0.775,0V19.12h0.737l0.592,2.064h1.069l-0.754-2.359 C36.123,18.464,36.328,18.197,36.396,17.901z M33.96,15.334c1.373-0.031,1.577,0.686,1.629,1.187c0.027,0.259,0,0.281,0,1.041 s-0.319,1.022-0.713,1.182c-0.212,0.086-0.916,0-0.916,0V15.334z"/><path fill="#212121" d="M22.495,19.242l0.891-0.178l0.047,1.304c0,0,0.075,0.6,0.703,0.525s0.516-0.966,0.422-1.294 c-0.094-0.328-1.923-2.561-1.923-2.561s-1.051-1.163-0.272-2.561s2.217-0.694,2.592-0.331c0.284,0.275,0.184,1.382,0.194,1.551 h-0.882c0,0,0.038-0.888,0-1.182c-0.039-0.306-0.75-0.844-1.229,0.094c-0.085,0.167,0,0.752,0,0.752 c0,0.371,0.117,0.733,0.334,1.033l1.918,2.661c0,0,0.91,2.242-1.135,2.214c0,0-0.545,0-0.61,0 c-0.857,0.002-1.032-0.719-1.044-1.575L22.495,19.242z"/><path fill="#212121" d="M16.722,19.007l0.332-0.297c0,0-0.099-1.97-0.113-2.557c-0.014-0.586-0.438-1.455-0.438-1.455 s-0.41-0.593-1.561-0.41s-1.321,2.133-1.321,2.133l0.953,0.339l-0.939-0.021l0.629,0.282l-0.643,0.12l0.064,1.85 c0,0,0.007,2.338,1.787,2.218c1.78-0.12,1.525-2.076,1.525-2.076L16.722,19.007z M15.439,20.874c-0.456,0-0.825-1.386-0.825-3.095 s0.37-3.095,0.825-3.095c0.456,0,0.825,1.386,0.825,3.095S15.894,20.874,15.439,20.874z"/><polygon fill="#f50057" points="30.048,27.565 30.048,24.263 29.297,25.989 28.572,25.989 27.697,24.538 27.697,29.391 26.596,30.041 26.596,21.862 27.622,21.862 28.922,24.663 29.998,21.887 31.123,21.887 31.123,26.939"/><path fill="#f50057" d="M15.953,21.762H14.94v5.128l1.051,0.85v-2.013c0.012,0.001,0.025,0.002,0.037,0.002 c1.178,0.063,2.214-0.712,2.214-1.891l-0.075-0.875C17.917,21.624,15.953,21.762,15.953,21.762z M17.041,24.863 c-0.298,0.381-0.985,0.444-1.051,0.449v-2.991c0.773-0.15,1.138,0.704,1.138,0.704S17.354,24.463,17.041,24.863z"/><path fill="#f50057" d="M21.981,23.969c0.037-0.919-0.075-1.126-0.075-1.126s-0.3-1.276-2.139-1.107 c0,0-1.101,0.075-1.076,0.075v7.454l1.076,0.9V25.77h0.525l1.126,4.483l0.863-0.413l-1.107-4.54 C21.175,25.301,21.944,24.888,21.981,23.969z M20.993,24.151c-0.025,1.263-1.238,1.013-1.238,1.013v-2.876 c1.101,0,1.238,0.65,1.238,0.65V24.151z"/><path fill="#f50057" d="M25.919,23.521c-0.015-0.894-0.717-1.675-1.611-1.672c-0.012,0-0.025,0-0.038,0 c-1.263,0.025-1.527,0.979-1.588,1.526c-0.139,1.243-0.05,5.002-0.05,5.002s0.15,1.663,1.713,1.651 c1.563-0.013,1.588-2.001,1.588-2.001V24.35L25.919,23.521z M24.364,29.453c-0.39,0-0.707-1.582-0.707-3.533 s0.316-3.533,0.707-3.533s0.707,1.582,0.707,3.533S24.754,29.453,24.364,29.453z"/><path fill="#b8b8bb" d="M10.067,22.278c0,0,2.139,0.75,1.482,2.064c0,0,1.501-0.263,1.913,1.013c0,0,0.9-1.013-0.056-1.651 c0,0-0.075-0.525,0.469-1.088C13.875,22.616,11.962,22.053,10.067,22.278z"/><path fill="#b8b8bb" d="M31.809,25.43c0,0,0.113-1.444,2.139-0.994c0,0-1.032-1.557,1.163-2.157l-3.752,0.338 c0,0,0.675,0.75,0.638,1.163c-0.038,0.413-0.638,0.45-0.638,0.45L31.809,25.43z"/><polygon fill="#898989" points="5.133,28.115 3.708,23.8 5.106,23.997 6.109,26.652"/><polygon fill="#898989" points="39.713,25.814 41.814,25.439 41.289,26.639 39.663,27.115"/><polygon fill="#898989" points="17.952,33.993 22.151,39.245 22.972,40.717 22.405,41.372 20.153,41.247 20.153,40.106 18.753,39.946 18.853,38.695 17.552,38.395 17.702,37.245 16.662,37.061"/><polygon fill="#9c9fa0" points="22.079,40.234 22.079,39.121 22.542,38.97 22.542,36.044 23.718,37.332 23.718,35.269 25.268,36.544 25.268,34.418 26.594,35.831 26.594,33.93 28.62,35.944 28.62,38.458 26.944,38.458 26.944,38.92 22.63,40.846"/><polygon fill="#b8b8bb" points="26.594,33.93 27.726,36.019 27.726,38.453 28.62,38.453 28.62,35.944"/><polygon fill="#b8b8bb" points="25.261,34.434 26.396,36.642 26.368,39.16 27.29,38.778 27.29,36.567"/><polygon fill="#b8b8bb" points="23.732,35.262 24.868,37.469 24.783,39.91 25.717,39.465 25.762,36.96"/><polygon fill="#b8b8bb" points="22.565,36.047 23.415,38.446 23.33,40.526 24.252,40.144 24.309,37.936"/><path fill="#212121" d="M41.194,28.936l4.946-3.492l-4.539,1.265l-0.179-0.367l-1.495,0.437l0.048-1.258l-1.448,0.227	l2.41-5.458L27.141,30.629l-1.021-0.151l-1.187,0.867l0.007,0.01l-1.248-0.141l-1.162-0.922l-1.995,1.093L5.188,20.299l2.016,5.897	l-1.245,0.229L5.01,27.849l-4.046-0.493l5.802,3.993L16.98,35.42l-0.802,1.863l1.014,0.298l-0.363,1.876l1.572-0.225	c-0.009,0.04-0.01,0.058-0.01,0.069l0.094,0.006l0.025,0.99l1.06,0.086l0.115,1.348h2.974l1.396-1.056l-1.556-0.271l-0.272-0.418	l-0.04-0.72l0.604-0.075l0.005-2.597l1.265,1.438l0.075,2.889l0.5-0.014l-0.08-3.068l-0.571-0.649l-0.002-1.405l1.627,1.316	l0.055,3.448l0.5-0.008l-0.059-3.683l-0.513-0.415l-0.056-1.358l1.509,1.585l0.204,3.099l0.499-0.033l-0.216-3.278L27,35.899v-1.286	l1.121,1.008l0.489,0.614l0.041,2.66l0.5-0.008l-0.044-2.83l-0.432-0.543l4.385-2.798l5.604-1.995L41.194,28.936z M37.699,26.383	l1.753-0.275L39.4,27.451l1.757-0.513l0.176,0.363l2.169-0.604l-3.752,2.655c-1.385,0.437-3.187,0.849-3.998,0.445	c-0.197-0.099-0.318-0.241-0.368-0.435c-0.038-0.145-0.085-0.279-0.143-0.407c-0.535-1.187-1.799-1.654-2.582-1.837l7.047-5.283	L37.699,26.383z M14.084,33.729l-0.694-2.174l-0.477,0.152l0.57,1.782l-6.481-2.58l-4.08-2.813l2.334,0.284l1.002-1.504l1.607-0.295	L6.17,21.625l4.378,3.162c-0.178,0.76-0.69,2.771-0.696,2.792l-0.038,0.146l2.064,1.885l0.337-0.369l-1.842-1.682	c0.122-0.473,0.495-1.925,0.615-2.452l9.381,6.776l0.128,0.092l1.981-1.085l1.015,0.805l3.301,0.374l-0.304,0.123l-0.665,0.911	l-1.771,0.059l-0.432-0.568l-4.251,1.373l-1.562-0.248l-0.62,1.248L14.084,33.729z M38.464,30.263l-5.622,2.008l-4.509,2.87	L26.5,33.49v1.883l-1.516-1.594l0.092,2.247l-1.594-1.289l0.003,1.884l-1.186-1.349l-0.006,3.478l-0.631,0.077l0.06,1.073	l-0.296,0.909l0.476,0.154l0.122-0.375l0.176,0.271l0.638,0.111l-0.345,0.261h-2.347l-0.035-0.415	c0.031-0.172,0.407-1.666,0.642-2.585l-0.484-0.123c-0.212,0.831-0.355,1.399-0.453,1.793l-0.815-0.066l-0.02-0.794	c0.146-0.442,0.442-1.289,0.719-2.061l-0.471-0.168c-0.345,0.964-0.543,1.535-0.662,1.892l-1.111,0.159l0.267-1.38l0.863-1.809	l-0.451-0.215l-0.786,1.646l-0.487-0.143l0.671-1.559l0.563-1.135l1.317,0.209l4.027-1.301l0.375,0.492l2.272-0.074l0.725-0.993	l1.989-0.811l-3.143-0.355l0.593-0.433l1.024,0.151l4.869-3.649c0.589,0.103,2.111,0.476,2.643,1.655	c0.046,0.103,0.085,0.212,0.115,0.328c0.088,0.337,0.299,0.591,0.628,0.756c0.305,0.152,0.701,0.214,1.145,0.214	c0.578,0,1.234-0.105,1.869-0.251L38.464,30.263z"/></svg>