<svg xmlns="http://www.w3.org/2000/svg"  viewBox="0 0 48 48" width="1600px" height="1600px"><polygon fill="#212121" points="40.957,35.826 29.834,34.213 29.44,34.156 29.053,34.254 24.453,35.425 19.852,34.254 19.465,34.156 19.071,34.213 7.948,35.826 5.192,36.226 6.452,38.71 9.424,44.569 10.316,46.328 12.087,45.46 24.453,39.4 36.818,45.46 38.589,46.328 39.481,44.569 42.453,38.71 43.713,36.226"/><polygon fill="#6d4c41" points="8.236,37.636 11.207,43.494 24.028,37.211 19.358,36.022"/><polygon fill="#6d4c41" points="40.669,37.636 37.698,43.494 24.877,37.211 29.547,36.022"/><path fill="#212121" d="M40.542,15.365l-1.035-2.882l-2.223,2.106l-1.32,1.25c-2.482-4.156-7.4-11.102-8.581-12.761 l-1.002-1.407l-1.538,0.787C9.536,10.288,4.708,23.56,4.51,24.121l-0.223,0.632l0.203,0.639c1.214,3.819,2.873,7.013,4.932,9.492 c3.493,4.207,8.226,6.431,13.689,6.431c0.229,0,0.453-0.011,0.672-0.011c7.774,0,14.151-6.937,14.151-6.937 c0.013-0.013,0.026-0.026,0.039-0.039c0,0,3.611-4.415,3.658-4.491l0.259-0.415l0.038-0.488c0.1-1.277,0.137-2.542,0.112-3.868 C41.931,19.296,40.599,15.523,40.542,15.365z"/><path fill="#ffc007" d="M35.434,29.598l-3.84-15.358l-9.575,4.151c0,0,0.424-9.255-5.094-3.736s-1.105,12.82-1.105,12.82 l-4.945,6.358c4.095,4.933,9.132,5.817,12.756,5.699c5.557-0.182,10.007-3.513,12.83-6.381c-0.134-0.458-0.16-0.574,0.006-0.006 c2.174-2.209,3.382-4.142,3.382-4.142c0.102-1.302,0.128-2.527,0.106-3.674L35.434,29.598z"/><path fill="#ff9f00" d="M39.955,25.33c-0.104-5.508-1.38-9.062-1.38-9.062l-3.226,3.057 C34.5,16.862,25.67,4.466,25.67,4.466C10.896,12.022,6.311,25.013,6.311,25.013c1.223,3.849,2.808,6.704,4.564,8.82l4.945-6.358 c0,0-4.415-7.302,1.104-12.821s5.094,3.736,5.094,3.736s10.613,1.698,13.5,11.547c0.441,1.504-0.085-0.34-0.085-0.34L39.955,25.33z"/><path fill="#d50000" d="M32.487,20.663c-0.924-1.138-2.102-2.191-3.028-2.945c-1.01-0.822-2.22-1.378-3.514-1.524 c-2.674-0.303-4.011,0.366-4.011,0.366c-7,2-8,8-8,8c2,4,6,6,6,6v4h3v-3h1v3h2l0.033-3.943l1.38,0.106l0.587,3.837l2-1l-1-4 c1.828-0.609,3.243-2.945,4.069-4.676C33.664,23.498,33.454,21.855,32.487,20.663z M17.603,26.202c0,0-0.141-3.651,3.425-3.651 c0,0,2.179,1.245,2.236,6.113C23.264,28.664,19.698,29.315,17.603,26.202z M29.519,26.003c-0.493,0.9-1.132,1.528-4.189,1.896 v-4.84c0,0,0.113-3.226,2.745-1.076S30.169,24.815,29.519,26.003z"/></svg>