<svg xmlns="http://www.w3.org/2000/svg"  viewBox="0 0 48 48" width="1600px" height="1600px"><polygon fill="#ff1744" points="18.5,16 12,16 9.25,25 6.5,16 0,16 0,19.5 1.5,19.5 1.5,28.5 0,28.5 0,32 6,32 6,25.75 6.25,25.75 8.25,32 10.25,32 12.25,25.75 12.5,25.75 12.5,32 18.5,32 18.5,28.5 17,28.5 17,19.5 18.5,19.5"/><polygon fill="#ff1744" points="20.5,16 20.5,19.5 22,19.5 22,28.5 20.5,28.5 20.5,32 27,32 27,23 24,23 26,16"/><path fill="#ff1744" d="M27,16v4h3l-2,7h0.5c3.038,0,5.5-2.462,5.5-5.5l0,0c0-3.038-2.462-5.5-5.5-5.5H27z"/><polygon fill="#ff1744" points="34.5,16 34.5,19.5 36,19.5 36,28.5 34.5,28.5 34.5,32 48,32 48,26 45,26 45,28.5 41,28.5 41,19.5 42.5,19.5 42.5,16"/></svg>