<svg xmlns="http://www.w3.org/2000/svg"  viewBox="0 0 48 48" width="1600px" height="1600px" baseProfile="basic"><polygon fill="#090504" points="38,36 33,36 30,21 24.555,26 24.555,22 32.555,14"/><polygon fill="#090504" points="10,36 15,36 18,21 23.555,26 23.555,22 15.555,14"/><polygon fill="#00796b" points="31,13 26,16 22,16 17,13"/><polygon fill="#090504" points="33,10 31,13 17,13 15.16,10"/><polygon fill="#00796b" points="38,36 31,38 33,36"/><polygon fill="#26a69a" points="31,38 33,36 30,21 29,24"/><polygon fill="#00796b" points="30,21 25.584,25.027 25.584,27 29,24"/><polygon fill="#00796b" points="10,36 17,38 15.235,36"/><polygon fill="#26a69a" points="17,38 15,36 18,21 19,24"/><polygon fill="#00796b" points="18,21 23,25.027 23,27 19,24"/><polygon fill="#090504" points="27,36 24.016,40.358 21,36 21.475,11 26.525,11"/><path fill="#9575cd" d="M43.3,29.17c-0.46,1.71-1.13,3.33-1.99,4.82l-1.29-0.74c0.81-1.38,1.43-2.88,1.86-4.46L43.3,29.17z"/><path fill="#64b5f6" d="M14.75,40.02l-0.74,1.29c-1.52-0.88-2.92-1.94-4.15-3.17l1.06-1.06 C12.06,38.22,13.34,39.21,14.75,40.02z"/><path fill="#68c1b8" d="M6.12,28.79L4.7,29.17C4.26,27.52,4,25.79,4,24h1.5C5.5,25.66,5.72,27.26,6.12,28.79z"/><polygon fill="#aed581" points="6.63,28.65 6.63,28.66 6.13,28.79"/><path fill="#64b5f6" d="M10.92,37.08l-1.06,1.06c-1.23-1.23-2.29-2.63-3.17-4.15l1.29-0.74 C8.79,34.66,9.78,35.94,10.92,37.08z"/><polygon fill="#dce775" points="6.63,28.65 6.63,28.66 6.13,28.79"/><path fill="#68c1b8" d="M7.98,33.25l-1.29,0.74c-0.86-1.49-1.53-3.11-1.99-4.82l1.42-0.38h0.01 C6.55,30.37,7.17,31.87,7.98,33.25z"/><path fill="#4ba9f5" d="M19.21,41.88l-0.38,1.42c-1.71-0.46-3.33-1.13-4.82-1.99l0.74-1.29 C16.13,40.83,17.63,41.45,19.21,41.88z"/><path fill="#9575cd" d="M38.14,38.14c-1.23,1.23-2.63,2.29-4.15,3.17l-0.74-1.29c1.41-0.81,2.69-1.8,3.83-2.94L38.14,38.14z"/><path fill="#7986cb" d="M33.99,41.31c-1.49,0.86-3.11,1.53-4.82,1.99l-0.38-1.42v-0.01c1.58-0.42,3.08-1.04,4.46-1.85 L33.99,41.31z"/><path fill="#9575cd" d="M41.31,33.99c-0.88,1.52-1.94,2.92-3.17,4.15l-1.06-1.06c1.14-1.14,2.13-2.42,2.94-3.83L41.31,33.99 z"/><path fill="#4ba9f5" d="M24,42.5V44c-1.79,0-3.52-0.26-5.17-0.7l0.38-1.42C20.74,42.28,22.34,42.5,24,42.5z"/><path fill="#7986cb" d="M29.17,43.3C27.52,43.74,25.79,44,24,44v-1.5c1.66,0,3.26-0.22,4.79-0.62L29.17,43.3z"/><path fill="#68c1b8" d="M19.21,6.12v0.01c-1.58,0.42-3.08,1.04-4.46,1.85l-0.74-1.29c1.49-0.86,3.11-1.53,4.82-1.99 L19.21,6.12z"/><polygon fill="#64b5f6" points="19.35,6.63 19.34,6.63 19.21,6.13"/><path fill="#7986cb" d="M43.3,18.83l-1.42,0.38h-0.01c-0.42-1.58-1.04-3.08-1.85-4.46l1.29-0.74 C42.17,15.5,42.84,17.12,43.3,18.83z"/><path fill="#7986cb" d="M41.31,14.01l-1.29,0.74c-0.81-1.41-1.8-2.69-2.94-3.83l1.06-1.06 C39.37,11.09,40.43,12.49,41.31,14.01z"/><path fill="#8c9eff" d="M38.14,9.86l-1.06,1.06c-1.14-1.14-2.42-2.13-3.83-2.94l0.74-1.29C35.51,7.57,36.91,8.63,38.14,9.86 z"/><path fill="#82b1ff" d="M33.99,6.69l-0.74,1.29c-1.38-0.81-2.88-1.43-4.46-1.85V6.12l0.38-1.42 C30.88,5.16,32.5,5.83,33.99,6.69z"/><path fill="#9575cd" d="M44,24h-1.5c0-1.66-0.22-3.26-0.62-4.79l1.42-0.38C43.74,20.48,44,22.21,44,24z"/><path fill="#68c1b8" d="M6.12,19.21C5.72,20.74,5.5,22.34,5.5,24H4c0-1.79,0.26-3.52,0.7-5.17L6.12,19.21z"/><path fill="#9575cd" d="M44,24c0,1.79-0.26,3.52-0.7,5.17l-1.42-0.38c0.4-1.53,0.62-3.13,0.62-4.79H44z"/><path fill="#64b5f6" d="M29.17,4.7l-0.38,1.42C27.26,5.72,25.66,5.5,24,5.5V4C25.79,4,27.52,4.26,29.17,4.7z"/><path fill="#68c1b8" d="M10.92,10.92c-1.14,1.14-2.13,2.42-2.94,3.83l-1.29-0.74c0.88-1.52,1.94-2.92,3.17-4.15L10.92,10.92 z"/><path fill="#68c1b8" d="M7.98,14.75c-0.81,1.38-1.43,2.88-1.86,4.46L4.7,18.83c0.46-1.71,1.13-3.33,1.99-4.82L7.98,14.75z"/><path fill="#4db6ac" d="M14.75,7.98c-1.41,0.81-2.69,1.8-3.83,2.94L9.86,9.86c1.23-1.23,2.63-2.29,4.15-3.17L14.75,7.98z"/><polygon fill="#4ba9f5" points="19.35,6.63 19.34,6.63 19.21,6.13"/><path fill="#64b5f6" d="M24,4v1.5c-1.66,0-3.26,0.22-4.79,0.62L18.83,4.7C20.48,4.26,22.21,4,24,4z"/><polygon fill="none" points="6.63,28.65 6.63,28.66 6.13,28.79"/><polygon fill="none" points="19.35,6.63 19.34,6.63 19.21,6.13"/><polygon fill="none" points="33,10 31,13 17,13 15.16,10"/></svg>