<svg xmlns="http://www.w3.org/2000/svg"  viewBox="0 0 48 48" width="1600px" height="1600px" baseProfile="basic"><path fill="#ffc004" d="M6,11c0-2.209,1.791-4,4-4h28c2.209,0,4,1.791,4,4v28c0,2.209-1.791,4-4,4H10c-2.209,0-4-1.791-4-4	V11z"/><path fill="#472b29" d="M36,34V17c0.552,0,1-0.448,1-1c0-0.552-0.448-1-1-1h-6c-0.552,0-1,0.448-1,1	c0,0.378,0.218,0.696,0.528,0.866L24,27l-5.528-10.134C18.782,16.696,19,16.378,19,16c0-0.552-0.448-1-1-1h-6c-0.552,0-1,0.448-1,1	c0,0.552,0.448,1,1,1v17c-0.552,0-1,0.448-1,1c0,0.552,0.448,1,1,1h5c0.552,0,1-0.448,1-1c0-0.552-0.448-1-1-1v-9.667l6.703,11.172	c0.135,0.224,0.46,0.224,0.594,0L31,24.333V34c-0.552,0-1,0.448-1,1c0,0.552,0.448,1,1,1h5c0.552,0,1-0.448,1-1	C37,34.448,36.552,34,36,34z"/></svg>