<svg xmlns="http://www.w3.org/2000/svg"  viewBox="0 0 48 48" width="1600px" height="1600px"><path fill="#616161" d="M36.924 12.641L38.334 13.111 29.663 19.186 32.012 16.059 33.806 13.671zM3.103 37L14.073 30 10.578 27.667zM15.406 32L26.375 26.917 29.959 32z"/><path fill="#bdbdbd" d="M44.978 11.301L37.053 19 29.959 32 25.959 29 24.522 28.563 39.897 15.25z"/><path fill="#757575" d="M18.397,12.969l2.125-0.906L20.31,14l1.268,3l-7.506,13h-3l-0.495-2.333C10.921,27.667,18.397,12.969,18.397,12.969z"/><path fill="#bdbdbd" d="M21.578,17h7.538c0.614,0,1.086,0.578,0.988,1.154c-0.078,0.461-0.441,1.032-0.441,1.032L33.959,15l1.375-2.25l-14.813-0.688L20.31,14L21.578,17z"/><path fill="#eee" d="M18.114 11L3.103 37l7.97-7 9.238-16c0 0 11.916 0 12.649 0 1 0 1 1 1 1l4.375-1.889 0-.471V12.64c0-.906-.734-1.64-1.64-1.64H18.114zM15.406 32L44.978 11.301 35.959 19 25.959 29z"/></svg>