<svg xmlns="http://www.w3.org/2000/svg"  viewBox="0 0 48 48" width="1600px" height="1600px" clip-rule="evenodd"><path fill="#bb1612" fill-rule="evenodd" d="M22,20c9.198-5.833,18.437-9.188,20.5-6.5 C44.787,16.479,37.198,24.167,28,30s-17.664,7.296-19,5C7.295,32.071,12.802,25.833,22,20z M23.882,15.756 c11.135-6.612,21.796-8.734,23.793-4.736C49.672,15.018,42.135,24.388,31,31S9.322,38.978,7.325,34.98 C5.328,30.982,12.747,22.368,23.882,15.756z" clip-rule="evenodd"/><path fill="#bb1612" fill-rule="evenodd" d="M20,25.692c9.166,2.119,15.317,5.274,14.982,7 c-0.351,1.814-7.296,2.506-16.492,0.539C9.295,31.263,1.635,27.482,2,25.5S10.55,23.508,20,25.692z M22,24.864 c11.487,2.608,20.498,6.646,19.979,9.444C41.46,37.106,31.511,37.479,20,35s-20.498-6.759-19.979-9.558 C0.541,22.644,9.868,22.109,22,24.864z" clip-rule="evenodd"/><path fill="#bb1612" fill-rule="evenodd" d="M7.5 21A2.5 2.5 0 1 0 7.5 26A2.5 2.5 0 1 0 7.5 21Z" clip-rule="evenodd"/></svg>