<svg xmlns="http://www.w3.org/2000/svg"  viewBox="0 0 48 48" width="1600px" height="1600px" clip-rule="evenodd"><path fill="#efebe9" d="M22,7v34l-8,0c0,0-6-2-6-7c0-3-1-19,0-21s3-5,6-6C15.897,6.368,22,7,22,7z"/><path fill="none" stroke="#ff3d00" stroke-miterlimit="10" stroke-width="2" d="M17,7h5v34l-6,0c-4.401,0-8-3.33-8-8.053v-17	C8,10.27,11.719,7,17,7z"/><path fill="#ff3d00" d="M30,6h-5v36h5c5,0,10-4,10-9V16C40,10,35.658,6,30,6z M32.5,31c-1.934,0-3.5-1.566-3.5-3.5	c0-1.934,1.566-3.5,3.5-3.5c1.934,0,3.5,1.566,3.5,3.5C36,29.434,34.434,31,32.5,31z"/><circle cx="15.5" cy="16.5" r="3.5" fill="#ff3d00" fill-rule="evenodd" clip-rule="evenodd"/></svg>