<svg xmlns="http://www.w3.org/2000/svg"  viewBox="0 0 48 48" width="1600px" height="1600px"><path fill="#8bc34a" d="M27.864,9.005c-6.121,0-10.901,1.582-15.222,3.79c-2.7,1.396-4.561,3.146-4.561,3.146 s0.86,3.79,4.861,9.352c3.16,4.082,5.681,6.082,8.701,8.373c5.141,3.728,9.361,5.332,9.361,5.332s0.2,0.148-3.38-2.518 c-2.744-2.18-2.88-2.437-2.88-2.437s-0.26-0.854-0.48-1.646c-7.181-5.123-9.601-14.019-9.601-14.019s7.721-6.685,17.682-6.373 l0.4-1.124c0,0,1.5-0.229,5.001-0.125C32.724,8.82,27.864,9.005,27.864,9.005z"/><path fill="#8bc34a" d="M36.885 14.001c-10.541-.084-16.742 6.667-16.742 6.667s1.04 4.514 4.681 8.332c-.52-4.03-.46-7.025-.46-7.025s5.181-5.084 12.522-4.957C43.766 17.06 48 21.195 48 21.195s-2.734-3.755-7.075-5.992c0 0 .42-.527.9-.717C41.825 14.486 39.565 14.043 36.885 14.001zM6.541 23.588C5.061 24.504 3.58 23.9 0 25.421c4.581 5.082 8.401 8.061 14.382 10.624 1.24 0 2.12 0 2.12 0s3.68.854 7.761 1.687C12.642 33.128 6.541 23.588 6.541 23.588z"/></svg>