<svg xmlns="http://www.w3.org/2000/svg"  viewBox="0 0 48 48" width="1600px" height="1600px"><path fill="#cfd8dc" d="M28.142,14h-0.46h-7.364h-0.46l-0.325,0.325l-5.207,5.207L14,19.858v0.46v7.364v0.46l0.325,0.325	l5.207,5.207L19.858,34h0.46h7.364h0.46l0.325-0.325l5.207-5.207L34,28.142v-0.46v-7.364v-0.46l-0.325-0.325l-5.207-5.207L28.142,14	L28.142,14z"/><polygon fill="#fb8c00" points="40,30.627 40,30.576 34,28.142 27.63,34.512 30.057,40 30.627,40"/><polygon fill="#d81b60" points="19.858,34 14,28.142 8,30.562 8,30.627 17.373,40 17.956,40 20.408,34"/><polygon fill="#4dd0e1" points="19.87,14 28.142,14 28.159,14.017 30.678,8.051 30.627,8 17.41,8"/><polygon fill="#212121" points="26.899,17 21.101,17 17,21.101 17,26.899 21.101,31 26.899,31 31,26.899 31,21.101"/><polygon fill="#616161" points="23.95,19 21.05,19 19,21.05 19,23.95 21.05,26 23.95,26 26,23.95 26,21.05"/><polygon fill="#bdbdbd" points="22.38,20.4 21.22,20.4 20.4,21.22 20.4,22.38 21.22,23.2 22.38,23.2 23.2,22.38 23.2,21.22"/><polygon fill="#9ccc65" points="34,19.858 40,17.376 40,17.373 30.627,8 30.627,8 28.142,14"/><polygon fill="#fdd835" points="33.997,19.855 34,19.858 34,28.142 40,30.576 40,17.376"/><polygon fill="#ab47bc" points="14,19.858 8,17.405 8,30.627 14,28.142"/><polygon fill="#29b6f6" points="8,17.373 8,17.55 14,19.858 19.858,14 17.41,8 17.373,8"/><path fill="#cfd8dc" d="M30.627,8L40,17.373v13.255L30.627,40H17.373L8,30.627V17.373L17.373,8H30.627 M31.456,6h-0.828	H17.373h-0.828l-0.586,0.586l-9.373,9.373L6,16.544v0.828v13.255v0.828l0.586,0.586l9.373,9.373L16.544,42h0.828h13.255h0.828	l0.586-0.586l9.373-9.373L42,31.456v-0.828V17.373v-0.828l-0.586-0.586l-9.373-9.373L31.456,6L31.456,6z"/><polygon fill="#ec407a" points="26.899,31 21.101,31 16.547,42 31.456,42"/></svg>