<svg xmlns="http://www.w3.org/2000/svg"  viewBox="0 0 48 48" width="1600px" height="1600px"><circle cx="24" cy="24" r="19" fill="#f06292"/><path fill="#e0e0e0" d="M24,6c9.925,0,18,8.075,18,18s-8.075,18-18,18S6,33.925,6,24S14.075,6,24,6 M24,4 C12.954,4,4,12.954,4,24s8.954,20,20,20s20-8.954,20-20S35.046,4,24,4L24,4z"/><polygon fill="#e0e0e0" points="43,23 29.027,23 32.513,21.556 31.747,19.708 28.262,21.152 33.192,16.222 31.778,14.808 26.847,19.739 28.291,16.252 26.443,15.487 25,18.972 25,12 23,12 23,18.972 21.557,15.487 19.709,16.252 21.153,19.739 16.222,14.808 14.808,16.222 19.738,21.152 16.253,19.708 15.487,21.556 18.973,23 12,23 12,25 18.973,25 15.487,26.444 16.253,28.292 19.738,26.848 14.808,31.778 16.222,33.192 21.153,28.261 19.709,31.748 21.557,32.513 23,29.028 23,36 25,36 25,29.028 26.443,32.513 28.291,31.748 26.847,28.261 31.778,33.192 33.192,31.778 28.262,26.848 31.747,28.292 32.513,26.444 29.027,25 43,25"/></svg>