<svg xmlns="http://www.w3.org/2000/svg"  viewBox="0 0 48 48" width="1600px" height="1600px"><circle cx="24" cy="24" r="19" fill="#f06292"/><path fill="#e0e0e0" d="M24,6c9.925,0,18,8.075,18,18s-8.075,18-18,18S6,33.925,6,24S14.075,6,24,6 M24,4 C12.954,4,4,12.954,4,24s8.954,20,20,20s20-8.954,20-20S35.046,4,24,4L24,4z"/><path fill="#e0e0e0" d="M18.016,24.044c-0.009,0.704-0.108,1.428-0.428,2.099c-0.49,1.025-1.294,1.597-2.36,1.767 c-0.643,0.103-1.285,0.082-1.909-0.128c-1.021-0.344-1.66-1.094-1.999-2.146c-0.22-0.684-0.271-1.39-0.217-2.106 c0.053-0.701,0.216-1.37,0.571-1.972c0.511-0.867,1.263-1.35,2.212-1.495c0.65-0.099,1.299-0.077,1.925,0.151 c1.08,0.394,1.733,1.206,2.03,2.355C17.962,23.039,18.012,23.519,18.016,24.044z M16.013,23.949 c-0.005-0.11-0.009-0.28-0.022-0.448c-0.032-0.4-0.101-0.792-0.274-1.155c-0.174-0.366-0.45-0.599-0.833-0.67 c-0.166-0.031-0.34-0.04-0.508-0.027c-0.434,0.034-0.776,0.243-0.972,0.661c-0.09,0.192-0.162,0.399-0.21,0.608 c-0.131,0.573-0.128,1.156-0.074,1.738c0.032,0.352,0.107,0.694,0.26,1.014c0.144,0.301,0.355,0.524,0.662,0.629 c0.343,0.117,0.69,0.115,1.032-0.008c0.396-0.143,0.61-0.467,0.745-0.862C15.973,24.97,16.006,24.491,16.013,23.949z"/><path fill="#e0e0e0" d="M31.079,20.19c0.634-0.12,1.26-0.117,1.898,0c0,0.038,0,0.075,0,0.111c0,2.363,0,4.726,0.002,7.089 c0,0.084-0.024,0.115-0.095,0.139c-0.989,0.33-1.997,0.495-3.032,0.419c-0.446-0.033-0.892-0.077-1.317-0.247 c-0.804-0.321-1.257-0.978-1.484-1.85c-0.133-0.513-0.165-1.04-0.166-1.57c-0.002-1.332-0.001-2.665-0.001-3.997 c0-0.03,0.003-0.06,0.004-0.095c0.636-0.118,1.268-0.118,1.909,0.001c0,0.049,0,0.092,0,0.136c0.001,1.38-0.004,2.76,0.008,4.14 c0.002,0.278,0.045,0.561,0.105,0.832c0.122,0.547,0.459,0.852,0.969,0.925c0.366,0.052,0.731,0.031,1.094-0.046 c0.082-0.017,0.109-0.05,0.109-0.145c-0.003-1.902-0.002-3.804-0.002-5.706C31.079,20.281,31.079,20.238,31.079,20.19z"/><path fill="#e0e0e0" d="M24.317,21.911c-0.315-0.095-0.616-0.203-0.925-0.274c-0.388-0.09-0.783-0.113-1.174-0.011 c-0.205,0.054-0.39,0.146-0.469,0.377c-0.105,0.305-0.003,0.613,0.279,0.739c0.309,0.138,0.633,0.235,0.951,0.351 c0.278,0.101,0.564,0.186,0.834,0.307c0.719,0.323,1.075,0.918,1.128,1.731c0.044,0.683-0.111,1.298-0.554,1.813 c-0.384,0.446-0.873,0.704-1.413,0.864c-0.589,0.174-1.192,0.178-1.796,0.133c-0.522-0.039-1.025-0.17-1.515-0.358 c-0.054-0.021-0.074-0.047-0.067-0.11c0.052-0.503,0.179-0.983,0.373-1.444c0.006-0.015,0.014-0.03,0.027-0.056 c0.036,0.013,0.071,0.026,0.106,0.039c0.56,0.223,1.135,0.363,1.739,0.333c0.277-0.014,0.549-0.059,0.797-0.202 c0.333-0.192,0.457-0.475,0.37-0.835c-0.033-0.138-0.098-0.258-0.219-0.319c-0.198-0.1-0.401-0.197-0.609-0.271 c-0.377-0.133-0.762-0.239-1.138-0.373c-0.278-0.099-0.527-0.261-0.753-0.462c-0.316-0.28-0.466-0.649-0.518-1.068 c-0.059-0.474-0.035-0.942,0.15-1.386c0.248-0.596,0.698-0.958,1.258-1.183c0.491-0.197,1.003-0.242,1.524-0.233 c0.664,0.012,1.305,0.152,1.93,0.379c0.041,0.015,0.083,0.022,0.075,0.092c-0.056,0.492-0.175,0.963-0.382,1.409 C24.323,21.904,24.317,21.912,24.317,21.911z"/><rect width="1.733" height="6.933" x="35.311" y="17.463" fill="#e0e0e0"/><rect width="1.733" height="1.733" x="35.311" y="26.129" fill="#e0e0e0"/></svg>