<svg xmlns="http://www.w3.org/2000/svg"  viewBox="0 0 48 48" width="1600px" height="1600px" baseProfile="basic"><path fill="#cfd8dc" d="M28.839,11.201L28.263,0.249l4.611,5.476l6.245-4.227l1.441,7.445l7.205-0.624l-8.166,7.493	L28.839,11.201z M42.577,29.887c-0.255,7.999-5.05,9.646-10.165,9.894l-0.403,5.116h-4.107l0.229-5.127	c-0.565-0.017-1.118-0.033-1.654-0.043l-0.962,5.169l-5.323-0.432l0.51-4.729c-0.577-0.02-1.175-0.051-1.79-0.098l-0.304,4.323	l-5.62,0.324l-0.905-5.932c-2.008-0.648-4.009-1.583-5.868-2.931c-5.908-4.287-2.846-13.617,4.25-18.89	c4.142-3.074,10.82-3.291,14.052-3.072C35.612,14.202,42.853,21.204,42.577,29.887z M20.372,26.182c0-2.736-2.217-4.955-4.953-4.955	c-2.736,0-4.955,2.219-4.955,4.955c0,2.736,2.219,4.953,4.955,4.953C18.155,31.134,20.372,28.917,20.372,26.182z M36.753,27.449	c0-3.45-2.797-6.245-6.245-6.245c-3.448,0-6.245,2.795-6.245,6.245c0,3.448,2.797,6.243,6.245,6.243	C33.956,33.692,36.753,30.897,36.753,27.449z"/></svg>