<svg xmlns="http://www.w3.org/2000/svg"  viewBox="0 0 48 48" width="1600px" height="1600px"><path fill="#f97f00" d="M15.525,12.883C17.88,11.083,20.813,10,24,10c3.046,0,5.859,0.989,8.159,2.646L36,8.038C32.652,5.515,28.505,4,24,4c-4.707,0-9.032,1.645-12.452,4.376L15.525,12.883z"/><path fill="#424242" d="M37.536,9.319l-3.839,4.606C36.344,16.474,38,20.044,38,24c0,7.72-6.28,14-14,14s-14-6.28-14-14c0-3.814,1.537-7.273,4.019-9.8l-3.972-4.502C6.323,13.333,4,18.397,4,24c0,11.028,8.972,20,20,20s20-8.972,20-20C44,18.195,41.499,12.976,37.536,9.319z"/><path fill="#424242" d="M33 36l-8-8V15l3 8 9 9L33 36zM15 36l8-8V15l-3 8-9 9L15 36z"/></svg>