<svg xmlns="http://www.w3.org/2000/svg"  viewBox="0 0 48 48" width="1600px" height="1600px"><path fill="#b71c1c" d="M43,9v30c0,0.18-0.01,0.35-0.04,0.53c0,0.02,0,0.04-0.01,0.06c-0.01,0.11-0.03,0.23-0.06,0.34	c-0.02,0.08-0.04,0.15-0.06,0.22c-0.08,0.28-0.2,0.55-0.34,0.8c-0.03,0.06-0.07,0.12-0.11,0.18c-0.16,0.27-0.36,0.51-0.58,0.73	c-0.12,0.11-0.24,0.22-0.37,0.31c-0.13,0.11-0.27,0.2-0.42,0.28L41,42.46h-0.01c-0.1,0.06-0.21,0.12-0.32,0.17	c-0.09,0.05-0.18,0.08-0.28,0.11c-0.09,0.04-32.583,0.076-32.583,0.076S7.254,42.606,7,42.46C5.8,41.77,5,40.48,5,39V9	c0-2.21,1.79-4,4-4h30C41.21,5,43,6.79,43,9z"/><path fill="#880e4f" d="M43,9v30c0,0.18-0.01,0.35-0.04,0.53c0,0.02,0,0.04-0.01,0.06c-0.01,0.11-0.03,0.23-0.06,0.34	c-0.02,0.08-0.04,0.15-0.06,0.22c-0.08,0.28-0.2,0.55-0.34,0.8c-0.03,0.06-0.07,0.12-0.11,0.18c-0.16,0.27-0.36,0.51-0.58,0.73	c-0.12,0.11-0.24,0.22-0.37,0.31c-0.13,0.11-0.27,0.2-0.42,0.28L41,42.46h-0.01C40.89,42.52,24,42,24,42V5h15C41.21,5,43,6.79,43,9z"/><path fill="#9e9e9e" d="M41,35v7.46h-0.01c-0.1,0.06-0.21,0.12-0.32,0.17c-0.09,0.05-0.18,0.08-0.28,0.11	c-0.09,0.04-0.19,0.07-0.29,0.1c-0.04,0.02-0.08,0.03-0.12,0.03c-0.14,0.04-0.29,0.07-0.44,0.09C39.36,42.99,39.18,43,39,43h-3l-1-1	h-7l-1,1h-6l-1-1h-7l-1,1H9c-0.73,0-1.41-0.2-2-0.54V35c0-3.31,2.69-6,6-6h22C38.31,29,41,31.69,41,35z"/><path fill="#bcaaa4" d="M24,37L24,37c-3.314,0-6-2.686-6-6v-4h12v4C30,34.314,27.314,37,24,37z"/><polygon points="27,43 36,43 35,29 28.885,26"/><polygon fill="#212121" points="21,43 12,43 13,29 19.115,26"/><path fill="#d7ccc8" d="M23.82,33h0.361c0.841,0,1.643-0.353,2.211-0.973l3.031-3.307C30.437,27.614,31,26.167,31,24.666V23	v-5v-5h-3.5H24h-3.5H17v5v5v1.666c0,1.501,0.563,2.948,1.577,4.054l3.031,3.307C22.176,32.647,22.979,33,23.82,33z"/><path fill="#212121" d="M26.103,21.612c0,0,0.224-0.222,0.597-0.519c0.373-0.303,0.905-0.655,1.568-0.883	c0.297-0.102,0.635-0.219,0.927-0.261c0.302-0.028,0.585,0.008,0.824,0.066c0.48,0.109,0.788,0.338,0.788,0.338l-0.002,0.1	c0,0-0.31,0.216-0.755,0.361c-0.223,0.076-0.48,0.143-0.754,0.172c-0.284,0.014-0.559-0.021-0.865,0.008	c-0.547,0.037-1.127,0.259-1.56,0.404c-0.433,0.159-0.712,0.297-0.712,0.297L26.103,21.612z"/><path fill="#f2f2f2" d="M19.697,22.649c0,0,0.711-0.514,1.375-0.321C21.736,22.522,22.324,23,22.324,23	s-0.976,0.579-1.64,0.385C20.02,23.191,19.697,22.649,19.697,22.649z"/><ellipse cx="20.889" cy="22.857" fill="#00897b" rx=".648" ry=".528"/><path d="M27.656,25.813c-0.138,0-0.25-0.112-0.25-0.25V24.75c0-0.137-0.332-0.554-0.696-0.875 c-0.104-0.091-0.114-0.249-0.022-0.353c0.091-0.104,0.25-0.114,0.353-0.022c0.203,0.179,0.866,0.797,0.866,1.25v0.813 C27.906,25.7,27.794,25.813,27.656,25.813z"/><rect width="2.352" height="1" x="23.244" y="26" fill="#bcaaa4"/><polygon fill="#bcaaa4" points="24,23.167 24,26 23.5,27 22.5,27 23,25.833 23,23.833"/><path fill="#8d6e63" d="M24.941,27.936c0,0,0.893-0.506,0.953-0.417c0.06,0.089,0.06,0.387,0.06,0.387	S25.328,27.936,24.941,27.936z"/><path fill="#8d6e63" d="M23.941,27.936c0,0-0.893-0.506-0.953-0.417c-0.06,0.089-0.06,0.387-0.06,0.387	S23.554,27.936,23.941,27.936z"/><path fill="#ef5350" d="M26.012,29.633c0,0-1.313,0.18-1.754,0.179c-0.42-0.001-1.67-0.179-1.67-0.179v0.578	c0,0.552,0.448,1,1,1h1.424c0.552,0,1-0.448,1-1V29.633z"/><polygon fill="#bcaaa4" points="25,23.167 25,26 25.5,27 26.5,27 26,25.833 26,23.833"/><path d="M24,30.047h0.922c0,0,0.792-1.715,1.234-2.266c0.395-0.492,1.359-1.375,1.969-1.578c0.149-0.05,0.198,0.458,0.156,0.609	c-0.035,0.128-0.375,0.375-0.375,0.375s-0.027,0.614-0.125,0.75c-0.438,0.609-1.219,1.844-1.219,1.844s-0.527,0.201-0.484,0.344	c0.115,0.386,1.609,0.063,1.609,0.063s-0.889,1.724-1.453,1.797c-0.319,0.041-1.047-0.797-1.047-0.797s-0.336,0.042-0.438,0	c-0.092-0.038-0.281-0.281-0.281-0.281L24,30.047z"/><path d="M24.75,30.047h-0.922c0,0-1.339-1.715-1.781-2.266c-0.395-0.492-1.359-1.375-1.969-1.578	c-0.149-0.05-0.198,0.458-0.156,0.609c0.035,0.128,0.375,0.375,0.375,0.375s0.027,0.614,0.125,0.75	c0.438,0.609,1.219,1.844,1.219,1.844s0.844,0.281,0.438,0.75c-0.264,0.304-1.609,0.063-1.609,0.063s1.483,1.318,2.047,1.391	c0.319,0.041,1.047-0.797,1.047-0.797s0.336,0.042,0.438,0c0.092-0.038,0.281-0.281,0.281-0.281L24.75,30.047z"/><circle cx="20.936" cy="22.695" r=".211" fill="#1a1a1a"/><path fill="#212121" d="M23.103,21.694c0,0-0.279-0.138-0.712-0.297c-0.432-0.145-1.013-0.367-1.56-0.404	c-0.306-0.029-0.581,0.007-0.865-0.008c-0.274-0.029-0.531-0.095-0.754-0.172c-0.445-0.145-0.755-0.361-0.755-0.361l-0.002-0.1	c0,0,0.308-0.229,0.788-0.338c0.24-0.058,0.522-0.093,0.824-0.066c0.292,0.043,0.63,0.159,0.927,0.261	c0.664,0.228,1.195,0.579,1.568,0.883c0.373,0.298,0.597,0.519,0.597,0.519L23.103,21.694z"/><path d="M35,29l-6,1.677l0.368-4.739c0.061-0.79,0-1.584-0.18-2.355l-0.578-2.464c-0.499-2.127-1.877-3.942-3.792-4.993L24,15.677	l-1-4.621L24,8c0-0.552,0.448-1,1-1h0c4.4,0,8.088,3.329,8.536,7.706L35,29z"/><path d="M30.853,22.519c0.03,0.988-1.168,1.67-2.598,1.79c-1.8,0.151-2.598-0.801-2.598-1.79s0.861-1.639,2.264-1.941	C29.225,20.298,30.766,19.694,30.853,22.519z"/><path fill="#ffcdd2" d="M28.95,22.649c0,0-0.711-0.514-1.375-0.321S26.324,23,26.324,23s0.976,0.579,1.64,0.385	S28.95,22.649,28.95,22.649z"/><ellipse cx="27.758" cy="22.857" fill="#f2f2f2" rx=".648" ry=".528"/><circle cx="27.711" cy="22.695" r=".211" fill="#1a1a1a"/><path fill="#212121" d="M13,29l6,1.677l-0.368-4.739c-0.061-0.79,0-1.584,0.18-2.355l0.578-2.464	c0.499-2.127,1.877-3.942,3.792-4.993L24,15.677V8c0-0.552-0.448-1-1-1h0c-4.4,0-8.088,3.329-8.536,7.706L13,29z"/></svg>