<svg xmlns="http://www.w3.org/2000/svg"  viewBox="0 0 48 48" width="1600px" height="1600px"><rect width="36" height="36" x="6" y="6" fill="#212121"/><polygon fill="#424242" points="41.875,6 36.085,6 6,28.623 6,32.976"/><polygon fill="#424242" points="32.758,6 26.969,6 6,21.768 6,26.121"/><polygon fill="#424242" points="14.526,6 8.736,6 6,8.058 6,12.411"/><polygon fill="#424242" points="42,12.76 42,8.407 6,35.478 6,39.831"/><polygon fill="#424242" points="23.642,6 17.853,6 6,14.913 6,19.266"/><polygon fill="#424242" points="42,19.616 42,15.262 6.443,42 12.232,42"/><polygon fill="#424242" points="42,33.326 42,28.972 24.675,42 30.465,42"/><polygon fill="#424242" points="42,40.181 42,35.828 33.791,42 39.58,42"/><polygon fill="#424242" points="42,26.47 42,22.117 15.559,42 21.348,42"/><g><path fill="#fff" d="M17.737,41.253H6.734V23.431l2.962-1.458l0.235-1.74L9.32,19.434L8.709,17.13l-0.423-0.047 c0,0-0.282-3.151,0.564-4.843c0.846-0.517,2.257-1.176,5.455-0.846c0.047,0.423-0.047,0.752-0.047,0.752l1.928,0.658l-0.611,0.705 l-0.094,1.74l-0.517,0.611l0.376,1.693l-0.517,0.376l0.094,0.423l-0.423,0.611l0.141,0.47l-0.282,0.94l-1.599-0.188l-0.282,0.329 l0.47,1.646l3.715,1.693c0,0,1.129,0.564,1.129,1.693C17.785,26.676,17.737,41.253,17.737,41.253z"/></g><g><path fill="#fff" d="M30.199,41.253h11.003V23.431l-2.962-1.458l-0.235-1.74l0.611-0.799l0.611-2.304l0.423-0.047 c0,0,0.282-3.151-0.564-4.843c-0.846-0.517-2.257-1.176-5.455-0.846c-0.047,0.423,0.047,0.752,0.047,0.752l-1.928,0.658 l0.611,0.705l0.094,1.74l0.517,0.611l-0.376,1.693l0.517,0.376l-0.094,0.423l0.423,0.611l-0.141,0.47l0.282,0.94l1.599-0.188 l0.282,0.329l-0.47,1.646l-3.715,1.693c0,0-1.129,0.564-1.129,1.693C30.152,26.676,30.199,41.253,30.199,41.253z"/></g><g><path fill="#fff" d="M29.063,28.337c-0.266-0.332-0.88-0.561-1.095-0.62L25.4,26.512l-0.012-0.145 c-0.001-0.005-0.049-0.56-0.23-1.376l-0.031-0.143l0.108-0.098c0.897-0.809,1.009-1.041,1.095-1.682l0.036-0.264l0.261,0.052 c0.049-0.003,0.189-0.104,0.296-0.215l0.453-1.314c0.018-0.04,0.163-0.381-0.5-1.007l-0.09-0.085l0.013-0.123 c0.326-3.054-1.428-3.273-3.459-3.528l-0.364-0.047c-2.397,0.678-2.35,2.249-2.314,3.398c0.003,0.123,0.007,0.238,0.007,0.345 v0.154l-0.139,0.069c-0.413,0.207-0.435,0.512-0.431,0.606c0.076,0.179,0.421,0.979,0.543,1.221l0.032,0.065 c0.059,0.118,0.167,0.338,0.229,0.367l0.275-0.055l0.006,0.277c0.082,0.991,1.193,1.732,1.204,1.74l0.149,0.099l-0.449,1.742 l-0.105,0.051c-0.011,0.005-1.1,0.525-2.037,0.9c-0.899,0.359-1.496,0.769-1.502,0.772l-0.285-0.41 c0.026-0.019,0.646-0.444,1.602-0.827c0.753-0.301,1.609-0.699,1.902-0.837l0.304-1.179c-0.325-0.248-1.084-0.911-1.253-1.81 c-0.234-0.097-0.377-0.385-0.488-0.61l-0.031-0.063c-0.144-0.285-0.554-1.243-0.57-1.283c-0.021-0.083-0.118-0.722,0.542-1.137 c-0.001-0.059-0.003-0.12-0.005-0.185c-0.036-1.172-0.096-3.134,2.729-3.908l0.049-0.014l0.462,0.06 c1.979,0.248,4.221,0.528,3.907,3.956c0.855,0.862,0.557,1.43,0.518,1.493l-0.495,1.4c-0.074,0.084-0.286,0.307-0.534,0.388 c-0.104,0.611-0.31,0.957-1.119,1.698c0.114,0.541,0.17,0.951,0.194,1.156l2.27,1.068l0,0c0.013,0,0.894,0.253,1.312,0.775 L29.063,28.337z"/></g></svg>