<svg xmlns="http://www.w3.org/2000/svg"  viewBox="0 0 48 48" width="1600px" height="1600px"><rect width="36" height="36" x="6" y="6" fill="#212121"/><polygon fill="#424242" points="41.875,6 36.085,6 6,28.623 6,32.976"/><polygon fill="#424242" points="32.758,6 26.969,6 6,21.768 6,26.121"/><polygon fill="#424242" points="14.526,6 8.736,6 6,8.058 6,12.411"/><polygon fill="#424242" points="42,12.76 42,8.407 6,35.478 6,39.831"/><polygon fill="#424242" points="23.642,6 17.853,6 6,14.913 6,19.266"/><polygon fill="#424242" points="42,19.616 42,15.262 6.443,42 12.232,42"/><polygon fill="#424242" points="42,33.326 42,28.972 24.675,42 30.465,42"/><polygon fill="#424242" points="42,40.181 42,35.828 33.791,42 39.58,42"/><polygon fill="#424242" points="42,26.47 42,22.117 15.559,42 21.348,42"/><g><path fill="#fff" d="M33.133,27.448l-2.298-3.447l-2.729-0.574l-1.101-1.293l1.963-0.431l6.463,0.096l0.718-1.005 l-8.186-0.574l-1.388,0.335l0.191-0.91l7.66-1.963l1.532-2.011l2.968-3.782l-0.431-1.484l-3.543,5.074l-1.436,1.293l-1.723,0.287 l-5.649,1.915L26,18.448l4.165-4.931l0.191-1.915l-1.388-3.351l0.239,2.968l-0.335,1.628l-0.335,0.91l-3.303,3.495l0.383-1.867 l-0.431-0.431l-0.67,2.011L23.7,17.632l-0.763-0.668l-0.67-2.011l-0.431,0.431l0.383,1.867l-3.303-3.495l-0.335-0.91l-0.335-1.628 l0.239-2.968l-1.388,3.351l0.191,1.915l4.165,4.931l-0.144,0.527L15.66,17.06l-1.723-0.287L12.5,15.48l-3.543-5.074L8.527,11.89 l2.968,3.782l1.532,2.011l7.66,1.963l0.192,0.91l-1.388-0.335l-8.186,0.574l0.718,1.005l6.463-0.096l1.963,0.431l-1.101,1.293 l-2.729,0.574l-2.298,3.447L9.915,31.9l-0.144,6.894l0.957,1.819l0.431-7.851l3.973-4.835l2.872-2.442l0.766-0.191l-0.096,0.718 c0,0-0.144,2.25,0.239,3.447c1.261,3.11,4.07,3.453,4.737,3.49l0.002,0.148c0,0,3.447-0.096,4.883-3.638 c0.383-1.197,0.239-3.447,0.239-3.447l-0.096-0.718l0.766,0.191l2.872,2.442l3.973,4.835l0.431,7.851l0.957-1.819L37.537,31.9 L33.133,27.448z"/></g></svg>