<svg xmlns="http://www.w3.org/2000/svg"  viewBox="0 0 48 48" width="1600px" height="1600px"><rect width="36" height="36" x="6" y="6" fill="#212121"/><polygon fill="#424242" points="41.875,6 36.085,6 6,28.623 6,32.976"/><polygon fill="#424242" points="32.758,6 26.969,6 6,21.768 6,26.121"/><polygon fill="#424242" points="14.526,6 8.736,6 6,8.058 6,12.411"/><polygon fill="#424242" points="42,12.76 42,8.407 6,35.478 6,39.831"/><polygon fill="#424242" points="23.642,6 17.853,6 6,14.913 6,19.266"/><polygon fill="#424242" points="42,19.616 42,15.262 6.443,42 12.232,42"/><polygon fill="#424242" points="42,33.326 42,28.972 24.675,42 30.465,42"/><polygon fill="#424242" points="42,40.181 42,35.828 33.791,42 39.58,42"/><polygon fill="#424242" points="42,26.47 42,22.117 15.559,42 21.348,42"/><g><path fill="#fff" d="M23.012,31.037l-0.391-1.135l16-5.512c0.259-0.09,0.468-0.276,0.587-0.524 c0.12-0.248,0.135-0.527,0.044-0.787l-3.324-9.409c-0.188-0.531-0.773-0.811-1.306-0.629l-15.423,5.357 c-0.261,0.091-0.47,0.277-0.589,0.526c-0.119,0.247-0.135,0.526-0.043,0.786l2.548,7.213l-1.131,0.4l-2.548-7.213 c-0.199-0.563-0.167-1.169,0.092-1.707s0.712-0.942,1.276-1.139l15.423-5.357c1.159-0.404,2.426,0.209,2.831,1.361l3.324,9.41 c0.199,0.563,0.166,1.17-0.094,1.707c-0.259,0.538-0.712,0.942-1.276,1.138L23.012,31.037z"/></g><g><polygon fill="#fff" points="37.84,17.241 19.489,23.496 18.447,20.381 36.798,14.126"/></g><g><path fill="#fff" d="M8.127,33.033c-0.102,0-0.205-0.026-0.3-0.081c-0.287-0.167-0.385-0.534-0.219-0.82l5.329-9.192 c0.028-0.069,1.375-2.957,4.979-3.201c0.357-0.013,0.617,0.228,0.64,0.558c0.022,0.331-0.228,0.617-0.558,0.64 c-2.896,0.196-3.983,2.528-3.994,2.552l-5.356,9.246C8.536,32.926,8.334,33.033,8.127,33.033z"/></g><g><path fill="#fff" d="M15.373,37.978c-0.171,0-0.34-0.071-0.458-0.212c-0.214-0.252-0.184-0.629,0.068-0.844 c0.039-0.034,0.992-0.835,2.305-1.119c1.172-0.253,2.647-1.012,3.12-2.081c0.573-1.296,1.531-3.465,3.019-4.634 c0.659-0.518,1.141-0.847,1.538-1.118c0.409-0.28,0.705-0.482,1.01-0.766c0.591-0.546,0.451-1.254,0.052-1.713 c-0.414-0.475-1.194-0.785-2.04-0.094c-0.285,0.232-0.568,0.471-0.852,0.708c-1.668,1.4-3.244,2.723-4.899,2.963 c-0.324,0.04-0.633-0.18-0.68-0.508c-0.048-0.327,0.18-0.632,0.508-0.68c1.317-0.191,2.834-1.464,4.3-2.694 c0.287-0.241,0.575-0.482,0.863-0.719c1.342-1.097,2.88-0.713,3.704,0.235c0.779,0.895,0.981,2.344-0.141,3.382 c-0.37,0.343-0.713,0.578-1.148,0.875c-0.38,0.26-0.842,0.576-1.474,1.071c-1.252,0.984-2.135,2.981-2.662,4.175 c-0.689,1.562-2.566,2.469-3.964,2.771c-1.01,0.218-1.774,0.854-1.782,0.86C15.647,37.932,15.51,37.978,15.373,37.978z"/></g><g><path fill="#fff" d="M28.429,31.734c-0.283,0-0.514-0.07-0.683-0.148c-0.871-0.401-1.239-1.477-1.459-2.119l-0.04-0.115 c-0.109-0.313,0.056-0.654,0.369-0.764c0.315-0.106,0.655,0.056,0.764,0.369l0.042,0.121c0.147,0.431,0.422,1.231,0.827,1.418 c0.08,0.037,0.217,0.073,0.467-0.024c0.145-0.058,0.233-0.143,0.29-0.278c0.205-0.495-0.087-1.395-0.206-1.671 c-0.131-0.304,0.009-0.657,0.313-0.788c0.307-0.134,0.656,0.008,0.788,0.311c0.068,0.155,0.65,1.553,0.215,2.605 c-0.181,0.437-0.512,0.76-0.958,0.937C28.887,31.693,28.643,31.734,28.429,31.734z"/></g><g><path fill="#fff" d="M25.972,32.913c-0.755,0-1.515-0.342-1.754-1.058l-0.549-1.906c-0.092-0.318,0.092-0.651,0.41-0.742 c0.32-0.096,0.651,0.092,0.742,0.41l0.542,1.883c0.047,0.14,0.486,0.291,0.928,0.172c0.456-0.125,0.624-0.438,0.512-0.956 c-0.07-0.324,0.135-0.644,0.459-0.713c0.319-0.07,0.644,0.134,0.713,0.459c0.248,1.143-0.288,2.071-1.366,2.367 C26.405,32.885,26.188,32.913,25.972,32.913z"/></g><g><path fill="#fff" d="M23.118,33.691c-0.718,0-1.414-0.322-1.77-0.865c-0.182-0.277-0.104-0.649,0.173-0.831 c0.279-0.184,0.649-0.104,0.831,0.173c0.154,0.236,0.633,0.409,1.079,0.28c0.408-0.118,0.619-0.438,0.628-0.95 c0.004-0.331,0.271-0.559,0.609-0.59c0.331,0.005,0.596,0.278,0.59,0.609c-0.017,1.039-0.575,1.817-1.494,2.083 C23.553,33.661,23.335,33.691,23.118,33.691z"/></g></svg>