<svg xmlns="http://www.w3.org/2000/svg"  viewBox="0 0 48 48" width="1600px" height="1600px"><rect width="36" height="36" x="6" y="6" fill="#212121"/><polygon fill="#424242" points="41.875,6 36.085,6 6,28.623 6,32.976"/><polygon fill="#424242" points="32.758,6 26.969,6 6,21.768 6,26.121"/><polygon fill="#424242" points="14.526,6 8.736,6 6,8.058 6,12.411"/><polygon fill="#424242" points="42,12.76 42,8.407 6,35.478 6,39.831"/><polygon fill="#424242" points="23.642,6 17.853,6 6,14.913 6,19.266"/><polygon fill="#424242" points="42,19.616 42,15.262 6.443,42 12.232,42"/><polygon fill="#424242" points="42,33.326 42,28.972 24.675,42 30.465,42"/><polygon fill="#424242" points="42,40.181 42,35.828 33.791,42 39.58,42"/><polygon fill="#424242" points="42,26.47 42,22.117 15.559,42 21.348,42"/><g><path fill="#fff" d="M24.011,11.592c-8.807,0-15.947,4.569-15.947,10.204c0,2.975,2.002,5.644,5.176,7.509l-0.516,7.627 l5.945-5.532C20.341,31.782,22.134,32,24.011,32c8.807,0,15.947-4.569,15.947-10.204C39.957,16.16,32.818,11.592,24.011,11.592z"/></g><g><path fill="#212121" d="M19.674,18.017c-0.686-1.069-1.781-1.755-3.082-1.931c-1.545-0.21-3.205,0.323-4.433,1.427 c-1.045,0.938-1.762,2.677-1.826,4.43c-0.052,1.44,0.355,2.688,1.148,3.511c1.127,1.17,2.457,1.569,3.607,1.569 c0.864,0,1.627-0.225,2.129-0.517l-0.754-1.297c-0.656,0.382-2.473,0.688-3.902-0.797c-0.508-0.527-0.767-1.385-0.729-2.415 c0.048-1.324,0.595-2.71,1.329-3.369c0.905-0.812,2.114-1.208,3.23-1.056c0.607,0.082,1.451,0.366,2.021,1.255 c1.181,1.839,0.472,3.714-0.068,4.448c-0.125,0.17-0.219,0.22-0.232,0.225c-0.053-0.015-0.164-0.15-0.169-0.291 c-0.025-0.604,0.061-3.249,0.096-4.218l-1.499-0.055c-0.001,0.024-0.005,0.147-0.012,0.329c-0.221-0.125-0.453-0.225-0.703-0.268 c-1.364-0.239-2.691,0.857-2.964,2.437c-0.272,1.578,0.612,3.054,1.973,3.291c0.124,0.021,0.248,0.031,0.371,0.031 c0.558,0,1.091-0.223,1.533-0.594c0.222,0.362,0.546,0.653,0.938,0.772c0.321,0.098,1.15,0.22,1.878-0.771 C20.632,22.693,21.09,20.223,19.674,18.017z M16.317,22.032c-0.13,0.751-0.695,1.307-1.229,1.214 c-0.537-0.093-0.88-0.806-0.75-1.557c0.12-0.696,0.613-1.225,1.111-1.225c0.04,0,0.079,0.004,0.118,0.011 c0.317,0.055,0.505,0.313,0.588,0.462C16.326,21.24,16.385,21.64,16.317,22.032L16.317,22.032z"/></g><g><polygon fill="#212121" points="31.425,23.173 28.53,21.78 31.397,20.309 30.273,18.342 27.49,20.129 27.66,16.826 25.394,16.826 25.542,20.154 22.714,18.416 21.628,20.405 24.52,21.82 21.656,23.268 22.781,25.235 25.542,23.489 25.394,26.751 27.66,26.751 27.488,23.432 30.339,25.161"/></g><g><polygon fill="#212121" points="35.798,24.198 36.021,16.603 33.596,16.603 33.787,24.198"/><path fill="#212121" d="M34.729,24.9c-0.767,0-1.388,0.493-1.388,1.101s0.622,1.101,1.388,1.101 c0.767,0,1.388-0.493,1.388-1.101S35.495,24.9,34.729,24.9z"/></g></svg>