<svg xmlns="http://www.w3.org/2000/svg"  viewBox="0 0 48 48" width="1600px" height="1600px"><rect width="36" height="36" x="6" y="6" fill="#212121"/><polygon fill="#424242" points="41.875,6 36.085,6 6,28.623 6,32.976"/><polygon fill="#424242" points="32.758,6 26.969,6 6,21.768 6,26.121"/><polygon fill="#424242" points="14.526,6 8.736,6 6,8.058 6,12.411"/><polygon fill="#424242" points="42,12.76 42,8.407 6,35.478 6,39.831"/><polygon fill="#424242" points="23.642,6 17.853,6 6,14.913 6,19.266"/><polygon fill="#424242" points="42,19.616 42,15.262 6.443,42 12.232,42"/><polygon fill="#424242" points="42,33.326 42,28.972 24.675,42 30.465,42"/><polygon fill="#424242" points="42,40.181 42,35.828 33.791,42 39.58,42"/><polygon fill="#424242" points="42,26.47 42,22.117 15.559,42 21.348,42"/><g><path fill="#fff" d="M19.787,16.868c-3.913,0-7.085,3.172-7.085,7.085c0,3.913,3.172,7.085,7.085,7.085 c3.913,0,7.085-3.172,7.085-7.085C26.872,20.041,23.7,16.868,19.787,16.868z M19.787,28.166c-2.327,0-4.213-1.886-4.213-4.213 c0-2.327,1.886-4.213,4.213-4.213S24,21.627,24,23.954C24,26.28,22.114,28.166,19.787,28.166z"/></g><g><rect width="2.824" height="9.718" x="18.351" y="29.507" fill="#fff"/></g><g><path fill="#fff" d="M19.142,24.681c2.81,2.723,7.296,2.652,10.019-0.159c2.723-2.81,2.652-7.296-0.159-10.019 c-2.81-2.723-7.296-2.652-10.019,0.159C16.261,17.473,16.332,21.959,19.142,24.681z M27.003,16.567 c1.671,1.619,1.713,4.286,0.094,5.957c-1.619,1.671-4.286,1.713-5.957,0.094s-1.713-4.286-0.094-5.957 C22.665,14.99,25.332,14.948,27.003,16.567z"/></g><g><rect width="2.824" height="9.718" x="29.252" y="8.182" fill="#fff" transform="scale(-1) rotate(44.092 32.203 -75.723)"/></g><g><rect width="2.824" height="7.851" x="18.327" y="31.111" fill="#fff" transform="rotate(-90 19.74 35.036)"/></g><g><rect width="2.824" height="7.612" x="29.888" y="6.193" fill="#fff" transform="rotate(-90 31.3 9.999)"/></g><g><rect width="2.824" height="7.612" x="32.282" y="8.634" fill="#fff" transform="rotate(-180 33.694 12.44)"/></g></svg>