<svg xmlns="http://www.w3.org/2000/svg"  viewBox="0 0 48 48" width="1600px" height="1600px"><rect width="36" height="36" x="6" y="6" fill="#212121"/><polygon fill="#424242" points="41.875,6 36.085,6 6,28.623 6,32.976"/><polygon fill="#424242" points="32.758,6 26.969,6 6,21.768 6,26.121"/><polygon fill="#424242" points="14.526,6 8.736,6 6,8.058 6,12.411"/><polygon fill="#424242" points="42,12.76 42,8.407 6,35.478 6,39.831"/><polygon fill="#424242" points="23.642,6 17.853,6 6,14.913 6,19.266"/><polygon fill="#424242" points="42,19.616 42,15.262 6.443,42 12.232,42"/><polygon fill="#424242" points="42,33.326 42,28.972 24.675,42 30.465,42"/><polygon fill="#424242" points="42,40.181 42,35.828 33.791,42 39.58,42"/><polygon fill="#424242" points="42,26.47 42,22.117 15.559,42 21.348,42"/><path fill="#fff" d="M23.931,8.003c-1.291,0-2.523,0.243-3.668,0.668c-0.017,0.002-0.035,0.004-0.04,0.005l0.001,0.009	c-0.255,0.096-0.505,0.2-0.75,0.314l-0.009-0.003c0,0.001-0.002,0.007-0.002,0.009c-1.019,0.477-1.948,1.108-2.76,1.868	l-0.011-0.004c-0.001,0.002-0.005,0.017-0.006,0.02c-1.073,1.009-1.942,2.231-2.522,3.607l-0.03-0.009	c-0.002,0.008-0.029,0.1-0.061,0.257c-0.176,0.448-0.32,0.911-0.434,1.387c-0.009,0.028-0.016,0.049-0.017,0.052l0.003,0.001	c-0.182,0.776-0.288,1.581-0.288,2.412c0,5.842,4.752,10.595,10.594,10.595s10.595-4.753,10.595-10.595S29.772,8.003,23.931,8.003z M29.565,26.721c-0.76,0.529-1.598,0.951-2.493,1.251c0.156-0.463,0.378-1.174,0.603-2.076c1.166-0.218,2.157-0.618,2.989-1.082	C30.175,25.925,29.649,26.614,29.565,26.721z M27.853,25.139c0.26-1.166,0.498-2.562,0.612-4.089	c1.076-0.292,1.932-0.745,2.506-1.115c0.171-0.11,0.332-0.228,0.493-0.347c0.198,1.592-0.032,3.012-0.396,4.158	C30.236,24.32,29.169,24.847,27.853,25.139z M14.651,15.504c0.315-0.657,0.875-1.58,1.763-2.456c0.014,0.531,0.092,1.125,0.273,1.76	c-0.884,1.055-1.464,2.171-1.838,3.224C14.575,17,14.584,16.108,14.651,15.504z M33.398,15.787	c-0.014,0.096-0.042,0.201-0.071,0.307c-0.317-0.702-0.745-1.414-1.324-2.104c0.127-0.218,0.221-0.442,0.283-0.673	c0.483,0.761,0.867,1.589,1.129,2.471L33.398,15.787z M17.126,12.424c0.655-0.513,1.448-0.968,2.402-1.299	c0.093,0.326,0.232,0.676,0.432,1.043c-1.095,0.595-1.982,1.283-2.705,2.016C17.12,13.523,17.094,12.92,17.126,12.424z M20.957,12.436c0.985-0.458,2.129-0.842,3.454-1.127c-0.894,0.676-1.685,1.441-2.386,2.258	C21.581,13.184,21.227,12.803,20.957,12.436z M25.664,11.296c-0.161,1.031-0.417,2.383-0.8,4.029	c-0.919-0.425-1.678-0.867-2.283-1.312C23.456,12.989,24.478,12.059,25.664,11.296z M26.303,11.784	c0.596,1.273,0.995,2.59,1.23,3.907c-0.696,0.077-1.382,0.04-1.998-0.113C25.892,14.056,26.138,12.794,26.303,11.784z M27.249,12.148c1.048,0.985,1.864,1.96,2.487,2.913c-0.468,0.229-0.979,0.407-1.509,0.52	C28.024,14.431,27.712,13.275,27.249,12.148z M27.807,11.715c1.433,0.68,2.516,1.48,3.328,2.329	c-0.117,0.135-0.242,0.255-0.363,0.358c-0.135,0.115-0.287,0.218-0.441,0.32C29.698,13.735,28.869,12.728,27.807,11.715z M20.583,11.855c-0.184-0.334-0.307-0.649-0.389-0.94c1.101-0.288,2.4-0.397,3.913-0.253C22.759,10.965,21.591,11.372,20.583,11.855	z M20.325,12.748c0.312,0.441,0.729,0.896,1.259,1.352c-0.918,1.161-1.664,2.407-2.272,3.643c-0.663-0.621-1.183-1.307-1.553-2.06	c-0.125-0.255-0.219-0.507-0.303-0.756C18.189,14.132,19.128,13.385,20.325,12.748z M22.143,14.55	c0.678,0.503,1.523,0.998,2.559,1.469c-0.297,1.224-0.673,2.618-1.128,4.161c-1.477-0.53-2.71-1.183-3.689-1.955	C20.486,16.977,21.228,15.716,22.143,14.55z M25.377,16.251c0.451,0.109,0.925,0.178,1.42,0.178c0.278,0,0.559-0.022,0.841-0.055	c0.196,1.41,0.229,2.798,0.158,4.108c-1.018,0.21-2.217,0.24-3.547-0.096C24.702,18.856,25.079,17.469,25.377,16.251z M28.335,16.262c0.622-0.129,1.224-0.332,1.769-0.603c0.63,1.091,1.021,2.147,1.231,3.145c-0.23,0.187-0.473,0.371-0.743,0.544	c-0.486,0.313-1.202,0.684-2.083,0.952C28.568,19.01,28.528,17.645,28.335,16.262z M30.697,15.324	c0.187-0.122,0.367-0.249,0.53-0.389c0.14-0.119,0.246-0.251,0.361-0.379c0.645,0.787,1.085,1.6,1.374,2.383	c-0.25,0.441-0.606,0.907-1.068,1.363C31.664,17.347,31.281,16.348,30.697,15.324z M31.517,13.454	c-0.861-0.881-1.997-1.705-3.477-2.402c2.152,0.272,3.468,1.23,3.555,1.296c0.03,0.037,0.057,0.078,0.087,0.116	C31.722,12.833,31.651,13.164,31.517,13.454z M28.01,10.346c0.42-0.081,0.831-0.126,1.19-0.109c0.261,0.165,0.513,0.342,0.757,0.53	C29.406,10.58,28.755,10.428,28.01,10.346z M26.549,10.034c0.045-0.403,0.072-0.715,0.087-0.947c0.501,0.143,0.984,0.325,1.45,0.542	C27.564,9.714,27.035,9.845,26.549,10.034z M25.872,9.728c-0.307-0.354-0.656-0.69-1.01-0.979c0.367,0.034,0.728,0.086,1.082,0.16	C25.932,9.096,25.91,9.373,25.872,9.728z M24.574,9.423c-0.711-0.31-1.388-0.503-1.99-0.618c0.333-0.046,0.672-0.074,1.015-0.086	C23.899,8.89,24.238,9.134,24.574,9.423z M23.998,9.942c-1.506-0.123-2.812,0.001-3.934,0.295c-0.03-0.319-0.013-0.574,0.012-0.753	c0.109-0.046,0.224-0.081,0.335-0.123C20.786,9.33,22.269,9.268,23.998,9.942z M19.387,10.441c-0.816,0.279-1.524,0.648-2.14,1.063	c0.021-0.1,0.039-0.17,0.057-0.234c0.618-0.56,1.303-1.046,2.048-1.436C19.348,10.013,19.359,10.218,19.387,10.441z M16.944,15.53	c0.061,0.15,0.105,0.297,0.18,0.448c0.438,0.895,1.071,1.699,1.877,2.418c-0.613,1.345-1.066,2.658-1.396,3.812	c-1.217-1.044-1.956-2.131-2.396-3.145C15.499,17.952,16.023,16.71,16.944,15.53z M19.58,18.883	c1.023,0.778,2.296,1.432,3.794,1.967c-0.369,1.22-0.794,2.539-1.276,3.953c-1.61-0.638-2.879-1.356-3.881-2.107	C18.535,21.557,18.975,20.241,19.58,18.883z M21.873,25.466c-0.286,0.825-0.59,1.678-0.918,2.567	c-1.29-0.408-2.463-1.078-3.466-1.941c0.054-0.389,0.208-1.372,0.539-2.683C19.046,24.147,20.308,24.847,21.873,25.466z M24.049,21.055c0.768,0.196,1.502,0.297,2.181,0.297c0.54,0,1.049-0.052,1.524-0.139c-0.128,1.541-0.384,2.928-0.652,4.07	c-1.24,0.171-2.684,0.104-4.322-0.303C23.258,23.577,23.681,22.267,24.049,21.055z M32.057,19.11	c0.459-0.406,0.853-0.844,1.175-1.293c0.427,1.723,0.215,3.174,0.112,3.689c-0.032,0.052-0.497,0.774-1.425,1.585	C32.182,21.934,32.29,20.583,32.057,19.11z M14.085,17.639c0.089,0.466,0.229,0.965,0.436,1.482c-0.134,0.547-0.22,1.059-0.27,1.516	c-0.139-0.659-0.214-1.341-0.214-2.041C14.036,18.274,14.054,17.955,14.085,17.639z M14.9,22.622l0.01-0.001	c-0.016-0.126-0.135-1.136,0.081-2.517c0.525,0.938,1.296,1.905,2.418,2.828c-0.284,1.097-0.452,2.001-0.544,2.581	C16.049,24.678,15.383,23.7,14.9,22.622z M21.634,28.212c0.327-0.887,0.63-1.738,0.916-2.561c1.146,0.289,2.205,0.423,3.17,0.423	c0.42,0,0.818-0.03,1.205-0.073c-0.303,1.157-0.582,1.949-0.678,2.206c-0.745,0.18-1.517,0.285-2.316,0.285	C23.139,28.492,22.373,28.389,21.634,28.212z M31.167,25.324c0.149-0.329,0.297-0.701,0.433-1.103	c0.35-0.25,0.661-0.502,0.931-0.747C32.148,24.144,31.689,24.763,31.167,25.324z"/><rect width=".699" height="4.021" x="23.533" y="28.826" fill="#fff"/><polygon fill="#fff" points="34.413,32.975 33.714,32.975 33.714,31.474 14.052,31.474 14.052,32.975 13.353,32.975 13.353,30.775 34.413,30.775"/><path fill="#fff" d="M17.277,37.89h-7.053c-0.247,0-0.447-0.2-0.447-0.447v-4.468c0-0.247,0.2-0.447,0.447-0.447h7.053 c0.247,0,0.447,0.2,0.447,0.447v4.468C17.723,37.69,17.523,37.89,17.277,37.89z"/><rect width="6.415" height="3.894" x="10.543" y="33.262" fill="#212121"/><rect width="1.915" height="1.388" x="12.793" y="37.722" fill="#fff"/><path fill="#fff" d="M16.574,39.342h-5.649c-0.106,0-0.191-0.086-0.191-0.191l0,0c0-0.106,0.086-0.191,0.191-0.191h5.649 c0.106,0,0.191,0.086,0.191,0.191l0,0C16.766,39.256,16.68,39.342,16.574,39.342z"/><g><path fill="#fff" d="M27.426,37.89h-7.053c-0.247,0-0.447-0.2-0.447-0.447v-4.468c0-0.247,0.2-0.447,0.447-0.447h7.053 c0.247,0,0.447,0.2,0.447,0.447v4.468C27.872,37.69,27.672,37.89,27.426,37.89z"/></g><g><rect width="6.415" height="3.894" x="20.691" y="33.262" fill="#212121"/></g><g><rect width="1.915" height="1.388" x="22.941" y="37.722" fill="#fff"/></g><g><path fill="#fff" d="M26.723,39.342h-5.649c-0.106,0-0.191-0.086-0.191-0.191l0,0c0-0.106,0.086-0.191,0.191-0.191h5.649 c0.106,0,0.191,0.086,0.191,0.191l0,0C26.915,39.256,26.829,39.342,26.723,39.342z"/></g><g><path fill="#fff" d="M37.598,37.89h-7.053c-0.247,0-0.447-0.2-0.447-0.447v-4.468c0-0.247,0.2-0.447,0.447-0.447h7.053 c0.247,0,0.447,0.2,0.447,0.447v4.468C38.045,37.69,37.845,37.89,37.598,37.89z"/></g><g><rect width="6.415" height="3.894" x="30.864" y="33.262" fill="#212121"/></g><g><rect width="1.915" height="1.388" x="33.114" y="37.722" fill="#fff"/></g><g><path fill="#fff" d="M36.896,39.342h-5.649c-0.106,0-0.191-0.086-0.191-0.191l0,0c0-0.106,0.086-0.191,0.191-0.191h5.649 c0.106,0,0.191,0.086,0.191,0.191l0,0C37.088,39.256,37.002,39.342,36.896,39.342z"/></g></svg>