<svg xmlns="http://www.w3.org/2000/svg"  viewBox="0 0 48 48" width="1600px" height="1600px"><rect width="36" height="36" x="6" y="6" fill="#212121"/><polygon fill="#424242" points="41.875,6 36.085,6 6,28.623 6,32.976"/><polygon fill="#424242" points="32.758,6 26.969,6 6,21.768 6,26.121"/><polygon fill="#424242" points="14.526,6 8.736,6 6,8.058 6,12.411"/><polygon fill="#424242" points="42,12.76 42,8.407 6,35.478 6,39.831"/><polygon fill="#424242" points="23.642,6 17.853,6 6,14.913 6,19.266"/><polygon fill="#424242" points="42,19.616 42,15.262 6.443,42 12.232,42"/><polygon fill="#424242" points="42,33.326 42,28.972 24.675,42 30.465,42"/><polygon fill="#424242" points="42,40.181 42,35.828 33.791,42 39.58,42"/><polygon fill="#424242" points="42,26.47 42,22.117 15.559,42 21.348,42"/><g><polygon fill="#fff" points="33.984,12.751 35.947,14.427 37.766,14.235 30.824,8.347 31.016,10.262 32.787,11.746 31.102,13.83 26.947,10.262 26.803,11.746 27.367,12.228 15.601,26.395 15.478,32.381 10.239,39.56 16.565,33.187 22.447,32.14 34.352,18.197 34.702,18.496 36.426,18.4 32.219,14.788"/></g><g><path fill="#212121" d="M16.463,26.491l0.096,5.553l5.41-0.814l3.255-3.782c0,0-2.011-0.574-4.691,0.239 C17.851,28.501,16.463,26.491,16.463,26.491z"/></g><g><rect width=".5" height="3.568" x="25.38" y="23.941" fill="#212121" transform="rotate(-49.9 25.63 25.726)"/></g><g><rect width=".5" height="3.567" x="26.721" y="22.346" fill="#212121" transform="rotate(-49.896 26.97 24.129)"/></g><g><rect width=".5" height="3.567" x="28.061" y="20.75" fill="#212121" transform="rotate(-49.896 28.312 22.533)"/></g><g><rect width=".5" height="3.567" x="29.401" y="19.155" fill="#212121" transform="rotate(-49.896 29.651 20.938)"/></g><g><rect width=".5" height="3.567" x="30.742" y="17.558" fill="#212121" transform="rotate(-49.896 30.992 19.34)"/></g></svg>