<svg xmlns="http://www.w3.org/2000/svg"  viewBox="0 0 48 48" width="1600px" height="1600px"><rect width="36" height="36" x="6" y="6" fill="#212121"/><polygon fill="#424242" points="41.875,6 36.085,6 6,28.623 6,32.976"/><polygon fill="#424242" points="32.758,6 26.969,6 6,21.768 6,26.121"/><polygon fill="#424242" points="14.526,6 8.736,6 6,8.058 6,12.411"/><polygon fill="#424242" points="42,12.76 42,8.407 6,35.478 6,39.831"/><polygon fill="#424242" points="23.642,6 17.853,6 6,14.913 6,19.266"/><polygon fill="#424242" points="42,19.616 42,15.262 6.443,42 12.232,42"/><polygon fill="#424242" points="42,33.326 42,28.972 24.675,42 30.465,42"/><polygon fill="#424242" points="42,40.181 42,35.828 33.791,42 39.58,42"/><polygon fill="#424242" points="42,26.47 42,22.117 15.559,42 21.348,42"/><path fill="#fff" d="M9.654,29.991c1.293,1.484,3.495,0.957,3.495,0.957s5.84-0.814,7.516-1.053 c1.676-0.239,2.25-1.915,2.25-1.915s1.388-6.558,1.771-8.234s-0.957-2.729-0.957-2.729s-2.585-2.011-3.734-2.968 s-3.351-1.053-3.351-1.053s-5.793,0.144-7.612,0.191s-2.298,1.819-2.298,1.819S6.402,16.236,6,17.71v7.822 C6.822,26.56,8.668,28.859,9.654,29.991z"/><ellipse cx="20.814" cy="23.083" fill="#212121" rx="2.131" ry="1.165" transform="rotate(-78.96 20.813 23.082)"/><path fill="#fff" d="M41.617,20.943c0,0-0.096-1.309-1.277-1.723c-1.22-0.429-6.575-1.851-6.575-1.851 s-1.755-0.351-3.287,0.383c0,0-6.734,3.287-7.755,3.894c-1.021,0.606-1.819,1.245-1.468,3.064s1.596,8.33,1.596,8.33 s0.287,1.532,1.723,2.106s6.287,2.872,6.287,2.872s1.66,1.277,4.085-0.191c1.704-1.031,5.15-3.036,7.053-4.139V23.603 L41.617,20.943z"/><path fill="#212121" d="M9.766,29.273c0.894,1.053,1.5-0.064,1.5-0.064s1.787-5.968,2.138-7.5 c0.351-1.532-0.862-2.521-0.862-2.521S9.67,16.22,8.585,15.103c-1.085-1.117-1.404,0.511-1.404,0.511S6.569,17.838,6,19.666v5.011 C7.094,25.946,9.12,28.512,9.766,29.273z"/><path fill="#212121" d="M10.085,13.634c0,0-1.596,0.223-0.734,1.149c0.862,0.926,3.798,3.894,3.798,3.894 s0.766,0.83,2.649,0.734c1.883-0.096,6.096-0.479,6.926-0.543c0.83-0.064,1.309-0.766,0.383-1.5 c-0.926-0.734-3.287-2.777-3.734-3.096c-0.447-0.319-1.66-0.798-2.872-0.83S10.085,13.634,10.085,13.634z"/><ellipse cx="8.386" cy="18.385" fill="#fff" rx="1.709" ry=".825" transform="rotate(-80.874 8.386 18.386)"/><ellipse cx="7.313" cy="22.647" fill="#fff" rx="1.709" ry=".825" transform="rotate(-80.874 7.313 22.648)"/><ellipse cx="11.158" cy="21.396" fill="#fff" rx="1.709" ry=".825" transform="rotate(-83.569 11.158 21.396)"/><ellipse cx="9.787" cy="25.39" fill="#fff" rx="1.709" ry=".825" transform="rotate(-83.569 9.787 25.39)"/><ellipse cx="16.201" cy="16.141" fill="#fff" rx="1.083" ry="2.131" transform="rotate(-80.137 16.201 16.142)"/><ellipse cx="15.484" cy="27.04" fill="#212121" rx="2.131" ry="1.165" transform="rotate(-78.96 15.483 27.04)"/><path fill="#212121" d="M30.981,18.173l-7.394,3.619c0,0-1.622,0.686-0.374,1.154c1.248,0.468,6.053,2.34,6.053,2.34 s1.591,0.468,2.964-0.343c1.373-0.811,6.271-3.588,7.051-4.056s1.123-1.154-0.062-1.466s-4.836-1.217-5.741-1.498 C32.848,17.728,31.605,17.861,30.981,18.173z"/><path fill="#212121" d="M22.809,23.541c0,0-1.34-0.842-0.935,1.247c0.405,2.088,1.465,7.419,1.59,8.042 c0.125,0.623,0.468,1.34,1.434,1.777c0.966,0.436,5.143,2.338,5.673,2.556s1.87,0.561,1.714-0.686 c-0.156-1.247-0.997-7.107-1.153-8.104c-0.156-0.997-0.623-1.808-1.933-2.369C27.89,25.443,22.809,23.541,22.809,23.541z"/><ellipse cx="37.392" cy="29.29" fill="#212121" rx="1.083" ry="2.131" transform="rotate(-12.761 37.387 29.292)"/><g><ellipse cx="39.531" cy="25.62" fill="#212121" rx="1.083" ry="2.131" transform="rotate(-12.761 39.526 25.622)"/></g><g><ellipse cx="35.701" cy="33.343" fill="#212121" rx="1.083" ry="2.131" transform="rotate(-12.761 35.696 33.345)"/></g><g><ellipse cx="26.585" cy="30.429" fill="#fff" rx=".978" ry="2.081" transform="rotate(-12.761 26.58 30.43)"/></g><g><ellipse cx="26.787" cy="21.839" fill="#fff" rx="1.436" ry=".738" transform="rotate(-13.295 26.78 21.836)"/></g><g><ellipse cx="30.656" cy="23.805" fill="#fff" rx="1.436" ry=".738" transform="rotate(-13.295 30.647 23.802)"/></g><g><ellipse cx="31.062" cy="21.402" fill="#fff" rx="1.436" ry=".738" transform="rotate(-13.295 31.053 21.4)"/></g><g><ellipse cx="35.991" cy="20.685" fill="#fff" rx="1.436" ry=".738" transform="rotate(-13.295 35.98 20.683)"/></g><g><ellipse cx="32.153" cy="19.125" fill="#fff" rx="1.436" ry=".738" transform="rotate(-13.295 32.144 19.123)"/></g></svg>