<svg xmlns="http://www.w3.org/2000/svg"  viewBox="0 0 48 48" width="1600px" height="1600px"><rect width="36" height="36" x="6" y="6" fill="#a4c408"/><polygon fill="#c3d56a" points="41.875,6 36.085,6 6,28.623 6,32.976"/><polygon fill="#c3d56a" points="32.758,6 26.969,6 6,21.768 6,26.121"/><polygon fill="#c3d56a" points="14.526,6 8.736,6 6,8.058 6,12.411"/><polygon fill="#c3d56a" points="42,12.76 42,8.407 6,35.478 6,39.831"/><polygon fill="#c3d56a" points="23.642,6 17.853,6 6,14.913 6,19.266"/><polygon fill="#c3d56a" points="42,19.616 42,15.262 6.443,42 12.232,42"/><polygon fill="#c3d56a" points="42,33.326 42,28.972 24.675,42 30.465,42"/><polygon fill="#c3d56a" points="42,40.181 42,35.828 33.791,42 39.58,42"/><polygon fill="#c3d56a" points="42,26.47 42,22.117 15.559,42 21.348,42"/><g><path fill="#fff" d="M27.048,36.916h-5.697c0.479-7.707,1.819-14.697,3.543-20.681h-7.707v-4.931h14.074 C29.011,21.645,27.307,29.696,27.048,36.916z"/></g></svg>