<svg xmlns="http://www.w3.org/2000/svg"  viewBox="0 0 48 48" width="1600px" height="1600px"><rect width="36" height="36" x="6" y="6" fill="#a4c408"/><polygon fill="#c3d56a" points="41.875,6 36.085,6 6,28.623 6,32.976"/><polygon fill="#c3d56a" points="32.758,6 26.969,6 6,21.768 6,26.121"/><polygon fill="#c3d56a" points="14.526,6 8.736,6 6,8.058 6,12.411"/><polygon fill="#c3d56a" points="42,12.76 42,8.407 6,35.478 6,39.831"/><polygon fill="#c3d56a" points="23.642,6 17.853,6 6,14.913 6,19.266"/><polygon fill="#c3d56a" points="42,19.616 42,15.262 6.443,42 12.232,42"/><polygon fill="#c3d56a" points="42,33.326 42,28.972 24.675,42 30.465,42"/><polygon fill="#c3d56a" points="42,40.181 42,35.828 33.791,42 39.58,42"/><polygon fill="#c3d56a" points="42,26.47 42,22.117 15.559,42 21.348,42"/><g><path fill="#fff" d="M22.162,19.084H16.92v-1.676c0,0-0.144-6.798,6.894-6.559c7.037,0.239,6.726,6.176,6.726,6.176v2.25 c0,0,0.048,2.92-2.298,3.949c2.178,1.34,2.657,2.92,2.657,4.739s0,2.489,0,2.489s0.168,6.846-6.415,6.846c-0.359,0-2.489,0-2.489,0 s-5.481-0.096-5.481-7.396c0.024-0.574,0-2.178,0-2.178h5.601v2.872c0,2.178,2.896,2.154,2.92-0.311c0.024-2.513,0-2.082,0-2.082 s0.191-2.681-1.819-2.681c-0.694,0.048-1.652,0-1.652,0v-4.261h1.58c0,0,1.819,0.144,1.819-1.939c0-0.718,0-1.221,0-1.221 s0.215-2.513-1.34-2.513c-1.245,0-1.436,1.125-1.436,1.556S22.162,19.084,22.162,19.084z"/></g></svg>