<svg xmlns="http://www.w3.org/2000/svg"  viewBox="0 0 48 48" width="1600px" height="1600px"><rect width="36" height="36" x="6" y="6" fill="#e2061a"/><polygon fill="#eb6d4b" points="41.875,6 36.085,6 6,28.623 6,32.976"/><polygon fill="#eb6d4b" points="32.758,6 26.969,6 6,21.768 6,26.121"/><polygon fill="#eb6d4b" points="14.526,6 8.736,6 6,8.058 6,12.411"/><polygon fill="#eb6d4b" points="42,12.76 42,8.407 6,35.478 6,39.831"/><polygon fill="#eb6d4b" points="23.642,6 17.853,6 6,14.913 6,19.266"/><polygon fill="#eb6d4b" points="42,19.616 42,15.262 6.443,42 12.232,42"/><polygon fill="#eb6d4b" points="42,33.326 42,28.972 24.675,42 30.465,42"/><polygon fill="#eb6d4b" points="42,40.181 42,35.828 33.791,42 39.58,42"/><polygon fill="#eb6d4b" points="42,26.47 42,22.117 15.559,42 21.348,42"/><g><path fill="#fff" d="M18.383,10.826l-4.356,0c-0.649,2.389-2.333,3.496-4.835,3.59l0,3.207l3.638-0.048v19.293h5.553 V10.826z"/></g><g><path fill="#fff" d="M35.15,23.41c1.436-1.19,2.35-2.986,2.35-4.996v-1.388c0-3.345-2.711-6.056-6.056-6.056h-1.628 c-3.345,0-6.056,2.711-6.056,6.056v1.388c0,2.01,0.915,3.806,2.35,4.996c-1.625,1.179-2.686,3.088-2.686,5.248v2.585 c0,3.345,2.711,6.056,6.056,6.056h2.298c3.345,0,6.056-2.711,6.056-6.056v-2.585C37.835,26.497,36.774,24.589,35.15,23.41z M30.638,15.565c0.828,0,1.5,0.827,1.5,3.032c0,2.343-0.672,3.032-1.5,3.032s-1.5-0.689-1.5-3.032 C29.138,16.365,29.81,15.565,30.638,15.565z M30.638,32.512c-0.925,0-1.676-0.762-1.676-3.351c0-2.468,0.75-3.351,1.676-3.351 c0.925,0,1.676,0.914,1.676,3.351C32.314,31.75,31.564,32.512,30.638,32.512z"/></g></svg>