<svg xmlns="http://www.w3.org/2000/svg"  viewBox="0 0 48 48" width="1600px" height="1600px"><rect width="36" height="36" x="6" y="6" fill="#f5a200"/><polygon fill="#fabe5d" points="41.875,6 36.085,6 6,28.623 6,32.976"/><polygon fill="#fabe5d" points="32.758,6 26.969,6 6,21.768 6,26.121"/><polygon fill="#fabe5d" points="14.526,6 8.736,6 6,8.058 6,12.411"/><polygon fill="#fabe5d" points="42,12.76 42,8.407 6,35.478 6,39.831"/><polygon fill="#fabe5d" points="23.642,6 17.853,6 6,14.913 6,19.266"/><polygon fill="#fabe5d" points="42,19.616 42,15.262 6.443,42 12.232,42"/><polygon fill="#fabe5d" points="42,33.326 42,28.972 24.675,42 30.465,42"/><polygon fill="#fabe5d" points="42,40.181 42,35.828 33.791,42 39.58,42"/><polygon fill="#fabe5d" points="42,26.47 42,22.117 15.559,42 21.348,42"/><g><path fill="#fff" d="M9.702,14.416v3.207l3.638-0.048v19.293h5.553V10.826h-4.356 C13.888,13.215,12.204,14.322,9.702,14.416z"/></g><g><path fill="#fff" d="M36.774,23.488c1.436-2.561,1.412-4.907,1.221-7.013c-0.192-2.106-2.154-5.888-7.899-5.553 c-5.745,0.335-6.08,6.558-6.08,6.558v2.394h5.338c0,0,0-0.622,0-1.771c0.072-2.633,3.184-2.609,3.136,0.335 c-0.026,1.627-1.245,3.495-1.245,3.495l-7.037,9.335v5.505h13.739v-5.362c0,0-5.553,0-7.564,0 C32.585,29.137,35.484,25.788,36.774,23.488z"/></g></svg>