<svg xmlns="http://www.w3.org/2000/svg"  viewBox="0 0 48 48" width="1600px" height="1600px"><rect width="36" height="36" x="6" y="6" fill="#212121"/><polygon fill="#424242" points="41.875,6 36.085,6 6,28.623 6,32.976"/><polygon fill="#424242" points="32.758,6 26.969,6 6,21.768 6,26.121"/><polygon fill="#424242" points="14.526,6 8.736,6 6,8.058 6,12.411"/><polygon fill="#424242" points="42,12.76 42,8.407 6,35.478 6,39.831"/><polygon fill="#424242" points="23.642,6 17.853,6 6,14.913 6,19.266"/><polygon fill="#424242" points="42,19.616 42,15.262 6.443,42 12.232,42"/><polygon fill="#424242" points="42,33.326 42,28.972 24.675,42 30.465,42"/><polygon fill="#424242" points="42,40.181 42,35.828 33.791,42 39.58,42"/><polygon fill="#424242" points="42,26.47 42,22.117 15.559,42 21.348,42"/><g><polygon fill="#fff" points="11.176,18.023 6.58,25.395 20.08,29.704 29.39,42 31.043,42 35.016,36.597 42,40.818 42,37.489 35.064,34.204 30.372,40.714 22.952,27.31 9.596,23.863 13.665,16.395 6.771,12.565 14.67,7.826 13.611,6 10.765,6 11.415,7.299 6,10.99 6,14.989"/></g><g><path fill="#212121" d="M17.422,42l3.998-5.068c0,0,1.676-1.867,3.543-2.106s5.84-1.867,8.09-3.495s5.649-6.654,5.649-6.654 s1.293-1.436,0.862-3.112c-0.431-1.676-2.729-2.489-2.729-2.489s0.862-1.388,0.192-2.729c-0.67-1.34-2.106-1.532-3.064-1.819 c0.096-0.622-0.144-1.723-1.101-2.633c-0.957-0.91-1.915-1.005-3.255-1.053c-0.957-2.058-2.92-2.298-3.734-2.441 c-0.814-0.144-2.729,1.436-3.495,1.915c-0.766,0.479-5.362,0.91-6.08,1.819c-0.718,0.91-2.681,8.282-3.064,10.915 c-0.383,2.633-1.676,4.309-1.676,4.309L6,31.377V42H17.422z"/></g><g><path fill="#fff" d="M24.723,10.794c0,0,0.383-1.388,1.484-1.34c1.101,0.048,1.915,0.67,2.202,1.149 s-0.335,1.293-0.766,1.723C26.926,11.847,24.723,10.794,24.723,10.794z"/></g><g><path fill="#fff" d="M28.745,13.14c0,0,0.91-1.819,2.106-1.34c1.197,0.479,2.011,1.149,2.011,2.106 s-1.293,1.771-1.293,1.771S29.606,13.427,28.745,13.14z"/></g><g><path fill="#fff" d="M33.149,15.725c0,0,1.149-0.335,2.154,0.335c1.005,0.67,1.101,1.58,0.191,2.633 c-0.91,1.053-3.734,4.165-4.596,4.883c-0.862,0.718-3.112-0.67-2.537-1.867c0.574-1.197,1.101-1.819,1.101-1.819 s2.968-0.048,2.824-2.824C32.862,16.299,33.149,15.725,33.149,15.725z"/></g><g><path fill="#fff" d="M25.681,17.113c0,0,0.431,1.771,1.915,2.154c-1.245,1.388-1.436,1.149-2.298,0.622 C24.436,19.363,23.957,18.501,25.681,17.113z"/></g><g><path fill="#fff" d="M36.404,20.704c0,0-4.356,3.112-5.074,5.362s1.388,3.016,2.154,1.963 c0.766-1.053,3.638-4.069,4.596-4.979S37.745,20.033,36.404,20.704z"/></g><g><path fill="#fff" d="M14.463,42c1.626-1.528,3.443-3.231,3.989-3.727c1.053-0.957,2.011-2.585,0.622-4.883 c1.628,0.048,6.654-0.479,8.043-1.245c1.388-0.766,1.58-1.771,0.862-2.394c-0.718-0.622-0.191-2.777,0.814-2.92 s1.532-0.479,0.957-1.34c-0.574-0.862-2.872-2.681-4.165-3.255c-1.293-0.574-1.819-0.287-2.968,0.479 c0.622,2.681-0.766,6.367-0.766,6.367s-0.383-0.048-0.718-0.239c0.527-1.34,0.91-5.505,0.91-5.505s-0.814-0.622-1.819-0.766 c0.527-2.92-1.005-4.883-1.005-4.883l0.814-2.777c0,0,1.101,1.053,1.963-0.144c1.532,1.293,4.356-0.144,4.356-0.144 s1.197,2.202,3.399,3.495s2.394-1.053,2.059-1.293c-0.335-0.239-3.973-3.878-5.84-4.739s-3.303-0.191-4.117-0.096 c-0.814,0.096-3.064,0.479-4.596,3.016s-2.729,8.282-2.537,10.723c-0.91,1.628,0,2.968,0.862,3.59 c-0.527,0.91-2.25,2.394-2.25,2.394L6,36.645V42H14.463z"/></g></svg>