<svg xmlns="http://www.w3.org/2000/svg"  viewBox="0 0 48 48" width="1600px" height="1600px"><rect width="36" height="36" x="6" y="6" fill="#f5a200"/><polygon fill="#fabe5d" points="41.875,6 36.085,6 6,28.623 6,32.976"/><polygon fill="#fabe5d" points="32.758,6 26.969,6 6,21.768 6,26.121"/><polygon fill="#fabe5d" points="14.526,6 8.736,6 6,8.058 6,12.411"/><polygon fill="#fabe5d" points="42,12.76 42,8.407 6,35.478 6,39.831"/><polygon fill="#fabe5d" points="23.642,6 17.853,6 6,14.913 6,19.266"/><polygon fill="#fabe5d" points="42,19.616 42,15.262 6.443,42 12.232,42"/><polygon fill="#fabe5d" points="42,33.326 42,28.972 24.675,42 30.465,42"/><polygon fill="#fabe5d" points="42,40.181 42,35.828 33.791,42 39.58,42"/><polygon fill="#fabe5d" points="42,26.47 42,22.117 15.559,42 21.348,42"/><g><path fill="#fff" d="M18.42,10.826l-4.356,0c-0.649,2.389-2.333,3.496-4.835,3.59v3.207l3.638-0.048v19.293h5.553V10.826 z"/></g><g><path fill="#fff" d="M37.936,27.198c-0.255-8.585-6.798-7.468-8.617-5.17c0,0,0.064-1.117,0.064-4.245 c0-3.064,3.064-2.521,3.064-0.734l0,1.404c0,0,3.223,0,5.234,0c0.009-1.116-0.028-2.184-0.223-3 c-1.053-4.404-5.617-4.596-5.617-4.596s-0.925,0-1.468,0c-6.191,0-6.798,6.798-6.798,9c0,0,0,5.84,0,7.851 c-0.141,10.025,6.303,9.511,6.686,9.511c0,0,0.527,0,1.293,0c6.75,0,6.383-7.34,6.383-7.34S37.968,28.507,37.936,27.198z M30.963,32.368c-0.925,0-1.676-0.798-1.676-3.511c0-2.585,0.75-3.511,1.676-3.511s1.676,0.957,1.676,3.511 C32.638,31.571,31.888,32.368,30.963,32.368z"/></g></svg>