<svg xmlns="http://www.w3.org/2000/svg"  viewBox="0 0 48 48" width="1600px" height="1600px"><path fill="#263238" d="M39,43H9c-2.209,0-4-1.791-4-4V9c0-2.209,1.791-4,4-4h30c2.209,0,4,1.791,4,4v30	C43,41.209,41.209,43,39,43z"/><path fill="#fff" d="M33,12.083h-1V11h-1.375v-0.625H30V10h-0.792V9.542h-1.125V9.404H28V9h-1.417V8.625H25.25v-0.5H24V8	h-2v0.25h-1.458v0.542H19.75V9h-1.125v0.38l-0.417,0.037l-0.132,0.25h-0.409v0.75h0.656v-0.304l0.302-0.007v0.52l-1.33,1.666H17	V13.5h1.333v-0.991L18.7,12h0.842v2.208H20v1.375h0.625v3H21V24h-1.042h-1.125v0.5h1.125V25h1.21v2.583H21.5V29H21v1h0.5v0.875	h0.417v3.5h0.333v-1.5h0.25v3.396h0.271v2.792h0.417v1.5h0.5v-3.042h-0.417v-1.5H23v-3.146v-0.646V30h-0.5v-1H23v-1h-0.5v-0.417	h0.249V25H23v-0.042V24.5h0.833v-0.375L24.458,24l0.496-0.583h0.489c-0.439,0.547-0.735,0.917-0.735,0.917H25.5l3.417-3.583	l-1.333,2.333h0.542l2.625-3.5v-1.208l0.833-0.167v-0.25H32V16.5h0.417v-1.333h0.292V14H33V12.083z M22.042,15v-2h-0.5v-2.033H22.5	V15H22.042z M24.5,8.792V9h-1.958V8.797H24V8.792H24.5z M24.292,23.542H23V18h0.375v-1.917H23.5V12H24v-1.033h4V12h1v-0.458h1v4.654	l-1.25,1.513v0.542l-1.042,0.792v0.5l-0.828,0.667h-0.006v0.005l-0.667,0.537v0.75l-1.33,1.417h-0.003v0.004L24.292,23.542z M25.379,22.917l1.912-2.25h0.371c-0.605,0.745-1.269,1.568-1.817,2.25H25.379z M29.333,18.667	c-0.042,0.014-0.594,0.678-1.298,1.542H27.68l1.487-1.75C29.167,18.458,29.458,18.625,29.333,18.667z"/></svg>