<svg xmlns="http://www.w3.org/2000/svg"  viewBox="0 0 48 48" width="1600px" height="1600px" baseProfile="basic"><path fill="#26a69a" d="M39.853,22.475c-1.307-0.467-2.646-0.749-3.577-0.906c-0.143,0.307-0.329,0.581-0.535,0.838 C35.91,23.245,36,24.112,36,25c0,1.197-0.175,2.351-0.478,3.451c0.941,0.306,1.905,0.479,2.911,0.479 c0.331,0,0.625-0.023,0.926-0.041C39.771,27.497,40,26.026,40,24.5C40,23.812,39.94,23.139,39.853,22.475z"/><path fill="#26a69a" d="M31.987,34.379C29.652,36.617,26.49,38,23,38c-7.18,0-13-5.82-13-13s5.82-13,13-13 c2.826,0,5.433,0.911,7.566,2.443c2.46-0.376,4.463,0.403,5.462,2.112c0.668,0.065,1.303,0.15,1.914,0.25 C35.269,12.146,30.257,9,24.5,9C15.94,9,9,15.94,9,24.5S15.94,40,24.5,40c4.375,0,8.319-1.82,11.137-4.735 C34.354,35.105,33.143,34.796,31.987,34.379z"/><path fill="#26a69a" d="M34.992,17.977c-0.717-2.291-3.247-2.365-5.069-1.877c-0.874,0.234-4.371,0.552-5.607-0.797	c0.521,2.116,3.186,5.458,6.71,5.52c-0.96,0.961-1.593,0.675-1.593,0.675c1.687,1.51,5.391,1.552,5.727-1.595	c2.611,0.248,10.389,1.704,10.389,6.685c0,1.922-2.298,3.843-7.149,3.843c-9.6,0-15.36-13.452-27.84-13.452	C2.471,16.979,0,21.466,0,25.626c0,3.598,4.26,9.528,12.869,9.001c-1.634-1.431-2.989-5.266-2.989-5.266	c-1.063,0.169-5.166-1.077-5.08-3.735c0.093-2.881,3.84-3.843,5.76-3.843c10.56,0,16.32,12.491,27.574,12.103	C45.139,33.644,48,29.47,48,26.587C48,23.745,45.451,18.705,34.992,17.977z"/></svg>