<svg xmlns="http://www.w3.org/2000/svg"  viewBox="0 0 48 48" width="1600px" height="1600px"><path fill="#1565C0" d="M40.633 29.026c-2.4-.806-4.802-1.07-7.041-.961-2.069.041-4.219.421-6.43 1.122l-.777.277 5.844 1.827 1.577-.565c0 0 .727-.258 1.491-.369.979-.143 1.975.104 1.975.104.557.132.854.265.961.533.104.32-.268.585-1.068.854l-1.426.541 5.566 1.741c1.916-.768 2.789-1.588 2.688-2.601C43.938 30.517 42.763 29.72 40.633 29.026zM22.001 28.094L22.001 25 17.12 26.566z"/><path fill="#FF9800" d="M18.717 32.194l-1.364.485-1.249.451-1.335.53c0 0-1.203.362-2.236.429s-2.133-.269-2.133-.269c-.447-.165-.536-.531-.267-.797.267-.161.639-.375 1.066-.537l1.438-.529 2.561-.864-5.774-1.806-1.051.377-1.333.534c-2.026.853-3.093 1.759-3.039 2.559.105 1.17 1.44 2.023 3.84 2.667 3.115.84 6.28 1.014 9.513.527 0 0 2.543-.483 7.101-1.963L18.717 32.194zM28.316 35.196L25.605 36.222 25.605 40 30.929 37.929 33.797 36.91z"/><g><path fill="#00BCD4" d="M22.001 28.094L17.121 26.566 16.106 26.893 9.425 29.288 15.199 31.094 22.001 28.8zM32.229 31.292l-5.844-1.827-7.668 2.729 5.739 1.795c.837-.272 1.735-.574 2.706-.917 1.051-.368 4.402-1.542 4.402-1.542L32.229 31.292zM35.738 32.39l-.547.207-6.875 2.6 5.48 1.714 6.142-2.181 1.065-.477c.107-.04.199-.081.301-.122L35.738 32.39z"/></g><path fill="#F44336" d="M34.203,14.323c-1.123-1.515-3.094-2.751-6.017-3.764C24.539,9.378,21.472,8.52,19.001,8v29.978L25.604,40V15.057c0-0.673,0.057-1.126,0.336-1.408c0.281-0.39,0.564-0.444,0.957-0.278c0.953,0.278,1.404,1.127,1.404,2.528v10.228c2.137,1.014,4.049,1.123,5.451,0.06c1.462-1.014,2.249-2.813,2.249-5.509C36.001,17.868,35.439,15.733,34.203,14.323z"/></svg>