<svg xmlns="http://www.w3.org/2000/svg"  viewBox="0 0 48 48" width="1600px" height="1600px"><path fill="#546e7a" d="M12,40V8c0-2.209,1.791-4,4-4h16c2.209,0,4,1.791,4,4v32c0,2.209-1.791,4-4,4H16 C13.791,44,12,42.209,12,40z"/><path fill="#90caf9" d="M32,7H16c-0.552,0-1,0.448-1,1v29c0,0.552,0.448,1,1,1h16c0.552,0,1-0.448,1-1V8 C33,7.448,32.552,7,32,7z"/><path fill="#37474f" d="M21 40H27V42H21z"/><path fill="#fff" d="M24 17A6 6 0 1 0 24 29A6 6 0 1 0 24 17Z"/><path fill="#ff3d00" d="M30,23H18c0-3.314,2.686-6,6-6S30,19.686,30,23z"/><path fill="#455a64" d="M18,23c0,0.341,0.035,0.674,0.09,1h11.82c0.055-0.326,0.09-0.659,0.09-1s-0.035-0.674-0.09-1H18.09 C18.035,22.326,18,22.659,18,23z"/><path fill="#455a64" d="M24 20A3 3 0 1 0 24 26A3 3 0 1 0 24 20Z"/><path fill="#fff" d="M24 22A1 1 0 1 0 24 24A1 1 0 1 0 24 22Z"/></svg>