<svg xmlns="http://www.w3.org/2000/svg"  viewBox="0 0 48 48" width="1600px" height="1600px"><path fill="#4bcbaf" d="M5,42c0,0,38,0,38,0c0-10-5-24-5-24l2-6h-7l-5-4l-7-1l-7,5H8l2,6C10,18,4,32,5,42z"/><ellipse cx="19" cy="20.5" fill="#fff" rx="4" ry="4.5"/><ellipse cx="28" cy="20.5" fill="#fff" rx="4" ry="4.5"/><ellipse cx="19" cy="20.5" fill="#4bcbaf" rx="2" ry="2.5"/><ellipse cx="28" cy="20.5" fill="#4bcbaf" rx="2" ry="2.5"/><ellipse cx="19" cy="20.5" fill="#263238" rx="1" ry="1.5"/><ellipse cx="28" cy="20.5" fill="#263238" rx="1" ry="1.5"/><circle cx="18" cy="19" r="1" fill="#fff"/><circle cx="27" cy="19" r="1" fill="#fff"/><path fill="#fff" d="M19.993,30c0,0,0.236-5.236-2-3c-1,1-1,3-1,3"/><path fill="#455a64" d="M39.193,17.981c0.838-1.402,2.425-4.557,1.049-6.416c-0.993-1.341-3.073-1.523-6.342-0.574	c-0.817-0.784-1.907-1.594-3.303-2.208c0.168-0.129,0.307-0.3,0.367-0.52c0.145-0.532-0.169-1.082-0.702-1.228	C25.222,5.66,21.464,5.708,19.09,7.174C17.848,7.941,17.34,8.89,17.14,9.417c-1.182,0.368-2.128,0.949-2.872,1.62	c-3.37-1.009-5.501-0.836-6.51,0.529c-1.396,1.887,0.257,5.104,1.084,6.475C4.056,27.191,4,41.389,4,42h2	c0-0.147,0.06-14.85,4.874-23.515c0.182-0.326,0.166-0.728-0.042-1.039c-0.98-1.475-2.035-3.925-1.467-4.691	c0.287-0.385,1.362-0.564,3.502-0.028c-0.456,0.752-0.731,1.491-0.848,2.076c-0.108,0.539,0.241,1.062,0.779,1.173	c0.067,0.014,0.135,0.021,0.202,0.021c0.463,0,0.879-0.325,0.979-0.795C14.016,15.03,14.929,11,20,11c0.552,0,1-0.447,1-1	s-0.448-1-1-1c-0.015,0-0.027,0.002-0.042,0.002c0.084-0.059,0.167-0.118,0.265-0.176c1.089-0.636,3.161-1.153,7-0.44	c-0.095,0.121-0.172,0.257-0.204,0.418c-0.108,0.542,0.243,1.068,0.784,1.177c4.428,0.886,6.228,4.321,6.304,4.47	c0.176,0.349,0.528,0.55,0.894,0.55c0.15,0,0.303-0.034,0.446-0.105c0.494-0.247,0.694-0.848,0.447-1.342	c-0.024-0.048-0.202-0.389-0.544-0.878c1.994-0.469,3.006-0.292,3.283,0.08c0.568,0.767-0.487,3.217-1.467,4.691	c-0.229,0.345-0.222,0.797,0.019,1.135C41.941,25.238,42,41.833,42,42h2C44,41.311,43.944,25.431,39.193,17.981z"/><path fill="#80e1c5" d="M34,25l-0.251-0.057c-0.003,0.019-0.01,0.038-0.014,0.057H34z"/><path fill="#80e1c5" d="M35,30l2,1c0-2-2-3-2-3l2-1c-1.9-0.633-3.039-1.327-3-2c-0.426,1.548-1.023,4.958-4.989,4.796 c-0.567-0.023-10.454-0.023-11.021,0C14.023,29.958,13.426,26.548,13,25c0.039,0.673-1.1,1.367-3,2l2,1c0,0-2,1-2,3l2-1 c0,0-3,2-2,5c0,0,1-1,2-1c0,0-2,3-1,7l2-2l-0.6,3H23h1h10.6L34,39l2,2c1-4-1-7-1-7c1,0,2,1,2,1C38,32,35,30,35,30z"/><g><path fill="#455a64" d="M13,24c0.279,0.572,0.314,1.115,0.577,1.619c0.241,0.497,0.505,0.97,0.855,1.375 c0.672,0.826,1.554,1.424,2.496,1.772c0.478,0.158,0.966,0.264,1.46,0.303c0.256,0.017,0.472,0.016,0.762,0.01l0.87-0.031 c1.16-0.036,2.32-0.029,3.481-0.046l3.481,0.052l0.87,0.037c0.29,0.007,0.507,0.011,0.765-0.004 c0.496-0.033,0.983-0.15,1.467-0.298C32,28.124,33.592,26.331,34,24c0.213,1.164,0,2.433-0.577,3.556 c-0.593,1.112-1.543,2.067-2.721,2.657c-0.587,0.292-1.221,0.512-1.88,0.606c-0.318,0.05-0.683,0.074-0.972,0.09l-0.87,0.037 L23.5,30.998c-1.16-0.017-2.32-0.01-3.481-0.046l-0.87-0.031c-0.289-0.014-0.655-0.036-0.974-0.084 c-0.662-0.087-1.296-0.319-1.888-0.601C13.927,29.091,12.402,26.375,13,24z"/></g></svg>