<svg xmlns="http://www.w3.org/2000/svg"  viewBox="0 0 48 48" width="1600px" height="1600px"><rect width="6" height="7" x="6" y="33" fill="#5c6bc0"/><rect width="5" height="7" x="12" y="33" fill="#ffca28"/><rect width="5" height="7" x="17" y="33" fill="#5c6bc0"/><rect width="5" height="7" x="22" y="33" fill="#ffca28"/><rect width="5" height="5" x="7" y="20" fill="#1a237e"/><rect width="5" height="5" x="7" y="10" fill="#29b6f6"/><rect width="5" height="5" x="17" y="15" fill="#ffa000"/><rect width="5" height="5" x="17" y="5" fill="#bf360c"/><rect width="5" height="5" x="37" y="5" fill="#ffa000"/><rect width="5" height="5" x="27" y="20" fill="#29b6f6"/><rect width="5" height="5" x="27" y="10" fill="#1a237e"/><rect width="5" height="5" x="37" y="15" fill="#bf360c"/><path fill="#424242" d="M2,29v5v5v5h3.25H7h40v-5v-5v-5H2z M42,39H7v-5h35V39z"/></svg>