<svg xmlns="http://www.w3.org/2000/svg"  viewBox="0 0 48 48" width="1600px" height="1600px" baseProfile="basic"><linearGradient id="cIP3XZZmITQ_Pq-s5n4dWa" x1="7.49" x2="7.49" y1="29.001" y2="18.999" gradientUnits="userSpaceOnUse"><stop offset="0" stop-color="#0cc7de"/><stop offset="1" stop-color="#2553e6"/></linearGradient><polygon fill="url(#cIP3XZZmITQ_Pq-s5n4dWa)" points="1.95,29.001 0,29.001 0,22.997 12.989,22.995 12.989,21.001 0,21.003 0,18.999 14.981,18.999 14.981,25.003 1.969,25.003"/><linearGradient id="cIP3XZZmITQ_Pq-s5n4dWb" x1="40.5" x2="40.5" y1="29" y2="19" gradientUnits="userSpaceOnUse"><stop offset="0" stop-color="#0cc7de"/><stop offset="1" stop-color="#2553e6"/></linearGradient><polygon fill="url(#cIP3XZZmITQ_Pq-s5n4dWb)" points="48,28.998 33,29 33,23.002 45.998,23 45.998,20.994 33,21 33,19.02 48,19 48,25.012 34.979,24.984 34.979,27.007 48,27.007"/><linearGradient id="cIP3XZZmITQ_Pq-s5n4dWc" x1="23" x2="23" y1="28.999" y2="19.001" gradientUnits="userSpaceOnUse"><stop offset="0" stop-color="#0cc7de"/><stop offset="1" stop-color="#2553e6"/></linearGradient><polygon fill="url(#cIP3XZZmITQ_Pq-s5n4dWc)" points="23.992,28.999 15,28.992 15,27 22.006,27.007 22.006,19.001 31,19.006 31,21 24.01,20.995"/></svg>