<svg xmlns="http://www.w3.org/2000/svg"  viewBox="0 0 48 48" width="1600px" height="1600px"><path fill="#1565c0" d="M2 30H0v-4c0-1.654 1.346-3 3-3h9.5c.827 0 1.5-.673 1.5-1.5S13.327 20 12.5 20H0v-2h12.5c1.93 0 3.5 1.57 3.5 3.5S14.43 25 12.5 25H3c-.551 0-1 .448-1 1V30zM46.942 24C47.593 23.364 48 22.48 48 21.5c0-1.93-1.57-3.5-3.5-3.5H34v2h10.5c.827 0 1.5.673 1.5 1.5S45.327 23 44.5 23H34v2h10.5c.827 0 1.5.673 1.5 1.5S45.327 28 44.5 28H34v2h10.5c1.93 0 3.5-1.57 3.5-3.5C48 25.52 47.593 24.636 46.942 24zM21 30h-7v-2h7c.551 0 1-.448 1-1v-6c0-1.654 1.346-3 3-3h7v2h-7c-.551 0-1 .448-1 1v6C24 28.654 22.654 30 21 30z"/></svg>