<svg xmlns="http://www.w3.org/2000/svg"  viewBox="0 0 48 48" width="1600px" height="1600px"><path fill="#1565c0" d="M2 30H0v-4c0-1.654 1.346-3 3-3h9.5c.827 0 1.5-.673 1.5-1.5S13.327 20 12.5 20H0v-2h12.5c1.93 0 3.5 1.57 3.5 3.5S14.43 25 12.5 25H3c-.551 0-1 .448-1 1V30zM21 30h-7v-2h7c.551 0 1-.448 1-1v-6c0-1.654 1.346-3 3-3h7v2h-7c-.551 0-1 .448-1 1v6C24 28.654 22.654 30 21 30zM46 30h-2v-2H32c-.447 0-.84-.297-.962-.728-.122-.431.057-.89.438-1.124l13-8c.307-.189.696-.199 1.012-.021C45.804 18.304 46 18.638 46 19v7h2v2h-2V30zM35.533 26H44v-5.21L35.533 26z"/></svg>