<svg xmlns="http://www.w3.org/2000/svg"  viewBox="0 0 42 37" width="1600px" height="1600px"><g data-name="Слой 2"><path fill="#ffc107" d="M1.257,12.566v.185l.241.342-.241.31v6.778A.751.751,0,0,0,2,20.939H3.72a.751.751,0,0,0,.743-.758V12.566H6.621v-.007H7.913A1.5,1.5,0,0,0,9.4,11.044V1.522A1.5,1.5,0,0,0,7.913.007H1.752a.5.5,0,0,0-.5.505V4.895l.346.353-.346.567V9.5a.4.4,0,0,0-.4.406V12.16A.4.4,0,0,0,1.257,12.566ZM4.463,8.679V3.11a.25.25,0,0,1,.247-.253H5.85A.25.25,0,0,1,6.1,3.11V8.636l.252,0-.024.545-.228,0a.314.314,0,0,1-.311.318H4.774a.314.314,0,0,1-.311-.318L4.18,8.957Z"/><path fill="#ffc107" d="M13.075,20.96h5.736A1.5,1.5,0,0,0,20.3,19.445V2.971l-.244-.523.244-.556V1.518l-.166-.177.166-.3v-.5a.5.5,0,0,0-.5-.5H17.586a.5.5,0,0,0-.495.5V13.307l-.13.492.13.406v3.361a.5.5,0,0,1-.5.505l-.242-.285-1.017.149-.046.136a.5.5,0,0,1-.5-.505V.533a.5.5,0,0,0-.495-.5H12.085a.5.5,0,0,0-.5.5V19.445A1.5,1.5,0,0,0,13.075,20.96Z"/><path fill="#ffc107" d="M22.3,11.319v9.115a.5.5,0,0,0,.5.5h5.941a1.5,1.5,0,0,0,1.484-1.515V11.461l0-.307a1.727,1.727,0,0,0-.92-1.5l.142-.109a2.03,2.03,0,0,0,.783-1.513V7.215l-.129-.471.129-.534-.233-.492.233-.577V1.017a1,1,0,0,0-.989-1.01H22.792a.5.5,0,0,0-.5.505V5.12l.185.641-.185.364V7.493l.311.406-.311.62a.4.4,0,0,0-.4.406v1.988A.4.4,0,0,0,22.3,11.319ZM25.5,3.311a.5.5,0,0,1,.5-.5h.519a.5.5,0,0,1,.5.5V8.519h-.926L25.9,8.284,25.5,8.219Zm0,8.513a.5.5,0,0,1,.5-.5h.519a.5.5,0,0,1,.5.5V15.53l.248.449-.248.321v1.341c0,.048.134.063.143.129a.561.561,0,0,1-.147.326.474.474,0,0,1-.293.106.519.519,0,0,1-.2-.056H26a.5.5,0,0,1-.5-.505Z"/><path fill="#ffc107" d="M33.84,20.939h5.076A1.5,1.5,0,0,0,40.4,19.424V8.766a.5.5,0,0,0-.5-.505l-2.686,0a.5.5,0,0,0-.495.505v1.79a.5.5,0,0,0,.495.505h.118v6.151l.21.1a2.46,2.46,0,0,1-.22.769c-.027.03-.175-.093-.207-.071a.488.488,0,0,1-.278.087h-.788a.5.5,0,0,1-.495-.5V3.655l-.118-.491a.45.45,0,0,1,.2-.4c.079-.054.312.038.414.038h1.071a.5.5,0,0,1,.5.5V4.572a.5.5,0,0,0,.495.5h1.79a.5.5,0,0,0,.5-.5V1.262A1.25,1.25,0,0,0,39.163,0H37.621V.005H34.336v0h-.744A1.25,1.25,0,0,0,32.355,1.27V19.424A1.5,1.5,0,0,0,33.84,20.939Z"/><polygon fill="#ffc107" points="6.181 34.032 9.733 34.032 9.733 32.461 7.721 32.461 7.721 25.973 6.181 25.973 6.181 34.032"/><rect width="1.54" height="8.006" x="15.442" y="25.973" fill="#ffc107"/><polygon fill="#ffc107" points="24.033 33.979 25.573 33.979 25.573 27.48 26.82 27.48 26.82 25.978 25.573 25.978 25.573 25.973 24.033 25.973 24.033 25.978 22.917 25.978 22.917 27.48 24.033 27.48 24.033 33.979"/><polygon fill="#ffc107" points="32.414 33.979 32.561 33.979 33.954 33.979 35.405 33.979 35.405 32.512 33.954 32.512 33.954 30.419 35.358 30.419 35.358 29.073 33.954 29.073 33.954 27.48 35.494 27.48 35.494 25.978 33.954 25.978 33.954 25.973 32.414 25.973 32.414 29.073 32.246 29.073 32.246 30.419 32.414 30.419 32.414 33.979"/><path fill="#ffc107" d="M41.753,26.646A.25.25,0,0,0,42,26.394v-.81a.25.25,0,0,0-.247-.252h-.909V23.4a.706.706,0,0,0-.7-.713H1.7A.706.706,0,0,0,1,23.4v1.935H.247A.25.25,0,0,0,0,25.584v.81a.25.25,0,0,0,.247.252H1v6.317H.247A.25.25,0,0,0,0,33.216v.809a.25.25,0,0,0,.247.253H1v2.009A.705.705,0,0,0,1.7,37H40.146a.706.706,0,0,0,.7-.713V34.278h.909A.25.25,0,0,0,42,34.025v-.809a.25.25,0,0,0-.247-.253h-.909V26.646Zm-2.306,8.929H2.4V24.11H39.447Z"/></g></svg>