<svg xmlns="http://www.w3.org/2000/svg"  viewBox="0 0 48 48" width="1600px" height="1600px"><circle cx="24" cy="24" r="20" fill="#64dd17"/><path fill="#212121" d="M14.014,34.196c-1.911-2.312-2.964-5.241-2.964-8.246C11.05,18.81,16.859,13,24,13 s12.95,5.81,12.95,12.95c0,3.001-1.051,5.927-2.959,8.238l-2.621-2.164c1.405-1.704,2.18-3.86,2.18-6.074 c0-5.266-4.284-9.55-9.55-9.55s-9.55,4.284-9.55,9.55c0,2.216,0.775,4.375,2.185,6.08L14.014,34.196z"/><path fill="#212121" d="M24,31c-2.757,0-5-2.243-5-5s2.243-5,5-5s5,2.243,5,5S26.757,31,24,31z M24,24.35 c-0.91,0-1.65,0.74-1.65,1.65s0.74,1.65,1.65,1.65s1.65-0.74,1.65-1.65S24.91,24.35,24,24.35z"/><polygon fill="#212121" points="26.414,22.446 31.821,21.648 28.275,26.081"/></svg>