<svg xmlns="http://www.w3.org/2000/svg"  viewBox="0 0 48 48" width="1600px" height="1600px"><path fill="#fff" d="M22.764,18.338c0,0,0.956,0.074,1.765,1.103l-0.441,0.074l-0.221-0.074	C23.867,19.441,23.206,18.632,22.764,18.338z M21.294,22.897l-0.441-1.103h-0.147l-0.735,0.882	C20.485,23.118,21.294,22.897,21.294,22.897z M28.058,16.426l-0.368,0.147l0.441,0.809l1.471,0.515	C29.014,16.647,28.058,16.426,28.058,16.426z M23.867,17.971c0.441,0.515,0.882,1.25,0.882,1.25	c0.735-0.735,2.279-1.029,4.265-0.956C26.22,17.676,23.867,17.971,23.867,17.971z M21.147,16.868c0,0,0.809,0,1.912,0.221	c-0.735-0.515-1.912-0.809-1.912-0.809V16.868z M27.911,20.912l-1.25,1.103l0.956,0.294l0.956-1.029l-0.515-0.221L27.911,20.912	L27.911,20.912z M19.603,15.103c0,0,0.515,0.294,0.588,0.294s1.103,0.368,1.544,0.515c0.368,0.147,0.588,0,0.662,0	s1.324-0.735,1.324-0.735c-1.103-0.441-2.132-0.735-2.132-0.735C21.514,14.441,19.603,15.103,19.603,15.103z M27.103,15.765	c-0.074-0.147-0.221-0.147-1.103-0.294c-0.809-0.074-1.544-0.147-1.691-0.147c-0.147,0-0.221,0.074-0.221,0.074	s-0.441,0.294-0.809,0.515c-0.368,0.221-0.441,0.294-0.515,0.441c-0.074,0.074,0.147,0.368,0.147,0.368l0.588,0.735	c0.074,0,0.294,0.147,0.294,0.147s1.176-0.074,1.912-0.147h1.912c0.074,0,0-0.294-0.147-0.662	C27.323,16.5,27.103,15.765,27.103,15.765z M20.117,16.574c0,0,0.074,0,0.221,0.074c0.147,0,0.221-0.147,0.221-0.294	c0-0.221-0.221-0.294-0.221-0.294h-0.147l-0.221,0.074l-0.074,0.515h0.074L20.117,16.574c-0.074-0.147-0.074-0.221-0.074-0.368	c0-0.074,0.147-0.221,0.221-0.221c0,0,0.147,0,0.074,0.294C20.338,16.574,20.117,16.574,20.117,16.574z M32.544,22.382l-0.588,0.809	v0.074h0.809C32.911,22.75,32.544,22.382,32.544,22.382z M17.838,18.559h-0.147l-0.368-0.074c-0.368-0.074-0.221-0.735-0.221-0.735	l-0.441,0.147c-0.147-0.294-0.809-1.103-0.809-1.103l-0.147,0.588c0.074,0.074,0.441,0.662,0.515,0.809L16,18.412	c0,0-0.074,0.147-0.074,0.221s-0.074,0.147-0.074,0.147l-0.294,0.147h-0.074l-1.029-0.809v0.588h0.074	c0.074,0.147,0.221,0.441,0.588,0.588c0.294,0.147,0.662,0.147,0.809,0.074c0.147,0.074,0.221,0.074,0.294,0.147	c0.294,0.147,0.368,0.074,0.368,0.074l0.441-0.147h0.074l0.074-0.074l0.147-0.294c0,0,0.735,0.074,1.029,0.074	c0.294-0.441,1.25-1.103,1.912-1.176c0.662,0,1.765,0.147,2.647,1.029c0.809,0.882,0.588,2.059,0.588,2.059l1.618,0.515	l-0.735-0.515c-0.588-1.471-1.985-2.794-1.985-2.794s-0.368-0.074-0.588-0.074c-0.221-0.074-0.368-0.221-0.368-0.221	s-0.074-0.074-0.221-0.294l-0.147-0.294c0,0-0.147-0.147-0.368-0.294c-0.221-0.147-1.029-0.221-1.471-0.294	c-0.441-0.074-0.441,0-0.441,0c1.25,0.294,1.618,0.368,1.691,0.441c0,0,0.074,0.147,0.147,0.221c-1.029-0.221-1.985-0.074-2.206,0	c0.147,0.221,0.147,0.515,0,0.735C18.279,18.338,17.838,18.559,17.838,18.559z M31.808,23.853l0.221,0.956	c0,0,0.221-0.221,0.441-0.515s0.294-0.588,0.294-0.588l-0.882,0.074L31.808,23.853z M14.088,17.162l-0.074,0.809h0.441l0.074-0.515	v0.294h0.074v-0.441h-0.074v-0.294l0.662,0.368l0.074,0.147l0.147,0.147h0.147l0.074-0.074v-0.074c-0.441,0-0.441-0.221-0.441-0.221	s0.074-0.515,0.147-0.662c0.074-0.147,0.368-0.074,0.368-0.074L15.632,16.5h-0.147c-0.147-0.074-0.588-0.368-0.735-0.441v-0.074	l0.074-0.074v-0.294h0.074c0-0.074,0.074-0.074,0.074-0.147c0.147,0,1.25-0.221,1.25-0.221l-1.029-0.221v-0.074	c-0.294-0.074-0.515-0.147-0.662-0.221c-0.368,0.441-0.515,1.029-0.515,1.029s-0.074,1.029-0.074,1.176	C13.867,17.088,14.088,17.162,14.088,17.162L14.088,17.162z M31.367,22.971l0.147,0.221l0.074-0.074l0.588-0.735v-0.074	C31.882,22.309,31.367,22.971,31.367,22.971z M29.603,21.647L29.161,21.5l-1.029,1.176l0.735,0.221	C29.014,22.309,29.603,21.647,29.603,21.647z M31.147,23.338c-0.368,0.735-0.294,1.25-0.294,1.25l0.368-0.809v-0.147	C31.294,23.632,31.22,23.485,31.147,23.338z M30.779,18.559c0,0-0.147,0.294-0.221,0.368c-0.074,0.074-0.588,0.147-0.882,0.221	c-0.294,0.147-0.809,0.368-0.956,0.515c-0.074,0.074-0.074,0.294-0.074,0.368c0,0,0.147,0.074,0.221,0.074l-0.662,0.588l0.147,0.147	l1.618,0.515c0.368-0.294,0.882-0.368,0.882-0.368c-0.294-0.147-1.544-0.662-1.912-0.809c0,0-0.221-0.074-0.221-0.147v-0.221	c0,0,0.956-0.735,2.426-0.735l0.221-0.441L30.779,18.559z M31.735,25.029l-0.294-0.882h-0.074l-0.441,0.809L31,25.029	C31.367,25.176,31.735,25.029,31.735,25.029z M20.632,16.647l0.221,0.074c0,0,0.147,0,0.147-0.147v-0.294l-0.221-0.147l-0.294-0.074	c0.074,0.074,0.074,0.147,0.074,0.147h0.074c0-0.074,0.074-0.074,0.074,0c0,0,0.147,0.074,0.074,0.294	C20.853,16.574,20.706,16.647,20.632,16.647z M19.97,20.691c-0.515,0.956-0.147,1.618-0.147,1.618l0.662-0.956v-0.147L19.97,20.691z M15.191,15.029l0.882,0.221c0.074,0,0.588-0.074,0.588-0.074l-1.397-0.368L15.191,15.029z M15.706,14.809	c1.176,0.147,1.397,0.368,1.397,0.368s0.441-0.074,0.662-0.074c-0.368-0.294-1.985-0.809-1.985-0.809S15.706,14.515,15.706,14.809z M17.47,17.088c-0.221,0.147-0.441,0.588-0.368,0.956c0.074,0.368,0.147,0.368,0.368,0.368c-0.368-0.147-0.294-0.735,0-1.103	c0.221-0.294,0.441-0.074,0.441-0.074S17.691,16.941,17.47,17.088z M12.25,27.971c-0.956,0-2.059,0.368-1.397,1.397	c5.441,9.338,11.176,11.544,13.603,12.721c1.103-0.515,2.868-1.324,5-2.794c1.25-0.809,1.103-2.059,0.809-2.868	C28.72,32.603,20.264,28.265,12.25,27.971z M42.911,10.544C40.706,9,35.264,6.206,24.456,6.206c-3.75,0-6.912,0.368-9.412,0.882	c0.588,0.956,0.882,2.059,0.882,3.235c0,1.618-0.588,3.088-1.544,4.191c0.221,0.074,0.515,0.147,0.882,0.221l0.147-0.368	c0,0,0.147,0,0.221,0.074c0-0.368,0.221-0.368,0.221-0.368s0-0.074,0.074-0.074c0.368,0.074,1.397,0.588,1.838,0.809	c0.441,0.221,0.441,0.294,0.441,0.294s1.029,0,1.324-0.074c0.294,0,0.809-0.221,1.544-0.441c0.735-0.221,0.882-0.294,1.029-0.294	c0.147,0,1.471,0.074,2.647,0.221s2.279,0.588,2.5,0.735l0.368,0.074l0.074-0.221l-0.588-0.221c0,0,0.074-0.368,0.074-0.441	s0.074-0.147,0.147-0.147s0.735,0.147,0.956,0.221s0.956,0.588,1.029,0.588s0.074,0.074,0.074,0.074	c0,0.147-0.147,0.441-0.147,0.441l-0.221-0.074l0.221,0.074c0,0,0.221,0.074,0.294,0.147c0.074,0.074,0.294,0.221,0.515,0.441	c0.221,0.147,0.147,0.368,0.147,0.368l0.515,0.515v0.221l1.25,1.25v0.074L31.367,19c0,0,0.809-0.074,1.397,0.221	c0.588,0.294,0.662,0.441,0.662,0.588c-0.147,0.074-0.368,0.147-0.368,0.147c-0.441,0.147-1.544,0.882-1.544,0.882v0.074	l0.588,0.147c0.662-0.588,1.838-0.809,2.721-0.662c3.015,0.588,5.074,2.574,5.515,4.265c0,0.074,0.074,0.221,0.074,0.294	C43.426,17.897,43.132,12.824,42.911,10.544L42.911,10.544z M32.323,21.279c0.074,0.074,0.147,0.074,0.221,0.147	c0.441,0.294,0.662,0.441,0.735,1.103c0.074,0.515-0.074,1.25-0.441,1.912c2.059,1.397,4.926,0.294,6.029,1.397	C38.647,23.044,34.529,20.25,32.323,21.279z M15.411,17.676l-0.147,0.074v0.588l0.147-0.074V17.676z M36.661,26.794	c-1.544,0-3.088-0.515-4.191-1.838v0.074c-0.662,0.882-1.397,0.882-1.691,0.882c-0.294,0-1.25-0.441-1.618-0.882	c-0.368-0.441-0.368-1.25-0.368-1.25l-1.471-0.515l-1.838-1.029l-0.294-0.074c-0.588,0.294-1.324,0.074-1.985-0.441	c-0.074,0.294-0.441,1.029-0.882,1.397S21,24,20.338,24c-0.662,0-2.132-0.735-2.574-1.765c-0.441-1.029,0-2.132,0-2.132	l-0.735-0.147l-0.294-0.368c0,0-0.882,0.735-1.838,0.441s-1.765-1.103-1.985-1.838c-0.147-0.735,0.074-1.397,0.147-1.471	c-0.147-0.515-0.147-0.809-0.147-0.809h-0.074v-0.221c-0.956,0.662-2.059,0.956-3.235,0.956c-1.324,0-2.574-0.441-3.603-1.103	c0.147,1.618,0.588,3.529,1.176,5.662c0.809,2.941,3.456,3.897,7.426,4.559c8.75,1.397,17.132,8.088,16.544,12.206	c2.206-1.838,4.559-4.559,6.912-8.603C39.014,27.824,38.132,26.794,36.661,26.794z M13.279,16.647l-0.074,0.809h0.515v-0.074h-0.074	v-0.074h-0.074l0.074-0.147l0.074-0.368l-0.074-0.074v-0.147L13.72,16.5l0.074-0.882l-0.368-0.221	c0.147-0.588,0.515-1.103,0.515-1.103H13.72c-0.368,0.441-0.515,1.029-0.515,1.029s-0.074,0.956-0.074,1.103	C13.132,16.647,13.279,16.647,13.279,16.647z M21.367,21.574l0.368,1.176c0.735-0.515,0.882-1.324,0.882-1.324L21.441,21.5	L21.367,21.574z M22.029,19.735l-0.588,1.029l0.074,0.074l1.176,0.074C22.691,20.103,22.029,19.735,22.029,19.735z M14.676,17.456	l-0.074,0.441h0.074V17.456z M20.264,20.25l0.588,0.441L21,20.618l0.662-1.029C20.853,19.515,20.264,20.25,20.264,20.25z M14.823,17.529l-0.074-0.074v0.515h0.074V17.529z M15.044,17.676l-0.074,0.515h0.074V17.676z M15.191,17.75l-0.074,0.515h0.074	V17.75z M14.897,17.603l-0.074,0.515h0.074V17.603z"/><path fill="#eceff1" d="M44.676,10.397l-0.074-0.809l-0.735-0.515c-3.088-2.132-8.971-4.632-19.485-4.632	c-3.971,0-7.574,0.368-10.735,1.103C12.544,4.588,11.073,4,9.529,4c-3.456,0-6.324,2.794-6.324,6.324	c0,1.103,0.294,2.132,0.809,3.088c0.147,5.441,1.838,11.103,5.147,16.838c5.441,9.191,11.25,11.912,14.044,13.162	c0.221,0.074,0.368,0.147,0.515,0.221L24.456,44l0.735-0.368c0.147-0.074,0.368-0.147,0.515-0.221	c2.868-1.25,8.603-3.971,13.897-13.162C45.411,20.176,44.897,12.824,44.676,10.397L44.676,10.397z"/><polygon fill="#1e88e5" points="27.911,20.912 27.911,20.912 26.661,22.015 27.617,22.309 28.573,21.279 28.058,21.059"/><path fill="#1e88e5" d="M29.603,21.647L29.161,21.5l-1.029,1.176l0.735,0.221C29.014,22.309,29.603,21.647,29.603,21.647z"/><path fill="#1e88e5" d="M23.867,17.971c0.441,0.515,0.882,1.25,0.882,1.25c0.735-0.735,2.279-1.029,4.265-0.956 C26.22,17.676,23.867,17.971,23.867,17.971z"/><path fill="#1e88e5" d="M30.779,18.559c0,0-0.147,0.294-0.221,0.368c-0.074,0.074-0.588,0.147-0.882,0.221 c-0.294,0.147-0.809,0.368-0.956,0.515c-0.074,0.074-0.074,0.294-0.074,0.368c0,0,0.046,0.021,0.1,0.041 c-0.013-0.014-0.026-0.027-0.026-0.041v-0.221c0,0,0.956-0.735,2.426-0.735l0.221-0.441L30.779,18.559z"/><path fill="#1e88e5" d="M21.147,16.868c0,0,0.809,0,1.912,0.221c-0.735-0.515-1.912-0.809-1.912-0.809V16.868z"/><path fill="#1e88e5" d="M23.867,19.441l0.221,0.074l0.441-0.074c-0.809-1.029-1.765-1.103-1.765-1.103 C23.206,18.632,23.867,19.441,23.867,19.441z"/><path fill="#1e88e5" d="M27.103,15.765c-0.074-0.147-0.221-0.147-1.103-0.294c-0.809-0.074-1.544-0.147-1.691-0.147 c-0.147,0-0.221,0.074-0.221,0.074s-0.441,0.294-0.809,0.515c-0.368,0.221-0.441,0.294-0.515,0.441 c-0.074,0.074,0.147,0.368,0.147,0.368l0.588,0.735c0.074,0,0.294,0.147,0.294,0.147s1.176-0.073,1.912-0.147h1.912 c0.074,0,0-0.294-0.147-0.662C27.323,16.5,27.103,15.765,27.103,15.765z"/><path fill="#1e88e5" d="M28.834,20.132l0.033-0.029c-0.032,0-0.079-0.016-0.121-0.032 C28.769,20.094,28.799,20.115,28.834,20.132z"/><path fill="#1e88e5" d="M19.603,15.103c0,0,0.515,0.294,0.588,0.294s1.103,0.368,1.544,0.515c0.368,0.147,0.588,0,0.662,0 c0.074,0,1.324-0.735,1.324-0.735c-1.103-0.441-2.132-0.735-2.132-0.735C21.514,14.441,19.603,15.103,19.603,15.103z"/><path fill="#1e88e5" d="M20.632,16.647l0.221,0.074c0,0,0.147,0,0.147-0.147v-0.294l-0.221-0.147l-0.294-0.074 c0.074,0.074,0.074,0.147,0.074,0.147h0.073c0-0.074,0.074-0.074,0.074,0c0,0,0.147,0.074,0.074,0.294 C20.853,16.573,20.706,16.647,20.632,16.647z"/><path fill="#1e88e5" d="M27.691,16.573l0.441,0.809l1.471,0.515c-0.588-1.25-1.544-1.471-1.544-1.471L27.691,16.573z"/><path fill="#1e88e5" d="M17.911,17.235c0,0-0.221-0.294-0.441-0.147c-0.164,0.109-0.326,0.38-0.369,0.662l-0.439,0.146 c-0.147-0.294-0.809-1.103-0.809-1.103l-0.147,0.588c0.074,0.074,0.441,0.662,0.515,0.809L16,18.412c0,0-0.074,0.147-0.074,0.221 s-0.073,0.147-0.073,0.147l-0.294,0.147h-0.074l-1.029-0.809v0.588h0.074c0.074,0.147,0.221,0.441,0.588,0.588 c0.294,0.147,0.662,0.147,0.809,0.073c0.147,0.074,0.221,0.074,0.294,0.147c0.294,0.147,0.368,0.073,0.368,0.073l0.441-0.147h0.074 l0.073-0.074l0.147-0.294c0,0,0.735,0.074,1.029,0.074c0.294-0.441,1.25-1.103,1.912-1.176c0.662,0,1.765,0.147,2.647,1.029 c0.809,0.882,0.588,2.059,0.588,2.059l1.618,0.515l-0.735-0.515c-0.588-1.471-1.985-2.794-1.985-2.794s-0.368-0.074-0.588-0.074 c-0.221-0.074-0.368-0.221-0.368-0.221s-0.074-0.074-0.221-0.294l-0.147-0.294c0,0-0.147-0.147-0.368-0.294 c-0.221-0.147-1.029-0.221-1.471-0.294c-0.441-0.073-0.441,0-0.441,0c1.25,0.294,1.618,0.368,1.691,0.441 c0,0,0.074,0.147,0.147,0.221c-1.029-0.221-1.985-0.074-2.206,0c0.147,0.221,0.147,0.515,0,0.735 c-0.147,0.147-0.588,0.368-0.588,0.368h-0.147l-0.368-0.073c-0.332-0.066-0.245-0.607-0.225-0.713 c-0.012,0.091-0.013,0.184,0.004,0.272c0.073,0.368,0.147,0.368,0.368,0.368c-0.368-0.147-0.294-0.735,0-1.103 C17.691,17.015,17.911,17.235,17.911,17.235z"/><polygon fill="#1e88e5" points="15.264,18.338 15.411,18.265 15.411,17.676 15.264,17.75"/><path fill="#1e88e5" d="M14.529,14.735c-0.368,0.441-0.515,1.029-0.515,1.029s-0.074,1.029-0.074,1.176 c-0.074,0.147,0.147,0.221,0.147,0.221h0l-0.074,0.809h0.441l0.074-0.515v0.294h0.074v-0.441h-0.074v-0.294l0.662,0.368 l0.074,0.147l0.147,0.147h0.147l0.073-0.074v-0.073c-0.441,0-0.441-0.221-0.441-0.221s0.074-0.515,0.147-0.662 c0.073-0.147,0.368-0.074,0.368-0.074L15.632,16.5h-0.147c-0.147-0.074-0.588-0.368-0.735-0.441v-0.074l0.074-0.074v-0.294h0.073 c0-0.073,0.074-0.073,0.074-0.147c0.147,0,1.25-0.221,1.25-0.221l-0.045-0.01c0.171-0.019,0.486-0.064,0.486-0.064l-1.397-0.368 l-0.074,0.221v-0.074C14.897,14.882,14.676,14.809,14.529,14.735z"/><path fill="#1e88e5" d="M32.544,22.382l-0.588,0.809v0.074h0.809C32.911,22.75,32.544,22.382,32.544,22.382z"/><path fill="#1e88e5" d="M31.735,25.029l-0.294-0.882h-0.074l-0.441,0.809L31,25.029 C31.367,25.176,31.735,25.029,31.735,25.029z"/><path fill="#1e88e5" d="M28.353,20.838l1.618,0.515c0.368-0.294,0.882-0.368,0.882-0.368 c-0.294-0.147-1.544-0.662-1.912-0.809c0,0-0.053-0.018-0.106-0.044l-0.629,0.559L28.353,20.838z"/><path fill="#1e88e5" d="M31.147,23.338c-0.368,0.735-0.294,1.25-0.294,1.25l0.368-0.809v-0.147 C31.294,23.632,31.22,23.485,31.147,23.338z"/><path fill="#1e88e5" d="M31.808,23.853l0.221,0.956c0,0,0.221-0.221,0.441-0.515c0.221-0.294,0.294-0.588,0.294-0.588 l-0.882,0.074L31.808,23.853z"/><path fill="#1e88e5" d="M31.367,22.971l0.147,0.221l0.074-0.074l0.588-0.735v-0.073 C31.882,22.309,31.367,22.971,31.367,22.971z"/><path fill="#1e88e5" d="M20.338,16.059c0,0,0.003,0.001,0.003,0.001c-0.026-0.067-0.077-0.075-0.077-0.075 c-0.041,0-0.099,0.045-0.147,0.098l0.073-0.025H20.338z"/><path fill="#1e88e5" d="M15.706,14.809c1.176,0.147,1.397,0.368,1.397,0.368s0.441-0.074,0.662-0.074 c-0.368-0.294-1.985-0.809-1.985-0.809S15.706,14.515,15.706,14.809z"/><path fill="#1e88e5" d="M20.117,16.083l-0.147,0.049l-0.074,0.515h0.074l0.147-0.074c-0.073-0.147-0.073-0.221-0.073-0.368 C20.044,16.173,20.079,16.126,20.117,16.083z"/><path fill="#1e88e5" d="M13.132,16.426c0,0.221,0.147,0.221,0.147,0.221l-0.074,0.809h0.515v-0.074h-0.074v-0.073h-0.073 l0.073-0.147l0.074-0.368l-0.074-0.074v-0.147L13.72,16.5l0.074-0.882l-0.333-0.2c-0.092,0.07-0.182,0.143-0.278,0.208 C13.161,15.919,13.132,16.334,13.132,16.426z"/><polygon fill="#1e88e5" points="15.117,18.265 15.191,18.265 15.191,17.75"/><polygon fill="#1e88e5" points="14.97,18.191 15.044,18.191 15.044,17.676"/><path fill="#1e88e5" d="M42.911,10.544L42.911,10.544C40.706,9,35.264,6.206,24.456,6.206c-3.719,0-6.858,0.362-9.348,0.87 C15.671,8.029,16,9.136,16,10.323c0,1.61-0.599,3.077-1.581,4.202c0.217,0.07,0.495,0.14,0.846,0.21l0.147-0.368 c0,0,0.147,0,0.221,0.074c0-0.368,0.221-0.368,0.221-0.368s0-0.073,0.074-0.073c0.368,0.073,1.397,0.588,1.838,0.809 c0.441,0.221,0.441,0.294,0.441,0.294s1.029,0,1.324-0.073c0.294,0,0.809-0.221,1.544-0.441c0.735-0.221,0.882-0.294,1.029-0.294 c0.147,0,1.471,0.073,2.647,0.221c1.176,0.147,2.279,0.588,2.5,0.735l0.368,0.073l0.074-0.221l-0.588-0.221 c0,0,0.074-0.368,0.074-0.441s0.074-0.147,0.147-0.147c0.074,0,0.735,0.147,0.956,0.221c0.221,0.073,0.956,0.588,1.029,0.588 c0.073,0,0.073,0.074,0.073,0.074c0,0.147-0.147,0.441-0.147,0.441s0.221,0.074,0.294,0.147c0.073,0.073,0.294,0.221,0.515,0.441 c0.221,0.147,0.147,0.368,0.147,0.368l0.515,0.515v0.221l1.25,1.25v0.074L31.367,19c0,0,0.809-0.074,1.397,0.221 c0.588,0.294,0.662,0.441,0.662,0.588c-0.147,0.074-0.368,0.147-0.368,0.147c-0.441,0.147-1.544,0.882-1.544,0.882v0.074 l0.588,0.147c0.662-0.588,1.838-0.809,2.721-0.662c2.865,0.559,4.85,2.378,5.42,4.009C43.013,17.657,43.126,12.758,42.911,10.544z"/><path fill="#1e88e5" d="M36.661,26.794c-1.544,0-3.088-0.515-4.191-1.838v0.074c-0.662,0.882-1.397,0.882-1.691,0.882 s-1.25-0.441-1.618-0.882c-0.368-0.441-0.368-1.25-0.368-1.25l-1.471-0.515l-1.838-1.029l-0.294-0.074 c-0.588,0.294-1.324,0.074-1.985-0.441c-0.074,0.294-0.441,1.029-0.882,1.397C21.882,23.485,21,24,20.338,24 c-0.662,0-2.132-0.735-2.574-1.765s0-2.132,0-2.132l-0.735-0.147l-0.294-0.368c0,0-0.882,0.735-1.838,0.441 c-0.956-0.294-1.765-1.103-1.985-1.838c-0.147-0.735,0.074-1.397,0.147-1.471c-0.147-0.515-0.147-0.809-0.147-0.809h-0.073v-0.076 c-0.95,0.559-2.053,0.885-3.235,0.885c-1.333,0-2.569-0.408-3.594-1.105c0.153,1.603,0.587,3.488,1.167,5.59 c0.809,2.941,3.456,3.897,7.427,4.559c8.75,1.397,17.132,8.088,16.544,12.206c2.206-1.838,4.559-4.559,6.912-8.603 C39.014,27.823,38.132,26.794,36.661,26.794z"/><path fill="#1e88e5" d="M40,25c0-0.074,0.338-0.265,0.338-0.338c-0.022-0.084-0.065-0.17-0.095-0.255 C40.161,24.605,40.086,24.799,40,25z"/><path fill="#1e88e5" d="M32.323,21.279c0.073,0.073,0.147,0.073,0.221,0.147c0.441,0.294,0.662,0.441,0.735,1.103 c0.073,0.515-0.074,1.25-0.441,1.912c2.059,1.397,4.926,0.294,6.029,1.397C38.647,23.044,34.529,20.25,32.323,21.279z"/><path fill="#1e88e5" d="M12.25,27.971c-0.956,0-2.059,0.368-1.397,1.397c5.441,9.338,11.176,11.544,13.603,12.721 c1.103-0.515,2.868-1.323,5-2.794c1.25-0.809,1.103-2.059,0.809-2.868C28.72,32.603,20.264,28.265,12.25,27.971z"/><polygon fill="#1e88e5" points="14.897,18.118 14.897,17.603 14.823,18.118"/><path fill="#1e88e5" d="M20.264,20.25l0.588,0.441L21,20.618l0.662-1.029C20.853,19.515,20.264,20.25,20.264,20.25z"/><path fill="#1e88e5" d="M21.294,22.897l-0.441-1.103h-0.147l-0.735,0.882C20.485,23.118,21.294,22.897,21.294,22.897z"/><path fill="#1e88e5" d="M20.341,16.06c0.017,0.043,0.025,0.104-0.003,0.219c0,0.294-0.221,0.294-0.221,0.294 s0.074,0,0.221,0.074c0.147,0,0.221-0.147,0.221-0.294C20.558,16.138,20.352,16.064,20.341,16.06z"/><path fill="#1e88e5" d="M19.97,20.691c-0.515,0.956-0.147,1.618-0.147,1.618l0.662-0.956v-0.147L19.97,20.691z"/><polygon fill="#1e88e5" points="14.603,17.897 14.676,17.897 14.676,17.456"/><polygon fill="#1e88e5" points="14.75,17.971 14.823,17.971 14.823,17.529 14.75,17.456"/><path fill="#1e88e5" d="M22.617,21.426L21.441,21.5l-0.073,0.073l0.368,1.177C22.47,22.235,22.617,21.426,22.617,21.426z"/><path fill="#1e88e5" d="M22.029,19.735l-0.588,1.029l0.074,0.073l1.176,0.074C22.691,20.103,22.029,19.735,22.029,19.735z"/><path fill="#1565c0" d="M42.911,10.544c0.221,2.721,0.588,9.412-4.853,18.824	c-5.368,9.338-11.176,11.544-13.603,12.721v-1.397c4.485-2.426,8.382-6.324,11.471-12.5c3.603-7.132,4.044-12.941,3.75-15.882	L42.911,10.544z"/><path fill="#42a5f5" d="M42.911,10.544C40.706,9,35.264,6.206,24.456,6.206	c-3.75,0-6.912,0.368-9.412,0.882c0.515,0.809,0.809,1.765,0.882,2.794c2.794-0.515,5.809-0.809,9.044-0.735	c6.912,0.074,12.5,1.618,14.779,3.162L42.911,10.544"/><circle cx="9.603" cy="10.324" r="4.559" fill="#90a4ae"/></svg>