<svg xmlns="http://www.w3.org/2000/svg"  viewBox="0 0 48 48" width="1600px" height="1600px"><path fill="#1565c0" d="M12.5,42h23c3.6,0,6.5-2.9,6.5-6.5v-23C42,8.9,39.1,6,35.5,6h-23C8.9,6,6,8.9,6,12.5v23 C6,39.1,8.9,42,12.5,42z"/><path fill="#212121" d="M21.8,38.3l3.3-7.3l-3.7-4h6l3.9-6.5l1.1,6.5h7l-6.3,4.5l1,6.5l-5.1-3.9L21.8,38.3z M29.1,31.7 l2.2,1.7l-0.4-2.9l2.2-1.5h-2.4l-0.5-2.8L28.6,29H26l1.5,1.6l-1.2,2.7L29.1,31.7z"/><path fill="#fff" d="M23.7,28H28l2.8-4.7l0.8,4.7h4.7L32,31l0.7,4.7L29,32.9l-4.9,2.9l2.3-5L23.7,28z"/><path fill="#fff" d="M27.3,27h-5.8l-0.3-0.6c-0.1-0.1-0.3-0.8-0.2-1.9c0.2-1.8,0-2.5-0.2-2.8c0-0.1-0.2-0.2-0.7-0.2h-1.9 l-1.1,5.1h-5.4L15.1,11h7.4c1.6,0,3.5,0.2,4.7,1.4c0.8,0.8,1.1,2,1,3.5c-0.1,1.8-0.9,3.1-2.3,3.8c0.4,0.6,0.6,1.5,0.5,2.9 c-0.2,2.2,0,2.7,0.1,2.8L27.3,27z M23,25h1.3c-0.1-0.6-0.1-1.4,0.1-2.5c0.2-1.6-0.1-1.7-0.9-2.2l-1.7-1c-0.1,0-0.2,0-0.3,0h-4.7 l1.2-5.8h4.2c0.9,0,1.7,0.3,2.2,0.9c0.3,0.4,0.7,1.1,0.4,2.2c-0.1,0.7-0.4,1.3-0.9,1.7c0.7-0.2,2-0.5,2.2-2.6 c0.1-0.9-0.1-1.6-0.4-2c-0.5-0.5-1.5-0.8-3.2-0.8h-5.8l-2.5,11.7h1.3l1.1-5.1h3.5c1,0,1.7,0.3,2.2,0.9c0.7,0.8,1,2.1,0.7,4.3 C23,24.9,23,24.9,23,25z M19.2,17.3h2.2c0.8,0,1.3-0.3,1.4-1c0.1-0.3,0-0.5,0-0.6c-0.1-0.1-0.3-0.2-0.6-0.2h-2.6L19.2,17.3z"/><path fill="#212121" d="M21.8,26.5l-0.1-0.3c0-0.1-0.3-0.6-0.1-1.6c0.2-1.6,0.1-2.7-0.3-3.1c-0.2-0.3-0.6-0.4-1.1-0.4h-2.3 l-1.1,5.1h-4.3l3.1-14.7h7c1.4,0,3.2,0.1,4.3,1.3c0.7,0.7,0.9,1.7,0.8,3.1c-0.2,2.4-1.6,3.3-2.6,3.7c0.6,0.6,0.9,1.4,0.8,3 c-0.2,2.1,0,2.9,0.2,3.1l0.4,0.7H21.8z M21.4,17.8c0.6,0,1.7-0.2,1.9-1.4c0.1-0.4,0-0.8-0.1-1c-0.2-0.2-0.6-0.4-1-0.4h-3l-0.6,2.8 H21.4z"/><path fill="#fff" d="M22.5,12c2.8,0,4.9,0.7,4.6,3.8c-0.3,3.2-2.7,3.4-3.2,3.6c1,0.6,1.6,1,1.4,3.1 c-0.2,2.3,0,3.1,0.2,3.4h-3.5c0,0-0.2-0.5-0.1-1.4c0.3-2.7,0-4.1-1.9-4.1c-1.9,0-2.7,0-2.7,0l-1.1,5.1H13L15.9,12 C15.9,12,19.2,12,22.5,12 M17.9,18.3c0,0,2.3,0,3.5,0c1,0,2.1-0.5,2.4-1.8c0.3-1.4-0.6-1.9-1.6-1.9c-0.3,0-3.4,0-3.4,0L17.9,18.3 M22.5,11h-7.4l-0.2,0.8L12,25.5l-0.3,1.2h5.4l0.2-0.8l0.9-4.3h1.9c0.5,0,0.7,0.2,0.7,0.2c0.2,0.2,0.4,0.9,0.2,2.8 c-0.1,1.1,0.1,1.8,0.2,1.9l0.3,0.6h5.8l-0.9-1.5c-0.1-0.1-0.3-0.7-0.1-2.8c0.1-1.4-0.1-2.3-0.5-2.9c1.4-0.8,2.1-2,2.3-3.8 c0.1-1.5-0.2-2.7-1-3.5C26,11.2,24,11,22.5,11z M19.5,15.6h2.6c0.4,0,0.6,0.1,0.6,0.2c0.1,0.1,0.1,0.3,0,0.6c-0.1,0.7-0.6,1-1.4,1 h-2.2L19.5,15.6z"/></svg>