<svg xmlns="http://www.w3.org/2000/svg"  viewBox="0 0 48 48" width="1600px" height="1600px"><path fill="#212121" d="M14,41c-3.859,0-7-3.14-7-7V14c0-3.86,3.141-7,7-7h20c3.859,0,7,3.14,7,7v20c0,3.86-3.141,7-7,7H14z"/><path fill="#ffb300" d="M34,42H14c-4.411,0-8-3.589-8-8V14c0-4.411,3.589-8,8-8h20c4.411,0,8,3.589,8,8v20 C42,38.411,38.411,42,34,42z M14,8c-3.309,0-6,2.691-6,6v20c0,3.309,2.691,6,6,6h20c3.309,0,6-2.691,6-6V14c0-3.309-2.691-6-6-6H14 z"/><path fill="#fafafa" d="M14,34c-0.285,0-0.565-0.122-0.761-0.351c-0.298-0.349-0.32-0.857-0.053-1.23l4.262-5.966 c0.143-0.2,0.12-0.471-0.054-0.645l-4.092-3.607c-0.467-0.413-0.63-1.058-0.415-1.643c0.216-0.584,0.757-0.97,1.38-0.981 l7.808-0.342c0.003-0.004-0.02-0.007-0.017-0.011l4.127-5.803c0.252-0.355,0.704-0.506,1.119-0.373C27.719,13.18,28,13.565,28,14v5 h7c0.446,0,0.838,0.295,0.961,0.724c0.123,0.429-0.053,0.888-0.431,1.124L28,25.554V33c0,0.384-0.221,0.735-0.566,0.901 c-0.347,0.166-0.759,0.12-1.059-0.121l-4.5-3.6l-7.428,3.714C14.305,33.966,14.151,34,14,34z M21.873,28.182 c0.446,0,0.891,0.148,1.252,0.438l2.875,2.3v-5.365c0-0.693,0.351-1.327,0.938-1.695L31.513,21H28c-1.103,0-2-0.897-2-2v-1.869 l-2.309,3.246c-0.348,0.501-0.896,0.812-1.503,0.854l-6.632,0.291l3.207,2.83c0.912,0.91,1.024,2.265,0.313,3.264l-1.922,2.689 l3.826-1.913C21.263,28.251,21.568,28.182,21.873,28.182z M14.35,21.575l-0.02,0.001C14.337,21.576,14.343,21.575,14.35,21.575z"/></svg>