<svg xmlns="http://www.w3.org/2000/svg"  viewBox="0 0 48 48" width="1600px" height="1600px"><polygon fill="#607d8b" points="16.25 17 18.38 12.5 1.63 3.75 3.75 25 7.76 28.96 18.73 20.2 16.25 17"/><polygon fill="#607d8b" points="20.14 22.02 9.31 30.49 15.24 36.35 22.58 25.17 20.14 22.02"/><polygon fill="#607d8b" points="16.73 37.82 24 45 24 27 16.73 37.82"/><polygon fill="#90a4ae" points="24 45 31.1 37.98 24 27 24 45"/><polygon fill="#90a4ae" points="25.4 25.2 32.59 36.52 38.55 30.63 27.83 22.06 25.4 25.2"/><polygon fill="#90a4ae" points="29.63 12.5 31.75 17 29.23 20.25 40.1 29.1 44.25 25 46.38 3.75 29.63 12.5"/><polygon fill="#90a4ae" points="24 10 24 21 27.44 16.56 24 10"/><polygon fill="#607d8b" points="20.44 16.56 24 21 24 10 20.44 16.56"/></svg>