<svg xmlns="http://www.w3.org/2000/svg"  viewBox="0 0 48 48" width="1600px" height="1600px"><path fill="#fff" d="M29.5,6.25c1.423,0,2.589,0.123,3.175,0.198l0.638-1.676C32.55,4.664,31.127,4.5,29.5,4.5 c-1.63,0-3.051,0.164-3.813,0.272l0.638,1.676C26.911,6.373,28.077,6.25,29.5,6.25z"/><path fill="#f44336" d="M29.5,5c1.226,0,2.334,0.095,3.121,0.187l-0.274,0.719C31.687,5.833,30.679,5.75,29.5,5.75 s-2.187,0.083-2.847,0.156l-0.274-0.719C27.164,5.095,28.27,5,29.5,5 M29.5,4C27,4,25,4.375,25,4.375L26,7c0,0,1.5-0.25,3.5-0.25 S33,7,33,7l1-2.625C34,4.375,32,4,29.5,4L29.5,4z"/><path fill="#fff" d="M26.604,17.5h8.987c0.27-0.251,0.852-0.959,0.914-1.179c-0.005-1.528-1.613-5.708-2.358-7.496 C33.497,8.729,31.717,8.5,29.5,8.5c-1.737,0-2.88,0.076-3.286,0.108l-0.952,0.885l-0.737,5.599L26.604,17.5z"/><path fill="#f44336" d="M29.5,9c1.921,0,3.509,0.175,4.295,0.281c0.898,2.18,2.114,5.545,2.2,6.946 c-0.12,0.201-0.407,0.552-0.614,0.773h-8.548l-1.783-2.064l0.685-5.199l0.692-0.643C26.926,9.059,27.983,9,29.5,9 M29.5,8 C27.25,8,26,8.125,26,8.125L24.79,9.25l-0.79,6L26.375,18c0,0,9.125,0,9.375,0c0.125,0,1.25-1.25,1.25-1.625c0-2.125-2.5-8-2.5-8 S32.375,8,29.5,8L29.5,8z"/><path fill="#f44336" d="M32,13.625L28.571,15c0,0-0.571-1.875-0.571-4c0,0,2.625,0,3.25,0.25 C31.875,12.125,32,13.625,32,13.625z"/><path fill="#fff" d="M16.669,13.5h1.316l1.98,5.94l5.061-0.794L20.523,13.5h3.694l1.221-2.035l-2.637-5.961 c-2.945,0.075-8.639,1.1-10.264,1.403l0.929,10.676L17.4,18.37L16.669,13.5z"/><path fill="#f44336" d="M22.481,6.016l2.395,5.414L23.934,13h-2.309h-2.204l1.451,1.659l3.18,3.635l-3.747,0.588 l-1.732-5.197L18.346,13h-0.721H17.25h-1.161l0.172,1.148L16.8,17.74l-2.869-0.574l-0.857-9.85 C15.025,6.96,19.737,6.14,22.481,6.016 M23.125,5C19.75,5,12,6.5,12,6.5L13,18l5,1l-0.75-5h0.375l2,6L26,19l-4.375-5H24.5l1.5-2.5 L23.125,5L23.125,5z"/><path fill="#f44336" d="M16,9c0,0,2,0,3,0.5v1.625L16.25,12L16,9z"/><path fill="#fff" d="M23.999,42.999c4.021,0.006,8.008-0.063,11.827-0.213c2.193-0.001,3.946-1.646,3.946-3.668 c0.161-2.078,0.237-4.107,0.228-6.113c0.009-2.017-0.067-4.047-0.225-6.044l-0.003-0.079c0-2.021-1.752-3.664-3.906-3.664 c-3.729-0.151-7.712-0.223-11.864-0.218c-4.129,0-8.113,0.067-11.827,0.217c-2.193,0.001-3.944,1.645-3.944,3.665 c-0.16,2.056-0.236,4.086-0.23,6.115c-0.006,2.046,0.071,4.077,0.228,6.041c0.003,2.102,1.754,3.747,3.906,3.747 C15.878,42.933,19.854,42.991,23.999,42.999z"/><path fill="#f44336" d="M35.164 31.18c-.248 0-.417.064-.519.198-.073.1-.164.329-.164.827v.851h1.352v-.851c0-.491-.094-.721-.171-.833C35.565 31.241 35.402 31.18 35.164 31.18zM27.291 31.224C27.193 31.27 27.1 31.339 27 31.436V37.9c.125.122.2.21.312.266.126.06.254.088.392.088.262 0 .343-.1.369-.135.065-.078.135-.241.135-.594v-5.506c0-.306-.06-.542-.172-.688C27.885 31.136 27.63 31.059 27.291 31.224z"/><path fill="#f44336" d="M40.771,26.882c0-2.576-2.199-4.664-4.906-4.664C31.999,22.061,28.04,21.995,24,22 c-4.038-0.005-7.997,0.062-11.866,0.218c-2.705,0-4.904,2.088-4.904,4.664C7.069,28.919,6.995,30.959,7,33 c-0.006,2.038,0.068,4.078,0.231,6.117c0,2.58,2.196,4.667,4.903,4.667c3.869,0.154,7.828,0.22,11.866,0.215 c4.039,0.009,7.999-0.062,11.866-0.215c2.707,0,4.906-2.088,4.906-4.667c0.161-2.039,0.237-4.079,0.228-6.117 C41.008,30.959,40.932,28.919,40.771,26.882z M14.595,40.019c0,0.122-0.104,0.224-0.233,0.224h-2.322 c-0.129,0-0.233-0.102-0.233-0.224V27.886H9.636c-0.128,0-0.232-0.101-0.232-0.223v-2.094c0-0.123,0.104-0.224,0.232-0.224h7.13 c0.129,0,0.233,0.101,0.233,0.224v2.094c0,0.122-0.103,0.223-0.233,0.223h-2.171V40.019z M22.861,40.019 c0,0.122-0.104,0.224-0.233,0.224h-2.065c-0.129,0-0.233-0.102-0.233-0.224v-0.606c-0.275,0.256-0.551,0.46-0.836,0.616 c-0.45,0.25-0.879,0.37-1.315,0.37c-0.553,0-0.979-0.194-1.266-0.569c-0.27-0.356-0.409-0.883-0.409-1.563v-8.91 c0-0.123,0.104-0.224,0.235-0.224h2.036c0.129,0,0.233,0.101,0.233,0.224v8.171c0,0.268,0.05,0.377,0.082,0.42 c0.015,0.019,0.057,0.074,0.232,0.074c0.059,0,0.195-0.024,0.441-0.186c0.199-0.127,0.407-0.285,0.564-0.467v-8.011 c0-0.123,0.104-0.224,0.235-0.224h2.064c0.129,0,0.233,0.101,0.233,0.224v10.661h0.003V40.019z M30.8,37.81 c0,0.81-0.18,1.441-0.536,1.879c-0.369,0.46-0.903,0.689-1.584,0.689c-0.434,0-0.831-0.085-1.185-0.256 c-0.188-0.091-0.319-0.21-0.491-0.358v0.256c0,0.125-0.105,0.224-0.233,0.224h-2.126c-0.129,0-0.235-0.099-0.235-0.224V25.565 c0-0.123,0.104-0.223,0.235-0.223h2.126c0.128,0,0.233,0.1,0.233,0.223v4.089c0.17-0.15,0.343-0.275,0.529-0.377 c0.35-0.187,0.664-0.282,1.022-0.282c0.726,0,1.295,0.262,1.682,0.777c0.372,0.495,0.561,1.211,0.561,2.126L30.8,37.81L30.8,37.81z M38.426,34.941c0,0.124-0.105,0.226-0.235,0.226h-3.709v1.783c0,0.651,0.093,0.93,0.168,1.046c0.06,0.097,0.172,0.219,0.496,0.219 c0.261,0,0.44-0.061,0.532-0.18c0.042-0.064,0.158-0.308,0.158-1.087v-0.743c0-0.125,0.105-0.224,0.235-0.224h2.122 c0.129,0,0.232,0.099,0.232,0.224v0.802c0,1.148-0.282,2.028-0.835,2.622c-0.555,0.597-1.394,0.902-2.491,0.902 c-0.988,0-1.784-0.326-2.356-0.958c-0.567-0.628-0.856-1.489-0.856-2.566v-4.787c0-0.981,0.315-1.793,0.941-2.416 c0.623-0.625,1.444-0.943,2.43-0.943c1.009,0,1.799,0.298,2.348,0.883c0.544,0.579,0.821,1.412,0.821,2.476v2.721h0.001V34.941z"/></svg>