<svg xmlns="http://www.w3.org/2000/svg"  viewBox="0 0 48 48" width="1600px" height="1600px"><path fill="#fff" d="M24 4A20 20 0 1 0 24 44A20 20 0 1 0 24 4Z"/><path fill="#1a237e" d="M11.742,8.227c0.079,0.297,0.254,0.822,0.254,1.107c0,0.852,0,18.612,0,19.168c0,0.852-0.695,1.524-1.423,1.934c-0.112,0.062-0.226,0.124-0.328,0.231c2.725,0,5.451,0,8.176,0c0.006-0.016,0.012-0.033,0.019-0.049c-0.079-0.044-0.157-0.088-0.237-0.13c-1.021-0.534-1.763-0.827-1.761-1.987V9.333c0-0.497,0.388-0.588,0.87-0.721c1.033-0.285,2.047-0.176,2.996,0.3c1.886,0.948,3.245,2.902,3.245,4.865c0,1.629-0.188,2.746-1.188,3.995c-0.762,0.952-1.76,1.518-2.969,1.699c-0.374,0.056-0.376,0.055-0.304,0.424c0.317,1.613,1.058,3.028,2.023,4.338c1.331,1.807,2.996,3.268,4.736,4.665c1.766,1.418,3.428,2.514,5.393,3.604c1.05,0.582,2.033,1.375,2.796,2.3c1.375,1.669,1.26,3.544,0.094,5.199c-0.568,0.807-1.382,1.333-2.305,1.665c-2.01,0.724-3.726,0.716-5.675-0.189c-1.393-0.648-2.602-1.68-2.602-3.255c0-1.019,0.389-2.222,0.889-2.222c0.574,0,2.667-0.389,2.667-2.222c0-1.084-1.004-1.312-1.778-1.333c-2.008,0-4.446,1.805-4.446,5.333c0,3.028,1.695,5,3.556,6.222c-1.541,0-3.195-0.102-4.369-0.34c-2.803-0.567-5.374-1.674-7.701-3.34c-2.334-1.671-4.235-3.743-5.667-6.233C4.738,30.666,4,27.043,4,23.556C4,17.407,7.169,11.635,11.742,8.227z"/><path fill="#1a237e" d="M39.41,33.992c0.126,0.507,0.172,1.035,0.145,1.564h0.004v0.981c5.146-6.092,6.654-16.837-0.009-25.095c-6.864-8.506-18.16-9.165-25.494-4.775c0.233,0,4.961,0,5.054,0c3.927,0,8.891,1.444,8.891,6.222c0,2.583-0.917,5.556-3.556,7.111c0.315,0.759,0.574,1.13,0.889,1.777c0.583-1.249,2.778-2.623,4.446-2.666c1.723,0,5.376,0,7.113,0c0,0.916,0,4.43,0,6.222c-0.105,0-0.127-0.019-0.152-0.12c-0.376-1.548-2.738-3.436-5.627-3.436c-1.334,0-2.223,0.719-2.223,1.778c0,1.233,0.735,1.798,1.778,2.667c1.439,1.197,4.671,3.354,5.366,3.763C37.591,30.902,38.965,32.209,39.41,33.992z"/></svg>