<svg xmlns="http://www.w3.org/2000/svg"  viewBox="0 0 48 48" width="1600px" height="1600px"><path fill="#4fc3f7" d="M34,43H14c-4.971,0-9-4.029-9-9V14c0-4.971,4.029-9,9-9h20c4.971,0,9,4.029,9,9v20	C43,38.971,38.971,43,34,43z"/><path fill="#81d4fa" d="M17.917,39.167c0,0,7.396-5.458,9.5-7.292c2.023-1.762,4.771-4.729,4.729-6.313	c-0.042-1.583-0.354-1.896-2.104-2.229c-1.75-0.333-5.208-0.375-7.583,0.083c-2.375,0.458-6.146,1.521-7.729,2.354	c-1.483,0.781-2.125,1.417-2.521,2.042c-0.495,0.782-0.447,1.327,0.292,1.646c1.354,0.583,2.583,0.25,2.583,0.25	s-0.625,0.5-2.208,0.333c-0.979-0.103-1.729-0.813-1.646-1.354c0.083-0.542,0.667-1.375,1.021-1.729	c0.597-0.597,2.583-1.917,5.292-2.75c1.43-0.44,4.75-1.417,6.708-1.708s4.75-0.583,6.458-0.333s3.271,0.5,3.437,1.875	c0.167,1.375-0.375,2.271-1.25,3.688c-0.875,1.417-3.312,3.875-5.271,5.313c-1.959,1.438-5.125,3.646-6.563,4.563	c-1.32,0.842-2.396,1.479-2.979,1.813C17.5,39.75,17.917,39.167,17.917,39.167z"/><path fill="#fff" d="M18.969,12.156c1.156-0.688,3.418-1.28,4.425-1.242c0.979,0.037,1.786,0.096,2.731,0.367	c0.725,0.208,1.534,0.837,2.078,1.344c0.939,0.875,1.289,2.106,0.132,2.997c-0.871,0.67-4.645,2.715-5.851,3.519	s-1.785,2.174-1.182,2.911c0.603,0.737,0.871,1.139,1.473,2.009c0.603,0.871,0.354,1.951-0.651,2.955s-3.341,2.071-4.547,2.406	s-2.571,0.8-3.777,0.733c-1.206-0.067-1.614-0.858-1.614-0.858s0.469,0.359,1.828,0.391c1.943,0.045,4.879-1.274,5.281-2.547	s-0.263-2.25-1-2.719s-3.072-2.389-3.766-3.172c-0.969-1.094-1.063-3.422,0-5.172C15.626,14.275,17.086,13.276,18.969,12.156z"/><path fill="#fff" d="M22.792,30.917c0-0.125,2.292-9.359,3.083-10.776s1.531-2.125,2.344-2.406	c0.518-0.179,1.156-0.149,1.25,0.344c0.125,0.656,0.016,1.047-0.484,1.922s-1.969,3.359-3.313,5.625	C24.455,27.677,23.25,30.5,23.042,31C22.833,31.5,22.792,30.917,22.792,30.917z"/><path fill="#fff" d="M36.667,27.25c-0.526,0.625-1.182,1.359-1.729,1.953c-0.542,0.589-0.828,0.01-0.828-0.781	s-0.073-1.339,0.219-2.547s0.63-2.813,0.047-3.188s-1.12-0.359-1.828,0.141c-0.708,0.5-1.438,1.724-1.438,2.641	s0.115,1.578,0.656,2.953c0.542,1.375,0.714,1.771,1.188,2.219c0.529,0.5,0.922,0.234,0.922,0.234s-0.797,1.234-1.906,2.375	c-1.071,1.102-2.995,2.969-3.703,3.469s-1.166,0.908-0.75,0.969c0.531,0.078,0.943-0.021,1.484-0.521s1.797-1.667,3-3.182	c0.719-0.906,1.562-1.917,2.312-3c0.75-1.083,2.094-2.745,2.469-3.328S36.735,27.169,36.667,27.25z"/><path fill="#fff" d="M30.833,31.167c0,0-1.583-0.333-2.625-0.875c-1.042-0.542-2.177-1.354-2.302-1.854	s-0.073-0.854,0.302-1.063s1.557-0.078,2.307-0.328s1.234-0.37,1.484-0.953s0.568-1.37,0.484-1.953s-0.286-0.661-0.828-0.453	s-1.64,0.664-2.547,1.125c-0.984,0.5-1.958,1.266-2.25,1.766s-0.443,0.755-0.151,1.339c0.292,0.583,0.479,0.901,1.354,1.568	s2.229,1.266,2.979,1.474C29.792,31.167,30.833,31.167,30.833,31.167z"/></svg>