<svg xmlns="http://www.w3.org/2000/svg"  viewBox="0 0 48 48" width="1600px" height="1600px"><g data-name="Skyrim Icon"><path fill="#9ca9dc" d="M28.47,32.83c-.28.11-.47.17-.47.17v8l9-21L29.4,2.3,28.41,0a16.21,16.21,0,0,0-.4,2.45c-.62.2-.62,1.84-.62,1.84a.031.031,0,0,1,.01-.02c.04-.05.17-.22.61-.8.61-.82.99.53.99.53l1,9a4.938,4.938,0,0,0-1,3c2-3,2.18-.27,3,3a2.386,2.386,0,0,1,.05,1.2v.01a1.072,1.072,0,0,1-.47.65,3.159,3.159,0,0,1-3.15-.64.948.948,0,0,1-.06-.32c-.03-1,1.43-1.8,1.61-1.89A.031.031,0,0,1,30,18h-.02a3.483,3.483,0,0,0-2.26.95,5.106,5.106,0,0,0-.75.82,2.652,2.652,0,0,0-.16.23l-.01.02a2.593,2.593,0,0,1,.19-1L27,19a.322.322,0,0,1-.06.02,1.049,1.049,0,0,0-.85.76c-.03.07-.05.14-.08.2,0,.01-.01.01-.01.02a.852.852,0,0,0-.03-.23.442.442,0,0,0-.06-.16,1.583,1.583,0,0,0-.28-.43,20.165,20.165,0,0,1-1.92-1.81c-.81-1.23,0-2.25,1.84-3.06q.285-.135.54-.27h.01a2.782,2.782,0,0,0,1.59-3.23,2.178,2.178,0,0,0-1.68-1.92A.01.01,0,0,1,26,8.88h-.01c-.8-.24-1.57-.18-1.46-.29a7.574,7.574,0,0,1,1.63-1.22c.84-.37.41-1.02.41-1.02C26,8,23.51,7.37,23.51,7.37a14.087,14.087,0,0,0-.61-1.43A2.623,2.623,0,0,1,23,4c-1.02.41-.92,1.53-.72,2.35a1.844,1.844,0,0,1-.61,2.04c-.61.41-.2,1.43-.2,1.43C20,12,22,12,22,12c-.8-.8.51-1.98,2.01-2.21h.01a3.244,3.244,0,0,1,1.12.03c1.84.4,1.63,3.06,0,3.47s-3.61,1.39-3.88,3.06a.985.985,0,0,0-.02.17v.01a4.579,4.579,0,0,0,.07,1.33,6.682,6.682,0,0,0,.27,1.09c.03.1.06.19.09.28A1.914,1.914,0,0,0,21,19a2.4,2.4,0,0,1,.18.7c.01.1.02.21.02.32,0,0-1.98-2.22-3.2-2.02a.077.077,0,0,1,.03.01c.23.13,1.94,1.07,1.54,2.21-.17.48-2.71,1.45-3.46.34-.01-.01-.01-.01,0-.02a1.343,1.343,0,0,1-.21-.9A3.234,3.234,0,0,1,16,19c.82-3.26,1-5.99,2.99-3.02A.031.031,0,0,1,19,16a4.938,4.938,0,0,0-1-3l1-9s.38-1.35.99-.53l.62.82s0-1.64-.62-1.84A16.21,16.21,0,0,0,19.59,0L11,20l2.74,6,.83.36.08.04,1.02.45L16,27H14l6,14V33s-.19-.06-.48-.18a2.934,2.934,0,0,1-.28-.12,3.747,3.747,0,0,1-2.19-2.04v-.04A1.82,1.82,0,0,1,17,30c.2-2.03,2.59-2.97,2.01-3.99L19,26l.01-.01C19.2,25.91,21,25.15,21,28l.01-.01c.11-.1,1.02-.91,1.06-1.62A.682.682,0,0,0,22,26a.124.124,0,0,0,.03.02,1.385,1.385,0,0,1,.28.2,3.938,3.938,0,0,1,.65.71A7.029,7.029,0,0,1,24,31a2.052,2.052,0,0,1-.03.37,2,2,0,0,1-.05.26c-.34,1.3-1.71,1.57-1.9,3.03-.01.1-.02.22-.02.34v.13c.04,1.92,1,2.89,1,3.87,0,1-2,2-2,3s3,6,3,6,4.41-5,3-5v.01a13.6,13.6,0,0,1-1.04.92l-.02.02A4.072,4.072,0,0,1,24,45a1.718,1.718,0,0,1-1.23-.89l-.01-.02c-.08-.12-.15-.24-.22-.36A4.021,4.021,0,0,1,22,42v-.04c.05-.98,1.99-1.97,2-2.95V39c0-1-1-2.59-1-4a.579.579,0,0,1,.09-.3,1.7,1.7,0,0,1,.4-.48l.03-.03c.72-.67,2.01-1.44,2.37-2.56A1.9,1.9,0,0,0,26,31a14.668,14.668,0,0,0,0-3,2.734,2.734,0,0,1,.62-1.54,3.862,3.862,0,0,1,.37-.45L27,26a.06.06,0,0,0-.01.04.689.689,0,0,0-.03.51,3.409,3.409,0,0,0,1.02,1.43L28,28c0-1.38.42-1.91.88-2.09A1.581,1.581,0,0,1,30,26c-.53.88.46,1.71.86,3.24A4.278,4.278,0,0,1,31,30C31.15,31.55,29.35,32.47,28.47,32.83ZM22.78,9.33l.02-.36.47-.39.39.17Z"/><path fill="#7486ce" d="M37,20,28,41V33s.19-.06.47-.17c.88-.36,2.68-1.28,2.53-2.83a4.278,4.278,0,0,0-.14-.76L33.287,20Z"/><path fill="#7486ce" d="M26.841,25.531,24.59,27.079l-2-1.278.357-.55,1.64,1L26.5,24.941A1.375,1.375,0,0,1,26.841,25.531Z"/><path fill="#7486ce" d="M21.68,19.24s-.04.27-.07,1.02a.849.849,0,0,1-.09-.03l-.34-.53A2.4,2.4,0,0,0,21,19a1.914,1.914,0,0,1,.67.23Z"/><path fill="#c3caea" d="M23.717,21.327a9.668,9.668,0,0,0,.558,4.219l.315.192.281-.192a7.643,7.643,0,0,1-.675-4.219Z"/><path fill="#7486ce" d="M26.13,20.36l-2.2,1.78-1.51-1.51.36-.55,1.15,1.23,1.98-1.7a.442.442,0,0,1,.06.16A.852.852,0,0,1,26,20c0-.01.01-.01.01-.02.03-.06.05-.13.08-.2C26.13,19.98,26.1,20.22,26.13,20.36Z"/><path fill="#c3caea" d="M14.65,26.4l-.91-.4L11,20,19.59,0a16.21,16.21,0,0,1,.4,2.45l-.51-1.33L12,20Z"/><path fill="#c3caea" d="M20,33v8L14,27h.88l4.67,11.94-.03-6.12C19.81,32.94,20,33,20,33Z"/><path fill="#c3caea" d="M29.4,2.3l-.88-1.08-.12.89-.39.34A16.21,16.21,0,0,1,28.41,0Z"/><path fill="#c3caea" d="M26.841,25.02,24.59,26.568l-2-1.278.357-.55,1.64,1L26.5,24.43A1.375,1.375,0,0,1,26.841,25.02Z"/><path fill="#c3caea" d="M32.05,20.2A2.386,2.386,0,0,0,32,19c-.82-3.27-1-6-3-3a4.938,4.938,0,0,1,1-3L29,4s-.38-1.35-.99-.53c-.44.58-.57.75-.61.8.07-.18.7-1.75,1.31-1.41.64.36.82,2.46.82,2.46l.887,7.889c-.406.007-.934,1.539-.934,1.539s1.178-1.172,1.716.143C31.534,15.707,32.71,18.933,32.05,20.2Z"/><path fill="#c3caea" d="M37,20,28,41V33s.19-.06.47-.17V38.8L36,20Z"/><path fill="#c3caea" d="M21.83,8.81a1.074,1.074,0,0,0,.1,1.053,3.126,3.126,0,0,0-.529.871C21.023,11.477,22,12,22,12s-2,0-.53-2.18c0,0-.41-1.02.2-1.43a1.844,1.844,0,0,0,.61-2.04c-.2-.82-.3-1.94.72-2.35a2.983,2.983,0,0,0-.563.979,9.191,9.191,0,0,0,.373,2.3C22.87,7.82,22.11,8.31,21.83,8.81Z"/><path fill="#c3caea" d="M24,48s-3-5-3-6,2-2,2-3c0-.98-.96-1.95-1-3.87V35c0-.12.01-.24.02-.34.19-1.46,1.56-1.73,1.9-3.03a2,2,0,0,0,.05-.26A2.052,2.052,0,0,0,24,31a7.029,7.029,0,0,0-1.04-4.07,3.938,3.938,0,0,0-.65-.71,1.385,1.385,0,0,0-.28-.2A.124.124,0,0,1,22,26h1.66s1.267,3.514.837,5.444S22.45,33.43,22.45,35.15s.845,2.276.845,3.83c0,1.291-1.9,1.946-1.9,3.176S24,47.28,24,47.28s3-3.49,3-4.27V43C28.41,43,24,48,24,48Z"/><path fill="#c3caea" d="M21.82,16.67a3.23,3.23,0,0,0,.4,2.12,1.681,1.681,0,0,0,.56.7c-.46,2.94-.34,4.42.88,6.51H22a17.812,17.812,0,0,1-.494-3.036c0-1.04.084-2.194.1-2.7.03-.75.07-1.02.07-1.02l-.01-.01c-.03-.09-.06-.18-.09-.28a6.315,6.315,0,0,1-.35-1.72,3.267,3.267,0,0,1,.01-.7v-.01a.985.985,0,0,1,.02-.17c.27-1.67,2.25-2.66,3.88-3.06s1.84-3.07,0-3.47a3.244,3.244,0,0,0-1.12-.03c.26-.1,2.87-.66,2.87,1.87C26.89,14.45,22.38,13.7,21.82,16.67Z"/><polygon fill="#7486ce" points="29.4 2.3 36 20 37 20 29.4 2.3"/><polygon fill="#7486ce" points="12 20 13.66 20 19.012 2.3 12 20"/><polygon fill="#7486ce" points="15.67 26.85 14.65 26.4 14.57 26.36 12 20 13.66 20 15.67 26.85"/><polygon fill="#7486ce" points="16.47 31.07 14.83 27 15.69 27 16.47 31.07"/><path fill="#7486ce" d="M25.94,43.95,24,46.15l-1.23-2.04A1.718,1.718,0,0,0,24,45,4.072,4.072,0,0,0,25.94,43.95Z"/><path fill="#7486ce" d="M26,28a14.668,14.668,0,0,1,0,3,1.9,1.9,0,0,1-.11.63c-.36,1.12-1.65,1.89-2.37,2.56,2.57-2.69,1.69-5.11,1.9-6.39a2.611,2.611,0,0,1,1.57-1.79A3.422,3.422,0,0,0,26,28Z"/><path fill="#7486ce" d="M27,26l-.01.01a3.862,3.862,0,0,0-.37.45.739.739,0,0,1-.49.1C26.99,24.6,26,20,26,20s.72.62,1.14,3.73A4.179,4.179,0,0,1,27,26Z"/><path fill="#7486ce" d="M29.77,25.25a2.413,2.413,0,0,0-.89.66c-.46.18-.88.71-.88,2.09l-.02-.02a1.759,1.759,0,0,1,.3-2.38c1.26-.94,3.3-1.78,3.3-4.74C31.58,20.86,32.19,24.2,29.77,25.25Z"/><path fill="#7486ce" d="M26.1,14.04h-.01a3.285,3.285,0,0,0,1.31-2.849,2.378,2.378,0,0,0-1.39-2.3,2.178,2.178,0,0,1,1.68,1.92A2.782,2.782,0,0,1,26.1,14.04Z"/><path fill="#7486ce" d="M20,33v.66h-.01a3.457,3.457,0,0,1-2.94-3,3.747,3.747,0,0,0,2.19,2.04,2.934,2.934,0,0,0,.28.12C19.81,32.94,20,33,20,33Z"/><polygon fill="#7486ce" points="29.306 4 34.255 20 33.287 20 29.306 4"/><path fill="#c3caea" d="M18.99,15.98C17,13.01,16.82,15.74,16,19a3.234,3.234,0,0,0-.1.64s.07-5.24,1.35-5.69C18.46,13.53,18.94,15.72,18.99,15.98Z"/><path fill="#9ca9dc" d="M16.11,20.54c-.01.01-.01.01,0,.02a.01.01,0,0,1-.01-.01Z"/><path fill="#c3caea" d="M19.5,20.966a2.368,2.368,0,0,1-3.391-.406c.75,1.11,3.29.14,3.46-.34.4-1.14-1.31-2.08-1.54-2.21C18.161,17.951,21.273,19.46,19.5,20.966Z"/><path fill="#c3caea" d="M21.01,27.99,21,28c0-2.85-1.8-2.09-1.99-2.01.14-.14,1.29-1.25,1.99-.27A2.209,2.209,0,0,1,21.01,27.99Z"/><path fill="#c3caea" d="M21.6,20.49s-.21-.48-.4-.47A2.528,2.528,0,0,0,21,19,1.785,1.785,0,0,1,21.6,20.49Z"/><path fill="#c3caea" d="M27,19l-.01.02a1.482,1.482,0,0,0-.59,1.65l-.09-.13L26,20c0-.01.01-.01.01-.02.16-.37.24-.82.93-.96A.322.322,0,0,0,27,19Z"/><path fill="#c3caea" d="M29.98,18v.01c-.01.01-.03.01-.05.02a4.273,4.273,0,0,0-3.09,4.05l-.28-.87-.13-.43-.03-.11.4-.65.01-.02a2.652,2.652,0,0,1,.16-.23,5.106,5.106,0,0,1,.75-.82,4.12,4.12,0,0,1,.45-.35,2.392,2.392,0,0,1,.21-.13,3.239,3.239,0,0,1,.32-.17,1.476,1.476,0,0,1,.29-.12,3.693,3.693,0,0,1,.61-.15c.02,0,.03-.01.05-.01.1-.01.2-.02.3-.02Z"/><path fill="#c3caea" d="M30,18a.031.031,0,0,0-.02.01V18Z"/><path fill="#7486ce" d="M26.8,20.02l-.4.65a1.482,1.482,0,0,1,.59-1.65A2.593,2.593,0,0,0,26.8,20.02Z"/><path fill="#c3caea" d="M25.97,19.77l-2.038,1.771-1.509-1.5.357-.55,1.152,1.221,1.7-1.531A1.375,1.375,0,0,1,25.97,19.77Z"/><path fill="#7486ce" d="M29.93,18.03c-.3.17-1.59.93-1.56,1.87a8.821,8.821,0,0,0-1.15,4.53l-.72-3.1.06-.12.28.87A4.273,4.273,0,0,1,29.93,18.03Z"/></g></svg>