<svg xmlns="http://www.w3.org/2000/svg"  viewBox="0 0 48 48" width="1600px" height="1600px" baseProfile="basic"><rect width="36" height="36" x="6" y="6" fill="#2b2b2b"/><path fill="#ff3744" d="M15.813,24.984c0,0-1.781-0.539-1.829-2.794l0.007-2.951c0-1.249,1.132-2.229,2.363-2.231	l17.204-0.017c1.883-0.002,3.408-1.617,3.408-3.529l0,0H15.942c-2.75-0.002-4.98,2.26-4.98,5.052v1.687	c0,2.661,2.028,4.602,4.645,4.755C15.729,24.965,15.802,24.974,15.813,24.984z"/><path fill="#89ebff" d="M32.996,21.999c0,0,1.864,0.776,2,2.813v3.237c0,1.249-1.242,2.358-2.491,2.359l-20.044,0.017	c-1.912,0.002-3.479,1.672-3.479,3.583l0,0h23.922c2.792,0.002,5.075-2.315,5.075-5.107v-1.7c0-2.679-2.132-5.004-4.805-5.188	C33.081,22.006,33.005,22.008,32.996,21.999z"/><path fill="#fff" d="M31.885,23.971c0,0-1.839-0.088-3.265-0.304c-0.935-0.142-1.735-0.35-2.223-0.492	c-0.293-0.693-0.979-1.18-1.779-1.18c-0.815,0-1.508,0.506-1.792,1.22c-0.438,0.115-1.222,0.302-2.21,0.452	c-1.426,0.217-3.25,0.304-3.25,0.304s2.434,0.151,3.25,0.28c0.659,0.103,1.771,0.419,2.305,0.576	c0.325,0.609,0.959,1.029,1.697,1.029c0.782,0,1.451-0.467,1.755-1.135c0.451-0.133,1.197-0.32,2.247-0.471	C29.438,24.133,31.885,23.971,31.885,23.971z"/></svg>