<svg xmlns="http://www.w3.org/2000/svg"  viewBox="0 0 48 48" width="1600px" height="1600px"><path fill="#37474f" d="M19.78,31.91c0.5-0.99,0.11-2.19-0.87-2.69l-3.09-1.57C16.45,27.24,17.2,27,18,27 c2.21,0,4,1.79,4,4c0,2.21-1.79,4-4,4c-2.14,0-3.88-1.68-3.99-3.79l3.08,1.57C17.38,32.93,17.69,33,18,33 C18.73,33,19.43,32.6,19.78,31.91z"/><path fill="#37474f" d="M29,13c-3.31,0-6,2.69-6,6s2.69,6,6,6s6-2.69,6-6S32.31,13,29,13z M29,23c-2.21,0-4-1.79-4-4 s1.79-4,4-4s4,1.79,4,4S31.21,23,29,23z"/><path fill="#37474f" d="M44,24c0,11.05-8.95,20-20,20C13.69,44,5.21,36.21,4.12,26.19l7.94,4.03 C12.02,30.48,12,30.74,12,31c0,3.31,2.69,6,6,6s6-2.69,6-6c0-0.17-0.01-0.33-0.03-0.5c0.43-0.26,0.88-0.54,1.36-0.83 c1.39-0.83,2.92-1.77,4.15-2.69C33.67,26.73,37,23.26,37,19c0-4.42-3.58-8-8-8s-8,3.58-8,8c0,0.09,0.01,0.18,0.01,0.28 c-0.82,1.14-1.63,2.48-2.36,3.7c-0.47,0.77-0.91,1.5-1.28,2.05c-1.36,0.14-2.57,0.74-3.51,1.63l-9.73-4.95 C5.27,11.74,13.73,4,24,4C35.05,4,44,12.95,44,24z"/></svg>