<svg xmlns="http://www.w3.org/2000/svg"  viewBox="0 0 48 48" width="1600px" height="1600px"><path fill="#ff7501" d="M27,20c-3.87,0-7,3.13-7,7s3.13,7,7,7s7-3.13,7-7S30.87,20,27,20z M27,29c-1.1,0-2-0.9-2-2 s0.9-2,2-2s2,0.9,2,2S28.1,29,27,29z"/><circle cx="11" cy="11" r="3" fill="#ff7501"/><path fill="#ff7501" d="M30,10.28V6c0-1.657-1.343-3-3-3s-3,1.343-3,3v4.28C17.019,11.525,11.525,17.019,10.28,24H6 c-1.657,0-3,1.343-3,3s1.343,3,3,3h4.28c1.419,7.956,8.355,14,16.72,14c9.39,0,17-7.61,17-17C44,18.635,37.956,11.699,30,10.28z M27,38c-6.061,0-11-4.939-11-11s4.939-11,11-11s11,4.939,11,11S33.061,38,27,38z"/></svg>