<svg xmlns="http://www.w3.org/2000/svg"  viewBox="0 0 48 48" width="1600px" height="1600px"><path fill="#424242" d="M2.335,16.5c0-4.59,3.561-4.678,3.561-4.678s0.105-0.285,0.356-0.313 c0.759-0.082,2.582,0.007,2.582,0.007s0.136-0.269,0.467-0.296c0.651-0.053,2.407-0.027,2.407-0.027s-0.006-0.433,0.401-0.454 c0.418-0.021,1.386-0.023,2.165-0.02c0.622,0.002,1.12,0.514,1.107,1.136l-0.021,0.354c0,0,1.309,0.029,1.74,0.029 c0.361,0,0.306,0.391,0.562,0.385c0.241-0.005,0.217-0.379,0.567-0.379c0.491,0,2.213-0.025,2.213-0.025s0.187-0.483,0.569-0.607 c0.593-0.192,2.141-0.379,2.548-0.332c0.407,0.047,1.111,0.751,1.111,0.751s0.306-0.838,0.861-1.083 c0.6-0.264,2.234-0.416,2.601-0.349c0.373,0.068,1.03,0.925,1.03,0.925s2.98-0.923,4.049-0.943 c0.527-0.01,1.606,0.733,1.606,0.733s0.084-0.614,0.192-0.785c0.135-0.215,0.545-0.563,0.785-0.646 c0.516-0.179,2.517-0.179,2.832-0.031c0.277,0.13,0.576,0.528,0.651,0.788c0.02,0.069,0.025,1.04,0.025,1.04h0.314 c0,0,0.104-1.099,0.122-1.204c0.046-0.265,0.611-0.717,0.785-0.733c0.754-0.069,2.88,0.14,2.88,0.14s0.025-0.296,0.269-0.317 c0.453-0.039,2.267,0.049,2.436,0.16c0.299,0.195,0.914,0.761,0.89,1.117c-0.192,2.845-0.841,7.659-1.361,10.176 c-0.157,0.759-1.361,0.655-1.361,0.655l-0.524,2.854c0,0,0.957,0.616,1.257,1.937c0.209,0.925,0.118,3.953-0.419,5.288 c-0.572,1.422-2.164,3.011-5.341,3.011c-2.299,0-4.398-0.475-4.398-1.649c0-0.938,0.419-4.529,0.419-4.529 s-0.305-0.809-0.55-0.812c-0.136-0.001-0.31,0.309-0.314,0.445c-0.039,1.335,0.052,3.862-0.026,5.681 c-0.017,0.402-0.655,0.905-0.995,0.995c-0.445,0.118-3.507,0.253-3.862,0.131c-0.838-0.288-0.851-1.178-0.851-1.178 s-0.223-3.364-0.236-4.529c-0.003-0.285-0.681-0.916-0.681-0.916s1.26,8.037-5.825,8.037c-3.835,0-4.883-2.513-4.883-2.513 s-1.911,4.87-7.54,4.87S1,34.661,1,29.503c0-4.529,2.409-6.493,2.409-6.493v-3.115C3.409,19.895,2.335,19.371,2.335,16.5z"/><path fill="#9e9e9e" d="M6.285,13.56l0.079-0.296h1.991l-0.138,2.287c0,0-2.237-0.378-2.237,0.197 c0,0.601,3.44,0.318,3.44,2.76c0,3.252-4.996,2.218-4.996,2.218l0.17-2.199c0,0,2.243,0.635,2.382-0.013 c0.17-0.791-3.521-0.026-3.521-2.644C3.455,13.619,6.285,13.56,6.285,13.56z"/><polygon fill="#9e9e9e" points="9.211,13.044 12.143,12.991 12.156,12.481 14.176,12.481 13.744,15.034 12.601,15.125 12.837,20.139 10.441,20.287 10.264,15.26 8.975,15.308"/><path fill="#9e9e9e" d="M14.469,14.041l-0.471,2.129h0.713c0,2.37-0.332,5.096,3.054,5.096 c3.473,0,2.875-4.067,2.875-7.278l-2.281-0.017c0,0,0.013,2.638,0.013,3.705c0,0.798-0.153,1.255-0.679,1.255 c-0.519,0-0.704-0.414-0.704-1.242c0-1.076-0.009-3.683-0.009-3.683L14.469,14.041z"/><path fill="#9b2000" d="M16.806,22.992l-0.513,3.339l0.782-0.051c0.24,3.663,0.003,7.911,5.237,7.568 c5.368-0.351,4.031-6.577,3.706-11.54l-3.528,0.204c0,0,0.287,4.075,0.395,5.725c0.081,1.234-0.11,1.956-0.922,2.009 c-0.802,0.053-1.13-0.569-1.213-1.849c-0.109-1.663-0.387-5.691-0.387-5.691L16.806,22.992z"/><polygon fill="#9e9e9e" points="21.068,13.363 20.897,15.601 21.434,15.654 22.102,20.458 24.366,20.183 23.908,16.387 25.283,17.526 26.382,15.837 26.998,19.751 28.987,19.528 28.019,12.303 25.715,12.712 24.838,14.368 23.31,13.106"/><path fill="#9e9e9e" d="M35.773,17.207c-0.262-1.309-1.518-1.676-1.518-1.676s0.733-0.681,0.524-1.745 c-0.209-1.065-1.361-1.658-2.339-1.361c-0.977,0.297-3.491,0.943-3.491,0.943l-0.07,2.112l0.628-0.035l1.169,4.852 c0,0,3.334-0.82,3.7-0.89C34.743,19.336,36.034,18.516,35.773,17.207z"/><polygon fill="#9e9e9e" points="35.873,11.639 38.246,11.604 38.368,16.509 39.934,16.366 39.533,18.679 36.291,18.865 35.946,14.083 35.282,14.117"/><polygon fill="#9e9e9e" points="40.507,11.478 43.639,11.604 43.692,11.395 45.684,11.441 44.968,13.972 42.714,13.996 42.714,14.397 45.309,14.373 44.757,16.152 42.557,16.125 42.505,16.649 45.127,16.622 44.438,18.869 40.035,18.682 40.284,13.311 39.898,13.279"/><path fill="#b02a00" d="M16.46,28.459l-6.122-0.867l-1.396,3.403l2.335,0.277c-0.508,0.458-1.174,0.745-1.912,0.745 c-1.583,0-2.867-1.283-2.867-2.867c0-1.583,1.283-2.867,2.867-2.867c0.974,0,1.833,0.489,2.35,1.232l3.881-2.851l-2.72-2.159 l-0.343,0.287c-0.968-0.488-2.058-0.768-3.217-0.768c-3.967,0-7.182,3.216-7.182,7.182s3.216,7.182,7.182,7.182 s7.182-3.216,7.182-7.182C16.499,28.954,16.485,28.705,16.46,28.459z"/><path fill="#780e00" d="M42.996,20.755l-0.657,3.355c0,0-2.775-1.283-3.246-0.209c-0.471,1.073,5.158,0.655,4.713,4.896 c-0.231,2.2-2.094,3.43-4.555,3.43c-2.461,0-3.508-0.916-3.508-0.916l0.707-3.142c0,0,3.6,0.887,3.726,0.026 c0.135-0.918-5.533-0.628-4.774-4.555c0.759-3.927,4.686-2.775,4.686-2.775l0.079-0.445L42.996,20.755z"/><polygon fill="#861500" points="25.845,21.728 29.458,27.54 29.825,32.435 33.281,32.226 32.783,26.362 35.061,21.099 31.657,21.361 30.977,23.743 29.642,21.466"/><g><path fill="#fff" d="M6.357,12.703l0.079-0.296h1.991l-0.138,2.287c0,0-2.237-0.378-2.237,0.197 c0,0.601,3.44,0.318,3.44,2.76c0,3.252-4.996,2.218-4.996,2.218l0.17-2.199c0,0,2.243,0.635,2.382-0.013 c0.17-0.791-3.521-0.026-3.521-2.644C3.526,12.762,6.357,12.703,6.357,12.703z"/><polygon fill="#fff" points="9.312,12.132 12.245,12.08 12.258,11.57 14.326,11.57 13.894,14.122 12.703,14.214 12.938,19.227 10.543,19.375 10.365,14.349 9.077,14.397"/><path fill="#fff" d="M14.675,13.132l-0.471,2.129h0.506c0,2.37-0.332,5.096,3.054,5.096 c3.473,0,2.875-4.067,2.875-7.278l-2.281-0.017c0,0,0.013,2.638,0.013,3.705c0,0.798-0.153,1.255-0.679,1.255 c-0.519,0-0.704-0.414-0.704-1.242c0-1.076-0.009-3.683-0.009-3.683L14.675,13.132z"/><path fill="#ffb300" d="M16.989,21.971l-0.513,3.339l0.782-0.051c0.24,3.663,0.003,7.911,5.237,7.568 c5.368-0.351,4.031-6.577,3.706-11.54l-3.528,0.204c0,0,0.287,4.075,0.395,5.725c0.081,1.234-0.11,1.956-0.922,2.009 c-0.802,0.053-1.13-0.569-1.213-1.849c-0.109-1.663-0.387-5.691-0.387-5.691L16.989,21.971z"/><polygon fill="#fff" points="21.146,12.447 20.976,14.685 21.513,14.737 22.18,19.542 24.445,19.267 23.987,15.47 25.361,16.609 26.461,14.921 27.076,18.835 29.066,18.612 28.097,11.386 25.794,11.796 24.916,13.452 23.389,12.19"/><path fill="#fff" d="M35.811,16.291c-0.262-1.309-1.518-1.676-1.518-1.676s0.733-0.681,0.524-1.745 c-0.209-1.065-1.361-1.658-2.339-1.361c-0.977,0.297-3.491,0.943-3.491,0.943l-0.07,2.112l0.628-0.035l1.169,4.852 c0,0,3.334-0.82,3.7-0.89C34.782,18.42,36.073,17.6,35.811,16.291z M31.588,13.708c0,0,1.047-0.541,1.222,0.14 c0.175,0.681-1.047,0.803-1.047,0.803L31.588,13.708z M32.286,17.006l-0.192-1.03c0,0,1.065-0.524,1.222,0.209 C33.473,16.919,32.286,17.006,32.286,17.006z"/><polygon fill="#fff" points="35.567,12.922 36.003,10.723 38.377,10.688 38.499,15.593 40.088,15.453 39.686,17.757 36.422,17.949 36.082,12.931"/><polygon fill="#fff" points="40.07,12.783 40.803,10.601 43.77,10.688 43.823,10.479 45.935,10.566 45.219,13.097 42.845,13.079 42.845,13.481 45.586,13.481 45.027,15.278 42.688,15.209 42.636,15.732 45.376,15.785 44.695,18.036 40.315,17.862 40.493,12.813"/><path fill="#ffc400" d="M16.643,27.438l-6.122-0.867l-1.396,3.403l2.335,0.277c-0.508,0.458-1.174,0.745-1.912,0.745 c-1.583,0-2.867-1.283-2.867-2.867c0-1.583,1.283-2.867,2.867-2.867c0.974,0,1.833,0.489,2.35,1.232l3.881-2.851l-2.72-2.159 l-0.343,0.287c-0.968-0.488-2.058-0.768-3.217-0.768c-3.967,0-7.182,3.216-7.182,7.182s3.216,7.182,7.182,7.182 s7.182-3.216,7.182-7.182C16.682,27.933,16.668,27.684,16.643,27.438z"/><path fill="#ff8f00" d="M43.203,19.738l-0.707,3.613c0,0-2.749-1.335-3.22-0.262c-0.471,1.073,5.158,0.445,4.713,4.686 c-0.231,2.2-2.094,3.43-4.555,3.43s-3.456-0.89-3.456-0.89l0.707-3.168c0,0,3.462,1.201,3.588,0.34 c0.135-0.918-5.499-0.759-4.74-4.686c0.759-3.927,4.739-2.958,4.739-2.958l0.079-0.445L43.203,19.738z"/><polygon fill="#ffa000" points="26.029,20.707 29.642,26.519 30.008,31.414 33.464,31.205 33.176,25.995 35.715,20.104 31.841,20.34 31.16,22.722 29.825,20.445"/></g></svg>