<svg xmlns="http://www.w3.org/2000/svg"  viewBox="0 0 48 48" width="1600px" height="1600px"><path fill="#fc972b" d="M6,12c-1.5,0-2,0.25-2,0.25l1.875,2.625L3.03,14.02L3,14c0,0,0,3,2,4h5v-5C10,13,8.029,12,6,12z"/><path fill="#303f9f" d="M43.75,33.125c-0.375-3.875-1.494-5.007-3.125-6.375c-1.715-1.439-3.737-1.695-6.625-1.74 C33.376,25,32.711,25,32,25c-4,0-7,0-7,0v8.308c0.362,0.624,0.707,1.21,1,1.692c1.75,2.875,5.5,9,9,9c2,0,2.727-0.285,5.75-2.25 C43.25,40.125,46,40,46,40S44.118,36.931,43.75,33.125z"/><path fill="#3f51b5" d="M46,40c0,0-3.375-4.375-9.375-8.375c-4.269-2.846-7.65-5.365-9.19-7.29C26.935,23.71,26,21.917,26,21 c0-2.921-1.146-5.568-3.003-7.538c-0.01-1.128,0.007-1.716,0.878-2.587c1-1,2-0.875,2.75-0.875c1,0,1.51-0.616,2.375-1.625 C29.75,7.5,31.013,6.976,31,6.5C30.994,6.267,30.631,6,30,6c-2.5,0-4.485,0.966-7.375,2.25c-4.061,1.805-6.993,1.777-7.529,1.755 C15.064,10.005,15.032,10,15,10C8.925,10,4,14.925,4,21c0,2.359,0.749,4.539,2.013,6.33L6,27.326c0,0,1,1.395,1,3.674 c0,3,0,8.25,0.875,11c0.24,0.753,0.75,1,1,1c0.5,0,0.75-1.125,0.875-2.5C9.886,39.006,11,38.625,11,37.875C11,37,10,36.75,10,34.5 c0-1.187,0.317-2.325,0.986-3.267C12.23,31.722,13.582,32,15,32h0.125c0.55,0,1.079,0.171,1.547,0.459 C19.001,33.888,22.402,35,26,35C34.125,35,41.125,37.875,46,40z"/><path fill="#ffd54f" d="M14 13A7 7 0 1 0 14 27A7 7 0 1 0 14 13Z"/><path fill="#c68632" d="M14 16A4 4 0 1 0 14 24A4 4 0 1 0 14 16Z"/><path fill="#37474f" d="M14 17A3 3 0 1 0 14 23A3 3 0 1 0 14 17Z"/><path fill="#5aaef6" d="M3 9A1 1 0 1 0 3 11 1 1 0 1 0 3 9zM6.5 3A1.5 1.5 0 1 0 6.5 6 1.5 1.5 0 1 0 6.5 3zM12.5 2A1.5 1.5 0 1 0 12.5 5 1.5 1.5 0 1 0 12.5 2zM7 8A1 1 0 1 0 7 10 1 1 0 1 0 7 8z"/><path fill="#eee" d="M16 19A1 1 0 1 0 16 21A1 1 0 1 0 16 19Z"/><path fill="#303f9f" d="M21.999 30c-.209 0-.419-.065-.6-.2-.441-.332-.53-.958-.199-1.4l1.484-1.979c.331-.441.957-.531 1.4-.2.441.332.53.958.199 1.4L22.8 29.6C22.604 29.862 22.303 30 21.999 30zM25.999 32c-.209 0-.419-.065-.599-.2-.442-.331-.532-.958-.2-1.4l.752-1.002c.331-.442.958-.532 1.399-.2.442.331.532.958.2 1.4L26.8 31.6C26.604 31.862 26.303 32 25.999 32zM30.562 33.25c-.209 0-.419-.065-.6-.2-.441-.332-.53-.958-.199-1.4l.189-.252c.331-.442.957-.531 1.4-.2.441.332.53.958.199 1.4l-.189.252C31.166 33.112 30.865 33.25 30.562 33.25z"/></svg>