<svg xmlns="http://www.w3.org/2000/svg"  viewBox="0 0 48 48" width="1600px" height="1600px"><path fill="#4fc3f7" d="M42,10v9H6v-9c0-2.21,1.79-4,4-4h28C40.21,6,42,7.79,42,10z"/><circle cx="16" cy="19" r="10" fill="#b3e5fc"/><polygon fill="#81d4fa" points="6,18 6,13 7,13 7,15 8,14 9,15 9,11 9.75,11 9.75,9 10.25,9 10.25,11 11,11 11,15 12,15 12,9 13,9 13,11 16,11 16,14 17,14 17,11 18,11 18,13 19,13 19,14 20,14 20,11 21,11 21,12 24,12 24,18"/><path fill="#ff7043" d="M42,18v20c0,2.21-1.79,4-4,4H10c-0.44,0-0.86-0.07-1.25-0.2C7.15,41.28,6,39.77,6,38V18H42z"/><path fill="#e0e0e0" d="M27.64,42H17.25c-0.89-0.85-1.74-1.98-2.25-3c0,0,1-4.75,2.75-7c2.3,3.14,4.96,2.25,6.2,1.58	c0.24-0.13,0.43-0.25,0.55-0.33L27.64,42z"/><path fill="#212121" d="M42,16.27V38c0,2.21-1.79,4-4,4H25.96c-0.82-2.35-1.51-5.51-2.01-8.42C23.34,30.06,23,26.91,23,26	l-0.5-2.25l0.93-1.07L27.5,18L42,16.27z"/><path fill="#d50000" d="M37.63,42h-3.19c-1.33-0.92-2.06-3.02-1.69-5.25c1.25-1.5,7.57-5.45,8.25-1	C41.39,38.26,39.53,40.92,37.63,42z"/><polygon fill="#ed9c5c" points="35.25,36 34.75,41 36,41.75 39,39.25 39.5,34"/><path fill="#757575" d="M28.68,42h-2.72c-0.82-2.35-1.51-5.51-2.01-8.42C23.34,30.06,23,26.91,23,26l-0.5-2.25l0.93-1.07	C23.8,24.67,24.08,30,25.75,35C26.73,37.95,27.83,40.48,28.68,42z"/><polygon fill="#7b3201" points="24,23.5 22,28 24,27 24,32 27,29"/><path fill="#f4bb75" d="M42,19.25v14.08C40.06,35.29,37.39,37,34,37c-8,0-8.25-4-8.5-6c-0.21-1.68-1.3-4.6-2.09-6.23	C23.26,24.46,23.12,24.2,23,24c-1.5-3,2.75-6.25,4-7s11.25,0,12,0.25C39.55,17.43,40.92,18.43,42,19.25z"/><path fill="#e0e0e0" d="M42,14.05v4.05l-3.06-2.75L38,14.5V11C38.95,11.38,40.75,12.9,42,14.05z"/><path fill="#fafafa" d="M21.5,19c-0.75-0.75-1.25-1.5-1.5-1.75s1.25-7,8-9S37.75,9,38.5,9.5c0.5,1.25,2.25,6.5,2.75,7.5	c-1.5-0.25-13.5-1.5-13.5-1.5L21.5,19z"/><path fill="#ed9c5c" d="M32.5,29c0.75-0.5,2.5-0.75,3.25-0.5s-1.5,1.75-2,2s-3,0.5-2.75,0S31.75,29.5,32.5,29z"/><path fill="#ed9c5c" d="M33.5,34c-0.276,0-0.5-0.224-0.5-0.5s0.224-0.5,0.5-0.5c0.449,0,1.5,0,2.1-0.8	c0.166-0.221,0.479-0.266,0.7-0.101c0.221,0.166,0.266,0.479,0.1,0.7C35.5,34,34.047,34,33.5,34z"/><path fill="#7b3201" d="M33,19.25v1.5L32,20c-0.5,0.75,0,2.5,1.5,2.5s2-2.25,3-2.25s5-0.25,5.25-0.25s-1.75-2.5-4-2.5	S34,18.5,33,19.25z"/><path fill="#7b3201" d="M28,20l-0.5,1.25l-1-1.25c0,0-3.25,1.5-3,4.25c1-1.25,2-1.25,3-1.25C27.775,23,29.25,22.25,28,20z"/><path fill="#fafafa" d="M41.5,22.5c0,0.5,0,1.25,0,1.25c-0.2,0.2-0.86,0.74-1.76,1.18c-0.72,0.36-1.6,0.66-2.52,0.68	C36.49,25.63,35.73,25.46,35,25c0-0.5,0.25-1.25,0.5-1.75c0.05-0.11,0.18-0.24,0.34-0.37c0.21-0.17,0.48-0.34,0.76-0.49	c0.48-0.28,1.01-0.51,1.38-0.63c0.01-0.01,0.01-0.01,0.02-0.01c0.11-0.04,0.25-0.05,0.42-0.05c0.31,0,0.71,0.07,1.12,0.16	c0.35,0.08,0.7,0.18,1.01,0.29C40.98,22.28,41.33,22.41,41.5,22.5z"/><path fill="#fafafa" d="M30.25,26.75c-0.1,0.39-0.39,0.82-0.79,1.2c-0.56,0.51-1.33,0.94-2.13,1.03	C27.22,28.99,27.11,29,27,29c-1.5,0-2.25-1-2.25-1S25,26.5,25,26c0.35-0.26,0.72-0.46,1.1-0.61C26.81,25.11,27.51,25,28,25	c0.05,0,0.1,0.01,0.15,0.02c0.37,0.09,0.85,0.48,1.27,0.87c0.05,0.04,0.1,0.09,0.15,0.14c0.01,0.01,0.01,0.01,0.01,0.02	C29.97,26.41,30.25,26.75,30.25,26.75z"/><path fill="#ef6c00" d="M40.25,23.5c0,0.54-0.19,1.04-0.51,1.43c-0.72,0.36-1.6,0.66-2.52,0.68	c-0.86-0.32-1.47-1.15-1.47-2.11c0-0.21,0.03-0.42,0.09-0.62c0.21-0.17,0.48-0.34,0.76-0.49c0.48-0.28,1.01-0.51,1.38-0.63	c0.01-0.01,0.01-0.01,0.02-0.01c0.32-0.11,0.92-0.03,1.54,0.11C39.98,22.27,40.25,22.86,40.25,23.5z"/><path fill="#212121" d="M39.5,23.38c0,0.89-0.73,1.62-1.62,1.62c-0.9,0-1.63-0.73-1.63-1.62c0-0.37,0.12-0.72,0.35-0.99	c0.48-0.28,1.01-0.51,1.38-0.63C38.82,21.81,39.5,22.51,39.5,23.38z"/><path fill="#ef6c00" d="M29.75,26.88c0,0.39-0.11,0.76-0.29,1.07c-0.56,0.51-1.33,0.94-2.13,1.03	c-1.03-0.14-1.83-1.03-1.83-2.1c0-0.58,0.23-1.1,0.6-1.49C26.81,25.11,27.51,25,28,25c0.42,0,1.07,0.55,1.57,1.03	c0.01,0.01,0.01,0.01,0.01,0.02C29.69,26.3,29.75,26.58,29.75,26.88z"/><circle cx="27.5" cy="26.75" r="1.5" fill="#212121"/><path fill="#d50000" d="M18.25,38.75l-4.25,2L9.75,40.5l-0.54-2.44L8.99,37.1l-0.35-1.6l-0.71-3.19L6.75,27	c1.12-0.64,3.67-1.07,6.08-1.1c0.14-0.01,0.28-0.01,0.42-0.01c0.28,0,0.55,0.01,0.82,0.02c0.23,0.01,0.46,0.03,0.67,0.05	c0.65,0.05,1.25,0.15,1.76,0.29c0.44,3.14,0.77,5.5,1.01,7.26c0.13,0.86,0.23,1.58,0.31,2.18C18.25,38.75,18.25,38.75,18.25,38.75z"/><path fill="#f4bb75" d="M10,19c0,0-0.5-0.75-0.5-1.25s2.25-1.25,2.75-1s1.5,2.25,1.75,3s0,2.5,0,2.5l-3-0.75L10,19z"/><polygon fill="#cfd8dc" points="9.5,22 9.5,18.5 12.5,18.25 13,22"/><path fill="#b0bec5" d="M7.5,27.25c1-0.25,3.75-1.25,8.75-0.75c1.244,0.124,1-1.25,0.25-1.25C16,21.5,13.25,21,11.5,21	C6.993,21,7,25.25,7,26.25C6.5,26.25,5.75,27.75,7.5,27.25z"/><path fill="#f4bb75" d="M8.5,23.75c0.25-0.5,0.75-1.75,0-2s-1.75,0-2,0.75s-0.25,1.75,0.25,2C7.457,24.854,8,24.75,8.5,23.75	z"/><circle cx="10.625" cy="19.875" r=".625" fill="#212121"/><path fill="#fafafa" d="M17.82,35.69C17.31,36.79,15.93,39,14,39c-1.51,0-3.59-0.57-4.79-0.94L8.99,37.1l1.26-1.1L11,36.25	l0.25-0.5c0,0,1.25,0.75,2,0.5s1.75-1.5,0.25-1.5c-1.25,0-3.56,0.35-4.86,0.75l-0.71-3.19l0.32-0.56c0.5-0.25,1.5-1.5,1.5-3.5	c1.08-0.54,2.41-1.72,3.08-2.35c0.14-0.01,0.28-0.01,0.42-0.01v1.86l0.82-1.84c0.23,0.01,0.46,0.03,0.67,0.05	c-0.03,1.09-0.05,3.3,1.01,4.79c-1.5,1.25-2.75,2-2.75,2L12.5,31c-0.5,1-1.5,3,0,2.75s3.25-1.25,5-0.25c0,0,0.01,0,0.01,0.01	C17.64,34.37,17.74,35.09,17.82,35.69z"/><path fill="#d50000" d="M42,17.28v3.41c-0.66-0.46-1.5-1.44-2.75-2.44c-0.62,0-0.76-0.32-1.83-0.37	c-4.31-0.2-11.38,0-14.01,6.89c-0.16,0.39-0.29,0.8-0.41,1.23c-0.78-0.45-1.87-1.35-2.67-2.36c-0.99-1.25-1.55-2.67-0.58-3.64	c1.75-1.75,5-4.5,6.25-5.25c1.08-0.65,9.76,0.19,12.94,0.6c0.52,0.06,0.89,0.12,1.06,0.15C40.71,15.64,41.43,16.44,42,17.28z"/><path fill="#212121" d="M37.42,17.88C32.87,17.67,25.23,17.9,23,26c-0.78-0.45-1.87-1.35-2.67-2.36	c0.93-1.68,3.43-5.56,6.67-6.64C30.21,15.93,34.89,17.06,37.42,17.88z"/><path fill="#d50000" d="M39.375,36.931c-0.698,2.285-1.99,2.807-3.609,3.819c-0.928-0.398-1.426-1.356-1.66-2.282	l-1.356,0.396c0.201,1.364,0.813,2.519,1.706,3.136h3.19c1.726-0.981,3.399-3.265,3.403-5.557L39.375,36.931z"/><path fill="#f4bb75" d="M8.25,28.25c0,0.75,0,1.5-0.75,1.75S6,29.25,6,28.25s0.5-1.5,1.25-1.25S8.25,27.75,8.25,28.25z"/><path fill="#f4bb75" d="M7.5,30c0.75,0,1,0.75,1,1.25s0,1.25-0.5,1.25s-1.25,0-1.5-1S7,30,7.5,30z"/><path fill="#f4bb75" d="M17.623,34.268c0,0,1.682-3.154,1.877-3.518s-0.655-2.552-0.955-2.992s-0.841-0.976-2.295-1.258	s-1.405,1.494-1.332,1.902c0.073,0.408,2.087,1.462,2.087,1.462L17.623,34.268z"/><path fill="#b0bec5" d="M10.25,40.25c1.733,0.347,4.835-0.292,7.75-1.75c1-0.5,0.75,0.75,0,1.25	c-0.588,0.392-4.678,2.153-7.5,1.75C8.75,41.25,9,40,10.25,40.25z"/><path fill="#fafafa" d="M29.42,25.89L27.75,27l0.4-1.98C28.52,25.11,29,25.5,29.42,25.89z"/><path fill="#fafafa" d="M40.55,22.15L38,24l0.42-2.3c0.31,0,0.71,0.07,1.12,0.16C39.89,21.94,40.24,22.04,40.55,22.15z"/><ellipse cx="32.586" cy="28.777" fill="#fadcc4" rx=".936" ry=".75" transform="rotate(-21.192 32.589 28.779)"/><path fill="none" stroke="#7b3201" stroke-linecap="round" stroke-linejoin="round" stroke-miterlimit="10" stroke-width=".5" d="M40.25,28.25c0,0-0.5,0-0.75,0c-0.5,0.5-2.5,2.75-3.25,3S35,32,34.5,32.75C33.5,32.5,32.25,33,32,33s-1.5-0.25-2.25-0.5l-0.5,0.25"/><ellipse cx="32.25" cy="30.375" fill="#7b3201" rx=".5" ry=".375"/><ellipse cx="34.604" cy="29.396" fill="#7b3201" rx=".5" ry=".375" transform="rotate(-45.001 34.603 29.397)"/><path fill="#212121" d="M23.1,27.45L22,28l0.91-2.06c-0.77-0.46-1.81-1.32-2.58-2.3c-0.99-1.25-1.55-2.67-0.58-3.64	c0.31-0.31,0.67-0.65,1.05-1h-1.47c-0.1,0.1-0.2,0.2-0.29,0.29c-0.57,0.58-1.68,2.22,0.51,4.97c0.66,0.83,1.44,1.54,2.11,2.04	l-0.57,1.29c-0.18,0.39-0.09,0.84,0.22,1.13C21.5,28.9,21.75,29,22,29c0.09,0,0.17-0.01,0.26-0.03c0.15,1.25,0.35,2.65,0.58,4.02	c-0.37,0.13-0.81,0.24-1.27,0.24c-0.68,0-1.31-0.22-1.9-0.67c0.34-0.64,0.64-1.2,0.71-1.34c0.59-1.09-0.99-4-1.01-4.03	c-0.32-0.46-0.73-0.83-1.26-1.11c0.01-0.09,0.01-0.18,0-0.27c-0.03-0.54-0.31-1.01-0.72-1.28c-0.39-1.91-1.36-2.98-2.28-3.59	c0.01-0.64-0.04-1.14-0.16-1.51c0,0-0.07-0.17-0.18-0.43h-1.08c0.14,0.3,0.25,0.56,0.31,0.75c0.14,0.43,0.12,1.19,0.08,1.76	c1.13,0.54,2.14,1.62,2.42,3.74c0.68,0,0.93,1.13,0.03,1.24c0.01,0.02,0.01,0.05,0.01,0.08c1.23,0.29,1.73,0.78,2,1.19	c0.31,0.44,1.16,2.63,0.96,2.99c-0.1,0.19-0.62,1.16-1.08,2.03c1.06,1.1,2.17,1.45,3.15,1.45c0.97,0,1.82-0.35,2.38-0.65	C23.53,31.15,23.24,28.91,23.1,27.45z M23.1,27.45L22,28l0.91-2.06c-0.77-0.46-1.81-1.32-2.58-2.3c-0.99-1.25-1.55-2.67-0.58-3.64	c0.31-0.31,0.67-0.65,1.05-1h-1.47c-0.1,0.1-0.2,0.2-0.29,0.29c-0.57,0.58-1.68,2.22,0.51,4.97c0.66,0.83,1.44,1.54,2.11,2.04	l-0.57,1.29c-0.18,0.39-0.09,0.84,0.22,1.13C21.5,28.9,21.75,29,22,29c0.09,0,0.17-0.01,0.26-0.03c0.15,1.25,0.35,2.65,0.58,4.02	c-0.37,0.13-0.81,0.24-1.27,0.24c-0.68,0-1.31-0.22-1.9-0.67c0.34-0.64,0.64-1.2,0.71-1.34c0.59-1.09-0.99-4-1.01-4.03	c-0.32-0.46-0.73-0.83-1.26-1.11c0.01-0.09,0.01-0.18,0-0.27c-0.03-0.54-0.31-1.01-0.72-1.28c-0.39-1.91-1.36-2.98-2.28-3.59	c0.01-0.64-0.04-1.14-0.16-1.51c0,0-0.07-0.17-0.18-0.43h-1.08c0.14,0.3,0.25,0.56,0.31,0.75c0.14,0.43,0.12,1.19,0.08,1.76	c1.13,0.54,2.14,1.62,2.42,3.74c0.68,0,0.93,1.13,0.03,1.24c0.01,0.02,0.01,0.05,0.01,0.08c1.23,0.29,1.73,0.78,2,1.19	c0.31,0.44,1.16,2.63,0.96,2.99c-0.1,0.19-0.62,1.16-1.08,2.03c1.06,1.1,2.17,1.45,3.15,1.45c0.97,0,1.82-0.35,2.38-0.65	C23.53,31.15,23.24,28.91,23.1,27.45z M40.18,11.2c-0.36-1.02-0.6-1.69-0.75-2.07c-0.08-0.19-0.21-0.35-0.38-0.46	c-0.04-0.03-0.1-0.08-0.17-0.13c-0.76-0.55-2.76-2.01-6.34-2.01c-1.5,0-3.12,0.26-4.82,0.76c-6.67,1.98-8.41,8.13-8.59,8.82	c-0.21,0.83-0.26,1.43,0.16,1.85L19.33,18c0.06,0.07,0.17,0.2,0.27,0.33c0.06,0.07,0.12,0.15,0.19,0.24	c-0.16,0.15-0.32,0.3-0.46,0.43c-0.1,0.1-0.2,0.2-0.29,0.29c-0.57,0.58-1.68,2.22,0.51,4.97c0.66,0.83,1.44,1.54,2.11,2.04	l-0.57,1.29c-0.18,0.39-0.09,0.84,0.22,1.13C21.5,28.9,21.75,29,22,29c0.09,0,0.17-0.01,0.26-0.03c0.15,1.25,0.35,2.65,0.58,4.02	c-0.37,0.13-0.81,0.24-1.27,0.24c-0.68,0-1.31-0.22-1.9-0.67c0.34-0.64,0.64-1.2,0.71-1.34c0.59-1.09-0.99-4-1.01-4.03	c-0.32-0.46-0.73-0.83-1.26-1.11c0.01-0.09,0.01-0.18,0-0.27c-0.03-0.54-0.31-1.01-0.72-1.28c-0.39-1.91-1.36-2.98-2.28-3.59	c0.01-0.64-0.04-1.14-0.16-1.51c0,0-0.07-0.17-0.18-0.43c-0.11-0.26-0.26-0.62-0.46-1c-0.43-0.86-1.03-1.85-1.61-2.14	c-0.21-0.11-0.45-0.16-0.74-0.16c-0.6,0-1.38,0.23-1.9,0.44c-0.67,0.27-1.56,0.73-1.56,1.61c0,0.08,0.01,0.16,0.02,0.25	c0.01,0.06,0.02,0.12,0.03,0.19c-0.03,0.1-0.05,0.2-0.05,0.31v2.22c-0.19-0.04-0.39-0.06-0.59-0.06c-0.79,0-1.47,0.29-1.91,0.78	v3.75c0.01,0.02,0.03,0.03,0.04,0.04c-0.01,0.16-0.02,0.31-0.03,0.44L6,25.68v2.57c0-0.55,0.16-0.95,0.42-1.15	C6.33,26.77,6.7,26.25,7,26.25c0-0.3,0-0.91,0.13-1.61c-0.12-0.03-0.25-0.07-0.38-0.14c-0.5-0.25-0.5-1.25-0.25-2	c0.19-0.56,0.8-0.84,1.41-0.84c0.2,0,0.4,0.03,0.59,0.09c0.07,0.02,0.12,0.06,0.17,0.1c0.24-0.18,0.51-0.35,0.83-0.48V18.5	l0.21-0.02C9.64,18.33,9.57,18.16,9.54,18c-0.03-0.09-0.04-0.17-0.04-0.25c0-0.43,1.68-1.05,2.46-1.05c0.12,0,0.22,0.02,0.29,0.05	c0.24,0.13,0.61,0.65,0.94,1.25c0.18,0.33,0.36,0.68,0.5,1c0.14,0.3,0.25,0.56,0.31,0.75c0.14,0.43,0.12,1.19,0.08,1.76	c1.13,0.54,2.14,1.62,2.42,3.74c0.68,0,0.93,1.13,0.03,1.24c0.01,0.02,0.01,0.05,0.01,0.08c1.23,0.29,1.73,0.78,2,1.19	c0.31,0.44,1.16,2.63,0.96,2.99c-0.1,0.19-0.62,1.16-1.08,2.03c1.06,1.1,2.17,1.45,3.15,1.45c0.97,0,1.82-0.35,2.38-0.65	c-0.42-2.43-0.71-4.67-0.85-6.13L22,28l0.91-2.06c-0.77-0.46-1.81-1.32-2.58-2.3c-0.99-1.25-1.55-2.67-0.58-3.64	c0.31-0.31,0.67-0.65,1.05-1c0.12-0.12,0.25-0.23,0.38-0.35c-0.21-0.23-0.4-0.45-0.56-0.65c-0.28-0.34-0.49-0.62-0.62-0.75	c-0.25-0.25,1.25-7,8-9c1.76-0.52,3.26-0.72,4.54-0.72c3.62,0,5.41,1.6,5.96,1.97c0.17,0.42,0.48,1.3,0.84,2.32	c0.87,0.64,1.87,1.51,2.66,2.23v-1.34C41.48,12.24,40.83,11.69,40.18,11.2z M7.15,33.42l0.51,2.3l0.35,1.59l0.23,0.97l0.33,1.54	c-0.21,0.26-0.33,0.59-0.31,0.94c0.02,0.35,0.16,0.72,0.49,1.04C9.14,41.93,9.56,42,10,42h4.97c0.25-0.07,0.49-0.14,0.71-0.21	c0.06,0.07,0.13,0.14,0.19,0.21h1.38c-0.43-0.41-0.85-0.89-1.23-1.39c-1.32,0.48-3.07,0.95-4.63,0.95c-0.3,0-0.6-0.02-0.89-0.06	c-1.44-0.21-1.51-1.07-0.8-1.24l-0.49-2.2L8.99,37.1l-0.35-1.6l-0.67-3c-0.5,0-1.22-0.02-1.47-1c-0.22-0.87,0.32-1.36,0.79-1.47	H7.26C6.6,30.03,6,29.14,6,28.25v4.48C6.34,33.14,6.77,33.33,7.15,33.42z"/></svg>