<svg xmlns="http://www.w3.org/2000/svg"  viewBox="0 0 48 48" width="1600px" height="1600px"><path fill="#bf862a" d="M40.533 12.733c-.343 5.552-2.248 9.362-7.629 10.067l-2.419-.324c-.429-1.867-1.648-3.429-3.286-4.333l1.829-13.505C33.771 5.867 37.838 8.79 40.533 12.733zM17.962 26.81c-.629 1.952-1.838 2.905-2.533 2.905-4.619 0-7.619 0-11.362-4.086C4.019 25.095 4 24.552 4 24c0-.105 0-.2.01-.305l13.505 1.829C17.619 25.971 17.762 26.4 17.962 26.81zM24.305 4.01l-1.829 13.505c-1.867.429-3.429 1.648-4.333 3.286L4.638 18.971C6.867 10.362 14.686 4 24 4 24.105 4 24.2 4 24.305 4.01z"/><g><path fill="#a2632c" d="M20.8 29.857l-1.829 13.505c-8.105-2.095-14.21-9.143-14.905-17.733 3.295.79 7.219 1.229 11.838 1.229.695 0 1.381-.019 2.057-.048C18.552 28.105 19.552 29.171 20.8 29.857zM43.362 29.029C41.133 37.638 33.314 44 24 44c-.105 0-.2 0-.305-.01l1.829-13.505c1.867-.429 3.429-1.648 4.333-3.286L43.362 29.029zM44 24c0 .105 0 .2-.01.305L32.905 22.8c3.848-2.362 6.505-5.743 7.629-10.067C42.724 15.943 44 19.819 44 24z"/></g></svg>