<svg xmlns="http://www.w3.org/2000/svg"  viewBox="0 0 48 48" width="1600px" height="1600px" baseProfile="basic"><path fill="#3815d5" d="M9.035,14.165v-3.464l-3.46,1.998C5.219,12.904,5,13.283,5,13.694v20.611 c0,0.411,0.219,0.79,0.575,0.996l3.46,1.998v-7.122L8,30.775V14.762L9.035,14.165z"/><polygon fill="#d52691" points="40,24.933 40,14.762 39.34,14.381 39.34,23.994"/><polygon fill="#5f19c4" points="17.93,25.042 12.656,28.087 12.656,33.226 17.93,30.181"/><polygon fill="#5f19c4" points="12.656,35.926 12.656,39.39 17.93,42.435 17.93,38.971"/><polygon fill="#5f19c4" points="17.93,9.029 17.93,5.565 12.656,8.61 12.656,12.074"/><polygon fill="#5f19c4" points="10.318,34.576 12.656,33.226 12.656,28.087 9.035,30.177 9.035,37.299 12.656,39.39 12.656,35.926"/><polygon fill="#5f19c4" points="12.656,12.074 12.656,8.61 9.035,10.701 9.035,14.165"/><polygon fill="#871eb3" points="25.845,12.929 21.551,15.409 21.551,18.741 23.374,21.899 21.551,22.952 21.551,28.091 25.599,25.753 26.824,27.875 26.824,14.625"/><polygon fill="#871eb3" points="21.551,33.757 26.824,35.906 26.824,33.817 21.551,33.282"/><path fill="#871eb3" d="M24,42.476l-2.449-1.414v3.464l1.874,1.082c0.356,0.205,0.794,0.205,1.15,0l2.249-1.299v-3.464 L24,42.476z"/><path fill="#871eb3" d="M24,5.524l2.824,1.631V3.691l-2.249-1.299c-0.356-0.205-0.794-0.205-1.15,0l-1.874,1.082v3.464 L24,5.524z"/><polygon fill="#871eb3" points="20.108,16.242 21.551,18.741 21.551,15.409"/><polygon fill="#871eb3" points="17.93,25.042 17.93,30.181 21.551,28.091 21.551,22.952"/><polygon fill="#871eb3" points="21.551,6.938 21.551,3.475 17.93,5.565 17.93,9.029"/><polygon fill="#871eb3" points="17.93,38.971 17.93,42.435 21.551,44.525 21.551,41.062"/><polygon fill="#871eb3" points="20,33.125 21.551,33.757 21.551,33.282"/><polygon fill="#ae22a2" points="34.526,27.965 31.337,22.441 32.289,21.891 30.445,18.698 30.445,30.322"/><polygon fill="#ae22a2" points="30.445,34.184 30.445,37.382 31.839,37.95 30.445,38.754 30.445,42.218 35.719,39.174 35.719,34.718"/><polygon fill="#ae22a2" points="35.719,12.29 35.719,8.826 30.445,5.782 30.445,9.246"/><polygon fill="#ae22a2" points="35.719,20.991 35.719,18.844 35.125,18"/><polygon fill="#ae22a2" points="26.824,40.845 26.824,44.309 30.445,42.218 30.445,38.754"/><polygon fill="#ae22a2" points="29.112,18.586 26.824,14.625 26.824,27.875 28.789,31.278 30.445,30.322 30.445,18.698 30.064,18.037"/><polygon fill="#ae22a2" points="26.824,35.906 30.445,37.382 30.445,34.184 26.824,33.817"/><polygon fill="#ae22a2" points="30.445,9.246 30.445,5.782 26.824,3.691 26.824,7.155"/><path fill="#d52691" d="M40,14.762v10.17l-0.66-0.939v13.089l3.085-1.781C42.781,35.096,43,34.717,43,34.306V13.694 c0-0.411-0.219-0.79-0.575-0.996l-3.085-1.781v3.464L40,14.762z"/><polygon fill="#d52691" points="35.719,12.29 39.34,14.381 39.34,10.917 35.719,8.826"/><polygon fill="#d52691" points="35.719,18.844 35.719,20.991 38.5,35 35.719,34.718 35.719,39.174 39.34,37.083 39.34,23.994"/></svg>