<svg xmlns="http://www.w3.org/2000/svg"  viewBox="0 0 48 48" width="1600px" height="1600px" baseProfile="basic"><path fill="#41b4f0" d="M45,24l-3.652-3.652v-9.169c0-2.5-2.027-4.526-4.526-4.526h-9.169L24,3l-3.652,3.652h-9.169	c-2.5,0-4.526,2.027-4.526,4.526v9.169L3,24l3.652,3.652v9.169c0,2.5,2.027,4.526,4.526,4.526h9.169L24,45l3.652-3.652h9.169	c2.5,0,4.526-2.027,4.526-4.526v-9.169L45,24z"/><polygon fill="#fff" points="31,17 26.9,17 24,19.9 21.1,17 17,17 17,21.1 19.9,24 17,26.9 17,31 21.1,31 24,28.1 26.9,31 31,31 31,26.9 28.1,24 31,21.1"/></svg>