<svg xmlns="http://www.w3.org/2000/svg"  viewBox="0 0 48 48" width="1600px" height="1600px"><path fill="#6d4c41" d="M26,16h-4v23c0,1.658-1.343,3-3,3h-1v2h12v-2h-1c-1.657,0-3-1.342-3-3V16z"/><rect width="10.062" height="2" x="22.04" y="35.853" fill="#6d4c41" transform="rotate(-38.639 27.071 36.853)"/><rect width="2" height="11.112" x="19.929" y="28.512" fill="#6d4c41" transform="rotate(-45.001 20.927 34.067)"/><path fill="#27ae60" d="M13.7,25.392l-2.399,1.42L11,27.996l1.575,0.812l-0.374,0.526L11,29.991v1.51l1.651-0.131	l0.751,1.051l-0.076,1.051l0.599,0.196l0.374,0.328l0.9-0.59c0,0,1.575,0.459,1.426,0.263s-0.301-0.985-0.301-0.985l0.9,0.065	l0.301-0.722l1.201-0.065l-0.374-0.657l1.201-1.84l-0.599-1.116L18.9,28.132l1.1-0.374V26.51l-0.976-0.263	c0,0,0.149-0.657-0.076-0.657s-1.426,0-1.426,0L17.223,25h-0.751l-0.374,0.657h-1.125L13.7,25.392z"/><path fill="#27ae60" d="M34.3,29.392l2.399,1.604L37,32.179l-1.575,0.628l0.374,0.526L37,33.991v1.51l-1.651-0.131	l-0.751,1.051l0.076,1.051l-0.599,0.196l-0.374,0.328l-0.9-0.59c0,0-1.575,0.459-1.426,0.263s0.301-0.985,0.301-0.985l-0.9,0.065	l-0.301-0.722l-1.201-0.065l0.374-0.657l-1.201-1.84l0.599-1.116l0.052-0.218L28,31.758V30.51l0.976-0.263	c0,0-0.149-0.657,0.076-0.657s1.426,0,1.426,0L30.777,29h0.751l0.374,0.657h1.125L34.3,29.392z"/><path fill="#27ae60" d="M22.287,4.114l-0.233,0.971h-0.871l-0.058,0.741l-1.45-0.171l-0.116-0.627l-1.916,0.171l-0.233,0.684	l-1.045-0.171l-0.58,0.971L15,7l0.032,1.564l0.871,0.228l-0.174,1.312l-0.696-0.228l-0.116,1.198h-0.929l-0.754,1.084v0.914	l0.987,0.741l0.289,0.57l-0.231,0.456L13,14.783l0.058,3.081l0.754,0.114v0.513l0.58,0.285l0.058,0.857l1.161,0.8l0.233-0.741	l0.638,0.627l0.522,0.399l-0.116,1.255L17.991,23l0.291-0.8l0.522-0.171l0.291-0.57l0.522,0.171l0.116,0.627L20.312,23H24	l1.188-2.055l1.103,0.285l0.291,0.684l0.871-0.971l1.394,0.228l0.522,0.456l1.045-0.171c0.291-0.513,0.291-0.513,0.291-0.513l0,0	l0.497-1.057L32.362,20C32.536,19.43,33,19.316,33,19.316l-0.148-0.77h0.638l-0.186-1.489L34,17v-4l1-0.842l-0.116-0.971	l-0.696,0.114v-0.627H32.91l-0.116-1.141l-0.696-0.057V8.735l-0.812,0.057l0.058-0.627L30.822,7.88l0.174-1.084l-1.394-0.627	L28.79,5.084l-0.522,0.627l-0.812,0.228l-0.407-0.8l-0.814-0.112l-0.465-0.914l-1.103-0.057L24.55,4.798l-0.754-0.171L23.274,4	L22.287,4.114z"/></svg>