<svg xmlns="http://www.w3.org/2000/svg"  viewBox="0 0 48 48" width="1600px" height="1600px"><polygon fill="#ffd600" points="43.702,6.001 3.926,46 5.512,46 12.481,38.992 35.713,38.992 48,6.001"/><polygon fill="#ffd600" points="43.188,1.331 38.168,6.334 12.237,6.33 0,39.279 5.411,39.323 7,39.331 39.754,6.334 44.774,1.331"/><path fill="#424242" d="M14,18l7.253-0.002c0,0,1.317-3.995,5.185-3.995c2.447,0,2.368,2.596,1.461,3.714 C24.937,21.37,12.157,28.039,7.886,31.623L6,37h23l3-7h-9c0,0,13.989-6.853,13.989-13.984c0-5.378-3.481-8.007-10.038-8.007 C17.645,8.01,14,18,14,18z"/></svg>