<svg xmlns="http://www.w3.org/2000/svg"  viewBox="0 0 48 48" width="1600px" height="1600px"><path fill="#ff5722" d="M40,28c-5.333-0.583-12-8-12-8h1c2.582,1.529,3.562,3,3.562,3S33,21.836,33,21c0,0,2.43,0.119,3.538,3C37.125,22.748,37,21.575,37,21.575s2.196,1.613,2.537,3.425C40.183,23.139,40,22,40,22c1.897,0.621,2.536,4,2.536,4S43,25.508,43,24c1.507,1.295,1,3,1,3s1.143-1.383,1-4s-4-4-4-4l-3.617-1.447c-0.647-0.259-0.904-1.006-0.609-1.637C36.905,15.637,37,15.323,37,15c0-1.052-6.115-9-16-9c0,0,7,1.552,7,4s-2,2-2,2s-11.9-0.522-16-9c0,0,1.321,7.252,10.92,10.414c-2.326,0.402-4.269,1.072-5.883,1.917C14.453,15.148,13.515,15,12,15c-3.939,0-7,3-7,3s2.073-1,5-1c1.034,0,1.707,0.126,2.151,0.287c-1.349,1.161-2.346,2.447-3.08,3.716C9.046,21.003,9.026,21,9,21c-4.853,0-6,5-6,5c1.285-1.973,3.92-2.043,4.743-2.015C7.001,26.269,7,28,7,28c-4.05,1.536-4,7-4,7c0.897-3.248,3.175-3.897,4.321-4.002c0.268,1.252,0.684,2.376,1.178,3.419C5.863,36.837,6,41,6,41c1.359-3.637,3.444-3.969,3.904-3.997C11.436,39.573,13,41.893,13,45h22c0-12.408-16-9.149-16-18c0,0,0.133-4.186,5-6c0,0,3.216,10,9,10c0.792,0,1.542-0.667,2-1c-2.542,0-4-1-4-1s1.792-0.5,2-1c-1.75,0.083-3-1-3-1s1.083-0.083,2-1c-3.438-0.12-4.512-3.148-4.847-4.854C28.109,22.054,33.848,27.4,38,29c4.542,1.75,4.917,2.125,5,3c0.167-1.667-1.375-2.5-2-3c2.208,0,4,1,4,1C43.875,28.708,43.33,28.364,40,28z M43,22c-1.964,0-2-2-2-2S43,20.206,43,22z M34,16h-1.389c-0.391,0-0.766-0.155-1.043-0.432L30,14C30,14,33.583,13.792,34,16z"/></svg>