<svg xmlns="http://www.w3.org/2000/svg"  viewBox="0 0 48 48" width="1600px" height="1600px" baseProfile="basic"><path fill="#d50000" d="M27.31,25.5L26.14,29H10.98c-0.06-0.86-0.33-2.63-1.49-3.82C8.73,24.4,7.72,24,6.5,24 s-2.23,0.4-2.99,1.18C2.35,26.37,2.08,28.14,2.02,29H1v-1.44c0.02-0.21,0.64-5.06,5.61-5.06c3.67,0,4.84,2.59,4.89,2.7l0.12,0.3 H27.31z"/><path fill="#d50000" d="M35.5,28.5c0,0.17-0.02,0.34-0.07,0.5h-3.86c-0.05-0.16-0.07-0.33-0.07-0.5c0-1.1,0.9-2,2-2 S35.5,27.4,35.5,28.5z"/><path fill="#d50000" d="M44.22,27.48L42,29h-1.43c-0.05-0.16-0.07-0.33-0.07-0.5c0-1.1,0.9-2,2-2 C43.23,26.5,43.87,26.89,44.22,27.48z"/><path fill="#d50000" d="M47.12,23.88v1.62l-1.67,1.14l-0.4,0.28l-0.42,0.28C44.2,26.48,43.4,26,42.5,26 c-1.38,0-2.5,1.12-2.5,2.5c0,0.17,0.02,0.34,0.05,0.5h-4.1c0.03-0.16,0.05-0.33,0.05-0.5c0-1.38-1.12-2.5-2.5-2.5S31,27.12,31,28.5 c0,0.17,0.02,0.34,0.05,0.5h-3.86l1.5-4.5H12.26c-0.46-0.82-2.04-3-5.65-3c-3.06,0-4.73,1.61-5.61,3.17V21l2.88-0.64L10,19 c0,0,3.5-9.75,19.12-10c0,8.25,0.13,14.88,0.13,14.88H47.12z"/><polygon fill="#37474f" points="29.875,8.875 31.375,7.75 31.375,23.5 30,23.5"/><path fill="#37474f" d="M33.5,25c-1.93,0-3.5,1.57-3.5,3.5c0,0.17,0.01,0.34,0.04,0.5c0.24,1.69,1.7,3,3.46,3 s3.22-1.31,3.46-3c0.03-0.16,0.04-0.33,0.04-0.5C37,26.57,35.43,25,33.5,25z M35.95,29c-0.23,1.14-1.24,2-2.45,2s-2.22-0.86-2.45-2 C31.02,28.84,31,28.67,31,28.5c0-1.38,1.12-2.5,2.5-2.5s2.5,1.12,2.5,2.5C36,28.67,35.98,28.84,35.95,29z"/><path fill="#37474f" d="M35.5,28.5c0,0.17-0.02,0.34-0.07,0.5c-0.22,0.86-1,1.5-1.93,1.5s-1.71-0.64-1.93-1.5 c-0.05-0.16-0.07-0.33-0.07-0.5c0-1.1,0.9-2,2-2S35.5,27.4,35.5,28.5z"/><path fill="#37474f" d="M45.45,26.64C44.84,25.65,43.75,25,42.5,25c-1.93,0-3.5,1.57-3.5,3.5c0,0.17,0.01,0.34,0.04,0.5 c0.24,1.69,1.7,3,3.46,3c1.93,0,3.5-1.57,3.5-3.5C46,27.82,45.8,27.18,45.45,26.64z M42.5,31c-1.21,0-2.22-0.86-2.45-2 C40.02,28.84,40,28.67,40,28.5c0-1.38,1.12-2.5,2.5-2.5c0.9,0,1.7,0.48,2.13,1.2c0.24,0.38,0.37,0.82,0.37,1.3 C45,29.88,43.88,31,42.5,31z"/><path fill="#37474f" d="M44.5,28.5c0,1.1-0.9,2-2,2c-0.93,0-1.71-0.64-1.93-1.5c-0.05-0.16-0.07-0.33-0.07-0.5 c0-1.1,0.9-2,2-2c0.73,0,1.37,0.39,1.72,0.98C44.4,27.78,44.5,28.13,44.5,28.5z"/><path fill="#37474f" d="M27.31,25.5L26.14,29H10.98c-0.06-0.86-0.33-2.63-1.49-3.82C8.73,24.4,7.72,24,6.5,24 s-2.23,0.4-2.99,1.18C2.35,26.37,2.08,28.14,2.02,29H1v-1.44c0.02-0.21,0.64-5.06,5.61-5.06c3.67,0,4.84,2.59,4.89,2.7l0.12,0.3 H27.31z"/><path fill="#fff" d="M1,28.5V29h0.5C1,29,1,29,1,28.5z"/><rect width="2" height="1" x="17" y="20" fill="#fff"/><path fill="#37474f" d="M3.88,20.36C3.36,21.4,2.375,22.125,1,23v-2L3.88,20.36z"/><path fill="#fff" d="M12,19c0,0,2-5.25,8-7c0,3.75,0,7,0,7H12z"/><circle cx="6.5" cy="28.5" r="2" fill="#fff"/><path fill="#37474f" d="M6.5,25C4.57,25,3,26.57,3,28.5S4.57,32,6.5,32s3.5-1.57,3.5-3.5S8.43,25,6.5,25z M6.5,31 C5.12,31,4,29.88,4,28.5S5.12,26,6.5,26S9,27.12,9,28.5S7.88,31,6.5,31z"/><circle cx="6.5" cy="28.5" r="2" fill="#37474f"/></svg>