<svg xmlns="http://www.w3.org/2000/svg"  viewBox="0 0 48 48" width="1600px" height="1600px"><path fill="#455a64" d="M24,4C16.84,4,12.893,6.237,9.975,8.425c-3.201,2.401-5.662,6.511-5.765,6.685l1.817,1.079	C4.944,18.109,4,20.724,4,24c0,1.53,0.189,3.014,0.516,4.447c0.015,0.078,0.019,0.158,0.035,0.235l0.024-0.005	c2.002,8.31,9.191,14.602,17.944,15.248C23.002,43.973,23.486,44,23.969,44v-0.002C23.98,43.998,23.99,44,24,44	c11.028,0,20-8.972,20-20S35.028,4,24,4z M22.992,34C19.687,33.995,17,31.306,17,28c0-3.309,2.691-6,6-6	c1.757,0,3.119,0.697,4.162,2.132c0.567,0.78,1.648,3.356-0.136,5.876l1.62,1.147c-1.288,1.897-3.511,2.784-5.468,2.835	C23.115,33.992,23.055,34,22.992,34z M30.993,22.768c-2.273-3.438-5.929-5.726-9.973-5.726C14.392,17.042,9,22.416,9,29.021	c0,0.454,0.033,0.891,0.068,1.327l-0.733,0.255c-0.374-0.885-0.661-1.814-0.882-2.768c-0.635-3.372,0.245-7.033,2.339-9.612	C12.035,15.46,15.543,14,19.936,14c6.019,0,10.481,4.133,11.711,8.54L30.993,22.768z M24,41c-0.41,0-0.811-0.033-1.214-0.062	C17.359,40.41,12,36.274,12,29.021c0-3.844,2.444-7.122,5.862-8.4C15.531,22.249,14,24.947,14,28c0,4.958,4.03,8.991,8.985,8.999V37	c0.003,0,0.005,0,0.008,0s0.005,0,0.008,0c0.291,0,0.588-0.019,0.887-0.046C30.091,36.488,35,31.283,35,24.938	C35,18.346,28.813,11,19.936,11c-5.038,0-8.415,1.624-10.624,3.462l-0.6-0.55c0.847-1.06,1.91-2.223,3.062-3.087	C14.424,8.838,17.738,7,24,7c9.374,0,17,7.626,17,17S33.374,41,24,41z"/></svg>