<svg xmlns="http://www.w3.org/2000/svg"  viewBox="0 0 48 48" width="1600px" height="1600px" baseProfile="basic"><path fill="#e0e0e0" d="M43,16c0,0-3.444-1.9-6.272-4.728C33.899,8.444,32,5,32,5s-4,3-8,3s-8-3-8-3	s-1.899,3.444-4.728,6.272C8.444,14.1,5,16,5,16s3,4,3,8s-3,8-3,8s3.444,1.899,6.272,4.728S16,43,16,43s4-3,8-3s8,3,8,3	s1.899-3.444,4.728-6.272S43,32,43,32s-3-4-3-8S43,16,43,16z"/><path fill="#e53935" d="M24,6c-4,0-8-1-8-1l8,19l8-19C32,5,28,6,24,6z"/><path fill="#e53935" d="M42,24c0-4,1-8,1-8l-19,8l19,8C43,32,42,28,42,24z"/><path fill="#e53935" d="M24,42c4,0,8,1,8,1l-8-19l-8,19C16,43,20,42,24,42z"/><path fill="#e53935" d="M6,24c0,4-1,8-1,8l19-8L5,16C5,16,6,20,6,24z"/></svg>