<svg xmlns="http://www.w3.org/2000/svg"  viewBox="0 0 48 48" width="1600px" height="1600px"><path fill="#455a64" d="M44.83,27.644L37.592,5.365C37.327,4.552,36.568,4,35.712,4H12.287c-0.855,0-1.615,0.552-1.88,1.365L3.169,27.644c-0.265,0.815,0.025,1.706,0.718,2.21l18.951,13.769c0.693,0.503,1.631,0.503,2.324,0l18.95-13.769C44.805,29.35,45.095,28.458,44.83,27.644z M24.448,33c-5.219,0-6.914-3.527-7.419-5.163c-0.126-0.406,0.175-0.816,0.592-0.816h4.062c0.19,0,0.368,0.085,0.482,0.239c0.287,0.387,0.976,1.11,2.125,1.11c1.571,0,2.749-1.416,2.749-2.765S25.933,23,24.149,23c-1.24,0-1.946,0.746-2.261,1.262c-0.141,0.23-0.412,0.334-0.669,0.268l-3.194-0.83c-0.311-0.081-0.51-0.392-0.457-0.716l1.712-10.458C19.33,12.223,19.587,12,19.889,12h9.493C29.724,12,30,12.283,30,12.631v2.738C30,15.718,29.723,16,29.382,16h-5.753c-0.215,0-0.398,0.162-0.427,0.38l-0.248,2.197c-0.055,0.464,0.382,0.809,0.817,0.668C24.18,19.111,24.714,19,25.357,19C27.962,19,32,20.239,32,25.271C32,30.302,27.924,33,24.448,33z"/></svg>