<svg xmlns="http://www.w3.org/2000/svg"  viewBox="0 0 48 48" width="1600px" height="1600px"><path fill="#455a64" d="M24,44C13,44,4,35,4,24C4,13,13,4,24,4c11,0,20,9,20,20C44,35,35,44,24,44z M24,6 C14.1,6,6,14.1,6,24c0,9.9,8.1,18,18,18c9.9,0,18-8.1,18-18C42,14.1,33.9,6,24,6z"/><path fill="#455a64" d="M9,28c0-7.7,7.2-15.4,14-17c0,0-3,2.4-3,4c0,3.3,2,2,2,2s0,12.2,0,13s0.9,1,2,1s3-1.3,3-1.3 s0-9.5,0-10.7s-1.4-2.5-2-3c1.7,0,3,1,3,1s1.3-2.5,7-4c-0.9,1.1-3,4.1-3,5.1s0,10.7,0,11.3s0.7,0.6,1.1,0.6c0.4,0,2.7-0.6,4.9-3 c0,0.7-3.6,6.2-8,9l-3-3l-3,4c0,0-6.1-0.7-9-5c0.8,0.1,2,0.2,2-1c0-1.2,0-9.2,0-10s-0.4-1.2-1-1.2C15.3,19.8,12.7,21.5,9,28z"/></svg>