<svg xmlns="http://www.w3.org/2000/svg"  viewBox="0 0 48 48" width="1600px" height="1600px"><path fill="#E1E7EA" d="M29.045,8C19.095,8,11,16.79,11,27.595C11,37.151,22.992,43,29.523,43C36.357,43,44,35.008,44,24.311C44,13.964,32.651,8,29.045,8z M19.5,9C18.121,9,17,7.879,17,6.5S18.121,4,19.5,4S22,5.121,22,6.5S20.879,9,19.5,9z M9.897,16.61C7.518,16.61,4,15.016,4,11.594C4,7.834,6.614,5,10.08,5C12.128,5,16,6.111,16,10.317C16,14.934,12.35,16.61,9.897,16.61z"/><path fill="#1E88E5" d="M36,33H24c-2.872,0-5-2.128-5-5v-9h4v8.8c0,0.662,0.538,1.2,1.2,1.2l6.73,0.039c0.662,0,1.2-0.538,1.2-1.2L32,19h4V33z"/></svg>