<svg xmlns="http://www.w3.org/2000/svg"  viewBox="0 0 48 48" width="1600px" height="1600px"><circle cx="24" cy="24" r="20" fill="#2979ff"/><path fill="#fff" d="M24,8c-5.706,0-8.857,1.786-11.187,3.533c-2.56,1.92-4.521,5.194-4.603,5.333l1.485,0.883	C8.752,19.541,8,21.926,8,24.625c0,2.308,0.517,4.474,1.427,6.421c0.021,0.059,0.032,0.119,0.054,0.178l0.029-0.011	C12.035,36.445,17.499,40,24,40c8.972,0,16-7.028,16-16C40,15.178,32.822,8,24,8z M11.984,28.026c0,0.245,0.023,0.469,0.034,0.703	l-0.144,0.05c-0.769-3.196-0.259-6.429,1.453-8.873C14.576,18.124,17.006,16,21.5,16c4.939,0,7.582,3.44,8.294,6.582l-0.135,0.047	C27.967,19.777,25.151,18,21.75,18C16,18,11.984,22.123,11.984,28.026z M27.424,29.051C26.471,30.47,24.849,31,23.5,31	c-2.565,0-4.5-1.72-4.5-4c0-2.393,1.658-4,4.125-4c1.388,0,2.559,0.514,3.296,1.446c0.391,0.495,1.132,2.132-0.111,3.747	L27.424,29.051z M24,37c-4.48,0-9.016-3.082-9.016-8.974c0-2.356,0.954-4.722,3.003-6.018C16.74,23.249,16,24.987,16,27	c0,3.925,3.294,7,7.5,7c5.593,0,9.5-3.992,9.5-9.709C33,18.741,28.698,13,21.5,13c-3.643,0-6.789,1.218-9.105,3.439l-0.136-0.125	c0.652-0.818,1.472-1.718,2.354-2.38C16.645,12.41,19.188,11,24,11c7.168,0,13,5.832,13,13C37,31.411,31.411,37,24,37z"/></svg>