<svg xmlns="http://www.w3.org/2000/svg"  viewBox="0 0 48 48" width="1600px" height="1600px"><path fill="#bdbdbd" d="M42,17H6v-3c0-1.1,0.9-2,2-2h32c1.1,0,2,0.9,2,2V17z"/><path fill="#6a1b9a" d="M43,16.8c-0.4-1.4-1.6-2.3-3.1-2.3c-1.6,0-4-1.5-5.2-2.6c-0.6-0.5-1.4-0.9-2.3-0.9H15.6 c-0.9,0-1.6,0.3-2.3,0.9c-1.2,1.1-3.6,2.6-5.2,2.6c-1.5,0-2.7,1-3.1,2.3C4.2,19.8,4,26.6,4,29c0,0.7,0.4,1.6,0.9,2.1 c1,1,3.5,2.7,8.7,2.8c0.3,0,0.5,0.1,0.7,0.3c1,0.7,3.6,1.7,9.7,1.8c6,0,8.6-1.1,9.7-1.8c0.2-0.2,0.4-0.3,0.7-0.3 c5.2-0.2,7.7-1.8,8.7-2.8c0.5-0.5,0.9-1.5,0.9-2.1C44,26.6,43.8,19.8,43,16.8z"/><path fill="#1e88e5" d="M32.1,29H15.9c-0.5,0-0.9-0.4-0.9-0.9V16.9c0-0.5,0.4-0.9,0.9-0.9h16.1c0.5,0,0.9,0.4,0.9,0.9v11.2 C33,28.6,32.6,29,32.1,29z"/><path fill="#212121" d="M32.1,16c0.5,0,0.9,0.4,0.9,0.9v11.2c0,0.5-0.4,0.9-0.9,0.9H15.9c-0.5,0-0.9-0.4-0.9-0.9V16.9 c0-0.5,0.4-0.9,0.9-0.9H32.1 M21,13c-8,0-8,2.3-8,4v11c0,1.6,0,5.1,10,5.1h2c10,0,10-3.4,10-5.1V17c0-1.6,0-4-8-4H21z"/><path fill="#bdbdbd" d="M8,16h2v6H8V16z"/><path fill="#bdbdbd" d="M6 18h6v2H6V18zM42 18.5c0 .8-.7 1.5-1.5 1.5S39 19.3 39 18.5s.7-1.5 1.5-1.5S42 17.7 42 18.5zM39 21.5c0 .8-.7 1.5-1.5 1.5S36 22.3 36 21.5s.7-1.5 1.5-1.5S39 20.7 39 21.5z"/><path fill="#212121" d="M11,28c-0.1,0-0.3,0-0.4-0.1l-4-2c-0.5-0.2-0.7-0.8-0.4-1.3c0.2-0.5,0.8-0.7,1.3-0.4l4,2 c0.5,0.2,0.7,0.8,0.4,1.3C11.7,27.8,11.4,28,11,28z"/><path fill="#bdbdbd" d="M12,27c0,0.6-0.4,1-1,1s-1-0.4-1-1s0.4-1,1-1S12,26.4,12,27z"/><path fill="#212121" d="M11,31c-0.1,0-0.3,0-0.4-0.1l-4-2c-0.5-0.2-0.7-0.8-0.4-1.3s0.8-0.7,1.3-0.4l4,2 c0.5,0.2,0.7,0.8,0.4,1.3C11.7,30.8,11.4,31,11,31z"/><path fill="#bdbdbd" d="M12,30c0,0.6-0.4,1-1,1s-1-0.4-1-1s0.4-1,1-1S12,29.4,12,30z"/><path fill="#212121" d="M37 26.5c-.2 0-.4-.1-.4-.3-.1-.2 0-.5.2-.7l4-2c.2-.1.5 0 .7.2.1.2 0 .5-.2.7l-4 2C37.2 26.5 37.1 26.5 37 26.5zM37 28.5c-.2 0-.4-.1-.4-.3-.1-.2 0-.5.2-.7l4-2c.2-.1.5 0 .7.2.1.2 0 .5-.2.7l-4 2C37.2 28.5 37.1 28.5 37 28.5zM37 30.5c-.2 0-.4-.1-.4-.3-.1-.2 0-.5.2-.7l4-2c.2-.1.5 0 .7.2.1.2 0 .5-.2.7l-4 2C37.2 30.5 37.1 30.5 37 30.5z"/></svg>