<svg xmlns="http://www.w3.org/2000/svg"  viewBox="0 0 48 48" width="1600px" height="1600px" clip-rule="evenodd"><path fill="#ffa726" fill-rule="evenodd" d="M25.653,20.295C8.537,23.802,5.44,20.284,5.219,19.158 c-0.222-1.126,2.732-5.35,17.729-8.224c14.996-2.874,19.18-0.594,19.604,0.832C42.872,13.064,42.769,16.787,25.653,20.295 M46.247,11.372c-0.614-2.441-5.918-6.753-23.665-3.403C4.836,11.319,1.596,17.798,2.091,20.115 c0.399,2.183,4.46,8.213,24.692,4.004C47.011,20.023,46.809,13.606,46.247,11.372z" clip-rule="evenodd"/><path fill="#ffa726" fill-rule="evenodd" d="M10.449,29.002c0,0,3.345,2.705,11.236,2.705 s10.635-3.044,10.635-3.044s2.316,5.072-10.034,5.072C12.594,33.735,10.449,29.002,10.449,29.002" clip-rule="evenodd"/><path fill="#ffa726" fill-rule="evenodd" d="M13.18,32.955c0,0,3.155,2.761,8.611,2.761 c3.752,0,4.263-0.604,4.263-0.604c-0.005,0.001-0.693,2.333-5.457,2.33C15.823,37.438,13.18,34.076,13.18,32.955" clip-rule="evenodd"/><path fill="#ffa726" fill-rule="evenodd" d="M37.506,21.689c-1.73,3.473-14.053,5.663-20.51,5.608 c-6.175-0.053-10.447-1.888-10.447-1.888s2.109,4.129,13.686,4.227c11.578,0.099,21.393-4.355,21.426-8.038 c0.003-0.554-0.175-1.057-0.49-1.519C40.115,20.623,38.9,21.161,37.506,21.689" clip-rule="evenodd"/><path fill="#ffa726" fill-rule="evenodd" d="M26.984,16.18C19.96,16.121,12.4,18.715,12.4,18.715 c5.586-1.685,13.819-1.687,19.353-0.751c1.185-0.346,2.206-0.689,3.08-1.027C32.436,16.447,29.67,16.203,26.984,16.18" clip-rule="evenodd"/><path fill="#ffa726" fill-rule="evenodd" d="M11.035,19.419c1.415,0.058,3.241,0.341,4.487,0.857 l-1.45-1.809l0.08-2.287C13.454,17.303,12.146,18.569,11.035,19.419" clip-rule="evenodd"/><path fill="#ffa726" fill-rule="evenodd" d="M16.691,40.721c-0.32-0.003-0.909-0.052-1.555-0.377 c-0.717-0.361-1.138-0.876-1.33-1.148l-1.016,1.951" clip-rule="evenodd"/><path fill="#ffa726" fill-rule="evenodd" d="M14.371,36.466c0,0,1.821,2.807,6.417,2.381 c0,0-2.126,1.782-4.596,0.425C14.024,38.082,14.371,36.466,14.371,36.466" clip-rule="evenodd"/></svg>