<svg xmlns="http://www.w3.org/2000/svg"  viewBox="0 0 48 48" width="1600px" height="1600px" baseProfile="basic"><path fill="#0b81a0" d="M0.035,26.973c0.883,0.252,5.047-0.252,8.076-2.524c0.126,1.262,0.505,2.524,0.505,2.524	c-1.009,0.631-3.028,1.514-4.038,2.019c0.505,1.64,2.145,5.804,2.776,6.814c0.631,1.009,1.136,1.767,2.524,2.524	c-1.514-0.126-3.533-0.757-3.533-0.757c-0.757-1.514-3.253-7.011-3.785-8.076C2.18,28.74,1.171,27.604,0.035,26.973z"/><path fill="#0b81a0" d="M6.597,30.002c0.757,0.126,2.019-0.252,2.65-0.757c0.252,0.631,0.631,1.262,0.631,1.262	c-0.252,0.252-0.757,0.757-0.757,0.757c0.505,1.009,1.893,4.29,3.028,5.047c-1.009-0.126-2.145-0.505-2.145-0.505	C9.373,34.418,7.985,30.633,6.597,30.002z"/><path fill="#0b81a0" d="M47.984,26.973c-0.883,0.252-5.047-0.252-8.076-2.524c-0.126,1.262-0.505,2.524-0.505,2.524	c1.009,0.631,3.028,1.514,4.038,2.019c-0.505,1.64-2.145,5.804-2.776,6.814c-0.631,1.009-1.136,1.767-2.524,2.524	c1.514-0.126,3.533-0.757,3.533-0.757c0.757-1.514,3.253-7.011,3.785-8.076C45.839,28.74,46.848,27.604,47.984,26.973z"/><path fill="#0b81a0" d="M41.423,30.002c-0.757,0.126-2.019-0.252-2.65-0.757c-0.252,0.631-0.631,1.262-0.631,1.262	c0.252,0.252,0.757,0.757,0.757,0.757c-0.505,1.009-1.893,4.29-3.028,5.047c1.009-0.126,2.145-0.505,2.145-0.505	C38.647,34.418,40.035,30.633,41.423,30.002z"/><path fill="#0b81a0" d="M38.142,21.169c-7.066-2.524-12.618-6.561-14.132-11.609c-1.514,5.047-7.066,9.085-14.132,11.609	c-0.505,3.912,0.252,8.959,5.047,13.123c-4.29-6.309-2.943-9.566,1.136-11.987c4.038-2.397,7.949-4.669,7.949-4.669	s3.912,2.271,7.949,4.669c4.078,2.422,5.426,5.678,1.136,11.987C37.889,30.128,38.647,25.081,38.142,21.169z"/><path fill="#0b81a0" d="M32.842,26.973c-3.281-1.262-7.823-3.659-8.833-7.066c-1.009,3.407-5.552,5.804-8.833,7.066	c-0.379,1.767-0.252,5.3,2.776,8.58c-3.785-5.3-0.735-6.776,1.009-7.823c2.524-1.514,5.047-2.776,5.047-2.776	s2.524,1.262,5.047,2.776c1.745,1.047,4.795,2.524,1.009,7.823C33.095,32.273,33.221,28.74,32.842,26.973z"/><path fill="#0b81a0" d="M29.715,31.538c-1.668-0.905-4.949-2.42-5.706-4.565c-0.757,2.145-4.038,3.659-5.706,4.565	c-0.245,1.141-0.225,3.385,1.92,5.53c-2.65-3.155-0.23-4.626,0.525-5.041c1.62-0.89,3.261-1.793,3.261-1.793s1.64,0.903,3.261,1.793	c0.755,0.415,3.175,1.886,0.525,5.041C29.94,34.923,29.96,32.679,29.715,31.538z"/></svg>