<svg xmlns="http://www.w3.org/2000/svg"  viewBox="0 0 48 48" width="1600px" height="1600px" clip-rule="evenodd" baseProfile="basic"><path fill="#b0bec5" fill-rule="evenodd" d="M24,4.002	c11.04,0,20,8.96,20,19.999c0,11.039-8.96,19.999-20,19.999S4,35.039,4,24.001C4,12.962,12.96,4.002,24,4.002z" clip-rule="evenodd"/><path fill="#e91e62" fill-rule="evenodd" d="M24,7.001	c9.387,0,17,7.616,17,17c0,9.384-7.613,17-17,17s-17-7.616-17-17C7,14.617,14.613,7.001,24,7.001z" clip-rule="evenodd"/><path fill="#b0bec5" fill-rule="evenodd" d="M6.68,28.927	c2.667-7.569,7.547-13.347,15.307-17.049c-0.613-0.539-1.307-1.047-2.24-1.441c3.52-0.679,7.053-0.633,10.573,0.804	c-2.36,1.949-4.2,4.125-5.747,6.432l-0.907-3.513c-6.373,4.772-8.36,11.952-7.44,21.853c5.653-0.241,10.467-2.476,14.013-9.364	l-3.933,0.316c2.44-2.627,4.453-5.491,5.92-8.649c1.947,3.123,3.48,6.297,4.693,9.511l-3.293-0.996	c0.04,4.856-0.52,9.257-1.6,13.284c-2.413,1.208-5.147,1.887-8.027,1.887C15.773,42.001,8.827,36.471,6.68,28.927z" clip-rule="evenodd"/></svg>