<svg xmlns="http://www.w3.org/2000/svg"  viewBox="0 0 48 48" width="1600px" height="1600px"><path fill="#78909C" d="M33 21H37V34H33zM37 15.993C37 17.105 36.105 18 35 18c-1.104 0-2-.895-2-2.007C33 14.895 33.896 14 35 14 36.105 14 37 14.895 37 15.993zM40.053 21H44V34H40.053zM44 15.993C44 17.105 43.104 18 41.998 18S40 17.105 40 15.993C40 14.895 40.893 14 41.998 14S44 14.895 44 15.993zM25.977 15l-3.48 14.037c0 0-2.15-8.395-2.798-11.235C19.049 14.968 17 15.001 17 15.001s-2.044-.035-2.695 2.801c-.648 2.841-2.796 11.235-2.796 11.235L8.027 15H4l4.265 15.777c0 0 .581 3.223 3.02 3.223 2.439 0 3.019-3.223 3.019-3.223l2.695-10.173 2.697 10.173c0 0 .581 3.223 3.021 3.223 2.438 0 3.018-3.223 3.018-3.223L30 15H25.977z"/></svg>