<svg xmlns="http://www.w3.org/2000/svg"  viewBox="0 0 48 48" width="1600px" height="1600px"><rect width="32" height="32" x="8" y="8" fill="#795548"/><polygon fill="#f7931e" points="40,40 24,40 8,40 24,24 8,8 24,8 40,8 24,24"/><circle cx="24" cy="24" r="20" fill="#fbc02d"/><circle cx="24.5" cy="24.5" r="17.5" fill="#ffe57f"/><circle cx="23.5" cy="23.5" r="17.5" fill="#795548"/><circle cx="24" cy="24" r="17" fill="#01579b"/><path fill="#0277bd" d="M15.193,37h0.749c1.528,0,2.767-1.239,2.767-2.767V22.917H8.5l-0.116,6.227l1.311,2.192l0.145,1.018	C10.219,35.019,12.501,37,15.193,37z"/><path fill="#0277bd" d="M30.987,26.737l3.115-11.858l4.302,0.102c0,0-0.264-0.411-0.402-0.612C34.939,9.918,29.813,7,24,7	C14.7,7,7.155,14.471,7.013,23.737L30.987,26.737z"/><path fill="#03a9f4" d="M38.67,15.41c-0.2,0.04-0.41,0.04-0.58,0.06c-1.48,0.15-2.83,0.3-4.07,1.18	c-2.27,1.61-2.44,3.51-2.88,6.09c-0.29,1.65-0.74,3.29-1.11,4.93c-0.27,1.18-0.53,3.5-2.25,3.45c-0.13,0-0.25-0.03-0.36-0.07	c-1.83-0.65-1.94-5.6-4.09-4.84c-0.78,0.28-0.79,2.43-0.92,3.21c-0.22,1.32-0.16,2.98-1.51,3.68c-0.13-0.82-0.34-1.58-0.55-2.34	v-0.01c-0.37-1.38-0.78-2.73-0.84-4.28c-0.02-0.49-0.06-1.14,0.18-1.64c0.29-0.63,1.07-0.82,1.34-1.45	c0.23-0.52,0.12-1.39,0.29-1.97c0.38-1.31,0.46-1.48-0.9-1.86c0.34-0.68,0.82-1.44,1.02-2.19c0.18-0.71,0.11-0.28-0.05-0.96	c-0.07-0.31-0.33-0.31-0.26-0.81c0.07-0.44,0.92-0.98,0.72-1.48c-0.22-0.55-1.59-0.38-2.07-0.61c-0.63-0.29-0.99-1.21-1.73-0.92	c-0.4,0.16-0.44,0.66-0.73,0.89c-0.39,0.32-0.48,0.26-0.97,0.39c-0.65,0.16-1.92,0.57-2.57,0.43c-0.93-0.19-0.51-0.79-0.46-1.62	c0.05-0.79-0.07-1.15-0.38-1.57C15.91,8.54,19.77,7,24,7c1.65,0,3.24,0.23,4.74,0.67c0.06,0.61,0.12,1.23,0.3,1.8	c-0.78,0.09-3.17-0.61-2.64,0.82c0.35,0.92,2.15,1.59,2.98,1.93c1.12,0.45,1.13,0.41,1.94-0.21c0.58-0.46,0.22-0.47,1.09-0.6	c0.36-0.06,0.72-0.12,1.08-0.11c1.09,0,0.9,0.58,1.83,1.09c0.36,0.2,0.83,0.22,1.3,0.23C37.4,13.48,38.09,14.41,38.67,15.41z"/><path fill="#263238" d="M36.51,35.51C33.4,38.89,28.95,41,24,41c-1.56,0-3.06-0.21-4.49-0.6c0.16-0.61,1.4-1.05,1.74-1.39	c-0.42-0.86-1.17-0.41-1.84-0.63c-0.84-0.28-0.62-0.77-0.54-1.65c0.07-0.74,0.03-1.41,0-2.13c-0.06-1.37,0.81-1.97,1.29-3.28	c0.07-0.18,0.13-0.37,0.19-0.56v-0.01c0.72-2.17,1.1-4.55,3.12-5.98c1.44-1.02,2.33,0.19,2.86,1.64c0.47,1.28,0.77,2.91,1.02,4.26	c0.03,0.15,0.06,0.27,0.07,0.38c0.06,0.26,0.07,0.45-0.01,0.78c-0.13,0.46-0.22,0.82-0.8,0.92c-0.01,0.03,0,0.06,0.01,0.08	c-2.16-0.18-1.33,3.16,1.06,3.46c1.09,0.13,1.03-0.09,1.54-1.06c0.48,0.27,0.89,0.87,1.5,0.84c1.02-0.04,0.8-1.22,1.58-1.48	c0.41-0.14,0.58,0.17,0.94,0.24c0.37,0.06,0.43,0.27,0.82,0.19c0.34-0.06,0.51-0.5,0.83-0.58C35.6,34.24,36.26,34.82,36.51,35.51z"/><path fill="#f57f17" d="M11.428,13.329h6.832l-0.236,2.089c-0.023,0.205-0.015,0.412,0.026,0.615l2.518,12.68l3.439-14.252 v13.573l-1.073,5.964c-0.039,0.215-0.042,0.435-0.009,0.651l0.358,2.388l-3.532-1l-3.798,1l0.992-1.126 c0.428-0.486,0.594-1.148,0.447-1.778l-4.393-18.742c-0.08-0.343-0.25-0.658-0.491-0.914L11.428,13.329z"/><polygon fill="#ffca28" points="20.567,28.712 24.005,14.46 24.005,22.033 20.884,35.091"/><path fill="#ffca28" d="M11.428,13.329h3.832l0.285,1.945l4.343,20.088l-0.607,0.674l-3.329,1l0.992-1.126 c0.428-0.486,0.594-1.148,0.447-1.778l-4.393-18.742c-0.08-0.343-0.25-0.658-0.491-0.914L11.428,13.329z"/><polygon fill="#ffe57f" points="11.428,13.329 18.259,13.329 15.635,15.365"/><polygon fill="#795548" points="20.929,34.956 23.281,37.037 15.952,37.037 19.707,34.956"/><path fill="#ffca28" d="M36.583,13.329h-6.832l0.236,2.089c0.023,0.205,0.015,0.412-0.026,0.615l-2.518,12.68L24.005,14.46 v13.573l1.073,5.964c0.039,0.215,0.042,0.435,0.009,0.651l-0.358,2.388l3.146-1l4.184,1l-0.992-1.126 c-0.428-0.486-0.594-1.148-0.447-1.778l4.393-18.742c0.08-0.343,0.25-0.658,0.491-0.914L36.583,13.329z"/><polygon fill="#f7931e" points="27.444,28.712 24.005,14.46 24.005,22.033 27.127,35.091"/><path fill="#f7931e" d="M36.583,13.329h-3.832l-0.285,1.945l-4.343,20.088l0.607,0.674l3.329,1l-0.992-1.126 c-0.428-0.486-0.594-1.148-0.447-1.778l4.393-18.742c0.08-0.343,0.25-0.658,0.491-0.914L36.583,13.329z"/><polygon fill="#ffe57f" points="36.583,13.329 29.751,13.329 32.375,15.365"/><polygon fill="#795548" points="27.082,34.956 24.729,37.037 32.059,37.037 28.303,34.956"/><path fill="#039be5" d="M9.94,31.36c0.71,1.49,1.98,2.75,1.71,4.31C8.76,32.62,7,28.53,7,24c0-3.82,1.25-7.33,3.38-10.17	c0.19,0.23,0.54,0.35,0.95,0.55c0.89,0.43,0.97,0.92,1.01,1.84c0.06,1.09-0.41,1.38-0.72,2.34c-0.31,0.93,0.01,2.09-0.29,3	c-0.43,1.29-1.57,0.28-2.19,0.99c-0.3,0.35,0.25,2.19,0.39,2.62c0.15,0.49,0.56,0.94,0.52,1.49c-0.04,0.61-0.58,0.98-0.76,1.55	C9.01,29.15,9.53,30.51,9.94,31.36z"/></svg>