<svg xmlns="http://www.w3.org/2000/svg"  viewBox="0 0 48 48" width="1600px" height="1600px"><path fill="#b71c1c" d="M29,17.5c-1.324,1.928-4.235,5.5-4.235,5.5S21.456,19.814,20,17.5c0,0,1.588-2.597,4.73-5.5	C26.882,14.26,29,17.5,29,17.5z M36.375,23c0,0-0.375-0.5-0.375-1.75c0-2.875,5-4.25,5-4.25c-1-2-4-6.5-4-6.5l0.5-4L34,8	c-2.75-3.375-8.25-7.75-9-8c0,0-2.625,1.625-7.625,5.625c0,0-2.5-1.625-3.25-1.625c-0.469,0-0.75,0.125-0.874,0.863	C13.111,5.696,13,6.625,12.864,7.584c-0.118,0.835-0.249,1.698-0.796,2.378C9.625,13,7,15.625,7,15.625s5,1.75,5,6.375	c0,0.625-0.25,1-0.25,1C9.125,23,5,20,5,20c0,1,3.625,6.25,6,9c0,0,1.25-1,3-1c2,0,5,1.375,5,6.625C19,37,18.375,38,16.75,38	C16,38,15,37.375,15,37.375L21,48c0,0,1-3.25,1-8.625c0-5.875-1.046-8.728-2.75-11.875c-1.625-3-3.25-5-3.25-9.5	c0-3.625,3.625-8,9.25-8C29.5,10,32,14.945,32,18c0,4-1.195,7.186-3.033,10.25C25.967,33.25,26,34,26,34s0.638,5,1,11	c3.206-3.667,3.75-4.625,6-10c0,0-1.598,0.879-1.75,0.925C31.092,35.974,30.924,36,30.75,36C29.784,36,29,35.216,29,34.25	c0-0.329,0.091-0.636,0.25-0.899c0.139-0.23,0,0,1.75-3.101c0.632-1.121,1.25-2.25,2.875-2.25C36.25,28,38,30,38,30	c3.75-5.125,5-9,5-9C39.5,23.125,36.375,23,36.375,23z"/></svg>