<svg xmlns="http://www.w3.org/2000/svg"  viewBox="0 0 48 48" width="1600px" height="1600px"><path fill="#fff" d="M6,10c0-2.2,1.8-4,4-4h28c2.2,0,4,1.8,4,4v28c0,2.2-1.8,4-4,4H10c-2.2,0-4-1.8-4-4V10z"/><path fill="#ea80fc" d="M38,6H10c-2.2,0-4,1.8-4,4v28c0,2.2,1.8,4,4,4h28c2.2,0,4-1.8,4-4V10C42,7.8,40.2,6,38,6z M39,18.536	c0,0,0,5.624-5.624,11.248c-6.111,6.111-9.42,8.436-9.42,8.436s-7.134-6.183-9.327-8.436c-6.029-6.192-5.624-11.248-5.624-11.248	s0-0.619,0-0.937c0-4.141,3.567-7.499,7.967-7.499c3.045,0,5.689,1.609,7.03,3.972c1.341-2.363,3.985-3.972,7.03-3.972	c4.4,0,7.967,3.357,7.967,7.499V18.536z"/></svg>