<svg xmlns="http://www.w3.org/2000/svg"  viewBox="0 0 48 48" width="1600px" height="1600px"><path fill="#78909c" d="M15,14c0,0-6,2-4,10c-4,3-4,10-1,13s14,2,14,2l1-26L15,14z"/><path fill="#78909c" d="M32.862,14c0,0,6,2,4,10c4,3,4,10,1,13s-14,2-14,2l-1-26L32.862,14z"/><path fill="#ffa726" d="M35,20c0,1.105-0.896,2-2,2c-1.106,0-2-0.895-2-2s0.894-2,2-2C34.104,18,35,18.895,35,20"/><path fill="#ffa726" d="M17,20c0-1.105-0.896-2-2-2c-1.106,0-2,0.895-2,2s0.894,2,2,2C16.104,22,17,21.105,17,20"/><path fill="#7e57c2" d="M29.313,31L29.313,31H18.688C18.688,31,7,32.986,7,44h34C41,33.025,29.313,31,29.313,31"/><path fill="#ffb74d" d="M33,13c-0.089-0.389-0.4-0.686-0.588-1.011C31.18,8.502,27.884,6,24,6c-4.282,0-8.913,6.94-8.935,7 c-0.146,1.736,0,6,0,6v2c0,3.854,2.408,7.132,5.788,8.415C21.578,30.372,22.712,31,24,31c1.289,0,2.421-0.628,3.147-1.585 c3.379-1.284,5.788-4.562,5.788-8.415v-2C32.935,19,33,15,33,13z"/><rect width="4" height=".895" x="22" y="18.053" fill="#455a64"/><path fill="#689f38" d="M29.713,5H18.287C16.472,5,15,6.472,15,8.287V14h18V8.287C33,6.472,31.528,5,29.713,5z"/><path fill="#b0bec5" d="M25,38h-2c-2.127,0.971-3.294,3.187-4,6h10C28.527,41.378,27.26,39.33,25,38z"/><path fill="#b0bec5" d="M24,23L24,23c-4,0-6,3.239-6,6v0.06c0,2.407,1.793,4.748,3.255,6.66L23,38h2l1.715-2.221 C28.196,33.86,30,31.504,30,29.08V29C30,26.239,28,23,24,23z"/><path fill="#e0e0e0" d="M17.847,18.5c-0.215,0.295-0.347,0.634-0.347,1c0,1.105,1.119,2,2.5,2s2.5-0.895,2.5-2 c0-0.366-0.132-0.705-0.347-1H17.847z"/><path fill="#455a64" d="M20,21.947c-1.625,0-2.947-1.098-2.947-2.447c0-0.438,0.149-0.875,0.433-1.264l0.134-0.184h4.762 l0.134,0.184c0.283,0.389,0.433,0.825,0.433,1.264C22.947,20.85,21.625,21.947,20,21.947z M18.092,18.947 c-0.096,0.181-0.145,0.365-0.145,0.553c0,0.856,0.921,1.553,2.053,1.553s2.053-0.696,2.053-1.553c0-0.188-0.049-0.372-0.145-0.553 H18.092z"/><path fill="#e0e0e0" d="M25.847,18.5c-0.215,0.295-0.347,0.634-0.347,1c0,1.105,1.119,2,2.5,2s2.5-0.895,2.5-2	c0-0.366-0.132-0.705-0.347-1H25.847z"/><path fill="#455a64" d="M28,21.947c-1.625,0-2.947-1.098-2.947-2.447c0-0.438,0.149-0.875,0.433-1.264l0.134-0.184h4.762	l0.134,0.184c0.283,0.389,0.433,0.825,0.433,1.264C30.947,20.85,29.625,21.947,28,21.947z M26.092,18.947	c-0.096,0.181-0.145,0.365-0.145,0.553c0,0.856,0.921,1.553,2.053,1.553s2.053-0.696,2.053-1.553c0-0.188-0.049-0.372-0.145-0.553	H26.092z"/><rect width="5" height=".895" x="21.5" y="26.053" fill="#455a64"/><g><rect width="18" height="2" x="15" y="10" fill="#ffeb3b"/></g></svg>