<svg xmlns="http://www.w3.org/2000/svg"  viewBox="0 0 48 48" width="1600px" height="1600px"><path fill="#ffe0b2" d="M42,9.028c0-1.129,0-2.139-1-3.117C37,2.978,30.981,2,24,2S11,2.978,7,5.911C6,6.889,6,7.899,6,9.028l1,16.604C8,31.333,12,43.067,24.034,46C24.034,46,37,44,41,25.625L42,9.028z"/><path fill="#ffcc80" d="M21.594 17.094c-.038.009.919 9.75.919 9.75l-2.2-.875.344-8.312L21.594 17.094zM31.156 20.16c-1.018-.725-3.031-2.16-.688-5.317-1.866.339-3.938 2.411-3.938 4.375 0 2.209 1.791 4 4 4 .213 0 .421-.018.625-.051V20.16z"/><path fill="#ffcc80" d="M23.123,38.984c-5.583-0.333-7.083-4.5-7.083-4.5l5.167-0.333l2.333-4.354c0,0-2.327,1.188-7.5,1.188c-5.193,0-7.94-5.568-4.86-9.377c0.913,0.944,2.11,1.612,3.227,1.612c0.213,0,0.421-0.018,0.625-0.051V20.16c-0.543-0.387-0.725-0.88-0.781-1.457c-0.937-0.463-1.587-1.418-1.587-2.534c0-0.997,0.517-1.87,1.294-2.375c0.009-0.082,0.02-0.161,0.041-0.21c-1.006,0.183-2.184,1-3.059,2.02c0.019-0.678,0.152-1.127,0.152-1.127s0.438-5.758,1.028-11.043c0,0-4.8,1.35-5.811,3.513C6.172,7.243,5.962,8.222,6.049,9.849c0.253,4.681,0.765,12.664,0.99,15.767c0.127,1.762,0.757,3.249,1.045,4.158C12.624,44.129,24.034,46,24.034,46L23.123,38.984z"/><path fill="#424242" d="M32 12c-3.438 0-5.195 3.074-5.561 3.439-.586.586-.586 1.536 0 2.121.586.586 1.536.586 2.121 0C28.974 17.15 30.313 14 33 14c1.387 0 3.047.64 5 2C36.145 12.877 33.996 12 32 12zM16 12c-1.996 0-4.145.877-6 4 1.953-1.36 3.613-2 5-2 2.688 0 4.026 3.15 4.439 3.561.585.586 1.535.586 2.121 0 .586-.585.586-1.535 0-2.121C21.195 15.074 19.438 12 16 12zM16 18.521c-1.64 0-3.082.594-4 1.5.918.906 2.36 1.5 4 1.5s3.082-.594 4-1.5C19.082 19.115 17.64 18.521 16 18.521zM32 18.521c-1.64 0-3.082.594-4 1.5.918.906 2.36 1.5 4 1.5s3.082-.594 4-1.5C35.082 19.115 33.64 18.521 32 18.521zM10 27L15 35 22 35 24 33 26 35 33 35 38 27 32 33 28 33 25 29 23 29 20 33 16 33zM22 38v7.389c.653.23 1.327.438 2.034.611 0 0 .761-.12 1.966-.556V38H22z"/></svg>