<svg xmlns="http://www.w3.org/2000/svg"  viewBox="0 0 48 48" width="1600px" height="1600px"><path fill="#ad1457" d="M28.88,5v6.25L22.12,46H2v-8.77c0-0.73,0.16-1.45,0.47-2.11l1.73-3.71c0.28-0.6,0.44-1.25,0.46-1.91	l0.21-5.39l0.22-5.43l0.08-2.02c0.05-1.23,0.56-2.4,1.42-3.28L8.7,11.2c0.35-0.36,0.64-0.76,0.87-1.2c0.21-0.42,0.37-0.88,0.46-1.35	l0.04-0.23c0.03-0.14,0.06-0.28,0.1-0.42c0.45-1.61,1.68-2.89,3.29-3.41l7.73-2.47c0.99-0.32,2.03-0.32,3-0.02	c0.46,0.14,0.91,0.35,1.32,0.63l1.49,1L28.88,5z"/><path fill="#ad1457" d="M46,37.23V46H25.88l-1.76-34.75l1-6.25l1.45-1.13c1.19-0.92,2.78-1.1,4.14-0.47l4.48,2.08	C36.3,6,37.17,6.9,37.65,8c0.12,0.27,0.22,0.55,0.29,0.84l0.05,0.22c0.08,0.33,0.2,0.64,0.36,0.94c0.17,0.33,0.39,0.64,0.66,0.91	l2.4,2.47c0.86,0.88,1.37,2.05,1.42,3.28l0.08,2.02l0.26,6.48l0.17,4.34c0.02,0.66,0.18,1.31,0.46,1.91l1.73,3.71	C45.84,35.78,46,36.5,46,37.23z"/><path fill="#880e4f" d="M31.196,21.268l3.215,1.957c2.296,1.397,3.75,3.841,3.885,6.525l0.175,3.495	c0.131,2.627,1.528,5.027,3.747,6.44l0,0c1.94,1.235,3.265,3.235,3.646,5.503L46,46l-17.199-1.382L31.196,21.268z"/><path fill="#880e4f" d="M16.804,21.268l-3.215,1.957c-2.296,1.397-3.75,3.841-3.885,6.525l-0.175,3.495	c-0.131,2.627-1.528,5.027-3.747,6.44l0,0c-1.94,1.235-3.265,3.235-3.646,5.503L2,46l17.199-1.382L16.804,21.268z"/><path d="M16,33.829c0,1.718,3.582,6.667,8,6.667s8-4.948,8-6.667s-3.582-1.333-8-1.333S16,32.111,16,33.829z"/><path fill="#1a1a1a" d="M45.402,46c-5.097-7.91-15.348-9.648-15.348-9.648H24h-6.054c0,0-10.273,1.707-15.364,9.648H45.402z"/><path fill="#bcaaa4" d="M11.985,21.2c0,3.612,1.165,5.2,2.6,5.2c1.436,0,1.4-0.962,1.4-2.4c0-1.436,0.22-2.987-1-5	c-0.25-0.413-1.314-1.374-2-2C11.547,15.688,11.985,19.25,11.985,21.2"/><path fill="#bcaaa4" d="M31,31H17v8.969C17,43.3,19.7,46,23.031,46h1.938C28.3,46,31,43.3,31,39.969V31z"/><path fill="#bcaaa4" d="M36,21.2c0,3.612-1.165,5.2-2.6,5.2c-1.437,0-1.4-0.962-1.4-2.4c0-1.436-0.22-2.987,1-5	c0.25-0.413,1.314-1.374,2-2C36.438,15.688,36,19.25,36,21.2"/><path fill="#d7ccc8" d="M24.282,37h-0.32c-0.625,0-1.235-0.195-1.744-0.559l-3-2.143c-2.067-1.477-3.495-3.685-3.993-6.176	L14.5,22L14,9h11v27.282C25,36.678,24.678,37,24.282,37z"/><path fill="#880e4f" d="M18.5,23c0,0.551,0.448,1,1,1s1-0.449,1-1s-0.448-1-1-1S18.5,22.449,18.5,23"/><path fill="#d7ccc8" d="M23.718,37h0.32c0.625,0,1.235-0.195,1.744-0.559l3-2.143c2.067-1.477,3.495-3.685,3.993-6.176	L33.5,22L34,9H23v27.282C23,36.678,23.322,37,23.718,37z"/><path fill="#880e4f" d="M29.5,23c0,0.551-0.448,1-1,1s-1-0.449-1-1s0.448-1,1-1S29.5,22.449,29.5,23"/><circle cx="19.258" cy="22.736" r=".426" fill="#ef5350"/><circle cx="28.183" cy="22.736" r=".426" fill="#ef5350"/><polygon fill="#1a1a1a" points="12.667,38.5 16.333,38.5 31.333,46 12.667,46"/><path fill="#880e4f" d="M24.562,30.347l-0.431,0.431c-0.072,0.072-0.189,0.072-0.261,0l-0.445-0.445	c-0.297-0.297-0.741-0.386-1.132-0.23c-0.484,0.193-1.11,0.485-1.429,0.806c0,0,0.476,0.411,0.915,0.869	C22.329,32.352,22.952,33,24,33c1.038,0,1.638-0.636,2.189-1.207c0.448-0.464,0.948-0.884,0.948-0.884	c-0.334-0.291-0.95-0.584-1.426-0.785C25.317,29.957,24.864,30.045,24.562,30.347z"/><path fill="#ad1457" d="M24,33L24,33c-0.64,0-1.254-0.254-1.707-0.707L21,31h1.641c0.236,0,0.468,0.055,0.679,0.16v0	c0.428,0.214,0.931,0.214,1.359,0v0C24.89,31.055,25.123,31,25.359,31H27l-1.293,1.293C25.254,32.746,24.64,33,24,33z"/><path fill="#1a1a1a" d="M16,34l1.491,0.497C18.403,34.801,19,35.536,19,36.354V40h-3V34z"/><path fill="#1a1a1a" d="M32,34l-1.491,0.497C29.597,34.801,29,35.536,29,36.354V40l3,2V34z"/><polygon fill="#333" points="29,46 32.168,46 35.167,40.5 29,39"/><polygon fill="#4d4d4d" points="31.833,46 27.499,46 15.5,43.5 19,39"/><path fill="#ad1457" d="M35.938,21.917l0.179,1.708h4.008v-9.25l-3.625-1.75L31.625,5H23l1,7h2.095	c3.184,0,5.967,2.149,6.772,5.229l0.757,2.896h0.324C34.972,20.125,35.831,20.898,35.938,21.917z"/><path fill="#880e4f" d="M38.35,10h-2.41c-1.03,0-2.05,0.23-2.98,0.67l-1.42,0.66C30.61,11.77,29.59,12,28.56,12h-3.29	c1.68,0,3.3-0.61,4.58-1.71l0.68-0.58C31.8,8.61,33.43,8,35.11,8h2.54c0.12,0.27,0.22,0.55,0.29,0.84l0.05,0.22	C38.07,9.39,38.19,9.7,38.35,10z"/><path fill="#880e4f" d="M43.17,25.16l-1.39-3.31C41.06,20.12,39.36,19,37.49,19c-1.23,0-2.4-0.38-3.37-1.04	c-0.98-0.66-1.76-1.6-2.21-2.75l-0.1-0.27l0.43,0.41c1.11,1.06,2.59,1.65,4.13,1.65h2.22c1.19,0,2.35,0.35,3.34,1.02l0.98,0.66	L43.17,25.16z"/><path fill="#ad1457" d="M16.375,5L11.5,12.625l-3.625,1.75v8.612h4.075l0.112-1.07c0.107-1.018,0.965-1.792,1.989-1.792	h0.324l0.757-2.896C15.938,14.149,18.721,12,21.905,12H24V5H16.375z"/><path fill="#880e4f" d="M22.48,12h-3.29c-1.03,0-2.05-0.23-2.98-0.67l-1.42-0.66C13.86,10.23,12.84,10,11.81,10H9.57	c0.21-0.42,0.37-0.88,0.46-1.35l0.04-0.23c0.03-0.14,0.06-0.28,0.1-0.42h2.47c1.68,0,3.31,0.61,4.58,1.71l0.68,0.58	C19.18,11.39,20.8,12,22.48,12z"/><path fill="#880e4f" d="M16.19,14.94l-0.1,0.27c-0.45,1.15-1.23,2.09-2.21,2.75C12.91,18.62,11.74,19,10.51,19	c-1.9,0-3.63,1.07-4.47,2.77l-1.17,2.34l0.22-5.43l0.98-0.66C7.06,17.35,8.22,17,9.41,17h2.22c1.54,0,3.02-0.59,4.13-1.65	L16.19,14.94z"/><path fill="#880e4f" d="M27,3.73v1.35c0,2.75-1.58,5.27-4.06,6.46L22,12c1.92-1.56,2.9-3.99,2.61-6.44L24.19,2.1	c0.46,0.14,0.91,0.35,1.32,0.63L27,3.73z"/></svg>