<svg xmlns="http://www.w3.org/2000/svg"  viewBox="0 0 48 48" width="1600px" height="1600px"><path fill="#263238" d="M10.026,21.201l-1.959-0.402c0-0.294-0.546-1.414-0.945-2.232c-1.276-2.617-3.206-6.572-1.291-9.636C7.484,6.286,11.546,5,18.25,5h7.796v2H18.25c-5.792,0-9.5,1.034-10.723,2.991C6.2,12.114,7.772,15.337,8.919,17.69C9.694,19.278,10.206,20.327,10.026,21.201z"/><path fill="#ffa726" d="M15.046,26c0,2.208-1.791,4-4,4s-4-1.792-4-4c0-2.209,1.791-4,4-4S15.046,23.791,15.046,26 M43,26c0-2.209-1.791-4-4-4s-4,1.791-4,4c0,2.208,1.791,4,4,4S43,28.208,43,26"/><path fill="#ffb74d" d="M39.912,16.092C38.972,8.711,32.682,3,25.046,3c-7.168,0-13.152,5.031-14.637,11.751c-0.233,0.681-0.363,1.428-0.363,2.249v12c0,8.286,8.75,16,15,16s15-7.714,15-16V17C40.046,16.691,39.992,16.389,39.912,16.092z"/><path fill="#ff9100" d="M20.046 36H30V38H20.046z"/><path fill="#784719" d="M35,26c0,1.105-0.895,2-2,2s-2-0.895-2-2s0.895-2,2-2S35,24.895,35,26 M20,26c0-1.105-0.896-2-2-2c-1.105,0-2,0.895-2,2s0.895,2,2,2C19.104,28,20,27.105,20,26"/><path fill="#37474f" d="M29.313,16H8.194c-3.437,13.5,1.938,20,1.938,20l3.914,3c0,0,2.704-10,10.954-10c1.104,0,2-0.896,2-2c0-1.656,0-3,0-3s-0.167-2,2-2h0.313C30.245,22,31,21.245,31,20.313v-2.625C31,16.755,30.245,16,29.313,16z M20.966,27.388l-6.813,1.805C13.111,29.583,12,28.813,12,27.701v-3.107C12,23.713,12.713,23,13.593,23h6.813C21.287,23,22,23.713,22,24.593v1.302C22,26.56,21.588,27.154,20.966,27.388z"/><path fill="#ff1744" d="M7.5 26A1.5 1.5 0 1 0 7.5 29A1.5 1.5 0 1 0 7.5 26Z"/><path fill="#546e7a" d="M17.046,20h-4c-0.552,0-1-0.448-1-1v-4c0-0.552,0.448-1,1-1h4c0.552,0,1,0.448,1,1v4C18.046,19.552,17.599,20,17.046,20z"/><path fill="#b0bec5" d="M15.046 15A2 2 0 1 0 15.046 19A2 2 0 1 0 15.046 15Z"/></svg>