<svg xmlns="http://www.w3.org/2000/svg"  viewBox="0 0 48 48" width="1600px" height="1600px"><path fill="#dd2c00" d="M44,35c0-11.3-4-16-4-16l2.7,2.2C41,11.9,34.1,5,24,5S6.9,11.9,5.3,21.2L8,19c0,0-4,4.7-4,16 c1-1.8,2.1-3.5,3-5c-0.5,1.5-2.6,8.5-1,13c4.2-2,11-3,18-3s13.7,1,18,3c1.6-4.5-0.5-11.5-1-13C41.9,31.5,43,33.2,44,35z"/><path fill="#ffa726" d="M15,27.5c0,1.9-1.6,3.5-3,3.5c-1.4,0-2-2.7-2-4.7s1.1-2.3,2.5-2.3C13.9,24,15,25.6,15,27.5z M33,27.5c0,1.9,1.6,3.5,3,3.5s2-2.7,2-4.7S36.9,24,35.5,24S33,25.6,33,27.5z"/><path fill="#ffb74d" d="M35.9,29.9c0,0-0.1-2.3-1.3-10.8c-0.5-4.1-3-6.1-5.5-7.1H29c-1.8,0-2,2-2,2c0,1.1-0.9,1-2,1h-2 c-1.1,0-2,0.1-2-1c0,0-0.2-2-2-2h-0.1c-2.5,1-5,3-5.5,7.1c-1.2,8.5-1.3,10.8-1.3,10.8s-1.2,5.1,5.4,9.2c3.7,2.3,4.4,1.9,6.4,1.9 s2.9,0.4,6.6-1.9C37.1,35,35.9,29.9,35.9,29.9z"/><path fill="#fff" d="M19,27c-1.6,0-3,0.7-3-1v-1c0-1.6,1.3-3,3-3l3,4C22,27.7,20.6,27,19,27z M32,26v-1c0-1.6-1.3-3-3-3 l-3,4c0,1.6,1.4,1,3,1S32,27.7,32,26z"/><path fill="#2196f3" d="M31,26c0,0.4-0.1,0.8-0.3,1.1c-0.5,0-1-0.1-1.7-0.1s-1.2,0.1-1.7,0.1C27.1,26.8,27,26.4,27,26 c0-1.1,0.9-2,2-2S31,24.9,31,26z M19,24c-1.1,0-2,0.9-2,2c0,0.4,0.1,0.8,0.3,1.1c0.5,0,1-0.1,1.7-0.1s1.2,0.1,1.7,0.1 c0.2-0.3,0.3-0.7,0.3-1.1C21,24.9,20.1,24,19,24z"/><path fill="#263238" d="M20,26c0,0.6-0.4,1-1,1s-1-0.4-1-1s0.4-1,1-1S20,25.4,20,26z M29,25c-0.6,0-1,0.4-1,1s0.4,1,1,1 s1-0.4,1-1S29.6,25,29,25z"/><path fill="#bf360c" d="M29,33c0,0-1.7,4-5,4s-5-4-5-4s1.7-1,5-1S29,33,29,33z"/><path fill="#fff" d="M24,32c0.7,0,1.4,0.1,2,0.1c-0.1,0.4-0.3,1.9-1,1.9S24,32,24,32z M26,32.1c0.1,0.4,0.4,1.8,1,1.9 c0.7,0.1,2-1,2-1S28,32.4,26,32.1z M23,34c0.8,0,1-2,1-2c-0.7,0-1.4,0.1-2,0.1C22.1,32.6,22.4,34,23,34z M22,32.1 c-2,0.3-3,0.9-3,0.9s1.3,1.1,2,1C21.6,33.9,21.9,32.6,22,32.1z"/><path fill="#ff6d00" d="M24,27.7c-1.1,0-1.8-1-1.9-1.2l-0.1-0.2C22,26.2,20,21.4,14.9,21l0.2-2c5.9,0.5,8.4,5.7,8.8,6.5 c0,0,0.1,0.1,0.1,0.1c0,0,0.1-0.1,0.1-0.1c0.3-0.8,2.9-6,8.8-6.5l0.2,2c-5,0.4-7.1,5.3-7.2,5.4l-0.1,0.1 C25.2,27.5,24.5,27.7,24,27.7z"/></svg>