<svg xmlns="http://www.w3.org/2000/svg"  viewBox="0 0 48 48" width="1600px" height="1600px" clip-rule="evenodd"><path fill="#1493f6" fill-rule="evenodd" d="M34.39,11.524C38.212,11.21,39,10,39,10l-1,3 c0,0,0.615-1.26,2.523-0.353C42.43,13.555,44,16,44,16l-0.858,1.412L45,20l-1.075,0.725c0.079,0.237,0.151,0.477,0.216,0.721 C44.714,21.817,46.153,22.272,47,23c-0.047,1.438-1.514,1.701-2.427,1.795c-0.011,2.201-0.591,4.371-1.642,6.398 c-0.093,1.949,0.211,4.22,0.211,4.22H41.57c0,0-0.14-0.524-1.572,1.059c-1.432,1.583-2.619,1.588-2.619,1.588 s0.036,1.171-1.048,2.647c-1.083,1.476-3.143,1.059-3.143,1.059l-1.572,1.588c0,0-1.251,0.221-3.667,0 c-2.906,1.015-7.334,0.529-7.334,0.529s-4.415-1.835-4.715,0c-1.045-1.482-3.143-2.118-3.143-2.118s0.028,1.237-0.524,1.059 c-2.313-1.852-2.536-3.914-3.143-3.177c-1.781-1.026-2.359-3.108-2.54-4.147c-0.117-0.158-0.23-0.318-0.339-0.48 c-0.269,0.14-0.803,0.411-1.836,0.921c0.202-2.112-0.259-4.172-2.62-6.353c-2.361-2.181,1.572-6.353,1.572-6.353 s-0.373,0.245-2.096-2.118c4.603-0.365,4.715-1.588,4.715-1.588S6.24,19.321,3.326,19c0.848-1.643,4.715-2.647,4.715-2.647 s-1.575-0.306-1.572-1.588c0.352,0.759,3.197,0.639,4.29,0.563c2.796-2.212,6.32-3.887,10.301-4.707 C25.837,9.637,30.496,10.046,34.39,11.524z" clip-rule="evenodd"/><path fill="#1493f6" fill-rule="evenodd" d="M16.485 5.03A7.485 7.485 0 1 0 16.485 20A7.485 7.485 0 1 0 16.485 5.03Z" clip-rule="evenodd"/><path fill="#1493f6" fill-rule="evenodd" d="M27.5 4A7.5 7.5 0 1 0 27.5 19A7.5 7.5 0 1 0 27.5 4Z" clip-rule="evenodd"/><path fill="#fff3df" fill-rule="evenodd" d="M16.5 7A5.5 5.5 0 1 0 16.5 18A5.5 5.5 0 1 0 16.5 7Z" clip-rule="evenodd"/><path fill="#fff3df" fill-rule="evenodd" d="M27.5 6A5.5 5.5 0 1 0 27.5 17A5.5 5.5 0 1 0 27.5 6Z" clip-rule="evenodd"/><path fill="#616161" fill-rule="evenodd" d="M26 9A2 2 0 1 0 26 13 2 2 0 1 0 26 9zM18 12A2 2 0 1 0 18 16 2 2 0 1 0 18 12z" clip-rule="evenodd"/><path fill="#0d43a4" fill-rule="evenodd" d="M39.786,17.382c-0.342-0.434-0.971-0.506-1.404-0.168 c-0.669,0.526-1.34,1.007-2.013,1.468C36.73,18.858,37,19,37,19c0.241,0.456-3.141,2.131-3.885,2.043 c0.406,0.158,1.825,0.726,1.813,0.735c-0.623,0.51-2.373,0.782-3.04,0.626c-0.48-0.112-0.938-0.26-1.543-0.329 c-0.133,0.025,1.416,1.7,1.348,1.719C29.353,24.47,28,23,28,23v3c0,0-2.732-0.23-3.928-1.904 c-0.026,0.006-0.053,0.012-0.079,0.018C24.009,25.537,22.46,27.707,22,28c0.098-0.768-0.219-2.256-0.851-3.048 c-0.378,1.015-0.881,2.123-2.128,3.048C18.905,27.911,19,26,19,26s-0.835,1.082-1.985,1.565c-0.079-2.056-0.035-2.466-0.019-2.544 c-0.022,0.001-0.043,0.001-0.065,0.002C16.655,25.12,15.599,25.572,15,27c-0.619-0.481-0.855-1.62-0.997-1.992 c-0.005,0-0.009,0-0.013-0.001C13.846,25.015,13.578,26.291,12,27c-0.189-0.162-0.129-1.856-2.003-2.37 c0.003-0.004,0.016-0.011,0.021-0.016c-1.689-0.266-2.684-0.558-2.724-0.57c-0.527-0.156-1.087,0.135-1.25,0.662 c-0.162,0.527,0.133,1.087,0.661,1.249C6.873,26.007,8.229,26.709,10,27c1.781,3.46,7,11,17,10c10.478-1.048,10.344-12.157,10-16 c0.807-0.545,1.814-1.581,2.618-2.214C40.052,18.444,40.127,17.815,39.786,17.382z" clip-rule="evenodd"/><path fill="#0d43a4" fill-rule="evenodd" d="M33.115,21.043C33.046,21.016,32.998,20.998,33,21 C33.024,21.024,33.064,21.037,33.115,21.043z" clip-rule="evenodd"/><path fill="none" fill-rule="evenodd" d="M-1 -1H49V49H-1z" clip-rule="evenodd"/></svg>