<svg xmlns="http://www.w3.org/2000/svg"  viewBox="0 0 48 48" width="1600px" height="1600px"><path fill="#546E7A" d="M18,30l-4.9,13c0,0,3.6,2,11,2s11-2,11-2L30,30H18z"/><path fill="#212121" d="M24.1,35c-3.3,0-5.8-0.4-7.7-0.8l0.7-1.9c1.7,0.4,4,0.7,6.9,0.7c2.9,0,5.2-0.3,6.8-0.7l0.7,1.9C29.8,34.6,27.3,35,24.1,35z M24.1,39c4.1,0,7.1-0.6,9-1.2L32.3,36c-1.7,0.5-4.5,1-8.3,1c-3.8,0-6.6-0.6-8.3-1.1L15,37.8C16.9,38.4,19.9,39,24.1,39z M34.4,41.4l-0.7-1.9C32.3,40,29.1,41,24.1,41c-5.1,0-8.3-1-9.7-1.5l-0.7,1.9C15.3,42,18.7,43,24.1,43C29.4,43,32.8,42,34.4,41.4z"/><path fill="#7986CB" d="M39.1,22c0,8.8-30,8.8-30,0s6.7-16,15-16S39.1,13.2,39.1,22z"/><path fill="#C5CAE9" d="M40.3,18.4c-0.2-1-0.9-1.4-2.2-1.4s-4.5,1.7-9,1.7c-1.2,0-1.9-0.6-1.9-1.7l0.9-15h-4h-4l0.9,15c0.1,1-0.8,1.8-1.9,1.7l-9.6-1.4c-1-0.2-2,0.5-2.2,1.4L6.1,25c-0.2,0.8,0.1,1.6,0.7,2l2.9,1.2c0.8,0.6,1.2,1.7,1,2.7L8.1,44c0,0,1.9,2,6,2l4.4-13.3c0.3-1,1.3-1.7,2.4-1.7h3.2h3.2c1.1,0,2.1,0.7,2.4,1.7L34.1,46c4.1,0,6-2,6-2l-2.7-12.8c-0.2-1,0.2-2.1,1-2.7l2.8-1.5c0.6-0.5,0.7-0.8,0.7-2C42,21.3,40.3,18.4,40.3,18.4z"/><path fill="#263238" d="M37.9,22c-0.1-0.5-0.6-0.9-1.1-0.8c-2,0.3-6.8,0.8-12.7,0.8c-5.9,0-10.7-0.6-12.7-0.8c-0.5-0.1-1,0.3-1.1,0.8l-0.3,2c-0.1,0.6,0.3,1.1,0.9,1.2c1.3,0.2,3.8,0.5,7.1,0.7l2.2,2.2h8l2.2-2.2c3.3-0.2,5.8-0.5,7.1-0.7c0.6-0.1,0.9-0.6,0.9-1.2L37.9,22z"/><path fill="#FF3D00" d="M36,24.3c0,0-1.5,0.2-3.8,0.3c-2.3,0.1-5.3,0.1-8.3,0c-1.5-0.1-3-0.2-4.4-0.3c-1.4-0.1-2.7-0.3-3.8-0.4c-1.1-0.1-2-0.3-2.7-0.4c-0.6-0.1-1-0.2-1-0.2s0.4,0,1,0.1c0.6,0.1,1.6,0.1,2.7,0.2c1.1,0.1,2.4,0.1,3.8,0.1c1.4,0,2.9,0,4.4-0.1c3-0.1,5.9-0.4,8.1-0.7c2.2-0.3,3.6-0.6,3.6-0.6L36,24.3z"/></svg>