<svg xmlns="http://www.w3.org/2000/svg"  viewBox="0 0 48 48" width="1600px" height="1600px"><path fill="#9FA8DA" d="M41,33c0,0,0.1-31-17-31S7,33,7,33s5.7,8.2,12,11.5l1,1.5h8l1-1.5C35.3,41.2,41,33,41,33z"/><path d="M24.1,4L24.1,4C24.1,4,24.1,4,24.1,4C24,4,24,4,24.1,4L24.1,4C7.5,4.1,7.4,38.5,20,45.5c-0.2-2.7-1-14.5-3.3-20C15.2,24,14,22.6,14,22c0-7.4,3.9-15,10-15s10,8.1,10,15c0,0.5-1.1,1.9-2.7,3.3C29,30.8,28.2,42.9,28,45.5C40.7,38.6,40.7,4.1,24.1,4z"/><path fill="#455A64" d="M35,36c0,0-1.8,7-7,10c0,0,0.7-14.5,3.3-20.7c1.5-1.4,2.7-2.8,2.7-3.3L35,36z M14,22l-1,14c0,0,1.8,7,7,10c0,0-0.7-14.4-3.3-20.6C15.2,24,14,22.6,14,22z M22,32l-0.9,14H24h3l-1-14H22z"/><path fill="#212121" d="M21.6,38h4.8l0.1,2h-5.1L21.6,38z M21.9,34l-0.1,2h4.5l-0.1-2H21.9z M26.7,42h-5.4l-0.1,2h5.6L26.7,42z"/><path fill="#C5CAE9" d="M24.1,20.9c-2.1,0-6.7-3.5-8.9-5.9C14.4,17.1,14,19.6,14,22c0,1.6,7.3,7.9,10.1,7.9S34,23.4,34,22c0-2.3-0.5-4.8-1.3-7C30.5,17.4,26.1,20.9,24.1,20.9z"/><path fill="#7986CB" d="M19.1,8.9c0,0.1,0.1,0.2,0.1,0.2C21.9,12.4,22,17,22,17s-2.5-3.6-5.1-5.6C17.6,10.4,18.3,9.6,19.1,8.9z M28.8,8.9c0,0.1-0.1,0.2-0.1,0.2c-2.6,3.3-2.7,7.9-2.7,7.9s2.5-3.6,5.1-5.6C30.4,10.4,29.6,9.6,28.8,8.9z"/><path d="M31.5,20c-0.4,0.2-0.8,0.3-1.3,0.5c-0.8,0.4-1.6,0.8-2.4,1.2c-1.3,0.7-2.5,1.5-3.7,2.3c-1.2-0.8-2.5-1.6-3.9-2.3c-0.8-0.4-1.7-0.8-2.5-1.2c-0.9-0.3-1.7-0.7-2.7-0.9c0.6,0.8,1.2,1.5,1.9,2.2c0.7,0.7,1.3,1.3,2,1.9c1.4,1.2,2.8,2.3,4.4,3.4l0,0c0.5,0.3,1.2,0.3,1.7,0c1.5-1,2.8-2.2,4.2-3.4c0.7-0.6,1.3-1.2,1.9-1.9c0.3-0.3,0.6-0.7,0.9-1c0.3-0.4,0.6-0.7,0.8-1.1C32.3,19.7,31.9,19.9,31.5,20z"/></svg>