<svg xmlns="http://www.w3.org/2000/svg"  viewBox="0 0 48 48" width="1600px" height="1600px"><path fill="#ff9e80" d="M16.544,11c0,0-12.561,0-10.561,11c2-3,4-1,5,0c1.581,1.581,3.561,2,5.561,1S16.544,11,16.544,11z"/><path fill="#ffccbc" d="M16.544,11c0,0,0.243,1.219,0.475,2.846C13.388,13.741,5.984,14.452,5.984,22 C2.984,10,16.544,11,16.544,11z"/><path fill="#37474f" d="M24,45l-0.001-0.002"/><path fill="#ff9e80" d="M24,30L24,30c-6.627,0-12,7.373-12,14v0h24v0C36,37.373,30.627,30,24,30z"/><path fill="#ff9e80" d="M31.439,11C31.439,11,44,11,42,22c-2-3-4-1-5,0c-1.581,1.581-3.561,2-5.561,1S31.439,11,31.439,11z"/><path fill="#ffccbc" d="M34,15.725c0-3.536-2.727-6.402-6.175-7.344c-2.592-0.499-5.143-0.517-7.65,0 C16.727,9.323,14,12.19,14,15.725l0.728,6.196c0.119,1.009,0.49,1.967,1.078,2.78L20.364,31L24,25.96L27.636,31l4.557-6.299 c0.588-0.813,0.96-1.771,1.078-2.78L34,15.725z"/><ellipse cx="19" cy="17.5" fill="#f5f5f5" rx="4" ry="2.5"/><ellipse cx="29" cy="17.5" fill="#f5f5f5" rx="4" ry="2.5"/><circle cx="19" cy="17" r="2" fill="#aed581"/><circle cx="29" cy="17" r="2" fill="#aed581"/><path fill="#784719" d="M18,17c0,0.551,0.448,1,1,1s1-0.449,1-1s-0.448-1-1-1S18,16.449,18,17"/><path fill="#784719" d="M28,17c0,0.551,0.448,1,1,1s1-0.449,1-1s-0.448-1-1-1S28,16.449,28,17"/><circle cx="24" cy="28" r="5" fill="#ffccbc"/><path fill="#ff9e80" d="M24,19c0,0-2,2.222-2,6.667s4,4.444,4,0C26,22.333,24,19,24,19z"/><path fill="#ff9e80" d="M26.5,27h-5c-0.828,0-1.5-0.672-1.5-1.5v0c0-0.828,0.672-1.5,1.5-1.5h5c0.828,0,1.5,0.672,1.5,1.5v0 C28,26.328,27.328,27,26.5,27z"/><path fill="#ff9e80" d="M24.085,30.948c-0.686,0-1.399-0.056-2.15-0.168l0.131-0.885c1.411,0.211,2.673,0.211,3.857,0.002 l0.154,0.881C25.436,30.892,24.774,30.948,24.085,30.948z"/><path fill="#bdbdbd" d="M20,31c-0.009-0.02-0.015-0.037-0.024-0.057c-1.068,0.506-2.07,1.188-2.976,2.013V44h19 c0-2.427-0.726-4.95-1.964-7.178C30.643,37.977,23.69,39.118,20,31z"/><path fill="#ffccbc" d="M31.439,11c0,0-0.243,1.219-0.475,2.846C34.596,13.741,42,14.452,42,22C45,10,31.439,11,31.439,11z"/></svg>