<svg xmlns="http://www.w3.org/2000/svg"  viewBox="0 0 48 48" width="1600px" height="1600px"><rect width="44" height="2" x="2" y="44" fill="#455a64"/><path fill="#37474f" d="M15,34c0,1.933,4.029,7.5,9,7.5s9-5.567,9-7.5s-4.029-1.5-9-1.5S15,32.067,15,34z"/><path fill="#455a64" d="M45.402,46c-5.097-7.91-15.348-9.648-15.348-9.648H24h-6.054c0,0-10.273,1.707-15.364,9.648H45.402z"/><path fill="#bcaaa4" d="M31,28H17v8.969C17,40.3,19.7,43,23.031,43h1.938C28.3,43,31,40.3,31,36.969V28z"/><path fill="#bcaaa4" d="M31,25H17v8.969C17,37.3,19.7,40,23.031,40h1.938C28.3,40,31,37.3,31,33.969V25z"/><path fill="#ad1457" d="M12.834,22.592l-2.608-11.425c-0.324-1.419-0.013-2.909,0.85-4.08l0.04-0.055	C12.059,5.754,13.553,5,15.141,5h4.186L22,7.125l-0.673,5.965l-3,9.206C18.327,22.295,12.611,22.815,12.834,22.592z"/><path fill="#ad1457" d="M35.166,22.592l2.57-11.261c0.345-1.513-0.031-3.1-1.02-4.297l-1.833-2.219	C33.935,3.666,32.521,3,31.029,3h-4.357L24,5.125l2.673,7.965l3,9.206C29.673,22.295,35.389,22.815,35.166,22.592z"/><path fill="#f48fb1" d="M37,22.2c0,1.438-1.165,5.2-2.6,5.2c-1.437,0-2.6-3.762-2.6-5.2c0-1.437,1.164-1.6,2.6-1.6	C35.835,20.6,37,20.762,37,22.2 M16.2,22.2c0,1.438-1.165,5.2-2.6,5.2c-1.438,0-2.6-3.762-2.6-5.2c0-1.437,1.162-1.6,2.6-1.6	C15.035,20.6,16.2,20.762,16.2,22.2"/><path fill="#d7ccc8" d="M25,37h-2.411c-1.021,0-2.003-0.39-2.745-1.091l-3.962-3.739C14.681,31.037,14,29.458,14,27.807V15	c0-3.314,2.686-6,6-6h5V37z"/><path fill="#d7ccc8" d="M23,37h2.411c1.021,0,2.003-0.39,2.745-1.091l3.962-3.739C33.319,31.037,34,29.458,34,27.807V15	c0-3.314-2.686-6-6-6h-5V37z"/><path fill="#880e4f" d="M18,24c0,0.551,0.448,1,1,1s1-0.449,1-1s-0.448-1-1-1S18,23.449,18,24"/><path fill="#880e4f" d="M30,24c0,0.551-0.448,1-1,1s-1-0.449-1-1s0.448-1,1-1S30,23.449,30,24"/><path fill="#ad1457" d="M30.712,12l2.852-5.928l-6.269-4.064c-0.765-0.496-1.651-0.773-2.563-0.802L21.358,1.1	c-0.781-0.024-1.556,0.134-2.265,0.463l-5.268,1.984l1.28,1.364l0.611,2.981L19.576,12H30.712z"/><path fill="#f48fb1" d="M34,19.959l1.402-0.476c1.107-0.375,2.199,0.603,1.947,1.744l-0.528,2.389l-2.839-0.937L34,19.959z"/><path fill="#ad1457" d="M24,15.02l0.174-0.351C24.68,13.647,25.722,13,26.862,13h1.695C31.011,13,33,14.989,33,17.442v1.122	c0,0.289,0.042,0.577,0.124,0.854l0.854,2.877l3-12.175H24V15.02z"/><path fill="#f48fb1" d="M14,19.959l-1.402-0.476c-1.107-0.375-2.199,0.603-1.947,1.744l0.528,2.389l2.839-0.937L14,19.959z"/><path fill="#ad1457" d="M24,15.02l-0.174-0.351C23.32,13.647,22.278,13,21.138,13h-1.695C16.989,13,15,14.989,15,17.442	v1.122c0,0.289-0.042,0.577-0.124,0.854l-0.854,2.877l-3-12.175L25,7.12L24,15.02z"/><polygon fill="#90a4ae" points="31,40 24,43 17,40 17,44 17,46 24,46 31,46 31,44"/><path fill="#37474f" d="M26,46L26,46c0.024-1.263,0.523-2.47,1.398-3.381L30.875,39l3.063,7H26z"/><path fill="#607d8b" d="M33,34l2.375,4l-0.625,8h-3.125l-1.436-2.735c-0.59-1.124-2.1-1.353-2.998-0.456L27,43	C29.897,40.08,32.022,36.914,33,34z"/><path fill="#37474f" d="M22,46L22,46c-0.024-1.263-0.523-2.47-1.398-3.381L17.125,39l-3.063,7H22z"/><path fill="#607d8b" d="M15,34l-2.375,4l0.625,8h3.125l1.436-2.735c0.59-1.124,2.1-1.353,2.998-0.456L21,43	C18.103,40.08,15.978,36.914,15,34z"/><circle cx="18.758" cy="23.736" r=".426" fill="#ef5350"/><circle cx="28.683" cy="23.736" r=".426" fill="#ef5350"/><polygon fill="#607d8b" points="36.167,38.417 38.957,38.565 46,43 46,46 37.06,40.835"/><ellipse cx="38.67" cy="40.039" fill="#455a64" rx="1" ry=".75" transform="rotate(31.658 38.67 40.036)"/><polygon fill="#607d8b" points="11.833,38.417 9.043,38.565 2,43 2,46 10.94,40.835"/><ellipse cx="9.33" cy="40.039" fill="#455a64" rx="1" ry=".75" transform="rotate(148.342 9.33 40.04)"/><rect width="15.125" height="3.375" x="16.625" y="19.625" fill="#d7ccc8"/><path fill="#ec407a" d="M25.172,33h-2.343c-0.53,0-1.039-0.211-1.414-0.586L21,32h6l-0.414,0.414	C26.211,32.789,25.702,33,25.172,33z"/><path fill="#880e4f" d="M21.138,13L21.138,13c-2.145-0.094-3.853-1.827-3.916-3.973v0c-0.035-1.199-0.507-2.344-1.326-3.22	L15.141,5c-1.436-0.005-2.63,0.584-3.655,1.59l2.112,3.519C14.675,11.903,16.613,13,18.705,13H21.138z"/><path fill="#ad1457" d="M27.5,32h-4h-3l1.964-0.785C22.818,31.073,23.196,31,23.578,31h0.845c0.382,0,0.76,0.073,1.114,0.215	L27.5,32z"/><path fill="#880e4f" d="M27.138,13L27.138,13c2.145-0.094,3.853-1.827,3.916-3.973v0c0.035-1.199,0.507-2.344,1.326-3.22	c0,0,0.881-0.773,1.245-0.891c1.366-0.441,1.933,0.994,2.958,2l-1.906,3.192C33.601,11.903,31.662,13,29.57,13H27.138z"/><path fill="#880e4f" d="M24,15.02l0.292-2.853c0.139-0.909,0.671-2.063,1.199-2.828l0,0c1.124-1.63,1.388-3.676,0.712-5.522	l-0.909-2.483C25.951,1.154,27.379,1.954,29,3v3.113c0,1.783-0.79,3.48-2.171,4.663l0,0c-0.56,0.479-1.221,1.09-1.579,1.724	L24,15.02z"/></svg>