<svg xmlns="http://www.w3.org/2000/svg"  viewBox="0 0 48 48" width="1600px" height="1600px"><path fill="#f48fb1" d="M15,27c0,2.761-1.067,6-3,6s-4-3.239-4-6s1.567-4,3.5-4S15,24.239,15,27z M33,27c0,2.761,1.067,6,3,6s4-3.239,4-6s-1.567-4-3.5-4S33,24.239,33,27z"/><path fill="#f8bbd0" d="M37,26.416C37,35.528,30.094,45,24,45s-13-9.472-13-18.584s5.82-16.5,13-16.5S37,17.303,37,26.416z"/><path fill="#fff" d="M27,28l7-2c0,0-0.583,4-4,4C27.5,30,27,28,27,28z M21,28l-7-2c0,0,0.542,4,4,4C20.5,30,21,28,21,28z"/><path fill="#00897b" d="M19,28.5c0,0.828-0.672,1.5-1.5,1.5S16,29.328,16,28.5s0.672-1.5,1.5-1.5S19,27.672,19,28.5z M30.5,27c-0.828,0-1.5,0.672-1.5,1.5s0.672,1.5,1.5,1.5s1.5-0.672,1.5-1.5S31.328,27,30.5,27z"/><path fill="#212121" d="M18.25,28.5c0,0.414-0.336,0.75-0.75,0.75s-0.75-0.336-0.75-0.75s0.336-0.75,0.75-0.75S18.25,28.086,18.25,28.5z M30.5,27.75c-0.414,0-0.75,0.336-0.75,0.75s0.336,0.75,0.75,0.75s0.75-0.336,0.75-0.75S30.914,27.75,30.5,27.75z"/><path fill="#37474f" d="M36,17c0,0-2.063-13.95-6.438-13.95C26.81,3.05,26,6,24,6s-2.81-2.95-5.563-2.95C14,3.05,12,17,12,17c-2.875,2.875-8,3-8,3s3.5,6,20,6s20-6,20-6S38.875,19.875,36,17z"/><path fill="#546e7a" d="M24,15.95c-7.202,0-10.21-1.496-11.359-2.375C12.21,15.544,12,17,12,17v1c0,0,1.813,3,12,3s12-3,12-3v-1c0,0-0.216-1.452-0.652-3.416C34.189,14.464,31.178,15.95,24,15.95z"/><path fill="#880e4f" d="M29,37c0,0-1.686,4-5,4s-5-4-5-4s1.686-1,5-1S29,37,29,37z"/><path fill="#fff" d="M25 38c.636 0 .911-1.43.98-1.866C25.399 36.056 24.747 36 24 36 24 36 24.25 38 25 38zM26.028 36.14c.089.43.41 1.79.972 1.86.667.083 2-1 2-1S27.994 36.413 26.028 36.14zM23 38c.75 0 1-2 1-2-.747 0-1.399.056-1.98.134C22.089 36.57 22.364 38 23 38zM21.972 36.14C20.006 36.413 19 37 19 37s1.333 1.083 2 1C21.562 37.93 21.884 36.569 21.972 36.14z"/><path fill="#f06292" d="M15,33.393c-0.945-0.781-2.798-2.881-3-4.393c0,0,1.688,1.785,3,2.371V33.393z M16,31.722v2.377C17.064,34.736,19,35,19,35s0.625-1.875,1-3C19.249,32,16.588,31.886,16,31.722z M32,31.722C31.412,31.886,28.751,32,28,32c0.5,1.5,1,3,1,3s1.936-0.264,3-0.901V31.722z M33,31.371v2.022c0.945-0.781,2.798-2.881,3-4.393C36,29,34.312,30.785,33,31.371z M17,36c-1.09-0.586-4-3-4-3s1.745,3.251,3,5L17,36z M32,38c1.255-1.749,3-5,3-5s-2.902,2.481-4,3L32,38z"/></svg>