<svg xmlns="http://www.w3.org/2000/svg"  viewBox="0 0 48 48" width="1600px" height="1600px"><path fill="#ffccbc" d="M24,2C16.006,2,9.202,5.924,6.556,11.428c-0.993,3.697-0.98,4.662-1.087,10.139c-0.067,0.334-0.106,0.677-0.106,1.029c0,1.663,0.758,3.154,1.962,4.182c0.202,0.173,0.626,0.893,0.932,1.527c-0.062,0.271-0.096,0.546-0.096,0.817c0,1.228,0.477,2.476,1.232,3.533c1.531,5.392,3.678,6.95,4.799,7.729c1.494,1.038,2.943,1.449,2.943,2.809c0,1.545,2.452,2.809,4.069,2.809h1.814h3.776c1.619,0,4.069-1.264,4.069-2.809c0-1.359,1.449-1.77,2.943-2.809c1.121-0.78,3.266-2.336,4.797-7.723c0.758-1.058,1.236-2.308,1.236-3.538c0-0.271-0.037-0.545-0.1-0.815c0.306-0.634,0.731-1.356,0.934-1.529c1.204-1.028,1.962-2.519,1.962-4.182c0-0.352-0.039-0.696-0.106-1.029c0.336-3.9-0.343-8.483-1.087-10.139C38.798,5.924,31.994,2,24,2z"/><path fill="#ffab91" d="M25.923,2.134c-0.06-0.005-0.119-0.012-0.18-0.017c0.058,0.007,0.116,0.011,0.174,0.018C25.919,2.134,25.921,2.134,25.923,2.134z" opacity=".51"/><path fill="#ffab91" d="M32.73,38.943C30.72,40.495,27.562,41.5,24,41.5c-6.075,0-11-2.91-11-6.5c0-0.661,0.17-1.299,0.48-1.9c-0.427,0.22-0.906,0.349-1.418,0.349c-1.779,0-3.221-1.488-3.221-3.325c0-1.507,0.977-2.765,2.309-3.173C9.478,24.396,8.5,21.316,8.5,18c0-8.175,5.943-14.906,13.611-15.869c-7.162,0.563-13.12,4.281-15.555,9.345c-0.993,3.697-0.98,4.662-1.087,10.139c-0.067,0.334-0.106,0.677-0.106,1.029c0,1.663,0.758,3.154,1.962,4.182c0.202,0.173,0.626,0.893,0.932,1.527c-0.062,0.271-0.096,0.546-0.096,0.817c0,1.228,0.477,2.476,1.232,3.533c1.531,5.392,3.678,6.95,4.799,7.729c1.494,1.038,2.943,1.449,2.943,2.809c0,1.545,2.452,2.808,4.069,2.808h1.815h3.776c1.619,0,4.069-1.264,4.069-2.808c0-1.359,1.449-1.77,2.943-2.809c0.521-0.362,1.262-0.898,2.06-1.9C34.846,38.733,33.803,38.885,32.73,38.943z"/><path fill="#424242" d="M35.998,15.518C34.683,14.377,33.309,14,32,14c-3.438,0-5.195,3.074-5.561,3.439c-0.586,0.586-0.586,1.536,0,2.121c0.586,0.586,1.536,0.586,2.121,0C28.973,19.149,30.313,16,33,16c0.886,0,1.883,0.261,2.997,0.804C36.627,17.111,36.688,16.116,35.998,15.518z"/><path fill="#ffab91" d="M20.55,18.917c-0.065-0.372,1.617,1.583,1.45,4.5s-3.241,2.748-2.537,5.582c-1.296-1.012-0.713-4.282-0.713-4.282l-2.25-3.712C16.5,21.005,21.351,23.5,20.55,18.917z"/><path fill="#424242" d="M28 24.198c0 1.543 2.094.399 3.597.399 1.503 0 3.403 1.264 3.403-.731 0-2.012-1.997-2.86-3.5-2.86C29.997 21.006 28 22.655 28 24.198zM12.002 15.518C13.316 14.377 14.691 14 16 14c3.438 0 5.195 3.074 5.561 3.439.586.586.586 1.536 0 2.121-.586.586-1.536.586-2.121 0C19.027 19.149 17.688 16 15 16c-.886 0-1.883.261-2.997.804C11.373 17.111 11.312 16.116 12.002 15.518zM20 24.198c0 1.543-2.094.399-3.597.399S13 25.861 13 23.865c0-2.012 1.997-2.86 3.5-2.86S20 22.655 20 24.198z"/><path fill="#eee" d="M36 27c1.276.686 2 1.545 2 2.47 0 1.933-1.567 3.5-3.5 3.5-1.518 0-4.089-3.944-5.961-3.971-.455.619-1.182 1.025-2.009 1.025-.135 0-.433.102-.5.177-.148.525-1.089.787-2.029.787s-1.881-.262-2.029-.787c-.067-.075-.365-.177-.5-.177-.827 0-1.554-.406-2.009-1.025-1.872.026-4.443 3.971-5.961 3.971-1.933 0-3.5-1.567-3.5-3.5 0-.925.954-1.872 2-2.47-2.577 0-5 2.569-5 4.97 0 2.761 2.221 5.654 4.875 6.417C13.953 38.985 14.994 39 19 39h10c4.006 0 5.047-.015 7.125-.613C38.779 37.624 41 34.732 41 31.97 41 29.569 38.5 27 36 27zM38.238 16.277c.099-.166.228-.304.37-.425-.032-.044-.069-.083-.097-.13-.492-.825-.197-1.89.655-2.366l3.804-2.126c.852-.476 1.952-.191 2.445.634.492.825.197 1.89-.655 2.366l-.716.4h.416c.847 0 1.54.671 1.54 1.49 0 .82-.693 1.49-1.54 1.49h-.256l.283.158c.852.476 1.147 1.541.655 2.366-.492.825-1.592 1.11-2.445.634l-3.804-2.126C38.041 18.167 37.746 17.102 38.238 16.277zM9.762 16.277c-.099-.166-.228-.304-.37-.425.032-.044.069-.083.097-.13.492-.825.197-1.89-.655-2.366l-3.804-2.126c-.852-.476-1.952-.191-2.445.634-.492.825-.197 1.89.655 2.366l.716.4H3.54c-.847 0-1.54.671-1.54 1.49 0 .82.693 1.49 1.54 1.49h.256l-.283.158c-.852.476-1.147 1.541-.655 2.366.492.825 1.592 1.11 2.445.634l3.804-2.126C9.959 18.167 10.254 17.102 9.762 16.277z"/></svg>