<svg xmlns="http://www.w3.org/2000/svg"  viewBox="0 0 48 48" width="1600px" height="1600px"><path fill="#40C4FF" d="M46,20.8c-0.1-0.8-0.3-1.6-1.2-2.7c-0.2-0.3-0.5-0.6-0.8-0.8c-0.3-0.2-0.6-0.5-0.9-0.7c-0.6-0.5-1.3-1-2-1.4s-1.5-0.9-2.3-1.2c-0.7-0.4-2.8-1.3-2.8-3c0-1.1,0.8-1,1-1c0,0.1,0,0.1,0,0.1c-0.1,1.7,1,2.8,2.7,2.9c1.7,0.1,3.1-1.1,3.3-2.8c0,0,0,0,0-0.1c0,0,0-0.1,0-0.2c0-0.2,0-0.4,0-0.5C43,8.9,42.9,5,37.4,5c-1.1,0-2.2,0.4-3.3,1.2c-0.5,0.4-1,0.9-1.3,1.4c-0.4,0.6-0.6,1.2-0.7,1.8c-0.3,1.2-0.1,2.6,0.5,3.7c0.2,0.3,0.3,0.6,0.6,0.8c0.1,0.1,0.4,0.5,0.7,0.6c0.5,0.4,1,0.7,1.5,0.9c1,0.4,1.9,0.6,2.7,0.8c0.8,0.2,1.5,0.4,2.3,0.6c0.7,0.3,1.4,0.6,2.1,0.9c0.3,0.2,0.6,0.3,0.9,0.5c0.3,0.2,0.5,0.3,0.8,0.5c0.9,0.8,1.4,1.4,1.6,2.1c0.1,0.3,0.2,0.6,0.2,0.8c0,0.2,0,0.3,0,0.3s0-0.1,0-0.3C46,21.5,46,21.2,46,20.8z"/><path fill="#FF9800" d="M19,28c-3.9,0-8-4-8-4s4.1-4,8-4s8,4,8,4S22.9,28,19,28z M21,39.2c0-0.1,0-0.1,0-0.2c0-1.1-0.9-2-2-2s-2,0.9-2,2c0,0.1,0,0.1,0,0.2c-1.7,0.4-5,1.3-5,2.8h14C26,40.6,22.7,39.6,21,39.2z"/><path fill="#FFC107" d="M21,18c0,1.1-0.9,2-2,2s-2-0.9-2-2s0.9-2,2-2S21,16.9,21,18z M48,21c0,0-14,16-29,16c-3,0-5.3-0.9-7-2.1C9,34.4,0,32.2,0,22c0-0.7-0.1-1.4,0-2c0-0.6,0.4-1,1-1c0.3,0,0.5,0.1,0.7,0.3l0,0C3.8,21.3,7.5,24,9,24h24c3.4,0,11-3,11-3H48z M8.1,29.7C7.5,28.3,7.2,27,7,25.9c0-0.1,0-0.3,0-0.4c-1.7-0.7-3.6-2.2-5-3.3C2.1,26.8,5,28.8,8.1,29.7z"/></svg>