<svg xmlns="http://www.w3.org/2000/svg"  viewBox="0 0 48 48" width="1600px" height="1600px"><path fill="#A1C2BA" d="M24,44c-6.9,0-7.1-6.5-8.6-8.3C13.6,34,5,30.7,5,22.3C5,13.9,8.5,4,24,4s19,10,19,18.3S34.4,34,32.6,35.7C31.1,37.5,30.9,44,24,44z"/><path fill="#5D736D" d="M25,34.2c0,0.8,0.5,0.8,1,0.8s1,0,1-0.8c0-1.2-2-3.6-2-3.1C25,31.6,25,33,25,34.2z"/><path fill="#003B3D" d="M26.3,28.7c0.3,0.3,6,1.1,9.2-2.1c3.2-3.2,2.5-8.8,2.1-9.2c-0.4-0.4-6-1.1-9.2,2.1S26,28.4,26.3,28.7z"/><path fill="#5D736D" d="M23,31.1c0-0.5-2,1.9-2,3.1c0,0.8,0.5,0.8,1,0.8s1,0,1-0.8C23,33,23,31.6,23,31.1z"/><path fill="#003B3D" d="M19.6,19.5c-3.2-3.2-8.8-2.5-9.2-2.1c-0.4,0.4-1.1,6,2.1,9.2s8.9,2.4,9.2,2.1C22,28.4,22.8,22.7,19.6,19.5z"/><path fill="#006064" d="M33.7 19.4c-.2 0-2.3.5-3.6 1.7-1.2 1.2-1.8 3.3-1.8 3.6-.1.5.2 1.1.7 1.2.1 0 .2 0 .2 0 .5 0 .9-.3 1-.8.1-.5.6-1.9 1.3-2.6.7-.7 2.1-1.1 2.6-1.2.5-.1.9-.6.8-1.2C34.8 19.6 34.2 19.3 33.7 19.4zM17.9 21.1c-1.2-1.2-3.4-1.7-3.6-1.7-.5-.1-1.1.2-1.2.8-.1.5.2 1.1.8 1.2.5.1 1.9.5 2.6 1.2.7.7 1.2 2.1 1.3 2.6.1.5.5.8 1 .8.1 0 .2 0 .2 0 .5-.1.9-.7.7-1.2C19.7 24.4 19.1 22.3 17.9 21.1z"/></svg>