<svg xmlns="http://www.w3.org/2000/svg"  viewBox="0 0 48 48" width="1600px" height="1600px" baseProfile="basic"><polygon fill="#4fc3f7" points="26,42 20,38 25,36 31,41"/><path fill="#4fc3f7" d="M26.663,41C25.192,41,24,42.192,24,43.663V44h8v-3H26.663z"/><path fill="#455a64" d="M35,43.663C35,42.192,33.808,41,32.337,41H32v3h3V43.663z"/><path fill="#81d4fa" d="M18,38.003C18,32.118,22,21,22,21l12-5c0,0,4,2,4,8l-1,0c0,1.811-0.257,4.491-0.989,6 C36,30,35,29,35,29c-2,6-13,11-13,11S18,38,18,38.003z"/><polygon fill="#81d4fa" points="22,42 16,38 21,36 27,41"/><circle cx="23.5" cy="24.5" r="9.5" fill="#b3e5fc"/><path fill="#b3e5fc" d="M5,44c0-4.949,4.652-18.584,11.701-26.147c0.354,0.388,12.782,14.028,12.782,14.028 C21.163,39.253,9.23,44,5,44z"/><path fill="#81d4fa" d="M38,12.5c0,4.142-3.775,5.517-8.469,5.517S21,16.642,21,12.5S23,4,29.5,4S38,8.358,38,12.5z"/><path fill="#b3e5fc" d="M29.49,9.438c0,0.691-0.001,2.546-0.001,2.546c0.004,0-1.466,3.024-4.489,3.024 c-3.82,0-4-3.008-4-4.008h-1c0-2,1-3,1-3h-1c0,0,1-3,5-3C27,5,29.49,6.944,29.49,9.438z"/><path fill="#b3e5fc" d="M29.511,9.438c0,0.691,0.001,2.546,0.001,2.546c-0.004,0,1.466,3.024,4.489,3.024 c3.82,0,4-3.008,4-4.008h1c0-2-1-3-1-3h1c0,0-1-3-5-3C32.001,5,29.511,6.944,29.511,9.438z"/><path fill="#fbc02d" d="M27.497,9.914C27.406,10.524,26.902,11,26.267,11C25.567,11,25,10.433,25,9.733 c0-0.203,0.059-0.388,0.144-0.559C24.437,9.461,24,10,24,10s0.361,2,2.181,2c0.733,0,1.479-0.506,1.819-1 C28,11,27.852,10.441,27.497,9.914z"/><path fill="#fbc02d" d="M26.267,11c0.636,0,1.139-0.476,1.23-1.086C27.182,9.445,26.704,9,26,9 c-0.316,0-0.603,0.072-0.856,0.175C25.059,9.345,25,9.53,25,9.733C25,10.433,25.567,11,26.267,11z"/><path fill="#455a64" d="M26.267,11c0.636,0,1.139-0.476,1.23-1.086C27.182,9.445,26.704,9,26,9 c-0.316,0-0.603,0.072-0.856,0.175C25.059,9.345,25,9.53,25,9.733C25,10.433,25.567,11,26.267,11z"/><path fill="#fbc02d" d="M33.846,9.17c0.087,0.172,0.147,0.358,0.147,0.563c0,0.7-0.567,1.267-1.267,1.267 c-0.633,0-1.135-0.472-1.229-1.079C31.146,10.446,31,11,31,11c0.34,0.494,1.086,1,1.819,1C34.639,12,35,10,35,10 S34.559,9.455,33.846,9.17z"/><path fill="#fbc02d" d="M32.726,11c0.7,0,1.267-0.567,1.267-1.267c0-0.205-0.06-0.392-0.147-0.563 C33.595,9.069,33.312,9,33,9c-0.708,0-1.187,0.449-1.503,0.921C31.591,10.528,32.093,11,32.726,11z"/><path fill="#455a64" d="M32.726,11c0.7,0,1.267-0.567,1.267-1.267c0-0.205-0.06-0.392-0.147-0.563 C33.595,9.069,33.312,9,33,9c-0.708,0-1.187,0.449-1.503,0.921C31.591,10.528,32.093,11,32.726,11z"/><path fill="#81d4fa" d="M21.663,41C20.192,41,19,42.192,19,43.663V44h9v-3H21.663z"/><path fill="#455a64" d="M31,43.663C31,42.192,29.808,41,28.337,41H28v3h3V43.663z"/><path fill="#455a64" d="M11.59,36.407c-0.802-0.802-0.573-2.397-0.573-2.396c-1.177,1.177-0.991,3.993-0.991,3.993 s2.876,0.105,3.982-1.001C14.006,37.004,12.397,37.214,11.59,36.407z"/><path fill="#455a64" d="M17.58,30.397c-0.804-0.804-0.574-2.403-0.575-2.403c-1.181,1.181-0.994,4.004-0.994,4.004 s2.884,0.105,3.994-1.004C20.003,30.996,18.389,31.206,17.58,30.397z"/><path fill="#455a64" d="M21.581,33.396C20.779,32.594,21.009,31,21.008,31c-1.177,1.177-0.991,3.993-0.991,3.993 s2.876,0.105,3.982-1.001C23.997,33.993,22.388,34.203,21.581,33.396z"/><path fill="#455a64" d="M14.594,26.383c-0.804-0.804-0.574-2.403-0.575-2.403c-1.181,1.181-0.994,4.004-0.994,4.004 s2.884,0.105,3.994-1.004C17.017,26.982,15.403,27.192,14.594,26.383z"/><path fill="#455a64" d="M12.575,31.402c-0.804-0.804-0.574-2.403-0.575-2.403c-1.181,1.181-0.994,4.004-0.994,4.004 s2.884,0.105,3.994-1.004C14.998,32.001,13.384,32.211,12.575,31.402z"/><path fill="#455a64" d="M16.577,35.41c-0.802-0.802-0.573-2.397-0.573-2.396c-1.177,1.177-0.991,3.993-0.991,3.993 s2.876,0.105,3.982-1.001C18.993,36.006,17.383,36.216,16.577,35.41z"/><path fill="#455a64" d="M31,12.5c0,0.828-1.5,2.499-1.5,2.499S28,13.328,28,12.5s0.672-1.5,1.5-1.5S31,11.672,31,12.5z"/></svg>