<svg xmlns="http://www.w3.org/2000/svg"  viewBox="0 0 48 48" width="1600px" height="1600px"><path fill="#42A5F5" d="M12,22.5c0,1.9-0.1,6.5-2,6.5s-5-2.6-5-6.5C5,20.6,6.6,19,8.5,19S12,20.6,12,22.5z M36,22.5c0,1.9,0.1,6.5,2,6.5s5-2.6,5-6.5c0-1.9-1.6-3.5-3.5-3.5S36,20.6,36,22.5z"/><path fill="#90CAF9" d="M24,3C15.2,3,8,9,8,16.5c0,2.7,0.2,7.3,1.2,11.9C10.5,37.8,19.4,45,24,45s13.5-7.2,14.8-16.6c1-4.7,1.2-9.2,1.2-11.9C40,9,32.8,3,24,3z"/><path fill="#880E4F" d="M38,16h2c0-0.7-0.1-1.3-0.3-2H38v-4c-1-1.5-2.4-2.9-4-4h-4V4c-0.6-0.2-1.3-0.4-2-0.5V6h-8V3.4c-0.7,0.1-1.4,0.3-2,0.5v2h-4c-1.6,1.1-2.9,2.4-4,4v4H8.3c-0.1,0.7-0.2,1.3-0.3,2h2v6H8.3c0.1,0.6,0.1,1.3,0.2,2H10v6H9.5c0.5,2.1,1.4,4.1,2.5,5.9V32h6v6h-4.6c0.6,0.7,1.1,1.4,1.7,2H18v2.5c0.7,0.5,1.3,0.9,2,1.3V40h8v3.8c0.7-0.4,1.3-0.8,2-1.3V40h2.8c0.6-0.6,1.2-1.3,1.7-2H30v-6h6v3.9c1.1-1.8,2-3.8,2.5-5.9H38v-6h1.5c0.1-0.7,0.2-1.4,0.2-2H38V16z M20,8h8v6h-8V8z M12,8h6v6h-6V8z M28,38h-8v-6h8V38z M36,19v3v2v3v3H12v-3v-3v-2v-3v-3h24V19z M36,14h-6V8h6V14z"/><path fill="#1A237E" d="M35 23.5c0 0-2.1 2.5-4.5 2.5S26 23.5 26 23.5s1.9-2.5 4.5-2.5S35 23.5 35 23.5zM22 23.5c0 0-1.8 2.5-4.5 2.5S13 23.5 13 23.5s1.8-2.5 4.5-2.5S22 23.5 22 23.5z"/><path fill="#C5CAE9" d="M18,15c0-0.6,0.4-1,1-1s1,0.4,1,1s-0.4,1-1,1S18,15.6,18,15z M19,8c0.6,0,1-0.4,1-1s-0.4-1-1-1s-1,0.4-1,1S18.4,8,19,8z M11,16c0.6,0,1-0.4,1-1s-0.4-1-1-1s-1,0.4-1,1S10.4,16,11,16z M29,16c0.6,0,1-0.4,1-1s-0.4-1-1-1s-1,0.4-1,1S28.4,16,29,16z M29,8c0.6,0,1-0.4,1-1s-0.4-1-1-1s-1,0.4-1,1S28.4,8,29,8z M37,16c0.6,0,1-0.4,1-1s-0.4-1-1-1s-1,0.4-1,1S36.4,16,37,16z M19,32c0.6,0,1-0.4,1-1s-0.4-1-1-1s-1,0.4-1,1S18.4,32,19,32z M29,32c0.6,0,1-0.4,1-1s-0.4-1-1-1s-1,0.4-1,1S28.4,32,29,32z M19,40c0.6,0,1-0.4,1-1s-0.4-1-1-1s-1,0.4-1,1S18.4,40,19,40z M29,40c0.6,0,1-0.4,1-1s-0.4-1-1-1s-1,0.4-1,1S28.4,40,29,40z M37,24c0.6,0,1-0.4,1-1s-0.4-1-1-1s-1,0.4-1,1S36.4,24,37,24z M11,32c0.6,0,1-0.4,1-1s-0.4-1-1-1s-1,0.4-1,1S10.4,32,11,32z M11,24c0.6,0,1-0.4,1-1s-0.4-1-1-1s-1,0.4-1,1S10.4,24,11,24z M37,32c0.6,0,1-0.4,1-1s-0.4-1-1-1s-1,0.4-1,1S36.4,32,37,32z"/></svg>