<svg xmlns="http://www.w3.org/2000/svg"  viewBox="0 0 48 48" width="1600px" height="1600px"><path fill="#b0bec5" d="M47.32,28L47,32h-3v2H3c-1.66,0-3-1.34-3-3c0-2,1.5-6.25,4.5-10S12,14,18,14h9.23 c1.58,0,3.06,0.75,4,2c0.08,0.11,3.48,4.5,3.48,4.5c0.18,0.29,0.5,0.47,0.84,0.47H36c6.86,0,9.25,1.89,10.34,4.05 C46.84,26.01,47.06,27.06,47.32,28z"/><path fill="#fff" d="M25 24A4 4 0 1 0 25 32A4 4 0 1 0 25 24Z"/><path d="M22.25 29.833v-.728c.264.161.545.242.844.242.225 0 .401-.053.528-.16.126-.107.19-.253.19-.436 0-.383-.271-.574-.812-.574-.2 0-.43.015-.691.045l.146-2.157h2.047v.695h-1.397l-.054.774c.138-.011.258-.015.359-.015.397 0 .708.104.933.313.225.208.337.489.337.841 0 .391-.134.709-.402.956C24.01 29.877 23.647 30 23.189 30 22.816 30 22.504 29.944 22.25 29.833zM25.359 29.806v-.742c.259.188.561.283.906.283.218 0 .387-.046.508-.14.122-.094.182-.224.182-.392 0-.172-.075-.305-.225-.398-.15-.094-.356-.141-.619-.141h-.358v-.652h.332c.503 0 .755-.168.755-.502 0-.315-.193-.473-.58-.473-.259 0-.511.084-.755.251v-.695C25.776 26.068 26.093 26 26.454 26c.395 0 .703.09.924.267.22.178.33.409.33.694 0 .505-.256.822-.769.949v.014c.273.034.489.133.647.298.158.164.237.367.237.606 0 .361-.132.647-.396.857S26.798 30 26.333 30C25.934 30 25.609 29.935 25.359 29.806z"/><path fill="#cfd8dc" d="M10.5,24c-3.445,0-6.404,2.053-7.738,5C2.664,29.218,2,31,0,31c0,1.657,1.343,3,3,3h2h10h4v-1.5 C19,27.806,15.194,24,10.5,24z"/><path fill="#455a64" d="M16,32.5c0,3.038-2.462,5.5-5.5,5.5S5,35.538,5,32.5S7.462,27,10.5,27S16,29.462,16,32.5"/><path fill="#ffecb3" d="M13,32.5c0,1.382-1.118,2.5-2.5,2.5S8,33.882,8,32.5S9.118,30,10.5,30S13,31.118,13,32.5"/><path fill="#cfd8dc" d="M47.99,30.87C48.07,31.45,47.62,32,47,32h-3v2H31c0,0,0-0.99,0-1.5c0-4.69,3.81-8.5,8.5-8.5h0.23 c0.09-0.01,0.17,0,0.27,0c2.4,0,4.68,0.51,6.34,1.02c0.5,0.99,0.72,2.04,0.98,2.98C47.32,28,47.98,30.79,47.99,30.87z"/><path fill="#455a64" d="M45,32.5c0,3.038-2.462,5.5-5.5,5.5S34,35.538,34,32.5s2.462-5.5,5.5-5.5S45,29.462,45,32.5"/><path fill="#ffecb3" d="M42,32.5c0,1.382-1.118,2.5-2.5,2.5S37,33.882,37,32.5s1.118-2.5,2.5-2.5S42,31.118,42,32.5"/><path fill="#455a64" d="M16.905 16.042c-3.894.297-6.59 2.152-7.794 4.498C9.032 20.694 8.997 20.855 9 21.012 9.009 21.531 9.43 22 10.005 22H17c.552 0 1-.448 1-1v-3.959C18 16.453 17.491 15.997 16.905 16.042zM27.229 16H21c-.552 0-1 .448-1 1v4c0 .552.448 1 1 1h10.301c.831 0 1.299-.954.791-1.612-1.232-1.594-2.448-3.168-2.464-3.189C29.065 16.448 28.168 16 27.229 16z"/></svg>