<svg xmlns="http://www.w3.org/2000/svg"  viewBox="0 0 48 48" width="1600px" height="1600px"><path fill="#bf360c" d="M16,14h16v18H16V14z"/><path fill="#ff9800" d="M24,36c-2.193,0-5-6-5-6v-6h10v6C29,30,26.192,36,24,36"/><path fill="#ffb74d" d="M33,13c0-7.635-18-4.971-18,0v7c0,4.971,4.028,9,9,9c4.971,0,9-4.029,9-9V13z"/><path fill="#784719" d="M27,20c0,0.551,0.448,1,1,1s1-0.449,1-1s-0.448-1-1-1S27,19.449,27,20 M19,20c0,0.551,0.448,1,1,1 s1-0.449,1-1s-0.448-1-1-1S19,19.449,19,20"/><path fill="#bf360c" d="M16,14h16v18H16V14z"/><path fill="#ff9800" d="M24,36c-2.193,0-5-6-5-6v-6h10v6C29,30,26.192,36,24,36"/><path fill="#ffb74d" d="M33,13c0-7.635-18-4.971-18,0v7c0,4.971,4.028,9,9,9c4.971,0,9-4.029,9-9V13z"/><path fill="#784719" d="M27,20c0,0.551,0.448,1,1,1s1-0.449,1-1s-0.448-1-1-1S27,19.449,27,20 M19,20c0,0.551,0.448,1,1,1 s1-0.449,1-1s-0.448-1-1-1S19,19.449,19,20"/><path fill="#ffe082" d="M16,14h16v18H16V14z"/><path fill="#ff9800" d="M24,37c-2.193,0-5-6-5-6v-6h10v6C29,31,26.192,37,24,37"/><path fill="#ffb74d" d="M33,13c0-7.635-18-4.971-18,0v7c0,4.971,4.028,9,9,9c4.971,0,9-4.029,9-9V13z"/><path fill="#784719" d="M27,20c0-0.551,0.448-1,1-1s1,0.449,1,1s-0.448,1-1,1S27,20.551,27,20 M19,20c0,0.551,0.448,1,1,1 s1-0.449,1-1s-0.448-1-1-1S19,19.449,19,20"/><path fill="#cfd8dc" d="M29,31L29,31l-5,2l-5-2c0,0-11,1.986-11,13h32C40,33.025,29,31,29,31"/><path fill="#3f51b5" d="M23,36l-1,8h4l-1-8l1-1l-2-2l-2,2L23,36z"/><path fill="#fff" d="M29,38h7v4h-7V38z M24,43l-5-12l5,1l5-1L24,43z"/><path fill="#d32f2f" d="M23,35l-0.667,4.465l1.667,4l1.667-4L25,35l1-1l-2-2l-2,2L23,35z"/><path fill="#37474f" d="M29,31L29,31l-5,12l-5-12c0,0-11,1.986-11,13h32C40,33.025,29,31,29,31"/><path fill="#ffe082" d="M40.889,30.928c-0.247-1.191-0.949-2.229-1.902-2.939C39.614,27.153,40,26.126,40,25 c0-1.874-1.043-3.487-2.568-4.343C37.092,14.079,35.443,5,28,5l-1-2h-3c-6.157,0-11.538,4.645-12.746,17.331 C9.357,21.041,8,22.855,8,25c0,1.126,0.386,2.153,1.014,2.989c-0.953,0.71-1.655,1.748-1.902,2.939C6.441,34.158,8.888,37,12,37 c0.548,0,1.074-0.089,1.565-0.254C15.063,36.245,16,34.749,16,33.17V32v-2.973v-0.056v-7.946V18c5,0,12-2,12-7l4,5v5.026v7.946 v0.056V32v1.182c0,1.572,0.934,3.058,2.423,3.561C34.918,36.909,35.448,37,36,37C39.112,37,41.559,34.158,40.889,30.928z"/></svg>