<svg xmlns="http://www.w3.org/2000/svg"  viewBox="0 0 48 48" width="1600px" height="1600px" baseProfile="basic"><path fill="#ef6c00" d="M40,44H8c0-11,11-13,11-13h10C29,31,40,33,40,44z"/><path fill="#ff9800" d="M19,25v6c0,0,2.5,4,5,4s5-4,5-4v-6H19z"/><path fill="#ffb74d" d="M33,15c0-7.6-18-5-18,0c0,1.1,0,5.9,0,7c0,5,4,9,9,9s9-4,9-9C33,20.9,33,16.1,33,15z"/><path fill="#ffb74d" d="M29,31c0,0-2.5,4-5,4s-5-4-5-4c0,1.761,0.217,5.39,5,7C28.783,36.39,29,32.761,29,31z"/><circle cx="28" cy="22" r="1" fill="#784719"/><circle cx="20" cy="22" r="1" fill="#784719"/><path fill="#bf360c" d="M19,31c0,0-5.832,1.067-9.004,5.885L21,44l3-6C19.217,36.39,19,32.761,19,31z"/><path fill="#bf360c" d="M29,31c0,0,5.832,1.067,9.004,5.885L27,44l-3-6C28.783,36.39,29,32.761,29,31z"/><path fill="#424242" d="M37,0.334C35.991,1.231,34.294,2.031,33,2c-2.553-0.061-4-1-8-1c-1.268,0-3.456,0.969-4.456,2.099	c-0.713,0.806-2.787,1.594-3.546,2.524c-0.659,0.807-1.005,2.133-1.526,3.097c-0.463,0.856-1.472,1.717-1.771,2.756	c-0.391,1.362,0,2.004,0,3.698h0.007C13.396,15.712,13.149,16.314,13,17c-0.55,2.523,1,4,1,4c-1.763,4.447,1.371,6.005,1,8	c-0.646,3.469,2,5,2,5s-0.677-2.236,0-4.5c0.76-2.54-0.727-3.519-1-5.5c-0.32-2.322,0.221-3.844,1.5-5	c1.225-1.107,4.166-2.178,6.5-2.178s5.275,1.07,6.5,2.178c1.279,1.156,1.82,2.678,1.5,5c-0.273,1.981-1.76,2.96-1,5.5	c0.677,2.264,0,4.5,0,4.5s2.646-1.531,2-5c-0.371-1.995,2.763-3.553,1-8c0,0,1.55-1.477,1-4c-0.15-0.686-0.396-1.289-0.708-1.827	h0.008C34.299,13.32,34,11,33,9s3.026-3.051,4-5C38,2,37,0.334,37,0.334z"/></svg>