<svg xmlns="http://www.w3.org/2000/svg"  viewBox="0 0 48 48" width="1600px" height="1600px" baseProfile="basic"><path fill="#ffcc80" d="M24,23c-7,0-11,4-11,4l3,6h8h8l3-6C35,27,31,23,24,23z"/><path fill="#bf360c" d="M40,44H8c0-11,11-13,11-13h10C29,31,40,33,40,44z"/><path fill="#ff9800" d="M19,25v6c0,0,2.5,4,5,4s5-4,5-4v-6H19z"/><path fill="#ffb74d" d="M33,14c0-7.6-18-5-18,0c0,1.1,0,5.9,0,7c0,5,4,9,9,9s9-4,9-9C33,19.9,33,15.1,33,14z"/><circle cx="28" cy="21" r="1" fill="#784719"/><circle cx="20" cy="21" r="1" fill="#784719"/><polygon fill="#ef5350" points="21,44 27,44 24,38"/><path fill="#ffb74d" d="M29,31c0,0-2.5,4-5,4s-5-4-5-4c0,1.761,0.217,5.39,5,7C28.783,36.39,29,32.761,29,31z"/><path fill="#ffecb3" d="M37,26c0-2,1-4,1-5c0-2-1.515-4.06-2-6C34,7,28,5,24,5S14,7,12,15c-0.485,1.94-2,4-2,6c0,1,1,3,1,5	s-1,3-1,5s2,3,2,5s-1,2-1,4s3,4,3,4h3c0,0-1-2-1-4s1-3,1-5s-1-3-1-5s1-3,1-5s-1.754-2.869,0-5.5c2-3,7-5.5,7-5.5s5,2.5,7,5.5	c1.754,2.631,0,3.5,0,5.5s1,3,1,5s-1,3-1,5s1,3,1,5s-1,4-1,4h3c0,0,3-2,3-4s-1-2-1-4s2-3,2-5S37,28,37,26z"/></svg>