<svg xmlns="http://www.w3.org/2000/svg"  viewBox="0 0 48 48" width="1600px" height="1600px" baseProfile="basic"><path fill="#0d652d" d="M33.067,32.512L35,29c0,0-4-2-11-2s-11,2-11,2l1.933,3.512C11.8,34.18,8,37.534,8,44h32	C40,37.534,36.2,34.18,33.067,32.512z"/><path fill="#ff9800" d="M24,37c0,0-5-2-5-6v-6h10v6C29,35,24,37,24,37z"/><path fill="#ffb74d" d="M33,14c0-7.6-18-5-18,0c0,1.1,0,5.9,0,7c0,5,4,9,9,9s9-4,9-9C33,19.9,33,15.1,33,14z"/><circle cx="28" cy="21" r="1" fill="#784719"/><circle cx="20" cy="21" r="1" fill="#784719"/><polygon fill="#673ab7" points="21,44 27,44 24,37"/><path fill="#ef6c00" d="M37.504,10.154c-0.269-1.308-0.074-2.037-0.824-3.016c-0.968-1.263-2.344-1.236-3.611-1.666	c-1.504-0.51-2.197-1.698-4.335-1.698C26.891,3.773,24.716,5,24,5s-2.891-1.227-4.734-1.227c-2.138,0-2.832,1.188-4.335,1.698	c-1.267,0.43-2.643,0.403-3.611,1.666c-0.75,0.979-0.555,1.708-0.824,3.016c-0.256,1.243-1.378,2.586-1.261,3.656	c0.269,2.458,2.032,3.261,2.51,4.454c0.603,1.503,0.591,1.904,1.255,3.244c0.743,1.5,3,2.492,3,2.492s-0.768-6.232,1-8c3-3,6-1,7-1	s4-2,7,1c1.768,1.768,1,8,1,8s2.257-0.992,3-2.492c0.664-1.34,0.652-1.741,1.255-3.244c0.479-1.193,2.241-1.996,2.51-4.454	C38.882,12.74,37.76,11.397,37.504,10.154z"/><path fill="#2e7d32" d="M33.066,32.513C31.002,36.277,27.318,37.371,24,37l3,7l11.004-7.115	C36.609,34.766,34.767,33.409,33.066,32.513z"/><path fill="#2e7d32" d="M14.934,32.513C16.998,36.277,20.682,37.371,24,37l-3,7L9.996,36.885	C11.391,34.766,13.233,33.409,14.934,32.513z"/><path fill="#ffb74d" d="M24,34c-2.5,0-5-3-5-3c0,4,5,6,5,6s5-2,5-6C29,31,26.5,34,24,34z"/></svg>