<svg xmlns="http://www.w3.org/2000/svg"  viewBox="0 0 48 48" width="1600px" height="1600px"><path fill="#FFCC80" d="M24,4C9.7,4,7,13.4,7,25s8.9,21,17,21s17-9.4,17-21S38.3,4,24,4z"/><path fill="#F44336" d="M32,16l-8,4l-8-4l8,1L32,16z M16,35l4-7l-6,5L16,35z M34,33l-6-5l4,7L34,33z"/><path fill="#6D4C41" d="M21,23c0,2.2-1.8,4-4,4c-3.1,0-5-2.8-5-5c0-1.7,2.2-2,4.3-2H18C20.2,20,21,20.8,21,23z M27,23c0,2.2,1.8,4,4,4c3.1,0,5-2.8,5-5c0-1.7-2.2-2-4.3-2H30C27.8,20,27,20.8,27,23z"/><path fill="#3E2723" d="M30,22c-1.8,0-2.6,0.5-2.9,1.9C27,23.6,27,23.3,27,23c0-2.2,0.8-3,3-3h1.7c2,0,4.3,0.3,4.3,2c0,0.4-0.1,0.8-0.2,1.3C35,21.8,31.9,22,30,22z M18,22c1.8,0,2.6,0.5,2.9,1.9C21,23.6,21,23.3,21,23c0-2.2-0.8-3-3-3h-1.7c-2,0-4.3,0.3-4.3,2c0,0.4,0.1,0.8,0.2,1.3C13,21.8,16.1,22,18,22z"/><path fill="#455A64" d="M27,9h-6V4.1C21,3.5,21.5,3,22.1,3h3.8C26.5,3,27,3.5,27,4.1V9z M6.1,20C5.5,20,5,20.5,5,21.1v3.8C5,25.5,5.5,26,6.1,26H10v-6H6.1z M38,20v6h3.9c0.6,0,1.1-0.5,1.1-1.1v-3.8c0-0.6-0.5-1.1-1.1-1.1H38z"/><path fill="#212121" d="M22,6c0-0.6,0.9-1,2-1s2,0.4,2,1s-0.9,1-2,1S22,6.6,22,6z M8,23c0-1.1-0.4-2-1-2s-1,0.9-1,2s0.4,2,1,2S8,24.1,8,23z M41,25c0.6,0,1-0.9,1-2c0-1.1-0.4-2-1-2c-0.6,0-1,0.9-1,2C40,24.1,40.4,25,41,25z"/><path fill="#795548" d="M15,10c0,0.6-0.4,1-1,1s-1-0.4-1-1s0.4-1,1-1S15,9.4,15,10z M14,13c-0.6,0-1,0.4-1,1s0.4,1,1,1s1-0.4,1-1S14.6,13,14,13z M11,16c-0.6,0-1,0.4-1,1s0.4,1,1,1s1-0.4,1-1S11.6,16,11,16z M29,12c-0.6,0-1,0.4-1,1s0.4,1,1,1s1-0.4,1-1S29.6,12,29,12z M24,12c-0.6,0-1,0.4-1,1s0.4,1,1,1s1-0.4,1-1S24.6,12,24,12z M19,12c-0.6,0-1,0.4-1,1s0.4,1,1,1s1-0.4,1-1S19.6,12,19,12z M33,10c0,0.6,0.4,1,1,1s1-0.4,1-1s-0.4-1-1-1S33,9.4,33,10z M33,14c0,0.6,0.4,1,1,1s1-0.4,1-1s-0.4-1-1-1S33,13.4,33,14z M36,17c0,0.6,0.4,1,1,1s1-0.4,1-1s-0.4-1-1-1S36,16.4,36,17z M24,30c-0.6,0-1,0.4-1,1s0.4,1,1,1s1-0.4,1-1S24.6,30,24,30z M21,34c-0.6,0-1,0.4-1,1s0.4,1,1,1s1-0.4,1-1S21.6,34,21,34z M27,34c-0.6,0-1,0.4-1,1s0.4,1,1,1s1-0.4,1-1S27.6,34,27,34z M21,38c-0.6,0-1,0.4-1,1s0.4,1,1,1s1-0.4,1-1S21.6,38,21,38z M27,38c-0.6,0-1,0.4-1,1s0.4,1,1,1s1-0.4,1-1S27.6,38,27,38z M21,42c-0.6,0-1,0.4-1,1s0.4,1,1,1s1-0.4,1-1S21.6,42,21,42z M27,42c-0.6,0-1,0.4-1,1s0.4,1,1,1s1-0.4,1-1S27.6,42,27,42z M16,38c-0.6,0-1,0.4-1,1s0.4,1,1,1c0.6,0,1-0.4,1-1S16.6,38,16,38z M32,38c-0.6,0-1,0.4-1,1s0.4,1,1,1s1-0.4,1-1S32.6,38,32,38z M37,32c-0.6,0-1,0.4-1,1s0.4,1,1,1s1-0.4,1-1S37.6,32,37,32z M37,27c-0.6,0-1,0.4-1,1s0.4,1,1,1s1-0.4,1-1S37.6,27,37,27z M11,32c-0.6,0-1,0.4-1,1s0.4,1,1,1s1-0.4,1-1S11.6,32,11,32z M11,27c-0.6,0-1,0.4-1,1s0.4,1,1,1s1-0.4,1-1S11.6,27,11,27z"/></svg>