<svg xmlns="http://www.w3.org/2000/svg"  viewBox="0 0 48 48" width="1600px" height="1600px"><path fill="#ffb74d" d="M22,45c-2,0-10-8.833-10-12V16c0,0,0.292-8,12-8s12,8,12,8v17c0,3.083-8,12-10,12H22z"/><circle cx="18.5" cy="23.5" r="1.5" fill="#424242"/><circle cx="29.5" cy="23.5" r="1.5" fill="#424242"/><path fill="#424242" d="M38,11c-0.1,0.1-1.491-11.502-14-9c-12.509-2.502-13.9,9.1-14,9c-1.17,5.399-3.45,12.73-3,18	c0.414,4.849,4,9,9,9c0,0-3-4-3-12l0.713-7.213c0,0,0.67-9.67,7.287-9.787l3,2l3-2c6.617,0.117,7.287,9.787,7.287,9.787L35,26	c0,8-3,12-3,12c5,0,8.586-4.215,9-9.064C41.45,23.666,39.17,16.399,38,11z"/><path fill="#757575" d="M33,29l-0.714,5.714L30,37v-4l-4-2h-4l-4,2v4l-2.286-2.286L15,29l-2-2c0,3,0,9,0,9l6,9h5h5l6-9	c0,0,0-6,0-9L33,29z M20,35h4h4v6h-3v-3h-2v3h-3V35z"/></svg>