<svg xmlns="http://www.w3.org/2000/svg"  viewBox="0 0 48 48" width="1600px" height="1600px"><path fill="#4E342E" d="M24,2c-5.2,0-8.5,4.3-11,5S2.2,16.3,6,43h36c3.8-27.1-4.5-35.3-7-36S29.2,2,24,2L24,2z"/><path fill="#B39DDB" d="M15,25.9c0,2.8-1.3,5-3,5S9,29.8,9,27s-0.3-6.1,3-6.1S15,23.1,15,25.9z M36,22c-3.3,0-3,2.2-3,5s1.3,5,3,5s3-2.2,3-5S39.3,22,36,22z"/><path fill="#D1C4E9" d="M26,45.9L24,46h-2c-3.4,0-8.5-6.5-10.2-9.2c-0.5-0.9-1-3.4-0.8-4.9l1-11c0.8-5.9,1.6-6.7,2.7-8.8c0.7-1.2,1.9-2,3.4-2s3.3,1,5.9,1s4.2-1,5.8-1s2.8,0.8,3.4,2.1c1.2,2.3,1.9,3.2,2.8,9.7l1,10c0.2,1.7-0.3,4.2-0.9,5.1C34.2,39.7,28.9,45.9,26,45.9z"/><path fill="#B39DDB" d="M26.2,24.9c0.2,0.5,0.5,1,0.7,1.4c0.2,0.5,0.4,0.9,0.6,1.3c0.1,0.2,0.2,0.4,0.3,0.6l0.3,0.6c0.2,0.4,0.3,0.8,0.5,1.1c0.2,0.4,0.3,0.7,0.5,1c0.2,0.3,0.4,0.5,0.6,0.7c0.1,0.1,0.2,0.2,0.3,0.3c0.1,0.1,0.2,0.2,0.3,0.3c0.1,0.1,0.2,0.1,0.4,0.2c0.1,0.1,0.3,0.1,0.5,0.2l0.2,0c-0.1,0,0,0,0.1,0c0.1,0,0.1,0,0.2,0c0.1,0,0.3,0,0.4,0c0.1,0,0.3-0.1,0.4-0.1c0.1-0.1,0.3-0.2,0.4-0.3c0.1-0.1,0.3-0.3,0.4-0.4c0.1-0.2,0.2-0.4,0.3-0.5c0.2-0.4,0.4-0.8,0.6-1.3h0.2c0,0.5,0,1-0.1,1.4c-0.1,0.2-0.1,0.5-0.2,0.7c-0.1,0.2-0.2,0.5-0.3,0.7c-0.1,0.2-0.3,0.4-0.5,0.6c-0.2,0.2-0.4,0.3-0.6,0.4c-0.4,0.2-0.9,0.4-1.4,0.3l0,0c-0.5,0-1-0.1-1.5-0.2c-0.5-0.2-0.9-0.4-1.3-0.8c-0.8-0.7-1.2-1.6-1.6-2.5c-0.6-1.9-0.8-3.8-0.7-5.8L26.2,24.9z M21.8,24.9c-0.2,0.5-0.5,1-0.7,1.4c-0.2,0.5-0.4,0.9-0.6,1.3c-0.1,0.2-0.2,0.4-0.3,0.6L20,28.9c-0.2,0.4-0.3,0.8-0.5,1.1c-0.2,0.4-0.3,0.7-0.5,1c-0.2,0.3-0.4,0.5-0.6,0.7c-0.1,0.1-0.2,0.2-0.3,0.3c-0.1,0.1-0.2,0.2-0.3,0.3c-0.1,0.1-0.2,0.1-0.4,0.2c-0.1,0.1-0.3,0.1-0.5,0.2l-0.2,0c0.1,0,0,0-0.1,0c-0.1,0-0.1,0-0.2,0c-0.1,0-0.3,0-0.4,0c-0.1,0-0.3-0.1-0.4-0.1c-0.1-0.1-0.3-0.2-0.4-0.3c-0.1-0.1-0.3-0.3-0.4-0.4c-0.1-0.2-0.2-0.4-0.3-0.5c-0.2-0.4-0.4-0.8-0.6-1.3h-0.2c0,0.5,0,1,0.1,1.4c0.1,0.2,0.1,0.5,0.2,0.7c0.1,0.2,0.2,0.5,0.3,0.7c0.1,0.2,0.3,0.4,0.5,0.6c0.2,0.2,0.4,0.3,0.6,0.4c0.4,0.2,0.9,0.4,1.4,0.3l0,0c0.5,0,1-0.1,1.5-0.2c0.5-0.2,0.9-0.4,1.3-0.8c0.8-0.7,1.2-1.6,1.6-2.5c0.6-1.9,0.8-3.8,0.7-5.8L21.8,24.9z"/><path fill="#263238" d="M33,25.9c-1.1,1.4-2.6,2-3.5,2c-1.4,0-3.5-1.6-3.5-3c0-1.4,2.1-2,3.5-2C31.5,22.9,33,25.9,33,25.9z M14.9,25.9c1.1,1.4,2.6,2,3.5,2c1.4,0,3.5-1.6,3.5-3c0-1.4-2.1-2-3.5-2C16.4,22.9,14.9,25.9,14.9,25.9z"/><path fill="#9575CD" d="M19,39c0,0,1.4-2,5-2s5,2,5,2H19z"/></svg>