<svg xmlns="http://www.w3.org/2000/svg"  viewBox="0 0 48 48" width="1600px" height="1600px"><path fill="#424242" d="M14,31.913h20V45H14V31.913z"/><path fill="#a0530d" d="M24.004,36.996h-7v8h14v-8H24.004z"/><path fill="#c16e13" d="M23.562,10.175l-8.822,3.529C14.293,13.883,14,14.316,14,14.798v16.756	c0,3.321,1.301,5.514,4.022,7.418l3.322,2.168c1.595,1.116,3.717,1.116,5.312,0l3.349-2.119C32.726,37.117,34,34.875,34,31.554	V14.798c0-0.482-0.293-0.915-0.741-1.094l-8.822-3.529C24.157,10.063,23.843,10.063,23.562,10.175z"/><path fill="#424242" d="M27.076,3.022c-1.77-0.155-2.965,0.861-3.076,0.96c-0.111-0.098-1.306-1.115-3.076-0.96	C9.286,4.043,6,16.322,6,27.413C6,39.413,6,45,6,45h8V15h10h10v30h8c0,0,0-5.587,0-17.587C42,16.322,38.714,4.043,27.076,3.022z"/><path fill="#efebe9" d="M27.004,25.996c0,0,0.6-3,3.2-3c2.2,0,2.8,1.3,2.8,1.3s-0.9,1.7-2.5,1.7S29.004,25.996,27.004,25.996	z M21.004,25.996c0,0-0.6-3-3.2-3c-2.2,0-2.8,1.3-2.8,1.3s0.9,1.6,2.5,1.6C19.104,25.896,19.004,25.996,21.004,25.996z"/><path fill="#8d6e63" d="M31.004,24.496c0,0.8-0.7,1.5-1.5,1.5s-1.5-0.7-1.5-1.5c0-0.2,0-0.5,0.2-0.7c0.4-0.4,0.9-0.7,1.6-0.8	l0,0C30.504,23.196,31.004,23.796,31.004,24.496z M17.004,24.496c0,0.8,0.7,1.5,1.5,1.5s1.5-0.7,1.5-1.5c0-0.2,0-0.5-0.2-0.7	c-0.4-0.4-0.9-0.7-1.6-0.8l0,0C17.504,23.196,17.004,23.796,17.004,24.496z"/><path fill="#263238" d="M29.504,23.996c-0.276,0-0.5,0.224-0.5,0.5s0.224,0.5,0.5,0.5s0.5-0.224,0.5-0.5	S29.78,23.996,29.504,23.996z M18.504,23.996c-0.276,0-0.5,0.224-0.5,0.5s0.224,0.5,0.5,0.5s0.5-0.224,0.5-0.5	S18.78,23.996,18.504,23.996z"/><path fill="#424242" d="M27.004,25.996c0,0,0.6-3,3.2-3c2.2,0,2.8,1.3,2.8,1.3s0-0.3-3-0.3 C28.404,23.996,27.004,25.996,27.004,25.996z"/><path fill="#424242" d="M25.004,23.996c2.7-1.3,4-4,6-4s3,3.1,3,3.1s-1-1.5-3-1.5 C29.204,21.596,27.304,23.996,25.004,23.996z M21.004,25.996c0,0-0.6-3-3.2-3c-2.2,0-2.8,1.3-2.8,1.3s0-0.3,3-0.3 C19.604,23.996,21.004,25.996,21.004,25.996z"/><path fill="#424242" d="M23.004,23.996c-2.7-1.3-4-4-6-4s-3,3.1-3,3.1s1-1.5,3-1.5 C18.804,21.596,20.804,23.996,23.004,23.996z"/><path fill="#a0530d" d="M25.304,33.996c-1.1,0-1.3,1.338-1.3,1.338s0-1.338-1.3-1.338s-2.7,1.993-2.7,1.993s1,2.022,4,2.022	s4-2.054,4-2.054S26.404,33.996,25.304,33.996z"/><path fill="#ab47bc" d="M14,12c0,0,5-1,10-1s10,1,10,1v6c-3.313-0.563-6.656-1-10-1c-3.344,0-6.687,0.437-10,1V12z"/><path fill="#616161" d="M13.679,12.053C11.825,13.798,12,18.886,12,20.429V45h2V20.075c0-0.941-0.197-4.861,0.81-6.371	C16.702,10.867,24,11,24,11C22.83,10.768,17.191,8.747,13.679,12.053z"/><path fill="#616161" d="M34.321,12.053C36.175,13.798,36,18.886,36,20.429V45h-2V20.075c0-0.941,0.197-4.861-0.81-6.371	C31.298,10.867,24,11,24,11C25.17,10.768,30.809,8.747,34.321,12.053z"/><path fill="#616161" d="M10,45H8V17c0-3.789,1.202-6.695,3.572-8.639C16.289,4.495,24,9,24,9 c-0.07-0.015-7.187-2.356-11.165,0.913C10.954,11.458,10,13.842,10,17V45z"/><path fill="#616161" d="M38,45h2V17c0-3.789-1.202-6.695-3.572-8.639C31.711,4.495,24,9,24,9 c0.07-0.015,7.187-2.356,11.165,0.913C37.046,11.458,38,13.842,38,17V45z"/><path fill="#616161" d="M14.952,4.865C20.62,4.192,23.899,6.854,24,7c-0.095-0.144-1.618-2.639-5.084-3.672	C17.444,3.649,16.13,4.175,14.952,4.865z"/><path fill="#616161" d="M33,4.865C27.332,4.192,24.053,6.854,23.952,7c0.095-0.144,1.618-2.639,5.084-3.672	C30.508,3.649,31.822,4.175,33,4.865z"/></svg>