<svg xmlns="http://www.w3.org/2000/svg"  viewBox="0 0 48 48" width="1600px" height="1600px"><path fill="#CFD8DC" d="M24,44C14.426,44,7,31.545,7,20.832C7,10.607,13.674,4,24,4s17,6.607,17,16.832C41,31.545,33.574,44,24,44z"/><path fill="#B0BEC5" d="M8.598 12.996c3.367.127 19.804 1.07 32.392 7.584-.009-.787-.065-1.546-.152-2.288-11.953-5.825-26.393-6.998-31.209-7.23C9.24 11.669 8.904 12.322 8.598 12.996zM7.372 25.095c4.336 2.714 15.413 8.873 29.127 10.718.384-.597.748-1.215 1.089-1.851C22.162 32.101 9.67 24.271 7.065 22.541 7.126 23.389 7.228 24.241 7.372 25.095zM33.131 39.935c-10.28-1.138-21.122-7.786-24.501-10.009.389 1.097.844 2.168 1.354 3.2 4.524 2.751 12.725 7.121 21.069 8.512C31.774 41.137 32.469 40.566 33.131 39.935z"/><path fill="#B0BEC5" d="M38.816 11.838c-.392-.7-.823-1.368-1.314-1.986-7.582.135-13.65 3.113-13.942 3.259l.881 1.766C24.512 14.841 31.084 11.628 38.816 11.838zM31.167 5.259c-9.245 1.205-15.816 6.318-16.127 6.564l1.225 1.548c.08-.063 7.934-6.149 18.167-6.375C33.438 6.306 32.353 5.718 31.167 5.259z"/><path fill="#5D4037" d="M24,16.995c-5.081,0-11.76,0.626-16.908,1.849C7.034,19.491,7,20.151,7,20.832c0,2.701,0.473,5.514,1.333,8.209c3.943,0.428,10.793,0.963,15.537,0.963c0.044,0,0.086,0,0.13,0s0.086,0,0.13,0c4.744,0,11.594-0.535,15.537-0.963C40.527,26.346,41,23.533,41,20.832c0-0.681-0.034-1.341-0.092-1.988C35.76,17.621,29.081,16.995,24,16.995L24,16.995z"/><path fill="#827717" d="M24,18.995c-4.853,0-10.559,0.569-14.997,1.476C9.001,20.592,9,20.712,9,20.832c0,2.039,0.3,4.214,0.874,6.357c4.188,0.414,9.942,0.814,13.996,0.814H24h0.13c4.055,0,9.808-0.4,13.996-0.814C38.699,25.046,39,22.871,39,20.832c0-0.12-0.001-0.24-0.004-0.361C34.559,19.564,28.854,18.995,24,18.995z"/><g><path fill="#5B4F0A" d="M31.006 27.002c-3.003 0-4.003-3.002-4.003-3.002l10.007-3.722C37.01 20.278 36.009 27.002 31.006 27.002zM10.99 20.278L20.997 24c0 0-1 3.002-4.003 3.002C11.991 27.002 10.99 20.278 10.99 20.278z"/></g><g><path fill="#76FF03" d="M30.483 26.001c-2.346 0-3.48-2.001-3.48-2.001l8.006-3.002C35.009 20.998 33.922 26.001 30.483 26.001zM12.991 20.998L20.997 24c0 0-1.135 2.001-3.48 2.001C14.078 26.001 12.991 20.998 12.991 20.998z"/></g></svg>