<svg xmlns="http://www.w3.org/2000/svg"  viewBox="0 0 48 48" width="1600px" height="1600px"><path fill="#795548" d="M24,2C14.1,2,6,10.1,6,20v26h36V20C42,10.1,33.9,2,24,2z"/><path fill="#3E2723" d="M14 46V14c0-1.1.9-2 2-2h0c1.1 0 2 .9 2 2v32H14zM34 46V14c0-1.1-.9-2-2-2h0c-1.1 0-2 .9-2 2v32H34z"/><path fill="#1565C0" d="M17 37H31V46H17z"/><path fill="#4E342E" d="M16,11L16,11c-1.1,0-2,3.1-2,2V5c0-1.1,0.9-2,2-2h0c1.1,0,2,0.9,2,2v8C18,14.1,17.1,11,16,11z M26,9.4V3c0-1.1-0.9-2-2-2h0c-1.1,0-2,0.9-2,2v6.4c0,1.1,0.9-1.4,2-1.4h0C25.1,8,26,10.5,26,9.4z M32,11L32,11c1.1,0,2,2.1,2,1V5c0-1.1-0.9-2-2-2h0c-1.1,0-2,0.9-2,2v7C30,13.1,30.9,11,32,11z"/><path fill="#5D4037" d="M14,5.1V17v1v28h-4V18v-1V8.7C11.1,7.3,12.5,6.1,14,5.1z M34,5.1V19v4v23h4V23v-4V8.7C36.9,7.3,35.5,6.1,34,5.1z"/><path fill="#1565C0" d="M36.4,25.1c0,0-3.2,2.6-2.4-5.1s7.7-8,7.7-8L36.4,25.1z M11.6,25.1c0,0,3.2,2.6,2.4-5.1s-7.7-8-7.7-8L11.6,25.1z"/><path fill="#1E88E5" d="M11,22.9C11,30.5,16.8,43,24,43s13-12.5,13-20.1S35.8,9,24,9S11,15.2,11,22.9z"/><path fill="#42A5F5" d="M24,7c-11.8,0-13,6.2-13,13.9c1.7-2.3,9.3-3.2,10,3.1v6c0,0,0,1,3,1s3-1,3-1v-6c0.7-6.3,8.3-5.4,10-3.1C37,13.2,35.8,7,24,7z"/><path fill="#0D47A1" d="M37,20.9c0,0-1,4.1-5.7,5c-1.6,0.3-4.3,0-4.3,0s0-0.2-0.1-0.6c0-0.2,0-0.5,0-0.7c0-0.3,0-0.6,0.1-1c0-0.4,0.1-0.7,0.3-1.1c0.1-0.4,0.3-0.8,0.6-1.2c0.2-0.4,0.6-0.8,0.9-1.1c0.4-0.3,0.8-0.7,1.3-0.9c0.5-0.3,0.9-0.4,1.4-0.5c0.5-0.1,1-0.2,1.5-0.1c0.5,0,0.9,0.1,1.3,0.2c0.4,0.1,0.8,0.3,1.1,0.4c0.3,0.2,0.6,0.4,0.8,0.6c0.2,0.2,0.4,0.4,0.5,0.6c0.1,0.2,0.2,0.3,0.2,0.4C37,20.8,37,20.9,37,20.9z M24,30.1c-1.7,0-3-0.3-3,0.5c0,0.8,1.6,0.9,3,2.4c1.3-1.4,3-1.6,3-2.4C27,29.7,25.7,30.1,24,30.1z M26,34c-1,0-2.7,0-4,0s-3,2-3,2s1.9,3,5,3s5-3,5-3S27,34,26,34z M21.1,23.5c0-0.4-0.1-0.7-0.3-1.1c-0.1-0.4-0.3-0.8-0.6-1.2c-0.1-0.2-0.3-0.4-0.4-0.6c-0.2-0.2-0.3-0.4-0.5-0.6c-0.4-0.3-0.8-0.7-1.3-0.9c-0.5-0.3-1-0.4-1.4-0.5c-0.5-0.1-1-0.2-1.5-0.1c-0.5,0-0.9,0.1-1.3,0.2c-0.4,0.1-0.8,0.3-1.1,0.4c-0.3,0.1-0.6,0.4-0.8,0.6c-0.2,0.2-0.4,0.4-0.5,0.6c-0.1,0.2-0.2,0.3-0.2,0.4c0,0.1-0.1,0.2-0.1,0.2s1,4.1,5.7,5c1.6,0.3,4.3,0,4.3,0s0.1-0.2,0.1-0.6c0-0.2,0.1-0.5,0.1-0.7C21.2,24.2,21.2,23.9,21.1,23.5z"/><path fill="#FDD835" d="M17 22c-.7-.2-1.3-.4-1.9-.6-.7.4-1.1 1.2-1.1 2.1 0 1.4 1.1 2.5 2.5 2.5s2.5-1.1 2.5-2.5c0 0 0 0 0 0C18.3 22.8 17.6 22.2 17 22zM32.9 21.4c-.6.2-1.2.3-1.9.6-.6.2-1.3.8-2 1.5 0 1.4 1.1 2.5 2.5 2.5 1.4 0 2.5-1.1 2.5-2.5C34 22.6 33.6 21.9 32.9 21.4z"/><path fill="#5D4037" d="M31,22c-0.3,0.1-0.6,0.3-1,0.6c0.1,0.8,0.7,1.4,1.5,1.4c0.8,0,1.5-0.7,1.5-1.5c0-0.4-0.1-0.7-0.4-1C32.1,21.6,31.6,21.8,31,22z"/><path fill="#90CAF9" d="M42,12.4c0,1.4-3,5.5-3,9.6c0,2.8-2,3-2,3h-0.1c0.1-0.7,0.1-1.5,0.1-2.1c0-0.9,0-1.8-0.1-2.7L37,20c0,0-0.1-1.6,1-4C39.1,13.6,42,11,42,12.4z M11,22.9c0-0.9,0-1.8,0.1-2.7L11,20c0,0,0.1-1.6-1-4c-1.1-2.4-4-5-4-3.6s3,5.5,3,9.6c0,2.8,2,3,2,3h0.1C11,24.3,11,23.5,11,22.9z M24,20l2-12.9C25.4,7,24.7,7,24,7s-1.4,0-2,0.1L24,20z M33.1,9.3c-0.9-0.6-1.9-1.1-3.2-1.5c-0.7,1-1.4,2.4-1.9,3.7c-0.2,0.4-0.3,0.8-0.4,1.2c-0.1,0.4-0.2,0.8-0.3,1.2c-0.1,0.4-0.1,0.8-0.2,1.1c-0.1,0.3-0.1,0.7-0.1,1C27,16.6,27,17.1,27,17.4c0,0.4,0,0.6,0,0.6s0.1-0.2,0.2-0.5c0.1-0.3,0.3-0.8,0.5-1.4c0.1-0.3,0.2-0.6,0.4-0.9c0.2-0.3,0.3-0.6,0.5-0.9c0.2-0.3,0.4-0.6,0.6-1c0.2-0.3,0.4-0.6,0.7-0.9c0.9-1.2,2-2.3,2.9-2.9C32.9,9.4,33,9.4,33.1,9.3z M15.2,9.5c0.9,0.7,2,1.7,2.9,2.9c0.2,0.3,0.5,0.6,0.7,0.9c0.2,0.3,0.4,0.6,0.6,1c0.2,0.3,0.3,0.6,0.5,0.9c0.2,0.3,0.3,0.6,0.4,0.9c0.3,0.5,0.4,1,0.5,1.4C20.9,17.8,21,18,21,18s0-0.2,0-0.6c0-0.4,0-0.9-0.1-1.5c0-0.3-0.1-0.6-0.1-1c-0.1-0.3-0.1-0.7-0.2-1.1c-0.1-0.4-0.2-0.8-0.3-1.2c-0.1-0.4-0.2-0.8-0.4-1.2c-0.5-1.4-1.2-2.7-1.9-3.7c-1.3,0.4-2.3,0.9-3.2,1.5C15,9.4,15.1,9.4,15.2,9.5z"/><path fill="#FFE0B2" d="M5,42L5,42c0-0.5,0.4-1,1-1h4c0.5,0,1,0.5,1,1l0,0c0,0.5-0.4,1-1,1H6C5.4,43,5,42.5,5,42z M43,42L43,42c0-0.5-0.5-1-1-1h-4c-0.5,0-1,0.5-1,1l0,0c0,0.5,0.5,1,1,1h4C42.5,43,43,42.5,43,42z"/><path fill="#FFB74D" d="M5,45L5,45c0-0.5,0.4-1,1-1h4c0.5,0,1,0.5,1,1l0,0c0,0.5-0.4,1-1,1H6C5.4,46,5,45.5,5,45z M6,40h4c0.5,0,1-0.5,1-1l0,0c0-0.5-0.4-1-1-1H6c-0.5,0-1,0.5-1,1l0,0C5,39.5,5.4,40,6,40z M43,45L43,45c0-0.5-0.5-1-1-1h-4c-0.5,0-1,0.5-1,1l0,0c0,0.5,0.5,1,1,1h4C42.5,46,43,45.5,43,45z M43,39L43,39c0-0.5-0.5-1-1-1h-4c-0.5,0-1,0.5-1,1l0,0c0,0.5,0.5,1,1,1h4C42.5,40,43,39.5,43,39z"/><path fill="#5D4037" d="M17,22c-0.6-0.2-1.1-0.4-1.6-0.5c-0.2,0.3-0.4,0.6-0.4,1c0,0.8,0.7,1.5,1.5,1.5c0.8,0,1.5-0.6,1.5-1.4C17.7,22.3,17.3,22.1,17,22z"/></svg>