<svg xmlns="http://www.w3.org/2000/svg"  viewBox="0 0 48 48" width="1600px" height="1600px"><path fill="#b0bec5" d="M40,31.034C40,23.302,32.837,18,24,18S8,23.302,8,31.034S15.163,46,24,46S40,38.766,40,31.034z"/><path fill="#78909c" d="M39.812 33.159c-.207 1.274-.612 2.52-1.186 3.698L24 32.483 39.812 33.159zM24 32.483l-5.28 12.629c-1.449-.502-2.814-1.207-4.038-2.066L24 32.483zM33.318 43.046c-1.224.859-2.588 1.564-4.038 2.066L24 32.483 33.318 43.046zM24 32.483L9.374 36.857c-.574-1.178-.979-2.423-1.186-3.698L24 32.483z"/><path fill="#e65100" d="M43.603,21.188c1.94-0.669,2.397-4.46,2.397-4.46c-2.9,1.418-4.831,0-5.792-2.676 c-3.221-8.92-13.422-8.028-13.422-8.028h-1.83h-3.992c0,0-9.133-0.892-12.646,8.028C7.27,16.728,5.164,18.147,2,16.728 c0,0,0.499,3.791,2.615,4.46c-0.998,0.553-1.737,0-2.366-0.339C2.25,26.54,7.21,31,12.54,31h12.417h11.382 c4.886,0,9.433-4.46,9.433-10.151C45.195,21.188,44.518,21.741,43.603,21.188z"/><path fill="#ef6c00" d="M21.007,12.077c0,0-6.085-5.538,3.043-11.077c0,0-0.677,1.236,0.68,2.885 c0.309-0.57,1.25-1.038,1.25-1.038s0.347,2.247,1.113,2.769c4.057,2.769,0.31,6.144,0.31,6.144S25.98,13,23.98,13 S21.007,12.077,21.007,12.077z"/><path fill="#e0e0e0" d="M12,17.111C12,13.656,14.289,10,18,10c2.571,0,4.474,1.778,6,1.778S27.429,10,30,10 c3.711,0,6,3.656,6,7.111c0,4.571-0.857,6.222-1.92,8.456c-0.851,1.79,0,3.459,0,5.189s-1.4,3.497-1.92,4.324 C30.72,37.37,30.24,42,25.44,42c0,0-2.16,0-2.88,0c-4.8,0-5.28-4.739-6.72-6.919c-0.54-0.817-1.92-2.595-1.92-4.324 c0-1.714,0.851-3.399,0-5.189C12.857,23.333,12,21.683,12,17.111z"/><path fill="#d32f2f" d="M20.238,35.712C21.375,37.125,21,40,23.998,40c3.002,0,2.627-2.875,3.76-4.288 C24,37,24,37,20.238,35.712z"/><path fill="#bf360c" d="M30.302,30.917C30,30.38,29.657,29.771,29.35,28.844c-0.043-0.131-0.08-0.304-0.115-0.511 l-0.986,0.166c0.044,0.266,0.096,0.489,0.152,0.658c0.337,1.021,0.721,1.702,1.03,2.25c0.343,0.609,0.57,1.012,0.57,1.567 c0,0.72-0.508,1.15-1,1.15c-0.591,0-1.231,0.096-1.78,0.635c-0.409,0.402-0.873,0.739-1.421,0.908C25.212,35.85,24.58,36,24,36 s-1.212-0.15-1.799-0.331c-0.548-0.169-1.012-0.506-1.421-0.908c-0.548-0.539-1.189-0.635-1.78-0.635c-0.485,0-1-0.395-1-1.125 c0-0.521,0.221-0.904,0.556-1.486c0.33-0.574,0.741-1.288,1.05-2.377c0.047-0.167,0.092-0.389,0.132-0.653l-0.988-0.15 c-0.033,0.214-0.067,0.395-0.106,0.53c-0.275,0.971-0.636,1.598-0.955,2.151C17.319,31.657,17,32.213,17,33 c0,1.33,1.017,2.125,2,2.125c0.875,0,1.175,0.541,1.238,0.587C22,37,23.002,37.25,24,37.25c1.002,0,2-0.25,3.758-1.538 c0.061-0.044,0.367-0.587,1.242-0.587c0.983,0,2-0.805,2-2.15C31,32.157,30.676,31.582,30.302,30.917z"/><path fill="#bf360c" d="M26.812 31c0 0 .188.536.188.857 0 .75-.502 1.286-1.125 1.286-.188 0-.36-.06-.51-.146C25.125 33.589 24.607 34 24 34s-1.125-.411-1.365-1.003c-.15.086-.322.146-.51.146-.623 0-1.125-.536-1.125-1.286C21 31.536 21.188 31 21.188 31s.375.857 1.312.643c.469-.107 1.031.214 1.5.214s1.031-.321 1.5-.214C26.438 31.857 26.812 31 26.812 31zM19 27l.25-3.5c.076-1.165.122-2.329.184-3.5.104 1.162.226 2.331.316 3.5L20 27H19zM28 27l.25-3.5c.076-1.165.122-2.329.184-3.5.104 1.162.226 2.331.316 3.5L29 27H28z"/><g><path fill="#212121" d="M31.99 26.13C30.34 31.2 26 28.01 26 28.01c.44-.21.9-.55 1.32-.93 1.05-.93 1.91-2.08 1.91-2.08.67 0 1.18.05 1.57.13C32.17 25.43 31.99 26.13 31.99 26.13zM16.233 26.13c1.833 5.07 6.656 1.88 6.656 1.88-.489-.21-1-.55-1.467-.93C20.256 26.15 19.3 25 19.3 25c-.744 0-1.311.05-1.744.13C16.033 25.43 16.233 26.13 16.233 26.13z"/></g><g><path fill="#fafafa" d="M30.13 27.57c-1.77 1.16-2.75-.32-2.75-.32s.3-.3.65-.64c.39-.37.86-.78 1.09-.86.17-.06.38-.08.6-.06.34.01.68.11.85.25C31.12 26.38 30.62 27.25 30.13 27.57zM18.3 27.57c1.967 1.16 3.056-.32 3.056-.32s-.333-.3-.722-.64c-.433-.37-.956-.78-1.211-.86-.189-.06-.422-.08-.667-.06C18.378 25.7 18 25.8 17.811 25.94 17.2 26.38 17.756 27.25 18.3 27.57z"/></g><g><path fill="#827717" d="M30 26.38c0 .55-.45 1-1 1-.47 0-.87-.33-.97-.77.39-.37.86-.78 1.09-.86.17-.06.38-.08.6-.06C29.89 25.87 30 26.11 30 26.38zM18.444 26.38c0 .55.5 1 1.111 1 .522 0 .967-.33 1.078-.77-.433-.37-.956-.78-1.211-.86-.189-.06-.422-.08-.667-.06C18.567 25.87 18.444 26.11 18.444 26.38z"/></g><g><path fill="#212121" d="M25.004 25.507c.098.548.19 1.102.378 1.579.18.496.524.633.876.492.381-.156.799-.495 1.168-.858.381-.362.751-.749 1.112-1.155l1.141-1.198c.422-.394.696-.749 1.191-1.197.517-.431 1.244-.563 1.845-.373.608.189 1.045.65 1.286 1.151-.418-.371-.895-.648-1.384-.67-.48-.041-.928.155-1.224.471-.268.345-.671.864-1.018 1.26l-1.101 1.232c-.386.403-.779.813-1.221 1.185-.455.353-.912.744-1.597.903-.331.087-.792.024-1.076-.229-.134-.111-.259-.257-.336-.428-.077-.161-.107-.312-.135-.462C24.834 26.617 24.884 26.058 25.004 25.507zM23.5 26.5c.181.221.333.467.396.785.029.156.039.362-.106.572-.124.155-.242.249-.404.346-.324.181-.716.183-1.031.115-.321-.069-.608-.187-.862-.334-1.026-.574-1.818-1.37-2.585-2.125-.381-.386-.769-.757-1.14-1.161l-.553-.616c-.19-.23-.292-.352-.492-.487C15.98 23.069 14.824 23.21 14 23.949c.268-.479.711-.893 1.277-1.102.562-.204 1.236-.19 1.812.098.279.124.575.38.745.553l.579.548c.402.355.792.736 1.186 1.107.784.748 1.516 1.524 2.341 2.089C22.73 27.828 23.746 27.891 23.5 26.5z"/></g></svg>