<svg xmlns="http://www.w3.org/2000/svg"  viewBox="0 0 48 48" width="1600px" height="1600px"><path fill="#7986CB" d="M15.4,34.1L24,37l8.6-2.9c1.9-0.6,3-2.6,2.6-4.6L33,20H15l-2.2,9.5C12.3,31.5,13.5,33.5,15.4,34.1z"/><path fill="#9FA8DA" d="M29,30l-3-3h-4l-3,3v7c0,1.1,0.9,2,2,2h6c1.1,0,2-0.9,2-2V30z"/><path fill="#3949AB" d="M31,7c-0.5,0-1,0.4-1,1c0,0,0,0,0,0c-0.4,0-0.8,0.2-0.9,0.6c-0.2,0.5,0,1.1,0.6,1.3C30,10.1,40,14.4,40,32.4V37c0,0.6,0.4,1,1,1s1-0.4,1-1v-4.6c0-14.4-6.1-20.7-9.5-23.1C35.9,10.3,44,14.7,44,34c0,0.6,0.4,1,1,1s1-0.4,1-1C46,7.7,31.6,7,31,7z"/><path fill="#3949AB" d="M29.5 10.1c-.5-.3-1.1-.1-1.3.4-.3.5-.1 1.1.4 1.4.1 0 7.5 4.3 7.5 20.1v8c0 .6.4 1 1 1s1-.4 1-1v-8C38 14.9 29.8 10.3 29.5 10.1zM18.4 9.9c.5-.2.8-.8.6-1.3C18.8 8.2 18.4 8 18 8c0 0 0 0 0 0 0-.6-.5-1-1-1C16.4 7 2 7.7 2 34c0 .6.4 1 1 1s1-.4 1-1c0-19.6 8.1-23.8 11.6-24.7C12.2 11.6 6 17.9 6 32.4V37c0 .6.4 1 1 1s1-.4 1-1v-4.6C8 14.4 18 10.1 18.4 9.9z"/><path fill="#3949AB" d="M18.5,10.1C18.2,10.3,10,14.9,10,32v8c0,0.6,0.4,1,1,1s1-0.4,1-1v-8c0-15.8,7.4-20.1,7.5-20.1c0.5-0.3,0.7-0.9,0.4-1.4C19.6,10,19,9.9,18.5,10.1z"/><path fill="#1A237E" d="M25 24.9c0 0 .2 1.3.6 1.7s3.3 2.5 5.9-.9c1.2-1.5.6-3.8.6-3.8S29.4 24.1 25 24.9zM15.8 21.8c0 0-.6 2.3.6 3.8 2.6 3.4 5.5 1.4 5.9.9.4-.4.6-1.7.6-1.7C18.6 24.1 15.8 21.8 15.8 21.8z"/><path fill="#9FA8DA" d="M24 5A12 10 0 1 0 24 25A12 10 0 1 0 24 5Z"/><path fill="#7986CB" d="M24 6.000000000000001A10 7.8 0 1 0 24 21.6A10 7.8 0 1 0 24 6.000000000000001Z"/><path fill="#C5CAE9" d="M24.2 5.999999999999999A8 6.2 0 1 0 24.2 18.4A8 6.2 0 1 0 24.2 5.999999999999999Z"/></svg>