<svg xmlns="http://www.w3.org/2000/svg"  viewBox="0 0 48 48" width="1600px" height="1600px"><rect width="22" height="5" x="13" y="19" fill="#bf360c"/><path fill="#ffa726" d="M16,21h-1.09C13.855,21,13,20.145,13,19.09V17h3V21z"/><path fill="#ffa726" d="M32,21h1.09c1.055,0,1.91-0.855,1.91-1.91V17h-3V21z"/><path fill="#78909c" d="M29,31H19l-2,13h14L29,31z"/><path fill="#ff9800" d="M24,37l-5-6v-6h10v6L24,37z"/><path fill="#ffb74d" d="M33,12c0-7.635-18-5.971-18-1v9c0,4.971,4.028,9,9,9c4.971,0,9-4.029,9-9V12z"/><path fill="#784719" d="M27,19c0-0.551,0.448-1,1-1s1,0.449,1,1s-0.448,1-1,1S27,19.551,27,19"/><path fill="#784719" d="M19,19c0,0.551,0.448,1,1,1s1-0.449,1-1s-0.448-1-1-1S19,18.449,19,19"/><path fill="#fff" d="M24,41c-5-4-5-10-5-10l5,1l5-1C29,31,28.917,37.167,24,41z"/><path fill="#d32f2f" d="M23,35l-0.667,4.465L24,42l1.667-2.535L25,35l1-1l-2-2l-2,2L23,35z"/><path fill="#37474f" d="M8,44h11V31C19,31,8,32.986,8,44z M29,31v13h11C40,33.025,29,31,29,31z"/><path fill="#ffc107" d="M29,31c0,0-0.083,6.167-5,10c-5-4-5-10-5-10v7.098c0.844,1.529,2.039,3.095,3.751,4.464l1.233,0.987 l1.246-0.971c1.72-1.341,2.923-2.917,3.77-4.468V31z"/><path fill="#37474f" d="M24,43l-0.001-0.002"/><path fill="#ff5722" d="M35,18L35,18l0-7.005C35,7.132,31.868,4,28.005,4H24v3C24,13.075,28.925,18,35,18z"/><path fill="#ff5722" d="M13,18L13,18l0-7.005C13,7.132,16.132,4,19.995,4H24v3C24,13.075,19.075,18,13,18z"/></svg>