<svg xmlns="http://www.w3.org/2000/svg"  viewBox="0 0 48 48" width="1600px" height="1600px" baseProfile="basic"><path fill="#5d4037" d="M29,29H19c0,0-12.009,2.343-12,10.998L7.002,43h33.996L41,39.998C41.009,31.343,29,29,29,29z"/><path fill="#ffab91" d="M19,28.999h10L25,43h-2L19,28.999z"/><polygon fill="#fb8c00" points="19,29 19,24 29,24 29,29 26,31 22,31"/><path fill="#fb8c00" d="M33,18.001C33,19.657,32.105,21,31,21c-1.104,0-2-1.343-2-3s0.896-3,2-3	C32.105,15.001,33,16.344,33,18.001"/><path fill="#fb8c00" d="M19,18.001C19,16.343,18.105,15,17,15s-2,1.343-2,3.001C15,19.658,15.895,21,17,21	S19,19.657,19,18.001"/><path fill="#ffa726" d="M21,6c-2.209,0-4,1.791-4,4v13c0,2,4.396,6,5.5,6c0.366,0,2.634,0,3,0c1.105,0,5.5-4,5.5-6V10	c0-2.209-1.791-4-4-4H21z"/><path fill="#37474f" d="M19.1,17h3c0-0.551-0.8-1-0.8-1C20.472,16,19.1,16.449,19.1,17"/><path fill="#37474f" d="M28.9,17c0-0.551-1.372-1-2.2-1c0,0-0.8,0.449-0.8,1H28.9"/><polygon fill="#ef6c00" points="25,33 23,33 22.075,39.764 23,43 25,43 25.925,39.764"/><polygon fill="#e65100" points="22,31 23,33 25,33 26,31"/><path fill="#6d4c41" d="M33,14c0,2-1,3-1,3l-1,2v-8c0-2.21-3-5-5-5s0,1-2,1V5.26C25.33,5.55,26.67,6,28,6C32,7,33,9,33,14z"/><path fill="#6d4c41" d="M15,14c0,2,1,3,1,3l1,2v-8c0-2.21,3-5,5-5s0,1,2,1V5.26C22.67,5.55,21.33,6,20,6C16,7,15,9,15,14z"/><path fill="#f57c00" d="M27,24.45c0,0-0.75,1-3,1s-3-1-3-1H27z"/><path fill="#f57c00" d="M26,21.333c0,0-0.5,1.333-2,1.333s-2-1.333-2-1.333H26z"/><path fill="#6d4c41" d="M16,13c8,0,5.639-8.655,13-6c-3.283-6.566-11.916-2.936-13.567,2.835C14.954,11.509,15.537,13,16,13z"/><path fill="#6d4c41" d="M18,15.818c0,0,1.091-1.636,1.636-1.636c1.125,0,3.818,1.091,3.818,1.091L23,16.1	c0,0-2.545-1.373-3.364-1.373C19.091,14.727,18,15.818,18,15.818z"/><path fill="#6d4c41" d="M28.364,14.727C27.545,14.727,25,16.1,25,16.1l-0.455-0.827c0,0,2.693-1.091,3.818-1.091	c0.545,0,1.636,1.636,1.636,1.636S28.909,14.727,28.364,14.727z"/><path fill="#f57c00" d="M22.2,17c0,0-0.226,2.294-3.138,1.377C19.062,18.377,20.617,18.153,22.2,17z"/><path fill="#f57c00" d="M25.8,17c0,0,0.226,2.294,3.138,1.377C28.938,18.377,27.383,18.153,25.8,17z"/></svg>