<svg xmlns="http://www.w3.org/2000/svg"  viewBox="0 0 48 48" width="1600px" height="1600px"><path fill="#607D8B" d="M24,5C16.6,5,9,13.7,9,21.1S16.6,43,24,43s15-14.9,15-21.9S31.4,5,24,5z"/><path fill="#E1F5FE" d="M31.8,25.8c-0.7,0.7-1.6,3.1-2.2,4.6c-1.9,4.6-2.4,10-5.6,10s-3.7-5.4-5.6-10c-0.6-1.5-1.5-3.8-2.2-4.6c-1.9-1.8-4-1.6-4-5.2c0-1.6,1-3.7,2.9-4.4c0.7-4.9,5-8.4,8.8-8.4s8.1,3.7,9,8.4c1.8,0.7,2.9,2.8,2.9,4.4C35.8,24.1,33.7,24,31.8,25.8z"/><path fill="#263238" d="M25.8 24c.9 0-1.2-4.3-1.8-4.3-.4 0-2.5 4.3-1.8 4.3.9 0 1.3-.9 1.8-.9C24.4 23.1 25.2 24 25.8 24zM21.5 27.4c0 .6.7 3.7.9 6 0 2.5.7 5.2 1.6 5.2 1 0 1.5-2.2 1.6-4.7.1-3.2 1-5.2.9-6.3 0-.6-.7-2.1-2.7-2.1S21.5 26.4 21.5 27.4zM30.5 22.4c1.3 0 2.8-1.5 2.1-2.9-.4-.7-1.2-.9-1.9-1.3-1-.6-1.9-1.6-2.4-2.8-.4-.9-1-2.1-1.9-1.6-1.3.6-.6 3.2-.3 4.4C26.8 20.3 28.1 22.4 30.5 22.4zM17.5 22.4c-1.3 0-2.8-1.5-2.1-2.9.3-.6 1.2-.7 1.9-1.2 1-.6 1.8-1.6 2.4-2.8.4-.9 1-2.1 1.9-1.6 1.3.6.6 3.2.3 4.4C21.2 20.3 19.9 22.4 17.5 22.4z"/></svg>