<svg xmlns="http://www.w3.org/2000/svg"  viewBox="0 0 48 48" width="1600px" height="1600px"><path fill="#ffc107" d="M24,11c-2.5,0-5-0.8-5-2.5S21.5,6,24,6c2.5,0,5,0.8,5,2.5S26.5,11,24,11z M21.2,8.5 C21.7,8.7,22.7,9,24,9c1.3,0,2.3-0.3,2.8-0.5C26.3,8.3,25.3,8,24,8C22.7,8,21.7,8.3,21.2,8.5z"/><path fill="#b0bec5" d="M9.3 32.6C8.3 27.9 6 23.5 6 18c0-3 1-9 7-9s7 9 7 9l1 10c-.2 1-9.3 8.4-9.6 9.3C10.9 39 10.2 40.6 9 42 10.2 38.5 10 35.5 9.3 32.6zM38.7 32.6c1-4.7 3.3-9.1 3.3-14.6 0-3-1-9-7-9s-7 9-7 9l-1 10c.2 1 9.3 8.4 9.6 9.3.5 1.7 1.2 3.3 2.4 4.7C37.8 38.5 38 35.5 38.7 32.6z"/><path fill="#90a4ae" d="M12 22c.9 1.6 1.4 3.2 1.8 4.9.4 1.7.6 3.4.6 5.1 0 1.7-.1 3.4-.5 5.1C13.5 38.8 13 40.5 12 42c-.2-1.8-.4-3.4-.4-5.1-.1-1.6-.1-3.3-.2-4.9 0-1.6 0-3.3.1-4.9C11.5 25.4 11.7 23.8 12 22zM36 22c.3 1.8.5 3.4.5 5.1.1 1.7.1 3.3.1 4.9 0 1.6-.1 3.3-.2 4.9-.1 1.6-.2 3.3-.4 5.1-1-1.5-1.5-3.2-1.9-4.9-.4-1.7-.5-3.4-.5-5.1 0-1.7.2-3.4.6-5.1C34.6 25.2 35.1 23.6 36 22z"/><path fill="#546e7a" d="M13 22c1.2 1.2 2 2.6 2.6 4.1.6 1.5 1 3 1.2 4.6.2 1.6.2 3.2-.1 4.8-.3 1.6-.8 3.2-1.7 4.5-.3-1.6-.4-3.1-.6-4.6l-.5-4.4-.5-4.4C13.2 25.2 13 23.6 13 22zM35 22c0 1.6-.2 3.2-.3 4.7l-.5 4.4-.5 4.4c-.2 1.5-.3 3-.6 4.6-.9-1.4-1.5-2.9-1.7-4.5-.3-1.6-.3-3.2-.1-4.8.2-1.6.6-3.1 1.2-4.6C33 24.6 33.8 23.2 35 22z"/><path fill="#37474f" d="M16 19c1 1.3 1.6 2.8 2.1 4.3.5 1.5.7 3 .9 4.6.1 1.6.1 3.1-.2 4.7C18.5 34 18 35.6 17.2 37c-.4-1.6-.6-3.1-.8-4.5-.2-1.5-.3-2.9-.4-4.4-.1-1.5-.2-2.9-.2-4.4C15.7 22.1 15.8 20.6 16 19zM32 19c.2 1.6.3 3.1.3 4.6 0 1.5-.1 3-.2 4.4-.1 1.5-.3 2.9-.4 4.4-.2 1.5-.4 3-.8 4.5-.8-1.4-1.3-3-1.5-4.5C29 31 29 29.4 29.1 27.8s.4-3.1.9-4.6C30.4 21.8 31 20.3 32 19z"/><path fill="#263238" d="M18,16c1,1.3,1.6,2.8,2.1,4.3c0.5,1.5,0.7,3,0.9,4.6c0.1,1.6,0.1,3.1-0.2,4.7 C20.5,31,20,32.6,19.2,34c-0.4-1.6-0.6-3.1-0.8-4.5c-0.2-1.5-0.3-2.9-0.4-4.4c-0.1-1.5-0.2-2.9-0.2-4.4C17.7,19.1,17.8,17.6,18,16z"/><path fill="#263238" d="M18.2 17.7c-.8 1.1-1.7 2.3-2.6 3.4.1.3.1.6.2.9.3 1.3.6 2.6 1.2 4 .6-1.3.9-2.7 1.1-4 .2-1.4.2-2.7.1-4.1C18.2 17.8 18.2 17.8 18.2 17.7zM30 16c.2 1.6.3 3.1.3 4.6 0 1.5-.1 3-.2 4.4-.1 1.5-.3 2.9-.4 4.4-.2 1.5-.4 3-.8 4.5-.8-1.4-1.3-3-1.5-4.5C27 28 27 26.4 27.1 24.8c.1-1.6.4-3.1.9-4.6C28.4 18.8 29 17.3 30 16z"/><path fill="#263238" d="M29.9,16.9c0,0.3-0.1,0.7-0.1,1c-0.1,1.4,0,2.7,0.1,4.1c0.2,1.4,0.5,2.7,1.1,4c0.6-1.3,1-2.7,1.2-4 c0.1-0.4,0.1-0.8,0.2-1.1C31.5,19.6,30.6,18.3,29.9,16.9z"/><path fill="#cfd8dc" d="M8.5 29.8C7.4 26.1 6 22.4 6 18c0-3 1-9 7-9 8 0 7 9 7 9C17 22 10.5 24.9 8.5 29.8zM8 15c0 0 2 13 2 20"/><path fill="#cfd8dc" d="M8 15c.9 1.6 1.4 3.2 1.9 4.8.4 1.6.7 3.3.9 5 .2 1.7.3 3.4.2 5.1-.1 1.7-.3 3.4-.9 5.1-.6-1.7-1-3.3-1.4-4.9-.3-1.6-.6-3.3-.8-4.9-.2-1.7-.3-3.3-.3-5C7.5 18.4 7.6 16.8 8 15zM12.4 34C13 28 11 14 11 14"/><path fill="#cfd8dc" d="M12.4 34c-.5-1.7-.8-3.3-1.1-5-.3-1.6-.5-3.3-.7-4.9-.1-1.7-.2-3.3-.2-5 0-1.7.2-3.4.5-5.1.9 1.6 1.4 3.2 1.8 4.8.4 1.6.7 3.3.8 5 .1 1.7.2 3.4 0 5.1C13.5 30.6 13.2 32.4 12.4 34zM39.5 29.8C40.6 26.1 42 22.4 42 18c0-3-1-9-7-9-8 0-7 9-7 9C31 22 37.5 24.9 39.5 29.8zM40 15c0 0-2 13-2 20"/><path fill="#cfd8dc" d="M40 15c.4 1.8.5 3.4.5 5.1 0 1.7-.1 3.3-.3 5-.2 1.7-.4 3.3-.8 4.9C39 31.7 38.6 33.3 38 35c-.6-1.7-.8-3.4-.9-5.1-.1-1.7 0-3.4.2-5.1.2-1.7.5-3.3.9-5C38.6 18.2 39.1 16.6 40 15zM35.6 34C35 28 37 14 37 14"/><path fill="#cfd8dc" d="M35.6,34c-0.8-1.6-1.1-3.4-1.2-5.1c-0.1-1.7-0.1-3.4,0-5.1c0.1-1.7,0.4-3.4,0.8-5 c0.4-1.6,0.9-3.3,1.8-4.8c0.4,1.7,0.5,3.4,0.5,5.1c0,1.7,0,3.3-0.2,5c-0.1,1.7-0.4,3.3-0.7,4.9C36.4,30.7,36,32.3,35.6,34z"/><path fill="#eceff1" d="M9 25c-.4-.7-.7-1.4-.9-2.2-.2-.7-.4-1.5-.4-2.3-.1-.8 0-1.6.2-2.4C8 17.4 8.3 16.5 9 16c.1.8.2 1.5.4 2.2.1.7.2 1.4.3 2.2.1.7.1 1.5 0 2.3C9.5 23.4 9.4 24.2 9 25zM11.8 15.9c.4.8.6 1.6.7 2.3.2.8.3 1.5.3 2.2.1.7.1 1.4.1 2.2 0 .7.1 1.5 0 2.4-.7-.5-1.2-1.2-1.5-2-.3-.8-.5-1.6-.6-2.4-.1-.8 0-1.6.1-2.4C11.1 17.5 11.3 16.7 11.8 15.9zM10.3 16c-.4-.4-.6-.9-.8-1.3-.1-.4-.2-.9-.1-1.3 0-.4.2-.9.4-1.3.2-.4.6-.9 1.2-1 .1.6.3.9.3 1.3.1.4.1.8 0 1.2 0 .4-.1.8-.3 1.2C10.9 15.2 10.7 15.6 10.3 16zM37.4 16c-.4-.5-.6-.9-.7-1.3-.1-.4-.2-.8-.2-1.2 0-.4 0-.8.1-1.2.1-.4.3-.8.4-1.3.6.2.9.7 1.1 1.1.2.4.3.9.3 1.3 0 .4-.1.9-.2 1.3C38.1 15.2 37.9 15.6 37.4 16zM39 25c-.4-.8-.5-1.6-.6-2.3-.1-.8-.1-1.5 0-2.3.1-.7.1-1.4.3-2.2.1-.7.3-1.4.4-2.2.7.5 1 1.4 1.2 2.2.2.8.2 1.6.2 2.4-.1.8-.2 1.5-.4 2.3C39.7 23.6 39.4 24.3 39 25zM36.2 15.9c.4.8.7 1.5.8 2.3.1.8.2 1.6.1 2.4-.1.8-.3 1.6-.6 2.4-.3.8-.8 1.5-1.5 2 0-.9 0-1.6 0-2.4 0-.7.1-1.5.1-2.2s.2-1.5.3-2.2C35.6 17.5 35.8 16.7 36.2 15.9z"/><path fill="#546e7a" d="M34.7 23.3c-.9-.8-1.7-1.7-2.4-2.7-.2 1.1-.4 2.2-.5 3.3-.1 1.4 0 2.7.1 4.1.2 1.4.5 2.7 1.1 4 .6-1.3 1-2.7 1.2-4 .3-1.3.4-2.6.5-4 0-.2 0-.4 0-.7C34.7 23.4 34.7 23.4 34.7 23.3zM15.8 20.8c-.6.7-1.2 1.4-1.7 2.1-.3.3-.5.5-.9.7 0 .1 0 .3 0 .4.1 1.3.2 2.6.5 4 .3 1.3.6 2.6 1.2 4 .6-1.3.9-2.7 1.1-4 .2-1.4.2-2.7.1-4.1C16.2 22.9 16 21.9 15.8 20.8z"/><path fill="#78909c" d="M15 16.9c1.1-1.4 2.5-2.9 4.7-2.9 0 0 .3 1 .2 1-1.6.2-3.2 3-3.2 3S12 23.9 12 24.9c0 .8 2.6 4.2 3.6 5.5-.3 1-.3 1.1-.6 1.6-3.9-4.9-5-6.6-5-7.1C10 24.2 10 23.2 15 16.9zM33 16.9C32 15.5 30.5 14 28.3 14c0 0-.2 1-.2 1 1.6.2 3.2 3 3.2 3s4.6 5.9 4.6 6.9c0 .8-2.6 4.2-3.6 5.5.3 1 .3 1.1.6 1.6 3.9-4.9 5-6.6 5-7.1C38 24.2 38 23.2 33 16.9z"/><path fill="#ffe082" d="M36,24.9c0-1-4.6-6.9-4.6-6.9s-1.7-3-3.4-3h-8c-1.7,0-3.4,3-3.4,3S12,23.9,12,24.9s4,6,4,6s-1,4,1,5 c0,0,0,0.1,0,0.1c0,4,1,5,1,5h5v-2h2v2h5c0,0,1-1,1-5c0,0,0-0.1,0-0.1c0,0,0,0,0,0c2-1,1-5,1-5S36,25.9,36,24.9z M17.8,32.5 C18.3,30.8,17,29,17,29l-2-4l4-4.8h0l1,8.8C20,29,18.6,30.4,17.8,32.5z M31,29c0,0-1.4,2-0.6,3.8c0,0,0,0,0,0 C29.5,30.5,28,29,28,29l1-8.7l0,0l4,4.8L31,29z"/><path fill="#edbf40" d="M24.5,31.9c0-0.5-0.3-0.8-0.6-0.8c-0.3,0-0.6,0.4-0.6,0.8s0.3,0.8,0.6,0.8 C24.2,32.7,24.5,32.3,24.5,31.9z"/><path fill="#ff4081" d="M27.5 33c-.9 0-1.9 0-3.2 0H24v6h1c0 0 1.9-3.8 5.8-4.9-.1-.4-.2-.7-.3-1.1H27.5zM23.7 33c-1.3 0-2.3 0-3.2 0h-3c-.1.3-.2.7-.3 1.1C21.1 35.2 23 39 23 39h1v-6H23.7zM23 23c0 0-1 2-3 2-1.7 0-3-1.3-3-3s3-4 3-4S23 21.3 23 23zM25 23c0 0 1 2 3 2 1.7 0 3-1.3 3-3s-3-4-3-4S25 21.3 25 23z"/><path fill="#ff4081" d="M22.5,22.5h3v1h-3V22.5z"/></svg>