<svg xmlns="http://www.w3.org/2000/svg"  viewBox="0 0 48 48" width="1600px" height="1600px"><path fill="#FFA726" d="M16,24c0,2.2-1.8,4-4,4s-4-1.8-4-4c0-2.2,1.8-4,4-4S16,21.8,16,24 M40,24c0-2.2-1.8-4-4-4s-4,1.8-4,4c0,2.2,1.8,4,4,4S40,26.2,40,24"/><path fill="#FFB74D" d="M11,16h26v16c0,3-5.8,12-13,12s-13-8.7-13-12V16z"/><path fill="#37474F" d="M45.3,15H37L36.2,4.2C36.1,3.5,35.8,3,35,3c-2.1,0-6.7,0-11,0s-8.3,0-11,0c-0.8,0-1.1,0.5-1.2,1.2L11,15H2.7c-0.7,0-0.9,0.8-0.4,1.2C4.9,17.6,12.7,20,24,20s19.1-2.4,21.7-3.8C46.3,15.8,46,15,45.3,15z"/><path fill="#4E342E" d="M27,31h-6c-2.2,0-4,1.8-4,4v4.4c0,3.1,2.5,5.6,5.6,5.6h2.8c3.1,0,5.6-2.5,5.6-5.6V35C31,32.8,29.2,31,27,31z M29,38l-3,3v-2c0-1.1-0.9-2-2-2s-2,0.9-2,2v2l-3-3v-1c0-1.1,0.9-2,2-2h6c1.1,0,2,0.9,2,2V38z"/><path fill="#263238" d="M11,21l1.5,5.3c0.3,1,1.2,1.7,2.3,1.7h4.5c1,0,2-0.6,2.4-1.5c0,0,1-1.9,1.7-3.2c0.3-0.6,1.1-0.5,1.4,0l1.6,3.2c0.5,0.9,1.4,1.5,2.4,1.5h4.5c1.1,0,2-0.7,2.3-1.7L37,21H11z"/><path fill="#4CAF50" d="M11.3 11L11 15 24 15 37 15 36.7 11z"/></svg>