<svg xmlns="http://www.w3.org/2000/svg"  viewBox="0 0 48 48" width="1600px" height="1600px"><path fill="#ff8f00" d="M42 11L47.691 9 42 7 36.309 9zM43 12.667L43 19 48 17.333 48 11zM41 12.667L36 11 36 17.333 41 19zM28 11L33.691 9 28 7 22.309 9zM29 12.667L29 19 34 17.333 34 11zM27 12.667L22 11 22 17.333 27 19zM21 23L26.691 21 21 19 15.309 21zM22 24.667L22 31 27 29.333 27 23zM20 24.667L15 23 15 29.333 20 31zM7 23L12.691 21 7 19 1.309 21zM8 24.667L8 31 13 29.333 13 23zM6 24.667L1 23 1 29.333 6 31zM14 35L19.691 33 14 31 8.309 33zM15 36.667L15 43 20 41.333 20 35zM13 36.667L8 35 8 41.333 13 43z"/></svg>