<svg xmlns="http://www.w3.org/2000/svg"  viewBox="0 0 48 48" width="1600px" height="1600px"><path fill="none" stroke="#59b4d9" stroke-linecap="round" stroke-linejoin="round" stroke-miterlimit="10" stroke-width="4" d="M15,12h-5c-2.761,0-5,2.239-5,5v14c0,2.761,2.239,5,5,5h7"/><path fill="none" stroke="#804998" stroke-linecap="round" stroke-linejoin="round" stroke-miterlimit="10" stroke-width="4" d="M34,36h4c2.761,0,5-2.239,5-5V17c0-2.761-2.239-5-5-5h-7"/><path fill="#7eba00" d="M24 9A3 3 0 1 0 24 15 3 3 0 1 0 24 9zM24 33A3 3 0 1 0 24 39 3 3 0 1 0 24 33z"/><path fill="none" stroke="#68217a" stroke-linecap="round" stroke-linejoin="round" stroke-miterlimit="10" stroke-width="4" d="M18.595,16.422C19.878,17.99,21.816,19,24,19c3.866,0,7-3.134,7-7s-3.134-7-7-7c-2.184,0-4.122,1.01-5.405,2.578"/><path fill="none" stroke="#0072c6" stroke-linecap="round" stroke-linejoin="round" stroke-miterlimit="10" stroke-width="4" d="M29.405,31.578C28.122,30.01,26.184,29,24,29c-3.866,0-7,3.134-7,7s3.134,7,7,7c2.184,0,4.122-1.01,5.405-2.578"/></svg>