<svg xmlns="http://www.w3.org/2000/svg"  viewBox="0 0 48 48" width="1600px" height="1600px"><path fill="#2979ff" d="M42 13h-2V8H8v5H6V8c0-1.1.9-2 2-2h32c1.1 0 2 .9 2 2V13zM40 42H8c-1.1 0-2-.9-2-2v-5h2v5h32v-5h2v5C42 41.1 41.1 42 40 42z"/><path fill="#03a9f4" d="M36,33H12c-0.6,0-1-0.4-1-1V16c0-0.6,0.4-1,1-1h24c0.6,0,1,0.4,1,1v16C37,32.6,36.6,33,36,33z"/><path fill="#0288d1" d="M37,17.2l-11.8,8.5c-0.7,0.5-1.6,0.5-2.3,0L11,17.2v2.5l10.7,7.6c0.7,0.5,1.5,0.7,2.3,0.7 s1.6-0.2,2.3-0.7L37,19.6V17.2z"/></svg>