<svg xmlns="http://www.w3.org/2000/svg"  viewBox="0 0 48 48" width="1600px" height="1600px"><path fill="#2979ff" d="M32.66,7H15.34c-0.715,0-1.375,0.381-1.732,1l-8.66,15c-0.357,0.619-0.357,1.381,0,2l8.66,15c0.357,0.619,1.018,1,1.732,1H32.66c0.715,0,1.375-0.381,1.732-1l8.66-15c0.357-0.619,0.357-1.381,0-2l-8.66-15C34.035,7.381,33.375,7,32.66,7z"/><path fill="#81d4fa" d="M36.5,29h-11c-0.276,0-0.5-0.224-0.5-0.5v-9c0-0.276,0.224-0.5,0.5-0.5h11c0.276,0,0.5,0.224,0.5,0.5v9C37,28.776,36.776,29,36.5,29z"/><path fill="#fff" d="M37,21.043l-5.429,3.778c-0.343,0.239-0.799,0.239-1.142,0L25,21.043V19.5c0-0.276,0.224-0.5,0.5-0.5h11c0.276,0,0.5,0.224,0.5,0.5V21.043z"/><path fill="#69ccf8" d="M30.429,24.821L25,21.043v1l5.429,3.778c0.343,0.239,0.799,0.239,1.142,0L37,22.043v-1l-5.429,3.778C31.228,25.06,30.772,25.06,30.429,24.821z"/><path fill="#81d4fa" d="M22.5,29h-11c-0.276,0-0.5-0.224-0.5-0.5v-9c0-0.276,0.224-0.5,0.5-0.5h11c0.276,0,0.5,0.224,0.5,0.5v9C23,28.776,22.776,29,22.5,29z"/><path fill="#fff" d="M23,21.043l-5.429,3.778c-0.343,0.239-0.799,0.239-1.142,0L11,21.043V19.5c0-0.276,0.224-0.5,0.5-0.5h11c0.276,0,0.5,0.224,0.5,0.5V21.043z"/><path fill="#69ccf8" d="M16.429,24.821L11,21.043v1l5.429,3.778c0.343,0.239,0.799,0.239,1.142,0L23,22.043v-1l-5.429,3.778C17.228,25.06,16.772,25.06,16.429,24.821z"/></svg>