<svg xmlns="http://www.w3.org/2000/svg"  viewBox="0 0 48 48" width="1600px" height="1600px"><path fill="#e1e7ea" d="M36.727,32C40.744,32,44,28.674,44,24.571c0-3.125-1.891-5.793-4.565-6.891c-0.199-3.903-3.339-7.009-7.204-7.035C30.893,7.895,28.121,6,24.909,6c-3.609,0-6.666,2.39-7.754,5.702c-0.434-0.083-0.88-0.131-1.337-0.131c-3.561,0-6.519,2.617-7.145,6.069C5.942,18.71,4,21.406,4,24.571C4,28.674,7.256,32,11.273,32H36.727z"/><path fill="#546e7a" d="M30,28H19c-1.1,0-2-0.9-2-2v0c0-1.1,0.9-2,2-2h11c1.1,0,2,0.9,2,2v0C32,27.1,31.1,28,30,28z"/><path fill="#ffc107" d="M19 26L30 26 27 34 32 34 20 42 22 35 16 35z"/></svg>