<svg xmlns="http://www.w3.org/2000/svg"  viewBox="0 0 48 48" width="1600px" height="1600px" baseProfile="basic"><path fill="#42a5f5" d="M42,37c0,2.762-2.238,5-5,5H11c-2.761,0-5-2.238-5-5V11c0-2.762,2.239-5,5-5h26c2.762,0,5,2.238,5,5	V37z"/><path fill="#fff" d="M38,20v0.556C37.409,20.212,36.732,20,36,20s-1.409,0.212-2,0.556V16h-2v4.556	C31.409,20.212,30.732,20,30,20c-1.2,0-2.266,0.542-3,1.382C26.266,20.542,25.2,20,24,20s-2.266,0.542-3,1.382	C20.266,20.542,19.2,20,18,20c-1.125,0-2.139,0.47-2.866,1.22C14.491,20.479,13.555,20,12.5,20c-0.539,0-1.044,0.133-1.5,0.351V18H9	v10h2v-4.5c0-0.827,0.673-1.5,1.5-1.5s1.5,0.673,1.5,1.5h0.051C14.03,23.666,14,23.829,14,24v4h2v-0.556	C16.591,27.788,17.268,28,18,28c1.2,0,2.266-0.542,3-1.382C21.734,27.458,22.8,28,24,28c0.732,0,1.409-0.212,2-0.556V30h2v-2.556	C28.591,27.788,29.268,28,30,28s1.409-0.212,2-0.556V28h2v-0.556C34.591,27.788,35.268,28,36,28s1.409-0.212,2-0.556V28h2v-8H38z M18,26c-1.103,0-2-0.897-2-2s0.897-2,2-2s2,0.897,2,2S19.103,26,18,26z M24,26c-1.103,0-2-0.897-2-2s0.897-2,2-2s2,0.897,2,2	S25.103,26,24,26z M30,26c-1.103,0-2-0.897-2-2s0.897-2,2-2s2,0.897,2,2S31.103,26,30,26z M36,26c-1.103,0-2-0.897-2-2s0.897-2,2-2	s2,0.897,2,2S37.103,26,36,26z"/></svg>