<svg xmlns="http://www.w3.org/2000/svg"  viewBox="0 0 48 48" width="1600px" height="1600px"><path fill="#D32F2F" d="M35 34.75l-4.412-4.963C30.422 29.912 30.225 30 30 30l-13 .929v.728l-2 .196V37h20V34.75zM36.541 5.667C35 4.447 34.148 4.072 33.044 4.072L7 6C6.448 6 5.948 6.224 5.586 6.586l5 5C10.948 11.224 11.448 11 12 11l28-1.999c.408 0 .787.124 1.104.333L36.541 5.667z"/><path fill="#B71C1C" d="M36.417 14.594L31 15 31 23 42 23.53 42 19.445z"/><path fill="#B71C1C" d="M35 20L31 16 31 26.063 35 30.063zM5 8v7.281l5 5v-6.28V13c0-.553.224-1.053.586-1.414l-5-5C5.224 6.947 5 7.447 5 8z"/><path fill="#B71C1C" d="M37.75 27.751l-6.747.273L31 28.021v.003.836V29c0 .328-.291.917-1 1l4.816 4.545C34.923 34.386 42 33.406 42 33.406v-2.002L37.75 27.751zM17 25.75L5 25.75 5 17.415 11.417 16.813 17 21.665zM17 35.626L5 35.626 5 29.374 11.417 28.772 17 33.624z"/><path fill="#B71C1C" d="M10 22.29L5 17.415 5 27.281 10 32.281zM5 8v7.281l5 5v-6.28V13c0-.553.224-1.053.586-1.414l-5-5C5.224 6.947 5 7.447 5 8zM10 41v-6.71l-5-4.876V35c0 1.104 0 2 1 3l4.466 4.269C10.179 41.923 10 41.484 10 41z"/><g><path fill="#F44336" d="M35 20.058L35 30.05 42 29.425 42 19.433zM10 22.29L10 32.281 17 31.656 17 21.665zM17 19.656V18c0-.553.448-1 1-1l16-1c.553 0 1 .447 1 1v1.05l7-.625v-6.424c0-1.104-.896-2-2-2L12 11c-1.104 0-2 .896-2 2v7.281L17 19.656zM35 32.058V34c0 .553-.447 1-1 1l-16 1c-.552 0-1-.447-1-1v-1.335l-7 .625V41c0 1.104.896 2 2 2l28-1.999c1.104 0 2-.896 2-2v-7.568L35 32.058z"/></g></svg>