<svg xmlns="http://www.w3.org/2000/svg"  viewBox="0 0 48 48" width="1600px" height="1600px"><path fill="#00bcd4" d="M9,24c0,0-0.258-0.961-0.258-2.289c0-1.593,0.331-3.964,1.258-5.601C4.36,16.847,0,21.658,0,27.5 C0,33.851,5.149,39,11.5,39S40,39,40,39V24H9z"/><path fill="#00bcd4" d="M24 9A15 15 0 1 0 24 39A15 15 0 1 0 24 9Z"/><path fill="#fff" d="M24,36c-6.617,0-12-5.383-12-12s5.383-12,12-12s12,5.383,12,12S30.617,36,24,36z M24,14 c-5.514,0-10,4.486-10,10s4.486,10,10,10s10-4.486,10-10S29.514,14,24,14z"/><path fill="#fff" d="M20.5,31c-0.829,0-1.5-0.672-1.5-1.5v-10c0-0.828,0.671-1.5,1.5-1.5h5c2.481,0,4.5,2.019,4.5,4.5 S27.981,27,25.5,27H22v2.5C22,30.328,21.329,31,20.5,31z M22,24h3.5c0.827,0,1.5-0.673,1.5-1.5S26.327,21,25.5,21H22V24z"/><path fill="#00bcd4" d="M45,22.5c0-3.59-2.91-6.5-6.5-6.5c-0.211,0-0.294-0.02-0.5,0c0.028,0.053-0.002-0.003,0,0 c0.929,1.637,1.258,4.117,1.258,5.711C39.258,23.039,39,24,39,24v4.975C42.355,28.719,45,25.921,45,22.5z"/><path fill="#00bcd4" d="M45.551,25.25C44.665,27.165,42.544,28,41.962,28C40.919,28,39,28,39,28v11c0.317-0.023,0.646,0,1,0 c4.418,0,8-3.582,8-8C48,28.74,47.059,26.703,45.551,25.25z"/></svg>