<svg xmlns="http://www.w3.org/2000/svg"  viewBox="0 0 48 48" width="1600px" height="1600px"><path fill="#00BCD4" d="M0,25.9c0.2-0.7,0.3-1.4,0.5-2.1c1.5-4.3,4.4-7,9-7.7c4.2-0.6,7.9,0.6,11.2,3.2c2.4,1.9,4.2,4.2,6.1,6.5c1.4,1.7,2.7,3.4,4.3,4.9c1.6,1.5,3.3,2.8,5.6,3.3c1.8,0.4,3.6,0.4,5.2-0.7c1.8-1.3,2.6-3.8,1.9-6C43.2,25.4,41.2,24,39,24c-1,0-1.9,0.2-2.8,0.6c-0.4,0.2-0.8,0.3-1.2,0.1c-0.6-0.2-0.8-0.8-0.7-1.5c0.5-1.7,0.4-3.5-0.1-5.1c-1-2.8-3-4.6-5.8-5.3c-3.1-0.8-6-0.3-8.4,2c-0.1,0.1-0.1,0.1-0.2,0.2c-0.4,0.3-0.9,0.3-1.2,0c-0.3-0.3-0.3-0.7-0.1-1.1c0.5-0.7,1.1-1.3,1.8-1.8c1.3-1,2.8-1.6,4.4-1.8c0.2,0,0.4,0,0.5-0.2c0.8,0,1.6,0,2.4,0c0.6,0.1,1.2,0.2,1.8,0.4c2.8,0.8,5,2.4,6.4,4.9c0.9,1.6,1.2,3.4,1.1,5.2c0,0.3,0,0.6,0,0.9c-0.1,0.4,0.1,0.5,0.5,0.4c0.8-0.2,1.6-0.3,2.5-0.3c3.4,0.1,6.4,2,7.6,5.2c0.8,2.2,0.7,4.3-0.3,6.4c-1.2,2.6-3.2,4.2-6.1,4.7c-2.8,0.5-5.4-0.1-7.8-1.5c-2.3-1.3-4-3.2-5.7-5.2c-1.8-2.2-3.5-4.5-5.4-6.6c-1.5-1.7-3.2-3.2-5.3-4.1c-2.6-1.2-5.3-1.4-8.1-0.4c-2.7,1-4.1,3.1-4.6,5.9c-0.3,1.6-0.1,3.2,0.5,4.7c0.9,2.2,2.7,3.4,4.8,4.2c2.3,0.8,4.7,0.5,7-0.1c2.1-0.6,4.1-1.5,5.9-2.9c0.3-0.2,0.5-0.4,0.7-0.6c0.4-0.4,0.9-0.4,1.2-0.1c0.3,0.3,0.3,0.7,0,1.2c-0.7,0.9-1.6,1.6-2.5,2.2c-2.4,1.7-5.1,2.9-8,3.3c-3.9,0.6-7.4-0.3-10.4-2.9c-1.9-1.7-2.9-3.8-3.3-6.3c0-0.1,0-0.2-0.1-0.3C0,27.5,0,26.7,0,25.9z"/></svg>