<svg xmlns="http://www.w3.org/2000/svg"  viewBox="0 0 48 48" width="1600px" height="1600px" clip-rule="evenodd"><path fill="#263238" d="M46.023,15.908c-1.872-2.065-6.4-2.72-9.697-2.927c-1.462-0.094-2.919-0.35-4.333-0.762	c-0.639-0.178-1.278-0.403-1.902-0.645c-2.772-1.1-7.345-2.158-12.28-0.138c-0.157,0.069-0.31,0.123-0.453,0.198	c-0.152,0.055-0.306,0.133-0.463,0.202c-4.826,2.246-7.164,6.323-8.24,9.106c-0.246,0.622-0.515,1.244-0.819,1.834	c-0.656,1.317-1.449,2.556-2.373,3.693c-2.092,2.55-4.678,6.313-4.448,9.085c0.037,0.488,0.161,0.948,0.396,1.36	c0.457,0.819,1.197,1.251,1.765,1.518c4.138,1.98,13.728,0.98,24.03-4.266C38.053,30.17,45.301,23.812,46.65,19.434	c0.19-0.598,0.375-1.435,0.086-2.326C46.597,16.665,46.347,16.271,46.023,15.908z"/><path fill="#2962ff" fill-rule="evenodd" d="M46.681,16.918c2.105,4.713-6.419,13.004-18.953,18.482	S2.984,41.63,1.289,36.755C0.085,33.293,8.103,24.05,20.637,18.573S45.258,13.732,46.681,16.918z" clip-rule="evenodd"/><path fill="#fff" fill-rule="evenodd" d="M14.073,33.98c-0.881-2.016,3.511-5.881,9.811-8.635	s12.12-3.35,13.001-1.334c0.881,2.016-3.511,5.881-9.811,8.635S14.954,35.997,14.073,33.98z" clip-rule="evenodd"/></svg>