<svg xmlns="http://www.w3.org/2000/svg"  viewBox="0 0 48 48" width="1600px" height="1600px"><path fill="#1e88e5" d="M44,24c0,11-9,20-20,20S4,35,4,24S13,4,24,4S44,13,44,24z"/><path fill="#fff" d="M18 26H20V32.7H18zM26.1 28.3c-.2 0-.5-.1-.7-.3l-2.9-2.7c-.4-.4-.4-1 0-1.4.4-.4 1-.4 1.4 0l2.9 2.7c.4.4.4 1 0 1.4C26.7 28.2 26.4 28.3 26.1 28.3z"/><path fill="#fff" d="M23.3,28.3c-0.3,0-0.5-0.1-0.7-0.3c-0.4-0.4-0.4-1,0-1.4l2.9-2.7c0.4-0.4,1-0.4,1.4,0 c0.4,0.4,0.4,1,0,1.4L24,28.1C23.8,28.2,23.5,28.3,23.3,28.3z"/><path fill="#fff" d="M24.7,32.3c-0.8,0-1.6-0.1-2.4-0.4c-0.5-0.2-0.8-0.8-0.6-1.3c0.2-0.5,0.8-0.8,1.3-0.6 c0.6,0.2,1.2,0.3,1.7,0.3c2.6,0,4.7-1.9,4.7-4.3s-2.1-4.3-4.7-4.3c-2.6,0-4.7,1.9-4.7,4.3c0,0.6-0.4,1-1,1s-1-0.4-1-1 c0-3.5,3-6.3,6.7-6.3s6.7,2.8,6.7,6.3C31.4,29.5,28.4,32.3,24.7,32.3z"/><path fill="#fff" d="M24.7,35.7c-4.2,0-7.9-2.3-9.5-5.9c-0.2-0.5,0-1.1,0.5-1.3c0.5-0.2,1.1,0,1.3,0.5 c1.3,2.9,4.3,4.7,7.7,4.7c4.6,0,8.3-3.4,8.3-7.7c0-4.2-3.7-7.7-8.3-7.7c-3.4,0-6.4,1.9-7.7,4.7c-0.2,0.4-0.7,0.7-1.1,0.6 c-0.5-0.1-0.8-0.5-0.8-1l0-12.7c0-0.3,0.1-0.5,0.3-0.7C15.6,9.1,15.8,9,16.1,9h15c0.6,0,1,0.4,1,1s-0.4,1-1,1h-14l0,8.4 c1.9-2,4.6-3.1,7.6-3.1c5.7,0,10.3,4.3,10.3,9.7S30.4,35.7,24.7,35.7z"/><path fill="#fff" d="M24.7 39c-6.8 0-12.6-4.6-13.7-10.8-.1-.5.3-1.1.8-1.2.5-.1 1.1.3 1.2.8 1 5.3 5.9 9.2 11.7 9.2 3.2 0 6.3-1.2 8.5-3.3.4-.4 1-.4 1.4 0 .4.4.4 1 0 1.4C32 37.6 28.5 39 24.7 39zM32.6 17.5c-.2 0-.4-.1-.6-.2-2.1-1.5-4.6-2.3-7.3-2.3-1.4 0-2.7.2-4 .6-.5.2-1.1-.1-1.3-.6-.2-.5.1-1.1.6-1.3 1.5-.5 3-.7 4.6-.7 3.1 0 6 .9 8.5 2.7.4.3.5.9.2 1.4C33.2 17.4 32.9 17.5 32.6 17.5z"/></svg>