<svg xmlns="http://www.w3.org/2000/svg"  viewBox="0 0 48 48" width="1600px" height="1600px"><path fill="#455A64" d="M40.4,19c-5.3,0-8.2,5-8.4,5c-0.2,0-3.6-5-9-5s-6.6,5.1-6.8,5.1c-0.2,0-1.7-4.1-6.3-4.1c-3.8,0-4.6,1.6-4.6,1.6s0.4-1.3,1-4.6H15v-4H3L0.5,25h4.3c0,0,0.9-1.7,3.4-1.7s3.8,1.9,3.8,4c0,2.1-1.5,4.5-3.8,4.5c-2.3,0-3.7-2.4-3.7-3.8C2.6,28,0,28,0,28c0,1.2,1,7,8.2,7c5.9,0,8-4.1,8-4.6c0,0.4,2,4.6,6.8,4.6c5.6,0,8.7-4.6,9-4.6c0.3,0,3.3,4.6,8.4,4.6s7.6-4.3,7.6-8C48,23.3,45.7,19,40.4,19z M44,27c0,0.9-0.4,3.7-3.6,3.7c-2.9,0-5.9-3.6-5.9-3.7h0l0,0l0,0h0c0,0,3-3.6,5.9-3.6C43.5,23.4,44,26.1,44,27L44,27z M20,27c0-0.9,0.3-3.6,3.6-3.6c2.9,0,5.9,3.6,6,3.6h0l0,0l0,0h0c0,0-3.1,3.7-6,3.7C20.4,30.7,20,27.9,20,27L20,27z"/></svg>