<svg xmlns="http://www.w3.org/2000/svg"  viewBox="0 0 48 48" width="1600px" height="1600px" baseProfile="basic"><path fill="#f4511e" d="M6,34.5c0,4.142,3.358,7.5,7.5,7.5h21c4.142,0,7.5-3.358,7.5-7.5v-3.424H6V34.5z"/><path fill="#ff8a65" d="M42,13.5C42,9.358,38.642,6,34.5,6h-21C9.358,6,6,9.358,6,13.5V18h36V13.5z"/><rect width="36" height="13.076" x="6" y="18" fill="#ff7043"/><path fill="#eee" d="M37.395,28.588l-9-15c-0.927-1.545-2.623-2.467-4.414-2.426c-1.801,0.045-3.438,1.056-4.286,2.646	l-8,15c-0.903,1.693-0.714,3.661,0.292,5.147c-0.146-0.708-0.257-1.573-0.116-2.196c0.281-1.244,1.806-3.893,1.806-3.893	l1.405-2.448c0,0,1.365-2.087,3.211-2.248s2.569-0.161,3.251,0.161c0.682,0.321,1.512,0.972,1.846,1.284	c0.415,0.388,1.057,1.405,1.057,1.405l4.373,7.713c1.42,2.367,4.491,3.136,6.86,1.715C38.048,34.027,38.815,30.956,37.395,28.588z"/><path fill="#ffab91" d="M23.39,24.614c-0.308-0.338-0.958-0.855-1.646-1.164c-0.923-0.415-2.06-0.602-3.719-0.214	c-1.886,0.441-2.943,2.181-2.943,2.181l-1.405,2.448c0,0-1.525,2.649-1.806,3.893c-0.141,0.623-0.066,1.392,0.08,2.1	c0.441,0.652,0.942,1.075,1.686,1.472c0.75,0.399,1.589,0.63,2.381,0.589c1.525-0.08,3.087-0.801,3.987-2.488l4.308-7.626	C24.313,25.805,23.939,25.216,23.39,24.614z"/></svg>