<svg xmlns="http://www.w3.org/2000/svg"  viewBox="0 0 48 48" width="1600px" height="1600px"><rect width="22" height="22" x="2" y="13" fill="#37474f"/><rect width="22" height="22" x="24" y="13" fill="#fff"/><path fill="#fff" d="M16.451,25.868C15.83,26.846,14.744,27.5,13.5,27.5c-1.933,0-3.5-1.567-3.5-3.5s1.567-3.5,3.5-3.5	c1.244,0,2.33,0.654,2.951,1.632l5.722-3.097C20.448,16.029,17.214,14,13.5,14c-5.523,0-10,4.477-10,10c0,5.523,4.477,10,10,10	c3.714,0,6.948-2.029,8.673-5.035L16.451,25.868z"/><rect width="6.5" height="19" x="38" y="14.5" fill="#37474f"/><rect width="6.5" height="19" x="25.5" y="14.5" fill="#37474f"/><polygon fill="#37474f" points="25.5,17.5 32,14.5 43,28.5 38,33.5"/></svg>