<svg xmlns="http://www.w3.org/2000/svg"  viewBox="0 0 48 48" width="1600px" height="1600px"><path fill="#42a5f5" d="M34.5 7c-5.247 0-9.5 4.253-9.5 9.5s4.253 9.5 9.5 9.5 9.5-4.253 9.5-9.5S39.747 7 34.5 7zM34.5 22c-2.485 0-4.5-2.462-4.5-5.5 0-3.038 2.015-5.5 4.5-5.5s4.5 2.462 4.5 5.5C39 19.538 36.985 22 34.5 22zM13.5 7C8.253 7 4 11.253 4 16.5S8.253 26 13.5 26s9.5-4.253 9.5-9.5S18.747 7 13.5 7zM13.5 22C11.015 22 9 19.538 9 16.5c0-3.038 2.015-5.5 4.5-5.5s4.5 2.462 4.5 5.5C18 19.538 15.985 22 13.5 22z"/><path fill="#c5cae9" d="M40.53,30c-0.386,0-0.559,0.282-0.651,0.583C38.763,33.794,32.089,36,24,36 S9.237,33.794,8.121,30.583C8.029,30.282,7.856,30,7.47,30c-0.386,0-0.5,0.297-0.464,0.583C7.731,36.415,15.055,41,24,41 s16.269-4.585,16.994-10.417C41.03,30.297,40.916,30,40.53,30z"/></svg>