<svg xmlns="http://www.w3.org/2000/svg"  viewBox="0 0 48 48" width="1600px" height="1600px" baseProfile="basic"><path fill="#42a5f5" d="M24.066,42.03c-2.326,0-4.653-0.011-5.187-0.033c-3.506-0.145-8.157-2.306-10.639-6.808 c-3.119-5.654-3.569-11.785-1.376-18.742C9.93,6.719,18.428,6.033,18.788,6.008L19.025,6l10.313,0.008 c0.36,0.025,8.857,0.711,11.923,10.44l-6.676,2.104c-1.484-4.71-4.938-5.447-5.678-5.552h-9.71c-0.62,0.085-4.15,0.775-5.655,5.552 c-2.113,6.704-0.539,10.777,0.83,13.258c1.277,2.316,3.784,3.151,4.799,3.193c0.871,0.037,8.918,0.037,9.785,0 c1.017-0.042,3.523-0.877,4.801-3.193l6.129,3.381c-2.481,4.501-7.132,6.662-10.64,6.807C28.714,42.02,26.391,42.03,24.066,42.03z"/><polygon fill="#42a5f5" points="22,30 22,19 30,24"/></svg>