<svg xmlns="http://www.w3.org/2000/svg"  viewBox="0 0 48 48" width="1600px" height="1600px"><path fill="#f50057" d="M13,42h22c3.866,0,7-3.134,7-7V13c0-3.866-3.134-7-7-7H13c-3.866,0-7,3.134-7,7v22	C6,38.866,9.134,42,13,42z"/><path fill="#fff" d="M12,22v14c0,0.553,0.448,1,1,1h22c0.552,0,1-0.447,1-1V22H12z M28.125,23l-2.5,2H24l2.5-2H28.125z M14,23h1.75L14,24.167V23z M15.75,25l2.5-2h1.625l-2.5,2H15.75z M19.875,25l2.5-2H24l-2.5,2H19.875z M22,33v-5l4.5,2.5L22,33z M28.125,25l2.5-2h1.625l-2.5,2H28.125z M34,25h-1.75L34,23.833V25z"/><path fill="#fff" d="M34.186,11.725c-0.15-0.53-0.7-0.837-1.23-0.687L11.87,17.006c-0.529,0.15-0.837,0.7-0.687,1.23	l0.814,2.875L35,14.601L34.186,11.725z M13.416,18.811L13.1,17.693l1.677-0.475L13.416,18.811z M16.877,18.694l-1.557,0.441	l1.854-2.595l1.557-0.441L16.877,18.694z M20.831,17.575l-1.557,0.441l1.854-2.595l1.558-0.441L20.831,17.575z M24.785,16.456	l-1.558,0.441l1.854-2.595l1.557-0.441L24.785,16.456z M28.738,15.337l-1.557,0.441l1.854-2.595l1.558-0.441L28.738,15.337z M31.134,14.659l1.361-1.593l0.316,1.118L31.134,14.659z"/></svg>