<svg xmlns="http://www.w3.org/2000/svg"  viewBox="0 0 48 48" width="1600px" height="1600px"><path fill="#003d33" d="M32,35.49C29.732,37.072,26.975,38,24,38c-7.732,0-14-6.268-14-14c0-4,3-10,4-11L32,35.49z"/><path fill="#00695c" d="M35,31.49C32.732,33.072,29.975,34,27,34c-7.732,0-14-6.268-14-14S19,6,27,6c6,0,7,1,7,1v8h-7h-0.5 c-2.485,0-4.5,2.015-4.5,4.5s2.015,4.5,4.5,4.5c1.553,0,2.923-0.787,3.731-1.984L29,22h-3v-3h9v11L35,31.49z"/><path fill="#00897b" d="M34,7v8h-7.5c-2.49,0-4.5,2.01-4.5,4.5c0,1.41,0.65,2.67,1.67,3.49c-3.93-0.08-7.56-0.73-10.62-1.79 C13.02,20.8,13,20.4,13,20c0-7.73,6-14,14-14C33,6,34,7,34,7z"/><path fill="#00897b" d="M35,19v2.52c-1.64,0.5-3.42,0.89-5.31,1.14c0.2-0.19,0.38-0.41,0.54-0.64L29,22h-3v-3H35z"/><path fill="#424242" d="M15 71H32V83H15zM15 70H7v-2.798c0-.455.489-.847 1.191-.968C8.886 66.115 9.851 66 11 66s2.114.115 2.809.234C14.511 66.355 15 66.747 15 67.202V70zM41 70h-8v-2.798c0-.455.489-.847 1.191-.968C34.886 66.115 35.851 66 37 66s2.114.115 2.809.234C40.511 66.355 41 66.747 41 67.202V70z"/><path fill="#424242" d="M3.105,75.712L0.121,90.6c-1.178,5.811,6.551,8.905,9.657,3.866l8.722-14.84L3.105,75.712z"/><path fill="#616161" d="M11 69A8 8 0 1 0 11 85A8 8 0 1 0 11 69Z"/><path fill="#424242" d="M44.895,75.712L47.879,90.6c1.178,5.811-6.551,8.905-9.657,3.866L29.5,79.625L44.895,75.712z"/><path fill="#616161" d="M37 69A8 8 0 1 0 37 85A8 8 0 1 0 37 69Z"/><path fill="#80cbc4" d="M37 71A2 2 0 1 0 37 75A2 2 0 1 0 37 71Z"/><path fill="#d32f2f" d="M41 75A2 2 0 1 0 41 79A2 2 0 1 0 41 75Z"/><path fill="#64b5f6" d="M37 79A2 2 0 1 0 37 83A2 2 0 1 0 37 79Z"/><path fill="#f48fb1" d="M33 75A2 2 0 1 0 33 79A2 2 0 1 0 33 75Z"/><path fill="#e0e0e0" d="M24 77A2 2 0 1 0 24 81A2 2 0 1 0 24 77Z"/><path fill="#3f51b5" d="M158 209c0 2.762-2.238 5-5 5h-26c-2.761 0-5-2.238-5-5v-26c0-2.762 2.239-5 5-5h26c2.762 0 5 2.238 5 5V209zM-132 209c0 2.762-2.238 5-5 5h-26c-2.761 0-5-2.238-5-5v-26c0-2.762 2.239-5 5-5h26c2.762 0 5 2.238 5 5V209zM-34 4A20 20 0 1 0-34 44 20 20 0 1 0-34 4zM100 37c0 2.762-2.238 5-5 5H69c-2.761 0-5-2.238-5-5V11c0-2.762 2.239-5 5-5h26c2.762 0 5 2.238 5 5V37zM-130 37c0 2.762-2.238 5-5 5h-26c-2.761 0-5-2.238-5-5V11c0-2.762 2.239-5 5-5h26c2.762 0 5 2.238 5 5V37zM100 94c0 2.762-2.238 5-5 5H69c-2.761 0-5-2.238-5-5V68c0-2.762 2.239-5 5-5h26c2.762 0 5 2.238 5 5V94z"/><path fill="#424242" d="M-17,63c0,0,2,8,2,18s-2,18-2,18h-34c0,0-2-8-2-18s2-18,2-18H-17z"/><path fill="#3f51b5" d="M-92 61A20 20 0 1 0 -92 101A20 20 0 1 0 -92 61Z"/><path fill="#ef5350" d="M100-138c0-7-4.787-13.143-4.787-13.143l-0.009,0.023C91.867-156.301,85.868-160,79-160 c-10,0-17.67,7.02-19,15c-0.646,3.878-1,9.234-1,12c0,5,1,7,1,7c1-6,3-8,3-8c0,11,6,12,6,12c-1-2-1-6-1-8 c2.204,2.274,6.011,3,10.5,3c3.714,0,7.039-1.042,9.329-2.688c-0.217,1.705-0.709,4.009-1.829,5.688c0,0,3,0,7-7c0,0,0,4-2,9 C91-122,100-129,100-138z"/><path fill="#eee" d="M81.5 -148A5.5 4 0 1 0 81.5 -140A5.5 4 0 1 0 81.5 -148Z"/><path fill="#424242" d="M87-144c0,1.42-1.02,2.67-2.56,3.38C84.33-140.82,84.2-141,84-141c-2.21,0-4-1.34-4-3s1.79-3,4-3 c0.04,0,0.07,0,0.11,0.01c-0.07,0.15-0.11,0.32-0.11,0.49c0,0.83,0.9,1.5,2,1.5c0.28,0,0.54-0.04,0.78-0.12 C86.92-144.76,87-144.39,87-144z"/><path fill="#eee" d="M61.5 -146A4.5 3.5 0 1 0 61.5 -139A4.5 3.5 0 1 0 61.5 -146Z"/><path fill="#424242" d="M62-142.5c0,1.38-1.34,2.5-3,2.5c-0.25,0-0.5-0.03-0.73-0.08c-0.79-0.62-1.27-1.48-1.27-2.42 c0-0.56,0.17-1.09,0.47-1.55c0.44,0.63,1.19,1.05,2.03,1.05c0.79,0,1.49-0.37,1.95-0.94C61.8-143.54,62-143.04,62-142.5z"/><path fill="#ffe0b2" d="M85-141c-4,0-5,0.849-5,0.849C78-142,74-144,69.5-144c-2.331,0-4.225,1.778-4.454,4.048 c-2.093-0.225-3.875,0.578-4.032,1.868c-0.164,1.342,1.488,2.692,3.691,3.014c0.148,0.022,0.29,0.025,0.434,0.037 C66.015-131.681,71.338-130,75-130c6,0,10-4,14-5c1.657,0,3-1.119,3-2.5S90-141,85-141z"/><path fill="none" stroke="#ffcc80" stroke-miterlimit="10" stroke-width="2" d="M84-137.933c-2,1.849-6,3.849-10.5,3.849 c-2.331,0-4.225-1.778-4.454-4.048c-2.093,0.225-3.875-0.578-4.032-1.868"/><path fill="#424242" d="M68.996-140.559c-0.089,0.495-1.502,0.7-3.156,0.456c-1.654-0.244-2.923-0.843-2.834-1.338 c0.089-0.495,1.502-0.7,3.156-0.456S69.085-141.054,68.996-140.559z"/><path fill="#bdbdbd" d="M-15.89,93c-0.53,3.69-1.11,6-1.11,6h-21c0-3.31,2.69-6,6-6H-15.89z"/><path fill="#757575" d="M-22 95A1 1 0 1 0-22 97 1 1 0 1 0-22 95zM-29 95A1 1 0 1 0-29 97 1 1 0 1 0-29 95z"/><path fill="none" stroke="#ed1c24" stroke-miterlimit="10" d="M130.5 87.5h8c1.105 0 2 .895 2 2l0 0c0 1.105-.895 2-2 2h-6c-1.105 0-2 .895-2 2v1V96M152 87.5h-3.5c-1.105 0-2 .895-2 2v4c0 1.105-.895 2-2 2h-4M154 91.5h7.5c1.105 0 2-.895 2-2s-.895-2-2-2H154M154 95.5h7.5c1.105 0 2-.895 2-2s-.895-2-2-2H154" opacity=".22"/><path fill="none" stroke="#ed1c24" stroke-miterlimit="10" stroke-width="2" d="M187 88h8c1.105 0 2 .895 2 2l0 0c0 1.105-.895 2-2 2h-6c-1.105 0-2 .895-2 2v1 2M211 88h-5c-1.105 0-2 .895-2 2v4c0 1.105-.895 2-2 2h-5M213 92h7.416c.874 0 1.717-.515 1.981-1.348C222.835 89.271 221.816 88 220.5 88H213M213 96h7.416c.874 0 1.717-.515 1.981-1.348C222.835 93.271 221.816 92 220.5 92H213"/><path fill="#bdbdbd" d="M-36.88 82H-38v-1.8c0-.993.754-1.8 1.68-1.8h3.36c.309 0 .56-.269.56-.6 0-.331-.251-.6-.56-.6h-4.48V76h4.48c.926 0 1.68.807 1.68 1.8 0 .993-.754 1.8-1.68 1.8h-3.36c-.309 0-.56.269-.56.6V82zM-29.04 82h-2.8v-1.2h2.8c.309 0 .56-.269.56-.6v-2.4c0-.993.754-1.8 1.68-1.8h2.8v1.2h-2.8c-.309 0-.56.269-.56.6v2.4C-27.36 81.193-28.114 82-29.04 82zM-18.727 79.6h-4.153v-1.2h4.153c.266 0 .509-.164.575-.39.081-.275-.013-.471-.076-.564-.107-.156-.272-.246-.452-.246h-4.2V76h4.2c.534 0 1.041.276 1.356.738.321.47.408 1.066.24 1.635C-17.297 79.095-17.973 79.6-18.727 79.6z"/><path fill="#bdbdbd" d="M-18.727,82h-4.153v-1.2h4.153c0.266,0,0.509-0.164,0.575-0.39 c0.081-0.275-0.013-0.471-0.076-0.564c-0.107-0.156-0.272-0.246-0.452-0.246h-4.2v-1.2h4.2c0.534,0,1.041,0.276,1.356,0.738 c0.321,0.47,0.408,1.066,0.24,1.635C-17.297,81.495-17.973,82-18.727,82z"/><path fill="#757575" d="M17.5 79A4.5 4.5 0 1 0 17.5 88A4.5 4.5 0 1 0 17.5 79Z"/><path fill="#bdbdbd" d="M17.5 81A2.5 2.5 0 1 0 17.5 86A2.5 2.5 0 1 0 17.5 81Z"/><path fill="#757575" d="M31.5 79A4.5 4.5 0 1 0 31.5 88A4.5 4.5 0 1 0 31.5 79Z"/><path fill="#bdbdbd" d="M31.5 81A2.5 2.5 0 1 0 31.5 86A2.5 2.5 0 1 0 31.5 81Z"/><path fill="#424242" d="M9 72H13V82H9z"/><path fill="#424242" d="M9 72H13V82H9z" transform="rotate(-90 11 77)"/><path fill="#004d40" d="M27,35c-8.271,0-15-6.729-15-15c0-8.411,6.589-15,15-15c5.789,0,7.318,0.904,7.707,1.293 C34.895,6.48,35,6.735,35,7v8c0,0.552-0.447,1-1,1h-7.5c-1.93,0-3.5,1.57-3.5,3.5c0,1.568,1.037,2.899,2.461,3.343 C25.184,22.665,25,22.354,25,22v-3c0-0.552,0.447-1,1-1h9c0.553,0,1,0.448,1,1v12.491c0,0.327-0.16,0.633-0.428,0.82 C33.05,34.07,30.086,35,27,35z M27,7c-7.29,0-13,5.71-13,13c0,7.168,5.832,13,13,13c2.502,0,4.911-0.705,7-2.043V20h-7v1 l3.244,0.016c0.368,0.005,0.703,0.211,0.873,0.537c0.171,0.326,0.148,0.719-0.058,1.023C30.034,24.094,28.33,25,26.5,25 c-3.032,0-5.5-2.467-5.5-5.5s2.468-5.5,5.5-5.5H33V7.611C32.349,7.383,30.704,7,27,7z M26.49,23c0.007,0,0.014,0,0.021,0H26.49z"/><path fill="#01579b" d="M30 40L33 40 31 43 28 43 26 38 24 38 24 32 27.07 31.6 27.31 34.59 28.39 34.5z"/><path fill="#01579b" d="M22 40L25 40 23 43 20 43 20 38 18 38 18 35 20 31 20 34 22 34z"/><path fill="#0277bd" d="M35.47 30.79L33 40 30 40 28.39 34.5 27.31 34.59 27.07 31.6 30.48 31.32 31.63 34.72 32.53 30.21zM27 31L20 31 20 34 22 34 22 40 25 40 25 34 27 34z"/><path fill="#039be5" d="M35.47 30.79l-1.1 4.12c-1.79.41-3.66.71-5.6.89l-.38-1.3-1.08.09-.24-2.99 3.41-.28 1.103 2.847.947-3.957L35.47 30.79zM27 31v3h-2v1.99C24.83 36 24.67 36 24.5 36c-.84 0-1.68-.02-2.5-.07V34h-2v-3H27z"/><path fill="#003d33" d="M120-37.51c-2.268,1.582-5.026,2.51-8,2.51c-7.732,0-14-6.268-14-14c0-4,3-10,4-11L120-37.51z"/><path fill="#00695c" d="M123-41.51c-2.268,1.582-5.026,2.51-8,2.51c-7.732,0-14-6.268-14-14s6-14,14-14c6,0,7,1,7,1v8h-7 h-0.5c-2.485,0-4.5,2.015-4.5,4.5s2.015,4.5,4.5,4.5c1.553,0,2.923-0.787,3.731-1.984L117-51h-3v-3h9v11L123-41.51z"/><path fill="#64dd17" d="M111.67-50.01c-3.93-0.08-7.56-0.73-10.62-1.79c-0.03-0.4-0.05-0.8-0.05-1.2c0-7.73,6-14,14-14 c6,0,7,1,7,1v8h-7.5c-2.49,0-4.5,2.01-4.5,4.5C110-52.09,110.65-50.83,111.67-50.01z"/><path fill="#64dd17" d="M123-54v2.52c-1.64,0.5-3.42,0.89-5.31,1.14c0.2-0.19,0.38-0.41,0.54-0.64L117-51h-3v-3H123z"/><path fill="#00897b" d="M122-66v8h-7.5c-2.49,0-4.5,2.01-4.5,4.5c0,1.41,0.65,2.67,1.67,3.49 c-3.93-0.08-7.56-0.73-10.62-1.79c-0.03-0.4-0.05-0.8-0.05-1.2c0-7.73,6-14,14-14C121-67,122-66,122-66z"/><path fill="#00897b" d="M123-54v2.52c-1.64,0.5-3.42,0.89-5.31,1.14c0.2-0.19,0.38-0.41,0.54-0.64L117-51h-3v-3H123z"/><path fill="none" stroke="#004d40" stroke-linejoin="round" stroke-miterlimit="10" stroke-width="2" d="M123-41.51 c-2.268,1.582-5.026,2.51-8,2.51c-7.732,0-14-6.268-14-14s6-14,14-14c6,0,7,1,7,1v8h-7h-0.5c-2.485,0-4.5,2.015-4.5,4.5 s2.015,4.5,4.5,4.5c1.553,0,2.923-0.787,3.731-1.984L117-51h-3v-3h9v11L123-41.51z"/><path fill="#0277bd" d="M123.47 -42.21L121 -33 118 -33 116.39 -38.5 115.31 -38.41 115.07 -41.4 118.48 -41.68 119.63 -38.28 120.53 -42.79z"/><path fill="#01579b" d="M118 -33L121 -33 119 -30 116 -30 114 -35 112 -35 112 -41 115.07 -41.4 115.31 -38.41 116.39 -38.5z"/><path fill="#01579b" d="M110 -33L113 -33 111 -30 108 -30 108 -35 106 -35 106 -38 108 -42 108 -39 110 -39z"/><path fill="#0277bd" d="M115 -42L108 -42 108 -39 110 -39 110 -33 113 -33 113 -39 115 -39z"/><path fill="#039be5" d="M123.47-42.21l-1.1 4.12c-1.79.41-3.66.71-5.6.89l-.38-1.3-1.08.09-.24-2.99 3.41-.28 1.103 2.847.947-3.957L123.47-42.21zM115-42v3h-2v1.99C112.83-37 112.67-37 112.5-37c-.84 0-1.68-.02-2.5-.07V-39h-2v-3H115z"/><path fill="#003d33" d="M-83,35.49c-2.268,1.582-5.026,2.51-8,2.51c-7.732,0-14-6.268-14-14c0-4,3-10,4-11L-83,35.49z"/><path fill="#00695c" d="M-80,31.49c-2.268,1.582-5.026,2.51-8,2.51c-7.732,0-14-6.268-14-14s6-14,14-14c6,0,7,1,7,1v8h-7 h-0.5c-2.485,0-4.5,2.015-4.5,4.5s2.015,4.5,4.5,4.5c1.553,0,2.923-0.787,3.731-1.984L-86,22h-3v-3h9v11L-80,31.49z"/><path fill="#64dd17" d="M-91.33,22.99c-3.93-0.08-7.56-0.73-10.62-1.79c-0.03-0.4-0.05-0.8-0.05-1.2c0-7.73,6-14,14-14 c6,0,7,1,7,1v8h-7.5c-2.49,0-4.5,2.01-4.5,4.5C-93,20.91-92.35,22.17-91.33,22.99z"/><path fill="#64dd17" d="M-80,19v2.52c-1.64,0.5-3.42,0.89-5.31,1.14c0.2-0.19,0.38-0.41,0.54-0.64L-86,22h-3v-3H-80z"/><path fill="#00897b" d="M-81,7v8h-7.5c-2.49,0-4.5,2.01-4.5,4.5c0,1.41,0.65,2.67,1.67,3.49c-3.93-0.08-7.56-0.73-10.62-1.79 c-0.03-0.4-0.05-0.8-0.05-1.2c0-7.73,6-14,14-14C-82,6-81,7-81,7z"/><path fill="#00897b" d="M-80,19v2.52c-1.64,0.5-3.42,0.89-5.31,1.14c0.2-0.19,0.38-0.41,0.54-0.64L-86,22h-3v-3H-80z"/><path fill="none" stroke="#004d40" stroke-linejoin="round" stroke-miterlimit="10" stroke-width="2" d="M-80,31.49 c-2.268,1.582-5.026,2.51-8,2.51c-7.732,0-14-6.268-14-14s6-14,14-14c6,0,7,1,7,1v8h-7h-0.5c-2.485,0-4.5,2.015-4.5,4.5 s2.015,4.5,4.5,4.5c1.553,0,2.923-0.787,3.731-1.984L-86,22h-3v-3h9v11L-80,31.49z"/><path fill="#0277bd" d="M-79.53 30.79L-82 40 -85 40 -86.61 34.5 -87.69 34.59 -87.93 31.6 -84.52 31.32 -83.37 34.72 -82.47 30.21z"/><path fill="#01579b" d="M-85 40L-82 40 -84 43 -87 43 -89 38 -91 38 -91 32 -87.93 31.6 -87.69 34.59 -86.61 34.5z"/><path fill="#01579b" d="M-93 40L-90 40 -92 43 -95 43 -95 38 -97 38 -97 35 -95 31 -95 34 -93 34z"/><path fill="#0277bd" d="M-88 31L-95 31 -95 34 -93 34 -93 40 -90 40 -90 34 -88 34z"/><path fill="#039be5" d="M-79.53 30.79l-1.1 4.12c-1.79.41-3.66.71-5.6.89l-.38-1.3-1.08.09-.24-2.99 3.41-.28 1.103 2.847.947-3.957L-79.53 30.79zM-88 31v3h-2v1.99C-90.17 36-90.33 36-90.5 36c-.84 0-1.68-.02-2.5-.07V34h-2v-3H-88z"/><path fill="#003d33" d="M-24-23.51c-2.268,1.582-5.026,2.51-8,2.51c-7.732,0-14-6.268-14-14c0-4,3-10,4-11L-24-23.51z"/><path fill="#00695c" d="M-21-27.51c-2.268,1.582-5.026,2.51-8,2.51c-7.732,0-14-6.268-14-14s6-14,14-14c6,0,7,1,7,1v8h-7 h-0.5c-2.485,0-4.5,2.015-4.5,4.5s2.015,4.5,4.5,4.5c1.553,0,2.923-0.787,3.731-1.984L-27-37h-3v-3h9v11L-21-27.51z"/><path fill="#64dd17" d="M-32.33-36.01c-3.93-0.08-7.56-0.73-10.62-1.79C-42.98-38.2-43-38.6-43-39c0-7.73,6-14,14-14 c6,0,7,1,7,1v8h-7.5c-2.49,0-4.5,2.01-4.5,4.5C-34-38.09-33.35-36.83-32.33-36.01z"/><path fill="#64dd17" d="M-21-40v2.52c-1.64,0.5-3.42,0.89-5.31,1.14c0.2-0.19,0.38-0.41,0.54-0.64L-27-37h-3v-3H-21z"/><path fill="#00897b" d="M-22-52v8h-7.5c-2.49,0-4.5,2.01-4.5,4.5c0,1.41,0.65,2.67,1.67,3.49 c-3.93-0.08-7.56-0.73-10.62-1.79C-42.98-38.2-43-38.6-43-39c0-7.73,6-14,14-14C-23-53-22-52-22-52z"/><path fill="#00897b" d="M-21-40v2.52c-1.64,0.5-3.42,0.89-5.31,1.14c0.2-0.19,0.38-0.41,0.54-0.64L-27-37h-3v-3H-21z"/><path fill="none" stroke="#004d40" stroke-linejoin="round" stroke-miterlimit="10" stroke-width="2" d="M-21-27.51 c-2.268,1.582-5.026,2.51-8,2.51c-7.732,0-14-6.268-14-14s6-14,14-14c6,0,7,1,7,1v8h-7h-0.5c-2.485,0-4.5,2.015-4.5,4.5 s2.015,4.5,4.5,4.5c1.553,0,2.923-0.787,3.731-1.984L-27-37h-3v-3h9v11L-21-27.51z"/><g><path fill="#0277bd" d="M-20.53 -28.21L-23 -19 -26 -19 -27.61 -24.5 -28.69 -24.41 -28.93 -27.4 -25.52 -27.68 -24.37 -24.28 -23.47 -28.79z"/></g><path fill="#01579b" d="M-26 -19L-23 -19 -25 -16 -28 -16 -30 -21 -32 -21 -32 -27 -28.93 -27.4 -28.69 -24.41 -27.61 -24.5z"/><path fill="#01579b" d="M-34 -19L-31 -19 -33 -16 -36 -16 -36 -21 -38 -21 -38 -24 -36 -28 -36 -25 -34 -25z"/><path fill="#0277bd" d="M-29 -28L-36 -28 -36 -25 -34 -25 -34 -19 -31 -19 -31 -25 -29 -25z"/><g><path fill="#039be5" d="M-20.53-28.21l-1.1,4.12c-1.79,0.41-3.66,0.71-5.6,0.89l-0.38-1.3l-1.08,0.09l-0.24-2.99l3.41-0.28 l1.103,2.847l0.947-3.957L-20.53-28.21z"/></g><path fill="#039be5" d="M-29-28v3h-2v1.99C-31.17-23-31.33-23-31.5-23c-0.84,0-1.68-0.02-2.5-0.07V-25h-2v-3H-29z"/></svg>