<svg xmlns="http://www.w3.org/2000/svg"  viewBox="0 0 48 48" width="1600px" height="1600px"><path fill="#a1887f" d="M23 18A14 14 0 1 0 23 46A14 14 0 1 0 23 18Z"/><path fill="#424242" d="M34,16c-1.94-0.485-4-2.273-4-5c0-1.364,0-1.637,0-3c0-3-3-5-6-5c-8,0-14,4-14,12 c0,4.142,2.697,8,7,8c1,0,3,0,4,0c8,0,10.125,1.7,11.083,2.545C36,29,35,33,37,33s3-4.858,3-9C40,19,38,17,34,16z"/><path fill="#424242" d="M24.995 35.997c-.321 0-.636-.155-.827-.442C24.049 35.375 23 33.71 23 30.5s1.049-4.875 1.168-5.055c.306-.46.925-.585 1.387-.277.457.305.582.92.282 1.379C25.812 26.589 25 27.92 25 30.5c0 2.609.829 3.941.838 3.954.294.462.164 1.081-.295 1.38C25.373 35.944 25.183 35.997 24.995 35.997zM19.995 35.997c-.321 0-.636-.155-.827-.442C19.049 35.375 18 33.71 18 30.5s1.049-4.875 1.168-5.055c.306-.46.925-.585 1.387-.277.457.305.582.92.282 1.379C20.812 26.589 20 27.92 20 30.5c0 2.609.829 3.941.838 3.954.294.462.164 1.081-.295 1.38C20.373 35.944 20.183 35.997 19.995 35.997zM24 43c-.553 0-1-.448-1-1 0-.551.445-.998.995-1 .179-.002 4.082-.101 6.099-4.423.233-.5.829-.716 1.329-.483.5.233.717.829.483 1.329C29.333 42.937 24.217 43 24 43z"/><g><path fill="#8d6e63" d="M30 31A1 1 0 1 0 30 33 1 1 0 1 0 30 31zM17 38A1 1 0 1 0 17 40 1 1 0 1 0 17 38zM21 38A1 1 0 1 0 21 40 1 1 0 1 0 21 38zM33 33A1 1 0 1 0 33 35 1 1 0 1 0 33 33zM29 34A1 1 0 1 0 29 36 1 1 0 1 0 29 34zM19 41A1 1 0 1 0 19 43 1 1 0 1 0 19 41z"/></g></svg>