<svg xmlns="http://www.w3.org/2000/svg"  viewBox="0 0 48 48" width="1600px" height="1600px"><path fill="#eee" d="M45,9.94v28.12c0,3.28-2.66,5.94-5.94,5.94H10.94C7.66,44,5,41.34,5,38.06V9.94	C5,6.66,7.66,4,10.94,4h28.12C42.34,4,45,6.66,45,9.94z"/><path fill="#212121" d="M13.516,24h-2.033C11.217,24,11,23.783,11,23.516V13.484C11,13.217,11.217,13,11.484,13h2.033	C13.783,13,14,13.217,14,13.484v10.033C14,23.783,13.783,24,13.516,24z"/><rect width="4" height="3" x="12.5" y="17" fill="#212121"/><path fill="#212121" d="M18.516,24h-2.033C16.217,24,16,23.783,16,23.516V13.484C16,13.217,16.217,13,16.484,13h2.033	C18.783,13,19,13.217,19,13.484v10.033C19,23.783,18.783,24,18.516,24z"/><path fill="#212121" d="M25.598,24h-1.197C22.523,24,21,22.477,21,20.598v-7.115C21,13.217,21.217,13,21.484,13h2.033	C23.783,13,24,13.217,24,13.484v6.791c0,0.4,0.325,0.725,0.726,0.725h0.549c0.4,0,0.726-0.325,0.726-0.725v-6.791	C26,13.217,26.217,13,26.484,13h2.033C28.783,13,29,13.217,29,13.484v7.115C29,22.477,27.477,24,25.598,24z"/><path fill="#212121" d="M33.516,13C33.783,13,34,13.217,34,13.484V23.83c0,1.983-1.123,3.711-2.773,4.572	c-0.232,0.121-0.521,0.011-0.638-0.223c-0.304-0.605-0.607-1.207-0.911-1.813c-0.116-0.232-0.026-0.511,0.201-0.637	C30.55,25.358,31,24.646,31,23.83V13.484C31,13.217,31.217,13,31.484,13H33.516z"/><path fill="#212121" d="M38.516,24h-2.033C36.217,24,36,23.783,36,23.516V13.484C36,13.217,36.217,13,36.484,13h2.033	C38.783,13,39,13.217,39,13.484v10.033C39,23.783,38.783,24,38.516,24z"/><path fill="#689f38" d="M45,32v6.06c0,3.28-2.66,5.94-5.94,5.94H10.94C7.66,44,5,41.34,5,38.06V32H45z"/><rect width="7" height="6" x="5" y="32" fill="#b71c1c"/><rect width="7" height="6" x="38" y="32" fill="#689f38"/><rect width="4" height="6" x="37" y="32" fill="#76b737"/><rect width="5" height="6" x="9" y="32" fill="#d84315"/><rect width="5" height="6" x="28" y="32" fill="#d6ff2c"/><rect width="4" height="6" x="33" y="32" fill="#a1d62d"/><rect width="6" height="6" x="13" y="32" fill="#ff6f00"/><rect width="5" height="6" x="17" y="32" fill="#ffa726"/><rect width="6" height="6" x="22" y="32" fill="#ffeb3b"/></svg>