<svg xmlns="http://www.w3.org/2000/svg"  viewBox="0 0 48 48" width="1600px" height="1600px"><path id="path3018_1_" fill="#00acc1" d="M0,14.9C0,13.3,1.2,12,3,12c1.9,0,3,1.4,3,3c0,1.8-1.3,2.9-2.9,2.9C1.2,17.9,0,16.6,0,14.9z"/><path id="path3020" fill="#00acc1" d="M0.1,21.5c0-0.3,0.2-0.5,0.5-0.5h5C5.8,21,6,21.3,6,21.5v7.7c0,1.4,1.2,3,3.7,3	c2.4,0,3.7-1.5,3.7-4.6v-0.6l2.6,4.9l0.3,1.7c0,0-2.5,2.4-7.1,2.4c-2.3,0-9.1-0.4-9.1-7.9L0.1,21.5L0.1,21.5z"/><path fill="#263238" d="M33.1,26.6l-3.7-1.9c0,0,0.7,1.2,0.7,2.6c0,2.9-2.3,4.7-5.6,4.7c-3.6,0-5.5-2.2-5.5-5.1v-3.3	c0,0,1.5,0.3,2.4,0.3l3.2,0c0.3,0,0.4-0.2,0.4-0.5v-2.9c0-0.3-0.1-0.5-0.5-0.5L19,20v-2.9h0v-2.3c0-0.8-0.3-1.8-2.9-1.8	c-2.4,0-3,0.8-3,1.7v0.9v1.5V27c0,4.2,3,6.5,3,6.5s2.5,2.5,7.9,2.5c7,0,9.4-4.9,9.4-4.9L33.1,26.6z"/><path fill="#78909c" d="M47.6,21l-2.8-0.9c-0.4-0.1-0.7,0-0.9,0.4c0,0-1.6,5.6-4.2,10.2c-4-7.4-5.6-9.8-5.6-9.8l0,0	c-0.4-0.7-0.9-1-1.6-1c-0.9,0-2.1,0.5-2.4,0.7c-1.5,0.9-1.9,1.5-1.9,2.4c0,0.6,0.2,0.9,0.5,1.4l4.3,6.8l2.1,3.1	c0.7,1,1.3,1.6,3.2,1.6c2.3,0,3.1-0.9,3.7-1.9c0,0,3.6-5.5,5.9-12.2C48.1,21.2,47.9,21.1,47.6,21z"/></svg>