<svg xmlns="http://www.w3.org/2000/svg"  viewBox="0 0 48 48" width="1600px" height="1600px"><path fill="#29b6f6" d="M46 24c0 .698-.268 1.396-.784 1.923l-6.992 7.05c-.182.182-.421.287-.679.287-.249 0-.497-.105-.679-.287l-6.849-6.916c-.373-.373-.373-.976 0-1.349l8.217-8.303c.363-.363 1.004-.363 1.358 0l5.624 5.672C45.732 22.603 46 23.302 46 24zM11 16.157v15.687c0 .373-.216.717-.54.87-.117.057-.234.086-.36.086-.225 0-.441-.096-.612-.258l-6.678-6.6C2.288 25.425 2 24.736 2 24c0-.746.288-1.435.81-1.951l6.678-6.59c.261-.258.648-.325.972-.172C10.784 15.43 11 15.774 11 16.157zM34.574 12.79L17.666 29.605c-.185.182-.439.287-.692.287-.127 0-.253-.029-.37-.077C16.244 29.672 16 29.318 16 28.936V9.145c0-.249.097-.497.283-.67l5.701-5.672C22.5 2.287 23.192 2 23.932 2c.731 0 1.423.287 1.939.803l8.702 8.647C34.944 11.823 34.944 12.417 34.574 12.79zM33.282 37.937l-7.357 7.27C25.408 45.713 24.715 46 23.974 46c-.732 0-1.424-.287-1.951-.794l-5.737-5.682c-.38-.373-.38-.966 0-1.339l8.616-8.523c.361-.363 1.015-.363 1.385 0l6.996 6.925C33.663 36.961 33.663 37.563 33.282 37.937z"/></svg>