<svg xmlns="http://www.w3.org/2000/svg"  viewBox="0 0 48 48" width="1600px" height="1600px"><path fill="#e57373" d="M6,10c0-2.209,1.791-4,4-4h28c2.209,0,4,1.791,4,4v28c0,2.209-1.791,4-4,4H10c-2.209,0-4-1.791-4-4 V10z"/><path fill="#212121" d="M40,10.5v27c0,1.381-1.119,2.5-2.5,2.5h-27C9.119,40,8,38.881,8,37.5v-27C8,9.119,9.119,8,10.5,8h27 C38.881,8,40,9.119,40,10.5z"/><path fill="#e57373" d="M30,30H17c-0.552,0-1-0.448-1-1V19c0-0.552,0.448-1,1-1h13c0.552,0,1,0.448,1,1v10 C31,29.552,30.552,30,30,30z M18,28h11v-8H18V28z"/><path fill="#e57373" d="M31 22L34 21 34 27 31 26 30 24z"/><path fill="#e57373" d="M34 20c-.552 0-1 .448-1 1v6c0 .552.448 1 1 1s1-.448 1-1v-6C35 20.448 34.552 20 34 20zM22 22.53v2.94c0 .411.499.665.89.454l2.876-1.553c.311-.168.311-.574 0-.742l-2.876-1.553C22.499 21.865 22 22.119 22 22.53zM18.528 17.998c-1.218 0-2.497-.901-3.138-2.339-.455-1.019-.516-2.124-.168-3.03.253-.66.717-1.167 1.306-1.429 1.438-.64 3.27.323 4.082 2.142.455 1.019 1.623 4.656 1.623 4.656L19.999 19C19.999 19 19 18 18.528 17.998zM17.492 11.998c-.193 0-.381.038-.559.116-.441.196-.667.583-.778.873-.25.651-.195 1.498.147 2.264 0 0 0 0 0 0 .587 1.316 1.827 2.047 2.763 1.635.441-.196.667-.583.778-.873.25-.651.195-1.498-.147-2.264C19.221 12.682 18.316 11.998 17.492 11.998zM24.404 29L29 37v0c0-1.981-.383-3.944-1.129-5.779L26.969 29H24.404z"/><path fill="#e57373" d="M21 13A1 1 0 1 0 21 15 1 1 0 1 0 21 13zM27 19l-2.234-1.002c0 0 1.168-3.638 1.623-4.656.812-1.819 2.643-2.782 4.082-2.142.589.261 1.053.769 1.306 1.429.348.907.287 2.012-.168 3.03-.641 1.438-1.919 2.339-3.138 2.339C28.148 17.998 27 19 27 19zM27.302 13.749c-.342.767-.397 1.613-.147 2.264.111.29.337.677.778.873.936.412 2.176-.318 2.763-1.635 0 0 0 0 0 0 .342-.767.397-1.613.147-2.264-.111-.29-.337-.677-.778-.873-.177-.079-.366-.116-.559-.116C28.682 11.998 27.778 12.682 27.302 13.749zM22.595 29l-4.596 8v0c0-1.981.383-3.944 1.129-5.779L20.03 29H22.595z"/><path fill="#e57373" d="M25.999 13A1 1 0 1 0 25.999 15A1 1 0 1 0 25.999 13Z"/></svg>