<svg xmlns="http://www.w3.org/2000/svg"  viewBox="0 0 48 48" width="1600px" height="1600px"><path fill="#ffeb3b" d="M6,42h36V6H6L6,42L6,42z"/><path fill="#fff59d" d="M9.266,37.145C8.173,37.469,7.084,37.799,6,38.138l0,0v2.822c1.351-0.372,2.703-0.757,4.052-1.156	l0,0c7.99-2.363,15.738-5.144,23.224-8.312l0,0C25.271,32.904,17.257,34.783,9.266,37.145 M12.516,32.377	C10.325,33.09,8.153,33.832,6,34.604l0,0v2.376c2.431-0.702,4.859-1.447,7.285-2.235l0,0c7.662-2.491,15.088-5.352,22.263-8.549l0,0	C27.865,27.831,20.177,29.886,12.516,32.377 M15.587,27.809C12.346,28.964,9.15,30.184,6,31.467l0,0v1.939	c3.458-1.053,6.913-2.193,10.362-3.422l0,0c7.359-2.624,14.485-5.581,21.365-8.842l0,0C30.336,22.967,22.946,25.186,15.587,27.809 M18.509,23.452C14.256,25.11,10.085,26.877,6,28.746l0,0v1.423c4.437-1.432,8.867-3.008,13.285-4.729l0,0	c7.072-2.759,13.919-5.816,20.519-9.146l0,0C32.691,18.312,25.583,20.694,18.509,23.452 M21.307,19.273	C16.07,21.502,10.965,23.889,6,26.421l0,0v0.84c5.372-1.849,10.736-3.908,16.076-6.18l0,0c6.806-2.896,13.388-6.06,19.732-9.464l0,0	C34.956,13.828,28.113,16.378,21.307,19.273 M24.012,15.242C17.809,18.119,11.801,21.204,6,24.48l0,0v0.2	c6.276-2.318,12.54-4.917,18.77-7.805l0,0c5.926-2.747,11.672-5.686,17.23-8.799l0,0V7.727	C35.986,9.971,29.984,12.475,24.012,15.242 M37.852,6c-3.752,1.679-7.497,3.458-11.229,5.341l0,0	c-6.326,3.189-12.438,6.584-18.327,10.158l0,0c6.376-2.608,12.739-5.505,19.065-8.695l0,0C31.675,10.629,35.89,8.358,40.002,6l0,0	H37.852z M32.014,6c-0.951,0.507-1.902,1.021-2.852,1.542l0,0c-6.104,3.345-12.001,6.863-17.682,10.533l0,0	c6.151-2.812,12.29-5.89,18.394-9.234l0,0c1.703-0.934,3.39-1.88,5.061-2.84l0,0H32.014z M27.985,6	c-4.574,2.807-9.024,5.702-13.345,8.673l0,0C19.938,11.975,25.228,9.084,30.494,6l0,0H27.985z M25.212,6	c-2.509,1.735-4.978,3.492-7.405,5.269l0,0C20.807,9.573,23.803,7.817,26.795,6l0,0H25.212z"/><path fill="#fff9c4" d="M33.611,18.153c-0.298,0.518-0.61,1.04-0.936,1.568c-4.369,2.021-8.827,3.939-13.39,5.718	c-3.665,1.428-7.34,2.732-11.019,3.961c0.319-0.688,0.67-1.394,1.052-2.115c3.024-1.328,6.078-2.62,9.192-3.834	C23.529,21.495,28.567,19.736,33.611,18.153z M15.587,27.809c-2.681,0.956-5.325,1.967-7.944,3.01	c-0.336,0.811-0.638,1.601-0.873,2.343c3.201-0.987,6.399-2.04,9.592-3.177c4.308-1.536,8.526-3.2,12.672-4.958	c0.491-0.65,0.966-1.298,1.421-1.944C25.492,24.482,20.532,26.046,15.587,27.809z M21.307,19.273	c-3.382,1.439-6.701,2.95-9.97,4.518c-0.422,0.676-0.822,1.343-1.198,2.002c3.988-1.454,7.969-3.024,11.936-4.712	c4.514-1.921,8.919-3.97,13.231-6.118c0.222-0.46,0.439-0.917,0.633-1.361C31.051,15.32,26.169,17.205,21.307,19.273z M12.516,32.377c-2.055,0.668-4.089,1.368-6.11,2.088c-0.225,0.915-0.356,1.756-0.389,2.51c2.426-0.701,4.849-1.444,7.269-2.23	c3.646-1.186,7.235-2.461,10.773-3.81c0.767-0.819,1.534-1.666,2.296-2.562C21.736,29.559,17.121,30.88,12.516,32.377z M9.266,37.145c-1.078,0.319-2.151,0.646-3.22,0.979c0.116,1.006,0.471,1.787,1.091,2.282c0.081,0.064,0.181,0.099,0.269,0.153	c0.882-0.249,1.765-0.494,2.646-0.755c2.093-0.619,4.167-1.27,6.227-1.946c1.487-1.045,3.055-2.326,4.661-3.814	C17.046,34.966,13.153,35.996,9.266,37.145z M30.494,6h-2.51c-1.013,0.622-1.996,1.263-2.997,1.893	c-1.128,0.939-2.284,1.995-3.451,3.148C24.529,9.42,27.516,7.744,30.494,6z M29.874,8.84c1.703-0.934,3.39-1.88,5.061-2.84h-2.921	c-0.951,0.507-1.902,1.021-2.852,1.542c-3.24,1.776-6.418,3.603-9.54,5.474c-0.624,0.671-1.248,1.362-1.869,2.085	C21.804,13.125,25.847,11.046,29.874,8.84z M27.362,12.804c3.552-1.792,7.02-3.663,10.437-5.579c0.038-0.43,0.047-0.835,0.025-1.211	c-3.743,1.675-7.478,3.45-11.2,5.328c-3.507,1.768-6.941,3.605-10.314,5.495c-0.093,0.115-0.187,0.223-0.28,0.339	c-0.406,0.509-0.794,1.018-1.179,1.526C19.032,16.856,23.205,14.899,27.362,12.804z M24.013,15.242	c-3.524,1.634-6.977,3.343-10.373,5.108c-0.449,0.629-0.88,1.254-1.294,1.875c4.152-1.662,8.296-3.437,12.423-5.351	c4.176-1.936,8.257-3.972,12.252-6.092c0.144-0.443,0.265-0.869,0.372-1.284C32.921,11.268,28.458,13.182,24.013,15.242z"/><path fill="#fafafa" d="M27.303,23.997c-0.342,0.449-0.684,0.899-1.042,1.346c-0.336,0.42-0.671,0.823-1.006,1.225	c-2.929,1.187-5.882,2.342-8.893,3.415c-2.394,0.853-4.792,1.645-7.191,2.411c0.305-0.805,0.682-1.681,1.122-2.608	c1.752-0.677,3.513-1.343,5.294-1.978C19.485,26.419,23.392,25.157,27.303,23.997z M24.013,15.242	c-2.133,0.989-4.232,2.013-6.316,3.053c-0.035,0.043-0.07,0.084-0.104,0.127c-0.648,0.812-1.247,1.603-1.819,2.382	c3.005-1.251,6.006-2.542,8.997-3.929c3.265-1.514,6.457-3.105,9.611-4.734c0.102-0.247,0.215-0.499,0.307-0.742	c0.124-0.323,0.232-0.628,0.333-0.923C31.343,11.975,27.671,13.547,24.013,15.242z M9.266,37.145	c-0.428,0.127-0.852,0.26-1.279,0.389c0.012,0.67,0.154,1.116,0.397,1.31C8.547,38.973,8.836,39,9.049,39	c1.606,0,4.324-1.332,7.564-3.87C14.162,35.761,11.713,36.422,9.266,37.145z M12.516,32.377c-1.275,0.415-2.531,0.86-3.793,1.296	c-0.334,1.042-0.535,1.933-0.641,2.687c1.736-0.519,3.471-1.052,5.204-1.615c2.125-0.691,4.225-1.421,6.313-2.169	c1.059-0.983,2.151-2.08,3.259-3.278C19.407,30.238,15.958,31.258,12.516,32.377z M26.624,11.341	c-1.773,0.894-3.527,1.806-5.264,2.733c-0.823,0.875-1.656,1.805-2.493,2.797c2.837-1.304,5.671-2.643,8.496-4.067	c2.798-1.411,5.534-2.882,8.243-4.375c0.127-0.579,0.199-1.076,0.23-1.498C32.759,8.338,29.686,9.796,26.624,11.341z M29.874,8.84	c1.703-0.934,3.39-1.88,5.061-2.84h-2.921c-0.951,0.507-1.902,1.021-2.852,1.542c-0.622,0.341-1.23,0.692-1.847,1.036	c-1.41,1.099-2.917,2.419-4.481,3.974C25.184,11.351,27.532,10.123,29.874,8.84z M21.307,19.273	c-2.202,0.937-4.37,1.914-6.522,2.908c-0.592,0.848-1.138,1.671-1.642,2.471c2.983-1.132,5.962-2.308,8.933-3.572	c3.484-1.482,6.885-3.061,10.246-4.683c0.345-0.622,0.664-1.235,0.966-1.84C29.285,16.015,25.29,17.579,21.307,19.273z M18.509,23.452c-2.089,0.815-4.145,1.672-6.189,2.544c-0.511,0.862-0.961,1.684-1.371,2.477c2.782-0.96,5.563-1.953,8.336-3.033	c3.406-1.328,6.735-2.754,10.031-4.222c0.491-0.714,0.956-1.424,1.401-2.131C26.641,20.422,22.569,21.869,18.509,23.452z"/><path fill="#212121" d="M-150.829,146.574c0.049,0.134,0.181,0.163,0.241,0.164 c0.148,0.001,0.189-0.086,0.176-0.169c-0.035-0.229-0.115-0.52-0.144-0.613c0-0.001-0.001-0.003-0.001-0.003 c-0.032-0.101-0.128-0.161-0.24-0.161c-0.114,0-0.183,0.072-0.173,0.163C-150.954,146.109-150.857,146.498-150.829,146.574 M-150.071,145.511c0.294,0.241,0.439,0.647,0.435,1.03c-0.005,0.368-0.316,0.717-0.858,0.717c-1.033,0-1.183-0.805-1.213-0.952 c-0.075-0.372,0.009-0.854,0.494-0.982C-150.894,145.239-150.393,145.248-150.071,145.511 M-147.793,147.205 c-0.287,0.085-0.643-0.056-0.818-0.299c0.017,0.075,0.036,0.163,0.056,0.264h-0.681l-0.399-1.824h0.678l0.226,1.034 c0.042,0.19,0.194,0.272,0.33,0.237c0.059-0.016,0.139-0.06,0.112-0.219l-0.23-1.052h0.67l0.306,1.404 C-147.477,147.06-147.731,147.186-147.793,147.205 M-154.247,147.582c0-0.058,0.013-0.261,0.381-0.261 c0.305,0,0.423,0.195,0.423,0.341c0,0.098-0.08,0.269-0.381,0.269C-154.101,147.931-154.247,147.746-154.247,147.582 M-154.019,145.346l0.409,1.834h-0.671l-0.409-1.834H-154.019z M-156.159,146.601l0.481-1.256h0.655l0.564,2.498l-0.675,0 l-0.285-1.271l-0.472,1.271h-0.684l-0.557-2.499h0.688C-156.366,145.746-156.261,146.169-156.159,146.601 M-153.692,145.346 l0.554,2.498l0.683,0l-0.298-1.328l0.552,0.666h0.764l-0.685-0.833l0.283-1.002h-0.681l-0.282,0.95l-0.223-0.95H-153.692z" transform="matrix(3.50667 0 0 -3.50667 557.995 550.364)"/></svg>