<svg xmlns="http://www.w3.org/2000/svg"  viewBox="0 0 48 48" width="1600px" height="1600px" baseProfile="basic"><path fill="#78909c" d="M12,24H4c0,10.353,7.907,18.892,18,19.899v-8.079C16.333,34.863,12,29.934,12,24z"/><path fill="#37474f" d="M4,24c0,3.542-1.552,6.721-4,8.919v9.399C7.055,39.225,12,32.184,12,24H4z"/><path fill="#c62828" d="M35.826,22h8.071C42.956,12.566,35.434,5.043,26,4.101v8.079C31.015,13.027,34.98,16.987,35.826,22z"/><path fill="#78909c" d="M35.826,26c-0.847,5.013-4.811,8.973-9.826,9.819v8.079C35.434,42.958,42.956,35.434,43.897,26	H35.826z"/><path fill="#37474f" d="M22,12.181V4.101C11.907,5.108,4,13.647,4,24h8C12,18.066,16.333,13.137,22,12.181z"/></svg>