<svg xmlns="http://www.w3.org/2000/svg"  viewBox="0 0 48 48" width="1600px" height="1600px"><path fill="#616161" d="M34.873,27.298l-3-8c-0.067-0.178-0.159-0.346-0.272-0.498l-6-8 c-0.018-0.024-0.043-0.042-0.062-0.066C27.542,10.082,29,8.221,29,6c0-2.761-2.239-5-5-5s-5,2.239-5,5 c0,2.218,1.454,4.076,3.453,4.731l-5.654,6.462l-5.497-4.712c-0.839-0.718-2.102-0.621-2.82,0.217 c-0.719,0.839-0.622,2.102,0.217,2.82l7,6c0.833,0.714,2.084,0.624,2.807-0.202L22,17.323v9.352l-5.897,17.692 c-0.349,1.048,0.217,2.18,1.265,2.53c1.044,0.35,2.181-0.216,2.53-1.265L24,33.325l4.103,12.308C28.382,46.471,29.162,47,30,47 c0.21,0,0.423-0.033,0.633-0.103c1.048-0.35,1.614-1.482,1.265-2.53L26,26.675V18l2.228,2.971l2.899,7.731 C31.428,29.505,32.19,30,33,30c0.233,0,0.471-0.041,0.702-0.128C34.736,29.485,35.261,28.332,34.873,27.298z"/><path fill="#d84315" d="M24 2A2 2 0 1 0 24 6 2 2 0 1 0 24 2zM33 26A2 2 0 1 0 33 30 2 2 0 1 0 33 26zM10 12A2 2 0 1 0 10 16 2 2 0 1 0 10 12zM17 18A2 2 0 1 0 17 22 2 2 0 1 0 17 18zM24 10A2 2 0 1 0 24 14 2 2 0 1 0 24 10zM30 18A2 2 0 1 0 30 22 2 2 0 1 0 30 18zM24 18A2 2 0 1 0 24 22 2 2 0 1 0 24 18zM30 43A2 2 0 1 0 30 47 2 2 0 1 0 30 43zM27 34A2 2 0 1 0 27 38 2 2 0 1 0 27 34zM21 34A2 2 0 1 0 21 38 2 2 0 1 0 21 34zM18 43A2 2 0 1 0 18 47 2 2 0 1 0 18 43z"/><path fill="#ef6c00" d="M24 26A2 2 0 1 0 24 30A2 2 0 1 0 24 26Z"/></svg>