<svg xmlns="http://www.w3.org/2000/svg"  viewBox="0 0 48 48" width="1600px" height="1600px"><path fill="#448aff" d="M24 8A16 16 0 1 0 24 40A16 16 0 1 0 24 8Z"/><path fill="#2979ff" d="M11,24c0-7.18,5.82-13,13-13s13,5.82,13,13c0,0-2-10-13-10S11,24,11,24z"/><path fill="#00b0ff" d="M11,24c0,7.18,5.82,13,13,13s13-5.82,13-13c0,0-4,4-13,4S11,24,11,24z"/><path fill="#40c4ff" d="M11,24c0,7.18,5.82,13,13,13s13-5.82,13-13c0,0-2,10-13,10S11,24,11,24z"/><path fill="#37474f" d="M24.001,4.052C12.956,4.052,4,13.005,4,24.052c0,11.044,8.956,20,20.001,20S44,35.096,44,24.052 C44,13.005,35.046,4.052,24.001,4.052z M24,37.052c-7.179,0-13-5.822-13-13c0-7.181,5.821-13,13-13c7.179,0,13,5.819,13,13 C37,31.231,31.18,37.052,24,37.052z"/><path fill="#37474f" d="M38.344,44H44v-5.656L26.828,21.172c-1.561-1.563-4.096-1.563-5.656,0 c-1.563,1.562-1.563,4.095,0,5.656L38.344,44z"/></svg>