<svg xmlns="http://www.w3.org/2000/svg"  viewBox="0 0 48 48" width="1600px" height="1600px" baseProfile="basic"><path fill="#8bc34a" d="M38.544,16.899C34.578,13.008,23.053,5,16,5c-3,0-6,1-8,6S6,24,6,24s0,8,2,13s5,6,8,6	c7.053,0,18.578-8.008,22.544-11.899C40.204,29.473,42,27.422,42,24C42,20.578,40.204,18.527,38.544,16.899z"/><path fill="#fff" d="M16.472,19.839c-0.296,2.881-0.296,5.441,0,8.322c0.209,2.031,2.321,3.298,4.187,2.469	c1.979-0.879,4.578-2.234,7.324-4.22c1.629-1.178,1.629-3.642,0-4.82c-2.746-1.986-5.345-3.342-7.324-4.22	C18.793,16.541,16.681,17.808,16.472,19.839z"/></svg>