<svg xmlns="http://www.w3.org/2000/svg"  viewBox="0 0 48 48" width="1600px" height="1600px"><path fill="#c22c7b" d="M21.93,6.12l-5.21,9.3L10.7,26.19l-0.33,0.58l-0.49,0.88l-2.19,3.91c-0.99-2.12-1.58-4.47-1.65-6.94	c-0.02-0.25-0.02-0.51-0.02-0.76c0-0.23,0.01-0.47,0.02-0.7c0.2-4.18,1.81-7.97,4.34-10.9C13.27,8.91,17.35,6.65,21.93,6.12z"/><path fill="#c22c7b" d="M31.48,10.11l-5.54,9.9l-6.03,10.77l-0.33,0.58l-4.52,8.09l-0.07,0.12l-1.1,1.95	c-2.84-1.66-5.18-4.06-6.75-6.94l4.12-7.36l0.33-0.58l6.03-10.77l4.39-7.84l0.03-0.06c0.01,0,0.01,0,0.02,0	c0.56-0.02,1.14-0.03,1.71,0C26.57,8.1,29.18,8.86,31.48,10.11z"/><path fill="#c22c7b" d="M40.06,15.84l-1.5,2.68l-3.4,6.09l-6.03,10.76l-0.32,0.59l-3.35,5.98h-0.01	c-0.75,0.06-1.5,0.08-2.27,0.04c-2.62-0.12-5.1-0.81-7.3-1.93h-0.01l0.06-0.11l4.55-8.13l0.33-0.58l6.02-10.77l6.61-11.8	C36.26,10.4,38.57,12.89,40.06,15.84z"/><path fill="#c22c7b" d="M40.91,26.79c-0.01,0.22-0.03,0.44-0.05,0.66c-0.36,4.38-2.27,8.28-5.17,11.19	c-0.17,0.17-0.34,0.33-0.52,0.49c-2.58,2.4-5.88,4.05-9.51,4.61c-0.03,0.01-0.05,0.01-0.08,0.01l1.09-1.95l3.03-5.4l0.32-0.58	l6.04-10.77l3.38-6.04l0.06-0.1c0.01,0.03,0.03,0.05,0.03,0.08C40.53,21.38,41.04,24.03,40.91,26.79z"/><rect width="7.18" height="1" x="19.737" y="4.161" fill="#c22c7b" transform="rotate(-60.908 23.328 4.661)"/><rect width="7.344" height="1" x="37.122" y="15.059" fill="#c22c7b" transform="rotate(-60.784 40.792 15.559)"/><polygon fill="#c22c7b" points="15.94,39.94 15.88,40.05 11.87,47.18 11,46.69 13.89,41.52 14.99,39.57 15.06,39.45 15.93,39.94"/><path fill="#a52b7a" d="M16.72,15.42L10.7,26.19l-0.33,0.58l-4.33-2.15c-0.02-0.25-0.02-0.51-0.02-0.76	c0-0.23,0.01-0.47,0.02-0.7c0.2-4.18,1.81-7.97,4.34-10.9L16.72,15.42z"/><polygon fill="#a52b7a" points="25.94,20.01 19.91,30.78 19.58,31.36 11.26,27.22 11.59,26.64 17.62,15.87"/><polygon fill="#a52b7a" points="35.16,24.61 29.13,35.37 28.81,35.96 20.48,31.81 20.81,31.23 26.83,20.46"/><path fill="#a52b7a" d="M35.69,38.64c2.9-2.91,4.81-6.81,5.17-11.19l-4.8-2.4l-6.04,10.77L29.7,36.4l5.47,2.73L35.69,38.64z"/><path fill="#762a88" d="M7.69,31.56c-0.99-2.12-1.58-4.47-1.65-6.94c-0.02-0.25-0.02-0.51-0.02-0.76l4.68,2.33l-0.33,0.58	l-0.49,0.88L7.69,31.56z"/><path fill="#762a88" d="M20.81,31.23l-0.33,0.58l-4.55,8.13l-0.87-0.49l4.52-8.09l0.33-0.58l-8.32-4.14l-0.33,0.58	l-4.12,7.36c1.57,2.88,3.91,5.28,6.75,6.94L11,46.69l0.87,0.49l4.01-7.13c2.2,1.12,4.68,1.81,7.3,1.93	c0.77,0.04,1.52,0.02,2.27-0.04h0.01l3.35-5.98l0.32-0.59L20.81,31.23z M35.17,39.13c-2.58,2.4-5.88,4.05-9.51,4.61	c-0.03,0.01-0.05,0.01-0.08,0.01l1.09-1.95l3.03-5.4l0.32-0.58l5.67,2.82L35.17,39.13z"/></svg>