<svg xmlns="http://www.w3.org/2000/svg"  viewBox="0 0 48 48" width="1600px" height="1600px"><path fill="#1565C0" d="M3,12v23h42V12H3z"/><path fill="#FFF" d="M13.728,33h-3.586L5.198,14h3.804l3.857,16.041c0,0,2.878-14.9,2.878-15.315c0-0.423-0.396-0.708-0.386-0.726C15.321,14.02,17,14,17,14l-3.484,18.032L13.728,33z M29.002,33L26,33.023v-6.838L24.294,27H22v6h-3v-5.973l-0.767-0.001l0.75-1.373L19,14h3l0.03,11H26V14h3v19H29.002z M34.607,19.169c0.392,0.493,6.533,4.859,7.117,5.671c0.604,0.828,0.904,1.804,0.904,2.94c0,1.5-0.432,2.909-1.498,3.912C40.089,32.69,38.629,33,37.002,33c0,0-5.443,0.009-5.551,0L31,31.746c0,0,7.252,0.41,8.064-0.831c0.539-0.808,0.53-1.329,0.53-2.257c0-0.838-0.276-1.563-0.845-2.188c-0.378-0.391-1.198-1.031-2.441-1.861l-2.197-1.458c-0.675-0.457-1.225-0.923-1.625-1.388c-0.767-0.911-1.148-1.937-1.148-3.029c0-1.445,0.455-2.676,1.352-3.636C33.641,14.087,35.023,14,36.354,14c0.209,0,6.688,0,6.688,0l-0.494,1.29c0,0-6.131-0.141-7.426,0.683c-0.516,0.325-1.064,0.814-1.064,1.529C34.057,18.164,34.235,18.707,34.607,19.169z"/></svg>