<svg xmlns="http://www.w3.org/2000/svg"  viewBox="0 0 48 48" width="1600px" height="1600px" baseProfile="basic"><path fill="#94def7" d="M27,30.5c-0.83,0-1.5,0.67-1.5,1.5v1.5c0,0.83,0.67,1.5,1.5,1.5h0.5c0.83,0,1.5-0.67,1.5-1.5v-3H27z M27,30.5c-0.83,0-1.5,0.67-1.5,1.5v1.5c0,0.83,0.67,1.5,1.5,1.5h0.5c0.83,0,1.5-0.67,1.5-1.5v-3H27z M45.09,33.64l-1.21-9.23	c-0.2-1.52-1.51-2.66-3.04-2.61c-6.72,0.19-13.31,0.73-19.75,1.63C18,24,16.34,21.04,15.64,20.02c-0.22-0.32-0.57-0.5-0.95-0.5	c-0.07,0-0.15,0.01-0.22,0.02c-0.61,0.11-1.01,0.69-0.91,1.3l0.6,3.71c-1.73,0.32-3.45,0.66-5.16,1.04v4.44	c0,0.36,0.43,0.54,0.68,0.29l2.47-2.47c0.64-0.64,1.68-0.64,2.33,0l0.04,0.05c0.65,0.64,0.65,1.68,0,2.33l-1.99,1.99	c-0.15,0.15-0.15,0.41,0,0.56l2.06,2.06c0.64,0.64,0.64,1.68,0,2.32c-0.32,0.32-0.75,0.49-1.17,0.49c-0.41,0-0.83-0.16-1.15-0.47	l-2.59-2.52C9.43,34.41,9,34.59,9,34.95v1.55C9,37.33,8.33,38,7.5,38S6,37.33,6,36.5V26.27c-0.15,0.04-0.3,0.07-0.45,0.11	c-1.48,0.36-2.44,1.79-2.24,3.3l1.21,9.27c0.2,1.52,1.52,2.66,3.06,2.61c10.15-0.33,20.31-1.53,30.48-3.59	c-0.15-0.02-0.3-0.05-0.44-0.08l-3.12-1.015c-0.79-0.25-1.23-1.09-0.97-1.88c0.25-0.79,1.09-1.22,1.88-0.97l3.04,0.985	c0.19,0.04,0.44-0.1,0.52-0.35c0.06-0.17,0.01-0.31-0.02-0.38c-0.04-0.07-0.12-0.2-0.29-0.25l-3.35-1.33	c-1.76-0.62-2.72-2.62-2.08-4.45c0.65-1.82,2.65-2.78,4.47-2.14l2.64,0.98c0.78,0.28,1.19,1.13,0.91,1.91	c-0.28,0.78-1.14,1.19-1.92,0.91l-2.63-0.97c-0.26-0.09-0.55,0.05-0.64,0.31c-0.06,0.17-0.01,0.31,0.02,0.38	c0.04,0.07,0.12,0.2,0.29,0.26l3.32,1.32c0.8,0.27,1.52,0.89,1.94,1.73c0.42,0.83,0.49,1.78,0.19,2.67	c-0.28,0.82-0.83,1.47-1.52,1.89c0.83-0.17,1.67-0.36,2.5-0.55C44.3,36.61,45.29,35.17,45.09,33.64z M20,36.5	c0,0.83-0.67,1.5-1.5,1.5S17,37.33,17,36.5v-6c0-0.83,0.67-1.5,1.5-1.5s1.5,0.67,1.5,1.5V36.5z M20,26.5c0,0.83-0.67,1.5-1.5,1.5	S17,27.33,17,26.5v-1c0-0.83,0.67-1.5,1.5-1.5s1.5,0.67,1.5,1.5V26.5z M32,33.5c0,2.48-2.02,4.5-4.5,4.5H27	c-2.48,0-4.5-2.02-4.5-4.5V32c0-2.48,2.02-4.5,4.5-4.5h2v-2c0-0.83,0.67-1.5,1.5-1.5s1.5,0.67,1.5,1.5V33.5z M25.5,32v1.5	c0,0.83,0.67,1.5,1.5,1.5h0.5c0.83,0,1.5-0.67,1.5-1.5v-3h-2C26.17,30.5,25.5,31.17,25.5,32z"/><path fill="#3d2d76" d="M21.5,23.5c-0.14-0.02-0.28-0.03-0.41-0.07"/><path fill="#034694" d="M14.923,9.257l-2.88,9.6C12.017,18.942,11.94,19,11.851,19H9.149c-0.088,0-0.166-0.058-0.192-0.143 l-2.88-9.6C6.039,9.129,6.135,9,6.269,9h2.582C8.94,9,9.017,9.058,9.043,9.143l1.266,4.219c0.057,0.19,0.326,0.19,0.383,0 l1.266-4.219C11.983,9.058,12.06,9,12.149,9h2.582C14.865,9,14.961,9.129,14.923,9.257z"/><path fill="#034694" d="M20.6,19H19.4c-2.15,0-3.9-1.75-3.9-3.9V12.9c0-2.15,1.75-3.9,3.9-3.9H20.6c2.15,0,3.9,1.75,3.9,3.9 V15.1C24.5,17.25,22.75,19,20.6,19z M19.4,12c-0.496,0-0.9,0.404-0.9,0.9V15.1c0,0.496,0.404,0.9,0.9,0.9H20.6 c0.496,0,0.9-0.404,0.9-0.9V12.9c0-0.496-0.404-0.9-0.9-0.9H19.4z"/><path fill="#034694" d="M30.6,19H29.4c-2.15,0-3.9-1.75-3.9-3.9V12.9c0-2.15,1.75-3.9,3.9-3.9H30.6c2.15,0,3.9,1.75,3.9,3.9 V15.1C34.5,17.25,32.75,19,30.6,19z M29.4,12c-0.496,0-0.9,0.404-0.9,0.9V15.1c0,0.496,0.404,0.9,0.9,0.9H30.6 c0.496,0,0.9-0.404,0.9-0.9V12.9c0-0.496-0.404-0.9-0.9-0.9H29.4z"/><path fill="#034694" d="M42,16.75c-0.013-0.089-0.056-0.317-0.219-0.285L41,16.625c-0.625,0-1-0.5-1-1V11.5h1.569 c0.103,0,0.189-0.078,0.199-0.18l0.21-2.1C41.99,9.102,41.897,9,41.779,9H40V6.736c0-0.124-0.111-0.218-0.233-0.197l-2.6,0.433 C37.071,6.988,37,7.072,37,7.169V9h-1.25c-0.11,0-0.2,0.09-0.2,0.2v2.1c0,0.11,0.09,0.2,0.2,0.2H37v4.375 c0,1.23,0.875,3.625,3.25,3.625c0.598,0,1.514-0.397,1.86-0.558c0.085-0.039,0.126-0.13,0.107-0.221 C42.218,18.721,42.07,17.241,42,16.75z"/></svg>