<svg xmlns="http://www.w3.org/2000/svg"  viewBox="0 0 48 48" width="1600px" height="1600px"><path fill="#212121" d="M42.473,16.341c-1.006-2.442-2.466-4.623-4.333-6.48c-1.862-1.873-4.045-3.333-6.482-4.336	C26.828,3.497,21.167,3.5,16.35,5.522c-2.443,1.007-4.626,2.467-6.484,4.335c-1.873,1.862-3.333,4.045-4.336,6.482	C4.514,18.754,4,21.33,4,23.996s0.514,5.242,1.525,7.651c1.007,2.443,2.467,4.626,4.335,6.484c1.862,1.873,4.045,3.333,6.482,4.336	c2.415,1.014,4.991,1.528,7.657,1.528s5.242-0.514,7.651-1.525c2.443-1.007,4.626-2.467,6.484-4.335	c1.873-1.862,3.333-4.045,4.336-6.482c1.016-2.415,1.53-4.991,1.53-7.657C44,21.331,43.486,18.755,42.473,16.341z M40.199,16.202	l-2.766,1.144c-0.047-0.095-0.094-0.19-0.143-0.283c-0.091-0.176-0.192-0.345-0.29-0.516c-0.114-0.198-0.229-0.395-0.352-0.588	c-0.131-0.207-0.268-0.41-0.409-0.61c-0.101-0.142-0.206-0.281-0.311-0.42c-0.163-0.215-0.327-0.43-0.502-0.636	c-0.047-0.055-0.098-0.108-0.145-0.163l2.117-2.117C38.53,13.272,39.468,14.674,40.199,16.202z M14.236,21.872	C14.084,22.559,14,23.269,14,23.996c0,0.73,0.084,1.441,0.236,2.124l-2.858,0.931c-0.023-0.095-0.051-0.19-0.072-0.286	c-0.032-0.148-0.062-0.296-0.089-0.445c-0.046-0.256-0.084-0.514-0.115-0.773c-0.015-0.127-0.034-0.253-0.045-0.38	C11.022,24.779,11,24.39,11,23.996s0.022-0.784,0.057-1.171c0.011-0.127,0.03-0.253,0.045-0.379c0.031-0.26,0.068-0.518,0.115-0.775	c0.027-0.148,0.057-0.296,0.089-0.443c0.021-0.096,0.049-0.191,0.072-0.286L14.236,21.872z M11.987,19.037	c0.003-0.006,0.004-0.013,0.007-0.019c0.147-0.353,0.313-0.695,0.488-1.031c0.079-0.152,0.166-0.299,0.252-0.447	c0.097-0.171,0.197-0.339,0.302-0.505c0.117-0.184,0.238-0.365,0.364-0.542c0.08-0.113,0.164-0.223,0.247-0.334	c0.15-0.198,0.301-0.396,0.462-0.585c0.037-0.044,0.078-0.085,0.116-0.128c0.405-0.463,0.841-0.9,1.309-1.301	c0.013-0.011,0.025-0.023,0.037-0.034c0.003-0.002,0.006-0.005,0.009-0.007l1.768,2.438c-1.069,0.959-1.924,2.137-2.49,3.43	L11.987,19.037z M14.859,28.02c0.569,1.298,1.423,2.474,2.489,3.43l-1.768,2.438c-0.002-0.002-0.005-0.004-0.007-0.006	c-0.027-0.023-0.052-0.049-0.079-0.072c-0.446-0.386-0.863-0.804-1.252-1.247c-0.044-0.05-0.092-0.098-0.135-0.149	c-0.16-0.188-0.309-0.384-0.458-0.58c-0.084-0.111-0.168-0.221-0.248-0.335c-0.127-0.179-0.249-0.362-0.366-0.547	c-0.102-0.161-0.199-0.325-0.293-0.49c-0.089-0.154-0.179-0.307-0.261-0.465c-0.16-0.309-0.311-0.624-0.448-0.948	c-0.014-0.032-0.029-0.063-0.042-0.095L14.859,28.02z M18.962,32.629c1.237,0.726,2.606,1.171,4.038,1.313v3.002	c-0.08-0.006-0.161-0.004-0.241-0.012c-0.036-0.003-0.071-0.009-0.107-0.013c-0.365-0.038-0.729-0.092-1.089-0.16	c-0.065-0.012-0.13-0.025-0.195-0.039c-0.348-0.072-0.693-0.158-1.035-0.258c-0.05-0.015-0.101-0.027-0.151-0.043	c-0.392-0.12-0.779-0.258-1.158-0.416c-0.358-0.149-0.705-0.317-1.045-0.494c-0.143-0.076-0.284-0.158-0.425-0.24	c-0.121-0.069-0.24-0.142-0.358-0.214L18.962,32.629z M19.568,38.323c0.085,0.026,0.171,0.047,0.256,0.072	c0.344,0.1,0.691,0.188,1.042,0.263c0.135,0.029,0.27,0.056,0.406,0.081c0.32,0.059,0.643,0.106,0.968,0.144	c0.134,0.016,0.267,0.035,0.402,0.047c0.119,0.011,0.24,0.009,0.359,0.018v2.994c-1.686-0.093-3.353-0.419-4.946-0.98L19.2,38.19	C19.324,38.232,19.443,38.284,19.568,38.323z M25,38.947c0.119-0.008,0.24-0.007,0.358-0.017c0.135-0.012,0.269-0.032,0.404-0.048	c0.324-0.038,0.647-0.085,0.966-0.143c0.136-0.025,0.271-0.052,0.406-0.081c0.351-0.075,0.698-0.163,1.042-0.263	c0.085-0.025,0.17-0.046,0.254-0.072c0.125-0.039,0.246-0.091,0.37-0.134l1.146,2.771c-1.591,0.561-3.258,0.888-4.946,0.98V38.947z M30.026,35.506c-0.342,0.179-0.691,0.348-1.052,0.497c-0.379,0.158-0.766,0.295-1.157,0.416c-0.05,0.015-0.1,0.028-0.15,0.042	c-0.341,0.1-0.685,0.186-1.032,0.257c-0.066,0.014-0.132,0.027-0.198,0.039c-0.36,0.068-0.722,0.122-1.086,0.159	c-0.037,0.004-0.073,0.009-0.109,0.013c-0.08,0.008-0.161,0.006-0.241,0.012v-3.002c1.432-0.141,2.8-0.586,4.036-1.312l1.762,2.429	c-0.122,0.075-0.244,0.15-0.369,0.221C30.295,35.356,30.162,35.435,30.026,35.506z M30.652,31.45c1.069-0.958,1.924-2.137,2.49-3.43	l2.871,0.935c-0.003,0.006-0.004,0.013-0.007,0.019c-0.147,0.353-0.313,0.695-0.488,1.031c-0.079,0.152-0.166,0.299-0.252,0.447	c-0.097,0.171-0.197,0.339-0.302,0.505c-0.117,0.184-0.238,0.365-0.364,0.542c-0.08,0.113-0.164,0.223-0.247,0.334	c-0.15,0.198-0.301,0.396-0.462,0.585c-0.037,0.044-0.078,0.085-0.116,0.128c-0.405,0.462-0.84,0.898-1.306,1.299	c-0.014,0.012-0.026,0.025-0.04,0.036c-0.003,0.002-0.006,0.004-0.009,0.007L30.652,31.45z M33.141,19.972	c-0.569-1.298-1.423-2.474-2.489-3.431l1.768-2.438c0.002,0.002,0.005,0.004,0.008,0.006c0.027,0.023,0.051,0.047,0.078,0.07	c0.445,0.385,0.861,0.801,1.249,1.243c0.046,0.052,0.095,0.102,0.141,0.155c0.158,0.186,0.306,0.38,0.453,0.574	c0.087,0.114,0.174,0.229,0.256,0.346c0.124,0.175,0.243,0.354,0.358,0.535c0.106,0.168,0.208,0.339,0.306,0.512	c0.084,0.147,0.17,0.292,0.249,0.442c0.175,0.336,0.341,0.677,0.488,1.031c0.003,0.006,0.005,0.013,0.007,0.02L33.141,19.972z M33.764,26.12C33.916,25.433,34,24.724,34,23.996c0-0.73-0.084-1.441-0.236-2.124l2.858-0.931c0.024,0.097,0.052,0.193,0.073,0.29	c0.032,0.145,0.061,0.291,0.088,0.437c0.047,0.257,0.084,0.516,0.115,0.777c0.015,0.127,0.034,0.252,0.045,0.38	C36.978,23.213,37,23.603,37,23.996s-0.022,0.783-0.057,1.171c-0.011,0.128-0.03,0.254-0.045,0.381	c-0.031,0.259-0.068,0.516-0.115,0.772c-0.027,0.149-0.057,0.297-0.089,0.445c-0.021,0.096-0.049,0.19-0.072,0.285L33.764,26.12z M31.794,7.797c1.527,0.731,2.929,1.668,4.189,2.802l-2.117,2.117c-0.054-0.047-0.105-0.097-0.159-0.143	c-0.232-0.197-0.474-0.381-0.717-0.563c-0.061-0.046-0.118-0.096-0.18-0.141c-0.037-0.027-0.077-0.05-0.115-0.077	c-0.222-0.158-0.448-0.311-0.679-0.457c-0.198-0.126-0.399-0.244-0.602-0.36c-0.153-0.087-0.302-0.177-0.458-0.259	c-0.101-0.053-0.202-0.106-0.304-0.157L31.794,7.797z M25,6.045c1.703,0.093,3.358,0.422,4.946,0.985l-1.141,2.76	c-0.134-0.045-0.269-0.087-0.404-0.129c-0.05-0.015-0.101-0.028-0.152-0.043c-0.401-0.119-0.808-0.22-1.219-0.304	c-0.069-0.014-0.138-0.028-0.208-0.041c-0.422-0.082-0.85-0.145-1.282-0.189c-0.033-0.003-0.067-0.009-0.1-0.012	C25.293,9.058,25.147,9.045,25,9.035V6.045z M25,11.045c0.058,0.004,0.118,0.003,0.176,0.009c0.118,0.011,0.235,0.028,0.352,0.042	c0.279,0.033,0.556,0.073,0.831,0.123c0.12,0.022,0.24,0.046,0.36,0.072c0.297,0.064,0.592,0.138,0.883,0.223	c0.081,0.023,0.162,0.044,0.242,0.068c0.382,0.119,0.76,0.253,1.132,0.409c0.357,0.148,0.703,0.316,1.042,0.493	c0.147,0.077,0.29,0.162,0.435,0.245c0.119,0.068,0.235,0.139,0.351,0.21l-1.766,2.426c-1.237-0.726-2.606-1.171-4.038-1.312	C25,14.053,25,11.045,25,11.045z M24,15.996c1.705,0,3.331,0.528,4.7,1.527c1.364,0.997,2.393,2.416,2.903,4.015	C31.867,22.31,32,23.137,32,23.996s-0.133,1.686-0.403,2.476c-0.504,1.581-1.533,3-2.897,3.996c-2.739,1.999-6.661,1.999-9.4,0	c-1.364-0.996-2.393-2.415-2.903-4.015C16.133,25.682,16,24.855,16,23.996s0.133-1.686,0.403-2.477c0.504-1.581,1.533-3,2.896-3.996	C20.669,16.524,22.295,15.996,24,15.996z M23,6.045v2.99c-0.147,0.01-0.292,0.023-0.438,0.037c-0.036,0.003-0.072,0.009-0.108,0.013	c-0.43,0.044-0.854,0.107-1.275,0.187c-0.071,0.013-0.141,0.028-0.212,0.042c-0.411,0.084-0.817,0.185-1.217,0.304	c-0.05,0.015-0.1,0.027-0.15,0.042c-0.136,0.042-0.271,0.084-0.406,0.129l-1.141-2.76C19.64,6.467,21.295,6.137,23,6.045z M17.976,12.485c0.342-0.178,0.69-0.347,1.05-0.496c0.372-0.155,0.75-0.289,1.132-0.409c0.078-0.024,0.158-0.044,0.237-0.067	c0.293-0.085,0.588-0.159,0.887-0.223c0.119-0.025,0.239-0.049,0.359-0.071c0.275-0.051,0.553-0.091,0.831-0.123	c0.117-0.014,0.234-0.031,0.352-0.042c0.058-0.005,0.118-0.004,0.176-0.009v3.006c-1.432,0.141-2.799,0.586-4.037,1.311	l-1.761-2.429c0.121-0.074,0.241-0.148,0.365-0.218C17.703,12.638,17.838,12.558,17.976,12.485z M16.206,7.797l1.142,2.762	c-0.104,0.052-0.207,0.106-0.31,0.16c-0.147,0.077-0.288,0.162-0.432,0.244c-0.211,0.121-0.421,0.244-0.627,0.375	c-0.228,0.144-0.45,0.295-0.669,0.45c-0.038,0.027-0.077,0.05-0.115,0.077c-0.062,0.045-0.119,0.096-0.18,0.141	c-0.246,0.184-0.49,0.369-0.724,0.568c-0.054,0.046-0.104,0.095-0.157,0.142l-2.118-2.118C13.275,9.467,14.676,8.53,16.206,7.797z M10.603,12.013l2.117,2.117c-0.047,0.054-0.096,0.105-0.142,0.159c-0.178,0.209-0.344,0.426-0.509,0.645	c-0.104,0.136-0.207,0.273-0.306,0.413c-0.142,0.201-0.279,0.404-0.41,0.612c-0.124,0.194-0.24,0.392-0.354,0.592	c-0.097,0.169-0.196,0.336-0.287,0.509c-0.05,0.095-0.097,0.191-0.145,0.286l-2.765-1.143C8.532,14.675,9.469,13.273,10.603,12.013z M7.034,18.05L9.8,19.194c-0.018,0.053-0.041,0.105-0.059,0.159c-0.013,0.039-0.021,0.08-0.034,0.119	c-0.055,0.173-0.101,0.349-0.15,0.524c-0.075,0.268-0.144,0.538-0.204,0.81c-0.036,0.167-0.07,0.334-0.101,0.502	c-0.055,0.299-0.098,0.599-0.134,0.902c-0.017,0.145-0.039,0.288-0.052,0.434c-0.011,0.117-0.019,0.235-0.027,0.353H6.048	C6.141,21.293,6.471,19.638,7.034,18.05z M6.049,24.996H9.04c0.008,0.118,0.016,0.235,0.027,0.352	c0.013,0.146,0.034,0.29,0.052,0.436c0.036,0.302,0.079,0.603,0.134,0.901c0.031,0.168,0.064,0.334,0.1,0.5	c0.06,0.273,0.129,0.542,0.204,0.81c0.049,0.175,0.095,0.351,0.15,0.525c0.012,0.038,0.02,0.077,0.033,0.114	c0.018,0.056,0.042,0.109,0.061,0.165l-2.766,1.144C6.471,28.356,6.141,26.701,6.049,24.996z M7.801,31.79l2.766-1.144	c0.047,0.094,0.093,0.188,0.142,0.281c0.092,0.178,0.195,0.349,0.294,0.522c0.113,0.196,0.227,0.391,0.348,0.581	c0.132,0.209,0.27,0.413,0.412,0.615c0.1,0.141,0.203,0.278,0.308,0.415c0.164,0.216,0.329,0.432,0.505,0.64	c0.047,0.055,0.097,0.107,0.145,0.162l-2.117,2.117C9.471,34.721,8.534,33.32,7.801,31.79z M14.134,35.276	c0.054,0.047,0.105,0.097,0.16,0.143c0.23,0.196,0.471,0.378,0.712,0.559c0.063,0.047,0.121,0.099,0.184,0.144	c0.038,0.028,0.079,0.051,0.118,0.079c0.22,0.157,0.444,0.308,0.672,0.453c0.202,0.129,0.407,0.249,0.614,0.367	c0.149,0.084,0.295,0.173,0.447,0.252c0.102,0.054,0.209,0.096,0.313,0.147l-1.15,2.78c-1.524-0.735-2.927-1.672-4.187-2.806	L14.134,35.276z M31.796,40.2l-1.149-2.778c0.105-0.052,0.213-0.094,0.317-0.149c0.145-0.076,0.284-0.16,0.426-0.24	c0.214-0.122,0.426-0.246,0.634-0.379c0.226-0.143,0.447-0.292,0.664-0.447c0.038-0.027,0.079-0.051,0.117-0.079	c0.063-0.045,0.121-0.097,0.183-0.144c0.244-0.183,0.487-0.367,0.72-0.565c0.054-0.046,0.104-0.096,0.158-0.142l2.118,2.118	C34.725,38.525,33.323,39.463,31.796,40.2z M37.397,35.979l-2.117-2.117c0.047-0.053,0.096-0.104,0.142-0.158	c0.178-0.209,0.344-0.427,0.51-0.646c0.104-0.136,0.206-0.272,0.305-0.412c0.142-0.201,0.279-0.404,0.411-0.612	c0.123-0.194,0.239-0.391,0.353-0.59c0.097-0.17,0.197-0.337,0.288-0.511c0.05-0.095,0.097-0.19,0.144-0.286l2.765,1.143	C39.468,33.317,38.531,34.719,37.397,35.979z M40.966,29.943L38.2,28.799c0.018-0.053,0.041-0.105,0.059-0.159	c0.013-0.039,0.021-0.08,0.034-0.119c0.055-0.174,0.102-0.35,0.151-0.526c0.075-0.267,0.144-0.536,0.204-0.807	c0.037-0.168,0.071-0.336,0.101-0.505c0.054-0.298,0.097-0.597,0.133-0.899c0.017-0.145,0.039-0.29,0.052-0.436	c0.01-0.117,0.019-0.235,0.027-0.353h2.991C41.859,26.699,41.529,28.354,40.966,29.943z M38.961,22.996	c-0.008-0.117-0.016-0.234-0.027-0.351c-0.013-0.148-0.035-0.293-0.052-0.44c-0.036-0.3-0.079-0.598-0.133-0.894	c-0.031-0.17-0.065-0.339-0.102-0.508c-0.059-0.27-0.128-0.537-0.202-0.803c-0.049-0.176-0.095-0.353-0.151-0.527	c-0.012-0.039-0.021-0.079-0.034-0.118c-0.018-0.055-0.041-0.107-0.06-0.161l2.766-1.144c0.562,1.586,0.892,3.242,0.985,4.947h-2.99	V22.996z"/></svg>