<svg xmlns="http://www.w3.org/2000/svg"  viewBox="0 0 48 48" width="1600px" height="1600px"><path fill="#f44336" d="M42,37c0,2.762-2.238,5-5,5H11c-2.761,0-5-2.238-5-5V11c0-2.762,2.239-5,5-5h26c2.762,0,5,2.238,5,5 V37z"/><path fill="#fff" d="M36.499,25.498c-0.276-0.983-1.089-1.758-2.122-2.021C32.506,23,24,23,24,23s-8.506,0-10.377,0.478 c-1.032,0.263-1.846,1.037-2.122,2.021C11,27.281,11,31,11,31s0,3.719,0.501,5.502c0.276,0.983,1.089,1.758,2.122,2.021 C15.494,39,24,39,24,39s8.505,0,10.377-0.478c1.032-0.263,1.846-1.037,2.122-2.021C37,34.719,37,31,37,31S37,27.281,36.499,25.498z"/><path fill="#f44336" d="M16.333 37L14.667 37 14.667 26.655 13 26.655 13 25 18 25 18 26.655 16.333 26.655zM23 37h-1.5l-.167-1.132C20.675 36.579 19.892 37 19.283 37c-.533 0-.908-.231-1.092-.653C18.083 36.083 18 35.687 18 35.092V27.5h1.667v7.757c.042.24.217.33.433.33.333 0 .867-.363 1.233-.843V27.5H23V37zM35 32.663v-2.701c0-.777-.192-1.338-.533-1.702-.458-.496-1.117-.76-1.942-.76-.842 0-1.492.264-1.967.76C30.2 28.623 30 29.218 30 29.995v4.593c0 .768.225 1.313.575 1.669C31.05 36.752 31.7 37 32.567 37c.858 0 1.533-.256 1.983-.785.2-.231.333-.496.392-.785C34.95 35.298 35 34.943 35 34.522h-1.667v.661c0 .38-.375.694-.833.694s-.833-.314-.833-.694v-2.52H35zM31.667 29.392c0-.388.375-.694.833-.694s.833.306.833.694v2.123h-1.667V29.392zM28.783 28.492c-.208-.646-.717-1.001-1.35-1.01-.808-.008-1.142.414-1.767 1.142V25H24v12h1.5l.167-1.034C26.192 36.611 26.875 37 27.433 37c.633 0 1.175-.331 1.383-.977.1-.348.175-.67.183-1.399V30.28C29 29.461 28.892 28.84 28.783 28.492zM27.333 34.41c0 .869-.2 1.167-.65 1.167-.258 0-.75-.174-1.017-.439v-5.686c.267-.265.758-.521 1.017-.521.45 0 .65.273.65 1.142V34.41z"/><path fill="#fff" d="M15 9l1.835.001 1.187 5.712.115 0 1.128-5.711 1.856-.001L19 16.893V21h-1.823l-.003-3.885L15 9zM21.139 14.082c0-.672.219-1.209.657-1.606.437-.399 1.024-.6 1.764-.601.675 0 1.225.209 1.655.63.429.418.645.96.645 1.622l.003 4.485c0 .742-.209 1.326-.63 1.752C24.812 20.788 24.234 21 23.493 21c-.714 0-1.281-.221-1.712-.656-.428-.435-.64-1.023-.641-1.76l-.003-4.503L21.139 14.082 21.139 14.082zM22.815 18.746c0 .236.057.423.178.553.115.128.279.193.495.193.221 0 .394-.066.524-.201.129-.129.196-.314.196-.547l-.003-4.731c0-.188-.069-.342-.201-.459-.131-.116-.305-.175-.519-.175-.199 0-.361.06-.486.176-.124.117-.186.271-.186.459L22.815 18.746zM32 12v9h-1.425l-.227-1.1c-.305.358-.622.63-.953.815C29.067 20.901 28.747 21 28.437 21c-.384 0-.671-.132-.866-.394-.195-.259-.291-.65-.291-1.174L27.276 12h1.653l.004 6.825c0 .204.036.355.106.449.066.09.183.14.335.14.124 0 .278-.062.46-.186.188-.122.358-.281.512-.471L30.344 12 32 12z"/></svg>