<svg xmlns="http://www.w3.org/2000/svg"  viewBox="0 0 48 48" width="1600px" height="1600px" baseProfile="basic"><path fill="#673ab7" d="M42,37c0,2.762-2.238,5-5,5H11c-2.761,0-5-2.238-5-5V11c0-2.762,2.239-5,5-5h26c2.762,0,5,2.238,5,5	V37z"/><path fill="#fff" d="M28.95,14H18.698c-0.443,0-0.834,0.292-0.959,0.717L15.59,22h-4.859c-0.459,0-0.859,0.312-0.97,0.757	l-0.5,2C9.103,25.389,9.58,26,10.231,26h4.179l-1.683,5.718C12.539,32.358,13.019,33,13.687,33H25.71c5.78,0,10.19-4.31,11.24-10	c0.07-0.36,0.1-0.72,0.1-1.08C37.05,18.09,33.52,14,28.95,14z M32.65,22.47l-0.5,1.98C31.49,27.13,29.09,29,26.33,29h-8.64l3.26-11	h8C31.12,18,33.18,20.37,32.65,22.47z"/></svg>