<svg xmlns="http://www.w3.org/2000/svg"  viewBox="0 0 48 48" width="1600px" height="1600px" baseProfile="basic"><path fill="#00d4ff" d="M22.9,22.635c-6.775,5.382-13.004,7.287-12.916,11.655c0.127,6.332,17.456,11.623,17.456,11.623	c0.833,0.407,1.071-0.861,0.436-1.537c-2.515-2.677-6.218-5.884-6.812-7.11c-1.013-2.089-2.343-7.091,3.229-11.46	S29.675,17.253,22.9,22.635z"/><path fill="#fc0977" d="M20.973,2.038c-1.03-0.268-1.173,0.66-0.473,1.462c2.395,2.748,5.289,6.569,5.818,7.363	c0.886,1.33,4.052,6.585-2.723,11.967s-4.369,7.535,1.203,3.166S39.331,17.819,37.875,12.5C36.467,7.359,25.687,3.266,20.973,2.038z"/><path fill="#212121" d="M21,2.125c-0.958-0.463-1.449,0.573-0.75,1.375c2.395,2.748,5.16,6.443,5.689,7.236	c0.886,1.33,3.736,6.458-3.039,11.84s-10.521,6.463-10.32,10.827c0.219,4.749,11.144,10.637,11.144,10.637l3.716,1.813	c0.833,0.407,1.686-0.479,0.686-1.479c-2.598-2.598-5.391-6.011-5.985-7.236c-1.013-2.089-2.849-6.838,2.723-11.207	S36.5,18.25,35.25,13.375C33.89,8.07,25.734,4.413,21,2.125z"/></svg>