<svg xmlns="http://www.w3.org/2000/svg"  viewBox="0 0 48 48" width="1600px" height="1600px"><path fill="#3F51B5" d="M42,37c0,2.762-2.238,5-5,5H11c-2.761,0-5-2.238-5-5V11c0-2.762,2.239-5,5-5h26c2.762,0,5,2.238,5,5V37z"/><path fill="#FFF" d="M16 14A2 2 0 1 0 16 18 2 2 0 1 0 16 14zM22.5 13A2.5 2.5 0 1 0 22.5 18 2.5 2.5 0 1 0 22.5 13zM30 12A3 3 0 1 0 30 18 3 3 0 1 0 30 12zM35 36v-8.5c0-3.037-2.463-5.5-5.5-5.5S24 24.463 24 27.5V36H35z"/><path fill="#FFF" d="M27,32v-7.16c0-2.12-1.79-3.84-4-3.84c-2.208,0-4,1.72-4,3.84V32H27z"/><path fill="#FFF" d="M20,29v-5.25c0-2.072-1.568-3.75-3.5-3.75c-1.934,0-3.5,1.678-3.5,3.75V29H20z"/></svg>