<svg xmlns="http://www.w3.org/2000/svg"  viewBox="0 0 48 48" width="1600px" height="1600px"><path fill="#455a64" d="M29.521,42.601C38.773,41.131,44,35.516,44,24.007c0-11.516-5.227-17.131-14.479-18.601 C27.817,5.133,25.972,5,24,5c-1.972,0-3.817,0.133-5.521,0.406C9.234,6.876,4,12.491,4,24.007c0,11.509,5.234,17.124,14.479,18.594 C20.183,42.874,22.028,43,24,43C25.972,43,27.817,42.874,29.521,42.601z M29.521,7.552C36.059,8.956,41.04,12.69,41.04,24 c0,8.595-2.722,12.523-7.08,14.865L32,23L25.517,7.047C26.874,7.113,28.225,7.273,29.521,7.552z M23,7.013 C23.254,7.007,23.746,7,24,7c0.247,0,0.746,0.007,1,0.013L25,21l-1.976,0.022L23,7.013z M6.999,24 c0-11.31,4.942-15.044,11.479-16.448c1.297-0.279,2.647-0.439,4.004-0.506L16,23l-1.96,15.865C9.682,36.523,6.999,32.595,6.999,24z M18.479,40.455c-1.404-0.306-2.754-0.745-4.011-1.364L23,23h2l8.532,16.091c-1.257,0.619-2.607,1.058-4.011,1.364 C27.743,40.834,25.872,40.993,24,41C22.128,40.993,20.257,40.834,18.479,40.455z"/></svg>