<svg xmlns="http://www.w3.org/2000/svg"  viewBox="0 0 48 48" width="1600px" height="1600px"><path fill="#ff6f00" d="M7.7 7.7H40.2V40.2H7.7z" transform="rotate(-45.001 24 24)"/><path fill="#000001" d="M24,44.2L3.8,24L24,3.8L44.2,24L24,44.2z M6.7,24L24,41.3L41.3,24L24,6.7L6.7,24z"/><path fill="#000001" d="M17.4 27h-2.7l-.5 2H12l3.1-10H17l3.1 10h-2.1L17.4 27zM15.1 25.3H17L16 21.7 15.1 25.3zM21 29V19h2.6c1.2 0 2.1.4 2.8 1.1.7.7 1 1.8 1.1 3v1.6c0 1.3-.3 2.3-1 3.1-.7.8-1.6 1.1-2.9 1.1H21zM23 20.7v6.6h.6c.7 0 1.1-.2 1.4-.5s.4-1 .4-1.8v-1.7c0-.9-.1-1.6-.4-2-.3-.4-.7-.6-1.3-.6L23 20.7 23 20.7zM33.9 24.8c.9-.6 1.4-1.5 1.4-2.8 0-.9-.3-1.7-.8-2.2S33.2 19 32.2 19H29v10h2v-3.6h1l1.4 3.6h2.2v-.1L33.9 24.8zM33 23.3c-.2.3-.5.4-.9.4H31v-3h1.1c.8 0 1.2.5 1.2 1.5C33.3 22.7 33.2 23 33 23.3z"/></svg>