<svg xmlns="http://www.w3.org/2000/svg"  viewBox="0 0 48 48" width="1600px" height="1600px"><path fill="#ffd54f" d="M24 4A20 20 0 1 0 24 44A20 20 0 1 0 24 4Z"/><path fill="#1a237e" d="M24 5A19 19 0 1 0 24 43A19 19 0 1 0 24 5Z"/><path fill="#ffd54f" d="M25.209 8.414c.294-.061.845-.373.845-1.03 0-.984-.886-1.298-1.442-1.298l-1.731-.021v3.852h1.174V8.619l.948 1.298 1.545.226L25.209 8.414zM24.406 7.857h-.371L24.014 6.93l.35-.021c.32 0 .546.217.556.453C24.931 7.599 24.767 7.857 24.406 7.857zM30.341 7.172c-.149-.029-.297-.043-.443-.044-.021 0-.042 0-.063.001-1.012.021-1.87.634-2.074 1.637-.205.999.703 2.181 1.812 2.433 1.204.273 2.326-.298 2.579-1.595C32.369 8.494 31.553 7.403 30.341 7.172zM29.771 10.157C29.186 10.046 28.897 9.48 29 8.943c.089-.469.424-.751.925-.749.071 0 .144.007.217.021.585.111.956.617.854 1.153C30.893 9.903 30.356 10.268 29.771 10.157zM15.692 8.146l-1.05.556.494 4.346 1.113-.824-.144-.659 1.215-.721.556.412 1.278-.515L15.692 8.146zM15.98 10.576l-.247-1.05.885.68L15.98 10.576zM35.323 10.082L32.027 12.369 32.995 13.13 34.581 11.895 33.777 13.892 34.189 14.283 36.209 13.46 34.993 15.108 35.735 16.158 38.062 12.821 37.321 11.936 35.426 12.698 36.188 10.782zM11.695 11.009L10.089 12.862 12.891 15.354 13.674 14.449 12.602 13.501 13.385 12.656 12.705 12.039 11.923 12.904 11.531 12.533 12.376 11.606zM39.896 15.891L36.394 17.312 37.383 19.62 38.309 19.228 37.795 18.053 38.228 17.848 38.722 18.98 39.566 18.63 39.093 17.538 39.504 17.353 39.998 18.527 40.864 18.178zM7.905 16.324L7.412 17.415 10.83 19.001 11.923 16.776 11.078 16.343 10.419 17.497zM39.875 20.587c-1.344 0-2.019 1.102-2.019 2.204s.798 2.205 2.019 2.205c1.221 0 2.039-.999 2.039-2.205C41.914 21.606 41.199 20.587 39.875 20.587zM39.901 23.801c-.58 0-.918-.489-.918-1.009s.325-1.009.918-1.009c.593 0 .938.554.938 1.009C40.839 23.236 40.48 23.801 39.901 23.801zM10.152 21.803l.185-1.339L6.32 21.782l-.144 1.194 3.811 2.06-.021-1.38-.576-.267.086-1.418L10.152 21.803zM8.524 22.988l-1.092-.506 1.14-.285L8.524 22.988z"/><path fill="#0277bd" d="M24.25,11.435c6.823,0.133,12.315,5.71,12.315,12.565S31.074,36.428,24.25,36.562V11.435z"/><path fill="#b71c1c" d="M19.198,12.25v10.051h4.663v2.967h-4.663v10.508c-1.078-0.445-2.082-1.031-2.988-1.736v-8.772h-4.858c-0.041-0.412-0.062-0.831-0.062-1.254c0-0.581,0.039-1.153,0.115-1.713c0.006-0.043,0.012-0.085,0.018-0.128c-0.006,0.043-0.012,0.085-0.018,0.128h4.804v-8.314C17.116,13.281,18.12,12.695,19.198,12.25z"/><path fill="#faf18e" d="M15.985 14.322c-.037.031-.074.062-.111.094C15.91 14.384 15.947 14.353 15.985 14.322zM11.506 25.363c.004.038.008.075.013.113C11.514 25.439 11.51 25.401 11.506 25.363zM15.873 33.583c.037.031.074.063.111.094C15.947 33.646 15.91 33.614 15.873 33.583z"/><path fill="#b71c1c" d="M27.431 15.667H31.753V16.27H27.431z"/><path fill="#ffd54f" d="M24,11.001c-7.173,0-13,5.827-13,13S16.827,37,24,37s13-5.826,13-12.999S31.173,11.001,24,11.001z M24.25,11.436c4.785,0.094,8.915,2.864,10.956,6.876c-0.026-0.035-0.053-0.07-0.08-0.104c-0.5-0.621-1.13-1.033-1.666-1.378c-0.043-0.027-0.093-0.041-0.143-0.04c-0.078,0.002-0.151,0.041-0.197,0.104c-0.125,0.173-0.361,0.317-0.668,0.317h-2.315c-0.116,0-0.227,0.032-0.322,0.101c-0.095,0.069-0.18,0.192-0.18,0.338v0.264c-0.001,0.002-0.003,0.006-0.013,0.013c-0.023,0.017-0.067,0.036-0.117,0.036H27.51l0.002-0.166v-0.002v-0.001c0-0.304-0.155-0.58-0.394-0.754l-0.004-0.003l-0.003-0.002l-0.872-0.591l-0.001-0.001l-0.001-0.001c-0.139-0.092-0.294-0.135-0.44-0.132c-0.049,0.001-0.097,0.008-0.143,0.019c-0.184,0.045-0.334,0.161-0.43,0.31c-0.193,0.297-0.149,0.766,0.223,1.032l0.409,0.313l0.003,0.003l0.003,0.002c0.086,0.062,0.134,0.136,0.134,0.156l-0.01,0.663v0.002v0.002c0,0.008-0.001,0.01-0.002,0.013c-0.011,0-0.033-0.003-0.079-0.018c-0.097-0.032-0.17-0.073-0.284-0.116s-0.26-0.077-0.449-0.077c-0.332,0-0.604,0.15-0.775,0.349c-0.06,0.07-0.109,0.144-0.147,0.222L24.25,11.436z M19.179,12.392v9.918h4.568v2.928h-4.568v10.369c-1.056-0.439-2.04-1.018-2.927-1.713v-8.656h-4.759c-0.04-0.407-0.06-0.82-0.06-1.237c0-0.573,0.039-1.138,0.113-1.691h4.706v-8.204C17.14,13.41,18.123,12.831,19.179,12.392z M27.698,14.324c-0.205,0-0.372,0.167-0.372,0.372s0.167,0.372,0.372,0.372s0.372-0.167,0.372-0.372C28.07,14.49,27.903,14.324,27.698,14.324z M28.645,14.324c-0.205,0-0.372,0.167-0.372,0.372s0.167,0.372,0.372,0.372s0.372-0.167,0.372-0.372C29.017,14.49,28.851,14.324,28.645,14.324z M29.592,14.324c-0.205,0-0.372,0.167-0.372,0.372s0.167,0.372,0.372,0.372s0.372-0.167,0.372-0.372S29.798,14.324,29.592,14.324z M30.539,14.324c-0.205,0-0.372,0.167-0.372,0.372s0.167,0.372,0.372,0.372s0.372-0.167,0.372-0.372S30.744,14.324,30.539,14.324z M31.486,14.324c-0.205,0-0.372,0.167-0.372,0.372s0.167,0.372,0.372,0.372s0.372-0.167,0.372-0.372S31.692,14.324,31.486,14.324z M27.431,15.296v0.603h4.322v-0.603H27.431z M27.431,16.107v0.603h4.322v-0.603H27.431z M25.811,16.81c0.04-0.002,0.086,0.008,0.149,0.05l0.87,0.59c0.108,0.079,0.18,0.225,0.18,0.343L27,18.608v0.001v0.002c0,0.321,0.162,0.594,0.372,0.785c0.124,0.113,0.265,0.201,0.417,0.256c-0.151,0.054-0.293,0.143-0.417,0.256C27.162,20.099,27,20.372,27,20.693v0.002v0.001l0.01,0.818c0,0.118-0.079,0.266-0.188,0.345l-0.864,0.586c-0.084,0.055-0.135,0.055-0.184,0.043c-0.049-0.012-0.096-0.046-0.129-0.096c-0.065-0.099-0.093-0.215,0.094-0.349l0.003-0.003l0.003-0.003l0.416-0.317c0.141-0.101,0.337-0.27,0.337-0.56v-0.002v-0.002l-0.01-0.667c0-0.142-0.051-0.303-0.195-0.412c-0.144-0.109-0.349-0.122-0.545-0.058c-0.14,0.046-0.232,0.095-0.305,0.123s-0.136,0.045-0.271,0.045c-0.189,0-0.306-0.071-0.393-0.173c-0.088-0.102-0.133-0.245-0.133-0.338v-0.05c0-0.093,0.045-0.236,0.133-0.338s0.204-0.173,0.393-0.173c0.135,0,0.197,0.017,0.271,0.045s0.165,0.077,0.305,0.123c0.196,0.064,0.402,0.051,0.545-0.058c0.144-0.109,0.195-0.273,0.195-0.415l0.01-0.663v-0.002v-0.002c0-0.291-0.203-0.464-0.344-0.565l-0.41-0.313l-0.003-0.003l-0.003-0.003c-0.187-0.134-0.159-0.249-0.094-0.349c0.032-0.05,0.08-0.084,0.129-0.096C25.785,16.813,25.797,16.811,25.811,16.81z M33.364,17.369c0.481,0.314,0.98,0.669,1.37,1.154c0.438,0.544,0.748,1.244,0.748,2.276c0,1.939-1.811,3.496-3.552,3.496h-4.209c-0.12,0-0.242,0.055-0.316,0.139c-0.074,0.085-0.104,0.187-0.103,0.285s0.032,0.198,0.106,0.281c0.073,0.083,0.194,0.139,0.314,0.139h4.109c1.477,0,2.265,0.951,2.265,2.073c0,1.094-0.818,2.122-2.255,2.122h-4.234c-0.103,0-0.212,0.047-0.279,0.121c-0.067,0.075-0.095,0.166-0.095,0.253c0.001,0.087,0.029,0.176,0.095,0.25c0.067,0.074,0.175,0.121,0.278,0.121h3.151c0.678,0,1.255,0.661,1.255,1.292c0,0.32-0.091,0.616-0.292,0.831s-0.523,0.371-1.063,0.371h-1.89c-0.075,0-0.155,0.016-0.227,0.069c-0.073,0.053-0.133,0.153-0.129,0.258c0.003,0.104,0.063,0.194,0.133,0.244s0.148,0.068,0.224,0.068h1.253c0.177,0,0.308,0.077,0.411,0.203c0.103,0.126,0.163,0.302,0.163,0.442c0,0.175-0.065,0.337-0.179,0.439c-0.074,0.066-0.177,0.111-0.317,0.123c0.007-0.072,0.008-0.154-0.04-0.253c-0.057-0.116-0.217-0.209-0.353-0.209h-0.752c-0.262,0-0.551-0.099-0.765-0.285c-0.214-0.186-0.36-0.451-0.36-0.831c0-0.35,0.146-0.599,0.354-0.778c0.207-0.179,0.483-0.273,0.686-0.273h1.848c0.083,0,0.165-0.014,0.243-0.062s0.158-0.147,0.158-0.27c0-0.124-0.081-0.223-0.158-0.27c-0.078-0.047-0.158-0.061-0.242-0.061h-2.896c-1.114,0-1.735-0.788-1.735-1.639c0-0.758,0.65-1.657,1.634-1.657h4.309c0.117,0,0.238-0.055,0.31-0.138c0.072-0.083,0.1-0.183,0.099-0.278s-0.03-0.192-0.101-0.275c-0.071-0.082-0.19-0.138-0.308-0.138h-4.389c-1.227,0-2.198-0.91-2.198-2.284c0-1.148,0.939-2.325,2.328-2.325h3.978c0.217,0,0.412-0.098,0.531-0.24s0.172-0.318,0.173-0.491s-0.051-0.35-0.17-0.493c-0.12-0.143-0.316-0.241-0.534-0.241h-4.245l-0.003-0.238c0-0.147,0.08-0.295,0.208-0.412s0.3-0.183,0.406-0.183h2.379c0.092,0,0.183-0.021,0.273-0.083s0.173-0.195,0.173-0.361c0-0.171-0.051-0.257-0.173-0.361c-0.09-0.062-0.181-0.083-0.273-0.083h-2.379c-0.105,0-0.278-0.067-0.406-0.183c-0.128-0.117-0.208-0.267-0.208-0.414l0.002-0.146h2.903c0.161,0,0.307-0.052,0.423-0.14c0.115-0.089,0.21-0.224,0.21-0.396v-0.215h1.412C32.818,17.714,33.136,17.577,33.364,17.369z M35.925,20.032c0.415,1.248,0.64,2.582,0.64,3.969c0,4.389-2.251,8.253-5.662,10.5c0.133-0.189,0.195-0.418,0.195-0.643c0-0.269-0.096-0.541-0.278-0.761c-0.007-0.009-0.016-0.017-0.023-0.025c0.572-0.028,1.007-0.221,1.29-0.524c0.306-0.327,0.428-0.758,0.428-1.174c0-0.615-0.345-1.208-0.866-1.534h0.191c1.684,0,2.757-1.272,2.757-2.625c0-1.147-0.746-2.175-1.987-2.481c1.782-0.335,3.374-1.938,3.374-3.932C35.985,20.526,35.964,20.271,35.925,20.032z M24.25,20.121c0.038,0.077,0.087,0.152,0.147,0.222c0.171,0.199,0.443,0.349,0.775,0.349c0.188,0,0.335-0.034,0.449-0.077s0.187-0.084,0.284-0.116c0.046-0.015,0.068-0.018,0.079-0.018c0.001,0.003,0.002,0.005,0.002,0.013v0.002v0.002l0.01,0.667c0,0.02-0.048,0.091-0.134,0.153l-0.003,0.002l-0.003,0.003l-0.415,0.318c-0.372,0.266-0.41,0.73-0.217,1.027c0.082,0.126,0.203,0.229,0.351,0.285c-0.403,0.504-0.633,1.134-0.633,1.767c0,1.396,0.905,2.454,2.106,2.72c-0.899,0.307-1.463,1.206-1.463,2.049c0,1.106,0.876,2.141,2.237,2.141h0.099c-0.022,0.017-0.045,0.034-0.066,0.052c-0.302,0.26-0.528,0.662-0.528,1.159c0,0.517,0.219,0.937,0.532,1.21s0.712,0.409,1.096,0.409h0.63c-0.013,0.046-0.028,0.089-0.028,0.089c-0.031,0.07-0.028,0.15,0.007,0.217c0.035,0.068,0.099,0.116,0.174,0.131c0.18,0.036,0.35,0.038,0.504,0.012c-1.771,1.015-3.813,1.612-5.991,1.655L24.25,20.121L24.25,20.121z M27.511,21.431h4.239c0.086,0,0.117,0.023,0.148,0.06c0.031,0.037,0.054,0.101,0.053,0.168c0,0.068-0.024,0.132-0.056,0.17s-0.064,0.06-0.146,0.06h-3.978c-0.121,0-0.239,0.008-0.355,0.022c0.061-0.123,0.095-0.259,0.095-0.401v0v-0.002V21.431z"/><path fill="#b71c1c" d="M25.811,16.81c0.04-0.002,0.086,0.008,0.149,0.05l0.87,0.59c0.108,0.079,0.18,0.225,0.18,0.343L27,18.608v0.001v0.002c0,0.321,0.162,0.594,0.372,0.785c0.124,0.113,0.265,0.201,0.417,0.256c-0.151,0.054-0.293,0.143-0.417,0.256C27.162,20.099,27,20.372,27,20.693v0.002v0.001l0.01,0.818c0,0.118-0.079,0.266-0.188,0.345l-0.864,0.586c-0.084,0.055-0.135,0.055-0.184,0.043c-0.049-0.012-0.096-0.046-0.129-0.096c-0.065-0.099-0.093-0.215,0.094-0.349l0.003-0.003l0.003-0.003l0.416-0.317c0.141-0.101,0.337-0.27,0.337-0.56v-0.002v-0.002l-0.01-0.667c0-0.142-0.051-0.303-0.195-0.412c-0.144-0.109-0.349-0.122-0.545-0.058c-0.14,0.046-0.232,0.095-0.305,0.123s-0.136,0.045-0.271,0.045c-0.189,0-0.306-0.071-0.393-0.173c-0.088-0.102-0.133-0.245-0.133-0.338v-0.05c0-0.093,0.045-0.236,0.133-0.338s0.204-0.173,0.393-0.173c0.135,0,0.197,0.017,0.271,0.045s0.165,0.077,0.305,0.123c0.196,0.064,0.402,0.051,0.545-0.058c0.144-0.109,0.195-0.273,0.195-0.415l0.01-0.663v-0.002v-0.002c0-0.291-0.203-0.464-0.344-0.565l-0.41-0.313l-0.003-0.003l-0.003-0.003c-0.187-0.134-0.159-0.249-0.094-0.349c0.032-0.05,0.08-0.084,0.129-0.096C25.785,16.813,25.797,16.811,25.811,16.81z"/><path fill="#2e7d32" d="M33.364,17.369c0.481,0.314,0.98,0.669,1.37,1.154c0.438,0.544,0.748,1.244,0.748,2.276c0,1.939-1.811,3.496-3.552,3.496h-4.209c-0.12,0-0.242,0.055-0.316,0.139c-0.074,0.085-0.104,0.187-0.103,0.285s0.032,0.198,0.106,0.281c0.073,0.083,0.194,0.139,0.314,0.139h4.109c1.477,0,2.265,0.951,2.265,2.073c0,1.094-0.818,2.122-2.255,2.122h-4.234c-0.103,0-0.212,0.047-0.279,0.121c-0.067,0.075-0.095,0.166-0.095,0.253c0.001,0.087,0.029,0.176,0.095,0.25c0.067,0.074,0.175,0.121,0.278,0.121h3.151c0.678,0,1.255,0.661,1.255,1.292c0,0.32-0.091,0.616-0.292,0.831s-0.523,0.371-1.063,0.371h-1.89c-0.075,0-0.155,0.016-0.227,0.069c-0.073,0.053-0.133,0.153-0.129,0.258c0.003,0.104,0.063,0.194,0.133,0.244s0.148,0.068,0.224,0.068h1.253c0.177,0,0.308,0.077,0.411,0.203c0.103,0.126,0.163,0.302,0.163,0.442c0,0.175-0.065,0.337-0.179,0.439c-0.074,0.066-0.177,0.111-0.317,0.123c0.007-0.072,0.008-0.154-0.04-0.253c-0.057-0.116-0.217-0.209-0.353-0.209h-0.752c-0.262,0-0.551-0.099-0.765-0.285c-0.214-0.186-0.36-0.451-0.36-0.831c0-0.35,0.146-0.599,0.354-0.778c0.207-0.179,0.483-0.273,0.686-0.273h1.848c0.083,0,0.165-0.014,0.243-0.062s0.158-0.147,0.158-0.27c0-0.124-0.081-0.223-0.158-0.27c-0.078-0.047-0.158-0.061-0.242-0.061h-2.896c-1.114,0-1.735-0.788-1.735-1.639c0-0.758,0.65-1.657,1.634-1.657h4.309c0.117,0,0.238-0.055,0.31-0.138c0.072-0.083,0.1-0.183,0.099-0.278s-0.03-0.192-0.101-0.275c-0.071-0.082-0.19-0.138-0.308-0.138h-4.389c-1.227,0-2.198-0.91-2.198-2.284c0-1.148,0.939-2.325,2.328-2.325h3.978c0.217,0,0.412-0.098,0.531-0.24s0.172-0.318,0.173-0.491s-0.051-0.35-0.17-0.493c-0.12-0.143-0.316-0.241-0.534-0.241h-4.245l-0.003-0.238c0-0.147,0.08-0.295,0.208-0.412s0.3-0.183,0.406-0.183h2.379c0.092,0,0.183-0.021,0.273-0.083s0.173-0.195,0.173-0.361c0-0.171-0.051-0.257-0.173-0.361c-0.09-0.062-0.181-0.083-0.273-0.083h-2.379c-0.105,0-0.278-0.067-0.406-0.183c-0.128-0.117-0.208-0.267-0.208-0.414l0.002-0.146h2.903c0.161,0,0.307-0.052,0.423-0.14c0.115-0.089,0.21-0.224,0.21-0.396v-0.215h1.412C32.818,17.714,33.136,17.577,33.364,17.369z"/><path fill="#fff" d="M23.747,11.436v10.371h-4.066v-9.612C20.954,11.73,22.321,11.464,23.747,11.436z M11.624,21.807h4.126v-7.285C13.628,16.37,12.132,18.919,11.624,21.807z M15.75,33.477V25.74h-4.197C11.978,28.814,13.518,31.533,15.75,33.477z M19.682,35.802c1.272,0.465,2.64,0.731,4.066,0.76V25.74h-4.066V35.802z"/></svg>