<svg xmlns="http://www.w3.org/2000/svg"  viewBox="0 0 48 48" width="1600px" height="1600px"><path fill="#b0bec5" d="M24,21l-6.27,8.06l3.73,0.82c0.34,0.08,0.69-0.03,0.93-0.27L24,28l1.61,1.61 c0.24,0.24,0.59,0.35,0.93,0.27l3.73-0.82L24,21z"/><polygon fill="#b0bec5" points="22,21 22,23 12,26 8.26,24.58 3.92,22.92"/><path fill="#b0bec5" d="M3.618,23L22,22v-1H2l0.724,1.447C2.893,22.786,3.239,23,3.618,23z"/><polygon fill="#cfd8dc" points="22,22 22,22 8.26,24.58 4.011,22.979"/><path fill="#cfd8dc" d="M16.102,28.689l-2.172-0.483c-0.588-0.131-1.086-0.519-1.355-1.058L12,26l12-5L16.102,28.689z"/><path fill="#cfd8dc" d="M24,21l-2.478,8.171c-0.076,0.385-0.454,0.632-0.837,0.548l-3.869-0.862L24,21z"/><path fill="#b0bec5" d="M24,21l-5.881,7.56c-0.237,0.305-0.629,0.446-1.007,0.362L14.05,28.24L24,21z"/><path fill="#90a4ae" d="M11.73,21c0.2,0.35,0.41,0.69,0.64,1.02c0.11,0.15,0.22,0.3,0.33,0.45 c0.01,0.01,0.01,0.02,0.02,0.03c0.18,0.24,0.37,0.47,0.57,0.69c0.11,0.13,0.22,0.26,0.34,0.38c0.4,0.43,0.84,0.84,1.3,1.21 c0.1,0.09,0.21,0.17,0.31,0.25l5.49-1.65L22,23v-1v-1H11.73z"/><path fill="#b0bec5" d="M22,22l-0.73,0.14l-7.64,1.43c-0.12-0.12-0.23-0.25-0.34-0.38c-0.2-0.22-0.39-0.45-0.57-0.69 c-0.01-0.01,0.01,0.01,0,0l8.82-0.48L22,22z"/><path fill="#b0bec5" d="M24,21v7c-0.67,0-1.32-0.04-1.96-0.14c-0.04,0-0.08,0-0.12-0.01c-0.94-0.13-1.86-0.36-2.73-0.67 c-0.79-0.28-1.55-0.62-2.27-1.03c-0.59-0.33-1.15-0.71-1.68-1.12c-0.1-0.08-0.21-0.16-0.31-0.25l6.34-2.64l0.14-0.06l0.13-0.05 v-0.01L22,21.83L24,21z"/><path fill="#90a4ae" d="M24,21l-4.81,6.18c-0.79-0.28-1.55-0.62-2.27-1.03l3.81-2.77L22,22.46L24,21z"/><path fill="#b0bec5" d="M22,21H11.73c-0.37-0.64-1.48-1.3-1.73-2h10c0.55,0,1.05,0.22,1.41,0.59C21.78,19.95,22,20.45,22,21 z"/><path fill="#cfd8dc" d="M11.73,21H1.31c-0.19,0-0.364-0.107-0.449-0.277L0.36,19.72C0.195,19.389,0.435,19,0.805,19h9.313 c0.411,0,0.769,0.257,0.929,0.635C11.246,20.104,11.474,20.557,11.73,21z"/><polygon fill="#b0bec5" points="26,21 26,23 36,26 39.74,24.58 44.08,22.92"/><path fill="#b0bec5" d="M44.382,23L26,22v-1h20l-0.724,1.447C45.107,22.786,44.761,23,44.382,23z"/><polygon fill="#cfd8dc" points="26,22 26,22 39.74,24.58 43.989,22.979"/><path fill="#cfd8dc" d="M31.898,28.689l2.172-0.483c0.588-0.131,1.086-0.519,1.355-1.058L36,26l-12-5L31.898,28.689z"/><path fill="#cfd8dc" d="M24,21l2.478,8.171c0.076,0.385,0.454,0.632,0.837,0.548l3.869-0.862L24,21z"/><path fill="#b0bec5" d="M24,21l5.881,7.56c0.237,0.305,0.629,0.446,1.007,0.362l3.062-0.682L24,21z"/><path fill="#90a4ae" d="M26,21v1v1l1.27,0.38l5.49,1.65c0.1-0.08,0.21-0.16,0.31-0.25c0.46-0.37,0.9-0.78,1.3-1.21 c0.12-0.12,0.23-0.25,0.34-0.38c0.2-0.22,0.39-0.45,0.57-0.69c0.01-0.01,0.01-0.02,0.02-0.03c0.11-0.15,0.22-0.3,0.33-0.45 c0.23-0.33,0.44-0.67,0.64-1.02H26z"/><path fill="#b0bec5" d="M26,22l0.73,0.14l7.64,1.43c0.12-0.12,0.23-0.25,0.34-0.38c0.2-0.22,0.39-0.45,0.57-0.69 c0.01-0.01-0.01,0.01,0,0l-8.82-0.48L26,22z"/><path fill="#b0bec5" d="M24,21v7c0.67,0,1.32-0.04,1.96-0.14c0.04,0,0.08,0,0.12-0.01c0.94-0.13,1.86-0.36,2.73-0.67 c0.79-0.28,1.55-0.62,2.27-1.03c0.59-0.33,1.15-0.71,1.68-1.12c0.1-0.08,0.21-0.16,0.31-0.25l-6.34-2.64l-0.14-0.06l-0.13-0.05 v-0.01L26,21.83L24,21z"/><path fill="#90a4ae" d="M24,21l4.81,6.18c0.79-0.28,1.55-0.62,2.27-1.03l-3.81-2.77L26,22.46L24,21z"/><path fill="#90a4ae" d="M24,21l-4.81,6.18c0.87,0.31,1.79,0.54,2.73,0.67c0.04,0.01,0.08,0.01,0.12,0.01 C22.68,27.96,23.33,28,24,28s1.32-0.04,1.96-0.14c0.04,0,0.08,0,0.12-0.01c0.94-0.13,1.86-0.36,2.73-0.67L24,21z"/><path fill="#b0bec5" d="M24,21l2.08,6.85c0.94-0.13,1.86-0.36,2.73-0.67L24,21z"/><path fill="#b0bec5" d="M26,21h10.27c0.37-0.64,1.48-1.3,1.73-2H28c-0.55,0-1.05,0.22-1.41,0.59C26.22,19.95,26,20.45,26,21 z"/><path fill="#cfd8dc" d="M36.27,21h10.42c0.19,0,0.364-0.107,0.449-0.277l0.501-1.003c0.165-0.331-0.075-0.72-0.445-0.72 h-9.313c-0.411,0-0.769,0.257-0.929,0.635C36.754,20.104,36.526,20.557,36.27,21z"/><path fill="#b0bec5" d="M24,21l-2.08,6.85c-0.94-0.13-1.86-0.36-2.73-0.67L24,21z"/><rect width="20" height="3" x="14" y="21" fill="#2e7d32"/><path fill="#fafafa" d="M15.639,21.546h-0.082l-0.839,1.876h0.227l0.003-0.011 c0.068-0.228,0.155-0.447,0.24-0.657c0,0,0.012-0.03,0.017-0.045c0.021,0,0.628,0,0.648,0c0.088,0.2,0.177,0.429,0.273,0.702 l0.004,0.01h0.314L15.639,21.546L15.639,21.546z M15.271,22.567c0.017-0.041,0.237-0.557,0.264-0.618 c0.026,0.061,0.25,0.577,0.268,0.618C15.758,22.567,15.314,22.567,15.271,22.567L15.271,22.567L15.271,22.567z"/><path fill="#fafafa" d="M16.537,23.288l0.007,0.007c0.099,0.108,0.322,0.159,0.443,0.159 c0.393,0,0.669-0.254,0.669-0.618c0-0.302-0.229-0.391-0.45-0.478c-0.196-0.078-0.383-0.15-0.383-0.373 c0-0.169,0.133-0.292,0.316-0.292c0.146,0,0.257,0.077,0.313,0.219l0.004,0.01h0.05l0.078-0.237l-0.009-0.008 c-0.107-0.096-0.271-0.131-0.388-0.131c-0.367,0-0.603,0.205-0.603,0.523c0,0.324,0.242,0.418,0.454,0.502 c0.192,0.074,0.372,0.146,0.372,0.368c0,0.206-0.154,0.369-0.35,0.369c-0.18,0-0.299-0.077-0.414-0.267l-0.005-0.007h-0.05 L16.537,23.288L16.537,23.288L16.537,23.288z"/><path fill="#fafafa" d="M19.135,21.585h-1.379v0.193l0.018-0.001c0.158-0.017,0.311-0.031,0.561-0.032 c0,0.033,0,1.683,0,1.683H18.6c0,0,0-1.65,0-1.683c0.187,0,0.366,0.011,0.534,0.031l0.019,0.002v-0.194L19.135,21.585 L19.135,21.585z"/><path fill="#fafafa" d="M20.086,21.546c-0.585,0-0.994,0.394-0.994,0.958c0,0.569,0.398,0.95,0.989,0.95 c0.611,0,1.023-0.398,1.023-0.99C21.104,21.829,20.592,21.546,20.086,21.546z M20.576,23.127c-0.13,0.138-0.293,0.208-0.488,0.208 c-0.428,0-0.705-0.313-0.705-0.798c0-0.537,0.28-0.871,0.73-0.871c0.212,0,0.412,0.093,0.536,0.249 c0.136,0.174,0.164,0.354,0.164,0.571c0.001,0.012,0.001,0.025,0.001,0.037C20.813,22.699,20.741,22.95,20.576,23.127 L20.576,23.127L20.576,23.127z"/><path fill="#fafafa" d="M22.941,21.585h-0.164c0,0,0,1.327,0,1.36c-0.002,0-0.002,0-0.003,0 c-0.009-0.011-1.255-1.36-1.255-1.36h-0.127v1.837h0.181c0,0,0-1.389,0-1.422c0.001,0,0.002,0,0.004,0 c0.01,0.011,1.136,1.257,1.136,1.257l0.141,0.165h0.008h0.096v-1.837H22.941L22.941,21.585L22.941,21.585z"/><path fill="#fafafa" d="M25.91,21.585h-0.065L25.4,22.392c0,0-0.281,0.513-0.307,0.559 c-0.275-0.458-0.522-0.94-0.732-1.358l-0.004-0.009h-0.093L24.261,21.6c-0.026,0.271-0.184,1.377-0.253,1.804l-0.003,0.018h0.223 v-0.016c0-0.259,0.046-0.645,0.095-1.054c0,0,0.021-0.181,0.029-0.253c0.031,0.06,0.377,0.716,0.509,0.986l0.149,0.308h0.05 l0.004-0.01c0.154-0.353,0.371-0.756,0.668-1.287c0.042,0.316,0.098,0.948,0.129,1.311l0.002,0.015h0.282l-0.003-0.018 c-0.064-0.446-0.133-1.035-0.214-1.804l-0.002-0.015L25.91,21.585L25.91,21.585L25.91,21.585z"/><path fill="#fafafa" d="M27.169,21.546h-0.082l-0.839,1.876h0.228l0.003-0.011c0.068-0.23,0.156-0.45,0.241-0.661 c0,0,0.011-0.026,0.016-0.04c0.021,0,0.628,0,0.649,0c0.089,0.204,0.181,0.439,0.273,0.702l0.004,0.01h0.314L27.169,21.546 L27.169,21.546L27.169,21.546z M26.801,22.567c0.017-0.041,0.237-0.557,0.264-0.618c0.026,0.061,0.25,0.577,0.268,0.618 C27.288,22.567,26.844,22.567,26.801,22.567z"/><path fill="#fafafa" d="M28.783,22.514c0.332-0.067,0.53-0.256,0.53-0.511c0-0.28-0.197-0.418-0.603-0.418h-0.576 v1.837h0.264c0,0,0-0.849,0-0.881c0.021,0,0.066,0,0.077,0c0.008,0.011,0.206,0.243,0.206,0.243 c-0.001-0.001,0.311,0.403,0.311,0.403l0.171,0.235h0.009h0.337C29.51,23.422,28.814,22.553,28.783,22.514L28.783,22.514 L28.783,22.514z M28.399,22.409c0-0.029,0-0.665,0-0.694c0.109-0.005,0.278-0.012,0.37,0.002c0.183,0.03,0.276,0.137,0.276,0.317 c0,0.184-0.121,0.319-0.325,0.36C28.604,22.418,28.466,22.414,28.399,22.409z"/><path fill="#fafafa" d="M30.842,21.585h-1.38v0.193l0.018-0.001c0.159-0.017,0.311-0.031,0.56-0.032 c0,0.033,0,1.683,0,1.683h0.266c0,0,0-1.65,0-1.683c0.186,0,0.366,0.011,0.533,0.031l0.019,0.002v-0.194L30.842,21.585 L30.842,21.585L30.842,21.585z"/><polygon fill="#fafafa" points="31.076,23.422 31.327,23.422 31.327,21.585 31.076,21.585"/><path fill="#fafafa" d="M33.101,21.585c0,0,0,1.327,0,1.36c-0.001,0-0.001,0-0.002,0 c-0.01-0.011-1.255-1.36-1.255-1.36h-0.127v1.837h0.181c0,0,0-1.389,0-1.422c0.001,0,0.002,0,0.003,0 c0.01,0.011,1.137,1.257,1.137,1.257l0.141,0.165h0.103v-1.837H33.101L33.101,21.585z"/></svg>