<svg xmlns="http://www.w3.org/2000/svg"  viewBox="0 0 48 48" width="1600px" height="1600px"><path fill="#b3bde2" d="M9 32c-4.4 0-8-3.6-8-8s3.6-8 8-8 8 3.6 8 8S13.4 32 9 32zM9 18c-3.3 0-6 2.7-6 6s2.7 6 6 6 6-2.7 6-6S12.3 18 9 18zM39 32c-4.4 0-8-3.6-8-8s3.6-8 8-8 8 3.6 8 8S43.4 32 39 32zM39 18c-3.3 0-6 2.7-6 6s2.7 6 6 6 6-2.7 6-6S42.3 18 39 18z"/><path fill="#b3bde2" d="M29,32c-4.4,0-8-3.6-8-8s3.6-8,8-8s8,3.6,8,8S33.4,32,29,32z M29,18c-3.3,0-6,2.7-6,6s2.7,6,6,6 s6-2.7,6-6S32.3,18,29,18z"/><path fill="#b3bde2" d="M19,32c-4.4,0-8-3.6-8-8s3.6-8,8-8s8,3.6,8,8S23.4,32,19,32z M19,18c-3.3,0-6,2.7-6,6s2.7,6,6,6 s6-2.7,6-6S22.3,18,19,18z"/><path fill="#8e9cd6" d="M14 20.7c.6 1 1 2.1 1 3.3s-.4 2.4-1 3.3c-.6-1-1-2.1-1-3.3S13.4 21.6 14 20.7M14 18.9l-.8 1.3C12.4 21.3 12 22.6 12 24s.4 2.7 1.2 3.9l.8 1.3.8-1.3c.8-1.2 1.2-2.5 1.2-3.9s-.4-2.7-1.2-3.9L14 18.9 14 18.9zM24 20.7c.6 1 1 2.1 1 3.3s-.4 2.4-1 3.3c-.6-1-1-2.1-1-3.3S23.4 21.6 24 20.7M24 18.9l-.8 1.3C22.4 21.3 22 22.6 22 24s.4 2.7 1.2 3.9l.8 1.3.8-1.3c.8-1.2 1.2-2.5 1.2-3.9s-.4-2.7-1.2-3.9L24 18.9 24 18.9zM34 20.7c.6 1 1 2.1 1 3.3s-.4 2.4-1 3.3c-.6-1-1-2.1-1-3.3S33.4 21.6 34 20.7M34 18.9l-.8 1.3C32.4 21.3 32 22.6 32 24s.4 2.7 1.2 3.9l.8 1.3.8-1.3c.8-1.2 1.2-2.5 1.2-3.9s-.4-2.7-1.2-3.9L34 18.9 34 18.9z"/></svg>