<svg xmlns="http://www.w3.org/2000/svg"  viewBox="0 0 48 48" width="1600px" height="1600px"><path fill="#c5cae9" d="M24,32c5,0,9-3.4,9-7.5S29,17,24,17s-9,3.4-9,7.5S19,32,24,32L24,32z"/><path fill="#b3bde2" d="M9.5,18c0.5,0,2.4,0.1,3.1,0.1s2.2,0,2.8-0.1c0.6,0,2.1-0.1,2.6,0s1.9,0.1,2.1,0.8 c0.2,0.6-0.3,1-0.6,1.2c-0.3,0.2-1.3,0.8-1.3,2.3c-0.3-0.1-0.6-0.2-0.4-0.7c0.1-0.3,0.9-1.3,0.7-1.7c-0.2-0.4-0.7-0.8-1.9-0.8 c-1.2,0-3,0-3.6-0.1s-2.9-0.7-3.4-0.8C9.4,18.1,9.4,18,9.5,18L9.5,18z"/><path fill="#7986cb" d="M24,33L24,33c-0.5,0-1-0.5-1-1l1-8l1,8C25,32.5,24.5,33,24,33z"/><path fill="#9fa8da" d="M21.8 32.7L21.8 32.7c-.5-.1-.9-.7-.7-1.2L24 24l-1 8C22.9 32.5 22.3 32.9 21.8 32.7zM26.2 32.7L26.2 32.7c-.5.1-1.1-.2-1.2-.7l-1-8 2.9 7.5C27.1 32 26.7 32.6 26.2 32.7z"/><path fill="#7986cb" d="M19.7 31.9L19.7 31.9c-.5-.3-.7-.9-.4-1.4L24 24l-2.9 7.5C20.8 32 20.2 32.2 19.7 31.9zM28.3 31.9L28.3 31.9c-.5.3-1.1.1-1.4-.4L24 24l4.7 6.6C28.9 31 28.8 31.7 28.3 31.9zM31 27c-.4 0-.8-.3-.9-.7 0-.1-.9-2.7-.9-5.8 0-.6.4-1 1-1s1 .4 1 1c0 2.8.8 5.1.8 5.1.2.5-.1 1.1-.6 1.3C31.2 27 31.1 27 31 27z"/><path fill="#9fa8da" d="M34,27c-0.3,0-0.5-0.1-0.7-0.3c-0.1-0.1-3-2.9-4-6.1c-0.2-0.5,0.1-1.1,0.6-1.3 c0.5-0.2,1.1,0.1,1.3,0.6c0.9,2.7,3.5,5.3,3.5,5.3c0.4,0.4,0.4,1,0,1.4C34.5,26.9,34.3,27,34,27z"/><path fill="#7986cb" d="M37,26c0,0-0.1,0-0.2,0c-0.1,0-3.4-0.6-6.7-5.4c-0.3-0.5-0.2-1.1,0.3-1.4c0.5-0.3,1.1-0.2,1.4,0.3 c2.8,4.1,5.3,4.6,5.3,4.6c0.5,0.1,0.9,0.6,0.8,1.1C37.9,25.7,37.5,26,37,26z"/><path fill="#9fa8da" d="M40,25c0,0-0.1,0-0.1,0c-0.2,0-4.3-0.6-8.5-4.2c-0.4-0.4-0.5-1-0.1-1.4c0.4-0.4,1-0.5,1.4-0.1 c3.8,3.2,7.4,3.8,7.5,3.8c0.5,0.1,0.9,0.6,0.9,1.1C40.9,24.6,40.5,25,40,25z"/><path fill="#7986cb" d="M41,23c-1.9-0.1-5.6-0.6-8.7-3.3c-0.4-0.4-0.5-1-0.1-1.4s1-0.5,1.4-0.1c2.6,2.3,5.7,2.7,7.4,2.8l2,0 c0,0,0,0,0,0c0.5,0,1,0.4,1,1c0,0.6-0.4,1-1,1L41,23z"/><path fill="#9fa8da" d="M45,21h-3.7c-2.9,0-4.2-0.2-6.6-1.1c-0.5-0.2-0.8-0.8-0.6-1.3c0.2-0.5,0.8-0.8,1.3-0.6 c2.1,0.7,3.2,0.9,5.9,1H45c0.6,0,1,0.4,1,1S45.6,21,45,21z"/><path fill="#c5cae9" d="M35,21h-5.4c-0.6,0-1-0.4-1-1s0.4-1,1-1H35c0.6,0,1,0.4,1,1S35.6,21,35,21z"/><path fill="#c5cae9" d="M34,23c-0.2,0-2.5,0-3.7-1.3c-0.4-0.4-0.4-1,0-1.4s1-0.4,1.4,0c0.6,0.6,1.9,0.7,2.3,0.7 c0.6,0,1,0.5,1,1C35,22.6,34.6,23,34,23z"/><path fill="#c5cae9" d="M32,25c-0.2,0-0.4-0.1-0.5-0.2c0,0-1.2-0.8-2.3-2.3c-0.3-0.4-0.2-1.1,0.2-1.4 c0.4-0.3,1.1-0.2,1.4,0.2c0.8,1.1,1.7,1.7,1.7,1.7c0.5,0.3,0.6,0.9,0.3,1.4C32.6,24.8,32.3,25,32,25z"/><path fill="#7986cb" d="M29 24c-.6 0-1-.4-1-1 0-.5.4-1 1-1 0-.3-.2-.7-.4-1.1C28.3 20.4 28 19.7 28 19c0-2 2.9-2 7-2 .6 0 12 0 12 0v2c0 0-11.4 0-12 0-1.3 0-4 0-4.9.3.1.2.2.5.3.8.3.6.6 1.2.6 1.9C31 23.3 30 24 29 24zM17 27c-.1 0-.2 0-.3-.1-.5-.2-.8-.8-.6-1.3 0 0 .8-2.4.8-5.1 0-.6.4-1 1-1s1 .4 1 1c0 3.1-.9 5.7-.9 5.8C17.8 26.7 17.4 27 17 27z"/><path fill="#9fa8da" d="M14,27c-0.3,0-0.5-0.1-0.7-0.3c-0.4-0.4-0.4-1,0-1.4c0,0,2.6-2.6,3.5-5.3c0.2-0.5,0.7-0.8,1.3-0.6 c0.5,0.2,0.8,0.7,0.6,1.3c-1.1,3.2-3.9,6-4,6.1C14.5,26.9,14.3,27,14,27z"/><path fill="#7986cb" d="M11,26c-0.5,0-0.9-0.4-1-0.9c-0.1-0.5,0.3-1,0.8-1.1c0.1,0,2.6-0.5,5.3-4.6c0.3-0.5,0.9-0.6,1.4-0.3 c0.5,0.3,0.6,0.9,0.3,1.4c-3.3,4.9-6.5,5.4-6.7,5.4C11.1,26,11,26,11,26z"/><path fill="#9fa8da" d="M8,25c-0.5,0-0.9-0.4-1-0.9c-0.1-0.5,0.3-1,0.9-1.1c0.1,0,3.8-0.6,7.5-3.8c0.4-0.4,1.1-0.3,1.4,0.1 c0.4,0.4,0.3,1-0.1,1.4C12.4,24.4,8.3,25,8.1,25C8.1,25,8,25,8,25z"/><path fill="#7986cb" d="M7,23l-2,0c-0.6,0-1-0.5-1-1c0-0.5,0.5-1,1-1c0,0,0,0,0,0l2,0c1.6-0.1,4.7-0.5,7.3-2.8 c0.4-0.4,1-0.3,1.4,0.1c0.4,0.4,0.3,1-0.1,1.4C12.6,22.5,8.9,23,7,23z"/><path fill="#9fa8da" d="M3,21c-0.6,0-1-0.4-1-1s0.4-1,1-1h3.7c2.7,0,3.8-0.2,5.9-1c0.5-0.2,1.1,0.1,1.3,0.6 c0.2,0.5-0.1,1.1-0.6,1.3c-2.4,0.8-3.6,1-6.6,1.1H3z"/><path fill="#c5cae9" d="M18.4,21H13c-0.6,0-1-0.4-1-1s0.4-1,1-1h5.4c0.6,0,1,0.4,1,1S19,21,18.4,21z"/><path fill="#c5cae9" d="M14,23c-0.6,0-1-0.4-1-1c0-0.6,0.4-1,1-1l0,0c0.4,0,1.7-0.1,2.3-0.7c0.4-0.4,1-0.4,1.4,0s0.4,1,0,1.4 C16.5,23,14.2,23,14,23z"/><path fill="#c5cae9" d="M16,25c-0.3,0-0.6-0.2-0.8-0.5c-0.3-0.5-0.2-1.1,0.3-1.4c0,0,0.9-0.6,1.7-1.7 c0.3-0.5,0.9-0.6,1.4-0.2c0.4,0.3,0.6,0.9,0.2,1.4c-1,1.5-2.2,2.2-2.3,2.3C16.4,24.9,16.2,25,16,25z"/><path fill="#7986cb" d="M19,24c-1,0-2-0.7-2-2c0-0.7,0.3-1.4,0.6-1.9c0.1-0.3,0.3-0.5,0.3-0.8C17,19,14.2,19,13,19 c-0.6,0-12,0-12,0v-2c0,0,11.4,0,12,0c4.1,0,7,0,7,2c0,0.7-0.3,1.4-0.6,1.9C19.2,21.3,19,21.7,19,22c0.6,0,1,0.4,1,1S19.6,24,19,24z"/><path fill="#212121" d="M24,29c3.3,0,6-2.2,6-5s-2.7-5-6-5s-6,2.2-6,5C18,26.8,20.7,29,24,29L24,29z"/><path fill="#fff" d="M27,22.1c0-0.8-0.7-2.1-3.1-2.1c-1.4,0-2.6,0.4-3.3,1.1c0.2,0.1,0.4,0.4,0.4,0.6v4.5 c0,0.3-0.2,0.5-0.4,0.7c0.7,0.5,1.8,1.1,3.6,1c1.8,0,3.4-0.6,3.4-2.3c0-0.7-0.7-1.4-1.5-1.7C26,24,26,23.9,26,23.8 c0-0.1,0-0.1,0.1-0.2C26.3,23.6,27,22.9,27,22.1L27,22.1z"/><path fill="#212121" d="M24 23c.6 0 1-.4 1-1s-.4-1-1-1-1 .4-1 1S23.4 23 24 23L24 23zM24 24A1 1.5 0 1 0 24 27 1 1.5 0 1 0 24 24z"/></svg>