<svg xmlns="http://www.w3.org/2000/svg"  viewBox="0 0 48 48" width="1600px" height="1600px"><path fill="#37474f" d="M24,44C12.972,44,4,35.028,4,24S12.972,4,24,4s20,8.972,20,20S35.028,44,24,44z"/><path fill="#fff" d="M34.476,24c0-5.787-4.69-10.476-10.476-10.476S13.524,18.213,13.524,24S18.213,34.476,24,34.476S34.476,29.787,34.476,24L34.476,24z"/><path fill="#448aff" d="M24 14c-5.459.141-9.859 4.542-10 10h10V14L24 14zM24 34.002c5.459-.143 9.859-4.544 10-10.002H24V34.002L24 34.002z"/><path fill="#cfd8dc" d="M15.57 13.194c-.07-.493-.368-.909-.825-1.116-.458-.208-.99-.13-1.394.154-.033.025-.064.053-.094.078.067-.229.087-.461.03-.692-.054-.229-.174-.438-.343-.602-.342-.335-.862-.444-1.31-.277-.21.08-.4.216-.541.39-.08.101-.159.199-.241.302-.419.522-.838 1.045-1.256 1.567-.36.45-.718.9-1.079 1.349-.024.029-.047.062-.07.09-.002 0 .046.037.05.039.14.113.278.224.418.335.528.424 1.054.847 1.583 1.269.521.419 1.045.837 1.568 1.255.133.108.267.214.4.319.004.007.036.037.041.03.027-.033.053-.068.079-.099.359-.449.719-.896 1.076-1.345.43-.539.86-1.073 1.29-1.611.222-.275.467-.539.572-.884C15.579 13.564 15.589 13.379 15.57 13.194L15.57 13.194 15.57 13.194zM10.943 14.708c-.218-.172-.435-.348-.652-.522-.083-.066-.166-.131-.249-.199-.003-.002.086-.109.091-.115.404-.508.81-1.013 1.215-1.519.107-.131.203-.275.367-.341.223-.094.487-.035.65.144.13.144.174.341.132.53-.049.169-.168.291-.273.424-.212.268-.427.534-.639.8C11.37 14.174 11.155 14.439 10.943 14.708L10.943 14.708 10.943 14.708zM14.154 14.086c-.138.171-.274.342-.412.514-.377.472-.755.944-1.132 1.414-.002.002-.011.018-.015.016-.02-.016-.038-.033-.057-.048-.104-.082-.206-.163-.309-.245-.178-.144-.357-.288-.534-.43.342-.428.686-.855 1.027-1.283.168-.21.334-.417.501-.627.119-.148.27-.255.468-.261.238-.006.446.131.547.344C14.323 13.688 14.294 13.911 14.154 14.086L14.154 14.086zM36.51 11.01L35.549 10.118 32.421 14.226 33.383 15.118 36.812 13.548 34.529 16.55 35.19 17.684 39.882 15.53 39.22 14.394 36.511 15.636 38.436 13.11 37.593 12.059 34.708 13.383zM22.47 7.709L23.568 11.175 24.433 11.175 25.529 7.709 25.644 11.175 26.857 11.369 26.684 6.169 25.126 5.973 24.001 9.635 22.874 5.973 21.316 6.169 21.143 11.369 22.355 11.175z"/><path fill="#fff" d="M24,35c-6.066,0-11-4.934-11-11s4.934-11,11-11s11,4.934,11,11S30.066,35,24,35z M24,15c-4.963,0-9,4.037-9,9s4.037,9,9,9c4.962,0,9-4.037,9-9S28.962,15,24,15z"/></svg>