<svg xmlns="http://www.w3.org/2000/svg"  viewBox="0 0 48 48" width="1600px" height="1600px"><path fill="#1565c0" d="M37,17c0,11-4,15-4,15s-4-4-4-15v-6h8V17z"/><path fill="#093e8c" d="M30,13.979c0,1.051,0,2.642,0,5.026l5.273,6.76c0.314-1.195,0.561-2.585,0.667-4.149L30,13.979z"/><path fill="#c5cae9" d="M29.2 11L30 12 37 21 37 26 29.2 16z"/><path fill="#8e9cd6" d="M28.021,9c0,0.75,0,2.979,0,8.979c0,12,5,16,5,16s5-4,5-16V11L36,9H28.021z M36.021,19.979 c0,7-3,11-3,11s-3-4-3-11s0-8,0-8h6C36.021,11.979,36.021,12.979,36.021,19.979z"/><path fill="#7986cb" d="M33,12h3c0,0,0,1,0,8s-3,11-3,11v3c0,0,5-4,5-16v-7l-2-2h-3V12z"/><path fill="#c5cae9" d="M28.021 9L30 12 36 12 37 10.5 37 9z"/><path fill="#eceff1" d="M28,21c0,11-4,15-4,15s-4-4-4-15v-6h8V21z"/><path fill="#78909c" d="M21,17.979c0,1.051,0,2.642,0,5.026l5.273,6.76c0.314-1.195,0.561-2.585,0.667-4.149L21,17.979z"/><path fill="#c5cae9" d="M20.2 15L21 16 28 25 28 30 20.2 20z"/><path fill="#eceff1" d="M28,21c0,11-4,15-4,15s-4-4-4-15v-6h8V21z"/><path fill="#78909c" d="M21,17.979c0,1.051,0,2.642,0,5.026l5.273,6.76c0.314-1.195,0.561-2.585,0.667-4.149L21,17.979z"/><path fill="#c5cae9" d="M20.2 15L21 16 28 25 28 30 20.2 20z"/><path fill="#8e9cd6" d="M19,13c0,0.75,0,3,0,9c0,12,5,16,5,16s5-4,5-16v-9H19z M27,24c0,7-3,11-3,11s-3-4-3-11s0-8,0-8h6 C27,16,27,17,27,24z"/><path fill="#7986cb" d="M24,16h3c0,0,0,1,0,8s-3,11-3,11v3c0,0,5-4,5-16v-9h-5V16z"/><path fill="#c5cae9" d="M19 13L21 16 27 16 29 13z"/><path fill="#d50000" d="M19,24.979c0,11-4,15-4,15s-4-4-4-15v-6h8V24.979z"/><path fill="#900" d="M12,21.958c0,1.051,0,2.642,0,5.026l5.273,6.76c0.314-1.195,0.561-2.585,0.667-4.149L12,21.958z"/><path fill="#c5cae9" d="M11.2 18.979L12 19.979 19 28.979 19 33.979 11.2 23.979z"/><path fill="#8e9cd6" d="M20,17H10c0,0.75,0,3,0,9c0,6.416,1.428,10.528,2.759,12.982c0.966,0.791,2.011,1.488,3.12,2.082 C17.312,39.294,20,34.807,20,26V17z M18,28c0,7-3,11-3,11s-3-4-3-11s0-8,0-8h6C18,20,18,21,18,28z"/><path fill="#7986cb" d="M20,17h-5v3h3c0,0,0,1,0,8s-3,11-3,11v1.543c0.291,0.176,0.578,0.36,0.879,0.521 C17.312,39.294,20,34.807,20,26V17z"/><path fill="#c5cae9" d="M24,4C12.954,4,4,12.954,4,24c0,11.046,8.954,20,20,20c11.046,0,20-8.954,20-20 C44,12.954,35.046,4,24,4z M24,42c-9.941,0-18-8.059-18-18c0-9.941,8.059-18,18-18c9.941,0,18,8.059,18,18 C42,33.941,33.941,42,24,42z"/><path fill="#9fa8da" d="M24,6c9.941,0,18,8.059,18,18c0,9.941-8.059,18-18,18c-2.485,0-4.853-0.504-7.006-1.415 c-3.23-1.366-5.979-3.649-7.919-6.521C7.133,31.191,6,27.728,6,24c0,11.046,6.954,20,18,20c11.046,0,20-8.954,20-20 C44,12.954,35.046,6,24,6z"/><path fill="#c5cae9" d="M10 17L12 20 18 20 20 17z"/></svg>