<svg xmlns="http://www.w3.org/2000/svg"  viewBox="0 0 48 48" width="1600px" height="1600px" clip-rule="evenodd"><path fill="#c5cae9" fill-rule="evenodd" d="M24.039,7L0,10l4.021,7l0.726,11.905 c0.051,1.04,0.166,2.105,0.455,3.108c0.33,1.144,0.937,2.231,1.874,2.983c0.906,0.727,2.015,1.185,3.08,1.624 c0,0,2.764,1.035,3.957,1.43C17.376,39.132,20.702,40.034,24,41l0.02-0.006L24.039,41c3.298-0.966,6.624-1.868,9.886-2.949 c1.193-0.395,3.957-1.43,3.957-1.43c1.065-0.439,2.174-0.898,3.08-1.624c0.938-0.753,1.545-1.84,1.874-2.983 c0.289-1.003,0.404-2.068,0.455-3.108L44.018,17l4.021-7L24.039,7z" clip-rule="evenodd"/><path fill="#a6a8ab" fill-rule="evenodd" d="M24.039,7L24,7.005v33.984L24.039,41 c3.298-0.966,6.624-1.868,9.886-2.949c1.193-0.395,3.957-1.43,3.957-1.43c1.065-0.439,2.174-0.898,3.08-1.624 c0.938-0.753,1.545-1.84,1.874-2.983c0.289-1.003,0.404-2.068,0.455-3.108L44.018,17l4.021-7L24.039,7z" clip-rule="evenodd"/><path fill="#9fa8da" fill-rule="evenodd" d="M24.039,7L24,40.989L24.039,41 c3.298-0.966,6.624-1.868,9.886-2.949c1.193-0.395,3.957-1.43,3.957-1.43c1.065-0.439,2.174-0.898,3.08-1.624 c0.938-0.753,1.545-1.84,1.874-2.983c0.289-1.003,0.404-2.068,0.455-3.108L44.018,17l4.021-7L24.039,7z" clip-rule="evenodd"/><path fill="#c5cae9" fill-rule="evenodd" d="M33 12L44 12 42 16 33 16z" clip-rule="evenodd"/><path fill="#ffc107" fill-rule="evenodd" d="M41.43 24L24 24 24 28 41.146 28zM24 32v6c0 0 7.212-1.791 14.128-3.855 1.486-.444 2.195-1.114 2.556-2.145H24zM6 16L4 12 24 12 24 16zM6.618 24L24 24 24 20 6.309 20z" clip-rule="evenodd"/><path fill="#c5cae9" fill-rule="evenodd" d="M24 18H33V24H24zM33 18L41.858 18 42 16 33 16zM15 24H24V30H15zM9.951 34.145c1.707.51 3.426 1.002 5.049 1.455V30H7.052C7.191 32.267 7.667 33.463 9.951 34.145z" clip-rule="evenodd"/><path fill="#f44336" fill-rule="evenodd" d="M41.858 18L33 18 33 24 41.43 24zM24 12H33V18H24zM7.011 29.094c.01.322.024.619.041.906H15v-6H6.618L7.011 29.094zM15 30v5.6c4.952 1.384 9 2.4 9 2.4v-8H15z" clip-rule="evenodd"/><path fill="#0d47a1" fill-rule="evenodd" d="M33 14L33 16 42 16 43 14z" clip-rule="evenodd"/><path fill="#37474f" fill-rule="evenodd" d="M6.309 20L24 20 24 16 6 16z" clip-rule="evenodd"/><path fill="#0d47a1" fill-rule="evenodd" d="M24 20H33V22H24z" clip-rule="evenodd"/><path fill="#37474f" fill-rule="evenodd" d="M24,28v4h16.684c0.264-0.753,0.347-1.693,0.384-2.906L41.146,28 H24z" clip-rule="evenodd"/><path fill="#0d47a1" fill-rule="evenodd" d="M15 26H24V28H15zM9.562 34H15v-2H7.395C7.721 32.929 8.353 33.561 9.562 34z" clip-rule="evenodd"/></svg>