<svg xmlns="http://www.w3.org/2000/svg"  viewBox="0 0 48 48" width="1600px" height="1600px"><path fill="#455a64" d="M6.776,19.776l-0.118-0.565c0,0-3.753-0.529-3.753,1.176c0,1.804,3.753,1.212,3.753,1.212 l0.118-0.659c0,0-2.726,0.376-2.726-0.541C4.051,19.371,6.776,19.776,6.776,19.776z"/><polygon fill="#455a64" points="12.69,19.24 12.69,21.62 11.57,21.62 11.57,20.66 9.55,20.66 9.55,21.62 8.44,21.62 8.44,19.24 9.55,19.24 9.55,20.11 11.57,20.11 11.57,19.24"/><path fill="#455a64" d="M17.582,20.641c0.465,0,0.894-0.265,0.894-0.706s-0.765-0.695-1.506-0.695c-0.741,0-1.382,0-1.382,0 h-1.09v2.38h1.09v-1.922h1.165c0,0,0.596-0.008,0.596,0.282c0,0.29-0.573,0.294-0.573,0.294H15.9v0.155l1.306,1.19h1.424v-0.249 L17.582,20.641z"/><path fill="#455a64" d="M43.579,20.641c0.465,0,0.894-0.265,0.894-0.706s-0.765-0.695-1.506-0.695c-0.741,0-1.382,0-1.382,0 h-1.09v2.38h1.09v-1.922h1.165c0,0,0.596-0.008,0.596,0.282c0,0.29-0.573,0.294-0.573,0.294h-0.876v0.155l1.306,1.19h1.424v-0.249 L43.579,20.641z"/><polygon fill="#455a64" points="20.922,21.62 22.059,21.62 22.059,20.678 23.635,19.24 22.773,19.24 21.729,20.137 20.647,19.24 19.29,19.24 20.914,20.671"/><polygon fill="#455a64" points="30.098,19.259 31.204,19.259 31.204,20.976 33.808,20.976 33.808,21.612 30.098,21.612"/><polygon fill="#455a64" points="35.118,19.259 35.118,21.612 38.929,21.612 38.929,21.012 36.271,21.012 36.271,20.647 38.829,20.647 38.829,20.118 36.271,20.118 36.271,19.747 38.929,19.747 38.929,19.259"/><path fill="#455a64" d="M24.494,21.476c0,0,1.224,0.241,1.918,0.241c0.694,0,2.082-0.153,2.082-0.882 s-1.388-0.765-1.694-0.8c-0.306-0.035-1.012-0.059-1.035-0.259c-0.024-0.2,0.776-0.188,1.059-0.165 c0.282,0.024,0.894,0.129,1.224,0.188c0.047-0.224,0.082-0.482,0.082-0.482s-0.976-0.2-1.871-0.2s-1.724,0.182-1.724,0.712 c0,0.529,0.365,0.682,1.176,0.794c0.812,0.112,1.445,0.106,1.429,0.288c-0.018,0.2-0.653,0.171-1.159,0.171 s-1.263-0.084-1.41-0.137C24.537,21.145,24.494,21.476,24.494,21.476z"/><path fill="#b0bec5" d="M47.499,24l-18.114,0c-0.22,0-0.436,0.067-0.606,0.206c-0.219,0.178-0.589,0.419-1.06,0.497 C26.494,24.906,24,24.865,24,24.865s-2.494,0.042-3.719-0.162c-0.47-0.078-0.841-0.319-1.06-0.497 C19.051,24.067,18.835,24,18.615,24L0.501,24c-0.239,0-0.816,0.388-0.242,0.827c0.404,0.31,1.392,1.067,2.482,1.314 c3.693,0.837,14.076,2.34,17.071,2.751c0.445,0.061,0.899-0.024,1.28-0.262c0.655-0.409,1.827-0.63,2.607-0.63H24h0.302 c0.78,0,1.952,0.221,2.607,0.63c0.381,0.238,0.835,0.323,1.28,0.262c2.995-0.411,13.378-1.914,17.071-2.751 c1.09-0.247,2.078-1.004,2.482-1.314C48.315,24.388,47.739,24,47.499,24z"/><path fill="#01579b" d="M18,25c0,1.105,1.895,2,3,2h6c1.105,0,3-0.895,3-2H18z"/><path fill="#90a4ae" d="M47.74,24.83c-0.4,0.31-1.39,1.06-2.48,1.31c-3.69,0.84-14.08,2.34-17.07,2.75 c-0.45,0.06-0.9-0.02-1.28-0.26C26.25,28.22,25.08,28,24.3,28h2.09C33,28,32,25,34,25c0,0,10.4,0,13.96-0.7 C48.02,24.45,47.99,24.63,47.74,24.83z"/><path fill="#90a4ae" d="M0.26,24.83c0.4,0.31,1.39,1.06,2.48,1.31c3.69,0.84,14.08,2.34,17.07,2.75 c0.45,0.06,0.9-0.02,1.28-0.26C21.75,28.22,22.92,28,23.7,28h-2.09C15,28,16,25,14,25c0,0-10.4,0-13.96-0.7 C-0.02,24.45,0.01,24.63,0.26,24.83z"/></svg>