<svg xmlns="http://www.w3.org/2000/svg"  viewBox="0 0 48 48" width="1600px" height="1600px"><path fill="#212121" d="M24.927,4c0.621,0.1,1.249,0.171,1.862,0.306c3.09,0.682,5.637,2.298,7.762,4.601 c2.539,2.751,4.126,6.006,4.941,9.639c1.129,5.032,0.765,9.957-1.231,14.724c-1.434,3.425-3.58,6.318-6.713,8.382 c-5.052,3.328-11.101,3.099-15.922-0.569c-2.708-2.061-4.613-4.739-5.923-7.851c-1.415-3.361-1.982-6.873-1.793-10.513 c0.179-3.451,1.018-6.725,2.66-9.772c1.726-3.203,4.084-5.799,7.364-7.476c1.532-0.783,3.155-1.264,4.873-1.413 C22.883,4.051,22.956,4.02,23.03,4C23.663,4,24.295,4,24.927,4z M23.994,12.814c4.728,3.505,9.443,7.001,14.196,10.524 c0-0.239,0.009-0.416-0.001-0.592c-0.138-2.358-0.594-4.65-1.472-6.847C35.435,12.696,33.539,9.943,30.64,8 c-3.525-2.362-7.296-2.8-11.231-1.14c-2.693,1.136-4.713,3.093-6.311,5.504c-1.64,2.474-2.618,5.206-3.063,8.13 c-0.14,0.919-0.201,1.85-0.298,2.776c0.031,0.014,0.061,0.029,0.092,0.043C14.546,19.817,19.263,16.321,23.994,12.814z M35.649,34.408c-0.105-0.083-0.181-0.147-0.261-0.206c-3.719-2.75-7.44-5.498-11.155-8.255c-0.196-0.146-0.311-0.124-0.492,0.01 c-3.026,2.245-6.058,4.483-9.088,6.723c-0.761,0.563-1.521,1.127-2.27,1.682c0.004,0.049-0.001,0.074,0.008,0.093 c0.028,0.061,0.059,0.122,0.092,0.18c1.079,1.88,2.425,3.535,4.154,4.855c2.674,2.042,5.677,3.026,9.035,2.481 C30.304,41.219,33.356,38.313,35.649,34.408z M10.816,30.935c0.19-0.136,0.318-0.226,0.444-0.319 c4.141-3.071,8.284-6.14,12.419-9.22c0.243-0.181,0.386-0.177,0.629,0.003c4.172,3.106,8.352,6.201,12.53,9.297 c0.093,0.069,0.191,0.131,0.361,0.248c0.211-1.001,0.399-1.926,0.607-2.848c0.057-0.255-0.002-0.401-0.218-0.56 c-4.451-3.279-8.896-6.565-13.336-9.858c-0.202-0.149-0.325-0.143-0.52,0.002c-4.251,3.151-8.493,6.313-12.775,9.421 c-0.663,0.481-0.925,0.92-0.671,1.705C10.508,29.486,10.636,30.195,10.816,30.935z"/></svg>