<svg xmlns="http://www.w3.org/2000/svg"  viewBox="0 0 48 48" width="1600px" height="1600px"><path fill="#283593" d="M17.265,42.423c-3.499-1.973-5.372-6.93-3.437-10.158c1.766-3.063,6.922-4.599,11.538-1.774c2.485,1.528,5.43,2.782,9.019,2.782c3.315,0,6.444-1.973,8.195-4.934c0.644-1.076,1.104-2.421,1.381-3.318c-0.093,3.14-1.014,6.367-2.762,9.24C36.78,41.887,24.629,46.639,17.265,42.423z"/><path fill="#283593" d="M11.627,8.985c3.477-1.815,8.874-1.177,10.521,2.36c1.465,3.175,1.477,7.623-4.482,10.795c-2.562,1.361-5.489,2.995-7.137,6.082c-1.555,2.903-1.74,6.44,0,9.526c0.64,1.088,1.555,2.268,2.194,2.903c-2.652-1.726-4.939-4.175-6.587-7.258C2,25.938,4.032,12.98,11.627,8.985z"/><path fill="#283593" d="M43,19.963C43,23.803,39.639,28,35.732,28c-3.634,0-7.268-2.051-7.268-8.84c0-2.857-0.273-6.161-2.09-9.021c-1.725-2.766-4.921-4.559-8.467-4.469C16.93,5.671,15.862,5.765,15,6c0.6-0.276,1.062-0.53,2.012-0.863C19.094,4.409,21.368,4.062,23.739,4C32.644,4,42.908,11.66,43,19.963z"/></svg>