<svg xmlns="http://www.w3.org/2000/svg"  viewBox="0 0 48 48" width="1600px" height="1600px"><path fill="#37474f" d="M35,45H13c-1.65,0-3-1.35-3-3V4c0-1.65,1.35-3,3-3h22c1.65,0,3,1.35,3,3v38C38,43.65,36.65,45,35,45z"/><path fill="#fff" d="M6.682,7.008c-0.279,0-0.554,0.074-0.816,0.22c-0.408,0.228-1.278,0.92-0.569,2.439l0.318,0.747c0.162,0.376,0.354,0.813,0.569,1.302c1.452,3.305,3.882,8.837,4.998,13.453c1.133,4.687,1.112,12.081-0.058,20.286c-0.014,0.099-0.031,0.187-0.046,0.264c-0.328,1.737,0.827,2.148,1.189,2.232C12.393,47.983,12.534,48,12.672,48c1.126,0,1.551-1.037,1.733-1.479l0.072-0.177c0.972-2.313,5.963-9.545,10.507-13.742c5.325-4.919,12.909-6.435,16.983-7.25l0.234-0.043C43.687,25.043,44,24.188,44,23.518C44,22,42.362,22,41.824,22h-0.049l-0.049,0.005l-0.129,0.013c-1.16-0.004-9.646-0.179-19.279-4.201c-6.943-2.899-11.742-7.346-13.985-9.74C8.248,7.986,8.187,7.905,8.138,7.841C7.976,7.629,7.503,7.008,6.682,7.008L6.682,7.008z"/><path fill="#ff3d00" d="M12.672,47c-0.055,0-0.114-0.007-0.177-0.022c-0.61-0.143-0.487-0.792-0.435-1.068c0.018-0.091,0.037-0.195,0.054-0.313c1.244-8.722,1.136-16.128,0.04-20.662c-1.306-5.403-4.386-12.052-5.62-14.913L6.204,9.246C6.076,8.973,5.81,8.404,6.353,8.102c0.51-0.284,0.842,0.151,0.984,0.338c0.066,0.086,0.149,0.195,0.267,0.321c2.302,2.456,7.209,7.006,14.33,9.979c8.753,3.654,16.88,4.278,19.712,4.278L41.824,23C42.531,23,43,23.031,43,23.518c0,0.623-0.581,0.736-0.979,0.808l-0.229,0.042c-4.151,0.83-11.946,2.382-17.487,7.5c-4.608,4.257-9.682,11.547-10.754,14.098l-0.071,0.174C13.329,46.508,13.128,47,12.672,47z"/><path fill="#ffeb3b" d="M22.879,27.327C21.917,28.917,20.551,30.664,17,31c-1.708-3.083-0.897-5.95-0.572-6.647L17.677,22l3.531,1L24,25L22.879,27.327z"/><path fill="#fff" d="M13,9l0.447,1.682L14,9h1l0.541,1.682L16,9l1,0.004L16.022,12h-0.767l-0.754-2.188L13.713,12h-0.766L12,9.002L13,9z M21.662,9.498C21.351,9.167,20.806,9.002,20.028,9c-0.362,0.007-0.669,0.04-0.924,0.112c-0.257,0.072-0.473,0.179-0.649,0.323c-0.14,0.119-0.252,0.268-0.333,0.462C18.04,10.087,18,10.291,18,10.506c0,0.213,0.037,0.415,0.114,0.612c0.078,0.194,0.183,0.341,0.311,0.455c0.322,0.285,0.836,0.426,1.542,0.427c0.617,0.001,1.108-0.113,1.467-0.34C21.812,11.419,22,11.037,22,10.507C22.002,10.079,21.888,9.741,21.662,9.498z M20.849,11.202c-0.186,0.285-0.264,0.425-0.835,0.426c-0.503,0.002-0.555-0.105-0.757-0.318C19.085,11.128,19,10.859,19,10.498c0-0.301,0.059-0.537,0.176-0.704c0.19-0.278,0.277-0.422,0.847-0.42c0.497,0.002,0.55,0.119,0.755,0.345C20.926,9.888,21,10.155,21,10.519C21,10.819,20.951,11.048,20.849,11.202z M26.917,11.874c-0.011-0.039-0.025-0.147-0.042-0.33c-0.031-0.283-0.105-0.484-0.222-0.609c-0.115-0.12-0.333-0.228-0.651-0.318c0.247-0.042,0.441-0.105,0.587-0.182c0.262-0.144,0.396-0.343,0.395-0.602c0-0.143-0.045-0.27-0.139-0.384c-0.091-0.121-0.222-0.216-0.382-0.286C26.214,9.055,25.78,9.001,25.158,9L23,9.002v2.996h1v-1.27l0.513-0.001c0.564,0.001,0.745,0.061,0.976,0.182c0.233,0.12,0.37,0.336,0.417,0.657c0.028,0.192,0.045,0.305,0.055,0.339c0.003,0.032,0.021,0.061,0.05,0.094H27C26.958,11.95,26.928,11.907,26.917,11.874z M25.726,10.253c-0.132,0.062-0.397,0.093-0.797,0.093L24,10.345v-0.96h0.929c0.4-0.001,0.658,0.02,0.772,0.065C25.9,9.527,26,9.665,26,9.865C26.002,10.039,25.91,10.167,25.726,10.253z M28,9.001L29,9v1.744c0,0.191,0.016,0.337,0.048,0.435c0.035,0.102,0.094,0.181,0.172,0.236c0.215,0.142,0.556,0.21,1.017,0.204h0.753L30.993,12h-1.153c-0.367,0.002-0.655-0.024-0.871-0.064c-0.217-0.045-0.406-0.119-0.569-0.228c-0.148-0.095-0.251-0.211-0.31-0.349C28.031,11.226,28,11.039,28,10.805L28,9.001z M35.749,9.647c-0.241-0.297-0.576-0.493-1.007-0.581C34.512,9.021,34.15,9,33.651,9.001L32,9v3h1.718c0.394,0.002,0.688-0.013,0.88-0.037c0.19-0.024,0.374-0.072,0.551-0.14c0.565-0.229,0.85-0.685,0.85-1.352C35.998,10.136,35.915,9.861,35.749,9.647z M34.706,11.321c-0.214,0.197-0.585,0.296-1.118,0.296H33V9.384l0.538-0.006c0.295,0,0.529,0.024,0.706,0.065c0.17,0.042,0.31,0.109,0.418,0.208c0.222,0.202,0.334,0.495,0.337,0.883C35,10.879,34.9,11.139,34.706,11.321z"/><path fill="#ffeb3b" d="M13.652,5.913v1.402h0.716V8H12V7.315h0.633V3.772H12V3h22v1H13.652v1.265h0.466V4.759h0.66v1.637h-0.66V5.913H13.652z M32.585,5.819c-0.067,0.074-0.154,0.184-0.242,0.302C32.159,6.368,32,6.617,32,6.659v0.653h0.301V8h-1.588V7.314H31V5.565h-0.287V5H32v0.708l0.091-0.135c0.064-0.093,0.135-0.194,0.216-0.287C32.467,5.101,32.664,5,32.909,5c0.4,0,0.629,0.173,0.629,0.538V6.44h-0.916V5.778L32.585,5.819z M35,3h1v1h-1V3z M21.372,5.821c-0.065,0.074-0.153,0.184-0.241,0.302c-0.183,0.248-0.344,0.497-0.344,0.538v0.653h0.302V8h-1.588V7.316h0.32V5.567h-0.32V5.002h1.286V5.71l0.091-0.135c0.064-0.093,0.135-0.194,0.216-0.287C21.253,5.104,21.453,5,21.696,5c0.4,0,0.629,0.175,0.629,0.541v0.902h-0.917V5.78L21.372,5.821z M36.321,7.998h-1.632V7.309H35V5.565h-0.311V5H36v2.309h0.321V7.998z M25.024,5.821c-0.065,0.074-0.153,0.184-0.24,0.302C24.601,6.371,24.44,6.62,24.44,6.661v0.653h0.303V8h-1.588V7.316h0.32V5.567h-0.32V5.002h1.286V5.71l0.092-0.135c0.064-0.093,0.135-0.194,0.216-0.287C24.908,5.104,25.107,5,25.349,5c0.401,0,0.631,0.175,0.631,0.541v0.902h-0.916V5.78L25.024,5.821z M29.534,7.315l-0.001-0.229V5.7c0-0.638-0.356-0.755-1.234-0.757c-0.958,0.003-1.329,0.137-1.329,0.868v0.346h0.885V5.853c0-0.323,0.005-0.361,0.4-0.362c0.319,0.001,0.326,0.021,0.326,0.362v0.651H28.15h-0.367c-0.696,0.003-0.91,0.37-0.91,0.794V7.221C26.873,7.654,27.189,8,27.665,8h2.195V7.315H29.534z M28.577,7.335l-0.001-0.18c0,0.234-0.108,0.277-0.261,0.277h-0.304c-0.167-0.003-0.227-0.113-0.227-0.277v0.098c0-0.16,0.088-0.277,0.227-0.277h0.322h0.244L28.577,7.335z M16.627,6.441h1.753V5.68c0-0.528-0.392-0.729-1.295-0.732h-0.13C15.969,4.953,15.67,5.193,15.67,5.83v1.335c0,0.701,0.416,0.81,1.301,0.835h0.099c0.965-0.022,1.309-0.089,1.309-0.751V6.708h-0.927v0.304c0,0.311-0.022,0.32-0.424,0.325c-0.245,0.001-0.336-0.014-0.373-0.051c-0.015-0.016-0.024-0.039-0.028-0.085c-0.003-0.048-0.001-0.111,0-0.189L16.627,6.441z M16.636,5.73c0-0.161,0.037-0.227,0.204-0.227h0.37c0.141,0.001,0.197,0.061,0.197,0.157v0.339l-0.771-0.001V5.73z"/><path fill="#263238" d="M21.304,27.034c0.056-0.042,0.08-0.049,0.135-0.076c0.052-0.024,0.084-0.033,0.129-0.066c0.04-0.027,0.048-0.033,0.093-0.082c0.01-0.013,0.02-0.047,0.005-0.053c-0.02-0.01-0.131,0.076-0.221,0.107c-0.085,0.03-0.223,0.054-0.223,0.054s-0.011,0.001-0.005-0.016c0.008-0.017,0.029-0.066,0.064-0.106c0.034-0.04,0.072-0.077,0.149-0.122c0.088-0.054,0.173-0.075,0.219-0.089c0.018-0.005,0.065-0.009,0.054-0.029c-0.01-0.018-0.083-0.001-0.136,0.006c-0.066,0.007-0.087,0.009-0.167,0.04c-0.077,0.032-0.103,0.048-0.103,0.048s-0.084,0.049-0.135,0.114c-0.052,0.064-0.072,0.102-0.072,0.102s-0.035,0.064-0.05,0.104c-0.016,0.042-0.033,0.112-0.033,0.112s-0.015,0.081-0.029,0.128c-0.013,0.046-0.066,0.179-0.066,0.179s-0.037,0.095-0.088,0.177c-0.053,0.082-0.086,0.126-0.111,0.146c-0.024,0.02-0.087,0.074-0.154,0.097c-0.067,0.024-0.078,0.026-0.078,0.026s-0.062,0.011-0.106,0.011c-0.045-0.001-0.113-0.004-0.14-0.01c-0.025-0.008-0.061-0.024-0.064-0.025l-0.03-0.016c-0.003-0.003-0.005-0.009-0.005-0.012c0-0.004,0.007-0.021,0.007-0.021s0.026-0.104,0.03-0.178c0.003-0.062-0.009-0.156-0.009-0.156s-0.024-0.159-0.055-0.259c-0.035-0.116-0.091-0.218-0.121-0.285c-0.009-0.025-0.041-0.073-0.041-0.073s-0.08-0.261-0.068-0.433c0.007-0.116,0.017-0.199,0.083-0.297c0.016-0.023,0.049-0.06,0.054-0.057c0.004,0.002,0.024,0.022,0.027,0.024c0.003,0.002,0.017,0.044,0.036,0.066c0.012,0.014,0.036,0.032,0.036,0.032s0.021,0.012,0.03,0.023c0.01,0.01,0.027,0.027,0.038,0.043c0.012,0.017,0.025,0.04,0.025,0.04s0.021,0.046,0.024,0.052c0.003,0.005,0.025,0.056,0.025,0.056s0.016,0.029,0.021,0.034c0.005,0.008,0.009,0.012,0.012,0.015l0.007,0.005c0,0,0.012,0.004,0.018-0.007c0.006-0.008-0.01-0.01-0.022-0.043c-0.011-0.035-0.01-0.056-0.01-0.056s0.006-0.022-0.002-0.053c-0.008-0.029-0.022-0.062-0.022-0.062s-0.01-0.021-0.031-0.04c-0.021-0.018-0.028-0.023-0.025-0.033c0.005-0.01,0.033,0.01,0.033,0.01s0.033,0.023,0.054,0.053c0.022,0.03,0.03,0.054,0.03,0.054l0.011,0.026l0.006,0.019l0.007,0.013c0,0,0.007,0.018,0.018,0.004c0.012-0.013,0.012-0.025,0.012-0.031c0.002-0.004-0.006-0.018-0.006-0.018l-0.025-0.065c-0.006-0.021-0.011-0.036-0.02-0.052c-0.01-0.017-0.024-0.043-0.042-0.066c-0.018-0.021-0.036-0.027-0.053-0.052c-0.011-0.018-0.023-0.027-0.026-0.047c-0.001-0.005-0.008-0.017,0.011-0.002c0.019,0.015,0.03,0.03,0.05,0.048c0.033,0.031,0.056,0.042,0.086,0.076c0.01,0.011,0.026,0.031,0.026,0.031l0.035,0.043c0,0,0.043,0.065,0.086,0.089c0.044,0.025,0.083,0.034,0.1,0.036c0.018,0.002,0.053,0.001,0.064-0.003c0.011-0.003,0.017-0.007,0.017-0.007s0.007-0.006,0.01-0.009c0.004-0.003,0.006-0.006,0.006-0.009c-0.004-0.02-0.048,0.004-0.093-0.009c-0.043-0.014-0.044-0.01-0.067-0.027c-0.026-0.019-0.04-0.037-0.051-0.067c-0.02-0.055-0.016-0.096-0.052-0.144c-0.017-0.022-0.05-0.049-0.05-0.049s-0.043-0.044-0.064-0.076c-0.015-0.025-0.056-0.054-0.032-0.064c0.013-0.005,0.051,0.056,0.091,0.085c0.028,0.02,0.05,0.031,0.076,0.042c0.027,0.01,0.062,0.025,0.067,0.026c0.005,0.001,0.025,0.012,0.037,0.025c0.015,0.013,0.02,0.024,0.032,0.04c0.012,0.013,0.028,0.036,0.032,0.038c0.003,0.002,0.009,0.007,0.009,0.007s0.006,0,0.009-0.004c0.003-0.002,0.006-0.003,0.006-0.003l0.011-0.005l-0.005-0.011l-0.01-0.017c0,0-0.014-0.023-0.022-0.052s-0.016-0.058-0.038-0.083c-0.023-0.025-0.055-0.046-0.055-0.046l-0.03-0.02l-0.012-0.008c0,0-0.02-0.019,0.001-0.014c0.021,0.004,0.033,0.008,0.037,0.009c0.004,0.001,0.036,0.014,0.053,0.032c0.017,0.016,0.038,0.048,0.04,0.05s0.018,0.039,0.045,0.064c0.028,0.023,0.068,0.047,0.068,0.047s0.016,0.007,0.021,0.006c0.004-0.001,0.006,0,0.009-0.001c0.003,0.004,0.008,0.001,0.011-0.002c0.001-0.003,0.005-0.012,0.005-0.012s0.007-0.01-0.007-0.02c-0.014-0.009-0.038-0.029-0.055-0.064c-0.016-0.034-0.026-0.062-0.026-0.062s-0.011-0.026-0.042-0.055c-0.031-0.027-0.041-0.036-0.041-0.036l-0.01-0.011l-0.021-0.026c0,0-0.008-0.012-0.012-0.029s-0.006-0.045,0.026-0.011c0.034,0.034,0.039,0.042,0.039,0.042s0.01,0.033,0.027,0.044c0.01,0.007,0.018,0.015,0.031,0.012c0.017-0.007-0.008-0.038-0.024-0.067c-0.012-0.022-0.016-0.062-0.016-0.062s-0.006-0.021,0.012-0.004c0.019,0.017,0.044,0.059,0.044,0.059s0.015,0.02,0.021,0.027c0.006,0.007,0.019,0.03,0.025,0.035c0.007,0.007,0.025,0.022,0.036,0.04c0.012,0.02,0.012,0.044,0.017,0.057c0.005,0.013,0.007,0.027,0.016,0.037c0.009,0.008,0.011,0.015,0.021,0.014c0.01-0.001,0.014-0.003,0.014-0.003s0.005-0.005-0.002-0.016c-0.007-0.013-0.012-0.04-0.012-0.04l0.001-0.013l0-0.009l-0.002-0.025l-0.003-0.042c0,0-0.01-0.062-0.031-0.093c-0.02-0.031-0.035-0.051-0.035-0.051s-0.011-0.015-0.016-0.025c-0.007-0.014-0.006-0.025-0.011-0.042c-0.004-0.021-0.004-0.034-0.01-0.054c-0.011-0.041-0.086-0.098-0.043-0.098c0.021-0.002,0.04,0.014,0.048,0.022c0.009,0.009,0.025,0.029,0.042,0.046c0.012,0.011,0.022,0.017,0.033,0.029c0.012,0.012,0.028,0.023,0.031,0.032c0.004,0.009,0.007,0.021,0.009,0.026c0.003,0.004,0.004,0.043,0.029,0.078c0.025,0.034,0.035,0.054,0.068,0.074c0.026,0.016,0.073,0.029,0.073,0.029s0.015,0.001,0.011-0.016c-0.003-0.017-0.004-0.019-0.012-0.028c-0.029-0.035-0.063-0.045-0.076-0.089c-0.006-0.017-0.009-0.022-0.008-0.045c0.002-0.024,0.007-0.026,0.009-0.042c0.001-0.014-0.001-0.038-0.001-0.038s-0.012-0.059-0.041-0.102c-0.028-0.043-0.045-0.078-0.049-0.087c-0.005-0.009-0.009-0.035-0.009-0.035s-0.003-0.02-0.002-0.024c0-0.005-0.001-0.012,0-0.02c0.009-0.029,0.038,0.03,0.06,0.053c0.036,0.037,0.045,0.065,0.082,0.101c0.019,0.021,0.034,0.029,0.052,0.05c0.032,0.038,0.021,0.085,0.063,0.111c0.023,0.016,0.065,0.051,0.068,0.025c0.004-0.029-0.044-0.053-0.054-0.094c-0.004-0.019,0.001-0.031-0.004-0.048c-0.003-0.032-0.035-0.077-0.035-0.077s-0.009-0.02-0.007-0.06c0.003-0.041-0.019-0.082-0.067-0.146c-0.031-0.044-0.114-0.093-0.068-0.098c0.028-0.003,0.043,0.008,0.064,0.029c0.022,0.022,0.024,0.038,0.039,0.059c0.016,0.022,0.024,0.029,0.027,0.034c0.003,0.005,0.018,0.02,0.023,0.024c0.005,0.005,0.037,0.031,0.044,0.037c0.008,0.005,0.042,0.037,0.042,0.037l0.031,0.035c0,0,0.014,0.016,0.028,0.023c0.012,0.008,0.035,0.012,0.035,0.012l0.019-0.003l0.005-0.002c0,0,0.012-0.007-0.003-0.02c-0.016-0.012-0.024-0.016-0.026-0.018c-0.002-0.002-0.009-0.01-0.014-0.015c-0.005-0.002-0.005-0.007-0.005-0.007s-0.019-0.043-0.042-0.072c-0.024-0.028-0.028-0.034-0.028-0.034s-0.006-0.006-0.01-0.009c-0.003-0.004-0.012-0.011-0.012-0.011s-0.013-0.007-0.022-0.034c-0.01-0.028-0.013-0.04-0.021-0.064c-0.003-0.013-0.01-0.034-0.01-0.034S21.078,25,21.086,24.988c0.011-0.017,0.032,0.043,0.032,0.043l0.017,0.032c0,0,0.015,0.029,0.057,0.054c0.043,0.024,0.101,0.038,0.101,0.038s0.011-0.001,0.031,0.019c0.02,0.019,0.032,0.042,0.032,0.042l0.009,0.026c0,0,0.01,0.048,0.013,0.047c0.003,0,0.002,0.001,0.006,0s0.024-0.008,0.016-0.043c-0.008-0.036-0.032-0.079-0.032-0.079s-0.032-0.055-0.074-0.089c-0.042-0.034-0.064-0.046-0.064-0.046s-0.035-0.02-0.044-0.054c-0.008-0.035-0.011-0.065-0.011-0.065l-0.01-0.02c0,0-0.004-0.021-0.021-0.042c-0.017-0.022-0.033-0.046-0.033-0.046s-0.029-0.031-0.023-0.047c0.011-0.034,0.058,0.03,0.09,0.058c0.029,0.025,0.038,0.045,0.067,0.069c0.026,0.021,0.042,0.033,0.072,0.049c0.016,0.009,0.027,0.01,0.046,0.019c0.018,0.008,0.03,0.012,0.046,0.024c0.021,0.017,0.026,0.034,0.042,0.056c0.011,0.016,0.014,0.026,0.029,0.037c0.013,0.01,0.036,0.034,0.04,0.018c0.001-0.005-0.001-0.008-0.002-0.013c-0.004-0.022-0.015-0.031-0.025-0.05c-0.02-0.04-0.022-0.067-0.048-0.103c-0.018-0.023-0.029-0.036-0.053-0.056c-0.018-0.014-0.033-0.015-0.049-0.031c-0.019-0.017-0.021-0.032-0.034-0.055c-0.024-0.037-0.033-0.061-0.061-0.096c-0.019-0.023-0.055-0.053-0.055-0.053l-0.014-0.011c0,0-0.004-0.003-0.006-0.006c-0.027-0.029,0.079-0.008,0.127,0.005c0.023,0.006,0.036,0.007,0.058,0.019c0.018,0.012,0.025,0.049,0.051,0.048c0.041,0-0.003-0.081-0.019-0.098c-0.023-0.026-0.078-0.045-0.078-0.045l-0.109-0.061l-0.027-0.019c0,0-0.02-0.009-0.025-0.033c-0.005-0.024-0.025-0.119-0.082-0.162c-0.059-0.039-0.086-0.04-0.086-0.049c-0.008-0.113-0.055-0.163-0.077-0.226c-0.006-0.018-0.011-0.055-0.018-0.053c-0.005,0.001-0.032,0.032-0.062,0.055c-0.033,0.026-0.033,0.049-0.033,0.066c0.002,0.017,0.01,0.035-0.022,0.037c-0.031,0.002-0.06-0.019-0.06-0.019s-0.023-0.02-0.04-0.041c-0.017-0.022-0.051-0.065-0.051-0.065s-0.036-0.035-0.067-0.047c-0.031-0.013-0.035-0.013-0.057-0.021c-0.011-0.005-0.017-0.008-0.03-0.011c-0.01-0.003-0.019-0.015-0.026-0.004c-0.006,0.009,0.018,0.025,0.031,0.04c0.014,0.016,0.051,0.035,0.038,0.039c-0.014,0.005-0.05-0.012-0.051-0.015c-0.003-0.002-0.025-0.019-0.042-0.028c-0.033-0.015-0.035-0.015-0.092-0.018c-0.007-0.001-0.016,0.016,0.003,0.02c0.019,0.005,0.046,0.012,0.071,0.026c0.029,0.017,0.04,0.032,0.064,0.055c0.019,0.018,0.019,0.026,0.052,0.048c0.007,0.004,0.025,0.007,0.02,0.015c-0.004,0.006-0.016,0.005-0.016,0.005s-0.025-0.008-0.026,0.003c-0.001,0.012,0.024,0.015,0.034,0.017c0.011,0.004,0.023,0.016,0.015,0.025c-0.002,0.003-0.006,0.005-0.009,0.005c-0.03-0.007-0.047-0.01-0.077-0.014c-0.072-0.009-0.112,0.008-0.185,0.003c-0.069-0.002-0.175-0.017-0.175-0.017s-0.035,0-0.076-0.011c-0.043-0.012-0.045-0.014-0.072-0.025c-0.028-0.011-0.042-0.015-0.071-0.014c-0.018,0-0.03,0.002-0.048,0.007l-0.06,0.031l-0.034,0.019c-0.01,0.005-0.017,0.009-0.025,0.016c-0.01,0.008-0.017,0.012-0.026,0.022c-0.021,0.025-0.026,0.045-0.035,0.075c-0.003,0.008-0.004,0.014-0.007,0.022c-0.002,0.009,0.005,0.022,0.005,0.022l0.007,0.008c0,0,0.034,0.015,0.06,0.021c0.025,0.007,0.058,0.016,0.058,0.016s0.042,0.008,0.045,0.009c0.002,0,0.03,0.005,0.03,0.005s0.016,0.01,0.015,0.018c0,0.009-0.014,0.016-0.014,0.016s-0.017,0-0.032-0.003c-0.014-0.002-0.047-0.007-0.05-0.008c-0.003-0.001-0.036-0.009-0.036-0.009l-0.022-0.006c0,0-0.007-0.002-0.015,0.004c-0.01,0.005-0.008,0.006-0.01,0.01c0.001,0.008,0.002,0.012,0.004,0.021c0.004,0.012,0.009,0.018,0.018,0.028c0.012,0.014,0.023,0.019,0.039,0.027c0.024,0.013,0.041,0.017,0.068,0.018c0.024,0,0.033,0.001,0.063,0.007c0.008,0.002,0.022,0.007,0.031,0.009c0.047,0.02,0.069,0.041,0.109,0.073s0.057,0.056,0.097,0.087c0.044,0.034,0.066,0.062,0.12,0.078c0.028,0.008,0.047,0.004,0.047,0.034c0,0.029-0.008,0.039-0.008,0.039s-0.007,0.015-0.049,0.049c-0.04,0.035-0.152,0.117-0.152,0.117l-0.074,0.051c0,0-0.059,0.04-0.164,0.078c-0.106,0.037-0.113,0.04-0.113,0.04s-0.049,0.006-0.109,0.032c-0.061,0.025-0.071,0.041-0.12,0.056c-0.032,0.011-0.05,0.016-0.086,0.016c-0.035,0.001-0.062-0.019-0.177-0.006c-0.097,0.01-0.156,0.029-0.161,0.025c-0.004-0.004-0.017-0.037-0.022-0.046c-0.005-0.009-0.091-0.174-0.091-0.174l-0.038-0.069l-0.017-0.03l-0.006-0.009l-0.003-0.026c0,0-0.007-0.036-0.022-0.074c-0.015-0.035-0.034-0.069-0.069-0.103c-0.035-0.032-0.058-0.053-0.104-0.061c-0.031-0.006-0.05-0.004-0.08,0.004c-0.036,0.009-0.052,0.027-0.087,0.045c-0.032,0.016-0.068,0.032-0.085,0.043c-0.018,0.009-0.058,0.036-0.058,0.036s-0.088,0.05-0.142,0.084c-0.059,0.038-0.089,0.063-0.147,0.101c-0.09,0.057-0.199,0.11-0.237,0.137c-0.037,0.027-0.041,0.032-0.041,0.032s-0.016,0.018-0.025,0.03c-0.009,0.013-0.022,0.037-0.03,0.046c-0.007,0.008-0.022,0.017-0.025,0.019c-0.003,0.002-0.059,0.041-0.088,0.071c-0.029,0.03-0.11,0.129-0.092,0.157c0.019,0.027,0.257,0.049,0.326-0.019c0.043-0.043-0.011-0.105,0.033-0.142c0.014-0.011,0.023-0.01,0.042-0.022c0.036-0.019,0.063-0.087,0.132-0.126c0.049-0.029,0.131-0.057,0.245-0.098c0.072-0.025,0.159-0.083,0.159-0.083s0.025-0.023,0.044-0.008c0.018,0.014,0.039,0.023,0.039,0.023s0.003,0.011,0.005,0.014c0.003,0.001,0.009,0.027,0.009,0.027l0.006,0.059c0,0,0.01,0.095,0.016,0.122c0.007,0.028,0.017,0.05,0.028,0.081c0.014,0.038,0.017,0.055,0.035,0.097c0.029,0.063,0.004,0.067-0.04,0.002c-0.015-0.021-0.041-0.049-0.065-0.071c-0.023-0.022-0.118-0.109-0.166-0.142c-0.05-0.035-0.059-0.039-0.059-0.039s-0.027-0.016-0.067-0.014c-0.04,0.002-0.065,0.008-0.065,0.008s-0.057,0.021-0.064,0.026c-0.006,0.006-0.04,0.025-0.04,0.025s-0.017,0.01-0.029,0.024c-0.013,0.015-0.021,0.032-0.021,0.032l-0.017,0.035l-0.016,0.034c0,0-0.038,0.085-0.064,0.179c-0.007,0.026-0.025,0.067-0.025,0.067l-0.032,0.088c0,0-0.042,0.095-0.05,0.127c-0.009,0.032-0.006,0.035-0.012,0.058c-0.01,0.039-0.036,0.046-0.039,0.098c-0.005,0.05,0.012,0.053,0.014,0.088c0.002,0.022,0.003,0.031,0,0.06c-0.004,0.029-0.014,0.121-0.01,0.2c0.007,0.078,0.018,0.177,0.056,0.187c0.038,0.01,0.089-0.026,0.089-0.026s0.092-0.08,0.122-0.193c0.031-0.113-0.105-0.125-0.077-0.205c0.006-0.018,0.021-0.041,0.021-0.041s0.014-0.033,0.015-0.045c0-0.01-0.001-0.103,0.017-0.167c0.012-0.049,0.092-0.192,0.103-0.237c0.03-0.117,0.022-0.11,0.048-0.121c0.025-0.01,0.038,0.003,0.038,0.003s0.016,0.009,0.02,0.01c0.004,0.004,0.013,0.016,0.013,0.016s0.014,0.023,0.02,0.036c0.006,0.014,0.025,0.055,0.025,0.055l0.053,0.094c0,0,0.032,0.049,0.047,0.069c0.014,0.014,0.023,0.036,0.023,0.036l0.013,0.025l0.024,0.045c0,0,0.004,0.006,0.004,0.01c0.001,0.005,0.001,0.011,0.001,0.011s-0.004,0.046,0.044,0.125c0.041,0.064,0.096,0.08,0.103,0.119c0.001,0.006,0.014,0.08,0.015,0.127c0.003,0.05,0.007,0.108,0.009,0.128c0.002,0.019,0.024,0.124,0.024,0.124l0.03,0.125l0.052,0.147l0.051,0.126c0,0,0.06,0.154,0.097,0.226c0.037,0.067,0.075,0.17,0.091,0.22c0.02,0.066,0.026,0.117,0.001,0.128c-0.015,0.002-0.022-0.066-0.04-0.124c-0.034-0.116-0.116-0.273-0.121-0.268c-0.043,0.041-0.075,0.102-0.106,0.164c-0.022,0.043-0.037,0.089-0.051,0.149c-0.015,0.057-0.019,0.093-0.027,0.151c-0.007,0.059-0.013,0.154-0.013,0.154l-0.004,0.137l0.004,0.11l0.004,0.057l0.001,0.018c0,0-0.003,0.034-0.025,0.046c-0.02,0.013-0.06,0.042-0.081,0.035c-0.022-0.006-0.074-0.03-0.074-0.03l-0.281-0.153l-0.142-0.091c0,0-0.01-0.02-0.098-0.064c-0.051-0.026-0.102-0.027-0.132-0.041c-0.024-0.011-0.136-0.082-0.231-0.092c-0.088-0.008-0.128-0.02-0.179,0.011c-0.038,0.025,0.042,0.141,0.124,0.21c0.131,0.113,0.124,0.026,0.202,0.018c0.01-0.001,0.015-0.006,0.025-0.004c0.045,0.009,0.049,0.049,0.087,0.072c0.043,0.022,0.074,0.019,0.119,0.037c0.231,0.085,0.515,0.367,0.515,0.367s0.067,0.07,0.113,0.082c0.05,0.015,0.051-0.005,0.078-0.024c0.023-0.015,0.034-0.016,0.048-0.038c0.008-0.014,0.009-0.023,0.013-0.038c0.013-0.044,0.017-0.112,0.017-0.112s0.005-0.053,0.01-0.077c0.007-0.037,0.008-0.059,0.021-0.094c0.033-0.094,0.031-0.084,0.058-0.135c0.049-0.088,0.084-0.136,0.158-0.204c0.113-0.101,0.208-0.117,0.313-0.222c0.027-0.028,0.047-0.079,0.066-0.073c0.02,0.007-0.013,0.069-0.044,0.098c-0.141,0.133-0.198,0.124-0.304,0.223c-0.102,0.094-0.113,0.118-0.171,0.233c-0.027,0.055-0.051,0.15-0.051,0.15s-0.023,0.109-0.027,0.151c-0.004,0.042-0.01,0.117-0.01,0.117l0.003,0.147l0.004,0.072c0,0,0.012,0.035-0.019,0.062c-0.03,0.028-0.066,0.037-0.11,0.053c-0.133,0.049-0.395,0.088-0.461,0.097c-0.093,0.012-0.098,0.027-0.112,0.04c-0.068,0.061-0.144,0.022-0.277,0.068c-0.029,0.011-0.108,0.033-0.12,0.083c-0.004,0.018,0.181,0.164,0.329,0.176c0.114,0.01,0.058-0.076,0.107-0.107c0.035-0.024,0.085,0.004,0.121-0.014c0.059-0.028,0.035-0.037,0.089-0.059c0.169-0.067,0.272-0.102,0.514-0.113c0.024-0.001,0.059,0,0.059,0s0.032,0.003,0.05-0.008c0.023-0.01,0.027-0.03,0.04-0.052c0.008-0.014,0.011-0.022,0.017-0.036c0.008-0.018,0.015-0.027,0.02-0.043c0.009-0.03,0.004-0.061,0.002-0.077c-0.002-0.016-0.008-0.047,0.006-0.096c0.012-0.051,0.032-0.089,0.079-0.129c0.047-0.039,0.111-0.056,0.111-0.056l0.146-0.012c0,0,0.128-0.018,0.172-0.027c0.043-0.009,0.133-0.033,0.211-0.069c0.086-0.043,0.136-0.071,0.202-0.141c0.023-0.024,0.054-0.069,0.054-0.069s0.017-0.033,0.037-0.025c0.019,0.009,0.02,0.017,0.02,0.017s0.012,0.019-0.01,0.068c-0.022,0.05-0.066,0.094-0.066,0.094s-0.043,0.045-0.065,0.077c-0.015,0.021-0.022,0.031-0.034,0.055c-0.021,0.039-0.022,0.08-0.022,0.08s0.006,0.013,0.015-0.006c0.009-0.02,0.031-0.045,0.055-0.069c0.021-0.021,0.021-0.013,0.058-0.046c0.045-0.042,0.026-0.045,0.054-0.069c0.013-0.013,0.032-0.019,0.046-0.013c0.015,0.007,0.006,0.029,0.006,0.029s-0.019,0.069-0.063,0.119c-0.043,0.048-0.125,0.104-0.125,0.104l-0.066,0.039c0,0-0.044,0.026-0.068,0.048c-0.026,0.023-0.035,0.032-0.042,0.06c-0.009,0.032-0.008,0.082,0.007,0.08c0.014-0.001,0.003-0.039,0.062-0.079c0.058-0.041,0.116-0.053,0.116-0.053s0.086-0.034,0.134-0.067c0.044-0.03,0.103-0.09,0.103-0.09s0.048-0.052,0.073-0.104c0.025-0.052,0.029-0.081,0.029-0.081s0-0.045-0.001-0.048c0-0.006,0-0.029,0.003-0.035c0.003-0.005,0.008-0.015,0.014-0.014c0.006,0.001,0.016,0.021,0.021,0.047c0.004,0.028,0.004,0.057-0.005,0.093c-0.007,0.029-0.015,0.05-0.025,0.069c-0.009,0.021-0.059,0.093-0.058,0.157c0,0.03-0.001,0.099,0.013,0.076c0.034-0.053,0.025-0.089,0.053-0.136c0.034-0.055,0.038-0.034,0.059-0.06c0.021-0.026,0.034-0.032,0.048-0.073c0.016-0.041,0.027-0.097,0.027-0.097s0.005-0.042,0.005-0.048c0.001-0.004,0.001-0.016,0.001-0.016s0.009-0.004,0.016,0c0.007,0.002,0.066,0.011,0.066,0.011s0.093,0.005,0.134,0s0.1-0.022,0.1-0.022s0.08-0.033,0.124-0.062c0.114-0.074,0.189-0.21,0.219-0.27c0.029-0.059,0.055-0.145,0.055-0.145s0.034-0.104,0.07-0.162c0.038-0.06,0.058-0.085,0.058-0.085s0.032-0.064,0.118-0.101c0.087-0.039,0.134-0.07,0.169-0.111c0.03-0.035,0.05-0.112,0.017-0.094c-0.035,0.018-0.076,0.067-0.134,0.099c-0.076,0.042-0.184,0.087-0.212,0.072c-0.018-0.01-0.001-0.049-0.001-0.049S21.223,27.096,21.304,27.034z M17.539,28.425c-0.026-0.016-0.035-0.027-0.046-0.04c-0.01-0.015-0.026-0.035-0.026-0.035s-0.043-0.048-0.088-0.074c-0.045-0.024-0.129-0.045-0.186-0.027c-0.057,0.018-0.087,0.054-0.087,0.054s-0.05,0.063-0.048,0.105c0.004,0.044,0.007,0.09,0.041,0.147c0.035,0.057,0.049,0.079,0.049,0.079l0.066,0.085l0.064,0.073c0,0,0.097,0.096,0.064,0.19c-0.032,0.094-0.146,0.177-0.312,0.102c-0.163-0.073-0.199-0.19-0.198-0.251c0.002-0.061,0.038-0.094,0.038-0.094l0.014-0.011l0.008,0c0,0,0.016,0.03,0.04,0.04c0.026,0.01,0.085,0.005,0.102-0.046c0.017-0.052-0.02-0.084-0.041-0.094c-0.023-0.009-0.126-0.035-0.198,0.093c-0.071,0.128,0.011,0.262,0.011,0.262s0.056,0.096,0.154,0.143c0.098,0.047,0.197,0.053,0.197,0.053s0.18,0.006,0.266-0.145c0.087-0.149,0.018-0.254,0.018-0.254s-0.022-0.043-0.046-0.074c-0.025-0.031-0.081-0.108-0.081-0.108l-0.06-0.077l-0.032-0.051l-0.017-0.033c0,0-0.037-0.082,0.027-0.116c0.063-0.036,0.15,0.037,0.15,0.037s0.067,0.054,0.103,0.129c0.036,0.073,0.042,0.141,0.042,0.141l0.004,0.054l0,0.007l0.025,0.004c0,0,0.016-0.108,0.031-0.148c0.014-0.04,0.039-0.101,0.039-0.101s-0.004-0.022-0.021-0.016C17.588,28.43,17.563,28.44,17.539,28.425z M19.519,29.467c-0.149-0.06-0.229-0.123-0.229-0.123l-0.146-0.109c0,0-0.043-0.035-0.081-0.055c-0.037-0.021-0.121-0.048-0.121-0.048s-0.085-0.023-0.134-0.016c-0.048,0.007-0.161,0.022-0.174,0.134c-0.011,0.109,0.167,0.143,0.225,0.087l0.021-0.017l0.01-0.011l-0.01-0.012l-0.024,0.009c0,0-0.084,0.016-0.112-0.037c-0.028-0.055,0.026-0.08,0.033-0.083c0.007-0.003,0.047-0.019,0.11-0.001c0.063,0.018,0.139,0.084,0.139,0.084l0.084,0.068c0,0,0.047,0.036,0.049,0.037c0.003,0.001,0.018,0.012,0.018,0.012l-0.053,0.02c0,0-0.072,0.018-0.14,0.066c-0.07,0.047-0.102,0.073-0.102,0.073l-0.006,0.003c0,0-0.045-0.018-0.08-0.016c-0.035,0.002-0.065,0.016-0.065,0.016l-0.025,0.016l0.01,0.023c0,0,0.031-0.011,0.058-0.004c0.027,0.005,0.039,0.024,0.039,0.024s-0.077,0.064-0.11,0.085c-0.032,0.023-0.089,0.064-0.15,0.083c-0.058,0.021-0.105,0.04-0.199,0.006c-0.093-0.035-0.125-0.122-0.133-0.161c-0.009-0.039,0-0.087,0.015-0.118s0.048-0.051,0.048-0.051s0.008,0.033,0.035,0.048c0.029,0.016,0.08,0.018,0.107-0.032c0.026-0.051-0.018-0.092-0.018-0.092s-0.069-0.059-0.149-0.002s-0.096,0.136-0.096,0.136s-0.04,0.115,0.04,0.238c0.079,0.122,0.226,0.14,0.226,0.14s0.107,0.019,0.232-0.026c0.126-0.045,0.22-0.128,0.22-0.128l0.064-0.053l0.034,0.017c0,0,0.043,0.029,0.09,0.02c0.047-0.009,0.086-0.033,0.086-0.033l0.01-0.008l-0.015-0.021c0,0-0.041,0.019-0.077,0.004c-0.034-0.015-0.065-0.039-0.065-0.039l0.077-0.066c0,0,0.077-0.054,0.097-0.066c0.02-0.011,0.091-0.042,0.091-0.042s0.09,0.047,0.184,0.074c0.094,0.028,0.159,0.036,0.159,0.036l0.129,0.012l0.033,0.001l0.003-0.026C19.781,29.544,19.668,29.527,19.519,29.467z"/></svg>