<svg xmlns="http://www.w3.org/2000/svg"  viewBox="0 0 48 48" width="1600px" height="1600px"><path fill="#c5cae9" d="M44,23.8c0-5.3-2.1-10.3-5.9-14C34.4,6.1,29.3,4,24,4S13.6,6.1,9.9,9.8C6.1,13.5,4,18.5,4,23.8 c0,2.1,0.3,4.1,0.9,6C7.3,38,14.9,44,24,44s16.7-6,19.1-14.2C43.7,27.9,44,25.9,44,23.8z"/><path fill="#9fa8da" d="M43.1,22.8C40.7,31,33.1,37,24,37S7.3,31,4.9,22.8c-0.3-0.8-0.4-1.6-0.6-2.5C4.1,21.5,4,22.6,4,23.8 c0,2.1,0.3,4.1,0.9,6C7.3,38,14.9,44,24,44s16.7-6,19.1-14.2c0.6-1.9,0.9-3.9,0.9-6c0-1.2-0.1-2.4-0.3-3.5 C43.5,21.1,43.3,22,43.1,22.8z"/><path fill="#e8eaf6" d="M14.1,38.7C15.4,39.5,17,40,17,40c1.7,0.5,4.6,1,6.8,0.9c3.2,0.1,5.1-0.2,7.1-0.9 c2.8-1,4.7-2.6,4.7-2.6s0.4-0.3,0.8-0.8c0.5-0.6,1-1.6,1-1.6s2.8-5,3.4-10.4c0.8-5.7-1-9.9-1-9.9s-0.2-0.6-0.5-1.2 c-0.4-0.6-0.9-1.3-0.9-1.3C34.4,8.4,29.5,7,23.8,7c-5.1,0-9.7,1.6-13.3,4.3c0,0-1.4,1.1-2.2,2.8c-0.8,1.6-1.1,3.7-1.1,3.7 S6.6,22.1,7.6,27c0.8,4.4,2.8,7.9,2.8,7.9s0.6,1.2,1.3,2C11.7,36.9,12.6,38,14.1,38.7z"/><path fill="#7986cb" d="M39.8,14.7c0,0-0.2-0.6-0.5-1.2c-0.4-0.6-0.9-1.3-0.9-1.3C34.4,8.4,29.5,7,23.8,7 c-5.1,0-9.7,1.6-13.3,4.3c0,0-1.4,1.1-2.2,2.8c-0.8,1.6-1.1,3.7-1.1,3.7S6.6,22.1,7.6,27c0.2,1.2,0.5,2.3,0.8,3.3 c-0.7-4.6-0.2-8.5-0.2-8.5s0.3-2.1,1.1-3.7c0.8-1.7,2.1-2.8,2.1-2.8c3.4-2.7,7.8-4.3,12.5-4.3c5.3,0,9.9,1.4,13.7,5.3 c0,0,0.5,0.6,0.8,1.3c0.3,0.6,0.5,1.2,0.5,1.2s1.7,4.2,1,9.9c0,0.3-0.1,0.6-0.1,1c0.5-1.5,0.9-3.2,1.1-5 C41.6,19,39.8,14.7,39.8,14.7z"/><path fill="#d50000" d="M22.8,38c0,0-2-0.1-3.8-0.5c-1.5-0.3-2.9-1-2.9-1l0,0l0,0c0,0-0.8-0.3-1.2-0.8 c-0.5-0.5-0.7-1.1-0.7-1.1c0,0-0.8-2.3-1.5-4.6c-0.6-2.2-1-4.6-1-4.6c0,0-0.5-2.5-0.6-5.1c-0.1-2.2,0.1-4.7,0.1-4.7 c0,0,0.1-1.5,0.7-2.5c0.5-0.9,1.5-1.3,1.6-1.3l0,0l0,0c0,0,1.2-0.6,3.4-1.1c1.8-0.4,4.3-0.7,6.3-0.7c2.4,0,4.9,0.1,6.8,0.4l0,0 c2.3,0.4,3.7,1,3.7,1l0,0l0,0c0,0,1.5,0.4,2.2,1.4c0.8,1,0.9,2.6,0.9,2.6l0,0c0,0,0.2,1.4,0.2,3.2c0,0.3,0,0.6,0,1 c-0.1,2.3-0.5,4.9-0.5,4.9c0,0-0.5,3-1.2,5.5c-0.5,1.9-1.1,3.5-1.1,3.5l0,0l0,0c0,0-0.2,0.8-0.5,1.4c-0.3,0.5-0.7,0.8-0.7,0.8l0,0 l0,0c0,0-0.3,0.2-0.7,0.5c-0.5,0.3-1.2,0.6-1.2,0.6c0,0-1.6,0.6-3.5,0.9C25.4,38,22.8,38,22.8,38z"/><path fill="#fff" d="M20 16H22V31H20zM31 16H33V31H31zM23 16H25V31H23z"/><path fill="#fff" d="M24 23H28V25H24z"/><path fill="#fff" d="M29 31h-2v-6c0-3.6-1.1-6-1.6-7H24v-2h2.5l.3.4c.1.1 2.2 3.3 2.2 8.6V31zM29 16H35V18H29zM17 31L15 31 15 16 19 16 19 18 17 18z"/><path fill="#fff" d="M16 23H19V25H16z"/></svg>