<svg xmlns="http://www.w3.org/2000/svg"  viewBox="0 0 48 48" width="1600px" height="1600px"><path fill="#303f9f" d="M47.853,23.304c0.009,0.044,0.016,0.087,0.023,0.131 C47.87,23.392,47.861,23.348,47.853,23.304 M24,14c-13.322,0-24,4.993-24,9.999C0,28.975,10.766,34,24,34 c13.234,0,24-5.038,24-10.001C48,19.037,37.234,14,24,14"/><path fill="#fff" d="M24,16c13.416,0,21.416,5.016,21.97,7.721l0.002,0.014l0.01,0.044C45.994,23.853,46,23.927,46,24 c0,2.821-8.353,8-22,8S2,26.82,2,24C2,21.284,9.765,16,24,16 M24,15c-13.758,0-23,5.136-23,9c0,3.783,9.445,9,23,9s23-5.217,23-9 c0-0.14-0.013-0.28-0.038-0.421l-0.074,0.011l0.072-0.018c-0.001-0.004-0.001-0.009-0.002-0.013l-0.073,0.01l0.071-0.017 C46.25,19.89,37.021,15,24,15L24,15z"/><path fill="#fff" d="M36.815,21.324c-0.09,0-0.136,0.011-0.178,0.094l0,0 c-0.139,0.267-1.834,2.807-2.149,3.3l0,0c-0.053,0.075-0.118,0.065-0.126-0.021l0,0c-0.032-0.293-0.285-0.629-0.684-0.791l0,0 c-0.303-0.123-0.601-0.146-0.909-0.105l0,0c-0.557,0.075-1.054,0.369-1.491,0.701l0,0c-0.659,0.5-1.226,1.149-1.959,1.627l0,0 c-0.4,0.261-0.948,0.489-1.314,0.149l0,0c-0.332-0.308-0.295-0.991,0.213-1.519l0,0c0.054-0.056,0.118-0.01,0.108,0.04l0,0 c-0.048,0.239,0.011,0.477,0.192,0.644l0,0c0.222,0.198,0.539,0.221,0.81,0.089l0,0c0.32-0.158,0.509-0.465,0.563-0.813l0,0 c0.085-0.539-0.33-1.015-0.85-1.053l0,0c-0.422-0.03-0.827,0.117-1.221,0.443l0,0c-0.197,0.164-0.31,0.285-0.481,0.528l0,0 c-0.042,0.059-0.106,0.065-0.104-0.023l0,0c0.02-0.691-0.266-1.079-0.837-1.092l0,0c-0.443-0.01-0.917,0.231-1.286,0.524l0,0 c-0.404,0.325-0.758,0.755-1.137,1.16l0,0c-0.047,0.05-0.089,0.048-0.102-0.048l0,0c-0.011-0.458-0.126-0.901-0.338-1.216l0,0 c-0.075-0.11-0.232-0.164-0.365-0.09l0,0c-0.061,0.033-0.274,0.131-0.429,0.256l0,0c-0.076,0.063-0.107,0.155-0.073,0.273l0,0 c0.204,0.683,0.16,1.46-0.118,2.116l0,0c-0.255,0.601-0.75,1.144-1.331,1.327l0,0c-0.383,0.122-0.782,0.062-1.028-0.277l0,0 c-0.338-0.469-0.202-1.284,0.303-1.961l0,0c0.446-0.596,1.089-0.974,1.732-1.219l0,0c0.076-0.029,0.091-0.078,0.07-0.142l0,0 c-0.035-0.105-0.091-0.249-0.113-0.315l0,0c-0.059-0.157-0.224-0.182-0.426-0.16l0,0c-0.467,0.054-0.888,0.214-1.304,0.437l0,0 c-1.089,0.583-1.635,1.712-1.874,2.316l0,0c-0.115,0.291-0.214,0.471-0.341,0.632l0,0c-0.171,0.216-0.387,0.412-0.782,0.759l0,0 c-0.035,0.031-0.062,0.097-0.032,0.159l0,0c0.041,0.083,0.246,0.373,0.303,0.398l0,0c0.064,0.031,0.139-0.012,0.168-0.034l0,0 c0.276-0.187,0.606-0.483,0.768-0.684l0,0c0.056-0.069,0.114-0.04,0.144,0.065l0,0c0.151,0.537,0.545,0.977,1.091,1.16l0,0 c0.999,0.337,2.035-0.151,2.817-1l0,0c0.497-0.539,0.676-0.887,0.867-1.122l0,0c0.322-0.4,0.959-1.295,1.718-1.869l0,0 c0.278-0.213,0.608-0.374,0.772-0.267l0,0c0.133,0.086,0.176,0.287-0.037,0.674l0,0c-0.773,1.413-1.911,3.071-2.12,3.474l0,0 c-0.038,0.069-0.006,0.125,0.068,0.125l0,0c0.405-0.002,0.806-0.001,1.173-0.001l0,0c0.061-0.003,0.089-0.031,0.119-0.075l0,0 c0.593-0.928,1.152-1.813,1.75-2.727l0,0c0.034-0.053,0.064-0.012,0.066,0.012l0,0c0.012,0.213,0.065,0.503,0.19,0.693l0,0 c0.226,0.352,0.547,0.503,0.903,0.506l0,0c0.282,0.003,0.426-0.04,0.73-0.153l0,0c0.249-0.093,0.449-0.213,0.601-0.323l0,0 c0.089-0.062,0.105,0.042,0.103,0.058l0,0c-0.137,0.737,0.033,1.611,0.765,1.973l0,0c0.877,0.432,1.841-0.176,2.396-0.724l0,0 c0.054-0.053,0.112-0.047,0.118,0.066l0,0c0.011,0.209,0.107,0.458,0.28,0.633l0,0c0.464,0.466,1.403,0.281,2.343-0.447l0,0 c0.604-0.466,1.236-1.125,1.807-1.823l0,0c0.022-0.027,0.037-0.07-0.006-0.115l0,0c-0.087-0.09-0.213-0.195-0.299-0.275l0,0 c-0.039-0.033-0.097-0.024-0.13,0.002l0,0c-0.585,0.556-1.112,1.191-1.874,1.716l0,0c-0.256,0.179-0.666,0.324-0.85,0.075l0,0 c-0.072-0.097-0.063-0.231,0.008-0.406l0,0c0.222-0.553,3.737-5.905,3.919-6.221l0,0c0.032-0.055,0-0.095-0.07-0.095l0,0 c-0.362,0-0.836,0.001-1.213,0.001 M31.242,27.9c-0.181-0.094-0.259-0.347-0.255-0.55l0,0c0.009-0.577,0.264-1.168,0.737-1.75l0,0 c0.577-0.709,1.214-1.078,1.633-0.876l0,0c0.433,0.206,0.294,0.708,0.101,1.101l0,0c-0.014,0.031-0.015,0.056-0.008,0.082l0,0 c0.007,0.041,0.06,0.08,0.112,0.099l0,0c0.019,0.007,0.029,0.02,0.008,0.063l0,0c-0.149,0.32-0.287,0.506-0.474,0.783l0,0 c-0.172,0.257-0.366,0.458-0.602,0.651l0,0c-0.274,0.226-0.629,0.468-0.964,0.468l0,0C31.433,27.971,31.335,27.95,31.242,27.9"/><path fill="#fff" d="M18.132,18.078c-0.336,0-0.672,0.013-1.012,0.04l0,0 c-2.16,0.182-4.215,1.399-4.22,3.244l0,0c0,0.937,0.664,1.695,1.695,1.662l0,0c1.212-0.041,2.207-1.012,2.728-2.236l0,0 c0.197-0.464-0.169-0.657-0.343-0.39l0,0c-0.311,0.482-0.749,0.855-1.223,1.087l0,0c-0.57,0.28-1.18,0.204-1.364-0.26l0,0 c-0.26-0.653,0.28-1.63,1.513-2.091l0,0c1.78-0.659,3.643-0.223,5.435,0.114l0,0c0.026,0,0.121,0.053,0.036,0.097l0,0 c-0.32,0.175-0.636,0.317-1.128,0.741l0,0c-0.354,0.302-0.815,0.704-1.173,1.143l0,0c-0.354,0.432-0.606,0.818-0.938,1.244l0,0 c-0.047,0.062-0.104,0.059-0.103,0.059l0,0c-0.811,0.137-1.605,0.228-2.332,0.734l0,0c-0.15,0.104-0.216,0.288-0.124,0.429l0,0 c0.082,0.125,0.269,0.138,0.398,0.044l0,0c0.452-0.338,0.917-0.497,1.45-0.511l0,0c0.023,0.001,0.034,0.006,0.041,0.019l0,0 c0.006,0.008,0,0.025-0.008,0.038l0,0c-0.799,1.108-0.999,1.358-1.599,2.045l0,0c-0.308,0.353-0.61,0.651-0.948,0.961l0,0 c-1.364,1.267-2.831,1.246-3.357,0.451l0,0c-0.314-0.477-0.273-0.977-0.066-1.393l0,0c0.253-0.509,0.766-0.881,1.192-1.099l0,0 c0.158-0.081,0.204-0.283,0.045-0.467l0,0c-0.1-0.121-0.345-0.142-0.527-0.109l0,0c-0.559,0.104-1.219,0.526-1.609,1.034l0,0 c-0.439,0.571-0.659,1.263-0.585,2.04l0,0c0.132,1.403,1.287,2.213,2.597,2.204l0,0c1.043-0.009,2.026-0.324,3.208-1.524l0,0 c1.103-1.12,2.106-2.791,3.046-4.341l0,0c0.029-0.05,0.05-0.077,0.193-0.094l0,0c0.589-0.073,1.46-0.158,2.018-0.19l0,0 c0.125-0.007,0.15-0.005,0.199,0.057l0,0c0.146,0.183,0.364,0.339,0.539,0.433l0,0c0.085,0.047,0.126,0.069,0.193,0.071l0,0 c0.083,0.002,0.147-0.043,0.188-0.09l0,0c0.059-0.065,0.076-0.149,0.044-0.204l0,0c-0.033-0.057-0.423-0.273-0.435-0.36l0,0 c-0.009-0.055,0.051-0.068,0.051-0.068l0,0c0.286-0.09,0.584-0.274,0.764-0.62l0,0c0.177-0.34,0.206-0.795-0.119-1.047l0,0 c-0.284-0.221-0.714-0.186-1.057,0.121l0,0c-0.335,0.299-0.447,0.734-0.401,1.115l0,0c0.008,0.066,0.006,0.089-0.086,0.096l0,0 c-0.516,0.041-1.013,0.055-1.566,0.084l0,0c-0.037,0.003-0.048-0.022-0.027-0.048l0,0c0.636-1.106,1.587-1.893,2.637-2.668l0,0 c0.069-0.052,0.048-0.151,0.045-0.234l0,0c1.898,0.412,3.731,1.18,5.701,1.163l0,0c0.814-0.007,1.593-0.13,2.337-0.539l0,0 c0.655-0.358,0.922-0.688,0.941-1.031l0,0c0.016-0.238-0.149-0.387-0.384-0.337l0,0c-1.989,0.457-3.886,0.452-5.866,0.213l0,0 c-2.245-0.272-4.399-0.832-6.633-0.832l0,0c0,0,0,0-0.006,0 M21.559,22.064c-0.029-0.21,0.04-0.492,0.264-0.691l0,0 c0.112-0.1,0.265-0.123,0.359-0.043l0,0c0.105,0.09,0.055,0.313-0.051,0.468l0,0c-0.115,0.171-0.312,0.318-0.491,0.354l0,0 c-0.006,0.001-0.01,0.002-0.015,0.002l0,0C21.597,22.153,21.572,22.132,21.559,22.064"/></svg>