<svg xmlns="http://www.w3.org/2000/svg"  viewBox="0 0 48 48" width="1600px" height="1600px"><path fill="#c62828" d="M0 20.85c0 1.149 0 4.51 0 6.282 0 1.767 1.056 2.826 2.894 2.826h8.999c1.901 0 3.106-.966 3.106-2.734V23H7v3h5v.221C12 26.832 11.664 27 11.22 27H3.8C3.192 27 3 26.686 3 26.194v-4.483C3 21.177 3.299 21 3.626 21H15v-3H2.87C.994 18 0 19.149 0 20.85zM26 29L29 22 29 30 32 30 32 18 27.974 18 24.501 26.08 21.017 18 17 18 17 30 20 30 20 22 23 29zM48 30v-3H37.8c-.606 0-.8-.313-.8-.801v-4.526c0-.53.297-.715.628-.715H48V18H36.866C34.99 18 34 19.149 34 20.85c0 1.149 0 4.551 0 6.324C34 28.941 35.051 30 36.889 30H48z"/></svg>