<svg xmlns="http://www.w3.org/2000/svg"  viewBox="0 0 48 48" width="1600px" height="1600px"><path fill="#0277bd" d="M41.469,15.056c-1.203-0.68-2.468-1.23-3.747-1.732c-5.727-2.089-12.459-2.817-18.856-1.991 c-5.895,0.859-11.622,2.348-16.115,6.687c-2.148,2.121-3.427,5.31-2.376,8.37c1.371,3.724,5.027,6.201,8.287,7.642 c9.641,4.144,22.755,3.999,32.092-0.745c3.198-1.717,6.778-4.566,7.219-8.646C48.353,20.237,44.698,16.935,41.469,15.056z M19.877,16.732c0.806-1.685,2.236-3.664,4.213-3.696c2.612-0.02,5.131,0.233,7.57,0.694c0.092,0.018,0.184,0.034,0.275,0.053 c0.259,0.051,0.516,0.108,0.773,0.163c1.35,0.302,2.659,0.676,3.915,1.116c0.077,0.05,0.147,0.109,0.197,0.198 c0.122,0.278-0.122,0.458-0.259,0.638c-3.148,2.649-6.752,4.121-10.433,5.413c-1.871,0.491-3.757,1.374-5.84,0.883 c-0.487-0.131-0.928-0.474-1.201-0.982C18.569,19.675,19.269,18.073,19.877,16.732z M7.148,30.501 c-0.187,0.189-0.372,0.207-0.554,0.147c-1.754-1.15-3.542-2.775-4.328-4.909c-0.088-0.257-0.141-0.514-0.185-0.769 c-0.014-0.083-0.029-0.167-0.04-0.251c-0.03-0.251-0.045-0.501-0.037-0.747c0-0.029,0.003-0.058,0.003-0.086 c0.085-1.757,1.057-3.365,2.133-4.427c3.381-3.266,7.549-4.738,11.763-5.59c0.173,0,0.35,0.021,0.43,0.182l-0.061,0.245 C12.273,19.184,9.642,24.859,7.148,30.501z M27.573,32.382c-0.774,1.291-1.979,2.419-3.432,2.613 c-0.057,0-0.112,0.005-0.169,0.005c-0.541,0-1.078-0.017-1.614-0.037c-0.313-0.013-0.625-0.03-0.937-0.05 c-0.636-0.039-1.267-0.092-1.893-0.16c-0.554-0.061-1.106-0.128-1.653-0.212c-0.368-0.056-0.733-0.118-1.096-0.184 c-0.488-0.088-0.97-0.191-1.451-0.296c-1.366-0.304-2.691-0.677-3.959-1.125c-0.062-0.051-0.12-0.108-0.159-0.178 c-0.076-0.229,0.031-0.442,0.182-0.589c3.361-2.928,7.361-4.285,11.315-5.708c1.475-0.458,3.042-0.949,4.699-0.719 c0.684,0.098,1.368,0.606,1.612,1.293C29.382,29.063,28.394,30.747,27.573,32.382z M45.989,24.118 c-0.008,0.294-0.04,0.593-0.102,0.899c-0.024,0.11-0.057,0.217-0.087,0.325c-0.03,0.11-0.06,0.221-0.095,0.328 c-0.903,2.675-3.615,4.629-5.859,5.834c-2.149,1.092-4.583,1.94-7.177,2.531c-0.209,0.032-0.414,0.077-0.627,0.099 c-0.122-0.016-0.319,0.016-0.35-0.18l0.045-0.229c2.768-3.353,4.866-7.114,6.707-10.925c0.851-1.717,1.643-3.483,2.372-5.217 c0.106-0.131,0.213-0.196,0.335-0.245c0.117,0.011,0.222,0.054,0.329,0.091c1.366,0.925,3.142,2.409,4.005,4.302 c0.014,0.031,0.028,0.063,0.041,0.094c0.073,0.166,0.138,0.336,0.195,0.509c0.077,0.24,0.148,0.481,0.192,0.731 c0.006,0.032,0.006,0.065,0.012,0.096c0.042,0.267,0.064,0.539,0.064,0.817C45.992,24.024,45.99,24.071,45.989,24.118z"/></svg>