<svg xmlns="http://www.w3.org/2000/svg"  viewBox="0 0 48 48" width="1600px" height="1600px"><path fill="#9fa8da" d="M47.904,22.789C46.982,14.818,36.926,9,24,9C11.23,9,1.182,14.733,0.109,22.632 c-0.067,0.435-0.105,0.9-0.109,1.349c-0.017,1.839,0.421,3.411,1.34,4.804c4.322,6.557,14.598,8.733,15.04,8.836L18,38l6-14l6,14 l1.62-0.378c0.442-0.103,10.718-2.279,15.04-8.836c0.919-1.394,1.357-2.965,1.34-4.804C47.997,23.618,47.966,23.24,47.904,22.789z M44.99,27.685C41.057,33.652,31,36,31,36l-7-16l-7,16c0,0-10.057-2.348-13.99-8.315C2.253,26.536,1.988,25.294,2,24 c0.003-0.36,0.034-0.727,0.091-1.099C3.009,16.146,12.292,11,24,11c11.8,0,21.132,5.229,21.922,12.063 C45.966,23.379,45.997,23.693,46,24C46.012,25.294,45.747,26.536,44.99,27.685z"/><path fill="#7986cb" d="M31 36L24 20 17 36 18 38 24 24 30 38z"/><path fill="#c5cae9" d="M45.922,23.063C45.132,16.229,35.8,11,24,11C12.292,11,3.009,16.146,2.091,22.901 C2.034,23.273,2.003,23.64,2,24c-0.012,1.294,0.253,2.536,1.01,3.685C6.943,33.652,17,36,17,36l7-16l7,16 c0,0,10.057-2.348,13.99-8.315C45.747,26.536,46.012,25.294,46,24C45.997,23.693,45.966,23.379,45.922,23.063z M35,31L24,18L13,31 c0,0-9-2.543-9-7c0-0.332,0.038-0.659,0.091-0.983c0.017-0.102,0.037-0.204,0.059-0.306c0.054-0.254,0.125-0.506,0.21-0.754 c0.025-0.073,0.043-0.147,0.07-0.22C6.333,16.754,14.383,13,24,13c8.807,0,16.287,3.151,18.949,7.508 c0.113,0.189,0.217,0.38,0.313,0.572c0.057,0.113,0.109,0.226,0.159,0.34c0.089,0.203,0.171,0.407,0.24,0.613 c0.049,0.147,0.086,0.296,0.124,0.445c0.044,0.17,0.092,0.341,0.122,0.512C43.962,23.323,44,23.659,44,24C44,28.457,35,31,35,31z"/></svg>