<svg xmlns="http://www.w3.org/2000/svg"  viewBox="0 0 48 48" width="1600px" height="1600px"><path fill="#242424" d="M5.43,20.662L24,2.001l18.423,18.266c1.977,1.932,2.011,5.097,0.075,7.071L24,45.999L5.506,27.732	C3.529,25.801,3.495,22.635,5.43,20.662z"/><path fill="#fff" d="M7.114,26.748C6.396,26.013,6,25.038,6,24s0.396-2.013,1.114-2.748L24,4l16.886,17.252	C41.604,21.987,42,22.962,42,24s-0.396,2.013-1.114,2.748L24,44L7.114,26.748z"/><polygon fill="#242424" points="39.49,21.67 36.31,21.33 24,20 11.67,21.33 8.51,21.67 24,6.24"/><polygon fill="#242424" points="39,27 24,41.76 9,27"/><polygon fill="#fb8c00" points="21.69,28 21.13,36.08 13.02,28"/><polygon fill="#fb8c00" points="35,28 26.87,36.09 26.31,28"/><polygon fill="#fb8c00" points="23.57,9.53 22.36,19.18 12.8,20.21"/><polygon fill="#fb8c00" points="35.19,20.21 25.65,19.18 24.54,9.54"/><polygon fill="#242424" points="9.756,22.989 9.756,25.609 9,25.609 9,23.071"/><polygon fill="#242424" points="12.315,22.719 12.315,25.609 11.818,25.609 11.238,24.511 11.238,25.609 10.471,25.609 10.471,22.916 11.01,22.854 11.652,24.014 11.652,22.792"/><polygon fill="#242424" points="34.287,22.584 34.287,25.609 33.769,25.609 33.116,24.294 33.116,25.609 32.37,25.609 32.37,22.377 32.961,22.439 33.593,23.797 33.593,22.512"/><polygon fill="#242424" points="22.187,21.652 22.187,25.609 21.638,25.609 21.027,24.056 21.027,25.609 20.26,25.609 20.26,21.859 20.789,21.807 21.431,23.32 21.431,21.735"/><path fill="#242424" d="M24.456,21.528l-0.539-0.062l-0.342,0.041l-0.839,4.102h0.849l0.083-0.632h0.684l0.145,0.632h0.767 L24.456,21.528z M23.731,24.159l0.28-1.378l0.269,1.378H23.731z"/><path fill="#242424" d="M36.431,22.823l-1.057-0.124l-0.601,2.911h0.694l0.114-0.549h0.559l0.145,0.549h0.725L36.431,22.823 z M35.633,24.501l0.228-1.15l0.238,1.15H35.633z"/><path fill="#242424" d="M18.997,24.118c0,0,0.477-0.124,0.477-1.047c0-0.58-0.269-0.911-0.477-1.077l-1.43,0.156v3.46h0.601 v-1.471l0.694,1.471h0.829L18.997,24.118z M18.841,23.506h-0.642v-0.725h0.642V23.506z"/><polygon fill="#242424" points="14.573,22.471 14.573,23.227 14.097,23.227 14.097,25.609 13.351,25.609 13.351,23.351 12.823,23.351 12.823,22.667"/><polygon fill="#242424" points="27.45,21.849 27.45,22.584 26.776,22.584 26.776,25.609 26.03,25.609 26.03,22.46 25.378,22.46 25.378,21.621"/><polygon fill="#242424" points="16.728,23.03 16.728,22.243 15.195,22.408 15.195,22.833 15.19,22.833 15.19,23.538 15.19,24.279 15.19,24.868 15.19,25.116 15.19,25.609 16.727,25.609 16.727,24.868 15.81,24.868 15.81,24.279 16.727,24.279 16.727,23.538 15.81,23.538 15.81,23.03"/><polygon fill="#242424" points="28.921,22.004 28.921,25.609 28.081,25.609 28.081,21.911"/><polygon fill="#242424" points="37.995,22.989 37.995,25.609 37.353,25.609 37.353,22.916"/><rect width="1.243" height=".653" x="37.757" y="24.957" fill="#242424"/><path fill="#242424" d="M31.179,22.253L30.34,22.16c-0.373-0.041-0.694,0.249-0.694,0.622v2.206 c0,0.342,0.28,0.622,0.622,0.622h0.839c0.342,0,0.622-0.28,0.622-0.622v-2.124C31.728,22.553,31.49,22.284,31.179,22.253z M31.065,24.884h-0.684v-2.01h0.684V24.884z"/></svg>