<svg xmlns="http://www.w3.org/2000/svg"  viewBox="0 0 48 48" width="1600px" height="1600px"><g data-name="IVECO"><rect width="3" height="10" x="2" y="19" fill="#0b447c" rx=".5"/><path fill="#0b447c" d="M7.457,19H9.284a.479.479,0,0,1,.44.4l1.294,5.505a.449.449,0,0,0,.878,0L13.19,19.4a.479.479,0,0,1,.439-.4h.914a.538.538,0,0,1,.446.676L13.431,27.9A1.341,1.341,0,0,1,12.122,29H9.878a1.341,1.341,0,0,1-1.309-1.1l-1.558-8.22A.538.538,0,0,1,7.457,19Z"/><path fill="#0b447c" d="M25,19.556v1.111a.564.564,0,0,1-.571.555H21a.563.563,0,0,0-.571.556v1.111h2.857a.564.564,0,0,1,.571.555v1.112a.564.564,0,0,1-.571.555H20.429v1.111a.563.563,0,0,0,.571.556h3.429a.564.564,0,0,1,.571.555v1.111a.564.564,0,0,1-.571.556H18.143A1.127,1.127,0,0,1,17,27.889V20.111A1.127,1.127,0,0,1,18.143,19h6.286A.564.564,0,0,1,25,19.556Z"/><path fill="#0b447c" d="M34.429,19h-4A3.382,3.382,0,0,0,27,22.333v3.334A3.382,3.382,0,0,0,30.429,29h4A.564.564,0,0,0,35,28.444V27.333a.564.564,0,0,0-.571-.555H31.571a1.127,1.127,0,0,1-1.142-1.111V22.333a1.127,1.127,0,0,1,1.142-1.111h2.858A.564.564,0,0,0,35,20.667V19.556A.564.564,0,0,0,34.429,19Z"/><path fill="#0b447c" d="M43,19H41a4.24,4.24,0,0,0-4,4.444v1.112A4.24,4.24,0,0,0,41,29h2a4.24,4.24,0,0,0,4-4.444V23.444A4.24,4.24,0,0,0,43,19Zm1,5.556a2.011,2.011,0,1,1-4,0V23.444a2.011,2.011,0,1,1,4,0Z"/></g></svg>