<svg xmlns="http://www.w3.org/2000/svg"  viewBox="0 0 48 48" width="1600px" height="1600px"><path fill="#7986cb" d="M47.531,29c-0.223-0.061-0.694,0.139-1.441,0.573c0,0-0.792,0.412-2.09,0.412 c-1,0-3.081-1.474-3.813-1.938c-3.725-2.358-5.103-3.297-8.156-4.969c-7.356-4.026-13.491-6.108-18.186-7.439 c-2.918-0.827-4.656-1.53-6.845-1.655c-2.818-0.16-5.582,1.094-5.826,2.161c-0.04,0.176-0.321,0.573-0.624,0.884 C0.215,17.373,0,17.701,0,17.866c0,0.447,0.671,1.188,1.187,1.31c0.249,0.059,0.595,0.145,0.771,0.191 c0.042,0.011,0.065,0.014,0.096,0.021c-0.034,0.078-0.044,0.224-0.055,0.505C1.954,21.059,2.65,21.38,3.472,20.53 C4,19.984,5,19.984,6,19.984c2,0,3.326,0.263,4,1L11,22h-1c-1.448,0.112-2.752,0.476-3.319,1.097 c-0.432,0.473-0.661,0.985-0.68,1.466c-0.016,0.397,0.112,0.774,0.388,1.092C6.78,26.007,7,26,7.419,26C8.671,26,8.534,25.033,9,25 c0.53-0.037,2,1,5,1c1.656,0,3-1,3-1s0.944,1,6,1c3.632,0,3.076,0.326,4,2c0.521,0.833,2,3,6,3c3,0,3.732,0.394,5.144,1.248 c0.497,0.301,0.93,0.549,0.961,0.552c0.031,0.003,1.871,1.589,2.136,1.755c0.155,0.097,0.486,0.249,0.735,0.339 c0.249,0.089,0.678,0.115,0.957,0.115c0.069,0,1.069,0.001,1.069-1.371v-0.628c0,0,1.631-0.059,2.66-1.07 c0.266-0.151,1.138-1.63,1.264-1.929C48.113,29.566,47.935,29.111,47.531,29z"/><path fill="#e8eaf6" d="M47.531,29c-0.223-0.061-0.694,0.139-1.441,0.573c0,0-0.792,0.412-2.09,0.412 c-1,0-3.081-1.474-3.813-1.938c-3.725-2.358-5.103-3.297-8.156-4.969c-7.356-4.026-13.491-6.108-18.186-7.439 c-2.918-0.827-4.656-1.53-6.845-1.655c-2.818-0.16-5.582,1.094-5.826,2.161c-0.04,0.176-0.321,0.573-0.624,0.884 C0.215,17.373,0,17.701,0,17.866c0,0.447,0.671,1.188,1.187,1.31c0.249,0.059,0.595,0.145,0.771,0.191 c0.042,0.011,0.065,0.014,0.096,0.021c-0.034,0.078-0.044,0.224-0.055,0.505C1.954,21.059,2.65,21.38,3.472,20.53 C4,19.984,5,19.984,6,19.984c2,0,3.326,0.263,4,1L11,22h-1c-1.448,0.112-2.752,0.476-3.319,1.097 c-0.432,0.473-0.661,0.985-0.68,1.466c-0.016,0.397,0.112,0.774,0.388,1.092C6.78,26.007,7,26,7.419,26C8.671,26,8.534,25.033,9,25 c0.53-0.037,2,1,5,1c1.656,0,3-1,3-1s0.944,1,6,1c3.632,0,3.076,0.326,4,2c0.521,0.833,2,3,6,3c3,0,3.732,0.394,5.144,1.248 c0.497,0.301,0.93,0.549,0.961,0.552c0.031,0.003,1.871,1.589,2.136,1.755c0.155,0.097,0.486,0.249,0.735,0.339 c0.249,0.089,0.678,0.115,0.957,0.115c0.069,0,1.069,0.001,1.069-1.371v-0.628c0,0,1.631-0.059,2.66-1.07 c0.266-0.151,1.138-1.63,1.264-1.929C48.113,29.566,47.935,29.111,47.531,29z"/><path fill="#7986cb" d="M40.431,31.349c-0.334-0.358-0.923-1.592-1.161-1.985c-0.642-1.06-1.13-1.347-2.777-1.347 c-1.494,0-1.816-0.742-2.341-0.959c-0.182-0.075-0.192-0.06-0.068,0.108C34.376,27.559,35.18,29,36.348,29 c1.652,0,1.798,0.182,2.088,0.694c0.321,0.567,1.015,1.44,1.776,1.941C40.581,31.878,40.977,32,40.999,32 S40.765,31.707,40.431,31.349z"/><path fill="#7986cb" d="M40.431 31.349c-.334-.358-.923-1.592-1.161-1.985-.642-1.06-1.13-1.347-2.777-1.347-1.494 0-1.816-.742-2.341-.959-.182-.075-.192-.06-.068.108C34.376 27.559 35.18 29 36.348 29c1.652 0 1.798.182 2.088.694.321.567 1.015 1.44 1.776 1.941C40.581 31.878 40.977 32 40.999 32S40.765 31.707 40.431 31.349zM44.001 32.009c-1 0-2 0-2 0s1 .634 1 1.525c0 .393-.142.475-1 .475-1.345 0-1.026.38-.76.546.155.097.486.249.735.339.249.089.678.115.957.115.069 0 1.069.001 1.069-1.371v-.628c0 0 2.042-.064 2.999-1.46C47.086 31.086 46.522 32.009 44.001 32.009z"/><path fill="#7986cb" d="M44.001,32.009c-1,0-2,0-2,0s1,0.634,1,1.525c0,0.393-0.142,0.475-1,0.475 c-1.345,0-1.026,0.38-0.76,0.546c0.155,0.097,0.486,0.249,0.735,0.339c0.249,0.089,0.678,0.115,0.957,0.115 c0.069,0,1.069,0.001,1.069-1.371v-0.628c0,0,2.042-0.064,2.999-1.46C47.086,31.086,46.522,32.009,44.001,32.009z"/><g><path fill="#7986cb" d="M47.531,29c-0.223-0.061-0.694,0.139-1.441,0.573c0,0-0.792,0.412-2.09,0.412 c-1,0-3.081-1.474-3.813-1.938c-3.725-2.358-5.103-3.297-8.156-4.969c-7.356-4.026-13.491-6.108-18.186-7.439 c-2.918-0.827-4.656-1.53-6.845-1.655c-2.818-0.16-5.582,1.094-5.826,2.161c-0.04,0.176-0.321,0.573-0.624,0.884 C0.215,17.373,0,17.701,0,17.866c0,0.447,0.671,1.188,1.187,1.31c0.249,0.059,0.595,0.145,0.771,0.191 c0.313,0.082,0.317,0.075,0.244-0.351c-0.05-0.295-0.016-0.559,0.108-0.821c0.255-0.542,0.672-0.511,0.951,0.07 c0.191,0.398-0.134,0.437-0.403,0.812c-0.187,0.261-0.304,0.318-0.537,0.262c-0.289-0.07-0.299-0.053-0.322,0.555 C1.954,21.059,2.65,21.38,3.472,20.53C4,19.984,5,19.984,6,19.984c2,0,3.326,0.263,4,1c0,0-0.601-0.982-1.178-1.43 C8.546,19.339,8,19.016,7,19s-1.896-0.016-2.529-0.016c-0.435,0-0.147-1.048-0.771-1.638c-0.253-0.239-0.347-0.362-0.7-0.362 s-0.46,0.107-0.929,0.6c-0.91,0.955-1.761-0.068-0.082-0.576C2.749,16.777,3.261,16.307,3,16.117 c-0.327-0.238-0.987-0.397-0.187-0.681c0.595-0.211,1.123-0.452,2.598-0.452c1.214,0,2.233,0.139,1.14,0.756 C6.058,16.018,6,16.279,6,16.328C6,17.227,7,17,9,18c-0.844-1.172-1.813-1.656-1.813-1.656l0.628-0.646 c0.571-0.472,0.533-0.527,1.663-0.345c2.029,0.327,3.869,1.132,4.955,2.179c0.285,0.275,0.542,0.48,0.567,0.453v-1 c0.072-0.079,1.413,0.4,2.857,0.888c2.152,0.727,8.241,3.049,8.155,3.143c-0.021,0.023-0.605,0.149-1.059,0.22 c-1.205,0.187-1.365,0.749,0.047,0.749c0.879,0,1.258-0.009,2.035,0.388c1.129,0.577,1.271,0.706,2.365,1.718 c0.844,0.78,2.444,1.894,2.598,1.894c0.038,0-0.583-0.753-1.38-1.674c-0.797-0.921-1.308-1.483-1.33-1.554 c-0.09-0.295,5.632,2.975,9.081,5.19c2.009,1.29,4.373,2.681,5.142,2.936c0.216,0.071,0.479,0.105,0.766,0.103 c0.614-0.004,1.418-0.372,2.032-0.667c0.894-0.43,0.989-0.439,1.147,0.018c0.094,0.272,0.326,0.011,0.469-0.326 C48.113,29.566,47.935,29.111,47.531,29z"/><path fill="#7986cb" d="M47.531,29c-0.223-0.061-0.694,0.139-1.441,0.573c0,0-0.792,0.412-2.09,0.412 c-1,0-3.081-1.474-3.813-1.938c-3.725-2.358-5.103-3.297-8.156-4.969c-7.356-4.026-13.491-6.108-18.186-7.439 c-2.918-0.827-4.656-1.53-6.845-1.655c-2.818-0.16-5.582,1.094-5.826,2.161c-0.04,0.176-0.321,0.573-0.624,0.884 C0.215,17.373,0,17.701,0,17.866c0,0.447,0.671,1.188,1.187,1.31c0.249,0.059,0.595,0.145,0.771,0.191 c0.313,0.082,0.317,0.075,0.244-0.351c-0.05-0.295-0.016-0.559,0.108-0.821c0.255-0.542,0.672-0.511,0.951,0.07 c0.191,0.398-0.134,0.437-0.403,0.812c-0.187,0.261-0.304,0.318-0.537,0.262c-0.289-0.07-0.299-0.053-0.322,0.555 C1.954,21.059,2.65,21.38,3.472,20.53C4,19.984,5,19.984,6,19.984c2,0,3.326,0.263,4,1c0,0-0.601-0.982-1.178-1.43 C8.546,19.339,8,19.016,7,19s-1.896-0.016-2.529-0.016c-0.435,0-0.147-1.048-0.771-1.638c-0.253-0.239-0.347-0.362-0.7-0.362 s-0.46,0.107-0.929,0.6c-0.91,0.955-1.761-0.068-0.082-0.576C2.749,16.777,3.261,16.307,3,16.117 c-0.327-0.238-0.987-0.397-0.187-0.681c0.595-0.211,1.123-0.452,2.598-0.452c1.214,0,2.233,0.139,1.14,0.756 C6.058,16.018,6,16.279,6,16.328C6,17.227,7,17,9,18c-0.844-1.172-1.813-1.656-1.813-1.656l0.628-0.646 c0.571-0.472,0.533-0.527,1.663-0.345c2.029,0.327,3.869,1.132,4.955,2.179c0.285,0.275,0.542,0.48,0.567,0.453v-1 c0.072-0.079,1.413,0.4,2.857,0.888c2.152,0.727,8.241,3.049,8.155,3.143c-0.021,0.023-0.605,0.149-1.059,0.22 c-1.205,0.187-1.365,0.749,0.047,0.749c0.879,0,1.258-0.009,2.035,0.388c1.129,0.577,1.271,0.706,2.365,1.718 c0.844,0.78,2.444,1.894,2.598,1.894c0.038,0-0.583-0.753-1.38-1.674c-0.797-0.921-1.308-1.483-1.33-1.554 c-0.09-0.295,5.632,2.975,9.081,5.19c2.009,1.29,4.373,2.681,5.142,2.936c0.216,0.071,0.479,0.105,0.766,0.103 c0.614-0.004,1.418-0.372,2.032-0.667c0.894-0.43,0.989-0.439,1.147,0.018c0.094,0.272,0.326,0.011,0.469-0.326 C48.113,29.566,47.935,29.111,47.531,29z"/></g><g><path fill="#7986cb" d="M38.483,32.117c-1.306-1.326-2.6-2.108-5.233-2.117c-0.901-0.003-1.853-0.059-2.116-0.126 c-1.549-0.392-2.907-1.294-3.69-3.067c-0.374-0.846-0.577-1.155-0.928-1.41c0,0-0.058-0.398-3.517-0.398 c-2.479,0-3.587,0.131-5.25-0.771C17.232,23.948,17.054,23.712,17,23v-1.422c0,0,0.766,0.418,1.531,0.418 c1.031,0,1.484-0.481,1.484-0.481C17.938,21.297,16,20,16,20s0,1,0,2c0,2-1.117,3.002-2,3c-0.867-0.002-1.511,0.063-3-0.458 c-1.254-0.439-2.279-0.688-2.698-0.444C8.078,24.229,7.971,24.333,8,24.529c0,0.002-0.007,0.006-0.007,0.008 C7.972,24.795,7.763,25,7.5,25c-0.244,0-0.438-0.179-0.482-0.411C7.013,24.573,7,24.562,7,24.541c0-0.008,0.003-0.016,0.003-0.024 C7.003,24.511,7,24.506,7,24.5c0-0.035,0.013-0.066,0.02-0.1c0.1-0.771,1.032-1.4,3.584-1.4H13c0,0,1,0,1-0.515 c-0.95-0.34-1.735-0.944-2-1.265c-0.314-0.381-0.541-1.105-0.545-1.74c-0.003-0.532-0.02-0.569-0.16-0.366 C10.988,19.558,11,21,11,21v1h-1c-1.448,0.112-2.752,0.476-3.319,1.097c-0.432,0.473-0.661,0.985-0.68,1.466 c-0.016,0.397,0.112,0.774,0.388,1.092C6.78,26.007,7,26,7.419,26C8.671,26,8.534,25.033,9,25c0.53-0.037,2,1,5,1c1.656,0,3-1,3-1 s0.944,1,6,1c3.632,0,3.076,0.326,4,2c0.521,0.833,2,3,6,3c3,0,3.732,0.394,5.144,1.248c0.497,0.301,0.93,0.549,0.961,0.552 C39.136,32.802,38.856,32.495,38.483,32.117z"/><path fill="#7986cb" d="M38.483,32.117c-1.306-1.326-2.6-2.108-5.233-2.117c-0.901-0.003-1.853-0.059-2.116-0.126 c-1.549-0.392-2.907-1.294-3.69-3.067c-0.374-0.846-0.577-1.155-0.928-1.41c0,0-0.058-0.398-3.517-0.398 c-2.479,0-3.587,0.131-5.25-0.771C17.232,23.948,17.054,23.712,17,23v-1.422c0,0,0.766,0.418,1.531,0.418 c1.031,0,1.484-0.481,1.484-0.481C17.938,21.297,16,20,16,20s0,1,0,2c0,2-1.117,3.002-2,3c-0.867-0.002-1.511,0.063-3-0.458 c-1.254-0.439-2.279-0.688-2.698-0.444C8.078,24.229,7.971,24.333,8,24.529c0,0.002-0.007,0.006-0.007,0.008 C7.972,24.795,7.763,25,7.5,25c-0.244,0-0.438-0.179-0.482-0.411C7.013,24.573,7,24.562,7,24.541c0-0.008,0.003-0.016,0.003-0.024 C7.003,24.511,7,24.506,7,24.5c0-0.035,0.013-0.066,0.02-0.1c0.1-0.771,1.032-1.4,3.584-1.4H13c0,0,1,0,1-0.515 c-0.95-0.34-1.735-0.944-2-1.265c-0.314-0.381-0.541-1.105-0.545-1.74c-0.003-0.532-0.02-0.569-0.16-0.366 C10.988,19.558,11,21,11,21v1h-1c-1.448,0.112-2.752,0.476-3.319,1.097c-0.432,0.473-0.661,0.985-0.68,1.466 c-0.016,0.397,0.112,0.774,0.388,1.092C6.78,26.007,7,26,7.419,26C8.671,26,8.534,25.033,9,25c0.53-0.037,2,1,5,1c1.656,0,3-1,3-1 s0.944,1,6,1c3.632,0,3.076,0.326,4,2c0.521,0.833,2,3,6,3c3,0,3.732,0.394,5.144,1.248c0.497,0.301,0.93,0.549,0.961,0.552 C39.136,32.802,38.856,32.495,38.483,32.117z"/></g></svg>