<svg xmlns="http://www.w3.org/2000/svg"  viewBox="0 0 48 48" width="1600px" height="1600px"><path fill="#455a64" d="M12,14v10.64C12,26.39,11.33,30,6,30c-5.34,0-6-3.36-6-5.28V23h3.72v1.69 c0,1.12,0.74,2.16,2.16,2.16c1.4,0,2.27-0.79,2.27-2.13V14H12z"/><path fill="#455a64" d="M18.156,27.532c-1.153,0-1.805-0.9-1.805-2.532H23c0-5.113-2.727-6-5-6c-4.091,0-5,3.1-5,5.759 c0,2.654,1.818,5.24,5,5.24c2.961,0,4.957-1.949,4.957-3.416h-3.265C19.692,26.584,19.312,27.532,18.156,27.532z M17.965,21.221 c1.228,0,1.769,0.954,1.769,1.946h-3.383C16.351,22.1,16.77,21.221,17.965,21.221z"/><path fill="#455a64" d="M29.156,27.532c-1.153,0-1.805-0.9-1.805-2.532H34c0-5.113-2.727-6-5-6c-4.091,0-5,3.1-5,5.759 c0,2.654,1.818,5.24,5,5.24c2.961,0,4.957-1.949,4.957-3.416h-3.265C30.692,26.584,30.312,27.532,29.156,27.532z M28.965,21.221 c1.228,0,1.769,0.954,1.769,1.946h-3.383C27.351,22.1,27.77,21.221,28.965,21.221z"/><path fill="#455a64" d="M42.386,19C40,19,39.126,20.518,39,20.789V19h-4v15l4,0v-5c0.147,0.196,1.012,1.419,3.428,1.419 c2.897,0,4.572-2.493,4.572-5.898C47,20.113,44.189,19,42.386,19z M41.296,27.88c-1.763,0-2.337-1.115-2.296-3.235 c0.046-2.121,0.998-2.989,2.127-2.989c1.846,0,2.187,1.409,2.187,2.865C43.314,25.975,43.055,27.88,41.296,27.88z"/></svg>