<svg xmlns="http://www.w3.org/2000/svg"  viewBox="0 0 48 48" width="1600px" height="1600px"><circle cx="24" cy="20" r="13" fill="#d32f2f"/><circle cx="24" cy="20" r="11" fill="#fff"/><circle cx="24" cy="20" r="10" fill="#d32f2f"/><polygon fill="#fff" points="23.1,16.9 23,16.79 23,16.75"/><polygon fill="#fff" points="24.66,16.36 27,19 24.57,19 23.1,16.9 23,16.75 23,19 21,19 21,13 23,13 23,15.85 25,13 27,13"/><polygon fill="#fff" points="25.051,27.316 24,24.162 22.949,27.316 21.044,27.316 19.781,21.002 21.489,21.001 22.242,24.287 23.351,21.009 24.649,21.009 25.758,24.287 26.521,20.991 28.222,20.991 26.956,27.316"/><path fill="#d32f2f" d="M18,30v13.97c-1.05-0.37-2.05-0.83-3-1.39V29L18,30z"/><path fill="#d32f2f" d="M23,32v12.97c-1.02-0.05-2.03-0.2-3-0.43V32H23z"/><path fill="#d32f2f" d="M28,32v12.54c-0.97,0.23-1.98,0.38-3,0.43V32H28z"/><path fill="#d32f2f" d="M33,29v13.58c-0.95,0.56-1.95,1.02-3,1.39V30L33,29z"/><path fill="#d32f2f" d="M33,5.42V11l-3-1V4.03C31.05,4.4,32.05,4.86,33,5.42z"/><path fill="#d32f2f" d="M28,3.46V8h-3V3.03C26.02,3.08,27.03,3.23,28,3.46z"/><path fill="#d32f2f" d="M23,3.03V8h-3V3.46C20.97,3.23,21.98,3.08,23,3.03z"/><path fill="#d32f2f" d="M18,4.03V10l-3,1V5.42C15.95,4.86,16.95,4.4,18,4.03z"/></svg>