<svg xmlns="http://www.w3.org/2000/svg"  viewBox="0 0 48 48" width="1600px" height="1600px" clip-rule="evenodd"><path fill="#d50000" d="M24,12C10.745,12,0,17.373,0,24c0,6.627,10.745,12,24,12s24-5.373,24-12C48,17.373,37.255,12,24,12z M24,34.489C12.317,34.489,2.811,29.783,2.811,24c0-5.783,9.505-10.487,21.188-10.487c11.683,0,21.188,4.704,21.188,10.487 C45.188,29.783,35.683,34.489,24,34.489z"/><path fill="#d50000" fill-rule="evenodd" d="M21.663 18.723h.396c.138 0 .213.104.213.236v10.787c0 .143.116.253.264.253h2.949c.149 0 .265-.11.265-.253V18.254c0-.139-.119-.254-.265-.254h-3.822c-.038 0-.038.035-.038.062v.6C21.625 18.688 21.625 18.723 21.663 18.723zM28.24 30h2.853c.138 0 .285-.107.342-.249l2.434-7.447c0-.002.028-.104.119-.104.087 0 .116.103.117.104l2.46 7.447C36.623 29.896 36.767 30 36.908 30h2.852c.1 0 .157-.048.188-.088.055-.073.061-.165.043-.221l-3.97-11.523C35.959 18.019 35.804 18 35.676 18h-4.611C31.032 18 31 18.03 31 18.062v.6c0 .031.032.062.065.062h.392c.145 0 .243.083.243.207 0 .04-.009.083-.029.136l-3.662 10.625c-.021.075-.005.157.044.22C28.098 29.969 28.165 30 28.24 30zM8.378 18.723c.137 0 .245.104.245.236v10.787C8.623 29.89 8.736 30 8.882 30h2.868c.143 0 .25-.113.25-.253v-4.537c0-.099.055-.156.138-.156.097 0 .143.064.179.115.004.006.007.011.012.016l3.374 4.538C15.81 29.882 16.005 30 16.156 30h3.36c.079 0 .166-.055.207-.131.044-.082.033-.175-.031-.263-.01-.015-4.213-5.782-4.256-5.841-.013-.018-.018-.029-.026-.042-.009-.016-.018-.035-.021-.052-.003-.012-.007-.023-.007-.039 0-.049.025-.098.051-.151l.003-.007 3.529-5.11c.045-.071.045-.165 0-.243C18.922 18.046 18.845 18 18.761 18h-3.19c-.151 0-.348.118-.457.275l-2.786 3.805c-.086.125-.171.131-.187.131h-.003c-.078 0-.138-.05-.138-.127v-3.831C12 18.114 11.884 18 11.741 18H8.065C8.031 18 8 18.03 8 18.062v.6c0 .032.031.062.065.062H8.378z" clip-rule="evenodd"/></svg>