<svg xmlns="http://www.w3.org/2000/svg"  viewBox="0 0 48 48" width="1600px" height="1600px" clip-rule="evenodd"><path fill="#ffc107" d="M37.5,4.343C34.105,3.275,29.128,2.558,24,2.558S13.895,3.275,10.5,4.343C5.949,5.775,5,6.399,5,9.517c0,16.39,6.455,25.501,12.163,30.965c3.004,2.875,5.784,4.961,6.837,4.961s3.833-2.085,6.837-4.961C36.545,35.018,43,25.907,43,9.517C43,6.399,42.051,5.775,37.5,4.343z"/><path fill="#ffd54f" d="M24.009,44.442c-0.449-0.036-2.543-1.227-6.154-4.683C9.878,32.123,6,22.231,6,9.517c0-2.37,0.297-2.803,4.8-4.22c3.462-1.089,8.397-1.739,13.2-1.739L24.009,44.442z"/><path fill="#212121" d="M29.454,39.037c-2.78,2.661-4.703,4.007-5.454,4.35c-0.751-0.343-2.674-1.689-5.454-4.35C10.777,31.6,7,21.944,7,9.517c0-1.827,0-1.976,4.1-3.266c3.37-1.06,8.193-1.693,12.9-1.693s9.53,0.633,12.9,1.693C41,7.541,41,7.69,41,9.517C41,21.944,37.223,31.6,29.454,39.037z"/><path fill="#424242" d="M24,43.387c-0.751-0.343-2.674-1.689-5.454-4.35C10.777,31.6,7,21.944,7,9.517c0-1.827,0-1.976,4.1-3.266c3.37-1.06,8.193-1.693,12.9-1.693C24,4.558,24.751,43.044,24,43.387z"/><path fill="#ffca28" d="M9.448 9.266l.775-.296v3.571l1.289-.479v.758l-2.064.74C9.448 13.559 9.448 9.257 9.448 9.266zM13.372 8.064l-.726.177-1.032 4.531.814-.242.226-1.121.742-.21.25 1.064.806-.202L13.372 8.064zM12.775 10.684l.242-1.354.258 1.241L12.775 10.684zM14.783 11.998l.709-.129-.048-2.354.774 2.564.79-2.523-.056 2.08.766-.081V7.282l-.774.097L16.25 9.942l-.717-2.346-.758.169C14.775 7.766 14.775 12.006 14.783 11.998zM20.281 9.064c.202-.153.403-.331.403-.911s-.435-1.064-1.056-1.032c-.524.027-1.298.105-1.298.105v4.24c0 0 1.233-.097 1.379-.113.145-.016 1.04-.193 1.04-1.411C20.748 9.942 20.756 9.281 20.281 9.064zM19.092 7.875c0 0 .303-.014.366-.017.063-.003.453-.007.453.352 0 .359-.24.547-.415.564-.174.017-.408.014-.408.014L19.092 7.875zM19.579 10.595c-.177.032-.476.039-.476.039V9.547c0 0 .371-.024.443-.024.073 0 .435.056.435.451C19.982 10.37 19.757 10.563 19.579 10.595zM22.423 6.894c-.729 0-1.32.705-1.32 2.185 0 1.726.591 2.185 1.32 2.185.729 0 1.32-.727 1.32-2.185C23.743 7.62 23.152 6.894 22.423 6.894zM22.423 10.538c-.31 0-.561-.302-.561-1.437 0-.973.251-1.437.561-1.437.31 0 .561.478.561 1.437C22.984 10.06 22.733 10.538 22.423 10.538zM26.063 9.304c0 0 .614-.22.614-1.124 0-.904-.73-1.17-1.008-1.182-.278-.012-1.471-.058-1.471-.058v4.252h.753c0 .012.012-1.761.012-1.761h.29l.649 1.796.834.035L26.063 9.304zM25.507 8.725c-.243 0-.556 0-.556 0V7.705c0 0 .255 0 .452 0 .197 0 .521.116.521.452S25.75 8.725 25.507 8.725zM28.738 9.861l-.431-.029v-.74l1.208.101c0 0 0 .791 0 .992s0 1.229-1.121 1.229-1.423-1.143-1.423-2.358.395-2.041 1.251-2.041c1.205 0 1.301 1.301 1.301 1.301l-.776.137c0 0-.115-.668-.453-.668-.338 0-.568.604-.568 1.358 0 .755.165 1.517.625 1.517.392 0 .395-.46.395-.553C28.745 10.012 28.738 9.861 28.738 9.861zM30.083 7.271L30.083 11.517 30.824 11.631 30.838 9.765 31.807 9.893 31.793 11.745 32.591 11.888 32.591 7.67 31.807 7.514 31.807 9.138 30.853 8.995 30.853 7.386zM33.196 7.794L33.196 12.008 33.988 12.158 33.988 7.944zM34.629 8.072L34.629 12.287 35.368 12.511 35.368 9.89 36.48 12.811 37.122 13.057 37.122 8.778 36.352 8.521 36.352 10.789 35.346 8.243zM37.753 9.013L37.753 13.26 38.523 13.57 38.523 9.281z"/><path fill="#ffca28" fill-rule="evenodd" d="M26.57,16.39c-0.286-0.152-0.63-0.252-0.977-0.279c-0.347-0.027-0.697,0.02-0.999,0.163c-0.301,0.143-1.042,0.441-1.811,0.934c-0.77,0.494-1.568,1.183-1.986,2.107c-0.418,0.924-0.633,1.509-0.766,1.916c-0.133,0.407-0.183,0.636-0.272,0.848c-0.089,0.212-0.231,0.426-0.356,0.666c-0.125,0.24-0.231,0.505-0.246,0.819c-0.015,0.314-0.063,0.681-0.124,1.032c-0.061,0.352-0.136,0.687-0.208,0.94c-0.072,0.252-0.164,0.542-0.244,0.869c-0.08,0.326-0.147,0.686-0.166,1.079c-0.019,0.392-0.067,0.784-0.145,1.149c-0.076,0.365-0.181,0.704-0.313,0.993c-0.132,0.289-0.184,0.542-0.239,0.78c-0.056,0.239-0.116,0.462-0.265,0.691c-0.148,0.228-0.349,0.514-0.548,0.785c-0.2,0.27-0.399,0.527-0.544,0.696c-0.146,0.17-0.225,0.372-0.194,0.546c0.031,0.174,0.171,0.318,0.463,0.372c0.291,0.053,0.549,0.007,0.745-0.101c0.197-0.108,0.332-0.279,0.381-0.474c0.048-0.194,0.062-0.469,0.091-0.748c0.028-0.279,0.071-0.562,0.18-0.773l0.219-0.462c0.106-0.152,0.177-0.208,0.248-0.253c0.071-0.046,0.141-0.082,0.245-0.195c0.103-0.113,0.276-0.429,0.426-0.786c0.15-0.356,0.277-0.753,0.29-1.028c0.014-0.275,0.054-0.489,0.112-0.669c0.057-0.179,0.133-0.323,0.218-0.457c0.085-0.134,0.141-0.288,0.221-0.402c0.079-0.115,0.181-0.188,0.356-0.16c0.175,0.028,0.22,0.119,0.234,0.233c0.014,0.114-0.002,0.251,0.051,0.372c0.053,0.12,0.105,0.251,0.183,0.368c0.077,0.117,0.181,0.22,0.334,0.287c0.154,0.066,0.275,0.19,0.332,0.331c0.057,0.141,0.049,0.298-0.055,0.43c-0.105,0.132-0.253,0.361-0.378,0.597c-0.124,0.235-0.224,0.476-0.232,0.633c-0.007,0.157,0.001,0.394-0.041,0.638c-0.041,0.244-0.132,0.495-0.337,0.682c-0.205,0.187-0.371,0.375-0.487,0.542c-0.116,0.166-0.182,0.311-0.186,0.409c-0.005,0.098,0.028,0.228,0.125,0.336c0.098,0.108,0.26,0.195,0.515,0.207c0.254,0.012,0.452-0.027,0.604-0.113c0.151-0.086,0.255-0.219,0.323-0.392c0.067-0.174,0.063-0.302,0.044-0.416c-0.019-0.114-0.054-0.214-0.047-0.332c0.006-0.118,0.052-0.254,0.102-0.393c0.051-0.14,0.107-0.285,0.134-0.421c0.026-0.136,0.064-0.302,0.136-0.485c0.073-0.183,0.18-0.384,0.347-0.593s0.264-0.391,0.346-0.554c0.082-0.163,0.147-0.308,0.252-0.441c0.105-0.132,0.148-0.2,0.187-0.217c0.04-0.018,0.078,0.014,0.173,0.077c0.095,0.064,0.112,0.124,0.089,0.191c-0.023,0.067-0.086,0.143-0.149,0.239c-0.063,0.095-0.189,0.256-0.32,0.427c-0.131,0.171-0.268,0.351-0.352,0.485c-0.085,0.134-0.143,0.308-0.125,0.457c0.017,0.148,0.109,0.271,0.323,0.301c0.215,0.03,0.381,0.038,0.5,0.009c0.119-0.028,0.191-0.094,0.216-0.211c0.026-0.117,0.074-0.301,0.137-0.485c0.063-0.184,0.14-0.367,0.224-0.48c0.084-0.114,0.138-0.22,0.172-0.312c0.034-0.092,0.048-0.17,0.051-0.229c0.112,0.124,0.202,0.266,0.279,0.412c0.076,0.147,0.137,0.297,0.189,0.437c0.052,0.141,0.181,0.314,0.42,0.454c0.238,0.14,0.586,0.245,1.076,0.249c0.491,0.005,0.736-0.003,0.875-0.041c0.139-0.037,0.172-0.105,0.236-0.219s0.213-0.344,0.293-0.581c0.081-0.237,0.093-0.483-0.116-0.631c0.049-0.194,0.12-0.456,0.221-0.707c0.1-0.251,0.23-0.491,0.394-0.64c0.164-0.15,0.387-0.296,0.585-0.429c0.198-0.133,0.371-0.253,0.434-0.348c0.248,0.15,0.474,0.333,0.638,0.587c0.165,0.254,0.266,0.579,0.265,1.012c-0.012,0.235,0.007,0.457,0.032,0.65c0.025,0.193,0.055,0.357,0.069,0.476c0.014,0.119,0.008,0.246,0.001,0.379c-0.006,0.132-0.013,0.27,0,0.408c0.013,0.139,0.094,0.27,0.203,0.364c0.108,0.094,0.243,0.15,0.361,0.136c0.119-0.013,0.232-0.116,0.317-0.25c0.085-0.134,0.142-0.298,0.148-0.436c0.007-0.137-0.027-0.238-0.078-0.319c-0.05-0.082-0.116-0.143-0.171-0.205c-0.056-0.062-0.093-0.113-0.099-0.187c-0.006-0.074,0.018-0.171,0.085-0.325c0.066-0.155,0.063-0.293,0.029-0.407c-0.034-0.115-0.098-0.206-0.153-0.268c-0.056-0.062-0.116-0.232-0.155-0.451c-0.038-0.218-0.055-0.485-0.023-0.739c0.032-0.254,0.022-0.55-0.034-0.808c-0.056-0.259-0.158-0.48-0.31-0.586c0.451,0.002,0.966-0.002,1.432-0.107c0.466-0.105,0.883-0.311,1.139-0.712c-0.254-0.032-0.549-0.027-0.895-0.152c-0.347-0.125-0.746-0.381-1.21-0.935c0.051-0.233,0.068-0.39,0.06-0.523c-0.008-0.133-0.042-0.243-0.094-0.383c-0.052-0.141-0.124-0.272-0.163-0.48c-0.039-0.208-0.045-0.494,0.037-0.943c0.081-0.448,0.106-1.175-0.036-1.979c-0.142-0.804-0.452-1.685-1.043-2.442c0.202-0.522,0.318-0.88,0.357-1.173c0.039-0.293,0.001-0.522-0.104-0.782c-0.105-0.261-0.408-0.492-0.86-0.667c-0.453-0.174-1.055-0.292-1.759-0.327c-0.705-0.034-1.714-0.054-2.545-0.119c-0.83-0.065-1.482-0.175-1.472-0.392c0.011-0.216,0.133-0.308,0.292-0.35c0.159-0.041,0.354-0.031,0.512-0.044c0.23,0.11,0.56,0.184,0.906,0.236c0.346,0.051,0.707,0.079,1.001,0.093c0.294,0.014,0.571-0.051,0.864-0.116c0.292-0.064,0.6-0.128,0.952-0.111c-0.289-0.113-0.653-0.278-1.03-0.405c-0.377-0.126-0.765-0.214-1.1-0.171c-0.112-0.124-0.195-0.217-0.33-0.262c-0.136-0.046-0.322-0.046-0.638,0.018c-0.317,0.063-0.515,0.083-0.682,0.095c-0.167,0.011-0.305,0.014-0.502,0.044c-0.197,0.03-0.473,0.046-0.703,0.138c-0.23,0.092-0.415,0.26-0.431,0.594c-0.016,0.334,0.077,0.634,0.399,0.861c0.323,0.227,0.874,0.382,1.775,0.426c0.9,0.044,1.879,0.082,2.684,0.175c0.805,0.093,1.435,0.242,1.638,0.507c0.202,0.266,0.253,0.436,0.212,0.571c-0.041,0.136-0.174,0.238-0.337,0.367c-0.137-0.006-0.382-0.008-0.665-0.047C27.177,16.617,26.857,16.542,26.57,16.39" clip-rule="evenodd"/><path fill="#ffecb3" fill-rule="evenodd" d="M23.216,29.328c-0.029,0.191-0.122,0.663-0.119,0.771c0,0-0.164,0.004-0.24,0.1c-0.073,0.096-0.287,0.125-0.367,0.016c0,0-0.181-0.147,0.03-0.293c0.211-0.142,0.505-0.557,0.529-0.615C23.074,29.25,23.246,29.134,23.216,29.328z M22.238,30.401c-0.031-0.008-0.075,0.012-0.085,0.042c-0.017,0.035-0.017,0.108,0.02,0.117c0.045,0.013,0.091-0.041,0.109-0.085C22.292,30.45,22.266,30.408,22.238,30.401z M20.494,32.739c-0.051-0.008-0.098,0.029-0.105,0.08c-0.008,0.051,0.025,0.1,0.077,0.108c0.051,0.008,0.1-0.028,0.108-0.079C20.582,32.796,20.546,32.747,20.494,32.739z M20.046,32.265c-0.06-0.009-0.109,0.009-0.114,0.044c-0.005,0.031,0.037,0.064,0.097,0.073c0.057,0.009,0.106-0.01,0.111-0.041C20.144,32.307,20.103,32.274,20.046,32.265z M21.143,29.626c-0.058,0.134-0.071,0.464-0.104,0.675c-0.032,0.208,0.118,0.161,0.193,0.126c0.079-0.037,0.331-0.45,0.299-0.787C21.502,29.299,21.143,29.626,21.143,29.626z M20.621,31.389c-0.278,0.1-0.105,0.281-0.333,0.461c-0.232,0.18-0.103,0.27-0.103,0.27s0.079,0.263,0.204,0.305c0.124,0.043,0.354-0.123,0.541-0.106c0.187,0.017,0.135-0.253,0.158-0.404c0.024-0.154-0.083-0.24-0.162-0.503C20.847,31.15,20.621,31.389,20.621,31.389z M17.812,29.634c-0.01,0.199,0.236,0.092,0.214-0.025c-0.023-0.114,0.067-0.435,0.067-0.435C17.937,29.275,17.822,29.432,17.812,29.634z M16.616,33.144c-0.048-0.007-0.096,0.017-0.102,0.054c-0.005,0.034,0.033,0.072,0.081,0.079c0.051,0.008,0.096-0.017,0.101-0.051C16.702,33.19,16.667,33.152,16.616,33.144z M16.978,31.968c-0.05,0.056-0.658,0.738-0.808,0.819c-0.15,0.082-0.096,0.209-0.034,0.274c0.062,0.068,0.204-0.079,0.204-0.079c0.137-0.413,0.376-0.414,0.629-0.393c0.253,0.024,0.385-0.156,0.395-0.429C17.374,31.892,17.027,31.911,16.978,31.968z M26.772,26.973c-0.001,0.046,0.051,0.087,0.091,0.11c0.024,0.013,0.077,0.009,0.078-0.017c0-0.055-0.025-0.12-0.076-0.149C26.836,26.899,26.772,26.936,26.772,26.973z M26.14,27.272c-0.046,0.034-0.064,0.168-0.009,0.171c0.087,0.005,0.198-0.074,0.202-0.158C26.334,27.221,26.19,27.231,26.14,27.272z M26.253,26.859c0.029-0.019,0.021-0.081-0.008-0.1c-0.05-0.034-0.133-0.064-0.185-0.028c-0.043,0.031-0.052,0.132-0.007,0.159C26.112,26.927,26.198,26.897,26.253,26.859z M28.392,25.094c-0.099-0.018-0.118,0.101-0.019,0.125c0.17,0.047,0.37,0.075,0.494,0.251c0.095,0.137,0.234-0.066,0.093-0.169C28.798,25.185,28.582,25.129,28.392,25.094z M30.034,27.298c-0.074-0.011-0.201-0.133-0.201-0.133c-0.065-0.185-0.118,0.046-0.126,0.1c-0.008,0.054,0.181,0.185,0.301,0.204C30.124,27.487,30.105,27.309,30.034,27.298z M30.029,26.782c-0.174-0.12-0.279-0.346-0.345-0.56c-0.069-0.212-0.082-0.243-0.21-0.262c-0.125-0.019-0.197,0.276-0.22,0.426c-0.024,0.154,0.117,0.018,0.117,0.018c0.031-0.141,0.119-0.054,0.155-0.002c0.038,0.052,0.219,0.375,0.264,0.501C29.834,27.028,30.203,26.902,30.029,26.782z M30.555,25.244c-0.295-0.175-0.61-0.404-0.808-0.669c-0.148-0.199-0.244-0.292-0.335-0.347c-0.09-0.055-0.175-0.071-0.3-0.117c-0.125-0.045-0.371-0.121-0.625-0.257c-0.253-0.135-0.514-0.33-0.667-0.613c-0.153-0.283-0.261-0.687-0.348-1.055c-0.087-0.368-0.154-0.701-0.226-0.842c-0.071-0.141-0.182-0.274-0.285-0.442c-0.102-0.167-0.195-0.369-0.231-0.646c-0.035-0.277-0.076-0.56-0.127-0.808c-0.052-0.248-0.115-0.463-0.196-0.605c-0.081-0.142-0.143-0.381-0.203-0.608c-0.06-0.227-0.119-0.441-0.193-0.533c-0.074-0.092-0.227-0.272-0.42-0.434c-0.193-0.162-0.427-0.306-0.661-0.328c-0.234-0.021-0.547,0.067-0.871,0.221c-0.324,0.154-0.659,0.373-0.935,0.616c-0.277,0.242-0.586,0.449-0.855,0.682c-0.269,0.233-0.497,0.492-0.612,0.84c-0.115,0.349-0.28,0.804-0.44,1.219c-0.16,0.415-0.316,0.791-0.414,0.983c-0.097,0.192-0.298,0.59-0.469,1.017c-0.171,0.428-0.31,0.883-0.286,1.189c-0.022,0.244-0.013,0.467,0.039,0.619c0.051,0.152,0.146,0.236,0.294,0.204c0.148-0.032,0.209-0.162,0.274-0.284c0.065-0.123,0.134-0.237,0.301-0.239c0.167-0.002,0.249,0.022,0.309,0.057c0.059,0.035,0.096,0.081,0.172,0.124c0.076,0.043,0.171,0.116,0.267,0.153c0.096,0.036,0.194,0.036,0.278-0.068c0.084-0.104,0.194-0.148,0.307-0.162c0.113-0.014,0.231,0.001,0.328,0.016c0.097,0.015,0.195,0.019,0.288-0.013c0.092-0.033,0.179-0.102,0.254-0.237c0.075-0.134,0.175-0.178,0.264-0.186c0.089-0.008,0.166,0.021,0.195,0.032c0.12,0.163,0.227,0.39,0.299,0.602c0.073,0.213,0.113,0.411,0.097,0.519c-0.015,0.108-0.068,0.282-0.151,0.472c-0.083,0.191-0.196,0.397-0.332,0.567c-0.136,0.17-0.3,0.413-0.315,0.681c-0.015,0.267,0.117,0.559,0.575,0.827c-0.009,0.177-0.028,0.274,0.024,0.404c0.052,0.131,0.177,0.294,0.456,0.603c0.103,0.104,0.204,0.295,0.288,0.499c0.083,0.203,0.148,0.418,0.181,0.567c0.012,0.05,0.042,0.083,0.073,0.091c0.03,0.007,0.061-0.01,0.073-0.065c0.057-0.159,0.15-0.359,0.224-0.67c0.074-0.312,0.13-0.734,0.11-1.34c-0.089,0.025-0.209,0.068-0.328,0.136c-0.119,0.068-0.236,0.161-0.32,0.285c-0.008-0.237,0.013-0.575,0.051-0.893c0.037-0.318,0.091-0.616,0.148-0.77c0.057-0.155,0.08-0.232,0.11-0.29c0.03-0.058,0.066-0.095,0.148-0.17c0.082-0.075,0.142-0.2,0.154-0.337c0.011-0.137-0.025-0.287-0.137-0.41c-0.112-0.124-0.189-0.235-0.236-0.349c-0.046-0.113-0.06-0.227-0.044-0.354c0.016-0.127,0.147-0.298,0.419-0.449c0.272-0.152,0.686-0.284,1.267-0.334c0.079-0.006,0.117,0.025,0.119,0.067c0.003,0.042-0.029,0.094-0.089,0.131c-0.06,0.036-0.187,0.119-0.315,0.209c-0.127,0.09-0.254,0.187-0.316,0.253c-0.062,0.065-0.168,0.218-0.175,0.412c-0.007,0.194,0.085,0.43,0.417,0.662c0.332,0.233,0.534,0.359,0.71,0.431c0.176,0.073,0.324,0.092,0.548,0.113c-0.064-0.082-0.25-0.256-0.428-0.424c-0.178-0.168-0.349-0.332-0.385-0.393c-0.037-0.061-0.092-0.132-0.1-0.219c-0.008-0.086,0.031-0.188,0.184-0.308c0.153-0.12,0.286-0.227,0.388-0.318c0.103-0.091,0.175-0.167,0.207-0.224c0.134,0.075,0.353,0.195,0.573,0.306c0.22,0.112,0.441,0.216,0.576,0.261c0.135,0.046,0.279,0.119,0.409,0.209c0.13,0.091,0.247,0.2,0.33,0.319c0.151,0.219,0.488,0.417,0.885,0.53c0.398,0.113,0.858,0.141,1.257,0.017C31.127,25.537,30.851,25.418,30.555,25.244z" clip-rule="evenodd"/></svg>