<svg xmlns="http://www.w3.org/2000/svg"  viewBox="0 0 48 48" width="1600px" height="1600px"><path fill="#fff9c4" d="M48,24c0,7.18-10.747,13-23.999,13C10.745,37,0,31.18,0,24s10.745-13,24.001-13 C37.253,11,48,16.82,48,24L48,24z"/><path fill="#00695c" d="M23.992 12.989999999999998A22 11 0 1 0 23.992 34.989999999999995A22 11 0 1 0 23.992 12.989999999999998Z"/><path fill="#fff9c4" d="M14.129 21.556c-.043.137-.39.102-.39.102h-1.505c0 0 1.395-3.88 1.507-4.174.199-.52.318-.484.318-.484H11.98c.257.129.029.635.029.635s-1.665 4.839-1.781 5.081c-.116.242-.203.273-.203.273h3.6L14.129 21.556zM38 19L34.037 19 33.554 20.402 36.119 20.402 33.193 21.431 33 22 37.502 20.5zM21.705 22.607c.101-.273 1-2.828 1-2.828l.391 3.204h1.536l2.013-5.699c0 0 .082-.267.195-.267l-1.632-.005c0 0 .047.197-.011.348-.058.151-.985 2.737-.985 2.737l-.362-3.085h-1.753c0 0 .091.151.033.317-.047.135-1.858 5.323-1.858 5.323s-.116.331-.218.331h1.695C21.748 22.983 21.632 22.803 21.705 22.607zM13 25L8.497 26.501 8 28 11.963 28 12.445 26.598 9.88 26.598 12.806 25.569zM31.427 28.647l.348-.969h1.274c0 0 .27-.02.329.061l.521-1.532c0 0-.038.138-.386.138-.347 0-1.236 0-1.236 0l.368-1.07h1.564c0 0 .212-.031.289.141L35 24l-3.766 0c0 0 .135.125-.039.63-.174.505-1.7 4.805-1.7 4.805S29.225 30 29.148 30c-.078 0 3.882 0 3.882 0l.464-1.434c0 0-.058.081-.425.081C32.701 28.647 31.427 28.647 31.427 28.647zM30.906 24.003h-2.223c0 0 .174.121.039.343-.135.222-2.111 3.312-2.111 3.312l.025-3.116c0 0-.004-.5.188-.542l-1.956.003c0 0 .144.081.144.464 0 .065 0 .258 0 .533 0 1.345 0 4.657 0 4.657S24.992 29.941 24.89 30h1.553c0 0 0-.121.154-.323.155-.202 3.381-4.725 3.381-4.725S30.713 24.003 30.906 24.003zM39.856 26.315c.741-2.432-1.618-2.314-1.618-2.314h-2.376c.174.202.039.626.039.626s-1.549 4.463-1.666 4.807c-.116.344-.338.563-.338.563L35.872 30c-.144.003-.044-.368-.044-.368l.606-1.713c0 0 .817 1.737.875 1.859.058.122.029.222.029.222h2.097c-.193 0-.406-.384-.406-.384l-1.008-1.891C39.432 27.724 39.856 26.315 39.856 26.315zM38.18 26.061c-.217.581-.927.525-.927.525h-.367l.386-1.191h.524C37.796 25.395 38.436 25.376 38.18 26.061zM29.73 17.014h-1.926c0 .001.144.242-.044.801-.188.56-1.666 4.718-1.666 4.718S25.977 22.924 25.819 23l2.318-.003c0 0 2.81.108 3.68-2.975C31.816 20.023 32.917 16.983 29.73 17.014zM29.933 20.279c-.491 1.248-1.221 1.338-1.615 1.338-.26 0-.268.002-.268.002l1.13-3.321h.435C29.614 18.299 30.74 18.229 29.933 20.279zM19.857 22.993c0 0-.138-.081-.163-.319l-.233-5.262c0 0-.01-.336.143-.407h-1.84c0 0 .129.166-.117.544-.246.378-3.389 5.242-3.389 5.242s-.062.125-.221.196h1.858c0 0-.006-.149.043-.245.088-.175.319-.596.319-.596h1.87l.004.526c0 0 .01.181-.128.321H19.857zM17.059 20.796l1.033-1.754.015 1.754H17.059zM18.453 26.262C19.148 23.94 16.808 24 16.808 24h-2.395c.174.202.038.626.038.626s-1.487 4.446-1.603 4.79c-.116.343-.329.583-.329.583S14.512 30 14.413 30c-.058 0-.058-.195-.058-.195l.68-1.886c0 0 .846 1.737.905 1.858C15.997 29.898 15.968 30 15.968 30h2.025c-.193 0-.392-.384-.392-.384l-1.008-1.892C18.002 27.724 18.453 26.262 18.453 26.262zM16.801 26.058c-.264.594-.979.528-.979.528h-.367l.393-1.206c0 0 .211-.003.399-.003C17.11 25.377 16.801 26.058 16.801 26.058zM22.209 24.025c-1.848 0-3.053 1.396-3.365 3.131-.286 1.596.62 2.869 2.113 2.869 2.09 0 3.334-2.041 3.334-3.506C24.291 24.984 23.657 24.025 22.209 24.025zM22.483 27.205c-.299 1.193-.873 1.567-1.394 1.471-.709-.131-.587-1.226-.472-1.731.251-1.106.869-1.636 1.331-1.58C22.1 25.383 22.937 25.399 22.483 27.205z"/></svg>