<svg xmlns="http://www.w3.org/2000/svg"  viewBox="0 0 48 48" width="1600px" height="1600px" clip-rule="evenodd"><path fill="#b3bde2" fill-rule="evenodd" d="M35.127,9.922l-0.935,1.458C40.227,14.479,43,18.483,43,24 c0.042,1.55-0.368,3.45-1.385,5H21.13c-1.173,0-1.343-1.541-0.919-2.288c1.738-3.072,10.185-13.682,12.234-16.261 c0.551-0.719,0.184-1.409-0.919-1.635C29.237,8.338,26.848,8,23.951,8C7.88,8,2,17.201,2,24.021C2,31.419,7.922,40,23.993,40 c8.477,0,14.166-2.586,17.61-6h-3.547c-3.02,2.412-7.818,4-14.056,4C10.389,38,5,30.566,5,24 c0.099-5.862,5.535-13.714,19.019-13.981c0.509-0.014,0.905,0.451,0.551,0.888c-2.304,2.832-9.197,11.664-9.946,12.847 c-1.442,2.269-1.569,3.368-1.611,4.1c-0.042,0.719-0.059,2.034,1.131,3.072C15.708,32.292,18.864,32,21.309,32h20.776 c0.862,0,1.117-0.254,1.583-0.874C45.279,28.675,46,26.402,46,24.021C46,19.1,42.895,12.957,35.127,9.922z" clip-rule="evenodd"/><path fill="#7986cb" d="M21,30h19.892c0.261-0.301,0.514-0.622,0.722-1h-3.241H21.13H21c-0.236,0-0.428-0.104-0.58-0.268 c-0.509-0.474-0.523-1.465-0.208-2.02c1.738-3.072,10.185-13.682,12.234-16.261c0.551-0.719,0.184-1.409-0.919-1.635 c-0.094-0.02-0.192-0.035-0.286-0.054c-0.189,0.229-0.326,0.398-0.383,0.471l-0.091,0.113c-7.073,8.898-11.096,14.256-12.297,16.379 c-0.372,0.655-0.513,1.476-0.426,2.273C18.104,28.541,18.75,30,21,30z"/></svg>