<svg xmlns="http://www.w3.org/2000/svg"  viewBox="0 0 48 48" width="1600px" height="1600px" clip-rule="evenodd"><path fill="#546e7a" fill-rule="evenodd" d="M29.06,3.75c-0.12-0.67-0.19-1.12-0.56-1.22 C27.33,2.22,25.72,2,24,2s-3.33,0.22-4.5,0.53c-0.37,0.1-0.44,0.55-0.56,1.22C17.66,10.5,17.01,17.26,17,24 c0.01,6.74,0.66,13.5,1.94,20.25c0.12,0.67,0.19,1.12,0.56,1.22C20.67,45.78,22.28,46,24,46s3.33-0.22,4.5-0.53 c0.37-0.1,0.44-0.55,0.56-1.22C30.34,37.5,30.99,30.74,31,24C30.99,17.26,30.34,10.5,29.06,3.75z M23,45c0,0-0.47-1.3-0.68-1.71 c-0.1-0.18-0.21-0.29-0.46-0.29h-0.55c-0.46,0-0.51-0.43-0.58-0.69C19.32,36.43,18.96,31.27,19,26c0-0.77-1.71-1-1.71-1h4.41 c0.67,0.02,1.18,0.33,1.3,1.4V45z M23,21.6c-0.12,1.07-0.63,1.38-1.3,1.4h-4.41c0,0,1.71-0.23,1.71-1 c-0.04-5.27,0.32-10.43,1.73-16.31C20.8,5.43,20.85,5,21.31,5h0.55c0.25,0,0.36-0.11,0.46-0.29C22.53,4.3,23,3,23,3V21.6z M25,3 c0,0,0.47,1.3,0.68,1.71C25.78,4.89,25.89,5,26.14,5h0.55c0.46,0,0.51,0.43,0.58,0.69C28.68,11.57,29.04,16.73,29,22 c0,0.77,1.71,1,1.71,1H26.3c-0.67-0.02-1.18-0.33-1.3-1.4V3z M29,26c0.04,5.27-0.32,10.43-1.73,16.31C27.2,42.57,27.15,43,26.69,43 h-0.55c-0.25,0-0.36,0.11-0.46,0.29C25.47,43.7,25,45,25,45V26.4c0.12-1.07,0.63-1.38,1.3-1.4h4.41C30.71,25,29,25.23,29,26z" clip-rule="evenodd"/></svg>