<svg xmlns="http://www.w3.org/2000/svg"  viewBox="0 0 48 48" width="1600px" height="1600px"><path fill="#616161" d="M12.322,37.001l0.152,0.152v4.522l-0.152,0.152H9.72l-0.153-0.152v-2.171l-0.091-0.03l-1.692,2.232 l-0.245,0.122H5.531l-0.246-0.122l-1.691-2.232l-0.093,0.03v2.171L3.35,41.827H0.746l-0.152-0.152v-4.522l0.152-0.152h3.356 l0.245,0.122l2.094,2.764h0.185l2.094-2.764l0.245-0.122H12.322z M21.747,37.122l3.471,4.581l-0.061,0.12h-2.795l-0.243-0.122 l-0.474-0.624l-0.245-0.123h-4.057l-0.245,0.123l-0.474,0.624l-0.245,0.122h-2.795l-0.061-0.12l3.471-4.581l0.245-0.12h4.262 L21.747,37.122z M20.619,39.455l-0.725-0.956l-0.245-0.12h-0.541l-0.246,0.12l-0.724,0.956l0.06,0.12h2.36L20.619,39.455z M26.752,37.001l-0.246,0.122l-0.362,0.478l-0.091,0.274v3.08l0.091,0.274l0.362,0.478l0.246,0.12h8.89l0.153-0.152v-1.312 l-0.153-0.152h-6.546l-0.152-0.153v-1.285l0.152-0.152h6.546l0.153-0.153v-1.312l-0.153-0.152H26.752z M44.028,38.884l0.016-0.168 l3.116-1.643L47.142,37h-3.838l-0.287,0.073l-2.885,1.521l-0.136-0.082v-1.359L39.845,37h-2.604l-0.153,0.153v4.52l0.153,0.153 h2.604l0.151-0.153v-0.669l0.136-0.225l1.554-0.82l0.253,0.026l2.133,1.744l0.271,0.098h3.129l0.034-0.098L44.028,38.884z"/><path fill="#616161" d="M25.093,14.7h2.742l0.179-0.129l0.511-1.562l0.179-0.129h2.099l0.263,0.052l0.669,0.28l0.226-0.039 l1.786-1.64l-0.024-0.144l-1.993-0.837l-0.147-0.186l-0.278-1.776l0.104-0.082l1.991,0.835l0.104-0.082l-0.322-2.05l0.073-0.233 l0.438-0.459l-0.024-0.166l-0.567-0.33L32.857,6l-2.708,0.981l-0.255-0.006l-0.8-0.336l-0.168,0.076L28.821,7.04l0.063,0.213 l0.399,0.321l0.011,0.183l-0.267,0.268l-0.222,0.043l-0.822-0.345L27.9,7.54l0.36-1.104l-0.082-0.183l-0.513-0.214l-0.168,0.076 L27,7.633l-0.007,0.261l0.317,1.212l-0.007,0.261l-1.105,3.383l-0.179,0.13h-0.597l-0.16,0.134l-0.28,1.551L25.093,14.7 M30.889,13.423h-1.791l-0.179,0.129l-0.332,1.018l0.093,0.13h2.408l0.116-0.136l-0.158-1.007L30.889,13.423 M34.018,7.892 l0.14,0.069l0.597-0.33l0.032-0.171l-0.488-0.597l-0.181-0.007l-0.13,0.136l-0.075,0.233 M34.149,8.729l0.134,0.857l0.147,0.186 l1.474,0.619l0.175,0.181l0.151,0.386l0.186,0.119l0.345-0.021l0.177-0.138l0.483-1.471l-0.067-0.213l-0.787-0.591l-0.123-0.216 L36.35,7.512l-0.132-0.071l-1.97,1.089L34.149,8.729 M38.977,8.893L37.23,7.879l-0.104,0.067l0.032,0.308l0.121,0.218l0.867,0.664 l0.065,0.213l-0.723,2.215L37.308,11.7l-2.354,0.14l-0.207,0.125l-1.158,1.881l0.054,0.168l0.526,0.222l0.082,0.181l-0.498,1.504 l-0.17,0.076l-1.383-0.58l-0.261-0.052h-0.473l-0.116,0.134l0.453,2.878l0.14,0.201l1.985,1.118l-0.017,0.075l-1.735,0.101 l-0.192,0.132l-1.68,3.806l-0.088,0.255l-1.814,7.732l0.043,0.244l0.369,0.552l-0.06,0.112h-0.388l-0.213-0.112l-0.293-0.436 l-0.048-0.246l1.577-7.73l-0.035-0.255l-0.762-1.484l0.026-0.226l2.5-2.889l0.067-0.239l-0.565-3.59l-0.157-0.136h-5.372 l-0.136,0.138v0.181l-0.099,0.229l-8.752,8.112l-0.235,0.093h-1.145l-0.237,0.091l-0.587,0.546l-0.03,0.211l1.079,1.868 l0.024,0.248l-2.028,5.827l0.024,0.246l0.205,0.35l0.205,0.119h3.993l0.162-0.134l0.088-0.451l-0.054-0.244l-0.841-1.154 l0.05-0.147l5.039-1.519l0.032-0.134l-1.504-1.473l-0.214-0.026l-4.356,2.612l-0.183,0.19l-0.785,1.445l-0.199,0.119h-0.33 l-0.082-0.123l1.706-3.888l0.188-0.145l3.676-0.597l0.157-0.157l0.623-3.853l-0.08-0.226l-0.768-0.679l-0.076-0.224l0.089-0.453 l0.127-0.043l1.35,1.193l0.125,0.226l0.949,5.674l0.086,0.013l1.366-2.656l0.198-0.097l1.646,0.296l0.188-0.101l0.531-1.271 l0.03-0.259l-1.115-6.651l0.062-0.026l2.466,3.189l0.03,0.233l-0.923,2.203l0.004,0.25l0.85,1.847l0.032,0.257l-1.217,6.261 l0.041,0.252l0.207,0.35l0.203,0.119h3.946l0.177-0.13l0.149-0.459l-0.043-0.237l-1.495-1.862l-0.028-0.229l1.819-3.801 l0.076-0.259l0.347-2.805l0.103-0.244l2.705-3.38l0.084-0.242l-0.075-2.923l-0.086-0.246l-0.235-0.321l-0.039-0.239l0.514-1.571 l-0.026-0.248l-0.309-0.544l0.058-0.171l3.326-1.471l0.168-0.183l0.969-2.966L38.977,8.893"/></svg>