<svg xmlns="http://www.w3.org/2000/svg"  viewBox="0 0 48 48" width="1600px" height="1600px"><path fill="#616161" d="M22.687,16.597h3.971l0.259-0.186l0.74-2.262l0.259-0.186h3.039l0.381,0.076l0.969,0.405 l0.327-0.057l2.586-2.375l-0.035-0.208l-2.885-1.212l-0.213-0.27l-0.402-2.572l0.151-0.119l2.883,1.209l0.151-0.119l-0.467-2.969 l0.105-0.337l0.634-0.664l-0.035-0.24l-0.821-0.478L33.929,4l-3.922,1.42l-0.37-0.008l-1.158-0.486l-0.243,0.111l-0.151,0.47 l0.092,0.308l0.578,0.464l0.016,0.265l-0.386,0.389l-0.321,0.062l-1.19-0.499L26.752,6.23l0.521-1.598l-0.119-0.265l-0.742-0.31 l-0.243,0.111l-0.721,2.197l-0.011,0.378l0.459,1.755l-0.011,0.378l-1.601,4.899l-0.259,0.189h-0.864l-0.232,0.194l-0.405,2.246 L22.687,16.597 M31.079,14.748h-2.594l-0.259,0.186l-0.48,1.474l0.135,0.189h3.487l0.167-0.197l-0.229-1.458L31.079,14.748 M35.611,6.74l0.202,0.1l0.864-0.478l0.046-0.248L36.016,5.25l-0.262-0.011l-0.189,0.197l-0.108,0.337 M35.8,7.952l0.194,1.242 l0.213,0.27l2.135,0.896l0.254,0.262l0.219,0.559l0.27,0.173l0.499-0.03l0.256-0.2l0.699-2.13l-0.097-0.308L39.303,7.83 l-0.178-0.313l-0.138-1.328l-0.192-0.103l-2.853,1.576L35.8,7.952 M42.791,8.189l-2.529-1.468L40.11,6.818l0.046,0.445l0.175,0.316 l1.255,0.961l0.094,0.308l-1.047,3.207l-0.259,0.2l-3.409,0.202l-0.3,0.181l-1.676,2.724l0.078,0.243l0.761,0.321l0.119,0.262 l-0.721,2.178l-0.246,0.111l-2.003-0.839l-0.378-0.076h-0.686l-0.167,0.194l0.656,4.168l0.202,0.292l2.875,1.62l-0.024,0.108 l-2.513,0.146l-0.278,0.192l-2.432,5.512l-0.127,0.37l-2.626,11.196l0.062,0.354l0.534,0.799l-0.086,0.162h-0.561l-0.308-0.162 l-0.424-0.632l-0.07-0.356l2.284-11.194l-0.051-0.37l-1.104-2.149l0.038-0.327l3.62-4.184l0.097-0.346l-0.818-5.199l-0.227-0.197 h-7.779l-0.197,0.2v0.262l-0.143,0.332L9.674,30.099l-0.34,0.135H7.676l-0.343,0.132l-0.85,0.791L6.44,31.462l1.563,2.705 l0.035,0.359l-2.937,8.438l0.035,0.356l0.297,0.507L5.73,44h5.782l0.235-0.194l0.127-0.653l-0.078-0.354l-1.217-1.671l0.073-0.213 l7.296-2.2l0.046-0.194l-2.178-2.132l-0.31-0.038l-6.308,3.782l-0.265,0.275l-1.136,2.092l-0.289,0.173H7.029L6.91,42.494 l2.47-5.631l0.273-0.211l5.323-0.864l0.227-0.227l0.902-5.579l-0.116-0.327l-1.112-0.983l-0.111-0.324l0.13-0.656l0.184-0.062 l1.954,1.728l0.181,0.327l1.374,8.216l0.124,0.019l1.979-3.846l0.286-0.14l2.383,0.429l0.273-0.146l0.769-1.841l0.043-0.375 l-1.614-9.631l0.089-0.038l3.571,4.618l0.043,0.337l-1.336,3.19l0.005,0.362l1.231,2.675l0.046,0.372l-1.763,9.067l0.059,0.364 l0.3,0.507L25.37,44h5.714l0.256-0.189l0.216-0.664l-0.062-0.343l-2.165-2.697l-0.04-0.332l2.634-5.504l0.111-0.375l0.502-4.062 l0.148-0.354l3.917-4.894l0.121-0.351l-0.108-4.232l-0.124-0.356l-0.34-0.464l-0.057-0.346l0.745-2.275l-0.038-0.359l-0.448-0.788 l0.084-0.248l4.815-2.13l0.243-0.265l1.404-4.294L42.791,8.189"/></svg>