<svg xmlns="http://www.w3.org/2000/svg"  viewBox="0 0 48 48" width="1600px" height="1600px"><g data-name="Man"><path fill="#333" d="M44.5,37C44.719,23.706,36.03,14,24,14S3.281,23.706,3.5,37H.5C.269,22.215,10.45,11,24,11S47.731,22.215,47.5,37Z"/><path fill="#a7adaf" d="M47,36.5H45c0-13.327-8.832-23-21-23S3,23.173,3,36.5H1c0-14.252,9.888-25,23-25S47,22.248,47,36.5Z"/><path fill="#333" d="M13.167,37V35.125l-.8.845a.5.5,0,0,1-.724,0l-.8-.845V37H6.5V29h4.108L12,31.192,13.392,29H17.5v8Z"/><polygon fill="#a7adaf" points="17 36.5 17 29.5 13.667 29.5 12 32.125 10.333 29.5 7 29.5 7 36.5 10.333 36.5 10.333 33.875 12 35.625 13.667 33.875 13.667 36.5 17 36.5"/><path fill="#333" d="M26.143,37a.5.5,0,0,1-.439-.26l-.337-.615H22.638l-.343.618a.5.5,0,0,1-.438.257H19a.5.5,0,0,1-.445-.728L22.265,29h3.47l3.71,7.272A.5.5,0,0,1,29,37Z"/><path fill="#a7adaf" d="M25.429,29.5H22.571L19,36.5h2.857l.486-.875h3.321l.479.875H29Zm-2.2,4.375L24,32.358l.771,1.517Z"/><path fill="#333" d="M41.5,37H37.494l-2.661-2.095V37H30.5V29h4.006L37.167,31.1V29H41.5Zm-3.66-1H40.5V30H38.167v2.125a.5.5,0,0,1-.81.393L34.16,30H31.5v6h2.333V33.875a.5.5,0,0,1,.81-.393Z"/><polyline fill="#a7adaf" points="31 29.5 34.333 29.5 37.667 32.125 37.667 29.5 41 29.5 41 36.5 37.667 36.5 34.333 33.875 34.333 36.5 31 36.5 31 29.5"/></g></svg>