<svg xmlns="http://www.w3.org/2000/svg"  viewBox="0 0 48 48" width="1600px" height="1600px"><path fill="#d50000" d="M20.002 39h8v2h-8V39zM21.048 42h5.954v4h-5.954V42zM13.002 29h22v1h-22V29zM12.002 31h24v1h-24V31zM12.002 27h24v1h-24V27zM28.331 34.393C26.995 35.681 27.002 38 27.002 38h-6c0 0 .008-2.319-1.328-3.607-.929-.902-2.11-1.089-2.11-1.089-.745-.153-.561-.255-.561-.304h14c0 0 .085.143-.659.304C30.344 33.304 29.257 33.491 28.331 34.393M13.002 33c.264 0 2.629 0 3 0 0 1.232-.829 1.927-2 1.995-.312.018-.648-.009-1-.082C13.002 33.915 13.002 33.506 13.002 33M13.002 26c0-2-.207-5.552-1.421-9.615-1.329-4.454-3.747-7.055-3.567-7.319.164-.249 2.29.2 3.948 1.34 1.769 1.219 4.168 3.432 4.04 3.582-.078.093-.614-.037-1.69-.436C13.167 13.125 12.002 13 12.002 13s1.838 2.723 2.779 6.129c.789 2.858 1.199 6.55 1.221 6.871H13.002M35.002 26h-3c.021-.321.432-4.013 1.221-6.871C34.165 15.723 36.002 13 36.002 13s-1.165.125-2.31.553c-1.076.399-1.612.528-1.69.436-.128-.15 2.271-2.363 4.04-3.582 1.658-1.14 3.784-1.589 3.948-1.34.18.264-2.238 2.864-3.567 7.319C35.21 20.448 35.002 24 35.002 26M35.002 33c-.264 0-2.629 0-3 0 0 1.231.83 1.926 2 1.994.312.018.649-.008 1-.081C35.002 33.915 35.002 33.506 35.002 33M25.717 18.324C24.836 15.579 25.002 10 25.002 10s1.048.856 2.025 1.313c.606.285 1.817.905 1.974.656.121-.2-2.457-2.556-3.469-4.566-1.041-2.055-1.273-5.089-1.53-5.373-.257.284-.488 3.318-1.53 5.373-1.012 2.01-3.591 4.366-3.469 4.566.157.249 1.368-.371 1.974-.656C21.954 10.856 23.002 10 23.002 10s.167 5.579-.715 8.324C21.002 23 19.224 25.693 19.002 26h3c.848-1.49 1.408-3.114 2-5.337.592 2.224 1.152 3.848 2 5.337h3C28.781 25.693 27.002 23 25.717 18.324z"/></svg>