<svg xmlns="http://www.w3.org/2000/svg"  viewBox="0 0 48 48" width="1600px" height="1600px" clip-rule="evenodd"><path fill="#d5d8f0" fill-rule="evenodd" d="M24,9c11.04,0,18,5.426,18,15s-6.205,15-18,15S6,33.585,6,24 S12.96,9,24,9z M24,6c13.638,0,22,6.375,22,18s-7.429,18-22,18S2,35.639,2,24S10.362,6,24,6z" clip-rule="evenodd"/><path fill="#d5d8f0" fill-rule="evenodd" d="M24 32c-3.226-6.883-6.325-7.46-17-11-.883-.301-1.498-.84-2.059-1.235l2.118-5.294C7.643 14.711 8.112 15.479 9 16c.846.516 3.464 1.462 5 2 5.113 1.791 8.191 4.195 10 8V32zM24 32c3.226-6.883 6.325-7.46 17-11 .726-.262 1.388-.528 2.059-1.235l-2.118-5.294C40.425 15.083 39.82 15.546 39 16c-.846.516-3.464 1.462-5 2-5.113 1.791-8.191 4.195-10 8V32z" clip-rule="evenodd"/><path fill="#7984cd" fill-rule="evenodd" d="M7.953,32L5,30c0,0-2.606-9.368,1-13 c6.011,1.998,18.273,7.086,18,15c-2.352-5.465-6.072-6.951-6.072-6.951c-4.007-1.966-7.399-2.892-10.929-4.051l-0.69-0.296 C6.182,21.352,5.13,27.295,7.953,32z" clip-rule="evenodd"/><path fill="#7984cd" fill-rule="evenodd" d="M40.051,32l2.953-2c0,0,2.607-9.368-1-13 c-6.01,1.998-18.273,7.086-17.999,15c2.352-5.465,6.072-6.951,6.072-6.951c4.007-1.966,7.399-2.892,10.929-4.051l0.69-0.296 C41.823,21.352,42.874,27.295,40.051,32z" clip-rule="evenodd"/><path fill="#9fa6dc" fill-rule="evenodd" d="M8.398,15.57c0,0-0.491-0.335-0.398-1.57s4.044-6,16-6 s15.982,6,15.982,6c0.056,0.677-0.072,1.206-0.341,1.618C39.393,15.446,36.106,8.982,24,9C11.878,9.036,8.668,15.393,8.398,15.57z" clip-rule="evenodd"/><path fill="#7984cd" fill-rule="evenodd" d="M2.784,30.013C2.596,29.412,2.461,28.719,2.326,28l2.67,2.013 c2.133,6.514,8.057,11.012,19,11C34.852,41,40.84,36.5,43,30l2.674-1.999c-0.137,0.725-0.293,1.412-0.492,2.011h0.026 c-2.263,7.799-9.385,12-21.212,12c-11.83,0-18.953-4.193-21.213-12H2.784z" clip-rule="evenodd"/></svg>