<svg xmlns="http://www.w3.org/2000/svg"  viewBox="0 0 48 48" width="1600px" height="1600px"><path fill="#f44336" d="M0,29c0,0,28.95-17,44.922-13c2.36,0.591,3.093,1.798,3.077,3.4C47.917,28,24.957,42,24.957,42	S44.922,18,0,29z"/><path fill="#c62828" d="M44.922,16C30.835,12.472,6.665,25.273,1.153,28.346c8.753-3.56,31.521-11.726,37.593-7.096	c5.602,4.273-6.077,14.859-13.134,20.341C29.34,39.241,47.926,27.138,48,19.4C48.015,17.798,47.283,16.591,44.922,16z"/><path fill="#455a64" d="M44.922,16C30.835,12.472,6.665,25.273,1.153,28.346c8.753-3.56,35.078-13.726,41.149-9.096	c5.602,4.273-9.634,16.859-16.69,22.341C29.34,39.241,47.926,27.138,48,19.4C48.015,17.798,47.283,16.591,44.922,16z"/><path fill="#212121" d="M44.922,16C30.835,12.472,6.665,25.273,1.153,28.346c21.308-10.096,37.76-14.789,43.832-10.158	c5.602,4.273-12.317,17.922-19.373,23.404C29.34,39.241,47.926,27.138,48,19.4C48.015,17.798,47.283,16.591,44.922,16z"/><path fill="#fff" d="M38.434,16.375c3.848,0.25,10.785,0.031,7.071,5.917C46.125,20,45.625,17.25,38.434,16.375z"/></svg>