<svg xmlns="http://www.w3.org/2000/svg"  viewBox="0 0 48 48" width="1600px" height="1600px"><path fill="#b3bde2" d="M24,19H0c3,4.667,8,10,12,14h12h12c4-4,9-9.333,12-14H24z"/><path fill="#7986cb" d="M4.553 25c.571.673 1.154 1.339 1.746 2h35.402c.592-.661 1.175-1.327 1.746-2H4.553zM37.966 31c.628-.647 1.263-1.315 1.904-2H8.13c.641.685 1.276 1.353 1.904 2H37.966zM1.38 21c.481.661.994 1.329 1.527 2h42.186c.533-.671 1.045-1.339 1.527-2H1.38z"/><path fill="#b3bde2" d="M24 14A11 11 0 1 0 24 36A11 11 0 1 0 24 14Z"/><path fill="#263238" d="M24 16A9 9 0 1 0 24 34A9 9 0 1 0 24 16Z"/><path fill="#fff" d="M23 23H24V27H23zM25 23H26V27H25zM30 23H31V27H30zM28 23H29V27H28zM21 23H22V27H21zM17 23H18V27H17z"/><path fill="#fff" d="M26.5 22.821H27.501V27.189H26.5z" transform="rotate(-39.412 27 25.004)"/><path fill="#fff" d="M21.891 23.47L21.008 23 19.504 25.82 18 23 17.117 23.47 19 27 20.008 27z"/></svg>