<svg xmlns="http://www.w3.org/2000/svg"  viewBox="0 0 48 48" width="1600px" height="1600px" clip-rule="evenodd"><path fill="#c5cae9" d="M24,4C12.954,4,4,12.954,4,24c0,11.046,8.954,20,20,20s20-8.954,20-20 C44,12.954,35.046,4,24,4z M24,40c-8.837,0-16-7.163-16-16S15.163,8,24,8s16,7.163,16,16S32.837,40,24,40z" opacity=".72"/><path fill="#9fa8da" d="M39.95,25C39.431,33.368,32.499,40,24,40S8.569,33.368,8.05,25h-4C4.575,35.578,13.292,44,24,44 s19.425-8.422,19.95-19H39.95z"/><path fill="#7986cb" d="M24,42c9.941,0,18-8.059,18-18S33.941,6,24,6S6,14.059,6,24S14.059,42,24,42z M24,8 c8.837,0,16,7.163,16,16s-7.163,16-16,16S8,32.837,8,24S15.164,8,24,8z"/><path fill="#9fa8da" d="M8,24L8,24c0-8.837,7.163-16,16-16s16,7.163,16,16v0h2v0c0-9.941-8.059-18-18-18 C14.059,6,6,14.059,6,24v0H8z"/><path fill="#e8eaf6" fill-rule="evenodd" d="M24,18c6.943,0,18.733,0.485,22.166,1.603 c0.479,0.156,0.589,0.274,0.654,1.08C46.919,21.916,46.997,22.87,47,24c0.002,1.09-0.066,2.345-0.255,4.175 c-0.044,0.43-0.348,0.708-0.811,0.782C41.449,29.68,32.48,30.018,24,30c-8.693-0.019-16.256-0.26-22.042-1.192 c-0.732-0.118-0.662-0.972-0.732-1.639C1.113,26.099,1.018,25.064,1,24c-0.019-1.123,0.046-2.278,0.265-3.541 c0.096-0.558,0.208-0.904,1.002-1.08C6.818,18.373,11.887,18,24,18z" clip-rule="evenodd"/><path fill="#ced4ef" fill-rule="evenodd" d="M46.819,20.683c-0.006-0.071-0.013-0.131-0.019-0.192 c-0.016,0.235-0.029,0.471-0.029,0.71c0,1.518-2.071,1.842-2.774,1.93c-5.478,0.692-12.294,0.884-19.997,0.9 c-0.001,0-0.001,0-0.002,0h-0.002C16.294,24.015,9.478,23.823,4,23.131c-0.703-0.089-2.774-0.412-2.774-1.93 c0-0.125-0.01-0.247-0.015-0.37C1.041,21.948,0.983,22.99,1,24c0.018,1.064,0.113,2.099,0.226,3.169 c0.07,0.666,0.001,1.521,0.732,1.639C7.744,29.74,15.307,29.981,24,30c8.48,0.018,17.449-0.32,21.934-1.043 c0.463-0.075,0.766-0.352,0.811-0.782C46.934,26.345,47.003,25.09,47,24C46.997,22.87,46.919,21.916,46.819,20.683z" clip-rule="evenodd"/><path fill="#1a237e" d="M19.188 23.506c.945.105 1.599.177 1.788 1.182 0 .079.024.251.024.542 0 .185 0 .479 0 .791C21 26.938 20.304 27 19.312 27h-4.123c-.142 0-.165-.026-.165-.185v-.622c0-.159.024-.185.165-.185h4.591c.165 0 .213-.053.236-.185v-.729-.239c-.024-.106-.047-.265-.26-.29-.449-.026-2.365-.271-3.263-.376-1.158-.132-1.423-.495-1.47-.971C15 23.058 15 22.847 15 22.662c0-.159-.003-.372.021-.558 0-.917.571-1.104 1.563-1.104h4.227c.142 0 .19.027.19.159v.679c0 .132-.047.185-.19.158h-4.545c-.165 0-.236.079-.26.264v.198.431c0 .132.071.238.236.264C16.691 23.207 18.669 23.453 19.188 23.506zM26.188 23.506c.945.105 1.599.177 1.788 1.182 0 .079.024.251.024.542 0 .185 0 .479 0 .791C28 26.938 27.304 27 26.312 27h-4.123c-.142 0-.165-.026-.165-.185v-.622c0-.159.024-.185.165-.185h4.591c.165 0 .213-.053.236-.185v-.729-.239c-.024-.106-.047-.265-.26-.29-.449-.026-2.365-.271-3.263-.376-1.158-.132-1.423-.495-1.47-.971C22 23.058 22 22.847 22 22.662c0-.159-.003-.372.021-.558 0-.917.571-1.104 1.563-1.104h4.227c.142 0 .19.027.19.159v.679c0 .132-.047.185-.19.158h-4.545c-.165 0-.236.079-.26.264v.198.431c0 .132.071.238.236.264C23.691 23.207 25.669 23.453 26.188 23.506zM11.849 21C11.978 21 12 21.053 12 21.185v5.655c0 .159-.022.185-.151.185h-.661c-.165 0-.709.016-1.1-.528C9.188 25.188 7 22.024 7 22.024v4.817c0 .159-.022.185-.151.185H6.151C6.022 27.025 6 26.999 6 26.841v-5.655C6 21.053 6.022 21 6.151 21h.433c.565 0 .976.024 1.252.503.277.462 3.144 4.486 3.144 4.486v-4.803c0-.132.022-.185.151-.185H11.849zM41.849 21C41.978 21 42 21.053 42 21.185v5.655c0 .159-.022.185-.151.185h-.661c-.165 0-.709.016-1.1-.528C39.188 25.188 37 22.024 37 22.024v4.817c0 .159-.022.185-.151.185h-.698c-.129 0-.151-.026-.151-.185v-5.655C36 21.053 36.022 21 36.151 21h.433c.565 0 .976.024 1.252.503.277.462 3.144 4.486 3.144 4.486v-4.803c0-.132.022-.185.151-.185H41.849zM13.909 21.027c.076 0 .091.052.091.158v5.657c0 .132-.015.185-.106.185h-.788C13.015 27.027 13 27 13 26.841v-5.657c0-.106.015-.158.076-.158H13.909zM34.952 26.735c-.526-1.533-1.696-5.1-1.696-5.1C33.022 20.974 32.906 21 32.457 21c-.154 0-.3 0-.457 0s-.303 0-.457 0c-.437 0-.565-.026-.799.635 0 0-1.17 3.567-1.696 5.1-.098.264-.039.264.117.264h.782c.078 0 .117-.052.136-.105 0 0 .13-.368.314-.893h3.207c.185.525.314.893.314.893.019.053.058.105.136.105h.782C34.991 26.999 35.05 26.999 34.952 26.735zM30.748 25c.468-1.332 1.01-2.879 1.01-2.894.019-.053.059-.079.117-.079C31.893 22.002 31.946 22.001 32 22c.054 0 .107.001.126.026.059 0 .098.026.117.079 0 .015.542 1.563 1.01 2.894H30.748z"/></svg>