<svg xmlns="http://www.w3.org/2000/svg"  viewBox="0 0 48 48" width="1600px" height="1600px"><ellipse cx="24" cy="24" fill="#d32f2f" rx="23" ry="10"/><ellipse cx="24" cy="24" fill="#fff" rx="22" ry="9"/><ellipse cx="24" cy="24" fill="#d32f2f" rx="21" ry="8"/><ellipse cx="31.544" cy="21.982" fill="#fff" rx=".894" ry=".656" transform="rotate(-51.097 31.544 21.982)"/><path fill="#fff" d="M12,18.404c-1.766,0-3.124,0.969-4,3.596c-1,3,0,6,0,6h1.49c0,0-1.469-2.596-0.49-5c0,0,0.766,1,2,1	c2,0,3-2,3-3S13.692,18.404,12,18.404z M12.5,22.207C12.181,22.798,11.723,23,11,23s-1.218-0.638-1.016-1.723	c0,0,0.197-1.694,1.947-1.516C13.23,19.893,12.823,21.607,12.5,22.207z"/><path fill="#fff" d="M39.397,21.638l0.415-1.292l-1.133,0.064l-0.654,1.692C37.642,22.149,37,22,37,22v1	c0.144,0.176,0.69-0.021,0.69-0.021c-0.559,2.633-1.995,4.117-2.761,4.117c-0.766,0-1.133-1.181-1.133-1.181	c3.415-4.356,2.617-6.16,1.819-6.271c-0.798-0.112-1.548,0.447-2.426,2.218s-0.479,4.037-0.479,4.037	c-0.711,1.771-2.094,1.58-1.996,0.083C30.801,24.677,31.67,24,31,24c-1,0-0.359,0.078-1.168,0.078S28.277,23.755,28,24	s0.004,0.83,0.004,1.468s-0.495,1.436-0.941,1.484c-0.447,0.048-0.59-0.925-0.59-0.925s0.702-1.277,1.532-2.633	s1.021-3.942,0.16-4.053s-2.09,1.245-2.569,3.064s-0.207,3.415-0.207,3.415s0.064,1.069-1.101,1.069	c-1.165,0,0.638-2.745,0.239-3.263c-0.399-0.519-1.277-0.024-1.532,0S22,23,22,23c-1,5-2.294,3.952-2.294,3.952	c2.298-2.394,1.213-3.718,0.495-3.75s-1.644,0.638-1.947,1.612c-0.303,0.973,0.128,1.931,0.128,1.931s-0.08,0.335-0.59,0.335	c-0.511,0-0.67-0.511-0.67-0.75s0.144-2.186,1.133-3.495C19.243,21.527,23,22,23,22v-1c-3.239-0.319-4.363,0.59-4.363,0.59L19,20h-1	c0,0-0.56,2.165-0.783,2.356C16.993,22.548,16,22,16,22v1c0.303,0.239,0.881,0.266,0.881,0.266S16.83,24.66,16,26	c-0.83,1.341-1.385,1-2.064,0.984c0.853-0.447,2.722-3.574,0.647-3.447c-2.075,0.128-2.046,2.931-1.999,3.218	c-0.128,0.112-1.097,0.404-1.097,0.404l0.144,0.83l1.404-0.574c0,0,0.176,0.574,1.356,0.574s1.899-1.117,1.899-1.117	s0.654,0.989,1.42,0.989s1.165-0.447,1.165-0.447s0.527,0.399,1.213,0.399c2.027,0,2.697-3.473,2.697-3.473h0.67	c0,0-0.303,1-0.415,1.319c-0.112,0.319-0.399,2.186,0.862,2.186s1.899-0.878,1.899-0.878c1.165,1.516,1.803,0.702,2.521,0.144	C29.041,26.553,29,25,29,25h1c0,0-0.113,0.771-0.113,1.011C29.887,26.25,29.676,28,31,28c1.324,0,2.062-1.223,2.062-1.223	s0.574,1.213,1.803,1.213s2.09-1.037,2.09-1.037S37.17,28,38,28s1.605-0.346,1.605-0.346L40,27c0,0-0.938,0.08-1.48,0.08	s-0.957-0.638-0.957-0.638l1.404-3.718C40.897,21.622,43,22,43,22v-1C41.5,20.585,39.397,21.638,39.397,21.638z M13.393,26.367	c-0.279-0.04-0.072-2.194,0.965-2.074S13.672,26.407,13.393,26.367z M19,26c-0.279-0.04-0.037-2.12,1-2	C21.037,24.12,19.279,26.04,19,26z M26,25c-0.149-0.096,0.12-1.369,0.439-2.422C26.758,21.525,27.532,19.894,28,20	s-0.039,1.552-0.263,2.28C27.502,23.04,26.259,25.167,26,25z M33.479,25.064c-0.149-0.096,0.013-1.353,0.332-2.406	s1.061-2.41,1.529-2.304s-0.007,1.278-0.231,2.006C34.875,23.12,33.738,25.231,33.479,25.064z"/></svg>