<svg xmlns="http://www.w3.org/2000/svg"  viewBox="0 0 48 48" width="1600px" height="1600px"><path fill="#455A64" d="M24 3.034L5 14.116 5 32.31 5 34.507 14.518 39.517 24 44.967 33.482 39.517 43 34.507 43 14.116z"/><path fill="#2196F3" d="M24 7.448L9 16.194 9 30.56 9 32.296 16.514 36.251 24 40.553 31.486 36.251 39 32.296 39 16.194z"/><path fill="#ECEFF1" d="M36,24.033c0-0.305-0.033-0.602-0.084-0.894c-0.016-0.101-0.04-0.196-0.062-0.293c-0.041-0.178-0.091-0.353-0.15-0.525c-0.04-0.116-0.077-0.234-0.126-0.346c-0.443-1.044-1.234-1.948-2.305-2.634c-0.577-0.403-1.214-0.772-1.886-1.126l-3.868-2.273c0,0-2.936-1.712-3.52-2.657c-0.583,0.945-3.52,2.657-3.52,2.657l-3.868,2.273c-0.672,0.354-1.309,0.723-1.885,1.126c-1.071,0.686-1.862,1.59-2.306,2.634c-0.048,0.111-0.086,0.229-0.125,0.346c-0.06,0.173-0.109,0.348-0.15,0.525c-0.021,0.097-0.045,0.192-0.062,0.293C12.034,23.432,12,23.729,12,24.033c0,0.012,0.002,0.023,0.002,0.035c0,0.008-0.002,0.014-0.002,0.021c0,0.084,0.01,0.165,0.016,0.248c0.159,2.877,2.542,5.17,5.458,5.17c1.026,0,2.03-0.299,2.99-0.892c0.146-0.09,0.777-0.468,1.537-0.922v4.813l2,2l2-2v-4.813c0.76,0.454,1.391,0.832,1.537,0.922c0.959,0.593,1.964,0.892,2.99,0.892c2.915,0,5.299-2.293,5.457-5.17C35.99,24.254,36,24.173,36,24.089c0-0.007-0.002-0.013-0.002-0.021C35.998,24.057,36,24.045,36,24.033z M22,24.199c-1.306,0.779-2.874,1.716-3.117,1.866c-0.426,0.263-0.885,0.441-1.41,0.441c-1.367,0-2.473-1.105-2.473-2.474c0-1.026,0.655-1.79,1.515-2.281L22,18.528V24.199z M30.527,26.507c-0.525,0-0.984-0.179-1.41-0.441c-0.243-0.15-1.811-1.087-3.117-1.866v-5.671l5.484,3.224C32.345,22.243,33,23.007,33,24.033C33,25.401,31.894,26.507,30.527,26.507z"/></svg>