<svg xmlns="http://www.w3.org/2000/svg"  viewBox="0 0 48 48" width="1600px" height="1600px"><path fill="#dd2c00" d="M9.068,26c0.323,3.018,2.001,6.973,4.831,10.412c2.448,2.974,5.823,5.512,10.098,6.588H24V26H9.068z"/><path fill="#263238" d="M24.001,5.006c4.938,0.081,9.877,1.017,14.817,2.807l0.172,0.063V25 c-0.009,3.1-1.747,7.582-4.897,11.412C31.646,39.387,28.273,41.924,24,43h-0.003c-4.273-1.076-7.647-3.613-10.093-6.588 C10.753,32.582,9.015,28.1,9.006,25V7.876l0.172-0.063c4.94-1.79,9.879-2.726,14.817-2.807H24.001 M24.009,4.006h-0.008h-0.005 C18.954,4.088,13.86,5.053,8.838,6.873L8.664,6.936l-0.658,0.24v0.7V25c0.011,3.547,2.022,8.275,5.125,12.047 c2.884,3.505,6.556,5.899,10.622,6.922l0.12,0.03h0.124h0.124l0.123-0.03c4.065-1.023,7.738-3.417,10.622-6.922 c3.103-3.773,5.114-8.5,5.125-12.044V7.876v-0.7l-0.658-0.24l-0.172-0.063c-5.024-1.821-10.119-2.785-15.143-2.867L24.009,4.006 L24.009,4.006z"/><path fill="#ffd740" d="M24,43c4.275-1.076,7.65-3.613,10.098-6.588c3.151-3.83,4.89-8.312,4.899-11.412H24V43z"/><path fill="#263238" d="M26.114 33.969c.224-.172.724-.335 1.008-.452-.008-.416-.183-.807-.079-1.149.19-.624.618-.898 1.044-.945.027.009.051.06.025.075-.239.22-.327.526-.376.872-.019.134-.038.53.085.813.249-.123.855-.33 1.061-.382.021-.414.088-.82.209-1.117.24-.585.767-1.045 1.299-.781.028.014.05.069.021.079-.331.119-.544.458-.733.841-.056.113-.243.737-.027.866.004.002.008.005.011.007.381-.075.444-.042.854-.076.071-.407.248-.746.408-1.017.243-.454.852-.816 1.41-.49.03.018.048.076.015.083-.381.082-.629.327-.771.542-.072.104-.42.59-.244.781.02-.001.04-.001.06-.002.328-.01.564.054.919.118.101-.24.193-.276.299-.406.377-.455 1.034-.615 1.251-.181.021.024.026.084-.002.082-.2.03-.527.127-.692.328-.043.043-.149.157-.248.371.444.337.704.605.822 1.068.021.084.069.542-.098.308-.725-.891-1.702-1.085-3.178-.949-1.574.146-2.296.369-3.878 1.203.872.765-.438 1.513-.651.395-.767 1.139-1.576-.296-.539-.505C24.395 33.35 25.829 32.887 26.114 33.969L26.114 33.969zM28.799 29.037c.566-.186 1.186-.379 1.502-.447.059-.91.927-2.034 1.958-1.641.038.014.066.069.028.079-.265.072-1.108.869-.819 1.371.211.011.789.001.972.01.228-1.004 1.105-1.703 2.12-1.249.039.018.063.076.021.083-.398.065-1.3.689-1.197 1.212.186.012.683.183 1.011.354.118-.241.25-.341.376-.47.44-.455 1.341-.487 1.594-.052.025.024.031.084-.002.083-.389-.013-.729.041-1.052.328-.049.043-.16.2-.275.414.315.166.67.497.738.811.051.153.085.286.052.445-.009.042-.095.001-.123-.03-.832-.891-2.67-1.446-4.451-1.227-1.191.146-2.349.46-3.32.883C28.257 29.708 28.548 29.387 28.799 29.037L28.799 29.037zM26.174 31.065c-.082.073-.159.147-.231.223.429.565-.244 1.03-.443.453-.504.532-.903-.086-.573-.345C25.361 31.33 25.778 31.218 26.174 31.065L26.174 31.065zM25.884 38.718c.119-.128.406-.375.551-.488-.443-.694-.195-1.569.233-1.631.022.009.047.057.028.073-.116.165-.177 1.071.166 1.274.171-.119.506-.345.653-.394-.251-.828.19-1.939 1.028-1.759.023.013.047.067.027.077-.693.345-.695 1.382-.511 1.505.275-.073.587-.193.889-.226.133-1.102 1.129-1.6 1.623-1.316.024.016.045.072.021.079-.278-.161-1.316.891-.976 1.2.244-.009.52.091.793.153.117-.608.993-1.12 1.356-.732.02.023.031.08.01.079-.333.065-.767.369-.834.931.701.322.625.995.507.821-.656-.861-2.066-.718-3.134-.497-.622.128-1.5.713-1.87 1.125 1.127.524.1 1.49-.371.394-.78 1.344-1.541.122-.636-.247C24.351 38.31 25.507 37.748 25.884 38.718L25.884 38.718z"/><path fill="#ffd740" d="M24.005,5.046v-0.04c-4.94,0.081-9.881,1.017-14.824,2.807L9.009,7.876c0,0-0.021,14.313,0,17.124V25 H9.006c0.001,0.317,0.032,0.657,0.069,1H24v-1h0.009V5.014L24.005,5.046z"/><path fill="#263238" d="M11.542 15.794c.256-.159.514-.306.776-.442-.038-.401-.083-1.026.028-1.365.202-.619.783-1.132 1.463-1.018.037.006.072.053.038.07-.384.198-.687.491-.857.905-.051.122-.24.946.04 1.014.03.007.059.012.089.014.499-.212 1.014-.391 1.548-.54-.002-.401.015-.962.153-1.26.27-.585.929-1.014 1.639-.808.038.011.071.062.034.075-.423.144-.77.392-.989.779-.065.114-.338.904-.049 1.01.005.002.011.004.016.005.49-.107.997-.193 1.528-.262.063-.399.171-.922.36-1.197.392-.571 1.187-.956 1.936-.692.04.014.068.069.026.078-.49.113-.913.338-1.215.713-.086.106-.487.834-.246 1.002.026-.003.051-.005.078-.008.426-.039.907-.051 1.373-.022.114-.241.245-.472.376-.606.458-.472 1.478-.636 1.79-.236.03.021.04.078.003.079-.434.017-.883.08-1.221.381-.051.046-.236.231-.349.446.704.112 1.291.351 1.476.787.061.145.104.27.083.425-.005.041-.094.008-.124-.02-.892-.802-2.296-.892-4.195-.567-1.912.327-3.523.884-5.233 1.681.692.762-.395 1.351-.748.547-.828.975-1.605-.439-.457-.608C10.058 15.15 11.368 15.115 11.542 15.794L11.542 15.794zM11.773 23.538c.228-.17.519-.312.754-.459-.244-.377-.38-.925-.292-1.27.161-.628.556-.915 1.047-.889.034.005.067.05.037.069-.344.215-.399.504-.496.939-.052.234.077.628.254.762.442-.232.428-.201.892-.364-.137-.408-.101-.944.062-1.286.261-.55.696-.747 1.143-.658.034.009.064.057.033.07-.341.145-1.041.686-.587 1.717.425-.148.449-.171.986-.285.042-.402.053-.885.215-1.169.336-.589 1.105-.856 1.462-.717.037.012.065.066.027.077-.203.134-.462.232-.724.62-.141.209-.402.688-.327 1.008.388-.056.89-.077 1.317-.067.095-.246.277-.55.391-.69.078-.096.179-.163.294-.208v1.451c-.732-.035-1.538.045-2.307.224-1.738.406-2.188.713-3.735 1.526.929.571.029 1.44-.543.579-1.01 1.129-1.656-.327-.611-.543C10.281 23.039 11.576 22.536 11.773 23.538L11.773 23.538zM11.321 19.681c.26-.153.618-.27.883-.401-.029-.402-.084-.768.036-1.105.217-.614.543-.926 1.076-.866.036.007.07.055.037.071-.388.19-.288.452-.468.862-.054.121-.189.611.088.685.03.008.059.013.089.017.496-.201.322-.18.838-.311.007-.384.036-.921.175-1.203.271-.555.792-.834 1.273-.715.036.011.114.108.079.12-.381.12-1.038.878-.767 1.478.336-.055.554-.159 1.147-.235.073-.398.217-.8.412-1.071.405-.563 1.041-.67 1.421-.507.04.015.09.117.048.126-.492.102-.509.058-.821.426-.168.198-.514.725-.264.967.426-.03.715-.078 1.179-.039.12-.238.208-.56.342-.692C19 17 19 17 19.652 17.091c.03.022.039.079.002.079-.434.007-.595.131-.94.425-.034.03-.118.129-.205.253H18.26v.799c-.719-.062-1.488-.041-2.222.067-1.919.284-2.625.711-4.209 1.469.674.777-.426 1.317-.76.506-.851.956-1.594-.475-.443-.618C9.998 19.05 11.14 18.785 11.321 19.681L11.321 19.681zM24 33H11.557c.664 1.159 1.438 2.313 2.343 3.412.165.2.344.392.517.588H24V33zM22 26H9c.003 1.172.256 2.543.737 4H22V26z"/><path fill="#dd2c00" d="M38.997,7.876l-0.172-0.063c-4.942-1.79-9.883-2.726-14.824-2.807L24,5.014V25h14.997v-0.001 C39.018,22.189,38.997,7.876,38.997,7.876z"/><path fill="#263238" d="M30 17H39V21H30zM24 9H39V13H24z"/><path fill="#ffd740" d="M38.657,13.271c-4.867-1.763-9.798-2.697-14.656-2.777c-4.858,0.08-9.789,1.015-14.655,2.777 l-0.843,0.306V7.521l0.5-0.184C13.979,5.536,19.021,4.582,23.99,4.5c4.991,0.082,10.033,1.036,15.008,2.837L39.5,7.521v6.056 L38.657,13.271z"/><path fill="#263238" d="M24.004,5c4.94,0.081,9.881,1.017,14.824,2.807L39,7.87v4.994l-0.172-0.063 c-4.942-1.79-9.883-2.726-14.824-2.807l-0.005,0.04v-0.04c-4.94,0.081-9.881,1.017-14.824,2.807l-0.172,0.063V7.87l0.172-0.063 C14.117,6.017,19.058,5.081,23.999,5H24.004 M24.012,4h-0.008h-0.005c-5.043,0.083-10.14,1.047-15.164,2.867L8.66,6.93L8.003,7.17 v0.7v4.994v1.429l1.342-0.489l0.172-0.063c4.809-1.742,9.683-2.666,14.484-2.747c4.801,0.08,9.674,1.005,14.486,2.747l0.171,0.062 L40,14.293v-1.429V7.87v-0.7l-0.658-0.24L39.17,6.868C34.144,5.047,29.047,4.083,24.02,4L24.012,4L24.012,4z"/><path fill="#263238" d="M11.197,8.003c0.359-0.113,0.718-0.226,1.082-0.328c0.134-0.037,0.269-0.072,0.406-0.101 c0.144-0.028,0.298-0.042,0.439,0.003L13.172,7.6c0.049,0.032,0.078,0.064,0.103,0.115c0.037,0.09,0.051,0.183,0.062,0.279 c0.02,0.207,0.02,0.416,0.004,0.624c-0.015,0.164-0.034,0.332-0.103,0.483c-0.032,0.062-0.068,0.115-0.114,0.168 c-0.037,0.039-0.074,0.073-0.117,0.106C12.921,9.44,12.83,9.49,12.731,9.535c-0.234,0.105-0.48,0.178-0.724,0.255 c-0.427,0.137-0.85,0.285-1.273,0.432l-0.001,0.76c-0.212,0.083-0.425,0.167-0.637,0.251V8.357 C10.463,8.238,10.829,8.119,11.197,8.003L11.197,8.003z M10.734,9.71c0.426-0.143,0.851-0.286,1.279-0.423 c0.13-0.042,0.263-0.08,0.39-0.132L12.5,9.101l0.044-0.032l0.039-0.036l0.034-0.04l0.029-0.044l0.034-0.079 c0.013-0.05,0.021-0.097,0.026-0.148c0.009-0.125,0.011-0.252-0.024-0.373l-0.03-0.065l-0.032-0.04L12.58,8.209l-0.048-0.023 l-0.05-0.014l-0.05-0.005l-0.051,0.001c-0.129,0.015-0.256,0.053-0.379,0.089c-0.425,0.126-0.846,0.267-1.268,0.403L10.734,9.71 L10.734,9.71z M16.11,6.696c0.285-0.052,0.571-0.099,0.86-0.124c0.095-0.008,0.187-0.012,0.282-0.006 c0.046,0.006,0.088,0.013,0.132,0.026c0.037,0.013,0.067,0.027,0.101,0.047c0.03,0.021,0.053,0.041,0.077,0.067 c0.023,0.031,0.04,0.059,0.057,0.093c0.02,0.049,0.034,0.096,0.045,0.147c0.033,0.175,0.041,0.352,0.05,0.529 c0.009,0.201,0.01,0.401,0.004,0.602c-0.003,0.084-0.007,0.168-0.011,0.253c-0.01,0.154-0.019,0.311-0.055,0.462 c-0.009,0.037-0.021,0.073-0.034,0.109c-0.025,0.057-0.053,0.105-0.09,0.155l-0.095,0.095l-0.121,0.08 c-0.049,0.025-0.098,0.045-0.149,0.064c-0.207,0.065-0.422,0.108-0.633,0.151c-0.434,0.089-0.869,0.172-1.304,0.255 c-0.211,0.04-0.421,0.08-0.632,0.109c-0.059,0.007-0.117,0.012-0.175,0.013L14.287,9.81c-0.036-0.01-0.065-0.02-0.098-0.035 l-0.072-0.055l-0.055-0.081L13.976,9.21l-0.002-1.154c0.009-0.136,0.025-0.27,0.056-0.403l0.035-0.114 c0.026-0.061,0.054-0.113,0.092-0.168l0.097-0.107l0.079-0.064c0.086-0.058,0.173-0.102,0.272-0.139l0.475-0.141 C15.42,6.833,15.764,6.761,16.11,6.696L16.11,6.696z M15.779,7.288l-0.683,0.161c-0.055,0.017-0.108,0.035-0.16,0.058l-0.051,0.027 l-0.048,0.033l-0.044,0.036l-0.039,0.041L14.718,7.69l-0.03,0.048c-0.021,0.045-0.037,0.086-0.049,0.134 c-0.036,0.164-0.039,0.334-0.042,0.502c-0.002,0.176-0.005,0.357,0.031,0.531l0.022,0.068l0.034,0.064l0.048,0.055l0.059,0.043 l0.067,0.03l0.072,0.018l0.076,0.006c0.047-0.002,0.091-0.005,0.138-0.011c0.264-0.035,0.528-0.09,0.789-0.142 c0.217-0.043,0.434-0.085,0.649-0.141c0.047-0.012,0.09-0.027,0.136-0.043l0.071-0.034l0.064-0.041l0.057-0.049l0.049-0.056 L17,8.611l0.031-0.068l0.02-0.07c0.036-0.189,0.032-0.382,0.03-0.573c-0.002-0.1-0.004-0.201-0.014-0.301l-0.012-0.08 c-0.013-0.056-0.027-0.105-0.05-0.158L16.98,7.316l-0.031-0.041l-0.038-0.037l-0.044-0.03L16.82,7.186l-0.05-0.012L16.66,7.162 c-0.113-0.001-0.224,0.009-0.336,0.026C16.142,7.217,15.961,7.253,15.779,7.288L15.779,7.288z M20.143,6.214 c0.33-0.025,0.66-0.046,0.992-0.056c0.071-0.002,0.143-0.003,0.214-0.002c0.079,0.003,0.146,0.019,0.217,0.053 c0.026,0.013,0.049,0.028,0.073,0.045c0.053,0.042,0.086,0.084,0.119,0.142c0.022,0.045,0.038,0.088,0.05,0.136 c0.02,0.108,0.022,0.221,0.024,0.33c0.002,0.137,0.002,0.274-0.01,0.41c-0.005,0.054-0.011,0.107-0.026,0.159l-0.021,0.055 c-0.02,0.038-0.039,0.068-0.066,0.101l-0.06,0.052c-0.028,0.018-0.056,0.034-0.087,0.047c-0.045,0.017-0.091,0.028-0.138,0.038 l-0.361,0.073l0.356,0.198c0.048,0.033,0.089,0.067,0.129,0.109l0.043,0.051c0.056,0.078,0.095,0.156,0.127,0.246 c0.05,0.153,0.076,0.312,0.081,0.472c-0.21,0.009-0.421,0.018-0.63,0.029c-0.01-0.113-0.032-0.222-0.063-0.331l-0.048-0.123 l-0.032-0.058l-0.037-0.056l-0.044-0.049L20.89,8.242l-0.064-0.034c-0.039-0.011-0.076-0.021-0.117-0.027 c-0.084-0.01-0.169-0.003-0.253,0.003c-0.407,0.03-0.814,0.062-1.22,0.101l-0.153,0.014v0.765c-0.213,0.023-0.426,0.046-0.638,0.07 V6.376C19.01,6.313,19.576,6.257,20.143,6.214L20.143,6.214z M19.083,7.795c0.423-0.039,0.847-0.075,1.271-0.107 c0.146-0.011,0.292-0.022,0.437-0.037c0.042-0.005,0.082-0.013,0.124-0.023l0.049-0.016l0.047-0.022l0.043-0.027l0.038-0.034 l0.032-0.04l0.024-0.043c0.013-0.034,0.022-0.065,0.03-0.101c0.018-0.117,0.019-0.235,0.008-0.353 c-0.007-0.045-0.015-0.084-0.031-0.128l-0.023-0.042l-0.031-0.04l-0.038-0.034l-0.043-0.026l-0.046-0.02L20.926,6.69 c-0.042-0.007-0.081-0.011-0.123-0.011c-0.208,0.002-0.418,0.02-0.625,0.035c-0.365,0.027-0.73,0.06-1.095,0.092V7.795L19.083,7.795 z M23.573,8.433c0.24,0.002,0.481,0.002,0.722,0.002c0.165,0,0.333,0.006,0.497-0.011c0.036-0.005,0.071-0.011,0.106-0.018 c0.034-0.01,0.062-0.02,0.093-0.036l0.037-0.028l0.031-0.035l0.024-0.039l0.016-0.041l0.019-0.084l0.004-0.126L25.1,7.877 l-0.011-0.035L25.07,7.805L25.042,7.77l-0.039-0.032l-0.042-0.023l-0.09-0.031l-0.162-0.021L24.513,7.66l-1.331-0.005 c-0.13-0.001-0.262-0.002-0.39-0.023c-0.034-0.008-0.067-0.015-0.099-0.03L22.653,7.58l-0.036-0.026l-0.033-0.03l-0.03-0.034 l-0.026-0.038C22.5,7.4,22.479,7.35,22.465,7.292c-0.031-0.144-0.033-0.295-0.032-0.442c0.005-0.179,0.014-0.367,0.092-0.532 c0.017-0.03,0.034-0.055,0.057-0.08c0.089-0.081,0.215-0.112,0.332-0.136c0.124-0.024,0.25-0.027,0.376-0.031 c0.288-0.006,0.578-0.005,0.867-0.006c0.479,0.005,0.959,0.012,1.438,0.023v0.417c-0.634-0.012-1.269-0.024-1.904-0.02 c-0.144,0.002-0.289,0.003-0.432,0.017c-0.032,0.004-0.061,0.01-0.092,0.017l-0.052,0.024l-0.046,0.04L23.039,6.63l-0.018,0.048 l-0.012,0.087c-0.002,0.072-0.002,0.143,0.004,0.215l0.009,0.048l0.018,0.053l0.037,0.054l0.062,0.043l0.065,0.012 c0.666,0.011,1.333,0.029,1.998,0.053l0.082,0.01c0.103,0.025,0.207,0.071,0.286,0.142c0.036,0.037,0.064,0.075,0.086,0.121 c0.06,0.145,0.073,0.311,0.078,0.466c0.002,0.18-0.007,0.362-0.058,0.536c-0.009,0.025-0.018,0.05-0.028,0.075l-0.034,0.057 c-0.027,0.035-0.054,0.062-0.089,0.091c-0.062,0.042-0.126,0.071-0.2,0.089c-0.107,0.021-0.22,0.027-0.33,0.034 c-0.327,0.017-0.653,0.016-0.979,0.014c-0.513,0.003-1.025,0.01-1.538,0.019c-0.002-0.148-0.002-0.296-0.002-0.443 c0.346-0.009,0.691-0.016,1.037-0.019H23.573L23.573,8.433z M27.956,9.012c-0.269-0.023-0.538-0.045-0.804-0.083 c-0.117-0.018-0.234-0.039-0.346-0.075c-0.059-0.02-0.112-0.045-0.164-0.075c-0.037-0.023-0.067-0.047-0.098-0.076 c-0.03-0.031-0.053-0.059-0.076-0.094c-0.021-0.038-0.037-0.074-0.051-0.114c-0.04-0.145-0.049-0.298-0.056-0.447 c-0.012-0.37-0.015-0.74,0.001-1.11l0.005-0.092c0.012-0.17,0.027-0.339,0.132-0.483c0.034-0.042,0.071-0.073,0.119-0.101 c0.131-0.068,0.288-0.089,0.434-0.1c0.155-0.01,0.31-0.009,0.466-0.006c0.31,0.008,0.621,0.024,0.93,0.05 c0.445,0.039,0.891,0.08,1.335,0.127V6.82c-0.589-0.056-1.18-0.106-1.769-0.144c-0.191-0.012-0.385-0.025-0.576-0.014l-0.094,0.012 l-0.064,0.019l-0.059,0.028l-0.055,0.038l-0.047,0.047L27.084,6.86l-0.028,0.06c-0.012,0.039-0.022,0.076-0.031,0.116 c-0.031,0.187-0.032,0.379-0.031,0.567c0.002,0.156,0.004,0.314,0.032,0.468c0.008,0.039,0.019,0.074,0.031,0.112l0.03,0.058 l0.039,0.053l0.047,0.046l0.054,0.038l0.059,0.031l0.063,0.023c0.052,0.012,0.102,0.023,0.155,0.03 c0.175,0.024,0.353,0.039,0.531,0.054c0.6,0.047,1.199,0.107,1.8,0.172c0.001,0.15,0.003,0.299,0.005,0.448v0.047 c-0.375-0.039-0.751-0.077-1.128-0.109C28.46,9.051,28.207,9.033,27.956,9.012L27.956,9.012z M32,7.771 c0.491,0.085,0.98,0.18,1.469,0.276V6.949c0.228,0.047,0.455,0.098,0.683,0.149v2.834c-0.228-0.054-0.455-0.107-0.683-0.159V8.656 c-0.39-0.079-0.781-0.156-1.172-0.227c-0.364-0.067-0.728-0.129-1.091-0.189v1.103c-0.228-0.035-0.455-0.07-0.683-0.102V6.463 c0.228,0.029,0.456,0.058,0.683,0.091v1.085C31.469,7.682,31.735,7.726,32,7.771L32,7.771z M37.195,7.956 c0.241,0.078,0.483,0.157,0.724,0.238v0.466c-0.704-0.237-1.414-0.46-2.127-0.669L35.556,7.92v0.706 c0.521,0.152,1.04,0.308,1.558,0.474c0.228,0.073,0.456,0.149,0.684,0.225v0.42c-0.666-0.221-1.336-0.429-2.01-0.626l-0.233-0.068 v0.755c0.501,0.147,1.001,0.298,1.498,0.455c0.294,0.093,0.588,0.188,0.881,0.285v0.484c-0.957-0.311-1.921-0.601-2.891-0.871 l-0.112-0.031V7.288C35.692,7.493,36.446,7.717,37.195,7.956L37.195,7.956z"/><path fill="#ffd740" d="M24,31.5c-3.584,0-6.5-2.916-6.5-6.5v-7.5h13V25C30.5,28.584,27.584,31.5,24,31.5z"/><path fill="#263238" d="M30,18v7c0,3.314-2.686,6-6,6h0c-3.314,0-6-2.686-6-6v-7H30 M31,17h-1H18h-1v1v7c0,3.86,3.14,7,7,7 c3.86,0,7-3.14,7-7v-7V17L31,17z"/><path fill="#263238" d="M21.004 26.822c.058.011.188-.16.234-.253.046-.093.036-.255.026-.278-.011-.024-.156.025-.234.025s-.128-.014-.233-.025c-.106-.012-.091-.249-.104-.38-.031-.328-.046-.658-.026-.987.006-.091.025-.206.104-.253.104-.062.244-.045.363-.025.241.04.46.164.7.202.137.022.281.008.416-.025.112-.027.2-.117.311-.151.058-.018.128-.027.182 0 .187.095.317.291.519.354.247.077.518.041.778.051.207.007.418-.029.622 0 .095.014.241.034.26.126.027.133-.191.248-.156.38.054.197.291.3.39.48.036.067.035.16 0 .228-.034.064-.138.069-.182.126-.063.082-.069.194-.129.278-.063.088-.147.161-.234.228-.19.145-.382.294-.596.405-.069.036-.2-.044-.233.025-.061.126-.12.289-.182.38-.062.09-.138.095-.182.151-.044.056-.109.159-.078.177.032.018.314.013.415 0 .102-.013.165-.023.196-.048.032-.025-.022-.11-.04-.281-.017-.172.472-.244.7-.38.256-.151.495-.331.752-.48.107-.062.246-.07.337-.152.045-.041.026-.117.026-.177 0-.144-.033-.286-.026-.43.003-.07.001-.153.052-.202.043-.042.128-.055.181-.026.086.048.102.172.181.228.116.082.262.114.39.177.114.055.317.054.337.177.035.211-.114.414-.208.607-.047.098-.147.162-.207.253-.036.054-.033.131-.078.177-.114.117-.271.189-.389.303-.084.081-.161.173-.207.278-.026.059-.038.122-.078.178-.04.055-.119.072-.155.151-.037.079-.148.32-.052.303.095-.015.601-.104.622-.151.021-.048-.027-.17-.052-.329s.332-.274.519-.379c.102-.058.244-.03.337-.101.055-.044.025-.138.051-.202.043-.105.08-.218.156-.303.1-.113.277-.153.363-.278.095-.139.185-.315.155-.481-.022-.129-.198-.179-.285-.278-.069-.078-.151-.154-.181-.253-.043-.138-.075-.294-.026-.43.061-.17.229-.283.337-.43.091-.123.225-.231.26-.38.039-.174-.038-.354-.052-.531-.003-.034-.026-.079 0-.101.123-.104.253-.233.415-.253.146-.018.269.131.416.151.154.022.32.027.467-.025.049-.018.063-.116.026-.152-.096-.094-.323-.051-.363-.177-.034-.102.181-.133.233-.228.072-.132.139-.281.13-.43-.003-.051-.112-.052-.156-.025-.069.043-.067.151-.13.203-.048.039-.119.055-.181.051-.066-.005-.141-.026-.182-.076-.038-.046-.077-.144-.026-.177.117-.076.28-.04.416-.076.056-.015.133-.024.155-.076.038-.085.037-.192 0-.278-.016-.04-.087-.036-.129-.026-.061.016-.094.101-.156.101-.085 0-.179-.038-.234-.101-.045-.052-.055-.141-.026-.202.047-.097.188-.131.234-.228.063-.132.109-.287.077-.43-.013-.06-.126-.08-.181-.051-.068.036-.064.138-.104.203-.055.088-.085.212-.182.253-.063.027-.165-.035-.181-.101-.026-.11.037-.224.078-.329.046-.116.103-.231.182-.329.078-.099.221-.144.285-.253.048-.081.08-.202.026-.278-.04-.055-.149-.011-.208.025-.049.03-.025.128-.077.152-.128.059-.292.011-.416.076-.097.051-.149.161-.208.253-.109.169-.115.473-.156.506-.046.038-.145.023-.181-.025-.051-.069.033-.19-.026-.253-.046-.05-.154-.043-.207 0-.064.051-.078.148-.078.228 0 .129.017.265.078.38.098.187.264.334.39.506.126.174.286.332.362.532.049.126.057.281 0 .405-.049.11-.162.237-.284.228-.168-.013-.274-.191-.415-.278-.135-.082-.258-.203-.416-.228-.342-.054-.692 0-1.038 0-.311 0-.625.041-.934 0-.15-.02-.306-.075-.415-.177-.103-.097-.173-.24-.182-.38-.01-.182.052-.365.13-.531.055-.12.143-.237.26-.304.089-.051.232-.088.329-.051.097.037.375.423.441.402.065-.021.021-.349-.018-.452-.059-.153-.23-.25-.286-.405-.016-.045.055-.104.105-.101.096.007.188.062.26.126.038.035.233.297.285.284.051-.013-.023-.395-.078-.511-.074-.157-.309-.275-.329-.313-.016-.033.005-.063.043-.066.089-.007.174.045.26.076.08.029.193.122.234.101.04-.02-.005-.149-.052-.202-.159-.182-.384-.301-.545-.481-.084-.094-.174-.204-.182-.329-.004-.077.083-.145.157-.177.128-.057.303-.085.422-.156.046-.026.015-.052-.035-.072-.187-.076-.394-.101-.596-.101-.117 0-.225.066-.337.101-.078.024-.151.076-.233.076-.141 0-.312.018-.416-.076-.064-.058.012-.177.052-.253.04-.074.119-.121.182-.177.04-.036.178-.085.129-.101-.048-.016-.281-.007-.415.025-.112.027-.227.074-.311.152-.079.072-.063.225-.156.278-.177.101-.267.065-.452.151-.049.023-.142.145-.196.152-.241.032-.702-.088-.726-.051s.37.259.441.455c.032.088-.19-.036-.285-.025-.142.015-.288.039-.416.101-.12.059-.216.16-.311.253-.087.085-.136.207-.234.278-.049.036-.139-.015-.172.034-.039.057-.053.19.016.194l.415.025c.078.005-.069.164-.026.228.033.049.126.024.182 0 .066-.03.094-.112.156-.152.071-.046.148-.105.233-.101.105.005.239.036.286.126.044.086-.061.184-.078.278-.018.1.05.234-.026.303-.222.204-.295.032-.622.43-.261.318-.145.145-.233.557-.017.081-.035.179-.104.228-.071.049-.184.067-.26.025-.143-.079-.242-.223-.337-.354-.054-.074-.024-.206-.104-.253-.103-.061-.247-.063-.363-.025-.088.029-.131.128-.182.203-.114.163-.201.341-.312.506-.089.131-.209.241-.285.38-.038.069-.021.157-.052.228-.087.194-.16.394-.26.582-.04.075-.139.12-.156.203-.02.092.015.271.052.278.038.007.188-.106.286-.152.101-.047.298-.095.311-.126.013-.031-.103-.135-.156-.203-.102-.133.123-.31.207-.455.03-.052.103-.073.13-.126.061-.119.069-.26.129-.38.078-.153.159-.312.286-.43.058-.053.168-.095.233-.051.114.079.14.236.208.355.053.092.127.176.156.278.024.089-.06.206 0 .278.075.091.217.115.337.126l.26.026.026.354c.01.135-.279.024-.416.051-.123.024-.241.075-.363.101-.119.025-.34-.066-.363.051-.099.497.024 1.012.052 1.518.007.136-.077.352.052.405l.256.104c.044.1.078.23.133.3C20.877 26.791 20.946 26.811 21.004 26.822L21.004 26.822zM24 10H25V18H24zM23 31H24V43H23zM30 25H39V26H30z"/></svg>