<svg xmlns="http://www.w3.org/2000/svg"  viewBox="0 0 48 48" width="1600px" height="1600px"><path fill="#37474f" d="M34.503 46c-1.613 0-3.174-.87-3.98-2.396l-8.999-15.998c-1.163-2.196-.325-4.92 1.871-6.082 2.194-1.164 4.92-.325 6.082 1.871l8.999 15.998c1.163 2.196.325 4.92-1.871 6.082C35.934 45.831 35.213 46 34.503 46zM18.503 46c-1.613 0-3.174-.87-3.98-2.396L5.524 27.606c-1.163-2.196-.325-4.92 1.871-6.082 2.194-1.164 4.92-.325 6.082 1.871l8.999 15.998c1.163 2.196.325 4.92-1.871 6.082C19.934 45.831 19.213 46 18.503 46z"/><path fill="#37474f" d="M24.001,3C13.927,3,5.706,10.845,5.063,20.757c0.415-0.387,0.88-0.727,1.395-1 C7.392,19.262,8.443,19,9.496,19h0c1.744,0,3.371,0.698,4.569,1.885C14.621,15.887,18.855,12,24,12c5.523,0,10,4.476,10,10 c0,5.522-4.477,10-10,10c-1.311,0-2.559-0.259-3.706-0.718l5.509,9.627C35.45,40,43,31.883,43,22C43,11.505,34.494,3,24.001,3z"/></svg>