<svg xmlns="http://www.w3.org/2000/svg"  viewBox="0 0 48 48" width="1600px" height="1600px"><path fill="#e64a19" d="M23.6 14.9c-.2.8-.5 1.6-.7 2.5-.4-.8-.8-1.6-1.3-2.3-1.1-1.9-2.4-3.6-4.1-4.9-1.5-1.1-3.3-1.8-5.2-1.7-2.7.1-4.9 1.2-6.6 3.4-.1 0-.2.1-.3.1.4-1 1.1-1.9 1.9-2.7 3.3-3 8.2-3.1 11.9-.4 1.9 1.5 3.3 3.4 4.3 5.6C23.6 14.7 23.6 14.8 23.6 14.9zM42.6 12.1c-.7-.9-1.5-1.7-2.5-2.3-3.1-1.9-6.9-1.7-9.8.6-1.7 1.4-3 3.1-4.1 5-.4.6-.7 1.3-1.1 2-.2-.7-.4-1.3-.6-1.9-.2-.5-.1-.9.1-1.3 1-1.9 2.3-3.7 4-5 3.6-2.9 8.7-2.7 12 .3C41.5 10.2 42.2 11 42.6 12.1z"/><path fill="#e64a19" d="M43.2,15.4c-1.1-2-2.8-3-5.1-3c-2.2,0-3.9,1-5.4,2.5c-1.9,1.9-2.9,4.3-3.8,6.8c0,0.1,0,0.3,0.1,0.3 c0.3,0.2,0.6,0.4,0.9,0.6c0.2,0.1,0.3,0.3,0.2,0.5c-0.2,0.9-0.3,1.8-0.5,2.7c0,0.2-0.2,0.3-0.3,0.4c-0.7,0.3-1.3,0.6-2,0.8 c-0.2,0.1-0.3,0.2-0.3,0.5c-0.1,0.5-0.1,0.9-0.2,1.4c-0.1,0.4-0.1,0.9-0.2,1.3c0.7-0.8,1.3-1.7,2.5-1.8c-0.1,0.6-0.2,1.1-0.3,1.7 c0,0.2-0.2,0.3-0.3,0.4c-0.6,0.3-1.2,0.5-1.8,0.7c-0.2,0.1-0.3,0.2-0.3,0.4c-0.2,1.4-0.4,2.9-0.6,4.3c-0.1,0.5-0.2,0.9,0,1.4 c0.2,0.4,0.3,0.9,0.4,1.4c-0.7,0.3-1.4,0.6-2.1,0.8c-0.1,0-0.2,0-0.3,0c-0.7-0.3-1.4-0.5-2.1-0.8c0.2-0.5,0.3-1,0.4-1.4 c0.1-0.2,0.1-0.5,0.1-0.8c-0.2-1.6-0.5-3.2-0.7-4.8c0-0.2-0.1-0.3-0.3-0.4c-0.6-0.2-1.2-0.5-1.8-0.8c-0.1,0-0.2-0.1-0.2-0.2 c-0.1-0.6-0.3-1.3-0.4-1.9c1.2,0.1,1.8,1,2.5,1.9c-0.1-1-0.2-1.9-0.4-2.9c0-0.1-0.2-0.3-0.3-0.3c-0.7-0.3-1.3-0.5-2-0.8 c-0.1-0.1-0.3-0.2-0.3-0.4c-0.2-0.9-0.4-1.9-0.5-2.8c0-0.1,0-0.3,0.1-0.4c0.3-0.2,0.6-0.4,0.9-0.6C19,22,19,21.9,19,21.7 c-0.6-1.7-1.3-3.4-2.2-4.9c-1-1.5-2.2-2.9-3.9-3.7c-2.1-1-4.2-1-6.2,0.3c-1.5,1-2.2,2.5-2.6,4.2c-0.2,0.8-0.3,1.7-0.2,2.6 c0.3,0,0.5,0,0.7,0c0.3,0,0.4,0.1,0.4,0.4c0.3,1.2,0.6,2.4,1,3.6c0.5,1.4,1.2,2.7,2.1,3.9c0.4,0.5,0.9,1,1.6,1.3 c0.8,0.3,1.3-0.1,1.3-0.9c0-0.7-0.1-1.4-0.3-2.1c-0.5-1.7-0.9-3.4-0.8-5.2c0-0.5,0.1-1,0.4-1.5c0.4-0.9,1.5-1.1,2.2-0.4 c0.3,0.3,0.5,0.7,0.8,1c0.1,0.2,0.1,0.4,0.1,0.6c-0.1,0.6-0.3,1.2-0.3,1.8c-0.1,1.8,0.5,2.9,2,3.5c0.5,0.2,1.1,0.5,1.6,0.7 c0.2,0.1,0.3,0.2,0.4,0.5c0.3,1.3,0.6,2.5,0.9,3.8c0.3,1.4,0.7,2.8,1.5,4c0.4,0.6,0.7,1.2,1,1.8c0.1,0.2,0.2,0.3,0.2,0.5 c0.2,1.1,0.4,2.1,0.6,3.2c0.2,1,0.8,1.5,1.8,1.5c0.7,0,1.3,0,2,0c1,0,1.5-0.5,1.7-1.4c0.2-0.7,0.3-1.4,0.4-2.1c0.1-1,0.4-1.9,1-2.7 c0.4-0.6,0.8-1.3,1.1-1.9c0.2-0.5,0.5-1,0.6-1.4c0.4-1.8,0.8-3.5,1.3-5.3c0-0.2,0.2-0.3,0.3-0.4c0.6-0.3,1.3-0.6,2-0.9 c1-0.5,1.6-1.3,1.7-2.4c0.1-0.9-0.1-1.8-0.3-2.7c0-0.1-0.1-0.4,0-0.5c0.2-0.4,0.5-0.8,0.8-1.2c0.7-0.7,1.8-0.5,2.3,0.4 c0.2,0.5,0.3,1,0.3,1.6c0.1,1.4-0.2,2.8-0.6,4.2c-0.2,0.9-0.5,1.8-0.6,2.7c-0.1,1.1,0.6,1.5,1.5,1.1c0.3-0.2,0.6-0.4,0.8-0.6 c0.5-0.7,1.1-1.4,1.6-2.1c1.1-1.8,1.7-3.8,2.1-5.9c0-0.3,0.2-0.3,0.4-0.3s0.5,0,0.7,0c0-0.1,0-0.2,0-0.3 C44.2,18.3,44,16.8,43.2,15.4z M14.2,22.7c0-0.7,0.1-1.4,0.1-2.2h0.1c1.1,1.4,1.9,2.9,2,4.8C15,24.9,14.2,24.4,14.2,22.7z M33.7,23.8c-0.2,0.5-0.6,1-1.1,1.2c-0.3,0.1-0.6,0.3-1,0.4c0.1-1.9,0.9-3.4,2.1-4.9C33.8,21.6,34,22.7,33.7,23.8z"/><path fill="#e64a19" d="M45 21v.2c-.1 2.8-.3 5.5-1.1 8.2-.5 1.4-1 2.7-2.1 3.8-1.3 1.4-3 2.1-4.9 1.6-1.4-.3-2.2-1.4-2.3-2.8 0-1.3.3-2.5.9-3.6 0 .6-.1 1.3-.1 1.9 0 1 .7 1.8 1.6 2 .6.1 1.3 0 1.8-.3.9-.5 1.5-1.3 2.1-2.2 1.3-2 2-4.1 2.5-6.4.2-.8.3-1.5.5-2.3H45V21zM13.2 33.1c-.5 1.3-1.6 1.8-2.9 1.9-2 .1-3.5-.9-4.7-2.5-1-1.5-1.6-3.1-1.9-4.9C3.2 25.5 3 23.2 3 21h1.1c.3 1.4.6 2.7 1 4.1.5 1.9 1.3 3.7 2.5 5.3.5.7 1.2 1.4 2 1.8 1.6.7 3-.3 3-2 0-.5-.1-1.1-.1-1.7.4.8.7 1.6.8 2.5C13.5 31.6 13.5 32.4 13.2 33.1z"/></svg>