<svg xmlns="http://www.w3.org/2000/svg"  viewBox="0 0 48 48" width="1600px" height="1600px"><g data-name="Renault"><polygon fill="#e5e6ea" points="40 24 31 24 24 12 17 24 8 24 20 4 28 4 40 24"/><polygon fill="#a0a4ad" points="40 24 28 44 20 44 8 24 17 24 24 36 31 24 40 24"/><polygon fill="#7c7d7f" points="31.436 24 24 36.521 24 33 29 24 31.436 24"/><polygon fill="#696a6d" points="32 24 29 24 24 15 24 12 32 24"/><polygon fill="#a0a4ad" points="24 11.404 24 15 19 24 16.644 24 24 11.404"/><polygon fill="#e5e6ea" points="24 33 24 36 16 24 19 24 24 33"/><polygon fill="#7c7d7f" points="32 24 21 43 24 36 31 24 32 24"/><polygon fill="#a0a4ad" points="16 24 27 5 24 12 17 24 16 24"/></g></svg>