<svg xmlns="http://www.w3.org/2000/svg"  viewBox="0 0 48 48" width="1600px" height="1600px"><path fill="#283593" d="M42,38.5c0,2.7-2,5.1-4.7,5.5C34.4,44.5,30,45,24,45s-10.4-0.5-13.3-0.9C8,43.6,6,41.3,6,38.5V9.4c0-2.7,2-5.1,4.7-5.5C13.6,3.5,18,3,24,3s10.4,0.5,13.3,0.9C40,4.4,42,6.7,42,9.4V38.5z"/><path fill="#FFF" d="M30.6,36c-0.8-0.4-1.1-1.6-1.2-2.8c-0.5-5.1-3.2-8.4-3.8-9.4c3.2-1.9,4.4-5.3,4.4-8.1c0-4.6-4-6.7-7.4-6.7h-9c0.3,0.5,0.6,0.7,0.6,1.8v23c0,1.1-0.5,1.7-0.8,2.2h4.5c-0.3-0.5-0.8-1-0.8-2.2V26c2.8,0,4.9-0.5,6.7-1.3c2.8,3.1,3,6.8,3,8.1c0,1.2-0.6,2.3-1.5,3.2H30.6z M17,23.8V11h4.9c3.7,0,5.1,2.5,5.1,5C26.8,22.9,20.1,23.8,17,23.8z M18.2,12h3.7c1.3,0,2.3,0.4,3,1.1c0.3,0.3,0.5,0.6,0.6,0.9h-3.9v8.1c-0.9,0.3-1.9,0.5-2.8,0.6v-8.9C18.8,12.7,18.6,12.5,18.2,12z M35.2,39h-5.4c1-0.9,1.6-2,1.5-3.2c0-1-0.2-3.8-1.8-6.5c-0.5-1.6-1.2-2.9-1.8-3.9c2-1.1,3.7-3,3.8-6.5c0-1-0.2-2-0.7-2.8c0-0.2,0-0.3,0-0.5c0-1.2-0.2-2.2-0.7-3.2c2.4,0.9,4.3,2.9,4.3,6.2c0,2.7-1.2,6.2-4.4,8.1c0.7,1,3.3,4.3,3.8,9.4C34.1,37.4,34.4,38.6,35.2,39z M21.6,36.8c0,1.1,0.5,1.7,0.8,2.2H18c0.3-0.5,0.8-1,0.8-2.2v-9.9c1-0.1,1.9-0.2,2.8-0.5v0.4c0.6,0,1.4,0,2.3-0.2c0.4,0.7,0.8,1.4,1,2c-1,0.2-2.1,0.3-3.3,0.3V36.8z"/></svg>