<svg xmlns="http://www.w3.org/2000/svg"  viewBox="0 0 48 48" width="1600px" height="1600px"><g data-name="Scania"><path fill="#132b59" d="M24.5,46a28.723,28.723,0,0,1-7.207-.908,1.51,1.51,0,0,1-1.1-1.171c-.147-.775-.483-2.172-.619-2.731A20.494,20.494,0,0,1,3.5,22.5c0-.584.028-1.184.086-1.833.011-.133.023-.267.038-.4-.381-.371-1.271-1.223-1.271-1.223-.315-.286-.622-.564-.937-.832a1.5,1.5,0,0,1-.464-1.567,25.786,25.786,0,0,1,2.59-5.895,27.958,27.958,0,0,1,4.05-5.323A1.509,1.509,0,0,1,8.67,4.97a1.494,1.494,0,0,1,.424.061c.959.282,1.951.536,3.028.772a20.478,20.478,0,0,1,23.524-.175c1.057-.248,2.046-.518,3.019-.82a1.5,1.5,0,0,1,1.512.378,28.314,28.314,0,0,1,4.287,5.575,25.782,25.782,0,0,1,2.585,5.883,1.507,1.507,0,0,1-.434,1.54l-.328.289q-.976.878-1.911,1.793c.015.135.027.271.038.409.058.641.086,1.24.086,1.825A20.491,20.491,0,0,1,32.424,41.19c-.145.607-.5,2.128-.659,2.972a1.5,1.5,0,0,1-1.157,1.193A28.891,28.891,0,0,1,24.5,46Z"/><path fill="none" stroke="#d6d5d6" stroke-miterlimit="10" d="M42.8,19.73v.01A46.808,46.808,0,0,0,32.55,35.83h-.01a44.286,44.286,0,0,0-1.38,4.27h-.01q-.645.27-1.32.48a18.932,18.932,0,0,1-11.66,0c-.45-.14-.9-.3-1.33-.48a44.286,44.286,0,0,0-1.38-4.27A46.981,46.981,0,0,0,5.2,19.74,18.81,18.81,0,0,1,7.98,12.3a18.531,18.531,0,0,1,4.49-4.89c1.04.22,2.11.4,3.21.55a56.483,56.483,0,0,0,7.82.54,54.53,54.53,0,0,0,9.19-.76c.89-.14,1.77-.31,2.63-.5A19.124,19.124,0,0,1,42.8,19.73Z"/><path fill="none" stroke="#d6d5d6" stroke-miterlimit="10" d="M31.04,40.53c-.29,1.11-.54,2.22-.75,3.36a27.4,27.4,0,0,1-5.79.61,27.192,27.192,0,0,1-6.83-.86c-.2-1.05-.44-2.09-.71-3.11.4.03.81.05,1.21.05a18.932,18.932,0,0,0,11.66,0C30.23,40.58,30.64,40.56,31.04,40.53Z"/><path fill="none" stroke="#d6d5d6" stroke-miterlimit="10" d="M12.47,7.41A18.531,18.531,0,0,0,7.98,12.3,18.81,18.81,0,0,0,5.2,19.74c-.14-.16-.3-.32-.45-.47-.45-.44-.9-.87-1.36-1.31-.33-.3-.66-.6-1-.89a24.25,24.25,0,0,1,2.44-5.55A26.437,26.437,0,0,1,8.67,6.47C9.89,6.83,11.16,7.14,12.47,7.41Z"/><path fill="none" stroke="#d6d5d6" stroke-miterlimit="10" d="M35.32,7.24c-.86.19-1.74.36-2.63.5a54.53,54.53,0,0,1-9.19.76,56.483,56.483,0,0,1-7.82-.54c-1.1-.15-2.17-.33-3.21-.55a18.978,18.978,0,0,1,22.85-.17Z"/><path fill="none" stroke="#d6d5d6" stroke-miterlimit="10" d="M16.84,40.1A19,19,0,0,1,5,22.5c0-.57.03-1.14.08-1.7.03-.36.07-.71.12-1.06A46.981,46.981,0,0,1,15.46,35.83,44.286,44.286,0,0,1,16.84,40.1Z"/><path fill="none" stroke="#d6d5d6" stroke-miterlimit="10" d="M43,22.5A19,19,0,0,1,31.16,40.1a44.286,44.286,0,0,1,1.38-4.27h.01A46.808,46.808,0,0,1,42.8,19.74c.05.35.09.7.12,1.06C42.97,21.36,43,21.93,43,22.5Z"/><path fill="none" stroke="#d6d5d6" stroke-miterlimit="10" d="M45.61,17.07c-.11.1-.22.19-.33.29-.69.62-1.37,1.26-2.03,1.91-.15.15-.3.3-.45.46A19.124,19.124,0,0,0,35.32,7.24c1.31-.29,2.57-.62,3.79-1a26.776,26.776,0,0,1,4.06,5.28A24.25,24.25,0,0,1,45.61,17.07Z"/><path fill="#ca404b" fill-rule="evenodd" d="M16.473,18.26a2.189,2.189,0,0,1,2.168-.816c.366.1.805.321,1.08.058.162-.156.172-.415.311-.592a1,1,0,0,1,.738-.274,46.947,46.947,0,0,1,5.811-.095.389.389,0,0,1,.293.1c.094.113.041.3.135.413.152.181.428-.02.6-.183a1.883,1.883,0,0,1,1.663-.47.339.339,0,0,1,.2.095.352.352,0,0,1,.064.191,2.712,2.712,0,0,1-.339,1.65c-.141.247-.328.532-.209.79a.769.769,0,0,0,.172.214l1.566,1.535a1.825,1.825,0,0,1,.563.8.631.631,0,0,1-.4.786,2.148,2.148,0,0,1-.57-.066c-.192-.016-.431.1-.416.289a.435.435,0,0,0,.117.224,6.06,6.06,0,0,1,1.309,2.664,3.419,3.419,0,0,1-.681,2.821,2.366,2.366,0,0,0-1.79-1.59c-.025,1.016.428,2.006.36,3.02a3.033,3.033,0,0,1-1.717,2.5,3.442,3.442,0,0,0-1.231-2.322.786.786,0,0,0-.56-.135c-.437.094-.54.66-.563,1.107a6.247,6.247,0,0,1-.771,3.1,2.547,2.547,0,0,1-2.745,1.213,5.753,5.753,0,0,0,1.059-5.207.411.411,0,0,0-.2-.293c-.134-.052-.277.042-.386.135a4.825,4.825,0,0,0-1.67,3.528A3.786,3.786,0,0,1,19.31,29.81c.249-.718.832-1.321.9-2.078-.98-.3-1.934.678-2.957.624a2.509,2.509,0,0,1,.708-2.078c.48-.475,1.176-.787,1.408-1.421a3.467,3.467,0,0,1-1.076-.275,1.168,1.168,0,0,1-.668-.838c.5-.289,1.123-.1,1.7-.148a2,2,0,0,0,1.732-1.586.493.493,0,0,0-.026-.331.573.573,0,0,0-.228-.19l-1.821-1.036a4.113,4.113,0,0,0-1.21-.525,2.588,2.588,0,0,0-1.226.084c-.189.055-.912.478-1.033.3-.1-.147.3-.918.371-1.08A4.079,4.079,0,0,1,16.473,18.26Z"/><path fill="none" stroke="#d6d5d6" stroke-miterlimit="7" stroke-width=".75" d="M20.5,16.5a3.438,3.438,0,0,0-.974,1.336A2.924,2.924,0,0,0,17.5,17.5c-.972.288-1.7,1.353-2,3,.932-.581,1.915-.994,2.473-.709s1.211,1.042,1.744,1.152,1.6.43,1.6.94A2.864,2.864,0,0,1,17.5,23.5c-.01,1.323,1.33,1.386,2.378,1.271C18.519,25.438,16.86,26.3,17.5,28.5c.873-.948,3-1,3-1-.65,1.05-2.737,3.316,0,6a5.691,5.691,0,0,1,2-4c.609,1.576-.088,4.211-1,6,2.737,0,4-2.421,4-6a3.037,3.037,0,0,1,2,3c2.737-1.789,1.912-4.211,1-6,1.165.337,1.5.592,2,2,1.824-2.684.824-4.211-1-6a3.45,3.45,0,0,1,2,0c0-1.789-1.668-2.709-3.164-3.445"/><path fill="#d6d5d6" fill-rule="evenodd" d="M26.972,18.259a3.7,3.7,0,0,1,1.851-.986,2.476,2.476,0,0,1-1.661,1.408Z"/><path fill="none" stroke="#d6d5d6" stroke-miterlimit="7" stroke-width=".75" d="M19.526,17.836A4.283,4.283,0,0,0,20.71,18c.67,0,1.624-.418,2.511.525"/><path fill="none" stroke="#d6d5d6" stroke-miterlimit="7" stroke-width=".75" d="M19.446,17.922s-.342,1.869,1.264,1.869A1.764,1.764,0,0,0,22.534,18"/><ellipse cx="20.799" cy="18.308" fill="#d6d5d6" rx=".632" ry=".62"/><path fill="#ca404b" fill-rule="evenodd" d="M12.5,20.5s.666.82,2.885.833c1.914.011,3.215-.5,4.115,1.167-2.111-.344-2.973.327-4.85.327S12.5,20.5,12.5,20.5Z"/><path fill="none" stroke="#d6d5d6" stroke-miterlimit="7" stroke-width=".75" d="M12.5,20.5s.666.82,2.885.833c1.914.011,3.215-.5,4.115,1.167-2.111-.344-2.973.327-4.85.327S12.5,20.5,12.5,20.5Z"/><path fill="#d6d5d6" fill-rule="evenodd" d="M21.342,20.811a.881.881,0,0,1,.792.045c.376.242.682.627.981.7a2.31,2.31,0,0,0,.664.036,1.353,1.353,0,0,1-.861.259c-.364-.089-.581-.374-1.086-.873A1.124,1.124,0,0,0,21.342,20.811Z"/><path fill="none" stroke="#d6d5d6" stroke-miterlimit="10" stroke-width=".75" d="M22.891,24.174a1.912,1.912,0,0,1-.068,1.537,1.912,1.912,0,0,0,1.39-1.542A2.737,2.737,0,0,1,24.5,26.5c1.121-.328,1.8-1.717,1.46-3.352a2.762,2.762,0,0,1,1.106,2.006c.481-.635.89-2.091-.566-3.654"/><path fill="#e3ac4a" fill-rule="evenodd" d="M17.593,11.782l2,5.15,7.545,0,2.215-5.4a1.266,1.266,0,0,0-1.275.658,1,1,0,0,0-.007,1.032,1,1,0,0,0-1.615.2A1.034,1.034,0,0,0,27.5,14.959a1.8,1.8,0,0,1-1.507.966c-.883.036-1.462-.7-1.911-1.451a1.025,1.025,0,1,0,.121-1.75,1.017,1.017,0,1,0-1.434.028,1.016,1.016,0,0,0-1.526.814,1.03,1.03,0,0,0,1.621.908c-.342.457-.813,1.454-1.793,1.454a1.949,1.949,0,0,1-1.672-.969A.924.924,0,0,0,20.662,14c-.027-.833-1.2-1.607-1.752-.7A1.181,1.181,0,0,0,17.593,11.782Z"/><path fill="none" stroke="#d6d5d6" stroke-miterlimit="7" stroke-width=".75" d="M26.5,17.5a3.2,3.2,0,0,1,3-1,2.853,2.853,0,0,1-2,3"/></g></svg>