<svg xmlns="http://www.w3.org/2000/svg"  viewBox="0 0 48 48" width="1600px" height="1600px"><path fill="#ffa000" d="M32,42.633V7.367C38.322,11.926,43.059,17.748,46,25C42.838,32.322,38.198,38.225,32,42.633z"/><path fill="#b0bec5" d="M23.741,34.439c-5.727,0-10.37-4.226-10.37-9.439s4.643-9.439,10.37-9.439	c2.828,0,5.388,1.033,7.259,2.704V6.944c-2.524-1.189-5.328-1.871-8.296-1.871C11.822,5.073,3,13.995,3,25	s8.822,19.927,19.704,19.927c2.968,0,5.772-0.683,8.296-1.871v-11.32C29.129,33.406,26.569,34.439,23.741,34.439z"/><path fill="#90a4ae" d="M31,30.651C29.35,32.692,26.829,34,24,34c-4.971,0-9-4.029-9-9s4.029-9,9-9	c2.829,0,5.35,1.308,7,3.349v-2.834C29.098,14.944,26.659,14,24,14c-6.075,0-11,4.925-11,11s4.925,11,11,11	c2.659,0,5.098-0.944,7-2.515V30.651z"/><path fill="#f57c00" d="M33.011,8.247c-0.342-0.276-0.671-0.563-1.023-0.83v35.292c0.352-0.264,0.681-0.55,1.023-0.825V8.247	z"/></svg>