<svg xmlns="http://www.w3.org/2000/svg"  viewBox="0 0 48 48" width="1600px" height="1600px"><path fill="#cfd8dc" d="M34,5.117c-3.961-0.564-9,0.997-10,2.991c-1-1.994-6.039-3.555-10-2.991C7,6.114,4,11.098,4,18.077	C4,30.748,24,43,24,43s20-12.252,20-24.923C44,11.098,41,6.114,34,5.117z"/><path fill="#0b52a3" d="M30.49,35.74C27.81,38,25.34,39.73,24,40.62C20.01,37.96,6,27.9,6,18.08c0-0.82,0.04-1.58,0.13-2.31	C10.42,19,25.63,31.68,30.49,35.74z"/><path fill="#e91b23" d="M41.14,22.48c-1.49,3.96-4.71,7.77-8.03,10.92c-6.48-5.13-21.87-16-26.66-19.37	c0.98-4.01,3.6-6.33,7.83-6.93C14.73,7.03,15.22,7,15.72,7c3.33,0,5.28,1,6.49,2C22.21,9,37.65,19.63,41.14,22.48z"/><path fill="#ffcd07" d="M42,18.08c0,0.18,0,0.36-0.02,0.54C38.49,16.27,30.91,11.89,26,9c1-1,3.64-2,6.28-2	c0.5,0,0.99,0.03,1.44,0.1C39.21,7.88,42,11.57,42,18.08z"/></svg>