<svg xmlns="http://www.w3.org/2000/svg"  viewBox="0 0 48 48" width="1600px" height="1600px"><path fill="#1565c0" d="M23.999,11.003C11.317,11.003,1,16.834,1,24.003s10.317,13,22.999,13 c12.683,0,23.001-5.832,23.001-13S36.682,11.003,23.999,11.003z"/><path fill="#caceeb" d="M23.999,12.003c11.926,0,22.001,5.495,22.001,12s-10.075,12-22.001,12 C12.074,36.003,2,30.507,2,24.003S12.074,12.003,23.999,12.003 M23.999,10.003c-13.233,0-23.999,6.28-23.999,14 s10.766,14,23.999,14c13.234,0,24.001-6.28,24.001-14S37.233,10.003,23.999,10.003L23.999,10.003z"/><path fill="#fff" d="M38.833,30.656c0-0.014-0.003-0.028-0.007-0.04c-0.001-0.003-0.002-0.006-0.003-0.009 c-0.005-0.012-0.012-0.024-0.022-0.035c0,0-0.001-0.001-0.001-0.001c-0.01-0.01-0.023-0.02-0.038-0.029 c-0.004-0.003-0.009-0.005-0.013-0.008c-0.017-0.009-0.035-0.018-0.057-0.026c-0.004-0.001-0.009-0.003-0.012-0.004 c-0.02-0.007-0.043-0.014-0.068-0.021c-0.012-0.003-0.024-0.006-0.037-0.01c-0.005-0.001-0.009-0.002-0.014-0.004l-0.002,0 c-0.104-0.024-0.241-0.048-0.427-0.074c-0.47-0.067-1.73-0.209-2.629-0.371c-0.041-0.008-0.083-0.015-0.123-0.023 c-0.03-0.006-0.06-0.011-0.089-0.017c-0.077-0.015-0.152-0.031-0.221-0.046c-0.865-0.195-0.915-0.914-1.042-1.266 c-0.09-0.255-0.161-0.62-0.27-0.802l0-0.001c-0.001-0.002-0.002-0.003-0.004-0.005c-0.006-0.011-0.013-0.02-0.02-0.029 c-0.004-0.006-0.008-0.012-0.013-0.017c-0.006-0.007-0.013-0.013-0.019-0.019c-0.005-0.005-0.009-0.009-0.014-0.013 c-0.007-0.006-0.015-0.01-0.023-0.013c-0.004-0.002-0.008-0.005-0.013-0.007c-0.012-0.005-0.025-0.007-0.038-0.007 c-0.022,0-0.042,0.006-0.061,0.015c-0.007,0.003-0.013,0.007-0.019,0.011c-0.011,0.007-0.022,0.015-0.032,0.025 c-0.007,0.007-0.014,0.013-0.02,0.021c-0.006,0.008-0.012,0.017-0.018,0.026c-0.08,0.12-0.112,0.319-0.138,0.399 c-0.038,0.117-0.238,0.862-0.388,1.11c-0.151,0.248-0.264,0.522-0.853,0.64c-0.59,0.117-1.694,0.365-2.735,0.391 c-0.075,0.002-0.146,0.003-0.217,0.004c-0.027,0-0.052,0-0.078,0.001c-0.042,0-0.083,0-0.123,0c-0.031,0-0.063,0-0.093,0 c-0.03,0-0.06-0.001-0.09-0.001c-0.697-0.011-1.201-0.077-1.846-0.16c-0.815-0.105-1.568-0.144-2.132-0.405 c-0.035-0.016-0.068-0.035-0.101-0.055c-0.003-0.002-0.006-0.004-0.009-0.006c-0.493-0.315-0.754-1.097-0.894-1.584 c-0.107-0.372-0.188-0.603-0.258-0.706l0-0.002c-0.001-0.002-0.003-0.003-0.004-0.005c-0.009-0.013-0.018-0.022-0.026-0.031 c-0.004-0.004-0.009-0.01-0.013-0.013c-0.012-0.009-0.025-0.015-0.037-0.015c-0.01,0-0.021,0.006-0.033,0.016 c-0.002,0.001-0.003,0.002-0.005,0.004c-0.011,0.01-0.022,0.024-0.034,0.041c-0.004,0.005-0.008,0.011-0.011,0.016 c-0.001,0.002-0.003,0.004-0.004,0.006l0,0.001c-0.086,0.132-0.19,0.403-0.263,0.648c-0.1,0.34-0.364,1.346-0.753,1.594 c-0.389,0.248-1.042,0.391-2.208,0.509c0,0-1.3,0.104-1.938,0.266l-0.002,0c-0.209,0.054-0.347,0.113-0.343,0.178 c0.003,0.067,0.126,0.129,0.316,0.186l0.002,0c0.553,0.165,1.656,0.281,1.889,0.311c0.196,0.024,0.748,0.09,1.221,0.167 c0.003,0,0.006,0.001,0.009,0.001c0.184,0.03,0.356,0.062,0.489,0.094c0.005,0.001,0.01,0.002,0.015,0.004 c0.026,0.006,0.05,0.013,0.072,0.019c0.006,0.002,0.013,0.004,0.019,0.006c0.026,0.008,0.05,0.015,0.07,0.023 c0.351,0.131,0.59,0.235,0.728,0.64c0.138,0.404,0.476,1.606,0.476,1.606s0.074,0.3,0.164,0.497l0,0.001 c0.001,0.003,0.003,0.005,0.004,0.008c0.008,0.017,0.016,0.034,0.025,0.049c0.004,0.007,0.008,0.014,0.012,0.021 c0.008,0.013,0.015,0.025,0.023,0.035c0.004,0.005,0.007,0.009,0.011,0.013c0.007,0.009,0.015,0.016,0.022,0.023 c0.003,0.003,0.006,0.006,0.01,0.008c0.01,0.007,0.021,0.012,0.031,0.012c0.01,0,0.021-0.005,0.031-0.012 c0.003-0.002,0.007-0.006,0.01-0.009c0.007-0.006,0.014-0.014,0.022-0.023c0.003-0.004,0.007-0.009,0.01-0.014 c0.009-0.013,0.018-0.028,0.027-0.044c0.001-0.002,0.002-0.004,0.004-0.006c0.01-0.019,0.02-0.04,0.03-0.063 c0.001-0.002,0.002-0.004,0.003-0.007l0-0.001c0.09-0.209,0.164-0.527,0.164-0.527s0.339-1.502,0.59-1.776 c0.251-0.275,0.288-0.379,1.405-0.562c0.164-0.027,0.327-0.054,0.489-0.081c0.064-0.011,0.129-0.021,0.193-0.032 c0.071-0.012,0.141-0.023,0.211-0.035c0.068-0.011,0.135-0.022,0.202-0.033c0.057-0.009,0.114-0.018,0.17-0.027 c0.112-0.018,0.222-0.034,0.331-0.05c0.045-0.007,0.089-0.012,0.134-0.019c0.072-0.01,0.144-0.02,0.215-0.029 c0.048-0.006,0.095-0.012,0.142-0.017c0.071-0.008,0.14-0.016,0.209-0.023c0.032-0.003,0.063-0.007,0.094-0.009 c0.018-0.002,0.036-0.003,0.053-0.005c0.078-0.007,0.155-0.013,0.23-0.017c0.031-0.002,0.062-0.004,0.093-0.005 c0.101-0.005,0.2-0.008,0.294-0.008c0.841,0,1.004,0.013,1.517,0.078c0.516,0.066,1.619,0.21,2.058,0.353 c0.439,0.144,0.59,0.47,0.703,0.771c0.113,0.3,0.364,1.097,0.364,1.097s0.063,0.327,0.213,0.327 c0.017,0.001,0.034-0.005,0.049-0.014c0.002-0.001,0.004-0.002,0.005-0.003c0.126-0.076,0.199-0.411,0.22-0.522 c0.121-0.379,0.394-1.184,0.565-1.343c0.227-0.209,0.39-0.405,1.506-0.548c1.117-0.144,1.781-0.288,2.17-0.314 c0.152-0.01,0.285-0.025,0.393-0.046c0.025-0.005,0.049-0.01,0.071-0.016c0.007-0.002,0.014-0.004,0.021-0.006 c0.025-0.007,0.048-0.015,0.068-0.023c0.003-0.001,0.006-0.003,0.009-0.004c0.019-0.008,0.035-0.017,0.048-0.027 c0.002-0.001,0.004-0.003,0.006-0.004c0.014-0.01,0.024-0.022,0.032-0.034c0.002-0.002,0.003-0.005,0.004-0.008 C38.829,30.684,38.833,30.67,38.833,30.656z"/><path fill="#fff" d="M44.4,25.473c0.002-0.003,0.006-0.006,0.008-0.009c0.006-0.009,0.009-0.019,0.009-0.029 c0-0.017-0.003-0.033-0.008-0.048c-0.001-0.004-0.003-0.008-0.005-0.011c-0.005-0.012-0.012-0.023-0.021-0.033 c-0.002-0.003-0.004-0.005-0.006-0.008c-0.012-0.013-0.027-0.024-0.046-0.035c-0.002-0.001-0.005-0.002-0.007-0.004 c-0.017-0.01-0.037-0.019-0.06-0.027c-0.006-0.002-0.012-0.005-0.018-0.007c-0.025-0.009-0.053-0.017-0.085-0.025 c-0.002-0.001-0.004-0.001-0.006-0.002c-0.03-0.007-0.062-0.015-0.098-0.022l-0.003,0c-0.101-0.02-0.225-0.039-0.38-0.061 c-0.513-0.069-1.458-0.287-2.146-0.442c-0.021-0.005-0.04-0.009-0.06-0.014c-0.049-0.011-0.096-0.021-0.141-0.032 c-0.693-0.154-0.898-1.038-0.898-1.038s-0.168-0.541-0.327-0.782v-0.001c-0.005-0.008-0.01-0.014-0.016-0.022 c-0.004-0.006-0.009-0.012-0.013-0.018c-0.009-0.012-0.018-0.021-0.026-0.03c-0.003-0.003-0.007-0.008-0.01-0.011 c-0.009-0.009-0.019-0.015-0.028-0.02c-0.003-0.002-0.005-0.004-0.008-0.005c-0.012-0.006-0.023-0.009-0.034-0.008 c-0.011,0.001-0.022,0.005-0.034,0.011c-0.002,0.001-0.004,0.003-0.006,0.004c-0.009,0.006-0.019,0.014-0.029,0.023 c-0.003,0.003-0.006,0.006-0.009,0.01c-0.009,0.01-0.018,0.02-0.027,0.033c-0.003,0.004-0.007,0.009-0.01,0.014 c-0.006,0.008-0.011,0.015-0.017,0.024l0,0.002c-0.159,0.25-0.348,0.839-0.537,1.276c-0.243,0.564-1.012,0.692-1.422,0.756 c-0.411,0.064-1.065,0.244-2.117,0.269c-1.051,0.026-2.046-0.166-2.046-0.166c-0.833-0.105-1.603-0.144-2.18-0.405 c-0.578-0.261-0.872-1.123-1.026-1.645c-0.153-0.523-0.256-0.77-0.346-0.77c-0.09,0-0.256,0.392-0.359,0.731 c-0.103,0.339-0.372,1.345-0.77,1.594c-0.397,0.248-1.065,0.392-2.257,0.51c0,0-1.72,0.134-2.206,0.336 c-0.015,0.006-0.029,0.012-0.042,0.018c-0.003,0.001-0.005,0.002-0.008,0.003c-0.014,0.007-0.027,0.013-0.039,0.02 c-0.002,0.001-0.004,0.002-0.006,0.003c-0.012,0.007-0.022,0.014-0.03,0.022c-0.001,0.001-0.002,0.001-0.003,0.002 c-0.009,0.008-0.015,0.016-0.019,0.024c0,0,0,0.001-0.001,0.001c-0.004,0.008-0.007,0.017-0.006,0.025 c0,0.009,0.003,0.017,0.008,0.026c0.001,0.002,0.002,0.003,0.003,0.005c0.004,0.007,0.009,0.014,0.016,0.021 c0.002,0.002,0.004,0.004,0.006,0.005c0.007,0.007,0.015,0.013,0.024,0.019c0.003,0.002,0.006,0.004,0.009,0.005 c0.01,0.006,0.021,0.013,0.032,0.019c0.003,0.002,0.007,0.003,0.01,0.005c0.013,0.006,0.026,0.013,0.041,0.019 c0.004,0.002,0.007,0.003,0.011,0.005c0.015,0.006,0.032,0.013,0.049,0.019c0.004,0.001,0.008,0.003,0.012,0.004 c0.018,0.006,0.036,0.012,0.056,0.019c0.004,0.001,0.009,0.003,0.013,0.004c0.019,0.006,0.039,0.012,0.06,0.018 c0.003,0.001,0.007,0.002,0.01,0.003l0,0c0.578,0.16,1.671,0.271,1.906,0.3c0.281,0.034,1.278,0.147,1.767,0.262 c0.003,0.001,0.007,0.002,0.01,0.002c0.029,0.007,0.056,0.014,0.081,0.021c0.005,0.001,0.01,0.003,0.014,0.004 c0.027,0.008,0.052,0.015,0.073,0.023c0.36,0.13,0.605,0.235,0.748,0.638c0.141,0.404,0.489,1.601,0.489,1.601 s0.075,0.299,0.168,0.495l0,0.001c0.001,0.003,0.003,0.005,0.004,0.008c0.01,0.02,0.019,0.039,0.029,0.057 c0.012,0.021,0.024,0.038,0.036,0.053c0.001,0.001,0.002,0.003,0.003,0.004c0.011,0.013,0.021,0.024,0.032,0.031 c0.001,0.001,0.002,0.002,0.003,0.002c0.011,0.008,0.023,0.013,0.034,0.013c0.011,0,0.022-0.006,0.034-0.014 c0.002-0.001,0.003-0.003,0.005-0.004c0.009-0.008,0.019-0.017,0.028-0.029c0.002-0.003,0.005-0.006,0.007-0.009 c0.005-0.007,0.01-0.015,0.016-0.023c0.004-0.006,0.008-0.013,0.012-0.02c0.002-0.003,0.004-0.006,0.006-0.01 c0.009-0.017,0.019-0.036,0.028-0.056c0.002-0.004,0.004-0.008,0.006-0.012l0-0.002c0.093-0.208,0.168-0.525,0.168-0.525 s0.347-1.498,0.605-1.771c0.258-0.273,0.296-0.377,1.443-0.56c0.888-0.141,1.769-0.298,2.522-0.362l-0.001-0.01 c0.041-0.003,0.082-0.007,0.122-0.009c0.042-0.003,0.086-0.007,0.128-0.009c0.12-0.006,0.236-0.01,0.348-0.01 c0.61,0.001,1.096,0.05,2.238,0.217c0.912,0.133,1.218,0.3,1.422,0.767c0.007,0.015,0.013,0.031,0.02,0.046 c0.008,0.021,0.017,0.042,0.025,0.064c0.006,0.017,0.013,0.033,0.019,0.051c0.007,0.019,0.013,0.04,0.02,0.06 c0.007,0.022,0.015,0.044,0.022,0.067c0.013,0.04,0.025,0.081,0.038,0.125c0.168,0.579,0.315,1.041,0.428,1.25 c0.001,0.002,0.002,0.004,0.003,0.005c0.008,0.015,0.016,0.028,0.024,0.041c0.002,0.003,0.004,0.007,0.007,0.011 c0.007,0.01,0.013,0.018,0.02,0.026c0.003,0.003,0.006,0.007,0.008,0.01c0.006,0.007,0.012,0.011,0.018,0.015 c0.003,0.002,0.005,0.005,0.008,0.006c0.008,0.005,0.016,0.007,0.023,0.007c0.116,0,0.141-0.166,0.256-0.526 c0.015-0.067,0.029-0.128,0.044-0.189c0.011-0.048,0.023-0.094,0.034-0.138c0.002-0.008,0.004-0.016,0.006-0.024 c0.036-0.143,0.072-0.27,0.108-0.383c0.003-0.011,0.007-0.022,0.01-0.033c0.011-0.033,0.021-0.065,0.032-0.096 c0.007-0.02,0.014-0.04,0.021-0.059c0.006-0.016,0.011-0.032,0.017-0.047c0.003-0.007,0.005-0.013,0.008-0.02 c0.004-0.011,0.009-0.022,0.013-0.033c0.01-0.025,0.02-0.049,0.03-0.072c0.005-0.012,0.01-0.024,0.015-0.036 c0.033-0.073,0.066-0.138,0.1-0.195c0.005-0.008,0.009-0.015,0.014-0.023c0.013-0.021,0.027-0.042,0.04-0.061 c0.005-0.007,0.009-0.013,0.014-0.02c0.035-0.049,0.072-0.092,0.109-0.13c0.005-0.005,0.01-0.01,0.015-0.015 c0.015-0.014,0.029-0.028,0.044-0.042c0.005-0.004,0.01-0.009,0.015-0.013c0.039-0.034,0.079-0.064,0.121-0.093 c0.006-0.004,0.013-0.009,0.019-0.013c0.016-0.011,0.032-0.021,0.048-0.032c0.007-0.004,0.013-0.009,0.02-0.013 c0.021-0.014,0.043-0.027,0.066-0.042c0.41-0.257,2.45-0.487,2.45-0.487s0.167-0.017,0.343-0.051l0.002,0 c0.009-0.002,0.018-0.004,0.027-0.006c0.005-0.001,0.009-0.002,0.014-0.003c0.017-0.003,0.033-0.007,0.05-0.011 c0.011-0.003,0.022-0.005,0.033-0.008c0.012-0.003,0.023-0.006,0.034-0.009c0.014-0.004,0.027-0.007,0.04-0.011 c0.009-0.003,0.018-0.005,0.026-0.008c0.014-0.004,0.026-0.009,0.039-0.013c0.007-0.003,0.015-0.005,0.022-0.008 c0.012-0.005,0.023-0.01,0.033-0.015c0.006-0.003,0.013-0.006,0.018-0.008c0.01-0.005,0.018-0.011,0.026-0.016 c0.005-0.003,0.01-0.006,0.014-0.009C44.389,25.486,44.394,25.479,44.4,25.473z"/><path fill="#fff" d="M19.088,24.037c0.017-0.044,0.034-0.091,0.052-0.142c0.018-0.05,0.037-0.103,0.058-0.158 c0.001-0.003,0.002-0.006,0.004-0.01c0.021-0.056,0.044-0.113,0.07-0.173c0-0.001,0.001-0.002,0.001-0.003 c0.025-0.058,0.052-0.117,0.081-0.177c0.003-0.005,0.005-0.011,0.008-0.016c0.029-0.058,0.061-0.118,0.097-0.177 c0.002-0.004,0.005-0.008,0.007-0.012c0.037-0.062,0.078-0.125,0.123-0.187c0.002-0.003,0.005-0.007,0.007-0.01 c0.044-0.06,0.091-0.119,0.143-0.178c0.005-0.006,0.01-0.011,0.015-0.017c0.048-0.053,0.1-0.105,0.155-0.156 c0.032-0.03,0.065-0.06,0.1-0.089c0.006-0.005,0.011-0.01,0.017-0.014c0.047-0.038,0.097-0.075,0.149-0.112 c0.01-0.007,0.02-0.014,0.031-0.021c0.053-0.036,0.108-0.07,0.166-0.104c0.011-0.006,0.021-0.012,0.032-0.018 c0.061-0.034,0.125-0.068,0.193-0.099c0.004-0.002,0.008-0.003,0.012-0.005c0.067-0.031,0.137-0.06,0.21-0.088 c0.011-0.004,0.021-0.008,0.032-0.012c0.074-0.027,0.151-0.052,0.232-0.076c0.015-0.005,0.031-0.009,0.047-0.014 c0.082-0.023,0.167-0.045,0.256-0.064c0.014-0.003,0.029-0.006,0.043-0.009c0.095-0.02,0.192-0.038,0.295-0.053 c2.081-0.303,5.958-0.713,5.958-0.713s0.012-0.001,0.029-0.003c0.005-0.001,0.01-0.001,0.017-0.002 c0.013-0.001,0.028-0.003,0.046-0.005c0.005-0.001,0.011-0.001,0.016-0.002c0.011-0.001,0.023-0.003,0.035-0.004 c0.317-0.035,1.125-0.121,2.021-0.199c0.007-0.001,0.014-0.001,0.021-0.002c0.046-0.004,0.092-0.008,0.138-0.012 c0.009-0.001,0.018-0.001,0.026-0.002c0.083-0.007,0.167-0.014,0.251-0.021c0.014-0.001,0.029-0.002,0.043-0.003 c0.038-0.003,0.076-0.006,0.115-0.009c0.024-0.002,0.047-0.004,0.071-0.006c0.036-0.003,0.072-0.006,0.108-0.008 c0.044-0.003,0.089-0.007,0.133-0.01c0.034-0.002,0.068-0.005,0.102-0.007c0.039-0.003,0.079-0.006,0.118-0.008 c0.024-0.002,0.047-0.003,0.07-0.005c0.048-0.003,0.095-0.006,0.142-0.009c0.004,0,0.009-0.001,0.013-0.001 c0.025-0.002,0.049-0.003,0.073-0.004c0.056-0.003,0.112-0.007,0.166-0.01c0.065-0.004,0.13-0.007,0.194-0.01 c0.031-0.002,0.062-0.003,0.093-0.004c0.049-0.002,0.097-0.004,0.144-0.006c0.028-0.001,0.056-0.002,0.084-0.003 c0.06-0.002,0.119-0.004,0.177-0.005c0.012,0,0.024-0.001,0.036-0.001c0.069-0.002,0.136-0.002,0.2-0.003c0.016,0,0.031,0,0.047,0 c0.049,0,0.097,0,0.143,0.001c0.016,0,0.032,0,0.047,0.001c0.057,0.001,0.112,0.003,0.162,0.006c1.297,0.071,2.749,0.25,3.112,0.303 c0.04,0.006,0.084,0.012,0.129,0.019c0.031,0.005,0.063,0.01,0.096,0.015c0.011,0.002,0.022,0.004,0.033,0.006 c0.027,0.005,0.055,0.011,0.082,0.017c0.012,0.003,0.024,0.005,0.037,0.008c0.036,0.009,0.072,0.018,0.109,0.029 c0.011,0.003,0.021,0.007,0.032,0.01c0.033,0.011,0.065,0.022,0.097,0.035c0.008,0.003,0.015,0.006,0.023,0.009 c0.037,0.016,0.074,0.034,0.11,0.054c0.01,0.006,0.02,0.011,0.03,0.017c0.037,0.022,0.073,0.045,0.107,0.071 c0.004,0.003,0.007,0.006,0.01,0.009c0.032,0.025,0.062,0.053,0.092,0.083c0.01,0.011,0.021,0.021,0.031,0.032 c0.013,0.014,0.025,0.03,0.038,0.046c0.011,0.013,0.021,0.026,0.031,0.04c0.013,0.018,0.025,0.038,0.037,0.057 c0.008,0.013,0.017,0.026,0.025,0.04c0.019,0.035,0.038,0.071,0.054,0.11c0.254,0.594,0.534,1.712,0.534,1.712 s0.089,0.345,0.229,0.345c0.14,0,0.229-0.321,0.229-0.321s0.42-1.355,0.573-1.7c0.011-0.025,0.023-0.049,0.035-0.073 c0.005-0.01,0.011-0.019,0.016-0.029c0.009-0.015,0.018-0.03,0.027-0.045c0.007-0.01,0.013-0.02,0.02-0.03 c0.012-0.017,0.025-0.034,0.038-0.05c0.006-0.007,0.01-0.014,0.016-0.02c0.011-0.013,0.025-0.026,0.038-0.039 c0.011-0.011,0.021-0.022,0.033-0.033c0.007-0.007,0.015-0.013,0.023-0.02c0.019-0.016,0.039-0.032,0.06-0.048 c0.009-0.007,0.017-0.013,0.027-0.02c0.03-0.021,0.061-0.041,0.096-0.06c0.007-0.004,0.015-0.007,0.021-0.011 c0.029-0.016,0.06-0.031,0.093-0.046c0.015-0.007,0.031-0.014,0.047-0.02c0.029-0.012,0.059-0.024,0.09-0.035 c0.017-0.006,0.034-0.012,0.051-0.018c0.047-0.016,0.096-0.031,0.15-0.046c0.009-0.003,0.019-0.005,0.029-0.007 c0.05-0.013,0.103-0.026,0.158-0.038c0.021-0.005,0.043-0.009,0.065-0.013c0.048-0.01,0.098-0.019,0.15-0.027 c0.023-0.004,0.045-0.008,0.068-0.011c0.076-0.012,0.154-0.023,0.239-0.032c1.133-0.131,2.33-0.368,2.33-0.368 s0.305-0.007,0.47-0.089l0.001,0c0.002-0.001,0.003-0.002,0.005-0.003c0.009-0.005,0.018-0.01,0.026-0.016 c0.004-0.003,0.009-0.005,0.012-0.008c0.009-0.006,0.016-0.013,0.023-0.02c0.003-0.003,0.006-0.005,0.008-0.008 c0.006-0.008,0.011-0.016,0.015-0.025c0.001-0.003,0.004-0.005,0.005-0.008c0.005-0.012,0.007-0.024,0.007-0.037 c0-0.014-0.003-0.027-0.009-0.039c-0.002-0.004-0.004-0.007-0.007-0.011c-0.005-0.008-0.01-0.016-0.017-0.023 c-0.003-0.004-0.008-0.007-0.011-0.01c-0.008-0.007-0.016-0.013-0.025-0.019c-0.005-0.003-0.009-0.006-0.014-0.009 c-0.011-0.006-0.022-0.012-0.034-0.017c-0.005-0.002-0.009-0.004-0.014-0.006c-0.015-0.006-0.031-0.012-0.047-0.017 c-0.003-0.001-0.005-0.002-0.008-0.003c-0.18-0.055-0.425-0.059-0.425-0.059l-2.597-0.392c0,0-0.004,0-0.01-0.001 c-0.001,0-0.002,0-0.003,0c-0.015-0.001-0.044-0.004-0.082-0.009c-0.002,0-0.004-0.001-0.006-0.001 c-0.02-0.003-0.042-0.006-0.066-0.01l0,0c-0.003,0-0.007-0.001-0.01-0.002c-0.018-0.003-0.038-0.007-0.058-0.01 c-0.011-0.002-0.022-0.004-0.033-0.007c-0.019-0.004-0.038-0.008-0.058-0.013c-0.01-0.002-0.019-0.004-0.029-0.007 c-0.028-0.007-0.057-0.014-0.087-0.022c-0.004-0.001-0.007-0.002-0.011-0.003c-0.03-0.008-0.06-0.018-0.09-0.028 c-0.01-0.003-0.021-0.007-0.032-0.011c-0.023-0.008-0.047-0.017-0.071-0.026c-0.011-0.004-0.022-0.009-0.034-0.013 c-0.031-0.013-0.062-0.026-0.093-0.041c-0.004-0.002-0.009-0.004-0.013-0.006c-0.031-0.015-0.061-0.031-0.091-0.048 c-0.011-0.006-0.021-0.012-0.032-0.019c-0.022-0.014-0.045-0.028-0.066-0.043c-0.01-0.007-0.02-0.014-0.03-0.021 c-0.029-0.021-0.056-0.043-0.083-0.066c-0.002-0.002-0.005-0.004-0.007-0.006c-0.026-0.024-0.051-0.05-0.075-0.077 c-0.008-0.009-0.015-0.018-0.022-0.027c-0.017-0.021-0.034-0.043-0.049-0.067c-0.006-0.01-0.013-0.019-0.019-0.029 c-0.02-0.033-0.038-0.066-0.053-0.103c-0.267-0.642-0.548-1.343-0.548-1.343s-0.024-0.126-0.084-0.211l0-0.002 c-0.006-0.009-0.013-0.017-0.02-0.024c-0.001-0.001-0.002-0.003-0.003-0.004c-0.011-0.012-0.024-0.021-0.038-0.028 c-0.003-0.002-0.007-0.003-0.011-0.005c-0.015-0.006-0.03-0.011-0.047-0.011c-0.018,0-0.034,0.006-0.05,0.014 c-0.002,0.001-0.004,0.001-0.005,0.003c-0.014,0.008-0.028,0.02-0.04,0.034c-0.003,0.003-0.006,0.006-0.009,0.01 c-0.001,0.002-0.003,0.003-0.005,0.005l0,0.001c-0.08,0.1-0.12,0.279-0.12,0.279s-0.306,0.987-0.547,1.308 c-0.242,0.321-0.534,0.642-1.82,0.761c-0.586,0.054-1.044,0.111-1.419,0.157l0,0c-0.049,0.006-0.096,0.012-0.142,0.018 c-0.014,0.002-0.028,0.003-0.041,0.005c-0.032,0.004-0.064,0.008-0.095,0.012c-0.022,0.003-0.043,0.005-0.064,0.008 c-0.027,0.003-0.053,0.006-0.079,0.009c-0.019,0.002-0.038,0.004-0.057,0.007c-0.027,0.003-0.053,0.006-0.078,0.009 c-0.016,0.002-0.033,0.004-0.049,0.005c-0.026,0.003-0.051,0.005-0.076,0.008c-0.015,0.001-0.03,0.003-0.045,0.004 c-0.025,0.002-0.05,0.004-0.074,0.006c-0.013,0.001-0.027,0.002-0.04,0.003c-0.027,0.002-0.053,0.004-0.078,0.005 c-0.01,0.001-0.02,0.001-0.029,0.002c-0.035,0.002-0.07,0.003-0.103,0.004c-0.51,0.012-1.567,0.012-2.407-0.083 c-0.839-0.095-6.276-0.713-6.276-0.713s-0.23-0.024-0.563-0.063l0,0c-0.346-0.041-0.803-0.099-1.233-0.164 c-0.005-0.001-0.01-0.002-0.015-0.002c-0.043-0.007-0.085-0.013-0.128-0.02c-0.013-0.002-0.026-0.004-0.039-0.006 c-0.037-0.006-0.073-0.012-0.11-0.018c-0.012-0.002-0.024-0.004-0.036-0.006c-0.043-0.007-0.085-0.015-0.126-0.022 c-0.016-0.003-0.032-0.006-0.048-0.009c-0.027-0.005-0.054-0.01-0.08-0.015c-0.017-0.003-0.034-0.006-0.05-0.01 c-0.029-0.006-0.056-0.011-0.084-0.017c-0.012-0.002-0.024-0.005-0.036-0.007c-0.035-0.007-0.069-0.015-0.101-0.022 c-0.012-0.003-0.024-0.006-0.035-0.008c-0.023-0.006-0.045-0.011-0.067-0.017c-0.011-0.003-0.021-0.006-0.032-0.008 c-0.03-0.008-0.058-0.016-0.084-0.024c-0.687-0.214-1.693-0.25-2.469-2.52c-0.777-2.27-0.827-2.437-0.827-2.437 s-0.025-0.162-0.097-0.284l0,0c-0.001-0.002-0.003-0.005-0.005-0.007c-0.007-0.012-0.015-0.024-0.024-0.034 c-0.005-0.006-0.01-0.012-0.015-0.018c-0.008-0.009-0.016-0.017-0.024-0.024c-0.006-0.005-0.011-0.01-0.018-0.014 c-0.011-0.008-0.023-0.014-0.035-0.02c-0.005-0.002-0.01-0.004-0.014-0.005c-0.016-0.005-0.033-0.009-0.051-0.009 c-0.017,0-0.033,0.004-0.048,0.009c-0.004,0.001-0.008,0.003-0.011,0.005c-0.013,0.006-0.025,0.013-0.036,0.022 c-0.002,0.001-0.004,0.002-0.005,0.004c-0.014,0.011-0.027,0.025-0.039,0.04c0,0,0,0,0,0c-0.104,0.132-0.139,0.383-0.139,0.383 s-0.866,2.627-1.274,3.411c-0.407,0.784-0.7,1.521-4.098,1.878c-3.017,0.369-4.602,0.6-4.602,0.6l-2.788,0.356 c0,0-0.497,0.018-0.497,0.196c0,0.178,0.421,0.178,0.573,0.196c0.153,0.018,3.132,0.392,3.132,0.392s4.755,0.606,5.213,0.677 c0.285,0.044,0.885,0.123,1.432,0.287l0,0c0.02,0.006,0.039,0.012,0.058,0.018c0.032,0.01,0.064,0.02,0.095,0.031 c0.015,0.005,0.029,0.01,0.044,0.015c0.039,0.014,0.078,0.028,0.117,0.043c0.009,0.003,0.017,0.007,0.026,0.01 c0.095,0.038,0.185,0.08,0.269,0.125c0.01,0.005,0.019,0.011,0.029,0.016c0.031,0.018,0.061,0.036,0.09,0.055 c0.01,0.006,0.02,0.013,0.03,0.019c0.036,0.025,0.071,0.05,0.102,0.076c0.554,0.463,1.031,1.462,1.375,2.942 c0.343,1.48,0.706,2.746,0.706,2.746s0.058,0.446,0.248,0.446c0.011,0,0.022-0.002,0.033-0.005c0.004-0.001,0.008-0.003,0.012-0.005 c0.006-0.003,0.013-0.005,0.019-0.009c0.004-0.003,0.009-0.006,0.013-0.009c0.005-0.004,0.01-0.007,0.015-0.012 c0.004-0.004,0.008-0.009,0.013-0.013c0.004-0.005,0.008-0.009,0.012-0.014c0.004-0.005,0.008-0.011,0.012-0.016 c0.004-0.005,0.007-0.01,0.01-0.016c0.004-0.006,0.007-0.012,0.011-0.019c0.003-0.006,0.006-0.011,0.009-0.017 c0.004-0.007,0.007-0.014,0.01-0.021c0.002-0.005,0.005-0.011,0.007-0.016c0.004-0.008,0.007-0.017,0.01-0.025 c0-0.001,0.001-0.002,0.001-0.003v0c0.046-0.125,0.063-0.262,0.063-0.262S18.859,24.643,19.088,24.037z"/></svg>