<svg xmlns="http://www.w3.org/2000/svg"  viewBox="0 0 48 48" width="1600px" height="1600px" baseProfile="basic"><path fill="#4caf50" d="M34.436,42H13.564C9.386,42,6,38.614,6,34.436V13.564C6,9.386,9.386,6,13.564,6h20.872 C38.614,6,42,9.386,42,13.564v20.872C42,38.614,38.614,42,34.436,42z"/><circle cx="21" cy="23" r="12"/><circle cx="14.5" cy="21.5" r="2.5" fill="#fff"/><circle cx="14.5" cy="21.5" r="1.25"/><circle cx="26.5" cy="20.5" r="2.5" fill="#fff"/><circle cx="26.5" cy="20.5" r="1.25"/><ellipse cx="21.08" cy="26.066" fill="#fff" rx="4.083" ry="3.062" transform="rotate(-3.072 21.083 26.07)"/><path d="M20.604,27.065c-0.786,0-1.531-0.148-2.105-0.415c-0.25-0.115-0.359-0.413-0.243-0.663 c0.116-0.251,0.412-0.359,0.664-0.244c1.131,0.524,3.206,0.439,4.378-0.525c0.214-0.175,0.529-0.144,0.704,0.069 c0.175,0.214,0.144,0.528-0.069,0.704C23.02,26.74,21.768,27.065,20.604,27.065z"/><path fill="#fff" d="M36.71,33.5h-9.42c-0.436,0-0.79-0.354-0.79-0.79v-6.42c0-0.436,0.354-0.79,0.79-0.79h9.42 c0.436,0,0.79,0.354,0.79,0.79v6.42C37.5,33.146,37.146,33.5,36.71,33.5z"/><path d="M36.71,34h-9.42C26.579,34,26,33.421,26,32.71v-6.42c0-0.711,0.579-1.29,1.29-1.29h9.42c0.711,0,1.29,0.579,1.29,1.29v6.42 C38,33.421,37.421,34,36.71,34z M27.29,26C27.13,26,27,26.13,27,26.29v6.42c0,0.16,0.13,0.29,0.29,0.29h9.42 c0.16,0,0.29-0.13,0.29-0.29v-6.42c0-0.16-0.13-0.29-0.29-0.29H27.29z"/><path d="M35.665,31c-1.573,0-1.833,1.141-0.782,2.227c1.093,1.093,1.021,2.524,1.715,3.291C37.482,37.495,40,36.947,40,35.232 C40,31.798,36.032,31,35.665,31z"/><g><path fill="#4caf50" d="M33.204,32h-4.712C28.22,32,28,31.725,28,31.385v-3.77C28,27.275,28.22,27,28.492,27h3.204 c0.186,0,0.357,0.132,0.44,0.34l1.508,3.77C33.808,31.519,33.57,32,33.204,32z"/></g></svg>