<svg xmlns="http://www.w3.org/2000/svg"  viewBox="0 0 48 48" width="1600px" height="1600px"><path fill="#3949ab" d="M8.593,34.004c-0.169,0-2.971-0.003-2.971-0.003c-0.483-0.668-1.313-0.891-2.031-0.666	c-0.086,0.027-0.171,0.079-0.239,0.14c-0.234,0.209-0.205,0.506,0.089,0.602c0.358,0.116,0.733,0.191,1.106,0.245	c0.856,0.123,1.725,0.182,2.543,0.487c0.34,0.127,0.681,0.282,0.977,0.488c0.935,0.653,1.036,1.892,0.243,2.714	c-0.467,0.484-1.066,0.716-1.704,0.863c-1.032,0.237-2.079,0.229-3.122,0.132c-2.372-0.313-3.276-1.73-3.282-2.353	c0.073-0.003,2.147-0.007,3.121-0.012l0,0c0.454,0.72,1.397,0.947,2.166,0.711c0.188-0.058,0.326-0.19,0.333-0.406	c0.007-0.213-0.109-0.375-0.297-0.429c-0.317-0.091-0.643-0.171-0.97-0.196c-0.905-0.069-1.801-0.181-2.672-0.447	c-0.121-0.037-0.238-0.085-0.356-0.131c-1.533-0.588-1.421-2.431-0.527-3.181c0.474-0.398,1.021-0.627,1.618-0.734	c1.409-0.254,2.81-0.236,4.191,0.177c0.418,0.125,0.805,0.32,1.135,0.612C8.357,32.985,8.588,33.409,8.593,34.004z"/><path fill="#3949ab" d="M44.597,38.997c-0.071,0-2.475-0.003-3.488,0.003c0,0-2.622-2.419-2.705-2.491	c0,0.848,0,1.653,0,2.473c-0.886,0-1.749,0-2.628,0c0-2.319,0-4.632,0-6.965c0.863,0,1.729,0,2.615,0c0,0.786,0,1.567,0,2.396	c0.09-0.068,2.96-2.41,2.96-2.41c1.066-0.007,3.259,0.003,3.334,0.012c-1.34,1.141-2.649,2.255-3.977,3.386	C41.995,36.593,44.597,38.997,44.597,38.997z"/><path fill="#3949ab" d="M18.164,39c0-0.47-0.005-1.013,0.006-1.477l4.024-3.738c0,0-2.772-0.029-3.906-0.022	c0,0,0.016-1.294,0.011-1.747L26.336,32c-0.005,0.393-0.008,1.472-0.008,1.472c-1.224,1.13-3.966,3.656-4.077,3.759	c1.376,0,2.703,0,4.047,0c0,0.599,0,1.174,0,1.77C23.597,39,20.89,39,18.164,39z"/><path fill="#3949ab" d="M15.049,32c0.85,0,1.68,0,2.538,0c0,0.072,0,0.141,0,0.21c0,1.382,0.009,2.764-0.006,4.146	c-0.004,0.366-0.043,0.742-0.139,1.094c-0.205,0.753-0.8,1.133-1.53,1.299c-0.535,0.121-1.088,0.2-1.636,0.226	c-1.085,0.052-2.174,0.055-3.229-0.259c-0.976-0.29-1.504-0.939-1.517-1.934c-0.022-1.557-0.009-3.114-0.01-4.671	c0-0.031,0.006-0.063,0.011-0.108c0.829,0,1.651,0,2.509,0c0,0.082,0,0.163,0,0.244c0,1.259,0,2.517,0,3.776	c0,0.759,0.426,1.22,1.209,1.264c0.314,0.018,0.643,0.001,0.946-0.076c0.584-0.147,0.854-0.529,0.854-1.113	c0.002-1.285,0.001-2.569,0.001-3.854C15.049,32.166,15.049,32.09,15.049,32z"/><path fill="#3949ab" d="M32.525,32.014c0.848,0,1.672,0,2.508,0c0.009,0.043,0.026,0.085,0.026,0.127	c-0.005,1.547,0.008,3.093-0.026,4.639c-0.023,1.069-0.567,1.716-1.64,1.966c-0.553,0.129-1.127,0.201-1.696,0.23	c-0.958,0.049-1.919,0.036-2.862-0.177c-0.142-0.032-0.283-0.072-0.421-0.119c-0.908-0.312-1.395-0.929-1.408-1.866	c-0.022-1.546-0.013-3.267-0.018-4.813l2.524,0.011c0,0.071,0,2.751,0,4.006c0,0.729,0.317,1.114,1.058,1.256	c0.411,0.078,0.823,0.061,1.218-0.092c0.488-0.19,0.734-0.539,0.735-1.046c0.001-1.288,0.001-2.576,0.001-3.864	C32.525,32.193,32.525,32.116,32.525,32.014z"/><path fill="#3949ab" d="M48,39c-0.866,0-1.729,0-2.605,0c0-2.334,0-4.658,0-7c0.864,0,1.726,0,2.605,0	C48,34.327,48,36.657,48,39z"/><path fill="#ff3d00" d="M13.553,20.84L24,28.165c0,0,3.824-3.638,10.479-6.511l-13.691-9.527l0.622-0.479l5.218,3.59	c0,0,3.351,2.298,7.851-1.005L24,7.101c0,0-1.787,2.346-10.447,6.319l13.577,9.67l-0.598,0.479l-5.362-3.734	C21.17,19.835,17.832,17.848,13.553,20.84z"/></svg>