<svg xmlns="http://www.w3.org/2000/svg"  viewBox="0 0 48 48" width="1600px" height="1600px" clip-rule="evenodd"><path fill="#b71c1c" fill-rule="evenodd" d="M5.271,10.155c4.896-1.983,12.974-2.241,16.483-2.109l2.246,2.884l2.247-2.884c3.509-0.132,11.587,0.125,16.482,2.109c-0.676,1.284-3.617,3.11-5.233,3.516c-0.092-2.523-3.658-3.049-7.079-3.049L23.999,45.04l-6.417-34.419c-3.425,0-6.991,0.526-7.083,3.049C8.885,13.265,5.946,11.439,5.271,10.155L5.271,10.155z" clip-rule="evenodd"/><path fill="#b71c1c" fill-rule="evenodd" d="M3,6.734l1.253,1.839C9.006,6.905,14.647,6.103,20.6,5.923c2.253-0.069,4.547-0.069,6.798,0c5.953,0.179,11.595,0.981,16.348,2.65L45,6.734c-5.613-1.902-11.577-2.536-17.532-2.69c-2.307-0.059-4.63-0.059-6.933,0C14.575,4.198,8.614,4.832,3,6.734L3,6.734z" clip-rule="evenodd"/></svg>