<svg xmlns="http://www.w3.org/2000/svg"  viewBox="0 0 48 48" width="1600px" height="1600px"><path fill="#b3bde2" d="M24,9C11.297,9,1,15.716,1,24s10.297,15,23,15c12.703,0,23-6.716,23-15S36.703,9,24,9z M24,36 C13.507,36,5,30.627,5,24c0-6.627,8.507-12,19-12s19,5.373,19,12C43,30.627,34.493,36,24,36z"/><path fill="#b3bde2" d="M24,12c-3.314,0-6,5.373-6,12c0,6.627,2.686,12,6,12s6-5.373,6-12C30,17.373,27.314,12,24,12z M24,32 c-1.657,0-3-3.582-3-8s1.343-8,3-8s3,3.582,3,8S25.657,32,24,32z"/><path fill="#7986cb" d="M21.001,24.039C21.001,24.026,21,24.013,21,24c0-4.418,1.343-8,3-8s3,3.582,3,8 c0,0.089-0.004,0.176-0.005,0.265c0.003,0,0.006,0,0.01,0.001C27.027,18.462,26.375,14,24,14c-2.5,0-3.011,4.597-3.007,10.04 C20.996,24.04,20.998,24.039,21.001,24.039z"/><path fill="#b3bde2" d="M24,10c-8.837,0-16,3.134-16,7c0,3.866,7.163,7,16,7s16-3.134,16-7C40,13.134,32.837,10,24,10z M24,21c-6.627,0-12-2.265-12-4.75S17.373,12,24,12s12,1.765,12,4.25S30.627,21,24,21z"/><path fill="#7986cb" d="M5 24c0-2.403 1.13-4.636 3.056-6.513C8.031 17.325 8 17.164 8 17c0-.615.2-1.209.541-1.778C5.006 17.253 3 20.207 3 24c0 7.184 9.455 10.746 16.936 11.718C11.397 34.542 5 29.745 5 24zM39.459 15.222C39.8 15.791 40 16.385 40 17c0 .164-.031.325-.056.487C41.87 19.364 43 21.597 43 24c0 5.745-6.397 10.542-14.936 11.718C35.545 34.746 45 31.184 45 24 45 20.207 42.994 17.253 39.459 15.222z"/></svg>