<svg xmlns="http://www.w3.org/2000/svg"  viewBox="0 0 48 48" width="1600px" height="1600px"><path fill="#283593" d="M32.602,21.53c-0.068-0.227-0.145-0.457-0.234-0.687C32.042,20,31.62,19.265,31.16,18.688	c-1.239-1.388-2.642-2.624-4.18-3.677c0.226,0.292,0.432,0.593,0.611,0.897c0,0,1.872,1.391,2.959,2.805	c-1.394-0.995-2.184-1.398-2.286-1.449c-0.004-0.002-0.008-0.004-0.012-0.006c0.53,1.308,0.689,2.391,0.689,2.393	c0,0,1.654,0.865,3.143,2.157c0.206,0.955,0.291,1.934,0.277,2.914c-1.501-1.323-3.238-2.356-3.238-2.356	c-0.032,1.12-0.186,2.255-0.432,3.358c0,0,1.64,1.041,3.239,2.5c0,0-0.459,2.068-1.199,3.693c-1.534-1.431-3.029-2.544-3.147-2.631	c0,0-0.761,1.989-1.995,3.986c1.535,1.338,2.979,2.726,2.979,2.726c-0.882,1.378-1.879,2.69-2.955,3.917v0.001l-2.747-2.74	c-1.116,1.384-2.339,2.687-3.639,3.887c0.062,0.07,0.615,0.685,0.842,0.936h5.649c2.591-2.903,4.799-6.319,6.125-9.976	C32.994,28.852,33.621,24.977,32.602,21.53z"/><path fill="#283593" d="M26.424,15.305c-0.178-0.244-0.379-0.492-0.609-0.713c-0.202-0.193-0.399-0.368-0.607-0.525	c-2.285-1.727-6.491-2.591-6.491-2.591c0.401,0.215,0.735,0.434,0.737,0.436c0.02,0.005,1.716,0.431,3.22,1.168	c0,0-1.368-0.312-2.246-0.433c0.363,0.319,0.707,0.687,1.009,1.071c0,0,2.791,0.51,4.016,1.184c0,0,0.586,0.605,1.066,1.666	c-1.913-0.778-4.079-1.184-4.079-1.184c0.288,0.646,0.493,1.337,0.62,2.057c0,0,2.381,0.584,4.171,1.445	c0.155,0.852,0.211,1.732,0.179,2.623c-2.114-1.062-4.211-1.729-4.211-1.729c-0.042,0.918-0.19,1.87-0.437,2.842	c0,0,2.886,1.292,4.182,2.076c-0.286,1.148-0.688,2.273-1.171,3.356c-1.975-1.286-4.065-2.43-4.065-2.43	c-0.525,1.264-1.817,3.334-1.817,3.334l0,0l0,0l0.001,0.001c0.032,0.022,2.182,1.502,3.831,2.814	c-0.819,1.244-1.743,2.44-2.748,3.576c-0.347-0.332-3.516-3.152-3.516-3.152c-0.956,1.112-2.021,2.195-3.187,3.231	c0,0,0,0,0.001,0.001l3.055,3.466h0.001l0,0c-1.982,1.636-3.957,2.875-3.957,2.875l-2.549-3.627c0,0-1.794,1.368-4.821,2.804V42	h9.942C27.038,33.584,30.976,21.55,26.424,15.305z"/><path fill="#283593" d="M20.795,14.13c-2.756-3.707-7.07-3.177-8.357-2.997c-1.413,0.198-2.481,0.507-2.481,0.507	c0.316,0.03,0.746,0.086,1.056,0.148c0.229-0.054,2.212-0.506,3.654-0.317c0.002,0,0.004,0,0.004,0	c-1.059,0.115-2.505,0.552-2.656,0.598c-0.002,0-0.002,0.001-0.004,0.002c0.002,0.001,0.003,0.001,0.005,0.002	c0.052,0.015,0.469,0.142,1.003,0.455c0.156-0.042,2.119-0.562,3.99-0.599l0,0c0,0,0.692,0.307,1.358,0.764	c-2.418-0.009-4.42,0.455-4.475,0.468c0.283,0.251,0.565,0.553,0.818,0.916c2.651-0.397,4.938-0.225,4.938-0.225	s0.311,0.379,0.451,0.583c0.177,0.257,0.357,0.576,0.497,0.856c-2.706-0.316-5.294-0.09-5.295-0.09	c0.179,0.46,0.299,0.953,0.365,1.47c0.299-0.002,2.591,0.002,5.509,0.527c0.093,0.669,0.103,1.385,0.029,2.141	c-0.496-0.129-2.892-0.727-5.507-0.986c-0.053,0.653-0.177,1.333-0.368,2.03c0.293,0.069,3.523,0.838,5.333,1.571	c-0.035,0.114-0.072,0.228-0.11,0.342c-0.259,0.776-0.583,1.556-0.966,2.333c-1.457-0.717-5.03-2.113-5.03-2.113	c-0.357,0.799-0.794,1.607-1.304,2.414c0,0,3.063,1.747,4.539,2.714c-0.681,0.972-1.45,1.927-2.299,2.85	c-1.07-0.959-3.746-3.031-3.948-3.188c-0.863,1.027-1.95,2.107-2.276,2.426l3.212,3.68c-0.03,0.027-0.06,0.054-0.092,0.081	c-0.695,0.576-1.444,1.118-2.077,1.552c-0.549,0.373-1.003,0.662-1.159,0.762c-0.037-0.057-2.14-3.412-2.456-3.946	C6.466,32.032,6.233,32.196,6,32.357v6.897c0.378-0.182,0.757-0.371,1.134-0.571c1.811-0.891,3.568-2.022,5.203-3.328	c1.048-0.832,2.147-1.807,3.233-2.934c1.289-1.322,2.409-2.706,3.344-4.109C22.456,23.088,23.405,17.64,20.795,14.13z"/><path fill="#283593" d="M13.646,13.851c-1.313-1.505-3.497-2.021-6.035-1.658c-0.069,0.01-0.141,0.02-0.206,0.031	c-0.194,0.033-0.39,0.072-0.587,0.116C6.425,12.43,6.157,12.52,6,12.581v0.759c0.25-0.197,0.505-0.384,0.768-0.56	c0.506-0.108,0.997-0.177,1.471-0.208C7.506,12.989,6.66,13.556,6,14.08v0.584l0.023,0.013c0,0,1.86-1.471,3.338-2.106	c0.356,0.026,0.698,0.075,1.023,0.15c-2.209,0.936-3.839,2.097-3.952,2.179c0.227,0.134,0.433,0.302,0.46,0.324	c0.029-0.018,2.17-1.356,4.526-2.158c0.32,0.146,0.629,0.328,0.896,0.534c-2.566,0.721-5.033,2.007-5.033,2.007	c0.139,0.162,0.262,0.336,0.367,0.523c0.017-0.007,0.032-0.013,0.044-0.017c2.626-1.123,5.417-1.699,5.417-1.699	c0.218,0.299,0.398,0.632,0.535,1c0,0-2.504,0.286-5.726,1.319c0.142,0.445,0.181,0.779,0.182,0.782c0,0,3.037-0.679,5.838-0.754	c0.039,0.45,0.025,0.954-0.039,1.472c-1.659-0.087-5.61,0.123-5.766,0.135c0,0-0.014,0.569-0.162,1.104c0,0,2.887,0.092,5.513,0.582	c-0.203,0.628-0.462,1.248-0.77,1.853c-1.75-0.525-4.406-1.163-5.105-1.324c-0.184,0.453-0.415,0.902-0.689,1.337	c0,0,3.245,1.415,4.491,2.108h0.003l-0.001,0.001c-0.54,0.809-1.612,1.941-1.612,1.941c-0.311-0.232-0.605-0.449-0.882-0.653	c-0.861-0.602-2.138-1.495-2.914-2.035C6.003,23.281,6.003,23.281,6,23.279v2.682l1.683,1.965C7.129,28.372,6.564,28.779,6,29.144	v1.6c0.021-0.013,0.041-0.027,0.062-0.04c0.769-0.523,1.529-1.106,2.268-1.749C14.138,23.905,16.517,17.143,13.646,13.851z"/><path fill="#283593" d="M6.404,15.292c-0.125-0.113-0.26-0.21-0.404-0.294v6.125C7.514,18.97,7.733,16.499,6.404,15.292z"/><path fill="#283593" d="M6,6v5.371C8.503,10.486,11.194,10,14,10c13.255,0,24,10.745,24,24c0,2.806-0.486,5.497-1.371,8H42V6	H6z"/><path fill="#283593" d="M35.58,42c0.294-0.796,0.56-1.648,0.777-2.512C36.781,37.729,37,35.91,37,34.057	c0-1.07-0.074-2.128-0.217-3.169c-0.105,1.518-0.37,2.847-0.37,2.847c0.062,0.2,0.173,0.53,0.224,0.733v0.001	c-0.164,1.566-0.46,3.088-0.875,4.552c-0.199-0.735-0.467-1.443-0.484-1.488c0-0.001-0.001-0.002-0.001-0.002	c-0.537,1.43-1.339,3.114-2.069,4.469H35.58z"/><path fill="#283593" d="M30.606,41.999h1.371c3.904-5.763,4.1-10.87,4.1-11.848c0-1.848-0.311-3.546-0.83-4.891	c0,0-0.81-2.09-2.072-3.95c0.138,0.416,0.402,1.258,0.549,2.011c0.01,0.05,0.017,0.094,0.024,0.135	c0.249,0.414,1.369,2.389,1.519,4.56c0,0.004,0,0.006,0,0.006s-0.792-1.108-1.379-1.809c-0.021,1.194-0.176,2.388-0.426,3.542	c0,0,1.173,1.358,1.698,2.234c0,0-0.357,1.91-1.122,3.74c-0.779-1.132-1.773-2.231-1.773-2.231	c-0.582,1.438-1.319,2.884-2.137,4.222c0,0,1.487,1.739,1.813,2.234C31.504,40.688,31.079,41.328,30.606,41.999z"/></svg>