<svg xmlns="http://www.w3.org/2000/svg"  viewBox="0 0 48 48" width="1600px" height="1600px"><path fill="#1565c0" d="M24 4A20 20 0 1 0 24 44A20 20 0 1 0 24 4Z"/><path fill="#fff" d="M24,7C14.611,7,7,14.611,7,24s7.611,17,17,17s17-7.611,17-17S33.389,7,24,7z M24,9 c1.502,0,2.951,0.228,4.32,0.641L24,18.999l-4.32-9.358C21.049,9.228,22.498,9,24,9z M9,24c0-1.248,0.17-2.455,0.459-3.615 l7.975,17.081C12.449,35.025,9,29.914,9,24z M24,39c-1.914,0-3.739-0.374-5.423-1.03L24,28.563l5.423,9.407 C27.739,38.626,25.914,39,24,39z M26.583,25H24h-2.583l-3.042,5.438l-6.817-14.807c1.169-1.733,2.699-3.197,4.469-4.314L21.516,23 H24h2.484l5.488-11.683c1.77,1.117,3.3,2.581,4.469,4.314l-6.817,14.807L26.583,25z M30.566,37.466l7.975-17.081 C38.83,21.545,39,22.752,39,24C39,29.914,35.551,35.025,30.566,37.466z"/></svg>