<svg xmlns="http://www.w3.org/2000/svg"  viewBox="0 0 48 48" width="1600px" height="1600px" baseProfile="basic"><path fill="#29b6f6" d="M31.473,14.813c0.273-0.163,0.556-0.339,0.852-0.492c0.765-0.392,1.616-0.59,2.481-0.547	c0.623,0.034,1.192,0.208,1.628,0.666c0.416,0.426,0.568,0.95,0.613,1.518c0.011,0.121,0.011,0.24,0.011,0.371v5.658	c0,0.492-0.066,0.556-0.556,0.556H35.17c-0.087,0-0.174,0-0.263-0.011c-0.13-0.011-0.24-0.121-0.263-0.25	c-0.023-0.121-0.023-0.24-0.023-0.36v-5.059c0.011-0.208-0.011-0.403-0.066-0.6c-0.087-0.339-0.392-0.579-0.742-0.6	c-0.645-0.043-1.289,0.087-1.879,0.361c-0.087,0.023-0.142,0.11-0.13,0.197v5.747c0,0.11,0,0.208-0.023,0.316	c0,0.153-0.121,0.263-0.273,0.263l0,0c-0.163,0.011-0.327,0.011-0.503,0.011h-1.158c-0.403,0-0.492-0.099-0.492-0.503v-5.168	c0-0.186-0.011-0.384-0.053-0.568c-0.076-0.371-0.392-0.634-0.765-0.655c-0.655-0.043-1.321,0.087-1.913,0.371	c-0.087,0.023-0.142,0.121-0.121,0.208v5.823c0,0.403-0.087,0.492-0.492,0.492h-1.465c-0.384,0-0.479-0.11-0.479-0.479v-7.583	c0-0.087,0.011-0.174,0.034-0.263c0.043-0.13,0.174-0.208,0.305-0.208h1.366c0.197,0,0.316,0.121,0.384,0.305	c0.053,0.153,0.087,0.297,0.142,0.46c0.11,0,0.174-0.076,0.25-0.121c0.6-0.371,1.234-0.689,1.945-0.819	c0.547-0.11,1.092-0.11,1.639,0c0.513,0.11,0.973,0.416,1.268,0.852c0.023,0.034,0.043,0.053,0.066,0.076	C31.452,14.79,31.462,14.79,31.473,14.813z M15.327,15.229c0.076-0.023,0.142-0.066,0.186-0.13c0.197-0.197,0.403-0.384,0.623-0.556	c0.568-0.437,1.279-0.655,1.989-0.6c0.284,0.011,0.384,0.099,0.403,0.371c0.023,0.371,0.011,0.753,0.011,1.126	c0.011,0.153,0,0.297-0.023,0.448c-0.043,0.197-0.121,0.273-0.316,0.297c-0.153,0.011-0.297,0-0.448-0.011	c-0.732-0.066-1.442,0.076-2.131,0.305c-0.153,0.053-0.153,0.163-0.153,0.284v5.241c0,0.099,0,0.186-0.011,0.284	c-0.011,0.142-0.121,0.25-0.263,0.25c-0.076,0.011-0.163,0.011-0.24,0.011h-1.421c-0.076,0-0.163,0-0.24-0.011	c-0.142-0.011-0.25-0.13-0.263-0.273c-0.011-0.087-0.011-0.174-0.011-0.263v-7.43c0-0.503,0.053-0.556,0.556-0.556h1.05	c0.284,0,0.416,0.099,0.492,0.371C15.195,14.66,15.261,14.934,15.327,15.229z M19.587,18.265v-3.878	c0.011-0.263,0.11-0.361,0.371-0.371c0.568-0.011,1.137-0.011,1.705,0c0.25,0,0.327,0.076,0.35,0.327	c0.011,0.099,0.011,0.186,0.011,0.284v7.276c0,0.121-0.011,0.24-0.023,0.36c-0.011,0.142-0.121,0.24-0.263,0.25	c-0.066,0.011-0.121,0.011-0.186,0.011h-1.518c-0.053,0-0.099,0-0.153-0.011c-0.153-0.011-0.284-0.13-0.297-0.284	c-0.011-0.087-0.011-0.174-0.011-0.263C19.587,20.755,19.587,19.51,19.587,18.265z M20.855,10.104	c0.174-0.011,0.35,0.023,0.513,0.076c0.59,0.197,0.895,0.71,0.842,1.376c-0.043,0.568-0.469,1.026-1.039,1.115	c-0.24,0.043-0.492,0.043-0.732,0c-0.623-0.121-1.081-0.579-1.039-1.366C19.466,10.53,19.98,10.104,20.855,10.104z M11.404,17.37	c-0.043-0.568-0.197-1.126-0.426-1.639c-0.448-0.939-1.137-1.628-2.184-1.868c-1.202-0.263-2.284,0-3.268,0.732	c-0.066,0.066-0.142,0.121-0.229,0.163c-0.023-0.011-0.043-0.023-0.043-0.034c-0.034-0.11-0.053-0.218-0.087-0.327	c-0.087-0.273-0.197-0.371-0.492-0.371c-0.327,0-0.666,0.011-0.994,0c-0.25-0.011-0.479,0.023-0.655,0.218	c0,3.823,0,7.659,0.011,11.47c0.142,0.229,0.36,0.273,0.613,0.263c0.392-0.011,0.787,0,1.179,0c0.689,0,0.689,0,0.689-0.677v-3.113	c0-0.076-0.034-0.163,0.043-0.229c0.547,0.426,1.213,0.689,1.902,0.753c0.963,0.099,1.834-0.142,2.568-0.797	c0.536-0.492,0.929-1.126,1.137-1.826C11.461,19.194,11.48,18.287,11.404,17.37z M8.793,19.631c-0.076,0.339-0.25,0.645-0.503,0.874	c-0.284,0.24-0.634,0.384-1.005,0.384c-0.556,0.034-1.103-0.087-1.595-0.35c-0.121-0.053-0.197-0.174-0.186-0.305v-1.978	c0-0.655,0.011-1.312,0-1.966c-0.011-0.153,0.076-0.284,0.218-0.339c0.6-0.284,1.224-0.416,1.879-0.284	c0.46,0.066,0.852,0.361,1.039,0.787c0.163,0.35,0.263,0.732,0.284,1.115C8.991,18.265,8.991,18.965,8.793,19.631z M41.045,18.976	c0.819,0.153,1.66,0.163,2.481,0.034c0.479-0.066,0.939-0.208,1.366-0.437c0.492-0.284,0.852-0.677,1.005-1.224	c0.384-1.376-0.208-2.765-1.639-3.276c-0.7-0.229-1.442-0.305-2.174-0.208c-1.726,0.197-2.85,1.147-3.363,2.797	c-0.36,1.126-0.316,2.271-0.023,3.408c0.384,1.453,1.344,2.316,2.797,2.621c0.829,0.186,1.671,0.153,2.502,0.023	c0.437-0.076,0.874-0.186,1.289-0.35c0.25-0.099,0.384-0.25,0.371-0.536c-0.011-0.263,0-0.536,0-0.808	c0-0.327-0.13-0.426-0.448-0.35c-0.318,0.076-0.623,0.142-0.939,0.208c-0.677,0.142-1.376,0.142-2.055,0.023	c-0.929-0.186-1.529-0.982-1.476-1.966C40.837,18.944,40.945,18.953,41.045,18.976z M40.771,17.305	c0.034-0.263,0.11-0.513,0.208-0.753c0.327-0.797,1.016-1.071,1.715-1.026c0.197,0.011,0.392,0.053,0.579,0.13	c0.284,0.121,0.469,0.384,0.503,0.689c0.034,0.186,0.023,0.384-0.034,0.568c-0.13,0.392-0.448,0.556-0.829,0.634	c-0.229,0.053-0.469,0.076-0.71,0.053c-0.426,0-0.863-0.034-1.289-0.099C40.748,17.479,40.748,17.479,40.771,17.305z"/><path fill="#29b6f6" d="M25.127,38.063c-0.414-0.011-0.83-0.011-1.242,0c-0.57-0.03-1.14-0.052-1.71-0.093	c-1.513-0.115-3.017-0.342-4.487-0.685c-5.09-1.181-9.557-3.555-13.455-7.006c-0.364-0.323-0.705-0.653-1.058-0.986	c-0.082-0.074-0.156-0.177-0.197-0.28c-0.063-0.145-0.03-0.301,0.074-0.414c0.104-0.113,0.271-0.156,0.414-0.093	c0.093,0.041,0.186,0.082,0.271,0.134c3.722,2.302,7.784,3.98,12.044,4.975c1.431,0.332,2.87,0.59,4.322,0.778	c2.083,0.26,4.186,0.353,6.28,0.28c1.129-0.03,2.25-0.134,3.369-0.28c2.612-0.332,5.194-0.923,7.691-1.752	c1.316-0.434,2.601-0.934,3.856-1.513c0.186-0.104,0.414-0.134,0.622-0.082c0.342,0.082,0.549,0.434,0.466,0.778	c-0.011,0.041-0.03,0.093-0.052,0.134c-0.082,0.156-0.197,0.29-0.342,0.393c-1.192,0.934-2.478,1.752-3.835,2.436	c-2.56,1.294-5.298,2.218-8.116,2.747C28.414,37.824,26.777,38,25.127,38.063z M42.946,27.957c0.685,0.022,1.357,0.063,2.02,0.238	c0.186,0.052,0.364,0.115,0.538,0.197c0.238,0.093,0.393,0.323,0.425,0.57c0.041,0.29,0.052,0.59,0.03,0.891	c-0.134,1.773-0.685,3.482-1.597,5.006c-0.332,0.549-0.735,1.047-1.201,1.483c-0.093,0.093-0.208,0.167-0.332,0.208	c-0.197,0.052-0.323-0.052-0.332-0.249c0.011-0.104,0.03-0.208,0.074-0.312c0.364-0.975,0.715-1.938,0.995-2.944	c0.167-0.549,0.28-1.108,0.353-1.68c0.022-0.208,0.03-0.414,0.011-0.622c-0.011-0.353-0.238-0.653-0.581-0.757	c-0.323-0.104-0.653-0.167-0.995-0.186c-0.954-0.041-1.906,0-2.851,0.125l-1.253,0.156c-0.134,0.011-0.26,0-0.332-0.125	c-0.074-0.125-0.041-0.249,0.03-0.373c0.082-0.115,0.186-0.219,0.312-0.29c0.767-0.549,1.628-0.882,2.54-1.099	C41.505,28.048,42.22,27.978,42.946,27.957z"/></svg>