<svg xmlns="http://www.w3.org/2000/svg"  viewBox="0 0 48 48" width="1600px" height="1600px" baseProfile="basic"><path fill="#e61e25" d="M28.22,23.382c0,2.672-2.166,4.838-4.838,4.838H8.869 c-2.672,0-4.838-2.166-4.838-4.838V8.869c0-2.672,2.166-4.838,4.838-4.838h14.513c2.672,0,4.838,2.166,4.838,4.838V23.382z" transform="scale(1.48831)"/><path fill="#fff" d="M16.126,8.781l-6.262,2.791c0,5.337,0.493,9.645,6.262,11.898 c5.745-2.253,6.262-6.561,6.262-11.898L16.126,8.781z M17.38,17.619l-1.654,1.675c-0.306,0.309-0.723,0.481-1.158,0.478 c-0.431,0.002-0.844-0.17-1.146-0.478l-0.435-0.447c-0.308-0.306-0.484-0.721-0.49-1.155c-0.003-0.436,0.17-0.855,0.481-1.161 l0.822-0.835l0.605,0.605l-0.819,0.831c-0.304,0.301-0.307,0.791-0.006,1.095c0.002,0.002,0.004,0.004,0.006,0.006l0.435,0.441 c0.141,0.148,0.337,0.233,0.541,0.233c0.205-0.001,0.402-0.085,0.544-0.233l1.4-1.421v-1.947h0.856v2.313L17.38,17.619z M19.264,15.684l-0.822,0.835l-0.605-0.605l0.819-0.831c0.304-0.301,0.307-0.791,0.006-1.095 c-0.002-0.002-0.004-0.004-0.006-0.006l-0.435-0.441c-0.136-0.147-0.329-0.227-0.529-0.221c-0.205,0.001-0.402,0.085-0.544,0.233 l-1.412,1.406v1.971h-0.853v-2.334l1.654-1.675c0.3-0.311,0.713-0.488,1.146-0.49c0.434-0.003,0.849,0.174,1.146,0.49l0.435,0.438 c0.309,0.309,0.485,0.727,0.49,1.164C19.755,14.961,19.578,15.38,19.264,15.684L19.264,15.684z" transform="scale(1.48831)"/></svg>