<svg xmlns="http://www.w3.org/2000/svg"  viewBox="0 0 48 48" width="1600px" height="1600px"><path fill="#e6e6e6" d="M44,24c0,11.046-8.954,20-20,20S4,35.046,4,24S12.954,4,24,4S44,12.954,44,24z"/><path fill="#1e75ba" d="M29.195,34.43c-1.042,3.021-2.491,6.246-4.319,9.527c4.401-0.191,8.433-1.788,11.649-4.375c0.846-2.539,1.398-5.065,1.628-7.513c1.489-0.2,3.003-0.534,4.531-0.985c0.699-1.845,1.133-3.824,1.254-5.885c-0.859,0.217-1.706,0.382-2.539,0.516C38.023,29.425,33.87,32.411,29.195,34.43z"/><path fill="#01828e" d="M41.4,25.714c-1.137,0.182-2.253,0.299-3.329,0.334c-0.104-0.812-0.265-1.597-0.451-2.37c-0.469-1.936-1.194-3.724-2.157-5.326c-1.441,1.28-2.977,2.496-4.588,3.65c0.182,0.968,0.269,2.036,0.23,3.203c-1.137-0.352-2.131-0.807-2.982-1.332c-0.66,0.417-1.332,0.825-2.014,1.215c-1.263,0.729-2.543,1.398-3.828,2.018c0.087,0.1,0.165,0.204,0.256,0.304c1.228,1.389,2.713,2.465,4.384,3.255c0.977,0.46,2.014,0.825,3.108,1.085c-0.234,0.872-0.516,1.762-0.829,2.674C33.87,32.411,38.023,29.425,41.4,25.714z"/><path fill="#4aae52" d="M27.672,11.873c-0.295-0.104-0.59-0.208-0.89-0.295c1.667-1.484,4.123-2.765,7.461-3.676c0.343-0.091,0.69-0.239,1.042-0.408c-0.595-0.408-1.22-0.777-1.858-1.12c-1.693-0.903-3.533-1.558-5.469-1.949c-0.781-0.156-1.576-0.282-2.387-0.347c-0.703,0.82-1.35,1.628-1.97,2.426c-1.168,1.515-2.188,2.999-2.982,4.462c-1.259,0.091-2.539,0.313-3.828,0.647c-4.036,1.042-8.142,3.229-11.879,6.398c-0.122,0.399-0.226,0.799-0.326,1.207C4.208,20.749,4,22.351,4,24c0,1.736,0.239,3.407,0.66,5.009c0.169,0.638,0.356,1.267,0.582,1.879c4.388-5.516,9.106-9.74,13.312-12.083c0.009,0.161,0.035,0.317,0.052,0.473C20.68,15.549,25.189,15.068,27.672,11.873z"/><path fill="#209673" d="M31.101,13.64c-0.065-0.043-0.117-0.095-0.182-0.139c-1.024-0.686-2.114-1.22-3.247-1.628c-2.483,3.19-6.992,3.676-9.067,7.405c0.152,1.541,0.612,3.086,1.454,4.648c0.569,1.05,1.306,2.109,2.222,3.181c1.285-0.621,2.565-1.285,3.828-2.014c0.681-0.395,1.354-0.803,2.014-1.22c-0.655-0.408-1.233-0.851-1.684-1.337c-0.916-0.998-1.567-2.066-1.957-3.16c-0.299-0.851-0.447-1.719-0.408-2.582c1.063-0.135,2.031-0.052,2.908,0.217c0.477,0.143,0.938,0.33,1.35,0.608c1.341,0.898,2.17,2.418,2.543,4.384c1.61-1.155,3.147-2.37,4.588-3.65C34.343,16.491,32.898,14.885,31.101,13.64z"/></svg>