<svg xmlns="http://www.w3.org/2000/svg"  viewBox="0 0 48 48" width="1600px" height="1600px" baseProfile="basic"><path fill="#66bb6a" d="M44,24c0,11.05-8.95,20-20,20C14,44,5.73,36.68,4.24,27.09C4.08,26.09,4,25.05,4,24 C4,12.95,12.95,4,24,4c9.39,0,17.27,6.47,19.42,15.2C43.8,20.74,44,22.35,44,24z"/><path fill="#43a047" d="M41.37,33.9C37.94,39.94,31.44,44,24,44C12.95,44,4,35.05,4,24c0-3.62,0.96-7.02,2.66-9.95 c0.82-1.44,1.82-2.77,2.97-3.95C7.95,13.02,7,16.4,7,20c0,11.05,8.95,20,20,20C32.65,40,37.74,37.66,41.37,33.9z"/><path fill="#9ccc65" d="M32.11,19.97C25,20,19,16,19,16s-6-2-10,3c-3.98,2.98-3.65-1.95-2.34-4.95C10.1,8.04,16.58,4,24,4 c5.48,0,10.44,2.2,14.05,5.78C38.18,12.29,38.07,19.94,32.11,19.97z"/><path fill="#fff" d="M20.596,18.295v11.452c0,0.734-0.125,1.643-0.55,2.369c-0.392,0.667-1.068,1.176-1.802,1.451 c-1.026,0.392-2.085,0.459-3.169,0.425c-0.133-0.008-0.142-0.092-0.142-0.192c0-0.267,0.008-0.542-0.008-0.817 c0-0.142,0.067-0.192,0.209-0.2c0.484-0.042,0.959-0.125,1.426-0.267c2.202-0.5,1.885-2.344,1.902-2.769 c0-0.45,0.017-1.576,0-2.652c-0.459,0.826-1.48,1.543-2.556,1.818c-0.784,0.167-2.106,0.146-3.023-0.313 c-1.218-0.609-1.81-1.939-2.06-3.224c-0.125-0.634-0.175-1.251-0.192-1.768c-0.033-0.842,0.075-1.693,0.409-2.477 c0.35-0.834,0.901-1.56,1.727-2.119c1.41-1.076,3.499-0.942,4.391-0.942c0.104,0,0.209,0.092,0.209,0.209 c0.008,0.384-0.008,0.667,0,1.043c0.008,0.092-0.117,0.121-0.209,0.104c-0.158-0.025-0.847-0.129-1.706,0.096 c-0.359,0.117-2.027,0.709-2.352,3.011c-0.008,0.075-0.025,0.158-0.025,0.242c-0.1,0.934-0.042,2.435,0.459,3.403 c0.45,0.792,0.917,1.276,2.11,1.209c1.518-0.067,2.702-1.927,2.802-2.46v-0.584c0-1.526,0.008-4.537,0.033-6.039 c0-0.192,0.058-0.225,0.242-0.225c0.55,0.017,1.101,0.017,1.651,0C20.537,18.079,20.596,18.112,20.596,18.295z"/><path fill="#fff" d="M32.114,18.07c-2.903,0-5.263,2.452-5.263,5.471s2.36,5.471,5.263,5.471s5.263-2.452,5.263-5.471 S35.017,18.07,32.114,18.07z M32.114,27.12c-1.777,0-3.211-1.601-3.211-3.578c0-1.968,1.435-3.57,3.211-3.57 s3.219,1.601,3.219,3.57C35.334,25.518,33.891,27.12,32.114,27.12z"/><path fill="#fff" d="M24.975,14.209v14.813c0,0.115-0.093,0.209-0.209,0.209h-1.668c-0.115,0-0.209-0.093-0.209-0.209 V15.668h-1.568c-0.115,0-0.209-0.093-0.209-0.209v-1.251c0-0.115,0.093-0.209,0.209-0.209h3.445 C24.881,14,24.975,14.093,24.975,14.209z"/><path fill="#c8e6c9" d="M27.37,7.173c-0.003,0.007-0.007,0.013-0.01,0.02c-0.306,0.605,0.005,1.342,0.656,1.531 c0.99,0.288,1.946,0.658,2.858,1.103c0.395,0.193,0.86,0.143,1.195-0.141c0.015-0.012,0.029-0.025,0.044-0.037 c0.595-0.505,0.488-1.464-0.213-1.809c-1.046-0.515-2.148-0.932-3.296-1.238C28.113,6.471,27.599,6.72,27.37,7.173z"/><path fill="#c8e6c9" d="M42,24c0-5.247-2.25-9.965-5.833-13.255c-0.446-0.409-1.145-0.373-1.521,0.101 c-0.025,0.031-0.05,0.062-0.074,0.094c-0.349,0.441-0.262,1.07,0.163,1.437C38.566,15.677,41,20.549,41,26c0,2.48-0.5,4.85-1.42,7 C41.12,30.35,42,27.28,42,24z"/></svg>