<svg xmlns="http://www.w3.org/2000/svg"  viewBox="0 0 48 48" width="1600px" height="1600px"><path fill="#fff" d="M9 9H39V39H9z"/><path fill="#f44336" d="M16.17,18.882c0.949,5.778,5.597,10.518,7.827,12.5c2.227-1.987,6.879-6.741,7.831-12.501c-3.599-0.393-6.353-1.676-7.829-2.518C22.524,17.206,19.77,18.49,16.17,18.882z"/><path fill="#f44336" d="M38,6H10c-2.209,0-4,1.791-4,4v28c0,2.209,1.791,4,4,4h28c2.209,0,4-1.791,4-4V10C42,7.791,40.209,6,38,6z M35,17.013c-0.13,10.003-9.983,17.462-10.402,17.774L24,35.233l-0.598-0.445C22.983,34.475,13.13,27.017,13,17.013L12.987,16H14c5.567,0,9.364-2.773,9.402-2.801l0.599-0.445L24.6,13.2c0.036,0.026,3.833,2.8,9.4,2.8h1.013L35,17.013z"/></svg>