<svg xmlns="http://www.w3.org/2000/svg"  viewBox="0 0 48 48" width="1600px" height="1600px"><circle cx="24" cy="24" r="20" fill="#29b6f6"/><path fill="#0288d1" d="M40.71,13.02c-0.439-0.671-0.929-1.302-1.443-1.913L27.544,43.671	c0.79-0.142,1.569-0.319,2.326-0.551C38.05,40.62,44,33.01,44,24C44,19.95,42.79,16.17,40.71,13.02z"/><path fill="#03a9f4" d="M24,4c-1.214,0-2.399,0.122-3.555,0.331L8.726,36.884c2.239,2.661,5.148,4.731,8.494,5.936	L30.77,5.18C28.66,4.42,26.38,4,24,4z"/><path fill="#039be5" d="M30.857,5.211L30.77,5.18L17.22,42.82C19.33,43.58,21.62,44,24,44c1.21,0,2.391-0.121,3.544-0.329	l11.723-32.564C37.047,8.471,34.167,6.419,30.857,5.211z"/><circle cx="19" cy="15" r="6" fill="#fff"/><circle cx="18.706" cy="32.83" r="6" fill="#fff"/><circle cx="34.294" cy="24.17" r="6" fill="#fff"/></svg>