<svg xmlns="http://www.w3.org/2000/svg"  viewBox="0 0 48 48" width="1600px" height="1600px" baseProfile="basic"><path fill="#1c1c1c" d="M34,42H14c-4.411,0-8-3.589-8-8V14c0-4.411,3.589-8,8-8h20c4.411,0,8,3.589,8,8v20	C42,38.411,38.411,42,34,42z"/><path d="M20.766,19.688c-0.065-0.089-0.011-0.328-0.011-0.328l0.286-1.5c0,0,0.034-0.223-0.017-0.305 c-0.045-0.073-0.242-0.165-0.242-0.165l-0.568-0.155c0,0-0.138-0.057-0.182-0.125c-0.057-0.089-0.058-0.375-0.058-0.375 l0.315-1.825c0.086-0.498-0.297-0.952-0.802-0.952h-2.758c-0.393,0-0.731,0.281-0.801,0.669l-2.435,13.399 c-0.091,0.5,0.293,0.96,0.801,0.96h2.98c0.389,0,0.723-0.275,0.799-0.656l1.059-5.344l1.321,0.11l-0.147,2.489 c-0.013,0.228,0.147,0.429,0.372,0.467l1.291,0.217l-0.254-6.406l-0.558-0.037C21.156,19.824,20.895,19.863,20.766,19.688z"/><path d="M31.202,13.957h-3.049c-0.318,0-0.593,0.221-0.66,0.532l-0.51,2.139c0,0-0.084,0.299-0.181,0.376 c-0.11,0.087-0.492,0.105-0.492,0.105s-0.352-0.053-0.58,0.141c-0.101,0.086-0.184,0.377-0.184,0.377l-0.077,0.357h5.813 l0.587-3.231C31.942,14.339,31.624,13.957,31.202,13.957z"/><path d="M28.271,28.984h1.01l1.028-5.66h-1.103c-0.414,0-0.753,0.328-0.767,0.742L28.271,28.984z"/><path d="M23.281,18.984h11.72c0.388,0,0.666,0.375,0.553,0.746l-0.639,2.098c-0.09,0.295-0.361,0.496-0.669,0.496h-5.937 c-0.452,0-0.823,0.358-0.839,0.81l-0.285,8.064c-0.015,0.43,0.329,0.787,0.759,0.787h6.784c0.318,0,0.577,0.257,0.578,0.576 l0.007,1.844c0.001,0.32-0.258,0.58-0.578,0.58H23.87c-0.31,0-0.565-0.245-0.577-0.555l-0.588-14.844 C22.691,19.257,22.953,18.984,23.281,18.984z"/><path fill="#cfd8dc" d="M20.109,18.703c-0.065-0.089-0.011-0.328-0.011-0.328l0.286-1.5c0,0,0.034-0.223-0.017-0.305	c-0.045-0.073-0.242-0.165-0.242-0.165l-0.568-0.155c0,0-0.138-0.057-0.182-0.125c-0.057-0.089-0.058-0.375-0.058-0.375l0.315-1.825	c0.086-0.498-0.297-0.952-0.802-0.952h-2.758c-0.393,0-0.731,0.281-0.801,0.669L12.836,27.04c-0.091,0.5,0.293,0.96,0.801,0.96h2.98	c0.389,0,0.723-0.275,0.799-0.656L18.475,22l1.321,0.11l-0.147,2.489c-0.013,0.228,0.147,0.429,0.372,0.467l1.291,0.217	l-0.254-6.406L20.5,18.84C20.5,18.84,20.238,18.879,20.109,18.703z"/><path fill="#cfd8dc" d="M30.546,12.972h-3.049c-0.318,0-0.593,0.221-0.66,0.532l-0.51,2.139c0,0-0.084,0.299-0.181,0.376	c-0.11,0.087-0.492,0.105-0.492,0.105s-0.352-0.053-0.58,0.141c-0.101,0.086-0.184,0.377-0.184,0.377L24.811,17h5.813l0.587-3.231	C31.286,13.354,30.967,12.972,30.546,12.972z"/><path fill="#cfd8dc" d="M27.615,28h1.01l1.028-5.66H28.55c-0.414,0-0.753,0.328-0.767,0.742L27.615,28z"/><path fill="#8bc34a" d="M22.625,18h11.72c0.388,0,0.666,0.375,0.553,0.746l-0.598,1.964c-0.114,0.374-0.459,0.629-0.85,0.629	h-5.798c-0.452,0-0.823,0.358-0.839,0.81l-0.285,8.064C26.513,30.643,26.857,31,27.287,31h6.784c0.318,0,0.577,0.257,0.578,0.576	l0.007,1.844c0.001,0.32-0.258,0.58-0.578,0.58H23.214c-0.31,0-0.565-0.245-0.577-0.555l-0.588-14.844	C22.035,18.273,22.297,18,22.625,18z"/></svg>