<svg xmlns="http://www.w3.org/2000/svg"  viewBox="0 0 48 48" width="1600px" height="1600px"><path fill="#E0E0E0" d="M27,3.603C16.783,3.603,8.5,12.735,8.5,24S16.783,44.397,27,44.397S45.5,35.265,45.5,24S37.217,3.603,27,3.603z M27,37.756c-6.026,0-10.91-6.159-10.91-13.756S20.974,10.244,27,10.244S37.91,16.403,37.91,24S33.026,37.756,27,37.756z"/><path fill="#065DFF" d="M18.809,33.088c1.031-0.257,1.987-0.245,2.616,0.313c1.394,1.239,0.556,3.973-1.413,5.965s-4.53,2.505-5.716,1.304c-0.602-0.609-0.862-1.418-0.589-2.484l0.714,0.757c-0.063,0.281,0.084,0.849,0.613,1.138c0.845,0.462,2.512,0.321,4.244-1.432s2.631-3.667,1.533-4.653c-0.281-0.253-1.058-0.286-1.467-0.198L18.809,33.088z" clip-path="url(#SVGID_2_)"/><path fill="#00968D" d="M19.959,13.519c0.412,0.99,0.519,1.84,0.072,2.555c-0.991,1.587-3.821,1.116-6.073-0.54s-3.153-4.136-2.167-5.509c0.5-0.697,1.498-0.976,2.581-0.871l-0.943,1.024c-0.284-0.019-0.555,0.21-0.707,0.646c-0.221,0.634-0.095,1.883,1.886,3.34c1.982,1.457,3.643,2.159,4.598,1.312c0.203-0.18,0.15-0.678,0-1.074C19.479,14.036,19.728,13.75,19.959,13.519z" clip-path="url(#SVGID_4_)"/><path fill="#065DFF" d="M20.104,34.661c1.387-0.174,2.536,0.163,2.946,0.901c0.765,1.376-0.33,3.883-2.83,5.474c-2.357,1.5-5.102,1.391-5.777,0.119c-0.403-0.759-0.678-1.4-0.195-2.386l0.654,0.664c-0.222,0.687,0.062,0.879,0.543,1.245c0.875,0.665,2.076,0.76,4.126-0.597c2.051-1.356,2.971-2.825,2.535-4.056c-0.146-0.413-0.55-0.596-1.262-0.665C20.605,35.144,20.318,34.896,20.104,34.661z" clip-path="url(#SVGID_6_)"/><path fill="#00968D" d="M12.9,10.838c-1.394,0.094-2.638,1.239-2.813,2.181c-0.291,1.572,0.111,3.278,3.11,4.803c3.863,1.964,6.551,0.615,7.275-0.85c0.381-0.771,0.814-2.655-0.086-3.881c-0.246,0.229-0.492,0.487-0.736,0.767c0.345,0.632,0.103,2.418-0.302,2.868c-0.736,0.82-2.725,0.955-4.963-0.05c-2.271-1.019-3.046-2.716-2.898-3.45c0.086-0.43,0.271-0.799,0.691-0.978C12.328,11.866,12.603,11.2,12.9,10.838z" clip-path="url(#SVGID_8_)"/><path fill="#065DFF" d="M23.236,36.941c1.334-0.574,2.582-0.209,2.823,0.755c0.431,1.727-0.214,4.002-2.689,5.646c-2.308,1.533-4.456,1.338-5.742,0.319c-0.545-0.431-1.285-1.662-0.778-2.69l1.014,0.73c-0.029,0.591,0.098,0.724,0.472,1.005c1.118,0.841,2.733,0.705,4.377-0.409c2.136-1.448,2.462-3.301,2.343-4.243c-0.048-0.382-0.155-0.599-0.825-0.675C23.9,37.261,23.568,37.112,23.236,36.941z" clip-path="url(#SVGID_10_)"/><path fill="#00968D" d="M12.101,10.394c0.289,0.177,0.164,0.646-0.087,0.789c-0.173,0.098-1.086-0.106-1.179-0.119C9.73,10.97,8.118,11.14,7.266,12.132c-0.454,0.529-0.483,0.639-0.733,1.138c-0.938,2.013-1.459,0.745-0.763-0.597c0.796-1.591,2.226-2.449,3.991-2.564C10.63,10.052,11.725,10.164,12.101,10.394z" clip-path="url(#SVGID_12_)"/><path fill="#065DFF" d="M36.084,31.622c-0.244,0.444-0.314,0.574-0.505,0.877c-5.531-1.368-11.635,0.848-13.739,2.355c-0.395,0.165-0.601-0.167-0.628-0.225c-0.09-0.191-0.076-0.433,0.176-0.611c0.16-0.1,0.16-0.1,0.321-0.199c2.146-1.282,5.28-2.568,9.628-2.661C32.791,31.127,35.871,31.369,36.084,31.622z" clip-path="url(#SVGID_14_)"/><path fill="#065DFF" d="M43.232,33.794c0.015,0.01,0.184,0.127,0.199,0.137c3.106,2.186,3.796,5,1.552,7.344c-0.699,0.73-2.709,2.353-5.932,2.265c0,0-1.773-0.689,0.034-0.953c2.548,0.259,4.578-1.392,5.212-2.034c1.871-1.892,0.927-4.126-1.523-5.891L43.232,33.794z" clip-path="url(#SVGID_16_)"/><path fill="#BDBDBD" d="M6.615 19.11L2.648 18.034 1.875 20.953 5.842 22.029z" clip-path="url(#SVGID_18_)"/><path fill="#BDBDBD" d="M33.132 43.685L34.195 39.671 31.31 38.889 30.247 42.903z" clip-path="url(#SVGID_20_)"/><path fill="#00968D" d="M7.761 15.509L6.177 12.733 3.434 14.336 2.468 17.985 6.795 19.159z" clip-path="url(#SVGID_22_)"/><path fill="#065DFF" d="M36.69 44.845L39.615 43.243 37.85 40.466 34.243 39.489 33.084 43.867z" clip-path="url(#SVGID_24_)"/></svg>