<svg xmlns="http://www.w3.org/2000/svg"  viewBox="0 0 48 48" width="1600px" height="1600px"><path fill="#CCC" d="M13 13H35V35H13z"/><path fill="#673AB7" d="M11.478,7.565h25.043c2.161,0,3.913,1.752,3.913,3.913v25.043c0,2.161-1.752,3.913-3.913,3.913H11.478c-2.161,0-3.913-1.752-3.913-3.913V11.478C7.565,9.317,9.317,7.565,11.478,7.565z M11.478,6C8.465,6,6,8.465,6,11.478v25.043C6,39.535,8.465,42,11.478,42h25.043C39.535,42,42,39.535,42,36.522V11.478C42,8.465,39.535,6,36.522,6H11.478z"/><path fill="#F44336" d="M16.118 10.015A6.092 6.092 0 1 0 16.118 22.198999999999998A6.092 6.092 0 1 0 16.118 10.015Z"/><path fill="#3F51B5" d="M31.907 10.002000000000002A6.092 6.092 0 1 0 31.907 22.186A6.092 6.092 0 1 0 31.907 10.002000000000002Z" transform="rotate(-17.522 31.907 16.093)"/><path fill="#FF9800" d="M31.906 25.666A6.092 6.092 0 1 0 31.906 37.85A6.092 6.092 0 1 0 31.906 25.666Z" transform="rotate(-17.522 31.907 31.758)"/><path fill="#4CAF50" d="M16.242 25.67A6.092 6.092 0 1 0 16.242 37.854A6.092 6.092 0 1 0 16.242 25.67Z" transform="rotate(-17.522 16.243 31.761)"/></svg>