<svg xmlns="http://www.w3.org/2000/svg"  viewBox="0 0 48 48" width="1600px" height="1600px"><path fill="#90A4AE" d="M14.17 15.519L19.203 10.762 19.209 11.628 14.019 16.626z" clip-path="url(#SVGID_2_)"/><path fill="#90A4AE" d="M17.443 28.85L29.176 33.251 30.154 20.54 26.487 15.651 19.141 13.335 15.487 15.881z" clip-path="url(#SVGID_4_)"/><path fill="#455A64" d="M42.938 26.033L46.053 14.382 30.154 20.54 29.176 32.858z" clip-path="url(#SVGID_6_)"/><path fill="#546E7A" d="M14.901,15.207c0,0-0.764,0.037-1.141,0.138S2.557,20.459,2.249,20.779c-0.308,0.32-0.262,0.871-0.213,1.247c0.049,0.375,1.209,6.347,1.389,6.966c0.18,0.619,1.307,0.687,1.307,0.687l12.578-1.712l-1.822-12.085L14.901,15.207z" clip-path="url(#SVGID_8_)"/><path fill="#78909C" d="M46.04,14.429c-0.335-0.566-3.572-4.645-3.572-4.645l-15.981,5.867l3.667,4.889L46.04,14.429z" clip-path="url(#SVGID_10_)"/><path fill="#90A4AE" d="M26.913,4.302l-0.426,6.35l-1.416,0.634l-0.784-0.625c0,0,0.261-6.805,0.738-7.257C25.502,2.953,26.913,4.302,26.913,4.302z" clip-path="url(#SVGID_12_)"/><path fill="#B0BEC5" d="M19.141 13.335L35.098 7.509 42.469 9.784 26.487 15.651z" clip-path="url(#SVGID_14_)"/><path fill="#37474F" d="M38.466,23.962c-0.566,0.1-1.099-0.213-0.867-1.956s1.92-12.853,1.845-13.689c-0.118-1.314-0.772-1.467-0.772-1.467s-12.83-2.88-13.407-2.81c-0.486,0.058-0.546,0.611-0.546,0.611s-0.422-1.75,1.524-2.2c0.695-0.161,0.833-0.126,1.467-0.056c1.321,0.145,12.596,2.564,13.309,2.912c0.713,0.348,1.333,1.257,1.358,2.033s-2.451,14.245-2.451,14.245S40.076,23.678,38.466,23.962z" clip-path="url(#SVGID_16_)"/><path fill="#CFD8DC" d="M18.277,30.499c-0.389-0.04-0.843-0.008-1.193,0.797s-3.226,9.967-3.552,11.051s0.53,1.475,0.53,1.475s4.643,1.937,5.336,2.141c0.693,0.204,1.956-0.499,1.956-0.499s7.858-8.486,8.018-8.982c0.16-0.496-0.196-1.772-0.196-1.772l-4.235-1.739C24.941,32.97,18.666,30.539,18.277,30.499z" clip-path="url(#SVGID_18_)"/><path fill="#CFD8DC" d="M28.687,14.184c0,0-11.363-9.151-12.223-9.554c-0.859-0.403-7.799-2.614-7.822-2.179c-0.023,0.435,9.289,8.8,9.289,8.8l9.778,3.173L28.687,14.184z" clip-path="url(#SVGID_20_)"/><path fill="#546E7A" d="M18.744,16.934c1.127-0.407,2.337-0.674,3.634-0.794c0,0,3.888,0.19,6.103,5.058c2.215,4.867-1.145,8.323-1.145,8.323c-1.618,0.488-2.178,0.468-4.027,0.309c0,0,3.451-0.851,3.468-4.525C26.796,21.629,23.695,16.8,18.744,16.934z" clip-path="url(#SVGID_22_)"/><path fill="#90A4AE" d="M17.689 30.814L17.443 28.362 18.097 28.563 18.421 31.113z" clip-path="url(#SVGID_24_)"/><path fill="#90A4AE" d="M28.199 34.676L28.298 32.274 29.312 32.274 29.176 35.047z" clip-path="url(#SVGID_26_)"/><path fill="#546E7A" d="M32.116,20.518c0,0-2.256,10.866-2.94,12.733c-2.001,2.047-2.733,3.255-3.249,3.229c-0.516-0.025-0.553,0.134-0.374-0.522c0.178-0.656,1.834-7.372,2.219-8.574C28.158,26.183,32.116,20.518,32.116,20.518z" clip-path="url(#SVGID_28_)"/><path fill="#E3F2FD" d="M21.843 16.180999999999997A4.766 7.097 0 1 0 21.843 30.375A4.766 7.097 0 1 0 21.843 16.180999999999997Z" clip-path="url(#SVGID_30_)" transform="rotate(-31.329 21.842 23.28)"/><path fill="#FFF" d="M23.574 18.809A2.875 3.869 0 1 0 23.574 26.547A2.875 3.869 0 1 0 23.574 18.809Z" clip-path="url(#SVGID_32_)" transform="rotate(-30.977 23.574 22.678)"/></svg>