<svg xmlns="http://www.w3.org/2000/svg"  viewBox="0 0 48 48" width="1600px" height="1600px"><path fill="#2196f3" d="M42,37c0,2.762-2.238,5-5,5H11c-2.761,0-5-2.238-5-5V11c0-2.762,2.239-5,5-5h26c2.762,0,5,2.238,5,5	V37z"/><rect width="1.7" height="1.7" x="18.804" y="15.116" fill="#fff"/><rect width="1.7" height="1.7" x="15.256" y="19.35" fill="#fff"/><rect width="1.7" height="1.7" x="17.256" y="17.35" fill="#fff"/><rect width="1.7" height="1.7" x="15.256" y="14.35" fill="#fff"/><rect width="1.7" height="1.7" x="17.256" y="12.35" fill="#fff"/><rect width="1.7" height="1.7" x="12.004" y="12.35" fill="#fff"/><path fill="#fff" d="M20.504,31V20.208h-1.7v5.367h-1.7v-3.255h-1.7v1.532h-1.7v-8h-1.7V27.46	c0,5.821,4.719,10.54,10.54,10.54H24C22.024,36.024,20.504,34.713,20.504,31z"/><path fill="#fff" d="M27.421,17.831v13.818h0c4.694,0,8.5-3.806,8.5-8.5V11.88h-2.549	C30.085,11.88,27.421,14.544,27.421,17.831z"/><path fill="#fff" d="M28.568,32.581c-0.325,0.039-3.093,0.302-6.908,0.147c0.354,1.862,3.749,5.267,3.749,5.267	c5.814-0.053,10.512-4.778,10.512-10.604v-0.002C34.523,30.179,31.792,32.191,28.568,32.581z"/></svg>