<svg xmlns="http://www.w3.org/2000/svg"  viewBox="0 0 48 48" width="1600px" height="1600px" baseProfile="basic"><path fill="#0097a7" d="M44.588,41.324L27.736,23.233c-2.851,3.007-3.161,6.526-1.928,10.356l7.338,7.877	c0.246,0.264,0.59,0.414,0.951,0.414h10.25C44.636,41.88,44.785,41.536,44.588,41.324z"/><path fill="#26c6da" d="M15.22,18.994l3.304-0.12l-1.021-3.964l3.335,0.918L10.205,4.414	C9.716,3.889,8.893,3.859,8.368,4.349L4.073,8.35c-0.525,0.489-0.554,1.311-0.065,1.836l11.009,11.817L15.22,18.994z"/><path fill="#26c6da" d="M19.905,31.128l-4.265,1.141l-0.12-3.724l-2.62-0.279l-8.893,9.547	c-0.489,0.525-0.46,1.347,0.065,1.836l4.296,4.002c0.525,0.489,1.347,0.46,1.836-0.065l9.351-10.038L19.905,31.128z"/><path fill="#26c6da" d="M44.347,6.12h-10.25c-0.361,0-0.705,0.15-0.951,0.414l-9.773,10.491l0.001,0.003l-5.841,6.3	c-0.364,0.393-0.363,1.001,0.002,1.393l9.097,9.749c-1.126-4.46-0.541-7.974,1.617-10.255L44.588,6.676	C44.785,6.464,44.636,6.12,44.347,6.12z"/></svg>