<svg xmlns="http://www.w3.org/2000/svg"  viewBox="0 0 48 48" width="1600px" height="1600px"><path fill="#ec0b43" d="M32.042,9.792c4.595,1.238,4.88,3.165,5.524,5.048C34.841,17.664,17.35,35.7,17.35,35.7 s10.901,1.177,23.487-1.003c-0.001,0.029-0.002,0.048-0.003,0.076C42.829,31.661,44,27.97,44,24c0-11.046-8.954-20-20-20 c-5.634,0-10.715,2.338-14.35,6.087C15.489,9.124,26.89,8.403,32.042,9.792z"/><path fill="#ec0b43" d="M14.724,37.285c-1.982-0.347-4.212-2.131-4.707-5.302c1.437-1.239,19.994-20.507,19.994-20.507 c-7.008-0.424-14.569-0.465-22.237,0.864C5.408,15.625,4,19.644,4,24c0,11.046,8.954,20,20,20c6.173,0,11.689-2.8,15.358-7.195 C35.486,37.33,23.257,38.769,14.724,37.285z"/></svg>