<svg xmlns="http://www.w3.org/2000/svg"  viewBox="0 0 48 48" width="1600px" height="1600px" baseProfile="basic"><path fill="#37474f" d="M46,25.749c0,3.542-2.931,6.414-6.547,6.414c-3.616,0-6.547-2.871-6.547-6.414 s2.931-6.414,6.547-6.414c0.896,0,1.751,0.176,2.529,0.496C44.342,20.8,46,23.085,46,25.749z"/><path fill="#37474f" d="M8.425,23c0,8.824,3.715,14.66,14.632,14.66c9.599,0,17.436-5.836,17.436-14.66 c0-10.079-6.414-17.408-17.408-17.408C13.485,5.592,8.425,14.176,8.425,23z"/><path fill="#a3786a" d="M12.089,21.168c0,8.824,2.492,17.408,10.537,17.408c7.073,0,10.537-5.836,10.537-14.66 c0-9.162-3.322-15.69-10.395-15.69S12.089,12.344,12.089,21.168z"/><ellipse cx="32.188" cy="29.224" fill="#a3786a" rx="8.504" ry="3.429" transform="rotate(-56.143 32.19 29.225)"/><ellipse cx="15.786" cy="21.869" fill="#fff" rx="3.037" ry="4.333"/><ellipse cx="26.781" cy="21.869" fill="#fff" rx="3.037" ry="4.333"/><path fill="#37474f" d="M14.838,3.759c0,2.486,3.319,4.408,5.497,5.497c1.832,0.916,8.401,0.641,9.162,0 c0.98-0.825-0.916-3.665-6.414-3.665C16.671,5.592,16.671,4.675,14.838,3.759z"/><rect width="6.414" height="8.246" x="22.168" y="33.995" fill="#a3786a"/><ellipse cx="31.66" cy="35.369" fill="#37474f" rx="5.168" ry="3.207"/><path fill="#37474f" d="M39.723,27.581c0,0,3.518,3.665,0,6.45c-1.979,1.796-5.644,0-5.644,0l3.326-4.535L39.723,27.581z"/><path fill="#37474f" d="M20.323,28.997c-0.955,0-1.817-0.399-2.405-1.098c-0.566-0.673-0.805-1.55-0.653-2.407 c0.634-3.599,2.718-7.102,2.807-7.249l0.857,0.514c-0.021,0.035-2.078,3.496-2.68,6.909c-0.101,0.573,0.053,1.138,0.434,1.589 c0.399,0.474,0.981,0.766,1.61,0.742l0.043,1C20.332,28.997,20.328,28.997,20.323,28.997z"/><path fill="#37474f" d="M21.511,32.506c-0.708,0-1.188-0.068-1.249-0.078l0.147-0.988c0.044,0.007,4.323,0.601,6.401-2.102 l0.793,0.609C25.907,32.152,23.121,32.506,21.511,32.506z"/><path fill="#212121" d="M24.917,12.921v2.749c0,0,0.687,0.687,3.665,0.916L24.917,12.921z"/><ellipse cx="17.129" cy="22.084" fill="#37474f" rx="1.374" ry="1.832"/><ellipse cx="27.207" cy="22.084" fill="#37474f" rx="1.374" ry="1.832"/><path fill="#212121" d="M17.587,12.921L19,15c0,0-1.413,0.67-4.391,0.899C15.94,15.148,16.969,14.182,17.587,12.921z"/><path fill="#37474f" d="M21.432,9.257c0,0-5.151-1.832-8.585,8.246c-2.366,6.944-0.469,15.118,3.824,19.241 c-4.581,2.749-6.078-1.718-6.078-1.718s-3.971,1.031-5.151-4.123c-2.898-1.489-3.756-2.405-3.327-5.154 c1.18-2.52,3.01-3.376,4.418-3.637c1.254-0.232,2.242-1.26,2.612-2.56c1.316-4.623,5.173-13.96,14.863-13.96 c12.907,0,13.736,12.827,13.736,12.827s-10.732,1.145-14.38-7.673C23.149,10.173,21.432,9.257,21.432,9.257z"/><circle cx="17.587" cy="21.168" r=".916" fill="#fff"/><circle cx="27.665" cy="21.168" r=".916" fill="#fff"/><path fill="#37474f" d="M23.084,8.347v8.797c-0.025,0.006-0.057,0.006-0.082,0.006c-2.486,0-4.326-2.051-5.416-4.229 c-0.916-1.832-1.557-3.82-0.916-4.581c0.825-0.98,4.933,0,6.332,0C23.028,8.34,23.059,8.34,23.084,8.347z"/></svg>