<svg xmlns="http://www.w3.org/2000/svg"  viewBox="0 0 48 48" width="1600px" height="1600px"><path fill="#263238" d="M37.187,43.404c-8.7,2.15-17.493,2.106-26.373,0C5.907,42.003,1,38.388,1,32.202l0,0 C1,26.015,5.394,21,10.813,21h26.373C42.606,21,47,26.015,47,32.202l0,0C47,38.388,42.707,42.003,37.187,43.404z"/><rect width="6" height="8" x="21" y="37" fill="#e57373"/><path fill="#263238" d="M35.938,25.29H12.275C6.6,25.29,2,20.381,2,14.324l0,0c0-6.056,2.774-9.34,8.275-10.966 C18,1.547,30,1.547,37.938,3.358c5.708,2.18,8.275,4.91,8.275,10.966l0,0C46.213,20.381,41.613,25.29,35.938,25.29z"/><path fill="#e57373" d="M13,19v13.053c0,3.625,2.635,5.8,6.232,6.563c3.203,0.495,6.384,0.528,9.536,0 C32.135,37.974,35,35.678,35,32.053V19H13z"/><path fill="#00e5ff" d="M24,17.567c-3.957,0-7.683-0.207-11-0.567v5.283L19.875,27l4.039-3.369L28.125,27L35,22.283V17 C31.683,17.36,27.957,17.567,24,17.567z"/><path fill="#6d4c41" d="M26.591,30.286c-1.85-0.761-3.497-0.765-5.184-0.011L21,29.914c0.693-0.612,1.77-1.207,3.008-1.195 c1.171,0.012,2.255,0.512,3.027,1.171L26.591,30.286z"/><path fill="#6d4c41" d="M21.444,34.719c1.85,0.761,3.497,0.765,5.184,0.011l0.408,0.362 c-0.693,0.612-1.77,1.207-3.008,1.195c-1.171-0.012-2.255-0.512-3.027-1.171L21.444,34.719z"/><path fill="#212121" d="M25.5,33h-3c-0.276,0-0.5-0.224-0.5-0.5s0.224-0.5,0.5-0.5h3c0.276,0,0.5,0.224,0.5,0.5 S25.776,33,25.5,33z"/><path fill="#ffcdd2" d="M17.641,17.378L14.32,23.19l5.029,3.45l5.189-9.081c-0.182,0.001-0.355,0.009-0.538,0.009 C21.795,17.567,19.672,17.497,17.641,17.378z"/><ellipse cx="22.5" cy="27" fill="#212121" rx=".5" ry="1"/><ellipse cx="25.5" cy="27" fill="#212121" rx=".5" ry="1"/></svg>