<svg xmlns="http://www.w3.org/2000/svg"  viewBox="0 0 48 48" width="1600px" height="1600px"><path fill="#6d4c41" d="M7.608,33c0,0-0.058,0.076-0.161,0.219C6.63,34.348,3,39.674,3,45c4.608,0,7.583-0.027,7.583-0.027 L9.911,35L7.608,33z"/><path fill="#6d4c41" d="M32,12h2c0,0,4.975,0,5,6c0.064,15.225,5,14,5,27H31L32,12z"/><path fill="#ef9a9a" d="M23.666,3h-4.332c-4.86,0-8.915,3.71-9.348,8.55L7,45h31.188c-2.35-8.279-4.313-20.298-5.174-33.45 C32.625,6.515,28.736,3.042,23.666,3z"/><ellipse cx="13.5" cy="15" fill="#fff" rx="3.5" ry="5"/><ellipse cx="13" cy="15.286" fill="#212121" rx="1" ry="1.429"/><ellipse cx="22.5" cy="15" fill="#fff" rx="3.5" ry="5"/><ellipse cx="22" cy="15.286" fill="#212121" rx="1" ry="1.429"/><path fill="#8d6e63" d="M30,31.5c0,1.69-0.696,3.264-1.896,4.587c-1.008,1.112-2.603,1.599-3.979,2.724 C22.572,40.081,20.468,40.496,18,40c-2.077,0.723-4.538,0.14-5.651-1c-2.503-0.277-3.347-1.693-4.453-2.913 C6.696,34.764,6,33.19,6,31.5c0-4.694,5.373-8.5,12-8.5S30,26.806,30,31.5z"/><ellipse cx="16" cy="24.653" fill="#8d6e63" rx="4" ry="3.653"/><path fill="#ef9a9a" d="M29,20c0,2.209,2.067,4,4,4s3-2.791,3-5s-1.067-3-3-3S29,17.791,29,20z"/><path fill="#6d4c41" d="M34,16c-1,0-2,0.827-2,4c0,1.609-2.5,1.557-2.792,0.098C28.954,18.825,28.458,17.515,29,15 c0,0,0.875-3,2.875-3S33,12,33,12l3,4l0,0H34z"/><path fill="#212121" d="M20.848,28.288c-1.414,0.544-2.724,0.83-3.855,0.971c-1.133,0.121-2.473,0.141-3.974-0.066 c-3.583-0.494-4.039,3.192-1.222,4.683c1.408,0.746,3.635,0.943,5.81,0.691c2.175-0.251,4.298-0.951,5.499-1.998 C25.508,30.475,24.224,26.99,20.848,28.288z"/><path fill="#ef5350" d="M11.797,33.876c1.408,0.746,3.635,0.943,5.81,0.691c2.175-0.251,4.298-0.951,5.499-1.998 c0.272-0.237,0.485-0.495,0.664-0.758c-1.77-1.056-4.123-1.567-6.63-1.278c-2.506,0.29-4.68,1.324-6.164,2.756 C11.212,33.505,11.478,33.707,11.797,33.876z"/><path fill="#fff" d="M20.848,28.288c-1.414,0.544-2.724,0.83-3.855,0.971c-1.133,0.121-2.473,0.141-3.974-0.066 c-1.583-0.218-2.549,0.38-2.896,1.244c1.771,0.905,4.338,1.315,7.122,0.994c2.783-0.322,5.19-1.307,6.707-2.591 C23.417,28.077,22.34,27.715,20.848,28.288z"/><path fill="#8d6e63" d="M25.078,8.044c-0.137,0-0.277-0.029-0.411-0.089c-1.291-0.583-2.336-0.411-2.346-0.41 c-0.539,0.097-1.06-0.264-1.16-0.803c-0.1-0.539,0.249-1.057,0.787-1.162c0.167-0.032,1.676-0.291,3.542,0.551 c0.504,0.228,0.728,0.82,0.5,1.323C25.823,7.825,25.46,8.044,25.078,8.044z"/><path fill="#8d6e63" d="M11.141,8.044c-0.381,0-0.745-0.219-0.912-0.589c-0.227-0.503-0.003-1.096,0.5-1.323 c1.868-0.842,3.376-0.583,3.542-0.551c0.542,0.105,0.896,0.63,0.79,1.173c-0.105,0.539-0.623,0.888-1.164,0.792 c-0.04-0.007-1.072-0.166-2.345,0.41C11.418,8.015,11.278,8.044,11.141,8.044z"/><path fill="#ef9a9a" d="M17.469,15.015c-0.138,0.034-3.818,1.86-4.196,3.133c-0.378,1.273,0.353,3.352,0.353,3.352 C15.532,20.037,16.927,17.275,17.469,15.015z"/><ellipse cx="14.5" cy="19" fill="#212121" rx=".5" ry="1"/><ellipse cx="16.5" cy="19" fill="#212121" rx=".5" ry="1"/><g><path fill="#6d4c41" d="M39.331,24.015c0.358,2.361,2.332,6.841,4.794,7.942c-2.863-0.28-4.08-0.496-5.867-2.576 C36.542,27.384,39.331,24.015,39.331,24.015z"/></g><g><path fill="#ffccbc" d="M7.179,43L7,45h31.188c-0.182-0.642-0.361-1.314-0.538-2H7.179z"/></g></svg>