<svg xmlns="http://www.w3.org/2000/svg"  viewBox="0 0 48 48" width="1600px" height="1600px"><path fill="#efebe9" d="M24,4c0,0-1.25-2.72-6.125-1.86S10,2,10,2s1,3,3,3c-4,1-7.75,5.78-8.375,8.39S1,18,1,18 s0.75,0.78,2.875-0.11C4,23,1,28,1,28l4.574-1.682l38.49,3.421L47,30c0,0-2-4-3-9c1.375,0.86,2,1,2,1s-0.879-6.464-3-10 c-3-5-5-6-7-7c1-1,3-1,3-1S33-1,24,4z"/><path fill="#efebe9" d="M43,22c0,0,4,6,4,23c-7,0-23,0-23,0l0.083-21.443L43,22z"/><path fill="#efebe9" d="M5,22c0,0-4,6-4,23c7,0,23,0,23,0l-0.083-21.443L5,22z"/><rect width="12" height="8" x="18" y="37" fill="#ffa726"/><path fill="#ffb74d" d="M34.85,31.853C35.754,40.092,32.62,43,24,43s-11.754-2.908-10.85-11.147 C13.996,24.144,17.508,14.89,24,14.89S34.004,24.144,34.85,31.853z"/><path fill="#212121" d="M27,38.488c-0.09,0-0.181-0.024-0.263-0.074c-2.707-1.672-5.446-0.019-5.475,0 c-0.234,0.143-0.543,0.072-0.688-0.163c-0.145-0.235-0.072-0.543,0.163-0.688c0.134-0.081,3.301-1.988,6.525,0 c0.235,0.146,0.308,0.453,0.163,0.688C27.331,38.404,27.167,38.488,27,38.488z"/><path fill="#fb8c00" d="M26.591,36.286c-1.85-0.761-3.497-0.765-5.184-0.011L21,35.914c0.693-0.612,1.77-1.207,3.008-1.195 c1.171,0.012,2.255,0.512,3.027,1.171L26.591,36.286z"/><path fill="#f4511e" d="M32.125,20.39l-18.71,9.146c-0.104,0.661-0.197,1.318-0.266,1.964 c-0.261,2.452-0.18,4.441,0.27,6.034l20.999-9C33.969,26.086,33.069,22.582,32.125,20.39z"/><polygon fill="#ffcc80" points="24,28.64 24,33 22,32.128"/><polygon fill="#d84315" points="24,28.64 24,33 26,32.128"/><path fill="#f4511e" d="M34.85,31.5c-0.015-0.136-0.036-0.276-0.052-0.413L28,34l6.977,0.698 C35.012,33.729,34.975,32.674,34.85,31.5z"/><path fill="#fb8c00" d="M21.444,39.719c1.85,0.761,3.497,0.765,5.184,0.011l0.408,0.362 c-0.693,0.612-1.77,1.207-3.008,1.195c-1.171-0.012-2.255-0.512-3.027-1.171L21.444,39.719z"/><path fill="#fff" d="M15.5,26.5l6,2C21.5,30.5,15.749,33.242,15.5,26.5z"/><path fill="#fff" d="M32.5,26.5l-6,2C26.5,30.5,32.251,33.242,32.5,26.5z"/><circle cx="19" cy="29" r="1" fill="#fb8c00"/><circle cx="29" cy="29" r="1" fill="#fb8c00"/><path fill="#efebe9" d="M23.876,14.209c0,0-4.9,7.692,3.468,11.275c-0.375-3.156,0.563-5.156,0.563-5.156 s3.688,4.344,8.442,6.315c-0.453-2.067-1.939-3.908-1.811-8.269C34.665,14.012,31.466,9.297,23.876,14.209z"/><path fill="#efebe9" d="M27.634,18.303c0,0-6.069,0.908-7.226,7.126c-0.966-0.903-1.127-3.882-1.127-3.882 s-4.698,1.76-5.906,8.344c-1.208-8.458,3.27-16.822,15.002-15.335S27.634,18.303,27.634,18.303z"/><path fill="#212121" d="M15.917,24.973c2.046,1.585,2.141,3.901,6.042,3.495C19.294,27.696,19.532,25.542,15.917,24.973z"/><path fill="#212121" d="M32.083,24.973c-2.046,1.585-2.141,3.901-6.042,3.495C28.706,27.696,28.468,25.542,32.083,24.973z"/><path fill="#d7ccc8" d="M34.188,19.64c2.875,2.313,3.375,5.563,3.625,7.656c-1.094-0.156-7.427-0.479-10.146-4.698 c-0.188,1.531-0.438,1.25-0.25,3c-1.323-0.865-1.219-2.896-0.5-7.042c0.406,0.969,3.74,5.677,8.99,6.74 C35.625,24.14,35.375,22.515,34.188,19.64z"/><path fill="#d7ccc8" d="M3.742,30.306c0,0,0.995-2.125,2.185-2.987c-0.01,3.253,1.629,5.699,2.05,6.37 c0,0,0.835-8.862,7.085-13.268C11.969,21.296,8,24.796,7.278,29.576c-0.309-1.277-0.61-3.251-0.58-4.138 C5.536,25.761,3.919,27.268,3.742,30.306z"/><path fill="#d7ccc8" d="M18.656,12.796c-1.063,2.875-2.108,9.611,1.752,12.632c0,0,0.529-2.195,2.217-4.32 c0.656,1.406,1.188,2.906,4.719,4.375c-0.269-0.434,0.392-1.362-0.594-1.781c-1.25-0.531-2.654-2.08-3.469-4.344 C21.969,20.015,20,22.609,20,22.609C19.094,21.14,18.165,18.044,18.656,12.796z"/><path fill="#d7ccc8" d="M27.688,8.828c0,0,3.313,1.25,5,5.438c0.625-1.25,0.563-3.125,0.563-3.125s3.5,1.813,4.625,3.813 c-0.563-3.438-5.563-6.063-5.563-6.063l-0.188,1.875C32.125,10.765,30.375,9.578,27.688,8.828z"/></svg>