<svg xmlns="http://www.w3.org/2000/svg"  viewBox="0 0 48 48" width="1600px" height="1600px"><path fill="#1565c0" d="M25,6C21,1,2-4,2.091,9c0,7,4.07,7.003,3.909,11c-0.282,7-6,11-1,21c2-4,3.473-4,7.855-7S25,6,25,6z"/><rect width="6" height="8" x="16" y="37" fill="#29b6f6"/><path fill="#80d8ff" d="M30,23c0,11.848-9.963,17-16.328,17C11.751,40,4,31,8,26C6,15,10.188,7,16.553,7S30,13.611,30,23z"/><ellipse cx="11.5" cy="22" fill="#fff" rx="2.5" ry="5"/><ellipse cx="18.5" cy="22" fill="#fff" rx="2.5" ry="5"/><path fill="#212121" d="M15.104,36.388c-0.44,0-0.887-0.05-1.338-0.149c-0.27-0.061-0.439-0.327-0.38-0.597 c0.06-0.269,0.325-0.438,0.597-0.38c1.354,0.301,2.612,0.072,3.739-0.678c0.228-0.153,0.539-0.092,0.693,0.139 c0.153,0.229,0.091,0.54-0.139,0.693C17.312,36.061,16.232,36.388,15.104,36.388z"/><path fill="#1565c0" d="M7.625,3.453c-2,2-3.438,11.813,8.375,10.547c3,3,7,2,7,2s4,6,1,11s-5,13,0,16 c1-7,9.116-9.837,12-12c8-6,11-17,11-23c-1,1-2,1-2,1c0.572-1.192,0.897-2.53,1-4c-1,2-8,3-11,1c-3.445-2.476-10-4-14-2 C21,4,11.625-0.548,7.625,3.453z"/><path fill="#29b6f6" d="M14.5,21.5c0,0-0.333,4.557-4.167,6.432c1,2,4.75,3.917,4.75,3.917l-2.75-3.917 C13.333,27.265,15.167,24.598,14.5,21.5z"/><ellipse cx="11" cy="22" fill="#311b92" rx="1" ry="2"/><ellipse cx="18" cy="22" fill="#311b92" rx="1" ry="2"/><path fill="#0d47a1" d="M7.938,5.452c0,0-4.063,10.282,8.063,8.548c-0.313-1.297-0.5-1.922-0.5-1.922 S6.25,14.953,7.938,5.452z"/><path fill="#0d47a1" d="M15.875,7.327c-1.313,2.75-2.063,10.015,7.438,8.813c-0.375-1.36-1-1.687-1-1.687 C20.625,14.828,15.698,14.904,15.875,7.327z"/><path fill="#0d47a1" d="M21.188,12.765c0,0,4.25,5.687,3.563,10.687c-0.453,3.291-3.75,6.375-3.625,11.563 c1.5-5,4.688-7.313,5.063-11.813C26.427,20.327,24.813,15.515,21.188,12.765z"/><path fill="#0d47a1" d="M8.75,36.577c0,0-2.625,1.125-3.5,2.375c-0.938-0.938-1.75-2.031-2.125-3.594 C3.688,38.734,5,41,5,41S6.75,38.265,8.75,36.577z"/><path fill="#0d47a1" d="M28.531,35.765c0,0-4.125,1.969-5.188,5.406c-0.625-0.188-0.969-0.406-1.844-1.344 c0.188,1.563,1.875,2.97,2.5,3.173C24.125,41.765,24.594,39.577,28.531,35.765z"/></svg>