<svg xmlns="http://www.w3.org/2000/svg"  viewBox="0 0 48 48" width="1600px" height="1600px"><rect width="6" height="8" x="16" y="37" fill="#ffcc80"/><ellipse cx="19" cy="22" fill="#ffe082" rx="12" ry="17"/><path fill="#ef9a9a" d="M9,13c0.167-4.542,3.375-9.235,9-10c11.723-0.574,23,0,28-2c-0.75,1.973-1.499,3.569-3,5 c1.188,0.077,2.146,0.015,2.917-0.36c-2,11-6.75,26.167-16.542,32.063c-4.458,2.104-6.438-1.5-6.125-5.313 c2.125,1.25,4.875-0.75,3.656-3.597C24.493,23.155,24.625,17.265,25,14c-1.567,0.533-2.755,0.65-4.5-0.36 C25.75,7.515,15.458-0.5,9,13z"/><ellipse cx="18.5" cy="21" fill="#fff" rx="5" ry="3.5" transform="rotate(-78.071 18.499 21)"/><ellipse cx="10.5" cy="21" fill="#fff" rx="2.5" ry="5"/><ellipse cx="15.431" cy="11.156" fill="#fff" rx="3.925" ry="2.747" transform="rotate(-69.47 15.431 11.156)"/><path fill="#90a4ae" d="M14.759,15.458c-0.301,0-0.597-0.053-0.88-0.159c-1.676-0.628-2.344-2.998-1.489-5.283 c0.857-2.284,2.91-3.634,4.594-3.004c0.844,0.316,1.457,1.062,1.725,2.101c0.251,0.975,0.168,2.104-0.235,3.181l0,0 c-0.403,1.077-1.083,1.984-1.912,2.554C15.973,15.252,15.354,15.458,14.759,15.458z M16.115,7.857c-1.045,0-2.231,1.025-2.789,2.51 c-0.65,1.739-0.236,3.568,0.904,3.996c0.526,0.197,1.156,0.078,1.764-0.339c0.662-0.455,1.21-1.193,1.541-2.08h0.001 c0.332-0.887,0.404-1.803,0.203-2.581c-0.184-0.713-0.577-1.216-1.106-1.414C16.467,7.887,16.293,7.857,16.115,7.857z"/><polygon fill="#ffe082" points="13,22 2,28 14,29"/><path fill="#00e5ff" d="M21.924,21.724c0.551-2.608-0.435-5.022-2.205-5.548C18.726,16.622,18,17.933,18,19.5 c0,1.933,1.097,3.5,2.45,3.5c0.463,0,0.89-0.194,1.259-0.512C21.793,22.242,21.868,21.989,21.924,21.724z"/><path fill="#00e5ff" d="M13,21c0-2.619-1.01-4.743-2.292-4.958C10.271,16.674,10,17.541,10,18.5c0,1.933,1.097,3.5,2.45,3.5 c0.172,0,0.339-0.026,0.501-0.074C12.98,21.625,13,21.318,13,21z"/><path fill="#212121" d="M16.108,33.397c-1.883,0-3.298-0.922-3.386-0.98c-0.229-0.153-0.291-0.462-0.139-0.692 c0.15-0.229,0.461-0.292,0.692-0.141c0.111,0.073,2.769,1.786,5.446,0.001c0.228-0.152,0.538-0.092,0.693,0.139 c0.153,0.229,0.091,0.54-0.139,0.693C18.175,33.152,17.079,33.397,16.108,33.397z"/><path fill="#ffcc80" d="M7.678,28.229c0.216,0.952,0.481,1.822,0.79,2.615L15.5,28.5L7.678,28.229z"/><path fill="#e57373" d="M27.687,12.119c0,0-2.969,2.802-7.042,1.396C21.687,14.578,24.604,16.452,27.687,12.119z"/><path fill="#e57373" d="M20.74,13.744c0,0,4.344,0.298,4.344-3.702c0,2-0.25,3.842-2.125,4.421 C22.958,14.463,21.302,14.275,20.74,13.744z"/><path fill="#e57373" d="M31.312,36.421c-2.728,1.438-6.561,2.125-8.073-2.688C23.556,38.546,27.266,39.921,31.312,36.421z"/><g><path fill="#e57373" d="M23.254,33.524c0,0,2.458,3.594,5.598,1.115c-1.57,1.239-3.171,2.185-4.787,1.072 C24.065,35.711,23.186,34.295,23.254,33.524z"/></g></svg>