<svg xmlns="http://www.w3.org/2000/svg"  viewBox="0 0 48 48" width="1600px" height="1600px"><path fill="#dce775" d="M20.658,1.672L0.817,29.304c-1.327,1.78-1.006,4.288,0.728,5.681 c13.046,10.482,31.419,10.886,44.903,0.01c1.734-1.398,2.065-3.904,0.735-5.686L27.341,1.672 C25.679-0.557,22.32-0.557,20.658,1.672z"/><rect width="6" height="8" x="21" y="37" fill="#00c853"/><path fill="#fff59d" d="M27.084,7h-6.168c-0.565,0-1.084,0.308-1.354,0.804l-5.329,9.77 c-0.151,0.278-0.214,0.595-0.179,0.909l1.854,19.683c0.058,0.52,0.375,0.976,0.843,1.21l6.559,3.28c0.434,0.217,0.946,0.217,1.38,0 l6.559-3.28c0.468-0.234,0.786-0.689,0.843-1.21l1.854-19.683c0.035-0.314-0.028-0.632-0.179-0.909l-5.329-9.77 C28.168,7.308,27.649,7,27.084,7z"/><path fill="#00e676" d="M33.107,29.04c-2.531-0.012-4.996-1.362-7.446-2.928c-1.014-0.648-2.307-0.648-3.321,0 c-2.45,1.567-4.914,2.916-7.446,2.928l1.014,9.126c0.058,0.52,0.375,0.976,0.843,1.21l6.559,3.28c0.434,0.217,0.946,0.217,1.38,0 l6.559-3.28c0.468-0.234,0.786-0.689,0.843-1.21L33.107,29.04z"/><path fill="#00e676" d="M24.659,13.621l2.693-3.129C27.883,9.874,27.37,9,26.476,9h-5.385c-0.894,0-1.407,0.874-0.876,1.491 l2.693,3.129C23.343,14.126,24.224,14.126,24.659,13.621z"/><ellipse cx="18.96" cy="21.06" fill="#fff" rx="4.085" ry="2.97" transform="rotate(-80.589 18.96 21.06)"/><ellipse cx="28.96" cy="21.06" fill="#fff" rx="2.97" ry="4.085" transform="rotate(-9.411 28.963 21.062)"/><ellipse cx="19" cy="20.5" fill="#00e676" rx="1" ry="1.5"/><ellipse cx="29" cy="20.5" fill="#00e676" rx="1" ry="1.5"/><path fill="#212121" d="M21,37.389c-0.161,0-0.319-0.078-0.416-0.223c-0.153-0.229-0.091-0.54,0.139-0.693 c3.241-2.162,6.421-0.089,6.555,0c0.229,0.153,0.291,0.462,0.139,0.692c-0.152,0.229-0.463,0.291-0.692,0.141 c-0.111-0.074-2.768-1.787-5.446-0.001C21.192,37.362,21.096,37.389,21,37.389z"/><path fill="#00e676" d="M21.5,16c-0.075,0-0.151-0.017-0.224-0.053C19.414,15.016,17.519,15,17.499,15 C17.224,14.999,17,14.776,17,14.499C17.001,14.224,17.224,14,17.5,14c0.087,0,2.142,0.012,4.224,1.053 c0.247,0.124,0.347,0.424,0.224,0.671C21.859,15.899,21.683,16,21.5,16z"/><path fill="#00e676" d="M26.5,16c-0.183,0-0.359-0.102-0.447-0.276c-0.123-0.247-0.023-0.547,0.224-0.671 C28.358,14.012,30.413,14,30.5,14c0.276,0,0.499,0.224,0.5,0.499c0,0.276-0.224,0.5-0.499,0.501c-0.02,0-1.915,0.016-3.777,0.947 C26.651,15.984,26.575,16,26.5,16z"/><path fill="#4caf50" d="M25.5,29h-3c-0.276,0-0.5-0.224-0.5-0.5s0.224-0.5,0.5-0.5h3c0.276,0,0.5,0.224,0.5,0.5 S25.776,29,25.5,29z"/></svg>