<svg xmlns="http://www.w3.org/2000/svg"  viewBox="0 0 48 48" width="1600px" height="1600px"><path fill="#f8bbd0" d="M43,22c0,0,4,6,4,23c-7,0-23,0-23,0l0.083-21.443L43,22z"/><circle cx="38.5" cy="20.5" r="8.5" fill="#f8bbd0"/><circle cx="34.5" cy="13.5" r="10.5" fill="#f8bbd0"/><path fill="#f8bbd0" d="M5,22c0,0-4,6-4,23c7,0,23,0,23,0l-0.083-21.443L5,22z"/><circle cx="24.5" cy="12.5" r="12.5" fill="#f8bbd0"/><circle cx="9.5" cy="20.5" r="8.5" fill="#f8bbd0"/><circle cx="13.5" cy="13.5" r="10.5" fill="#f8bbd0"/><ellipse cx="24" cy="29.941" fill="#ffebee" rx="14" ry="15.059"/><path fill="#f8bbd0" d="M23,16v3c0,0,1.333,5.598,6.333,6.598s7.625,5.167,5.625,7.167C37.333,34.265,40,33,41,31s3-6-2-13 S24,11,23,16z"/><path fill="#f8bbd0" d="M15.986,16.018c0,0-2.196,8.671,5.712,12.057c-0.428-1.954-0.093-5.098-0.093-5.098 s0.642,2.931,6.168,4.791c-0.428-1.954-1.833-3.693-1.712-7.815S23.159,11.376,15.986,16.018z"/><path fill="#f8bbd0" d="M21,20.435c0,0-12.627,6.823-6.09,18.224c-3.964-0.368-6.047-3.76-6.905-7.437 s0.818-13.117,10.053-17.856S21,20.435,21,20.435z"/><ellipse cx="24" cy="39" fill="#ffcdd2" rx="2" ry="3"/><path fill="#212121" d="M26.001,39.5c-0.021,0-0.042-0.001-0.063-0.004c-1.91-0.24-3.856-0.003-3.876,0 c-0.271,0.039-0.523-0.161-0.558-0.435s0.16-0.523,0.434-0.558c0.085-0.01,2.084-0.256,4.125,0 c0.273,0.034,0.468,0.284,0.434,0.559C26.465,39.316,26.249,39.5,26.001,39.5z"/><path fill="#8d6e63" d="M20.591,31.286c-1.85-0.761-3.497-0.765-5.184-0.011L15,30.914c0.693-0.612,1.77-1.207,3.008-1.195 c1.171,0.012,2.255,0.512,3.027,1.171L20.591,31.286z"/><path fill="#8d6e63" d="M32.591,31.286c-1.85-0.761-3.497-0.765-5.184-0.011L27,30.914c0.693-0.612,1.77-1.207,3.008-1.195 c1.171,0.012,2.255,0.512,3.027,1.171L32.591,31.286z"/><ellipse cx="24" cy="33.5" fill="#ffcdd2" rx="2" ry=".5"/><path fill="#f48fb1" d="M3.094,14.953c0,0,2.219-2.219,5.281-1.344C7.312,12.109,4.156,11.765,3,13.14L3.094,14.953z"/><path fill="#f48fb1" d="M16,3.328c0,0,2.75,0.812,3.937,3.75c-0.062-2.375-1.625-4.063-2.5-4.938 C16.875,2.64,16,3.328,16,3.328z"/><path fill="#f48fb1" d="M3.25,26.223c0,0,0.375-2.917,2.583-5.042c-1.917,1.083-3.083,2.5-3.708,3.625 C2.667,25.557,3.25,26.223,3.25,26.223z"/><path fill="#f48fb1" d="M44.885,14.953c0,0-2.219-2.219-5.281-1.344c1.063-1.5,4.219-1.844,5.375-0.469L44.885,14.953z"/><path fill="#f48fb1" d="M32.729,3.161c0,0-2.75,0.813-3.938,3.75c0.063-2.375,1.625-4.063,2.5-4.938 C31.854,2.473,32.729,3.161,32.729,3.161z"/><path fill="#f48fb1" d="M44.729,26.223c0,0-0.375-2.917-2.583-5.042c1.917,1.083,3.083,2.5,3.708,3.625 C45.313,25.557,44.729,26.223,44.729,26.223z"/><path fill="#f48fb1" d="M30.083,14.14c-1.917-0.333-4.583,1.083-5.25,4.083c-0.741,3.336,0.917,6.458,3.583,7.542 c3.833,1.557,8.833,4.792,6.5,6.958c0.635,0.025,2.3,0.016,2.521-0.646c0.563-1.688-1.076-4.328-4.344-6.094 c-6.594-3.563-6.603-4.129-6.469-7.719C26.75,14.932,30.083,14.14,30.083,14.14z"/><path fill="#f48fb1" d="M25,12c0,0-5.708-0.193-7.583,4.015s2.062,10.87,4.281,12.06c-2.906-0.977-7.948-6.143-6.156-12.31 C17.191,10.25,23.375,10.708,25,12z"/><path fill="#f48fb1" d="M11.75,15.348c-8.438,7.417-6.5,22.292,3.16,23.311c-0.66-1.394-1.16-2.394-1.16-2.394 C11.292,35.723,3.375,28.452,11.75,15.348z"/><path fill="#f48fb1" d="M36.875,14.848c3.875,4.479,5.687,16.229-0.5,16.792c-0.813,0.563-1.458,1.083-1.458,1.083 C40.625,36.765,47.333,24.243,36.875,14.848z"/><path fill="#f48fb1" d="M15.833,24.765c0,0-5.708,3.583-3.958,11.292c1.25,1.375,3.035,2.603,3.035,2.603 S10.792,31.89,15.833,24.765z"/></svg>