<svg xmlns="http://www.w3.org/2000/svg"  viewBox="0 0 48 48" width="1600px" height="1600px"><path fill="#880e4f" d="M34,21c0,0,5.5,3.765,8.417,8.155c1.625-0.64,2.625-1.64,2.625-1.64 C43.125,25.348,39.22,21.644,34,21z"/><path fill="#880e4f" d="M32.998,21.299c0,0,5.771,0.125,9.812,1.487c1.005-1.429,1.29-2.814,1.29-2.814 S37.723,19.383,32.998,21.299z"/><path fill="#424242" d="M7.568,17.678c0,0-6.996,10.058-6.277,16.215S5.377,44.5,20.585,40.435 C16.115,31.904,7.568,17.678,7.568,17.678z"/><rect width="9" height="8" x="19" y="37" fill="#ad1457"/><path fill="#d81b60" d="M8.591,13.821c0,0-1.409,14.103-0.737,18.495s1.717,7.807,8.537,7.949 c6.819,0.141,13.105-0.368,15.87-0.879s5.88-8.096,4.002-21.05C27.945,14.942,8.591,13.821,8.591,13.821z"/><path fill="#424242" d="M6.917,17.039c0,0-6.759-10.121,5.545-12.638s23.292,2.957,25.871,5.281 c2.578,2.324,3.867,7.006-1.955,10.99C33.516,17.423,13,16,6.917,17.039z"/><path fill="#424242" d="M30.928,18.985c0,0-0.425,13.036,1.467,18.856C33.875,42.39,35.614,43,37.714,43 c5.959,0,9.848-4.922,7.678-10c-1.713-4.009-10.305-12.922-10.305-12.922L30.928,18.985z"/><circle cx="13" cy="19" r="4" fill="#fff"/><circle cx="12" cy="20" r="1" fill="#212121"/><circle cx="26" cy="20" r="4" fill="#fff"/><path fill="#880e4f" d="M6.656,19.015c0,0,12.552-4.145,30,2.563c0.802-1.371,1.522-2.381,1.522-2.381 S22.031,11.89,6.365,16.094C6.771,17.813,6.656,19.015,6.656,19.015z"/><circle cx="25" cy="20" r="1" fill="#212121"/><path fill="#212121" d="M19.687,33.395c-3.258,0-5.705-0.869-5.857-0.925c-0.26-0.094-0.394-0.381-0.299-0.641 c0.094-0.26,0.38-0.393,0.641-0.299c0.053,0.02,5.404,1.913,10.658,0c0.262-0.095,0.547,0.039,0.641,0.299 c0.095,0.26-0.039,0.547-0.299,0.641C23.263,33.164,21.367,33.395,19.687,33.395z"/><ellipse cx="20" cy="23.5" fill="#212121" rx="1" ry=".5" transform="rotate(-20.244 19.998 23.499)"/><ellipse cx="17" cy="23.5" fill="#212121" rx=".5" ry="1" transform="rotate(-69.756 17.001 23.501)"/></svg>