<svg xmlns="http://www.w3.org/2000/svg"  viewBox="0 0 48 48" width="1600px" height="1600px"><path fill="#81d4fa" d="M24,2L24,2C14.059,2,6,10.059,6,20c0,11-4,10-4,25h44c0-11-4-15-4-25C42,10.059,33.941,2,24,2z"/><rect width="6" height="8" x="21" y="37" fill="#039be5"/><path fill="#039be5" d="M12,24v8.053c0,3.625,2.875,5.8,6.798,6.563c3.494,0.495,6.964,0.528,10.403,0 C32.875,37.974,36,35.678,36,32.053V24H12z"/><path fill="#01579b" d="M26.591,29.286c-1.85-0.761-3.497-0.765-5.184-0.011L21,28.914c0.693-0.612,1.77-1.207,3.008-1.195 c1.171,0.012,2.255,0.512,3.027,1.171L26.591,29.286z"/><path fill="#01579b" d="M21.444,33.719c1.85,0.761,3.497,0.765,5.184,0.011l0.408,0.362 c-0.693,0.612-1.77,1.207-3.008,1.195c-1.171-0.012-2.255-0.512-3.027-1.171L21.444,33.719z"/><path fill="#212121" d="M25.5,32h-3c-0.276,0-0.5-0.224-0.5-0.5s0.224-0.5,0.5-0.5h3c0.276,0,0.5,0.224,0.5,0.5 S25.776,32,25.5,32z"/><circle cx="15" cy="21" r="5" fill="#81d4fa"/><circle cx="21" cy="21" r="5" fill="#81d4fa"/><circle cx="27" cy="21" r="5" fill="#81d4fa"/><circle cx="33" cy="21" r="5" fill="#81d4fa"/><circle cx="10.042" cy="19.958" r="6.042" fill="#81d4fa"/><path fill="#01579b" d="M35,18c0,0,1,5,5,5c-1,2-6.063,4.671-10.083,2.057c-1.417,1.24-3.708,1.667-5.917-0.042 c-1.333,0.75-2.688,2-6.042,0c-1,0.792-4.25,2.083-6.667-0.5c0,0,2.958,1.25,6.708-1.417c1.875,1.208,3.042,1.667,6-0.042 c2.292,1.625,3.125,1.667,5.917,0.167c2.427,1.479,4.771,1.76,6.99,0.417C36.198,23.39,34.625,20.64,35,18z"/></svg>