<svg xmlns="http://www.w3.org/2000/svg"  viewBox="0 0 48 48" width="1600px" height="1600px"><path fill="#ffccbc" d="M11,21c0,0-0.999,2-1,3c-2,0-8,0-8,10c0,0,0,11,15,11s21-10,21-10s2-3,2-5s-4-19-18-19S11,21,11,21z"/><path fill="#5d4037" d="M29,40c0,0,2,2,7,2c8,0,7-10,7-10s3-1,3-6s-4-6-4-6c2-2,2-5,2-5c0-5.779-4-8-9-8c-2,0-4,1-4,1 c-2-5-8-5-8-5c-3,0-7,2-7,6c-3,0-8,2-8,7c0,4,3,5,3,5s2-8,10-8s10,6,10,11c-3.001,1-3,3-3,4c0,0,0,2,2,2s2-3,5-3s3,4,3,4s0,5-5,5 c-2,0-2-1-2-1S29,37,29,40z"/><path fill="#ef5350" d="M27,34c0-1.267-0.303-2.232-0.809-2.96C24.854,31.215,23.163,31.519,21,32 c-8.194,1.821-7.27,7.784-7.039,8.838C14.647,40.943,15.333,41,16,41C21,41,27,38,27,34z"/><path fill="#fff" d="M26.362,31.322C25.325,29.528,23.165,29,21,29c-3,0-3,1-6,1c-1.762,0-1.974-1.551-4.05-1.92 C10.749,28.403,10,29.7,10,31c0,1.5,1,3,3,3c4,0,3,1,6,1s3-2,5-2C25.079,33,25.865,32.127,26.362,31.322z"/><path fill="#212121" d="M16.005 34.364C15.426 34.167 14.63 34 13 34c-2 0-3-1.5-3-3 0-1.3.749-2.597.95-2.92.25.044.47.108.672.182C11.193 28.104 10.675 28 10 28c0 0-5 0-5 5 0 4.333 4.505 7.158 8.961 7.836C13.795 40.08 13.297 36.826 16.005 34.364zM18.5 17c-.632 0-1.031-1-2.001-1-.18 0-.658.286-.946.567-.59.576-1.539.571-2.119-.017-.579-.587-.58-1.528.003-2.111.24-.24 1.518-1.439 3.061-1.439C19.268 13 20 14.635 20 15.5 20 16.329 19.328 17 18.5 17zM27.643 19c-.552 0-1.071-.368-1.273-.964-.127-.36-.375-.687-.525-.755C25.033 16.912 24.612 17 24.031 17c-1.031 0-1.22-.996-.906-1.734.327-.771 1.55-1.927 3.822-.788 1.268.634 1.862 2.228 1.969 2.541.259.763-.101 1.609-.804 1.89C27.957 18.971 27.799 19 27.643 19zM25.589 16.499c0 .001 0 .002-.001.003C25.589 16.501 25.589 16.5 25.589 16.499z"/><path fill="#fff" d="M15.5 19.348A4.749 3.152 0 1 0 15.5 25.652A4.749 3.152 0 1 0 15.5 19.348Z" transform="rotate(-64.647 15.5 22.5)"/><path fill="#fff" d="M23.5 20.348A4.749 3.152 0 1 0 23.5 26.652A4.749 3.152 0 1 0 23.5 20.348Z" transform="rotate(-64.647 23.5 23.5)"/><path fill="#212121" d="M23 22.58A1.55 0.92 0 1 0 23 24.42A1.55 0.92 0 1 0 23 22.58Z" transform="rotate(-71.663 23 23.5)"/><path fill="#212121" d="M15 21.58A1.55 0.92 0 1 0 15 23.42A1.55 0.92 0 1 0 15 21.58Z" transform="rotate(-71.663 15 22.5)"/><path fill="#ffccbc" d="M17 24A2 2 0 1 0 17 28A2 2 0 1 0 17 24Z"/></svg>