<svg xmlns="http://www.w3.org/2000/svg"  viewBox="0 0 48 48" width="1600px" height="1600px"><path fill="#455a64" d="M6,13.5C6,9.358,9.358,6,13.5,6h21c4.142,0,7.5,3.358,7.5,7.5v21c0,4.142-3.358,7.5-7.5,7.5h-21 C9.358,42,6,38.642,6,34.5V13.5z M11.577,15.149c-0.58,0.191-0.58,1.011,0,1.202c1.336,0.439,2.383,1.487,2.822,2.822 c0.191,0.58,1.011,0.58,1.202,0c0.439-1.336,1.487-2.383,2.822-2.822c0.58-0.191,0.58-1.011,0-1.202 c-1.336-0.439-2.383-1.487-2.822-2.822c-0.191-0.58-1.011-0.58-1.202,0C13.96,13.662,12.912,14.71,11.577,15.149z M29.962,14.166 c-0.226-0.687-1.199-0.687-1.425,0l-1.058,3.216c-0.521,1.584-1.763,2.826-3.347,3.347l-3.216,1.058 c-0.688,0.226-0.688,1.199,0,1.425l3.216,1.058c1.584,0.521,2.826,1.763,3.347,3.347l1.058,3.216c0.226,0.688,1.199,0.688,1.425,0 l1.058-3.216c0.521-1.584,1.763-2.826,3.347-3.347l3.216-1.058c0.688-0.226,0.688-1.199,0-1.425l-3.216-1.058 c-1.584-0.521-2.826-1.763-3.347-3.347L29.962,14.166z M18.712,27.666c-0.226-0.687-1.199-0.687-1.425,0l-0.13,0.394 c-0.521,1.584-1.763,2.826-3.347,3.347l-0.394,0.13c-0.688,0.226-0.688,1.199,0,1.425l0.394,0.13 c1.584,0.521,2.826,1.763,3.347,3.347l0.13,0.395c0.226,0.688,1.199,0.688,1.425,0l0.13-0.395c0.521-1.584,1.763-2.826,3.347-3.347 l0.394-0.13c0.688-0.226,0.688-1.199,0-1.425l-0.394-0.13c-1.584-0.521-2.826-1.763-3.347-3.347L18.712,27.666z"/></svg>