<svg xmlns="http://www.w3.org/2000/svg"  viewBox="0 0 48 48" width="1600px" height="1600px" baseProfile="basic"><path fill="#455a64" d="M13.5,6h21c4.142,0,7.5,3.358,7.5,7.5v21c0,4.142-3.358,7.5-7.5,7.5h-21C9.358,42,6,38.642,6,34.5	v-21C6,9.358,9.358,6,13.5,6z"/><path fill="#fff" d="M24.072,11.499c-0.331,0-0.649,0.132-0.884,0.366c-0.234,0.234-0.366,0.552-0.366,0.884	c0,0.332,0.132,0.649,0.366,0.884c0.234,0.234,0.552,0.366,0.884,0.366c0.332,0,0.65-0.132,0.884-0.366	c0.234-0.234,0.366-0.552,0.366-0.884c0-0.332-0.132-0.649-0.366-0.884C24.722,11.631,24.404,11.499,24.072,11.499z M29.072,11.499	c-0.331,0-0.649,0.132-0.884,0.366c-0.234,0.234-0.366,0.552-0.366,0.884v5.625c0,0.16,0.062,0.319,0.183,0.442	c0.244,0.244,0.64,0.244,0.884,0l2.068-2.068c1.917,1.82,3.115,4.391,3.115,7.251c-0.002,0.166,0.028,0.33,0.09,0.484	c0.062,0.154,0.153,0.294,0.27,0.412c0.116,0.118,0.255,0.212,0.408,0.276c0.153,0.064,0.317,0.097,0.483,0.097	c0.166,0,0.33-0.033,0.483-0.097c0.153-0.064,0.291-0.158,0.408-0.276c0.116-0.118,0.208-0.258,0.27-0.412	c0.062-0.154,0.092-0.318,0.09-0.484c0-2.181-0.579-4.223-1.567-6.008c-0.041-0.125-0.101-0.243-0.178-0.349	c-0.582-0.978-1.299-1.864-2.117-2.646l2.429-2.429c0.244-0.244,0.244-0.64,0-0.884c-0.121-0.123-0.282-0.183-0.442-0.183H29.072z M18.447,13.005c-0.332,0-0.649,0.132-0.884,0.366c-0.234,0.234-0.366,0.552-0.366,0.884c0,0.332,0.132,0.649,0.366,0.884	c0.234,0.234,0.552,0.366,0.884,0.366c0.332,0,0.649-0.132,0.884-0.366c0.234-0.234,0.366-0.552,0.366-0.884	c0-0.332-0.132-0.649-0.366-0.884C19.096,13.137,18.779,13.005,18.447,13.005z M14.328,17.124c-0.332,0-0.649,0.132-0.884,0.366	c-0.234,0.234-0.366,0.552-0.366,0.884c0,0.332,0.132,0.649,0.366,0.884c0.234,0.234,0.552,0.366,0.884,0.366	c0.332,0,0.649-0.132,0.884-0.366c0.234-0.234,0.366-0.552,0.366-0.884c0-0.332-0.132-0.649-0.366-0.884	C14.978,17.256,14.66,17.124,14.328,17.124z M12.802,22.732c-0.331,0.005-0.647,0.142-0.877,0.379	c-0.231,0.238-0.358,0.557-0.353,0.888c0,2.181,0.579,4.223,1.567,6.008c0.044,0.135,0.11,0.261,0.195,0.374	c0.579,0.968,1.289,1.846,2.1,2.622l-2.429,2.429c-0.244,0.244-0.244,0.64,0,0.884c0.121,0.123,0.282,0.183,0.442,0.183h5.625	c0.332,0,0.649-0.132,0.884-0.366s0.366-0.552,0.366-0.884v-5.625c0-0.16-0.062-0.319-0.183-0.442c-0.244-0.244-0.64-0.244-0.884,0	l-2.068,2.068c-1.917-1.82-3.115-4.391-3.115-7.251c0.002-0.167-0.029-0.333-0.092-0.488c-0.063-0.155-0.156-0.296-0.275-0.414	c-0.118-0.118-0.259-0.211-0.414-0.274C13.136,22.76,12.97,22.729,12.802,22.732z M33.816,28.374c-0.332,0-0.65,0.132-0.884,0.366	c-0.234,0.234-0.366,0.552-0.366,0.884c0,0.332,0.132,0.65,0.366,0.884c0.234,0.234,0.552,0.366,0.884,0.366	c0.331,0,0.649-0.132,0.884-0.366c0.234-0.234,0.366-0.552,0.366-0.884c0-0.331-0.132-0.649-0.366-0.884	C34.465,28.506,34.147,28.374,33.816,28.374z M29.697,32.493c-0.331,0-0.649,0.132-0.884,0.366	c-0.234,0.234-0.366,0.552-0.366,0.884s0.132,0.65,0.366,0.884c0.234,0.234,0.552,0.366,0.884,0.366	c0.332,0,0.649-0.132,0.884-0.366c0.234-0.234,0.366-0.552,0.366-0.884s-0.132-0.65-0.366-0.884	C30.347,32.624,30.029,32.493,29.697,32.493z M24.072,33.999c-0.331,0-0.649,0.132-0.884,0.366	c-0.234,0.234-0.366,0.552-0.366,0.884c0,0.332,0.132,0.65,0.366,0.884c0.234,0.234,0.552,0.366,0.884,0.366	c0.332,0,0.65-0.132,0.884-0.366c0.234-0.234,0.366-0.552,0.366-0.884c0-0.332-0.132-0.649-0.366-0.884	C24.722,34.131,24.404,33.999,24.072,33.999z"/></svg>