<svg xmlns="http://www.w3.org/2000/svg"  viewBox="0 0 48 48" width="1600px" height="1600px" clip-rule="evenodd"><path fill="#536dfe" d="M6,13.5C6,9.358,9.358,6,13.5,6h21c4.142,0,7.5,3.358,7.5,7.5v21c0,4.142-3.358,7.5-7.5,7.5h-21 C9.358,42,6,38.642,6,34.5V13.5z"/><path fill="#fff" fill-rule="evenodd" d="M22.925,11.486c0.809-0.18,1.61,0.33,1.79,1.139l3,13.5 c0.099,0.444-0.01,0.909-0.294,1.264c-0.285,0.355-0.715,0.561-1.17,0.561H21c-0.828,0-1.5-0.672-1.5-1.5s0.672-1.5,1.5-1.5h3.38 l-2.594-11.675C21.606,12.467,22.116,11.666,22.925,11.486z M15,16.7c0-0.828-0.672-1.5-1.5-1.5S12,15.872,12,16.7v4.5 c0,0.828,0.672,1.5,1.5,1.5s1.5-0.672,1.5-1.5V16.7z M36,16.7c0-0.828-0.672-1.5-1.5-1.5S33,15.872,33,16.7v4.5 c0,0.828,0.672,1.5,1.5,1.5s1.5-0.672,1.5-1.5V16.7z M35.993,27.801c-0.082-0.824-0.817-1.426-1.642-1.343 c-0.82,0.082-1.419,0.809-1.345,1.628l0.001,0.024c0.002,0.028,0.003,0.08,0.003,0.152c-0.001,0.145-0.012,0.366-0.052,0.638 c-0.082,0.547-0.282,1.267-0.747,1.983c-0.87,1.338-2.945,3.068-8.211,3.068c-0.828,0-1.5,0.672-1.5,1.5s0.672,1.5,1.5,1.5 c5.984,0,9.159-2.021,10.726-4.432c0.754-1.159,1.069-2.313,1.199-3.173c0.065-0.431,0.083-0.796,0.085-1.061 c0.001-0.133-0.002-0.242-0.006-0.324c-0.002-0.041-0.004-0.075-0.006-0.101l-0.003-0.034l-0.001-0.013l-0.001-0.005l0-0.002 C35.993,27.802,35.993,27.801,35.993,27.801z" clip-rule="evenodd"/></svg>