<svg xmlns="http://www.w3.org/2000/svg"  viewBox="0 0 48 48" width="1600px" height="1600px" clip-rule="evenodd"><path fill="#2196f3" d="M5.761,13.5c0-4.142,3.358-7.5,7.5-7.5h20.978c4.142,0,7.5,3.358,7.5,7.5v20.978 c0,4.142-3.358,7.5-7.5,7.5H13.261c-4.142,0-7.5-3.358-7.5-7.5V13.5z"/><path fill="#fff" fill-rule="evenodd" d="M14.011,14H24v19.978h-9.989V14z M24,33.979l9.989-9.989v9.989 H24z M33.989,17.747c-1.735-0.644-3.102-2.011-3.746-3.746c-0.644,1.734-2.012,3.102-3.746,3.746 c1.734,0.645,3.101,2.012,3.746,3.746C30.887,19.759,32.255,18.391,33.989,17.747z" clip-rule="evenodd"/></svg>