<svg xmlns="http://www.w3.org/2000/svg"  viewBox="0 0 48 48" width="1600px" height="1600px"><path fill="#fff176" d="M6,13.5C6,9.358,9.358,6,13.5,6h21c4.142,0,7.5,3.358,7.5,7.5v21c0,4.142-3.358,7.5-7.5,7.5h-21 C9.358,42,6,38.642,6,34.5V13.5z"/><path fill="#880e4f" d="M10.5,33h8.753v-5.22c0-0.612,0.09-1.152,0.314-1.656c0.202-0.468,0.494-0.72,0.898-0.72 c0.539,0.072,0.898,0.792,1.077,2.088c0.045,0.504,0.067,2.34,0.067,5.508h6.8v-5.22c0-0.612,0.09-1.152,0.314-1.656 c0.202-0.468,0.494-0.72,0.898-0.72c0.539,0.072,0.898,0.792,1.077,2.088c0.045,0.504,0.067,2.34,0.067,5.508H37.5v-9.9 c0-2.664-0.292-4.68-0.875-6.048C36.041,15.684,34.986,15,33.438,15c-1.369,0-2.491,0.684-3.344,1.98 c-0.853,1.296-1.414,3.06-1.661,5.22c-0.045-2.34-0.359-4.14-0.965-5.364C26.862,15.612,25.829,15,24.37,15 c-1.616,0-2.873,0.9-3.748,2.664c-0.875,1.764-1.347,4.176-1.414,7.236h-6.958v-1.08c0.898,0,1.661-0.036,2.244-0.108 c0.584-0.072,1.19-0.252,1.863-0.54c0.673-0.288,1.19-0.684,1.571-1.224c0.359-0.54,0.673-1.296,0.943-2.304 c0.247-0.972,0.382-2.16,0.382-3.564H10.5V33z"/></svg>