<svg xmlns="http://www.w3.org/2000/svg"  viewBox="0 0 48 48" width="1600px" height="1600px" clip-rule="evenodd"><path fill="#ffd180" d="M6,13.5C6,9.358,9.358,6,13.5,6h21c4.142,0,7.5,3.358,7.5,7.5v21c0,4.142-3.358,7.5-7.5,7.5h-21 C9.358,42,6,38.642,6,34.5V13.5z"/><path fill="#212121" fill-rule="evenodd" d="M13,22.5c0-4.142,3.358-7.5,7.5-7.5s7.5,3.358,7.5,7.5v3 c0,4.142-3.358,7.5-7.5,7.5S13,29.642,13,25.5V22.5z M25,22.5v3c0,2.485-2.015,4.5-4.5,4.5c-2.485,0-4.5-2.015-4.5-4.5v-3 c0-2.485,2.015-4.5,4.5-4.5C22.985,18,25,20.015,25,22.5z" clip-rule="evenodd"/><path fill="#212121" d="M31,16.5c0-0.828,0.672-1.5,1.5-1.5c0.828,0,1.5,0.672,1.5,1.5v9c0,0.828-0.672,1.5-1.5,1.5 c-0.828,0-1.5-0.672-1.5-1.5V16.5z"/><path fill="#212121" d="M32.5,30c-0.828,0-1.5,0.672-1.5,1.5s0.672,1.5,1.5,1.5c0.828,0,1.5-0.672,1.5-1.5 S33.328,30,32.5,30z"/></svg>