<svg xmlns="http://www.w3.org/2000/svg"  viewBox="0 0 48 48" width="1600px" height="1600px"><path fill="#424242" d="M33,5c0,0-1.696,5-9,5c-7.304,0-9-5-9-5C8.195,8.431,3,15.349,3,23.413c0,11.455,9.402,20.74,21,20.74c11.598,0,21-9.286,21-20.74C45,15.349,39.805,8.431,33,5z"/><path fill="#ffe082" d="M29.909,16.267C27.691,17.536,24,20,24,20s-3.691-2.464-5.909-3.733c-0.589-0.337-1.31-0.362-1.904-0.034C10.689,19.272,8,23.833,8,29.569c0,8.607,7.163,15.584,16,15.584c8.837,0,16-6.977,16-15.584c0-5.736-2.689-10.298-8.188-13.336C31.219,15.905,30.497,15.93,29.909,16.267z"/><path fill="#ffe082" d="M24,45.153c-12.131,0-22-9.753-22-21.741C2,15.529,6.926,7.951,14.55,4.107c0.259-0.13,0.562-0.142,0.829-0.032c0.268,0.109,0.475,0.33,0.568,0.604C16.007,4.849,17.557,9,24,9c6.512,0,8.038-4.278,8.053-4.321c0.093-0.274,0.3-0.495,0.568-0.604c0.269-0.109,0.572-0.098,0.829,0.032C41.074,7.951,46,15.529,46,23.413C46,35.4,36.131,45.153,24,45.153z M14.561,6.367C8.114,9.996,4,16.585,4,23.413c0,10.885,8.972,19.741,20,19.741s20-8.855,20-19.741c0-6.827-4.114-13.417-10.561-17.045C32.461,8.011,29.875,11,24,11S15.539,8.011,14.561,6.367z"/><path fill="#424242" d="M38 29.42c0 .91-.1 1.78-.28 2.58 0 0-1.7-1.11-4.22-1.11-2.48 0-4.22 1.11-4.22 1.11-.12-.55-.21-1.13-.25-1.73L33 28l-3.52-1.9c.73-2.43 2.26-4.1 4.02-4.1C35.99 22 38 25.32 38 29.42zM32.623 36.318c-.935-1.996-3.321-2.861-5.318-1.927-1.643.768-4.977.764-6.605-.007-1.993-.941-4.382-.086-5.326 1.905-.943 1.994-.089 4.384 1.905 5.327C19.166 42.508 21.556 43 24.009 43c2.433 0 4.808-.484 6.686-1.363C32.693 40.702 33.558 38.316 32.623 36.318zM21 36.592c.618.164 1.294.277 2 .33v4.029c-.684-.042-1.357-.115-2-.239V36.592zM27 40.716c-.643.124-1.316.195-2 .237v-4.028c.706-.052 1.382-.163 2-.326V40.716zM17.181 37.145C17.523 36.424 18.244 36 18.994 36c.002 0 .004.001.006.001v4.147c-.295-.109-.595-.212-.866-.34C17.137 39.336 16.71 38.142 17.181 37.145zM29.848 39.825c-.265.124-.56.224-.848.33v-4.135c.752.002 1.473.422 1.812 1.146C31.279 38.165 30.846 39.358 29.848 39.825zM19 29.42c0 .91-.1 1.78-.28 2.58 0 0-1.7-1.11-4.22-1.11-2.48 0-4.22 1.11-4.22 1.11-.12-.55-.21-1.13-.25-1.73L14 28l-3.52-1.9c.73-2.43 2.26-4.1 4.02-4.1C16.99 22 19 25.32 19 29.42z"/></svg>