<svg xmlns="http://www.w3.org/2000/svg"  viewBox="0 0 48 48" width="1600px" height="1600px"><path fill="#ab47bc" d="M37,42H13c-0.6,0-1-0.4-1-1c0-0.3,0.1-0.6,0.4-0.8c0.3-0.7,0.8-3.5,1.2-6c0.3-1.6,0.6-3.5,1-5.3 c-0.4,0.1-0.8,0.3-1.2,0.4C12.2,29.7,11,30,10,30c-0.5,0-1-0.1-1.3-0.4C8.4,29.4,8,29,8,28.2c0-1.9,2.7-3.6,5-5.1 c1.4-0.9,3.2-2.3,3.4-3c0-0.1,0.1-0.1,0.1-0.2C19.2,8.7,21.7,4,24.9,4c2.9,0,5.3,4,7.7,13c2-0.6,3-2.3,3.5-3.3 C36.5,13,37.1,12,38,12c0.4,0,2,0.3,2,3c0,3.1-2.8,7.8-5.5,9.6c0.6,2.7,1.1,5.5,1.6,8c0.6,3.1,1.2,6.7,1.6,7.5 c0.2,0.2,0.4,0.5,0.4,0.8C38,41.6,37.6,42,37,42z"/><path fill="#558b2f" d="M25,31c2.8,0,5,1.3,5,3s-2.2,3-5,3s-5-1.3-5-3S22.2,31,25,31z M25,22c2.2,0,4,1.1,4,2.5 S27.2,27,25,27s-4-1.1-4-2.5S22.8,22,25,22z M25,14c1.7,0,3,0.9,3,2s-1.3,2-3,2s-3-0.9-3-2S23.3,14,25,14z"/><path fill="#6a1b9a" d="M40,15c0,3.1-2.8,7.8-5.5,9.6L33,19C33,19,37.8,20.6,40,15z M16,23c0,0-6.1,8.2-8,5c0,0,0,0.1,0,0.1 c0,0.8,0.4,1.2,0.7,1.5C9,29.9,9.5,30,10,30c1,0,2.2-0.3,3.3-0.6c0.4-0.1,0.8-0.3,1.2-0.4L16,23z"/><path fill="#8bc34a" d="M25,38c-3.4,0-6-1.8-6-4s2.6-4,6-4s6,1.8,6,4S28.4,38,25,38z M25,32c-2.3,0-4,1.1-4,2s1.7,2,4,2 s4-1.1,4-2S27.3,32,25,32z M25,28c-2.8,0-5-1.5-5-3.5s2.2-3.5,5-3.5s5,1.5,5,3.5S27.8,28,25,28z M25,23c-1.7,0-3,0.8-3,1.5 s1.3,1.5,3,1.5s3-0.8,3-1.5S26.7,23,25,23z M25,19c-2.2,0-4-1.3-4-3s1.8-3,4-3s4,1.3,4,3S27.2,19,25,19z M25,15c-1.2,0-2,0.6-2,1 s0.8,1,2,1s2-0.6,2-1S26.2,15,25,15z M40,42c0-1.1-0.9-2-2-2H12c-1.1,0-2,0.9-2,2s0.9,2,2,2h26C39.1,44,40,43.1,40,42z"/><path d="M20,15c-0.2,0-0.3,0-0.5-0.1c-0.5-0.3-0.6-0.9-0.4-1.4c0.5-0.9,1.6-2.5,2.9-2.5c1.4,0,2.1,0.5,2.6,0.8 c0.2,0.1,0.3,0.2,0.4,0.2c0.1,0,0.2-0.1,0.4-0.2c0.5-0.3,1.2-0.8,2.6-0.8c1.3,0,2.3,1.6,2.9,2.5c0.3,0.5,0.1,1.1-0.4,1.4 c-0.5,0.3-1.1,0.1-1.4-0.4c-0.4-0.6-0.9-1.3-1.2-1.5c-0.7,0-1.1,0.2-1.5,0.5C26.1,13.7,25.6,14,25,14c-0.6,0-1.1-0.3-1.5-0.5 c-0.4-0.2-0.7-0.5-1.5-0.5c-0.3,0.1-0.8,0.8-1.2,1.5C20.7,14.8,20.3,15,20,15z M22.1,13L22.1,13z M27.9,13L27.9,13L27.9,13z"/></svg>