<svg xmlns="http://www.w3.org/2000/svg"  viewBox="0 0 48 48" width="1600px" height="1600px"><path fill="#616161" d="M39,24.846H9v-5.115C9,13.252,14.252,8,20.731,8h6.537C33.748,8,39,13.252,39,19.731V24.846z"/><path fill="#ffab91" d="M24,42L24,42c-7.732,0-14-6.268-14-14v-7.573C10,14.668,14.668,10,20.427,10h7.147	C33.332,10,38,14.668,38,20.427V28C38,35.732,31.732,42,24,42z"/><path fill="#eee" d="M26,42h-4c-6.627,0-12-5.373-12-12v-4h28v4C38,36.627,32.627,42,26,42z"/><rect width="2" height="7" x="18" y="34" fill="#cfd8dc"/><rect width="2" height="7" x="23" y="34" fill="#cfd8dc"/><rect width="2" height="7" x="28" y="34" fill="#cfd8dc"/><path fill="#ffab91" d="M36,28v2c0,5.514-4.486,10-10,10h-4c-5.514,0-10-4.486-10-10v-2H36 M38,26H10v4	c0,6.627,5.373,12,12,12h4c6.627,0,12-5.373,12-12V26L38,26z"/><rect width="7" height="2" x="10.07" y="7.616" fill="#4caf50" transform="rotate(-30 13.57 8.617)"/><rect width="11.384" height="4" x="9.378" y="9.214" fill="#424242" transform="rotate(-30 15.07 11.215)"/><rect width="7" height="2" x="30.93" y="7.616" fill="#4caf50" transform="rotate(-150 34.43 8.616)"/><rect width="11.384" height="4" x="27.237" y="9.214" fill="#424242" transform="rotate(-150 32.93 11.214)"/><path fill="#ffccbc" d="M24.343,22.499c-1.479,0-3.288-0.514-4.397-1.25C18.841,20.518,17.984,20,17,20 c-0.778,0-1.532,0.224-2.181,0.646c-0.694,0.45-1.624,0.257-2.076-0.438c-0.453-0.694-0.257-1.623,0.437-2.076 C14.318,17.392,15.639,17,17,17c1.963,0,3.489,1.011,4.603,1.749c0.547,0.362,1.778,0.75,2.74,0.75c0.56,0,1.533-0.387,1.997-0.719 c1.23-0.88,2.743-1.779,4.647-1.779c1.361,0,2.682,0.392,3.819,1.133c0.694,0.453,0.89,1.382,0.437,2.076 c-0.452,0.693-1.382,0.891-2.076,0.438c-0.648-0.423-1.402-0.646-2.181-0.646c-1.053,0-2.017,0.586-2.901,1.219 C27.368,21.733,25.779,22.499,24.343,22.499z"/><path fill="#ef6c00" d="M24,34c4.552,0.32,7.568,3.909,11,4h3l-1-3l4-1l5-1l-5-3l6-3l-4-2l4-10l-6,3l-3,1	c-0.619,3.257-2.277,5.17-4,7l-10,1.258V34z"/><path fill="#e65100" d="M27,32c0,0,3.333-2.167,7-2s11,3,11,3l-8,2C33.667,33.333,30.333,32.333,27,32z"/><path fill="#e65100" d="M47,15c-3.268,6.013-6.788,10.964-11,13c2.333,0.667,4,1.333,5,2l6-3l-4-2L47,15L47,15z"/><path fill="#ef6c00" d="M24,34c-4.552,0.32-7.568,3.909-11,4h-3l1-3l-4-1l-5-1l5-3l-6-3l4-2L1,15l6,3l3,1	c0.619,3.257,2.277,5.17,4,7l10,1.258V34z"/><path fill="#e65100" d="M21,32c0,0-3.333-2.167-7-2S3,33,3,33l8,2C14.333,33.333,17.667,32.333,21,32z"/><path fill="#e65100" d="M1,15c3.268,6.013,6.788,10.964,11,13c-2.333,0.667-4,1.333-5,2l-6-3l4-2L1,15L1,15z"/><path fill="#ff8a65" d="M22.475,32.203L18,26.929l3.697-4.269c1.215-1.403,3.391-1.403,4.606,0L30,26.929l-4.475,5.274	C24.726,33.144,23.274,33.144,22.475,32.203z"/><path fill="#607d8b" d="M28.629,23.929c-3.115-1.246-6.143-1.246-9.258,0l-0.742-1.857c3.563-1.426,7.179-1.426,10.742,0 L28.629,23.929z"/><circle cx="17" cy="24" r="4" fill="#2e3192"/><path fill="#2e3192" d="M20.44,26.02c-0.33,0.59-0.83,1.09-1.42,1.42l-5.46-5.46c0.33-0.59,0.83-1.09,1.42-1.42L20.44,26.02z"/><path fill="#c5cae9" d="M20.44,26.02c-0.33,0.59-0.83,1.09-1.42,1.42l-5.46-5.46c0.33-0.59,0.83-1.09,1.42-1.42L20.44,26.02 z"/><circle cx="31" cy="24" r="4" fill="#2e3192"/><path fill="#c5cae9" d="M34.44,26.02c-0.33,0.59-0.83,1.09-1.42,1.42l-5.46-5.46c0.33-0.59,0.83-1.09,1.42-1.42L34.44,26.02 z"/></svg>