<svg xmlns="http://www.w3.org/2000/svg"  viewBox="0 0 48 48" width="1600px" height="1600px"><path fill="#8d6e63" d="M26.624,28.5c0,3.59,2.91,6.5,6.5,6.5c4.697,0,6.437-5.026,5.716-7.639 c-0.512-1.857-1.643-1.625-2.233-3.68C36.114,21.966,35.049,22,33.124,22C29.535,22,26.624,24.91,26.624,28.5z"/><path fill="#8d6e63" d="M21.372,28.5c0,3.59-2.91,6.5-6.5,6.5c-4.697,0-6.437-5.026-5.716-7.639 c0.512-1.857,1.643-1.625,2.233-3.68C11.883,21.966,12.947,22,14.872,22C18.462,22,21.372,24.91,21.372,28.5z"/><circle cx="24" cy="23" r="13" fill="#8d6e63"/><path fill="#8d6e63" d="M35.713,34c0.979,5,0,11-11.745,11c-10.766,0-12.724-5-11.745-11c1.155-7.082,4.718-15,11.745-15 S34.335,26.96,35.713,34z"/><circle cx="19.5" cy="23.5" r="3.5" fill="#424242"/><path fill="#424242" d="M24,34.593c-5.555,0-8.023-0.633-9.12-1.187C14.027,32.976,14.004,34,14.004,34 c0,5.482,7.201,5,9.996,5c2.795,0,10,0.52,10-5c0,0-0.031-0.914-1.268-0.418C31.476,34.086,28.976,34.593,24,34.593z"/><circle cx="19.5" cy="23.5" r="2.5" fill="#fff"/><path fill="#8d6e63" d="M34.37,14.807c-0.072,1.105,0.562,1.981,0.576,2.138l1.105,2.234c0.95,1.9,2.214,1.825,3.477,1.825 c2.227,0,4.473-2.006,4.473-5.512c0-2.812-1.93-4.491-4.816-4.491C36.299,11,34.557,11.927,34.37,14.807z"/><path fill="#424242" d="M33,12H15v-1c0-1.105,0.895-2,2-2h14c1.105,0,2,0.895,2,2V12z"/><path fill="#424242" d="M23.673,2.295c-6,0-7,1-7,1s1,2,1,7h12c0-5,1-7,1-7S29.673,2.295,23.673,2.295z"/><path fill="#8d6e63" d="M13.623,14.807c0.072,1.105-0.562,1.981-0.576,2.138l-1.105,2.234 c-0.95,1.9-2.214,1.825-3.477,1.825c-2.227,0-4.473-2.006-4.473-5.512C3.991,12.68,5.921,11,8.807,11S13.435,11.927,13.623,14.807z"/><path fill="#bcaaa4" d="M6.189,14.181c0.374-0.73,1.746-1.65,4.129-0.907c2.106,0.657,1.425,2.437,0.649,3.78 c-0.788,1.364-1.445,2.879-3.408,1.221C5.831,16.814,5.814,14.911,6.189,14.181z"/><path fill="#bcaaa4" d="M41.789,14.181c-0.374-0.73-1.744-1.65-4.125-0.907c-2.104,0.657-1.424,2.437-0.649,3.78 c0.787,1.364,1.443,2.879,3.405,1.221C42.146,16.814,42.163,14.911,41.789,14.181z"/><path fill="#424242" d="M17.166,19c-0.257,0-0.516-0.104-0.717-0.305c-0.391-0.391-0.365-1.047,0.026-1.438 c0.24-0.24,1.611-1.379,5.023-0.242c0.524,0.175,0.807,0.741,0.632,1.265c-0.174,0.523-0.739,0.807-1.265,0.632 c-2.241-0.747-3.02-0.201-3.028-0.195C17.649,18.908,17.408,19,17.166,19z"/><path fill="#424242" d="M27.182,19c-0.419,0-0.809-0.265-0.949-0.684c-0.175-0.524,0.108-1.09,0.632-1.265 c3.412-1.137,4.784,0.001,5.023,0.242c0.391,0.391,0.391,1.023,0,1.414c-0.375,0.375-0.977,0.39-1.369,0.042 c-0.078-0.049-0.887-0.513-3.022,0.199C27.394,18.983,27.287,19,27.182,19z"/><path fill="#efefef" d="M26.5,37h-1c-0.276,0-0.5,0.224-0.5,0.5v1.509c0.597,0.006,1.278,0.005,2-0.028V37.5 C27,37.224,26.776,37,26.5,37z"/><path fill="#efefef" d="M29.5,37h-1c-0.276,0-0.5,0.224-0.5,0.5v1.41c0.672-0.064,1.35-0.164,2-0.33V37.5 C30,37.224,29.776,37,29.5,37z"/><path fill="#efefef" d="M19.5,37h-1c-0.276,0-0.5,0.224-0.5,0.5v1.066c0.65,0.167,1.328,0.27,2,0.336V37.5 C20,37.224,19.776,37,19.5,37z"/><path fill="#efefef" d="M22.5,37h-1c-0.276,0-0.5,0.224-0.5,0.5v1.475c0.722,0.035,1.403,0.038,2,0.033V37.5 C23,37.224,22.776,37,22.5,37z"/><circle cx="19.5" cy="23.5" r="1.5" fill="#90caf9"/><circle cx="19.5" cy="23.5" r=".5" fill="#424242"/><path fill="#424242" d="M22.943,22.935C22.672,21.272,21.24,20,19.5,20c-1.933,0-3.5,1.567-3.5,3.5 c0,0.036,0.009,0.069,0.01,0.104c0.544-0.581,1.553-1.367,3.166-1.569C20.985,21.81,22.219,22.404,22.943,22.935z"/><circle cx="28.504" cy="23.5" r="3.5" fill="#424242"/><circle cx="28.504" cy="23.5" r="2.496" fill="#fff"/><path fill="#424242" d="M25.061,22.935C25.332,21.272,26.764,20,28.504,20c1.933,0,3.5,1.567,3.5,3.5 c0,0.036-0.009,0.069-0.01,0.104c-0.544-0.581-1.553-1.367-3.166-1.569C27.019,21.81,25.785,22.404,25.061,22.935z"/><circle cx="28.504" cy="23.5" r="1.5" fill="#90caf9"/><circle cx="28.504" cy="23.5" r=".5" fill="#424242"/><path fill="#757575" d="M22,8h-2V4.044C20,4.044,21.041,4,22,4V8z"/><rect width="2" height="2" x="20" y="10" fill="#757575"/><path fill="#bcaaa4" d="M30.5,35h-13c-2.485,0-4.5-2.015-4.5-4.5v0c0-2.485,2.015-4.5,4.5-4.5h13c2.485,0,4.5,2.015,4.5,4.5 v0C35,32.985,32.985,35,30.5,35z"/><ellipse cx="24" cy="26.5" fill="#424242" rx="4" ry="1.5"/><path fill="#8d6e63" d="M24,31.18c0,2-1.057,3.82-3,3.82h6C25.219,35,24.002,33.199,24,31.18z"/><circle cx="17.5" cy="28.5" r=".5" fill="#424242"/><circle cx="15.5" cy="29.5" r=".5" fill="#424242"/><circle cx="16.5" cy="31.5" r=".5" fill="#424242"/><circle cx="30.5" cy="28.5" r=".5" fill="#424242"/><circle cx="32.5" cy="29.5" r=".5" fill="#424242"/><circle cx="31.5" cy="31.5" r=".5" fill="#424242"/></svg>