<svg xmlns="http://www.w3.org/2000/svg"  viewBox="0 0 48 48" width="1600px" height="1600px"><polygon fill="#4a148c" points="6,34.325 14,32.075 21.25,32.5 11,38.306 6,37"/><polygon fill="#b3f" points="19,34.83 19,35.88 19.782,36.136 16,45 25,48 26.18,47.26 28.16,37.83"/><polygon fill="#c6f" points="37.702,20.296 38.27,18.86 36.65,14.18 25.64,17.06 13.13,24.31 11.02,32.75 12,32.95 19,33.23 19,35.88 27,38.5 25,48 26.18,47.26 41,38 41,29.88"/><path fill="#eee" d="M32,25c0,2.761-1.567,4-3.5,4S25,27.761,25,25s1.567-6,3.5-6S32,22.239,32,25z"/><circle cx="29" cy="24" r="1" fill="#37474f"/><polygon fill="#424242" points="40.21,27.59 27,38.5 23.62,37.39 39.17,24.56"/><polygon fill="#c6f" points="20.521,35.825 13,40 11,37 21.25,32.5"/><polygon fill="#f2b3fd" points="7,35.149 5,35.7 7,38.625 13,40 11,37"/><polygon fill="#bdbdbd" points="16,33.982 11,35.25 11,37 16,34.798"/><polygon fill="#eee" points="6,34.325 6,35.917 11,37 11,35.25"/><polygon fill="#b3f" points="31,39.25 30,44.862 29,40.5"/><polygon fill="#b3f" points="35,36.75 34,42.373 33,38"/><polygon fill="#b3f" points="39,34.25 38,39.873 37,35.5"/><polygon fill="#f2b3fd" points="33,12 32.25,12 27.01,14 19.01,17 13.4,20.75 11.2,22.35 9,23.95 7,31.95 11.02,32.75 12,32.95 14,24.95 16.38,23.48 19,21.87 26.01,18 36.01,15.38"/><polygon fill="#f0a6fd" points="26.01,18 19,21.87 16.38,23.48 14,24.95 9,23.95 11.1,22.42 11.2,22.35 13.4,20.75 19.01,17"/><polygon fill="#424242" points="21.75,29.94 19,21.87 13.4,20.75 11.2,22.35 11.1,22.42 16.38,23.48 18.86,30.73 20.25,36.29 23.62,37.39"/><polygon fill="#602e90" points="10.477,26.285 9.45,30.4 8.47,30.21 9.74,25.12"/><polygon fill="#602e90" points="12.78,25.73 12.77,25.73 11.5,30.81 10.52,30.62 11.548,26.499"/><path fill="#a0f" d="M33,12.05v1.6l-2.99,0.81l-1-0.15L20.01,1h2.07c0.27,0,0.53,0.11,0.72,0.31L33,12.05z"/><polygon fill="#f0a6fd" points="19.005,1.5 20.005,1 27.628,10.904 30.005,14.462 27.005,14"/><path fill="#b3f" d="M39.01,17l-1.31,3.3l-1.69-4.92L33,14.92V11L28.92,0l1.77,0.64c0.21,0.07,0.38,0.21,0.5,0.38	l5.55,8.33c0.17,0.26,0.31,0.56,0.39,0.86L39.01,17z"/><path fill="#f0a6fd" d="M31.005,14.615l-0.452-4.492L27.19,0l1.73,0.001l5.188,10.889c0.093,0.196,0.154,0.406,0.18,0.622	l0.44,3.67L31.005,14.615z"/><path fill="#9e9e9e" d="M19.5,37c0,0-0.172,0-1,0S17,36.105,17,35s0.672-2,1.5-2s1,0,1,0V37z"/><ellipse cx="19.5" cy="35" fill="#757575" rx="1.5" ry="2"/></svg>