<svg xmlns="http://www.w3.org/2000/svg"  viewBox="0 0 48 48" width="1600px" height="1600px"><path fill="#cfd8dc" d="M9,33c0,0,1,4,3,4c3,0,3-1,5-1c1,0,3,1,3,4s-1,4-1,4h7V33H9z"/><path fill="#eceff1" d="M14,34c0,0,0.544,2.478,1.092,3.034C15.092,37.034,13,36,13,34H14z"/><path fill="#90a4ae" d="M15,16c0,0-2,2-2,5s0,5-2,5c-3,0-3,5-3,5s1,4,4,4c2,0,3-1,5-1s7,1,7,10h10l2-17V14L15,16z"/><path fill="#424242" d="M13.068,23.775c0.386-0.313,0.621-0.397,0.937-0.526c0.298-0.108,0.599-0.177,0.897-0.215c0.617-0.078,1.148-0.011,1.68,0.091c1.085,0.188,2.149,0.821,2.849,1.564c0.747,0.709,1.243,1.521,2.052,1.665c0.824,0.16,1.749-0.347,2.517-0.904C23,28,18,28,18,28s-2,0-4,0L13.068,23.775z"/><path fill="#ffe082" d="M19,26.5c0,0.56-0.23,1.09-0.6,1.5h-4.2c0.52-0.44,0.8-1.08,0.8-2c0-0.26-0.03-0.5-0.09-0.72c-0.01-0.05-0.03-0.1-0.04-0.15c-0.08-0.23-0.18-0.43-0.3-0.61c-0.04-0.06-0.08-0.11-0.12-0.16c0.32-0.16,0.68-0.27,1.06-0.32c0.1-0.02,0.21-0.03,0.31-0.03C15.88,24,15.94,24,16,24c1.04,0,1.95,0.44,2.49,1.1C18.81,25.5,19,25.98,19,26.5z"/><path fill="#546e7a" d="M35,16c0,0,4,3,4,8l2-3c0,0,0,5-4,12c0,0,2-3,3-3c0,0,0,8-4,12c0,0,1-1,2-1l-1,3h-5c0,0-3-1-3-5s6-8,6-14S35,16,35,16z"/><path fill="#b0bec5" d="M36,12c2,0,2,3,2,4s-1,12-8,12c-1.756,0-5-5.494-5-8C25,18,34,15,36,12z"/><path fill="#ffcdd2" d="M35,18c0,4.21-4,8-6,8h-1.45c-0.66-0.89-1.28-1.98-1.74-3.03c7.24-0.45,7.92-6.97,8.76-6.97C35.05,16,35,17.37,35,18z"/><path fill="#546e7a" d="M34,14c0,0-7,4-14,5c0,0,2-2,2-3c0,0-3,3-9,3c-4,0-7,0-7,0s2-1,3-3s3-7,7-7c0,0-4,0-6-2c0,0,4-2,9-2c3,0,6,1,7,2V4C26,4,30,10,34,14z"/><path fill="#eceff1" d="M20.958 22.461c-.225.636-1.285.722-2.366.191-1.081-.531-1.775-1.476-1.549-2.113.225-.636 1.285-.722 2.366-.191C20.489 20.879 21.183 21.824 20.958 22.461zM29.78 25.23c0 0 .32.11.55.37.14.15.24.35.24.62 0 0-1.58.49-3.02-.22-.66-.89-1.28-1.98-1.74-3.03 1.97-.13 3.46-.7 4.59-1.47.25-.06.49-.05.62.2.47.89-1.32 1.9-1.32 1.9s2.316.014 2.316.758C32.016 24.993 30.43 25.25 29.78 25.23z"/><path fill="#cfd8dc" d="M15,26c0,3-3,3-7,3c-1.05,0-1.99-2.01-2-1.99C6,27,6,27,6,27s0,0,0.01-0.01C6.14,26.88,7.25,26,11,26c1.41,0,1.83-1,1.95-2.64C13.97,23.73,15,24.48,15,26z"/><path fill="#ef9a9a" d="M9,28c0-1-0.62-1.821-0.62-1.821C6.533,26.467,6,27,6,27s0,4,2,4C8,31,9,30.03,9,28z"/><path fill="#ffe082" d="M19,26.5c0,0.56-0.23,1.09-0.6,1.5h-4.2c0.52-0.44,0.8-1.08,0.8-2c0-0.26-0.03-0.5-0.09-0.72c-0.01-0.05-0.03-0.1-0.04-0.15c-0.08-0.23-0.18-0.43-0.3-0.61c-0.04-0.06-0.08-0.11-0.12-0.16c0.4-0.2,0.87-0.33,1.37-0.35C15.88,24,15.94,24,16,24c1.04,0,1.95,0.44,2.49,1.1C18.81,25.5,19,25.98,19,26.5z"/><path fill="#424242" d="M17,26.5c0,0.56-0.15,1.09-0.4,1.5h-2.4c0.52-0.44,0.8-1.08,0.8-2c0-0.26-0.03-0.5-0.09-0.72c-0.01-0.05-0.03-0.1-0.04-0.15c-0.08-0.23-0.18-0.43-0.3-0.61c-0.04-0.06-0.08-0.11-0.12-0.16C15,24,15,24,15.398,24.054C16.298,24.294,17,25.3,17,26.5z"/><path fill="#eceff1" d="M16.5 29A.5.5 0 1 0 16.5 30 .5.5 0 1 0 16.5 29zM18.5 29A.5.5 0 1 0 18.5 30 .5.5 0 1 0 18.5 29zM20.5 29A.5.5 0 1 0 20.5 30 .5.5 0 1 0 20.5 29z"/><path fill="#757575" d="M35.42,28.42c-0.39,0.39-0.91,0.59-1.48,0.59c-0.83,0-1.75-0.4-2.56-1.17c0.79-0.18,1.48-0.51,2.09-0.96c0.27,0.12,0.48,0.14,0.56,0.11c0.01-0.04-0.01-0.22-0.12-0.46c-0.1-0.24-0.28-0.54-0.59-0.85c-0.13-0.13-0.26-0.24-0.4-0.34l1.13-1.65c0.24,0.17,0.47,0.36,0.69,0.57c0.21,0.21,0.4,0.44,0.57,0.67C36.18,26.18,36.26,27.58,35.42,28.42z"/></svg>