<svg xmlns="http://www.w3.org/2000/svg"  viewBox="0 0 48 48" width="1600px" height="1600px" baseProfile="basic"><path fill="#424242" d="M13.484,17.604C8.697,11.859,8.496,1.038,8.496,1.038s5.411,10.137,10.198,13.009L13.484,17.604z"/><path fill="#424242" d="M34.335,17.566C39.123,11.821,39.323,1,39.323,1s-5.411,10.137-10.198,13.009L34.335,17.566z"/><path fill="#827717" d="M34.708,18.019c-0.116-0.487-0.384-0.924-0.764-1.25l-5.153-3.323l-3.83-1.915l-0.957,1.915	l-0.957-1.915l-3.83,1.915l-5.153,3.323c-0.38,0.326-0.648,0.763-0.764,1.25c-0.512,2.152-2.085,7.43-3.658,9.789	c0.858,2.58,4.791,9.782,8.815,15.991c0.484,0.792,1.277,1.347,2.188,1.529L24.004,46l3.359-0.672	c0.911-0.182,1.704-0.736,2.188-1.529c4.096-6.208,8.012-13.232,8.815-15.991C36.793,25.449,35.22,20.171,34.708,18.019z"/><path fill="#9e9d24" d="M33.033,25.081c-1.152,0.2-2.405-1.904-0.05-3.307c-4.154-2.753-1.858-6.855-1.854-6.863	c5.336-3.692,7.697-12.08,8.177-13.879c-0.182,0.339-5.269,9.755-9.9,12.785c-0.318-0.19-0.66-0.372-0.99-0.558l-3.007-1.504	l-0.178,0.91l-0.714-0.241l-0.512,1.024l-0.72-1.44l-0.708-0.239l-3.359,1.68l-0.746,0.332c-0.022,0.013-0.046,0.025-0.068,0.038	c-4.631-3.03-9.718-12.446-9.9-12.785c0.48,1.799,2.841,10.187,8.177,13.879c0.004,0.008,2.3,4.11-1.854,6.863	c2.355,1.403,1.102,3.507-0.05,3.307c-1.614,0.593-2.647,1.578-1.779,4.584c0.986,3.412,6.835,2.48,7.935,5.981	c-0.779,0.98-0.89,2.175,0.615,2.175l1.215,0.844c0.345,0.239,0.745,0.335,1.141,0.313c0.396,0.022,0.797-0.074,1.141-0.313	l1.215-0.844c1.505,0,1.394-1.196,0.615-2.175c1.397-3.351,6.95-2.57,7.935-5.981C35.68,26.659,34.647,25.674,33.033,25.081z"/><path fill="#424242" d="M34.736,22.626c0.417,1.052,1.774,7.608-3.657,8.5c-5.74,0.943-5.661,3.869-5.661,3.869	s-0.551-6.357,4.309-8.06C34.586,25.231,34.736,22.626,34.736,22.626z"/><path fill="#81d4fa" d="M34.536,24.396c0.067,1.002-0.157,4.837-2.939,5.811c-1.398,0.49-3.763,0.473-3.763,0.473	s0.539-2.098,2.698-3.168C32.466,26.556,33.834,25.599,34.536,24.396z"/><path fill="#424242" d="M13.206,22.626c-0.417,1.052-1.774,7.608,3.657,8.5c5.74,0.943,5.661,3.869,5.661,3.869	s0.551-6.357-4.309-8.06C13.356,25.231,13.206,22.626,13.206,22.626z"/><path fill="#81d4fa" d="M13.406,24.396c-0.067,1.002,0.157,4.837,2.939,5.811c1.398,0.49,3.763,0.473,3.763,0.473	s-0.539-2.098-2.698-3.168C15.476,26.556,14.107,25.599,13.406,24.396z"/><path fill="#81d4fa" d="M32.237,37.255c-0.749,0.69-1.757,1.085-2.789,1.085h-0.282c-0.662,0-1.295,0.273-1.72,0.761	c-0.737,0.847-2.146,2.097-3.461,2.109c-1.313-0.012-2.624-1.262-3.361-2.109c-0.425-0.488-1.058-0.761-1.72-0.761h-0.282	c-1.033,0-2.04-0.396-2.789-1.085c-1.015-0.935-2.004-2.388-2.438-1.879l0.517,0.937c1.009,1.771,2.128,3.64,3.279,5.482	c0.727,0.606,1.704,0.894,2.688,0.739c1.175-0.185,2.676-0.362,4.107-0.364c1.431,0.002,3.031,0.179,4.206,0.364	c0.984,0.155,1.96-0.134,2.688-0.739c1.151-1.842,2.27-3.711,3.279-5.482l0.517-0.937C34.241,34.867,33.252,36.32,32.237,37.255z"/><path fill="#4fc3f7" d="M32.237,37.255c-0.749,0.69-1.757,1.085-2.789,1.085h-0.282c-0.662,0-1.295,0.273-1.72,0.761	c-0.737,0.847-2.146,2.097-3.461,2.109c-1.313-0.012-2.624-1.262-3.361-2.109c-0.425-0.488-1.058-0.761-1.72-0.761h-0.282	c-1.033,0-2.04-0.396-2.789-1.085c-1.015-0.935-2.004-2.388-2.438-1.879l0.517,0.937c1.009,1.771,2.128,3.64,3.279,5.482	c0.727,0.606,1.704,0.894,2.688,0.739c1.175-0.185,2.676-0.362,4.107-0.364c1.431,0.002,3.031,0.179,4.206,0.364	c0.984,0.155,1.96-0.134,2.688-0.739c1.151-1.842,2.27-3.711,3.279-5.482l0.517-0.937C34.241,34.867,33.252,36.32,32.237,37.255z"/><path fill="#b3e5fc" d="M18.771,41.113c-0.862-1.358-3.229-3.038-4.223-3.708c0.839,1.443,1.722,2.919,2.642,4.391	c0.727,0.606,1.704,0.894,2.688,0.739c1.175-0.185,2.676-0.362,4.107-0.364c1.431,0.002,3.031,0.179,4.206,0.364	c0.984,0.155,1.96-0.134,2.688-0.739c0.959-1.535,1.88-3.077,2.75-4.577c-0.726,0.477-3.544,2.386-4.501,3.894	c-1.638-0.336-3.413-0.177-4.412-0.036c-0.244,0.076-0.489,0.132-0.732,0.134c-0.224-0.002-0.446-0.05-0.666-0.116	C22.349,40.95,20.478,40.762,18.771,41.113z"/><path fill="#cfd8dc" d="M32.237,37.255c1.015-0.935,2.004-2.388,2.438-1.879l0.042,0.044	c1.162,3.466,4.622,5.203,4.622,5.203s-5.32,0.046-8.241-2.64C31.516,37.805,31.903,37.562,32.237,37.255z"/><path fill="#cfd8dc" d="M15.832,37.255c-1.015-0.935-2.004-2.388-2.438-1.879l-0.042,0.044	c-1.162,3.466-4.622,5.203-4.622,5.203s5.32,0.046,8.241-2.64C16.553,37.805,16.166,37.562,15.832,37.255z"/><path fill="#b0bec5" d="M15.998,37.382c-0.894,0.721-3.286,2.402-7.038,3.238c1.05-0.027,5.45-0.284,8.01-2.637	C16.617,37.832,16.294,37.625,15.998,37.382z"/><path fill="#b0bec5" d="M32.058,37.382c0.894,0.721,3.286,2.402,7.038,3.238c-1.05-0.027-5.45-0.284-8.01-2.637	C31.438,37.832,31.762,37.625,32.058,37.382z"/><path fill="#424242" d="M26.007,12.489c-0.012-0.201-0.094-0.38-0.205-0.537l-0.841-0.42l-0.957,1.915l-0.957-1.915	l-0.861,0.43c-0.097,0.144-0.172,0.311-0.186,0.527c-0.063,1.168-0.547,2.256-1.266,3.369c-1,1.568-2.536,3.217-2.562,5.246	c0.019,2.941,3.359,3.86,3.516,6.704c0.046,0.455,0.753,0.457,0.801,0c0.278-1.509-0.346-3.266-1.287-4.422	c-0.448-0.58-0.8-1.072-0.894-1.526c-0.326-1.908,1.298-2.981,2.329-4.774c0.601-0.907,1.137-2.016,1.355-3.207	c0.283,1.284,1.002,2.705,1.376,3.207c1.428,2.227,3.64,3.982,1.436,6.299c-0.941,1.157-1.565,2.912-1.287,4.422	c0.045,0.45,0.743,0.46,0.8,0.009c0.195-2.486,2.257-3.162,3.244-5.329C30.984,18.651,26.054,16.065,26.007,12.489z"/></svg>