<svg xmlns="http://www.w3.org/2000/svg"  viewBox="0 0 48 48" width="1600px" height="1600px"><path fill="#0097a7" d="M4,13c0,0-2,9,4,14V14L4,13z"/><path fill="#0097a7" d="M44,13c0,0,2,9-4,14V14L44,13z"/><circle cx="10" cy="9" r="7" fill="#00bcd4"/><circle cx="38" cy="9" r="7" fill="#00bcd4"/><polygon fill="#ab47bc" points="31.993,3.617 34,2 40.772,5.435 45,13 41.404,18.979"/><polygon fill="#8e24aa" points="37.244,12.187 41.404,18.979 45,13 40.772,5.435"/><polygon fill="#ab47bc" points="17,5 14,2 7.22,5.435 3,13 7,19"/><polygon fill="#8e24aa" points="10.749,12.187 8,21 3,13 7.22,5.435"/><path fill="#0097a7" d="M40.844,22.6C40.844,22.6,43,33,39,41c0,0-2.167-12-3.167-17L40.844,22.6z"/><path fill="#0097a7" d="M6.413,22.6c0,0-2.156,10.4,1.844,18.4c0,0,2.167-12,3.167-17L6.413,22.6z"/><path fill="#ffdbd0" d="M10,13l1.167,24.003c0,0.576,0.208,1.128,0.594,1.556c0.003,0.003,0.006,0.007,0.009,0.012	c0.35,0.385,1.329,1.371,1.329,1.371C15.598,42.381,20.94,46,24,46s8.402-3.619,10.901-6.059h-0.009	c0.52-0.508,0.988-0.986,1.338-1.371c0.003-0.003,0.006-0.007,0.009-0.012c0.386-0.428,0.594-0.979,0.594-1.556L38,13H10z"/><path fill="#ffbca7" d="M20.5,37.932h7l0,0c0,1.381-2.211,2.5-3.5,2.5l0,0C22.711,40.432,20.5,39.312,20.5,37.932	L20.5,37.932z"/><path fill="#ffbca7" d="M21.75,33h4.5c0,0-1.125,2-2.25,2S21.75,33,21.75,33z"/><path fill="#f5e9e8" d="M17.005,25c-3.191,0-4.687,1.37-4.881,1.562C12.55,28.532,14.118,30,16,30 c1.899,0,3.482-1.493,3.89-3.49C19.768,26.318,18.861,24.999,17.005,25z"/><path fill="#212121" d="M12.085,26.6c0,0,0.025-0.024,0.039-0.038c-0.005-0.021-0.013-0.041-0.017-0.062 C12.093,26.561,12.085,26.6,12.085,26.6z"/><path fill="#212121" d="M19.901,26.471c-0.003,0.013-0.008,0.026-0.011,0.039c0.01,0.015,0.025,0.038,0.025,0.038 S19.91,26.516,19.901,26.471z"/><ellipse cx="16" cy="27" fill="#26c6da" rx="2.6" ry="3"/><path fill="#212121" d="M12.37,25.619c-0.152,0.345-0.285,0.981-0.285,0.981s1.492-1.6,4.92-1.6	c2-0.001,2.91,1.548,2.91,1.548s-0.61-4.27-5.063-2.931C13.894,23.905,12.828,24.577,12.37,25.619z"/><path fill="#f5e9e8" d="M30.995,25c3.191,0,4.687,1.37,4.881,1.562C35.45,28.532,33.882,30,32,30 c-1.899,0-3.482-1.493-3.89-3.49C28.232,26.318,29.139,24.999,30.995,25z"/><path fill="#212121" d="M35.915,26.6c0,0-0.025-0.024-0.039-0.038c0.005-0.021,0.013-0.041,0.017-0.062 C35.907,26.561,35.915,26.6,35.915,26.6z"/><path fill="#212121" d="M28.099,26.471c0.003,0.013,0.008,0.026,0.011,0.039c-0.01,0.015-0.025,0.038-0.025,0.038 S28.09,26.516,28.099,26.471z"/><ellipse cx="32" cy="27" fill="#26c6da" rx="2.6" ry="3"/><path fill="#212121" d="M35.63,25.619c0.152,0.345,0.285,0.981,0.285,0.981s-1.492-1.6-4.92-1.6	c-2-0.001-2.91,1.548-2.91,1.548s0.61-4.27,5.063-2.931C34.106,23.905,35.172,24.577,35.63,25.619z"/><path fill="#0097a7" d="M35.63,21.619c0.152,0.345,0.285,0.981,0.285,0.981s-1.492-1.6-4.92-1.6	c-2-0.001-2.91,1.548-2.91,1.548s0.61-4.27,5.063-2.931C34.106,19.905,35.172,20.577,35.63,21.619z"/><path fill="#0097a7" d="M11.37,21.619c-0.152,0.345-0.285,0.981-0.285,0.981s1.492-1.6,4.92-1.6	c2-0.001,2.91,1.548,2.91,1.548s-0.61-4.27-5.063-2.931C12.894,19.905,11.828,20.577,11.37,21.619z"/><circle cx="16" cy="27" r="1" fill="#212121"/><circle cx="32" cy="27" r="1" fill="#212121"/><path fill="#26c6da" d="M18,12c0,0,1,10,6,14l-3-13L18,12z"/><path fill="#26c6da" d="M41,22c0-3.759,0-20-17-19.941C7.252,2.117,7,18.241,7,22c0,14,7.556,25,7.556,25	c-1.691-5.314-2.293-11.411-2.451-16.508c-0.164-5.31,2.174-10.359,6.227-13.49L21.167,15c0.03,0.063-0.167,4,5.667,13	c0.08,0.123,0-11,0-11s0.931,0.478,2.198,1.125c4.411,2.253,7.138,7.061,6.948,12.243C35.791,35.49,35.149,41.642,33.444,47	C33.444,47,41,36,41,22z"/><path fill="#26c6da" d="M42,35c0,0,5-31-17.487-32.776C24.513,2.224,40,21.309,42,35z"/><path fill="#26c6da" d="M5,35C5,35,0.64,4,23.127,2.224C23.127,2.224,7,21.309,5,35z"/></svg>