<svg xmlns="http://www.w3.org/2000/svg"  viewBox="0 0 48 48" width="1600px" height="1600px"><path fill="#ffcdd2" d="M26.624,30.205c0,3.59,2.89,9.5,6.454,9.5c5.834,0,6.392-6.387,5.676-9 c-0.509-1.857-1.631-3.264-2.218-5.319c-0.49-1.715-1.546-1.681-3.458-1.681C29.514,23.705,26.624,26.615,26.624,30.205z"/><path fill="#ffcdd2" d="M21.602,30.205c0,3.59-2.91,9.5-6.5,9.5c-5.872,0-6.593-6.387-5.872-9 c0.512-1.857,1.799-3.264,2.39-5.319c0.493-1.715,1.557-1.681,3.482-1.681C18.692,23.705,21.602,26.615,21.602,30.205z"/><path fill="#ce93d8" d="M34.795,34.705c1.19,4.51-2.848,10-10.738,10c-7.826,0-12.247-4.63-10.777-10 c1.746-6.379,3.875-2.759,10.777-2.759S33.112,28.325,34.795,34.705z"/><path fill="#ffcdd2" d="M37,24.705c0,7-5.82,8-13,8s-13-0.82-13-8s5.82-13,13-13S37,17.525,37,24.705z"/><circle cx="19" cy="24.705" r="4" fill="#ce93d8"/><path fill="#424242" d="M23.998,36.298c-5.001,0-6.213-2.044-7.202-2.593c-1.8-1-1.796,2-1.796,2c0,4,5,6,8.998,6 c4.002,0,9.002-2,9.002-6c0,0,0-3-1.8-2C30.11,34.31,28.477,36.298,23.998,36.298z"/><circle cx="19" cy="24.705" r="3" fill="#fff"/><path fill="#424242" d="M31,13.705H17v-1c0-1.105,0.895-2,2-2h10c1.105,0,2,0.895,2,2V13.705z"/><path fill="#424242" d="M24,4c-4.286,0-5,1-5,1s0.714,2,0.714,7h8.571C28.286,7,29,5,29,5S28.286,4,24,4z"/><path fill="#424242" d="M17.166,19.705c-0.257,0-0.516-0.104-0.717-0.305c-0.391-0.391-0.365-1.047,0.026-1.438 c0.24-0.24,1.611-1.379,5.023-0.242c0.524,0.175,0.807,0.741,0.632,1.265c-0.174,0.523-0.739,0.807-1.265,0.632 c-2.241-0.747-3.02-0.201-3.028-0.195C17.649,19.613,17.408,19.705,17.166,19.705z"/><path fill="#424242" d="M27.182,19.705c-0.419,0-0.809-0.265-0.949-0.684c-0.175-0.524,0.108-1.09,0.632-1.265 c3.412-1.137,4.784,0.001,5.023,0.242c0.391,0.391,0.391,1.023,0,1.414c-0.375,0.375-0.977,0.39-1.369,0.042 c-0.078-0.049-0.887-0.513-3.022,0.199C27.394,19.688,27.287,19.705,27.182,19.705z"/><circle cx="19" cy="24.705" r="2" fill="#90caf9"/><circle cx="19" cy="24.705" r="1" fill="#424242"/><path fill="#ce93d8" d="M22,23.221c-0.235-1.201-1.472-2.121-2.975-2.121c-1.67,0-3.025,1.132-3.025,2.529 c0,0.026,0.008,0.05,0.009,0.075c0.47-0.42,1.342-0.988,2.736-1.133C20.308,22.408,21.374,22.838,22,23.221z"/><circle cx="29" cy="24.705" r="4" fill="#ce93d8"/><circle cx="29" cy="24.705" r="3" fill="#fff"/><circle cx="29" cy="24.705" r="2" fill="#90caf9"/><path fill="#efefef" d="M23,37.705h-1c-0.552,0-1-0.448-1-1v-1h3v1C24,37.257,23.552,37.705,23,37.705z"/><path fill="#efefef" d="M26,37.705h-1c-0.552,0-1-0.448-1-1v-1h3v1C27,37.257,26.552,37.705,26,37.705z"/><circle cx="29" cy="24.705" r="1" fill="#424242"/><path fill="#757575" d="M23,9.705h-2V5.749c0,0,1.041-0.044,2-0.044V9.705z"/><rect width="2" height="2" x="21" y="11.705" fill="#757575"/><path fill="#ce93d8" d="M15.285,29.839c1.655-1.094,4.351-2.134,8.623-2.134c4.245,0,6.934,1.027,8.592,2.113 c3.019,1.979,2.129,6.87-8.736,6.87C13.888,36.688,12.454,31.711,15.285,29.839z"/><ellipse cx="24.004" cy="28.705" fill="#424242" rx="2.992" ry="2"/><path fill="#ce93d8" d="M26,23.221c0.235-1.201,1.472-2.121,2.975-2.121c1.67,0,3.025,1.132,3.025,2.529 c0,0.026-0.008,0.05-0.009,0.075c-0.47-0.42-1.342-0.988-2.736-1.133C27.692,22.408,26.626,22.838,26,23.221z"/><ellipse cx="12" cy="30.205" fill="#f06292" rx="2" ry="2.5"/><ellipse cx="36" cy="30.205" fill="#f06292" rx="2" ry="2.5"/><g><circle cx="8" cy="16.705" r="5" fill="#ffcdd2"/><circle cx="8" cy="16.705" r="3" fill="#ce93d8"/><circle cx="40" cy="16.705" r="5" fill="#ffcdd2"/><circle cx="40" cy="16.705" r="3" fill="#ce93d8"/></g></svg>