<svg xmlns="http://www.w3.org/2000/svg"  viewBox="0 0 48 48" width="1600px" height="1600px"><path fill="#689f38" d="M9,21.419C9,12.71,15.716,4,24,4s15,8.71,15,17.419C39,28.367,32,34,24,34S9,28.367,9,21.419z"/><path fill="#ffa726" d="M31.28,27.516l0.271-0.317C32.947,25.576,34.821,25,36,25c1.491,0,3,1.374,3,4 c0,3.419-2.472,7-5,7l-4.42,0.003L31.28,27.516z"/><circle cx="35.5" cy="30.5" r="1.5" fill="#f57f17"/><path fill="#ffa726" d="M18.421,36.003L14,36c-2.528,0-5-3.581-5-7c0-2.626,1.509-4,3-4c1.179,0,3.053,0.576,4.449,2.199 l0.271,0.317L18.421,36.003z"/><circle cx="12.5" cy="30.5" r="1.5" fill="#f57f17"/><path fill="#795548" d="M16,33l-1.963,3l-0.36-0.937c-0.78-2.029-1.223-4.171-1.314-6.342L12,20l4-2V33z"/><path fill="#795548" d="M32,33l1.963,3l0.36-0.937c0.78-2.029,1.223-4.171,1.314-6.342L36,20l-4-2V33z"/><path fill="#ffb74d" d="M14,19l7.071-3h5.858L34,19c0,0-0.67,15.823-2,19.156C30.347,42.302,27.673,45,24,45 c-3.819,0-6.557-2.916-8.192-7.342C14.606,34.403,14,19,14,19z"/><ellipse cx="29" cy="26" fill="#fff" rx="2" ry="3"/><ellipse cx="28.5" cy="26.5" fill="#2196f3" rx="1.5" ry="2.5"/><ellipse cx="28" cy="27" fill="#263238" rx="1" ry="2"/><ellipse cx="19" cy="27" fill="#fff" rx="2" ry="3"/><ellipse cx="19" cy="26" fill="#fff" rx="2" ry="3"/><ellipse cx="19.5" cy="26.5" fill="#2196f3" rx="1.5" ry="2.5"/><ellipse cx="20" cy="27" fill="#263238" rx="1" ry="2"/><path fill="#fff" d="M24,7c-2.761,0-5,2.239-5,5c0,1.51,0.67,2.864,1.728,3.781c0.877,0.759,5.436,0.847,6.272,0.219 c1.214-0.912,2-2.364,2-4C29,9.239,26.762,7,24,7z"/><polygon fill="#689f38" points="22,8.097 22.168,14 26.497,13.989 26.497,11.605 23.471,11.5 23.776,7.975"/><path fill="#8bc34a" d="M35.359,21.74c-1.859-1.212-3.699-2.208-5.596-2.88c-1.895-0.656-3.827-1.031-5.764-1.014 c-1.937-0.021-3.87,0.354-5.765,1.009c-1.897,0.672-3.738,1.67-5.594,2.885l-0.02,0.013c-0.494,0.323-1.11,0.1-1.377-0.498 c-0.203-0.456-0.143-1.001,0.115-1.376c1.492-2.155,3.448-3.88,5.629-5.057C19.167,13.623,21.583,13.025,24,13 c2.417,0.02,4.833,0.619,7.013,1.817c2.182,1.176,4.138,2.903,5.628,5.062c0.36,0.522,0.303,1.298-0.128,1.734 c-0.327,0.332-0.776,0.371-1.131,0.142L35.359,21.74z"/><path fill="#263238" d="M16,22c1.577-2.37,4.144-2.798,6-1.228c-0.093-2.456-1.979-2.97-3.433-2.713 C17.113,18.317,16.031,19.402,16,22z"/><path fill="#263238" d="M32,22c-1.577-2.37-4.144-2.798-6-1.228c0.093-2.456,1.979-2.97,3.433-2.713S31.969,19.402,32,22z"/><path fill="#263238" d="M34,35.444C34,38.509,31.31,41,28,41s-6-2.491-6-5.556c0-1.306,0.48-2.5,1.29-3.444 c0.99,1.509,2.84,2.519,4.96,2.519c1.96,0,3.763-0.862,4.793-2.186C33.693,33.221,34,34.296,34,35.444z"/><path fill="#263238" d="M14,35.444C14,38.509,16.69,41,20,41s6-2.491,6-5.556c0-1.306-0.48-2.5-1.29-3.444 c-0.99,1.509-2.84,2.519-4.96,2.519c-1.96,0-3.819-0.874-4.849-2.198C14.251,33.209,14,34.296,14,35.444z"/><ellipse cx="24" cy="32" fill="#ffd49c" rx="6" ry="5"/></svg>