<svg xmlns="http://www.w3.org/2000/svg"  viewBox="0 0 48 48" width="1600px" height="1600px"><path fill="#2559b5" d="M5,6.88c0,0,27-11.036,38.799,10.098c0,0,5.326-0.442-0.948,12.866c-4.563,9.68-16.568,9.019-16.568,9.019S14.75,37.354,8.125,44c0,0-0.625-10.032,6.875-15.049c0,0-2.875-3.888-14-1.003c0,0,5-11.036,14-12.039C15,15.909,12,7.883,5,6.88z"/><path fill="#fff" d="M40.072,33.25c-2.489,1.29-9.406,0.82-11.805-0.66C23.679,29.78,23.629,16,30.006,16c2.249,0,5.248,1.78,5.747,6.5c0.12,1.12,0.15,5.73,1.319,6.01c0.24,0.06,0.58-0.4,1-1.14c0.15,0.89,0.49,1.49,0.96,1.56c0.78,0.13,1.519-1.2,1.769-3.18c0.17-1.33,0.09-2.5-0.22-3.17c0.83-1.47,1.669-2.63,2.379-2.63C44.92,19.95,44.19,31.13,40.072,33.25z"/><path fill="#0d47a1" d="M43.68 16.78c-1.49-2.64-3.23-4.77-5.12-6.47 1.82-.29 3.98-.38 6.32-.06C44.88 10.25 45.17 13.73 43.68 16.78zM28 11.44c0 0-.71.08-1.82.47-.08.03-.16.06-.24.09-1.39.51-3.31 1.49-5.27 3.28-.18.17-.37.35-.55.53v.01c-.37.36-.75.75-1.1 1.18 0 0-2.02-4-.03-10C18.99 7 24.61 7 28 11.44z"/><path fill="#ffbca7" d="M22.69 29.401C18.644 31.521 22.003 40 32.032 40s13.144-8.677 9.494-9.344C37.937 30 37.027 32 34.038 32 30.956 32 26.231 27.545 22.69 29.401zM25.94 12c-1.39.51-3.31 1.49-5.27 3.28-.42-1.08-.99-3.34-.13-6.28C20.54 9 23.88 9 25.94 12z"/><path d="M30.853 24.781c-.254 1.98-.989 3.304-1.775 3.179-.786-.126-1.209-1.708-.955-3.688.254-1.98 1.104-3.359 1.889-3.234C30.798 21.164 31.106 22.801 30.853 24.781zM40.8 25.75c-.25 1.98-.99 3.31-1.77 3.18-.47-.07-.81-.67-.96-1.56.21-.37.44-.81.69-1.29.04.48.19.81.42.85.34.05.65-.51.75-1.35.09-.66.02-1.24-.17-1.47.27-.52.54-1.04.82-1.53C40.89 23.25 40.97 24.42 40.8 25.75zM44.979 30.973c.197.89-.966 2.088-2.598 2.676-1.632.588-3.114.343-3.311-.547-.197-.89.966-2.088 2.598-2.676C43.3 29.838 44.782 30.083 44.979 30.973z"/><g><path fill="#fff" d="M29.935 24.585c-.107.836-.418 1.396-.75 1.343-.332-.053-.511-.722-.404-1.558.107-.836.466-1.419.798-1.366C29.911 23.056 30.042 23.748 29.935 24.585zM43.242 31.341c.078.349-.358.814-.975 1.037-.617.224-1.18.121-1.258-.228-.078-.349.358-.814.975-1.037C42.6 30.889 43.163 30.991 43.242 31.341zM39.93 25.58c-.1.84-.41 1.4-.75 1.35-.23-.04-.38-.37-.42-.85 0-.01 0-.01 0-.01.32-.61.65-1.29 1-1.96C39.95 24.34 40.02 24.92 39.93 25.58z"/></g><path fill="none" stroke="#000" stroke-linecap="round" stroke-miterlimit="10" stroke-width="2" d="M30,36c-2.081,0-3.916-1.19-5-3"/></svg>