<svg xmlns="http://www.w3.org/2000/svg"  viewBox="0 0 48 48" width="1600px" height="1600px"><path fill="#f44336" d="M10,26c-0.067-0.081-3-2.456-3-6c0-4.191,5.878-16,17.093-16C35.187,4,41,15.84,41,20c0,3.799-2.837,5.815-3,6h-2c0,0,1.625-10-12-10S12,26,12,26H10z"/><path fill="#ffa726" d="M11.421,35c-0.088,0-0.179-0.001-0.273-0.003L11,34.996c-2.528,0-5-3.581-5-7c0-2.626,1.509-4,3-4c1.18,0,3.053,0.576,4.449,2.199l0.271,0.317l-0.746,8.231l-0.687,0.18C12.05,34.986,11.762,35,11.421,35z M35.712,34.924l-0.687-0.18l-0.746-8.231l0.271-0.317c1.396-1.623,3.27-2.199,4.449-2.199c1.491,0,3,1.374,3,4c0,3.419-2.472,7-5,7l-0.147,0.001C36.758,34.999,36.667,35,36.579,35C36.238,35,35.95,34.986,35.712,34.924z"/><path fill="#f57f17" d="M12,29.5c0,0.828-0.672,1.5-1.5,1.5S9,30.328,9,29.5S9.672,28,10.5,28S12,28.672,12,29.5z M36,29.5c0,0.828,0.672,1.5,1.5,1.5s1.5-0.672,1.5-1.5S38.328,28,37.5,28S36,28.672,36,29.5z"/><path fill="#fff" d="M24 7A5 5 0 1 0 24 17A5 5 0 1 0 24 7Z"/><path fill="#f44336" d="M21.425,12.933c0,0-1.388-0.7-1.425-0.8c-0.036-0.101,2.338-4.1,2.338-4.1L23.982,9.6L25.699,8L28,12.133L26.575,13l-1.132-3.333l-1.388,1.567l-1.535-1.6L21.425,12.933z"/><path fill="#ffb74d" d="M24,44c-2.726,0-4.058-0.804-5.346-1.581c-0.344-0.207-0.698-0.422-1.098-0.63c-0.215-0.113-0.475-0.229-0.763-0.356C14.729,40.509,11,38.432,11,33c0-1.112,0.169-2.447,0.419-3.94C11.593,28.02,12,26.434,12,26c0-0.717-0.493-3.789-1-5l0,0c0,0,3.417-5,13-5s12,5,12,5h1c-0.507,1.211-1,4.283-1,5c0,0.434,0.406,2.02,0.58,3.06C36.83,30.553,37,31.888,37,33c0,5.432-3.73,7.509-5.796,8.433c-0.287,0.129-0.547,0.244-0.762,0.356c-0.399,0.208-0.755,0.423-1.099,0.631C28.057,43.196,26.725,44,24,44z"/><path fill="#fff" d="M29,24c1.105,0,2,1.119,2,2.5S30.105,29,29,29s-2-1.119-2-2.5S27.895,24,29,24z M21,26.5c0,1.381-0.895,2.5-2,2.5s-2-1.119-2-2.5s0.895-2.5,2-2.5S21,25.119,21,26.5z"/><path fill="#2196f3" d="M28.5,25c0.828,0,1.5,0.895,1.5,2s-0.672,2-1.5,2S27,28.105,27,27S27.672,25,28.5,25z M21,27c0,1.105-0.672,2-1.5,2S18,28.105,18,27s0.672-2,1.5-2S21,25.895,21,27z"/><path fill="#263238" d="M28 26c.552 0 1 .672 1 1.5S28.552 29 28 29s-1-.672-1-1.5S27.448 26 28 26zM21 27.5c0 .828-.448 1.5-1 1.5s-1-.672-1-1.5.448-1.5 1-1.5S21 26.672 21 27.5zM33 23c0 0-.608-.245-1.338-.575-.375-.148-.785-.32-1.154-.404-.179-.033-.35-.06-.467-.041l-.023 0-.012 0-.003 0-.001 0c.035-.001-.079.003.077-.003l-.013.002-.102.015-.206.022c-.159.01-.146.054-.23.059-.149.04-.359.119-.547.2-.194.088-.391.19-.59.298-.394.219-.781.465-1.135.676C26.566 23.689 26 24 26 24s-.004-.658.394-1.488c.19-.42.479-.882.901-1.315.208-.219.458-.422.739-.606.29-.185.593-.332.978-.446.188-.048.466-.107.585-.108l.207-.012.103-.002.013 0 .084-.003.005 0 .01.001.04.004.079.008c.435.029.782.188 1.085.346.584.345.958.773 1.21 1.172C32.948 22.338 33 23 33 23zM21.915 23.594c-.07-.252-.19-.607-.395-1.008-.095-.207-.228-.41-.375-.629-.143-.222-.317-.443-.521-.658-.407-.425-.94-.853-1.637-1.091-.364-.125-.688-.181-1.153-.186l-.214.013c-.116.018-.232.038-.346.064-.225.061-.364.123-.533.197-.616.316-1.005.752-1.263 1.155-.253.411-.38.793-.433 1.081C14.986 22.814 15 23 15 23s.182-.037.442-.122c.268-.078.613-.21.986-.352.368-.145.764-.308 1.101-.422.073-.021.181-.061.217-.063.017-.003.033-.013.049-.026l.193-.024c.082-.022.314-.005.487.02.766.13 1.69.703 2.356 1.163C21.501 23.647 22 24 22 24S21.976 23.853 21.915 23.594zM33.999 33.436c0 1.296-1.073 2.301-1.888 2.301-.252 1.565-1.245 2.23-2.247 2.23s-1.528-.353-1.528-.353-1.016 1.352-2.338 1.352c-1.166 0-2.021-.592-2.021-.592S23.205 39 22.111 39c-1.407 0-2.331-1.296-2.447-1.409-.067.031-.583.38-1.47.38-2.051 0-2.265-2.208-2.265-2.208s-1.931-.116-1.931-2.395c0-1.934.605-2.369.605-2.369s.346 1.416 4.246 2.099c.471 1.929 2.596 3.386 5.149 3.386 2.551 0 4.674-1.453 5.148-3.38 2.079-.355 3.475-1.005 4.269-2.081C33.417 31.023 33.999 31.492 33.999 33.436z"/><path fill="#ffd49c" d="M24,37c-3.309,0-6-2.243-6-5s2.691-5,6-5s6,2.243,6,5S27.309,37,24,37z"/><path fill="#795548" d="M37,22c0,0-0.119,9.03-0.052,9.886C35.702,28.862,34,28,34,28v-6H37z M11,22c0,0,0.119,9.03,0.052,9.886C12.298,28.862,14,28,14,28v-6H11z"/><path fill="#ff8a80" d="M24,13c-11.008,0-14,6.061-14,7c0,1.824,1,3,1,3c1.5,2.313,3,0,3,0c0.044-0.04,3.146-4,10-4s9.956,3.96,10,4c0,0,1.5,2.313,3,0c0,0,1-1.176,1-3C38,19.061,35.008,13,24,13z"/></svg>