<svg xmlns="http://www.w3.org/2000/svg"  viewBox="0 0 48 48" width="1600px" height="1600px"><path fill="#fb8c00" d="M25.5,9c1-1.75,4-6.25,11.5-8c1,6.5-0.75,15.75-1.5,18.75C33.75,17.75,25.5,9,25.5,9z"/><path fill="#ffa726" d="M36,23c0-8.284-3.475-15-11-15C15,8,9,13,9,23c0,8.284,6.1,15,13.625,15S36,38,36,23z"/><path fill="#fff" d="M28,29.5c0,1.05-0.04,2.07-0.13,3.04l-6.51,2.03C21.13,33.04,21,31.32,21,29.5	c0-6.35,1.57-11.5,3.5-11.5S28,23.15,28,29.5z"/><path fill="#fff" d="M34,29.5c0,0.38,0,0.76-0.01,1.13l-2.96,0.92C31.01,30.89,31,30.2,31,29.5c0-6.35,0.67-11.5,1.5-11.5	S34,23.15,34,29.5z"/><path fill="#ffa726" d="M2,6c5,0,13,1.5,16,4c-2.25,3-8.5,15-8.5,15C7,23,2,16.25,2,6z"/><path fill="#fff" d="M4,9c0,4,2.75,10.25,5.25,13C10,18,13,14.5,15,13C12,10.5,8,9,4,9z"/><path fill="#eceff1" d="M36,3c-1.5,0.25-5,2-7,5c2.75,1.25,5,2.75,6,5C36,10,36,5,36,3z"/><ellipse cx="22.5" cy="27.25" rx="1.5" ry="4.25"/><ellipse cx="21.5" cy="27.5" fill="#fff" rx=".5" ry="1.5"/><ellipse cx="32" cy="28.75" rx="1" ry="6.75"/><ellipse cx="31.5" cy="27" fill="#fff" rx=".5" ry="1.5"/><path fill="#eceff1" d="M38,28c-2.5,0-11.75,1-18,4c-1.25-1.75-4-3-7-2c1.75,0.25,3,2,3,2c-2-1-4.75-1.75-7,0	c1.75,0,2.75,0.25,3.75,1.5C10.5,33.5,9.5,34,8,36c1.75-0.5,2.75-0.25,4,0c-3.5,2-2.75,7.25-2,9c0.75-2.5,2-4,4-4	c-2.25,1.75-2.424,4.5-2,5.75c1.75-3.5,5.5-5,7-5.75c3.5,0.75,18.5,2.75,22-12C38.75,28.25,38,28,38,28z"/><path fill="#bf360c" d="M26,35c1-0.75,2.5-1,4-1c0,2-0.022,4.174-1,4.5C28.25,38.75,26.75,36.75,26,35z"/><ellipse cx="39.5" cy="28.5" rx="2.5" ry="1.5"/><ellipse cx="40.125" cy="28.5" fill="#fff" rx="1.125" ry=".5"/><path fill="#ffa726" d="M31.75,11C33,8.75,39,3,47,6c-3,0-6.5,1-8,3c5.25-0.75,7,1.163,8,2c-3.5-0.5-6-0.25-7,0.5	c4,0,5.75,3.5,6,4.5c-3-2-7.25-3-11,0C32.5,13.75,31.75,11,31.75,11z"/></svg>