<svg xmlns="http://www.w3.org/2000/svg"  viewBox="0 0 48 48" width="1600px" height="1600px"><path fill="#ffbca7" d="M17,25.509c0,1.901-1.343,3.443-3,3.443s-3-3.607-3-5.509c0-1.901,1.343-1.377,3-1.377 S17,23.608,17,25.509z"/><path fill="#ffbca7" d="M31,25.509c0,1.901,1.343,3.443,3,3.443s3-3.607,3-5.509c0-1.901-1.343-1.377-3-1.377 S31,23.608,31,25.509z"/><path fill="#ffdbd0" d="M27.393,45h-6.786c-4.648,0-8.318-3.948-7.979-8.584l1.715-21.44C14.713,9.916,18.927,6,24,6l0,0 c5.073,0,9.287,3.916,9.657,8.976l1.715,21.44C35.711,41.052,32.041,45,27.393,45z"/><polygon fill="#ffbca7" points="21,27 24.221,24.351 27.572,27 24,28"/><rect width="10" height="3" x="19" y="28" fill="#ffbca7"/><path fill="#6d4c41" d="M30.056,26.25c0,0,0.375,1.875-0.625,1.75c-0.901-0.113-0.99-2.354-3.191-2.525 c-0.488-0.038-0.965,0.157-1.339,0.473L24.32,26.44c-0.039,0.033-0.07,0.074-0.105,0.11c-0.035-0.037-0.066-0.077-0.105-0.11 l-0.581-0.492c-0.373-0.316-0.851-0.511-1.339-0.473C19.99,25.646,19.901,27.887,19,28c-1,0.125-0.625-1.75-0.625-1.75 c-1.625,2.375,0.75,2.75,0.75,2.75h4.048c0.41,0,0.779-0.171,1.042-0.445C24.48,28.829,24.848,29,25.258,29h4.048 C29.306,29,31.681,28.625,30.056,26.25z"/><ellipse cx="18.5" cy="20.5" fill="#ffbca7" rx="2.5" ry="3.5"/><ellipse cx="18.537" cy="20.67" fill="#f5e9e8" rx="2.494" ry="1.5" transform="rotate(-20.199 18.537 20.67)"/><ellipse cx="29.5" cy="20.5" fill="#ffbca7" rx="2.5" ry="3.5"/><ellipse cx="29.465" cy="20.671" fill="#f5e9e8" rx="1.5" ry="2.494" transform="rotate(-69.8 29.465 20.671)"/><path fill="#43a047" d="M20.877,19.809c-0.286-0.777-1.566-1.022-2.859-0.547c-0.383,0.141-0.716,0.332-0.999,0.547 C17.013,19.874,17,19.935,17,20c0,1.105,0.895,2,2,2c0.104,0,0.203-0.015,0.302-0.031C20.446,21.461,21.144,20.535,20.877,19.809z"/><path fill="#43a047" d="M31,20c0-0.065-0.013-0.126-0.019-0.19c-0.283-0.215-0.617-0.407-0.999-0.547 c-1.293-0.476-2.573-0.231-2.859,0.547c-0.267,0.725,0.431,1.652,1.575,2.16C28.797,21.985,28.896,22,29,22 C30.105,22,31,21.105,31,20z"/><circle cx="19" cy="20" r="1" fill="#212121"/><circle cx="29" cy="20" r="1" fill="#212121"/><path fill="#ffbca7" d="M24.478,41.275c-0.865,0-1.73-0.329-2.389-0.987c-0.529-0.528-0.821-1.232-0.821-1.981 c0-0.748,0.292-1.452,0.821-1.981c0.912-0.912,2.397-0.912,3.312,0l-0.707,0.707c-0.523-0.521-1.374-0.523-1.897,0 c-0.341,0.341-0.528,0.793-0.528,1.274s0.188,0.935,0.528,1.274c0.927,0.925,2.434,0.929,3.362,0 c0.585-0.585,0.907-1.362,0.907-2.19c0-0.827-0.322-1.604-0.907-2.189c-1.51-1.51-4.143-1.51-5.652,0L19.8,34.495 c0.944-0.944,2.199-1.464,3.533-1.464c1.335,0,2.59,0.52,3.533,1.464c0.774,0.773,1.2,1.803,1.2,2.896 c0,1.095-0.426,2.124-1.2,2.897C26.207,40.946,25.342,41.275,24.478,41.275z"/><path fill="#4e342e" d="M14.529,10.537c-1.302,4.962-1.46,20.225-1.46,20.225l2.457-16.893 c0.704-1.476,1.63-3.176,2.778-4.354l2.445-2.511C16.25,6.868,14.983,8.807,14.529,10.537z"/><path fill="#4e342e" d="M34.94,30.897c0,0-0.402-15.399-1.719-20.36C32.762,8.808,31.5,6.868,27,7.004l2.445,2.511 c1.236,1.269,2.233,2.745,2.951,4.354L34.94,30.897z"/><path fill="#6d4c41" d="M19.25,7.875c0,0,6.25,2.375,9-0.25c0,0,2.25-2.375,0-4.5s-3.375-0.25-3.375-0.25 S26.5,2.25,26.75,4.125c0.168,1.259-1.356,1.391-2.375,1.342c-1.107-0.054-2.225,0.071-3.25,0.491 C20.213,6.332,19.361,6.931,19.25,7.875z"/><path fill="#6d4c41" d="M19.125,13L19.125,13c-1.477,0-2.801,1.142-3.329,2.871l-0.421,1.379l0.34-0.355 c0.935-0.976,2.131-1.47,3.346-1.38L21.57,15.7c0.319,0.024,0.542-0.419,0.371-0.758C21.338,13.75,20.283,13,19.125,13z"/><g><path fill="#6d4c41" d="M28.898,13L28.898,13c1.489,0,2.823,1.142,3.355,2.871l0.424,1.379l-0.343-0.355 c-0.942-0.976-2.148-1.47-3.373-1.38L26.432,15.7c-0.322,0.024-0.546-0.419-0.373-0.758C26.667,13.75,27.731,13,28.898,13z"/></g></svg>