<svg xmlns="http://www.w3.org/2000/svg"  viewBox="0 0 48 48" width="1600px" height="1600px"><path fill="#f4511e" d="M37,22c-5.081,6.167,1,23,6,23H31c-5.523,0-13-26.477-13-32S22.477,3,28,3C39,3,41.531,16.5,37,22z"/><path fill="#ff7043" d="M41,18c0,0-1,4,1,8c-2,2-3,5-2,7c0,0-3.341,0.929-7.5-2.5l1.813-7.5C34.313,23,38,22,41,18z"/><path fill="#4dd0e1" d="M33.786,22.023c0.568-0.058,1.288-0.25,1.924-0.477c0.652-0.233,1.299-0.515,1.914-0.865	C38.863,19.996,40.004,19.083,41,18c-0.725,1.277-1.659,2.472-2.791,3.493c-0.562,0.517-1.179,0.977-1.833,1.398	c-0.673,0.42-1.313,0.784-2.162,1.086L33.786,22.023z"/><path fill="#4dd0e1" d="M34.196,26.019c0.57,0.189,1.245,0.343,1.887,0.458c0.651,0.114,1.312,0.194,1.978,0.222	c1.326,0.049,2.688-0.092,3.94-0.7c-1.068,0.894-2.455,1.41-3.855,1.697c-0.703,0.142-1.418,0.23-2.138,0.279	c-0.729,0.044-1.424,0.062-2.204,0.005L34.196,26.019z"/><path fill="#4dd0e1" d="M33.707,30.293c0.287,0.383,0.747,0.824,1.194,1.176c0.46,0.362,0.965,0.675,1.504,0.929	c0.538,0.261,1.119,0.443,1.724,0.544C38.736,33.066,39.362,33.046,40,33c-0.597,0.208-1.229,0.4-1.888,0.442	c-0.657,0.064-1.336,0.037-2.001-0.088c-0.667-0.118-1.327-0.316-1.961-0.586c-0.644-0.284-1.221-0.579-1.857-1.061L33.707,30.293z"/><path fill="#ff7043" d="M7,18c0,0,1,4-1,8c2,2,3,5,2,7c0,0,3.765,0.686,7.5-2.5L13.687,23C13.687,23,10,22,7,18z"/><path fill="#4dd0e1" d="M13.786,23.977c-0.849-0.302-1.489-0.665-2.162-1.086c-0.654-0.42-1.271-0.881-1.833-1.398	C8.659,20.472,7.725,19.277,7,18c0.996,1.083,2.137,1.996,3.376,2.682c0.615,0.35,1.262,0.631,1.914,0.865	c0.636,0.226,1.356,0.418,1.924,0.477L13.786,23.977z"/><path fill="#4dd0e1" d="M14.196,27.981c-0.78,0.057-1.475,0.039-2.204-0.005c-0.72-0.049-1.434-0.137-2.138-0.279	C8.455,27.41,7.068,26.894,6,26c1.252,0.608,2.614,0.749,3.94,0.7c0.665-0.028,1.326-0.108,1.978-0.222	c0.641-0.116,1.316-0.269,1.887-0.458L14.196,27.981z"/><path fill="#4dd0e1" d="M15.707,31.707c-0.636,0.481-1.213,0.776-1.857,1.061c-0.634,0.27-1.294,0.468-1.961,0.586	c-0.665,0.125-1.344,0.152-2.001,0.088C9.229,33.4,8.597,33.208,8,33c0.638,0.046,1.264,0.066,1.871-0.058	c0.605-0.102,1.185-0.284,1.724-0.544c0.54-0.253,1.044-0.567,1.504-0.929c0.446-0.352,0.907-0.794,1.194-1.176L15.707,31.707z"/><path fill="#00acc1" d="M24.004,36.996h-7v8h14v-8H24.004z"/><path fill="#4dd0e1" d="M24,8c-8,0-11,6.477-11,12l1,10.702c0,3.321,1.62,6.433,4.341,8.337l3.003,2.102	c1.595,1.116,3.717,1.116,5.312,0l3.002-2.102C32.379,37.135,34,34.022,34,30.701L35,20C35,14.477,32,8,24,8z"/><path fill="#ff7043" d="M14,21c0,0,0,2,1,3.296C16,26,20,25,20,25s3,0,3-2c-3-1-4-3-6-3S14,21,14,21z"/><path fill="#ffee58" d="M21.004,25.996c0,0-0.6-3-3.2-3c-2.2,0-2.8,1.3-2.8,1.3s0.9,1.704,2.5,1.704	C19.104,26,19.004,25.996,21.004,25.996z"/><path fill="#424242" d="M17.008,24.496c0,0.8,0.465,1.5,0.996,1.5s0.996-0.7,0.996-1.5c0-0.2,0-0.5-0.133-0.7	c-0.266-0.4-0.598-0.7-1.062-0.8l0,0C17.34,23.196,17.008,23.796,17.008,24.496z"/><path fill="#424242" d="M21.004,25.996c0,0-0.6-3-3.2-3c-2.2,0-2.8,1.3-2.8,1.3s0-0.3,3-0.3	C19.604,23.996,21.004,25.996,21.004,25.996z"/><path fill="#424242" d="M23.004,22.996c-2.7-1.3-4-4-6-4S14,21,14,21s2-1,4,0C19.61,21.805,20.804,22.996,23.004,22.996z"/><path fill="#ff7043" d="M34,21c0,0,0,2-1,3.296C32,26,28,25,28,25s-3,0-3-2c3-1,4-3,6-3S34,21,34,21z"/><path fill="#ffee58" d="M30.496,26c1.6,0,2.5-1.704,2.5-1.704s-0.6-1.3-2.8-1.3c-2.6,0-3.2,3-3.2,3	C28.996,25.996,28.896,26,30.496,26z"/><path fill="#424242" d="M30.195,22.996L30.195,22.996c-0.465,0.1-0.797,0.4-1.062,0.8C29,23.996,29,24.296,29,24.496	c0,0.8,0.465,1.5,0.996,1.5c0.531,0,0.996-0.7,0.996-1.5C30.992,23.796,30.66,23.196,30.195,22.996z"/><path fill="#424242" d="M29.996,23.996c3,0,3,0.3,3,0.3s-0.6-1.3-2.8-1.3c-2.6,0-3.2,3-3.2,3S28.396,23.996,29.996,23.996z"/><path fill="#424242" d="M30,21c2-1,4,0,4,0s-1.004-2.004-3.004-2.004s-3.3,2.7-6,4C27.196,22.996,28.39,21.805,30,21z"/><path fill="#ffee58" d="M24,34c-2.004,0.004-6.996-2.004-6.996-2.004s3.996,5.004,7,5.5c2.996-0.496,7-5.5,7-5.5	S25.996,33.996,24,34z"/><path fill="#00acc1" d="M17,32c0.006,0.005,0.013,0.012,0.019,0.018c-0.001-0.001-0.003-0.004-0.003-0.004 C17.011,32.009,17.004,32.004,17,32z"/><path fill="#00acc1" d="M24,33c-2.012,0-6.996-1.004-6.996-1.004s0.01,0.014,0.012,0.017 c1.022,0.996,4.993,1.987,6.99,1.983C26,33.992,30,33,31,32c-1.403,1.312-5,4.992-6.996,4.996 c-1.996,0.004-5.571-3.654-6.985-4.978c0.157,0.233,4.046,5.978,6.985,5.978c3,0,7-6,7-6S25.996,32.996,24,33z"/><path fill="#424242" d="M25,23c0,0,5.531-2.708,8.765-0.354C33.235,25.354,32,28,30,28S25,26,25,23z"/><path fill="#424242" d="M26.86,22.49l-1.72,1.02c-2.61-4.34-8.44-10.36-9.64-11.58c0.4-0.53,0.86-1.03,1.37-1.48	C17.94,11.54,24.04,17.8,26.86,22.49z"/><path fill="#424242" d="M35,20l-0.17,1.82l-2.17,1.93l-1.32-1.5l3.62-3.22C34.99,19.35,35,19.68,35,20z"/></svg>