<svg xmlns="http://www.w3.org/2000/svg"  viewBox="0 0 48 48" width="1600px" height="1600px"><path fill="#c8e6c9" d="M4 8H44V40H4z"/><path fill="#43a047" d="M4 8v6c3.3 0 6-2.7 6-6H4zM44 8h-6c0 3.3 2.7 6 6 6V8zM44 40v-6c-3.3 0-6 2.7-6 6H44zM4 40h6c0-3.3-2.7-6-6-6V40z"/><path fill="#43a047" d="M45,41H3V7h42V41z M5,39h38V9H5V39z"/><path fill="#8d6e63" d="M12 30H36V32H12zM17 34H31V36H17z"/><path fill="#66bb6a" d="M11 17H17V22H11zM32 17H38V22H32z"/><path fill="#2e7d32" d="M27.6,21.6c0,2.6-2.5,2.9-3,2.9V26h-1.1v-1.5c-0.4,0-3.2-0.3-3.2-3.5h2.1c0,0.3,0,1.8,1.6,1.8 c1.4,0,1.4-1.1,1.4-1.3c0-2.3-4.8-1.4-4.8-5.1c0-2.2,2-2.9,3-2.9V12h1.2v1.6c0.7,0.1,2.8,0.6,2.8,3.4h-2.1c0-0.6-0.1-1.8-1.4-1.8 c-1.2,0.1-1.2,1.2-1.2,1.4C22.9,18.7,27.6,17.9,27.6,21.6"/></svg>