<svg xmlns="http://www.w3.org/2000/svg"  viewBox="0 0 48 48" width="1600px" height="1600px"><polygon fill="#4caf50" points="16,32 21.095,31.994 32,16 26.958,16"/><path fill="#4caf50" d="M11.841,22.68c0.627-0.366,1.153-0.94,1.159-1.665C13,21.01,13,13,13,13c0-0.552,0.448-1,1-1h2V8h-2 c-2.761,0-5,2.239-5,5v5.838C9,20.726,7.792,22.403,6,23l0,0v2l0,0c1.792,0.597,3,2.274,3,4.162V35c0,2.761,2.239,5,5,5h2v-4h-2 c-0.552,0-1-0.448-1-1c0,0,0-8.011,0-8.016c-0.006-0.725-0.532-1.298-1.158-1.663C11.353,25.035,10,24,10,24 S11.352,22.966,11.841,22.68z"/><path fill="#4caf50" d="M36.159,22.68c-0.627-0.366-1.153-0.94-1.159-1.665C35,21.01,35,13,35,13c0-0.552-0.448-1-1-1h-2V8 h2c2.761,0,5,2.239,5,5v5.838c0,1.888,1.208,3.565,3,4.162l0,0v2l0,0c-1.792,0.597-3,2.274-3,4.162V35c0,2.761-2.239,5-5,5h-2v-4h2 c0.552,0,1-0.448,1-1c0,0,0-8.011,0-8.016c0.006-0.725,0.532-1.298,1.158-1.663C36.647,25.035,38,24,38,24 S36.648,22.966,36.159,22.68z"/></svg>