<svg xmlns="http://www.w3.org/2000/svg"  viewBox="0 0 48 48" width="1600px" height="1600px"><path fill="#29b6f6" d="M34,42h-6l-4,5l-4-5h-6c-4.418,0-8-3.582-8-8V14c0-4.418,3.582-8,8-8h20c4.418,0,8,3.582,8,8v20 C42,38.418,38.418,42,34,42z"/><rect width="3" height="14" x="19" y="13" fill="#eceff1"/><rect width="3" height="14" x="26" y="13" fill="#eceff1"/><rect width="3" height="14" x="22.5" y="9.5" fill="#eceff1" transform="rotate(90 24 16.5)"/><rect width="3" height="14" x="22.5" y="16.5" fill="#eceff1" transform="rotate(90 24 23.5)"/><path fill="#eceff1" d="M24,36c-4.749,0-9.267-2.475-12.085-6.621c-0.466-0.685-0.288-1.618,0.396-2.084 c0.686-0.463,1.618-0.288,2.084,0.397C16.688,31.065,20.189,33,24,33s7.312-1.935,9.604-5.307c0.467-0.687,1.399-0.861,2.084-0.397 c0.685,0.466,0.862,1.399,0.396,2.084C33.267,33.525,28.749,36,24,36z"/></svg>