<svg xmlns="http://www.w3.org/2000/svg"  viewBox="0 0 48 48" width="1600px" height="1600px"><path fill="#37474F" d="M19.041,4.967c-1.201-0.273-2.184-0.164-3.22,0.382c-1.147,0.71-1.802,1.802-2.075,3.331c-0.273,1.582,0,3.111,0.819,4.64l0.382,0.546l-1.31-0.438c-1.638-0.382-3.167-0.164-4.695,0.655c-1.583,0.819-2.566,1.966-3.221,3.549c-0.601,1.529-0.545,3.003,0.218,4.367c0.328,0.601,0.819,1.092,1.255,1.419c0.655,0.655,1.475,1.038,2.457,1.201l0.382,0.109l-0.819,0.709c-0.765,0.656-1.201,1.475-1.474,2.293c-0.273,0.982-0.164,1.965,0.382,2.894c0.273,0.437,0.545,0.819,0.982,1.092c0.437,0.382,0.983,0.655,1.638,0.709c1.201,0.273,2.457,0.273,3.821-0.164l-0.983,1.638l-0.273,0.71c-0.545,1.747-0.382,3.276,0.437,4.858c0.382,0.601,0.819,1.147,1.256,1.638c0.655,0.601,1.474,0.982,2.457,1.256c1.638,0.437,3.276,0.382,4.859-0.437c1.529-0.819,2.511-2.13,3.003-3.768l0.055-0.328c1.036,1.147,2.02,1.911,3.111,2.185c1.092,0.327,2.184,0.272,3.166-0.382c0.929-0.547,1.584-1.475,1.911-2.621c0.272-1.201,0.272-2.402,0-3.767c0.546,0.382,1.091,0.654,1.747,0.819c1.746,0.545,3.274,0.49,4.803-0.328c1.475-0.818,2.457-2.13,2.949-3.822c0.437-1.637,0.327-3.22-0.492-4.748l-0.272-0.438c-0.437-0.655-0.874-1.311-1.528-1.746c-0.546-0.383-1.201-0.655-1.802-0.929c1.692-0.819,2.894-1.965,3.439-3.439c0.382-1.201,0.272-2.184-0.272-3.166v-0.109c-0.655-1.093-1.529-1.802-2.893-2.184c-0.82-0.164-1.748-0.164-2.566-0.109l-1.802,0.382l0.601-1.364c0.547-1.747,0.383-3.439-0.546-5.022l-0.163-0.272c-0.82-1.365-2.021-2.184-3.658-2.62c-1.691-0.438-3.275-0.273-4.804,0.545c-1.528,0.819-2.62,2.075-3.111,3.713v0.109l-0.055,0.382l-0.218-0.382L22.372,7.53C21.497,6.168,20.405,5.349,19.041,4.967L19.041,4.967z M32.962,8.242c0.272,0.546,0.437,1.201,0.437,1.91l-0.164,1.201c-0.218,0.601-0.491,1.146-0.818,1.638l-4.914,6.006c-0.49-0.382-1.037-0.655-1.583-0.929L25.373,11.9l-0.055-2.184l0.055-0.546c0.273-1.091,1.037-1.91,2.021-2.456c0.981-0.546,2.074-0.655,3.11-0.273C31.651,6.714,32.471,7.314,32.962,8.242L32.962,8.242z M16.038,9.334c0.055-0.982,0.437-1.637,1.091-2.02c0.328-0.272,0.819-0.272,1.255-0.055c0.983,0.273,1.801,0.983,2.457,2.348c0.273,0.546,0.546,1.092,0.655,1.747l1.092,6.441l-0.819,0.273l-4.858-5.296l-0.273-0.545C16.202,11.245,15.929,10.317,16.038,9.334L16.038,9.334L16.038,9.334z M13.09,15.721l1.475,0.602l4.804,3.494c-0.437,0.545-0.709,1.091-0.873,1.637l-7.861,0.983l-0.546-0.109c-0.983-0.164-1.638-0.601-2.074-1.419c-0.437-0.819-0.437-1.638-0.109-2.457c0.382-1.037,1.092-1.856,2.129-2.293C11.016,15.612,11.998,15.448,13.09,15.721L13.09,15.721L13.09,15.721z M18.276,24.619l0.382,1.092l0.164,0.383c-0.819,0.709-1.42,1.364-2.074,1.965l-1.638,1.365l-0.437,0.273c-1.037,0.49-1.911,0.655-2.839,0.545c-0.819-0.055-1.474-0.327-1.747-0.818l-0.164-0.601l0.109-0.491c0.273-0.819,0.983-1.637,2.239-2.238c0.655-0.273,1.201-0.546,1.638-0.655L18.276,24.619L18.276,24.619z M35.309,15.775c0.982-0.437,1.91-0.546,2.894-0.437c0.929,0.109,1.583,0.546,1.911,1.201l0.218,0.709l-0.109,0.546c-0.382,0.983-1.201,1.747-2.565,2.348c-0.546,0.273-1.146,0.382-1.802,0.49l-6.714,0.819l-0.109-0.382l-0.109-0.163l0.219-0.273l5.514-4.585L35.309,15.775L35.309,15.775z M21.388,20.962c0.655-0.601,1.528-0.982,2.566-0.982c0.982,0,1.91,0.383,2.511,0.982c0.765,0.765,1.092,1.583,1.092,2.565s-0.327,1.911-1.092,2.566c-0.709,0.709-1.528,1.092-2.511,1.092c-1.038,0-1.911-0.383-2.566-1.092c-0.71-0.655-1.092-1.584-1.092-2.566S20.678,21.727,21.388,20.962L21.388,20.962z M22.644,28.878c0.109,1.856,0.273,3.821,0.546,5.951v2.184l-0.055,0.546c-0.382,0.982-1.038,1.801-2.02,2.238c-0.982,0.546-2.02,0.654-3.003,0.382c-1.091-0.272-1.911-0.927-2.347-1.801c-0.273-0.546-0.492-1.201-0.492-1.856l0.273-1.255c0.109-0.546,0.382-1.093,0.819-1.529l4.585-5.459C21.497,28.551,22.043,28.823,22.644,28.878L22.644,28.878z M26.848,28.168l2.293,2.348l1.418,1.746l0.273,0.547c0.492,0.928,0.765,1.802,0.655,2.839c-0.108,0.983-0.437,1.692-1.091,1.966c-0.383,0.272-0.819,0.272-1.256,0.217c-1.037-0.271-1.856-1.091-2.457-2.401l-0.654-1.801l-0.82-4.75l0.93-0.327L26.848,28.168L26.848,28.168z M29.304,24.783l6.169-0.545l2.184-0.055l0.547,0.055c0.818,0.272,1.583,0.764,2.02,1.582c0.545,0.602,0.818,1.42,0.818,2.348l-0.164,1.092c-0.272,1.093-0.928,1.911-1.855,2.348c-0.983,0.546-1.966,0.654-3.058,0.272c-0.655-0.163-1.092-0.437-1.474-0.872l-5.732-4.75l0.382-0.818L29.304,24.783L29.304,24.783L29.304,24.783z"/><path fill="#8BC34A" d="M32.962,8.242c0.272,0.546,0.437,1.201,0.437,1.91l-0.164,1.201c-0.218,0.601-0.491,1.146-0.818,1.638l-4.914,6.006c-0.49-0.382-1.037-0.655-1.583-0.929L25.373,11.9l-0.055-2.184l0.055-0.546c0.273-1.091,1.037-1.91,2.021-2.456c0.981-0.546,2.074-0.655,3.11-0.273C31.651,6.714,32.471,7.314,32.962,8.242L32.962,8.242z M16.038,9.334c0.055-0.982,0.437-1.637,1.091-2.02c0.328-0.272,0.819-0.272,1.255-0.055c0.983,0.273,1.801,0.983,2.457,2.348c0.273,0.546,0.546,1.092,0.655,1.747l1.092,6.441l-0.819,0.273l-4.858-5.296l-0.273-0.545C16.202,11.245,15.929,10.317,16.038,9.334L16.038,9.334L16.038,9.334z M13.09,15.721l1.475,0.602l4.804,3.494c-0.437,0.545-0.709,1.091-0.873,1.637l-7.861,0.983l-0.546-0.109c-0.983-0.164-1.638-0.601-2.074-1.419c-0.437-0.819-0.437-1.638-0.109-2.457c0.382-1.037,1.092-1.856,2.129-2.293C11.016,15.612,11.998,15.448,13.09,15.721L13.09,15.721L13.09,15.721z M35.309,15.775c0.982-0.437,1.91-0.546,2.894-0.437c0.929,0.109,1.583,0.546,1.911,1.201l0.218,0.709l-0.109,0.546c-0.382,0.983-1.201,1.747-2.565,2.348c-0.546,0.273-1.146,0.382-1.802,0.49l-6.714,0.819l-0.109-0.382l-0.109-0.163l0.219-0.273l5.514-4.585L35.309,15.775L35.309,15.775z M22.644,28.878c0.109,1.856,0.273,3.821,0.546,5.951v2.184l-0.055,0.546c-0.382,0.982-1.038,1.801-2.02,2.238c-0.982,0.546-2.02,0.654-3.003,0.382c-1.091-0.272-1.911-0.927-2.347-1.801c-0.273-0.546-0.492-1.201-0.492-1.856l0.273-1.255c0.109-0.546,0.382-1.093,0.819-1.529l4.585-5.459C21.497,28.551,22.043,28.823,22.644,28.878L22.644,28.878z M26.848,28.168l2.293,2.348l1.418,1.746l0.273,0.547c0.492,0.928,0.765,1.802,0.655,2.839c-0.108,0.983-0.437,1.692-1.091,1.966c-0.383,0.272-0.819,0.272-1.256,0.217c-1.037-0.271-1.856-1.091-2.457-2.401l-0.654-1.801l-0.82-4.75l0.93-0.327L26.848,28.168L26.848,28.168z M29.304,24.783l6.169-0.545l2.184-0.055l0.547,0.055c0.818,0.272,1.583,0.764,2.02,1.582c0.545,0.602,0.818,1.42,0.818,2.348l-0.164,1.092c-0.272,1.093-0.928,1.911-1.855,2.348c-0.983,0.546-1.966,0.654-3.058,0.272c-0.655-0.163-1.092-0.437-1.474-0.872l-5.732-4.75l0.382-0.818L29.304,24.783L29.304,24.783z"/><path fill="#FF3D00" d="M18.276,24.619l0.382,1.092l0.164,0.383c-0.819,0.709-1.42,1.364-2.074,1.965l-1.638,1.365l-0.437,0.273c-1.037,0.49-1.911,0.655-2.839,0.545c-0.819-0.055-1.474-0.327-1.747-0.818l-0.164-0.601l0.109-0.491c0.273-0.819,0.983-1.637,2.239-2.238c0.655-0.273,1.201-0.546,1.638-0.655L18.276,24.619L18.276,24.619z"/><path fill="#FFEB3B" d="M21.388,20.962c0.655-0.601,1.528-0.982,2.566-0.982c0.982,0,1.91,0.383,2.511,0.982c0.765,0.765,1.092,1.583,1.092,2.565s-0.327,1.911-1.092,2.566c-0.709,0.709-1.528,1.092-2.511,1.092c-1.038,0-1.911-0.383-2.566-1.092c-0.71-0.655-1.092-1.584-1.092-2.566S20.678,21.727,21.388,20.962L21.388,20.962z"/></svg>