<svg xmlns="http://www.w3.org/2000/svg"  viewBox="0 0 48 48" width="1600px" height="1600px"><path fill="#64dd17" d="M11,46L11,46c-2.209,0-4-1.791-4-4V6c0-2.209,1.791-4,4-4h0c2.209,0,4,1.791,4,4v36 C15,44.209,13.209,46,11,46z"/><path fill="#64dd17" d="M29,45.392L29,45.392c-1.913,1.105-4.36,0.449-5.464-1.464l-8-13.856 c-1.105-1.913-0.449-4.36,1.464-5.464l0,0c1.913-1.105,4.36-0.449,5.464,1.464l8,13.856C31.569,41.841,30.913,44.288,29,45.392z"/><path fill="#64dd17" d="M9.747 35.753L9.747 35.753c-1.562-1.562-1.562-4.095 0-5.657l14.849-14.849c1.562-1.562 4.095-1.562 5.657 0l0 0c1.562 1.562 1.562 4.095 0 5.657L15.404 35.753C13.842 37.315 11.309 37.315 9.747 35.753zM38 27A4 4 0 1 0 38 35 4 4 0 1 0 38 27z"/></svg>