<svg xmlns="http://www.w3.org/2000/svg"  viewBox="0 0 48 48" width="1600px" height="1600px"><path fill="#ffc107" d="M27.103,5.312c-0.06-0.681-0.408-3.24-2.294-3.595c-0.452-0.085-1.279,0.421,0.587,1.767 c-0.204-0.152-1.836-1.323-2.187-0.126c-0.086,0.292-0.28,0.84,1.559,1.349c0,0-1.565-0.505-1.639,0.417 C23.624,5.051,24.124,5,24.636,5C25.482,5,26.305,5.115,27.103,5.312z"/><path fill="#ffc107" d="M35.457,19.694c-0.239-0.795-0.8-4.07-0.8-4.07C33.808,10.154,29.686,6,24.717,6 C19.135,6,14.61,11.24,14.61,17.704c0,0.44,0.028,0.872,0.07,1.299c0.061,0.006,0.123,0.021,0.181,0.052 c2.33,1.185,4.481,5.144,3.577,7.904c-0.485,1.479-1.908,3.047-5.759,3.047c-0.809,0-1.733-0.074-2.771-0.228 c-2.176,0.229-1.682,1.758-1.682,1.758c1.621,4.864,7.556,6.636,10.295,7.206L19.94,43h-1.306c-0.276,0-0.5,0.224-0.5,0.5 s0.224,0.5,0.5,0.5h1.793l1.854,1.854C22.378,45.951,22.506,46,22.634,46s0.256-0.049,0.354-0.146c0.195-0.195,0.195-0.512,0-0.707 L21.841,44h1.793c0.276,0,0.5-0.224,0.5-0.5s-0.224-0.5-0.5-0.5h-2.64l-1.352-4.056c0.171,0.025,0.288,0.04,0.288,0.04 c2.309,0.385,4.295,0.342,6.015,0.03L26.94,42h-1.306c-0.276,0-0.5,0.224-0.5,0.5s0.224,0.5,0.5,0.5h1.793l1.854,1.854 C29.378,44.951,29.506,45,29.634,45s0.256-0.049,0.354-0.146c0.195-0.195,0.195-0.512,0-0.707L28.841,43h1.793 c0.276,0,0.5-0.224,0.5-0.5s-0.224-0.5-0.5-0.5h-2.64l-1.066-3.198c3.968-1.023,6.322-3.562,7.61-5.574 C35.844,30.553,37.382,26.112,35.457,19.694z"/><path fill="#ffc107" d="M17.487,26.647c0.754-2.303-1.084-5.442-2.799-6.537c-1.409,1.986-3.894,5.793-4.538,8.684 C14.229,29.377,16.837,28.631,17.487,26.647z"/><path fill="#ffc107" d="M36.784,21.48c0.541,3.667,0.376,6.583-0.141,8.876C40.665,29.547,40.049,25.489,36.784,21.48z"/><circle cx="24" cy="16" r="1" fill="#212121"/><circle cx="31" cy="16" r="1" fill="#212121"/><path fill="#c62828" d="M25.881,18.306l1.53-0.755c0.071-0.035,0.154-0.034,0.225,0.002l1.474,0.758	c0.179,0.092,0.181,0.348,0.004,0.443l-1.447,0.775c-0.072,0.038-0.157,0.04-0.23,0.003l-1.557-0.778	C25.695,18.661,25.695,18.397,25.881,18.306z"/></svg>