<svg xmlns="http://www.w3.org/2000/svg"  viewBox="0 0 48 48" width="1600px" height="1600px"><path fill="#424242" d="M24,4c-5.514,0-10,4.486-10,10v4h4v-4c0-3.309,2.691-6,6-6s6,2.691,6,6v4h4v-4C34,8.486,29.514,4,24,4"/><path fill="#8BC34A" d="M37,44H11c-2.209,0-4-1.791-4-4V22c0-2.209,1.791-4,4-4h26c2.209,0,4,1.791,4,4v18C41,42.209,39.209,44,37,44"/><path fill="#F1F8E9" d="M17 31c0 1.657-1.343 3-3 3s-3-1.343-3-3 1.343-3 3-3S17 29.343 17 31M37 31c0 1.657-1.343 3-3 3s-3-1.343-3-3 1.343-3 3-3S37 29.343 37 31M27 31c0 1.657-1.343 3-3 3s-3-1.343-3-3 1.343-3 3-3S27 29.343 27 31"/></svg>