<svg xmlns="http://www.w3.org/2000/svg"  viewBox="0 0 48 48" width="1600px" height="1600px"><path fill="#2196f3" d="M9,6h30c1.657,0,3,1.343,3,3v30c0,1.657-1.343,3-3,3H9c-1.657,0-3-1.343-3-3V9C6,7.343,7.343,6,9,6z"/><path fill="#b3e5fc" d="M14,39.5c-0.094,0-0.188-0.027-0.269-0.078c-0.118-0.075-0.199-0.197-0.224-0.335l-0.436-2.462 l0.984-0.174l0.341,1.924l1.887-0.507l0.26,0.966l-2.414,0.648C14.087,39.494,14.043,39.5,14,39.5z"/><path fill="#b3e5fc" d="M12.699,34.898c-0.3-1.011-0.743-1.918-1.317-2.697c-0.28-0.38-0.541-0.771-0.783-1.172 l0.857-0.516c0.225,0.375,0.47,0.74,0.73,1.095c0.644,0.872,1.139,1.883,1.472,3.006L12.699,34.898z M9.731,29.356 c-0.638-1.451-1.032-2.98-1.173-4.546l0.996-0.09c0.131,1.458,0.499,2.882,1.093,4.233L9.731,29.356z"/><path fill="#b3e5fc" d="M24.6,38.489l-0.037-0.999c1.478-0.055,2.929-0.325,4.313-0.803l0.326,0.945 C27.725,38.142,26.176,38.431,24.6,38.489z M22.72,38.449c-0.296-0.024-0.59-0.056-0.883-0.097 c-1.269-0.173-2.447-0.162-3.52,0.036l-0.182-0.983c1.178-0.217,2.461-0.231,3.838-0.043c0.273,0.038,0.55,0.068,0.826,0.09 L22.72,38.449z M30.939,36.914l-0.438-0.899c1.328-0.645,2.543-1.481,3.612-2.485l0.686,0.729 C33.656,35.332,32.357,36.225,30.939,36.914z M36.088,32.888l-0.77-0.64c0.947-1.139,1.699-2.404,2.236-3.761l0.93,0.368 C37.908,30.311,37.103,31.667,36.088,32.888z M39.063,27.06l-0.971-0.244c0.271-1.074,0.407-2.182,0.407-3.294 c0-0.357-0.014-0.711-0.041-1.061l0.996-0.078c0.029,0.376,0.045,0.755,0.045,1.139C39.5,24.716,39.353,25.906,39.063,27.06z M9.512,22.957l-1-0.041c0.065-1.58,0.387-3.126,0.953-4.598l0.934,0.359C9.871,20.047,9.572,21.487,9.512,22.957z M38.209,20.724 c-0.304-1.43-0.837-2.801-1.585-4.074l0.861-0.507c0.804,1.367,1.376,2.838,1.702,4.374L38.209,20.724z M11.131,17.083 l-0.879-0.476c0.745-1.377,1.703-2.63,2.848-3.725l0.691,0.723C12.722,14.627,11.826,15.797,11.131,17.083z M35.639,15.194 c-0.894-1.158-1.963-2.173-3.178-3.018l0.57-0.821c1.3,0.903,2.442,1.989,3.398,3.229L35.639,15.194z M15.134,12.467l-0.598-0.801 c1.257-0.939,2.646-1.683,4.13-2.21l0.336,0.942C17.612,10.893,16.311,11.588,15.134,12.467z M30.957,11.26 c-1.298-0.688-2.69-1.176-4.14-1.452l0.188-0.982c1.547,0.295,3.034,0.817,4.421,1.551L30.957,11.26z M20.693,9.91l-0.221-0.976 c1.519-0.343,3.121-0.461,4.669-0.351l-0.07,0.997C23.621,9.479,22.117,9.589,20.693,9.91z"/><path fill="#fff" d="M24,12.043c-6.627,0-12,5.139-12,11.478c0,3.395,1.55,6.437,4,8.538V36l3.608-1.804	C20.97,34.709,22.448,35,24,35c6.627,0,12-5.139,12-11.478C36,17.182,30.627,12.043,24,12.043z"/></svg>