<svg xmlns="http://www.w3.org/2000/svg"  viewBox="0 0 48 48" width="1600px" height="1600px"><path fill="#fff" d="M24.2,41.8c-0.1,0-0.2,0-0.3,0c-0.1,0-0.1,0-0.2,0c-2.3,0-3.7-1-5.1-2c-1-0.7-1.9-1.3-2.9-1.5 c-0.5-0.1-1-0.1-1.6-0.1c-0.9,0-1.6,0.1-2.1,0.2c-0.3,0.1-0.6,0.1-0.8,0.1c-0.2,0-0.5,0-0.6-0.4c-0.1-0.3-0.2-0.6-0.2-0.9 c-0.2-0.7-0.3-1.2-0.6-1.2c-3.6-0.6-4.6-1.3-4.8-1.8C5,34.1,5,34.1,5,34c0-0.2,0.1-0.4,0.3-0.4c5.5-0.9,7.9-6.5,8.1-6.8 c0,0,0,0,0,0c0.3-0.7,0.4-1.3,0.2-1.8c-0.4-0.9-1.6-1.3-2.4-1.5c-0.2-0.1-0.4-0.1-0.5-0.2C9,22.7,8.9,22,8.9,21.7 c0.1-0.6,0.9-1,1.5-1c0.2,0,0.3,0,0.4,0.1c0.7,0.3,1.4,0.5,2,0.5c0.8,0,1.1-0.3,1.2-0.4c0-0.4,0-0.8-0.1-1.2 c-0.2-2.6-0.4-5.8,0.5-7.7c2.5-5.5,7.7-5.9,9.2-5.9c0,0,0.7,0,0.7,0h0.1c1.5,0,6.8,0.4,9.2,5.9c0.8,1.8,0.6,5.1,0.5,7.7l0,0.1 c0,0.4,0,0.7-0.1,1c0,0,0.4,0.3,1.1,0.4c0.5,0,1.2-0.2,1.8-0.5c0.2-0.1,0.4-0.1,0.6-0.1c0.2,0,0.5,0,0.7,0.1l0,0 c0.6,0.2,0.9,0.6,0.9,1c0,0.4-0.3,1-1.7,1.5c-0.1,0.1-0.3,0.1-0.5,0.2c-0.8,0.3-2,0.6-2.4,1.5c-0.2,0.5-0.1,1.1,0.2,1.8 c0,0,0,0,0,0c0.1,0.2,2.6,5.8,8.1,6.8c0.2,0,0.4,0.2,0.3,0.4c0,0.1,0,0.2-0.1,0.2c-0.2,0.5-1.2,1.3-4.8,1.8 c-0.3,0-0.4,0.4-0.6,1.2c-0.1,0.3-0.1,0.6-0.2,0.9c-0.1,0.3-0.2,0.4-0.5,0.4h0c-0.2,0-0.5,0-0.8-0.1c-0.6-0.1-1.3-0.2-2.1-0.2 c-0.5,0-1,0-1.5,0.1c-1.1,0.2-2,0.8-2.9,1.5C27.9,40.8,26.5,41.8,24.2,41.8z"/><path fill="#607d8b" d="M24.2,42.8c-0.1,0-0.2,0-0.3,0c-0.1,0-0.1,0-0.2,0c-2.6,0-4.2-1.2-5.7-2.2 c-0.9-0.6-1.7-1.2-2.5-1.3c-1.4-0.2-2.5-0.1-3.3,0.1c-0.4,0.1-0.7,0.1-1,0.1c-1.1,0-1.4-0.8-1.5-1.1c-0.1-0.3-0.2-0.6-0.2-1 c0-0.1-0.1-0.3-0.1-0.5c-3.1-0.5-4.7-1.3-5.2-2.4C4.1,34.4,4,34.2,4,34c0-0.7,0.5-1.3,1.2-1.5c4.8-0.8,7-5.5,7.3-6.2 c0,0,0-0.1,0-0.1c0.1-0.2,0.3-0.6,0.2-0.9c-0.2-0.5-1.2-0.8-1.8-1c-0.3-0.1-0.5-0.1-0.6-0.2C8,23.3,7.8,22.1,8,21.5 c0.3-1.5,2.2-2.1,3.3-1.6c0.7,0.3,1.3,0.4,1.7,0.4c0-0.2,0-0.3,0-0.5c-0.2-2.7-0.4-6.1,0.5-8.1c2.7-6.1,8.4-6.5,10.1-6.5l0.7,0 c0,0,0.1,0,0.1,0c1.7,0,7.4,0.5,10.1,6.5c0.9,2.1,0.7,5.4,0.5,8.1l0,0.5c0,0,0,0,0.1,0c0.3,0,0.8-0.2,1.4-0.4 c0.4-0.2,0.7-0.2,1-0.2c0.4,0,0.7,0.1,1,0.2c0.9,0.3,1.5,1.1,1.5,1.9c0,1-0.8,1.8-2.3,2.5c-0.2,0.1-0.4,0.1-0.6,0.2 c-0.6,0.2-1.6,0.5-1.8,1c-0.1,0.2,0,0.5,0.2,0.9c0,0,0,0.1,0,0.1c0.3,0.7,2.6,5.4,7.3,6.1c0.7,0.1,1.2,0.8,1.2,1.5 c0,0.3-0.1,0.4-0.2,0.6c-0.5,1.1-2.1,1.8-5.2,2.3c0,0.2-0.1,0.4-0.1,0.5c-0.1,0.3-0.1,0.6-0.2,0.9c-0.2,0.7-0.7,1.1-1.5,1.1 c-0.3,0-0.6,0-1-0.1c-0.8-0.2-1.9-0.3-3.3-0.1c-0.8,0.1-1.6,0.7-2.5,1.3C28.5,41.7,26.8,42.8,24.2,42.8z M23.9,40.8 C24,40.8,24,40.8,23.9,40.8c0.1,0,0.2,0,0.3,0c1.9,0,3.2-0.9,4.5-1.8c1-0.7,2.1-1.5,3.4-1.7c0.6-0.1,1.2-0.1,1.7-0.1 c0.9,0,1.7,0.1,2.3,0.2c0.1,0,0.2,0,0.3,0.1c0-0.1,0.1-0.3,0.1-0.4c0.2-0.9,0.4-1.9,1.4-2c1.7-0.3,2.7-0.6,3.3-0.8 c-5.2-1.5-7.5-6.8-7.6-7.1c-0.6-1.2-0.4-2-0.2-2.6c0.6-1.3,2.1-1.8,3-2.1c0.2-0.1,0.3-0.1,0.5-0.2c0.6-0.2,0.9-0.4,1-0.5 c0,0-0.1-0.1-0.2-0.1c-0.2-0.1-0.5-0.1-0.5-0.1c-0.8,0.4-1.5,0.6-2.2,0.6c-1.1,0-1.6-0.5-1.8-0.7c-0.2-0.2-0.3-0.5-0.3-0.8 l0.1-1.1c0.1-2.4,0.4-5.6-0.4-7.2c-2.2-5-6.9-5.4-8.3-5.4l-0.8,0c-1.4,0-6.1,0.4-8.3,5.4c-0.7,1.6-0.5,4.7-0.4,7.2 c0,0.4,0.1,0.8,0.1,1.2c0,0.3-0.1,0.5-0.3,0.7c-0.1,0.2-0.7,0.7-1.9,0.7c-0.7,0-1.5-0.2-2.4-0.6c-0.2,0-0.3,0.1-0.4,0.1 c0.1,0.1,0.4,0.3,1,0.5c0.1,0.1,0.3,0.1,0.5,0.2c1,0.3,2.5,0.8,3.1,2.1c0.3,0.8,0.3,1.6-0.2,2.6c0,0,0,0,0,0 c-0.3,0.6-2.6,5.6-7.6,7c0.6,0.2,1.6,0.5,3.3,0.8c1,0.2,1.2,1.2,1.4,2c0,0.2,0.1,0.3,0.1,0.5c0.1,0,0.2,0,0.3-0.1 c0.6-0.1,1.4-0.3,2.4-0.3c0.5,0,1.1,0,1.7,0.1c1.3,0.2,2.4,1,3.4,1.7c1.3,0.9,2.6,1.8,4.5,1.8C23.8,40.8,23.9,40.8,23.9,40.8z M11.6,37.9C11.6,37.9,11.6,37.9,11.6,37.9C11.6,37.9,11.6,37.9,11.6,37.9z M36.4,37.9C36.4,37.9,36.4,37.9,36.4,37.9 C36.4,37.9,36.4,37.9,36.4,37.9z M9.7,37C9.7,37,9.7,37,9.7,37C9.7,37,9.7,37,9.7,37z M38.3,37C38.3,37,38.3,37,38.3,37 C38.3,37,38.3,37,38.3,37z M5.5,34.5C5.5,34.5,5.5,34.5,5.5,34.5C5.5,34.5,5.5,34.5,5.5,34.5z"/></svg>