<svg xmlns="http://www.w3.org/2000/svg"  viewBox="0 0 48 48" width="1600px" height="1600px"><path fill="#1976d2" d="M38,42H10c-2.209,0-4-1.791-4-4V10c0-2.209,1.791-4,4-4h28c2.209,0,4,1.791,4,4v28	C42,40.209,40.209,42,38,42z"/><path fill="#cfd8dc" d="M23.549,10.115L12.571,32.987c-0.199,0.415,0.221,0.856,0.645,0.677l7.777-3.275	c0.272-0.114,0.583,0.03,0.671,0.312l1.859,5.948c0.146,0.468,0.808,0.468,0.954,0l1.859-5.948c0.088-0.282,0.399-0.426,0.671-0.312	l7.777,3.275c0.424,0.179,0.844-0.262,0.645-0.677L24.451,10.115C24.269,9.737,23.731,9.737,23.549,10.115z"/><path fill="#fafafa" d="M35.429,32.987L24.451,10.115C24.36,9.926,24.18,9.832,24,9.832s-0.36,0.095-0.451,0.284	l-0.292,0.609l-1.892,19.665c0.137,0.053,0.252,0.16,0.3,0.312l1.859,5.948C23.596,36.883,23.798,37,24,37	c0.202,0,0.404-0.117,0.477-0.351l1.859-5.948c0.088-0.282,0.399-0.426,0.671-0.312l7.777,3.275	C35.209,33.843,35.628,33.402,35.429,32.987z"/><path fill="#b0bec5" d="M24.25,11.676l-0.239,25.32c0.198-0.004,0.394-0.118,0.466-0.347l1.859-5.948	c0.036-0.115,0.115-0.2,0.208-0.261L24.25,11.676z"/></svg>