<svg xmlns="http://www.w3.org/2000/svg"  viewBox="0 0 48 48" width="1600px" height="1600px"><path fill="#37474f" d="M6,10c0-2.209,1.791-4,4-4h28c2.209,0,4,1.791,4,4v28c0,2.209-1.791,4-4,4H10c-2.209,0-4-1.791-4-4 V10z"/><path fill="#00e676" d="M24 34A2 2 0 1 0 24 38 2 2 0 1 0 24 34zM31 34A2 2 0 1 0 31 38 2 2 0 1 0 31 34zM17 34A2 2 0 1 0 17 38 2 2 0 1 0 17 34z"/><path fill="#fff" d="M24,16c-0.552,0-1,0.448-1,1v2h2v-2C25,16.448,24.552,16,24,16z"/><path fill="#fff" d="M24,10c-7.179,0-13,4.253-13,9.5c0,0.169,0.023,0.333,0.035,0.5H11c0,4,3,6,3,7s-2,4-2,4s5-2,8-2 s4,0,4,0c7.179,0,13-4.254,13-9.5C37,14.253,31.18,10,24,10z M28,24c0,0.552-0.448,1-1,1h-6c-0.552,0-1-0.448-1-1v-4 c0-0.552,0.448-1,1-1v-2c0-1.654,1.346-3,3-3s3,1.346,3,3v2c0.552,0,1,0.448,1,1V24z"/></svg>