<svg fill="#000000" xmlns="http://www.w3.org/2000/svg"  viewBox="0 0 48 48" width="1600px" height="1600px"><path d="M5.14,27.529l1.625-18.75c0.19-2.2,2.139-3.822,4.33-3.64c2.201,0.191,3.831,2.13,3.64,4.331l-0.44,5.078	c-4.28,3.003-6.262,7.53-6.748,10.396l-1.26,5.723C5.495,29.863,5.035,28.742,5.14,27.529z M35.393,33.916	c-1.415,0.137-2.877,0.212-4.379,0.212c-0.921,0-1.855-0.027-2.803-0.082c-6.728-0.389-12.988-2.166-17.625-5.005	c-0.584-0.358-1.133-0.728-1.649-1.108L6.32,38.977c4.355,0,15.374-0.035,28.059-0.035V37.46	C34.334,36.183,34.694,34.957,35.393,33.916z M42.035,15.876l-3.903,3.427c2.115,2.463,3.61,5.965,3.493,10.947l-0.007,0.476	c-3.84,1.095-8.418,1.601-13.292,1.324c-6.405-0.37-12.335-2.045-16.697-4.715c-0.824-0.504-1.547-1.036-2.213-1.581L9.5,25.375	c0,0,2.25-9.875,11.5-11.582V8.25c0-0.553,0.448-1,1-1s1,0.447,1,1v5.219c0.972-0.102,1.632-0.018,2.75,0.031	c0,0,6.306,0.293,10.971,4.381l3.994-3.507c0.416-0.364,1.047-0.322,1.411,0.091C42.491,14.88,42.45,15.512,42.035,15.876z M18.022,19.44c-0.708-0.603-1.943-0.314-2.76,0.645c-0.817,0.959-0.905,2.225-0.197,2.827c0.708,0.603,1.943,0.314,2.76-0.645	C18.641,21.308,18.73,20.042,18.022,19.44z M31.947,25.625c0-1.381-0.884-2.5-1.974-2.5S28,24.244,28,25.625	c0,1.381,0.884,2.5,1.974,2.5S31.947,27.006,31.947,25.625z M44.373,38.977v-1.964c-0.078-2.152-1.923-3.846-4.138-3.76	c-2.208,0.075-3.935,1.881-3.857,4.032v1.692H44.373z"/></svg>