<svg xmlns="http://www.w3.org/2000/svg"  viewBox="0 0 48 48" width="1600px" height="1600px"><path fill="#212844" d="M44,24c0,11.05-8.95,20-20,20c-7.12,0-13.36-3.71-16.89-9.31c-0.29-0.44-0.56-0.89-0.8-1.36	C4.83,30.55,4,27.37,4,24C4,12.95,12.95,4,24,4c7.06,0,13.26,3.65,16.81,9.18c0.35,0.52,0.66,1.07,0.95,1.63	C43.19,17.56,44,20.69,44,24z"/><path fill="#ffb74d" d="M41.76,14.81c-0.29-0.56-0.6-1.11-0.95-1.63C38,14.3,35.3,15.62,32.63,17	c-0.89,0.453-1.77,0.927-2.644,1.41L16.75,11.25l-1.5,1L24,19l1.23,2.153c-0.714,0.422-1.426,0.846-2.14,1.267	c-3.14,1.88-6.25,3.82-9.32,5.81c-2.52,1.66-5.02,3.33-7.46,5.1c0.24,0.47,0.51,0.92,0.8,1.36c2.75-1.24,5.44-2.57,8.12-3.92	c3.26-1.68,6.49-3.41,9.68-5.19c0.718-0.407,1.436-0.813,2.153-1.219L28,26l1.75,11.25l1.5-0.5l0.661-15.209	c0.827-0.501,1.648-1.012,2.459-1.541C36.9,18.37,39.39,16.69,41.76,14.81z"/></svg>