<svg xmlns="http://www.w3.org/2000/svg"  viewBox="0 0 48 48" width="1600px" height="1600px"><circle cx="24" cy="24" r="20" fill="#0097a7"/><circle cx="24" cy="24" r="18" fill="#fff"/><path fill="#ef5350" d="M22,23.25c0-2.75-11-3.25-9.25-8C13,20,28.5,18.25,28.5,25c0,3.75-6.25,9-12.5,13c-2.5-1.25-6-5-7-8	C12.5,28.75,22,26.25,22,23.25z"/><path fill="#0097a7" d="M25,10.5c-1.75,0-11.5,1-11.5,3.5c0,3.5,18.5,4.5,18.5,12c0,6-9.5,13-11,14	c6.75,1.5,18.5-4.25,18.5-13C39.5,15.5,19,15.75,19,13C19,11.75,24,10.5,25,10.5z"/></svg>