<svg xmlns="http://www.w3.org/2000/svg"  viewBox="0 0 48 48" width="1600px" height="1600px"><path fill="#64b5f6" d="M6 6H42V33H6z"/><path fill="#0d47a1" d="M6 20L42 17.031 42 33 6 33z"/><path fill="#1976d2" d="M15.375 19.227L21.568 33 41.027 33 17.73 19.033z"/><path fill="#1565c0" d="M15.375 19.227L21.568 33 34 33 16.75 19.125z"/><path fill="#1a237e" d="M6 35H42V42H6z"/><path fill="#fff" d="M17.625 9.5v1.625c0 0-1.5-.5-2.75-.5s-3.5.75-3.5 3.625 2.5 3.375 3.375 3.375 1.375 0 1.375 0V15H14v-1.5h4v5.375c0 0-1.75.375-3 .375s-5.75-.125-5.75-4.875 4-5.25 5.5-5.25C16.625 9.125 17.625 9.5 17.625 9.5zM9 37.5L9.75 37.5 9.75 40 10.25 40 10.25 37.5 11 37.5 11 37 9 37zM32 37L32 40 33.625 40 33.625 39.501 32.5 39.501 32.5 38.62 33.625 38.62 33.625 38.122 32.5 38.122 32.5 37.499 33.625 37.499 33.625 37zM38 39.5L38 37 37.5 37 37.5 40 39 40 39 39.5zM27.063 39.169L26.308 37 25.779 37 26.822 40 27.303 40 28.346 37 27.817 37zM21.148 37l-1.119 3h.532l.283-.75h1.152L22.314 40h.532l-1.221-3H21.148zM21.033 38.75l.354-.936.397.936H21.033zM16.5 37.934c0-.506-.444-.934-.969-.934h-.906v3h.5v-1.129h.012L16.042 40h.583l-.892-1.163C16.166 38.754 16.5 38.39 16.5 37.934zM15.125 37.5h.406c.25 0 .469.202.469.434 0 .241-.196.438-.438.438h-.438V37.5z"/></svg>