<svg xmlns="http://www.w3.org/2000/svg"  viewBox="0 0 48 48" width="1600px" height="1600px"><path fill="#263238" d="M38,42H10c-2.209,0-4-1.791-4-4V10c0-2.209,1.791-4,4-4h28c2.209,0,4,1.791,4,4v28	C42,40.209,40.209,42,38,42z"/><path fill="#fff" d="M31.6,15c-4.05,0-5.625,2.475-5.625,2.475S24.4,15,20.8,15c-2.7,0-4.5,1.8-4.5,1.8l-0.8-1.3H10V33	h11.5v-2l3.5,2l3.5-2v2h9.4c0,0,0-8.775,0-11.7C37.9,17.25,34.3,15,31.6,15z M36,31h-5.5v-3.25l-5.5,3l-5.5-3V31H12V17.5h2.5	l1.45,2.562l1.701-1.825C17.654,18.236,18.978,17,20.839,17c2.51,0,3.601,1.58,3.611,1.596l1.278,1.904l1.722-1.904	C27.478,18.558,28.612,17,31.506,17C33.322,17,36,18.683,36,21.5V31z"/></svg>