<svg xmlns="http://www.w3.org/2000/svg"  viewBox="0 0 48 48" width="1600px" height="1600px"><path fill="#ff3d00" d="M42.16,10c-0.77,0-1.764-0.365-2.532-0.931C38.579,8.295,38,7.205,38,6c0-1.245,1.032-3,3.327-3C43.817,3,46,4.884,46,7.033C46,9.21,43.705,10,42.163,10C42.162,10,42.161,10,42.16,10z"/><path fill="#dd2c00" d="M43.163,8c-0.001,0-0.001,0-0.002,0c-0.77,0-1.764-0.365-2.532-0.931C39.579,6.295,39,5.205,39,4c0-0.05,0.012-0.105,0.016-0.156C38.334,4.462,38,5.306,38,6c0,1.206,0.579,2.296,1.629,3.069C40.396,9.635,41.391,10,42.16,10c0.001,0,0.001,0,0.002,0c1.531,0,3.796-0.781,3.831-2.921C45.188,7.723,44.055,8,43.163,8z"/><path fill="#ffc107" d="M6.944,18.505C6.944,17.229,13.786,7,26,7c13.33,0,14,10.732,14,12.127C40,19.656,39.702,20,39.246,20c-0.533,0-0.859-0.86-1.891-1.989C35.108,15.554,30.534,12,23,12c-10.292,0-14.941,6.982-15.623,6.982C6.905,18.982,6.944,18.629,6.944,18.505z"/><path fill="#ffa000" d="M24.972,9.075c-9.271,0-15.515,6.379-17.921,9.787c0.063,0.067,0.153,0.121,0.327,0.121C8.059,18.982,12.708,12,23,12c7.534,0,12.109,3.554,14.355,6.012C38.387,19.14,38.713,20,39.246,20c0.165,0,0.3-0.058,0.417-0.141C38.765,16.173,35.259,9.075,24.972,9.075z"/><path fill="#2196f3" d="M38.999,33.495C38.999,34.771,32.156,45,19.943,45c-13.33,0-14-10.732-14-12.127C5.943,32.344,6.241,32,6.697,32c0.533,0,0.859,0.86,1.891,1.988C10.834,36.446,15.409,40,22.943,40c10.292,0,14.941-6.982,15.623-6.982C39.038,33.018,38.999,33.371,38.999,33.495z"/><path fill="#64b5f6" d="M20.971,42.925c9.271,0,15.515-6.379,17.921-9.787c-0.063-0.067-0.153-0.121-0.327-0.121c-0.682,0-5.331,6.982-15.623,6.982c-7.534,0-12.109-3.554-14.355-6.012C7.555,32.86,7.23,32,6.697,32c-0.165,0-0.3,0.058-0.417,0.141C7.177,35.826,10.684,42.925,20.971,42.925z"/><path fill="#283593" d="M8.519 23.361c-1.021 0-1.848.814-1.848 1.819s.828 1.819 1.848 1.819c1.021 0 1.848-.814 1.848-1.819C10.367 24.175 9.54 23.361 8.519 23.361zM8.519 26.035c-.44 0-.797-.383-.797-.855s.357-.855.797-.855c.44 0 .797.383.797.855C9.316 25.652 8.959 26.035 8.519 26.035zM42.889 23.361c-.902 0-1.633.814-1.633 1.819s.731 1.819 1.633 1.819c.902 0 1.633-.814 1.633-1.819S43.791 23.361 42.889 23.361zM43.122 26.054c-.449 0-.815-.398-.815-.888s.364-.888.815-.888c.449 0 .815.398.815.888C43.936 25.656 43.572 26.054 43.122 26.054zM5.082 22C4.91 22 3 22 3 22s0 4.983 0 4.995c0 .011 1.127 0 1.127 0-.017-.018.012-1.811.012-1.811s.563 0 .967 0 1.496-.335 1.496-1.661C6.6 22.242 5.315 22 5.082 22zM4.778 24.266c-.414 0-.604-.022-.615-.011v-1.279c0 0 .38 0 .615 0 .33 0 .718.209.718.602C5.497 23.922 5.192 24.266 4.778 24.266zM11.977 26.875h-1.063v-3.424h1.008v.443c0 0 .307-.483.907-.483.169 0 .285.022.285.022v1.057c0 0-.118-.045-.323-.045-.206 0-.804.125-.804.88C11.986 26.047 11.968 26.875 11.977 26.875zM39.84 26.875h-1.063v-3.424h1.008v.443c0 0 .307-.483.907-.483.169 0 .285.022.285.022v1.057c0 0-.118-.045-.323-.045-.206 0-.804.125-.804.88C39.849 26.047 39.831 26.875 39.84 26.875zM13.977 24.445h-.609v-.993h.23c.264 0 .478-.209.478-.467v-.513h.942v.993h.699v.966h-.694c0 0 0 1.022 0 1.218 0 .197.187.38.398.38.15 0 .272-.051.272-.051l-.36.948c0 0-.061.027-.211.027-.15 0-1.144-.096-1.144-1.109C13.977 24.835 13.972 24.441 13.977 24.445zM32.423 24.445h-.609v-.993h.23c.264 0 .478-.209.478-.467v-.513h.942v.993h.699v.966h-.694c0 0 0 1.022 0 1.218 0 .197.187.38.398.38.15 0 .325-.083.325-.083v.907c0 0-.267.102-.626.102-.238 0-1.144-.096-1.144-1.109C32.423 24.835 32.418 24.441 32.423 24.445zM18.869 22h-1.246l-1.923 5h1.16l.37-1.021h1.891L19.515 27h1.214L18.869 22zM17.579 24.963l.617-1.697.592 1.697H17.579zM20.29 23.458L21.443 23.458 22.246 25.56 23.009 23.458 24.121 23.458 22.814 26.882 21.726 26.882zM25.948 26.114c-.61 0-.78-.696-.78-.696h2.465c0-.782-.158-2.061-1.719-2.061-1.609 0-1.78 1.512-1.78 1.827 0 .743.521 1.813 1.835 1.813 1.315 0 1.602-1.078 1.602-1.078l-.856-.274C26.716 25.646 26.558 26.114 25.948 26.114zM25.928 24.181c.616 0 .677.575.677.575h-1.417C25.189 24.623 25.366 24.181 25.928 24.181zM28.179 26.882v-3.424h1.034v.346c0 0 .381-.452 1.034-.452s1.211.651 1.211 1.17 0 2.36 0 2.36h-1.047c0 0 0-1.741 0-2.033 0-.367-.313-.515-.585-.515-.312 0-.613.202-.613.592 0 .339 0 1.956 0 1.956H28.179zM38.02 23.465v3.424h-1.034v-.346c0 0-.381.452-1.034.452-.653 0-1.211-.651-1.211-1.17 0-.519 0-2.36 0-2.36h1.047c0 0 0 1.741 0 2.033 0 .367.313.515.585.515.312 0 .613-.202.613-.592 0-.339 0-1.956 0-1.956H38.02z"/><path fill="#283593" d="M43.943 23.45H45V26.884H43.943zM13 29L13.619 29 14.529 32.107 15.603 29 16.214 29 17.272 32.138 18.199 29 18.785 29 17.597 33 16.995 33 15.88 29.785 14.815 33 14.221 33zM21.064 29c-1.164 0-2.108.896-2.108 2 0 1.104.943 2 2.108 2s2.108-.896 2.108-2C23.172 29.896 22.228 29 21.064 29zM21.064 32.512c-.842 0-1.524-.677-1.524-1.511 0-.834.682-1.511 1.524-1.511s1.524.677 1.524 1.511C22.588 31.835 21.906 32.512 21.064 32.512zM26.742 30.124c0-.876-.838-1.124-1.212-1.124-.375 0-1.651 0-1.651 0v4h.57v-1.635h.635L26.051 33h.684l-.985-1.666C25.75 31.333 26.742 31.17 26.742 30.124zM24.464 30.86v-1.387c0 0 .561 0 .87 0s.814.178.814.659c0 .48-.415.728-.659.728C25.245 30.86 24.464 30.86 24.464 30.86zM27.434 29v4h2.595v-.515h-2.01V29C28.02 29 27.417 29 27.434 29zM32.112 29c-.35 0-1.587 0-1.587 0v4c0 0 1.18 0 1.595 0 .415 0 1.88-.316 1.88-2.031C34 29.255 32.462 29 32.112 29zM32.031 32.506c-.301 0-.919 0-.919 0v-3.004c.008-.007.732-.007 1.025-.007.293 0 1.253.294 1.253 1.537C33.389 32.274 32.332 32.506 32.031 32.506z"/></svg>