<svg xmlns="http://www.w3.org/2000/svg"  viewBox="0 0 48 48" width="1600px" height="1600px"><path fill="#e53935" d="M19.212,36.329C4.447,28.942,6.657,15.541,10.494,9.646c-1.036,1-2.015,2.161-2.876,3.515 l-0.001,0.005v-0.001l-0.001-0.001c-1.107,1.745-3.612,6.463-2.193,12.477c1.412,5.983,5.603,10.02,8.95,12.222 c5.386,3.543,10.617,4.334,14.303,4.099c5.501-0.352,9.142-3.567,10.935-6.41c1.076-1.707,1.593-3.335,1.775-3.999 C40.87,32.354,33.834,43.644,19.212,36.329z"/><path fill="#ffa726" d="M29.232,36.02c-0.253,0.03-0.518,0.051-0.793,0.059c-3.091,0.048-6.41-1.011-8.736-2.224 c-1.758-0.917-4.07-2.465-5.822-4.796C5,17.783,16.451,6.186,19.589,4.824c-0.623,0.109-1.329,0.267-2.076,0.496 c-1.913,0.588-4.594,1.983-7.019,4.327c-0.38,0.482-0.749,0.996-1.092,1.537L9.4,11.187l0.001-0.001L9.4,11.186 c-1.079,1.7-3.52,6.299-2.137,12.16c1.376,5.832,5.461,9.767,8.723,11.912c5.249,3.453,10.348,4.224,13.941,3.995 c5.361-0.343,8.91-3.475,10.657-6.248c0.316-0.5,0.581-0.99,0.803-1.453c0.055-0.2,0.08-0.315,0.08-0.315 c0.123-0.491,0.292-1.385,0.338-1.68c0.375-2.377,0.159-4.705-0.238-6.642C41.057,27.089,37.744,35.275,29.232,36.02z M12.589,26.963l-0.008-0.018l0.01,0.022L12.589,26.963z M28.45,36.079h-0.007l0.025-0.001L28.45,36.079z"/><path fill="#039be5" d="M38.829,15.8c-0.316-0.574-0.829-1.332-0.859-1.376c-0.433-0.637-0.891-1.251-1.26-1.698 c-0.922-1.116-2.572-1.295-3.711-0.391c-1.152,0.915-1.337,2.559-0.429,3.741c1,1.301,1.615,2.349,2.35,3.934 c0.324,0.699,0.99,2.365,1.317,4.351c0.284,1.724,0.5,5.275-1.409,8.085c-0.608,0.894-2.053,2.912-5.009,3.482l-0.048,0.008 c-0.174,0.033-0.354,0.061-0.539,0.083c0.304-0.002,0.6-0.014,0.884-0.032c4.729-0.301,7.859-3.065,9.4-5.51 c1.207-1.914,1.595-3.708,1.595-3.708c0.106-0.423,0.251-1.191,0.291-1.445c0.129-0.818,0.177-1.625,0.166-2.409 c-0.183-0.89-0.405-1.702-0.627-2.398C40.376,18.739,39.587,17.174,38.829,15.8z"/><path fill="#039be5" d="M12.593,26.969c-0.408-0.829-0.737-1.731-0.959-2.711c-0.301-1.333-0.497-4.78,1.523-7.708 c2.175-3.151,4.677-5.165,10.465-5.24c1.848-0.024,3.295-0.986,3.492-2.862c0.198-1.876-1.018-3.478-3.04-3.756 c-0.666-0.091-1.367-0.127-2.085-0.111l-0.004,0.001l0.001-0.001c0,0-0.978-0.007-2.397,0.242 c-2.311,0.943-5.413,3.004-7.576,6.406l-0.001,0.004v-0.001l-0.001-0.001c-0.951,1.499-3.105,5.555-1.885,10.725 c0.682,2.89,2.117,5.25,3.755,7.101C13.402,28.421,12.965,27.727,12.593,26.969z M12.589,26.963l-0.008-0.018l0.01,0.022 L12.589,26.963z"/></svg>