<svg xmlns="http://www.w3.org/2000/svg"  viewBox="0 0 48 48" width="1600px" height="1600px"><path fill="#37474f" d="M27,38C9.1,38,5.2,33.2,3.6,31.1c-0.4-0.4-0.6-1-0.6-1.6C3,28.1,4.1,27,5.5,27C6.4,27,9,27,9,22.1 v-0.6C9,12.4,17.1,5,27,5s18,7.4,18,16.5S36.9,38,27,38z"/><path fill="#eceff1" d="M27,36c8.8,0,16-6.5,16-14.5S35.8,7,27,7s-16,6.5-16,14.5v0.6c0,6.2-3.8,6.9-5.5,6.9 C5.2,29,5,29.2,5,29.5c0,0.1,0,0.2,0.1,0.3C6.6,31.7,10,36,27,36z"/><path fill="#37474f" d="M32 16A2 2 0 1 0 32 20 2 2 0 1 0 32 16zM22 16A2 2 0 1 0 22 20 2 2 0 1 0 22 16zM27 29c-4.8 0-6.7-3.5-7-5.3-.1-.5.3-1.1.8-1.2.5-.1 1.1.3 1.2.8 0 .1.7 3.7 5 3.7 4.3 0 5-3.5 5-3.7.1-.5.6-.9 1.2-.8.5.1.9.6.8 1.1C33.7 25.5 31.8 29 27 29zM16.5 34A4.5 4.5 0 1 0 16.5 43 4.5 4.5 0 1 0 16.5 34z"/><path fill="#607d8b" d="M16.5 37A1.5 1.5 0 1 0 16.5 40A1.5 1.5 0 1 0 16.5 37Z"/><path fill="#37474f" d="M32.5 34A4.5 4.5 0 1 0 32.5 43A4.5 4.5 0 1 0 32.5 34Z"/><path fill="#607d8b" d="M32.5 37A1.5 1.5 0 1 0 32.5 40A1.5 1.5 0 1 0 32.5 37Z"/></svg>