<svg xmlns="http://www.w3.org/2000/svg"  viewBox="0 0 48 48" width="1600px" height="1600px"><g id="Layer_8"><path fill="#fb8c00" d="M4.1,23.9l0.3-1.2c0.1-0.6,0.8-0.9,1.3-0.7l1.7,0.6c0,0,1.4,0.6,2.5-1s2.4-1.5,2.4-1.5s1.5-0.1,1.1,2.4 S16.2,20,17,19c0.6-0.7,2-2.2,3-2.1s1.2,6.4,3.1,6.8c1.5-2.7,3.8-8.1,5.2-11.2c0.5-1,1.6-1.5,2.6-1.2l0.1,0 c1.1,0.3,1.8,1.4,1.7,2.5C32.2,18.4,32,27.9,32,27.9l5.8-19.1c0.1-0.4,0.6-0.7,1-0.7c0.6,0,1.4,0.1,2.3,0.3c1,0.2,1.7,1.2,1.5,2.3 c-0.8,4.6-1.1,15-1.1,15l0.6-1.4c0.2-0.5,0.5-0.9,1-1.2c0.7-0.5,1.9-1.1,3.1-0.6c0.3,0.1,0.6,0.4,0.6,0.7c0.2,0.7,0.2,1.4,0.2,1.9 c0,0.5-0.3,0.9-0.8,1l-2.8,0.6l-1.3,2.9c-0.2,0.5-0.9,0.7-1.4,0.5l-2.7-1.5c-0.3-0.2-0.5-0.5-0.5-0.8l-0.3-4.3L32,38.6 c-0.2,0.7-1.1,0.9-1.6,0.4l-2.5-2.1c-0.1-0.1-0.2-0.2-0.2-0.4l-0.2-13.8L22.2,31c-0.1,0.2-0.4,0.3-0.6,0.2L21,31 c-0.1-0.1-0.3-0.2-0.3-0.3l-2.2-7.5c0,0-3.3,5-5.5,5.5c-0.2,0.1-0.5-0.1-0.6-0.3c-1-2.1-1.2-4.7-1.2-4.7s-1.4,2.1-4.6,1.6 c-1.1-0.2-1.9-0.6-2.3-0.8C4.1,24.3,4,24.1,4.1,23.9z"/><path fill="#fb8c00" d="M2,24L2,24c-0.6,0-1-0.4-1-1v0c0-0.6,0.4-1,1-1h0c0.6,0,1,0.4,1,1v0C3,23.6,2.6,24,2,24z"/></g></svg>