<svg xmlns="http://www.w3.org/2000/svg"  viewBox="0 0 48 48" width="1600px" height="1600px"><path fill="#ff9100" d="M9,26.5C9,16.835,16.835,9,26.5,9c9.243,0,16.793,7.171,17.437,16.25 C43.963,24.834,44,24.422,44,24c0-11.046-8.954-20-20-20S4,12.954,4,24c0,11.046,8.954,20,20,20c0.422,0,0.834-0.037,1.25-0.063 C16.171,43.293,9,35.743,9,26.5z"/><path fill="#ff9100" d="M36.5,28c-3.59,0-6.5-2.91-6.5-6.5c0-2.637,1.573-4.902,3.829-5.921 C31.941,14.574,29.788,14,27.5,14C20.044,14,14,20.044,14,27.5C14,34.956,20.044,41,27.5,41S41,34.956,41,27.5 c0-0.425-0.025-0.844-0.064-1.259C39.774,27.329,38.217,28,36.5,28z"/></svg>