<svg xmlns="http://www.w3.org/2000/svg"  viewBox="0 0 48 48" width="1600px" height="1600px"><path fill="#424242" d="M13,41c-3.309,0-6-2.691-6-6V13c0-3.309,2.691-6,6-6h22c3.309,0,6,2.691,6,6v22c0,3.309-2.691,6-6,6	H13z"/><path fill="#212121" d="M35.47,6.02C35.31,6.01,36,7,36,7h-4.99l-1.52-1h-5.98l0.5,1h-4.98l-1.52-1H13	c-0.47,0-0.94,0.05-1.38,0.14c-0.11,0.02-0.22,1.05-0.33,1.07C9.92,7.55,9.71,8.3,8.8,9.32C8.74,9.38,7.69,8.44,7.64,8.5	C6.61,9.71,6,11.28,6,13v7h36v-7C42,9.29,39.12,6.26,35.47,6.02z"/><polygon fill="#eceff1" points="35.5,6 29.5,6 35.5,13 29.5,20 35.5,20 41.5,13"/><polygon fill="#eceff1" points="23.5,6 17.5,6 23.5,13 17.5,20 23.5,20 29.5,13"/><path fill="#eceff1" d="M17.5,13l-6,7H6v-0.58L11.5,13L7.64,8.5c1-1.2,2.39-2.05,3.98-2.36L17.5,13z"/><path fill="#616161" d="M7,10.46V16c0,0.552,0.448,1,1,1h4.885c1.117,0,1.714-1.315,0.978-2.156l-4.585-5.24	C8.488,8.7,7,9.26,7,10.46z"/><path fill="#5c6bc0" d="M21.27,38.27l-9.78,3.56C9.338,39.914,7,38.35,7,35V24.41l8.03-3.29L21.27,38.27z"/><path fill="#fff" d="M15.63,19.84L6,23.35l1,0.655L6,25.47l8.43-3.06l5.56,15.27l-10,3.64C10.9,41.76,11.92,41,13,41	l0.95,1l8.6-3.13L15.63,19.84z"/><rect width="18.25" height="18.25" x="12.787" y="20.972" fill="#e57373" transform="rotate(-4.997 21.904 30.08)"/><path fill="#fff" d="M12.708,41.066l-1.765-20.173l20.173-1.765l1.765,20.173L12.708,41.066z M13.109,22.711 l1.417,16.188l16.188-1.416l-1.417-16.188L13.109,22.711z"/><polygon fill="#a67c52" points="38.579,24.071 20.607,20.902 17.437,38.875 32.873,41.597 35.551,41.247"/><circle cx="8.438" cy="15.678" r=".8" fill="#bdbdbd"/><circle cx="11.854" cy="15.678" r=".8" fill="#bdbdbd"/><circle cx="8.438" cy="11.111" r=".8" fill="#bdbdbd"/><polygon fill="#006064" points="38.579,24.071 23.268,21.372 25.263,24.664 25.774,29.61 31.345,34.157 36.358,36.67"/><polygon fill="#ffb300" points="18.535,32.652 17.437,38.875 31.157,41.294 35.547,41.269 36.155,37.82"/><path fill="#fff" d="M26.93,21l-7.14-1.26L19.57,21l-3.29,18.69L18.04,40l11.36,2l4.6-1c0.5,0,1.99,0.95,2.46,0.85 l0.39-2.2l2.89-16.39L26.93,21z M34.76,40l-0.16,0.89L29.57,40L18.6,38.06l2.82-16l16,2.82L34.76,40z"/><path fill="#448aff" d="M40.94,19.269v3.116c-0.74,1.032-1.5,2.074-2.25,3.125c-0.73,1.022-1.45,2.054-2.17,3.067 c-0.7,1.022-1.41,2.025-2.14,2.96c-0.73,0.925-1.46,1.801-2.2,2.6c-0.24,0.273-0.48,0.535-0.71,0.798 c-0.48,0.516-0.93,0.993-1.38,1.451c-0.92,0.954-1.77,1.772-2.49,2.424l-1.25-0.73c0.47-0.876,1.08-1.938,1.84-3.116 c0.29-0.467,0.61-0.964,0.94-1.46c0.24-0.36,0.49-0.72,0.75-1.09c0.61-0.896,1.3-1.811,2.03-2.736c0.74-0.925,1.55-1.84,2.38-2.765 c0.83-0.935,1.66-1.879,2.5-2.833C38.2,22.453,39.6,20.817,40.94,19.269z"/><path fill="#757575" d="M31.47,34.935c-0.48,0.516-0.93,0.993-1.38,1.451c-0.92,0.954-1.77,1.772-2.49,2.424l-1.25-0.73	c0.47-0.876,1.08-1.938,1.84-3.116c0.29-0.467,0.61-0.964,0.94-1.46C30.341,33.681,31.087,34.182,31.47,34.935z"/><path fill="#ff6f00" d="M24.187,37.938c0,0.598,1.031,1.375,2.438,1.375c0.598,0,1.458-0.548,1.458-1.146	S27.598,37.083,27,37.083c-0.264,0-0.618,0.273-1.182,0.38C25.103,37.599,24.187,37.603,24.187,37.938z"/><path fill="#212121" d="M6,19v16c0,3.87,3.13,7,7,7h22c0.5,0,0.99-0.05,1.46-0.15C39.63,41.18,42,38.37,42,35V19H6z M40,35	c0,2.11-1.31,3.91-3.15,4.65C36.28,39.87,35.65,40,35,40H13c-2.76,0-5-2.24-5-5V21h32V35z"/></svg>