<svg xmlns="http://www.w3.org/2000/svg"  viewBox="0 0 48 48" width="1600px" height="1600px"><path fill="#ff3d00" d="M2 34H10V36H2zM2 31H10V33H2zM2 28H10V30H2z"/><path fill="#ff9e80" d="M2 25H10V27H2zM2 22H10V24H2z"/><path fill="#e6ee9c" d="M29 25H37V27H29zM29 22H37V24H29z"/><path fill="#f8bbd0" d="M20 25H28V27H20zM20 22H28V24H20zM20 19H28V21H20zM20 16H28V18H20z"/><path fill="#ffeb3b" d="M11 34H19V36H11zM11 31H19V33H11zM11 28H19V30H11z"/><path fill="#ff4081" d="M20 34H28V36H20zM20 31H28V33H20zM20 28H28V30H20z"/><path fill="#cddc39" d="M29 34H37V36H29zM29 31H37V33H29zM29 28H37V30H29z"/><path fill="#4fc3f7" d="M38 34H46V36H38zM38 31H46V33H38zM38 28H46V30H38z"/><path fill="#b3e5fc" d="M38 25H46V27H38zM38 22H46V24H38zM38 19H46V21H38zM38 16H46V18H38zM38 13H46V15H38z"/></svg>