<svg xmlns="http://www.w3.org/2000/svg"  viewBox="0 0 48 48" width="1600px" height="1600px" baseProfile="basic"><path fill="#1d1d1b" d="M42,11v17h-4v-8h-7l-7,8h-9c0,0,0-1,5-2s5-4,5-4s1-5-7-5c-2.358,0-8,0-8,5h5c0,0,0-2,3-2 c1.01,0,1.68,0.23,2.12,0.53c0.85,0.57,0.67,1.89-0.28,2.28C18.99,23.16,17.49,23.38,15,24c-4,1-5,4-5,4H6V11c0-2.76,2.24-5,5-5h26 C39.76,6,42,8.24,42,11z"/><path fill="#3f51b5" d="M38,31h4v6c0,2.76-2.24,5-5,5H11c-2.76,0-5-2.24-5-5v-6h28v4h4V31z"/><polygon fill="#1d1d1b" points="29,28 34,22 34,28"/><polygon fill="#fff" points="23.357,33.742 23.357,38.742 22.357,38.742 22.357,36.742 20.357,36.742 20.357,38.742 19.357,38.742 19.357,33.742 20.357,33.742 20.357,35.742 22.357,35.742 22.357,33.742"/><path fill="#fff" d="M25.36,33.79c-0.38-0.03-0.73-0.03-1-0.03v4.98h0.24v0.01h0.9c0,0,0,0,0.01,0 c1.09,0,1.97-0.3,2.54-0.87c0.44-0.44,0.67-1.03,0.67-1.71C28.72,34.27,26.8,33.87,25.36,33.79z M27.34,37.18 c-0.37,0.37-1.01,0.57-1.83,0.57c-0.01,0-0.01,0-0.01,0h-0.14v-2.96c1.64,0.11,2.36,0.54,2.36,1.38 C27.72,36.59,27.59,36.92,27.34,37.18z"/><path fill="#fff" d="M17.1,9l-6.335,0c-0.276,0-0.5,0.224-0.5,0.5v5c0,0.276,0.224,0.5,0.5,0.5h6.5 c1.712,0,3.083-1.425,2.996-3.156C20.179,10.221,18.725,9,17.1,9z M15.264,14h-2v-4h2c1.1,0,2,0.9,2,2 C17.264,13.1,16.364,14,15.264,14z"/><path fill="#fff" d="M23.13,15h-2c-0.276,0-0.5-0.224-0.5-0.5v-5c0-0.276,0.224-0.5,0.5-0.5h2c0.276,0,0.5,0.224,0.5,0.5 v5C23.63,14.776,23.406,15,23.13,15z"/><path fill="#fff" d="M37.5,15h-2c-0.276,0-0.5-0.224-0.5-0.5v-5C35,9.224,35.224,9,35.5,9h2C37.776,9,38,9.224,38,9.5v5 C38,14.776,37.776,15,37.5,15z"/><path fill="#dd2c00" d="M27.16,15H27v-0.01C27.05,15,27.11,15,27.16,15z"/><path fill="#dd2c00" d="M14.76,13.98C14.84,14,14.92,14,15,14h-0.23C14.76,13.99,14.76,13.99,14.76,13.98z"/><path fill="#fff" d="M34.32,12.5v2c0,0.07-0.01,0.14-0.04,0.2c-0.03,0.06-0.06,0.11-0.11,0.16 C34.08,14.95,33.96,15,33.82,15h-6.34c-0.05,0-0.11,0-0.16-0.01c-1.56-0.07-2.91-1.26-3-2.83c-0.08-1.74,1.29-3.16,3-3.16h4.31 c0.14,0,0.26,0.11,0.26,0.25c0,0.07-0.03,0.14-0.08,0.19l-0.19,0.22C31.43,9.87,31.15,10,30.87,10h-1.43c-1,0-1.93,0.67-2.09,1.66 C27.14,12.91,28.11,14,29.32,14h2v-1.5c0-0.28,0.22-0.5,0.5-0.5h2C34.09,12,34.32,12.22,34.32,12.5z"/></svg>