<svg xmlns="http://www.w3.org/2000/svg"  viewBox="0 0 48 48" width="1600px" height="1600px"><path fill="#689f38" d="M44.92,32.292V15.606c0-0.166-0.134-0.3-0.3-0.3h-3.24c-0.166,0-0.3,0.134-0.3,0.3 v16.686c0,0.166,0.134,0.3,0.3,0.3h3.24C44.786,32.592,44.92,32.458,44.92,32.292z"/><path fill="#689f38" d="M15.957,29.858c0,0.281-0.059,0.613-0.257,0.825c-0.248,0.263-0.676,0.282-1.014,0.268 c-0.424,0.016-0.739-0.061-0.946-0.229c-0.243-0.143-0.365-0.431-0.365-0.864V18.002c0-0.425,0.122-0.717,0.365-0.876 c0.207-0.137,0.522-0.207,0.946-0.207c0.305,0,0.685,0.018,0.949,0.189c0.292,0.185,0.318,0.583,0.322,0.894V29.858z M19.844,32.705v-0.003h-1.386c-0.368,0-0.564-0.054-0.589-0.169c0.581-0.215,1.052-0.527,1.416-0.937 c0.344-0.391,0.515-0.893,0.515-1.501V17.789c0-0.594-0.15-1.078-0.452-1.456c-0.3-0.391-0.698-0.695-1.192-0.912 c-1.063-0.409-2.229-0.606-3.509-0.59c-0.59,0-1.179,0.041-1.773,0.12c-0.6,0.106-1.14,0.261-1.624,0.469 c-0.496,0.215-0.892,0.518-1.193,0.912c-0.351,0.376-0.525,0.862-0.525,1.453v12.312c0.026,1.108,0.604,1.873,1.738,2.294 c0.492,0.217,1.039,0.372,1.651,0.467c0.599,0.12,1.195,0.18,1.795,0.18c0.451,0,0.878-0.035,1.282-0.108 c0.025,0.479,0.175,0.876,0.461,1.191c0.271,0.327,0.853,0.5,1.739,0.516h1.647c0.178,0,0.322-0.144,0.322-0.322v-1.288 C20.166,32.85,20.022,32.705,19.844,32.705"/><path fill="#689f38" d="M6.6,15.306H3.4c-0.176,0-0.32,0.143-0.32,0.319v3.205c0,0.179,0.144,0.323,0.32,0.323 h3.2c0.176,0,0.32-0.144,0.32-0.323v-3.205C6.92,15.45,6.776,15.306,6.6,15.306"/><path fill="#689f38" d="M25.92,15.625c0-0.176-0.143-0.319-0.322-0.319H22.4c-0.175,0-0.32,0.144-0.32,0.319 V32.27c0,0.178,0.145,0.322,0.32,0.322h3.198c0.179,0,0.322-0.145,0.322-0.322V15.625z"/><path fill="#689f38" d="M6.6,20.522H3.4c-0.176,0-0.32,0.144-0.32,0.322v11.427c0,0.176,0.144,0.321,0.32,0.321 h3.2c0.176,0,0.32-0.145,0.32-0.322V20.844C6.92,20.666,6.776,20.522,6.6,20.522"/><path fill="#689f38" d="M38.893,15.736l-0.001-0.001c0.013-0.035,0.021-0.072,0.021-0.11 c0-0.166-0.128-0.301-0.289-0.316l0.001-0.002H38.61c-0.006,0-0.01-0.001-0.016-0.001h-3.252c-0.131,0-0.241,0.078-0.291,0.19 h-0.001v0.001c-0.002,0.008-0.004,0.016-0.007,0.021c0,0-1.683,5.263-1.843,6.161c-0.161-0.898-1.842-6.161-1.842-6.161 c-0.004-0.005-0.004-0.013-0.01-0.021v-0.001h-0.001c-0.05-0.112-0.158-0.19-0.29-0.19h-3.251c-0.007,0-0.01,0.001-0.017,0.001 h-0.015l0,0.002c-0.16,0.016-0.288,0.15-0.288,0.316c0,0.038,0.009,0.075,0.02,0.11l-0.002,0.001l3.784,10.504v6.019v0.012 c0,0.176,0.143,0.32,0.319,0.32h1.358h0.468h1.359c0.176,0,0.321-0.143,0.321-0.32c0-0.004-0.002-0.008-0.002-0.012V26.24 L38.893,15.736z"/><path fill="#689f38" d="M44.347,10.807c-0.319-0.661-0.865-1.324-1.477-1.729 c-2.253-1.492-14.103-2.03-16.204-2.062C25.848,7.003,24.985,6.999,24.044,7H24c-0.014,0-1.847,0.003-2.666,0.016 C19.232,7.048,7.383,7.585,5.129,9.077c-0.611,0.405-1.158,1.069-1.476,1.729C3.18,11.805,3,13.19,3,13.979l3.944-0.006 c0.012-0.273,0.14-1.025,0.461-1.525c0.514-0.799,1.49-1.056,2.378-1.182c3.59-0.51,6.783-0.777,10.147-0.876 C21.27,10.354,23.986,10.34,24,10.34c0.015,0,0.029-0.002,0.044-0.002c1.343-0.001,2.684,0.016,4.025,0.054 c3.365,0.098,6.556,0.366,10.146,0.876c0.889,0.126,1.864,0.383,2.378,1.182c0.323,0.5,0.451,1.252,0.464,1.525L45,13.979 C45,13.19,44.82,11.805,44.347,10.807"/><path fill="#689f38" d="M44.346,37.157c-0.319,0.657-0.866,1.318-1.479,1.721 c-2.257,1.485-14.127,2.02-16.232,2.052c-0.821,0.012-1.685,0.016-2.628,0.015h-0.044c-0.014,0-1.851-0.003-2.671-0.015 c-2.105-0.032-13.975-0.566-16.232-2.052c-0.612-0.403-1.16-1.064-1.479-1.721C3.107,36.164,2.927,34.785,2.927,34l3.951,0.006 c0.012,0.271,0.141,1.02,0.462,1.517c0.515,0.795,1.493,1.05,2.382,1.176c3.597,0.507,6.795,0.773,10.165,0.871 c1.341,0.038,4.062,0.052,4.076,0.052c0.015,0,0.029,0.002,0.044,0.002c1.345,0.001,2.689-0.016,4.032-0.054 c3.371-0.098,6.568-0.364,10.164-0.871c0.891-0.125,1.867-0.381,2.383-1.176c0.324-0.497,0.452-1.246,0.465-1.517L45,34 C45,34.785,44.82,36.164,44.346,37.157"/></svg>