<svg xmlns="http://www.w3.org/2000/svg"  viewBox="0 0 48 48" width="1600px" height="1600px"><path fill="#f57c14" d="M7.494,18.432c1.801,0,3.336,0.64,4.604,1.918C13.366,21.612,14,23.155,14,24.979V31H9.069v-5.924 c0-0.7-0.154-1.299-0.46-1.795c-0.307-0.496-0.679-0.745-1.115-0.745c-0.428,0-0.796,0.249-1.103,0.745 c-0.307,0.497-0.46,1.095-0.46,1.795V31H1v-6.021c0-1.824,0.634-3.367,1.902-4.629C4.162,19.071,5.693,18.432,7.494,18.432z"/><path fill="#f57c14" d="M18.86,17.442c-0.529,0.521-0.802,0.908-0.818,1.161v0.024c0,0.261,0.232,0.619,0.696,1.075 l0.55,0.55C19.776,20.749,20,21.343,20,22.035L20,31h-5v-8.965c0-0.7,0.244-1.295,0.733-1.783l0.562-0.549 c0.456-0.456,0.684-0.819,0.684-1.087V18.59c-0.025-0.244-0.297-0.627-0.819-1.148l-0.599-0.611 c-0.546-0.537-0.818-1.189-0.818-1.954c0-0.765,0.273-1.413,0.818-1.942c0.529-0.546,1.177-0.818,1.942-0.818 c0.773,0,1.425,0.269,1.954,0.806c0.545,0.537,0.818,1.189,0.818,1.954c0,0.774-0.273,1.425-0.818,1.954L18.86,17.442z"/><path fill="#f57c14" d="M28.73,26h4.97c-0.19,1.41-0.81,2.62-1.83,3.63v0.01c-1.27,1.28-2.8,1.92-4.6,1.92h-0.06 c-1.8,0-3.33-0.64-4.6-1.92v-0.01c-1.28-1.26-1.92-2.79-1.92-4.59v-0.06c0-1.8,0.64-3.33,1.92-4.59c1.27-1.28,2.81-1.92,4.63-1.92 c1.81,0,3.35,0.64,4.63,1.92c1.02,1.01,1.63,2.22,1.83,3.61h-4.98c-0.07-0.4-0.19-0.76-0.36-1.07c-0.32-0.57-0.69-0.86-1.12-0.86 s-0.8,0.29-1.11,0.86s-0.47,1.27-0.47,2.08s0.16,1.5,0.47,2.08c0.31,0.57,0.68,0.86,1.11,0.87c0.43-0.01,0.8-0.3,1.12-0.87 C28.53,26.77,28.65,26.41,28.73,26z"/><path fill="#f57c14" d="M44.166,25.528l2.516,3.847C46.894,29.693,47,29.978,47,30.23c0,0.106-0.016,0.204-0.049,0.293 C46.837,30.841,46.593,31,46.218,31h-4.104l-2.589-3.969v3.957h-4.971V20.911c0-0.684,0.244-1.27,0.733-1.759 c0.48-0.48,1.063-0.721,1.747-0.721c0.692,0,1.278,0.24,1.759,0.721c0.489,0.489,0.733,1.075,0.733,1.759v2.687l2.247-4.019 c0.35-0.595,0.859-0.977,1.527-1.148c0.22-0.057,0.436-0.085,0.647-0.085c0.432,0,0.843,0.114,1.234,0.342 c0.594,0.358,0.977,0.871,1.148,1.539c0.057,0.212,0.085,0.424,0.085,0.635c0,0.432-0.118,0.843-0.354,1.234L44.166,25.528 L44.166,25.528z"/></svg>