<svg xmlns="http://www.w3.org/2000/svg"  viewBox="0 0 48 48" width="1600px" height="1600px"><path fill="#455a64" d="M24,4C12.971,4,4,12.971,4,24s8.971,20,20,20s20-8.971,20-20S35.029,4,24,4z M40.317,32.15 c1.102-3.234-0.114-6.983-3.102-8.896c-3.499-2.24-8.151-1.218-10.391,2.281l0,0c-1.612,2.518-1.527,5.63-0.053,8.013 c-0.877,1.353-2.06,2.537-3.539,3.418c-4.696,2.8-10.744,1.697-14.109-2.417c-0.162-0.228-0.319-0.458-0.47-0.693 c2.278,2.846,6.438,3.663,9.71,1.817c3.618-2.042,4.897-6.63,2.855-10.249l0,0c-1.407-2.493-4.023-3.875-6.698-3.825 c-0.864-1.558-1.359-3.35-1.359-5.258c0-4.767,3.076-8.799,7.346-10.261c0.313-0.061,0.633-0.101,0.951-0.146 c-2.888,1.05-4.955,3.812-4.955,7.063c0,4.155,3.368,7.523,7.523,7.523c2.764,0,5.173-1.495,6.481-3.717 c1.91,0.013,3.841,0.517,5.589,1.587c4.397,2.69,6.237,8.082,4.687,12.794C40.641,31.516,40.477,31.832,40.317,32.15z"/></svg>