<svg xmlns="http://www.w3.org/2000/svg"  viewBox="0 0 48 48" width="1600px" height="1600px"><circle cx="24" cy="24" r="20" fill="#e0e0e0"/><path fill="#cfd8dc" d="M35.747,40.162l-4.283-4.283l-3.536,3.536l3.24,3.24C32.812,42.022,34.346,41.182,35.747,40.162z"/><path fill="#b0bec5" d="M36.557,39.557l-4.385-4.385l-3.536,3.536l3.535,3.535C33.752,41.533,35.226,40.632,36.557,39.557z"/><path fill="#90a4ae" d="M37.311,38.897l-4.433-4.433L29.343,38l3.782,3.782C34.647,41,36.048,40.027,37.311,38.897z"/><path fill="#78909c" d="M38.052,38.224l-4.466-4.466l-3.536,3.536l3.987,3.987C35.501,40.427,36.855,39.407,38.052,38.224z"/><path fill="#546e7a" d="M38.734,37.491l-4.441-4.441l-3.536,3.536l4.16,4.16C36.326,39.825,37.602,38.727,38.734,37.491z"/><path fill="#455a64" d="M39.407,36.75L35,32.343l-3.536,3.536l4.283,4.283C37.102,39.175,38.34,38.039,39.407,36.75z"/><circle cx="24" cy="24" r="16" fill="#263238"/><circle cx="24" cy="24" r="14" fill="#263238"/><path fill="#37474f" d="M24,10c-3.302,0-6.331,1.15-8.725,3.062L24,26l8.725-12.938C30.331,11.15,27.302,10,24,10z"/><path fill="#455a64" d="M24,10c-2.78,0-5.364,0.82-7.542,2.218L24,25l7.542-12.782C29.364,10.82,26.78,10,24,10z"/><path fill="#546e7a" d="M24,10c-2.169,0-4.214,0.508-6.046,1.388L24,24l6.046-12.612C28.214,10.508,26.169,10,24,10z"/><path fill="#78909c" d="M24,10c-1.55,0-3.037,0.262-4.431,0.727L24,23l4.431-12.273C27.037,10.262,25.55,10,24,10z"/><path fill="#90a4ae" d="M24,10c-1.032,0-2.035,0.119-3.004,0.331L24,22.238l3.004-11.906C26.035,10.119,25.032,10,24,10z"/><path fill="#b0bec5" d="M24,10c-0.565,0-1.118,0.043-1.666,0.108L24,21l1.666-10.892C25.118,10.043,24.565,10,24,10z"/><circle cx="24" cy="24" r="8" fill="#263238"/><circle cx="24" cy="24" r="6" fill="#e0e0e0"/><circle cx="24" cy="24" r="2" fill="#263238"/><path fill="#e0e0e0" d="M43.071,40.243l-2.828,2.828l-9.899-9.899c-0.781-0.781-0.781-2.047,0-2.828l0,0	c0.781-0.781,2.047-0.781,2.828,0L43.071,40.243z"/></svg>