<svg xmlns="http://www.w3.org/2000/svg"  viewBox="0 0 48 48" width="1600px" height="1600px"><path fill="#005480" d="M1.75,26.25l4.412-0.109C6.5,27.25,7,27.5,8,27.5c0.789,0,1.25-0.25,1.25-0.75c0-1.75-7-0.75-7-5	C2.25,19.887,4,18,7.859,18c3.04,0,4.891,0.75,5.641,3.5H9.25c-0.01-0.034,0-1-1.5-1C7,20.5,6.5,20.75,6.5,21.25	s0.801,1.008,2.25,1.25C10.25,22.75,14,23,14,26.014C14,27.847,12.66,30,7.989,30C5.007,30,3,29.5,1.75,26.25z"/><path fill="#005480" d="M13.75,18h5l1.5,3L22,18h4.879l-4.094,5.718L27,30h-5l-1.75-3.5L18.049,30h-4.983l4.358-6.282	L13.75,18z"/><path fill="#005480" d="M27,18l4.25,0.008v1.742c1-1,2.033-1.75,3.5-1.75c1.25,0,2.25,0.25,3.5,2c1-1.25,2.25-2,3.5-2	c3.351,0,4.25,2.205,4.25,4.439V30h-4.5v-6.864c0-1.386-0.795-1.636-1.25-1.636c-0.75,0-1.25,1-1.25,2.276V30h-4.5v-6.64	c0-1.36-0.75-1.86-1.25-1.86c-1.5,0-1.5,2.036-1.5,2.344V30H27V18z"/><path fill="#00e0fa" d="M32.399,8.2c-0.166,0-0.334-0.041-0.488-0.128c-4.828-2.711-10.994-2.711-15.822,0	c-0.479,0.271-1.091,0.1-1.361-0.383c-0.271-0.481-0.1-1.091,0.383-1.361c5.424-3.047,12.355-3.047,17.779,0	c0.482,0.271,0.653,0.88,0.383,1.361C33.089,8.017,32.749,8.2,32.399,8.2z"/><path fill="#00e0fa" d="M24,44c-3.104,0-6.178-0.805-8.89-2.328c-0.482-0.271-0.653-0.88-0.383-1.361	c0.271-0.483,0.882-0.653,1.361-0.383c4.828,2.711,10.994,2.711,15.822,0c0.479-0.27,1.091-0.101,1.361,0.383	c0.271,0.481,0.1,1.091-0.383,1.361C30.178,43.195,27.104,44,24,44z"/><path fill="#00e0fa" d="M30.609,11.78c-0.17,0-0.342-0.043-0.5-0.135c-3.721-2.152-8.498-2.152-12.219,0	c-0.48,0.278-1.09,0.113-1.366-0.364c-0.277-0.479-0.113-1.09,0.364-1.366c4.328-2.506,9.895-2.506,14.223,0	c0.478,0.276,0.642,0.888,0.364,1.366C31.29,11.602,30.955,11.78,30.609,11.78z"/><path fill="#00e0fa" d="M24,40c-2.488,0-4.947-0.662-7.111-1.915c-0.478-0.276-0.642-0.888-0.364-1.366	c0.276-0.478,0.886-0.644,1.366-0.364c3.721,2.152,8.498,2.152,12.219,0c0.479-0.279,1.089-0.113,1.366,0.364	c0.277,0.479,0.113,1.09-0.364,1.366C28.947,39.338,26.488,40,24,40z"/><path fill="#00e0fa" d="M28.819,15.36c-0.177,0-0.356-0.047-0.519-0.146c-2.65-1.611-5.951-1.611-8.602,0	c-0.472,0.288-1.087,0.137-1.374-0.335s-0.137-1.087,0.335-1.374c3.24-1.971,7.439-1.971,10.68,0	c0.472,0.287,0.622,0.902,0.335,1.374C29.486,15.189,29.157,15.36,28.819,15.36z"/><path fill="#00e0fa" d="M24,36c-1.873,0-3.72-0.521-5.34-1.506c-0.472-0.287-0.622-0.902-0.335-1.374	s0.902-0.622,1.374-0.335c2.65,1.611,5.951,1.611,8.602,0c0.473-0.286,1.088-0.137,1.374,0.335c0.287,0.472,0.137,1.087-0.335,1.374	C27.72,35.479,25.873,36,24,36z"/></svg>