<svg xmlns="http://www.w3.org/2000/svg"  viewBox="0 0 48 48" width="1600px" height="1600px" baseProfile="basic"><path fill="#e64a19" d="M35.124,12.03c-2.962-0.2-5.721,0.593-7.975,2.068C24.179,16.043,20.648,17,17.073,17h0	c-1.779,0-3.53-0.314-5.254-0.741c-0.71-0.176-1.454-0.266-2.222-0.258c-4.804,0.048-8.859,4.301-8.584,8.993	C1.275,29.458,5.059,33,9.688,33c0.739,0,1.456-0.091,2.141-0.261C13.526,32.316,15.25,32,17.002,32h0.228	c3.472,0,6.929,0.892,9.791,2.816C29.069,36.192,31.547,37,34.222,37c7.233,0,13.063-5.879,12.767-13.019	C46.729,17.701,41.534,12.463,35.124,12.03z"/><path fill="#fff" d="M11.112,19.667c-0.001-0.21-0.13-0.394-0.327-0.468c-0.709-0.265-2.462-0.75-4.145,0.137 c-2.176,1.147-1.403,3.6-0.118,4.324c1.335,0.751,3.132,0.89,3.108,2.031c-0.01,0.441-0.478,0.744-1.725,0.69 c-0.684-0.03-1.283-0.21-1.712-0.383c-0.329-0.132-0.685,0.122-0.685,0.476v0.859c0,0.192,0.105,0.364,0.277,0.448 c0.441,0.215,1.38,0.578,2.598,0.515c1.714-0.088,2.199-0.518,2.654-0.93c0.456-0.412,0.74-1.423,0.647-2.162 c-0.061-0.484-0.102-0.946-1.007-1.67c-0.806-0.645-2.392-0.853-3.044-1.591c-0.17-0.193-0.201-0.637-0.055-0.849 c0.143-0.21,0.607-0.474,1.279-0.441c0.388,0.019,1.026,0.107,1.609,0.28c0.324,0.096,0.651-0.132,0.65-0.469L11.112,19.667z"/><path fill="#fff" d="M17.735,21.622c-1.564-0.922-3.724-0.386-4.779,0.302c-0.27,0.176-0.416,0.49-0.416,0.813v7.088 c0,0.276,0.224,0.5,0.5,0.5h1.052c0.276,0,0.5-0.224,0.5-0.5v-1.728c0,0,2.129,0.646,3.584-0.563 C19.996,26.023,19.831,22.858,17.735,21.622z M17.063,25.67c-0.673,1.357-2.426,0.585-2.426,0.585v-3.143 c0.728-0.331,1.681-0.124,1.93,0.055C16.919,23.42,17.735,24.314,17.063,25.67z"/><path fill="#fff" d="M26.816,22.674c-0.941-1.371-2.408-1.543-3.059-1.543c-0.914,0-2.445,0.127-3.287,1.671 c-0.924,1.694-0.243,3.518,0.081,3.96s1.221,1.544,3.206,1.485s2.709-1.002,3.059-1.529C27.408,25.825,27.636,23.868,26.816,22.674 z M23.677,26.52c0,0-1.538-0.002-1.516-1.805c0.022-1.804,1.441-1.805,1.441-1.805s1.623-0.101,1.623,1.782 C25.224,26.628,23.677,26.52,23.677,26.52z"/><path fill="#fff" d="M34.816,22.674c-0.941-1.371-2.408-1.543-3.059-1.543c-0.914,0-2.445,0.127-3.287,1.671 c-0.924,1.694-0.243,3.518,0.081,3.96s1.221,1.544,3.206,1.485s2.709-1.002,3.059-1.529C35.408,25.825,35.636,23.868,34.816,22.674 z M31.677,26.52c0,0-1.538-0.002-1.516-1.805c0.022-1.804,1.441-1.805,1.441-1.805s1.623-0.101,1.623,1.782 C33.224,26.628,31.677,26.52,31.677,26.52z"/><path fill="#fff" d="M36.14,22.277v5.473c0,0.276,0.224,0.5,0.5,0.5h1.103c0.276,0,0.5-0.224,0.5-0.5v-4.517 c0,0,2.147-0.985,2.338,0.882v3.635c0,0.276,0.224,0.5,0.5,0.5h1.088c0.276,0,0.5-0.224,0.5-0.5v-4.017 c0,0,0.015-1.956-2.279-2.471C38.096,20.748,36.14,22.277,36.14,22.277z"/></svg>