<svg xmlns="http://www.w3.org/2000/svg"  viewBox="0 0 48 48" width="1600px" height="1600px"><path fill="#90f5d1" d="M6,10c0-2.2,1.8-4,4-4h28c2.2,0,4,1.8,4,4v28c0,2.2-1.8,4-4,4H10c-2.2,0-4-1.8-4-4V10z"/><path fill="#212121" d="M29.654,18.245h-8.096c-2.761,0-5,2.239-5,5v7.415c0,1.657,1.343,3,3,3h11.096c2.209,0,4-1.791,4-4 v-6.415C34.654,20.483,32.416,18.245,29.654,18.245z M25.606,28.633c0,0.696-0.564,1.261-1.261,1.261l0,0 c-0.696,0-1.261-0.564-1.261-1.261v-2.809c0-0.696,0.564-1.261,1.261-1.261l0,0c0.696,0,1.261,0.564,1.261,1.261V28.633z M30.777,28.633c0,0.696-0.564,1.261-1.261,1.261l0,0c-0.696,0-1.261-0.564-1.261-1.261v-2.809c0-0.696,0.564-1.261,1.261-1.261 l0,0c0.696,0,1.261,0.564,1.261,1.261V28.633z"/><path fill="#212121" d="M12.938,22.907c-0.043,0-0.087-0.003-0.131-0.007c-0.685-0.072-1.183-0.682-1.114-1.367 c0.269-2.658,2.33-7.794,8.209-8.206c0.692-0.049,1.286,0.471,1.334,1.16c0.048,0.688-0.471,1.285-1.16,1.334 c-5.23,0.366-5.873,5.739-5.897,5.968C14.11,22.43,13.568,22.907,12.938,22.907z"/></svg>