<svg xmlns="http://www.w3.org/2000/svg"  viewBox="0 0 48 48" width="1600px" height="1600px"><path fill="#ff7043" d="M47.54,20.08h-3.23v14.43c0,0.26,0.2,0.47,0.46,0.47h2.77c0.25,0,0.46-0.21,0.46-0.47V20.54	C48,20.29,47.79,20.08,47.54,20.08z M40.01,22c-1.31-1.2-3.03-1.92-4.93-1.92c-0.78,0-1.53,0.12-2.23,0.35	c-0.28,0.08-0.55,0.19-0.81,0.31c-0.06,0.02-0.13,0.04-0.19,0.04c-0.26,0-0.47-0.21-0.47-0.47v-5.35c0-0.26-0.2-0.47-0.46-0.47	h-3.23v13.04c0,0.36,0.03,0.71,0.08,1.05c0.37,2.67,2.15,4.89,4.56,5.86c0.85,0.35,1.78,0.54,2.75,0.54c1.26,0,2.44-0.32,3.48-0.88	c2.26-1.22,3.81-3.59,3.89-6.33c0.01-0.08,0.01-0.16,0.01-0.24C42.46,25.33,41.51,23.35,40.01,22z M35.08,31.25	c-0.63,0-1.22-0.16-1.74-0.44c-1.17-0.62-1.96-1.86-1.96-3.28c0-2.06,1.66-3.73,3.7-3.73c0.81,0,1.56,0.26,2.16,0.71	c0.93,0.68,1.53,1.78,1.53,3.02C38.77,29.59,37.12,31.25,35.08,31.25z M10.85,33.59c0,0,0-0.02-0.01-0.02l-1.39-2.43	c-0.09-0.15-0.24-0.24-0.41-0.24c-0.06,0-0.12,0.02-0.18,0.04c-0.45,0.2-0.95,0.31-1.48,0.31c-2.03,0-3.69-1.66-3.69-3.72v-3.26	c0-0.26,0.21-0.47,0.46-0.47h4.62c0.25,0,0.46-0.2,0.46-0.46v-2.8c0-0.25-0.21-0.46-0.46-0.46H4.15c-0.25,0-0.46-0.21-0.46-0.47	v-4.65c0-0.26-0.2-0.47-0.46-0.47H0v13.04c0,4.11,3.31,7.45,7.38,7.45c1.17,0,2.28-0.27,3.26-0.76	C10.87,34.1,10.97,33.82,10.85,33.59z M25.38,20.08h-3.23v7.45c0,1.99-1.54,3.61-3.48,3.72c-0.07,0.01-0.14,0.01-0.21,0.01	c-2.04,0-3.69-1.67-3.69-3.73v-6.99c0-0.25-0.21-0.46-0.46-0.46h-3.23v7.45c0,4,3.13,7.27,7.06,7.43c0.11,0.02,0.21,0.02,0.32,0.02	c4.08,0,7.39-3.34,7.39-7.45v-6.99C25.85,20.29,25.64,20.08,25.38,20.08z M46.15,14.49c-1.02,0-1.84,0.83-1.84,1.86	c0,1.03,0.82,1.87,1.84,1.87c1.02,0,1.85-0.84,1.85-1.87C48,15.32,47.17,14.49,46.15,14.49z"/><path fill="#dd2c00" d="M42.45,27.77c-0.08,2.74-1.63,5.11-3.89,6.33C39.27,31.65,40.63,29.47,42.45,27.77z"/><path fill="#dd2c00" d="M48,24.58v9.93c0,0.26-0.21,0.47-0.46,0.47h-2.77c-0.26,0-0.46-0.21-0.46-0.47v-8.2	C45.43,25.56,46.68,24.98,48,24.58z"/><path fill="#dd2c00" d="M40.01,22c-1.31-1.2-3.03-1.92-4.93-1.92c-0.78,0-1.53,0.12-2.23,0.35c-2.17,2.36-3.9,5.12-5.08,8.15	c0.37,2.67,2.15,4.89,4.56,5.86c0.85,0.35,1.78,0.54,2.75,0.54c1.26,0,2.44-0.32,3.48-0.88c2.26-1.22,3.81-3.59,3.89-6.33	c0.01-0.08,0.01-0.16,0.01-0.24C42.46,25.33,41.51,23.35,40.01,22z M35.08,31.25c-0.63,0-1.22-0.16-1.74-0.44	c-1.17-0.62-1.96-1.86-1.96-3.28c0-2.06,1.66-3.73,3.7-3.73c0.81,0,1.56,0.26,2.16,0.71c0.93,0.68,1.53,1.78,1.53,3.02	C38.77,29.59,37.12,31.25,35.08,31.25z"/><path fill="#dd2c00" d="M44.31,16.35c0-1.03,0.82-1.86,1.84-1.86c1.02,0,1.85,0.83,1.85,1.86c0,1.03-0.83,1.87-1.85,1.87	C45.13,18.22,44.31,17.38,44.31,16.35z"/><path fill="#dd2c00" d="M48,20.54v13.97c0,0.26-0.21,0.47-0.46,0.47h-2.77c-0.26,0-0.46-0.21-0.46-0.47V20.08h3.23	C47.79,20.08,48,20.29,48,20.54z"/><path fill="#f4511e" d="M25.85,20.54v6.99c0,4.11-3.31,7.45-7.39,7.45c-0.11,0-0.21,0-0.32-0.02	c0.11-1.26,0.29-2.5,0.53-3.71c1.94-0.11,3.48-1.73,3.48-3.72v-5.8c0.3-0.56,0.63-1.11,0.96-1.65h2.27	C25.64,20.08,25.85,20.29,25.85,20.54z"/><path fill="#f4511e" d="M40.01,22c-1.31-1.2-3.03-1.92-4.93-1.92c-0.78,0-1.53,0.12-2.23,0.35	c-0.28,0.08-0.55,0.19-0.81,0.31c-0.06,0.02-0.13,0.04-0.19,0.04c-0.26,0-0.47-0.21-0.47-0.47v-5.35c0-0.26-0.2-0.47-0.46-0.47	h-3.23v13.04c0,0.36,0.03,0.71,0.08,1.05c0.37,2.67,2.15,4.89,4.56,5.86c0.85,0.35,1.78,0.54,2.75,0.54c1.26,0,2.44-0.32,3.48-0.88	c2.26-1.22,3.81-3.59,3.89-6.33c0.01-0.08,0.01-0.16,0.01-0.24C42.46,25.33,41.51,23.35,40.01,22z M35.08,31.25	c-0.63,0-1.22-0.16-1.74-0.44c-1.17-0.62-1.96-1.86-1.96-3.28c0-2.06,1.66-3.73,3.7-3.73c0.81,0,1.56,0.26,2.16,0.71	c0.93,0.68,1.53,1.78,1.53,3.02C38.77,29.59,37.12,31.25,35.08,31.25z"/><path fill="#f4511e" d="M44.31,16.35c0-1.03,0.82-1.86,1.84-1.86c1.02,0,1.85,0.83,1.85,1.86c0,1.03-0.83,1.87-1.85,1.87	C45.13,18.22,44.31,17.38,44.31,16.35z"/><path fill="#dd2c00" d="M48,20.54v13.97c0,0.26-0.21,0.47-0.46,0.47h-2.77c-0.26,0-0.46-0.21-0.46-0.47V20.08h3.23	C47.79,20.08,48,20.29,48,20.54z"/><path fill="#e53935" d="M42.46,27.53c0,0.08,0,0.16-0.01,0.24c-0.08,2.74-1.63,5.11-3.89,6.33	c-1.04,0.56-2.22,0.88-3.48,0.88c-0.97,0-1.9-0.19-2.75-0.54c0.21-1.26,0.56-2.47,1.01-3.63c0.52,0.28,1.11,0.44,1.74,0.44	c2.04,0,3.69-1.66,3.69-3.72c0-1.24-0.6-2.34-1.53-3.02c0.84-0.91,1.77-1.76,2.77-2.51C41.51,23.35,42.46,25.33,42.46,27.53z"/><path fill="#e53935" d="M48,20.54v13.97c0,0.26-0.21,0.47-0.46,0.47h-2.77c-0.26,0-0.46-0.21-0.46-0.47V20.08h3.23	C47.79,20.08,48,20.29,48,20.54z"/><path fill="#c2185b" d="M42.45,27.77c-0.08,2.74-1.63,5.11-3.89,6.33C39.27,31.65,40.63,29.47,42.45,27.77z"/><path fill="#c2185b" d="M48,24.58v9.93c0,0.26-0.21,0.47-0.46,0.47h-2.77c-0.26,0-0.46-0.21-0.46-0.47v-8.2	C45.43,25.56,46.68,24.98,48,24.58z"/><path fill="#8e24aa" d="M48,28.84v5.67c0,0.26-0.21,0.47-0.46,0.47h-2.77c-0.26,0-0.46-0.21-0.46-0.47v-2.9	C45.3,30.42,46.56,29.46,48,28.84z"/></svg>