<svg xmlns="http://www.w3.org/2000/svg"  viewBox="0 0 48 48" width="1600px" height="1600px"><path fill="#00e5ff" d="M38,42H10c-2.209,0-4-1.791-4-4V10c0-2.209,1.791-4,4-4h28c2.209,0,4,1.791,4,4v28	C42,40.209,40.209,42,38,42z"/><path fill="#263238" d="M36.138,22.281c-0.609-1.055-1.593-1.81-2.77-2.125C32.983,20.052,32.585,20,32.187,20	c-0.002,0-0.003,0-0.005,0c-0.536-0.803-1.302-1.407-2.206-1.74l0.678-2.531c0.315-1.177,0.154-2.406-0.456-3.461	s-1.593-1.81-2.77-2.125c-0.385-0.103-0.783-0.156-1.182-0.156h0c-2.06,0-3.871,1.39-4.405,3.381l-0.415,1.53l-0.472-1.573	c-0.548-1.968-2.348-3.338-4.393-3.338c-0.398,0-0.796,0.052-1.182,0.156c-2.429,0.651-3.876,3.157-3.225,5.586l1.725,6.438	C13.314,22.987,13,23.968,13,25v1.25v1.25C13,33.29,17.71,38,23.5,38c4.239,0,7.997-2.538,9.633-6.338	c1.294-0.526,2.312-1.634,2.69-3.042l0.771-2.878C36.909,24.565,36.748,23.336,36.138,22.281z M29.896,22.941l-1.321,4.933	c-0.177,0.681-0.792,1.156-1.495,1.156c-0.146,0-0.28-0.017-0.413-0.054c-0.654-0.172-1.093-0.759-1.131-1.413	C26.409,27.038,27,26.091,27,25c0-0.568-0.168-1.115-0.462-1.577l0.344-1.291c0.11-0.404,0.37-0.74,0.731-0.948	c0.36-0.207,0.779-0.264,1.187-0.15c0.4,0.106,0.735,0.364,0.943,0.726C29.952,22.119,30.007,22.539,29.896,22.941z M27.757,14.951	l-2.033,7.599C25.223,22.2,24.619,22,24,22h-6c-0.347,0-0.69,0.067-1.011,0.182l-1.937-7.237C15.018,14.823,15,14.69,15,14.55	c0-0.709,0.476-1.329,1.162-1.508c0.399-0.11,0.816-0.055,1.177,0.152c0.362,0.21,0.621,0.548,0.732,0.97l1.668,5.533	C19.958,20.464,20.679,21,21.49,21c0.819,0,1.544-0.555,1.762-1.35l1.491-5.503c0.106-0.405,0.365-0.743,0.728-0.952	c0.361-0.209,0.778-0.261,1.182-0.152C27.481,13.262,27.977,14.118,27.757,14.951z M16,25c0-0.084,0.009-0.177,0.015-0.241	c0.027-0.199,0.069-0.356,0.151-0.544c0.021-0.065,0.052-0.123,0.071-0.163c0.048-0.077,0.094-0.155,0.17-0.256	c0.046-0.069,0.078-0.109,0.14-0.164c0.06-0.062,0.121-0.123,0.165-0.163c0.073-0.055,0.146-0.109,0.223-0.161	C17.236,23.109,17.614,23,18,23h6c0.529,0,1.046,0.213,1.418,0.586c0.049,0.048,0.092,0.102,0.139,0.161	c0.018,0.031,0.039,0.061,0.062,0.087C25.868,24.161,26,24.564,26,25c0,1.103-0.897,2-2,2h-3.5h-1c-0.276,0-0.5,0.224-0.5,0.5	s0.224,0.5,0.5,0.5h1c1.379,0,2.5,1.121,2.5,2.5v1c0,0.276,0.224,0.5,0.5,0.5s0.5-0.224,0.5-0.5v-1c0-0.98-0.407-1.864-1.058-2.5H24	c0.193,0,0.38-0.022,0.563-0.057c0.179,0.943,0.883,1.747,1.843,1.998c0.212,0.06,0.438,0.089,0.674,0.089	c0.91,0,1.723-0.486,2.175-1.234c0.306,0.488,0.776,0.87,1.356,1.064c-0.013,0.038-0.02,0.073-0.035,0.113	c-0.063,0.193-0.138,0.377-0.227,0.575c-0.07,0.167-0.149,0.344-0.245,0.502c-0.013,0.021-0.025,0.045-0.036,0.068h-0.001	c-0.089,0.17-0.188,0.331-0.295,0.482c-0.017,0.023-0.051,0.074-0.062,0.1c-0.082,0.128-0.173,0.255-0.254,0.36	c-0.146,0.176-0.293,0.353-0.461,0.544c-0.057,0.073-0.123,0.137-0.188,0.202c-0.055,0.055-0.116,0.117-0.179,0.165	c-0.009,0.007-0.091,0.077-0.1,0.085c-0.132,0.115-0.265,0.231-0.4,0.343c-0.135,0.107-0.278,0.217-0.422,0.306	c-0.014,0.009-0.026,0.018-0.039,0.027c-0.021,0.011-0.042,0.022-0.062,0.036c-0.118,0.082-0.237,0.154-0.391,0.244	c-0.043,0.028-0.086,0.049-0.143,0.092c-0.046,0.011-0.089,0.028-0.129,0.051c-0.123,0.07-0.246,0.132-0.373,0.186	c-0.129,0.057-0.258,0.111-0.388,0.157c-0.042,0.016-0.072,0.019-0.109,0.044l-0.215,0.081c-0.147,0.047-0.295,0.094-0.453,0.131	c-0.021,0.006-0.041,0.012-0.062,0.02c-0.182,0.043-0.364,0.086-0.563,0.114c-0.204,0.037-0.409,0.065-0.657,0.084	C23.919,34.991,23.715,35,23.5,35c-4.136,0-7.5-3.364-7.5-7.5V25z M32.198,28.792c-0.361,0.208-0.784,0.265-1.185,0.155	c-0.832-0.223-1.327-1.08-1.104-1.911l0.771-2.878C30.867,23.461,31.5,23,32.189,23c0.133,0,0.269,0.018,0.402,0.054	c0.832,0.223,1.327,1.081,1.104,1.912l-0.771,2.878C32.817,28.247,32.559,28.584,32.198,28.792z"/></svg>