<svg xmlns="http://www.w3.org/2000/svg"  viewBox="0 0 48 48" width="1600px" height="1600px"><path fill="#ff1744" d="M44,24c0,11.05-8.95,20-20,20c-5.05,0-9.67-1.88-13.19-4.98C9.823,38.159,10.801,36.041,10,35 c-0.789-1.026-3.359-0.974-3.94-2.15C4.74,30.18,4,27.18,4,24s0.74-6.18,2.06-8.85C6.722,13.804,9.064,14.148,10,13 c0.789-0.968,0.134-3.46,1.09-4.26C14.57,5.78,19.08,4,24,4C35.05,4,44,12.95,44,24z"/><path fill="#fff" d="M32,20.597v6.796c0,0.373-0.208,0.715-0.539,0.887L10.81,39.02c-1.96-1.71-3.58-3.8-4.75-6.17 L23.08,24L6.06,15.15c1.22-2.48,2.94-4.66,5.03-6.41l20.384,10.977C31.798,19.891,32,20.229,32,20.597z"/></svg>