<svg xmlns="http://www.w3.org/2000/svg"  viewBox="0 0 48 48" width="1600px" height="1600px"><path fill="#e53935" d="M9.712,24.002c-1.991,3.976-2.134,8.876,0.143,13.847c0.048,0.105-0.084,0.203-0.165,0.121 C6.168,34.361,4,29.436,4,24.002c0-6.557,3.162-12.378,8.038-16.015c0.073-0.054,0.168,0.041,0.111,0.112 c-1.734,2.169-3.865,5.469-3.865,8.763c1.027-1.711,5.662-9.328,12.648-11.842c0.292-0.105,0.55,0.235,0.378,0.493 c-2.213,3.325-3.745,6.876-3.745,13.491c0.922-1.536,8.718-10.476,10.874-12.938c0.135-0.154,0.392-0.021,0.337,0.175 c-3.068,10.928-13.356,24.263-12.735,33.961c0.017,0.273-0.322,0.41-0.483,0.19C13.65,37.768,10.554,32.023,9.712,24.002z"/><path fill="#e53935" d="M44,23.998c0,6.528-3.135,12.334-7.981,15.975c-0.102,0.076-0.233-0.057-0.158-0.159 c1.452-1.964,3.529-4.149,3.855-8.675c-1.036,1.726-4.741,8.791-12.729,11.839c-0.245,0.093-0.472-0.189-0.326-0.406 c1.602-2.389,4.34-7.952,4.02-13.383c-1.876,2.502-8.873,10.334-11.06,12.719c-0.18,0.197-0.513,0.036-0.463-0.226 C21.056,31.9,31.774,15.665,31.891,7.688c0.004-0.241,0.314-0.333,0.447-0.132c1.923,2.917,5.236,9.228,5.236,16.441 c2.006-3.338,2.756-7.932,0.509-13.768c-0.06-0.156,0.134-0.292,0.251-0.172C41.841,13.659,44,18.576,44,23.998z"/></svg>