<svg xmlns="http://www.w3.org/2000/svg"  viewBox="0 0 48 48" width="1600px" height="1600px"><path fill="#40f" d="M42,14v4H6v-4c0-4.42,3.58-8,8-8h20C38.42,6,42,9.58,42,14z"/><path fill="#331799" d="M42,30v4c0,4.42-3.58,8-8,8H14c-4.42,0-8-3.58-8-8v-4H42z"/><rect width="36" height="12" x="6" y="18" fill="#3d09d7"/><path fill="#fff" d="M35.982,29c-0.936,0-2.048,0.233-2.867,0.817c-0.234,0.175-0.234,0.408,0.059,0.408 c0.936-0.117,3.043-0.408,3.452,0.117c0.351,0.467-0.41,2.451-0.761,3.384c-0.117,0.292,0.117,0.35,0.351,0.175 c1.58-1.342,1.989-4.085,1.697-4.435C37.737,29.175,36.918,29,35.982,29z"/><path fill="#fff" d="M10.15,29.8c1.81,1.133,3.64,2.215,5.561,3.032c1.914,0.815,3.922,1.398,5.94,1.406 c2.055,0.055,4.142-0.227,6.167-0.688c2.032-0.468,4.012-1.173,5.957-1.998c0.254-0.109,0.549,0.01,0.657,0.264 c0.1,0.235,0.006,0.505-0.21,0.631c-1.887,1.089-3.928,1.933-6.054,2.505c-2.132,0.572-4.334,0.822-6.563,0.786 c-2.276-0.119-4.455-0.812-6.405-1.821c-1.955-1.014-3.73-2.29-5.351-3.717c-0.104-0.092-0.114-0.25-0.023-0.354 C9.91,29.753,10.048,29.736,10.15,29.8z"/><path fill="#fff" d="M22.5,27h-0.404C20.94,27,20,26.06,20,24.904V21h1v3.904C21,25.508,21.492,26,22.096,26H22.5 c0.603,0,1.5-0.897,1.5-1.5v-1h1v1C25,25.668,23.668,27,22.5,27z"/><rect width="1" height="6" x="11" y="21" fill="#fff"/><path fill="#fff" d="M11.391,23.21c-0.021-0.487,0.147-0.891,0.372-1.257c0.117-0.183,0.246-0.358,0.428-0.523 c0.202-0.171,0.434-0.283,0.672-0.359c0.984-0.292,2.011,0.305,2.438,1.196c0.223,0.451,0.202,0.994,0.199,1.324v1.136V27h-1 v-2.273v-1.136c0.002-0.421,0.008-0.664-0.108-0.906c-0.209-0.498-0.826-0.719-1.335-0.704c-0.446-0.019-1.043,0.69-1.167,1.229 H11.391z"/><path fill="#fff" d="M14.75,23.21c-0.021-0.487,0.147-0.891,0.372-1.257c0.117-0.183,0.246-0.358,0.428-0.523 c0.202-0.171,0.434-0.283,0.672-0.359c0.984-0.292,2.011,0.305,2.438,1.196c0.223,0.451,0.202,0.994,0.199,1.324v1.136V27h-1 v-2.273v-1.136c0.002-0.421,0.008-0.664-0.108-0.906c-0.209-0.498-0.826-0.719-1.335-0.704c-0.446-0.019-1.043,0.69-1.167,1.229 H14.75z"/><rect width="1" height="6" x="24" y="21" fill="#fff"/><rect width="1" height="6" x="31" y="21" fill="#fff"/><circle cx="31.5" cy="19" r="1" fill="#fff"/><path fill="#fff" d="M34,23.62v0.76c0,0.89,0.73,1.62,1.62,1.62c0.43,0,0.84-0.17,1.15-0.47L37,25.3v1.3 c-0.41,0.26-0.88,0.4-1.38,0.4C34.18,27,33,25.82,33,24.38v-0.76c0-1.44,1.18-2.62,2.62-2.62c0.5,0,0.97,0.14,1.38,0.4v1.3 l-0.23-0.23c-0.31-0.3-0.72-0.47-1.15-0.47C34.73,22,34,22.73,34,23.62z"/><path fill="#fff" d="M27.245,21.955C27.145,22.025,27,22.23,27,22.5c0,0.58,0.32,0.75,1.16,1.03 C28.94,23.78,30,24.14,30,25.5c0,0.52-0.2,0.95-0.59,1.25c-0.49,0.38-1.23,0.5-1.94,0.5c-0.54,0-1.08-0.07-1.47-0.14v-1.02 c0.94,0.19,2.28,0.28,2.79-0.13c0.1-0.07,0.21-0.19,0.21-0.46c0-0.58-0.32-0.75-1.16-1.03C27.06,24.22,26,23.86,26,22.5 c0-0.52,0.2-0.95,0.59-1.25c0.87-0.68,2.307-0.499,3.193-0.164v1.02C28.857,21.572,27.755,21.545,27.245,21.955z"/></svg>