<svg xmlns="http://www.w3.org/2000/svg"  viewBox="0 0 48 48" width="1600px" height="1600px"><path fill="#1493F6" d="M35,38c3.667,0.021,7-4,7-9c0-4-2-8-5-9v-3c0-5.635-5.842-11-13-11s-13.135,5.387-13.135,11.022V20C8,21,6,24,6,29s3,9,7,9V17c0-4.774,4.68-9,11-9s11,4.226,11,9"/><path fill="#FFC300" d="M33 29L30 23 27 30 24 20 21 30 17.857 23 15 29 15 31 17.857 26 21 34 24 26 27 34 30 26 33 31z"/><path fill="#404CB8" d="M35,20c-0.567,0.007-1.588,0.49-2,1v16c0.436,0.384,1.45,0.902,2,1V20z M13,20v18c0.619,0.026,1.646-0.47,2-1V21C14.56,20.605,13.549,20.079,13,20z"/></svg>