<svg xmlns="http://www.w3.org/2000/svg"  viewBox="0 0 48 48" width="1600px" height="1600px"><path fill="#37474f" d="M47 22L24 33.5 1 21.999 1 25.499 24 37 47 25.5z"/><path fill="#ff9100" d="M38.095,23.343l3.508-1.754C38.253,15.291,31.63,11,24,11c-7.785,0-14.51,4.473-17.791,10.979c3.485-4.788,9.116-7.913,15.491-7.913C28.662,14.067,34.738,17.791,38.095,23.343z"/><path fill="#ff6e40" d="M32.483,25.956L36,24.197C33.659,19.909,29.11,17,23.881,17c-5.687,0-10.567,3.442-12.68,8.355c2.366-3.203,6.149-5.288,10.427-5.288C26.17,20.067,30.162,22.411,32.483,25.956z"/><path fill="#ad1457" d="M27.019,28.655l3.525-1.763C29.224,24.601,26.783,23,23.956,23c-3.367,0-6.194,2.243-7.21,5.279c1.253-1.33,3.015-2.17,4.982-2.17C23.87,26.108,25.759,27.113,27.019,28.655z"/></svg>