<svg xmlns="http://www.w3.org/2000/svg"  viewBox="0 0 48 48" width="1600px" height="1600px" baseProfile="basic"><circle cx="24" cy="24" r="20" fill="#f1001a"/><path fill="#fff" d="M22.862,29.653c-1.59,0-2.562-0.95-2.562-2.253c0-1.811,1.833-3.38,3.866-3.821l-4.727-11.641h8.239	l1.502,2.916h-5.765l3.446,8.394c0.287,0.663,0.464,1.392,0.464,2.098C27.302,27.842,24.828,29.653,22.862,29.653L22.862,29.653z M31.414,18.016l3.601,6.173c0.685,1.23,1.082,2.614,1.127,4.042c0,4.503-3.578,7.754-8.637,7.754H20.59	c-5.08,0-8.637-3.251-8.637-7.754c0.044-1.406,0.42-2.79,1.104-4.042l3.601-6.173h3.38l-4.219,7.271	c-0.508,0.879-0.795,1.867-0.839,2.878c0,2.878,1.966,4.899,5.699,4.899h6.715c3.733,0,5.699-2.043,5.699-4.899	c-0.022-1.01-0.309-1.999-0.839-2.878l-4.197-7.271H31.414z"/></svg>