<svg xmlns="http://www.w3.org/2000/svg"  viewBox="0 0 48 48" width="1600px" height="1600px"><circle cx="24" cy="24" r="20" fill="#212121"/><path fill="#f48fb1" d="M20.558,25.655c-0.173-0.037-0.311-0.098-0.608-0.262	c-0.035-0.02-0.118-0.095-0.187-0.17c-0.118-0.13-0.118-0.133-0.066-0.19c0.029-0.032,0.17-0.147,0.314-0.257l0.262-0.199	l0.104,0.095c0.147,0.141,0.297,0.202,0.519,0.216c0.164,0.012,0.216,0.003,0.346-0.063c0.176-0.089,0.239-0.141,0.34-0.277	c0.213-0.285,0.21-0.709-0.003-0.98c-0.219-0.277-0.533-0.395-0.83-0.311c-0.089,0.023-0.205,0.061-0.254,0.084	c-0.104,0.04-0.061,0.066-0.444-0.288c-0.104-0.095-0.196-0.176-0.208-0.176c-0.014,0-0.023-0.012-0.023-0.026	c0-0.026,0.329-0.262,0.363-0.262c0.009,0,0.058-0.017,0.107-0.04c0.248-0.11,0.303-0.118,0.64-0.118	c0.303,0,0.372,0.009,0.554,0.078c0.657,0.242,1.081,0.845,1.081,1.537c0,0.236-0.035,0.421-0.115,0.62	C22.141,25.424,21.371,25.828,20.558,25.655z"/><path fill="#f48fb1" d="M10.105,24.058v-1.557h0.876c0.836,0,0.885,0.003,1.046,0.063	c0.467,0.179,0.686,0.715,0.476,1.162c-0.046,0.095-0.104,0.19-0.13,0.213c-0.069,0.055-0.061,0.081,0.052,0.182	c0.138,0.118,0.234,0.291,0.271,0.487c0.078,0.378-0.13,0.752-0.516,0.931l-0.159,0.075h-0.957h-0.957L10.105,24.058z M11.647,24.946c0.208-0.095,0.242-0.386,0.066-0.542c-0.095-0.086-0.098-0.086-0.461-0.086h-0.369v0.332v0.332h0.346	C11.431,24.98,11.604,24.966,11.647,24.946z M11.707,23.648c0.124-0.138,0.133-0.274,0.026-0.415	c-0.098-0.127-0.228-0.161-0.562-0.15l-0.274,0.009l-0.009,0.34l-0.009,0.343l0.363-0.012l0.366-0.009L11.707,23.648z"/><path fill="#f48fb1" d="M13.333,24.058v-1.557h0.418h0.418v1.182v1.182h0.822h0.822v0.375v0.375h-1.24h-1.24	V24.058z"/><path fill="#f48fb1" d="M16.303,25.606c0-0.012,0.101-0.291,0.173-0.481c0.035-0.086,0.086-0.231,0.115-0.317	c0.029-0.086,0.081-0.231,0.115-0.317c0.035-0.086,0.072-0.19,0.086-0.231c0.012-0.04,0.089-0.254,0.173-0.476	c0.084-0.222,0.17-0.455,0.19-0.519c0.023-0.063,0.055-0.141,0.066-0.173c0.014-0.032,0.049-0.121,0.075-0.202	c0.029-0.078,0.069-0.185,0.089-0.236c0.023-0.049,0.04-0.104,0.04-0.121c0-0.02,0.121-0.032,0.369-0.032h0.369l0.075,0.21	c0.199,0.551,0.254,0.701,0.283,0.747c0.014,0.029,0.029,0.066,0.029,0.086c0,0.017,0.04,0.138,0.089,0.265	c0.049,0.13,0.11,0.285,0.133,0.349c0.026,0.063,0.055,0.141,0.066,0.173s0.043,0.124,0.072,0.202	c0.026,0.081,0.058,0.17,0.069,0.202c0.127,0.32,0.236,0.623,0.291,0.801l0.026,0.078h-0.415h-0.412l-0.11-0.337	c-0.061-0.187-0.112-0.346-0.115-0.355c0-0.009-0.009-0.035-0.02-0.058c-0.009-0.023-0.037-0.121-0.063-0.216	s-0.061-0.199-0.072-0.231c-0.014-0.032-0.061-0.173-0.104-0.317c-0.043-0.141-0.089-0.271-0.101-0.285	c-0.014-0.017-0.026-0.058-0.026-0.092c0-0.035-0.017-0.078-0.04-0.095c-0.032-0.026-0.072,0.069-0.219,0.522	c-0.098,0.306-0.245,0.758-0.329,1.003L17.124,25.6l-0.412,0.009C16.487,25.612,16.303,25.612,16.303,25.606z"/><path fill="#f48fb1" d="M23.049,24.058v-1.557h0.404h0.404v0.519c0,0.285,0.012,0.519,0.026,0.519	s0.072-0.058,0.13-0.13c0.058-0.069,0.121-0.144,0.141-0.164c0.037-0.04,0.395-0.479,0.43-0.528	c0.012-0.014,0.058-0.072,0.101-0.124l0.081-0.095l0.496,0.009l0.493,0.009l-0.317,0.375c-0.173,0.208-0.366,0.427-0.424,0.49	c-0.179,0.19-0.493,0.565-0.493,0.588c0,0.014,0.023,0.052,0.052,0.086c0.026,0.032,0.086,0.11,0.13,0.17	c0.046,0.058,0.147,0.19,0.225,0.294c0.078,0.104,0.182,0.245,0.234,0.317c0.052,0.072,0.107,0.144,0.124,0.161	c0.014,0.017,0.049,0.063,0.072,0.098c0.023,0.037,0.075,0.107,0.115,0.156c0.04,0.049,0.115,0.15,0.167,0.228l0.095,0.135h-0.484	h-0.484l-0.072-0.089c-0.04-0.049-0.101-0.121-0.135-0.159c-0.037-0.037-0.066-0.075-0.066-0.084c0-0.009-0.029-0.046-0.061-0.081	c-0.035-0.035-0.095-0.11-0.138-0.164c-0.04-0.055-0.104-0.133-0.138-0.173c-0.161-0.185-0.21-0.248-0.21-0.265	c0-0.014-0.02-0.023-0.043-0.023c-0.037,0-0.043,0.078-0.043,0.519v0.519h-0.404h-0.404V24.058z"/><path fill="#f48fb1" d="M26.941,24.058v-1.557h0.787c0.839,0,0.948,0.014,1.217,0.153	c0.228,0.115,0.424,0.357,0.499,0.614c0.144,0.496-0.167,1.081-0.686,1.286c-0.13,0.052-0.234,0.066-0.582,0.075l-0.427,0.012v0.487	v0.487h-0.404h-0.404V24.058z M28.52,23.798c0.124-0.092,0.173-0.248,0.121-0.381c-0.084-0.208-0.19-0.254-0.579-0.254h-0.285v0.363	v0.363l0.326-0.012C28.394,23.87,28.434,23.862,28.52,23.798z"/><path fill="#f48fb1" d="M30.083,24.058v-1.557h0.404h0.404v1.557v1.557h-0.404h-0.401L30.083,24.058z"/><path fill="#f48fb1" d="M31.668,24.058v-1.557h0.389h0.389v0.801c0,0.438,0.012,0.816,0.023,0.836	c0.017,0.026,0.052-0.003,0.115-0.092c0.052-0.069,0.092-0.135,0.092-0.144c0-0.009,0.075-0.13,0.17-0.268	c0.141-0.216,0.455-0.692,0.677-1.038l0.061-0.095h0.398h0.395v1.557v1.557h-0.389H33.6v-0.836c0-0.458-0.009-0.836-0.02-0.836	c-0.029,0-0.182,0.216-0.182,0.257c0,0.017-0.012,0.032-0.023,0.032c-0.012,0-0.046,0.043-0.078,0.095	c-0.029,0.049-0.19,0.3-0.357,0.554c-0.167,0.254-0.317,0.481-0.334,0.507c-0.014,0.029-0.055,0.089-0.086,0.138l-0.055,0.089	h-0.398h-0.395L31.668,24.058z"/><path fill="#f48fb1" d="M35.186,24.058v-1.557h0.418h0.418v0.528l0.003,0.525l0.107-0.118	c0.058-0.063,0.138-0.161,0.179-0.213c0.075-0.101,0.47-0.582,0.551-0.672c0.04-0.046,0.098-0.049,0.539-0.043l0.493,0.009	l-0.334,0.389c-0.182,0.213-0.372,0.435-0.424,0.49c-0.104,0.115-0.389,0.453-0.447,0.525c-0.032,0.043-0.026,0.063,0.029,0.144	c0.037,0.052,0.075,0.101,0.084,0.11c0.012,0.009,0.089,0.112,0.173,0.231s0.161,0.222,0.17,0.231	c0.009,0.009,0.063,0.075,0.118,0.153c0.055,0.075,0.193,0.257,0.303,0.404c0.112,0.144,0.225,0.3,0.254,0.346l0.049,0.078h-0.476	c-0.536,0-0.473,0.023-0.698-0.251c-0.049-0.061-0.112-0.138-0.144-0.176c-0.029-0.035-0.084-0.104-0.124-0.153	s-0.086-0.107-0.101-0.124c-0.017-0.017-0.081-0.101-0.144-0.182c-0.061-0.084-0.124-0.153-0.135-0.153s-0.023,0.234-0.023,0.519	v0.519h-0.418h-0.418V24.058z"/><path fill="#f48fb1" d="M40,28H8v-8h32V28z M9,27h30v-6H9V27z"/></svg>