<svg xmlns="http://www.w3.org/2000/svg"  viewBox="0 0 48 48" width="1600px" height="1600px"><path fill="#8d6e63" d="M36,21c-1.053,0-2.06,0.191-3,0.525c0-2.164,0-6.103,0-7.525c0-3-6-4-6-4v14l-0.015,0.002	c0.573,0.877,1.144,1.922,1.515,3.034C24.98,29.733,23,32,19,32s-5.98-2.267-9.5-4.964c1-3,3.464-5.526,3.464-5.526	s-0.841-1.681-0.174-3.887c0.093-0.308,0.443-0.472,0.724-0.314C15.239,18.279,16.42,19,16.42,19S18,18.762,19,18.762	c0.955,0,2.422,0.215,2.555,0.235c0.148-0.169,0.297-0.331,0.445-0.48c1.894-1.894,3.266-4.594,1.83-9.492	c-0.11-0.374-0.597-0.471-0.853-0.178c-0.699,0.798-1.536,1.53-4.677,1.53C13.222,10.376,4,15,4,25s9.223,14,14,14	c2.238,0,5.841-0.288,9-2.297V39h6v-9c0-1.654,1.346-3,3-3s3,1.346,3,3v9h6v-9C45,25.037,40.963,21,36,21z"/></svg>