<svg xmlns="http://www.w3.org/2000/svg"  viewBox="0 0 48 48" width="1600px" height="1600px" baseProfile="basic"><circle cx="24" cy="24" r="20" fill="#263238"/><path fill="#fafafa" d="M24,41c-9.374,0-17-7.626-17-17S14.626,7,24,7s17,7.626,17,17S33.374,41,24,41z M24,9 C15.729,9,9,15.729,9,24c0,8.271,6.729,15,15,15s15-6.729,15-15C39,15.729,32.271,9,24,9z"/><path fill="#fafafa" d="M24,36c-6.617,0-12-5.383-12-12c0-6.617,5.383-12,12-12s12,5.383,12,12C36,30.617,30.617,36,24,36z M24,14c-5.514,0-10,4.486-10,10c0,5.514,4.486,10,10,10s10-4.486,10-10C34,18.486,29.514,14,24,14z"/><path fill="#fafafa" d="M24,17c-3.866,0-7,3.134-7,7c0,1.91,0.767,3.64,2.008,4.903L9.966,38.24 c1.367,1.347,2.925,2.498,4.632,3.409l6.171-11.443C21.736,30.711,22.833,31,24,31c3.866,0,7-3.134,7-7 c0-1.838-0.714-3.505-1.872-4.754l9.052-9.347c-1.364-1.371-2.923-2.547-4.635-3.478l-6.172,11.446C26.371,17.315,25.223,17,24,17z"/><circle cx="24" cy="24" r="1" fill="#263238"/></svg>