<svg xmlns="http://www.w3.org/2000/svg"  viewBox="0 0 48 48" width="1600px" height="1600px"><path fill="#FF3D00" d="M1,13v22c0,2.2,1.8,4,4,4l38,0c2.2,0,4-1.8,4-4V13c0-2.2-1.8-4-4-4H5C2.8,9,1,10.8,1,13z"/><path fill="#FFF" d="M41.8,27.2c-0.3-0.7-1.1-1.2-1.6-1.6c-0.2-0.2-1.9-1.7-0.5-2.2c0,0,0.7-0.1,1.1-0.1c0.2,0,1,0,1,0l0.2-0.8c0,0-2.1-0.6-5-0.6c-1.2,0-6.1,0.7-6.1,2.8c0,1.6,3.2,3.1,3.3,3.2c0.2,0.2,0.5,0.5,0.5,0.8c0,0.3-0.4,0.9-1.4,0.9c-0.2,0-0.5,0-0.8-0.1C31.8,29.4,31,29,31,29s-0.7,0.3-1,0.4c0,0-0.2,0-0.4,0c-0.3,0-0.4,0-0.6-0.2V24h2v-2h-2v-5l-7,2.8l0,2.2h-2v-6h-6v6.4c-0.7-0.2-1.7-0.3-2.5-0.3C8.3,22,6,24.1,6,26.7c0,2.9,2.3,4.3,5.5,4.3c0.8,0,1.6-0.1,2.3-0.3V31H20v-7h2v5.2c0,0,0.5,1.8,4.6,1.8c0,0,1.7-0.1,3.6-0.5c0.1,0,0.4-0.1,0.9-0.1c0.1,0,0.1,0,0.2,0c0.6,0,1.4,0.3,1.5,0.3c0.6,0.1,1.2,0.2,2.8,0.3c0.2,0,0.3,0,0.5,0c1.2,0,2.3-0.2,2.6-0.2C40.3,30.5,42.6,29,41.8,27.2z M14,29.2c-1.1-0.2-2-1.3-2-2.5c0-1.2,0.9-2.3,2-2.5V29.2z"/></svg>