<svg xmlns="http://www.w3.org/2000/svg"  viewBox="0 0 48 48" width="1600px" height="1600px"><path fill="#263238" d="M36.941,8.766C38.869,11.891,40,15.559,40,19.5C40,30.822,30.822,40,19.5,40	c-3.941,0-7.609-1.131-10.734-3.059C12.435,41.255,17.893,44,24,44c11.046,0,20-8.954,20-20C44,17.893,41.255,12.435,36.941,8.766z"/><path fill="#263238" d="M15,16.081V11h-4.377C8.507,13.209,7.2,16.199,7.2,19.5c0,4.767,2.717,8.891,6.682,10.933	C12.696,28.573,12,26.37,12,24C12,20.962,13.138,18.195,15,16.081z"/><path fill="#263238" d="M25,11v4.5c0,2.485-2.015,4.5-4.5,4.5c-0.171,0-0.334-0.032-0.5-0.05v0.55c0,2.485,2.015,4.5,4.5,4.5	s4.5-2.015,4.5-4.5V16h2l-1.667-5H25z"/></svg>