<svg xmlns="http://www.w3.org/2000/svg"  viewBox="0 0 48 48" width="1600px" height="1600px" baseProfile="basic"><path fill="#ff0" d="M24,4C18.6,4,6,5.783,6,16.478C6,28.065,17.7,45,24,45s18-16.935,18-28.522C42,5.783,29.4,4,24,4z"/><path fill="#64dd17" d="M24.097,45c2.956,0,7.1-3.729,10.667-8.884l-0.001-0.181c-11.857,2.688-7.551-14.116-0.131-20.365 c0.482-0.406,0.847-0.964,0.877-1.596c0.076-1.598-1.421-2.671-2.838-2.257c-17.14,5.007-22.553,18.245-22.553,18.245l0.012,0.627 C14.111,38.381,20.159,45,24.097,45z"/></svg>