<svg xmlns="http://www.w3.org/2000/svg"  viewBox="0 0 48 48" width="1600px" height="1600px"><path fill="#ff3d00" d="M5,8h38v32H5V8z"/><path fill="#fff" d="M35.25,29.698c0,0.734-0.592,1.329-1.323,1.329c-0.731,0-1.323-0.595-1.323-1.329V16h-2.567v16h7.78 v-5H35.25V29.698z"/><path fill="#fff" d="M15.968,29.606c0,0.742-0.585,1.366-1.319,1.366c-0.738-0.009-1.331-0.612-1.327-1.35V26.85h-2.567 v2.298c0,1.153,1.011,3.009,3.886,3.009s3.886-1.421,3.886-3.009V16h-2.559V29.606z"/><path fill="#fff" d="M25.605,16h-5.134v16h5.134c1.919,0,2.567-1.278,2.567-2.095v-4.786c0-0.683-0.679-1.571-1.69-1.571 c1.011,0,1.69-1.413,1.69-2.206v-2.73C28.172,16.841,26.592,16,25.605,16z M24.594,30.698h-1.556v-6.452h1.556 c1.011,0,1.011,0.738,1.011,3.246S25.605,30.698,24.594,30.698z M24.436,22.897l-1.398-0.008v-5.373h1.398 c0.94,0,1.169,0.198,1.169,2.706C25.605,22.73,25.376,22.897,24.436,22.897z"/><path fill="#fff" d="M12.043,25.012c0.835,0.015,1.525-0.65,1.54-1.484c0.015-0.835-0.65-1.524-1.485-1.54 c-0.835-0.015-1.525,0.649-1.54,1.484v0.024C10.549,24.324,11.214,25.003,12.043,25.012z"/><polygon fill="#fff" points="14.412,16 9.673,16 12.043,21.504"/></svg>