<svg xmlns="http://www.w3.org/2000/svg"  viewBox="0 0 48 48" width="1600px" height="1600px"><path fill="#29b6f6" d="M7.171 37.338C7.581 39.644 14.616 40.368 11 43c-.681.496-2.044 1-3 1-2 0-2.669-1.763-2.669-2.697C5.331 40.048 5.942 38.192 7.171 37.338zM34.838 35.578c.718.479 3.112 1.407 3.112 4.407C37.949 40.984 37 42 36 42c-3.969 0-6.635-1.924-10.081-4.085l6.012-1.372 1.381-.276c.14-.025.278-.053.414-.084L34.838 35.578zM26.975 9.633c-.949-2.74-3.546-4.711-6.609-4.711-2.321 0-4.373 1.135-5.646 2.875-1.532-.247-3.825-.323-5.402.959 0 0 3.625.208 3.597.854-2.073.173-4.924.658-7.774 3.335 0 0 3.316-.905 5.709-.563C8.858 13.453 4 16 4 23c0 0 1.431-2.55 3.54-4.54-.4 1.227-.663 2.551-.663 3.941 0 1.998.65 3.864 1.428 5.427.433.869.906 1.645 1.329 2.298l1.59 2.454.806-1.118c2.158 1.098 4.907 1.047 5.682.199.647-.708-2.758-1.843-2.398-2.823.134-.366.487-.641 1.023-.771l14.744-3.557c.537-.13 1.077.201 1.207.738l.299 1.238c.378-.608.601-1.531.601-1.531s.452-2.209.452-3.374C33.64 16.597 30.857 12.081 26.975 9.633z"/><path fill="#1a237e" d="M26.976,17.968c0.039-0.055,0.058-0.088,0.071-0.114c-1.44,1.39-3.828,2.301-6.535,2.301c-2.808,0-5.271-0.98-6.691-2.458c-0.027,0.219-0.058,0.438-0.058,0.664c0,3.672,3.04,6.648,6.789,6.648c2.695,0,5.023-1.537,6.119-3.765c-0.502,0.409-1.216,1.126-2.798,1.484c-1.141,0.258-1.631-1.047-1.776-1.526c0.856-0.142,1.92-0.602,2.956-1.349C25.871,19.264,26.533,18.6,26.976,17.968z"/><path fill="#fff" d="M20.365 6.920999999999999A5 5 0 1 0 20.365 16.921A5 5 0 1 0 20.365 6.920999999999999Z"/><path fill="#000001" d="M21.981,10.353c-0.173,0-0.259,0-0.432,0.086c0.086,0.086,0.172,0.259,0.172,0.346c0,0.345-0.258,0.604-0.604,0.604c-0.173,0-0.259-0.086-0.346-0.172c0,0.086-0.086,0.259-0.086,0.432c0,0.691,0.605,1.295,1.295,1.295s1.295-0.605,1.295-1.295S22.672,10.353,21.981,10.353z"/><path fill="#616161" d="M43.893,25.08c-0.235-1.078-1.314-1.761-2.407-1.523l0.213,0.977c0.555-0.121,1.1,0.219,1.217,0.758c0.117,0.54-0.237,1.075-0.792,1.196l-6.053,1.318c-1.079,0.235-1.764,1.3-1.529,2.38c0,0,0.094,0.246,0.388,0.626c0.418,0.542,0.681,0.842,0.783,0.975c0.437,0.567,0.445,1.118,0.445,1.118c0.235,1.079-0.474,2.15-1.583,2.392L9.47,40.763c-0.555,0.121-1.099-0.219-1.217-0.758l-1.489-6.84C6.646,32.625,7,32.09,7.555,31.969l0.194-0.042c-0.095-0.319-0.162-0.647-0.199-0.98l-0.207,0.045c-1.093,0.238-1.79,1.308-1.556,2.386l1.489,6.84c0.235,1.078,1.314,1.761,2.407,1.523l25.106-5.467c1.619-0.352,2.664-1.912,2.364-3.5c-0.024-0.279-0.845-0.627-1.356-1.291c-0.039-0.05,0,0-0.079-0.096c-0.134-0.163-0.028-0.21-0.298-0.559c-0.112-0.145,0.122-0.884,0.084-0.951c-0.059-0.504,0.275-0.982,0.781-1.092l6.053-1.318C43.43,27.227,44.128,26.157,43.893,25.08z"/><path fill="#ffea00" d="M41.486,23.557l-7.03,1.531L7.342,30.992c-0.555,0.121-0.909,0.656-0.791,1.196l1.702,7.817c0.118,0.54,0.662,0.879,1.217,0.758l26.083-5.68c1.109-0.242,1.818-1.312,1.583-2.392c0,0-0.008-0.551-0.445-1.118c-0.102-0.133-0.364-0.433-0.783-0.975c-0.293-0.38-0.388-0.626-0.388-0.626c-0.235-1.079,0.449-2.145,1.529-2.38l5.076-1.105c0.555-0.121,0.909-0.656,0.791-1.196l-0.213-0.977C42.586,23.776,42.041,23.436,41.486,23.557z"/><path fill="#757575" d="M33.232,32.518l-22.473,4.894c-0.54,0.118-1.072-0.225-1.19-0.764l-1.489-6.84c-0.118-0.54,0.225-1.072,0.764-1.19l22.473-4.894c0.54-0.118,1.072,0.225,1.19,0.764l1.489,6.84C34.113,31.868,33.771,32.401,33.232,32.518z"/><path fill="#fff" d="M13.69 36.774l-2.931.638-1.702-7.817c-.118-.54.225-1.072.764-1.19l.977-.213c.54-.118 1.072.225 1.19.764L13.69 36.774zM17.598 35.923l-2.931.638-1.702-7.817c-.118-.54.225-1.072.764-1.19l.977-.213c.54-.118 1.072.225 1.19.764L17.598 35.923zM21.506 35.072l-2.931.638-1.702-7.817c-.118-.54.225-1.072.764-1.19l.977-.213c.54-.118 1.072.225 1.19.764L21.506 35.072zM25.415 34.221l-2.931.638-1.702-7.817c-.118-.54.225-1.072.764-1.19l.977-.213c.54-.118 1.072.225 1.19.764L25.415 34.221zM29.323 33.37l-2.931.638-1.702-7.817c-.118-.54.225-1.072.764-1.19l.977-.213c.54-.118 1.072.225 1.19.764L29.323 33.37zM33.232 32.518L30.3 33.157l-1.702-7.817c-.118-.54.225-1.072.764-1.19l.977-.213c.54-.118 1.072.225 1.19.764L33.232 32.518z"/><path d="M15.377 36.406l-2.371.516-1.072-4.925c-.118-.54.225-1.072.764-1.19l.417-.091c.54-.118 1.072.225 1.19.764L15.377 36.406zM19.268 35.559l-2.331.508-1.065-4.877c-.118-.54.225-1.072.764-1.19l.38-.083c.54-.118 1.072.225 1.19.764L19.268 35.559zM23.194 34.704l-2.371.516-1.072-4.925c-.118-.54.225-1.072.764-1.19l.417-.091c.54-.118 1.072.225 1.19.764L23.194 34.704zM31.011 33.002l-2.371.516-1.072-4.925c-.118-.54.225-1.072.764-1.19l.417-.091c.54-.118 1.072.225 1.19.764L31.011 33.002z"/><path fill="#29b6f6" d="M41.342 27.288c-.002-.087-.008-.167-.017-.24-.016-.144-.041-.267-.077-.364 0-.001-.001-.003-.001-.004l0 0c-.175-.478-.539-.461-.721-.461-.269 0-.416.36-.695.77l-.004.001c-.353.518-.913 1.115-2.223 1.167-.996.04-1.235.025-1.58.016-.439.464-.649 1.13-.503 1.801 0 0 .094.246.388.626.174.225.314.399.433.546 2.411-.095 4.826-2.023 4.965-3.177.024-.199.033-.367.036-.522C41.344 27.39 41.343 27.339 41.342 27.288zM16.503 31.328c.659-.51.144-.907-.737-1.922-1.757-2.024 1.316-2.582 1.316-2.582l-5.393-1.179-1.965 1.213c.088.172-.659 1.592-.613 1.701 0 0 .082-.22 1.292-.281.566-.029.356 1.646 2.332 2.893C14.036 31.993 16.131 31.616 16.503 31.328z"/></svg>