<svg xmlns="http://www.w3.org/2000/svg"  viewBox="0 0 48 48" width="1600px" height="1600px"><path fill="#00c853" d="M39.422,42H8.578C7.154,42,6,40.846,6,39.422V8.578C6,7.154,7.154,6,8.578,6h30.844	C40.846,6,42,7.154,42,8.578v30.844C42,40.846,40.846,42,39.422,42z"/><polygon fill="#388e3c" points="24,12 10,20 10,30.64 10,34 10,35.919 14.5,38.558 19,35.919 19,30.64 15,28.293 15,22.721 24,17.442 33,22.721 33,28.293 29,30.64 29,35.919 33.5,38.558 38,35.919 38,34 38,30.64 38,20"/><polygon fill="#fff" points="24,10 10,18 10,28.64 10,32 10,33.919 14.5,36.558 19,33.919 19,28.64 15,26.293 15,20.721 24,15.442 33,20.721 33,26.293 29,28.64 29,33.919 33.5,36.558 38,33.919 38,32 38,28.64 38,18"/></svg>