<svg xmlns="http://www.w3.org/2000/svg"  viewBox="0 0 48 48" width="1600px" height="1600px"><path fill="#37474f" d="M34.667,23.102c1.045-0.287,2.106,0.408,2.259,1.482l0.382,2.675l0.281,1.726	c0.071,0.434,0.664,0.509,0.84,0.105c0,0,1.685-4.425,2.593-6.002V12H27.203l-5.049,5.009L17.112,12H3v25h14.283v-7.32l4.874,3.787	l4.604-3.832V37h2.355l0.191-10.832c0.01-0.572-0.632-0.915-1.102-0.589l-4.077,2.826c-0.709,0.491-1.689,0.224-2.05-0.559	c-0.347-0.751,0.036-1.636,0.821-1.898l1.437-0.479l4.101-2.46l0.062-0.987c0.049-0.786,0.701-1.399,1.489-1.399h0.48	c0.46,0.058,0.765,0.223,0.877,0.522l3.358-2.462c0.614-0.451,1.478-0.313,1.923,0.305c0.482,0.67,0.266,1.61-0.459,2.004	l-3.853,2.091l0.298,8.798L32.543,37h8.479v-5.981l-1.101,3.277c-0.521,1.551-2.704,1.582-3.268,0.046l-2.55-6.934l-0.667-2	C33.109,24.428,33.672,23.376,34.667,23.102z"/><polygon fill="#37474f" points="23.358,14.407 19.383,12.848 22.154,15.601"/><polygon fill="#37474f" points="18.283,31.723 18.283,37 20.109,37 20.109,33.142"/><polygon fill="#37474f" points="25.761,31.768 23.549,33.608 25.761,33.608"/><path fill="#37474f" d="M45,18.849V13.58l-2.978-1.509v9.735C42.962,20.774,44.287,19.514,45,18.849z"/><polygon fill="#37474f" points="42.825,26.588 42.022,28.448 42.022,37 45,37 45,23.799"/></svg>