<svg xmlns="http://www.w3.org/2000/svg"  viewBox="0 0 48 48" width="1600px" height="1600px"><circle cx="24" cy="24" r="20" fill="#0277bd"/><path fill="#fff" d="M19,33c-0.553,0-1-0.447-1-1v-8c0-1.654-1.346-3-3-3s-3,1.346-3,3v8c0,0.553-0.447,1-1,1	s-1-0.447-1-1v-8c0-2.757,2.243-5,5-5s5,2.243,5,5v8C20,32.553,19.553,33,19,33z"/><path fill="#fff" d="M19,33c-0.553,0-1-0.447-1-1v-8c0-2.757,2.243-5,5-5s5,2.243,5,5v2c0,0.553-0.447,1-1,1s-1-0.447-1-1	v-2c0-1.654-1.346-3-3-3s-3,1.346-3,3v8C20,32.553,19.553,33,19,33z"/><path fill="#fff" d="M31.5,33c-3.032,0-5.5-2.468-5.5-5.5V26c0-0.553,0.447-1,1-1s1,0.447,1,1v1.5	c0,1.93,1.57,3.5,3.5,3.5s3.5-1.57,3.5-3.5V21c0-0.553,0.447-1,1-1s1,0.447,1,1v6.5C37,30.532,34.532,33,31.5,33z"/><path fill="#fff" d="M36,17.5c-0.553,0-1-0.447-1-1c0-1.93-1.57-3.5-3.5-3.5S28,14.57,28,16.5c0,0.553-0.447,1-1,1	s-1-0.447-1-1c0-3.032,2.468-5.5,5.5-5.5s5.5,2.468,5.5,5.5C37,17.053,36.553,17.5,36,17.5z"/><circle cx="31.5" cy="17" r="1" fill="#eceff1"/></svg>