<svg xmlns="http://www.w3.org/2000/svg"  viewBox="0 0 48 48" width="1600px" height="1600px"><path fill="#ff1744" d="M24 4A20 20 0 1 0 24 44A20 20 0 1 0 24 4Z"/><path fill="#fff" d="M24,32c-1.654,0-3-1.346-3-3V19c0-0.552-0.449-1-1-1s-1,0.448-1,1v6c0,1.654-1.346,3-3,3h-5v-2h5 c0.551,0,1-0.448,1-1v-6c0-1.654,1.346-3,3-3s3,1.346,3,3v10c0,0.552,0.449,1,1,1s1-0.448,1-1v-6c0-1.654,1.346-3,3-3s3,1.346,3,3 v2c0,0.552,0.449,1,1,1h5v2h-5c-1.654,0-3-1.346-3-3v-2c0-0.552-0.449-1-1-1s-1,0.448-1,1v6C27,30.654,25.654,32,24,32z"/></svg>