<svg xmlns="http://www.w3.org/2000/svg"  viewBox="0 0 48 48" width="1600px" height="1600px"><path fill="#37474f" d="M24 4A20 20 0 1 0 24 44A20 20 0 1 0 24 4Z"/><path fill="#fff" d="M35 32L34 32 34 24 23.5 24 23.5 23 35 23zM34 10H35V22H34z"/><path fill="#fff" d="M35 10c0-.6-.4-1-1-1s-1 .4-1 1c0 .5.1 1 1 2h1C35 12 35 10.4 35 10zM13 38c0 .6.4 1 1 1s1-.4 1-1c0-.5-.1-1-1-2h-1C13 36 13 37.6 13 38z"/><path fill="#fff" d="M13 16L13 37 14 37 14 19 24 32 24 30.3zM24 28.7L24 16 23 16 23 27.4z"/><path fill="#fff" d="M24 9c3.2 0 6.1 1 8.5 2.7-.3-.5-.5-1-.5-1.5C29.7 8.8 26.9 8 24 8 15.2 8 8 15.2 8 24c0 4.6 1.9 8.7 5 11.6v-1.4c-2.5-2.7-4-6.2-4-10.1C9 15.7 15.7 9 24 9zM35 12.4v1.4c2.5 2.7 4 6.2 4 10.1 0 8.3-6.7 15-15 15-3.2 0-6.1-1-8.5-2.7.3.5.5 1 .5 1.5 2.4 1.4 5.1 2.2 8 2.2 8.8 0 16-7.2 16-16C40 19.4 38.1 15.3 35 12.4z"/></svg>