<svg xmlns="http://www.w3.org/2000/svg"  viewBox="0 0 48 48" width="1600px" height="1600px" baseProfile="basic"><path fill="#1c1c1c" d="M25.917,18.32h1.613v8.631l-5.448-5.071v4.809H20.47V18.08l5.448,5.078V18.32z M17.92,22.519c0,2.492-2.027,4.519-4.518,4.519c-2.492,0-4.518-2.027-4.518-4.519c0-2.492,2.027-4.519,4.518-4.519	C15.893,18,17.92,20.027,17.92,22.519L17.92,22.519z M16.264,22.519c0-1.598-1.286-2.899-2.87-2.899	c-1.583,0-2.862,1.301-2.862,2.899c0,1.598,1.286,2.899,2.862,2.899C14.978,25.418,16.264,24.117,16.264,22.519L16.264,22.519z M6.131,22.592c-0.429-0.327-0.995-0.588-1.831-0.857c-1.635-0.523-1.635-0.93-1.635-1.133c0-0.465,0.516-0.945,1.387-0.945	c0.734,0,1.301,0.363,1.511,0.523l0.116,0.087l1.301-0.88l-0.145-0.167C6.792,19.169,5.789,18,4.046,18	c-0.836,0-1.605,0.269-2.165,0.755c-0.559,0.487-0.879,1.156-0.879,1.852c0,0.742,0.327,1.366,0.966,1.853	c0.429,0.327,0.995,0.588,1.831,0.857c1.635,0.516,1.635,0.93,1.635,1.134c0,0.465-0.516,0.945-1.387,0.945	c-0.734,0-1.301-0.363-1.511-0.523l-0.116-0.087l-1.301,0.88l0.145,0.167c0.044,0.051,1.046,1.213,2.782,1.213	c0.835,0,1.605-0.268,2.165-0.755c0.559-0.487,0.879-1.163,0.879-1.852C7.089,23.703,6.77,23.086,6.131,22.592z M30.094,22.555	c0-2.492,2.027-4.519,4.518-4.519c2.491,0,4.518,2.027,4.518,4.519c0,2.492-2.027,4.519-4.518,4.519	C32.121,27.074,30.094,25.047,30.094,22.555z M31.743,22.555c0,1.598,1.286,2.899,2.862,2.899c1.583,0,2.862-1.301,2.862-2.899	c0-1.598-1.286-2.899-2.862-2.899S31.743,20.956,31.743,22.555L31.743,22.555z M41.877,22.475c0.428,0.328,0.995,0.589,1.831,0.858	c1.634,0.523,1.634,0.93,1.634,1.133c0,0.465-0.516,0.945-1.387,0.945c-0.734,0-1.3-0.363-1.511-0.523L42.327,24.8l-1.3,0.879	l0.145,0.167c0.044,0.051,1.046,1.213,2.783,1.213c0.835,0,1.605-0.268,2.164-0.755c0.559-0.486,0.879-1.155,0.879-1.852	c0-0.741-0.327-1.366-0.966-1.852c-0.429-0.327-0.995-0.589-1.831-0.857c-1.635-0.523-1.635-0.93-1.635-1.134	c0-0.465,0.516-0.944,1.387-0.944c0.734,0,1.301,0.363,1.511,0.523l0.116,0.087l1.301-0.879l-0.145-0.167	c-0.044-0.051-1.046-1.213-2.782-1.213c-0.835,0-1.605,0.268-2.165,0.755c-0.559,0.487-0.879,1.163-0.879,1.853	C40.918,21.364,41.237,21.988,41.877,22.475L41.877,22.475z"/></svg>