<svg xmlns="http://www.w3.org/2000/svg"  viewBox="0 0 48 48" width="1600px" height="1600px" baseProfile="basic"><circle cx="24" cy="24" r="20" fill="#2d363f"/><path fill="#09ace3" d="M24,6c9.925,0,18,8.075,18,18s-8.075,18-18,18S6,33.925,6,24S14.075,6,24,6 M24,4 C12.954,4,4,12.954,4,24s8.954,20,20,20s20-8.954,20-20S35.046,4,24,4L24,4z"/><rect width="3" height="3" x="9" y="25" fill="#f1f1f1"/><rect width="3" height="5" x="13.5" y="23" fill="#f1f1f1"/><rect width="3" height="9" x="18" y="19" fill="#f1f1f1"/><rect width="3" height="14" x="22.5" y="14" fill="#f1f1f1"/><rect width="3" height="3" x="36" y="25" fill="#f1f1f1" transform="rotate(-180 37.5 26.5)"/><rect width="3" height="5" x="31.5" y="23" fill="#f1f1f1" transform="rotate(-180 33 25.5)"/><rect width="3" height="9" x="27" y="19" fill="#f1f1f1" transform="rotate(-180 28.5 23.5)"/></svg>