<svg xmlns="http://www.w3.org/2000/svg"  viewBox="0 0 48 48" width="1600px" height="1600px"><path fill="#212121" d="M24,5C13.523,5,5,13.523,5,24s8.523,19,19,19s19-8.523,19-19S34.477,5,24,5z"/><path fill="#ffe20d" d="M24,44C12.972,44,4,35.028,4,24S12.972,4,24,4s20,8.972,20,20S35.028,44,24,44z M24,6	C14.075,6,6,14.075,6,24s8.075,18,18,18s18-8.075,18-18S33.925,6,24,6z"/><rect width="4" height="2" x="22" y="23" fill="#ffe20d"/><rect width="2" height="18" x="17" y="15" fill="#ffe20d"/><rect width="2" height="18" x="12" y="15" fill="#ffe20d"/><rect width="13.928" height="2" x="28.535" y="21.5" fill="#ffe20d" transform="rotate(-68.973 35.5 22.5)"/><rect width="13.928" height="2" x="23.535" y="21.5" fill="#ffe20d" transform="rotate(-68.973 30.5 22.5)"/></svg>