<svg xmlns="http://www.w3.org/2000/svg"  viewBox="0 0 48 48" width="1600px" height="1600px" clip-rule="evenodd"><path fill="#fff" fill-rule="evenodd" d="M23.995 2.045L2.045 23.896 24 45.747 45.955 23.896z" clip-rule="evenodd"/><path d="M24,47L1,24L24,1l23,23L24,47z M3.902,24L24,44.098L44.098,24L24,3.902L3.902,24z"/><path d="M39.001 5.284L13.001 20.267 12 20.844 12 22 12 27 12 29 13.421 29 6.612 35.56 6 36.15 6 37 6 42 6 45.623 9.066 43.692 36.066 26.692 37 26.104 37 25 37 20 37 18.491 35.549 18.077 35.312 18.009 41.407 11.977 42 11.39 42 10.556 42 7.017 42 3.556z"/><path fill="#ffcc80" fill-rule="evenodd" d="M40 7.017L14 22 14 27 18.379 27 8 37 8 42 35 25 35 20 31.475 18.993 40 10.556z" clip-rule="evenodd"/><g><path fill="#fb8c00" fill-rule="evenodd" d="M31.475 18.993L28 18 40 7.017 40 10.556zM14 27L14 22 23 22 18.379 27zM8 42L8 37 35 20 35 25z" clip-rule="evenodd"/></g></svg>