<svg xmlns="http://www.w3.org/2000/svg"  viewBox="0 0 48 48" width="1600px" height="1600px"><polygon fill="#66798f" points="23.945,33.983 12.708,41.876 14.854,37.65 4.286,39.194 7.683,28.842 1.676,29.482 5.92,20.623 1.489,14.949 7.753,11.255 5.701,6.24 10.985,9.898 11.046,2.071 16.956,6.813 22.598,1.712 23.681,4.473 32.63,1.598 30.907,5.975 40.102,6.828 37.064,10.775 43.317,13.244 40.207,16.822 43.772,19.496 41.098,20.834 42.881,23 38.301,23 43.236,31.884 38.696,31.592 40.102,43.227"/><path fill="#e65100" d="M30.927,3.195L30.464,4.37l-0.975,2.478l2.651,0.246l6.062,0.563l-1.121,1.458l-1.619,2.105 l2.47,0.975l3.703,1.462l-1.477,1.699l-1.411,1.622l1.72,1.29l1.411,1.058l-0.106,0.053L39.527,20.5l1.235,1.5H40h-3.399 l1.651,2.971l3.221,5.797l-1.51-0.097l-2.403-0.155l0.289,2.391l1.022,8.463l-13.877-7.939L23.89,32.8l-1.04,0.73l-7.434,5.221 l1.203-2.369l-3.82,0.558L5.74,37.971l2.41-7.348l0.964-2.94l-3.077,0.328l-2.686,0.286l3.201-6.684l0.535-1.118l-0.763-0.977 l-3.348-4.287l4.537-2.676l1.49-0.879l-0.655-1.601L7.903,8.981l0.959,0.664l3.109,2.152L12,8.016l0.03-3.872l3.635,2.917 l1.329,1.066l1.264-1.143l3.937-3.559l0.212,0.539l0.686,1.748l1.788-0.574L30.927,3.195 M34.333,0L24.268,3.234L23,0l-6.083,5.5 L10.062,0L10,8L3.5,3.5l3,7.333L0,14.667l4.75,6.083L0,30.667L6.25,30L2.833,40.417l10.255-1.497L10,45l14-9.833l17.333,9.917 l-1.5-12.417L45,33l-5-9h5l-2.333-2.833l3-1.5l-4-3L45,12.833l-6.333-2.5L42,6l-9.674-0.898L34.333,0L34.333,0z"/><polygon fill="#212121" points="24,23 6.272,23 8.979,26.403 8.112,27.837 13.462,31.122 24,33.942"/><polygon fill="#212121" points="24,23 41.728,23 39.021,26.403 39.888,27.837 34.538,31.122 24,33.942"/><path fill="#212121" d="M16,46h16l4-12l-7.062-1.765c-3.242-0.811-6.634-0.811-9.876,0L12,34L16,46z"/><path fill="#ffb74d" d="M16.933,33h-1.582c-0.654,0-1.254-0.388-1.558-1.007l-1.59-3.232c-0.403-0.819-0.19-1.83,0.502-2.385	l0,0C13.009,26.132,13.38,26,13.761,26h2.893C16.654,26,17.002,33,16.933,33z"/><path fill="#ffb74d" d="M31.067,33h1.582c0.654,0,1.254-0.388,1.558-1.007l1.59-3.232c0.403-0.819,0.19-1.83-0.502-2.385l0,0	C34.991,26.132,34.62,26,34.239,26h-2.893C31.346,26,30.998,33,31.067,33z"/><path fill="#546e7a" d="M45.402,46c-5.097-5.739-15.348-7-15.348-7H24h-6.054c0,0-10.273,1.239-15.364,7H45.402z"/><path fill="#ffe0b2" d="M24.234,39.745h-0.661c-0.375,0-0.742-0.105-1.06-0.304l-3.117-1.948	c-2.757-1.723-4.504-4.679-4.685-7.925L14,16.745c0-3.314,2.686-6,6-6h5v28.234C25,39.402,24.657,39.745,24.234,39.745z"/><path fill="#ffe0b2" d="M24,39.745h0.554c0.291,0,0.577-0.082,0.824-0.236l3.225-2.016c2.757-1.723,4.504-4.679,4.685-7.925	L34,16.745c0-3.314-2.686-6-6-6h-5v28C23,39.297,23.448,39.745,24,39.745z"/><path fill="#212121" d="M14.632,29.315c0.011,0.141,0.316,0.433,0.408,0.553c0.193,0.253,0.393,0.5,0.608,0.735	c0.428,0.47,0.908,0.893,1.446,1.233c0.65,0.41,1.353,0.798,2.033,1.149c-0.007-0.814,0.01-1.229,0.01-1.824	c0,0,2.189-0.171,2.752-0.522c0.531-0.331,1.14-0.618,1.766-0.633L24.136,30V16.078H13.6C13.6,16.078,14.629,29.281,14.632,29.315z"/><path fill="#fafafa" d="M21.307,29.49C20.445,29.888,19.644,30,18.699,30c-1.53,0-2.872-1.096-2.682-2.73l0.21-1.72l1.67,1.3	l0.619,1.477l0.861-0.337L21.307,29.49z"/><path fill="#880e4f" d="M19.377,27.99c-0.17,0.25-0.46,0.42-0.79,0.42c-0.52,0-0.94-0.42-0.94-0.94	c0-0.24,0.09-0.45,0.25-0.62L19.377,27.99z"/><path fill="#880e4f" d="M20.712,36.05c1.697-1.251,3.814-1.879,6.244-2.044c0.82-0.055,1.628,0.253,2.198,0.846v0	c0.411,0.428,0.304,1.13-0.217,1.416l-3.283,1.8L20.712,36.05z"/><path fill="#212121" d="M33.368,29.315c-0.594,0.811-1.216,1.624-2.031,2.227c-0.739,0.547-1.611,1.101-2.468,1.437	c-0.01-0.159,0.018-1.816-0.006-1.818c0,0-2.189-0.171-2.752-0.522c-0.531-0.331-1.14-0.625-1.766-0.639l-0.482-0.007l-3-8.04	l3-5.875H34.4L33.368,29.315z"/><path fill="#fafafa" d="M26.693,29.49c0.028-0.025,0.792,0.307,0.893,0.337c0.342,0.099,0.693,0.167,1.048,0.195	c0.627,0.049,1.296-0.015,1.878-0.267c0.992-0.429,1.597-1.401,1.471-2.485l-0.21-1.72l-1.67,1.3l-0.417,1.321l-1.063-0.181	L26.693,29.49z"/><path fill="#880e4f" d="M28.623,27.99c0.17,0.25,0.46,0.42,0.79,0.42c0.52,0,0.94-0.42,0.94-0.94c0-0.24-0.09-0.45-0.25-0.62	L28.623,27.99z"/><polygon fill="#ffff8d" points="18.02,20.812 23.329,28.413 27.31,20.872 36,28.207 36,23 41.728,23 39.617,20.39 43.658,19.847 38.953,16.71 43.176,13.754 36.299,11.582 39.255,7.299 29.904,6.334 33.162,0.724 23.208,5.791 23,0 16.753,8.385 10.359,8.928 11.505,12.427 6.016,16.589 12.169,20.631 9.816,25.336 14.28,23.527 16.211,24.975"/><polygon fill="#9fa8da" points="39,37.75 37.105,36.276 35,36.75 32,46 36,46 38.491,41.899"/><path fill="#7986cb" d="M43.028,36l-3.026-0.12L39,37.75L36,46c1.905-1.85,3.639-3.308,5-3.369L43.028,36z"/><path fill="#c5cae9" d="M39,37.75l-4-1c1.306-0.89,2.612-1.772,4-1.75l4,1C41.09,36.046,39.935,36.795,39,37.75z"/><circle cx="36.281" cy="39" r="1" fill="#5c6bc0"/><circle cx="34.167" cy="45" r="1" fill="#5c6bc0"/><circle cx="35.224" cy="42" r="1" fill="#5c6bc0"/><polygon fill="#9fa8da" points="9,37.75 10.895,36.276 13,36.75 16,46 12,46 9.41,41.627"/><path fill="#7986cb" d="M4.972,36l3.026-0.12L9,37.75L12,46c-1.905-1.85-3.639-3.308-5-3.369L4.972,36z"/><path fill="#c5cae9" d="M9,37.75l4-1c-1.306-0.89-2.612-1.772-4-1.75l-4,1C6.91,36.046,8.065,36.795,9,37.75z"/><circle cx="11.719" cy="39" r="1" fill="#5c6bc0"/><circle cx="13.833" cy="45" r="1" fill="#5c6bc0"/><circle cx="12.776" cy="42" r="1" fill="#5c6bc0"/><path fill="#e3f2fd" d="M22.692,36.573L28,36.748v-2.277c-4.115,0.458-5.802,1.007-6.71,1.576L22.692,36.573z"/><path fill="#37474f" d="M16,46h16l4-12l-2.941,0.735c-5.948,1.487-12.17,1.487-18.118,0L12,34L16,46z"/><circle cx="19" cy="41" r="1.5" fill="#37474f"/><path fill="#e65100" d="M19,43c-1.103,0-2-0.897-2-2s0.897-2,2-2s2,0.897,2,2S20.103,43,19,43z M19,40c-0.552,0-1,0.448-1,1 s0.448,1,1,1s1-0.448,1-1S19.552,40,19,40z"/><g><circle cx="29" cy="41" r="1.5" fill="#37474f"/><path fill="#e65100" d="M29,43c-1.103,0-2-0.897-2-2s0.897-2,2-2s2,0.897,2,2S30.103,43,29,43z M29,40c-0.552,0-1,0.448-1,1 s0.448,1,1,1s1-0.448,1-1S29.552,40,29,40z"/></g></svg>