<svg xmlns="http://www.w3.org/2000/svg"  viewBox="0 0 48 48" width="1600px" height="1600px"><path fill="#ff6d00" d="M24,2L14,25.1L24,46c5,0,10-3,10-3c2-8,6-12.3,6-20c0-3.9-1.7-12.5-3-15C34.4,3.2,29.5,2,24,2z"/><path fill="#212121" d="M29 34c-.2 0-.3 0-.4-.1l-2-1c-.5-.2-.7-.8-.4-1.3.2-.5.8-.7 1.3-.4l2 1c.5.2.7.8.4 1.3C29.7 33.8 29.4 34 29 34zM29 38c-.2 0-.3 0-.4-.1l-2-1c-.5-.2-.7-.8-.4-1.3.2-.5.8-.7 1.3-.4l2 1c.5.2.7.8.4 1.3C29.7 37.8 29.4 38 29 38zM29 42c-.2 0-.3 0-.4-.1l-2-1c-.5-.2-.7-.8-.4-1.3.2-.5.8-.7 1.3-.4l2 1c.5.2.7.8.4 1.3C29.7 41.8 29.4 42 29 42z"/><path fill="#ffab40" d="M40,22c0-2-1-10-5-10s-8,10-8,10c3-2,7-3,8-3C37.1,19,38,19,40,22z"/><path fill="#212121" d="M27,22c0,1,3,4,6,4s4-3,4-4s0-3-2-3S27,21,27,22z"/><path fill="#e25b00" d="M38,22c0,2,0,4-3,7c0,0-3.7,10.2-4,15.4c1.8-0.7,3-1.4,3-1.4c2-8,6-12.3,6-20c0-4-3.5-4-5-4 C35.4,19,38,19,38,22z"/><path fill="#455a64" d="M11,8c-1.3,2.5-3,11.1-3,15c0,7.7,4,12,6,20c0,0,5,3,10,3V2C18.5,2,13.6,3.2,11,8z"/><path fill="#212121" d="M19 34c-.4 0-.7-.2-.9-.6-.2-.5 0-1.1.4-1.3l2-1c.5-.2 1.1 0 1.3.4.2.5 0 1.1-.4 1.3l-2 1C19.3 34 19.2 34 19 34zM19 38c-.4 0-.7-.2-.9-.6-.2-.5 0-1.1.4-1.3l2-1c.5-.2 1.1 0 1.3.4.2.5 0 1.1-.4 1.3l-2 1C19.3 38 19.2 38 19 38zM19 42c-.4 0-.7-.2-.9-.6-.2-.5 0-1.1.4-1.3l2-1c.5-.2 1.1 0 1.3.4.2.5 0 1.1-.4 1.3l-2 1C19.3 42 19.2 42 19 42z"/><path fill="#78909c" d="M8,22c0-2,1-10,5-10s8,10,8,10c-3-2-7-3-8-3C10.9,19,10,19,8,22z"/><path fill="#212121" d="M21,22c0,1-3,4-6,4s-4-3-4-4s0-3,2-3S21,21,21,22z"/><path fill="#37474f" d="M10,22c0,2,0,4,3,7c0,0,3.7,10.2,4,15.4c-1.8-0.7-3-1.4-3-1.4c-2-8-6-12.3-6-20c0-4,3.5-4,5-4 C12.6,19,10,19,10,22z"/></svg>