<svg xmlns="http://www.w3.org/2000/svg"  viewBox="0 0 48 48" width="1600px" height="1600px"><path fill="#ffe0b2" d="M26,16c-10.747,0-19.899,3.4-25.856,6.375C0.051,23.073,0,23.782,0,24.5C0,35.27,10.745,44,24,44	s24-8.73,24-19.5c0-1.36-0.172-2.687-0.499-3.969C40.446,17.533,33.217,16,26,16z"/><path fill="#fff" d="M24,23.619c-0.015,3.767,2.948,7.239,6.579,7.376c3.588,0.136,5.928-3.066,5.326-6.786	c-0.546-3.37-3.364-6.022-6.367-6.201C26.506,17.829,24.014,20.213,24,23.619z"/><path fill="#fff" d="M24,23.619c0.015,3.767-2.944,7.239-6.571,7.376c-3.583,0.136-5.921-3.066-5.319-6.786	c0.545-3.37,3.359-6.022,6.358-6.201C21.498,17.829,23.986,20.213,24,23.619z"/><circle cx="21" cy="24" r="1" fill="#212121"/><circle cx="28" cy="24" r="1" fill="#212121"/><path fill="#212121" d="M24.754,40c-2.75,0-4.719-1.148-4.802-1.197l1.021-1.721C20.985,37.089,22.575,38,24.754,38	c1.805,0,3.253-0.724,3.268-0.731l0.913,1.78C28.86,39.087,27.061,40,24.754,40z"/><path fill="#0097a7" d="M0.361,21.151c-0.086,0.404-0.157,0.811-0.214,1.223C6.104,19.399,15.254,16,26,16	c7.21,0,14.433,1.531,21.483,4.524c-0.112-0.416-0.24-0.828-0.379-1.236c-0.102-0.042-0.204-0.076-0.305-0.117	c0.201,0.066,0.327,0.109,0.327,0.109C44.317,11.046,35.029,5,24,5C12.151,5,2.31,11.976,0.355,21.149c0,0,0.089-0.042,0.254-0.115	C0.528,21.073,0.441,21.112,0.361,21.151z"/><path fill="#ffea00" d="M47.752,21.715c-0.146-0.829-0.378-1.635-0.648-2.427C40.174,16.454,33.083,15,26,15	c-10.544,0-19.577,3.211-25.639,6.151c-0.167,0.785-0.284,1.585-0.332,2.399C6.41,20.283,15.446,17,26,17	C34.561,17,42.017,19.2,47.752,21.715z"/><polygon fill="#ffea00" points="16,6.11 16.826,4.408 18,4 20,3 23,3 24,2 26.061,2.344 27.5,3.5 29.5,4 30,5.614 29,6.5 27,6 26,7 24.5,7 23,6 20.5,7 20,5.5 18.5,7 16.5,7"/></svg>