<svg xmlns="http://www.w3.org/2000/svg"  viewBox="0 0 48 48" width="1600px" height="1600px"><path fill="#cfd8dc" d="M30.5 11L32.582 14.357 35.599 11.808 36.541 15.644 40.198 14.151 39.909 18.091 43.849 17.802 42.356 21.459 46.192 22.401 43.643 25.418 47 27.5 43.643 29.582 46.192 32.599 42.356 33.541 43.849 37.198 39.909 36.909 40.198 40.849 36.541 39.356 35.599 43.192 32.582 40.643 30.5 44 28.418 40.643 25.401 43.192 24.459 39.356 20.802 40.849 21.091 36.909 17.151 37.198 18.644 33.541 14.808 32.599 17.357 29.582 14 27.5 17.357 25.418 14.808 22.401 18.644 21.459 17.151 17.802 21.091 18.091 20.802 14.151 24.459 15.644 25.401 11.808 28.418 14.357z"/><path fill="#ff3d00" d="M30.5 15A12.5 12.5 0 1 0 30.5 40A12.5 12.5 0 1 0 30.5 15Z"/><path fill="#dfe3e5" d="M35.133,15.897L13.819,43.074l2.361,1.852l21.615-27.561C36.976,16.773,36.085,16.278,35.133,15.897z"/><path fill="#dfe3e5" d="M43,27.5c0-0.509-0.039-1.007-0.098-1.5H5.5v3h37.402C42.961,28.507,43,28.009,43,27.5z"/><path fill="#dfe3e5" d="M36.319,38.559L12.802,4.092l-2.479,1.691l23.102,33.858C34.443,39.397,35.415,39.035,36.319,38.559z"/><path fill="#ff3d00" d="M11.5 2A2.5 2.5 0 1 0 11.5 7 2.5 2.5 0 1 0 11.5 2zM15.5 41A2.5 2.5 0 1 0 15.5 46 2.5 2.5 0 1 0 15.5 41zM5.5 25A2.5 2.5 0 1 0 5.5 30 2.5 2.5 0 1 0 5.5 25z"/></svg>