<svg xmlns="http://www.w3.org/2000/svg"  viewBox="0 0 48 48" width="1600px" height="1600px"><path fill="#AFB42B" d="M10,25c-11.6,0-7.3-10.8-7-12s0.8-2.8-3-5c13,0,16,10,16,10L10,25z M38,25c11.3,0,7.3-10.8,7-12s-0.8-2.8,3-5C35,8,32,18,32,18L38,25z"/><path fill="#9E9D24" d="M10,25c1.3-2.7,2.5-6.8,2-8c-0.8-1.6-6.5-7.3-12-9c13,0,16,10,16,10L10,25z M38,25c-1.3-2.7-2.5-6.8-2-8c0.8-1.6,6.5-7.3,12-9C35,8,32,18,32,18L38,25z"/><path fill="#827717" d="M38,21c-0.3-2.6-2.4-5-6.5-5H24h-7.5c-4.1,0-6.3,2.4-6.5,5s-1,8-1,8c0,6.1,6,7,6,7s3,1,9,1s9-1,9-1s6-0.9,6-7C39,29,38.3,23.6,38,21z"/><path fill="#9E9D24" d="M33,30c0,2.2-5.1,10-9,10s-9-7.8-9-10s5.1-2,9-2S33,27.8,33,30z"/><path fill="#665B0E" d="M22,25c0,0-3.4,3.2-8.1,1.5C10.1,25.1,10,22,10,22v-5C10,17,22,18.1,22,25z M38,22v-5c0,0-12,1-12,8c0,0,3.5,3.2,8.3,1.5C38.2,25.1,38,22,38,22z M24,26c-1.7,0-3,0.9-3,2s1.3,2,3,2s3-0.9,3-2S25.7,26,24,26z"/><path fill="#FFEA00" d="M22,25c0,0-1.8,1.1-4,1c-3.4-0.1-4-4-4-4s1.8,0,4,0S22,25,22,25z M26,25c0,0,1.8,1.1,4,1c3.4-0.1,4-4,4-4s-1.8,0-4,0S26,25,26,25z"/><path fill="#4E342E" d="M18,22c0,0,1,0.9,1,2s-1,2-1,2s-1-0.9-1-2S18,22,18,22z M30,22c0,0-1,0.9-1,2s1,2,1,2s1-0.9,1-2S30,22,30,22z"/><path fill="#FF3D00" d="M16,30c0,0,5.1,2,8,2s8-2,8-2s-2.4,7.1-8,7S16,30,16,30z"/><path fill="#FFF" d="M25,36l-1-4c2,0,5.1-1,6.8-1.6L29,34l-0.6-2.5L27,35l-0.6-2.5L25,36z M19,34l0.6-2.5L21,35l0.6-2.5L23,36l1-4c-2,0-5.1-1-6.8-1.6L19,34z"/><path fill="#CFD8DC" d="M24,21l4-5c0,0-1.3-4-4-4s-4,4-4,4L24,21z"/></svg>