<svg xmlns="http://www.w3.org/2000/svg"  viewBox="0 0 48 48" width="1600px" height="1600px" baseProfile="basic"><path fill="#ffab91" d="M39.452,19.5c0,0,2.335-5.5,5.335-4.5s-1,7-1,7c3,2,0.59,5.957-2.324,5.543"/><path fill="#ffab91" d="M6.213,18.511c0,0-1.792-4.511-4.792-3.511s1,7,1,7c-3,2-1,6,1.915,5.585"/><path fill="#ffcc80" d="M36.496,11.994c3.382,4.273,5.291,10.04,5.291,15.881c0,7.6-10.787,18.05-20,18.05	c-9.787,0-18-10.45-18-18.05c0-6.429,2.314-12.77,6.358-17.126C15,4,34,5,36.496,11.994z"/><path fill="#d84315" d="M6.787,30c6.213,2,28.213,2,32,0c0,0-6.545,11-17.455,11S6.787,30,6.787,30z"/><path fill="#ff6e40" d="M26.301,31.474c-3.095,0.061-6.372,0.009-9.405-0.15C15.724,32.138,15,33.26,15,34.5	c0,2.485,2.91,4.5,6.5,4.5s6.5-2.015,6.5-4.5C28,33.333,27.353,32.274,26.301,31.474z"/><path fill="#3949ab" d="M23.757,2c0,0-12.97,0-13.97,9c6.537-4.286,19.529-5.857,27,1C36.787,8,33.096,2,23.757,2z"/><path fill="#fafafa" d="M25.244,14.366c-0.041,2.184,1.595,4.363,3.851,5.231c2.257,0.868,5.111,0.074,6.364-1.303	c-0.123-1.951-1.595-4.363-3.851-5.231C29.351,12.196,26.818,12.932,25.244,14.366z"/><circle cx="30.5" cy="15.5" r="2.5" fill="#1e88e5"/><circle cx="31" cy="15" r="1" fill="#263238"/><path fill="#fafafa" d="M20.166,14.432c0.053,2.179-1.547,4.345-3.766,5.198c-2.219,0.853-5.037,0.045-6.279-1.335	c0.11-1.946,1.547-4.345,3.766-5.198C16.106,12.243,18.606,12.991,20.166,14.432z"/><circle cx="13.5" cy="16.5" r="2.5" fill="#1e88e5"/><circle cx="13" cy="16" r="1" fill="#263238"/><path fill="#424242" d="M8.999,17c-0.202,0-0.405-0.061-0.582-0.188c-0.449-0.322-0.552-0.946-0.23-1.395	c0.815-1.137,3.758-4.134,7.54-4.355c2.544-0.141,4.904,0.949,7.012,3.264c0.372,0.408,0.342,1.041-0.066,1.413	s-1.041,0.342-1.413-0.066c-1.682-1.846-3.503-2.727-5.417-2.614c-2.985,0.174-5.415,2.665-6.031,3.523	C9.617,16.855,9.311,17,8.999,17z"/><path fill="#424242" d="M38.001,19c-0.33,0-0.653-0.163-0.844-0.462c-0.033-0.051-3.329-5.139-7.326-5.439	c-1.766-0.127-3.475,0.729-5.078,2.561c-0.363,0.415-0.994,0.458-1.411,0.094c-0.416-0.364-0.458-0.995-0.094-1.411	c2.042-2.333,4.314-3.424,6.74-3.237c4.998,0.381,8.701,6.115,8.856,6.358c0.296,0.466,0.159,1.083-0.306,1.38	C38.371,18.949,38.185,19,38.001,19z"/><path fill="#ff9e80" d="M27.787,19.958c0,3.291-2.239,7.042-5,7.042s-5-3.751-5-7.042s2.239-5.958,5-5.958	S27.787,16.668,27.787,19.958z"/><path fill="#f57f17" d="M14.499,34c-0.271,0-0.545-0.073-0.791-0.226c-0.704-0.438-0.919-1.363-0.481-2.066l5.287-8.5	c0.438-0.704,1.363-0.918,2.065-0.481c0.704,0.438,0.919,1.363,0.481,2.066l-5.287,8.5C15.489,33.749,15,34,14.499,34z"/><path fill="#b0bec5" d="M14.663,29.398l-1.437,2.31c-0.438,0.704-0.223,1.628,0.481,2.066C13.954,33.927,14.229,34,14.499,34	c0.501,0,0.99-0.251,1.274-0.708l1.462-2.351L14.663,29.398z"/><path fill="#fafafa" d="M18.787,31.408V36h4v-4.504C21.446,31.487,20.104,31.457,18.787,31.408z"/><path fill="#fafafa" d="M24.787,31.495V36h5l-0.921-4.606C27.553,31.448,26.185,31.483,24.787,31.495z"/></svg>