<svg xmlns="http://www.w3.org/2000/svg"  viewBox="0 0 48 48" width="1600px" height="1600px"><circle cx="24" cy="24" r="21" fill="#ff6d00"/><path fill="#ffe0b2" d="M24,12c0,0-11,1-11,12c0,10,11,12,11,12s11-2,11-12S24,12,24,12z"/><path fill="#fff" d="M24,22.706c0.014,3.723-2.702,7.154-6.031,7.29c-3.289,0.134-5.434-3.03-4.882-6.706	c0.5-3.331,3.084-5.951,5.836-6.128C21.703,16.984,23.987,19.34,24,22.706z"/><path fill="#fff" d="M24,22.744c-0.014,3.704,2.702,7.117,6.031,7.252c3.289,0.133,5.434-3.014,4.882-6.671	c-0.5-3.313-3.084-5.92-5.836-6.096C26.297,17.051,24.013,19.395,24,22.744z"/><circle cx="20" cy="23" r="1" fill="#212121"/><circle cx="27" cy="23" r="1" fill="#212121"/><path fill="#6d4c41" d="M15,24c0-9,9-12,9-12c-7.732,0-14,5.373-14,12c0,6.627,6.268,12,14,12C24,36,15,32,15,24z"/><path fill="#6d4c41" d="M24,12c0,0,9,5,9,12c0,9.029-9,12-9,12c7.732,0,14-5.373,14-12C38,17.373,31.732,12,24,12z"/><path fill="#3e2723" d="M24,41c-9.374,0-17-6.953-17-15.5S14.626,10,24,10s17,6.953,17,15.5S33.374,41,24,41z M24,12	c-8.271,0-15,6.056-15,13.5S15.729,39,24,39s15-6.056,15-13.5S32.271,12,24,12z"/><path fill="#3e2723" d="M22.943,43l-1.886-0.666l2-5.667c0.114-0.324,0.387-0.566,0.722-0.642	c0.333-0.075,0.686,0.025,0.928,0.268C24.801,36.387,27,38.636,27,43h-2c0-1.619-0.354-2.861-0.739-3.734L22.943,43z"/></svg>