<svg xmlns="http://www.w3.org/2000/svg"  viewBox="0 0 48 48" width="1600px" height="1600px"><ellipse cx="24" cy="28" fill="#ffe0b2" rx="19" ry="18"/><path fill="#fff" d="M24,26.282c0.014,3.429-2.702,6.59-6.031,6.715c-3.289,0.123-5.434-2.791-4.882-6.177	c0.5-3.068,3.084-5.482,5.836-5.644C21.703,21.011,23.987,23.181,24,26.282z"/><path fill="#fff" d="M24,26.283c-0.014,3.429,2.702,6.589,6.031,6.714c3.289,0.123,5.434-2.791,4.882-6.176	c-0.5-3.067-3.084-5.481-5.836-5.644C26.297,21.013,24.013,23.182,24,26.283z"/><path fill="#64dd17" d="M43,21H5V9c0-2.209,1.791-4,4-4h30c2.209,0,4,1.791,4,4V21z"/><path fill="#4caf50" d="M9.87,17.34C9.2,16.48,8.26,16,7.21,16c-0.75,0-1.5,0.26-2.21,0.71V21h5.99	C10.92,19.63,10.61,18.31,9.87,17.34z"/><path fill="#64dd17" d="M8.33,26.194C6.96,31.381,3.978,36,1.805,36s-2.382-4.619-0.638-9.806	C2.746,21.496,5.393,18,7.208,18S9.572,21.496,8.33,26.194z"/><path fill="#4caf50" d="M40.79,16c-1.05,0-1.99,0.48-2.66,1.34c-0.74,0.97-1.05,2.29-1.12,3.66H43v-4.29	C42.29,16.26,41.54,16,40.79,16z"/><path fill="#64dd17" d="M39.67,26.194C41.04,31.381,44.022,36,46.195,36s2.382-4.619,0.638-9.806	C45.254,21.496,42.607,18,40.792,18C38.976,18,38.428,21.496,39.67,26.194z"/><path fill="#212121" d="M24.754,42c-2.75,0-4.719-1.148-4.802-1.197l1.021-1.721C20.985,39.089,22.575,40,24.754,40	c1.805,0,3.253-0.724,3.268-0.731l0.913,1.78C28.86,41.087,27.061,42,24.754,42z"/><path fill="#43a047" d="M40,23c0,0-6-2-16-2S8,23,8,23V12h32V23z"/><circle cx="21" cy="28" r="1" fill="#212121"/><circle cx="27" cy="28" r="1" fill="#212121"/></svg>