<svg xmlns="http://www.w3.org/2000/svg"  viewBox="0 0 48 48" width="1600px" height="1600px" baseProfile="basic"><path fill="#cfd8dc" d="M43,26c-4,0-6-1-6-1c2-5,1-15,1-15c-4,5-9,8-9,8c-3-6,3-16,3-16C21,2,18,12,18,12c-1-2-2-2-2-2 c-1,2,0,6,0,6c-2-1-6-7-6-7c-2.048,6.145-0.481,11.706,2.469,16.368C12.494,25.399,9.309,26.233,6,25c0,0,1,9,10,10c0,0-5,3-7,6 c0,0,2,1,6,0s7-5,7-5l-1.418-1.733C24.998,37.915,29,40,29,40c6,2,10,2,10,2c0-3-3-10-3-10C40,31,43,28.18,43,26z"/><path fill="#455a64" d="M6,20c0,0,7,2,11,5l-3,4C14,29,8,26,6,20z"/><path fill="#455a64" d="M42,20c0,0-7,2-11,5l3,4C34,29,40,26,42,20z"/><path fill="#ff6f00" d="M40,39c0,0-1.5-3.5-7-6h7c0,0-1.5-3.5-7-6c0,0,0-8-4-12l-3,9h-4l-3-9c-4,4-4,12-4,12 c-5.5,2.5-7,6-7,6h7c-5.5,2.5-7,6-7,6c2,1,8,0,8,0c-5,2-7,6-7,6c5,0,12-5,12-5c1,4,3,4,3,4s2,0,3-4c0,0,7,5,12,5c0,0-2-4-7-6 C32,39,38,40,40,39z"/><path fill="#cfd8dc" d="M31,35c0-4-3-6-3-6l-2,9l-2-2l-2,2l-2-9c0,0-3,2-3,6c0,3,4,5,4,5c0,3.989,3,4,3,4s3-0.045,3-4 C27,40,31,38,31,35z"/><path fill="#455a64" d="M19,15c-1.859,1.859-2.848,4.578-3.381,6.961l2.993-1.921l2.611,1.632L19,15z"/><path fill="#455a64" d="M29,15c1.859,1.859,2.848,4.578,3.381,6.961l-2.993-1.921l-2.611,1.632L29,15z"/><path fill="#f8bbd0" d="M18.612,20.039l1.433,4.972l-3.034,2.022C17.011,27.034,17.225,22.079,18.612,20.039z"/><path fill="#f8bbd0" d="M29.444,20.039l-1.433,4.972l3.034,2.022C31.045,27.034,30.831,22.079,29.444,20.039z"/><polygon fill="#455a64" points="21.224,21.671 24.022,32.124 26.803,21.455 24.034,16.966"/><path fill="#455a64" d="M24.006,43L24.006,43c-0.828,0-1.5-0.672-1.5-1.5v0c0-0.276,0.224-0.5,0.5-0.5h2 c0.276,0,0.5,0.224,0.5,0.5v0C25.506,42.328,24.834,43,24.006,43z"/><path fill="#fff" d="M18.435,33.006l3.143,3.099c0,0-1.159,1.455-2.691,0.679C17.191,35.924,18.435,33.006,18.435,33.006 z"/><path fill="#4caf50" d="M21.14,35.672l-2.03-2.001c-0.205,0.192-0.37,0.442-0.464,0.739 c-0.262,0.835,0.129,1.701,0.873,1.934C20.127,36.534,20.777,36.239,21.14,35.672z"/><path fill="#455a64" d="M19.731,34.283c-0.138,0.145-0.234,0.368-0.234,0.634c0,0.44,0.246,0.796,0.55,0.796 c0.256,0,0.462-0.26,0.523-0.603L19.731,34.283z"/><path fill="#fff" d="M29.577,33.006l-3.143,3.099c0,0,1.159,1.455,2.691,0.679 C30.821,35.924,29.577,33.006,29.577,33.006z"/><path fill="#4caf50" d="M26.872,35.672l2.03-2.001c0.205,0.192,0.37,0.442,0.464,0.739c0.262,0.835-0.129,1.701-0.873,1.934 C27.885,36.534,27.235,36.239,26.872,35.672z"/><path fill="#455a64" d="M28.281,34.283c0.138,0.145,0.234,0.368,0.234,0.634c0,0.44-0.246,0.796-0.55,0.796 c-0.256,0-0.462-0.26-0.523-0.603L28.281,34.283z"/><path fill="#455a64" d="M15,42l1-3c-5,2-7,6-7,6c2.836,0,6.312-1.608,8.793-3H15z"/><path fill="#455a64" d="M33,42l-1-3c5,2,7,6,7,6c-2.836,0-6.312-1.608-8.793-3H33z"/></svg>