<svg xmlns="http://www.w3.org/2000/svg"  viewBox="0 0 48 48" width="1600px" height="1600px"><path fill="#558b2f" d="M37 21.8c0 0 1-3.8 3-3.8 1 0 1 2 1 5 0 2-2 6-4 6V21.8zM11 21.8c0 0-1-3.8-3-3.8-1 0-1 2-1 5 0 2 2 6 4 6V21.8z"/><path fill="#7cb342" d="M21,2c1,0,5.3,0,6,0c10,0,11,12.2,11,15c0,0,0,5.7,0,7.4c0,2.1,0,8.7,0,9.4c0,1.1-2.9,2.3-4.4,5.8 c-1.4,3.4-2.2,5.4-4.1,5.4H25h-6.5c-2,0-2.7-2.1-4.1-5.4c-1.5-3.5-4.4-4.7-4.4-5.8c0-0.6,0-7.2,0-9.4c0-1.7,0-7.4,0-7.4 C10,14.1,11,2,21,2z"/><path fill="#558b2f" d="M20.5,37.8l-1.1-1.7c0.1,0,1.9-1.2,4.5-1.2s4.5,1.1,4.5,1.2l-1.1,1.7c0,0-1.4-0.8-3.5-0.8 C21.9,37,20.5,37.8,20.5,37.8z"/><path fill="#efebe9" d="M20 21c0 0-.6-3-3.2-3-2.2 0-2.8 1.3-2.8 1.3s.9 1.6 2.5 1.6S18 21 20 21zM28 21c0 0 .6-3 3.2-3 2.2 0 2.8 1.3 2.8 1.3S33.1 21 31.5 21C29.9 21 30 21 28 21z"/><path fill="#616161" d="M30.5 18A1.5 1.5 0 1 0 30.5 21 1.5 1.5 0 1 0 30.5 18zM17.5 18A1.5 1.5 0 1 0 17.5 21 1.5 1.5 0 1 0 17.5 18z"/><g><path fill="#689f38" d="M22 20l-1 8-.1.2C20.4 29.1 20.1 30 20 31c-.1.5.3 1 .8 1.1C22 32.4 23 33 23 33V20H22zM27.1 28.2L27 28l-1-8h-1v11.1V33c0 0 1-.6 2.2-.9.5-.1.9-.6.8-1.1C27.9 30 27.6 29.1 27.1 28.2z"/><path fill="#689f38" d="M25 18L24 19 23 16 23 20 22 21 26 21 25 20zM38 28v5.8c0 1.1-2.9 2.3-4.4 5.8-1 2.3-1.6 4-2.6 4.9v-8.9c0-1 .5-1.9 1.3-2.4L38 28zM10 28v5.8c0 1.1 2.9 2.3 4.4 5.8 1 2.3 1.7 4 2.6 4.9v-8.9c0-1-.5-1.9-1.3-2.4L10 28z"/><path fill="#689f38" d="M25 20c0 2.7 5.8-.8 9-1.8 3-1 6-2.2 6-5.1C40 10 36.5 9 36.5 9s.4 2.1-2.5 4.1C32 14.4 25 17.7 25 20zM23 20c0 2.7-5.8-.8-9-1.8-3-1-6-2.2-6-5.1C8 10 11.5 9 11.5 9s-.4 2.1 2.5 4.1C15.9 14.4 23 17.7 23 20z"/></g><path fill="#9ccc65" d="M25,20v7.2c0,0.5,0.1,1.1,0.4,1.5l0,0c0.4,0.8,0.5,1.8,0.2,2.6L25,33h-2l-0.5-1.6 c-0.3-0.9-0.2-1.8,0.2-2.6l0,0c0.2-0.5,0.4-1,0.4-1.5V20H25z"/></svg>