<svg xmlns="http://www.w3.org/2000/svg"  viewBox="0 0 48 48" width="1600px" height="1600px"><path fill="#cfd8dc" d="M24,42C13.418,42,9.75,35.924,7.5,32C3.615,25.225,0,8,4,7s11,10,11,10s3-2.957,9-2.957S33,17,33,17	S40,6,44,7s0.385,18.225-3.5,25C38.25,35.924,34.582,42,24,42z"/><path fill="#9fa8da" d="M24,25c-2.206,0-4-1.794-4-4s1.794-4,4-4s4,1.794,4,4S26.206,25,24,25z M24,19c-1.103,0-2,0.897-2,2	s0.897,2,2,2s2-0.897,2-2S25.103,19,24,19z"/><ellipse cx="17.25" cy="30.441" fill="#64b5f6" rx="2.75" ry="4.059"/><path fill="#263238" d="M19.55,27.18l-0.83-0.17L18,26c-0.24-0.08-0.49-0.12-0.75-0.12c-1.82,0-3.25,2-3.25,4.56	S15.43,35,17.25,35s3.25-2,3.25-4.56C20.5,29.15,20.14,28,19.55,27.18z M17.25,34C16.03,34,15,32.37,15,30.44s1.03-3.56,2.25-3.56	s2.25,1.63,2.25,3.56S18.47,34,17.25,34z"/><ellipse cx="17.25" cy="30.441" fill="#263238" rx="1.1" ry="2.2"/><path fill="#263238" d="M19.45,30.1c0,0-1.1-0.55-2.2-0.55s-2.2,0.55-2.2,0.55l-0.55,0.55c0,0,0.55-4.4,2.75-4.4	s2.75,4.4,2.75,4.4L19.45,30.1z"/><circle cx="16.249" cy="28.23" r=".75" fill="#fafafa"/><ellipse cx="30.75" cy="30.441" fill="#64b5f6" rx="2.75" ry="4.059"/><path fill="#263238" d="M30.75,25.88c-0.26,0-0.51,0.04-0.75,0.12l-0.71,0.99l-0.82,0.18c-0.6,0.82-0.97,1.97-0.97,3.27	C27.5,33,28.93,35,30.75,35S34,33,34,30.44S32.57,25.88,30.75,25.88z M30.75,34c-1.22,0-2.25-1.63-2.25-3.56s1.03-3.56,2.25-3.56	S33,28.51,33,30.44S31.97,34,30.75,34z"/><ellipse cx="30.75" cy="30.441" fill="#263238" rx="1.1" ry="2.2"/><path fill="#263238" d="M28.55,30.1c0,0,1.1-0.55,2.2-0.55s2.2,0.55,2.2,0.55l0.55,0.55c0,0-0.55-4.4-2.75-4.4	S28,30.65,28,30.65L28.55,30.1z"/><circle cx="29.8" cy="28.23" r=".75" fill="#fafafa"/><path fill="#1a237e" d="M18.715,27l1.894,9h6.783l1.894-9C27.669,27,20.331,27,18.715,27z"/><path fill="#1a237e" d="M9,35l5.674,1c0,0-1.618-4.155-3.357-9C7.042,27,5,27,5,27L9,35z"/><path fill="#1a237e" d="M8,17c0.823,2.882,2.1,6.61,3.317,10c1.977,0,4.437,0,7.398,0L16.4,16L8,17z"/><path fill="#1a237e" d="M36.683,27c-1.739,4.845-3.357,9-3.357,9L39,35l4-8C43,27,40.958,27,36.683,27z"/><path fill="#1a237e" d="M31.6,16l-2.315,11c2.962,0,5.421,0,7.398,0C37.9,23.61,39.177,19.882,40,17L31.6,16z"/><path fill="#263238" d="M28.277,38.116c-0.595,0.603-1.267,0.948-2.003,1.209C25.543,39.579,24.769,39.688,24,39.7	c-0.769-0.012-1.543-0.121-2.274-0.375c-0.736-0.261-1.408-0.606-2.003-1.209l0.555-0.832c0.596,0.118,1.252,0.238,1.863,0.311	c0.622,0.064,1.238,0.113,1.86,0.105c0.621,0.008,1.237-0.041,1.86-0.105c0.611-0.073,1.267-0.193,1.863-0.311L28.277,38.116z"/></svg>