<svg xmlns="http://www.w3.org/2000/svg"  viewBox="0 0 48 48" width="1600px" height="1600px"><path fill="#424242" d="M16 11H32V31H16z"/><path fill="#757575" d="M30 25L18 25 17 14 31 14z"/><path fill="#212121" d="M27 11L21 11 20 9 28 9z"/><path fill="#616161" d="M19 2H29V9H19zM18 31H22V34H18zM18 38H22V43H18zM26 31H30V34H26zM26 38H30V43H26zM35 18H37V25H35zM11 18H13V25H11zM37.5 14c-.188 0-.35.007-.5.016V14h-3v4h3v-.016C37.15 17.993 37.312 18 37.5 18c.276 0 .5-.895.5-2C38 14.895 37.776 14 37.5 14zM10.5 14c.188 0 .35.007.5.016V14h3v4h-3v-.016C10.85 17.993 10.688 18 10.5 18c-.276 0-.5-.895-.5-2C10 14.895 10.224 14 10.5 14zM28 2L20 2 21 1 27 1z"/><path fill="#81d4fa" d="M20 3H28V6H20z"/><g><path fill="#757575" d="M22 34h-4c-.552 0-1 1.119-1 2.5 0 1.381.448 2.5 1 2.5h4c.552 0 1-1.119 1-2.5C23 35.119 22.552 34 22 34zM30 34h-4c-.552 0-1 1.119-1 2.5 0 1.381.448 2.5 1 2.5h4c.552 0 1-1.119 1-2.5C31 35.119 30.552 34 30 34zM37.5 25c-.196 0-.356 0-.5.002V25h-2v.002C34.856 25 34.696 25 34.5 25c-.276 0-.5 1.119-.5 2.5 0 1.381.224 2.5.5 2.5.196 0 .356 0 .5-.002V30h2v-.002C37.144 30 37.304 30 37.5 30c.276 0 .5-1.119.5-2.5C38 26.119 37.776 25 37.5 25zM32 13H34V19H32zM14 13H16V19H14zM13.5 25c-.196 0-.356 0-.5.002V25h-2v.002C10.856 25 10.696 25 10.5 25c-.276 0-.5 1.119-.5 2.5 0 1.381.224 2.5.5 2.5.196 0 .356 0 .5-.002V30h2v-.002C13.144 30 13.304 30 13.5 30c.276 0 .5-1.119.5-2.5C14 26.119 13.776 25 13.5 25zM31 6L29 7 29 4 31 5zM19 7L17 6 17 5 19 4z"/></g><g><path fill="#bdbdbd" d="M35 28v3c0 .552.448 1 1 1s1-.448 1-1v-3H35zM11 28v3c0 .552.448 1 1 1s1-.448 1-1v-3H11zM18 25H30V29H18zM22 7H26V8H22z"/></g><g><path fill="#e57373" d="M23 47h-6v-4c0 0 1-1 3-1s3 1 3 1V47zM31 47h-6v-4c0 0 1-1 3-1s3 1 3 1V47zM24 15c-1.105 0-2 .895-2 2v5c0 1.105.895 2 2 2s2-.895 2-2v-5C26 15.895 25.105 15 24 15zM28 15c-.552 0-1 .448-1 1v7c0 .552.448 1 1 1s1-.448 1-1v-7C29 15.448 28.552 15 28 15zM20 15c-.552 0-1 .448-1 1v7c0 .552.448 1 1 1s1-.448 1-1v-7C21 15.448 20.552 15 20 15zM28 26A1 1 0 1 0 28 28 1 1 0 1 0 28 26zM20 26A1 1 0 1 0 20 28 1 1 0 1 0 20 26z"/></g><path fill="#0d47a1" d="M22 26H26V28H22z"/></svg>