<svg xmlns="http://www.w3.org/2000/svg"  viewBox="0 0 48 48" width="1600px" height="1600px"><path fill="#424242" d="M13 17c0 0-6 2-6 8l2-1c0 0-2.156 4.656 0 7h4v-9V17zM35 17c0 0 6 2 6 8l-2-1c0 0 2.156 4.656 0 7h-4v-9V17z"/><path fill="#616161" d="M35.847,5.142L35,17c0,0-7.136,3-11,3s-11-3-11-3L12.153,5.142C12.07,3.985,12.987,3,14.148,3 h19.704C35.013,3,35.93,3.985,35.847,5.142z"/><path fill="#6a1b9a" d="M35.429,11L35,17c0,0-7.136,4-11,4s-11-4-11-4l-0.429-6c0,0,5.429,2,11.429,2S35.429,11,35.429,11z"/><path fill="#424242" d="M42.356,19.997C40.096,23,32.221,23,24,23c-8.196,0-16.048,0-18.335-2.976C5.233,19.462,6,17,9,17 c6,0,6,5,15,5s9-5,15-5C42,17,42.774,19.44,42.356,19.997z"/><path fill="#f1a9a9" d="M37.02,20.55C37.01,20.37,37,20.19,37,20c0-2-1-3-1-3c-0.384-1.157-7,4-12,4s-11.563-5.137-12-4 c0,0-1,1-1,3c0,0.19-0.01,0.37-0.02,0.55C10.73,24.28,9,27.19,9,31c0,6.4,3.74,9.11,9,11c1.55,0.56,2,3,6,3s4.45-2.44,6-3 c5.26-1.89,9-4.6,9-11C39,27.19,37.27,24.28,37.02,20.55z"/><path fill="#616161" d="M12 23H14V25H12z"/><path fill="#eee" d="M22 23.5c0 2.49-2.01 4.5-4.5 4.5S13 25.99 13 23.5c0-2.11 1.44-3.87 3.39-4.36 1.2.71 2.64 1.34 4.7 1.66C21.67 21.55 22 22.49 22 23.5zM30.625 25c-.695 0-1.543-.006-2.625 0-.001-.012 0-.487 0-.5 0-1.381 1.119-2.5 2.5-2.5s2.917 1.5 3.5 2C33.625 24.625 33.125 25 30.625 25z"/><path fill="#424242" d="M17.5 22A1.5 1.5 0 1 0 17.5 25 1.5 1.5 0 1 0 17.5 22zM30.5 22A1.5 1.5 0 1 0 30.5 25 1.5 1.5 0 1 0 30.5 22z"/><path fill="#424242" d="M36,23.4c0,0-1.8-0.8-2.7-0.8C29.7,22.6,27,26,27,26h-1c0,0,2.8-6,7.3-6c0.9,0,2.7,2.6,2.7,2.6 V23.4z"/><path fill="#ffd4d9" d="M27.5,30c-0.828,0-1.5,0.672-1.5,1.5c0,0-1-7.5-2-7.5s-2,7.5-2,7.5c0-0.828-0.672-1.5-1.5-1.5 S19,30.672,19,31.5c0,0.552,0.298,1.035,0.743,1.295c0.586,0.343,1.127,0.763,1.462,1.353c1.558,2.742,2.425,5.667,2.425,5.667 C23.72,39.924,23.85,40,24,40c0.15,0,0.28-0.076,0.37-0.185c0,0,0.866-2.925,2.425-5.667c0.336-0.59,0.877-1.01,1.462-1.353 C28.702,32.535,29,32.052,29,31.5C29,30.672,28.328,30,27.5,30z"/><path fill="#616161" d="M21.09 20.8c-2.06-.32-3.5-.95-4.7-1.66C16.75 19.05 17.12 19 17.5 19 18.97 19 20.28 19.7 21.09 20.8zM12 29A1 1 0 1 0 12 31 1 1 0 1 0 12 29zM12 27A1 1 0 1 0 12 29 1 1 0 1 0 12 27zM12 25A1 1 0 1 0 12 27 1 1 0 1 0 12 25zM12 23A1 1 0 1 0 12 25 1 1 0 1 0 12 23zM12 31A1 1 0 1 0 12 33 1 1 0 1 0 12 31zM12 33A1 1 0 1 0 12 35 1 1 0 1 0 12 33zM12 35A1 1 0 1 0 12 37 1 1 0 1 0 12 35zM12 37A1 1 0 1 0 12 39 1 1 0 1 0 12 37zM12 39A1 1 0 1 0 12 41 1 1 0 1 0 12 39zM12 41A1 1 0 1 0 12 43 1 1 0 1 0 12 41zM12 43A1 1 0 1 0 12 45 1 1 0 1 0 12 43z"/><path fill="#616161" d="M42.4,19.92C42.7,19.32,41.87,18,39,18c-6,0-6,5-15,5s-9-5-15-5c-3,0-3.77,1.46-3.33,2.02 C5.23,19.46,5,18.79,5,18c0-1.11,1-3,4-3c6,0,8.85,5,15,5c6.3,0,9-5,15-5c3,0,4,1.94,4,3C43,18.75,42.79,19.38,42.4,19.92z"/></svg>