<svg xmlns="http://www.w3.org/2000/svg"  viewBox="0 0 48 48" width="1600px" height="1600px"><path fill="#424242" d="M26,5c15,0,15,13,15,13l2,27h-9H14H5l2-27C7,18,8,3,22,3C25,3,26,5,26,5z"/><path fill="#212121" d="M13 35H35V45H13z"/><path fill="#ff9800" d="M24 37L17 37 17 45 31 45 31 37z"/><path fill="#ffb74d" d="M24,10l-10,5c0,3.503,0.008,20.151,0.008,20.151c0,0.817,0.339,1.594,0.931,2.132l7.099,4.994 c1.144,0.966,2.782,0.966,3.925,0l7.099-4.994c0.591-0.538,0.931-1.315,0.931-2.132c0,0,0.008-16.648,0.008-20.151L24,10z"/><path fill="#b71c1c" d="M25,34c-0.75,0-1,1-1,1s-0.042-1-1-1s-3,1-3,1s2.2,2,4,2s4-2,4-2S25.75,34,25,34z"/><path fill="#efebe9" d="M27 26c0 0 .634-3 3.171-3C32.396 23 33 24.333 33 24.333S32.073 26 30.463 26C28.854 26 28.979 26 27 26zM21 26c0 0-.634-3-3.171-3C15.604 23 15 24.333 15 24.333S15.927 26 17.537 26 19.021 26 21 26z"/><path fill="#43a047" d="M31 24.5c0 .83-.67 1.5-1.5 1.5S28 25.33 28 24.5c0-.24.05-.46.16-.66.4-.4.92-.72 1.61-.81h.03C30.49 23.17 31 23.77 31 24.5zM17 24.5c0 .83.67 1.5 1.5 1.5s1.5-.67 1.5-1.5c0-.24-.05-.46-.16-.66-.4-.4-.92-.72-1.61-.81H18.2C17.51 23.17 17 23.77 17 24.5z"/><path fill="#263238" d="M29.5 24A.5.5 0 1 0 29.5 25 .5.5 0 1 0 29.5 24zM18.5 24A.5.5 0 1 0 18.5 25 .5.5 0 1 0 18.5 24z"/><path fill="#424242" d="M27 26c0 0 .634-3 3.171-3C32.396 23 33 24.333 33 24.333S33 24 30 24C28.39 24 27 26 27 26zM21 26c0 0-.634-3-3.171-3C15.604 23 15 24.333 15 24.333S15 24 18 24C19.61 24 21 26 21 26z"/><g><path fill="#424242" d="M26 24c0 0 1.013-.536 1.364-.686.657-.282 1.803-.674 2.428-.814.379-.085.949-.187 1.541-.187C32.31 22.312 34 23.03 34 23.03V22c0 0-1-1-2-1-3 0-4.413 1.147-5.052 1.785C26.302 23.418 26 24 26 24zM22 24c0 0-1.013-.536-1.364-.686-.657-.282-1.803-.674-2.428-.814-.379-.085-.949-.187-1.541-.187C15.69 22.312 14 23.03 14 23.03V22c0 0 1-1 2-1 3 0 4.413 1.147 5.052 1.785C21.698 23.418 22 24 22 24z"/></g><path fill="#388e3c" d="M35,18c0,0-5,1-11,1s-11-1-11-1l4-7h13L35,18z"/><g><path fill="#eee" d="M38,45h-4c0,0,0-12.943,0-21c0-8-3.998-11-7-11c-2,0-3,1-3,1s-1-2-4-2s-6,3-6,12c0,8.016,0,21,0,21 h-4l1-24c0,0,0-13,11-13c2.14,0,3,2,3,2c12,0,12,11,12,11L38,45z"/></g></svg>