<svg xmlns="http://www.w3.org/2000/svg"  viewBox="0 0 48 48" width="1600px" height="1600px"><path fill="#d81b60" d="M14,21c0,0-1.6-10-5.6-14c0,0-1.12,3.198-1,6c0,0-0.732-5.128-1.4-7c0,0-3,7-2,17	c1.294,12.935,6.75,14,6.75,14L14,21z"/><path fill="#d81b60" d="M34,21c0,0,1.6-10,5.6-14c0,0,1.12,3.198,1,6c0,0,0.732-5.128,1.4-7c0,0,3,7,2,17	c-1.294,12.935-6.75,14-6.75,14L34,21z"/><path fill="#cfd8dc" d="M24,42c9,0,18-4.286,17-13.957S33,13,24,13S8,18.373,7,28.043S15,42,24,42z"/><path fill="#ff4081" d="M20,34.976c0,0,0-11.576-9-11.576c0,0,0.168,1.581,1,2.839c0,0-1.326,0.131-2.5,0.131	c0,0,0.511,5.947,2.94,8.146C15.147,36.966,19.22,35.837,20,34.976z"/><path fill="#ff4081" d="M3,23c1.29,12.94,6.75,14,6.75,14l0.38-1.63C8.33,31.6,4.45,22.32,6,6C6,6,2,13,3,23z"/><path fill="#ff4081" d="M28,34.976c0,0,0-11.576,9-11.576c0,0-0.168,1.581-1,2.839c0,0,1.326,0.131,2.5,0.131	c0,0-0.511,5.947-2.94,8.146C32.853,36.966,28.78,35.837,28,34.976z"/><path fill="#263238" d="M28.277,37.416c-0.595,0.603-1.267,0.948-2.003,1.209C25.543,38.879,24.769,38.988,24,39	c-0.769-0.012-1.543-0.121-2.274-0.375c-0.736-0.261-1.408-0.606-2.003-1.209l0.555-0.832c0.596,0.118,1.252,0.238,1.863,0.311	C22.763,36.959,23.379,37.008,24,37c0.621,0.008,1.237-0.041,1.86-0.105c0.611-0.073,1.267-0.193,1.863-0.311L28.277,37.416z"/><path fill="#263238" d="M30.2,22.1c0.302-0.473,0.664-0.788,1.077-1.062c0.409-0.272,0.86-0.47,1.327-0.611	c0.936-0.261,1.959-0.316,2.896,0.073v1c-0.829,0.39-1.57,0.597-2.326,0.84c-0.379,0.109-0.755,0.228-1.149,0.321	c-0.385,0.099-0.806,0.201-1.225,0.238L30.2,22.1z"/><path fill="#263238" d="M17.2,22.9c-0.419-0.038-0.84-0.139-1.225-0.238c-0.394-0.093-0.77-0.212-1.149-0.321	c-0.756-0.243-1.497-0.45-2.326-0.84v-1c0.936-0.389,1.96-0.334,2.896-0.073c0.468,0.141,0.918,0.339,1.327,0.611	c0.413,0.275,0.775,0.59,1.077,1.062L17.2,22.9z"/><ellipse cx="33" cy="30.319" fill="#c62828" rx="2.5" ry="4.184"/><path fill="#263238" d="M33,35.003c-1.682,0-3-2.057-3-4.684s1.318-4.684,3-4.684s3,2.057,3,4.684S34.682,35.003,33,35.003z M33,26.636c-1.084,0-2,1.687-2,3.684s0.916,3.684,2,3.684s2-1.687,2-3.684S34.084,26.636,33,26.636z"/><ellipse cx="33" cy="30.319" fill="#263238" rx="1" ry="2.267"/><path fill="#263238" d="M31,29.968c0,0,1-0.567,2-0.567s2,0.567,2,0.567l0.5,0.567c0,0-0.5-4.535-2.5-4.535	s-2.5,4.535-2.5,4.535L31,29.968z"/><circle cx="32.09" cy="27.8" r=".75" fill="#fafafa"/><path fill="#ff4081" d="M45,23c-1.29,12.94-6.75,14-6.75,14l-0.38-1.63C39.67,31.6,43.55,22.32,42,6C42,6,46,13,45,23z"/><path fill="#d81b60" d="M44.16,28.11C42.18,36.24,38.25,37,38.25,37l-0.38-1.63c0.475-0.99,1.126-2.401,1.748-4.285	C39.782,30.591,42.66,28.36,44.16,28.11z"/><path fill="#ff4081" d="M33,40.5c0,0,4-9.5,12-10.5c0,0,0,1.7-2,3.7c0,0,1.438-0.317,3-0.7c0,0-1.762,5.57-5.549,7.075	C37.06,41.423,33,40.5,33,40.5z"/><ellipse cx="15" cy="30.319" fill="#c62828" rx="2.5" ry="4.184"/><path fill="#263238" d="M15,35.003c-1.682,0-3-2.057-3-4.684s1.318-4.684,3-4.684s3,2.057,3,4.684S16.682,35.003,15,35.003z M15,26.636c-1.084,0-2,1.687-2,3.684s0.916,3.684,2,3.684s2-1.687,2-3.684S16.084,26.636,15,26.636z"/><ellipse cx="15" cy="30.319" fill="#263238" rx="1" ry="2.267"/><path fill="#263238" d="M17,29.968c0,0-1-0.567-2-0.567s-2,0.567-2,0.567l-0.5,0.567c0,0,0.5-4.535,2.5-4.535	s2.5,4.535,2.5,4.535L17,29.968z"/><path fill="#d81b60" d="M3.84,28.11C5.82,36.24,9.75,37,9.75,37l0.38-1.63c-0.475-0.99-1.126-2.401-1.748-4.285	C8.218,30.591,5.34,28.36,3.84,28.11z"/><path fill="#ff4081" d="M15,40.5c0,0-4-9.5-12-10.5c0,0,0,1.7,2,3.7c0,0-1.438-0.317-3-0.7c0,0,1.762,5.57,5.549,7.075	C10.94,41.423,15,40.5,15,40.5z"/><path fill="#9fa8da" d="M28,19c0,2.21-1.79,4-4,4s-4-1.79-4-4c0-1.55,0.87-2.88,2.16-3.55c-0.26,0.37-0.41,0.82-0.41,1.3	c0,1.24,1.01,2.25,2.25,2.25s2.25-1.01,2.25-2.25c0-0.48-0.15-0.93-0.41-1.3C27.13,16.12,28,17.45,28,19z"/><circle cx="14.09" cy="27.8" r=".75" fill="#fafafa"/></svg>