<svg xmlns="http://www.w3.org/2000/svg"  viewBox="0 0 48 48" width="1600px" height="1600px"><path fill="#ffe0b2" d="M45,25c0,11.598-9.402,21-21,21S3,36.598,3,25v-3c0,0,8-2.999,21-2.999S45,23,45,23V25z"/><path fill="#fff" d="M24,26.706c0.014,3.723-2.702,7.154-6.031,7.29c-3.289,0.134-5.434-3.03-4.882-6.706	c0.5-3.331,3.084-5.951,5.836-6.128C21.703,20.984,23.987,23.34,24,26.706z"/><path fill="#fff" d="M24,26.744c-0.014,3.704,2.702,7.117,6.031,7.252c3.289,0.133,5.434-3.014,4.882-6.671	c-0.5-3.313-3.084-5.92-5.836-6.096C26.297,21.051,24.013,23.395,24,26.744z"/><circle cx="21" cy="28" r="1" fill="#212121"/><circle cx="27" cy="28" r="1" fill="#212121"/><path fill="#5c6bc0" d="M24,19.001c10.296,0,17.437,2.503,19.97,3.546C43.564,12.242,34.796,4,24.001,4	C13.527,4,4.975,11.763,4.103,21.638C6.697,20.843,13.798,19.001,24,19.001z"/><path fill="#d32f2f" d="M45,20.474C39.296,18.635,31.985,17,24,17c-6.567,0-14.22,0.842-21,2.602v4.146	C9.248,22.014,16.809,21,24,21c8.115,0,15.481,1.789,21,3.676V20.474z"/><path fill="#212121" d="M24.754,42c-2.75,0-4.719-1.148-4.802-1.197l1.021-1.721C20.985,39.089,22.575,40,24.754,40	c1.805,0,3.253-0.724,3.268-0.731l0.913,1.78C28.86,41.087,27.061,42,24.754,42z"/><rect width="2" height="9" x="23" fill="#d32f2f"/><rect width="2" height="9" x="23" fill="#d32f2f" transform="rotate(-45.001 24 4.5)"/><rect width="9" height="2" x="19.5" y="3.5" fill="#d32f2f"/><rect width="9" height="2" x="19.5" y="3.5" fill="#d32f2f" transform="rotate(-45.001 24 4.5)"/></svg>