<svg xmlns="http://www.w3.org/2000/svg"  viewBox="0 0 48 48" width="1600px" height="1600px"><path fill="#b71c1c" d="M16.216,21.474c-0.708,6.841-1.379,13.837-1.956,20.81c2.127,0.138,4.414,0.268,6.627,0.32c0-0.435,0.065-1.107,0.065-1.542c-1.324-0.206-2.733-0.341-4.574-0.619c0.695-6.201,1.089-12.788,1.739-19.034C17.524,21.408,16.809,21.474,16.216,21.474z M21.582,30.551c-0.42,4.167-1.282,12.227,2.392,12.21c2.717-0.013,3.46-3.831,3.75-8.005c0.248-3.57,0.747-7.676,0.58-10.738c-0.112-2.054-1.529-3.643-3.344-3.077C22.26,21.782,21.975,26.649,21.582,30.551z M26.011,23.478c0.285,0.834,0.245,2.515,0.145,4.058c-0.193,3.013-0.399,5.74-0.727,9.207c-0.123,1.303,0.058,3.61-1.329,3.578c-1.633-0.038-1.128-4.248-1.063-5.729c0.17-3.894,0.656-8.688,1.794-11.212C25.073,22.843,25.849,23.006,26.011,23.478z M41.403,32.169c0.367-4.878,2.581-12.292-4.757-10.858c-0.449,7.01-1.309,15.237-1.826,21.45c1.263,0.427,3.589,0.137,4.319-0.646C40.412,40.752,41.061,36.71,41.403,32.169z M38.504,23.478c2.732,0.033,1.293,5.802,0.796,10.485c-0.285,2.683-0.618,6.806-2.264,6.685C37.485,34.741,37.855,28.953,38.504,23.478z M34.529,35.603c0.308-3.779,0.601-6.846,0.729-9.629c0.101-2.2-1.085-4.731-2.426-4.565c-3.169,0.391-3.886,5.252-4.251,9.762c-0.378,4.669-1.154,11.101,1.341,11.721C33.316,43.735,34.188,39.784,34.529,35.603z M33.23,24.134c0.494,3.765-0.152,7.015-0.625,10.621c-0.289,2.209-0.517,6.16-1.745,5.818c-0.688-0.192-0.767-2.897-0.615-4.817c0.339-4.289,1.083-11.235,2.134-12.017C32.592,23.58,33.123,23.315,33.23,24.134z M13.243,21.506c-0.722-0.43-1.974-0.534-4.121-0.098c0.113,7.007-0.048,14.178-1.374,20.794c1.762,0.187,3.604,0.345,4.38,0c1.641-0.73,1.909-2.97,2.053-5.492c0.124-2.184,0.145-4.123-1.196-4.835c1.535-0.641,1.972-2.564,1.972-5.611C14.956,23.853,14.655,22.349,13.243,21.506z M10.828,22.875c4.047,0.309,2.641,8.067-0.311,8.316C10.657,28.204,10.613,25.593,10.828,22.875z M9.832,40.67c0.449-2.21,0.391-4.596,0.81-6.836c1.739-0.019,2.221,1.311,2.099,3.349C12.612,39.334,11.757,40.916,9.832,40.67z"/><path fill="#263238" d="M35.476,18.733c2.172,0.065,4.442,0.117,6.524,0.273c0.085-0.678,0.161-1.463,0.227-2.16c-1.377-0.14-3.267-0.104-4.528-0.153c0.216-1.167,0.408-2.101,0.625-3.156c1.015-0.051,2.14-0.051,3.276-0.1c0.083-0.68,0.263-1.398,0.244-2.182c-1.02-0.012-2.309,0.087-3.202,0.033c0.152-1.178,0.325-3.905,0.325-3.905l0.195-0.027c0,0,0.135-1.56,0.162-2.351c-0.722,0-1.491,0-2.212,0C36.765,9.74,36.187,14.466,35.476,18.733z M39.621,5.006c-0.035,0.692-0.085,1.729-0.085,2.302c1.155,0,2.309,0,3.464,0c0-0.728,0-1.574,0-2.302C41.855,5.015,40.637,4.989,39.621,5.006z M23.185,5.115c-0.416-0.074-3.025-0.109-4.654-0.109c-4.636,0-9.862,0.03-13.53,0C5,5.733,5,6.522,5,7.25c1.621,0.009,3.099-0.085,4.51-0.161c0,3.82-0.005,8.076-0.005,11.896c0.613,0,1.71,0.079,1.881-0.051c0.537-0.408,0.094-8.783,0.433-11.964c1.335,0,2.67,0.067,4.005,0.067c-0.008,3.983-0.175,8.037-0.136,11.968c0.664-0.058,1.588,0.138,2.077-0.096c0.346-1.584,0.099-4.188,0.298-5.606c0.559-0.021,1.209,0.007,1.46,0.027c0.527,0.042,1.782,1.88,2.418,2.815c0.809,1.19,1.5,2.336,2.218,3.207c0.885,0.021,2.328,0.299,2.496,0.03c0.095-0.152,0.113-0.349-0.07-0.518c-0.496-0.456-0.933-1.078-1.235-1.647c-0.644-1.209-0.489-1.564-1.956-3.788c0.41,0.06,0.617,0.327,1.103,0.221c0.527-0.139,1.314-1.923,1.314-1.923s-0.438,4.453-0.245,5.053c0.225,0.701,1.592,2.141,1.909,2.149c0.746,0.019,4.46,0.125,5.099,0.055c0.628-0.022,1.25-1.582,2.548-2.291c0.025-0.014,0.152-0.071,0.168-0.096c0.275-0.409,0.338-2.028,0.516-2.874c0.532-2.517,0.698-6.1,0.96-8.719c-0.577,0-1.282,0-1.859,0c-0.465,2.978-0.353,8.825-1.253,10.977c-0.534,1.277-1.425,0.873-2.454,0.859c-0.492-0.007-1.771,0.319-2.609,0.286c-0.059-0.002-0.568,0.022-0.838-0.251c-0.172-0.173-0.191-0.3-0.16-0.554c0.325-2.689,0.532-7.807,0.573-11.318c-0.686,0-1.371,0-2.057,0c-0.005,0.904-0.016,2.188-0.108,2.947C25.279,7.106,24.531,5.354,23.185,5.115z M23.598,10.818c-2.031,0.011-3.852-0.083-5.647-0.164c0.114-1.049-0.108-2.521,0.094-3.251c2.176,0.038,4.708,0.079,5.073,0.218C24.4,8.109,24.659,9.917,23.598,10.818z"/></svg>