<svg xmlns="http://www.w3.org/2000/svg"  viewBox="0 0 48 48" width="1600px" height="1600px"><path fill="#3e2723" d="M36.297,7.926c-0.135-0.108-0.275-0.221-0.415-0.334L37,8c-2.569-5.139-6-5.572-8.346-5.088	C27.229,2.354,25.681,2,24,2c-5.333,0-9.333,3.556-12.297,5.926c-1.334,1.067-2.249,2.504-2.697,4.078L9,12c0,0-2,3,0,8	c0,0,0.004-1.108,0.316-2.384C10.054,20.412,11.203,24.484,13,27l22,1c2.123-2.972,3.345-9.125,4.048-11.769	C39.864,13.159,38.778,9.912,36.297,7.926z"/><path fill="#ffa726" d="M33.692,26.125c0,0,2.689-4.125,3.976-4.125c0.53,0,0.265,1.629,0.265,2.475	C37.934,25.321,37,26.436,37,27l-1,3c0,1.1-1.384,3-3,3L33.692,26.125z M14.308,26.125c0,0-2.689-4.125-3.976-4.125	c-0.53,0-0.265,1.629-0.265,2.475C10.066,25.321,11,26.436,11,27l1,3c0,1.1,1.384,3,3,3L14.308,26.125z"/><path fill="#ffb74d" d="M34.947,16.926c0-0.14-0.01-0.27-0.02-0.4c-0.21-1.69-1.66-3.86-3.98-4.45	c-0.39-0.1-0.8-0.15-1.24-0.15c-2.76,0-6.057-0.038-6.057-0.038S22.76,9,20,9c-0.44,0-2.61,0.9-3,1	c-2.32,0.59-3.823,4.836-4.033,6.526c-0.01,0.13-0.02,0.26-0.02,0.4c0,2,1,3,1,3l-1,1c0,0,0,2,0,5v3c0,0,0.28,0.48,0.58,1.06	l1.42,5.94C15.894,39.342,18,44,24,44l0,0l0,0c6,0,8-4.658,8.947-8.074l1.42-5.94c0.3-0.58,0.58-1.06,0.58-1.06v-3c0-3,0-5,0-5l-1-1	C33.947,19.926,34.947,18.926,34.947,16.926z"/><path fill="#ff9800" d="M35,21c0,0-0.05,1.987-0.05,4.987c0,0-1.48-0.987-3.95-0.987l-3.43,1.88l-1.745,0.047l1.083-3.757	L31,22.448L33,12c2.32,0.59,1.77,2.91,1.98,4.6C34.99,16.73,35,16.86,35,17C35,19,35,21,35,21z M12.944,26.063	c0,0,1.586-1.063,4.056-1.063l3.43,1.88L23,26l-2.1-2.8c-0.567-0.755-1.456-1.2-2.4-1.2L17,22.448L15,11	c-2.32,0.59-1.893,3.91-2.103,5.6c-0.01,0.13-0.02,0.26-0.02,0.4C12.877,19,12.944,23.063,12.944,26.063z"/><path fill="#efebe9" d="M17,25.958c0,0,1.051,1.042,2.516,1.042s2.095-0.636,2.095-0.636S21.04,26,20.477,25.867	c-0.293-0.067-0.621-0.117-0.961-0.117c-0.246,0-0.514-0.078-0.819-0.036C17.959,25.822,17,25.958,17,25.958z"/><path fill="#ff9800" d="M26.82,31.774C25.34,30.666,25,28.395,25,28.395V26h-2v2.395c0,0-0.34,2.271-1.82,3.379 C20.99,31.937,21,32.198,21,32.198c0,0.282,0.648,0.654,1.341,0.971c1.053,0.482,2.266,0.482,3.319,0 C26.353,32.852,27,32.48,27,32.197C27,32.198,27.01,31.937,26.82,31.774z"/><path fill="#3e2723" d="M26,27c0,0,2-4,7.5-1.5c0,0-3.75-3.75-7.625-0.625L26,27z"/><path fill="#3e2723" d="M22.375,27c0,0-2-4-7.5-1.5c0,0,3.75-3.75,7.625-0.625L22.375,27z"/><path fill="#455a64" d="M35.908,23.616l-2.031,1.876C33.416,23.496,31.633,22,29.5,22c-2.31,0-4.197,1.756-4.449,4H22.95	c-0.252-2.244-2.139-4-4.449-4c-2.136,0-3.922,1.5-4.379,3.499l-2.002-1.822l1.898,2.995C14.11,29.072,16.078,31,18.5,31	c2.31,0,4.197-1.756,4.449-4h2.101c0.252,2.244,2.139,4,4.449,4c2.423,0,4.39-1.928,4.483-4.328L35.908,23.616z M18.5,30	c-1.93,0-3.5-1.57-3.5-3.5s1.57-3.5,3.5-3.5s3.5,1.57,3.5,3.5S20.43,30,18.5,30z M29.5,30c-1.93,0-3.5-1.57-3.5-3.5	s1.57-3.5,3.5-3.5s3.5,1.57,3.5,3.5S31.43,30,29.5,30z"/><path fill="#ffb74d" d="M25,28.006V27h-2v1.006c0,1.054-0.398,2.03-0.873,2.971C22.045,31.139,22,31.315,22,31.5	c0,0.828,0.896,1.5,2,1.5s2-0.672,2-1.5c0-0.185-0.045-0.361-0.127-0.523C25.398,30.036,25,29.059,25,28.006z"/><path fill="#b71c1c" d="M19,36l4-1l0,0c0.552,0.552,1.448,0.552,2,0l0,0l4,1H19z"/><path fill="#b71c1c" d="M24,39L24,39c-2.209,0-4-1.5-5-3l0,0h10l0,0C28,37.5,26.209,39,24,39z"/><path fill="#fff" d="M28.5,36c0,0-1.213,0.907-2.152,1.378c-0.462,0.231-0.994,0.44-1.565,0.547	C24.532,37.973,24.266,38,24,38s-0.532-0.027-0.782-0.076c-0.571-0.107-1.103-0.316-1.565-0.547C20.713,36.907,19.5,36,19.5,36H28.5	z"/><path fill="#3e2723" d="M36,10c0,0-7,0-13-4s-12,8-12,8s5.628-2.85,14,4c11,9,12,1,12,1L36,10z"/><path fill="#3e2723" d="M20.524,26.15c0-0.086-0.013-0.17-0.045-0.247c0.385,0.095,0.769,0.228,1.129,0.461	c0,0-0.793-1.135-2.767-1.135c-1.06,0-2.791,0.771-2.791,0.771s2.735,1.974,5.17,0.63c-0.356,0.196-0.898,0.358-1.561,0.324	C20.148,26.911,20.524,26.572,20.524,26.15z M17.314,26.057c0,0,0.576-0.205,1.376-0.283c-0.046,0.101-0.088,0.269-0.088,0.377	c0,0.329,0.234,0.611,0.564,0.741C18.603,26.784,17.977,26.535,17.314,26.057z"/><path fill="#efebe9" d="M29.266,26.181c-0.305-0.042-0.573,0.036-0.819,0.036c-0.34,0-0.668,0.05-0.961,0.117	c-0.563,0.133-1.134,0.497-1.134,0.497s0.63,0.636,2.095,0.636s2.516-1.042,2.516-1.042S30.004,26.289,29.266,26.181z"/><path fill="#3e2723" d="M29.121,25.696c-1.974,0-2.767,1.135-2.767,1.135c0.489-0.316,1.261-0.509,1.132-0.474	c-0.035,0.08-0.047,0.17-0.047,0.26c0,0.422,0.376,0.761,0.866,0.804c-0.663,0.034-1.206-0.127-1.561-0.324	c2.435,1.344,5.17-0.63,5.17-0.63S30.182,25.696,29.121,25.696z M29.361,26.617c0-0.108-0.042-0.276-0.088-0.377	c0.8,0.079,1.376,0.283,1.376,0.283c-0.663,0.478-1.29,0.727-1.853,0.835C29.126,27.228,29.361,26.946,29.361,26.617z"/><polygon fill="#ff9800" points="18.425,33.84 18,36 18,38 17,36"/><polygon fill="#ff9800" points="29.575,33.84 30,36 30,38 31,36"/></svg>