<svg xmlns="http://www.w3.org/2000/svg"  viewBox="0 0 48 48" width="1600px" height="1600px"><path fill="#ff9800" d="M24 36L17 36 17 44 31 44 31 36z"/><path fill="#ffb74d" d="M24,13l-10,1c0,3.503,0.008,20.151,0.008,20.151c0,0.817,0.339,1.594,0.931,2.132l7.099,4.994 c1.144,0.966,2.782,0.966,3.925,0l7.099-4.994c0.591-0.538,0.931-1.315,0.931-2.132c0,0,0.008-16.648,0.008-20.151L24,13z"/><path fill="#fdd835" d="M12 13H34V17H12z"/><path fill="#ff5252" d="M25,33c-0.75,0-1,1-1,1s-0.042-1-1-1s-3,1-3,1s2.2,2,4,2s4-2,4-2S25.75,33,25,33z"/><path fill="#424242" d="M33,33.5c0-3,1-2.5,1-5.5c0-2-1-3-1-4c0-2,1-3,1-5c0-6.46-2.26-8-10-8s-10,1.54-10,8c0,2,1,3,1,5 c0,1-1,2-1,4c0,3,1,2.5,1,5.5c0,1.29,0.48,2.53,1.33,3.49L17,37.73V44H2c0,0,0-2.2,1.26-4.09c0.38-0.57,0.43-1.3,0.16-1.93 c-0.7-1.6-0.56-3.5,0.63-5.05c0.41-0.54,0.6-1.23,0.34-1.86c-0.67-1.66-0.52-3.66,0.72-5.25c0.41-0.53,0.5-1.22,0.27-1.84 c-0.67-1.78-0.47-3.85,0.99-5.41c0.36-0.38,0.57-0.89,0.55-1.41c-0.04-1.5,0.31-4.67,3.68-6.91c0.26-0.17,0.48-0.39,0.64-0.65 C13.4,6,16.21,3,22,3c3,0,4,2,4,2c11,0,14,10,14,12c0,0.52,0.27,1.19,0.63,1.57c1.47,1.58,2.67,3.68,1.97,5.47 c-0.24,0.61-0.08,1.28,0.31,1.81c1.22,1.59,1.37,3.57,0.69,5.22c-0.25,0.63-0.06,1.33,0.35,1.86c1.19,1.55,1.33,3.45,0.63,5.05 c-0.27,0.63-0.22,1.36,0.16,1.93C46,41.8,46,44,46,44H31v-6.27l0.67-0.74C32.52,36.03,33,34.79,33,33.5z"/><path fill="#1976d2" d="M42.83 41.7c.02.43-.07.93-.3 1.39-.2.38-.49.68-.74.91h-2.56c.07-.19.18-.38.31-.53.35-.43.7-.63.94-.81.47-.36.55-.47.6-.98.13-.02-.31-.63-.76-1.1-.42-.53-1.04-1.08-1.18-2.17-.03-.27.04-.6.13-.82.09-.23.2-.42.32-.58.22-.33.46-.59.68-.84.43-.49.84-1.01.85-1.31.07-.23-.38-.8-.83-1.26-.23-.25-.47-.5-.69-.81-.22-.3-.46-.67-.52-1.17-.04-.52.18-.92.37-1.24.2-.32.43-.59.64-.85.41-.5.86-1.04.87-1.48.01-.43-.5-.95-.95-1.41-.45-.48-1.06-.92-1.22-1.77-.04-.86.48-1.42.84-1.96.37-.54.85-1.09.84-1.69-.07-.61-.65-1.08-1.14-1.5-.48-.44-1.11-.84-1.31-1.5.55 1.27 2.27 1.47 2.69 2.97.06.79-.44 1.36-.77 1.93-.34.55-.74 1.16-.66 1.68.12.5.67.95 1.16 1.39.25.22.51.45.75.73.23.28.49.62.52 1.1.02.47-.17.85-.34 1.17-.19.32-.39.6-.59.87-.38.52-.78 1.13-.7 1.46.06.36.54.85 1.01 1.29.25.24.5.48.75.78.23.29.53.7.53 1.28-.01.54-.22.95-.41 1.28-.2.33-.42.62-.63.89-.2.26-.4.52-.54.75-.15.25-.19.42-.16.48.03.27.43.76.89 1.2.23.24.48.48.73.79.13.16.26.35.38.58.06.12.12.26.16.42C42.82 41.43 42.84 41.62 42.83 41.7zM35.59 37.83c-.18.22-.24.39-.21.45 0 .27.34.8.74 1.29.21.26.43.53.65.87.11.17.22.37.31.61.05.13.09.27.11.43.02.18.01.37-.01.45-.03.42-.17.92-.45 1.35-.2.3-.47.54-.71.72h-2.78c.12-.25.28-.49.48-.68.39-.39.77-.55 1.02-.7.51-.3.6-.41.71-.91.13 0-.24-.65-.63-1.17-.36-.57-.92-1.18-.94-2.28 0-.28.1-.59.22-.8.12-.22.25-.39.38-.54.26-.3.52-.54.77-.76.48-.43.94-.91.99-1.21.1-.21-.29-.83-.68-1.33-.2-.27-.41-.55-.6-.88s-.39-.71-.38-1.22c.01-.53.28-.9.5-1.19.24-.29.49-.54.73-.77.46-.46.97-.94 1.02-1.37.06-.43-.38-1-.78-1.51-.39-.53-.95-1.03-1.02-1.89.06-.86.64-1.35 1.06-1.85.43-.5.96-.99 1.01-1.58 0-.62-.51-1.15-.95-1.62-.44-.49-1.02-.95-1.14-1.63.4 1.32 2.09 1.71 2.34 3.25-.03.78-.59 1.29-.98 1.82-.4.51-.86 1.07-.84 1.6.06.51.56 1.01.99 1.5.23.25.46.51.67.81.2.3.42.67.39 1.15-.03.47-.26.82-.47 1.12-.21.3-.45.55-.67.8-.44.48-.9 1.03-.86 1.37.01.36.44.9.86 1.39.22.26.45.53.66.86.2.31.44.75.38 1.33-.06.53-.32.91-.55 1.22-.24.31-.49.57-.72.81C35.98 37.38 35.75 37.61 35.59 37.83zM7.38 21.22c-.01.6.46 1.15.83 1.69s.89 1.1.85 1.96c-.17.85-.78 1.29-1.22 1.77-.46.46-.96.98-.95 1.41.01.44.46.98.87 1.48.21.26.43.53.63.85.19.32.42.72.37 1.24-.05.5-.29.87-.51 1.17-.23.31-.47.56-.7.81-.44.46-.89 1.03-.82 1.26.01.3.42.82.85 1.31.22.25.45.51.68.84.11.16.22.35.32.58.09.22.16.55.13.82-.15 1.09-.77 1.64-1.19 2.17-.44.47-.88 1.08-.76 1.1.06.51.14.62.61.98.23.18.59.38.94.81.13.15.24.34.31.53H6.06c-.26-.22-.55-.53-.74-.91C5.09 42.63 5 42.13 5.01 41.7c0-.08.01-.27.05-.44.04-.16.09-.3.15-.42.12-.23.25-.42.38-.58.26-.31.51-.55.74-.79.46-.44.85-.93.88-1.2.04-.06-.01-.23-.16-.48-.14-.23-.33-.49-.54-.75-.2-.27-.42-.56-.62-.89-.2-.33-.41-.74-.41-1.28 0-.58.29-.99.53-1.28.24-.3.5-.54.74-.78.47-.44.96-.93 1.02-1.29.08-.33-.33-.94-.71-1.46-.19-.27-.4-.55-.58-.87s-.36-.7-.34-1.17c.03-.48.29-.82.52-1.1.24-.28.5-.51.75-.73.49-.44 1.04-.89 1.15-1.39.09-.52-.31-1.13-.66-1.68-.32-.57-.82-1.14-.77-1.93.43-1.5 2.15-1.7 2.69-2.97-.19.66-.82 1.06-1.31 1.5C8.02 20.14 7.45 20.61 7.38 21.22zM14.6 44h-2.78c-.24-.18-.5-.42-.7-.72-.28-.43-.43-.93-.46-1.35-.02-.08-.02-.27 0-.45.02-.16.06-.3.1-.43.09-.24.21-.44.32-.61.22-.34.44-.61.64-.87.41-.49.75-1.02.75-1.29.02-.06-.04-.23-.21-.45s-.39-.45-.62-.69c-.24-.24-.49-.5-.73-.81-.23-.31-.48-.69-.54-1.22-.07-.58.18-1.02.38-1.33.21-.33.44-.6.65-.86.42-.49.85-1.03.87-1.39.04-.34-.43-.89-.86-1.37-.23-.25-.46-.5-.68-.8-.21-.3-.43-.65-.47-1.12-.02-.48.2-.85.4-1.15s.44-.56.66-.81c.44-.49.94-.99.99-1.5.03-.53-.43-1.09-.84-1.6-.38-.53-.94-1.04-.98-1.82.26-1.54 1.95-1.93 2.35-3.25-.12.68-.71 1.14-1.14 1.63-.44.47-.96 1-.96 1.62.06.59.59 1.08 1.02 1.58.42.5 1 .99 1.05 1.85-.07.86-.63 1.36-1.01 1.89-.4.51-.85 1.08-.79 1.51s.56.91 1.03 1.37c.24.23.49.48.73.77.22.29.49.66.5 1.19 0 .51-.2.89-.38 1.22-.19.33-.4.61-.6.88-.39.5-.78 1.12-.68 1.33.04.3.5.78.99 1.21.24.22.51.46.77.76.13.15.26.32.38.54.11.21.22.52.22.8-.03 1.1-.58 1.71-.94 2.28-.39.52-.76 1.17-.63 1.17.11.5.2.61.71.91.25.15.63.31 1.02.7C14.33 43.51 14.49 43.75 14.6 44z"/><path fill="#424242" d="M15 8H33V13H15z"/><path fill="#fdd835" d="M28.657,13c-1.061,0-2.078-0.421-2.828-1.172L24,10l-1.828,1.828C21.421,12.579,20.404,13,19.343,13 h-0.079l-2.248,4h2.328c1.061,0,2.078,0.421,2.828,1.172L24,20l1.828-1.828c0.75-0.75,1.768-1.172,2.828-1.172h2.359l-2.28-4 H28.657z"/><path fill="#b71c1c" d="M24.016 16.697L25.86 17.667 25.508 15.613 27 14.158 24.938 13.859 24.016 11.99 23.093 13.859 21.031 14.158 22.523 15.613 22.171 17.667z"/><path fill="#efebe9" d="M27 25c0 0 .634-2.97 3.171-2.97 2.225 0 2.829 1.32 2.829 1.32S32.073 25 30.463 25C28.854 25 28.979 25 27 25zM20.999 25c0 0-.634-2.97-3.171-2.97-2.225 0-2.829 1.32-2.829 1.32S15.926 25 17.536 25 19.02 25 20.999 25z"/><g><path fill="#1976d2" d="M31 23.485c0 .822-.67 1.485-1.5 1.485S28 24.307 28 23.485c0-.238.05-.455.16-.654.4-.396.92-.713 1.61-.802h.03C30.49 22.168 31 22.762 31 23.485zM16.999 23.485c0 .822.67 1.485 1.5 1.485s1.5-.663 1.5-1.485c0-.238-.05-.455-.16-.654-.4-.396-.92-.713-1.61-.802h-.03C17.509 22.168 16.999 22.762 16.999 23.485z"/></g><g><path fill="#263238" d="M29.5 22.99A.5.495 0 1 0 29.5 23.98.5.495 0 1 0 29.5 22.99zM18.499 22.99A.5.495 0 1 0 18.499 23.98.5.495 0 1 0 18.499 22.99z"/></g><g><path fill="#424242" d="M27,24.97c0,0,0.634-2.97,3.171-2.97C32.396,22,33,23.32,33,23.32s0-0.33-3-0.33 C28.39,22.99,27,24.97,27,24.97z"/><path fill="#424242" d="M25 23c2.7-1.25 4.025-4 6-4s2.999 3.062 2.999 3.062S33 20.578 31 20.578C29.2 20.578 27.25 23 25 23zM20.999 24.97c0 0-.634-2.97-3.171-2.97-2.225 0-2.829 1.32-2.829 1.32s0-.33 3-.33C19.609 22.99 20.999 24.97 20.999 24.97z"/><path fill="#424242" d="M22.999,23c-2.7-1.25-4.025-4-6-4S14,22.062,14,22.062s0.999-1.484,2.999-1.484 C18.799,20.578,20.75,23,22.999,23z"/></g></svg>