<svg xmlns="http://www.w3.org/2000/svg"  viewBox="0 0 48 48" width="1600px" height="1600px"><path fill="#afb42b" d="M34.829,15.518c2.991-0.001,9.906-5.518,13.171,0C43,16,42,23,38,23L34.829,15.518z"/><path fill="#9e9d24" d="M48,15.518C47.161,13.972,45.772,12,44,12c-4,0-5.159,2-7,2c-0.628,0-0.131,1.058-0.147,2.938 C38,17,42.026,13.934,45,14C46.158,14.026,47.086,14.86,48,15.518z"/><path fill="#afb42b" d="M13.171,15.518C10.18,15.517,3.265,10,0,15.518C5,16,6,23,10,23L13.171,15.518z"/><path fill="#9e9d24" d="M0,15.518C0.839,13.972,2.228,12,4,12c4,0,5.159,2,7,2c0.628,0,0.131,1.058,0.147,2.938 C10,17,5.974,13.934,3,14C1.842,14.026,0.914,14.86,0,15.518z"/><path fill="#d84315" d="M15 31l-3 4c-1 4 12 11 12 11V31H15zM33 31l3 4c1 4-12 11-12 11V31H33z"/><path fill="#665b0e" d="M24,29H14c0,0,0.684,3.051,1,4c1,3,7,6,9,10c2-4,8-7,9-10c0.316-0.949,1-4,1-4H24z"/><path fill="#827717" d="M28,2h-4h-4c-4.125,0-10,8.363-10,11c0,3,0,9,0,9c0,6.083,7,9,7,9c3,1,3,3,7,3s4-2,7-3 c0,0,7-2.917,7-9c0,0,0-6,0-9C38,10.363,32.125,2,28,2z"/><path fill="#827717" d="M28,18h-2h-2h-2h-2c0,0-2,4-2,7l6,1l6-1C30,22,28,18,28,18z"/><path fill="#665b0e" d="M18 13c-.758.575-1.371 1.193-1.978 1.813-.592.635-1.145 1.291-1.686 1.965-.553.665-1.053 1.379-1.611 2.075-.261.359-.533.718-.823 1.072C11.622 20.287 11.344 20.653 11 21c.038-.479.141-.938.242-1.402.142-.445.282-.898.469-1.33.378-.862.847-1.693 1.456-2.43.6-.739 1.298-1.416 2.119-1.93C16.095 13.401 17.023 12.989 18 13zM30 13c.977-.011 1.905.401 2.714.909.821.513 1.519 1.191 2.119 1.93.609.737 1.077 1.568 1.456 2.43.187.432.327.884.469 1.33C36.859 20.062 36.962 20.521 37 21c-.344-.347-.622-.713-.902-1.074-.29-.355-.562-.713-.823-1.072-.557-.696-1.057-1.41-1.611-2.075-.541-.674-1.095-1.33-1.686-1.965C31.371 14.193 30.758 13.575 30 13z"/><path fill="#2d2706" d="M23 18A1 0.5 0 1 0 23 19A1 0.5 0 1 0 23 18Z"/><path fill="#2d2706" d="M25 18A1 0.5 0 1 0 25 19A1 0.5 0 1 0 25 18Z"/><path fill="#665b0e" d="M30.61,26.536c-0.084-0.412-0.179-0.823-0.283-1.238C30,24,28.976,23.646,28.464,23.508 c-0.252-0.054-0.498-0.122-0.843-0.139c-0.318-0.017-0.61,0.017-0.892,0.058C25.637,23.602,24.615,22.999,24,23 c-0.615-0.001-1.637,0.602-2.729,0.427c-0.282-0.041-0.574-0.075-0.892-0.058c-0.345,0.017-0.591,0.084-0.843,0.139 C19.024,23.646,18,24,17.673,25.298c-0.104,0.415-0.2,0.826-0.283,1.238C17.225,27.36,17.098,29.18,17,30 c0.679-2.036,1.523-4.997,3-4.997c1,0,2-0.003,4-0.003s3,0.003,4,0.003c1.477,0,2.321,2.961,3,4.997 C30.902,29.18,30.775,27.36,30.61,26.536z"/><path fill="#423809" d="M26 16c0 0-2-3.001-2-3.001S26.737 12 30 12c3 0 5 2 7 4 0 0-2 1-3 1C31 17 26 16 26 16zM22 16c0 0 2-3.001 2-3.001S21.263 12 18 12c-3 0-5 2-7 4 0 0 2 1 3 1C17 17 22 16 22 16z"/><path fill="#dfdfdf" d="M27,17c0,0,1-2,3.5-2c1.5,0,3.5,2,3.5,2s-1.5,1-3.5,1C26,18,27,17,27,17z"/><path fill="#2d2706" d="M30.5 15A1.5 1.5 0 1 0 30.5 18A1.5 1.5 0 1 0 30.5 15Z"/><path fill="#dfdfdf" d="M21,17c0,0-1.095-2-3.595-2c-1.5,0-3.5,2-3.5,2s1.5,1,3.5,1C21.905,18,21,17,21,17z"/><path fill="#2d2706" d="M17.405 15A1.5 1.5 0 1 0 17.405 18A1.5 1.5 0 1 0 17.405 15Z"/><path fill="#8c8920" d="M30,9.979c-0.905,0-1.833,0.292-2.784,0.889c-0.064-0.039-0.128-0.085-0.193-0.12 c-0.32-0.177-0.648-0.321-0.986-0.43C25.364,10.105,24.673,10.004,24,10c-0.673,0.004-1.364,0.105-2.038,0.318 c-0.337,0.108-0.666,0.253-0.986,0.43c-0.065,0.035-0.128,0.081-0.193,0.12C19.833,10.27,18.905,9.979,18,9.979 c-5,0-6.815,4.973-7,6.021c0.645-0.842,4-3,6-3c3,0,5,2,5,2c-0.049,0.052,0-1,2-1s2.049,1.052,2,1c0,0,2-2,5-2c2,0,5.355,2.158,6,3 C36.815,14.951,35,9.979,30,9.979z"/><path fill="#827717" d="M19.583 8.895c.25.167 1 4 3.417 4.083-1.083-1.833-1-3-1-3L19.583 8.895zM28.583 9.145c-.25.167-1.167 3.75-3.583 3.833 1.083-1.833 1-3 1-3L28.583 9.145z"/><path fill="#8c8920" d="M23 7.979v-4c-3 0-4 1-4 1s0 3 1 4C21 7.979 23 7.979 23 7.979zM25 7.979v-4c3 0 4 1 4 1s0 3-1 4C27 7.979 25 7.979 25 7.979z"/><path fill="#665b0e" d="M33,28c-0.623-1.917-1.46-3.725-2.505-5.345c-1.055-1.611-2.381-2.994-3.961-3.878l-0.413-0.232 L26.094,18c-0.039-0.797-0.235-1.534-0.611-2.085c-0.19-0.275-0.431-0.5-0.701-0.661c-0.261-0.164-0.59-0.258-0.782-0.254 c-0.191-0.001-0.52,0.091-0.781,0.255c-0.271,0.161-0.511,0.386-0.701,0.661c-0.377,0.551-0.569,1.289-0.61,2.085l-0.028,0.547 l-0.413,0.231c-1.579,0.884-2.905,2.267-3.96,3.878C16.463,24.276,15.624,26.084,15,28c0.069-2.022,0.554-4.052,1.44-5.937 c0.878-1.879,2.226-3.656,4.093-4.841L20.092,18c-0.027-1.037,0.157-2.184,0.818-3.173c0.324-0.491,0.756-0.924,1.27-1.248 c0.52-0.32,1.085-0.557,1.82-0.579c0.734,0.024,1.3,0.259,1.819,0.58c0.513,0.323,0.946,0.757,1.27,1.247 c0.661,0.989,0.842,2.136,0.817,3.173l-0.44-0.776c1.866,1.185,3.214,2.963,4.092,4.841C32.443,23.949,32.93,25.978,33,28z"/></svg>