<svg xmlns="http://www.w3.org/2000/svg"  viewBox="0 0 48 48" width="1600px" height="1600px"><path fill="#6d4c41" d="M39,25c0-2,0-0.216,0-2C39,9,34,2,24,2S9,10,9,22c0,1.784,0,1,0,3H39z"/><path fill="#a1887f" d="M39,25L39,25c0-7-4-12-7-12v-3c-3,0-4,2-4,2V8c0,0-3,1-4,3c-1-2-4-3-4-3s0,1,0,3c0,0-1-1-4-1v3 c-3,0-7,5-7,12v0c0,9-2.375,14.125-3,15h5v5l6-3l3,4l4-3l4,3l3-4l6,3v-5h5C41.375,39.125,39,34,39,25z"/><path fill="#8d6e63" d="M23 29c-.127 0-.877 0-1 0-6 0-7 6-7 6s2-3 4-3 3 0 3 0c.552 0 1-.448 1-1V29zM25 29c.127 0 .877 0 1 0 6 0 7 6 7 6s-2-3-4-3-3 0-3 0c-.552 0-1-.448-1-1V29z"/><path fill="#212121" d="M29,36H19c-1.1,0-2-0.9-2-2v0c0-1.1,0.9-2,2-2h10c1.1,0,2,0.9,2,2v0C31,35.1,30.1,36,29,36z"/><path fill="#fff" d="M19 32L20 34 21 32zM27 32L28 34 29 32zM27 36L26 34 25 36zM23 36L22 34 21 36z"/><path fill="#424242" d="M27,28c0,0.82-0.67,1.63-2,1.9c-0.3,0.07-0.63,0.1-1,0.1s-0.7-0.03-1-0.1c-1.33-0.27-2-1.08-2-1.9 c0-0.5,1-3,3-3S27,27.5,27,28z"/><path fill="#212121" d="M23 29.5v.4c-1.33-.27-2-1.08-2-1.9h.5C22.33 28 23 28.67 23 29.5zM27 28c0 .82-.67 1.63-2 1.9v-.4c0-.83.67-1.5 1.5-1.5H27z"/><path fill="#6d4c41" d="M29,18c-1.657,0-3,1.343-3,3s1.343,3,3,3c5,0,6,2,6,2S35,18,29,18z"/><path fill="#212121" d="M29 20A1 1 0 1 0 29 22A1 1 0 1 0 29 20Z"/><path fill="#6d4c41" d="M19,18c1.657,0,3,1.343,3,3s-1.343,3-3,3c-5,0-6,2-6,2S13,18,19,18z"/><path fill="#212121" d="M19 20A1 1 0 1 0 19 22A1 1 0 1 0 19 20Z"/></svg>