<svg xmlns="http://www.w3.org/2000/svg"  viewBox="0 0 48 48" width="1600px" height="1600px"><path fill="#455A64" d="M24,4C13,4,4,13,4,24s9,20,20,20s20-9,20-20S35,4,24,4z M25,6.1c5.9,0.3,11,3.4,14,8.1l-0.9,0.5c-0.6-0.9-1.3-1.8-2.1-2.6l-2.2,2.2c-1.7-1.7-3.8-2.9-6.1-3.5l0.8-3c-1.1-0.3-2.2-0.5-3.4-0.5V6.1z M29.8,22.6c0,0.2,0.1,0.3,0.1,0.5c0,0.1,0,0.1,0,0.2c0,0.2,0,0.5,0,0.7c0,0.2,0,0.5,0,0.7c0,0.1,0,0.1,0,0.2c0,0.2-0.1,0.4-0.1,0.5c0,0,0,0.1,0,0.1l4.8,1.3c-0.5,1.9-1.5,3.6-2.8,4.9l-3.5-3.5c-0.2,0.2-0.3,0.3-0.5,0.5c0,0-0.1,0.1-0.1,0.1c-0.2,0.1-0.3,0.2-0.5,0.3c0,0-0.1,0.1-0.1,0.1c-0.2,0.1-0.4,0.2-0.7,0.3c0,0,0,0,0,0c-0.2,0.1-0.4,0.2-0.7,0.2c0,0,0,0-0.1,0l1.3,4.8C25.9,34.9,25,35,24,35c-1,0-1.9-0.1-2.8-0.4l1.3-4.8c0,0-0.1,0-0.1,0c-0.2-0.1-0.4-0.1-0.6-0.2c0,0,0,0-0.1,0c-0.2-0.1-0.4-0.2-0.6-0.3c-0.1,0-0.1-0.1-0.2-0.1c-0.1-0.1-0.3-0.2-0.4-0.3c-0.1,0-0.1-0.1-0.2-0.1c-0.2-0.1-0.4-0.3-0.5-0.5c0,0,0,0,0,0l-3.5,3.5c-1.3-1.3-2.3-3-2.8-4.9l4.8-1.3c0,0,0-0.1,0-0.1c0-0.2-0.1-0.3-0.1-0.5c0-0.1,0-0.1,0-0.2c0-0.2,0-0.5,0-0.7c0-0.2,0-0.5,0-0.7c0-0.1,0-0.1,0-0.2c0-0.2,0.1-0.3,0.1-0.5c0,0,0-0.1,0-0.1l-4.8-1.3c0.5-1.9,1.5-3.6,2.8-4.9l3.5,3.5c0,0,0,0,0,0c0.2-0.2,0.3-0.3,0.5-0.5c0,0,0.1-0.1,0.2-0.1c0.1-0.1,0.3-0.2,0.5-0.3c0,0,0.1-0.1,0.1-0.1c0.4-0.2,0.9-0.4,1.3-0.6c0,0,0,0,0.1,0l-1.3-4.8C22.1,13.1,23,13,24,13c1,0,1.9,0.1,2.8,0.4l-1.3,4.8c0,0,0.1,0,0.1,0c0.2,0.1,0.4,0.1,0.6,0.2c0,0,0.1,0,0.1,0c0.2,0.1,0.4,0.2,0.6,0.3c0.1,0,0.1,0.1,0.2,0.1c0.1,0.1,0.3,0.2,0.4,0.3c0.1,0,0.1,0.1,0.2,0.1c0.2,0.1,0.3,0.3,0.5,0.4c0,0,0,0,0,0l3.5-3.5c1.3,1.3,2.3,3,2.8,4.9l-4.8,1.3C29.8,22.5,29.8,22.5,29.8,22.6z M23,6.1v1c-1.2,0.1-2.3,0.3-3.4,0.5l0.8,3c-2.3,0.6-4.4,1.8-6.1,3.5L12,12c-0.8,0.8-1.5,1.7-2.2,2.7L9,14.1C12,9.5,17.1,6.4,23,6.1z M8,32.1c-1.2-2.4-2-5.2-2-8.1c0-2.9,0.7-5.7,2-8.1l0.9,0.5c-0.5,1-0.9,2.1-1.2,3.2l3,1c-0.3,1.1-0.4,2.2-0.4,3.4c0,1.2,0.2,2.4,0.5,3.5l-3,0.9c0.3,1.1,0.7,2.2,1.2,3.2L8,32.1z M23,41.9c-5.9-0.3-11-3.4-14-8.1l0.9-0.5c0.6,0.9,1.3,1.8,2.1,2.6l2.2-2.2c1.6,1.6,3.7,2.8,6,3.5l-0.6,3.1c1.1,0.3,2.2,0.5,3.4,0.5V41.9z M25,41.9v-1c1.2-0.1,2.3-0.2,3.4-0.5l-0.8-3c2.3-0.6,4.4-1.8,6.1-3.5L36,36c0.8-0.8,1.5-1.7,2.1-2.6l0.9,0.5C36,38.5,30.9,41.6,25,41.9z M39.1,31.6c0.5-1,0.9-2.1,1.2-3.2l-3-0.8c0.3-1.1,0.5-2.3,0.5-3.6c0-1.2-0.2-2.3-0.4-3.4l3-1c-0.3-1.1-0.7-2.2-1.3-3.3l0.9-0.5c1.3,2.5,2,5.2,2,8.2c0,2.9-0.7,5.7-2,8.1L39.1,31.6z"/></svg>