<svg xmlns="http://www.w3.org/2000/svg"  viewBox="0 0 48 48" width="1600px" height="1600px"><path fill="#ffccbc" d="M15,35c-0.5,0-1-0.2-1.4-0.6c-0.8-0.8-0.8-2,0-2.8l26-26c0.8-0.8,2-0.8,2.8,0c0.8,0.8,0.8,2,0,2.8 l-26,26C16,34.8,15.5,35,15,35z"/><path fill="#ff3d00" d="M14,35c-0.3,0-0.5-0.1-0.7-0.3c-0.4-0.4-0.4-1,0-1.4l27-27c0.4-0.4,1-0.4,1.4,0s0.4,1,0,1.4l-27,27 C14.5,34.9,14.3,35,14,35z"/><path fill="#90a4ae" d="M8.3,38.3l1.4,1.4L6.4,43L5,41.6L8.3,38.3z"/><path fill="#90a4ae" d="M14.5,30.7l2.8,2.8L7.8,43L5,40.2L14.5,30.7z"/><path fill="#37474f" d="M12.1 33.1l2.8 2.8L7.8 43 5 40.2 12.1 33.1zM18 27.2l-3.9 3.9 2.8 2.8 1.1-1.1V27.2z"/><path fill="#37474f" d="M11,32l3,3l-2,2l-3-3L11,32z"/></svg>