<svg xmlns="http://www.w3.org/2000/svg"  viewBox="0 0 48 48" width="1600px" height="1600px"><path fill="#6d4c41" d="M31,37c0,0,0.6,3,4,3c-1.8,1.6-4.3,1.7-5,1S31,37,31,37z"/><path fill="#6d4c41" d="M30 38c0 0-.9 2.7 2 2 8.6-2 13-16 13-16H30V38zM16.8 37c0 0-.6 3-4 3 1.8 1.6 4.3 1.7 5 1S16.8 37 16.8 37z"/><path fill="#6d4c41" d="M17.8,38c0,0,0.9,2.7-2,2c-8.6-2-13-16-13-16h15V38z"/><path fill="#fb8c00" d="M16,33h16v13H16V33z"/><path fill="#bbdefb" d="M16 40l-2 6h7L16 40zM32 40l2 6h-7L32 40z"/><path fill="#ffa726" d="M35.8,24.7c0.2-0.8,0.5-1.5,1-2.1c0.4-0.5,1.1-0.8,1.6-0.5c0.5,0.3,0.6,1,0.6,1.6c0,1,0,2.1,0,3.1 c0,0.6,0,1.2-0.2,1.7c-0.2,0.6-0.5,1.1-0.9,1.6c-0.3,0.4-0.6,0.8-0.9,1.2c-0.3,0.4-0.6,0.7-1,0.6c-0.1,0-0.3-0.1-0.4-0.3 c-0.2-0.2-0.4-0.4-0.7-0.6L35.8,24.7z M12.2,24.7c-0.2-0.8-0.5-1.5-1-2.1c-0.4-0.5-1.1-0.8-1.6-0.5c-0.5,0.3-0.6,1-0.6,1.6 c0,1,0,2.1,0,3.1c0,0.6,0,1.2,0.2,1.7c0.2,0.6,0.5,1.1,0.9,1.6c0.3,0.4,0.6,0.8,0.9,1.2c0.3,0.4,0.6,0.7,1,0.6 c0.1,0,0.3-0.1,0.4-0.3c0.2-0.2,0.4-0.4,0.7-0.6L12.2,24.7z"/><path fill="#fb8c00" d="M38,26c0,2.1-1,3-1,3v-2c-0.6,0-1-0.4-1-1s0.4-1,1-1S38,25.4,38,26z M10,26c0,2.1,1,3,1,3v-2 c0.6,0,1-0.4,1-1s-0.4-1-1-1S10,25.4,10,26z"/><path fill="#ffb74d" d="M22,43c-3.1,0-10-7.8-10-11V15c0,0,0.3-8,12-8s12,8,12,8v17c0,3.1-7.1,11-10,11H22z"/><path fill="#fb8c00" d="M20 34H28V36H20z"/><path fill="#8d6e63" d="M39.9,16.9C39.4,11,36.6,2.1,29,2c-2.1,0-3,1-3,1c-1-0.8-3-1-3-1c-9.2,0-13,7.5-13,18l3,1.3 c0,0,8-3,8-13.3c0,11.1,14,12,14,12v1.3c0,3.7,1.3,6.8,5,6.8c0,0,3.4,0.1,5-4C41.1,24,40,17.5,39.9,16.9"/><path fill="#8d6e63" d="M8.1,16.9C8.6,11,14.4,2.1,22,2c2.1,0-9,17-9,17v2.3C13,25,11.7,28,8,28c0,0-3.4,0.1-5-4 C6.9,24,8,17.5,8.1,16.9"/><path fill="#784719" d="M31 24.5c0 .8-.7 1.5-1.5 1.5S28 25.3 28 24.5s.7-1.5 1.5-1.5S31 23.7 31 24.5M20 24.5c0 .8-.7 1.5-1.5 1.5S17 25.3 17 24.5s.7-1.5 1.5-1.5S20 23.7 20 24.5"/><path fill="#8d6e63" d="M21,9c0,0-1.3,12,8,12c-8.1-2.9-6-11-6-11L21,9z"/></svg>