<svg xmlns="http://www.w3.org/2000/svg"  viewBox="0 0 48 48" width="1600px" height="1600px"><path fill="#546e7a" d="M11.07,19.01L9,24l-0.93-0.47c-0.66-0.33-1.08-0.99-1.11-1.72L6.8,16.74	c-0.01-0.21,0.01-0.42,0.05-0.62c0.14-0.83,0.64-1.57,1.38-2.03L10,13l0.9,5.04L11.07,19.01z"/><path fill="#546e7a" d="M41.2,16.74l-0.16,5.07c-0.03,0.73-0.45,1.39-1.11,1.72L39,24l-2.07-4.99l0.17-0.97L38,13l1.77,1.09	c0.74,0.46,1.24,1.2,1.38,2.03C41.19,16.32,41.21,16.53,41.2,16.74z"/><path fill="#78909c" d="M10,13l0.9,5.04c-1.59-0.55-2.96-1.2-4.05-1.92c0.14-0.83,0.64-1.57,1.38-2.03L10,13z"/><path fill="#78909c" d="M41.15,16.12c-1.09,0.72-2.46,1.37-4.05,1.92L38,13l1.77,1.09C40.51,14.55,41.01,15.29,41.15,16.12z"/><path fill="#616161" d="M24,31c-6.08,0-11,1.86-11,6c0,3,6,9,11,9s11-6,11-9C35,32.86,30.08,31,24,31z"/><path fill="#424242" d="M24,31c-5.527,0-10,1.364-10,4.4c0,2.2,5.455,6.6,10,6.6s10-4.4,10-6.6C34,32.364,29.527,31,24,31z"/><path fill="#78909c" d="M39.56,33.52c-0.03,0.65-0.37,1.24-0.93,1.59c-2.09,1.29-6.61,3.32-10.62,4.31	c-0.97,0.24-1.92,0.42-2.78,0.5C24.8,39.98,24.39,40,24,40s-0.8-0.02-1.23-0.08c-0.86-0.08-1.81-0.26-2.78-0.5	c-4.01-0.99-8.53-3.02-10.62-4.31c-0.39-0.25-0.68-0.61-0.82-1.03c-0.06-0.18-0.1-0.37-0.11-0.56c-0.15-3.03-0.04-7.54,0.32-12.38	c0.16-2.19,0.38-4.44,0.65-6.66c0-0.03,0.01-0.05,0.01-0.08c0.77-6.39,6.13-11.21,12.52-11.39C22.06,3,22.19,3,22.32,3h3.36	c0.13,0,0.26,0,0.38,0.01c6.39,0.18,11.75,5,12.52,11.39c0,0.03,0.01,0.05,0.01,0.08c0.27,2.22,0.49,4.47,0.65,6.66	C39.6,25.98,39.71,30.49,39.56,33.52z"/><path fill="#90a4ae" d="M19.99,39.42c-4.01-0.99-8.53-3.02-10.62-4.31c-0.39-0.25-0.68-0.61-0.82-1.03	C8.81,31.31,10.2,28.35,12,27C19,25.5,22.25,38,19.99,39.42z"/><path fill="#90a4ae" d="M28.01,39.42c4.01-0.99,8.53-3.02,10.62-4.31c0.39-0.25,0.68-0.61,0.82-1.03	C39.19,31.31,37.8,28.35,36,27C29,25.5,25.75,38,28.01,39.42z"/><path fill="#90a4ae" d="M26.06,3.01C25.94,3,25.81,3,25.68,3H24h-1.68c-0.13,0-0.26,0-0.38,0.01L21,19h3h3L26.06,3.01z"/><path fill="#546e7a" d="M8.76,21.14C10,22,12,24,12,27c3,0,7.99,6,7.99,12.42C21.25,34.75,21.5,21.14,8.76,21.14z"/><path fill="#b0bec5" d="M25,3v12c0,0.55-0.45,1-1,1s-1-0.45-1-1V3H25z"/><path fill="#546e7a" d="M39.24,21.14C38,22,36,24,36,27c-3,0-7.99,6-7.99,12.42C26.75,34.75,26.5,21.14,39.24,21.14z"/><path fill="#b0bec5" d="M38.59,14.48C34.06,17.06,26.91,18,24,18s-10.06-0.94-14.59-3.52c-0.27,2.22-0.49,4.47-0.65,6.66	c6.48,1.35,11.07,8.01,11.23,18.28c0.97,0.24,1.92,0.42,2.78,0.5C23.2,39.98,23.61,40,24,40s0.8-0.02,1.23-0.08	c0.86-0.08,1.81-0.26,2.78-0.5c0.16-10.27,4.75-16.93,11.23-18.28C39.08,18.95,38.86,16.7,38.59,14.48z"/><path fill="#263238" d="M10.5,17l0.57,2.01c0.27,0.93,0.98,1.68,1.9,2L13,21.02l2,0.7l1,0.35l2.43,0.85	c0.2,0.07,0.39,0.15,0.57,0.24c1.55,0.78,2.62,2.32,2.76,4.09l0.99,12.5l0.02,0.17C23.2,39.98,23.61,40,24,40s0.8-0.02,1.23-0.08	l0.02-0.17l0.99-12.5c0.16-1.98,1.47-3.67,3.33-4.33l5.46-1.91c0.92-0.32,1.63-1.07,1.9-2L37.5,17C31,20,26,20,24,20	c-0.99,0-2.72,0-5-0.37c-0.92-0.14-1.92-0.35-3-0.64c-0.33-0.08-0.66-0.17-1-0.28c-0.64-0.19-1.31-0.41-2-0.67	C12.2,17.74,11.36,17.4,10.5,17z"/><path fill="#37474f" d="M16,18.99v3.08l2.43,0.85c0.2,0.07,0.39,0.15,0.57,0.24v-3.53C18.08,19.49,17.08,19.28,16,18.99z"/><path fill="#37474f" d="M13,18.04v2.98l2,0.7v-3.01C14.36,18.52,13.69,18.3,13,18.04z"/></svg>