<svg xmlns="http://www.w3.org/2000/svg"  viewBox="0 0 48 48" width="1600px" height="1600px"><path fill="#f9a825" d="M6,10c0-2.209,1.791-4,4-4h28c2.209,0,4,1.791,4,4v28c0,2.209-1.791,4-4,4H10c-2.209,0-4-1.791-4-4 V10z"/><path fill="#1c1302" d="M9 9H39V39H9z"/><path fill="#f9a825" d="M13 31L13 17.25 20.625 17.25 20.625 19.25 15.5 19.25 15.5 23.25 20.125 23.25 20.125 25.25 15.5 25.25 15.5 31zM22.625 21.542c0 0 1.547-1.064 3.853-1.064 1.621 0 2.335.828 2.335.828s.871-.828 2.856-.828S35 22.053 35 23.826C35 25.599 35 31 35 31h-2.142c0 0 0-4.902 0-6.815 0-.551-.119-1.674-1.666-1.674-1.19 0-1.563.332-1.563.332s.254.386.254 3.016c0 2.364 0 5.141 0 5.141h-2.142c0 0 0-6.223 0-6.696s-.119-1.793-1.666-1.793c-.952 0-1.309.239-1.309.239V31h-2.142V21.542z"/></svg>