<svg xmlns="http://www.w3.org/2000/svg"  viewBox="0 0 48 48" width="1600px" height="1600px"><path fill="#b388ff" d="M6,10c0-2.209,1.791-4,4-4h28c2.209,0,4,1.791,4,4v28c0,2.209-1.791,4-4,4H10c-2.209,0-4-1.791-4-4 V10z"/><path fill="#170b40" d="M9,9v30h30V9H9z"/><path fill="#b388ff" d="M21.183 27.965h-4.555l-.866 2.846H13L17.694 17h2.407l4.719 13.81h-2.762L21.183 27.965zM17.33 25.66h3.152l-1.584-5.17L17.33 25.66zM30.146 31c-.728 0-1.379-.13-1.953-.389-.575-.259-1.062-.614-1.464-1.063-.402-.449-.707-.975-.918-1.579-.21-.604-.316-1.25-.316-1.94v-.37c0-.778.103-1.491.308-2.139.204-.648.496-1.206.875-1.674.377-.468.837-.833 1.376-1.096.54-.262 1.145-.394 1.814-.394.675 0 1.27.122 1.784.365.514.243.945.585 1.295 1.025.349.439.612.969.788 1.589S34 24.645 34 25.404v1.167h-5.966c.04.335.123.639.247.91.124.272.283.504.476.697s.42.343.679.451c.26.108.552.161.875.161.456 0 .878-.093 1.264-.28.387-.186.719-.476.996-.868l1.23 1.508c-.15.234-.338.462-.563.683-.225.221-.491.419-.797.593-.306.174-.65.313-1.035.417C31.022 30.948 30.603 31 30.146 31zM29.861 22.577c-.272 0-.509.052-.715.157-.205.104-.381.25-.528.436-.147.186-.267.409-.359.669-.092.259-.158.547-.198.863h3.481v-.218c-.006-.272-.042-.525-.109-.759-.066-.234-.167-.436-.303-.607-.136-.171-.309-.303-.519-.398C30.398 22.625 30.149 22.577 29.861 22.577z"/></svg>