<svg xmlns="http://www.w3.org/2000/svg"  viewBox="0 0 48 48" width="1600px" height="1600px"><path fill="#80cbc4" d="M6,10c0-2.209,1.791-4,4-4h28c2.209,0,4,1.791,4,4v28c0,2.209-1.791,4-4,4H10c-2.209,0-4-1.791-4-4 V10z"/><path fill="#004d40" d="M9,9v30h30V9H9z"/><path fill="#80cbc4" d="M20.904,27.984h-4.012l-0.78,2.827H13L17.552,17h2.691l4.582,13.81h-3.141L20.904,27.984z M17.532,25.66h2.721l-1.361-4.923L17.532,25.66z"/><path fill="#80cbc4" d="M31.304,29.871C30.727,30.623,29.952,31,28.982,31c-0.978,0-1.719-0.324-2.224-0.972 C26.252,29.38,26,28.436,26,27.196V20h2.785v7.263c0.013,0.999,0.358,1.499,1.033,1.499c0.636,0,1.096-0.266,1.378-0.797V20H34 v10.81h-2.617L31.304,29.871z"/></svg>