<svg xmlns="http://www.w3.org/2000/svg"  viewBox="0 0 48 48" width="1600px" height="1600px"><path fill="#ff41c8" d="M6,10c0-2.209,1.791-4,4-4h28c2.209,0,4,1.791,4,4v28c0,2.209-1.791,4-4,4H10c-2.209,0-4-1.791-4-4 V10z"/><path fill="#16020b" d="M9,9v30h30V9H9z M19.093,21.695l1.914-4.883h3.291l-3.34,7.051l3.418,7.168h-3.33l-1.953-4.971 l-1.943,4.971h-3.33l3.418-7.168l-3.35-7.051h3.291L19.093,21.695z M25.069,25.426c0-1.732,0.293-3.024,0.879-3.877 s1.438-1.279,2.559-1.279c0.813,0,1.491,0.352,2.031,1.055v-5.293h2.783v15h-2.51l-0.127-1.074c-0.566,0.847-1.296,1.27-2.188,1.27 c-1.106,0-1.951-0.423-2.534-1.27s-0.881-2.09-0.894-3.73V25.426z M27.843,26.119c0,1.042,0.11,1.77,0.332,2.183 s0.596,0.62,1.123,0.62c0.547,0,0.96-0.244,1.24-0.732v-4.824c-0.273-0.521-0.684-0.781-1.23-0.781 c-0.508,0-0.879,0.205-1.113,0.615s-0.352,1.14-0.352,2.188V26.119z"/></svg>