<svg xmlns="http://www.w3.org/2000/svg"  viewBox="0 0 48 48" width="1600px" height="1600px"><path fill="#E91E63" d="M5,10c0-2.209,1.791-4,4-4h28c2.209,0,4,1.791,4,4v28c0,2.209-1.791,4-4,4H9c-2.209,0-4-1.791-4-4V10z"/><path fill="#16020B" d="M26.283,22.553c-0.508,0-0.879,0.205-1.113,0.615s-0.352,1.14-0.352,2.188v0.732c0,1.042,0.111,1.77,0.332,2.183c0.221,0.413,0.596,0.62,1.123,0.62c0.547,0,0.961-0.244,1.24-0.732v-4.824C27.24,22.813,26.83,22.553,26.283,22.553z"/><path fill="#16020B" d="M8,9v30h30V9H8z M20.141,31H17.27V16.781h2.871V31z M30.297,31h-2.51l-0.127-1.074c-0.566,0.847-1.295,1.27-2.188,1.27c-1.107,0-1.952-0.423-2.534-1.27s-0.88-2.09-0.894-3.73v-0.801c0-1.731,0.293-3.024,0.879-3.877s1.439-1.279,2.559-1.279c0.814,0,1.49,0.352,2.031,1.055V16h2.783V31z"/></svg>