<svg xmlns="http://www.w3.org/2000/svg"  viewBox="0 0 48 48" width="1600px" height="1600px"><path fill="#ff3d00" d="M6,10c0-2.209,1.791-4,4-4h28c2.209,0,4,1.791,4,4v28c0,2.209-1.791,4-4,4H10c-2.209,0-4-1.791-4-4 V10z"/><path fill="#330808" d="M9,9v30h30V9H9z"/><path fill="#ff3d00" d="M21.049,28.135h-4.086L16.169,31H13l4.636-14h2.741l4.667,14h-3.199L21.049,28.135z M17.616,25.779 h2.771l-1.386-4.99L17.616,25.779z"/><path fill="#ff3d00" d="M28.621,20.196l0.079,1.029c0.631-0.814,1.454-1.221,2.473-1.221c1.833,0,2.774,1.253,2.828,3.76V31 h-2.798v-7.035c0-0.59-0.091-1.018-0.271-1.284s-0.498-0.399-0.951-0.399c-0.506,0-0.9,0.253-1.182,0.76V31H26V20.196H28.621z"/></svg>