<svg xmlns="http://www.w3.org/2000/svg"  viewBox="0 0 48 48" width="1600px" height="1600px"><path fill="#c62828" d="M38,42H10c-2.209,0-4-1.791-4-4V10c0-2.209,1.791-4,4-4h28c2.209,0,4,1.791,4,4v28 C42,40.209,40.209,42,38,42z"/><path fill="#fff" d="M37,23.076v0.848c-0.008,0.046-0.018,0.091-0.024,0.137c-0.044,0.369-0.073,0.74-0.134,1.106 c-0.2,1.19-0.632,2.296-1.274,3.319c-0.975,1.553-2.293,2.737-3.949,3.546c-0.956,0.469-1.987,0.77-3.046,0.891 c-0.235,0.027-0.471,0.051-0.706,0.077h-9.134c-0.046-0.008-0.092-0.022-0.138-0.025c-0.921-0.057-1.807-0.265-2.652-0.632 c-1.839-0.797-3.21-2.089-4.107-3.868c-0.397-0.784-0.653-1.631-0.759-2.502c-0.026-0.212-0.051-0.423-0.077-0.635v-0.823 c0.009-0.046,0.022-0.091,0.025-0.137c0.048-0.791,0.211-1.558,0.5-2.296c0.776-1.985,2.128-3.458,4.05-4.411 c0.997-0.495,2.06-0.755,3.171-0.812c0.544-0.028,1.088,0.002,1.629,0.074c0.049,0.007,0.12-0.015,0.154-0.05 c0.778-0.787,1.664-1.427,2.662-1.911c0.969-0.47,1.988-0.773,3.061-0.894c0.253-0.029,0.506-0.052,0.759-0.078h0.779 c0.051,0.008,0.102,0.017,0.153,0.023c0.386,0.045,0.774,0.073,1.156,0.136c1.192,0.198,2.302,0.622,3.329,1.252 c1.575,0.966,2.775,2.274,3.595,3.92c0.474,0.948,0.779,1.97,0.9,3.021C36.95,22.593,36.974,22.835,37,23.076 M22.462,17.589 c0.016,0.02,0.019,0.03,0.026,0.033c0.535,0.261,1.046,0.567,1.528,0.915c0.03,0.022,0.106,0.013,0.143-0.01 c1.324-0.831,2.76-1.118,4.302-0.847c1.511,0.265,2.741,1.013,3.68,2.208c1.064,1.352,1.469,2.881,1.176,4.582 c-0.197,1.14-0.658,2.163-1.441,3.02c-1.429,1.562-3.22,2.208-5.327,1.935c-1.297-0.168-2.417-0.723-3.344-1.651 c-1.19-1.191-2.387-2.373-3.58-3.561c-0.159-0.158-0.336-0.285-0.565-0.313c-0.4-0.049-0.763,0.149-0.936,0.505 c-0.154,0.318-0.134,0.676,0.2,1.002c1.33,1.294,2.648,2.599,3.977,3.894c0.227,0.223,0.471,0.428,0.729,0.615 c0.97,0.698,2.065,1.084,3.249,1.24c0.93,0.122,1.853,0.096,2.768-0.108c1.747-0.389,3.193-1.272,4.333-2.635 c0.941-1.126,1.51-2.42,1.708-3.873c0.115-0.829,0.091-1.67-0.071-2.491c-0.264-1.342-0.837-2.543-1.756-3.565 c-1.752-1.949-3.956-2.819-6.579-2.625c-1.009,0.075-1.963,0.368-2.861,0.834C23.338,16.941,22.882,17.242,22.462,17.589 M21.821,31.195c-0.036-0.033-0.072-0.066-0.108-0.1c-0.544-0.509-1.091-1.014-1.628-1.529c-0.104-0.1-0.2-0.148-0.347-0.145 c-0.544,0.013-1.089,0.015-1.625-0.105c-2.666-0.597-4.215-3.47-3.232-5.997c0.775-1.993,2.921-3.206,5.037-2.832 c0.948,0.168,1.781,0.565,2.464,1.264c0.833,0.852,1.691,1.68,2.534,2.524c0.192,0.192,0.412,0.28,0.677,0.242 c0.343-0.049,0.617-0.211,0.741-0.544c0.122-0.328,0.063-0.639-0.188-0.891c-0.884-0.887-1.747-1.797-2.667-2.646 c-1.784-1.648-3.887-2.139-6.214-1.438c-3.129,0.942-4.961,4.144-4.246,7.303c0.652,2.878,3.192,4.899,6.165,4.901 c0.83,0.001,1.66,0,2.49,0C21.716,31.202,21.757,31.199,21.821,31.195"/></svg>