<svg xmlns="http://www.w3.org/2000/svg"  viewBox="0 0 48 48" width="1600px" height="1600px"><path fill="#b388ff" d="M6,10c0-2.209,1.791-4,4-4h28c2.209,0,4,1.791,4,4v28c0,2.209-1.791,4-4,4H10c-2.209,0-4-1.791-4-4	V10z"/><path fill="#170b40" d="M9,9v30h30V9H9z"/><path fill="#b388ff" d="M16.248,16.839l2.653,10.365h0.061l2.684-10.365h3.772v14.117h-2.877v-4.102l0.244-5.488 l-0.061-0.009l-2.826,9.599h-1.921l-2.795-9.521l-0.061,0.01l0.254,5.41v4.102h-2.877V16.839H16.248z"/><path fill="#b388ff" d="M31.701,31.161c-1.383,0-2.48-0.434-3.294-1.3s-1.22-1.959-1.22-3.277V25.11 c0-1.416,0.377-2.576,1.133-3.48c0.756-0.905,1.801-1.358,3.136-1.358c1.288,0,2.284,0.411,2.989,1.231 c0.705,0.821,1.058,1.939,1.058,3.355v1.687h-5.439v0.039c0,0.691,0.164,1.261,0.493,1.707c0.329,0.445,0.825,0.669,1.49,0.669 c0.542,0,0.982-0.059,1.321-0.175s0.742-0.311,1.21-0.582l0.732,1.755c-0.38,0.35-0.886,0.637-1.52,0.863 S32.46,31.161,31.701,31.161z M31.457,22.472c-0.461,0-0.8,0.202-1.017,0.604s-0.339,0.944-0.366,1.626h2.592v-0.39 c0-0.584-0.095-1.037-0.285-1.358C32.192,22.633,31.884,22.472,31.457,22.472z"/></svg>