<svg xmlns="http://www.w3.org/2000/svg"  viewBox="0 0 48 48" width="1600px" height="1600px"><path fill="#80cbc4" d="M38,42H10c-2.209,0-4-1.791-4-4V10c0-2.209,1.791-4,4-4h28c2.209,0,4,1.791,4,4v28	C42,40.209,40.209,42,38,42z"/><path fill="#fff" d="M34.505,24.799c-1.718-1.757-6.41-1.041-7.533-0.911c-1.652-1.562-2.776-3.45-3.171-4.101	c0.595-1.757,0.991-3.515,1.057-5.402c0-1.627-0.661-3.385-2.511-3.385c-0.661,0-1.256,0.391-1.586,0.911	c-0.793,1.367-0.463,4.101,0.793,6.899c-0.727,2.018-1.388,3.97-3.237,7.42c-1.917,0.781-5.947,2.604-6.277,4.556	c-0.132,0.586,0.066,1.172,0.529,1.627C13.031,32.805,13.625,33,14.22,33c2.445,0,4.823-3.32,6.476-6.118	c1.388-0.456,3.568-1.107,5.749-1.497c2.577,2.213,4.823,2.538,6.013,2.538c1.586,0,2.181-0.651,2.379-1.237	C35.166,26.036,34.968,25.32,34.505,24.799z M32.854,25.905c-0.066,0.456-0.661,0.911-1.718,0.651	c-1.256-0.325-2.379-0.911-3.37-1.692c0.859-0.13,2.776-0.325,4.163-0.065C32.458,24.929,32.986,25.254,32.854,25.905z M21.818,12.497c0.132-0.195,0.33-0.325,0.529-0.325c0.595,0,0.727,0.716,0.727,1.302c-0.066,1.367-0.33,2.734-0.793,4.036	C21.291,14.905,21.488,13.083,21.818,12.497z M21.686,25.124c0.529-1.041,1.256-2.864,1.52-3.645	c0.595,0.976,1.586,2.148,2.115,2.669C25.321,24.213,23.272,24.604,21.686,25.124z M17.788,27.728	c-1.52,2.473-3.105,4.036-3.964,4.036c-0.132,0-0.264-0.065-0.397-0.13c-0.198-0.13-0.264-0.325-0.198-0.586	C13.427,30.136,15.145,28.899,17.788,27.728z"/><path fill="#fff" d="M22.651,36.38c0-0.239-0.06-0.42-0.179-0.542c-0.12-0.122-0.336-0.249-0.651-0.381 c-0.575-0.223-0.988-0.485-1.24-0.784s-0.378-0.654-0.378-1.062c0-0.495,0.171-0.892,0.514-1.191s0.777-0.449,1.305-0.449 c0.352,0,0.665,0.076,0.941,0.228s0.488,0.366,0.636,0.643s0.222,0.591,0.222,0.943h-1.153c0-0.274-0.057-0.483-0.171-0.627 c-0.114-0.144-0.279-0.216-0.494-0.216c-0.202,0-0.36,0.061-0.472,0.183c-0.113,0.122-0.169,0.287-0.169,0.494 c0,0.161,0.063,0.307,0.189,0.437c0.126,0.13,0.349,0.265,0.669,0.405c0.559,0.207,0.965,0.46,1.218,0.762 c0.253,0.301,0.38,0.684,0.38,1.149c0,0.511-0.159,0.91-0.476,1.197S22.591,38,22.045,38c-0.37,0-0.707-0.078-1.011-0.234 s-0.543-0.379-0.714-0.669s-0.258-0.633-0.258-1.028h1.161c0,0.339,0.064,0.584,0.193,0.738c0.128,0.153,0.338,0.23,0.63,0.23 C22.449,37.037,22.651,36.818,22.651,36.38z"/><path fill="#fff" d="M28.468,35.965c-0.029,0.669-0.213,1.176-0.551,1.519C27.579,37.828,27.101,38,26.484,38 c-0.648,0-1.145-0.219-1.49-0.655c-0.345-0.436-0.518-1.059-0.518-1.868V34.49c0-0.806,0.179-1.428,0.535-1.864 c0.357-0.436,0.853-0.655,1.488-0.655c0.624,0,1.099,0.178,1.423,0.536c0.324,0.358,0.508,0.871,0.553,1.54h-1.161 c-0.01-0.414-0.073-0.699-0.187-0.856c-0.114-0.157-0.323-0.236-0.628-0.236c-0.309,0-0.529,0.111-0.657,0.333 c-0.128,0.222-0.197,0.586-0.205,1.094v1.108c0,0.583,0.063,0.983,0.191,1.201s0.346,0.326,0.655,0.326 c0.305,0,0.514-0.076,0.63-0.228c0.116-0.152,0.181-0.426,0.197-0.824H28.468z"/><path fill="#fff" d="M31.916,36.718h-1.578l-0.307,1.201h-1.224l1.791-5.868h1.059l1.803,5.868h-1.236L31.916,36.718z M30.589,35.731h1.07l-0.535-2.092L30.589,35.731z"/><path fill="#fff" d="M38,37.919h-1.157l-1.692-3.849v3.849h-1.157v-5.868h1.157l1.696,3.853v-3.853H38V37.919z"/></svg>