<svg xmlns="http://www.w3.org/2000/svg"  viewBox="0 0 48 48" width="1600px" height="1600px"><path fill="#FF9800" d="M6,10c0-2.209,1.791-4,4-4h28c2.209,0,4,1.791,4,4v28c0,2.209-1.791,4-4,4H10c-2.209,0-4-1.791-4-4V10z"/><path fill="#1E1202" d="M22.197 20.98c0-.645-.13-1.106-.391-1.387s-.684-.42-1.27-.42h-1.523v3.555h1.494C21.634 22.729 22.197 22.146 22.197 20.98zM21.035 24.818h-2.021v3.799h1.836c.514 0 .905-.159 1.172-.479s.4-.771.4-1.357C22.422 25.505 21.959 24.851 21.035 24.818z"/><path fill="#1E1202" d="M9,9v30h30V9H9z M24.146,29.945C23.387,30.648,22.289,31,20.85,31h-4.707V16.781h4.395c1.484,0,2.612,0.33,3.384,0.991s1.157,1.629,1.157,2.905c0,0.723-0.16,1.345-0.479,1.865s-0.755,0.901-1.309,1.143c0.638,0.183,1.129,0.549,1.475,1.099c0.346,0.55,0.518,1.229,0.518,2.036C25.283,28.2,24.904,29.242,24.146,29.945z M32.441,23.1l-0.918-0.078c-0.756,0-1.266,0.332-1.533,0.996V31h-2.773V20.434h2.607l0.078,1.143c0.436-0.892,1.039-1.338,1.807-1.338c0.313,0,0.566,0.042,0.762,0.127L32.441,23.1z"/></svg>