<svg xmlns="http://www.w3.org/2000/svg"  viewBox="0 0 48 48" width="1600px" height="1600px" baseProfile="basic"><path fill="#1d3002" d="M6,10c0-2.209,1.791-4,4-4h28c2.209,0,4,1.791,4,4v28c0,2.209-1.791,4-4,4H10c-2.209,0-4-1.791-4-4	V10z"/><path fill="#94e03e" d="M21.043,27.383c0-0.589-0.153-1.055-0.458-1.397s-0.841-0.681-1.609-1.013 c-1.572-0.547-2.752-1.169-3.537-1.864c-0.786-0.696-1.18-1.671-1.18-2.925c0-1.239,0.457-2.249,1.371-3.028 c0.915-0.779,2.081-1.168,3.501-1.168c1.44,0,2.611,0.435,3.512,1.304c0.899,0.869,1.336,1.965,1.309,3.287l-0.021,0.062h-2.867 c0-0.692-0.174-1.253-0.52-1.683c-0.347-0.43-0.835-0.645-1.465-0.645c-0.589,0-1.048,0.179-1.376,0.535 c-0.329,0.356-0.494,0.806-0.494,1.346c0,0.498,0.184,0.908,0.551,1.23s1.004,0.681,1.911,1.075c1.434,0.485,2.513,1.1,3.236,1.844 c0.724,0.745,1.086,1.751,1.086,3.019c0,1.309-0.437,2.333-1.31,3.074c-0.872,0.741-2.032,1.111-3.479,1.111 c-1.44,0-2.689-0.42-3.745-1.262c-1.057-0.842-1.567-2.048-1.532-3.62l0.021-0.062h2.878c0,0.935,0.197,1.606,0.592,2.016 c0.395,0.408,0.99,0.612,1.787,0.612c0.623,0,1.085-0.166,1.387-0.498C20.892,28.401,21.043,27.951,21.043,27.383z"/><path fill="#94e03e" d="M31.13,31.331c-0.084-0.187-0.158-0.392-0.224-0.613c-0.066-0.221-0.116-0.446-0.15-0.675 c-0.277,0.457-0.615,0.822-1.014,1.096c-0.397,0.273-0.86,0.41-1.387,0.41c-0.928,0-1.671-0.305-2.228-0.914 c-0.558-0.609-0.837-1.423-0.837-2.44c0-1.102,0.355-1.957,1.065-2.566c0.709-0.609,1.764-0.914,3.163-0.914h1.111v-0.914 c0-0.547-0.099-0.968-0.296-1.263c-0.197-0.294-0.493-0.441-0.889-0.441c-0.332,0-0.581,0.118-0.748,0.354 c-0.166,0.235-0.249,0.578-0.249,1.028l-2.856-0.011l-0.031-0.062c-0.035-0.977,0.327-1.808,1.086-2.493 c0.758-0.686,1.757-1.028,2.996-1.028c1.171,0,2.121,0.341,2.852,1.022c0.73,0.683,1.097,1.654,1.097,2.914v4.55 c0,0.555,0.038,1.07,0.114,1.548c0.076,0.479,0.193,0.949,0.353,1.413H31.13z M29.208,29.326c0.297,0,0.572-0.079,0.825-0.239 c0.253-0.159,0.452-0.363,0.598-0.612v-2.067H29.52c-0.45,0-0.776,0.155-0.977,0.468c-0.201,0.312-0.302,0.706-0.302,1.184 c0,0.374,0.087,0.679,0.26,0.914S28.91,29.326,29.208,29.326z"/></svg>