<svg xmlns="http://www.w3.org/2000/svg"  viewBox="0 0 48 48" width="1600px" height="1600px"><path fill="#e040fb" d="M6,10c0-2.209,1.791-4,4-4h28c2.209,0,4,1.791,4,4v28c0,2.209-1.791,4-4,4H10c-2.209,0-4-1.791-4-4 V10z"/><path fill="#020f16" d="M9,9v30h30V9H9z M21.016,19.174h-2.002v4.434h1.973c0.547,0,0.97-0.179,1.27-0.537 s0.449-0.879,0.449-1.563c0-0.71-0.153-1.274-0.459-1.694S21.53,19.181,21.016,19.174z M24.365,24.789 C23.539,25.597,22.393,26,20.928,26h-1.914v5H16V16.781h4.987c1.406,0,2.528,0.437,3.364,1.309s1.255,2.005,1.255,3.398 S25.192,23.981,24.365,24.789z M33.2,23.1L32.3,23c-0.8,0-1.3,0.3-1.5,1v7H28V20.4h2.6l0.1,1.1c0.4-0.9,1-1.3,1.8-1.3 c0.3,0,0.6,0,0.8,0.1L33.2,23.1z"/></svg>