<svg xmlns="http://www.w3.org/2000/svg"  viewBox="0 0 48 48" width="1600px" height="1600px"><path fill="#64DD17" d="M6,10c0-2.209,1.791-4,4-4h28c2.209,0,4,1.791,4,4v28c0,2.209-1.791,4-4,4H10c-2.209,0-4-1.791-4-4V10z"/><path fill="#0C1902" d="M17.059,19.174h-1.045v9.443h0.859c0.957,0,1.631-0.252,2.021-0.757s0.596-1.375,0.615-2.612v-2.471c0-1.328-0.186-2.254-0.557-2.778S17.951,19.2,17.059,19.174z"/><path fill="#0C1902" d="M9,9v30h30V9H9z M22.381,25.004c0,1.868-0.493,3.335-1.479,4.399S18.556,31,16.824,31h-3.682V16.781h3.76c1.66,0,2.983,0.527,3.97,1.582s1.489,2.5,1.509,4.336V25.004z M33.406,31h-2.295l-1.494-6.113L28.123,31h-2.305l-2.188-10.566h2.656l0.938,5.938l1.406-5.938h1.963L32,26.361l0.947-5.928h2.646L33.406,31z"/></svg>