<svg xmlns="http://www.w3.org/2000/svg"  viewBox="0 0 30 48" width="1600px" height="1600px"><g data-name="Слой 2"><path fill="#424242" d="M27.76,10.3l-.752-.66A4,4,0,1,0,20,7H19a5,5,0,1,1,8.76,3.3Z"/><path fill="#fdd835" d="M30,14C30,6,21,2.842,16,3c-8.675.275-9.575,7.745-10.767,10.5C4.87,14.342,3,14.45,3,16.4a2.756,2.756,0,0,0,1.163,2.032C3.353,24.189,3.9,30.233,5.57,34,7.783,38.978,9,42.146,9,45v3H27s-2.5-5-2.5-14S30,21,30,14Z"/><circle cx="6" cy="22" r="5" fill="#eee"/><circle cx="5" cy="23" r="1" fill="#212121"/><path fill="#a1887f" d="M8,29c-2,0-7,1-7,8a1.766,1.766,0,0,0-1,1.465C0,39.465,1,41,5,41c0,0-.45,2.09,2.55,3.09A5.718,5.718,0,0,0,12,46a7.887,7.887,0,0,0,8-8C20,33.53,14.5,29,8,29Z"/><circle cx="25" cy="32" r="3" fill="#fdd835"/><path fill="#8d6e63" d="M14.412,39.871A34.33,34.33,0,0,1,5,41a2.368,2.368,0,0,0,.685,1.986C8.645,42.939,12.507,42.662,15,41Z"/><path fill="#8d6e63" d="M14.486,40.34C14.116,39.314,14,39,14,39s1.74-.028,1.949,1.129A1.683,1.683,0,0,1,15,42S14.775,41.142,14.486,40.34Z"/><path fill="#424242" d="M16,3c.174,0,.363.013.545.02A3.987,3.987,0,0,1,24,5v.016c.322.168.641.343.951.535A4.841,4.841,0,0,0,25,5a5,5,0,0,0-9.6-1.966C15.6,3.022,15.8,3,16,3Z"/><path fill="#424242" d="M20.2.021v1a3.988,3.988,0,0,1,2.805,6.616l.752.66A4.988,4.988,0,0,0,20.2.021Z"/><path fill="#424242" d="M24,2V3a4,4,0,0,1,3.008,6.637l.752.66A5,5,0,0,0,24,2Z"/><path fill="#f9a825" d="M26,32a1.08,1.08,0,0,1-1,1H24s0-2,1-2A1.08,1.08,0,0,1,26,32Z"/><polygon fill="#424242" points="29 29 28 29 28 25 25.025 29 24.059 24.172 21.929 27.757 21.071 27.243 24.736 21.134 25.566 26.611 29 22 29 29"/><path fill="#fdd835" d="M15.748,31.328S14,30,8,30H4a2,2,0,0,1-2-2H2a2,2,0,0,1,2-2H7c3,0,3-2,3-2Z"/><circle cx="14.5" cy="23.5" r="5.5" fill="#eee"/><circle cx="15" cy="24" r="1" fill="#212121"/></g></svg>