<svg xmlns="http://www.w3.org/2000/svg"  viewBox="0 0 48 48" width="1600px" height="1600px"><path fill="#ffee58" d="M44,24c0,3.45-0.88,6.7-2.42,9.53c0,0.01-0.01,0.02-0.03,0.04C38.17,39.79,31.58,44,24,44	c-7.44,0-13.92-4.05-17.36-10.08C4.96,31,4,27.61,4,24c0-3.49,0.89-6.77,2.47-9.62c0,0,0,0,0-0.01C9.87,8.18,16.44,4,24,4	c7.43,0,13.91,4.05,17.35,10.07C43.04,16.99,44,20.39,44,24z"/><path fill="#689f38" d="M41.35,14.07C40.89,15.76,39.34,17,37.5,17c-0.27,0-0.53-0.03-0.78-0.08c-0.01,0-0.03,0-0.04-0.01	C32.09,15.99,30.4,7.5,20,7.5c-3.87,0-8.68,0.7-13.53,6.87C9.87,8.18,16.44,4,24,4C31.43,4,37.91,8.05,41.35,14.07z"/><path fill="#689f38" d="M41.55,33.57C38.17,39.79,31.58,44,24,44c-7.44,0-13.92-4.05-17.36-10.08	C7.11,32.23,8.66,31,10.49,31c0.27,0,0.52,0.03,0.77,0.08c0.02,0,0.03,0,0.05,0.01c4.59,0.92,6.28,9.41,16.68,9.41	C31.88,40.5,36.7,39.79,41.55,33.57z"/><path fill="#689f38" d="M25,15h-2c-1.105,0-2,0.895-2,2v14c0,1.105,0.895,2,2,2h2c1.105,0,2-0.895,2-2V17	C27,15.895,26.105,15,25,15z"/><path fill="#689f38" d="M33,25v-2c0-1.105-0.895-2-2-2H17c-1.105,0-2,0.895-2,2v2c0,1.105,0.895,2,2,2h14	C32.105,27,33,26.105,33,25z"/></svg>