<svg xmlns="http://www.w3.org/2000/svg"  viewBox="0 0 48 48" width="1600px" height="1600px"><path fill="#ecf0f1" d="M46,37H20V17h26c0.552,0,1,0.448,1,1v18C47,36.552,46.552,37,46,37z"/><path fill="#212121" d="M47,16H21v-5c0-0.552-0.448-1-1-1H1c-0.552,0-1,0.448-1,1v26c0,0.552,0.448,1,1,1h16h4h26	c0.552,0,1-0.447,1-1V17C48,16.447,47.552,16,47,16z M46,36H21V18h25V36z"/><path fill="#ecf0f1" d="M11,34H7c0-6.029,3.04-11.919,4.933-15H4v-4h13v3.664l-0.399,0.534C16.545,19.273,11,26.781,11,34z"/><polygon fill="#212121" points="26.579,30.323 31,30.323 31,32 24.045,32 24.045,30.783 28.421,23.684 24,23.684 24,22 30.918,22 30.918,23.19"/><rect width="2" height="9.976" x="33" y="22" fill="#212121"/><path fill="#212121" d="M43.069,22.922C42.456,22.311,41.621,22,40.585,22H37v9.98h2.125v-3.507h1.417	c1.079,0,1.935-0.291,2.538-0.852C43.693,27.05,44,26.279,44,25.307C44,24.325,43.693,23.533,43.069,22.922z M41.526,26.419	c-0.222,0.251-0.539,0.371-0.941,0.371h-1.459v-3.106h1.48c0.381,0,0.687,0.15,0.909,0.441c0.233,0.301,0.338,0.701,0.338,1.192	C41.853,25.798,41.748,26.168,41.526,26.419z"/></svg>