<svg xmlns="http://www.w3.org/2000/svg"  viewBox="0 0 48 48" width="1600px" height="1600px" baseProfile="basic"><path fill="#fff" d="M40.24,35.651c2.336-3.247,2.728-7.213,2.76-11.515c0.08-11.051-7.816-19.055-18.855-19.135	C13.088,4.921,5.081,12.813,5.001,23.848c-0.032,4.366,0.344,8.412,2.696,11.723c0.576,0.816,1.216,1.583,1.92,2.303l0,0	c3.6,3.726,26.111,3.311,29.807-1.167l0,0C39.712,36.355,39.984,36.003,40.24,35.651L40.24,35.651L40.24,35.651z"/><path fill="#ff6f00" d="M21.152,8.974c2.56-1.759,6.08-0.8,7.408,1.999l11.664,24.661c2.336-3.247,3.728-7.213,3.76-11.515	c0.096-11.035-8.8-20.039-19.839-20.119C13.088,3.921,4.081,12.813,4.001,23.848c-0.032,4.366,1.344,8.412,3.696,11.723l0.464-0.096	l7.616-1.679c0.208-0.048,0.336,0.24,0.144,0.352L9.616,37.89c3.6,3.726,8.64,6.061,14.24,6.109	c6.272,0.048,11.872-2.799,15.568-7.277L20.352,16.619C18.208,14.364,18.592,10.734,21.152,8.974 M24.736,31.653l-12.288,1.072	c-1.328,0.112-2.448-0.992-2.352-2.319c0.096-1.327,1.36-2.255,2.656-1.951l12,2.831C24.976,31.317,24.96,31.637,24.736,31.653 M19.056,20.857L33.952,32.9c0.176,0.144,0.016,0.416-0.192,0.336l-17.92-6.797c-1.872-0.72-2.672-2.943-1.68-4.67	C15.168,20.026,17.488,19.594,19.056,20.857"/></svg>