<svg xmlns="http://www.w3.org/2000/svg"  viewBox="0 0 48 48" width="1600px" height="1600px" clip-rule="evenodd"><path fill="#f57c00" fill-rule="evenodd" d="M39.77,29.767c-1.057-0.551-1.394-0.738-1.943-1.146 C36.111,27.345,35,25.302,35,23c0-2.416,1.224-4.546,3.086-5.805c0.116-0.078,1.317-0.82,1.809-1.156C41.7,14.808,43,12.844,43,10.5 C43,6.91,40.09,4,36.5,4c-2.151,0-4.053,1.05-5.236,2.66l-0.006-0.005C29.656,9,27.313,11,23.5,11c-2.375,0-3.959-0.224-6.698-2.399 c0,0-0.007,0.005-0.009,0.007C16.292,8.231,15.675,8,15,8c-1.657,0-3,1.343-3,3c0,1.479,1,2.771,1,6c0,8-6.213,11.256-6.909,11.699 C4.834,29.497,4,30.901,4,32.5C4,34.985,6.015,37,8.5,37c0.412,0,0.811-0.055,1.19-0.159C11.598,36.319,13,35,17,35 c8,0,12.887,5.551,14.312,6.916C32.659,43.207,34.487,44,36.5,44c4.142,0,7.5-3.358,7.5-7.5C44,33.534,42.235,31.053,39.77,29.767z" clip-rule="evenodd"/><path fill="#fff" fill-rule="evenodd" d="M22.75,17C19.574,17,17,19.91,17,23.5s2.574,6.5,5.75,6.5 s5.75-2.91,5.75-6.5S25.926,17,22.75,17z M23.5,27.5c-1.933,0-3.5-1.791-3.5-4c0-2.209,1.567-4,3.5-4s3.5,1.791,3.5,4 C27,25.709,25.433,27.5,23.5,27.5z" clip-rule="evenodd"/><path fill="#fff" fill-rule="evenodd" d="M28.5,17c-0.828,0-1.5,0.672-1.5,1.5c0,0.067,0,1.567,0,1.625 v7.125c0,0,0,1.073,0,1.25c0,0.828,0.672,1.5,1.5,1.5s1.5-0.672,1.5-1.5c0-0.648,0-9.437,0-10C30,17.672,29.328,17,28.5,17z" clip-rule="evenodd"/></svg>