<svg xmlns="http://www.w3.org/2000/svg"  viewBox="0 0 48 48" width="1600px" height="1600px"><path fill="#ff3d00" d="M41.44,23.15c-0.36-0.21-0.73-0.14-0.82-0.12c-4.95,1.05-9.9,2.1-14.85,3.15	c-0.92,0.2-1.85,0.39-2.77,0.59v17.18c0.02,0.1,0.08,0.4,0.34,0.66c0.26,0.27,0.56,0.32,0.66,0.34h1.02c0.11,0,0.37-0.03,0.61-0.22	c0.24-0.18,0.35-0.43,0.39-0.59l0.01-0.02l0.21-7.26c0-0.09,0.08-0.17,0.17-0.16c0.09,0,0.17,0.07,0.17,0.16l0.17,4.01l0.02,0.33	c0.05,0.91,0.11,1.81,0.17,2.72c0,0.09,0.05,0.43,0.34,0.71c0.29,0.28,0.62,0.31,0.71,0.32h0.99c0.08,0,0.4,0.01,0.69-0.23	c0.35-0.28,0.39-0.69,0.39-0.75c0.01-0.04,0.01-0.09,0.01-0.13l0.01-0.16l0.2-6.82c0-0.09,0.08-0.17,0.17-0.16	c0.09,0,0.16,0.07,0.17,0.16l0.25,5.91l0.01,0.13c0.02,0.35,0.04,0.69,0.06,1.05c0.01,0.08,0.06,0.48,0.41,0.76	c0.28,0.23,0.58,0.24,0.68,0.24h0.99c0.11-0.01,0.38-0.05,0.64-0.27c0.21-0.17,0.31-0.37,0.37-0.53l0.01-0.02l0.21-7.27	c0-0.09,0.08-0.17,0.18-0.16c0.09,0,0.16,0.07,0.16,0.16l0.3,7.04c0.01,0.09,0.05,0.45,0.36,0.74c0.29,0.27,0.62,0.3,0.72,0.31h1	c0.1,0,0.4-0.01,0.68-0.24c0.34-0.27,0.4-0.65,0.41-0.73c0.01-0.25,0.03-0.5,0.04-0.74l0.19-6.38c0-0.09,0.08-0.17,0.18-0.16	c0.09,0,0.16,0.07,0.16,0.16l0.3,7.06v0.01c0.02,0.13,0.08,0.38,0.29,0.6c0.24,0.28,0.55,0.36,0.81,0.42c0.4,0.09,0.76,0.05,1,0	c0.12-0.02,0.35-0.08,0.56-0.27c0.32-0.27,0.39-0.64,0.41-0.78V29v-3.06v-0.82v-1.01C42,24.07,41.96,23.45,41.44,23.15z"/><path fill="#1976d2" d="M43.74,26.37c0.18,0.24,0.21,0.5,0.21,0.61V28c-0.02,0.1-0.07,0.4-0.32,0.66	c-0.26,0.26-0.55,0.32-0.65,0.34H42v-3.06l1.15,0.03l0.02,0.01C43.32,26.02,43.57,26.13,43.74,26.37z"/><path fill="#1976d2" d="M35.96,13.53c-0.01,0.1,0.07,0.18,0.16,0.18l6.18,0.19c0.23,0.01,0.47,0.03,0.71,0.04	c0.08,0.01,0.45,0.07,0.71,0.41c0.22,0.28,0.23,0.58,0.23,0.68v1c-0.01,0.1-0.04,0.43-0.3,0.72c-0.28,0.31-0.63,0.35-0.72,0.36	l-6.81,0.3c-0.09,0-0.16,0.07-0.16,0.16c-0.01,0.1,0.07,0.18,0.16,0.18l7.04,0.21l0.02,0.01c0.15,0.06,0.35,0.16,0.51,0.37	c0.21,0.26,0.25,0.53,0.26,0.64v0.99c0,0.1-0.01,0.4-0.23,0.68c-0.27,0.35-0.66,0.4-0.74,0.41c-0.34,0.02-0.67,0.04-1.02,0.06	l-0.12,0.01l-5.72,0.25c-0.09,0.01-0.16,0.08-0.16,0.17c-0.01,0.09,0.07,0.17,0.16,0.17l6.61,0.2l0.14,0.01c0.04,0,0.09,0,0.13,0.01	c0.06,0,0.46,0.04,0.73,0.39c0.23,0.29,0.22,0.61,0.22,0.69v0.99c-0.01,0.09-0.04,0.42-0.31,0.71c-0.27,0.29-0.6,0.34-0.69,0.34	c-0.32,0.02-0.63,0.04-0.95,0.06v-1.01c0-0.04-0.04-0.66-0.56-0.96c-0.36-0.21-0.73-0.14-0.82-0.12c-4.95,1.05-9.9,2.1-14.85,3.15	c-0.15-0.73-0.3-1.45-0.45-2.18c-0.86-4.21-1.73-8.42-2.6-12.62c-0.02-0.09-0.08-0.46,0.12-0.82c0.3-0.52,0.89-0.56,0.93-0.56h19.16	c0.14,0.02,0.5,0.09,0.76,0.41c0.18,0.21,0.24,0.44,0.26,0.56c0.05,0.24,0.09,0.6,0,1c-0.06,0.26-0.13,0.57-0.4,0.81	c-0.22,0.21-0.46,0.27-0.59,0.29h-0.01l-6.83,0.3C36.03,13.37,35.96,13.44,35.96,13.53z"/><path fill="#ffc107" d="M22.72,11.38c0.87,4.2,1.74,8.41,2.6,12.62h-15c-0.62,0-1.14-0.43-1.28-1C9.01,22.9,9,22.79,9,22.68	V8.1c0.02-0.14,0.09-0.51,0.41-0.78c0.21-0.19,0.44-0.25,0.56-0.27c0.24-0.05,0.6-0.09,1,0c0.26,0.06,0.57,0.14,0.81,0.42	c0.21,0.22,0.27,0.47,0.29,0.6v0.01l0.3,7.06c0,0.09,0.07,0.16,0.16,0.16c0.1,0.01,0.18-0.07,0.18-0.16l0.19-6.38	c0.01-0.24,0.03-0.49,0.04-0.74c0.01-0.08,0.07-0.46,0.41-0.73c0.28-0.23,0.58-0.24,0.68-0.24h1c0.1,0.01,0.43,0.04,0.72,0.31	c0.31,0.29,0.35,0.65,0.36,0.74l0.3,7.04c0,0.09,0.07,0.16,0.16,0.16c0.1,0.01,0.18-0.07,0.18-0.16l0.21-7.27l0.01-0.02	c0.06-0.16,0.16-0.36,0.37-0.53c0.26-0.22,0.53-0.26,0.64-0.27h0.99c0.1,0,0.4,0.01,0.68,0.24c0.35,0.28,0.4,0.68,0.41,0.76	c0.02,0.36,0.04,0.7,0.06,1.05l0.01,0.13l0.25,5.91c0.01,0.09,0.08,0.16,0.17,0.16c0.09,0.01,0.17-0.07,0.17-0.16l0.2-6.82	l0.01-0.16c0-0.04,0-0.09,0.01-0.13c0-0.06,0.04-0.47,0.39-0.75c0.29-0.24,0.61-0.23,0.69-0.23h0.99c0.09,0.01,0.42,0.04,0.71,0.32	c0.29,0.28,0.34,0.62,0.34,0.71c0.04,0.64,0.08,1.28,0.12,1.92h-0.41c-0.04,0-0.63,0.04-0.93,0.56	C22.64,10.92,22.7,11.29,22.72,11.38z"/><path fill="#ffc107" d="M28,8.05V10h-3.09l0.06-2.12l0.01-0.02c0.04-0.16,0.15-0.41,0.39-0.59c0.24-0.19,0.5-0.22,0.61-0.22	H27c0.1,0.02,0.4,0.07,0.66,0.34C27.92,7.65,27.98,7.95,28,8.05z"/><path fill="#689f38" d="M7.101,23c0.646,0,1.292,0,1.939,0c0.03,0.12,0.105,0.348,0.3,0.563	c0.252,0.28,0.554,0.371,0.674,0.401C15.116,23.976,20.218,23.988,25.32,24c2.06,9.085,3.529,15.766,3.651,16.62	c0.048,0.339,0.004,0.605-0.127,0.82c-0.317,0.52-0.96,0.56-1.003,0.56H7.154c-0.148-0.02-0.538-0.09-0.823-0.41	c-0.19-0.21-0.253-0.44-0.274-0.56c-0.053-0.24-0.095-0.6,0-1c0.063-0.26,0.137-0.57,0.433-0.81c0.232-0.21,0.496-0.27,0.633-0.29	h0.01l7.378-0.3c0.095,0,0.169-0.07,0.169-0.16c0.011-0.1-0.074-0.18-0.169-0.18L7.84,38.1c-0.253-0.01-0.517-0.03-0.771-0.04	c-0.084-0.01-0.485-0.07-0.77-0.41c-0.232-0.28-0.243-0.58-0.243-0.68v-1c0.011-0.1,0.042-0.43,0.317-0.72	c0.306-0.31,0.686-0.35,0.781-0.36l7.357-0.3c0.095,0,0.169-0.07,0.169-0.16c0.011-0.1-0.074-0.18-0.169-0.18l-7.6-0.21L6.89,34.03	c-0.169-0.06-0.38-0.16-0.559-0.37c-0.222-0.26-0.264-0.53-0.274-0.64v-0.99c0-0.1,0.011-0.4,0.243-0.68	c0.296-0.35,0.718-0.4,0.802-0.41c0.369-0.02,0.728-0.04,1.098-0.06l0.137-0.01l6.175-0.25c0.095-0.01,0.169-0.08,0.169-0.17	c0.011-0.09-0.074-0.17-0.169-0.17l-7.135-0.2l-0.158-0.01c-0.042,0-0.095,0-0.137-0.01c-0.063,0-0.496-0.04-0.792-0.39	c-0.243-0.29-0.232-0.61-0.232-0.69v-0.99c0.011-0.09,0.042-0.42,0.327-0.71c0.296-0.29,0.654-0.34,0.749-0.34	c0.95-0.06,1.889-0.12,2.839-0.17l0.348-0.02l4.19-0.17c0.095,0,0.169-0.08,0.169-0.17c0.011-0.09-0.074-0.17-0.169-0.17	l-7.589-0.21l-0.021-0.01c-0.169-0.04-0.433-0.15-0.623-0.39c-0.19-0.24-0.222-0.5-0.222-0.61V24c0.021-0.1,0.074-0.4,0.348-0.66	C6.679,23.08,6.996,23.02,7.101,23z"/><path fill="#ffa000" d="M23.053,12.99c-0.125,0-0.474,0.016-0.768,0.268c-0.14,0.121-0.212,0.248-0.243,0.305	c-0.283,0.513-0.089,1.113-0.037,1.261c1.044,3.059,2.088,6.117,3.133,9.176c0.061,0,0.121,0,0.182,0	C24.564,20.33,23.809,16.66,23.053,12.99z"/><path fill="#1565c0" d="M36.761,23.859c0-0.125-0.018-0.474-0.272-0.766c-0.122-0.14-0.249-0.211-0.306-0.242	c-0.478-0.261-1.076-0.086-1.261-0.03c-0.745,0.223-4.302,1.436-9.15,3.174c0.013,0.059,0.025,0.118,0.038,0.178	C29.46,25.401,33.111,24.63,36.761,23.859z"/><path fill="#c62828" d="M28.251,37.096c0.125-0.002,0.474-0.023,0.763-0.28c0.139-0.123,0.208-0.251,0.239-0.309	c0.255-0.481,0.074-1.076,0.017-1.262c-0.232-0.742-1.483-4.286-3.276-9.114c-0.059,0.013-0.118,0.027-0.177,0.04	C26.628,29.812,27.44,33.454,28.251,37.096z"/><path fill="#558b2f" d="M14.132,23.974c-0.025,0.121-0.076,0.453,0.104,0.781c0.019,0.035,0.099,0.175,0.248,0.301	c0.416,0.352,1.034,0.312,1.226,0.297c0.775-0.061,4.524-0.493,9.652-1.167c-0.012-0.061-0.025-0.121-0.037-0.182	C21.594,23.994,17.863,23.984,14.132,23.974z"/></svg>