<svg xmlns="http://www.w3.org/2000/svg"  viewBox="0 0 48 48" width="1600px" height="1600px" baseProfile="basic"><path fill="#7e57c2" d="M26.419,24.57c-0.72-0.38-1.49-0.57-2.31-0.57c-2.76,0-5,2.24-5,5s2.24,5,5,5h17.31	c1.71-2.94,2.69-6.36,2.69-10c0-11.05-8.95-20-20-20s-20,8.95-20,20c0,3.68,1,7.13,2.74,10.09c-0.48-1.61-0.74-3.32-0.74-5.09	c0-9.8,7.67-17.7,17.46-17.99c0.82-0.02,1.52,0.62,1.54,1.45c0.02,0.83-0.63,1.52-1.46,1.55c-8.15,0.24-14.54,6.82-14.54,14.99	c0,7.99,6.29,14.55,14.18,14.98c0.27,0.01,0.54,0.02,0.82,0.02c3.13,0,6.09-0.72,8.73-2h-8.73c-7.17,0-13-5.83-13-13s5.83-13,13-13	c0.75,0,1.51,0.06,2.24,0.19c0.82,0.14,1.36,0.92,1.22,1.74c-0.14,0.81-0.92,1.36-1.74,1.22c-0.56-0.1-1.14-0.15-1.72-0.15	c-5.51,0-10,4.49-10,10s4.49,10,10,10h13.22c0.71-0.61,1.37-1.28,1.97-2h-15.19c-4.41,0-8-3.59-8-8s3.59-8,8-8	c1.29,0,2.57,0.31,3.7,0.91c0.74,0.38,1.02,1.29,0.64,2.02C28.059,24.67,27.159,24.95,26.419,24.57z"/></svg>