<svg xmlns="http://www.w3.org/2000/svg"  viewBox="0 0 48 48" width="1600px" height="1600px"><path fill="#1565c0" d="M2.81,31.658l12.717-9.92c3.14-2.45,7.168-3.314,10.984-2.356l17.162,4.309 c2.48,0.623,3.162,3.956,1.139,5.574L29.672,41.38c-3.749,3-8.832,3.463-13.026,1.187L3.088,35.21 C1.767,34.493,1.618,32.588,2.81,31.658z"/><path fill="#c62828" d="M2.81,26.658l12.717-9.92c3.14-2.45,7.168-3.314,10.984-2.356l17.162,4.309 c2.48,0.623,3.162,3.956,1.139,5.574L29.672,36.38c-3.749,3-8.832,3.463-13.026,1.187L3.088,30.21 C1.767,29.493,1.618,27.588,2.81,26.658z"/><path fill="#fdd835" d="M2.81,21.658l12.717-9.92c3.14-2.45,7.168-3.314,10.984-2.356l17.162,4.309 c2.48,0.623,3.162,3.956,1.139,5.574L29.672,31.38c-3.749,3-8.832,3.463-13.026,1.187L3.088,25.21 C1.767,24.493,1.618,22.588,2.81,21.658z"/><path fill="#7cb342" d="M2.81,16.658l12.717-9.92c3.14-2.45,7.168-3.314,10.984-2.356l17.162,4.309 c2.48,0.623,3.162,3.956,1.139,5.574L29.672,26.38c-3.749,3-8.832,3.463-13.026,1.187L3.088,20.21 C1.767,19.493,1.618,17.588,2.81,16.658z"/></svg>