<svg xmlns="http://www.w3.org/2000/svg"  viewBox="0 0 48 48" width="1600px" height="1600px"><path fill="#E74C3C" d="M38,26.9c-1.9,3-6,5.1-9.4,5.1c0,0,0,0-0.1,0l0,0c-4.7,0-8.5-3.8-8.5-8.5c2.8-1.7,2.1-6.4,5-7.7c1.1-0.5,2.3-0.8,3.5-0.8l0,0c0,0,0,0,0.1,0c3.4,0,7.4,2,9.3,4.9l6.8-7.4C41.1,7.4,35.2,4,28.6,4C17.8,4,9.1,12.7,9.1,23.5S17.8,43,28.6,43c6.9,0,13-3.6,16.4-9.1L38,26.9z"/><path fill="#2980B9" d="M30,7.4C30,6.6,29.4,6,28.6,6c-0.6,0-1.1,0.4-1.3,1l-7,15l2,4c0,0,7.4-17.6,7.5-18l0,0C29.9,7.8,30,7.6,30,7.4z"/><path fill="#2980B9" d="M27,29l-5-1l1.1-5.5c0.2-0.4-0.2-1.3,0.3-1.2l3.9,1.4c0.5,0.2,0.8,0.6,0.7,1.1L27,29z"/><path fill="#F39C12" d="M22,28l-8,6l-3,7h4c0.4-0.2,1-0.7,1.2-1c0,0-0.1,0.5-0.5,1H19c0,0,5.8-2.9,8-12L22,28z"/><path fill="#F1C40F" d="M14,23c0,0-5.5,8-12,8c0,0,0.2,3.4,4.2,6.9c0.9-0.1,2-0.3,2.8-0.9c0,0-0.6,1.1-1.4,2c1,0.7,2.1,1.4,3.4,2c0,0,7.7-5,11-13L14,23z"/><path fill="#3498DB" d="M14,23l8,5l2.2-5.1c0.3-0.5,0-1.2-0.5-1.4l-5.9-2.3c-0.4-0.2-0.9,0-1.2,0.3L14,23z"/></svg>