<svg xmlns="http://www.w3.org/2000/svg"  viewBox="0 0 48 48" width="1600px" height="1600px" baseProfile="basic"><polygon fill="#3f51b5" points="27,39 41,37 41,24 27,25"/><polygon fill="#303f9f" points="41,24 33,21 22,22 27,25"/><polygon fill="#3949ab" points="22,22 22,35 27,39 27,25"/><polygon fill="#ffeb3b" points="10,41 25,39 25,25 10,26"/><polygon fill="#fbc02d" points="25,25 20,22 7,23 10,26"/><polygon fill="#fdd835" points="7,23 7,37 10,41 10,26"/><polygon fill="#8bc34a" points="27,23 41,22 41,7 27,7"/><polygon fill="#7cb342" points="22,9 22,20 27,23 27,7"/><polygon fill="#f44336" points="10,24 25,23 25,7 10,7"/><polygon fill="#d32f2f" points="7,9 7,21 10,24 10,7"/></svg>