<svg xmlns="http://www.w3.org/2000/svg"  viewBox="0 0 48 48" width="1600px" height="1600px"><path fill="#eee" d="M34,42H14c-4.411,0-8-3.589-8-8V14c0-4.411,3.589-8,8-8h20c4.411,0,8,3.589,8,8v20 C42,38.411,38.411,42,34,42z"/><path fill="#1de9b6" d="M33,23H14c-1.657,0-3-1.343-3-3v-3.326c0-1.524,1.142-2.806,2.656-2.98l18.885-2.179 C34.917,11.24,37,12.097,37,14.488V20C37,22.207,34.657,23,33,23z"/><path fill="#e57373" d="M13,25h6c1.105,0,2,0.895,2,2v5.907c0,1.195-1.041,2.123-2.228,1.987l-6-0.69 C11.762,34.088,11,33.233,11,32.217V27C11,25.895,11.895,25,13,25z"/><path fill="#ffd54f" d="M24.5,25h3c0.828,0,1.5,0.672,1.5,1.5v1.675c0,0.861-0.723,1.545-1.582,1.498l-3-0.165 C23.622,29.464,23,28.807,23,28.01V26.5C23,25.672,23.672,25,24.5,25z"/><path fill="#212121" d="M24.58,31.024l3,0.16c0.796,0.042,1.42,0.7,1.42,1.498v1.713c0,0.897-0.783,1.594-1.674,1.49 l-3-0.35C23.57,35.447,23,34.806,23,34.045v-1.523C23,31.662,23.721,30.978,24.58,31.024z"/><path fill="#40c4ff" d="M37,26.462v2.054c0,0.936-1.033,1.48-1.891,1.435l-2.689-0.132C31.624,29.778,31,29.137,31,28.36 v-1.898C31,25.654,31.672,25,32.5,25h2.609C35.937,25,37,25.4,37,26.462z"/><path fill="#b388ff" d="M32.582,31.457l2.648,0.146C36.026,31.646,37,32.136,37,33.12v2.198 c0,1.074-1.108,1.555-1.999,1.453l-2.672-0.307C31.571,36.376,31,35.735,31,34.973v-2.018C31,32.094,31.723,31.41,32.582,31.457z"/></svg>