<svg xmlns="http://www.w3.org/2000/svg"  viewBox="0 0 48 48" width="1600px" height="1600px"><path fill="#1e88e5" d="M7,20h34v-9c0-2.209-1.791-4-4-4h-5.172c-0.53,0-1.039,0.211-1.414,0.586l-0.121,0.121C30.105,7.895,29.851,8,29.586,8H10.79C8.697,8,7,9.697,7,11.79v0.002V20z"/><path fill="#e0e0e0" d="M10 10H37V23.5H10z"/><path fill="#f5f5f5" d="M9 12H38V27H9z"/><path fill="#fff" d="M11 14H39V29H11z"/><path fill="#42a5f5" d="M42,35V21c0-3.314-2.686-5-6-5H22.414c-0.265,0-0.52-0.105-0.707-0.293l-2.121-2.121C19.211,13.211,18.702,13,18.172,13H12c-3.314,0-6,1.686-6,5v16c0,3.314,2.686,6,6,6h7L42,35z"/><path fill="#f5f5f5" d="M36.655,26.008C35.674,23.113,32.615,21,28.988,21c-3.341,0-6.201,1.793-7.398,4.339C21.099,25.123,20.559,25,19.988,25c-2.031,0-3.691,1.519-3.948,3.481c-2.376,0.967-4.052,3.296-4.052,6.019c0,3.59,2.91,6.5,6.5,6.5s14.369,0,18,0c4.142,0,7.5-3.358,7.5-7.5C43.988,29.414,40.719,26.098,36.655,26.008z"/><path fill="#039be5" d="M25.045 28.001L23.351 30.751 29.579 30.751 31.091 28.001zM34.626 28.001c-3.913 0-3.94 4.583-3.94 4.583l-.135 1.862c-.405 3.696-2.915 3.638-2.915 3.638h-.864L26.313 39h3.671c0 0 3.077 0 3.455-3.666 0 0 .216-2.664.243-2.75s.054-2.75 2.591-2.75c0 0 .834.013 1.245.186L38 29.376C36.138 27.915 34.626 28.001 34.626 28.001zM22.221 32.584l-3.102 5.038C18.783 38.233 19.198 39 19.865 39h5.18l1.009-1.833H23.06l1.122-1.833h2.878l1.511-2.75H22.221z"/></svg>