<svg xmlns="http://www.w3.org/2000/svg"  viewBox="0 0 48 48" width="1600px" height="1600px"><path fill="#7986cb" d="M15.337,18.757l8.334-4.811c0.204-0.118,0.455-0.118,0.659,0l8.341,4.816	C32.874,18.879,33,19.097,33,19.332v9.632c0,0.235-0.126,0.453-0.329,0.57l-8.341,4.816c-0.204,0.118-0.455,0.118-0.659,0	l-8.341-4.816C15.126,29.417,15,29.199,15,28.964v-9.623C15,19.1,15.129,18.878,15.337,18.757"/><path fill="#3949ab" d="M45.362,23.151L35.545,6.073C35.189,5.455,34.53,5,33.817,5H14.183c-0.713,0-1.372,0.455-1.729,1.073	L2.638,23.114c-0.357,0.618-0.357,1.397,0,2.015l9.817,16.938C12.811,42.684,13.47,43,14.183,43h19.634	c0.713,0,1.372-0.306,1.728-0.924l9.817-16.966C45.719,24.493,45.719,23.769,45.362,23.151 M36.66,31.821L24.356,38.92	c-0.217,0.125-0.484,0.125-0.701,0L11.34,31.821C11.13,31.699,11,31.475,11,31.232V17.063c0-0.243,0.13-0.468,0.341-0.59	l12.302-7.098c0.217-0.125,0.484-0.125,0.701,0l12.289,7.084C36.86,16.591,37,16.833,37,17.096v14.136	C37,31.475,36.87,31.7,36.66,31.821z"/></svg>