<svg xmlns="http://www.w3.org/2000/svg"  viewBox="0 0 48 48" width="1600px" height="1600px"><path fill="#212121" d="M10.323,11L0,37h2l3.228-8h10.385l2.667,8h8.164l-9.75-26H10.323z M6.035,27l4.88-12.094L14.946,27 H6.035z M19.721,35l-7.333-22h2.92l8.25,22H19.721z"/><path fill="#212121" d="M45.697,20.296c-1.987-1.63-4.98-2.058-8.894-1.276c-0.087,0.017-0.158,0.061-0.234,0.098 c-1.767,0.436-3.701,1.908-5.464,5.435l1.789,0.895c1.812-3.624,3.881-5.058,6.147-4.254c1.444,0.509,2.488,1.799,2.828,3.364 C41.262,25.259,39.317,27,35,27c-2.757,0-5,2.243-5,5c0,2.707,2.167,4.907,4.856,4.985c0.007,0.001,0.013,0.006,0.02,0.007 c0.054,0.007,0.484,0.058,1.131,0.058c1.468,0,4.052-0.262,5.899-1.893c0.033-0.029,0.061-0.063,0.094-0.093V37h1h1h4V25 C48,24.885,47.974,22.162,45.697,20.296z M32,32c0-1.654,1.346-3,3-3v6C33.346,35,32,33.654,32,32z M40.589,33.652 C39.561,34.563,38.138,34.893,37,35v-6.128c2.312-0.291,3.926-1.052,5-1.8V30C42,31.616,41.538,32.811,40.589,33.652z M46,35h-2 v-9.352c0-1.886-0.745-3.617-1.971-4.851c0.949,0.182,1.75,0.518,2.38,1.028C45.957,23.078,45.999,24.929,46,25V35z"/></svg>