<svg xmlns="http://www.w3.org/2000/svg"  viewBox="0 0 48 48" width="1600px" height="1600px"><path fill="#ff8f00" d="M45,18.816C42.334,5.695,34.134,4,27.994,4C21.49,4,11.418,7.589,6.645,19.211 c-4.88,11.882,1.313,24.61,15.731,24.61c9.94,0,18.351-7.773,18.351-16.592c0-5.302-2.776-7.662-2.776-7.662 s0.101,4.322-0.586,5.661c-0.707-1.806-1.697-3.742-3.211-5.02c-0.162,2.962-1.151,11.209-9.764,8.785c0,0,1.261,4.635,8.573,4.635 c0,0-2.222,3.409-7.392,3.409s-9.663-3.699-9.372-10.307c0.283-6.411,6.908-12.782,14.017-12.782c3.232,0,6.241,1.542,7.978,3.419 C38.638,15.295,35,10,28.914,9.019C28.914,9.019,39.075,6.94,45,18.816z"/></svg>