<svg xmlns="http://www.w3.org/2000/svg"  viewBox="0 0 48 48" width="1600px" height="1600px"><path fill="#00bfa5" d="M24,44C12.955,44,4,35.045,4,24C4,12.954,12.955,4,24,4c11.046,0,20,8.954,20,20	C44,35.045,35.046,44,24,44z"/><path fill="#fff" d="M27.5,27c-0.829,0-1.5,0.671-1.5,1.5s0.671,1.5,1.5,1.5h3.187c-1.685,1.872-4.113,3-6.687,3	c-4.962,0-9-4.038-9-9s4.038-9,9-9c3.136,0,5.998,1.603,7.656,4.288c0.435,0.705,1.359,0.923,2.064,0.488	c0.705-0.435,0.923-1.359,0.488-2.064C32,14.135,28.184,12,24,12c-6.617,0-12,5.383-12,12s5.383,12,12,12	c2.991,0,5.832-1.144,8-3.088V34.5c0,0.829,0.671,1.5,1.5,1.5s1.5-0.671,1.5-1.5V27H27.5z"/></svg>