<svg xmlns="http://www.w3.org/2000/svg"  viewBox="0 0 48 48" width="1600px" height="1600px"><path fill="#ff1744" d="M34.349,21c0,0-0.625-8.5-8.5-7.75c0,0-4.625,0.5-6.25,4.125c0,0,0.125,1.625,1.75,2.625	l-4.563-2.394c-3.019-1.584-6.733-1.494-9.496,0.503C6.318,18.812,5.411,19.75,4.724,21c0,0-1.5,3.25,0.875,6.125	c0,0-7.625-6.375-0.125-13.25S17.849,15,17.849,15s2.625-9,11.375-6S34.349,21,34.349,21z"/><path fill="#212121" d="M44.566,12.348l0.842-0.525L43.29,8.428L13.51,27.01c-0.427-0.487-0.901-0.927-1.427-1.299	c-1.717-1.212-3.712-1.613-5.623-1.129c-3.641,0.927-5.826,4.871-5.11,8.991C1.118,33.999,0.974,34.48,0.974,35	c0,1.458,1.041,2.671,2.42,2.942c0.438,0.507,0.927,0.964,1.47,1.348c1.242,0.877,2.63,1.329,4.025,1.329	c0.533,0,1.069-0.066,1.598-0.2c1.614-0.411,2.938-1.42,3.855-2.77c-0.804-0.582-1.643-1.219-2.402-1.808	c-0.521,0.82-1.265,1.433-2.192,1.669c-1.044,0.268-2.164,0.027-3.153-0.672c-0.056-0.039-0.101-0.092-0.156-0.134	C6.775,36.22,6.974,35.634,6.974,35c0-1.569-1.209-2.842-2.744-2.974c-0.01-2.178,1.141-4.071,2.97-4.536	c0.278-0.071,0.562-0.105,0.847-0.105c0.784,0,1.581,0.265,2.307,0.777c1.062,0.749,1.841,1.923,2.191,3.303	c0.21,0.825,0.226,1.638,0.113,2.398c0.819,0.641,1.734,1.342,2.593,1.972c0.544-1.549,0.655-3.325,0.202-5.108	c-0.016-0.061-0.037-0.119-0.054-0.18l20.827-12.996l2.479,3.961l8.333-5.214L44.566,12.348z M43.097,17.301l-1.664,1.109	l-0.947-1.42l-1.484,0.989l-1.109-1.664l1.484-0.989l-1.053-1.58l1.664-1.109l1.053,1.58l1.516-1.011l1.109,1.664l-1.516,1.011	L43.097,17.301z"/><path fill="#ff1744" d="M6.474,28.75c0,0,5.25,4.75,15.875,7c0,0,8.875-6,11.75-13.375c0,0-3.125,11.125-10.625,18.375	C23.474,40.75,12.974,36.5,6.474,28.75z"/></svg>