<svg xmlns="http://www.w3.org/2000/svg"  viewBox="0 0 48 48" width="1600px" height="1600px" baseProfile="basic"><path fill="#212121" d="M24.001,44c-9.197,0-17.177-6.225-19.403-15.137c-0.112-0.447-0.012-0.923,0.272-1.286	C5.154,27.213,5.591,27,6.053,27H16V13.5c0-0.67,0.444-1.26,1.09-1.442c0.642-0.184,1.333,0.083,1.686,0.652l10.226,16.518V19.5	c0-0.828,0.672-1.5,1.5-1.5h9.413C37.45,11.436,31.159,7,24,7C15.528,7,8.286,13.32,7.154,21.7c-0.11,0.822-0.877,1.407-1.687,1.286	C4.646,22.876,4.07,22.12,4.182,21.3C5.513,11.438,14.033,4,24,4c9.197,0,17.177,6.225,19.404,15.136	c0.112,0.448,0.012,0.923-0.272,1.287S42.411,21,41.949,21h-9.948v13.5c0,0.67-0.444,1.26-1.09,1.442	c-0.643,0.187-1.332-0.083-1.686-0.652L19,18.772V28.5c0,0.828-0.672,1.5-1.5,1.5H8.088c2.463,6.564,8.754,11,15.913,11	c8.472,0,15.714-6.32,16.847-14.701c0.111-0.821,0.869-1.397,1.688-1.285c0.82,0.11,1.396,0.866,1.285,1.688	C42.488,36.563,33.968,44,24.001,44z"/></svg>