<svg xmlns="http://www.w3.org/2000/svg"  viewBox="0 0 48 48" width="1600px" height="1600px"><circle cx="24" cy="24" r="20" fill="#64dd17"/><circle cx="24" cy="24" r="18" fill="#263238"/><path fill="#64dd17" d="M21.219,34.998c-1.252,0.026-2.515-0.305-3.525-1.046c-2.028-1.489-2.858-3.902-2.271-6.193	l3.479-13.386C18.96,14.154,19.159,14,19.387,14h2.228c0.196,0,0.339,0.184,0.291,0.374L18.33,28.505	c-0.274,1.069,0.09,2.192,0.998,2.914c0.516,0.41,1.182,0.595,1.841,0.58c2.475-0.056,4.617-1.751,5.234-4.159l3.5-13.466	C29.96,14.154,30.159,14,30.387,14h2.228c0.196,0,0.339,0.184,0.291,0.374l-3.596,14.21C28.356,32.304,25.044,34.92,21.219,34.998z"/></svg>