<svg xmlns="http://www.w3.org/2000/svg"  viewBox="0 0 48 48" width="1600px" height="1600px"><path fill="#29b6f6" d="M6,10c0-2.209,1.791-4,4-4h28c2.209,0,4,1.791,4,4v28c0,2.209-1.791,4-4,4H10c-2.209,0-4-1.791-4-4 V10z"/><path fill="#fff" d="M24.25,9.5C16.117,9.5,9.5,16.117,9.5,24.25c0,7.936,6.305,14.411,14.166,14.72	C23.778,38.978,23.887,39,24,39c0.031,0,0.06-0.007,0.091-0.008C24.145,38.992,24.196,39,24.25,39C32.383,39,39,32.383,39,24.25	S32.383,9.5,24.25,9.5z M36.937,23h-4.977c-0.109-2.01-0.438-3.884-0.94-5.552c1.057-0.568,1.872-1.268,2.382-2.056	C35.352,17.407,36.649,20.056,36.937,23z M25,12.196c1.376,0.506,2.607,2.022,3.503,4.162c-1.003,0.316-2.186,0.536-3.503,0.611	V12.196z M28.227,12.144c1.327,0.437,2.552,1.09,3.648,1.912c-0.224,0.53-0.755,1.056-1.539,1.514	C29.755,14.206,29.042,13.048,28.227,12.144z M23,12.196v4.773c-1.323-0.075-2.505-0.295-3.504-0.61	C20.393,14.219,21.624,12.702,23,12.196z M17.665,15.567c-0.65-0.381-1.13-0.806-1.402-1.24c0.977-0.788,2.073-1.431,3.256-1.906	C18.808,13.278,18.186,14.346,17.665,15.567z M23,18.973V23h-4.95c0.103-1.709,0.381-3.319,0.792-4.758	C20.075,18.639,21.483,18.895,23,18.973z M23,25v5.029c-1.507,0.079-2.916,0.338-4.156,0.738c-0.492-1.719-0.79-3.685-0.832-5.767	H23z M23,32.033v4.771c-1.373-0.504-2.601-2.015-3.497-4.147C20.508,32.336,21.689,32.111,23,32.033z M18.965,35.839	c-0.877-0.402-1.698-0.9-2.455-1.481c0.281-0.318,0.672-0.626,1.161-0.911C18.05,34.334,18.482,35.138,18.965,35.839z M25,36.804	v-4.771c1.316,0.077,2.497,0.3,3.5,0.618C27.603,34.786,26.374,36.299,25,36.804z M30.332,33.44c0.61,0.356,1.063,0.751,1.343,1.154	c-0.879,0.633-1.84,1.154-2.866,1.549C29.383,35.37,29.895,34.463,30.332,33.44z M25,30.028V25h4.987	c-0.042,2.08-0.339,4.044-0.83,5.761C27.921,30.363,26.511,30.107,25,30.028z M25,23v-4.027c1.519-0.079,2.923-0.343,4.155-0.743	c0.413,1.442,0.692,3.057,0.795,4.77H25z M14.806,15.714c0.512,0.665,1.255,1.253,2.171,1.744c-0.5,1.665-0.828,3.537-0.937,5.542	h-4.477C11.836,20.208,13.022,17.686,14.806,15.714z M11.538,25h4.475c0.043,2.384,0.382,4.607,0.965,6.547	c-0.795,0.424-1.457,0.922-1.954,1.479C13.009,30.908,11.72,28.103,11.538,25z M33.209,33.308c-0.514-0.676-1.258-1.275-2.185-1.77	c0.582-1.937,0.92-4.158,0.963-6.538h4.975C36.772,28.24,35.38,31.161,33.209,33.308z"/></svg>