<svg xmlns="http://www.w3.org/2000/svg"  viewBox="0 0 48 48" width="1600px" height="1600px" clip-rule="evenodd"><path fill="#424242" d="M24,44C12.972,44,4,35.028,4,24S12.972,4,24,4s20,8.972,20,20S35.028,44,24,44z M24,6 C14.075,6,6,14.075,6,24s8.075,18,18,18s18-8.075,18-18S33.925,6,24,6z"/><circle cx="24" cy="24" r="17.074" fill="none"/><path fill="#f5f5f5" fill-rule="evenodd" d="M24,6C14.059,6,6,14.059,6,24	c0,9.941,8.059,18,18,18c9.941,0,18-8.059,18-18C42,14.059,33.941,6,24,6z M24,8.766c0.933,0.003,1.864,0.093,2.781,0.266	c0.044,0.199,0.069,0.406,0.069,0.618c0,1.575-1.276,2.851-2.851,2.85c-1.575,0.001-2.85-1.274-2.85-2.849	c0-0.214,0.026-0.421,0.07-0.621C22.136,8.857,23.067,8.769,24,8.766z M16.172,10.95c-0.099,0.502-0.153,1.02-0.153,1.551	c0,3.181,1.866,5.921,4.56,7.204v14.461l3.42,3.42l3.421-3.421l-0.196-3.029l1.613-1.612l-1.613-1.612l2.42-2.418l-2.42-2.42	l0.196-3.37c2.694-1.282,4.561-4.022,4.561-7.203c0-0.53-0.055-1.047-0.154-1.549c4.588,2.748,7.4,7.7,7.407,13.048	c0,8.413-6.821,15.234-15.234,15.234c-8.413,0-15.234-6.821-15.234-15.234C8.772,18.651,11.584,13.698,16.172,10.95z M21.719,21.623	h1.141v11.402h-1.14L21.719,21.623L21.719,21.623L21.719,21.623z" clip-rule="evenodd"/><path fill="#7cb342" d="M26.781,9.032	c0.044,0.199,0.069,0.406,0.069,0.618c0,1.575-1.277,2.851-2.851,2.85c-1.575,0.001-2.85-1.274-2.85-2.849	c0-0.214,0.026-0.421,0.07-0.621C22.136,8.857,23.067,8.769,24,8.766C24.933,8.769,25.864,8.858,26.781,9.032z M16.019,12.501	c0,3.182,1.866,5.921,4.56,7.204v14.462l3.42,3.42l3.421-3.421l-0.196-3.029l1.613-1.613l-1.613-1.613l2.419-2.418l-2.419-2.419	l0.196-3.371c2.695-1.282,4.561-4.021,4.561-7.203c0-0.53-0.055-1.048-0.154-1.549c4.588,2.748,7.399,7.7,7.407,13.048	c0,8.414-6.821,15.234-15.234,15.234c-8.414,0-15.234-6.821-15.234-15.234c0.006-5.349,2.817-10.302,7.406-13.051	C16.073,11.451,16.019,11.969,16.019,12.501z M21.719,21.623h1.141v11.402h-1.14L21.719,21.623L21.719,21.623L21.719,21.623z" opacity=".94"/></svg>