<svg xmlns="http://www.w3.org/2000/svg"  viewBox="0 0 48 48" width="1600px" height="1600px"><polygon fill="#e53935" points="42,35 6,35 24,4"/><path fill="#212121" d="M42,36H6c-0.357,0-0.688-0.191-0.866-0.501c-0.179-0.31-0.178-0.692,0.001-1.001l18-31 c0.359-0.617,1.371-0.617,1.73,0l18,31c0.179,0.309,0.18,0.691,0.001,1.001C42.688,35.809,42.357,36,42,36z M7.737,34h32.525 L24,5.992L7.737,34z"/><rect width="2" height="21" x="23" y="24" fill="#212121"/><rect width="2" height="21" x="41" y="14" fill="#212121"/><polygon fill="#212121" points="7,35 5,35 5,13.412 24,2.856 42.485,13.126 41.515,14.874 24,5.144 7,14.588"/><polygon fill="#212121" points="24,25.144 5.515,14.874 6.485,13.126 24,22.856 41.515,13.126 42.485,14.874"/><polygon fill="#212121" points="24,46.144 5.515,35.874 6.485,34.126 24,43.856 41.515,34.126 42.485,35.874"/><circle cx="24" cy="4.5" r="2.5" fill="#212121"/><circle cx="41.5" cy="34.5" r="2.5" fill="#212121"/><circle cx="6.5" cy="34.5" r="2.5" fill="#212121"/><circle cx="24" cy="24" r="2.5" fill="#212121"/><circle cx="41.5" cy="14.5" r="2.5" fill="#212121"/><circle cx="6.5" cy="14.5" r="2.5" fill="#212121"/><circle cx="24" cy="44.5" r="2.5" fill="#212121"/></svg>