<svg xmlns="http://www.w3.org/2000/svg"  viewBox="0 0 48 48" width="1600px" height="1600px" baseProfile="basic"><polygon fill="#b71c1c" points="18.001,29.994 18.001,35 21.995,34.995 21.995,29.999 20.001,32.004"/><path fill="#b71c1c" d="M46.586,21.441c-0.177-0.221-0.84-0.354-0.84-0.354l-0.796,1.592l0.088-1.769	c0,0-4.821-1.946-8.668-2.875s-6.58-1.291-8.048-1.326c-1.062-0.026-3.097,0.088-3.097,0.088l1.725,1.636	c0,0-2.167-0.885-2.963-1.194s-2.034-0.31-2.654-0.354c-0.619-0.044-1.15,0.221-1.15,0.221s-0.575,0.442,0.752,3.405	c1.088,2.43,3.719,3.965,4.632,4.44c-5.917-1.284-6.578-7.005-6.578-7.005s-3.603-0.037-8.757,1.769	c-5.824,2.041-9.288,5.971-9.288,5.971s4.6-1.548,8.492-0.487s5.497,3.788,5.497,3.788l0.107-3.007h2.936l2.251,2.713l1.758-2.677	h2.971c0,0,0.015,0,0.036-0.001v5.979c0,0,2.014-1.665,3.372-2.328c1.813-0.885,6.015-0.619,6.015-0.619s-0.067-0.47-0.315-0.967	c-0.352-0.704,0.573-0.935,0.573-0.935s8.278-1.813,9.206-1.99c0.929-0.177,1.592-0.575,1.813-0.796	c0.221-0.221,0.84-1.769,0.973-1.946C46.763,22.237,46.763,21.662,46.586,21.441z M21.2,18.389c0.221-0.354,0.885-0.487,1.902,0	c1.2,0.574,2.654,2.477,2.654,2.477l-1.238-0.575l0.619,1.106l-1.106-0.619l0.973,1.415l-0.663-0.177l0.885,1.459	C21.377,21.264,20.979,18.743,21.2,18.389z M37.918,20.556l-0.663,0.486c0,0-2.654,0.354-3.361,0.31	c-0.708-0.044-1.15-1.106-1.15-1.106l-1.459-0.885L37.918,20.556z M32.92,26.748c-0.487,0.398-0.044,1.371-0.044,1.371	c-0.663-0.486-1.46-1.415-0.752-1.946c0.708-0.531,5.882-1.194,5.882-1.194S33.406,26.35,32.92,26.748z"/></svg>