<svg xmlns="http://www.w3.org/2000/svg"  viewBox="0 0 48 48" width="1600px" height="1600px"><polygon fill="#212121" points="42,34.588 42,14.196 24,4 6,14.196 6,34.588 24,44.785"/><polygon fill="#ff3d00" points="9.585,13.553 9.585,14.383 11.5,15.053 11.5,31.043 9.585,31.521 9.585,32.383 15.298,32.383 15.298,31.585 13.16,30.915 13.16,17.83 24.968,32.383 26.404,32.383 26.404,15.085 28.415,14.383 28.415,13.553 22.543,13.553 22.543,14.319 24.394,15.053 24.394,27.277 13.798,13.553"/><path fill="#ff3d00" d="M30.777,13.553v0.83l1.819,0.574v17.553c0,0,0,3.128-3.734,4.532v0.926c0,0,6.511-0.734,6.511-5.33	s0-17.649,0-17.649l2.17-0.67v-0.766H30.777z"/></svg>