<svg xmlns="http://www.w3.org/2000/svg"  viewBox="0 0 48 48" width="1600px" height="1600px"><ellipse cx="24.25" cy="23.75" fill="#303f9f" rx="8.839" ry="27.577" transform="rotate(-45.001 24.25 23.75)"/><circle cx="24" cy="25" r="17" fill="#80deea"/><path fill="#0288d1" d="M11.5,13.463c-1.31,1.418-2.372,3.064-3.145,4.863c2.42,3.701,5.695,7.727,9.623,11.655	c4.409,4.409,8.985,8.03,13.042,10.505c0.086-0.039,0.167-0.074,0.252-0.114C17.074,28.082,12.763,17.936,11.5,13.463z"/><path fill="#42a5f5" d="M8.36,18.333C7.486,20.38,7,22.633,7,25c0,9.389,7.611,17,17,17c2.5,0,4.867-0.553,7.005-1.523 c-4.054-2.475-8.623-6.092-13.027-10.496C14.053,26.055,10.78,22.032,8.36,18.333z"/><path fill="#69f0ae" d="M40.807,22.571c-1.161-8.092-8.004-14.333-16.365-14.549C22.326,10.027,21,12.856,21,16	c0,6.075,4.925,11,11,11C35.608,27,38.801,25.255,40.807,22.571z"/><path fill="#303f9f" d="M24,15c-5.523,0-10,4.477-10,10c0,0.246,0.019,0.488,0.037,0.729C15.266,27.156,16.586,28.586,18,30	c1.813,1.813,3.653,3.468,5.479,4.974C23.652,34.983,23.824,35,24,35c5.523,0,10-4.477,10-10C34,19.477,29.523,15,24,15z"/></svg>