<svg xmlns="http://www.w3.org/2000/svg"  viewBox="0 0 48 48" width="1600px" height="1600px" baseProfile="basic"><path fill="#7289da" d="M24,4c11.046,0,20,8.954,20,20s-8.954,20-20,20S4,35.046,4,24S12.954,4,24,4z"/><path fill="#fff" d="M36,33H12.012c-1.105,0-2-0.895-2-2V17c0-1.105,0.895-2,2-2H36c1.105,0,2,0.895,2,2v14 C38,32.105,37.105,33,36,33z"/><path fill="#7289da" d="M31.364,21.545h-5.727c-0.452,0-0.818-0.366-0.818-0.818c0-0.452,0.366-0.818,0.818-0.818h5.727 c0.452,0,0.818,0.366,0.818,0.818C32.182,21.18,31.815,21.545,31.364,21.545z"/><path fill="#7289da" d="M34.636,24.818h-9c-0.452,0-0.818-0.366-0.818-0.818s0.366-0.818,0.818-0.818h9 c0.452,0,0.818,0.366,0.818,0.818S35.088,24.818,34.636,24.818z"/><path fill="#7289da" d="M34.636,28.091h-9c-0.452,0-0.818-0.366-0.818-0.818c0-0.452,0.366-0.818,0.818-0.818h9 c0.452,0,0.818,0.366,0.818,0.818C35.455,27.725,35.088,28.091,34.636,28.091z"/><polygon fill="#7289da" points="13,29 13,19 21,24"/></svg>