<svg xmlns="http://www.w3.org/2000/svg"  viewBox="0 0 48 48" width="1600px" height="1600px" baseProfile="basic"><path fill="#d1d1d1" d="M24.5,5.13C15.94,5.13,9,12.07,9,20.63s6.94,15.5,15.5,15.5S40,29.191,40,20.63S33.06,5.13,24.5,5.13	z M24.5,27.13c-3.59,0-6.5-2.91-6.5-6.5s2.91-6.5,6.5-6.5s6.5,2.91,6.5,6.5S28.09,27.13,24.5,27.13z"/><rect width="9" height="21" x="9" y="21.13" fill="#d1d1d1"/><path fill="#d1d1d1" d="M34.978,27.637c-1.608,2.602-4.226,4.549-7.339,5.347l8.119,9.146l6.759-6L34.978,27.637z"/><rect width="5" height="20" x="11" y="20.13" fill="#212121"/><path fill="#212121" d="M24.5,7.13c-7.456,0-13.5,6.044-13.5,13.5s6.044,13.5,13.5,13.5c7.456,0,13.5-6.044,13.5-13.5	S31.956,7.13,24.5,7.13z M24.5,29.13c-4.694,0-8.5-3.806-8.5-8.5s3.806-8.5,8.5-8.5c4.694,0,8.5,3.806,8.5,8.5	S29.194,29.13,24.5,29.13z"/></svg>