<svg xmlns="http://www.w3.org/2000/svg"  viewBox="0 0 48 48" width="1600px" height="1600px"><path fill="#e0f7fa" d="M30.5,37H19c-3.314,0-6-2.686-6-6H5c0,7.18,5.82,13,13,13h12.5c2.553,0,4.925-0.769,6.903-2.083 l-4.727-5.366C32.008,36.839,31.273,37,30.5,37z"/><path fill="#e0f7fa" d="M16,19c-2.209,0-4-1.791-4-4c0-0.554,0.113-1.081,0.316-1.56L7.519,7.995C5.946,9.898,5,12.338,5,15 l0,0c0,6.075,4.925,11,11,11h7.381l-6.167-7H16z"/><path fill="#ffa726" d="M43,31.5C43,24.596,37.404,19,30.5,19H17.214l6.167,7H30.5c3.038,0,5.5,2.462,5.5,5.5 c0,2.264-1.369,4.208-3.324,5.051l4.727,5.366C40.775,39.678,43,35.851,43,31.5z"/><path fill="#ffa726" d="M16,11h16c2.209,0,4,1.791,4,4h7l0,0c0-6.075-4.925-11-11-11H16c-3.413,0-6.463,1.555-8.481,3.995 l4.797,5.445C12.924,12.006,14.344,11,16,11z"/></svg>