<svg xmlns="http://www.w3.org/2000/svg"  viewBox="0 0 48 48" width="1600px" height="1600px"><polygon points="5.287,30.958 3.34,29.081 14.713,26.042 15.287,27.958"/><path fill="#bdbdbd" d="M25.298,40.124L13,35V10.103c0-0.642,0.453-1.194,1.082-1.321l14.615-2.504L25.298,40.124z"/><path fill="#9e9e9e" d="M18.25,8.068l-4.168,0.714c-0.139,0.028-0.264,0.084-0.383,0.15l8.05,29.713l3.549,1.479	l1.346-13.403L18.25,8.068z"/><path fill="#616161" d="M40,40c-5.138,2.222-10.136,2.193-15,0V8.243c0-0.727,0.501-1.37,1.212-1.521	c4.431-0.944,8.663-1.033,12.646-0.039C39.537,6.852,40,7.485,40,8.186V40z"/><rect width="11" height="13" x="27" y="8" fill="#9e9e9e"/><path fill="#9e9e9e" d="M27,27v11.688c3.636,1.392,7.302,1.417,11,0V27H27z"/><path d="M31.665,36.725c-0.347,0-0.491-0.376-0.676-0.698c-0.275-0.479-0.234-1.324,0.245-1.599l7.98-4.268	c1.851-0.806,3.743-0.338,4.928,1.221c0.334,0.44,0.249,1.067-0.19,1.401c-0.442,0.335-1.068,0.249-1.401-0.19	c-0.617-0.813-1.503-1.032-2.492-0.617l-7.782,4.643C32.118,36.707,31.834,36.725,31.665,36.725z"/><rect width="11" height="3" x="27" y="11" fill="#bdbdbd"/><rect width="11" height="2" x="27" y="14" fill="#757575"/><circle cx="36" cy="24" r="1" fill="#b2ff59"/><polygon fill="#757575" points="16.969,18 16.969,27 15,25 15,20"/><path d="M32.335,36.581L32,34h-1.885c-6.206-1.561-12.211-0.789-12.466-0.756l-0.104,0.014l-2.123-0.215	C12.779,30.688,8.058,30.154,6,30.036V29l-2.713,0.048l0.085,2.411l0.645,0.133c0.099,2.148,0.801,9.392,5.787,10.389	c0.348,0.069,0.688,0.104,1.018,0.104c0.99,0,1.887-0.313,2.632-0.924c1.344-1.101,1.976-2.962,2.276-4.519	c0.484-0.214,0.997-0.197,1.536,0.026C18.305,40.373,20.915,45,26,45c2.049,0,3.578-0.681,4.546-2.024	c1.252-1.737,1.2-4.199,0.928-5.992L32.335,36.581z"/><path fill="#9fa8da" d="M10.196,40.211c0.807,0.161,1.458,0.029,1.987-0.403c0.95-0.777,1.427-2.39,1.648-3.753	c0.151-0.931-0.309-1.858-1.15-2.284c-1.707-0.865-3.879-1.257-5.478-1.434c-0.607-0.067-1.121,0.449-1.039,1.054	C6.532,36.096,7.599,39.691,10.196,40.211z"/><path fill="#f44336" d="M27.315,35.653c-2.757-0.448-5.331-0.474-7.086-0.407c-0.669,0.026-1.134,0.672-0.942,1.313	c0.787,2.634,2.65,6.631,6.713,6.631c1.388,0,2.343-0.39,2.922-1.191c0.717-0.992,0.797-2.53,0.658-3.903	C29.456,36.867,28.535,35.852,27.315,35.653z"/></svg>