<svg xmlns="http://www.w3.org/2000/svg"  viewBox="0 0 48 48" width="1600px" height="1600px"><path fill="#cfd8dc" d="M40.279,42H7.721c-1.025,0-2.015-0.439-2.715-1.205c-0.726-0.793-1.086-1.868-0.99-2.95l2.091-23.546C6.274,12.418,7.792,11,9.637,11h28.727c1.846,0,3.364,1.419,3.53,3.3l2.091,23.545c0.096,1.082-0.265,2.157-0.99,2.95C42.294,41.561,41.304,42,40.279,42z"/><path fill="#263238" d="M36.631,38H11.369C9.511,38,8,36.378,8,34.385V30h32v4.385C40,36.378,38.489,38,36.631,38z"/><path fill="#546e7a" d="M36.666,34H11.334c-0.915,0-1.769-0.392-2.403-1.103c-0.662-0.744-0.998-1.759-0.92-2.786l1.583-20.81C9.735,7.45,11.194,6,12.916,6h22.167c1.722,0,3.181,1.45,3.323,3.301l1.583,20.808c0.078,1.029-0.258,2.043-0.92,2.787C38.435,33.608,37.582,34,36.666,34z"/><path fill="#455a64" d="M8.856,19L8.011,30.11c-0.078,1.028,0.258,2.042,0.92,2.786C9.565,33.608,10.419,34,11.334,34h25.332c0.915,0,1.769-0.392,2.403-1.103c0.662-0.744,0.998-1.759,0.92-2.787L39.144,19H8.856z"/><path fill="#ffc107" d="M29.189,20L29.189,20c-1.937-2.264-6.708-1.879-6.708-3.389c0-0.734,0.529-1.274,1.644-1.274c1.116,0,1.963,0.742,3.114,0.742c0.646,0,1.471-0.27,1.471-1.191c0-1.483-3.018-1.888-4.604-1.888C21.991,13,19,13.832,19,17c0,1.647,1.141,2.463,2.634,3h-0.001C23.644,20.723,26,21.02,26,22.438c0,0.929-1.017,1.55-2.192,1.55c-1.655,0-2.963-0.989-3.88-0.989C19.204,23,18,23.247,18,24.583C18,26.688,22.828,27,24.596,27C25.653,27,30,26.37,30,22.307C30,21.313,29.682,20.575,29.189,20z"/><path fill="#ffb300" d="M27.892,19h-8.037c0.464,0.431,1.08,0.748,1.779,1h-0.001C23.644,20.723,26,21.02,26,22.438c0,0.929-1.017,1.55-2.192,1.55c-1.655,0-2.963-0.989-3.88-0.989C19.204,23,18,23.247,18,24.583C18,26.688,22.828,27,24.596,27C25.653,27,30,26.37,30,22.307c0-0.994-0.318-1.732-0.811-2.307C28.836,19.587,28.387,19.264,27.892,19z"/></svg>