<svg xmlns="http://www.w3.org/2000/svg"  viewBox="0 0 48 48" width="1600px" height="1600px"><path fill="#ffc107" d="M32 16.264V18h-2v-2h1.736c-3.156-3.09-7.471-5-12.236-5C9.835 11 2 18.835 2 28.5S9.835 46 19.5 46 37 38.165 37 28.5C37 23.735 35.09 19.42 32 16.264zM19.5 41C12.596 41 7 35.404 7 28.5 7 21.596 12.596 16 19.5 16c3.46 0 6.591 1.406 8.854 3.678v-.032h2.083v2.083h-.44C31.26 23.681 32 26.002 32 28.5 32 35.404 26.404 41 19.5 41zM38 8H40V10H38zM44 6H46V8H44zM44 2H46V4H44z"/><g><path fill="#36464e" d="M34 8H36V12H34zM32 12H34V14H32zM36 12H38V14H36zM38 6H42V8H38zM38 10H40V12H38zM42 4H44V6H42zM34 14v2h-2v1.5V18h-2v-2h-2v2h-2v1 1 2h-2c-1.481 2.353-2.393 4.325-4.5 8 0 0-4.761-6.986-7.5-6.986 0 0-1-.091-1 .913s1 1.826 1 1.826 3.7 3.443 5.435 9.377c.183.639.73 1.826 2.283 1.826.913 0 1.735-.73 2.283-1.826.913-1.826 3.926-7.381 6-10.13v-1h1 1v-.8V22h-.8H28v-1.5V20h2v2h2v-2h2v-1-1h2v-2-2H34z"/><path fill="#36464e" d="M30 14H34V16H30zM34 8H38V10H34z"/></g></svg>