<svg xmlns="http://www.w3.org/2000/svg"  viewBox="0 0 48 48" width="1600px" height="1600px"><rect width="1.5" height="9" x="22.75" y="1" fill="#78909c"/><rect width="9" height="1.5" x="19" y="4.75" fill="#78909c"/><rect width="1.5" height="9" x="40.75" y="19" fill="#5c6bc0"/><rect width="9" height="1.5" x="37" y="22.75" fill="#5c6bc0"/><rect width="1.5" height="9" x="4.75" y="19" fill="#78909c"/><rect width="9" height="1.5" x="1" y="22.75" fill="#78909c"/><rect width="1.5" height="9" x="22.75" y="37" fill="#5c6bc0"/><rect width="9" height="1.5" x="19" y="40.75" fill="#5c6bc0"/><rect width="17" height="3" x="15" y="22" fill="#e8762d"/><rect width="3" height="17" x="22" y="15" fill="#e8762d"/><rect width="2" height="14" x="11" y="6" fill="#ffa000"/><rect width="14" height="2" x="5" y="12" fill="#ffa000"/><rect width="2" height="14" x="34" y="6" fill="#607d8b"/><rect width="14" height="2" x="28" y="12" fill="#607d8b"/><rect width="2" height="14" x="11" y="27" fill="#c62828"/><rect width="14" height="2" x="5" y="33" fill="#c62828"/><rect width="2" height="14" x="34" y="27" fill="#0d47a1"/><rect width="14" height="2" x="28" y="33" fill="#0d47a1"/></svg>