<svg xmlns="http://www.w3.org/2000/svg"  viewBox="0 0 48 48" width="1600px" height="1600px"><path fill="#29b6f6" d="M6,10c0-2.209,1.791-4,4-4h28c2.209,0,4,1.791,4,4v28c0,2.209-1.791,4-4,4H10c-2.209,0-4-1.791-4-4	V10z"/><path fill="#e0f7fa" d="M14.5,18v1c0,0.276,0.224,0.5,0.5,0.5h2.5V30c0,0.276,0.224,0.5,0.5,0.5h2 c0.276,0,0.5-0.224,0.5-0.5V19.5H23c0.276,0,0.5-0.224,0.5-0.5v-1c0-0.276-0.224-0.5-0.5-0.5h-8C14.724,17.5,14.5,17.724,14.5,18z"/><path fill="#e0f7fa" d="M33,30.5h-4c-1.933,0-3.5-1.567-3.5-3.5v-9c0-0.276,0.224-0.5,0.5-0.5h2c0.276,0,0.5,0.224,0.5,0.5 v9c0,0.276,0.224,0.5,0.5,0.5h4c0.276,0,0.5,0.224,0.5,0.5v2C33.5,30.276,33.276,30.5,33,30.5z"/></svg>