<svg xmlns="http://www.w3.org/2000/svg"  viewBox="0 0 48 48" width="1600px" height="1600px"><path fill="#ef5350" d="M42,34c0,4.418-3.582,8-8,8H14c-4.418,0-8-3.582-8-8V14c0-4.418,3.582-8,8-8h20c4.418,0,8,3.582,8,8	V34z"/><path fill="#fff" d="M35.897,17.469c-0.084-0.177-0.214-0.331-0.389-0.434l-11-5.896C24.351,11.046,24.176,11,24,11	s-0.351,0.046-0.508,0.139l-11,5.896c-0.171,0.101-0.299,0.25-0.384,0.423L23,24.232L24,37l1-12.767L35.897,17.469z"/><path fill="#81d4fa" d="M24,37c0.184,0,0.368-0.051,0.53-0.152l11-6.25C35.822,30.415,36,30.095,36,29.75V17.896	c0-0.151-0.04-0.295-0.103-0.427L24,23.854V37z"/><path fill="#b2ebf2" d="M24,23.854l-11.892-6.397C12.042,17.592,12,17.74,12,17.896V29.75c0,0.345,0.178,0.665,0.47,0.848	l11,6.25C23.632,36.949,23.816,37,24,37V23.854z"/></svg>