<svg xmlns="http://www.w3.org/2000/svg"  viewBox="0 0 48 48" width="1600px" height="1600px" clip-rule="evenodd"><path fill="#4caf50" fill-rule="evenodd" d="M23.501,44.125c11.016,0,20-8.984,20-20 c0-11.015-8.984-20-20-20c-11.016,0-20,8.985-20,20C3.501,35.141,12.485,44.125,23.501,44.125z" clip-rule="evenodd"/><path fill="#fff" fill-rule="evenodd" d="M43.252,27.114C39.718,25.992,38.055,19.625,34,11l-7,1.077 c1.615,4.905,8.781,16.872,0.728,18.853C20.825,32.722,17.573,20.519,15,14l-8,2l10.178,27.081c1.991,0.67,4.112,1.044,6.323,1.044 c0.982,0,1.941-0.094,2.885-0.232l-4.443-8.376c6.868,1.552,12.308-0.869,12.962-6.203c1.727,2.29,4.089,3.183,6.734,3.172 C42.419,30.807,42.965,29.006,43.252,27.114z" clip-rule="evenodd"/></svg>