<svg xmlns="http://www.w3.org/2000/svg"  viewBox="0 0 48 48" width="1600px" height="1600px"><defs opacity=".43"><polygon id="S7MgWjNPQk7ZMnf57O7Nua" points="-18,-62.075 -67,-62.075 -68,-112.925 -19,-112.925" opacity=".43"/></defs><path fill="#c62828" d="M24,42c-1.166,0-2.276-0.509-3.037-1.396L8.083,25.576C4.006,20.82,4.086,13.6,8.59,9.247 C13.22,4.772,20.517,4.86,25.037,9.38l2.377,2.377c0.781,0.781,0.781,2.047,0,2.828l-2.828,2.829c-0.781,0.781-2.048,0.781-2.829,0 l-2.245-2.246c-1.384-1.384-3.638-1.619-5.142-0.366c-1.62,1.349-1.807,3.707-0.451,5.289l9.852,11.494l10.43-14.147 C35.332,15.905,37.125,15,39.031,15H45L27.215,40.38c-0.725,0.979-1.855,1.574-3.072,1.617C24.095,41.999,24.047,42,24,42z"/></svg>