<svg xmlns="http://www.w3.org/2000/svg"  viewBox="0 0 48 48" width="1600px" height="1600px"><path fill="#b71c1c" d="M34,42H14c-4.411,0-8-3.589-8-8V14c0-4.411,3.589-8,8-8h20c4.411,0,8,3.589,8,8v20	C42,38.411,38.411,42,34,42z"/><path fill="#fff" d="M30.545,13c-2.727,0-3.818,1.095-4.909,2.19c-1.636,1.643-4.159,7.659-3.279,11.965	c0.089,0.394-0.238,0.631-0.539,0.631c-0.225,0-0.386-0.128-0.529-0.395c-1.348-2.986-1.105-10.403,2.074-13.605	C22.327,13.322,21.104,13,19.636,13C16.364,13,12,15.054,12,22.31C12,30.935,17.455,36,22.091,36C30.955,36,36,22.857,36,18.065	C36,14.506,33.273,13,30.545,13z"/></svg>