<svg xmlns="http://www.w3.org/2000/svg"  viewBox="0 0 48 48" width="1600px" height="1600px"><path fill="#9e9e9e" d="M41.415,14c-3.592,0-5.842,2.5-5.842,2.5c-1.196-1.559-2.844-2.496-5.633-2.496c-2.944,0-4.896,2.496-4.896,2.496C23.847,14.94,21.687,14,20,14c-2.609,0-4.681,1.154-5.945,4.06L9.82,27.322L5.03,15.558c-0.603-1.33-2.095-1.933-3.487-1.311c-1.394,0.623-1.907,2.178-1.278,3.509l5.847,13.19C7.033,32.95,8.002,34,9.821,34c1.943,0,2.79-1.143,3.709-3.053c0,0,3.982-8.883,4.47-9.947s1.299-2,2.5-2c1.375,0,2.5,1.125,2.5,2.5v9.876C23,32.819,24.087,34,25.522,34C26.957,34,28,32.819,28,31.376V21.5c0-1.375,1.125-2.5,2.5-2.5s2.5,1.125,2.5,2.5v10c0,1.375,1.125,2.5,2.5,2.5s2.5-1.125,2.5-2.5v-10c0-1.375,1.125-2.5,2.5-2.5s2.5,1.125,2.5,2.5v10c0,1.375,1.125,2.5,2.5,2.5s2.5-1.125,2.5-2.5v-0.564V21.5v-1.143C48,16.619,45.011,14,41.415,14z"/></svg>