<svg xmlns="http://www.w3.org/2000/svg"  viewBox="0 0 48 48" width="1600px" height="1600px"><path fill="#1565c0" d="M42.822,36H5.178C4.527,36,4,35.473,4,34.822V9.178C4,8.527,4.527,8,5.178,8h37.644 C43.473,8,44,8.527,44,9.178v25.644C44,35.473,43.473,36,42.822,36z"/><path fill="#f5f5f5" d="M41.12,34H6.88C6.394,34,6,33.606,6,33.12V10.88C6,10.394,6.394,10,6.88,10H41.12 c0.486,0,0.88,0.394,0.88,0.88V33.12C42,33.606,41.606,34,41.12,34z"/><path fill="#1565c0" d="M33.563,40H14.437C14.195,40,14,39.805,14,39.563v-1.127C14,38.195,14.195,38,14.437,38h19.127 C33.805,38,34,38.195,34,38.437v1.127C34,39.805,33.805,40,33.563,40z"/><rect width="8" height="3" x="20" y="35" fill="#1565c0"/><path fill="#1565c0" d="M24.096,16.181l-3.191-4.469l-4.257,2.326l2.15,5.38C20.179,17.808,22.169,16.961,24.096,16.181z"/><path fill="#1565c0" d="M29.341,25.8c-1.388,1.501-3.494,2.442-5.359,2.998l3.113,4.36l4.257-2.326L29.341,25.8z"/><path fill="#1565c0" d="M26.534,16.913c0.001,0.001,0.002,0.001,0.003,0.003c0.028,0.03,0.038,0.042,0.058,0.064 c0.345,0.252,0.688,0.507,1.026,0.768c0.652,0.503,1.212,1.088,1.729,1.715l2.267-5.186l-4.181-2.461l-2.839,3.719 C25.39,15.75,26.113,16.223,26.534,16.913z"/><path fill="#1565c0" d="M22.807,28.168c-1.514-0.727-2.951-1.507-4.257-2.531l-2.166,4.956l4.181,2.461l3.454-4.526 C23.6,28.47,23.188,28.351,22.807,28.168z"/><path fill="#1565c0" d="M30.005,19.498c0.449,2.249-0.401,4.242-1.448,6.184l6.302-0.671l0.067-4.851L30.005,19.498z"/><path fill="#1565c0" d="M19.225,19.211l-6.084,0.648l-0.067,4.851l6.477,0.872C18.635,23.571,18.885,21.38,19.225,19.211z"/><path fill="#1565c0" d="M23.944,14.565c-4.239,0-7.676,3.437-7.676,7.676c0,4.239,3.437,7.676,7.676,7.676 s7.676-3.437,7.676-7.676C31.62,18.002,28.184,14.565,23.944,14.565z M23.944,26.058c-2.108,0-3.817-1.709-3.817-3.817 s1.709-3.817,3.817-3.817s3.817,1.709,3.817,3.817S26.052,26.058,23.944,26.058z"/></svg>