<svg xmlns="http://www.w3.org/2000/svg"  viewBox="0 0 48 48" width="1600px" height="1600px"><path fill="#26a69a" d="M33.25,41.021h-18.5c-0.357,0-0.688-0.19-0.866-0.5L4.634,24.5C4.357,24.021,4.521,23.41,5,23.134 c0.477-0.276,1.089-0.113,1.366,0.366l8.961,15.521h17.346L41.346,24L32.673,8.979H15.327L9.253,19.5 c-0.276,0.478-0.89,0.642-1.366,0.366C7.408,19.59,7.244,18.979,7.521,18.5l6.363-11.021c0.179-0.31,0.509-0.5,0.866-0.5h18.5 c0.357,0,0.688,0.19,0.866,0.5l9.25,16.021c0.179,0.31,0.179,0.69,0,1l-9.25,16.021C33.938,40.831,33.607,41.021,33.25,41.021z"/><path fill="#26a69a" d="M42,25H6c-0.553,0-1-0.447-1-1s0.447-1,1-1h36c0.553,0,1,0.447,1,1S42.553,25,42,25z"/><path fill="#26a69a" d="M30.375,36.042h-12.75c-0.357,0-0.688-0.19-0.866-0.5L10.384,24.5c-0.179-0.31-0.179-0.69,0-1 l6.375-11.042c0.179-0.31,0.509-0.5,0.866-0.5h12.75c0.553,0,1,0.447,1,1s-0.447,1-1,1H18.202L12.404,24l5.798,10.042h11.596 L35.596,24l-3.176-5.5c-0.276-0.479-0.112-1.09,0.366-1.366c0.477-0.277,1.089-0.113,1.366,0.366l3.464,6 c0.179,0.31,0.179,0.69,0,1l-6.375,11.042C31.062,35.852,30.732,36.042,30.375,36.042z"/><path fill="#26a69a" d="M27.463,31c-0.17,0-0.342-0.043-0.499-0.134c-0.479-0.276-0.643-0.888-0.366-1.366l3.176-5.5 l-2.887-5h-5.773l-2.887,5l3.176,5.5c0.276,0.479,0.112,1.09-0.366,1.366c-0.478,0.275-1.09,0.112-1.366-0.366l-3.464-6 c-0.179-0.31-0.179-0.69,0-1l3.464-6c0.179-0.31,0.509-0.5,0.866-0.5h6.928c0.357,0,0.688,0.19,0.866,0.5l3.464,6 c0.179,0.31,0.179,0.69,0,1l-3.464,6C28.145,30.82,27.809,31,27.463,31z"/><path fill="#26a69a" d="M17.624,36.042c-0.17,0-0.342-0.043-0.499-0.134c-0.479-0.276-0.643-0.888-0.366-1.366L32.384,7.479 C32.66,7,33.271,6.836,33.75,7.112S34.393,8,34.116,8.479L18.491,35.542C18.306,35.862,17.97,36.042,17.624,36.042z"/><path fill="#26a69a" d="M33.251,41.021c-0.346,0-0.682-0.179-0.867-0.5l-18.5-32.043C13.607,8,13.771,7.389,14.25,7.112 c0.477-0.276,1.089-0.113,1.366,0.366l18.5,32.043c0.276,0.479,0.112,1.09-0.366,1.366C33.593,40.979,33.421,41.021,33.251,41.021z"/></svg>