<svg xmlns="http://www.w3.org/2000/svg"  viewBox="0 0 48 48" width="1600px" height="1600px" baseProfile="basic"><path fill="#6d4c41" d="M23.378,45.584c0.247,0.082,7.21,0.979,11.1-0.082c3.618-0.987,4.604-2.96,4.604-2.96	s-0.407-6.157-0.493-7.153c-0.164-1.891-1.683-2.671-3.618-2.055c-1.809,0.576-3.063,1.843-3.864,3.124	c-1.644,2.631-2.22,7.235-2.22,7.482S23.378,45.584,23.378,45.584z"/><path fill="#6d4c41" d="M13.688,41.639l-0.644-3.937l-1.324-1.109c0,0,0.291-4.808,1.61-7.265	c1.038-1.933,3.114-2.97,3.114-2.97s-3.615,0.215-5.069,2.536c-1.273,2.031-1.398,4.275-1.398,5.755c0,1.48,0.082,2.631,0.329,3.124	c0.247,0.493,1.486,1.36,1.486,1.36L13.688,41.639z"/><path fill="#6d4c41" d="M25.68,32.264c0,0,0.067-1.179,1.069-1.727c2.148-1.174,4.009-2.677,4.689-4.181	c0.606-1.34,0.623-2.864,0.491-4.206c-0.133-1.341-0.956-3.811-0.956-3.811s-0.143,2.827-1.182,5.373	c-0.848,2.078-2.325,3.574-3.828,5.149C25.276,29.582,24.675,31.117,25.68,32.264z"/><path fill="#6d4c41" d="M31.518,28.565c0,0,1.151-0.987,1.644-2.878c1.891,1.562,2.571,2.46,2.428,3.355	c-0.137,0.855-0.783,1.661-1.934,2.236c-1.151,0.576-4.275,1.727-5.098,3.618c0.125-3.242,3.346-3.993,3.782-5.098	C32.744,28.776,31.518,28.565,31.518,28.565z"/><path fill="#6d4c41" d="M28.64,23.467c0.402-1.522,0.508-3.229,0.535-4.13c0.383-0.645,0.826-1.516,1.192-2.612	c-1.562-0.329-2.795-0.987-2.795-0.987l-2.138,1.809l0.082-2.055l-1.809,0.247c0,0,0.247,2.467-1.233,3.289	c-1.48,0.822-3.124,0.658-3.535-0.493c-0.289-0.808-0.493-2.138-0.493-2.138l-3.535,0.822c0,0,0.247,3.453,1.069,5.427	s1.809,3.124,3.124,2.96S22.72,24.7,24.2,23.631c0.697-0.503,1.648-1.206,2.461-1.81c-0.268,0.646-0.669,1.416-1.227,1.975	c-1.151,1.151-3.947,2.384-6.167,2.795c-2.384,1.891-3.289,3.453-3.535,5.015c-0.247,1.562,0,4.933-0.247,6.249	c-0.247,1.316-0.74,4.604-0.74,4.604l3.289,1.727c0,0,1.069-4.275,2.878-6.167s5.18-4.522,5.18-4.522s-2.96-1.562-1.727-3.7	C25.598,27.66,28.257,24.918,28.64,23.467z"/><path fill="#6d4c41" d="M24.94,14.341c0,0-3.947,0.247-6.495,0.658c-1.851,0.299-3.453,0.822-3.453,0.822l-0.329-2.878	c0,0,3.371-0.164,6.331,0.329S24.94,14.341,24.94,14.341z"/><path fill="#6d4c41" d="M31.271,15.903l0.576-1.973c0,0-3.613-1.911-4.851-2.878c-2.094-1.635-3.124-3.207-6.66-3.535	c-2.135-0.199-3.346,0.569-4.207,1.078c-1.001,0.591-1.713,1.553-1.713,1.553l0.164,1.644c0,0,2.549-0.493,5.591,0.164	c3.042,0.658,6.084,1.809,7.153,2.467C28.394,15.081,31.271,15.903,31.271,15.903z"/><path fill="#6d4c41" d="M14.827,8.421c0,0,2.867-2.528,5.805-2.92c2.937-0.392,4.718,0.34,6.031,2.311	c1.488,2.232,2.261,2.841,2.976,3.446c0.509,0.431,1.253,0.862,2.289,1.356c0.329-3.618-0.822-6.002-1.891-7.235	c-0.926-1.069-3.371-1.973-5.509-2.138c-2.138-0.164-5.015,0.576-6.578,1.644C15.553,6.527,14.827,8.421,14.827,8.421z"/></svg>