<svg xmlns="http://www.w3.org/2000/svg"  viewBox="0 0 48 48" width="1600px" height="1600px"><path fill="#ffcc80" d="M41.375,38C41.735,38.171,47,35.882,47,32h-6v6H41.375z"/><path fill="#ffb74d" d="M41.5,38c1.625-0.5,2.5-2.25,2.5-3h-3v3H41.5z"/><path fill="#37474f" d="M26.276,41.145c0,0-0.922,0.855-4.276,0.855c-4.792,0-8-2-8-2c0-4,1-7,1-7s-2.083,2.125-4,5	c-4-2-8-7-8-7s2.208-3.167,7-7c-4.792,0-9,2-9,2c0-4.117,1.474-8.177,2.311-10.044c0.355-0.792,0.962-1.434,1.736-1.826	C7.414,12.93,12.25,12,16.875,12C20.708,12,23,13,23,13s2-7,12.532-11.875C35.756,1.021,36.006,0.995,36.25,1	c0.262,0.006,0.524,0.064,0.767,0.175C38.442,1.826,41.125,4,42,5c-4.125,1.75-5,4-5,4s3-1,7-1c0,0,3,0.417,3,10	c-2.396-1.557-6-2-6-2c3.354,2.396,4,5,4,5s-0.396,3.854-3.75,6.729L26.276,41.145z"/><path fill="#eee" d="M42.2,34.99L41,40v2c0,0-0.53,0.53-2,0.82C38.47,42.93,37.81,43,37,43h-5c-1.1,0-2.1-0.45-2.83-1.17	C28.45,41.1,28,40.1,28,39c0-2.21,1.79-4,4-4h5L42.2,34.99z"/><path fill="#e0e0e0" d="M39,35v7.82C38.47,42.93,37.81,43,37,43v-8H39z"/><rect width="2" height="8" x="33" y="35" fill="#e0e0e0"/><path fill="#ffcc80" d="M47,31.938c0-0.218-0.108-0.403-0.266-0.529c0,0-0.213-0.15-0.359-0.24	C45.089,30.377,42,28.553,42,27c0,0,0-0.88,0-2c0-0.95-0.08-2.08-1-3c-0.71-0.71-2.12-1-2.12-1S36,16.37,31,16c-4,1.75-4,9-4,9	s-1.5,0-3-2c0,0-1,2-1,8v1.1c0,2.62,0,6.9,0,6.9h1.12c0,0,1.11,0.59,1.63,2.69C25.9,42.31,26,43.08,26,44v3h12v-1c0-1.62,4-3,4-4.75	C42,40,41,40,41,40s-0.75,2-5,2c-5,0-6-2-6-3c0-0.9,1-2,3-2c11,0,14-3.829,14-5C47,31.995,47,31.954,47,31.938z"/><circle cx="24" cy="37" r="3" fill="#ffcc80"/><path fill="#ffb74d" d="M25,37c0,0.207,0,1,0,1s-0.655,0-1,0c-0.552,0-1-0.448-1-1s0.448-1,1-1S25,36.448,25,37z"/><path fill="#eee" d="M26,29.999c0,0,0,2,3,2c1,0,3-0.375,3-1.25c0-1.25-1.75-2.75-3.75-2.75	C27,27.999,26,28.874,26,29.999z"/><path fill="#eee" d="M40.5,22.999c-1,0-2.5,0.75-2.5,3.375c0,1.5,0.75,1.625,1,1.625c1,0,3-1.25,3-3.25	C42,23.749,41.375,22.999,40.5,22.999z"/><circle cx="27" cy="29.999" r="1" fill="#212121"/><path fill="#ffb74d" d="M34,32c0,0,1.125-2,2.75-2c1.125,0,2.25,1,2.25,1s-0.875-3-2.875-3C34.25,28,34,32,34,32z"/><path fill="#212121" d="M39,25c-0.476,0-0.855,0.339-0.956,0.784c-0.01,0.102-0.018,0.207-0.023,0.317	C38.073,26.603,38.483,27,39,27c0.552,0,1-0.448,1-1C40,25.448,39.552,25,39,25z"/></svg>