<svg xmlns="http://www.w3.org/2000/svg"  viewBox="0 0 48 48" width="1600px" height="1600px" baseProfile="basic"><path fill="#b71c1c" d="M41,26c0,0,2-4,2-6s-23-3-32-3c-6,0-7,1-7,2c0,2,3,6,3,6L41,26z"/><path fill="#4e342e" d="M36.368,8.599c-0.692-0.638-2.442,1.453-3.091,2.565c-0.649,1.113,1.638,2.195,2.349,1.082	S37.018,9.197,36.368,8.599z"/><path fill="#dce775" d="M43.394,30.335c0,0,0,3.838-2.112,3.838c-0.792,0-2.112-1.253-2.112-3.838H43.394z"/><path fill="#4e342e" d="M29.321,8c-0.649,0-1.329,1.217-1.329,2.886s2.782,1.298,2.782,0S29.909,8,29.321,8z"/><path fill="#827717" d="M37,14c-0.897-2.305-5-3-8-3s-7,1-12,7s-6,7-6,7s4,9,7,12s11,3,12,3s6,0,9-5c2,0,3-3,3-3c1,0,4-1,2-3	s-4-4-5-7c1-1-0.134-2.179-0.134-2.179L37,14z"/><ellipse cx="30" cy="19.5" fill="#ffd54f" rx="4" ry="3.5"/><ellipse cx="35.5" cy="19" fill="#ffd54f" rx="3.5" ry="3"/><path fill="#827717" d="M25,16c0,0,2.766,2,7,2c2.5,0,4.071,0,6-1c2.807-1.456,0.615-3-1-3L25,16z"/><path fill="#f44336" d="M4,19c3,2,7,2,7,2s4.034,10.81,8.034,16.81C13.674,37.035,4,26,4,19z"/><path fill="#dce775" d="M34,32c0,0-0.684,3-2,3c-1,0-1.775-0.807-2-4L34,32z"/><path fill="#dce775" d="M30.519,31c0,0,0,3.485-1.915,3.485c-0.718,0-1.915-1.138-1.915-3.485H30.519z"/><path fill="#dce775" d="M27.417,31c0,0,0,3-1.708,3c-0.641,0-1.564-1.204-1.708-3H27.417z"/><path fill="#827717" d="M44,29c-2-2-4-4-5-7l-18.508,5.015v4.113c0,0,1.487-0.514,4.038,0C35.229,33.284,39.029,32.642,42,32	C43,32,46,31,44,29z"/><path fill="#4e342e" d="M23.758,8.135c-0.571,0.446-0.835,3.4,0,5.193c0.835,1.793,2.936-0.247,3.153-0.773	c0.216-0.525,0.247-1.082-0.525-2.225C25.612,9.186,24.747,7.362,23.758,8.135z"/><path fill="#4e342e" d="M29.282,18.147c0.473,0,0.532,3.349,0,3.349C28.751,21.495,28.77,18.147,29.282,18.147z"/><path fill="#4e342e" d="M36.657,17.907c0.222-0.083,0.657,0.452,0.77,1.38c0.085,0.699-0.019,1.387-0.285,1.387	c-0.359,0-0.101-0.696-0.206-1.341C36.815,18.593,36.408,18,36.657,17.907z"/><path fill="#736914" d="M39,22c-0.474,0.751-1.333,0.875-2.742,1C37.941,24,39.253,23,39,22z"/><path fill="#736914" d="M32.328,23c-0.851,0.925-3.142,1.385-4.848,0.707C28.859,25.577,32.202,25.086,32.328,23z"/><path fill="#736914" d="M20.086,31.448l0.268-0.931c-1.14,0.909-1.32,2.451-1.32,2.451s0.475-0.625,1.054-0.945	c0.871-0.482,2.081-0.865,3.978-0.498L24,31C22.03,30.516,20.997,30.918,20.086,31.448z"/><path fill="#736914" d="M42,32c-1.826,0.5-3.935,0.615-8.141,0.512l-0.207,0.603c0,0,5.238,0.333,8.097-0.508L42,32z"/><path fill="#736914" d="M27.114,17.08c-0.809-0.348-1.405-0.65-1.405-0.65s0.456,0.721,1.001,1.082L27.114,17.08z"/><path fill="#b71c1c" d="M9.666,23c0,0-3.318-0.413-5.312-1.497c1.469,5.667,7.285,12.633,11.946,15.269	C12.339,29.806,9.666,23,9.666,23z"/></svg>