<svg xmlns="http://www.w3.org/2000/svg"  viewBox="0 0 48 48" width="1600px" height="1600px"><path fill="#ff5252" d="M10,46c0,0,0-8.174,0-12c0-10.522-3-11.913-3-20.522C7,5.826,12.602,2,19.14,2	c8.405,0,13.074,5.261,14.942,12.435c0.146,0.561,0.938,1.236,1.731,1.615C36.463,16.36,37,17,37,18v1v20l-10,6v1H10z"/><path fill="#e53935" d="M31,22l-1,0.5c0,6.5,7,8.5,7,8.5v-9H31z"/><circle cx="22" cy="22" r="5" fill="#b2ebf2"/><circle cx="23" cy="22" r="1" fill="#212121"/><circle cx="34.5" cy="22.5" r="4.5" fill="#b2ebf2"/><circle cx="36" cy="22" r="1" fill="#212121"/><path fill="#ff5252" d="M38,31c-3-4-8-6-8-8.5h-3.05C26.695,25.023,24.59,27,22,27v19c0,0,3.895,0,5,0s2-0.895,2-2	c0,1.105,0.895,2,2,2s2-0.895,2-2c0-0.156,0-0.512,0-1c0,1.105,0.895,2,2,2s2-0.895,2-2c0-0.326,0-1.504,0-3c0,1.105,0.895,2,2,2	s2-0.895,2-2C41,37,39.697,33.263,38,31z"/><path fill="#e53935" d="M33.763,31C35.421,32.983,37,35.251,37,40c0,1.1,0.9,2,2,2v-2C39,33,33.763,31,33.763,31z"/><path fill="#e53935" d="M31,44c0-8-5-11-5-11s3,2,3,11c0,1.1,0.9,2,2,2V44z"/><path fill="#e53935" d="M30,32c0,0,3,2,3,11c0,1.1,0.9,2,2,2v-2C35,34,30,32,30,32z"/><path fill="#e53935" d="M22,34c0,0,3,3,3,10c0,1.1,0.9,2,2,2v-2C27,37,22,34,22,34z"/><path fill="#e53935" d="M22,30c-1.885,0-3.616-0.659-4.985-1.754C17.09,29.108,17.594,32,21,32c2.25,0,3-2,3.098-2.289	C23.428,29.894,22.727,30,22,30z"/></svg>