<svg xmlns="http://www.w3.org/2000/svg"  viewBox="0 0 48 48" width="1600px" height="1600px"><path fill="#90a4ae" d="M33,19v-5.125c0-4.418-3.582-8-8-8h-8c-4.418,0-8,3.582-8,8c0,0,0,28.934,0,29.125c0,2.209,6,4,15,4	c7,0,10-1,10-1v-4c0-1-1-1-1-1v-7.562C34.359,33.211,35,33,35,33v-5L33,19z"/><path fill="#b0bec5" d="M16,30c-1.761,0-4-2.239-4-5l0-5c0-2.737,2.208-4.989,4.945-5c3.043-0.012,4.025,1,9.055,1	c4,0,7-1,7-1l2.683,1.342C37.716,17.358,39,19.436,39,21.708V26c0,2.209-1.791,4-4,4H16z"/><path fill="#212121" d="M15,25v-3c0-2.209,1.791-4,4-4h15c2.209,0,4,1.791,4,4v3c0,2.209-1.791,4-4,4H19	C16.791,29,15,27.209,15,25z"/><path fill="#ffe082" d="M28.5,18c-1.43,0-6.413,0-8,0c-3.038,0-5.5,2.462-5.5,5.5c0,3.038,2.462,5.5,5.5,5.5	c1.587,0,6.57,0,8,0c3.04,0,5.5-2.46,5.5-5.5C34,20.46,31.54,18,28.5,18z"/><path fill="#212121" d="M19.5,24h-1c-0.276,0-0.5-0.224-0.5-0.5v-1c0-0.276,0.224-0.5,0.5-0.5h1c0.276,0,0.5,0.224,0.5,0.5v1	C20,23.776,19.776,24,19.5,24z"/><path fill="#212121" d="M28.5,24h-1c-0.276,0-0.5-0.224-0.5-0.5v-1c0-0.276,0.224-0.5,0.5-0.5h1c0.276,0,0.5,0.224,0.5,0.5v1	C29,23.776,28.776,24,28.5,24z"/><path fill="#ffecb3" d="M16.881,42.559c0.013,0.002,0.025,0.004,0.037,0.007C18.97,42.841,21.351,43,24,43	c4.716,0,7.609-0.453,9-0.749v-8.812C31.396,33.707,28.789,34,25,34c-2.63,0-4.994-0.157-7.037-0.428c-0.011,0-0.023,0-0.034,0	c0,0-0.229-0.01-0.398-0.01c-2.503,0-4.531,2.029-4.531,4.531C13,40.373,14.689,42.242,16.881,42.559z"/><path fill="#ffcc80" d="M30,33.81v8.9c-0.59,0.06-1.26,0.12-2,0.17v-8.94C28.73,33.9,29.39,33.86,30,33.81z"/><path fill="#ffcc80" d="M24,33.99V43c-0.68,0-1.35-0.01-2-0.03v-9.04C22.64,33.96,23.31,33.98,24,33.99z"/><path fill="#ffcc80" d="M18,33.58v9.12c-0.37-0.04-0.73-0.08-1.08-0.13c-0.01-0.01-0.03-0.01-0.04-0.01	c-0.3-0.04-0.6-0.12-0.88-0.22v-8.51c0.48-0.18,0.99-0.27,1.53-0.27c0.17,0,0.4,0.01,0.4,0.01h0.03	C17.97,33.57,17.99,33.57,18,33.58z"/><polygon fill="#212121" points="22,19 25,21 28,19"/><polygon points="23,28 25,27 27,28"/><path fill="#cfd8dc" d="M34,19c1.657,0,3,1.343,3,3v4c0,1.105-0.895,2-2,2H19c-1.657,0-3-1.343-3-3v-3c0-1.657,1.343-3,3-3	H34 M34,17H19c-2.761,0-5,2.239-5,5v3c0,2.761,2.239,5,5,5h16c2.209,0,4-1.791,4-4v-4C39,19.243,36.757,17,34,17L34,17z"/><rect width="4" height="4" x="19" y="1" fill="#b0bec5"/><path fill="#cfd8dc" d="M21,7c-1.976,0-3.09-0.214-3.623-0.362c-0.235-0.065-0.409-0.284-0.372-0.524	C17.192,4.916,18.234,4,19.491,4h3.019c1.257,0,2.299,0.916,2.486,2.114c0.037,0.239-0.137,0.459-0.372,0.524	C24.09,6.786,22.976,7,21,7z"/></svg>