<svg xmlns="http://www.w3.org/2000/svg"  viewBox="0 0 48 48" width="1600px" height="1600px"><path fill="#ffcc80" d="M40.48,41.45C39.63,41.71,38.18,42,35.5,42c-0.86,0-1.69-0.07-2.48-0.17L33,42c0,1.01-1.69,1.97-3,3	c-1.28,1.01-2,2.09-2,3H16c0-5,1-7,1-11s0-4,0-4s-2-2-2-7c0-4,0-12,0-12h20v6c0,1,1.63,1.24,2.19,1.67	c0.49,0.37,0.81,0.92,0.81,1.54C38,24.2,37.2,25,36.21,25H35v7l2.17,3l1.345,2l2.315,3.26C41.16,40.67,40.98,41.29,40.48,41.45z"/><path fill="#ff6d00" d="M36,1v7c0,0-1.946-5.25-8-8c0,0,2,3.857,2,8c0,0-2.821-2-8-2c-6.214,0-8,4-8,4s-1.893,0.143-5-4	c0,3.107,2,6,2,6H5c3.91,1.026,5,3,5,3s-2,3-2,7c0,6.214,6,9,6,9c3.107,0,5,0,5,0v-2c0-7-2-9-2-9l4,1c0,0-0.287-3.101-3-5	c10.357,0,17,3,17,3c2,0,6-1.464,6-5.607C41,8.214,36,1,36,1z"/><circle cx="35" cy="27" r="4" fill="#eee"/><path fill="#ffb74d" d="M25.624,39.375c1.17,0.659,3.883,1.992,7.396,2.455L33,42c0,0.56-0.53,1.11-1.22,1.65	c-4.58-0.82-7.72-2.88-7.89-2.98C23.89,40.67,25,40,25.624,39.375z"/><path fill="#eee" d="M39,27c0,2.21-1.79,4-4,4c-0.83,0-1.61-0.26-2.25-0.69C31.69,29.59,31,28.37,31,27	c0-1.57,0.9-2.93,2.22-3.58C33.76,23.15,34.36,23,35,23C37.21,23,39,24.79,39,27z"/><circle cx="37" cy="27" r="1" fill="#212121"/><path fill="#ffcc80" d="M20,31.5c0,1.657-1.343,2.5-3,2.5s-3-1.343-3-3c0-1.657,1.093-3,2.75-3C19.25,28,20,30.25,20,31.5z"/><path fill="#ffcc80" d="M33,35c0,0,2.895,0,4,0s2-0.895,2-2c0-1.105-0.895-2-2-2h-4V35z"/><circle cx="30.5" cy="32.5" r="4.5" fill="#ffcc80"/><circle cx="27.5" cy="26.5" r="4.5" fill="#eee"/><circle cx="29" cy="27" r="1" fill="#212121"/><path fill="#ffb74d" d="M22,42c0,0,2-1.5,3-4c0,0,1,0.5,1,1.75C26,42,22,42,22,42z"/><path fill="#ffb74d" d="M38.515,37h-0.14C34.005,37,33,35,33,35h4.17L38.515,37z"/><path fill="#ffb74d" d="M18,31c0,0.254,0,1,0,1s-0.701,0-1,0c-0.552,0-1-0.448-1-1s0.448-1,1-1S18,30.448,18,31z"/></svg>