<svg xmlns="http://www.w3.org/2000/svg"  viewBox="0 0 48 48" width="1600px" height="1600px"><path fill="#ffcc80" d="M38,14.125C37,12.375,34.25,12,32,12c-0.75-1.25-2.5-2-4-2c-1.5-2.5-5-3-5-3s-6.636-4-11.409-4	C7.773,3,2,4.852,2,9.625c0,4.264,6.381,13.974,7.742,15.996C9.185,26.148,9,26.909,9,27.5C9,30,12,31,13,33	c0.938,1.877,1.665,2.861,2.99,2.977L16,36c0,1.909,0,6,0,6s2.545,3,14,3c0,0,1.465-3.255,2.591-3.818	c1.909-0.955,2.864-1.909,3.818-3.818C37.364,35.455,40,35.409,40,33.5c0-0.955,0-14.318,0-14.318L38,14.125z"/><path fill="#ffb74d" d="M16,36v1.987c0,0,0.164,0.013,0.25,0.013C18,38,18,36,18,35c0,0-0.5,1-1.75,1C16.158,36,16,36,16,36z"/><path fill="#ffb74d" d="M16,34c-1-3-3.707-5.293-3.707-5.293c-0.286-0.286-0.372-0.716-0.217-1.09	C12.23,27.243,12.596,27,13,27h2l-0.586,1C14.414,28,16,31,16,34z"/><path fill="#ffcc80" d="M39,25c0,0,1.578,1.007,2.182,2.818C42.136,30.682,46,30.545,46,31.5c0,0.75-1.625,1.5-7.875,1.5	c-1.909,0-3.648,0.807-4.125,2L39,25z"/><path fill="#ffb74d" d="M31.517,27c0.309,0.979,0.462,1.934,0.483,3.036c0.005,0.537-0.074,1.088-0.281,1.644	c-0.105,0.277-0.245,0.556-0.438,0.821l-0.43,0.559c-0.471,0.661-0.871,1.42-1.24,2.253c-0.377,0.833-0.708,1.722-1.148,2.687	c-0.43-0.976-0.532-2.03-0.422-3.079c0.111-1.048,0.483-2.113,1.166-3.032c0.082-0.116,0.182-0.222,0.273-0.332l0.139-0.162	l0.083-0.083c0.108-0.12,0.218-0.263,0.326-0.423c0.217-0.322,0.417-0.71,0.62-1.122C31.066,28.961,31.185,27.958,31.517,27z"/><circle cx="9.5" cy="8.5" r="1.5" fill="#a1887f"/><circle cx="9" cy="14" r="1" fill="#a1887f"/><path fill="#80cbc4" d="M31.04,18.073c0.182-0.908,1.128-1.66,1.838-1.967c0.082-0.036,4.26-1.752,4.26-1.752L38,23l-7-3	v-1.927"/><path fill="#455a64" d="M9.747,25.628c1.643-1.206,5.262-2.704,9.661-3.508l-0.359-1.967	c-4.171,0.761-8.246,2.269-10.399,3.803C9.128,24.702,9.512,25.279,9.747,25.628z"/><ellipse cx="38.5" cy="18.5" fill="#b2ebf2" rx="3.5" ry="4.5"/><path fill="#ffb74d" d="M41.182,27.818C40.578,26.007,39,23,36,23c-2.75,0-2.975,1.5-2.975,2c0,2.875,3.564,3.472,5.35,3.689	c0.584,0.071,1.137,0.139,1.574,0.25c0.887,0.224,1.425,0.442,1.857,0.618c0.392,0.159,0.794,0.321,1.259,0.397	C42.27,29.509,41.531,28.865,41.182,27.818z"/><path fill="#ffcc80" d="M36,23c0,0-1,0.5-1,1.5c0,2.375,3.262,1.95,5.44,2.5c1.978,0.5,2.505,1,3.165,1c1.055,0,0-5-3.165-7	c-3.165-2-7.385-2-7.385-2H31v2L36,23z"/><path fill="#80cbc4" d="M26.88,15.199c0,0-5.848,1.967-5.886,1.982C19.849,17.611,19,18.924,19,21.031	C19,23.223,20.617,25,22.147,25H28L26.88,15.199z"/><ellipse cx="28" cy="20" fill="#b2ebf2" rx="4" ry="5"/><path fill="#ffb74d" d="M40,33.5v-0.527C39.424,32.99,38.807,33,38.125,33c-1.909,0-3.648,0.807-4.125,2h5.186	C39.661,34.624,40,34.181,40,33.5z"/><path fill="#ffb74d" d="M22,15c-6.375,0-7,3-7,3s0-5,4-5C21.5,13,22,15,22,15z"/><path fill="#ffb74d" d="M19,11c-3.75,0-5.375,1.375-6,3c0,0,0-5,2.857-5C18,9,19,11,19,11z"/></svg>