<svg xmlns="http://www.w3.org/2000/svg"  viewBox="0 0 48 48" width="1600px" height="1600px"><path fill="#ffccbc" d="M40,32.625c0,2.739,2,3.875,2,5.625h-7V46H21c0,0,1-2.925,1-5c0-2-1-3-1-3l-3-3c0,0-4-3-4-11	s4.212-13,13-13c12,0,13,11,13,13V32.625z"/><path fill="#f06292" d="M40.625,37c-1.125,0-1.75,1-2.375,1C37.271,38,37,37,35,37c-3,0-4,2-7,2c1,1.5,3.5,3,6.5,3	c2,0,2.5-2,2.5-2s0.625,0,1,0c2,0,4-0.25,4-1.75C42,37.5,41.625,37,40.625,37z"/><path fill="#7b1fa2" d="M15.683,9.619C15.683,9.619,14,6,9.351,6C3.838,6,2,11,2,11s2-1,4-1c0,0-4,2-4,9.571	C2,25.905,7,31,7,37c0,4-2.201,7-2.201,7S17,44,20,37"/><circle cx="12.5" cy="13.5" r="2.5" fill="#546e7a"/><path fill="#ffab91" d="M36,25v5.195c-1.161,0.413-2,1.502-2,2.805c0,1.657,1.343,3,3,3s3-1.343,3-3C40,29.875,36,28.5,36,25	z"/><path fill="#ffccbc" d="M38,33c0,1.105-0.895,2-2,2s-2-0.895-2-2c0-0.598,0-8,0-8h2v5C36,31.5,38,31.5,38,33z"/><path fill="#f5f5f5" d="M39,26c0,2-1.563,6-6,6c-4,0-6-2.969-6-4.948C27,24.948,27.945,24,27.945,24S30,25,33,25s6-1,6-1	S39,25,39,26z"/><circle cx="30" cy="27" r="1" fill="#212121"/><path fill="#9c27b0" d="M43,21c0-6.391-0.522-9.603-6-12c2-2,5-2,5-2s-2.435-2-7-2c-4,0-6,1-6,1s0-2,3-4	c-6.391,0-16.174,2.87-18,12c0,0-6,1-6,8c0,5.478,5,12,11,12c0,0,0-1,1.452-1.55C21.255,33.177,22.539,34,24,34c0,0-1-1.125-1.5-5	c-0.482-3.734-1.761-7.174-4.5-9c3,0,5,1,5,1s-1.174-4.087-3-5c0,0,4,0,8.478,3.348C33.161,22.848,39,30,46,30	C46,30,43,27.734,43,21z"/><path fill="#7b1fa2" d="M22,29h-4c0,0-0.001,0.912,0,2c0.001,0.791,0.172,1.676,0.764,2.37	c0.826,0.969,1.904,1.862,3.236,2.315V29z"/><circle cx="21" cy="35" r="3" fill="#ffccbc"/><path fill="#9c27b0" d="M22,29l-4,0c0,0,2,5,6,5C24,34,22.5,32.375,22,29z"/><path fill="#ffab91" d="M22,35c0,0.254,0,1,0,1s-0.701,0-1,0c-0.552,0-1-0.448-1-1s0.448-1,1-1S22,34.448,22,35z"/></svg>