<svg xmlns="http://www.w3.org/2000/svg"  viewBox="0 0 48 48" width="1600px" height="1600px"><path fill="#cfd8dc" d="M32,4h12c0,0,0.5,7.75-9.5,10.75L32,11V4z"/><path fill="#b0bec5" d="M34,6c0,0,1,2,1,6c0,2,0,2,0,2h-5L34,6z"/><path fill="#ffccbc" d="M12,34.042c0,0,0.968,5.378,1,9.958h15c0-2,2-2,2-4c0-0.917,0-3,0-3h9c0-3.667-1-4.667-1-6.958	c0-2.313,1.999-5,1.999-5l0.001-4c0-2.406-2-4-2-4c-1-4-5.125-6-5.125-6L33,7H15c-3.866,0-7,3.134-7,7v10L12,34.042z"/><path fill="#cfd8dc" d="M4,24.125C5.833,27.792,9,29,9,29h3c0,0,1-1.969,1-3c0-4-3-5-3-9c0,0-1-8,7-8s11,8,11,8s6-4,6-11V4H4	V24.125z"/><path fill="#ec407a" d="M37.25,36C36,36,35,37,35,37s-1.036-1-2.75-1c-1.306,0-2.507,0.492-3.25,1h-8v2h7.036	c0.679,0.5,1.679,1,2.964,1c2.5,0,3-1,3-1h1.5c2.5,0,3.5-1.183,3.5-2C39,37,39,36,37.25,36z"/><path fill="#eee" d="M32,23.5c0,0.17,0.01,0.34,0.03,0.5c0.25,2.25,2.15,4,4.47,4c2.41,0,4.36-1.88,4.49-4.25	C41,23.67,41,23.58,41,23.5c0-0.17-0.03-0.33-0.05-0.5h-8.9L32,23.5z"/><path fill="#ffab91" d="M40.95,23h-8.9c0.04-0.35,0.12-0.68,0.24-1c0.6-1.75,2.26-3,4.21-3c1.88,0,3.48,1.16,4.14,2.8	C40.8,22.18,40.9,22.58,40.95,23z"/><circle cx="36" cy="24" r="1" fill="#212121"/><path fill="#ec407a" d="M18,40c0,0,2-1.5,3-4c0,0,1,0.5,1,1.75C22,40,18,40,18,40z"/><path fill="#ffab91" d="M28.944,23c-0.28-2.247-2.373-4-4.944-4s-4.664,1.753-4.944,4H28.944z"/><path fill="#eee" d="M19.056,23C19.035,23.166,19,23.329,19,23.5c0,2.485,2.239,4.5,5,4.5s5-2.015,5-4.5	c0-0.171-0.035-0.334-0.056-0.5H19.056z"/><path fill="#ffab91" d="M24,30c-2.625,0-4-1-4-1s0.625,3,4,3c2.769,0,3.738-1.82,4-3C28,29,26.625,30,24,30z"/><circle cx="22" cy="24" r="1" fill="#212121"/><path fill="#455a64" d="M29,23.5V24h-9c-5,0-4.95-3.87-5-4c0,0,2,2,5,2h8.68c0.13,0.32,0.22,0.65,0.26,1	C28.96,23.17,29,23.33,29,23.5z"/><path fill="#455a64" d="M32.05,23c0.04-0.35,0.12-0.68,0.24-1H39c0.59,0,1.13-0.08,1.64-0.2C42.71,21.29,44,20,44,20	c-0.04,0.11-0.01,2.88-3.01,3.75C40.44,23.91,39.78,24,39,24h-6.97H32v-0.5L32.05,23z"/><path fill="#ffab91" d="M32,23v1c0,0-2,3-2,6c0,1.657,1.343,3,3,3s3-1.343,3-3C36,27,32,26,32,23z"/><path fill="#ffccbc" d="M34,30c0,1.105-0.895,2-2,2c-1.105,0-2-0.895-2-2s0-6,0-6h2C32,27,34,28.5,34,30z"/><circle cx="11" cy="31" r="4" fill="#ffccbc"/><path fill="#ffab91" d="M12,31c0,0.254,0,1,0,1s-0.701,0-1,0c-0.552,0-1-0.448-1-1s0.448-1,1-1S12,30.448,12,31z"/></svg>