<svg xmlns="http://www.w3.org/2000/svg"  viewBox="0 0 48 48" width="1600px" height="1600px"><path fill="#c68632" d="M37,17c0,0.927,2.073,4.073,3,5c2,0.75,2,3,2,3l-5,14.875c0,0,0,2.375-2,3.125c0,0-1,4-8,4	C16,47,9,42,9,35V17c0-2.761,2.239-5,5-5h18C34.761,12,37,14.239,37,17L37,17z"/><path fill="#c68632" d="M24,39c3,0,3,1,5,1s3.146-1,5-1c1,0,2,1,4,1c4,0,6-1.61,6-3c0-1.854-3-4-3-4H24V39z"/><path fill="#995f1a" d="M29,42c1.336,0,2.38-0.34,3.218-0.612c0.652-0.212,1.17-0.381,1.748-0.387	c0.112,0.025,0.382,0.137,0.582,0.22c0.465,0.192,1.096,0.435,1.867,0.6c0.542-0.87,0.582-1.819,0.583-1.917	C35.641,39.658,34.816,39,34,39c-1.854,0-3,1-5,1s-2-1-5-1h-2l-1.5,2H24c1.259,0,1.721,0.188,2.305,0.427	C26.93,41.682,27.708,42,29,42z"/><rect width="5" height="2" x="31" y="26" fill="#455a64"/><path fill="#c5cae9" d="M22.998,31h8c0.552,0,1-0.448,1-1v-4c0-0.552-0.448-1-1-1h-8c-0.552,0-1,0.448-1,1v4	C21.998,30.552,22.446,31,22.998,31z"/><path fill="#c5cae9" d="M36,31h7c0.552,0,1-0.448,1-1v-4c0-0.552-0.448-1-1-1h-7c-0.552,0-1,0.448-1,1v4	C35,30.552,35.448,31,36,31z"/><rect width="11" height="2" x="11" y="26" fill="#455a64"/><circle cx="40" cy="27" r="1" fill="#212121"/><circle cx="27" cy="27" r="1" fill="#212121"/><path fill="#c68632" d="M35,28c2,0,3.515,1.472,4.25,2.125c1.125,1,2.75,1,2.75,2.375c0,0.811-0.5,1.5-2,1.5c-1,0-1,1-2.5,1	S36,34,35,34h-1.5C32,34,32,33,32,33L35,28z"/><circle cx="22.5" cy="2.5" r="1.5" fill="#4e342e"/><circle cx="33.5" cy="4.5" r="1.5" fill="#4e342e"/><circle cx="39.5" cy="11.5" r="1.5" fill="#4e342e"/><circle cx="37.5" cy="16.5" r="1.5" fill="#4e342e"/><circle cx="13.5" cy="5.5" r="1.5" fill="#4e342e"/><circle cx="29.5" cy="19.5" r="1.5" fill="#4e342e"/><circle cx="6.5" cy="12.5" r="1.5" fill="#4e342e"/><circle cx="5.5" cy="20.5" r="1.5" fill="#4e342e"/><circle cx="16.5" cy="27.5" r="1.5" fill="#4e342e"/><circle cx="8" cy="20" r="2" fill="#4e342e"/><circle cx="15.5" cy="24.5" r="2.5" fill="#4e342e"/><circle cx="23.5" cy="5.5" r="2.5" fill="#4e342e"/><circle cx="35.5" cy="15.5" r="2.5" fill="#4e342e"/><circle cx="36.5" cy="12.5" r="2.5" fill="#4e342e"/><circle cx="31.5" cy="6.5" r="2.5" fill="#4e342e"/><circle cx="15.5" cy="7.5" r="2.5" fill="#4e342e"/><circle cx="10.5" cy="26.5" r="2.5" fill="#4e342e"/><circle cx="29.5" cy="16.5" r="2.5" fill="#4e342e"/><circle cx="9.5" cy="13.5" r="2.5" fill="#4e342e"/><circle cx="14" cy="12" r="3" fill="#4e342e"/><circle cx="20" cy="9" r="3" fill="#4e342e"/><circle cx="26" cy="9" r="3" fill="#4e342e"/><circle cx="29" cy="9" r="3" fill="#4e342e"/><circle cx="33" cy="11" r="3" fill="#4e342e"/><circle cx="27" cy="13" r="3" fill="#4e342e"/><circle cx="33" cy="14" r="3" fill="#4e342e"/><circle cx="32" cy="14" r="3" fill="#4e342e"/><circle cx="30" cy="12" r="3" fill="#4e342e"/><circle cx="22" cy="12" r="3" fill="#4e342e"/><circle cx="23" cy="10" r="3" fill="#4e342e"/><circle cx="11" cy="19" r="3" fill="#4e342e"/><circle cx="14" cy="20" r="3" fill="#4e342e"/><circle cx="10" cy="18" r="3" fill="#4e342e"/><circle cx="13" cy="16" r="3" fill="#4e342e"/><circle cx="10.5" cy="23.5" r="3.5" fill="#4e342e"/><circle cx="17" cy="15" r="3" fill="#4e342e"/><circle cx="17" cy="11" r="3" fill="#4e342e"/><rect width="4" height="2" x="11" y="24" fill="#4e342e"/><path fill="#995f1a" d="M20,42c0,0,1.5-2,4-3c0,0-0.5-1-1.75-1C20,38,20,42,20,42z"/><path fill="#995f1a" d="M32,33c0,1.16-0.05,3,2.5,3h0.237c0.447,0.364,1.262,1,2.763,1c1.51,0,2.325-0.643,2.77-1.006	c1.244-0.054,2.15-0.483,2.761-1.098c-0.465-0.567-1.004-1.063-1.411-1.406C41.313,33.799,40.803,34,40,34c-1,0-1,1-2.5,1	S36,34,35,34h-1.5C32,34,32,33,32,33z"/><circle cx="10" cy="29" r="3" fill="#c68632"/><path fill="#995f1a" d="M11,29c0,0.207,0,1,0,1s-0.655,0-1,0c-0.552,0-1-0.448-1-1s0.448-1,1-1S11,28.448,11,29z"/></svg>