<svg xmlns="http://www.w3.org/2000/svg"  viewBox="0 0 48 48" width="1600px" height="1600px"><path fill="#eee" d="M36,33.23v5.87c-0.4,0.16-1.05,0.37-2,0.55c-0.55,0.1-1.22,0.19-2,0.25c-0.7,0.06-1.49,0.1-2.39,0.1	c-0.2,0-0.4,0-0.61-0.01c-0.63-0.01-1.3-0.05-2-0.11c-0.98-0.09-2.01-0.23-3-0.45c-0.14-0.03-0.27-0.06-0.41-0.09	c-0.52-0.12-1.03-0.26-1.51-0.42c-0.03-0.01-0.05-0.02-0.08-0.03c-2.28-0.78-4-2.04-4-4.01c0-1.75,1.13-2.88,2.88-2.88	c0.4,0,0.76,0.06,1.12,0.17c0.41,0.12,0.82,0.29,1.26,0.47c0.23,0.1,0.47,0.2,0.74,0.3c0.76,0.3,1.7,0.61,3,0.81	c0.58,0.1,1.25,0.17,2,0.2c0.46,0.04,0.96,0.05,1.5,0.05c0.52,0,1.02-0.02,1.5-0.05c0.72-0.05,1.39-0.13,2-0.24	C34.75,33.59,35.42,33.42,36,33.23z"/><path fill="#e0e0e0" d="M34,33.71v5.94c-0.55,0.1-1.22,0.19-2,0.25v-5.95C32.72,33.9,33.39,33.82,34,33.71z"/><path fill="#e0e0e0" d="M29,33.95v6.04c-0.63-0.01-1.3-0.05-2-0.11v-6.13C27.58,33.85,28.25,33.92,29,33.95z"/><path fill="#e0e0e0" d="M24,32.94v6.49c-0.14-0.03-0.27-0.06-0.41-0.09c-0.52-0.12-1.03-0.26-1.51-0.42	c-0.03-0.01-0.05-0.02-0.08-0.03v-6.72c0.41,0.12,0.82,0.29,1.26,0.47C23.49,32.74,23.73,32.84,24,32.94z"/><path fill="#ffd54f" d="M10.952,9.776l-0.025-0.085c-0.319-1.09-0.999-2.087-1.891-2.739C8.594,6.62,8.105,6.367,7.594,6.198	C7.082,6.035,6.548,5.933,6,6c0.727,0.792,1.344,1.463,1.851,2.172C8.106,8.509,8.329,8.85,8.524,9.2	C8.349,9.23,8.175,9.254,8,9.293C7.333,9.458,6.667,9.645,6,10c0.667,0.355,1.333,0.542,2,0.707c0.667,0.148,1.333,0.234,2,0.27	c0.102,0.005,0.21-0.006,0.314-0.036C10.812,10.796,11.098,10.274,10.952,9.776z"/><path fill="#ffd54f" d="M9,26c0,0-2-5.115-2-9.652c0-2.87,0.943-5.739,2.829-6.696C9.829,9.652,10,5,16,5	c14.143,0,15.986-3,20.229-3C38.114,2,40,3.315,40,5.826C40,9.5,36.375,11,36.375,11L14,26H9z"/><path fill="#ffb74d" d="M39,25c0-1.584-1-2-1-2v-3h1c0,0,0.987,0,1-0.783c0.031-1.913-2-2.842-2-2.842	C38,14,37.324,12.035,36.375,11C35,9.5,33,9,29.629,9C19,9,14,11,14,11s1,0.5,1,2.5S14,16,14,16s1,1,1,4	c0,2.576-1.027,4.022-1.319,4.382C13.168,24.143,12.603,24,12,24c-2.209,0-4,1.791-4,4c0,1.869,1.288,3.426,3.021,3.865	C11.157,32.637,12,37.729,12,46h23v-3.5c0-1.125,2-1.25,2-3c0-1.196-1-1.5-1-1.5s-1.667,1-6.389,1C24.889,39,19,37.745,19,34.875	C19,33.44,19.931,33,20.875,33c1.889,0,3.125,2,9.625,2c5.667,0,9.5-1.913,9.5-3.826C40,30,39,30,39,28C39,26.899,39,25.957,39,25z"/><path fill="#ffa726" d="M13,28c0,0.254,0,1,0,1s-0.701,0-1,0c-0.552,0-1-0.448-1-1s0.448-1,1-1S13,27.448,13,28z"/><path fill="#eee" d="M33.071,21l1.19,4H35c4,0,3.987-4,3.987-4H33.071z"/><path fill="#eee" d="M19.05,20C19.032,20.166,19,20.329,19,20.5c0,2.485,2.015,4.5,4.5,4.5s4.5-2.015,4.5-4.5	c0-0.171-0.032-0.334-0.05-0.5H19.05z"/><circle cx="24" cy="22" r="1" fill="#212121"/><circle cx="37" cy="22" r="1" fill="#212121"/><path fill="#ffa726" d="M32.375,31c-2.5,0-3.387-2-3.387-2c0.018,0.025,1.245,1,2.637,1C33.718,30,34,28.989,34,28	c0-0.573-0.28-1.438-0.604-2.441C32.807,23.739,32,21,32,17c0,0,2.72,6.156,3.299,7.943C35.69,26.154,36,27.111,36,28	C36,29.875,34.625,31,32.375,31z"/><path fill="#ffa726" d="M32.5,19l0.571,2h5.916c0.552,0,1-0.448,1-1v-1H32.5z"/><path fill="#ffa726" d="M29,17c0.192,0.589,0.191,1.244,0.004,1.893C28.813,19.526,28,21,24,21c-1,0-7,0-7,0s1-2,7-2h3	C28,19,29,18,29,17z"/></svg>