<svg xmlns="http://www.w3.org/2000/svg"  viewBox="0 0 48 48" width="1600px" height="1600px"><path fill="#37474f" d="M21.056,6.056L21,6c0,0-6,3-6,11h4c0-5.422,2.394-7.837,3.476-8.653	C21.729,7.815,21.208,7,21.056,6.056z"/><circle cx="24.5" cy="5.5" r="4.5" fill="#e0e0e0"/><circle cx="25.5" cy="4.5" r="1.5" fill="#212121"/><circle cx="17" cy="21" r="5" fill="#37474f"/><path fill="#37474f" d="M41,24c0-2.209-1.791-4-4-4c-0.85,0-2.081,0-3.275,0c-3.085-1.244-7.47-2-13.725-2	C8,18,2,24.596,2,31.5S7.596,44,14.5,44c4.844,0,17.5,0,17.5,0s9-5,9-11C41,30.806,41,24.884,41,24z"/><circle cx="38.5" cy="30.5" r="6.5" fill="#eee"/><circle cx="40.5" cy="29.5" r="1.5" fill="#212121"/><circle cx="16.5" cy="30.5" r="6.5" fill="#eee"/><circle cx="18.5" cy="29.5" r="1.5" fill="#212121"/><path fill="#ffcc80" d="M36.445,35.306C36.797,34.911,37,34.469,37,34c0-1.657-2.462-3-5.5-3S26,32.343,26,34	c0,0.371,0.129,0.724,0.355,1.052C16,35,9,37.372,9,41c0,4,6.149,6,12.5,6c5.445,0,15.145-2.207,17.804-6.618	C43.367,39.834,46,38.972,46,38C46,36.815,42.097,35.794,36.445,35.306z"/><ellipse cx="31.5" cy="34" fill="#212121" rx="3.5" ry="1"/><path fill="#ffb74d" d="M39.3,40.38c-0.5,0.83-1.25,1.59-2.19,2.27C34.63,42.88,31.86,43,29,43	c-10.64,0-13.33-0.93-13.89-1.21L16,40c0,0,2,1,13,1C32.87,41,36.44,40.77,39.3,40.38z"/><path fill="#e0e0e0" d="M39.304,40.382c-0.001-0.001-0.002-0.002-0.003-0.003c0,0,0,0.001-0.001,0.001	c-0.723,0.099-1.493,0.187-2.3,0.264v3.352c0,0,2.034-1.481,3.08-3.726C39.827,40.309,39.569,40.346,39.304,40.382z"/><path fill="#e0e0e0" d="M18.991,40.575C20.351,43.029,23,44.999,23,44.999v-4.124C21.301,40.796,19.985,40.689,18.991,40.575	z"/><path fill="#ffb74d" d="M13,43c0,0,2-1.5,3-4c0,0,1,0.5,1,1.75C17,43,13,43,13,43z"/></svg>