<svg xmlns="http://www.w3.org/2000/svg"  viewBox="0 0 48 48" width="1600px" height="1600px"><polygon fill="#0d47a1" points="19,29 10.5,24 6,26.65 2,29 2,39 10.5,44 17.01,40.17 19,39"/><path fill="#0d47a1" d="M40,16v-1.81L23,4.37L6,14.19v10.14l3.49-2.05l1.01-0.6l1.01,0.6l8.5,5L21,27.86v12.28l-0.99,0.58 L19,41.32l4,2.31l17-9.82V32c4.41,0,8-3.59,8-8C48,19.59,44.41,16,40,16z M40,30c-3.31,0-6-2.69-6-6s2.69-6,6-6s6,2.69,6,6 S43.31,30,40,30z"/><rect width="2" height="8" x="39" y="20" fill="#0d47a1"/><rect width="8" height="2" x="36" y="23" fill="#0d47a1"/></svg>