<svg xmlns="http://www.w3.org/2000/svg"  viewBox="0 0 48 48" width="1600px" height="1600px"><path fill="#54b3db" d="M44.825,26.837L26.837,44.825c-1.567,1.567-4.108,1.567-5.675,0L3.175,26.837c-1.567-1.567-1.567-4.108,0-5.675L21.163,3.175c1.567-1.567,4.108-1.567,5.675,0l17.987,17.987C46.392,22.73,46.392,25.27,44.825,26.837z"/><path fill="none" stroke="#b3dcee" stroke-linecap="round" stroke-linejoin="round" stroke-miterlimit="10" stroke-width="2" d="M11 24L24 11 37 24"/><path fill="none" stroke="#fff" stroke-linecap="round" stroke-linejoin="round" stroke-miterlimit="10" stroke-width="2" d="M37 24L24 37 11 24"/><path fill="#fff" d="M22 13H26V35H22z"/><path fill="#fff" d="M24 7A4 4 0 1 0 24 15A4 4 0 1 0 24 7Z"/><path fill="#bfda35" d="M24 9A2 2 0 1 0 24 13A2 2 0 1 0 24 9Z"/><path fill="#fff" d="M24 33A4 4 0 1 0 24 41A4 4 0 1 0 24 33Z"/><path fill="#bfda35" d="M24 35A2 2 0 1 0 24 39A2 2 0 1 0 24 35Z"/><path fill="#fff" d="M37 20A4 4 0 1 0 37 28A4 4 0 1 0 37 20Z"/><path fill="#bfda35" d="M37 22A2 2 0 1 0 37 26A2 2 0 1 0 37 22Z"/><path fill="#fff" d="M11 20A4 4 0 1 0 11 28A4 4 0 1 0 11 20Z"/><path fill="#bfda35" d="M11 22A2 2 0 1 0 11 26A2 2 0 1 0 11 22Z"/></svg>