<svg xmlns="http://www.w3.org/2000/svg"  viewBox="0 0 48 48" width="1600px" height="1600px"><path fill="#e0e0e0" d="M18.66 29.95c3.69 3.79 6.35 8.58 7.57 13.92C25.5 43.96 24.75 44 24 44 12.95 44 4 35.05 4 24c0-.75.04-1.5.13-2.23 5.34 1.22 10.13 3.88 13.92 7.57.11.1.21.2.31.3C18.46 29.74 18.56 29.84 18.66 29.95zM44 24c0 .75-.04 1.5-.13 2.23-5.34-1.22-10.13-3.88-13.92-7.57-.11-.1-.21-.2-.31-.3-.1-.1-.2-.2-.3-.31-3.69-3.79-6.35-8.58-7.57-13.92C22.5 4.04 23.25 4 24 4 35.05 4 44 12.95 44 24z"/><path fill="#448aff" d="M21.766,4.13c1.259,5.487,4.038,10.387,7.877,14.227L18.357,29.643 c-3.84-3.84-8.74-6.619-14.227-7.877C5.163,12.502,12.502,5.163,21.766,4.13z"/><path fill="#a0f" d="M43.87,26.234c-1.032,9.263-8.372,16.603-17.635,17.635c-1.259-5.487-4.038-10.387-7.877-14.227 l11.285-11.285C33.482,22.197,38.383,24.976,43.87,26.234z"/><path fill="#311b92" d="M24 16A8 8 0 1 0 24 32A8 8 0 1 0 24 16Z" transform="rotate(-45.001 24 24)"/></svg>