<svg xmlns="http://www.w3.org/2000/svg"  viewBox="0 0 48 48" width="1600px" height="1600px" baseProfile="basic"><path fill="#f57c00" d="M7,38c-2.075,0-6-1.132-6-5.416c0-3.997,3.503-5.95,5.858-6.288	c5.277-0.755,8.417-0.488,20.577,5.388C42.229,38.834,48,31,48,31s-1.684,4.039-6,5c-3.286,0.731-8.216,0.973-15.436-2.516	C14.91,27.853,11.985,27.58,7.142,28.276C5.99,28.441,3,29.537,3,32.584C3,35.961,6.837,36,7,36c0.553,0,1,0.447,1,1S7.553,38,7,38z"/><path fill="#f57c00" d="M22.039,22.625c-0.644,0-1.287-0.155-1.871-0.464L6,14.661v9.762 c0.196-0.043,0.389-0.08,0.575-0.107c1.119-0.16,2.454-0.324,3.869-0.324c4.24,0,8.748,1.486,17.862,5.891 c3.858,1.865,7.384,2.811,10.479,2.811c1.239,0,2.301-0.156,3.215-0.39V13.118l-18.172,9.086 C23.266,22.485,22.652,22.625,22.039,22.625z"/><path fill="#f57c00" d="M21.104,20.394c0.57,0.301,1.254,0.31,1.83,0.021l19.049-9.525 c-0.087-1.046-0.969-1.863-2.039-1.833l-32,0.889C6.862,9.976,6,10.862,6,11.945v0.453L21.104,20.394z"/><path fill="#f57c00" d="M38.785,34.693c-2.964,0-6.714-0.769-11.349-3.01c-9.241-4.465-13.272-5.691-16.991-5.691 c-1.175,0-2.319,0.122-3.586,0.304C6.586,26.335,6.296,26.405,6,26.489v11.566c0,1.083,0.862,1.969,1.944,1.999l32,0.889 C41.07,40.974,42,40.07,42,38.944v-4.589C41.052,34.562,39.987,34.693,38.785,34.693z"/><path fill="#f57c00" d="M38,26.673v1.772c1.543-0.004,2.871-0.193,4-0.444c4.316-0.961,5-5,5-5S45.058,26.985,38,26.673z"/></svg>