<svg xmlns="http://www.w3.org/2000/svg"  viewBox="0 0 48 48" width="1600px" height="1600px"><path fill="#cfd8dc" d="M7.997,42c-0.862,0-1.731-0.277-2.466-0.853c-1.733-1.356-1.935-3.923-0.624-5.691L13.396,24 L4.917,12.559C3.629,10.82,3.777,8.297,5.446,6.92c1.783-1.47,4.41-1.135,5.767,0.698l11.501,15.521C22.905,23.394,23,23.697,23,24 c0,0.303-0.095,0.606-0.284,0.861L11.214,40.382C10.429,41.44,9.221,42,7.997,42z"/><path fill="#29b6f6" d="M40.059,42c0.862,0,1.731-0.277,2.466-0.853c1.733-1.356,1.935-3.923,0.624-5.691L34.659,24 l8.479-11.441c1.289-1.739,1.14-4.262-0.529-5.639c-1.783-1.47-4.41-1.135-5.767,0.698L25.341,23.139 c-0.19,0.256-0.284,0.559-0.284,0.861c0,0.303,0.095,0.606,0.284,0.861l11.501,15.521C37.627,41.44,38.835,42,40.059,42z"/></svg>