<svg xmlns="http://www.w3.org/2000/svg"  viewBox="0 0 48 48" width="1600px" height="1600px"><path fill="#e65100" d="M36.883,7.341C38.726,7.85,40,9.508,40,11.397v25.162c0,1.906-1.301,3.57-3.168,4.065L25.29,43.863 L29,36V11l-3.148-6.885L36.883,7.341z"/><path fill="#b71c1c" d="M29,35v3.927c0,3.803-3.824,6.249-7.019,4.491l-6.936-4.445c-0.802-0.466-1.236-1.462-0.964-2.457 C14.334,35.59,15.202,35,16.115,35L29,35z"/><path fill="#b71c1c" d="M15.456,32.228l-3.4,1.502C10.694,34.532,9,33.518,9,31.901V14.904c0-1.536,0.811-2.95,2.116-3.691 l11.83-6.687C25.669,2.983,29,5.014,29,8.218v3.09l-10.037,3.486C17.78,15.263,17,16.436,17,17.743v11.742 C17,30.618,16.41,31.665,15.456,32.228z"/></svg>