<svg xmlns="http://www.w3.org/2000/svg"  viewBox="0 0 48 48" width="1600px" height="1600px"><path fill="#7986cb" d="M42,10H26v28h16c0.6,0,1-0.4,1-1V11C43,10.4,42.6,10,42,10z"/><path fill="#e8eaf6" d="M27 17H33V19H27zM32 34h-8v-8h8V34zM26 32h4v-4h-4V32z"/><path fill="#3949ab" d="M28,42L7,38V10l21-4V42z"/><path fill="#fff" d="M15,31.7L11,17l2.8-0.2l2.8,11.4h0.2l3-12L23,16l-4.7,16L15,31.7z"/><path fill="#e8eaf6" d="M36,22.4L31.6,18l4.4-4.4l4.4,4.4L36,22.4z M34.4,18l1.6,1.6l1.6-1.6L36,16.4L34.4,18z"/><path fill="#e8eaf6" d="M37 31L32 31 32 29 35 29 35 21 37 21z"/></svg>