<svg xmlns="http://www.w3.org/2000/svg"  viewBox="0 0 48 48" width="1600px" height="1600px"><path fill="#26A69A" d="M31,33c0,0.553,0.447,1,1,1h9c0.553,0,1-0.447,1-1V11c0-0.553-0.447-1-1-1h-9c-0.553,0-1,0.447-1,1V33z"/><path fill="#00796B" d="M31,11v6.334l4,0.667l1.688-0.338V14.29l-5.39-4.001C31.114,10.471,31,10.722,31,11z"/><path fill="#57C4B4" d="M36,14H20v24h16c0.553,0,1-0.447,1-1V15C37,14.447,36.553,14,36,14z"/><path fill="#E0F2F1" d="M20 28H34V30H20zM20 24H34V26H20zM20 18H34V22H20zM20 32H34V34H20z"/><path fill="#00897B" d="M27 42L6 38 6 10 27 6z"/><path fill="#FFF" d="M16.828,17H12v14h3v-4.823h1.552c1.655,0,2.976-0.436,3.965-1.304c0.988-0.869,1.484-2.007,1.482-3.412C22,18.487,20.275,17,16.828,17z M16.294,23.785H15v-4.364h1.294c1.641,0,2.461,0.72,2.461,2.158C18.755,23.051,17.935,23.785,16.294,23.785z"/></svg>