<svg xmlns="http://www.w3.org/2000/svg"  viewBox="0 0 48 48" width="1600px" height="1600px"><path fill="#1976d2" d="M26.5,33h15c0.828,0,1.5-0.672,1.5-1.5v-15c0-0.828-0.672-1.5-1.5-1.5h-15 c-0.828,0-1.5,0.672-1.5,1.5v15C25,32.328,25.672,33,26.5,33z"/><path fill="#42a5f5" d="M34.517,16.061l-8.457,8.457c-0.586,0.586-1.536,0.586-2.121,0l-8.457-8.457 c-0.586-0.586-0.586-1.536,0-2.121l8.457-8.457c0.586-0.586,1.536-0.586,2.121,0l8.457,8.457 C35.103,14.525,35.103,15.475,34.517,16.061z"/><circle cx="25" cy="34" r="10" fill="#0d47a1"/><path fill="#1565c0" d="M23.319,34H6.681C5.753,34,5,33.247,5,32.319V15.681C5,14.753,5.753,14,6.681,14h16.638 C24.247,14,25,14.753,25,15.681v16.638C25,33.247,24.247,34,23.319,34z"/><path fill="#fff" d="M14.493,25.618c0.283,0.832,0.45,1.358,0.503,1.576h0.034c0.051-0.218,0.232-0.781,0.545-1.687 L17.813,19h2.058l-3.797,10H13.87l-3.741-10h2.116L14.493,25.618z"/></svg>