<svg xmlns="http://www.w3.org/2000/svg"  viewBox="0 0 48 48" width="1600px" height="1600px"><path fill="#881421" d="M16,28.505v9c0,2.485,6.044,4.5,13.5,4.5S43,39.99,43,37.505v-9H16z"/><path fill="#af2031" d="M16,19.505v9c0,2.485,6.044,4.5,13.5,4.5S43,30.99,43,28.505v-9H16z"/><path fill="#c94f60" d="M16,10.505v9c0,2.485,6.044,4.5,13.5,4.5S43,21.99,43,19.505v-9H16z"/><path fill="#e08095" d="M29.5 6.005000000000001A13.5 4.5 0 1 0 29.5 15.005A13.5 4.5 0 1 0 29.5 6.005000000000001Z"/><path fill="#993c49" d="M25.433,23.796v-6.698c-0.003-0.92-0.747-1.664-1.667-1.667H16v4.073C16,21.517,19.966,23.221,25.433,23.796z"/><path fill="#941b29" d="M16,19.505v9c0,2.013,3.966,3.716,9.433,4.291v-9C19.966,23.221,16,21.517,16,19.505z"/><path fill="#6e101b" d="M16,28.505v6.931h7.439c1.049-0.068,1.894-0.888,1.994-1.935v-0.705C19.966,32.221,16,30.517,16,28.505z"/><path fill="#af2031" d="M22.319,34H5.681C4.753,34,4,33.247,4,32.319V15.681C4,14.753,4.753,14,5.681,14h16.638C23.247,14,24,14.753,24,15.681v16.638C24,33.247,23.247,34,22.319,34z"/><path fill="#fff" d="M12.923,19.005h2.266l3.64,10h-2.141l-0.802-2.385h-3.745l-0.788,2.385H9.227L12.923,19.005z M15.406,25.078l-1.165-3.619c-0.096-0.265-0.168-0.538-0.216-0.816h-0.042c-0.044,0.285-0.114,0.565-0.209,0.837l-1.179,3.598L15.406,25.078z"/></svg>