<svg xmlns="http://www.w3.org/2000/svg"  viewBox="0 0 48 48" width="1600px" height="1600px" baseProfile="basic"><path fill="#7eb8fb" d="M17,12H9c-0.552,0-1-0.448-1-1V6c0-0.552,0.448-1,1-1h8c0.552,0,1,0.448,1,1v5	C18,11.552,17.552,12,17,12z"/><path fill="#579ef2" d="M27,19h-8c-0.552,0-1-0.448-1-1v-5c0-0.552,0.448-1,1-1h8c0.552,0,1,0.448,1,1v5	C28,18.552,27.552,19,27,19z"/><path fill="#0076d7" d="M17,26H9c-0.552,0-1-0.448-1-1v-5c0-0.552,0.448-1,1-1h8c0.552,0,1,0.448,1,1v5	C18,25.552,17.552,26,17,26z"/><linearGradient id="kJZbDrbTmpoBBUPv8EUC-a" x1="24" x2="24" y1="18.951" y2="41.986" gradientUnits="userSpaceOnUse"><stop offset="0" stop-color="#e6e6e6"/><stop offset="1" stop-color="#bcbcbc"/></linearGradient><path fill="url(#kJZbDrbTmpoBBUPv8EUC-a)" d="M39,19H29c-0.552,0-1,0.448-1,1v6h-9c-0.552,0-1,0.448-1,1v6H9c-0.552,0-1,0.448-1,1v7	c0,0.552,0.448,1,1,1h30c0.552,0,1-0.448,1-1V20C40,19.448,39.552,19,39,19z"/><path fill="#fff" d="M37.5,26h-7c-0.276,0-0.5-0.224-0.5-0.5v-4c0-0.276,0.224-0.5,0.5-0.5h7c0.276,0,0.5,0.224,0.5,0.5v4	C38,25.776,37.776,26,37.5,26z"/><path fill="#579ef2" d="M37.5,33h-7c-0.276,0-0.5-0.224-0.5-0.5v-4c0-0.276,0.224-0.5,0.5-0.5h7c0.276,0,0.5,0.224,0.5,0.5v4	C38,32.776,37.776,33,37.5,33z"/><path fill="#fff" d="M27.5,33h-7c-0.276,0-0.5-0.224-0.5-0.5v-4c0-0.276,0.224-0.5,0.5-0.5h7c0.276,0,0.5,0.224,0.5,0.5v4	C28,32.776,27.776,33,27.5,33z"/><path fill="#0059a3" d="M37.5,40h-7c-0.276,0-0.5-0.224-0.5-0.5v-4c0-0.276,0.224-0.5,0.5-0.5h7c0.276,0,0.5,0.224,0.5,0.5v4	C38,39.776,37.776,40,37.5,40z"/><path fill="#0059a3" d="M27.5,40h-7c-0.276,0-0.5-0.224-0.5-0.5v-4c0-0.276,0.224-0.5,0.5-0.5h7c0.276,0,0.5,0.224,0.5,0.5v4	C28,39.776,27.776,40,27.5,40z"/><path fill="#0059a3" d="M17.5,40h-7c-0.276,0-0.5-0.224-0.5-0.5v-4c0-0.276,0.224-0.5,0.5-0.5h7c0.276,0,0.5,0.224,0.5,0.5v4	C18,39.776,17.776,40,17.5,40z"/></svg>