<svg xmlns="http://www.w3.org/2000/svg"  viewBox="0 0 48 48" width="1600px" height="1600px"><path fill="#66bb6a" d="M32,7.74V20H10V7.74C10,6.78,10.78,6,11.74,6h18.52C31.22,6,32,6.78,32,7.74z"/><path fill="#43a047" d="M38,19.74V32H8V19.74C8,18.78,8.78,18,9.74,18h26.52C37.22,18,38,18.78,38,19.74z"/><path fill="#2e7d32" d="M44,31.74v8.52c0,0.961-0.779,1.74-1.74,1.74H20.74C19.779,42,19,41.221,19,40.26v-8.52 c0-0.961,0.779-1.74,1.74-1.74h21.52C43.221,30,44,30.779,44,31.74z"/><path fill="#388e3c" d="M22.319,34H5.681C4.753,34,4,33.247,4,32.319V15.681C4,14.753,4.753,14,5.681,14h16.638 C23.247,14,24,14.753,24,15.681v16.638C24,33.247,23.247,34,22.319,34z"/><path fill="#fff" d="M14.825,19h-4.673v10h2.024v-3.521h2.276c1.876,0,3.397-1.521,3.397-3.397v-0.058 C17.848,20.354,16.494,19,14.825,19z M15.721,22.346c0,0.859-0.697,1.556-1.556,1.556h-1.99v-3.325h1.99 c0.859,0,1.556,0.697,1.556,1.556V22.346z"/></svg>