<svg xmlns="http://www.w3.org/2000/svg"  viewBox="0 0 48 48" width="1600px" height="1600px"><path fill="#e87331" d="M22.244,6.409C15.745,7.792,10.546,12.675,8.719,19h20.821L22.244,6.409z"/><path fill="#f7944d" d="M39.389,11.999C36.093,8.325,31.324,6,26,6c-1.43,0-2.814,0.184-4.147,0.499l10.344,17.853 L39.389,11.999z"/><polygon fill="#7c1a1a" points="29.067,19 23.294,19 20.407,24 23.294,29 29.067,29 31.954,24"/><path fill="#be3321" d="M43.133,29.511C43.692,27.773,44,25.923,44,24c0-4.753-1.856-9.063-4.866-12.281L28.775,29.511	H43.133z"/><path fill="#d83d22" d="M22.679,29l6.987,12.61c6.541-1.358,11.779-6.256,13.615-12.61H22.679z"/><path fill="#e86942" d="M8.722,19C8.262,20.589,8,22.262,8,24c0,9.941,8.059,18,18,18c1.434,0,2.821-0.185,4.158-0.502	L17.693,19H8.722z"/><path fill="#e56b2e" d="M26,19v-3.926C26,13.376,24.624,12,22.926,12H12.605c-1.784,1.985-3.134,4.368-3.897,7H26z"/><path fill="#c92717" d="M8.707,29c0.763,2.632,2.113,5.015,3.897,7h10.321C24.624,36,26,34.624,26,32.926V29H8.707z"/><path fill="#560a0a" d="M8.707,19C8.247,20.587,8,22.264,8,24s0.247,3.413,0.707,5H26V19H8.707z"/><path fill="#d83d22" d="M22.319,34H5.681C4.753,34,4,33.247,4,32.319V15.681C4,14.753,4.753,14,5.681,14h16.638	C23.247,14,24,14.753,24,15.681v16.638C24,33.247,23.247,34,22.319,34z"/><path fill="#fff" d="M13.096,27.302h4.422v1.673h-6.505V18.867h2.083V27.302z"/></svg>