<svg xmlns="http://www.w3.org/2000/svg"  viewBox="0 0 48 48" width="1600px" height="1600px"><path fill="#4fc3f7" d="M37.64,9.64c-6.57-6.57-18.33-5.45-26.26,2.48C5.4,18.1,3.29,26.24,5.41,32.7	c1.12,3.41,5.41,4.48,7.95,1.94l3.7-3.7c0.6-0.74,1.6-1.15,2.68-0.83c0.81,0.23,1.47,0.92,1.68,1.74c0.24,0.94-0.06,1.83-0.65,2.42	l-0.51,0.5c-3.07,3.08-0.22,8.35,4.01,7.34c2.44-0.59,4.87-1.64,7.13-3.14c0.17-0.11,0.34-0.23,0.5-0.34	c0.16-0.12,0.33-0.23,0.49-0.36c0.96-0.7,1.88-1.49,2.76-2.37c0.19-0.19,0.37-0.38,0.54-0.57c0.19-0.18,0.36-0.37,0.52-0.57	c0.18-0.19,0.35-0.39,0.52-0.6C43.2,26.32,43.74,15.74,37.64,9.64z M25,29c-1.38,0-2.5-1.12-2.5-2.5S23.62,24,25,24	s2.5,1.12,2.5,2.5S26.38,29,25,29z"/><path fill="#ffcc80" d="M32,21l-2.091-3.486c-0.4-0.667,0.08-1.514,0.857-1.514h6.468c0.777,0,1.257,0.848,0.857,1.514L36,21	l-2,1L32,21z"/><circle cx="34" cy="42.5" r="1.5" fill="#b85416"/><polygon fill="#b85416" points="32,24 32.5,42.5 35.5,42.5 36,24 34,23"/><circle cx="24" cy="13" r="3" fill="#ffb300"/><circle cx="15" cy="16.5" r="3" fill="#388e3c"/><circle cx="11" cy="25" r="3" fill="#e53935"/><rect width="4" height="3" x="32" y="21" fill="#cfd8dc"/></svg>