<svg xmlns="http://www.w3.org/2000/svg"  viewBox="0 0 48 48" width="1600px" height="1600px"><path fill="#d56eff" d="M15.744,6C14.781,6,14,6.781,14,7.744v32.513C14,41.219,14.781,42,15.743,42H35V6H15.744z"/><path fill="#b854e5" d="M42.256,6H35v9.003h9V7.744C44,6.781,43.219,6,42.256,6z"/><path fill="#5e25a0" d="M35,33.054V42h7.257C43.219,42,44,41.219,44,40.257v-7.202H35z"/><path fill="#a23adf" d="M35 15.003H44V24.005000000000003H35z"/><path fill="#8026d1" d="M35 24.005H44V33.055H35z"/><path fill="#6517a3" d="M22.319,34H5.681C4.753,34,4,33.247,4,32.319V15.681C4,14.753,4.753,14,5.681,14h16.638 C23.247,14,24,14.753,24,15.681v16.638C24,33.247,23.247,34,22.319,34z"/><path fill="#fff" d="M16.501 19L16.501 26.393 11.779 19 9.59 19 9.59 29 11.499 29 11.499 21.55 16.258 29 18.41 29 18.41 19z"/></svg>