<svg xmlns="http://www.w3.org/2000/svg"  viewBox="0 0 48 48" width="1600px" height="1600px"><path fill="#26a69a" d="M41,10H25v28h16c0.553,0,1-0.447,1-1V11C42,10.447,41.553,10,41,10z"/><path fill="#00695c" d="M27,42L6,38V10l21-4V42z"/><polygon fill="#fff" points="14.95,19.34 14.95,22.85 19.3,22.71 19.3,25.79 14.95,25.79 14.95,32.37 12,32.11 12,16.81 19.72,15.97 19.72,19.06"/><path fill="#e0f2f1" d="M38,20.08V22h-7v-7h3.43l1.67-2H29v11h11v-6.32L38,20.08z"/><path fill="#e0f2f1" d="M40,30H29v-4h11V30z"/><path fill="#e0f2f1" d="M40,36H29v-4h11V36z"/><polygon fill="#e0f2f1" points="35.067,20.481 32.293,17.707 33.707,16.293 34.933,17.519 39.231,12.36 40.769,13.64"/></svg>