<svg xmlns="http://www.w3.org/2000/svg"  viewBox="0 0 48 48" width="1600px" height="1600px" baseProfile="basic"><path fill="#1976d2" d="M36.5,28h-32C3.672,28,3,27.328,3,26.5v-18C3,7.671,3.672,7,4.5,7h28C33.328,7,34,7.671,34,8.5V14h-3	v-4H6v15h30.5V28z"/><circle cx="19.5" cy="17.5" r="3.5" fill="#1976d2"/><polygon fill="#1976d2" points="35,23 35,30 40,26.5"/><path fill="#1976d2" d="M22,29L22,29l-5,0v0c0,1.657-1.343,3-3,3h-3v3h17v-3h-3C23.343,32,22,30.657,22,29z"/><rect width="5" height="2" x="17" y="27" fill="#1976d2"/><path fill="#1976d2" d="M30,36v3.5c0,0.828,0.672,1.5,1.5,1.5h12c0.828,0,1.5-0.672,1.5-1.5V36H30z M39,39h-3v-1h3V39z"/><path fill="#1976d2" d="M43.5,16h-23v3H42v17h-9v-6h-3v7.5c0,0.828,0.672,1.5,1.5,1.5H36v-1h3v1h4.5	c0.828,0,1.5-0.672,1.5-1.5v-20C45,16.671,44.328,16,43.5,16z"/></svg>