<svg xmlns="http://www.w3.org/2000/svg"  viewBox="0 0 48 48" width="1600px" height="1600px"><path fill="#FF80AB" d="M32.5,13c-5.2,0-9.5,1.1-9.5,3v18c0,1.8,4.3,3,9.5,3s9.5-1.2,9.5-3l0,0V16.1C42,14.2,37.7,13,32.5,13z"/><path fill="#EC407A" d="M42,22.5V25c-2.6,1.9-7.6,2-9.5,2c-1.9,0-6.7-0.2-9.5-1.7v-2.8c0,1.4,4.3,2.5,9.5,2.5S42,23.9,42,22.5z M32.5,19c-5.2,0-9.5-1.1-9.5-2.5v2.8c2.8,1.5,7.6,1.7,9.5,1.7c1.9,0,6.9-0.1,9.5-2v-2.5C42,17.9,37.7,19,32.5,19z M32.5,31c-5.2,0-9.5-1.1-9.5-2.5v2.8c2.8,1.5,7.6,1.7,9.5,1.7c1.9,0,6.8-0.2,9.5-2v-2.5C42,29.9,37.7,31,32.5,31z"/><path fill="#C51162" d="M27 42L6 38 6 10 27 6z"/><path fill="#FFF" d="M17.4,16.5c-1.1,0.1-2.2,0.2-3.3,0.2c-1.4,5-2.8,10-4.1,15c0.9,0.1,1.8,0.1,2.7,0.2c0.3-1.1,0.6-2.2,0.8-3.4c1.4,0.1,2.9,0.1,4.3,0.1c0.3,1.2,0.6,2.4,0.9,3.6c1.1,0.1,2.1,0.2,3.2,0.3C20.5,27.2,19,21.8,17.4,16.5z M14.2,26c0.5-2.2,1.2-4.4,1.5-6.7c0.4,2.3,1.1,4.4,1.6,6.7C16.2,26,15.2,26,14.2,26z"/></svg>