<svg xmlns="http://www.w3.org/2000/svg"  viewBox="0 0 48 48" width="1600px" height="1600px"><path fill="#1a237e" d="M29.5,33.3v-2c4,0,7.3-3.3,7.3-7.3c0-4-3.3-7.3-7.3-7.3v-2c5.1,0,9.3,4.2,9.3,9.3 S34.7,33.3,29.5,33.3z"/><path fill="#0d47a1" d="M41 24c0 2.2-1.8 4-4 4s-4-1.8-4-4 1.8-4 4-4S41 21.8 41 24zM32 16c0 2.2-1.8 4-4 4s-4-1.8-4-4 1.8-4 4-4S32 13.8 32 16zM32 32c0 2.2-1.8 4-4 4s-4-1.8-4-4 1.8-4 4-4S32 29.8 32 32z"/><path fill="#1e88e5" d="M27,42L6,38V10l21-4V42z"/><path fill="#fff" d="M20.5,29.7c-0.3,0.6-0.7,1-1.3,1.3s-1.1,0.6-1.8,0.7C16.7,31.9,16,32,15.2,32 c-0.8,0-1.6-0.1-2.3-0.2c-0.7-0.1-1.3-0.3-1.9-0.6V28c0.6,0.5,1.2,0.9,1.9,1.1s1.4,0.4,2.1,0.4c0.4,0,0.8,0,1.1-0.1 c0.3-0.1,0.6-0.2,0.8-0.3c0.2-0.1,0.4-0.3,0.5-0.5c0.1-0.2,0.2-0.4,0.2-0.6c0-0.3-0.1-0.5-0.2-0.8c-0.2-0.2-0.4-0.4-0.7-0.6 c-0.3-0.2-0.6-0.4-1-0.5c-0.4-0.2-0.8-0.4-1.3-0.5c-1.1-0.5-2-1-2.5-1.7c-0.6-0.7-0.8-1.5-0.8-2.5c0-0.8,0.2-1.4,0.5-1.9 s0.7-1,1.2-1.3c0.5-0.4,1.1-0.6,1.8-0.8c0.7-0.2,1.4-0.3,2.2-0.3c0.8,0,1.4,0,2,0.1c0.6,0.1,1.1,0.2,1.6,0.4v3 c-0.2-0.2-0.5-0.3-0.8-0.4c-0.3-0.1-0.6-0.2-0.9-0.3c-0.3-0.1-0.6-0.1-0.9-0.2s-0.6-0.1-0.9-0.1c-0.4,0-0.7,0-1,0.1 c-0.3,0.1-0.6,0.2-0.8,0.3c-0.2,0.1-0.4,0.3-0.5,0.5c-0.1,0.2-0.2,0.4-0.2,0.6c0,0.2,0.1,0.5,0.2,0.7c0.1,0.2,0.3,0.4,0.5,0.5 c0.2,0.2,0.5,0.3,0.9,0.5c0.3,0.2,0.7,0.3,1.1,0.5c0.6,0.2,1.1,0.5,1.6,0.8c0.5,0.3,0.9,0.6,1.2,0.9c0.3,0.3,0.6,0.7,0.8,1.2 c0.2,0.4,0.3,1,0.3,1.5C21,28.5,20.8,29.2,20.5,29.7z"/></svg>