<svg xmlns="http://www.w3.org/2000/svg"  viewBox="0 0 48 48" width="1600px" height="1600px"><path fill="#FF6D00" d="M40 45L8 45 8 3 30 3 40 13z"/><path fill="#FFF3E0" d="M38.5 14L29 14 29 4.5z"/><path fill="#FFF" d="M22.052,30.658V35h-3.085V22.203h5.106c0.979,0,1.845,0.18,2.597,0.541c0.754,0.359,1.336,0.873,1.75,1.537c0.412,0.666,0.619,1.42,0.619,2.264c0,1.248-0.447,2.246-1.34,2.992c-0.895,0.748-2.12,1.121-3.679,1.121H22.052z M22.052,28.276h2.021c0.598,0,1.054-0.149,1.366-0.448c0.314-0.299,0.471-0.721,0.471-1.266c0-0.598-0.161-1.075-0.483-1.433s-0.762-0.539-1.318-0.545h-2.057V28.276z"/></svg>