<svg xmlns="http://www.w3.org/2000/svg"  viewBox="0 0 48 48" width="1600px" height="1600px"><path fill="#4db6ac" d="M40.1,38H24V10h16.1c1.1,0,1.9,0.8,1.9,1.9v24.1C42,37.2,41.2,38,40.1,38z"/><path fill="#e0f2f1" d="M27 25H31V27H27zM27 29H31V31H27zM33 25H40V27H33zM33 29H40V31H33zM33 33H40V35H33zM27 33H31V35H27zM26 21H42V23H26z"/><path fill="#e0f2f1" d="M31.2,15.3c-0.4-0.4-1-0.4-1.4,0L24,21v1h13v-1L31.2,15.3z"/><path fill="#00897b" d="M27 42L6 38 6 10 27 6z"/><path fill="#fff" d="M19.8,24.9c-0.1-0.4-0.3-0.7-0.5-1c-0.2-0.3-0.5-0.6-0.8-0.8c-0.3-0.2-0.7-0.5-1.1-0.7 c-0.3-0.2-0.6-0.3-0.8-0.4c-0.2-0.1-0.4-0.3-0.6-0.4c-0.2-0.1-0.3-0.3-0.4-0.5c-0.1-0.2-0.1-0.4-0.1-0.6c0-0.2,0-0.4,0.1-0.5 c0.1-0.2,0.2-0.3,0.3-0.4c0.1-0.1,0.3-0.2,0.5-0.3c0.2,0,0.5-0.1,0.7-0.1c0.2,0,0.4,0,0.6,0.1c0.2,0,0.4,0.1,0.6,0.2 c0.2,0.1,0.4,0.2,0.6,0.3c0.2,0.1,0.4,0.2,0.6,0.4v-2.6c-0.3-0.2-0.7-0.3-1.1-0.4C18,17,17.5,17,17,17c-0.5,0-1.1,0.1-1.5,0.2 c-0.5,0.1-0.9,0.4-1.3,0.7c-0.4,0.3-0.7,0.7-0.9,1.2c-0.2,0.5-0.3,1-0.3,1.7c0,0.8,0.2,1.5,0.6,2.1c0.4,0.6,1,1.1,1.8,1.5 c0.3,0.2,0.6,0.3,0.9,0.5c0.3,0.2,0.5,0.3,0.7,0.5c0.2,0.2,0.4,0.3,0.5,0.5c0.1,0.2,0.2,0.4,0.2,0.7c0,0.2,0,0.3-0.1,0.5 c-0.1,0.2-0.2,0.3-0.3,0.4c-0.1,0.1-0.3,0.2-0.5,0.3c-0.2,0.1-0.5,0.1-0.8,0.1c-0.5,0-1-0.1-1.5-0.3c-0.5-0.2-1-0.5-1.4-1v2.8 c0.4,0.2,0.9,0.4,1.4,0.5c0.5,0.1,1,0.2,1.6,0.2c0.5,0,1.1-0.1,1.6-0.2c0.5-0.1,0.9-0.3,1.3-0.6s0.7-0.7,0.9-1.2 c0.2-0.5,0.3-1.1,0.3-1.8C20,25.7,19.9,25.3,19.8,24.9z"/><path fill="#e0f2f1" d="M42 23v-2.4l-4.4-4.3c-.4-.4-1-.4-1.4 0l-.6.6 6.2 6.1H42zM39 12A1 1 0 1 0 39 14 1 1 0 1 0 39 12z"/></svg>