<svg xmlns="http://www.w3.org/2000/svg"  viewBox="0 0 48 48" width="1600px" height="1600px"><path fill="#b0bec5" d="M33,23H15V6c0-1.105,0.895-2,2-2h14c1.105,0,2,0.895,2,2V23z"/><path fill="#37474f" d="M15,22h18v8c0,1.105-0.895,2-2,2H17c-1.105,0-2-0.895-2-2V22z"/><rect width="4" height="5" x="22" y="37" fill="#455a64"/><circle cx="24" cy="27" r="2.5" fill="#f4511e"/><path fill="#455a64" d="M31,41H17c-0.552,0-1,0.448-1,1v2c0,0.552,0.448,1,1,1h14c0.552,0,1-0.448,1-1v-2 C32,41.448,31.552,41,31,41z"/><path fill="#78909c" d="M34,18h-1v15c0,1.105-0.895,2-2,2H17c-1.105,0-2-0.895-2-2V18h-1c-1.105,0-2,0.895-2,2v13 c0,2.761,2.239,5,5,5h14c2.761,0,5-2.239,5-5V20C36,18.895,35.105,18,34,18z"/></svg>