<svg xmlns="http://www.w3.org/2000/svg"  viewBox="0 0 48 48" width="1600px" height="1600px"><rect width="8" height="3" x="18" y="6" fill="#e0e0e0"/><rect width="3" height="3" x="22" y="5" fill="#e0e0e0"/><rect width="4" height="3" x="27" y="6" fill="#e0e0e0"/><rect width="4" height="3" x="26" y="7" fill="#e0e0e0"/><rect width="4" height="12" x="29" y="7" fill="#e0e0e0"/><rect width="4" height="12" x="27" y="9" fill="#e0e0e0"/><rect width="4" height="12" x="33" y="13" fill="#e0e0e0"/><rect width="4" height="11" x="36" y="14" fill="#e0e0e0"/><rect width="3" height="8" x="21.5" y="7.5" fill="#e0e0e0"/><polygon fill="#e0e0e0" points="8,9 11,9 27,9 27,46 26,45 26,44 24,44 24,43 22,43 22,42 20,42 20,41 18,41 18,40 16,40 16,39 14,39 14,38 12,38 12,30 11,30 11,25 10,25 10,20 9,20 9,15 8,15"/><polygon fill="#919191" points="27,45 27,19 30,19 30,18 33,18 33,17 37,17 37,16 40,16 36,43 34,43 32,44 29,45"/><polygon fill="#33691e" points="24,21 24,23 23,23 23,22 18,22 18,24 21,24 21,25 20,25 20,26 21,26 24,26 25,26 25,25 25,23 25,21"/><polygon fill="#33691e" points="24,27 24,30 23,30 23,31 20,31 20,29 19,29 19,30 18,30 18,31 17,31 17,33 18,33 18,34 19,34 19,35 20,35 20,33 23,33 24,33 24,32 25,32 25,27"/><polygon fill="#33691e" points="12,23 12,24 13,24 13,25 12,25 12,30 13,30 13,31 14,31 14,32 16,32 16,30 15,30 15,29 14,29 14,26 15,26 15,27 16,27 16,23"/><rect width="3" height="1" x="32" y="43" fill="#212121"/><rect width="3" height="1" x="29" y="44" fill="#212121"/><rect width="3" height="1" x="26" y="45" fill="#212121"/><rect width="2" height="1" x="24" y="44" fill="#212121"/><rect width="2" height="1" x="22" y="43" fill="#212121"/><rect width="2" height="1" x="20" y="42" fill="#212121"/><rect width="2" height="1" x="18" y="41" fill="#212121"/><rect width="2" height="1" x="16" y="40" fill="#212121"/><rect width="2" height="1" x="14" y="39" fill="#212121"/><rect width="2" height="1" x="12" y="38" fill="#212121"/><rect width="1" height="5" x="8" y="15" fill="#919191"/><rect width="1" height="5" x="9" y="20" fill="#919191"/><rect width="1" height="5" x="10" y="25" fill="#919191"/><rect width="1" height="8" x="11" y="30" fill="#919191"/><polygon fill="#919191" points="9,8 9,9 7,9 7,15 8,15 8,10 9,10 9,12 11,12 11,9 13,9 13,8"/><polygon fill="#919191" points="14,13 14,14 16,14 16,8 18,8 18,7 20,7 20,6 16,6 16,7 13,7 13,8 15,8 15,13"/><rect width="3" height="1" x="11" y="12" fill="#919191"/><rect width="3" height="1" x="16" y="14" fill="#919191"/><rect width="1" height="3" x="18" y="8" fill="#919191"/><rect width="3" height="1" x="19" y="5" fill="#919191"/><rect width="3" height="1" x="22" y="4" fill="#919191"/><rect width="3" height="1" x="28" y="8" fill="#919191"/><rect width="1" height="3" x="28" y="8" fill="#919191"/><rect width="3" height="1" x="26" y="11" fill="#919191"/><rect width="2" height="1" x="32" y="10" fill="#919191"/><rect width="3" height="1" x="31" y="9" fill="#919191"/><rect width="3" height="1" x="18" y="10" fill="#919191"/><rect width="1" height="5" x="25" y="9" fill="#919191"/><rect width="1" height="5" x="24" y="4" fill="#919191"/><rect width="3" height="1" x="24" y="6" fill="#919191"/><rect width="4" height="1" x="27" y="5" fill="#919191"/><rect width="2" height="1" x="31" y="6" fill="#919191"/><rect width="1" height="6" x="33" y="7" fill="#919191"/><rect width="4" height="1" x="33" y="12" fill="#919191"/><rect width="3" height="2" x="34" y="14" fill="#919191"/><rect width="1" height="2" x="34" y="14" fill="#919191"/><rect width="6" height="1" x="29" y="16" fill="#919191"/><rect width="4" height="1" x="37" y="13" fill="#919191"/><rect width="1" height="1" x="40" y="14" fill="#919191"/><rect width="1" height="3" x="20" y="10" fill="#919191"/><rect width="3" height="1" x="20" y="12" fill="#919191"/><rect width="1" height="3" x="23" y="12" fill="#919191"/><rect width="1" height="3" x="24" y="14" fill="#919191"/><rect width="3" height="1" x="19" y="15" fill="#919191"/><rect width="4" height="1" x="21" y="16" fill="#919191"/><rect width="5" height="1" x="25" y="17" fill="#919191"/><rect width="1" height="4" x="8" y="10" fill="#e0e0e0"/><rect width="5" height="2" x="25" y="18" fill="#fff"/><rect width="4" height="2" x="21" y="17" fill="#fff"/><rect width="2" height="2" x="19" y="16" fill="#fff"/><rect width="3" height="2" x="16" y="15" fill="#fff"/><rect width="2" height="2" x="14" y="14" fill="#fff"/><rect width="3" height="2" x="11" y="13" fill="#fff"/><rect width="3" height="2" x="8" y="12" fill="#fff"/><rect width="1" height="2" x="8" y="10" fill="#fff"/><rect width="4" height="2" x="30" y="17" fill="#fff"/><rect width="3" height="2" x="34" y="16" fill="#fff"/><rect width="4" height="2" x="36" y="14" fill="#fff"/><polygon fill="#212121" points="39,14 39,20 38,20 38,25 37,25 37,30 36,30 36,38 35,38 35,43 37,43 37,38 38,38 38,30 39,30 39,25 40,25 40,20 41,20 41,14"/><polygon fill="#fff" points="26,10 28,10 28,8 31,8 31,9 33,9 33,7 31,7 31,6 27,6 27,7 25,7 25,9 26,9"/><polygon fill="#fff" points="25,15 29,15 29,13 31,13 31,12 33,12 33,11 32,11 32,10 31,10 31,9 29,9 29,12 26,12 26,14 25,14"/><polygon fill="#fff" points="11,12 11,9 13,9 13,8 15,8 15,13 14,13 14,12"/><polygon fill="#fff" points="24,15 24,16 22,16 22,15 19,15 19,14 16,14 16,8 18,8 18,11 20,11 20,13 23,13 23,15"/><polygon fill="#fff" points="19,9 21,9 21,10 23,10 23,11 25,11 25,9 24,9 24,5 22,5 22,6 20,6 20,7 18,7 18,8 19,8"/></svg>