<svg xmlns="http://www.w3.org/2000/svg"  viewBox="0 0 48 48" width="1600px" height="1600px"><path fill="#7cb342" d="M24.001 4A20 20 0 1 0 24.001 44A20 20 0 1 0 24.001 4Z"/><path fill="#cfd8dc" d="M38.59,10.32c0,0-0.85-1.07-2.19-1.08c-1.32-0.01-2.72,0.6-3.94,1.4c-0.05,0.03-0.08,0.05-0.08,0.05l-0.01,0.02c-2.6,1.57-4.37,3.77-4.37,3.77c2.27,2.17,7.86,9.35,9.66,13.77c2.75,6.76,1.04,9.23,1.04,9.23c-0.32-3.7-5.96-10.29-7.93-12.39c-1-1.073-5.888-6.042-6.77-6.938c-0.882,0.896-5.77,5.865-6.77,6.938c-1.97,2.1-7.61,8.69-7.93,12.39c0,0-1.71-2.47,1.04-9.23c1.8-4.42,7.39-11.6,9.66-13.77c0,0-1.77-2.2-4.37-3.77l-0.01-0.02c0,0-0.03-0.02-0.08-0.05c-1.22-0.8-2.62-1.41-3.94-1.4c-1.34,0.01-2.19,1.08-2.19,1.08C6.05,13.91,4,18.7,4,24c0,11.05,8.95,20,20,20s20-8.95,20-20C44,18.7,41.95,13.91,38.59,10.32z"/><path fill="#cfd8dc" d="M34.76,7.12C31.63,5.09,28.01,4,24,4s-7.63,1.09-10.76,3.12c-0.1,0.07-0.27,0.2-0.39,0.32c0.02-0.01,0.04-0.03,0.06-0.04c0.56-0.44,1.72-0.82,3.41-0.36C18.33,7.59,21.05,9.73,24,12c2.95-2.27,5.67-4.41,7.68-4.96c1.69-0.46,2.85-0.08,3.41,0.36c0.02,0.01,0.04,0.03,0.06,0.04C35.03,7.32,34.86,7.19,34.76,7.12z"/></svg>