<svg xmlns="http://www.w3.org/2000/svg"  viewBox="0 0 48 48" width="1600px" height="1600px"><path fill="#ede7f6" d="M26.984,4.635c0,0,6.069-3.793,13.622,3.76s4.158,18.342,4.158,21.579S46,35.368,46,35.368 S45,36,43,36c0.395,3.474,2.763,8,2.763,8H3c0,0,2.201-17.161,8-25S10.125-2.362,26.984,4.635z"/><path fill="#ede7f6" d="M6.703,27c0,0-2.281,7-5.703,8c2.281,1,3.422,2,6.843,1S6.703,27,6.703,27z"/><rect width="10" height="8" x="19" y="36" fill="#9575cd"/><ellipse cx="24" cy="23" fill="#b39ddb" rx="18.133" ry="16"/><path fill="#ede7f6" d="M30.989,5.177c0,0,2.197,9.888-12.085,15.381c-8.267,3.18-5.493,9.888-2.197,10.986 c0,0-8.207,2.263-10.986-3.296C-1.969,12.868,20.003-8.006,30.989,5.177z"/><path fill="#212121" d="M28.098,28.112c-1.55,0-3.08-0.654-4.103-1.458c-1.926,1.436-5.605,1.818-7.335,0.213 c-0.203-0.188-0.215-0.504-0.026-0.706c0.189-0.203,0.506-0.214,0.706-0.026c1.434,1.331,4.885,0.83,6.32-0.5 c0.191-0.178,0.488-0.178,0.68,0c1.384,1.283,4.348,2.33,6.32,0.5c0.201-0.188,0.517-0.177,0.706,0.026 c0.188,0.202,0.177,0.519-0.026,0.706C30.376,27.762,29.231,28.111,28.098,28.112z"/><path fill="#9575cd" d="M21.474,29.728c1.828,0.752,3.456,0.756,5.123,0.011L27,30.096c-0.684,0.605-1.75,1.193-2.973,1.181 c-1.158-0.012-2.229-0.506-2.992-1.157L21.474,29.728z"/><ellipse cx="22.5" cy="21" fill="#212121" rx=".5" ry="1"/><ellipse cx="25.5" cy="21" fill="#212121" rx=".5" ry="1"/><ellipse cx="32.5" cy="17.025" fill="#fff" rx="4.5" ry="2.975"/><circle cx="32.5" cy="17.5" r="1.5" fill="#212121"/><path fill="#9575cd" d="M31,8.265c0,0-0.469,7.031-8.094,10.5c-8.188,3.725-10.688,9.469-6.199,12.779 c-3.27-0.029-8.113-8.779,5.168-14.529C26.594,14.984,29.062,12.015,31,8.265z"/></svg>