<svg xmlns="http://www.w3.org/2000/svg"  viewBox="0 0 48 48" width="1600px" height="1600px"><path fill="#212121" d="M46.5,28.538c0-3.42-1.41-7.078-3.675-9.857c0.629-0.74,1.222-1.572,1.752-2.49 c1.7-2.945,1.315-6.622,0.805-8.919c-0.284-1.28-1.593-2.036-2.844-1.642c-2.244,0.707-5.621,2.213-7.321,5.157 c-0.34,0.589-0.638,1.184-0.894,1.776c0.125-0.405,0.241-0.816,0.339-1.243c0.759-3.314-0.689-6.716-1.852-8.762 c-0.648-1.14-2.122-1.478-3.201-0.734c-1.937,1.336-4.723,3.767-5.482,7.081c-0.326,1.424-0.455,2.811-0.419,4.094h-0.101 c0.036-1.283-0.092-2.67-0.419-4.094c-0.759-3.314-3.545-5.745-5.482-7.081c-1.08-0.745-2.553-0.407-3.201,0.734 c-1.162,2.046-2.611,5.447-1.852,8.762c0.098,0.426,0.214,0.838,0.339,1.243c-0.256-0.592-0.554-1.187-0.894-1.776 c-1.7-2.945-5.077-4.45-7.321-5.157c-1.251-0.394-2.56,0.362-2.844,1.642c-0.51,2.297-0.895,5.974,0.805,8.919 c0.725,1.256,1.568,2.352,2.46,3.264c-1.918,2.666-3.092,5.971-3.092,9.083c0,6.368,4.858,13.871,11.098,14.152 c5.543,0.25,16.653,0.25,22.196,0C41.642,42.408,46.5,34.905,46.5,28.538z"/><path fill="#fff" d="M7.505,20.884C7.505,20.924,7.5,20.959,7.5,21c0,5,2.582,9,7,9c8,0,8-6.41,8-10 c0-0.552-0.094-0.996-0.254-1.368C13.9,19.109,9.457,20.232,7.505,20.884z"/><path fill="#fff" d="M40.495,20.884C40.495,20.924,40.5,20.959,40.5,21c0,5-2.582,9-7,9c-8,0-8-6.41-8-10 c0-0.552,0.094-0.996,0.254-1.368C34.1,19.109,38.543,20.232,40.495,20.884z"/><circle cx="16.5" cy="20" r="2" fill="#212121"/><circle cx="30.5" cy="20" r="2" fill="#212121"/><g><path fill="#ffea00" d="M27.161,33.121l0.844,0.318c0.189,0.071,0.352-0.151,0.228-0.31l-2.568-3.302 c-0.858-1.103-2.525-1.103-3.383,0l-2.58,3.317c-0.124,0.159,0.039,0.381,0.228,0.31l0.909-0.34 C22.878,32.352,25.124,32.355,27.161,33.121z"/><path fill="#ffea00" d="M26.457,34.993c-1.585-0.596-3.331-0.598-4.917-0.005l-2.883,1.077 C19.023,36.631,19.634,37,20.323,37h7.303c0.691,0,1.304-0.37,1.669-0.94L26.457,34.993z"/></g></svg>