<svg xmlns="http://www.w3.org/2000/svg"  viewBox="0 0 48 48" width="1600px" height="1600px"><path fill="#424242" d="M35 29c-.43 0-.827-.28-.958-.713-.158-.528.14-1.083.666-1.244.148-.046 3.455-1.128 4.313-5.248.112-.541.637-.889 1.183-.775.541.113.888.642.775 1.183-1.109 5.321-5.505 6.698-5.691 6.754C35.191 28.986 35.095 29 35 29zM13 29c-.095 0-.192-.014-.288-.042-.187-.056-4.583-1.433-5.691-6.754-.113-.541.234-1.07.775-1.183.542-.114 1.07.234 1.183.775.869 4.169 4.274 5.236 4.309 5.246.529.159.829.716.67 1.246C13.828 28.721 13.431 29 13 29zM31.5 46c-.18 0-.358-.048-.516-.143-.251-.151-.423-.404-.471-.692l-1-6c-.091-.545.277-1.06.822-1.151.548-.091 1.06.278 1.151.822l.808 4.846 1.89-.63c.525-.175 1.09.109 1.265.632.175.524-.108 1.09-.632 1.265l-3 1C31.713 45.983 31.606 46 31.5 46zM16.5 46c-.081 0-.163-.01-.243-.03l-4-1c-.536-.134-.861-.677-.728-1.213.134-.536.679-.863 1.213-.728l2.949.737.822-4.932c.091-.544.605-.91 1.151-.822.544.091.913.606.822 1.151l-1 6c-.046.275-.205.519-.438.672C16.884 45.944 16.693 46 16.5 46z"/><path fill="#fff176" d="M44 40L4 40 24 7.01z"/><g><path fill="#fff" d="M30,20l-0.158,0.38C29.783,20.53,28.312,24,24,24s-5.783-3.47-5.842-3.62L18,20l0.158-0.38 C18.217,19.47,19.688,16,24,16c4.283,0,5.783,3.46,5.842,3.61L30,20z"/></g><path fill="#fdd835" d="M40.97,35H31v-3h8.15l-1.21-2H10.06l-1.21,2H17v3H7.03l-1.21,2H11v3h2v-3h10v3h2v-3h9v3h2v-3h6.18 L40.97,35z M29,35H19v-3h10V35z"/><g><path fill="#424242" d="M22 2H26V9H22z"/><path fill="#424242" d="M20 7H28V9H20zM25 20c0 1.657-1 3-1 3s-1-1.343-1-3 1-3 1-3S25 18.343 25 20zM25 30L23 30 19 28 19 34 23 32 25 32 29 34 29 28z"/></g></svg>