<svg xmlns="http://www.w3.org/2000/svg"  viewBox="0 0 48 48" width="1600px" height="1600px"><path fill="#f57c00" d="M24 12A15 15 0 1 0 24 42A15 15 0 1 0 24 12Z"/><path fill="#00695c" d="M32.737,34H32H15h-0.737C11.368,34,9,36.368,9,39.263V40v0.571V44h4.02h1.159h6.243h6.156h6.243h1.159h4.52L38,40.571V40v-0.737C38,36.368,35.632,34,32.737,34z"/><path fill="#004d40" d="M33 42v2h-2v-2c0-.552.448-1 1-1h0C32.552 41 33 41.448 33 42zM17 42v2h-2v-2c0-.552.448-1 1-1h0C16.552 41 17 41.448 17 42z"/><path fill="#ffe0b2" d="M27,29.077v-2.971c-2.382,0.296-4.648,0.296-6,0v2.971c0,1.921-1.606,4.454-4,4.952C18.054,35.073,20,37,24,37s5.946-1.927,7-2.971C28.606,33.531,27,30.997,27,29.077z"/><path fill="#ffcc80" d="M20,32c1-1,2-2,7.046-2.454C27.027,29.388,27,29.228,27,29.077v-1.624C26.075,27.803,25.065,28,24,28s-2.075-0.197-3-0.547v1.624c0,0.991-0.433,2.14-1.176,3.094C19.881,32.115,19.936,32.064,20,32z"/><path fill="#ff8f00" d="M10 35A3 3 0 1 0 10 41A3 3 0 1 0 10 35Z"/><path fill="#ff8f00" d="M9.5 26A5.5 5.5 0 1 0 9.5 37A5.5 5.5 0 1 0 9.5 26Z"/><path fill="#ff8f00" d="M11 14A7 7 0 1 0 11 28A7 7 0 1 0 11 14Z"/><path fill="#ff8f00" d="M15 6A6 6 0 1 0 15 18A6 6 0 1 0 15 6Z"/><path fill="#ff8f00" d="M24 4A6 6 0 1 0 24 16A6 6 0 1 0 24 4Z"/><path fill="#ff8f00" d="M29 5A6 6 0 1 0 29 17A6 6 0 1 0 29 5Z"/><path fill="#ff8f00" d="M34.5 10A6.5 6.5 0 1 0 34.5 23A6.5 6.5 0 1 0 34.5 10Z"/><path fill="#ff8f00" d="M37.5 19A6.5 6.5 0 1 0 37.5 32A6.5 6.5 0 1 0 37.5 19Z"/><path fill="#ff8f00" d="M35.5 26A5.5 5.5 0 1 0 35.5 37A5.5 5.5 0 1 0 35.5 26Z"/><path fill="#ff8f00" d="M39 33A4 4 0 1 0 39 41A4 4 0 1 0 39 33Z"/><path fill="#ff8f00" d="M38.5 39A2.5 2.5 0 1 0 38.5 44A2.5 2.5 0 1 0 38.5 39Z"/><path fill="#ffe0b2" d="M30.924,16.108C29.923,14.169,28.012,13,25.976,13H24c-1.257,0-3.057,0-5,0c-2.057,2-3,4.5-3,7.5c0,4.125,3.543,7.5,8,7.5s8-3.375,8-7.5C32,18.893,31.606,17.429,30.924,16.108z"/><path fill="#00838f" d="M27.5 17A1.5 1.5 0 1 0 27.5 20 1.5 1.5 0 1 0 27.5 17zM20.5 17A1.5 1.5 0 1 0 20.5 20 1.5 1.5 0 1 0 20.5 17z"/><path fill="#ff8a65" d="M27,24c0,0-0.419,0-2,0c-3,0-3,1-3,1s0,1,2,1S27,24,27,24z"/></svg>