<svg xmlns="http://www.w3.org/2000/svg"  viewBox="0 0 48 48" width="1600px" height="1600px"><path fill="#795548" d="M24,41c-3.9,0-7-1.7-7-9s3.1-12,7-12s7,4.7,7,12S27.9,41,24,41z"/><path fill="#ffcc80" d="M24,34c-2.8,0-5-0.5-5-4.5s3.2-6.5,5-6.5s5,2.5,5,6.5S26.8,34,24,34z"/><path fill="#795548" d="M34 42.3c0-.8-1.2-4.3-5-4.3-3 0-4 3-4 4.5 0 1.2 2.2 1.5 5 1.5C33.1 44 34 43.1 34 42.3zM14 42.3c0-.8 1.2-4.3 5-4.3 3 0 4 3 4 4.5 0 1.2-2.2 1.5-5 1.5C14.9 44 14 43.1 14 42.3zM17 15c0 4.4-3.6 8-8 8s-8-3.6-8-8 3.6-8 8-8S17 10.6 17 15zM47 15c0 4.4-3.6 8-8 8s-8-3.6-8-8 3.6-8 8-8S47 10.6 47 15z"/><path fill="#6d4c41" d="M45 15c0 3.3-2.7 6-6 6s-6-2.7-6-6 2.7-6 6-6S45 11.7 45 15zM15 15c0 3.3-2.7 6-6 6s-6-2.7-6-6 2.7-6 6-6S15 11.7 15 15z"/><path fill="#795548" d="M36,15c0,5.5-3.3,10-12,10s-12-4.5-12-10S15.3,5,24,5S36,9.5,36,15z"/><path fill="#ffcc80" d="M14,15c0,4.4,2,8,10,8s10-3.6,10-8s-1.9-8-10-8S14,10.6,14,15z"/><path fill="#fff" d="M31 15.5c0 1.4-1.1 2.5-2.5 2.5S26 16.9 26 15.5s1.1-2.5 2.5-2.5S31 14.1 31 15.5zM22 15.5c0 1.4-1.1 2.5-2.5 2.5S17 16.9 17 15.5s1.1-2.5 2.5-2.5S22 14.1 22 15.5z"/><path fill="#263238" d="M30.5,16c0,1.1-0.9,2-2,2s-2-0.9-2-2s0.9-2,2-2S30.5,14.9,30.5,16z"/><path fill="#fff" d="M30,14.5c0,0.3-0.2,0.5-0.5,0.5S29,14.8,29,14.5s0.2-0.5,0.5-0.5S30,14.2,30,14.5z"/><path fill="#263238" d="M21.5,16c0,1.1-0.9,2-2,2s-2-0.9-2-2s0.9-2,2-2S21.5,14.9,21.5,16z"/><path fill="#455a64" d="M22.5,19l1.5-1.5l1.5,1.5H22.5z"/><path fill="#ff5722" d="M26,20c0,0-1,1.5-2,1.5S22,20,22,20s1,0.6,2,0.6S26,20,26,20z"/><path fill="#795548" d="M29.3 11c-.1 0-.3 0-.4-.1 0 0-.6-.4-1.5-.2-.4.1-.8-.2-.8-.5s.2-.8.5-.8c1.5-.3 2.5.3 2.6.4.3.2.4.7.2 1C29.7 10.9 29.5 11 29.3 11zM18.7 11c-.2 0-.4-.1-.6-.3-.2-.3-.1-.7.2-1 .1-.1 1.1-.7 2.6-.4.4.1.6.5.5.8-.1.4-.5.6-.8.5-.9-.2-1.5.2-1.5.2C19 11 18.8 11 18.7 11z"/><path fill="#fff" d="M21,14.5c0,0.3-0.2,0.5-0.5,0.5S20,14.8,20,14.5s0.2-0.5,0.5-0.5S21,14.2,21,14.5z"/><path fill="#795548" d="M36 32c0 1.1-.9 2-2 2s-2-.9-2-2c0-4-4.1-7-3-7C30.8 25 36 27.9 36 32zM12 32c0 1.1.9 2 2 2s2-.9 2-2c0-4 4.1-7 3-7C17.2 25 12 27.9 12 32z"/></svg>