<svg xmlns="http://www.w3.org/2000/svg"  viewBox="0 0 48 48" width="1600px" height="1600px" baseProfile="basic"><path fill="#00e5ff" d="M31,30c0,0,3-12,15-17c0,12-4,16-9,18c6,1,8,8,8,10C45,41,33,41,31,30z"/><path fill="#00e5ff" d="M17,30c0,0-3-12-15-17c0,12,4,16,9,18c-6,1-8,8-8,10C3,41,15,41,17,30z"/><rect width="20" height="18" x="14" y="13" fill="#ff6f00"/><path fill="#ffcdd2" d="M15,14c0,5.49,2.765,11.5,6.545,13.39C22.323,27.78,23.149,28,24,28s1.677-0.22,2.455-0.61	C30.235,25.5,33,19.49,33,14C33,7.37,15,7.37,15,14z"/><path fill="#ffcdd2" d="M21,26h6v4h-6V26z"/><path fill="#f06292" d="M32,31v13H16V31l5-1h6L32,31z"/><path fill="#ffa000" d="M36,22c0,4,4,13,2,22h-6V17c0,0,0-3-8-3s-8,3-8,3v27h-6c-2-8,1.804-18.233,2-22	C12.713,8.299,17,4,24,4C32,4,36,8.28,36,22z"/><path fill="#ffcdd2" d="M12,36c0-2,1.138-4.483,4-5v13h-4V36z"/><path fill="#ffcdd2" d="M36,44h-4V31c2.862,0.517,4,3,4,5V44z"/><path fill="#e91e63" d="M27,30h-6l-5,1c2,3,4,3,5,3c1.2,0,2.27-0.46,3-1.19c0.73,0.73,1.8,1.19,3,1.19c1,0,4,0,5-3L27,30z"/><circle cx="20" cy="19" r="1" fill="#212121"/><circle cx="28" cy="19" r="1" fill="#212121"/><path fill="#e57373" d="M22,23.412c0.56-0.365,1.61-0.707,2,0c0.436-0.707,1.44-0.365,2,0C25.621,24.263,24.86,25,24,25	S22.27,24.339,22,23.412z"/></svg>