<svg xmlns="http://www.w3.org/2000/svg"  viewBox="0 0 48 48" width="1600px" height="1600px"><path fill="#D50000" d="M24 1A6 4 0 1 0 24 9A6 4 0 1 0 24 1Z"/><path fill="#82B1FF" d="M33,43c-4.7-2.9,0.5-12.7,2.4-15.9c5.1-0.8,7.6-3.4,7.6-6c0-4.3-6.6-8-15.3-8.8c0.2-0.4,0.3-0.8,0.3-1.2c0-1.7-0.8-1.8-1-3.4l0,0c0-0.2,0-0.4,0-0.7c-1.7-1.2-3-4-3-4s-1.3,3-3,4c0,0.3,0,0.7,0.1,1L21,8c0,1.4-1,1.4-1,3c0,0.4,0.1,0.8,0.3,1.2C11.6,13,5,16.7,5,21c0,2.7,2.4,5.1,7.1,6c0.6,4.2,3.8,20,18.9,20c8,0,11-4,11-4S38.4,46.4,33,43z"/><path fill="#82B1FF" d="M33,43c-4.7-2.9,0.5-12.7,2.4-15.9c5.1-0.8,7.6-3.4,7.6-6c0-4.3-6.6-8-15.3-8.8c0.2-0.4,0.3-0.8,0.3-1.2c0-1.7-0.8-1.8-1-3.4l0,0c0-0.2,0-0.4,0-0.7c-1.7-1.2-3-4-3-4s-1.3,3-3,4c0,0.3,0,0.7,0.1,1L21,8c0,1.4-1,1.4-1,3c0,0.4,0.1,0.8,0.3,1.2C11.6,13,5,16.7,5,21c0,2.7,2.4,5.1,7.1,6c0.6,4.2,3.8,20,18.9,20c8,0,11-4,11-4S38.4,46.4,33,43z"/><path fill="#FFC107" d="M24,14.8c0,0,3.5,0,3,4.8c3.6-2.8,6-2.6,6-2.6c0-1.7-1-2-1-2S29.3,14.2,24,14.8z"/><path fill="#D50000" d="M33.8,43.4c-0.2-0.1-0.5-0.3-0.8-0.4c-1.4-0.9-1.9-2.3-1.9-4.1c-2.8,3.7-8.1,4.5-10.7,4.6c2.1,1.7,4.9,2.9,8.1,3.3C30.3,46.1,32.2,45,33.8,43.4z"/><path fill="#263238" d="M27,7c0,0,0.1,0.3,0.3,0.8c0.2,0.5,0.6,1.1,1,2c0.2,0.5,0.3,1,0.3,1.6c0,0.8-0.3,1.4-0.8,2c-0.5,0.5-1.1,1-1.7,1.2c-0.7,0.3-1.3,0.4-2.1,0.4l-0.5,0c-0.2,0-0.4,0-0.6-0.1c-0.3-0.1-0.7-0.2-1-0.3c-0.7-0.3-1.3-0.7-1.7-1.2c-0.5-0.5-0.8-1.2-0.8-1.9l0-0.3l0-0.1l0-0.1c0-0.1,0-0.3,0.1-0.4c0.1-0.3,0.1-0.5,0.2-0.8c0.4-0.9,0.8-1.5,1-2C20.9,7.3,21,7,21,7s0,0.1,0,0.2c0,0.1,0.1,0.4,0.1,0.6c0,0.6-0.2,1.3-0.3,2.2c0,0.2,0,0.4,0,0.6c0,0.1,0,0.2,0,0.3l0,0.1c0,0,0,0,0,0l0,0.1c0.1,0.3,0.3,0.6,0.6,0.9c0.3,0.3,0.7,0.5,1.1,0.6c0.2,0.1,0.4,0.1,0.7,0.2c0.1,0,0.2,0,0.3,0c0.1,0,0.3,0,0.4,0c0.4,0,0.9-0.1,1.4-0.2c0.4-0.1,0.8-0.3,1.1-0.6c0.3-0.3,0.5-0.6,0.6-0.9c0.1-0.4,0.1-0.8,0.1-1.2c-0.1-0.8-0.2-1.6-0.2-2.1C26.9,7.3,27,7,27,7z"/><path fill="#2979FF" d="M35.6,27c0,0-0.1,0-0.1,0c-0.3,0.5-0.6,1.1-1,1.8c-0.2,0-0.5,0-0.8-0.1c-0.5-0.1-1.1-0.2-1.6-0.4c-0.6-0.2-1.2-0.4-1.8-0.7c-0.6-0.3-1.3-0.6-1.9-1c-0.3-0.2-0.6-0.4-0.9-0.6c-0.3-0.2-0.6-0.5-0.9-0.7c-0.6-0.5-1.2-1-1.8-1.5c-0.2-0.2-0.5-0.4-0.7-0.7c-0.2,0.2-0.5,0.4-0.7,0.7c-0.6,0.5-1.2,1-1.8,1.5c-0.3,0.2-0.6,0.5-0.9,0.7c-0.3,0.2-0.6,0.4-0.9,0.6c-0.6,0.4-1.3,0.7-1.9,1c-0.6,0.3-1.2,0.5-1.8,0.7c-0.6,0.2-1.2,0.3-1.6,0.4c-0.5,0.1-0.9,0.1-1.2,0.2c-0.3,0-0.5,0.1-0.7,0.1c-0.2-0.8-0.3-1.5-0.3-2c0.2,0,0.5,0,0.9,0c0.3,0,0.8,0,1.2-0.1c0.4-0.1,0.9-0.1,1.4-0.2c0.5-0.2,1.1-0.3,1.7-0.5c0.6-0.2,1.2-0.4,1.8-0.8c0.3-0.2,0.6-0.3,0.9-0.5c0.3-0.2,0.6-0.4,0.9-0.6c0.6-0.4,1.2-0.8,1.8-1.3c1.2-0.9,2.4-1.9,3.5-2.8c0.6-0.4,1.1-0.9,1.7-1.2c0.5-0.4,1.1-0.7,1.6-1c0.5-0.3,1-0.5,1.4-0.7c0.5-0.1,0.8-0.3,1.2-0.3c0.7-0.1,1-0.1,1-0.1s-0.4,0.1-1,0.2c-0.3,0.1-0.7,0.2-1.1,0.4c-0.4,0.2-0.9,0.4-1.3,0.7c-0.5,0.3-1,0.7-1.4,1.1c-0.5,0.4-1,0.9-1.5,1.4c-0.6,0.6-1.2,1.2-1.9,1.8c0.2,0.2,0.4,0.3,0.7,0.5c0.6,0.4,1.2,0.9,1.8,1.3c0.3,0.2,0.6,0.4,0.9,0.6c0.3,0.2,0.6,0.3,0.9,0.5c0.6,0.3,1.2,0.5,1.8,0.8c0.6,0.2,1.2,0.3,1.7,0.5c0.5,0.1,1,0.2,1.4,0.2c0.4,0.1,0.8,0,1.2,0.1C35.2,27,35.4,27,35.6,27z M32,15c0,0-2.1-1-3.6-2.7c-0.1,0.4-0.3,0.7-0.6,1c-0.5,0.5-1.1,1-1.7,1.2c-0.2,0.1-0.5,0.1-0.7,0.2C28.1,14.5,30.5,14.5,32,15z M23.5,14.9c-0.2,0-0.4,0-0.6-0.1c-0.3-0.1-0.7-0.2-1-0.3c-0.7-0.3-1.3-0.7-1.7-1.2c-0.3-0.3-0.5-0.7-0.6-1.1c-1.6,2-4.5,4-8.6,4.8C11,17,17.5,15.6,23.5,14.9L23.5,14.9z"/></svg>