<svg xmlns="http://www.w3.org/2000/svg"  viewBox="0 0 48 48" width="1600px" height="1600px"><path fill="#37474f" d="M20,35c-2-2.5-8-7.75-9.75-6.75C9.329,28.776,12,30.75,13,31c-2,1-7.25-1.25-7.5-8	C5.176,14.252,16.961,4.403,27.902,2.117c0.379-0.079,0.779,0.017,1.075,0.268c6.496,5.514,8.235,18.287,8.104,22.453	c-0.018,0.559-0.297,1.068-0.753,1.391C32.839,28.701,28,32,28,32L20,35z"/><path fill="#d50000" d="M21.5,32.5c-2.193-0.731-5.811-3.124-8.307-6.949c-0.126-0.192-0.182-0.421-0.157-0.649	c0.578-5.335,3.373-16.641,13.986-20.247c0.29-0.099,0.621-0.032,0.842,0.181c4.184,4.017,6.986,11.951,7.13,19.55	c0.008,0.415-0.159,0.812-0.463,1.094c-1.913,1.774-6.433,4.357-8.031,5.27C24,31.5,21.5,32.5,21.5,32.5z"/><path fill="#eceff1" d="M34,44H17l4.25-19H16.5l3-1.5c0,0-2.5-2-2.5-6.25s3.75-7.5,4.75-8s4.689-1.132,6.5,0	c2,1.25,4.5,5.75,4.5,8.25c0,1.75-1.75,5-2.75,6c1.75,0.75,3.5,1.25,3.5,1.25L27,25.5c0,0,0,4.75,0.75,5.5	c0.5,0.5,1.5,1.25,2.25,1.25c1-1,2-2.25,2-2.25L34,44z"/><polygon fill="#37474f" points="25.25,22 25.75,25 23.75,25"/><path fill="#37474f" d="M22.25,17c0.75,0,2.125,0.5,2.125,2.375S22.75,22,22,22s-2.25-0.75-2.25-2.5	C19.75,18.25,20.75,17,22.25,17z"/><path fill="#37474f" d="M25.75,17.5c0-1.25,0.75-3.25,2.25-3.25s2.25,1.5,2.25,2.75S29.5,20.5,28,20.5	S25.75,19.25,25.75,17.5z"/><path fill="#37474f" d="M19.5,17c0-1.5,0.5-4,3.25-5.5c0.25,0.25,1,1.25,1,1.25C22.75,13,20.25,14,19.5,17z"/><path fill="#37474f" d="M26.75,10.75L26,12c1,1,2.5,1.75,4.5,1.5C29.5,13.25,27.5,12.5,26.75,10.75z"/><path fill="none" stroke="#37474f" stroke-miterlimit="10" d="M21.75,25c-0.25,1.5-1.25,9.5,3.25,9.5c2.25,0,3.5-1,4.5-2"/><line x1="23.25" x2="21.75" y1="31" y2="34.75" fill="none" stroke="#37474f" stroke-miterlimit="10"/><line x1="24.75" x2="24.5" y1="31.75" y2="37" fill="none" stroke="#37474f" stroke-miterlimit="10"/><line x1="26.5" x2="28.25" y1="31.5" y2="36" fill="none" stroke="#37474f" stroke-miterlimit="10"/><path fill="none" stroke="#37474f" stroke-miterlimit="10" d="M26,21c0.5,0.5,1.75,1.5,3.5,0.5"/><path fill="none" stroke="#37474f" stroke-miterlimit="10" d="M21,23.25c0.5,0,1.75,0,2.75-1"/></svg>