<svg xmlns="http://www.w3.org/2000/svg"  viewBox="0 0 48 48" width="1600px" height="1600px"><ellipse cx="24" cy="26" fill="#7cb342" rx="11" ry="10"/><path fill="#ff3d00" d="M42,13.758c0,0,0.461-6.24-2-7.881c-3-2-6-0.642-8-1.642C27.01,1.741,27,1,25,1 c-3.978,0-10.916,11-10.916,15.973l19.582-0.096c0-2.782-2.667-9-2.667-9c6,0,9.048,6.108,9.048,6.108L42,13.758z"/><path fill="#7cb342" d="M41,32c0,10.09-17,14-17,14S7,42.09,7,32c0-5.744,7.059-4,17-4S41,26.256,41,32z"/><path fill="#7cb342" d="M36.009,26.023c0,0,6-1.023,8.001,7.978c0,0-0.905-0.577-2.01-1.147c0,0,1.247,2.463,1.008,5.144 l-2.174-2.195c0,0,0.201,2.25-0.391,4.193l-1.433-2.364c0,0,0,2.368-2,3.368l0.001-3l-5.456,1.334L36.009,26.023z"/><path fill="#7cb342" d="M12,26.023c0,0-6-1.023-8.001,7.978c0,0,0.905-0.577,2.01-1.147c0,0-1.247,2.463-1.008,5.144 l2.174-2.195c0,0-0.2,2.25,0.391,4.193L9,37.648c0,0,0,2.352,2,3.352l-0.001-3l5.456,1.334L12,26.023z"/><circle cx="36.5" cy="31.5" r="5.5" fill="#7cb342"/><circle cx="11.5" cy="31.5" r="5.5" fill="#7cb342"/><path fill="#cfd8dc" d="M45.471,16.291c0.444-0.304,0.646-0.864,0.46-1.392c0,0.008,0,0.008,0,0.008 c-0.178-0.527-0.694-0.839-1.226-0.807c0.146-0.503-0.073-1.064-0.548-1.344c-0.483-0.287-1.081-0.2-1.458,0.169 c-0.226-0.482-0.75-0.778-1.298-0.682c-0.548,0.089-0.95,0.537-1.007,1.065c-0.476-0.223-1.073-0.104-1.426,0.312 c-0.363,0.423-0.38,1.023-0.074,1.464C38.378,15.219,38,15.684,38,16.235c0,0.528,0.338,0.967,0.806,1.135 c-0.266,0.417-0.25,0.976,0.081,1.384c0.347,0.432,0.935,0.568,1.418,0.36c0.032,0.526,0.419,0.983,0.975,1.095 c0.081,0.016,0.154,0.016,0.234,0.016c0.46,0,0.88-0.256,1.082-0.656c0.37,0.376,0.966,0.481,1.45,0.217 c0.49-0.272,0.717-0.824,0.596-1.336c0.532,0.055,1.048-0.249,1.25-0.768C46.092,17.17,45.907,16.603,45.471,16.291z"/><rect width="21.5" height="6" x="13.5" y="14.5" fill="#cfd8dc"/><circle cx="34.5" cy="14.5" r="1.5" fill="#cfd8dc"/><circle cx="31.5" cy="14.5" r="1.5" fill="#cfd8dc"/><circle cx="28.5" cy="14.5" r="1.5" fill="#cfd8dc"/><circle cx="34.5" cy="17.5" r="1.5" fill="#cfd8dc"/><circle cx="13.5" cy="17.562" r="1.5" fill="#cfd8dc"/><circle cx="13.5" cy="14.562" r="1.5" fill="#cfd8dc"/><circle cx="16.5" cy="14.562" r="1.5" fill="#cfd8dc"/><circle cx="19.5" cy="14.562" r="1.5" fill="#cfd8dc"/><circle cx="22.5" cy="14.562" r="1.5" fill="#cfd8dc"/><circle cx="25.5" cy="14.5" r="1.5" fill="#cfd8dc"/><circle cx="34.5" cy="20.562" r="1.5" fill="#cfd8dc"/><circle cx="31.5" cy="20.562" r="1.5" fill="#cfd8dc"/><circle cx="28.5" cy="20.562" r="1.5" fill="#cfd8dc"/><circle cx="13.5" cy="20.562" r="1.5" fill="#cfd8dc"/><circle cx="16.5" cy="20.562" r="1.5" fill="#cfd8dc"/><circle cx="19.5" cy="20.562" r="1.5" fill="#cfd8dc"/><circle cx="22.5" cy="20.562" r="1.5" fill="#cfd8dc"/><circle cx="25.5" cy="20.562" r="1.5" fill="#cfd8dc"/><path fill="#b71c1c" d="M31,7.878c0,0-5.002,1.124-6.002-0.876c0,0,0.612,3.293,6.836,2.964C31.588,9.279,31,7.878,31,7.878 z"/><ellipse cx="24" cy="32.5" fill="#0b420d" rx="3" ry="1.5"/><circle cx="30" cy="28" r="3" fill="#cfd8dc"/><circle cx="18" cy="28" r="3" fill="#cfd8dc"/><circle cx="29" cy="28" r="1" fill="#0b420d"/><circle cx="19" cy="28" r="1" fill="#0b420d"/><path fill="#0b420d" d="M33,25c-4.558,0-5,5-7,5c-1.614,0-2-2-2-2s1,1,2,0c0.75-0.75,2.067-3.506,3.667-3.86 C32.012,23.621,33,25,33,25z"/><path fill="#0b420d" d="M15,25c4.558,0,5,5,7,5c1.603,0,2-2,2-2s-1,1-2,0c-0.75-0.75-2.067-3.522-3.667-3.876 C15.988,23.605,15,25,15,25z"/><circle cx="34.5" cy="32.5" r="4.5" fill="#7cb342"/><path fill="#0b420d" d="M37,30c-1.105,0-2,0.895-2,2h4C39,30.895,38.105,30,37,30z"/><circle cx="13.5" cy="32.5" r="4.5" fill="#7cb342"/><path fill="#0b420d" d="M11,30c-1.105,0-2,0.895-2,2h4C13,30.895,12.105,30,11,30z"/><path fill="#0b420d" d="M24,43.118l-6.447-3.224c-8.618-4.309-7.571-8.942-7.522-9.137l1.939,0.485 c0,0.009-0.562,3.343,6.478,6.863L24,40.882l5.553-2.776c7.039-3.52,6.478-6.854,6.472-6.887l1.945-0.461 c0.049,0.195,1.096,4.828-7.522,9.137L24,43.118z"/></svg>