<svg xmlns="http://www.w3.org/2000/svg"  viewBox="0 0 48 48" width="1600px" height="1600px" baseProfile="basic"><path fill="none" stroke="#212121" stroke-miterlimit="10" stroke-width="1.4" d="M39.391,17.033	C40.447,8.823,38.466,6.46,37.5,6.25c-3.138-0.684-7.647,2.509-9.451,3.864c-1.464-0.313-2.984-0.497-4.549-0.497	c-2.893,0-5.593,0.584-7.993,1.592c-1.494-0.763-4.96-2.316-7.632-1.841c-0.591,0.105-3.606,3.234-0.85,9.33	c-1.051,1.98-1.65,4.171-1.65,6.479c0,8.525,7.125,13.068,18.625,13.07c11,0.002,18.25-4.546,18.25-13.07	C42.25,22.199,41.186,19.411,39.391,17.033z"/><path fill="none" stroke="#212121" stroke-linecap="round" stroke-miterlimit="10" stroke-width="1.4" d="M8.625,27.381	c0,0-2.75-0.131-6.875,0.869"/><path fill="none" stroke="#212121" stroke-linecap="round" stroke-miterlimit="10" stroke-width="1.4" d="M3.875,32.5	c0,0,1.75-1.125,5.125-1.75"/><path fill="none" stroke="#212121" stroke-linecap="round" stroke-miterlimit="10" stroke-width="1.4" d="M5.75,37.256	c0,0,1.375-1.5,5.625-3.625"/><circle cx="32.375" cy="14.506" r="3.5" fill="#e40f63"/><path fill="#e40f63" d="M32.125,11.381c0,0-1-4.875-4.875-5.375c0,0-2.375-0.375-4.25,4.625c0,0-1.5,4.625,1.5,6	c0,0,2,0.75,5.75-1.125L32.125,11.381z"/><path fill="#e40f63" d="M34.5,12.631c0,0,4.125-2,6-0.375s1.375,4.125,0,6.125c-0.923,1.343-2.25,2.375-3.75,2.25	s-3-1.125-3.875-3.5L34.5,12.631z"/><path fill="none" stroke="#212121" stroke-linecap="round" stroke-miterlimit="10" stroke-width="1.4" d="M39.375,24.256	c0,0,3.875-1.25,7.25-0.75"/><path fill="none" stroke="#212121" stroke-linecap="round" stroke-miterlimit="10" stroke-width="1.4" d="M40.5,27.631	c0,0,2.875,0,5.125,0.375"/><path fill="none" stroke="#212121" stroke-linecap="round" stroke-miterlimit="10" stroke-width="1.4" d="M39,31.131	c0,0,2.875,0.375,5.875,2"/><ellipse cx="14.5" cy="28.011" fill="#212121" rx="1.5" ry="1.989"/><ellipse cx="33.5" cy="26.989" fill="#212121" rx="1.5" ry="1.989"/><ellipse cx="24.595" cy="30.5" fill="#ffd302" stroke="#212121" stroke-miterlimit="10" stroke-width="1.4" rx="2.349" ry="1.749" transform="rotate(-2.987 24.617 30.527)"/><path fill="none" stroke="#212121" stroke-miterlimit="10" stroke-width="1.4" d="M28.875,14.256c-0.966,0-1.75-0.784-1.75-1.75	s0.784-1.75,1.75-1.75c0.637,0,1.194,0.34,1.5,0.848"/><path fill="none" stroke="#212121" stroke-miterlimit="10" stroke-width="1.4" d="M35.937,14.125c0.932,0,1.688,0.728,1.688,1.626	c0,0.898-0.5,1.626-1.688,1.626c-0.245,0-0.727-0.162-0.937-0.252"/><path fill="none" stroke="#212121" stroke-miterlimit="10" stroke-width="1.4" d="M35.875,14.506c0,1.933-1.567,3.5-3.5,3.5	s-3.5-1.567-3.5-3.5s1.567-3.5,3.5-3.5c1.807,0,3.294,1.369,3.48,3.127C35.868,14.256,35.875,14.38,35.875,14.506z"/><path fill="none" stroke="#212121" stroke-miterlimit="10" stroke-width="1.391" d="M31.956,10.758	c-0.413-1.331-1.671-4.363-4.643-4.752c0,0-2.343-0.375-4.193,4.625c0,0-1.48,4.625,1.48,6c0,0,1.58,0.601,4.563-0.617"/><path fill="none" stroke="#212121" stroke-miterlimit="10" stroke-width="1.4" d="M35.25,12.315	c1.278-0.489,3.872-1.253,5.25-0.059c1.875,1.625,1.375,4.125,0,6.125c-0.923,1.343-2.25,2.375-3.75,2.25	c-1.303-0.109-2.607-0.878-3.5-2.636"/><path fill="none" stroke="#212121" stroke-linecap="round" stroke-miterlimit="10" stroke-width="1.4" d="M8,17.426	c0,0-0.875,0.875-1.625,2.625"/></svg>