<svg xmlns="http://www.w3.org/2000/svg"  viewBox="0 0 48 48" width="1600px" height="1600px"><path fill="#f57c00" d="M34,8c-4-4-8,10-8,10l11,2C37,20,38.5,12.5,34,8z"/><path fill="#fb8c00" d="M24,15c3-2,11-3,11-3s-8.539,0.269-10,1c0,0,2-2,2-4c0,0-3,5-8,5c0,0-7.5-8.5-13-3 c-3.5,3.5-2,21,11.703,24.44c1.161,0.292,3.166,4.222,8.443,5.277c3.98,0.796,23.132-2.911,14.968-9.866 c-0.626-0.534-0.852-1.409-0.597-2.192c0.5-1.536,1.271-3.953,0.483-6.659c-0.593-2.037-1-4-6-6C32.205,14.882,24,15,24,15z"/><path fill="#ffcdd2" d="M12,23c0,0,3,4,5,0c2.542-5.083-6.778-14.166-11-11S4,33,17.703,35.44c0,0-3.87-6.274-0.703-9.44 C17,26,14.111,28.277,12,23z"/><path fill="#fff" d="M29.313,31.219c0,0-7.095-11.529-1.774-11.011c1.149,0.112,2.162,0.803,2.783,1.776 c1.095,1.717,2.512,5.005,1.101,9.236H29.313z"/><path fill="#fff" d="M36.7,31.219c0,0-3.045-11.837,1.055-9.499C40,23,38.811,31.219,38.811,31.219H36.7z"/><path fill="#212121" d="M31.922,29.262c0-1.801-0.584-3.262-1.305-3.262c-0.72,0-1.305,1.46-1.305,3.262 c0,0.738,0.102,1.411,0.267,1.957h2.076C31.82,30.672,31.922,29.999,31.922,29.262z"/><path fill="#212121" d="M37.742,28.483c0-1.457-0.473-2.638-1.055-2.638c-0.346,0-0.644,0.436-0.835,1.082 c0.321,2.194,0.835,4.195,0.835,4.195C37.27,31.122,37.742,29.94,37.742,28.483z"/><path fill="#ffe082" d="M28.257,31.219c0,0,3.166-1.055,6.332,1.055c0,0,3.166-3.166,5.277,0c0,0,1.055,2.111-2.111,3.166 c0,0,0.521,3.449-4.756,5.56c0,0-1.5,5.5-7,0c0,0-2-2-3.02-6.615C22.98,34.385,31.423,36.496,28.257,31.219z"/><path fill="#212121" d="M36,36c-0.825,0.3-1.41-0.56-1.41-0.56c-4.118,2.059-6.222-0.895-6.323-1.042 C27.973,34.568,26.404,33.94,26,34c0,0,0.75,2.25,1,3c2,6,4.423,3.717,4.423,3.717C33.598,37.818,34,37,36,36z"/><path fill="#ff5252" d="M28.579,37.442C27.818,36.503,27,37,27,37c2,8,5,3,5,3C31.197,37.591,29.209,37.288,28.579,37.442z"/><path fill="#212121" d="M33.534,32.274L35.06,33.8c0.349,0.349,0.902,0.396,1.297,0.101 c1.187-0.887,3.001-2.682-1.767-2.682C32.479,31.219,33.534,32.274,33.534,32.274z"/><path fill="#fb8c00" d="M28,29c0,0,6,8-4,6l-5-1L28,29z"/><ellipse cx="35.117" cy="31.855" fill="#fff" rx="1" ry=".334"/><path d="M36,19c0.518-0.332,1.118-0.461,1.699-0.509c0.55-0.041,1.097,0.018,1.63,0.126c-0.262-0.276-0.578-0.551-0.949-0.826 c-0.267,0.056-0.532,0.119-0.787,0.212C36.992,18.224,36.412,18.536,36,19z"/><path d="M23.5,21.5c-0.055-0.83,0.121-1.672,0.505-2.45c0.377-0.764,1.091-1.511,2.048-1.706c0.951-0.2,1.838,0.125,2.583,0.516 c0.349,0.239,0.701,0.472,1.012,0.744c0.297,0.292,0.587,0.584,0.852,0.896c-0.38-0.173-0.734-0.364-1.082-0.557 c-0.354-0.181-0.726-0.311-1.069-0.485c-0.725-0.229-1.448-0.42-2.102-0.261c-0.646,0.15-1.19,0.619-1.625,1.226 C24.186,20.033,23.83,20.743,23.5,21.5z"/></svg>