<svg xmlns="http://www.w3.org/2000/svg"  viewBox="0 0 48 48" width="1600px" height="1600px"><path fill="#6d350f" d="M32,18.17c0,0,4,2,1,7l-2-3L32,18.17z"/><path fill="#ffcc80" d="M34,36.17v-9l-0.028-0.001C33.983,27.003,34,26.838,34,26.67c0-4.694-4.253-8.5-9.5-8.5 c-5.059,0-9.182,3.54-9.472,8.001L15,26.17l0.02,0.142c-0.003,0.057,0.219,1.616,0.453,3.233c0.339,2.35,1.43,4.529,3.109,6.208 L19,36.17c-3-1-2,3,0,4s3.543,0.16,3.543,0.16l-0.168,1.939c0,0.512,0.197,1.008,0.546,1.382C25.944,46.884,31,46,31,46 s3-0.83,5-4.83S34,36.17,34,36.17z"/><path fill="#894415" d="M21.394,31.832c0,0,0.828-4.636,3.351-2.585c0.381,0.31,1.221,1.34-1.436,1.34 C23.309,30.588,22.519,30.42,21.394,31.832z"/><path fill="#894415" d="M33.673,28.122c-0.654-0.366-1.316-0.072-1.316-0.072s-0.598-0.957,0.144-1.364 s1.52,0.048,1.64,0.718s-0.132,1.281-0.132,1.281S33.972,28.29,33.673,28.122z"/><path fill="#efad60" d="M20.58,38.191c0,0-1.739-2.553-2.697-0.559c0,0,1.021,2.665,3.104,1.707 C20.987,39.34,19.838,39.101,20.58,38.191z"/><path fill="#894415" d="M21.83,39.606c0,0-1.83-2.435-7.83-7.435c-3.789-3.158-1.995-8.31-0.158-11.678 C15.232,17.945,16,15.109,16,12.207V8.17c0,0,0.774-7.981,9-7c1.241,0.148,4,1,4,3c0,0-4-1-5,2 c-0.879,2.636,2.104,5.273,2.84,5.873c0.093,0.076,0.185,0.139,0.291,0.196C28.009,12.713,33,15.61,33,20.17c0,5-6,6-10,5 c0,0-6-2-6,2c0,1.778,0.593,2.963,1.251,3.731c1.453,1.695,2.376,3.779,2.918,5.944L21.83,39.606z"/><ellipse cx="26.297" cy="35.335" fill="#fff" rx="2.453" ry="2.394"/><ellipse cx="32.233" cy="33.839" fill="#fff" rx="1.089" ry="2.07"/><path fill="#efad60" d="M26.096,42.532c0.116-0.206,0.356-0.373,0.625-0.347c0.273,0.024,0.475,0.177,0.695,0.258 c0.433,0.196,0.874,0.366,1.324,0.494c0.893,0.26,1.833,0.373,2.691,0.174c0.85-0.164,1.649-0.575,2.366-1.168 c0.687-0.565,1.248-1.454,0.98-2.411c0.235,0.423,0.264,0.966,0.115,1.447c-0.14,0.489-1.195,2.638-3.342,2.851 c-1.039,0.123-2.054-0.104-2.954-0.493c-0.452-0.196-0.883-0.428-1.293-0.687c-0.21-0.123-0.39-0.3-0.599-0.349 C26.491,42.242,26.247,42.346,26.096,42.532z"/><path fill="#6d350f" d="M21.872,21.971c0,0-10.42-11.178,2.027-20.88c0,0-10.524-1.024-9.521,14.893 c-2.738,4.062-7.44,12.983,0.201,17.676c5.521,3.391,7.245,5.928,7.245,5.928s-0.391-2.289-0.91-3.447 c-0.927-2.073-6.351-4.676-6.415-8.186C14.448,25.117,15.84,20.63,21.872,21.971z"/><path fill="#efad60" d="M28.407,33.173c0,0-1.987-2.274-4.572,0.335C23.835,33.508,25.87,29.367,28.407,33.173z"/><path fill="#efad60" d="M30.848,32.622c0,0,0.191-3.279,2.106-1.795C32.955,30.827,31.614,30.66,30.848,32.622z"/><path fill="#2196f3" d="M26.862,35.24c0.027,0.099,0.052,0.2,0.052,0.31c0,0.568-0.386,1.029-0.862,1.029 s-0.862-0.461-0.862-1.029c0-0.538,0.349-0.965,0.789-1.012c-0.005-0.039-0.023-0.073-0.023-0.113 c0-0.205,0.082-0.387,0.206-0.531c-0.037-0.002-0.072-0.011-0.11-0.011c-0.934,0-1.692,0.757-1.692,1.692s0.757,1.691,1.692,1.691 c0.934,0,1.691-0.757,1.691-1.691c0-0.291-0.08-0.561-0.21-0.8C27.413,35.034,27.161,35.212,26.862,35.24z"/><path fill="#2196f3" d="M32.548,34.314c0,0.564-0.297,1.021-0.662,1.021c-0.366,0-0.662-0.457-0.662-1.021 c0-0.491,0.229-0.882,0.529-0.98c-0.004-0.031-0.018-0.058-0.018-0.089c0-0.235,0.117-0.435,0.289-0.569 c-0.462,0.03-0.831,0.721-0.831,1.574c0,0.872,0.386,1.58,0.862,1.58s0.862-0.707,0.862-1.58c0-0.145-0.014-0.282-0.034-0.415 c-0.11,0.077-0.236,0.129-0.378,0.136C32.528,34.08,32.548,34.192,32.548,34.314z"/><path fill="#424242" d="M25.98,34.539c-0.44,0.046-0.789,0.474-0.789,1.012c0,0.568,0.386,1.029,0.862,1.029 s0.862-0.461,0.862-1.029c0-0.11-0.026-0.211-0.052-0.31c-0.026,0.002-0.049,0.015-0.075,0.015 C26.369,35.255,26.038,34.941,25.98,34.539z"/><path fill="#424242" d="M31.223,34.314c0,0.564,0.296,1.021,0.662,1.021c0.366,0,0.662-0.457,0.662-1.021 c0-0.121-0.02-0.234-0.045-0.342c-0.012,0.001-0.023,0.007-0.035,0.007c-0.374,0-0.67-0.283-0.716-0.645 C31.453,33.432,31.223,33.823,31.223,34.314z"/><path fill="#efad60" d="M24.434,38.87c0,0-3.208-0.373-2.054,3.547C22.379,42.417,22.71,39.372,24.434,38.87z"/><path fill="#efad60" d="M34,36.17c0,0-0.842-0.281-1.536,0.234c0,0,0.567-1.143,1.537-0.987L34,36.17z"/><g><path fill="#efad60" d="M32.534,38.324c-0.12-0.266-0.38-0.454-0.703-0.551c0.255,0.194,0.402,0.429,0.375,0.669 c-0.057,0.504-0.844,0.828-1.758,0.725c-0.253-0.029-0.485-0.089-0.693-0.169l0.196,0.991c0,0,0.124-0.108,0.325-0.246 c0.311,0.162,0.723,0.217,1.149,0.117c0.497-0.117,0.887-0.411,1.071-0.76c0.1,0.007,0.198,0.005,0.301,0.024L32.534,38.324z"/></g><path fill="#efad60" d="M27.002,38.164c0,0,1.811-0.288,2.123-1.999C29.125,36.165,30.075,38.443,27.002,38.164z"/></svg>