<svg xmlns="http://www.w3.org/2000/svg"  viewBox="0 0 48 48" width="1600px" height="1600px"><defs opacity=".43"><polygon id="sGTYlMj9xheaijBsEHqtKa" points="-18,50.925 -67,50.925 -68,0.075 -19,0.075" opacity=".43"/></defs><path fill="#212121" d="M15,42c0,0,1-1,4-2l-5-8c0,0,0,6-3,7h3C14,39,14,40,15,42z"/><path fill="#212121" d="M35,42c0,0-1-1-4-2l5-8c0,0,0,6,3,7h-3C36,39,36,40,35,42z"/><path fill="#212121" d="M12,33c0,0-3-2-3,2c0,0-1-2,0-4c0,0-2,1-3,3c0,0,0-3,2-4l-5-4c7,0,11-10,11-10L12,33z"/><path fill="#212121" d="M37,35c0,0,4,1,6-1c0,0-4,0-2-2c0,0,1-1,3-1l-2-1c0,0,2,0,4-2c0,0-5,2-5-1s4-1,4-1s-1-5-5-4l-5,1	L37,35z"/><path fill="#ffbca7" d="M36,26h2.012C39.11,26,40,26.89,40,27.988l0,0c0,1.59-0.745,4.703-1.211,5.831	c-0.539,1.306-0.848,2.12-1.453,2.651S35,37,35,37L36,26z"/><path fill="#ffad93" d="M36,32c0-4.375,3-4,3-4s-1,0.5-1,4c0,2-1.125,2-1.125,2S36,34,36,32z"/><path fill="#ffbca7" d="M15,37c0,0-1.731,0.001-2.336-0.53s-0.914-1.345-1.453-2.651C10.745,32.691,10,29.578,10,27.988l0,0	C10,26.89,10.89,26,11.988,26H14L15,37z"/><path fill="#ffad93" d="M13.125,34c0,0-1.125,0-1.125-2c0-3.5-1-4-1-4s3-0.375,3,4C14,34,13.125,34,13.125,34z"/><path fill="#ffdbd0" d="M25,13H13v18.377c0,2.106,0.549,4.171,1.602,5.995C16.322,40.351,19.568,44.586,25,47	c5.432-2.414,8.678-6.649,10.398-9.628C36.451,35.548,37,33.483,37,31.377V13H25z"/><path fill="#212121" d="M11,25l3,8V23l1,2c0,0-1-3,2-8v5c0,0,2-6,6-8c0,0,0,3-2,5c0,0,4-2,4-5c0,0-1,3,3,5l-1-4c0,0,4,3,5,7	c0,0,1-4-1-6c0,0,6,6,5,16l2-7c0,0,6-3,7-5c0,0-4,1-4-2c0,0,4-1,4-3c0,0-5,2-6-2h3l-3-2c0,0,2-1,2-3c0,0-3,2-5,1c0,0,2,0,2-3	c0,0-3.283,2.433-5,1c-1.547-1.291-3-4-8-1c0,0,2-4,5-3c0,0-4-2-7,2c0,0-1-2,2-4c0,0-4,0-5,4c0,0-4-3-7,2c0,0,2-1,4-1c0,0-5,5-7,1	c0,0,0,4,2,4c0,0-4,6-8,5c0,0,1,2,3,2c0,0-3,1-2,6c0,0,0-4,3-4c0,0,0,5-5,6C3,26,9,27,11,25z"/><path fill="#ffbca7" d="M23,35h4c0,0-1,2-2,2S23,35,23,35z"/><rect width="8" height="2" x="21" y="40" fill="#ffbca7"/><path fill="#f5e9e8" d="M15,26c0,0,4-1,7,2C22,28,17,35,15,26z"/><path fill="#f5e9e8" d="M35,26c0,0-4-1-7,2C28,28,33,35,35,26z"/><path fill="#424242" d="M16,23c0.691-0.21,1.327-0.229,1.954-0.216c0.622,0.031,1.224,0.131,1.81,0.29	c0.586,0.157,1.154,0.377,1.698,0.682C22.005,24.066,22.531,24.434,23,25c-0.698,0.233-1.338,0.268-1.962,0.243	c-0.623-0.027-1.222-0.141-1.802-0.318c-0.581-0.175-1.145-0.408-1.69-0.71C17.006,23.896,16.476,23.543,16,23z"/><path fill="#424242" d="M34,23c-0.476,0.543-1.006,0.896-1.546,1.216c-0.545,0.302-1.109,0.535-1.69,0.71	c-0.581,0.176-1.179,0.29-1.802,0.318C28.338,25.268,27.698,25.233,27,25c0.469-0.566,0.995-0.934,1.538-1.243	c0.544-0.306,1.112-0.525,1.698-0.682c0.586-0.159,1.188-0.259,1.81-0.29C32.673,22.771,33.309,22.79,34,23z"/><ellipse cx="19" cy="28.5" fill="#212121" rx="1" ry="1.5"/><ellipse cx="31" cy="28.5" fill="#212121" rx="1" ry="1.5"/><path fill="#212121" d="M15,26c0,0,3,1,7,2C22,28,19,25,15,26z"/><path fill="#212121" d="M35,26c0,0-3,1-7,2C28,28,31,25,35,26z"/></svg>