<svg xmlns="http://www.w3.org/2000/svg"  viewBox="0 0 48 48" width="1600px" height="1600px"><path fill="#689f38" d="M40.074,28.111c0,0-5.889,4.333-5.889,10.111S24.074,44,24.074,44s-10.111,0-10.111-5.778 S8.074,28.111,8.074,28.111H40.074z"/><path fill="#7cb342" d="M43,24.5C43,30.333,28.385,37,24,37S5,30.333,5,24.5S19.615,7,24,7S43,18.667,43,24.5z"/><path fill="#e0e0e0" d="M26,10c0,0,1.778,5.556,9,7c2.889-2.889,2.708-7.167-1.167-9.333C30.463,5.782,26,10,26,10z"/><circle cx="32" cy="12" r="2" fill="#424242"/><path fill="#424242" d="M33.668,15.055c-1.814-2.721-5.029-4.122-5.062-4.136l0.787-1.838 c0.154,0.066,3.798,1.654,5.938,4.864L33.668,15.055z"/><path fill="#e0e0e0" d="M22,10c0,0-1.778,5.556-9,7c-2.889-2.889-2.708-7.167,1.167-9.333C17.537,5.782,22,10,22,10z"/><circle cx="16" cy="12" r="2" fill="#424242"/><path fill="#424242" d="M14.332,15.055l-1.664-1.109c2.141-3.21,5.784-4.798,5.938-4.864l0.789,1.837 C19.363,10.933,16.136,12.35,14.332,15.055z"/><path fill="#558b2f" d="M24,30c-7.204,0-15.193-4.941-15.53-5.152l1.06-1.696C9.607,23.2,17.375,28,24,28 c6.637,0,14.393-4.799,14.47-4.848l1.061,1.696C39.193,25.059,31.204,30,24,30z"/><path fill="#558b2f" d="M39.948,27.316l-1.896-0.633c0.741-2.225-1.514-3.789-1.61-3.854l1.113-1.662 C38.813,22.006,40.931,24.37,39.948,27.316z"/><path fill="#558b2f" d="M8.052,27.316c-0.982-2.946,1.136-5.31,2.394-6.148l1.109,1.664L11,22l0.559,0.83 c-0.097,0.065-2.352,1.629-1.61,3.854L8.052,27.316z"/></svg>