<svg xmlns="http://www.w3.org/2000/svg"  viewBox="0 0 48 48" width="1600px" height="1600px"><path fill="#ffcc80" d="M10.923,34.497c0,0-3.893,0.43-2.231,3.347c0,0,1.016,1.869,3.434-0.226l-0.373,1.268 c0,0,15.363,10.256,28.982-1.268c0,0,2.318,0.045,1.683-3.121c0,0-3.778-0.022-3.778-4.213c0,0-1.583,3.143-4.982,0 c0,0-4.763,3.019-7.748-1.11c0,0-0.889,4.252-6.128,1.11c0,0-2.149,5.073-6.312,0.965C13.471,31.25,12.539,34.52,10.923,34.497z"/><path fill="#80d8ff" d="M23.974,4.094c-4.485,0-8.652,1.221-12.131,3.306c-0.244-1.309-1.048-1.735-2.012-1.735 c-1.157,0-2.095,0.594-2.095,2.619c0,0.363,0.031,0.748,0.088,1.135C7.437,9.363,7.052,9.332,6.688,9.332 c-2.025,0-2.619,0.938-2.619,2.095c0,0.863,0.332,1.602,1.339,1.924c-2.164,3.081-3.434,6.727-3.434,10.648 c0,0-0.262,8.643,6.155,11.131l2.226-0.655h1.048c1.734-0.722,1.871-2.399,1.648-3.759c0.655,1,1.781,1.664,3.066,1.664 c2.025,0,3.667-1.642,3.667-3.667v-0.524c0,1.736,1.407,3.143,3.143,3.143s3.143-1.407,3.143-3.143v-1.048 c0,2.314,1.876,4.19,4.19,4.19c1.431,0,2.691-0.72,3.447-1.814c0.502,1.069,1.58,1.814,2.839,1.814c1.192,0,2.217-0.672,2.75-1.65 c-0.27,1.612-0.157,4.018,2.75,4.531c0,0,3.929-2.881,3.929-10.214C45.974,13.006,36.124,4.094,23.974,4.094z"/><path fill="#6d4c41" d="M43.551,33.985c1.268-1.429,3.309-4.564,3.309-9.986c0-11.464-10.267-20.791-22.886-20.791	c-4.121,0-8.127,1.001-11.656,2.903C11.825,5.245,10.972,4.78,9.831,4.78c-0.896,0-2.981,0.342-2.981,3.504	c0,0.054,0.001,0.108,0.002,0.164c-0.055-0.001-0.11-0.002-0.164-0.002c-3.163,0-3.505,2.085-3.505,2.981	c0,0.955,0.332,1.72,0.953,2.233c-1.997,3.152-3.048,6.705-3.048,10.312c-0.011,0.372-0.195,9.006,6.382,11.845	c-0.063,0.24-0.097,0.493-0.097,0.753c0,1.644,1.337,2.98,2.981,2.98c0.057,0,0.293-0.008,0.631-0.09	c0.98,0.736,7.452,5.347,15.454,5.347c4.643,0,9.799-1.557,14.686-6.33c0.584-0.069,1.66-0.319,2.312-1.225	c0.568-0.788,0.647-1.817,0.233-3.059C43.645,34.115,43.596,34.051,43.551,33.985z M2.86,23.999c0-3.583,1.132-7.089,3.273-10.14	c0.162-0.23,0.205-0.524,0.115-0.791c-0.09-0.268-0.302-0.476-0.57-0.562c-0.434-0.139-0.722-0.375-0.722-1.079	c0-0.481,0-1.21,1.733-1.21c0.312,0,0.651,0.026,1.007,0.078c0.279,0.046,0.556-0.052,0.754-0.249C8.647,9.849,8.74,9.569,8.7,9.293	C8.648,8.936,8.622,8.596,8.622,8.284c0-1.732,0.728-1.732,1.209-1.732c0.588,0,0.984,0.169,1.141,1.011	c0.053,0.285,0.243,0.526,0.507,0.646c0.266,0.119,0.572,0.1,0.819-0.048c3.472-2.081,7.509-3.181,11.676-3.181	c11.643,0,21.114,8.532,21.114,19.02c0,5.68-2.431,8.456-3.281,9.254c-0.667-0.186-1.127-0.517-1.401-1.007	c-0.355-0.635-0.37-1.486-0.268-2.234c0.279-0.548,0.436-1.167,0.436-1.822c0-0.425-0.301-0.789-0.718-0.869	c-0.416-0.088-0.832,0.146-0.99,0.54c-0.022,0.057-0.269,0.684-0.424,1.553c-0.403,0.621-1.103,1.033-1.896,1.033	c-0.865,0-1.665-0.512-2.037-1.304c-0.135-0.287-0.413-0.48-0.729-0.507c-0.311-0.027-0.622,0.118-0.802,0.379	c-0.62,0.896-1.636,1.432-2.719,1.432c-1.822,0-3.305-1.482-3.305-3.305c0-0.489-0.396-0.886-0.886-0.886s-0.886,0.396-0.886,0.886	v1.048c0,1.244-1.012,2.257-2.257,2.257s-2.257-1.013-2.257-2.257c0-0.489-0.396-0.886-0.886-0.886s-0.886,0.396-0.886,0.886v0.523	c0,1.533-1.248,2.781-2.781,2.781c-0.904,0-1.708-0.434-2.217-1.104c-0.198-1.065-0.575-1.898-0.648-2.055	c-0.177-0.376-0.591-0.58-0.995-0.487c-0.404,0.091-0.692,0.449-0.692,0.864c0,0.85,0.234,1.646,0.641,2.326	c0.074,0.56,0.065,1.139-0.12,1.616c-0.161,0.415-0.447,0.722-0.873,0.934h-0.857c-0.733,0-1.406,0.267-1.926,0.708	C2.703,32.058,2.857,24.104,2.86,23.999z M42.004,36.214c-0.294,0.413-1.037,0.516-1.269,0.519c-0.235,0-0.46,0.094-0.626,0.26	c-11.372,11.372-24.112,3.825-27.375,1.553c0.113-0.095,0.227-0.188,0.341-0.301c0.346-0.346,0.346-0.906,0-1.252	s-0.907-0.346-1.252,0c-0.75,0.749-1.457,0.786-1.469,0.787c-0.667,0-1.209-0.542-1.209-1.209s0.542-1.21,1.209-1.21h1.048	c0.117,0,0.233-0.023,0.341-0.068c0.953-0.397,1.643-1.09,1.995-2.002c0.075-0.194,0.133-0.393,0.176-0.594	c0.653,0.362,1.404,0.569,2.202,0.569c1.675,0,3.141-0.909,3.932-2.26c0.732,0.747,1.751,1.212,2.878,1.212	c1.428,0,2.685-0.747,3.4-1.87c0.932,1.141,2.349,1.87,3.933,1.87c1.25,0,2.44-0.463,3.358-1.274	c0.75,0.798,1.807,1.274,2.927,1.274c0.667,0,1.296-0.163,1.85-0.45c0.08,0.458,0.225,0.912,0.46,1.336	c0.592,1.064,1.613,1.73,3.036,1.981c0.064,0.011,0.127-0.003,0.191-0.006C42.179,35.479,42.212,35.921,42.004,36.214z"/><path fill="#6d4c41" d="M27.117,40.599c-2.259,0-4.029-1.31-4.029-2.98c0-0.489,0.396-0.886,0.886-0.886 s0.886,0.396,0.886,0.886c0,0.57,0.965,1.209,2.257,1.209s2.257-0.639,2.257-1.209c0-0.489,0.396-0.886,0.886-0.886 s0.886,0.396,0.886,0.886C31.145,39.289,29.376,40.599,27.117,40.599z"/><circle cx="18.212" cy="36.046" r="1.571" fill="#6d4c41"/><circle cx="34.974" cy="36.046" r="1.571" fill="#6d4c41"/></svg>