<svg xmlns="http://www.w3.org/2000/svg"  viewBox="0 0 48 48" width="1600px" height="1600px"><path fill="#212121" d="M44,14c0,0,1,6-2,9l2,1c0,0,0,5-7,7l-4-7L44,14z"/><path fill="#212121" d="M4,17c0,0,0,7,3,9c0,0-2,1-3,0c0,0,0.689,6.86,6.845,4.93L15,27l-4.5-7.931L4,17z"/><path fill="#ffbca7" d="M36,22h2.012C39.11,22,40,22.89,40,23.988l0,0c0,1.59-0.745,4.703-1.211,5.831	c-0.539,1.306-0.848,2.12-1.453,2.651S35,33,35,33L36,22z"/><path fill="#ffad93" d="M36,28c0-4.375,3-4,3-4s-1,0.5-1,4c0,2-1.125,2-1.125,2S36,30,36,28z" opacity=".5"/><path fill="#ffbca7" d="M13,34c0,0-1.731,0.001-2.336-0.53s-0.914-1.345-1.453-2.651C8.745,29.691,8,26.578,8,24.988l0,0	C8,23.89,8.89,23,9.988,23H12L13,34z"/><path fill="#ffad93" d="M11.125,31c0,0-1.125,0-1.125-2c0-3.5-1-4-1-4s3-0.375,3,4C12,31,11.125,31,11.125,31z" opacity=".5"/><path fill="#ffdbd0" d="M24,13H12v18.377c0,2.106,0.549,4.171,1.602,5.995C15.322,40.351,18.568,44.586,24,47	c5.432-2.414,8.678-6.649,10.398-9.628C35.451,35.548,36,33.483,36,31.377V13H24z"/><path fill="#212121" d="M13,34l2-5l1,5l3-6l2,2l2-6v4l4-10l1,1l1-1l1,1l3-2v3l2,1v2l1,1c0,0,5-4,8-10l-4,2c0,0,0-1,2-3	c0,0-1-2-3-2c0,0,2,0,2-3c0,0-1,2-4,2c0,0,4-2,3-6c0,0-3,4-7,3s3-1,3-1s-5-2-9,1c0,0,1-3,5-4c0,0-4,0-6,3c0,0,0-3,2-4c0,0-5-2-9,5	c0,0,0-4,2-5c0,0-7,2-5,7c0,0-5-1-4-5c0,0-4,3-1,9c0,0-3-1-3-5c0,0-2,5,0,8c0,0-1,1-4,1c0,0,1,5,6,6C12.85,23.57,11,32,13,34z"/><path fill="#ffbca7" d="M22,35h4c0,0-1,2-2,2S22,35,22,35z"/><rect width="8" height="2" x="20" y="40" fill="#ffbca7"/><path fill="#f5e9e8" d="M27,29c0,0,2-3,7-1C34,28,32,32,27,29z"/><path fill="#212121" d="M34,28c0,0-3-1-7,1C27,29,29,25,34,28z"/><circle cx="30.5" cy="28.5" r="1.5" fill="#212121"/><polygon points="27.426,22.992 34,23.992 27.426,24.992"/><path fill="#37474f" d="M14,10c0,0,1,3,2,4c0,0,0-1,1-3c0,0,0,3,1,4c0,0,0-1,1-3c0,0,0,2,1,3c0,0,0-1,1-1.973	c0,0-1,3.973,3,4.973C24,18,13,22,14,10z"/><path fill="#37474f" d="M31,13c0,0,2,0,4-4v4.711c0,0,2,0.225,3.5-1.243c0,0-0.5,3.532-5.5,2.532v-2H31z"/></svg>