<svg xmlns="http://www.w3.org/2000/svg"  viewBox="0 0 48 48" width="1600px" height="1600px"><path fill="#ff80ab" d="M7.22,19.603c0-7.986,7.718-14.459,17.24-14.459c1.619,0,3.178,0.201,4.664,0.55 c-0.037-1.426,0.558-2.412,1.498-2.645c1.081-0.267,2.226,0.556,2.817,2.265c0.943-0.903,1.99-1.116,2.774-0.643 c1.052,0.635,1.234,2.261,0.123,4.101c-0.049,0.081-0.104,0.164-0.158,0.246c3.389,2.64,5.522,6.399,5.522,10.584l0.834,9.037 c0,0,8.064,4.31,2.503,8.759c0,0,0.834,5.422-2.364,6.673H6.108c0,0-4.171-1.39-2.642-6.812c0,0-4.588-5.839,3.754-13.208V19.603z"/><path fill="#ffcc80" d="M11.113,43.655c0,0,0.834-5.7,4.588-6.534v6.534H11.113z"/><path fill="#ffcc80" d="M31.689,43.794v-7.647c0,0,5.283,2.364,5.978,7.925L31.689,43.794z"/><path fill="#ffcc80" d="M20.011,38.094c0,0-0.278,4.31,4.032,4.588c0,0,4.032-0.556,3.615-4.588H20.011z"/><path fill="#ffcc80" d="M9.862,32.116c0,0-0.973,4.727,3.754,3.893c0,0,11.4,4.727,18.074,0.278l3.198-2.224 c0,0,7.647,0.278,2.781-4.31c0,0-4.588-0.417-4.171-4.727c0,0-2.642,3.198-5.005,0c0,0-4.032,2.085-5.978,0 c0,0-2.781,4.032-6.256,1.529c0,0,0.139,3.059-3.893,3.059C12.364,29.613,12.503,32.394,9.862,32.116z"/><circle cx="18.899" cy="31.282" r="1.668" fill="#5d4037"/><circle cx="31.133" cy="30.169" r="1.668" fill="#5d4037"/><path fill="#5d4037" d="M25.016,36.061c-1.459,0-2.79-0.53-3.559-1.418c-0.321-0.369-0.281-0.929,0.089-1.249 c0.37-0.321,0.93-0.28,1.249,0.089c0.425,0.49,1.297,0.807,2.221,0.807c1.13,0,1.963-0.446,2.287-0.889 c0.289-0.396,0.844-0.48,1.238-0.192c0.395,0.289,0.48,0.843,0.192,1.237C28.004,35.441,26.58,36.061,25.016,36.061z"/><path fill="#5d4037" d="M47.975,33.691c-0.26-2.818-3.263-4.914-4.494-5.66L42.7,19.604c0-4.037-1.895-7.935-5.229-10.816	c1.205-2.376,0.501-4.221-0.742-4.972c-0.87-0.523-1.911-0.513-2.897-0.009c-0.844-1.375-2.133-2.056-3.451-1.728	c-1.106,0.273-1.873,1.158-2.147,2.409c-1.26-0.229-2.525-0.345-3.774-0.345c-10.058,0-18.24,6.936-18.24,15.46v4.003	c-7.199,6.595-4.762,12.232-3.832,13.823c-1.125,4.717,1.7,7.023,3.403,7.591C5.893,45.055,6,45.072,6.108,45.072h36.565	c0.125,0,0.248-0.023,0.364-0.068c3.24-1.268,3.186-5.61,3.052-7.187C47.477,36.562,48.112,35.177,47.975,33.691z M10.52,32.834	c0.013,0,0.024,0.004,0.037,0.004c1.418,0,2.625-0.92,3.053-2.236c0.866-0.074,1.698-0.502,2.368-1.223	c0.467-0.501,0.757-0.979,0.928-1.423c0.622,0.282,1.301,0.433,1.993,0.433c1.562,0,3.007-0.759,3.914-1.979	c1.691,1.174,4.125,1.104,5.741-0.159c0.687,0.65,1.6,1.025,2.58,1.025c0.689,0,1.336-0.186,1.894-0.509	c0.459,2.1,2.271,3.699,4.473,3.836c0.389,0.275,0.849,0.732,0.882,1.099c0.025,0.275-0.248,0.571-0.48,0.771	c-0.444,0.38-1.08,0.61-1.792,0.646l-1.552,0.082c-0.231,0.013-0.451,0.104-0.622,0.261c-8.875,8.103-19.041,1.19-19.469,0.892	c-0.453-0.313-1.075-0.204-1.392,0.248c-0.191,0.274-0.209,0.603-0.108,0.896c-0.657,0.135-1.361,0.151-1.794-0.226	C10.574,34.756,10.487,33.599,10.52,32.834z M18.475,38.39c0.13,1.983,1.135,3.697,2.592,4.682h-3.949v-5.16	C17.543,38.078,17.996,38.238,18.475,38.39z M20.573,38.939c1.16,0.241,2.408,0.4,3.721,0.4c0.942,0,1.917-0.09,2.907-0.272	c-0.418,1.665-1.73,2.893-3.297,2.893C22.296,41.96,20.953,40.67,20.573,38.939z M29.327,38.516	c0.453-0.153,0.907-0.331,1.362-0.534v5.09h-3.949C28.167,42.108,29.164,40.446,29.327,38.516z M32.644,37.175	c1.052,0.904,3.63,3.337,4.21,5.898h-4.165v-5.673C32.689,37.32,32.662,37.249,32.644,37.175z M15.118,37.689v5.383h-3.303	C12.222,41.635,13.168,39.187,15.118,37.689z M44.412,36.618c-0.279,0.224-0.417,0.579-0.364,0.932	c0.007,0.046,0.605,4.456-1.583,5.522h-3.583c-0.511-3.164-3.322-5.995-4.707-7.217c0.28-0.219,0.561-0.429,0.839-0.673l1.199-0.063	c1.167-0.061,2.201-0.45,2.99-1.127c1.074-0.92,1.229-1.856,1.169-2.48c-0.155-1.627-1.874-2.654-2.069-2.766	c-0.151-0.086-0.322-0.132-0.496-0.132c-1.595,0-2.893-1.298-2.893-2.893v-2.225c0-0.553-0.448-1-1-1s-1,0.447-1,1	c0,0.981-0.799,1.78-1.781,1.78c-0.67,0-1.277-0.379-1.583-0.99c-0.154-0.308-0.457-0.515-0.8-0.547	c-0.34-0.044-0.679,0.113-0.889,0.389c-0.558,0.729-1.392,1.148-2.289,1.148c-0.867,0-1.685-0.399-2.244-1.095	c-0.227-0.282-0.588-0.418-0.945-0.36c-0.357,0.06-0.653,0.308-0.776,0.648c-0.413,1.147-1.501,1.919-2.709,1.919	c-0.825,0-1.589-0.349-2.152-0.982c-0.309-0.349-0.819-0.439-1.229-0.212c-0.409,0.225-0.608,0.703-0.479,1.151	c0.133,0.464,0.186,0.91-0.523,1.67c-0.208,0.224-0.637,0.598-1.179,0.598c0,0-0.001,0-0.001,0c-0.12,0-0.24-0.012-0.356-0.036	c-0.296-0.06-0.609,0.017-0.843,0.212c-0.234,0.196-0.366,0.487-0.358,0.793c0,0.019,0.002,0.044,0.004,0.07	c-0.021,0.657-0.562,1.186-1.224,1.186c-0.675,0-1.225-0.55-1.225-1.225c0-0.553-0.448-1-1-1s-1,0.447-1,1	c0,1.026,0.49,1.93,1.239,2.521c-0.096,0.739-0.291,3.276,1.287,4.647c0.619,0.537,1.396,0.807,2.324,0.807	c0.064,0,0.138-0.016,0.203-0.018c-1.609,1.947-2.346,4.274-2.641,5.503H6.292c-0.607-0.26-2.987-1.556-1.863-5.541	c0.085-0.303,0.019-0.634-0.172-0.884c-0.161-0.211-3.857-5.236,3.625-11.847c0.215-0.189,0.338-0.462,0.338-0.749v-4.448	c0-7.422,7.285-13.46,16.24-13.46c1.465,0,2.957,0.177,4.435,0.524c0.3,0.068,0.619-0.003,0.86-0.198	c0.241-0.195,0.377-0.491,0.369-0.802c-0.023-0.884,0.267-1.53,0.739-1.647c0.579-0.14,1.251,0.521,1.631,1.621	c0.111,0.321,0.379,0.565,0.71,0.645c0.334,0.085,0.681-0.014,0.927-0.25c0.45-0.431,1.097-0.794,1.566-0.508	c0.508,0.307,0.604,1.366-0.217,2.729l-0.136,0.211c-0.288,0.436-0.192,1.019,0.22,1.34c3.312,2.581,5.137,6.06,5.141,9.888	l0.834,9.036c0.031,0.335,0.228,0.632,0.524,0.79c1.029,0.551,3.741,2.405,3.921,4.354C46.069,34.807,45.555,35.704,44.412,36.618z"/></svg>