<svg xmlns="http://www.w3.org/2000/svg"  viewBox="0 0 48 48" width="1600px" height="1600px"><path fill="#ffb74d" d="M26.3,43.2C25.8,43.7,25,44,24,44s-1.8-0.3-2.4-0.8C20,42.1,4.9,32,4,26c0-0.3,0-0.5,0.1-0.8 l6.8-16.9C11.6,6.8,18.6,5,24,5s12.4,1.8,13.1,3.5l6.8,16.9c0.1,0.3,0.1,0.5,0.1,0.8C43.1,32,28,42.1,26.3,43.2z"/><path fill="#795548" d="M25.6,40.5C25.2,40.8,24.7,41,24,41s-1.2-0.2-1.7-0.5c-1.1-0.8-11.7-7.8-12.3-11.9 c0-0.2,0-0.4,0.1-0.5l4.4-11.7C15,15.2,20.2,14,24,14s9,1.2,9.5,2.4l4.4,11.7c0.1,0.2,0.1,0.3,0.1,0.5 C37.4,32.7,26.8,39.7,25.6,40.5z"/><path fill="#795548" d="M31,11.3c0.3,1-2,1.8-3.5,2.3c-3.5,1.1-11.2,0.2-10.4-2.3C18,8,20.7,8,24,8S30,8,31,11.3z"/><path fill="#ffe082" d="M19,13c-1-2-3-3-5-3c-1.6,0-1,7,2,7c2,0,4,0,4,0v-1C19.8,15.9,20,15,19,13z"/><path fill="#3e2723" d="M21,18h-5c-1.3,0-2.3-0.8-3.1-2.3c-0.5-1.1-0.8-2.4-0.8-3.7c0-2.8,1.4-3,1.9-3 c2.5,0,4.8,1.4,5.9,3.6c0.7,1.4,0.9,2.3,1,2.8l0.1,0.1V18z M14.2,11c-0.2,0.6-0.2,2.4,0.5,3.9C15,15.4,15.4,16,16,16h2.9 c0-0.1,0-0.1,0-0.2c-0.1-0.4-0.2-1.1-0.8-2.4C17.4,12,15.9,11.1,14.2,11z"/><path fill="#3e2723" d="M19.4,12.1l-4-2c-0.3-0.1-0.6-0.1-0.9,0c-0.3,0.1-0.5,0.4-0.5,0.7c-0.1,0.3-0.3,1.6,0.4,2.5 c0.3,0.3,0.7,0.7,1.6,0.7h3c0.5,0,0.9-0.3,1-0.8C20.1,12.8,19.9,12.3,19.4,12.1z"/><path fill="#ffe082" d="M29.1,13c1-2,3-3,5-3c1.6,0,1,7-2,7c-2,0-4,0-4,0v-1C28.3,15.9,28.1,15,29.1,13z"/><path fill="#3e2723" d="M32.1,18h-5v-2.5l0.1-0.1c0.1-0.5,0.3-1.4,1-2.8c1.1-2.2,3.4-3.6,5.9-3.6c0.4,0,1.9,0.2,1.9,3 c0,1.3-0.3,2.6-0.8,3.7C34.5,17.2,33.4,18,32.1,18z M29.2,16h2.9c0.6,0,1-0.6,1.2-1.1c0.7-1.5,0.7-3.3,0.5-3.9 c-1.7,0.1-3.1,1-3.9,2.4c-0.6,1.2-0.7,2-0.8,2.4C29.2,15.9,29.2,15.9,29.2,16z"/><path fill="#3e2723" d="M34.1,10.8c-0.1-0.3-0.3-0.6-0.5-0.7s-0.6-0.1-0.9,0l-4,2c-0.4,0.2-0.6,0.7-0.5,1.1 c0.1,0.4,0.5,0.8,1,0.8h3c0.8,0,1.3-0.4,1.6-0.7C34.4,12.4,34.2,11,34.1,10.8z"/><path fill="#ffb74d" d="M32,25H16l2.1-13.3c0-0.1,0-0.2,0.1-0.3c0.3-1,1.6-1.4,2.6-0.9C21.2,10.7,23,11,24,11 c1,0,2.8-0.3,3.3-0.5c1.1-0.6,2.5,0,2.7,1.2C29.9,11.7,32,25,32,25z"/><path fill="#ffe082" d="M31,24c0.8,0,1.5,0.4,1.8,1.1c0.2,0.6,0.3,1.3,0.1,1.9c-1,2.7-2.8,8.2-4.2,9.2c-1.6,1-7.8,1-9.4,0 c-1.3-0.9-3.2-6.6-4.2-9.2c-0.2-0.6-0.2-1.3,0.1-1.9c0.3-0.7,1-1.1,1.8-1.1H31z"/><path fill="#ffa726" d="M23,13v5.4c0,0.4-0.1,0.8-0.2,1.1L21,24h6l-1.8-4.5c-0.1-0.4-0.2-0.7-0.2-1.1V13 c0-1,0.5-1.7,0.9-2.2C25.3,10.9,24.5,11,24,11c-0.5,0-1.3-0.1-1.9-0.2C22.5,11.3,23,12,23,13z"/><path fill="#fff" d="M29,18c0,1.1-0.9,2-2,2s-2-0.9-2-2s0.9-2,2-2S29,16.9,29,18z"/><path fill="#3e2723" d="M27,17c0.6,0,1,0.4,1,1s-0.4,1-1,1s-1-0.4-1-1S26.4,17,27,17"/><path fill="#fff" d="M23,18c0,1.1-0.9,2-2,2s-2-0.9-2-2s0.9-2,2-2S23,16.9,23,18z"/><path fill="#3e2723" d="M21 17c.6 0 1 .4 1 1s-.4 1-1 1-1-.4-1-1S20.4 17 21 17M18 27c0 0 1 8 6 8s6-8 6-8-1 2-6 2S18 27 18 27z"/><path fill="#fff" d="M26.8,30.8C26.1,32,25.3,33,24,33c-1.2,0-2.1-1-2.8-2.2C22,30.9,23,31,24,31 C25.1,31,26,30.9,26.8,30.8"/><path fill="#3e2723" d="M24,26.4c-0.9-0.6-2-1.4-2.2-1.6c-0.2-0.1-0.4-0.3-0.6-0.3c0,0,0.1,0,0.1,0h5.4c0,0,0.1,0,0.1,0 c-0.2,0.1-0.3,0.2-0.5,0.3C26,25,24.9,25.8,24,26.4z"/><path fill="#3e2723" d="M25.2,25c-0.3,0.2-0.7,0.5-1.2,0.8c-0.4-0.3-0.8-0.6-1.2-0.8H25.2 M26.7,24h-5.4 c-0.7,0-1.2,0.5-1.2,1.2c0-0.1,0.1-0.1,0.1-0.2c0.1-0.1,0.3-0.2,0.4-0.2c0.3,0,0.6,0.1,0.9,0.3C21.8,25.5,24,27,24,27 s2.2-1.5,2.6-1.8c0.3-0.2,0.6-0.3,0.9-0.3c0.2,0,0.3,0,0.4,0.2c0.1,0.1,0.1,0.1,0.1,0.2C27.9,24.5,27.4,24,26.7,24z"/></svg>