<svg xmlns="http://www.w3.org/2000/svg"  viewBox="0 0 48 48" width="1600px" height="1600px"><path fill="#e53935" d="M25,5h-4c-1.5,0-3,2.125-3,5c0,2-3,2-3,5c0,1.25-1,2-2.5,2c-1.25,0-1.75-1-3.5-1c-5,0-5,5-5,5 c2.875,0,3.649,1.695,5.75,4.625c3.25,4.531,9.609,5.358,14.376,5.358c3.922,0,14.874-2.436,14.874-8.936c0-3.5-2.86-5.692-6-8.047 c-2-1.5-3-3-3-4C30,8,29,5,25,5z"/><path fill="#fbe9e7" d="M27,9.063C27,10.754,25.657,13,24,13s-3-2.246-3-3.938S22.343,6,24,6S27,7.371,27,9.063z"/><path fill="#e53935" d="M27,5.5C27,6.594,26,8,23.5,8c-1.5,0-2,2-3.5,2V9l1-4c0,0,1-1,3-1C26,4,27,5,27,5.5z"/><path fill="#80cbc4" d="M33.875,41H35c1.5,0,2,1,4,1c5,0,5-4.5,5-8c-0.625,2-1,4-5,4c-3,0-4,1-4,1L33.875,41z"/><path fill="#80cbc4" d="M33,40c0-2-1-3-1-4.875C32,32.375,33.5,30,37,30c3,0,4,3,4,3s-0.875-1-2.5-1c-1.875,0-2.5,2-2.5,4 c0,2.375-1,3-1,3l-1.125,2L33,40z"/><path fill="#26a69a" d="M35,39l-2,1c-1,0.75-1.875,1-3,1c-1.625,0-3-1-3-3c0-3,2-4,2-8s-1-5-1-5h-8c0,0-1,2-1,6 c0,5,2,13,10,13c4.5,0,6-3,6-3V39z"/><path fill="#fbe9e7" d="M36.992,23.63c-0.165-0.566-1.242-1.336-2.367-1.13c-0.053-0.003-3.935-2.126-3.935-2.126 L28.734,15.8c-0.002-0.004-0.006-0.007-0.008-0.011C28.299,14.741,27.272,14,26.07,14H26c-0.552,0-1-0.448-1-1v-1h-2v1 c0,0.552-0.448,1-1,1c-1.125,0-2.094,0.627-2.608,1.544C19.361,15.591,17.25,20.5,17.25,20.5L14.125,24 C12.875,24,12,25.125,12,25.75c0,0.133,0.12,0.25,0.375,0.25c0.375,0,0.68-0.352,1.125-0.5c0.75-0.25,1.067-0.484,1.25-0.625 c0,0,2.5-1.75,3.862-3.084c0.117-0.115,0.232-0.231,0.3-0.381L20.875,18H21c0,0,0,2,0,4s-1,3-1,3l4,3l4-3c0,0-1-1-1-4c0-2,0-3,0-3 h0.125l1.963,3.493c0.067,0.149,0.166,0.371,0.537,0.506c0.797,0.29,4.482,1.558,4.482,1.558c0.215,0.084,0.585,0.221,1.375,0.251 c0.469,0.018,0.86,0.271,1.22,0.166C36.946,23.904,37.029,23.757,36.992,23.63z"/><path fill="#80cbc4" d="M20 24c-.304 0-.604.138-.8.4-.332.441-.242 1.068.2 1.399L24 28C24 28 22.5 24 20 24zM28.8 24.4C28.604 24.138 28.304 24 28 24c-1.5 0-4 4-4 4l4.6-2.2C29.042 25.469 29.131 24.842 28.8 24.4z"/><path fill="#9575cd" d="M28 18.5c0 .75-.395 1.5-1.5 1.5C25 20 24 19 24 18.5s1-1.5 2.5-1.5C27.605 17 28 17.75 28 18.5zM24 18.5c0 .5-1 1.5-2.5 1.5-1.105 0-1.5-.75-1.5-1.5s.395-1.5 1.5-1.5C23 17 24 18 24 18.5z"/></svg>