<svg xmlns="http://www.w3.org/2000/svg"  viewBox="0 0 48 48" width="1600px" height="1600px" baseProfile="basic"><polygon fill="#212121" points="44,30 38,27 37.13,21.652 41,21 44,26 41,24"/><path fill="#ffbca7" d="M37,27.8l3.012-0.8C41.11,27,42,27.712,42,28.59c0.103,0-0.534,6.412-5,6.41V27.8z"/><polygon fill="#212121" points="4,30 10,27 10.87,21.652 7,21 4,26 7,24"/><path fill="#ffbca7" d="M11,35c-4.466,0.002-5.103-6.41-5-6.41C6,27.712,6.89,27,7.988,27L11,27.8V35z"/><path fill="#ffdbd0" d="M24,13H10v22.377c0,3.876,5.283,8.302,14,11.623c8.805-3.354,14-7.785,14-11.623V13H24z"/><polygon fill="#212121" points="37,22 38,32 40,22"/><path fill="#ffbca7" d="M22,31h4c0,0-1,2-2,2S22,31,22,31z"/><circle cx="17" cy="28" r="4" fill="#fff"/><polygon fill="#212121" points="11,22 10,32 8,22"/><circle cx="17" cy="29" r="1" fill="#212121"/><circle cx="31" cy="28" r="4" fill="#fff"/><circle cx="31" cy="29" r="1" fill="#212121"/><path fill="#fff" d="M14,35c1.314,4.632,5.293,8,10,8s8.686-3.368,10-8H14z"/><path fill="#f5f5f5" d="M16.921,40h14.157c0.596-0.596,1.125-1.269,1.58-2H15.341C15.797,38.731,16.325,39.404,16.921,40z"/><polygon fill="#212121" points="17,20 13,27 12,23 10,32 9,20"/><polygon fill="#212121" points="35,20 38,32 38,20"/><path fill="#ffb300" d="M32.125,1h-16.25C11.526,1,8,4.526,8,8.875V19h32V8.875C40,4.526,36.474,1,32.125,1z"/><rect width="32" height="8" x="8" y="11" fill="#dd2c00"/><polygon fill="#212121" points="20,20 25,29 25,23 27,25 27,20"/><polygon fill="#ffb300" points="48,20 40.016,19 7.973,19 0,20 0,22 48,22"/></svg>