<svg xmlns="http://www.w3.org/2000/svg"  viewBox="0 0 48 48" width="1600px" height="1600px" clip-rule="evenodd"><ellipse cx="15.5" cy="38.029" fill-rule="evenodd" clip-rule="evenodd" rx="1.5" ry="2.5"/><ellipse cx="31.5" cy="35.029" fill-rule="evenodd" clip-rule="evenodd" rx="1.5" ry="2.5"/><path fill="#ffeb00" fill-rule="evenodd" d="M24.153,38.333c1.025-0.18,1.955,0.229,2.075,0.913	c0.12,0.683-0.615,1.384-1.641,1.564s-1.955-0.229-2.075-0.913C22.392,39.213,23.128,38.512,24.153,38.333z" clip-rule="evenodd"/><path fill="#ff7daa" fill-rule="evenodd" d="M42.367,6.529c-2.325-0.594-18.646,4-18.646,4s-3.721-6-6.285-7	c-2.563-1-5.832,0-6.849,1c-1.017,1-3.256,5-4.101,8.431c-0.415,1.686-0.422,4.749-0.321,7.43c0.471-0.528,1.155-0.861,1.918-0.861	c1.418,0,2.57,1.152,2.57,2.57c0,0.642-0.236,1.229-0.625,1.679c1.131,0.27,1.972,1.287,1.972,2.5c0,1.418-1.152,2.57-2.57,2.57	c-0.697,0-1.329-0.278-1.792-0.728c-0.309,1.149-1.359,1.996-2.605,1.996c-0.209,0-0.411-0.029-0.606-0.074	c-0.455,1.834-0.488,3.722,0.007,5.57c1.952,7.283,11.138,11.16,20.501,8.651c9.363-2.509,15.381-10.459,13.429-17.742	c-1.068-3.986-4.303-6.95-8.547-8.407l0.624-0.584c0,0,10.327-0.474,11.56-0.73c1.233-0.256,4.5-3.839,5-5.509	C47.5,9.62,44.692,7.122,42.367,6.529z M36.263,33.133c1.094,4.081-3.989,8.995-11.342,10.965	c-7.354,1.97-14.212,0.256-15.305-3.825c-1.094-4.081,3.989-8.995,11.342-10.965C28.312,27.338,35.17,29.052,36.263,33.133z" clip-rule="evenodd"/><path fill="#ff3880" d="M40.277,5.071c-0.052,0-0.104,0-0.155,0c-4.963,0-12.078,2.076-14.539,3.206l-0.391,0.178	c-0.339,0.154-0.803,0.366-1.156,0.529c-0.367-0.761-0.79-1.459-1.236-2.054c-1.463-1.951-3.675-4.9-9.289-4.9	c-1.585,0-4.002,0.861-5.599,3.287C5.551,8.9,5.316,15.039,5.536,19.558c0.001,0.022,0.013,0.04,0.015,0.062	c-0.138,0.14-0.28,0.276-0.393,0.437c-0.463-0.203-0.967-0.31-1.486-0.31c-2.039,0-3.698,1.659-3.698,3.698	c0,1.187,0.575,2.285,1.499,2.972c-0.091,0.324-0.138,0.66-0.138,1.001c0,1.401,0.793,2.608,1.945,3.235	c-0.316,1.766-0.268,3.517,0.188,5.217c1.668,6.223,8.193,10.152,15.778,10.152c1.935,0,3.938-0.256,5.947-0.794	c4.742-1.271,8.825-3.914,11.496-7.443c2.729-3.604,3.665-7.697,2.64-11.524c-0.873-3.26-3.132-5.962-6.261-7.76	c0.629,0.014,1.261,0.025,1.894,0.025c2.294,0,4.547-0.114,6.255-0.494c5.467-1.215,6.283-4.882,6.283-6.96	C47.5,8.685,45.576,5.117,40.277,5.071z M1.974,23.445c0-0.936,0.762-1.698,1.698-1.698c0.451,0,0.877,0.176,1.198,0.496	c0.258,0.257,0.638,0.354,0.984,0.251c0.35-0.102,0.616-0.385,0.696-0.741c0.159-0.709,0.804-1.225,1.532-1.225	c0.865,0,1.569,0.705,1.569,1.57c0,0.376-0.136,0.741-0.382,1.025c-0.229,0.264-0.302,0.628-0.195,0.961	c0.107,0.332,0.381,0.584,0.721,0.666C10.505,24.919,11,25.548,11,26.278c0,0.866-0.704,1.57-1.57,1.57	c-0.411,0-0.799-0.158-1.094-0.444c-0.253-0.248-0.617-0.342-0.962-0.248c-0.342,0.094-0.608,0.362-0.701,0.704	c-0.187,0.693-0.796,1.174-1.503,1.233c-0.445-0.001-0.75-0.076-1.015-0.229c-0.489-0.298-0.82-0.832-0.82-1.446	c0-0.32,0.09-0.633,0.261-0.903c0.161-0.256,0.198-0.571,0.101-0.857s-0.32-0.512-0.604-0.616	C2.423,24.797,1.974,24.156,1.974,23.445z M21.217,30.274c1.952-0.523,3.897-0.787,5.718-0.787c1.345,0,2.621,0.145,3.781,0.434	c2.524,0.631,4.151,1.863,4.582,3.471s-0.362,3.488-2.232,5.297c-2.023,1.956-5.008,3.534-8.403,4.444	c-3.394,0.909-6.769,1.035-9.499,0.353c-2.524-0.631-4.151-1.863-4.582-3.471s0.362-3.488,2.232-5.297	C14.837,32.762,17.821,31.184,21.217,30.274z M37.397,26.778c0.515,1.923,0.418,3.939-0.234,5.912	c-0.69-2.245-2.791-3.916-5.963-4.709c-3.052-0.761-6.783-0.634-10.501,0.362c-3.718,0.996-7.012,2.75-9.275,4.938	c-2.375,2.296-3.359,4.822-2.796,7.131c-1.554-1.366-2.695-3.069-3.228-5.06c-0.371-1.384-0.418-2.813-0.172-4.261	c1.138-0.061,2.171-0.627,2.813-1.524c0.435,0.184,0.904,0.28,1.389,0.28c1.969,0,3.57-1.602,3.57-3.57	c0-1.216-0.605-2.309-1.563-2.957c0.142-0.389,0.216-0.802,0.216-1.223c0-1.969-1.602-3.57-3.569-3.57	c-0.196,0-0.384,0.04-0.573,0.072C7.33,13.056,8.051,8.74,9.582,6.415c1.086-1.648,2.756-2.386,3.929-2.386	c4.614,0,6.319,2.273,7.689,4.1c1.461,1.948,2.592,5.247,1.81,7.524c-0.421,1.228-1.328,2.017-2.772,2.411	c-1.691,0.459-3.114,0.336-4.233-0.369c-1.981-1.25-2.499-3.953-2.509-4.004c-0.096-0.542-0.613-0.907-1.156-0.81	c-0.544,0.095-0.908,0.613-0.813,1.157c0.025,0.146,0.658,3.601,3.396,5.339c1.616,1.026,3.583,1.235,5.841,0.617	c1.327-0.362,2.387-1.018,3.148-1.926c0.283,0.022,0.779,0.063,1.05,0.085l0.177,0.014C31.316,18.66,36.129,22.04,37.397,26.778z M40.783,16.079c-2.935,0.652-8.076,0.433-11.479,0.289c-1.328-0.057-2.382-0.101-3.079-0.091c0,0-0.001,0-0.001,0	c-0.307-0.038-0.614-0.078-0.928-0.103l-0.174-0.014c-0.051-0.004-0.112-0.009-0.176-0.015c0.522-1.663,0.358-3.549-0.18-5.297	c0.344-0.159,0.879-0.402,1.254-0.573l0.396-0.181c2.282-1.048,9.273-3.093,13.843-3.023c4.146,0.036,5.24,2.632,5.24,4	C45.5,13.698,43.913,15.383,40.783,16.079z"/><path fill="#ffeb00" fill-rule="evenodd" d="M5.989,23.587c0.808-0.217,1.621,0.192,1.814,0.911	c0.193,0.719-0.307,1.48-1.115,1.696s-1.621-0.192-1.814-0.911C4.68,24.563,5.18,23.803,5.989,23.587z" clip-rule="evenodd"/></svg>