<svg xmlns="http://www.w3.org/2000/svg"  viewBox="0 0 48 48" width="1600px" height="1600px"><path fill="#8BC34A" d="M43,27.9c0-2.8-1.9-5.2-4.8-7.1C37.6,13.6,31.6,8,24,8S10.4,13.6,9.8,20.8c-3,1.8-4.7,4.4-4.7,7.1c0,4,3.8,7.4,9.3,9.2c2.1,3.1,5.5,4.9,9.7,4.9c4,0,7.6-2,9.7-4.9C39.2,35.3,43,31.9,43,27.9z"/><path fill="#D32F2F" d="M38.9,16.2c0,0-1.1-2.7,0.2-4.9c1.2-2,1.7-3.4,1.7-3.4s2.6,2.3,1.8,5.6c-0.8,3.4-3.8,4.3-4,4.3C38.3,18.1,39.1,17.9,38.9,16.2z"/><path fill="#E53935" d="M37.8,16.2c0,0-2.1-2.1-1.8-4.6C36.3,9.4,36.3,8,36.3,8s3.4,1.1,4,4.4c0.6,3.4-1.7,5.3-2,5.5C38,18.2,38.6,17.6,37.8,16.2z"/><path fill="#F44336" d="M38.6,16.5c-0.6-0.6-3.6-2.4-6.7-2.4s-5.4,1.8-7.9,1.8s-4.8-1.8-7.9-1.8s-4.1,0.3-5.2,1.5c-1.2,1.2-1.4,5.5-1.4,5.5s3,2.2,6.8,2.2c0,0,2.5-3.7,7.6-3.7c5.2,0,8,3.8,8,3.8c3.5-0.2,5.4-1.2,6.9-2.3C39.2,20,39.4,17.2,38.6,16.5z"/><path fill="#EFEBE9" d="M16.5,17.1c2.9,0,5.6,2.2,5.6,2.2C19,20,18.4,21.1,17,21.2c-2.3,0.3-5-1-5-1S13.6,17.1,16.5,17.1z M31.3,17.1c-2.9,0-5.6,2.2-5.6,2.2c3.2,0.7,4,1.8,5.3,1.9c2.3,0.3,4.9-1,4.9-1S34.2,17.1,31.3,17.1z"/><path d="M30.3 18.9c-.8 0-1.4.6-1.4 1.4 0 .1 0 .1 0 .2.8.4 1.4.7 2.1.8.1 0 .2 0 .3 0 .3-.3.5-.6.5-1C31.8 19.5 31.1 18.9 30.3 18.9zM17.7 18.9c-.8 0-1.4.6-1.4 1.4 0 .4.2.8.5 1 .1 0 .2 0 .3 0 .7-.1 1.3-.4 2.1-.8 0-.1 0-.1 0-.2C19.1 19.5 18.5 18.9 17.7 18.9z"/><g><path fill="#33691E" d="M15.6 31.1c0 0 7.1 3.2 15.4 0 3-1.2 3 2 .5 2.5C19.4 35.4 15.6 31.1 15.6 31.1zM24 19c-7 0-9.2 6.7-9.2 6.7 2-2.9 5.5-4.7 9.2-4.7 3.8 0 7.2 1.7 9.2 4.6C33.2 25.6 31 19 24 19z"/></g></svg>