<svg xmlns="http://www.w3.org/2000/svg"  viewBox="0 0 48 48" width="1600px" height="1600px" baseProfile="basic"><path d="M9.84,18.166c0.065-0.033,0.124-0.081,0.171-0.142c0.168-0.219,0.126-0.533-0.093-0.701 c-2.393-1.832-4.948-2.505-6.645-1.803c2.108,0.378,3.479,0.544,6.037,2.597C9.465,18.241,9.673,18.25,9.84,18.166z"/><path d="M9.532,20.526c0.038-0.062,0.064-0.133,0.072-0.211c0.029-0.275-0.17-0.521-0.445-0.55 c-2.57-0.266-4.537,0.405-5.475,1.415c1.996-0.777,3.894-0.625,5.37-0.421C9.251,20.787,9.434,20.684,9.532,20.526z"/><path fill="#7bbed5" d="M15.282,48c6-15-2-21-2-21s-9-5-7-9s7-2,12,0c8-18,17-10,13-1c16-4,13,4,7,11s2,20,2,20H15.282z"/><path fill="#212121" d="M33.388,2.564l-3.523,5.089c-0.567-0.307-1.21-0.466-1.923-0.418l1.297-4.415l-3.622,5.21 c-0.169,0.099-0.335,0.18-0.508,0.299c0.275,0.361,0.494,0.882,0.428,1.64c2.17-1.468,5.585-1.053,3.319,8.266 c1.245-0.734,1.58-0.926,2.426-1.234c1.41-3.173,1.201-6.215-0.007-8.041L33.388,2.564z"/><path fill="#70276e" d="M12.102,26.282l0.005-0.021c10.448,2.465,17.473-0.496,21.527-3.413	c2.104-1.513,1.87-2.783,1.315-3.427l1.464-1.362c4.625,4.897-7.099,11.124-16.787,11.124c-1.55,0-2.952-0.083-4.696-0.348	C13.59,27.015,13.164,26.964,12.102,26.282z"/><ellipse cx="21.062" cy="14.356" fill="#fafafa" rx="3.57" ry="2.55" transform="rotate(-67.418 21.062 14.356)"/><ellipse cx="20.084" cy="14.111" fill="#64dd17" rx="2.195" ry="1.568" transform="rotate(-74.241 20.085 14.112)"/><ellipse cx="19.492" cy="13.543" fill="#212121" rx=".952" ry=".803" transform="rotate(-67.387 19.492 13.544)"/><path fill="#7986cb" d="M23.12,15.803c-0.376-0.456-0.788-0.89-1.235-1.261c-1.084-0.9-2.187-1.283-3.061-1.446 c0.786-1.691,2.364-2.639,3.61-2.121c1.292,0.537,1.73,2.439,0.977,4.248C23.327,15.428,23.227,15.62,23.12,15.803z"/><ellipse cx="24.36" cy="15.581" fill="#fafafa" rx="3.757" ry="2.683" transform="rotate(-65.28 24.358 15.58)"/><ellipse cx="23.318" cy="15.076" fill="#64dd17" rx="2.195" ry="1.568" transform="rotate(-67.387 23.318 15.076)"/><ellipse cx="22.64" cy="14.791" fill="#212121" rx=".952" ry=".813" transform="rotate(-67.387 22.64 14.792)"/><path fill="#7986cb" d="M26.894,16.917c-2.029-2.331-4.164-2.453-5.05-2.382c0.03-0.073,0.049-0.146,0.082-0.218 c0.909-1.974,2.788-3.047,4.198-2.398c1.41,0.649,1.816,2.775,0.907,4.749C26.991,16.756,26.938,16.833,26.894,16.917z"/><path fill="#eee" d="M32.111,23.85l0.415,4.182l-3.268-2.739C30.307,24.851,31.261,24.362,32.111,23.85z"/><path fill="#eee" d="M18.682,27.155l-1.181,3.568l-1.949-3.833C16.637,27.035,17.681,27.123,18.682,27.155z"/><g><circle cx="41.5" cy="19.5" r="1.5" fill="#ffeb3b"/><circle cx="39.5" cy="23.5" r="1.5" fill="#ffeb3b"/><path d="M41.398,19.83c-0.049-0.054-0.088-0.119-0.11-0.193c-0.08-0.265,0.07-0.543,0.334-0.623 c2.885-0.871,4.513-0.601,5.854,0.654c-2.106-0.389-2.448-0.716-5.565,0.303C41.722,20.032,41.524,19.967,41.398,19.83z"/><path d="M39.367,23.525c-0.034-0.064-0.055-0.137-0.058-0.215c-0.011-0.276,0.205-0.509,0.48-0.519 c2.582-0.094,4.5,0.707,5.369,1.777c-1.94-0.908-3.844-0.883-5.33-0.778C39.63,23.804,39.455,23.689,39.367,23.525z"/></g><path fill="#cd2616" d="M19.378,16.83c-2.298-1.293-5.266-2.394-7.037,0c-1.242,1.679,0.096,6.032,5.697,6.654	c5.648,0.628,8.761-1.915,8.378-4.213S21.679,18.124,19.378,16.83z"/></svg>