<svg xmlns="http://www.w3.org/2000/svg"  viewBox="0 0 48 48" width="1600px" height="1600px"><path fill="#FFB74D" d="M21 5A17 17 0 1 0 21 39A17 17 0 1 0 21 5Z"/><path fill="#37474F" d="M15.3,38c-1.3,0.6-2.8,1-4.3,1C5.5,39,1,34.5,1,29c0-2.8,1.2-5.3,3-7.1c0,0,0,0.1,0,0.1C4,29.4,8.7,35.7,15.3,38z M46.9,12.5C47,12.2,47,12,47,12h0c0-0.1,0-0.2,0-0.2c-0.1-1.7-1.6-2.9-3.2-2.8c-1.6,0.1-2.7,1.4-2.7,3h0c0,1.2-0.2,2.4-0.3,3.4C38.9,9.5,30.5,4.7,19,5c0,0.3,0,0.7,0,1c0,4.2,3.2,7.6,7.2,8c-0.1,0.7-0.2,1.3-0.2,2c0,5.5,4.5,10,10,10c1.6,0,3.6-0.6,4.5-4.4c4.1-1.3,5.6-5.6,6.2-8c0-0.2,0.1-0.4,0.1-0.5C46.9,12.9,46.9,12.7,46.9,12.5z"/><path d="M7.4,17.3c0.7-0.5,1.9-0.2,2.8,0.8c0.9,1,1,2.2,0.3,2.7c-0.7,0.5-1.9,0.2-2.8-0.8S6.7,17.8,7.4,17.3z M14.7,15c0.9,1,2.1,1.3,2.8,0.7c0.7-0.6,0.6-1.8-0.3-2.7c-0.9-1-2.1-1.3-2.8-0.7S13.9,14.1,14.7,15z"/><path fill="#FFD180" d="M15.3,23.2c-1.5-0.4-3.8-0.2-5.2,1c-1.4,1.2-1.6,3.6,0.1,4.6c1.6,0.9,4.8-0.9,4.8-0.9C17.5,26.1,17.7,23.8,15.3,23.2z"/><path fill="#FB8C00" d="M42,34c-1.6,5.8-6,7-9,7c-0.9-1.2-2.5-2.8-3.9-4.1c3.3-1.8,5.9-4.7,7.4-8.1C37.9,30.7,40,33.1,42,34z M17.8,12.1c-0.3-0.5-0.6-0.8-1.1-1.2c-0.4-0.3-0.9-0.6-1.3-0.7c-0.2-0.1-0.5-0.1-0.7-0.1c-0.1,0-0.2,0-0.3,0c-0.1,0-0.1,0-0.2,0c-0.2,0-0.3,0-0.3,0c-0.1,0-0.2,0-0.3,0.1c-0.5,0.2-0.8,0.8-0.6,1.3c0.2,0.5,0.8,0.8,1.3,0.6c0,0,0.1,0,0.3-0.1c0,0,0.1,0,0.2-0.1c0,0,0,0,0.1,0c0.1,0,0.1-0.1,0.2,0c0.2,0,0.6,0.1,0.9,0.2c0.3,0.2,0.7,0.4,1,0.7c0.3,0.3,0.6,0.6,0.8,1c0.1,0.2,0.2,0.4,0.2,0.5c0,0.2,0.1,0.4,0,0.5c0,0.3-0.2,0.6-0.3,0.7c-0.1,0.2-0.2,0.2-0.2,0.2s0.1-0.1,0.3-0.2c0.1-0.1,0.2-0.2,0.3-0.3c0.1-0.1,0.2-0.3,0.2-0.5c0.1-0.2,0.1-0.4,0.1-0.6c0-0.2,0-0.5-0.1-0.7C18.3,13,18.1,12.5,17.8,12.1z M11.3,18.1c-0.1-0.3-0.2-0.5-0.3-0.8c-0.1-0.3-0.3-0.5-0.5-0.7c-0.2-0.2-0.4-0.4-0.6-0.6c-0.2-0.2-0.4-0.4-0.7-0.5c-0.2-0.1-0.5-0.3-0.7-0.3c-0.1,0-0.2-0.1-0.4-0.1c-0.1,0-0.3,0-0.4,0c-0.1,0-0.3,0-0.4,0c-0.1,0-0.1,0-0.2,0c-0.2,0-0.3,0.1-0.3,0.1c-0.1,0-0.2,0-0.2,0.1C6,15.4,5.8,16,6,16.5c0.2,0.5,0.8,0.8,1.3,0.5c0,0,0.1,0,0.3-0.1c0,0,0.1-0.1,0.2-0.1c0,0,0,0,0.1,0c0,0,0.1,0,0.1,0c0.1,0,0.1,0,0.2,0c0.1,0,0.3,0,0.4,0.1c0.2,0,0.3,0.1,0.5,0.2c0.2,0.1,0.4,0.2,0.5,0.3c0.2,0.1,0.3,0.3,0.5,0.4c0.2,0.2,0.3,0.3,0.4,0.5c0.1,0.2,0.2,0.4,0.3,0.6c0.1,0.2,0.1,0.4,0.1,0.6c0,0.2,0,0.4-0.1,0.5c0,0.2-0.1,0.3-0.2,0.4c-0.1,0.1-0.2,0.2-0.3,0.3C10.1,20.9,10,21,10,21s0.1,0,0.3-0.1c0.1,0,0.2-0.1,0.4-0.2c0.1-0.1,0.3-0.2,0.4-0.4c0.1-0.2,0.2-0.4,0.3-0.6c0-0.2,0.1-0.5,0-0.8C11.4,18.6,11.3,18.4,11.3,18.1z M25.1,19c0.6,0,1-0.5,0.9-1.1c0-0.6-0.5-1-1.1-0.9c-0.1,0-1,0.1-2.1,0.7c-1.8,1-2.7,2.8-2.7,2.9c-0.2,0.5,0,1.1,0.5,1.3C20.7,22,20.9,22,21,22c0.4,0,0.7-0.2,0.9-0.6c0,0,0.3-0.5,0.7-1.1c0.5,1,1.3,2.7,1.3,4.7c0,3.7-2.7,6.2-2.7,6.3c-0.4,0.4-0.4,1-0.1,1.4c0.2,0.2,0.5,0.3,0.7,0.3c0.2,0,0.5-0.1,0.7-0.3c0.1-0.1,3.3-3.1,3.3-7.7c0-2.5-1-4.7-1.7-5.8C24.8,19,25.1,19,25.1,19z"/><path fill="#FFEA00" d="M35,26.5c0-1.4,1.1-2.5,2.5-2.5s2.5,1.1,2.5,2.5S38.9,29,37.5,29S35,27.9,35,26.5z M13.5,37.2c-0.9,0.4-1.5,1.3-1.5,2.3c0,1.4,1.1,2.5,2.5,2.5s2.5-1.1,2.5-2.5c0-0.4-0.1-0.7-0.2-1.1C15.6,38.1,14.5,37.7,13.5,37.2z"/></svg>