<svg xmlns="http://www.w3.org/2000/svg"  viewBox="0 0 48 48" width="1600px" height="1600px" baseProfile="basic"><path fill="#43a047" d="M29,33L29,33H19c0,0-11,1.986-11,13h32C40,35.025,29,33,29,33"/><path fill="#66bb6a" d="M15.109,40c0,0,3-2.38,6-2l-1-8C20.109,30,16.505,31.538,15.109,40z"/><path fill="#66bb6a" d="M33.109,40c0,0-3-2.38-6-2l1-8C28.109,30,31.712,31.538,33.109,40z"/><path fill="#e53935" d="M31.291,8.9C30.109,6.121,32.109,4,32.109,0c0,0,3,4,3,8s-1.505,5-1.505,5l-2.495-3	C31.109,10,31.411,9.184,31.291,8.9z"/><path fill="#ff9800" d="M19.109,27v6c0,0,1.109,5,5,9c4.109-4,5-9,5-9v-6H19.109z"/><path fill="#ffa726" d="M35,21c0,1.105-0.896,2-2,2c-1.105,0-2-0.895-2-2s0.895-2,2-2C34.104,19,35,19.895,35,21"/><path fill="#ffa726" d="M17,21c0-1.105-0.896-2-2-2c-1.106,0-2,0.895-2,2s0.894,2,2,2C16.104,23,17,22.105,17,21"/><path fill="#ffb74d" d="M33,15c0-7.635-18-4.971-18,0v7c0,4.971,4.028,9,9,9c4.971,0,9-4.029,9-9V15z"/><path fill="#e65100" d="M24,6c-6.075,0-10,4.926-10,11v2.286L16,21v-5l8,2.478L32,16v5l2-1.742V17c0-4.025-1.038-8.016-6-9	l-1-2H24z"/><path fill="#784719" d="M27,21c0-0.551,0.448-1,1-1s1,0.449,1,1s-0.448,1-1,1S27,21.551,27,21"/><path fill="#784719" d="M19,21c0,0.551,0.448,1,1,1s1-0.449,1-1s-0.448-1-1-1S19,20.449,19,21"/><path fill="#43a047" d="M24.109,3c0,0-6.804,2.761-9.495,10l9.495,2l9.495-2C30.913,5.761,24.109,3,24.109,3z"/></svg>