<svg xmlns="http://www.w3.org/2000/svg"  viewBox="0 0 48 48" width="1600px" height="1600px"><path fill="#fff" d="M36.974,29.605V24c0-8.284-6.716-15-15-15h-1c-8.284,0-15,6.716-15,15v5.605	c-1.249,1.202-2,2.73-2,4.395c0,3.845,3.987,6.967,8.921,7c4.721,0,12.438,0,17.159,0c4.934-0.033,8.921-3.154,8.921-7	C38.974,32.334,38.223,30.807,36.974,29.605z"/><path fill="#212121" d="M44.974,19c-4.859-4.859-9.712-6.343-12.23-6.797c-1.13-1.032-2.405-1.902-3.795-2.58	C28.791,8.192,27.763,6,25.474,6c-0.725,0-1.31,0.147-1.794,0.374c0.188-0.622,0.294-1.278,0.294-1.874c0-1.933-1.119-2.5-2.5-2.5	c-1.381,0-2.5,0.567-2.5,2.5c0,0.515,0.081,1.075,0.224,1.619C18.968,6.049,18.728,6,18.474,6c-1.381,0-2.5,1.119-2.5,2.5	c0,0.103,0.014,0.202,0.027,0.302c-2.398,0.787-4.551,2.119-6.302,3.86C8.379,11.81,7.974,8.547,7.974,5.5	c0-3.038-1.567-5.5-3.5-5.5s-3.5,2.462-3.5,5.5c0,0.126,0.007,0.25,0.012,0.373L0.974,5.875c0.004,0.034,0.011,0.064,0.015,0.098	C1.027,6.674,1.15,7.335,1.34,7.937c1.249,5.336,4.536,7.149,6.015,7.709c-1.5,2.435-2.381,5.291-2.381,8.355v5.194	c-1.293,1.379-2,3.07-2,4.806c0,4.374,4.447,7.963,9.92,8H30.06c5.467-0.037,9.914-3.626,9.914-8c0-1.735-0.707-3.427-2-4.806V24	c0-1.198-0.143-2.362-0.394-3.486c1.054,0.689,1.858,1.95,2.894,2.986c2.148,2.148,4.896,2.882,6.139,1.639	C47.856,23.896,47.122,21.148,44.974,19z M30.053,40H12.901c-4.371-0.029-7.927-2.721-7.927-6c0-1.338,0.585-2.608,1.693-3.675	c0.196-0.188,0.307-0.449,0.307-0.721V24c0-7.72,6.28-14,14-14h1c7.72,0,14,6.28,14,14v5.604c0,0.271,0.111,0.532,0.307,0.721	c1.108,1.066,1.693,2.337,1.693,3.675C37.974,37.279,34.418,39.971,30.053,40z"/><ellipse cx="14.974" cy="29.5" fill="#212121" rx="2" ry="2.5"/><ellipse cx="27.974" cy="29.5" fill="#212121" rx="2" ry="2.5"/><ellipse cx="21.474" cy="32.75" fill="#212121" rx="2.5" ry="1.75"/><path fill="#ff9800" d="M27.586,39c0,0-3.699,0.57-6.112,2.015C19.061,39.57,15.362,39,15.362,39c-0.873,2.486,0,6,0,6 c2.957-0.363,5.419-1.513,6.112-1.86c0.693,0.347,3.155,1.497,6.112,1.86C27.586,45,28.459,41.486,27.586,39z"/><path fill="#212121" d="M27.586,39c0.873,2.486,0,6,0,6c-2.957-0.363-5.419-1.513-6.112-1.86 c-0.693,0.347-3.155,1.497-6.112,1.86c0,0-0.873-3.514,0-6c0,0,3.699,0.57,6.112,2.015C23.887,39.57,27.586,39,27.586,39 M27.587,36.743c-0.114,0-0.229,0.009-0.345,0.026c-0.366,0.056-3.242,0.525-5.768,1.699c-2.526-1.174-5.403-1.643-5.768-1.699 c-0.116-0.018-0.231-0.026-0.345-0.026c-0.945,0-1.807,0.595-2.128,1.509c-1.066,3.035-0.167,6.865-0.061,7.292 c0.252,1.016,1.165,1.713,2.188,1.713c0.092,0,0.184-0.006,0.277-0.017c2.429-0.298,4.528-1.05,5.837-1.614 c1.309,0.564,3.408,1.316,5.837,1.614c0.093,0.011,0.185,0.017,0.277,0.017c1.024,0,1.936-0.697,2.188-1.713 c0.106-0.427,1.005-4.257-0.061-7.292C29.394,37.338,28.532,36.743,27.587,36.743L27.587,36.743z"/><path fill="#9575cd" d="M21.474,41.015c-0.105-0.063-0.215-0.122-0.325-0.182l-2.461,3.42 c1.36-0.434,2.381-0.911,2.786-1.114c0.089,0.045,0.21,0.104,0.355,0.172l2.546-3.539C23.398,40.081,22.351,40.489,21.474,41.015z"/><path fill="#9575cd" d="M25.841,44.684l2.13-2.96c0.005-0.908-0.087-1.875-0.385-2.724c0,0-0.052,0.008-0.134,0.022 l-3.655,5.08C24.401,44.31,25.093,44.513,25.841,44.684z"/><path fill="#9575cd" d="M17.192,39.384l-2.194,3.049C15.081,43.867,15.362,45,15.362,45 c0.097-0.012,0.188-0.031,0.284-0.045l3.573-4.966C18.504,39.736,17.801,39.536,17.192,39.384z"/></svg>