<svg xmlns="http://www.w3.org/2000/svg"  viewBox="0 0 48 48" width="1600px" height="1600px"><path fill="#FFD600" d="M44.4,17.2L42.2,14c-1.2-1.5-3-1.1-4.6,0c-1.6,1.2-2.2,2.6-1.1,4.2l2.4,3.2l-5.5,3.7c-0.5,0.3-0.6,0.9-0.3,1.4c0.2,0.3,0.5,0.4,0.8,0.4c0.2,0,0.4-0.1,0.6-0.2l7.1-4.8c0.6-0.1,1.2-0.3,1.7-0.7C45,20.3,45.5,18.7,44.4,17.2z"/><path fill="#CFD8DC" d="M14,7c0,0-0.9-1-5-1s-7,3.3-7,7c0,3.8,2.2,5.2,4,7s23-4,23-4s3-0.5,3-5s-4.4-7-9-7S15.9,5.7,14,7z"/><path fill="#FFA726" d="M8 29A4 4 0 1 0 8 37A4 4 0 1 0 8 29Z"/><path fill="#37474F" d="M24,12c0,0,11,0.8,11,5s-7,5-7,5l-4-8V12z"/><path fill="#B0BEC5" d="M32,11c0-0.1,0-0.2,0-0.3c-2-0.2-5.2-0.1-8,1.3c0,0,4.3,0.3,7.6,1.6C31.8,12.9,32,12.1,32,11z"/><path fill="#FFB74D" d="M34.5,23c-1.3,0-2.6,0.4-3.6,1.1C30,23.6,29.3,22.9,29,22c-0.6-2.2,0.1-3.3-2-6c-2.8-3.6-12-3-12-3S3.8,14.6,5,24c0.6,4.9,2.5,7.9,4.1,9.7C9.1,34.2,9,34.6,9,35c0,5,5.6,9,12.5,9c6.4,0,11.8-3.5,12.4-8c0.2,0,0.4,0,0.6,0c3.6,0,6.5-2.9,6.5-6.5S38.1,23,34.5,23z M28.3,27.5C28.3,27.5,28.3,27.5,28.3,27.5L28.3,27.5C28.3,27.5,28.3,27.5,28.3,27.5z"/><path d="M25.5,20.3c-0.9,0.1-1.6,1.2-1.5,2.5c0.1,1.3,0.8,2.2,1.7,2.1c0.9-0.1,1.6-1.2,1.5-2.5C27.1,21.2,26.4,20.2,25.5,20.3z"/><path fill="#4E342E" d="M38.3,14.7c-1,0.7-1.6,1.6-1.2,2.1c0.4,0.4,1.5,0.2,2.6-0.5c1-0.7,1.6-1.6,1.2-2.1C40.5,13.8,39.4,14,38.3,14.7z"/><path fill="#3E2723" d="M26,30c-2.7,1.8-0.8,9-7,9s-4.4-6.4-7-9C14.7,25.8,22.6,29.9,26,30z"/><path fill="#FFF" d="M24.8,31.8c0.3-0.8,0.6-1.5,1.2-1.8c-3.4-0.1-11.3-4.3-14,0c0.3,0.3,0.6,0.7,0.8,1.1C15.6,28.7,21.3,31.2,24.8,31.8z"/><path fill="#FFD180" d="M34.1,26c-1.9-1.5-6.9-1.6-9.1,1.2c-0.6,0.8-1.1,1.8-0.9,2.7c0.2,1.2,1.4,2,2.5,2.5c1.4,0.5,2.9,0.7,4.3,0.6c0.8-0.1,1.6-0.2,2.2-0.7C34.6,30.8,36,27.5,34.1,26z"/><path fill="#FF1744" d="M19,33.8c0,0.1,0,0.1,0.1,0.2c0.2,0.7,0.3,1.5,0.2,2.1C19.2,36.7,19,37,19,37c0,0,0.1-0.4,0-0.9c-0.1-0.5-0.4-1.1-0.8-1.7c-0.4-0.5-0.9-1-1.3-1.3c-0.1,0-0.1-0.1-0.1-0.1C16.5,33,16.3,33,16,33c-0.9,0-1.7,0.2-2.4,0.5c0.7,2.7,1.3,5.5,5.4,5.5c1.3,0,2.2-0.3,2.9-0.8C21.7,36.3,20.6,34.7,19,33.8z"/><path fill="#263238" d="M6.9,17.2l-1.8-2.4c0.3-0.2,7.5-5.3,18.2-3.3l-0.6,2.9C13.3,12.7,6.9,17.2,6.9,17.2z"/><path fill="#FFEA00" d="M23 11A2 2 0 1 0 23 15A2 2 0 1 0 23 11Z"/><path fill="#FB8C00" d="M26,24.9c0.2,0,0.3,0,0.3,0S26.2,25,26,24.9c-0.1,0.1-0.2,0.1-0.4,0.1c-0.2,0-0.3-0.1-0.5-0.1c-0.2-0.1-0.3-0.2-0.5-0.4c-0.2-0.2-0.3-0.3-0.5-0.5c-0.3-0.4-0.5-0.9-0.6-1.4c-0.1-0.5-0.1-1.1-0.1-1.6c0.1-0.5,0.2-1,0.5-1.4c0.1-0.2,0.3-0.4,0.4-0.6c0.1-0.1,0.2-0.2,0.2-0.2c0,0,0.1-0.1,0.1-0.1c0.2-0.1,0.3-0.2,0.3-0.2c0.4-0.4,1.1-0.3,1.4,0.1s0.3,1.1-0.1,1.4c-0.1,0.1-0.1,0.1-0.2,0.1c0,0-0.1,0-0.3,0.1c0,0-0.1,0-0.2,0.1c0,0,0,0-0.1,0c0,0-0.1,0-0.2,0.1c-0.2,0.1-0.4,0.4-0.5,0.8c-0.1,0.3-0.2,0.7-0.2,1.2c0,0.4,0,0.9,0.2,1.2c0.1,0.2,0.1,0.4,0.2,0.5c0.1,0.1,0.2,0.3,0.3,0.4C25.5,24.8,25.8,24.9,26,24.9z M22,24.9c0,0-0.2-0.1-0.4-0.3c-0.2-0.2-0.5-0.5-0.9-0.9c-0.7-0.8-1.4-2.1-2.5-3.3c-0.3-0.3-0.6-0.6-1-0.8c-0.2-0.1-0.4-0.2-0.6-0.3c-0.1,0-0.3-0.1-0.4-0.1l-0.1,0l0,0l-0.1,0l-0.1,0c-0.8,0-1.7,0.2-2.3,0.6c-0.6,0.4-1,0.8-1.2,1.2c-0.1,0.2-0.2,0.3-0.3,0.4c-0.1,0.1-0.1,0.2-0.1,0.2l0,0c0,0.1,0,0.1-0.1,0.2c-0.1,0.5,0.2,1.1,0.7,1.2c0.5,0.1,1.1-0.2,1.2-0.7c0,0,0,0,0-0.1c0,0,0-0.1,0.1-0.2c0.1-0.2,0.3-0.5,0.6-0.8c0.3-0.3,0.7-0.5,1.3-0.5l0.1,0c0,0,0.1,0,0,0l0,0l0.1,0l0.2,0c0.1,0,0.2,0,0.4,0.1c0.3,0.1,0.5,0.3,0.8,0.5c1.1,0.8,2.1,2,2.9,2.8c0.3,0.3,0.5,0.5,0.8,0.6c-0.3-0.1-0.7-0.2-1.1-0.3c-0.5-0.1-1-0.2-1.5-0.3c-0.2,0-0.4,0-0.5-0.1c-0.1,0-0.2,0-0.2,0c-0.5,0.1-0.9,0.6-0.8,1.2c0.1,0.5,0.6,0.9,1.2,0.8c0,0,0,0,0.1-0.1c0.1,0,0.2-0.1,0.4-0.2c0.3-0.1,0.8-0.3,1.3-0.4c0.7-0.2,1.3-0.3,1.7-0.3c0.2,0.1,0.3,0.1,0.3,0.1l0,0c0.1,0,0.1,0,0.2-0.1C22.2,25,22.1,24.9,22,24.9z"/></svg>