<svg xmlns="http://www.w3.org/2000/svg"  viewBox="0 0 48 48" width="1600px" height="1600px"><path fill="#81d4fa" d="M47,19l-1.5,0c-0.2,0-0.4,0-0.6,0c-2.8,0-4.5-0.5-5.6-0.8c0.5-1.7,1.9-4.9,3.8-7.4l1-1.3l-1.6-0.3 C41.5,9.1,40.6,9,39.6,9c-2.3,0-4.6,0.2-5.9,0.6C33.6,8.3,33,5.8,33,3V2h-1c-2.5,0-6.3,2.8-7.9,4c-1.7-1.6-5.6-5.1-8-5.1L16,1l-1,0 v1c0,3.1-0.5,5.7-0.8,7c-1.5-0.1-4.5,0-7.8-0.7L5,8l0.2,1.4c0.7,4.3,2.2,7.4,3.2,9c-1.6,0.5-3.6,1.7-6.4,3.8L1,23.1l1.1,0.8 c1.6,1.1,2.7,1.9,3.6,2.5c1,0.6,1,1,1.8,1.7c-2.2,2-4,3.1-4.1,3.1L2.1,32l1.4,0.9L8,35.5c-0.1,0.6-0.4,1.6-0.7,3.9L7,41c0,0,6-1,9-3 h16c0.9,0.4,4,3,6.8,3H40l-0.3-1.2c-0.4-1.7-0.6-2.7-0.7-3.3c1.4-0.9,5.4-3.4,6.4-5.5L46,30l-1.1-0.3c-1.1-0.3-2.6-1-3.4-1.6 c1.4-1.3,3.6-4.1,5-7.6L47,19z"/><path fill="#bcaaa4" d="M35 28A4 4 0 1 0 35 36 4 4 0 1 0 35 28zM13 28A4 4 0 1 0 13 36 4 4 0 1 0 13 28z"/><path fill="#d7ccc8" d="M24,11c-6.1,0-11,5.4-11,13.2v9.5C13,41.6,17.9,47,24,47s11-5.4,11-13.2v-9.5C35,16.4,30.1,11,24,11z"/><path fill="#43a047" d="M25.1,37h-5.3H19v0.9c0,1.2,0.5,2.5,1.6,2.7c0.1,1.2,0.7,2.4,1.9,2.4c1.2,0,1.8-1.2,2-2.4 c0.7-0.2,1.5-0.9,1.5-2.7V37H25.1z"/><path fill="#8d6e63" d="M17,39c-0.4,0-0.8-0.3-0.9-0.7c-0.2-0.5,0.1-1.1,0.6-1.3c0.1,0,3.2-1.1,7.3-1.1c4.1,0,7.2,1,7.3,1.1 c0.5,0.2,0.8,0.7,0.6,1.3c-0.2,0.5-0.7,0.8-1.3,0.6c0,0-2.9-0.9-6.7-0.9c-3.8,0-6.7,0.9-6.7,0.9C17.2,39,17.1,39,17,39z"/><path fill="#efebe9" d="M22,26v4.5c0,1.1,0.1,4.5,2,4.5s2-3.4,2-4.5V26H22z"/><path fill="#fafafa" d="M28.5 21A4.5 4.5 0 1 0 28.5 30A4.5 4.5 0 1 0 28.5 21Z"/><path fill="#fafafa" d="M19.5 21A4.5 4.5 0 1 0 19.5 30A4.5 4.5 0 1 0 19.5 21Z"/><g><path fill="#212121" d="M29 24A1 1 0 1 0 29 26 1 1 0 1 0 29 24zM19 25A1 1 0 1 0 19 27 1 1 0 1 0 19 25z"/></g><g><path fill="#64b5f6" d="M24,22c-1.4,0-2.6-0.3-3.7-0.6c-0.5-0.1-1.1-0.3-1.5-0.3c-1.6-0.2-2.6,0-2.6,0 c-0.5,0.1-1.1-0.2-1.2-0.7c-0.1-0.5,0.2-1,0.7-1.2c0.1,0,1.4-0.3,3.4,0c0.5,0.1,1.1,0.2,1.7,0.4c1,0.3,2,0.5,3.1,0.5 s2.1-0.3,3.1-0.5c0.6-0.2,1.2-0.3,1.7-0.4c2-0.3,3.3,0,3.4,0c0.5,0.1,0.9,0.6,0.7,1.2c-0.1,0.5-0.7,0.8-1.2,0.7c0,0-1-0.2-2.6,0 c-0.4,0.1-0.9,0.2-1.5,0.3C26.6,21.7,25.4,22,24,22z"/></g></svg>