<svg xmlns="http://www.w3.org/2000/svg"  viewBox="0 0 48 48" width="1600px" height="1600px"><path fill="#ffb74d" d="M13.06 31.978c0 0-.97-.978-1.94-.978s-1.94 1.955 0 4.888S15 37.844 15 37.844M34.94 31.978c0 0 .97-.978 1.94-.978.97 0 1.94 1.955 0 4.888S33 37.844 33 37.844"/><path fill="#ffd180" d="M35.99,23.005C33.343,19.885,29.481,15.98,29,16h-5h-5c-1.308,0.472-4.788,4.568-7,7 c-1.701,1.87-1.573,4.787-2.01,6.005l1.394,1.859c1.057,1.41,1.785,3.038,2.131,4.766l0,0c0.31,1.549,1.071,2.971,2.188,4.088l0,0 c1.297,1.297,2.773,2.393,4.37,3.287c0.269,0.167,0.533,0.341,0.809,0.494l2.374,1.314c0.462,0.256,1.005,0.256,1.467,0l2.374-1.314 c0.276-0.153,0.54-0.327,0.809-0.494l0,0c1.598-0.894,3.074-1.99,4.37-3.287l0,0c1.117-1.117,1.878-2.539,2.188-4.088l0,0 c0.346-1.728,1.074-3.356,2.131-4.766l1.394-1.859C38.023,28.338,38.091,25.481,35.99,23.005z"/><path fill="#ffd600" d="M8 10.995L3 27.995 3 44.995 3 44.995 12 17.995 11 10.995z"/><path fill="#ffd600" d="M11.5 3A5.5 5.5 0 1 0 11.5 14A5.5 5.5 0 1 0 11.5 3Z"/><path fill="#fbc02d" d="M24 22L17 17 17 21.995 24 26.995 31 21.995 31 17z"/><path fill="#ffd600" d="M40 10.995L45 27.995 45 44.995 45 44.995 36 17.995 37 10.995z"/><path fill="#ffd600" d="M36.5 3A5.5 5.5 0 1 0 36.5 14A5.5 5.5 0 1 0 36.5 3Z"/><path fill="#f4511e" d="M12 6A3 3 0 1 0 12 12 3 3 0 1 0 12 6zM36 6A3 3 0 1 0 36 12 3 3 0 1 0 36 6z"/><path fill="#37474f" d="M21,30.993l-0.01-0.996c0-0.998-1.154-1.997-2.996-1.997C14.729,28.001,14,29,14,29.999 c0,1.998,2.657,3.996,3.994,3.996c0.415,0,1.008-0.005,1.008-0.005L21,30.993z"/><path fill="#3949ab" d="M21,30.995c0-0.559,0.01-2-1.994-2s-3.006,2-3.006,3c0,1,1.002,4,3.006,4S21,32.576,21,30.995z"/><path fill="#fff" d="M19 30A1 2 0 1 0 19 34A1 2 0 1 0 19 30Z"/><path fill="#8c9eff" d="M16.276,33.313c0.182-0.194,0.437-0.318,0.724-0.318c0.552,0,1,0.448,1,1 c0,0.499-0.372,0.894-0.849,0.97C16.759,34.47,16.467,33.868,16.276,33.313z"/><g><path fill="#37474f" d="M27,30.997l0.01-0.996c0-0.998,1.154-1.997,2.996-1.997c3.265,0,3.994,0.999,3.994,1.998 c0,2-2.657,3.998-3.994,3.998c-0.415,0-1.008-0.005-1.008-0.005L27,30.997z"/><path fill="#3949ab" d="M28.994,29C26.99,29,27,30.441,27,31c0,1.581-0.01,5,1.994,5S32,33,32,32S30.998,29,28.994,29z"/><path fill="#fff" d="M29 30A1 2 0 1 0 29 34A1 2 0 1 0 29 30Z"/><path fill="#8c9eff" d="M31.724,33.318C31.542,33.124,31.287,33,31,33c-0.552,0-1,0.448-1,1c0,0.499,0.372,0.894,0.849,0.97 C31.241,34.475,31.533,33.873,31.724,33.318z"/></g><path fill="#ff7043" d="M23.757,40.858c-0.274-0.351-0.562-0.766-0.837-1.249c-0.425-0.744-0.705-1.445-0.893-2.034 c-0.004-0.008-0.065-0.136,0.012-0.255c0.048-0.073,0.132-0.124,0.235-0.124c0.461-0.107,1.077-0.204,1.805-0.196 c0.655,0.007,1.213,0.096,1.645,0.196c0.008,0,0.155,0.002,0.235,0.124c0.048,0.073,0.058,0.168,0.012,0.255 c-0.171,0.538-0.421,1.178-0.795,1.862c-0.308,0.563-0.634,1.035-0.935,1.421C24.191,40.946,24.099,41,23.999,41 C23.903,41,23.806,40.953,23.757,40.858z"/><path fill="#ffea00" d="M42,16c-1-4-6-5-6-5s-2-5-8-5c-3,0-4,1-4,1s-1-1-4-1c-6,0-8,5-8,5s-5,1-6,5c0,0-2,1-2,4c0,2,1,3,1,3 s0,0.375,0,0.521c0,1,0.75,2.688,2,3.479c0,0,0,3,5,3c-0.226-0.132-0.704-0.453-1.023-1.062c-0.482-0.92-0.245-1.816-0.185-2.021 c0.075,0.179,0.544,1.253,1.724,1.646c0.676,0.225,1.208,0.121,1.484,0.053c-0.239-0.355-0.448-0.849-0.625-1.475 c-0.411-1.454-0.064-2.703,0.125-3.245c0.05,0.22,0.266,1.057,1.072,1.63c1.064,0.756,2.259,0.415,2.407,0.37 c-0.143-0.134-0.504-0.509-0.604-1.104C16.208,23.793,16.927,23.071,17,23c0.101,0.293,0.378,0.966,1.066,1.46 c1.243,0.893,2.713,0.404,2.867,0.35C20.591,24.518,18.974,23.082,19,21c0.006-0.466,0.088-1.565,0.791-2.268 C20.523,18,21.5,18,21.5,18s2.5,0,2.5,2c0-2,2.5-2,2.5-2s0.977,0,1.709,0.732C28.912,19.435,28.994,20.534,29,21 c0.026,2.082-1.591,3.518-1.934,3.81c0.155,0.054,1.624,0.544,2.867-0.35C30.622,23.966,30.899,23.293,31,23 c0.073,0.071,0.793,0.793,0.625,1.792c-0.1,0.595-0.461,0.97-0.604,1.104c0.147,0.045,1.343,0.386,2.407-0.37 c0.806-0.573,1.023-1.41,1.072-1.63c0.189,0.542,0.536,1.791,0.125,3.245c-0.177,0.626-0.387,1.12-0.625,1.475 c0.277,0.068,0.809,0.172,1.484-0.053c1.18-0.393,1.649-1.467,1.724-1.646c0.06,0.205,0.297,1.101-0.185,2.021 C36.704,29.547,36.226,29.868,36,30c5,0,5-3,5-3c1.25-0.792,2-2.479,2-3.479C43,23.375,43,23,43,23s1-1,1-3C44,17,42,16,42,16z"/><path fill="#f4511e" d="M24 23A1 1 0 1 0 24 25A1 1 0 1 0 24 23Z"/></svg>