<svg xmlns="http://www.w3.org/2000/svg"  viewBox="0 0 48 48" width="1600px" height="1600px" baseProfile="basic"><path fill="#ab47bc" d="M42,37.75H6c-1.105,0-2-0.895-2-2V11c0-1.105,0.895-2,2-2h9.172c0.53,0,1.039,0.211,1.414,0.586	l2.121,2.121C18.895,11.895,19.149,12,19.414,12H42c1.105,0,2,0.895,2,2v21.75C44,36.855,43.105,37.75,42,37.75z"/><path fill="#ba68c8" d="M42,39.75H6c-1.105,0-2-0.895-2-2V16c0-1.105,0.895-2,2-2h36c1.105,0,2,0.895,2,2v21.75	C44,38.855,43.105,39.75,42,39.75z"/><circle cx="24" cy="27" r="10" fill="#ffca28"/><circle cx="19.5" cy="24.5" r="8.5" fill="#ba68c8"/></svg>