<svg xmlns="http://www.w3.org/2000/svg"  viewBox="0 0 48 48" width="1600px" height="1600px"><path fill="#ffa726" d="M33.6 24.9c0 2.7.1 7.1 2.1 7.1s4.3-4.9 4.3-7.6S39.4 20 37.3 20 33.6 22.2 33.6 24.9zM14.4 24.9c0 2.7-.1 7.1-2.1 7.1S8 27.1 8 24.4 8.6 20 10.7 20 14.4 22.2 14.4 24.9z"/><path fill="#ffb74d" d="M24,2c-7.7,0-14,6.7-14,15.1c0,5.4,1.9,16.6,4,19.9c2.1,3.2,7.3,7,10,7s7.9-3.8,10-7 c2.1-3.3,4-14.5,4-19.9C38,8.7,31.7,2,24,2z"/><path fill="#ffe0b2" d="M33,10.1c0-1.9-1.6-3.6-3.7-4C28.9,6,28,5.9,28,6.9c0,1.9,1.6,3.6,3.7,4C32.1,11,33,11.1,33,10.1z"/><path fill="#fff" d="M35,22.2c0-1.3-4.6-1.3-4.6-1.3S27,21,27,23.5c0,1.8,2.8,2.5,4.4,2.5C33.2,26,35,24.7,35,22.2z"/><path fill="#263238" d="M31 22A1 1 0 1 0 31 24A1 1 0 1 0 31 22Z"/><path fill="#ff6d00" d="M27,34c0,0-2.3,0-3.4,0c-0.7,0-1.1,0.5-1.1,1c0,0.5,0.5,1,1.7,1C25.9,36,27,34,27,34z"/><path fill="#ff6d00" d="M22.3,35.5C21.7,35,22,34,22.8,34h1.6c0.7,0,1.1,0.5,1.1,1c0,0.5-0.5,1-1.7,1 C23.3,36,22.8,35.8,22.3,35.5z"/><path fill="#ff9100" d="M21 19h-4c-.6 0-1-.4-1-1s.4-1 1-1h4c.6 0 1 .4 1 1S21.6 19 21 19zM32 19h-4c-.6 0-1-.4-1-1s.4-1 1-1h4c.6 0 1 .4 1 1S32.6 19 32 19zM20.1 21h-1.3v2.2H21V29h2v-5.1C23 22.3 21.7 21 20.1 21z"/><path fill="#fff" d="M14,22.2c0-1.3,4.6-1.3,4.6-1.3s3.4,0,3.4,2.5c0,1.8-2.8,2.5-4.4,2.5C15.8,26,14,24.7,14,22.2z"/><path fill="#263238" d="M18 22A1 1 0 1 0 18 24A1 1 0 1 0 18 22Z"/><path fill="#ff9100" d="M24,32c-1.7,0-3-1.3-3-3c0-0.6,0.4-1,1-1s1,0.4,1,1c0,0.6,0.4,1,1,1c0.6,0,1,0.4,1,1S24.6,32,24,32z"/></svg>