<svg xmlns="http://www.w3.org/2000/svg"  viewBox="0 0 48 48" width="1600px" height="1600px" baseProfile="basic"><path fill="#b0720c" d="M40,12c-2-1-4.47-1.265-7,0c-2.615,1.308-4.262-0.847-5-2c-1.558-2.433-3.647-2.958-7-2 c-7,2-9.75,8.875-10.75,15.875S14,48,14,48h20c0,0-0.482-4.809-2.443-12.756c0.667-0.657,1.227-1.469,1.641-2.397 C34.818,32.464,36,31.342,36,30c0-0.097-0.026-0.188-0.038-0.283C38.723,30.321,38.045,26.977,42,25C46,23,42,13,40,12z"/><path fill="#b0720c" d="M13,17c0,0-6.313-5-3-9c-1-4,0.001-7.946,2-8c1.58-0.043,2,5,2,5s5,2,1,8C15,16,13,17,13,17z"/><path fill="#b0720c" d="M25,0c-1,0-2,2-4,3c-1.789,0.894,1,4-1,6c3-1,6,1,6,1s3.452-3.973-0.548-5.973 C27.223,1.872,27,0,25,0z"/><path fill="#6d4408" d="M20,19c0,0-1.354,4.922,1.862,5.245c1.526,0.153,2.202-2.074,3.287-1.883 c1.085,0.191-0.574,6.191,3.574,7.34c4.149,1.149,11.043-2.234,11.234-8.617c-1.021-0.064-1.34-0.064-1.34-0.064 s-0.766,7.297-8.745,7.213c-4.533-0.048-1.915-6.511-4.277-7.053c-2.152-0.494-2.33,1.532-3.638,1.532C19.722,22.713,20,19,20,19z"/><path fill="#6d4408" d="M19.34,26.128C21,36.755,29.266,38.766,31.66,32.702c0.702-0.128,1.213,0.319,1.213,0.319 C32.362,37.713,20.394,43.17,19.34,26.128z"/><path fill="#6d4408" d="M28.085,31.745c0,0,2.809,2.745,5.936,1.851s1.755-5.872,1.755-5.872l-1.564,0.574 c0,0,1.34,3.383-0.766,4.085C31.34,33.085,28.085,31.745,28.085,31.745z"/><path fill="#eee" d="M22.738,10c-1.334,0-3.602,2.05-3.735,4.237c-0.133,2.187,4.341,2.914,4.935-1.23 C24.272,10.683,23.164,9.991,22.738,10z"/><path fill="#eee" d="M26.777,10.473c1.067,0,2.114,1.367,2.221,3.116c0.107,1.749-2.612,2.449-3.088-0.866 C25.643,10.865,26.435,10.466,26.777,10.473z"/><path fill="#ffccbc" d="M12.096,2.064c-0.075,0.86-0.766,8.043,0.144,10.245s3.16,1.676,4.069-0.862 c0.91-2.537,0.287-5.17-2.25-6.559c-0.048-1.053-0.239-1.628-0.431-3.064S12.335-0.665,12.096,2.064z"/><path fill="#ffccbc" d="M25.213,2.351c-2.298,0.527-3.064,2.968-2.059,4.5s2.872-0.191,2.011-1.676 S25.213,2.351,25.213,2.351z"/><circle cx="23" cy="13" r="1"/><circle cx="27" cy="13" r="1"/><path fill="#6d4408" d="M34.524,28.035c0,0,1.029,2.418,2.657,1.699c1.628-0.718,1.819-2.729,3.136-3.566 c-1.963,1.005-2.585,2.106-3.351,2.25c-0.766,0.144-1.101-0.91-1.101-0.91L34.524,28.035z"/><path fill="#212121" d="M40,22c-2.121,0.707-8-2-8-5s3-6,6-6s6,1,6,3S43,21,40,22z"/><path d="M23.154,8.479c0,0-2.649-0.335-4.324,2.394C19.085,6.819,22.245,6.755,23.154,8.479z"/><rect width="26" height="4" x="10" y="44" fill="#26c6da"/></svg>