<svg xmlns="http://www.w3.org/2000/svg"  viewBox="0 0 48 48" width="1600px" height="1600px" baseProfile="basic"><path fill="#f57c00" d="M43,14c0,0,0.5,4.812,1.5,7.812S44.948,27.949,43,30c-3.436,3.617,5.015,7.843-1.688,12.875 C36.255,46.672,28,42,28,42v-9L43,14z"/><polygon fill="#efad60" points="30,41 20,41 19.338,27.436 30,29"/><path fill="#ffcc80" d="M19,26c0,0,2.553,9.91,9.553,9.91C31.298,35.931,32.775,33.38,35,31 c1.494-1.598,2.917-2.691,3.319-4.298C39.319,22.702,39,21,41,18s-14-8-14-8l-8,5V26z"/><path fill="#eee" d="M28.234,21.628c0,0-0.287-4.277-4.979-3.223C23.255,23.404,28.234,21.628,28.234,21.628z"/><path fill="#efad60" d="M32.144,19.777c-0.718,0.814-1.316,2.465-0.511,4.691c0.381,1.051-0.468,1.449-1.867,1.628 c-0.905,0.116-0.854,1.029-0.231,1.101c0.654,0.112,3.718-0.335,3.184-2.753C32.319,22.641,31.473,21.851,32.144,19.777z"/><path fill="#eee" d="M33,22c0,0,1.074-3.085,5.351-1.457C37.362,23.702,34.255,23.426,33,22z"/><path fill="#e57373" d="M26.362,29.936l2.59-0.489c0.492,0.545,1.047,0.588,1.66,0.191l1.75,1.298c0,0-1,1-3,1 S26.362,29.936,26.362,29.936z"/><path fill="#7cb342" d="M17,46c0,0,8.489,5.085,17-1c0-3,0-6,0-6s-6,1-12,0S17,46,17,46z"/><path fill="#9ccc65" d="M36.309,39.644c2.106,2.666,3.064,5.027,4.596,8.356H31l-0.516-6.872 c-0.074-1.076-1.302-1.572-3.314-1.676l1.489-0.893C29.87,37.832,35.108,38.125,36.309,39.644z"/><path fill="#f57c00" d="M42,10c0,0,2,1,2,4s-3.062,5.688-9.062,4.688s-11.459-6.714-11.459-6.714S23,18,20,20 c-1,5,0.584,8.702,2.584,12.702s1.947,8.915-1.771,12.495C16.933,48.932,4.125,50.312,2,40c1.904,2.181,5.875-0.562,3.875-3.562 S2,28,9,22c1.489-9.404,5.351-18.766,15.053-21.404C32.738-1.766,42,4,42,10z"/><path fill="#b388ff" d="M21,13c0,0,3-6,11-6s11.537,4.782,11.537,4.782L42,8c0,0-3-5-10-5s-13,7-14,12 C19.074,13.745,21,13,21,13z"/><path fill="#212121" d="M23.255,18.404c0,1.222,0.306,2.021,0.755,2.558C24.122,20.986,24.237,21,24.356,21 C25.264,21,26,20.264,26,19.356c0-0.371-0.128-0.71-0.335-0.985C25.03,18.207,24.246,18.182,23.255,18.404z"/><path fill="#212121" d="M33.054,21.877c0.025,0.094,0.057,0.184,0.098,0.27c0.432,0.417,1.023,0.711,1.666,0.818 C35.493,22.819,36,22.219,36,21.5c0-0.573-0.325-1.065-0.797-1.317C33.809,20.507,33.214,21.528,33.054,21.877z"/><path fill="#212121" d="M22.952,16.282c3.879-1.539,3.83,1.245,5.984,1.915C26.303,18.915,26.878,15.803,22.952,16.282z"/><path fill="#ef6c00" d="M22.362,11.191c0,0-0.077,3.14-6.281,6.128c-3.642,1.754-4.749,5.745-5.132,8.808 c-0.23-7.047,2.681-9.191,4.749-10.264S21.366,12.877,22.362,11.191z"/><path fill="#ef6c00" d="M23.479,11.973c0,0-0.606,4.324-5.266,8.09s-3.511,9.702-3.511,9.702s0.511-5.617,3.766-8.106 S23.255,16.266,23.479,11.973z"/></svg>