<svg xmlns="http://www.w3.org/2000/svg"  viewBox="0 0 48 48" width="1600px" height="1600px" baseProfile="basic"><polygon fill="#0277bd" points="43,47 39,39 33,45"/><polygon fill="#039be5" points="31.383,39.021 39,39 36.979,47.979 32.833,47.979"/><path fill="#ffeb3b" d="M28,15.213c0,0,11-1.927,11-8.15S31.862-3.872,19.894,4.649C8.309,1.585,3.999,12.944,7.062,20.125 c-3.255,7.66,2.203,14.588,7.278,13.726C14.819,30.596,28,15.213,28,15.213z"/><polygon fill="#efad60" points="32.085,36.723 33.043,44.064 12.936,44.064 14.979,27.979"/><path fill="#ffcc80" d="M15.121,28.706c0.988,3.193,3.74,9.053,10.879,10.232c3.543,0.574,8.83-0.203,9.5-2.118 S37.989,26,37.989,24.851c0-1.149-3.543-4.117-2.681-6.511s-0.479-6.032-0.479-6.032c-4.561,2.895-9.619,3.296-15.128,1.436 c-0.492,2.119-1.553,3.712-4.213,3.83c1.912,2.855,1.497,5.657-0.383,8.426c-0.072-1.523-0.605-2.767-1.915-3.543 c0,0-2.202-0.766-2.872,0.957s0.479,6.223,2.585,6.894C15.011,30.979,14.915,29.543,15.121,28.706z"/><path fill="#eee" d="M21.17,21h4.388c0,0,1.823-3.443-0.912-3.5C21.905,17.443,21.186,20.255,21.17,21z"/><path fill="#efad60" d="M30.043,19.809c0,0,0,3,2.553,4.34c-0.638,1.596-1.404,2.234-1.404,2.234s2.426-0.766,3-2.681 C31.957,23.064,30.043,19.809,30.043,19.809z"/><polygon fill="#ff5722" points="23.021,42.851 30.362,44 32.66,40.745 34.702,40.681 37.104,47.979 26.021,47.958"/><path fill="#efad60" d="M33.936,28.633l0.048,2.16l1.101-0.048l-1.468,3.543l0.016-1.537c0,0-6.878,1.787-9.846-2.761 C26.372,28.984,33.936,28.633,33.936,28.633z"/><path fill="#efad60" d="M35.404,27.819l-2.441,1.963l-9.91,0.335C23.053,30.117,27.888,26.239,35.404,27.819z"/><path fill="#eee" d="M33,29v2c0,0-6,2-8-1C28,29,33,29,33,29z"/><path fill="#212121" d="M22.5,19c-0.287,0-0.552,0.085-0.78,0.224c-0.397,0.712-0.543,1.446-0.55,1.776h2.738 C23.964,20.843,24,20.676,24,20.5C24,19.672,23.328,19,22.5,19z"/><path fill="#eee" d="M31.17,21h3.388c0,0,0.903-2.891-0.398-3.298C32.117,17.064,31.186,20.255,31.17,21z"/><path fill="#212121" d="M32.5,19c-0.287,0-0.552,0.085-0.78,0.224c-0.397,0.712-0.543,1.446-0.55,1.776h2.738 C33.964,20.843,34,20.676,34,20.5C34,19.672,33.328,19,32.5,19z"/><path fill="#212121" d="M26,16c0,0-3-1-6,3C21,16,23,14,26,16z"/><path fill="#212121" d="M32,15c0,0,3.064,0,3.532,2C35,14,33,14,32,15z"/><polygon fill="#efad60" points="31,25 29,26 30,24"/><polygon fill="#0277bd" points="26,48 21.298,39.34 13,45"/><polygon fill="#039be5" points="12,36 7.723,43.447 17,48 21.298,39.34"/></svg>