<svg xmlns="http://www.w3.org/2000/svg"  viewBox="0 0 48 48" width="1600px" height="1600px" baseProfile="basic"><polygon fill="#efad60" points="22,40 21,48 27,48 28,41"/><path fill="#ffcc80" d="M19,22c0,0-5,0-5,7c0,2,1,6,5,5c1,7,4.094,12.22,12,11c6.479-1,7.311-5.326,6.957-8.468 C37.574,33.128,35.947,19.968,38,13c1.788-6.067-9-7-9-7l-9,9L19,22z"/><path fill="#a07416" d="M15,11c0,0-8-2-9,16c2-3,3-3,3-3S6.505,38.777,21.25,40.84c-1.771-4.069-1.58-7.66-1.58-7.66 S15,34,15,28c0-2,1-4,1-4s1,5,4,7c3-5,1-15,1-15s8-2,10-5c0,4-1,5-1,5s4.723-0.362,7.862-2.681C36,17,37,28,37,28s6-7,3-15 c8-6-3-13-9-13S15,4,15,11z"/><path fill="#efad60" d="M23.117,29.973c0,0,2.25,3.207,5.266,2.585c3.016-0.622,4.644-0.431,5.697-0.239 s1.484-0.239,2.106-1.245c0.79,1.891-1.436,2.92-2.202,2.872c-1.29-0.081-3.29,0.302-5.41,0.814 C26.396,35.287,23.309,33.779,23.117,29.973z"/><path fill="#efad60" d="M26.521,27.149C27.043,28.426,28.382,30.221,32,30c2.437-0.149,3.564-2.851,2.734-4.479 c-0.764-1.498-3-2.872-3.096-4.691c-0.083-1.58,0.527-2.824,0.527-2.824s-1.436,1.484-1.484,3.303s1.75,3.428,2.138,4.564 C33.681,28.394,29.277,29.064,26.521,27.149z"/><path d="M28.91,15.851c-0.718-1.005-4.117-2.681-5.601,2.681C25.223,16.043,27.138,15.612,28.91,15.851z"/><path d="M35.755,17.718c0,0-1.053-1.388-3.207-0.574C33.745,14.894,35.66,15.612,35.755,17.718z"/><circle cx="27" cy="21" r="1"/><circle cx="34" cy="21" r="1"/></svg>