<svg xmlns="http://www.w3.org/2000/svg"  viewBox="0 0 48 48" width="1600px" height="1600px" baseProfile="basic"><path fill="#f57c00" d="M13.676,29.447c0,0-3.112,0.573-2.872,5.248s9.144,13.263,17.665,13.263s7.707-6.966,7.707-6.966 s5.84-5.248,0.431-7.443C31.197,31.355,13.676,29.447,13.676,29.447z"/><path fill="#5a2227" d="M19.707,30.548c-5.601,4.979-15.511,4.739-15.511-10.723S18.559,0.005,24.207,0.005 s21.399,3.351,16.995,17.33c4.835,4.309,2.965,11.207-2.441,11.824C35.051,29.584,23.489,30.309,19.707,30.548z"/><path fill="#ffcc80" d="M13.053,25.904c0.426,1.277,1.628,3.686,6.606,3.112c-0.574,1.628-1.819,2.968-3.372,3.747 C19.462,35.661,23.748,38.078,29,38c4.999-0.074,11-5,11-11c0-0.6-0.36-1.56-1.08-2.664c-1.129-1.732-1.592-3.813-1.143-5.832 l0.553-2.893c-1.488,0.541-3.022,0.564-4.596,0.148c-2.514,1.283-4.87,1.316-7.084,0.227c-3.502,1.295-6.661,1.653-9.193,0.295 c-2.25,2.968-3.255,8.043,0.718,9.814C16.476,26.711,14.767,26.544,13.053,25.904z"/><rect width="18" height="2" x="15" y="19" fill="#039be5"/><path fill="#039be5" d="M19,19c-0.283,2.673-0.066,5.071,1,7c2.518,0.403,5.199,0.363,8,0c0.449-2.375,0.416-4.706,0-7 C24.911,18.191,21.909,18.177,19,19z"/><path fill="#039be5" d="M31,19l1,7c2.711,0.059,5.277-0.083,7.383-0.862C39.923,23.244,40.091,21.181,40,19 C37.138,18.132,34.121,18.237,31,19z"/><path fill="#efad60" d="M30.144,23.798c0,0,1.101,0.67,2.011,0.67c0.91,0,1.723,1.58-0.622,3.543 c0.574-1.436,0.527-2.346-0.287-2.633C30.431,25.09,30.144,23.798,30.144,23.798z"/><circle cx="24" cy="22" r="1"/><circle cx="35" cy="22" r="1"/><path fill="#efad60" d="M22.628,29.854l0.796-0.839c0.031,0.031,0.774,1.273,2.554,0.737 c2.534-0.761,4.784-0.441,5.992-0.048c0.974,0.317,1.445-0.53,1.905-1.114l0.817,0.569c-0.479,1.404-1.819,2.992-3.55,2.365 c-0.439-0.159-2.179-0.582-4.588,0.144C23.479,32.592,22.664,29.893,22.628,29.854z"/></svg>