<svg xmlns="http://www.w3.org/2000/svg"  viewBox="0 0 48 48" width="1600px" height="1600px" baseProfile="basic"><path fill="#7cb342" d="M35.733,14C33.193,9.017,29.891,6,24,6s-9.429,2.917-11.733,8C10.723,17.404,8,26.148,8,31	c0,8.284,7.163,15,16,15s16-6.716,16-15C40,25.298,38.184,18.809,35.733,14z"/><path fill="#7cb342" d="M12.133,16.479L8.851,13.91C7.718,13.037,7.777,9,6,9c-2.771,0-3.92,7-2.005,7.287	c1.263,0.096,2.186-0.415,3.287,0.303l3.75,2.713L12.133,16.479z"/><ellipse cx="23.899" cy="26.968" fill="#9ccc65" rx="5.314" ry="3.543"/><path fill="#689f38" d="M21.99,18.255c0.216,2.34-3.215,5.255-5.973,5.255S12,21.605,12,19.255S14.236,15,16.995,15	S21.782,16,21.99,18.255z"/><path fill="#689f38" d="M25.01,18.255c-0.216,2.34,3.215,5.255,5.973,5.255S35,21.605,35,19.255S32.764,15,30.005,15	S25.218,16,25.01,18.255z"/><path fill="#9ccc65" d="M16.766,28.261C17.033,29.092,18,30,19.83,29.17c1.963-2.777,0.287-3.734-1.245-3.734	C17.053,25.436,16.335,27.207,16.766,28.261z"/><path fill="#9ccc65" d="M31.235,28.261c-0.268,0.832-1.234,1.739-3.064,0.91c-1.963-2.777-0.287-3.734,1.245-3.734	C30.948,25.436,31.666,27.207,31.235,28.261z"/><path fill="#eee" d="M14,20.87c1-1.87,4-2.87,6,0C17.6,22.827,15.2,21.849,14,20.87z"/><circle cx="17" cy="21" r="1" fill="#795548"/><path fill="#eee" d="M27,20.87c1-1.87,4-2.87,6,0C30.6,22.827,28.2,21.849,27,20.87z"/><circle cx="30" cy="21" r="1" fill="#795548"/><path fill="none" stroke="#558b2f" stroke-linecap="round" stroke-miterlimit="10" stroke-width="2" d="M14,32c0,0,3,4,10,4	s10-4,10-4"/><path fill="none" stroke="#795548" stroke-linecap="round" stroke-miterlimit="10" stroke-width="2" d="M26,16	c0,0,3.437-2.556,8-0.798"/><path fill="none" stroke="#795548" stroke-linecap="round" stroke-miterlimit="10" stroke-width="2" d="M21.766,16	c0,0-3.336-2.556-7.766-0.798"/><ellipse cx="5.287" cy="12.723" fill="#689f38" rx="2.075" ry=".83" transform="rotate(-72.95 5.287 12.724)"/><path fill="#7cb342" d="M36.154,16.784l3.282-2.569c1.133-0.872,1.074-4.91,2.851-4.91c2.771,0,3.92,7,2.005,7.287	c-1.263,0.096-2.186-0.415-3.287,0.303l-3.75,2.713L36.154,16.784z"/><ellipse cx="43" cy="13.028" fill="#689f38" rx=".83" ry="2.075" transform="rotate(-17.05 43.006 13.03)"/><path fill="#9ccc65" d="M29.726,41.452C28.962,40.031,26.688,39,24,39s-4.962,1.031-5.726,2.452	C22.936,40.17,25.362,40.457,29.726,41.452z"/></svg>