<svg xmlns="http://www.w3.org/2000/svg"  viewBox="0 0 48 48" width="1600px" height="1600px"><path fill="#e0e0e0" d="M41,31.25V33H7v-1.75c0,0,0-4.25,1.62-8.1c0.96-2.29,3.32-5.72,5.83-11.47 c0.63-1.41,1.26-2.97,1.88-4.68h15.34c0.62,1.71,1.25,3.27,1.88,4.68c2.51,5.75,4.87,9.18,5.83,11.47C41,27,41,31.25,41,31.25z"/><path fill="#bdbdbd" d="M16,9c0,3.5,1.25,9,8,9s8-5.5,8-9H16z"/><path fill="#eee" d="M24 2A8 7 0 1 0 24 16A8 7 0 1 0 24 2Z"/><path fill="#42a5f5" d="M10,33c0,0-0.352-0.516-1-1c-0.689-0.515-1.711-1-3-1c-2,0-4,1.13-4,4c0,3.5,3,8,9.5,8 c2.5,0,3.5-1,3.5-1L10,33z"/><path fill="#1e88e5" d="M10,36c0,0-1.145-2-3-2c-1.399,0-2,1-2,2c0,1.625,1.375,3.125,3,4c0,0-1-0.75-1-2.25 C7,36.375,8.125,36,9.125,36C10,36,10,36,10,36z"/><path fill="#42a5f5" d="M38,33c0,0,0.352-0.516,1-1c0.689-0.515,1.711-1,3-1c2,0,4,1.13,4,4c0,3.5-3,8-9.5,8 C34,43,33,42,33,42L38,33z"/><path fill="#1e88e5" d="M38,36c0,0,1.145-2,3-2c1.399,0,2,1,2,2c0,1.625-1.375,3.125-3,4c0,0,1-0.75,1-2.25 c0-1.375-1.125-1.75-2.125-1.75C38,36,38,36,38,36z"/><path fill="#64b5f6" d="M34.781,41.973c0,0-4.219,4.027-10.781,4.027S9,42,9,32c0,0,2.813-12,15-12 c8.821,0,15,6.084,15,12.519S34.781,41.973,34.781,41.973z"/><path fill="#455a64" d="M24,41c-5.739,0-8-3-8-3s2,5,8,5s8-5,8-5S29.739,41,24,41z"/><path fill="#fff" d="M28.5,26c-2.485,0-4.5,2.015-4.5,4.5c0-2.485-2.015-4.5-4.5-4.5S15,28.015,15,30.5s2.015,4.5,4.5,4.5 c1.328,0,7.672,0,9,0c2.485,0,4.5-2.015,4.5-4.5S30.985,26,28.5,26z"/><path fill="#263238" d="M20 29A2 2 0 1 0 20 33A2 2 0 1 0 20 29Z"/><path fill="#455a64" d="M14 26c0 0 2-4 8-5 0 0-.889-1-2.921-1C14 20 14 26 14 26zM34 26c0 0-2-4-8-5 0 0 .889-1 2.921-1C34 20 34 26 34 26z"/><path fill="#263238" d="M28 29A2 2 0 1 0 28 33A2 2 0 1 0 28 29Z"/><path fill="#90caf9" d="M24 31A5 4 0 1 0 24 39A5 4 0 1 0 24 31Z"/><path fill="#fff" d="M21 28A1 1 0 1 0 21 30 1 1 0 1 0 21 28zM29.125 28A1 1 0 1 0 29.125 30 1 1 0 1 0 29.125 28z"/></svg>