<svg xmlns="http://www.w3.org/2000/svg"  viewBox="0 0 48 48" width="1600px" height="1600px" baseProfile="basic"><path fill="#212121" d="M17,37L0,32c0,0,5-3,9-3c-2-2-9-4-9-4s4-4,11-4c0,0-4-3-8-4c2-1,4-2,7-2c0,0-3-6-10-8c6-3,17-2,22,4	c0,0,1-7-3-11c8,1,14,7,13,14c4,0,6,4,6,4l10-3l-5,6l5,2l-9,7l8,2l-9,4l3,3c0,0-5,0-9,2S17,37,17,37z"/><path fill="#ffdbd0" d="M25,22.124V22l-0.808,0.062L23.383,22l0.005,0.124L12,23l3.824,18.165	c0.113,0.537,0.423,1.011,0.87,1.33l5.881,4.201C22.851,46.894,23.183,47,23.522,47h0.861h0.478H25v-0.022	c0.289-0.025,0.57-0.112,0.808-0.282l5.881-4.201c0.446-0.319,0.757-0.794,0.87-1.33L36.383,23L25,22.124z"/><polygon fill="#f5e9e8" points="18,32 17,33 18,37 22,37 22,35"/><circle cx="21" cy="35" r="1" fill="#212121"/><polygon fill="#37474f" points="23,35 22,35 17,32 15,33 16,30 18,31"/><polygon fill="#f5e9e8" points="30,32 31,33 30,37 26,37 26,35"/><circle cx="27" cy="35" r="1" fill="#212121"/><polygon fill="#37474f" points="25,35 26,35 31,32 33,33 32,30 30,31"/><path fill="#ffdbd0" d="M15,33l-2.221-3.495C12.085,28.859,10.96,29.194,11,31v3.892c0,0.687,0.361,1.325,0.95,1.678L16,39	L15,33z"/><polygon fill="#ffad93" points="13,34 13,36 14,37 15.021,36.926 14.16,33.096" opacity=".5"/><polygon fill="#ffad93" points="13,32 12,31 12,33" opacity=".5"/><path fill="#ffdbd0" d="M34,33l2.221-3.495C36.915,28.859,38.04,29.194,38,31v3.892c0,0.687-0.361,1.325-0.95,1.678L33,39	L34,33z"/><polygon fill="#ffad93" points="36,34 36,36 35,37 33.979,36.926 34.84,33.096" opacity=".5"/><polygon fill="#ffad93" points="36,32 37,31 37,33" opacity=".5"/><path fill="#212121" d="M38,28l-4,5c0,0,0-2-1-6c0,0-5,4-8,6c2-4,1-8,1-8s-5,3-6,7c-2-3-1-7-1-7s-3,4-3,9c-3-1-8-12-1-16	s17-3,21,1C38,21,38,28,38,28z"/><path fill="#ffbca7" d="M22.053,39h4c0,0-1,2-2,2S22.053,39,22.053,39z"/><path fill="#ffbca7" d="M26,37h6c0,0-1.5,2-3,2S26,37,26,37z"/><path fill="#ffbca7" d="M16.053,37H22c0,0-1.487,2-2.973,2S16.053,37,16.053,37z"/><rect width="4" height="2" x="22" y="42" fill="#ffbca7"/><path fill="#37474f" d="M23.255,14.681l-3.702,1.213c0,0-5.723-9.681-19.553-8.894C9.723,3.383,19.489,8.426,23.255,14.681z"/><path fill="#37474f" d="M29.176,23.043c0,0-8.106,4.319-9.176,8.957c-1.787-6.181,7.404-11.207,7.404-11.207L29.176,23.043z"/><path fill="#37474f" d="M34.824,25.676c0,0-8.351,6.846-9.824,7.324c5.612-4.452,8.388-9.527,8.388-9.527L34.824,25.676z"/><path fill="#37474f" d="M15.005,21.271l-1.723,3.399c0,0-4.064-1.973-13.282,0.33C3.42,21.702,9.979,20.074,15.005,21.271z"/><path fill="#37474f" d="M28.41,14.33c0,0,1.431-10.995-9.41-14.33c7.59,0.303,14.197,7.112,13,14	C31.09,14.138,28.41,14.33,28.41,14.33z"/></svg>