<svg xmlns="http://www.w3.org/2000/svg"  viewBox="0 0 48 48" width="1600px" height="1600px"><rect width="32" height="26.486" x="8" y="3" fill="#ffd54f"/><rect width="32" height="7.843" x="8" y="29" fill="#e0e0e0"/><polygon fill="#bf360c" points="40,36 8,36 8,44 14.4,44 22.4,44 25.6,44 33.6,44 40,44"/><polygon fill="#f44336" points="21,29 27,29 24,32"/><polygon fill="#f44336" points="24,31 21,35 24,41 27,35"/><path fill="#3e2723" d="M32,22.806C32,21.256,30.806,20,29.333,20H18.667C17.194,20,16,21.256,16,22.806	c0,0.234,0.035,0.458,0.087,0.675c0.31,1.714,2.516,3.533,5.247,3.533c1.333,0,1.374,0,2.667,0c1.087,0,1.794,0,2.667,0	c2.667,0,4.919-1.721,5.247-3.533C31.965,23.264,32,23.04,32,22.806z"/><polygon fill="#fff" points="18,29 21,32 24,29"/><polygon fill="#fff" points="24,29 27,32 30,29"/><circle cx="18.5" cy="12.5" r="5.5" fill="#fff"/><circle cx="29.5" cy="12.5" r="5.5" fill="#fff"/><circle cx="18.5" cy="12.5" r="2.5" fill="#0288d1"/><path fill="#ff1744" d="M25.5,24c-0.828,0-1.5,0.675-1.5,1.507C24,24.675,23.328,24,22.5,24S21,24.675,21,25.507v1.507h1.5h3	H27v-1.507C27,24.675,26.328,24,25.5,24z"/><rect width="6" height="2" x="31" y="39" fill="#1a1a1a"/><rect width="6" height="2" x="11" y="39" fill="#1a1a1a"/><path fill="#ffab40" d="M10.98,8.5C10.98,6.416,9.732,4.66,8,4v9C9.732,12.34,10.98,10.584,10.98,8.5z"/><path fill="#ffab40" d="M37.793,24.507c0,1.385,0.988,2.507,2.207,2.507V22C38.781,22,37.793,23.122,37.793,24.507z"/><path fill="#ffab40" d="M24,12L24,12c-1.105,0-2,0.895-2,2v4h4v-4C26,12.895,25.105,12,24,12z"/><circle cx="18.5" cy="12.5" r=".5" fill="#1a1a1a"/><circle cx="29.5" cy="12.5" r="2.5" fill="#0288d1"/><circle cx="29.5" cy="12.5" r=".5" fill="#1a1a1a"/><circle cx="36.5" cy="6.5" r="1.5" fill="#ffab40"/><circle cx="36" cy="20" r="2" fill="#fff59d"/><circle cx="12" cy="20" r="2" fill="#fff59d"/><rect width="2" height="2" x="21" y="20" fill="#fff"/><rect width="2" height="2" x="25" y="20" fill="#fff"/></svg>