<svg xmlns="http://www.w3.org/2000/svg"  viewBox="0 0 48 48" width="1600px" height="1600px" baseProfile="basic"><path fill="#3a8ad3" d="M23.97,37c3.002-0.007,8.026-0.125,11.466-4.052c2.269-2.59,2.42-9.412-1.911-13.554	c-1.855-1.773-3.44-3.603-9.555-3.765c-4.331-0.114-7.7,2.028-9.555,3.801c-4.331,4.141-4.037,10.849-1.911,13.554	C15.562,36.875,20.971,37.007,23.97,37z"/><path fill="#3a8ad3" d="M35.865,31.75c0,0-0.25-10.75,2.625-12.5L40.25,26l1.625,1.625	C41.875,27.625,40.615,30.875,35.865,31.75z"/><path fill="#fe9acc" d="M41.74,25.75c0,0-0.625,0.125-0.375,0.75c0.111,0.278,0.296,0.654,0.468,0.987	c-2.344,2.028-4.718,2.763-4.718,2.763s2.125-6.25,1.375-11S37.86,6.955,40.615,6.125c1.245-0.375,6,1.875,5.75,11.625	c-0.09,3.513-1.321,6.106-2.853,8H41.74z"/><path fill="#3a8ad3" d="M12.37,31.75c0,0,0.25-10.75-2.625-12.5L8,24.75L6.375,27.5C6.375,27.5,7.62,30.875,12.37,31.75z"/><path fill="#82cdec" d="M19.875,27.875c0-1.488,0.08-2.975,0-4.463c-0.082-1.51-0.5-3.412-2.122-3.729	c-1.017-0.199-1.898-0.038-2.753,0.567c-1.778,1.259-2.404,3.795-2.523,5.817c-0.375,6.375,3.898,6.433,3.898,6.433	S19.875,32.762,19.875,27.875z"/><path fill="#1853b2" d="M26.659,25.084c0,0-1.247-0.496-2.659-0.459c-1.412-0.015-2.659,0.5-2.659,0.5	s0.206-0.258,0.654-0.55c0.441-0.292,1.16-0.593,1.996-0.597c0.836-0.011,1.559,0.282,2.005,0.566	C26.449,24.83,26.659,25.084,26.659,25.084z"/><ellipse cx="24" cy="29.438" fill="#212121" rx="3.625" ry="3.567"/><ellipse cx="16.382" cy="27.75" fill="#212121" rx="2.813" ry="3.75"/><circle cx="16.819" cy="26" r="1" fill="#fff"/><path fill="#fe9acc" d="M6.495,25.75c0,0,0.625,0.125,0.375,0.75c-0.111,0.278-0.296,0.654-0.468,0.987	c2.344,2.028,4.718,2.763,4.718,2.763s-2.125-6.25-1.375-11S10.375,6.955,7.62,6.125C6.375,5.75,1.62,8,1.87,17.75	c0.09,3.513,1.321,6.106,2.853,8H6.495z"/><path fill="#212121" d="M33.25,33.118c0,0,0.125,0.257-0.625,0.757c-0.5,0.375-4.563,1.743-8.563,1.618	c-5.375,0-7.683-1.377-8.036-1.535c-0.341-0.155-0.588-0.365-0.756-0.554c-0.336-0.386-0.396-0.662-0.396-0.662	s0.242,0.23,0.625,0.507c0.19,0.136,0.562,0.303,0.875,0.375C16.675,33.695,21.4,34.5,24,34.5c2.638,0.02,7.822-0.645,8.25-0.875	C33,33.375,33.25,33.118,33.25,33.118z"/><path fill="#1853b2" d="M18.625,19.014c-0.017,0.047-0.724-0.59-1.5-0.639c-0.831-0.053-1.75,0.264-1.75,0.264	s0.132-0.175,0.41-0.391c0.271-0.213,0.726-0.478,1.33-0.455c0.616,0.026,1.066,0.43,1.245,0.72	C18.555,18.81,18.625,19.014,18.625,19.014z"/><path fill="#1853b2" d="M29.625,19.084c0.011,0.005,0.003-0.234,0.192-0.582c0.172-0.34,0.72-0.764,1.373-0.708	c0.639,0.047,1.092,0.394,1.343,0.667c0.256,0.281,0.342,0.498,0.342,0.498s-0.901-0.675-1.625-0.584	c-0.433-0.032-0.902,0.173-1.184,0.354c-0.131,0.095-0.249,0.179-0.319,0.25C29.67,19.045,29.625,19.084,29.625,19.084z"/><rect width="1" height="2.25" x="23.5" y="32.625" fill="#212121"/><path fill="#82cdec" d="M28.204,27.873c0-1.488-0.08-2.975,0-4.463c0.082-1.51,0.5-3.412,2.122-3.729	c1.017-0.199,1.898-0.038,2.753,0.567c1.778,1.259,2.404,3.795,2.523,5.817c0.375,6.375-3.898,6.433-3.898,6.433	S28.204,32.76,28.204,27.873z"/><ellipse cx="31.697" cy="27.747" fill="#212121" rx="2.813" ry="3.75"/><circle cx="31.259" cy="25.997" r="1" fill="#fff"/></svg>