<svg xmlns="http://www.w3.org/2000/svg"  viewBox="0 0 48 48" width="1600px" height="1600px"><path fill="#aa2c2c" d="M38.261,30.379c0,0,1.739,4.621,6.654,3.78C42,31,41.651,27.052,41.651,27.052L38.261,30.379z"/><path fill="#3b2b28" d="M43.15,34.23c-3.46-0.35-4.8-3.62-4.88-3.84l2.38-2.34C40.65,28.05,40.94,31.28,43.15,34.23z"/><path fill="#aa2c2c" d="M37,8c0,0,4-1,6,4c-3-1-8-1-8-1L37,8z"/><path fill="#aa2c2c" d="M36,28c0,0,4,4,10,0c0,0-4-1-5-6l-4.861-0.279L36,28z"/><path fill="#3b2b28" d="M44.53,28.84C39.36,31.36,36,28,36,28l0.12-5.22L40,23C40.79,26.95,43.45,28.4,44.53,28.84z"/><path fill="#ffbca7" d="M34,38h2.5c0.944,0,1.833-0.445,2.4-1.2l0.9-1.2c0.779-1.039,1.2-2.302,1.2-3.6v-0.292	c0-0.466-0.108-0.925-0.317-1.342l0,0C40.265,29.529,39.409,29,38.472,29H34V38z"/><path fill="#aa2c2c" d="M7,18c-1,0-1,0-1-2c0-3,3-4,3-4h12l-3,5C18,17,8,18,7,18z"/><path fill="#ffbca7" d="M14,38h-2.5c-0.944,0-1.833-0.445-2.4-1.2l-0.9-1.2c-0.361-0.482-0.645-1.011-0.846-1.571	C7.165,33.505,8,32.132,8,32v-1.292c0-0.466-0.683-0.342-0.683-0.342l0,0C7.735,29.529,8.591,29,9.528,29H14V38z"/><path fill="#aa2c2c" d="M20,4c0,0,7-1,9-1s5,2,5,2l1,13H21L20,4z"/><path fill="#aa2c2c" d="M11,15c0,0-4-1-4-5c0-2,1.47-3.735,4-5c2-1,4-2,4-5c0,0,3,3,3,7c0,4.123,0,8,0,8H11z"/><path fill="#3b2b28" d="M14.297,16C13.696,15.788,9,13,9,10c0-1.535,1.813-2.671,2.895-3.211	C12.991,6.24,16,4.339,17.596,3.426C17.916,4.213,16,6.038,16,7v7L14.297,16z"/><path fill="#aa2c2c" d="M11,34c0,0-1,1-6,0c2,0,3-4,3-5h3V34z"/><path fill="#3b2b28" d="M11,29.33V34c0,0-0.71,0.71-3.93,0.33c1.95-0.1,2.93-4.01,2.93-5C10,29.33,11,29.33,11,29.33z"/><path fill="#aa2c2c" d="M17,14c0,0-4-2-4-5c0-2,1.764-3.764,4-6c3-3,6-1,11-2c0,0-5,5-4,9s0,4,0,4H17z"/><path fill="#3b2b28" d="M22.577,12l-4.06,1C17.514,12.394,16,10.155,16,9c0-1.172,1.582-2.754,3.414-4.586	C20.398,3.43,21.31,3.25,22.75,3.25c0.398,0,0.674,0.043,0.898,0.049L22,6h4c2.468-0.253,3.679-1,4-1	c0.789,0,2.492,0.616,3.899,1.229L22.577,12z"/><path fill="#aa2c2c" d="M11,30c0,0-3,3-9-1c0,0,5-1,6-6l2-1L11,30z"/><path fill="#3b2b28" d="M11,30c0,0-2.38,2.38-7.13,0.08c0.44-0.11,5.02-1.24,5.97-6l0.4-0.2L11,30z"/><path fill="#aa2c2c" d="M12,21l-1,3c-7,5-11,0-11,0s4,0,5-5c0.62-3.101,5-3,5-3h5L12,21z"/><path fill="#3b2b28" d="M13.8,18L12,21l-1,3c-3.5,2.5-6.25,2.5-8.12,1.87C4.12,25.56,6.132,24.472,7,21c1-4,6-6,6-6L13.8,18z"/><path fill="#aa2c2c" d="M36,20l1,3c7,5,11,0,11,0s-4,2-6-8c-0.62-3.101-4-5-4-5s-3.009-1.335-6-1s-6.676,3.384-6.676,3.384	L36,20z"/><path fill="#3b2b28" d="M44.44,25.06C42.61,25.47,40.1,25.21,37,23l-1-3l-10.25-7.31c1.26-0.77,2.83-1.54,4.25-1.69	c2.99-0.33,6,1,6,1s3.38,1.9,4,5C41.19,22.96,43.1,24.66,44.44,25.06z"/><path fill="#ffdbd0" d="M38.284,20.522c-0.88-2.725-2.458-4.755-4.61-6.148l-1.721,0.036l-1.152-1.414	C28.822,12.316,26.537,11.993,24,12c-7.201-0.021-12.378,2.621-14.284,8.522c-0.979,3.03-0.879,6.907-0.149,9.52l2.041,7.13	c0.904,3.133,2.804,5.887,5.413,7.843L18.6,46.2c1.558,1.168,3.453,1.8,5.4,1.8s3.842-0.632,5.4-1.8l1.58-1.185	c2.609-1.957,4.509-4.71,5.413-7.843l2.041-7.13C39.164,27.429,39.263,23.551,38.284,20.522z"/><path fill="#ffbca7" d="M23.74,36.084c0.358,0.39,0.334,2.477,0,2.841C23.406,39.289,22,38.256,22,37.504	S23.382,35.694,23.74,36.084z"/><polygon fill="#f5e9e8" points="12,31 12,33 14,35 18,35 20,33 20,30 18.5,28.5 14.5,28.5 12.769,29.564"/><path fill="#aa2c2c" d="M17.986,29c-0.416-0.31-0.927-0.5-1.486-0.5c-0.454,0-0.879,0.121-1.246,0.332	C15.05,28.95,15.163,28.831,15,29l-1,1v1c0,1.381,1.119,2.5,2.5,2.5S19,32.381,19,31v-2H17.986z"/><path fill="#3b2b28" d="M19,28.5l-3.413-0.087L14,30v1h1.092c0.207,0.581,0.756,1,1.408,1s1.202-0.419,1.408-1H19V28.5z"/><polygon fill="#212121" points="18.707,28 14,28 12.276,29.053 12.277,29.054 12.277,29.053 12,31 12.722,29.945 12.724,29.947 14.618,29 18.293,29 20.146,30.854 20.854,30.146"/><polygon fill="#f5e9e8" points="36,31 36,33 34,35 30,35 28,33 28,30 29.5,28.5 33.5,28.5 35.231,29.564"/><path fill="#aa2c2c" d="M30.014,29c0.416-0.31,0.927-0.5,1.486-0.5c0.454,0,0.879,0.121,1.246,0.332	C32.95,28.95,32.837,28.831,33,29l1,1v1c0,1.381-1.119,2.5-2.5,2.5S29,32.381,29,31v-2H30.014z"/><path fill="#3b2b28" d="M29,28.5l3.413-0.087L34,30v1h-1.092c-0.207,0.581-0.756,1-1.408,1s-1.202-0.419-1.408-1H29V28.5z"/><polygon fill="#212121" points="29.293,28 34,28 35.724,29.053 35.723,29.054 35.723,29.053 36,31 35.278,29.945 35.276,29.947 33.382,29 29.707,29 27.854,30.854 27.146,30.146"/><polygon fill="#212121" points="11,22 16,26 21,28 19,26"/><polygon fill="#212121" points="37,22 32,26 27,28 29,26"/><circle cx="17" cy="31" r="1" fill="#f5e9e8"/><circle cx="32" cy="31" r="1" fill="#f5e9e8"/><rect width="6" height="2" x="21" y="41" fill="#ffbca7"/><path fill="#aa2c2c" d="M42.99,5.01C42.92,5.16,42.18,6.58,41,8c-0.27,0.32-0.56,0.64-0.86,0.94	c-0.17,0.17-0.35,0.34-0.53,0.49c-0.26,0.22-0.53,0.43-0.81,0.62c-0.12,0.08-0.25,0.16-0.37,0.23C37.68,10.72,36.86,11,36,11	c-0.45,0-1.16,0.15-1.98,0.35C32.91,11.07,31.45,10.84,30,11c-0.68,0.07-1.27,0.22-1.87,0.46l-0.01,0.01	c-0.45,0.17-0.9,0.39-1.39,0.66c-1.19-0.12-2.6,0.09-3.73,0.33h-0.01C21.85,12.71,21,13,21,13s1-5,3-7c1-1,8-2,10-2s4,2,6,2	C41.88,6,42.87,5.12,42.99,5.01z"/><path fill="#3b2b28" d="M41,8c-0.27,0.32-0.56,0.64-0.86,0.94c-0.17,0.17-0.35,0.33-0.53,0.49	c-0.26,0.22-0.53,0.43-0.81,0.62c-0.12,0.08-0.25,0.16-0.37,0.23C38.17,10.09,38,10,38,10s-3.01-1.33-6-1	c-2.05,0.23-3.29,1.61-3.87,2.46l-0.01,0.01l-0.005,0.455L26.73,12.13c-1.19-0.12-2.6,0.09-3.73,0.33c0.22-0.57,0.48-1.22,0.76-1.92	c0.43-1.21,0.97-2.39,1.57-3.04C26.48,6.91,32.02,6,34,6C36.25,6,39,8,41,8z"/><path fill="#aa2c2c" d="M39,20l-5,2c0,0,2-3-2-1c-3.22,1.61,0,2,0,2l-2,1c0,0-1-1-3,0c1-2,1-3-1-2l2-3c0,0,0.59,1.83,2-1	c1-2-1-2-1-2l1.8-3c1.04,0.35,2,0.81,2.87,1.38C33,15,32,17,34,17c-1,1-1,1.89,3.22,1.14C37.24,18.18,39,20,39,20z"/><path fill="#3b2b28" d="M35.22,15.562c2.917,3.062,3.202,8.938,3.202,8.938l0.083,5.15c0,1.061-0.079,1.93-0.829,2.68	l-1.741,1.52l1.456-0.237l2.101-0.859c0.936-0.468,1.561-1.391,1.648-2.434l-0.71-3.481c0.369-4.428-0.772-8.851-3.237-12.548L37,14	L35.22,15.562z"/><path fill="#aa2c2c" d="M40,29.33v0.01c0,1.06-0.42,2.08-1.17,2.83l-1.44,1.44L34,35l2.83-2.83C37.58,31.42,38,30.4,38,29.34	V25c0,0,0.13-6.02-2.54-9.17c0.56,0.63,1.07,1.38,1.54,2.16C39.03,21.41,40,25.35,40,29.33z"/></svg>