<svg xmlns="http://www.w3.org/2000/svg"  viewBox="0 0 48 48" width="1600px" height="1600px"><path fill="#ffcdd2" d="M10.894,4c0,0,4,4,5,11l4-1C19.894,14,16.894,7,10.894,4z"/><path fill="#ffcdd2" d="M32.894,29c0,0,10.36-1.093,9-11c-0.335-2.441-1.638-8.568,3-10c0,0-13.298,1-14.149,12L32.894,29z"/><path fill="#757575" d="M40.894,10l6-3c0,0-11,0-17,6c0,0-6-3.674-6-6c0,3,2.63,4.361,3,5c-0.257-0.311-1.437-1.205-7-2	c0,0-2.936-4.861-9-6c0,0,6,5,6,9c0,0-3,1-5,4s-1,8-1,8s-4,0-8,8c0,0,1.493,0.167,3.457,0.43c-1.451,0.782-1.457,1.666-1.457,1.666	s2.305-1.157,5-1.096c0.982,0.022,2,0,3,1c-1.984,1.55-4,4-5,7h27c0,0,0-3-3-5c1,0,2.6-0.201,3-1c0,0-2.393-0.337-3.412-1.541	c4.53-0.364,8.425-0.27,9.412,0.541c0,0-2-3-8-8c-0.692-0.577-2-3,2-3c-0.462-0.222-3-2,1-2c0,0-1-1-2-1c0,0,1-1,1-2	c0,0-1.586,2-3,2c-1,0-1-2,2-6C35.591,12.737,35.894,12,40.894,10z M20.894,11c0,0,0,0,4,1h-3C21.894,12,20.54,11,20.894,11z"/><path fill="#cfd8dc" d="M11.894,28c0,0-0.191-9,2.405-9c0,0,0.383,0,0.489,1c0,0,1.593-5.176,2.106-3c0.172,0.73,0,3,0,3	s1-2,2,0l-1,8H11.894z"/><path fill="#fff59d" d="M16.286,27.565c0,0-0.682-7.833,3.919-9.349C23.894,17,21.894,21,20.894,23	c-0.572,1.143-2,4.705-2,4.705L16.286,27.565z"/><path fill="#fff59d" d="M10.247,27.347c0,0-0.354-7.347,2.299-9.528c0.868-0.714,1.691-1.352,0.669,4.445	c-0.238,1.35-0.669,5.441-0.669,5.441L10.247,27.347z"/><path fill="#8bc34a" d="M10.247,27.347c0,0-0.133-5.347,0.867-5.347s0.928,5.952,0.928,5.952L10.247,27.347z"/><path fill="#8bc34a" d="M16.286,27.565c0,0-0.275-4.766,1.192-5.656C19.058,20.951,18.154,28,18.154,28L16.286,27.565z"/><path fill="#212121" d="M10.232,27.251c0,0-0.015-1.247,0.047-2.397c0.061-1.15,0.769-0.875,0.852,0.146	c0.066,0.813,0.147,2.952,0.147,2.952L10.232,27.251z"/><path fill="#212121" d="M16.242,27.604c0,0-0.175-2.277,0.364-3.577c0.104-0.252,0.727-1.27,0.738,0.71	c0.013,2.218-0.227,3.219-0.227,3.219L16.242,27.604z"/><path fill="#fff" d="M20.204,30.227c0,0,3.69-6.227-7.31-2.227c-0.732-0.585-0.72-1-2-1c-2.209,0-3,0.619-3,2c0,2,3,3,5,4	c1.118,0.559,2,3,2,4.4c0,1.326,1.343,2.4,3,2.4c1.046,0,1.832-0.567,2.501-1.078C27.894,33,27.894,30,27.894,30	S22.34,31.83,20.204,30.227z"/><path fill="#212121" d="M12.755,27h2.265c0.637,0,1.135,0.591,0.98,1.209c-0.139,0.554-0.584,1.191-1.751,1.661	C14.02,29.962,13.767,30,13.521,30h0c-0.526,0-1.031-0.201-1.411-0.565C11.206,28.565,9.966,27,12.755,27z"/><ellipse cx="13.394" cy="27.5" fill="#fff" rx="1.5" ry=".5"/><path d="M20.467,14.998c0.647-0.622,1.516-1.033,2.537-1.024c0.257,0.018,0.52,0.022,0.778,0.129l0.391,0.135	c0.121,0.068,0.242,0.143,0.358,0.225c0.254,0.145,0.423,0.366,0.592,0.587c0.185,0.219,0.263,0.467,0.348,0.712	c0.288,0.992,0.218,1.904,0.094,2.764c-0.121,0.865-0.399,1.677-0.672,2.474c-0.017-0.851-0.008-1.683-0.107-2.49	c-0.011-0.408-0.147-0.785-0.215-1.164c-0.047-0.186-0.14-0.348-0.205-0.517l-0.106-0.247l-0.15-0.2	c-0.377-0.522-0.648-0.884-1.296-1.122c-0.635-0.228-1.458-0.255-2.345-0.258L20.467,14.998z"/><path d="M11.894,17c0,0,3-5,3-2c0,0.5-0.218,2.036-0.218,2.036S13.802,14.041,11.894,17z"/><path fill="#757575" d="M19.894,10c0,0-6,1-9-1c0,0,2,3,10,2"/><path fill="#212121" d="M20.894,30c0,3-5,2-5,2s-1.553,0.689-3,0c0,0,0.964,0.9,2.495,1.535	c0.716,0.297,1.079,1.057,0.908,1.814c-0.015,0.066-0.026,0.13-0.031,0.19C16.149,36.776,16.409,38,17.894,38	c3,0,4.695-7.115,4.695-7.115C20.591,30.721,20.894,30,20.894,30z"/><path fill="#ff5252" d="M16.243,36.17c0,0,0.651-2.17,2.651-1.915c0,0,1-1.255,2.72-0.379c0,0-1.456,4.124-3.72,4.124	C17.894,38,16.243,38.17,16.243,36.17z"/><path fill="#757575" d="M21.894,24c0,0-8,12,8,7L21.894,24z"/></svg>