<svg xmlns="http://www.w3.org/2000/svg"  viewBox="0 0 48 48" width="1600px" height="1600px"><path fill="#d50000" d="M12.168,37.129c-0.046-0.022-4.583-2.271-4.583-7.902c0-4.234,1.947-6.442,3.475-7.639l-0.176,0.1l0.054-0.703c0.321-4.162-1.157-9.003-2.685-10.745l-1.1-1.253l1.53,0.662c1.659,0.718,2.687,2.419,3.2,3.51c0.243-5.242,3.019-8.585,8.048-9.657l1.769-0.377l-1.473,1.049c-1.713,1.221-2.871,2.427-3.332,3.459c0.023-0.018,0.045-0.036,0.068-0.054c1.031-0.817,3.176-2.518,7.134-2.518c5.283,0,7.311,4.064,7.664,4.879l0.423,0.975l-0.941-0.494c-1.541-0.81-2.808-1.08-3.698-1.145c1.75,1.165,4.959,3.833,4.959,7.736v2.266l-0.73-2.145c-0.468-1.374-1.506-2.38-2.347-3.008c0.56,1.029,1.266,2.501,1.559,3.832c0.198,0.899-0.005,1.819-0.014,1.858l-0.252,1.112l-0.458-1.045c-0.022-0.05-2.271-5.068-7.201-5.989c-0.422-0.079-0.802-0.119-1.129-0.119c-0.136,0-0.256,0.007-0.36,0.019c1.849,0.28,2.841,0.751,2.889,0.773l0.496,0.239l-0.405,0.374c-0.398,0.369-1.388,1.513-1.185,2.373c0.046,0.105,0.428,0.551,0.764,0.944c1.261,1.475,3.608,4.22,4.062,7.002c0.228,1.397,0.229,2.805,0.23,3.832c0.001,0.607,0.002,1.133,0.049,1.438c0.047,0.304,0.189,1.229-6.585,2.57l-9.569,3.862L12.168,37.129z"/><path fill="#212121" d="M20.01,3.868c-1.369,0.975-3.316,2.611-3.661,4.225c-0.03,0.139,0,0.234,0.131,0.234c0.572,0,2.51-2.89,7.618-2.89c4.414,0,6.613,3.02,7.319,4.653c-1.931-1.014-3.456-1.204-4.328-1.204c-0.524,0-0.813,0.069-0.813,0.069s5.852,2.976,5.852,8.059c-0.911-2.677-3.788-4.001-3.788-4.001s1.78,2.762,2.278,5.026c0.182,0.828-0.014,1.694-0.014,1.694s-2.282-5.238-7.475-6.208c-0.477-0.089-0.873-0.125-1.199-0.125c-1.364,0-1.498,0.634-1.273,0.657c2.372,0.237,3.639,0.848,3.639,0.848s-1.594,1.468-1.295,2.735c0.137,0.581,4.22,4.235,4.821,7.921c0.359,2.204,0.143,4.39,0.278,5.265c0.135,0.876-6.287,2.146-6.287,2.146l-9.483,3.82c0,0-4.37-2.103-4.37-7.565c0-6.235,4.416-7.925,4.989-8.497c0.262-0.262,0.272-0.413,0.055-0.413c-0.258,0-0.835,0.211-1.692,0.697c0.313-4.058-1.093-9.101-2.777-11.021c2.008,0.869,3.119,3.416,3.389,4.257c0.342-0.057,0.291-0.321,0.32-0.649C12.301,10.91,13.031,5.356,20.01,3.868 M23.391,2.38l-3.537,0.754c-4.798,1.023-7.619,4.037-8.235,8.76c-0.616-0.981-1.529-2.046-2.786-2.59L5.772,7.98l2.199,2.507c1.475,1.682,2.898,6.516,2.593,10.469l-0.046,0.599c-1.506,1.291-3.307,3.597-3.307,7.672c0,5.866,4.599,8.146,4.795,8.24l0.298,0.144l0.307-0.124l9.417-3.794c7.057-1.403,6.904-2.391,6.813-2.982c-0.042-0.276-0.043-0.788-0.044-1.38c-0.001-1.04-0.003-2.465-0.235-3.892c-0.471-2.887-2.863-5.684-4.148-7.187c-0.279-0.326-0.592-0.692-0.694-0.846c-0.086-0.632,0.699-1.595,1.085-1.95l0.445-0.41c3.168,1.651,4.651,4.947,4.668,4.987l0.915,2.082l0.503-2.217c0.024-0.105,0.227-1.058,0.015-2.021c-0.142-0.646-0.379-1.324-0.649-1.97c0.292,0.397,0.545,0.847,0.715,1.348l1.46,4.289v-4.53c0-3.217-2.07-5.62-3.832-7.083c0.597,0.17,1.275,0.431,2.022,0.823l1.882,0.988l-0.845-1.95c-0.369-0.852-2.49-5.105-8.008-5.105c-2.476,0-4.264,0.644-5.526,1.339c0.512-0.504,1.143-1.026,1.874-1.547L23.391,2.38L23.391,2.38z"/><path fill="#ffc107" d="M28.562,26.629l0.176-0.055c0.019-0.006,0.192-0.059,0.419-0.059c0.282,0,0.532,0.083,0.723,0.238c0.479,0.393,0.296,1.205,0.273,1.296l-0.039,0.157l-1.553,0.288L28.562,26.629z"/><path fill="#212121" d="M29.157,26.766c0.176,0,0.389,0.038,0.565,0.182c0.371,0.303,0.188,1.043,0.188,1.043l-1.098,0.204l0-1.382C28.812,26.813,28.962,26.766,29.157,26.766 M29.157,26.266c-0.259,0-0.457,0.058-0.494,0.069l-0.351,0.11l0,0.368l0,1.382l0,0.601l0.591-0.11l1.098-0.204l0.317-0.059l0.077-0.313c0.027-0.107,0.242-1.061-0.356-1.55C29.803,26.368,29.498,26.266,29.157,26.266L29.157,26.266z"/><path fill="#fff" d="M27.506,29.555c-1.27,0-2.928-1.632-4.035-3.969c-1.33-2.808-1.348-5.393-0.041-6.012c0.182-0.086,0.381-0.129,0.592-0.129c1.268,0,2.927,1.632,4.035,3.969c0.602,1.27,0.957,2.569,1,3.66c0.049,1.201-0.292,2.036-0.959,2.352C27.917,29.511,27.717,29.555,27.506,29.555z"/><path fill="#212121" d="M24.022,19.819c1.093,0,2.643,1.533,3.696,3.754c1.2,2.533,1.298,5.001,0.219,5.513c-0.133,0.063-0.278,0.093-0.432,0.093c-1.093,0-2.643-1.533-3.696-3.754c-1.2-2.533-1.298-5.001-0.219-5.513C23.724,19.85,23.869,19.819,24.022,19.819 M24.023,19.069L24.023,19.069c-0.268,0-0.521,0.056-0.753,0.166c-1.728,0.819-1.377,3.895-0.137,6.512c0.987,2.082,2.722,4.183,4.373,4.183c0.268,0,0.521-0.056,0.753-0.166c1.728-0.819,1.377-3.895,0.137-6.512C27.409,21.17,25.674,19.069,24.023,19.069L24.023,19.069z"/><path fill="#212121" d="M26.096 24.117A1.226 2.564 0 1 0 26.096 29.245A1.226 2.564 0 1 0 26.096 24.117Z" transform="rotate(-22.765 26.098 26.684)"/><path fill="#fff" d="M25.74 25.139A0.493 0.759 0 1 0 25.74 26.657A0.493 0.759 0 1 0 25.74 25.139Z" transform="rotate(-16.356 25.738 25.896)"/><path fill="#ffc107" d="M26.66,44.229c-6.096-1.612-8.149-4.294-9.136-5.583c-0.123-0.161-0.271-0.354-0.396-0.496c0.062,0.136,0.146,0.288,0.234,0.421l0.575,0.868l-0.996-0.303c-0.164-0.049-4.023-1.231-5.496-2.503l-0.076-0.065l-0.033-0.095c-0.507-1.446-0.202-3.272,0.777-4.653c0.774-1.092,2.301-2.394,5.177-2.394c0.591,0,1.22,0.058,1.87,0.171c0.388-0.103,0.8-0.273,1.235-0.453c0.812-0.337,1.732-0.719,2.722-0.719c0.584,0.05,1.149,0.074,1.71,0.074c8.219,0,14.795-5.198,14.86-5.25l1.195-0.959l-0.618,1.403c-0.107,0.244-2.688,6.013-7.886,10.078c-1.155,0.904-3.132,1.227-3.902,1.321c-0.307,0.933-1.16,3.926-1.345,8.789l-0.019,0.468L26.66,44.229z"/><path fill="#212121" d="M39.921,23.542c0,0-2.591,5.88-7.774,9.934c-1.016,0.795-2.856,1.164-3.949,1.269c-0.325,0.91-1.247,3.989-1.441,9.122c-8.315-2.2-8.845-6.289-9.865-6.289c-0.023,0-0.045,0.002-0.069,0.006c-0.507,0.089,0.227,1.194,0.227,1.194s-3.93-1.194-5.36-2.428c-0.815-2.325,0.591-6.547,5.6-6.547c0.579,0,1.206,0.056,1.883,0.179c1.186-0.286,2.493-1.18,3.944-1.18c0.576,0.05,1.148,0.074,1.71,0.074C33.271,28.875,39.921,23.542,39.921,23.542 M41.84,21.047l-2.388,1.91c-0.065,0.052-6.556,5.169-14.627,5.169c-0.551,0-1.104-0.024-1.644-0.071l-0.033-0.003h-0.033c-1.065,0-2.022,0.397-2.867,0.747c-0.393,0.163-0.766,0.318-1.109,0.415c-0.642-0.107-1.264-0.162-1.851-0.162c-2.369,0-4.316,0.906-5.483,2.552c-1.047,1.476-1.371,3.437-0.825,4.994l0.066,0.189l0.151,0.131c1.532,1.323,5.465,2.528,5.632,2.578l1.193,0.362c1.265,1.431,3.61,3.43,8.541,4.735l0.906,0.24l0.036-0.936c0.17-4.486,0.91-7.35,1.255-8.463c0.918-0.131,2.727-0.489,3.848-1.365c5.271-4.123,7.89-9.976,7.999-10.223L41.84,21.047L41.84,21.047z"/><path fill="#fff" d="M23.377,32.507c-1.675,0-3.849-1.559-5.408-3.879c-0.966-1.437-1.589-2.986-1.755-4.362c-0.177-1.465,0.184-2.581,1.016-3.139c0.358-0.241,0.781-0.363,1.259-0.363c1.675,0,3.849,1.559,5.408,3.879c2.077,3.088,2.401,6.383,0.74,7.501C24.278,32.385,23.855,32.507,23.377,32.507z"/><path fill="#212121" d="M18.489,21.139c1.513,0,3.565,1.433,5.097,3.713c1.93,2.871,2.306,5.996,0.841,6.981c-0.301,0.203-0.658,0.299-1.05,0.299c-1.513,0-3.565-1.433-5.097-3.713c-1.93-2.871-2.306-5.996-0.841-6.981C17.741,21.235,18.097,21.139,18.489,21.139 M18.489,20.389L18.489,20.389c-0.553,0-1.047,0.144-1.468,0.426c-0.954,0.642-1.373,1.883-1.179,3.496c0.173,1.434,0.818,3.042,1.816,4.526c1.652,2.457,3.897,4.045,5.72,4.045c0.553,0,1.047-0.143,1.468-0.426c0.954-0.642,1.373-1.883,1.179-3.496c-0.173-1.434-0.818-3.042-1.816-4.526C22.557,21.976,20.312,20.389,18.489,20.389L18.489,20.389z"/><path fill="#212121" d="M20.645 26.826A1.344 2.812 0 1 0 20.645 32.45A1.344 2.812 0 1 0 20.645 26.826Z" transform="rotate(-40.442 20.645 29.637)"/><g><path fill="#fff" d="M19.935 28.66A0.635 1.034 0 1 0 19.935 30.727999999999998A0.635 1.034 0 1 0 19.935 28.66Z" transform="rotate(-34.035 19.934 29.693)"/></g><g><path fill="#212121" d="M14.975,23.604c-0.388,0-1.023-1.728-1.023-2.856c0-1.128-0.035-3.032,1.551-3.032s3.209,0.635,3.209,1.305s-0.458,0.458-0.67,0.458c-0.212,0-1.058-0.458-1.763-0.458c-0.705,0-1.199,1.269-1.199,2.08S15.434,23.604,14.975,23.604z"/></g><path fill="#212121" d="M21.604,20.466c-0.212,0-0.247-0.846-0.176-1.481c0.071-0.635,0.599-1.269,1.164-1.269s1.305,0.776,1.763,1.234c0.458,0.458-0.529-0.049-1.269-0.071C21.851,18.844,22.168,20.466,21.604,20.466z"/><g><path fill="#212121" d="M25.729,42.503c0,0-3.35-1.305-4.972-3.209c-1.686-1.98-3.35-4.901-4.372-4.901s-1.939,1.164-1.939,1.164s-0.073-1.44,0.846-2.08c1.164-0.811,3.914-0.564,3.914-0.564s-1.657,0.458-1.657,0.846c0,0.388,3.491,1.164,6.17,1.164s3.279-0.106,3.279-0.106S25.694,38.131,25.729,42.503z"/></g><path fill="#d50000" d="M18.913,34.73c0.62,0.177,1.133,0.567,1.912,1.593c0.779,1.027,1.009,1.558,1.186,1.54c0.177-0.018-0.478-1.328-0.567-1.735s0.124-0.761,0.62-0.761c0.496,0,1.647,0.46,1.647,2.284c0,1.824-0.372,2.726-0.372,2.726s-1.647-0.655-3.346-2.78c-0.51-0.638-0.921-1.346-1.292-1.912C18.522,35.414,18.232,34.535,18.913,34.73z"/></svg>