<svg xmlns="http://www.w3.org/2000/svg"  viewBox="0 0 48 48" width="1600px" height="1600px"><path fill="#64b5f6" d="M41.6,2.4C41.4,2.1,41,2,40.6,2c-0.9,0-2.1,0.6-3.1,1.6c-1.5,1.5-2,3.3-1.2,4.1 C36.6,7.9,37,8,37.4,8c0.9,0,2.1-0.6,3.1-1.6C41.9,5,42.4,3.2,41.6,2.4z"/><path fill="#64b5f6" d="M14.9,16.6l-1,2.8c-0.8-0.3-7.5-2.9-8.7-7.8C5,11.1,5,10.6,5,10h0c0-3.5,0.6-6.8,1.4-7.6 c0.1-0.1,0.3-0.2,0.4-0.3c0,0,0.1,0,0.2,0C7,2,7.2,2,7.3,2c0,0,0.1,0,0.1,0s0.1,0,0.1,0C7.6,2,7.8,2,8,2.1c0,0,0.1,0,0.1,0 c0.2,0.1,0.5,0.2,0.7,0.3c0.1,0,0.1,0.1,0.2,0.1c0.2,0.1,0.4,0.2,0.5,0.3c0.1,0,0.1,0.1,0.2,0.1c0.2,0.2,0.5,0.4,0.7,0.6 c1.5,1.5,2,3.3,1.2,4.1c-0.7,0.7-3.1,0.5-3.6,1.9C8,10,8,10.5,8.1,10.9C8.8,13.8,13.3,16,14.9,16.6z M43,10c0-3.5-0.6-6.8-1.4-7.6 c-0.8-0.8-2.6-0.3-4.1,1.2s-2,3.3-1.2,4.1c0.7,0.7,3.1,0.5,3.6,1.9c0.1,0.5,0.1,0.9,0,1.4c-0.7,2.8-5.2,5-6.8,5.7l1,2.8 c0.8-0.3,7.5-2.9,8.7-7.8C43,11.1,43,10.6,43,10L43,10z M24,10.9c-6.6,0-12,7.4-12,16.5C12,36.5,18.4,46,24,46s12-9.5,12-18.6 C36,18.3,30.6,10.9,24,10.9z"/><path fill="#bf360c" d="M29.5,31c-2.4,0-3.5-2-3.5-2l7-1C33,28,31.9,31,29.5,31z M18.5,31c2.4,0,3.5-2,3.5-2l-7-1 C15,28,16.1,31,18.5,31z"/><path fill="#212121" d="M17.5,28.4l2.2,0.3c0.2,0.2,0.2,0.5,0.2,0.8c0,0.7-0.5,1.3-1.2,1.5c-0.1,0-0.2,0-0.3,0c0,0,0,0,0,0 c-0.8,0-1.5-0.7-1.5-1.5C17,29,17.2,28.6,17.5,28.4z M28,29.5c0,0.7,0.5,1.3,1.2,1.5c0.1,0,0.2,0,0.3,0c0,0,0,0,0,0 c0.8,0,1.5-0.7,1.5-1.5c0-0.5-0.2-0.9-0.5-1.1l-2.2,0.3C28.1,28.9,28,29.2,28,29.5z"/><path fill="#bbdefb" d="M24,7c18.8,0,19.9,27,9,31.4c4.6-10.8-1.3-22.3-1.3-22.3S24.9,20.4,25,24c-3.2-0.2-9-8-9-8 s-5.8,11.4-1.3,22.3C3.8,33.8,5.2,7,24,7z"/><path fill="#2196f3" d="M27.4,40.8c0,0-1.3-0.8-3.4-0.8c-2.1,0-3.4,0.8-3.4,0.8l-1.1-1.7c0.1,0,1.8-1.2,4.6-1.2 c2.8,0,4.5,1.1,4.6,1.2L27.4,40.8z"/><path fill="#1976d2" d="M9.7,4.3c1.3,1.3,1.4,2.4,1.2,2.7c0,0-0.2,0.1-0.3,0.1c-0.5,0-1.5-0.4-2.4-1.3 C7,4.5,6.9,3.3,7.1,3.1C7.1,3,7.2,3,7.4,3C7.9,3,8.9,3.4,9.7,4.3z M40.9,3.1c0,0-0.2-0.1-0.3-0.1c-0.5,0-1.5,0.4-2.4,1.3 c-1.3,1.3-1.4,2.4-1.2,2.7c0,0,0.2,0.1,0.3,0.1c0.5,0,1.5-0.4,2.4-1.3C41,4.5,41.1,3.3,40.9,3.1z"/></svg>