<svg xmlns="http://www.w3.org/2000/svg"  viewBox="0 0 48 48" width="1600px" height="1600px"><path fill="#ffc107" d="M32.368,2.995L21.5,21.333L32.46,32l12.263-20.006c0.434-0.727,0.282-1.645-0.365-2.208l-9.099-7.258C34.365,1.75,32.947,1.979,32.368,2.995z"/><path fill="#dd9f05" d="M44.723,11.994L33.629,30.147l-1.49-1.45l3.875-6.322c-0.187,0.024-0.371,0.009-0.525-0.095c-0.408-0.273-0.458-0.919-0.113-1.442c0.345-0.523,0.955-0.726,1.363-0.453c0.131,0.088,0.211,0.222,0.267,0.371l2.656-4.333c-0.057-0.02-0.119-0.025-0.171-0.06c-0.408-0.273-0.458-0.919-0.113-1.442c0.345-0.523,0.955-0.726,1.363-0.453c0.03,0.02,0.045,0.055,0.071,0.08l2.072-3.381l-8.851-7.06l-2.488,4.198c0.344-0.298,0.785-0.386,1.105-0.171c0.408,0.273,0.458,0.919,0.113,1.442c-0.345,0.523-0.955,0.726-1.363,0.453c-0.289-0.193-0.388-0.575-0.305-0.965l-2.966,5.004c0.295-0.155,0.617-0.184,0.867-0.016c0.408,0.273,0.458,0.919,0.113,1.442c-0.345,0.523-0.955,0.726-1.363,0.453c-0.214-0.143-0.323-0.391-0.335-0.667l-3.314,5.592l-1.43-1.392l9.7-16.485c0.345-0.605,0.987-0.931,1.64-0.931c0.443,0,0.89,0.15,1.251,0.465l9.099,7.258C45.005,10.349,45.156,11.267,44.723,11.994z M27.286,18.443c-0.345,0.523-0.294,1.169,0.113,1.442c0.408,0.273,1.018,0.071,1.363-0.453c0.345-0.523,0.294-1.169-0.113-1.442C28.241,17.717,27.631,17.92,27.286,18.443z M29.569,20.755c-0.345,0.523-0.294,1.169,0.113,1.442c0.408,0.273,1.018,0.071,1.363-0.453c0.345-0.523,0.294-1.169-0.113-1.442C30.525,20.03,29.914,20.232,29.569,20.755z M31.918,22.755c-0.345,0.523-0.294,1.169,0.113,1.442c0.408,0.273,1.018,0.071,1.363-0.453c0.345-0.523,0.294-1.169-0.113-1.442C32.873,22.03,32.263,22.232,31.918,22.755z M31.78,16.428c-0.408-0.273-1.018-0.071-1.363,0.453c-0.345,0.523-0.294,1.169,0.113,1.442c0.408,0.273,1.018,0.071,1.363-0.453C32.239,17.346,32.188,16.701,31.78,16.428z M32.831,18.943c-0.345,0.523-0.294,1.169,0.113,1.442c0.408,0.273,1.018,0.071,1.363-0.453c0.345-0.523,0.294-1.169-0.113-1.442C33.787,18.217,33.176,18.42,32.831,18.943z M32.285,13.495c0.345-0.523,0.294-1.169-0.113-1.442c-0.408-0.273-1.018-0.071-1.363,0.453c-0.345,0.523-0.294,1.169,0.113,1.442C31.33,14.22,31.94,14.018,32.285,13.495z M33.223,14.63c-0.345,0.523-0.294,1.169,0.113,1.442c0.408,0.273,1.018,0.071,1.363-0.453c0.345-0.523,0.294-1.169-0.113-1.442C34.178,13.905,33.568,14.107,33.223,14.63z M35.572,16.63c-0.345,0.523-0.294,1.169,0.113,1.442c0.408,0.273,1.018,0.071,1.363-0.453c0.345-0.523,0.294-1.169-0.113-1.442C36.527,15.905,35.917,16.107,35.572,16.63z M35.808,7.745c0.345-0.523,0.294-1.169-0.113-1.442c-0.408-0.273-1.018-0.071-1.363,0.453s-0.294,1.169,0.113,1.442C34.853,8.47,35.463,8.268,35.808,7.745z M38.418,9.932c0.345-0.523,0.294-1.169-0.113-1.442c-0.408-0.273-1.018-0.071-1.363,0.453s-0.294,1.169,0.113,1.442C37.462,10.658,38.073,10.455,38.418,9.932z M40.766,11.932c0.345-0.523,0.294-1.169-0.113-1.442c-0.408-0.273-1.018-0.071-1.363,0.453c-0.345,0.523-0.294,1.169,0.113,1.442C39.811,12.658,40.421,12.455,40.766,11.932z M34.184,12.197c0.408,0.273,1.018,0.071,1.363-0.453c0.345-0.523,0.294-1.169-0.113-1.442c-0.408-0.273-1.018-0.071-1.363,0.453C33.726,11.278,33.777,11.924,34.184,12.197z M38.157,13.995c0.345-0.523,0.294-1.169-0.113-1.442c-0.408-0.273-1.018-0.071-1.363,0.453c-0.345,0.523-0.294,1.169,0.113,1.442C37.202,14.72,37.812,14.518,38.157,13.995z"/><path fill="#90a4ae" d="M34,29L3,32v2h0.013c0.002,0.603,0.208,1.21,0.661,1.679l9.265,9.621c0.789,0.82,2.032,0.933,2.946,0.268l17.134-12.454c0.694-0.504,1.013-1.317,0.964-2.114H34V29z"/><path fill="#455a64" d="M3.674,33.679l9.265,9.621c0.789,0.82,2.032,0.933,2.946,0.268l17.134-12.454c1.205-0.876,1.32-2.686,0.235-3.718l-9.211-8.768c-0.773-0.736-1.929-0.836-2.809-0.242L4.047,29.987C2.821,30.815,2.64,32.605,3.674,33.679z"/><path fill="#263238" d="M8 31L16 39 32.822 26.984 24.734 19.286z"/><path fill="#cfd8dc" d="M11.1 31.271L16.216 36.388 19.436 34.088 14.18 29.116z"/><path fill="#ffeb3b" d="M18.054,27.066c0.267,0.395,0.082,1.015-0.413,1.385c-0.496,0.371-1.114,0.351-1.381-0.044c-0.267-0.395-0.082-1.015,0.413-1.385C17.168,26.652,17.786,26.672,18.054,27.066z"/><path fill="#ff1744" d="M20.058,29.073c0.264,0.396,0.075,1.015-0.423,1.383c-0.498,0.367-1.116,0.343-1.381-0.053s-0.075-1.015,0.423-1.383C19.176,28.652,19.794,28.676,20.058,29.073z"/><path fill="#00e5ff" d="M22.044,31.054c0.273,0.391,0.096,1.014-0.394,1.391c-0.49,0.378-1.109,0.367-1.381-0.024c-0.273-0.391-0.096-1.014,0.394-1.391S21.771,30.663,22.044,31.054z"/><path fill="#cfd8dc" d="M26.516,29.093c-1.66,1.338-4.317,1.171-5.645-0.335c-1.328-1.505-1.162-3.68,0.664-4.851c1.66-1.338,4.317-1.171,5.645,0.335C28.509,25.747,28.177,27.922,26.516,29.093z"/></svg>