<svg xmlns="http://www.w3.org/2000/svg"  viewBox="0 0 48 48" width="1600px" height="1600px"><path fill="#424242" d="M44 31c0-4.6-5-9.7-5-14 0-7.7-6.7-14-15-14v28c1.4 0 2.8-.2 4.1-.5 0 .3-.1.7-.1 1 0 4.7 3.6 8.5 8 8.5s8-3.8 8-8.5c0-.1 0-.2 0-.4C44 31.1 44 31.1 44 31zM4 31c0-4.6 5-9.7 5-14C9 9.3 15.7 3 24 3v28c-1.4 0-2.8-.2-4.1-.5 0 .3.1.7.1 1 0 4.7-3.6 8.5-8 8.5s-8-3.8-8-8.5c0-.1 0-.2 0-.4C4 31.1 4 31.1 4 31z"/><path fill="#ffb74d" d="M13,16c0-4,3.8-13,11-13s11,9.2,11,13s0,10,0,10c0,8.3-6,15-11,15s-11-6.7-11-15C13,26,13,20,13,16z"/><path fill="#784719" d="M32,25c0,1.1-0.9,2-2,2s-2-0.9-2-2s0.9-2,2-2S32,23.9,32,25 M20,25c0-1.1-0.9-2-2-2s-2,0.9-2,2 s0.9,2,2,2S20,26.1,20,25"/><path fill="#fb8c00" d="M15,13c1.6-0.8,3.2-1.6,4.8-2.4c0.8-0.4,1.5-0.8,2.1-1.3c0.3-0.2,0.6-0.5,0.8-0.7 c0.1-0.1,0.2-0.2,0.2-0.3C23,8.1,23,8.1,23,8h2c0,0.1,0,0.1,0.1,0.2c0,0.1,0.1,0.2,0.2,0.3c0.2,0.3,0.5,0.5,0.8,0.7 c0.6,0.5,1.4,0.9,2.1,1.3c1.5,0.8,3.2,1.5,4.8,2.4c-0.9,0-1.8-0.1-2.7-0.3c-0.9-0.2-1.8-0.4-2.7-0.7c-0.9-0.3-1.7-0.7-2.6-1.2 c-0.4-0.3-0.8-0.6-1.2-1c-0.2-0.2-0.4-0.5-0.5-0.8C23.1,8.8,23,8.4,23,8h2c0,0.4-0.1,0.8-0.3,1.1c-0.1,0.3-0.3,0.6-0.5,0.8 c-0.4,0.4-0.8,0.7-1.2,1c-0.9,0.5-1.7,0.9-2.6,1.2c-0.9,0.3-1.8,0.5-2.7,0.7C16.8,12.9,15.9,13,15,13z"/><path fill="#fb8c00" d="M17 16l1.9-.9c.6-.3 1.3-.6 1.8-.9.3-.2.6-.3.8-.5.3-.2.5-.4.7-.6.1-.1.2-.2.3-.3.1-.1.1-.2.2-.3 0-.1.1-.2.1-.3 0-.1 0-.2 0-.2h2c0 .1 0 .2 0 .2 0 .1.1.2.1.3.1.1.1.2.2.3.1.1.2.2.3.3.1.1.2.2.3.3.1.1.2.2.4.3.3.2.6.3.8.5.6.3 1.2.6 1.9.9l2 .9c-.7.1-1.5.1-2.2 0-.7-.1-1.5-.2-2.2-.4-.4-.1-.7-.2-1.1-.4-.2-.1-.4-.2-.5-.3s-.4-.2-.5-.3c-.2-.1-.3-.3-.5-.4-.2-.2-.3-.4-.5-.6-.1-.2-.2-.5-.3-.7C23.1 12.6 23 12.3 23 12h2c0 .3-.1.6-.1.8-.1.2-.2.5-.4.7-.1.2-.3.4-.5.6-.2.1-.3.3-.5.4-.4.2-.7.4-1.1.6-.4.2-.7.3-1.1.4-.7.2-1.5.4-2.2.4C18.5 16.1 17.7 16.1 17 16zM16 10c1.4-1.2 2.8-2.4 4.2-3.5.3-.3.7-.6 1-.9C21.5 5.3 21.7 5 22 4.7l.4-.5c.1-.2.2-.3.3-.5.1-.2.1-.3.2-.4C23 3.2 22.9 3.1 23 3h2c.1.1 0 .2.1.3.1.1.1.3.2.4.1.2.2.3.3.5L26 4.7c.3.3.6.6.9.9.3.3.6.6 1 .9l1 .9c.3.3.7.6 1 .9.7.6 1.4 1.2 2.1 1.8-.9-.2-1.8-.6-2.6-.9-.8-.4-1.7-.8-2.5-1.3-.8-.5-1.6-1.1-2.3-1.8-.2-.2-.3-.4-.5-.6-.2-.2-.3-.4-.5-.7-.2-.2-.3-.5-.4-.8C23.1 3.7 23 3.3 23 3h2c0 .3-.1.7-.2 1-.1.3-.2.6-.4.8-.2.2-.3.5-.5.6-.2.2-.3.4-.5.6-.7.7-1.5 1.3-2.3 1.7C19.5 8.7 17.8 9.5 16 10z"/><path fill="#f57c00" d="M28,35c-0.2,0-0.5-0.1-0.7-0.3l0,0c0,0-1-0.7-3.3-0.7c-2.4,0-3.3,0.8-3.3,0.8 c-0.4,0.3-1,0.3-1.4-0.1c-0.4-0.4-0.3-1,0.1-1.4c0.1-0.1,1.5-1.3,4.7-1.3s4.5,1.1,4.7,1.3c0.4,0.4,0.4,1,0.1,1.4 C28.5,34.9,28.3,35,28,35z"/><path fill="#6d4c41" d="M26.5,19.6C26.5,19.6,26.5,19.6,26.5,19.6c0.1,0,0.2,0,0.3,0c0.2,0,0.5-0.1,0.9-0.2 c0.7-0.2,1.7-0.6,2.5-1.2c0.4-0.3,0.8-0.6,1.2-0.9c0.4-0.3,0.7-0.7,0.9-1c0.3-0.3,0.4-0.6,0.5-0.8C32.9,15.1,33,15,33,15 s0,0.1-0.1,0.4c0,0.2-0.1,0.6-0.2,1c-0.1,0.4-0.3,0.9-0.6,1.4c-0.2,0.5-0.6,1-0.9,1.5c-0.7,1-1.6,1.8-2.4,2.3 c-0.4,0.3-0.7,0.5-0.9,0.6c-0.1,0.1-0.2,0.1-0.3,0.2c-0.1,0-0.1,0.1-0.1,0.1L26.5,19.6z M21.5,19.6C21.5,19.6,21.5,19.6,21.5,19.6 c-0.1,0-0.2,0-0.3,0c-0.2,0-0.5-0.1-0.9-0.2c-0.7-0.2-1.7-0.6-2.5-1.2c-0.4-0.3-0.8-0.6-1.2-0.9c-0.4-0.3-0.7-0.7-0.9-1 c-0.3-0.3-0.4-0.6-0.5-0.8C15.1,15.1,15,15,15,15s0,0.1,0.1,0.4c0,0.2,0.1,0.6,0.2,1c0.1,0.4,0.3,0.9,0.6,1.4 c0.2,0.5,0.6,1,0.9,1.5c0.7,1,1.6,1.8,2.4,2.3c0.4,0.3,0.7,0.5,0.9,0.6c0.1,0.1,0.2,0.1,0.3,0.2c0.1,0,0.1,0.1,0.1,0.1L21.5,19.6z M25,30v2c0,0,4,0.3,4,5c0,0,0,2-2,2s-2-2-2-2v-1c0-0.6-0.4-1-1-1s-1,0.4-1,1v1c0,0,0,2-2,2s-2-2-2-2c0-4.7,4-5,4-5v-2 c0,0-6-0.1-6,7c0,7.1,7,7,7,7s7,0.1,7-7C31,29.9,25,30,25,30z"/></svg>