<svg xmlns="http://www.w3.org/2000/svg"  viewBox="0 0 48 48" width="1600px" height="1600px"><path fill="#7986CB" d="M37 4.5H42V6.5H37z" transform="rotate(-45.001 39.475 5.526)"/><path fill="#455A64" d="M13.7,31.2l-1.4,1.4c-0.4,0.4-1,0.4-1.4,0l-3.5-3.5c-0.4-0.4-0.4-1,0-1.4l1.4-1.4c0.4-0.4,1-0.4,1.4,0l3.5,3.5C14,30.2,14,30.9,13.7,31.2z M24.1,20.7c0,0,12,22.8,12.3,23.8c0.3,0.8,1.5,0.5,1.5,0.5s3.4-1.8,4.2-2.1c1.1-0.5,0.8-1.6,0.8-1.6L29.7,16.4L24.1,20.7z"/><path fill="#0277BD" d="M28.6,5.3L25,8.8c-0.3,0.3-4.4,5.4-4.5,5.5C15.3,20.7,7.1,31,6.3,31.9c0,0,0,0,0,0C6.2,31.9,6.1,32,6.1,32c-1.7,2.4-0.9,4.4-0.8,4.6l1.4,2.8c0.1,0.3,0.4,0.5,0.7,0.5c0.3,0.1,0.6,0,0.9-0.2c0.1-0.1,11.4-10.9,13.6-12.6c1.9-1.4,3.9-0.6,4-0.6c0.3,0.1,0.6,0.1,0.9,0l6.4-3.5c0.1,0,0.2-0.1,0.2-0.2c0.2-0.2,0.3-0.5,0.3-0.8l-0.3-2l4.4-5.6c0.3-0.4,0.3-1-0.1-1.3L30,5.3C29.6,4.9,29,4.9,28.6,5.3z"/><path fill="#FFD600" d="M12 27A1 1 0 1 0 12 29A1 1 0 1 0 12 27Z"/><path fill="#C5CAE9" d="M40.7,9.9L37.6,13c0,0,0,0,0,0L32,7.3l3-3c0.4-0.4,1-0.4,1.4,0l4.2,4.2C41.1,8.9,41.1,9.6,40.7,9.9z M35.5,20h-2.2l0.3,2h1.9c0.3,0,0.5-0.2,0.5-0.5v-0.9C36,20.2,35.8,20,35.5,20z M6.7,38.7l3.9-3.9c0.4-0.4,0.4-1,0-1.4s-1-0.4-1.4,0l-3.9,3.9c-0.4,0.4-0.4,1,0,1.4C5.5,38.9,5.7,39,6,39S6.5,38.9,6.7,38.7z M30.6,15c0,1.1,0.9,2,2,2c1.1,0,2-0.9,2-2s-0.9-2-2-2C31.5,13,30.6,13.9,30.6,15z"/><path fill="#212121" d="M40.3,41.9C40.3,41.9,40.3,41.9,40.3,41.9c-0.5,0.2-1.1,0-1.3-0.4l-9-16.8l1.8-1l9,16.9C41,41.1,40.8,41.7,40.3,41.9z M11.3,24.6l1.6,1.6c0.4,0.4,0.9,0.4,1.3,0.1L25,18c0.4-0.3,0.7-0.6,0.9-0.9l3.3-4.4c0.3-0.4,0.3-0.9-0.1-1.3l-3.1-3.1c-0.3-0.3-0.9-0.4-1.3-0.1l-4.4,3.3c-0.4,0.3-0.7,0.6-0.9,0.9l-8.3,10.8C10.9,23.6,10.9,24.2,11.3,24.6z"/></svg>