<svg xmlns="http://www.w3.org/2000/svg"  viewBox="0 0 48 48" width="1600px" height="1600px"><path fill="#FFC107" d="M24,12C12.4,12,3,18.3,3,26s9.4,14,21,14s21-6.3,21-14S35.6,12,24,12L24,12z"/><path fill="#455A64" d="M45,26c0-6-5.7-11.1-13.7-13.1c-1.8-3.5-3.8-6.7-6.2-9.7C25.1,3,24.9,3,24.8,3c-0.2,0-0.2,0-0.3,0.2c-2.3,2.8-4.4,5.9-6.1,9.4C9.5,14.2,3,19.6,3,26c0,4.6,3.4,8.7,8.7,11.3c-0.3,2.3-0.5,4.8-0.7,7.4c0,0.2,0.2,0.3,0.3,0.3h0.2c0.2,0,0.2,0,0.3-0.2c1.6-2.1,3.1-4,4.7-5.8c2.3,0.6,4.8,0.9,7.5,0.9c4.3,0,8.3-0.9,11.6-2.4c0.9,1.3,1.7,2.7,2.6,4.2c0,0.2,0.3,0.2,0.5,0.2c0.2,0,0.3-0.2,0.3-0.3c-0.2-1.9-0.4-3.7-0.6-5.5C42.5,33.6,45,30,45,26z M5,26c0-5,5.2-9.4,12.3-11.2c-1.1,2.5-2,5.1-2.8,8c-1,3.7-1.9,7.7-2.5,12.3C7.7,33,5,29.6,5,26z M24,38c-2.1,0-4.1-0.2-5.9-0.6c2.7-2.9,5.5-5.4,9-7.5c1-0.5,1.5-0.8,2-0.8c0.2,0,0.5,0.2,1,0.8c1.4,2,2.9,3.9,4.5,6.1C31.4,37.2,27.8,38,24,38z M38,34c-0.7-4.3-1.7-8.5-3.1-12.6c-0.7-2.1-1.5-4.1-2.4-6.1C38.6,17.3,43,21.4,43,26C43,29,41.1,31.8,38,34z"/><path fill="#C5CAE9" d="M24.7,6c-3.7,4.8-6.4,10.5-8.3,17.4c-1.4,5.2-2.4,10.5-3,16.2c3.9-4.8,7.6-8.4,12.6-11.5l0.1-0.1l0.1,0c0.2-0.1,0.4-0.2,0.5-0.3c0.8-0.4,1.4-0.7,2.3-0.7c1.4,0,2.3,1.2,2.6,1.6c0.5,0.6,0.9,1.2,1.4,1.9c1.1,1.4,2.1,2.9,3.2,4.4c-0.7-4.7-1.8-8.9-3.2-12.9C31,16.1,28.2,10.7,24.7,6z"/></svg>