<svg xmlns="http://www.w3.org/2000/svg"  viewBox="0 0 48 48" width="1600px" height="1600px"><path fill="#37474F" d="M23.8,3c-0.2,0-0.2,0-0.3,0.2c-4.4,5.2-7.7,11.6-10,19.7c-1.6,6-2.9,13.2-3.4,21.8c0,0.2,0.2,0.3,0.3,0.3h0.2c0.2,0,0.2,0,0.3-0.2c4.7-6.2,9-11.1,15.2-15c1-0.5,1.5-0.8,2-0.8c0.2,0,0.5,0.2,1,0.8c2.6,3.6,5.4,7.1,8.2,12c0,0.2,0.3,0.2,0.5,0.2c0.2,0,0.3-0.2,0.3-0.3c-0.7-7.2-1.8-13.8-4.1-20.3c-2.3-6.7-5.6-12.9-9.8-18.2C24.1,3,23.9,3,23.8,3L23.8,3z"/><path fill="#FFC107" d="M32,22.1c-2-6-4.8-11.4-8.3-16.1c-3.7,4.8-6.4,10.5-8.4,17.4c-1.4,5.2-2.4,10.5-3,16.2c3.9-4.8,7.7-8.4,12.6-11.5l0.1-0.1l0.1,0c0.2-0.1,0.4-0.2,0.6-0.3c0.8-0.4,1.4-0.7,2.3-0.7c1.4,0,2.3,1.2,2.6,1.6c0.5,0.6,0.9,1.2,1.4,1.9c1.1,1.4,2.1,2.9,3.2,4.5C34.4,30.2,33.4,26,32,22.1z M25.5,22.1L26,25l-2.5-2.6L21,25l0.7-2.9L18,20.5l4.1-0.7L23.5,9l1.7,10.8l3.8,0.7L25.5,22.1z"/></svg>