<svg xmlns="http://www.w3.org/2000/svg"  viewBox="0 0 48 48" width="1600px" height="1600px"><path fill="#263238" d="M38,43h-8C20.4,43,4,23.1,4,16c0-2.1,1.9-2.9,2.9-3L36,13c1,0,3,0.8,3,4c0,10.4,2.3,16.5,2.9,17.5 c0.6,1,1.9,4.2,0.6,6.4C41.6,42.3,40.2,43,38,43z M7.1,15C6.8,15,6,15.2,6,16c0,5.9,15.9,25,24,25h8c1.4,0,2.3-0.4,2.7-1.1 c0.8-1.3-0.2-3.8-0.6-4.4C39.3,34.1,37,27.7,37,17c0-1.8-0.9-2-1-2L7.1,15z"/><path fill="#546e7a" d="M32.5,43h-23C8.7,43,8,42.3,8,41.5L7,20l1-7.5C8,11.7,8.7,11,9.5,11h23c0.8,0,1.5,0.7,1.5,1.5l1,7.5 l-1,21.5C34,42.3,33.3,43,32.5,43z"/><path fill="#c5cae9" d="M10,27V6c0-0.6,0.4-1,1-1h20c0.5,0,1,0.4,1,1v21H10z"/><path fill="#7986cb" d="M12,5h18v12H12V5z"/><path fill="#18ffff" d="M28,14c0,0.6-0.4,1-1,1s-1-0.4-1-1s0.4-1,1-1S28,13.4,28,14z"/><path fill="#263238" d="M33.9,34H8l2-7h22L33.9,34z"/><path fill="#212121" d="M24,14V8c0-0.6-0.5-1-1-1h-8c-0.6,0-1,0.4-1,1v6c0,0.6,0.4,1,1,1h8C23.5,15,24,14.6,24,14z"/><path fill="#3949ab" d="M22,25H12v-6h10V25z M24,22c0,1.7,1.3,3,3,3s3-1.3,3-3s-1.3-3-3-3S24,20.3,24,22z M28,7h-2v1h2V7z M28,9h-2v1h2V9z M28,11h-2v1h2V11z"/><path fill="#9fa8da" d="M12,43h-2v-9h2V43z M30,43h2v-9h-2V43z M15,20h-2v4h2V20z M18,20h-2v4h2V20z M21,20h-2v4h2V20z"/></svg>