<svg xmlns="http://www.w3.org/2000/svg"  viewBox="0 0 48 48" width="1600px" height="1600px"><path fill="#ffa726" d="M6.5,27c-0.8-2.5-0.9-8.3,0.6-6.7c2.7,2.8,3.8,7.7,7.4,6.7c2.1-0.6-1.4,7-3.6,7 C8.7,34,7.5,29.5,6.5,27 M41.4,27c0.8-2.5,1-8.3-0.5-6.7C38.2,23.1,37,28,33.4,27c-2.1-0.6,1.4,7,3.6,7S40.5,29.5,41.4,27"/><path fill="#ffb74d" d="M10,19c0-12.7,28-10.3,28-2v13c0,8.3-8.2,15-14,15s-14-6.7-14-15V19z"/><path fill="#784719" d="M32,28c0,1.1-0.9,2-2,2s-2-0.9-2-2s0.9-2,2-2S32,26.9,32,28 M20,28c0-1.1-0.9-2-2-2s-2,0.9-2,2 s0.9,2,2,2S20,29.1,20,28"/><path fill="#4e342e" d="M26.8,22.5c0,0,0.1,0,0.4,0c0.2,0,0.6,0,1-0.1c0.8-0.1,2-0.3,3.1-0.7c0.5-0.2,1.1-0.4,1.5-0.7 c0.2-0.1,0.5-0.3,0.7-0.4c0.2-0.2,0.4-0.3,0.6-0.5c0.3-0.3,0.6-0.6,0.7-0.8C34.9,19.1,35,19,35,19s-0.1,0.1-0.1,0.4 c-0.1,0.3-0.2,0.6-0.5,1c-0.1,0.2-0.3,0.4-0.4,0.7c-0.1,0.2-0.4,0.4-0.5,0.7c-0.4,0.5-0.9,0.9-1.4,1.3c-1.1,0.8-2.2,1.4-3.2,1.8 c-0.5,0.2-0.9,0.3-1.1,0.4c-0.3,0.1-0.5,0.1-0.5,0.1L26.8,22.5z M21.2,22.5c0,0-0.1,0-0.4,0c-0.2,0-0.6,0-1-0.1 c-0.8-0.1-2-0.3-3.1-0.7c-0.5-0.2-1.1-0.4-1.5-0.7c-0.2-0.1-0.5-0.3-0.7-0.4c-0.2-0.2-0.4-0.3-0.6-0.5c-0.3-0.3-0.6-0.6-0.7-0.8 C13.1,19.1,13,19,13,19s0.1,0.1,0.1,0.4c0.1,0.3,0.2,0.6,0.5,1c0.1,0.2,0.3,0.4,0.4,0.7c0.1,0.2,0.4,0.4,0.5,0.7 c0.4,0.5,0.9,0.9,1.4,1.3c1.1,0.8,2.2,1.4,3.2,1.8c0.5,0.2,0.9,0.3,1.1,0.4c0.3,0.1,0.5,0.1,0.5,0.1L21.2,22.5z"/><path fill="#ff9100" d="M20 37H28V39H20z"/><path fill="#424242" d="M40,21.4C40,7,33.8,3,24,3S8,7,8,21.3c0.8,3.3,3,6.7,3,6.7V17.9c0-1.5,1.4-2.6,2.8-2.2 C16.4,16.3,20.5,17,24,17s7.6-0.7,10.2-1.3c1.4-0.3,2.8,0.8,2.8,2.2V28C37,28,39.2,24.6,40,21.4z"/></svg>