<svg xmlns="http://www.w3.org/2000/svg"  viewBox="0 0 48 48" width="1600px" height="1600px"><path fill="#F44336" d="M30.5,9.8C27.2,5,21.5,5,19.2,5H6l4,2v25l-4,2h13.2c3.2,0,13.6,0,13.8-14c0-0.2,0-0.3,0-0.5C33,15,32,11.9,30.5,9.8z M20,32h-6V7h6c1.9,0,4.5-0.1,6.2,2.9c1,1.8,1.8,4.8,1.8,9.6c0,0,0,0.1,0,0.1C28,32.2,23.1,32,20,32z"/><path fill="#F44336" d="M28.2,14H15l4,2v25l-4,2h13.2C31.4,43,42,43,42,28.5S31.6,14,28.2,14z M29,41h-6V16h6c3.1,0,8-0.2,8,12.5S32.1,41,29,41z"/><path fill="#B71C1C" d="M27.6,14c0.1,0.6,0.2,1.3,0.3,2h-2c-0.1-0.7-0.2-1.4-0.3-2H27.6z M32.8,16.6c0.8,0.4,1.5,0.9,2.1,1.9c0-1.2-0.2-2.4-0.4-3.5c-0.7-0.3-1.5-0.5-2.2-0.6C32.6,15,32.7,15.8,32.8,16.6z M19,32h-2v2h2V32z M25,30.7c-0.6,0.6-1.3,0.9-2,1.1v2c0.6-0.1,1.3-0.3,2-0.5V30.7z"/></svg>