<svg xmlns="http://www.w3.org/2000/svg"  viewBox="0 0 48 48" width="1600px" height="1600px"><path fill="#b71c1c" d="M44.543,46.95c-0.035-0.042-0.034-0.086,0.003-0.213c0.045-0.154,0.053-0.16,0.184-0.16c0.079,0,0.127,0.014,0.115,0.034c-0.012,0.019,0.023,0.045,0.078,0.059c0.11,0.027,0.151,0.071,0.152,0.164c0,0.041-0.027,0.062-0.081,0.062c-0.045,0-0.113,0.023-0.151,0.052C44.753,47.016,44.599,47.017,44.543,46.95z M43.483,46.51c-0.04-0.025-0.041-0.054-0.005-0.161c0.039-0.118,0.054-0.129,0.155-0.119c0.103,0.01,0.111,0.021,0.106,0.131C43.731,46.521,43.611,46.591,43.483,46.51z M44.803,46.481c-0.062-0.008-0.132-0.037-0.155-0.065c-0.023-0.028-0.072-0.051-0.109-0.051c-0.037,0-0.067-0.014-0.067-0.031c0-0.017-0.03-0.039-0.067-0.049c-0.04-0.01-0.077-0.063-0.092-0.128c-0.013-0.061-0.038-0.111-0.055-0.111c-0.017,0-0.039-0.028-0.05-0.062c-0.011-0.034-0.056-0.078-0.1-0.098c-0.057-0.025-0.1-0.1-0.149-0.257c-0.038-0.122-0.088-0.222-0.111-0.222c-0.065,0-0.161-0.231-0.205-0.493c-0.021-0.129-0.056-0.246-0.076-0.26c-0.021-0.014-0.037-0.168-0.037-0.358c0-0.238-0.015-0.35-0.051-0.394c-0.028-0.034-0.062-0.155-0.076-0.268c-0.016-0.138-0.05-0.234-0.101-0.289c-0.076-0.082-0.087-0.113-0.125-0.35c-0.012-0.075-0.055-0.151-0.108-0.191c-0.12-0.09-0.155-0.247-0.167-0.745c-0.007-0.314,0.001-0.426,0.034-0.437c0.024-0.008,0.044-0.036,0.044-0.061s0.032-0.054,0.071-0.065c0.084-0.022,0.142-0.159,0.143-0.338c0.001-0.179,0.087-0.489,0.156-0.558c0.031-0.031,0.057-0.077,0.057-0.102c0-0.094,0.14-0.171,0.336-0.186c0.121-0.009,0.197-0.001,0.197,0.022c0,0.022,0.11,0.037,0.277,0.037c0.161,0,0.294,0.017,0.317,0.041c0.031,0.03,0.047,0.016,0.065-0.056c0.019-0.077,0.04-0.093,0.1-0.077c0.041,0.011,0.095,0.02,0.12,0.021c0.025,0,0.044,0.045,0.044,0.105c0,0.089,0.135,0.285,0.197,0.285c0.009,0,0.048,0.032,0.087,0.071c0.039,0.039,0.11,0.071,0.158,0.071c0.048,0,0.097,0.016,0.109,0.035c0.012,0.02,0.093,0.035,0.18,0.035c0.087,0,0.158-0.016,0.158-0.035s0.024-0.035,0.054-0.035c0.03,0,0.072-0.039,0.094-0.087c0.022-0.048,0.063-0.096,0.091-0.106c0.064-0.025,0.153,0.061,0.151,0.146c-0.001,0.079-0.081,0.189-0.137,0.189c-0.023,0-0.091,0.056-0.151,0.124c-0.06,0.068-0.123,0.115-0.141,0.104c-0.018-0.011-0.032,0.017-0.032,0.063c0,0.051,0.03,0.096,0.08,0.117c0.059,0.026,0.083,0.07,0.091,0.168c0.011,0.129,0.08,0.18,0.131,0.098c0.012-0.02,0.045-0.035,0.073-0.035c0.068,0,0.066,0.208-0.003,0.299c-0.083,0.109-0.062,0.41,0.029,0.41c0.021,0,0.066-0.025,0.099-0.056c0.09-0.082,0.383-0.086,0.427-0.006c0.038,0.067,0.138,0.085,0.138,0.025c0-0.021,0.016-0.028,0.035-0.016c0.02,0.012,0.035,0.005,0.035-0.016s0.033-0.038,0.074-0.038c0.079,0,0.175-0.077,0.175-0.139c0-0.021,0.032-0.038,0.071-0.038c0.054,0,0.071,0.024,0.071,0.099c0,0.054-0.022,0.13-0.05,0.168c-0.084,0.119-0.336,0.371-0.371,0.371c-0.057,0-0.12,0.098-0.078,0.123c0.02,0.013,0.037,0.006,0.037-0.015c0-0.021,0.076-0.038,0.177-0.038c0.098,0,0.177,0.012,0.177,0.027c-0.001,0.076-0.048,0.186-0.078,0.186c-0.019,0-0.081,0.033-0.138,0.073c-0.057,0.04-0.119,0.063-0.139,0.051c-0.02-0.012-0.036,0.008-0.036,0.044s-0.017,0.083-0.038,0.104c-0.027,0.027-0.027,0.078-0.002,0.169c0.03,0.11,0.025,0.152-0.036,0.259c-0.04,0.071-0.081,0.217-0.092,0.325c-0.011,0.108-0.031,0.205-0.045,0.215c-0.014,0.01-0.037,0.054-0.051,0.098c-0.021,0.067-0.008,0.087,0.079,0.117c0.057,0.02,0.125,0.075,0.151,0.123c0.026,0.048,0.062,0.087,0.081,0.087c0.043,0,0.202,0.169,0.202,0.215c0,0.018,0.025,0.034,0.056,0.034s0.05,0.02,0.042,0.044c-0.018,0.055-0.24,0.081-0.24,0.029c0-0.021-0.023-0.038-0.05-0.038s-0.09-0.048-0.14-0.106c-0.121-0.143-0.201-0.14-0.201,0.009c-0.001,0.254-0.073,0.338-0.19,0.222c-0.029-0.029-0.07-0.053-0.091-0.053c-0.021,0-0.039-0.028-0.04-0.062c-0.004-0.108-0.061,0.058-0.087,0.252c-0.012,0.094-0.031,0.164-0.041,0.154c-0.017-0.017-0.098,0.039-0.209,0.145c-0.026,0.024-0.062,0.044-0.081,0.044c-0.019,0-0.052,0.072-0.074,0.16c-0.022,0.088-0.068,0.189-0.102,0.224c-0.034,0.035-0.101,0.142-0.15,0.238c-0.049,0.095-0.132,0.218-0.185,0.272C45.079,46.505,45.046,46.511,44.803,46.481z M46.433,46.412c-0.066-0.027-0.118-0.14-0.093-0.204c0.013-0.033,0.063-0.056,0.124-0.056c0.108,0,0.124,0.041,0.08,0.204C46.522,46.438,46.51,46.443,46.433,46.412z M39.201,40.931c-0.245-0.141-0.267-0.343-0.06-0.55c0.045-0.045,0.098-0.13,0.119-0.188c0.023-0.066,0.062-0.106,0.102-0.106c0.036,0,0.075-0.016,0.087-0.035c0.04-0.065,0.455-0.041,0.612,0.035c0.131,0.063,0.149,0.088,0.17,0.227c0.023,0.155-0.037,0.411-0.097,0.411c-0.016,0-0.028,0.021-0.028,0.048s-0.03,0.082-0.066,0.124c-0.06,0.069-0.101,0.076-0.417,0.075C39.424,40.972,39.241,40.954,39.201,40.931z M43.389,39.272c-0.012-0.02-0.078-0.035-0.147-0.035c-0.096,0-0.13-0.017-0.144-0.071c-0.011-0.041-0.048-0.071-0.089-0.071c-0.04,0-0.078-0.03-0.088-0.07c-0.01-0.038-0.047-0.079-0.083-0.09c-0.043-0.014-0.077-0.08-0.103-0.2c-0.047-0.219-0.005-0.404,0.122-0.541c0.049-0.053,0.089-0.111,0.089-0.129c0-0.019,0.04-0.034,0.089-0.034c0.049,0,0.089-0.016,0.089-0.035c0-0.02,0.032-0.035,0.071-0.035c0.039,0,0.071-0.016,0.071-0.035s0.061-0.035,0.135-0.035c0.074,0,0.156-0.02,0.182-0.044c0.038-0.035,0.05-0.035,0.063,0c0.009,0.024,0.033,0.044,0.053,0.044c0.051,0,0.305,0.274,0.331,0.357c0.012,0.037,0.045,0.068,0.073,0.068s0.051,0.02,0.051,0.045c0,0.025,0.034,0.066,0.075,0.091c0.078,0.049,0.078,0.04,0.009,0.423c-0.014,0.077-0.041,0.115-0.081,0.115c-0.063,0-0.215,0.151-0.215,0.213c0,0.019-0.031,0.035-0.069,0.035s-0.079,0.016-0.091,0.035c-0.012,0.02-0.1,0.035-0.195,0.035C43.489,39.307,43.401,39.291,43.389,39.272z M45.399,38.956c-0.058-0.037-0.031-0.184,0.049-0.264c0.029-0.029,0.053-0.069,0.053-0.087c0-0.019,0.022-0.043,0.05-0.053c0.094-0.036,0.188,0.017,0.247,0.14c0.077,0.161,0.033,0.245-0.145,0.274C45.479,38.994,45.458,38.993,45.399,38.956z M45.606,37.92c-0.049-0.091-0.041-0.23,0.024-0.464c0.034-0.123,0.078-0.206,0.106-0.206c0.027,0,0.049-0.016,0.049-0.035c0-0.02,0.049-0.035,0.109-0.035c0.129,0,0.317,0.167,0.317,0.281c0,0.041,0.016,0.074,0.035,0.074s0.035,0.04,0.035,0.089c0,0.064-0.019,0.089-0.07,0.089c-0.05,0-0.081,0.038-0.11,0.136l-0.041,0.136h-0.211C45.685,37.983,45.632,37.97,45.606,37.92z M43.309,36.277c-0.063-0.025-0.109-0.082-0.139-0.174c-0.025-0.075-0.058-0.136-0.075-0.136c-0.016,0-0.03-0.056-0.03-0.124c0-0.068,0.016-0.124,0.035-0.124c0.02,0,0.035-0.064,0.035-0.142c0-0.102,0.015-0.142,0.053-0.142c0.029,0,0.053,0.016,0.053,0.035s0.048,0.035,0.106,0.035c0.11,0,0.122-0.026,0.084-0.168c-0.016-0.059-0.048-0.08-0.124-0.08c-0.091,0-0.103-0.013-0.107-0.115c-0.002-0.063-0.001-0.138,0.003-0.165c0.008-0.06,0.089-0.145,0.138-0.145c0.019,0,0.062-0.081,0.095-0.179c0.056-0.168,0.056-0.184,0-0.246c-0.074-0.081-0.19-0.078-0.235,0.007c-0.066,0.122-0.209,0.032-0.209-0.131c0-0.031-0.032-0.091-0.071-0.133c-0.052-0.055-0.071-0.125-0.071-0.256c0-0.168-0.008-0.185-0.119-0.244c-0.09-0.048-0.115-0.083-0.105-0.141c0.02-0.108-0.217-0.298-0.293-0.235c-0.04,0.033-0.063,0.033-0.105-0.001c-0.077-0.063-0.066-0.181,0.018-0.203c0.071-0.019,0.098-0.1,0.04-0.123c-0.052-0.02-0.086-0.171-0.038-0.171c0.077,0,0.175-0.151,0.175-0.269c0-0.144-0.079-0.228-0.216-0.228c-0.057,0-0.104-0.016-0.104-0.035c0-0.055,0.117-0.178,0.17-0.178c0.083,0,0.155-0.102,0.143-0.204c-0.011-0.098-0.012-0.098-0.262-0.087c-0.176,0.008-0.263-0.003-0.29-0.035c-0.031-0.037-0.012-0.047,0.091-0.047h0.13l0.01-0.219c0.009-0.194,0.002-0.221-0.062-0.242c-0.054-0.017-0.073-0.053-0.073-0.143c0-0.066-0.018-0.131-0.039-0.144c-0.022-0.013-0.062-0.08-0.091-0.148c-0.028-0.068-0.071-0.147-0.094-0.176c-0.127-0.158-0.248-0.259-0.31-0.259c-0.042,0-0.07-0.024-0.07-0.06c-0.316-0.963-0.681-1.922-1.017-2.884c-0.065-0.207-0.067-0.233-0.016-0.253c0.082-0.033,0.394,0.004,0.523,0.061c0.062,0.027,0.129,0.05,0.151,0.05c0.021,0,0.039,0.04,0.039,0.089c0,0.071,0.018,0.089,0.089,0.089c0.066,0,0.089,0.019,0.089,0.073c0,0.063,0.082,0.157,0.3,0.343c0.029,0.024,0.069,0.044,0.089,0.044s0.037,0.015,0.037,0.034s0.064,0.053,0.142,0.077c0.078,0.023,0.142,0.064,0.142,0.09c0,0.026,0.028,0.048,0.063,0.048c0.035,0,0.086,0.032,0.114,0.071c0.064,0.089,0.241,0.096,0.274,0.011c0.013-0.034,0.004-0.066-0.019-0.074c-0.023-0.008-0.034-0.027-0.025-0.042c0.01-0.016-0.058-0.047-0.151-0.071c-0.165-0.041-0.292-0.123-0.292-0.187c0-0.054-0.092-0.129-0.19-0.153c-0.05-0.013-0.101-0.051-0.112-0.086c-0.011-0.035-0.052-0.099-0.09-0.144c-0.042-0.048-0.07-0.132-0.07-0.208c0-0.092-0.029-0.158-0.105-0.239c-0.058-0.061-0.115-0.153-0.128-0.202c-0.035-0.14-0.101-0.174-0.29-0.151c-0.093,0.012-0.263,0.031-0.376,0.044c-0.126,0.014-0.214,0.042-0.226,0.071c-0.01,0.027-0.054,0.049-0.096,0.049c-0.067,0-0.092-0.045-0.179-0.328c-0.153-0.325-0.202-0.709-0.381-1.02c-0.016,0-0.029-0.031-0.029-0.069s-0.013-0.077-0.03-0.087c-0.211,1.417-0.607,2.871-0.805,4.288c-0.029,0.236-0.064,0.301-0.163,0.301c-0.061,0-0.08,0.032-0.058,0.097c0.005,0.014,0.047,0.021,0.094,0.015c0.07-0.009,0.08,0,0.057,0.054c-0.015,0.036-0.026,0.092-0.025,0.126c0.001,0.033-0.031,0.071-0.071,0.084c-0.053,0.017-0.061,0.031-0.028,0.051c0.053,0.033,0.061,0.316,0.01,0.349c-0.019,0.013-0.044,0.083-0.056,0.156c-0.016,0.102-0.009,0.133,0.031,0.133c0.028,0,0.068,0.037,0.089,0.081c0.02,0.045,0.072,0.097,0.115,0.115c0.095,0.041,0.134,0.265,0.047,0.265c-0.029,0-0.058,0.036-0.064,0.08c-0.008,0.054-0.04,0.084-0.099,0.092c-0.048,0.007-0.105,0.037-0.127,0.066c-0.029,0.039-0.064,0.046-0.126,0.025c-0.047-0.016-0.098-0.026-0.113-0.022s-0.027-0.009-0.027-0.028c0-0.02-0.024-0.035-0.053-0.035s-0.053-0.024-0.053-0.053c0-0.037-0.037-0.053-0.124-0.053c-0.099,0-0.124,0.014-0.124,0.069c0,0.038,0.017,0.079,0.037,0.092c0.064,0.039-0.092,0.413-0.209,0.502c-0.07,0.053-0.254,0.062-0.254,0.012c0-0.02-0.032-0.035-0.071-0.035c-0.039,0-0.071-0.017-0.071-0.038c0-0.086-0.105-0.13-0.356-0.151c-0.393-0.033-0.588-0.075-0.656-0.143c-0.047-0.047-0.072-0.051-0.11-0.02c-0.064,0.053-0.063,0.13,0.004,0.197c0.079,0.079,0.065,0.189-0.038,0.284c-0.131,0.121-0.105,0.232,0.062,0.271c0.105,0.025,0.135,0.051,0.153,0.133c0.012,0.056,0.012,0.119,0,0.139c-0.033,0.054-0.243,0.044-0.322-0.016c-0.102-0.077-0.193-0.068-0.193,0.019c0,0.093,0.185,0.281,0.277,0.281c0.038,0,0.097,0.041,0.13,0.092c0.046,0.071,0.082,0.088,0.152,0.075c0.137-0.026,0.326,0.08,0.327,0.184c0.001,0.143-0.113,0.209-0.327,0.189c-0.103-0.01-0.192-0.031-0.199-0.048c-0.007-0.017-0.034-0.031-0.062-0.031c-0.028,0-0.05-0.015-0.05-0.033s-0.031-0.043-0.069-0.055c-0.038-0.012-0.079-0.053-0.091-0.092c-0.012-0.038-0.036-0.061-0.054-0.05c-0.017,0.011-0.064-0.013-0.104-0.053c-0.04-0.04-0.103-0.072-0.139-0.072c-0.037,0-0.076-0.024-0.088-0.053c-0.016-0.042-0.088-0.053-0.337-0.053h-0.317l-0.017,0.115c-0.009,0.063,0.003,0.144,0.027,0.179c0.041,0.059,0.046,0.057,0.067-0.027c0.021-0.082,0.04-0.09,0.197-0.09c0.191,0,0.196,0.004,0.228,0.16c0.023,0.111-0.038,0.253-0.072,0.168c-0.01-0.024-0.034-0.044-0.053-0.044c-0.019,0-0.059-0.024-0.088-0.053c-0.082-0.082-0.155-0.065-0.155,0.035c0,0.055-0.02,0.089-0.053,0.089c-0.029,0-0.053-0.016-0.053-0.035c0-0.02-0.032-0.035-0.072-0.035c-0.067,0-0.081,0.026-0.117,0.23c-0.004,0.02,0.06,0.03,0.145,0.024c0.091-0.007,0.151,0.004,0.151,0.027c0,0.021,0.022,0.038,0.049,0.038c0.057,0,0.164,0.149,0.164,0.229c0,0.031,0.031,0.054,0.071,0.054c0.052,0,0.071,0.024,0.071,0.087c0,0.092,0.102,0.34,0.156,0.379c0.017,0.013,0.022,0.073,0.01,0.133c-0.013,0.063-0.007,0.11,0.013,0.11c0.019,0,0.035,0.056,0.035,0.124c0,0.08,0.017,0.124,0.048,0.124c0.026,0,0.085,0.032,0.13,0.071c0.045,0.039,0.095,0.071,0.112,0.071c0.017,0,0.03,0.03,0.03,0.067c0,0.037,0.032,0.075,0.071,0.085c0.041,0.011,0.071,0.048,0.071,0.09c0,0.152,0.037,0.184,0.213,0.184c0.179,0,0.235,0.051,0.195,0.178c-0.039,0.123-0.311,0.112-0.387-0.016c-0.073-0.122-0.214-0.269-0.259-0.269c-0.025,0-0.045-0.016-0.045-0.035c0-0.02-0.045-0.035-0.101-0.035c-0.073,0-0.112-0.024-0.141-0.089c-0.028-0.06-0.069-0.089-0.13-0.089c-0.049,0-0.087-0.012-0.083-0.027c0.011-0.048-0.179-0.434-0.214-0.434c-0.019,0-0.071-0.04-0.117-0.088c-0.046-0.048-0.124-0.088-0.174-0.089c-0.118-0.001-0.282-0.077-0.282-0.132c0-0.049-0.349-0.023-0.407,0.03c-0.019,0.017-0.062,0.031-0.098,0.031c-0.055,0-0.064-0.032-0.064-0.223c0-0.126-0.018-0.242-0.043-0.266c-0.023-0.023-0.136-0.043-0.252-0.043c-0.197,0-0.211-0.006-0.247-0.1c-0.021-0.055-0.08-0.119-0.132-0.142c-0.062-0.027-0.12-0.103-0.169-0.219c-0.113-0.266-0.167-0.225-0.303,0.23c-0.044,0.148-0.058,0.165-0.082,0.106c-0.046-0.114-0.166-0.201-0.246-0.179c-0.161,0.044-0.356,0.061-0.307,0.026c0.058-0.041,0.139-0.258,0.118-0.319c-0.02-0.06-0.139-0.053-0.163,0.011c-0.013,0.033-0.067,0.053-0.145,0.053c-0.113,0-0.133,0.016-0.21,0.168c-0.047,0.093-0.095,0.164-0.107,0.16c-0.055-0.023-0.092-0.004-0.092,0.045c0,0.03-0.022,0.063-0.05,0.073c-0.027,0.01-0.06,0.072-0.072,0.137c-0.023,0.122-0.114,0.178-0.201,0.123c-0.038-0.024-0.036-0.052,0.013-0.155c0.033-0.069,0.076-0.126,0.096-0.126s0.036-0.047,0.036-0.105s0.02-0.117,0.044-0.133c0.049-0.031,0.133-0.169,0.133-0.219c0-0.017-0.05-0.042-0.112-0.054c-0.128-0.026-0.221-0.137-0.223-0.268c-0.001-0.071-0.022-0.093-0.096-0.101c-0.099-0.011-0.197-0.172-0.161-0.262c0.012-0.03,0.02-0.024,0.021,0.016c0.004,0.091,0.09,0.076,0.166-0.031c0.037-0.051,0.088-0.115,0.114-0.142c0.026-0.027,0.035-0.049,0.02-0.049c-0.015,0,0.008-0.033,0.051-0.072c0.084-0.078,0.104-0.176,0.036-0.176c-0.023,0-0.031-0.011-0.018-0.023s-0.012-0.041-0.056-0.063c-0.044-0.022-0.085-0.077-0.091-0.122c-0.013-0.091,0.098-0.217,0.191-0.217c0.032,0,0.137-0.561,0.159-0.62c0.023-0.06,0.066-0.106,0.1-0.106c0.034,0,0.069-0.038,0.082-0.089c0.025-0.101-0.009-0.274-0.049-0.249c-0.015,0.009-0.044-0.044-0.066-0.117c-0.035-0.117-0.059-0.138-0.201-0.176c-0.221-0.059-0.305-0.053-0.409,0.028c-0.049,0.038-0.109,0.07-0.133,0.07c-0.024,0-0.054,0.065-0.067,0.143l-0.023,0.142h-1.061H28.75c0.862-4.862,1.692-9.394,2.551-14.276l0.106-0.709l0.428-0.01l0.428-0.01l0.042,0.092c0.046,0.101,0.113,0.088,0.113-0.021c0-0.067,0.043-0.069,1.952-0.069h1.952l-0.001,0.08c-0.001,0.089-0.076,0.328-0.132,0.328c-0.02,0-0.055,0.074-0.078,0.165c-0.023,0.091-0.065,0.198-0.093,0.238c-0.077,0.11-0.067,0.235,0.02,0.235c0.039,0,0.071-0.017,0.071-0.037c0-0.02,0.041-0.078,0.09-0.127c0.057-0.057,0.083-0.113,0.07-0.154c-0.013-0.04,0.001-0.072,0.038-0.086c0.041-0.016,0.052-0.047,0.036-0.108c-0.012-0.047-0.007-0.123,0.01-0.168c0.038-0.098,0.159-0.366,0.203-0.366c0.036,0,0.12,0.292,0.12,0.362c0,0.03,0.05,0.046,0.145,0.046c0.136,0,0.144,0.006,0.138,0.098c-0.013,0.192,0.001,0.297,0.037,0.275c0.02-0.012,0.035-0.006,0.035,0.013s-0.031,0.045-0.068,0.057C36.926,16.88,36.878,16.94,36.857,17c-0.048,0.137-0.05,0.124,0.028,0.144c0.06,0.016,0.063,0.038,0.036,0.226c-0.06,0.41-0.068,0.435-0.139,0.457c-0.063,0.02-0.065,0.027-0.015,0.077c0.03,0.03,0.05,0.089,0.044,0.131c-0.009,0.066-0.032,0.075-0.179,0.069l-0.168-0.007l0.062,0.085c0.076,0.105,0.117,0.108,0.196,0.016c0.076-0.089,0.1-0.089,0.195,0c0.057,0.053,0.125,0.071,0.272,0.071c0.191,0,0.196,0.003,0.226,0.115c0.024,0.091,0.046,0.113,0.108,0.104c0.042-0.006,0.077,0.006,0.077,0.027c0,0.021,0.048,0.038,0.106,0.038c0.071,0,0.106,0.018,0.106,0.053c0,0.038,0.039,0.053,0.138,0.053c0.157,0,0.145,0.029,0.217-0.532c0.067-0.52,0.07-0.532,0.135-0.532c0.061,0,0.122-0.11,0.164-0.293c0.018-0.081,0.041-0.098,0.132-0.098c0.104,0,0.109,0.006,0.088,0.111c-0.021,0.106-0.018,0.11,0.075,0.086c0.198-0.051,0.399-0.062,0.399-0.022c0,0.025,0.101,0.039,0.284,0.039c0.229,0,0.284-0.01,0.284-0.053c0-0.029,0.016-0.053,0.035-0.053c0.019,0,0.032-0.07,0.028-0.155c-0.004-0.103,0.013-0.174,0.051-0.213c0.063-0.063,0.276-0.081,0.276-0.023c0,0.02,0.024,0.035,0.053,0.035c0.029,0,0.053,0.021,0.053,0.048c0,0.072,0.132,0.211,0.159,0.167c0.013-0.02,0.062-0.037,0.11-0.037c0.072,0,0.087,0.017,0.087,0.102c0,0.115,0.134,0.299,0.165,0.226c0.01-0.025,0.08-0.044,0.159-0.044c0.092,0,0.167-0.025,0.218-0.073l0.078-0.073l-0.105-0.193c-0.058-0.106-0.217-0.331-0.234-0.331c-0.05,0-0.132-0.097-0.132-0.157c0-0.031,0.026-0.056,0.058-0.056c0.092,0,0.048-0.341-0.053-0.412c-0.132-0.092-0.084-0.12,0.204-0.12c0.233,0,0.285,0.01,0.307,0.062c0.015,0.034,0.024,0.082,0.02,0.106c-0.004,0.025,0.03,0.044,0.077,0.044c0.058,0,0.099,0.031,0.13,0.098c0.03,0.063,0.052,0.081,0.063,0.05c0.022-0.062-0.061-0.218-0.117-0.218c-0.036,0-0.087-0.074-0.087-0.127c0-0.041,0.471-0.01,0.514,0.033c0.027,0.027,0.173,0.058,0.339,0.072c0.16,0.013,0.32,0.04,0.355,0.059c0.035,0.019,0.104,0.034,0.153,0.034c0.049,0,0.099,0.016,0.111,0.035c0.012,0.02,0.061,0.035,0.11,0.035c0.048,0,0.097,0.024,0.108,0.053c0.011,0.029,0.043,0.053,0.07,0.053c0.027,0,0.078,0.015,0.112,0.033s0.112,0.054,0.174,0.078c0.062,0.025,0.105,0.059,0.094,0.075c-0.01,0.016,0.031,0.048,0.091,0.071c0.06,0.023,0.11,0.054,0.11,0.069c0,0.015,0.026,0.028,0.058,0.028s0.106,0.056,0.164,0.124c0.058,0.068,0.121,0.124,0.14,0.124c0.041,0,0.135,0.091,0.135,0.131c0,0.016,0.056,0.077,0.123,0.136c0.068,0.058,0.124,0.119,0.124,0.134c0.001,0.029,0.229,0.358,0.298,0.433c0.021,0.023,0.06,0.093,0.085,0.154c0.05,0.121,0.105,0.089,0.106-0.061c0-0.044,0.017-0.08,0.036-0.08c0.02,0,0.035-0.023,0.035-0.052c0-0.028,0.04-0.091,0.089-0.14c0.049-0.049,0.089-0.105,0.089-0.126c0-0.02,0.047-0.037,0.104-0.037c0.057,0,0.114-0.015,0.125-0.034c0.014-0.022,0.053-0.022,0.111,0c0.049,0.019,0.143,0.034,0.208,0.034c0.072,0,0.126,0.021,0.139,0.053c0.011,0.029,0.053,0.053,0.092,0.053c0.083,0,0.25,0.133,0.25,0.2c0,0.025,0.034,0.064,0.076,0.086c0.068,0.036,0.074,0.062,0.057,0.266c-0.011,0.14-0.04,0.247-0.076,0.283c-0.032,0.032-0.057,0.072-0.057,0.09s-0.024,0.033-0.053,0.033c-0.029,0-0.053,0.025-0.053,0.056c0,0.047-0.055,0.054-0.376,0.047c-0.273-0.006-0.381-0.022-0.394-0.056c-0.01-0.026-0.04-0.047-0.067-0.047c-0.027,0-0.049-0.016-0.049-0.035s-0.024-0.035-0.053-0.035s-0.053-0.019-0.053-0.041s-0.01-0.032-0.021-0.02c-0.012,0.012,0.012,0.164,0.053,0.338c0.041,0.174,0.075,0.359,0.075,0.41s0.016,0.093,0.035,0.093c0.022,0,0.035,0.207,0.035,0.55c0,0.302-0.014,0.55-0.031,0.55s-0.041,0.092-0.054,0.204c-0.033,0.282-0.199,0.966-0.235,0.966c-0.016,0-0.073,0.116-0.127,0.257c-0.054,0.141-0.108,0.265-0.12,0.275c-0.013,0.01-0.057,0.074-0.098,0.142c-0.08,0.133-0.06,0.209,0.069,0.258c0.108,0.04,0.13,0.381,0.024,0.381c-0.021,0-0.062,0.025-0.092,0.055c-0.041,0.041-0.114,0.052-0.289,0.044l-0.234-0.011l-0.072,0.133c-0.04,0.073-0.085,0.133-0.101,0.133c-0.038,0-0.13,0.093-0.131,0.131c0,0.016-0.057,0.066-0.126,0.11c-0.069,0.045-0.136,0.109-0.148,0.142c-0.029,0.078-0.074,0.119-0.196,0.182c-0.054,0.028-0.098,0.07-0.098,0.093c0,0.024-0.052,0.069-0.115,0.1c-0.155,0.077-0.24,0.145-0.24,0.194c0,0.022-0.025,0.04-0.057,0.04s-0.099,0.03-0.151,0.066c-0.052,0.036-0.13,0.077-0.175,0.091c-0.044,0.014-0.072,0.038-0.062,0.055c0.01,0.016,0.001,0.036-0.02,0.043c-0.027,0.009-0.028,0.038-0.001,0.101c0.02,0.048,0.063,0.179,0.094,0.292c0.031,0.112,0.072,0.204,0.09,0.204s0.033,0.02,0.033,0.044c0,0.024,0.017,0.104,0.037,0.177c0.036,0.131,0.04,0.133,0.213,0.133c0.133,0,0.176,0.013,0.176,0.053c0,0.029,0.023,0.053,0.051,0.053c0.069,0,0.103,0.122,0.075,0.268c-0.019,0.102-0.041,0.123-0.145,0.143c-0.141,0.026-0.139,0.02-0.072,0.209c0.028,0.079,0.071,0.219,0.096,0.312c0.025,0.093,0.058,0.168,0.072,0.168c0.014,0,0.037,0.056,0.049,0.124c0.017,0.09,0.042,0.124,0.09,0.124c0.037,0,0.067,0.016,0.067,0.035c0,0.02,0.032,0.035,0.071,0.035s0.071,0.016,0.071,0.035s0.032,0.035,0.071,0.035c0.046,0,0.071,0.024,0.071,0.067c0,0.121,0.095,0.112,0.164-0.017c0.036-0.067,0.085-0.121,0.108-0.121c0.024,0,0.052-0.028,0.063-0.062c0.028-0.085,0.215-0.293,0.264-0.293c0.022,0,0.04-0.017,0.04-0.037c0-0.038,0.159-0.211,0.193-0.211c0.01,0,0.065-0.048,0.121-0.106c0.056-0.059,0.12-0.106,0.142-0.106c0.022,0,0.041-0.016,0.041-0.035c0-0.02,0.022-0.035,0.049-0.035c0.027,0,0.059-0.024,0.07-0.053c0.011-0.029,0.045-0.053,0.075-0.053s0.054-0.012,0.055-0.027c0-0.028,0.169-0.115,0.221-0.115c0.016,0,0.064-0.032,0.106-0.071c0.042-0.039,0.113-0.071,0.158-0.071s0.082-0.016,0.082-0.035c0-0.02,0.055-0.035,0.122-0.035c0.067,0,0.132-0.016,0.144-0.035c0.012-0.02,0.087-0.035,0.166-0.035c0.144,0,0.144,0,0.121,0.115c-0.013,0.063-0.034,0.187-0.046,0.275c-0.026,0.185-0.073,0.229-0.303,0.285c-0.101,0.025-0.169,0.061-0.169,0.091c0,0.029-0.036,0.05-0.089,0.05c-0.049,0-0.089,0.012-0.089,0.027s-0.052,0.049-0.115,0.077s-0.168,0.091-0.232,0.142c-0.225,0.177-0.704,0.661-0.783,0.79c-0.077,0.126-0.078,0.134-0.017,0.204c0.034,0.04,0.084,0.073,0.11,0.073c0.068,0,0.209,0.146,0.231,0.239c0.011,0.044,0.005,0.071-0.013,0.06c-0.018-0.011-0.032-0.043-0.032-0.071c0-0.038-0.047-0.051-0.177-0.051c-0.098,0-0.177,0.016-0.177,0.037c0,0.02-0.036,0.051-0.08,0.069l-0.08,0.033l0.08,0.024c0.044,0.013,0.08,0.038,0.08,0.055s0.075,0.031,0.166,0.031c0.1,0,0.19,0.022,0.227,0.055c0.058,0.052,0.057,0.06-0.019,0.142c-0.044,0.048-0.107,0.087-0.139,0.087s-0.068,0.024-0.08,0.053c-0.013,0.034-0.068,0.053-0.155,0.053c-0.087,0-0.142-0.019-0.155-0.053c-0.011-0.029-0.053-0.053-0.094-0.053c-0.04,0-0.111-0.025-0.157-0.055c-0.079-0.052-0.084-0.05-0.107,0.04c-0.013,0.052-0.045,0.116-0.072,0.142c-0.026,0.026-0.092,0.188-0.146,0.359c-0.054,0.171-0.11,0.319-0.124,0.329c-0.035,0.024-0.163,0.674-0.19,0.966l-0.022,0.239h0.21c0.234,0,0.467,0.08,0.467,0.16c0,0.029,0.031,0.053,0.069,0.053s0.079,0.032,0.091,0.071c0.012,0.039,0.045,0.071,0.073,0.071c0.028,0,0.051,0.024,0.051,0.053s0.024,0.053,0.053,0.053c0.029,0,0.053,0.031,0.053,0.069c0,0.038,0.032,0.079,0.071,0.091c0.039,0.012,0.071,0.045,0.071,0.073s0.023,0.051,0.051,0.051c0.087,0,0.19,0.171,0.216,0.358c0.014,0.102,0.046,0.187,0.074,0.198c0.027,0.01,0.05,0.041,0.05,0.068s0.032,0.049,0.072,0.049s0.081,0.024,0.093,0.053c0.011,0.029,0.041,0.053,0.066,0.053c0.025,0,0.055,0.024,0.066,0.053c0.013,0.035,0.069,0.053,0.16,0.053c0.118,0,0.143,0.013,0.161,0.086c0.012,0.047,0.013,0.109,0.001,0.138c-0.024,0.063-0.169,0.096-0.235,0.055c-0.026-0.016-0.083-0.03-0.127-0.03c-0.044,0-0.08-0.017-0.08-0.036s-0.024-0.035-0.053-0.035c-0.029,0-0.053-0.024-0.053-0.053c0-0.035-0.035-0.053-0.104-0.053c-0.132,0-0.221,0.034-0.196,0.075c0.011,0.017-0.005,0.032-0.035,0.032c-0.071,0-0.198,0.109-0.198,0.17c0,0.026,0.02,0.068,0.044,0.092c0.055,0.055,0.262,0.129,0.288,0.103c0.01-0.01,0.03,0.023,0.042,0.074c0.017,0.068,0.046,0.093,0.108,0.093c0.047,0,0.085,0.015,0.085,0.034c0,0.019,0.024,0.025,0.053,0.014c0.029-0.011,0.093-0.01,0.142,0.002c0.073,0.018,0.089,0.044,0.089,0.143c0,0.195-0.029,0.233-0.177,0.233c-0.104,0-0.138-0.016-0.153-0.071c-0.021-0.08-0.104-0.094-0.16-0.026c-0.059,0.071,0.027,0.345,0.108,0.345c0.036,0,0.074,0.024,0.085,0.053c0.011,0.029,0.051,0.053,0.088,0.053c0.037,0,0.067,0.014,0.067,0.031s0.064,0.097,0.142,0.177c0.134,0.138,0.182,0.21,0.109,0.165c-0.018-0.011-0.043,0.01-0.055,0.048c-0.026,0.082,0.012,0.252,0.056,0.252c0.017,0,0.032,0.026,0.032,0.058c0,0.068-0.099,0.152-0.183,0.154c-0.066,0.001-0.101,0.072-0.101,0.199c0,0.053-0.021,0.086-0.053,0.086c-0.033,0-0.053,0.033-0.053,0.089c0,0.057-0.02,0.089-0.056,0.089c-0.041,0-0.049,0.021-0.032,0.08c0.034,0.112,0.118,0.239,0.159,0.239c0.058,0,0.041,0.353-0.02,0.414c-0.03,0.03-0.073,0.125-0.096,0.211c-0.039,0.147-0.053,0.16-0.218,0.209c-0.207,0.061-0.293,0.066-0.323,0.017c-0.012-0.02-0.053-0.035-0.091-0.035c-0.038,0-0.069,0.016-0.069,0.035c0,0.02,0.016,0.035,0.035,0.035c0.071,0,0.031,0.161-0.055,0.224c-0.106,0.077-0.395,0.073-0.379-0.006c0.018-0.087-0.033-0.187-0.111-0.216c-0.059-0.022-0.086-0.012-0.12,0.047c-0.024,0.042-0.044,0.111-0.044,0.155C43.456,36.33,43.447,36.332,43.309,36.277z M35.895,30.773c0-0.026,0.015-0.053,0.032-0.06c0.018-0.007,0.04-0.062,0.05-0.124c0.01-0.062,0.061-0.413,0.115-0.78c0.102-0.546,0.195-1.09,0.285-1.639c0.064-0.379,0.064-0.383-0.021-0.405c-0.08-0.021-0.098-0.132-0.022-0.132c0.027,0,0.059-0.04,0.072-0.089c0.012-0.049,0.043-0.089,0.067-0.089c0.238-1.211,0.639-2.675,0.674-3.888c-0.011-0.074-0.048-0.127-0.111-0.16c-0.156-0.08-0.2-0.137-0.159-0.203c0.02-0.032,0.059-0.056,0.086-0.054c0.096,0.009,0.209,0.057,0.209,0.088c0,0.017,0.024,0.031,0.053,0.031c0.029,0,0.053-0.017,0.053-0.037s0.034-0.254,0.075-0.52c0.068-0.44,0.07-0.486,0.018-0.515c-0.031-0.017-0.057-0.055-0.057-0.083c0-0.032-0.035-0.051-0.093-0.051c-0.082,0-0.091,0.011-0.075,0.096c0.024,0.126-0.013,0.211-0.167,0.383c-0.105,0.117-0.133,0.133-0.162,0.089c-0.019-0.029-0.026-0.081-0.015-0.115c0.014-0.044,0-0.062-0.05-0.062c-0.048,0-0.075,0.032-0.09,0.106c-0.019,0.093-0.036,0.106-0.143,0.106c-0.18,0-0.232-0.199-0.086-0.326c0.112-0.097,0.048-0.185-0.147-0.2c-0.172-0.013-0.251,0.037-0.251,0.157c0,0.051-0.021,0.084-0.053,0.084c-0.029,0-0.089,0.036-0.133,0.08c-0.068,0.068-0.078,0.112-0.07,0.293c0.011,0.24-0.064,0.94-0.1,0.94c-0.013,0-0.043,0.168-0.066,0.374c-0.023,0.206-0.051,0.397-0.062,0.426c-0.017,0.043-0.174,0.052-0.983,0.052c-0.53,0-0.982,0.012-1.005,0.027c-0.023,0.015-0.047,0.082-0.053,0.149c-0.008,0.085-0.036,0.135-0.091,0.162c-0.044,0.022-0.069,0.05-0.056,0.063c0.013,0.013-0.014,0.023-0.06,0.023c-0.17,0-0.316,0.082-0.377,0.21c-0.033,0.069-0.081,0.147-0.107,0.173s-0.048,0.078-0.048,0.115c0,0.037-0.03,0.083-0.067,0.103c-0.037,0.02-0.077,0.076-0.089,0.125c-0.017,0.066-0.046,0.09-0.112,0.09c-0.169,0.024-0.499,2.297-0.547,2.496c-0.015-0.015-0.072,0.319-0.202,1.185l-0.023,0.153l0.31-0.007l0.31-0.007l-0.022-0.093c-0.063-0.271-0.065-0.357-0.007-0.38c0.032-0.012,0.058-0.051,0.058-0.087c0-0.091,0.096-0.176,0.198-0.176c0.051,0,0.086-0.021,0.086-0.051c0-0.032,0.044-0.055,0.115-0.062c0.09-0.009,0.127-0.036,0.169-0.126c0.073-0.158,0.177-0.156,0.177,0.004c0,0.124,0.076,0.223,0.14,0.183c0.02-0.013,0.037-0.061,0.037-0.107c0-0.152,0.037-0.196,0.164-0.196c0.114,0,0.12,0.007,0.12,0.124c0,0.087-0.016,0.124-0.053,0.124c-0.029,0-0.053,0.024-0.053,0.053s-0.015,0.053-0.033,0.053c-0.018,0-0.026,0.04-0.017,0.089c0.013,0.072,0.002,0.089-0.059,0.089c-0.054,0-0.069,0.016-0.054,0.056c0.012,0.031,0.022,0.071,0.022,0.089c0,0.018,0.057,0.033,0.127,0.033c0.154,0,0.226,0.065,0.253,0.23c0.019,0.117,0.028,0.124,0.158,0.124c0.076,0,0.137-0.016,0.137-0.035c0-0.02-0.016-0.035-0.035-0.035s-0.035-0.024-0.035-0.053s-0.024-0.053-0.053-0.053c-0.029,0-0.053-0.017-0.053-0.038c0-0.021-0.016-0.028-0.035-0.016c-0.021,0.013-0.035-0.029-0.035-0.104c0-0.084,0.017-0.126,0.049-0.126c0.027,0,0.069-0.048,0.093-0.106c0.041-0.099,0.142-0.15,0.142-0.071c0,0.02,0.047,0.035,0.105,0.035c0.092,0,0.108,0.016,0.128,0.124c0.013,0.068,0.038,0.124,0.055,0.124s0.032,0.04,0.032,0.089c0,0.049-0.016,0.089-0.035,0.089c-0.02,0-0.035,0.023-0.035,0.051s-0.033,0.061-0.073,0.074c-0.04,0.013-0.067,0.042-0.059,0.064c0.018,0.054,0.558,0.078,0.558,0.025c0-0.02,0.064-0.037,0.142-0.037c0.128,0,0.142,0.009,0.142,0.089c0,0.049,0.014,0.089,0.032,0.089c0.017,0,0.042-0.04,0.054-0.089c0.016-0.065,0.046-0.089,0.11-0.089c0.063,0,0.093-0.024,0.109-0.087c0.013-0.053,0.052-0.091,0.098-0.098c0.06-0.009,0.079-0.039,0.087-0.142c0.009-0.106,0.031-0.14,0.116-0.177c0.076-0.033,0.116-0.084,0.141-0.179c0.031-0.114,0.05-0.133,0.136-0.133c0.142,0,0.241,0.117,0.188,0.222c-0.056,0.109-0.121,0.209-0.174,0.267c-0.024,0.027-0.044,0.085-0.044,0.13c0,0.107-0.129,0.268-0.216,0.268c-0.072,0-0.083,0.028-0.047,0.121c0.016,0.041,0.072,0.057,0.204,0.059c0.1,0.002,0.163,0.011,0.138,0.021c-0.024,0.01-0.044,0.056-0.044,0.104c0,0.047,0.02,0.086,0.044,0.086c0.03,0,0.027,0.012-0.009,0.035c-0.047,0.031-0.047,0.035,0,0.036c0.042,0.001,0.04,0.009-0.009,0.038c-0.034,0.02-0.062,0.067-0.062,0.105c0,0.038-0.016,0.069-0.035,0.069c-0.039,0-0.05,0.47-0.013,0.507C35.844,30.868,35.895,30.829,35.895,30.773z M32.152,28.441c-0.03-0.043-0.055-0.121-0.055-0.173c0-0.109,0.123-0.281,0.2-0.281c0.062,0,0.155,0.084,0.155,0.139c0,0.021,0.016,0.038,0.035,0.038c0.02,0,0.035,0.04,0.035,0.089c0,0.049-0.016,0.089-0.035,0.089c-0.02,0-0.035,0.024-0.035,0.053c0,0.029-0.024,0.053-0.053,0.053c-0.029,0-0.053,0.016-0.053,0.035C32.346,28.551,32.208,28.52,32.152,28.441z M33.824,28.394c-0.101-0.098-0.13-0.154-0.13-0.251c0-0.122,0.064-0.226,0.139-0.226c0.021,0,0.038-0.016,0.038-0.035c0-0.083,0.127-0.178,0.239-0.178c0.064,0,0.116-0.016,0.116-0.035c0-0.02-0.016-0.035-0.035-0.035c-0.056,0-0.079-0.154-0.038-0.261c0.034-0.089,0.052-0.097,0.188-0.087l0.151,0.011l0.011,0.166c0.009,0.137-0.002,0.173-0.061,0.204c-0.075,0.04-0.066,0.144,0.014,0.144c0.025,0,0.055,0.06,0.067,0.133c0.032,0.193,0.028,0.328-0.01,0.328c-0.018,0-0.044,0.035-0.058,0.078c-0.043,0.134-0.108,0.17-0.309,0.17C33.974,28.52,33.94,28.507,33.824,28.394z M33.449,28.277c-0.038-0.071-0.014-0.219,0.037-0.219c0.017,0,0.031,0.024,0.031,0.053s0.016,0.053,0.035,0.053s0.035,0.04,0.035,0.089C33.588,28.359,33.501,28.374,33.449,28.277z M35.886,28.215c-0.066-0.066,0.144-0.298,0.271-0.298c0.124,0,0.123,0.09-0.002,0.22C36.067,28.228,35.937,28.266,35.886,28.215z M33.467,27.752c-0.036-0.093,0.046-0.296,0.12-0.296c0.085,0,0.128,0.234,0.056,0.306C33.576,27.828,33.494,27.823,33.467,27.752z M35.718,30.342c0-0.027-0.032-0.049-0.071-0.049c-0.067,0-0.097,0.069-0.05,0.116C35.632,30.443,35.718,30.396,35.718,30.342z M38.38,30.355c0-0.044-0.012-0.097-0.027-0.119c-0.058-0.086-0.328-0.095-0.328-0.011c0,0.077,0.161,0.209,0.255,0.209C38.36,30.435,38.38,30.419,38.38,30.355z M37.982,29.776c-0.045-0.098-0.116-0.113-0.148-0.03c-0.029,0.075-0.029,0.073,0.035,0.138C37.955,29.97,38.035,29.893,37.982,29.776z M37.413,29.668c0.047-0.013,0.08-0.049,0.08-0.088c0-0.037,0.016-0.067,0.035-0.067c0.02,0,0.035-0.046,0.035-0.102c0-0.127-0.093-0.159-0.275-0.096c-0.156,0.054-0.204,0.122-0.173,0.243C37.143,29.67,37.253,29.71,37.413,29.668z M31.473,29.366c0.006-0.007,0.019-0.097,0.029-0.199c0.015-0.16,0.008-0.186-0.045-0.186c-0.034,0-0.071-0.024-0.082-0.053c-0.025-0.065-0.094-0.071-0.094-0.008c0,0.025-0.048,0.074-0.106,0.108c-0.084,0.049-0.106,0.088-0.106,0.178c0,0.162,0.06,0.209,0.241,0.19C31.393,29.387,31.467,29.373,31.473,29.366z M32.614,25.213c0.04-0.298,0.049-0.556,0.02-0.574c-0.035-0.022-0.11,0.188-0.11,0.308c0,0.034-0.016,0.062-0.036,0.062c-0.052,0-0.044,0.275,0.009,0.294C32.548,25.322,32.605,25.278,32.614,25.213z M32.389,24.512c0.024-0.039,0.078-0.071,0.119-0.071c0.112,0,0.188-0.247,0.124-0.402c-0.026-0.062-0.054-0.161-0.063-0.22c-0.02-0.133,0.104-0.512,0.181-0.556c0.031-0.018,0.057-0.047,0.057-0.066c0-0.073-0.114-0.028-0.228,0.09c-0.066,0.068-0.145,0.124-0.174,0.124s-0.059,0.017-0.066,0.037s-0.044,0.042-0.083,0.048c-0.041,0.006-0.075,0.042-0.082,0.087c-0.007,0.047-0.037,0.077-0.078,0.077c-0.037,0-0.076,0.016-0.088,0.035c-0.012,0.02-0.058,0.035-0.101,0.035c-0.044,0-0.099,0.019-0.122,0.043c-0.063,0.063-0.055,0.472,0.011,0.538c0.029,0.029,0.053,0.07,0.053,0.091s0.032,0.038,0.071,0.038c0.039,0,0.071,0.016,0.071,0.035s0.031,0.035,0.069,0.035c0.038,0,0.079,0.016,0.091,0.035C32.188,24.609,32.343,24.586,32.389,24.512z M34.901,24.087c0-0.02,0.029-0.035,0.065-0.035c0.064,0,0.148-0.131,0.148-0.232c0-0.028,0.015-0.052,0.034-0.052c0.049,0,0.084-0.228,0.057-0.372l-0.023-0.124h-0.23c-0.172,0-0.235,0.013-0.251,0.053c-0.011,0.029-0.04,0.053-0.064,0.053c-0.155,0-0.297,0.392-0.184,0.505c0.031,0.031,0.057,0.082,0.057,0.113c0,0.032,0.03,0.056,0.069,0.056c0.038,0,0.079,0.016,0.091,0.035s0.069,0.035,0.126,0.035C34.854,24.122,34.901,24.106,34.901,24.087z M33.005,23.058c0.077,0,0.06-0.096-0.021-0.117c-0.088-0.023-0.119,0.022-0.086,0.126c0.014,0.045,0.032,0.06,0.041,0.035C32.948,23.078,32.978,23.058,33.005,23.058z M40.581,23.094c0-0.02,0.039-0.035,0.087-0.035c0.048,0,0.097-0.016,0.109-0.035c0.012-0.02,0.069-0.035,0.126-0.035c0.057,0,0.104-0.016,0.104-0.035s0.031-0.035,0.069-0.035c0.038,0,0.079-0.016,0.091-0.035c0.012-0.02,0.053-0.035,0.091-0.035s0.069-0.02,0.069-0.045c0-0.024,0.052-0.067,0.115-0.095c0.063-0.028,0.158-0.096,0.209-0.151s0.105-0.1,0.118-0.1c0.013,0,0.048-0.025,0.079-0.055c0.049-0.049,0.049-0.062-0.008-0.124c-0.035-0.038-0.088-0.069-0.119-0.069c-0.089,0-0.248-0.157-0.293-0.288c-0.023-0.066-0.056-0.13-0.075-0.142c-0.052-0.035-0.036-0.303,0.026-0.427c0.069-0.139,0.071-0.207,0.004-0.207c-0.077,0-0.106-0.219-0.049-0.375c0.059-0.164,0.195-0.228,0.483-0.228c0.22,0,0.398,0.06,0.398,0.133c0,0.024,0.033,0.044,0.073,0.044c0.04,0,0.111,0.039,0.159,0.086c0.082,0.082,0.22,0.149,0.249,0.12c0.04-0.04,0.093-0.541,0.072-0.681c-0.019-0.13-0.039-0.163-0.093-0.163c-0.053,0-0.069-0.025-0.069-0.106c0-0.059-0.016-0.106-0.035-0.106c-0.02,0-0.035-0.032-0.035-0.071s0.016-0.071,0.035-0.071c0.02,0,0.035-0.02,0.035-0.045s0.032-0.065,0.071-0.089c0.039-0.024,0.071-0.072,0.072-0.106c0.001-0.121-0.156-0.541-0.202-0.541c-0.026,0-0.047-0.03-0.047-0.066s-0.04-0.109-0.089-0.161c-0.049-0.053-0.089-0.111-0.089-0.129c0-0.019-0.024-0.034-0.053-0.034c-0.029,0-0.053-0.013-0.053-0.03c0-0.016-0.072-0.067-0.16-0.112c-0.088-0.045-0.16-0.094-0.16-0.108c0-0.014-0.097-0.062-0.215-0.106c-0.158-0.059-0.297-0.081-0.523-0.084l-0.308-0.004c-0.246,1.66-0.628,3.295-0.869,4.956c-0.002,0.054,0.035,0.062,0.299,0.062C40.457,23.129,40.581,23.114,40.581,23.094z M42.193,19.458c-0.03-0.119,0.01-0.266,0.073-0.266c0.028,0,0.066-0.028,0.085-0.062c0.031-0.056,0.042-0.052,0.111,0.035c0.042,0.053,0.099,0.097,0.127,0.097c0.03,0,0.051,0.035,0.051,0.086c0,0.172-0.031,0.198-0.234,0.198C42.232,19.547,42.213,19.539,42.193,19.458z M41.539,19.235c-0.109-0.06-0.126-0.087-0.135-0.224c-0.015-0.227,0.043-0.287,0.275-0.285c0.104,0.001,0.206,0.018,0.227,0.039c0.021,0.021,0.072,0.037,0.115,0.037c0.107,0,0.179,0.242,0.083,0.278c-0.018,0.007-0.032,0.031-0.032,0.054C42.072,19.265,41.717,19.332,41.539,19.235z M33.357,22.934c0-0.02-0.036-0.041-0.08-0.047c-0.055-0.008-0.08,0.007-0.08,0.047c0,0.04,0.025,0.055,0.08,0.047C33.321,22.975,33.357,22.953,33.357,22.934z M35.506,22.596c0.034-0.04,0.082-0.119,0.106-0.177c0.024-0.058,0.062-0.106,0.084-0.106c0.037,0,0.129-0.156,0.129-0.22c0-0.016-0.058-0.028-0.128-0.028c-0.111,0-0.126-0.01-0.11-0.071c0.011-0.042,0.001-0.071-0.025-0.071c-0.071,0-0.198-0.171-0.198-0.266c0-0.049,0.013-0.088,0.028-0.088c0.016,0,0.049-0.056,0.073-0.124c0.025-0.068,0.068-0.124,0.096-0.124s0.051-0.016,0.051-0.035c0-0.02,0.038-0.035,0.085-0.035s0.094-0.024,0.105-0.053c0.011-0.029,0.053-0.053,0.093-0.053c0.06,0,0.072-0.023,0.072-0.142c0-0.078-0.016-0.142-0.035-0.142s-0.035-0.032-0.035-0.071c0-0.047-0.024-0.071-0.071-0.071c-0.039,0-0.071-0.023-0.071-0.051c0-0.028-0.023-0.064-0.051-0.08c-0.028-0.016-0.059-0.074-0.069-0.13c-0.023-0.127-0.028-0.132-0.171-0.16c-0.094-0.019-0.119-0.043-0.128-0.12c-0.006-0.053-0.024-0.096-0.04-0.096c-0.016,0-0.047-0.073-0.07-0.161s-0.056-0.152-0.075-0.14c-0.019,0.012-0.035,0.004-0.035-0.016s-0.021-0.038-0.046-0.038c-0.1,0-0.182-0.461-0.092-0.516c0.04-0.025,0.204,0.045,0.257,0.108c0.019,0.023,0.036,0.02,0.047-0.009c0.01-0.024,0.049-0.044,0.086-0.044c0.049,0,0.068-0.025,0.068-0.089c0-0.049-0.016-0.089-0.035-0.089c-0.054,0-0.042-0.247,0.015-0.304c0.076-0.076,0.123-0.062,0.149,0.044c0.021,0.084,0.028,0.088,0.067,0.035c0.024-0.032,0.058-0.059,0.076-0.059s0.076-0.084,0.129-0.186s0.096-0.171,0.097-0.153c0,0.018,0.025,0.002,0.056-0.035c0.039-0.049,0.061-0.056,0.074-0.025c0.021,0.051,0.149,0.058,0.221,0.012c0.031-0.02,0.041-0.062,0.027-0.115c-0.053-0.198,0.005-0.189-1.316-0.2l-1.225-0.01l-0.017,0.081c-0.009,0.044-0.053,0.304-0.096,0.577c-0.043,0.273-0.089,0.504-0.101,0.514c-0.021,0.016-0.054,0.211-0.203,1.188c-0.03,0.195-0.065,0.363-0.079,0.372c-0.014,0.01-0.071,0.321-0.127,0.692c-0.056,0.371-0.113,0.682-0.126,0.692c-0.034,0.025-0.077,0.385-0.051,0.427c0.013,0.021,0.496,0.034,1.248,0.034C35.404,22.668,35.445,22.666,35.506,22.596z M34.795,18.888c0-0.031-0.024-0.08-0.053-0.109c-0.078-0.078-0.065-0.181,0.036-0.282c0.076-0.076,0.116-0.087,0.272-0.078c0.168,0.01,0.186,0.02,0.218,0.115c0.025,0.075,0.023,0.109-0.006,0.118c-0.022,0.007-0.041,0.037-0.041,0.065c0,0.028-0.023,0.06-0.052,0.071c-0.029,0.011-0.062,0.05-0.073,0.088C35.067,18.966,34.795,18.977,34.795,18.888z M36.528,18.935c0.007-0.037-0.01-0.062-0.044-0.062c-0.031,0-0.056,0.007-0.056,0.015s-0.01,0.042-0.023,0.075c-0.017,0.045-0.006,0.057,0.044,0.047C36.486,19.002,36.521,18.969,36.528,18.935z M37.333,18.98c0.041-0.066-0.018-0.107-0.09-0.062c-0.038,0.024-0.069,0.055-0.069,0.07C37.173,19.028,37.307,19.021,37.333,18.98z M38.274,18.284c0-0.05-0.015-0.079-0.035-0.067c-0.02,0.012-0.035,0.062-0.035,0.111c0,0.05,0.015,0.079,0.035,0.067C38.258,18.382,38.274,18.333,38.274,18.284z M35.656,17.618c0.034-0.026,0.062-0.063,0.062-0.083c0-0.02,0.024-0.056,0.053-0.08c0.058-0.048,0.074-0.248,0.021-0.248c-0.018,0-0.043,0.048-0.056,0.106c-0.016,0.071-0.045,0.106-0.088,0.106c-0.068,0-0.107,0.067-0.107,0.18C35.54,17.679,35.57,17.683,35.656,17.618z M36.783,17.263c0-0.068-0.015-0.082-0.071-0.067c-0.039,0.01-0.071,0.048-0.071,0.085c0,0.043,0.025,0.067,0.071,0.067C36.763,17.348,36.783,17.325,36.783,17.263z M36.605,17.082c0-0.029-0.016-0.053-0.035-0.053c-0.02,0-0.035,0.024-0.035,0.053c0,0.029,0.016,0.053,0.035,0.053C36.589,17.135,36.605,17.112,36.605,17.082z M35.799,16.919c0.004-0.047-0.009-0.093-0.028-0.103c-0.02-0.01-0.04,0.045-0.047,0.124c-0.008,0.103-0.001,0.131,0.028,0.103C35.774,17.022,35.795,16.966,35.799,16.919z M41.902,16.679c0-0.039-0.024-0.071-0.053-0.071c-0.054,0-0.073,0.075-0.03,0.118C41.864,16.771,41.902,16.749,41.902,16.679z M25.1,35.967c-0.071-0.037-0.138-0.102-0.148-0.144c-0.02-0.077,0.076-0.315,0.128-0.316c0.015,0,0.062-0.033,0.104-0.072c0.081-0.075,0.382-0.103,0.382-0.035c0,0.02,0.022,0.035,0.049,0.035c0.061,0,0.104,0.157,0.071,0.26c-0.046,0.145-0.287,0.345-0.412,0.341C25.249,36.036,25.171,36.005,25.1,35.967z M35.159,35.434c-0.047-0.019-0.08-0.062-0.08-0.106c0-0.062,0.018-0.073,0.115-0.063c0.096,0.009,0.117,0.027,0.127,0.109C35.333,35.478,35.299,35.491,35.159,35.434z M22.292,34.156c-0.045-0.078-0.094-0.142-0.111-0.142c-0.064,0-0.114-0.197-0.076-0.297c0.03-0.08,0.021-0.127-0.049-0.267c-0.076-0.149-0.084-0.202-0.067-0.433c0.02-0.266-0.031-0.564-0.097-0.564c-0.019,0-0.034-0.044-0.034-0.099c0-0.057-0.029-0.12-0.07-0.149c-0.038-0.028-0.08-0.095-0.092-0.15c-0.012-0.055-0.036-0.1-0.052-0.1c-0.017,0-0.035-0.052-0.042-0.115c-0.011-0.114-0.012-0.115-0.203-0.115c-0.122,0-0.198-0.016-0.207-0.044c-0.008-0.024-0.038-0.044-0.065-0.044c-0.028,0-0.05-0.019-0.05-0.042c0-0.023-0.026-0.07-0.058-0.105c-0.049-0.054-0.052-0.088-0.018-0.222C21.075,30.977,21.155,31,20.083,31c-0.658,0-0.958,0.012-0.958,0.038c0,0.087-0.108,0.143-0.261,0.135c-0.201-0.01-0.245-0.045-0.325-0.261c-0.036-0.098-0.077-0.185-0.089-0.195c-0.052-0.04-0.105-0.179-0.105-0.276c0-0.149,0.07-0.327,0.128-0.327c0.027,0,0.05-0.016,0.05-0.035c0-0.02,0.03-0.035,0.067-0.035c0.037,0,0.076-0.022,0.086-0.048c0.01-0.027,0.098-0.059,0.198-0.072l0.18-0.024l-0.023-0.221c-0.012-0.121-0.033-0.229-0.046-0.238c-0.013-0.01-0.088,0.157-0.144-0.281s-0.111-0.806-0.123-0.816c-0.013-0.01-0.059-0.313-0.104-0.674c-0.114-0.92-0.152-1.17-0.179-1.17c-0.013,0-0.07,0.092-0.126,0.204L15.58,31h-3.441H8.698l2.713-15h4.149h4.149v0.087c0,0.048,0.013,0.095,0.03,0.105c0.016,0.01,0.05,0.345,0.075,0.571c0.041,0.366,0.096,0.534,0.136,0.415c0.018-0.055,0.167-0.053,0.262,0.003c0.19,0.112,0.314,0.284,0.314,0.434c0,0.054,0.015,0.084,0.036,0.071c0.02-0.012,0.046,0.026,0.058,0.087c0.012,0.06,0.034,0.109,0.049,0.109c0.072,0,0.068,0.138-0.007,0.292c-0.058,0.118-0.104,0.168-0.155,0.168c-0.04,0-0.091,0.018-0.112,0.04c-0.022,0.022-0.105,0.033-0.185,0.026c-0.175-0.017-0.17-0.061-0.075,0.662c0.039,0.293,0.07,0.56,0.071,0.594c0.002,0.137,0.096,0.046,0.212-0.205c0.067-0.146,0.132-0.265,0.144-0.265c0.012,0,0.044-0.056,0.07-0.124c0.027-0.068,0.062-0.124,0.078-0.124s0.029-0.029,0.029-0.066c0-0.036,0.034-0.104,0.075-0.151s0.115-0.165,0.164-0.263s0.102-0.185,0.117-0.195c0.015-0.01,0.068-0.109,0.118-0.222s0.107-0.204,0.128-0.204s0.037-0.028,0.037-0.062c0-0.063-0.199-0.222-0.277-0.222c-0.081,0-0.041-0.125,0.063-0.194c0.057-0.038,0.113-0.102,0.123-0.142c0.024-0.094,0.175-0.161,0.365-0.161c0.109,0,0.153-0.015,0.153-0.051c0-0.028,0.025-0.075,0.055-0.105c0.03-0.03,0.105-0.163,0.167-0.295c0.062-0.132,0.141-0.272,0.176-0.309c0.035-0.038,0.064-0.086,0.064-0.108c0-0.042,0.196-0.125,0.295-0.125c0.033,0,0.06-0.016,0.06-0.035s0.024-0.035,0.053-0.035c0.036,0,0.053-0.037,0.054-0.115c0.001-0.168,0.036-0.275,0.092-0.275c0.056,0,0.067-0.127,0.014-0.16c-0.108-0.067,0.029-0.443,0.162-0.443c0.04,0,0.092-0.02,0.116-0.044c0.034-0.034,0.058-0.034,0.113,0c0.038,0.024,0.094,0.043,0.123,0.043c0.03,0,0.054,0.016,0.054,0.035c0,0.063,0.125,0.038,0.177-0.035c0.028-0.039,0.072-0.071,0.097-0.071c0.025,0,0.045-0.024,0.045-0.053c0-0.03,0.032-0.053,0.071-0.053c0.039,0,0.071-0.015,0.071-0.033c0-0.018,0.104-0.044,0.231-0.057c0.127-0.014,0.231-0.039,0.231-0.056c0-0.017,0.264-0.031,0.586-0.031c0.515,0,0.586,0.007,0.586,0.057c0,0.046,0.024,0.053,0.119,0.035c0.085-0.016,0.132-0.007,0.164,0.032c0.025,0.03,0.067,0.054,0.094,0.054s0.049,0.024,0.049,0.053c0,0.029,0.056,0.089,0.125,0.133c0.069,0.044,0.134,0.116,0.146,0.16c0.011,0.044,0.035,0.08,0.053,0.08c0.017,0,0.032,0.024,0.032,0.053c0,0.029,0.031,0.053,0.068,0.053c0.047,0,0.076,0.034,0.092,0.11c0.013,0.061,0.05,0.14,0.082,0.177c0.065,0.076,0.184,0.09,0.184,0.022c0-0.025,0.032-0.068,0.071-0.096c0.085-0.061,0.088-0.094,0.018-0.165c-0.061-0.061-0.07-0.119-0.018-0.119c0.02,0,0.035-0.024,0.035-0.053c0-0.066,0.248-0.075,0.312-0.011c0.033,0.033,0.043,0.033,0.043,0c0-0.066,0.131-0.05,0.157,0.02c0.08,0.212,0.207,0.296,0.256,0.168c0.013-0.033,0.066-0.053,0.139-0.053c0.065,0,0.128-0.016,0.14-0.035c0.012-0.02,0.053-0.035,0.091-0.035c0.038,0,0.069-0.024,0.069-0.053s-0.012-0.053-0.028-0.053c-0.015,0-0.048-0.044-0.072-0.098c-0.095-0.207-0.132-0.257-0.19-0.257c-0.07,0-0.131-0.149-0.07-0.17c0.022-0.007,0.04-0.035,0.04-0.061s0.026-0.053,0.058-0.059c0.035-0.007,0.063-0.053,0.069-0.115c0.02-0.19,0.087-0.304,0.179-0.304c0.046,0,0.084,0.02,0.084,0.045s0.05,0.067,0.11,0.093c0.094,0.041,0.115,0.041,0.141,0c0.048-0.076,0.038-0.102-0.039-0.102c-0.047,0-0.071-0.024-0.071-0.071c0-0.039-0.024-0.071-0.053-0.071c-0.029,0-0.053-0.031-0.053-0.07c0-0.073,0.103-0.36,0.141-0.391c0.012-0.01,0.038-0.057,0.059-0.106l0.038-0.088l0.046,0.088c0.053,0.103,0.212,0.244,0.276,0.246c0.047,0.001,0.059-0.097,0.023-0.191c-0.012-0.031-0.036-0.047-0.053-0.036c-0.017,0.011-0.032,0.003-0.032-0.018c0-0.021-0.02-0.038-0.044-0.038c-0.024,0-0.082-0.029-0.127-0.064c-0.083-0.063-0.083-0.064-0.024-0.265c0.033-0.115,0.079-0.202,0.106-0.202c0.026,0,0.064-0.048,0.084-0.106c0.02-0.059,0.054-0.106,0.074-0.106c0.021,0,0.037-0.041,0.037-0.091c0-0.051,0.015-0.081,0.035-0.069c0.02,0.012,0.035-0.018,0.035-0.071c0-0.076,0.014-0.091,0.08-0.082c0.044,0.006,0.096,0.047,0.115,0.091c0.019,0.044,0.049,0.08,0.067,0.08c0.062,0,0.126,0.126,0.126,0.248c0,0.182-0.119,0.93-0.144,0.906c-0.012-0.012-0.032,0.071-0.045,0.184c-0.013,0.113-0.057,0.414-0.098,0.67c-0.065,0.41-0.082,0.464-0.137,0.449c-0.078-0.02-0.109,0.025-0.084,0.123c0.012,0.046,0.039,0.067,0.069,0.056c0.033-0.013,0.05,0.006,0.05,0.056c0,0.041-0.013,0.075-0.029,0.075s-0.048,0.148-0.073,0.328c-0.024,0.18-0.052,0.248-0.063,0.301l-0.019,0.098h1.21c0.944,0,1.21,0.01,1.21,0.044c0.001,0.11-0.119,0.986-0.14,1.002c-0.013,0.01-0.051,0.217-0.086,0.461s-0.071,0.475-0.08,0.514c-0.017,0.069-0.044,0.071-1.215,0.064c-0.659-0.004-1.214,0.004-1.234,0.018c-0.255,1.278-0.489,2.552-0.69,3.837c-0.121,0.755-0.119,0.689-0.021,0.742c0.096,0.051,0.133,0.141,0.104,0.251c-0.023,0.087-0.072,0.09-0.161,0.01c-0.051-0.046-0.074-0.05-0.094-0.017c-0.015,0.024-0.064,0.295-0.108,0.601c-0.527,2.62-0.74,4.777-1.276,7.391C26.014,30.996,25.918,31,24.667,31c-1.303,0-1.346-0.002-1.346-0.068c0-0.037,0.013-0.073,0.03-0.08c0.174-0.834,0.212-1.144,0.25-1.996l0.014-0.532l0.111-0.095c0.074-0.064,0.103-0.114,0.088-0.154c-0.012-0.032,0-0.149,0.029-0.259c0.58-2.673,0.847-5.441,1.479-8.092c0.062,0,0.031-0.137-0.035-0.158c-0.042-0.013-0.076-0.068-0.091-0.147c-0.017-0.093-0.038-0.12-0.078-0.105c-0.03,0.011-0.061,0.021-0.069,0.021c-0.008,0-0.015,0.025-0.015,0.055c0,0.03,0.016,0.045,0.035,0.033c0.02-0.012,0.035,0.011,0.035,0.051c0,0.041-0.023,0.073-0.053,0.073c-0.029,0-0.053,0.016-0.053,0.035c0,0.02-0.016,0.035-0.035,0.035c-0.02,0-0.035-0.032-0.035-0.071c0-0.052-0.024-0.071-0.089-0.071c-0.049,0-0.09,0.012-0.091,0.027c-0.001,0.015-0.013,0.13-0.026,0.257c-0.013,0.127-0.021,0.402-0.019,0.612c0.005,0.375,0.003,0.382-0.081,0.403c-0.184,0.046-0.242-0.08-0.154-0.333c0.031-0.088,0.026-0.132-0.025-0.227c-0.034-0.065-0.064-0.14-0.065-0.167c-0.003-0.085-0.112-0.131-0.179-0.075c-0.044,0.036-0.053,0.08-0.036,0.17c0.017,0.088,0.006,0.139-0.038,0.188c-0.05,0.055-0.057,0.113-0.041,0.333c0.022,0.292-0.021,0.515-0.099,0.515c-0.062,0-0.135,0.245-0.139,0.467c-0.002,0.091-0.015,0.177-0.029,0.192c-0.015,0.015-0.027,0.093-0.027,0.174c0,0.124-0.018,0.16-0.111,0.229c-0.1,0.074-0.115,0.076-0.144,0.024c-0.018-0.032-0.058-0.058-0.088-0.058c-0.044,0-0.051-0.024-0.034-0.111c0.012-0.061,0.022-0.141,0.022-0.177c0-0.037,0.024-0.066,0.053-0.066c0.037,0,0.053-0.037,0.053-0.122c0-0.067,0.024-0.146,0.053-0.175c0.034-0.034,0.053-0.122,0.053-0.249c0-0.181,0.051-0.368,0.113-0.413c0.014-0.01,0.03-0.187,0.036-0.393c0.008-0.311,0-0.384-0.049-0.433c-0.032-0.032-0.076-0.059-0.097-0.059c-0.046,0-0.046-0.023-0.002-0.33c0.044-0.303,0.011-0.379-0.162-0.379c-0.106,0-0.132,0.017-0.182,0.123c-0.032,0.067-0.069,0.116-0.082,0.108c-0.013-0.008-0.06,0.096-0.105,0.232c-0.045,0.136-0.095,0.247-0.112,0.247c-0.017,0-0.032,0.025-0.032,0.055c0,0.03-0.03,0.087-0.067,0.127c-0.037,0.04-0.078,0.14-0.09,0.224c-0.015,0.097-0.054,0.179-0.11,0.227c-0.048,0.042-0.087,0.113-0.087,0.158s-0.017,0.099-0.038,0.12c-0.021,0.021-0.039,0.088-0.041,0.149c-0.002,0.061-0.018,0.111-0.035,0.111c-0.018,0-0.022,0.016-0.01,0.035c0.013,0.021-0.023,0.035-0.085,0.035c-0.071,0-0.12-0.024-0.145-0.07c-0.037-0.069-0.015-0.249,0.03-0.249c0.013,0,0.067-0.038,0.122-0.085c0.09-0.078,0.238-0.407,0.238-0.532c0-0.028,0.016-0.056,0.035-0.063c0.019-0.007,0.05-0.091,0.068-0.188c0.018-0.097,0.05-0.182,0.072-0.189c0.021-0.007,0.039-0.035,0.039-0.061c0-0.027,0.04-0.089,0.089-0.137c0.113-0.113,0.111-0.127-0.012-0.127c-0.073,0-0.112,0.024-0.141,0.089c-0.022,0.049-0.061,0.089-0.086,0.089c-0.025,0-0.067,0.048-0.092,0.106c-0.054,0.122-0.121,0.134-0.222,0.04c-0.067-0.062-0.068-0.07-0.012-0.126c0.033-0.033,0.068-0.131,0.078-0.218c0.024-0.214-0.057-0.184-0.173,0.064c-0.047,0.1-0.101,0.199-0.121,0.22c-0.02,0.021-0.09,0.142-0.156,0.269c-0.066,0.127-0.132,0.239-0.146,0.248s-0.071,0.113-0.126,0.23c-0.055,0.117-0.125,0.239-0.156,0.272s-0.094,0.157-0.141,0.275c-0.047,0.118-0.099,0.215-0.117,0.215c-0.017,0-0.062,0.07-0.098,0.156c-0.037,0.086-0.088,0.17-0.114,0.186c-0.026,0.016-0.095,0.132-0.154,0.257s-0.122,0.246-0.142,0.268c-0.08,0.091-0.16,0.28-0.16,0.381c0,0.178,0.115,1.037,0.141,1.056c0.013,0.01,0.05,0.225,0.082,0.479c0.032,0.254,0.085,0.676,0.118,0.94c0.033,0.263,0.071,0.487,0.085,0.497c0.014,0.01,0.07,0.377,0.125,0.816c0.055,0.439,0.131,0.272,0.144,0.281c0.013,0.01,0.035,0.112,0.05,0.227c0.035,0.282,0.047,0.305,0.161,0.305c0.076,0,0.108,0.024,0.142,0.106c0.024,0.059,0.066,0.106,0.093,0.106c0.027,0,0.049,0.016,0.049,0.035c0,0.02,0.032,0.035,0.07,0.035c0.044,0,0.078,0.031,0.091,0.082c0.013,0.052,0.065,0.098,0.142,0.126c0.095,0.034,0.129,0.072,0.157,0.175c0.103,0.369-0.037,0.82-0.268,0.864c-0.046,0.009-0.071,0.047-0.077,0.119c-0.022,0.236-0.039,0.268-0.133,0.245c-0.103-0.026-0.122,0.053-0.035,0.14c0.065,0.064,0.067,0.109,0.01,0.199c-0.034,0.054-0.034,0.095,0,0.188c0.024,0.066,0.043,0.194,0.043,0.285c0,0.091,0.015,0.166,0.033,0.166c0.044,0,0.082,0.186,0.082,0.405c0,0.099,0.016,0.211,0.035,0.248s0.039,0.212,0.043,0.39c0.007,0.335,0.082,0.766,0.133,0.766c0.016,0,0.029,0.07,0.029,0.156c0,0.086,0.04,0.293,0.089,0.462c0.062,0.213,0.089,0.392,0.089,0.589c0,0.165,0.015,0.283,0.035,0.283c0.02,0,0.036,0.028,0.036,0.062s0.04,0.108,0.089,0.165c0.104,0.121,0.106,0.141,0.035,0.34c-0.029,0.083-0.053,0.205-0.053,0.27c0,0.101-0.013,0.12-0.08,0.119C22.397,34.298,22.349,34.255,22.292,34.156z M14.726,29.056c1.071-1.838,2.141-3.16,3.199-4.988c0.152-0.165,0.111-0.329,0.048-0.829c-0.242-1.329-0.383-2.677-0.609-4.01c-0.047-0.313-0.223-2.246-0.418-2.051c-0.057,0.301-0.067,0.619-0.176,0.899c-0.017,0.023-0.564,0.035-1.517,0.035h-1.491l-0.823,4.557h2.616c-0.062,0.552-0.215,1.109-0.319,1.664c-0.061,0.235,0.085,0.216-1.348,0.216h-1.305c-0.259,1.514-0.476,2.501-0.791,4.005c-0.043,0.167-0.1,0.491-0.075,0.516C11.745,29.096,14.684,29.084,14.726,29.056z M22.752,18.935c0.051-0.066,0.116-0.275,0.085-0.275c-0.015,0-0.06,0.072-0.1,0.16C22.668,18.971,22.676,19.033,22.752,18.935z M28.809,14.802c0.01-0.016,0.004-0.05-0.012-0.076c-0.04-0.065-0.148-0.02-0.121,0.05C28.698,14.833,28.78,14.85,28.809,14.802z M28.463,14.419c-0.012-0.031-0.022-0.071-0.022-0.089c0-0.018-0.024-0.033-0.053-0.033c-0.065,0-0.069,0.056-0.009,0.124C28.439,14.491,28.489,14.489,28.463,14.419z M28.991,13.42c-0.014-0.034-0.033-0.089-0.043-0.122c-0.023-0.079-0.117-0.114-0.117-0.043c0,0.063,0.11,0.224,0.155,0.226C29.003,13.482,29.005,13.455,28.991,13.42z M28.809,13.11c0.012-0.032,0-0.053-0.032-0.053c-0.029,0-0.052,0.024-0.052,0.053c0,0.029,0.014,0.053,0.032,0.053C28.774,13.163,28.798,13.139,28.809,13.11z M35.691,33.816c-0.024-0.01-0.044-0.056-0.044-0.103c0-0.061,0.025-0.091,0.087-0.107c0.105-0.026,0.162,0.004,0.162,0.086C35.895,33.805,35.802,33.861,35.691,33.816z M45.601,33.807c-0.008-0.008-0.015-0.044-0.015-0.08c0-0.045-0.026-0.065-0.085-0.065c-0.071,0-0.087-0.021-0.099-0.125c-0.008-0.069-0.007-0.133,0.002-0.142c0.009-0.009,0.086-0.017,0.17-0.017c0.113,0,0.154,0.014,0.154,0.053c0,0.029,0.024,0.053,0.052,0.053c0.071,0,0.162,0.184,0.137,0.279c-0.017,0.065-0.042,0.075-0.161,0.067C45.679,33.826,45.609,33.815,45.601,33.807z M45.203,33.697c-0.058-0.093-0.055-0.141,0.011-0.141c0.069,0,0.103,0.085,0.063,0.157C45.251,33.759,45.241,33.757,45.203,33.697z M29.861,33.368c-0.146-0.074-0.144-0.415,0.003-0.415c0.04,0,0.063-0.016,0.05-0.035c-0.012-0.02-0.005-0.035,0.016-0.035c0.021,0,0.038,0.016,0.038,0.035c0,0.02,0.045,0.035,0.101,0.035c0.201,0,0.279,0.198,0.145,0.368C30.132,33.424,30.006,33.441,29.861,33.368z M45.719,33.246c-0.054-0.008-0.098-0.037-0.098-0.065c0-0.028-0.024-0.051-0.053-0.051c-0.029,0-0.053-0.018-0.053-0.039c0-0.022-0.04-0.071-0.089-0.109c-0.101-0.08-0.112-0.152-0.036-0.229c0.084-0.084,0.206-0.045,0.266,0.084c0.032,0.068,0.08,0.115,0.119,0.115c0.044,0.001,0.059,0.019,0.045,0.054c-0.013,0.033,0,0.053,0.034,0.053c0.038,0,0.051,0.028,0.043,0.095C45.887,33.257,45.866,33.268,45.719,33.246z M30.172,32.855c-0.007-0.015-0.017-0.076-0.022-0.137c-0.01-0.122,0.056-0.161,0.221-0.13c0.064,0.012,0.097,0.047,0.113,0.119c0.012,0.056,0.012,0.118,0,0.138C30.457,32.887,30.191,32.896,30.172,32.855z M36.778,32.731c-0.051-0.02-0.12-0.082-0.152-0.137c-0.051-0.087-0.053-0.121-0.015-0.252c0.059-0.2,0.11-0.246,0.297-0.267c0.123-0.014,0.162-0.005,0.179,0.04c0.012,0.032,0.044,0.058,0.072,0.058c0.027,0,0.081,0.031,0.119,0.069c0.081,0.081,0.073,0.278-0.015,0.342c-0.03,0.022-0.055,0.052-0.055,0.068C37.209,32.757,36.96,32.803,36.778,32.731z M46.331,32.634c-0.04-0.075,0.006-0.213,0.071-0.213c0.06,0,0.115,0.142,0.074,0.192c-0.021,0.025-0.027,0.056-0.014,0.069c0.013,0.013-0.003,0.023-0.035,0.023C46.395,32.705,46.352,32.673,46.331,32.634z M2.727,16.062C2.745,16.004,2.848,16,4.237,16c0.625,0.011,1.256-0.031,1.87,0.101c2.285,0.444,3.037,2.577,3.557,4.756c0.029,0.158-0.15,0.034,0.04,0.286c0.666,5.495-2.023,9.677-6.576,9.824C3.057,30.985,2.325,31,1.5,31H0C0.918,25.892,1.82,21.172,2.727,16.062z M4.821,18.585L2.947,28.598C6.345,30.908,9.3,18.164,4.821,18.585z M26.436,31.261c-0.083-0.022-0.196-0.143-0.196-0.211c0-0.026-0.032-0.048-0.071-0.048c-0.079,0-0.096-0.054-0.027-0.086c0.035-0.017,0.035-0.025,0-0.041c-0.124-0.058,0.064-0.405,0.219-0.405c0.107,0,0.203-0.074,0.253-0.195c0.047-0.112,0.213-0.231,0.323-0.231c0.026,0,0.048-0.017,0.048-0.039c0-0.061,0.152-0.172,0.239-0.173c0.044-0.001,0.105-0.04,0.137-0.09c0.033-0.05,0.092-0.089,0.136-0.089c0.043,0,0.093-0.014,0.111-0.031c0.019-0.017,0.094-0.042,0.167-0.055c0.103-0.018,0.138-0.011,0.155,0.031c0.012,0.03,0.035,0.046,0.053,0.035c0.017-0.011,0.032,0.02,0.032,0.068c0,0.109-0.041,0.125-0.274,0.102c-0.184-0.018-0.187-0.016-0.346,0.152c-0.088,0.094-0.161,0.184-0.161,0.2c0,0.016-0.021,0.03-0.046,0.03c-0.025,0-0.065,0.072-0.089,0.16c-0.051,0.189-0.055,0.301-0.012,0.301c0.017,0,0.041,0.05,0.053,0.11c0.041,0.203-0.182,0.492-0.379,0.493c-0.062,0-0.145,0.007-0.185,0.014C26.538,31.273,26.475,31.271,26.436,31.261z M44.635,29.351c-0.017-0.03-0.06-0.06-0.095-0.065c-0.159-0.023-0.311-0.286-0.274-0.475c0.009-0.045,0.071-0.138,0.139-0.208c0.116-0.119,0.133-0.126,0.287-0.105c0.09,0.012,0.179,0.038,0.199,0.058c0.019,0.019,0.072,0.035,0.117,0.035c0.045,0,0.082,0.018,0.082,0.04c0,0.022,0.039,0.074,0.086,0.115c0.124,0.109,0.139,0.357,0.023,0.394c-0.038,0.012-0.08,0.057-0.094,0.1c-0.037,0.116-0.121,0.164-0.288,0.166C44.716,29.406,44.656,29.388,44.635,29.351z M43.669,26.048c-0.029-0.012-0.066-0.043-0.082-0.069c-0.016-0.026-0.05-0.048-0.076-0.048c-0.09,0-0.126-0.234-0.048-0.312c0.033-0.033,0.021-0.043-0.055-0.043c-0.092,0-0.272-0.144-0.272-0.218c0-0.017-0.022-0.03-0.049-0.03c-0.066,0-0.093-0.079-0.092-0.278c0-0.12,0.01-0.151,0.035-0.112c0.025,0.039,0.035,0.041,0.035,0.006c0.001-0.063,0.09-0.148,0.156-0.148c0.03,0,0.064-0.016,0.076-0.035c0.029-0.048,0.16-0.045,0.356,0.008c0.12,0.032,0.167,0.064,0.182,0.124c0.012,0.047,0.047,0.081,0.085,0.081c0.035,0,0.089,0.01,0.12,0.021c0.064,0.024,0.124-0.086,0.066-0.123c-0.02-0.013-0.047-0.057-0.06-0.099c-0.028-0.091,0.077-0.332,0.145-0.332c0.026,0,0.047-0.017,0.047-0.038c0-0.061,0.096-0.139,0.17-0.139c0.053,0,0.065-0.019,0.052-0.085c-0.009-0.047-0.047-0.093-0.084-0.103c-0.099-0.026-0.097-0.319,0.003-0.389c0.039-0.027,0.06-0.06,0.047-0.073c-0.013-0.013-0.005-0.023,0.018-0.023c0.063,0,0.049-0.098-0.021-0.142c-0.044-0.028-0.05-0.045-0.018-0.058c0.024-0.01,0.044-0.035,0.044-0.056c0-0.063,0.191-0.205,0.275-0.205c0.058,0,0.08-0.021,0.08-0.077c0-0.121,0.08-0.313,0.131-0.313c0.025,0,0.046-0.016,0.046-0.035c0-0.02,0.095-0.035,0.214-0.035c0.246,0,0.32,0.049,0.386,0.254c0.054,0.167,0.017,0.31-0.09,0.351c-0.046,0.018-0.084,0.056-0.084,0.086c0,0.061,0,0.061-0.204,0.022c-0.136-0.026-0.151-0.022-0.151,0.04c0,0.038,0.029,0.077,0.065,0.086c0.036,0.009,0.088,0.049,0.115,0.089c0.028,0.039,0.077,0.103,0.11,0.142c0.033,0.039,0.071,0.121,0.084,0.183c0.013,0.062,0.042,0.126,0.064,0.142c0.029,0.021,0.028,0.034-0.004,0.047c-0.024,0.01-0.044,0.04-0.044,0.066c0,0.078-0.147,0.159-0.288,0.159c-0.083,0-0.138,0.019-0.151,0.053c-0.011,0.029-0.008,0.053,0.008,0.053c0.035,0,0.111,0.161,0.111,0.236c0,0.146-0.12,0.302-0.289,0.376c-0.095,0.041-0.172,0.088-0.172,0.104c0,0.016-0.025,0.029-0.055,0.029c-0.03,0-0.045,0.016-0.033,0.035c0.012,0.02-0.003,0.035-0.033,0.035c-0.032,0-0.055,0.03-0.055,0.072c0,0.04-0.024,0.081-0.053,0.092c-0.029,0.011-0.053,0.048-0.053,0.083c0,0.044-0.043,0.071-0.151,0.094c-0.141,0.03-0.151,0.04-0.154,0.156c-0.005,0.191-0.049,0.283-0.134,0.284c-0.042,0-0.108,0.007-0.147,0.016C43.754,26.062,43.698,26.059,43.669,26.048z M47.668,24.199c-0.117-0.013-0.305-0.203-0.306-0.308c0-0.039,0.045-0.123,0.101-0.186c0.085-0.096,0.127-0.115,0.253-0.115c0.11,0,0.169,0.021,0.217,0.076c0.11,0.126,0.08,0.293-0.058,0.319c-0.039,0.007-0.076,0.041-0.082,0.075c-0.009,0.046,0.012,0.062,0.079,0.062c0.05,0,0.091,0.014,0.091,0.031C47.964,24.191,47.808,24.215,47.668,24.199z M43.742,23.929c-0.023-0.028-0.037-0.096-0.031-0.151c0.01-0.086,0.029-0.101,0.138-0.11c0.107-0.009,0.133,0.004,0.169,0.082c0.058,0.128,0,0.23-0.133,0.23C43.83,23.98,43.765,23.957,43.742,23.929z M45.643,23.773c-0.01-0.016-0.006-0.076,0.009-0.133c0.039-0.147,0.159-0.157,0.216-0.019c0.024,0.058,0.033,0.123,0.021,0.144C45.861,23.81,45.669,23.816,45.643,23.773z M22.948,23.531c-0.05-0.02-0.062-0.26-0.013-0.26c0.027,0,0.054-0.058,0.068-0.152c0.006-0.036,0.101-0.132,0.131-0.132c0.055,0,0.115-0.101,0.139-0.231c0.031-0.17,0.11-0.301,0.181-0.301c0.041,0,0.052,0.051,0.052,0.233c0,0.247-0.043,0.333-0.163,0.323c-0.049-0.004-0.071,0.021-0.079,0.092c-0.006,0.054-0.026,0.089-0.044,0.078c-0.018-0.011-0.033,0.027-0.033,0.086C23.188,23.497,23.101,23.593,22.948,23.531z M47.006,23.165c0-0.02-0.032-0.035-0.071-0.035c-0.039,0-0.071-0.024-0.071-0.053c0-0.029-0.021-0.053-0.048-0.053c-0.075,0-0.169-0.125-0.201-0.268c-0.025-0.11-0.015-0.154,0.058-0.27c0.048-0.076,0.1-0.131,0.115-0.121c0.015,0.009,0.057-0.022,0.092-0.07c0.058-0.077,0.092-0.087,0.309-0.087c0.149,0,0.243,0.015,0.243,0.038c0,0.04,0.09,0.143,0.123,0.141c0.094-0.006,0.124,0.008,0.143,0.07c0.014,0.044,0.054,0.071,0.105,0.071c0.084,0,0.126,0.059,0.126,0.179c0,0.083-0.158,0.238-0.311,0.304c-0.063,0.028-0.115,0.066-0.115,0.085s-0.063,0.035-0.14,0.035c-0.077,0-0.15,0.016-0.162,0.035c-0.012,0.02-0.061,0.035-0.109,0.035C47.045,23.2,47.006,23.184,47.006,23.165z M21.803,22.26c-0.035-0.042-0.035-0.075,0-0.16c0.024-0.059,0.055-0.106,0.069-0.106c0.037,0,0.144-0.24,0.144-0.322c0-0.09,0.104-0.251,0.146-0.226c0.017,0.011,0.032,0.002,0.032-0.021c0-0.022,0.036-0.035,0.08-0.029c0.056,0.008,0.078,0.033,0.072,0.082c-0.021,0.194-0.061,0.307-0.135,0.387c-0.045,0.048-0.1,0.145-0.123,0.214s-0.056,0.126-0.074,0.126s-0.033,0.024-0.033,0.053c0,0.065-0.041,0.068-0.105,0.009c-0.038-0.035-0.043-0.035-0.023,0C21.888,22.33,21.857,22.325,21.803,22.26z M28.606,22.26c-0.011-0.029-0.053-0.053-0.093-0.053s-0.072-0.016-0.072-0.035c0-0.02-0.041-0.035-0.091-0.035c-0.092,0-0.193-0.071-0.193-0.136c0-0.019-0.015-0.04-0.033-0.047s-0.038-0.035-0.044-0.064c-0.009-0.04,0.018-0.049,0.113-0.041c0.068,0.006,0.139,0.025,0.158,0.043c0.019,0.018,0.067,0.032,0.109,0.032s0.107,0.03,0.147,0.067c0.04,0.037,0.103,0.073,0.14,0.08c0.047,0.009,0.071,0.048,0.079,0.128c0.01,0.106,0.003,0.115-0.094,0.115C28.671,22.313,28.617,22.291,28.606,22.26z M37.031,17.975c0-0.08,0.093-0.137,0.202-0.124c0.072,0.008,0.1,0.031,0.1,0.082c0,0.058-0.027,0.073-0.151,0.082C37.07,18.023,37.031,18.013,37.031,17.975z M29.151,12.401c-0.023-0.068-0.064-0.124-0.091-0.124c-0.065,0-0.071-0.305-0.006-0.331c0.068-0.028-0.037-0.09-0.195-0.117c-0.118-0.02-0.133-0.034-0.133-0.126c0-0.06,0.015-0.095,0.035-0.082c0.02,0.013,0.035-0.019,0.035-0.075c0-0.053,0.018-0.198,0.039-0.321L28.874,11h0.32c0.314,0,0.319,0.002,0.3,0.08c-0.011,0.044-0.055,0.331-0.098,0.638c-0.043,0.307-0.092,0.559-0.109,0.559c-0.016,0-0.03,0.056-0.03,0.124c0,0.068-0.015,0.124-0.033,0.124C29.207,12.525,29.174,12.469,29.151,12.401z"/></svg>