<svg xmlns="http://www.w3.org/2000/svg"  viewBox="0 0 48 48" width="1600px" height="1600px"><path fill="#1976d2" d="M24,4C12.947,4,4,12.84,4,24s8.947,20,20,20s20-8.84,20-20S35.053,4,24,4z M24,41c-9.301,0-17-7.699-17-17S14.699,7,24,7c9.5,0,17,7.699,17,17S33.301,41,24,41z M30,37.699C28.199,38.5,26.102,39,24,39c-8.301,0-15-6.699-15-15S15.699,9,24,9c2.602,0,5,0.699,7.199,1.801L14,28v2h16V37.699z M34,12.801C37.102,15.5,39,19.5,39,24c0,0.699-0.102,1.301-0.102,2H34V12.801z M19,26l11-11v11H19z M37.699,30C36.801,32,35.5,33.699,34,35.199V30H37.699z"/></svg>