<svg xmlns="http://www.w3.org/2000/svg"  viewBox="0 0 48 48" width="1600px" height="1600px"><path fill="#9FA8DA" d="M41.9,15c-0.2-0.5-0.6-0.9-0.9-1.3c-1.2-1.4-2.1-3.3-3.3-4.7c-0.3,0-0.5,0-0.7,0.1c-0.4,0.1-1.7,0.5-3,0.9V8h-6l0.2,3.3C26.5,11.7,25,12,25,12V3l1-2l-6.9,0L20,3v11c-1,0.8-3.6,2.9-4,3V4l1-2h-7l1,2v13c0,0-0.4-0.1-0.6-0.2c-0.9-0.4-1.7-0.9-2.5-1.4c-0.3-0.2-0.6-0.4-0.8-0.7c0.7-0.4,1.1-1,1.8-1.4C9,13.3,9,13.1,9,13c-1.1,0.2-1.9,0.6-3,1v0.1c0.2,0.6,0.5,1.1,0.9,1.6c0.4,0.6,0.8,1.2,1.5,1.5c0.9,0.5,1.7,1.3,2.7,1.7v8l-1,2h7l-1-2v-8.1c1.4-0.3,2.8-1.3,4-2.2V29l-1,2h7l-1-2V14c0.3-0.2,1.7-0.6,3.3-1.1L29,23l-2-1l2,10l-2-1l3,16l1-10l1,2V29l2,2v-7.9c0.7,0.9,1.6,2,2,2.7c0.1,0.1,0.3,0.1,0.4,0.1c0.7-0.1,2-0.3,2.6-0.5c1-0.3,1.7-0.5,2.4-1.2c0,0,0.3-0.9,0.2-0.9c0.2-2.3,0.2-4.8,0.3-7.1C42,15.8,42.1,15.4,41.9,15z M37,23c0,0.1-0.9,1.2-1,1c-0.4-0.5-1.6-1.5-2-2V11.7c0.9-0.2,2-0.6,2.5-0.7c0,0,0.1,0,0.1,0c0.1,0,0.2,0,0.3,0.1c0.1,0.1,0.1,0.2,0.1,0.4c0.4,1.9,0.5,3.8,0.6,5.7c0,0.4,0,0.9,0.1,1.3C37.7,19.5,37,23,37,23z"/><path fill="#C5CAE9" d="M10,29l3-2l4,2H10z M26,31l-4-2l-3,2H26z"/><path fill="#5C6BC0" d="M17,2l-4,2l-3-2H17z M19,1l3,2l4-2H19z M28,8l3,2l3-2H28z"/><path fill="#7986CB" d="M10,2l3,2v23l-3,2l1-2v-8c-0.9-0.4-3.5-2-4.1-3.2c-0.3-0.5-0.6-1.1-0.9-1.6V14c1-0.5,1.8-0.9,3-1c0,0.1,0,0.3-0.1,0.3c-0.7,0.4-1.1,1-1.8,1.4c0.2,0.3,0.5,0.5,0.8,0.7c0.8,0.5,1.6,1,2.5,1.4C10.6,16.9,11,17,11,17V4L10,2z M20,3v11c-1,0.8-3.6,2.9-4,3v1c2.2-0.6,4-2.5,4-2.5v1.2V29l-1,2l3-2V3l-2.9-1.9L20,3z M28.2,11.3C26.5,11.7,25,12,25,12v1c0,0,1.5-0.5,3.3-0.9L29,23l-2-1l2,10l-2-1l3,16l-1-14l1,1V24l1,1V10l-3-2L28.2,11.3z M37,11l-0.4,0c0.1,0,0.4,0.1,0.4,0.1V23c0,0-0.9,1.2-1,1l0.5,0.3h0L39,23v-9L37,11z"/></svg>