<svg xmlns="http://www.w3.org/2000/svg"  viewBox="0 0 48 48" width="1600px" height="1600px"><path fill="#212121" d="M24,5C13.5,5,5,13.5,5,24s8.5,19,19,19s19-8.5,19-19S34.5,5,24,5z M24,31c-3.9,0-7-3.1-7-7s3.1-7,7-7 s7,3.1,7,7S27.9,31,24,31z"/><path fill="#64ffda" d="M24,44C13,44,4,35,4,24C4,13,13,4,24,4c11,0,20,9,20,20C44,35,35,44,24,44z M24,6 C14.1,6,6,14.1,6,24c0,9.9,8.1,18,18,18c9.9,0,18-8.1,18-18C42,14.1,33.9,6,24,6z"/><path fill="#64ffda" d="M24 36c-6.6 0-12-5.4-12-12 0-5.3 3.6-10.1 8.7-11.5.5-.2 1.1.2 1.2.7.2.5-.2 1.1-.7 1.2C17 15.6 14 19.5 14 24c0 5.5 4.5 10 10 10 5.5 0 10-4.5 10-10 0-4.5-3-8.4-7.3-9.6-.5-.2-.8-.7-.7-1.2.1-.5.7-.8 1.2-.7C32.4 13.9 36 18.7 36 24 36 30.6 30.6 36 24 36zM19 6v3.9c-.7.2-1.4.5-2 .9V6H19zM19 38.1V42h-2v-4.7C17.6 37.6 18.3 37.9 19 38.1zM31 6v4.7c-.6-.3-1.3-.6-2-.9V6H31zM31 37.3V42h-2v-3.9C29.7 37.9 30.4 37.6 31 37.3z"/></svg>