<svg xmlns="http://www.w3.org/2000/svg"  viewBox="0 0 48 48" width="1600px" height="1600px"><path fill="#fdd835" d="M25,20L6,39c0,0-1,0.25-2.142,1.352C2.793,41.38,2,46,2,46s4.625-0.79,5.651-1.857C8.75,43,9,42,9,42	l19-19L25,20z"/><path fill="#ffb300" d="M45.921,15c0,0-3.425,5.237-7.954,5.923L27.077,10.032C27.763,5.504,33,2.08,33,2.08	C32.501,2.028,32.012,2,31.5,2C23.662,2,17.268,8.227,17,16c1.758-1.252,3.678-2,6-2c0.012,0,0.251,0,0.587,0.001L34,24.413	c0,0.318,0,0.572,0,0.587c0,2.322-0.748,4.242-2,6c7.773-0.268,14-6.662,14-14.5C46,15.99,45.972,15.496,45.921,15z"/><circle cx="31" cy="17" r="8" fill="#fdd835"/><path fill="#ffb300" d="M27,26c-0.256,0-0.512-0.098-0.707-0.293l-4-4c-0.391-0.391-0.391-1.023,0-1.414s1.023-0.391,1.414,0	l4,4c0.391,0.391,0.391,1.023,0,1.414C27.512,25.902,27.256,26,27,26z"/><path fill="#ffb300" d="M25.625,27.375c-0.256,0-0.512-0.098-0.707-0.293l-4-4c-0.391-0.391-0.391-1.023,0-1.414	s1.023-0.391,1.414,0l4,4c0.391,0.391,0.391,1.023,0,1.414C26.137,27.277,25.881,27.375,25.625,27.375z"/><path fill="#6d4c41" d="M34.25,20.25c0,0-3.547,0.953-5.5-1s-1-5.5-1-5.5s3.547-0.953,5.5,1S34.25,20.25,34.25,20.25z"/><path fill="#ffb300" d="M35.375,21c-0.256,0-0.512-0.098-0.707-0.293l-0.553-0.553c-0.465-0.465-0.483-1.137-0.504-1.914	c-0.027-0.972-0.06-2.181-0.865-2.986s-2.015-0.838-2.986-0.865c-0.777-0.021-1.449-0.039-1.914-0.504l-0.553-0.553	c-0.391-0.391-0.391-1.023,0-1.414s1.023-0.391,1.414,0l0.438,0.438c0.157,0.021,0.447,0.028,0.67,0.034	c1.186,0.032,2.977,0.081,4.346,1.45s1.418,3.16,1.45,4.346c0.006,0.223,0.014,0.513,0.034,0.67l0.438,0.438	c0.391,0.391,0.391,1.023,0,1.414C35.887,20.902,35.631,21,35.375,21z"/><path fill="#ffb300" d="M34,22.375c-0.256,0-0.512-0.098-0.707-0.293l-0.438-0.438c-0.157-0.021-0.447-0.028-0.67-0.034	c-1.186-0.032-2.977-0.081-4.346-1.45s-1.418-3.16-1.45-4.346c-0.006-0.223-0.014-0.513-0.034-0.67l-0.438-0.438	c-0.391-0.391-0.391-1.023,0-1.414s1.023-0.391,1.414,0l0.553,0.553c0.465,0.465,0.483,1.137,0.504,1.914	c0.027,0.972,0.06,2.181,0.865,2.986s2.015,0.838,2.986,0.865c0.777,0.021,1.449,0.039,1.914,0.504l0.553,0.553	c0.391,0.391,0.391,1.023,0,1.414C34.512,22.277,34.256,22.375,34,22.375z"/><path fill="#ffb300" d="M10,43c-0.256,0-0.512-0.098-0.707-0.293l-4-4c-0.391-0.391-0.391-1.023,0-1.414s1.023-0.391,1.414,0	l4,4c0.391,0.391,0.391,1.023,0,1.414C10.512,42.902,10.256,43,10,43z"/><path fill="#ffb300" d="M11.375,41.625c-0.256,0-0.512-0.098-0.707-0.293l-4-4c-0.391-0.391-0.391-1.023,0-1.414	s1.023-0.391,1.414,0l4,4c0.391,0.391,0.391,1.023,0,1.414C11.887,41.527,11.631,41.625,11.375,41.625z"/><circle cx="31" cy="17" r="1.25" fill="#ffb300"/></svg>