<svg xmlns="http://www.w3.org/2000/svg"  viewBox="0 0 48 48" width="1600px" height="1600px"><path fill="#fbc02d" d="M27.5,27.5c-10.9,11-19.2,8.9-24.1,6.4c0,0,0.9,3.4,4.4,6.8c3.6,3.5,13.4,9.6,28-5s8.5-24.4,5-28 C37,4,33.8,3.4,33.8,3.4S44.6,10.4,27.5,27.5z"/><path fill="#ffe57f" d="M35.7,35.7c16.2-16.2,1.2-30.3,1.5-25.8c0.1,2.4-0.6,5.6-3.1,9.6C32.6,21.8,48.2,20.4,35.7,35.7z"/><path fill="#ffd600" d="M14.3,42.8c-0.3,0-0.5-0.2-0.5-0.5c0-0.3,0.2-0.5,0.5-0.5c2.7-0.1,5.4-0.8,7.8-2.1 c0.2-0.1,0.2-0.2,0.3-0.7c0-0.1,0-0.2,0-0.3c0.2-1.6,0.9-2.6,1.9-2.8c0.3-0.1,0.5,0.1,0.6,0.4c0.1,0.3-0.1,0.5-0.3,0.6 c-0.5,0.1-0.8,0.6-0.7,1c0,0.2,0.2,0.4,0.4,0.4c0.1,0,0.3,0.1,0.4,0c0.3-0.2,0.3-0.7,0.3-1.3c0.1-1.6,0.8-3.3,2.3-3.6 c0.3-0.1,0.5,0.1,0.6,0.4c0.1,0.3-0.1,0.5-0.4,0.6c-0.2,0-0.4,0.2-0.5,0.4c-0.1,0.2-0.1,0.4,0,0.6c0.1,0.2,0.3,0.3,0.5,0.3 c0.2,0,0.3,0,0.5-0.1c0.1-1.1,0.4-2.2,0.9-3.1c0.3-0.5,0.6-0.9,0.9-1.1c0.2-0.2,0.5-0.3,0.8-0.3c0.3,0,0.5,0.2,0.5,0.5 c0,0.3-0.2,0.5-0.4,0.5c-0.1,0-0.2,0-0.3,0.1c0,0-0.1,0.1-0.1,0.1c-0.1,0.2-0.1,0.4,0,0.5c0.1,0.2,0.3,0.3,0.4,0.3 c0.2,0.1,0.5,0,0.7-0.1c0.4-0.3,0.6-0.8,0.6-1.4c0-0.2,0-0.3,0-0.5c0-0.2,0-0.4,0-0.7c0-1.2,0.8-2.3,1.8-2.7c0.2-0.1,0.5,0,0.6,0.2 c0.1,0.2,0,0.5-0.2,0.7c-0.5,0.3-0.9,0.9-0.6,1.3c0.1,0.1,0.3,0.2,0.4,0.2c0.3,0,0.6-0.1,0.7-0.2c0.3-0.3,0.5-0.9,0.5-1.6 c0-0.2,0-0.4,0-0.6c0-0.5,0-1.1,0.1-1.6c0.1-0.3,0.2-0.7,0.4-1c0.3-0.5,0.7-0.8,1.3-0.9c0.3,0,0.5,0.1,0.6,0.4 c0,0.3-0.1,0.5-0.4,0.6c-0.2,0-0.5,0.2-0.6,0.4c0,0.1-0.1,0.2-0.1,0.2c0,0.1,0.1,0.3,0.2,0.4c0,0,0.2,0.1,0.3,0.1 c0.2,0,0.4-0.3,0.5-0.6c0.3-0.7,0.3-1.4,0.1-2.1l-0.1-0.2c-0.1-0.2-0.2-0.4-0.2-0.6c-0.1-0.6,0.2-1.1,0.5-1.6 c0.2-0.4,0.5-0.6,0.9-0.8c0.2-0.1,0.5,0,0.6,0.2c0.1,0.2,0.1,0.5-0.1,0.6c-0.2,0.2-0.4,0.3-0.5,0.5c0,0,0,0.1,0,0.1 c0,0.2,0,0.4,0.2,0.5c0.2,0.3,0.6,0.3,0.8,0c0,0,0.1-0.2,0-0.4c-0.1-0.2,0-0.5,0.2-0.7c0.2-0.1,0.5,0,0.7,0.2 c0.2,0.4,0.2,0.9-0.1,1.3c-0.4,0.7-1.3,0.9-1.9,0.6c0.3,0.9,0.2,1.8-0.1,2.7c-0.3,0.7-0.7,1.1-1.2,1.2c-0.3,0.1-0.7,0-1-0.2 c0,0.2,0,0.4,0,0.6c0,0.2,0,0.4,0,0.7c0,1-0.3,1.8-0.8,2.4c-0.4,0.4-1,0.6-1.6,0.5c-0.4,0-0.7-0.2-0.9-0.5c0,0.1,0,0.2,0,0.4 c0,0.2,0,0.4,0,0.6c0,0.9-0.4,1.8-1.1,2.2c-0.4,0.3-1,0.4-1.5,0.3c-0.4-0.1-0.8-0.3-1-0.6c-0.3,0.7-0.5,1.5-0.5,2.3 c0,0.1,0,0.2-0.1,0.3c-0.3,0.4-0.9,0.6-1.4,0.5c-0.6-0.1-1-0.4-1.3-0.8c0,0,0,0,0,0c-0.1,0.3-0.2,0.7-0.2,1c0,0.8-0.1,1.6-0.7,2.1 c-0.4,0.3-0.9,0.3-1.4,0.2c-0.2-0.1-0.4-0.2-0.6-0.4l0,0.2c-0.1,0.5-0.1,1.1-0.8,1.5C20.1,42,17.2,42.8,14.3,42.8 C14.4,42.8,14.3,42.8,14.3,42.8z"/><path fill="#e5a820" d="M3.4,33.9c0,0,0.9,3.4,4.4,6.8c3.6,3.5,13.4,9.6,28-5C24.1,47.3,8.7,39.2,3.4,33.9z"/><path fill="#d8991d" d="M5.1,35.6c2.5,1.3,5,2.6,9,1.4c-3.1-3.1-0.5-10.8,5.8-17.1c6.3-6.3,14-8.9,17.1-5.8 c1.2-4-0.2-6.4-1.4-8.9c0.4,0.2-7.1-6-21.1,8C0.5,27.1,5.3,35.9,5.1,35.6z"/><path fill="#ba7d13" d="M37,14.1c1.2-4-0.2-6.4-1.4-8.9c0.3,0.2-7.1-6-21.1,8c-4.2,4.2-6.7,8-8.2,11.1C15,15.5,29,6,37,14.1 z"/><path fill="#ffd600" d="M12.8 12.7C4 21.5.5 32 4.9 36.4c4.4 4.4 14.9.8 23.7-7.9S40.8 9.2 36.4 4.9C32.1.5 21.5 4 12.8 12.7zM35.4 14.4c-1.4 4.2-4.4 8.7-8.4 12.7s-8.5 7-12.7 8.4c-3.6 1.2-6.6 1-8.1-.5-1.5-1.5-1.7-4.5-.5-8.1 1.4-4.2 4.4-8.7 8.4-12.7 4-4 8.5-7 12.7-8.4 3.6-1.2 6.6-1 8.1.5C36.5 7.8 36.7 10.8 35.4 14.4zM31.7 36.9c-.2 0-.3-.1-.4-.2-.2-.2-.1-.5.1-.7.8-.6 1.2-1.8 1.1-3.2 0-.5-.1-1-.2-1.6-.1-.8-.3-1.6-.3-2.5 0-1.5.6-2.9 1.6-4.1.2-.2.5-.2.7-.1.2.2.2.5.1.7-.8.9-1.3 2.2-1.3 3.4 0 .8.1 1.5.3 2.3.1.5.2 1.1.2 1.7.2 1.8-.4 3.3-1.5 4.1C31.9 36.9 31.8 36.9 31.7 36.9z"/><path fill="#ffc107" d="M8.5,32c-0.5,0-0.9-0.2-1.2-0.6C7.1,31,7,30.5,7.2,30.1c0.2-0.5,0.5-0.8,0.9-0.9 c0.3-0.1,0.5,0.1,0.6,0.3c0.1,0.3-0.1,0.5-0.3,0.6c-0.1,0-0.2,0.1-0.3,0.3c-0.1,0.1,0,0.3,0,0.4c0.1,0.2,0.6,0.2,0.7,0 C9,30.7,9,30.4,9,30.1c0-0.4-0.1-0.8-0.2-1.2c-0.1-0.4-0.2-0.9-0.3-1.4c-0.1-1,0.2-2.2,1.2-2.8c0.2-0.1,0.5-0.1,0.6,0.1 c-0.2-1.7,0.6-3.4,1.9-4.4c0.1-0.1,0.2-0.2,0.3-0.2c0.2-0.1,0.5,0,0.7,0.2c0.1,0.2,0.1,0.5-0.2,0.7c-0.1,0-0.1,0.1-0.2,0.1 c-0.3,0.2-0.6,0.6-0.6,1c0,0.2,0.2,0.4,0.3,0.4c0.1,0,0.2,0.1,0.3,0c0.1-0.1,0.2-0.4,0.2-0.5c0.1-0.4,0.1-0.7,0.2-1.1 c0.1-0.6,0.2-1.2,0.4-1.8c0.3-0.7,0.8-1.5,1.6-1.8c0.4-0.2,0.8-0.3,1.2-0.2c0.1,0,0.2,0.1,0.2,0.1c0.1-0.4,0.2-0.7,0.3-1.1 c0.5-1.2,1.2-2,2.2-2.3c0.3-0.1,0.7-0.1,0.9,0.1c0.1-0.5,0.3-1.2,0.7-1.7c0.5-0.6,1.4-1,2.2-0.6c0.2,0.1,0.3,0.4,0.2,0.6 c-0.1,0.2-0.4,0.4-0.6,0.3c-0.1,0-0.3,0-0.4,0c-0.1,0.1-0.2,0.2-0.3,0.3c0,0.1,0,0.3,0.1,0.4c0.1,0.1,0.2,0.2,0.3,0.3 c0.1,0,0.3,0,0.4-0.1c0.1-0.1,0.2-0.2,0.2-0.3c0.1-0.3,0.3-0.4,0.6-0.4c0.3,0.1,0.4,0.3,0.4,0.6c-0.1,0.4-0.3,0.7-0.7,1 c-0.4,0.2-0.8,0.3-1.2,0.2c-0.4-0.1-0.7-0.4-0.9-0.7C21.1,14,21,14.2,21,14.4c-0.1,0.6-0.3,1.3-0.7,1.9c-0.1,0.1-0.2,0.3-0.5,0.4 c-0.2,0.1-0.4,0.1-0.7,0c-0.4-0.1-0.7-0.4-0.9-0.8c-0.1,0.2-0.2,0.4-0.3,0.6c-0.2,0.4-0.3,0.9-0.4,1.4c-0.1,0.4-0.2,0.9-0.4,1.3 c-0.1,0.2-0.2,0.4-0.4,0.6c-0.3,0.2-0.6,0.3-1,0.2c-0.4-0.1-0.7-0.3-0.9-0.7c0,0,0-0.1-0.1-0.1c0,0.1-0.1,0.1-0.1,0.2 c-0.2,0.5-0.2,1-0.3,1.6c-0.1,0.4-0.1,0.8-0.2,1.2c-0.1,0.4-0.2,0.8-0.6,1.1c-0.4,0.3-0.8,0.3-1.3,0.1c-0.3-0.1-0.5-0.3-0.7-0.6 c-0.2,0.6-0.3,1.3-0.2,2c0,0.1,0.1,0.2,0.1,0.4c0.1,0.3,0.1,0.6,0.2,0.9c0,0.6-0.2,1.2-0.7,1.5c-0.3,0.2-0.8,0.3-1.2,0.1 c-0.1,0-0.1,0-0.2-0.1c0,0.3,0.1,0.6,0.2,0.9C9.9,29,10,29.5,10,30c0,0.4,0,0.9-0.3,1.4C9.5,31.7,9,32,8.5,32z M10.4,25.2 c0,0.1-0.1,0.2-0.2,0.3c-0.4,0.2-0.6,0.6-0.5,1c0,0.1,0.2,0.3,0.3,0.4c0.1,0,0.2,0.1,0.3,0c0.2-0.1,0.2-0.4,0.2-0.6 c0-0.2-0.1-0.5-0.1-0.7C10.5,25.4,10.5,25.3,10.4,25.2z M15.8,18.2c-0.1,0.1-0.2,0.2-0.2,0.3c0,0.1,0,0.3,0.1,0.4 c0.1,0.1,0.2,0.2,0.3,0.2c0.1,0,0.1,0,0.2,0c0,0,0-0.1,0.1-0.2c0.1-0.3,0.2-0.5,0.2-0.8c-0.1,0-0.1,0-0.2,0 C16.1,18.1,16,18.1,15.8,18.2z M19.6,14.8c-0.2,0-0.4,0.1-0.5,0.3c-0.1,0.2,0.1,0.5,0.3,0.5c0.2-0.3,0.3-0.6,0.4-0.9 C19.8,14.9,19.7,14.9,19.6,14.8C19.7,14.9,19.6,14.8,19.6,14.8z"/><path fill="#ffc107" d="M11,31.2c-0.2,0-0.3-0.1-0.4-0.2c-0.1-0.2-0.1-0.5,0.2-0.7c0.3-0.2,0.5-0.5,0.5-1 c0.1-0.5,0-0.9-0.2-1.4c-0.1-0.3-0.2-0.7-0.2-1c-0.3-1.1-0.5-2.2-0.6-3.3c-0.1-1.2,0-3,1-4.4c0.2-0.2,0.5-0.3,0.7-0.1 c0.2,0.2,0.3,0.5,0.1,0.7c-0.9,1.2-0.9,2.7-0.8,3.8c0.1,1,0.3,2,0.6,3.1c0.1,0.3,0.2,0.7,0.2,1c0.1,0.6,0.2,1.2,0.2,1.8 c-0.1,0.8-0.5,1.4-1,1.7C11.1,31.2,11.1,31.2,11,31.2z"/></svg>