<svg xmlns="http://www.w3.org/2000/svg"  viewBox="0 0 48 48" width="1600px" height="1600px"><path fill="#90A4AE" d="M22.6,28.1l-6.3-2.1l0.6-1.9l6.3,2.1L22.6,28.1z M32,47v-1c0-1.1-0.9-2-2-2c0,0-9-0.5-9-2s-2-1.5-2,0s-9,2-9,2c-1.1,0-2,0.9-2,2v1c0,0,0,1,12,1S32,47,32,47z M29,0c5.5,0,10,4.5,10,10s-4.5,10-10,10s-10-4.5-10-10S23.5,0,29,0L29,0z"/><path fill="#455A64" d="M21,41v-2c0-0.5-0.5-1-1-1s-1,0.5-1,1v2c-0.5,0-1,0.5-1,1s0.5,1,1,1h2c0.5,0,1-0.5,1-1S21.5,41,21,41z"/><path fill="#546E7A" d="M26.7,34.2l-5.6-3.7l5.5-5.6c0.1-0.1,0.2-0.3,0.3-0.5l0.8-4.4c-0.7-0.1-1.3-0.2-1.9-0.5l-0.8,4.2l-5.9,6l-1.8,0.2l1-4.6l6.8-6.1c-0.7-0.3-1.3-0.6-1.8-1l-6.9,6.1c-0.1,0.1-0.2,0.2-0.2,0.3l-4,8c0,0,0,0.1,0,0.1c0,0.1-0.1,0.1-0.1,0.2c0,0,0,0.1,0,0.1c0,0.1,0,0.1,0,0.2c0,0,0,0.1,0,0.1c0,0.1,0,0.1,0.1,0.2c0,0,0,0.1,0.1,0.1c0,0,0,0.1,0.1,0.1c0,0,0,0,0,0c0,0,0,0,0.1,0.1l7,6c0.2,0.2,0.4,0.2,0.7,0.2c0.2,0,0.4-0.1,0.5-0.2l6.1-4c0.3-0.2,0.5-0.5,0.5-0.8S27,34.4,26.7,34.2z M19.9,37.6L15,33.4l4.4-1.6l3.4,2.2L19.9,37.6z"/><path fill="#FFECB3" d="M29,2c-4.4,0-8,3.6-8,8c0,4.4,3.6,8,8,8s8-3.6,8-8C37,5.6,33.4,2,29,2z"/><path fill="#FFF" d="M29 6A4 4 0 1 0 29 14A4 4 0 1 0 29 6Z"/></svg>