<svg xmlns="http://www.w3.org/2000/svg"  viewBox="0 0 48 48" width="1600px" height="1600px"><path fill="#ffecb3" d="M31.5,9.5c-4,4-5.7,8.8-3.7,10.7c1.9,1.9,6.7,0.2,10.7-3.7s5.7-8.8,3.7-10.7 C40.3,3.9,35.5,5.6,31.5,9.5z"/><path fill="#fff" d="M30.2,13.8c0.6,0.5,1.4,0.7,2.3,0.7c2.2,0,4-1.8,4-4c0-0.9-0.3-1.6-0.7-2.3c-1,0.6-2,1.5-3.1,2.5 C31.7,11.8,30.9,12.8,30.2,13.8z"/><path fill="#90a4ae" d="M21,25h-7v-2h7V25z M29,47v-1c0-1.1-0.9-2-2-2c0,0-9-0.5-9-2s-2-1.5-2,0s-9,2-9,2c-1.1,0-2,0.9-2,2 v1c0,0,0,1,12,1S29,47,29,47z M38.4,16.4C35.6,19.3,32.3,21,30,21c-0.8,0-1.5-0.2-2.1-0.7c0,0,0,0-0.1-0.1c0,0,0,0-0.1-0.1 c-0.1-0.1-0.3-0.3-0.4-0.5c-4.5-5.9,1-7.2-5.1-13.1c0,0,0,0-0.1-0.1c-0.7-0.9,0-2.9,1.7-4.6s3.8-2.5,4.7-1.7 c6,5.9,8.8,0.3,13.7,5.6C44,7.9,42.4,12.5,38.4,16.4z M40.8,7.2C40.7,7.1,40.4,7,40,7c-1.5,0-4.3,1.2-7.1,4c-1.7,1.7-3,3.7-3.6,5.4 c-0.5,1.4-0.4,2.3-0.1,2.5c0.1,0.1,0.4,0.2,0.8,0.2c1.5,0,4.3-1.2,7.1-4C40.8,11.3,41.4,7.8,40.8,7.2z"/><path fill="#455a64" d="M17,43c-0.6,0-1-0.5-1-1v-3c0-0.5,0.4-1,1-1c0.5,0,1,0.5,1,1v3C18,42.5,17.6,43,17,43z"/><path fill="#455a64" d="M18,43h-2c-0.5,0-1-0.5-1-1s0.4-1,1-1h2c0.5,0,1,0.5,1,1S18.6,43,18,43z"/><path fill="#546e7a" d="M18.3 28.9l5.5-7.3c.2-.2.2-.5.2-.8l-1.1-7 2.6-1.8c-.1-.6-.2-1.3-.6-2.1l-4.5 3.2c-.1.1-.2.1-.2.2l-8 10v.1c0 .1-.1.2-.1.2s0 0 0 .1l-2 9c-.1.3 0 .7.3.9l6 6c.2.2.4.3.7.3.2 0 .4-.1.5-.2l6.1-4c.3-.2.4-.4.4-.7s-.1-.6-.3-.8L18.3 28.9zM14 24.4l7.1-8.9.8 5.3-5.6 7.5L14 29.4V24.4zM16.9 37.5l-4.3-4.3 4.4-2.8 3.2 3.1L16.9 37.5zM25.7 7.7c-.3 0-.5-.1-.7-.3l-1-1c-.4-.4-.4-1 0-1.4s1-.4 1.4 0l1 1c.4.4.4 1 0 1.4C26.2 7.6 26 7.7 25.7 7.7zM28.7 4.7c-.3 0-.5-.1-.7-.3l-1-1c-.4-.4-.4-1 0-1.4s1-.4 1.4 0l1 1c.4.4.4 1 0 1.4C29.2 4.6 29 4.7 28.7 4.7z"/></svg>