<svg xmlns="http://www.w3.org/2000/svg"  viewBox="0 0 48 48" width="1600px" height="1600px"><path fill="#212121" d="M39.047,15.053v1.652c-0.241-0.063-0.486-0.116-0.741-0.139c-0.71-0.07-1.492-0.106-2.305-0.106 c-3.036,0-6.196,0.509-8.14,0.985c-0.955,0.229-1.737,0.814-2.212,1.641L22,18.333v0.625l-4-0.875v3.625l-4.901-0.256l-0.311-1.424 l-0.416-1.902L0,20.514l1.922,13.479l5.22-0.807c0,0,4.206-0.727,11.858-0.727c4.724,0,7.944,0.368,7.944,0.368S32,33.458,35,33.458 c1.86,0,3.648-0.176,5.296-0.536C44.125,32.083,48,31.004,48,31.004v-14.28L39.047,15.053z"/><path fill="#212121" d="M16.55,8.111c0,0-1.037-1.111-1.037-1.111c-0.444,0.991-0.769,1.87-1.794,2.395 c-0.703,0.36-1.473,0.468-2.225,0.674c-0.665,0.182-1.319,0.401-1.945,0.689c-1.014,0.467-1.97,1.12-2.629,2.035 c-0.247,0.342-0.448,0.717-0.596,1.112c-1.255,3.352,1.772,7.047,1.901,7.202l0.62,0.746l0.774-0.594 c0.002-0.001,0.917-0.665,2.452-0.77c1.885-0.129,2.929-0.248,4.242-1.337c1.808-1.5,2.688-3.107,2.688-4.912 C19,10.775,16.65,8.218,16.55,8.111z"/><path fill="#689f38" d="M9,20.491c-0.085,0.065-1.233-1.965-1.293-2.095c-0.615-1.319-0.977-2.89-0.393-4.286 c0.356-0.851,1.025-1.516,1.796-2.003c1.261-0.798,2.684-1.019,4.081-1.465c0.079-0.025,0.157-0.051,0.235-0.078 c0.92-0.321,1.945-0.877,2.387-1.795c1.115,1.327,1.94,2.942,2.142,4.681C17.984,13.711,18,13.975,18,14.239 c0,1.693-0.979,3.043-2.335,4.168c-1.04,0.863-1.768,0.977-3.665,1.107C10.104,19.644,9.001,20.49,9,20.491z"/><path fill="#ffca28" d="M9,19.514c0,0-1.959-6.837,3-6.837c2.25,0,4,0.977,4,2.93S13,18.537,9,19.514z"/><path fill="#e65100" d="M8.948,19.514c0,0-0.948-5.861,2.594-5.861C13,13.653,14,14.63,14,15.607 C14,17.281,11.875,18.659,8.948,19.514z"/><path fill="#1e88e5" d="M12.561,15.059c1.439,1.524-1.536,2.644-2.121,2.072c-0.586-0.572-0.586-1.5,0-2.072 C11.025,14.487,11.999,14.464,12.561,15.059z"/><path fill="#212121" d="M11.905,15.598c-0.305-0.298-0.868-0.23-1.259,0.152c-0.391,0.381-0.46,0.932-0.155,1.23 c0.305,0.298,0.868,0.23,1.259-0.152S12.21,15.896,11.905,15.598z"/><path fill="#1e88e5" d="M46 18.387L46 29.53 43.938 30.168 43.938 20.102 42.062 20.083 42.071 17.657zM39 28.458c0 0 .125.375.875 2.5-3.479.674-6.8.444-8.499.241-.48-.825-2.475-4.088-.022-4.72 2.506-.646 3.854-1.021 6.481-1.845.675-.212 1.33-1.842-.247-2.872 0 0-1.108-1.544-7.018-.95l.616 1.069-2.833.595c0 0-1.972-1.929.73-2.726 1.917-.565 4.829-1.002 8.5-1.042.42-.005 1.276.014 1.585.208 2.422 1.518 1.744 7.122 1.744 7.122s-.027.917-2.586 1.307c-3.202.488-3.25.512-4.327.738 0 .375 0 .375 0 .875C39 28.458 39 28.458 39 28.458z"/><path fill="#e65100" d="M29.125 23.708l.25 1.625-1.011.125L28 22.833l.938-.117L29 22.973l.909-.343c0 0 .616-.226.727.257C30.795 23.578 31 25.201 31 25.201l-.909.086-.182-1.629C29.909 23.658 29.852 23.365 29.125 23.708zM33.45 21.958L31 22.298l.37 2.66 2.64-.26L33.45 21.958zM32.03 24.448l-.28-1.55h.85l.28 1.46L32.03 24.448zM34.125 23.549L34.125 24.458 35 24.458 35 23.458z"/><g><path fill="#ffca28" d="M12 26.598l-1.35-6.14L2 22.118l1.375 9.59 3.25-.5-.5-3.25L7 27.583l1.5 3.375 3-.25-2.07-3.47L12 26.598zM8 25.958l-2.25.625L5 23.778l3.02-.65L8 25.958zM18.51 23.698L13 23.458c0 0 0 5.25 0 7.125 2.5-.25 6-.25 6-.25L18.51 23.698zM16.85 29.458h-2.23l-.33-3.99 2.71.11L16.85 29.458zM20 20.458L20 30.333 23 30.458 24 28.458 22 28.458 22 20.708zM24 20.833L24 30.583 27 30.833 28 28.458 26 28.458 26 21.208zM41 17.458L41 21.173 43 21.173 43 30.458 43.938 30.168 43.938 20.102 42.062 20.083 42.071 17.657zM34 19.099c-1.208.114-2.203.266-4.5.719-1.094.234-1.746.881-1.422 1.875l.275.783-1.103.232c0 0-.99-2.85.98-3.32 1.97-.48 6.16-1.19 9.85-.83.42.037.778.165 1.086.359C36.092 18.962 35.881 18.922 34 19.099zM36.938 25.552c-2.451.633-2.453.625-2.453.625-1.863.462-1.857.467-2.938.688-1.203.312-1.049 1.282-.961 1.643.5 1.672.711 2.138.791 2.693-.743-.089-1.176-.172-1.176-.172l-.86-2.61c0 0-.74-1.9 1.72-2.5 2.47-.59 6.28-1.54 6.28-1.54s1.73-.72.25-2.62c0 0 .473.087.938.649C39.812 23.958 38.328 25.193 36.938 25.552z"/></g></svg>