<svg xmlns="http://www.w3.org/2000/svg"  viewBox="0 0 48 48" width="1600px" height="1600px"><path fill="#FF1744" d="M13,20h-3c0,0,0-1.9,0-2.5c0-0.6-0.1-1.3-0.2-1.9c-0.1-0.4-0.2-0.8-0.4-1.1C9.1,14.2,8.6,14,8.2,14c-1-0.1-2,0.3-2.6,1.1c-0.5,0.7-0.6,1.7-0.4,2.5c0.4,1.4,1.1,2.6,2.4,3.2C8.5,21,10,21,10,21s-0.1,0.6,0,1c0.1,0.9,0.6,1.1,1.2,1.7c0.2,0.2,0.4,0.4,0.6,0.6c2.3,2.1,2.6,4.7,1.8,7.6c-0.8,2.6-2.9,4.9-5.7,5.1c-1.4,0.1-2.8-0.4-4-1.2c-1.2-0.8-2.1-2-2.6-3.4C1,31.7,1,31,1,30.3c0-2.3-0.6-2.4-1-2.7c0.9-0.8,2-0.7,2.5,0c0.7-0.8,1.9-0.7,2.5,0c-0.9,1.1-0.9,1.9-0.9,3.2c0,1.7,1.5,3.1,3.1,3.2c0.4,0,0.8-0.1,1.1-0.3c1.7-0.9,1.4-3.5,0.8-5.1C8.9,28,8,26.9,7.2,26.4C6.7,26.1,5,26,5,26c-0.1-0.8-0.3-1.2-0.8-1.7c-0.4-0.4-0.7-0.8-1.1-1.1C1.6,22,1,20.5,0.8,18.7c-0.1-1.3,0.1-2.5,0.5-3.7c0.3-0.9,0.8-1.6,1.5-2.2C4,11.7,5.4,11.2,7.1,11c0.8-0.1,1.6,0.1,2.3,0.5c0.6,0.3,0.9,0.7,1.5,1.1c0.3,0.2,0.5,0.2,0.7,0c0.1-0.1,0.3-0.2,0.5-0.3c0.4-0.2,0.8-0.1,0.8,0.4c0.1,0.5,0.1,1,0.1,1.5C13,16.1,13,20,13,20z M46.5,34c-0.4-2.7-0.9-5.3-1.3-8c-0.1-0.7,0-1.3,0.4-1.8c0.2-0.3,0.3-0.5,0.5-0.8c-0.3-0.3-0.6-0.5-0.8-0.8c-0.5-0.6-1-1.2-1.1-2c-0.3-2.2-0.7-4.5-0.9-6.7c0-0.4-0.1-1.8,0.8-2.5c-1.3-0.8-2.9,0.1-3.3,0.8c-0.7-0.6-1.4-0.9-2.3-0.9c-0.8,0-1.4,0.2-1.9,0.9c1.2,0.4,1,1.8,0.9,2c-0.4,2-0.9,4.1-1.3,6.1c-0.2,1-0.7,1.9-1.5,2.5c-0.2,0.2-0.5,0.4-0.7,0.7c0.3,0.4,0.5,0.8,0.7,1.2c0.2,0.4,0.4,0.9,0.2,1.3c-0.3,1.4-0.6,2.7-0.9,4.1c-0.4,2-1.4,5.8-3,6c1.3,1.7,3,0.7,3.4,0.3c0.7,1.1,2.7,0.7,3-0.3c-0.6-0.3-0.9-1.3-0.8-2.2c0.2-1.4,1-4.5,1-4.9h3.8c0,0.4,0.6,3,0.8,3.8C42.6,34,42.8,35,42,36c0.6,0.9,1.8,1.2,2.7,0.4c1.7,1.4,2.9,0.1,3.3-0.4C47.7,35.8,46.8,35.7,46.5,34z M38,26c0.1-0.4,1.5-6.7,2-7c0.3,1.5,0.5,2,0.6,3.5c0.1,1,0.4,3.3,0.4,3.5H38z"/><path fill="#D7CCC8" d="M33,19.7c0-5.7-5.4-8.7-9-8.7c-3.6,0-9,3.2-9,8.7c0,1,0.4,1.8,1,2.4V28c0,1.1,1,2,2.1,2c0,0,0.5,0,1.9,0c1,0,0,2.8-0.6,4.2c-0.2,0.5,0,1,0.5,1.2C20.7,35.7,22,36,24,36c2,0,3.4-0.3,4.1-0.6c0.5-0.2,0.7-0.7,0.5-1.2C28.1,32.8,27,30,28,30c1.3,0,1.8,0,1.8,0c1.2,0,2.2-0.9,2.2-2v-5.9C32.7,21.5,33,20.7,33,19.7z"/><path fill="#5D4037" d="M26.5,22c0,0,3,0.2,3.7,0.6c0.8,0.4,0.8,1,0.8,1.9c0,0,0.3,3.5-1.9,3.5c-2.5-0.1-4.1-2.7-4.1-4.3v0C25,22.7,25.7,22,26.5,22z M21.5,22c0,0-3,0.2-3.7,0.6c-0.8,0.4-0.8,1-0.8,1.9c0,0-0.3,3.5,1.9,3.5c2.5-0.1,4.1-2.7,4.1-4.3v0C23,22.7,22.3,22,21.5,22z M24,27c0,0-2-0.1-2,4c0,0.6,0.4,1,1,1s1-0.5,1-1c0,0.5,0.4,1,1,1s1-0.4,1-1C26,31,25.9,27,24,27z"/></svg>