<svg xmlns="http://www.w3.org/2000/svg"  viewBox="0 0 48 48" width="1600px" height="1600px"><path fill="#455A64" d="M40.5,26.6c-2.3-0.8-4.5-1.5-6.8-2.2c-1.5-0.5-5.1-1.4-5.1-1.4s6.1,0.1,8.5,0.2c0.3,0,0.7,0,1,0c1.1-0.1,1.5-0.3,1.6-1.5c0.2-1.5,0.3-3,0.3-4.6c0-3.7-1.2-6.7-2.6-10.1C37,6.1,36,4,36,4s0.9,3.5,1.4,9.4c0.2,2,0.3,3.7-0.1,5.7c-0.4,1.6-0.9,1.9-2.5,1.9c-0.8,0-1.9,0-2.8,0c0.1-0.3,2-1.1,2-4c0-3.6-1.2-7.3-2.6-10.7C31,5.2,29.3,2.3,29,2c0.2,1.3,0.4,2.5,0.6,3.8c0.6,3.8,1.8,7.8,1.4,11.7c-0.4,2.5-1.3,2.8-2,2.8c-0.9,0-2.2-0.2-3.3-0.3c1.3-0.9,2.2-2.7,2.2-4.8c0-2.9-1.7-5.3-3.9-5.3s-3.9,2.4-3.9,5.3c0,2.1,0.9,3.9,2.2,4.8c-1.1,0.1-2.4,0.3-3.3,0.3c-0.7,0-1.6-0.3-2-2.8c-0.4-3.9,0.9-7.9,1.4-11.7C18.6,4.5,18.8,3.3,19,2c-0.3,0.3-2,3.2-2.4,4.3C15.2,9.7,14,13.4,14,17c0,2.9,1.9,3.7,2,4c-0.9,0-2,0-2.8,0c-1.6,0-2.2-0.3-2.5-1.9c-0.4-2-0.3-3.7-0.1-5.7C11.1,7.5,12,4,12,4s-1,2.1-1.4,3C9.1,10.4,8,13.5,8,17.1c0,1.5,0.1,3.1,0.3,4.6c0.1,1.2,0.5,1.4,1.6,1.5c0.3,0,0.7,0.1,1,0c2.5-0.1,8.5-0.2,8.5-0.2s-3.6,0.9-5.1,1.4c-2.3,0.7-4.6,1.4-6.8,2.2c-1.3,0.5-1.7,1-1.5,2.5c0.1,1,0.2,2.1,0.5,3.1c1.2,4.4,2.9,8.3,5.3,12.1c0.4,0.6,0.8,1.2,1.2,1.8c-0.8-3-3.7-10.5-3.7-15.4c0-0.6-0.1-1.2,0.4-1.6c1-0.9,2.3-1.2,3.5-1.5c-0.1,0.8-0.3,1.6-0.3,2.4c0,1.1,0,1.8,0.2,2.8C14,36.8,15.9,40.5,18,44c0,0,0.1,0,0.1,0.1c-0.7-2.9-1.4-5.8-1.9-8.7c-0.4-2.2-0.7-4.1-0.4-6.4c0.3-2.6,2.8-3,2.8-2.9c0,0.4-0.1,0.7-0.1,1.1c-0.4,4.2,0.2,8.2,2.2,11.8c0.5,0.9,1.1,1.7,1.9,2.4c0.5,0.4,1,0.7,1.5,0.7c0.5,0,1-0.2,1.5-0.7c0.7-0.7,1.4-1.5,1.9-2.4c2-3.7,2.6-7.7,2.2-11.8c0-0.4-0.1-0.7-0.1-1.1c0,0,2.4,0.4,2.8,2.9c0.3,2.3,0.1,4.2-0.4,6.4c-0.6,2.9-1.3,5.8-1.9,8.7c0.1,0,0.1,0,0.1-0.1c2.1-3.5,4-7.2,4.9-11.3c0.2-1,0.2-1.8,0.2-2.8c0-0.8-0.2-1.6-0.3-2.4c1.2,0.3,2.5,0.6,3.5,1.5c0.5,0.4,0.4,1.1,0.4,1.6c0,4.9-2.9,12.4-3.7,15.4c0.4-0.6,0.8-1.2,1.2-1.8c2.4-3.8,4.1-7.8,5.3-12.1c0.3-1,0.4-2,0.5-3.1C42.1,27.6,41.8,27.1,40.5,26.6z"/></svg>