<svg xmlns="http://www.w3.org/2000/svg"  viewBox="0 0 48 48" width="1600px" height="1600px"><path fill="#C62828" d="M0 15L8 7 40 7 48 15 24 43z"/><path fill="#FFEB3B" d="M33 15c-.1-3.4-3.8-6-9.7-6-5.9-.1-8.4 2.8-8.4 2.8s-4.5 4.9 10 4.9 14 5.8 14 5.8l6.3-7.5L41 10.8V15H33zM13 9H8.8l-6.1 6.1.2.2L6 18.9C7.7 11.8 13 9 13 9zM17.3 32.1l.2.2 6.5 7.6 5.6-6.6.9-1.2C30.6 32.2 24.8 34 17.3 32.1z"/><path fill="#FFEB3B" d="M34.1 11.2c.5-.5 1-2.2 1-2.2h-3C32 9 33.4 10.1 34.1 11.2zM23.5 29c14 .7 9.8-3.4 9.8-3.4s-.5-.8-11-1.4c-10.5-.6-13.2-1.8-13.2-1.8l5.2 6.1C15.8 26.9 20.7 25.9 23.5 29z"/></svg>