<svg xmlns="http://www.w3.org/2000/svg"  viewBox="0 0 48 48" width="1600px" height="1600px"><path fill="#c5cae9" d="M27.643,25c-0.052,0-0.103-0.005-0.155-0.014l-0.029-0.005l-0.028-0.009c-1.236-0.406-1.562-3.685-1.617-6.365c-0.074-3.571,0.324-7.496,1.066-10.499c1.055-4.272,2.701-6.375,4.759-6.081l0.01,0.001c0.624,0.104,1.091,0.556,1.389,1.346c0.708,1.878,0.462,5.996-0.657,11.017c-0.858,3.85-2.328,8.434-3.678,9.994C28.347,24.794,27.992,25,27.643,25z M31.276,2.797c-1.946,0-3.086,3.408-3.602,5.497c-0.726,2.941-1.116,6.79-1.043,10.297c0.034,1.618,0.166,3.014,0.384,4.039c0.26,1.224,0.552,1.51,0.646,1.572c0.062-0.013,0.203-0.086,0.413-0.329c1.074-1.241,2.515-5.209,3.505-9.65c1.071-4.807,1.335-8.859,0.688-10.575c-0.188-0.5-0.442-0.781-0.754-0.835C31.433,2.802,31.354,2.797,31.276,2.797z"/><path fill="#c5cae9" d="M21.579,18.774c-0.165,0-0.322-0.009-0.47-0.029c-0.915-0.119-1.275-0.6-1.415-0.991c-0.391-0.824-0.185-1.744,0.611-2.737c2.184-2.722,8.223-5.302,10.718-6.285c3.769-1.484,8.568-2.938,10.203-2.621c0.448,0.087,0.627,0.304,0.697,0.489C42.077,6.903,42,7.283,41.693,7.733c-1.003,1.471-4.878,4.288-9.423,6.848C29.966,15.88,24.501,18.774,21.579,18.774z M40.693,6.865c-0.381,0-1.032,0.061-2.126,0.3c-1.5,0.328-3.427,0.904-5.426,1.622c-4.706,1.691-8.822,3.77-11.011,5.562c-1.041,0.853-2.179,2.08-1.688,3.086l0.019,0.046c0.212,0.626,1.322,0.549,2.215,0.374c3.076-0.603,7.973-3.156,11.531-5.344c1.997-1.228,3.796-2.475,5.065-3.511c1.782-1.454,1.901-1.982,1.909-2.058L41.168,6.92C41.118,6.901,40.986,6.865,40.693,6.865z"/><path fill="#c5cae9" d="M35.224 19.739c-1.907 0-5.43-2.373-7.436-3.848-3.287-2.418-6.352-5.247-7.807-7.208-.903-1.217-1.173-2.05-.848-2.622l.019-.033.024-.029c.612-.718 1.909-.778 3.857-.179 1.651.508 3.657 1.464 5.649 2.691 2.537 1.563 4.728 3.358 6.17 5.055 1.749 2.059 2.319 3.902 1.65 5.333-.132.437-.465.725-.942.811C35.454 19.73 35.342 19.739 35.224 19.739zM19.837 6.473c-.036.112-.075.557.807 1.745 1.412 1.902 4.41 4.665 7.638 7.039 3.097 2.278 5.759 3.689 6.928 3.689.073 0 .139-.005.2-.016.208-.038.274-.134.311-.268l.009-.035.016-.033c1.223-2.536-3.032-6.656-7.502-9.41C23.965 6.548 20.584 5.735 19.837 6.473zM38.439 8.676A1.543 1.5 0 1 0 38.439 11.676 1.543 1.5 0 1 0 38.439 8.676z"/><path fill="#c5cae9" d="M24.66 5.476A1.543 1.5 0 1 0 24.66 8.475999999999999 1.543 1.5 0 1 0 24.66 5.476zM26.204 18.745A1.543 1.5 0 1 0 26.204 21.745 1.543 1.5 0 1 0 26.204 18.745zM30.313 19.287A1.543 1.5 0 1 0 30.313 22.287 1.543 1.5 0 1 0 30.313 19.287z"/><path fill="#c62828" d="M38.473,37.048c-1.704,1.946-5.724,0.716-5.724-1.744v-6.951c0-3.477,8.215-3.403,8.215,0v2.142h-3.51v-2.142c0-0.557-1.151-0.539-1.151,0v7.22c0,0.618,1.325,0.618,1.325,0v-1.853H36.9v-1.744h1.857h2.207v1.744v4.045h-2.207l-0.284-0.808 M28.787,31.364v-5.362h2.963V38h-2.963l-1.988-5.277V38h-2.963V26.002h2.963L28.787,31.364z M19.587,35.968h-1.235L18.177,38h-3.667l1.841-11.998h5.236L23.429,38h-3.667L19.587,35.968z M18.964,29.173l-0.611,4.555h1.235L18.964,29.173z M11.696,38H6V26.002h4.231c1.02,0,3.869,0,3.869,2.865v1.028c0.022,1.194-1.012,1.714-1.822,1.714c0.81,0,2.025,0.82,2.025,1.812v2.706C14.302,36.96,13.618,38,11.696,38z M10.759,35.184v-1.764c0-0.539-0.275-0.808-1.157-0.808v3.355C10.759,35.968,10.759,35.65,10.759,35.184z M10.759,29.944v-1.261c0-0.367-0.412-0.637-1.157-0.637v2.84C10.802,30.887,10.759,30.446,10.759,29.944z"/><path fill="#263238" d="M33.595,41.301L33.976,39h1.75l-1.238,3.917V46h-1.788v-3.083L31.426,39h1.75L33.595,41.301z M29.163,42.464c0.531,0,0.475,0.367,0.475,0.465V46h1.776v-2.728c0-0.851-0.288-1.181-1.044-1.181c0.756,0,1.044-0.294,1.044-1.096v-0.502c0-1.181-0.506-1.481-2.251-1.481h-1.776V46h1.776V42.464 M29.163,41.522v-1.408c0.138,0,0.475-0.03,0.475,0.282v0.796C29.638,41.546,29.294,41.522,29.163,41.522z M26.749,40.526c0-2.026-4.089-1.989-4.089-0.025v4.014c0,1.965,4.089,2.001,4.089-0.025V40.526z M24.986,44.491c0,0.49-0.563,0.496-0.563,0.025v-4.014c0-0.471,0.563-0.465,0.563,0.025V44.491z M20.751,44.733v-1.669h1.041v-1.102h-1.041v-1.566h1.172V39h-1.172H20.01h-1.125v7h0.544h1.322h1.322v-1.267H20.751z M16.24,39v2.705h-0.506V39h-1.819v7h1.819v-2.845h0.506V46h1.819v-7H16.24z M13.409,39H9.433v1.396h1.108V46h1.76v-5.604h1.108V39z M36.84,23.98l0.244,0.808h1.894v-4.701v-1.744h-1.894h-1.594v1.744h0.625v2.51c0,0.618-1.138,0.618-1.138,0v-7.002c0-0.539,0.988-0.557,0.988,0v2.142h3.013v-2.142c0-3.403-7.052-3.477-7.052,0v6.732c0,2.461,3.451,3.691,4.914,1.744 M27.662,25h3.02v-9.462h-3.02V25z M27.838,14.186c0.633,0.611,1.757,0.501,2.509-0.246c0.752-0.747,0.849-1.848,0.215-2.46s-1.757-0.501-2.509,0.246C27.301,12.474,27.204,13.575,27.838,14.186z M26.177,23.127v-2.709c0-0.992-1.05-1.812-1.751-1.812c0.7,0,1.594-0.52,1.575-1.714v-1.028C26.002,13,23.539,13,22.657,13H19v12h4.924C25.585,25,26.177,23.96,26.177,23.127z M22.113,22.968v-3.357c0.763,0,1,0.269,1,0.808v1.766C23.114,22.65,23.114,22.968,22.113,22.968z M22.113,17.884v-2.84c0.644,0,1,0.269,1,0.637v1.261C23.114,17.444,23.151,17.885,22.113,17.884z M17.597,22.403v-1.695c0-1.561-4.029-1.677-4.029,0v3.119c0,1.539,4.029,1.57,4.029,0v-1.105h-1.61v1.105c0,0.318-0.641,0.311-0.641,0v-1.423L17.597,22.403z M15.346,20.708c0-0.266,0.472-0.257,0.472,0v0.756h-0.472L15.346,20.708z M11.317,20.778v4.223h1.779v-4.223c0-1.555-1.638-1.18-2.251-0.967V18.55H9.066v6.451h1.779v-4.076C10.845,20.653,11.317,20.472,11.317,20.778z M8.251,23.747v-3.024h0.506v-0.9H8.251v-0.808H6.506v0.808H6v0.9h0.506v3.498c0,0.432,0.281,0.78,0.791,0.78h1.61v-0.918H8.588C8.413,24.084,8.251,23.888,8.251,23.747z"/></svg>