<svg xmlns="http://www.w3.org/2000/svg"  viewBox="0 0 48 48" width="1600px" height="1600px"><path fill="#9FA8DA" d="M24,4C13,4,4,13,4,24s9,20,20,20s20-9,20-20S35,4,24,4z M38,24c0,2.8-0.8,5.4-2.2,7.5L28.2,24l7.5-7.5C37.2,18.6,38,21.2,38,24z M31.5,12.2L24,19.8l-7.5-7.5c2.2-1.4,4.8-2.2,7.5-2.2S29.4,10.8,31.5,12.2z M12.2,31.5C10.8,29.4,10,26.8,10,24s0.8-5.4,2.2-7.5l7.5,7.5L12.2,31.5z M16.5,35.8l7.5-7.5l7.5,7.5C29.4,37.2,26.8,38,24,38S18.6,37.2,16.5,35.8z"/><path fill="#7986CB" d="M40,24c0,3.3-1,6.4-2.8,9l-1.5-1.5c1.4-2.2,2.2-4.8,2.2-7.5c0-2.8-0.8-5.4-2.2-7.5L28.2,24h-2.8L36,13.4c0.4,0.5,0.9,1,1.2,1.6l0,0C39,17.6,40,20.7,40,24z M24,19.8l-7.6-7.5c2.2-1.4,4.7-2.2,7.5-2.2c2.8,0,5.4,0.8,7.5,2.2l1.5-1.5C30.4,9,27.3,8,24,8c-3.3,0-6.4,1-9,2.8l0,0c-0.6,0.4-1.1,0.8-1.6,1.2L24,22.6L24,19.8z M24,28.2l7.5,7.5C29.4,37.2,26.8,38,24,38c-2.8,0-5.4-0.8-7.5-2.2L15,37.2c2.6,1.7,5.7,2.8,9,2.8c3.3,0,6.4-1,9-2.8l0,0c0.6-0.4,1.1-0.8,1.6-1.2L24,25.4V28.2z M19.8,24l-7.5,7.5C10.8,29.3,10,26.8,10,24c0-2.8,0.8-5.4,2.2-7.5L10.8,15C9,17.6,8,20.7,8,24c0,3.3,1,6.4,2.7,9l0,0c0.4,0.6,0.8,1.1,1.2,1.6L22.6,24H19.8z"/></svg>