<svg xmlns="http://www.w3.org/2000/svg"  viewBox="0 0 48 48" width="1600px" height="1600px"><polygon fill="#9e9d24" points="34,26 33,15 43,14 37,31 40,32 42,24 42,36 33,34 38,18 35,18"/><path fill="#9e9d24" d="M14,44l9-5l-4-3l-5-26L7,9l4,5L7,33l-4,4l9,1l-3-4l0.938-5H14.2l1.8,9L14,44z M10.663,25.133L12,18	l1.542,7.708L10.663,25.133z"/><path fill="#9e9d24" d="M25.596,27.2c0.682-1.177,1.571-2.286,2.511-3.485c0.932-1.19,1.941-2.527,2.589-4.161	c0.644-1.602,0.987-3.2,1.142-4.909c0.097-1.693,0.048-3.52-1.109-5.38c-0.306-0.453-0.703-0.906-1.225-1.276	c-0.524-0.362-1.172-0.617-1.815-0.7c-0.7-0.081-1.125-0.011-1.635,0.064c-0.501,0.1-1.016,0.262-1.497,0.526	c-0.725,0.377-1.325,0.986-1.712,1.658L21,4l1,19c0-1.94,0.471-4.581,0.955-6.792c0.041-0.169,0.081-0.339,0.123-0.508	c0.197-0.804,0.411-1.605,0.677-2.389c0.231-0.681,0.452-1.377,0.979-1.896c0.403-0.396,0.944-0.661,1.509-0.688	c0.412-0.019,0.832,0.095,1.173,0.328c0.359,0.245,0.539,0.649,0.668,1.054c0.253,0.798,0.416,1.623,0.448,2.46	c0.068,1.286-0.144,2.688-0.619,3.872c-0.881,2.352-3.237,4.424-4.87,7.288c-0.824,1.421-1.43,3.029-1.725,4.663	C21,32.027,21.011,33.555,21,35l10,1V23l-2,8h-4.815c0.004-0.022,0.005-0.044,0.009-0.066C24.432,29.612,24.913,28.373,25.596,27.2z"/></svg>