<svg xmlns="http://www.w3.org/2000/svg"  viewBox="0 0 48 48" width="1600px" height="1600px"><path fill="#ff3d00" d="M44.985,24l-5.037-4.419l2.226-6.074l-6.572-1.308l-1.109-6.373l-6.345,2.153L24,3.015l-4.418,5.037 l-6.074-2.226l-1.308,6.572l-6.373,1.109l2.153,6.345L3.015,24l5.037,4.419l-2.226,6.074l6.572,1.308l1.109,6.373l6.345-2.153 L24,44.985l4.419-5.037l6.074,2.226l1.308-6.572l6.373-1.109l-2.153-6.345L44.985,24z M24,38.5c-7.995,0-14.5-6.505-14.5-14.5 S16.005,9.5,24,9.5S38.5,16.005,38.5,24S31.995,38.5,24,38.5z"/><circle cx="24" cy="24" r="13" fill="#ff3d00"/></svg>