<svg xmlns="http://www.w3.org/2000/svg"  viewBox="0 0 48 48" width="1600px" height="1600px"><path d="M34.258,24.259C33.17,24.802,31.869,25,30.5,25c-3.59,0-6.17-3.043-6.5-7c-0.174-2.083,0.696-3.821,2.095-4.983 l-4.819-6.636L11,9.064L9,42l10-2.362v-4.085L29,33l2.498,3.851l10.034-2.574L34.258,24.259z M19,28.66V17l6.359,10.059L19,28.66z"/><path d="M26.643,18.61l1.002,2.311c0.843,1.943,3.101,2.835,5.045,1.992v0c0.15-0.065,0.282-0.153,0.42-0.235l-5.86-8.07 C26.336,15.687,26.042,17.224,26.643,18.61z"/><path d="M28.636,13.565c1.943-0.843,4.202,0.049,5.045,1.992l1.002,2.311c0.778,1.793,0.067,3.84-1.573,4.81l1.147,1.58 c1.765-0.881,2.966-2.673,2.966-6.03c0-3.866-3.134-6.771-6.723-6.771c-1.649,0-3.217,0.573-4.405,1.559l1.156,1.591 C27.619,14.174,28.078,13.807,28.636,13.565z"/></svg>