<svg xmlns="http://www.w3.org/2000/svg"  viewBox="0 0 48 48" width="1600px" height="1600px"><path fill="#2e7d32" d="M37,31L37,31l0-20h4v16C41,29.209,39.209,31,37,31z"/><path fill="#212121" d="M17,31L17,31c-2.209,0-4-1.791-4-4v-8h4V31z"/><path fill="#2e7d32" d="M38,23v-4h10v0c0,2.209-1.791,4-4,4H38z"/><path fill="#d32f2f" d="M23.023,31c-0.818-1.083-1.23-2.489-0.919-4.016c0.382-1.875,1.865-3.41,3.728-3.847	c1.143-0.269,2.228-0.127,3.168,0.285v-4.191c-1.718-0.39-3.602-0.34-5.603,0.576c-2.618,1.198-4.615,3.55-5.206,6.368	C17.83,27.895,18.003,29.53,18.523,31H23.023z"/><path fill="#212121" d="M4.349,31c-0.253-0.714-0.382-1.486-0.341-2.297c0.05-0.98,0.453-1.92,1.063-2.688	c2.355-2.963,4.234-3.21,5.93-2.925v-3.859c-1.718-0.39-3.602-0.34-5.603,0.576c-2.618,1.198-4.615,3.55-5.206,6.368	C-0.17,27.895,0.003,29.53,0.523,31H4.349z"/><path fill="#212121" d="M2.485,34.882H1.417l-0.21,0.669c-0.01,0.03-0.023,0.064-0.04,0.104s-0.054,0.059-0.112,0.059 c-0.039,0-0.07-0.015-0.096-0.043s-0.038-0.068-0.038-0.12c0-0.021,0.005-0.045,0.015-0.071c0.01-0.026,0.018-0.05,0.023-0.071 l0.782-2.476c0.013-0.041,0.036-0.078,0.07-0.112c0.035-0.034,0.081-0.051,0.139-0.051c0.059,0,0.105,0.017,0.14,0.051 c0.034,0.034,0.058,0.071,0.07,0.112l0.782,2.476c0.005,0.021,0.013,0.045,0.023,0.071c0.01,0.025,0.015,0.049,0.015,0.071 c0,0.051-0.013,0.091-0.038,0.12s-0.057,0.043-0.096,0.043c-0.056,0-0.093-0.02-0.11-0.059c-0.018-0.039-0.032-0.074-0.042-0.104 L2.485,34.882z M1.958,33.177H1.943l-0.431,1.421H2.39L1.958,33.177z"/><path fill="#212121" d="M3.686,35.552c0,0.108-0.051,0.163-0.152,0.163c-0.038,0-0.07-0.015-0.096-0.043 s-0.038-0.068-0.038-0.12v-2.537c0-0.052,0.013-0.091,0.038-0.12c0.025-0.029,0.058-0.043,0.096-0.043h1.354 c0.038,0,0.07,0.014,0.095,0.041c0.026,0.027,0.039,0.061,0.039,0.102s-0.013,0.075-0.039,0.102 c-0.025,0.027-0.057,0.041-0.095,0.041H3.686v1.096h0.839c0.038,0,0.07,0.013,0.095,0.041c0.025,0.027,0.038,0.061,0.038,0.101 c0,0.041-0.013,0.075-0.038,0.102c-0.025,0.027-0.057,0.041-0.095,0.041H3.686V35.552z"/><path fill="#212121" d="M6.966,35.105c0,0.03-0.009,0.071-0.027,0.124c-0.018,0.053-0.04,0.1-0.065,0.14 c-0.063,0.108-0.162,0.203-0.295,0.284c-0.134,0.081-0.291,0.122-0.471,0.122c-0.132,0-0.255-0.025-0.368-0.075 c-0.113-0.05-0.21-0.124-0.29-0.221c-0.08-0.097-0.143-0.218-0.189-0.363c-0.045-0.145-0.068-0.31-0.068-0.497v-0.69 c0-0.187,0.023-0.353,0.068-0.497c0.046-0.145,0.109-0.266,0.189-0.363c0.08-0.098,0.177-0.171,0.29-0.221 c0.113-0.05,0.236-0.075,0.368-0.075c0.12,0,0.229,0.021,0.33,0.061c0.1,0.041,0.187,0.09,0.259,0.148 c0.072,0.058,0.129,0.12,0.17,0.185c0.041,0.065,0.061,0.123,0.061,0.175c0,0.051-0.013,0.091-0.038,0.12s-0.057,0.042-0.095,0.042 c-0.048,0-0.083-0.017-0.103-0.051C6.67,33.417,6.648,33.38,6.623,33.34c-0.064-0.103-0.144-0.176-0.241-0.219 s-0.188-0.065-0.274-0.065c-0.092,0-0.176,0.018-0.252,0.053s-0.142,0.089-0.198,0.162c-0.056,0.073-0.1,0.165-0.132,0.274 c-0.032,0.109-0.047,0.237-0.047,0.383v0.69c0,0.146,0.016,0.274,0.047,0.384c0.032,0.109,0.076,0.201,0.132,0.274 c0.056,0.073,0.122,0.127,0.198,0.162s0.16,0.053,0.252,0.053c0.135,0,0.251-0.036,0.351-0.107 c0.099-0.072,0.173-0.165,0.221-0.278v-0.69H6.203c-0.038,0-0.07-0.014-0.095-0.041c-0.025-0.027-0.038-0.061-0.038-0.101 s0.013-0.075,0.038-0.102c0.025-0.027,0.057-0.041,0.095-0.041h0.629c0.038,0,0.07,0.014,0.095,0.042 c0.026,0.028,0.039,0.068,0.039,0.12V35.105z"/><path fill="#212121" d="M7.88,32.995v1.096h1.164v-1.096c0-0.108,0.051-0.162,0.153-0.162c0.038,0,0.07,0.014,0.095,0.042 s0.038,0.068,0.038,0.12v2.557c0,0.051-0.013,0.091-0.038,0.12s-0.057,0.043-0.095,0.043c-0.102,0-0.153-0.054-0.153-0.163v-1.177 H7.88v1.177c0,0.108-0.051,0.163-0.152,0.163c-0.038,0-0.07-0.015-0.096-0.043s-0.038-0.068-0.038-0.12v-2.557 c0-0.051,0.013-0.091,0.038-0.12s0.058-0.042,0.096-0.042C7.83,32.833,7.88,32.887,7.88,32.995z"/><path fill="#212121" d="M11.313,34.882h-1.068l-0.21,0.669c-0.01,0.03-0.023,0.064-0.04,0.104s-0.054,0.059-0.112,0.059 c-0.039,0-0.07-0.015-0.096-0.043s-0.038-0.068-0.038-0.12c0-0.021,0.005-0.045,0.015-0.071c0.01-0.026,0.018-0.05,0.023-0.071 l0.782-2.476c0.013-0.041,0.036-0.078,0.07-0.112c0.035-0.034,0.081-0.051,0.14-0.051c0.058,0,0.104,0.017,0.139,0.051 c0.034,0.034,0.058,0.071,0.07,0.112l0.782,2.476c0.005,0.021,0.013,0.045,0.023,0.071c0.01,0.025,0.015,0.049,0.015,0.071 c0,0.051-0.013,0.091-0.038,0.12s-0.057,0.043-0.096,0.043c-0.056,0-0.093-0.02-0.11-0.059c-0.018-0.039-0.032-0.074-0.042-0.104 L11.313,34.882z M10.786,33.177h-0.015l-0.431,1.421h0.877L10.786,33.177z"/><path fill="#212121" d="M12.532,33.522h-0.019v2.029c0,0.108-0.051,0.163-0.152,0.163c-0.038,0-0.07-0.015-0.096-0.043 s-0.038-0.068-0.038-0.12v-2.557c0-0.051,0.013-0.091,0.038-0.12s0.058-0.042,0.096-0.042c0.048,0,0.086,0.013,0.114,0.041 c0.028,0.027,0.053,0.061,0.076,0.102l1.145,2.049h0.019v-2.029c0-0.051,0.013-0.091,0.038-0.12s0.057-0.042,0.096-0.042 c0.102,0,0.152,0.054,0.152,0.162v2.557c0,0.051-0.013,0.091-0.038,0.12s-0.057,0.043-0.095,0.043 c-0.048,0-0.086-0.014-0.115-0.041c-0.028-0.027-0.053-0.061-0.076-0.101L12.532,33.522z"/><path fill="#212121" d="M15.583,35.694c-0.038,0-0.07-0.014-0.096-0.042s-0.038-0.068-0.038-0.12v-2.517 c0-0.052,0.013-0.091,0.038-0.12c0.025-0.029,0.058-0.043,0.096-0.043h0.706c0.135,0,0.258,0.025,0.37,0.075 s0.208,0.124,0.288,0.221c0.08,0.098,0.143,0.219,0.188,0.363c0.046,0.145,0.069,0.311,0.069,0.497v0.528 c0,0.187-0.023,0.353-0.069,0.497c-0.045,0.145-0.108,0.266-0.188,0.363c-0.08,0.098-0.176,0.171-0.288,0.221 c-0.112,0.05-0.235,0.075-0.37,0.075H15.583z M16.289,35.41c0.092,0,0.175-0.018,0.252-0.053c0.076-0.035,0.142-0.089,0.198-0.162 c0.056-0.073,0.1-0.165,0.131-0.274c0.032-0.109,0.048-0.237,0.048-0.383v-0.528c0-0.146-0.016-0.274-0.048-0.383 c-0.032-0.11-0.076-0.201-0.131-0.274c-0.056-0.073-0.122-0.127-0.198-0.163c-0.077-0.035-0.16-0.053-0.252-0.053h-0.553v2.273 H16.289z"/><path fill="#212121" d="M18.119,33.137v0.974h0.839c0.038,0,0.07,0.014,0.095,0.041c0.025,0.027,0.038,0.061,0.038,0.102 s-0.013,0.074-0.038,0.102c-0.025,0.027-0.057,0.041-0.095,0.041h-0.839v1.015h1.24c0.038,0,0.07,0.014,0.096,0.041 c0.025,0.027,0.038,0.061,0.038,0.102s-0.013,0.074-0.038,0.102c-0.026,0.027-0.058,0.041-0.096,0.041h-1.392 c-0.038,0-0.07-0.014-0.096-0.042s-0.038-0.068-0.038-0.12v-2.517c0-0.052,0.013-0.091,0.038-0.12 c0.025-0.029,0.058-0.043,0.096-0.043h1.354c0.038,0,0.07,0.014,0.095,0.041c0.026,0.027,0.039,0.061,0.039,0.102 s-0.013,0.075-0.039,0.102c-0.025,0.027-0.057,0.041-0.095,0.041H18.119z"/><path fill="#212121" d="M19.644,33.137c-0.005-0.021-0.013-0.045-0.023-0.071c-0.01-0.026-0.015-0.049-0.015-0.071 c0-0.051,0.013-0.091,0.038-0.12s0.057-0.042,0.096-0.042c0.058,0,0.096,0.02,0.112,0.059c0.017,0.04,0.03,0.074,0.04,0.104 l0.679,2.334h0.015l0.679-2.334c0.01-0.03,0.024-0.064,0.042-0.104c0.018-0.039,0.054-0.059,0.11-0.059 c0.038,0,0.07,0.014,0.095,0.042s0.039,0.068,0.039,0.12c0,0.022-0.005,0.045-0.016,0.071c-0.01,0.025-0.018,0.049-0.023,0.071 l-0.725,2.476c-0.013,0.041-0.036,0.078-0.071,0.111c-0.034,0.034-0.081,0.051-0.139,0.051c-0.058,0-0.105-0.017-0.139-0.051 c-0.034-0.034-0.058-0.071-0.07-0.111L19.644,33.137z"/><path fill="#212121" d="M22.256,33.137v0.974h0.839c0.038,0,0.07,0.014,0.095,0.041c0.025,0.027,0.038,0.061,0.038,0.102 s-0.013,0.074-0.038,0.102c-0.025,0.027-0.057,0.041-0.095,0.041h-0.839v1.015h1.24c0.038,0,0.07,0.014,0.096,0.041 c0.025,0.027,0.038,0.061,0.038,0.102s-0.013,0.074-0.038,0.102c-0.026,0.027-0.058,0.041-0.096,0.041h-1.392 c-0.038,0-0.07-0.014-0.096-0.042s-0.038-0.068-0.038-0.12v-2.517c0-0.052,0.013-0.091,0.038-0.12 c0.025-0.029,0.058-0.043,0.096-0.043h1.354c0.038,0,0.07,0.014,0.095,0.041c0.026,0.027,0.039,0.061,0.039,0.102 s-0.013,0.075-0.039,0.102c-0.025,0.027-0.057,0.041-0.095,0.041H22.256z"/><path fill="#212121" d="M25.517,35.41c0.038,0,0.07,0.014,0.095,0.041c0.025,0.027,0.038,0.061,0.038,0.102 s-0.013,0.074-0.038,0.102c-0.025,0.027-0.057,0.041-0.095,0.041H24.22c-0.038,0-0.07-0.014-0.096-0.042s-0.038-0.068-0.038-0.12 v-2.537c0-0.051,0.013-0.091,0.038-0.12s0.058-0.042,0.096-0.042c0.102,0,0.152,0.054,0.152,0.162v2.415H25.517z"/><path fill="#212121" d="M27.107,32.847c0.112,0.05,0.208,0.124,0.288,0.221c0.081,0.097,0.143,0.218,0.189,0.363 c0.046,0.145,0.069,0.311,0.069,0.497v0.69c0,0.187-0.023,0.353-0.069,0.497c-0.046,0.145-0.108,0.266-0.189,0.363 c-0.08,0.098-0.176,0.171-0.288,0.221c-0.112,0.05-0.235,0.075-0.37,0.075c-0.132,0-0.255-0.025-0.368-0.075 c-0.113-0.05-0.21-0.124-0.29-0.221c-0.08-0.097-0.143-0.218-0.189-0.363c-0.045-0.145-0.068-0.31-0.068-0.497v-0.69 c0-0.187,0.023-0.353,0.068-0.497c0.046-0.145,0.109-0.266,0.189-0.363c0.08-0.098,0.177-0.171,0.29-0.221 c0.113-0.05,0.236-0.075,0.368-0.075C26.872,32.771,26.995,32.796,27.107,32.847z M26.485,33.108 c-0.076,0.035-0.142,0.089-0.198,0.162c-0.056,0.073-0.1,0.165-0.132,0.274c-0.032,0.109-0.047,0.237-0.047,0.383v0.69 c0,0.146,0.016,0.274,0.047,0.384c0.032,0.109,0.076,0.201,0.132,0.274c0.056,0.073,0.122,0.127,0.198,0.162 s0.16,0.053,0.252,0.053c0.091,0,0.175-0.018,0.251-0.053c0.077-0.035,0.143-0.089,0.199-0.162c0.056-0.073,0.1-0.165,0.131-0.274 c0.032-0.11,0.048-0.238,0.048-0.384v-0.69c0-0.146-0.016-0.274-0.048-0.383c-0.032-0.11-0.076-0.201-0.131-0.274 c-0.056-0.073-0.122-0.127-0.199-0.162c-0.076-0.035-0.16-0.053-0.251-0.053C26.645,33.056,26.561,33.073,26.485,33.108z"/><path fill="#212121" d="M29.063,32.853c0.142,0,0.27,0.022,0.383,0.065c0.113,0.043,0.209,0.105,0.288,0.187 c0.079,0.081,0.139,0.179,0.181,0.294c0.042,0.115,0.063,0.244,0.063,0.388c0,0.141-0.021,0.269-0.063,0.384 c-0.042,0.115-0.103,0.213-0.181,0.294c-0.079,0.082-0.175,0.144-0.288,0.189c-0.113,0.044-0.241,0.067-0.383,0.067h-0.496v0.832 c0,0.108-0.051,0.163-0.152,0.163c-0.038,0-0.07-0.015-0.096-0.043s-0.038-0.068-0.038-0.12v-2.537c0-0.052,0.013-0.091,0.038-0.12 c0.025-0.029,0.058-0.043,0.096-0.043H29.063z M28.566,33.137v1.299h0.496c0.201,0,0.356-0.058,0.465-0.172 c0.109-0.115,0.164-0.274,0.164-0.477c0-0.203-0.055-0.362-0.164-0.477c-0.109-0.115-0.265-0.172-0.465-0.172H28.566z"/><path fill="#212121" d="M30.759,33.137v0.974h0.839c0.038,0,0.07,0.014,0.095,0.041c0.025,0.027,0.038,0.061,0.038,0.102 s-0.013,0.074-0.038,0.102c-0.025,0.027-0.057,0.041-0.095,0.041h-0.839v1.015h1.24c0.038,0,0.07,0.014,0.096,0.041 c0.025,0.027,0.038,0.061,0.038,0.102s-0.013,0.074-0.038,0.102c-0.026,0.027-0.058,0.041-0.096,0.041h-1.392 c-0.038,0-0.07-0.014-0.096-0.042s-0.038-0.068-0.038-0.12v-2.517c0-0.052,0.013-0.091,0.038-0.12 c0.025-0.029,0.058-0.043,0.096-0.043h1.354c0.038,0,0.07,0.014,0.095,0.041c0.026,0.027,0.039,0.061,0.039,0.102 s-0.013,0.075-0.039,0.102c-0.025,0.027-0.057,0.041-0.095,0.041H30.759z"/><path fill="#212121" d="M33.486,34.517h-0.61v1.035c0,0.108-0.051,0.163-0.152,0.163c-0.038,0-0.07-0.015-0.096-0.043 s-0.038-0.068-0.038-0.12v-2.537c0-0.052,0.013-0.091,0.038-0.12c0.025-0.029,0.058-0.043,0.096-0.043h0.744 c0.259,0,0.461,0.075,0.604,0.226c0.144,0.15,0.216,0.352,0.216,0.606c0,0.157-0.025,0.286-0.075,0.386 c-0.049,0.1-0.104,0.179-0.162,0.235c-0.071,0.068-0.151,0.118-0.24,0.15v0.02l0.477,0.853c0.025,0.046,0.047,0.084,0.067,0.116 c0.019,0.031,0.028,0.067,0.028,0.107c0,0.051-0.013,0.091-0.038,0.12s-0.057,0.043-0.095,0.043c-0.059,0-0.101-0.02-0.126-0.059 s-0.047-0.074-0.065-0.104L33.486,34.517z M32.875,33.137v1.096h0.591c0.173,0,0.305-0.048,0.397-0.145 c0.091-0.096,0.137-0.23,0.137-0.404c0-0.173-0.046-0.308-0.137-0.404c-0.092-0.096-0.224-0.144-0.397-0.144H32.875z"/><path fill="#212121" d="M35.11,33.194c-0.092,0.092-0.137,0.215-0.137,0.369c0,0.114,0.034,0.204,0.103,0.27 c0.068,0.066,0.154,0.122,0.257,0.167c0.103,0.044,0.215,0.086,0.335,0.125c0.121,0.04,0.233,0.089,0.336,0.15 c0.103,0.061,0.189,0.14,0.257,0.237c0.069,0.098,0.103,0.228,0.103,0.39c0,0.127-0.021,0.244-0.063,0.351 s-0.102,0.199-0.181,0.276c-0.079,0.077-0.175,0.138-0.288,0.181c-0.113,0.043-0.241,0.065-0.383,0.065 c-0.181,0-0.337-0.041-0.471-0.122c-0.133-0.081-0.232-0.176-0.295-0.284c-0.025-0.041-0.047-0.087-0.065-0.14 c-0.018-0.053-0.027-0.094-0.027-0.124c0-0.041,0.013-0.075,0.039-0.102c0.025-0.027,0.057-0.041,0.095-0.041 c0.048,0,0.083,0.013,0.103,0.039c0.02,0.025,0.037,0.053,0.049,0.083c0.048,0.122,0.122,0.22,0.221,0.294 c0.1,0.074,0.216,0.111,0.351,0.111c0.201,0,0.356-0.055,0.465-0.164c0.109-0.11,0.164-0.251,0.164-0.424 c0-0.116-0.034-0.207-0.103-0.272c-0.068-0.065-0.154-0.12-0.257-0.165c-0.103-0.044-0.215-0.086-0.335-0.125 c-0.121-0.04-0.233-0.089-0.336-0.15c-0.103-0.061-0.189-0.14-0.257-0.237c-0.069-0.098-0.103-0.228-0.103-0.39 c0-0.116,0.018-0.223,0.055-0.321c0.037-0.097,0.091-0.181,0.162-0.25s0.157-0.123,0.257-0.162c0.101-0.04,0.216-0.059,0.345-0.059 c0.12,0,0.229,0.021,0.33,0.061s0.187,0.09,0.259,0.148c0.073,0.058,0.129,0.12,0.17,0.185s0.061,0.123,0.061,0.175 c0,0.051-0.013,0.091-0.038,0.12s-0.057,0.042-0.095,0.042c-0.048,0-0.083-0.017-0.103-0.051c-0.021-0.034-0.043-0.071-0.069-0.111 c-0.063-0.103-0.144-0.176-0.24-0.219s-0.188-0.065-0.275-0.065C35.333,33.056,35.201,33.102,35.11,33.194z"/><path fill="#212121" d="M36.738,32.867c0.033-0.036,0.074-0.055,0.122-0.055s0.089,0.021,0.122,0.061s0.05,0.102,0.05,0.183 c0,0.092-0.012,0.174-0.035,0.246c-0.022,0.072-0.053,0.133-0.089,0.185c-0.037,0.051-0.076,0.091-0.118,0.118 s-0.082,0.041-0.12,0.041c-0.039,0-0.058-0.02-0.058-0.061c0-0.03,0.013-0.05,0.038-0.061c0.021-0.008,0.042-0.02,0.063-0.035 c0.022-0.015,0.042-0.034,0.061-0.057s0.035-0.052,0.048-0.085s0.019-0.076,0.019-0.128c-0.028-0.005-0.053-0.016-0.076-0.032 c-0.021-0.016-0.038-0.037-0.053-0.063c-0.016-0.026-0.023-0.062-0.023-0.107C36.688,32.953,36.705,32.903,36.738,32.867z"/><path fill="#212121" d="M39.015,33.137v2.415c0,0.108-0.051,0.163-0.153,0.163c-0.038,0-0.07-0.015-0.095-0.043 s-0.038-0.068-0.038-0.12v-2.415h-0.648c-0.039,0-0.07-0.014-0.096-0.041s-0.038-0.061-0.038-0.102s0.013-0.074,0.038-0.102 c0.025-0.027,0.057-0.041,0.096-0.041h1.564c0.038,0,0.07,0.014,0.095,0.041c0.025,0.027,0.038,0.061,0.038,0.102 s-0.013,0.075-0.038,0.102s-0.057,0.041-0.095,0.041H39.015z"/><path fill="#212121" d="M40.482,33.137v0.974h0.839c0.038,0,0.07,0.014,0.095,0.041c0.025,0.027,0.038,0.061,0.038,0.102 s-0.013,0.074-0.038,0.102c-0.025,0.027-0.057,0.041-0.095,0.041h-0.839v1.015h1.24c0.038,0,0.07,0.014,0.096,0.041 c0.025,0.027,0.038,0.061,0.038,0.102s-0.013,0.074-0.038,0.102c-0.026,0.027-0.058,0.041-0.096,0.041H40.33 c-0.038,0-0.07-0.014-0.096-0.042s-0.038-0.068-0.038-0.12v-2.517c0-0.052,0.013-0.091,0.038-0.12 c0.025-0.029,0.058-0.043,0.096-0.043h1.354c0.038,0,0.07,0.014,0.095,0.041c0.026,0.027,0.039,0.061,0.039,0.102 s-0.013,0.075-0.039,0.102c-0.025,0.027-0.057,0.041-0.095,0.041H40.482z"/><path fill="#212121" d="M43.533,34.882h-1.068l-0.21,0.669c-0.01,0.03-0.023,0.064-0.04,0.104s-0.054,0.059-0.112,0.059 c-0.039,0-0.07-0.015-0.096-0.043s-0.038-0.068-0.038-0.12c0-0.021,0.005-0.045,0.015-0.071c0.01-0.026,0.018-0.05,0.023-0.071 l0.782-2.476c0.013-0.041,0.036-0.078,0.07-0.112c0.035-0.034,0.081-0.051,0.14-0.051c0.058,0,0.104,0.017,0.139,0.051 c0.034,0.034,0.058,0.071,0.07,0.112l0.782,2.476c0.005,0.021,0.013,0.045,0.023,0.071c0.01,0.025,0.015,0.049,0.015,0.071 c0,0.051-0.013,0.091-0.038,0.12s-0.057,0.043-0.096,0.043c-0.056,0-0.093-0.02-0.11-0.059c-0.018-0.039-0.032-0.074-0.042-0.104 L43.533,34.882z M43.007,33.177h-0.015l-0.431,1.421h0.877L43.007,33.177z"/><path fill="#212121" d="M46.241,32.954c0.021-0.062,0.046-0.108,0.076-0.138c0.031-0.03,0.075-0.044,0.134-0.044 c0.048,0,0.087,0.018,0.118,0.053s0.048,0.079,0.053,0.13l0.305,2.415c0.003,0.021,0.006,0.05,0.012,0.085 c0.005,0.035,0.007,0.067,0.007,0.097c0,0.051-0.013,0.091-0.038,0.12s-0.057,0.043-0.095,0.043c-0.048,0-0.084-0.014-0.109-0.041 c-0.024-0.027-0.039-0.061-0.044-0.101l-0.267-2.192h-0.019l-0.591,1.786c-0.036,0.108-0.1,0.163-0.191,0.163 s-0.155-0.054-0.191-0.163l-0.591-1.786h-0.019l-0.267,2.192c-0.005,0.041-0.02,0.074-0.044,0.101 c-0.024,0.027-0.061,0.041-0.109,0.041c-0.038,0-0.07-0.015-0.095-0.043s-0.038-0.068-0.038-0.12c0-0.03,0.002-0.062,0.007-0.097 c0.005-0.035,0.009-0.064,0.012-0.085l0.305-2.415c0.005-0.051,0.022-0.095,0.053-0.13s0.07-0.053,0.118-0.053 c0.059,0,0.103,0.015,0.134,0.044c0.03,0.03,0.056,0.076,0.076,0.138l0.641,1.908h0.016L46.241,32.954z"/><path fill="#d32f2f" d="M31,11v18c-0.027,0.599,0,1-1,2h1h2c1.105,0,2-0.895,2-2V11H31z"/></svg>