<svg xmlns="http://www.w3.org/2000/svg"  viewBox="0 0 48 48" width="1600px" height="1600px" baseProfile="basic"><path fill="#1565c0" d="M42,26.655V10c0-2.209-1.791-4-4-4H10c-2.209,0-4,1.791-4,4v4.823C9.618,13.02,13.691,12,18,12 C28.441,12,37.51,17.961,42,26.655z"/><path fill="#1976d2" d="M18,14.656c12.041,0,22.063,8.79,24,20.289v-8.29C37.51,17.961,28.441,12,18,12 c-4.309,0-8.382,1.02-12,2.823v3.009C9.544,15.815,13.638,14.656,18,14.656z"/><path fill="#1e88e5" d="M18,14.656c-4.362,0-8.456,1.159-12,3.176v3.113c3.439-2.293,7.565-3.633,12-3.633 c11.959,0,21.689,9.729,21.689,21.689c0,0.914-0.651,0.615-0.762,1.5c1.457-0.597,2.36-0.738,2.36-2.41L42,37.197v-2.252 C40.063,23.445,30.041,14.656,18,14.656z"/><path fill="#42a5f5" d="M18,19.967c10.495,0,19.033,8.538,19.033,19.033c0,1.023-0.781,0.486-0.937,1.466l1.787,0.371 c0.537,0,0.544,0.327,1.011,0.135c0.11-0.885,0.795-1.057,0.795-1.972c0-11.959-9.729-21.689-21.689-21.689 c-4.435,0-8.561,1.34-12,3.633v3.299C9.277,21.574,13.453,19.967,18,19.967z"/><path fill="#64b5f6" d="M18,19.967c-4.547,0-8.723,1.607-12,4.277v3.648c2.993-3.232,7.258-5.27,12-5.27 c9.031,0,16.377,7.346,16.377,16.377c0,1.026-0.864,1.116-1.046,2.09l2.478-0.118c0.156-0.98,1.224-0.949,1.224-1.972 C37.033,28.505,28.495,19.967,18,19.967z"/><path fill="#90caf9" d="M18,22.623c-4.742,0-9.007,2.038-12,5.27v4.469v3.251c0,0,1.608,3.736,1.697,4.298 c0.73,0.783,5.245,0.086,5.781,0.961l17.916,0.329c0.046-0.207,2.984-1.174,2.984-2.199C34.377,29.969,27.031,22.623,18,22.623z"/><path fill="#90caf9" d="M6.934,39.007C6.932,39.15,6.934,39.231,6.934,39.007L6.934,39.007z"/><path fill="#212121" d="M42,37.174c-3.835,1.792-8.421,1.731-8.424,1.699c0.185-0.138,0.366-0.27,0.367-0.508 c0.001-0.695-0.386,0.078-2.228-0.82c-0.557-0.272-1.272-0.734-1.805-1.09c-1.504-1.005-1.525-1.553-2.248-2.804l-0.353-0.491 c0.358-0.174,0.419-0.164,0.239-0.627c-0.429-1.094-0.641-0.768-0.954-1.437l-2.101-3.873c1.043-0.976,1.263-1.357,2.402-1.687 l0.194-0.151c1.029-0.672,0.778-0.412,1.077-1.297c0.092-0.273,0.118-0.288,0.194-0.602c1.233-1.504,2.357-3.132,2.741-4.048 l-2.267-0.025c-1.003,1.234-2.632,2.868-3.401,4.093c0.443,0.338,0.216-0.109,0.38,0.349c-0.552,1.049-2.86,2.13-4.007,2.419 c-0.215-0.211-0.257-0.358-0.667-0.398c0.446-0.612,0.187-0.689-0.307-1.086l-1.366-1.737c-0.649-1.016-0.967-2.067-1.21-2.504 c-0.268-0.482-0.442-0.251-0.414-0.582c0.258-0.299,0.285-0.145,0.698,0.088c2.053,1.154,1.683-0.402,2.197-0.333 c0.268-0.531,0.359-0.253,0.449-0.961l0.631-0.171c-0.019-0.831-0.425-1.376,0.281-1.905c-0.268-0.047,0.397-0.149,0.004-0.003 c-0.002,0.001-0.002,0.002-0.004,0.003c0.034,0.007,0.078,0.012,0.146,0.015c0.061,0.003,0.087,0.008,0.095,0.014 c0.013-0.004,0.025-0.008,0.047-0.016c0.213-0.061,0.049-0.039,0.256-0.21c0.265-0.65,0.536-1.075,0.266-1.83 c-0.208-0.582-0.626-0.981-0.736-1.399c-1.165-0.507-0.024-1.366-2.685-1.573c-0.485-0.038-0.079-0.042-0.521-0.209 c-0.358-0.135-1.167-0.043-1.542,0.039c-0.534,0.117-1.736,1.251-1.895,1.489c-0.452,0.68-0.746,1.675-0.749,2.658 c0.067,1.063-0.035,1.477,0.313,1.953l0.342,0.281c0.01-0.022,0.052,0.022,0.075,0.038c-0.217,0.515-0.113,0.413-0.392,0.638 c-0.234-0.18-0.534-0.241-0.856-0.232c-0.866,1.199,0.161,0.443-2.053,2.202c-0.725,1.344-1.552,1.818-1.995,4.185l-0.211,0.669 l-0.049,2.55l0.418,3.919c0.041,0.519-0.081,1.055-0.03,1.517l1.156,0.041c-0.324,0.279-0.556,0.313,0.514,1.469 c-2.114,0-4.206,0.304-6.01,0.735V38c0,1.054,0.416,2.005,1.082,2.72c0.718,0.771,1.731,1.259,2.864,1.274h28.112 c0.515-0.008,1.006-0.111,1.457-0.295C40.972,41.101,42,39.672,42,38V37.174z M17.978,26.899c0.471,0.111,0.375,0.34,0.766,0.703 c0.595,0.552,0.402-0.13,0.858,0.241c-0.302,0.194-1.635,1.1-1.971,1.073C17.52,28.362,17.733,27.337,17.978,26.899z M26.815,37.819c-2.186-0.374-5.037-1.786-9.382-2.423l2.55-1.933c0.349-0.35,2.351-1.622,2.665-1.768 c0.271,0.982,1.064,1.117,1.271,1.959c0.115,0.47,0.309,0.836,0.559,1.118c0.385,0.434,0.573,0.205,0.93,0.02 C27.105,36.854,26.92,36.48,26.815,37.819z"/></svg>