<svg xmlns="http://www.w3.org/2000/svg"  viewBox="0 0 48 48" width="1600px" height="1600px"><path fill="#1976D2" d="M25,20L14.2,6.5C13,5,11.8,4,9.3,4L4,4l8.5,13.6c1.4,2.1,2.5,2.3,5.2,2.3L25,20z"/><path fill="#FF1744" d="M27.1,22L45,44l-12.1,0c-2.5,0-4.8-1.3-6.1-3.5c-1.4-2.3-6.6-10.8-7.6-12.6L27.1,22z"/><path fill="#B0BEC5" d="M22,32.7c-1.2-2-3.6-5.9-4-6.6c-0.4-0.9-0.9-1.7-0.3-2.7S20,21,26.1,21c4.7-0.1,8,0.2,9,4c-0.1-0.1-1.2-0.7-3.2-0.7c-8.7,0-11.1,6.3-9.5,9.1L22,32.7z"/><path fill="#D50000" d="M29.2,24.5c-6.5,1.2-8.2,6.4-6.8,8.9c0,0,0,0,0,0c-0.2-1.5,1.1-5.9,9-6.1L29.2,24.5z"/></svg>