<svg xmlns="http://www.w3.org/2000/svg"  viewBox="0 0 48 48" width="1600px" height="1600px"><path fill="#c62828" d="M17,32h-7v-1c2.5,0,1.5-1.5,1.5-1.5L10,26H5.29L4,29.5c0,0-0.5,1.5,2,1.5v1H0v-1c2,0,2.5-1.5,2.5-1.5 l5.5-15L9,14l5.5,15.5c0,0,0.5,1.5,2.5,1.5V32z"/><path fill="#757575" d="M24.93 28.98C24.2 29.62 23.3 30 22.3 30c-2.32 0-4.2-2.02-4.2-4.5 0-2.48 1.88-4.5 4.2-4.5.94 0 1.94.34 2.65 1l1.34-1.5c-1.03-.95-2.54-1.5-3.99-1.5-3.48 0-6.3 2.92-6.3 6.5 0 3.58 2.82 6.5 6.3 6.5 1.45 0 2.94-.62 4-1.48L24.93 28.98zM47 28.5c0 1.93-1.79 3.5-4 3.5-1.43 0-2.9-.66-3.74-1.65l1.36-1.45C40.98 29.53 42.1 30 43 30c1.08 0 2-.69 2-1.5 0-.98-.73-1.39-2.38-2.08C41.09 25.79 39 24.92 39 22.5c0-1.93 1.79-3.5 4-3.5 1.43 0 2.9.66 3.74 1.65l-1.36 1.45C45.02 21.47 43.9 21 43 21c-1.08 0-2 .69-2 1.5 0 .98.73 1.39 2.38 2.08C44.91 25.21 47 26.08 47 28.5zM33 25v2h3v1.93c-.02.016-.04.035-.06.05C35.21 29.62 34.3 30 33.3 30c-2.32 0-4.2-2.02-4.2-4.5 0-2.48 1.88-4.5 4.2-4.5 1 0 1.91.38 2.63 1.02l1.37-1.54c-1.08-.92-2.53-1.48-4-1.48-3.48 0-6.3 2.92-6.3 6.5 0 3.58 2.82 6.5 6.3 6.5 1.78 0 3.02-.59 4.02-1.4.24-.18.46-.39.68-.6v-3-1-1H33z"/><path fill="#f5f5f5" d="M6.455 22.277H7.0440000000000005V25.223000000000003H6.455z" transform="rotate(-45.001 6.75 23.75)"/><path fill="#f5f5f5" d="M5.277 23.455H8.223V24.043999999999997H5.277z" transform="rotate(-45.001 6.75 23.75)"/></svg>