<svg xmlns="http://www.w3.org/2000/svg"  viewBox="0 0 48 48" width="1600px" height="1600px" clip-rule="evenodd"><path fill="#8bc34a" fill-rule="evenodd" d="M48,5.018L44,5l1,17.5h-4	c-0.108-0.326-3.249-10.221-8.842-13.915C26.027,4.566,18,5,18,5c0.753,3.368,0.499,5.975,2.22,9.995	c1.936,4.346,6.28,6.88,9.78,7.505h-4.375c0,0-5-4.5-11.875-4.5C6.759,18,0.645,23.034,0,23.903	c0.538,0.109,3.442,4.534,11.401,5.838c1.151,0.177,2.225,0.257,3.224,0.26c7.591,0.022,10.905-4.404,11-4.5h4.5h0.152	c0,0-5.116,2.05-8.922,8.18c-2.605,4.195-2.201,7.279-3.355,9.125c0,0,1.348,0.2,3.382,0.195c3.376-0.008,8.642-0.579,12.764-3.562	C40.751,34.657,41,25.718,41,25.5h0.125H45c-0.108,0.326-1.107,15.854-1.107,15.854C44.068,41.828,44.904,41.979,46,42	c0.912,0.018,1.773-0.054,1.968-0.103C48.183,41.897,48,5.018,48,5.018z M16.375,27c-0.38-0.004-0.783-0.028-1.21-0.074	c-4.624-0.434-7.206-3.566-7.959-3.676l0,0v0c0,0,0,0,0,0C7.209,23.249,10.251,20.5,13.5,20.5c4.517,0,8.548,4.272,8.548,4.598	C21.95,25.098,20.499,27.048,16.375,27z M34,35c-2.375,3.375-5.75,4-8.353,4c-0.982,0-1.693-0.099-1.88-0.164	c0.734-0.76,0.629-3.961,3.879-8.198C30.791,26.619,35.509,26,36.663,26C36.663,26.652,36.847,30.954,34,35z M28.5,19.75	c-3.991-3.628-4.193-10.298-4.516-10.402c0.645-0.104,4.409-0.728,8.174,3.225h0c3.657,3.849,4.625,8.946,4.625,8.946	S31.25,22.25,28.5,19.75z" clip-rule="evenodd"/></svg>