<svg xmlns="http://www.w3.org/2000/svg"  viewBox="0 0 48 48" width="1600px" height="1600px"><path fill="#311b92" d="M42,37c0,2.8-2.2,5-5,5H11c-2.8,0-5-2.2-5-5V11c0-2.8,2.2-5,5-5h26c2.8,0,5,2.2,5,5V37z"/><path fill="#fff" d="M12,19.2v9.6c0,1.3,0.7,2.5,1.8,3.2l8.3,4.8c1.1,0.7,2.5,0.7,3.7,0l8.3-4.8c1.1-0.7,1.8-1.9,1.8-3.2v-9.6	c0-1.3-0.7-2.5-1.8-3.2l-8.3-4.8c-1.1-0.7-2.5-0.7-3.7,0L13.8,16C12.7,16.7,12,17.9,12,19.2z"/><path fill="#311b92" d="M18.9,28c-0.7,0-1.4-0.4-1.8-1.1c-0.5-0.9-0.1-2,0.7-2.6l4.4-3.5c1.1-0.8,2.5-0.8,3.6,0l4.4,3.5 c0.8,0.6,1.1,1.7,0.7,2.6c-0.6,1.1-2,1.4-3,0.7L24.6,25c-0.4-0.3-0.8-0.3-1.2,0l-3.3,2.6C19.7,27.9,19.3,28,18.9,28z"/></svg>