<svg xmlns="http://www.w3.org/2000/svg"  viewBox="0 0 48 48" width="1600px" height="1600px" baseProfile="basic"><path fill="#78909c" d="M40,7v34c0,2.76-2.24,5-5,5H13c-2.76,0-5-2.24-5-5V7c0-2.76,2.24-5,5-5h22C37.76,2,40,4.24,40,7z"/><path fill="#455a64" d="M40,26.63V41c0,2.76-2.24,5-5,5H13c-2.76,0-5-2.24-5-5V15.8C20.8,17.39,31.98,21.28,40,26.63z"/><path fill="none" stroke="#1d323a" stroke-linecap="round" stroke-linejoin="round" stroke-miterlimit="10" stroke-width="2" d="M40,7	v34c0,2.76-2.24,5-5,5H13c-2.76,0-5-2.24-5-5V7c0-2.76,2.24-5,5-5h22C37.76,2,40,4.24,40,7z"/><polygon fill="#42a5f5" points="32.987,7.58 33.194,11.285 36.365,13.215 32.905,14.558 32.049,18.169 29.703,15.293 26.004,15.596 28.014,12.476 26.583,9.051 30.172,9.999"/><path fill="#42a5f5" d="M21.094,22.107l3.15,4.828c0.09,0.138,0.242,0.223,0.406,0.227l5.763,0.142	c0.414,0.01,0.637,0.491,0.377,0.814l-3.618,4.488c-0.103,0.128-0.137,0.299-0.09,0.457l1.646,5.525	c0.118,0.397-0.27,0.758-0.657,0.61l-5.386-2.054c-0.154-0.059-0.327-0.038-0.462,0.056l-4.746,3.273	c-0.341,0.235-0.804-0.023-0.783-0.437l0.289-5.757c0.008-0.164-0.065-0.322-0.196-0.422l-4.579-3.502	c-0.329-0.252-0.227-0.772,0.173-0.88l5.565-1.504c0.159-0.043,0.286-0.161,0.341-0.317l1.915-5.437	C20.341,21.823,20.868,21.76,21.094,22.107z"/><polygon fill="none" stroke="#f7f7f7" stroke-linecap="round" stroke-linejoin="round" stroke-miterlimit="10" stroke-width="2" points="32.987,7.58 33.194,11.285 36.365,13.215 32.905,14.558 32.049,18.169 29.703,15.293 26.004,15.596 28.014,12.476 26.583,9.051 30.172,9.999"/><path fill="none" stroke="#f7f7f7" stroke-linecap="round" stroke-linejoin="round" stroke-miterlimit="10" stroke-width="2" d="M21.094,22.107l3.15,4.828c0.09,0.138,0.242,0.223,0.406,0.227l5.763,0.142c0.414,0.01,0.637,0.491,0.377,0.814l-3.618,4.488	c-0.103,0.128-0.137,0.299-0.09,0.457l1.646,5.525c0.118,0.397-0.27,0.758-0.657,0.61l-5.386-2.054	c-0.154-0.059-0.327-0.038-0.462,0.056l-4.746,3.273c-0.341,0.235-0.804-0.023-0.783-0.437l0.289-5.757	c0.008-0.164-0.065-0.322-0.196-0.422l-4.579-3.502c-0.329-0.252-0.227-0.772,0.173-0.88l5.565-1.504	c0.159-0.043,0.286-0.161,0.341-0.317l1.915-5.437C20.341,21.823,20.868,21.76,21.094,22.107z"/></svg>