<svg xmlns="http://www.w3.org/2000/svg"  viewBox="0 0 48 48" width="1600px" height="1600px"><path fill="#bdbdbd" d="M18,8c0.494,0,0.958,0.192,1.307,0.542l14.151,14.151c0.721,0.721,0.721,1.894,0,2.614 L19.307,39.459C18.958,39.808,18.494,40,18,40c-0.494,0-0.958-0.192-1.307-0.541L2.541,25.307c-0.721-0.721-0.721-1.894,0-2.614 L16.693,8.542C17.042,8.192,17.506,8,18,8 M18,6c-0.985,0-1.97,0.376-2.721,1.127L1.127,21.279c-1.503,1.503-1.503,3.939,0,5.443 l14.151,14.151C16.03,41.624,17.015,42,18,42s1.97-0.376,2.721-1.127l14.151-14.151c1.503-1.503,1.503-3.939,0-5.443L20.721,7.127 C19.97,6.376,18.985,6,18,6L18,6z"/><path fill="#d32f2f" d="M46.873,21.279c1.503,1.503,1.503,3.939,0,5.443L32.721,40.873c-1.503,1.503-3.939,1.503-5.443,0 L13.127,26.721c-1.503-1.503-1.503-3.94,0-5.443L27.279,7.127c1.503-1.503,3.939-1.503,5.443,0L46.873,21.279z"/></svg>