<svg xmlns="http://www.w3.org/2000/svg"  viewBox="0 0 48 48" width="1600px" height="1600px"><path fill="#ffca28" d="M24,45C12.421,45,3,35.58,3,24S12.421,3,24,3s21,9.42,21,21S35.579,45,24,45z M24,5 C13.523,5,5,13.523,5,24s8.523,19,19,19s19-8.523,19-19S34.477,5,24,5z"/><path fill="#ffca28" d="M37.156,28.862c-0.818,3.115-2.9,5.971-5.737,7.75c-2.832,1.773-6.348,2.516-9.669,1.942 c-3.323-0.511-6.455-2.254-8.574-4.824c-2.153-2.541-3.294-5.853-3.195-9.069l0.066-0.003c0.419,3.177,1.836,6.106,3.966,8.318 c2.12,2.23,4.972,3.668,7.961,4.111c2.996,0.449,6.119-0.103,8.799-1.569c2.683-1.459,4.92-3.796,6.34-6.671L37.156,28.862z"/><path fill="#ffca28" d="M31.414,34.448c-1.32,0.84-2.825,1.391-4.382,1.717c-0.781,0.147-1.579,0.24-2.38,0.234 c-0.4-0.004-0.802-0.002-1.203-0.025l-1.198-0.144c-3.177-0.526-6.206-2.169-8.326-4.65c-2.12-2.461-3.42-5.664-3.434-8.908 c-0.127-3.235,1.038-6.454,3.048-8.861l0.14,0.1c-1.605,2.651-2.357,5.726-2.103,8.711c0.187,2.989,1.408,5.856,3.34,8.1 c1.907,2.286,4.613,3.839,7.523,4.531C25.367,35.892,28.536,35.676,31.414,34.448z"/><path fill="#ffca28" d="M23.692,33.828c-2.868-0.038-5.745-1.418-7.777-3.607c-2.067-2.177-3.208-5.208-3.219-8.211 c-0.048-3.009,1.06-6.009,3.002-8.242c1.933-2.238,4.681-3.723,7.514-4.004c-2.701,0.867-5.024,2.549-6.588,4.741 c-1.584,2.177-2.381,4.839-2.298,7.474c0.063,2.644,1.061,5.199,2.698,7.287C18.668,31.362,20.987,32.932,23.692,33.828z"/><path fill="#ffca28" d="M18.133,28.173c-1.905-1.922-2.926-4.784-2.755-7.595c0.146-2.818,1.399-5.568,3.397-7.557 c1.997-1.995,4.703-3.233,7.477-3.422c2.768-0.19,5.561,0.676,7.651,2.346c-2.331-1.316-5.019-1.795-7.554-1.418 c-2.532,0.377-4.885,1.606-6.607,3.432c-1.758,1.808-2.77,4.233-3.03,6.719C16.423,23.183,16.935,25.761,18.133,28.173z"/><path fill="#ffca28" d="M38,18c-3.465,5.198-10.683,3.641-13.201,8.984c0.768,0.863,1.374,1.964,1.615,3.451 c0.141,0.88,0.039,1.729-0.279,2.458c1.274-0.728,2.495-1.559,3.636-2.494c1.538-1.269,2.95-2.731,3.995-4.463 c-0.899,1.813-2.205,3.415-3.664,4.834c-1.237,1.196-2.597,2.269-4.046,3.216C36.834,34.119,38.989,25.914,38,18z"/><path fill="#ffca28" d="M20.252,28.676l0.049-0.033c1.275,1.727,2.695,3.393,4.398,4.63 c0.011-0.012,0.023-0.023,0.034-0.035c0.651-0.698,0.845-1.701,0.693-2.643C24.67,25.909,19.841,25.762,18,23 c-0.719,4.925,0.856,8.278,4.111,10.451c0.856,0.572,1.546,0.526,2.08,0.224C22.578,32.236,21.349,30.472,20.252,28.676z"/><path fill="#ffca28" d="M23.511,14.362c-1.947,3.103-3.513,6.165-3.567,9.192c0.488,0.361,1.049,0.689,1.627,1.027 c0.481,0.281,0.991,0.58,1.494,0.921c-0.241-1.452-0.375-2.912-0.421-4.371l0.073-0.006c0.228,1.66,1.241,5.047,1.335,5.127 c0.966-1.834,2.446-2.914,4.05-3.695C27.188,19.796,25.169,17.416,23.511,14.362z"/></svg>