<svg xmlns="http://www.w3.org/2000/svg"  viewBox="0 0 48 48" width="1600px" height="1600px"><polygon fill="#757575" points="20,24 17,24 13,35 16,35"/><polygon fill="#757575" points="21,10 24,10 34,35 31,35"/><rect width="17" height="3" x="18" y="24" fill="#757575"/><path fill="#757575" d="M41.882,26C40.883,34.986,33.248,42,24,42c-9.925,0-18-8.075-18-18S14.075,6,24,6	c9.587,0,17.426,7.541,17.949,17h2C43.423,12.438,34.691,4,24,4C12.972,4,4,12.972,4,24s8.972,20,20,20	c10.353,0,18.892-7.907,19.899-18H41.882z"/></svg>