<svg xmlns="http://www.w3.org/2000/svg"  viewBox="0 0 48 48" width="1600px" height="1600px"><path fill="#2482fd" d="M42.54,14.018c0.409-0.667,0.869-1.441,1.26-2.058c0.35-0.59,0.162-1.351-0.422-1.712l-8.189-5.034 c-0.577-0.388-1.36-0.236-1.749,0.341c-0.016,0.024-0.032,0.049-0.047,0.075c-0.328,0.547-0.75,1.258-1.209,2.02 c-3.244,5.349-6.507,4.694-12.39,1.888l-8.094-3.838c-0.628-0.299-1.38-0.032-1.679,0.595c-0.005,0.011-0.01,0.022-0.015,0.034 l-3.899,8.809c-0.275,0.629,0.005,1.363,0.63,1.649c1.713,0.805,5.121,2.41,8.189,3.889C25.986,26.024,35.365,25.665,42.54,14.018z"/><path fill="#1d78f2" d="M19.794,9.538l-8.094-3.838c-0.628-0.299-1.38-0.032-1.679,0.595 c-0.005,0.011-0.01,0.022-0.015,0.034l-3.899,8.809c-0.276,0.629,0.005,1.363,0.63,1.649c1.713,0.805,5.121,2.41,8.189,3.889 c0.116,0.056,0.231,0.108,0.346,0.163L20.207,9.73C20.068,9.665,19.935,9.605,19.794,9.538z"/><path fill="#126ae5" d="M18.398,8.876l-6.699-3.177c-0.628-0.299-1.38-0.032-1.679,0.595 c-0.005,0.011-0.01,0.022-0.015,0.034l-3.899,8.809c-0.276,0.629,0.005,1.363,0.63,1.649c1.445,0.679,4.095,1.927,6.73,3.188 L18.398,8.876z"/><path fill="#0b60da" d="M16.591,8.019l-4.891-2.32c-0.628-0.299-1.38-0.032-1.679,0.595 c-0.005,0.011-0.01,0.022-0.015,0.034l-3.899,8.809c-0.276,0.629,0.005,1.363,0.63,1.649c1.112,0.523,2.941,1.384,4.924,2.327 L16.591,8.019z"/><path fill="#0154ce" d="M14.783,7.162l-1.808-0.857l0,0l-1.276-0.605c-0.628-0.299-1.38-0.032-1.679,0.595 c-0.005,0.011-0.01,0.022-0.015,0.034l-3.899,8.809c-0.276,0.629,0.005,1.363,0.63,1.649c0.308,0.145,0.689,0.324,1.097,0.516 c0.598,0.282,1.277,0.602,2.019,0.953L14.783,7.162z"/><path fill="#2482fd" d="M5.46,33.98c-0.409,0.667-0.869,1.441-1.26,2.058c-0.35,0.59-0.162,1.351,0.422,1.712l8.189,5.034 c0.577,0.388,1.36,0.236,1.749-0.341c0.016-0.024,0.032-0.049,0.047-0.075c0.328-0.547,0.75-1.258,1.209-2.02 c3.244-5.349,6.507-4.694,12.39-1.888l8.094,3.838c0.628,0.299,1.38,0.032,1.679-0.595c0.005-0.011,0.01-0.022,0.015-0.034 l3.899-8.809c0.275-0.629-0.005-1.363-0.63-1.649c-1.713-0.805-5.121-2.41-8.189-3.889C22.014,21.974,12.635,22.333,5.46,33.98z"/><path fill="#1d78f2" d="M28.206,38.46l8.094,3.838c0.628,0.299,1.38,0.032,1.679-0.595c0.005-0.011,0.01-0.022,0.015-0.034 l3.899-8.809c0.276-0.629-0.005-1.363-0.63-1.649c-1.713-0.805-5.121-2.41-8.189-3.889c-0.116-0.056-0.231-0.108-0.346-0.163 l-4.936,11.108C27.932,38.333,28.065,38.393,28.206,38.46z"/><path fill="#126ae5" d="M29.602,39.122l6.699,3.177c0.628,0.299,1.38,0.032,1.679-0.595c0.005-0.011,0.01-0.022,0.015-0.034 l3.899-8.809c0.276-0.629-0.005-1.363-0.63-1.649c-1.445-0.679-4.095-1.927-6.73-3.188L29.602,39.122z"/><path fill="#0b60da" d="M31.409,39.979l4.891,2.32c0.628,0.299,1.38,0.032,1.679-0.595c0.005-0.011,0.01-0.022,0.015-0.034 l3.899-8.809c0.276-0.629-0.005-1.363-0.63-1.649c-1.112-0.523-2.941-1.384-4.924-2.327L31.409,39.979z"/><path fill="#0154ce" d="M33.217,40.836l1.808,0.857l0,0l1.276,0.605c0.628,0.299,1.38,0.032,1.679-0.595 c0.005-0.011,0.01-0.022,0.015-0.034l3.899-8.809c0.276-0.629-0.005-1.363-0.63-1.649c-0.308-0.145-0.689-0.324-1.097-0.516 c-0.598-0.282-1.277-0.602-2.019-0.953L33.217,40.836z"/></svg>