<svg xmlns="http://www.w3.org/2000/svg"  viewBox="0 0 48 48" width="1600px" height="1600px"><path fill="#2db285" d="M42,13.08v21.84c0,1.29-0.34,2.5-0.95,3.54c-0.02,0.01-0.02,0.02-0.03,0.03 c-0.48,0.84-1.14,1.58-1.93,2.14c-0.04,0.03-0.07,0.05-0.09,0.07c-0.11,0.08-0.22,0.16-0.34,0.23c-0.06,0.04-0.12,0.07-0.18,0.11 l-0.33,0.18c-0.5,0.25-1.03,0.45-1.58,0.58c-0.15,0.04-0.29,0.07-0.44,0.09c-0.17,0.04-0.33,0.06-0.5,0.07 C35.39,41.99,35.16,42,34.92,42H13.08c-0.24,0-0.47-0.01-0.71-0.04c-0.21-0.02-0.42-0.05-0.63-0.09c-0.08-0.01-0.17-0.03-0.25-0.05 c-0.17-0.04-0.35-0.08-0.52-0.14c-0.2-0.06-0.41-0.14-0.61-0.23c-0.03,0-0.06-0.01-0.08-0.03c-0.19-0.08-0.39-0.17-0.57-0.27 C7.5,39.95,6,37.61,6,34.92V13.08C6,9.17,9.17,6,13.08,6h21.84c1.05,0,2.04,0.23,2.93,0.64C40.3,7.75,42,10.22,42,13.08z"/><path fill="#f76c55" d="M42,28.52v6.4c0,1.29-0.34,2.5-0.95,3.54c-0.02,0.01-0.02,0.02-0.03,0.03 c-0.96,1.12-1.64,1.88-1.93,2.14c-0.04,0.03-0.07,0.05-0.09,0.07c-0.11,0.08-0.22,0.16-0.34,0.23c-0.06,0.04-0.12,0.07-0.18,0.11 l-0.33,0.18c-0.5,0.25-1.03,0.45-1.58,0.58c-0.15,0.04-0.29,0.07-0.44,0.09c-0.17,0.04-0.33,0.06-0.5,0.07 C35.39,41.99,35.16,42,34.92,42H31L42,28.52z"/><polygon fill="#ffca28" points="42,15.03 42,28.52 31,42 20,42"/><path fill="#64b5f6" d="M42,13.08v1.95L20,42h-6.92c-0.24,0-0.47-0.01-0.71-0.04c-0.21-0.02-0.42-0.05-0.63-0.09 c-0.08-0.01-0.17-0.03-0.25-0.05c-0.17-0.04-0.35-0.08-0.52-0.14c-0.2-0.06-0.41-0.14-0.61-0.23c-0.03,0-0.06-0.01-0.08-0.03 c-0.19-0.08-0.39-0.17-0.57-0.27L37.85,6.64C40.3,7.75,42,10.22,42,13.08z"/><path fill="#ededed" d="M36,13v17c0,1.657-1.343,3-3,3h-5.083c-0.582,0-0.788,0.254-1.167,0.695L22,39.625V34 c0-0.552-0.448-1-1-1h-6c-1.657,0-3-1.343-3-3V13c0-1.657,1.343-3,3-3h18C34.657,10,36,11.343,36,13z"/><path fill="#2db285" d="M24,27.19c3.136,0,5.711-2.407,5.977-5.474c0.025-0.285-0.217-0.526-0.503-0.526H18.526 c-0.286,0-0.528,0.241-0.503,0.526C18.289,24.783,20.864,27.19,24,27.19z"/><path fill="#2db285" d="M22,17.5c0,0.39-0.07,0.77-0.21,1.1C21.29,18.22,20.67,18,20,18s-1.29,0.22-1.79,0.6 C18.07,18.27,18,17.89,18,17.5c0-1.38,0.9-2.5,2-2.5S22,16.12,22,17.5z"/><path fill="#2db285" d="M30,17.5c0,0.39-0.07,0.77-0.21,1.1C29.29,18.22,28.67,18,28,18s-1.29,0.22-1.79,0.6 C26.07,18.27,26,17.89,26,17.5c0-1.38,0.9-2.5,2-2.5S30,16.12,30,17.5z"/></svg>