<svg xmlns="http://www.w3.org/2000/svg"  viewBox="0 0 48 48" width="1600px" height="1600px"><path fill="#2db285" d="M42,13.08v21.84c0,0.16-0.01,0.33-0.02,0.49c-0.02,0.2-0.06,0.4-0.11,0.59c-0.44,1.73-2.01,3-3.87,3 H10c-2.07,0-3.77-1.57-3.98-3.59C6.01,35.25,6,35.08,6,34.92V13.08C6,9.17,9.17,6,13.08,6h21.84C38.83,6,42,9.17,42,13.08z"/><path fill="#2db285" d="M10,39h1.5l-1.79,2.15C7.8,40.11,6.42,38.22,6.09,36c-0.03-0.19-0.06-0.39-0.07-0.59 C6.23,37.43,7.93,39,10,39z"/><path fill="#2db285" d="M41.98,35.41c-0.01,0.2-0.04,0.4-0.07,0.59h-0.04C41.92,35.81,41.96,35.61,41.98,35.41z"/><path fill="#f76c55" d="M41.91,36c-0.29,1.94-1.37,3.62-2.91,4.7c-1.15,0.82-2.56,1.3-4.08,1.3H31l5-6H41.91z"/><polygon fill="#ffca28" points="36,36 31,42 20,42 25,36"/><path fill="#2db285" d="M25,36l-5,6h-6.92c-1.22,0-2.37-0.31-3.37-0.85L14,36H25z"/><path fill="#64b5f6" d="M14,36l-4.29,5.15C7.8,40.11,6.42,38.22,6.09,36H14z"/><path fill="#ededed" d="M36,13v17c0,1.657-1.343,3-3,3h-5.083c-0.582,0-1.136,0.254-1.516,0.695L22,39v-5 c0-0.552-0.448-1-1-1h-6c-1.657,0-3-1.343-3-3V13c0-1.657,1.343-3,3-3h18C34.657,10,36,11.343,36,13z"/><path fill="#2db285" d="M24,27.19c3.136,0,5.711-2.407,5.977-5.474c0.025-0.285-0.217-0.526-0.503-0.526H18.526 c-0.286,0-0.528,0.241-0.503,0.526C18.289,24.783,20.864,27.19,24,27.19z"/><ellipse cx="28" cy="16.5" fill="#2db285" rx="2" ry="2.5"/><path fill="#2db285" d="M22,17.5c0,0.39-0.07,0.77-0.21,1.1C21.29,18.22,20.67,18,20,18s-1.29,0.22-1.79,0.6 C18.07,18.27,18,17.89,18,17.5c0-1.38,0.9-2.5,2-2.5S22,16.12,22,17.5z"/></svg>