<svg xmlns="http://www.w3.org/2000/svg"  viewBox="0 0 48 48" width="1600px" height="1600px"><path fill="#1e88e5" d="M38,42H10c-2.209,0-4-1.791-4-4V10c0-2.209,1.791-4,4-4h28c2.209,0,4,1.791,4,4v28 C42,40.209,40.209,42,38,42z"/><path fill="#fff" d="M38,23.997c0,3.591-1.466,6.844-3.84,9.197C31.786,35.546,28.505,37,24.882,37h-0.723 c-7.245,0-13.118-5.822-13.118-13.003V11.652c0-0.36,0.292-0.652,0.652-0.652H22c0.552,0,1,0.448,1,1v15.608 c0,2.912,2.081,5.273,5.019,5.273h0.289c1.473,0,2.801-0.587,3.761-1.545c0.96-0.952,1.558-2.268,1.558-3.728 c0-2.907-2.38-5.266-5.319-5.266h-2.149c-0.638,0-1.159-0.522-1.159-1.159V12c0-0.552,0.607-1,1.159-1H26 C33.246,11,38,16.82,38,23.997z"/></svg>