<svg xmlns="http://www.w3.org/2000/svg"  viewBox="0 0 48 48" width="1600px" height="1600px"><path fill="#ff6e00" d="M34 28c1.7 0 4.6-1.9 6-3.9 1.4-2.1 2.2-4.6 2-7.1-.2-3-.8-4 0-7 .3-1 1.3-2.3 2-3-4.7.5-8.2 2.8-9 6-1.6 2.8-5.8 14.1-8 15C29.4 28 32.2 28 34 28zM15 27.5c-1.7 0-4.6-1.9-6-3.9-1.4-2.1-2.1-4.6-2-7.1.2-3 .8-4 0-7-.3-1-1.3-2.3-2-3 4.7.5 8.2 2.8 9 6 1.6 2.8 5.8 14.1 8 15C19.6 27.5 16.8 27.5 15 27.5z"/><path fill="#ea5000" d="M27 28c1.9-.2 5.7-1.5 7-3s2-2.9 2-5c0-2.4-.5-4.7-.9-6-.6-2.5-1.1-3.2-1.1-4 0-.6.2-1.7.3-2.2C34.4 7.4 34.8 6.4 35 6c-4 0-6.7 4.7-7.5 6C28.9 17.5 28.1 22.5 27 28zM21 28c-1.9-.2-5.7-1.5-7-3s-2-2.9-2-5c0-2.4.5-4.7.9-6 .6-2.5 1.1-3.2 1.1-4 0-.6-.2-1.7-.3-2.2C13.6 7.4 13.2 6.4 13 6c4 0 6.7 4.7 7.5 6C19.1 17.5 19.9 22.5 21 28z"/><path fill="#ff6e00" d="M24,28.5c5.1,0,6.1-5.2,6.1-7.2c0-5.1-4.2-12.7-6.1-15.3c-2.1,2.9-6.1,10.3-6.1,15.3 C17.9,23.4,18.9,28.5,24,28.5z"/><path fill="#2d9037" d="M11 29c1 .5 4 4 8 2 0-.9 0-2.9 0-4-1-.2-5.1-.9-6.8-.6-1.4.3-2.5 1-3.2 2.6C9.5 28.8 10.4 28.7 11 29zM37 29.1c-1 .5-4 4-8 2 0-.9 0-2.9 0-4 1-.2 4.1-.9 5.8-.6 1.6.3 3.5.9 4.2 2.5C38.5 28.8 37.7 28.8 37 29.1zM23 43c-.2 0-.3 0-.5-.1-.5-.3-.7-.9-.4-1.4.6-1.1 1.1-6.2.9-9.4 0-.6.4-1 .9-1.1.5 0 1 .4 1.1.9.3 3.2-.2 8.9-1.1 10.6C23.7 42.8 23.4 43 23 43z"/><path fill="#2d9037" d="M29,43H18c-0.6,0-1-0.4-1-1s0.4-1,1-1h11c0.6,0,1,0.4,1,1S29.6,43,29,43z"/><path fill="#77b539" d="M24,36c0.6,0,0.7-0.4,1-1c0.6-1.3,3.2-2.6,4-4c1.2-1.2,0.9-2.6,0-4c0,0-3.8,1-5,1c-1.6,0-5-1-5-1 c-1.3,1.3-1.3,2.7,0,4c1.5,0.9,2.8,2.3,4,4C23.2,35.2,23.4,36,24,36z"/></svg>