<svg xmlns="http://www.w3.org/2000/svg"  viewBox="0 0 48 48" width="1600px" height="1600px" baseProfile="basic"><path fill="#7c4dff" d="M7.373,11.443C7.293,9.132,9.094,7,11.529,7h24.946c2.435,0,4.236,2.132,4.155,4.443	c-0.077,2.221,0.023,5.097,0.747,7.443c0.726,2.353,1.951,3.84,3.957,4.031v2.167c-2.006,0.191-3.23,1.678-3.957,4.031	c-0.724,2.345-0.824,5.222-0.747,7.443C40.71,38.868,38.909,41,36.475,41H11.529c-2.434,0-4.236-2.132-4.155-4.443	c0.077-2.221-0.023-5.097-0.747-7.443c-0.726-2.353-1.954-3.84-3.96-4.031v-2.167c2.006-0.191,3.233-1.678,3.96-4.031	C7.35,16.54,7.451,13.664,7.373,11.443z"/><path fill="#fff" d="M27.073,23.464v-0.028c1.853-0.32,3.299-2.057,3.299-3.97c0-1.352-0.52-2.498-1.504-3.312	c-0.981-0.812-2.357-1.241-3.981-1.241H17.45V33.08h7.475c1.942,0,3.555-0.474,4.663-1.372c1.109-0.899,1.696-2.207,1.696-3.783	C31.283,25.544,29.593,23.756,27.073,23.464z M23.59,22.608h-3.181V17.29h3.784c2.076,0,3.219,0.911,3.219,2.565	C27.413,21.63,26.055,22.608,23.59,22.608z M20.409,24.834h3.759c2.716,0,4.092,0.981,4.092,2.916c0,1.932-1.357,2.953-3.925,2.953	h-3.926V24.834z"/></svg>