<svg xmlns="http://www.w3.org/2000/svg"  viewBox="0 0 48 48" width="1600px" height="1600px"><polygon fill="#ffc107" points="22.17,35.5 23.626,28.222 32.12,20.5 24.17,20.5 25.771,12.5 46.83,12.5 45.367,19.813 36.143,27.5 44.83,27.5 43.229,35.5"/><polygon fill="#ffc107" points="1.17,35.5 2.626,28.222 11.12,20.5 3.17,20.5 4.771,12.5 25.83,12.5 24.367,19.813 15.143,27.5 23.83,27.5 22.229,35.5"/><path fill="#212121" d="M45,11H5.18c-0.953,0-1.774,0.673-1.961,1.608l-1.4,7C1.572,20.845,2.518,22,3.78,22H5h2.24 l-4.771,4.338c-0.79,0.719-1.33,1.672-1.54,2.719l-0.871,4.355C-0.313,35.268,1.107,37,3,37h39c1.43,0,2.661-1.009,2.942-2.412 l1-5C46.313,27.732,44.893,26,43,26h-2.714l5.363-4.469c0.702-0.585,1.182-1.392,1.362-2.288l0.931-4.654 C48.313,12.732,46.893,11,45,11z M23.058,18.412l-0.13,0.648L11,29h10.941l-0.882,4.412L20.941,34H3l1-5l11-10H5l1-5h17.941 L23.058,18.412z M44,19L32,29h11l-1,5H24.059l0.882-4.412l0.131-0.654L36,19h-9.941l0.882-4.412L27.059,14H45L44,19z"/></svg>