<svg xmlns="http://www.w3.org/2000/svg"  viewBox="0 0 48 48" width="1600px" height="1600px"><polygon fill="#212121" points="23,30.591 14,33.864 14,1.136 23,8.5"/><polygon fill="#212121" points="25,30.591 34,33.864 34,1.136 25,8.5"/><g><polygon fill="#212121" points="21.824,38 23,38 23,46 25,46 25,38 26.176,38 27,36 21,36"/><path fill="#212121" d="M17,36h-3v10h3c1.103,0,2-0.897,2-2v-2c0-0.366-0.106-0.705-0.278-1C18.894,40.705,19,40.366,19,40 v-2C19,36.897,18.103,36,17,36z M16,38h1l0.001,2H17h-1V38z M16,44v-2h1l0.001,2H16z"/><path fill="#212121" d="M34,39v-1c0-1.103-0.897-2-2-2h-1c-1.103,0-2,0.897-2,2v1.465c0,0.67,0.333,1.292,0.891,1.664 L32,42.535V44h-1v-1h-2v1c0,1.103,0.897,2,2,2h1c1.103,0,2-0.897,2-2v-1.465c0-0.67-0.333-1.292-0.891-1.664L31,39.465V38h1v1H34z"/></g></svg>