<svg xmlns="http://www.w3.org/2000/svg"  viewBox="0 0 48 48" width="1600px" height="1600px"><path fill="#ffca28" d="M25.25,23c0,0,1.134-5,5.41-5c4.151,0,5.534,1.5,9.308,1.5c3.019,0,4.025-1.5,4.025-1.5 s0.377,6-4.528,6c-4.151,0-6.692-2-10.465-2C27.491,22,26.625,22.125,25.25,23z"/><path fill="#fbc02d" d="M43.993,18c0,0-1.006,1.5-4.025,1.5c-3.773,0-5.157-1.5-9.308-1.5c-1.33,0-2.355,0.484-3.138,1.15 c0.983,0.716,1.731,1.698,2.136,2.87C33.07,22.236,35.568,24,39.465,24C44.371,24,43.993,18,43.993,18z"/><path fill="#ffb300" d="M43.993,18c0,0-1.006,1.5-4.025,1.5c-3.762,0-5.15-1.49-9.273-1.499 c1.141,1.272,1.921,2.868,2.19,4.635C34.912,23.222,36.875,24,39.465,24C44.371,24,43.993,18,43.993,18z"/><path fill="#ff9800" d="M43.993,18c0,0-1.006,1.5-4.025,1.5c-2.248,0-3.65-0.532-5.292-0.962 c0.773,1.507,1.231,3.198,1.3,4.992c1.067,0.267,2.195,0.47,3.489,0.47C44.371,24,43.993,18,43.993,18z"/><path fill="#f57f17" d="M43.993,18c0,0-1.006,1.5-4.025,1.5c-0.625,0-1.181-0.044-1.698-0.113 c0.467,1.446,0.726,3.003,0.729,4.604C39.157,23.997,39.302,24,39.465,24C44.371,24,43.993,18,43.993,18z"/><path fill="#ef6c00" d="M43.993,18c0,0-0.701,1.017-2.618,1.378c0.333,1.252,0.533,2.559,0.588,3.902 C44.213,21.682,43.993,18,43.993,18z"/><path fill="#ffca28" d="M25.591,24.177c0,0,4.337-2.734,7.361,0.29c2.935,2.935,2.853,4.974,5.521,7.642 c2.135,2.135,3.907,1.785,3.907,1.785s-3.976,4.509-7.445,1.041C32,32,31.618,28.79,28.95,26.121 C27.882,25.054,27.182,24.53,25.591,24.177z"/><path fill="#fbc02d" d="M42.38,33.895c0,0-1.772,0.349-3.907-1.786c-2.668-2.668-2.586-4.707-5.521-7.642 c-0.94-0.94-2.008-1.323-3.032-1.405c0.189,1.201,0.023,2.425-0.519,3.54c2.26,2.565,2.778,5.578,5.534,8.334 C38.404,38.404,42.38,33.895,42.38,33.895z"/><path fill="#ffb300" d="M42.38,33.895c0,0-1.772,0.349-3.907-1.786c-2.66-2.66-2.588-4.696-5.497-7.617 c-0.093,1.706-0.669,3.386-1.729,4.826c1.019,1.847,1.857,3.786,3.688,5.617C38.404,38.404,42.38,33.895,42.38,33.895z"/><path fill="#ff9800" d="M42.38,33.895c0,0-1.772,0.349-3.907-1.786c-1.59-1.59-2.205-2.957-3.062-4.423 c-0.519,1.612-1.391,3.132-2.61,4.449c0.565,0.943,1.22,1.885,2.134,2.8C38.404,38.404,42.38,33.895,42.38,33.895z"/><path fill="#f57f17" d="M42.38,33.895c0,0-1.772,0.349-3.907-1.786c-0.442-0.442-0.804-0.866-1.121-1.28 c-0.692,1.353-1.61,2.637-2.74,3.771c0.108,0.116,0.208,0.221,0.324,0.336C38.404,38.404,42.38,33.895,42.38,33.895z"/><path fill="#ef6c00" d="M42.38,33.895c0,0-1.215,0.224-2.826-0.877c-0.649,1.121-1.432,2.186-2.344,3.175 C39.931,36.653,42.38,33.895,42.38,33.895z"/><path fill="#ffca28" d="M25,25.25c0,0,5,1.134,5,5.41c0,4.151-1.5,5.534-1.5,9.308c0,2.241,0.826,3.372,1.252,3.807 C29.9,43.926,30,43.993,30,43.993S29.909,43.999,29.75,44C28.614,44.006,24,43.767,24,39.465c0-4.151,2-6.692,2-10.465 C26,27.491,25.875,26.625,25,25.25z"/><path fill="#fbc02d" d="M30,43.993c0,0-0.057-0.038-0.149-0.123c-0.379-0.347-1.351-1.473-1.351-3.902 c0-3.773,1.5-5.157,1.5-9.308c0-1.33-0.484-2.355-1.15-3.138c-0.716,0.983-1.698,1.731-2.87,2.136C25.764,33.07,24,35.568,24,39.465 c0,4.302,4.614,4.541,5.75,4.535C29.909,43.999,30,43.993,30,43.993z"/><path fill="#ffb300" d="M30,43.993c0,0-0.057-0.038-0.149-0.123c-0.379-0.347-1.351-1.473-1.351-3.902 c0-3.762,1.49-5.15,1.499-9.273c-1.272,1.141-2.868,1.921-4.635,2.19C24.778,34.912,24,36.875,24,39.465 c0,4.158,4.311,4.521,5.625,4.534C29.861,44.002,30,43.993,30,43.993z"/><path fill="#ff9800" d="M30,43.993c0,0-0.057-0.038-0.149-0.123c-0.379-0.347-1.351-1.473-1.351-3.902 c0-2.248,0.532-3.65,0.962-5.292c-1.507,0.773-3.198,1.231-4.992,1.3C24.203,37.043,24,38.172,24,39.465 c0,4.302,4.614,4.541,5.75,4.535C29.909,43.999,30,43.993,30,43.993z"/><path fill="#f57f17" d="M30,44c0,0-0.057-0.045-0.149-0.129c-0.379-0.347-1.351-1.473-1.351-3.902 c0-0.625,0.044-1.181,0.113-1.698c-1.446,0.467-3.003,0.726-4.604,0.729C24.003,39.157,24,39.302,24,39.465 c0,4.158,4.311,4.521,5.625,4.534L30,44z"/><path fill="#ef6c00" d="M30,44c0,0-0.074-0.058-0.189-0.17c-0.312-0.303-0.925-1.055-1.189-2.456 c-1.252,0.333-2.559,0.533-3.902,0.588c1.295,1.823,3.958,2.025,4.922,2.036C29.867,44.001,30,44,30,44z"/><path fill="#ffca28" d="M23.823,25.591c0,0,2.734,4.337-0.29,7.361c-2.935,2.935-4.974,2.853-7.642,5.521 c-2.135,2.135-1.785,3.907-1.785,3.907s-4.509-3.976-1.041-7.445C16,32,19.21,31.618,21.879,28.95 C22.946,27.882,23.47,27.182,23.823,25.591z"/><path fill="#fbc02d" d="M14.105,42.38c0,0-0.349-1.772,1.786-3.907c2.668-2.668,4.707-2.586,7.642-5.521 c0.94-0.94,1.323-2.008,1.405-3.032c-1.201,0.189-2.425,0.023-3.54-0.519c-2.565,2.26-5.578,2.778-8.334,5.534 C9.596,38.404,14.105,42.38,14.105,42.38z"/><path fill="#ffb300" d="M14.105,42.38c0,0-0.349-1.772,1.786-3.907c2.66-2.66,4.696-2.588,7.617-5.497 c-1.706-0.093-3.386-0.669-4.826-1.729c-1.847,1.019-3.786,1.857-5.617,3.688C9.596,38.404,14.105,42.38,14.105,42.38z"/><path fill="#ff9800" d="M14.105,42.38c0,0-0.349-1.772,1.786-3.907c1.59-1.59,2.957-2.205,4.423-3.062 c-1.612-0.519-3.132-1.391-4.449-2.61c-0.943,0.565-1.885,1.22-2.8,2.134C9.596,38.404,14.105,42.38,14.105,42.38z"/><path fill="#f57f17" d="M14.105,42.38c0,0-0.349-1.772,1.786-3.907c0.442-0.442,0.866-0.804,1.28-1.121 c-1.353-0.692-2.637-1.61-3.771-2.74c-0.116,0.108-0.221,0.208-0.336,0.324C9.596,38.404,14.105,42.38,14.105,42.38z"/><path fill="#ef6c00" d="M14.105,42.38c0,0-0.224-1.215,0.877-2.826c-1.121-0.649-2.186-1.432-3.175-2.344 C11.347,39.931,14.105,42.38,14.105,42.38z"/><path fill="#ffca28" d="M22.75,25c0,0-1.134,5-5.41,5c-4.151,0-5.534-1.5-9.308-1.5c-3.019,0-4.025,1.5-4.025,1.5 s-0.377-6,4.528-6c4.151,0,6.692,2,10.465,2C20.509,26,21.375,25.875,22.75,25z"/><path fill="#fbc02d" d="M4.007,30c0,0,1.006-1.5,4.025-1.5c3.773,0,5.157,1.5,9.308,1.5c1.33,0,2.355-0.484,3.138-1.15 c-0.983-0.716-1.731-1.698-2.136-2.87C14.93,25.764,12.432,24,8.535,24C3.629,24,4.007,30,4.007,30z"/><path fill="#ffb300" d="M4.007,30c0,0,1.006-1.5,4.025-1.5c3.762,0,5.15,1.49,9.273,1.499 c-1.141-1.272-1.921-2.868-2.19-4.635C13.088,24.778,11.125,24,8.535,24C3.629,24,4.007,30,4.007,30z"/><path fill="#ff9800" d="M4.007,30c0,0,1.006-1.5,4.025-1.5c2.248,0,3.65,0.532,5.292,0.962 c-0.773-1.507-1.231-3.198-1.3-4.992C10.957,24.203,9.828,24,8.535,24C3.629,24,4.007,30,4.007,30z"/><path fill="#f57f17" d="M4.007,30c0,0,1.006-1.5,4.025-1.5c0.625,0,1.181,0.044,1.698,0.113 c-0.467-1.446-0.726-3.003-0.729-4.604C8.843,24.003,8.698,24,8.535,24C3.629,24,4.007,30,4.007,30z"/><path fill="#ef6c00" d="M4.007,30c0,0,0.701-1.017,2.618-1.378c-0.333-1.252-0.533-2.559-0.588-3.902 C3.787,26.318,4.007,30,4.007,30z"/><path fill="#ffca28" d="M22.409,23.823c0,0-4.337,2.734-7.361-0.29c-2.935-2.935-2.853-4.974-5.521-7.642 c-2.135-2.135-3.907-1.785-3.907-1.785s3.976-4.509,7.445-1.041C16,16,16.382,19.21,19.05,21.879 C20.118,22.946,20.818,23.47,22.409,23.823z"/><path fill="#fbc02d" d="M5.62,14.105c0,0,1.772-0.349,3.907,1.786c2.668,2.668,2.586,4.707,5.521,7.642 c0.94,0.94,2.008,1.323,3.032,1.405c-0.189-1.201-0.023-2.425,0.519-3.54c-2.26-2.565-2.778-5.578-5.534-8.334 C9.596,9.596,5.62,14.105,5.62,14.105z"/><path fill="#ffb300" d="M5.62,14.105c0,0,1.772-0.349,3.907,1.786c2.66,2.66,2.588,4.696,5.497,7.617 c0.093-1.706,0.669-3.386,1.729-4.826c-1.019-1.847-1.857-3.786-3.688-5.617C9.596,9.596,5.62,14.105,5.62,14.105z"/><path fill="#ff9800" d="M5.62,14.105c0,0,1.772-0.349,3.907,1.786c1.59,1.59,2.205,2.957,3.062,4.423 c0.519-1.612,1.391-3.132,2.61-4.449c-0.565-0.943-1.22-1.885-2.134-2.8C9.596,9.596,5.62,14.105,5.62,14.105z"/><path fill="#f57f17" d="M5.62,14.105c0,0,1.772-0.349,3.907,1.786c0.442,0.442,0.804,0.866,1.121,1.28 c0.692-1.353,1.61-2.637,2.74-3.771c-0.108-0.116-0.208-0.221-0.324-0.336C9.596,9.596,5.62,14.105,5.62,14.105z"/><path fill="#ef6c00" d="M5.62,14.105c0,0,1.215-0.224,2.826,0.877c0.649-1.121,1.432-2.186,2.344-3.175 C8.069,11.347,5.62,14.105,5.62,14.105z"/><path fill="#ffca28" d="M23,22.75c0,0-5-1.134-5-5.41c0-4.151,1.5-5.534,1.5-9.308c0-3.019-1.5-4.025-1.5-4.025 s6-0.377,6,4.528c0,4.151-2,6.692-2,10.465C22,20.509,22.125,21.375,23,22.75z"/><path fill="#fbc02d" d="M18,4.007c0,0,1.5,1.006,1.5,4.025c0,3.773-1.5,5.157-1.5,9.308c0,1.33,0.484,2.355,1.15,3.138 c0.716-0.983,1.698-1.731,2.87-2.136C22.236,14.93,24,12.432,24,8.535C24,3.629,18,4.007,18,4.007z"/><path fill="#ffb300" d="M18,4.007c0,0,1.5,1.006,1.5,4.025c0,3.762-1.49,5.15-1.499,9.273 c1.272-1.141,2.868-1.921,4.635-2.19C23.222,13.088,24,11.125,24,8.535C24,3.629,18,4.007,18,4.007z"/><path fill="#ff9800" d="M18,4.007c0,0,1.5,1.006,1.5,4.025c0,2.248-0.532,3.65-0.962,5.292 c1.507-0.773,3.198-1.231,4.992-1.3C23.797,10.957,24,9.828,24,8.535C24,3.629,18,4.007,18,4.007z"/><path fill="#f57f17" d="M18,4.007c0,0,1.5,1.006,1.5,4.025c0,0.625-0.044,1.181-0.113,1.698 c1.446-0.467,3.003-0.726,4.604-0.729C23.997,8.843,24,8.698,24,8.535C24,3.629,18,4.007,18,4.007z"/><path fill="#ef6c00" d="M18,4.007c0,0,1.017,0.701,1.378,2.618c1.252-0.333,2.559-0.533,3.902-0.588 C21.682,3.787,18,4.007,18,4.007z"/><path fill="#ffca28" d="M24.177,22.409c0,0-2.734-4.337,0.29-7.361c2.935-2.935,4.974-2.853,7.642-5.521 c2.135-2.135,1.785-3.907,1.785-3.907s4.509,3.976,1.041,7.445C32,16,28.79,16.382,26.121,19.05 C25.054,20.118,24.53,20.818,24.177,22.409z"/><path fill="#fbc02d" d="M33.895,5.62c0,0,0.349,1.772-1.786,3.907c-2.668,2.668-4.707,2.586-7.642,5.521 c-0.94,0.94-1.323,2.008-1.405,3.032c1.201-0.189,2.425-0.023,3.54,0.519c2.565-2.26,5.578-2.778,8.334-5.534 C38.404,9.596,33.895,5.62,33.895,5.62z"/><path fill="#ffb300" d="M33.895,5.62c0,0,0.349,1.772-1.786,3.907c-2.66,2.66-4.696,2.588-7.617,5.497 c1.706,0.093,3.386,0.669,4.826,1.729c1.847-1.019,3.786-1.857,5.617-3.688C38.404,9.596,33.895,5.62,33.895,5.62z"/><path fill="#ff9800" d="M33.895,5.62c0,0,0.349,1.772-1.786,3.907c-1.59,1.59-2.957,2.205-4.423,3.062 c1.612,0.519,3.132,1.391,4.449,2.61c0.943-0.565,1.885-1.22,2.8-2.134C38.404,9.596,33.895,5.62,33.895,5.62z"/><path fill="#f57f17" d="M33.895,5.62c0,0,0.349,1.772-1.786,3.907c-0.442,0.442-0.866,0.804-1.28,1.121 c1.353,0.692,2.637,1.61,3.771,2.74c0.116-0.108,0.221-0.208,0.336-0.324C38.404,9.596,33.895,5.62,33.895,5.62z"/><path fill="#ef6c00" d="M33.895,5.62c0,0,0.224,1.215-0.877,2.826c1.121,0.649,2.186,1.432,3.175,2.344 C36.653,8.069,33.895,5.62,33.895,5.62z"/></svg>