<svg xmlns="http://www.w3.org/2000/svg"  viewBox="0 0 48 48" width="1600px" height="1600px" baseProfile="basic"><path fill="#263238" d="M42,14v20c0,4.418-3.582,8-8,8H14c-4.418,0-8-3.582-8-8V14c0-4.418,3.582-8,8-8h20	C38.418,6,42,9.582,42,14z"/><path fill="#fafafa" d="M11,19.714C11,17.143,12.681,12,18.843,12c3.642,0,5.042,2,5.042,2l-2.241,2.286	c0,0-1.12-1.143-2.801-1.143c-2.101,0-4.482,2-4.482,4.571s1.261,5.143,4.482,5.143c2.381,0,3.361-1.714,3.361-1.714l2.241,2.286	c0,0-1.401,2.571-5.602,2.571S11,25.714,11,19.714z"/><path fill="#fafafa" d="M34.8,16.491l2.2-2.386c0,0-1.375-2.105-4.95-2.105s-5.5,1.684-5.5,4.491	c0,4.491,7.15,4.772,7.15,6.737c0,1.404-1.513,1.684-2.2,1.684c-1.65,0-3.3-1.684-3.3-1.684L26,25.474c0,0,1.925,2.526,5.5,2.526	c4.4,0,5.5-3.228,5.5-4.772c0-4.491-7.15-4.491-7.15-6.737c0-1.123,0.825-1.684,2.2-1.684C33.013,14.807,34.112,15.649,34.8,16.491z"/><path fill="#4db6ac" d="M6.069,35c0.493,3.945,3.852,7,7.931,7h20c4.079,0,7.438-3.055,7.931-7H6.069z"/></svg>