<svg xmlns="http://www.w3.org/2000/svg"  viewBox="0 0 48 48" width="1600px" height="1600px"><path fill="#bbdefb" d="M44,24c0,11.044-8.956,20-20,20S4,35.044,4,24S12.956,4,24,4S44,12.956,44,24z"/><path fill="#1976d2" d="M36 29.035c-.16.195-.379.398-.656.617s-.629.422-1.047.613c-.422.188-.914.344-1.488.469-.57.129-1.227.191-1.965.191-.871 0-1.668-.145-2.387-.43-.719-.289-1.336-.711-1.848-1.266s-.91-1.238-1.188-2.047C25.141 26.379 25 25.449 25 24.406v-.797c0-1.043.133-1.969.402-2.781s.648-1.496 1.141-2.051c.488-.555 1.082-.977 1.781-1.27.695-.289 1.473-.434 2.324-.434.875 0 1.633.109 2.273.328.637.219 1.172.527 1.602.922.426.395.762.867 1.004 1.418.242.547.398 1.148.473 1.805h-2.703c-.059-.34-.145-.648-.262-.922s-.277-.508-.48-.703-.457-.344-.754-.449c-.301-.105-.656-.156-1.07-.156-.953 0-1.672.359-2.168 1.078-.492.719-.742 1.785-.742 3.199v.813c0 1.414.27 2.484.809 3.207.535.723 1.324 1.082 2.359 1.082.336 0 .625-.02.871-.063s.457-.098.633-.164.324-.133.441-.211.219-.156.293-.23V26H31v-2h5V29.035zM20.219 26.309c-.031.375-.102.711-.211.996-.117.305-.285.555-.496.758-.215.199-.48.348-.797.449-.32.098-.695.145-1.137.145-.492 0-.914-.086-1.262-.262s-.633-.441-.852-.793c-.223-.352-.379-.789-.484-1.313-.102-.527-.152-1.137-.152-1.836v-.906c0-1.434.23-2.488.691-3.172.457-.68 1.16-1.023 2.098-1.023.457 0 .844.055 1.164.164.32.105.586.266.789.477s.359.469.465.777c.098.27.156.582.191.922H23c-.074-.629-.223-1.219-.457-1.758-.254-.586-.605-1.086-1.055-1.512-.453-.422-1-.75-1.645-.988s-1.387-.359-2.227-.359c-.852 0-1.625.152-2.316.453-.691.305-1.277.738-1.762 1.297-.484.563-.859 1.246-1.125 2.047-.266.805-.398 1.699-.398 2.695v.887c0 .996.129 1.895.383 2.691.258.801.625 1.48 1.105 2.043.477.563 1.059.992 1.75 1.293.688.297 1.461.449 2.328.449.832 0 1.574-.117 2.227-.348s1.203-.555 1.66-.965.816-.902 1.074-1.477c.254-.555.402-1.168.453-1.832H20.219z"/></svg>