<svg xmlns="http://www.w3.org/2000/svg"  viewBox="0 0 48 48" width="1600px" height="1600px"><path fill="#1dc576" d="M14,6h20c4.418,0,8,3.582,8,8v20c0,4.418-3.582,8-8,8H14c-4.418,0-8-3.582-8-8V14	C6,9.582,9.582,6,14,6z"/><path fill="#fff" d="M27.733,30.182c-0.703,0.217-1.452,0.339-2.233,0.339c-3.937,0-7.128-2.992-7.128-6.682	s3.191-6.682,7.128-6.682c2.723,0,4.112,1.3,6.761,1.3h1.133v-5.362H32.34c-2.434,0-4.197-1.096-7.032-1.096	c-7.009,0-12.692,5.373-12.692,12s5.682,12,12.692,12c3.078,0,5.898-1.037,8.096-2.76v-5.614	C31.442,29.109,29.253,29.838,27.733,30.182z"/></svg>