<svg xmlns="http://www.w3.org/2000/svg"  viewBox="0 0 48 48" width="1600px" height="1600px" baseProfile="basic"><path fill="#f50057" d="M41.58,13.85c-1.86-3.24-5.18-5.11-8.65-5.3C31.02,5.63,27.73,3.7,24,3.7s-7.02,1.93-8.93,4.85	c-3.48,0.19-6.79,2.08-8.65,5.3C4.55,17.09,4.58,20.9,6.15,24c-1.57,3.1-1.6,6.91,0.27,10.15c1.86,3.23,5.18,5.11,8.65,5.3	c1.91,2.92,5.2,4.85,8.93,4.85s7.02-1.93,8.93-4.85c3.47-0.19,6.79-2.07,8.65-5.3c1.87-3.24,1.84-7.05,0.27-10.15	C43.42,20.9,43.45,17.09,41.58,13.85z M14,37.31c-2.37-0.46-4.55-1.91-5.85-4.16c-1.3-2.25-1.47-4.85-0.68-7.14	c0.78,0.93,1.73,1.75,2.85,2.39c1.19,0.68,2.47,1.12,3.79,1.31c-0.49,1.22-0.76,2.55-0.76,3.94C13.35,34.93,13.58,36.16,14,37.31z M14,27.67c-0.93-0.18-1.84-0.51-2.68-1c-1.18-0.68-2.14-1.61-2.85-2.67c0.71-1.06,1.67-1.99,2.85-2.67c0.84-0.49,1.75-0.82,2.68-1	c-0.42,1.14-0.65,2.38-0.65,3.67C13.35,25.29,13.58,26.53,14,27.67z M10.32,19.6c-1.12,0.64-2.07,1.46-2.85,2.39	c-0.79-2.29-0.62-4.89,0.68-7.14c1.3-2.25,3.48-3.7,5.85-4.16c-0.42,1.15-0.65,2.38-0.65,3.66c0,1.39,0.27,2.72,0.76,3.94	C12.79,18.48,11.51,18.92,10.32,19.6z M24,5.7c2.61,0,4.95,1.16,6.53,2.99c-1.2,0.2-2.39,0.62-3.5,1.26	c-1.21,0.7-2.23,1.6-3.03,2.64c-0.8-1.04-1.82-1.94-3.03-2.64c-1.11-0.64-2.3-1.06-3.5-1.26C19.05,6.86,21.39,5.7,24,5.7z M26.25,27.89c1,0.71,2.13,1.23,3.35,1.56c0.31,0.08,0.62,0.15,0.94,0.2c-1.25,1.45-2.96,2.47-4.91,2.84	C26.17,31.03,26.39,29.46,26.25,27.89z M25.63,15.51c1.95,0.37,3.66,1.39,4.91,2.84c-0.31,0.05-0.63,0.12-0.94,0.2	c-1.22,0.33-2.35,0.85-3.35,1.56c0.03-0.3,0.04-0.61,0.04-0.91C26.29,17.94,26.07,16.69,25.63,15.51z M22.37,32.49	c-1.95-0.37-3.66-1.39-4.91-2.84c0.32-0.05,0.63-0.12,0.94-0.2c1.22-0.33,2.35-0.85,3.35-1.56c-0.03,0.3-0.04,0.61-0.04,0.91	C21.71,30.06,21.93,31.31,22.37,32.49z M21.75,20.11c-1-0.71-2.13-1.23-3.35-1.56c-0.31-0.08-0.63-0.15-0.94-0.2	c1.25-1.45,2.96-2.47,4.91-2.84C21.83,16.97,21.61,18.54,21.75,20.11z M16.23,10.55c1.27,0.08,2.56,0.45,3.74,1.13	c0.86,0.5,1.6,1.12,2.21,1.83c-2.53,0.43-4.76,1.77-6.35,3.66c-0.31-0.88-0.48-1.83-0.48-2.82C15.35,12.99,15.67,11.7,16.23,10.55z M15.83,21.18c1,1.19,2.25,2.15,3.66,2.82c-1.41,0.67-2.66,1.63-3.66,2.82c-0.31-0.89-0.48-1.83-0.48-2.82S15.52,22.07,15.83,21.18z M16.23,37.45c-0.56-1.15-0.88-2.44-0.88-3.8c0-0.99,0.17-1.94,0.48-2.82c1.59,1.89,3.82,3.23,6.35,3.66	c-0.61,0.71-1.35,1.33-2.21,1.83C18.79,37,17.51,37.37,16.23,37.45z M24,42.3c-2.61,0-4.95-1.16-6.53-2.99	c1.2-0.2,2.38-0.62,3.5-1.26c1.21-0.7,2.23-1.6,3.03-2.64c0.8,1.04,1.82,1.94,3.03,2.64c1.12,0.64,2.3,1.06,3.5,1.26	C28.95,41.14,26.61,42.3,24,42.3z M31.77,37.45c-1.28-0.08-2.56-0.45-3.74-1.13c-0.86-0.5-1.6-1.12-2.21-1.83	c2.53-0.43,4.76-1.77,6.35-3.66c0.31,0.88,0.48,1.83,0.48,2.82C32.65,35.01,32.33,36.3,31.77,37.45z M32.17,26.82	c-1-1.19-2.25-2.15-3.66-2.82c1.41-0.67,2.66-1.63,3.66-2.82c0.31,0.89,0.48,1.83,0.48,2.82S32.48,25.93,32.17,26.82z M32.17,17.17	c-1.59-1.89-3.82-3.23-6.35-3.66c0.61-0.71,1.35-1.33,2.21-1.83c1.18-0.68,2.47-1.05,3.74-1.13c0.56,1.15,0.88,2.44,0.88,3.8	C32.65,15.34,32.48,16.29,32.17,17.17z M34,10.69c2.37,0.46,4.55,1.91,5.85,4.16c0.78,1.36,1.15,2.84,1.15,4.31	c0,0.97-0.16,1.92-0.47,2.83c-0.78-0.93-1.73-1.75-2.85-2.39c-1.19-0.68-2.47-1.12-3.79-1.31c0.49-1.22,0.76-2.55,0.76-3.94	C34.65,13.07,34.42,11.84,34,10.69z M34,20.33c0.93,0.18,1.84,0.51,2.68,1c1.18,0.68,2.14,1.61,2.85,2.67	c-0.71,1.06-1.67,1.99-2.85,2.67c-0.84,0.49-1.75,0.82-2.68,1c0.42-1.14,0.65-2.38,0.65-3.67C34.65,22.71,34.42,21.47,34,20.33z M39.85,33.15c-1.3,2.25-3.48,3.7-5.85,4.16c0.42-1.15,0.65-2.38,0.65-3.66c0-1.39-0.27-2.72-0.76-3.94	c1.32-0.19,2.6-0.63,3.79-1.31c1.12-0.64,2.07-1.46,2.85-2.39C41.32,28.3,41.15,30.9,39.85,33.15z"/></svg>