<svg xmlns="http://www.w3.org/2000/svg"  viewBox="0 0 48 48" width="1600px" height="1600px" baseProfile="basic"><path fill="#ed2224" d="M36.872,42H11.128C8.296,42,6,39.704,6,36.872V11.128C6,8.296,8.296,6,11.128,6h25.745 C39.704,6,42,8.296,42,11.128v25.745C42,39.704,39.704,42,36.872,42z"/><path fill="#fff" d="M20,29h-4.5c-2.481,0-4.5-2.019-4.5-4.5s2.019-4.5,4.5-4.5h1.346v2H15.5c-1.379,0-2.5,1.122-2.5,2.5 s1.121,2.5,2.5,2.5H18v-7.404c0-1.174,0.684-2.163,1.742-2.519c1.132-0.378,2.336,0.053,3.15,1.127l3.107,4.3v-2.909 c0-1.174,0.684-2.163,1.742-2.519c1.132-0.378,2.336,0.053,3.15,1.127l3.107,4.3v-5.111h2v11.293l-6.715-9.293 c-0.269-0.354-0.613-0.52-0.905-0.421c-0.238,0.08-0.38,0.312-0.38,0.623v9.091l-6.715-9.293c-0.27-0.354-0.614-0.52-0.905-0.421 c-0.238,0.08-0.38,0.312-0.38,0.623V29z"/><path fill="#fff" d="M36.236,32.059c-0.934,0-1.819-0.463-2.398-1.297L31,26.831v2.574c0,1.171-0.744,2.16-1.896,2.521 c-1.23,0.386-2.51-0.072-3.267-1.163L23,26.831V29c0,1.654-1.346,3-3,3h-4.5C11.364,32,8,28.636,8,24.5s3.364-7.5,7.5-7.5h1.441v2 H15.5c-3.032,0-5.5,2.467-5.5,5.5s2.468,5.5,5.5,5.5H20c0.552,0,1-0.449,1-1v-8.357l6.47,8.963 c0.391,0.562,0.892,0.456,1.037,0.411C28.622,29.98,29,29.829,29,29.404v-8.761l6.47,8.963c0.391,0.562,0.892,0.456,1.037,0.411 C36.622,29.98,37,29.829,37,29.404V17.394h2v12.011c0,1.171-0.744,2.16-1.896,2.521C36.815,32.016,36.523,32.059,36.236,32.059z"/></svg>