<svg xmlns="http://www.w3.org/2000/svg"  viewBox="0 0 48 48" width="1600px" height="1600px" baseProfile="basic"><path fill="#42a5f5" d="M42,37c0,2.762-2.238,5-5,5H11c-2.761,0-5-2.238-5-5V11c0-2.762,2.239-5,5-5h26c2.762,0,5,2.238,5,5 V37z"/><path fill="#fff" d="M31.62,13v8.43C30.51,19.33,28.66,18,26,18c-4.86,0-8.81,4.43-8.81,9.88 c0,5.44,3.95,9.87,8.81,9.87c2.66,0,4.5-1.32,5.62-3.41v2.78h5.26V12L31.62,13z M26.505,32.75c-2.482,0-4.505-2.19-4.505-4.87 c0-2.69,2.023-4.88,4.505-4.88C28.977,23,31,25.19,31,27.88C31,30.56,28.977,32.75,26.505,32.75z"/></svg>