<svg xmlns="http://www.w3.org/2000/svg"  viewBox="0 0 48 48" width="1600px" height="1600px"><polygon fill="#424242" points="35,27 35,12 33,12 33,10 25,10 25,42 32,42 32,38 35,38 35,33 39,33 39,27"/><polygon fill="#eceff1" points="29,34 29,30 27,28 23,28 23,20 26,20 26,17 23,17 23,10 19,10 19,6 15,6 15,13 13,13 13,26 11,26 11,29 8,29 8,32 13,32 13,38 15,38 15,42 23,42 23,37 21,37 21,36 27,36"/><rect width="2" height="3" x="23" y="37" fill="#212121"/><rect width="2" height="10" x="11" y="13" fill="#212121"/><rect width="2" height="14" x="25" y="2" fill="#212121" transform="rotate(90 26 9)"/><rect width="2" height="6" x="23" y="34" fill="#212121" transform="rotate(90 24 37)"/><rect width="2" height="6" x="23" y="24" fill="#212121" transform="rotate(90 24 27)"/><rect width="2" height="4" x="23" y="14" fill="#212121" transform="rotate(90 24 16)"/><rect width="2" height="3" x="20" y="17" fill="#212121" transform="rotate(-180 21 18.5)"/><rect width="2" height="3" x="26" y="17" fill="#212121" transform="rotate(-180 27 18.5)"/><rect width="2" height="2" x="28" y="15" fill="#c62828" transform="rotate(-180 29 16)"/><rect width="2" height="2" x="30" y="13" fill="#c62828" transform="rotate(-180 31 14)"/><rect width="2" height="2" x="21" y="40" fill="#212121" transform="rotate(90 22 41)"/><rect width="2" height="2" x="25" y="40" fill="#212121" transform="rotate(90 26 41)"/><rect width="2" height="2" x="27" y="34" fill="#212121" transform="rotate(90 28 35)"/><rect width="2" height="2" x="23" y="31" fill="#212121" transform="rotate(90 24 32)"/><rect width="2" height="2" x="19" y="34" fill="#212121" transform="rotate(90 20 35)"/><rect width="2" height="2" x="27" y="28" fill="#212121" transform="rotate(90 28 29)"/><rect width="2" height="2" x="19" y="28" fill="#212121" transform="rotate(90 20 29)"/><rect width="3" height="3" x="17" y="14" fill="#212121" transform="rotate(90 18.5 15.5)"/><rect width="2" height="6" x="23" y="37" fill="#212121" transform="rotate(90 24 40)"/><rect width="2" height="4" x="16" y="3" fill="#212121" transform="rotate(90 17 5)"/><rect width="2" height="3" x="19" y="6" fill="#212121"/><rect width="2" height="3" x="13" y="6" fill="#212121"/><rect width="2" height="4" x="30" y="3" fill="#212121" transform="rotate(90 31 5)"/><rect width="2" height="3" x="33" y="6" fill="#212121"/><rect width="2" height="3" x="27" y="6" fill="#212121"/><rect width="2" height="2" x="15" y="9" fill="#212121"/><rect width="2" height="2" x="13" y="11" fill="#212121"/><rect width="2" height="2" x="13" y="23" fill="#212121"/><rect width="2" height="3" x="7" y="29" fill="#212121"/><rect width="2" height="2" x="11" y="25" fill="#212121"/><rect width="5" height="2" x="25" y="21" fill="#eceff1"/><rect width="2" height="4" x="14" y="38" fill="#212121"/><rect width="2" height="5" x="17.5" y="40.5" fill="#212121" transform="rotate(90 18.5 43)"/><rect width="2" height="8" x="12" y="30" fill="#212121"/><rect width="2" height="4" x="17" y="30" fill="#212121"/><rect width="2" height="4" x="29" y="30" fill="#212121"/><rect width="2" height="2" x="9" y="27" fill="#212121"/><rect width="2" height="2" x="14" y="28" fill="#212121"/><rect width="4" height="2" x="9" y="32" fill="#212121"/><rect width="2" height="10" x="35" y="13" fill="#212121" transform="rotate(-180 36 18)"/><rect width="2" height="2" x="33" y="23" fill="#212121" transform="rotate(-180 34 24)"/><rect width="2" height="3" x="39" y="29" fill="#212121" transform="rotate(-180 40 30.5)"/><rect width="2" height="2" x="35" y="25" fill="#212121" transform="rotate(-180 36 26)"/><rect width="2" height="4" x="32" y="38" fill="#212121" transform="rotate(-180 33 40)"/><rect width="2" height="5" x="28.5" y="40.5" fill="#212121" transform="rotate(90 29.5 43)"/><rect width="2" height="8" x="34" y="30" fill="#212121" transform="rotate(-180 35 34)"/><rect width="2" height="2" x="37" y="27" fill="#212121" transform="rotate(-180 38 28)"/><rect width="2" height="2" x="32" y="28" fill="#212121" transform="rotate(-180 33 29)"/><rect width="4" height="2" x="35" y="32" fill="#212121" transform="rotate(-180 37 33)"/><rect width="4" height="2" x="29" y="9" fill="#212121" transform="rotate(-180 31 10)"/><rect width="2" height="2" x="33" y="11" fill="#212121" transform="rotate(-180 34 12)"/><rect width="2" height="5" x="23" y="22" fill="#212121"/><rect width="2" height="10" x="23" y="9" fill="#212121"/><rect width="4" height="2" x="29" y="6" fill="#424242"/><rect width="2" height="3" x="30" y="19" fill="#eceff1"/><rect width="2" height="2" x="32" y="18" fill="#eceff1"/><rect width="2" height="4" x="23" y="19" fill="#212121" transform="rotate(90 24 21)"/></svg>