<svg xmlns="http://www.w3.org/2000/svg"  viewBox="0 0 48 48" width="1600px" height="1600px"><path fill="#90caf9" d="M38,31.675C38,39.055,31.754,45,24,45s-14-5.945-14-13.325C10,22.548,24,4,24,4S38,22.548,38,31.675z"/><path fill="#78909c" d="M33.999,41.01c-0.003,0.007-0.006,0.013-0.009,0.02C31.45,43.48,27.92,45,24,45 c-7.44,0-13.5-5.47-13.97-12.45v-0.1c-0.02-0.34-0.02-0.69-0.02-1.03c0.015-0.683,0.105-1.415,0.26-2.185 c1.04-5.171,5.353-9.187,10.627-9.234c0.034,0,0.068,0,0.102,0c6,0,9.58,6,8.58,7.78c-1.07-2.656-3.974-4.388-7.15-3.58 c-2.721,0.692-4.489,3.131-4.428,5.939c0.062,2.858,2.034,4.915,4.889,5.762C30.012,38.003,34.144,39.003,33.999,41.01z"/><path fill="#bbdefb" d="M24,43c-6.617,0-12-5.26-12-11.725c0-7.588,10.738-22.248,11.195-22.868L24,7.314l0.805,1.093 C25.262,9.027,36,23.688,36,31.275C36,37.74,30.617,43,24,43z M24,10.722c-2.506,3.575-10,14.75-10,20.554 C14,36.638,18.486,41,24,41s10-4.362,10-9.725C34,25.469,26.507,14.296,24,10.722z"/></svg>