<svg xmlns="http://www.w3.org/2000/svg"  viewBox="0 0 48 48" width="1600px" height="1600px"><path fill="#d50000" d="M25.25,4.063c-7.732,0.584-13.979,6.514-15.065,14.095C9.422,19.954,9,21.929,9,24 c0,1.294,0.182,2.544,0.492,3.742C8.538,25.517,8,23.072,8,20.5c0-5.67,2.569-10.746,6.598-14.142C8.298,9.729,4,16.37,4,24 c0,2.981,0.674,5.802,1.849,8.346c4.155,6.548,12.406,9.344,19.701,6.606c-0.068-0.003-0.133-0.016-0.201-0.02 c3.525-0.316,6.699-1.855,9.1-4.191c-1.752,2.299-4.013,4.156-6.655,5.428C25.214,41.411,22.484,42,19.795,42 c-2.315,0-4.597-0.446-6.732-1.276C16.209,42.789,19.964,44,24,44c6.697,0,12.62-3.32,16.252-8.388 c2.306-4.418,2.502-9.666,0.469-14.291c-1.026-2.334-2.565-4.369-4.501-5.988c-1.847-2.596-4.492-4.582-7.581-5.59 c2.384,0.388,4.715,1.238,6.843,2.577c3.137,1.974,5.582,4.809,7.07,8.196c0.689,1.568,1.141,3.201,1.378,4.852 C43.962,24.914,44,24.462,44,24C44,13.394,35.695,4.714,25.25,4.063z"/><path fill="#f44336" d="M24,39c-8.271,0-15-6.729-15-15S15.729,9,24,9s15,6.729,15,15S32.271,39,24,39z"/><path fill="#fff" d="M26,13c-0.442,0-0.876,0.146-1.231,0.424C24.284,13.803,24,14.384,24,15v2.232 C23.368,17.078,22.699,17,22,17c-6.328,0-8,5.887-8,9s1.672,9,8,9c0.977,0,1.895-0.153,2.735-0.451C25.079,34.831,25.52,35,26,35h4 c1.105,0,2-0.895,2-2V16c0-0.918-0.625-1.718-1.515-1.94l-4-1C26.325,13.02,26.162,13,26,13L26,13z"/><path fill="#d50000" d="M26,15v5.578C25.115,19.663,23.843,19,22,19c-6,0-6,7-6,7s0,7,6,7c1.843,0,3.115-0.663,4-1.578V33h4 V16L26,15z M23,30c-3,0-3-3-3-4s0-4,3-4c1.407,0,2.37,0.881,3,1.815v4.37C25.37,29.119,24.407,30,23,30z"/></svg>