<svg xmlns="http://www.w3.org/2000/svg"  viewBox="0 0 48 48" width="1600px" height="1600px"><path fill="#039be5" d="M6,10c0-2.2,1.8-4,4-4h28c2.2,0,4,1.8,4,4v28c0,2.2-1.8,4-4,4H10c-2.2,0-4-1.8-4-4V10z"/><path fill="#fff" d="M22 6H26V42H22z"/><path fill="#fff" d="M6 22H42V26H6z"/><path fill="#fff" d="M29.7,26H22v-7.7c0-4.2,3.4-7.7,7.7-7.7c4.2,0,7.7,3.4,7.7,7.7C37.3,22.6,33.9,26,29.7,26z M26,22 h3.7c2,0,3.7-1.6,3.7-3.7c0-2-1.6-3.7-3.7-3.7c-2,0-3.7,1.6-3.7,3.7V22z"/><path fill="#fff" d="M26,26h-7.7c-4.2,0-7.7-3.4-7.7-7.7c0-4.2,3.4-7.7,7.7-7.7c4.2,0,7.7,3.4,7.7,7.7V26z M18.3,14.7 c-2,0-3.7,1.6-3.7,3.7c0,2,1.6,3.7,3.7,3.7H22v-3.7C22,16.3,20.4,14.7,18.3,14.7z"/></svg>