<svg xmlns="http://www.w3.org/2000/svg"  viewBox="0 0 48 48" width="1600px" height="1600px" clip-rule="evenodd"><path fill="#d81b60" d="M42,37c0,2.762-2.238,5-5,5H11c-2.761,0-5-2.238-5-5V11c0-2.762,2.239-5,5-5h26c2.762,0,5,2.238,5,5	V37z"/><g transform="translate(48.96 48.215)"><defs><filter id="m686XbfPb_8do9oxPzopAa" width="5.985" height="5.869" x="-30.257" y="-21.56" filterUnits="userSpaceOnUse"><feColorMatrix values="1 0 0 0 0 0 1 0 0 0 0 0 1 0 0 0 0 0 1 0"/></filter></defs><mask id="m686XbfPb_8do9oxPzopAb" width="5.985" height="5.869" x="-30.257" y="-21.56" maskUnits="userSpaceOnUse"><g filter="url(#m686XbfPb_8do9oxPzopAa)"><path fill="#fff" fill-rule="evenodd" d="M-30.257-15.691h5.985v-5.869h-5.984 L-30.257-15.691L-30.257-15.691z" clip-rule="evenodd"/></g></mask><path fill="#ffebee" fill-rule="evenodd" d="M-29.191-20.591 c0.26-0.079,0.624-0.007,0.812,0.162l1.774,1.59c0.063,0.056,0.093,0.039,0.068-0.04l-0.552-1.733 c-0.025-0.078-0.068-0.206-0.063-0.288c0.011-0.185,0.148-0.358,0.354-0.421l0.703-0.215c0.26-0.079,0.531,0.046,0.604,0.281 l1.2,3.811c0.074,0.234-0.077,0.489-0.337,0.568l-1.017,0.311c-0.087,0.026-0.209,0.003-0.272-0.052l-1.971-1.714 c-0.064-0.055-0.095-0.037-0.071,0.041l0.567,1.793c0.074,0.234-0.077,0.488-0.337,0.568l-0.703,0.215 c-0.26,0.079-0.531-0.046-0.605-0.281l-1.2-3.81c-0.074-0.234,0.077-0.489,0.338-0.569L-29.191-20.591L-29.191-20.591z" clip-rule="evenodd" mask="url(#m686XbfPb_8do9oxPzopAb)"/></g><path fill="#ffebee" fill-rule="evenodd" d="M33.402,24.053l0.157,1.833 c0.014,0.164-0.038,0.18-0.116,0.035l-1.009-1.871c-0.117-0.218-0.41-0.333-0.654-0.257l-0.267,0.083 c-0.244,0.076-0.423,0.338-0.4,0.584l0.195,2.133c0.015,0.165-0.037,0.181-0.116,0.036l-1.022-1.874 c-0.119-0.217-0.412-0.332-0.656-0.256l-0.672,0.209c-0.244,0.076-0.358,0.261-0.253,0.413l2.455,3.602 c0.14,0.205,0.451,0.309,0.694,0.234l0.54-0.168c0.162-0.051,0.282-0.225,0.267-0.389l-0.193-2.128 c-0.015-0.164,0.035-0.179,0.112-0.033l0.983,1.879c0.077,0.146,0.27,0.224,0.433,0.173l0.572-0.178 c0.244-0.076,0.442-0.339,0.442-0.587l0.004-4.254c0.001-0.248-0.197-0.388-0.44-0.312l-0.678,0.211 c-0.146,0.046-0.269,0.158-0.34,0.294C33.362,23.613,33.388,23.888,33.402,24.053 M36.64,21.8c0,0-0.013,0.247-0.018,0.44 c-0.01,0.333,0.012,1.216,0.036,1.486c0.035,0.4,0.108,1.453,0.103,1.478c-0.007,0.032-0.014,0.045-0.044,0.078 c-0.072,0.077-0.113,0.07-0.234,0.044c-0.159-0.034-0.301-0.073-0.444-0.178c-0.285-0.21-0.381-0.73-0.425-1.04 c-0.157-1.079-0.145-1.577-0.046-2.725c0.002-0.019,0-0.022-0.012-0.037c-0.199-0.227-0.356-0.525-0.43-0.781 c-0.233-0.811,0.004-1.747,0.342-2.54c0.026-0.061,0.194-0.441,0.313-0.469c0.119-0.027,0.177,0.103,0.192,0.221 c0.049,0.393-0.105,0.848-0.195,1.216c-0.101,0.411-0.104,0.569-0.11,0.921c-0.001,0.055,0.027,0.302,0.037,0.333 c0.029,0.085,0.079,0.189,0.079,0.189s0.198-0.555,0.334-0.903c0.074-0.19,0.13-0.318,0.197-0.458 c0.068-0.142,0.34-0.654,0.421-0.793c0.17-0.289,0.247-0.412,0.463-0.615c0.171-0.161,0.343-0.238,0.577-0.165 c0.369,0.115,0.628,0.506,0.763,0.845c0.161,0.405,0.211,0.899,0.129,1.308c-0.097,0.488-0.307,0.88-0.637,1.265 c-0.336,0.393-0.769,0.719-1.25,0.844C36.717,21.782,36.64,21.8,36.64,21.8 M37.716,18.274c-0.185,0.273-0.38,0.777-0.468,1.035 c-0.118,0.342-0.212,0.723-0.319,1.027c-0.024,0.067-0.081,0.304-0.075,0.31c0.012,0.012,0.127-0.027,0.242-0.081 c0.244-0.116,0.541-0.395,0.684-0.596c0.218-0.307,0.327-0.675,0.315-1.066c-0.006-0.177-0.086-0.53-0.247-0.65 C37.815,18.229,37.75,18.223,37.716,18.274 M32.504,22.594c-0.048-0.022-0.096-0.047-0.141-0.076 c-0.007-0.005-0.144-0.121-0.176-0.159c-0.027-0.033-0.048-0.057-0.069-0.085c-0.152-0.2-0.214-0.423-0.235-0.678 c-0.02-0.239,0.02-0.261,0.047-0.604c0.002-0.018,0.001-0.036-0.001-0.054c-0.008-0.043-0.159-0.31-0.188-0.4 c-0.045-0.138,0.034-0.269,0.212-0.34c0.016-0.006,0.028-0.009,0.039-0.016c0.068-0.039,0.074-0.191,0.082-0.314 c0.01-0.172,0.029-0.436,0.029-0.436s-0.246,0.013-0.382,0.002c-0.153-0.012-0.276-0.05-0.375-0.157 c-0.116-0.126-0.091-0.222,0.049-0.314c0.052-0.034,0.474-0.248,0.61-0.308c0.169-0.076,0.328-0.146,0.491-0.215 c0.14-0.059,0.787-0.328,1.002-0.383c0.327-0.084,0.577-0.011,0.845,0.209c0.144,0.118,0.264,0.272,0.137,0.41 c-0.195,0.211-0.959,0.44-1.099,0.482c-0.223,0.067-0.533,0.151-0.533,0.151l-0.007,0.564c0,0,0.548-0.162,0.856-0.252 c0.075-0.022,0.151-0.04,0.195-0.043c0.169-0.01,0.258,0.095,0.314,0.267c0.067,0.202,0.056,0.306-0.099,0.38 c-0.08,0.038-1.022,0.313-1.146,0.365c-0.077,0.032-0.158,0.069-0.158,0.069s-0.017,0.196-0.024,0.392 c-0.007,0.204-0.003,0.408-0.003,0.408s0.049-0.011,0.088-0.023c0.067-0.019,0.131-0.047,0.181-0.072 c0.273-0.134,0.682-0.32,1.017-0.476c0.18-0.084,0.272-0.125,0.406-0.028c0.118,0.085,0.19,0.165,0.234,0.296 c0.041,0.124-0.03,0.235-0.122,0.358c-0.29,0.388-0.836,0.877-1.293,1.065c-0.211,0.087-0.271,0.078-0.476,0.083 c-0.04,0.001-0.19-0.023-0.191-0.03C32.619,22.633,32.533,22.606,32.504,22.594 M28.841,23.71 c-0.295-0.021-0.479-0.434-0.554-0.647c-0.245-0.696-0.341-1.735-0.294-2.466c0.014-0.209,0.023-0.546,0.24-0.588 c0.149-0.029,0.286,0.053,0.401,0.145c0.319,0.255,0.635,0.515,0.946,0.78c0.295,0.253,0.579,0.51,0.854,0.739 c0.033,0.027,0.065,0.054,0.098,0.068c0.042,0.018,0.075,0.01,0.082-0.019c0.003-0.013-0.112-0.367-0.142-0.436 c-0.047-0.109-0.081-0.2-0.122-0.295c-0.119-0.276-0.326-0.652-0.475-0.904c-0.167-0.282-0.356-0.572-0.512-0.846 c-0.051-0.089-0.099-0.18-0.125-0.271c-0.038-0.132,0.026-0.229,0.179-0.219c0.298,0.018,0.828,0.502,0.992,0.677 c0.054,0.059,0.297,0.368,0.358,0.458c0.207,0.299,0.376,0.622,0.505,0.962c0.133,0.349,0.257,0.875,0.207,1.27 c-0.019,0.145-0.082,0.351-0.152,0.466c-0.109,0.179-0.375,0.372-0.612,0.315c-0.259-0.062-0.809-0.591-0.902-0.682 c-0.32-0.31-0.895-0.93-0.975-0.995c-0.019-0.017-0.044-0.027-0.07-0.028c-0.023,0-0.019,0.047-0.016,0.078 c0.024,0.221,0.283,1.217,0.29,1.243c0.042,0.168,0.151,0.579,0.161,0.793c0.006,0.14,0.006,0.257-0.099,0.347 C29.027,23.716,28.957,23.718,28.841,23.71 M26.069,21.834c0.018-0.003,0.022-0.004,0.041-0.006c0.313-0.046,0.625-0.076,0.88-0.04 c0.237,0.033,0.393,0.115,0.566,0.291c0.262,0.268,0.401,0.707,0.343,1.087c-0.043,0.282-0.236,0.564-0.435,0.742 c-0.207,0.185-0.428,0.307-0.69,0.415c-0.459,0.188-1,0.238-1.486,0.153c-0.288-0.05-0.657-0.174-0.891-0.402 c-0.172-0.168-0.244-0.429-0.159-0.659c0.135-0.366,0.591-0.569,0.952-0.658c0.277-0.069,0.792-0.124,1.077-0.106 c0.08,0.005,0.374,0.032,0.434,0.066c0.042,0.024,0.077,0.065,0.075,0.114c-0.007,0.198-0.42,0.419-0.541,0.474 c-0.326,0.149-0.54,0.071-0.97,0.03c-0.107-0.01-0.247-0.015-0.348,0.004c-0.181,0.034-0.378,0.143-0.356,0.344 c0.011,0.104,0.153,0.163,0.253,0.176c0.233,0.03,0.411,0.013,0.616-0.042c0.606-0.163,1.255-0.455,1.648-0.945 c0.054-0.068,0.1-0.157,0.075-0.245c-0.003-0.012-0.047-0.102-0.08-0.104c-0.005,0-0.009,0.003-0.013,0.003 c-0.012,0-0.039-0.026-0.061-0.041c-0.048-0.033-0.209-0.054-0.24-0.057c-0.373-0.044-1.006,0.066-1.33,0.129 c-0.34,0.067-0.875,0.173-1.005,0.191c-0.135,0.018-0.282,0.032-0.409,0.014c-0.126-0.018-0.269-0.1-0.338-0.216 c-0.124-0.209-0.129-0.508-0.055-0.724c0.194-0.567,0.914-0.967,1.471-1.204c0.538-0.228,1.442-0.487,2.074-0.353 c0.097,0.021,0.153,0.051,0.161,0.146c0.014,0.18-0.083,0.326-0.224,0.418c-0.148,0.097-0.477,0.214-0.623,0.265 c-0.65,0.227-1.455,0.436-2.035,0.787c-0.045,0.028-0.124,0.075-0.144,0.114c-0.068,0.135,0.222,0.085,0.287,0.081 c0.019-0.002,0.023-0.002,0.041-0.005L26.069,21.834 M21.767,22.864c0.078,0.191,0.135,0.577,0.14,0.628 c0.017,0.117,0.006,0.403,0.001,0.438c-0.022,0.161-0.051,0.32-0.089,0.478c-0.06,0.257-0.252,0.692-0.383,0.892 c-0.488,0.745-1.399,1.35-2.23,1.701c-0.564,0.238-1.239,0.419-1.891,0.482c-0.187,0.017-0.374,0.03-0.562,0.04 c0,0,0.037,0.126,0.053,0.218c0.007,0.042,0.007,0.157,0,0.197c-0.018,0.105-0.079,0.174-0.18,0.225 c-0.122,0.062-0.258,0.109-0.393,0.092c-0.221-0.027-0.344-0.19-0.439-0.391c-0.077-0.162-0.191-0.448-0.191-0.448 s-0.167-0.028-0.307-0.053c-0.42-0.077-0.833-0.191-1.233-0.34c-0.106-0.039-0.568-0.244-0.673-0.299 c-0.293-0.151-0.563-0.31-0.801-0.544c-0.186-0.182-0.276-0.366-0.25-0.623c0.037-0.359,0.429-0.733,0.706-0.962 c0.203-0.168,0.858-0.611,1.146-0.74c0.136-0.061,0.344-0.163,0.355-0.176c0.004-0.005,0.007-0.01,0.01-0.016 c0.004-0.011-0.076-0.334-0.112-0.449c-0.036-0.114-0.164-0.891-0.182-1.058c-0.01-0.09-0.04-0.44,0.002-0.547 c0.027-0.071,0.105-0.088,0.179-0.067c0.405,0.114,0.724,0.825,0.857,1.194c0.081,0.225,0.188,0.567,0.188,0.567 s0.392-0.125,0.637-0.188c0.237-0.061,0.509-0.098,0.765-0.129c0.328-0.04,0.977-0.082,1.379-0.005 c0.331,0.064,0.672,0.232,0.835,0.467c0.15,0.217,0.185,0.384,0.123,0.636c-0.069,0.282-0.281,0.539-0.544,0.63 c-0.078,0.027-0.389,0.074-0.501,0.029c-0.045-0.018-0.057-0.069-0.041-0.111c0.006-0.016,0.125-0.129,0.195-0.197 c0.035-0.034,0.063-0.068,0.086-0.106c0.051-0.08,0.094-0.164,0.064-0.24c-0.039-0.099-0.163-0.13-0.277-0.141 c-0.534-0.052-1.535,0.064-2.005,0.168c-0.184,0.041-0.443,0.106-0.443,0.106l0.786,2.528c0,0,0.224-0.021,0.399-0.042 c0.1-0.012,0.518-0.093,0.627-0.121c0.831-0.214,1.73-0.551,2.385-1.124c0.287-0.251,0.536-0.532,0.691-0.861 c0.205-0.434,0.227-0.956,0.042-1.441c-0.202-0.529-0.771-1.063-1.19-1.369c-1.106-0.805-2.737-1.262-4.1-1.412 c-1.391-0.154-2.705-0.096-4.04,0.233c-0.344,0.085-1.081,0.315-1.426,0.525c-0.05,0.03-0.098,0.064-0.145,0.09 c-0.036,0.02-0.091,0.064-0.104,0.082c-0.007,0.011-0.014,0.023-0.014,0.023s0.027,0.006,0.052,0.01 c0.044,0.006,0.215-0.031,0.306-0.04c0.081-0.008,0.173,0.01,0.222,0.058c0.046,0.045,0.062,0.086,0.038,0.141 c-0.055,0.127-0.38,0.202-0.528,0.219c-0.153,0.018-0.348,0.027-0.418-0.091c-0.082-0.138-0.053-0.306-0.015-0.463 c0.076-0.316,0.258-0.52,0.557-0.702c0.425-0.258,0.982-0.513,1.413-0.654c0.975-0.319,1.958-0.414,2.996-0.399 c0.594,0.009,1.389,0.08,1.986,0.183c0.428,0.073,1.116,0.235,1.511,0.358c0.125,0.039,0.869,0.313,0.987,0.365 c0.277,0.121,0.549,0.253,0.815,0.397c0.469,0.256,1.081,0.679,1.428,1.054c0.083,0.09,0.154,0.182,0.257,0.284 c0.035,0.035,0.208,0.255,0.245,0.322c0.037,0.067,0.092,0.164,0.096,0.168C21.639,22.58,21.747,22.781,21.767,22.864 M14.778,24.548c0,0-0.369,0.135-0.62,0.237c-0.319,0.13-0.909,0.414-1.23,0.644c-0.096,0.068-0.288,0.222-0.275,0.337 c0.013,0.119,0.11,0.189,0.215,0.258c0.061,0.04,0.391,0.214,0.481,0.254c0.376,0.166,1.104,0.38,1.612,0.439 c0.174,0.02,0.458,0.039,0.458,0.039s-0.229-0.726-0.433-1.448C14.878,24.927,14.778,24.548,14.778,24.548 M22.36,21.407 c0.021-0.002,0.042-0.001,0.063,0.001c0.193,0.016,0.311,0.156,0.404,0.319c0.217,0.381,0.52,1.273,0.638,1.623 c0.088,0.261,0.171,0.522,0.257,0.782c0.073,0.219,0.176,0.511,0.19,0.732c0.005,0.08-0.021,0.181-0.079,0.247 c-0.068,0.075-0.254,0.134-0.363,0.141c-0.27,0.02-0.4-0.119-0.508-0.359c-0.259-0.575-0.555-1.762-0.648-2.272 c-0.03-0.168-0.119-0.71-0.096-0.955C22.226,21.584,22.245,21.417,22.36,21.407 M21.698,20.771 c-0.023,0.045-0.034,0.141-0.053,0.212c-0.01,0.038-0.034,0.091-0.053,0.115c-0.067,0.086-0.137,0.11-0.24,0.061 c-0.143-0.068-0.254-0.205-0.303-0.355c-0.021-0.066-0.031-0.141-0.06-0.194c-0.048-0.088-0.171-0.158-0.247-0.234 c-0.091-0.089-0.192-0.26-0.233-0.377c-0.127-0.367-0.029-0.766,0.148-1.11c0.179-0.346,0.45-0.671,0.773-0.93 c0.304-0.245,0.783-0.488,1.201-0.466c0.136,0.007,0.339,0.063,0.457,0.148c0.025,0.018,0.048,0.039,0.07,0.045 c0.02,0.006,0.065-0.003,0.103-0.006c0.127-0.013,0.328,0.028,0.417,0.069c0.178,0.082,0.291,0.178,0.376,0.338 c0.172,0.323,0.082,0.757-0.078,1.052c-0.274,0.506-0.577,0.893-1.017,1.229c-0.193,0.147-0.509,0.323-0.763,0.372 c-0.079,0.015-0.163,0.017-0.239,0.033c-0.039,0.008-0.189,0.012-0.207,0.006C21.728,20.771,21.701,20.765,21.698,20.771 M22.35,19.93c0.313-0.114,0.598-0.295,0.832-0.532c0.234-0.233,0.554-0.652,0.41-0.995c-0.044-0.104-0.141-0.177-0.253-0.19 c-0.14-0.018-0.201,0.01-0.346,0.101c-0.105,0.067-0.152,0.101-0.241,0.194c-0.266,0.276-0.603,0.798-0.757,1.183 c-0.036,0.09-0.068,0.19-0.098,0.259c-0.018,0.043-0.031,0.081-0.026,0.089C21.892,20.074,22.225,19.975,22.35,19.93 M21.121,19.952c0,0,0.061-0.192,0.116-0.34c0.1-0.27,0.308-0.663,0.477-0.918c0.052-0.078,0.114-0.167,0.114-0.167 s-0.122,0.049-0.19,0.084c-0.16,0.082-0.361,0.318-0.455,0.46c-0.155,0.233-0.299,0.583-0.124,0.807 C21.084,19.911,21.121,19.952,21.121,19.952 M26.775,29.645l1.722-1.874c0.129-0.14,0.082-0.29-0.105-0.335l-2.511-0.596 c-0.187-0.045-0.292,0.066-0.234,0.247l0.791,2.485C26.495,29.753,26.646,29.785,26.775,29.645 M29.488,27.273 c0.432,1.374-0.348,2.833-1.743,3.259c-1.395,0.426-2.876-0.342-3.309-1.716c-0.432-1.374,0.347-2.833,1.742-3.259 C27.574,25.13,29.056,25.899,29.488,27.273" clip-rule="evenodd"/></svg>