<svg xmlns="http://www.w3.org/2000/svg"  viewBox="0 0 48 48" width="1600px" height="1600px"><path fill="#8c9eff" d="M42,10v28c0,1.1-0.45,2.1-1.17,2.83C40.1,41.55,39.1,42,38,42H10c-2.21,0-4-1.79-4-4V10	c0-1.1,0.45-2.1,1.17-2.83C7.9,6.45,8.9,6,10,6h28C40.21,6,42,7.79,42,10z"/><path fill="#198ab5" d="M42,10v2l-6-6h2C40.21,6,42,7.79,42,10z"/><polygon fill="#2fa0cb" points="42,12 42,18 30,6 36,6"/><polygon fill="#44b5e0" points="42,18 42,24 24,6 30,6"/><polygon fill="#59caf5" points="42,24 42,30 18,6 24,6"/><polygon fill="#59caf5" points="42,30 42,36 12,6 18,6"/><path fill="#59caf5" d="M42,36v2c0,1.1-0.45,2.1-1.17,2.83L7.17,7.17C7.9,6.45,8.9,6,10,6h2L42,36z"/><path fill="#59caf5" d="M40.83,40.83C40.1,41.55,39.1,42,38,42h-2L6,12v-2c0-1.1,0.45-2.1,1.17-2.83L40.83,40.83z"/><polygon fill="#59caf5" points="36,42 30,42 6,18 6,12"/><polygon fill="#59caf5" points="30,42 24,42 6,24 6,18"/><polygon fill="#44b5e0" points="24,42 18,42 6,30 6,24"/><polygon fill="#2fa0cb" points="18,42 12,42 6,36 6,30"/><path fill="#198ab5" d="M12,42h-2c-2.21,0-4-1.79-4-4v-2L12,42z"/><path fill="#fff" d="M27,11H16c-1.657,0-3,1.343-3,3v14c0,1.657,1.343,3,3,3h11c5.523,0,10-4.477,10-10	C37,15.477,32.523,11,27,11z M25,26h-6V16h6c2.761,0,5,2.239,5,5S27.761,26,25,26z"/><path fill="#fff" d="M16.195,33.899c-0.027-0.123-0.079-0.238-0.154-0.345c-0.076-0.106-0.17-0.2-0.283-0.279 s-0.243-0.142-0.391-0.187s-0.305-0.068-0.474-0.068c-0.238,0-0.455,0.039-0.65,0.117c-0.194,0.078-0.36,0.193-0.498,0.346 c-0.137,0.151-0.242,0.342-0.316,0.569s-0.111,0.492-0.111,0.794s0.037,0.567,0.111,0.798c0.074,0.229,0.18,0.423,0.316,0.579 c0.138,0.155,0.302,0.273,0.494,0.354c0.192,0.08,0.407,0.12,0.644,0.12c0.356,0,0.651-0.079,0.883-0.239 c0.23-0.159,0.374-0.393,0.43-0.699h0.312c-0.029,0.195-0.092,0.371-0.185,0.525c-0.093,0.155-0.21,0.285-0.351,0.391 s-0.303,0.187-0.486,0.241C15.303,36.973,15.104,37,14.891,37c-0.292,0-0.555-0.051-0.787-0.152s-0.431-0.246-0.594-0.432 c-0.164-0.187-0.289-0.412-0.377-0.678C13.044,35.474,13,35.176,13,34.847c0-0.327,0.044-0.621,0.133-0.883 c0.088-0.262,0.214-0.484,0.379-0.67c0.164-0.185,0.363-0.326,0.596-0.426s0.493-0.149,0.783-0.149 c0.198,0,0.388,0.029,0.567,0.087c0.18,0.059,0.341,0.14,0.484,0.243c0.144,0.104,0.264,0.229,0.362,0.374 c0.098,0.145,0.166,0.304,0.203,0.477H16.195z"/><path fill="#fff" d="M18.59,33.926c0.198,0,0.378,0.035,0.539,0.104c0.161,0.068,0.298,0.169,0.411,0.302 c0.113,0.132,0.2,0.293,0.26,0.482c0.061,0.189,0.091,0.404,0.091,0.644c0,0.243-0.031,0.461-0.093,0.652 c-0.062,0.19-0.148,0.353-0.262,0.484s-0.25,0.232-0.411,0.302S18.785,37,18.59,37c-0.196,0-0.375-0.034-0.534-0.102 c-0.16-0.068-0.296-0.168-0.409-0.3s-0.201-0.294-0.264-0.484c-0.063-0.191-0.095-0.41-0.095-0.656c0-0.242,0.03-0.457,0.093-0.647 c0.062-0.189,0.148-0.35,0.262-0.48s0.25-0.231,0.411-0.3C18.215,33.961,18.394,33.926,18.59,33.926z M18.59,36.698 c0.147,0,0.283-0.025,0.405-0.077s0.227-0.13,0.314-0.233c0.088-0.104,0.157-0.234,0.206-0.389 c0.049-0.155,0.073-0.335,0.073-0.541c0-0.204-0.024-0.383-0.073-0.538c-0.049-0.154-0.118-0.283-0.206-0.385 s-0.192-0.179-0.314-0.229c-0.122-0.052-0.258-0.078-0.405-0.078c-0.151,0-0.288,0.026-0.41,0.078 c-0.121,0.051-0.227,0.128-0.314,0.229s-0.156,0.23-0.204,0.385c-0.048,0.155-0.071,0.334-0.071,0.538 c0,0.206,0.023,0.386,0.071,0.541c0.048,0.154,0.116,0.284,0.204,0.389c0.088,0.104,0.193,0.182,0.314,0.233 C18.302,36.673,18.438,36.698,18.59,36.698z"/><path fill="#fff" d="M21.055,34.436c0.098-0.116,0.194-0.208,0.288-0.275c0.095-0.068,0.187-0.119,0.275-0.154 c0.09-0.036,0.174-0.058,0.255-0.066c0.08-0.009,0.156-0.014,0.227-0.014c0.601,0,0.901,0.354,0.901,1.064v1.935h-0.302v-1.908 c0-0.136-0.012-0.254-0.036-0.353c-0.023-0.1-0.062-0.182-0.117-0.246c-0.054-0.063-0.124-0.111-0.211-0.143 s-0.193-0.048-0.318-0.048c-0.166,0-0.329,0.05-0.488,0.147c-0.16,0.098-0.318,0.236-0.474,0.415v2.135h-0.302v-2.923h0.302V34.436 z"/><path fill="#fff" d="M24.317,34.436c0.098-0.116,0.194-0.208,0.288-0.275c0.095-0.068,0.187-0.119,0.275-0.154 c0.09-0.036,0.174-0.058,0.255-0.066c0.08-0.009,0.156-0.014,0.227-0.014c0.601,0,0.901,0.354,0.901,1.064v1.935h-0.302v-1.908 c0-0.136-0.012-0.254-0.036-0.353c-0.023-0.1-0.062-0.182-0.117-0.246c-0.054-0.063-0.124-0.111-0.211-0.143 s-0.193-0.048-0.318-0.048c-0.166,0-0.329,0.05-0.488,0.147c-0.16,0.098-0.318,0.236-0.474,0.415v2.135h-0.302v-2.923h0.302V34.436 z"/><path fill="#fff" d="M28.486,37c-0.203,0-0.388-0.034-0.554-0.104s-0.309-0.17-0.429-0.302 c-0.119-0.132-0.212-0.294-0.277-0.484c-0.065-0.191-0.098-0.409-0.098-0.652c0-0.236,0.031-0.45,0.095-0.64 c0.062-0.19,0.151-0.351,0.268-0.483c0.115-0.132,0.253-0.232,0.411-0.303s0.334-0.106,0.528-0.106 c0.198,0,0.378,0.036,0.539,0.106s0.298,0.171,0.411,0.303c0.113,0.133,0.2,0.293,0.26,0.483c0.061,0.189,0.091,0.404,0.091,0.643 v0.068h-2.301c0.015,0.198,0.052,0.371,0.109,0.517s0.133,0.268,0.227,0.364c0.093,0.097,0.2,0.169,0.322,0.217 s0.255,0.071,0.397,0.071c0.101,0,0.201-0.012,0.302-0.035c0.101-0.024,0.192-0.061,0.273-0.108 c0.082-0.047,0.15-0.106,0.206-0.177s0.088-0.151,0.098-0.241h0.299c-0.028,0.138-0.077,0.261-0.147,0.367 c-0.07,0.107-0.157,0.198-0.261,0.271c-0.103,0.074-0.22,0.131-0.351,0.168C28.774,36.981,28.635,37,28.486,37z M29.426,35.228 c-0.05-0.334-0.164-0.585-0.341-0.751c-0.178-0.166-0.396-0.249-0.654-0.249c-0.129,0-0.248,0.021-0.358,0.061 c-0.111,0.04-0.21,0.102-0.297,0.185c-0.086,0.083-0.159,0.188-0.219,0.313c-0.059,0.126-0.101,0.272-0.126,0.441H29.426z"/><path fill="#fff" d="M31.761,37c-0.193,0-0.37-0.034-0.53-0.102c-0.159-0.068-0.297-0.167-0.411-0.298 s-0.203-0.292-0.266-0.483c-0.062-0.19-0.095-0.409-0.095-0.656c0-0.241,0.031-0.457,0.093-0.648s0.149-0.352,0.264-0.482 c0.115-0.131,0.252-0.231,0.411-0.3c0.16-0.069,0.338-0.104,0.534-0.104c0.141,0,0.272,0.02,0.395,0.057 c0.121,0.038,0.229,0.094,0.324,0.166c0.094,0.073,0.173,0.164,0.237,0.271c0.064,0.108,0.108,0.231,0.134,0.37h-0.294 c-0.013-0.091-0.041-0.171-0.085-0.241s-0.102-0.13-0.172-0.178s-0.151-0.083-0.243-0.107c-0.092-0.023-0.19-0.036-0.296-0.036 c-0.148,0-0.284,0.026-0.407,0.078c-0.123,0.051-0.229,0.129-0.317,0.231c-0.088,0.104-0.155,0.232-0.203,0.387 s-0.072,0.334-0.072,0.537c0,0.207,0.024,0.387,0.072,0.542c0.048,0.154,0.115,0.283,0.203,0.387 c0.088,0.103,0.194,0.18,0.317,0.231s0.259,0.077,0.407,0.077c0.098,0,0.192-0.012,0.283-0.035c0.09-0.024,0.171-0.06,0.243-0.106 c0.071-0.046,0.131-0.104,0.179-0.173s0.078-0.15,0.091-0.243h0.294c-0.027,0.141-0.073,0.265-0.138,0.371 c-0.063,0.107-0.144,0.197-0.237,0.27c-0.095,0.073-0.202,0.128-0.324,0.164C32.029,36.982,31.899,37,31.761,37z"/><path fill="#fff" d="M34.628,36.951c-0.043,0.005-0.086,0.009-0.129,0.012c-0.043,0.002-0.085,0.003-0.128,0.003 c-0.131,0-0.235-0.018-0.315-0.055c-0.079-0.036-0.139-0.091-0.181-0.164c-0.041-0.072-0.068-0.164-0.081-0.273 s-0.019-0.236-0.019-0.383v-1.787h-0.374v-0.302h0.374v-0.766h0.302v0.766h0.479v0.302h-0.479v1.813 c0,0.121,0.009,0.218,0.026,0.289s0.044,0.127,0.079,0.166s0.078,0.064,0.13,0.075c0.052,0.012,0.11,0.017,0.176,0.017 c0.027,0,0.051,0,0.071,0s0.043-0.001,0.068-0.003V36.951z"/></svg>