<svg xmlns="http://www.w3.org/2000/svg"  viewBox="0 0 48 48" width="1600px" height="1600px"><path fill="#007ce6" d="M6,10c0-2.209,1.791-4,4-4h28c2.209,0,4,1.791,4,4v28c0,2.209-1.791,4-4,4H10c-2.209,0-4-1.791-4-4	V10z"/><path fill="#fff" d="M31.949,16.5c-3.576,0-6.275,2.483-7.948,4.643c-1.673-2.159-4.374-4.643-7.949-4.643	C11.888,16.5,8.5,19.864,8.5,24s3.388,7.5,7.551,7.5c3.576,0,6.276-2.483,7.949-4.643c1.673,2.16,4.372,4.643,7.948,4.643	c4.163,0,7.551-3.364,7.551-7.5S36.112,16.5,31.949,16.5z M21.992,24.226c-1.049,1.537-3.215,4.116-5.941,4.116	c-2.411,0-4.372-1.948-4.372-4.342c0-2.394,1.961-4.342,4.372-4.342c2.704,0,4.883,2.584,5.94,4.124l0.152,0.222L21.992,24.226z M31.949,28.342c-2.726,0-4.892-2.579-5.941-4.116l-0.152-0.222l0.152-0.222c1.058-1.54,3.236-4.124,5.941-4.124	c2.411,0,4.372,1.948,4.372,4.342C36.321,26.394,34.359,28.342,31.949,28.342z"/></svg>