<svg xmlns="http://www.w3.org/2000/svg"  viewBox="0 0 48 48" width="1600px" height="1600px"><path fill="#212121" d="M9.837,25.288c0.195,1.626,0.603,3.193,1.228,4.657L15,29C15,29,14.021,24.489,9.837,25.288z"/><path fill="#212121" d="M44,23l-9.728,2.483c0.167,3.297-1.257,5.2-4.062,6.272C26.831,33.046,23.291,31.379,22,28 l-0.984-3.016c-1.291-3.379-0.253-7.818,3.126-9.109C27.369,14.642,30.608,15.973,32,19l10.144-2.479C38.84,9.915,34.395,8,28,8 C18.728,8,9.925,14.284,9.707,22.686c0.035-0.005,0.068-0.015,0.103-0.019c7.536-1.046,9.525,7.623,9.551,7.737l-7.19,1.672 c0.949,1.505,2.186,2.836,3.701,3.938c0.336-0.606,0.515-1.398,0.35-2.449l3.473-0.873c0.11,2.124-0.444,3.648-1.408,4.752 c2.406,1.145,5.319,1.817,8.793,1.817C34.163,39.261,45.676,34.09,44,23z"/><g><path fill="#212121" d="M12.989,37.872c-4.955,0.598-5.577-4.691-5.577-4.691l4.758-1.106 c-0.427-0.677-0.79-1.392-1.105-2.13L6.67,31c-0.862-3.707,1.177-5.186,2.633-5.598c0.187-0.053,0.359-0.08,0.534-0.114 C9.747,24.534,9.686,23.773,9.686,23c0-0.107,0.018-0.209,0.021-0.314C5.439,23.333,3.008,27.049,4,33 c0.822,4.932,4.703,7.822,9,7c2.089-0.4,4.033-1.124,5.285-2.557c-0.874-0.416-1.677-0.894-2.414-1.43 C14.99,37.602,12.989,37.872,12.989,37.872z"/></g></svg>