<svg xmlns="http://www.w3.org/2000/svg"  viewBox="0 0 48 48" width="1600px" height="1600px"><path fill="#0097a7" d="M24,35c-6.1,0-11-4.9-11-11s4.9-11,11-11s11,4.9,11,11S30.1,35,24,35z M22.9,8c0,0-1.4-1.2-1.4-3.5 c0-2.1,1.1-3.5,1.1-3.5S24,2.2,24,4.5C24,7.2,22.9,8,22.9,8z M30.1,9c0,0-0.6-2,0.7-3.8c1.2-1.7,3-2.2,3-2.2s0.6,1.9-0.7,3.8 C31.6,9.1,30.1,9,30.1,9z M36,11.9c0,0,0-1.4,1.4-2.3C38.6,8.8,40,9,40,9s0,1.3-1.4,2.2C37,12.3,36,11.9,36,11.9z M16.9,8 c0,0-1.5-0.2-2.4-1.5C13.7,5.2,14.1,4,14.1,4s1.4,0.2,2.3,1.5C17.4,7.1,16.9,8,16.9,8z M12,12c0,0-1.5,0.2-2.7-0.8 C8.1,10.3,8,9,8,9s1.4-0.2,2.7,0.8C12.2,11,12,12,12,12z M24.4,40c0,0,1.4,1,1.2,3.6c-0.1,2.2-1.5,3.4-1.5,3.4s-1.4-1.4-1.2-3.5 C23.1,40.9,24.4,40,24.4,40z M16.8,39c0,0,0.4,1.6-0.6,3.2C15.3,43.6,14,44,14,44s-0.5-1.7,0.5-3.2C15.7,38.9,16.8,39,16.8,39z M12,35c0,0-0.1,1.4-1.4,2.3C9.4,38.2,8,38,8,38s0-1.3,1.4-2.3C10.8,34.8,12,35,12,35z M32.1,39c0,0,1.5,0.2,2.4,1.5 C35.3,41.7,35,43,35,43s-1.4-0.2-2.3-1.5C31.6,39.9,32.1,39,32.1,39z M36,35c0,0,1.5-0.3,2.7,0.8C39.9,36.7,40,38,40,38 s-1.4,0.3-2.7-0.8C35.8,36,36,35,36,35z"/><path fill="#e65100" d="M24,39c-8.3,0-15-6.7-15-15c0-8.3,6.7-15,15-15c8.3,0,15,6.7,15,15C39,32.3,32.3,39,24,39z M24,11 c-7.2,0-13,5.8-13,13c0,7.2,5.8,13,13,13c7.2,0,13-5.8,13-13C37,16.8,31.2,11,24,11z"/><path fill="#cddc39" d="M16.8,25.4c0.1,0.4-0.4,0.8-0.5,1.2c-0.1,0.4-0.2,0.7-0.4,0.8c-0.2,0.2-0.5,0.3-0.7,0.5 c-0.2,0.2-0.8,1.2-1,1.3C13.5,27.6,13,25.9,13,24c0-0.6,0.1-1.1,0.1-1.6c0.1,0,0.7,0.3,1.1,0.6c0.5,0.3,0.8,1.3,1.2,1.5 C15.8,24.7,16.7,25.1,16.8,25.4z M14.8,18c0.6,0,0.9-0.5,1.1-0.5c0.2,0,0.3,0.1,0.5,0.1c0.1,0,0.4-0.1,0.4-0.4s-0.4-1-0.4-1.1 C15.8,16.7,15.2,17.3,14.8,18z M18.3,14.9c0,0.1-0.3,0.4-0.3,0.7c0,0.3,0.2,0.6,0.5,0.6c0.5,0,0.9-0.5,1.6-0.5 c0.6,0,1.8-0.5,1.8-1.2c0-0.3-0.3-0.4-0.6-0.4s-1.3,0-1.7-0.2c-0.5,0.2-1,0.5-1.5,0.8C18.2,14.7,18.3,14.8,18.3,14.9z M26.6,29.5 c0,0.1,0.1,0.2,0.2,0.2c0.1,0,0.2-0.1,0.3-0.2c0.2-0.2,0.3-0.5,0.3-0.8c0-0.1,0-0.2,0-0.2c-0.1-0.1-0.2-0.1-0.2-0.1 c-0.3,0-0.5,0.5-0.6,0.8C26.6,29.4,26.6,29.5,26.6,29.5z M35,24c0,1.3-0.2,2.5-0.6,3.6c-0.1-0.1-0.3-0.5-0.3-0.8 c0-0.2,0.2-0.7,0.2-1.1c0-0.4-0.4-1.5-1.2-1.5c-1,0-0.9,1.5-1.4,1.5c-0.7,0-0.7-2.5-1.6-2.5c-0.3,0-0.7,0.5-1.1,0.8 c-0.3,0.3-1,0.3-1,1.2c0,0.7-1.5,0.9-1.5,2.5c0,0.5-0.6,1.1-1,1.4c-0.3,0.3-0.7,1.6-1.8,1.6c-0.6,0-1.2-1.2-1.2-2.4 c0-0.7,0.2-0.9,0.2-1.6s-0.3-2-1.7-2c-0.7,0-1.4-0.4-1.4-2c0-1.5,1.6-1.5,1.6-2.9c0-0.4,0.9-0.8,0.9-1s-0.3-0.6-0.3-0.8 s0.3-0.4,0.5-0.4s0.7,0.5,0.9,0.5s0.3-0.5,0.4-0.9c0.1-0.4,1.3-1,1.8-1s1.8,0.7,2.6,0.7c0.7,0,3.2-0.4,4-0.4 c1.1,1.2,1.9,2.6,2.4,4.1c0,0.1,0.1,0.2,0.1,0.3c0.1,0.2,0.1,0.5,0.2,0.7c0,0.2,0.1,0.3,0.1,0.5c0,0.2,0.1,0.5,0.1,0.7 c0,0.1,0,0.3,0,0.4C35,23.5,35,23.7,35,24z M26.2,21.3c0-0.1-0.2-0.3-0.5-0.3s-0.6-0.4-1-0.5c-0.3-0.1-1.2-0.7-1.5-0.7 S23,19.8,23,20c0,0,0.8,1,1.3,1.3c0.5,0.2,0.6,0.1,0.8,0.1c0.2,0,0.3,0.2,0.6,0.2C26.1,21.5,26.2,21.4,26.2,21.3z"/></svg>