<svg xmlns="http://www.w3.org/2000/svg"  viewBox="0 0 48 48" width="1600px" height="1600px"><path fill="#ededed" d="M8,17.615v8.615v0.13c0,3.453,1.549,6.804,4.376,8.788c1.641,1.152,3.829,1.987,6.701,1.9 C19.15,37.051,24,42.231,24,42.231s4.85-5.184,4.923-5.182c2.872,0.086,5.06-0.749,6.701-1.9C38.451,33.165,40,29.814,40,26.361 v-8.745c0-1.613-0.192-3.033-0.578-4.246c-0.595-1.871-2.117-3.286-3.997-3.851C33.005,8.791,31.385,7.769,24,7.769 s-9.143,1.055-11.541,1.784c-1.657,0.504-3.081,1.685-3.701,3.302C8.252,14.175,8,15.769,8,17.615z"/><rect width="32" height="2" x="8" y="17.846" fill="#1e88e5"/><path fill="#fff" d="M20.308,29.923c1.503,0.965,4.517,2.027,7.385,0"/><path fill="#1e88e5" d="M24.129,32.075c-1.646,0-3.187-0.556-4.362-1.311c-0.465-0.298-0.6-0.917-0.301-1.381 c0.298-0.465,0.917-0.6,1.381-0.301c0.775,0.497,3.517,1.969,6.268,0.025c0.452-0.319,1.075-0.212,1.394,0.239 c0.319,0.451,0.212,1.075-0.239,1.394C26.915,31.697,25.486,32.075,24.129,32.075z"/><path fill="#1e88e5" d="M24,43.694l-0.73-0.78c-1.487-1.588-3.812-4.058-4.593-4.86c-0.023,0-0.045,0-0.068,0 c-2.524,0-4.832-0.701-6.807-2.087C8.795,33.857,7,30.266,7,26.361v-8.746c0-1.97,0.277-3.692,0.825-5.118 c0.701-1.829,2.325-3.287,4.343-3.9c0.362-0.11,0.708-0.228,1.063-0.348C15.277,7.555,17.596,6.769,24,6.769 c6.369,0,8.627,0.763,10.619,1.436c0.362,0.122,0.718,0.243,1.093,0.355c2.235,0.671,3.979,2.356,4.663,4.506 C40.79,14.37,41,15.901,41,17.615v8.746c0,3.905-1.795,7.496-4.801,9.606c-1.976,1.386-4.285,2.088-6.869,2.088 c-0.003,0-0.006,0-0.009,0c-0.781,0.8-3.106,3.272-4.591,4.859L24,43.694z M19.047,36.049c0.525,0.019,0.551,0.019,4.953,4.719 c4.431-4.734,4.456-4.742,4.95-4.719c2.323,0.062,4.375-0.509,6.1-1.719c2.473-1.736,3.95-4.715,3.95-7.969v-8.746 c0-1.508-0.179-2.835-0.531-3.942c-0.483-1.521-1.729-2.715-3.332-3.197c-0.398-0.119-0.774-0.247-1.158-0.376 C32.043,9.445,30.041,8.769,24,8.769c-6.074,0-8.228,0.73-10.127,1.374c-0.375,0.127-0.741,0.251-1.124,0.368 c-1.432,0.436-2.575,1.446-3.058,2.703C9.233,14.41,9,15.891,9,17.615v8.746c0,3.254,1.477,6.233,3.951,7.969 C14.675,35.54,16.731,36.124,19.047,36.049z"/><rect width="32" height="2" x="8" y="17.846" fill="#1e88e5"/><ellipse cx="19.077" cy="20" fill="#fff" rx="4.923" ry="5"/><path fill="#1e88e5" d="M19.077,26c-3.266,0-5.923-2.691-5.923-6s2.657-6,5.923-6S25,16.691,25,20S22.343,26,19.077,26z M19.077,16c-2.164,0-3.923,1.794-3.923,4s1.76,4,3.923,4C21.24,24,23,22.206,23,20S21.24,16,19.077,16z"/><ellipse cx="28.923" cy="20" fill="#fff" rx="4.923" ry="5"/><path fill="#1e88e5" d="M28.923,26C25.657,26,23,23.309,23,20s2.657-6,5.923-6s5.923,2.691,5.923,6S32.189,26,28.923,26z M28.923,16C26.76,16,25,17.794,25,20s1.76,4,3.923,4c2.164,0,3.923-1.794,3.923-4S31.086,16,28.923,16z"/><g><circle cx="28.5" cy="21.5" r="1.5" fill="#1e88e5"/></g><g><circle cx="19.5" cy="21.5" r="1.5" fill="#1e88e5"/></g></svg>