<svg xmlns="http://www.w3.org/2000/svg"  viewBox="0 0 48 48" width="1600px" height="1600px"><path fill="#ffca28" d="M34,42H14c-4.411,0-8-3.589-8-8V14c0-4.411,3.589-8,8-8h20c4.411,0,8,3.589,8,8v20	C42,38.411,38.411,42,34,42z"/><path fill="#263238" d="M27.032,31.626c-1.519,0.348-4.118,0.287-5.788-0.604c-1.669-0.88-1.789-3.407-1.789-3.407L31,27.063	c-0.1-6.354-2.749-8.217-6.407-8.053c-3.668,0.164-5.338,2.057-6.737,4.338c-1.399,2.272-0.85,6.303,0,8.319	c0.85,2.016,3.778,3.448,7.167,3.326c3.389-0.113,5.827-1.791,5.827-1.791l-0.71-2.763C30.14,30.439,28.551,31.289,27.032,31.626z M20.664,23.246c0.83-0.87,2.859-1.648,5.408-1.054c2.549,0.583,2.669,3.223,2.669,3.223l-9.316,1.248	C19.455,25.957,19.845,24.126,20.664,23.246z"/><polygon fill="#263238" points="27.518,16.549 29.341,11.972 31.354,13.018 28.481,17"/><polygon fill="#263238" points="24.738,16.008 23.527,15.907 23.023,10.999 25.354,10.999"/><polygon fill="#263238" points="20.848,16.45 19.046,11.972 17,13.04 19.956,17"/></svg>