<svg xmlns="http://www.w3.org/2000/svg"  viewBox="0 0 48 48" width="1600px" height="1600px"><path fill="#c0ca33" d="M34.868,28.641c0.73,0.675,1.409,1.362,2.151,1.974c1.007,0.832,2.125,1.469,3.471,1.568 c0.84,0.062,1.631-0.066,2.246-0.709c1.155-1.207,0.779-3.317-0.778-4.072c-0.955-0.463-1.975-0.795-2.975-1.163 c-1.596-0.587-3.121-1.287-4.309-2.555c-0.531-0.567-0.893-1.236-1.108-1.976c-0.615-2.118-0.692-4.257-0.017-6.366 c0.766-2.396,2.46-3.849,4.892-4.412c2.043-0.472,3.998-0.09,5.874,0.778c1.137,0.526,2.132,1.252,3.015,2.14 c0.186,0.187,0.224,0.333,0.093,0.574c-0.661,1.212-1.305,2.434-1.955,3.652c-0.033,0.061-0.076,0.117-0.134,0.206 c-0.245-0.215-0.473-0.423-0.711-0.621c-1.338-1.114-2.816-1.888-4.613-1.876c-1.188,0.008-1.994,0.623-2.271,1.731 c-0.298,1.195,0.14,2.253,1.15,2.814c1.119,0.621,2.343,0.969,3.539,1.393c1.719,0.609,3.246,1.507,4.317,3.032 c0.714,1.017,1.004,2.188,1.126,3.405c0.146,1.458,0.089,2.899-0.369,4.309c-0.916,2.82-3.292,4.638-6.264,4.79 c-2.574,0.132-4.824-0.699-6.782-2.324c-0.731-0.607-1.372-1.322-2.042-2c-0.066-0.067-0.101-0.255-0.056-0.329 c0.81-1.313,1.635-2.618,2.458-3.923C34.832,28.66,34.862,28.646,34.868,28.641z"/><polygon fill="#c0ca33" points="14.274,16.462 14.274,11.34 0.009,11.34 0.009,36.896 14.274,36.896 14.274,31.774 5.16,31.774 5.16,26.821 13.226,26.821 13.226,21.698 5.16,21.698 5.16,16.462"/><path fill="#c0ca33" d="M29.613,11.34H19.34v5.038h5.208v13.005c0.085,2.08-1.047,2.533-1.047,2.533	c-2.377,0.792-4.346-2.343-4.346-2.343l-2.39,4.211c3.566,3.934,7.443,3.311,7.443,3.311c5.377-0.113,5.377-7.712,5.377-7.712	L29.613,11.34z"/></svg>