<svg xmlns="http://www.w3.org/2000/svg"  viewBox="0 0 48 48" width="1600px" height="1600px"><polygon fill="#c0ca33" points="19.981,15.84 19.981,10.575 -0.014,21.019 -0.014,26.92 20.066,37.363 20.066,32.099 5.208,23.948"/><polygon fill="#c0ca33" points="23.547,36.281 29.575,36.281 47.066,11.807 41.08,11.807"/><path fill="#c0ca33" d="M28.429,12.274c-2.79,0-5.052,2.262-5.052,5.052s2.262,5.052,5.052,5.052s5.052-2.262,5.052-5.052	C33.481,14.535,31.219,12.274,28.429,12.274z M28.472,18.981c-0.821,0-1.486-0.77-1.486-1.719s0.665-1.719,1.486-1.719	s1.486,0.77,1.486,1.719S29.292,18.981,28.472,18.981z"/><path fill="#c0ca33" d="M41.429,27.274c-2.79,0-5.052,2.262-5.052,5.052s2.262,5.052,5.052,5.052s5.052-2.262,5.052-5.052	C46.481,29.535,44.219,27.274,41.429,27.274z M41.472,33.981c-0.821,0-1.486-0.77-1.486-1.719s0.665-1.719,1.486-1.719	s1.486,0.77,1.486,1.719C42.958,33.211,42.292,33.981,41.472,33.981z"/></svg>