<svg xmlns="http://www.w3.org/2000/svg"  viewBox="0 0 48 48" width="1600px" height="1600px"><path fill="#2e7d32" d="M40,6H24l-2,4L10,21l-4,2v17c0,1.105,0.895,2,2,2h32c1.105,0,2-0.895,2-2V8C42,6.895,41.105,6,40,6z"/><path fill="#c8e6c9" d="M38 38L10 38 10 21 22 10 38 10z"/><path fill="#26662b" d="M6,23c0,0,1.673,0.198,4,0.469V21L6,23z"/><path fill="#a5d6a7" d="M10,21v2.469C15.069,24.061,23.243,25,24,25c1.105,0,2-0.895,2-2c0-0.745-0.909-8.213-1.502-13H22 L10,21z"/><path fill="#26662b" d="M22,10h2.498C24.213,7.689,24,6,24,6L22,10z"/><path fill="#fbc02d" d="M24,6v15c0,1.1-0.9,2-2,2H6l4.3-4.06l9.85-9.3L24,6z"/><path fill="#0288d1" d="M21,13c0,3.87-3.13,7-7,7c-1.36,0-2.63-0.39-3.7-1.06l9.85-9.3C20.69,10.64,21,11.78,21,13z"/></svg>