<svg xmlns="http://www.w3.org/2000/svg"  viewBox="0 0 48 48" width="1600px" height="1600px" baseProfile="basic"><path fill="#c0ca33" d="M-486.933-789.98c-1.713,2.231-1.755,5.902-0.617,10.449 c1.598,6.407,4.36,12.88,5.646,17.204c1.482,4.421,1.492,6.689,2.067,6.986c0.056,0.029,0.123,0.042,0.204,0.042 c0.755,0,2.659-1.182,6.688-2.401c4.268-1.454,11.146-2.953,17.297-5.355c4.33-1.695,7.289-3.836,8.143-6.498 c-1.376,1.86-3.891,3.423-7.215,4.723c-6.152,2.403-13.028,3.902-17.298,5.354c-4.027,1.22-5.928,2.403-6.685,2.403 c-0.082,0-0.151-0.015-0.207-0.044c-0.574-0.296-0.584-2.561-2.068-6.986c-1.287-4.32-4.046-10.795-5.646-17.203 C-487.498-784.799-487.676-787.776-486.933-789.98 M-474.845-786.624c-0.989,0-1.884,0.124-2.653,0.381 c-2.998,0.922-4.184,3.72-3.953,7.612c0.234,3.887,1.438,7.921,2.332,10.854c0.985,2.978,1.658,4.856,2.88,5.485 c0.368,0.19,0.798,0.274,1.303,0.274c1.172,0,2.741-0.455,4.838-1.099c2.908-0.968,6.896-2.324,10.202-4.386 c3.306-2.06,4.904-4.649,3.921-7.627c-0.9-2.931-4.375-6.258-9.132-8.713C-468.61-785.653-472.091-786.624-474.845-786.624 M-474.001-762.977c-0.686,0-1.271-0.11-1.719-0.343c-2.167-1.121-3.885-6.531-3.855-12.093c0.014-3.631,2.314-5.631,5.761-5.631 c1.84,0,4.01,0.572,6.331,1.771c6.668,3.442,8.384,8.854,3.857,12.094C-467.214-764.602-471.359-762.977-474.001-762.977" transform="translate(491.326 799.3)"/><path fill="#78a22f" d="M-491.97-801.38c-1.303,0-2.455,0.159-3.417,0.487 c-2.031,0.616-3.292,1.917-3.911,3.756c0.702-0.913,1.686-1.586,2.982-1.978c0.965-0.33,2.121-0.488,3.427-0.488 c4.473,0,10.715,1.87,17.16,5.197c8.33,4.301,14.479,9.738,15.763,14.059c0.44,1.309,0.452,2.519,0.095,3.637 c1.169-1.582,1.514-3.378,0.832-5.412c-1.284-4.319-7.435-9.755-15.763-14.056C-481.249-799.51-487.497-801.38-491.97-801.38" transform="translate(503.69 806.457)"/><path fill="#aed581" d="M-491.97-801.38c-1.303,0-2.455,0.159-3.417,0.487 c-2.031,0.616-3.292,1.917-3.911,3.756c0.702-0.913,1.686-1.586,2.982-1.978c0.965-0.33,2.121-0.488,3.427-0.488 c4.473,0,10.715,1.87,17.16,5.197c8.33,4.301,14.479,9.738,15.763,14.059c0.44,1.309,0.452,2.519,0.095,3.637 c1.169-1.582,1.514-3.378,0.832-5.412c-1.284-4.319-7.435-9.755-15.763-14.056C-481.249-799.51-487.497-801.38-491.97-801.38" transform="translate(503.69 806.457)"/><path fill="#689f38" d="M-491.339-796.606c-1.307,0-2.462,0.159-3.427,0.489 c-1.297,0.391-2.281,1.064-2.982,1.977c-0.743,2.204-0.564,5.181,0.308,8.674c1.601,6.408,4.359,12.883,5.646,17.202 c1.484,4.426,1.494,6.691,2.068,6.987c0.056,0.029,0.125,0.044,0.207,0.044c0.757,0,2.659-1.184,6.686-2.403 c4.27-1.452,11.145-2.951,17.298-5.355c3.324-1.299,5.84-2.863,7.215-4.722c0.356-1.118,0.345-2.328-0.095-3.637 c-1.284-4.321-7.434-9.758-15.763-14.059C-480.623-794.736-486.866-796.606-491.339-796.606 M-485.751-766.179 c-0.505,0-0.935-0.085-1.303-0.274c-1.223-0.629-1.895-2.507-2.88-5.485c-0.894-2.932-2.099-6.967-2.332-10.854 c-0.232-3.892,0.954-6.689,3.953-7.611c0.769-0.257,1.664-0.381,2.652-0.381c2.754,0,6.236,0.971,9.739,2.78 c4.758,2.455,8.232,5.782,9.132,8.712c0.983,2.978-0.615,5.567-3.922,7.628c-3.305,2.062-7.293,3.418-10.202,4.386 C-483.01-766.634-484.58-766.179-485.751-766.179" transform="translate(502.141 803.46)"/></svg>