<svg xmlns="http://www.w3.org/2000/svg"  viewBox="0 0 48 48" width="1600px" height="1600px"><path d="M10.894,28.723c-0.814,0.91-3.16,1.628-3.16,1.628v1.795c0,0,1.843-0.359,2.958-1.146v8l2.452-0.08v-6.188l-1.282-4.009 H10.894z"/><path d="M38.975,27.42l-12.793,3.729l-1.278-3.303l11.491-3.374l-2.426-7.877L22.692,20l-1.1-3.3l12.373-3.466l-2.558-7.591 L6.755,12.754l5.107,15.97h1.282v4.009l1.02,3.19c-0.146-0.575-0.23-1.189-0.23-1.837c0-3.997,2.229-5.362,4.979-5.362 c3.662,0,4.979,2.401,4.979,5.362s-1.604,5.362-4.979,5.362c-2.477,0-3.916-1.202-4.562-2.94l1.905,5.956l24.988-7.394 L38.975,27.42z M29.373,35.449h-1.676v1.652h-1.029v-1.652h-1.771v-1.005h1.771v-1.652h1.029v1.652h1.676V35.449z"/><path d="M21.697,35.35v-2.721c0-1.536-1.245-2.78-2.781-2.78s-2.781,1.245-2.781,2.78v2.721c0,1.536,1.245,2.78,2.781,2.78 S21.697,36.885,21.697,35.35z"/></svg>