<svg xmlns="http://www.w3.org/2000/svg"  viewBox="0 0 48 48" width="1600px" height="1600px"><polyline fill="#d32f2f" points="19.6,44 3,20.6 26.4,4 43,27.4 19.6,44"/><path fill="#fff" d="M37.5,27.2C37.1,19,30,12.7,21.8,13.2c-6.6,0.4-11.7,6-11.3,12.6c0.3,5.3,4.8,9.4,10.1,9.1	c3.6-0.2,6.7-2.9,7.2-6.5c0.7,0,1.4-0.1,2-0.2c0.5-0.1,1.1-0.2,1.8-0.2c2.7-0.3,5.6-0.4,5.6-0.4h0.2L37.5,27.2L37.5,27.2z M21.8,29.2c-0.2-0.6-0.5-1.2-0.9-1.7c0.2-0.1,0.3-0.2,0.5-0.4c0.6,0.2,1.1,0.6,1.6,1C22.7,28.5,22.3,28.9,21.8,29.2z M17.2,23.8	c-0.2,0.3-0.3,0.7-0.4,1.1c-1.8-0.1-4-0.3-5.6-1.5c0.2-1,0.5-2.1,1-3C13.6,21.8,15.3,22.9,17.2,23.8z M26.5,24.7	c-1.7,0.2-2.2,0.4-3.2,0.9c-0.1-0.2-0.2-0.3-0.3-0.5c0.2-0.3,1.2-1.6,2.5-1.9C25.8,23.6,26.2,24.1,26.5,24.7L26.5,24.7z M21.6,26.4	c0-0.2,0-0.4-0.1-0.5c0.5-0.2,1-0.4,1.5-0.4c0.2,0.3,0.3,0.6,0.4,1C22.7,26.3,22.1,26.3,21.6,26.4L21.6,26.4z M20.3,27.4	c-0.6,0-1-0.5-1-1l0,0v0c0-0.1,0-0.2,0-0.2c0.2-0.6,0.7-0.9,1.3-0.7c0.6,0.2,0.9,0.7,0.7,1.3C21.2,27.1,20.8,27.4,20.3,27.4	L20.3,27.4z M16.9,26.2L16.9,26.2c0-0.6,0-1.1,0.2-1.7c0.6,0.5,1.3,0.8,2.1,1c-0.1,0.2-0.1,0.3-0.2,0.5c0,0.1,0,0.2,0,0.2	C18.3,26.4,17.6,26.4,16.9,26.2L16.9,26.2z M19.8,25c0.3-0.3,0.7-0.6,1.2-0.6c0.3,0,0.6,0,0.8,0.1c-0.3,0.2-0.5,0.5-0.7,0.8	c-0.2-0.2-0.5-0.2-0.7-0.2c-0.3,0-0.6,0.1-0.8,0.3C19.6,25.3,19.7,25.1,19.8,25L19.8,25z M22.8,25.3c-0.5,0-1,0.2-1.4,0.4	c-0.1-0.1-0.2-0.2-0.3-0.3c0.2-0.3,0.5-0.6,0.8-0.8C22.2,24.8,22.6,25,22.8,25.3L22.8,25.3z M23.5,26.5c0-0.2-0.1-0.5-0.1-0.7	c1.1-0.6,1.5-0.7,3.2-0.9c0.2,0.6,0.4,1.2,0.4,1.8v0.1C25.2,26.4,24.8,26.4,23.5,26.5z M22.7,24.9c-0.2-0.2-0.4-0.3-0.6-0.4	c0.1-0.4,0.6-1.8,1.6-2.5c0.5,0.2,1,0.5,1.4,0.9l0,0C23.9,23.4,23,24.6,22.7,24.9L22.7,24.9z M22.8,21.4c0.3-2.3,1.3-4.5,3.1-6.7	c1.6,0.4,3.2,1.2,4.5,2.2c-2.7,1.3-5,3.7-6.2,5.2C23.8,21.7,23.3,21.5,22.8,21.4L22.8,21.4z M23.5,21.9c-1,0.7-1.5,2.1-1.6,2.5	c-0.3-0.1-0.6-0.2-0.8-0.2c0-1,0.2-1.9,0.7-2.7C22.4,21.5,23,21.7,23.5,21.9L23.5,21.9z M20.9,24.2c-0.2,0-0.4,0.1-0.5,0.1	c-0.4-0.8-0.5-1.8-0.3-2.7c0.3-0.1,0.7-0.2,1.1-0.2c0.2,0,0.3,0,0.5,0C21.1,22.3,20.8,23.3,20.9,24.2L20.9,24.2z M18.7,22.1	c-1.8-1.7-2.6-3.8-3.1-5.7c1.3-0.9,2.7-1.6,4.2-1.9c-0.4,2.2-0.6,4.4,0.4,7C19.6,21.5,19.1,21.8,18.7,22.1L18.7,22.1z M19.8,21.8	c-0.1,0.9,0,1.8,0.3,2.7c-0.2,0.1-0.3,0.2-0.4,0.3l-0.1-0.1c-0.4-0.2-1-0.6-1.4-1.9C18.7,22.3,19.2,22,19.8,21.8L19.8,21.8z M18.1,22.8c0.4,1.4,1,1.7,1.4,2l0.1,0l0,0c-0.1,0.1-0.2,0.3-0.3,0.5c-0.8-0.2-1.5-0.5-2.1-1C17.4,23.8,17.7,23.3,18.1,22.8z M16.7,25.3c0,0.3-0.1,0.6,0,0.9c0,0.1,0,0.2,0,0.3l-0.3,0.1c-1.8,0.4-3.5,0.7-5.2,0.3c-0.1-0.3-0.1-0.6-0.1-1c0-0.7,0-1.3,0.1-2	C12.8,25,14.9,25.2,16.7,25.3L16.7,25.3z M16.5,27l0.3-0.1c0.1,0.3,0.2,0.6,0.4,0.9c-1.7,1.1-2.8,1.4-4.9,1.9	c-0.5-0.8-0.8-1.6-1-2.5C13,27.7,14.8,27.4,16.5,27L16.5,27z M16.9,26.3c0.7,0.2,1.4,0.3,2.1,0.1c0,0.2,0.1,0.4,0.2,0.6	c-0.4,0.5-1,0.9-1.6,1.1C17.2,27.6,17,27,16.9,26.3L16.9,26.3z M19.3,27.2c0.1,0.2,0.3,0.3,0.5,0.4c0,0.6-0.1,1.3-0.4,1.8	c-0.7-0.2-1.3-0.6-1.7-1.1C18.3,28,18.9,27.7,19.3,27.2L19.3,27.2z M19.3,29.6c-0.3,1.5-0.8,3-1.6,4.3c-1-0.2-1.9-0.7-2.7-1.2	l0.7-0.6c1-0.9,2.1-1.7,2.8-2.9C18.7,29.3,19,29.5,19.3,29.6L19.3,29.6z M19.6,29.4c0.3-0.6,0.4-1.2,0.4-1.8c0.2,0.1,0.5,0,0.7,0	c0.4,0.5,0.8,1.1,0.9,1.7c-0.3,0.1-0.7,0.2-1,0.3C20.3,29.5,19.9,29.5,19.6,29.4z M21.7,29.5c0.7,1.2,1.3,2.5,1.5,3.9	c-0.7,0.4-1.4,0.6-2.1,0.7c0.2-1.5,0.1-2.9-0.3-4.4C21.2,29.7,21.5,29.6,21.7,29.5L21.7,29.5z M23,27.9c-0.5-0.4-1-0.7-1.6-1	c0.1-0.1,0.1-0.3,0.1-0.5c0.6-0.1,1.2-0.1,1.7,0.1C23.3,27,23.2,27.5,23,27.9L23,27.9z M23.5,26.8c1.3-0.2,1.7-0.2,3.5,0.3	c0,0.5-0.1,1.1-0.2,1.6c-1.1-0.5-2.3-0.9-3.5-1C23.4,27.4,23.5,27.1,23.5,26.8z M26.3,23.9c0.9-0.4,5-2.4,7.8-3c0.6,1,1,2,1.3,3.1	c-3.1,0.2-7.6,1.5-8.4,1.8C26.9,25.1,26.6,24.5,26.3,23.9z M33.7,20.3c-3.1,0.7-7.2,2.8-7.9,3.1c-0.2-0.2-0.4-0.4-0.6-0.6	c-0.2-0.1-0.3-0.3-0.5-0.4c2-2.4,4.2-4.2,6.2-5.1c0.2,0.1,0.3,0.3,0.5,0.4C32.4,18.5,33.1,19.3,33.7,20.3L33.7,20.3z M25.2,14.5	c-1.8,2.2-2.8,4.5-3.1,6.8c-0.3,0-0.7-0.1-1,0c-0.1,0-0.3,0-0.4,0c-1-2.5-0.7-4.7-0.3-7c0.4-0.1,0.8-0.1,1.2-0.1	C22.7,14.1,23.9,14.2,25.2,14.5L25.2,14.5z M15.1,16.7c0.5,1.9,1.4,3.9,3.2,5.7c-0.3,0.3-0.6,0.6-0.9,1c-0.4-0.2-3.1-1.5-5-3.5	C13.1,18.7,14,17.6,15.1,16.7z M12.5,30.2c2.1-0.5,3.2-0.9,4.9-2c0.2,0.3,0.4,0.5,0.7,0.7c-0.6,1.1-1.7,1.9-2.7,2.8l-0.8,0.7	c-0.2-0.2-0.4-0.3-0.6-0.5C13.4,31.4,12.9,30.8,12.5,30.2z M20.4,34.2c-0.8,0-1.5,0-2.3-0.2c0.8-1.3,1.3-2.8,1.6-4.3	c0.3,0.1,0.5,0.1,0.8,0.1c0.4,1.4,0.5,2.9,0.3,4.4C20.6,34.2,20.5,34.2,20.4,34.2L20.4,34.2z M23.6,33.1c-0.3-1.4-0.8-2.7-1.6-3.9	c0.2-0.1,0.4-0.3,0.6-0.5c1.1,0.7,2.1,1.6,2.9,2.6c-0.1,0.1-0.2,0.3-0.3,0.4C24.8,32.4,24.2,32.8,23.6,33.1L23.6,33.1z M25.7,31.2	c-0.8-1-1.8-1.9-2.9-2.6c0.1-0.2,0.3-0.4,0.4-0.6c1.2,0.2,2.4,0.5,3.5,1C26.5,29.8,26.2,30.5,25.7,31.2L25.7,31.2z M31.5,27.5	l-1.3,0.2c-1,0.2-2,0.3-3,0.3c0-0.3,0.1-0.5,0.1-0.8c0-0.1,0-0.3,0-0.4s0-0.2,0-0.3c0.3-0.1,5.3-1.6,8.4-1.8	c0.2,0.8,0.3,1.5,0.3,2.3L31.5,27.5"/></svg>