<svg xmlns="http://www.w3.org/2000/svg"  viewBox="0 0 48 48" width="1600px" height="1600px"><path fill="#d50000" d="M5.2,24.9c0.1-0.4,0.1-0.8,0-1.2C5,23,5.2,22.4,5,21.7c0.2-0.6-0.1-1.2,0.2-1.8 C5.4,19.6,5,19,5.1,18.6c0.1-0.3,0-0.6,0.2-0.9c0.1-0.2,0.2-0.5,0.1-0.7c-0.3-1,0-1.8,0.6-2.7c0.3-0.5,0.6-1.1,0.6-1.7 c-0.1-1,0.4-1.6,1-2.1C8.1,10,8.4,9.3,8.9,8.7C9,8.5,9,8.3,8.9,8.1C8.6,7.7,8.7,7.3,8.8,6.9c0-0.2,0.1-0.4-0.1-0.6 C8.5,6.2,8.5,6,8.5,5.9c0.4-0.7-0.1-1.2-0.3-1.8C8,3,7.5,2,7.5,0.8c0-0.3-0.1-0.6,0.3-0.7C8.1,0,8.5-0.1,8.9,0.2s0.6,0.5,0.8,0.9 c0.2,0.3,0.5,0.7,0.9,0.8c0.2,0.1,0.3,0.3,0.3,0.6C10.9,2.8,11,3,11,3.2c0.2,0.7,0.3,1.3,1.2,1.3c0.1,0,0.2,0.2,0.2,0.3 c0.2,0.5,0.4,0.6,0.9,0.3c1.5-0.9,3.2-1.5,4.8-2.3c0.1,0,0.2-0.1,0.3-0.1c1.9,0,3.8-0.5,5.7-0.1c0.8,0.2,1.6-0.1,2.3,0.2 c1.3,0.4,2.5,0.6,3.8,0.8c0.8,0.1,1.5,0.7,2.1,1.3c0.3,0.3,0.7,0.3,1,0.5c0.2,0.1,0.4,0,0.4-0.2c0.2-0.5,0.5-1,0.6-1.5 c0.3-1,0.8-1.9,1-2.9c0.2-0.7,0.7-0.9,1.6-0.7c0.6,0.1,0.6,0.6,0.6,1.1c0.1,1-0.3,2-0.6,3C36.8,5,36.8,5.9,37,6.7 c0.1,0.5,0.7,0.8,1.2,1.2c1,0.9,2,1.7,2.8,2.9c0.5,0.9,0.8,1.9,0.9,2.9c0,0.4,0.3,0.7,0.4,1.1c0.1,0.7,0.2,1.4,0.1,2.1 c-0.1,0.7,0.1,1.3,0.5,1.9c0,0.2,0,0.4,0,0.6c0.1,0.7,0.4,1.4,0,2.1c-0.6,1.2-0.7,2.4-1.3,3.6c-0.4,0.8-0.6,1.7-1.2,2.4 c-0.5,0.6-0.6,1.5-1.1,2.2c-0.3,0.4-0.8,0.8-0.9,1.3c-0.3,0.2-0.5,0.5-0.7,0.9c-0.2,0.5-0.5,1.1-1.1,1.3c-1.3,0.5-1.8,1.6-2.8,2.4 c-0.5,0.4-1,0.8-1.6,0.9c-0.6,0.1-1.3,0.2-1.8,0.7c-1,0.1-1.9,0.4-2.8,1c-0.2,0.2-0.2,0.5-0.3,0.7c-0.3,0.7-1.1,1.1-1.3,1.9 c0,0.1-0.2,0.3-0.2,0.4c0.1,1.2-0.6,2.3-0.6,3.5c0,1-0.1,2-0.3,2.9c-0.2,0.6-0.2,0.7-0.8,0.3c-0.1,0-0.2-0.1-0.2-0.1 c-0.7,0.1-0.8-0.4-0.9-0.9c-0.1-1.2-0.6-2.3-1-3.4c-0.3-0.9-0.7-1.8-0.7-2.8c0-0.6-0.5-1.1-0.5-1.7c0-0.2-0.3-0.3-0.5-0.3 c-0.3,0-0.6,0-0.9,0c-1,0.2-1.8-0.4-2.6-0.9c-0.8-0.4-1.5-1-2.4-1.2c-1.1-0.3-2-0.8-2.8-1.6c-0.3-0.3-0.4-0.8-0.8-1.1 c-0.5-0.5-1.2-0.7-1.6-1.2c-0.1-0.2-0.4-0.3-0.4-0.4c-0.4-0.9-1.2-1.5-1.7-2.3C6.1,28.3,5.3,26.7,5.2,24.9z M17.8,17.9 c0,1.3,0.7,2,1,2.9c0.4,1.1,1.1,2,1.3,3.2c0.1,0.8,0.4,1.6,0.8,2.3c0.9,1.6,1.4,3.4,2.2,5.1c0.3,0.8,0.2,1.7,0.9,2.4 c0.1,0.1,0,0.3,0.2,0.3c0.2,0,0.2-0.2,0.3-0.3c0.3-0.7,0.6-1.4,0.7-2.1c0.1-0.5,0.5-0.8,0.4-1.3c-0.2-1,0.5-1.9,0.4-3 c0-0.1,0.1-0.2,0.2-0.3c0.4-0.4,0.7-0.8,0.6-1.3c0-0.6,0.4-1.1,0.4-1.8c0-0.3,0.4-0.5,0.5-0.8c0.5-1.4,0.7-2.8,1-4.2 c0.2-0.7,0.3-1.4,0.6-2.1c0.4-0.8,0.8-1.5,1.2-2.3c0.7-1.4,0.9-2.9,1.2-4.5c0.1-0.6-0.2-1-0.8-1.2c-0.2-0.1-0.5-0.1-0.7-0.3 c-0.5-0.3-1-0.6-1.5-0.7c-0.5-0.2-1.1-0.2-1.7-0.5c-0.8-0.3-1.7-0.6-2.6-0.7c-0.8,0-1.5-0.3-2.3-0.2c-1.3,0.2-2.7,0.5-3.9,0.9 c-0.8,0.3-1.6,0.5-2.2,1c-0.2,0.2-0.4,0.3-0.7,0.4C14.7,9.2,14.6,9.5,15,10c0.4,0.6,0.6,1.3,0.7,2c0,0.2,0,0.4,0.1,0.5 c0.7,0.8,0.8,1.8,1.2,2.7c0.2,0.4,0,0.8,0.3,1.2C17.7,16.9,17.7,17.5,17.8,17.9z"/><path fill="#661212" d="M29.3 31.6c.3-1.2.8-2.4 1.3-3.5.3-.8.8-1.6.8-2.6 0-.3.2-.5.3-.7.3-.7.6-1.4.6-2.2 0-.5.2-1 .5-1.5.6-1 1.1-2.1 1.6-3.2.4-1 .9-1.9 1.2-3 .2-.6.2-1.3.5-1.9.1-.2.1-.4.4-.4.3 0 .4.2.5.4.3 1.5.8 3 .7 4.5 0 .1 0 .2 0 .3.5 2.3-.4 4.4-1.1 6.6-.9 2.7-2.7 4.6-5.1 6.1C30.7 30.9 30.2 31.5 29.3 31.6 29.3 31.7 29.3 31.7 29.3 31.6zM9.4 22.8c.4-1.7.2-3.4.6-5.1.2-.9.5-1.9 1-2.7.1-.2.2-.5.3-.7 0-.1-.1-.3.2-.4.2 0 .3.1.4.3.2 1 .9 1.8.7 2.8-.1.8.4 1.5.6 2.2.2.6.4 1.1.6 1.7.1.5.3.9.6 1.3.3.4.4.8.5 1.3.2 1.1.4 2.3 1.4 3.1.1.1.1.2.2.3.1 1.1.8 2 1.4 3 .3.6.3 1.2.6 1.8.1.2-.1.4-.3.3-1.3-.7-2.8-1.2-3.8-2.3-.6-.7-1.3-1.3-1.9-2.1-.6-.7-1-1.5-1.5-2.2-.3-.4-.5-.9-.9-1.2C9.4 23.8 9.4 23.3 9.4 22.8z"/></svg>