<svg xmlns="http://www.w3.org/2000/svg"  viewBox="0 0 48 48" width="1600px" height="1600px" baseProfile="basic"><polygon fill="#ff5722" points="36,19.956 36,17 31.5,17 27.75,17 27.75,19.956 27.75,22.172 27.75,25.128 27.75,27.344 27.75,30.3 31.5,30.3 36,30.3 36,27.344 31.5,27.344 31.5,24.7 36,24.7 36,21.9 31.5,21.9 31.5,19.956"/><path fill="#5e35b1" d="M24,17v5.32c-0.71-0.7-1.63-1.12-2.62-1.12c-1.93,0-3.54,1.56-4,3.68 c-0.02-0.06-0.03-0.12-0.05-0.18c-0.69-1.83-2.56-3.15-4.77-3.15c-1.82,0-3.42,0.9-4.31,2.26V21.9h-4.5v-2.1h4.5V17H0v13.3h3.75 v-5.6h4.04c-0.18,0.49-0.29,1.02-0.29,1.58c0,1.25,0.53,2.39,1.38,3.23c0.04,0.03,0.07,0.07,0.1,0.1C9.9,30.47,11.16,31,12.56,31 c2.59,0,4.495-1.492,4.971-3h-3.568c-0.31,0.3-0.694,0.56-1.372,0.56c-1.751,0-1.91-1.43-1.89-1.76h6.6c0.28,2.38,2,4.2,4.08,4.2 c0.99,0,1.65-0.25,2.62-1.4v0.7h3.75V17H24z M10.7,24.7c0.29-0.84,0.94-1.42,1.69-1.42s1.4,0.58,1.7,1.42H10.7z M22.12,28.2 c-1.03,0-1.87-1.1-1.87-2.45c0-1.35,0.84-2.45,1.87-2.45c1.04,0,1.88,1.1,1.88,2.45C24,27.1,23.16,28.2,22.12,28.2z"/><polygon fill="#ff5722" points="48,21.9 43.5,21.9 42,23.58 40.5,21.9 36,21.9 39.75,26.1 36,30.3 40.5,30.3 42,28.62 43.5,30.3 48,30.3 44.25,26.1"/></svg>