<svg xmlns="http://www.w3.org/2000/svg"  viewBox="0 0 48 48" width="1600px" height="1600px" baseProfile="basic"><path fill="#ffea00" d="M37.24,43.788c-1.597-0.32-3.516-0.696-5.157-0.644c-0.253,0.008-0.663-0.008-0.907-0.081	c-0.071-2.093-0.455-4.163-0.42-6.265c0.023-1.337,0.002-2.693-0.102-4.029c0.164-0.1-0.048-0.271-0.08-0.399	c-0.321-1.285-0.74-2.612-1.517-3.752c-1.078-1.581-1.899-2.437-3.592-3.353c-0.372-0.201-0.67-0.399-1.118-0.319	c-0.622-0.032-1.294,0.008-1.916,0.08c-4.328,0.502-7.432,3.128-7.983,7.903c-0.33,2.863-0.275,5.576-0.239,8.462	c0.003,0.23-0.085,0.506,0,0.718c-0.508,0.236-1.435,0.09-1.953,0.272c-0.428,0.15-1.678,0.192-2.119,0.277	c-0.325,0.062-0.487-0.047-0.479-0.42c0.038-1.833,0.181-3.57,0.081-5.398c-0.102-1.884-0.163-3.785-0.08-5.668	c0.051-1.162,0.048-2.44,0.239-3.592c0.125-0.757-1.188-2.095-1.437-1.916c-0.321-0.198-0.404-0.189-0.687-0.159	c-0.226-0.376-0.117-0.802-0.181-1.202c0.029-0.058,0.046-0.366,0.087-0.412c0.668-0.734,1.333-1.471,1.959-2.242	c0.525-0.648,1.187-1.167,1.702-1.827c0.498-0.638,0.976-1.313,1.577-1.843c0.603-0.533,1.07-1.167,1.61-1.744	c0.761-0.813,1.416-1.721,2.189-2.519c0.847-0.875,1.627-1.805,2.411-2.73c0.726-0.857,1.404-1.756,2.238-2.516	c0.573-0.522,1.134-1.066,1.918-1.405c-0.151,0.648,0.14,1.077,0.558,1.433c0.373,0.318,0.761,0.621,1.165,0.898	c1.279,0.879,2.502,1.833,3.748,2.755c1.824,1.35,3.58,2.778,5.263,4.294c1.557,1.402,3.057,2.866,4.521,4.366	c0.628,0.643,1.238,1.307,1.78,2.028c-0.158,0.39-0.33,1.015-0.469,1.411c-0.202,0.572-0.352,1.19-0.891,0.936	c-0.238-0.112-0.399-0.08-0.798-0.16c-0.674,0.008-0.703-0.097-1.242,0.282c-0.197,0.138-0.305,0.356-0.335,0.611	c-0.113,0.95-0.206,1.904-0.162,2.86c0.066,1.458,0.2,2.913,0.246,4.371c0.052,1.644,0.098,3.29,0.035,4.936	c-0.008,0.211-0.005,0.428,0.029,0.636C37.006,40.399,37.035,42.102,37.24,43.788z"/><path fill="#040402" d="M40.318,23.078c-0.541-0.722-1.152-1.385-1.78-2.028c-1.464-1.499-2.964-2.964-4.521-4.366	c-1.683-1.516-3.439-2.944-5.263-4.294c-1.246-0.922-2.469-1.876-3.748-2.755c-0.404-0.277-0.792-0.58-1.165-0.898	c-0.417-0.356-0.709-0.785-0.558-1.433c-0.785,0.34-1.345,0.883-1.918,1.405c-0.834,0.76-1.512,1.658-2.238,2.516	c-0.784,0.925-1.564,1.856-2.411,2.73c-0.772,0.798-1.427,1.706-2.189,2.519c-0.54,0.577-1.007,1.211-1.61,1.744	c-0.6,0.53-1.079,1.205-1.577,1.843c-0.515,0.661-1.177,1.18-1.702,1.827c-0.626,0.772-1.291,1.508-1.959,2.242	c-0.042,0.046-0.059,0.114-0.087,0.172c-0.672,0.697-1.343,1.396-2.018,2.09c-0.25,0.257-0.505,0.51-0.767,0.755	c-0.69,0.642-1.356,0.666-2.075,0.049c-0.162-0.139-0.343-0.269-0.448-0.49c-0.421-0.882-0.414-1.067,0.279-1.744	c0.835-0.816,1.724-1.586,2.417-2.527c1.002-1.36,2.18-2.558,3.317-3.797c0.796-0.867,1.521-1.8,2.292-2.691	c0.799-0.923,1.602-1.844,2.428-2.743c0.737-0.802,1.341-1.709,2.077-2.511c0.537-0.586,1.118-1.132,1.603-1.767	c0.97-1.269,2.044-2.441,3.294-3.444c1.067-0.857,2.126-1.727,3.43-2.217c0.277-0.104,0.561-0.165,0.858-0.142	c0.356,0.027,0.65,0.051,0.685,0.563c0.024,0.353,0.273,0.698,0.452,1.029c0.15,0.277,0.167,0.516-0.035,0.772	c-0.199,0.252-0.196,0.422,0.157,0.587c1.206,0.564,2.288,1.34,3.367,2.108c2.025,1.442,4.046,2.894,6.016,4.41	c1.588,1.223,3.032,2.622,4.513,3.973c1.157,1.055,2.34,2.081,3.422,3.216c0.981,1.03,1.894,2.119,2.807,3.209	c0.433,0.517,0.506,1.437-0.13,2.009c-0.199,0.179-0.458,0.257-0.685,0.266c-0.761,0.03-1.527,0.019-2.213-0.407	c-0.085-0.053-0.201-0.076-0.303-0.077c-0.563-0.008-0.917-0.314-1.214-0.763c-0.201-0.304-0.399-0.625-0.713-0.84	c0,0,0.005-0.001,0.005-0.001C40.38,23.143,40.349,23.11,40.318,23.078z"/><path fill="#040402" d="M30.863,32.786c0.103,1.336,0.076,2.675,0.053,4.012c-0.035,2.102,0.349,4.172,0.42,6.265	c-0.128,1.209-0.989,1.709-2.098,1.189c-0.501-0.235-0.981-0.524-1.444-0.828c-0.317-0.208-0.505-0.511-0.518-0.93	c-0.056-1.779-0.144-3.556-0.359-5.324c-0.118-0.969-0.017-1.939,0.002-2.907c0.032-1.578-0.328-3.072-1.078-4.441	c-0.447-0.814-1.1-1.545-2.159-1.483c-0.944,0.056-1.848,0.315-2.644,0.886c-1.622,1.164-2.441,2.793-2.772,4.707	c-0.252,1.456-0.359,2.926-0.357,4.403c0.002,1.355,0.02,2.711-0.066,4.063c-0.071,1.101-0.871,1.561-1.926,1.179	c-0.648-0.235-1.187-0.628-1.718-1.044c-0.147-0.115-0.158-0.339-0.343-0.422c-0.085-0.212-0.11-0.431-0.113-0.66	c-0.036-2.886,0.144-5.764,0.474-8.627c0.551-4.775,3.974-7.761,8.302-8.263c0.622-0.072,1.242-0.077,1.864-0.045	c0.312,0.109,0.638,0.181,0.927,0.354c2.825,1.685,4.788,4.012,5.456,7.307l0-0.007c0.021,0.103,0.043,0.205,0.064,0.308	c-0.043,0.036-0.036,0.064,0.012,0.088C30.848,32.64,30.856,32.713,30.863,32.786z"/><path fill="#040402" d="M36.921,43.708c-0.205-1.685-0.234-3.388-0.51-5.067c-0.034-0.208-0.037-0.424-0.029-0.636	c0.064-1.646,0.017-3.292-0.035-4.936c-0.046-1.458-0.18-2.913-0.246-4.371c-0.044-0.956,0.05-1.91,0.162-2.86	c0.03-0.255,0.139-0.473,0.335-0.611c0.539-0.379,1.132-0.628,1.806-0.636c0.66,0.354,1.379,0.613,1.907,1.181	c0.455,0.49,0.6,1.055,0.398,1.692c-0.174,0.549-0.092,1.102-0.068,1.655c0.093,2.082,0.224,4.162,0.251,6.246	c0.024,1.846,0.129,3.685,0.304,5.525c0.111,1.168,0.202,2.367-0.085,3.53c-0.149,0.604-0.628,1.162-1.42,1.049	c-0.592-0.085-1.194-0.234-1.804-0.212c-0.35,0.012-0.549-0.188-0.653-0.481C37.109,44.427,37.023,44.064,36.921,43.708z"/><path fill="#040402" d="M7.774,25.504c0.283-0.03,0.52-0.339,0.841-0.14c0.346,0.265,0.701,0.518,1.036,0.796	c0.452,0.375,0.632,0.855,0.559,1.451c-0.388,3.177-0.425,6.36-0.193,9.553c0.132,1.815,0.16,3.638,0.131,5.46	c-0.01,0.645-0.678,1.099-1.35,0.858c-0.458-0.164-0.92-0.327-1.376-0.502c-0.252-0.097-0.346-0.271-0.365-0.512	c-0.013-0.172-0.01-0.345-0.02-0.518c-0.157-2.681-0.342-5.36-0.462-8.042c-0.08-1.779-0.017-3.56,0.183-5.335	c0.072-0.639,0.119-1.283,0.08-1.93c-0.032-0.524,0.132-0.732,0.644-0.948C7.587,25.651,7.722,25.635,7.774,25.504z"/></svg>