<svg xmlns="http://www.w3.org/2000/svg"  viewBox="0 0 48 48" width="1600px" height="1600px"><path fill="#d32f2f" d="M5,6.273V7.95c0.701,0,1.272,0.571,1.272,1.272c0,0.702-0.571,1.272-1.272,1.272v1.677 c0.701,0,1.272,0.571,1.272,1.272c0,0.702-0.571,1.272-1.272,1.272v1.677c0.701,0,1.272,0.571,1.272,1.273S5.701,18.94,5,18.94 v1.677c0.701,0,1.272,0.57,1.272,1.272c0,0.702-0.571,1.272-1.272,1.272v1.677c0.701,0,1.272,0.57,1.272,1.272 c0,0.702-0.571,1.272-1.272,1.272v1.677c0.701,0,1.272,0.57,1.272,1.272c0,0.702-0.571,1.272-1.272,1.272v1.678 c0.701,0,1.272,0.57,1.272,1.272S5.701,35.827,5,35.827v1.678c0.701,0,1.272,0.57,1.272,1.272S5.701,40.049,5,40.049v1.678 c0.335,0,0.663,0.135,0.9,0.372c0.237,0.237,0.372,0.564,0.372,0.9H7.95c0-0.702,0.571-1.272,1.272-1.272 c0.701,0,1.272,0.57,1.272,1.272h1.678c0-0.702,0.571-1.272,1.272-1.272c0.701,0,1.272,0.57,1.272,1.272h1.678 c0-0.702,0.571-1.272,1.272-1.272s1.272,0.57,1.272,1.272h1.678c0-0.702,0.571-1.272,1.272-1.272c0.701,0,1.272,0.57,1.272,1.272 h1.678c0-0.702,0.571-1.272,1.272-1.272s1.272,0.57,1.272,1.272h1.678c0-0.702,0.571-1.272,1.272-1.272s1.272,0.57,1.272,1.272 h1.678c0-0.702,0.571-1.272,1.272-1.272s1.272,0.57,1.272,1.272h1.678c0-0.702,0.571-1.272,1.272-1.272 c0.701,0,1.272,0.57,1.272,1.272h1.678c0-0.335,0.136-0.663,0.373-0.9c0.237-0.237,0.564-0.372,0.9-0.372V40.05 c-0.702,0-1.272-0.571-1.272-1.272s0.571-1.272,1.272-1.272v-1.678c-0.702,0-1.272-0.571-1.272-1.272s0.571-1.272,1.272-1.272 v-1.678c-0.702,0-1.272-0.571-1.272-1.272c0-0.702,0.571-1.272,1.272-1.272v-1.677c-0.702,0-1.272-0.571-1.272-1.272 S42.298,24.84,43,24.84v-1.677c-0.702,0-1.272-0.571-1.272-1.272s0.571-1.272,1.272-1.272v-1.677c-0.702,0-1.272-0.571-1.272-1.273 s0.571-1.273,1.272-1.273v-1.677c-0.702,0-1.272-0.571-1.272-1.272c0-0.701,0.571-1.272,1.272-1.272v-1.677 c-0.702,0-1.272-0.571-1.272-1.272c0-0.701,0.571-1.272,1.272-1.272V6.273c-0.335,0-0.663-0.136-0.9-0.372 c-0.237-0.237-0.373-0.565-0.373-0.9H40.05c0,0.702-0.571,1.272-1.272,1.272c-0.701,0-1.272-0.571-1.272-1.272h-1.678 c0,0.702-0.571,1.272-1.272,1.272S33.283,5.702,33.283,5h-1.678c0,0.702-0.571,1.272-1.272,1.272c-0.701,0-1.272-0.571-1.272-1.272 h-1.678c0,0.702-0.571,1.272-1.272,1.272S24.839,5.702,24.839,5h-1.678c0,0.702-0.571,1.272-1.272,1.272S20.617,5.702,20.617,5 h-1.678c0,0.702-0.571,1.272-1.272,1.272S16.395,5.702,16.395,5h-1.678c0,0.702-0.571,1.272-1.272,1.272 c-0.701,0-1.272-0.571-1.272-1.272h-1.678c0,0.702-0.571,1.272-1.272,1.272C8.521,6.273,7.951,5.702,7.951,5H6.272 c0,0.335-0.136,0.663-0.372,0.9C5.663,6.137,5.335,6.273,5,6.273z"/><path fill="#fff" d="M37.321,20.636H18.91l1.069-5h11.516l1.064-5H15.98l-5.301,25h5.03l2.344-11h11.93 l-9.784,9.686l1.719,3.041c0.793-0.529,2.083-0.595,2.975-0.595c1.587,0,3.141,0.529,4.76,0.529c1.485,0,3.005-0.099,5.485-1.289 l0.866-4.066c-1.686,0.694-4.181,1.355-6.351,1.355c-0.892,0-1.719-0.198-2.578-0.331l9.484-9.223L37.321,20.636L37.321,20.636z"/></svg>