<svg xmlns="http://www.w3.org/2000/svg"  viewBox="0 0 48 48" width="1600px" height="1600px" clip-rule="evenodd"><path fill="#00bcd6" fill-rule="evenodd" d="M22 3A3 3 0 1 0 22 9 3 3 0 1 0 22 3zM22.004 11.5A2.996 3 0 1 0 22.004 17.5 2.996 3 0 1 0 22.004 11.5zM31.495 20.5A3.495 3.5 0 1 0 31.495 27.5 3.495 3.5 0 1 0 31.495 20.5zM42.007 20.002000000000002A3.993 3.999 0 1 0 42.007 28 3.993 3.999 0 1 0 42.007 20.002000000000002zM31.505 11A3.495 3.5 0 1 0 31.505 18 3.495 3.5 0 1 0 31.505 11zM31.505 30A3.495 3.5 0 1 0 31.505 37 3.495 3.5 0 1 0 31.505 30zM21.996 30.5A2.996 3 0 1 0 21.996 36.5 2.996 3 0 1 0 21.996 30.5zM21.998 38.964A3.003 3.018 0 1 0 21.998 45 3.003 3.018 0 1 0 21.998 38.964zM22.004 20.964A2.996 3 0 1 0 22.004 26.964 2.996 3 0 1 0 22.004 20.964zM13.5 21.5A2.5 2.5 0 1 0 13.5 26.5 2.5 2.5 0 1 0 13.5 21.5zM13.5 31A2.5 2.5 0 1 0 13.5 36 2.5 2.5 0 1 0 13.5 31zM13.5 12A2.5 2.5 0 1 0 13.5 17 2.5 2.5 0 1 0 13.5 12zM6 22A2 2 0 1 0 6 26 2 2 0 1 0 6 22z" clip-rule="evenodd"/></svg>