<svg xmlns="http://www.w3.org/2000/svg"  viewBox="0 0 48 48" width="1600px" height="1600px"><circle cx="24" cy="24" r="20" fill="#66bb6a"/><path fill="#fff" d="M35.066,22.035v-0.959h-1.821l-0.8-0.014c-0.684,0-1.151,0.45-1.335,0.974v-0.959h-2.039V27.3 h2.039v-1.334v-2.066c0-0.62,0.503-1.123,1.123-1.123h0.795v4.523h2.039v-1.334v-2.066c0-0.62,0.503-1.123,1.123-1.123h1.012v-1.7 l-0.8-0.014C35.718,21.061,35.25,21.512,35.066,22.035z M20.56,21.206l-1.094,3.597l-1.093-3.597h-2.039l2.215,6.223h0.12h1.597 h0.12l2.213-6.223H20.56z M12.23,21.206v-0.415c0-0.364,0.294-0.658,0.658-0.658h1.287v-1.706h-1.767 c-1.223,0-2.216,0.991-2.216,2.216v0.564H9v1.649h1.192v4.572h2.039v-4.572h1.944v4.572h2.039v-4.572v-1.649h-2.039H12.23V21.206z M25.424,21.122h-0.248c-1.67,0-3.024,1.354-3.024,3.024v0.342c0,1.67,1.354,3.024,3.024,3.024h0.552 c1.143,0,2.122-0.706,2.524-1.705l-1.798-0.525c0,0-0.215,0.616-0.965,0.616c-0.847,0-1.295-0.463-1.354-0.989l0,0v-0.003 c-0.004-0.038-0.006-0.077-0.006-0.115h2.3h2.022v-0.643C28.448,22.476,27.094,21.122,25.424,21.122z M24.13,23.59 c0.025-0.559,0.485-1.006,1.051-1.006h0.194c0.565,0,1.026,0.446,1.051,1.006H24.13z"/><circle cx="38.852" cy="26.305" r="1.268" fill="#263238"/></svg>