<svg xmlns="http://www.w3.org/2000/svg"  viewBox="0 0 48 48" width="1600px" height="1600px" baseProfile="basic"><path fill="#ff80ab" d="M13.083,42h21.834C38.829,42,42,38.829,42,34.917V13.083C42,9.171,38.829,6,34.917,6H13.083 C9.171,6,6,9.171,6,13.083v21.834C6,38.829,9.171,42,13.083,42z"/><path fill="#fff" d="M18.43,32.24c0,0,0,0.01,0,0.02c0.01,0,0.01,0,0.01,0C18.44,32.25,18.43,32.25,18.43,32.24z"/><path fill="#fff" d="M35.805,21.99c0,2.32-0.67,4.52-1.89,6.28c-0.27,0.41-2.1,2.48-5.96,3.37 c-0.96,0.22-1.9,0.3-2.76,0.31C26.175,32.31,28.47,32.12,30,32c-1.16,1.35-3.965,2.92-7.045,2.92c-1.52,0-2.92-0.27-3.99-0.72 l-0.12,1.95c0,0-0.233-2.224-4.36-2.22c0,0,7.9-1.986,10.629-7.021c-3.33,4.718-11.238,6.206-13.759,6.541 c1.472-0.373,3.25-1.51,3.19-3.48c-0.02-0.73-0.23-1.41-0.63-1.97h-0.01c-0.1-0.16-0.23-0.31-0.37-0.45 c0.19,0.08,0.38,0.17,0.57,0.29l0.02,0.01c0.7,0.42,1.33,1.05,1.81,1.84c-0.13-0.71-0.13-1.44-0.2-2.2 c-0.33-3.71,2.62-7.26,2.71-7.36c0,0-0.35,3.31,0.94,5.27c-0.62-2.02-0.49-4.19,0.12-6.22c0.91-3.04,3.07-7.43,7.84-7.15 c1.55,0.09,3.06,0.49,4.36,1.41l0.04,0.03c0.65,0.47,1.24,1.03,1.75,1.66C34.985,16.98,35.805,19.42,35.805,21.99z"/></svg>