<svg xmlns="http://www.w3.org/2000/svg"  viewBox="0 0 48 48" width="1600px" height="1600px" baseProfile="basic"><path d="M35.406,28.281L22.797,40.891c-0.259,0.259-0.679,0.259-0.938,0L9.25,28.281c-0.259-0.259-0.259-0.679,0-0.938	l12.609-12.609c0.259-0.259,0.679-0.259,0.938,0l12.609,12.609C35.665,27.603,35.665,28.022,35.406,28.281z"/><path fill="#ffe500" stroke="#000" stroke-width=".25" d="M34.117,27.883L21.461,40.539c-0.246,0.246-0.645,0.246-0.891,0	L7.914,27.883c-0.246-0.246-0.246-0.645,0-0.891L20.57,14.336c0.246-0.246,0.645-0.246,0.891,0l12.656,12.656	C34.363,27.238,34.363,27.637,34.117,27.883z"/><path d="M45.962,20.274l-0.863,4.954l-2.102-0.103l0.317-5L45.962,20.274z M42.392,26.737l1.619-1.261l1.262,1.619l-1.619,1.261	L42.392,26.737z"/><path d="M2.854,30.451c0.061-0.814,0.061-4.099,0.061-4.468v-2.041c0-0.246-0.031-3.945-0.061-4.39c1.258,0,5.111-0.169,6.722-0.23	l0.062,2.533l-3.377,0.077v2.364c0.338,0,1.366-0.092,3.085-0.138l0.046,2.426l-3.131-0.031v1.304c0,0.246,0.015,2.38,0.015,2.595	H2.854z"/><path d="M13.097,28.692c0,0.53,0.042,4.06,0.07,4.27h-3.112c0.056-0.335,0.028-4.759,0.028-5.052v-1.144	c0-0.418-0.028-3.446-0.069-3.712c1.912,0,3.851,0.028,5.106,0.195c2.065,0.265,3.182,1.075,3.182,2.358	c0,1.144-0.712,2.023-1.8,2.79c0.419,0.475,2.554,2.638,2.917,3.084l-2.554,1.926c-0.321-0.53-3.028-4.451-3.405-5.065	c0.614-0.363,1.605-1.13,1.605-2.065c0-0.656-0.461-1.284-1.968-1.298V28.692z"/><path d="M26.978,32.962c0.028-0.363,0.042-2.344,0.042-3.865V25.44c-0.67,0-2.651,0.07-3.084,0.084v-2.442	c0.628,0.056,3.935,0.111,4.089,0.111h1.214c0.266,0,3.308-0.056,3.991-0.111v2.442c-0.265-0.014-2.847-0.084-3.07-0.084v3.879	c0,1.437,0.014,3.363,0.042,3.642H26.978z"/><path d="M33.13,19.58c0.628,0.084,7.759,0.307,8.415,0.349l0.055,0.14c-0.348,0.642-4.339,7.131-4.507,7.382	c0.824,0,3.935-0.042,4.326-0.098l-0.056,2.54c-0.349,0-8.163-0.14-8.777-0.14l-0.07-0.139c0.642-0.991,4.312-6.963,4.619-7.466	c-0.474,0-3.656-0.125-4.061-0.125L33.13,19.58z"/><path fill="#f1001a" stroke="#000" stroke-linejoin="round" stroke-width=".25" d="M1.933,29.223	c0.062-0.814,0.062-4.098,0.062-4.467v-2.042c0-0.246-0.031-3.944-0.062-4.39c1.259,0,5.112-0.169,6.723-0.23l0.062,2.532	L5.34,20.703v2.364c0.338,0,1.367-0.092,3.085-0.138l0.046,2.425L5.34,25.323v1.305c0,0.245,0.015,2.379,0.015,2.594H1.933z"/><path fill="#f1001a" stroke="#000" stroke-linejoin="round" stroke-width=".25" d="M12.261,27.576	c0,0.53,0.042,4.061,0.07,4.27H9.219c0.056-0.335,0.028-4.758,0.028-5.051V25.65c0-0.419-0.028-3.447-0.069-3.712	c1.912,0,3.851,0.028,5.107,0.196c2.065,0.265,3.181,1.074,3.181,2.358c0,1.144-0.711,2.024-1.799,2.791	c0.419,0.474,2.554,2.637,2.917,3.083l-2.554,1.926c-0.32-0.53-3.027-4.452-3.404-5.065c0.614-0.363,1.604-1.13,1.604-2.065	c0-0.656-0.461-1.284-1.967-1.298V27.576z"/><path d="M20.162,22.447c0.628-0.093,1.325-0.186,1.837-0.279l-0.372-1.898h1.751c-0.014,0.251-0.055,2.512-0.055,4.186v1.507	c0,1.396,0.041,3.893,0.055,4.214H20.14c0.028-0.614,0.042-3.879,0.042-4.242v-1.507C20.182,24.312,20.172,23.394,20.162,22.447z"/><path fill="#f1001a" stroke="#000" stroke-linejoin="round" stroke-width=".25" d="M26.141,31.846	c0.028-0.363,0.043-2.344,0.043-3.865v-3.656c-0.67,0-2.652,0.07-3.085,0.084v-2.443c0.628,0.056,3.936,0.112,4.09,0.112h1.213	c0.265,0,3.308-0.056,3.991-0.112v2.443c-0.265-0.014-2.847-0.084-3.07-0.084v3.879c0,1.437,0.014,3.363,0.042,3.642H26.141z"/><path fill="#f1001a" stroke="#000" stroke-linejoin="round" stroke-width=".25" d="M32.294,18.464	c0.628,0.084,7.758,0.307,8.415,0.349l0.055,0.139c-0.349,0.642-4.34,7.13-4.508,7.382c0.824,0,3.935-0.042,4.325-0.098l-0.055,2.54	c-0.349,0-8.164-0.14-8.778-0.14l-0.07-0.139c0.642-0.991,4.312-6.963,4.619-7.466c-0.474,0-3.656-0.125-4.061-0.125L32.294,18.464z"/><path fill="#f1001a" stroke="#000" stroke-linejoin="round" stroke-width=".25" d="M19.313,21.325	c0.628-0.094,1.326-0.186,1.837-0.279l-0.372-1.898h1.751c-0.014,0.251-0.056,2.512-0.056,4.186v1.507	c0,1.396,0.041,3.893,0.056,4.214h-3.238c0.028-0.614,0.042-3.879,0.042-4.242v-1.507C19.334,23.19,19.323,22.272,19.313,21.325z"/><path fill="#f1001a" stroke="#000" stroke-linejoin="round" stroke-width=".25" d="M44.846,19.785l-0.862,4.954l-2.102-0.103	l0.317-4.999L44.846,19.785z M41.276,26.248l1.619-1.261l1.262,1.619l-1.619,1.261L41.276,26.248z"/></svg>