<svg xmlns="http://www.w3.org/2000/svg"  viewBox="0 0 48 48" width="1600px" height="1600px" baseProfile="basic"><path fill="#1565c0" d="M35.745,42H12.255C8.801,42,6,39.199,6,35.745V12.255C6,8.801,8.801,6,12.255,6h23.489	C39.199,6,42,8.801,42,12.255v23.489C42,39.199,39.199,42,35.745,42z"/><path fill="#fff" d="M34,19c-1.105,0-2,0.895-2,2c0,0.569,0.241,1.08,0.622,1.444c-1.025,2.041-2.35,3.792-3.418,3.328	c-0.797-0.346-1.299-2.309-0.75-4.828C29.339,20.737,30,19.948,30,19c0-1.105-0.895-2-2-2s-2,0.895-2,2	c0,0.614,0.283,1.156,0.718,1.523C26.214,23.363,25.36,25,24,25c-1.361,0-2.195-1.635-2.706-4.487C21.723,20.146,22,19.608,22,19	c0-1.105-0.895-2-2-2s-2,0.895-2,2c0,0.992,0.723,1.809,1.67,1.967c0.412,2.544,0.19,4.454-0.605,4.805	c-1.003,0.443-2.652-1.045-3.794-3.24C15.713,22.165,16,21.619,16,21c0-1.105-0.895-2-2-2s-2,0.895-2,2s0.895,2,2,2	c0.11,0,0.217-0.015,0.323-0.033L17,31h14l2.677-8.033C33.783,22.985,33.89,23,34,23c1.105,0,2-0.895,2-2S35.105,19,34,19z"/></svg>