<svg xmlns="http://www.w3.org/2000/svg"  viewBox="0 0 48 48" width="1600px" height="1600px"><path fill="#3949ab" d="M4.163,18.392c0.74,2.438,1.724,5.337,4.08,7.129l14.745-4.768c-4.178-0.997-8.149-3.541-11.553-7.2 L4.163,18.392z"/><path fill="#283593" d="M16.919,18.15c-1.94-1.218-3.783-2.768-5.484-4.597l-6.732,4.48 c0.596,1.961,1.365,4.206,2.865,5.942C6.133,20.819,10.688,18.88,16.919,18.15z"/><path fill="#3949ab" d="M14.698,37.052l4.886,5.491c2.133,2.467,5.015,2.719,7.171,0.891 c1.196-1.015,4.324-4.317,4.324-4.317c-3.143-1.471-6.635-5.583-10.761-10.166l-7.941,3.336L14.698,37.052z"/><path fill="#283593" d="M25.584,34.715c-1.437-1.519-2.953-3.237-4.567-5.03l-7.941,3.336l2.5,4.802 c1.203,1.477,1.311,1.714,1.963,2.371C15.815,36.378,20.049,34.72,25.584,34.715z"/><path fill="#9fa8da" d="M37.155,15.737c1.47,0.365,2.792,0.788,3.882,1.272c1.424,0.632,3.015-0.679,3.411-2.186l2.03-7.717 c-1.764-0.765-3.459-1.324-5.641-1.856L37.155,15.737z"/><path fill="#acb3df" d="M31.114,14.672c2.419,0.284,4.695,0.692,6.654,1.217l3.297-10.582 c-2.42-0.62-5.049-1.101-7.774-1.436L31.114,14.672z"/><path fill="#b9bde3" d="M24.251,14.216c2.482,0.044,4.968,0.219,7.31,0.512l2.371-10.77 c-2.874-0.379-5.854-0.602-8.797-0.673L24.251,14.216z"/><path fill="#c6c8e8" d="M17.998,14.393c2.119-0.166,4.351-0.223,6.588-0.173l0.902-10.928 c-2.527-0.071-5.36,0.042-7.739,0.189L17.998,14.393z"/><path fill="#e0ddf1" d="M11.192,15.456L9.274,4.604c-4.865,1.127-8.018,2.94-7.733,5.374 c0.444,3.788,2.935,9.987,3.528,11.198l0.04-0.002C4.321,18.429,6.955,16.561,11.192,15.456z"/><path fill="#d3d2ed" d="M18.267,14.37L17.749,3.481c-3.508,0.2-6.054,0.537-8.754,1.186l1.929,10.863 C13.035,14.954,15.555,14.569,18.267,14.37z"/><path fill="#ede7f6" d="M5.792,18.177L1.98,8.221C1.626,8.765,1.467,9.35,1.541,9.978c0.444,3.788,2.935,9.987,3.528,11.198 l0.04-0.002C4.72,19.821,4.735,19.118,5.792,18.177z"/><path fill="#9fa8da" d="M8.079,25.705c-0.67-0.786-1.321-1.595-1.905-2.469c-0.572-0.876-1.122-1.817-1.325-2.949 c-0.086-0.564-0.053-1.192,0.195-1.741c0.232-0.557,0.633-0.992,1.047-1.352c0.851-0.705,1.805-1.157,2.752-1.573 c1.946-0.835,4.023-1.146,6.062-1.353c2.048-0.194,4.094-0.257,6.137-0.301c4.078-0.093,8.206-0.042,12.245,0.685 c2.02,0.349,4.006,0.897,5.925,1.6c0.96,0.313,1.914,0.797,2.903,0.777c0.495-0.017,0.93-0.306,1.269-0.67 c0.344-0.365,0.656-0.773,0.928-1.201l0.022,0.013c-0.206,0.523-0.5,0.898-0.85,1.282c-0.341,0.381-0.813,0.712-1.356,0.74 c-0.535,0.048-1.044-0.107-1.534-0.249c-0.492-0.15-0.972-0.322-1.455-0.484c-1.925-0.665-3.899-1.171-5.908-1.481 c-4.021-0.647-8.102-0.624-12.173-0.457c-2.035,0.08-4.07,0.181-6.083,0.408c-2.005,0.239-4.014,0.587-5.817,1.401 c-0.909,0.416-1.81,0.877-2.522,1.493c-0.725,0.613-1.09,1.429-0.909,2.316c0.171,0.886,0.673,1.756,1.229,2.565 c0.565,0.813,1.209,1.587,1.876,2.341L8.079,25.705z"/><path fill="#ede7f6" d="M12.338,22.014c-3.325,1.035-5.262,2.674-4.393,4.943c1.123,2.932,5.192,7.985,7.048,10.542 c-0.402-0.89-0.482-1.667-0.312-2.343L12.338,22.014z"/><path fill="#dddaf0" d="M18.721,32.226V20.864c-2.503,0.217-4.793,0.626-6.632,1.229L14.76,37.18 c0.079,0.108,0.161,0.218,0.234,0.318C13.737,34.718,15.548,33.006,18.721,32.226z"/><path fill="#ceceeb" d="M17.749,32.507c1.719-0.59,3.996-0.835,6.464-0.768V20.691c-2.188-0.041-4.355,0.043-6.365,0.257 L17.749,32.507z"/><path fill="#bec1e5" d="M22.833,31.733c2.297-0.051,4.835,0.196,7.286,0.715l0.918-11.204 c-2.343-0.347-4.842-0.535-7.309-0.56L22.833,31.733z"/><path fill="#afb5e0" d="M29.822,21.08l-2.236,10.933c1.956,0.26,3.927,0.693,5.751,1.292 c0.763,0.25,1.572-0.047,2.156-0.601l0.638-10.357C34.259,21.78,32.1,21.358,29.822,21.08z"/><path fill="#9fa8da" d="M40.69,24.446c-1.409-1.059-3.457-1.827-5.54-2.375l-3.384,10.768 c0.533,0.142,1.059,0.297,1.572,0.465c1.002,0.329,2.085-0.284,2.63-1.186c1.019-1.685,2.671-4.407,3.874-6.332L40.69,24.446z"/><path fill="#e0ddf1" d="M12.338,22.014c-3.325,1.035-5.262,2.674-4.393,4.943c1.123,2.932,5.192,7.985,7.048,10.542 c-0.402-0.89-0.482-1.667-0.312-2.343L12.338,22.014z"/><path fill="#d3d2ed" d="M18.721,32.226V20.864c-2.503,0.217-4.793,0.626-6.632,1.229l2.794,14.696 c0.079,0.108,0.038,0.609,0.11,0.709C13.737,34.718,15.548,33.006,18.721,32.226z"/><path fill="#c6c8e8" d="M18.721,32.226c1.719-0.59,3.024-0.554,5.492-0.487V20.691c-2.188-0.041-4.355,0.043-6.365,0.257 L18.721,32.226z"/><path fill="#b9bde3" d="M22.833,31.733c2.297-0.051,4.835,0.196,7.286,0.715l0.918-11.204 c-2.343-0.347-4.842-0.535-7.309-0.56L22.833,31.733z"/><path fill="#acb3df" d="M29.822,21.08l-2.236,10.933c1.956,0.26,3.927,0.693,5.751,1.292 c0.763,0.25,1.572-0.047,2.156-0.601l0.638-10.357C34.259,21.78,32.1,21.358,29.822,21.08z"/><path fill="#9fa8da" d="M40.69,24.446c-1.409-1.059-2.842-1.658-4.925-2.206l-3.999,10.6 c0.533,0.142,1.059,0.297,1.572,0.465c1.002,0.329,2.085-0.284,2.63-1.186c1.019-1.685,2.671-4.407,3.874-6.332L40.69,24.446z"/><path fill="#9fa8da" d="M35.983,32.093c-0.242,0.354-0.535,0.709-0.913,0.957c-0.383,0.245-0.852,0.345-1.295,0.332 c-0.889-0.038-1.7-0.305-2.514-0.505c-1.619-0.436-3.252-0.764-4.914-0.877c-1.663-0.102-3.34-0.127-4.997-0.009 c-1.642,0.136-3.335,0.367-4.768,1.062c-0.695,0.355-1.296,0.892-1.525,1.581c-0.12,0.34-0.15,0.721-0.112,1.092 c0.039,0.355,0.179,0.717,0.37,1.053c0.372,0.659,1.022,1.25,1.546,1.912l1.625,1.93c1.082,1.261,2.182,2.574,3.622,3.327 c0.712,0.375,1.527,0.535,2.325,0.387c0.801-0.137,1.614-0.461,2.289-0.943l0.033,0.042c-0.659,0.529-1.4,1.006-2.259,1.206 c-0.851,0.208-1.792,0.095-2.582-0.291c-1.595-0.774-2.752-2.091-3.89-3.326l-1.654-1.911l-0.832-0.942 c-0.277-0.297-0.59-0.665-0.81-1.053c-0.483-0.774-0.649-1.806-0.341-2.71c0.306-0.937,1.09-1.578,1.878-1.977 c1.62-0.766,3.342-0.968,5.037-1.104c1.703-0.118,3.401-0.07,5.094,0.083c1.697,0.16,3.375,0.524,4.989,1.024 c0.806,0.238,1.605,0.531,2.403,0.599c0.397,0.028,1.501-0.071,2.15-0.959L35.983,32.093z"/><path fill="#ede7f6" d="M8.384,24.237c-0.641,0.777-0.836,1.681-0.439,2.719c0.556,1.452,2.725,5.033,6.861,10.291 L8.384,24.237z"/></svg>