<svg xmlns="http://www.w3.org/2000/svg"  viewBox="0 0 48 48" width="1600px" height="1600px" clip-rule="evenodd" baseProfile="basic"><path fill="#2196f3" d="M42.262,15.829c0.241,0.541,0.377,0.836,0.56,1.385	c-4.209-0.596-9.131,2.695-12.515,4.591c2.491-3.979,1.621-8.399-1.76-10.884c-3.741-2.759-8.327-2.031-12.468,2.937	c-3.508,4.209-4.341,9.025-0.593,11.781c3.656,2.688,9.085,4.495,14.685-2.151c0.027-0.028-0.668,0.828-0.64,0.8	c-4.273,6.393-10.895,8.521-16.375,6.803c-3.96-1.243-6.601-4.404-7.5-5.688c-0.653-0.933-0.819-3.777-1.331-4.948	c1.661-9.355,9.837-16.457,19.676-16.457C32.135,3.998,39.138,8.854,42.262,15.829z"/><path fill="#2196f3" d="M44.002,23.998c0,11.047-8.955,20-20,20	c-6.955,0-13.081-3.551-16.661-8.933c0.555,0.183,1.56-0.548,2.051-0.395c1.847,0.591,3.217,0.009,4.937-0.249	c1.565-0.239,4.161-0.492,4.907-1c-0.281,0.591-1.32,3.044-2,3.812c-1.009,1.121-2.067,1.125-2.781,1.469	c2.377,0.723,5.099,0.62,9.907-0.251c4.539-0.821,6.785-2.083,8.968-3.5c2.077-1.347,4.032-2.831,6.251-6.031	c1.58-2.281,3.971-4.252,4.4-5.923C43.997,23.293,44.002,23.705,44.002,23.998z"/><path fill="#1574c0" fill-rule="evenodd" d="M35.323,30.405	c-1.251,0.728-2.563,0.807-2.932,0.184c-0.359-0.631,0.368-1.724,1.619-2.451c1.26-0.727,2.575-0.807,2.933-0.176	C37.313,28.586,36.585,29.689,35.323,30.405z" clip-rule="evenodd"/><path fill="#1574c0" fill-rule="evenodd" d="M30.306,21.805	c0.591-1.024,1.064-2.508,1.064-3.772c0-3.873-3.144-7.017-7.019-7.017s-7.019,3.144-7.019,7.017c0,3.875,3.144,7.019,7.019,7.019	c2.056,0,3.909-0.883,5.193-2.301c-0.408,2.299-1.861,3.661-4.029,4.303c-4.123,2.987-8.24,2.125-10.989,0.104	c-3.747-2.757-2.807-9.825,0.703-14.035c4.14-4.969,10.357-5.399,14.099-2.639C32.71,12.969,32.85,17.719,30.306,21.805z" clip-rule="evenodd"/><path fill="#90caf9" fill-rule="evenodd" d="M42.658,16.777	c-0.247-0.635-0.787-1.128-1.459-1.227c-0.004,0-0.008,0-0.012-0.001c-4.209-0.596-7.893,2.428-10.301,5.403	c-0.325,0.471-0.929,1.337-1.264,1.713c-4.273,6.392-11.017,8.315-16.497,6.596c-3.959-1.243-6.12-4.329-7.019-5.615	c-0.653-0.933-1.269-2.02-1.781-3.192c-0.219,1.152-0.323,2.339-0.323,3.544c0,4.092,1.227,7.895,3.339,11.067	c0.555,0.183,1.08,0.363,1.572,0.512c2.995,0.915,6.293,0.476,8.421-0.703c-0.281,0.591-0.723,1.34-1.403,2.108	c-1.009,1.121-2.092,1.761-2.807,2.105c2.377,0.723,6.42,1.572,11.228,0.701c4.54-0.821,7.641-2.793,9.824-4.211	c2.077-1.347,4.8-3.115,7.019-6.315c1.58-2.281,2.564-4.487,2.779-6.163c0.015-0.104-0.012-0.284-0.02-0.419	C43.826,20.613,43.377,18.629,42.658,16.777z M35.194,30.181c-1.003,0.583-2.055,0.647-2.351,0.147	c-0.288-0.505,0.295-1.381,1.297-1.964c1.011-0.583,2.064-0.647,2.352-0.141C36.789,28.722,36.205,29.606,35.194,30.181z" clip-rule="evenodd"/></svg>