<svg xmlns="http://www.w3.org/2000/svg"  viewBox="0 0 48 48" width="1600px" height="1600px"><path fill="#cfd8dc" d="M42,37c0,2.762-2.238,5-5,5H11c-2.761,0-5-2.238-5-5V11c0-2.762,2.239-5,5-5h26c2.762,0,5,2.238,5,5	V37z"/><path fill="#536dfe" d="M37,6H26.463L13.154,42H37c2.762,0,5-2.238,5-5V11C42,8.238,39.762,6,37,6z"/><path fill="#fafafa" d="M24.34,23.869v3.365h-1.067v-8.31h2.831c0.683-0.014,1.343,0.245,1.833,0.719 c0.496,0.447,0.776,1.086,0.766,1.754c0.014,0.671-0.265,1.316-0.766,1.764c-0.495,0.472-1.106,0.708-1.833,0.707L24.34,23.869 L24.34,23.869z M24.34,19.947v2.901h1.79c0.397,0.012,0.78-0.144,1.056-0.43c0.561-0.545,0.573-1.442,0.028-2.003 c-0.009-0.01-0.019-0.019-0.028-0.028c-0.273-0.292-0.657-0.452-1.056-0.441L24.34,19.947L24.34,19.947z"/><path fill="#fafafa" d="M31.163,21.362c0.789,0,1.412,0.211,1.868,0.633s0.685,1,0.684,1.734v3.504h-1.021v-0.789h-0.046 c-0.442,0.65-1.03,0.975-1.764,0.975c-0.626,0-1.15-0.186-1.572-0.557c-0.41-0.345-0.642-0.857-0.633-1.392 c0-0.588,0.222-1.056,0.667-1.404c0.445-0.347,1.038-0.522,1.781-0.522c0.634,0,1.156,0.116,1.566,0.348v-0.244 c0.002-0.365-0.159-0.712-0.441-0.945c-0.282-0.255-0.65-0.394-1.03-0.389c-0.596,0-1.068,0.252-1.416,0.755l-0.94-0.592 C29.384,21.734,30.149,21.362,31.163,21.362z M29.782,25.493c-0.001,0.276,0.13,0.535,0.354,0.696 c0.236,0.186,0.529,0.284,0.829,0.278c0.45-0.001,0.882-0.18,1.201-0.499c0.354-0.333,0.53-0.723,0.53-1.172 c-0.333-0.265-0.797-0.398-1.392-0.398c-0.434,0-0.795,0.105-1.085,0.314C29.927,24.925,29.782,25.183,29.782,25.493L29.782,25.493 z"/><path fill="#fafafa" d="M39.576,21.548l-3.564,8.192H34.91l1.323-2.866l-2.344-5.325h1.16l1.694,4.084h0.023l1.648-4.084 H39.576z"/><path fill="#4285f4" d="M17.263,23.143c0-0.325-0.027-0.65-0.082-0.971h-4.502v1.839h2.578 c-0.107,0.593-0.451,1.117-0.953,1.451v1.193h1.539C16.744,25.824,17.263,24.596,17.263,23.143z"/><path fill="#34a853" d="M12.679,27.808c1.288,0,2.373-0.423,3.164-1.152l-1.539-1.193c-0.428,0.29-0.98,0.456-1.625,0.456 c-1.245,0-2.302-0.839-2.68-1.97H8.414v1.23C9.224,26.79,10.875,27.808,12.679,27.808z"/><path fill="#fbbc04" d="M9.999,23.948c-0.2-0.593-0.2-1.235,0-1.827v-1.23H8.414c-0.678,1.349-0.678,2.938,0,4.287 L9.999,23.948z"/><path fill="#ea4335" d="M12.679,20.15c0.681-0.011,1.339,0.246,1.831,0.716l0,0l1.362-1.362 c-0.864-0.811-2.009-1.257-3.194-1.243c-1.805,0-3.455,1.018-4.265,2.63l1.585,1.23C10.377,20.99,11.434,20.15,12.679,20.15z"/></svg>