<svg xmlns="http://www.w3.org/2000/svg"  viewBox="0 0 48 48" width="1600px" height="1600px"><path fill="#ffa000" d="M40.49,21.453c-0.064-0.609-0.16-1.315-0.353-2.084c-0.192-0.77-0.513-1.603-0.93-2.501	c-0.449-0.866-0.994-1.796-1.732-2.662c-0.289-0.353-0.609-0.673-0.93-1.026c0.513-2.02-0.609-3.784-0.609-3.784	c-1.956-0.128-3.175,0.609-3.624,0.93c-0.064-0.032-0.16-0.064-0.224-0.096c-0.321-0.128-0.673-0.257-1.026-0.385	c-0.353-0.096-0.705-0.224-1.058-0.289c-0.353-0.096-0.738-0.16-1.122-0.224c-0.064,0-0.128-0.032-0.192-0.032	c-0.834-2.694-3.271-3.848-3.271-3.848c-2.79,1.796-3.335,4.201-3.335,4.201s0,0.064-0.032,0.128	c-0.16,0.032-0.289,0.096-0.449,0.128c-0.192,0.064-0.417,0.128-0.609,0.224c-0.192,0.096-0.417,0.16-0.609,0.257	c-0.417,0.192-0.802,0.385-1.219,0.609c-0.385,0.224-0.77,0.449-1.122,0.705c-0.064-0.032-0.096-0.064-0.096-0.064	c-3.752-1.443-7.087,0.289-7.087,0.289c-0.289,4.008,1.507,6.51,1.86,6.959c-0.096,0.257-0.16,0.481-0.257,0.738	c-0.289,0.898-0.481,1.828-0.609,2.79c-0.032,0.128-0.032,0.289-0.064,0.417c-3.463,1.7-4.489,5.227-4.489,5.227	c2.886,3.335,6.285,3.527,6.285,3.527l0,0c0.417,0.77,0.93,1.507,1.475,2.181c0.224,0.289,0.481,0.545,0.738,0.834	c-1.058,3.014,0.16,5.548,0.16,5.548c3.239,0.128,5.355-1.411,5.804-1.764c0.321,0.096,0.641,0.192,0.962,0.289	c0.994,0.257,2.02,0.417,3.014,0.449c0.257,0,0.513,0,0.77,0h0.128h0.096h0.16h0.16l0,0c1.507,2.181,4.201,2.469,4.201,2.469	c1.892-2.02,2.02-3.976,2.02-4.425l0,0c0,0,0,0,0-0.032s0-0.064,0-0.064l0,0c0-0.032,0-0.064,0-0.096	c0.385-0.289,0.77-0.577,1.154-0.898c0.77-0.673,1.411-1.475,1.988-2.309c0.064-0.064,0.096-0.16,0.16-0.224	c2.149,0.128,3.656-1.347,3.656-1.347c-0.353-2.245-1.635-3.335-1.892-3.527l0,0c0,0,0,0-0.032-0.032l-0.032-0.032l0,0l-0.032-0.032	c0-0.128,0.032-0.257,0.032-0.417c0.032-0.257,0.032-0.481,0.032-0.738v-0.192v-0.096v-0.032c0-0.064,0-0.032,0-0.064v-0.16V26.68	c0-0.064,0-0.128,0-0.192c0-0.064,0-0.128-0.032-0.192l-0.032-0.192l-0.032-0.192c-0.032-0.257-0.096-0.481-0.128-0.738	c-0.224-0.962-0.609-1.892-1.09-2.694c-0.513-0.834-1.122-1.539-1.828-2.181c-0.705-0.609-1.475-1.122-2.309-1.475	c-0.834-0.385-1.668-0.609-2.533-0.705c-0.417-0.064-0.866-0.064-1.283-0.064h-0.16H28.85h-0.064h-0.064h-0.16	c-0.064,0-0.128,0-0.16,0c-0.224,0.032-0.449,0.064-0.641,0.096c-0.866,0.16-1.668,0.481-2.373,0.898	c-0.705,0.417-1.315,0.962-1.828,1.571s-0.898,1.251-1.154,1.956c-0.257,0.673-0.417,1.411-0.449,2.084c0,0.16,0,0.353,0,0.513	c0,0.032,0,0.096,0,0.128v0.128c0,0.096,0,0.16,0.032,0.257c0.032,0.353,0.096,0.673,0.192,0.994	c0.192,0.641,0.481,1.219,0.866,1.732c0.385,0.513,0.802,0.898,1.283,1.219s0.962,0.545,1.475,0.705	c0.513,0.16,0.994,0.224,1.443,0.192c0.064,0,0.128,0,0.16,0s0.064,0,0.096,0c0.032,0,0.064,0,0.096,0c0.064,0,0.096,0,0.16,0h0.032	h0.032c0.032,0,0.064,0,0.096,0c0.064,0,0.128-0.032,0.16-0.032c0.064,0,0.096-0.032,0.16-0.032	c0.096-0.032,0.224-0.064,0.321-0.096c0.192-0.064,0.385-0.16,0.577-0.224c0.192-0.096,0.353-0.192,0.481-0.289	c0.032-0.032,0.096-0.064,0.128-0.096c0.16-0.128,0.192-0.353,0.064-0.513c-0.128-0.128-0.321-0.16-0.481-0.096	c-0.032,0.032-0.064,0.032-0.128,0.064c-0.128,0.064-0.289,0.128-0.417,0.16c-0.16,0.032-0.321,0.096-0.481,0.128	c-0.096,0-0.16,0.032-0.257,0.032c-0.032,0-0.096,0-0.128,0c-0.032,0-0.096,0-0.128,0s-0.096,0-0.128,0c-0.064,0-0.096,0-0.16,0	c0,0-0.032,0,0,0h-0.032h-0.032c-0.032,0-0.032,0-0.064,0s-0.096,0-0.128-0.032c-0.353-0.064-0.738-0.16-1.09-0.321	c-0.353-0.16-0.705-0.385-0.994-0.673c-0.321-0.289-0.577-0.609-0.802-0.994c-0.224-0.385-0.353-0.802-0.417-1.219	c-0.032-0.224-0.064-0.449-0.032-0.673c0-0.064,0-0.128,0-0.192c0,0.032,0,0,0,0v-0.032v-0.032c0-0.032,0-0.064,0-0.096	c0-0.128,0.032-0.224,0.064-0.353c0.16-0.962,0.641-1.892,1.379-2.597c0.192-0.192,0.385-0.353,0.609-0.481	c0.224-0.16,0.449-0.289,0.673-0.385c0.224-0.096,0.481-0.192,0.738-0.257s0.513-0.128,0.77-0.128c0.128,0,0.257-0.032,0.385-0.032	c0.032,0,0.064,0,0.096,0h0.096h0.064c0.032,0,0,0,0,0h0.032h0.096c0.289,0.032,0.577,0.064,0.834,0.128	c0.545,0.128,1.09,0.321,1.603,0.609c1.026,0.577,1.892,1.443,2.405,2.501c0.257,0.513,0.449,1.09,0.545,1.7	c0.032,0.16,0.032,0.289,0.064,0.449v0.096v0.096c0,0.032,0,0.064,0,0.096c0,0.032,0,0.064,0,0.096v0.096v0.096	c0,0.064,0,0.192,0,0.257c0,0.16-0.032,0.321-0.032,0.481c-0.032,0.16-0.032,0.321-0.064,0.481c-0.032,0.16-0.064,0.321-0.096,0.481	c-0.064,0.321-0.192,0.609-0.289,0.93c-0.224,0.609-0.545,1.186-0.93,1.7c-0.77,1.058-1.828,1.924-3.014,2.469	c-0.609,0.257-1.219,0.481-1.86,0.577c-0.321,0.064-0.641,0.096-0.962,0.096h-0.064H26.99h-0.096h-0.16h-0.096c0.032,0,0,0,0,0	h-0.032c-0.16,0-0.353,0-0.513-0.032c-0.705-0.064-1.379-0.192-2.052-0.385c-0.673-0.192-1.315-0.449-1.924-0.77	c-1.219-0.641-2.309-1.571-3.175-2.63c-0.417-0.545-0.802-1.122-1.122-1.732s-0.545-1.251-0.738-1.892	c-0.192-0.641-0.289-1.315-0.321-1.988v-0.128v-0.032v-0.032v-0.064v-0.096V24.66v-0.032v-0.064v-0.16v-0.032l0,0v-0.064	c0-0.096,0-0.16,0-0.257c0-0.321,0.032-0.673,0.096-1.026c0.032-0.353,0.096-0.673,0.16-1.026s0.16-0.673,0.257-1.026	c0.192-0.673,0.417-1.315,0.705-1.924c0.577-1.219,1.315-2.309,2.181-3.175c0.224-0.224,0.449-0.417,0.705-0.609	c0.096-0.096,0.321-0.289,0.577-0.449s0.513-0.321,0.802-0.449c0.128-0.064,0.257-0.128,0.417-0.192	c0.064-0.032,0.128-0.064,0.224-0.096c0.064-0.032,0.128-0.064,0.224-0.096c0.289-0.128,0.577-0.224,0.866-0.321	c0.064-0.032,0.16-0.032,0.224-0.064c0.064-0.032,0.16-0.032,0.224-0.064c0.16-0.032,0.289-0.064,0.449-0.128	c0.064-0.032,0.16-0.032,0.224-0.064c0.064,0,0.16-0.032,0.224-0.032c0.064,0,0.16-0.032,0.224-0.032l0.128-0.032l0.128-0.032	c0.064,0,0.16-0.032,0.224-0.032c0.096,0,0.16-0.032,0.257-0.032c0.064,0,0.192-0.032,0.257-0.032c0.064,0,0.096,0,0.16-0.032h0.096	h0.064h0.064c0.096,0,0.16,0,0.257-0.032h0.128c0,0,0.032,0,0,0h0.032h0.064c0.064,0,0.16,0,0.224,0c0.289,0,0.577,0,0.866,0	c0.577,0.032,1.154,0.096,1.7,0.192c1.09,0.192,2.149,0.545,3.078,1.026c0.93,0.449,1.796,1.026,2.501,1.635	c0.032,0.032,0.096,0.064,0.128,0.128c0.032,0.032,0.096,0.064,0.128,0.128c0.096,0.064,0.16,0.16,0.257,0.224	s0.16,0.16,0.257,0.224c0.064,0.096,0.16,0.16,0.224,0.257c0.321,0.321,0.609,0.673,0.866,0.994c0.513,0.673,0.93,1.347,1.251,1.988	c0.032,0.032,0.032,0.064,0.064,0.128c0.032,0.032,0.032,0.064,0.064,0.128c0.032,0.064,0.064,0.16,0.128,0.224	c0.032,0.064,0.064,0.16,0.096,0.224c0.032,0.064,0.064,0.16,0.096,0.224c0.128,0.289,0.224,0.577,0.321,0.866	c0.16,0.449,0.257,0.834,0.353,1.154c0.032,0.128,0.16,0.224,0.289,0.224c0.16,0,0.257-0.128,0.257-0.289	C40.522,22.351,40.522,21.934,40.49,21.453z"/></svg>