<svg xmlns="http://www.w3.org/2000/svg"  viewBox="0 0 48 48" width="1600px" height="1600px"><polygon fill="#fafafa" points="35,23 46,19 42,30 35,30"/><path fill="#00acc1" d="M42.7,31H34v-8.7l13.672-4.972L42.7,31z M36,29h5.3l3.028-8.328L36,23.7V29z"/><polygon fill="#fafafa" points="31,23 24,12.342 17,23 17,30 31,30"/><path fill="#00acc1" d="M32,31H16v-8.299l8-12.181l8,12.181V31z M18,29h12v-5.701l-6-9.135l-6,9.135V29z"/><polygon fill="#fafafa" points="13,23 2,19 6,30 13,30"/><path fill="#00acc1" d="M14,31H5.3L0.328,17.328L14,22.3V31z M6.7,29H12v-5.3l-8.328-3.028L6.7,29z"/><polygon fill="#00acc1" points="13,23 5.17,30 13,30"/><polygon fill="#00acc1" points="7.469,20.196 2.958,18.808 4,23"/><polygon fill="#00acc1" points="26.383,17 24,12.574 21.617,17"/><line x1="6.383" x2="41.617" y1="34" y2="34" fill="none" stroke="#00acc1" stroke-linecap="square" stroke-miterlimit="10" stroke-width="2"/><g><polygon fill="#00acc1" points="35,23 42.83,30 35,30"/></g><g><polygon fill="#00acc1" points="40.531,20.196 45.042,18.808 44,23"/></g><g><rect width="14" height="7.167" x="17" y="23" fill="#00acc1"/></g></svg>