<svg xmlns="http://www.w3.org/2000/svg"  viewBox="0 0 48 48" width="1600px" height="1600px"><path fill="#90a4ae" d="M34.85,25L33,40h-5v-8H10l-2,8H3l2.7-20.52C6.45,14.6,10.64,11,15.58,11h12.09l-0.74,4.78 c-0.35,2.31,0.32,4.66,1.84,6.43C30.29,23.98,32.5,25,34.84,25H34.85z"/><path fill="#90a4ae" d="M42.639 33.848l2.475-19.088C45.58 11.731 43.236 9 40.172 9H30l-1.09 7.088C28.35 19.722 31.163 23 34.84 23H38v11c0 2.209 1.791 4 4 4h3v-3h-1.373C43.014 35 42.546 34.454 42.639 33.848zM10 40L14.5 40 16.5 34 11.5 34z"/></svg>