<svg xmlns="http://www.w3.org/2000/svg"  viewBox="0 0 48 48" width="1600px" height="1600px" clip-rule="evenodd" baseProfile="basic"><path fill="#b71c1c" fill-rule="evenodd" d="M36.602,33.999	l-2.939-10.364l-2.832,8.359c-0.185,0.547,0.852,0.948,0.852,1.499c0,0.236-0.111,0.501-0.491,0.501l-4.908,0.005	c-1.373,0-0.953-1.181-0.656-1.999l5.413-16.001c0.184-0.548-0.853-0.949-0.853-1.5c0-0.236,0.113-0.5,0.492-0.5h6.932l2.573,9.079	l2.392-7.079c0.184-0.548-0.853-0.949-0.853-1.5c0-0.236,0.113-0.5,0.493-0.5h4.705c1.375,0,1.149,1.187,0.852,2.004l-6.087,17.996	H36.602z" clip-rule="evenodd"/><path fill="#7e57c2" fill-rule="evenodd" d="M7.663,31.999	l1.429-4.227c2.353-1.259,4.665-1.628,7.177-1.773l-1.427,4h2.167c1.511,0,2.951-1.964,2.951-3.499c0-0.752-0.075-2.001-1.372-2.001	h-1.088c-2.581,0-5.468,0.603-7.671,1.095l3.244-9.595c0.184-0.548-0.732-0.949-0.732-1.5c0-0.236,0.257-0.5,0.636-0.5h11.903	c1.055,0,2.22,0.579,2.784,1.529c0.44,0.743,0.315,1.693,0.052,2.471l-0.508,1.5c-0.445,1.319-1.355,2.449-2.66,3.193	c0.793,0.463,1.252,1.039,1.464,1.756c0.276,0.94-0.091,2.08-0.417,3.051l-0.676,2c-0.72,2.129-2.744,4.5-4.959,4.5H8.321	C6.945,33.999,7.365,32.817,7.663,31.999z M22.017,19.269c0.012-0.557-0.524-1.269-1.073-1.269h-2.04l-1.184,3.499h2.241	C20.962,21.498,21.994,20.286,22.017,19.269z" clip-rule="evenodd"/><path fill="#009688" fill-rule="evenodd" d="M7.595,25.998	l3.379-9.995c0.299-0.817,0.524-2.004-0.852-2.004H4.219c-0.379,0-0.491,0.264-0.491,0.5c0,0.551,1.036,0.952,0.852,1.5	l-4.581,13.547C2.406,28.035,4.93,26.827,7.595,25.998z" clip-rule="evenodd"/><path fill="#009688" fill-rule="evenodd" d="M6.641,28.821	l-1.072,3.173c-0.185,0.547,0.62,0.953,0.62,1.505c0,0.236-0.115,0.5-0.493,0.5H0.283C2.021,31.969,4.161,30.258,6.641,28.821z" clip-rule="evenodd"/></svg>