<svg xmlns="http://www.w3.org/2000/svg"  viewBox="0 0 48 48" width="1600px" height="1600px"><path fill="#40c4ff" d="M6 16h4v15H6V16L6 16zM0 16h4v15H0V16L0 16zM19 16h4v15h-4V16L19 16zM30 16h4v15h-4V16L30 16zM41 16h4v15h-4V16L41 16z"/><g><path fill="#f4511e" d="M9 16h6v5H9V16L9 16zM8 22h5v5H8V22L8 22zM16 16h10v5H16V16L16 16zM27 16h10v5H27V16L27 16zM38 16h10v5H38V16L38 16z"/></g><g><path fill="#212121" d="M19 16h4v5h-4V16L19 16zM30 16h4v5h-4V16L30 16zM41 16h4v5h-4V16L41 16zM6 16h4v5H6V16L6 16zM6 22h4v5H6V22L6 22z"/></g></svg>