<svg xmlns="http://www.w3.org/2000/svg"  viewBox="0 0 48 48" width="1600px" height="1600px"><path fill="#468500" d="M35.421,23.313c-0.406,0-0.793,0.2-1.09,0.565c-0.057,0.069-0.109,0.143-0.157,0.222v2.891	c0.428,0.292,0.758,0.348,1.247,0.348c0.87,0,1.579-0.903,1.579-2.013S36.291,23.313,35.421,23.313z"/><path fill="#468500" d="M23.827,23.33c-0.663,0-1.232,0.524-1.465,1.264h2.93C25.057,23.853,24.489,23.33,23.827,23.33z"/><path fill="#468500" d="M34,6.077H14c-4.418,0-8,3.582-8,8v20c0,4.418,3.582,8,8,8h20c4.418,0,8-3.582,8-8v-20	C42,9.658,38.418,6.077,34,6.077z M11.001,28.252c0,0.413-0.336,0.748-0.75,0.748c-0.414,0-0.75-0.335-0.75-0.748v-5.388	c0-0.413,0.336-0.748,0.75-0.748c0.414,0,0.75,0.335,0.75,0.748V28.252z M10.251,21.185c-0.469,0-0.85-0.381-0.85-0.85	s0.381-0.85,0.85-0.85s0.85,0.381,0.85,0.85S10.72,21.185,10.251,21.185z M19.847,28.205c0,0.413-0.336,0.748-0.75,0.748	c-0.414,0-0.75-0.335-0.75-0.748v-3.613H13.93v3.613c0,0.413-0.336,0.748-0.75,0.748c-0.414,0-0.75-0.335-0.75-0.748v-8.256	c0-0.413,0.336-0.748,0.75-0.748c0.414,0,0.75,0.335,0.75,0.748v3.146h4.416v-3.146c0-0.413,0.336-0.748,0.75-0.748	c0.414,0,0.75,0.335,0.75,0.748V28.205z M26.155,26.091h-3.793c0.233,0.741,0.802,1.264,1.465,1.264c0.587,0,0.946-0.08,1.519-0.554	c0.318-0.262,0.79-0.221,1.056,0.099c0.265,0.318,0.221,0.79-0.099,1.054c-0.905,0.748-1.619,0.898-2.477,0.898	c-1.698,0-3.079-1.574-3.079-3.509c0-1.935,1.381-3.509,3.079-3.509c1.697,0,3.078,1.574,3.078,3.509	C26.905,25.755,26.569,26.091,26.155,26.091z M31.202,23.604c-0.074,0.026-0.154,0.04-0.229,0.043	c-0.556,0.018-1.162,0.117-1.602,0.38v4.178c0,0.413-0.336,0.748-0.75,0.748c-0.414,0-0.75-0.335-0.75-0.748v-5.263	c0-0.413,0.336-0.748,0.75-0.748c0.382,0,0.686,0.29,0.732,0.658c0.416-0.292,0.858-0.507,1.329-0.673l0.013-0.004	c0.396-0.14,0.83,0.067,0.97,0.462C31.805,23.031,31.597,23.464,31.202,23.604z M35.421,28.834c-0.858,0-1.572-0.15-2.477-0.898	c-0.172-0.142-0.272-0.354-0.272-0.576v-7.612c0-0.413,0.336-0.748,0.75-0.748c0.414,0,0.75,0.335,0.75,0.748v2.368	c0.389-0.196,0.814-0.301,1.247-0.301c1.698,0,3.079,1.574,3.079,3.509S37.119,28.834,35.421,28.834z M37.836,20.996	c-0.423,0-0.766-0.344-0.766-0.766s0.344-0.766,0.766-0.766s0.766,0.344,0.766,0.766S38.259,20.996,37.836,20.996z"/><path fill="#468500" d="M37.894,19.991h-0.163v0.179l0.055,0v0c0.001,0,0.001,0,0.002,0l0.108-0.001 c0.05,0,0.088-0.04,0.088-0.089C37.983,20.031,37.943,19.991,37.894,19.991z"/><path fill="#468500" d="M37.836,19.626c-0.333,0-0.603,0.27-0.603,0.603s0.27,0.603,0.603,0.603s0.603-0.27,0.603-0.603 S38.169,19.626,37.836,19.626z M38.132,20.64h-0.164c0-0.1-0.044-0.306-0.18-0.308l-0.056,0v0.307h-0.164v-0.812h0.327 c0.14,0,0.253,0.113,0.253,0.251c0,0.094-0.06,0.161-0.137,0.204C38.088,20.374,38.132,20.505,38.132,20.64z"/></svg>