<svg xmlns="http://www.w3.org/2000/svg"  viewBox="0 0 48 48" width="1600px" height="1600px"><path fill="#1565c0" d="M47.993,35H0V14h48v21H47.993z"/><path fill="#ffd600" d="M0.936,24.5C0.936,29.143,10.6,33,24,33s23.058-3.857,23.058-8.5S37.393,16,24,16	S0.936,19.857,0.936,24.5L0.936,24.5z"/><path fill="#1565c0" d="M15.677,20.992c-0.101,0.203-0.101,0.399-0.101,0.601v2.534	c0,0,1.358-1.764,1.669-2.183c0.237-0.311,0.527-0.75,0.527-0.953h4.433c-0.304,0.203-0.642,0.568-0.919,0.906	c-0.243,0.297-1.622,1.98-1.622,1.98s2.048,3.116,2.311,3.514c0.149,0.216,0.311,0.419,0.5,0.601h-5.102	c0-0.203-0.196-0.615-0.412-0.939c-0.216-0.324-1.385-2.102-1.385-2.102v2.44c0,0.203,0,0.399,0.101,0.601h-4.251	c0.101-0.203,0.101-0.399,0.101-0.601v-5.799c0-0.203,0-0.399-0.101-0.601H15.677z M31.417,20.992h-8.204	c0.101,0.203,0.101,0.399,0.101,0.601v5.799c0,0.203,0,0.399-0.101,0.601h8.204v-1.94c-0.203,0.101-0.399,0.101-0.601,0.101h-3.453	v-0.919h3.318v-1.48h-3.318V22.83h3.453c0.203,0,0.399,0,0.601,0.095L31.417,20.992z M42.784,27.392	c0.068,0.223,0.182,0.426,0.331,0.601h-4.447c0.02-0.203-0.054-0.399-0.135-0.601c0,0-0.068-0.162-0.162-0.399l-0.041-0.101h-2.561	L35.729,27c0,0-0.074,0.196-0.142,0.399c-0.068,0.203-0.142,0.399-0.115,0.601h-3.508c0.142-0.176,0.25-0.378,0.318-0.601	l2.102-5.799c0.074-0.203,0.149-0.399,0.122-0.601h5.927c-0.054,0.203,0.054,0.399,0.128,0.601	C40.737,22.039,42.636,27,42.784,27.392 M37.77,25.412l-0.622-1.622c-0.054-0.149-0.101-0.304-0.135-0.46	c-0.027,0.155-0.068,0.311-0.122,0.46c-0.02,0.068-0.284,0.777-0.588,1.622H37.77z M9.311,21.593c0-0.203,0-0.399,0.101-0.601H4.79	c0.101,0.203,0.101,0.399,0.101,0.601v5.799c0,0.203,0,0.399-0.101,0.601h4.623c-0.101-0.203-0.101-0.399-0.101-0.601V21.593z M41.365,21.546c-0.014,0.507,0.385,0.933,0.899,0.946c0.507,0.014,0.933-0.385,0.946-0.899c0-0.014,0-0.034,0-0.047	c0.007-0.5-0.385-0.912-0.885-0.919c-0.014,0-0.02,0-0.034,0c-0.493-0.02-0.906,0.365-0.919,0.858	C41.358,21.505,41.358,21.526,41.365,21.546 M43.021,21.546c0.014,0.405-0.311,0.75-0.716,0.757	c-0.405,0.014-0.75-0.311-0.757-0.716c0-0.014,0-0.027,0-0.047c-0.014-0.392,0.291-0.723,0.683-0.737c0.02,0,0.034,0,0.054,0	c0.399-0.007,0.73,0.311,0.737,0.71C43.021,21.526,43.021,21.539,43.021,21.546 M42.737,22.1h-0.182l-0.216-0.392h-0.237V22.1H41.94	v-1.108h0.412c0.196,0.007,0.345,0.162,0.345,0.358c0,0.135-0.074,0.257-0.196,0.324L42.737,22.1z M42.325,21.546	c0.108,0.007,0.203-0.074,0.203-0.182c0-0.108-0.074-0.203-0.182-0.203c-0.007,0-0.014,0-0.02,0h-0.223v0.392h0.223"/></svg>