<svg xmlns="http://www.w3.org/2000/svg"  viewBox="0 0 48 48" width="1600px" height="1600px"><path fill="#424242" d="M43.781,27.012c-0.269-1.307-0.715-2.578-1.105-3.858c-0.492-1.615-1.469-2.857-2.898-3.735 c-0.149-0.091-0.3-0.178-0.457-0.27c0.034-0.074,0.058-0.131,0.087-0.185c0.783-1.513,0.997-3.109,0.589-4.76 c-0.274-1.108-0.65-2.189-0.97-3.286c-1.355-4.654-5.818-7.218-9.72-6.889c-1.581,0.133-3.05,0.591-4.387,1.458 c-0.222,0.144-0.432,0.245-0.708,0.24c-0.325-0.007-0.654,0.031-0.977,0.076c-2.748,0.383-4.939,1.697-6.529,4.011 c-0.048,0.07-0.1,0.139-0.167,0.233c-0.067-0.098-0.117-0.167-0.163-0.24C14.3,6.527,9.829,5.696,6.729,8.012 c-2.794,2.087-3.561,6.023-1.749,9.017c0.129,0.213,0.191,0.419,0.208,0.671c0.029,0.435,0.071,0.88,0.191,1.296 c0.497,1.723,1.009,3.443,1.546,5.154c0.521,1.659,1.559,2.908,3.055,3.768c0.098,0.056,0.197,0.112,0.308,0.175 c-0.046,0.099-0.082,0.179-0.121,0.256c-1.287,2.6-0.86,5.614,1.113,7.741c1.448,1.559,2.911,3.104,4.368,4.654 c1.751,1.862,3.879,2.584,6.379,2.12c2.642-0.491,4.793-2.675,5.292-5.342c0.091-0.488,0.175-0.978,0.268-1.503 c0.094,0.075,0.156,0.121,0.215,0.172c2.137,1.837,4.585,2.73,7.4,2.431c2.348-0.25,4.422-1.161,6.047-2.917 C43.52,33.249,44.467,30.345,43.781,27.012z M10.216,21.952c-0.486-1.567-0.955-3.14-1.426-4.713 c-0.177-0.591-0.226-1.196-0.105-1.802c0.038-0.192,0.001-0.31-0.13-0.448c-1.875-1.973-1.284-5.27,1.153-6.46 c2.798-1.366,5.996,0.762,5.802,3.897c-0.032,0.509,0.069,0.843,0.375,1.225c0.287,0.359,0.498,0.807,0.641,1.25 c0.499,1.554,0.964,3.119,1.425,4.685c0.676,2.302-0.826,4.715-3.185,5.133c-0.243,0.043-0.49,0.06-0.736,0.089 C12.3,24.794,10.74,23.642,10.216,21.952z M26.472,29.807c-0.331,1.946-0.661,3.893-0.998,5.838 c-0.302,1.737-1.782,3.127-3.514,3.32c-1.389,0.155-2.558-0.29-3.519-1.31c-1.477-1.569-2.966-3.126-4.425-4.712 c-1.042-1.132-1.399-2.479-0.954-3.972c0.466-1.564,1.538-2.513,3.113-2.864c0.846-0.188,1.631-0.156,2.757,0.398 c0.375-0.443,0.679-0.923,1.094-1.268c1.156-0.961,2.482-1.231,3.905-0.714c1.478,0.537,2.354,1.622,2.658,3.181 C26.727,28.416,26.59,29.111,26.472,29.807z M26.966,19.677c-0.037,0.057-0.077,0.114-0.112,0.174 c-0.776,1.365-1.962,2.065-3.497,2.021c-1.588-0.045-2.857-0.821-3.455-2.306c-0.583-1.447-1.014-2.975-1.336-4.505 c-0.408-1.933,0.15-3.718,1.319-5.27c1.489-1.976,3.508-2.811,5.948-2.613c0.232,0.019,0.409-0.02,0.599-0.178 c3.825-3.183,9.022-1.228,10.548,2.74c0.519,1.351,0.936,2.759,1.236,4.176c0.431,2.036-1.076,4.134-3.099,4.521 c-0.866,0.166-1.686,0.054-2.472-0.344c-0.07-0.035-0.142-0.066-0.229-0.105C31.435,19.949,29.06,20.843,26.966,19.677z M37.606,34.183c-3.451,1.319-6.733-0.208-8.275-2.497c-0.345-0.511-0.627-1.085-0.833-1.668c-0.379-1.076-0.698-2.175-1.008-3.274 c-0.615-2.184,0.759-4.498,2.973-5.043c0.88-0.217,1.815-0.183,2.951,0.418c0.382-0.734,0.894-1.323,1.601-1.73 c2.273-1.308,5.113-0.194,5.892,2.327c0.366,1.185,0.747,2.369,1.033,3.574C42.665,29.344,40.823,32.953,37.606,34.183z"/><path fill="#424242" d="M25.355 9.719c.435-.008.969.111 1.475.339.179.081.266.059.377-.114.81-1.263 1.997-1.879 3.456-1.922 1.874-.054 3.553 1.228 4.132 3.098.296.955.582 1.912.864 2.871.291.989-.252 1.812-1.259 1.92-.617.066-1.232-.346-1.438-.995-.31-.978-.583-1.968-.905-2.942-.349-1.053-1.663-1.317-2.379-.493-.334.384-.44.837-.297 1.327.271.934.563 1.862.84 2.794.286.966-.202 1.807-1.145 1.986-.676.129-1.358-.317-1.583-1.047-.287-.929-.567-1.861-.847-2.792-.156-.519-.486-.869-1.001-1.017-.502-.145-.958-.012-1.319.352-.396.399-.55.891-.383 1.451.277.932.558 1.864.842 2.794.103.337.112.667-.016.998-.241.625-.753.976-1.394.953-.579-.021-1.117-.448-1.304-1.054-.3-.972-.6-1.944-.884-2.921-.218-.751-.25-1.512-.074-2.28C21.559 11.082 23.267 9.71 25.355 9.719zM35.031 32.066c-1.871.002-3.56-1.25-4.133-3.079-.296-.945-.578-1.894-.859-2.844-.248-.84.156-1.65.933-1.891.819-.254 1.613.179 1.873 1.027.285.93.56 1.862.848 2.791.189.608.806 1.057 1.404 1.04.655-.019 1.232-.448 1.374-1.098.06-.274.037-.592-.037-.865-.249-.912-.547-1.81-.809-2.718-.257-.886.192-1.703 1.04-1.927.656-.174 1.44.141 1.652.787.417 1.268.863 2.544 1.094 3.854.341 1.939-.867 3.888-2.701 4.582-.531.201-1.105.283-1.66.42C35.044 32.118 35.038 32.092 35.031 32.066zM20.515 31.731c.134-.792.259-1.521.382-2.251.077-.458.144-.918.226-1.374.151-.834.897-1.339 1.73-1.179.782.15 1.298.944 1.155 1.785-.365 2.148-.735 4.295-1.099 6.443-.103.609-.435 1.001-1.021 1.174-.572.169-1.063.04-1.475-.398-1.499-1.595-3.001-3.189-4.498-4.786-.57-.607-.544-1.574.049-2.121.623-.575 1.51-.533 2.09.089C18.854 29.97 19.661 30.822 20.515 31.731zM14.063 22.18c-.627.004-1.183-.397-1.376-1.025-.473-1.544-.941-3.09-1.398-4.639-.234-.794.186-1.588.937-1.819.777-.239 1.573.166 1.818.955.479 1.542.953 3.086 1.406 4.637C15.73 21.25 15.036 22.175 14.063 22.18zM11.478 13.69c-.809-.008-1.435-.677-1.426-1.523.009-.814.64-1.454 1.433-1.454.802 0 1.476.703 1.467 1.528C12.943 13.05 12.283 13.698 11.478 13.69z"/></svg>