<svg xmlns="http://www.w3.org/2000/svg"  viewBox="0 0 48 48" width="1600px" height="1600px"><path fill="#43a047" d="M42,10v28c0,2.21-1.79,4-4,4H10c-2.21,0-4-1.79-4-4V10c0-2.21,1.79-4,4-4h28C40.21,6,42,7.79,42,10z"/><circle cx="24.522" cy="24.399" r="9.042" fill="#fff"/><path fill="#090504" d="M35.287,16.585c-2.035-2.792-5.202-4.769-8.668-5.377c-2.372-0.441-4.854-0.221-7.131,0.556 c-2.388,0.819-4.529,2.295-6.131,4.209c-1.56,1.851-2.609,4.102-2.997,6.463c-0.496,2.924,0.043,5.994,1.475,8.578 c1.139,2.077,2.867,3.845,4.933,5.059c2.303,1.375,5.046,2.058,7.762,1.923c2.246-0.098,4.472-0.746,6.411-1.868 c0.266-0.138,0.503-0.368,0.806-0.427c1.285-0.021,2.581,0.01,3.87-0.044c-0.19-0.982-0.39-1.962-0.57-2.945 c-0.047-0.132,0.048-0.258,0.125-0.36c1.671-2.23,2.593-4.966,2.646-7.717C37.862,21.775,36.981,18.901,35.287,16.585z M30.946,24.392c0.019,1.665-0.62,3.349-1.767,4.589c-1,1.104-2.367,1.877-3.838,2.173c-1.418,0.285-2.932,0.134-4.251-0.467 c-1.242-0.54-2.296-1.452-3.013-2.581c-0.762-1.196-1.116-2.634-1.009-4.041c0.108-1.516,0.764-2.997,1.825-4.124 c0.824-0.896,1.908-1.561,3.075-1.917c1.237-0.38,2.573-0.422,3.827-0.101c1.571,0.39,2.979,1.342,3.901,2.637 C30.506,21.67,30.932,23.029,30.946,24.392z"/><path fill="#090504" d="M24.721,22.89c-0.464-0.226-1.032-0.181-1.491,0.045c-0.361,0.197-0.651,0.523-0.79,0.905 c-0.18,0.482-0.098,1.043,0.202,1.459c0.363,0.519,1.061,0.797,1.695,0.648c0.719-0.122,1.287-0.771,1.329-1.479 C25.721,23.814,25.329,23.158,24.721,22.89z"/></svg>