<svg xmlns="http://www.w3.org/2000/svg"  viewBox="0 0 48 48" width="1600px" height="1600px"><path fill="#388e3c" d="M25 40h-2c0-.8-1.7-1.6-3.6-2.4-4-1.7-10-4.4-11.4-12.4l2-.3c1.2 7 6.2 9.2 10.2 10.9C22.8 36.9 25 37.8 25 40zM17 12c0 0-4 0-5 4C16 16 17 12 17 12z"/><path fill="#388e3c" d="M5,25c0,0,0,4,5,4C9.2,25.1,5,25,5,25z"/><path fill="#388e3c" d="M5,28c0,0,1.4,3.8,5.5,3.3C9.1,27.6,5,28,5,28z"/><path fill="#388e3c" d="M6.2,31.1c0,0,1.8,3.6,5.8,2.6C10.2,30.2,6.2,31.1,6.2,31.1z"/><path fill="#388e3c" d="M9 34.4c0 0 2.8 2.9 6.3.8C12.6 32.4 9 34.4 9 34.4zM13 12c0 0-3.5 1.7-2.9 6C13.6 16.3 13 12 13 12z"/><path fill="#388e3c" d="M9,15c0,0-2.6,3.2,0.4,6.4C12.1,18.2,9,15,9,15z"/><path fill="#388e3c" d="M6,18c0,2,1,5,3.5,6C10,21,9,19,6,18z"/><path fill="#388e3c" d="M5,21c0,1,1.1,5.5,5,7C10.5,24,6,21,5,21z"/><path fill="#388e3c" d="M15 15c0 0-5 2-5 9 0 8 5.4 11 5 11-9 0-7-13-7-13s2-6 6-7H15zM25 40h-2c0-2.2 2.2-3.1 4.8-4.3 4-1.8 9-3.9 10.2-10.9l2 .3c-1.3 8-7.4 10.7-11.4 12.4C26.7 38.4 25 39.2 25 40zM31 12c0 0 4 0 5 4C32 16 31 12 31 12z"/><path fill="#388e3c" d="M43,25c0,0,0,4-5,4C38.8,25.1,43,25,43,25z"/><path fill="#388e3c" d="M43,28c0,0-1.4,3.8-5.5,3.3C38.9,27.6,43,28,43,28z"/><path fill="#388e3c" d="M41.8,31.1c0,0-1.8,3.6-5.8,2.6C37.8,30.2,41.8,31.1,41.8,31.1z"/><path fill="#388e3c" d="M39 34.4c0 0-2.8 2.9-6.3.8C35.4 32.4 39 34.4 39 34.4zM35 12c0 0 3.5 1.7 2.9 6C34.4 16.3 35 12 35 12z"/><path fill="#388e3c" d="M39,15c0,0,2.6,3.2-0.4,6.4C35.9,18.2,39,15,39,15z"/><path fill="#388e3c" d="M42,18c0,2-1,5-3.5,6C38,21,39,19,42,18z"/><path fill="#388e3c" d="M43,21c0,1-1.1,5.5-5,7C37.5,24,42,21,43,21z"/><path fill="#388e3c" d="M33,15c0,0,5,2,5,9c0,8-5.4,11-5,11c9,0,7-13,7-13s-2-6-6-7H33z"/><path fill="#cfd8dc" d="M30.1,34c-13-8-17-20-17-20s-2,8,15,21L30.1,34z"/><path fill="#dd9f05" d="M27.1,37c-0.4,0-0.7-0.2-0.9-0.6c-0.2-0.5,0-1.1,0.4-1.3c0,0,1.9-1,3.7-2.8c0.4-0.4,1-0.4,1.4,0 s0.4,1,0,1.4c-2.1,2.1-4.2,3.1-4.3,3.2C27.4,37,27.2,37,27.1,37z"/><path fill="#dd9f05" d="M32.1,38c-0.2,0-0.3,0-0.4-0.1c-0.1,0-1.5-0.8-3-2.2c-0.4-0.4-0.4-1,0-1.4c0.4-0.4,1-0.4,1.4,0 c1.2,1.2,2.4,1.8,2.5,1.8c0.5,0.2,0.7,0.8,0.4,1.3C32.8,37.8,32.4,38,32.1,38z"/><path fill="#cfd8dc" d="M18,34c13-8,17-20,17-20s2,8-15,21L18,34z"/><path fill="#ffc107" d="M24 14A12 9.5 0 1 0 24 33A12 9.5 0 1 0 24 14Z"/><path fill="#cfd8dc" d="M24 14L27 12.5 25 11 35 8 29 11.6 31 13zM24 14L21 12.5 23 11 13 8 19 11.6 17 13z"/><path fill="#ffc107" d="M27 9c-.6 0-1-.5-1-1 0-1.1 1-1.9 1.8-2.5C27.3 5 26 5 26 5c-.6 0-1-.5-1-1 0-.6.4-1 1-1 1.4 0 4 .6 4 3v.6l-.6.3C28.8 7.2 28.1 7.8 28 8 28 8.6 27.5 9 27 9zM29 6L29 6 29 6zM21 9c-.6 0-1-.4-1-1-.1-.2-.8-.8-1.4-1.1L18 6.6 18 6c0-2.4 2.6-3 4-3 .6 0 1 .4 1 1 0 .6-.4 1-1 1 0 0-1.3 0-1.8.5C21 6.1 22 6.9 22 8 22 8.6 21.6 9 21 9z"/><path fill="#dd9f05" d="M27,8h-2V6c0-0.9-2-1-2-1l0-2c1.4,0,4,0.6,4,3V8z"/><path fill="#dd9f05" d="M23,8h-2V6c0-2.4,2.6-3,4-3l0,2c0,0-2,0.1-2,1V8z"/><path fill="#ffc107" d="M24,9c-0.6,0-1-0.4-1-1V3c0-0.6,0.4-1,1-1s1,0.4,1,1v5C25,8.6,24.6,9,24,9z"/><path fill="#ffc107" d="M28,9h-8c0-1-1-2-1-2h10C29,7,28,8,28,9z"/><path fill="#dd9f05" d="M12 42H14V45H12z"/><path fill="#efaf20" d="M12,43c0,1,2,1,2,2c0,0,0,1-7,1c1-1,2-2,2-2s-2-1-3-1c0,0,2-1,7-1L12,43z"/><path fill="#dd9f05" d="M34 42H36V45H34z"/><path fill="#efaf20" d="M36,43c0,1-2,1-2,2c0,0,0,1,7,1c-1-1-2-2-2-2s2-1,3-1c0,0-2-1-7-1L36,43z"/><path fill="#ffc107" d="M35,39c-5,0-6,1-11,1s-6-1-11-1c0,0-1,2-1,4c1-1,6,1,12,1s11-2,12-1C36,41,35,39,35,39z"/><path fill="#dd9f05" d="M21,37c-0.1,0-0.3,0-0.4-0.1c-0.1,0-2.2-1.1-4.3-3.2c-0.4-0.4-0.4-1,0-1.4s1-0.4,1.4,0 c1.9,1.9,3.7,2.8,3.7,2.8c0.5,0.2,0.7,0.8,0.4,1.3C21.7,36.8,21.4,37,21,37z"/><path fill="#dd9f05" d="M16,38c-0.4,0-0.7-0.2-0.9-0.6c-0.2-0.5,0-1.1,0.4-1.3c0,0,1.2-0.6,2.5-1.8c0.4-0.4,1-0.4,1.4,0 c0.4,0.4,0.4,1,0,1.4c-1.4,1.4-2.9,2.2-3,2.2C16.3,38,16.2,38,16,38z"/><path fill="#795548" d="M17,29c0.2-0.3,0.6-0.7,1-0.9c0.4-0.2,1-0.2,1.4,0c0.5,0.2,0.9,0.5,1.2,0.7c0.3,0.2,0.6,0.4,0.9,0.4 c0.1,0,0.3,0,0.4,0c0.1,0,0.1,0,0,0c0,0-0.1,0-0.2,0.1c-0.1,0.1-0.1,0.2-0.1,0.3c0,0.2-0.1-0.1-0.1-0.2c-0.1-0.2-0.2-0.4-0.3-0.7 c-0.1-0.3-0.2-0.5-0.1-1c0-0.5,0.4-1,0.7-1.2c0.6-0.4,1.1-0.5,1.6-0.5c1-0.1,1.8-0.1,2.7,0c0.5,0,0.9,0.1,1.5,0.3 c0.3,0.1,0.6,0.2,0.9,0.6c0.2,0.2,0.3,0.4,0.4,0.7c0,0.1,0,0.3,0,0.4c0,0.1,0,0.4-0.1,0.5c-0.4,0.6-0.7,0.7-0.9,0.8 c-0.2,0.1-0.5,0.2-0.7,0.2l-1.2,0.3c-0.7,0.2-1.5,0.5-2.1,1.1c0-0.9,0.7-1.8,1.5-2.3c0.4-0.3,0.8-0.5,1.1-0.7 c0.2-0.1,0.4-0.2,0.5-0.3c0.1-0.1,0.2-0.2,0,0c0,0.1-0.1,0.2-0.1,0.2c0,0,0,0,0,0.1c0,0.1,0,0.1,0.1,0.1c0,0,0,0-0.1,0 c-0.2-0.1-0.6-0.1-1-0.1c-0.7,0-1.6,0-2.3,0c-0.3,0-0.7,0.1-0.8,0.2c0,0,0.1-0.1,0-0.2c0,0,0,0.2,0,0.3c0,0.1,0.1,0.3,0.1,0.5 c0.1,0.2,0.2,0.4,0.2,1c0,0.2-0.1,0.4-0.3,0.6c-0.2,0.2-0.4,0.3-0.5,0.3c-0.3,0.1-0.4,0.1-0.6,0.1c-0.3,0-0.6-0.1-0.8-0.2 c-0.5-0.2-0.9-0.6-1.2-0.9c-0.3-0.4-0.5-0.6-0.8-0.8c-0.3-0.2-0.6-0.3-1-0.3C17.7,28.6,17.4,28.8,17,29z"/><path fill="#795548" d="M26 31c0 .6-.4 1-1 1s-1-.4-1-1 2-2 2-2S26 30.4 26 31zM28 23c2 0 4 2 7 2 1 0 1.7-.7 2-1-1 0-2 0-3-1 2 0 3-1 3-1-4 0-5-4-8-4-1 0-2 1-3 1s0-2-2-2c-1 0-2 1-2 1s1 0 1 1c0 0 0 0-1 0s-2-1-3-1c-3 0-4 4-8 4 0 0 1 1 3 1-1 1-2 1-3 1 .3.3 1 1 2 1 3 0 5-2 7-2s2 1 2 1c0 1 1 3 1 3h2c0 0 1-2 1-3C26 24 26 23 28 23z"/></svg>