<svg xmlns="http://www.w3.org/2000/svg"  viewBox="0 0 48 48" width="1600px" height="1600px" baseProfile="basic"><circle cx="24" cy="24" r="20" fill="#ec407a"/><path fill="#bbdefb" d="M34.232,36.011l-1.357-3.386l-4.696-2.3C25,35,20.986,36.053,17,35	c-6.625-1.75-10.266-6.062-10.266-6.062C8.85,35.918,16.329,41,24,41c3.745,0,7.195-1.226,10.004-3.278L34.232,36.011z"/><path fill="#37474f" d="M4.001,5.084L15.85,20.165c1.983,2.523,4.155,4.892,7.332,5.346l2.828-2.828	c-0.454-3.177-2.822-5.349-5.346-7.332L5.584,3.501C5.135,3.148,4.494,3.187,4.09,3.59l0,0C3.687,3.994,3.648,4.635,4.001,5.084z"/><path fill="#bbdefb" d="M30.96,27.632l-2.828,2.828l-4.95-4.95c0.462-1.373,1.392-2.327,2.828-2.828L30.96,27.632z"/><path fill="#37474f" d="M33.125,28.25c-1.25-0.875-3.115-1.083-4.286,0.089c-1.172,1.172-1.172,3.071,0,4.243	c0.413,0.413,1.14,0.76,1.661,0.919c2.462,0.749,2.967,1.583,3.5,4.25C37.536,31.386,34.052,28.899,33.125,28.25z"/></svg>