<svg xmlns="http://www.w3.org/2000/svg"  viewBox="0 0 48 48" width="1600px" height="1600px" clip-rule="evenodd"><path fill="#424242" fill-rule="evenodd" d="M4.2,26.1c0-0.1,0-0.1-0.1-0.2S4,25.9,3.9,25.9H2.1c-0.2,0-0.4-0.1-0.6-0.2c-0.1-0.1-0.2-0.3-0.2-0.6v-4.9 c0-0.1,0-0.2-0.1-0.2c0,0-0.1,0-0.2,0H0.2c-0.1,0-0.1,0-0.2,0c0,0-0.1,0.1-0.1,0.2v4.9c0,0.2,0,0.5,0.1,0.7c0.1,0.2,0.2,0.4,0.3,0.6 c0.1,0.2,0.3,0.3,0.6,0.4C1.2,26.9,1.5,27,1.9,27h1.9c0.2,0,0.3,0,0.4,0c0.1,0,0.1,0,0.2-0.1c0,0,0-0.1,0-0.1 C4.3,26.8,4.3,26.2,4.2,26.1z" clip-rule="evenodd"/><path fill="#d32f2f" fill-rule="evenodd" d="M26,26.3v-2.9c0-0.6-0.2-1-0.5-1.3c-0.3-0.3-0.8-0.4-1.5-0.4c-0.3,0-0.9,0.1-1.1,0.2c-0.1,0-0.1,0.1-0.1,0.2 l0.1,0.6c0,0.1,0,0.1,0.1,0.1c0,0,0.1,0,0.2,0c0.2-0.1,0.5-0.1,0.7-0.1c0.2,0,0.4,0,0.5,0.1c0.1,0,0.2,0.1,0.3,0.2 c0.1,0.1,0.1,0.2,0.1,0.3c0,0.1,0,0.2,0,0.3v0.2h-1.1c-0.4,0-0.7,0-1,0.1s-0.5,0.2-0.7,0.4c-0.2,0.2-0.3,0.3-0.4,0.6 c-0.1,0.2-0.1,0.4-0.1,0.7c0,0.2,0,0.4,0.1,0.6c0.1,0.2,0.2,0.4,0.3,0.5c0.2,0.1,0.4,0.3,0.7,0.4c0.3,0.1,0.6,0.1,1.1,0.1 c0.2,0,0.3,0,0.5,0c0.2,0,0.3,0,0.5-0.1c0.2,0,0.3-0.1,0.5-0.1c0.2,0,0.3-0.1,0.5-0.2C25.9,26.6,26,26.5,26,26.3L26,26.3z M24.6,26 c-0.1,0-0.2,0-0.3,0s-0.2,0-0.3,0c-0.1,0-0.1,0-0.2,0c-0.3,0-0.6-0.1-0.7-0.2c-0.2-0.1-0.3-0.3-0.3-0.6c0-0.2,0-0.3,0.1-0.5 c0.1-0.1,0.2-0.2,0.3-0.3c0.1-0.1,0.2-0.1,0.4-0.1c0.1,0,0.2,0,0.4,0h0.9l0,1.4C24.8,26,24.7,26,24.6,26z" clip-rule="evenodd"/><path fill="#424242" d="M12.8 24.4c-.2-.1-.3-.2-.5-.3-.2-.1-.4-.2-.6-.2-.2-.1-.3-.1-.5-.2s-.2-.1-.3-.2c-.1-.1-.1-.1-.2-.2 0-.1-.1-.1-.1-.2 0-.1.1-.2.2-.3.1-.1.3-.2.5-.2.2 0 .4 0 .6 0 .2 0 .4.1.7.2.1 0 .1 0 .1 0 0 0 .1 0 .1-.1l.2-.6c0 0 0-.1 0-.1 0 0 0-.1-.1-.1-.3-.1-.5-.2-.8-.2-.3 0-.5-.1-.8-.1-.3 0-.6 0-.8.1-.2.1-.4.2-.6.3-.1.1-.3.3-.3.5-.1.2-.1.4-.1.6 0 .2 0 .4.1.5.1.2.2.3.3.4.1.1.3.2.5.3.2.1.5.2.7.3.4.1.6.2.8.3.2.1.3.3.3.4 0 .2-.1.3-.2.4-.1.1-.3.2-.6.2-.2 0-.5 0-.8-.1-.3-.1-.6-.1-.8-.2-.1 0-.1 0-.2 0 0 0-.1.1-.1.1l-.2.5c-.1.1 0 .2.1.2.1.1.3.1.5.2.2.1.3.1.5.1.3.1.7.1 1 .1.3 0 .5 0 .8-.1.2-.1.4-.2.6-.3.2-.1.3-.3.4-.5.1-.2.1-.4.1-.7 0-.2-.1-.4-.2-.6C13.1 24.7 13 24.5 12.8 24.4zM17 26.7l-.1-.6c0 0 0-.1 0-.1 0 0-.1 0-.1 0l-.2 0c-.2 0-.4 0-.6 0-.2 0-.4 0-.5-.1-.1-.1-.1-.2-.1-.4v-2.6h1c.1 0 .1 0 .1 0 0 0 0-.1 0-.1v-.5c0 0 0-.1 0-.1 0 0-.1 0-.1 0h-1v-1.2c0-.1 0-.1 0-.1 0 0-.1 0-.1 0l-.7.2c-.1 0-.1.1-.2.1 0 0-.1 0-.1.2v.9h-.5c-.1 0-.1 0-.1 0 0 0-.1.1-.1.1 0 0-.2.5-.2.5s0 .1 0 .1c0 0 .1 0 .1 0h.7l0 2.7c0 .5.1.8.3 1 .2.2.6.3 1.2.3.1 0 .3 0 .5 0 .2 0 .5-.1.7-.1.1 0 .1-.1.1-.1C17 26.7 17 26.7 17 26.7z"/><path fill="#d32f2f" d="M21.7 20.6c-.2-.2-.4-.3-.7-.5-.3-.1-.6-.2-.9-.2h-1.9c-.1 0-.1 0-.2 0-.1 0-.2.1-.2.1 0 .1 0 .1-.1.2 0 .1 0 .2 0 .3v6.2c0 .1 0 .1.1.2 0 0 .1 0 .2 0h.6c.1 0 .2 0 .2 0 0 0 0-.1 0-.2v-2.2H20c.5 0 .9-.1 1.2-.3.3-.2.5-.4.7-.6.2-.2.3-.5.3-.8.1-.3.1-.5.1-.7 0-.3-.1-.6-.2-.9C22.1 21.1 21.9 20.8 21.7 20.6zM20.9 23.1c-.2.2-.5.3-.9.3h-1.2v-2.3H20c.2 0 .5 0 .6.1.2.1.3.2.4.3.1.1.2.2.2.4 0 .1.1.3.1.4C21.2 22.7 21.1 22.9 20.9 23.1zM30.5 24.8c-.1-.2-.2-.3-.4-.4-.2-.1-.3-.2-.5-.3-.2-.1-.4-.2-.6-.2-.2-.1-.3-.1-.5-.2-.1-.1-.2-.1-.3-.2-.1-.1-.1-.1-.2-.2S28 23.2 28 23.1c0-.1.1-.2.2-.3.1-.1.3-.2.5-.2.2 0 .4 0 .6 0s.4.1.7.2c.1 0 .1 0 .1 0s.1 0 .1-.1l.2-.6c0 0 0-.1 0-.1 0 0 0-.1-.1-.1-.3-.1-.5-.2-.8-.2-.3 0-.5-.1-.8-.1-.3 0-.6 0-.8.1-.2.1-.4.2-.6.3-.1.1-.3.3-.3.5-.1.2-.1.4-.1.6 0 .2 0 .4.1.5.1.2.2.3.3.4.1.1.3.2.5.3.2.1.5.2.7.3.4.1.6.2.8.3.2.1.3.3.3.4 0 .2-.1.3-.2.4-.1.1-.3.2-.6.2-.2 0-.5 0-.8-.1-.3-.1-.6-.1-.8-.2-.1 0-.1 0-.2 0 0 0-.1.1-.1.1l-.2.5c-.1.1 0 .2.1.2.1.1.3.1.5.2.2.1.3.1.5.1.3.1.7.1 1 .1.3 0 .5 0 .8-.1.2-.1.4-.2.6-.3.2-.1.3-.3.4-.5.1-.2.1-.4.1-.7C30.7 25.2 30.6 25 30.5 24.8z"/><path fill="#d32f2f" d="M34.5,24.8c-0.1-0.2-0.2-0.3-0.4-0.4c-0.2-0.1-0.3-0.2-0.5-0.3c-0.2-0.1-0.4-0.2-0.6-0.2 c-0.2-0.1-0.3-0.1-0.5-0.2s-0.2-0.1-0.3-0.2c-0.1-0.1-0.1-0.1-0.2-0.2c0-0.1-0.1-0.1-0.1-0.2c0-0.1,0.1-0.2,0.2-0.3 c0.1-0.1,0.3-0.2,0.5-0.2c0.2,0,0.4,0,0.6,0c0.2,0,0.4,0.1,0.7,0.2c0.1,0,0.1,0,0.1,0c0,0,0.1,0,0.1-0.1l0.2-0.6c0,0,0-0.1,0-0.1 c0,0,0-0.1-0.1-0.1c-0.3-0.1-0.5-0.2-0.8-0.2s-0.5-0.1-0.8-0.1c-0.3,0-0.6,0-0.8,0.1c-0.2,0.1-0.4,0.2-0.6,0.3 c-0.2,0.1-0.3,0.3-0.3,0.5c-0.1,0.2-0.1,0.4-0.1,0.6c0,0.2,0,0.4,0.1,0.5c0.1,0.2,0.2,0.3,0.3,0.4c0.1,0.1,0.3,0.2,0.5,0.3 c0.2,0.1,0.5,0.2,0.7,0.3c0.4,0.1,0.6,0.2,0.8,0.3c0.2,0.1,0.3,0.3,0.3,0.4c0,0.2-0.1,0.3-0.2,0.4C33.2,26,33,26,32.7,26.1 c-0.2,0-0.5,0-0.8-0.1c-0.3-0.1-0.6-0.1-0.8-0.2c-0.1,0-0.1,0-0.2,0c0,0-0.1,0.1-0.1,0.1l-0.2,0.5c-0.1,0.1,0,0.2,0.1,0.2 c0.1,0.1,0.3,0.1,0.5,0.2c0.2,0.1,0.3,0.1,0.5,0.1c0.3,0.1,0.7,0.1,1,0.1c0.3,0,0.5,0,0.8-0.1c0.2-0.1,0.4-0.2,0.6-0.3 c0.2-0.1,0.3-0.3,0.4-0.5c0.1-0.2,0.1-0.4,0.1-0.7C34.7,25.2,34.6,25,34.5,24.8z"/><path fill="#424242" fill-rule="evenodd" d="M8.2,22.1c-0.3-0.3-0.8-0.4-1.5-0.4c-0.3,0-0.6,0-0.9,0.1c-0.3,0-0.6,0.1-0.9,0.2c-0.1,0-0.1,0.1-0.1,0.2 L5,22.7c0,0.1,0,0.1,0.1,0.1c0,0,0.1,0,0.2,0c0.2-0.1,0.4-0.1,0.6-0.1c0.2,0,0.5-0.1,0.7-0.1c0.2,0,0.4,0,0.5,0.1 c0.1,0,0.2,0.1,0.3,0.2c0.1,0.1,0.1,0.2,0.1,0.3c0,0.1,0,0.2,0,0.3v0.2H6.5c-0.4,0-0.7,0-1,0.2C5.2,23.9,5,24,4.8,24.2 c-0.2,0.2-0.3,0.4-0.4,0.6c-0.1,0.2-0.1,0.4-0.1,0.7c0,0.2,0,0.4,0.1,0.6s0.2,0.4,0.3,0.5c0.2,0.1,0.4,0.3,0.7,0.3 C5.7,27,6.1,27,6.5,27c0.1,0,0.3,0,0.5,0c0.2,0,0.4,0,0.5,0c0.2,0,0.3-0.1,0.5-0.1c0.2,0,0.3-0.1,0.5-0.2c0.1-0.1,0.2-0.2,0.2-0.3 v-2.9C8.7,22.8,8.5,22.4,8.2,22.1z M7.5,25.9C7.4,26,7.3,26,7.2,26S7,26,7,26.1c-0.1,0-0.2,0-0.3,0c-0.1,0-0.1,0-0.2,0 c-0.3,0-0.5-0.1-0.7-0.2c-0.2-0.1-0.3-0.3-0.3-0.6c0-0.2,0-0.4,0.1-0.5c0.1-0.1,0.2-0.2,0.3-0.2s0.2-0.1,0.4-0.1c0.1,0,0.2,0,0.4,0 h0.9V25.9z" clip-rule="evenodd"/><path fill="#d32f2f" fill-rule="evenodd" d="M47.7 21.3c-.2 0-.3.1-.3.3v5c0 .2.1.3.3.3.2 0 .3-.1.3-.3v-5C48 21.5 47.8 21.3 47.7 21.3zM37.3 23.3A1 1 0 1 0 37.3 25.3 1 1 0 1 0 37.3 23.3zM41 23.3A1 1 0 1 0 41 25.3 1 1 0 1 0 41 23.3zM44.7 23.3A1 1 0 1 0 44.7 25.3 1 1 0 1 0 44.7 23.3z" clip-rule="evenodd"/></svg>