<svg xmlns="http://www.w3.org/2000/svg"  viewBox="0 0 48 48" width="1600px" height="1600px" baseProfile="basic"><path fill="#ffca28" d="M15,6h18c4.971,0,9,4.029,9,9v18c0,4.971-4.029,9-9,9H15c-4.971,0-9-4.029-9-9V15 C6,10.029,10.029,6,15,6z"/><polygon points="28,22 24.92,22 26,19 21,24 24.029,24 23,27"/><polygon points="19,29 14,29 14,31.982 13,34 19,34"/><path d="M24.5,12.5C18.71,12.5,14,17.21,14,23v4h5v-4c0-3.033,2.468-5.5,5.5-5.5S30,19.967,30,23v0.5c0,3.033-2.468,5.5-5.5,5.5 H21v5h3.5C30.29,34,35,29.29,35,23.5V23C35,17.21,30.29,12.5,24.5,12.5z"/></svg>