<svg xmlns="http://www.w3.org/2000/svg"  viewBox="0 0 48 48" width="1600px" height="1600px"><path fill="#ffca28" d="M23.999,43.997l-12.521-5.041l-0.987-10.529l0.522-0.551c0.588-0.621,0.912-1.43,0.912-2.277	c0-1.074-0.505-2.055-1.385-2.69l-0.609-0.44L8.519,7.4L15.951,4h16.097l7.431,3.4l-1.413,15.069l-0.609,0.44	c-0.88,0.635-1.385,1.616-1.385,2.69c0,0.847,0.324,1.656,0.913,2.277l0.522,0.551L36.52,38.956L23.999,43.997z M14.509,36.607	l9.49,3.82l9.49-3.82l0.659-7.03c-0.851-1.145-1.312-2.531-1.312-3.979c0-1.872,0.79-3.653,2.145-4.905l1.053-11.232l-4.675-2.138	H16.64l-4.675,2.138l1.053,11.232c1.355,1.252,2.145,3.034,2.145,4.905c0,1.447-0.461,2.834-1.312,3.979L14.509,36.607z"/><path fill="#ffca28" d="M31.419,36l-1.06-2.65l-3.379-9.655c2.471-2.851,3.114-5.673,3.114-7.832	c0-4.025-2.914-5.813-5.074-5.813l-3.139-0.011v-0.005h-3.709h-1.59l1.59,3.179V33.35L17.111,36h1.06h3.709h1.06l-1.06-2.65v-5.485	c0.132-0.095,0.244-0.175,0.275-0.194c0.733-0.45,1.397-0.908,2.006-1.37l2.488,7.048L26.12,36H31.419z M21.88,24.039V13h2.774	c0.936,0,2.261,0.622,2.261,2.65C26.914,18.677,25.221,21.635,21.88,24.039z"/></svg>