<svg xmlns="http://www.w3.org/2000/svg"  viewBox="0 0 48 48" width="1600px" height="1600px" baseProfile="basic"><path fill="#212121" d="M24,4C12.972,4,4,12.972,4,24s8.972,20,20,20s20-8.972,20-20S35.028,4,24,4z M35.632,37.712	l3.407-19.467l-8.094,4.538l-3.354,18.856C26.43,41.875,25.23,42,24,42c-9.925,0-18-8.075-18-18c0-5.868,2.836-11.074,7.195-14.362	L9.349,32.021l2.068,1.711l19.529-10.949l0.537-3.018l-13.356,7.479l3.575-21.08C22.456,6.067,23.219,6,24,6	c5.811,0,10.973,2.78,14.266,7.068l-6.198,3.403l-0.586,3.294l8.19-4.587C41.148,17.788,42,20.794,42,24	C42,29.491,39.521,34.408,35.632,37.712z"/></svg>