<svg xmlns="http://www.w3.org/2000/svg"  viewBox="0 0 48 48" width="1600px" height="1600px"><rect width="36" height="36" x="6" y="6" fill="#b388ff"/><path fill="#fff" d="M25,39c-1.895,0-3.535-0.609-4.908-1.641c-2.411,0.14-4.546-0.539-6.209-1.987 C11.379,33.192,10,29.332,10,24.5C10,16.505,16.28,10,24,10s14,6.505,14,14.5C38,32.767,32.411,39,25,39z M22.767,36.579 C23.447,36.851,24.191,37,25,37c6.374,0,11-5.257,11-12.5C36,17.607,30.617,12,24,12s-12,5.607-12,12.5 c0,4.244,1.135,7.569,3.195,9.363c0.813,0.707,1.758,1.168,2.828,1.38C16.035,32.548,15,28.759,15,25.096 c0-5.461,4.037-9.903,9-9.903s9,4.442,9,9.903c0,4.22-2.594,8.704-7.4,8.704c-0.089,0-0.176-0.002-0.263-0.006 c-0.172,0.29-0.352,0.561-0.538,0.808C24.113,35.511,23.476,36.142,22.767,36.579z M24,17.192c-3.859,0-7,3.546-7,7.903 c0,3.42,1.188,7.806,3.747,10.184c0.816-0.21,1.495-0.608,2.454-1.881c0.031-0.042,0.063-0.085,0.094-0.128 c-0.478-0.246-0.913-0.577-1.303-0.993c-2.137-2.277-2.063-6.194-1.99-7.341c0.167-2.618,1.247-3.87,2.123-4.46 c0.943-0.634,2.106-0.786,3.192-0.425c0.642,0.215,1.505,0.786,1.972,2.291c0.721,2.321,0.223,6.304-0.977,9.407 C29.363,31.317,31,28.118,31,25.096C31,20.738,27.859,17.192,24,17.192z M24.141,21.858c-0.317,0-0.625,0.094-0.899,0.277 c-0.712,0.479-1.153,1.52-1.243,2.928c-0.119,1.856,0.19,4.5,1.453,5.846c0.241,0.258,0.508,0.458,0.805,0.603 c1.172-2.722,1.749-6.558,1.123-8.575c-0.119-0.385-0.337-0.868-0.696-0.988C24.502,21.888,24.32,21.858,24.141,21.858z"/><path fill="#fff" d="M23.045,30.401c0.318,0.526,1.317,1.156,1.698-0.242l0.442,1.281l-2.421,0.342L23.045,30.401z"/></svg>