<svg xmlns="http://www.w3.org/2000/svg"  viewBox="0 0 48 48" width="1600px" height="1600px"><path fill="#c5e1a5" d="M21.5,44C13.492,44,7,37.508,7,29.5V18H2V4h29.031C39.298,4,46,10.702,46,18.969V44H21.5z"/><path fill="#689f38" d="M30.031,8H6v6h2c1.657,0,3,1.343,3,3v0v11.5C11,34.851,16.149,40,22.5,40H38c2.209,0,4-1.791,4-4 V19.969C42,13.359,36.641,8,30.031,8z"/><path fill="#fff" d="M33.5,15c-1.577,0-2.996,0.672-4,1.74c-1.004-1.069-2.423-1.74-4-1.74c-3.033,0-5.5,2.473-5.5,5.512 V28h3v-7.488c0-1.381,1.122-2.505,2.5-2.505S28,19.13,28,20.512V28h3v-7.488v0c0-1.381,1.122-2.505,2.5-2.505S36,19.13,36,20.512 V28.5c0,1.93-1.57,3.5-3.5,3.5h-12c-1.93,0-3.5-1.57-3.5-3.5V12h-3v16.5c0,3.584,2.916,6.5,6.5,6.5h12c3.584,0,6.5-2.916,6.5-6.5 v-7.988C39,17.472,36.533,15,33.5,15z"/></svg>