<svg xmlns="http://www.w3.org/2000/svg"  viewBox="0 0 48 48" width="1600px" height="1600px"><path fill="#7b1fa2" d="M37,41H11c-2.209,0-4-1.791-4-4V11c0-2.209,1.791-4,4-4h26c2.209,0,4,1.791,4,4v26	C41,39.209,39.209,41,37,41z"/><path fill="#fff" d="M14.473,28.014H19V30h-7V18h2.473V28.014z"/><path fill="#fff" d="M27.887,20.003h-3.676V30h-2.473v-9.997h-3.626V18h9.775V20.003z"/><path fill="#fff" d="M35.163,27.527h-4.335L30.004,30h-2.629l4.467-12h2.291l4.492,12h-2.629L35.163,27.527z M31.496,25.525h3l-1.508-4.492L31.496,25.525z"/></svg>