<svg xmlns="http://www.w3.org/2000/svg"  viewBox="0 0 48 48" width="1600px" height="1600px"><path fill="#1976D2" d="M26,17.2V29h-4V17.2c0-0.7-0.5-1.2-1.2-1.2H16c-0.7,0-1,0.6-1,1.2V29h-4v0V17.2c0-0.7-0.5-1.2-1.2-1.2H5c-0.7,0-1,0.6-1,1.2L4,29H0l0-11.8C0,14.3,2.2,12,5,12h4.8c1.2,0,2.3,0.4,3.1,1.1c0.8-0.7,1.9-1.1,3.1-1.1h4.8C23.7,12,26,14.3,26,17.2z M48,17.2v6.6c0,2.9-2.3,5.2-5.2,5.2h-9.6c-0.4,0-0.8-0.1-1.2-0.2V36h-4V23.8V19v-1.8c0-2.9,2.3-5.2,5.2-5.2h9.6C45.7,12,48,14.3,48,17.2z M44,17.2c0-0.7-0.5-1.2-1.2-1.2h-9.6c-0.7,0-1.2,0.5-1.2,1.2V19v4.8c0,0.7,0.5,1.2,1.2,1.2h9.6c0.7,0,1.2-0.5,1.2-1.2V17.2z"/></svg>