<svg xmlns="http://www.w3.org/2000/svg"  viewBox="0 0 48 48" width="1600px" height="1600px"><path fill="#CE93D8" d="M35 27c0 .552.447 1 1 1h5c.553 0 1-.448 1-1v-6c0-.552-.447-1-1-1h-5c-.553 0-1 .448-1 1V27zM35 37c0 .552.447 1 1 1h5c.553 0 1-.448 1-1v-6c0-.552-.447-1-1-1h-5c-.553 0-1 .448-1 1V37z"/><path fill="#9C27B0" d="M38,10H26v28h12c0.553,0,1-0.448,1-1V11C39,10.448,38.553,10,38,10z"/><path fill="#9C27B0" d="M35,17c0,0.552,0.447,1,1,1h5c0.553,0,1-0.448,1-1v-6c0-0.552-0.447-1-1-1h-5c-0.553,0-1,0.448-1,1V17z"/><path fill="#FFF" d="M26 30H35V33H26zM26 25H35V28H26zM26 20H35V23H26zM26 15H35V18H26z"/><path fill="#7B1FA2" d="M27 42L6 38 6 10 27 6z"/><path fill="#FFF" d="M21.227,30.947h-2.797l-5.069-8.766c-0.298-0.508-0.505-0.893-0.622-1.148h-0.035c0.048,0.492,0.07,1.24,0.07,2.254v7.66h-2.619V17.005h2.987l4.884,8.481c0.225,0.383,0.432,0.764,0.617,1.143h0.034c-0.043-0.322-0.069-0.968-0.069-1.92v-7.704h2.618L21.227,30.947L21.227,30.947z"/></svg>