<svg xmlns="http://www.w3.org/2000/svg"  viewBox="0 0 48 48" width="1600px" height="1600px"><path fill="#1976D2" d="M13.3,15.1C8.7,17.9,6,21.9,6,21.9s0.7-8.4,7.3-13.3c2.6-2,6.2-3.6,11-3.6c1.8,0,5.6,0.3,9,2.4s4.8,3.8,6.4,6.3c0.7,1.1,1.2,2.5,1.5,3.8c0.6,2.5,0.7,5.6,0.7,5.6V27H17c0,0-0.1,8.1,11.2,8.1c3.9,0,5.3-0.6,6.6-1c2-0.6,4.2-2.1,4.2-2.1v8c0,0-4.9,3-11.9,3c-2,0-4-0.2-6-0.8c-1.7-0.6-5.4-2-7.8-5.5c-0.9-1.2-1.8-2.9-2.3-4.5c-0.5-1.7-0.5-3.4-0.5-4.3c0-3.5,1.2-6.8,3.3-9.2C16.6,15.6,20,14,20,14s-3,2.8-3,6h14c0,0,0.1-8-7.7-8C20.1,12,16.1,13.4,13.3,15.1z"/></svg>