<svg xmlns="http://www.w3.org/2000/svg"  viewBox="0 0 48 48" width="1600px" height="1600px"><path fill="#4caf50" d="M34,42H14c-4.418,0-8-3.582-8-8V14c0-4.418,3.582-8,8-8h20c4.418,0,8,3.582,8,8v20	C42,38.418,38.418,42,34,42z"/><path fill="#fff" d="M27.345,17.461c0.655-0.053,3.866-0.307,5.143-0.225c0.114-0.184,0.671-0.391,1.035-0.063	c0.25,0.226,0.51,0.372,0.742,0.47c0.259,0.11,0.311,0.558-0.153,0.598c-0.422,0.036-1.966,0.555-2.571,1.212	c0.198,0.021,0.542,0.324,0.151,0.729c0.464,0.041,1.814,0.01,2.232-0.026c0.13-0.226,0.6-0.601,1.116-0.092	c0.156,0.175,0.618,0.524,0.798,0.596c0.216,0.087,0.238,0.484-0.078,0.488c-0.518,0.006-3.723-0.026-4.385,0.154	c-0.005,0.755-0.255,2.693-1.023,3.409c-0.364,0.409-0.819,0.336-1.102,0.064c-0.391-0.376-0.86-0.573-1.326-0.966	c-0.39-0.33-0.07-0.902,0.405-0.716c0.306,0.119,1.186,0.294,1.573,0.278c0.129-0.493,0.129-1.375,0.066-1.953	c-0.72-0.05-3.025,0.684-3.578,0.705s-1.064-0.611-1.257-0.837s-0.245-0.586,0.302-0.647c0.547-0.062,3.749-0.303,4.375-0.318	c0.01-0.39-0.048-0.789-0.099-1.002c-0.083-0.344,0.318-0.935,1.006-0.385c0.151-0.267,0.631-0.668,0.907-0.817	c-0.657-0.056-2.156,0.222-2.679,0.399c-0.268,0.101-0.705,0.146-0.945-0.029s-0.602-0.406-0.821-0.509	C26.962,17.877,26.907,17.497,27.345,17.461z"/><path fill="#fff" d="M27.31,15.901c0,0,4.257-0.301,6.767-0.073c-0.104,0.29-0.151,0.943,0.329,0.943	c0.533,0,0.734-0.496,1.315-0.756c0.558-0.249,1.251-0.118,1.278-0.56c0.024-0.384-0.392-0.38-0.761-0.644	c-0.431-0.309-0.399-0.68-0.817-0.734c-0.339-0.044-0.572,0.269-0.625,0.497c-1.927-0.052-5.432,0.114-7.529,0.435	c0.021-0.57-0.212-1.327-0.731-1.327c-0.514,0-0.419,0.796-0.709,1.492c-0.315,0.756-0.784,0.711-0.826,1.285	C24.97,16.885,25.499,17,26.156,17C26.664,17,27.119,16.668,27.31,15.901z"/><path fill="#fff" d="M29.36,11.789c0.204-0.401,0.94-0.049,1.558,0.27S31.987,12.5,32,13.089	c0.013,0.588-0.753,0.977-1.129,0.867c-0.502-0.146-0.38-0.671-0.789-1.198C29.804,12.402,29.18,12.145,29.36,11.789z"/><path fill="#fff" d="M24,14.476c0,0-4-2.476-8.165,0.36L13,12v9h9l-3.211-3.211C19.655,16.258,21.26,15.063,24,14.476z"/><path fill="#fff" d="M24,33.524c0,0,4,2.476,8.165-0.36L35,36v-9h-9l3.211,3.211C28.486,31.5,26.74,32.937,24,33.524z"/><path fill="#fff" d="M22,35c-0.35-1.528-0.311-5.838-0.216-7.697c0.095-1.856-1.301-3.206-3.264-3.293	c-1.474-0.065-2.836,0.21-3.996,0.531l0.183,1.629c0.474-0.227,1.406-0.508,1.996-0.543c1.78-0.104,3.31,0.397,3.233,1.931	c-0.012,0.332-0.011,0.677-0.015,1.017l-0.012-0.024c-1.586-0.663-6.828-0.964-6.909,3.605c-0.03,2.943,2.263,3.204,3.667,3.173	c1.349-0.029,2.673-0.588,3.42-1.291c0.021,0.371,0.041,0.579,0.065,0.958L22,35z M14.96,32.11c0-2.899,3.854-2.778,5.021-2.244	c0.014,0.993,0.05,2.017,0.104,3.078C16.819,34.724,14.96,33.478,14.96,32.11z"/></svg>