<svg xmlns="http://www.w3.org/2000/svg"  viewBox="0 0 48 48" width="1600px" height="1600px"><path fill="#1976d2" d="M25.57,16.15c-5.628-1.077-10.497,3.792-9.42,9.42c0.602,3.145,3.139,5.68,6.284,6.28c5.625,1.073,10.489-3.791,9.416-9.416C31.251,19.289,28.715,16.752,25.57,16.15z M24,27c-1.657,0-3-1.343-3-3s1.343-3,3-3s3,1.343,3,3S25.657,27,24,27z"/><path fill="#1976d2" d="M38.009,9.736L31.8,14.4l2.4,3.199l3.148-2.361C39.012,17.756,40,20.756,40,24c0,8.837-7.163,16-16,16S8,32.837,8,24S15.163,8,24,8c2.621,0,5.087,0.642,7.27,1.759l3.496-2.597C31.656,5.17,27.968,4,24,4C12.954,4,4,12.954,4,24c0,11.046,8.954,20,20,20s20-8.954,20-20C44,18.412,41.703,13.365,38.009,9.736z"/></svg>