<svg xmlns="http://www.w3.org/2000/svg"  viewBox="0 0 48 48" width="1600px" height="1600px"><polygon fill="#5d4037" points="26,16 3,9 5,35 26,46 43,34 45,8"/><polygon fill="#8d6e63" points="3,9 5,35 26,46 26,16"/><polygon fill="#43a047" points="28,22.158 28,18 30,17.127 30,20 32,19 32,23 35,21.772 35,15 37,14.151 37,19 39,18.177 39,16 41,15 41,12.467 43,11.625 43,14 44.6,13.2 45,8 26,16 26,23"/><polygon fill="#b2ff59" points="3,9 23,3 45,8 26,16"/><polygon fill="#66bb6a" points="3,9 3.4,14.134 5,14.607 5,13.413 7,14 7,17.217 10,18.13 10,13.373 12,14 12,18.739 14,19.348 14,16.449 16,17.058 16,19.957 18,20.565 18,19.379 20,20 20,18.424 22,19 22,21.783 26,23 26,16"/></svg>