<svg xmlns="http://www.w3.org/2000/svg"  viewBox="0 0 48 48" width="1600px" height="1600px" baseProfile="basic"><path fill="#76ff03" d="M6,5c0.433-1.134,2.277-0.766,4-2c1.306,0.499,2.645-0.004,4-1c0.833,0.678,1.844,0.99,3,1	c0.496,1.299,1.053,2.491,2,3c-0.893,0.094-0.968,0.538-1,1c-0.852,0.126-1.504,0.444-1.745,1.16C16.365,9.867,16.35,11.196,17,12	c-0.69,0.371-1.032,1.031-1,2c-0.061,1.248-0.002,2.409,0.97,2.911C16.693,18.07,17.267,19.052,18,20	c-0.853,1.354-1.162,2.53,0,3.223c-0.723,1.026-0.61,1.936,0,2.777c-1.153,1.769-1.753,3.801-2,6c-0.025,0.585,0.401,1.273,1,2	c-0.673,1.329-1.026,2.662-1,4c1.372,0.926-0.128,2.234,1,5c-0.066,0.681-0.45,1.345-1,2c0.348-1.15,0.332-2.143,0-3	c-1.309-2.085-0.741-5.389-2-7c0.561-1.133,0.602-2.451,0-4l-1-1c0.461-0.71,0.83-1.389,1-2c0.487-1.25,0.421-2.562,0-3.915	c0.305-1.17,0.347-2.218,0-3.085c0.028-1.508-0.288-2.85-1-4l-1-1c0.1-1.714,0.426-3.382,1-5c0.212-1.386,0.005-2.475-1-3	c-0.496-0.228,0.011-1.053,0-2c-0.03-0.436-0.355-0.772-1-1H7H6z"/><path fill="#76ff03" d="M17,4l3-2h2c0.566-0.598,1.561-0.934,3-1c0.959-1.142,2.202,1.287,4,1c-0.264,0.758,0.012,1.433,1,2	l-2,1c0.728,0.664-1.053,1.468-1,3c0.026,1.054,0.277,2.068,1,3c-0.615,0.53-0.967,1.188-1,2c0.835,0.214,1.201,0.852,1,2	c-0.692,1.115-1.013,2.218,0,3.277c-0.848,0.719-0.684,2.061,0,3.723c0.734,2.085-3.574,2.149-2,11c-1.734,5.606,0.723,4.84,0,7	l-1,6l-1,2c-0.787-1.447,0.545-3.243,0-4c0.34-1.543-0.132-2.43-1-3l1-2c-1.362-1.287-0.021-3.202-1-6v-2	c-0.163-0.484-0.506-0.809-1-1c1.099-1.891,1.629-4.364,2-7c0.023-1.292-0.424-2.639-1-4c0.654-0.711,0.899-1.79,1-3	c-0.791-0.155-1.005-0.535-1-1c0.394-1.591,0.344-3.268,0-5l-1-1c0.466-2.371,0.599-4.449-1-5c-1.427-0.215-2.742,0.229-4,1V4z"/><path fill="#76ff03" d="M29,6l1-1c1.135-0.793,2.111-1.045,3-1c0.283-0.824,0.913-1.506,2-2c1.499,0.062,2.589,0.346,3,1	c-0.106,1.617,1.432,2.595,1,4c0.011,2.085-2.096,2.755-2,6c-0.592,1.174-0.6,2.505,0,4c0,0,0.239,0.814-0.096,1.819S38,22,38,22	c0.915,1.989-1.963,4.024-0.904,4.734c0.651,1.004,0.629,2.063,0.032,2.713c-0.536,0.593-0.555,0.803-0.191,1.596	c0.356,0.865,0.296,1.533-0.191,1.947C36.089,33.688,36.747,34.736,37,36c-0.887,0.94-1.548,2.285-2,4v2l-1-3	c0.077-1.205,1.266-1.745,0.798-2.468c-1.233-0.942-0.975-1.85-0.383-2.234c0.259-0.27,0.828-0.951,0.319-1.755	C34.018,31.187,35.24,30.261,35,29v-6l-0.394-2.106L35,19c-0.795-0.864-1.273-1.821-1-3c0.511-2-0.766-1.489-0.574-2.543	c0.111-0.638,0.787-0.426,1.053-1.468C33.649,9.596,34.79,7.574,34,7c-0.61-0.61-1.537-0.724-3,0C30.659,6.208,30.107,5.714,29,6z"/></svg>