<svg xmlns="http://www.w3.org/2000/svg"  viewBox="0 0 48 48" width="1600px" height="1600px"><path fill="#ff7501" d="M34,42H14c-4.418,0-8-3.582-8-8V14c0-4.418,3.582-8,8-8h20c4.418,0,8,3.582,8,8v20	C42,38.418,38.418,42,34,42z"/><circle cx="23.5" cy="15.5" r="5.5" fill="#fff"/><path fill="#fff" d="M33,26h-6c-0.55,0-1,0.45-1,1v10c0,0.55,0.45,1,1,1h6c0.55,0,1-0.45,1-1V27C34,26.45,33.55,26,33,26z M33,36h-6v-9h6V36z"/><path fill="#fff" d="M31.24,24H27c-1.65,0-3,1.35-3,3v10h-6c-1.66,0-3-1.34-3-3v-6.5c0-2.34,0.95-4.47,2.49-6.01	c0.24-0.24,0.49-0.46,0.75-0.66C19.6,22.18,21.45,23,23.5,23s3.9-0.82,5.26-2.17C29.82,21.67,30.68,22.75,31.24,24z"/></svg>