<svg xmlns="http://www.w3.org/2000/svg"  viewBox="0 0 48 48" width="1600px" height="1600px" baseProfile="basic"><path fill="#9ccc65" d="M46.48,29.43c-0.2,2-2.04,3.57-4.18,3.57l-13.07,0.03l10.81-7.32h0.01c0.74-0.51,1.6-0.75,2.44-0.75	c1.15,0,2.27,0.46,3.02,1.35c0.37,0.43,0.63,0.92,0.8,1.46C46.48,28.31,46.54,28.87,46.48,29.43z"/><path fill="#42a5f5" d="M40.97,23.57l-12.48,7.96l5.59-13.69c0.97-2.3,3.5-3.57,5.75-2.88c0.64,0.19,1.21,0.51,1.73,0.93	c0.51,0.43,0.92,0.94,1.22,1.52C43.86,19.5,43.06,22.21,40.97,23.57z"/><path fill="#9c7ee0" d="M33.44,16.59l-5.99,13.53l-2.28-11.44l2.4-1.26c0.2-0.1,0.31-0.34,0.25-0.56	c-0.05-0.22-0.25-0.38-0.48-0.38h-2.63l-0.17-0.95c-0.03-0.15-0.03-0.3-0.04-0.45c0.02-0.31,0.02-0.61,0-0.91	c0.18-1.94,1.45-3.66,3.29-4.19c0.63-0.18,1.29-0.23,1.95-0.15c0.66,0.08,1.29,0.28,1.86,0.61C33.65,11.61,34.46,14.31,33.44,16.59z"/><path fill="#ffc107" d="M18.77,33.03L5.7,33c-2.14,0-3.98-1.57-4.18-3.57c-0.06-0.56,0-1.12,0.17-1.66	c0.17-0.54,0.43-1.03,0.8-1.46c0.75-0.89,1.87-1.35,3.02-1.35c0.84,0,1.7,0.24,2.44,0.75h0.01L18.77,33.03z"/><path fill="#fb8c00" d="M19.59,31.53L7.03,23.58c-2.09-1.37-2.89-4.08-1.81-6.17c0.3-0.58,0.71-1.09,1.22-1.52	c0.52-0.42,1.09-0.74,1.73-0.93c0.41-0.12,0.83-0.18,1.25-0.18c1.88,0,3.71,1.19,4.5,3.07L19.59,31.53z"/><path fill="#d50000" d="M23.5,14.17c-0.02,0.3-0.02,0.6,0,0.91c-0.01,0.15-0.01,0.3-0.04,0.45l-0.36,2.01l-2.54,12.59	l-6-13.54c-1.02-2.28-0.21-4.98,1.84-6.15c0.57-0.33,1.2-0.53,1.86-0.61c0.2-0.03,0.4-0.04,0.59-0.04c0.46,0,0.92,0.06,1.36,0.19	C22.05,10.51,23.32,12.23,23.5,14.17z"/></svg>