<svg xmlns="http://www.w3.org/2000/svg"  viewBox="0 0 48 48" width="1600px" height="1600px"><path fill="#d4ebf9" d="M14,5l5,4l-8,19c0,0-4.256-1.383-6-2c-1.75-2.333-2-6.12-2-7c0-2.509,1-5,1-5S6.07,8.732,14,5z"/><path fill="#90caf9" d="M8,19c0,0-3.25,2.833-3,7c-1.75-2-2-6.12-2-7c0-2.509,1-5,1-5S4.511,17.491,8,19z"/><path fill="#64b5f6" d="M39,23c0,8.351-6.804,15-15,15c-8.196,0-15-6.649-15-15S15.649,8,24,8S39,14.649,39,23"/><path fill="#aed581" d="M23.852 29.647c0-.295-.148-.443-.443-.591-.886-.295-1.773-.295-2.511-1.035-.148-.295-.148-.591-.295-.886-.295-.295-1.034-.443-1.477-.591h-1.92H16.17c-.443-.148-.739-.739-1.034-1.182 0-.148 0-.444-.295-.444-.295-.147-.591.148-.886 0-.148-.147-.148-.295-.148-.442 0-.444.295-.887.591-1.182.443-.295.886.148 1.33.148.148 0 .148 0 .295.148.443.148.591.739.591 1.182v.295c0 .148.148.148.295.148.148-.739.148-1.478.295-2.216 0-.886.886-1.773 1.625-2.068.295-.147.443.148.739 0 .886-.295 3.102-1.182 2.659-2.363-.295-1.035-1.182-2.067-2.364-1.92-.295.148-.443.295-.739.444-.443.295-1.33 1.182-1.773 1.182-.739-.148-.739-1.182-.591-1.626.148-.591 1.477-2.511 2.364-2.215.148.148.443.443.591.591.295.148.739.148 1.182.148.148 0 .295 0 .443-.148.148-.148.148-.148.148-.295 0-.443-.443-.887-.739-1.182-.295-.295-.739-.591-1.182-.738-1.477-.444-3.841.147-5.023 1.182-1.182 1.034-2.068 2.807-2.659 4.284-.295.886-.591 2.067-.739 3.102-.148.739-.295 1.33.148 2.067.443.886 1.33 1.773 2.216 2.364.591.443 1.773.443 2.364 1.182.443.592.295 1.33.295 2.068 0 .886.591 1.625.886 2.363.148.444.295 1.035.443 1.478 0 .148.148 1.034.148 1.182.886.443 1.625.887 2.659 1.182.148 0 .739-.887.739-1.035.443-.443.739-1.034 1.182-1.33.295-.148.591-.295.886-.592.295-.295.443-.886.591-1.33C23.852 30.681 24 30.09 23.852 29.647M24.147 16.057c.148 0 .295-.148.591-.295.443-.295.887-.739 1.33-1.034.444-.295.887-.739 1.182-1.034.443-.295.739-.886.886-1.33.148-.295.592-.886.443-1.33-.148-.295-.886-.443-1.182-.591C26.215 10.147 25.181 10 24 10c-.443 0-1.034.147-1.182.591-.148.739.443.591 1.034.739 0 0 .148 1.182.148 1.33.148.739-.295 1.182-.295 1.92 0 .443 0 1.182.295 1.477H24.147zM36.556 26.397c.148-.295.148-.739.295-1.034C37 24.624 37 23.886 37 23.147c0-1.477-.148-2.954-.591-4.284-.295-.443-.444-.886-.592-1.33-.295-.738-.739-1.477-1.33-2.067-.591-.739-1.33-2.807-2.659-2.216-.443.148-.739.739-1.034 1.035-.295.443-.591.886-.886 1.33-.148.148-.295.443-.148.591 0 .148.148.148.295.148.295.148.444.148.739.295.148 0 .295.148.148.295 0 0 0 .148-.148.148-.739.739-1.477 1.33-2.216 2.067-.148.148-.295.443-.295.591s.148.148.148.295c0 .148-.148.148-.295.295-.295.148-.591.295-.739.444-.148.295 0 .739-.148 1.034-.148.739-.592 1.33-.887 2.068-.295.442-.442.886-.738 1.33 0 .591-.148 1.034.147 1.477.739 1.034 2.068.443 3.102.887.295.147.591.147.739.442.442.444.442 1.182.591 1.626.147.591.295 1.182.591 1.773.148.739.443 1.478.591 2.068 1.33-1.034 2.511-2.215 3.398-3.693C35.67 28.761 36.114 27.58 36.556 26.397"/><path fill="#263238" d="M25 17.417c0 0 .082 1.583 1.526 1.583 1.443 0 2.248-1.401 2.433-2.042.139-.48 0-1.958-1.608-1.958C25.742 15 25 16.542 25 17.417zM21.966 12.642c.04.167.043.354.017.54-.2 1.406-2.083 2.986-3.52 2.289-.337-.163-.472-.47-.462-.833.041-1.47 1.835-2.764 3.244-2.629C21.664 12.05 21.887 12.309 21.966 12.642zM14 21c0 0-.565 7.989 6.623 7.989C24.06 28.989 27 26 27 26c0 .313 2 2 2 2s-2.813 3-8 3c-6 0-8-4.188-8-9L14 21z"/><path fill="#d4ebf9" d="M35,19c0,0,1,1.583,1,5c0,5.833-9,11-9,11s4.083,5.25,8,8c0,0,7.583-5.083,10-12c0,0,0.25-6-3-11C41.333,19.417,35,19,35,19z"/><path fill="#90caf9" d="M39,29c0,0,3.25,0.5,6,2c0,0,0.25-6-3-11C42.083,25.333,39,29,39,29z"/></svg>