<svg xmlns="http://www.w3.org/2000/svg"  viewBox="0 0 48 48" width="1600px" height="1600px"><path fill="#ffc107" d="M36.946,6c1.29,0,2.242,0.37,2.911,1.13c1.475,1.679,1.102,4.709,1.098,4.738l-0.009,0.066V12c0,4.554-6.761,22-18.008,22c-0.409-0.001-3.992-0.176-3.992-6C18.946,20.729,28.846,6,36.946,6 M36.946,5c-8.563,0-19,15.188-19,23c0,6.921,4.773,7,4.992,7c0.005,0,0.008,0,0.008,0c11.813,0,19-17.938,19-23C41.946,12,42.883,5,36.946,5L36.946,5z"/><path fill="#b0bec5" d="M7.083 15L7.083 17 6.333 18 8.333 20 10 20 10 21 12 21 13 20 15 20 15 22 17 24 19 24 20 26 22 26 23 27 22 29 22 31 23 32 24 32 26 35 26 36 23 39 26 42 26 43 27 42 27 41 28 40 30 38 30 35 33 33 34 33 35 32 36 33 39 29 40 26 40 23 44 19 44 17 43 15 42 15 39 13 37 13 36 12 35 13 35 12 32 11 31 12 29 12 29 11 27 11 30 8 28 6 27 8 26 8 25 7 24 7 24 8 22 8 20 5 17 6 15 6 15 8 13 7 10 8 10 12 8 13z"/><path fill="#78909c" d="M31,16c1.833,0,0.778,2.235,0.535,3h-5.686C26.903,17.371,28.525,16,31,16 M31,13c-8.833,0-10,11-10,11s-0.5,5,4,5c5.083,0,7.417-5,7.417-5H29c0,0-1.333,2-3,2c-1.291,0-2.003-0.741-2-1.585C24.004,23.298,24.583,22,24.583,22h9c0,0,1.374-2.848,1.417-5.339C35.033,14.723,34.865,13,31,13L31,13z"/><path fill="#fff" d="M30,15c1.833,0,0.778,2.235,0.535,3h-5.686C25.903,16.371,27.525,15,30,15 M30,12c-8.833,0-10,11-10,11s-0.5,5,4,5c5.083,0,7.417-5,7.417-5H28c0,0-1.333,2-3,2c-1.291,0-2.003-0.741-2-1.585C23.004,22.298,23.583,21,23.583,21h9c0,0,1.374-2.848,1.417-5.339C34.033,13.723,33.865,12,30,12L30,12z"/><path fill="#78909c" d="M7.688 7L5.688 17 7.688 17 8.906 11 10.688 17 12.688 17 14.688 7 12.688 7 11.469 13 9.688 7z"/><path fill="#eceff1" d="M6 6L4 16 6 16 7.219 10 9 16 11 16 13 6 11 6 9.781 12 8 6z"/><path fill="#78909c" d="M22.287 9L22.688 7 16.688 7 14.688 17 16.688 17 17.487 13 21.287 13 21.688 11 17.888 11 18.287 9z"/><path fill="#eceff1" d="M20.6 8L21 6 15 6 13 16 15 16 15.8 12 19.6 12 20 10 16.2 10 16.6 8z"/><path fill="#388e3c" d="M35,6c1.29,0,2.242,0.37,2.911,1.13c1.475,1.679,1.102,4.709,1.098,4.738L39,11.933V12c0,4.554-6.761,22-18.029,22C20.565,34,17,33.832,17,28C17,20.729,26.9,6,35,6 M35,5c-8.563,0-19,15.188-19,23c0,6.848,4.565,7,4.971,7C20.99,35,21,35,21,35c11.813,0,19-17.938,19-23C40,12,40.938,5,35,5L35,5z"/></svg>