<svg xmlns="http://www.w3.org/2000/svg"  viewBox="0 0 48 48" width="1600px" height="1600px"><path fill="#2979ff" d="M6,10c0-2.2,1.8-4,4-4h28c2.2,0,4,1.8,4,4v28c0,2.2-1.8,4-4,4H10c-2.2,0-4-1.8-4-4V10z"/><path fill="#eee" d="M25.806,33.326c-1.868,0-3.619-0.725-4.944-2.05l-3.326-3.327c-1.322-1.322-2.05-3.079-2.05-4.949 s0.728-3.627,2.05-4.949l6.757-6.758l1.414,1.414l-6.757,6.758c-0.944,0.944-1.464,2.2-1.464,3.535s0.52,2.591,1.464,3.535 l3.326,3.327c0.974,0.973,2.26,1.498,3.644,1.463c1.376-0.03,2.647-0.605,3.577-1.62l6.766-7.381l1.475,1.352l-6.766,7.381 c-1.303,1.421-3.081,2.226-5.008,2.268C25.911,33.326,25.858,33.326,25.806,33.326z"/><polygon fill="#ffe0b2" points="23.75,17.25 13,28 10,38 21,35 31.25,24.75"/><path fill="#ffe082" d="M13,28c0,0,1,1,3,1l8-8l-2-2L13,28z"/><path fill="#ffb74d" d="M21,35c0,0-1-1-1-3l7.5-7.5l2,2L21,35z"/><path fill="#ffd54f" d="M16,29c0,0,1,2,4,3l8-8l-3.5-3.5L16,29z"/><path fill="#212121" d="M11.307,33.644L10,38l4.406-1.202C13.774,35.418,12.674,34.301,11.307,33.644z"/><polygon fill="#9e9e9e" points="19.293,16.293 32.447,29.447 34.36,27.36 21.293,14.293"/><line x1="31" x2="29" y1="24" y2="26" fill="#bdbdbd"/><rect width="2.828" height="10.607" x="25.336" y="16.447" fill="#e0e0e0" transform="rotate(-45.001 26.75 21.75)"/><path fill="#e0e0e0" d="M36.25,12.25C34.179,10.179,31.071,9.929,29,12l-5,5l7.5,7.5L36,20 C38.071,17.929,38.321,14.321,36.25,12.25z"/><circle cx="34.319" cy="14.223" r="1" fill="#212121"/><circle cx="31.702" cy="16.745" r="1" fill="#212121"/><circle cx="31" cy="13.521" r="1" fill="#212121"/><circle cx="34.83" cy="17.533" r="1" fill="#212121"/><circle cx="29.149" cy="19.261" r="1" fill="#212121"/><circle cx="28.351" cy="16.223" r="1" fill="#212121"/><circle cx="32.25" cy="20" r="1" fill="#212121"/><path fill="#212121" d="M28.86,12.143l-1.342,1.342C27.69,13.787,28.002,14,28.375,14c0.552,0,1-0.448,1-1 C29.375,12.627,29.162,12.315,28.86,12.143z"/><path fill="#212121" d="M36.205,19.784c-0.179-0.169-0.434-0.284-0.7-0.284c-0.552,0-1,0.448-1,1 c0,0.276,0.112,0.526,0.293,0.707L36.005,20C36.073,19.931,36.14,19.856,36.205,19.784z"/><path fill="#212121" d="M32.994,22.109c-0.552,0-1,0.448-1,1c0,0.248,0.1,0.467,0.249,0.642l1.393-1.393 C33.461,22.208,33.242,22.109,32.994,22.109z"/><path fill="#212121" d="M25.451,16.521c0.552,0,1-0.448,1-1c0-0.273-0.111-0.52-0.289-0.701l-1.412,1.412 C24.931,16.41,25.177,16.521,25.451,16.521z"/><path fill="#212121" d="M26.328,19.328c0.25-0.182,0.422-0.462,0.422-0.794c0-0.552-0.448-1-1-1 c-0.332,0-0.613,0.173-0.794,0.422L26.328,19.328z"/><path fill="#212121" d="M29.679,21.75c-0.264,0-0.5,0.107-0.679,0.274l1.405,1.405c0.167-0.179,0.274-0.415,0.274-0.679 C30.679,22.198,30.231,21.75,29.679,21.75z"/><rect width="2.828" height="2.828" x="22.586" y="17.586" fill="#f5f5f5" transform="rotate(-45.001 24 19)"/><rect width="2.812" height="2.824" x="28.09" y="23.095" fill="#bdbdbd" transform="rotate(-45.001 29.495 24.508)"/></svg>