<svg xmlns="http://www.w3.org/2000/svg"  viewBox="0 0 48 48" width="1600px" height="1600px" clip-rule="evenodd"><path fill="#ff3d00" fill-rule="evenodd" d="M18.127,27.714V23.78h-1.06v-2.179h1.06v-1.684l2.652-1.058 v2.742h1.567v2.181h-1.571v3.214c0,0.496,0.249,0.675,0.865,0.675h0.62v2.105h-2.244c-1.198,0-1.888-0.915-1.888-2.053" clip-rule="evenodd"/><rect width="2.77" height="11.736" x="31.255" y="18.025" fill="#ff3d00"/><polyline fill="#ff3d00" fill-rule="evenodd" points="34.882,18.023 37.641,18.025 37.641,29.761 34.882,29.761 34.882,18.023" clip-rule="evenodd"/><path fill="#ff3d00" fill-rule="evenodd" d="M25.172,24.603c0-0.496,0.585-1.148,1.397-1.148 c0.88,0,1.427,0.739,1.427,1.148H25.172 M30.675,26.581c-0.431,1.923-2.127,3.298-4.098,3.322c-2.327,0-4.16-1.95-4.16-4.368 s1.833-4.389,4.16-4.389s4.209,1.963,4.209,4.382c0.002,0.233-0.016,0.465-0.054,0.695h-5.639 c0.066,0.756,0.707,1.332,1.466,1.318c0.613-0.002,1.161-0.384,1.376-0.959H30.675z" clip-rule="evenodd"/><path fill="#ff3d00" fill-rule="evenodd" d="M13.989,21.601h2.635v8.166h-2.633v-0.792 c-0.639,0.618-0.863,0.739-1.531,0.938c-0.993,0.241-2.263-0.214-2.744-0.874c-0.385-0.503-0.593-1.12-0.591-1.755v-5.683h2.623 v4.783c0,0.825,0.452,1.381,1.133,1.381c0.624,0,1.108-0.551,1.108-1.381V21.601" clip-rule="evenodd"/><path fill="#455a64" fill-rule="evenodd" d="M3.636,29.755H0.994v-8.155h2.642v0.796 c0.639-0.62,0.863-0.74,1.531-0.941c0.989-0.243,2.256,0.214,2.742,0.876c0.378,0.507,0.587,1.12,0.595,1.753v5.671H5.865v-4.783 c0-0.823-0.444-1.378-1.131-1.378c-0.62,0-1.104,0.549-1.104,1.378v4.783" clip-rule="evenodd"/><path fill="#ff3d00" fill-rule="evenodd" d="M40.754,25.67c0.026-1,0.859-1.79,1.859-1.763 c1,0.026,1.79,0.859,1.763,1.859c-0.026,0.981-0.829,1.764-1.811,1.764C41.552,27.516,40.741,26.684,40.754,25.67 M38.076,25.691 c0-2.348,1.758-4.249,3.934-4.249c0.838,0.022,1.645,0.321,2.296,0.85v-0.691h2.705v8.164h-2.728v-0.658 c-0.574,0.574-1.41,0.83-2.296,0.83c-2.16,0.01-3.924-1.904-3.924-4.246L38.076,25.691z" clip-rule="evenodd"/></svg>