<svg xmlns="http://www.w3.org/2000/svg"  viewBox="0 0 50 50" width="1600px" height="1600px"><path fill="#1a237e" d="M42,19.207c0.966-1.993,2.668-3.578,1.725-5.206c-1.057-1.825-3.721-0.739-6.173-1.193l-8.649-4.876	C26.998,6.055,26.688,2.83,24.44,2.83c-2.311,0-2.57,3.411-4.623,5.26l-8.336,4.699c-2.484,0.512-5.215-0.641-6.289,1.212	C4.223,15.677,6.054,17.307,7,19.383v11.554c-0.946,2.077-2.777,3.707-1.807,5.382c1.052,1.816,3.695,0.75,6.138,1.188l8.538,4.813	c2.005,1.859,2.28,5.212,4.571,5.212c2.231,0,2.554-3.176,4.42-5.059l8.842-4.984c2.41-0.385,4.987,0.618,6.023-1.169	c0.943-1.628-0.759-3.212-1.725-5.206V19.207z M40.125,32.604c-0.589,0.028-1.281-0.006-1.963-0.084l-6.556-3.798l-2.599-3.554	l2.627-3.585l6.528-3.781c0.682-0.078,1.374-0.112,1.963-0.084L41,20.028v10.265L40.125,32.604z M38.711,15.275	c-0.269,0.525-0.643,1.108-1.049,1.66l-6.566,3.803l-4.37,0.473l-1.785-4.053v-7.58c0.276-0.633,0.595-1.252,0.916-1.751	l1.161,0.191l10.673,6.016L38.711,15.275z M23.023,7.827c0.321,0.5,0.641,1.12,0.917,1.753v7.593l-1.782,4.036l-4.341-0.474	l-6.561-3.8c-0.407-0.553-0.78-1.135-1.049-1.66l0.949-1.154l10.876-6.13L23.023,7.827z M8.793,17.717	c0.589-0.028,1.281,0.006,1.963,0.084l6.477,3.752l2.64,3.61l-2.642,3.605l-6.476,3.751c-0.682,0.078-1.374,0.112-1.963,0.084	L8,30.51V19.811L8.793,17.717z M10.207,35.046c0.269-0.525,0.643-1.108,1.049-1.66l6.553-3.796l4.345-0.47l1.786,4.055v7.608	c-0.276,0.634-0.596,1.254-0.917,1.753l-1.039-0.171l-10.735-6.051L10.207,35.046z M25.857,42.535	c-0.321-0.499-0.64-1.118-0.916-1.751v-7.629l1.781-4.034l4.41,0.482l6.529,3.782c0.407,0.553,0.78,1.136,1.05,1.661L37.598,36.4	l-10.533,5.937L25.857,42.535z"/></svg>