<svg xmlns="http://www.w3.org/2000/svg"  viewBox="0 0 48 48" width="1600px" height="1600px"><path fill="#cfd8dc" d="M37,19c0,5-6.044,8-13.5,8S10,26.075,10,20C10,8,16,5,23.5,5C30.956,5,37,10,37,19z"/><ellipse cx="10.5" cy="20.5" fill="#434345" rx="2.5" ry="3.214"/><ellipse cx="12.5" cy="20.5" fill="#616161" rx="3.5" ry="4.5"/><path fill="#3949ab" d="M15.087,32.213c-1.897,0.756-3.82,0.801-5.108,0.227c-0.342-0.144-0.649-0.334-0.889-0.561	c-0.229-0.199-0.41-0.45-0.537-0.733l-0.033-0.084c-0.118-0.297-0.163-0.613-0.153-0.929c0.007-0.153,0.017-0.298,0.051-0.451	c0.311-1.502,1.875-3.094,4.077-3.972c0.621-0.247,1.232-0.416,1.831-0.514c1.349-0.225,2.586-0.083,3.488,0.375	c0.2,0.093,0.383,0.213,0.532,0.348c0.332,0.255,0.567,0.571,0.715,0.942c0.059,0.149,0.11,0.311,0.119,0.469	c0.015,0.005,0.015,0.005,0.015,0.005s0,0-0.008,0.014c0.031,0.214,0.038,0.437,0.015,0.651c-0.018,0.126-0.039,0.242-0.073,0.363	C18.763,29.822,17.231,31.359,15.087,32.213z"/><path fill="#5c6bc0" d="M16,36l-0.913,1.913c-0.522,0.522-1.412,0.325-1.651-0.374C12.568,34.999,11,29.148,11,20	c0-10,6.686-12,11.462-12c0,0,11.462-1,12.418,11c0.628,7.892-1.376,15.943-2.121,18.594c-0.162,0.575-0.787,0.894-1.337,0.66	c-0.631-0.269-1.365-0.83-1.676-2.004c-1.153,2.414-3.573,4.596-6.278,5.53c-0.188,0.065-0.398,0.074-0.59,0.025	C18.938,40.812,16.699,37.097,16,36z"/><circle cx="16" cy="21" r="2" fill="#fff"/><circle cx="25" cy="21" r="2" fill="#fff"/><ellipse cx="33.5" cy="19.5" fill="#616161" rx="3.5" ry="4.5"/><ellipse cx="35.5" cy="19.5" fill="#434345" rx="2.5" ry="3.5"/><path fill="#7986cb" d="M31.94,28.452c0.445,1.044,0.437,2.136,0.049,2.895c-0.098,0.201-0.224,0.385-0.373,0.532	c-0.131,0.14-0.293,0.254-0.476,0.34l-0.054,0.023c-0.191,0.081-0.392,0.121-0.593,0.131c-0.097,0.003-0.189,0.004-0.285-0.008	c-0.948-0.106-1.93-0.922-2.446-2.133c-0.083-0.195-0.319-0.567-0.506-1.036c-0.262-0.656-0.068-1.408,0.477-1.857	C28.566,26.654,29.503,26.077,30,26C31,26,31.595,27.641,31.94,28.452z"/><path fill="none" stroke="#434345" stroke-linecap="round" stroke-linejoin="round" stroke-miterlimit="10" d="M23,25	c0,1.105-1.119,2-2.5,2S18,26.105,18,25"/></svg>