<svg xmlns="http://www.w3.org/2000/svg"  viewBox="0 0 48 48" width="1600px" height="1600px" baseProfile="basic"><circle cx="24" cy="24" r="20" fill="#fff"/><path fill="#ef5350" d="M24,4C12.954,4,4,12.954,4,24c0,10.37,7.894,18.895,18,19.899V25h-2v-4h2h4v4v18.899	C36.106,42.895,44,34.37,44,24C44,12.954,35.046,4,24,4z M30,38.826v-4.445c3.583-2.076,6-5.942,6-10.381c0-6.627-5.373-12-12-12	s-12,5.373-12,12c0,4.439,2.417,8.306,6,10.381v4.445C12.139,36.451,8,30.713,8,24c0-8.837,7.163-16,16-16s16,7.163,16,16	C40,30.713,35.861,36.451,30,38.826z"/></svg>