<svg xmlns="http://www.w3.org/2000/svg"  viewBox="0 0 48 48" width="1600px" height="1600px"><path fill="#c8e6c9" d="M11.072,7.353c-2.043,0-3.698,1.655-3.698,3.698v10.845l3.723-14.543H11.072z"/><path fill="#c8e6c9" d="M7.374,36.934c0,2.043,1.655,3.698,3.698,3.698h10.845L7.374,36.908V36.934z"/><path fill="#c8e6c9" d="M36.954,40.631c2.043,0,3.698-1.655,3.698-3.698V26.088l-3.723,14.543H36.954z"/><path fill="#c8e6c9" d="M40.652,11.051c0-2.043-1.655-3.698-3.698-3.698H26.109l14.543,3.723V11.051z"/><path fill="#c8e6c9" d="M15.603,4.663c-1.979-0.507-3.992,0.686-4.499,2.665l-0.006,0.025h15.012L15.603,4.663z"/><path fill="#c8e6c9" d="M32.423,43.321c1.979,0.507,3.992-0.686,4.499-2.665l0.006-0.025H21.917L32.423,43.321z"/><path fill="#c8e6c9" d="M40.677,11.083l-0.025-0.006v15.012l2.69-10.506C43.848,13.603,42.656,11.589,40.677,11.083z"/><path fill="#c8e6c9" d="M4.684,32.403c-0.507,1.979,0.686,3.992,2.665,4.499l0.025,0.006V21.896L4.684,32.403z"/><polygon fill="#43a047" points="26.109,7.353 11.097,7.353 7.374,21.896 7.374,36.908 21.917,40.631 36.929,40.631 40.652,26.088 40.652,11.076"/><circle cx="29.513" cy="18.492" r="4.5" fill="#fff"/><circle cx="29.513" cy="28.492" r="4.5" fill="#fff"/><path fill="#fff" d="M16.404,13.465l5.321,0.029c0.74,0.004,1.336,0.607,1.332,1.347l-0.091,16.834	c-0.004,0.74-0.607,1.336-1.347,1.332l-5.321-0.029c-0.74-0.004-1.336-0.607-1.332-1.347l0.091-16.834	C15.061,14.057,15.664,13.461,16.404,13.465z"/></svg>