<svg xmlns="http://www.w3.org/2000/svg"  viewBox="0 0 48 48" width="1600px" height="1600px" baseProfile="basic"><path fill="#0288d1" d="M24,44C12.972,44,4,35.028,4,24S12.972,4,24,4s20,8.972,20,20S35.028,44,24,44z"/><path fill="#fff" d="M25.301,11.01c-9.527,0-15.59,6.929-15.59,6.929l1.732,3.132h0.866V19.67	c0,0,1.548-2.027,2.598-2.725V35.26h-0.866v1.732h5.197V35.26h-0.866v-4.276c1.621,0.848,3.961,1.678,6.929,1.678	c8.661,0,12.992-5.123,12.992-10.393C38.292,17.146,34.828,11.01,25.301,11.01z M25.301,30.064c-3.471,0-5.776-0.771-6.929-1.285	V14.722c1.878-0.898,4.186-1.557,6.929-1.557c5.75,0,8.661,4.755,8.661,9.104C33.962,25.733,30.94,30.064,25.301,30.064z"/></svg>