<svg xmlns="http://www.w3.org/2000/svg"  viewBox="0 0 48 48" width="1600px" height="1600px"><path fill="#0288d1" d="M30.625,38.125c-0.645,0-1.288-0.248-1.777-0.742c-0.346-0.35-8.495-8.587-10.459-10.67 c-0.171-0.181-0.298-0.319-0.378-0.409C16.713,24.837,16,22.956,16,21c0-4.411,3.589-8,8-8s8,3.589,8,8 c0,0.672-0.084,1.344-0.251,1.994l-0.075,0.27c-0.335,1.046-1.311,1.737-2.382,1.736c-0.188,0-0.38-0.021-0.571-0.066 c-1.345-0.316-2.178-1.662-1.861-3.006c0.012-0.05,0.027-0.105,0.043-0.16c0.009-0.033,0.016-0.061,0.021-0.08 C26.968,21.509,27,21.255,27,21c0-1.654-1.346-3-3-3s-3,1.346-3,3c0,0.733,0.267,1.438,0.751,1.985 c0.057,0.064,0.152,0.167,0.277,0.299c1.922,2.038,10.29,10.497,10.374,10.582c0.971,0.981,0.963,2.564-0.02,3.536 C31.896,37.884,31.261,38.125,30.625,38.125z M31.764,22.895l-0.005,0.032C31.761,22.912,31.763,22.9,31.764,22.895z"/><path fill="#0288d1" d="M24,3C14.506,3,6.704,10.39,6.045,19.72C6.015,20.143,6,20.57,6,21c0,0.449,0.017,0.896,0.05,1.34 c0.295,3.979,1.896,7.743,4.562,10.691c0.085,0.099,0.704,0.815,1.111,1.228c1.995,2.016,7.891,7.897,9.562,9.563 c0.277,0.277,0.451,0.449,0.451,0.449C22.188,44.721,22.811,45,23.5,45c1.024,0,1.905-0.616,2.291-1.498 C25.925,43.195,26,42.856,26,42.5c0-0.692-0.281-1.318-0.735-1.77c0,0-7.659-7.635-9.987-9.987c-0.321-0.326-0.81-0.895-0.926-1.029 C12.19,27.322,11,24.227,11,21c0-7.168,5.832-13,13-13s13,5.832,13,13c0,2.387-0.652,4.72-1.889,6.751 c-0.061,0.101-0.235,0.376-0.235,0.376c-0.26,0.394-0.413,0.865-0.413,1.372c0,1.381,1.119,2.5,2.5,2.5 c0.898,0,1.679-0.477,2.12-1.188c0,0,0.208-0.31,0.303-0.466C41.096,27.537,42,24.305,42,21C42,11.075,33.925,3,24,3z"/></svg>