<svg xmlns="http://www.w3.org/2000/svg"  viewBox="0 0 48 48" width="1600px" height="1600px" baseProfile="basic"><path fill="#d1c4e9" d="M42.449,9.264L26.355,22.088c-1.401,1.117-3.404,1.112-4.8-0.01L5.535,9.198	C4.909,8.721,4,9.161,4,9.941v5.603v19.732c0,2.076,1.706,3.758,3.81,3.758H40.19c2.104,0,3.81-1.683,3.81-3.758V9.995	C44,9.205,43.072,8.767,42.449,9.264z"/><path fill="#7c4dff" d="M35.429,14.858l-13.79,10.988c-1.4,1.115-3.399,1.112-4.796-0.007L4,15.545v19.732	c0,2.076,1.706,3.758,3.81,3.758h27.619V14.858z"/></svg>