<svg xmlns="http://www.w3.org/2000/svg"  viewBox="0 0 48 48" width="1600px" height="1600px"><path fill="#4caf50" d="M33.193,42H14.807C9.943,42,6,38.057,6,33.193V14.807C6,9.943,9.943,6,14.807,6h18.387	C38.057,6,42,9.943,42,14.807v18.387C42,38.057,38.057,42,33.193,42z"/><path fill="#fff" d="M29.203,33h8.578l-5.735-8.779c-0.57,1.601-1.362,3.284-2.381,4.956 c-0.462,0.759-0.95,1.473-1.451,2.148L29.203,33z"/><path fill="#fff" d="M26.573,15.845L24,11.906L10.219,33h6.154c0.086-2.727,1.258-6.316,3.41-9.846 C21.815,19.819,24.295,17.239,26.573,15.845z"/><path fill="#fff" d="M23.719,23.719l1.673,2.831c0.034-0.055,0.068-0.107,0.102-0.162 c2.355-3.863,3.321-7.569,2.158-8.278s-4.014,1.848-6.369,5.711c-2.355,3.863-3.321,7.569-2.158,8.278 c0.88,0.536,2.727-0.8,4.594-3.154V23.719z"/></svg>