<svg xmlns="http://www.w3.org/2000/svg"  viewBox="0 0 48 48" width="1600px" height="1600px"><path fill="#757575" d="M33,36c0,0-1,4-12,4S9,36,9,36v-6l12,4l12-4V36z"/><path fill="#BDBDBD" d="M33,31c0,0-1,4-12,4S9,31,9,31v-6l12,4l12-4V31z"/><path fill="#90A4AE" d="M28,26.722c0,0,1,2.333,0,4.333s-4.02,3.89-4.02,3.89c8.231-0.631,9.02-3.89,9.02-3.89v-6L28,26.722z"/><path fill="#757575" d="M33,26c0,0-1,4-12,4S9,26,9,26v-6l12,4l12-4V26z"/><path fill="#BDBDBD" d="M33,21c0,0-1,4-12,4S9,21,9,21v-6l12,4l12-4V21z"/><path fill="#90A4AE" d="M28,16.667c0,0,1,2.333,0,4.333s-4.02,3.89-4.02,3.89C32.212,24.259,33,21,33,21v-6L28,16.667z"/><path fill="#757575" d="M33,16c0,0-1,4-12,4S9,16,9,16v-5l1-1l11,4l11-4l1,1V16z"/><path fill="#BDBDBD" d="M21 7A12 4 0 1 0 21 15 12 4 0 1 0 21 7zM32 36L27 37 29 42 33 38z"/><path fill="#616161" d="M21 10A2.5 1 0 1 0 21 12A2.5 1 0 1 0 21 10Z"/><path fill="#90A4AE" d="M29.902,8.324l-11.409,6.587C19.302,14.969,20.14,15,21,15c6.627,0,12-1.791,12-4C33,9.97,31.821,9.034,29.902,8.324z"/><path fill="#BDBDBD" d="M32.332,12c-0.278,0-0.555,0-0.741,0.1c-2.592,1.004-1.666,8.33,0.278,14.652l3.425-1.706l0.741,1.606l-2.592,4.717C35.201,35.785,37.7,40,39.829,40c0.185,0,0.37,0,0.555-0.1c2.684-1.004,1.666-8.731-0.463-15.355C35.874,13.149,32.609,12.1,32.332,12z"/></svg>