<svg xmlns="http://www.w3.org/2000/svg"  viewBox="0 0 48 48" width="1600px" height="1600px"><path d="M28.677,34.464c-2.147-5.759-2.024-6.194-2.735-7.583c-0.871-1.701-2.5-2.527-3.2-2.326c0,0,2.774-2.874,0.174-8.36 c0,0-1.4-3.59-5.799-4.025c-1.076-0.106-2.162,0.052-3.201,0.349l-7.524,2.154l7.431,25.957l5.768-1.651l-2.834-9.9 c0,0,2.691-1.501,3.517,1.384s1.376,4.807,1.376,4.807s0.55,1.923,1.787,2.609l6.546-1.874 C29.981,36.005,29.026,35.401,28.677,34.464z M18.109,20.857c0.304,1.062,0,2.944-1.062,3.248l-1.585,0.454l-1.926-6.73l1.923-0.55 c1.062-0.304,1.88,0.884,2.054,1.492L18.109,20.857z"/><path d="M41.053,13.939l-0.549-1.43c-0.56-1.461-1.482-2.781-2.753-3.692c-1.556-1.115-3.94-1.993-7.254-1.044 c-6.73,1.926-6.801,1.947-6.801,1.947l7.431,25.957l5.768-1.651l-2.752-9.614l3.846-1.101c0,0,3.842-1.1,3.611-6.876 C41.565,15.579,41.359,14.739,41.053,13.939z M35.391,16.287c0.375,1.31-0.383,2.677-1.693,3.052l-0.91,0.261l-1.926-6.73 l0.91-0.261c1.31-0.375,2.677,0.383,3.052,1.694L35.391,16.287z"/></svg>