<svg xmlns="http://www.w3.org/2000/svg"  viewBox="0 0 48 48" width="1600px" height="1600px"><path fill="#42a5f5" d="M10.135,7.996C13.294,5.562,17.924,4,24.026,4C36.675,4,43,10.712,43,17.985 c0,2.145-0.533,4.566-1.444,7.047C41.05,25,18,11,10.135,7.996z"/><path fill="#6d4c41" d="M13.392,17.23c0.08,0.03,0.16,0.07,0.24,0.11c-0.761-0.32-1.542-0.59-2.353-0.8 C9.917,16.19,8.485,16,7.003,16c-0.32,0-0.631,0.01-0.941,0.02c1.522-1.74,3.325-3.22,5.357-4.36c0.431,0.67,1.142,1.75,1.993,2.9 c0.411,0.56,0.851,1.14,1.302,1.7C14.253,16.56,13.812,16.89,13.392,17.23z"/><path fill="#9ccc65" d="M7.004,26.329C5.786,23.4,5.05,20.499,5.05,17.98c0-0.63,0.05-1.26,0.15-1.88 C5.791,16.03,6.392,16,7.003,16c2.259,0,4.414,0.439,6.386,1.236C11,20,9,23,7.004,26.329z"/><path fill="#1e88e5" d="M15.685,9.85c-1.462,0.43-2.834,1.02-4.136,1.74c-0.04,0.02-0.09,0.05-0.13,0.07 c-0.01-0.01-0.02-0.03-0.03-0.06c-0.17-0.39-0.841-2.18-1.112-3.42c-0.02-0.08-0.03-0.17-0.05-0.25 c1.332-1.02,2.934-1.88,4.797-2.53C15.054,6.94,15.284,8.43,15.685,9.85z"/><path fill="#757575" d="M11.419,11.66c-2.033,1.15-3.845,2.63-5.357,4.37c-0.29,0.01-0.581,0.04-0.861,0.07 c0.471-3.1,2.143-5.99,5.027-8.17C10.468,9.24,11.31,11.461,11.419,11.66z"/><path fill="#8d6e63" d="M5.08,17.12l0.01-0.01c-0.03,0.29-0.04,0.58-0.04,0.87C5.05,17.69,5.06,17.41,5.08,17.12z"/><path fill="#aed581" d="M24.026,33c0,3.79-1.232,7.28-3.335,10.1c-0.03-0.01-0.05-0.02-0.07-0.03 c-4.997-2.52-10.695-9.71-13.619-16.74c1.212-3.63,3.455-6.78,6.389-9.1C19.62,19.76,24.026,25.87,24.026,33z"/><path fill="#8d6e63" d="M18.298,20.28c-0.05-0.04-0.1-0.08-0.14-0.12c-0.731-0.63-1.502-1.2-2.333-1.7 c-0.21-0.13-0.431-0.26-0.661-0.38c-0.25-0.15-0.511-0.28-0.781-0.4c-0.25-0.12-0.501-0.24-0.751-0.34 c-0.08-0.04-0.16-0.08-0.24-0.11c0.421-0.34,0.861-0.67,1.322-0.97C15.655,17.43,16.846,18.79,18.298,20.28z"/><path fill="#8d6e63" d="M17.988,41.36c-0.06-0.04-0.11-0.08-0.16-0.12c0.04,0.04,0.08,0.07,0.12,0.1 c0.03,0.02,0.06,0.04,0.08,0.06c0.03,0.02,0.05,0.04,0.08,0.06c0.04,0.04,0.09,0.07,0.13,0.1c0.09,0.07,0.18,0.13,0.26,0.2 c0.06,0.04,0.11,0.08,0.17,0.11C18.439,41.71,18.208,41.54,17.988,41.36z M18.749,41.93c0.13,0.1,0.26,0.18,0.391,0.27 c0.07,0.05,0.14,0.09,0.21,0.13C19.15,42.2,18.949,42.07,18.749,41.93z M13.392,17.23l-0.01,0.01c0.08,0.03,0.17,0.06,0.25,0.1 C13.552,17.3,13.472,17.26,13.392,17.23z"/><path fill="#8d6e63" d="M13.632 17.34c-.08-.04-.17-.07-.25-.1l.01-.01C13.472 17.26 13.552 17.3 13.632 17.34zM17.828 41.24c.05.04.1.08.16.12-.01 0-.03-.01-.04-.02C17.908 41.31 17.868 41.28 17.828 41.24zM17.988 41.36c.22.18.451.35.681.51-.06-.03-.11-.07-.17-.11-.08-.07-.17-.13-.26-.2-.04-.03-.09-.06-.13-.1C18.068 41.43 18.028 41.4 17.988 41.36zM18.749 41.93c.2.14.401.27.601.4-.07-.04-.14-.08-.21-.13C19.009 42.11 18.879 42.03 18.749 41.93zM22.935 39c-.561 1.48-1.312 2.86-2.243 4.1 1.162.58 2.293.9 3.335.9.13 0 .27-.01.411-.02.07 0 .14-.01.21-.02.03 0 .05 0 .08-.01 1.252-.17 2.684-.8 4.186-1.75.26-.17.531-.36.791-.55 4.676-3.48 9.513-10.24 11.846-16.62-.591-2.68-1.702-5.16-3.244-7.33-.12-.08-.23-.16-.35-.24-1.893-1.56-4.076-2.77-6.469-3.53C29.614 13.32 27.611 13 25.528 13c-2.694 0-5.267.55-7.601 1.53 2.483 3.77 7.1 8.58 7.1 16.47 0 4.39-1.843 7.58-2.073 7.96C22.945 38.97 22.935 38.99 22.935 39z"/><path fill="#8d6e63" d="M41.551,25.03c-2.333,6.38-7.17,13.14-11.846,16.62c-0.26,0.19-0.531,0.38-0.791,0.55 c-1.502,0.95-2.934,1.58-4.186,1.75c-0.03,0.01-0.05,0.01-0.08,0.01c-0.07,0.01-0.14,0.02-0.21,0.02 c-0.14,0.01-0.28,0.02-0.411,0.02c-1.041,0-2.173-0.32-3.335-0.9c0.931-1.24,1.682-2.62,2.243-4.1c0,0,0.01-0.01,0.02-0.04 c0.03-0.05,0.09-0.15,0.17-0.3c0.07-0.13,0.15-0.29,0.25-0.49c0.11-0.21,0.22-0.46,0.33-0.74c0.06-0.14,0.12-0.29,0.19-0.45 c0.06-0.16,0.12-0.33,0.18-0.5c0.2-0.56,0.391-1.2,0.551-1.9c0.04-0.17,0.07-0.35,0.11-0.54c0.18-0.92,0.29-1.94,0.29-3.04 c0-6.13-2.784-10.4-5.207-13.77c-0.681-0.97-1.342-1.86-1.893-2.7c2.333-0.98,4.907-1.53,7.601-1.53c2.083,0,4.086,0.32,5.958,0.93 c2.393,0.76,4.576,1.97,6.469,3.53c0.12,0.08,0.23,0.16,0.351,0.24c0.821,1.16,1.522,2.41,2.083,3.73 C40.89,22.58,41.28,23.78,41.551,25.03z"/><path fill="#a1887f" d="M40.389,21.43c-2.243,1.01-4.737,1.57-7.35,1.57c-5.227,0-9.934-2.22-13.218-5.77 c-0.681-0.97-1.342-1.86-1.893-2.7c2.333-0.98,4.907-1.53,7.601-1.53c2.083,0,4.086,0.32,5.958,0.93 c2.393,0.76,4.576,1.97,6.469,3.53c0.12,0.08,0.23,0.16,0.351,0.24C39.127,18.86,39.828,20.11,40.389,21.43z"/><path fill="#7f877f" d="M9.18,13.13c-1.14,0.86-2.19,1.83-3.12,2.9c-0.06,0-0.13,0-0.19,0.01 c-0.23,0.01-0.45,0.03-0.67,0.06c0.04-0.26,0.09-0.53,0.15-0.79c0.05-0.26,0.12-0.52,0.2-0.78c0.07-0.24,0.15-0.47,0.23-0.71 c0.01-0.02,0.01-0.03,0.02-0.05c0.09-0.25,0.2-0.5,0.31-0.75C6.41,13.01,6.7,13,7,13C7.74,13,8.47,13.04,9.18,13.13z"/><g><path fill="#806d59" d="M14.71,16.26c-0.46,0.31-0.9,0.63-1.33,0.98c-1.89-0.77-3.94-1.2-6.1-1.23C7.19,16,7.09,16,7,16 c-0.27,0-0.53,0.01-0.8,0.02c-0.05,0-0.09,0-0.14,0.01c0.93-1.07,1.98-2.04,3.12-2.9c0.25,0.02,0.5,0.05,0.74,0.09 c0.8,0.13,1.97,0.45,3.13,0.85C13.56,14.78,14.12,15.54,14.71,16.26z"/><path fill="#eee" d="M38.306,17.7c-0.12-0.08-0.23-0.16-0.351-0.24c-1.893-1.56-4.076-2.77-6.469-3.53 C29.614,13.32,27.611,13,25.528,13c-2.694,0-5.267,0.55-7.601,1.53c2.483,3.77,7.1,8.58,7.1,16.47c0,4.68-2.093,8-2.093,8 c0.711-1.86,1.092-3.88,1.092-6c0-0.31-0.01-0.63-0.03-0.93c-0.01-0.31-0.04-0.62-0.07-0.93c-0.06-0.52-0.14-1.03-0.24-1.53 c-0.03-0.17-0.07-0.33-0.11-0.5c-0.05-0.21-0.1-0.43-0.16-0.64c-0.07-0.26-0.15-0.51-0.23-0.77c-0.18-0.54-0.39-1.07-0.621-1.59 c-0.05-0.12-0.11-0.25-0.17-0.37c-0.971-2.05-2.343-3.88-4.016-5.38c-0.03-0.03-0.05-0.06-0.08-0.08 c-1.452-1.49-2.644-2.85-3.585-4.02c-1.382-1.7-2.654-3.61-3.295-4.6C14.403,9.97,17.848,9,21.523,9 C28.462,9,34.591,12.44,38.306,17.7z"/><path fill="#eee" d="M23.125,38.66c0.07-0.13,0.15-0.29,0.25-0.49C23.285,38.37,23.195,38.53,23.125,38.66z"/></g></svg>