<svg xmlns="http://www.w3.org/2000/svg"  viewBox="0 0 48 48" width="1600px" height="1600px" baseProfile="basic"><path fill="#d50000" d="M26.969,10c0,0,6.568,4.581,6.282,21.875c-0.62-3.679-2.622-5.876-4.195-6.784	c2.336,5.876,1.001,9.841-1.192,11.943c0.81-3.583-0.238-4.777-0.238-4.777s-0.715,5.494-7.913,8.695	c7.103,0.334,12.442-2.914,13.205-3.679c0,1.577-1.525,3.726-1.525,3.726s4.862-1.959,5.196-7.787	c1.335,1.768,2.193,4.204,2.193,7.405c2.24-5.064,0.906-10.797,0.906-10.797s5.196,2.532,7.198,10.415	C47.981,26.286,41.26,12.718,26.969,10z"/><path fill="#d50000" d="M8,41h11c0,0-0.34-3.527,2.245-5.011c0.191,0.766-0.383,2.25-0.383,2.25s2.202-2.489,2.489-5.027	c0.527,1.388,0.287,2.537,0.287,2.537s1.245-3.112,0.957-5.888c0.574,0.574,0.957,1.197,0.957,1.197	c0.527-10.149-12.16-8.282-12.064-5.122c2.202-2.25,6.69-1.197,6.654,2.346C20.096,33.069,8.989,33.117,8,41z"/><path fill="#d50000" d="M25.793,19.378c-3.399,0.862-5.697,1.149-5.697,1.149s6.032-4.883,6.75-9.383	c-3.112,4.261-6.176,6.654-7.66,7.277c2.489-4.883,2.872-8.234,2.872-8.234c-2.059,3.303-3.543,6.846-6.032,7.037	c0.957-1.771,1.101-4.117,1.101-4.117s-1.963,3.83-3.878,3.495c-1.915-0.335-3.064-1.005-3.064-1.005S5.995,21.894,0,22l2,5	c0,0,0.574,1.761,2.106,2.479c-0.957-1.867-0.383-3.734-0.383-3.734l1.34-0.096l0.67,1.245l0.527-1.436c0,0,0.67-0.096,1.676-0.718	c0.287,0.814,0.431,1.101,0.431,1.101s0-2.537,1.723-2.633c-0.718,4.979,1.723,5.505,1.388,7.947	c-0.718,0.096-1.245,0.192-1.245,0.192l1.053,1.197c0,0-0.862,1.58-4.021-0.622c2.489,3.495,5.075,2.154,5.553,1.436	s-0.383-4.691,2.011-6.606c-1.867-0.144-2.394,1.388-2.394,1.388s-0.862-3.16,1.101-4.883S20.383,23.351,25.793,19.378z M9.899,20.67L7.41,21.053l3.112-3.016L9.899,20.67z"/></svg>