<svg xmlns="http://www.w3.org/2000/svg"  viewBox="0 0 48 48" width="1600px" height="1600px"><rect width="6" height="1" x="21" y="44" fill="#757575"/><polygon fill="#616161" points="25.5,47 22.5,47 22,45 26,45"/><polygon fill="#424242" points="24,45 22,45 22.5,47 24,47"/><g><path fill="#e8e8e8" d="M42,18c0,2.25-0.527,4.5-1.384,6.671L7.438,24.807C6.55,22.594,6,20.297,6,18 c0-2.098,0.28-3.969,0.799-5.625C6.799,12.375,9,5,24,5s17.191,7.343,17.191,7.343C41.717,14.007,42,15.889,42,18z"/><path fill="#b71c1c" d="M6.801,12.375C7.663,11.073,9.504,10,12,10l1.711-5.777C11.375,4.5,7.996,8.566,6.801,12.375z"/><path fill="#b71c1c" d="M41.199,12.375C40.337,11.073,38.496,10,36,10l-1.711-5.777C36.625,4.5,40.004,8.566,41.199,12.375z"/><path fill="#1a237e" d="M35.998,23C33.033,23,14.965,23,12,23c-1.946,0-3.617,0.774-4.559,1.806C11.195,34.153,21,42,21,42 h5.998c0,0,9.805-7.847,13.559-17.194C39.614,23.774,37.944,23,35.998,23z"/><path fill="#283593" d="M28.998,21c-4.142,0-5.856,0-9.998,0c-4,0-5.5,0.75-7,2c0,0,2,8,10,19h4c8-11,9.998-19,9.998-19 C34.498,21.75,32.998,21,28.998,21z"/><path fill="#303f9f" d="M24,20c-3,0-5,1-5,1c0,13.098,4,21,4,21h2c0,0,4-7.902,4-21C29,21,27,20,24,20z"/><path fill="#d32f2f" d="M34.289,4.223c-0.612-0.802-1.979-1.631-3.634-2.001C29.697,2.009,28.778,1.954,28,2.036 l-8.016-0.002c-0.775-0.08-1.688-0.024-2.639,0.188c-1.655,0.37-3.022,1.198-3.634,2.001C13.711,4.223,12,7.5,12,10 c0,0,1.875-1.875,5.125-1.875C18.5,8.125,19,8.375,19,8.375S19.75,5.5,24,5.5s5,2.875,5,2.875s0.5-0.25,1.875-0.25 C34.125,8.125,36,10,36,10C36,7.5,34.289,4.223,34.289,4.223z"/><path fill="#e53935" d="M24,7c2.086,0,3.925,0.567,5,1.375c0-4-1-6.339-1-6.339C27.125,1.375,25.754,1,24,1 s-3.125,0.375-4.016,1.035c0,0-0.984,2.34-0.984,6.34C20.075,7.568,21.915,7,24,7z"/></g><g><path fill="#283593" d="M14.43,18.13l-0.982-1.289c0.602-0.384,0.927-0.859,0.927-1.644c0-0.493-0.263-0.989-0.669-1.265 c-0.421-0.284-0.96-0.32-1.517-0.097L11.54,14.09c-0.34,0.14-0.67,0.28-0.98,0.43l0.28,4.87c0.3-0.14,0.63-0.28,0.97-0.41 l-0.075-1.361l0.701-0.28c0.036-0.015,0.067-0.029,0.103-0.044l0.872,1.135C13.75,18.32,14.08,18.23,14.43,18.13z M11.677,16.566 l-0.078-1.418l0.962-0.385c0.244-0.096,0.442-0.098,0.585-0.003c0.149,0.102,0.229,0.3,0.229,0.437 c0,0.453-0.059,0.713-1.311,1.214L11.677,16.566z"/><path fill="#d32f2f" d="M22.67,12.02l-2.58,5.16c-0.4,0.03-0.79,0.07-1.17,0.12l2.61-5.23h0.01 C21.91,12.05,22.28,12.03,22.67,12.02z"/><path fill="#283593" d="M26.19,12.06h-0.01L25,13.75l-1.214-1.727l-1.036,2.072v2.925c0.33-0.01,0.66-0.02,1-0.02v-3.29 L25,15.5l1.25-1.79v3.35c0.34,0.01,0.67,0.04,1,0.06v-5C26.9,12.09,26.55,12.07,26.19,12.06z"/><path fill="#283593" d="M16.68,12.64c-0.34,0.06-0.67,0.13-1,0.2l0.18,4.96c0.33-0.07,0.66-0.133,1-0.193l0,0 c0.283-0.051,0.571-0.098,0.86-0.142l0.541-1.084c-0.49,0.066-0.962,0.152-1.437,0.234L16.79,15.68 c0.648-0.114,1.309-0.215,1.985-0.298v-1.007c-0.688,0.083-1.361,0.184-2.022,0.297l-0.036-1.005 c0.74-0.138,1.503-0.255,2.283-0.351v-1.024c-0.789,0.095-1.469,0.203-2.318,0.349L16.68,12.64L16.68,12.64z"/><path fill="#283593" d="M36.27,16.36l1.4-1.73c-0.29-0.14-0.6-0.29-0.93-0.43l-0.91,1.13l-0.75-1.75 c-0.4-0.13-0.81-0.25-1.24-0.37l1.28,2.99l-1.56,1.93c0.36,0.1,0.7,0.2,1.04,0.3l0.97-1.2l0.77,1.81c0.48,0.19,0.92,0.39,1.34,0.6 L36.27,16.36z"/><path fill="#283593" d="M31.77,17.73c0.39,0.07,0.76,0.15,1.13,0.24l-1.663-5.345l-0.068-0.012 c-0.33-0.06-0.652-0.111-1.02-0.168l-0.01,0.026l-1.91,4.74c0.35,0.03,0.69,0.07,1.03,0.11l0.424-1.05 c0.593,0.102,1.173,0.217,1.74,0.344L31.77,17.73z M30.067,15.323l0.543-1.343l0.475,1.536 C30.75,15.448,30.411,15.384,30.067,15.323z"/></g></svg>