<svg xmlns="http://www.w3.org/2000/svg"  viewBox="0 0 48 48" width="1600px" height="1600px" baseProfile="basic"><path fill="#11aef1" d="M10,6h28c2.209,0,4,1.791,4,4v28c0,2.209-1.791,4-4,4H10c-2.209,0-4-1.791-4-4V10	C6,7.791,7.791,6,10,6z"/><path fill="#fff" d="M15.4,20.015c0.001,0.151-0.061,0.295-0.171,0.398c-0.11,0.11-0.261,0.171-0.417,0.166 c-0.15-0.004-0.292-0.065-0.398-0.171c-0.418-0.418-1.104-0.585-1.553-0.583c-0.682,0-1.216,0.233-1.601,0.7 c-0.385,0.467-0.578,1.13-0.579,1.989v6.161c0.012,0.163-0.055,0.321-0.179,0.427c-0.109,0.092-0.246,0.143-0.388,0.145 c-0.142-0.002-0.279-0.053-0.388-0.145c-0.125-0.105-0.192-0.264-0.179-0.427v-6.161c-0.004-0.503,0.066-1.004,0.208-1.486 c0.129-0.44,0.341-0.852,0.625-1.211c0.278-0.35,0.63-0.633,1.032-0.829c0.453-0.211,0.948-0.314,1.447-0.302 c0.428,0.007,0.851,0.091,1.25,0.246c0.411,0.145,0.786,0.378,1.098,0.682C15.325,19.715,15.394,19.86,15.4,20.015L15.4,20.015z"/><path fill="#fff" d="M18.107,28.674c0.012,0.163-0.055,0.321-0.179,0.427c-0.224,0.19-0.553,0.19-0.777,0 c-0.125-0.105-0.192-0.264-0.179-0.427v-9.229c-0.012-0.163,0.055-0.321,0.179-0.427c0.224-0.19,0.553-0.19,0.777,0 c0.124,0.106,0.191,0.264,0.179,0.427V28.674z"/><path fill="#fff" d="M28.092,28.678c0.011,0.163-0.056,0.322-0.181,0.427c-0.224,0.189-0.552,0.189-0.776,0 c-0.125-0.105-0.192-0.264-0.179-0.427v-6.293c0.002-0.342-0.066-0.68-0.2-0.994c-0.26-0.614-0.749-1.103-1.363-1.363 c-0.636-0.265-1.352-0.265-1.989,0c-0.614,0.261-1.103,0.749-1.363,1.363c-0.133,0.314-0.201,0.653-0.198,0.994v6.293 c0.012,0.163-0.055,0.322-0.179,0.427c-0.224,0.19-0.553,0.19-0.777,0c-0.125-0.105-0.192-0.264-0.179-0.427v-6.293 c-0.004-0.495,0.095-0.985,0.289-1.44c0.184-0.438,0.451-0.837,0.786-1.175c0.333-0.332,0.726-0.599,1.158-0.786 c0.925-0.393,1.97-0.393,2.895,0c0.886,0.369,1.591,1.073,1.96,1.96c0.194,0.455,0.293,0.945,0.289,1.44L28.092,28.678z"/><path fill="#fff" d="M38,29.372c0.005,0.497-0.094,0.99-0.289,1.447c-0.374,0.882-1.079,1.583-1.964,1.951 c-0.455,0.194-0.945,0.293-1.44,0.289c-0.28-0.002-0.559-0.03-0.834-0.085c-0.297-0.058-0.588-0.143-0.868-0.256 c-0.281-0.112-0.548-0.258-0.795-0.434c-0.234-0.165-0.436-0.37-0.596-0.606c-0.065-0.095-0.098-0.208-0.094-0.323 c-0.004-0.156,0.062-0.305,0.179-0.407c0.11-0.104,0.255-0.162,0.407-0.162c0.081,0.001,0.161,0.017,0.236,0.048 c0.093,0.04,0.169,0.11,0.219,0.198c0.225,0.339,0.711,0.607,1.032,0.711c0.357,0.118,0.731,0.179,1.107,0.181 c0.342,0.002,0.68-0.066,0.994-0.2c0.614-0.26,1.103-0.749,1.363-1.363c0.136-0.312,0.206-0.648,0.207-0.988V28.07 c-0.335,0.32-0.728,0.574-1.158,0.748c-0.444,0.184-0.92,0.277-1.401,0.275c-0.497,0.005-0.99-0.093-1.447-0.289 c-0.878-0.373-1.578-1.073-1.951-1.951c-0.196-0.457-0.295-0.95-0.289-1.447v-2.989c-0.004-0.495,0.095-0.985,0.289-1.44 c0.184-0.439,0.451-0.837,0.786-1.175c0.333-0.332,0.726-0.599,1.158-0.786c0.925-0.393,1.97-0.393,2.895,0 c0.887,0.368,1.591,1.073,1.96,1.96c0.194,0.455,0.293,0.945,0.289,1.44v6.957L38,29.372z M36.864,22.417 c0.002-0.342-0.066-0.68-0.2-0.994c-0.26-0.614-0.749-1.103-1.363-1.363c-0.636-0.265-1.352-0.265-1.989,0 c-0.616,0.259-1.107,0.747-1.369,1.362c-0.133,0.314-0.201,0.653-0.198,0.994v2.974c-0.003,0.344,0.064,0.685,0.198,1.001 c0.129,0.304,0.316,0.581,0.55,0.815c0.234,0.234,0.51,0.42,0.815,0.549c0.636,0.265,1.352,0.265,1.989,0 c0.614-0.26,1.103-0.749,1.363-1.363c0.137-0.316,0.206-0.657,0.204-1.001L36.864,22.417z"/><circle cx="17.567" cy="16.554" r=".929" fill="#ffb74d"/></svg>