<svg xmlns="http://www.w3.org/2000/svg"  viewBox="0 0 48 48" width="1600px" height="1600px"><path fill="#6a1b9a" d="M-459.323-740.423c0-1.364-1.097-2.462-2.438-2.462h-1.209v4.902h1.209 C-460.42-737.983-459.323-739.082-459.323-740.423 M-453.822-730.651h-4.439l-3.524-4.891h-1.185v4.88h-3.912v-14.661h5.604 c3.231,0,5.868,2.197,5.868,4.9c0,1.649-1.011,3.121-2.55,4.022L-453.822-730.651" transform="translate(466.883 761.872)"/><path fill="#6a1b9a" d="M-476.708-737.12c-1.033,0-1.912,1.404-1.912,3.143s0.879,3.144,1.912,3.144 c1.057,0,1.934-1.406,1.934-3.144S-475.651-737.12-476.708-737.12 M-470.686-733.978c0,3.321-2.701,5.98-6.022,5.98 c-3.32,0-6.001-2.659-6.001-5.98c0-3.318,2.681-5.979,6.001-5.979C-473.387-739.957-470.686-737.296-470.686-733.978" transform="translate(494.18 759.449)"/><path fill="#6a1b9a" d="M-503.369-746.855l-4.507,4.506v-4.521h-3.911v11.489h3.911v-4.661l4.705,4.661 h4.923l-5.979-5.979l4.952-4.95v6.818c0,2.264,1.361,4.353,4.79,4.353c1.628,0,3.121-0.923,3.847-1.758l1.759,1.517h0.835 v-11.474h-3.911v5.978v1.451c-0.44,0.769-1.054,1.252-2.003,1.252c-0.962,0-1.404-0.57-1.404-2.395v-0.482v-5.804H-503.369z" transform="translate(536.043 766.59)"/></svg>