<svg xmlns="http://www.w3.org/2000/svg"  viewBox="0 0 48 48" width="1600px" height="1600px"><path fill="#448aff" d="M13.9,17.8c0,0-4.7-3.1-5.6-2.8l-1.9,0.8L9,19.6L13.9,17.8z"/><path fill="#82b1ff" d="M6.2,22.5c0,0-0.6-6.3,0.2-6.7c0.8-0.4,5.5,2.8,5.5,2.8L6.2,22.5z"/><path fill="#82b1ff" d="M3.2,28.9c0,0-1.8-6.2-1.1-6.8C2.8,21.5,8.5,23,8.5,23L3.2,28.9z"/><path fill="#448aff" d="M23,14.5c0,0-5.5-5.7-6.8-5.5c-2.8,0.5-2.7,0.5-2.7,0.5l2.6,6L23,14.5z"/><path fill="#82b1ff" d="M11.1,18.7c0,0,1.1-8.9,2.3-9.2s6.8,5.5,6.8,5.5l-2,2.2L11.1,18.7z"/><path fill="#448aff" d="M29.6,9.9c0,0-3.9-4-4.8-3.9c-2.1,0.4-2.1,0.4-2.1,0.4l1.7,4.3L29.6,9.9z"/><path fill="#82b1ff" d="M21.1,12.9c0,0,0.7-6.2,1.6-6.5c0.9-0.2,4.8,3.9,4.8,3.9L21.1,12.9z"/><path fill="#9ccc65" d="M36,23c4.2,3.2,8,10.7,8,16.9c0,1,0,3.1-1,3.1c-2,0-3.9-3-8-3c-5.1,0-7.8,3-9.4,3c-3.1,0-7.4-7-14.6-7	c-3.1,0-4.9,2-7,2c-1.3,0-2-2-2-4.4C1.9,30.3,4,26,4.5,25c1.9-4,4.7-8,11.8-8C20.4,17,36,23,36,23z"/><path fill="#7cb342" d="M42.8,33.2C41,34.5,39,35,37,35c-10.6,0-21-5.9-21-14.2c0-1.3,0.3-2.6,0.8-3.8c-0.2,0-0.4,0-0.5,0	c-0.6,0-1.1,0-1.7,0.1c-0.5,1.2-0.7,2.4-0.7,3.7c0,4.6,2.7,8.9,7.5,11.9c4.3,2.7,10,4.3,15.6,4.3c2.5,0,4.6-0.6,6.4-1.7	C43.2,34.6,43,33.9,42.8,33.2z"/><path fill="#9ccc65" d="M45.4,30.7C43.1,34,40.1,35,37.1,35C26.5,35,16,29.1,16,20.7C16,14.2,23.3,9,31.1,9c2.6,0,6.5,0.5,8.7,2.6	l0.3,5.7c0,0,4.9,4.4,5,4.4C46.4,25.9,46.2,29.4,45.4,30.7z"/><ellipse cx="28.5" cy="21.5" fill="#fff" rx="5.1" ry="5.9" transform="rotate(-44.976 28.5 21.5)"/><ellipse cx="30" cy="23" fill="#424242" rx="2.8" ry="3.2" transform="rotate(-45.017 30 23)"/><circle cx="31" cy="22" r="1" fill="#fff"/><path fill="#448aff" d="M32.3,12l1.7-0.4c-0.3-1.2-2.3-4.7-3.1-4.6L29,7.5"/><path fill="#82b1ff" d="M27,9.6c0,0,1.3-2.1,2.1-2.1S32,11,32.3,12C31.9,11.4,29.8,9.2,27,9.6z"/><path fill="#fff" d="M45.1,21.6c-0.1-0.4-0.2-0.8-0.3-1.2l-3.3-1.9l0.9-3.9c-0.7-1.1-1.5-2.1-2.5-3.1c-0.3,0.4-0.6,0.7-0.6,0.8	c-0.8,1.2-1.2,2.6-1.2,4c0,1.6,0.7,3.2,2,4.3c1,0.9,2.1,1.3,3.4,1.3c0.7,0,1.2-0.1,1.7-0.2C45.1,21.7,45.1,21.7,45.1,21.6z"/><path fill="#424242" d="M44.7,20.4c-0.2-0.7-0.4-1.3-0.6-1.8l-0.9-0.7l0.1-1.2c-0.3-0.8-0.7-1.4-1.1-2c-0.2,0-0.4,0-0.6,0.1	c-1.4,0.5-2.1,2.2-1.5,3.9s2.3,2.6,3.7,2.2C44.2,20.8,44.5,20.6,44.7,20.4z"/><path fill="#fff" d="M44.1,18.6c-0.2-0.7-0.5-1.3-0.7-1.8c-0.3,0.1-0.5,0.3-0.7,0.6c-0.2,0.5,0.1,1.1,0.6,1.3	C43.6,18.7,43.9,18.7,44.1,18.6z"/></svg>