<svg xmlns="http://www.w3.org/2000/svg"  viewBox="0 0 48 48" width="1600px" height="1600px"><path fill="#c62828" d="M18.25,42.5c0,0-13.75-11.25-10.5-30.375c0,0-7,8.125-3.875,17S12.5,41,18.25,42.5z"/><path fill="#c62828" d="M29.625,42.625c0,0,13.125-9.375,10.75-30.5c0,0,8.375,8.875,2.5,20.375	C42.875,32.5,39,40,29.625,42.625z"/><path fill="#c62828" d="M13,32.75c0,0,5,4,12,3.125s10-3.125,10-3.125L28,43l-8,0.125C20,43.125,16,38.5,13,32.75z"/><path fill="#c62828" d="M9,19.625c0,0,1.25,9.125,3.625,11.75c0,0,4.375,3.375,11.375,3s11.625-3.125,11.625-3.125	S34.5,26.5,25.25,26.75S12,24.25,9,19.625z"/><path fill="#c62828" d="M31,25.125c0,0,5.25,1.875,5.125,4.875c0,0,3.125-6.25,2.875-12C39,18,37,23.25,31,25.125z"/><path fill="#c62828" d="M23,4.75C12,5,8.375,11.5,8.375,11.5C8.75,24,20,24,21,24c5,0,7.75,0.625,7.75,0.625	C38.5,21.25,39.625,11.5,39.625,11.5S34,4.5,23,4.75z M24.125,21.125C17.25,21.25,15,20,13.125,17.5S13,11.875,13,11.875	s4.445-8.388,15.125-5.25c1.313,0.386,2.882,1.044,4.404,2.159c-12.487-1.621-16.151,4.048-16.653,6.493	c-0.142,0.692-0.041,1.422,0.31,2.035c3.314,5.791,13.315-0.687,13.315-0.687C24,16.25,22,18,22,18c2-4,7.625-3.5,7.625-3.5	C24.25,13,19.75,17,19.75,17s-0.75-5,5.5-6.25c4.956-0.991,8.802,0.373,10.186,0.981c0.283,0.397,0.558,0.813,0.814,1.269	C37.5,16,31,21,24.125,21.125z"/></svg>