<svg xmlns="http://www.w3.org/2000/svg"  viewBox="0 0 48 48" width="1600px" height="1600px"><rect width="22" height="44" x="13" y="2" fill="#fe0000"/><rect width="20" height="42" x="14" y="3" fill="#fff"/><rect width="48" height="13" y="24" fill="#fe0000"/><polygon fill="#ffed1e" points="36.142,33 34.622,33 33.852,28.86 31.862,33 31.752,33.22 31.652,33 29.742,28.9 28.962,33 27.442,33 28.682,26.47 30.272,26.47 31.772,29.71 33.332,26.47 34.922,26.47"/><polygon fill="#fe0000" points="35.492,33 35.282,33 34.122,26.79 31.762,31.7 29.482,26.79 28.302,33 28.102,33 29.342,26.47 29.552,26.47 31.762,31.23 34.062,26.47 34.272,26.47"/><rect width="1.5" height="4.999" x="41.971" y="28" fill="#ffed1e"/><rect width="1.5" height="6.53" x="43.998" y="26.468" fill="#ffed1e"/><circle cx="42.715" cy="26.979" r=".66" fill="#ffed1e"/><path fill="#ffed1e" d="M38.811,33.145c-0.719,0-1.385-0.275-1.888-0.776c-0.504-0.503-0.782-1.172-0.782-1.884	c0-1.417,1.144-2.485,2.66-2.485h2.669v4.999h-1.5v-0.103c-0.347,0.159-0.737,0.248-1.152,0.249	C38.816,33.145,38.813,33.145,38.811,33.145z M38.801,29.5c-0.578,0-1.16,0.305-1.16,0.985c0,0.311,0.121,0.602,0.341,0.821	c0.219,0.219,0.51,0.339,0.819,0.339c0.001,0,0.002,0,0.003,0c0.68-0.002,1.166-0.452,1.166-1.07V29.5H38.801z"/><rect width=".2" height="4.999" x="42.621" y="28" fill="#fe0000"/><rect width=".2" height="6.53" x="44.647" y="26.468" fill="#fe0000"/><rect width="1.5" height="6.53" x="23.748" y="26.468" fill="#ffed1e"/><rect width=".2" height="6.53" x="24.397" y="26.468" fill="#fe0000"/><path fill="#fe0000" d="M40.821,32.999h-0.2v-1.562c-0.319,0.636-0.99,1.055-1.804,1.058c-0.002,0-0.004,0-0.006,0	c-0.546,0-1.05-0.208-1.429-0.587c-0.381-0.38-0.591-0.885-0.591-1.423c0-1.063,0.846-1.835,2.01-1.835h2.02	C40.821,28.65,40.821,32.999,40.821,32.999z M38.801,28.85c-1.049,0-1.81,0.688-1.81,1.635c0,0.484,0.189,0.94,0.532,1.282	c0.342,0.341,0.796,0.528,1.278,0.528c0.001,0,0.003,0,0.005,0c1.039-0.003,1.814-0.742,1.814-1.72V28.85H38.801z"/><path fill="#ffed1e" d="M20.598,33.145c-0.719,0-1.386-0.275-1.888-0.776c-0.504-0.503-0.782-1.172-0.782-1.884	c0-1.466,1.193-2.66,2.66-2.66h2.67v5.174h-1.5v-0.103C21.41,33.056,21.005,33.14,20.598,33.145z M20.588,29.325	c-0.64,0-1.16,0.52-1.16,1.16c0,0.311,0.121,0.602,0.341,0.821c0.219,0.219,0.51,0.339,0.819,0.339c0.001,0,0.002,0,0.003,0	c0.68-0.002,1.167-0.452,1.167-1.07v-1.25H20.588z"/><path fill="#fe0000" d="M22.608,32.999h-0.2v-1.562c-0.319,0.636-0.99,1.056-1.804,1.058c-0.002,0-0.004,0-0.006,0	c-0.546,0-1.05-0.208-1.429-0.587c-0.381-0.38-0.591-0.885-0.591-1.423c0-1.108,0.902-2.01,2.01-2.01h2.02	C22.608,28.475,22.608,32.999,22.608,32.999z M20.588,28.675c-0.998,0-1.81,0.812-1.81,1.81c0,0.484,0.189,0.939,0.532,1.282	c0.342,0.341,0.796,0.528,1.278,0.528c0.001,0,0.003,0,0.005,0c1.039-0.003,1.815-0.742,1.815-1.72v-1.899L20.588,28.675	L20.588,28.675z"/><circle cx="42.715" cy="26.979" r=".136" fill="#fe0000"/><polygon fill="#ffed1e" points="31.862,33 31.752,33.22 31.652,33"/><path fill="#ffed1e" d="M9.943,33.135c-1.464,0-2.655-1.191-2.655-2.655s1.191-2.655,2.655-2.655s2.655,1.191,2.655,2.655	S11.407,33.135,9.943,33.135z M9.943,29.325c-0.637,0-1.155,0.518-1.155,1.155s0.518,1.155,1.155,1.155s1.155-0.518,1.155-1.155	S10.58,29.325,9.943,29.325z"/><path fill="#fe0000" d="M9.943,32.485c-1.105,0-2.005-0.9-2.005-2.005s0.9-2.005,2.005-2.005s2.005,0.9,2.005,2.005	S11.048,32.485,9.943,32.485z M9.943,28.675c-0.996,0-1.805,0.81-1.805,1.805s0.81,1.805,1.805,1.805s1.805-0.81,1.805-1.805	S10.938,28.675,9.943,28.675z"/><path fill="#ffed1e" d="M15.277,32.667c-1.291,0-2.341-1.05-2.341-2.34V28h1.5v2.327c0,0.463,0.377,0.84,0.84,0.84	c0.464,0,0.841-0.377,0.841-0.84V28h1.5v2.327C17.617,31.617,16.567,32.667,15.277,32.667z"/><path fill="#ffed1e" d="M17.612,28.57v3.92c0,1.29-1.05,2.34-2.34,2.34c-1.11,0-2.05-0.78-2.28-1.83h1.61 c0.16,0.2,0.4,0.33,0.67,0.33c0.47,0,0.84-0.37,0.84-0.84v-3.92C16.112,28.57,17.612,28.57,17.612,28.57z"/><path fill="#fe0000" d="M15.277,32.017c-0.933,0-1.691-0.758-1.691-1.69V28h0.2v2.327c0,0.821,0.668,1.49,1.49,1.49	s1.491-0.668,1.491-1.49V28h0.2v2.327C16.967,31.259,16.209,32.017,15.277,32.017z"/><path fill="#fe0000" d="M16.962,28.57v3.92c0,0.93-0.75,1.69-1.69,1.69c-0.75,0-1.39-0.5-1.61-1.18h0.22 c0.2,0.57,0.75,0.98,1.39,0.98c0.83,0,1.49-0.67,1.49-1.49v-3.92C16.762,28.57,16.962,28.57,16.962,28.57z"/><path fill="#ffed1e" d="M6.132,30.78c0.64-0.4,1.06-1.12,1.06-1.93v-0.28c0-1.25-1.02-2.28-2.28-2.28h-2.41V33h1.5v-2.59 L5.882,33h1.85L6.132,30.78z M4.002,27.79h0.91c0.43,0,0.78,0.35,0.78,0.78v0.28c0,0.43-0.35,0.78-0.78,0.78h-0.91V27.79z"/><path fill="#fe0000" d="M6.932,33h-0.25l-1.97-2.72h0.2c0.79,0,1.43-0.64,1.43-1.43v-0.28c0-0.79-0.64-1.43-1.43-1.43h-1.56 V33h-0.2v-6.06h1.76c0.9,0,1.63,0.73,1.63,1.63v0.28c0,0.84-0.63,1.53-1.44,1.62L6.932,33z"/><polygon fill="#ffed1e" points="29.475,19.826 18.548,19.832 18.545,13.588 20.886,12.807 27.13,12.803 29.472,13.582"/><circle cx="24.006" cy="8.512" r="1.171" fill="#ffed1e"/><polygon fill="#ffed1e" points="22.833,5.391 22.834,6.952 23.614,6.561 23.224,7.342 24.785,7.341 24.395,6.561 25.176,6.951 25.175,5.39 24.394,5.78 24.784,5 23.223,5 23.614,5.781"/><path fill="#b0bec5" d="M29.476,20.997l-10.927,0.006c-0.431,0-0.781-0.349-0.781-0.78l0,0c0-0.431,0.349-0.781,0.78-0.781	l10.927-0.006c0.431,0,0.781,0.349,0.781,0.78l0,0C30.256,20.647,29.907,20.997,29.476,20.997z"/><path fill="#fe0000" d="M19.328,18.661h-0.39c-0.216,0-0.39-0.175-0.39-0.39l0,0c0-0.216,0.175-0.39,0.39-0.39h0.39	c0.216,0,0.39,0.175,0.39,0.39l0,0C19.718,18.486,19.544,18.661,19.328,18.661z"/><path fill="#1e88e5" d="M21.279,18.66h-0.39c-0.216,0-0.39-0.175-0.39-0.39l0,0c0-0.216,0.175-0.39,0.39-0.39h0.39	c0.216,0,0.39,0.175,0.39,0.39l0,0C21.669,18.485,21.495,18.66,21.279,18.66z"/><path fill="#fe0000" d="M29.084,18.656h-0.39c-0.216,0-0.39-0.175-0.39-0.39l0,0c0-0.216,0.175-0.39,0.39-0.39h0.39	c0.216,0,0.39,0.175,0.39,0.39l0,0C29.474,18.481,29.3,18.656,29.084,18.656z"/><path fill="#1e88e5" d="M27.133,18.657h-0.39c-0.216,0-0.39-0.175-0.39-0.39l0,0c0-0.216,0.175-0.39,0.39-0.39h0.39	c0.216,0,0.39,0.175,0.39,0.39l0,0C27.523,18.482,27.348,18.657,27.133,18.657z"/><path fill="#3f51b5" d="M24.791,18.658l-1.951,0.001c-0.216,0-0.39-0.175-0.39-0.39l0,0c0-0.216,0.175-0.39,0.39-0.39	l1.951-0.001c0.216,0,0.39,0.175,0.39,0.39l0,0C25.182,18.483,25.007,18.658,24.791,18.658z"/><path fill="#fe0000" d="M22.838,13.586v-0.39l0.781,1.561l-1.171-0.39l0.001,1.561l1.171-0.391c0,0-0.39,1.171-1.56,1.172	c-0.39,0-0.781-0.39-0.781-0.78c0,0,0.164-0.121,0.164-0.332c0-0.297-0.09-0.328-0.09-0.328h0.265v0.273c0,0,0.472,0.019,0.472-0.27	v-0.226c0-0.215-0.176-0.39-0.39-0.39h-0.347c0,0,0.109-0.199,0.132-0.515c0.008-0.043,0.008-0.086,0.008-0.129	c0-0.386-0.59-0.905-0.598-0.917h-0.004c0,0-0.413,0.363-0.554,0.711c-0.031,0.07-0.047,0.141-0.047,0.207	c0,0.39,0.137,0.644,0.137,0.644H20.08c-0.215,0-0.39,0.172-0.39,0.39v0.226c0,0.289,0.472,0.269,0.472,0.269v-0.273h0.265	c0,0-0.09,0.031-0.09,0.328c0,0.211,0.164,0.332,0.164,0.332c0,0.39-0.39,0.781-0.78,0.781c-0.496,0-0.804,0-0.804,0l-0.082-0.835	l-0.055-0.546l-0.235-0.776l0-0.953c0-0.324,0.132-0.617,0.343-0.827c0.211-0.215,0.503-0.344,0.827-0.344	c0.293,0,0.589,0.019,0.878,0.058c0.718,0.093,1.421,0.304,2.073,0.627L22.838,13.586z"/><path fill="#fe0000" d="M25.35,13.112c0.652-0.324,1.354-0.535,2.072-0.629c0.289-0.039,0.585-0.059,0.878-0.059	c0.648,0,1.171,0.522,1.171,1.17l0.001,0.952l-0.234,0.777l-0.054,0.546l-0.082,0.835c0,0-0.308,0-0.804,0	c-0.39,0-0.781-0.39-0.781-0.78c0,0,0.164-0.121,0.164-0.332c0-0.297-0.09-0.328-0.09-0.328h0.265v0.273c0,0,0.472,0.019,0.472-0.27	v-0.226c0-0.219-0.176-0.39-0.39-0.39h-0.347c0,0,0.136-0.254,0.136-0.644c0-0.066-0.016-0.137-0.047-0.207	c-0.141-0.347-0.555-0.71-0.555-0.71h-0.004c-0.008,0.012-0.597,0.531-0.597,0.917c0,0.043,0,0.086,0.008,0.129	c0.024,0.316,0.133,0.515,0.133,0.515h-0.347c-0.215,0-0.39,0.176-0.39,0.39v0.226c0,0.289,0.472,0.269,0.472,0.269v-0.273h0.265	c0,0-0.09,0.031-0.09,0.328c0,0.211,0.164,0.332,0.164,0.332c0,0.39-0.39,0.781-0.78,0.781c-1.171,0.001-1.562-1.17-1.562-1.17	l1.171,0.39l-0.001-1.561l-1.171,0.391l0.78-1.561v0.39L25.35,13.112z"/><path fill="#fe0000" d="M22.837,13.196l0.512,1.155c-0.691-0.027-1.327-0.101-1.865-0.21	c0.008-0.043,0.008-0.086,0.008-0.129c0-0.386-0.59-0.905-0.598-0.917H20.89c0,0-0.413,0.363-0.554,0.711	c-0.394-0.179-0.621-0.386-0.621-0.608c0-0.269,0.328-0.515,0.878-0.711c0.554-0.199,1.338-0.348,2.244-0.415L22.837,13.196z"/><path fill="#fe0000" d="M28.301,13.193c0,0.222-0.226,0.429-0.62,0.609c-0.141-0.347-0.555-0.71-0.555-0.71h-0.004	c-0.008,0.012-0.597,0.531-0.597,0.917c0,0.043,0,0.086,0.008,0.129c-0.538,0.11-1.175,0.184-1.865,0.212l0.511-1.155l-0.001-1.124	c0.905,0.066,1.69,0.214,2.244,0.412C27.973,12.678,28.301,12.924,28.301,13.193z"/><path fill="#ffed1e" d="M25.179,13.194c0,0.216-0.175,0.39-0.39,0.39h-0.756h-0.805c-0.216,0-0.39-0.175-0.39-0.39	l-0.002-3.122c0-0.216,0.175-0.39,0.39-0.39l1.561-0.001c0.216,0,0.39,0.175,0.39,0.39L25.179,13.194z"/><path fill="#ffed1e" d="M19.137,17.116c-0.171,0-0.324-0.504-0.354-0.687c-0.026-0.157-0.053-0.279-0.083-0.383	c-0.198-0.708-0.42-1.251-0.798-1.775c-0.594-0.825-1.208-1.677-0.729-2.929c0.736-1.928,3.103-1.311,4.374-0.979l1.797,0.375	c0.16,0.042,0.272,0.192,0.272,0.364l0.001,1.255c0,0.208-0.161,0.376-0.359,0.376s-0.36-0.168-0.36-0.376l-0.001-0.961	l-1.525-0.304c-1.532-0.4-3.068-0.688-3.533,0.528c-0.313,0.819,0.02,1.343,0.636,2.198c0.397,0.552,0.847,1.177,1.081,2.012	c0.038,0.13,0.437,1.472,0.468,1.661c0.034,0.204-0.631-0.417-0.826-0.381C19.179,17.114,19.158,17.116,19.137,17.116z"/><path fill="#ffed1e" d="M28.706,17.112c-0.02,0-0.041-0.002-0.062-0.006c-0.195-0.035-0.69,0.586-0.656,0.381	c0.031-0.188,0.427-1.53,0.467-1.664c0.231-0.831,0.68-1.456,1.076-2.007c0.614-0.855,0.946-1.379,0.633-2.197	c-0.466-1.215-2.356-0.925-3.885-0.524L25.115,11.4l0.001,0.959c0,0.207-0.16,0.376-0.359,0.376c-0.198,0-0.359-0.168-0.359-0.375	l-0.001-1.253c0-0.172,0.112-0.323,0.271-0.364l1.435-0.376c1.269-0.332,3.989-0.951,4.726,0.973	c0.479,1.25-0.133,2.103-0.725,2.928c-0.377,0.524-0.486,1.067-0.682,1.771c-0.031,0.109-0.058,0.23-0.084,0.387	C29.308,16.607,28.877,17.111,28.706,17.112z"/><circle cx="24.009" cy="15.146" r=".39" fill="#1e88e5"/><circle cx="24.008" cy="12.805" r=".39" fill="#1e88e5"/><circle cx="24.007" cy="11.634" r=".39" fill="#1e88e5"/><circle cx="24.007" cy="10.463" r=".39" fill="#1e88e5"/><circle cx="24.004" cy="6.171" r=".39" fill="#1e88e5"/></svg>