<svg xmlns="http://www.w3.org/2000/svg"  viewBox="0 0 48 48" width="1600px" height="1600px" baseProfile="basic"><path fill="#37474f" d="M41.266,24.378c0,0-4.972,1.472-10.713,3.177c-6.767,2.009-14.602,4.34-16.622,4.961	c-3.734,1.149-3.543-1.005-2.824-1.628c-3.83,0.766-5.41-2.106-1.915-3.351c3.495-1.245,23.793-7.564,23.793-7.564L41.266,24.378z"/><path fill="#e53935" d="M33.08,11.213c0,0-19.937,4.948-29.011,8.665c-3.424,1.403-4.165,2.059-3.824,3.225	c0.489,1.672,3.166,1.19,4.637,0.509c0.383,2.25,2.872,1.149,3.638,0.957c-1.101,2.681,0.957,2.681,1.915,2.298	s27.191-8.856,27.191-8.856L33.08,11.213z"/><path fill="#fafafa" d="M42.032,23.899c0,0-4.972,1.472-10.713,3.177c-6.767,2.009-14.602,4.34-16.622,4.962	c-3.734,1.149-3.543-1.005-2.824-1.628c-3.83,0.766-5.41-2.106-1.915-3.351c3.495-1.245,23.793-7.564,23.793-7.564L42.032,23.899z"/><path fill="#1565c0" d="M44.09,23.42c2.851-0.987,5.984,2.179,2.202,3.399c-1.484,0.479-2.47,0.681-4.835,1.484	c1.388,0.91-3.638,2.537-3.638,2.537s3.16,2.154-0.91,3.543s-12.543,4.452-13.931,5.074s-1.915-0.383-1.819-0.718	c-1.053,0.335-1.676,0.574-3.016,0.862c-1.052,0.225-2.25-1.197-1.149-2.346c-2.824,0.527-6.367,1.245-4.213-1.388	c-4.117,1.149-4.452-1.963,0.718-3.638c3.456-1.12,30.638-9,30.638-9"/><path fill="#009137" d="M32.697,21.745c0,0,4.021-5.218,3.399-8.09s-2.059-4.787-5.122-4.787s-6.319,4.069-6.319,4.069	s-1.245-5.553-3.351-6.894s-2.872,0.527-1.58,1.532c0,0-3.447-0.239-4.596,0.335s-0.144,4.548,2.106,7.181	c-4.165,0.814-7.324,0.479-5.601,3.782s4.739,3.878,5.457,3.543c0.718-0.335,1.436-0.957,1.436-0.957s-2.011,3.351,1.532,4.117	c0,0,3.16,0.479,3.734-3.399s1.149-2.585,1.149-2.585s4.452,4.309-2.346,13.021c-0.862,1.101,0.622,1.293,1.484,0.335	c0.862-0.957,6.463-7.947,2.537-14.027C28.149,19.399,32.697,21.745,32.697,21.745z"/><path fill="#fd0" d="M40.404,9.426c0,0-1.532,1.915-3.383,2.745C35.17,13,33,16.319,31.979,19.319	c-0.702-1.66-0.894-3.638-2.681-3.638s-5.553,0.957-6.957,3.638c-0.447,0.766-1.404,1.787-1.404,1.787h1.532	c0,0-0.128,1.34,2.234,2.043c-0.383-2.426,0.798-3.112,1.819-3.367c1.021-0.255,2.585,2.027,3.096,3.75	c0.511,1.723-0.191,2.936-1.149,2.936c-0.957,0-2.043-2.17-1.34-4.596c-2.17,1.851-6.319,4.66-5.106,6.638s2.17,3,3.383,2.553	c1.213-0.447,2.936-1.532,2.936-1.532s-1.277,1.915-1.723,3.255c-0.447,1.34-2.17,4.723-2.17,4.723	c2.266-1.137,5.283-4.192,8.362-7.404c0,0,2.681,3.192,7.723-1.915c-2.936,1.149-5.553,1.149-6.255-1.213	c1.404-2.681,4.34-3.128,5.872-2.745c1.532,0.383-0.191,1.915-2.298,1.979c3.957,1.532,4.149,1.085,5.362-0.064	c1.213-1.149,3.176-5.793-0.766-5.936c-2.177-0.079-4.867,0.096-4.867,0.096s2.51-2.279,3.08-3.926	C41.172,14.901,41.122,10.1,40.404,9.426z"/></svg>