<svg xmlns="http://www.w3.org/2000/svg"  viewBox="0 0 48 48" width="1600px" height="1600px" baseProfile="basic"><circle cx="24" cy="24" r="20" fill="#fbc02d"/><path fill="#8e24aa" d="M24.02,44.001L24,43.999V44c-1.392,0-2.782-0.145-4.135-0.429l0.412-1.957	C21.494,41.87,22.747,42,24,42l0.164,0.014l-0.145,0.872V44.001z M26.108,43.89l-0.209-1.988c1.248-0.131,2.485-0.395,3.678-0.782	l0.619,1.902C28.871,43.452,27.495,43.744,26.108,43.89z M17.842,43.033c-1.324-0.428-2.609-0.999-3.82-1.697l0.998-1.732	c1.09,0.628,2.247,1.142,3.438,1.527L17.842,43.033z M32.149,42.269l-0.814-1.826c1.142-0.509,2.236-1.144,3.253-1.884l1.178,1.615	C34.636,40.998,33.419,41.703,32.149,42.269z M12.266,40.197c-1.13-0.82-2.176-1.76-3.108-2.793l1.484-1.34	c0.84,0.93,1.781,1.775,2.798,2.514L12.266,40.197z M37.39,38.856l-1.34-1.484c0.932-0.841,1.779-1.781,2.518-2.797l1.617,1.176	C39.364,36.879,38.424,37.924,37.39,38.856z M7.838,35.783c-0.823-1.128-1.529-2.343-2.099-3.612l1.826-0.818	c0.511,1.143,1.146,2.236,1.888,3.251L7.838,35.783z M41.325,33.997l-1.73-1.002c0.629-1.088,1.144-2.243,1.53-3.435l1.902,0.617	C42.598,31.503,42.025,32.787,41.325,33.997z M4.986,30.217C4.554,28.895,4.26,27.52,4.113,26.13l1.988-0.211	c0.133,1.25,0.396,2.487,0.785,3.677L4.986,30.217z M43.567,28.155l-1.957-0.414C41.869,26.52,42,25.261,42,24l2-0.079V24	C44,25.399,43.854,26.797,43.567,28.155z M4,24.04V24c0-1.385,0.143-2.77,0.424-4.113l1.957,0.408C6.128,21.506,6,22.752,6,24	L4,24.04z M41.894,22.044c-0.135-1.248-0.401-2.485-0.793-3.676l1.9-0.625c0.435,1.324,0.731,2.699,0.881,4.086L41.894,22.044z M6.863,18.476l-1.904-0.613c0.428-1.328,0.998-2.615,1.694-3.823l1.732,0.998C7.76,16.124,7.248,17.28,6.863,18.476z M40.419,16.614c-0.515-1.144-1.152-2.236-1.895-3.247l1.613-1.184c0.824,1.124,1.532,2.338,2.105,3.608L40.419,16.614z M9.41,13.456l-1.619-1.174c0.818-1.13,1.757-2.177,2.789-3.11l1.342,1.482C10.993,11.495,10.147,12.438,9.41,13.456z M37.334,11.908c-0.843-0.929-1.786-1.772-2.805-2.509l1.172-1.621c1.131,0.817,2.178,1.755,3.113,2.786L37.334,11.908z M13.382,9.464L12.2,7.851c1.126-0.824,2.341-1.532,3.61-2.103l0.82,1.824C15.488,8.086,14.395,8.723,13.382,9.464z M32.948,8.378	c-1.092-0.625-2.249-1.137-3.441-1.52l0.611-1.904c1.325,0.426,2.612,0.994,3.824,1.689L32.948,8.378z M18.387,6.893l-0.623-1.9	c1.325-0.435,2.7-0.729,4.087-0.877l0.211,1.988C20.815,6.236,19.579,6.502,18.387,6.893z M27.687,6.378C26.479,6.127,25.239,6,24,6	l-0.059-2H24c1.376,0,2.753,0.141,4.093,0.419L27.687,6.378z"/><path fill="#8e24aa" d="M29.014,31.077c-0.572,0.186-1.286,0.309-2.061,0.387c0.175,1.215,0.802,3.49,2.692,3.49	c1.686,0,2.36-2.36,2.36-2.36C30.703,33.136,29.384,32.74,29.014,31.077z"/><path fill="#8e24aa" d="M18.986,31.077c0.572,0.186,1.286,0.309,2.061,0.387c-0.175,1.215-0.802,3.49-2.692,3.49	c-1.686,0-2.36-2.36-2.36-2.36C17.297,33.136,18.616,32.74,18.986,31.077z"/><path fill="#8e24aa" d="M26.037,31.519c-0.458,0.031-0.926,0.048-1.389,0.056L24,35.628l-0.648-4.053	c-0.463-0.008-0.931-0.026-1.389-0.056c-0.409,2.9-2.009,4.109-2.009,4.109S20.628,36.977,24,39	c3.372-2.023,4.047-3.372,4.047-3.372S26.446,34.419,26.037,31.519z"/><path fill="#8e24aa" d="M24,9.5c-0.674,1.349-5.395,3.372-5.395,7.419c0,3.352,2.698,4.721,3.368,10.853	c0.449-0.03,0.908-0.047,1.361-0.055L24,15.57l0.666,12.146c0.453,0.008,0.912,0.026,1.361,0.055	c0.671-6.132,3.368-7.501,3.368-10.853C29.395,12.872,24.674,10.849,24,9.5z"/><ellipse cx="24" cy="29.645" fill="#8e24aa" rx="5.395" ry="1.012"/><path fill="#8e24aa" d="M33.692,19.616c-5.805,0-6.732,7.55-6.743,8.21c0.775,0.077,1.49,0.2,2.062,0.386	c0.762-3.866,5.356-3.15,5.356,0.171c2.023-0.674,3.372-2.698,3.372-4.721S35.715,19.616,33.692,19.616z M34.963,23.685	l-0.282,1.065l-0.674-0.871l-1.1,0.061l0.62-0.91l-0.398-1.027l1.057,0.309l0.854-0.696l0.033,1.101L36,23.314L34.963,23.685z"/><path fill="#8e24aa" d="M14.308,19.616c-2.023,0-4.047,2.023-4.047,4.047s1.349,4.047,3.372,4.721	c0-3.321,4.593-4.037,5.356-0.171c0.573-0.186,1.287-0.309,2.062-0.386C21.041,27.167,20.113,19.616,14.308,19.616z M13.992,23.879	l-0.674,0.871l-0.282-1.065L12,23.314l0.925-0.597l0.033-1.101l0.854,0.696l1.057-0.309l-0.398,1.027l0.62,0.91L13.992,23.879z"/></svg>