<svg xmlns="http://www.w3.org/2000/svg"  viewBox="0 0 48 48" width="1600px" height="1600px"><path fill="#3e2723" d="M7,10c0-2.209,1.791-4,4-4h28c2.209,0,4,1.791,4,4v28c0,2.209-1.791,4-4,4H11c-2.209,0-4-1.791-4-4	V10z"/><path fill="#fff" d="M35.327,15.801C36.653,12.35,31.625,9,31.625,9c1,1.231,1.335,2.222,1.447,2.805	c-0.95-0.182-1.97,0.094-2.706,0.829c-1.179,1.179-1.179,3.089,0,4.268c1.128,1.129,2.922,1.164,4.107,0.131	C34.473,17.033,35.063,16.488,35.327,15.801z"/><path fill="#fff" d="M13.24,31.978C11.809,35.429,17,39,17,39c-1.08-1.231-1.205-2.443-1.325-3.026	c1.025,0.182,2.127-0.094,2.921-0.829c1.272-1.179,1.272-3.089,0-4.268c-1.218-1.129-3.154-1.164-4.434-0.131	C14.162,30.746,13.525,31.291,13.24,31.978z"/><path fill="#fff" d="M23,6h-4c-3.638,1.722-8,5.499-8,9.897C11,25,19.731,26.794,23.577,27.941	C28.596,29.444,28.979,30.399,30,32c0.742,1.164,1.269,2.95,1.269,4.544c0,2.334-1.957,4.365-4.126,5.456H29c8-4,9-7.977,9-12	c0-6-4.096-8.203-6.731-9.381C23.722,17.246,18,18,17.731,12.456C17.514,7.997,22.702,6,23,6z"/></svg>