<svg xmlns="http://www.w3.org/2000/svg"  viewBox="0 0 48 48" width="1600px" height="1600px"><path fill="#f9a825" d="M27,2v2.387c0,3.758-5.327,7.42-10.545,13.045C14.749,19.2,13.343,20.64,13,24	c-0.997-4.102,0.606-6.472,3.024-9.129l8.713-8.832C26.388,4.243,26.47,3.631,27,2z"/><path fill="#f9a825" d="M27,6.715v2.387c0,3.758-5.327,7.42-10.545,13.045c-1.364,1.436-3.088,3.782-2.106,6.582	c-2.106-2.178-1.029-6.319,1.676-9.144l8.713-8.832C26.388,8.959,26.47,8.346,27,6.715z"/><path fill="#f9a825" d="M27,11.431v2.387c0,3.758-3.628,5.721-8.846,11.346c-1.706,1.768-3.184,5.074-0.886,6.367	c-3.016-0.335-3.207-5.074-0.79-7.731l8.258-8.33C26.388,13.674,26.47,13.061,27,11.431z"/><path fill="#f9a825" d="M31.702,26.72c2.705-2.824,3.782-6.965,1.676-9.144c0.981,2.801-0.742,5.146-2.106,6.582	C27.362,27.964,25,30.134,25,32.949v2.387c0.53-1.631,0.612-2.243,2.263-4.039L31.702,26.72z"/><path fill="#f9a825" d="M31.192,22.507c2.418-2.657,2.226-7.396-0.79-7.731c2.298,1.293,0.821,4.599-0.886,6.367	c-3.463,3.535-4.548,4.875-4.516,7.092v2.387c0.53-1.631,0.612-2.243,2.263-4.039L31.192,22.507z"/><path fill="#f9a825" d="M25.012,37.351C25.004,37.459,25,37.563,25,37.665v2.387c0.311-1.125,0.534-1.796,1.165-2.701H25.012	z"/><path fill="#f9a825" d="M34.662,22.378c-0.343,3.36-1.749,4.8-3.455,6.568c-3.239,2.902-4.836,4.909-5.59,6.405h2.288	l3.732-3.844C34.056,28.85,35.66,26.48,34.662,22.378z"/><path fill="#004d40" d="M41,35l-9.346-1.626c-0.694,0.527-2.258,1.773-3.447,3.184C25.263,40.052,25,42,25,42	c0.89-2.421,3.984-2.814,6.473-2.307L46,42L41,35z"/><path fill="#004d40" d="M20.681,37.351v-2H23V35c-0.024-2.005-2.112-2.419-5.277-1.866L7,35l-5,7l14.527-2.307	C19.016,39.186,22.11,39.579,23,42v-4.649H20.681z"/></svg>