<svg xmlns="http://www.w3.org/2000/svg"  viewBox="0 0 48 48" width="1600px" height="1600px"><path fill="#bdbdbd" d="M24 6A18 18 0 1 0 24 42A18 18 0 1 0 24 6Z"/><path fill="#cacaca" d="M24 8A10 12.5 0 1 0 24 33A10 12.5 0 1 0 24 8Z"/><path fill="#cacaca" d="M24,8c7.168,0,13,4.262,13,9.5S31.168,27,24,27s-13-4.262-13-9.5S16.832,8,24,8"/><path fill="#757575" d="M18 38c-5 0-5.784-.421-5.784-.421.498.432 1.012.846 1.554 1.221.03.02.06.04.08.06 1.28.88 2.69 1.6 4.19 2.12.68-.01 1.4-.04 2.15-.09 1.95-.14 4.14-.38 6.51-.73 2.09-.31 4.33-.71 6.68-1.18.28-.06.55-.11.83-.16.82-.58 1.59-1.21 2.31-1.91.346-.333.671-.686.987-1.046C33.289 37.257 22.153 38 18 38zM41.89 22.03c0-.04-.01-.07-.01-.11C41.44 22 34 24 22 24c-7 0-8.095-3.922-8.095-3.922.06-.429.211-.905.44-1.412L14.34 18.67c.07-.15.15-.31.23-.46l.51-.868-.52-3.012C13.42 14.78 11 17 9 21s-2 8.908-2 8.908c.439 1.242.998 2.43 1.68 3.522C8.86 32.96 9 32.62 9 32.62l.69.25c.57.14 1.16.28 1.78.4.11.02.21.04.32.05 1.72.32 3.62.53 5.65.62 1.85.08 3.87.09 6.28-.09 1.97-.15 4.17-.41 6.53-.77 2.09-.33 4.34-.73 6.69-1.21.14-.03.28-.06.42-.08.41-.09 1.73-.37 3.18-.69.21-.48.4-.98.56-1.49.07-.21.14-.43.19-.65.03-.1.06-.2.08-.31C40.51 28.82 31 31 20 31c-8 0-9-2-9-2 0-.88.12-2.75 1-3.4 0 0 1.76.53 2.95.74 1.82.33 3.84.55 6 .62 1.86.07 3.94.04 6.32-.16 2.01-.18 4.22-.46 6.58-.86 1.91-.32 3.94-.72 6.05-1.18.24-.05.47-.1.71-.15.46-.1.91-.21 1.34-.31.02 0 .03-.01.05-.01V24C42 23.34 41.97 22.68 41.89 22.03zM24 11c-3.875.625-5.954 1.581-6.1 1.627.672.004 1.257.106 1.729.231C20.675 12.172 22.25 11.5 24 11z"/><g><path fill="#ffa000" d="M33.48,13h-6.105c-0.287,0-0.56,0.123-0.75,0.338c-0.088,0.1-0.149,0.218-0.192,0.342 C25.9,13.261,25.234,13,24.5,13h-3.125c-0.251,0-0.474,0.101-0.65,0.254c-0.195-0.094-0.575-0.259-1.096-0.397 c-0.388,0.255-0.766,0.522-1.128,0.806c0,0-1.501,1.086-2.827,2.845c-0.445,0.577-0.817,1.151-1.107,1.702l-0.222,0.455 c-0.229,0.507-0.38,0.984-0.44,1.412l0.544,0.359c0.058,0.038,1.443,0.938,3.41,0.938c1.092,0,2.003-0.351,2.624-0.943 C20.645,20.766,20.98,21,21.375,21h2.25c0.552,0,1-0.448,1-1v-0.839c0.904-0.035,1.702-0.459,2.25-1.097l0.258,2.061 c0.063,0.5,0.488,0.876,0.992,0.876h7.625c0.955,0,1.846-0.364,2.444-0.998c0.407-0.432,0.877-1.205,0.805-2.436 C38.833,14.75,36.718,13,33.48,13z"/><path fill="#fff" d="M24.5 14c-.124 0-.485 0-.875 0h-1.25-1v6h2.25v-1.837c.402 0 .773 0 .875 0 1.174 0 2.125-.932 2.125-2.082C26.625 14.932 25.674 14 24.5 14zM24.125 16.605c-.056 0-.297 0-.5 0v-.98c.165 0 .363 0 .5 0 .276 0 .5.219.5.49C24.625 16.385 24.401 16.605 24.125 16.605zM33.48 14h-1.355l1.355 6c0 0 1.459 0 2.27 0 1 0 2.355-.591 2.25-2.375C37.875 15.5 36.377 14 33.48 14zM34.829 18.004l-.623-2.252c0 0 1.577-.095 1.882 1.136.165.665-.213 1.116-.838 1.116C34.982 18.004 34.829 18.004 34.829 18.004z"/><path fill="#f57c00" d="M17.9,12.627c-0.023,0.007-3.37-0.156-3.58,2.869c-0.046,0.658,0.253,1.331,0.76,1.846l-0.008,0.014 c0.183-0.28,0.383-0.563,0.602-0.847c0.433-0.691,2.198-2.389,2.827-2.845c0.361-0.284,0.739-0.552,1.128-0.806 C19.156,12.732,18.572,12.631,17.9,12.627z"/><path fill="#fff" d="M18.888,16.404c-0.371-0.174-0.614-0.274-0.752-0.369c-0.138-0.095-0.18-0.211-0.124-0.36 c0.085-0.229,0.435-0.128,0.458-0.123c0.071,0.017,0.365,0.103,0.45,0.129c0.169,0.052,0.353,0.111,0.457,0.144 c0.052,0.017,0.084,0.027,0.084,0.027l0.589-1.066l0.326-0.589c0,0-0.257-0.143-0.7-0.286c-0.308-0.099-0.71-0.196-1.173-0.247 c-0.203-0.023-0.415-0.039-0.642-0.039c-1.001,0-1.742,0.277-2.158,0.769c-0.249,0.295-0.381,0.667-0.381,1.102 c0,0.397,0.143,0.729,0.354,1.012c0.021,0.028,0.036,0.059,0.057,0.085c0.164,0.199,0.364,0.37,0.575,0.515 c0.317,0.217,0.658,0.376,0.939,0.485c0.313,0.121,0.509,0.195,0.643,0.271c0.14,0.079,0.172,0.208,0.131,0.362 c-0.014,0.054-0.141,0.201-0.332,0.17c-0.142-0.023-0.344-0.068-0.391-0.079c-0.143-0.035-0.298-0.084-0.467-0.149 c-0.522-0.203-0.915-0.441-0.915-0.441L15,19.603c0,0,1.17,0.772,2.859,0.772c1.372,0,2.516-0.675,2.516-2.025 C20.375,17.225,19.851,16.855,18.888,16.404z"/><path fill="#bdbdbd" d="M18.501,13.664c-0.203-0.023-0.415-0.039-0.642-0.039c-1.001,0-1.742,0.277-2.158,0.769 c-0.249,0.295-0.381,0.667-0.381,1.102c0,0.397,0.143,0.729,0.354,1.012C16.524,15.4,17.512,14.435,18.501,13.664z"/><path fill="#fff" d="M32.031 18.125L29.71 18.125 29.62 17.628 31.924 17.649 31.551 16 29.328 16 29.238 15.5 31.438 15.5 31.1 14 27.375 14 28.125 20 32.454 20z"/></g><g><path fill="#e0e0e0" d="M14.38,20.37c-0.45-0.37-0.75-0.75-0.94-1.1C13.11,18.73,13.03,18.26,13,18 c-0.25-2.25,5.12-5.88,11-7c-8.38,0.5-17.25,5-17.25,8c0,0.88,0.375,1.5,1.18,2.21C4.98,22.57,3,24.14,3,25.5 c0,0.93,0.52,1.92,1.61,2.86C1.84,29.68,0,31.19,0,32.5c0,2.057,2.568,4.484,8.396,5.707c1.623,0.341,3.501,0.585,5.648,0.704 l1.09-2.181c-2.412-0.298-4.104-0.817-5.295-1.409C7.38,34.099,7.063,32.562,7,32c-0.06-0.55,0.22-1.19,0.76-1.85 c1.137,0.455,2.505,0.845,4.089,1.152c1.642,0.318,3.531,0.541,5.681,0.638l1.077-2.155c-2.393-0.258-4.117-0.726-5.362-1.277 c-0.804-0.356-1.412-0.746-1.866-1.138c-0.45-0.37-0.75-0.75-0.94-1.1C10.11,25.73,10.03,25.26,10,25 c-0.06-0.58,0.24-1.24,0.83-1.93c1.198,0.523,2.692,0.967,4.485,1.3c1.637,0.304,3.521,0.517,5.703,0.595l1.067-2.135 c-2.377-0.221-4.132-0.64-5.425-1.151C15.647,21.279,14.908,20.826,14.38,20.37z"/><path fill="#b1b1b1" d="M28.02 22.961C27.321 22.985 26.644 23 26 23c-1.468 0-2.76-.063-3.915-.17l-1.067 2.135C21.655 24.987 22.314 25 23 25c1.311 0 2.691-.072 4.097-.194 2.124-.184 4.308-.484 6.419-.839l.716-1.431C32.118 22.734 29.981 22.891 28.02 22.961zM24.511 29.978C23.988 29.992 23.483 30 23 30c-1.671 0-3.124-.079-4.392-.216l-1.077 2.155C18.322 31.975 19.137 32 20 32c1.136 0 2.338-.054 3.574-.148 2.073-.156 4.244-.426 6.377-.753l.748-1.496C28.546 29.786 26.413 29.926 24.511 29.978zM21.006 36.989C20.662 36.995 20.325 37 20 37c-1.882 0-3.49-.099-4.866-.269l-1.09 2.181C14.984 38.964 15.956 39 17 39c.977 0 2.002-.04 3.055-.111 2.055-.137 4.217-.392 6.355-.71l.766-1.533C25.009 36.824 22.881 36.953 21.006 36.989z"/><path fill="#9e9e9e" d="M33.486 36.029c-2.001.223-4.173.443-6.309.618L26.41 38.18c2.28-.339 4.528-.747 6.579-1.158C37.809 36.057 42.537 35.084 43 35 42.523 35.03 37.927 35.534 33.486 36.029zM40.582 21.836c-1.929.24-4.125.492-6.35.7l-.716 1.431c2.381-.4 4.664-.868 6.657-1.314C43.892 21.823 47.596 21.073 48 21 47.585 21.026 44.003 21.411 40.582 21.836zM37.015 28.969c-1.984.225-4.159.451-6.317.634l-.748 1.496c2.302-.354 4.557-.774 6.595-1.189C41.093 28.982 45.555 28.081 46 28 45.542 28.029 41.209 28.494 37.015 28.969z"/></g></svg>