<svg xmlns="http://www.w3.org/2000/svg"  viewBox="0 0 48 48" width="1600px" height="1600px"><polygon fill="#3949ab" points="12,27 24,39 35.5,27.5 24,5"/><polygon fill="#ffa000" points="3,25 7,21 24,38 41,21 45,25 24,46"/><path fill="#ffc107" d="M7,36l3-2c0,0,4.327-8.836,6-12c0.661-1.25,2-5,4-5l5-9l-4-1L7,36z"/><path fill="#ffc107" d="M41,36l-3-2c0,0-4.327-8.836-6-12c-0.661-1.25-2-5-4-5l-5-9l4-1L41,36z"/><circle cx="24" cy="6" r="4" fill="#ffd740"/><circle cx="24" cy="6" r="2" fill="#ffa000"/><path fill="#ffd740" d="M29.511,30.047c-0.501,0.6-1.209,1.065-2.125,1.396c-0.916,0.33-1.93,0.496-3.043,0.496 c-1.169,0-2.194-0.255-3.076-0.766c-0.881-0.51-1.562-1.251-2.041-2.222c-0.479-0.971-0.725-2.112-0.737-3.423V24.61 c0-1.349,0.228-2.516,0.682-3.502c0.455-0.986,1.11-1.741,1.967-2.264c0.857-0.522,1.86-0.784,3.011-0.784 c1.602,0,2.854,0.382,3.757,1.146c0.903,0.765,1.438,1.876,1.605,3.335h-2.709c-0.124-0.772-0.397-1.339-0.821-1.697 c-0.423-0.358-1.006-0.538-1.749-0.538c-0.946,0-1.667,0.355-2.162,1.067c-0.495,0.711-0.746,1.769-0.751,3.172v0.863 c0,1.416,0.269,2.486,0.807,3.21s1.327,1.085,2.366,1.085c1.045,0,1.791-0.223,2.236-0.668v-2.328h-2.533v-2.051h5.316V30.047z"/><polygon fill="#9e6400" points="5.757,27.757 7.171,29.171 8.69,27.724 7.31,26.276"/><polygon fill="#9e6400" points="11.757,33.757 13.171,35.171 14.69,33.724 13.31,32.276"/><polygon fill="#9e6400" points="15.757,37.757 17.171,39.171 18.69,37.724 17.31,36.276"/><polygon fill="#9e6400" points="19.757,41.757 21.171,43.171 22.69,41.724 21.31,40.276"/><polygon fill="#9e6400" points="26.626,40.276 25.246,41.724 26.797,43.203 28.212,41.788"/><polygon fill="#9e6400" points="30.626,36.276 29.246,37.724 30.797,39.203 32.212,37.788"/><polygon fill="#9e6400" points="34.626,32.276 33.246,33.724 34.797,35.203 36.212,33.788"/><polygon fill="#9e6400" points="40.626,26.276 39.246,27.724 40.797,29.203 42.212,27.788"/></svg>