<svg xmlns="http://www.w3.org/2000/svg"  viewBox="0 0 48 48" width="1600px" height="1600px"><path fill="#311b92" d="M34,42H14c-4.418,0-8-3.582-8-8V14c0-4.418,3.582-8,8-8h20c4.418,0,8,3.582,8,8v20	C42,38.418,38.418,42,34,42z"/><path fill="#6a1b9a" d="M42,34v-9h-1c-6.659,0-12.459,3.625-15.572,9H42z"/><path fill="#b45380" d="M42,33v-6h-1c-6.659,0-12.459,3.625-15.572,9L42,33z"/><path fill="#4527a0" d="M6.5,19c-0.169,0-0.332,0.021-0.5,0.025V34c0,4.418,3.582,8,8,8h11.669	C25.876,40.863,26,39.697,26,38.5C26,27.73,17.27,19,6.5,19z"/><path fill="#ff8a65" d="M42,32v-4h-1c-6.659,0-12.459,3.625-15.572,9L42,32z"/><path fill="#ffccbc" d="M42,33v-4h-1c-6.659,0-12.459,3.625-15.572,9L42,33z"/><path fill="#424242" d="M42,32.034C41.34,32.013,40.674,32,40,32c-12.703,0-23,3.806-23,8.5c0,0.512,0.13,1.013,0.364,1.5H34	c4.418,0,8-3.582,8-8V32.034z"/><path fill="#212121" d="M14,42h20c4.146,0,7.555-3.154,7.959-7.193C27.362,43.313,16.924,24.63,6,29.881V34	C6,38.418,9.582,42,14,42z"/><circle cx="13.5" cy="10.5" r=".5" fill="#cfd8dc"/><circle cx="16.5" cy="12.5" r=".5" fill="#cfd8dc"/><circle cx="15.5" cy="19.5" r=".5" fill="#cfd8dc"/><circle cx="18.5" cy="19.5" r=".5" fill="#cfd8dc"/><circle cx="16.5" cy="17.5" r=".5" fill="#cfd8dc"/><circle cx="13.5" cy="20.5" r=".5" fill="#cfd8dc"/><circle cx="10" cy="13" r="1" fill="#cfd8dc"/><circle cx="15.5" cy="26.5" r=".5" fill="#cfd8dc"/><circle cx="21.5" cy="23.5" r=".5" fill="#cfd8dc"/><circle cx="30" cy="16" r="8" fill="#283593"/><path fill="#cfd8dc" d="M35.891,10.601C35.955,11.059,36,11.524,36,12c0,5.523-4.477,10-10,10	c-0.476,0-0.941-0.045-1.399-0.109C26.024,23.196,27.916,24,30,24c4.418,0,8-3.582,8-8C38,13.916,37.196,12.024,35.891,10.601z"/></svg>