<svg xmlns="http://www.w3.org/2000/svg"  viewBox="0 0 48 48" width="1600px" height="1600px"><path fill="#31c3a2" d="M16,42h16c5.523,0,10-4.477,10-10V16c0-5.523-4.477-10-10-10H16C10.477,6,6,10.477,6,16v16	C6,37.523,10.477,42,16,42z"/><path fill="#fff" d="M33,27h-6.465c-0.334,0-0.647-0.167-0.832-0.445L24,24l-1.703,2.555	C22.111,26.833,21.799,27,21.465,27H15c-1.105,0-2-0.895-2-2v-7h22v7C35,26.105,34.105,27,33,27z"/><path fill="#37474f" d="M20,21.5v2c0,0.83-0.67,1.5-1.5,1.5S17,24.33,17,23.5V22c0.55,0,1-0.45,1-1	c0-0.29-0.13-0.56-0.33-0.74C17.91,20.09,18.19,20,18.5,20C19.33,20,20,20.67,20,21.5z"/><path fill="#37474f" d="M31,21.5v2c0,0.83-0.67,1.5-1.5,1.5S28,24.33,28,23.5V22c0.55,0,1-0.45,1-1	c0-0.29-0.13-0.56-0.33-0.74C28.91,20.09,29.19,20,29.5,20C30.33,20,31,20.67,31,21.5z"/><path fill="#37474f" d="M36,17v-0.5c0-3.033-2.468-5.5-5.5-5.5h-13c-3.033,0-5.5,2.467-5.5,5.5V17c-1.657,0-3,1.343-3,3v5	c0,1.657,1.343,3,3,3h1v2c0,1.654,1.346,3,3,3h2v3c0,0.404,0.244,0.77,0.617,0.924C18.741,36.976,18.871,37,19,37	c0.26,0,0.516-0.102,0.707-0.293L23.414,33H32c1.654,0,3-1.346,3-3v-2h1c1.657,0,3-1.343,3-3v-5C39,18.343,37.657,17,36,17z M14,25	v-6h20v6c0,0.552-0.448,1-1,1h-6.465l-1.703-2.555C24.646,23.167,24.334,23,24,23s-0.646,0.167-0.832,0.445L21.465,26H15	C14.449,26,14,25.552,14,25z M17.5,14h13c1.379,0,2.5,1.122,2.5,2.5V17H15v-0.5C15,15.122,16.122,14,17.5,14z M33,30	c0,0.552-0.448,1-1,1h-9c-0.265,0-0.52,0.105-0.707,0.293L20,33.586V32c0-0.553-0.448-1-1-1h-3c-0.551,0-1-0.448-1-1v-2h6.465	c0.669,0,1.291-0.333,1.664-0.891L24,25.803l0.87,1.305C25.24,27.666,25.863,28,26.535,28H33V30z"/></svg>