<svg xmlns="http://www.w3.org/2000/svg"  viewBox="0 0 48 48" width="1600px" height="1600px"><path fill="#ab2929" d="M24,17.305l6.084,1.499l1.248,11.151L24,34.651l-7.332-4.696l1.248-11.151L24,17.305 M24,16.275 L17,18l-1.395,12.461L24,35.839l8.395-5.377L31,18L24,16.275L24,16.275z"/><path fill="#212121" d="M22.07,24.887c0,0,0.255-0.221,0.329-0.208s0.298,0.098,0.332,0.355s-0.224,0.54-0.635,0.579	c0,0,0.203-0.147,0.177-0.373C22.248,25.013,21.981,24.96,22.07,24.887z"/><path fill="#212121" d="M21.847,25.195l0.155-0.177l0.084,0.056v0.228C22.086,25.302,21.906,25.361,21.847,25.195z"/><polygon fill="#212121" points="21.782,25.343 21.782,25.512 21.889,25.419"/><path fill="#212121" d="M21.099,27.926c0,0-0.269,0.257-0.386,0.48c-0.117,0.222-0.137,0.523-0.129,0.73	c0,0,0.542-0.468,0.733-0.667c0.191-0.199,0.533-0.663,0.48-0.741c-0.074-0.11-0.32,0.059-0.476,0.32	c-0.04,0.066-0.233,0.448-0.349,0.434c-0.054-0.007-0.064-0.102-0.006-0.246C21.024,28.09,21.099,27.926,21.099,27.926z"/><path fill="#212121" d="M20.858,27.372c-0.038,0.05,0.029,0.073,0.038,0.149c0.014,0.116-0.026,0.31-0.026,0.31	s0.138-0.169,0.143-0.295C21.02,27.372,20.904,27.312,20.858,27.372z"/><path fill="#212121" d="M21.192,27.331c-0.035,0.012-0.039,0.057-0.041,0.141c-0.002,0.084,0,0.159,0,0.159	s0.084-0.121,0.098-0.176C21.267,27.384,21.24,27.314,21.192,27.331z"/><path fill="#212121" d="M29.626,19.206L24,17.82l-5.626,1.386L17.2,29.701l6.8,4.356l1.976-1.266	c0.036-0.279,0.056-0.703-0.03-1.287c-0.106-0.719-0.835-1.863-0.771-1.462c0.077,0.485-0.149,0.744-0.149,0.744	s-0.874-1.526-1.339-1.588c-0.221-0.029-0.315,0.136-0.361,0.137c-0.046,0.002-0.221-0.173-0.605-0.167	c-0.687,0.011-2.05,0.912-2.298,1.071c-0.248,0.159-0.298,0.327-0.486,0.288c-0.189-0.04-0.238-0.109-0.258-0.536	c-0.02-0.427,0.387-1.627,0.407-1.905s-0.015-0.371-0.015-0.371c-0.349-0.02-0.666-0.073-0.949,0.244	c-0.297,0.332-0.283,0.752-0.283,0.752c-0.494-0.125-1.007-0.594-1.005-1.35c0.004-1.023,0.854-1.546,1.217-1.794	s0.523-0.454,0.53-0.49c0.006-0.036-0.109-0.369-0.109-0.369l0.214,0.062c0,0,0.156-0.7,0.359-0.93	c0.203-0.23,0.392-0.294,0.592-0.378c0.2-0.085,0.372-0.352,0.776-0.551c0.301-0.149,0.412-0.079,0.412-0.079	c-0.041,0.081-0.065,0.131-0.065,0.131s1.355-0.711,1.759-0.875s0.759-0.173,0.759-0.173C24.18,22.004,24.19,22.1,24.19,22.1	s0.538-0.25,1.211-0.404c0.673-0.154,1.365,0.067,1.365,0.067c-0.144,0.048-0.231,0.192-0.231,0.192	c0.298-0.115,1.38,0.333,2.23,0.365c0.516,0.02,1.045,0.052,1.216,0.063L29.626,19.206z M19.695,20.524l-0.318-0.161l-0.252,0.252	l0.055-0.352l-0.318-0.161l0.352-0.056l0.055-0.352l0.162,0.317l0.352-0.056l-0.252,0.252L19.695,20.524z M21.513,19.764	l0.255,0.499l-0.499-0.254l-0.395,0.396l0.087-0.553l-0.499-0.254l0.553-0.088l0.087-0.553l0.255,0.499l0.553-0.088L21.513,19.764z M24.762,20.339c-0.008,0.042,0.08,0.306,0.08,0.306s-0.688-0.125-0.737-0.077c-0.057,0.055,0.037,0.654,0.037,0.654h-0.112h-0.058	h-0.112c0,0,0.095-0.598,0.037-0.654c-0.049-0.048-0.737,0.077-0.737,0.077s0.088-0.264,0.08-0.306	c-0.014-0.067-0.762-0.618-0.762-0.618s0.186-0.075,0.2-0.118c0.019-0.058-0.118-0.547-0.118-0.547s0.376,0.117,0.435,0.106	c0.056-0.011,0.129-0.224,0.129-0.224s0.371,0.471,0.424,0.429c0.053-0.041-0.147-0.929-0.147-0.929s0.262,0.179,0.3,0.165	C23.754,18.584,24,18,24,18s0.246,0.584,0.3,0.604c0.038,0.014,0.3-0.165,0.3-0.165s-0.2,0.888-0.147,0.929	c0.053,0.041,0.424-0.429,0.424-0.429s0.073,0.213,0.129,0.224c0.059,0.011,0.435-0.106,0.435-0.106s-0.136,0.489-0.118,0.547	c0.014,0.042,0.2,0.118,0.2,0.118S24.775,20.272,24.762,20.339z M27.149,20.405l-0.395-0.396l-0.499,0.254l0.255-0.499l-0.395-0.396	l0.553,0.088l0.255-0.499l0.087,0.553l0.553,0.088l-0.499,0.254L27.149,20.405z M28.898,20.615l-0.252-0.252l-0.318,0.161	l0.162-0.317l-0.252-0.252l0.352,0.056l0.162-0.317l0.055,0.352l0.352,0.056l-0.318,0.161L28.898,20.615z"/><path fill="#212121" d="M27.679,26.596c1.609,0.842,2.611,2.819,2.832,3.29l0.289-0.185l-0.56-5.001	c-0.466-0.179-1.924-0.706-3.818-1.045c0,0-0.149-0.092,0.791-0.195c0,0-1.594-0.349-3.276-0.056c0,0,1.469-0.844,4.61-0.047	c0,0-0.407,0.135-0.624,0.211c0,0,1.432-0.097,2.216,0.232l-0.098-0.874c-0.357-0.096-1.332-0.346-1.997-0.403	c-0.825-0.07-2.446-0.101-2.446-0.101s0.35-0.297,0.419-0.455c0,0-0.406-0.051-0.794,0.062c-0.51,0.148-0.876,0.397-1.452,0.513	c0,0-0.014-0.075,0-0.212c0,0-0.69,0.277-1.164,0.563s-1.038,0.613-1.038,0.613s-0.028-0.028,0.077-0.181	c0,0-0.279,0.056-0.453,0.153c-0.174,0.098-0.16,0.146-0.244,0.188c-0.084,0.042-0.272,0.091-0.404,0.23	c-0.132,0.139-0.39,0.606-0.508,0.996c0,0,0.056-0.014,0.216,0c0.16,0.014,0.404,0.098,0.404,0.098s0.16-0.306,0.265-0.39	c0.104-0.084,0.272-0.216,0.334-0.195c0.063,0.021-0.154,0.205-0.237,0.529c-0.104,0.408-0.023,0.556,0.12,0.608	c0.107,0.039,0.295-0.04,0.397-0.106c0.102-0.066,0.575-1.081,1.151-1.242c0,0-0.069,0.178-0.12,0.215c0,0,0.32-0.063,0.397-0.087	c0.248-0.079,0.304-0.198,0.448-0.2c0.37-0.006,0.526,0,0.526,0s-0.488,0.281-0.676,0.504c-0.188,0.224-0.294,0.495-0.23,0.559	s0.194-0.141,0.23-0.112c0.035,0.029-0.1,0.294-0.165,0.371c0,0,0.2-0.147,0.224-0.118s-0.035,0.353-0.518,0.4	s-0.818,0.082-0.883-0.029c0,0-0.121,0.022-0.189,0.003c-0.068-0.018-0.086-0.105-0.086-0.105s-0.176,0.12-0.324,0.176	c0,0,0.185,0.074,0.333,0.062c0,0,0.097,0.068,0.114,0.148c0,0-0.128,0.038-0.23,0.047c0,0,0.108,0.048,0.303,0.027	c0.163-0.018,0.556,0.016,0.576-0.079c0,0,0.147-0.018,0.24-0.049c0.133-0.045,0.159-0.111,0.201-0.078s-0.086,0.21-0.086,0.21	s0.956-0.371,1.356-0.321c0,0-0.437,0.318-0.731,0.45c0,0,0.343-0.044,0.375,0s-0.225,0.212-0.225,0.212s1.035-0.051,1.923,0.384	c0.889,0.435,1.314,0.955,1.314,0.955s-0.973-0.481-1.531-0.662c-0.556-0.18-1.588-0.405-1.665,0.041	c-0.086,0.5,0.564,0.672,0.98,0.823s0.874,0.45,1.044,0.752c0,0-1.248-0.756-2.335-0.596c0,0,1.51,0.401,2.3,1.061	c0.773,0.646,1.415,1.141,1.674,2.815l2.123-1.36c-0.054-0.438-0.251-1.727-0.787-2.545c-0.651-0.994-2.074-2.244-3.959-2.013	C24.628,26.057,25.845,25.636,27.679,26.596z M22.294,23.425c0,0,0.165-0.269,0.486-0.453c0.341-0.195,0.81-0.224,0.81-0.224	L22.294,23.425z"/><path fill="#212121" d="M22.508,28.561c0.003,0.125-0.789,0.492-0.805,0.418s0.423-0.437,0.494-0.518s0.14-0.098,0.289-0.256	c0.137-0.145,0.236-0.307,0.166-0.351c-0.061-0.037-0.171,0.085-0.313,0.232c-0.142,0.147-0.18,0.256-0.237,0.322	c-0.057,0.066-0.521,0.583-0.569,0.498s0.537-0.655,0.537-0.655l0.03-0.239c0.179-0.144,0.661-0.512,0.641-0.935	c-0.02-0.423-0.641-0.477-0.641-0.477c0.587-0.224,0.895,0.353,0.895,0.353v-0.418c0,0-0.383-0.357-0.716-0.378	c-0.3-0.019-0.374,0.085-0.577,0.068c-0.203-0.017-0.512-0.276-0.681-0.445c-0.169-0.169-0.187-0.371-0.236-0.456	c-0.075-0.129-0.662-0.18-0.844-0.107c-0.079,0.032-0.186,0.288-0.878,0.719c-0.647,0.403-0.76,0.549-0.935,0.916	c-0.101,0.212-0.155,0.567-0.047,0.881c0.151,0.435,0.566,0.714,0.566,0.714c-0.029-0.531,0.233-0.824,0.717-0.99	c0.382-0.131,0.749-0.023,1.125-0.105c0.333-0.072,0.413-0.202,0.915-0.342s0.82-0.099,0.9,0.281c0.079,0.38-2.161,2.53-2.161,2.53	s-0.034-0.172,0.04-0.504c0.047-0.209,0.115-0.288,0.115-0.288c0.023,0.257,0.118,0.318,0.118,0.318	c-0.06-0.044-0.031-0.368-0.031-0.368c0.061-0.224,0.101-0.358,0.22-0.716c0.119-0.358,0.023-0.73-0.161-0.689	c-0.184,0.041-0.025,0.355-0.051,0.757c-0.022,0.34-0.151,0.5-0.275,0.854c-0.124,0.353-0.119,1.014-0.119,1.014l1.63-1.225	c0,0-0.104,0.125,0.001,0.16c0.105,0.035,0.749-0.335,1.481-0.35c0.867-0.018,1.621,0.7,1.621,0.7	C24,28.247,22.508,28.561,22.508,28.561z M18.488,28.162c-0.528-0.434-0.126-1.342-0.126-1.342c-0.053,0.344-0.04,0.877,0.011,0.798	s0.26-0.158,0.26-0.158C18.409,27.823,18.488,28.162,18.488,28.162z M20.051,26.056c0,0-0.553-0.213-0.544-0.251	c0.009-0.037,0.484-0.455,0.484-0.455c0.034-0.03,0.579,0.035,0.579,0.035s-0.344,0.065-0.409,0.084	c-0.047,0.013-0.288,0.256-0.288,0.297C19.872,25.805,20.051,26.056,20.051,26.056z M20.213,25.939v-0.173h0.337l0.286,0.383	L20.213,25.939z"/><path fill="#ab2929" d="M15.813,21.861H4c0,0,2.602,2.262,5.251,2.262h6.309L15.813,21.861z"/><path fill="#ab2929" d="M32.187,21.861l0.253,2.262h6.309c2.649,0,5.251-2.262,5.251-2.262H32.187z"/><path fill="#ab2929" d="M15.453,25.083H8.139c0,0,1.602,1.922,4.251,1.922h2.848L15.453,25.083z"/><path fill="#ab2929" d="M32.547,25.083l0.215,1.922h3.125c2.649,0,4.251-1.922,4.251-1.922H32.547z"/><path fill="#ab2929" d="M15.063,28.325h-3.126c0,0,1.066,1.63,2.944,1.621L15.063,28.325z"/><path fill="#ab2929" d="M32.937,28.281l0.181,1.621c1.876-0.041,2.944-1.621,2.944-1.621H32.937z"/><path fill="#ab2929" d="M31.795,18.361l0.28,2.5h10.674c2.649,0,5.251-2.5,5.251-2.5H31.795z"/><path fill="#ab2929" d="M16.205,18.361H0c0,0,2.602,2.5,5.251,2.5h10.674L16.205,18.361z"/><path fill="#212121" d="M17.194,17.519C19.029,15.952,21.404,15,24,15s4.971,0.952,6.806,2.519H36.1	C33.506,13.593,29.058,11,24,11s-9.506,2.593-12.1,6.519H17.194z"/><path fill="#212121" d="M34.799,30.494c-0.18,0.152-0.409,0.236-0.645,0.236h-1.071c-0.051,0.088-0.089,0.184-0.143,0.27	c-1.851,2.998-5.167,5-8.941,5c-3.885,0-7.275-2.126-9.091-5.27h-1.113c-0.236,0-0.465-0.083-0.645-0.236L9.661,27.55	C10.66,34.585,16.69,40,24,40c7.327,0,13.369-5.44,14.346-12.499L34.799,30.494z"/><path fill="#212121" d="M17.194,17.519C19.029,15.952,21.404,15,24,15s4.971,0.952,6.806,2.519H36.1	C33.506,13.593,29.058,11,24,11s-9.506,2.593-12.1,6.519H17.194z"/><path fill="#ab2929" d="M38.928,27.026C38.213,34.636,31.794,40.613,24,40.613c-7.791,0-14.208-5.972-14.928-13.577	l-0.523-0.443C9.057,34.694,15.77,41.113,24,41.113c8.231,0,14.945-6.421,15.451-14.525L38.928,27.026z"/><path fill="#ab2929" d="M24,10.113c-5.59,0-10.474,2.969-13.201,7.407h0.591c2.671-4.148,7.32-6.907,12.61-6.907	s9.938,2.759,12.61,6.907h0.591C34.474,13.082,29.59,10.113,24,10.113z"/></svg>