<svg xmlns="http://www.w3.org/2000/svg"  viewBox="0 0 48 48" width="1600px" height="1600px" clip-rule="evenodd" baseProfile="basic"><path fill="#ff5215" d="M10,6h28c2.209,0,4,1.791,4,4v28c0,2.209-1.791,4-4,4H10c-2.209,0-4-1.791-4-4V10	C6,7.791,7.791,6,10,6z"/><path fill="#fff" fill-rule="evenodd" d="M226.931,356.066 c-0.231,0-0.377-0.042-0.482-0.168c-0.084-0.105-0.126-0.273-0.126-0.524v-1.51h1.027l-0.126-1.132h-0.881v-1.027v-0.839 c0,0-0.398,0.021-0.524,0.042c-0.671,0.042-1.111,0.503-1.111,1.007v0.881l-0.629,0.042v1.048h0.629v1.74 c0,0.524,0.147,0.944,0.419,1.258c0.273,0.315,0.692,0.461,1.237,0.461c0.273,0,0.482-0.021,0.671-0.042l0,0 c0.294-0.063,0.503-0.315,0.503-0.629v-0.755C227.351,356.003,227.141,356.066,226.931,356.066" clip-rule="evenodd" transform="translate(-187.914 -330.342)"/><path fill="#fff" fill-rule="evenodd" d="M210.492,356.213 c0.168-0.084,0.294-0.168,0.377-0.294v-0.398c-0.273-0.189-0.566-0.273-0.902-0.273c-0.21,0-0.377,0.042-0.503,0.147 c-0.126,0.084-0.168,0.231-0.168,0.398s0.063,0.294,0.168,0.398c0.105,0.084,0.273,0.147,0.503,0.147 C210.135,356.318,210.324,356.276,210.492,356.213 M208.122,356.926c-0.335-0.273-0.524-0.65-0.524-1.132 c0-0.503,0.168-0.881,0.503-1.153c0.335-0.273,0.797-0.398,1.426-0.398c0.231,0,0.482,0.021,0.713,0.084 c0.231,0.063,0.44,0.126,0.629,0.21v-0.084c0-0.482-0.398-0.713-1.174-0.713c-0.545,0-0.881,0.042-1.321,0.252 c0,0-0.063-0.44-0.084-0.608c-0.042-0.336,0.231-0.587,0.671-0.671l0,0c0.315-0.063,0.65-0.084,1.006-0.084 c0.818,0,1.447,0.168,1.866,0.503c0.419,0.335,0.629,0.797,0.629,1.384v2.034c0,0.545-0.189,0.671-0.65,0.671h-0.839l-0.042-0.377 c-0.168,0.168-0.377,0.294-0.629,0.377c-0.252,0.084-0.545,0.147-0.86,0.147C208.919,357.324,208.458,357.198,208.122,356.926" clip-rule="evenodd" transform="translate(-187.914 -330.342)"/><path fill="#fff" fill-rule="evenodd" d="M221.857,356.213 c0.168-0.084,0.294-0.168,0.377-0.294v-0.398c-0.273-0.189-0.566-0.273-0.902-0.273c-0.21,0-0.377,0.042-0.503,0.147 c-0.126,0.084-0.168,0.231-0.168,0.398s0.063,0.294,0.168,0.398c0.105,0.084,0.273,0.147,0.503,0.147 C221.5,356.318,221.689,356.276,221.857,356.213 M219.487,356.926c-0.335-0.273-0.524-0.65-0.524-1.132 c0-0.503,0.168-0.881,0.503-1.153c0.335-0.273,0.797-0.398,1.426-0.398c0.231,0,0.482,0.021,0.713,0.084s0.44,0.126,0.629,0.21 v-0.084c0-0.482-0.398-0.713-1.174-0.713c-0.545,0-0.881,0.042-1.321,0.252c0,0-0.063-0.44-0.084-0.608 c-0.042-0.336,0.231-0.587,0.671-0.671l0,0c0.315-0.063,0.65-0.084,1.006-0.084c0.818,0,1.447,0.168,1.866,0.503 c0.419,0.335,0.629,0.797,0.629,1.384v2.034c0,0.545-0.189,0.671-0.65,0.671h-0.839l-0.042-0.377 c-0.168,0.168-0.377,0.294-0.629,0.377c-0.252,0.084-0.545,0.147-0.86,0.147C220.284,357.324,219.823,357.198,219.487,356.926" clip-rule="evenodd" transform="translate(-187.914 -330.342)"/><path fill="#fff" fill-rule="evenodd" d="M198.98,356.066 c-0.231,0-0.377-0.042-0.482-0.168c-0.084-0.105-0.126-0.273-0.126-0.524v-1.51h1.027l-0.126-1.132h-0.881v-1.027v-0.839 c0,0-0.398,0.021-0.524,0.042c-0.671,0.042-1.111,0.503-1.111,1.007v0.881l-0.629,0.042v1.048h0.629v1.74 c0,0.524,0.147,0.944,0.419,1.258c0.273,0.315,0.692,0.461,1.237,0.461c0.273,0,0.482-0.021,0.671-0.042l0,0 c0.294-0.063,0.503-0.315,0.503-0.629v-0.755C199.379,356.003,199.169,356.066,198.98,356.066" clip-rule="evenodd" transform="translate(-187.914 -330.342)"/><path fill="#fff" fill-rule="evenodd" d="M202.775,356.213 c0.168-0.084,0.294-0.168,0.377-0.294v-0.398c-0.273-0.189-0.566-0.273-0.902-0.273c-0.21,0-0.377,0.042-0.503,0.147 c-0.126,0.084-0.168,0.231-0.168,0.398s0.063,0.294,0.168,0.398c0.105,0.084,0.273,0.147,0.503,0.147 C202.44,356.318,202.608,356.276,202.775,356.213 M200.427,356.926c-0.335-0.273-0.524-0.65-0.524-1.132 c0-0.503,0.168-0.881,0.503-1.153c0.335-0.273,0.797-0.398,1.426-0.398c0.231,0,0.482,0.021,0.713,0.084 c0.231,0.063,0.44,0.126,0.629,0.21v-0.084c0-0.482-0.398-0.713-1.174-0.713c-0.545,0-0.881,0.042-1.321,0.252 c0,0-0.063-0.44-0.084-0.608c-0.042-0.336,0.231-0.587,0.671-0.671l0,0c0.315-0.063,0.65-0.084,1.007-0.084 c0.818,0,1.447,0.168,1.866,0.503c0.419,0.335,0.629,0.797,0.629,1.384v2.034c0,0.545-0.189,0.671-0.65,0.671h-0.839l-0.042-0.377 c-0.168,0.168-0.377,0.294-0.629,0.377c-0.252,0.084-0.545,0.147-0.86,0.147C201.203,357.324,200.762,357.198,200.427,356.926" clip-rule="evenodd" transform="translate(-187.914 -330.342)"/><path fill="#fff" fill-rule="evenodd" d="M207.011,357.177v-6.71 c0,0-0.377,0.021-0.524,0.042c-0.671,0.042-1.111,0.503-1.111,1.007v5.661H207.011z" clip-rule="evenodd" transform="translate(-187.914 -330.342)"/><path fill="#fff" fill-rule="evenodd" d="M216.678,355.772 c-0.21,0.189-0.482,0.294-0.797,0.294c-0.252,0-0.461-0.063-0.671-0.189c-0.189-0.126-0.335-0.294-0.419-0.524v-0.797 c0.084-0.21,0.231-0.377,0.419-0.524c0.189-0.126,0.419-0.189,0.671-0.189c0.336,0,0.608,0.105,0.797,0.294 c0.21,0.189,0.315,0.461,0.315,0.797C216.992,355.311,216.887,355.584,216.678,355.772 M218.355,353.738 c-0.189-0.356-0.482-0.65-0.839-0.839c-0.356-0.189-0.776-0.294-1.237-0.294c-0.294,0-0.587,0.042-0.839,0.126 c-0.273,0.084-0.482,0.21-0.671,0.356v-2.621c0,0-0.398,0.021-0.524,0.042c-0.671,0.042-1.111,0.503-1.111,1.007v5.661h1.531 l0.042-0.44c0.419,0.398,0.944,0.587,1.573,0.587c0.461,0,0.881-0.105,1.237-0.294c0.356-0.189,0.629-0.461,0.839-0.818 c0.189-0.356,0.294-0.776,0.294-1.237S218.565,354.095,218.355,353.738" clip-rule="evenodd" transform="translate(-187.914 -330.342)"/></svg>