<svg xmlns="http://www.w3.org/2000/svg"  viewBox="0 0 48 48" width="1600px" height="1600px" clip-rule="evenodd" baseProfile="basic"><rect width="36" height="36" x="6" y="6" fill="#1565c0"/><path fill="#fff" fill-rule="evenodd" d="M15.29,16l-1.163,0.271c0.052,0.18,0.086,0.584,0.086,0.992v5.023h1.153v-3.114c0.254-0.23,0.617-0.399,0.898-0.399 c0.324,0,0.442,0.161,0.442,0.594v2.919h1.111V19.25c0-0.418-0.024-0.562-0.109-0.807c-0.137-0.382-0.578-0.62-1.129-0.62 c-0.442,0-0.933,0.188-1.23,0.468c0-0.052,0.018-0.231,0.018-0.365V17.06C15.367,16.644,15.341,16.238,15.29,16L15.29,16z M9.371,16.39v0.985h1.441v4.911h1.206v-4.911h1.408l0.195-0.985H9.371L9.371,16.39z M20.48,17.848 c-0.578,0-1.01,0.187-1.366,0.587c-0.383,0.424-0.543,0.941-0.543,1.724c0,1.363,0.805,2.246,2.053,2.246 c0.609,0,1.135-0.195,1.637-0.601l-0.442-0.68c-0.348,0.289-0.714,0.432-1.103,0.432c-0.585,0-0.914-0.381-0.914-1.051V20.47h2.51 v-0.263c0-0.908-0.178-1.492-0.576-1.899C21.454,18.019,20.978,17.848,20.48,17.848L20.48,17.848z M20.496,18.68 c0.228,0,0.389,0.086,0.5,0.256c0.101,0.16,0.136,0.33,0.136,0.652v0.051h-1.315v-0.016C19.817,19.021,20.064,18.68,20.496,18.68 L20.496,18.68z M28.885,23.806l-1.162,0.272c0.051,0.18,0.084,0.585,0.084,0.993v5.022h1.154v-3.113 c0.253-0.23,0.618-0.4,0.899-0.4c0.323,0,0.441,0.162,0.441,0.593v2.92h1.11v-3.038c0-0.416-0.025-0.559-0.109-0.807 c-0.136-0.38-0.577-0.619-1.128-0.619c-0.442,0-0.932,0.187-1.23,0.467c0-0.049,0.018-0.228,0.018-0.365v-0.865 C28.962,24.45,28.935,24.044,28.885,23.806L28.885,23.806z M9.329,24.195l1.409,5.947h1.348l0.491-2.416 c0.18-0.866,0.282-1.696,0.282-1.696c0.015,0.16,0.101,0.923,0.278,1.712l0.527,2.4h1.297l1.425-5.947H15.14l-0.485,2.239 c-0.119,0.578-0.305,1.774-0.321,1.961c0,0-0.144-1.01-0.254-1.561l-0.545-2.639h-1.298l-0.525,2.385 c-0.178,0.813-0.28,1.654-0.304,1.883c0,0-0.077-0.839-0.315-1.943l-0.508-2.325L9.329,24.195L9.329,24.195z M26.283,24.434 l-1.154,0.288c-0.042,0.321-0.042,0.603-0.042,1.026h-0.432v0.779h0.432v2.359c0,0.397,0.008,0.482,0.076,0.67 c0.136,0.383,0.595,0.637,1.171,0.637c0.297,0,0.592-0.06,0.924-0.197l-0.144-0.677c-0.203,0.058-0.305,0.084-0.407,0.084 c-0.39,0-0.491-0.144-0.491-0.696v-2.181h0.729l0.289-0.779h-1.019C26.214,25.306,26.24,24.831,26.283,24.434L26.283,24.434z M37.38,25.646l-1.018,0.274c0.094,0.245,0.161,0.687,0.161,1.271v2.902h1.138v-3.071c0.209-0.246,0.44-0.364,0.696-0.364 c0.126,0,0.218,0.025,0.331,0.084L39,25.74c-0.178-0.077-0.254-0.094-0.425-0.094c-0.126,0-0.278,0.027-0.372,0.068 c-0.214,0.095-0.483,0.332-0.645,0.551C37.54,26.022,37.482,25.825,37.38,25.646L37.38,25.646z M22.568,25.655 c-0.399,0-0.764,0.076-1.187,0.256c-0.307,0.125-0.475,0.209-0.705,0.355l0.484,0.817c0.466-0.315,0.891-0.495,1.255-0.495 c0.416,0,0.507,0.162,0.507,0.644v0.179c-0.092-0.007-0.168-0.007-0.254-0.007c-1.382,0-2.086,0.474-2.086,1.492 c0,0.865,0.525,1.357,1.494,1.357c0.355,0,0.66-0.085,0.871-0.237c0.085-0.06,0.178-0.147,0.263-0.231 c0.11,0.222,0.348,0.416,0.611,0.526l0.602-0.696c-0.331-0.247-0.406-0.424-0.406-0.889v-0.076l0.024-1.461 c0.008-0.468-0.017-0.603-0.075-0.781C23.798,25.927,23.296,25.655,22.568,25.655L22.568,25.655z M18.234,25.656 c-0.577,0-1.008,0.186-1.366,0.586c-0.381,0.424-0.542,0.94-0.542,1.722c0,1.365,0.806,2.248,2.052,2.248 c0.611,0,1.138-0.195,1.639-0.601l-0.442-0.681c-0.348,0.288-0.711,0.432-1.103,0.432c-0.584,0-0.915-0.381-0.915-1.05v-0.037 h2.512v-0.261c0-0.906-0.178-1.493-0.579-1.902C19.211,25.825,18.735,25.656,18.234,25.656L18.234,25.656z M33.904,25.656 c-0.577,0-1.009,0.186-1.366,0.586c-0.381,0.424-0.542,0.94-0.542,1.722c0,1.365,0.806,2.248,2.052,2.248 c0.611,0,1.138-0.195,1.637-0.601l-0.441-0.681c-0.348,0.288-0.713,0.432-1.104,0.432c-0.585,0-0.915-0.381-0.915-1.05v-0.037 h2.511v-0.261c0-0.906-0.178-1.493-0.576-1.902C34.88,25.825,34.405,25.656,33.904,25.656L33.904,25.656z M18.252,26.486 c0.229,0,0.389,0.085,0.502,0.256c0.101,0.161,0.135,0.33,0.135,0.652v0.05h-1.314v-0.016 C17.575,26.827,17.819,26.486,18.252,26.486L18.252,26.486z M33.921,26.486c0.228,0,0.39,0.085,0.501,0.256 c0.101,0.161,0.136,0.33,0.136,0.652v0.05h-1.316v-0.016C33.243,26.827,33.489,26.486,33.921,26.486L33.921,26.486z M22.857,28.191 h0.05l-0.018,0.933c-0.169,0.185-0.381,0.297-0.592,0.297c-0.289,0-0.503-0.23-0.503-0.568 C21.794,28.336,22.067,28.191,22.857,28.191L22.857,28.191z M15.547,31.743l-1.164,0.271c0.051,0.179,0.085,0.585,0.085,0.994 v5.022h1.153v-3.113c0.254-0.23,0.62-0.399,0.9-0.399c0.322,0,0.44,0.161,0.44,0.592v2.919h1.112v-3.036 c0-0.418-0.025-0.56-0.112-0.807c-0.137-0.382-0.576-0.62-1.128-0.62c-0.441,0-0.933,0.187-1.229,0.468 c0-0.052,0.017-0.23,0.017-0.366v-0.863C15.621,32.388,15.595,31.982,15.547,31.743L15.547,31.743z M37.625,31.752l-1.162,0.263 c0.042,0.391,0.058,0.74,0.058,1.307v3.241c0,0.619,0.017,0.754,0.103,0.973c0.137,0.366,0.525,0.595,1.01,0.595 c0.245,0,0.482-0.042,0.677-0.118l-0.195-0.679c-0.059,0.016-0.083,0.016-0.126,0.016c-0.093,0-0.187-0.043-0.23-0.118 c-0.066-0.119-0.075-0.221-0.075-0.967V32.88C37.685,32.272,37.667,31.99,37.625,31.752L37.625,31.752z M12.205,32.007 c-0.95,0-1.798,0.509-2.258,1.366c-0.269,0.508-0.398,1.094-0.398,1.832c0,0.866,0.238,1.579,0.713,2.112 c0.483,0.552,1.111,0.813,1.926,0.813c0.671,0,1.17-0.169,1.637-0.55l-0.543-0.745c-0.347,0.279-0.663,0.38-1.009,0.38 c-0.51,0-0.9-0.228-1.137-0.662c-0.179-0.322-0.245-0.772-0.245-1.577c0-0.686,0.102-1.18,0.33-1.518 c0.212-0.315,0.601-0.508,1.001-0.508c0.33,0,0.644,0.11,0.942,0.33l0.533-0.804c-0.323-0.28-0.908-0.467-1.493-0.467 L12.205,32.007z M24.185,33.576l-1.008,0.288c0.101,0.289,0.149,0.645,0.149,1.019v3.147h1.138v-3.07 c0.265-0.236,0.561-0.39,0.789-0.39c0.297,0,0.382,0.144,0.382,0.635v2.825h1.121v-3.173c0-0.271-0.026-0.458-0.086-0.619 c-0.135-0.375-0.559-0.628-1.043-0.628c-0.255,0-0.551,0.067-0.78,0.185c-0.187,0.103-0.331,0.206-0.5,0.323 C24.347,33.941,24.287,33.753,24.185,33.576L24.185,33.576z M28.614,33.576l-1.011,0.288c0.101,0.289,0.151,0.645,0.151,1.019 v3.147h1.138v-3.07c0.262-0.236,0.56-0.39,0.788-0.39c0.297,0,0.382,0.144,0.382,0.635v2.825h1.12v-3.173 c0-0.271-0.023-0.458-0.085-0.619c-0.135-0.375-0.56-0.628-1.044-0.628c-0.252,0-0.549,0.067-0.78,0.185 c-0.185,0.103-0.331,0.206-0.5,0.323C28.773,33.941,28.714,33.753,28.614,33.576L28.614,33.576z M20.829,33.593 c-0.4,0-0.764,0.076-1.188,0.256c-0.305,0.126-0.476,0.21-0.706,0.355l0.485,0.815c0.465-0.315,0.889-0.493,1.254-0.493 c0.417,0,0.51,0.161,0.51,0.646v0.177c-0.094-0.008-0.17-0.009-0.255-0.009c-1.383,0-2.088,0.476-2.088,1.494 c0,0.864,0.526,1.356,1.493,1.356c0.357,0,0.662-0.083,0.874-0.237c0.084-0.06,0.178-0.144,0.263-0.231 c0.109,0.221,0.347,0.417,0.61,0.527l0.603-0.697c-0.331-0.246-0.407-0.423-0.407-0.89v-0.076l0.024-1.461 c0.011-0.464-0.017-0.602-0.077-0.779C22.058,33.863,21.556,33.593,20.829,33.593L20.829,33.593z M33.878,33.593 c-0.577,0-1.009,0.185-1.366,0.586c-0.381,0.423-0.542,0.941-0.542,1.723c0,1.364,0.805,2.247,2.052,2.247 c0.611,0,1.136-0.195,1.637-0.602l-0.442-0.68c-0.347,0.288-0.711,0.434-1.102,0.434c-0.585,0-0.917-0.383-0.917-1.051v-0.035 h2.511v-0.263c0-0.906-0.178-1.492-0.577-1.898C34.854,33.764,34.378,33.593,33.878,33.593L33.878,33.593z M33.894,34.423 c0.23,0,0.391,0.086,0.502,0.256c0.102,0.161,0.135,0.331,0.135,0.654v0.05h-1.314v-0.016 C33.216,34.765,33.462,34.423,33.894,34.423L33.894,34.423z M21.116,36.128h0.053l-0.018,0.933 c-0.169,0.188-0.381,0.298-0.594,0.298c-0.289,0-0.499-0.228-0.499-0.568C20.058,36.275,20.328,36.128,21.116,36.128L21.116,36.128 z" clip-rule="evenodd"/></svg>