<svg xmlns="http://www.w3.org/2000/svg"  viewBox="0 0 48 48" width="1600px" height="1600px"><path fill="#37474f" d="M42,37c0,2.8-2.2,5-5,5H11c-2.8,0-5-2.2-5-5V11c0-2.8,2.2-5,5-5h26c2.8,0,5,2.2,5,5V37z"/><path fill="#fff" d="M28.5,29.5c-1.4,0-1.5-3.8-1.5-5s0.1-5,1.5-5s1.5,3.8,1.5,5S29.9,29.5,28.5,29.5z M28.5,20.7 c-0.2,0.5-0.5,1.8-0.5,3.8s0.3,3.3,0.5,3.8c0.2-0.5,0.5-1.8,0.5-3.8S28.7,21.2,28.5,20.7z"/><path fill="#fff" d="M28.5,33C26,33,24,29.3,24,24.5s2-8.5,4.5-8.5s4.5,3.7,4.5,8.5S31,33,28.5,33z M28.5,17 c-1.9,0-3.5,3.4-3.5,7.5s1.6,7.5,3.5,7.5s3.5-3.4,3.5-7.5S30.4,17,28.5,17z"/><path fill="#fff" d="M24,39c-8.3,0-15-6.7-15-15c0-8.3,6.7-15,15-15c4.8,0,9.3,2.3,12.2,6.2c0.2,0.2,0.1,0.5-0.1,0.7 c-0.2,0.2-0.5,0.1-0.7-0.1C32.7,12.2,28.5,10,24,10c-7.7,0-14,6.3-14,14s6.3,14,14,14s14-6.3,14-14c0-1.8-0.3-3.6-1-5.3 c-0.1-0.3,0-0.5,0.3-0.7c0.3-0.1,0.5,0,0.7,0.3C38.6,20.1,39,22,39,24C39,32.3,32.3,39,24,39z"/><path fill="#fff" d="M20,33c-1.1,0-2-0.9-2-2l0-9.5c0-0.2-0.1-0.3-0.2-0.4l-1-0.5c-0.5-0.3-0.8-0.7-0.8-1.3v-1.8 c0-0.8,0.6-1.4,1.4-1.4h5.3c0.8,0,1.4,0.6,1.4,1.4v1.8c0,0.5-0.3,1-0.7,1.3l-1,0.6c-0.1,0.1-0.2,0.2-0.2,0.4V31 C22,32.1,21.1,33,20,33z M17.4,17c-0.2,0-0.4,0.2-0.4,0.4v1.8c0,0.2,0.1,0.3,0.2,0.4l1,0.5c0.5,0.3,0.8,0.7,0.8,1.3l0,9.5 c0,0.6,0.4,1,1,1s1-0.4,1-1v-9.5c0-0.5,0.3-1,0.7-1.3l1-0.6c0.1-0.1,0.2-0.2,0.2-0.4v-1.8c0-0.2-0.2-0.4-0.4-0.4H17.4z"/></svg>