<svg xmlns="http://www.w3.org/2000/svg"  viewBox="0 0 48 48" width="1600px" height="1600px"><path fill="#424242" d="M42,37c0,2.762-2.238,5-5,5H11c-2.762,0-5-2.238-5-5V11c0-2.762,2.238-5,5-5h26c2.762,0,5,2.238,5,5 V37z"/><path fill="#eceff1" d="M11.611,26.082c0.118,0.314,0.282,0.583,0.491,0.805c0.209,0.223,0.457,0.394,0.744,0.512 c0.287,0.118,0.598,0.177,0.935,0.177c0.328,0,0.635-0.061,0.922-0.184c0.287-0.123,0.537-0.296,0.751-0.519 c0.214-0.223,0.38-0.489,0.498-0.799c0.118-0.309,0.177-0.655,0.177-1.038V19.14h1.433v9.556h-1.42v-0.887 c-0.319,0.337-0.694,0.596-1.126,0.778c-0.432,0.182-0.899,0.273-1.399,0.273c-0.51,0-0.985-0.089-1.427-0.266 c-0.441-0.177-0.824-0.43-1.147-0.758s-0.578-0.721-0.765-1.181c-0.187-0.46-0.28-0.972-0.28-1.536v-5.98h1.433v5.898 C11.433,25.42,11.493,25.768,11.611,26.082z"/><path fill="#eceff1" d="M20.034,19.14v3.481c0.319-0.319,0.687-0.571,1.106-0.758c0.419-0.187,0.874-0.28,1.365-0.28 c0.51,0,0.987,0.096,1.433,0.287c0.446,0.191,0.833,0.451,1.16,0.778c0.328,0.328,0.587,0.714,0.778,1.16 c0.191,0.446,0.287,0.919,0.287,1.42c0,0.501-0.096,0.972-0.287,1.413c-0.191,0.441-0.451,0.826-0.778,1.154 c-0.328,0.328-0.714,0.587-1.16,0.778c-0.446,0.191-0.924,0.287-1.433,0.287c-0.491,0-0.949-0.093-1.372-0.28 c-0.423-0.187-0.794-0.439-1.113-0.758v0.874h-1.365V19.14H20.034z M20.191,26.171c0.123,0.291,0.294,0.546,0.512,0.765 c0.218,0.218,0.473,0.391,0.765,0.519c0.291,0.127,0.605,0.191,0.942,0.191c0.328,0,0.637-0.064,0.928-0.191 c0.291-0.127,0.544-0.3,0.758-0.519c0.214-0.218,0.385-0.473,0.512-0.765c0.127-0.291,0.191-0.605,0.191-0.942 c0-0.337-0.064-0.653-0.191-0.949c-0.127-0.296-0.298-0.553-0.512-0.771c-0.214-0.218-0.466-0.389-0.758-0.512 s-0.601-0.184-0.928-0.184s-0.637,0.061-0.928,0.184c-0.291,0.123-0.546,0.294-0.765,0.512c-0.218,0.218-0.391,0.476-0.519,0.771 c-0.127,0.296-0.191,0.612-0.191,0.949C20.007,25.565,20.068,25.879,20.191,26.171z"/><path fill="#eceff1" d="M26.942,23.823c0.182-0.437,0.432-0.821,0.751-1.154c0.319-0.332,0.696-0.594,1.133-0.785 c0.437-0.191,0.91-0.287,1.42-0.287c0.501,0,0.965,0.091,1.393,0.273c0.428,0.182,0.796,0.435,1.106,0.758 c0.309,0.323,0.551,0.705,0.724,1.147c0.173,0.441,0.259,0.922,0.259,1.44v0.451h-5.666c0.046,0.282,0.137,0.544,0.273,0.785 c0.137,0.241,0.307,0.451,0.512,0.628c0.205,0.178,0.437,0.316,0.696,0.416c0.259,0.1,0.535,0.15,0.826,0.15 c0.828,0,1.497-0.341,2.007-1.024l0.997,0.737c-0.346,0.464-0.774,0.828-1.283,1.092c-0.51,0.264-1.083,0.396-1.72,0.396 c-0.519,0-1.003-0.091-1.454-0.273s-0.842-0.437-1.174-0.765c-0.332-0.328-0.594-0.712-0.785-1.154 c-0.191-0.441-0.287-0.922-0.287-1.44C26.669,24.724,26.76,24.259,26.942,23.823z M28.86,23.283 c-0.387,0.323-0.644,0.753-0.771,1.29h4.246c-0.118-0.537-0.371-0.967-0.758-1.29c-0.387-0.323-0.84-0.485-1.358-0.485 C29.7,22.799,29.247,22.96,28.86,23.283z"/><path fill="#eceff1" d="M36.307,23.44c-0.291,0.319-0.437,0.751-0.437,1.297v3.959h-1.379v-6.963h1.365v0.86 c0.173-0.282,0.398-0.505,0.676-0.669c0.278-0.164,0.608-0.246,0.99-0.246H38v1.283h-0.573 C36.972,22.962,36.598,23.122,36.307,23.44z"/></svg>