<svg xmlns="http://www.w3.org/2000/svg"  viewBox="0 0 48 48" width="1600px" height="1600px"><path fill="#512da8" d="M9,40.5c-2.5,0-4.5-2-4.5-4.5V17c0-2.5,2-4.5,4.5-4.5h4.9l0.5-2.5c0.4-2.1,2.3-3.5,4.4-3.5h10.2 c2.1,0,3.9,1.5,4.4,3.5l0.5,2.5h5c2.5,0,4.5,2,4.5,4.5v19c0,2.5-2,4.5-4.5,4.5H9z"/><path fill="#512da8" d="M29.1,7c1.9,0,3.5,1.3,3.9,3.1l0.4,2.1l0.2,0.8H39c2.2,0,4,1.8,4,4v19c0,2.2-1.8,4-4,4H9 c-2.2,0-4-1.8-4-4V17c0-2.2,1.8-4,4-4h5.3l0.2-0.8l0.4-2.1C15.3,8.3,17,7,18.9,7H29.1 M29.1,6H18.9c-2.4,0-4.4,1.6-4.9,3.9L13.5,12 H9c-2.8,0-5,2.2-5,5v19c0,2.8,2.2,5,5,5h30c2.8,0,5-2.2,5-5V17c0-2.8-2.2-5-5-5h-4.6l-0.4-2.1C33.4,7.6,31.4,6,29.1,6z"/><path fill="#b388ff" d="M24,36.5c-5.8,0-10.5-4.7-10.5-10.5c0-5.8,4.7-10.5,10.5-10.5c5.8,0,10.5,4.7,10.5,10.5 C34.5,31.8,29.8,36.5,24,36.5z M24,18.5c-4.1,0-7.5,3.4-7.5,7.5s3.4,7.5,7.5,7.5s7.5-3.4,7.5-7.5S28.1,18.5,24,18.5z"/></svg>