<svg xmlns="http://www.w3.org/2000/svg"  viewBox="0 0 48 48" width="1600px" height="1600px"><rect width="36" height="36" x="6" y="6" fill="#9ccc65"/><rect width="8" height="8" x="6" y="6" fill="#ff3d00"/><rect width="28" height="28" x="14" y="14" fill="#7cb342"/><rect width="8" height="8" x="34" y="6" fill="#1e88e5"/><rect width="8" height="8" x="34" y="34" fill="#616161"/><rect width="8" height="8" x="6" y="34" fill="#1e88e5"/><rect width="8" height="20" x="34" y="14" fill="#1565c0"/><rect width="8" height="20" x="20" y="28" fill="#1565c0" transform="rotate(90 24 38)"/><path fill="#fff" d="M22.5,34h-1c-4.142,0-7.5-3.358-7.5-7.5V14h16v12.5C30,30.642,26.642,34,22.5,34z"/><path fill="#7cb342" d="M22,31L22,31c-2.761,0-5-2.239-5-5V14h10v12C27,28.761,24.761,31,22,31z"/></svg>