<svg xmlns="http://www.w3.org/2000/svg"  viewBox="0 0 48 48" width="1600px" height="1600px" baseProfile="basic"><path fill="#1d86de" d="M23.173,4.011C12.467,4.348,3.788,13.234,4.004,24.396c0.22,11.378,9.74,20.158,21.056,19.576	C35.402,43.441,43.979,34.906,44,23.917C43.75,12.356,34.757,3.647,23.173,4.011z M37.525,16.617	c-1.557-3.626-6.074-3.597-7.939-0.416c-0.162-1.499,1.541-3.644,3.922-3.655C35.776,12.535,37.687,14.468,37.525,16.617z M35.184,11.91c-1.872-1.142-3.628-1.233-5.312-0.104c-1.692,1.134-2.318,2.796-2.084,4.929c-1.351-2.013-0.808-4.676,1.125-6.03	C30.928,9.293,33.588,9.738,35.184,11.91z M32.117,9.233c-4.509-1.6-9.375,3.018-7.07,8.46c-2.33-1.776-2.615-5.508-0.595-7.807	C26.461,7.598,30.167,7.282,32.117,9.233z M18.412,12.49c0.269-3.114,3.315-5.529,6.533-5.09c-2.606,0.721-4.209,2.353-4.562,4.95	c-0.39,2.872,0.779,5.103,3.425,6.711C20.575,18.964,18.12,15.863,18.412,12.49z M17.755,8.383c-1.978,2.396-2.506,5.04-1.19,7.87	c1.563,3.36,4.368,4.783,8.24,4.685c-2.508,1.245-4.806,1.248-7.034-0.003c-2.627-1.475-3.97-3.776-3.82-6.811	C14.081,11.497,15.448,9.608,17.755,8.383z M12.874,11.208c-1.756,3.52-1.51,6.897,1.044,9.868	c2.877,3.347,6.567,3.963,10.875,2.462c-2.451,2.342-5.153,3.175-8.204,2.449c-3.445-0.82-5.64-3.081-6.42-6.527	C9.438,16.226,10.471,13.467,12.874,11.208z M8.101,20.819c0.928,4.365,3.515,7.13,7.861,8.16c2.276,0.539,4.493,0.194,6.604-0.786	c2.08-0.967,3.659-2.498,4.847-4.602c0.083,3.004-2.499,6.569-5.656,7.972c-3.625,1.611-7.901,0.925-10.692-1.732	C8.463,27.355,7.505,24.34,8.101,20.819z M37.174,33.956c-4.19,5.543-9.922,7.71-16.723,6.333	c-6.329-1.281-10.391-5.306-12.479-11.355c0.296,0.416,0.602,0.809,0.914,1.188c3.127,3.75,7.372,5.834,12.001,5.968	c0.031,0,0.062,0.003,0.094,0.004c0.135,0.003,0.271-0.007,0.407-0.007c2.224-0.046,4.53-0.532,6.864-1.461	c2.324-0.925,4.21-2.168,5.719-3.676c3.346-3.404,4.863-8.139,5.081-13.611C41.394,23.198,41.028,28.857,37.174,33.956z"/></svg>