<svg xmlns="http://www.w3.org/2000/svg"  viewBox="0 0 48 48" width="1600px" height="1600px"><path fill="#263238" d="M38.052,17.908C38.052,17.908,38.052,17.908,38.052,17.908c-0.676-0.203-1.373-0.271-2.057-0.216	c-0.646-1.395-1.861-2.51-3.418-2.979c-0.267-0.08-0.538-0.139-0.811-0.178l0.802-3.468c0.8-3.463-1.366-6.932-4.829-7.734	c-3.461-0.799-6.932,1.365-7.733,4.828l-0.139,0.601l-0.139-0.6c-0.801-3.463-4.273-5.629-7.733-4.828	c-3.464,0.801-5.63,4.271-4.829,7.734l2.239,9.676c-1.054,0.814-1.363,1.862-1.363,3.284v4.847c0,8.278,6.377,14.919,14.655,14.919	c6.597,0,12.502-4.215,14.485-10.389c1.541-0.616,2.748-1.905,3.248-3.569l1.335-5.02C42.645,21.888,40.98,18.789,38.052,17.908z M36.417,28.076c-0.175,0.55-0.554,0.999-1.065,1.264c-0.513,0.266-1.098,0.316-1.647,0.14c-1.135-0.361-1.764-1.579-1.396-2.735	l1.165-3.982l0.077-0.242c0.301-0.899,1.14-1.476,2.045-1.476c0.217,0,0.437,0.033,0.653,0.102c0.598,0.19,1.158,0.57,1.461,1.077	c0.15,0.505,0.211,1.032,0.118,1.341l-0.398,1.332L36.417,28.076z M31.623,21.965l-0.058,0.2l-1.632,5.128	c-0.361,1.135-1.581,1.763-2.713,1.402c-0.452-0.144-0.825-0.438-1.092-0.813c1.12-0.785,1.858-2.08,1.858-3.549	c0-0.95-0.316-1.822-0.836-2.537l0.689-2.162c0.175-0.55,0.554-0.999,1.065-1.263c0.515-0.266,1.1-0.314,1.647-0.139	c0.55,0.175,0.999,0.553,1.264,1.065c0.265,0.513,0.313,1.098,0.139,1.647l-0.311,0.976C31.637,21.936,31.628,21.949,31.623,21.965z M12.962,7.513c0.163-0.038,0.327-0.056,0.491-0.056c0.399,0,0.791,0.111,1.138,0.328c0.489,0.305,0.829,0.782,0.959,1.344	l2.406,7.824c0.319,0.931,0.914,1.661,1.912,1.661s1.67-0.684,1.944-1.661l2.374-7.824c0.129-0.561,0.47-1.039,0.959-1.344	c0.489-0.306,1.066-0.402,1.629-0.272c1.159,0.269,1.884,1.43,1.616,2.589l-2.295,8.546c-0.054,0.126-0.12,0.246-0.162,0.378	l-0.444,1.395c-0.56-0.264-1.179-0.424-1.838-0.424h-9.706c-0.104,0-0.2,0.022-0.301,0.029l-2.296-9.924	C11.078,8.943,11.803,7.781,12.962,7.513z M22.696,39.504c-5.913,0-10.525-4.493-10.525-10.405v-1.777	c0-0.007,0.004-0.013,0.004-0.02v-3.425c0-1.089,0.743-1.879,1.768-1.879h9.706c1.288,0,2.336,1.048,2.336,2.336	s-1.048,2.336-2.336,2.336h-5.328c-0.552,0-1,0.447-1,0.999c0,0.553,0.446,1,0.999,1.001c0.755,0.001,1.548,0.371,2.175,1.016	c0.875,0.899,1.336,2.206,1.298,3.678c-0.014,0.553,0.422,1.012,0.974,1.026c0.01,0,0.019,0,0.027,0c0.54,0,0.984-0.431,0.999-0.974	c0.047-1.826-0.491-3.491-1.525-4.746h1.382c0.195,0,0.382-0.033,0.571-0.058c0.507,0.938,1.354,1.659,2.392,1.989	c0.418,0.133,0.842,0.196,1.259,0.196c1.112,0,2.174-0.452,2.949-1.227c0.503,0.83,1.281,1.499,2.276,1.816	c0.061,0.019,0.122,0.027,0.183,0.043C32.061,36.19,27.636,39.504,22.696,39.504z"/></svg>