<svg xmlns="http://www.w3.org/2000/svg"  viewBox="0 0 48 48" width="1600px" height="1600px"><path fill="#fbc02d" d="M27 6c0-1.105-1.343-2-3-2s-3 .895-3 2c0 .927 1 9.112 1 9.667C22 16.403 22.895 17 24 17s2-.597 2-1.333C26 15.112 27 6.927 27 6zM21 42c0 1.105 1.343 2 3 2s3-.895 3-2c0-.927-1-9.112-1-9.667C26 31.597 25.105 31 24 31s-2 .597-2 1.333C22 32.888 21 41.073 21 42zM9.791 12.187c-.957-.552-2.404.163-3.232 1.598s-.725 3.046.232 3.598c.803.464 8.391 3.69 8.872 3.967.638.368 1.602-.109 2.155-1.065.552-.957.483-2.031-.155-2.399C17.182 17.608 10.595 12.65 9.791 12.187zM38.209 35.813c.957.552 2.404-.163 3.232-1.598s.725-3.046-.232-3.598c-.803-.464-8.391-3.69-8.872-3.967-.638-.368-1.602.109-2.155 1.065-.552.957-.483 2.031.155 2.399C30.818 30.392 37.405 35.35 38.209 35.813zM38.209 12.187c.957-.552 2.404.163 3.232 1.598s.725 3.046-.232 3.598c-.803.464-8.391 3.69-8.872 3.967-.638.368-1.602-.109-2.155-1.065-.552-.957-.483-2.031.155-2.399C30.818 17.608 37.405 12.65 38.209 12.187zM9.791 35.813c-.957.552-2.404-.163-3.232-1.598s-.725-3.046.232-3.598c.803-.464 8.391-3.69 8.872-3.967.638-.368 1.602.109 2.155 1.065.552.957.483 2.031-.155 2.399C17.182 30.392 10.595 35.35 9.791 35.813z"/></svg>