<svg xmlns="http://www.w3.org/2000/svg"  viewBox="0 0 48 48" width="1600px" height="1600px"><path fill="#ff5722" d="M31.959,17.737c2.66-3.725,9.676-11.793,14.013-10.237c0.923,0.286,1.755,1.046,1.923,2.025 c0.611,2.552-1.496,4.17-5.418,10.566c-4.795,7.823-6.267,13.013-8.394,15.104c-4.176,4.665-12.637,2.61-11.631-10.119 C17.424,33.297,16.18,43.32,7.675,41.63c-8.927-2.418-8.51-23.45-6.435-28.874c0.142-0.691,0.485-1.314,0.789-1.941 c2.115-4.092,7.016-4.118,9.105-1.69c2.143,2.492,1.518,7.609,1.188,10.958c2.213-3.848,6.053-9.344,9.598-12.072 C27.452,3.894,33.838,6.554,31.959,17.737L31.959,17.737z"/></svg>