<svg xmlns="http://www.w3.org/2000/svg"  viewBox="0 0 48 48" width="1600px" height="1600px"><path fill="#fb0" d="M36,32.5c0,0.275-0.224,0.5-0.5,0.5S35,32.775,35,32.5v-21c0-1.379-1.122-2.5-2.5-2.5	S30,10.121,30,11.5v26c0,0.275-0.224,0.5-0.5,0.5S29,37.775,29,37.5v-23c0-1.379-1.122-2.5-2.5-2.5S24,13.121,24,14.5v28	c0,0.275-0.224,0.5-0.5,0.5H23v2h0.5c1.378,0,2.5-1.121,2.5-2.5v-28c0-0.275,0.224-0.5,0.5-0.5s0.5,0.225,0.5,0.5v23	c0,1.379,1.122,2.5,2.5,2.5s2.5-1.121,2.5-2.5v-26c0-0.275,0.224-0.5,0.5-0.5s0.5,0.225,0.5,0.5v21c0,1.379,1.122,2.5,2.5,2.5	c0.171,0,0.338-0.018,0.5-0.051V32.5z"/><path fill="#0c0" d="M35.585,32.983C35.819,32.941,36,32.745,36,32.5v-24C36,7.121,37.122,6,38.5,6S41,7.121,41,8.5v19	c0,0.275,0.224,0.5,0.5,0.5s0.5-0.225,0.5-0.5v-15c0-1.379,1.122-2.5,2.5-2.5s2.5,1.121,2.5,2.5V21c0,0.553-0.448,1-1,1	s-1-0.447-1-1v-8.5c0-0.275-0.224-0.5-0.5-0.5S44,12.225,44,12.5v15c0,1.379-1.122,2.5-2.5,2.5S39,28.879,39,27.5v-19	C39,8.225,38.776,8,38.5,8S38,8.225,38,8.5v24c0,1.35-1.077,2.445-2.415,2.491V32.983z"/><path fill="#f44" d="M23.447,42.989C23.197,42.961,23,42.757,23,42.5v-28c0-1.379-1.122-2.5-2.5-2.5S18,13.121,18,14.5v23	c0,0.275-0.224,0.5-0.5,0.5S17,37.775,17,37.5v-26c0-1.379-1.122-2.5-2.5-2.5S12,10.121,12,11.5v21c0,0.275-0.224,0.5-0.5,0.5	S11,32.775,11,32.5v2.449C11.162,34.982,11.329,35,11.5,35c1.378,0,2.5-1.121,2.5-2.5v-21c0-0.275,0.224-0.5,0.5-0.5	s0.5,0.225,0.5,0.5v26c0,1.379,1.122,2.5,2.5,2.5s2.5-1.121,2.5-2.5v-23c0-0.275,0.224-0.5,0.5-0.5s0.5,0.225,0.5,0.5v28	c0,1.361,1.094,2.466,2.447,2.495V42.989z"/><path fill="#09f" d="M11.415,32.983C11.181,32.941,11,32.745,11,32.5v-24C11,7.121,9.878,6,8.5,6S6,7.121,6,8.5v19	C6,27.775,5.776,28,5.5,28S5,27.775,5,27.5v-15C5,11.121,3.878,10,2.5,10S0,11.121,0,12.5V21c0,0.553,0.448,1,1,1s1-0.447,1-1v-8.5	C2,12.225,2.224,12,2.5,12S3,12.225,3,12.5v15C3,28.879,4.122,30,5.5,30S8,28.879,8,27.5v-19C8,8.225,8.224,8,8.5,8S9,8.225,9,8.5	v24c0,1.35,1.077,2.445,2.415,2.491V32.983z"/></svg>