<svg xmlns="http://www.w3.org/2000/svg"  viewBox="0 0 48 48" width="1600px" height="1600px"><path fill="#0288d1" d="M31.771,7.807c0.588-0.43,1.24-0.744,1.894-0.816c0.823-0.092,1.417-0.834,1.325-1.657	c-0.091-0.823-0.833-1.415-1.656-1.325c-1.841,0.205-3.505,1.287-4.71,2.62C27.148,6.226,25.601,6,24,6s-3.148,0.226-4.625,0.628	c-1.205-1.332-2.869-2.415-4.71-2.62c-0.815-0.086-1.565,0.502-1.656,1.325c-0.092,0.823,0.502,1.565,1.325,1.657	c0.654,0.073,1.307,0.386,1.894,0.816c-3.899,1.92-7.017,5.241-8.739,9.333C12.06,15.17,17.78,14,24,14s11.94,1.17,16.51,3.14	C38.788,13.048,35.67,9.728,31.771,7.807z"/><path fill="#afb42b" d="M6.67,19.51C6.23,21.1,6,22.77,6,24.5c0,9.88,7.53,17.94,17,18.47V16.01	C16.79,16.14,11.12,17.43,6.67,19.51z M19.799,25.334l-6.305,9.744c-0.251,0.388-0.854,0.137-0.755-0.315L14,29l-2.098,0.525	c-0.4,0.1-0.758-0.271-0.643-0.667l1.872-6.449c0.073-0.252,0.278-0.443,0.534-0.499l4.392-0.955	c0.379-0.082,0.685,0.311,0.511,0.658L16.75,25.25l2.503-0.667C19.693,24.465,20.046,24.951,19.799,25.334z"/><path fill="#afb42b" d="M41.33,19.51c-4.45-2.08-10.12-3.37-16.33-3.5v26.96c9.47-0.53,17-8.59,17-18.47	C42,22.77,41.77,21.1,41.33,19.51z M29.25,38.5c-1.243,0-2.25-1.007-2.25-2.25c0-0.883,1.122-2.888,1.782-3.99	c0.213-0.356,0.724-0.355,0.936,0c0.659,1.103,1.782,3.111,1.782,3.989C31.5,37.493,30.493,38.5,29.25,38.5z M36.605,26.4	l1.522-0.501c0.395-0.128,0.817,0.086,0.947,0.479c0.129,0.394-0.084,0.817-0.478,0.947l-0.356,0.117	c0.291,0.235,0.378,0.647,0.175,0.973c-0.143,0.228-0.387,0.353-0.637,0.353c-0.107,0-0.212-0.03-0.313-0.077l0.05,0.364	c0.056,0.41-0.231,0.788-0.641,0.845c-0.035,0.005-0.069,0.007-0.103,0.007c-0.369,0-0.69-0.272-0.742-0.648l-0.217-1.586	L34.5,26.853v1.546l1.23,1.025c0.318,0.266,0.361,0.738,0.096,1.057c-0.148,0.178-0.362,0.27-0.577,0.27	c-0.169,0-0.339-0.057-0.479-0.174l-0.288-0.24C34.438,30.708,34.133,31,33.75,31s-0.688-0.292-0.732-0.663l-0.288,0.24	c-0.318,0.266-0.792,0.222-1.056-0.096c-0.265-0.318-0.222-0.791,0.096-1.057L33,28.399v-1.546l-1.311,0.819l-0.217,1.586	c-0.052,0.376-0.373,0.648-0.742,0.648c-0.034,0-0.068-0.002-0.103-0.007c-0.41-0.057-0.697-0.435-0.641-0.845l0.05-0.364	c-0.101,0.047-0.207,0.077-0.313,0.077c-0.25,0-0.494-0.125-0.637-0.353c-0.203-0.326-0.116-0.738,0.175-0.973l-0.356-0.117	c-0.394-0.13-0.607-0.554-0.478-0.947c0.13-0.393,0.556-0.605,0.947-0.479l1.522,0.501l1.44-0.9l-1.44-0.9l-1.522,0.501	c-0.078,0.025-0.157,0.037-0.234,0.037c-0.315,0-0.608-0.2-0.712-0.516c-0.129-0.394,0.084-0.817,0.478-0.947l0.356-0.117	c-0.291-0.235-0.378-0.647-0.175-0.973c0.204-0.326,0.612-0.428,0.951-0.269l-0.051-0.37c-0.056-0.41,0.231-0.788,0.641-0.845	c0.411-0.056,0.789,0.23,0.845,0.642l0.217,1.586L33,24.147v-1.546l-1.23-1.025c-0.318-0.266-0.361-0.738-0.096-1.057	c0.266-0.317,0.738-0.361,1.056-0.096l0.288,0.24C33.062,20.292,33.367,20,33.75,20s0.688,0.292,0.732,0.663l0.288-0.24	c0.319-0.267,0.791-0.222,1.056,0.096c0.265,0.318,0.222,0.791-0.096,1.057l-1.23,1.025v1.546l1.311-0.819l0.217-1.586	c0.056-0.411,0.435-0.698,0.845-0.642s0.697,0.435,0.641,0.845l-0.051,0.37c0.339-0.159,0.747-0.056,0.951,0.27	c0.203,0.326,0.116,0.738-0.175,0.973l0.356,0.117c0.394,0.13,0.607,0.554,0.478,0.947c-0.104,0.315-0.397,0.516-0.712,0.516	c-0.078,0-0.157-0.012-0.234-0.037L36.605,24.6l-1.44,0.9L36.605,26.4z"/></svg>