<svg xmlns="http://www.w3.org/2000/svg"  viewBox="0 0 48 48" width="1600px" height="1600px"><path fill="#1976d2" d="M24,18.454c-1.654,0-3.931,0.898-5.29,2.906c-0.97,1.433-1.819,3.912-0.351,7.583	c1.704-0.501,3.32-1.249,4.854-2.225c-0.462-1.154-0.467-1.824-0.136-2.352c0.269-0.429,0.79-0.601,0.923-0.611	c0.118,0,1.15,0.044,1.179,1.584c0.025,1.355-0.915,2.355-3.144,3.341L11,33.201V13c0-1.828-2.505-3.655-5.227-4.72	C5.402,8.135,5,8.397,5,8.796V35.66V39v0.419c0,0.939,0.952,1.578,1.822,1.223l17.044-6.977l0.315-0.14	c4.246-1.879,6.365-4.667,6.297-8.287C30.395,20.832,27.079,18.454,24,18.454z"/><path fill="#ec407a" d="M42.227,8.28C39.505,9.345,37,11.172,37,13v20.215l-7.096-2.897c-0.93,1.529-2.459,2.817-4.578,3.856	l15.854,6.472c0.869,0.355,1.82-0.284,1.82-1.223V39v-3.336V8.796C43,8.397,42.598,8.135,42.227,8.28z"/></svg>