<svg xmlns="http://www.w3.org/2000/svg"  viewBox="0 0 48 48" width="1600px" height="1600px"><polygon fill="#00b8d4" points="40.93,15.56 34.62,21.87 34.21,21.63 32.67,20.72 29.36,18.77 38.43,9.69 40.1,13.61 40.61,14.81"/><polygon fill="#00b8d4" points="30.051,10.652 29,9 25,7 21,9 15,6 6,10 8.875,26.672 24.625,26.5"/><polygon fill="#ffea00" points="28.75,6.125 20,15 26.729,17.217 36.676,6.598"/><polygon fill="#9ccc65" points="37.125,6.625 36.676,6.598 26,17 29.357,18.768 38.431,9.694"/><polygon fill="#2979ff" points="42.12,18.38 37.38,23.5 34.62,21.87 40.93,15.56"/><polygon fill="#00b8d4" points="32,14 24.988,25.441 32.063,35.608 42.12,29.62"/><polygon fill="#1e88e5" points="24.625,26.5 8.875,26.672 11,39 31,42 32.06,35.61 32.063,35.608 24.988,25.441"/><rect width="22" height="22" x="13" y="13" fill="#090504"/><polygon fill="#00b8d4" points="33,35 26,39 21,35"/><rect width="8" height="2" x="15" y="31" fill="#fff"/><polygon fill="#fff" points="14.625,15.875 16.625,15.875 18.125,21.125 19.75,15.875 21.25,15.875 22.75,21 24,15.875 26.125,15.875 23.625,25 21.875,25 20.25,20.25 18.875,24.875 17.125,24.875"/><path fill="#fff" d="M31.75,18.25l1-1.5c0,0-1.193-1.162-3.625-1.125c-2.158,0.033-2.907,1.707-2.875,2.625 c0.028,0.79,0,2,2.875,2.875c0.799,0.243,1.298,0.496,1.603,0.734c0.496,0.387,0.286,1.2-0.328,1.338 c-0.734,0.165-2.032,0.213-3.275-0.947l-1.25,1.5c0,0,1.875,1.5,4,1.375s3.375-1.625,3.25-2.875s-0.875-2-2.5-2.625 s-2.451-0.416-2.425-1.579C28.223,17.017,30,17,31.75,18.25z"/></svg>