<svg xmlns="http://www.w3.org/2000/svg"  viewBox="0 0 48 48" width="1600px" height="1600px"><polygon fill="#00e676" points="25,38 9,41 3,21 9,21 6,10 41,4 39,21 45,21 43,36 25,44"/><path fill="#fafafa" d="M12.058,16.157l1.623,6.319h2.125l0.967-3.367l0.984,3.367h2.159l1.967-7.048l-2,0.143 l-1.107,4.281l-1.037-4.128l-1.842,0.132l-0.972,3.961l-0.946-3.825L12.058,16.157z M22.401,15.391v7.292l5.406,0.259v-1.951 l-3.437-0.052v-0.898h3.04v-2.107l-2.988,0.104v-0.864l3.385-0.189V15L22.401,15.391z M33.629,18.864 c0.49-0.018,0.944-0.233,1.264-0.556c0.347-0.35,0.561-0.834,0.561-1.364c0-1.283-1.033-2.315-2.288-2.315 c-0.071,0-0.134,0-0.205,0.009l-4.327,0.359v7.949h5.013c2.142-0.958,2.117-2.693,1.273-3.544 C34.591,19.07,34.128,18.864,33.629,18.864z M30.762,16.657l1.416-0.063h0.036c0.347,0,0.632,0.287,0.632,0.637 c0,0.359-0.285,0.646-0.641,0.646h-1.442V16.657z M32.427,21.179h-1.665v-1.184l1.647-0.063c0.009,0,0.009,0,0.018,0 c0.338,0,0.623,0.278,0.623,0.628C33.05,20.901,32.774,21.179,32.427,21.179z M9.246,24.076v2.13h2.487v6.385l2.365-0.131v-6.121 h2.21v-2.13L9.246,24.076z M33.08,31.351v-6.797l1.952,0.01l2.186,3.389v-3.309h2.054l-0.156,6.42l-1.743,0.105l-2.162-3.216 v3.338L33.08,31.351z M28.885,24.364c-1.983,0-3.589,1.66-3.589,3.723c0,2.055,1.606,3.723,3.589,3.723 c1.974,0,3.58-1.669,3.58-3.723C32.465,26.024,30.859,24.364,28.885,24.364z M28.93,29.89c-0.861,0-1.561-0.79-1.561-1.758 c0-0.978,0.7-1.767,1.561-1.767c0.861,0,1.561,0.79,1.561,1.767C30.491,29.101,29.791,29.89,28.93,29.89z M20.559,24.157 c-2.261,0-4.1,1.821-4.1,4.073c0,2.243,1.839,4.073,4.1,4.073s4.091-1.83,4.091-4.073C24.65,25.979,22.82,24.157,20.559,24.157z M20.667,30.213c-0.969,0-1.75-0.879-1.75-1.956c0-1.068,0.781-1.947,1.75-1.947s1.75,0.879,1.75,1.947 C22.416,29.334,21.636,30.213,20.667,30.213z"/></svg>