<svg xmlns="http://www.w3.org/2000/svg"  viewBox="0 0 48 48" width="1600px" height="1600px"><path fill="#d32f2f" d="M42,37c0,2.762-2.238,5-5,5H11c-2.761,0-5-2.238-5-5V11c0-2.762,2.239-5,5-5h26c2.762,0,5,2.238,5,5	V37z"/><path fill="#ffca28" d="M41.899,38H6.101c0.463,2.282,2.481,4,4.899,4h26C39.419,42,41.436,40.282,41.899,38z"/><path fill="#fafafa" d="M22.303,19.58h0.607v2.014h-5.064v-0.733h0.716v-4.432H17.4l-1.475,5.165h-1.171 l-1.196-4.28l-1.23,4.28h-1.171l-1.483-5.165H9v-0.733h2.747v0.733h-0.792l0.986,3.555l1.18-4.288h1.213l1.205,4.297l0.969-3.564 h-0.826v-0.733h7.144v1.912h-0.607l-0.059-0.228c-0.185-0.708-0.379-0.952-0.944-0.952h-1.399v1.778h1.694 c0.064,0.125,0.096,0.264,0.093,0.404c0.004,0.146-0.027,0.291-0.093,0.421h-1.694v1.828h1.458c0.548,0,0.792-0.236,0.961-0.986 L22.303,19.58z M27.627,19.875c-0.169,0.75-0.404,0.986-0.961,0.986h-1.171v-4.432h0.8v-0.733h-2.772v0.733h0.716v4.432h-0.716 l0,0.733h4.777V19.58h-0.607L27.627,19.875z M32.934,19.875c-0.169,0.75-0.404,0.986-0.961,0.986h-1.171v-4.432h0.8v-0.733h-2.772 v0.733h0.716v4.432h-0.716v0.733h4.777V19.58h-0.607L32.934,19.875z M37.374,18.14l-1.07-0.244c-0.623-0.143-0.885-0.388-0.885-0.8 c0-0.497,0.396-0.809,1.171-0.809c0.775,0,1.23,0.278,1.407,0.935l0.076,0.287h0.607V16.05c-0.662-0.341-1.395-0.52-2.14-0.522 c-1.441,0-2.367,0.691-2.367,1.803c0,0.859,0.539,1.491,1.575,1.719l1.07,0.236c0.682,0.152,0.935,0.421,0.935,0.868 c0,0.548-0.413,0.851-1.239,0.851c-0.935,0-1.415-0.371-1.626-1.078l-0.109-0.362h-0.607v1.651 c0.771,0.384,1.625,0.572,2.485,0.548c1.415,0,2.342-0.708,2.342-1.812C39,19.024,38.436,18.384,37.374,18.14z"/><path fill="#fafafa" d="M13.23,25.654c0.564,0,0.758,0.244,0.944,0.952l0.059,0.228h0.607v-1.912h-5.08v0.733 h0.716v4.432H9.759v0.733h2.814v-0.733H11.73v-1.719h1.736c0.065-0.131,0.097-0.275,0.093-0.421c0.003-0.14-0.028-0.28-0.093-0.404 H11.73v-1.887L13.23,25.654z M26.069,30.153c0.101,0.219,0.101,0.472,0,0.691c-0.218,0.028-0.437,0.042-0.657,0.042 c-0.817,0-1.213-0.337-1.306-1.121l-0.034-0.295c-0.101-0.851-0.379-1.18-1.306-1.18h-0.463v1.795h0.8v0.733h-5.299v-0.733h0.691 l-0.388-1.053h-2.19l-0.388,1.053h0.708v0.733h-2.233v-0.733h0.59l2.064-5.165h1.121l2.106,5.165h1.162v-4.432h-0.716v-0.733h3.387 c1.205,0,1.988,0.598,1.988,1.559c0,0.952-0.784,1.458-1.542,1.491v0.025c0.767,0.059,1.078,0.489,1.154,1.154l0.034,0.312 c0.051,0.489,0.152,0.708,0.539,0.708C25.952,30.169,26.011,30.164,26.069,30.153L26.069,30.153z M17.838,28.316l-0.826-2.233 l-0.826,2.233H17.838z M24.435,26.598c0-0.615-0.379-0.944-1.137-0.944h-0.994v1.896h0.994 C24.047,27.55,24.435,27.204,24.435,26.598L24.435,26.598z M29.466,28.131c-0.005,0.143,0.027,0.286,0.093,0.413h1.003v1.491 c-0.315,0.13-0.653,0.196-0.994,0.194c-1.213,0-1.845-0.868-1.845-2.367c0-1.5,0.632-2.367,1.778-2.367 c0.671-0.035,1.28,0.393,1.474,1.036l0.093,0.236h0.607v-1.508c-0.693-0.347-1.458-0.526-2.233-0.522c-1.853,0-3.1,1.239-3.1,3.134 c0,1.904,1.213,3.117,3.1,3.117c0.824-0.022,1.632-0.235,2.359-0.624v-2.629h-2.241C29.494,27.857,29.462,27.993,29.466,28.131 L29.466,28.131z M38.845,27.862c-0.005,1.727-1.407,3.125-3.134,3.125s-3.129-1.397-3.134-3.125 c0.005-1.727,1.407-3.125,3.134-3.125S38.84,26.134,38.845,27.862z M37.463,27.862c0-1.491-0.615-2.359-1.752-2.359 c-1.137,0-1.752,0.868-1.752,2.359c0,1.5,0.607,2.359,1.752,2.359C36.857,30.221,37.463,29.361,37.463,27.862L37.463,27.862z"/></svg>