<svg xmlns="http://www.w3.org/2000/svg"  viewBox="0 0 48 48" width="1600px" height="1600px"><path fill="#ffa000" d="M26.998,40.001c-0.411,0-0.83-0.085-1.229-0.265c-1.511-0.68-2.185-2.456-1.505-3.967l9-20 c0.679-1.51,2.455-2.185,3.967-1.505c1.511,0.68,2.185,2.456,1.505,3.967l-9,20C29.236,39.342,28.143,40.001,26.998,40.001z"/><path fill="#00b8d4" d="M27.001,40c-1.134,0-2.219-0.646-2.726-1.743l-6.072-13.19c-0.694-1.504-0.038-3.287,1.467-3.981 c1.506-0.693,3.287-0.037,3.981,1.467l6.072,13.19c0.694,1.504,0.038,3.287-1.467,3.981C27.849,39.912,27.422,40,27.001,40z"/><path fill="#ffa000" d="M14.998,40c-0.42,0-0.848-0.088-1.255-0.276c-1.504-0.694-2.161-2.476-1.467-3.981l5.853-13.295 c0.694-1.503,2.476-2.163,3.981-1.467c1.504,0.694,2.161,2.476,1.467,3.981l-5.853,13.295C17.218,39.354,16.132,40,14.998,40z"/><path fill="#00b8d4" d="M15.002,40c-1.134,0-2.219-0.646-2.726-1.743l-6-13c-0.694-1.504-0.038-3.287,1.467-3.981 c1.505-0.693,3.287-0.037,3.981,1.467l6,13c0.694,1.504,0.038,3.287-1.467,3.981C15.85,39.912,15.422,40,15.002,40z"/><path fill="#ffa000" d="M44.226,5.82l-0.165-2.104c-0.027-0.346-0.391-0.56-0.706-0.416l-1.937,0.886 c-0.566,0.259-1.037,0.687-1.348,1.225l-1.835,3.171L38.083,8.49c-0.471-0.289-1.086-0.141-1.375,0.33l-1.047,1.707 c-0.076,0.125,0.003,0.287,0.148,0.303l1.414,0.161l-0.586,0.99c-0.141,0.237-0.062,0.544,0.176,0.685 c0.08,0.047,0.167,0.07,0.254,0.07c0.171,0,0.337-0.087,0.431-0.246l0.783-1.323l0.351,0.203l-0.325,0.541 c-0.142,0.237-0.065,0.544,0.171,0.686c0.081,0.048,0.169,0.071,0.257,0.071c0.17,0,0.335-0.086,0.429-0.243l0.333-0.555 l0.481,0.278l-0.759,1.283c-0.141,0.237-0.062,0.544,0.176,0.685c0.08,0.047,0.167,0.07,0.254,0.07 c0.171,0,0.337-0.087,0.431-0.246l0.686-1.159l0.77,0.974c0.091,0.115,0.27,0.096,0.336-0.034l0.897-1.789 c0.247-0.494,0.048-1.095-0.446-1.342l-0.191-0.096l1.699-2.935C44.136,7.031,44.274,6.426,44.226,5.82z"/><circle cx="41.884" cy="6.584" r=".879" fill="#fff"/></svg>