<svg xmlns="http://www.w3.org/2000/svg"  viewBox="0 0 48 48" width="1600px" height="1600px"><path fill="#00b0ff" d="M34,42H14c-4.411,0-8-3.589-8-8V14c0-4.411,3.589-8,8-8h20c4.411,0,8,3.589,8,8v20	C42,38.411,38.411,42,34,42z"/><path fill="#fff" d="M15.03,21.313l-0.625,4.799c-0.107,0.82-0.139,1.648-0.071,2.472c0.083,1,0.313,2.193,0.907,2.896	c1.164,1.377,2.498,2.605,5.059,2.499c2.561-0.106,4.255-1.779,4.255-1.779s1.439,1.792,3.852,1.786	c2.295-0.006,5.605-0.85,7.399-5.343c0.189-0.474,0.298-0.977,0.366-1.483l0.702-5.233l0.127-0.808	c0.11-0.7-0.447-1.326-1.155-1.298l-1.167,0.047c-1.271,0.051-2.306,1.037-2.417,2.305c-0.126,1.439-0.292,3.266-0.425,4.478	c-0.36,3.283-4.36,4.152-4.382,0.226c0.009-0.674,0.293-1.978,0.506-3.27c0.112-0.726-0.451-1.38-1.184-1.377l-1.659,0.007	c-0.887,0.004-1.63,0.673-1.726,1.556c-0.134,1.206-0.285,2.788-0.339,3.11c-0.614,3.793-4.72,2.586-4.382,0l0.889-6.48l0.116-0.895	c0.12-0.925-0.386-1.819-1.241-2.191l-7.447-3.248c-0.607-0.265-1.306,0.084-1.461,0.728L9.052,16.8	c-0.205,0.854,0.213,1.734,1.004,2.115L15.03,21.313z"/></svg>