<svg xmlns="http://www.w3.org/2000/svg"  viewBox="0 0 48 48" width="1600px" height="1600px"><polygon fill="#43a047" points="6,17.8 6,13.1 10.1,15.4 14.1,17.8 10.1,20.1 6,22.4"/><polygon fill="#43a047" points="6,27.1 6,22.4 10.1,24.8 14.1,27.1 10.1,29.5 6,31.8"/><polygon fill="#c0ca33" points="14.1,22.4 14.1,27.1 10.1,24.8 6,22.4 10.1,20.1 14.1,17.8"/><polygon fill="#c0ca33" points="14.1,13.1 14.1,17.8 10.1,15.4 6,13.1 10.1,10.8 14.1,8.4"/><polygon fill="#43a047" points="14.1,13.1 14.1,8.4 18.2,10.8 22.2,13.1 18.2,15.4 14.1,17.8"/><polygon fill="#c0ca33" points="22.2,8.4 22.2,13.1 18.2,10.8 14.1,8.4 18.2,6.1 22.2,3.7"/><polygon fill="#42a5f5" points="42,17.8 42,13.1 37.9,15.4 33.9,17.8 37.9,20.1 42,22.4"/><polygon fill="#42a5f5" points="42,27.1 42,22.4 37.9,24.8 33.9,27.1 37.9,29.5 42,31.8"/><polygon fill="#81d4fa" points="33.9,22.4 33.9,27.1 37.9,24.8 42,22.4 37.9,20.1 33.9,17.8"/><polygon fill="#81d4fa" points="33.9,13.1 33.9,17.8 37.9,15.4 42,13.1 37.9,10.8 33.9,8.4"/><polygon fill="#42a5f5" points="33.9,13.1 33.9,8.4 29.8,10.8 25.8,13.1 29.8,15.4 33.9,17.8"/><polygon fill="#81d4fa" points="25.8,8.4 25.8,13.1 29.8,10.8 33.9,8.4 29.8,6.1 25.8,3.7"/><polygon fill="#e53935" points="15.9,34.9 15.9,30.2 11.8,32.6 7.8,34.9 11.8,37.2 15.9,39.6"/><polygon fill="#fb8c00" points="15.9,34.9 15.9,39.6 19.9,37.2 24,34.9 19.9,32.6 15.9,30.2"/><polygon fill="#e53935" points="24,39.6 24,34.9 19.9,37.2 15.9,39.6 19.9,41.9 24,44.3"/><polygon fill="#fb8c00" points="32.1,34.9 32.1,30.2 36.2,32.6 40.2,34.9 36.2,37.2 32.1,39.6"/><polygon fill="#e53935" points="32.1,34.9 32.1,39.6 28.1,37.2 24,34.9 28.1,32.6 32.1,30.2"/><polygon fill="#fb8c00" points="24,39.6 24,34.9 28.1,37.2 32.1,39.6 28.1,41.9 24,44.3"/></svg>