<svg xmlns="http://www.w3.org/2000/svg"  viewBox="0 0 48 48" width="1600px" height="1600px"><path fill="#304ffe" d="M40.33,6.76C39.67,6.28,38.87,6,38,6H10C8.15,6,6.6,7.25,6.14,8.96C6.136,8.973,6.135,8.987,6.132,9 h35.74C41.635,8.079,41.08,7.287,40.33,6.76z"/><path fill="#3257fd" d="M42,10c0-0.345-0.045-0.68-0.128-1H6.132C6.048,9.319,6,9.654,6,10v2h36V10z"/><rect width="36" height="3" x="6" y="12" fill="#335ffc"/><rect width="36" height="3" x="6" y="15" fill="#3566fc"/><rect width="36" height="3" x="6" y="18" fill="#376efb"/><rect width="36" height="3" x="6" y="21" fill="#3876fa"/><rect width="36" height="3" x="6" y="24" fill="#3a7ef9"/><rect width="36" height="3" x="6" y="27" fill="#3b86f8"/><rect width="36" height="3" x="6" y="30" fill="#3d8ef7"/><rect width="36" height="3" x="6" y="33" fill="#3f95f7"/><path fill="#409df6" d="M42,38v-2H6v2c0,0.346,0.046,0.68,0.128,1h35.739C41.952,38.68,42,38.346,42,38z"/><path fill="#42a5f5" d="M41.56,39.81c0.131-0.257,0.233-0.529,0.307-0.81H6.128c0.235,0.911,0.782,1.697,1.522,2.23 C8.31,41.72,9.12,42,10,42h28C39.56,42,40.91,41.11,41.56,39.81z"/><g><polygon fill="#aed581" points="24,24 13.2,6 23.1,6"/><path fill="#aed581" d="M24,24L6,18.27V10c0-0.36,0.05-0.71,0.14-1.04L24,24z"/><polygon fill="#aed581" points="24,24 6,32.34 6,24.43"/><path fill="#aed581" d="M24,24l-7.77,18H10c-0.88,0-1.69-0.28-2.35-0.77L24,24z"/><polygon fill="#aed581" points="33.43,42 25.23,42 24,24"/><path fill="#aed581" d="M42,30.95V38c0,0.65-0.16,1.26-0.44,1.81L24,24L42,30.95z"/><polygon fill="#aed581" points="42,14.1 42,23.1 24,24"/><path fill="#aed581" d="M40.33,6.76L24,24l6.95-18H38C38.87,6,39.67,6.28,40.33,6.76z"/></g><g><path fill="#e0e0e0" d="M39,23c0-1.087-0.439-2.091-1.175-2.911C37.928,19.699,38,19.297,38,18.875 C38,16.183,35.761,14,33,14c-1.873,0-3.487,1.016-4.343,2.503c-0.053-0.002-0.103-0.015-0.157-0.015 c-0.435,0-0.847,0.079-1.245,0.191C26.068,15.648,24.38,15,22.5,15c-1.514,0-2.904,0.422-4.008,1.123 C18.168,16.048,17.834,16,17.487,16c-1.624,0-3.033,0.873-3.821,2.168C10.977,18.696,9,20.433,9,22.5 c0,1.483,1.021,2.794,2.588,3.614C11.215,26.836,11,27.644,11,28.5c0,3.038,2.63,5.5,5.875,5.5c2.457,0,4.56-1.414,5.436-3.418 C23.106,32.567,25.35,34,28,34c3.314,0,6-2.239,6-5c0-0.372-0.052-0.734-0.145-1.083C36.779,27.499,39,25.459,39,23z"/></g></svg>