<svg xmlns="http://www.w3.org/2000/svg"  viewBox="0 0 48 48" width="1600px" height="1600px"><circle cx="24" cy="24" r="20" fill="#3fa9f5"/><path fill="#fff" d="M35.848,15.914l-2.279-2.644c-0.267-0.309-0.734-0.341-1.04-0.07l-0.456,0.404 c-0.748,0.662-1.738,0.985-2.732,0.892c-0.572-0.053-1.137-0.121-1.69-0.211c-1.48-0.223-2.701-0.633-4.224-0.99 c-0.806-0.19-1.722-0.349-2.627-0.395c-0.45-0.016-0.858-0.039-1.5-0.002c-0.589,0.063-1.186,0.182-1.756,0.413 c-2.318,0.9-3.945,3.202-3.945,5.419v0.775c0,1.319,1.07,2.389,2.389,2.389h0.351c1.172,0,2.122-0.95,2.122-2.122v-0.546 c0-0.774,0.509-1.435,1.032-1.654c1.762-0.739,5.029,0.835,7.142,0.797L11.532,30.374c-0.308,0.245-0.365,0.69-0.129,1.005 l2.175,2.905c0.255,0.341,0.747,0.391,1.065,0.109l0.186-0.165c0.796-0.705,1.957-1.179,3.303-1.179 c2.676,0.09,3.61,0.772,6.096,1.498c0.899,0.242,1.822,0.416,2.854,0.416c4.656,0,7.025-2.546,7.025-5.912v-0.733 c0-1.355-1.099-2.454-2.454-2.454H31.21c-1.162,0-2.104,0.942-2.104,2.104v0.471c0,1.094-0.343,1.484-0.778,1.73 c-0.516,0.293-1.541,0.308-2.904-0.154c-1.033-0.35-2.789-1.179-4.593-1.064l14.938-12.139 C36.043,16.588,36.079,16.182,35.848,15.914z"/></svg>