<svg xmlns="http://www.w3.org/2000/svg"  viewBox="0 0 48 48" width="1600px" height="1600px"><path fill="#b71c1c" d="M24,28l0.002-17.678C24.004,6.28,27.361,3,31.501,3C35.642,3,39,6.279,39,10.322 c0,1.887-0.752,3.591-1.951,4.885l0.039,0.016L24,28z"/><path fill="#4fc3f7" d="M8,29.5C8,20.545,15.016,14,23.999,14C32.983,14,40,20.545,40,29.5C40,38.455,32.983,45,23.999,45 C15.016,45,8,38.455,8,29.5z M31,29.501C31,24.579,28.331,21,24,21c-4.332,0-7,3.579-7,8.501C17,34.421,19.668,38,24,38 C28.331,38,31,34.421,31,29.501z"/><path fill="#e53935" d="M24,28V10.323C24,6.279,20.641,3,16.499,3C12.357,3,9,6.28,9,10.322c0,1.887,0.748,3.59,1.952,4.885 l-0.043,0.018L24,28z"/></svg>