<svg xmlns="http://www.w3.org/2000/svg"  viewBox="0 0 48 48" width="1600px" height="1600px"><path fill="#263238" d="M29 8H31V19H29zM17 8H19V19H17z"/><path fill="#37474f" d="M15 40c-2.2 0-4-1.8-4-4V10h2v26c0 1.1.9 2 2 2s2-.9 2-2V26h2v10C19 38.2 17.2 40 15 40zM33 40c-2.2 0-4-1.8-4-4V26h2v10c0 1.1.9 2 2 2s2-.9 2-2V10h2v26C37 38.2 35.2 40 33 40z"/><path fill="#37474f" d="M15 44c-2.4 0-4.3-.7-5.7-2.1C7 39.5 7 36.1 7 36V8h2v28c0 0 0 2.7 1.7 4.5 1 1 2.4 1.5 4.3 1.5 5.9 0 6-5.8 6-6v-9h2v9C23 38.8 21.3 44 15 44zM33 44c-6.3 0-8-5.2-8-8v-9h2v9c0 .6.3 6 6 6 1.8 0 3.3-.5 4.3-1.5C39 38.7 39 36 39 36V8h2v28c0 .1 0 3.5-2.3 5.9C37.3 43.3 35.4 44 33 44z"/><path fill="#607d8b" d="M31.3,16.3c0,0-3.2-1.3-7.3-1.3h0c0,0,0,0,0,0c-4.2,0-7.3,1.3-7.3,1.3L10,23c0,2.5,1.9,3.5,3.4,3.8 c0.9,0.2,2.2,0.3,2.6,1.2c1.5,3.5,8,3,8,3c0,0,6.5,0.5,8-3c0.4-0.9,1.7-1,2.6-1.2c1.5-0.4,3.4-1.3,3.4-3.8L31.3,16.3z"/><path fill="#455a64" d="M38,23C38,23,38,23,38,23c0-0.3,0.1-2.5-2.8-3.6c-0.7-0.3-1.8-0.7-2.2-1.4c-0.2-0.3-0.4-0.5-0.6-0.8 c-0.4-0.6-1.1-1-1.9-1.2C30.2,16,30,16,30,16c-1.7,0-3,1.3-3,3c0,0.5,0.1,1,0.4,1.4C26.9,19.8,25.9,19,24,19 c-1.9,0-2.9,0.8-3.4,1.4c0.1-0.2,0.2-0.4,0.2-0.6c0,0,0,0,0,0C21,19.5,21,19.3,21,19c0-1.7-1.3-3-3-3c0,0-0.2,0-0.4,0 c-0.8,0.1-1.4,0.5-1.9,1.1c-0.2,0.2-0.5,0.5-0.7,0.9c-0.4,0.7-1.5,1.1-2.2,1.4C9.7,20.6,10,23,10,23c0,2.5,1.9,3.5,3.4,3.8 c0.9,0.2,2.2,0.3,2.6,1.2c0.3,0.6,1.1,1.6,1.7,1.8c0.8,0.3,1.3,0.3,1.7,0.1c1.5-0.2,2.6-1.4,2.6-3c0-0.2,0-0.4-0.1-0.6 c0.6,0.4,1.3,0.6,2.1,0.6s1.5-0.2,2.1-0.6c0,0.2-0.1,0.4-0.1,0.6c0,1.5,1.1,2.8,2.6,3c0.4,0.2,0.9,0.1,1.7-0.1 c0.6-0.2,1.4-1.2,1.7-1.8c0.4-0.9,1.6-1,2.6-1.2c1.4-0.3,3.1-1.2,3.4-3.2C38,23.4,38,23.2,38,23z M20.2,21C20.2,21,20.3,21,20.2,21 C20.3,21,20.2,21,20.2,21z M27.8,21c0,0,0,0-0.1-0.1C27.7,20.9,27.8,21,27.8,21z"/><path fill="#ff3d00" d="M22,23c0-1.1,0.9-2,2-2s2,0.9,2,2s-0.9,2-2,2S22,24.1,22,23z M18,20c0.6,0,1-0.4,1-1s-0.4-1-1-1 s-1,0.4-1,1S17.4,20,18,20z M18,24c0.6,0,1-0.4,1-1s-0.4-1-1-1s-1,0.4-1,1S17.4,24,18,24z M19,28c0.6,0,1-0.4,1-1s-0.4-1-1-1 s-1,0.4-1,1S18.4,28,19,28z M31,19c0-0.6-0.4-1-1-1s-1,0.4-1,1s0.4,1,1,1S31,19.6,31,19z M31,23c0-0.6-0.4-1-1-1s-1,0.4-1,1 s0.4,1,1,1S31,23.6,31,23z M30,27c0-0.6-0.4-1-1-1s-1,0.4-1,1s0.4,1,1,1S30,27.6,30,27z M13,24c0.6,0,1-0.4,1-1s-0.4-1-1-1 s-1,0.4-1,1S12.4,24,13,24z M35,24c0.6,0,1-0.4,1-1s-0.4-1-1-1s-1,0.4-1,1S34.4,24,35,24z"/><path fill="#546e7a" d="M8 10.4L5 7.4 5 4 7 4 7 6.6 8 7.6 9 6.6 9 4 11 4 11 7.4zM18 10.4L15 7.4 15 4 17 4 17 6.6 18 7.6 19 6.6 19 4 21 4 21 7.4zM40 10.4L37 7.4 37 4 39 4 39 6.6 40 7.6 41 6.6 41 4 43 4 43 7.4zM30 10.4L27 7.4 27 4 29 4 29 6.6 30 7.6 31 6.6 31 4 33 4 33 7.4z"/></svg>