<svg xmlns="http://www.w3.org/2000/svg"  viewBox="0 0 48 48" width="1600px" height="1600px"><path fill="#90a4ae" d="M32 37L14 37 13 47 15 47 23 47 31 47 33 47z"/><path fill="#37474f" d="M22 43L20 47 26 47 24 43z"/><path fill="#ffa726" d="M34.785,24.717c0.154-0.769,0.514-1.493,1.03-2.069c0.414-0.463,1.078-0.844,1.611-0.539C37.938,22.403,38,23.125,38,23.731c0,1.047,0,2.094-0.009,3.141c-0.005,0.574-0.014,1.157-0.179,1.705c-0.175,0.579-0.515,1.087-0.859,1.579c-0.285,0.407-0.576,0.81-0.873,1.209c-0.261,0.349-0.635,0.735-1.044,0.612c-0.146-0.044-0.266-0.148-0.381-0.25c-0.218-0.192-0.436-0.384-0.654-0.575L34.785,24.717z M11.215,24.717c-0.154-0.769-0.514-1.493-1.03-2.069c-0.414-0.463-1.078-0.844-1.611-0.539C8.062,22.403,8,23.125,8,23.731c0,1.047,0,2.094,0.009,3.141c0.005,0.574,0.014,1.157,0.179,1.705c0.175,0.579,0.515,1.087,0.859,1.579c0.285,0.407,0.576,0.81,0.873,1.209c0.261,0.349,0.635,0.735,1.044,0.612c0.146-0.044,0.266-0.148,0.381-0.25c0.218-0.192,0.436-0.384,0.654-0.575L11.215,24.717z"/><path fill="#fb8c00" d="M37,26c0,2.083-1,3-1,3v-2c-0.552,0-1-0.448-1-1s0.448-1,1-1S37,25.448,37,26z M9,26c0,2.083,1,3,1,3v-2c0.552,0,1-0.448,1-1s-0.448-1-1-1S9,25.448,9,26z"/><path fill="#ffb74d" d="M21,43c-3.063,0-10-6.061-10-12V11c0,0,0.292-8,12-8s12,8,12,8v20c0,5.939-7.063,12-10,12H21z"/><path fill="#fb8c00" d="M18 34H28V36H18z"/><path fill="#4e342e" d="M19,23.5c0,0.828-0.672,1.5-1.5,1.5S16,24.328,16,23.5s0.672-1.5,1.5-1.5S19,22.672,19,23.5z M28.5,22c-0.828,0-1.5,0.672-1.5,1.5s0.672,1.5,1.5,1.5s1.5-0.672,1.5-1.5S29.328,22,28.5,22z"/><path fill="#cfd8dc" d="M37,14C37,3.649,28.199,1,23,1s-6,3-6,3l2.601,5.014C19.734,9.009,19.862,9,20,9h6c6.559,0,7.806,5.308,8,8.189V19v6v4l-3.426,4.568C28.037,31.071,23,31,23,31s-5.14-0.173-7.649,2.468L12,29v-4v-6v-1.948c0.187-2.556,1.209-6.836,5.868-7.835L17,4c0,0-8,0.543-8,10v8l1,1v8c0,3.071,2.125,6.167,4.598,8.448C16.588,43.317,23,44,23,44s6.503-0.691,8.444-4.632C33.894,37.095,36,34.034,36,31v-8l1-1C37,22,37,18.5,37,14z M23,34c0,0,5,0,5,3c0,0,0.003,2-2,2s-2-2-2-2v-1h-2v1c0,0,0.003,2-2,2s-2-2-2-2C18,33.938,23,34,23,34z"/></svg>