<svg xmlns="http://www.w3.org/2000/svg"  viewBox="0 0 48 48" width="1600px" height="1600px"><path fill="#424242" d="M32,34H16L8,47h32L32,34z"/><path fill="#7b1fa2" d="M16,32h16v15H16V32z"/><path fill="#a0530e" d="M29,39l-5,8l-5-8H29z M12,16c0,0-2.6-1-4-1s-1,3-1,3s0.8,7.7,2,8l1,1L12,16z M37.9,27l1-1 c1.3-0.3,2-8,2-8s0.4-3-1-3c-1.4,0-4.9,1-4.9,1L37.9,27z"/><path fill="#7a3a0f" d="M8.1,17.4c0,0,0.7-1.4,2.9,1.6c2,2.9-2,0-2,0v4C9,23,7.7,17.9,8.1,17.4z M39.8,17.4 c0,0-0.7-1.4-2.9,1.6c-2,2.9,2,0,2,0v4C38.9,23,40.3,17.9,39.8,17.4z"/><path fill="#c16e14" d="M32.9,4C30.7,2.6,27,1,24,1s-6.8,1.6-9,3c-3,2-5,4.3-5,8c0,6.3,0,9,0,9s0,2.9,0,8 c0,3.7,4.8,7.3,7.4,9.6c1,0.9,2.3,1.4,3.7,1.4H27c1.4,0,2.7-0.5,3.7-1.4c2.6-2.3,7.2-5.9,7.2-9.6c0-5.1,0-8,0-8s0-2.7,0-9 C37.9,8.3,36,6,32.9,4z"/><path fill="#a0530e" d="M19 30h10v2H19V30zM36 19h-2c0-.7-1.3-1.6-2.1-2l-5.7 1-.3-2 6.3-1 .3.1C32.8 15.2 36 16.7 36 19zM14 19h-2c0-2.3 3.2-3.8 3.6-3.9l.3-.1 6.3 1-.3 2-5.7-1C15.2 17.5 14 18.4 14 19z"/><path fill="#424242" d="M34,20c0-1.7-2-3-4.5-3S25,18.3,25,20s2,3,4.5,3S34,21.7,34,20z"/><path fill="#424242" d="M21,19h6v1h-6V19z"/><path fill="#424242" d="M23,20c0-1.7-2-3-4.5-3S14,18.3,14,20s2,3,4.5,3S23,21.7,23,20z"/><path fill="#b0bec5" d="M32,21c-0.3,0-0.6-0.1-0.8-0.4c-0.4-0.5-1-0.6-1.2-0.6c-0.6,0-1-0.4-1-1s0.4-1,1-1 c0.8,0,2,0.4,2.8,1.4c0.3,0.4,0.3,1.1-0.2,1.4C32.4,20.9,32.2,21,32,21z M21,21c-0.3,0-0.6-0.1-0.8-0.4c-0.4-0.5-1-0.6-1.2-0.6 c-0.6,0-1-0.4-1-1s0.4-1,1-1c0.8,0,2,0.4,2.8,1.4c0.3,0.4,0.3,1.1-0.2,1.4C21.4,20.9,21.2,21,21,21z"/></svg>