<svg xmlns="http://www.w3.org/2000/svg"  viewBox="0 0 48 48" width="1600px" height="1600px"><path fill="#fb8c00" d="M16 33H32V47H16z"/><path fill="#424242" d="M15 37L14 47 24 47 24 47 19 40zM33 37L34 47 24 47 24 47 30 37z"/><path fill="#ffa726" d="M35.785,24.717c0.154-0.769,0.514-1.493,1.03-2.069c0.414-0.463,1.078-0.844,1.611-0.539C38.938,22.403,39,23.125,39,23.731c0,1.047,0,2.094-0.009,3.141c-0.005,0.574-0.014,1.157-0.179,1.705c-0.175,0.579-0.515,1.087-0.859,1.579c-0.285,0.407-0.576,0.81-0.873,1.209c-0.261,0.349-0.635,0.735-1.044,0.612c-0.146-0.044-0.266-0.148-0.381-0.25c-0.218-0.192-0.436-0.384-0.654-0.575L35.785,24.717z M12.215,24.717c-0.154-0.769-0.514-1.493-1.03-2.069c-0.414-0.463-1.078-0.844-1.611-0.539C9.062,22.403,9,23.125,9,23.731c0,1.047,0,2.094,0.009,3.141c0.005,0.574,0.014,1.157,0.179,1.705c0.175,0.579,0.515,1.087,0.859,1.579c0.285,0.407,0.576,0.81,0.873,1.209c0.261,0.349,0.635,0.735,1.044,0.612c0.146-0.044,0.266-0.148,0.381-0.25c0.218-0.192,0.436-0.384,0.654-0.575L12.215,24.717z"/><path fill="#fb8c00" d="M38,26c0,2.083-1,3-1,3v-2c-0.552,0-1-0.448-1-1s0.448-1,1-1S38,25.448,38,26z M10,26c0,2.083,1,3,1,3v-2c0.552,0,1-0.448,1-1s-0.448-1-1-1S10,25.448,10,26z"/><path fill="#ffb74d" d="M22,43c-3.063,0-10-7.833-10-11V15c0,0,0.292-8,12-8s12,8,12,8v17c0,3.083-7.063,11-10,11H22z"/><path fill="#424242" d="M25 24.001c0-3.875 1.875-3.989 4.073-3.989 4.531 0 5.853 1.905 5.927 1.989v1c-.679 1.466-1.619 2.989-3.012 3.584-.47.201-.977.271-1.479.327C30.014 26.966 29.505 27 29 27 25.083 27 25 24.001 25 24.001zM23 24.001c0-3.875-1.875-3.989-4.073-3.989-4.531 0-5.853 1.905-5.927 1.989v1c.679 1.466 1.619 2.989 3.012 3.584.47.201.977.271 1.479.327C17.986 26.966 18.495 27 19 27 22.917 27 23 24.001 23 24.001z"/><path fill="#424242" d="M12 22.001H36V23.001H12z"/><path fill="#424242" d="M24,1c-5.199,0-6,3-6,3s0.063,0-2,0c-4.884,0-6,3.625-6,10v8l3,3v-6c0,0-1.063-10,8-10l3,2l3-2c9,0,8,10,8,10v6l3-3c0,0,0-3.5,0-8C38,1.111,29.199,1,24,1z"/><path fill="#fb8c00" d="M20 34H28V36H20z"/></svg>