<svg xmlns="http://www.w3.org/2000/svg"  viewBox="0 0 48 48" width="1600px" height="1600px"><path fill="#c16e14" d="M17.1,30h14v15h-14V30z"/><path fill="#4caf50" d="M17.1 38l2 7h-8L17.1 38zM31 38l-2 7h8L31 38z"/><path fill="#424242" d="M47.9,27.4c-0.5-1.7-1.4-2.1-1.9-3.4s0.5-3.1-0.1-4.3c-1-1.8-2-1.6-2.7-2.8 c-0.7-1.2,0.1-2.8-0.4-3.7c-0.6-1.1-2.1-1.3-2.8-2.2c-0.7-1-0.6-2.4-1.3-3.1c-0.7-0.7-2-0.8-2.7-1.3c-3.3-2.6-6-1.6-6-1.6 S28.6,3,25,3c-0.9,0-2.3,0-3.9,0.3c-1.3,0.2-1.5,0.7-3.1,1.3c-1,0.4-2.6,0.2-3.6,0.8c-1,0.6-1.3,1.9-2.3,2.7 c-0.7,0.6-2.3,0.6-3,1.3C8.4,10,8.6,11.4,8,12.2c-0.6,0.8-2.3,0.7-2.9,2.5s0.3,2.1-0.6,3.4c-0.6,1-2.2,0.8-2.9,2.3 c-0.6,1.3,0.4,2.8,0,3.8s-0.3,0.3-1.4,2.6c-1,2.3,0.9,4.9,3.8,7.1c0,0,7.4,4,12.1,4c0.1,0,0.1,0,0.2,0c5.7,0,15.8,0,15.8,0 c0.1,0,0.1,0,0.2,0c4.6,0,11.9-4.2,11.9-4.2C47.1,31.6,48.4,29.2,47.9,27.4z"/><path fill="#e5852e" d="M28,10c0,0-4.1-0.1-7.8,3.2c-5.1,4.5-8.1,11-8.1,17.8v1c0,4.5,7.9,9,11,9h2c2.9,0,11-4.5,11-9V21 C36,16.9,34.3,10.5,28,10z"/><path fill="#e5852e" d="M28.1,11.9L30,5.1l0.1,7.1L28.1,11.9z"/><path fill="#212121" d="M20.1,23.5c0,0.8-0.7,1.5-1.5,1.5s-1.5-0.7-1.5-1.5s0.7-1.5,1.5-1.5S20.1,22.7,20.1,23.5z M29.6,22 c-0.8,0-1.5,0.7-1.5,1.5s0.7,1.5,1.5,1.5s1.5-0.7,1.5-1.5S30.5,22,29.6,22z"/><path fill="#e5852e" d="M29.1,39c0-1.7-2.2-3-5-3s-5,1.3-5,3s2.2,3,5,3S29.1,40.7,29.1,39z"/><path fill="#c16e14" d="M24.1,35c-3.5,0-5.4-1.1-5.5-1.1l1-1.7c0,0,1.6,0.9,4.5,0.9s4.5-0.9,4.5-0.9l1,1.7 C29.5,33.9,27.6,35,24.1,35z"/></svg>