<svg xmlns="http://www.w3.org/2000/svg"  viewBox="0 0 48 48" width="1600px" height="1600px"><path fill="#424242" d="M27,2c0,0-0.563-1-4-1S8,3.938,8,18l3,20h24l3-20C38,2.125,27,2,27,2z M26,7c6.096,0.54,8.094,6.509,8.731,11H11.156C12.731,7.998,26,7,26,7z"/><path fill="#ffa726" d="M11 23.003c-.191-.498-.463-.962-.815-1.355-.414-.463-1.078-.844-1.611-.539C8.062 21.403 8 22.125 8 22.731c0 1.047 0 2.094.009 3.141.005.574.014 1.157.179 1.705.175.579.515 1.087.859 1.579.285.407.576.81.873 1.209.26.349.635.735 1.044.612.013-.004.023-.013.035-.018L13 23 11 23.003zM37.426 21.11c-.533-.305-1.197.076-1.611.539-.352.393-.624.857-.815 1.355L33 23l2 7.959c.012.005.022.014.035.018.409.123.784-.262 1.044-.612.297-.398.588-.801.873-1.209.344-.491.684-1 .859-1.579.165-.548.174-1.131.179-1.705C38 24.825 38 23.778 38 22.731 38 22.125 37.938 21.403 37.426 21.11z"/><path fill="#fb8c00" d="M15.938 32H29.938000000000002V47H15.938zM37 25c0 2.083-1 3-1 3v-2c-.552 0-1-.448-1-1s.448-1 1-1S37 24.448 37 25zM9 25c0 2.083 1 3 1 3v-2c.552 0 1-.448 1-1s-.448-1-1-1S9 24.448 9 25z"/><path fill="#424242" d="M15.063,40c2.986,0,5.637,2.911,6.581,5.743L22.062,47h-0.187H14L15.063,40L15.063,40z M31,40c-2.986,0-5.637,2.911-6.581,5.743L24,47h0.188h7.875L31,40L31,40z"/><path fill="#ffb74d" d="M26,7c0,0-15,1.125-15,13v3v8c0,4.5,7.938,11,11,11h2c2.938,0,11-6.5,11-11v-9.957C34.85,16.925,33.659,7.679,26,7z"/><path fill="#424242" d="M24 22c0 0-.038 4 3.667 4S35 22.25 35 21s-2.273-2-4.583-2S24 20.458 24 22zM22 22c0 0 .038 4-3.667 4S11 22.25 11 21s2.273-2 4.583-2S22 20.458 22 22z"/><path fill="#424242" d="M20 21H26V22H20z"/><path fill="#fb8c00" d="M19 33H27V35H19z"/><g><path fill="#ffb74d" d="M25.014 7.836L27 2 26.986 8.164z"/></g></svg>