<svg xmlns="http://www.w3.org/2000/svg"  viewBox="0 0 48 48" width="1600px" height="1600px"><path fill="#0277bd" d="M44,24c0,11.044-8.956,20-20,20S4,35.044,4,24S12.956,4,24,4S44,12.956,44,24z"/><path fill="#fff" d="M22.967,25.834L22.967,25.834c-0.42,0-0.76-0.34-0.76-0.76v-8.611c0-0.42,0.34-0.76,0.76-0.76h0 c0.42,0,0.76,0.34,0.76,0.76v8.611C23.727,25.493,23.387,25.834,22.967,25.834z"/><path fill="#fff" d="M34.49,25.834c-0.42,0-0.76-0.34-0.76-0.76v-7.851h-0.154l-2.281,8.058 c-0.093,0.327-0.391,0.553-0.731,0.553h-1.266c-0.34,0-0.638-0.226-0.731-0.553l-2.281-8.058h-0.154v7.851 c0,0.42-0.34,0.76-0.76,0.76c-0.42,0-0.76-0.34-0.76-0.76v-8.611c0-0.42,0.34-0.76,0.76-0.76h1.488c0.34,0,0.638,0.226,0.731,0.553 l2.281,8.058h0.117l2.281-8.058c0.093-0.327,0.391-0.553,0.731-0.553h1.488c0.42,0,0.76,0.34,0.76,0.76v8.611 C35.25,25.493,34.91,25.834,34.49,25.834z"/><path fill="#fff" d="M15.496,25.834c-0.267,0-0.523-0.141-0.661-0.385c-0.882-1.555,0.096-3.358,0.959-4.949 c0.516-0.952,1.101-2.031,0.983-2.621c-0.14-0.702-0.571-1.406-1.129-1.384c-1.009,0.034-1.789,0.43-2.141,1.087 c-0.069,0.131-0.001,0.635,0.134,0.981c0.152,0.391-0.042,0.831-0.434,0.983c-0.391,0.151-0.831-0.042-0.983-0.434 c-0.088-0.228-0.507-1.407-0.056-2.248c0.615-1.148,1.865-1.836,3.43-1.889c1.26-0.036,2.355,1.029,2.67,2.605 c0.226,1.129-0.436,2.351-1.137,3.644c-0.549,1.013-1.113,2.053-1.119,2.852l3.371-1.235c0.394-0.144,0.83,0.058,0.975,0.452 c0.144,0.394-0.058,0.83-0.452,0.975l-4.147,1.52C15.672,25.819,15.583,25.834,15.496,25.834z"/><polygon fill="#fff" points="16.383,31.912 16.129,31.912 16.129,27.48 16.089,27.48 14.443,31.658 14.144,31.658 12.498,27.48 12.457,27.48 12.457,31.912 12.204,31.912 12.204,27.226 12.67,27.226 14.293,31.347 15.916,27.226 16.383,27.226"/><path fill="#fff" d="M19.295,31.912h-0.253v-2.659c0-0.163-0.142-0.345-0.362-0.465 c-0.443-0.241-1.039-0.169-1.595,0.191l-0.138-0.212c0.635-0.412,1.327-0.487,1.853-0.201c0.305,0.166,0.495,0.429,0.495,0.687 V31.912z"/><path fill="#fff" d="M17.902,31.912c-0.549,0-1.14-0.297-1.14-0.95c0-0.692,0.621-0.95,1.013-0.95h1.393v0.253h-1.393 c-0.008,0-0.76,0.019-0.76,0.696c0,0.689,0.85,0.696,0.886,0.696c0.306,0,0.988-0.232,1.153-0.563l0.227,0.113 C19.054,31.663,18.251,31.912,17.902,31.912z"/><rect width=".253" height="3.419" x="19.801" y="28.493" fill="#fff"/><path fill="#fff" d="M20.037,29.444l-0.217-0.13c0.419-0.699,1.116-0.948,1.628-0.948v0.253 C21.005,28.619,20.402,28.836,20.037,29.444z"/><rect width=".253" height="4.685" x="21.574" y="27.226" fill="#fff"/><rect width="3.044" height=".253" x="21.255" y="29.442" fill="#fff" transform="rotate(-45.001 22.777 29.57)"/><rect width=".253" height="2.495" x="23.125" y="29.651" fill="#fff" transform="rotate(-35.706 23.254 30.9)"/><path fill="#fff" d="M25.468,31.912c-1.011,0-1.614-0.837-1.614-1.646c0-0.789,0.471-1.899,1.52-1.899 c1.1,0,1.393,1.035,1.393,1.646v0.127h-2.655c-0.003,0.043-0.004,0.085-0.004,0.127c0,0.685,0.509,1.393,1.361,1.393 c0.824,0,1.065-0.322,1.067-0.325l0.209,0.142C26.733,31.493,26.443,31.912,25.468,31.912z M24.144,29.886h2.364 c-0.027-0.356-0.189-1.266-1.134-1.266C24.653,28.619,24.26,29.273,24.144,29.886z"/><path fill="#fff" d="M28.286,31.912h-0.52c-0.411,0-0.746-0.335-0.746-0.746V27.48h0.253v3.686 c0,0.272,0.221,0.493,0.493,0.493h0.52V31.912z"/><rect width="1.678" height=".253" x="26.608" y="28.366" fill="#fff"/><rect width=".253" height="3.546" x="28.539" y="28.366" fill="#fff"/><rect width=".253" height="3.546" x="29.299" y="28.366" fill="#fff"/><path fill="#fff" d="M33.73,32.925c-0.826,0-1.325-0.391-1.345-0.408l0.158-0.198c0.004,0.003,0.454,0.352,1.187,0.352 c0.756,0,1.14-0.298,1.14-0.886v-3.419h0.253v3.419C35.123,32.52,34.629,32.925,33.73,32.925z"/><path fill="#fff" d="M31.958,31.912h-0.253v-2.659c0-0.402-0.231-0.633-0.633-0.633c-0.543,0-1.05,0.276-1.551,0.843 l-0.19-0.167c0.552-0.625,1.121-0.929,1.741-0.929c0.547,0,0.886,0.34,0.886,0.886V31.912z"/><circle cx="28.665" cy="27.733" r=".253" fill="#fff"/><path fill="#fff" d="M33.604,31.912c-0.898,0-1.393-0.585-1.393-1.646c0-1.083,0.64-1.899,1.488-1.899 c0.675,0,1.055,0.341,1.333,0.59L35.081,29l-0.168,0.189l-0.05-0.045c-0.274-0.246-0.586-0.525-1.164-0.525 c-0.704,0-1.235,0.708-1.235,1.646c0,0.635,0.198,1.393,1.14,1.393c0.758,0,1.221-0.683,1.271-0.858l0.243,0.069 C35.053,31.1,34.529,31.912,33.604,31.912z"/><path fill="#fff" d="M24,42c-9.925,0-18-8.075-18-18S14.075,6,24,6s18,8.075,18,18S33.925,42,24,42z M24,8	C15.178,8,8,15.178,8,24s7.178,16,16,16s16-7.178,16-16S32.822,8,24,8z"/></svg>