<svg xmlns="http://www.w3.org/2000/svg"  viewBox="0 0 48 48" width="1600px" height="1600px" baseProfile="basic"><path fill="#2243aa" d="M6.681,28.248l0.641,1.774h4.371L6,17L0,30.023h4.336l0.718-1.774H6.681z M5.847,24.789 c0.399,0,0.723,0.324,0.723,0.723s-0.324,0.723-0.723,0.723c-0.399,0-0.723-0.324-0.723-0.723S5.447,24.789,5.847,24.789z"/><polygon fill="#2243aa" points="11.997,19 12.047,30 18.813,30 19.638,26 16.25,26 16.237,19"/><polygon fill="#2243aa" points="20.635,19.023 20.685,30.023 27.451,30.023 28.276,26 24.888,26 24.875,19.023"/><polygon fill="#2243aa" points="36.573,30.023 37.548,26 33.275,26 33.275,25.375 36,25.375 36,23.123 33.275,23.125 33.275,22.463 37.49,22.462 36.487,19.013 29.25,19.013 29.295,30.023"/><polygon fill="#2243aa" points="38.75,18 38.75,30.023 43.068,30.023 43.068,27.236 48,31.145 48,19.031 43.79,19.031 43.79,22.184"/></svg>