<svg xmlns="http://www.w3.org/2000/svg"  viewBox="0 0 48 48" width="1600px" height="1600px" baseProfile="basic"><path fill="#37474f" d="M42,37c0,2.762-2.238,5-5,5H11c-2.761,0-5-2.238-5-5V11c0-2.762,2.239-5,5-5h26c2.762,0,5,2.238,5,5 V37z"/><path fill="#fff" d="M32.872,20.86c-1.768-0.029-2.507,0.638-3.031,1.054c0,0-0.49-7.115-0.485-7.328l-0.221-0.121 c-0.956,0.469-1.435,0.772-2.868,1.041l-0.071,0.102l0.032,0.482l0.103,0.09c0.809-0.054,0.595-0.02,0.712-0.009 c0.118,0.031,0.198,0.064,0.24,0.119c0.042,0.055,0.095,0.265,0.155,0.59c0.041,0.326,0.1,0.922,0.174,1.749l0.066,0.711 l0.548,8.283c0.047,1.003,0.032,1.952,0.011,2.805l0.375,0.111l0.849-0.908c0.483,0.278,1.194,0.813,2.369,0.738 C38.668,29.933,38.152,20.947,32.872,20.86z M34.603,27.706c-0.562,0.869-1.362,1.348-2.441,1.419 c-1.462,0.097-1.876-1.075-1.92-1.169l-0.326-4.93c0.575-0.352,1.494-0.583,2.015-0.613C35.525,22.207,35.145,26.838,34.603,27.706 z"/><path fill="#fff" d="M26.402,24.794c-0.305-0.565-0.709-1.024-1.219-1.385c-0.34-0.238-0.718-0.411-1.12-0.525 c-0.41-0.121-0.98-0.21-1.711-0.288c0.514-0.217,0.903-0.419,1.173-0.592c0.271-0.173,0.504-0.379,0.705-0.632 c0.569-0.672,0.817-1.499,0.752-2.482c-0.04-0.611-0.21-1.156-0.509-1.623c-0.299-0.474-0.704-0.842-1.208-1.111 c-0.591-0.299-1.313-0.456-2.174-0.469c-0.233,0.001-0.731,0.027-1.482,0.077l-7.418,0.491l0.05,0.751 c0.43,0,0.785,0.033,1.065,0.113s0.522,0.226,0.74,0.43c0.261,0.222,0.443,0.513,0.545,0.88c0.109,0.366,0.189,0.932,0.24,1.704 l0.485,7.327c0.052,0.779,0.047,1.35-0.012,1.728c-0.053,0.37-0.194,0.689-0.424,0.944c-0.19,0.224-0.41,0.401-0.671,0.517 c-0.26,0.116-0.607,0.202-1.047,0.26l0.05,0.751l8.253-0.546c1.116-0.074,1.975-0.187,2.578-0.347 c0.609-0.167,1.122-0.413,1.543-0.751c0.468-0.376,0.817-0.865,1.053-1.451c0.243-0.587,0.335-1.22,0.29-1.901 C26.882,25.981,26.707,25.358,26.402,24.794z M18.047,16.776c0.807-0.053,1.407-0.044,1.813,0.021 c0.399,0.065,0.761,0.21,1.086,0.436c0.37,0.265,1.33,0.814,1.421,2.19c0.036,0.54-0.037,1.046-0.21,1.508 c-0.181,0.456-0.451,0.847-0.812,1.153c-0.194,0.161-0.411,0.288-0.651,0.388c-0.241,0.093-0.558,0.192-0.955,0.275 c-0.452,0.093-0.892,0.151-1.32,0.179L17.5,22.986l-0.505-6.141L18.047,16.776z M23.306,29.34c-0.665,0.707-1.61,0.91-2.824,0.99 c-0.933,0.062-1.61-0.147-2.022-0.627c-0.198-0.227-0.344-0.513-0.452-0.858c-0.1-0.339-0.172-0.792-0.209-1.354l-0.239-3.607 l3.887-0.257c0.501-0.033,1.016,0.07,1.421,0.365c0.002,0.002,0.005,0.003,0.007,0.005c0.392,0.277,0.708,0.686,0.97,1.233 c0.255,0.547,0.312,0.98,0.355,1.633C24.275,28.008,23.963,28.627,23.306,29.34z"/><rect width="2.11" height=".703" x="36.629" y="21.848" fill="#fff" transform="rotate(-3.801 37.65 22.191)"/><rect width=".723" height=".703" x="26.104" y="22.591" fill="#fff" transform="rotate(-3.801 26.441 22.931)"/><rect width="3.022" height=".703" x="11.156" y="23.504" fill="#fff" transform="rotate(-3.801 12.653 23.84)"/><rect width="27.073" height=".703" x="9.957" y="12.546" fill="#fff" transform="rotate(-3.801 23.473 12.893)"/><rect width="27.883" height=".703" x="10.901" y="33.617" fill="#fff" transform="rotate(-3.801 24.816 33.948)"/></svg>