<svg xmlns="http://www.w3.org/2000/svg"  viewBox="0 0 48 48" width="1600px" height="1600px"><path fill="#69f0ae" d="M42,10v28c0,2.21-1.79,4-4,4H10c-0.63,0-1.22-0.15-1.75-0.41C6.92,40.95,6,39.58,6,38V10	c0-2.21,1.79-4,4-4h28c0.61,0,1.19,0.14,1.71,0.39C41.07,7.03,42,8.4,42,10z"/><path fill="#263238" d="M42,10v25.68L8.25,41.59C6.92,40.95,6,39.58,6,38V12.3l33.71-5.91C41.07,7.03,42,8.4,42,10z"/><path fill="#fff" d="M29.544,21.975c1.095-0.598,2.49-2.29,2.49-4.282c0-2.091-1.394-3.087-2.589-3.386	c-1.295-0.299-2.988-0.199-4.481,0.1L16,16v4.083l1.693-0.199v9.261L16,29.444v4.183l10.357-1.793	c1.693-0.299,3.386-0.996,4.581-1.992c1.095-0.896,1.992-2.191,1.992-4.282C32.93,23.569,31.535,22.174,29.544,21.975z M23.469,18.888l1.095-0.199c0.598-0.1,0.896-0.199,1.295,0c0.398,0.199,0.498,0.498,0.498,0.896	c0.024,0.425-0.162,0.834-0.498,1.095c-0.398,0.398-0.697,0.398-1.295,0.498l-1.095,0.199V18.888z M26.656,27.154	c-0.398,0.299-0.697,0.498-1.295,0.598l-1.892,0.299v-2.788l1.892-0.299c0.598-0.199,0.896-0.1,1.295,0	c0.299,0.199,0.498,0.598,0.498,1.095C27.149,26.477,26.968,26.874,26.656,27.154z"/></svg>