<svg xmlns="http://www.w3.org/2000/svg"  viewBox="0 0 48 48" width="1600px" height="1600px" clip-rule="evenodd"><path fill="#9f14b2" d="M6,10c0-2.209,1.791-4,4-4h28c2.209,0,4,1.791,4,4v28c0,2.209-1.791,4-4,4H10c-2.209,0-4-1.791-4-4	V10z"/><path fill="#9f14b2" fill-rule="evenodd" d="M14.871,15.175l5.758,21.488l9.89-1.907	c0,0,4.592-6.431,4.313-7.471c-0.279-1.04-5.577-5.564-5.577-5.564s1.312-4.809,1.033-5.849c-0.279-1.04-5.393-3.491-5.393-3.491	L14.871,15.175z" clip-rule="evenodd"/><path fill="#4c008e" fill-rule="evenodd" d="M15.414,17.258l7.986-2.14c1.386-0.371,3.545,0.471,4.1,2.544	c0.764,2.853-2.5,6.1-2.5,6.1s5.552,0.11,6.481,3.576c1.207,4.506-2.881,7.19-2.881,7.19l2.881-0.34c0,0,3.193-4.496,3.19-6.005	c-0.003-1.509-0.101-3.209-1.115-4.161s-4.426-2.266-4.426-2.266s1.706-3.839,1.34-5.206c-0.366-1.367-2.784-4.569-4.352-4.389	c-1.567,0.18-10.9,2.921-10.9,2.921L15.414,17.258z" clip-rule="evenodd"/><path fill="#fff" d="M21.884,38c-1.325,0-2.541-0.885-2.899-2.224l-4.909-18.321c-0.208-0.773-0.101-1.581,0.299-2.274 c0.4-0.693,1.046-1.189,1.82-1.396l7.775-2.083c2.692-0.724,6.499,0.983,7.377,4.259c0.63,2.35-0.018,4.239-0.677,5.415 c2.503,0.8,4.272,2.457,4.849,4.612c0.565,2.109,0.275,4.313-0.817,6.204c-1.092,1.892-2.855,3.244-4.964,3.809l-7.079,1.897 C22.4,37.967,22.14,38,21.884,38z M16.712,15.716c-0.257,0.069-0.472,0.234-0.605,0.465s-0.168,0.499-0.1,0.756l4.909,18.321 c0.143,0.533,0.696,0.849,1.225,0.708l7.08-1.897c1.593-0.427,2.925-1.449,3.75-2.877c0.825-1.429,1.044-3.093,0.617-4.687 c-0.479-1.787-2.255-3.102-4.752-3.518l-1.914-0.319l1.371-1.374c0.073-0.075,1.884-1.977,1.124-4.815 c-0.594-2.217-3.399-3.257-4.928-2.845L16.712,15.716z"/></svg>