<svg xmlns="http://www.w3.org/2000/svg"  viewBox="0 0 48 48" width="1600px" height="1600px"><path fill="#7cb342" d="M9.384,4.023L20,4.667l1.692-0.564C21.896,4.035,22.11,4,22.325,4h2.165 c0.335,0,0.664,0.084,0.958,0.244L27,5.091l11.668-0.088c0.22-0.002,0.439,0.033,0.648,0.103l2.034,0.678 c0.422,0.141,0.785,0.418,1.032,0.788l1.263,1.895c0.232,0.347,0.349,0.759,0.335,1.176l-0.235,7.049 c-0.007,0.201-0.074,0.396-0.193,0.558L43,18l0.267,13l0.54,0.736C43.932,31.908,44,32.115,44,32.327v5.37 c0,0.197-0.058,0.39-0.168,0.555l-1.618,2.426c-0.138,0.207-0.348,0.355-0.59,0.415l-3.506,0.876C38.04,41.99,37.959,42,37.877,42 H27l-0.707,0.707C26.105,42.895,25.851,43,25.586,43h-4.35c-0.155,0-0.308-0.036-0.447-0.106L19,42l-9.555,0.995 c-0.298,0.03-0.595-0.076-0.807-0.288l-3.305-3.373c-0.22-0.22-0.385-0.487-0.483-0.782L4.23,36.689 c-0.148-0.445-0.136-0.929,0.037-1.366L5.182,33L5,31l0.318-4L5,26l0.091-4L5,20l-0.583-7L4,11V8.481C4,8.177,4.138,7.89,4.375,7.7 l4.324-3.459C8.893,4.086,9.137,4.008,9.384,4.023z"/><path fill="#fafafa" d="M13.93,10.69c-1.08,0-4.23,2.19-4.23,4.32s10.11,5.79,10.11,6.69c0,0.9-0.45,1.422-0.93,1.422 c-0.48,0-9.765-1.647-10.59-0.822c-0.825,0.825-0.06,6.18,0.6,6.36c0.66,0.18,9.06-3.09,10.11-3.09s1.74,0.54,1.74,1.44 s-7.41,6.42-7.41,7.98c0,1.56,3.72,3.81,4.62,3.81c0.9,0,4.23-9.48,4.62-9.81s1.71-1.17,2.31-1.17c0.6,0,1.08,1.11,1.08,1.32 c0,0.21,1.74,9.81,2.43,9.93c0.69,0.12,5.4-1.92,5.49-2.76s-5.85-7.59-5.85-8.55c0-0.96,0.66-1.11,1.68-1.11 c1.02,0,7.53,4.92,8.82,4.92c1.29,0,2.73-5.73,2.22-6.3s-10.44-0.205-10.68-0.387S28.9,24.67,28.9,23.68s10.32-6.42,10.38-6.75 c0.06-0.33-2.64-4.95-3.57-4.95s-6.78,7.89-7.98,7.89c-1.2,0-1.89-0.36-1.89-1.02s1.92-9.3,1.32-10.17s-5.19-0.93-6.15,0 c-0.96,0.93,2.25,9.66,2.16,10.41s-0.54,1.38-1.38,1.38C20.95,20.47,15.19,10.69,13.93,10.69z"/><path fill="#7cb342" d="M24.194 21.429A2.571 2.571 0 1 0 24.194 26.571A2.571 2.571 0 1 0 24.194 21.429Z"/></svg>