<svg xmlns="http://www.w3.org/2000/svg"  viewBox="0 0 48 48" width="1600px" height="1600px"><circle cx="24" cy="24" r="20" fill="#03a9f4"/><path fill="#424242" d="M11,20.771c0,0-1.411-2.099-3.088-2.628c-0.935-0.295-2.047-0.069-3.091,0.217 c-0.228,0.776-0.399,1.574-0.532,2.385c0.438,0.332,0.942,0.635,1.519,0.816c0.074,0.023,0.142,0.038,0.214,0.058 c-0.745,0.724-1.331,1.763-2.019,2.351C4.001,23.981,4,23.99,4,24c0,0.219,0.026,0.432,0.033,0.65 c0.794,0.253,2.117,0.538,3.397,0.186c3.529-0.973,3.93-3.486,3.93-3.486s-0.305-0.113-0.769-0.239 C10.861,20.921,11,20.771,11,20.771z"/><path fill="#a4e140" d="M17.959,15.123c0.532,0.239,3.028,0.036,3.028,0.036c2.468-4.345,0.528-7.511-2.233-9.079 c-0.679-0.385-1.291-0.627-1.84-0.765c-0.834,0.317-1.652,0.668-2.428,1.089C14.855,7.523,17.868,9.202,17.959,15.123z"/><path fill="#a4e140" d="M33.318,12.572C32.3,8.878,28.48,6.708,24.786,7.726l-11.075,3.052 c-3.694,1.018-5.864,4.838-4.846,8.532l6.618,22.766C18.07,43.297,20.95,44,24,44c6.604,0,12.443-3.215,16.085-8.151 L33.318,12.572z"/><path fill="#424242" d="M9.872,22.965c0,0-1.563-4.215-1.419-6.163c0,0,4.203-2.903,11.446-4.899 c7.42-2.045,12.408-2.033,12.695-2.031l1.735,6.358c-0.059,0-6.209-0.015-12.745,1.786C15.218,19.771,9.926,22.933,9.872,22.965z"/><circle cx="32.566" cy="11.242" r="1.359" fill="#424242"/><circle cx="33.071" cy="13.304" r="1.359" fill="#424242"/><path fill="#424242" d="M34.937,14.786c0.161,0.585-0.124,1.13-0.607,1.445c-0.312-0.597-1.814,0.001-2.013-0.723 c-0.199-0.723,0.226-1.472,0.949-1.671S34.737,14.062,34.937,14.786z"/><circle cx="16.754" cy="24.03" r=".906" fill="#424242"/><circle cx="28.971" cy="20.663" r=".906" fill="#424242"/><path fill="#424242" d="M32.711,24.006c0.568,2.061-0.873,7.139-6.966,8.818c-6.116,1.685-9.926-1.922-10.5-4.005 c-0.798-2.896,3.347-1.55,8.573-2.989C29.057,24.386,31.916,21.121,32.711,24.006z"/><path fill="#ef9a9a" d="M25.623,32.388c2.589-0.713,4.213-2.479,5.324-3.927c-0.827-1.325-2.44-2.021-4.023-1.585 c-1.049,0.289-1.849,1.018-2.288,1.926c-0.842-0.556-1.902-0.772-2.952-0.483c-1.587,0.437-2.618,1.867-2.644,3.434 C20.734,32.424,23.027,33.103,25.623,32.388z"/><path fill="#fff" d="M22.838,30.806c-0.513,0.141-0.928,0.454-1.219,0.853c-0.395-0.716-1.238-1.098-2.061-0.871 c-0.672,0.185-1.142,0.728-1.281,1.365c1.79,0.998,4.302,1.53,7.421,0.682c-0.01-0.148-0.035-0.298-0.076-0.447 C25.29,31.182,24.043,30.474,22.838,30.806z"/><path fill="#fff" d="M25.786,32.811c3.104-0.867,4.989-2.617,6.017-4.395c-0.445-0.471-1.123-0.693-1.791-0.508 c-0.823,0.227-1.351,0.987-1.324,1.804c-0.454-0.194-0.971-0.25-1.484-0.108c-1.206,0.332-1.914,1.579-1.582,2.785 C25.664,32.537,25.719,32.678,25.786,32.811z"/><polygon fill="#fff" points="25.699,32.835 25.786,32.811 25.699,32.432 25.574,32.379 25.489,32.612"/><path fill="#a4e140" d="M6.741,28.671c3.678-1.014,8.016,0.029,9.612,5.818c0,0-1.68,2.293-2.335,2.543 c-5.9-5.722-10.579-3.319-11.018-4.909C2.645,30.837,3.905,29.452,6.741,28.671z"/><path fill="#a4e140" d="M39.938,19.523c-3.678,1.014-6.87,4.131-5.275,9.92c0,0,2.848,0.971,3.539,0.85 c2.136-7.937,7.156-8.132,6.717-9.722C44.565,19.285,42.773,18.742,39.938,19.523z"/></svg>