<svg xmlns="http://www.w3.org/2000/svg"  viewBox="0 0 48 48" width="1600px" height="1600px" baseProfile="basic"><path fill="#b71c1c" d="M40,42H8c-1.105,0-2-0.895-2-2V8c0-1.105,0.895-2,2-2h32c1.105,0,2,0.895,2,2v32	C42,41.105,41.105,42,40,42z"/><circle cx="24" cy="24" r="2" fill="#212121"/><path fill="#212121" d="M23.567,24.25c-1.715-2.042-2.079-5.328-0.696-7.901c0.648-1.302,1.715-2.398,2.96-3.178 c1.272-0.724,2.745-1.2,4.232-1.155c2.978-0.03,5.855,1.768,7.146,4.359c1.351,2.566,1.037,5.811-0.651,7.875l-0.866-0.499 c0.797-2.167,0.492-4.461-0.652-6.124c-1.148-1.652-3.038-2.675-4.979-2.632c-1.919,0.003-3.818,1.005-4.923,2.66 c-1.139,1.65-1.445,3.903-0.706,6.095L23.567,24.25z"/><path fill="#212121" d="M24,24.5c-2.626,0.464-5.654-0.863-7.19-3.348c-0.804-1.212-1.219-2.685-1.272-4.153 c0.009-1.464,0.333-2.977,1.116-4.243c1.463-2.594,4.459-4.186,7.348-4.009c2.898,0.113,5.551,2.007,6.495,4.502L29.63,13.75 c-1.478-1.773-3.617-2.657-5.629-2.497c-2.005,0.168-3.836,1.293-4.769,2.995c-0.957,1.664-1.038,3.809-0.157,5.593 c0.859,1.811,2.658,3.203,4.925,3.658V24.5z"/><path fill="#212121" d="M24.433,24.25c-0.911,2.506-3.574,4.464-6.495,4.553c-1.451,0.09-2.935-0.286-4.232-0.975 c-1.263-0.74-2.412-1.777-3.117-3.088c-1.514-2.564-1.396-5.955,0.202-8.368c1.547-2.453,4.514-3.804,7.146-3.374l0.001,1 c-2.275,0.393-4.11,1.804-4.977,3.627c-0.857,1.82-0.798,3.968,0.21,5.628c0.963,1.661,2.779,2.804,4.765,2.933 c1.998,0.162,4.103-0.7,5.631-2.436L24.433,24.25z"/><path fill="#212121" d="M24.433,23.75c1.715,2.042,2.079,5.328,0.696,7.901c-0.648,1.302-1.715,2.398-2.96,3.178 c-1.272,0.724-2.745,1.2-4.232,1.155c-2.978,0.03-5.855-1.768-7.146-4.359c-1.351-2.566-1.037-5.811,0.651-7.875l0.866,0.499 c-0.797,2.167-0.492,4.461,0.652,6.124c1.148,1.652,3.038,2.675,4.979,2.632c1.919-0.003,3.818-1.005,4.923-2.66 c1.139-1.65,1.445-3.903,0.706-6.095L24.433,23.75z"/><path fill="#212121" d="M24,23.5c2.626-0.464,5.654,0.863,7.19,3.348c0.804,1.212,1.219,2.685,1.272,4.153 c-0.009,1.464-0.333,2.977-1.116,4.243c-1.463,2.594-4.459,4.186-7.348,4.009c-2.898-0.113-5.551-2.007-6.495-4.502l0.866-0.501 c1.478,1.773,3.617,2.657,5.629,2.497c2.005-0.168,3.836-1.293,4.769-2.995c0.957-1.664,1.038-3.809,0.157-5.593 C28.066,26.347,26.267,24.955,24,24.5V23.5z"/><path fill="#212121" d="M23.567,23.75c0.911-2.506,3.574-4.464,6.495-4.553c1.451-0.09,2.935,0.286,4.232,0.975 c1.263,0.74,2.412,1.777,3.117,3.088c1.514,2.564,1.396,5.955-0.202,8.368c-1.547,2.453-4.514,3.804-7.146,3.374l-0.001-1 c2.275-0.393,4.11-1.804,4.977-3.627c0.857-1.82,0.798-3.968-0.21-5.628c-0.963-1.661-2.779-2.804-4.765-2.933 c-1.998-0.162-4.103,0.7-5.631,2.436L23.567,23.75z"/></svg>