<svg xmlns="http://www.w3.org/2000/svg"  viewBox="0 0 48 48" width="1600px" height="1600px" baseProfile="basic"><path fill="#00838f" d="M6,26h36v8.5c0,4.142-3.358,7.5-7.5,7.5h-21C9.358,42,6,38.642,6,34.5V26z"/><path fill="#00bfa5" d="M6,27c0,0,6,5,18,5s18-5,18-5V15H6V27z"/><path fill="#1de9b6" d="M6,16c0,0,6,5,18,5s18-5,18-5v-2.5C42,9.358,38.642,6,34.5,6h-21C9.358,6,6,9.358,6,13.5V16z"/><path fill="#212121" d="M9.203,40.641C10.42,41.495,11.9,42,13.5,42h21c1.6,0,3.08-0.505,4.297-1.359	c-1.4-2.464-3.399-4.543-5.797-6.045V21c0-4.971-4.029-9-9-9s-9,4.029-9,9v13.597C12.602,36.098,10.603,38.178,9.203,40.641z"/><path fill="#fdd835" d="M10.977,41.555C11.766,41.838,12.613,42,13.5,42H28V20.5c0-3.038-2.462-5.5-5.5-5.5	S17,17.462,17,20.5v5c0,2.517,1.693,4.746,4,5.4v3.401C16.71,35.172,13.086,37.874,10.977,41.555z"/><path fill="#827717" d="M28,39V20.5c0-3.038-2.462-5.5-5.5-5.5S17,17.462,17,20.5v5c0,2.517,1.693,4.746,4,5.4V32L28,39z"/><path fill="#fdd835" d="M21,30.9L21,30.9c0.296,0.072,0.657,0.1,1,0.1c2.761,0,5-2.239,5-5v-6	c0-2.704-2.151-4.893-4.833-4.983C19.285,15.19,17,17.575,17,20.5v5C17,28.017,18.693,30.246,21,30.9z"/><circle cx="24.25" cy="21.75" r=".5" fill="#212121"/><circle cx="19.5" cy="21.75" r=".5" fill="#212121"/><path fill="none" stroke="#212121" stroke-linecap="round" stroke-linejoin="round" stroke-miterlimit="10" stroke-width=".75" d="M19.75,27.471c0.412,0.277,0.934,0.438,1.484,0.449c0.551,0.011,1.13-0.127,1.658-0.449"/><path fill="none" stroke="#212121" stroke-linecap="round" stroke-linejoin="round" stroke-miterlimit="10" stroke-width=".75" d="M25.12,21.475c-0.412-0.277-0.82-0.523-1.37-0.535c-0.551-0.011-0.865,0.139-1.272,0.535"/><path fill="none" stroke="#212121" stroke-linecap="round" stroke-linejoin="round" stroke-miterlimit="10" stroke-width=".75" d="M17.554,21.475c0.412-0.277,0.82-0.523,1.37-0.535c0.551-0.011,0.865,0.139,1.272,0.535"/><path fill="#827717" d="M22.75,25.25c0,0-0.9,0.25-1.5,0.25c-0.63,0-1.5-0.25-1.5-0.25s0.666,1,1.5,1	C22.036,26.25,22.75,25.25,22.75,25.25z"/></svg>