<svg xmlns="http://www.w3.org/2000/svg"  viewBox="0 0 48 48" width="1600px" height="1600px"><path fill="#efebe9" d="M42,10v28c0,2.2-1.8,4-4,4H10c-2.2,0-4-1.8-4-4V10c0-2.2,1.8-4,4-4h28C40.2,6,42,7.8,42,10z"/><path fill="#795649" d="M25,37c-3.925,0-7-2.196-7-5h2c0,1.626,2.29,3,5,3c3.131,0,5-1.869,5-5V13h2v17 C32,34.187,29.187,37,25,37z"/><path fill="#795649" d="M24.5,30c-4.136,0-7.5-4.038-7.5-9s3.364-9,7.5-9s7.5,4.038,7.5,9S28.636,30,24.5,30z M24.5,14 c-3.033,0-5.5,3.14-5.5,7s2.467,7,5.5,7s5.5-3.14,5.5-7S27.533,14,24.5,14z"/></svg>