<svg xmlns="http://www.w3.org/2000/svg"  viewBox="0 0 48 48" width="1600px" height="1600px" baseProfile="basic"><path fill="#1565c0" d="M42,6v36H6V6H42z"/><path fill="#fff" d="M16.421,36.529h-0.585v-1.757h0.585c3.527,0,3.808-1.142,3.808-2.636v-7.029h1.757v7.029 C21.986,36.029,19.012,36.529,16.421,36.529z"/><path fill="#fff" d="M32.75,37.562h-1.27c-2.975,0-5.395-2.42-5.395-5.395v-7.06h1.757v7.06 c0,2.006,1.632,3.637,3.638,3.637h1.27V37.562z"/><path fill="#fff" d="M17.3,39.604h-1.464v-1.757H17.3c3.394,0,5.857-2.297,5.857-5.462v-7.277h1.757v7.277 C24.914,36.5,21.641,39.604,17.3,39.604z"/><path fill="#fff" d="M28.721,17.048v-9.61h-0.586v9.469c0,0-0.234,1.371-1.757,1.909 c-1.994,0.705-2.296,2.82-2.337,3.627c-0.042-0.807-0.343-2.922-2.337-3.627c-1.523-0.539-1.757-1.909-1.757-1.909V7.438h-0.586 v9.61c-0.012,2.273-0.246,4.018,2.202,4.838c1.687,0.562,2.416,1.921,2.472,2.03v0.02c0,0,0.005-0.009,0.006-0.01 c0.001,0.001,0.006,0.01,0.006,0.01v-0.02c0.056-0.108,0.785-1.467,2.472-2.03C28.967,21.066,28.733,19.321,28.721,17.048z"/><path fill="#fff" d="M22.137,17.997c0.843,0.422,1.898,1.546,1.898,1.546v-0.949c0,0,0-0.039,0.001-0.065 c0,0.026,0.001,0.065,0.001,0.065v0.949c0,0,1.054-1.125,1.898-1.546c1.699-0.843,1.886-1.98,1.898-3.573h0.012v-0.597V7.438 h-0.586v6.716c-0.152,0.363-0.515,0.937-1.324,1.23c-1.755,0.612-1.892,2.591-1.898,3.092c-0.006-0.5-0.143-2.479-1.898-3.092 c-0.808-0.293-1.171-0.867-1.324-1.23V7.438h-0.586v6.388c0,0.211,0,0.398,0.012,0.597C20.251,16.017,20.438,17.153,22.137,17.997 z"/><path fill="#fff" d="M22.864,15.443c1.171,0.738,1.171,1.464,1.171,1.464s0-0.726,1.171-1.464 c1.171-0.738,1.757-1.324,1.757-2.495s-0.586-1.605-0.586-1.605V7.438h-0.586v5.633c-0.155,0.123-0.338,0.238-0.586,0.322V7.438 h-0.586v3.917c-0.152-0.141-0.34-0.234-0.586-0.305c-0.246,0.07-0.433,0.176-0.586,0.316V7.438h-0.586v5.955 c-0.248-0.084-0.431-0.199-0.586-0.322V7.438h-0.586v3.905c0,0-0.586,0.433-0.586,1.605S21.693,14.705,22.864,15.443z M26.378,11.978v-0.201C26.378,11.777,26.387,11.855,26.378,11.978z M21.693,11.777v0.201 C21.684,11.855,21.693,11.777,21.693,11.777z"/></svg>