<svg xmlns="http://www.w3.org/2000/svg"  viewBox="0 0 48 48" width="1600px" height="1600px"><path fill="#00bcd4" d="M24 18A6 6 0 1 0 24 30A6 6 0 1 0 24 18Z"/><path fill="#00838f" d="M39.878,13.582C41.845,16.575,43,20.151,43,24c0,10.494-8.506,19-19,19c-6.708,0-12.087-1.342-15.728-2.636C4.886,39.161,3,38,3,38l22-6c0.139,0.007,0.361-0.088,1-0.252c3.45-0.888,6-4.02,6-7.748c0-3.17-1.848-5.9-4.521-7.195L39.878,13.582z M20.521,31.195C17.848,29.9,16,27.17,16,24c0-3.728,2.549-6.86,6-7.748c0.639-0.164,0.861-0.259,1-0.252l22-6c0,0-1.886-1.161-5.272-2.364C36.087,6.342,30.708,5,24,5C13.506,5,5,13.506,5,24c0,3.849,1.155,7.425,3.122,10.418L20.521,31.195z"/></svg>