<svg xmlns="http://www.w3.org/2000/svg"  viewBox="0 0 48 48" width="1600px" height="1600px" baseProfile="basic"><path fill="#ffc107" d="M38,6c0,1.1-0.9,2-2,2v3H12V8c-1.1,0-2-0.9-2-2c0-1.1,0.9-2,2-2s2,0.9,2,2h1.45L18,4.65L20.55,6H22 c0-1.1,0.9-2,2-2s2,0.9,2,2h1.45L30,4.65L32.55,6H34c0-1.1,0.9-2,2-2S38,4.9,38,6z"/><path fill="#ff9800" d="M21,6c-0.73,0.61-1.82,1-3,1s-2.25-0.39-2.98-1H15l3-1.35L21,6L21,6z"/><path fill="#ff9800" d="M33,6c-0.73,0.61-1.82,1-3,1s-2.27-0.39-3-1l0,0l3-1.35L33,6L33,6z"/><path fill="#ef3a3a" d="M14.448,42.031l7.891,3.323c0.983,0.414,2.091,0.418,3.077,0.011l8.109-3.344 C35.023,41.403,36,39.943,36,38.323V19H12v19.344C12,39.953,12.965,41.406,14.448,42.031z"/><rect width="24" height="9" x="12" y="11" fill="#ffc107"/><path fill="#ef3a3a" d="M24,11H12c0-1.65,2.69-3,6-3S24,9.35,24,11z"/><path fill="#ef3a3a" d="M36,11H24c0-1.65,2.69-3,6-3S36,9.35,36,11z"/><path fill="#ef3a3a" d="M30,19c1,0,1.125-2.125,1.125-2.125S31.25,17.375,30,16c0-2-2-3-4-2c-1.651,0.825-3.75,0.5-3.75,0.5 L22,12h-1c0,0,0-0.25,0,0c-2,0-3,1-3,1l0.375,1.375L19.25,14.5l-1.478,1.711c-0.57,0.66-1.399,1.039-2.27,1.039H14.75l0.25,0.5h0.5 v0.5H17c0,0,2-0.5,3-1.375c1,1.25,3.25,0.625,3.25,0.625l3.625-1.375c0,0,1.875,1.375,3,1.125c0.25,0.5,0.25,1.125,0.25,1.125 H29.25V19H30z"/><path fill="#ef3a3a" d="M18.25,14.875l-0.938,0.938c0,0-1.812-0.812-2.062-2.312c0.5,0,0.75,0.125,0.75,0.125 S16.5,14.75,18.25,14.875z"/><path fill="#ef3a3a" d="M25.5,17.125l1.375-0.625c0,0,0.875,0.625,1.375,0.875c0.25,0.875-0.375,1.5-0.375,1.5h-1.5V18.5 l1-0.125v-0.75C27.375,17.625,26,18.25,25.5,17.125z"/><path fill="none" stroke="#ef3a3a" stroke-miterlimit="10" stroke-width=".75" d="M29.5,14.5c0,0,1-0.75,3,0"/><rect width="2" height="1" x="17" y="9" fill="#fff"/><rect width="2" height="1" x="14" y="9"/><rect width="2" height="1" x="20" y="9"/><rect width="2" height="1" x="29" y="9" fill="#fff"/><rect width="2" height="1" x="26" y="9"/><rect width="2" height="1" x="32" y="9"/><path fill="#fff" d="M32,25c-3,2-3,2-3,2s-0.47-0.25-1.1-0.58C27.97,26.29,28,26.15,28,26c0-0.55-0.45-1-1-1 c-0.38,0-0.71,0.21-0.87,0.52C25.68,25.3,25.27,25.11,25,25c-1.16-0.47-4.12-1-6,0c-0.75-1,0-1,0-1s2-1,6-1C25,23,30,23,32,25z"/><line x1="16.5" x2="18.875" y1="26.25" y2="24.865" fill="none" stroke="#000" stroke-linecap="round" stroke-linejoin="round" stroke-miterlimit="10"/><path fill="none" stroke="#000" stroke-linecap="round" stroke-linejoin="round" stroke-miterlimit="10" d="M18.5,22.5 c0,0-0.343,1.018,0.625,2.25c0.849,1.08,0.793,1.874,0.625,2.324"/><path fill="#fff" d="M32,31c-3,2-3,2-3,2s-0.47-0.25-1.1-0.58C27.97,32.29,28,32.15,28,32c0-0.55-0.45-1-1-1 c-0.38,0-0.71,0.21-0.87,0.52C25.68,31.3,25.27,31.11,25,31c-1.16-0.47-4.12-1-6,0c-0.75-1,0-1,0-1s2-1,6-1C25,29,30,29,32,31z"/><line x1="16.5" x2="18.875" y1="32.25" y2="30.865" fill="none" stroke="#000" stroke-linecap="round" stroke-linejoin="round" stroke-miterlimit="10"/><path fill="none" stroke="#000" stroke-linecap="round" stroke-linejoin="round" stroke-miterlimit="10" d="M18.5,28.5 c0,0-0.343,1.018,0.625,2.25c0.973,1.239,0.757,2.102,0.547,2.5"/><path fill="#fff" d="M32,37c-3,2-3,2-3,2s-0.47-0.25-1.1-0.58C27.97,38.29,28,38.15,28,38c0-0.55-0.45-1-1-1 c-0.38,0-0.71,0.21-0.87,0.52C25.68,37.3,25.27,37.11,25,37c-1.16-0.47-4.12-1-6,0c-0.75-1,0-1,0-1s2-1,6-1C25,35,30,35,32,37z"/><line x1="16.5" x2="18.875" y1="38.25" y2="36.865" fill="none" stroke="#000" stroke-linecap="round" stroke-linejoin="round" stroke-miterlimit="10"/><path fill="none" stroke="#000" stroke-linecap="round" stroke-linejoin="round" stroke-miterlimit="10" d="M18.5,34.5 c0,0-0.343,1.018,0.625,2.25c0.882,1.122,0.787,1.936,0.605,2.375"/></svg>