<svg xmlns="http://www.w3.org/2000/svg"  viewBox="0 0 48 48" width="1600px" height="1600px"><path fill="#00bfa5" d="M42.605,32.768V14.232c0-1.072-0.572-2.062-1.5-2.598L25.053,2.366c-0.928-0.536-2.072-0.536-3,0	L6,11.634c-0.928,0.536-1.5,1.526-1.5,2.598v18.536c0,1.072,0.572,2.062,1.5,2.598l16.053,9.268c0.928,0.536,2.072,0.536,3,0	l16.053-9.268C42.033,34.83,42.605,33.84,42.605,32.768z"/><circle cx="23.75" cy="16.25" r="4.75" fill="#fff"/><path fill="#fff" d="M39,20c0,9.113-6.716,16-15,16S9,29.113,9,20c15,0,14,15,15,15S24,20,39,20z"/></svg>