<svg xmlns="http://www.w3.org/2000/svg"  viewBox="0 0 48 48" width="1600px" height="1600px" baseProfile="basic"><path fill="#880e4f" d="M6,10c0-2.209,1.791-4,4-4h28c2.209,0,4,1.791,4,4v28c0,1.863-1.274,3.429-2.999,3.874l-30.002,0	C7.274,41.429,6,39.863,6,38V10z"/><polygon fill="#80cbc4" points="32,30 27,30 27,22 29.5,23 32,22"/><path fill="#d81b60" d="M36,37c0,1.79-0.39,3.48-1.08,5H13.08C12.39,40.48,12,38.79,12,37c0-6.63,5.37-12,12-12	S36,30.37,36,37z"/><path fill="#fffdff" d="M34.588,29.127C32.289,29.619,28.644,30.785,25,32h-1h-1c-3.644-1.215-7.289-2.381-9.588-2.873	C12.168,28.86,11,29.812,11,31.084V31.7l13,4.224L37,31.7v-0.616C37,29.812,35.832,28.86,34.588,29.127z"/><path fill="#80cbc4" d="M9,32.56v9.31C9.32,41.96,9.65,42,10,42h13l-1-9l-10.47-2.37C10.26,30.28,9,31.24,9,32.56z"/><path fill="#26a69a" d="M39,32.56v9.31C38.68,41.96,38.35,42,38,42H25l1-9l10.47-2.37C37.74,30.28,39,31.24,39,32.56z"/><rect width="4" height="9" x="22" y="33" fill="#4db6ac"/></svg>