<svg xmlns="http://www.w3.org/2000/svg"  viewBox="0 0 48 48" width="1600px" height="1600px"><path fill="#33691e" d="M6,10c0-2.209,1.791-4,4-4h28c2.209,0,4,1.791,4,4v28c0,2.209-1.791,4-4,4H10c-2.209,0-4-1.791-4-4	V10z"/><path fill="#fff" d="M28.574,39.939c-0.204,0-0.412-0.024-0.621-0.074c-1-0.237-2.839-1.284-3.924-5.623 c-0.441-1.766-0.544-4.366-0.162-7.421c-0.632-0.483-1.288-0.869-1.961-1.147c-1.321-0.548-2.724-0.696-4.188-0.453 c-0.442,2.378-1.199,4.476-2.453,5.678c-0.938,0.898-2.117,1.275-3.408,1.092c-1.145-0.164-2.401-1.069-2.588-2.484 c-0.179-1.354,0.601-3.396,5.336-5.425c0.451-0.193,0.898-0.357,1.343-0.494c0.529-4.116,0.295-9.093,0.056-11.487 c-0.055-0.55,0.346-1.04,0.896-1.095c0.558-0.047,1.04,0.346,1.095,0.896c0.093,0.931,0.582,6.305,0.026,11.257 c1.608-0.172,3.163,0.052,4.651,0.669c0.541,0.224,1.055,0.492,1.542,0.796c0.546-2.875,1.5-6.037,2.963-9.22 c0.804-1.748,1.991-3.193,3.434-4.18c1.534-1.049,2.888-1.323,4.024-0.81c1.283,0.577,2.054,2.037,2.357,4.463 c0.068,0.548-0.32,1.048-0.868,1.116c-0.548,0.063-1.048-0.32-1.116-0.868c-0.198-1.582-0.633-2.635-1.194-2.888 c-0.445-0.201-1.181,0.026-2.074,0.637c-1.143,0.782-2.093,1.946-2.745,3.365c-1.609,3.499-2.528,6.865-2.984,9.761 c2.356,2.169,3.93,5.16,4.917,7.63c0.831,2.077,0.687,4.134-0.377,5.366C30.02,39.611,29.321,39.939,28.574,39.939z M25.712,28.588 c-0.162,2.236-0.026,4.034,0.258,5.17c0.702,2.81,1.757,3.998,2.446,4.162c0.149,0.032,0.378,0.05,0.621-0.231 c0.463-0.536,0.653-1.771,0.034-3.317C28.142,32.047,27,30.092,25.712,28.588z M15.551,25.854 c-0.052,0.021-0.104,0.043-0.157,0.065c-3.2,1.371-4.23,2.648-4.141,3.325c0.056,0.419,0.561,0.719,0.889,0.766 c0.688,0.1,1.242-0.077,1.74-0.555C14.647,28.721,15.184,27.429,15.551,25.854z"/></svg>