<svg xmlns="http://www.w3.org/2000/svg"  viewBox="0 0 48 48" width="1600px" height="1600px"><path fill="#eceff1" d="M13,42h22c3.866,0,7-3.134,7-7V13c0-3.866-3.134-7-7-7H13c-3.866,0-7,3.134-7,7v22	C6,38.866,9.134,42,13,42z"/><path fill="#29b6f6" d="M13.5,29C11.019,29,9,26.981,9,24.5s2.019-4.5,4.5-4.5s4.5,2.019,4.5,4.5S15.981,29,13.5,29z M13.5,22c-1.378,0-2.5,1.121-2.5,2.5s1.122,2.5,2.5,2.5s2.5-1.121,2.5-2.5S14.878,22,13.5,22z"/><path fill="#29b6f6" d="M38,20c-0.479,0-0.86,0.343-0.958,0.792C36.318,20.294,35.443,20,34.5,20c-2.481,0-4.5,2.019-4.5,4.5	s2.019,4.5,4.5,4.5c0.943,0,1.818-0.294,2.542-0.792C37.14,28.657,37.521,29,38,29c0.552,0,1-0.447,1-1v-7	C39,20.447,38.552,20,38,20z M34.5,27c-1.378,0-2.5-1.121-2.5-2.5s1.122-2.5,2.5-2.5s2.5,1.121,2.5,2.5S35.878,27,34.5,27z"/><path fill="#29b6f6" d="M27.5,17c-0.552,0-1,0.447-1,1v2.762C25.784,20.282,24.925,20,24,20c-2.481,0-4.5,2.019-4.5,4.5	S21.519,29,24,29c0.943,0,1.818-0.294,2.542-0.792C26.64,28.657,27.021,29,27.5,29c0.552,0,1-0.447,1-1V18	C28.5,17.447,28.052,17,27.5,17z M24,27c-1.378,0-2.5-1.121-2.5-2.5S22.622,22,24,22s2.5,1.121,2.5,2.5S25.378,27,24,27z"/></svg>