<svg xmlns="http://www.w3.org/2000/svg"  viewBox="0 0 48 48" width="1600px" height="1600px"><path fill="#b71c1c" d="M42,10v28c0,1.48-0.8,2.77-2,3.46C39.41,41.8,38.73,42,38,42H10c-1.2,0-2.27-0.53-3-1.36 C6.38,39.93,6,39.01,6,38V10c0-1.01,0.38-1.93,1-2.64C7.73,6.53,8.8,6,10,6h28c0.73,0,1.41,0.2,2,0.54C41.2,7.23,42,8.52,42,10z"/><path fill="#9b1010" d="M10,6v36c-1.2,0-2.27-0.53-3-1.36V7.36C7.73,6.53,8.8,6,10,6z"/><rect width="2" height="36" x="19" y="6" fill="#9b1010"/><rect width="2" height="36" x="24" y="6" fill="#9b1010"/><rect width="2" height="36" x="36" y="6" fill="#9b1010"/><path fill="#9b1010" d="M42,10v28c0,1.48-0.8,2.77-2,3.46V6.54C41.2,7.23,42,8.52,42,10z"/><rect width="4.5" height="36" x="12.5" y="6" fill="#9b1010"/><rect width="6.5" height="36" x="28" y="6" fill="#9b1010"/><g><path fill="#fff" d="M18.155,32.961c0.37,0.062,0.802-0.245,0.987-0.214s0.154,0.216,0.523,0.279 s0.034-1.325-0.396-2.159s0.747-3.297-0.053-4.192C19.092,27.415,18.155,32.961,18.155,32.961z"/><path fill="#fff" d="M18.062,33.516c0.74,0.125,2.02,0.871,2.461,2.317c0.122,0.401-1.354-0.989-2.648-1.208 C17.999,33.886,18.062,33.516,18.062,33.516z"/><path fill="#fff" d="M19.954,27.941c0.062-0.37,0.864-0.615,1.604-0.49c1.294,0.219,2.864,1.054,2.802,1.424 s-1.758,0.274-2.497,0.149S19.829,28.68,19.954,27.941z"/><path fill="#fff" d="M20.779,17.431c-3.513-0.593-7.77,0.969-8.644,6.146c-1.749,10.353,5.022,15.3,5.022,15.3 l0.718-4.252c-1.294-0.219-3.145,0.61-2.898,0.271c0.892-1.221,2.346-1.505,3.085-1.38l0.094-0.555 c-0.37-0.062-0.677-0.495-0.862-0.526s-0.216,0.154-0.586,0.091s0.403-1.263,1.083-1.909c0.68-0.646,0.377-3.359,1.427-3.942 L20.779,17.431z M15.947,28.025c-0.74-0.125-2.372-0.591-2.31-0.961s1.82-0.643,3.114-0.425c0.74,0.125,1.417,0.62,1.354,0.989 C17.98,28.368,16.686,28.15,15.947,28.025z M18.512,26.794c-0.032,0.036-0.085,0.042-0.124,0.015l-1.863-1.295l-2.79-0.051 c-0.052-0.001-0.093-0.044-0.092-0.096c0.001-0.049,0.039-0.088,0.086-0.092l2.863-0.225c0.056-0.005,0.111,0.016,0.151,0.05 l1.76,1.562C18.543,26.696,18.547,26.756,18.512,26.794z"/><path fill="#fff" d="M19.895,26.897l2.176-0.897c0.049-0.019,0.108-0.021,0.159,0.003l2.63,1.153 c0.044,0.019,0.067,0.069,0.051,0.115c-0.016,0.049-0.069,0.076-0.118,0.06l-2.652-0.868l-2.185,0.612 c-0.045,0.013-0.094-0.01-0.112-0.055C19.824,26.971,19.847,26.916,19.895,26.897z"/><g><path fill="#fff" d="M30.448,25.68c0.373-0.035,0.711-0.444,0.898-0.462s0.204,0.169,0.578,0.134 c0.373-0.035-0.311-1.289-0.941-1.982c-0.631-0.694-0.132-3.378-1.136-4.036C29.917,20.08,30.448,25.68,30.448,25.68z"/><path fill="#fff" d="M30.696,28.293c0.747-0.071,2.771-1.353,3.316-2.763c0.151-0.391-1.423,0.888-3.476,1.083 C30.607,27.36,30.696,28.293,30.696,28.293z"/><path fill="#fff" d="M30.558,19.371l1.869-1.43c0.042-0.031,0.099-0.048,0.154-0.039l2.839,0.433 c0.047,0.007,0.082,0.049,0.08,0.098c-0.003,0.052-0.047,0.091-0.099,0.089l-2.786-0.152l-1.952,1.156 c-0.04,0.024-0.093,0.014-0.122-0.024C30.509,19.462,30.517,19.403,30.558,19.371z"/><path fill="#fff" d="M30.939,20.925c-0.035-0.373,1.2-1.244,3.067-1.421c1.867-0.177,1.36,0.436-0.267,1.155 S30.992,21.485,30.939,20.925z"/><path fill="#fff" d="M28.961,10c-3.547,0.336-7.254,2.948-6.759,8.174c0.991,10.453,8.812,13.478,8.812,13.478 l-0.301-3.173l-0.018-0.187c-0.747,0.071-2.976-0.808-3.777-2.09c-0.222-0.356,1.564,0.605,3.617,0.41l-0.035-0.373l-0.035-0.373 l-0.018-0.187c-0.373,0.035-0.782-0.303-0.969-0.285c-0.187,0.018-0.169,0.204-0.542,0.24C28.564,25.67,29,24.31,29.489,23.511 c0.489-0.8-0.505-3.342,0.357-4.177L28.961,10z M26.272,21.367c-1.733-0.401-2.346-0.908-0.48-1.085 c1.867-0.177,3.244,0.446,3.279,0.819C29.125,21.662,28.005,21.768,26.272,21.367z M29.196,19.63 c-0.022,0.043-0.072,0.062-0.116,0.046l-2.135-0.769l-2.708,0.673c-0.05,0.012-0.101-0.018-0.114-0.068 c-0.012-0.047,0.015-0.095,0.06-0.111l2.707-0.959c0.053-0.019,0.112-0.014,0.159,0.009l2.105,1.053 C29.201,19.528,29.22,19.584,29.196,19.63z"/></g></g></svg>