<svg xmlns="http://www.w3.org/2000/svg"  viewBox="0 0 48 48" width="1600px" height="1600px"><path fill="#424242" d="M44.068,19c-0.245,0-0.464,0.099-0.63,0.253c0-0.003-1.933,1.77-2.814,2.562 c-0.151,0.135-0.609,0.514-0.982,0.681c-0.083,0.037-0.392,0.076-0.466,0.076c-0.466,0-0.699-0.124-0.699-0.813 c0-0.813,4.648-8.664,5.145-9.925C43.898,11.132,44,10.506,44,9.973C44,8.696,43.154,7.999,41.67,8c-0.281,0-0.63,0.027-0.957,0.081 c-1.495,0.25-2.972,0.923-4.321,1.659c-1.099,0.6-2.988,1.761-4.187,2.506c-0.653,0.406-1.104,0.691-1.104,0.691 s1.389-2.571,1.707-3.598c0.108-0.35,0.159-0.705,0.156-1.06c-0.013-1.548-1.133-3.113-2.835-3.992C29.699,4.065,29.33,4,29.005,4 c-1.048,0-1.623,1.119-2.255,1.932c-3.112,4.006-4.361,5.202-12.424,13.442c-0.182,0.185-0.323,0.417-0.323,0.697 c0,0.513,0.417,0.929,0.932,0.929c0.349,0,0.647-0.228,0.815-0.348c0.815-0.58,5.527-4.975,7.003-6.438 C19.374,19.948,9.639,35.643,4.864,40.054C4.208,40.659,3,41.229,3,42.128C3,43.536,5.052,44,6.261,44 c2.213,0,4.112-0.854,5.475-1.689c2.036-1.247,3.632-3.118,4.962-5.331c2.589-4.308,5.858-9.825,8.657-13.984 c1.816-2.698,4.386-5.068,6.564-7.322c0.068-0.07,0.529-0.531,0.967-0.531c0.515,0,0.932,0.416,0.932,0.929 c0,0.464-0.33,0.888-0.432,1.042C32.641,18.24,28,23.08,28,26.214C28,27.699,28.75,29,31,29c3.125,0,5.86-1.836,6.476-2.25 c3.758-2.523,7.288-6.215,7.288-6.219C44.906,20.368,45,20.161,45,19.929C45,19.416,44.583,19,44.068,19z"/><path fill="#bdbdbd" d="M31.75 24.75c0-1.393 1.26-4.18 1.26-4.18C31.751 22.283 30 24.689 30 26.071 30 26.226 30 27 31.125 27c1.068 0 1.887-.217 2.875-.625C32.369 26.375 31.75 25.563 31.75 24.75zM29.005 7.798c0-.169 0-.813-.466-.813-.349 0-.421.12-.548.283-.307.396-.74.901-1.015 1.248 0 0 .68-.361 1.051 2.498C28.493 10.053 29.005 8.906 29.005 7.798zM7.29 41c1.203 0 3.988-2.549 6.002-5.5 3.625-5.313 5.583-11.5 5.583-11.5s-7.66 12.009-11.387 16.07C7.237 40.344 7 40.536 7 40.765 7 40.824 7.04 41 7.29 41z"/></svg>