<svg xmlns="http://www.w3.org/2000/svg"  viewBox="0 0 48 48" width="1600px" height="1600px" baseProfile="basic"><circle cx="24" cy="24" r="20" fill="#43a047"/><path fill="#ffeb3b" d="M21.828,29.495c-0.919,0-2.303,1.544-3.284,2.524c-0.98,0.98-4.134,1.391-6.569-1.754	c-2.15-2.776-1.564-5.839,1.735-6.683c-3.435-1.244-2.278-8.19,0.006-10.424c4.885,1.17,7.299,5.505,9.659,9.603l0.564,0.766	l-0.997,5.88L21.828,29.495z"/><path fill="#c0ca33" d="M24.129,29.452c1.062,1.97,2.109,7.076,7.831,4.421c3.826-1.775,5.259-5.735,1.972-7.661	c3,0,5.745-4.476,4.185-9.411c-6.712-0.436-11.737,4.995-13.232,6.339l-0.946,0.388l-0.997,5.88L24.129,29.452z"/><path fill="#afb42b" d="M24.129,29.452c-0.903,0.407-0.361,2.524-1.769,2.294c-0.83-0.136-0.777-1.332-0.532-2.251	c0.318-1.476,1.546-6.734,1.546-6.734s0.028-0.144-0.043-0.466c-0.191-0.86-0.556-1.764-0.899-2.921	c-0.141-0.476,0.09-0.211,0.189-0.041c0.362,0.623,0.771,1.842,1.217,3.207c0.03,0.091,0.208,0.094,0.269,0.021	c0.882-1.059,0.935-1.227,1.329-2.015c0.204-0.407,0.358-0.355,0.219,0.064c-0.224,0.678-0.599,1.212-0.926,1.888	c-0.201,0.415,0.155,0.64,0.155,0.64C24.941,25.263,24.627,27.364,24.129,29.452z"/></svg>