<svg xmlns="http://www.w3.org/2000/svg"  viewBox="0 0 48 48" width="1600px" height="1600px"><path fill="#1565c0" d="M6,10c0-2.209,1.791-4,4-4h28c2.209,0,4,1.791,4,4v28c0,2.209-1.791,4-4,4H10c-2.209,0-4-1.791-4-4 V10z"/><path fill="#fff" d="M37,36l-3.664-4.478C34.999,29.462,36,26.847,36,24c0-6.617-5.383-12-12-12s-12,5.383-12,12	s5.383,12,12,12c2.095,0,4.065-0.543,5.781-1.49L31,36H37z M24,31c-3.86,0-7-3.141-7-7s3.14-7,7-7s7,3.141,7,7	c0,1.278-0.35,2.473-0.95,3.505L28,25h-6l4.519,5.523C25.736,30.827,24.889,31,24,31z"/></svg>