<svg xmlns="http://www.w3.org/2000/svg"  viewBox="0 0 48 48" width="1600px" height="1600px" baseProfile="basic"><path fill="#1a237e" d="M38,42H10c-2.209,0-4-1.791-4-4V10c0-2.209,1.791-4,4-4h28c2.209,0,4,1.791,4,4v28	C42,40.209,40.209,42,38,42z"/><path fill="#fff" d="M13.642,19.942c0-0.088-0.022-0.168-0.068-0.241c-0.045-0.072-0.132-0.14-0.262-0.201	c-0.13-0.063-0.319-0.119-0.571-0.171c-0.297-0.063-0.56-0.146-0.786-0.249s-0.402-0.237-0.528-0.4	c-0.125-0.163-0.188-0.362-0.188-0.598c0-0.228,0.065-0.438,0.196-0.631c0.131-0.193,0.318-0.349,0.563-0.466	c0.244-0.118,0.534-0.177,0.868-0.177c0.352,0,0.654,0.059,0.908,0.177c0.254,0.117,0.449,0.276,0.585,0.478	c0.136,0.2,0.204,0.428,0.204,0.682h-0.964c0-0.166-0.062-0.312-0.185-0.438c-0.123-0.125-0.307-0.188-0.553-0.188	c-0.153,0-0.28,0.025-0.383,0.074s-0.179,0.112-0.229,0.19c-0.05,0.077-0.075,0.163-0.075,0.256c0,0.091,0.025,0.17,0.075,0.237	c0.051,0.067,0.138,0.127,0.261,0.179s0.296,0.101,0.519,0.147c0.32,0.067,0.598,0.152,0.831,0.254	c0.232,0.103,0.412,0.237,0.538,0.404c0.125,0.167,0.188,0.379,0.188,0.635c0,0.246-0.07,0.465-0.211,0.656	c-0.142,0.191-0.34,0.342-0.595,0.451c-0.255,0.108-0.556,0.163-0.902,0.163c-0.386,0-0.711-0.069-0.976-0.206	c-0.264-0.138-0.464-0.313-0.6-0.526c-0.136-0.214-0.204-0.436-0.204-0.666h0.929c0.01,0.166,0.058,0.299,0.142,0.4	c0.084,0.101,0.19,0.174,0.318,0.219c0.128,0.046,0.262,0.068,0.402,0.068c0.165,0,0.303-0.022,0.413-0.066s0.194-0.104,0.253-0.181	C13.612,20.132,13.642,20.043,13.642,19.942z"/><path fill="#fff" d="M18.533,20.63c-0.028-0.15-0.043-0.324-0.043-0.521v-1.853c0-0.323-0.07-0.593-0.212-0.808	c-0.141-0.215-0.334-0.376-0.58-0.481c-0.246-0.106-0.527-0.159-0.843-0.159c-0.354,0-0.662,0.061-0.922,0.183	c-0.261,0.121-0.462,0.281-0.604,0.479s-0.214,0.409-0.214,0.635h0.964c0-0.108,0.029-0.206,0.089-0.291	c0.06-0.086,0.144-0.153,0.253-0.204c0.108-0.051,0.235-0.076,0.38-0.076c0.243,0,0.426,0.065,0.546,0.194	c0.12,0.13,0.181,0.303,0.181,0.521v0.279h-0.583c-0.613,0-1.087,0.119-1.421,0.357s-0.501,0.58-0.501,1.025	c0,0.238,0.062,0.452,0.185,0.643s0.292,0.34,0.507,0.449c0.215,0.108,0.459,0.163,0.733,0.163c0.218,0,0.409-0.035,0.573-0.104	s0.307-0.156,0.427-0.264c0.048-0.042,0.075-0.09,0.115-0.134c0.002,0.01,0.001,0.02,0.002,0.031	c0.024,0.161,0.059,0.292,0.103,0.393h0.986v-0.066C18.602,20.91,18.562,20.78,18.533,20.63z M17.133,20.286	c-0.141,0.076-0.306,0.114-0.495,0.114c-0.207,0-0.367-0.055-0.481-0.165c-0.113-0.11-0.171-0.248-0.171-0.413	c0-0.215,0.086-0.386,0.259-0.511c0.172-0.126,0.429-0.188,0.771-0.188h0.513v0.768c-0.018,0.037-0.035,0.074-0.063,0.112	C17.385,20.115,17.274,20.21,17.133,20.286z"/><path fill="#fff" d="M21.068,20.354c-0.06,0.008-0.122,0.012-0.187,0.012c-0.088,0-0.165-0.012-0.232-0.034	c-0.067-0.023-0.119-0.068-0.155-0.135c-0.037-0.065-0.055-0.163-0.055-0.293v-2.307h0.745v-0.711h-0.745v-1.029h-0.963v1.029	h-0.676v0.711h0.676v2.377c0,0.29,0.047,0.522,0.142,0.697c0.095,0.174,0.226,0.301,0.392,0.378	c0.167,0.078,0.358,0.117,0.573,0.117c0.138,0,0.257-0.01,0.359-0.027c0.103-0.019,0.192-0.04,0.27-0.066v-0.741	C21.176,20.339,21.128,20.346,21.068,20.354z"/><path fill="#fff" d="M23.394,20.393c0.149,0,0.286-0.03,0.407-0.091c0.122-0.062,0.219-0.145,0.292-0.251	c0.072-0.105,0.112-0.228,0.12-0.365h0.908c-0.008,0.277-0.089,0.527-0.244,0.75s-0.361,0.4-0.617,0.532	c-0.257,0.132-0.543,0.198-0.858,0.198c-0.428,0-0.783-0.096-1.066-0.286s-0.495-0.445-0.635-0.765	c-0.14-0.32-0.21-0.674-0.21-1.063v-0.132c0-0.389,0.07-0.742,0.21-1.063c0.14-0.319,0.352-0.574,0.635-0.765	s0.639-0.285,1.066-0.285c0.339,0,0.636,0.066,0.891,0.2c0.255,0.133,0.455,0.318,0.601,0.557c0.145,0.238,0.221,0.517,0.229,0.835	h-0.908c-0.008-0.15-0.045-0.287-0.11-0.411c-0.066-0.125-0.16-0.224-0.28-0.298c-0.12-0.073-0.265-0.11-0.433-0.11	c-0.249,0-0.441,0.064-0.577,0.194c-0.136,0.129-0.229,0.296-0.281,0.501c-0.052,0.204-0.078,0.419-0.078,0.645v0.132	c0,0.229,0.025,0.444,0.076,0.648c0.051,0.205,0.145,0.371,0.281,0.499C22.948,20.329,23.143,20.393,23.394,20.393z"/><path fill="#fff" d="M28.922,17.471c-0.113-0.232-0.273-0.4-0.479-0.505c-0.206-0.105-0.447-0.157-0.725-0.157	c-0.328,0-0.616,0.088-0.861,0.264c-0.114,0.081-0.213,0.18-0.304,0.289v-2.239H25.59v5.965h0.963v-2.951	c0.03-0.059,0.047-0.127,0.086-0.178c0.085-0.114,0.19-0.203,0.314-0.267s0.27-0.095,0.435-0.095c0.158,0,0.292,0.024,0.402,0.074	c0.11,0.049,0.193,0.132,0.251,0.248c0.057,0.116,0.085,0.273,0.085,0.47v2.699h0.967v-2.691	C29.093,18.011,29.036,17.702,28.922,17.471z"/><path fill="#fff" d="M33.355,18.87c0-0.406-0.066-0.764-0.198-1.073s-0.331-0.552-0.598-0.727s-0.603-0.262-1.006-0.262	c-0.365,0-0.692,0.089-0.98,0.268c-0.289,0.179-0.517,0.431-0.682,0.756c-0.166,0.324-0.249,0.706-0.249,1.144v0.159	c0,0.38,0.082,0.724,0.245,1.031c0.163,0.307,0.396,0.55,0.698,0.729c0.304,0.18,0.663,0.271,1.08,0.271	c0.414,0,0.754-0.081,1.02-0.243s0.464-0.343,0.596-0.542l-0.505-0.505c-0.127,0.166-0.277,0.293-0.452,0.381	s-0.375,0.132-0.6,0.132c-0.233,0-0.434-0.055-0.603-0.165c-0.168-0.109-0.296-0.26-0.384-0.448	c-0.069-0.147-0.103-0.313-0.118-0.489h2.735V18.87z M32.404,18.591h-1.742c0.018-0.116,0.017-0.252,0.052-0.352	c0.072-0.208,0.179-0.37,0.318-0.485s0.312-0.173,0.517-0.173c0.204,0,0.368,0.044,0.491,0.132s0.213,0.203,0.27,0.346	s0.088,0.295,0.094,0.458V18.591z"/><path fill="#fff" d="M34.876,21.088h-0.963v-5.965h0.963V21.088z"/><path fill="#fff" d="M35.683,20.606c0-0.153,0.05-0.28,0.149-0.383s0.236-0.153,0.41-0.153	c0.176,0,0.313,0.051,0.413,0.153s0.149,0.229,0.149,0.383c0,0.147-0.05,0.271-0.149,0.373c-0.1,0.101-0.237,0.151-0.413,0.151	c-0.174,0-0.311-0.051-0.41-0.151C35.732,20.878,35.683,20.754,35.683,20.606z M35.687,17.325c0-0.153,0.05-0.28,0.149-0.383	s0.236-0.153,0.41-0.153c0.176,0,0.313,0.051,0.413,0.153s0.149,0.229,0.149,0.383c0,0.147-0.05,0.271-0.149,0.372	c-0.1,0.102-0.237,0.151-0.413,0.151c-0.174,0-0.311-0.05-0.41-0.151C35.736,17.597,35.687,17.473,35.687,17.325z"/><path fill="#29b6f6" d="M11.067,28.114c0-0.86,0.164-1.629,0.49-2.305c0.327-0.675,0.797-1.21,1.41-1.605	c0.613-0.395,1.35-0.593,2.21-0.593c0.872,0,1.615,0.198,2.231,0.593c0.615,0.396,1.085,0.931,1.409,1.605	c0.324,0.676,0.486,1.444,0.486,2.305v0.172c0,0.855-0.162,1.622-0.486,2.301c-0.324,0.678-0.792,1.213-1.405,1.605	c-0.612,0.393-1.353,0.588-2.219,0.588s-1.607-0.195-2.223-0.588s-1.087-0.928-1.414-1.605c-0.326-0.679-0.49-1.445-0.49-2.301	V28.114z M13.095,28.286c0,0.522,0.073,1.001,0.221,1.435c0.146,0.433,0.374,0.78,0.682,1.041c0.308,0.262,0.707,0.393,1.197,0.393	c0.485,0,0.882-0.131,1.189-0.393c0.308-0.261,0.533-0.608,0.678-1.041c0.145-0.434,0.217-0.912,0.217-1.435v-0.172	c0-0.518-0.072-0.994-0.217-1.43s-0.371-0.786-0.682-1.05c-0.311-0.265-0.711-0.396-1.202-0.396c-0.484,0-0.881,0.132-1.188,0.396	c-0.308,0.264-0.534,0.614-0.679,1.05s-0.216,0.912-0.216,1.43V28.286z"/><path fill="#ffb300" d="M27.466,24.98c-0.234-0.482-0.562-0.831-0.98-1.046c-0.42-0.215-0.915-0.323-1.487-0.323	c-0.703,0-1.318,0.179-1.847,0.536c-0.275,0.185-0.514,0.412-0.725,0.673l-0.068-1.045h-1.904v8.842h2.026v-6.264	c0.061-0.113,0.124-0.223,0.2-0.323c0.183-0.239,0.403-0.426,0.662-0.56c0.259-0.133,0.558-0.2,0.896-0.2	c0.332,0,0.613,0.051,0.846,0.151c0.231,0.101,0.405,0.271,0.522,0.511s0.176,0.563,0.176,0.973v5.712h2.035v-5.696	C27.817,26.109,27.7,25.463,27.466,24.98z"/><path fill="#ff7043" d="M36.804,27.951c0-0.855-0.14-1.608-0.417-2.26c-0.278-0.65-0.697-1.16-1.259-1.528	c-0.561-0.367-1.267-0.552-2.116-0.552c-0.769,0-1.456,0.188-2.063,0.564s-1.086,0.905-1.435,1.589	c-0.349,0.685-0.522,1.486-0.522,2.407v0.335c0,0.801,0.172,1.524,0.515,2.17s0.834,1.157,1.471,1.536	c0.638,0.379,1.395,0.567,2.272,0.567c0.871,0,1.586-0.17,2.145-0.511c0.559-0.34,0.977-0.72,1.255-1.14l-1.063-1.063	c-0.268,0.349-0.585,0.616-0.952,0.801c-0.368,0.186-0.789,0.278-1.263,0.278c-0.49,0-0.912-0.116-1.267-0.348	s-0.624-0.546-0.809-0.943c-0.144-0.309-0.215-0.659-0.247-1.03h5.755V27.951z M34.801,27.362h-3.728	c0.038-0.266,0.095-0.514,0.173-0.739c0.153-0.438,0.376-0.779,0.671-1.021c0.294-0.242,0.656-0.363,1.087-0.363	c0.43,0,0.774,0.093,1.033,0.277c0.259,0.186,0.448,0.428,0.568,0.728c0.119,0.3,0.185,0.621,0.195,0.964V27.362z"/></svg>