<svg xmlns="http://www.w3.org/2000/svg"  viewBox="0 0 48 48" width="1600px" height="1600px"><path fill="#37474f" d="M31.613,19.927l-3.341,0.469c0,0,0.505-4.505-5.058-4.505c-2.83,0-3.904,1.802-3.904,3.162 c0,1.661,1.448,2.445,5.968,3.474c4.52,1.03,6.722,2.815,6.722,5.968s-2.18,6.268-8.056,6.268c-5.307,0-7.667-2.464-8.531-7.088 c1.848-0.273,3.479-0.525,3.479-0.525s-0.587,5.094,5.032,5.094c2.555,0,4.855-0.786,4.855-3.35s-2.34-3.068-5.209-3.615 s-7.37-1.618-7.37-6.179c0-4.106,4.166-5.863,6.977-5.863C29.678,13.237,31.613,16.85,31.613,19.927z"/><path fill="#0277bd" d="M24,4C12.954,4,4,12.954,4,24s8.954,20,20,20c11.046,0,20-8.954,20-20S35.046,4,24,4z M24,41 c-9.389,0-17-7.611-17-17S14.611,7,24,7s17,7.611,17,17S33.389,41,24,41z"/></svg>