<svg xmlns="http://www.w3.org/2000/svg"  viewBox="0 0 48 48" width="1600px" height="1600px" baseProfile="basic"><path fill="#37474f" d="M39,42H9c-1.657,0-3-1.343-3-3V9c0-1.657,1.343-3,3-3h30c1.657,0,3,1.343,3,3v30	C42,40.657,40.657,42,39,42z"/><path fill="#fafafa" d="M20.321,18.067l-1.933,2.401l2.016,2.818h-2.053l-1.567-2.295v2.295h-1.698v-5.219h1.698v2.149	l1.598-2.149H20.321z"/><path fill="#fafafa" d="M21.068,18.067h1.685v5.219h-1.685V18.067z"/><path fill="#fafafa" d="M23.704,23.287v-5.219h1.698l-0.004,3.661h2.336v1.558H23.704z"/><path fill="#fafafa" d="M28.688,23.287v-5.219h1.698l-0.004,3.661h2.336v1.558H28.688z"/><path fill="#fafafa" d="M14.311,26.35l-1.687-0.003c-0.014-0.07,0.041-0.541-0.534-0.541c-0.526,0-0.504,0.388-0.504,0.472	c0,0.484,0.448,0.357,1.581,0.766c0.959,0.347,1.189,0.922,1.189,1.542c0,1.479-1.661,1.674-2.324,1.674	c-2.347,0-2.42-1.514-2.433-1.727h1.693c0.035,0.523,0.554,0.546,0.736,0.546c0.093,0,0.472-0.071,0.472-0.463	c0-0.501-0.541-0.446-1.228-0.649c-1.058-0.312-1.552-0.678-1.552-1.746c0-0.029-0.108-1.534,2.258-1.534	C13.281,24.687,14.311,25.18,14.311,26.35z"/><path fill="#fafafa" d="M14.311,19.553l-1.687-0.003c-0.014-0.07,0.041-0.541-0.534-0.541c-0.526,0-0.504,0.388-0.504,0.472	c0,0.484,0.448,0.357,1.581,0.766c0.959,0.347,1.189,0.922,1.189,1.542c0,1.479-1.661,1.674-2.324,1.674	c-2.347,0-2.42-1.514-2.433-1.727h1.693c0.035,0.523,0.554,0.546,0.736,0.546c0.093,0,0.472-0.071,0.472-0.463	c0-0.501-0.541-0.446-1.228-0.649c-1.058-0.312-1.552-0.678-1.552-1.746c0-0.029-0.108-1.534,2.258-1.534	C13.281,17.89,14.311,18.383,14.311,19.553z"/><polygon fill="#fafafa" points="20.391,30.167 20.386,24.834 18.743,24.834 18.743,26.776 16.746,26.776 16.746,24.834 15.103,24.834 15.103,30.167 16.75,30.167 16.75,28.248 18.743,28.248 18.743,30.167"/><path fill="#fafafa" d="M25.198,25.562l0-0.698h1.68v5.278h-1.68l0-0.703"/><path fill="#fafafa" d="M25.348,29.495c-0.284,0.537-0.88,0.805-1.791,0.805c-0.465,0-0.888-0.117-1.268-0.35	c-0.381-0.233-0.682-0.564-0.905-0.991s-0.334-0.913-0.334-1.457c0-0.543,0.112-1.029,0.334-1.457	c0.223-0.428,0.524-0.759,0.905-0.994c0.38-0.235,0.803-0.352,1.268-0.352c0.42,0,0.787,0.071,1.101,0.212	c0.314,0.142,0.544,0.339,0.69,0.593V29.495z M23.087,28.488c0.247,0.254,0.552,0.381,0.914,0.381c0.363,0,0.668-0.127,0.917-0.381	c0.248-0.254,0.373-0.582,0.373-0.986c0-0.403-0.124-0.732-0.373-0.986c-0.248-0.254-0.554-0.381-0.917-0.381	c-0.363,0-0.667,0.127-0.914,0.381c-0.247,0.254-0.37,0.583-0.37,0.986C22.717,27.906,22.84,28.235,23.087,28.488z"/><path fill="#fafafa" d="M27.843,24.864h1.686l0,0.623c0.179-0.253,0.406-0.434,0.68-0.544	c0.274-0.109,0.833-0.164,1.256-0.164v1.546h-0.677c-0.695,0-1.259,0.564-1.259,1.259v2.558h-1.686V24.864z"/><path fill="#fafafa" d="M34.596,24.728c0.424,0,0.815,0.074,1.172,0.222c0.358,0.148,0.662,0.357,0.914,0.628	c0.252,0.271,0.442,0.611,0.569,1.022c0.127,0.411,0.173,0.864,0.139,1.361h-3.975c0,0,0,1.056,1.181,1.056	c0.943,0,1.05-0.481,1.05-0.481h1.646c0,0-0.25,1.737-2.696,1.737c-2.727,0-2.869-2.343-2.869-2.77c0-0.427,0.077-0.817,0.232-1.17	c0.155-0.353,0.364-0.646,0.626-0.876c0.263-0.231,0.567-0.41,0.912-0.537C33.843,24.792,34.209,24.728,34.596,24.728z M34.562,25.842c-1.1,0-1.147,1.06-1.147,1.06h2.298C35.713,26.902,35.664,25.841,34.562,25.842z"/><circle cx="21.911" cy="16.257" r=".957" fill="#00e676"/><circle cx="38.86" cy="29.258" r=".957" fill="#00e676"/></svg>