<svg xmlns="http://www.w3.org/2000/svg"  viewBox="0 0 48 48" width="1600px" height="1600px" baseProfile="basic"><path fill="#7e57c2" d="M6,10c0-2.209,1.791-4,4-4h28c2.209,0,4,1.791,4,4v28c0,2.209-1.791,4-4,4H10c-2.209,0-4-1.791-4-4	V10z"/><polygon fill="#ffca28" points="23,38 20,38 20,33 21.5,34 21.5,36.6"/><polygon fill="#ffca28" points="26.5,38 23.5,38 23.5,33 25,34 25,36.6"/><path fill="#bdbdbd" d="M33.021,25.448l3.167,6.433c0,0-2.959,1.467-5.258-1.027L33.021,25.448z"/><path fill="#e0e0e0" d="M33,10.7V26c0,4.42-3.58,8-8,8h-9V10.72l1.259-0.461L19,12h11l1.81-1.81L33,10.7z"/><circle cx="21.5" cy="17.5" r="3.5" fill="#ffca28"/><path fill="#212121" d="M21.5,21.5c-2.206,0-4-1.794-4-4s1.794-4,4-4s4,1.794,4,4S23.706,21.5,21.5,21.5z M21.5,14.5	c-1.654,0-3,1.346-3,3s1.346,3,3,3s3-1.346,3-3S23.154,14.5,21.5,14.5z"/><path fill="#212121" d="M23,17.5c0,0.83-0.67,1.5-1.5,1.5S20,18.33,20,17.5s0.67-1.5,1.5-1.5c0.04,0,0.08,0,0.12,0.01	c-0.21,0.38-0.15,0.88,0.17,1.2s0.82,0.38,1.2,0.17C23,17.42,23,17.46,23,17.5z"/><circle cx="30.5" cy="17.5" r="3.5" fill="#ffca28"/><path fill="#212121" d="M30.5,21.5c-2.206,0-4-1.794-4-4s1.794-4,4-4s4,1.794,4,4S32.706,21.5,30.5,21.5z M30.5,14.5	c-1.654,0-3,1.346-3,3s1.346,3,3,3s3-1.346,3-3S32.154,14.5,30.5,14.5z"/><path fill="#212121" d="M32,17.5c0,0.83-0.67,1.5-1.5,1.5S29,18.33,29,17.5s0.67-1.5,1.5-1.5c0.04,0,0.08,0,0.12,0.01	c-0.21,0.38-0.15,0.88,0.17,1.2s0.82,0.38,1.2,0.17C32,17.42,32,17.46,32,17.5z"/><polygon fill="#ffca28" points="25.2,23 25.2,20 28,21.5"/><path fill="#bdbdbd" d="M11.707,31.856l4.329-9.538c0,0,5.503,1.93,3.009,8.044l-1.297-0.585	C17.747,29.777,15.968,33.564,11.707,31.856z"/><circle cx="32.28" cy="10.72" r=".72" fill="#e0e0e0"/><circle cx="16.72" cy="10.72" r=".72" fill="#e0e0e0"/><path fill="#bdbdbd" d="M27.457,28.375c0,0.729-0.591,1.321-1.321,1.321s-1.321-0.591-1.321-1.321H27.457z"/><path fill="#bdbdbd" d="M29.429,25.652c0,0.729-0.591,1.321-1.321,1.321s-1.321-0.591-1.321-1.321H29.429z"/><path fill="#bdbdbd" d="M25.435,25.652c0,0.729-0.591,1.321-1.321,1.321s-1.321-0.591-1.321-1.321H25.435z"/><rect width="2" height="1" x="25" y="17" fill="#212121"/><path fill="#212121" d="M15,19.245h-1C14,18.007,15.007,17,16.244,17H18v1h-1.756C15.559,18,15,18.558,15,19.245z"/></svg>