<svg xmlns="http://www.w3.org/2000/svg"  viewBox="0 0 48 48" width="1600px" height="1600px"><path fill="#eceff1" d="M22.509,45.038c-1.472,0-2.967-0.242-4.443-0.722c-3.68-1.196-6.478-4.151-7.781-8.177 C7.93,34.722,3.25,31.012,3.25,23.922c0-3.87,1.946-7.444,5.372-9.927c0.619-2.679,2.701-8.276,9.445-10.467 c1.157-0.376,2.35-0.566,3.543-0.566c3.192,0,5.779,1.312,7.552,2.605c0.469-0.044,0.943-0.066,1.417-0.066 c2.702,0,7.784,0.756,11.46,5.817c2.275,3.13,2.801,7.166,1.489,11.188c1.073,2.532,2.678,8.283-1.489,14.02 c-2.283,3.142-5.893,4.873-10.162,4.873c0,0-0.008,0-0.011,0C29.232,43.722,25.87,45.038,22.509,45.038z"/><path fill="#388e3c" d="M16.524,13.201c-4.084,0-11.232,3.829-11.232,10.721c0,7.658,6.382,11.232,9.19,11.742 c-3.063-2.297-4.084-4.595-4.084-6.126c0-3.063,2.297-5.616,6.126-6.126c2.82,0,5.105-2.286,5.105-5.105 S19.344,13.201,16.524,13.201z"/><path fill="#d81b60" d="M11.972,28.378c-1.262,3.884,0.171,11.865,6.726,13.995c7.283,2.366,12.654-2.599,14.008-5.111 c-3.132,2.203-5.632,2.465-7.089,1.991c-2.913-0.947-4.631-3.92-3.933-7.72c0.871-2.682-0.596-5.562-3.278-6.433 C15.723,24.229,12.843,25.696,11.972,28.378z"/><path fill="#3949ab" d="M24.999,37.397c3.304,2.401,11.337,3.504,15.389-2.072c4.501-6.196,1.439-12.838-0.533-14.901 c1.128,3.659,0.603,6.118-0.297,7.357c-1.801,2.478-5.16,3.193-8.558,1.355c-2.281-1.657-5.474-1.152-7.131,1.129 C22.213,32.547,22.718,35.74,24.999,37.397z"/><path fill="#e53935" d="M37.603,27.795c3.304-2.401,6.836-9.7,2.785-15.276c-4.501-6.196-11.765-5.336-14.337-4.098 c3.829,0.058,6.005,1.317,6.905,2.556c1.801,2.478,1.442,5.894-1.355,8.558c-2.281,1.657-2.787,4.85-1.129,7.131 C32.129,28.946,35.322,29.452,37.603,27.795z"/><path fill="#4a148c" d="M32.365,12.84c-1.262-3.884-7.113-9.499-13.668-7.369c-5.556,1.805-7.699,6.403-8.235,9.74 c0.564-0.362,1.143-0.68,1.726-0.945c0.919-1.231,1.901-1.93,2.746-2.204c2.913-0.947,6.051,0.45,7.72,3.934 c0.871,2.682,3.751,4.149,6.433,3.278C31.769,18.402,33.236,15.522,32.365,12.84z"/></svg>