<svg xmlns="http://www.w3.org/2000/svg"  viewBox="0 0 48 48" width="1600px" height="1600px" baseProfile="basic"><polygon fill="#e62b1e" points="5.505,21.34 1,21.34 1,17 15,17 15,21.34 10.494,21.34 10.494,34 5.505,34"/><polygon fill="#e62b1e" points="15.96,17 30,17 30,21.34 21.107,21.34 21.107,23.433 30,23.433 30,27.516 21.107,27.516 21.107,29.66 30,29.66 30,34 15.96,34"/><path fill="#e62b1e" d="M39.506,17h-8.444v17h7.444C44.302,34,47,30.682,47,25.475C47,21.186,45.052,17,39.506,17z M38.207,29.66h-1.998l-0.051-8.27h1.649c3.698,0,4.048,2.961,4.048,4.033C41.855,27.006,41.404,29.66,38.207,29.66z"/></svg>