<svg xmlns="http://www.w3.org/2000/svg"  viewBox="0 0 48 48" width="1600px" height="1600px" baseProfile="basic"><rect width="30" height="38" x="9" y="5" fill="#fff"/><path fill="#42a5f5" d="M15,9.74V5H9c0,0.47,0.17,0.96,0.5,1.43C10.36,7.68,12.29,8.88,15,9.74z"/><path fill="#1565c0" d="M31,12.31c-1.84,0.39-3.86,0.62-6,0.68v5.99c2.16-0.1,4.19-0.5,6-1.14V12.31z"/><path fill="#1565c0" d="M38.5,6.43C38.83,5.96,39,5.47,39,5h-6v4.74C35.71,8.88,37.64,7.68,38.5,6.43z"/><path fill="#1565c0" d="M31,5h-6v5.98c2.2-0.05,4.22-0.31,6-0.71V5z"/><path fill="#42a5f5" d="M15,16.99v-5.17c-2.52-0.72-4.59-1.75-5.99-3L9,8.81V9C9,12.26,11.36,15.17,15,16.99z"/><path fill="#1565c0" d="M25,20.97V30h4v2h-4v2h4v2h-4v7h14V14.64C36.29,18.22,31.07,20.73,25,20.97z"/><path fill="#1565c0" d="M33,11.82v5.17c3.64-1.82,6-4.73,6-7.99V8.81l-0.01,0.01C37.59,10.07,35.52,11.1,33,11.82z"/><path fill="#42a5f5" d="M9,14.64V43h14v-7h-4v-2h4v-2h-4v-2h4v-9.03C16.93,20.73,11.71,18.22,9,14.64z"/><path fill="#42a5f5" d="M17,10.27c1.78,0.4,3.8,0.66,6,0.71V5h-6V10.27z"/><path fill="#42a5f5" d="M17,17.84c1.81,0.64,3.84,1.04,6,1.14v-5.99c-2.14-0.06-4.16-0.29-6-0.68V17.84z"/></svg>