<svg xmlns="http://www.w3.org/2000/svg"  viewBox="0 0 48 48" width="1600px" height="1600px" baseProfile="basic"><rect width="36" height="36" x="6" y="6" fill="#fff"/><rect width="17.514" height="16.541" x="6" y="25.459" fill="#1565c0"/><rect width="17.514" height="17.514" x="6" y="6" fill="#1565c0"/><rect width="16.541" height="17.514" x="25.459" y="6" fill="#1565c0"/><rect width="16.541" height="16.541" x="25.459" y="25.459" fill="#1565c0"/><path fill="#fff" d="M11.111,8.766v7.073c0,2.677,1.188,3.812,2.783,3.812c1.773,0,2.907-1.17,2.907-3.812V8.766h1.56	v6.967c0,3.669-1.933,5.176-4.521,5.176c-2.447,0-4.29-1.4-4.29-5.106V8.766H11.111z"/><path fill="#fff" d="M28.828,20.715V8.766h1.685l3.83,6.045c0.886,1.4,1.578,2.659,2.145,3.882l0.035-0.018	c-0.141-1.595-0.176-3.049-0.176-4.911V8.766h1.454v11.949h-1.56l-3.794-6.063c-0.833-1.33-1.631-2.695-2.235-3.989l-0.053,0.018	c0.089,1.506,0.124,2.943,0.124,4.928v5.106H28.828z"/><path fill="#fff" d="M10.337,27.412c0.94-0.142,2.057-0.248,3.28-0.248c2.217,0,3.795,0.514,4.84,1.489	c1.064,0.975,1.685,2.358,1.685,4.29c0,1.95-0.603,3.546-1.719,4.645c-1.117,1.117-2.961,1.719-5.283,1.719	c-1.1,0-2.021-0.053-2.802-0.141V27.412z M11.88,37.978c0.39,0.071,0.957,0.089,1.56,0.089c3.297,0,5.087-1.844,5.087-5.07	c0.019-2.818-1.578-4.609-4.839-4.609c-0.798,0-1.402,0.071-1.809,0.16V37.978z"/><path fill="#fff" d="M30.001,28.247c0.745-0.124,1.721-0.23,2.961-0.23c1.526,0,2.642,0.354,3.352,0.993	c0.655,0.567,1.045,1.436,1.045,2.499c0,1.081-0.319,1.932-0.922,2.553c-0.814,0.868-2.145,1.312-3.651,1.312	c-0.462,0-0.888-0.018-1.241-0.107v4.787h-1.543V28.247z M31.544,34.009c0.336,0.089,0.762,0.124,1.276,0.124	c1.862,0,2.997-0.904,2.997-2.553c0-1.578-1.117-2.34-2.819-2.34c-0.674,0-1.188,0.053-1.454,0.124V34.009z"/></svg>