<svg xmlns="http://www.w3.org/2000/svg"  viewBox="0 0 48 48" width="1600px" height="1600px" baseProfile="basic"><path fill="#1565c0" d="M42,6v36H6V6H42z"/><path fill="#fff" d="M23.997,10.021l-13.331,3.75v1.396L24,11.417l13.333,3.729V13.75L23.997,10.021z M23.997,12.021	l-9.581,2.763h4.505L24,13.417l5.333,1.367h4.529L23.997,12.021z M10.667,16.104v1.333h26.667v-1.333H10.667z M10.667,18.771v9	c0,0.914,0.753,1.667,1.667,1.667S14,28.685,14,27.771v-9h-1.333v9c0,0.188-0.146,0.333-0.333,0.333S12,27.958,12,27.771v-9H10.667z M15.333,18.771v10.667h1.333v-4.021l0.656,4.021h1.344V18.771h-1.333v4.021l-0.656-4.021H15.333z M20,18.771v10.667h2.667v-1.333	h-1.333v-3.333h1.333v-1.333h-1.333v-3.333h1.333v-1.333H20z M30.333,18.771c-0.914,0-1.667,0.753-1.667,1.667v7.333	c0,0.914,0.753,1.667,1.667,1.667S32,28.685,32,27.771v-1.667h-1.333v1.667c0,0.188-0.146,0.333-0.333,0.333S30,27.958,30,27.771	v-7.333c0-0.188,0.146-0.333,0.333-0.333s0.333,0.146,0.333,0.333v1.667H32v-1.667C32,19.523,31.247,18.771,30.333,18.771z M35,18.771c-0.914,0-1.667,0.753-1.667,1.667v7.333c0,0.914,0.753,1.667,1.667,1.667s1.667-0.753,1.667-1.667v-7.333	C36.667,19.523,35.914,18.771,35,18.771z M35,20.104c0.187,0,0.333,0.146,0.333,0.333v7.333c0,0.188-0.146,0.333-0.333,0.333	c-0.188,0-0.333-0.146-0.333-0.333v-7.333C34.667,20.25,34.812,20.104,35,20.104z M10.667,30.771v1.333h26.667v-1.333H10.667z M9.333,32.771v1.333h29.333v-1.333H9.333z M8,34.771v1.333h32v-1.333H8z"/><path fill="#fff" d="M25.44,18.771c-0.98,0-1.778,0.798-1.778,1.778v1.504l2.37,4.402v1.205	c0,0.327-0.266,0.593-0.593,0.593c-0.327,0-0.593-0.266-0.593-0.593v-1.185h-1.185v1.185c0,0.98,0.798,1.778,1.778,1.778	c0.98,0,1.778-0.798,1.778-1.778v-1.504l-2.37-4.402v-1.205c0-0.327,0.266-0.593,0.593-0.593c0.327,0,0.593,0.266,0.593,0.593v1.185	h1.185v-1.185C27.218,19.568,26.42,18.771,25.44,18.771z"/></svg>