<svg xmlns="http://www.w3.org/2000/svg"  viewBox="0 0 48 48" width="1600px" height="1600px" baseProfile="basic"><circle cx="24" cy="24" r="20" fill="#fff"/><path fill="#e89419" d="M32.581,19.65c-0.221,0-0.441,0.04-0.592,0.09v3.78c0.13,0.02,0.251,0.02,0.401,0.02	c1.194,0,1.726-0.85,1.726-1.98C34.116,20.5,33.685,19.65,32.581,19.65z M32.581,19.65c-0.221,0-0.441,0.04-0.592,0.09v3.78	c0.13,0.02,0.251,0.02,0.401,0.02c1.194,0,1.726-0.85,1.726-1.98C34.116,20.5,33.685,19.65,32.581,19.65z M32.581,19.65	c-0.221,0-0.441,0.04-0.592,0.09v3.78c0.13,0.02,0.251,0.02,0.401,0.02c1.194,0,1.726-0.85,1.726-1.98	C34.116,20.5,33.685,19.65,32.581,19.65z M32.581,19.65c-0.221,0-0.441,0.04-0.592,0.09v3.78c0.13,0.02,0.251,0.02,0.401,0.02	c1.194,0,1.726-0.85,1.726-1.98C34.116,20.5,33.685,19.65,32.581,19.65z M41.751,17.8l1.916,9.81c0.231-1.25,0.351-2.53,0.331-3.85	c-0.13-11-9.27-19.89-20.305-19.76C14.915,4.11,7.471,9.9,4.872,17.8h1.505v7.92c0,1.79,0.532,2.34,1.164,2.34	c0.682,0,1.174-0.5,1.174-2.34V17.8h2.388v7.5c0,3.14-1.194,4.83-3.551,4.83c-2.047,0-3.09-1.12-3.421-3.13H4.11	c1.475,9.69,9.982,17.12,20.074,17c8.858-0.11,16.352-6.01,18.891-14.01h-1.264l-0.522-2.79h-2.197l-0.532,2.79h-2.307l2.648-12.19	H41.751z M20.402,29.99h-2.187l-1.846-4.64c-0.421-1.03-0.973-2.57-1.254-3.66h-0.04c0.07,1.22,0.161,3.1,0.161,5.56v2.74h-2.087	V17.8h2.177l1.886,4.78c0.371,0.94,0.963,2.5,1.304,3.55h0.04c-0.09-1.27-0.241-3.4-0.241-5.64V17.8h2.087V29.99z M27.826,19.85	h-2.929v3.14h2.759v1.97h-2.759v5.03h-2.388V17.8h5.317V19.85z M35.45,24.29c-0.762,0.8-1.996,1.16-2.98,1.16h-0.482v4.54h-2.368	V17.98c0.682-0.15,1.575-0.24,2.488-0.24c1.415,0,2.528,0.21,3.321,0.94c0.732,0.65,1.053,1.64,1.053,2.67	C36.484,22.67,36.082,23.61,35.45,24.29z M32.581,19.65c-0.221,0-0.441,0.04-0.592,0.09v3.78c0.13,0.02,0.251,0.02,0.401,0.02	c1.194,0,1.726-0.85,1.726-1.98C34.116,20.5,33.685,19.65,32.581,19.65z M32.581,19.65c-0.221,0-0.441,0.04-0.592,0.09v3.78	c0.13,0.02,0.251,0.02,0.401,0.02c1.194,0,1.726-0.85,1.726-1.98C34.116,20.5,33.685,19.65,32.581,19.65z M40.677,22.81	c-0.12-0.74-0.281-1.96-0.401-2.77h-0.05c-0.13,0.81-0.311,2.07-0.441,2.78l-0.441,2.54h1.736L40.677,22.81z M32.581,19.65	c-0.221,0-0.441,0.04-0.592,0.09v3.78c0.13,0.02,0.251,0.02,0.401,0.02c1.194,0,1.726-0.85,1.726-1.98	C34.116,20.5,33.685,19.65,32.581,19.65z"/></svg>