<svg xmlns="http://www.w3.org/2000/svg"  viewBox="0 0 48 48" width="1600px" height="1600px" baseProfile="basic"><path fill="#1565c0" d="M42,6v36H6V6H42z"/><path fill="#fff" d="M27.873,24.906c0,0.32-0.265,0.585-0.585,0.585h-6.434c0,0-2.784-0.101-3.494,0.476	c0.172-0.187,1.575-1.646,3.4-1.646h1.747c0.008,0,0.008,0,0.008,0h4.773C27.608,24.321,27.873,24.586,27.873,24.906z"/><path fill="#fff" d="M27.873,28.025c0,0.32-0.265,0.585-0.585,0.585h-5.654c0,0-1.123,0.031-2.34-0.78	c-1.17-0.78-2.34-0.78-2.34-0.78s2.043-0.289,2.73,0c0.686,0.289,1.076,0.39,1.95,0.39h5.654	C27.608,27.44,27.873,27.705,27.873,28.025z"/><path fill="#fff" d="M27.873,23.346c0,0.32-0.265,0.585-0.585,0.585h-5.654c-2.012,0-2.995,0.686-3.112,0.772	c0.873-1.942,3.112-1.942,3.112-1.942h5.654C27.608,22.761,27.873,23.026,27.873,23.346z"/><path fill="#fff" d="M27.873,26.465c0,0.32-0.265,0.585-0.585,0.585h-5.56c0,0-0.031,0-0.094,0	c-0.335-0.008-1.482-0.047-2.145-0.289c-0.78-0.296-1.95-0.101-2.73,0.094c1.365-1.076,3.314-0.975,3.314-0.975h7.214	C27.608,25.88,27.873,26.146,27.873,26.465z"/><path fill="#fff" d="M23.194,30.755c0,0-1.365-0.682-1.95-1.657c2.632,0,3.704,0,3.704,0s-0.195,1.17-0.682,1.56	c0.195,0.682,0.39,1.267,0.39,1.267l-0.975,0.292C23.681,32.217,23.389,31.437,23.194,30.755z"/><path fill="#fff" d="M25.436,29.097h0.975c0,0,0.487,1.56,0.487,2.34c-0.39-0.487-0.78-1.755-0.78-1.755	s0.195,0.877,0.097,1.17C26.021,30.657,25.631,30.17,25.436,29.097z"/><path fill="#fff" d="M26.606,29.097h0.292c0,0,1.072,2.34,1.072,2.632C27.678,31.632,26.606,29.097,26.606,29.097z"/><path fill="#fff" d="M27.191,29.097h0.39c0,0,0.39,1.17,0.292,1.365C27.58,30.17,27.191,29.097,27.191,29.097z"/><path fill="#fff" d="M23.49,19.158c0-1.17,0.76-4.283-0.615-5.158c0.375,1.375,0.124,1.937-0.071,2.428	c-0.195,0.484-0.39,0.873-0.484,1.56c-0.203-0.686,0.064-1.333,0.18-1.738c0.25-0.875,0.14-1.216-0.25-2	c-0.125,1-0.32,1.399-0.71,1.788c-0.203-0.491-0.39-0.593-0.39-0.593s-0.101-0.78-0.78-0.873c-0.203-0.585-0.78-0.686-1.271-0.484	c-0.585,0-0.975,0.39-0.881,1.17c-0.187,0.187-0.39,0.678-0.289,1.068c-0.101,0.101-0.289,0.585-0.101,1.17	c-0.094,0.289-0.289,0.975,0.101,1.458c-0.881-0.967-2.924-2.043-3.314-2.043c1.56,1.466,3.213,3.806,4.094,6.824	c0,0,0.975-1.458,2.924-1.458s2.34,0,2.34,0S23.49,20.328,23.49,19.158z M21.829,18.113c-0.094,0.14-0.32,0.156-0.507,0.023	c-0.187-0.125-0.257-0.343-0.156-0.484c0.094-0.14,0.328-0.148,0.507-0.023C21.86,17.762,21.93,17.973,21.829,18.113z M20.464,17.606c0.242-0.047,0.476,0.086,0.515,0.296c0.039,0.218-0.133,0.421-0.382,0.468c-0.25,0.039-0.484-0.094-0.515-0.304	C20.043,17.856,20.215,17.645,20.464,17.606z M19.895,17.091c-0.047-0.164,0.078-0.351,0.289-0.413	c0.211-0.062,0.421,0.016,0.468,0.179c0.055,0.164-0.078,0.351-0.289,0.413C20.16,17.333,19.949,17.255,19.895,17.091z M20.659,18.674c0.242-0.047,0.476,0.094,0.515,0.304c0.039,0.211-0.133,0.421-0.382,0.46c-0.25,0.047-0.484-0.094-0.515-0.304	C20.238,18.924,20.41,18.721,20.659,18.674z M21.47,16.655c0.195,0.086,0.304,0.289,0.234,0.445	c-0.07,0.156-0.289,0.211-0.491,0.117c-0.203-0.086-0.304-0.289-0.234-0.445C21.049,16.616,21.267,16.561,21.47,16.655z M20.839,15.828c0.172-0.016,0.32,0.086,0.328,0.234c0.016,0.14-0.101,0.273-0.273,0.289c-0.164,0.016-0.312-0.086-0.328-0.226	C20.55,15.976,20.675,15.851,20.839,15.828z M20.464,14.962c0.164,0,0.296,0.109,0.296,0.242c0,0.14-0.133,0.242-0.296,0.242	s-0.296-0.101-0.296-0.242C20.168,15.071,20.3,14.962,20.464,14.962z M20.347,16.093c0.016,0.164-0.117,0.312-0.304,0.335	c-0.187,0.016-0.351-0.101-0.374-0.265c-0.016-0.172,0.125-0.32,0.312-0.343C20.168,15.804,20.332,15.921,20.347,16.093z M19.388,17.138c-0.211,0.062-0.421-0.016-0.476-0.179c-0.047-0.164,0.086-0.351,0.289-0.413c0.211-0.062,0.421,0.016,0.476,0.179	C19.723,16.889,19.591,17.076,19.388,17.138z M19.684,14.276c0.164,0,0.296,0.109,0.296,0.25c0,0.133-0.133,0.242-0.296,0.242	c-0.164,0-0.296-0.109-0.296-0.242C19.388,14.385,19.521,14.276,19.684,14.276z M19.684,15.056c0.164,0,0.296,0.109,0.296,0.25	c0,0.133-0.133,0.242-0.296,0.242c-0.164,0-0.296-0.109-0.296-0.242C19.388,15.165,19.521,15.056,19.684,15.056z M19.419,15.898	c0.078,0.109,0.031,0.273-0.094,0.367c-0.133,0.094-0.304,0.078-0.382-0.031c-0.078-0.109-0.031-0.273,0.101-0.367	C19.177,15.773,19.341,15.789,19.419,15.898z M18.811,14.377c0.156,0,0.289,0.109,0.289,0.242c0,0.14-0.133,0.25-0.289,0.25	c-0.164,0-0.296-0.109-0.296-0.25C18.515,14.487,18.647,14.377,18.811,14.377z M18.811,15.056c0.156,0,0.289,0.109,0.289,0.25	c0,0.133-0.133,0.242-0.289,0.242c-0.164,0-0.296-0.109-0.296-0.242C18.515,15.165,18.647,15.056,18.811,15.056z M18.179,15.688	c0.133-0.094,0.304-0.078,0.382,0.031c0.078,0.109,0.031,0.273-0.101,0.367c-0.133,0.094-0.304,0.078-0.382-0.031	C18,15.945,18.047,15.781,18.179,15.688z M18.218,16.53c0.172-0.094,0.374-0.047,0.468,0.101c0.086,0.156,0.016,0.351-0.148,0.452	c-0.172,0.094-0.382,0.055-0.468-0.101C17.984,16.834,18.047,16.631,18.218,16.53z M18.312,17.481	c0.164-0.101,0.374-0.055,0.46,0.094c0.094,0.156,0.023,0.359-0.14,0.452c-0.172,0.101-0.382,0.055-0.468-0.094	C18.078,17.778,18.14,17.575,18.312,17.481z M18.164,18.885c-0.086-0.148-0.008-0.359,0.179-0.468	c0.187-0.109,0.413-0.078,0.499,0.07c0.086,0.156,0.008,0.367-0.179,0.476C18.476,19.072,18.249,19.033,18.164,18.885z M18.865,19.938c-0.094-0.125-0.242-0.289-0.437-0.445c0.023-0.023,0.047-0.047,0.078-0.062c0.164-0.101,0.374-0.055,0.46,0.094	C19.045,19.665,18.998,19.836,18.865,19.938z M19.014,17.856c-0.039-0.211,0.133-0.413,0.382-0.46	c0.242-0.047,0.476,0.094,0.515,0.304c0.039,0.211-0.133,0.421-0.382,0.46C19.279,18.206,19.045,18.066,19.014,17.856z M19.17,18.94	c-0.039-0.211,0.133-0.413,0.382-0.46s0.484,0.094,0.515,0.304c0.039,0.211-0.133,0.421-0.382,0.46	C19.443,19.291,19.209,19.15,19.17,18.94z M19.271,20.016c-0.039-0.211,0.133-0.421,0.382-0.46c0.242-0.047,0.476,0.086,0.515,0.296	c0.039,0.218-0.133,0.421-0.382,0.468C19.536,20.359,19.31,20.226,19.271,20.016z M20.027,21.287c-0.039,0.008-0.07,0-0.109,0	c-0.109-0.164-0.218-0.312-0.328-0.46c0.047-0.109,0.164-0.203,0.312-0.234c0.226-0.039,0.429,0.086,0.468,0.273	C20.402,21.061,20.246,21.248,20.027,21.287z M20.472,20.211c-0.039-0.211,0.133-0.421,0.382-0.46	c0.242-0.047,0.476,0.086,0.515,0.296c0.039,0.218-0.133,0.421-0.382,0.468C20.737,20.554,20.503,20.421,20.472,20.211z M21.244,21.583c-0.242,0.047-0.476-0.094-0.515-0.304c-0.039-0.211,0.133-0.413,0.382-0.46c0.25-0.047,0.484,0.094,0.515,0.304	C21.665,21.334,21.494,21.544,21.244,21.583z M21.728,20.125c0,0-0.39-0.289,0.101-0.577L21.728,20.125z M21.93,19.252	c0,0-0.491-0.094-0.491-0.39c0-0.406,0.678-0.195,0.678-0.195L21.93,19.252z"/><path fill="#fff" d="M24.461,22.274h1.072c0,0-0.097-2.437,0.585-3.314c-0.292,0.195-0.682,0.78-0.78,1.657	c0.097-1.072,0.487-2.437,1.17-2.632c-0.292,0-1.267,0-1.56,1.657c0.292-1.462,0.585-2.242,2.047-3.802c0,0-1.56,0.975-1.852,1.657	c0.195-1.365,0.78-3.607,1.365-4.094c-0.877,0.487-2.242,3.704-2.145,6.726C24.364,20.616,24.461,22.274,24.461,22.274z"/><path fill="#fff" d="M25.826,22.274h1.072c0,0,1.072-5.167,4.874-5.752c-0.975-0.097-3.217,0.097-4.874,3.704	c0.487-1.462,1.657-4.094,1.657-4.094S26.118,19.349,25.826,22.274z"/><path fill="#fff" d="M27.191,22.274h0.487c0,0,0.487-1.267,0.78-1.56C27.873,20.811,27.191,22.274,27.191,22.274z"/><path fill="#fff" d="M28.848,20.324c0,0,0.097-0.487-0.097-0.682c-0.195-0.195,0.292-0.877,0.292-0.877	s-1.267,1.267-0.487,1.755c0.097,0.195,0.487,0.78,1.852-0.195c-0.682,0.195-0.682,0.292-1.072,0.195	C29.14,20.226,28.848,20.324,28.848,20.324z"/><path fill="#fff" d="M29.238,19.934c0,0,0.195,0.877,1.657-0.097c-0.39,0.097-0.975,0-0.975,0s-0.195-0.195-0.39-0.097	c0-0.195-0.097-0.39-0.097-0.39s-0.097-0.585,0.195-0.975C29.335,18.862,28.555,19.739,29.238,19.934z"/><path fill="#fff" d="M29.823,19.446c0,0-0.487-0.097-0.097-0.585c0.39-0.487,0.585-0.78,0.585-0.78	s-0.39,0.877-0.195,1.17c0.487,0.097,1.17-0.195,1.17-0.195S30.018,20.226,29.823,19.446z"/><ellipse cx="30.432" cy="19.91" fill="#fff" rx=".31" ry=".195" transform="rotate(-45.001 30.432 19.91)"/><path fill="#fff" d="M30.31,19.739c0,0,0.487-0.195,0.975-0.585c-0.292,0.292-0.682,0.78-0.682,0.78L30.31,19.739z"/><path fill="#fff" d="M28.934,34.022c0,0,0.374-0.125,0.997-0.686c0.562-0.499,0.686-1.185,1.186-1.872	c0.562-0.749,1.809-1.871,1.809-1.871s-0.374,1.56-0.749,2.308c-0.499,1.06-1.122,1.435-1.122,1.435s0.311,0.187,0.686,0	c0.374-0.187,0.811-0.374,1.373-0.312c0.562,0.062,1.31,0.062,2.06-0.374c0.749-0.438,1.373-0.873,1.373-0.873	s-0.438,1.435-2.308,2.184c-1.186,0.501-2.558,0.501-2.995,0.25c-0.438-0.25-0.936-0.374-1.311-0.25	C29.62,34.148,28.934,34.022,28.934,34.022 M34.861,26.474c0,0-0.749,1.56-0.998,2.308c-0.249,0.749-0.311,1.933-0.437,2.496	c-0.125,0.562-0.374,0.811-0.374,0.811s2.371-0.187,3.494-0.998c1.809-1.249,2.121-3.369,2.121-3.369s-0.624,0.936-1.435,1.435	c-0.499,0.312-1.435,0.811-1.997,1.186c-0.499,0.374-0.624,0.873-0.873,0.749c-0.25-0.125,0.062-0.749,0.311-1.249	c0.187-0.437,0.312-1.06,0.187-1.497C34.861,27.846,34.861,26.474,34.861,26.474 M35.796,23.417c0,0-0.25,1.56-0.187,2.184	c0.062,0.624,0.25,1.622,0.187,2.433c-0.062,0.873-0.187,1.248-0.187,1.248s2.496-1.56,3.119-2.995	c0.374-0.873,0.749-2.371,0.749-2.371s-0.125,0.25-0.499,0.749c-0.374,0.562-0.936,0.749-1.373,1.435	c-0.562,0.873-1.122,1.373-1.122,1.373s0.125-1.436,0.062-1.872C36.483,25.102,35.796,23.417,35.796,23.417 M35.734,19.922	c0,0,0.062,1.997,0.311,2.496c0.312,0.624,0.625,1.185,0.998,2.059c0.374,0.873,0.25,0.749,0.25,0.749s0.249-0.249,0.374-0.437	c0.125-0.188,0.936-0.873,1.311-2.246c0.374-1.373,0.062-3.119,0.062-3.119s-0.187,0.562-0.25,0.999	c-0.125,0.498-0.686,1.185-0.873,1.808c-0.187,0.686-0.187,1.123-0.312,1.123c-0.124,0-0.311-0.438-0.374-0.873	c0-0.374-0.562-1.061-0.998-1.747C35.983,20.173,35.734,19.922,35.734,19.922 M34.923,17.053c0,0,0.437,0.811,0.686,1.497	c0.312,0.686,1.061,1.497,1.435,1.933c0.374,0.438,0.499,0.811,0.499,0.811s0.187-0.624,0.438-1.122	c0.499-0.873,0.437-1.123,0.499-2.246c0-1.123-1.06-2.683-1.06-2.683s0.124,0.562,0.186,0.936c0.062,0.374-0.062,1.872-0.124,2.184	c-0.062,0.312,0.124,1.123-0.062,1.186c-0.187,0.062-0.749-0.936-1.186-1.435C35.859,17.614,34.923,17.053,34.923,17.053 M33.488,14.307c0,0,0.249,0.936,0.935,1.373c0.374,0.249,1.373,0.997,1.809,1.31c0.438,0.313,0.624,0.624,0.624,0.624	s0-2.371-0.186-3.119c-0.25-0.749-1.436-1.685-1.436-1.685s0.187,0.562,0.374,0.811c0.187,0.312,0.187,0.936,0.437,1.56	s0.438,0.936,0.25,0.998c-0.125,0.062-0.562-0.25-0.811-0.562c-0.311-0.312-0.873-0.5-1.31-0.811	C33.738,14.557,33.488,14.307,33.488,14.307 M32.49,11.75c0,0,0.873,1.435,1.248,1.809c0.438,0.374,1.436,0.873,1.436,0.873	s-0.5-1.373-1.123-1.871C33.426,12.061,32.49,11.75,32.49,11.75 M14.085,34.771c0,0,0.186,0.5,1.185,0.873	c0.936,0.437,2.558,0.562,3.369,0.437c0.811-0.061,1.185-0.249,2.121-0.81c0.936-0.562,1.373-0.625,1.934-0.687	c0.562-0.062,0.562,0.062,0.562,0.062s-0.936,0.5-1.872,1.061c-0.873,0.624-1.56,1.248-1.56,1.248l0.374,0.374	c0,0,0.125-0.187,0.997-1.061c0.936-0.873,2.371-1.497,2.808-1.497c0.437,0,1.622,0.624,2.496,1.249	c0.873,0.623,1.373,1.372,1.373,1.372l0.311-0.374c0,0-1.31-1.122-1.871-1.497c-0.499-0.437-1.56-0.811-1.56-0.811	s0.562-0.062,0.936,0c0.374,0,1.185,0.438,1.933,0.936c0.748,0.498,1.435,0.624,3.182,0.437c2.87-0.249,2.995-1.185,2.995-1.185	s-0.936,0.499-2.121,0.437c-0.811,0-2.308-0.499-3.119-0.749c-0.811-0.249-1.56-0.437-2.121-0.374	c-1.123,0.062-2.558,0.311-2.558,0.311s-1.123-0.124-1.747-0.249s-1.685-0.062-3.119,0.311c-1.373,0.374-2.184,0.625-2.995,0.687	C15.208,35.332,14.085,34.771,14.085,34.771 M11.215,31.714c0,0,0.125,0.312,0.936,1.248c1.248,1.373,2.683,1.436,3.431,1.436	c0.811,0,1.684-0.312,2.184-0.374c0.499-0.062,1.248,0,1.248,0s-0.562-0.25-1.122-0.749c-0.562-0.437-0.438-0.998-1.249-1.996	c-0.811-1.061-1.622-1.622-1.622-1.622s0.312,1.685,0.936,2.682c0.374,0.686,0.936,0.936,0.873,0.998	c-0.062,0.062-0.562,0.062-0.749-0.062c-0.187-0.062-0.686-0.25-1.248-0.312c-0.562-0.061-1.373,0.187-2.308-0.374	C12.088,32.4,11.215,31.714,11.215,31.714 M8.969,27.783c0,0,0.562,1.31,1.186,2.308c0.624,0.998,2.246,1.622,2.808,1.809	c0.562,0.187,1.747,0.25,1.747,0.25s-0.312-0.374-0.5-1.061c-0.186-0.624-0.124-2.121-0.499-2.932	c-0.437-0.936-0.749-1.497-0.749-1.497s0.062,0.498-0.062,0.81c-0.125,0.624,0,2.121,0.125,2.745	c0.125,0.562,0.499,0.936,0.25,1.061c-0.25,0.124-0.374-0.25-0.811-0.686c-0.374-0.438-1.56-0.81-2.308-1.436	C9.53,28.47,8.969,27.783,8.969,27.783 M8.283,23.915c0,0,0.062,0.624,0.187,1.123c0.125,0.499,0.873,2.121,1.685,2.87	c0.811,0.749,1.933,1.497,1.933,1.497s-0.062-0.624-0.187-1.123c-0.124-0.499,0.187-1.497,0.25-2.37	c0.062-0.873-0.125-2.37-0.125-2.37s-0.749,1.434-0.873,2.619c-0.062,0.686,0.187,1.435,0,1.435	c-0.249,0.062-0.935-1.373-1.248-1.746c-0.374-0.438-0.624-0.625-0.998-0.998C8.532,24.539,8.283,23.915,8.283,23.915 M8.595,19.549	c0,0-0.125,2.184,0.124,3.182c0.438,1.622,1.685,2.62,1.685,2.62s0.125-0.562,0.374-1.122c0.249-0.562,0.686-1.123,0.873-1.56	c0.311-0.873,0.437-2.496,0.437-2.496s-0.311,0.437-0.562,0.811c-0.25,0.374-0.562,0.811-0.873,1.373	c-0.25,0.624-0.312,1.123-0.562,1.186c-0.374,0.061-0.062-0.563-0.374-1.312c-0.311-0.749-0.811-1.56-0.873-1.933	C8.782,19.922,8.595,19.549,8.595,19.549 M10.278,15.305c0,0-0.873,1.186-0.997,2.246c-0.125,1.061-0.062,1.934,0.374,2.683	c0.312,0.499,0.374,1.185,0.374,1.185s0.125-0.374,0.499-0.749c0.374-0.374,0.998-0.936,1.435-1.685	c0.438-0.749,0.811-1.746,0.811-1.746s-0.686,0.374-1.122,0.749c-0.998,0.874-1.497,1.746-1.497,1.746s-0.25-0.249-0.187-0.624	c0.187-0.311,0.25-0.873,0.187-1.31c-0.062-0.374-0.187-0.624-0.062-1.123C10.154,16.18,10.278,15.305,10.278,15.305 M12.649,12.872	c0,0-1.185,0.686-1.497,1.56c-0.249,0.686-0.125,1.373-0.249,2.06c-0.125,0.686,0.062,1.185,0.062,1.185s0.062-0.187,0.499-0.624	c0.437-0.438,1.061-0.686,1.497-0.998c0.998-0.686,1.435-1.747,1.435-1.747s-0.562,0.499-0.873,0.686	c-0.249,0.124-0.811,0.437-1.185,0.686c-0.312,0.186-0.5,0.811-0.5,0.811s-0.374-0.312-0.249-0.687	c0.125-0.374,0.311-0.686,0.374-1.06c0.062-0.374,0.187-0.936,0.374-1.186C12.463,13.31,12.649,12.872,12.649,12.872 M13.523,12.81	c-0.811,0.811-0.997,1.809-0.997,1.809s0.873-0.436,1.621-1.185c0.625-0.625,1.186-1.56,1.186-1.56S13.96,12.374,13.523,12.81"/><polygon fill="#fff" points="23.62,8.62 22.62,12.62 21.79,12.62 21,10.25 20.21,12.62 19.25,12.62 18.25,8.62 19.25,8.62 19.75,10.5 20.25,8.62 21.62,8.62 22.12,10.5 22.62,8.62"/><polygon fill="#fff" points="25,9.25 25,10.25 26.38,10.25 26.38,11 25,11 25,12.62 24,12.62 24,8.62 26.38,8.62 26.38,9.25"/><path fill="#fff" d="M28.44,8.62H27v4h1v-1.37h0.44c0.72,0,1.31-0.59,1.31-1.31C29.75,9.21,29.16,8.62,28.44,8.62z M28.25,10.375H28V9.38c0,0,0.125-0.005,0.25-0.005c0.15,0,0.63,0.035,0.63,0.505C28.88,10.41,28.25,10.375,28.25,10.375z"/></svg>