<svg xmlns="http://www.w3.org/2000/svg"  viewBox="0 0 48 48" width="1600px" height="1600px"><path fill="#ed1c2e" d="M38.101,22.306l4.372-0.908v2.764c0,1.599-0.133,2.749-3.528,3.587s-5.828-1.722-5.466-4.58	s2.071-4.168,3.391-4.649l1.108-0.352c0,0,2.311-0.538,4.001,0.313c1.213,0.61,0.16,2.59-1.34,2.069c0,0-3.995-0.89-4.101,2.62	c-0.096,3.156,2.761,2.337,3.144,1.697v-0.848L38.9,24.142c-0.423,0.052-0.771-0.274-0.777-0.638L38.101,22.306z"/><path fill="#ed1c2e" d="M24,21.72v9.695l1.595-0.537c0.792-0.267,1.32-0.969,1.32-1.755v-3.595l3.201,3.482	c0.487,0.53,1.32,0.641,1.947,0.258l0,0c0.565-0.345,0.905-0.932,0.905-1.561v-8.21l-1.435,0.382	c-0.859,0.229-1.451,0.961-1.451,1.794v2.984l-2.495-2.794c-0.524-0.587-1.38-0.817-2.159-0.579L24,21.72z"/><path fill="#ed1c2e" d="M23.043,21.849v8.505c0,0.786-0.528,1.488-1.32,1.755l-1.977,0.666V24.27	c0-0.786,0.528-1.488,1.32-1.755L23.043,21.849z"/><path fill="#ed1c2e" d="M18.717,30.997l-2.094-1.963l2.234-3.344c0.413-0.618,0.209-1.432-0.455-1.816l-0.007-0.004	c-0.669-0.386-1.547-0.188-1.951,0.441l-2.71,4.211v-3.359l-2.745,1.059l0.037,9.623l1.467-0.561	c0.751-0.287,1.241-0.969,1.241-1.726v-2.963l2.579,2.567c0.633,0.629,1.693,0.66,2.365,0.067l0.001-0.001	C19.363,32.626,19.379,31.618,18.717,30.997z"/><path fill="#ed1c2e" d="M40.9,14.771l-1.242-1.307c0,0,1.313-0.672,1.162-1.923c-0.15-1.241-1.132-1.714-2.605-1.487	L36,10.415v6.421l1.032-0.199c0.471-0.095,0.802-0.483,0.802-0.928v-1.515l1.603,1.781c0.19,0.208,0.461,0.322,0.731,0.322	c0.24,0,0.471-0.085,0.651-0.237C41.22,15.719,41.25,15.141,40.9,14.771z M37.803,13.171v-1.733	c0.812-0.161,1.102,0.104,1.102,0.521C38.906,12.858,37.803,13.171,37.803,13.171z"/><path fill="#ed1c2e" d="M31.415,11.279v6.539l3.363-0.746c0.452-0.1,0.772-0.482,0.772-0.922v-0.731l-2.252,0.475v-1.249	l1.213-0.237c0.465-0.091,0.798-0.478,0.798-0.928v-0.578l-2.011,0.413v-0.979l1.375-0.258c0.468-0.088,0.805-0.477,0.805-0.929	v-0.656L31.415,11.279z"/><path fill="#ed1c2e" d="M28.128,14.755l2.809-0.594c0,0,0,2.045,0,2.619c0,0.575-0.511,1.512-2.245,1.824	s-3.702-0.383-3.532-3.194s2.468-3.66,3.84-3.698c0.468-0.013,1.095,0.025,1.553,0.302c0.719,0.435,0.37,1.552-0.5,1.481	c-0.989-0.081-2.596-0.302-2.872,1.975c-0.053,0.776,0.16,1.631,1.149,1.631c0.606,0,0.872-0.372,0.872-0.372v-0.816	c-0.689,0.199-1.082,0.116-1.082-0.499L28.128,14.755z"/><path fill="#ed1c2e" d="M24.705,18.067l-1.164-1.108c0,0,1.145-0.767,1.145-2.169c0-1.392-1.47-1.619-2.596-1.307L20,14.118	v6.724l1.136-0.388c0.382-0.133,0.64-0.492,0.64-0.89v-1.771l1.603,1.62c0.363,0.369,0.964,0.369,1.336,0.009v-0.009	C25.097,19.043,25.097,18.437,24.705,18.067z M21.756,16.779v-1.875c0,0,1.059-0.407,1.059,0.455	C22.816,16.372,21.756,16.779,21.756,16.779z"/><path fill="#ed1c2e" d="M14.311,15.926c0,0,0,3.194,0,4.332s0.532,1.955,1.894,1.955s3.202-0.917,3.202-3.204v-3.414	c0-0.648-0.673-1.105-1.321-0.897l-0.562,0.18v4.763c0,0.384-0.171,0.73-0.655,0.833c-0.484,0.103-0.673-0.272-0.675-0.711	l-0.014-3.136c-0.003-0.658-0.697-1.113-1.348-0.884L14.311,15.926z"/><path fill="#ed1c2e" d="M12.789,19.905l0.273-0.265c0.419-0.407,0.653-0.957,0.643-1.525c-0.01-0.824-0.701-1.43-1.481-1.43	c-0.175,0-0.351,0.028-0.526,0.095L8.99,17.793V25l3.253-1.383c1.062-0.445,1.812-1.411,1.753-2.5	C13.948,20.141,12.789,19.905,12.789,19.905z M10.851,18.408c0,0,0.984-0.417,1.033,0.322c0.068,0.909-1.033,1.165-1.033,1.165	V18.408z M10.851,22.736v-1.714c0,0,1.11-0.474,1.169,0.369C12.088,22.443,10.851,22.736,10.851,22.736z"/><path fill="#febe10" d="M34.95,8.28c-1.24-2.47-5.7-4.23-12.59-2.26C14.96,8.14,13,12.49,13,14.5c0,0.17,0.09,0.33,0.24,0.43	C13.32,14.98,13.41,15,13.5,15c0.08,0,0.15-0.02,0.22-0.05c3.9-1.95,15.67-4.92,20.88-5.96c0.15-0.03,0.28-0.13,0.35-0.27	C35.02,8.58,35.02,8.42,34.95,8.28z M16.86,10.37c-0.39,0.73-0.7,1.52-0.89,2.29v0.01c-0.06,0.27-0.34,0.43-0.61,0.37	c-0.27-0.07-0.43-0.34-0.36-0.61c0-0.03,0.01-0.06,0.03-0.09c0.19-0.43,0.41-0.8,0.64-1.18c0.24-0.37,0.5-0.73,0.78-1.07	c0.57-0.67,1.25-1.27,2.05-1.59C17.78,8.97,17.26,9.65,16.86,10.37z M30.02,8.99C30.15,8.83,30.92,7.92,30,7c-1-1-3-1-3-1s4,0,5,1	C32.95,7.95,30.31,8.89,30.02,8.99z"/><path fill="#febe10" d="M38.76,29.25c-0.08-0.05-0.17-0.08-0.26-0.08c-0.08,0-0.15,0.04-0.22,0.06C34,30,21,34,17.4,35.18	c-0.15,0.05-0.28,0.13-0.35,0.27s-0.07,0.31,0,0.45c1.24,2.46,5.7,4.22,12.59,2.25c7.4-2.11,9.36-6.47,9.36-8.48	C39,29.5,38.91,29.34,38.76,29.25z M37,31.59c-0.01,0.02-0.02,0.05-0.03,0.07c-0.29,0.64-0.64,1.13-1.04,1.63	c-0.4,0.49-0.84,0.93-1.31,1.33c-0.48,0.39-0.97,0.75-1.5,1.06C32.6,36,32.05,36.26,31.5,36.5c0.51-0.32,1.02-0.65,1.48-1.02	c0.47-0.37,0.89-0.79,1.29-1.22c0.39-0.44,0.75-0.91,1.05-1.4s0.57-1.04,0.71-1.52v-0.03c0.08-0.26,0.36-0.42,0.63-0.34	C36.92,31.05,37.08,31.32,37,31.59z"/><path fill="#0061a9" d="M7.74,30.39c0.51,1.15,1.15,2.24,1.88,3.25v4.16c-1.76-1.88-3.17-4.08-4.13-6.45	c-1.54-3.74-1.94-7.89-1.22-11.82C5,15.6,6.89,11.92,9.62,9.07c2.73-2.84,6.26-4.88,10.05-5.76C23.43,2.45,27.46,2.56,31,4	c-1.82-0.57-3.71-0.85-5.59-0.79c-1.89,0.03-3.75,0.32-5.54,0.87c-3.56,1.09-6.77,3.2-9.14,6c-2.39,2.77-3.95,6.21-4.45,9.79	C5.76,23.44,6.26,27.14,7.74,30.39z"/><path fill="#0061a9" d="M44.81,32.85c-1.82,3.78-4.84,6.98-8.48,9.01c-3.64,2.05-7.82,2.92-11.89,2.76	c-4.11-0.16-8.15-1.53-11.47-3.89c-1.1-0.77-2.12-1.64-3.05-2.6l2.79-1.15c0.59,0.51,1.21,0.97,1.86,1.39	c2.96,1.93,6.46,2.97,9.95,2.98c3.53,0.01,7.03-0.88,9.97-2.66c2.95-1.76,5.31-4.42,6.7-7.54L44.81,32.85z"/></svg>