<svg xmlns="http://www.w3.org/2000/svg"  viewBox="0 0 48 48" width="1600px" height="1600px"><path fill="#fff8e1" d="M25.096,3h-2c-7.979,0-18,4.021-18,12v3v17v2c0,6,8.507,8,19,8s19-2,19-8v-2V18v-3	C43.096,7.021,33.075,3,25.096,3z"/><path fill="#fb8c00" d="M24.327,5H24h-0.327C12.248,5,7.05,11.673,7.05,14.932C7.085,15.694,7.444,16,8.282,16H24h15.718	c0.838,0,1.197-0.306,1.232-1.068C40.95,11.673,35.752,5,24.327,5z"/><path fill="#fb8c00" d="M39.871,37H24H8.129c-0.569,0-0.965,0.568-0.771,1.104C8.491,41.236,14.529,43,24,43	s15.509-1.764,16.643-4.896C40.836,37.568,40.441,37,39.871,37z"/><path fill="#dd2c00" d="M34.5,19c0.552,0,1-0.448,1-1s-0.448-1-1-1h-2.41c-0.016,0-0.029,0.008-0.045,0.009 C32.029,17.008,32.016,17,32,17c-0.552,0-1,0.448-1,1v2.574h-0.005c0,0.009,0.005,0.017,0.005,0.026V23c0,0.552,0.448,1,1,1h2.5 c0.552,0,1-0.448,1-1s-0.448-1-1-1H33v-0.522h1.155c0.499,0,0.903-0.404,0.903-0.903s-0.404-0.903-0.903-0.903H33V19H34.5z"/><path fill="#dd2c00" d="M17.004,17c-0.586,0-1.06,0.448-1.06,1v3.5c0,0.276-0.238,0.5-0.53,0.5 c-0.292,0-0.53-0.224-0.53-0.5V18c0-0.552-0.474-1-1.06-1c-0.586,0-1.06,0.448-1.06,1v3.5c0,1.378,1.188,2.5,2.649,2.5 s2.649-1.122,2.649-2.5V18C18.064,17.448,17.59,17,17.004,17z"/><path fill="#dd2c00" d="M11.423,20.348c0.319-0.375,0.515-0.858,0.515-1.419c0-1.292-1.072-1.929-2.12-1.929H7.955 c-0.093,0-0.146,0.019-0.182,0.046C7.333,17.152,7,17.528,7,18v5c0,0.552,0.448,1,1,1c0.007,0,0.012-0.004,0.019-0.004 c0.007,0,0.01,0.004,0.017,0.004h1.928c1.291,0,2.244-0.694,2.244-1.992C12.208,21.277,11.906,20.712,11.423,20.348z M10.144,19.235c0,0.189-0.117,0.613-0.523,0.613H9v-1.171h0.622C9.964,18.677,10.144,19.046,10.144,19.235z M9.817,22.486H9 v-1.171h0.817c0.188,0,0.462,0.225,0.462,0.576C10.28,22.261,10.006,22.486,9.817,22.486z"/><path fill="#dd2c00" d="M23.938,19.201c0-1.496-1.072-2.201-2.12-2.201h-1.863c-0.021,0-0.03,0.006-0.048,0.007 c-0.012,0-0.022-0.007-0.035-0.007c-0.552,0-1,0.448-1,1v5c0,0.552,0.448,1,1,1c0.552,0,1-0.448,1-1v-1.382h0.421 c0.125,0.492,0.383,1.115,0.596,1.532c0.215,0.479,0.63,0.85,1.182,0.85h0c0.552,0,1-0.448,1-1c0-0.57-0.491-0.942-0.87-1.963 C23.655,20.62,23.938,19.997,23.938,19.201z M20.872,18.677h0.419c0.342,0,0.778,0.201,0.778,0.644 c0,0.515-0.372,0.694-0.778,0.694h-0.419V18.677z"/><path fill="#dd2c00" d="M40.202,21.037c0.453-0.417,0.736-1.04,0.736-1.836c0-1.496-1.072-2.201-2.12-2.201h-1.863 c-0.093,0-0.146,0.019-0.182,0.046C36.333,17.152,36,17.528,36,18v5c0,0.552,0.448,1,1,1s1-0.448,1-1v-1.382h0.293 c0.125,0.492,0.383,1.115,0.596,1.532c0.215,0.479,0.63,0.85,1.182,0.85h0c0.552,0,1-0.448,1-1 C41.072,22.43,40.58,22.058,40.202,21.037z M38,18.677h0.291c0.342,0,0.778,0.201,0.778,0.644c0,0.515-0.372,0.694-0.778,0.694H38 V18.677z"/><path fill="#dd2c00" d="M29.035,19.685l-0.318-0.005c-0.153-0.003-0.322-0.007-0.509-0.007c-0.562,0-1.017,0.448-1.017,1 s0.455,1,1.017,1c0.055,0,0.107,0,0.159,0.001c-0.149,0.231-0.495,0.449-0.775,0.449c-1.024,0-1.239-0.882-1.239-1.623 c0-0.827,0.625-1.5,1.393-1.5c0.336,0,0.622,0.063,0.784,0.173c0.459,0.313,1.094,0.201,1.414-0.253 c0.32-0.454,0.205-1.077-0.258-1.391C29.177,17.183,28.507,17,27.745,17c-1.889,0-3.426,1.57-3.426,3.5 c0,2.167,1.315,3.623,3.272,3.623c1.324,0,2.838-1.112,2.882-2.602c0.017-0.625-0.139-1.108-0.462-1.435 C29.756,19.828,29.408,19.685,29.035,19.685z"/><g><path fill="#dd2c00" d="M18.778,25C17.796,25,17,25.796,17,26.778v7.053c0,0.982,0.796,1.778,1.778,1.778 c0.982,0,1.778-0.796,1.778-1.778v-7.053C20.556,25.796,19.76,25,18.778,25z"/><path fill="#dd2c00" d="M29.416,25c-0.982,0-1.778,0.796-1.778,1.778v3.323l-2.25-4.115 c-0.02-0.036-0.052-0.057-0.075-0.089C25.006,25.363,24.437,25,23.778,25C22.796,25,22,25.796,22,26.778v7.053 c0,0.982,0.796,1.778,1.778,1.778c0.982,0,1.778-0.796,1.778-1.778v-3.368l2.146,3.926c0.016,0.03,0.04,0.052,0.059,0.079 c0.257,0.666,0.899,1.141,1.655,1.141c0.982,0,1.778-0.796,1.778-1.778v-7.053C31.194,25.796,30.398,25,29.416,25z"/><path fill="#dd2c00" d="M13.775,30.025c0.968-0.817,1.653-1.806,2.017-2.557c0.422-0.87,0.059-1.917-0.811-2.338 c-0.869-0.42-1.917-0.059-2.338,0.811c-0.009,0.018-0.8,1.49-2.088,1.953v-1.116C10.556,25.796,9.76,25,8.778,25 C7.796,25,7,25.796,7,26.778v7.053c0,0.982,0.796,1.778,1.778,1.778c0.982,0,1.778-0.796,1.778-1.778v-1.843 c1.456,0.843,2.332,2.41,2.353,2.451c0.313,0.594,0.921,0.934,1.549,0.934c0.273,0,0.55-0.064,0.809-0.199 c0.857-0.447,1.189-1.504,0.742-2.361C15.957,32.715,15.199,31.302,13.775,30.025z"/><path fill="#dd2c00" d="M38.959,29.156l-1.451-0.002c-0.701,0-1.269,0.568-1.269,1.269c0,0.701,0.568,1.269,1.269,1.269 c0.779,0,0.664,0.566,0.466,0.673c-0.135,0.073-0.281,0.129-0.43,0.157c-0.366,0.093-0.947-0.01-1.294-0.22 c-0.375-0.187-0.651-0.511-0.832-0.968c-0.093-0.224-0.15-0.485-0.177-0.762c-0.02-0.136-0.017-0.283-0.022-0.428 c0.007-0.131,0-0.239,0.025-0.356c0.058-0.459,0.285-0.887,0.615-1.206c0.326-0.326,0.749-0.534,1.205-0.59 c0.503-0.061,1.163,0.022,1.405,0.174l0.011,0.007c0.659,0.413,1.534,0.238,1.981-0.408c0.46-0.665,0.294-1.577-0.371-2.037 c-0.545-0.377-1.12-0.583-1.659-0.701c-0.565-0.112-1.013-0.169-1.622-0.127c-1.16,0.082-2.31,0.564-3.149,1.376 c-0.845,0.8-1.418,1.888-1.583,3.041c-0.051,0.283-0.059,0.584-0.061,0.858c0.011,0.261,0.021,0.521,0.062,0.787 c0.07,0.528,0.2,1.066,0.43,1.588c0.432,1.043,1.291,2.03,2.396,2.532c1.113,0.478,2.254,0.591,3.452,0.229 c1.113-0.379,2.132-1.105,2.647-2.328c0.161-0.37,0.251-0.798,0.251-1.235C41.254,30.221,40.065,29.156,38.959,29.156z"/></g></svg>