<svg xmlns="http://www.w3.org/2000/svg"  viewBox="0 0 48 48" width="1600px" height="1600px" baseProfile="basic"><path fill="#5d4037" d="M42,37c0,2.762-2.238,5-5,5H11c-2.761,0-5-2.238-5-5V11c0-2.762,2.239-5,5-5h26c2.762,0,5,2.238,5,5 V37z"/><path fill="#fff" d="M30.75,15.625l1.125-1.25l-1-1.875L28.5,12.625L26.5,14L26,16.25c0,0,0,0.75,1,0.75s1.375,0,1.375,0	s0.125,0.75-1.625,0.875C28,19,28.25,20,28.25,20l0.875,1.25c0,0,0.375,2.75-1.375,4.25c-0.5,1-0.875,2-0.875,2l-0.75,0.5l0.5,0.625	l0.125,1.75c0,0,2.25,2.125,5.25,2.875c0,0.5,0,2-2,3.375c-3,0.75-8.125-0.25-8.125-0.25l-1.5-0.875l-5.25-7.625l-0.25-2.625	c0,0,0.875-4.5,0.5-5.875C17.625,16.625,18,16.75,18,16.75l2.875-0.125c0,0-0.875-0.625-2.375-0.625c1.5-1,1.5-1,1.5-1	s1,1,2.5,0.875l5-4.25l3-0.5l1.375,0.5l1.375,2l-0.5,2.125L30.75,15.625z"/><path fill="#5d4037" d="M22.375,18.125c0,0-0.375,1.125,0.625,1c0-0.25,1.125,0.125,1.125,0.125s0.375-0.5,1.375-1	C27,20.5,28,22.125,28,22.125s0.5,1.625-1.25,3.25c-0.5,1.25-1.375,2.125-1.375,2.125l-0.125,1c0,0,1.5,1,0.625,3.25	c1.25,0.5,3.375,2,3.375,2s0,1.75-2.125,1.5c-3.25-0.5-6-0.875-6-0.875s-4.375-5.125-4.75-6.75c0.25-3.25,0.375-7.25,0.375-7.25	l1.625-2L22.375,18.125z"/><path fill="#fff" d="M20.702,31.979l-0.894-0.681l-0.936-1.851c0,0-0.809-0.579-1.255-2.747s0.043-5.274,0.489-6.04	c1.064-0.489,3.319-0.809,3.319-0.809s1.702,1.255,3.362,0.404c1.255,0.936,2.17,1.255,1.979,1.957	c-0.532,1.277-2.894,5.064-2.894,5.064l0.19,2.489c0,0,1.193,3.149,1.725,3.404c0.915,0.511,0.021,0.957,0.021,0.957	s-2.768,0.106-3.693-2.234s-2.329-4.904-2.329-4.904s-0.83-4.054,0.702-4.543c1.532-0.489,3.383,0.213,3.085,1.383	c-0.298,1.17-1.064,3.16-1.064,3.16s-0.851,0.942-1.106-0.29s0.277-1.53,0.277-1.53l0.435,0.277v0.787c0,0,0.722-1.979,0.697-2.404	c-0.515-0.553-1.557-0.936-2.132-0.362c-0.021,1.319,0.085,2.128,0.085,2.128l-0.298,1l2.344,4.894c0,0,0.932,1.234,1.57,1.043	c-0.66-1.574-1.648-3.158-1.34-5.542c1.468-2.99,2.128-4.798,2.128-4.798s-2.724-1.691-6.319-0.489	c-0.34,1.83-0.596,3.064-0.447,4.298c0.277,1.617,1.702,4.574,2.319,5.383C20.851,31.979,20.702,31.979,20.702,31.979z"/></svg>