<svg xmlns="http://www.w3.org/2000/svg"  viewBox="0 0 48 48" width="1600px" height="1600px"><path fill="#eee" d="M34,42H14c-4.418,0-8-3.582-8-8V14c0-4.418,3.582-8,8-8h20c4.418,0,8,3.582,8,8v20 C42,38.418,38.418,42,34,42z"/><path fill="#ef6c00" d="M20.459,33.632l-2.511-2.678l2.307-2.637c0.728-0.832,0.644-2.095-0.188-2.822 c-0.832-0.728-2.095-0.642-2.822,0.188L15,28.495V27c0-1.104-0.896-2-2-2s-2,0.896-2,2v8c0,1.104,0.896,2,2,2s2-0.896,2-2v-1.636 l2.541,3.004C17.935,36.788,18.467,37,19,37c0.49,0,0.982-0.18,1.368-0.541C21.174,35.703,21.215,34.438,20.459,33.632z"/><path fill="#ef6c00" d="M16,24h-3c-1.104,0-2-0.896-2-2v-8c0-1.104,0.896-2,2-2h3c3.309,0,6,2.691,6,6S19.309,24,16,24z M15,20h1c1.103,0,2-0.897,2-2s-0.897-2-2-2h-1V20z"/><path fill="#ef6c00" d="M32,25c-1.104,0-2,0.896-2,2v3.436l-3.22-4.41C26.32,25.393,25.811,25,25,25c-1.104,0-2,0.896-2,2v8 c0,1.104,0.896,2,2,2s2-0.896,2-2v-3.116l3.157,4.06C30.744,36.651,31.205,37,32,37c1.104,0,2-0.896,2-2v-8 C34,25.896,33.104,25,32,25z"/><path fill="#ef6c00" d="M32,12c-1.104,0-2,0.896-2,2v3.436l-3.22-4.41C26.32,12.393,25.811,12,25,12c-1.104,0-2,0.896-2,2v8 c0,1.104,0.896,2,2,2s2-0.896,2-2v-3.116l3.157,4.06C30.744,23.651,31.205,24,32,24c1.104,0,2-0.896,2-2v-8 C34,12.896,33.104,12,32,12z"/><path fill="#e91e63" d="M38.5,26.75c0,0.966-0.372,3.25-2.024,3.25c-1.539,0-1.551-2.286-1.476-3.25 c0.079-1.026,0.784-1.75,1.75-1.75S38.5,25.784,38.5,26.75z"/></svg>