<svg xmlns="http://www.w3.org/2000/svg"  viewBox="0 0 48 48" width="1600px" height="1600px" baseProfile="basic"><path fill="#fb8c00" d="M42.34,25.09c-1.56,0.3-2.48,0.44-3.02,0.51c-0.38,0.06-0.65,0.39-0.65,0.77 c0.07,5.59-0.42,10.8-1.32,15.74c-0.13,0.73-0.78,1.25-1.52,1.25h-1.81c-0.85,0-1.55-0.69-1.55-1.54c0.26-8.13,0.38-18.08,0-23.81 c0-0.71-0.86-1.03-1.35-0.52c-3.32,3.57-4.41,11.92-4.72,15.22c-0.08,0.79,0.46,1.49,1.24,1.65l1.81,0.36 c0.4,0.08,0.35,0.16,0.33,0.74l-0.23,6.55c-0.1,0.77-0.75,1.35-1.54,1.35h-6.33c-0.01-1.06-0.03-1.97-0.04-2.9 c-0.01-0.75-0.01-3.87-0.02-4.73c1.17-0.64,2.24-1.25,2.41-3.91c0.04-0.11,0-2.47,0-2.6c-0.02-5.15,0.28-9.76,0.28-9.81 c0.04-0.55-0.38-1.02-0.93-1.06c-0.55-0.02-1.03,0.38-1.06,0.93c-0.01,0.06-0.32,4.85-0.3,10.16c-0.06,0.36-0.36,0.64-0.73,0.64 h-0.06c-0.41,0-0.74-0.33-0.75-0.74c-0.03-2.57,0.04-6.43,0.21-10.1c0.02-0.5-0.36-0.91-0.85-0.94c-0.5-0.03-0.92,0.36-0.95,0.85 c-0.17,3.73-0.23,7.59-0.2,10.18c0,0.41-0.34,0.75-0.75,0.75c-0.42,0-0.75-0.33-0.75-0.75c0.01-2.19,0.11-5.83,0.36-10.08 c0.02-0.49-0.35-0.92-0.85-0.95c-0.51-0.03-0.92,0.35-0.95,0.84c-0.41,7.1-0.498,10.752-0.378,12.722 c0,1.704,1.148,3.448,2.648,4.078c0.01,0.79,0.02,3.86,0.03,4.57c0.01,0.91,0.03,1.81,0.03,2.85h-5.2c-0.74,0-1.38-0.52-1.52-1.25 c-0.96-5.03-1.37-9.68-1.31-14.99c0-0.39-0.28-0.72-0.66-0.77l-3.96-0.57c-0.5-0.07-0.81-0.58-0.61-1.04 C6.4,20.99,15.86,7.33,23.24,5.11c0.46-0.14,0.96-0.14,1.41,0.03c2.41,0.85,4.93,2.47,7.33,4.48c0.5,0.42,1.27,1.33,1.27,0.67V9.76 c0-0.48,0.45-0.84,0.93-0.75l2.5,0.5c0.28,0.05,0.49,0.25,0.59,0.51c0.31,0.95,1.04,2.59,1.3,6.16c0,0.16,0.06,0.31,0.16,0.44 c1.84,2.38,3.33,5.28,4.21,7.39C43.13,24.47,42.84,25,42.34,25.09z"/></svg>