<svg xmlns="http://www.w3.org/2000/svg"  viewBox="0 0 48 48" width="1600px" height="1600px" baseProfile="basic"><polygon fill="#212121" points="30.763,28.995 30.763,23.004 35,23.004 35,24.354 32.427,24.354 32.427,25.383 34.654,25.383 34.654,26.533 32.427,26.533 32.427,27.666 35,27.666 35,28.995"/><path fill="#212121" d="M47,29.011v-6.009h-1.75v2.121c-1.145,0.387-2.065,0.395-2.138,0.395v-2.517h-1.75v6.009h1.75v-2.146	h0.048c-0.024,0.008,1.121-0.04,2.081-0.403v2.549H47z"/><polygon fill="#212121" points="21.755,28.995 21.755,26.923 23.73,26.923 23.73,25.657 21.755,25.657 21.755,24.471 24.238,24.471 24.238,23.004 20.005,23.004 20.005,28.995 21.755,28.995"/><polygon fill="#212121" points="30.669,21.997 30.669,20.673 28.02,20.673 28.02,19.541 30.243,19.541 30.243,18.393 28.02,18.393 28.02,17.365 30.701,17.365 30.701,16.033 26.358,16.033 26.358,21.997"/><polygon fill="#212121" points="40.214,21.997 40.214,20.544 37.837,20.544 37.837,16.033 36.095,16.033 36.095,21.997"/><polygon fill="#212121" points="35.485,21.997 35.485,20.544 33.109,20.544 33.109,16.033 31.367,16.033 31.367,21.997"/><path fill="#212121" d="M43.714,17.341c0.955-0.008,1.614,0.731,1.597,1.678c0,0.337-0.072,0.634-0.209,0.883	c-0.538,1.052-2.248,1.052-2.778,0c-0.136-0.249-0.201-0.554-0.201-0.883C42.108,18.072,42.758,17.333,43.714,17.341 M43.714,22.166	c1.838,0.024,3.331-1.244,3.291-3.147c0-0.626-0.144-1.188-0.425-1.654c-1.156-1.983-4.584-1.991-5.74,0	c-0.273,0.474-0.417,1.028-0.417,1.654C40.398,20.921,41.875,22.19,43.714,22.166"/><path fill="#212121" d="M25.611,21.997v-5.965h-1.742v2.103c-1.14,0.385-2.055,0.393-2.127,0.393v-2.497H20v5.965h1.742	v-2.135h0.048c-0.024,0.008,1.116-0.04,2.071-0.401v2.537H25.611L25.611,21.997z"/><path fill="#212121" d="M38.135,29.124c1.25,0.024,2.662-0.605,2.702-1.968c0.016-0.46-0.089-0.823-0.307-1.081	c-0.226-0.258-0.5-0.444-0.815-0.549c-0.419-0.161-1.444-0.323-1.896-0.436c-0.145-0.04-0.274-0.097-0.371-0.177	c-0.202-0.145-0.21-0.476-0.04-0.653c0.169-0.186,0.46-0.234,0.726-0.226c0.468,0.016,0.871,0.25,0.968,0.71l1.258-0.669	c-0.218-0.476-0.605-0.807-1.097-1.024c-1.041-0.436-2.622-0.347-3.323,0.621c-0.428,0.532-0.484,1.621-0.04,2.113	c0.226,0.258,0.492,0.444,0.799,0.549c0.403,0.169,1.436,0.331,1.904,0.46c0.274,0.089,0.573,0.226,0.557,0.549	c-0.032,0.468-0.645,0.589-1.057,0.565c-0.444-0.016-0.855-0.153-1.113-0.484c-0.097-0.121-0.161-0.266-0.194-0.419l-1.371,0.726	C35.877,28.729,37.046,29.132,38.135,29.124"/><path fill="#212121" d="M26.539,25.764h0.767c0.162,0,0.315-0.032,0.452-0.097c0.436-0.186,0.63-0.679,0.347-1.074	c-0.178-0.242-0.493-0.363-0.8-0.363h-0.767V25.764z M29.924,29.092c-1.414,0.016-2.536-0.889-3.045-2.173h-0.339l-0.012,2.076	h-1.753l0.012-5.992h2.738c0.856,0,1.688,0.272,2.157,0.951c0.323,0.469,0.404,1.196,0.162,1.721	c-0.218,0.469-0.687,0.751-1.236,0.945c0,0,0.25,0.606,0.832,0.848c0.153,0.065,0.331,0.105,0.517,0.113V29.1	C29.94,29.092,29.932,29.092,29.924,29.092"/><path fill="#8bc34a" d="M18.25,17.485c0.169,0.284,0.161,0.621,0.008,0.889c-0.552,0.851-0.797,1.87-0.705,2.882l0,0	c0.192,2.836-1.395,5.811-4.27,7.482s-6.248,1.579-8.616,0.008l0,0c-0.828-0.583-1.84-0.874-2.852-0.82l0,0	c-0.307-0.008-0.606-0.169-0.774-0.452c-0.169-0.284-0.161-0.621-0.008-0.889c0.552-0.851,0.797-1.87,0.705-2.882l0,0	c-0.192-2.836,1.395-5.811,4.27-7.482s6.248-1.579,8.616-0.008l0,0c0.828,0.583,1.84,0.874,2.852,0.813	C17.79,17.033,18.089,17.194,18.25,17.485"/></svg>