<svg xmlns="http://www.w3.org/2000/svg"  viewBox="0 0 48 48" width="1600px" height="1600px"><path fill="#de3300" d="M34.45,5h-20.9C8.827,5,5,8.827,5,13.55v2.006v11.611v7.283C5,39.171,8.827,43,13.55,43h20.9	c4.723,0,8.55-3.829,8.55-8.55v-7.283V15.556V13.55C43,8.827,39.173,5,34.45,5z"/><path fill="#ffcb00" d="M29.239,14.5c2.066,0,3.742,8.73,3.742,19.5h2.994c0-11.598-3.016-21-6.735-21	c-2.116,0-4.004,2.826-5.239,7.244C22.766,15.826,20.877,13,18.761,13c-3.719,0-6.735,9.402-6.735,21h2.994	c0-10.769,1.675-19.5,3.741-19.5c2.067,0,3.742,8.059,3.742,18h2.993C25.497,22.559,27.172,14.5,29.239,14.5"/></svg>