<svg xmlns="http://www.w3.org/2000/svg"  viewBox="0 0 48 48" width="1600px" height="1600px"><path fill="#e0e0e0" d="M45.5,14c-3.56,0-14.27,5.33-14.72,5.55l0.44,0.9c0.04-0.02,1.06-0.53,2.57-1.23 c1.41-0.32,2.29,0.61,3.14,1.51c0.62,0.65,1.2,1.27,1.95,1.27c0.17,0,0.48-0.04,0.89-0.12l0.4-0.09l0.57-0.13 c0.77-0.18,1.68-0.44,2.6-0.75c0.31-0.11,0.63-0.22,0.95-0.35c0.81-0.31,1.59-0.65,2.22-1.03c0.32-0.18,0.59-0.37,0.82-0.56 c0.42-0.36,0.67-0.72,0.67-1.09C48,14.5,46.43,14,45.5,14z"/><path fill="#ffd600" d="M24.5 15A7.5 7.5 0 1 0 24.5 30A7.5 7.5 0 1 0 24.5 15Z"/><path d="M21.487,25l7.952-0.997c0.329-0.037,0.553,0.242,0.555,0.575C30,25.75,28.625,29,25,29c-2.75,0-3.759-2.138-3.956-3.413 C21,25.299,21.199,25.032,21.487,25z"/><path fill="#8d6e63" d="M25,26.625V29c0.066,0.086,2.5,5,2.5,5l5.5-1v-2.375L25,26.625z"/><path fill="#e0e0e0" d="M29.709 26L25 26.578 27.5 31.5 33 30.625z"/><path fill="#a1887f" d="M27.5,31.5L25,26.625V29c0.066,0.086,2.5,5,2.5,5V31.5z"/><path fill="#e0e0e0" d="M18.6,21.03l-3.68-0.8c-0.01,0-0.01,0-0.01,0L4.72,18.04C4.61,18.01,4.49,18,4.38,18H2.47 c-0.72,0-1.36,0.43-1.64,1.15L0.03,22c-0.12,0.49,0.1,0.99,0.53,1.22c0.27,0.14,0.76,0.32,1.4,0.51c0.29,0.09,0.62,0.18,0.97,0.27 c0.81,0.2,1.74,0.4,2.73,0.56c0.32,0.06,0.65,0.11,0.98,0.16c0.79,0.11,1.59,0.19,2.36,0.24L10,25h0.25c1.05,0,1.89-1.06,2.71-2.09 c0.6-0.76,1.28-1.62,1.81-1.69L18.39,22c0.28,0.07,0.54-0.11,0.6-0.38S18.87,21.08,18.6,21.03z"/><path d="M22.967 21.326c-.14-.823-.687-1.412-1.221-1.316-.534.096-.853.841-.713 1.663s.687 1.412 1.221 1.316C22.788 22.894 23.107 22.149 22.967 21.326zM28 19.25A1 1.5 0 1 0 28 22.25 1 1.5 0 1 0 28 19.25z"/><path fill="#bdbdbd" d="M9 24.96V22.5C9 22.22 9.22 22 9.5 22s.5.22.5.5V25L9 24.96zM7 22.22l-.35 2.47c0 .01 0 .02-.01.03-.33-.05-.66-.1-.98-.16L6 22.08c.04-.27.3-.47.57-.43C6.84 21.69 7.03 21.94 7 22.22zM3.49 21.61L2.93 24c-.35-.09-.68-.18-.97-.27l.55-2.34c.07-.27.33-.44.6-.38C3.38 21.08 3.55 21.35 3.49 21.61zM39.77 21.88l-.67-2.4c-.08-.27.08-.54.34-.62.27-.07.55.08.62.35l.67 2.41c0 .01.01.03.01.04L39.77 21.88zM44.29 20.56c-.32.13-.64.24-.95.35l-.93-2.22c-.1-.25.02-.54.27-.65s.55.01.66.27L44.29 20.56zM46.51 19.53l-1.42-2.05c-.16-.23-.1-.54.13-.7.22-.16.53-.1.69.13l1.42 2.06L46.51 19.53z"/></svg>