<svg xmlns="http://www.w3.org/2000/svg"  viewBox="0 0 48 48" width="1600px" height="1600px"><path fill="#fff" d="M44,24c0,0.389-0.008,0.776-0.03,1.16l-0.597,0.589l0.473,0.839 c-0.057,0.502-0.127,0.998-0.229,1.489l-0.629,0.66l0.212,0.961c-0.13,0.437-0.286,0.867-0.445,1.291 c-0.375,0.238-0.778,0.539-0.778,0.539s0.062,0.511,0.119,1.034c-0.177,0.373-0.344,0.743-0.543,1.103 c-0.434,0.162-0.921,0.329-0.921,0.329s-0.029,0.561,0.041,1.12c-0.202,0.301-0.425,0.591-0.643,0.88 c-0.447,0.062-0.99,0.091-0.99,0.091s0.015,0.607-0.009,1.145c-0.213,0.241-0.426,0.486-0.651,0.716 c-0.519-0.03-0.954,0.065-0.954,0.065s-0.189,0.429-0.229,1.052c-0.223,0.195-0.445,0.395-0.677,0.58 c-0.451,0-1.003,0.041-1.003,0.041s-0.339,0.388-0.444,1.023c-0.281,0.185-0.568,0.351-0.859,0.522 c-0.415-0.162-0.759-0.13-0.759-0.13s-0.223,0.33-0.393,0.769c-0.355,0.179-0.715,0.363-1.081,0.521 c-0.453-0.238-0.663-0.376-0.826-0.323c-0.165,0.054-0.282,0.306-0.555,0.849c-0.509,0.174-1.028,0.337-1.555,0.47 c-0.282-0.341-0.466-0.54-0.663-0.523c-0.207,0.017-0.43,0.273-0.796,0.851C26.42,43.917,25.224,44,24,44 c-2.316,0-4.537-0.361-6.606-1.085c-0.213-0.559-0.39-0.869-0.624-0.924c-0.195-0.046-0.429,0.086-0.755,0.397 c-0.366-0.16-0.729-0.341-1.083-0.522c-0.101-0.577-0.201-0.856-0.418-0.902c-0.162-0.034-0.39,0.063-0.733,0.263 c-0.29-0.173-0.578-0.334-0.859-0.522c0-0.754-0.099-1.108-0.41-1.204c-0.223-0.069-0.554-0.005-1.036,0.14 c-0.231-0.186-0.454-0.384-0.677-0.58c0-0.789-0.003-1.141-0.259-1.232c-0.171-0.06-0.454-0.005-0.923,0.115 c-0.223-0.232-0.439-0.474-0.651-0.716c0.112-0.795,0.101-1.123-0.091-1.24c-0.162-0.098-0.452-0.046-0.907,0.004 c-0.216-0.291-0.442-0.577-0.642-0.88c0.262-0.67,0.329-0.979,0.167-1.15c-0.148-0.157-0.489-0.199-1.047-0.297 c-0.197-0.361-0.368-0.729-0.543-1.103c0.286-0.522,0.448-0.843,0.322-1.082c-0.103-0.196-0.401-0.337-0.983-0.49 c-0.156-0.423-0.313-0.854-0.441-1.289c0.5-0.467,0.704-0.735,0.568-0.984c-0.108-0.197-0.429-0.381-0.986-0.641 c-0.099-0.49-0.17-0.988-0.23-1.489c0.705-0.286,0.893-0.5,0.801-0.71c-0.095-0.217-0.49-0.431-0.924-0.718 C4.011,24.776,4,24.389,4,24c0-0.169-0.004-0.337,0-0.504C6,12,13.123,5,24,5c10.877,0,19,8,20,18.495 C44.004,23.663,44,23.831,44,24z"/><path fill="#326e36" d="M39.014,29.544c0.007-0.151,0.007-0.31,0.007-0.468c0-0.285-0.007-0.562-0.023-0.84 c1.936-0.047,2.537,1.609,4.2,1.467c0.158-0.534,0.305-1.073,0.418-1.625c-2.119,0.258-2.897-1.531-4.809-1.523 c-0.079-0.516-0.198-1.023-0.333-1.515c2.309-0.103,3.131,1.903,5.37,1.548c0.06-0.471,0.098-0.947,0.125-1.428 c-2.611,0.279-3.605-1.872-5.994-1.604c-0.222-0.578-0.491-1.134-0.784-1.665c3-0.53,4.026,1.972,6.809,1.604 C43.715,12.683,34.881,4,24,4C13.119,4,4.285,12.683,4,23.495c0,0,0.001,0,0.001,0c2.775,0.369,3.801-2.134,6.8-1.604 c-0.293,0.531-0.554,1.087-0.784,1.665c-2.389-0.268-3.382,1.883-5.986,1.604c0,0-0.001,0-0.001,0 c0.027,0.481,0.064,0.957,0.125,1.428c0,0,0.001,0,0.001,0c2.24,0.355,3.053-1.651,5.37-1.548c-0.143,0.492-0.254,0.999-0.341,1.515 c-1.909-0.008-2.689,1.776-4.801,1.523c0.113,0.552,0.26,1.091,0.418,1.625c1.657,0.137,2.26-1.514,4.193-1.466 c-0.016,0.278-0.024,0.555-0.024,0.84c0,0.159,0,0.317,0.008,0.468c-1.644-0.016-2.193,1.482-3.736,1.447 c0.199,0.535,0.419,1.059,0.661,1.571c1.097-0.1,1.512-1.51,3.21-1.392c0.055,0.372,0.119,0.745,0.198,1.11 c-1.484-0.102-1.823,1.241-2.865,1.385c0.273,0.496,0.567,0.978,0.879,1.447c0.627-0.358,1.183-1.351,2.366-1.413 c-0.119-0.38-0.23-0.777-0.325-1.165c1.077,0,2.305-0.421,3.335-1.364c-0.333-1.904,2.613-3.839,2.613-5.234 c0-1.515-0.76-2.348-0.76-4.394c0-1.506,0.737-3.157,1.837-4.274c0.214-0.222,0.436-0.396,0.689-0.556 c-1.013,1.261-1.798,2.76-1.798,4.489c0,1.92,0.895,2.935,0.895,4.711c0,1.769-2.59,3.307-2.59,5.131 c0,0.722,0.229,1.428,0.982,2.808c-1.165,1.166-2.677,1.8-3.651,1.8c-0.325,0-0.491-0.103-0.602-0.349 c-0.103-0.214-0.19-0.436-0.277-0.65c-1.023,0.038-1.508,0.939-2.072,1.341c0.318,0.425,0.649,0.837,0.998,1.235 c0.391-0.439,0.901-1.116,1.644-1.315c0.135,0.27,0.285,0.531,0.435,0.793c-0.636,0.169-1.085,0.802-1.429,1.238 c0.377,0.39,0.775,0.759,1.182,1.117c0.255-0.388,0.639-0.861,1.062-1.118c0.166,0.222,0.333,0.444,0.515,0.658 c-0.363,0.242-0.679,0.671-0.9,1.04c0.466,0.374,0.946,0.732,1.445,1.064c0.307-2.001,3.011-3.392,2.267-5.729 c0.246,0.413,0.539,0.936,0.539,1.563c0,1.683-1.751,3.024-1.947,4.688c0.377,0.224,0.758,0.439,1.151,0.639 c0.115-1.842,1.984-3.851,1.984-5.367c0-1.713-2.241-3.434-2.241-5.457c0-2.014,2.581-3.418,2.581-5.194 c0-1.776-1.101-2.799-1.101-5.067c0-1.666,0.793-3.355,2.012-4.434c0.222-0.19,0.428-0.34,0.69-0.476 c-1.157,1.381-1.822,2.641-1.822,4.545c0,2.141,1.26,3.323,1.26,5.416c0,2.093-2.535,3.259-2.535,5.21 c0,1.959,2.361,3.601,2.361,5.608c0,1.802-2.027,3.606-2.105,5.738c0.45,0.196,0.913,0.364,1.379,0.527 c-0.191-2.159,2.08-4.38,2.08-6.138c0-1.951-2.447-3.624-2.447-5.734c0-2.101,2.486-3.077,2.486-5.242 c0-2.157-1.529-3.354-1.529-5.733c0-1.864,0.92-3.537,2.257-4.568c0.032-0.024,0.056-0.047,0.088-0.072 c0.127-0.087,0.229,0.024,0.142,0.135c-0.95,1.181-1.457,2.387-1.457,4.156c0,2.188,1.758,3.957,1.758,6.075 c0,2.49-2.361,3.203-2.361,5.249c0,2.054,2.528,3.689,2.528,5.861c0,1.985-2.318,4.187-1.991,6.482 c0.481,0.125,0.965,0.239,1.459,0.329c-0.389-2.848,1.91-4.911,1.91-6.779c0-2.054-2.621-3.886-2.621-5.893 c0-1.887,1.877-2.506,2.122-4.44c0.04-0.262,0.253-0.46,0.538-0.412c0.389,0.071,0.872,0.325,1.64,0.325 c0.768,0,1.26-0.254,1.64-0.325c0.293-0.048,0.507,0.15,0.539,0.412c0.246,1.935,2.123,2.553,2.123,4.44 c0,2.007-2.614,3.839-2.614,5.893c0,1.868,2.293,3.932,1.902,6.78c0.001,0,0.001,0,0.002,0c0.491-0.089,0.972-0.202,1.449-0.326 c0.003-0.001,0.005-0.001,0.008-0.002c0.33-2.296-1.99-4.498-1.99-6.484c0-2.173,2.526-3.807,2.526-5.861 c0-2.046-2.352-2.759-2.352-5.249c0-2.118,1.751-3.886,1.751-6.075c0-1.769-0.507-2.975-1.45-4.156 c-0.095-0.111,0.008-0.222,0.135-0.135c0.032,0.024,0.055,0.047,0.087,0.072c1.339,1.031,2.257,2.704,2.257,4.568 c0,2.379-1.529,3.577-1.529,5.733c0,2.165,2.487,3.141,2.487,5.242c0,2.11-2.447,3.784-2.447,5.734c0,1.759,2.273,3.981,2.079,6.141 c0.007-0.003,0.015-0.005,0.022-0.008c0.458-0.16,0.913-0.325,1.355-0.517c0.001-0.001,0.003-0.001,0.004-0.002 c-0.077-2.133-2.106-3.938-2.106-5.741c0-2.007,2.36-3.649,2.36-5.608c0-1.95-2.534-3.117-2.534-5.21 c0-2.093,1.259-3.275,1.259-5.416c0-1.904-0.665-3.164-1.813-4.545c0.253,0.135,0.467,0.285,0.681,0.476 c1.219,1.079,2.011,2.768,2.011,4.434c0,2.268-1.101,3.291-1.101,5.067c0,1.776,2.591,3.18,2.591,5.194 c0,2.023-2.243,3.744-2.243,5.457c0,1.517,1.864,3.528,1.977,5.371c0.002-0.001,0.004-0.002,0.006-0.003 c0.387-0.197,0.764-0.409,1.136-0.63c0.003-0.002,0.007-0.004,0.01-0.006c-0.194-1.666-1.948-3.007-1.948-4.692 c0-0.627,0.293-1.15,0.538-1.563c-0.736,2.338,1.965,3.73,2.269,5.733c0.001-0.001,0.003-0.002,0.005-0.003 c0.48-0.319,0.94-0.663,1.389-1.022c0.018-0.014,0.036-0.026,0.054-0.04c-0.215-0.37-0.539-0.801-0.896-1.044 c0.174-0.214,0.348-0.436,0.507-0.658c0.433,0.259,0.812,0.734,1.066,1.122c0.009-0.008,0.017-0.016,0.025-0.023 c0.397-0.349,0.784-0.708,1.151-1.087c0.002-0.002,0.004-0.004,0.006-0.007c-0.344-0.436-0.787-1.073-1.433-1.243 c0.158-0.262,0.301-0.523,0.436-0.793c0.744,0.2,1.263,0.881,1.647,1.32c0.003-0.003,0.005-0.006,0.008-0.009 c0.343-0.391,0.668-0.795,0.98-1.212c0.004-0.005,0.008-0.011,0.012-0.016c-0.558-0.4-1.044-1.306-2.069-1.344 c-0.087,0.214-0.181,0.436-0.277,0.65c-0.119,0.246-0.285,0.349-0.603,0.349c-0.982,0-2.495-0.634-3.658-1.8 c0.76-1.38,0.989-2.086,0.989-2.808c0-1.824-2.59-3.362-2.59-5.131c0-1.776,0.887-2.791,0.887-4.711 c0-1.729-0.776-3.228-1.798-4.489c0.254,0.16,0.476,0.334,0.69,0.556c1.109,1.117,1.845,2.768,1.845,4.274 c0,2.046-0.768,2.879-0.768,4.394c0,1.396,2.947,3.33,2.614,5.234c1.029,0.943,2.257,1.364,3.334,1.364 c-0.095,0.388-0.206,0.785-0.324,1.165c1.193,0.063,1.749,1.061,2.371,1.417c0.313-0.47,0.607-0.953,0.88-1.449 c-1.047-0.139-1.385-1.489-2.871-1.386c0.079-0.365,0.143-0.738,0.197-1.11c1.709-0.118,2.115,1.299,3.217,1.394 c0.002-0.005,0.005-0.009,0.007-0.014c0.237-0.503,0.453-1.016,0.648-1.541c0.002-0.006,0.004-0.011,0.006-0.017 C41.208,31.032,40.66,29.529,39.014,29.544z M11.522,20.693c-2.883-0.999-4.776,1.864-6.994,1.198 c2.154-2.292,3.905-4.893,3.675-7.899c-0.016-0.175,0.143-0.278,0.293-0.175c1.101,0.762,1.869,2.031,2.107,3.451 c1.521-0.984,3.31-1.119,4.784-0.516C13.866,17.815,12.552,19.155,11.522,20.693z M27.822,17.347 c0.032,0.103-0.008,0.175-0.127,0.118c-0.333-0.15-0.721-0.222-1.133-0.222c-0.76,0-1.425,0.278-1.822,0.761 c-0.113,0.369-0.113,0.759-0.114,1.14c-0.001,0.447,0.093,0.871,0.25,1.252c0.436-0.048,0.331-0.814,0.696-0.814 c0.301,0,0.443,0.215,0.966,0.215c0.476,0,0.666-0.135,0.88-0.287c0.412,0.056,0.507,0.461,0.507,0.921 c0,2.077-1.9,4.932-3.929,4.932c-2.027,0-3.929-2.854-3.929-4.932c0-0.46,0.072-0.873,0.475-0.873c0.341,0,0.397,0.239,0.92,0.239 c0.514,0,0.752-0.215,1.053-0.215c0.309,0,0.42,0.246,0.73,0.317c0.096-0.236,0.129-0.549,0.13-0.88 c0.001-0.349-0.034-0.718-0.123-1.015c-0.396-0.483-1.061-0.761-1.821-0.761c-0.412,0-0.793,0.072-1.125,0.222 c-0.118,0.056-0.166-0.016-0.134-0.118c0.412-1.365,1.968-2.419,3.83-2.419C25.862,14.928,27.418,15.982,27.822,17.347z M27.782,18.37c0,0.174-0.055,0.326-0.238,0.492c-0.348-0.388-1.061-0.381-1.869-0.102c-0.048-0.095-0.048-0.246-0.016-0.342 c0.333-0.372,0.855-0.508,1.298-0.508C27.513,17.91,27.782,18.1,27.782,18.37z M20.21,18.37c0-0.27,0.278-0.46,0.824-0.46 c0.76,0,1.52,0.468,1.489,0.888c-0.855-0.317-1.679-0.333-2.067,0.063C20.274,18.695,20.21,18.544,20.21,18.37z M31.03,15.475 c-0.063,0.151-0.206,0.199-0.357,0.119c-2.011-0.999-4.272-1.57-6.672-1.57s-4.669,0.571-6.681,1.57 c-0.15,0.079-0.293,0.032-0.356-0.119c-0.579-1.3-1.355-2.506-2.242-3.64c1.473,0.104,2.748,0.611,3.778,1.452 c-0.436-1.245-0.998-2.332-1.695-3.386c1.869,0.198,3.429,0.88,4.569,2.054l0.895-2.348l-1.988-1.753l2.653-0.182l1.066-2.464 l1.058,2.464l2.653,0.182l-1.981,1.753l0.887,2.348c1.141-1.175,2.709-1.857,4.579-2.054c-0.705,1.054-1.26,2.141-1.703,3.386 c1.029-0.84,2.312-1.348,3.778-1.452C32.392,12.969,31.608,14.175,31.03,15.475z M32.614,16.752 c1.474-0.603,3.256-0.468,4.785,0.516c0.238-1.42,1.005-2.689,2.099-3.451c0.15-0.103,0.308,0,0.301,0.175 c-0.238,3.006,1.52,5.607,3.674,7.899c-2.226,0.666-4.119-2.197-6.994-1.198C35.442,19.155,34.127,17.815,32.614,16.752z"/><path fill="#326e36" d="M24.001 10.955c0 0-2.008 1.53-2.079 1.586-.079.055-.04.15.063.134.174-.032 1.026-.182 2.016-.182.99 0 1.834.151 2.015.182.095.016.135-.079.056-.134C26.009 12.485 24.001 10.955 24.001 10.955zM24.008 21.448c-.245 0-.297-.08-.464-.08-.158 0-.467.127-.538.238.008.064.032.111.072.159.356.056.52.26.932.26.412 0 .564-.204.921-.26.047-.048.063-.095.072-.159-.063-.111-.373-.238-.531-.238C24.304 21.368 24.254 21.448 24.008 21.448zM22.547 22.605c0 0-.111.04-.134.135.42.325.705 1.062 1.584 1.062.879 0 1.173-.738 1.592-1.062-.032-.095-.134-.135-.134-.135S24.9 22.74 23.996 22.74C23.094 22.74 22.547 22.605 22.547 22.605z"/></svg>