<svg xmlns="http://www.w3.org/2000/svg"  viewBox="0 0 48 48" width="1600px" height="1600px"><path fill="#37474f" d="M13.083,42h21.834C38.829,42,42,38.829,42,34.917V13.083C42,9.171,38.829,6,34.917,6H13.083	C9.171,6,6,9.171,6,13.083v21.834C6,38.829,9.171,42,13.083,42z"/><path fill="#66bb6a" d="M24.715,9.018c-4.158-0.206-8.079,1.274-11.072,4.132C10.649,16.008,9,19.861,9,24	c0,7.417,5.529,13.8,12.86,14.848c0.046,0.007,0.093,0.01,0.139,0.01c0.237,0,0.468-0.086,0.651-0.244	C22.873,38.421,23,38.143,23,37.851v-2.432c0-0.438,0.19-0.853,0.516-1.132l4.912-4.057c1.082-0.928,1.664-2.331,1.557-3.757	l-0.986-12.015C28.977,14.199,28.76,14,28.5,14c-1.103,0-2,0.897-2,2v7.5c0,0.275-0.224,0.5-0.5,0.5s-0.5-0.225-0.5-0.5v-8	c0-0.827-0.673-1.5-1.5-1.5s-1.5,0.673-1.5,1.5v8c0,0.275-0.224,0.5-0.5,0.5s-0.5-0.225-0.5-0.5V16c0-1.103-0.897-2-2-2	c-0.26,0-0.477,0.199-0.499,0.459l-0.986,12.018c-0.107,1.423,0.475,2.826,1.565,3.761l3.648,2.99l-0.357,0.295	C22.318,33.998,22,34.689,22,35.419l0.002,2.438C15.16,36.88,10,30.923,10,24c0-3.862,1.539-7.459,4.334-10.128	c2.793-2.666,6.465-4.023,10.334-3.856c7.255,0.338,13.235,6.526,13.33,13.796C38.091,30.828,32.933,36.866,26,37.849V34.5	c0-0.276-0.224-0.5-0.5-0.5S25,34.224,25,34.5v3.349c0,0.293,0.127,0.571,0.35,0.764c0.22,0.19,0.511,0.278,0.792,0.235	c7.428-1.062,12.956-7.532,12.857-15.05C38.896,16.009,32.489,9.378,24.715,9.018z M20.224,29.471	c-0.842-0.722-1.294-1.812-1.211-2.915l0.939-11.447C20.277,15.273,20.5,15.611,20.5,16v7.5c0,0.827,0.673,1.5,1.5,1.5	s1.5-0.673,1.5-1.5v-8c0-0.275,0.224-0.5,0.5-0.5s0.5,0.225,0.5,0.5v8c0,0.827,0.673,1.5,1.5,1.5s1.5-0.673,1.5-1.5V16	c0-0.389,0.223-0.727,0.548-0.892l0.939,11.444c0.083,1.105-0.369,2.196-1.204,2.912l-3.769,3.113L20.224,29.471z"/></svg>