<svg xmlns="http://www.w3.org/2000/svg"  viewBox="0 0 48 48" width="1600px" height="1600px"><path fill="#ff8f00" d="M39,39.1H9c-1.7,0-3-1.3-3-3V9c0-1.7,1.3-3,3-3h30c1.7,0,3,1.3,3,3v27.1C42,37.7,40.7,39.1,39,39.1z"/><path fill="#dd2c00" d="M39,42H9c-1.7,0-3-1.3-3-3V14c0-1.7,1.3-3,3-3h30c1.7,0,3,1.3,3,3v25C42,40.7,40.7,42,39,42z"/><path fill="#b71c1c" d="M15 15A2 2 0 1 0 15 19 2 2 0 1 0 15 15zM33 15A2 2 0 1 0 33 19 2 2 0 1 0 33 15z"/><path fill="#fff" d="M24,27c-5.5,0-10-4.5-10-10c0-0.6,0.4-1,1-1s1,0.4,1,1c0,4.4,3.6,8,8,8s8-3.6,8-8c0-0.6,0.4-1,1-1 s1,0.4,1,1C34,22.5,29.5,27,24,27z"/></svg>