<svg xmlns="http://www.w3.org/2000/svg"  viewBox="0 0 48 48" width="1600px" height="1600px"><path fill="#c69c6d" d="M42,34c0,4.418-3.582,8-8,8H14c-4.418,0-8-3.582-8-8V14c0-4.418,3.582-8,8-8h20c4.418,0,8,3.582,8,8	V34z"/><path fill="#212121" d="M36.837,22c-1.003,0-2.194,0.253-3.071,0.884c-0.251,0.19-0.251,0.442,0.062,0.442	c1.003-0.126,3.26-0.442,3.699,0.126c0.376,0.505-0.439,2.654-0.815,3.665c-0.125,0.316,0.125,0.379,0.376,0.19	c1.692-1.454,2.132-4.424,1.818-4.803C38.718,22.19,37.84,22,36.837,22z"/><path fill="#212121" d="M9.347,23.047c2.03,1.098,4.199,1.612,6.378,2.28c2.196,0.625,4.227,0.902,6.475,0.987	c2.243,0.085,4.713,0.079,6.926-0.382c2.204-0.455,4.427-0.912,6.471-1.854l0.035-0.016c0.227-0.104,0.494-0.005,0.598,0.221	c0.092,0.2,0.025,0.433-0.149,0.556c-1.998,1.417-4.256,2.023-6.6,2.63C27.141,28.068,24.708,28.036,22.3,28	c-2.431-0.037-4.795-0.503-7.028-1.367c-2.226-0.894-4.329-1.715-6.189-3.22c-0.097-0.079-0.112-0.221-0.033-0.318	c0.069-0.086,0.19-0.107,0.282-0.057L9.347,23.047z"/><path fill="#00b0ff" d="M24.004,15h-5.021c-0.552,0-1-0.448-1-1V6h12.035v3L24.004,15z"/><path fill="#40c4ff" d="M24.018,15v-4c0-1.105,0.895-2,2-2h4L24.018,15z"/></svg>