<svg xmlns="http://www.w3.org/2000/svg"  viewBox="0 0 48 48" width="1600px" height="1600px" clip-rule="evenodd"><path fill="#e31837" fill-rule="evenodd" d="M23.928,37.011C31.507,30.514,42.153,24.199,48,21.925 c-0.902-0.578-2.31-1.408-3.898-2.31c-7.543,2.49-16.349,8.012-24.217,14.256C21.221,34.881,22.628,35.928,23.928,37.011 L23.928,37.011z" clip-rule="evenodd"/><path fill="#012169" fill-rule="evenodd" d="M20.463,19.363c-1.119-0.542-2.346-1.047-3.284-1.48 c-2.851,1.407-6.569,3.537-11.26,6.893c1.011,0.542,2.093,1.191,3.248,1.841C12.776,23.946,16.421,21.42,20.463,19.363z" clip-rule="evenodd"/><path fill="#e31837" fill-rule="evenodd" d="M27.212,16.259c-1.372-0.758-6.135-2.527-9.42-3.284 c-0.974,0.361-2.346,0.902-3.284,1.299c1.191,0.325,5.63,1.516,9.42,3.429C24.902,17.233,26.274,16.656,27.212,16.259 L27.212,16.259z" clip-rule="evenodd"/><path fill="#012169" fill-rule="evenodd" d="M11.079,15.79C6.857,17.739,2.418,20.409,0,21.961 c0.866,0.397,1.732,0.722,2.923,1.299c5.341-3.609,9.528-5.811,11.188-6.532C12.92,16.294,11.801,16.006,11.079,15.79L11.079,15.79 z" clip-rule="evenodd"/><path fill="#e31837" fill-rule="evenodd" d="M30.388,15.14c0.974-0.325,2.094-0.614,3.068-0.903 c-2.815-1.191-6.352-2.454-9.528-3.248c-0.505,0.144-2.021,0.542-3.068,0.866C21.943,12.181,25.515,13.011,30.388,15.14z M12.595,28.71c1.155,0.686,2.382,1.624,3.573,2.418c7.904-6.135,15.699-10.863,24.253-13.534 c-1.191-0.613-2.238-1.154-3.573-1.804C31.723,17.089,22.953,20.589,12.595,28.71L12.595,28.71z" clip-rule="evenodd"/></svg>