<svg xmlns="http://www.w3.org/2000/svg"  viewBox="0 0 48 48" width="1600px" height="1600px"><path fill="#34313f" d="M24.557,26.203h4.917c1.398,0,2.284-0.77,2.284-2.006c0-1.166-0.886-2.006-2.284-2.006h-4.917 c-0.163,0-0.303,0.14-0.303,0.28v3.453C24.277,26.086,24.394,26.203,24.557,26.203z"/><path fill="#34313f" d="M24.557,34.158h5.08c1.561,0,2.494-0.793,2.494-2.193c0-1.213-0.886-2.193-2.494-2.193h-5.08 c-0.163,0-0.303,0.14-0.303,0.28v3.803C24.277,34.041,24.394,34.158,24.557,34.158z"/><path fill="#34313f" d="M42.548,4.086L28.006,18.597h2.377c3.705,0,5.896,2.333,5.896,4.876 c0,2.006-1.352,3.476-2.796,4.129c-0.233,0.093-0.233,0.42,0.023,0.513c1.678,0.653,2.866,2.403,2.866,4.456 c0,2.893-1.934,5.202-5.686,5.202h-10.3c-0.163,0-0.303-0.14-0.303-0.28V26.506L4.119,42.417C3.91,42.627,4.049,43,4.352,43h38.382 c0.14,0,0.256-0.117,0.256-0.257V4.296C43.06,4.04,42.734,3.9,42.548,4.086z"/></svg>