<svg xmlns="http://www.w3.org/2000/svg"  viewBox="0 0 48 48" width="1600px" height="1600px"><path fill="#607d8b" d="M44,24c0,11.044-8.956,20-20,20S4,35.044,4,24S12.956,4,24,4S44,12.956,44,24z"/><path fill="#eceff1" d="M19.992 17.516c0-.797-.488-1.805-2.543-1.805h-3.156l-.898 4.156h3.293C19.258 19.867 19.992 18.648 19.992 17.516zM28.5 17.516c0-.797-.484-1.805-2.535-1.805h-3.16l-.898 4.156h3.293C27.77 19.867 28.5 18.648 28.5 17.516zM18.852 23.773c0-.797-.488-1.809-2.539-1.809h-3.16l-.898 4.16h3.293C18.117 26.125 18.852 24.902 18.852 23.773zM27.359 23.773c0-.797-.488-1.809-2.535-1.809h-3.16l-.898 4.16h3.293C26.629 26.125 27.359 24.902 27.359 23.773zM36.262 21.234c0-.797-.488-1.809-2.535-1.809h-3.16l-.898 4.16h3.293C35.531 23.586 36.262 22.367 36.262 21.234zM35.035 27.75c0-.797-.484-1.809-2.539-1.809H29.34l-.898 4.16h3.293C34.305 30.102 35.035 28.883 35.035 27.75zM26.137 30.289c0-.801-.484-1.813-2.535-1.813h-3.16l-.898 4.16h3.293C25.406 32.637 26.137 31.418 26.137 30.289z"/><path fill="#eceff1" d="M19.992 17.516c0-.797-.488-1.805-2.543-1.805h-3.156l-.898 4.156h3.293C19.258 19.867 19.992 18.648 19.992 17.516zM28.5 17.516c0-.797-.484-1.805-2.535-1.805h-3.16l-.898 4.156h3.293C27.77 19.867 28.5 18.648 28.5 17.516zM18.852 23.773c0-.797-.488-1.809-2.539-1.809h-3.16l-.898 4.16h3.293C18.117 26.125 18.852 24.902 18.852 23.773zM27.359 23.773c0-.797-.488-1.809-2.535-1.809h-3.16l-.898 4.16h3.293C26.629 26.125 27.359 24.902 27.359 23.773zM36.262 21.234c0-.797-.488-1.809-2.535-1.809h-3.16l-.898 4.16h3.293C35.531 23.586 36.262 22.367 36.262 21.234zM35.035 27.75c0-.797-.484-1.809-2.539-1.809H29.34l-.898 4.16h3.293C34.305 30.102 35.035 28.883 35.035 27.75zM26.137 30.289c0-.801-.484-1.813-2.535-1.813h-3.16l-.898 4.16h3.293C25.406 32.637 26.137 31.418 26.137 30.289z"/></svg>