<svg xmlns="http://www.w3.org/2000/svg"  viewBox="0 0 48 48" width="1600px" height="1600px"><path fill="#2196F3" d="M34.399 6.059c.534-.114 1.023-.216 1.512-.325.039-.009.096-.069.097-.105C36.013 5.09 36.012 4.551 36.012 4c-.512.117-.994.223-1.473.343-.055.014-.133.095-.133.146C34.396 4.998 34.399 5.509 34.399 6.059zM36.013 44c0-.55.003-1.083-.007-1.616-.001-.046-.091-.116-.15-.13-.308-.075-.618-.137-.929-.201-.169-.035-.339-.067-.528-.104 0 .54-.003 1.043.004 1.545.001.053.053.143.096.153C34.993 43.77 35.49 43.88 36.013 44zM33.996 6.141c0-.581 0-1.122 0-1.677-.362.074-.709.144-1.056.217-.552.117-.552.118-.552.697 0 .35 0 .698 0 1.068C32.948 6.34 33.47 6.241 33.996 6.141zM32.388 41.555c0 .546-.003 1.042.004 1.537.001.045.053.122.093.13.498.109.998.209 1.511.313 0-.566 0-1.114 0-1.677C33.466 41.758 32.943 41.66 32.388 41.555zM30.389 6.784c.513-.084.986-.158 1.457-.244.057-.01.147-.083.148-.13.01-.502.007-1.004.007-1.534-.53.094-1.031.182-1.531.277-.033.006-.077.077-.077.119C30.388 5.767 30.389 6.262 30.389 6.784zM29.993 41.153c-.541-.078-1.066-.154-1.6-.231 0 .543 0 1.066 0 1.59.54.085 1.064.168 1.6.252C29.993 42.22 29.993 41.702 29.993 41.153zM24.313 7.538c.519-.05 1.023-.097 1.528-.152.038-.004.099-.064.099-.1.007-.483.004-.967.004-1.47-.567.062-1.1.12-1.631.178C24.313 6.517 24.313 7.017 24.313 7.538zM23.902 41.965c0-.35 0-.679 0-1.009 0-.517 0-.52-.507-.569-.367-.036-.734-.061-1.114-.091 0 .523 0 1.016 0 1.532C22.818 41.874 23.346 41.919 23.902 41.965zM23.889 6.033c-.553.048-1.08.094-1.607.14 0 .518 0 1.01 0 1.528.542-.042 1.07-.082 1.607-.123C23.889 7.057 23.889 6.557 23.889 6.033zM26.349 42.233c.539.071 1.065.142 1.604.213 0-.539 0-1.054 0-1.584-.538-.065-1.064-.128-1.604-.193C26.349 41.202 26.349 41.703 26.349 42.233zM27.953 5.552c-.545.073-1.076.144-1.599.215 0 .532 0 1.039 0 1.564.545-.066 1.071-.13 1.599-.194C27.953 6.598 27.953 6.083 27.953 5.552zM20.245 6.296c0 .521 0 1.017 0 1.527.551-.032 1.081-.063 1.609-.095 0-.519 0-1.012 0-1.523C21.314 6.236 20.79 6.265 20.245 6.296zM21.857 40.269c-.555-.029-1.082-.057-1.634-.085 0 .485-.005.939.007 1.392.002.048.098.128.157.135.237.028.476.034.716.046.251.013.501.025.754.037C21.857 41.276 21.857 40.784 21.857 40.269zM16.165 41.594c.541 0 1.07 0 1.609 0 0-.488 0-.979 0-1.494-.538 0-1.067 0-1.609 0C16.165 40.583 16.165 41.067 16.165 41.594zM18.205 41.645c.552 0 1.08 0 1.607 0 0-.491 0-.977 0-1.496-.54 0-1.069 0-1.607 0C18.205 40.629 18.205 41.114 18.205 41.645zM17.774 7.898c0-.52 0-1.006 0-1.49-.542 0-1.071 0-1.603 0 0 .515 0 1.004 0 1.49C16.715 7.898 17.238 7.898 17.774 7.898zM14.117 7.897c.54 0 1.07 0 1.607 0 0-.495 0-.984 0-1.494-.545 0-1.075 0-1.607 0C14.117 6.905 14.117 7.391 14.117 7.897zM36.006 8.006c-.55.103-1.076.203-1.588.3 0 .51 0 .984 0 1.487.543-.092 1.064-.18 1.588-.269C36.006 9.014 36.006 8.53 36.006 8.006zM34.399 38.205c0 .294-.003.544.001.795.003.226-.064.512.046.659.099.132.395.116.606.157.313.061.627.116.945.173 0-.527 0-1.017 0-1.515C35.467 38.384 34.952 38.297 34.399 38.205zM37.997 38.845c-.529-.099-1.043-.195-1.571-.294 0 .52 0 1.014 0 1.523.523.109 1.041.216 1.571.325C37.997 39.876 37.997 39.373 37.997 38.845zM36.43 9.45c.535-.102 1.054-.201 1.565-.298 0-.537 0-1.039 0-1.554-.53.11-1.049.219-1.565.327C36.43 8.441 36.43 8.934 36.43 9.45zM37.994 5.649c-.498.114-.988.224-1.474.342C36.48 6 36.423 6.057 36.423 6.091c-.007.477-.004.954-.004 1.448.543-.116 1.055-.225 1.576-.337C37.994 6.69 37.994 6.188 37.994 5.649zM32.397 10.101c.55-.083 1.073-.162 1.594-.241 0-.501 0-.983 0-1.482-.542.09-1.064.177-1.594.264C32.397 9.13 32.397 9.599 32.397 10.101zM33.989 39.619c0-.512 0-.995 0-1.481-.536-.081-1.054-.158-1.588-.238 0 .496 0 .971 0 1.457C32.931 39.444 33.449 39.53 33.989 39.619zM33.994 41.482c0-.503 0-.987 0-1.483-.534-.09-1.055-.179-1.594-.27 0 .497 0 .972 0 1.457C32.932 41.284 33.454 41.382 33.994 41.482zM33.996 6.519c-.498.092-.985.179-1.47.276-.051.01-.132.075-.133.116-.009.445-.006.89-.006 1.363C32.944 8.179 33.467 8.09 33.996 8 33.996 7.497 33.996 7.012 33.996 6.519zM25.931 40.27c0-.481 0-.924 0-1.381-.549-.048-1.082-.095-1.618-.142 0 .476 0 .913 0 1.364C24.852 40.164 25.381 40.217 25.931 40.27zM24.307 38.399c.553.047 1.086.092 1.611.137.015-.043.024-.058.024-.073.002-.267.003-.534.004-.801.001-.49 0-.49-.468-.534-.046-.004-.091-.015-.138-.018-.342-.024-.684-.048-1.034-.072C24.307 37.507 24.307 37.937 24.307 38.399zM8.013 11.349c0 .465 0 .901 0 1.359.541.03 1.07.057 1.605.087 0-.466 0-.903 0-1.356C9.077 11.409 8.55 11.379 8.013 11.349zM8.012 38.367c.546-.038 1.073-.076 1.607-.113 0-.459 0-.895 0-1.352-.541.035-1.069.068-1.607.103C8.012 37.461 8.012 37.898 8.012 38.367zM8.001 14.809c0 .393-.003.807.005 1.221.001.037.078.102.12.103.492.007.982.004 1.488.004 0-.409 0-.85 0-1.328C9.073 14.809 8.55 14.809 8.001 14.809zM8.013 17.857c.544 0 1.067 0 1.603 0 0-.432 0-.875 0-1.348-.541 0-1.065 0-1.603 0C8.013 16.933 8.013 17.37 8.013 17.857zM9.621 35.203c-.551.031-1.079.062-1.607.091 0 .468 0 .905 0 1.361.543-.034 1.07-.066 1.607-.099C9.621 36.102 9.621 35.672 9.621 35.203zM9.621 19.914c-.55 0-1.071 0-1.605 0 0 .444 0 .886 0 1.347.545 0 1.073 0 1.605 0C9.621 20.81 9.621 20.381 9.621 19.914zM9.623 26.75c-.551 0-1.079 0-1.606 0 0 .463 0 .905 0 1.319.545 0 1.073 0 1.606 0C9.623 27.61 9.623 27.187 9.623 26.75zM8.012 29.777c.542 0 1.07 0 1.606 0 0-.47 0-.905 0-1.327-.542 0-1.07 0-1.606 0C8.012 28.918 8.012 29.355 8.012 29.777zM17.78 9.937c-.551 0-1.081 0-1.609 0 0 .455 0 .889 0 1.311.548 0 1.076 0 1.609 0C17.78 10.799 17.78 10.376 17.78 9.937zM15.728 9.933c-.545 0-1.074 0-1.611 0 0 .443 0 .872 0 1.321.539 0 1.069 0 1.611 0C15.728 10.822 15.728 10.392 15.728 9.933zM14.121 19.627c.542 0 1.07 0 1.604 0 0-.447 0-.88 0-1.313-.545 0-1.074 0-1.604 0C14.121 18.76 14.121 19.189 14.121 19.627zM14.118 29.685c.553 0 1.082 0 1.611 0 0-.452 0-.882 0-1.314-.541 0-1.07 0-1.611 0C14.118 28.82 14.118 29.249 14.118 29.685zM13.686 21.655c-.547 0-1.076 0-1.612 0 0 .445 0 .875 0 1.323.542 0 1.072 0 1.612 0C13.686 22.538 13.686 22.107 13.686 21.655zM14.126 21.666c0 .448 0 .882 0 1.312.547 0 1.076 0 1.603 0 0-.446 0-.876 0-1.312C15.186 21.666 14.657 21.666 14.126 21.666zM10.043 21.277c.539 0 1.068 0 1.598 0 0-.439 0-.87 0-1.323-.538 0-1.066 0-1.598 0C10.043 20.394 10.043 20.824 10.043 21.277zM13.683 25.027c-.548 0-1.077 0-1.612 0 0 .448 0 .878 0 1.318.539 0 1.07 0 1.612 0C13.683 25.901 13.683 25.471 13.683 25.027zM15.736 25.023c-.551 0-1.08 0-1.609 0 0 .449 0 .883 0 1.311.548 0 1.076 0 1.609 0C15.736 25.893 15.736 25.47 15.736 25.023zM11.645 26.727c-.551 0-1.076 0-1.601 0 0 .458 0 .887 0 1.315.539 0 1.067 0 1.601 0C11.645 27.591 11.645 27.161 11.645 26.727zM11.639 24.671c0-.45 0-.885 0-1.328-.538 0-1.064 0-1.591 0 0 .451 0 .886 0 1.328C10.589 24.671 11.11 24.671 11.639 24.671zM10.043 29.73c.539 0 1.066 0 1.596 0 0-.461 0-.89 0-1.309-.54 0-1.067 0-1.596 0C10.043 28.881 10.043 29.31 10.043 29.73zM10.043 38.23c.54-.025 1.068-.05 1.595-.076 0-.459 0-.889 0-1.346-.54.024-1.068.049-1.595.073C10.043 37.345 10.043 37.776 10.043 38.23zM13.688 33.43c-.553 0-1.082 0-1.608 0 0 .463 0 .898 0 1.306.547 0 1.076 0 1.608 0C13.688 34.277 13.688 33.854 13.688 33.43zM10.042 12.835c.543 0 1.07 0 1.591 0 0-.426 0-.862 0-1.331-.538 0-1.058 0-1.591 0C10.042 11.92 10.042 12.35 10.042 12.835zM12.073 31.379c.553 0 1.081 0 1.61 0 0-.459 0-.887 0-1.31-.542 0-1.071 0-1.61 0C12.073 30.522 12.073 30.95 12.073 31.379zM11.639 31.791c-.539 0-1.065 0-1.594 0 0 .471 0 .907 0 1.317.541 0 1.068 0 1.594 0C11.639 32.638 11.639 32.209 11.639 31.791zM16.163 38.066c.557 0 1.085 0 1.608 0 0-.445 0-.873 0-1.317-.544 0-1.073 0-1.608 0C16.163 37.19 16.163 37.62 16.163 38.066zM14.123 36.751c0 .463 0 .89 0 1.313.545 0 1.074 0 1.608 0 0-.448 0-.877 0-1.313C15.193 36.751 14.664 36.751 14.123 36.751zM11.639 34.808c0-.482 0-.91 0-1.317-.539 0-1.066 0-1.596 0 0 .47 0 .898 0 1.317C10.578 34.808 11.099 34.808 11.639 34.808zM12.077 14.939c0 .439 0 .867 0 1.32.544 0 1.072 0 1.609 0 0-.434 0-.863 0-1.32C13.148 14.939 12.618 14.939 12.077 14.939zM10.04 14.518c.544 0 1.065 0 1.596 0 0-.423 0-.857 0-1.323-.541 0-1.067 0-1.596 0C10.04 13.627 10.04 14.049 10.04 14.518zM11.633 19.592c0-.447 0-.881 0-1.336-.54 0-1.062 0-1.583 0 0 .45 0 .885 0 1.336C10.584 19.592 11.1 19.592 11.633 19.592zM13.69 26.709c-.551 0-1.081 0-1.618 0 0 .448 0 .877 0 1.305.545 0 1.078 0 1.618 0C13.69 27.565 13.69 27.143 13.69 26.709zM12.078 11.577c0 .427 0 .862 0 1.323.544 0 1.071 0 1.609 0 0-.43 0-.859 0-1.323C13.152 11.577 12.623 11.577 12.078 11.577zM10.051 30.097c0 .48 0 .915 0 1.329.541 0 1.062 0 1.587 0 0-.469 0-.903 0-1.329C11.102 30.097 10.581 30.097 10.051 30.097zM12.073 38.097c.551 0 1.08 0 1.61 0 0-.464 0-.893 0-1.306-.542 0-1.07 0-1.61 0C12.073 37.25 12.073 37.679 12.073 38.097zM13.69 38.47c-.55 0-1.079 0-1.61 0 0 .47 0 .906 0 1.314.548 0 1.076 0 1.61 0C13.69 39.319 13.69 38.895 13.69 38.47zM12.073 36.419c.546 0 1.08 0 1.608 0 0-.465 0-.894 0-1.31-.544 0-1.072 0-1.608 0C12.073 35.571 12.073 36 12.073 36.419zM15.73 16.635c-.548 0-1.076 0-1.61 0 0 .441 0 .869 0 1.317.541 0 1.07 0 1.61 0C15.73 17.52 15.73 17.09 15.73 16.635zM13.681 17.939c0-.45 0-.877 0-1.324-.544 0-1.073 0-1.6 0 0 .442 0 .877 0 1.324C12.624 17.939 13.146 17.939 13.681 17.939zM14.121 23.342c0 .45 0 .877 0 1.31.543 0 1.071 0 1.609 0 0-.44 0-.868 0-1.31C15.192 23.342 14.664 23.342 14.121 23.342zM16.168 38.427c0 .443 0 .87 0 1.314.545 0 1.073 0 1.603 0 0-.445 0-.874 0-1.314C17.233 38.427 16.71 38.427 16.168 38.427zM16.162 9.564c.557 0 1.087 0 1.607 0 0-.451 0-.88 0-1.296-.548 0-1.078 0-1.607 0C16.162 8.713 16.162 9.136 16.162 9.564zM13.681 21.294c0-.441 0-.876 0-1.317-.544 0-1.072 0-1.607 0 0 .445 0 .874 0 1.317C12.613 21.294 13.143 21.294 13.681 21.294zM14.122 30.05c0 .454 0 .883 0 1.31.545 0 1.075 0 1.605 0 0-.447 0-.876 0-1.31C15.189 30.05 14.664 30.05 14.122 30.05z"/><path fill="#2196F3" d="M34.399 6.059c0-.55-.004-1.06.006-1.57.001-.051.079-.132.133-.146C35.017 4.223 35.5 4.117 36.012 4c0 .551.002 1.09-.004 1.628 0 .037-.057.097-.097.105C35.423 5.843 34.934 5.945 34.399 6.059zM36.013 44c-.522-.12-1.019-.23-1.513-.352-.043-.01-.095-.1-.096-.153-.008-.503-.004-1.005-.004-1.545.19.037.359.07.528.104.31.064.621.126.929.201.059.015.149.084.15.13C36.017 42.917 36.013 43.45 36.013 44zM33.996 6.141c-.526.1-1.047.199-1.608.306 0-.37 0-.718 0-1.068 0-.579 0-.58.552-.697.347-.074.695-.143 1.056-.217C33.996 5.02 33.996 5.56 33.996 6.141zM32.388 41.555c.556.105 1.078.203 1.608.303 0 .563 0 1.11 0 1.677-.513-.104-1.013-.203-1.511-.313-.04-.009-.092-.085-.093-.13C32.386 42.597 32.388 42.101 32.388 41.555zM30.389 6.784c0-.523-.002-1.017.003-1.511.001-.042.044-.112.077-.119.5-.096 1.001-.183 1.531-.277 0 .53.004 1.032-.007 1.534-.001.046-.091.119-.148.13C31.376 6.626 30.902 6.7 30.389 6.784zM29.993 41.153c0 .549 0 1.067 0 1.611-.536-.084-1.059-.167-1.6-.252 0-.523 0-1.046 0-1.59C28.927 40.999 29.452 41.075 29.993 41.153zM24.313 7.538c0-.522 0-1.021 0-1.544.532-.058 1.064-.117 1.631-.178 0 .503.003.987-.004 1.47-.001.035-.062.096-.099.1C25.337 7.442 24.832 7.489 24.313 7.538zM23.902 41.965c-.555-.047-1.083-.091-1.622-.137 0-.517 0-1.009 0-1.532.38.03.747.056 1.114.091.508.049.507.052.507.569C23.902 41.286 23.902 41.615 23.902 41.965zM23.889 6.033c0 .524 0 1.024 0 1.544-.538.041-1.065.082-1.607.123 0-.517 0-1.01 0-1.528C22.809 6.127 23.336 6.081 23.889 6.033zM26.349 42.233c0-.53 0-1.031 0-1.564.539.065 1.066.129 1.604.193 0 .53 0 1.045 0 1.584C27.414 42.375 26.887 42.304 26.349 42.233zM27.953 5.552c0 .53 0 1.046 0 1.585-.528.064-1.055.128-1.599.194 0-.525 0-1.032 0-1.564C26.877 5.697 27.407 5.625 27.953 5.552zM20.245 6.296c.545-.03 1.069-.06 1.609-.09 0 .51 0 1.003 0 1.523-.528.031-1.058.063-1.609.095C20.245 7.313 20.245 6.817 20.245 6.296zM21.857 40.269c0 .516 0 1.007 0 1.525-.253-.012-.504-.024-.754-.037-.239-.013-.478-.018-.716-.046-.059-.007-.156-.086-.157-.135-.012-.453-.007-.907-.007-1.392C20.775 40.212 21.303 40.239 21.857 40.269zM16.165 41.594c0-.527 0-1.01 0-1.494.543 0 1.071 0 1.609 0 0 .515 0 1.006 0 1.494C17.234 41.594 16.706 41.594 16.165 41.594zM18.205 41.645c0-.531 0-1.017 0-1.496.537 0 1.065 0 1.607 0 0 .519 0 1.003 0 1.496C19.285 41.645 18.757 41.645 18.205 41.645zM17.774 7.898c-.536 0-1.06 0-1.603 0 0-.485 0-.975 0-1.49.532 0 1.061 0 1.603 0C17.774 6.893 17.774 7.378 17.774 7.898zM14.117 7.897c0-.505 0-.991 0-1.494.534 0 1.063 0 1.607 0 0 .509 0 .999 0 1.494C15.188 7.897 14.658 7.897 14.117 7.897zM36.006 8.006c0 .523 0 1.009 0 1.518-.524.089-1.045.177-1.588.269 0-.503 0-.977 0-1.487C34.929 8.209 35.456 8.11 36.006 8.006zM34.399 38.205c.553.093 1.068.179 1.598.269 0 .497 0 .988 0 1.515-.318-.058-.632-.112-.945-.173-.211-.041-.507-.024-.606-.157-.11-.146-.042-.433-.046-.659C34.396 38.749 34.399 38.498 34.399 38.205zM37.997 38.845c0 .528 0 1.03 0 1.556-.529-.11-1.047-.217-1.571-.325 0-.51 0-1.003 0-1.523C36.954 38.65 37.468 38.746 37.997 38.845zM36.43 9.45c0-.517 0-1.01 0-1.525.516-.108 1.035-.217 1.565-.327 0 .516 0 1.017 0 1.554C37.484 9.25 36.965 9.349 36.43 9.45zM37.994 5.649c0 .539 0 1.041 0 1.553-.521.111-1.033.221-1.576.337 0-.494-.002-.97.004-1.448.001-.036.057-.091.097-.101C37.006 5.873 37.495 5.763 37.994 5.649zM32.397 10.101c0-.503 0-.971 0-1.457.529-.088 1.052-.174 1.594-.264 0 .498 0 .98 0 1.482C33.47 9.939 32.947 10.018 32.397 10.101zM33.989 39.619c-.539-.09-1.058-.175-1.588-.263 0-.486 0-.962 0-1.457.534.08 1.052.158 1.588.238C33.989 38.624 33.989 39.108 33.989 39.619zM33.994 41.482c-.54-.101-1.063-.197-1.594-.297 0-.484 0-.96 0-1.457.538.091 1.06.18 1.594.27C33.994 40.495 33.994 40.978 33.994 41.482zM33.996 6.519c0 .493 0 .977 0 1.481-.529.09-1.052.179-1.608.274 0-.473-.003-.919.006-1.363.001-.041.081-.106.133-.116C33.012 6.697 33.499 6.61 33.996 6.519zM25.931 40.27c-.55-.054-1.078-.105-1.618-.157 0-.451 0-.889 0-1.364.536.047 1.07.094 1.618.142C25.931 39.345 25.931 39.789 25.931 40.27zM24.307 38.399c0-.462 0-.892 0-1.362.35.024.692.048 1.034.072.046.003.091.014.138.018.468.044.469.044.468.534 0 .267-.002.534-.004.801 0 .015-.009.029-.024.073C25.393 38.491 24.86 38.446 24.307 38.399zM8.013 11.349c.537.03 1.064.06 1.605.09 0 .452 0 .89 0 1.356-.536-.029-1.064-.057-1.605-.087C8.013 12.25 8.013 11.814 8.013 11.349zM8.012 38.367c0-.469 0-.906 0-1.363.539-.034 1.066-.068 1.607-.103 0 .457 0 .893 0 1.352C9.085 38.291 8.558 38.329 8.012 38.367zM8.001 14.809c.55 0 1.072 0 1.613 0 0 .478 0 .92 0 1.328-.504 0-.996.003-1.488-.004-.042-.001-.119-.066-.12-.103C7.998 15.616 8.001 15.202 8.001 14.809zM8.013 17.857c0-.487 0-.924 0-1.348.538 0 1.062 0 1.603 0 0 .472 0 .916 0 1.348C9.08 17.857 8.556 17.857 8.013 17.857zM9.621 35.203c0 .469 0 .898 0 1.353-.537.033-1.064.065-1.607.099 0-.456 0-.893 0-1.361C8.542 35.265 9.069 35.235 9.621 35.203zM9.621 19.914c0 .467 0 .897 0 1.347-.532 0-1.06 0-1.605 0 0-.461 0-.903 0-1.347C8.55 19.914 9.071 19.914 9.621 19.914zM9.623 26.75c0 .437 0 .859 0 1.319-.533 0-1.06 0-1.606 0 0-.415 0-.857 0-1.319C8.544 26.75 9.072 26.75 9.623 26.75zM8.012 29.777c0-.423 0-.859 0-1.327.536 0 1.064 0 1.606 0 0 .422 0 .857 0 1.327C9.082 29.777 8.554 29.777 8.012 29.777zM17.78 9.937c0 .439 0 .863 0 1.311-.533 0-1.061 0-1.609 0 0-.422 0-.856 0-1.311C16.7 9.937 17.229 9.937 17.78 9.937zM15.728 9.933c0 .46 0 .889 0 1.321-.542 0-1.07 0-1.611 0 0-.449 0-.877 0-1.321C14.654 9.933 15.183 9.933 15.728 9.933zM14.121 19.627c0-.438 0-.867 0-1.313.53 0 1.058 0 1.604 0 0 .433 0 .866 0 1.313C15.191 19.627 14.663 19.627 14.121 19.627zM14.118 29.685c0-.437 0-.866 0-1.314.54 0 1.069 0 1.611 0 0 .432 0 .862 0 1.314C15.2 29.685 14.672 29.685 14.118 29.685zM13.686 21.655c0 .452 0 .883 0 1.323-.539 0-1.07 0-1.612 0 0-.448 0-.877 0-1.323C12.609 21.655 13.139 21.655 13.686 21.655zM14.126 21.666c.531 0 1.06 0 1.603 0 0 .437 0 .866 0 1.312-.527 0-1.055 0-1.603 0C14.126 22.548 14.126 22.114 14.126 21.666zM10.043 21.277c0-.453 0-.883 0-1.323.532 0 1.06 0 1.598 0 0 .454 0 .884 0 1.323C11.111 21.277 10.583 21.277 10.043 21.277zM13.683 25.027c0 .444 0 .874 0 1.318-.542 0-1.072 0-1.612 0 0-.44 0-.87 0-1.318C12.606 25.027 13.136 25.027 13.683 25.027zM15.736 25.023c0 .447 0 .87 0 1.311-.533 0-1.061 0-1.609 0 0-.429 0-.863 0-1.311C14.655 25.023 15.185 25.023 15.736 25.023zM11.645 26.727c0 .434 0 .864 0 1.315-.534 0-1.06 0-1.601 0 0-.428 0-.857 0-1.315C10.568 26.727 11.094 26.727 11.645 26.727zM11.639 24.671c-.53 0-1.052 0-1.591 0 0-.442 0-.876 0-1.328.527 0 1.053 0 1.591 0C11.639 23.786 11.639 24.223 11.639 24.671zM10.043 29.73c0-.42 0-.85 0-1.309.528 0 1.056 0 1.596 0 0 .418 0 .847 0 1.309C11.109 29.73 10.582 29.73 10.043 29.73zM10.043 38.23c0-.456 0-.885 0-1.349.528-.024 1.055-.048 1.595-.073 0 .457 0 .887 0 1.346C11.111 38.18 10.584 38.205 10.043 38.23zM13.688 33.43c0 .423 0 .846 0 1.306-.533 0-1.061 0-1.608 0 0-.407 0-.843 0-1.306C12.606 33.43 13.135 33.43 13.688 33.43zM10.042 12.835c0-.485 0-.915 0-1.331.533 0 1.053 0 1.591 0 0 .47 0 .905 0 1.331C11.112 12.835 10.586 12.835 10.042 12.835zM12.073 31.379c0-.429 0-.857 0-1.31.539 0 1.068 0 1.61 0 0 .423 0 .85 0 1.31C13.153 31.379 12.626 31.379 12.073 31.379zM11.639 31.791c0 .417 0 .846 0 1.317-.526 0-1.052 0-1.594 0 0-.41 0-.845 0-1.317C10.573 31.791 11.1 31.791 11.639 31.791zM16.163 38.066c0-.447 0-.876 0-1.317.535 0 1.064 0 1.608 0 0 .444 0 .872 0 1.317C17.248 38.066 16.721 38.066 16.163 38.066zM14.123 36.751c.541 0 1.07 0 1.608 0 0 .436 0 .864 0 1.313-.534 0-1.063 0-1.608 0C14.123 37.643 14.123 37.215 14.123 36.751zM11.639 34.808c-.539 0-1.062 0-1.596 0 0-.418 0-.848 0-1.317.529 0 1.057 0 1.596 0C11.639 33.897 11.639 34.326 11.639 34.808zM12.077 14.939c.541 0 1.07 0 1.609 0 0 .456 0 .885 0 1.32-.537 0-1.065 0-1.609 0C12.077 15.807 12.077 15.378 12.077 14.939zM10.04 14.518c0-.469 0-.891 0-1.323.529 0 1.055 0 1.596 0 0 .465 0 .899 0 1.323C11.105 14.518 10.584 14.518 10.04 14.518zM11.633 19.592c-.532 0-1.049 0-1.583 0 0-.45 0-.886 0-1.336.522 0 1.043 0 1.583 0C11.633 18.71 11.633 19.145 11.633 19.592zM13.69 26.709c0 .434 0 .856 0 1.305-.539 0-1.073 0-1.618 0 0-.429 0-.857 0-1.305C12.609 26.709 13.137 26.709 13.69 26.709zM12.078 11.577c.545 0 1.074 0 1.609 0 0 .463 0 .892 0 1.323-.537 0-1.065 0-1.609 0C12.078 12.439 12.078 12.004 12.078 11.577zM10.051 30.097c.53 0 1.052 0 1.587 0 0 .425 0 .86 0 1.329-.524 0-1.046 0-1.587 0C10.051 31.011 10.051 30.576 10.051 30.097zM12.073 38.097c0-.417 0-.846 0-1.306.539 0 1.068 0 1.61 0 0 .413 0 .842 0 1.306C13.153 38.097 12.625 38.097 12.073 38.097zM13.69 38.47c0 .425 0 .85 0 1.314-.534 0-1.062 0-1.61 0 0-.408 0-.843 0-1.314C12.611 38.47 13.14 38.47 13.69 38.47zM12.073 36.419c0-.419 0-.848 0-1.31.535 0 1.064 0 1.608 0 0 .416 0 .844 0 1.31C13.153 36.419 12.619 36.419 12.073 36.419zM15.73 16.635c0 .456 0 .884 0 1.317-.54 0-1.069 0-1.61 0 0-.448 0-.876 0-1.317C14.653 16.635 15.182 16.635 15.73 16.635zM13.681 17.939c-.534 0-1.057 0-1.6 0 0-.448 0-.882 0-1.324.526 0 1.055 0 1.6 0C13.681 17.062 13.681 17.49 13.681 17.939zM14.121 23.342c.542 0 1.07 0 1.609 0 0 .443 0 .87 0 1.31-.538 0-1.066 0-1.609 0C14.121 24.219 14.121 23.791 14.121 23.342zM16.168 38.427c.541 0 1.064 0 1.603 0 0 .441 0 .869 0 1.314-.53 0-1.058 0-1.603 0C16.168 39.297 16.168 38.87 16.168 38.427zM16.162 9.564c0-.428 0-.851 0-1.296.528 0 1.058 0 1.607 0 0 .416 0 .844 0 1.296C17.249 9.564 16.72 9.564 16.162 9.564zM13.681 21.294c-.539 0-1.068 0-1.607 0 0-.443 0-.873 0-1.317.535 0 1.064 0 1.607 0C13.681 20.418 13.681 20.853 13.681 21.294zM14.122 30.05c.543 0 1.067 0 1.605 0 0 .435 0 .863 0 1.31-.53 0-1.06 0-1.605 0C14.122 30.932 14.122 30.503 14.122 30.05z"/><path fill="#2196F3" d="M39.938,30.085c-0.1-1.012-0.364-1.973-0.869-2.863c-0.157-0.277-0.321-0.44-0.663-0.407c-0.282,0.027-0.571-0.019-0.857-0.032c-0.368-0.017-0.736-0.034-1.117-0.052c0-0.561-0.009-1.096,0.005-1.63c0.004-0.166-0.052-0.245-0.197-0.289c-0.636-0.191-1.269-0.399-1.91-0.573c-0.369-0.1-0.753-0.145-1.14-0.217c0-0.19,0-0.363,0-0.536c0-0.619,0.001-0.616,0.583-0.822c1.011-0.357,2.011-0.734,2.868-1.415c0.958-0.762,1.647-1.723,2.053-2.886c0.368-1.05,0.4-2.143,0.322-3.242c-0.06-0.843-0.249-1.658-0.64-2.411c-0.306-0.59-0.746-1.066-1.306-1.412c-1.188-0.733-2.496-0.93-3.859-0.853c-0.398,0.023-0.797,0.05-1.201,0.075c-0.008-0.137-0.015-0.25-0.021-0.369c-0.533,0.068-1.041,0.132-1.558,0.197c0-0.488,0-0.935,0-1.395c0.525-0.079,1.042-0.157,1.56-0.236c0-0.621,0-1.217,0-1.807c-1.887,0.267-3.765,0.533-5.659,0.801c0,1.143,0,2.283,0,3.463c-1.185,0.054-2.356,0.108-3.541,0.162c0-0.477,0-0.923,0-1.382c0.509-0.03,1.007-0.058,1.499-0.086c0-0.683,0-1.33,0-1.95c-2.041,0.114-4.06,0.228-6.102,0.342c0,1.107,0,2.205,0,3.327c-1.367,0-2.711,0-4.068,0c0,0.57,0,1.116,0,1.704c0.535,0,1.057,0,1.582,0c0,0.47,0,0.897,0,1.317c-0.541,0-1.064,0-1.578,0c0,0.56,0,1.107,0,1.678c0.68,0,1.342,0,2.036,0c0,1.805,0,3.587,0,5.39c0.538,0,1.046,0,1.555,0c0,0.442,0,0.861,0,1.304c-0.524,0-1.032,0-1.55,0c0,0.69,0,1.354,0,2.05c0.526,0,1.039,0,1.557,0c0,0.444,0,0.859,0,1.305c-0.523,0-1.037,0-1.577,0c0,1.806,0,3.582,0,5.38c-0.691,0-1.353,0-2.02,0c0,1.146,0,2.268,0,3.39c0.524,0,1.032,0,1.571,0c0,0.431,0,0.85,0,1.303c0.848,0,1.666,0,2.512,0c0,1.14,0,2.245,0,3.343c1.379,0.062,2.728,0.123,4.112,0.184c0-0.432,0-0.851,0-1.287c0.54,0.048,1.046,0.092,1.578,0.139c0-0.72,0-1.417,0-2.141c0.828,0.064,1.627,0.126,2.448,0.19c0,1.17,0,2.316,0,3.445c1.896,0.268,3.769,0.533,5.662,0.801c0-1.202,0-2.396,0-3.613c0.339,0.024,0.64,0.046,0.94,0.068c1.039,0.074,2.069,0.06,3.086-0.217c1.876-0.51,3.151-1.643,3.664-3.588C40.015,32.537,40.059,31.316,39.938,30.085z M36.449,13.411c0.5-0.075,1.008-0.15,1.545-0.23c0,0.527,0,1.036,0,1.572c-0.507,0.063-1.017,0.127-1.545,0.193C36.449,14.433,36.449,13.936,36.449,13.411z M36.443,17.338c0.515-0.049,1.02-0.097,1.544-0.147c0,0.521,0,1.034,0,1.575c-0.506,0.034-1.017,0.069-1.544,0.104C36.443,18.338,36.443,17.845,36.443,17.338z M20.265,13.148c0.538-0.027,1.058-0.052,1.592-0.078c0,0.456,0,0.884,0,1.336c-0.533,0.024-1.054,0.049-1.592,0.073C20.265,14.031,20.265,13.603,20.265,13.148z M21.232,18.325c0,0.423,0,0.842,0,1.281c-0.517,0-1.038,0-1.577,0c0-0.417,0-0.836,0-1.281C20.182,18.325,20.698,18.325,21.232,18.325z M18.24,13.209c0.526,0,1.04,0,1.569,0l0,0c0,0.407,0,0.835,0,1.297l0,0c-0.523,0-1.038,0-1.569,0C18.24,14.102,18.24,13.674,18.24,13.209z M17.374,17.939L17.374,17.939c0-0.435,0-0.857,0-1.292l0,0c0.524,0,1.046,0,1.584,0c0,0.437,0,0.857,0,1.292C18.419,17.939,17.902,17.939,17.374,17.939z M17.777,34.733c-0.527,0-1.047,0-1.582,0l0,0c0-0.413,0-0.841,0-1.296l0,0c0.525,0,1.04,0,1.582,0C17.777,33.858,17.777,34.279,17.777,34.733z M19.409,31.353L19.409,31.353c-0.533,0-1.054,0-1.589,0l0,0c0-0.421,0-0.842,0-1.284l0,0c0.525,0,1.045,0,1.589,0l0,0C19.409,30.495,19.409,30.916,19.409,31.353z M19.41,29.671c-0.53,0-1.051,0-1.588,0l0,0c0-0.418,0-0.838,0-1.283l0,0c0.527,0,1.047,0,1.588,0C19.41,28.818,19.41,29.233,19.41,29.671z M19.461,23.347c0.521,0,1.041,0,1.573,0c0,0.431,0,0.86,0,1.303c-0.52,0-1.034,0-1.573,0C19.461,24.213,19.461,23.79,19.461,23.347z M21.863,38.056c-0.528,0-1.055,0-1.595,0c0-0.434,0-0.848,0-1.283c0.528,0,1.054,0,1.595,0C21.863,37.198,21.863,37.62,21.863,38.056z M23.242,15.501c0.135-0.009,4.416-0.225,4.932-0.239c3.339-0.086,3.249,1.373,3.273,2.435c0.044,1.949-0.755,3.702-4.77,4.017c-0.136,0.01-3.388,0.149-3.435,0.149C23.242,19.736,23.242,17.628,23.242,15.501z M25.98,34.928L25.98,34.928L25.98,34.928c-0.263-0.012-1.308-0.062-1.575-0.074c0-0.437,0-0.872,0-1.285c0.521,0,1.042,0,1.575,0l0,0C25.98,34.039,25.98,34.469,25.98,34.928z M30.042,35.222c-0.39-0.03-1.44-0.114-1.574-0.124c0-0.449,0-0.89,0-1.36l0,0l0,0c0.4,0.029,0.789,0.056,1.181,0.083c0.131,0.01,0.262,0.018,0.393,0.028C30.042,34.308,30.042,34.75,30.042,35.222z M32.239,30.984c-0.097,0.371-0.37,1.762-3.593,1.758c-0.789-0.001-5.291-0.189-5.406-0.189l0,0l0,0c0-2.147,0-4.239,0-6.363c0.1,0,2.961,0.062,3.436,0.088c5.023,0.271,5.144,1.256,5.654,3.089C32.477,29.893,32.379,30.452,32.239,30.984z M37.993,32.81c-0.517-0.061-1.022-0.121-1.543-0.183c0-0.504,0-1.003,0-1.537c0.507,0.05,1.017,0.099,1.543,0.15C37.993,31.777,37.993,32.284,37.993,32.81z"/></svg>