<svg xmlns="http://www.w3.org/2000/svg"  viewBox="0 0 48 48" width="1600px" height="1600px"><path fill="#64dd17" d="M14,6h20c4.418,0,8,3.582,8,8v20c0,4.418-3.582,8-8,8H14c-4.418,0-8-3.582-8-8V14	C6,9.582,9.582,6,14,6z"/><path fill="#fafafa" d="M23.056,33.933c-0.122,0-0.245-0.001-0.37-0.004c-3.612-0.088-5.98-2.312-6.781-3.198 c-0.177-0.195-0.171-0.489,0.011-0.68l1.664-1.876c0.178-0.187,0.464-0.209,0.667-0.05c0.738,0.58,2.446,2.054,4.696,2.177 c2.612,0.142,3.829-0.601,3.986-1.736c0.149-1.075-0.375-1.986-3.277-2.739c-5.185-1.345-6.115-4.37-5.796-6.897 c0.335-2.659,3.09-4.777,6.285-4.745c4.566,0.047,7.38,2.086,8.361,2.938c0.22,0.191,0.225,0.525,0.018,0.73l-1.581,1.786 c-0.165,0.164-0.422,0.195-0.617,0.068c-0.799-0.52-2.392-2.074-5.236-2.074c-1.75,0-2.816,0.668-2.927,1.541 c-0.154,1.22,0.661,2.274,3.155,2.837c5.527,1.247,6.457,4.467,5.87,7.068C30.644,31.474,27.907,33.933,23.056,33.933z"/><path fill="#fafafa" d="M28.032,16.592l0.839-3.99C28.937,12.292,28.699,12,28.382,12h-3.065 c-0.236,0-0.441,0.166-0.489,0.397l-0.843,4.011L28.032,16.592z"/><path fill="#fafafa" d="M20.916,31l-0.925,4.397C19.926,35.708,20.163,36,20.481,36h3.065c0.236,0,0.441-0.166,0.489-0.397 L25.003,31H20.916z"/></svg>