<svg xmlns="http://www.w3.org/2000/svg"  viewBox="0 0 48 48" width="1600px" height="1600px" clip-rule="evenodd"><path fill="#283593" d="M16.962 31.123l-.064.062c-1.038 1.057-2.239 1.618-3.477 1.618-2.584 0-4.46-1.938-4.46-4.613 0-2.67 1.876-4.611 4.46-4.611 1.238 0 2.439.563 3.477 1.623l.064.064 1.662-2.009-.044-.055c-1.382-1.633-3.04-2.428-5.079-2.428-2.046 0-3.915.688-5.263 1.93C6.773 24.05 6 25.946 6 28.191c0 2.244.773 4.145 2.237 5.49 1.348 1.247 3.218 1.932 5.263 1.932 2.039 0 3.697-.795 5.079-2.428l.044-.051L16.962 31.123zM20.303 35.339h2.936V21.008h-2.936V35.339L20.303 35.339zM34.737 32.223c-.783.477-1.512.717-2.167.717-.948 0-1.377-.501-1.377-1.616V23.72h2.99v-2.699h-2.99v-4.459l-2.877 1.54v2.919h-2.482v2.699h2.482v8.089c0 2.204 1.305 3.709 3.254 3.749 1.323.026 2.121-.368 2.605-.656l.028-.021.707-2.763L34.737 32.223 34.737 32.223zM37.169 35.339h2.938V21.008h-2.938V35.339L37.169 35.339z"/><path fill="#d32f2f" fill-rule="evenodd" d="M41.865,18.465 c-2.687-3.806-7.15-6.077-11.691-6.077c-4.539,0-9.002,2.271-11.685,6.077l-0.138,0.196h3.384l0.038-0.041 c2.303-2.377,5.309-3.634,8.402-3.634c3.093,0,6.098,1.257,8.406,3.634l0.037,0.041H42L41.865,18.465z" clip-rule="evenodd"/></svg>