<svg xmlns="http://www.w3.org/2000/svg"  viewBox="0 0 48 48" width="1600px" height="1600px" clip-rule="evenodd"><path fill="#056dae" d="M6,10c0-2.209,1.791-4,4-4h28c2.209,0,4,1.791,4,4v28c0,2.209-1.791,4-4,4H10c-2.209,0-4-1.791-4-4	V10z"/><path fill="#002a54" d="M32.5,42H38c2.209,0,4-1.791,4-4h-9.5V42z"/><path fill="#46b7e6" d="M10,42h26v-4H6C6,40.209,7.791,42,10,42z"/><path fill="#fff" d="M8.788,11.891l-0.017,0.017c-0.279,0.285-0.603,0.436-0.936,0.436c-0.696,0-1.201-0.522-1.201-1.242 c0-0.719,0.505-1.241,1.201-1.241c0.333,0,0.657,0.152,0.936,0.437l0.017,0.017l0.447-0.541L9.224,9.758 c-0.372-0.44-0.819-0.654-1.367-0.654c-0.551,0-1.054,0.185-1.417,0.52c-0.394,0.362-0.602,0.872-0.602,1.477 c0,0.604,0.208,1.116,0.602,1.478c0.363,0.336,0.866,0.52,1.417,0.52c0.549,0,0.995-0.214,1.367-0.654l0.012-0.014L8.788,11.891z" transform="translate(-2.952 -2.952) scale(2.47607)"/><path fill="#fff" d="M9.688,13.026h0.79V9.167h-0.79V13.026z" transform="translate(-2.952 -2.952) scale(2.47607)"/><path fill="#fff" d="M13.574,12.187c-0.211,0.128-0.407,0.193-0.583,0.193c-0.255,0-0.371-0.135-0.371-0.435V9.897h0.805 V9.171H12.62V7.97l-0.775,0.415v0.786h-0.668v0.727h0.668v2.178c0,0.593,0.351,0.999,0.876,1.009 c0.356,0.007,0.571-0.099,0.701-0.177l0.008-0.006l0.19-0.744L13.574,12.187L13.574,12.187z" transform="translate(-2.952 -2.952) scale(2.47607)"/><path fill="#fff" d="M14.229,13.026h0.791V9.167h-0.791V13.026z" transform="translate(-2.952 -2.952) scale(2.47607)"/><path fill="#d9261c" fill-rule="evenodd" d="M15.493,8.483c-0.724-1.025-1.925-1.636-3.148-1.636 c-1.222,0-2.424,0.611-3.146,1.636L9.162,8.535h0.911l0.01-0.011c0.62-0.64,1.43-0.978,2.262-0.978 c0.833,0,1.642,0.338,2.263,0.978l0.01,0.011h0.911L15.493,8.483L15.493,8.483z" clip-rule="evenodd" transform="translate(-2.952 -2.952) scale(2.47607)"/></svg>