<svg xmlns="http://www.w3.org/2000/svg"  viewBox="0 0 48 48" width="1600px" height="1600px"><path fill="#ffc107" d="M40.946,6c1.29,0,2.242,0.37,2.911,1.13c1.475,1.679,1.102,4.709,1.098,4.738l-0.009,0.066V12c0,4.554-6.761,22-18.008,22c-0.409-0.001-3.992-0.176-3.992-6C22.946,20.729,32.846,6,40.946,6 M40.946,5c-8.563,0-19,15.188-19,23c0,6.921,4.773,7,4.992,7c0.005,0,0.008,0,0.008,0c11.813,0,19-17.938,19-23C45.946,12,46.883,5,40.946,5L40.946,5z"/><path fill="#b0bec5" d="M11.083 15L11.083 17 10.333 18 12.333 20 14 20 14 21 16 21 17 20 19 20 19 22 21 24 23 24 24 26 26 26 27 27 26 29 26 31 27 32 28 32 30 35 30 36 27 39 30 42 30 43 31 42 31 41 32 40 34 38 34 35 37 33 38 33 39 32 40 33 43 29 44 26 44 23 48 19 48 17 47 15 46 15 43 13 41 13 40 12 39 13 39 12 36 11 35 12 33 12 33 11 31 11 34 8 32 6 31 8 30 8 29 7 28 7 28 8 26 8 24 5 21 6 19 6 19 8 17 7 14 8 14 12 12 13z"/><path fill="#78909c" d="M35,16c1.833,0,0.778,2.235,0.535,3h-5.686C30.903,17.371,32.525,16,35,16 M35,13c-8.833,0-10,11-10,11s-0.5,5,4,5c5.083,0,7.417-5,7.417-5H33c0,0-1.333,2-3,2c-1.291,0-2.003-0.741-2-1.585C28.004,23.298,28.583,22,28.583,22h9c0,0,1.374-2.848,1.417-5.339C39.033,14.723,38.865,13,35,13L35,13z"/><path fill="#fff" d="M34,15c1.833,0,0.778,2.235,0.535,3h-5.686C29.903,16.371,31.525,15,34,15 M34,12c-8.833,0-10,11-10,11s-0.5,5,4,5c5.083,0,7.417-5,7.417-5H32c0,0-1.333,2-3,2c-1.291,0-2.003-0.741-2-1.585C27.004,22.298,27.583,21,27.583,21h9c0,0,1.374-2.848,1.417-5.339C38.033,13.723,37.865,12,34,12L34,12z"/><path fill="#78909c" d="M3.688 7L1.688 17 3.688 17 4.906 11 6.688 17 8.688 17 10.688 7 8.688 7 7.469 13 5.688 7z"/><path fill="#eceff1" d="M2 6L0 16 2 16 3.219 10 5 16 7 16 9 6 7 6 5.781 12 4 6z"/><path fill="#78909c" d="M18.287 9L18.688 7 12.688 7 10.688 17 12.688 17 13.487 13 17.287 13 17.688 11 13.888 11 14.287 9z"/><path fill="#eceff1" d="M16.6 8L17 6 11 6 9 16 11 16 11.8 12 15.6 12 16 10 12.2 10 12.6 8z"/><path fill="#78909c" d="M22.327,17c-2.55,0-4.067-1.557-4.067-4.215C18.26,9.671,20.179,7,23.481,7c2.295,0,3.529,1.316,3.529,3.329v0.201h-1.757c-0.054-1.248-0.631-1.825-1.906-1.825c-2.067,0-2.993,2.295-2.993,4.067c0,1.597,0.779,2.537,2.108,2.537c1.181,0,2.027-0.698,2.336-1.96h2.093C26.474,15.631,24.689,17,22.327,17z"/><path fill="#388e3c" d="M39,6c1.29,0,2.242,0.37,2.911,1.13c1.475,1.679,1.102,4.709,1.098,4.738L43,11.933V12c0,4.554-6.761,22-18.029,22C24.565,34,21,33.832,21,28C21,20.729,30.9,6,39,6 M39,5c-8.563,0-19,15.188-19,23c0,6.848,4.565,7,4.971,7C24.99,35,25,35,25,35c11.813,0,19-17.938,19-23C44,12,44.938,5,39,5L39,5z"/><path fill="#eceff1" d="M21.077,16c-2.551,0-4.067-1.557-4.067-4.215C17.01,8.671,18.929,6,22.231,6c2.295,0,3.798,1.316,3.798,3.329V9.53h-2.027c-0.054-1.248-0.631-1.825-1.906-1.825c-2.067,0-2.993,2.295-2.993,4.067c0,1.597,0.779,2.537,2.108,2.537c1.181,0,2.027-0.698,2.336-1.96h2.093C25.224,14.631,23.439,16,21.077,16z"/></svg>