<svg xmlns="http://www.w3.org/2000/svg"  viewBox="0 0 48 48" width="1600px" height="1600px"><path fill="#40c4ff" d="M11.747,35.764C8.813,32.709,7,28.569,7,24c0-5.633,2.753-10.613,6.974-13.706 c1.055-1.88,2.302-3.639,3.711-5.26C9.738,7.681,4,15.165,4,24c0,7.604,4.246,14.217,10.496,17.599 C13.386,39.767,12.464,37.813,11.747,35.764z"/><path fill="#536dfe" d="M24,7c1.826,0,3.582,0.296,5.23,0.829c0.636-0.849,1.312-1.667,2.03-2.449 C29.007,4.5,26.564,4,24,4c-3.78,0-7.302,1.068-10.317,2.891c-1.519,2.325-2.768,4.841-3.704,7.505C13.042,9.932,18.178,7,24,7z"/><path fill="#536dfe" d="M26.489,40.798C25.674,40.917,24.848,41,24,41c-7.078,0-13.142-4.329-15.7-10.482 c0.362,2.804,1.053,5.503,2.038,8.059C13.915,41.931,18.711,44,24,44c1.411,0,2.786-0.15,4.114-0.428 C27.526,42.677,26.984,41.752,26.489,40.798z"/><path fill="#ab47bc" d="M35.385,11.402c0.463-0.909,0.969-1.792,1.515-2.647c-2.761-2.332-6.154-3.94-9.895-4.505 c-1.136,0.837-2.204,1.759-3.194,2.76C23.875,7.009,23.936,7,24,7C28.385,7,32.37,8.675,35.385,11.402z"/><path fill="#ab47bc" d="M34.385,37.438C31.511,39.662,27.915,41,24,41c-1.28,0-2.522-0.153-3.72-0.421 c0.763,1.187,1.615,2.312,2.55,3.362C23.219,43.964,23.605,44,24,44c4.373,0,8.406-1.42,11.697-3.802 C35.216,39.302,34.778,38.382,34.385,37.438z"/><path fill="#4a148c" d="M13.426,24.134l3.327-3.423c0,0,3.495-4.045,7.396,0.79c-2.202-0.574-4.332,1.58-4.332,1.58 s-2.92,2.848-3.686,3.782C15.293,26.049,13.426,24.134,13.426,24.134z"/><path fill="#4a148c" d="M19.027,24.757c0,0,1.867-1.364,4.38,1.245c0.957,0.957,1.987,1.939,1.987,1.939 s3.088,3.399,7.253-1.532c-1.556,0.957-3.566,0.263-4.907-1.005c-1.34-1.269-2.753-2.633-2.753-2.633S23.12,20.424,19.027,24.757z"/><path fill="#4a148c" d="M26.878,23.632c0,0,1.676,0.814,3.566-1.101l1.46-1.46l2.777,2.801c0,0-0.646,0.598-1.149,1.053 C33.029,25.379,30.851,28.084,26.878,23.632z"/><g><path fill="#ec407a" d="M40.504,19.942c0.467-1.446,1.036-2.848,1.702-4.196c-1.347-2.954-3.388-5.526-5.919-7.503 c-1.073,0.406-2.096,0.904-3.066,1.489C36.804,12.053,39.457,15.681,40.504,19.942z"/><path fill="#ec407a" d="M39.094,31.799c-1.913,3.683-5.132,6.58-9.048,8.073c0.831,0.776,1.726,1.48,2.686,2.099 c2.755-1.342,5.149-3.301,7.02-5.688C39.427,34.824,39.206,33.327,39.094,31.799z"/></g><g><path fill="#ff8a80" d="M41,24c0,4.615-1.846,8.795-4.833,11.858c0.847,0.588,1.775,1.062,2.761,1.418 C42.073,33.743,44,29.102,44,24c0-3.596-0.962-6.961-2.624-9.877c-1.053,0.143-2.067,0.411-3.015,0.809 C40.023,17.558,41,20.662,41,24z"/></g></svg>