<svg xmlns="http://www.w3.org/2000/svg"  viewBox="0 0 48 48" width="1600px" height="1600px"><path fill="#CFD8DC" d="M45,35c0,2.2-1.8,4-4,4H7c-2.2,0-4-1.8-4-4V13c0-2.2,1.8-4,4-4h34c2.2,0,4,1.8,4,4V35z"/><path fill="#1565C0" d="M29,16H19c-4.4,0-8,3.6-8,8c0,4.4,3.6,8,8,8h10c4.4,0,8-3.6,8-8C37,19.6,33.4,16,29,16z"/><path fill="#FFF" d="M19,18c-3.3,0-6,2.7-6,6s2.7,6,6,6s6-2.7,6-6S22.3,18,19,18z M15,24c0-1.9,1.3-3.4,3-3.9v7.7C16.3,27.4,15,25.9,15,24z M20,27.9v-7.7c1.7,0.4,3,2,3,3.9C23,25.9,21.7,27.4,20,27.9z"/></svg>