<svg xmlns="http://www.w3.org/2000/svg"  viewBox="0 0 48 48" width="1600px" height="1600px"><path fill="#00bfa5" d="M45,2.688C45,3.619,44.5,5.25,42.375,7C41.75,5.375,41,5,41,5s0.5-0.625,0.625-2.313	C41.713,1.497,42.381,1,43.312,1C44.244,1,45,1.756,45,2.688z"/><path fill="#00bfa5" d="M17.605,30.12c-0.594-0.51-1.701-1.119-3.6-1.12c-1.626,0.001-3.142,0.635-4.278,1.787	c-1.136,1.152-1.749,2.679-1.727,4.298c0.013,0.943,0.266,1.877,0.753,2.774C10.146,40.003,11.975,41,14.5,41	c0.919,0,1.334-0.885,2-2.765c0.235-0.665,0.479-1.352,0.798-1.973c0.516-1.006,0.978-1.833,1.404-2.528	c0.348-0.578,0.548-0.926,0.548-1.234C19.25,32.035,18.735,31.091,17.605,30.12z M12.5,31c0.276,0,0.5,0.224,0.5,0.5	c0,0.276-0.224,0.5-0.5,0.5S12,31.776,12,31.5C12,31.224,12.224,31,12.5,31z M16.924,34.765C16.893,34.815,16.134,36,14.5,36	c-1.366,0-2.17-0.679-2.588-1.205l-0.058,0.058C11.756,34.951,11.628,35,11.5,35s-0.256-0.049-0.354-0.146	c-0.195-0.195-0.195-0.512,0-0.707l1-1c0.195-0.195,0.512-0.195,0.707,0s0.195,0.512,0,0.707l-0.227,0.227	C12.877,34.432,13.439,35,14.5,35c1.064,0,1.558-0.737,1.578-0.769c0.151-0.229,0.457-0.298,0.689-0.15	C16.999,34.228,17.069,34.532,16.924,34.765z M16.5,32c-0.276,0-0.5-0.224-0.5-0.5c0-0.276,0.224-0.5,0.5-0.5s0.5,0.224,0.5,0.5	C17,31.776,16.776,32,16.5,32z"/><path fill="#00bfa5" d="M33.814,9.003c-3.162,0.095-5.738,2.843-5.808,6.155c0.035,1.722,0.613,2.802,1.184,3.629	c1.381,1.998,2.177,1.691,2.519,1.559c1.41-0.547,2.479-0.704,2.524-0.71C36.906,19.174,40,17.687,40,15	c0-1.637-0.647-3.166-1.822-4.306C37.004,9.554,35.447,8.95,33.814,9.003z M34.5,12c0.276,0,0.5,0.224,0.5,0.5	c0,0.276-0.224,0.5-0.5,0.5S34,12.776,34,12.5C34,12.224,34.224,12,34.5,12z M30.5,12c0.276,0,0.5,0.224,0.5,0.5	c0,0.276-0.224,0.5-0.5,0.5S30,12.776,30,12.5C30,12.224,30.224,12,30.5,12z M35.854,15.854C35.756,15.951,35.628,16,35.5,16	s-0.256-0.049-0.354-0.146l-0.058-0.058C34.67,16.321,33.866,17,32.5,17c-1.634,0-2.393-1.185-2.424-1.235	c-0.146-0.234-0.075-0.543,0.159-0.689c0.23-0.147,0.54-0.077,0.687,0.156C30.947,15.271,31.441,16,32.5,16	c1.06,0,1.622-0.567,1.873-0.92l-0.226-0.226c-0.195-0.195-0.195-0.512,0-0.707s0.512-0.195,0.707,0l1,1	C36.049,15.342,36.049,15.658,35.854,15.854z"/><path fill="#00bfa5" d="M23,18l-0.186,0.003C19.608,18.099,17,20.921,17,24.293v0.175c0,1.69,0.692,3.142,1.94,4.164	c0.008,0.007,0.019,0.017,0.027,0.025c0.42,0.339,0.902,0.63,1.442,0.865C20.917,29.743,21.984,30,23.325,30	c1.216,0,1.988-0.511,2.506-1.655c0.594-1.314,2-4.401,2.235-4.885c0.379-0.779,0.434-0.911,0.434-1.209	c0-0.463-0.212-1.27-0.677-1.945C26.402,18.239,24.39,18,23,18z M21.5,22c0.276,0,0.5,0.224,0.5,0.5c0,0.276-0.224,0.5-0.5,0.5	S21,22.776,21,22.5C21,22.224,21.224,22,21.5,22z M25.924,25.765C25.893,25.815,25.134,27,23.5,27c-1.366,0-2.17-0.679-2.588-1.205	l-0.058,0.058C20.756,25.951,20.628,26,20.5,26s-0.256-0.049-0.354-0.146c-0.195-0.195-0.195-0.512,0-0.707l1-1	c0.195-0.195,0.512-0.195,0.707,0s0.195,0.512,0,0.707l-0.227,0.227C21.877,25.432,22.439,26,23.5,26	c1.064,0,1.558-0.737,1.578-0.769c0.151-0.229,0.458-0.297,0.689-0.15C25.999,25.228,26.069,25.532,25.924,25.765z M25.5,23	c-0.276,0-0.5-0.224-0.5-0.5c0-0.276,0.224-0.5,0.5-0.5s0.5,0.224,0.5,0.5C26,22.776,25.776,23,25.5,23z"/><path fill="#00bfa5" d="M34,5c-5.195,0-9.477,3.982-9.956,9.054C23.699,14.018,23.351,14,23,14c-5.514,0-10,4.486-10,10	c0,0.351,0.018,0.699,0.054,1.044c-2.85,0.269-5.357,1.739-7.005,3.898C4.764,30.624,3,34,3,39c0,3.125,2,8,13,8	c4.5,0,10-1.125,13-7c11-2,11-13,11-13s5-3,5-11.5C45,9.5,39.514,5,34,5z M34.545,21.61c-1.784,0.308-4.136,1.591-5.386,4.272	c-0.072,0.161-0.925,2.001-1.506,3.286c-0.939,2.079-2.525,2.696-3.842,2.809l0.004,0.022c-1.514,0.25-2.273,0.376-4.737,5.177	c-0.258,0.502-0.469,1.098-0.692,1.728C17.738,40.729,16.933,43,14.5,43c-3.914,0-6.713-1.152-8.316-3.423	C6.062,39.405,6,39.203,6,39c0-0.176,0.05-0.35,0.14-0.51c0.116-0.207,0.36-0.363,0.36-0.615c0-0.125-0.129-0.516-0.134-0.532	c-0.233-0.73-0.355-1.476-0.365-2.231c-0.03-2.159,0.787-4.193,2.303-5.73c1.279-1.298,2.924-2.096,4.704-2.315	C14.172,26.95,15,26.105,15,25c0-0.177,0-0.707,0-0.707c0-4.443,3.479-8.162,7.754-8.29c0.363-0.012,0.833-0.011,1.335-0.008	c1.03-0.024,1.825-0.749,1.987-1.849c0.54-3.915,3.779-7.026,7.677-7.143c2.175-0.072,4.25,0.734,5.817,2.254	C41.138,10.779,42,12.817,42,15C42,18.235,39.073,20.83,34.545,21.61z"/></svg>