<svg xmlns="http://www.w3.org/2000/svg"  viewBox="0 0 48 48" width="1600px" height="1600px"><path fill="#fa772f" d="M23.181,3,7,3.04a1,1,0,0,0-1,1v2a1,1,0,0,0,1,1H9.013a3.005,3.005,0,0,1,3.013,3V38.007a3.005,3.005,0,0,1-3.013,3H7a1,1,0,0,0-1,1v2a1,1,0,0,0,1,1h33.43a2,2,0,0,0,1.985-1.694l1.569-10.142A1,1,0,0,0,43,32.013H40.954a1,1,0,0,0-.98.782l-1.135,5.08A4.013,4.013,0,0,1,34.917,41H22.07a3.005,3.005,0,0,1-3.013-3V26.019h8.035a4.006,4.006,0,0,1,4.017,4h0a1,1,0,0,0,1,1h1a1,1,0,0,0,1-1V17.028a1,1,0,0,0-1-1h-1a1,1,0,0,0-1,1v1a4.006,4.006,0,0,1-4.017,4H19.057V10.035a3.005,3.005,0,0,1,3.013-3H34.122a4.008,4.008,0,0,1,4.018,4v3a1,1,0,0,0,1,1h1.085a1,1,0,0,0,1-.916l.837-9.992a1,1,0,0,0-1-1.082Z"/></svg>