<svg xmlns="http://www.w3.org/2000/svg"  viewBox="0 0 48 48" width="1600px" height="1600px"><path fill="#1976D2" d="M20.4,39c-1.8,0-3.4-1.4-3.5-3.3c-0.7-10.7-9-15-9-15.1c-1.7-0.9-2.4-3-1.5-4.7c0.9-1.7,3-2.4,4.7-1.5c0.5,0.3,11.9,6.3,12.8,20.9c0.1,1.9-1.4,3.6-3.3,3.7C20.6,39,20.5,39,20.4,39z"/><path fill="#FF1744" d="M20.4,39c-0.6,0-1.3-0.2-1.9-0.6c-1.6-1-2.1-3.2-1-4.8c5.9-9.1,0.2-18.9-0.1-19.3c-1-1.7-0.5-3.8,1.2-4.8c1.7-1,3.8-0.5,4.8,1.2c0.3,0.6,8.2,13.8,0,26.7C22.7,38.4,21.6,39,20.4,39z"/><path fill="#FFC107" d="M34.4,43C34.4,43,34.4,43,34.4,43c-2,0-3.5-1.6-3.5-3.6c0.3-15.7-11.9-23.7-12.4-24c-1.6-1-2.1-3.2-1.1-4.8c1-1.6,3.2-2.1,4.8-1.1c0.7,0.4,16,10.3,15.6,30C37.9,41.5,36.4,43,34.4,43z"/><path fill="#4CAF50" d="M34.4,43c-0.6,0-1.2-0.2-1.8-0.5c-1.7-1-2.2-3.1-1.2-4.8c7.8-13.3,0-27.4,0-27.5c-0.9-1.7-0.4-3.8,1.3-4.8c1.7-1,3.8-0.4,4.8,1.3c0.4,0.7,9.8,17.8,0,34.5C36.8,42.4,35.6,43,34.4,43z"/></svg>