<svg xmlns="http://www.w3.org/2000/svg"  viewBox="0 0 48 48" width="1600px" height="1600px"><path fill="#212121" d="M33,19c0.179-1.448,1.545-2.362,3.05-2.737c1.585-0.395,3.184-0.344,4.74,0.145 C42.272,16.873,42.985,17.487,43,19c0.014,1.458,0.052,2.544,0,4c-0.082,2.275-1.338,4.45-3.637,4.838 c-1.132,0.191-2.338,0.212-3.478,0.067c-1.718-0.218-2.71-1.316-2.848-2.823c-0.197-2.151,0.368-3.232,2.231-3.867 c0.996-0.34,2.08-0.43,3.117-0.664c0.449-0.101,0.924-0.212,1.306-0.446c0.606-0.372,0.679-1.352-0.141-1.685 C38.196,17.869,36.469,18.122,36,19C35.077,19.021,33.974,19,33,19z M40.415,22c-0.946,0.244-1.931,0.484-2.706,0.698 c-0.412,0.114-0.859,0.259-1.19,0.427c-1.721,0.875-0.681,2.179,0.163,2.485c1.362,0.494,3.216-0.23,3.526-1.61 C40.34,23.409,40.36,22.702,40.415,22z"/><path fill="#039be5" d="M16,34.004V31H2c-0.552,0-1,0.448-1,1v3h14C15.551,34.998,16,34.555,16,34.004z"/><path fill="#fdd835" d="M32,34.004V31H18c-0.552,0-1,0.448-1,1v3h14C31.551,34.998,32,34.555,32,34.004z"/><path fill="#d32f2f" d="M47,34.004V31H34c-0.552,0-1,0.448-1,1v3h13C46.551,34.998,47,34.555,47,34.004z"/><path fill="#212121" d="M4,28H1V17.5C1,16.672,1.672,16,2.5,16H4V28z"/><path fill="#212121" d="M4,15H1v-1.5C1,12.672,1.672,12,2.5,12H4V15z"/><path fill="#212121" d="M17,28h3V17.5c0-0.828-0.672-1.5-1.5-1.5H17V28z"/><path fill="#212121" d="M17,15h3v-1.5c0-0.828-0.672-1.5-1.5-1.5H17V15z"/><path fill="#212121" d="M44,28h3V13.5c0-0.828-0.672-1.5-1.5-1.5H44V28z"/><path fill="#212121" d="M16,28h-1.5c-0.828,0-1.5-0.672-1.5-1.5l0-4.853c0-1.308-0.939-2.501-2.239-2.633 C9.265,18.861,8,20.035,8,21.5V28H5l0-6.254c0-2.871,2.093-5.44,4.95-5.719C13.228,15.706,16,18.286,16,21.5V28z"/><path fill="#212121" d="M32,28h-1.5c-0.828,0-1.5-0.672-1.5-1.5l0-4.853c0-1.308-0.939-2.501-2.239-2.633 C25.265,18.861,24,20.035,24,21.5V28h-3v-6.254c0-2.871,2.093-5.44,4.95-5.719C29.228,15.706,32,18.286,32,21.5V28z"/></svg>