<svg xmlns="http://www.w3.org/2000/svg"  viewBox="0 0 48 48" width="1600px" height="1600px" baseProfile="basic"><path fill="#58b41c" d="M22.558,4c0,0-0.523,2.667-0.573,2.673h0.179c-0.536,0.056-1.069,0.136-1.598,0.24	l0.145-0.045c-0.05,0.01-1.347-2.379-1.347-2.379l-2.752,0.862c0,0,0.299,2.702,0.252,2.723l0.177-0.055	c-0.502,0.216-0.993,0.456-1.473,0.719l0.139-0.097c-0.045,0.024-1.997-1.868-1.997-1.868l-2.368,1.646c0,0,1.093,2.489,1.054,2.523	l0.158-0.11c-0.419,0.361-0.821,0.741-1.204,1.14l0.112-0.143c-0.036,0.037-2.464-1.185-2.464-1.185L7.23,12.922	c0,0,1.787,2.048,1.761,2.091l0.12-0.155c-0.294,0.473-0.566,0.96-0.813,1.459l0.066-0.178c-0.023,0.045-2.706-0.394-2.706-0.394	l-1.005,2.703c0,0,2.318,1.42,2.306,1.469l0.069-0.186c-0.14,0.542-0.253,1.091-0.341,1.643l0.01-0.195	c-0.009,0.05-2.7,0.433-2.7,0.433l-0.151,2.88c0,0,2.636,0.662,2.64,0.713l0.002-0.049c0.036,0.594,0.102,1.185,0.199,1.773	L4.43,27.94l0.613,2.552C7.489,38.485,15.213,43.988,24,44c8.787-0.012,16.51-5.515,18.957-13.508l0.613-2.552l-2.271-1.017	c0.103-0.634,0.171-1.275,0.204-1.916l0.01,0.198c0.003-0.051,2.64-0.713,2.64-0.713l-0.151-2.88c0,0-2.692-0.383-2.7-0.433	l0.002,0.04c-0.084-0.48-0.187-0.957-0.311-1.428l0.047,0.127c-0.012-0.049,2.305-1.469,2.305-1.469l-1.005-2.703	c0,0-2.683,0.44-2.706,0.394c-0.217-0.417-0.451-0.824-0.7-1.222l0.074,0.096c-0.027-0.043,1.761-2.091,1.761-2.091l-1.768-2.279	c0,0-2.428,1.222-2.463,1.185l0.013,0.017c-0.333-0.335-0.678-0.657-1.036-0.965l0.087,0.061c-0.038-0.034,1.055-2.523,1.055-2.523	l-2.368-1.646c0,0-1.952,1.892-1.997,1.868l0.032,0.022c-0.417-0.222-0.842-0.428-1.275-0.616l0.086,0.027	c-0.046-0.02,0.251-2.723,0.251-2.723l-2.752-0.862c0,0-1.297,2.389-1.347,2.379l0.054,0.017c-0.464-0.09-0.931-0.161-1.401-0.212	h0.074C25.965,6.667,25.442,4,25.442,4L22.558,4L22.558,4z"/><path fill="#ffc107" d="M19.764,16.721c-0.029,4.392,2.928,7.092,4.185,7.818	c1.257-0.726,4.214-3.426,4.185-7.818c-0.029-4.393-2.928-7.092-4.185-7.818C22.692,9.629,19.793,12.328,19.764,16.721z"/><path fill="#ffc107" d="M21.973,34.332v-1.151C15.334,31.83,10.55,29.344,6.355,30.98c0.522,1.345,1.193,2.615,1.994,3.79 C12.089,32.499,16.685,33.277,21.973,34.332z"/><path fill="#ffc107" d="M21.973,37.764c-2.626,0.126-5.22,1.049-7.379,2.789c2.215,1.271,4.716,2.097,7.379,2.381V37.764z"/><path fill="#ffc107" d="M21.973,35.234c-3.725-0.658-7.64-0.708-12.187,1.387c0.805,0.916,1.698,1.752,2.664,2.499 c3.839-2.058,6.906-2.816,9.523-2.854V35.234z"/><path fill="#ffc107" d="M26.027,42.942c1.964-0.209,3.837-0.718,5.574-1.48c-1.607-1.601-3.534-2.678-5.574-3.246V42.942z"/><path fill="#ffc107" d="M26.027,36.129v0.658c3.009,0.809,5.516,2.354,8.328,3.183c1.134-0.742,2.182-1.602,3.128-2.563 C33.388,37.999,29.722,37.04,26.027,36.129z"/><path fill="#ffc107" d="M26.027,33.795v1.329c4.008,0.729,8.346,1.252,12.96,0.561c0.907-1.174,1.678-2.457,2.292-3.826 C35.32,33.913,30.322,34.213,26.027,33.795z"/><path fill="#ffc107" d="M12.245,19.179c-0.107,0.002-0.204,0.006-0.292,0.013	c-0.435,1.251-0.755,4.937,2.154,8.391c0.269,0.32,0.548,0.614,0.833,0.886c1.896,1.962,4.816,3.287,8.141,3.495V43.03	c0.305,0.012,0.611,0.021,0.919,0.021s0.614-0.008,0.919-0.021V31.964c3.319-0.208,6.234-1.529,8.131-3.485	c0.002-0.001,0.004-0.003,0.004-0.005c0.287-0.272,0.567-0.569,0.838-0.891c2.909-3.453,2.589-7.14,2.154-8.391	c-0.087-0.007-0.185-0.012-0.291-0.013c-1.598-0.023-5.218,0.651-7.985,3.859c-2.355,2.73-2.599,5.647-2.381,7.351	c-0.348,0.343-0.841,0.557-1.388,0.557c-0.547,0-1.04-0.214-1.389-0.557c0.218-1.704-0.027-4.621-2.381-7.351	C17.463,19.831,13.843,19.157,12.245,19.179z"/></svg>