<svg xmlns="http://www.w3.org/2000/svg"  viewBox="0 0 48 48" width="1600px" height="1600px"><path fill="#F44336" d="M33 11A13 13 0 1 0 33 37A13 13 0 1 0 33 11Z"/><path fill="#2196F3" d="M28,24h-8c0-0.682,0.068-1.347,0.169-2h7.661c-0.105-0.685-0.255-1.354-0.464-2h-6.732c0.225-0.694,0.508-1.362,0.84-2h5.051c-0.369-0.709-0.804-1.376-1.293-2h-2.465c0.379-0.484,0.79-0.941,1.233-1.367c-0.226-0.218-0.455-0.432-0.696-0.633c-2.252-1.872-5.146-3-8.304-3C7.82,11,2,16.82,2,24s5.82,13,13,13c3.496,0,6.664-1.388,9-3.633c0.443-0.426,0.854-0.883,1.232-1.367h-2.465c-0.489-0.624-0.923-1.291-1.293-2h5.051c0.333-0.638,0.616-1.306,0.841-2h-6.732c-0.209-0.646-0.358-1.315-0.464-2h7.661C27.932,25.347,28,24.682,28,24z"/></svg>