<svg xmlns="http://www.w3.org/2000/svg"  viewBox="0 0 48 48" width="1600px" height="1600px"><path fill="#ffc107" d="M36.946,6c1.29,0,2.242,0.37,2.911,1.13c1.475,1.679,1.102,4.709,1.098,4.738l-0.009,0.066V12c0,4.554-6.761,22-18.008,22c-0.409-0.001-3.992-0.176-3.992-6C18.946,20.729,28.846,6,36.946,6 M36.946,5c-8.563,0-19,15.188-19,23c0,6.921,4.773,7,4.992,7c0.005,0,0.008,0,0.008,0c11.813,0,19-17.938,19-23C41.946,12,42.883,5,36.946,5L36.946,5z"/><path fill="#b0bec5" d="M7.083 15L7.083 17 6.333 18 8.333 20 10 20 10 21 12 21 13 20 15 20 15 22 17 24 19 24 20 26 22 26 23 27 22 29 22 31 23 32 24 32 26 35 26 36 23 39 26 42 26 43 27 42 27 41 28 40 30 38 30 35 33 33 34 33 35 32 36 33 39 29 40 26 40 23 44 19 44 17 43 15 42 15 39 13 37 13 36 12 35 13 35 12 32 11 31 12 29 12 29 11 27 11 30 8 28 6 27 8 26 8 25 7 24 7 24 8 22 8 20 5 17 6 14 6 14 8 13 7 10.942 7.686 10 12 8 13z"/><path fill="#78909c" d="M31.335,20.997c1.22,0,0.518,1.488,0.356,1.997h-3.786C28.607,21.91,29.687,20.997,31.335,20.997 M31.335,19c-5.881,0-6.658,7.324-6.658,7.324s-0.333,3.329,2.663,3.329c3.384,0,4.938-3.329,4.938-3.329h-2.275c0,0-0.888,1.332-1.997,1.332c-0.86,0-1.334-0.493-1.332-1.055c0.003-0.744,0.388-1.608,0.388-1.608h5.992c0,0,0.915-1.896,0.943-3.555C34.02,20.147,33.908,19,31.335,19L31.335,19z"/><path fill="#fff" d="M30.335,19.997c1.22,0,0.518,1.488,0.356,1.997h-3.786C27.607,20.91,28.687,19.997,30.335,19.997 M30.335,18c-5.881,0-6.658,7.324-6.658,7.324s-0.333,3.329,2.663,3.329c3.384,0,4.938-3.329,4.938-3.329h-2.275c0,0-0.888,1.332-1.997,1.332c-0.86,0-1.334-0.493-1.332-1.055c0.003-0.744,0.388-1.608,0.388-1.608h5.992c0,0,0.915-1.896,0.943-3.555C33.02,19.147,32.908,18,30.335,18L30.335,18z"/><path fill="#388e3c" d="M35,6c1.29,0,2.242,0.37,2.911,1.13c1.475,1.679,1.102,4.709,1.098,4.738L39,11.933V12c0,4.554-6.761,22-18.029,22C20.565,34,17,33.832,17,28C17,20.729,26.9,6,35,6 M35,5c-8.563,0-19,15.188-19,23c0,6.848,4.565,7,4.971,7C20.99,35,21,35,21,35c11.813,0,19-17.938,19-23C40,12,40.938,5,35,5L35,5z"/><path fill="#78909c" d="M5.347 7h3.048l.744 7.233L13.016 7h3.118l-2.163 10h-2.065l1.826-7.964L9.462 17H7.777L6.794 9.022 5.277 17H3.17L5.347 7zM21.231 7c1.882 0 2.374.056 3.089.323 1.377.506 2.205 1.938 2.205 3.75 0 1.531-.534 3.076-1.433 4.129C23.731 16.817 22.2 17 20.22 17H16.54l2.107-10H21.231zM19.082 15.188h1.32c.885 0 1.728-.042 2.458-.604.885-.674 1.475-2.037 1.475-3.385 0-1.713-.913-2.374-2.556-2.374h-1.348L19.082 15.188z"/><path fill="#eceff1" d="M4.177 6h3.048l.744 7.233L11.846 6h3.118l-2.163 10h-2.065l1.826-7.964L8.292 16H6.607L5.624 8.022 4.107 16H2L4.177 6zM19.655 6c1.882 0 2.374.056 3.089.323 1.377.506 2.205 1.938 2.205 3.75 0 1.531-.534 3.076-1.433 4.129C22.155 15.817 20.623 16 18.643 16h-3.679L17.07 6H19.655zM17.506 14.188h1.32c.885 0 1.728-.042 2.458-.604.885-.674 1.475-2.037 1.475-3.385 0-1.713-.913-2.374-2.556-2.374h-1.348L17.506 14.188z"/><path fill="#78909c" d="M34.251 9L34.652 7 28.652 7 26.652 17 28.652 17 29.451 13 33.251 13 33.652 11 29.852 11 30.251 9z"/><path fill="#eceff1" d="M32.564 8L32.964 6 26.964 6 24.964 16 26.964 16 27.764 12 31.564 12 31.964 10 28.164 10 28.564 8z"/></svg>