<svg xmlns="http://www.w3.org/2000/svg"  viewBox="0 0 48 48" width="1600px" height="1600px" baseProfile="basic"><path fill="#e30613" d="M1.814,30.96L1.68,31.728c-0.035,0.291,0.194,0.547,0.492,0.547h19.211	c0.298,0,0.528-0.256,0.494-0.547l-0.182-0.768c-0.048-0.46,0.288-0.88,0.746-0.929c0.462-0.05,0.87,0.287,0.917,0.745l0.177,0.752	c0.15,1.285-0.579,2.412-1.877,2.412H1.897c-1.299,0-2.027-1.127-1.877-2.412l0.131-0.752c0.049-0.459,0.455-0.796,0.916-0.745	C1.527,30.08,1.862,30.5,1.814,30.96"/><path fill="#1d1d1b" d="M19.592,26.477c0.875,0.002,1.572-0.636,1.554-1.474c-0.018-0.859-0.799-1.413-1.671-1.415h-1.76	c-0.39,0-0.71-0.324-0.71-0.73c0-0.406,0.319-0.731,0.71-0.731h1.176c0.793-0.031,1.403-0.512,1.441-1.261	c0.04-0.802-0.651-1.405-1.494-1.405h-2.853l-0.012,7.017H19.592z M21.754,20.86c0,0.732-0.259,1.146-0.688,1.656l-0.043,0.051	l0.059,0.036c0.85,0.518,1.443,1.301,1.488,2.401c0.066,1.638-1.323,2.994-2.97,2.99h-4.344c-0.423,0-0.765-0.352-0.765-0.784	v-8.426c0-0.434,0.342-0.784,0.763-0.784l3.586,0.01C20.404,18.011,21.754,19.161,21.754,20.86"/><path fill="#1d1d1b" d="M6.685,25.112l0.02,0.059l0.021-0.059c0.201-0.555,0.444-1.169,0.702-1.839	c0.266-0.705,0.53-1.379,0.794-2.021c0.267-0.652,0.52-1.233,0.761-1.74c0.241-0.518,0.441-0.873,0.594-1.068	c0.238-0.284,0.552-0.428,0.943-0.428h0.18c0.239,0,0.426,0.063,0.566,0.182c0.129,0.112,0.205,0.241,0.226,0.39l1.123,8.706	c0,0.224-0.064,0.398-0.192,0.527C12.297,27.94,12.116,28,11.878,28s-0.426-0.056-0.565-0.167c-0.154-0.111-0.241-0.256-0.263-0.436	c-0.038-0.289-0.073-0.611-0.107-0.964c-0.05-0.352-0.224-1.871-0.274-2.254c-0.046-0.395-0.362-2.855-0.469-3.748l-0.01-0.076	l-0.36,0.755c-0.122,0.259-0.254,0.571-0.4,0.934c-0.144,0.363-0.291,0.746-0.434,1.151c-0.157,0.393-0.852,2.379-0.852,2.379	c-0.064,0.18-0.187,0.543-0.297,0.877c-0.112,0.332-0.215,0.632-0.243,0.69C7.44,27.47,7.118,27.686,6.708,27.69	c-0.414-0.002-0.736-0.22-0.9-0.548c-0.03-0.058-0.132-0.358-0.244-0.69c-0.112-0.334-0.231-0.697-0.299-0.877	c0,0-0.695-1.986-0.85-2.379c-0.145-0.405-0.291-0.788-0.436-1.151c-0.145-0.363-0.277-0.675-0.396-0.934l-0.362-0.755l-0.008,0.076	c-0.109,0.893-0.423,3.353-0.471,3.748c-0.05,0.383-0.225,1.902-0.272,2.254c-0.036,0.353-0.073,0.675-0.111,0.964	c-0.021,0.18-0.109,0.325-0.261,0.436C1.958,27.944,1.77,28,1.532,28c-0.238,0-0.418-0.06-0.545-0.18	c-0.127-0.129-0.192-0.304-0.193-0.527l1.123-8.706c0.025-0.149,0.099-0.277,0.228-0.39c0.139-0.119,0.329-0.182,0.565-0.182h0.182	c0.391,0,0.705,0.144,0.941,0.428c0.155,0.195,0.353,0.55,0.594,1.068c0.243,0.507,0.495,1.088,0.761,1.74	c0.264,0.642,0.53,1.316,0.796,2.021C6.241,23.943,6.484,24.557,6.685,25.112"/><path fill="#e30613" d="M4.512,12h14.592c1.374,0,2.059,1.032,2.22,2.393l0.086,0.667c0.049,0.467-0.295,0.886-0.753,0.935	c-0.46,0.049-0.873-0.289-0.921-0.757l-0.058-0.417c-0.062-0.517-0.305-1.147-0.831-1.147H4.769c-0.526,0-0.72,0.63-0.782,1.147	l-0.056,0.417c-0.048,0.467-0.461,0.806-0.923,0.757c-0.461-0.049-0.803-0.468-0.753-0.935l0.037-0.667	C2.454,13.032,3.137,12,4.512,12"/><path fill="#1d1d1b" d="M30.647,21.737c-0.117,0.454-0.239,0.94-0.366,1.456c-0.127,0.514-0.255,1.008-0.38,1.478	c-0.124,0.471-0.241,0.882-0.354,1.238c-0.111,0.356-0.206,0.598-0.28,0.73c-0.132,0.232-0.364,0.348-0.695,0.348	c-0.093,0-0.212-0.019-0.362-0.058c-0.148-0.037-0.271-0.142-0.372-0.315c-0.074-0.132-0.167-0.386-0.28-0.767	c-0.111-0.38-0.228-0.816-0.354-1.312c-0.123-0.496-0.247-1.02-0.372-1.573c-0.123-0.553-0.236-1.065-0.335-1.542	c-0.099-0.473-0.183-0.88-0.249-1.213c-0.066-0.335-0.103-0.533-0.111-0.601c-0.008-0.041-0.012-0.07-0.012-0.086v-0.049	c0-0.14,0.052-0.255,0.161-0.341c0.107-0.087,0.241-0.13,0.397-0.13c0.15,0,0.269,0.033,0.362,0.095	c0.09,0.06,0.156,0.171,0.197,0.327c0,0.016,0.025,0.138,0.068,0.36c0.047,0.222,0.105,0.508,0.175,0.853	c0.072,0.348,0.15,0.734,0.236,1.164c0.087,0.43,0.177,0.866,0.274,1.308c0.095,0.44,0.191,0.866,0.286,1.281	c0.095,0.411,0.183,0.767,0.267,1.063c0.082-0.28,0.173-0.6,0.273-0.96c0.099-0.358,0.199-0.73,0.298-1.112	c0.099-0.385,0.193-0.767,0.286-1.152c0.09-0.384,0.175-0.742,0.255-1.071c0.078-0.331,0.146-0.623,0.204-0.878	c0.058-0.257,0.103-0.446,0.138-0.572c0.041-0.156,0.119-0.28,0.235-0.37c0.119-0.09,0.257-0.138,0.424-0.138	c0.181,0,0.331,0.049,0.448,0.144c0.113,0.095,0.189,0.218,0.222,0.364c0.093,0.405,0.191,0.857,0.298,1.357	c0.107,0.498,0.22,1.003,0.335,1.516c0.117,0.512,0.239,1.014,0.36,1.505c0.125,0.492,0.245,0.927,0.362,1.306	c0.082-0.296,0.173-0.652,0.267-1.063c0.095-0.415,0.191-0.839,0.29-1.277c0.101-0.436,0.195-0.87,0.286-1.299	c0.092-0.428,0.175-0.814,0.251-1.158c0.074-0.341,0.134-0.621,0.179-0.835c0.045-0.216,0.068-0.327,0.068-0.335	c0.041-0.156,0.107-0.267,0.199-0.327C34.315,19.033,34.436,19,34.585,19c0.156,0,0.29,0.043,0.397,0.13	c0.109,0.086,0.162,0.201,0.162,0.341v0.049c0,0.016-0.004,0.045-0.012,0.086c-0.006,0.068-0.047,0.265-0.119,0.601	c-0.068,0.333-0.154,0.74-0.253,1.213c-0.101,0.477-0.212,0.987-0.337,1.536c-0.121,0.549-0.245,1.071-0.364,1.565	c-0.121,0.496-0.236,0.932-0.35,1.308c-0.111,0.374-0.206,0.629-0.28,0.761c-0.099,0.173-0.224,0.284-0.378,0.329	c-0.154,0.045-0.276,0.068-0.366,0.068c-0.035,0-0.082-0.004-0.15-0.012c-0.066-0.01-0.136-0.025-0.212-0.051	c-0.074-0.024-0.148-0.063-0.222-0.116c-0.076-0.056-0.134-0.127-0.175-0.218c-0.074-0.156-0.164-0.417-0.267-0.779	c-0.103-0.364-0.216-0.773-0.335-1.231c-0.119-0.459-0.238-0.938-0.354-1.437C30.854,22.642,30.746,22.173,30.647,21.737"/><path fill="#1d1d1b" d="M37.592,24.756c-0.127,0.401-0.237,0.771-0.333,1.112c-0.097,0.342-0.187,0.623-0.27,0.839	c-0.094,0.243-0.276,0.364-0.553,0.364c-0.193,0-0.333-0.048-0.422-0.143c-0.087-0.098-0.131-0.22-0.131-0.37	c0-0.058,0.008-0.112,0.025-0.164c0.017-0.048,0.068-0.22,0.158-0.511c0.087-0.291,0.202-0.654,0.345-1.089	c0.141-0.434,0.299-0.91,0.47-1.425c0.173-0.517,0.349-1.029,0.534-1.534c0.183-0.505,0.364-0.977,0.54-1.413	c0.175-0.438,0.339-0.792,0.488-1.058c0.068-0.141,0.158-0.239,0.27-0.289c0.114-0.05,0.267-0.075,0.46-0.075	c0.185,0,0.341,0.031,0.47,0.087c0.131,0.06,0.22,0.16,0.27,0.301c0.119,0.249,0.26,0.586,0.422,1.006	c0.162,0.422,0.335,0.877,0.513,1.365c0.181,0.488,0.358,0.987,0.534,1.494c0.177,0.509,0.339,0.983,0.484,1.421	c0.145,0.436,0.272,0.81,0.376,1.12c0.104,0.31,0.17,0.509,0.195,0.598c0.015,0.052,0.025,0.106,0.025,0.164	c0,0.15-0.05,0.272-0.152,0.37c-0.1,0.096-0.247,0.143-0.439,0.143c-0.143,0-0.249-0.031-0.322-0.096	c-0.068-0.06-0.127-0.152-0.168-0.268c-0.083-0.216-0.183-0.498-0.295-0.839c-0.112-0.341-0.233-0.711-0.358-1.112H37.592z M40.38,23.667c-0.177-0.542-0.343-1.041-0.503-1.494c-0.16-0.455-0.322-0.887-0.49-1.297c-0.042-0.091-0.085-0.195-0.131-0.32	c-0.046-0.119-0.073-0.191-0.081-0.216c-0.008,0.006-0.037,0.077-0.081,0.206c-0.048,0.129-0.091,0.239-0.133,0.33	c-0.167,0.409-0.329,0.842-0.485,1.297c-0.154,0.453-0.32,0.952-0.495,1.494H40.38z"/><path fill="#1d1d1b" d="M44.636,23.917c-0.042-0.04-0.081-0.087-0.119-0.137c-0.039-0.048-0.079-0.108-0.12-0.174	c-0.119-0.166-0.243-0.368-0.382-0.607c-0.139-0.237-0.276-0.49-0.415-0.756c-0.137-0.268-0.27-0.538-0.399-0.808	c-0.131-0.27-0.249-0.522-0.351-0.754c-0.106-0.235-0.195-0.438-0.27-0.607c-0.077-0.173-0.125-0.293-0.139-0.359	c-0.017-0.042-0.027-0.073-0.031-0.094c-0.002-0.021-0.006-0.052-0.006-0.094c0-0.15,0.052-0.276,0.156-0.374	C42.664,19.05,42.807,19,42.992,19c0.166,0,0.285,0.042,0.358,0.125c0.071,0.085,0.125,0.168,0.156,0.251	c0.017,0.044,0.058,0.133,0.12,0.274c0.062,0.143,0.139,0.318,0.231,0.526c0.091,0.208,0.197,0.438,0.314,0.688	c0.12,0.251,0.237,0.497,0.359,0.74c0.121,0.241,0.239,0.472,0.351,0.694c0.112,0.22,0.22,0.401,0.32,0.544	c0.16-0.243,0.33-0.547,0.515-0.914c0.183-0.368,0.359-0.729,0.526-1.087c0.168-0.359,0.312-0.677,0.434-0.952	c0.12-0.276,0.193-0.447,0.22-0.513c0.033-0.083,0.085-0.166,0.156-0.251C47.123,19.042,47.243,19,47.41,19	c0.185,0,0.328,0.05,0.434,0.152C47.948,19.249,48,19.376,48,19.526c0,0.042-0.002,0.073-0.006,0.094s-0.014,0.052-0.029,0.094	c-0.027,0.066-0.075,0.187-0.145,0.364c-0.071,0.174-0.16,0.38-0.266,0.613c-0.104,0.233-0.22,0.486-0.349,0.757	c-0.131,0.272-0.264,0.54-0.401,0.808c-0.139,0.266-0.276,0.521-0.416,0.763c-0.137,0.241-0.266,0.447-0.382,0.613	c-0.075,0.108-0.156,0.206-0.239,0.287v2.591c0,0.166-0.052,0.301-0.158,0.407c-0.104,0.102-0.239,0.156-0.407,0.156	c-0.168,0-0.303-0.054-0.407-0.156c-0.106-0.106-0.158-0.241-0.158-0.407V23.917z"/></svg>