<svg xmlns="http://www.w3.org/2000/svg"  viewBox="0 0 48 48" width="1600px" height="1600px" clip-rule="evenodd" baseProfile="basic"><path fill="#aed580" d="M31.003,7.001l-0.001-5.5c0-0.828,0.672-1.5,1.5-1.5	c0.828,0,1.5,0.672,1.5,1.5v5.5H31.003z"/><path fill="#aed580" d="M14.964,47.999h18.073c0.533,0,0.965-0.432,0.965-0.965V4.964c0-0.533-0.432-0.965-0.965-0.965	H14.964c-0.533,0-0.965,0.432-0.965,0.965v42.07C13.999,47.567,14.431,47.999,14.964,47.999z"/><path fill="#fff" fill-rule="evenodd" d="M17.739,29.001h12.524c0.962,0,1.741-0.78,1.741-1.741V10.743	c0-0.962-0.78-1.741-1.741-1.741H17.739c-0.962,0-1.741,0.78-1.741,1.741V27.26C15.997,28.222,16.777,29.001,17.739,29.001z" clip-rule="evenodd"/><path fill="#9b2310" fill-rule="evenodd" d="M12.001,22.001	c3.643-0.7,5.865-2.448,7-5c1.135,2.552,3.357,4.3,7,5H12.001z" clip-rule="evenodd"/><path fill="#e60023" fill-rule="evenodd" d="M12.001,22.001	c4.273,0.867,6.476,1,11,1c5.076,0,11.712-1.939,14-6l-9-4C24.039,18.139,21.863,22.001,12.001,22.001z" clip-rule="evenodd"/></svg>