<svg xmlns="http://www.w3.org/2000/svg"  viewBox="0 0 48 48" width="1600px" height="1600px"><path fill="#ef6c00" d="M39.498,12c-0.765,0-1.418-0.583-1.492-1.36l-0.12-1.28C37.814,8.585,37.172,8,36.393,8H11.607	c-0.779,0-1.421,0.585-1.493,1.359l-0.12,1.28c-0.078,0.825-0.813,1.44-1.634,1.354c-0.825-0.077-1.431-0.809-1.354-1.633l0.12-1.28	C7.345,6.754,9.271,5,11.607,5h24.786c2.336,0,4.262,1.754,4.48,4.08l0.12,1.28c0.077,0.824-0.529,1.556-1.354,1.633	C39.592,11.998,39.545,12,39.498,12z"/><path fill="#ef6c00" d="M39.307,43H8.693c-1.237,0-2.433-0.518-3.28-1.419s-1.289-2.127-1.211-3.362l0.051-0.813	c0.052-0.827,0.756-1.457,1.591-1.403c0.827,0.052,1.455,0.764,1.403,1.591l-0.051,0.813c-0.026,0.417,0.117,0.815,0.404,1.12	C7.887,39.832,8.275,40,8.693,40h30.613c0.418,0,0.807-0.168,1.093-0.473c0.287-0.306,0.43-0.703,0.404-1.121l-0.051-0.813	c-0.052-0.827,0.577-1.539,1.403-1.591c0.829-0.054,1.539,0.576,1.591,1.403l0.051,0.813c0.077,1.235-0.364,2.461-1.211,3.362	S40.544,43,39.307,43z"/><path fill="#424242" d="M25.99,31.335l-1.604-14.121c-0.13-1.151-0.977-2.031-2.107-2.189	c-1.119-0.159-2.167,0.448-2.603,1.506L15.5,26.588l-4.175-10.056c-0.438-1.059-1.482-1.667-2.604-1.508	c-1.13,0.158-1.977,1.038-2.107,2.189L5.01,31.335c-0.094,0.822,0.498,1.565,1.321,1.659c0.819,0.098,1.566-0.498,1.66-1.321	l1.37-12.051l4.755,11.453C14.347,31.635,14.894,32,15.5,32c0.606,0,1.153-0.365,1.385-0.925l4.755-11.453l1.37,12.051	C23.097,32.439,23.746,33,24.498,33c0.057,0,0.114,0.001,0.171-0.006C25.493,32.9,26.084,32.157,25.99,31.335z"/><path fill="#424242" d="M40.447,22.802c0.507-0.769,0.803-1.688,0.803-2.677c0-2.688-2.187-4.875-4.875-4.875H30.5	c-0.829,0-1.5,0.672-1.5,1.5v14.5c0,0.828,0.671,1.5,1.5,1.5h7.125c2.964,0,5.375-2.411,5.375-5.375	C43,25.445,41.978,23.751,40.447,22.802z M37.625,29.75H32v-11.5h4.375c1.034,0,1.875,0.841,1.875,1.875S37.409,22,36.375,22H35.5	c-0.829,0-1.5,0.672-1.5,1.5s0.671,1.5,1.5,1.5h2.125C38.935,25,40,26.065,40,27.375S38.935,29.75,37.625,29.75z"/></svg>