<svg xmlns="http://www.w3.org/2000/svg"  viewBox="0 0 48 48" width="1600px" height="1600px" baseProfile="basic"><path fill="#f07642" d="M9.097,37.982c3.854,1.949,7.689,2.038,11.466-0.123c2.521-1.443,4.207-3.618,5.067-6.387	c1.027-3.307,0.606-6.472-1.212-9.409c-1.575-2.545-3.863-4.2-6.753-4.968c-1.841-0.489-3.713-0.493-5.572-0.043	c-1.874,0.453-3.525,1.345-4.948,2.637c-1.42,1.289-2.43,2.852-3.064,4.671c-0.632,1.812-0.766,3.66-0.509,5.553	c-0.024,0.003-0.048,0.006-0.072,0.009c-0.048-0.134-0.113-0.265-0.142-0.403c-0.08-0.378-0.13-0.763-0.218-1.139	C2.84,27.1,2.905,25.8,2.942,24.508c0.018-0.608,0.162-1.216,0.284-1.817c0.115-0.564,0.25-1.126,0.427-1.673	c0.199-0.613,0.424-1.221,0.694-1.806c0.591-1.282,1.359-2.453,2.286-3.521c1.014-1.168,2.166-2.176,3.497-2.96	c0.766-0.451,1.562-0.859,2.372-1.226c0.529-0.24,1.103-0.385,1.664-0.55c0.42-0.123,0.849-0.224,1.279-0.307	c0.371-0.071,28.995-3.606,29.396-3.645c0.183-0.018,0.232,0.063,0.241,0.238c0.035,0.698-0.031,1.391-0.211,2.058	c-0.219,0.81-0.572,1.571-1.073,2.256c-0.599,0.819-1.336,1.487-2.214,1.99c-0.576,0.33-1.19,0.583-1.851,0.691	c-0.464,0.076-0.93,0.131-1.397,0.19c-0.632,0.08-1.265,0.152-1.897,0.232c-0.564,0.071-1.127,0.151-1.691,0.221	c-0.557,0.069-1.116,0.126-1.673,0.194c-0.579,0.07-1.157,0.144-1.735,0.223c-0.451,0.061-0.901,0.129-1.35,0.2	c-0.217,0.034-0.258,0.166-0.112,0.339c0.803,0.954,1.511,1.974,2.025,3.113c0.34,0.754,0.657,1.522,0.933,2.301	c0.17,0.482,0.25,0.996,0.357,1.499c0.119,0.556,0.233,1.112,0.238,1.687c0.006,0.731,0.095,1.463,0.058,2.191	c-0.033,0.662-0.191,1.318-0.286,1.978c-0.178,1.23-0.593,2.391-1.103,3.511c-0.318,0.697-0.712,1.367-1.136,2.006	c-0.433,0.653-0.917,1.277-1.427,1.871c-0.668,0.779-1.429,1.47-2.279,2.046c-0.743,0.503-1.501,1-2.301,1.402	c-0.743,0.374-1.544,0.638-2.332,0.913c-0.513,0.179-1.048,0.298-1.578,0.428c-0.235,0.058-0.479,0.078-0.72,0.11	c-1.025,0.137-2.056,0.119-3.085,0.092c-0.49-0.013-0.981-0.091-1.466-0.171c-0.574-0.095-1.151-0.194-1.711-0.347	c-0.541-0.148-1.067-0.355-1.592-0.558c-0.998-0.385-1.93-0.9-2.825-1.484c-0.153-0.1-0.304-0.202-0.451-0.31	C9.156,38.08,9.13,38.026,9.097,37.982z"/></svg>