<svg xmlns="http://www.w3.org/2000/svg"  viewBox="0 0 48 48" width="1600px" height="1600px" baseProfile="basic"><path fill="#ffa000" d="M29.17,4.68L31,8l-3.12,1.51c-3.423-0.911-6.246-0.403-7.76,0L17,8l1.83-3.32	C22.871,3.578,26.644,3.991,29.17,4.68z"/><path fill="#c0ca33" d="M38.137,9.853l-0.075,3.79l-3.457-0.252c-2.509-2.501-5.208-3.472-6.72-3.88l1.298-4.828	C33.233,5.749,36.294,7.994,38.137,9.853z"/><path fill="#8bc34a" d="M43.317,18.817l-1.96,3.245l-2.868-1.947c-0.923-3.42-2.774-5.611-3.88-6.72l3.538-3.532	C41.121,12.811,42.65,16.285,43.317,18.817z"/><path fill="#00bfa5" d="M43.32,29.17L40,31l-1.51-3.12c0.911-3.423,0.403-6.246,0-7.76l4.83-1.29	C44.422,22.871,44.009,26.644,43.32,29.17z"/><path fill="#00acc1" d="M38.147,38.137l-3.79-0.075l0.252-3.457c2.501-2.509,3.472-5.208,3.88-6.72l4.828,1.298	C42.251,33.233,40.006,36.294,38.147,38.137z"/><path fill="#5879e6" d="M29.183,43.317l-3.245-1.96l1.947-2.868c3.42-0.923,5.611-2.774,6.72-3.88l3.532,3.538	C35.189,41.121,31.715,42.65,29.183,43.317z"/><path fill="#ba68c8" d="M18.83,43.32L17,40l3.12-1.51c3.423,0.911,6.246,0.403,7.76,0l1.29,4.83	C25.129,44.422,21.356,44.009,18.83,43.32z"/><path fill="#f06292" d="M9.863,38.147l0.075-3.79l3.457,0.252c2.509,2.501,5.208,3.472,6.72,3.88l-1.298,4.828	C14.767,42.251,11.706,40.006,9.863,38.147z"/><path fill="#ef5350" d="M4.683,29.183l1.96-3.245l2.868,1.947c0.923,3.42,2.774,5.611,3.88,6.72l-3.538,3.532	C6.879,35.189,5.35,31.715,4.683,29.183z"/><path fill="#f4511e" d="M4.68,18.83L8,17l1.51,3.12c-0.911,3.423-0.403,6.246,0,7.76l-4.83,1.29	C3.578,25.129,3.991,21.356,4.68,18.83z"/><path fill="#fa5209" d="M9.853,9.863l3.79,0.075l-0.252,3.457c-2.501,2.509-3.472,5.208-3.88,6.72l-4.828-1.298	C5.749,14.767,7.994,11.706,9.853,9.863z"/><linearGradient id="0IPmGMAmWaLQGcKfSEhCwa" x1="9.863" x2="20.115" y1="9.037" y2="9.037" gradientUnits="userSpaceOnUse"><stop offset="0" stop-color="#f37a01"/><stop offset="1" stop-color="#ef8b00"/></linearGradient><path fill="url(#0IPmGMAmWaLQGcKfSEhCwa)" d="M18.817,4.683l1.298,4.828c-3.42,0.923-5.611,2.774-6.72,3.88L9.863,9.853	C12.811,6.879,16.285,5.35,18.817,4.683z"/></svg>