<svg xmlns="http://www.w3.org/2000/svg"  viewBox="0 0 48 48" width="1600px" height="1600px"><path fill="#4527a0" d="M42,37c0,2.762-2.238,5-5,5H11c-2.761,0-5-2.238-5-5V11c0-2.762,2.239-5,5-5h26c2.762,0,5,2.238,5,5	V37z"/><path fill="#fff" d="M32.267,20.171c0-0.681-0.584-1.264-1.264-1.264h-2.334l-5.35-6.25	c-0.486-0.584-1.264-0.778-2.043-0.584l-1.848,0.584c-0.292,0.097-0.389,0.486-0.195,0.681l5.836,5.666h-8.851	c-0.292,0-0.486,0.195-0.486,0.486v0.973c0,0.681,0.584,1.506,1.264,1.506h1.972v4.305c0,3.502,1.611,5.544,4.723,5.544	c0.973,0,1.378-0.097,2.35-0.486v3.112c0,0.875,0.681,1.556,1.556,1.556h0.786c0.292,0,0.584-0.292,0.584-0.584V21.969h2.812	c0.292,0,0.486-0.195,0.486-0.486V20.171z M26.043,28.413c-0.584,0.292-1.362,0.389-1.945,0.389c-1.556,0-2.097-0.778-2.097-2.529	v-4.305h4.043V28.413z"/></svg>