<svg xmlns="http://www.w3.org/2000/svg"  viewBox="0 0 48 48" width="1600px" height="1600px"><path fill="#212121" d="M37,6H11c-2.757,0-5,2.243-5,5v26c0,2.757,2.243,5,5,5h26c2.757,0,5-2.243,5-5V11	C42,8.243,39.757,6,37,6z"/><path fill="#fafafa" d="M24,13.774c-3.409,0-7.243,1.704-7.243,5.539c0,6.604,11.078,5.326,11.078,9.373	c0,2.769-2.982,2.982-3.835,2.982c-1.704,0-4.261-0.852-5.539-1.704l-2.13,2.13c2.13,1.278,4.687,2.343,7.669,2.343	c2.556,0,7.243-1.278,7.243-5.752c0-5.965-11.078-5.752-11.078-9.373c0-2.556,2.982-2.982,3.835-2.982	c1.065,0,3.195,0.426,4.261,1.278l2.13-1.917C29.113,14.627,27.409,13.774,24,13.774z"/></svg>