<svg xmlns="http://www.w3.org/2000/svg"  viewBox="0 0 48 48" width="1600px" height="1600px"><path fill="#37474F" d="M42,4H6v32l18,8l18-8V4L42,4z"/><path fill="#FFF" d="M24.3,25.9l-0.3,0c-0.6,0-2,0-2.4-0.4c0-1,1.6-1.2,2.6-1.2c1.6,0,2.9,1,3,1l1.2-1.6c-0.1-0.1-1.9-1.4-4.1-1.4c-2.8,0-4.6,1.3-4.6,3.2c0,0.6,0.2,1.1,0.6,1.5c0.9,0.9,2.6,0.9,3.8,0.9l0.3,0c1.3,0,2.3,0.4,2.3,0.6c0,0.9-1.3,1.2-2.4,1.2c-1.9,0-3.5-1-3.5-1l-1.1,1.7c0.1,0.1,2.1,1.3,4.6,1.3c3.3,0,4.4-1.7,4.4-3.2C28.6,26.9,26.9,25.9,24.3,25.9z"/><path fill="#FF5722" d="M9,12V7h30v5H9z M39,15v19.1l-15,6.7L9,34.1V15H39z M32,27c0-4.4-3.6-8-8-8s-8,3.6-8,8s3.6,8,8,8S32,31.4,32,27z"/></svg>