<svg xmlns="http://www.w3.org/2000/svg"  viewBox="0 0 48 48" width="1600px" height="1600px"><path fill="#fff" d="M24 5A19 19 0 1 0 24 43A19 19 0 1 0 24 5Z"/><path fill="#01579b" d="M38.437 20.183c-.9 0-3.002-.002-4.055 0-.739.002-.804.126-.88.897l-.024.242.212-.128c.414-.25 1.128-.238 1.556-.066-.305 1.128-.586 2.173-.865 3.213-.294 1.093-.586 2.181-.903 3.353l-.042.152h1.696l.017-.102c.02-.123.032-.243.044-.359.015-.158.03-.308.066-.448.337-1.309.726-2.799 1.095-4.21l.409-1.565c.455-.304 1.627-.141 1.806-.006l.149.113L39 20.184 38.437 20.183zM31.207 20.2c-.594.008-1.177.015-1.759.015-.213 0-.385.229-.428.394-.611 2.354-1.209 4.703-1.823 7.119l-.038.151.339 0c.062 0 .126 0 .192 0 .252 0 .525-.004.79-.032.186-.019.373-.224.415-.394.098-.383.217-.909.336-1.431.11-.486.22-.969.31-1.326.063-.252.216-.434.466-.554.575-.276 1.492-.117 1.691-.031l.137.06.119-.512c.039-.169.078-.34.111-.48l.037-.157-.164.008c-.241.012-.471.027-.694.042-.308.02-.604.04-.903.049-.077.003-.265.009-.309-.046-.014-.017-.04-.076.011-.254.075-.261.122-.454.165-.629.072-.293.128-.524.281-.938.078-.208.379-.455.609-.498.702-.132 1.248.079 1.671.649l.159.215.061-.259c.044-.184.085-.346.124-.507.042-.169.083-.336.128-.523l.036-.149h-.156C32.462 20.184 31.828 20.192 31.207 20.2zM25.291 20.305c-.361 1.354-.713 2.69-1.063 4.017-.3 1.138-.598 2.271-.9 3.404l-.04.152h.16c.12 0 .245.004.371.008.133.004.269.009.407.009.136 0 .274-.005.412-.018.176-.016.4-.215.445-.394.15-.585.288-1.172.427-1.76.126-.535.252-1.07.386-1.603.284-1.12.605-2.348.981-3.755l.041-.152h-1.602L25.291 20.305zM23.553 21.076c.1-.214.203-.433.315-.656l.067-.133-.147-.038c-.127-.033-.251-.062-.366-.064-.006 0-.012 0-.017 0-.393 0-.54.311-.69.715-.069.183-1.219 2.644-1.819 3.899-.066.137-.122.238-.166.307-.12-1.359-.244-2.764-.384-4.145l-.007-.084c-.019-.236-.051-.631-.369-.631-.303 0-.482.343-.559.491-.392.754-.771 1.513-1.15 2.273-.288.576-.575 1.152-.869 1.726-.068.132-.19.314-.275.408l-.368-4.898h-1.629l.017.136c.026.209.053.408.08.601.044.325.087.632.116.94l.128 1.351c.121 1.287.243 2.575.376 3.859.029.278.119.745.404.745.354 0 .522-.322.643-.55.396-.754.781-1.529 1.154-2.279.24-.483.48-.967.725-1.449l.023-.045c.115-.232.188-.349.234-.405.005.025.011.058.015.104.033.383.068.766.102 1.149.083.922.169 1.877.234 2.817.021.302.11.505.266.604.07.044.149.066.238.066.077 0 .161-.017.252-.05.205-.075.321-.315.433-.546l.773-1.602c.697-1.444 1.396-2.891 2.087-4.336L23.553 21.076zM13.816 20.252c-.541-.187-1.017-.266-1.449-.25-.514.022-.974.157-1.404.411-.702.416-1.062 1.072-1.069 1.95-.008.874.471 1.368 1.051 1.878.127.112.258.217.389.322.286.228.556.443.772.722.316.406.409.906.248 1.339-.142.38-.461.65-.877.742-.418.091-.893.049-1.206-.11-.246-.125-.451-.379-.649-.626-.081-.1-.161-.199-.241-.287l-.147-.16L9.17 26.389c-.152.486-.241.822-.098 1.061.13.217.421.314.947.426C10.404 27.958 10.801 28 11.191 28c.195 0 .389-.01.578-.032 1.025-.114 1.827-.853 2.042-1.883.204-.975-.133-1.778-1.027-2.453-.114-.086-.23-.17-.347-.253-.28-.201-.568-.41-.821-.647-.275-.258-.426-.599-.424-.959.001-.343.142-.661.395-.894.257-.238.604-.337.977-.288.493.069.958.393 1.243.868l.109.181.135-.233c.113-.19.301-.508.195-.791C14.186 20.451 14.041 20.329 13.816 20.252z"/><path fill="#01579b" d="M24,4C12.954,4,4,12.954,4,24c0,10.708,8.422,19.425,19,19.95h2C35.578,43.425,44,34.708,44,24C44,12.954,35.046,4,24,4z M40.107,16h-6c-0.335-1.431-0.759-2.771-1.258-4h4.524C38.45,13.201,39.38,14.539,40.107,16z M32.009,16H25v-4h5.619C31.166,13.204,31.636,14.545,32.009,16z M17.381,12H23v4h-7.009C16.364,14.545,16.834,13.204,17.381,12z M35.252,10h-3.34c-0.61-1.143-1.292-2.156-2.043-3.002C31.849,7.682,33.656,8.715,35.252,10z M29.564,10H25V6.13C26.701,6.528,28.273,7.921,29.564,10z M23,6.13V10h-4.564C19.727,7.921,21.299,6.528,23,6.13z M16.088,10h-3.34c1.596-1.285,3.404-2.318,5.383-3.002C17.38,7.844,16.698,8.857,16.088,10z M10.628,12h4.524c-0.499,1.229-0.923,2.569-1.258,4h-6C8.62,14.539,9.55,13.201,10.628,12z M7.893,32h6c0.335,1.431,0.759,2.771,1.258,4h-4.524C9.55,34.799,8.62,33.461,7.893,32z M15.991,32H23v4h-5.619C16.834,34.796,16.364,33.455,15.991,32z M30.619,36H25v-4h7.009C31.636,33.455,31.166,34.796,30.619,36z M12.748,38h3.34c0.61,1.143,1.292,2.156,2.043,3.002C16.151,40.318,14.344,39.285,12.748,38z M18.436,38H23v3.87C21.299,41.472,19.727,40.079,18.436,38z M25,41.87V38h4.564C28.273,40.079,26.701,41.472,25,41.87z M31.912,38h3.34c-1.596,1.285-3.404,2.318-5.383,3.002C30.62,40.156,31.302,39.143,31.912,38z M37.372,36h-4.524c0.499-1.229,0.923-2.569,1.258-4h6C39.38,33.461,38.45,34.799,37.372,36z M34.515,30h-2.061H15.546h-2.061H7.046C6.381,28.121,6,26.107,6,24s0.381-4.121,1.046-6h6.439h2.061H23h2h7.454h2.061h6.439C41.619,19.879,42,21.893,42,24s-0.381,4.121-1.046,6H34.515z"/></svg>