<svg xmlns="http://www.w3.org/2000/svg"  viewBox="0 0 48 48" width="1600px" height="1600px"><path fill="#ffd740" d="M2,15v19c0,2.761,2.239,5,5,5h24.45c1.629,0,3.189-0.663,4.32-1.836l10.833-11.237	c0.773-0.782,0.769-2.042-0.009-2.82c0,0-7.534-7.572-10.948-11.213c-1.136-1.212-2.726-1.895-4.387-1.895L7,10	C4.238,10,2,12.238,2,15z"/><path d="M19.962,25.499c-0.841,0-1.625,0.008-2.409-0.002c-0.695-0.009-0.91-0.262-0.815-0.939c0.111-0.781,0.234-1.56,0.348-2.341	c0.068-0.462,0.322-0.697,0.797-0.696c1.994,0.003,3.989-0.001,5.983,0.002c0.552,0.001,0.817,0.287,0.741,0.835	c-0.403,2.908-0.803,5.817-1.241,8.721c-0.038,0.252-0.291,0.576-0.526,0.677c-3.57,1.549-7.27,2.202-11.089,1.18	c-3.381-0.905-5.491-3.649-5.724-7.144c-0.444-6.678,4.443-12.154,11.129-12.458c1.831-0.083,3.651,0.04,5.366,0.736	c0.719,0.292,1.37,0.764,2.023,1.199c0.395,0.263,0.454,0.647,0.087,1c-0.837,0.805-1.668,1.618-2.548,2.375	c-0.159,0.137-0.615,0.134-0.8,0.004c-4.263-2.991-9.678-0.794-10.644,4.337c-0.032,0.172-0.067,0.345-0.088,0.518	c-0.489,3.955,2.149,6.438,6.259,5.821c0.915-0.137,1.79-0.539,2.684-0.818C19.645,27.545,19.794,26.582,19.962,25.499z"/><path d="M30.625,31.941c-3.372,0.005-5.695-2.076-5.704-5.133c-0.005-1.684,0.507-3.207,1.623-4.476	c2.006-2.284,4.556-3.073,7.482-2.399c3.256,0.751,4.761,3.904,3.567,7.239C36.558,30.062,33.82,31.936,30.625,31.941z M31.877,22.961c-2.25-0.011-3.837,2.198-3.114,4.339c0.237,0.701,0.731,1.122,1.447,1.295c2.036,0.493,3.724-0.694,4.047-2.847	C34.508,24.074,33.564,22.969,31.877,22.961z"/></svg>