<svg xmlns="http://www.w3.org/2000/svg"  viewBox="0 0 48 48" width="1600px" height="1600px"><path fill="#e21836" d="M10.09,9h11.585c1.617,0,2.623,1.362,2.246,3.039l-5.394,23.927c-0.381,1.671-2,3.034-3.618,3.034 H3.325C1.956,38.999,1.023,38.02,1,36.704c-0.004-0.237,0.021-0.484,0.079-0.739l5.396-23.927C6.852,10.362,8.471,9,10.09,9"/><path fill="#00447c" d="M20.5,9h13.47c1.657,0,0.91,1.362,0.52,3.039l-5.527,23.928C28.575,37.637,28.696,39,27.035,39H13.38 c-1.39,0-2.336-0.955-2.379-2.246c-0.008-0.251,0.018-0.516,0.081-0.788l5.711-23.928C17.187,10.362,18.657,9,20.316,9"/><path fill="#007b84" d="M33.273,9h11.401c1.183,0,2.039,0.727,2.266,1.773c0.044,0.204,0.064,0.42,0.059,0.645 c-0.005,0.2-0.031,0.408-0.079,0.62l-5.393,23.928C41.146,37.637,39.525,39,37.906,39h-11.58c-1.355,0-2.279-0.953-2.324-2.241 c-0.009-0.253,0.016-0.518,0.078-0.792l5.578-23.928C30.036,10.362,31.653,9,33.273,9z"/><path fill="#fefefe" d="M19.364 18.117c-.325-.195-.905-.134-1.302.135-.396.263-.45.636-.126.833.319.189.902.134 1.296-.137C19.626 18.68 19.685 18.31 19.364 18.117zM42.308 19.376l-1.171 2.048L40.874 19l-1.24.294.454 3.963-1.415 2.293c-.038.054-.072.091-.119.107-.052.025-.118.03-.21.03h-.04L38 26.624l.75.001c.53-.002.904-.288 1.092-.625L44 19 42.308 19.376zM22.157 25l-.404.701C21.666 25.854 21.518 26 21.19 26h-.201l-.282.875h.668c.787 0 1.158-.431 1.158-.431h2.086l.301-.933h-1.752l.28-.51L22.157 25zM10.416 19.885c-.194.75-.341 1.24-.679 1.585-.233.238-.593.351-.923.35-.493 0-.91-.311-.883-.823.002-.038.007-.078.014-.119C8.187 19.531 9.242 16 9.242 16H7.275l-1.02 4.03c0 0-.25.968-.255 1.379-.004.313.047.569.164.785C6.54 22.879 7.652 23 8.288 23c1.088 0 1.731-.104 2.257-.424.839-.51 1.082-1.2 1.341-2.175C12.178 19.305 13 16 13 16h-1.595C11.405 16 10.417 19.883 10.416 19.885zM13.701 23l.705-2.869C14.559 20.065 14.709 20 14.851 20c.338 0 .414.281.397.393C15.234 20.529 14.658 23 14.658 23h1.404l.491-2.068c.204-.764.307-1.152.177-1.468C16.594 19.111 16.246 19 15.924 19c-.21 0-.596.073-.946.234-.127.061-.247.132-.374.202l.103-.438-1.493.234L12.25 23H13.701zM25.576 23l.705-2.869C26.434 20.065 26.584 20 26.726 20c.338 0 .414.281.397.393C27.109 20.529 26.533 23 26.533 23h1.404l.491-2.068c.204-.764.307-1.152.177-1.468C28.469 19.111 28.121 19 27.799 19c-.21 0-.596.073-.946.234-.127.061-.247.132-.374.202l.103-.438-1.493.234L24.125 23H25.576zM17 23L18.451 23 19.201 20 17.715 20.22zM35.424 16.62c-.414-.603-1.269-.615-2.257-.62-.001 0-.727 0-.727 0h-1.614L29 23h1.579l.665-2.5h.294c1.007 0 1.972-.014 2.809-.618.585-.426 1.033-.992 1.228-1.757.05-.187.09-.41.096-.633C35.678 17.199 35.588 16.847 35.424 16.62zM33.742 18.19c-.115.467-.428.86-.822 1.049-.324.16-.721.137-1.125.136h-.252L32.175 17c.142 0 .38 0 .62 0 .75 0 .988.477.986.875C33.781 17.978 33.768 18.084 33.742 18.19zM28.47 29c0 0-.075.219-.099.293-.02.063-.1.207-.327.207h-.419V29H26.5v2.5c-.007.183.179.5.998.5h.932l.286-.876-.84.001c-.25 0-.245-.116-.248-.3-.003-.2-.003-.575-.003-.575h.794c.73 0 .89-.606.946-.787L29.474 29H28.47z"/><path fill="#fefefe" d="M28.824 25c-1.502 0-1.795.67-1.795.67L27.235 25h-1.21l-1.979 6.083c-.021.07-.048.18-.046.299C24.006 31.664 24.174 32 24.964 32l.718-.001L26.002 31c0 0-.36 0-.485 0-.157 0-.125-.13-.125-.13l.709-2.152h1.778c1.47 0 1.743-.9 1.875-1.31L30.538 25C30.538 25 29.369 25 28.824 25zM28.298 28h-2.001l.206-.604h2.005L28.298 28zM28.822 26.518c0 0-1.012-.01-1.175.02-.717.124-1.018.508-1.018.508L26.967 26h2.023L28.822 26.518zM37.507 19.234c0 0-.01.04-.028.111C37.325 19.179 37.07 19 36.668 19c-.5 0-.937.179-1.45.617-.451.39-.677.926-.811 1.439-.052.19-.083.491-.083.694 0 1.25 1.082 1.25 1.345 1.25.395 0 .71-.151.965-.347C36.602 22.776 36.543 23 36.543 23h1.451L39 19 37.507 19.234zM36.098 22.116c-.063 0-.438 0-.429-.411.004-.203.052-.43.125-.691.17-.608.399-1.139 1-1.139.47 0 .461.377.26 1.133-.058.217-.221.609-.348.8C36.521 22.086 36.31 22.116 36.098 22.116zM23.768 19.493C23.471 19.12 22.93 19.001 22.366 19c-.339 0-1.149.031-1.796.579-.465.396-.69.934-.831 1.449-.142.525-.316 1.471.596 1.824C20.616 22.968 21.025 23 21.29 23c.675.001 1.372-.174 1.908-.695.413-.422.614-1.051.685-1.31C24.114 20.138 23.964 19.737 23.768 19.493zM21.429 22.115c-.063 0-.438 0-.429-.411.004-.203.06-.471.125-.691.169-.572.4-1.139 1-1.139.47 0 .461.377.26 1.133-.058.217-.221.609-.348.8C21.852 22.086 21.641 22.116 21.429 22.115zM20.847 27.115L20.556 28h.846l-.248.769h-.848L20 29.706h.845l-.536 1.639c-.072.217-.075.654.738.654h1.627L23 31c0 0-.931 0-1.181 0s-.183-.177-.183-.177l.368-1.132h1.746l.302-.921h-1.747L22.56 28h1.713l.297-.885H20.847zM39.7 27.916L40 27h-4.037l-.294.916h1.211l-.247.743h-1.232l-.263.812h1.082l-.963 1.265C35.18 30.847 35.017 31 34.749 31h-.486l.095-.289H33.94L35.479 26h.547l.172-.518c0 0 0 .381 0 .517 0 .434.125.626.821.626h.478L37.8 25.69h-.223c-.147.003-.217-.044-.205-.138V25c0 0-.799 0-1.25 0-1.175 0-1.903.055-2.193.132-.351.09-.807.357-.807.357L33.279 25H31.98l-1.862 5.722h-.28L29.52 31.69h2.874L32.293 32h1.229l.1-.31h.402L33.919 32h1.02c.259 0 .468-.058.642-.155.182-.101.325-.244.447-.407l.756-1.006.115 1.055C36.928 31.679 37.002 32 37.791 32h.568l.329-1h-.371c-.265 0-.322-.195-.337-.297l-.132-1.024h-.615l.25-.208h1.703l.268-.812h-1.585l.251-.743C38.12 27.916 39.7 27.916 39.7 27.916zM32.964 26h1.303l-.278.853c0 0-.462.028-.693.08-.393.09-.72.248-.72.248L32.964 26zM32.729 30.722h-1.306l.347-1.064h1.303L32.729 30.722zM33.408 28.622c0 0-.346.043-.574.095C32.435 28.832 31.979 29 31.979 29l.4-1.218h1.308L33.408 28.622z"/></svg>