<svg xmlns="http://www.w3.org/2000/svg"  viewBox="0 0 48 48" width="1600px" height="1600px" clip-rule="evenodd" baseProfile="basic"><path fill="#ffca28" d="M28.487,30.206c0.327-0.66,0.513-1.403,0.513-2.205	l-0.001-18.5c-0.001-3.036,10.999-3.037,10.999-0.001l0.003,18.5c0,2.533-0.593,4.943-1.653,7.085	C37.001,37.806,27.142,32.927,28.487,30.206z"/><path fill="#6bd76c" fill-rule="evenodd" d="M8.009,27.999	c0-3.035,11-3.035,11,0c0,2.756,2.24,4.996,4.996,4.996c1.952,0,3.659-1.124,4.483-2.789c1.347-2.721,11.205,2.157,9.86,4.879	c-2.605,5.265-8.045,8.911-14.343,8.911C15.173,43.995,8.009,36.831,8.009,27.999z" clip-rule="evenodd"/><path fill="#7e57c2" d="M8.009,28.002l-0.007-18.5	c-0.001-3.036,2.461-5.501,5.497-5.501c3.036-0.001,5.501,2.461,5.501,5.497l0.007,18.5C19.009,31.034,8.009,31.038,8.009,28.002z"/><path fill="#2196f3" d="M13.502,22.001c3.036,0,5.501,2.464,5.501,5.5	c0,3.036-2.465,5.5-5.501,5.5s-5.501-2.464-5.501-5.5C8.001,24.465,10.466,22.001,13.502,22.001z"/><path fill="#ff6f00" d="M34.499,3.999c3.036,0,5.501,2.464,5.501,5.5	c0,3.036-2.465,5.5-5.501,5.5c-3.036,0-5.501-2.464-5.501-5.5C28.998,6.463,31.463,3.999,34.499,3.999z"/><path fill="#4caf50" fill-rule="evenodd" d="M33.501,27.001	c3.036,0,5.501,2.464,5.501,5.5c0,3.036-2.465,5.5-5.501,5.5c-3.036,0-5.501-2.464-5.501-5.5	C27.999,29.465,30.465,27.001,33.501,27.001z" clip-rule="evenodd"/></svg>