<svg xmlns="http://www.w3.org/2000/svg"  viewBox="0 0 48 48" width="1600px" height="1600px"><rect width="6.428" height="6.428" x="18.161" y="11.605" fill="#0277bd" transform="rotate(-41.299 21.376 14.82)"/><rect width="6.428" height="6.428" x="21.656" y="19.887" fill="#0277bd" transform="rotate(-41.299 24.87 23.101)"/><rect width="6.428" height="6.428" x="24.959" y="28.073" fill="#0277bd" transform="rotate(-41.299 28.174 31.287)"/><rect width="4.993" height="4.993" x="35.942" y="32.039" fill="#0277bd" transform="rotate(-41.299 38.44 34.536)"/><rect width="4.861" height="4.861" x="32.89" y="24.779" fill="#0277bd" transform="rotate(-41.299 35.321 27.209)"/><rect width="4.861" height="4.861" x="29.826" y="17.215" fill="#0277bd" transform="rotate(-41.299 32.258 19.645)"/><rect width="4.861" height="4.861" x="26.571" y="10.13" fill="#0277bd" transform="rotate(-41.299 29.002 12.56)"/><rect width="3.165" height="3.165" x="34.187" y="9.206" fill="#0277bd" transform="rotate(-41.299 35.77 10.788)"/><rect width="3.165" height="3.165" x="37.203" y="16.291" fill="#0277bd" transform="rotate(-41.299 38.787 17.873)"/><rect width="3.165" height="3.165" x="40.171" y="23.376" fill="#0277bd" transform="rotate(-41.299 41.755 24.958)"/><rect width="6.428" height="6.428" x="18.161" y="11.605" fill="#0277bd" transform="rotate(-41.299 21.376 14.82)"/><rect width="6.428" height="6.428" x="21.656" y="19.887" fill="#0277bd" transform="rotate(-41.299 24.871 23.101)"/><rect width="6.428" height="6.428" x="24.959" y="28.073" fill="#0277bd" transform="rotate(-41.299 28.174 31.288)"/><rect width="4.993" height="4.993" x="35.942" y="32.039" fill="#0277bd" transform="rotate(-41.299 38.44 34.536)"/><rect width="4.861" height="4.861" x="32.89" y="24.779" fill="#0277bd" transform="rotate(-41.299 35.321 27.209)"/><rect width="4.861" height="4.861" x="29.826" y="17.215" fill="#0277bd" transform="rotate(-41.299 32.257 19.645)"/><rect width="4.861" height="4.861" x="26.571" y="10.13" fill="#0277bd" transform="rotate(-41.299 29.003 12.56)"/><rect width="3.165" height="3.165" x="34.187" y="9.206" fill="#0277bd" transform="rotate(-41.299 35.77 10.788)"/><rect width="3.165" height="3.165" x="37.203" y="16.291" fill="#0277bd" transform="rotate(-41.299 38.787 17.873)"/><rect width="3.165" height="3.165" x="40.171" y="23.376" fill="#0277bd" transform="rotate(-41.299 41.754 24.958)"/><path fill="#0277bd" d="M32.373,35.204l-4.722,4.148l-7.542-8.586l2.194-1.928l-5.498-6.258l2.134-1.875l-5.628-6.408	l8.585-7.543l2.719,3.095l4.836-4.247l2.628,2.992l2.061-1.811C31.166,5.026,27.707,4,24,4C12.954,4,4,12.954,4,24s8.954,20,20,20	c4.662,0,8.94-1.608,12.341-4.282L32.373,35.204z"/></svg>