<svg xmlns="http://www.w3.org/2000/svg"  viewBox="0 0 48 48" width="1600px" height="1600px"><path fill="#a64a7b" d="M43,11H5c-2.209,0-4,1.791-4,4v16c0,2.209,1.791,4,4,4h19l8,4l-2-4h13c2.209,0,4-1.791,4-4V15 C47,12.791,45.209,11,43,11z"/><path fill="#fff" d="M40.443 19c.041 0 .132.005.277.038.342.077.559.198.82.686C41.85 20.283 42 21.007 42 21.939c0 1.398-.317 2.639-.973 3.802C40.321 27 39.805 27 39.557 27c-.041 0-.132-.005-.277-.038-.342-.077-.559-.198-.809-.666C38.158 25.722 38 24.963 38 24.043c0-1.399.314-2.63.963-3.765C39.691 19 40.218 19 40.443 19M40.443 16c-1.67 0-3.026.931-4.087 2.793C35.452 20.375 35 22.125 35 24.043c0 1.434.278 2.662.835 3.686.626 1.173 1.548 1.88 2.783 2.16C38.948 29.963 39.261 30 39.557 30c1.687 0 3.043-.931 4.087-2.793C44.548 25.606 45 23.856 45 21.939c0-1.452-.278-2.662-.835-3.668-.626-1.173-1.548-1.88-2.783-2.16C41.052 16.037 40.739 16 40.443 16L40.443 16zM28.443 19c.041 0 .132.005.268.036.333.076.571.207.829.689C29.85 20.283 30 21.007 30 21.939c0 1.398-.317 2.639-.973 3.802C28.321 27 27.805 27 27.557 27c-.041 0-.132-.005-.277-.038-.342-.077-.559-.198-.809-.666C26.158 25.722 26 24.963 26 24.043c0-1.399.314-2.63.963-3.765C27.691 19 28.218 19 28.443 19M28.443 16c-1.67 0-3.026.931-4.087 2.793C23.452 20.375 23 22.125 23 24.043c0 1.434.278 2.662.835 3.686.626 1.173 1.548 1.88 2.783 2.16C26.948 29.963 27.261 30 27.557 30c1.687 0 3.043-.931 4.087-2.793C32.548 25.606 33 23.856 33 21.939c0-1.452-.278-2.662-.835-3.668-.626-1.173-1.565-1.88-2.783-2.16C29.052 16.037 28.739 16 28.443 16L28.443 16zM18.5 32c-.421 0-.832-.178-1.123-.505-2.196-2.479-3.545-5.735-4.34-8.343-1.144 2.42-2.688 5.515-4.251 8.119-.309.515-.894.792-1.491.715-.596-.083-1.085-.513-1.242-1.093-2.212-8.127-3.007-13.95-3.039-14.194-.11-.82.466-1.575 1.286-1.686.831-.108 1.576.465 1.687 1.286.007.049.571 4.177 2.033 10.199 2.218-4.208 4.078-8.535 4.102-8.59.267-.62.919-.989 1.58-.895.668.09 1.194.615 1.285 1.283.007.052.542 3.825 2.245 7.451.719-7.166 2.873-10.839 2.982-11.021.427-.711 1.35-.941 2.058-.515.711.426.941 1.348.515 2.058C22.762 16.313 20 21.115 20 30.5c0 .623-.386 1.182-.968 1.402C18.858 31.968 18.679 32 18.5 32z"/></svg>