<svg xmlns="http://www.w3.org/2000/svg"  viewBox="0 0 48 48" width="1600px" height="1600px"><path fill="#ffbca7" d="M35,27h2.012C38.11,27,39,27.779,39,28.739l0,0c0,1.392-0.919,4.285-1.211,5.102 c-0.414,1.158-0.848,1.855-1.453,2.319S35,36.625,35,36.625V27z"/><path fill="#ffbca7" d="M11,27H8.988C7.89,27,7,27.779,7,28.739l0,0c0,1.312,0.919,4.285,1.211,5.102 c0.414,1.159,0.848,1.856,1.453,2.32S11,36.625,11,36.625V27z"/><path fill="#ffdbd0" d="M23,17c-12.732,0-14,9-14,9s0,3,0,6s1,7,3,10c0.543,0.815,6.542,6,11,6c4.917,0,10.457-5.185,11-6 c2-3,3-7,3-10s0-6,0-6S35.732,17,23,17z"/><rect width="8" height="2" x="19" y="41" fill="#ffbca7"/><path fill="#ffbca7" d="M36.25,37c-0.19,0.65-0.41,1.31-0.67,1.95L29,37H36.25z"/><path fill="#ffbca7" d="M34.62,40.97c-0.19,0.36-0.4,0.7-0.62,1.03c-0.09,0.13-0.3,0.37-0.62,0.68L30.02,40L34.62,40.97z"/><path fill="#ffbca7" d="M17.03,37l-6.61,1.96c-0.26-0.65-0.48-1.3-0.67-1.96H17.03z"/><path fill="#ffbca7" d="M16.01,40l-3.35,2.68C12.32,42.37,12.09,42.13,12,42c-0.22-0.33-0.43-0.67-0.62-1.02L16.01,40z"/><path fill="#ffbca7" d="M21,37h4c0,0-1,2-2,2S21,37,21,37z"/><g><path fill="#f5e9e8" d="M33,32c0,0-1-1-3-1c-3,0-4,3-4,3l1,1h2.912c1.227,0,2.791-0.529,3.088-2V32z"/><circle cx="30" cy="33" r="2" fill="#4fc3f7"/><circle cx="30" cy="33" r="1" fill="#212121"/><path fill="#212121" d="M26,34c0,0,1-2,7-2l0,0c0-1.105-1.25-2-2.5-2C26,30,26,34,26,34z"/><polygon fill="#fbc02d" points="35,28 35,28.25 26.5,32 25,32 30,28"/></g><g><path fill="#f5e9e8" d="M13,32c0,0,1-1,3-1c3,0,4,3,4,3l-1,1h-2.912c-1.227,0-2.791-0.529-3.088-2C13,33,13,32,13,32z"/><circle cx="16" cy="33" r="2" fill="#4fc3f7"/><circle cx="16" cy="33" r="1" fill="#212121"/><path fill="#212121" d="M20,34c0,0-1-2-7-2l0,0c0-1.105,1.25-2,2.5-2C20,30,20,34,20,34z"/><polygon fill="#fbc02d" points="11,28 11,28.25 19.5,32 21,32 16,28"/></g><g><path fill="#424242" d="M36.269,19.911C35.43,18.943,33.92,17.484,32,16.844c-2.311-0.77-7-1-9-1s-6.689,0.23-9,1 c-1.92,0.64-3.431,2.099-4.269,3.067C9.258,20.457,9,21.152,9,21.875v4.457c0,0.976,0.7,1.807,1.662,1.971 C12.388,28.597,14.096,29,16,29c2,0,7,0,7,0s4,0,6,0c1.904,0,4.612-0.403,6.338-0.697C36.3,28.139,37,27.307,37,26.332v-4.457 C37,21.152,36.742,20.457,36.269,19.911z"/><path fill="#b2b2bc" d="M23,18c-1.398,0-3.938,0.105-6.116,0.333C16.379,18.386,16,18.819,16,19.327V27h14v-7.673 c0-0.508-0.379-0.941-0.884-0.994C26.938,18.105,24.398,18,23,18z"/><path fill="#6c6c76" d="M27.229,20.021c-0.195-0.195-0.512-0.195-0.707,0l-0.806,0.806C25.245,20.487,24.374,20,23.25,20 c-1.775,0-3.164,1.305-3.236,2.992l-0.974,2.314c-0.065,0.154-0.048,0.331,0.044,0.47C19.176,25.916,19.333,26,19.5,26h3.375 C23.697,26,25,25.423,25,23.875C25,22.789,24.369,22,23.5,22c-1.035,0-1.431,0.853-1.495,1.304 c-0.039,0.273,0.151,0.527,0.424,0.566c0.279,0.041,0.527-0.151,0.566-0.424C23.001,23.4,23.071,23,23.5,23 c0.328,0,0.5,0.44,0.5,0.875C24,24.969,22.886,25,22.875,25C21.718,25,21,24.282,21,23.125C21,22.081,21.842,21,23.25,21 c1.263,0,2.139,0.847,2.146,0.854c0.195,0.195,0.512,0.195,0.707,0l1.125-1.125C27.424,20.533,27.424,20.217,27.229,20.021z"/></g><g><path fill="#ffee58" d="M41,14c2-2,3-5,3-8c-1.25,0.625-2,1-4.678,1c-0.685,0-1.798,0.104-2.807,0.373 C37.995,5.268,38,2,38,2s-2,1-5,1s-4,1-4,1s-1-2-5-2s-5,2-5,2s-1-1-4-1s-5-1-5-1s0.005,3.268,1.485,5.373 C10.476,7.104,9.363,7,8.678,7C6,7,5.25,6.625,4,6c0,3,1,6,3,8c-3,0-4.542,3-7,3c3,6,9,6,9,6s3-10,15-10s15,10,15,10s6,0,9-6 C45.542,17,44,14,41,14z"/><path fill="#ffee58" d="M39,24c0-5-4-14-15-14S7.988,17.125,7.988,24C7.988,34,13,39,13,39s2-16,11-23c4,6,6,17,6,17 s2-3,2-9c0-0.816-0.043-1.587-0.109-2.303C33.802,24.126,36.111,27.759,37,32C37,32,39,29,39,24z"/><path fill="#fff59d" d="M23,10c0-6.75-3-10-3-10l-3,2c0,0,4.125,2.125,5,7L23,10z"/><path fill="#fbc02d" d="M14,8.875C14,6.5,12.875,6.25,11.5,4.5C10.386,3.082,10,2,10,2s0,3.302,1.5,5.406 C13,7.875,14,8.875,14,8.875z"/><path fill="#fbc02d" d="M17,2c0,0,5,1.5,6,8l-2-1C21,5.5,17,2,17,2z"/><path fill="#fbc02d" d="M25.725,15c0,0-0.725,0.25-1.725,1c0,0,0.284,0.437,0.423,0.664C28.141,22.775,30,33,30,33 s0-0.736,0-2C30,28.017,29.477,21.469,25.725,15z"/><path fill="#fbc02d" d="M31,17.653c0,0,0.6,1.935,0.887,4.035C33.798,24.115,36.11,27.755,37,32C37,32,36,22,31,17.653z"/><path fill="#fbc02d" d="M17.5,11.01c-6.04,2.05-9.08,6.93-9.46,11.9c-0.51-0.08-1.19-0.22-1.96-0.49 C7.08,13.12,16.85,11.13,17.5,11.01z"/><path fill="#fbc02d" d="M40.94,22.71C39.79,23,39,23,39,23h-0.05c-0.38-4-3.03-9.71-9.12-11.99 C30.46,11.13,40.14,13.16,40.94,22.71z"/><path fill="#fbc02d" d="M11,14.217C6,13,4,6,4,6c0,3,1,6,3,8c0,0,1.565,1.506,3,2L11,14.217z"/><path fill="#fbc02d" d="M34,8.875C34,6.5,35.125,6.25,36.5,4.5C37.614,3.082,38,2,38,2s0,3.302-1.5,5.406 C35,7.875,34,8.875,34,8.875z"/><path fill="#fbc02d" d="M39.662,20.935C44,21,48,17,48,17c-2.261,4.522-6.224,5.635-8.04,5.909 C39.909,22.247,39.808,21.587,39.662,20.935z"/><path fill="#fbc02d" d="M37,14.217C42,13,44,6,44,6c0,3-1,6-3,8c0,0-1.565,1.506-3,2c0,0-2.375-1.625-2-1.625 S37,14.217,37,14.217z"/><path fill="#fbc02d" d="M29,4c0,0-1.12,0.75-2,3c0-1.99,0.15-3.39,0.33-4.37c1.15,0.53,1.58,1.22,1.66,1.35L29,4z"/><path fill="#fbc02d" d="M8.338,20.935C4,21,0,17,0,17c2.261,4.522,6.224,5.635,8.04,5.909 C8.091,22.247,8.192,21.587,8.338,20.935z"/></g></svg>