<svg xmlns="http://www.w3.org/2000/svg"  viewBox="0 0 48 48" width="1600px" height="1600px"><path fill="#dbb888" d="M35,7H13v41c0,0,2-4,6-4h10c4,0,6,4,6,4V7z"/><path fill="#ffdbd0" d="M24,15c-4.125-2.25-12-3.5-12,9s0,5,0,8s0.132,6,1.846,9c0.466,0.815,6.332,7,10.154,7	s9.688-6.185,10.154-7C35.868,38,36,35,36,32s0,0,0-8S32.375,10,24,15z"/><path fill="#f5e9e8" d="M34,28c0,0-3,0-4,0c-2,0-3,2-3,2l1,1h6V28z"/><circle cx="30.5" cy="29.5" r="1.5" fill="#995f1a"/><path fill="#212121" d="M27,30c0,0,0.875-1,6.125-1H34v-2c0,0-1.5,0-2,0C28,27,27,30,27,30z"/><polygon fill="#b59770" points="33,24 28,26 27,24"/><g><path fill="#f5e9e8" d="M14,28c0,0,2,0,4,0s3,2,3,2l-1,1h-6V28z"/><circle cx="17.5" cy="29.5" r="1.5" fill="#995f1a"/><path fill="#212121" d="M21,30c0,0-0.875-1-6.125-1H14v-2c0,0,1.5,0,2,0C20,27,21,30,21,30z"/><polygon fill="#b59770" points="15,24 20,26 21,24"/></g><g><path fill="#ef9a9a" d="M24,43c-3,0-4-1.5-4-1.5s2.5-0.5,3-0.5s0.625,0.25,1,0.25S24.5,41,25,41s3,0.5,3,0.5S27,43,24,43z"/><path fill="#ffbca7" d="M22,37h4c0,0-1,2-2,2S22,37,22,37z"/><polygon fill="#7986cb" points="24,17 23,19 24,21 25,19"/></g><g><path fill="#ffe5be" d="M42,22c0-5-1-9-3.5-13c-3.166-5.066-7.249-6.001-8.375-6.001C30.125,2.999,28,2,24,2 s-6.125,0.999-6.125,0.999C16.749,2.999,12.666,3.934,9.5,9C7,13,6,17,6,22c0,10,2,11.358,2,19c0,4-1,7-1,7c3-4,4-6,4-6 s1.125,0.375,2,6c0,0,0.999-2,0.999-11.875C13.999,35.96,14,33.168,14,33c0.5,0.625,1,1,1,1s-1-5-1-13c0-7.039,4.625-13,6-13 c1,0,3,3,4,7c1-4,3-7,4-7c1.375,0,6,5.961,6,13c0,8-1,13-1,13s0.5-0.375,1-1c0,0.168,0.001,2.96,0.001,3.125C34.001,46,35,48,35,48 c0.875-5.625,2-6,2-6s1,2,4,6c0,0-1-3-1-7C40,33.358,42,32,42,22z"/><path fill="#dbb888" d="M9,28c1,6,4,12,4,20c-1-3-2-4-2-4s-2.031,2.125-4,4c0,0,3-4,3-9C10,33,9,32,9,28z"/><path fill="#dbb888" d="M14,33c0,0-3.375-5-4-12c0,10.125,4,15.125,4,15.125V33z"/><path fill="#dbb888" d="M17.875,2.999C18.629,3.094,20.5,3.375,22,5c-0.266-1.329-0.741-2.224-1.13-2.78 C18.916,2.519,17.875,2.999,17.875,2.999z"/><path fill="#dbb888" d="M39,28c-1,6-4,12-4,20c1-3,2-4,2-4s2.031,2.125,4,4c0,0-3-4-3-9C38,33,39,32,39,28z"/><path fill="#dbb888" d="M34,33c0,0,3.375-5,4-12c0,10.125-4,15.125-4,15.125V33z"/><path fill="#dbb888" d="M30.125,2.999C29.371,3.094,27.5,3.375,26,5c0.266-1.329,0.741-2.224,1.13-2.78 C29.084,2.519,30.125,2.999,30.125,2.999z"/></g></svg>