<svg xmlns="http://www.w3.org/2000/svg"  viewBox="0 0 48 48" width="1600px" height="1600px"><path fill="#1e88e5" d="M24 4A20 20 0 1 0 24 44A20 20 0 1 0 24 4Z"/><path fill="#1565c0" d="M27.723,23.039c0-1.563,3.319-2.012,3.319-5.684c0-2.203-0.196-3.531-1.871-4.313c0-0.546,2.957-0.187,2.957-1.209c-0.513,0-6.476,0-6.476,0S19.095,12,19.095,17.748c0,5.752,5.732,5.088,5.732,5.088s0,0.865,0,1.453c0,0.594,0.77,0.391,0.864,1.583c-0.388,0-7.964-0.208-7.964,4.998s6.679,4.959,6.679,4.959s7.722,0.365,7.722-6.104C32.128,25.854,27.723,24.604,27.723,23.039z M22.127,18.086c-0.604-2.312,0.195-4.543,1.786-4.992c1.593-0.453,3.374,1.059,3.981,3.367c0.605,2.309-0.192,4.543-1.785,4.992C24.517,21.904,22.734,20.391,22.127,18.086z M25.444,34.167c-2.671,0.188-4.946-1.295-5.077-3.316c-0.133-2.016,1.927-3.805,4.6-3.996c2.674-0.188,4.947,1.297,5.08,3.314C30.178,32.193,28.118,33.98,25.444,34.167z"/><path fill="#e8eaf6" d="M25.995,23.039c0-1.563,3.318-2.012,3.318-5.684c0-2.203-0.195-3.531-1.87-4.313c0-0.546,2.956-0.187,2.956-1.209c-0.512,0-6.476,0-6.476,0S17.367,12,17.367,17.748c0,5.752,5.731,5.088,5.731,5.088s0,0.865,0,1.453c0,0.594,0.771,0.391,0.865,1.583c-0.388,0-7.964-0.208-7.964,4.998s6.679,4.959,6.679,4.959s7.721,0.365,7.721-6.104C30.399,25.854,25.995,24.604,25.995,23.039z M20.399,18.086c-0.604-2.312,0.194-4.543,1.785-4.992c1.593-0.453,3.374,1.059,3.982,3.367c0.604,2.309-0.193,4.543-1.786,4.992C22.789,21.904,21.007,20.391,20.399,18.086z M23.717,34.167c-2.671,0.188-4.946-1.295-5.077-3.316c-0.133-2.016,1.927-3.805,4.599-3.996c2.675-0.188,4.948,1.297,5.08,3.314C28.45,32.193,26.391,33.98,23.717,34.167z"/></svg>