<svg xmlns="http://www.w3.org/2000/svg"  viewBox="0 0 48 48" width="1600px" height="1600px"><path fill="#EF5350" d="M16.924 21.593l-.386-7.861 7.507 2.794v7.263L16.924 21.593zM28.352 29.57L28.352 36.82 35.525 38.895 35.525 31.87z"/><path fill="#EF9A9A" d="M24.045 35.975l-4.409-6.404 4.409-5.782 4.307 5.782L24.045 35.975zM19.636 10.712L23.994 5 28.352 10.966 24.045 16.525zM31.256 21.593L35.658 15.833 42.6 17.991 38.418 23.788z"/><path fill="#D32F2F" d="M24.045 23.788l7.211-2.195 4.936 5.993-7.84 1.984L24.045 23.788zM16.924 21.593L12.387 15.663 5.179 18.032 9.494 23.788zM24.045 16.525L31.449 13.632 35.525 8.343 28.352 10.966z"/><g><path fill="#B71C1C" d="M24.045 23.788v-7.263l7.404-2.894-.193 7.961L24.045 23.788zM19.636 29.57L19.636 36.863 12.387 38.895 12.387 31.912zM9.494 23.788L16.924 21.593 11.774 27.211 5 29.57z"/></g><g><path fill="#660E0E" d="M16.924 21.593L12.387 15.663 12.208 8.343 16.538 13.731zM19.636 29.57L19.636 36.863 24.045 43 24.045 35.975zM28.352 29.57L36.191 27.586 43 29.57 35.525 31.87z"/></g><g><path fill="#F44336" d="M31.256 21.593L35.658 15.833 35.525 8.343 31.449 13.632zM16.538 13.731L24.045 16.525 19.636 10.712 12.208 8.343zM28.352 29.57L28.352 36.82 24.045 43 24.045 35.975zM31.256 21.593L36.191 27.586 43 29.57 38.418 23.788z"/></g><path fill="#8C1313" d="M12.387 31.912L19.636 29.57 11.774 27.211 5 29.57z"/><path fill="#FFCDD2" d="M24.045,23.788l-4.409,5.782l-7.861-2.359l5.15-5.618L24.045,23.788z"/></svg>