<svg xmlns="http://www.w3.org/2000/svg"  viewBox="0 0 48 48" width="1600px" height="1600px"><path fill="#004d40" d="M19.532 17.313L41 24 19.532 9.756z"/><path fill="#26a69a" d="M30.316 4L11.618 4 7 12 21 12z"/><path fill="#00897b" d="M41 24L30.316 4 21 12z"/><path fill="#004d40" d="M19.825 38.066L41 24 19.825 29.628z"/><path fill="#00897b" d="M21 31.097L41 24 20.998 16.924 17.26 24z"/><path fill="#26a69a" d="M21 16.924L17.094 15.56 8.056 24 17.094 32.461 21 31.096zM21 36.021L7 36.021 11.618 44 30.316 44 21.014 36.012z"/><path fill="#00796b" d="M7 12L18.184 15.94 21 12z"/><path fill="#00897b" d="M21.014 36.012L30.316 44 41 24z"/><path fill="#00796b" d="M21 36L18.269 32.051 7 36.021 21 36.021z"/><path fill="#00695c" d="M21 31.096L17.094 32.461 21 36zM21 12L17.094 15.56 21 16.924z"/></svg>