<svg xmlns="http://www.w3.org/2000/svg"  viewBox="0 0 48 48" width="1600px" height="1600px"><path fill="#82b1ff" d="M28.27,14.27C19.48,18.96,15.98,41,15.98,41H9c-0.51,0-0.97-0.19-1.32-0.5c0,0,0,0,0-0.01 c0.12-0.41,3.79-12.75,9.95-22.82c1.33-2.16,4.58-7.09,7.26-7.09C26.09,10.58,27.22,11.99,28.27,14.27z"/><path fill="#e3f2fd" d="M41,9v30c0,1.1-0.9,2-2,2h-5.01c-0.76-7.86-2.88-20.51-5.72-26.73c-1.05-2.28-2.18-3.69-3.38-3.69 c-2.68,0-5.93,4.93-7.26,7.09C11.47,27.74,7.8,40.08,7.68,40.49C7.26,40.13,7,39.59,7,39v-6c3.02-6.62,10.41-19.75,17.27-26H39 C40.1,7,41,7.9,41,9z"/><path fill="#1e88e5" d="M24.27,7C17.41,13.25,10.02,27.38,7,34V9c0-1.1,0.9-2,2-2H24.27z"/><path fill="#1e88e5" d="M33.99,41H15.98c0,0,3.5-22.04,12.29-26.73C31.11,20.49,33.23,33.14,33.99,41z"/><path fill="#e3f2fd" d="M39,42H9c-1.654,0-3-1.346-3-3V9c0-1.654,1.346-3,3-3h30c1.654,0,3,1.346,3,3v30 C42,40.654,40.654,42,39,42z M9,8C8.448,8,8,8.449,8,9v30c0,0.551,0.448,1,1,1h30c0.552,0,1-0.449,1-1V9c0-0.551-0.448-1-1-1H9z"/></svg>