<svg xmlns="http://www.w3.org/2000/svg"  viewBox="0 0 48 48" width="1600px" height="1600px" baseProfile="basic"><path fill="#ef9a9a" d="M38,42H10c-2.209,0-4-1.791-4-4V10c0-2.209,1.791-4,4-4h28c2.209,0,4,1.791,4,4v28	C42,40.209,40.209,42,38,42z"/><path fill="#fff" d="M25,17.5c0-0.828-0.672-1.5-1.5-1.5S22,16.672,22,17.5s0.672,1.5,1.5,1.5S25,18.328,25,17.5z M20,20.5c0-0.828-0.672-1.5-1.5-1.5S17,19.672,17,20.5s0.672,1.5,1.5,1.5S20,21.328,20,20.5z M16,26.5c0,0.828,0.672,1.5,1.5,1.5	s1.5-0.672,1.5-1.5S18.328,25,17.5,25S16,25.672,16,26.5z M21,31c-1.091-0.899-3.369-1.378-4.431,1.726	c-0.346,1.01-2.229,1.866-2.229,1.866S15.54,36,18.54,36S22.776,32.464,21,31z M34.548,29.727C35.499,27.976,36,26.005,36,24	c0-3.01-1.122-5.757-2.959-7.866C33.863,14.47,34.276,13.276,34,13c-0.267-0.267-1.244,0.391-2.572,1.593	C29.383,12.975,26.805,12,24,12c-6.617,0-12,5.383-12,12c0,2.334,0.672,4.598,1.941,6.546c0.303,0.462,0.923,0.592,1.384,0.292	c0.463-0.302,0.594-0.921,0.292-1.384C14.56,27.831,14,25.945,14,24c0-5.514,4.486-10,10-10c2.237,0,4.298,0.748,5.966,1.994	c-3.391,3.4-7.91,8.857-9.601,12.206c-0.227,0.45-0.074,0.995,0.346,1.274l1.586,1.057c0.414,0.276,0.963,0.211,1.297-0.158	c2.518-2.781,6.166-8.242,8.43-12.315C33.26,19.722,34,21.774,34,24c0,1.793-0.48,3.553-1.389,5.087	c-0.14,0.236-0.177,0.519-0.102,0.782l1.031,3.646l-3.545-1.067c-0.271-0.084-0.565-0.044-0.808,0.103	C27.629,33.499,25.835,34,24,34c-0.553,0-1,0.447-1,1s0.447,1,1,1c2.05,0,4.057-0.521,5.835-1.512l4.877,1.469	C34.807,35.986,34.903,36,35,36c0.259,0,0.512-0.101,0.701-0.287c0.261-0.256,0.36-0.634,0.261-0.985L34.548,29.727z"/></svg>