<svg xmlns="http://www.w3.org/2000/svg"  viewBox="0 0 48 48" width="1600px" height="1600px" clip-rule="evenodd"><path fill="#f34336" d="M37.111,42H9.889C7.75,42,6,40.2,6,38V10c0-2.2,1.75-4,3.889-4h27.222C39.25,6,41,7.8,41,10v28	C41,40.2,39.25,42,37.111,42z"/><path fill="#d6cbc7" fill-rule="evenodd" d="M18.742,26.011c0,0-3.444-0.006-5.738-0.01	c-0.531-0.001-1.041,0.209-1.417,0.585C11.211,26.96,11,27.47,11,28.001c0,2.662,0,7.339,0,9.999c0,0.53,0.211,1.039,0.586,1.414	S12.47,40,13,40c4.683,0,16.317,0,21,0c0.53,0,1.039-0.211,1.414-0.586S36,38.53,36,38c0-2.66,0-7.336,0-9.999	c0-0.531-0.211-1.04-0.587-1.416c-0.376-0.375-0.886-0.585-1.417-0.584c-2.001,0.004-4.782,0.01-4.782,0.01" clip-rule="evenodd"/><path fill="#f4f4f4" fill-rule="evenodd" d="M19.798,21.86C20.021,21.338,20.533,21,21.1,21	c1.288,0,3.601,0,4.899,0c0.577,0,1.097,0.35,1.313,0.885C28.951,25.893,31,30.733,31,33.423C31,37.07,27.581,40,23.695,40	S16,37.07,16,33.423C16,30.03,18.152,25.639,19.798,21.86z" clip-rule="evenodd"/><rect width="4.978" height="2.357" x="21" y="18.846" fill="#f4f4f4" fill-rule="evenodd" clip-rule="evenodd"/><path fill="#f4f4f4" fill-rule="evenodd" d="M27,16.555c0-0.567-0.46-1.027-1.027-1.027	c-1.326,0-3.621,0-4.947,0c-0.567,0-1.027,0.46-1.027,1.027c0,0.448,0,0.971,0,1.419C20,18.54,20.46,19,21.027,19	c1.326,0,3.621,0,4.947,0C26.54,19,27,18.54,27,17.973C27,17.526,27,17.002,27,16.555z" clip-rule="evenodd"/><path fill="#f34336" fill-rule="evenodd" d="M25.82,25.985c1.163-0.008,2.632,0.024,4.003,0.027	c0.162,0-0.554-1.286-0.554-1.286s-3.214-0.885-5.039-1.388c-0.246-0.068-0.51,0-0.692,0.179c-0.182,0.178-0.257,0.44-0.194,0.688	c0.405,1.356,1.075,3.518,1.568,5.097C24.479,29.111,24.003,29,23.5,29c-1.932,0-3.5,1.568-3.5,3.5s1.568,3.5,3.5,3.5	s3.5-1.568,3.5-3.5c0-0.188-0.027-0.37-0.055-0.55C27,32,25.826,28.155,25.299,26.765c-0.068-0.174-0.047-0.371,0.057-0.526	C25.46,26.083,25.633,25.989,25.82,25.985z" clip-rule="evenodd"/><path fill="#f9f9f9" fill-rule="evenodd" d="M25.533,8.491h0.504V8h-0.504h-0.255h-0.208v1.088 c-0.073-0.026-0.149-0.047-0.23-0.047c-0.315,0-0.571,0.215-0.656,0.503h-0.289v0.383h0.289c0.085,0.288,0.34,0.503,0.656,0.503 c0.315,0,0.571-0.215,0.656-0.503h0.299V9.545h-0.261V8.491z" clip-rule="evenodd"/><path fill="#f9f9f9" fill-rule="evenodd" d="M23.761,11.381h-0.073v1.179 c-0.073-0.026-0.149-0.047-0.23-0.047c-0.383,0-0.694,0.311-0.694,0.694c0,0.383,0.311,0.695,0.694,0.695s0.694-0.311,0.694-0.695 v-1.389h0.451v-0.438h-0.451H23.761z" clip-rule="evenodd"/><path fill="#f9f9f9" fill-rule="evenodd" d="M27.878,11.664h-0.253v-1.581h-0.464v1.091 c-0.075-0.029-0.155-0.049-0.24-0.049c-0.323,0-0.581,0.233-0.652,0.539h-0.29v0.383h0.305c0.094,0.27,0.34,0.466,0.637,0.466 c0.297,0,0.544-0.196,0.637-0.466h0.32V11.664z" clip-rule="evenodd"/></svg>