<svg xmlns="http://www.w3.org/2000/svg"  viewBox="0 0 48 48" width="1600px" height="1600px" baseProfile="basic"><path fill="#770829" d="M39.859,14.972C41.375,15,42.17,14.984,43,15c0.042,2.186,0.036,28.534,0.001,29.053 C32.238,44.071,20.829,43.99,10.066,44c-0.639-0.002-1.34-0.061-1.836-0.51c-0.372-0.349-0.66-0.83-0.649-1.355 c-0.003-1.15-0.001-2.3-0.002-3.45c0.822-0.55,1.659-1.075,2.482-1.623c0.367,0.04,0.737,0.038,1.105,0.032 c6.456-0.001,12.912-0.001,19.368-0.001c3.103-0.009,6.207,0.019,9.309-0.013c0.059-0.726,0.011-1.454,0.024-2.18 C39.862,28.258,39.879,21.615,39.859,14.972z"/><path fill="#e85984" d="M4,12.093C6.023,10.729,8.048,9.371,10.066,8c-0.004,9.687,0.007,19.375-0.005,29.062 c-0.793,0.548-1.599,1.073-2.391,1.623c-1.021,0.659-2.028,1.342-3.027,2.038c-0.197,0.143-0.409,0.26-0.631,0.356 C4.003,31.417,4.025,21.755,4,12.093z"/><path fill="#e51050" d="M10.066,8c9.301,0.001,18.603-0.002,27.904,0.001c0.971,0.013,1.906,0.774,1.985,1.761	c0.037,1.735-0.025,3.474,0.03,5.21c0.021,6.643,0.003,13.286,0.009,19.929c-0.014,0.727,0.034,1.455-0.025,2.18	c-3.115,0.031-6.232,0.004-9.348,0.013c-6.484,0-12.967,0-19.451,0.001c-0.37,0.006-0.742,0.008-1.11-0.032	C10.073,27.376,10.062,17.687,10.066,8 M22.843,14.043c-0.618,1.778-1.111,3.599-1.686,5.391c-1.073,3.497-2.146,6.994-3.22,10.491	c-0.099,0.279-0.183,0.564-0.231,0.857c1.016,0.016,2.033,0.023,3.049-0.003c0.39-1.345,0.786-2.688,1.162-4.037	c0.037-0.119,0.085-0.234,0.133-0.348c1.926,0.005,3.854-0.025,5.78,0.016c0.463,1.46,0.903,2.929,1.394,4.379	c1.038,0.006,2.078,0.013,3.116-0.006c-0.616-2.057-1.317-4.088-1.958-6.137c-1.155-3.529-2.268-7.072-3.43-10.599	C25.584,14.013,24.212,14.02,22.843,14.043z"/><path fill="#e51050" d="M24.795,16.217c0.198,0.472,0.276,0.983,0.435,1.468c0.585,2.083,1.204,4.157,1.765,6.248	c-1.438,0.02-2.878,0.021-4.317,0C23.342,21.351,24.117,18.797,24.795,16.217z"/><path fill="#f7f5fa" d="M22.789,14.043c1.363-0.023,2.729-0.03,4.092,0.004c1.157,3.569,2.266,7.155,3.416,10.728 c0.638,2.074,1.336,4.13,1.95,6.212c-1.034,0.019-2.069,0.012-3.103,0.006c-0.489-1.468-0.927-2.954-1.388-4.433 c-1.918-0.042-3.837-0.011-5.756-0.016c-0.047,0.116-0.095,0.232-0.132,0.352c-0.375,1.365-0.769,2.725-1.157,4.086 c-1.011,0.027-2.025,0.019-3.036,0.003c0.048-0.296,0.131-0.585,0.23-0.867c1.069-3.54,2.138-7.079,3.207-10.619 C21.683,17.685,22.174,15.843,22.789,14.043 M24.795,16.244c-0.678,2.611-1.454,5.196-2.117,7.81c1.439,0.021,2.879,0.02,4.317,0 c-0.561-2.116-1.18-4.216-1.765-6.324C25.071,17.239,24.993,16.722,24.795,16.244z"/></svg>