<svg xmlns="http://www.w3.org/2000/svg"  viewBox="0 0 48 48" width="1600px" height="1600px" baseProfile="basic"><path fill="#f44336" d="M38,42H10c-2.209,0-4-1.791-4-4V10c0-2.209,1.791-4,4-4h28c2.209,0,4,1.791,4,4v28	C42,40.209,40.209,42,38,42z"/><path fill="#ec407a" d="M10,25h28c2.209,0,4-1.791,4-4V10c0-2.209-1.791-4-4-4H10c-2.209,0-4,1.791-4,4v11	C6,23.209,7.791,25,10,25z"/><path fill="#fff" d="M32,22c3.309,0,6-2.691,6-6s-2.691-6-6-6s-6,2.691-6,6S28.691,22,32,22z M32,13c1.654,0,3,1.346,3,3	s-1.346,3-3,3s-3-1.346-3-3S30.346,13,32,13z M35.5,23c-0.828,0-1.5,0.672-1.5,1.5c0,5.292-3.939,9.67-9.037,10.386	C27.101,33.34,28.5,30.833,28.5,28c0-4.687-3.813-8.5-8.5-8.5c-2.833,0-5.34,1.399-6.886,3.537C13.83,17.939,18.208,14,23.5,14	c0.828,0,1.5-0.672,1.5-1.5S24.328,11,23.5,11C16.056,11,10,17.056,10,24.5S16.056,38,23.5,38S37,31.944,37,24.5	C37,23.672,36.328,23,35.5,23z M20,33.5c-3.032,0-5.5-2.468-5.5-5.5s2.468-5.5,5.5-5.5s5.5,2.468,5.5,5.5S23.032,33.5,20,33.5z"/></svg>