<svg xmlns="http://www.w3.org/2000/svg"  viewBox="0 0 48 48" width="1600px" height="1600px" baseProfile="basic"><path fill="#673ab7" d="M23.514,4c-5.975,0-11.592,2.64-15.413,7.234c-2.977,3.578-4.622,8.121-4.622,12.801 s1.646,9.223,4.622,12.801c3.821,4.594,9.438,7.234,15.413,7.234c11.048,0,20.035-8.987,20.035-20.035S34.562,4,23.514,4z M22.125,8.322c-0.737,3.728,0.694,8.293,2.712,11.585C24.837,19.907,18.505,15.048,22.125,8.322z M19.22,23.32 c0,0-4.873-0.315-5.324-4.966C14.791,20.501,17.074,22.332,19.22,23.32z M17.431,28.601c-2.147,0.887-2.683,1.159-3.664,3.306 C13.768,31.906,12.78,29.044,17.431,28.601z M30.848,37.631c0,0-0.021-0.021-0.072-0.05c0.329-0.494,0.758-1.288,1.324-2.54 c2.147-4.744-5.81-2.862-5.81-2.862c-2.955,0.98-1.345,1.159-0.63,1.696c1.546,0.68,2.626,1.825,3.292,2.741 c-1.51-0.601-3.778-1.066-6.24-0.057c-4.386,1.789-7.07-0.358-8.143-3.664c-1.073-3.313,2.776-3.671,5.095-4.029 c-2.411-0.179-5.367-1.968-6.254-7.692c2.054,2.147,3.306,2.776,7.599,2.948c-6.662-3.413-1.209-12.336-0.995-12.687 c-0.107,0.279-2.698,6.948,8.952,10.368C40.866,25.288,30.848,37.631,30.848,37.631z"/></svg>