<svg xmlns="http://www.w3.org/2000/svg"  viewBox="0 0 48 48" width="1600px" height="1600px"><circle cx="24" cy="24" r="20" fill="#23bec7"/><path fill="#fff" d="M24.466,24.337c0.585-0.514,1.06-0.998,1.686-1.262c0.367-0.154,0.773-0.372,1.122-0.034 s0.128,0.707,0.023,1.069c-0.211,0.727-0.424,1.457-0.617,2.188c-0.057,0.213-0.154,0.459,0.064,0.649 c0.218,0.19,0.491,0.064,0.707-0.046c0.798-0.408,1.447-0.892,1.346-1.966c-0.06-0.642,0-1.326,0.594-1.785 c0.229-0.181,0.507-0.392,0.798-0.19c0.291,0.202,0.083,0.459,0,0.688c-0.282,0.865-0.36,1.783-0.229,2.684 c0.03,0.202,0,0.493,0.186,0.567c0.255,0.096,0.369-0.229,0.532-0.362s0.273-0.321,0.415-0.477 c0.376-0.411,0.583-0.739,0.083-1.301c-0.58-0.649-0.406-1.92,0.165-2.523c0.322-0.387,0.854-0.525,1.324-0.344 c0.498,0.181,0.661,0.61,0.674,1.113c0.014,0.564-0.229,1.06-0.42,1.606c0.555,0.14,0.899-0.172,1.211-0.509 c0.752-0.817,1.624-1.335,2.78-1.213c0.837,0.087,1.317,0.539,1.273,1.197c-0.057,0.504-0.511,0.866-1.015,0.809 c-0.103-0.012-0.204-0.041-0.297-0.086c-0.261-0.14-0.229-0.268,0-0.401c0.182-0.079,0.275-0.284,0.213-0.473 c-0.074-0.223-0.277-0.379-0.512-0.392c-0.316-0.047-0.638,0.025-0.904,0.202c-0.84,0.537-1.31,2.028-0.918,2.936 c0.229,0.546,0.656,0.649,1.099,0.261c0.244-0.234,0.428-0.524,0.537-0.844c0.065-0.2,0.157-0.39,0.273-0.564 c0.209-0.278,0.498-0.523,0.86-0.374c0.362,0.149,0.177,0.525,0.117,0.78c-0.213,0.883-0.395,1.743,0.353,2.487 c0.079,0.072,0.084,0.194,0.012,0.272c-0.004,0.004-0.008,0.008-0.012,0.012c-0.093,0.091-0.234,0.111-0.349,0.05 c-0.524-0.184-0.953-0.568-1.193-1.069c-0.076-0.165-0.108-0.406-0.376-0.17c-0.479,0.491-1.245,0.554-1.798,0.149 c-0.651-0.417-0.885-1.044-0.826-1.794c0.011-0.147,0.03-0.289,0.048-0.459c-0.75,0.062-1.36,0.229-1.789,0.918 c-0.372,0.569-0.879,1.037-1.475,1.363c-0.782,0.459-1.087,0.317-1.298-0.544c-0.03-0.119-0.055-0.229-0.101-0.459 c-0.508,0.455-1.09,0.82-1.72,1.08c-1.186,0.422-1.874-0.122-1.7-1.376c0.108-0.644,0.285-1.275,0.53-1.881 c0.055-0.149,0.188-0.333,0-0.459c-0.138-0.087-0.282,0.06-0.39,0.151c-0.732,0.622-1.376,1.31-1.587,2.294 c-0.049,0.29-0.132,0.574-0.248,0.844c-0.143,0.372-0.522,0.599-0.918,0.551c-0.413-0.073-0.147-0.495-0.261-0.755 c-0.44,0.229-0.862,0.459-1.298,0.658c-0.314,0.145-0.725,0.259-0.954-0.011c-0.383-0.459-0.642-0.3-1.046-0.044 c-0.59,0.376-1.266,0.216-1.801-0.406c-0.271-0.314-0.411-0.294-0.672-0.014c-0.529,0.546-1.159,0.986-1.853,1.296 c-2.727,1.296-5.409-0.158-5.56-3.163c-0.179-3.393,1.264-6.092,4.099-7.976c0.742-0.515,1.675-0.671,2.544-0.424 c1.038,0.271,1.74,1.237,1.679,2.308c-0.069,1.022-0.792,1.883-1.787,2.126c-0.163,0.037-0.374,0.101-0.459-0.053 c-0.128-0.206,0.076-0.346,0.216-0.459c0.766-0.647,0.897-1.489,0.752-2.413c-0.138-0.862-0.752-1.211-1.571-0.897 c-0.588,0.244-1.106,0.629-1.509,1.122c-1.355,1.497-2.202,3.384-2.42,5.391c-0.11,0.866,0.044,1.746,0.443,2.523 c0.583,1.113,1.571,1.606,2.792,1.317c0.966-0.241,1.852-0.73,2.571-1.418c0.204-0.213,0.313-0.499,0.303-0.794 c0.167-1.743,1.675-3.051,3.358-2.922c0.406,0.013,0.793,0.176,1.085,0.459c0.284,0.266,0.37,0.683,0.213,1.039 c-0.163,0.395-0.525,0.523-0.936,0.502c-0.174,0.019-0.347-0.051-0.459-0.186c-0.151-0.229,0.138-0.245,0.229-0.36 c0.257-0.321,0.112-0.704-0.328-0.794c-0.444-0.1-0.907,0.048-1.211,0.385c-0.633,0.642-0.919,1.549-0.771,2.438 c0.046,0.339,0.19,0.672,0.564,0.773c0.374,0.101,0.617-0.179,0.846-0.44c0.17-0.217,0.292-0.467,0.36-0.734 c0.055-0.251,0.191-0.477,0.388-0.642c0.229-0.177,0.482-0.321,0.752-0.163c0.271,0.158,0.106,0.424,0.106,0.645 c0,0.404-0.436,0.874,0.103,1.184c0.289,0.165,1.454-0.713,1.546-1.126c0.145-0.658,0.261-1.324,0.392-1.984 c0.016-0.233,0.104-0.455,0.252-0.635c0.228-0.26,0.594-0.352,0.918-0.229c0.346,0.145,0.174,0.459,0.14,0.725 C24.537,23.906,24.509,24.067,24.466,24.337L24.466,24.337z M32.214,22.809c-0.06-0.161-0.156-0.317-0.353-0.296 c-0.197,0.021-0.255,0.202-0.271,0.372c-0.051,0.51,0.144,1.013,0.525,1.356C32.332,23.794,32.368,23.281,32.214,22.809z"/></svg>