<svg xmlns="http://www.w3.org/2000/svg"  viewBox="0 0 48 48" width="1600px" height="1600px"><path fill="#00933e" d="M18.376,15.078c-0.067-0.875-0.027-1.751,0-2.626c0.072-2.274,0.312-4.526,0.917-6.727 c0.146-0.53,0.293-1.061,0.558-1.548c0.055-0.011,0.111-0.025,0.167-0.032c0.644-0.08,1.285-0.173,1.933-0.225 c0.663-0.053,1.326-0.099,1.991-0.119c0.482-0.014,0.964-0.002,1.446-0.001c0.28,0.001,0.562-0.009,0.841,0.006 c0.606,0.032,1.212,0.077,1.818,0.116c0.342,0.668,0.557,1.382,0.744,2.104c0.471,1.815,0.692,3.667,0.798,5.536 c0.067,1.193,0.091,2.387,0.058,3.58c-0.048,1.739-0.16,3.541-0.352,5.27c-0.047-0.018-2.072-1.348-3.08-1.902 c-1.141-0.628-2.309-1.2-3.495-1.734c-1.014-0.457-2.044-0.878-3.086-1.265C19.219,15.357,18.815,15.164,18.376,15.078z"/><path fill="#2ac54b" d="M18.376,15.078c0.439,0.086,0.843,0.278,1.258,0.433c1.043,0.387,2.072,0.809,3.086,1.265 c1.186,0.534,2.354,1.107,3.495,1.734c1.007,0.554,1.994,1.141,2.948,1.782c0.04,0.027,0.106,0.073,0.135,0.087 c-0.021,0.185-0.037,0.338-0.058,0.523c-0.092,0.018-0.176,0.06-0.257,0.104c-1.218,0.656-2.371,1.41-3.447,2.278 c-0.835,0.674-1.617,1.404-2.346,2.194c-0.493,0.534-0.948,1.099-1.425,1.646c-0.535-0.664-1.068-1.33-1.636-1.966 c-0.31-0.347-0.601-0.712-0.956-1.017c-0.205-1.392-0.386-2.787-0.521-4.186c-0.111-1.15-0.202-2.302-0.245-3.458 C18.391,16.025,18.364,15.552,18.376,15.078z"/><path fill="#00933e" d="M34.052,18.965c0.103-0.805,0.217-1.607,0.282-2.417c0.114-1.429,0.105-2.855-0.044-4.282 c-0.162-1.54-0.459-3.05-0.954-4.52c-0.381-1.133-0.878-2.211-1.505-3.229c-0.022-0.035-0.034-0.076-0.051-0.115 c0.754,0.101,1.494,0.272,2.241,0.411c0.376,0.07,0.741,0.2,1.125,0.231c0.473,0.477,0.844,1.032,1.202,1.595 c0.959,1.51,1.588,3.148,1.849,4.921c0.17,1.15,0.172,2.306,0.087,3.463c-0.074,1.004-0.224,1.998-0.42,2.985 c-0.011,0.056-0.031,0.11-0.047,0.165C36.539,18.333,35.289,18.621,34.052,18.965z"/><path fill="#607d8b" d="M24.003,43.764c1.13,0,2.259,0.003,3.389-0.003c0.16-0.001,0.207,0.019,0.164,0.199 c-0.302,1.286-0.593,2.574-0.881,3.863C26.644,47.964,26.586,48,26.446,48c-1.633-0.005-3.267-0.005-4.9,0 c-0.129,0-0.187-0.034-0.216-0.163c-0.288-1.281-0.575-2.563-0.88-3.84c-0.055-0.23,0.024-0.236,0.207-0.235 C21.772,43.768,22.888,43.764,24.003,43.764z"/><path fill="#00933e" d="M15.717,5.269c-0.237,0.537-0.514,1.056-0.731,1.603c-0.596,1.509-0.975,3.073-1.189,4.679 c-0.08,0.598-0.135,1.199-0.178,1.8c-0.034,0.137-0.092,0.198-0.252,0.137c-0.207-0.078-0.424-0.129-0.64-0.182 c-1.007-0.247-2.014-0.491-3.021-0.737c0.022-0.61,0.124-1.209,0.248-1.806c0.234-1.131,0.644-2.198,1.177-3.22 c0.03-0.057,0.068-0.109,0.102-0.164c0.033-0.011,0.07-0.016,0.099-0.034c0.814-0.508,1.658-0.959,2.534-1.348 C14.472,5.729,15.077,5.453,15.717,5.269z"/><path fill="#2196f3" d="M28.047,3.922c-0.606-0.039-1.212-0.084-1.818-0.116C25.949,3.791,25.668,3.8,25.388,3.8 c-0.482-0.001-0.964-0.013-1.446,0.001c-0.664,0.02-1.328,0.065-1.991,0.119c-0.648,0.052-1.289,0.145-1.933,0.225 c-0.056,0.007-0.111,0.021-0.167,0.032c0.37-0.954,0.903-1.809,1.586-2.568c0.519-0.577,1.131-1.028,1.81-1.408 c0.547-0.336,1.08-0.201,1.595,0.046c1.104,0.608,1.943,1.476,2.604,2.533C27.676,3.146,27.88,3.525,28.047,3.922z"/><path fill="#2ac54b" d="M9.707,12.57c1.007,0.245,2.014,0.489,3.021,0.737c0.215,0.053,0.433,0.103,0.64,0.182 c0.16,0.06,0.218,0,0.252-0.137c-0.038,0.718-0.049,1.437-0.017,2.155c0.056,1.249,0.192,2.491,0.4,3.724 c0.016,0.097,0.044,0.195,0.02,0.295c-0.469-0.316-0.937-0.634-1.407-0.948c-0.782-0.523-1.59-1.001-2.414-1.455 c-0.075-0.041-0.155-0.074-0.233-0.111C9.72,15.541,9.609,14.062,9.707,12.57z"/><path fill="#00933e" d="M40.834,17.891c-0.467,0.028-0.935,0.055-1.402,0.083c0.303-1.508,0.535-3.028,0.538-4.569 c0.003-2.023-0.424-3.957-1.304-5.786c-0.321-0.667-0.712-1.292-1.105-1.917c0.076,0.018,0.151,0.034,0.227,0.053 c0.301,0.074,0.585,0.208,0.896,0.243c0,0,0.012,0.009,0.011,0.009c0.013,0.012,0.026,0.023,0.04,0.035 c0.505,0.575,0.908,1.22,1.283,1.882c0.635,1.12,1.093,2.307,1.321,3.579c0.173,0.965,0.152,1.933,0.058,2.902 c-0.107,1.102-0.274,2.196-0.508,3.278C40.873,17.752,40.852,17.821,40.834,17.891z"/><path fill="#2196f3" d="M35.145,5.046c-0.384-0.032-0.748-0.161-1.125-0.231c-0.747-0.139-1.487-0.311-2.241-0.411 c-0.4-0.587-0.809-1.168-1.286-1.697C29.457,1.557,28.357,0.634,26.935,0c1.635,0.351,3.062,0.972,4.481,1.847 c1.38,0.852,2.606,1.884,3.667,3.112C35.106,4.986,35.124,5.017,35.145,5.046z"/><path fill="#90caf9" d="M15.717,5.269c-0.64,0.184-1.245,0.46-1.851,0.729c-0.876,0.389-1.721,0.84-2.534,1.348 c-0.029,0.018-0.066,0.023-0.099,0.034c0.956-1.728,2.218-3.195,3.769-4.414c0.038-0.03,0.068-0.078,0.127-0.07 c0.476,0.329,0.951,0.657,1.427,0.986C16.277,4.345,15.997,4.807,15.717,5.269z"/><path fill="#90caf9" d="M6.819,10.913C6.87,10.498,7.017,10.108,7.16,9.72c0.565-1.526,1.416-2.883,2.461-4.124 c0.899-1.067,1.916-2.005,3.077-2.783c0.405-0.271,0.824-0.519,1.287-0.685c-0.482,0.365-0.957,0.737-1.402,1.146 C10.839,4.88,9.534,6.779,8.75,9.025C8.729,9.086,8.709,9.147,8.688,9.208c-0.613,0.529-1.224,1.059-1.783,1.646 C6.881,10.879,6.848,10.894,6.819,10.913z"/><path fill="#2ac54b" d="M8.24,16.121c-0.448-0.179-0.895-0.358-1.343-0.536c-0.046-0.018-0.094-0.032-0.141-0.048 c-0.096-0.398-0.113-0.806-0.152-1.21c-0.075-0.786-0.114-1.573-0.002-2.36c0.492,0.091,0.983,0.181,1.475,0.272 c-0.095,1.214-0.026,2.421,0.145,3.625C8.234,15.948,8.235,16.035,8.24,16.121z"/><path fill="#00933e" d="M8.077,12.238c-0.492-0.091-0.983-0.181-1.475-0.272c0.054-0.355,0.073-0.717,0.217-1.053 c0.029-0.019,0.063-0.034,0.086-0.059c0.559-0.587,1.17-1.118,1.783-1.646c-0.225,0.764-0.427,1.533-0.525,2.326 C8.133,11.769,8.105,12.004,8.077,12.238z"/><path fill="#2196f3" d="M38.663,5.937c-1.045-1.283-2.226-2.418-3.634-3.299c-0.328-0.205-0.658-0.419-1.042-0.516 c1.398,0.986,2.58,2.189,3.573,3.579c0.076,0.018,0.151,0.034,0.227,0.053c0.301,0.074,0.585,0.208,0.896,0.243 C38.677,5.976,38.676,5.952,38.663,5.937z"/><path fill="#ff6f00" d="M27.834,36.981c0.193,0.346,0.346,0.711,0.487,1.08c-0.84,1.014-1.726,1.987-2.66,2.916 c-0.009-0.009-0.083,0.077-0.028-0.026c0.491-0.81,0.971-1.626,1.411-2.465C27.307,37.984,27.571,37.483,27.834,36.981z"/><path fill="#2196f3" d="M20.31,0.18c-0.629,0.191-1.258,0.384-1.843,0.694c-0.06,0.022-0.122,0.039-0.179,0.065 c-0.887,0.407-1.729,0.893-2.524,1.457c-0.219,0.155-0.439,0.285-0.678,0.499c0.476,0.329,0.996,0.658,1.471,0.987 c0.396-0.5,0.773-1.016,1.224-1.47c0.257-0.259,0.516-0.517,0.774-0.775c0.074,0,0.111-0.062,0.158-0.103 c0.338-0.292,0.697-0.554,1.068-0.801c0.41-0.274,0.847-0.5,1.285-0.729C20.808,0.051,20.556,0.105,20.31,0.18z"/><path fill="#ff6f00" d="M28.647,38.814c0.044,0.103,0.087,0.206,0.131,0.309c-0.551,0.605-1.796,1.892-1.81,1.879 C27.504,40.322,28.11,39.494,28.647,38.814z"/><polygon fill="#9a2150" points="25.557,41.09 25.547,41.093 25.559,41.092"/><path fill="#2ac54b" d="M14.053,19.571c-0.011-0.016-0.022-0.032-0.033-0.047C14.069,19.513,14.053,19.547,14.053,19.571z"/><path fill="#2ac54b" d="M38.734,6.04c-0.013-0.012-0.026-0.024-0.04-0.035C38.708,6.017,38.721,6.029,38.734,6.04z"/><path fill="#ff6f00" d="M26.201,33.781l0.007-0.014l-0.187-0.305c-0.483-0.847-1.038-1.653-1.542-2.514	c-1.429-2.442-3.783-5.153-4.351-5.789c-0.31-0.347-0.601-0.712-0.956-1.017c0.178,1.153,0.362,2.306,0.59,3.45	c0.123,0.617,0.389,1.847,0.389,1.847l0.871,3.765c0.007,0.035,0.013,0.07,0.021,0.105c0.008,0.031,0.017,0.061,0.024,0.092	l0.031,0.135l0.097,0.352c0.29,1.164,0.589,2.327,0.917,3.481c0.26,0.914,0.531,1.826,0.799,2.738l0.004,0.013l0,0	c0.101,0.344,0.202,0.688,0.301,1.033c0.041,0.14,0.101,0.194,0.254,0.188c0.36-0.013,0.72-0.011,1.08-0.001	c0.134,0.004,0.186-0.045,0.222-0.168c0.265-0.902,0.544-1.801,0.805-2.704c0.374-1.297,0.736-2.598,1.061-3.908	C26.501,34.298,26.347,34.042,26.201,33.781z"/><g><path fill="#9a2150" d="M16.087,27.235c-0.856-2.507-1.565-5.054-2.034-7.664c-0.011-0.015-0.022-0.031-0.032-0.046 c-0.468-0.316-0.936-0.633-1.405-0.947c-0.782-0.523-1.59-1.001-2.414-1.455c-0.075-0.041-0.155-0.074-0.233-0.11 c0.014,0.099,0.026,0.199,0.044,0.298c0.391,2.19,1.019,4.315,1.788,6.4c0.92,2.494,2.032,4.901,3.251,7.261 c0.321,0.622,0.658,1.234,1.003,1.84c0.356-0.808,0.767-1.616,1.235-2.331C16.866,29.407,16.46,28.328,16.087,27.235z"/><polygon fill="#9a2150" points="14.02,19.524 14.021,19.525 14.022,19.526"/><path fill="#9a2150" d="M15.591,33.581c-1.656-2.533-3.19-5.135-4.443-7.895c-0.94-2.07-1.722-4.195-2.278-6.402 c-0.263-1.044-0.461-2.101-0.629-3.163c-0.448-0.179-0.895-0.358-1.343-0.536c-0.046-0.018-0.094-0.032-0.141-0.048 c0.004,0.072,0.003,0.144,0.013,0.215c0.25,1.717,0.654,3.397,1.195,5.045c1.17,3.563,2.883,6.865,4.853,10.04 c0.791,1.274,1.654,2.493,2.556,3.681c0.095-0.262,0.196-0.53,0.305-0.805C15.65,33.669,15.618,33.622,15.591,33.581z"/><path fill="#ff6f00" d="M21.166,39.749c0.371,0.402,0.748,0.799,1.13,1.207c0.05-0.117-1.189-2.174-1.707-3.168 c-0.59-1.133-2.274-4.808-2.296-4.86c-0.35-0.81-0.681-1.627-1.004-2.447c-0.468,0.715-0.879,1.522-1.235,2.331 c0.706,1.24,1.464,2.449,2.318,3.599C19.238,37.578,20.18,38.682,21.166,39.749z"/><path fill="#ff6f00" d="M20.105,40.054c0.317,0.318,0.653,0.617,0.945,0.891c0.005,0.049-3.708-4.718-5.371-7.233 c-0.109,0.275-0.21,0.544-0.305,0.805c1.189,1.567,2.454,3.075,3.787,4.531C19.471,39.387,19.78,39.728,20.105,40.054z"/></g><path fill="#bed70f" d="M26.641,34.561l-4.875-7.435c0,0,4.157-5.575,7.475-6.223C29.241,20.903,28.647,27.732,26.641,34.561	z"/><g><path fill="#bed70f" d="M32.569,25.216c-0.951,3.113-2.13,6.139-3.478,9.099c-0.407,0.894-0.837,1.777-1.257,2.666 c0.193,0.346,0.346,0.711,0.487,1.08c0.63-0.711,1.197-1.47,1.745-2.244c1.435-2.024,2.585-4.211,3.684-6.427 c0.37-0.745,0.715-1.503,1.055-2.263c0.293-0.653,0.57-1.311,0.838-1.973l-2.631-1.558C32.866,24.137,32.733,24.68,32.569,25.216z"/><path fill="#bed70f" d="M40.834,17.891c-0.109,0.006-0.219,0.013-0.328,0.019c0.117-0.004,0.228-0.008,0.326-0.01 C40.832,17.897,40.833,17.894,40.834,17.891z"/><path fill="#bed70f" d="M36.441,26.565c-1.783,3.677-3.964,7.11-6.393,10.389c-0.462,0.624-0.934,1.24-1.401,1.86 c0.044,0.103,0.087,0.206,0.131,0.309c0.05-0.051,0.103-0.1,0.151-0.153c0.93-1.03,1.831-2.083,2.704-3.162 c2.29-2.831,4.241-5.88,5.907-9.114c0.055-0.107,0.101-0.218,0.155-0.325l-0.914-0.541C36.668,26.074,36.559,26.321,36.441,26.565z"/><path fill="#4caf50" d="M37.815,18.175c-1.277,0.157-2.526,0.446-3.764,0.79c-0.015,0.084-0.03,0.168-0.045,0.252 c-0.252,1.479-0.602,2.935-0.994,4.38l2.631,1.558c0.671-1.657,1.262-3.343,1.73-5.074C37.544,19.451,37.711,18.82,37.815,18.175z"/><path fill="#4caf50" d="M40.832,17.9c-0.098,0.002-0.209,0.006-0.326,0.01c-0.358,0.021-0.716,0.042-1.074,0.063 c-0.198,0.963-0.443,1.915-0.73,2.855c-0.523,1.712-1.171,3.377-1.92,5l0.914,0.541c0.818-1.617,1.552-3.27,2.149-4.981 C40.243,20.246,40.583,19.085,40.832,17.9z"/></g></svg>