<svg xmlns="http://www.w3.org/2000/svg"  viewBox="0 0 48 48" width="1600px" height="1600px" baseProfile="basic"><path d="M43.87,23.76c0.14,10.99-8.75,20.1-19.75,20.24c-11,0.13-20.11-8.76-20.24-19.76C3.74,13.25,12.63,4.14,23.63,4 C34.63,3.87,43.74,12.76,43.87,23.76z"/><path fill="#fb8c00" d="M4.76,26.15c-0.61-8,4.96-12.11,4.62-11.65c0,0,1.12,3.75-0.13,7.62 C8.41,24.74,6.14,25.76,4.76,26.15z"/><path fill="#fb8c00" d="M18.12,38.38L18,41.12c0,0-10.75-2.87-12.88-12.5c-0.09-0.39-0.16-0.77-0.21-1.15l1.21,1.03H7.5 c0,0,3.38-1.63,4.5-4.25c0,3-0.51,3.39,0,3.75c0.88,0.62,2-1,3-3c0.18-0.35,2,2-2,5c-2.79,2.09,0.88,3.38,3-1 C16,30.8,18.12,38.38,18.12,38.38z"/><path d="M23.63,4.002C12.631,4.136,3.742,13.245,3.877,24.245S13.12,44.133,24.12,43.999c10.999-0.135,19.888-9.244,19.754-20.243 C43.739,12.756,34.63,3.867,23.63,4.002z M24.071,39.999c-8.799,0.108-16.087-7.004-16.195-15.803 C7.769,15.396,14.88,8.109,23.679,8.001s16.087,7.004,16.195,15.803C39.981,32.604,32.87,39.891,24.071,39.999z"/><path fill="#fff" d="M12.9,23.849c0.22,1.1,1.34,1.818,2.58,1.7c-0.44,0.373-0.7,1.012-0.65,1.7 c0.08,0.904,0.67,1.611,1.4,1.758c-0.06,0.079-0.13,0.167-0.18,0.255c-0.52,0.884-0.36,1.926,0.34,2.407 c-0.04,0.049-0.09,0.108-0.12,0.167c-0.66,1.13-0.43,2.485,0.53,3.026c0.1,0.059,0.21,0.098,0.32,0.128 C17.05,35.235,17,35.49,17,35.765c0,1.12,0.67,2.063,1.56,2.299C18.22,38.487,18,39.057,18,39.695c0,1.307,0.9,2.358,2,2.358v0.313 c3.132-0.074,6.415-0.744,9.625-1.388c3.125-1.666,5.995-3.715,8.308-6.28c0.011-0.012,0.023-0.022,0.034-0.034 C37.987,34.521,38,34.393,38,34.292c0-1.198-0.65-2.21-1.56-2.633c0.34-0.344,0.56-0.796,0.56-1.297c0-0.737-0.46-1.366-1.12-1.67 c0.07-0.246,0.12-0.511,0.12-0.786c0-1.12-0.67-2.063-1.56-2.299c0.34-0.422,0.56-0.992,0.56-1.631c0-0.963-0.49-1.788-1.19-2.151 c0.62-0.54,1.02-1.395,1.02-2.368c0-1.189-0.6-2.201-1.45-2.672c0.38-0.442,0.62-1.061,0.62-1.749c0-0.992-0.5-1.847-1.22-2.23 c0.14-0.373,0.22-0.776,0.22-1.208c0-1.169-0.58-2.161-1.41-2.643c0.4-0.658,0.76-1.424,1.03-2.299 c0.83-2.721,0.45-5.226-0.84-5.609c-1.28-0.373-2.97,1.483-3.8,4.165c-0.42-0.305-0.93-0.491-1.48-0.491 c-0.58,0-1.13,0.196-1.55,0.54C24.74,4.388,23.94,3.739,23,3.739s-1.74,0.648-1.95,1.523c-0.42-0.344-0.97-0.54-1.55-0.54 c-0.67,0-1.29,0.265-1.74,0.697c-0.13-0.236-0.26-0.481-0.41-0.717c-1.54-2.407-3.71-3.782-4.85-3.075 c-1.14,0.698-0.82,3.222,0.72,5.619c0.6,0.943,1.3,1.719,2,2.289c-0.24-0.049-0.49-0.059-0.74-0.01 c-1.11,0.216-1.82,1.356-1.58,2.535c0.11,0.58,0.43,1.051,0.86,1.375c-0.09,0-0.18,0-0.28,0.02c-1.11,0.216-1.82,1.356-1.58,2.535 c0.14,0.737,0.62,1.316,1.23,1.601c-0.89,0.472-1.42,1.395-1.23,2.328c0.18,0.943,1.03,1.591,2.04,1.7 C13.16,22.12,12.72,22.984,12.9,23.849z"/><path d="M23,14c-0.976,0-1.854-0.381-2.403-1.002C19.182,13.06,18,11.911,18,10.5c0-0.552,0.447-1,1-1s1,0.448,1,1 c0,0.342,0.366,0.595,0.692,0.461c0.252-0.104,0.54-0.101,0.789,0.01c0.25,0.111,0.444,0.321,0.536,0.58 C22.082,11.731,22.438,12,23,12s0.918-0.269,0.982-0.45c0.092-0.259,0.286-0.468,0.536-0.58c0.249-0.11,0.536-0.114,0.789-0.01 C25.634,11.094,26,10.842,26,10.5c0-0.552,0.447-1,1-1s1,0.448,1,1c0,1.411-1.165,2.581-2.597,2.498C24.854,13.619,23.976,14,23,14 z"/><ellipse cx="17.5" cy="15" rx="1.5" ry="1"/><ellipse cx="28.5" cy="15" rx="1.5" ry="1"/><path d="M21,22c-0.86,0-1.681-0.37-2.25-1.016c-0.365-0.414-0.326-1.046,0.089-1.412c0.412-0.364,1.045-0.327,1.411,0.088 C20.439,19.876,20.713,20,21,20c0.552,0,1-0.449,1-1c0-0.552,0.447-1,1-1s1,0.448,1,1C24,20.654,22.654,22,21,22z"/><path d="M25,22c-1.654,0-3-1.346-3-3c0-0.552,0.447-1,1-1s1,0.448,1,1c0,0.551,0.448,1,1,1c0.277,0,0.535-0.111,0.726-0.312 c0.381-0.401,1.014-0.418,1.414-0.039c0.401,0.379,0.418,1.013,0.039,1.414C26.614,21.659,25.82,22,25,22z"/><rect width="2.727" height="3" x="22.636" y="26" fill="#fb8c00"/><path fill="#fb8c00" d="M25.364,28.571L29,30c1.033-0.704,1.033-4.296,0-5l-3.636,1.429"/><path fill="#fb8c00" d="M22.636,28.571L19,30c-1.033-0.704-1.109-4.422,0-5l3.636,1.429"/><path d="M23,20l-1.8-2.4C20.706,16.941,21.176,16,22,16h2c0.824,0,1.294,0.941,0.8,1.6L23,20z"/><path d="M39.608,32.811c-0.281-0.381-0.696-1.361-1.096-1.585c0.412,0.489,0.495,0.598,0.249,0.328 c-0.115-0.128-0.236-0.249-0.363-0.365c-0.058-0.055-0.119-0.106-0.178-0.16c-2.585,5.235-7.94,8.894-14.15,8.97 c-2.683,0.033-5.221-0.612-7.462-1.765c-0.702,1.139-1.384,2.288-2.013,3.466c2.848,1.503,6.093,2.34,9.523,2.298 c7.094-0.087,13.294-3.918,16.778-9.571C40.438,33.916,40.019,33.369,39.608,32.811z"/><path fill="#fb8c00" d="M35.24,21.69L35,19c0.86-0.77,2-2,3.38-5.12C38.91,16.53,36.09,20.55,35.24,21.69z"/><path fill="#fb8c00" d="M38.62,26.62c0.46-0.2,0.91-0.55,1.32-0.92c-0.06,0.26-0.44,3.92-2.85,6.87L37,29l-1.68-6.44 c0.6-0.33,1.99-0.65,3.68-3.56c-0.12,1.88-0.38,1.75-1,3c-0.45,0.91,0.37,0.52,1.1-0.18c0.71-0.67,1.52-1.71,2.28-3.32 C41,23.25,39,24.25,38,25.62C37,27,37.25,27.25,38.62,26.62z"/><path d="M28.538,6.161c0.327-0.102,0.582-0.345,0.683-0.653c0.84-2.535,2.332-3.605,2.742-3.502 c0.088,0.024,0.19,0.128,0.28,0.285c0.39,0.679,0.51,2.202-0.099,4.07C31.9,7.1,31.565,7.798,31.149,8.437 c-0.15,0.229-0.193,0.506-0.122,0.766c0.071,0.261,0.251,0.483,0.5,0.619c0.593,0.321,0.977,1.019,0.977,1.777 c0,0.292-0.056,0.581-0.167,0.858c-0.188,0.47,0.026,0.998,0.5,1.233c0.441,0.219,0.738,0.761,0.738,1.347 c0,0.417-0.147,0.817-0.406,1.097c-0.209,0.228-0.298,0.532-0.242,0.828s0.253,0.552,0.534,0.698 c0.609,0.315,1.002,1.021,1.002,1.798c0,0.641-0.271,1.244-0.725,1.613c-0.268,0.217-0.403,0.544-0.361,0.872 c0.042,0.329,0.255,0.617,0.57,0.769c0.417,0.203,0.698,0.71,0.698,1.264c0,0.376-0.129,0.732-0.363,1.004 c-0.227,0.264-0.296,0.617-0.183,0.939c0.113,0.321,0.393,0.568,0.744,0.655c0.424,0.104,0.873,0.607,0.873,1.332 c0,0.152-0.028,0.319-0.087,0.511c-0.146,0.475,0.101,0.977,0.58,1.184c0.279,0.12,0.577,0.383,0.577,0.762 c0,0.265-0.158,0.469-0.29,0.594c-0.246,0.231-0.355,0.56-0.293,0.88s0.287,0.592,0.603,0.729c0.628,0.273,1.05,0.966,1.05,1.726 c0,0.762-0.695,2.772-1.497,4.565c0.817-0.772,1.567-1.588,2.206-2.466c0.371-0.509,0.818-0.95,1.314-1.317 c0.077-0.348,0.12-0.621,0.12-0.782c0-1.134-0.483-2.183-1.289-2.9c0.143-0.328,0.218-0.676,0.218-1.03 c0-0.839-0.402-1.61-1.087-2.145c0.01-0.104,0.016-0.208,0.016-0.311c0-1.095-0.498-2.083-1.296-2.699 c0.147-0.39,0.225-0.806,0.225-1.23c0-0.855-0.314-1.663-0.849-2.272c0.431-0.651,0.667-1.429,0.667-2.247 c0-1.131-0.45-2.176-1.217-2.912c0.214-0.464,0.328-0.978,0.328-1.509c0-1.019-0.434-1.976-1.153-2.622 c0.054-0.269,0.082-0.542,0.082-0.817c0-1.118-0.447-2.159-1.208-2.895c0.3-0.558,0.552-1.145,0.754-1.754 c0.707-2.164,0.684-4.311-0.061-5.604c-0.369-0.641-0.908-1.075-1.563-1.257c-1.791-0.489-3.78,1.06-4.979,3.757 c-0.709-0.182-1.482-0.156-2.171,0.058c-0.593-0.717-1.524-1.163-2.553-1.163c-1.029,0-1.96,0.446-2.553,1.163 c-0.868-0.271-1.865-0.23-2.701,0.11c-2.048-2.901-4.789-4.26-6.549-3.238c-0.575,0.328-0.971,0.874-1.143,1.577 c-0.351,1.433,0.251,3.516,1.569,5.432c0.286,0.418,0.597,0.816,0.928,1.186C12.058,9.188,11.747,9.476,11.5,9.82 c-0.503,0.704-0.686,1.593-0.504,2.426c0.05,0.25,0.132,0.492,0.242,0.721c-0.313,0.209-0.587,0.473-0.808,0.783 c-0.503,0.704-0.686,1.593-0.504,2.426c0.107,0.528,0.35,1.015,0.698,1.421c-0.621,0.712-0.892,1.62-0.698,2.509 c0.163,0.798,0.674,1.478,1.396,1.931c-0.354,0.617-0.477,1.32-0.323,2.008c0.227,1.062,1.05,1.893,2.135,2.28 c-0.082,0.322-0.112,0.663-0.085,1.012c0.081,0.845,0.504,1.595,1.128,2.088c-0.291,0.846-0.177,1.725,0.297,2.397 c-0.312,0.718-0.377,1.498-0.172,2.204c0.181,0.622,0.56,1.149,1.074,1.512c-0.005,0.076-0.008,0.152-0.008,0.229 c0,1.095,0.498,2.083,1.296,2.699c-0.147,0.389-0.225,0.806-0.225,1.23c0,0.734,0.227,1.413,0.611,1.966 c1.054,0.412,2.32,0.601,3.673,0.661v-0.269c0-0.552-0.479-1-1.071-1c-0.58,0-1.071-0.622-1.071-1.358 c0-0.375,0.129-0.732,0.363-1.003c0.227-0.264,0.296-0.617,0.183-0.939c-0.113-0.321-0.393-0.568-0.744-0.655 c-0.424-0.104-0.873-0.607-0.873-1.332c0-0.147,0.028-0.307,0.087-0.501c0.079-0.258-0.002-0.552-0.144-0.785 c-0.141-0.233-0.425-0.42-0.703-0.489c-0.232-0.122-0.335-0.333-0.38-0.488c-0.102-0.352-0.023-0.786,0.247-1.203 c0.188-0.217,0.271-0.497,0.229-0.773c-0.043-0.276-0.207-0.523-0.453-0.681c-0.249-0.16-0.338-0.617-0.04-1.09 c0.025-0.04,0.06-0.077,0.11-0.138c0.226-0.274,0.284-0.637,0.155-0.96c-0.13-0.324-0.429-0.562-0.791-0.63 c-0.278-0.053-0.598-0.374-0.644-0.851c-0.027-0.349,0.099-0.688,0.321-0.864c0.357-0.283,0.476-0.749,0.295-1.151 c-0.168-0.373-0.56-0.612-0.987-0.612c-0.033,0-0.067,0.001-0.101,0.004c-0.779,0.069-1.486-0.316-1.614-0.909 c-0.095-0.427,0.158-0.892,0.644-1.184c0.383-0.229,0.568-0.658,0.464-1.071c-0.105-0.413-0.477-0.719-0.929-0.764 c-0.651-0.065-1.152-0.424-1.25-0.906c-0.101-0.466,0.207-0.966,0.769-1.244c0.36-0.178,0.579-0.53,0.57-0.909 c-0.01-0.379-0.25-0.721-0.618-0.881c-0.37-0.162-0.638-0.491-0.721-0.896c-0.071-0.328-0.004-0.666,0.184-0.929 c0.161-0.225,0.396-0.375,0.758-0.425c0.46,0,0.869-0.275,1.016-0.683c0.146-0.407-0.003-0.857-0.37-1.116 c-0.191-0.134-0.435-0.376-0.517-0.776c-0.071-0.328-0.004-0.667,0.184-0.93c0.161-0.225,0.396-0.375,0.666-0.424 c0.112-0.019,0.235-0.018,0.368,0.008c0.484,0.091,0.973-0.135,1.184-0.551s0.091-0.914-0.292-1.204 c-0.7-0.533-1.362-1.242-1.916-2.054c-1.137-1.652-1.463-3.184-1.285-3.908c0.04-0.162,0.102-0.278,0.178-0.321 c0.383-0.218,2.16,0.477,3.726,2.763c0.12,0.176,0.226,0.359,0.33,0.538l0.073,0.125c0.161,0.272,0.448,0.459,0.777,0.506 c0.328,0.045,0.662-0.053,0.903-0.268c0.56-0.501,1.541-0.536,2.103-0.104c0.287,0.218,0.67,0.283,1.021,0.174 c0.349-0.11,0.613-0.379,0.7-0.714c0.112-0.438,0.553-0.756,1.047-0.756c0.494,0,0.935,0.318,1.047,0.756 c0.087,0.335,0.35,0.604,0.7,0.714c0.349,0.109,0.734,0.044,1.021-0.174c0.265-0.203,0.613-0.314,0.981-0.314 c0.423,0,0.754,0.164,0.958,0.302C27.851,6.211,28.21,6.263,28.538,6.161z"/><path d="M25.363,30h-2.727c-0.553,0-1-0.448-1-1v-3c0-0.552,0.447-1,1-1h2.727c0.553,0,1,0.448,1,1v3 C26.363,29.552,25.916,30,25.363,30z M23.637,28h0.727v-1h-0.727V28z"/><path d="M29,31c-0.123,0-0.247-0.023-0.365-0.069l-3.637-1.429c-0.515-0.202-0.768-0.782-0.565-1.296 c0.201-0.515,0.785-0.768,1.296-0.565l2.885,1.133c0.086-0.292,0.161-0.728,0.161-1.274c0-0.544-0.075-0.979-0.163-1.273 l-2.883,1.132c-0.507,0.202-1.095-0.05-1.296-0.565c-0.202-0.514,0.051-1.095,0.565-1.296l3.637-1.429 c0.31-0.121,0.655-0.082,0.929,0.104c1.094,0.745,1.211,2.574,1.211,3.326s-0.117,2.581-1.211,3.326C29.395,30.941,29.198,31,29,31 z"/><path d="M19,31c-0.198,0-0.395-0.059-0.563-0.174c-1.032-0.704-1.307-2.524-1.228-3.87c0.05-0.829,0.287-2.3,1.329-2.843 c0.258-0.133,0.56-0.149,0.827-0.044l3.637,1.429c0.515,0.202,0.768,0.782,0.565,1.296c-0.202,0.515-0.784,0.767-1.296,0.565 l-2.933-1.152c-0.074,0.265-0.148,0.686-0.142,1.249c0.006,0.564,0.091,1.016,0.187,1.318l2.888-1.134 c0.508-0.203,1.094,0.05,1.296,0.565c0.202,0.514-0.051,1.095-0.565,1.296l-3.637,1.429C19.247,30.977,19.123,31,19,31z"/></svg>