<svg xmlns="http://www.w3.org/2000/svg"  viewBox="0 0 48 48" width="1600px" height="1600px"><path fill="#878787" stroke="#434345" stroke-miterlimit="10" stroke-width="2" d="M26.884,36.946	C21.311,36.889,14.74,34.663,11,30V10c4,6.901,10.704,8.668,16.544,8.028C32.531,17.49,36.219,16.034,39,10	c0.387-0.839,2.008-0.922,2,0c-0.01,1.175,0,2.886,0,5C41,29.788,37.404,37.055,26.884,36.946z"/><circle cx="15.404" cy="21.056" r="4.5" fill="#fff" stroke="#bdbdbd" stroke-miterlimit="10" stroke-width="2"/><circle cx="16.157" cy="21.796" r="2.548" fill="#434345"/><path fill="#ffa000" stroke="#795649" stroke-miterlimit="10" stroke-width="2" d="M42.269,40.938l-1.273,1.22l-0.073,0.067	c-0.145-0.077-0.3-0.154-0.445-0.25c-0.791-0.413-7.594-6.378-10.074-9.396c1.626-0.357,1.5-0.57,2.338-0.692	c2.709,1.211,5.018,3.747,7.291,6.418C40.778,39.18,41.524,40.073,42.269,40.938z"/><path fill="#434345" d="M33.404,31.056c-5,4-12.3,0.39-12.3,0.39c7.75,1.11,9.79-0.98,10.3-1.87l-1-1.52	C30.404,28.056,33.404,27.896,33.404,31.056z"/><path fill="#878787" d="M43.748,41.056l-3.422,2.32l-2.614-2h-1c0,0-0.24-0.32-0.03-0.92c0.01-0.03,0.02-0.06,0.03-0.08	c0.21-0.45,1.75-3.107,3.46-3.429C40.992,37.858,41.604,38.332,43.748,41.056z"/><circle cx="39.884" cy="38.948" r="1" fill="#fff"/><path fill="#616161" stroke="#434345" stroke-miterlimit="10" stroke-width="2" d="M10.303,23.048	C12.414,25.741,12.589,28.411,11,30c-2,2-4.89,0.694-7-2s-2.768-6.614-1-8S8.193,20.354,10.303,23.048z"/><ellipse cx="5.191" cy="21.36" fill="#fff" rx="1.911" ry="2.681"/><path fill="#434345" d="M45.884,46.944l-4.57-2.137c-0.84-0.39-1.43-1.25-1.43-2.25c0-1.38,1.12-2.5,2.5-2.5	c1.22,0,2.23,0.87,2.46,2.03C44.844,42.086,45.554,45.444,45.884,46.944z"/><circle cx="42.884" cy="41.552" r="1" fill="#878787"/><circle cx="24.767" cy="21.056" r="5.25" fill="#fff" stroke="#bdbdbd" stroke-miterlimit="10" stroke-width="2"/><circle cx="25.581" cy="21.84" r="3.149" fill="#434345"/><circle cx="24.702" cy="20.522" r="1.802" fill="#fff"/><ellipse cx="15.096" cy="20.804" fill="#fff" rx="1.425" ry="1.358" transform="rotate(-8.35 15.088 20.799)"/></svg>