<svg xmlns="http://www.w3.org/2000/svg"  viewBox="0 0 48 48" width="1600px" height="1600px"><polygon fill="#ffbf56" points="3,6 24,42 45,6"/><polygon fill="#ff8e33" points="24,6 24,42 45,6"/><polygon fill="#ff9f3f" points="24,9 16,22 32,22"/><polygon fill="#ff6128" points="15.999,22 23.999,42 31.999,22"/><polygon fill="#ff5024" points="37,8 32,22 39.881,14.776 42.467,10.343"/><polygon fill="#a42d16" points="31.999,22 23.999,42 45,6"/><polygon fill="#ffa938" points="5.533,10.343 8.119,14.777 16,22 11,8"/><polygon fill="#ca6922" points="24,42 16,22 3,6"/><polygon fill="#ffa646" points="3,6 24,9 45,6"/><polygon fill="#d87a26" points="24,6 31.132,7.981 45,6"/><polygon fill="#b7541e" points="24,6 31.132,7.981 45,6"/><polygon fill="#de8128" points="3,6 16.868,7.981 24,6"/><polygon fill="#ff6428" points="31.132,7.981 41.133,10.759 45,6"/><polygon fill="#ffc85d" points="3,6 6.866,10.759 16.868,7.981"/></svg>