<svg xmlns="http://www.w3.org/2000/svg"  viewBox="0 0 48 48" width="1600px" height="1600px"><path fill="#01579b" d="M34.45,5h-20.9C8.827,5,5,8.827,5,13.55v2.006v11.611v7.283C5,39.171,8.827,43,13.55,43h20.9	c4.723,0,8.55-3.829,8.55-8.55v-7.283V15.556V13.55C43,8.827,39.173,5,34.45,5z"/><path fill="#fdfcef" d="M20,19.999c-1.103,0-2,0.897-2,2V35c0,1.103,0.897,2,2,2c1.102,0,2-0.897,2-2V21.999	C22,20.896,21.103,19.999,20,19.999z"/><path fill="#d82745" d="M33.5,12.84l-3,5.2c-0.59-0.34-1.27-0.54-2-0.54v-6c0.87,0,1.74,0.11,2.59,0.34	C31.93,12.07,32.74,12.4,33.5,12.84z"/><path fill="#dd583a" d="M28.5,11.5l0.002,6.003c-0.681,0.001-1.37,0.167-2.002,0.532l-3-5.196	c0.753-0.435,1.562-0.775,2.413-1.001C26.755,11.618,27.622,11.499,28.5,11.5z"/><path fill="#f47c22" d="M23.5,12.84l3.003,5.198c-0.589,0.341-1.103,0.83-1.468,1.462l-5.196-3	c0.435-0.753,0.965-1.452,1.589-2.073C22.048,13.815,22.739,13.278,23.5,12.84z"/><path fill="#fcc938" d="M19.84,16.5l5.2,3c-0.34,0.59-0.54,1.27-0.54,2h-6c0-0.87,0.11-1.74,0.34-2.59	C19.07,18.07,19.4,17.26,19.84,16.5z"/><path fill="#daea7f" d="M18.5,21.5l6.003-0.002c0.001,0.681,0.167,1.37,0.532,2.002l-5.196,3	c-0.435-0.753-0.775-1.562-1.001-2.413C18.618,23.245,18.499,22.378,18.5,21.5z"/><path fill="#93bc39" d="M19.84,26.5l5.198-3.003c0.341,0.589,0.83,1.103,1.462,1.468l-3,5.196	c-0.753-0.435-1.452-0.965-2.073-1.589C20.815,27.952,20.278,27.261,19.84,26.5z"/><path fill="#6f913d" d="M23.5,30.16l3-5.2c0.59,0.34,1.27,0.54,2,0.54v6c-0.87,0-1.74-0.11-2.59-0.34	C25.07,30.93,24.26,30.6,23.5,30.16z"/><path fill="#18c9c4" d="M28.5,31.5l-0.002-6.003c0.681-0.001,1.37-0.167,2.002-0.532l3,5.196	c-0.753,0.435-1.562,0.775-2.413,1.001C30.245,31.382,29.378,31.501,28.5,31.5z"/><path fill="#55a7f9" d="M33.5,30.16l-3.003-5.198c0.589-0.341,1.103-0.83,1.468-1.462l5.196,3	c-0.435,0.753-0.965,1.452-1.589,2.073C34.952,29.185,34.261,29.722,33.5,30.16z"/><path fill="#2d80d3" d="M37.16,26.5l-5.2-3c0.34-0.59,0.54-1.27,0.54-2h6c0,0.87-0.11,1.74-0.34,2.59	C37.93,24.93,37.6,25.74,37.16,26.5z"/><path fill="#666aad" d="M38.5,21.5l-6.003,0.002c-0.001-0.681-0.167-1.37-0.532-2.002l5.196-3	c0.435,0.753,0.775,1.562,1.001,2.413C38.382,19.755,38.501,20.622,38.5,21.5z"/><path fill="#ef657d" d="M37.16,16.5l-5.198,3.003c-0.341-0.589-0.83-1.103-1.462-1.468l3-5.196	c0.753,0.435,1.452,0.965,2.073,1.589C36.185,15.048,36.722,15.739,37.16,16.5z"/><path fill="#fdfcef" d="M13,19.999c-1.103,0-2,0.897-2,2V35c0,1.103,0.897,2,2,2c1.102,0,2-0.897,2-2V21.999 C15,20.896,14.103,19.999,13,19.999z"/><circle cx="13" cy="16" r="2.25" fill="#fdfcef"/><path fill="#fdfcef" d="M28.5,26c-1.254,0-2.169-0.496-2.717-0.912l0,0C24.65,24.228,24,22.919,24,21.5	c0-2.481,2.019-4.5,4.5-4.5s4.5,2.019,4.5,4.5S30.981,26,28.5,26z M26.388,24.292C26.813,24.615,27.525,25,28.5,25	c1.93,0,3.5-1.57,3.5-3.5S30.43,18,28.5,18S25,19.57,25,21.5C25,22.604,25.505,23.622,26.388,24.292L26.388,24.292z"/><path fill="#fdfcef" d="M28.5,32c-2.313,0-4.507-0.738-6.345-2.134C19.514,27.861,18,24.812,18,21.5	C18,15.71,22.71,11,28.5,11S39,15.71,39,21.5S34.29,32,28.5,32z M28.5,12c-5.238,0-9.5,4.262-9.5,9.5c0,2.997,1.37,5.756,3.761,7.57	l0,0C24.422,30.333,26.407,31,28.5,31c5.238,0,9.5-4.262,9.5-9.5S33.738,12,28.5,12z"/><path fill="#fdfcef" d="M28.5,18c-0.276,0-0.5-0.224-0.5-0.5v-6c0-0.276,0.224-0.5,0.5-0.5s0.5,0.224,0.5,0.5v6	C29,17.776,28.776,18,28.5,18z"/><path fill="#fdfcef" d="M26.5,18.536c-0.172,0-0.341-0.089-0.433-0.25l-3-5.196c-0.139-0.239-0.057-0.545,0.183-0.683	c0.239-0.138,0.545-0.058,0.683,0.183l3,5.196c0.139,0.239,0.057,0.545-0.183,0.683C26.67,18.515,26.585,18.536,26.5,18.536z"/><path fill="#fdfcef" d="M25.036,20c-0.085,0-0.171-0.021-0.25-0.067l-5.196-3c-0.239-0.138-0.321-0.444-0.183-0.683	s0.444-0.32,0.683-0.183l5.196,3c0.239,0.138,0.321,0.444,0.183,0.683C25.376,19.91,25.208,20,25.036,20z"/><path fill="#fdfcef" d="M24.5,22h-6c-0.276,0-0.5-0.224-0.5-0.5s0.224-0.5,0.5-0.5h6c0.276,0,0.5,0.224,0.5,0.5	S24.776,22,24.5,22z"/><path fill="#fdfcef" d="M19.839,27c-0.172,0-0.341-0.089-0.433-0.25c-0.139-0.239-0.057-0.545,0.183-0.683l5.196-3	c0.238-0.138,0.545-0.058,0.683,0.183c0.139,0.239,0.057,0.545-0.183,0.683l-5.196,3C20.01,26.979,19.924,27,19.839,27z"/><path fill="#fdfcef" d="M23.5,30.66c-0.085,0-0.171-0.021-0.25-0.067c-0.239-0.138-0.321-0.444-0.183-0.683l3-5.196	c0.138-0.239,0.444-0.32,0.683-0.183c0.239,0.138,0.321,0.444,0.183,0.683l-3,5.196C23.84,30.57,23.671,30.66,23.5,30.66z"/><path fill="#fdfcef" d="M28.5,32c-0.276,0-0.5-0.224-0.5-0.5v-6c0-0.276,0.224-0.5,0.5-0.5s0.5,0.224,0.5,0.5v6	C29,31.776,28.776,32,28.5,32z"/><path fill="#fdfcef" d="M33.5,30.66c-0.172,0-0.341-0.089-0.433-0.25l-3-5.196c-0.139-0.239-0.057-0.545,0.183-0.683	c0.238-0.139,0.545-0.057,0.683,0.183l3,5.196c0.139,0.239,0.057,0.545-0.183,0.683C33.67,30.639,33.585,30.66,33.5,30.66z"/><path fill="#fdfcef" d="M37.161,27c-0.085,0-0.171-0.021-0.25-0.067l-5.196-3c-0.239-0.138-0.321-0.444-0.183-0.683	s0.444-0.319,0.683-0.183l5.196,3c0.239,0.138,0.321,0.444,0.183,0.683C37.501,26.91,37.333,27,37.161,27z"/><path fill="#fdfcef" d="M38.5,22h-6c-0.276,0-0.5-0.224-0.5-0.5s0.224-0.5,0.5-0.5h6c0.276,0,0.5,0.224,0.5,0.5	S38.776,22,38.5,22z"/><path fill="#fdfcef" d="M31.964,20c-0.172,0-0.341-0.089-0.433-0.25c-0.139-0.239-0.057-0.545,0.183-0.683l5.196-3	c0.239-0.139,0.546-0.057,0.683,0.183c0.139,0.239,0.057,0.545-0.183,0.683l-5.196,3C32.135,19.979,32.049,20,31.964,20z"/><path fill="#fdfcef" d="M30.5,18.536c-0.085,0-0.171-0.021-0.25-0.067c-0.239-0.138-0.321-0.444-0.183-0.683l3-5.196	c0.138-0.239,0.444-0.319,0.683-0.183c0.239,0.138,0.321,0.444,0.183,0.683l-3,5.196C30.84,18.446,30.671,18.536,30.5,18.536z"/></svg>