<svg xmlns="http://www.w3.org/2000/svg"  viewBox="0 0 48 48" width="1600px" height="1600px"><path fill="#212121" d="M44.265 20.931L27.505 3.502c-2.08-2.003-5.498-2.003-7.423 0L3.908 20.327c-6.131 6.227 4.157 5.727 7.813 8.086 1.686 1.116-4.968 2.559-3.52 4.031 1.411 1.481 8.076 2.815 9.487 4.25 1.411 1.472-2.826 3.039-1.406 4.511 1.375 1.472 4.423.07 5.019 3.417.431 2.478 5.779 1.233 8.29-.879 1.567-1.353-2.74-1.352-1.329-2.833 1.265-1.298 2.474-1.875 3.574-2.231 1.97-.649 4.22-.504 5.054-2.662.706-1.792-5.266-3.194-3.654-4.346C37.084 28.92 50.79 27.551 44.265 20.931zM25.717 32.904c-2.126.732-11.867-3.948-9.31-3.948C16.847 28.957 31.261 31.021 25.717 32.904zM38.667 37.98c-1.847 1.904.321 3.899 2.128 2.584C41.278 40.201 40.756 38.433 38.667 37.98zM40.021 36.134c0 .899 6.313 1.412 5.965-.214C45.483 33.181 40.719 33.395 40.021 36.134z"/><path fill="#212121" d="M9.552,41.421c1.477,1.555,3.711-0.34,4.43-2.527C12.545,36.61,7.237,39.04,9.552,41.421z"/><path fill="#424242" d="M26.77,5.59l-4.48,7.59l-7.94,13.46c-1.55-0.59-3.21-0.95-4.76-1.23 c-0.6-0.19-1.21-0.36-1.82-0.52c-1.14-0.31-3.21-0.88-3.74-1.37c0.07-0.21,0.34-0.78,1.35-1.81l7.68-7.98l8.5-8.84 C22.11,4.32,22.89,4,23.77,4s1.74,0.33,2.36,0.92L26.77,5.59z"/><path fill="#fafafa" d="M33.07,12.13c-0.03,0.1-0.08,0.18-0.13,0.24l-3.05-2.51l-0.6,3.69l-2.51-1.37l-4.09,2.62l-0.4-1.62 l-0.95-3.89l-2.18,4.79l-5.45-0.04c-0.34,0-0.55-0.12-0.65-0.31l8.5-8.84C22.11,4.32,22.89,4,23.77,4s1.74,0.33,2.36,0.92l0.64,0.67 L33.07,12.13z"/></svg>