<svg xmlns="http://www.w3.org/2000/svg"  viewBox="0 0 48 48" width="1600px" height="1600px"><path fill="#f50057" d="M13.083,42h21.834C38.829,42,42,38.829,42,34.917V13.083C42,9.171,38.829,6,34.917,6H13.083	C9.171,6,6,9.171,6,13.083v21.834C6,38.829,9.171,42,13.083,42z"/><path fill="#ff3d00" d="M13.083,42h21.834C38.829,42,42,38.829,42,34.917V13.083L6,34.917C6,38.829,9.171,42,13.083,42z"/><path fill="#ff1744" d="M42,13.083L6,34.917C6,38.829,9.171,42,13.083,42h0.042L42,24.487V13.083z"/><path fill="#fff" d="M30.5,12H15v-2h-3v2h-2v3h20.5c1.378,0,2.5,1.121,2.5,2.5V30h3V17.5C36,14.468,33.533,12,30.5,12z"/><path fill="#fff" d="M38,33H17.5c-1.378,0-2.5-1.121-2.5-2.5V18h-3v12.5c0,3.032,2.467,5.5,5.5,5.5H33v2h3v-2h2V33z"/><path fill="#fff" d="M24,31c-3.86,0-7-3.141-7-7s3.14-7,7-7s7,3.141,7,7S27.86,31,24,31z M24,20c-2.206,0-4,1.794-4,4	s1.794,4,4,4s4-1.794,4-4S26.206,20,24,20z"/></svg>