<svg xmlns="http://www.w3.org/2000/svg"  viewBox="0 0 48 48" width="1600px" height="1600px"><circle cx="24" cy="24" r="20" fill="#f1f1f1"/><path fill="#0090fb" d="M11.15,19.237c2.863-2.234,6.067-4.121,9.535-5.405	c0.424-0.157,0.453-0.741,0.04-0.926c-0.954-0.428-2.181-0.966-2.449-1.067c-1.563-0.589-3.171-1.073-4.805-1.446	c-0.625-0.143-1.294,0.024-1.762,0.462c-3.21,3.002-5.322,7.163-5.661,11.818c-0.034,0.472,0.534,0.723,0.863,0.384	C8.236,21.694,9.652,20.416,11.15,19.237z" opacity=".9"/><path fill="#0af" d="M21.6,10.516c3.332,1.4,6.499,3.317,9.252,5.749	c0.334,0.295,0.862,0.056,0.835-0.388c-0.156-2.618-0.578-5.242-1.286-7.778c-0.188-0.673-0.732-1.18-1.403-1.376	C27.412,6.259,25.738,6,24,6c-2.804,0-5.451,0.651-7.815,1.798c-0.423,0.205-0.357,0.819,0.098,0.936	C18.092,9.201,19.87,9.794,21.6,10.516z" opacity=".9"/><path fill="#0090fb" d="M34.192,15.883c0.309,3.692,0.105,7.467-0.732,11.129	c-0.101,0.441,0.376,0.79,0.753,0.539c0.427-0.285,0.849-0.578,1.263-0.882c1.997-1.479,3.87-3.152,5.566-4.987	c0.432-0.468,0.621-1.125,0.478-1.746c-1.055-4.568-3.84-8.47-7.638-10.971c-0.386-0.254-0.876,0.098-0.762,0.546	C33.649,11.6,34.009,13.731,34.192,15.883z" opacity=".9"/><path fill="#0075f8" d="M13.357,32.633c-0.506-3.571-0.532-7.271,0.108-10.889	c0.079-0.447-0.415-0.767-0.78-0.497c-0.74,0.549-1.659,1.243-2.06,1.579c-1.291,1.082-2.517,2.247-3.663,3.486	c-0.46,0.497-0.612,1.199-0.456,1.857c1.043,4.395,3.694,8.16,7.302,10.647c0.392,0.27,0.899-0.096,0.767-0.554	C14.043,36.42,13.634,34.539,13.357,32.633z" opacity=".9"/><path fill="#0075f8" d="M36.991,28.656c-2.825,2.224-5.982,4.111-9.401,5.415	c-0.414,0.158-0.451,0.737-0.049,0.924c2.118,0.989,4.328,1.796,6.59,2.397c0.144,0.038,0.289,0.075,0.433,0.11	c0.645,0.158,1.34,0.003,1.821-0.454c3.155-2.994,5.229-7.115,5.566-11.721c0.034-0.471-0.534-0.722-0.863-0.384	C39.806,26.266,38.437,27.507,36.991,28.656z" opacity=".9"/><path fill="#005bf4" d="M26.063,37.062c-3.38-1.502-6.611-3.45-9.457-5.904	c-0.343-0.295-0.867-0.036-0.825,0.414c0.071,0.758,0.156,1.569,0.184,1.775c0.307,2.219,0.805,4.423,1.486,6.568	c0.191,0.602,0.664,1.089,1.267,1.277C20.389,41.71,22.159,42,24,42c2.894,0,5.62-0.695,8.04-1.912	c0.415-0.209,0.353-0.812-0.095-0.935C29.937,38.602,27.97,37.905,26.063,37.062z" opacity=".9"/><path fill="#414141" d="M18.597,18.057l6.133-1.988c0.629-0.204,1.319-0.063,1.817,0.371l4.802,4.181	c0.515,0.448,0.747,1.141,0.606,1.809l-1.29,6.111c-0.139,0.66-0.62,1.194-1.262,1.402l-6.133,1.988	c-0.629,0.204-1.319,0.063-1.817-0.371l-4.802-4.181c-0.515-0.448-0.747-1.141-0.606-1.809l1.29-6.111	C17.475,18.8,17.956,18.265,18.597,18.057z"/></svg>