<svg xmlns="http://www.w3.org/2000/svg"  viewBox="0 0 48 48" width="1600px" height="1600px" baseProfile="basic"><polygon fill="#1c1c1c" points="41.121,21.031 43.722,27.983 42.208,27.983 41.362,25.72 38.011,25.72 38.501,24.268 40.818,24.268 39.607,21.031"/><polygon fill="#1c1c1c" points="5.544,21.031 2.543,25.79 2.543,21.031 1.029,21.031 1.029,27.983 1.159,27.983 2.543,27.983 2.856,27.983 7.241,21.031"/><polygon fill="#1c1c1c" points="4.745,26.398 5.727,27.983 7.424,27.983 5.593,25.06"/><path fill="#1c1c1c" d="M10.538,21.022c-1.927,0-3.489,1.562-3.489,3.489C7.05,26.438,8.612,28,10.538,28	c1.927,0,3.489-1.562,3.489-3.489C14.027,22.584,12.465,21.022,10.538,21.022z M10.538,26.512c-1.103,0-2.001-0.898-2.001-2.001	s0.898-2.001,2.001-2.001c1.104,0,2.001,0.898,2.001,2.001S11.642,26.512,10.538,26.512z"/><path fill="#1c1c1c" d="M24.511,21.022c-1.927,0-3.489,1.562-3.489,3.489c0,1.927,1.562,3.489,3.489,3.489	S28,26.438,28,24.511C28,22.584,26.438,21.022,24.511,21.022z M24.511,26.512c-1.103,0-2.001-0.898-2.001-2.001	s0.898-2.001,2.001-2.001s2.001,0.898,2.001,2.001S25.615,26.512,24.511,26.512z"/><path fill="#1c1c1c" d="M18.056,21.022c-1.927,0-3.489,1.562-3.489,3.489c0,1.927,1.562,3.489,3.489,3.489	c0.225,0,0.445-0.022,0.659-0.063l0.767-2.023c-0.363,0.369-0.868,0.599-1.426,0.599c-1.103,0-2.001-0.898-2.001-2.001	s0.898-2.001,2.001-2.001c1.067,0,1.942,0.84,1.998,1.893l0.766-2.02C20.181,21.556,19.181,21.022,18.056,21.022z"/><polygon fill="#1c1c1c" points="38.554,21.031 37.04,21.031 35.465,25.708 33.899,21.057 33.908,21.031 33.89,21.031 32.394,21.031 32.377,21.031 32.385,21.057 30.877,25.674 29.314,21.031 27.8,21.031 30.132,27.956 30.123,27.983 30.141,27.983 31.637,27.983 31.654,27.983 31.646,27.956 33.154,23.339 34.708,27.957 34.7,27.983 34.717,27.983 36.213,27.983 36.231,27.983 36.222,27.957"/><polygon fill="#1c1c1c" points="44,21.017 43,21.017 43,22 44,22 44.009,23 45,23 44.98,20 43.989,20"/><rect width=".75" height="1" x="45.625" y="21" fill="#1c1c1c"/></svg>