<svg xmlns="http://www.w3.org/2000/svg"  viewBox="0 0 48 48" width="1600px" height="1600px"><path fill="#bdbdbd" d="M42,37c0,2.8-2.2,5-5,5H11c-2.8,0-5-2.2-5-5V11c0-2.8,2.2-5,5-5h26c2.8,0,5,2.2,5,5V37z"/><path fill="#daaee2" d="M24 11L24 24 17.5 12.7z"/><path fill="#f8bbd0" d="M30.5 12.7L35.3 17.5 24 24z"/><path fill="#f0a6fd" d="M24 11L30.5 12.7 24 24z"/><path fill="#fff9c4" d="M24 37L24 24 30.5 35.3z"/><path fill="#b2ebf2" d="M17.5 35.3L12.7 30.5 24 24zM24 37L17.5 35.3 24 24z"/><path fill="#ffcdd2" d="M37 24L24 24 35.3 17.5z"/><path fill="#fff9c4" d="M35.3 30.5L30.5 35.3 24 24z"/><path fill="#ffecb3" d="M37 24L35.3 30.5 24 24z"/><path fill="#bbdefb" d="M11 24L24 24 12.7 30.5z"/><path fill="#c6b5e4" d="M12.7 17.5L17.5 12.7 24 24z"/><path fill="#b7bee3" d="M11 24L12.7 17.5 24 24z"/><path fill="#ce93d8" d="M24,17v-6l-3.9-0.2l-2.6,2l3,5.2C21.5,17.3,22.7,17,24,17z"/><path fill="#f48fb1" d="M30.1,20.5l5.2-3l-1.4-3.2l-3.3-1.6l-3,5.2C28.6,18.6,29.4,19.4,30.1,20.5z"/><path fill="#ea80fc" d="M27.5,17.9l3-5.2l-2.9-2L24,11v6C25.3,17,26.5,17.3,27.5,17.9z"/><path fill="#ccff90" d="M24,31v6l3.7,0.4l2.8-2.1l-3-5.2C26.5,30.7,25.3,31,24,31z"/><path fill="#80deea" d="M17.9,27.5l-5.2,3l1.3,3.2l3.4,1.5l3-5.2C19.4,29.4,18.6,28.6,17.9,27.5z"/><path fill="#84ffff" d="M20.5,30.1l-3,5.2l2.7,2.1L24,37v-6C22.7,31,21.5,30.7,20.5,30.1z"/><path fill="#f8bbd0" d="M31,24h6l0.3-3.8l-2-2.7l-5.2,3C30.7,21.5,31,22.7,31,24z"/><path fill="#fff176" d="M27.5,30.1l3,5.2l3.6-1.7l1.2-3.1l-5.2-3C29.4,28.6,28.6,29.4,27.5,30.1z"/><path fill="#ffe082" d="M31,24c0,1.3-0.3,2.5-0.9,3.5l5.2,3l2.1-3L37,24H31z"/><path fill="#4dd0e1" d="M17,24h-6l-0.4,3.6l2.2,2.9l5.2-3C17.3,26.5,17,25.3,17,24z"/><path fill="#b39ddb" d="M20.5,17.9l-3-5.2l-3.1,1.3l-1.7,3.4l5.2,3C18.6,19.4,19.4,18.6,20.5,17.9z"/><path fill="#9fa8da" d="M17.9,20.5l-5.2-3l-2.1,2.8L11,24h6C17,22.7,17.3,21.5,17.9,20.5z"/><path fill="#42a5f5" d="M15.1,21c-1,4,3,12,10.9,12c2.5,0,4.9-1,5-3.7c0-2.3-3.1-4.2-5-4.2c-1.3,0-2.4,0.6-3,1.8 c-0.7,1.3-1.6,1.3-3.9,0.1C16.3,25.5,15.1,21,15.1,21z"/><path fill="#1e88e5" d="M26,25.1c-0.6,0-2,0.2-2,2.5c0,0.8,1,1.5,1,2.4c0,1.1-0.6,2-3.5,2c1.3,0.6,2.9,1,4.5,1 c2.5,0,5-1,5-3.7C31,26.8,27.9,25.1,26,25.1z"/><path fill="#90caf9" d="M22 23.8A0.7 1.2 0 1 0 22 26.2A0.7 1.2 0 1 0 22 23.8Z" transform="rotate(-44.992 22 24.999)"/><path fill="#000001" d="M24,38c-7.7,0-14-6.3-14-14s6.3-14,14-14s14,6.3,14,14S31.7,38,24,38z M24,11c-7.2,0-13,5.8-13,13 c0,7.2,5.8,13,13,13c7.2,0,13-5.8,13-13C37,16.8,31.2,11,24,11z"/><path fill="#757575" d="M23.1 21.3L22.3 22.1 26 25.6 26.5 25.1z"/><path fill="#000001" d="M29.9,27.7c-0.4-1.2-1.2-1.9-2.2-2.4c-0.4-0.2-0.7-0.2-1.1-0.3L26,25.6c-0.1,3,2.4,2.6,3,4 c0.3,0.6-0.1,1.2-0.8,1.4c1.2,0,1.8-1,1.8-2.3C30,28.4,29.9,28,29.9,27.7z"/><path fill="#1a237e" d="M28.6,29c0.2,0.1,0.4,0.3,0.5,0.5c0.3,0.6-0.1,1.2-0.8,1.4c1.2,0,1.8-1,1.8-2.3c0-0.2,0-0.5-0.1-0.7 C29.6,28.7,28.6,29,28.6,29z"/><path fill="#3e2723" d="M10,9C9.3,9.7,22.3,22.1,22.3,22.1l0.8-0.8C23.1,21.3,10.7,8.3,10,9z"/></svg>