<svg xmlns="http://www.w3.org/2000/svg"  viewBox="0 0 48 48" width="1600px" height="1600px" baseProfile="basic"><path fill="#00838f" d="M30,6c0,0.02-0.16,1.15-0.75,3c-0.88,2.79-2.73,7.25-6.44,12.09c-0.19,0.25-0.38,0.51-0.57,0.77	l-1-1.51c0.37-1.25,0.77-4.15-1.99-7.09l-0.03-0.03c-0.1-0.12-0.18-0.19-0.22-0.23c-1.06-1.01-2.08-1.71-4.06-2.6	c-0.29-0.13-0.6-0.26-0.94-0.4c0,1.8,0.19,3.18,0.41,4.15C14.68,15.41,15,16,15,16c1.8,3.6,4.59,4.64,5.61,4.91l1.13,1.7	C18.08,28.23,16.72,35.1,16.25,39c-0.2,1.58-0.25,2.68-0.25,3H9c-1.66,0-3-1.34-3-3V9c0-1.66,1.34-3,3-3H30z"/><path d="M19.22,13.23C19.15,13.16,19.08,13.08,19,13C19.04,13.04,19.12,13.11,19.22,13.23z"/><path fill="#00838f" d="M42,9v30c0,1.66-1.34,3-3,3H19c0-0.31,0.05-1.41,0.26-3c0.14-1.13,0.37-2.5,0.71-4H22	c1,2,3.09,2.3,7,1c4.03-1.34,6.97-5.37,8-7c-1,0-6.67-0.33-10,1c-5,2-5,4-5,4h-1.8c0.89-3.58,2.41-7.72,4.99-11.09	c4.26-5.57,5.84-10.78,6.44-13.91c0.34-1.79,0.36-2.9,0.37-3h7C40.66,6,42,7.34,42,9z"/></svg>