<svg xmlns="http://www.w3.org/2000/svg"  viewBox="0 0 48 48" width="1600px" height="1600px"><path fill="#1976d2" d="M42,4h-8c-0.8,0.8-1.2,1.2-2,2v16.5c0,0,0.1,1.9-0.7,2.1c-0.8,0.2-1.7-1.1-1.7-1.1L14.6,4L6,4v40h8	c0.8-0.8,1.2-1.2,2-2c0,0-0.3-15.7,1.3-15.8C20.4,26,32.8,44,32.8,44l0,0H42V4z"/><path fill="#2770aa" d="M32,6v16.5c0,0,0.1,1.9-0.7,2.1c-0.8,0.2-1.7-1.1-1.7-1.1L22.3,14c-0.5,3.4-0.7,7.3-0.7,11.3	c0,1.5,0,2.9,0.1,4.3C26.4,34.7,32.8,44,32.8,44l0,0h1.7c1.4-4.8,2.3-11.4,2.3-18.7c0-8.6-1.2-16.2-3.1-21C33.1,4.9,32.7,5.3,32,6z"/><path fill="#3a95cc" d="M31.2,24.6c-0.8,0.1-1.6-1.1-1.6-1.1l-6.1-7.9c-2.5-2,10.4,23.2,12.2,21.7c1.8-1.4-0.7-7.9-4.3-12.5	C31.4,24.8,31.3,24.7,31.2,24.6z"/><path fill="#1e88e5" d="M17.3,26.2C20.4,26,32.8,44,32.8,44h0l0,0H42v-0.7L23.6,15.7L14.6,4L6.7,4c1.4,11.8,3.6,26,7.3,40	c0.8-0.8,1.2-1.2,2-2C16,42,15.7,26.3,17.3,26.2z"/><path fill="#2559aa" d="M15.8,14.6C11.5,15.7,14,44,14,44c0.8-0.8,1.2-1.2,2-2c0,0-0.3-15.7,1.3-15.8C20.4,26,32.8,44,32.8,44h0	C32.8,44,19.7,13.6,15.8,14.6z"/></svg>