<svg xmlns="http://www.w3.org/2000/svg"  viewBox="0 0 48 48" width="1600px" height="1600px"><path fill="#212121" d="M24,5C13.523,5,5,13.524,5,24s8.523,19,19,19s19-8.523,19-19S34.477,5,24,5z"/><path fill="#f9b621" d="M24,4C12.972,4,4,12.972,4,24s8.972,20,20,20s20-8.972,20-20S35.028,4,24,4z M24,42	c-9.925,0-18-8.075-18-18S14.075,6,24,6s18,8.075,18,18S33.925,42,24,42z"/><path fill="#f9b621" d="M39.216,19.102c-1.54-4.792-5.267-8.598-10.017-10.23c-0.306-0.105-0.631,0.118-0.649,0.441	c-0.067,1.206-0.212,3.808-0.279,5.029C28.25,14.713,27.943,15,27.572,15h-2.989c-0.53,0-1.039-0.211-1.414-0.586l-4.735-4.735	c-0.292-0.292-0.74-0.385-1.116-0.212c-3.899,1.796-6.941,5.115-8.384,9.195C8.702,19.313,9.191,20,9.881,20h10.32	c0.839,0,1.64,0.351,2.208,0.969l4.327,4.704C26.906,25.858,27,26.099,27,26.35v12.094c0,0.665,0.638,1.145,1.278,0.968	c4.298-1.191,7.861-4.132,9.89-8.009c0.194-0.37,0.121-0.827-0.164-1.134l-4.471-4.824C33.19,25.075,33,24.589,33,24.085V21	c0-0.552,0.448-1,1-1h4.541C39.008,20,39.358,19.546,39.216,19.102z M30.471,22.618c-0.94,0.809-2.807,0.292-4.172-1.154	c-1.364-1.446-1.709-3.273-0.769-4.082s2.807-0.292,4.172,1.154C31.066,19.982,31.41,21.809,30.471,22.618z"/></svg>