<svg xmlns="http://www.w3.org/2000/svg"  viewBox="0 0 48 48" width="1600px" height="1600px"><path fill="#e1e7ea" d="M8 4H40V44H8z"/><path fill="#b0bec5" d="M21.999,30L21.999,30c-1.209,0-2.376,0.438-3.287,1.234c-1.489,1.3-3.016,5.409-3.603,7.116 l-1.031,2.995l3.148-0.358c2.37-0.269,6.568-0.916,8.063-2.221c1.006-0.878,1.61-2.096,1.7-3.429c0.09-1.332-0.344-2.62-1.222-3.626 C24.817,30.624,23.443,30,21.999,30L21.999,30z"/><path fill="#90caf9" d="M10 6H38V36H10z"/><path fill="#e3f2fd" d="M10 20L10 36 38 36 38 24 27 20z"/><path fill="#e3f2fd" d="M17 14A4 4 0 1 0 17 22A4 4 0 1 0 17 14Z"/><path fill="#e3f2fd" d="M12.5 17c-.981 0-1.865.406-2.5 1.056v4.889C10.635 23.594 11.519 24 12.5 24c1.933 0 3.5-1.567 3.5-3.5S14.433 17 12.5 17zM22 17A3 3 0 1 0 22 23 3 3 0 1 0 22 17zM38 21.184C37.686 21.072 37.353 21 37 21c-1.657 0-3 1.343-3 3s1.343 3 3 3c.353 0 .686-.072 1-.184V21.184z"/><path fill="#e3f2fd" d="M27 18A3 3 0 1 0 27 24A3 3 0 1 0 27 18Z"/><path fill="#e3f2fd" d="M32 17A4 4 0 1 0 32 25A4 4 0 1 0 32 17Z"/><path fill="#bbdefb" d="M38 25.621L38 21 24 34 23.167 36 26.773 36z"/><path fill="#1565c0" d="M10 36L10 23 14.5 27 19 23 24 27 26.5 25 38 34 38 36z"/><path fill="#0d47a1" d="M24 27L26.5 25 38 34 38 36 35 36z"/><path fill="#1a237e" d="M33.092 30.159L30.403 28.054 28.007 30.279 30.635 32.429z"/><path fill="#0d47a1" d="M10 23L14.5 27 10 31zM28.007 30.279L24 34 23.167 36 26.773 36 30.635 32.429z"/><path fill="#ff1744" d="M22.417,32.084l20.93-16.85c0.419-0.359,1.05-0.311,1.41,0.109c0.359,0.419,0.31,1.05-0.109,1.41 L24.93,34.98L22.417,32.084z"/><path fill="#fff" d="M23.973,37.26C22.725,38.35,17,39,17,39s1.779-5.17,3.027-6.26c1.248-1.09,3.143-0.961,4.233,0.287 C25.349,34.275,25.221,36.17,23.973,37.26z"/></svg>