<svg xmlns="http://www.w3.org/2000/svg"  viewBox="0 0 48 48" width="1600px" height="1600px" baseProfile="basic"><polygon fill="#9575cd" points="6,28 20,42 31,42 6,17"/><path fill="#9c7ee0" d="M6,11v6l25,25h6c1.381,0,2.631-0.56,3.536-1.464L7.464,7.464C6.56,8.369,6,9.619,6,11z"/><path fill="#955da0" d="M6,37c0,2.762,2.239,5,5,5h9L6,28V37z"/><path fill="#b3e5fc" d="M42,11c0-2.762-2.238-5-5-5h-9l14,14V11z"/><path fill="#b1a4e0" d="M42,37v-6L17,6h-6C9.619,6,8.369,6.56,7.464,7.464l33.071,33.071C41.44,39.631,42,38.381,42,37z"/><polygon fill="#94def7" points="42,20 28,6 17,6 42,31"/><path fill="#cfd8dc" d="M28.333,34.001c-2.15,0-4.004-0.585-5.056-1.685c-0.236-0.247-0.33-0.597-0.249-0.929 c0.548-2.239,3.279-4.377,6.798-5.319c2.515-0.676,6.25-0.339,7.896,1.382c0.236,0.247,0.33,0.597,0.249,0.929 c-0.565,2.312-3.632,4.472-6.147,5.146C30.628,33.846,29.44,34.001,28.333,34.001z M25.195,31.305 c1.163,0.71,3.434,1.005,6.111,0.288l0,0c1.817-0.487,3.78-1.895,4.488-3.128c-1.231-0.715-3.633-0.952-5.451-0.465 C27.664,28.718,25.848,30.109,25.195,31.305z"/><path fill="#cfd8dc" d="M19.667,34.001c-1.107,0-2.295-0.155-3.491-0.477c-2.516-0.674-5.582-2.833-6.147-5.146 c-0.081-0.332,0.013-0.682,0.249-0.929c1.646-1.721,5.379-2.058,7.896-1.382l0,0c3.519,0.942,6.25,3.08,6.798,5.319 c0.081,0.332-0.013,0.682-0.249,0.929C23.671,33.415,21.817,34.001,19.667,34.001z M12.205,28.465 c0.708,1.233,2.671,2.641,4.488,3.128c2.681,0.719,4.95,0.422,6.111-0.288c-0.652-1.195-2.469-2.587-5.148-3.305l0,0 C15.838,27.512,13.436,27.75,12.205,28.465z"/><path fill="#eceff1" d="M24.082,32.625c-0.033,0-0.066,0-0.101-0.001c-0.341-0.008-0.655-0.188-0.832-0.48 c-1.46-2.402-0.93-6.633,1.318-10.526c1.593-2.76,5.146-5.672,7.943-5.672c0.03,0,0.06,0.001,0.089,0.001 c0.341,0.008,0.655,0.188,0.832,0.48c1.46,2.402,0.716,7.003-0.895,9.792l0,0C30.217,30.065,26.872,32.625,24.082,32.625z M31.867,18.004c-1.821,0.366-4.401,2.421-5.667,4.613c-1.861,3.223-2.192,6.281-1.591,7.957c1.753-0.317,4.235-2.133,6.096-5.355 l0,0C31.972,23.026,32.46,19.765,31.867,18.004z"/><path fill="#eceff1" d="M23.926,32.625c-2.791,0-6.136-2.559-8.356-6.406c-1.61-2.788-2.354-7.388-0.895-9.791 c0.177-0.292,0.491-0.474,0.832-0.481c0.029,0,0.06-0.001,0.089-0.001c2.797,0,6.35,2.912,7.944,5.672l0,0 c2.247,3.894,2.777,8.124,1.318,10.525c-0.177,0.292-0.491,0.474-0.832,0.481C23.993,32.625,23.959,32.625,23.926,32.625z M16.14,18.004c-0.593,1.761-0.104,5.023,1.162,7.215c1.859,3.223,4.343,5.038,6.096,5.355c0.602-1.676,0.271-4.734-1.59-7.957 C20.542,20.425,17.961,18.371,16.14,18.004z"/><linearGradient id="elzBR36pSCLIXCvmRxJkDa" x1="30.24" x2="32.69" y1="26.873" y2="26.873" gradientUnits="userSpaceOnUse"><stop offset="0" stop-color="#92a3b0"/><stop offset=".336" stop-color="#a3b5c4"/><stop offset=".686" stop-color="#aec2d1"/><stop offset="1" stop-color="#b2c6d6"/></linearGradient><path fill="url(#elzBR36pSCLIXCvmRxJkDa)" d="M30.34,28c0.34-0.09,0.7-0.16,1.07-0.2c0.36-0.5,0.71-1.02,1.03-1.58 c0.09-0.15,0.17-0.31,0.25-0.47c-0.85-0.02-1.69,0.06-2.45,0.23"/><linearGradient id="elzBR36pSCLIXCvmRxJkDb" x1="15.32" x2="17.77" y1="26.873" y2="26.873" gradientUnits="userSpaceOnUse"><stop offset="0" stop-color="#92a3b0"/><stop offset=".336" stop-color="#a3b5c4"/><stop offset=".686" stop-color="#aec2d1"/><stop offset="1" stop-color="#b2c6d6"/></linearGradient><path fill="url(#elzBR36pSCLIXCvmRxJkDb)" d="M17.77,25.98 c-0.76-0.17-1.6-0.25-2.45-0.23c0.08,0.16,0.16,0.32,0.25,0.47c0.32,0.56,0.67,1.08,1.03,1.58c0.36,0.04,0.72,0.11,1.06,0.2"/><path fill="#fff" d="M30.24,25.98c-0.85,1.3-1.78,2.32-2.71,3.08c-0.02,0.05-0.05,0.1-0.08,0.14 c0.79-0.47,1.76-0.9,2.89-1.2c0.34-0.09,0.7-0.16,1.07-0.2c0.36-0.5,0.71-1.02,1.03-1.58c0.09-0.15,0.17-0.31,0.25-0.47 C31.84,25.73,31,25.81,30.24,25.98z"/><path fill="#fff" d="M20.47,29.06c-0.92-0.76-1.86-1.78-2.7-3.08c-0.76-0.17-1.6-0.25-2.45-0.23 c0.08,0.16,0.16,0.32,0.25,0.47c0.32,0.56,0.67,1.08,1.03,1.58c0.36,0.04,0.72,0.11,1.06,0.2c1.13,0.3,2.1,0.73,2.89,1.2 C20.52,29.16,20.49,29.11,20.47,29.06z"/><path fill="#fff" d="M24,29.53c0.1-0.14,0.22-0.27,0.35-0.41c-0.06-1.13,0.15-2.54,0.71-4.06 c-0.26-0.85-0.62-1.72-1.05-2.57c-0.45,0.86-0.8,1.73-1.06,2.58c0.56,1.52,0.77,2.93,0.71,4.06C23.78,29.26,23.9,29.4,24,29.53z"/><path fill="#fff" d="M26.89,31.87c-0.01,0-0.02,0.01-0.03,0.01c-0.95,0.48-1.89,0.74-2.78,0.74h-0.05 c0.07,0,0.15-0.01,0.22-0.03c0.07-0.02,0.15-0.05,0.22-0.08c0.02-0.01,0.03-0.02,0.05-0.04c0.42-0.23,0.82-0.53,1.2-0.9 c0.01,0,0.02-0.01,0.03-0.03L26.89,31.87z"/><g><path fill="#fff" d="M23.98,32.62h-0.05c-0.89,0-1.84-0.26-2.79-0.74c-0.01,0-0.01-0.01-0.02-0.01l1.09-0.37 c0.02,0.03,0.04,0.05,0.06,0.06c0.38,0.37,0.78,0.68,1.21,0.92c0.03,0.01,0.05,0.03,0.07,0.03c0.07,0.04,0.13,0.06,0.2,0.08 C23.83,32.61,23.9,32.62,23.98,32.62z"/></g><g><path fill="#fff" d="M24,32.625c-0.166,0-0.331-0.041-0.48-0.123c-2.853-1.564-4.77-6.137-4.77-11.377 c0-3.749,1.916-8.813,4.77-10.377c0.299-0.164,0.662-0.164,0.961,0c2.854,1.563,4.77,6.628,4.77,10.377 c0,5.24-1.917,9.812-4.77,11.377C24.331,32.584,24.166,32.625,24,32.625z M24,12.828c-1.754,1.42-3.25,5.139-3.25,8.297 c0,4.128,1.313,7.824,3.25,9.308c1.937-1.483,3.25-5.18,3.25-9.308C27.25,17.967,25.754,14.248,24,12.828z"/></g></svg>