<svg xmlns="http://www.w3.org/2000/svg"  viewBox="0 0 48 48" width="1600px" height="1600px" baseProfile="basic"><rect width="39.007" height="40" x="3.993" y="4" fill="none"/><polygon fill="#d81b60" points="32.41,29.562 33.973,31.943 37.706,29.428 43,19.6 39.198,17.432"/><polygon fill="#d81b60" points="36.388,15.83 30.409,26.512 32.41,29.562 39.198,17.432"/><polygon fill="#dd3055" points="33.577,14.227 28.409,23.462 30.409,26.512 36.388,15.83"/><polygon fill="#e2454a" points="30.766,12.625 26.408,20.413 28.409,23.462 33.577,14.227"/><polygon fill="#e7593f" points="27.955,11.022 24.407,17.363 26.408,20.413 30.766,12.625"/><polygon fill="#ec6e34" points="25.144,9.419 22.406,14.313 24.407,17.363 27.955,11.022"/><polygon fill="#f08328" points="22.333,7.817 20.405,11.263 22.406,14.313 25.144,9.419"/><polygon fill="#f5981d" points="19.522,6.214 18.404,8.214 20.405,11.263 22.333,7.817"/><polygon fill="#faac12" points="16.712,4.612 16.403,5.164 18.404,8.214 19.522,6.214"/><polygon fill="#ffc107" points="15.639,4 16.403,5.164 16.712,4.612"/><g><polygon fill="#304ffe" points="28.679,4.629 27.721,5.596 28.893,5.161"/><polygon fill="#304ffe" points="28.893,5.161 27.721,5.596 23.189,10.175 29.909,7.68"/><polygon fill="#4e41e3" points="29.909,7.68 23.189,10.175 21.1,12.286 21.266,13.786 30.924,10.199"/><polygon fill="#6636ce" points="30.924,10.199 21.266,13.786 21.573,16.568 31.939,12.718"/><polygon fill="#782ebe" points="32.134,13.2 31.939,12.718 21.573,16.568 21.88,19.35 33.043,15.204"/><polygon fill="#8528b2" points="33.043,15.204 21.88,19.35 22.187,22.132 34.168,17.683"/><polygon fill="#8c25ac" points="34.168,17.683 22.187,22.132 22.494,24.914 35.293,20.161"/><polygon fill="#8e24aa" points="35.293,20.161 22.494,24.914 22.801,27.697 36.418,22.64"/><polygon fill="#8e24aa" points="36.418,22.64 22.801,27.697 23.072,30.153 37.411,24.828"/><polygon fill="#8827b0" points="37.411,24.828 23.072,30.153 23.343,32.61 38.405,27.017"/><polygon fill="#7c2cba" points="38.405,27.017 23.343,32.61 23.614,35.067 39.398,29.206"/><polygon fill="#6d33c7" points="39.398,29.206 23.614,35.067 23.885,37.524 40.391,31.395"/><polygon fill="#5b3bd7" points="40.391,31.395 23.885,37.524 24.157,39.981 41.385,33.583"/><polygon fill="#4745ea" points="41.385,33.583 24.157,39.981 24.165,40.057 26.896,41.521 42.378,35.772"/><polygon fill="#304ffe" points="26.896,41.521 29.715,43.032 38.771,39.669 43,37.143 42.378,35.772"/><polygon fill="#304ffe" points="31.521,44 38.771,39.669 29.715,43.032"/></g><g><polygon fill="#d81b60" points="15.639,4 3.993,12.057 5.314,20.416 23.07,15.292"/><polygon fill="#d81b60" points="23.07,15.292 5.314,20.416 5.695,22.822 24.462,17.406"/><polygon fill="#dc2d56" points="24.462,17.406 5.695,22.822 6.075,25.228 25.853,19.521"/><polygon fill="#e1404c" points="25.853,19.521 6.075,25.228 6.456,27.634 27.245,21.635"/><polygon fill="#e55242" points="27.245,21.635 6.456,27.634 6.836,30.039 28.636,23.749"/><polygon fill="#e96538" points="28.636,23.749 6.836,30.039 7.217,32.445 30.027,25.863"/><polygon fill="#ee772f" points="30.027,25.863 7.217,32.445 7.597,34.851 31.419,27.977"/><polygon fill="#f28a25" points="31.419,27.977 7.597,34.851 7.978,37.257 32.81,30.092"/><polygon fill="#f69c1b" points="7.978,37.257 8.339,39.543 8.523,39.615 33.449,32.423 34.028,31.943 32.81,30.092"/><polygon fill="#fbaf11" points="12.216,41.066 28.787,36.284 33.449,32.423 8.523,39.615"/><polygon fill="#ffc107" points="15.907,42.516 24.126,40.145 28.787,36.284 12.216,41.066"/><polygon fill="#ffc107" points="19.54,43.943 24.126,40.145 15.907,42.516"/></g><path fill="#212121" d="M36,36H12V12h24V36z"/><path fill="#fff" d="M23.988,32.558H14.99v-1.543h8.998V32.558z"/><path fill="#fff" d="M23.989,24h3.386c2.786,0,4.75-2.109,4.75-4.617c0-2.451-1.895-4.389-4.681-4.389	h-3.455V24z M27.444,16.753c1.616,0,2.675,1.12,2.675,2.77c0,1.591-1.114,2.711-2.675,2.711l-1.417,0.003v-5.484L27.444,16.753z"/><path fill="#fff" d="M14.962,23.986h2.006v-2.734h1.505l1.839,2.734h2.285l-2.173-3.19	c0.557-0.228,1.003-0.57,1.337-1.025c0.334-0.456,0.502-1.025,0.502-1.766v-0.057c0-0.854-0.223-1.538-0.724-2.051	c-0.613-0.57-1.449-0.911-2.563-0.911h-4.012V23.986z M16.968,19.315v-2.563h1.895c0.502,0,0.836,0.171,1.114,0.342	c0.279,0.228,0.39,0.513,0.39,0.968v0.057c0,0.342-0.111,0.684-0.39,0.911c-0.279,0.228-0.656,0.285-1.102,0.285H16.968z"/></svg>