<svg xmlns="http://www.w3.org/2000/svg"  viewBox="0 0 48 48" width="1600px" height="1600px" baseProfile="basic"><path fill="#42a5f5" d="M18.662,44.354c-4.418,0-8-3.582-8-8v-7.393c-0.026-0.58-0.014-1.132,0.032-1.644 c0.133-1.485,0.665-2.843,1.482-3.972c-0.979-2.99-0.706-5.696-0.556-6.666c0.817-5.455,4.855-10.804,11.122-11.116 c1.448-1.237,3.353-1.985,5.396-1.914c4.416,0.11,7.907,3.78,7.797,8.197c0,0.033-0.084,3.438-0.084,8.122 c0,0.826-0.125,1.624-0.358,2.375c1.223,1.899,1.729,3.9,1.817,5.508c0.135,1.69,0.069,5.617-2.776,9.071 c-1.536,1.864-4.38,4.153-9.198,4.467c-0.161,0.01-0.32,0.019-0.478,0.025C23.391,43.209,21.16,44.354,18.662,44.354z"/><path fill="#fff" d="M32.99,35.65c-1.28,1.56-3.68,3.48-7.78,3.74c-0.47,0.03-0.94,0.05-1.39,0.04 c-1.08,1.79-3.03,2.92-5.16,2.92c-3.31,0-6-2.69-6-6v-7.56c-0.02-0.54,0-1.01,0.03-1.29c0.12-1.43,0.76-2.76,1.78-3.76 c-1.34-3-1.01-5.92-0.87-6.8c0.7-4.57,4.04-9.39,9.75-9.39h0.2c1.14-1.22,2.74-1.9,4.46-1.9h0.06c1.62,0.04,3.11,0.7,4.22,1.86 c1.1,1.16,1.69,2.68,1.65,4.29c-0.03,1.19-0.09,4.25-0.09,8.17c0,0.93-0.21,1.84-0.62,2.67c1.81,2.24,2.07,4.55,2.09,5.49 C35.41,29.4,35.37,32.77,32.99,35.65z"/><path fill="#fb8c00" d="M18.662,37.354c-0.553,0-1-0.447-1-1v-7.7c-0.021-0.409,0.001-0.677,0.004-0.711 c0.048-0.533,0.505-0.94,1.041-0.91c0.534,0.023,0.955,0.464,0.955,0.999v0.571c0.04,0.652,0.234,1.831,1.077,2.687 c0.847,0.861,2.198,1.243,4.014,1.119c1.289-0.084,2.243-0.49,2.835-1.209c0.919-1.114,0.747-2.679,0.745-2.694 c-0.009-0.068-0.01-0.139-0.005-0.208c0.002-0.073,0.024-2.324-4.46-3.095c-1.906-0.327-3.346-1.169-4.278-2.503 c-1.53-2.187-1.065-4.876-1.045-4.989c0.268-1.831,1.667-5.307,5.02-5.155c1.514,0.072,2.577,0.631,3.331,1.437 c0.021-1.474,0.043-2.353,0.043-2.37c0.014-0.543,0.459-0.975,1-0.975c0.008,0,0.017,0,0.025,0 c0.552,0.014,0.988,0.473,0.975,1.025c-0.001,0.034-0.087,3.513-0.087,8.297c0,0.532-0.417,0.972-0.948,0.999 c-0.526,0.02-0.991-0.366-1.047-0.896c-0.304-2.945-0.77-5.395-3.388-5.519c-0.038-0.002-0.076-0.003-0.114-0.003 c-2.282,0-2.814,3.342-2.836,3.486c-0.007,0.039-0.202,1.212,0.184,2.434c0.485,1.536,1.632,2.439,3.504,2.762 c5.835,1.002,6.124,4.406,6.12,5.106c0.041,0.452,0.142,2.513-1.194,4.134c-0.957,1.161-2.387,1.812-4.25,1.933 c-2.208,0.14-3.963-0.324-5.22-1.389v3.338C19.662,36.906,19.215,37.354,18.662,37.354z"/></svg>