<svg xmlns="http://www.w3.org/2000/svg"  viewBox="0 0 48 48" width="1600px" height="1600px" baseProfile="basic"><path fill="#1e88e5" d="M1.969,18.402c0,1.974,0.367,3.857,1.008,5.609c2.291-6.267,8.29-10.75,15.35-10.75	s13.059,4.482,15.35,10.75c0.64-1.752,1.008-3.635,1.008-5.609c0-9.034-7.324-16.358-16.358-16.358S1.969,9.367,1.969,18.402z"/><path fill="#43a047" d="M29.551,2.043c-1.974,0-3.857,0.367-5.609,1.008c6.267,2.291,10.75,8.29,10.75,15.35	s-4.482,13.059-10.75,15.35c1.752,0.64,3.635,1.008,5.609,1.008c9.034,0,16.358-7.324,16.358-16.358S38.586,2.043,29.551,2.043z"/><path fill="#ffc400" d="M45.909,29.62c0-1.974-0.367-3.857-1.008-5.609c-2.291,6.267-8.29,10.75-15.35,10.75	s-13.059-4.482-15.35-10.75c-0.64,1.752-1.008,3.635-1.008,5.609c0,9.034,7.324,16.358,16.358,16.358S45.909,38.655,45.909,29.62z"/><path fill="#e53935" d="M18.327,45.979c1.974,0,3.857-0.367,5.609-1.008c-6.267-2.291-10.75-8.29-10.75-15.35	s4.482-13.059,10.75-15.35c-1.752-0.64-3.635-1.008-5.609-1.008c-9.034,0-16.358,7.324-16.358,16.358S9.293,45.979,18.327,45.979z"/></svg>