<svg xmlns="http://www.w3.org/2000/svg"  viewBox="0 0 48 48" width="1600px" height="1600px" baseProfile="basic"><path fill="#cfd8dc" d="M18.008,21.047v23.086h21.884c1.428,0,2.571-1.164,2.571-2.594V23.641	c0-1.44-1.154-2.594-2.571-2.594H18.008z"/><path fill="#0b552b" d="M5.688,21.358c-1.112,8.606,2.74,17.801,12.354,22.722V33.322L18,33.364L5.688,21.358z"/><path fill="#0b8142" d="M12.005,13.621v0.042H8.143c-1.28,2.403-2.11,5.018-2.466,7.694L18,33.385l0.042-0.042V19.562	L18,19.604L12.005,13.621z"/><path fill="#8bc249" d="M30.278,21.137L18.05,33.322V44.08C28.126,38.391,31.455,29.355,30.278,21.137L30.278,21.137z"/><path fill="#aed580" d="M26.385,11.229l-8.334,8.332v13.761l12.238-12.186C29.775,17.557,28.41,14.146,26.385,11.229	L26.385,11.229z"/><path fill="#32ac71" d="M18.05,4.102c-2.329,1.143-4.334,2.624-6.035,4.336v5.184l5.993,5.993l0.042-0.042V4.102L18.05,4.102	z"/><path fill="#b2ff59" d="M18.05,4.102v15.46l8.334-8.332C24.254,8.174,21.409,5.666,18.05,4.102L18.05,4.102z"/></svg>