<svg xmlns="http://www.w3.org/2000/svg"  viewBox="0 0 48 48" width="1600px" height="1600px" baseProfile="basic"><path fill="#b3e5fc" d="M42,13.08v21.84c0,3.31-2.27,6.09-5.34,6.86C36.1,41.93,35.52,42,34.92,42H13.08 c-0.7,0-1.37-0.1-2-0.29C8.15,40.85,6,38.14,6,34.92V13.08C6,9.17,9.17,6,13.08,6h21.84C38.83,6,42,9.17,42,13.08z"/><path fill="#a0a0a0" d="M36.66,41.78C36.1,41.93,35.52,42,34.92,42H13.08c-0.7,0-1.37-0.1-2-0.29 C11.5,40.36,13.36,34.64,16,32c-1.93-3.87-3.87-8.67-3.09-16.22c0.04-0.37,0.46-0.58,0.77-0.37C15.8,16.83,19.1,20.42,20,24 c1,5,1,6,1,6h5c0,0,0-9.23,1.77-15.28c0.11-0.36,0.57-0.48,0.84-0.21C31.26,17.23,32.93,25.48,32,32 C34.28,34.28,35.98,39.43,36.66,41.78z"/><ellipse cx="19" cy="35.5" fill="#1d1d1b" rx="1" ry="1.5"/><ellipse cx="28" cy="35.5" fill="#1d1d1b" rx="1" ry="1.5"/><path fill="none" stroke="#1d1d1b" stroke-linecap="round" stroke-linejoin="round" stroke-miterlimit="10" d="M25,38 c0,1.105-0.672,2-1.5,2S22,39.105,22,38"/></svg>