<svg xmlns="http://www.w3.org/2000/svg"  viewBox="0 0 48 48" width="1600px" height="1600px"><path fill="#039be5" d="M8.229,45.001c-0.287,0-0.576-0.039-0.86-0.118c-0.835-0.231-1.529-0.779-1.955-1.541C5.141,42.851,4.998,42.294,5,41.731V6.283C4.979,4.501,6.406,3.022,8.182,3c0.59-0.013,1.139,0.142,1.632,0.425l31.747,18.079c1.363,0.786,1.839,2.541,1.067,3.913c-0.252,0.449-0.62,0.821-1.063,1.076c-0.001,0.001-0.003,0.002-0.005,0.003L9.811,44.577C9.321,44.857,8.778,45.001,8.229,45.001z"/><path fill="#0277bd" d="M5,22.1v19.632c-0.002,0.563,0.141,1.119,0.415,1.61c0.425,0.762,1.119,1.31,1.955,1.541c0.284,0.079,0.573,0.118,0.86,0.118c0.549,0,1.092-0.144,1.582-0.424l17.33-9.869L5,22.1z"/><path fill="#29b6f6" d="M10,16.284v28.185l29.664-16.893L14.815,13.426c-0.494-0.283-1.042-0.438-1.632-0.425C11.406,13.023,9.979,14.502,10,16.284z"/><path fill="#039be5" d="M10 24.947L10 44.469 13.64 42.396 27.141 34.708z"/><path fill="#29b6f6" d="M25.743,32.001c-0.148,0-0.297-0.02-0.445-0.059c-0.457-0.123-0.85-0.437-1.079-0.859c-0.147-0.271-0.224-0.581-0.219-0.893V17.796c-0.01-0.972,0.759-1.782,1.714-1.796c0.327-0.004,0.641,0.083,0.918,0.255l10.573,6.321c0.758,0.463,1.016,1.437,0.594,2.222c-0.141,0.261-0.345,0.477-0.592,0.625c0,0-0.001,0-0.002,0.001L26.62,31.753C26.354,31.916,26.052,32.001,25.743,32.001z"/><path fill="#81d4fa" d="M25.298,31.942c0.147,0.039,0.297,0.059,0.445,0.059c0.309,0,0.611-0.085,0.877-0.248l9.941-5.944L24,18.656V30.19c-0.004,0.312,0.072,0.621,0.219,0.893C24.448,31.506,24.842,31.819,25.298,31.942z"/></svg>