<svg xmlns="http://www.w3.org/2000/svg"  viewBox="0 0 48 48" width="1600px" height="1600px" baseProfile="basic"><path fill="#455a64" d="M42,11v26c0,2.76-2.24,5-5,5H11c-2.76,0-5-2.24-5-5V11c0-0.34,0.03-0.68,0.1-1 C6.56,7.72,8.58,6,11,6h26c2.42,0,4.44,1.72,4.9,4C41.97,10.32,42,10.66,42,11z"/><path fill="#1de9b6" d="M35.053,40L35.053,40c-0.814,0-1.474-0.66-1.474-1.474V13.474c0-0.814,0.66-1.474,1.474-1.474l0,0 c0.814,0,1.474,0.66,1.474,1.474v25.053C36.526,39.34,35.867,40,35.053,40z"/><circle cx="35.053" cy="23.316" r="2.947" fill="#00bfa5"/><circle cx="25.5" cy="23.5" r="3.5" fill="#00bfa5"/><circle cx="25.75" cy="33.75" r="3.5" fill="#00bfa5"/><circle cx="25.75" cy="33.75" r="1.75" fill="#1d323a"/><path fill="#1d323a" d="M17,22h-7c-0.552,0-1-0.448-1-1v-7c0-0.552,0.448-1,1-1h7c0.552,0,1,0.448,1,1v7 C18,21.552,17.552,22,17,22z"/><rect width="3" height="13" x="15" y="24" fill="#1d323a"/><rect width="3" height="3" x="9" y="34" fill="#f44336"/><path fill="#78909c" d="M41.9,10H6.1C6.56,7.72,8.58,6,11,6h26C39.42,6,41.44,7.72,41.9,10z"/><path fill="#1de9b6" d="M24.485,14.769c0,1.325-0.492,2.057-1.355,2.057c-0.762,0-1.277-0.713-1.29-2.003 c0-1.307,0.564-2.027,1.355-2.027C24.018,12.796,24.485,13.527,24.485,14.769z M22.369,14.829c0,1.014,0.312,1.589,0.792,1.589 c0.54,0,0.797-0.63,0.797-1.625c0-0.959-0.246-1.589-0.792-1.589C22.705,13.204,22.369,13.768,22.369,14.829z"/><path fill="#1de9b6" d="M25.015,16.448c0-0.222,0.15-0.377,0.36-0.377c0.209,0,0.354,0.156,0.354,0.377 c0,0.216-0.138,0.378-0.36,0.378C25.159,16.826,25.015,16.664,25.015,16.448z"/><path fill="#1de9b6" d="M28.805,14.769c0,1.325-0.492,2.057-1.355,2.057c-0.762,0-1.277-0.713-1.29-2.003 c0-1.307,0.564-2.027,1.355-2.027C28.337,12.796,28.805,13.527,28.805,14.769z M26.688,14.829c0,1.014,0.312,1.589,0.792,1.589 c0.54,0,0.797-0.63,0.797-1.625c0-0.959-0.246-1.589-0.792-1.589C27.024,13.204,26.688,13.768,26.688,14.829z"/><polygon fill="#1d323a" points="23.645,24.965 27.355,25.038 25.463,21.787"/></svg>