<svg xmlns="http://www.w3.org/2000/svg"  viewBox="0 0 48 48" width="1600px" height="1600px" baseProfile="basic"><circle cx="24" cy="24" r="20" fill="#757575"/><polygon fill="#fff" points="23,31 23,17.75 17.25,31"/><polygon fill="#fff" points="12,17 16.25,27.5 20.75,17"/><polygon fill="#fff" points="12,31 15,31 12,23.5"/><path fill="#fff" d="M36.5,22.5c0-3.038-2.462-5.5-5.5-5.5h-5.5v2.25H31c1.795,0,3.25,1.455,3.25,3.25	s-1.455,3.25-3.25,3.25h-3V21h-2.5v10H28v-3h2.5l2,3h3.25l-2.377-3.544C35.221,26.569,36.5,24.686,36.5,22.5z"/></svg>