<svg xmlns="http://www.w3.org/2000/svg"  viewBox="0 0 48 48" width="1600px" height="1600px" baseProfile="basic"><path fill="#434345" d="M28,14c1.657,0,3,0,3-1c0-3-2-5-4-5c-1.657,0-3,1-3,3C24,12.657,26.343,14,28,14z"/><path fill="#434345" d="M42.667,39.377L39.92,34.23C39.862,34.133,34.472,24.463,24,25c1.679-1.831,2.791-2.518,3.99-3.7 c0.569,0.322,1.106,0.564,1.53,0.62c0.43,0.06,0.84,0.09,1.23,0.09c0.91,0,1.71-0.16,2.46-0.43c1.88-0.68,3.13-1.72,3.74-3.11 c0.33-0.74,0.27-1.57-0.17-2.27c-0.44-0.71-1.19-1.15-2.02-1.19c-1.51-0.09-2.51,0.75-3.94,1.66c-0.33,0.21-0.76,0.22-1.09,0 C27.98,15.48,24.43,14.1,19,15c-4.17,0.69-7.62,4.7-9.15,6.77c-0.53,0.71,0.07,1.74,0.95,1.58c0.77-0.14,1.73-0.49,2.86-0.89 c0.8-0.28,1.34-1.04,1.34-1.88V20c0-1,1-2.19,3-3c1.8-0.54,4,0,6.73,2c0.44,0.346,1,0.782,1.593,1.211 c-1.34,1.331-3.074,3.108-4.882,5.113C14.259,26.432,5,32.509,5,37c0,2,1.593,2.184,3,2c5.891,0,10.382-6.969,10.613-7.277 c0.222-0.289,0.451-0.576,0.679-0.864c8.447-1.662,14.099,1.147,15.988,2.091c1.14,0.57,1.04,0.96,0.86,1.68 C36.07,34.9,36,35.19,36,35.5c0,1.897,3.682,4.219,5.369,5.161c0.371,0.207,0.831,0.139,1.132-0.162 C42.797,40.203,42.865,39.747,42.667,39.377z M36,17c-1,2-4,1-4,1S34,16,36,17z M8.989,36.999 c-0.867,0.227-1.534-0.779-1.049-1.533c1.928-2.997,7.35-4.53,9.123-4.92C17.019,30.605,12.581,36.057,8.989,36.999z"/></svg>