<svg xmlns="http://www.w3.org/2000/svg"  viewBox="0 0 48 48" width="1600px" height="1600px"><path fill="#bf360c" d="M14,30h20v12H14V30z"/><path fill="#ff9800" d="M24.004,36.996h-7v8h14v-8H24.004z"/><path fill="#ffb74d" d="M23.562,10.175l-8.822,3.529C14.293,13.883,14,14.316,14,14.798v15.903 c0,3.321,1.62,6.434,4.341,8.338l3.003,2.102c1.595,1.116,3.717,1.116,5.312,0l3.003-2.102C32.38,37.134,34,34.022,34,30.701 V14.798c0-0.482-0.293-0.915-0.741-1.094l-8.822-3.529C24.157,10.063,23.843,10.063,23.562,10.175z"/><path fill="#e64a19" d="M26.004,4.996c12.996,0,14.067,10.13,15,15.004C41.837,24.352,46,27.569,46,32 c0,9-11.996,9.996-11.996,9.996s0-21.3,0-21.7l0,0c-0.1-6.5-4-8.3-10-8.3s-9.9,1.9-10,8.3c0,0.4,0,21.7,0,21.7S2,41,2,32 c0-5,3.931-7.452,5-12c1.213-5.163,3-17.004,15.004-17.004C25.004,2.996,26.004,4.996,26.004,4.996z"/><path fill="#efebe9" d="M27.004,25.996c0,0,0.6-3,3.2-3c2.2,0,2.8,1.3,2.8,1.3s-0.9,1.7-2.5,1.7 S29.004,25.996,27.004,25.996z M21.004,25.996c0,0-0.6-3-3.2-3c-2.2,0-2.8,1.3-2.8,1.3s0.9,1.6,2.5,1.6 C19.104,25.896,19.004,25.996,21.004,25.996z"/><path fill="#2e7d32" d="M31.004,24.496c0,0.8-0.7,1.5-1.5,1.5s-1.5-0.7-1.5-1.5c0-0.2,0-0.5,0.2-0.7 c0.4-0.4,0.9-0.7,1.6-0.8l0,0C30.504,23.196,31.004,23.796,31.004,24.496z M17.004,24.496c0,0.8,0.7,1.5,1.5,1.5s1.5-0.7,1.5-1.5 c0-0.2,0-0.5-0.2-0.7c-0.4-0.4-0.9-0.7-1.6-0.8l0,0C17.504,23.196,17.004,23.796,17.004,24.496z"/><path fill="#263238" d="M29.504,23.996c-0.276,0-0.5,0.224-0.5,0.5s0.224,0.5,0.5,0.5s0.5-0.224,0.5-0.5 S29.78,23.996,29.504,23.996z M18.504,23.996c-0.276,0-0.5,0.224-0.5,0.5s0.224,0.5,0.5,0.5s0.5-0.224,0.5-0.5 S18.78,23.996,18.504,23.996z"/><path fill="#424242" d="M27.004,25.996c0,0,0.6-3,3.2-3c2.2,0,2.8,1.3,2.8,1.3s0-0.3-3-0.3 C28.404,23.996,27.004,25.996,27.004,25.996z"/><path fill="#424242" d="M25.004,23.996c2.7-1.3,4-4,6-4s3,3.1,3,3.1s-1-1.5-3-1.5 C29.204,21.596,27.304,23.996,25.004,23.996z M21.004,25.996c0,0-0.6-3-3.2-3c-2.2,0-2.8,1.3-2.8,1.3s0-0.3,3-0.3 C19.604,23.996,21.004,25.996,21.004,25.996z"/><path fill="#424242" d="M23.004,23.996c-2.7-1.3-4-4-6-4s-3,3.1-3,3.1s1-1.5,3-1.5 C18.804,21.596,20.804,23.996,23.004,23.996z"/><path fill="#ff5252" d="M25.304,33.996c-1.1,0-1.3,1-1.3,1s0-1-1.3-1s-2.7,1-2.7,1s1,2,4,2s4-2,4-2 S26.404,33.996,25.304,33.996z"/><path fill="#e64a19" d="M25,10c0,0-1,6-6,11c-2.828,2.828-5,4-5,7l-1-7V10H25z"/><path fill="#424242" d="M22,45l-1-2c-4-2-4-5-4-5v7H22z"/><path fill="#424242" d="M26,45l1-2c4-2,4-5,4-5v7H26z"/></svg>