<svg xmlns="http://www.w3.org/2000/svg"  viewBox="0 0 48 48" width="1600px" height="1600px"><path fill="#fdd835" d="M35.5 28c.8 0 1.5-2.2 1.5-5s-.7-5-1.5-5H34l0 10H35.5zM10.5 28C9.7 28 9 25.8 9 23s.7-5 1.5-5H12l0 10H10.5z"/><path fill="#0d47a1" d="M33,37.2V25H13v12.2c0,1.1-0.6,2-1.5,2.6C8.1,41.9,5,45,5,45h36c0,0-3.1-3.1-6.5-5.2 C33.6,39.3,33,38.3,33,37.2z"/><path fill="#ffb74d" d="M23,4c-11.7,0-11,9-11,9c0,3.7,0,13,0,13v6.6c0,0.9,0.4,1.7,1,2.3l6.1,5.4c0.5,0.5,1.2,0.7,2,0.7H23 h1.9c0.7,0,1.4-0.3,2-0.7l6.1-5.4c0.7-0.6,1-1.4,1-2.3V25c0,0,0-8.3,0-12C34,13,34.7,4,23,4z"/><path fill="#fb8c00" d="M19.4,33.7l-0.9-1.8c0.1,0,1.8-0.9,4.4-0.9c2.6,0,4.4,0.9,4.4,0.9l-0.9,1.8c0,0-1.4-0.7-3.6-0.7 C20.9,33,19.5,33.7,19.4,33.7z"/><path fill="#ffac3e" d="M12,12.3V23c0,0,1-1,4-1V8.2c0-2.2,2-4.4,2-4.4C12.8,5.7,12.1,10.5,12,12.3z"/><path fill="#0d47a1" d="M15.3 29.2c.4.5.7 1.2.7 1.9V40l-3-5.1c-.7-.6-1-1.4-1-2.3V20h2v6.8c0 .5.1.9.4 1.3L15.3 29.2zM34 20v4.5 8.2c0 .9-.4 1.7-1 2.3L30 40v-9c0-.7.2-1.3.7-1.9l.9-1.1c.3-.4.4-.8.4-1.3V20H34z"/><path fill="#ffee58" d="M11,23L11,23c0,1.7,1.3,3.1,3,3.3l7,0.7c0,0,1-1,2-1s2,1,2,1l7-0.7c1.7-0.2,3-1.6,3-3.3l0,0 c0-1.7-1.3-3-3-3H14C12.3,20,11,21.3,11,23z"/><path fill="#c16e14" d="M36,15v6h-4c0,0-1.9,0-4.1-1c-1-0.4-2-1.1-2.9-2c-2.3-2.3-2-7-6-7s-5,2-5,3.3V20 c-0.8,0-1.5,0.3-2,0.8v-1.3c0-0.8-0.7-1.5-1.5-1.5c-0.2,0-0.3,0.1-0.5,0.3V16c0-3.4,1-9,3-9c0.1,0,0.3,0,0.4,0.1 C14.2,4.5,17,1,24,1c3.5,0,8,1,11,4c0,0-1,0.4-1,1C34,7.2,36,9,36,15z"/><path fill="#b71c1c" d="M33,23c0,0.6-0.4,1-1,1h-9h-9c-0.6,0-1-0.4-1-1l0,0c0-0.6,0.4-1,1-1h9h9C32.6,22,33,22.4,33,23 L33,23z"/></svg>