<svg xmlns="http://www.w3.org/2000/svg"  viewBox="0 0 48 48" width="1600px" height="1600px"><path fill="#a31919" d="M33,38.238V26H13v12.238c0,1.065-0.575,2.034-1.484,2.589C8.067,42.933,5,46,5,46h36 c0,0-3.067-3.067-6.516-5.173C33.575,40.272,33,39.304,33,38.238z"/><path fill="#424242" d="M34.46,40.81C30.91,42.22,27.05,43,23,43s-7.91-0.78-11.46-2.19c0.89-0.56,1.46-1.52,1.46-2.57 v-0.89C16.14,38.42,19.5,39,23,39s6.86-0.58,10-1.65v0.89C33,39.29,33.57,40.25,34.46,40.81z"/><path fill="#a31919" d="M33 20.75c0 0-.694-2.75 1.985-2.75C36 18 37 19 37 22s-2.508 6-4 6V20.75zM12.919 20.75c0 0 .694-2.75-1.985-2.75-1.015 0-2.015 1-2.015 4s2.508 6 4 6V20.75z"/><path fill="#c62828" d="M23,2C11.29,2,11,12,11,12c0,3.71,0,20.639,0,20.639c0,0.865,0.373,1.688,1.024,2.258L14,36.625l0,0 l4.152,3.633C18.699,40.736,19.401,41,20.127,41h5.746c0.727,0,1.429-0.264,1.976-0.742L32,36.625l0,0l1.976-1.729 C34.627,34.327,35,33.504,35,32.639c0,0,0-16.929,0-20.639C35,12,34.71,2,23,2z"/><path fill="#b71c1c" d="M16 12v19l-.004 7.371L14 36.62l-1.98-1.72C11.37 34.33 11 33.5 11 32.64c0 0 0-16.93 0-20.64 0 0 .159-5.49 4.999-8.33L16 12zM30 12v19l.004 7.371L32 36.62l1.98-1.72c.65-.57 1.02-1.4 1.02-2.26 0 0 0-16.93 0-20.64 0 0-.159-5.49-4.999-8.33L30 12z"/><path fill="#424242" d="M26 14c0 0 3.357-2 4-2s3 7.593 3 9c0 2.111-1.714 10-3 10s-6-6.593-6-8C24 20.889 26 14 26 14zM20 14c0 0-3.357-2-4-2-.643 0-3 7.593-3 9 0 2.111 1.714 10 3 10s6-6.593 6-8C22 20.889 20 14 20 14z"/><g><path fill="#212121" d="M30 12c.643 0 3 7.593 3 9 0 2.111-1.714 10-3 10V12zM16 12c-.643 0-3 7.593-3 9 0 2.111 1.714 10 3 10V12z"/></g><path fill="#eee" d="M25 22c0 0 1.343 0 3 0s3-.555 3-.667C31 20.781 30.657 20 29 20S25 22 25 22zM21 22c0 0-1.343 0-3 0s-3-.555-3-.667C15 20.781 15.343 20 17 20S21 22 21 22z"/></svg>