<svg xmlns="http://www.w3.org/2000/svg"  viewBox="0 0 48 48" width="1600px" height="1600px"><path fill="#9c5810" d="M10 24H38V43H10z"/><path fill="#424242" d="M34,38.2V26H14v12.2c0,1.1-0.6,2-1.5,2.6C9.1,42.9,6,46,6,46h36c0,0-3.1-3.1-6.5-5.2 C34.6,40.3,34,39.3,34,38.2z"/><path fill="#ffb74d" d="M24,4C12.3,4,13,14,13,14c0,3.7,0,13,0,13v6.6c0,0.9,0.4,1.7,1,2.3l6.1,5.4c0.5,0.5,1.2,0.7,2,0.7 H24h1.9c0.7,0,1.4-0.3,2-0.7l6.1-5.4c0.7-0.6,1-1.4,1-2.3V26c0,0,0-8.3,0-12C35,14,35.7,4,24,4z"/><path fill="#fb8c00" d="M20.4,34.7l-0.9-1.8c0.1,0,1.8-0.9,4.4-0.9c2.6,0,4.4,0.9,4.4,0.9l-0.9,1.8c0,0-1.4-0.7-3.6-0.7 C21.9,34,20.5,34.7,20.4,34.7z"/><path fill="#ffac3e" d="M13 13.3V24c0 0 2-1 5-1V9.2c0-2.2 1-4.4 1-4.4C13.8 6.7 13.1 11.5 13 13.3zM35 13.3V24c0 0-2-1-5-1V9.2c0-2.2-1-4.4-1-4.4C34.2 6.7 34.9 11.5 35 13.3z"/><path fill="#424242" d="M16.3 30.2c.4.5.7 1.2.7 1.9v9l-3-5.1c-.7-.6-1-1.4-1-2.3V21h2v6.8c0 .5.1.9.4 1.3L16.3 30.2zM35 21v4.5 8.2c0 .9-.4 1.7-1 2.3L31 41v-9c0-.7.2-1.3.7-1.9l.9-1.1c.3-.4.4-.8.4-1.3V21H35z"/><path fill="#c62828" d="M26 24c0 0 1.3 0 3 0s3-.6 3-.7c0-.6-.3-1.3-2-1.3S26 24 26 24zM22 24c0 0-1.3 0-3 0s-3-.6-3-.7c0-.6.3-1.3 2-1.3S22 24 22 24z"/><path fill="#424242" d="M25 24c0 0 .5-1.3 2-2 2-1 3-2 4-2 2 0 3 2 3 2s-1.6-.8-2.5-.8C30 22 27 24 26 24S25 24 25 24zM23 24c0 0-.5-1.3-2-2-2-1-3-2-4-2-2 0-3 2-3 2s1.6-.8 2.5-.8C18 22 21 24 22 24S23 24 23 24zM16 11H32V17H16z"/><path fill="#c16e14" d="M38,17C36,8,34,2,27,2c-2,0-3,1-3,1s-1-1-3-1c-7,0-9,6-11,15c-0.8,3.7-2,15-2,15 c0.9-0.2,1.9-0.5,2.6-1.2c2.6-2.1,4.3-5.1,5.1-8.3C16.6,18.6,18,11,21,11c2,0,3,1,3,1s1-1,3-1c3,0,4.4,7.6,5.3,11.5 c0.8,3.3,2.6,6.2,5.1,8.3c0.8,0.6,1.7,1,2.6,1.2C40,32,38.8,20.7,38,17z"/><path fill="#424242" d="M27,43h-6l0.8-2.3c0.1-0.4,0.5-0.7,0.9-0.7h2.6c0.4,0,0.8,0.3,0.9,0.7L27,43z"/></svg>