<svg xmlns="http://www.w3.org/2000/svg"  viewBox="0 0 48 48" width="1600px" height="1600px"><path fill="#689f38" d="M15,8h-1c0-2.2-1.3-3.6-1.4-3.6l0.7-0.7C13.4,3.7,15,5.3,15,8z"/><path fill="#689f38" d="M15,11h-1V8c0-2.2,2.5-5.2,2.6-5.3l0.8,0.6C16.7,4.1,15,6.5,15,8V11z"/><path fill="#a1887f" d="M11,13l-2.8,8c0.7,2.3,1.6,3.8,1.8,5c0.4,1.9,0.5,6.1,2,10s2.1,6.1,5,8s4.2,3,6,3c2,0,5.2-1.2,7-3 s3-3,5-6c1.2-1.9,3.5-7.9,4-14s-3-12-3-12l-8-8l-5,2c0,0-1.7-1.7-2-2c0,0-0.3,0.2-0.7,0.5L20,7L11,13z"/><path fill="#7cb342" d="M20.3,4.5L21,7.8c0.1,0.7-0.2,1.3-0.8,1.6l-0.3,0.1c-0.6,0.3-0.9,0.9-0.8,1.6l1,5.9l-3-5l-3,8 c0,0-2-4-2-7c0,0-1.1,4-3.8,8c-0.4-1.3-0.8-3-0.9-5.2C7,11,7,9,7,9l4.8-1.6L13.1,9L13,10h1l2-3h0.6L17,8l1-1 C18.1,6.3,19.5,5.1,20.3,4.5z"/><path fill="#689f38" d="M40,8c0,6-0.5,9.9-1,16c0,0.1-0.5-3.4-0.8-4.9c-0.1-0.7-0.4-1.4-0.8-2.1l-3.1-4.7 c-0.6-1.1-2.1-1.2-2.9-0.2L30,14v-3.6c0-0.3,0-0.6-0.1-0.8l-0.7-3.4C29.1,5.5,28.5,5,27.8,5h-0.3c-0.8,0-1.6,0.6-1.7,1.4L24,16 l-1-8l1-3c0-3,2-3,2-3l1-2l1,2l1.4-1.3C29.6,0.8,29.8,0.9,30,1c1.1,0.8,1,0.8,1,3c0,1.3,1,5,1,5s0.8-2.2,1-3c0.5-1.9,2-4,2-4 s0.3,0.2,1.3,0.8C38.1,4,38,6,38,6v2l1.6-0.6C39.9,7.8,40,8,40,8z"/><path fill="#6d4c41" d="M35.9 29.6c0-.1-1.2-3.6-4.8-3.6-2.9 0-4 3.5-4 3.6L27 30l.1.3c0 .1 1.2 2.7 4 2.7 3.4 0 4.7-2.5 4.7-2.6L36 30 35.9 29.6zM20.9 29.6c0-.1-1.2-3.6-4.8-3.6-2.9 0-4 3.5-4 3.6L12 30l.1.3c0 .1 1.2 2.7 4 2.7 3.4 0 4.7-2.5 4.7-2.6L21 30 20.9 29.6z"/><path fill="#8d6e63" d="M13.1 9l.9 1c-2 3-2 12-2 12l-1-7.7c-.1-1.4.3-2.9 1.1-4.1L13.1 9zM24 5v4c0 .7-.2 1.3-.4 1.9l-1.3 2.6c-.2.3-.3.7-.3 1.1V18l-.9-3.2c-.1-.5-.1-1 .1-1.5l1.4-3.2c.3-.7.3-1.4 0-2.1L21 4C21.8 4.6 24 5 24 5zM33 6v9l-1-3-.6.6c-.3.3-.5.6-.6.9L29 18v-1.4c0-2.1.5-4.1 1.5-5.9.3-.6.5-1.2.5-1.9V4C31 6.2 32.5 7.9 33 6zM29.4.7l-1.6 4.9c-.5 1.6-.9 3.2-1 4.9L26 20V9.3c0-.9 0-1.7.2-2.6L27 0C27 0 28.4.2 29.4.7zM39.6 7.4c-.1.9-.5 1.7-.9 2.4-1.1 1.8-1.7 3.8-1.7 5.8V21l-.9-6.5c-.2-1.6 0-3.1.5-4.6L38 6C38.8 6.5 39.3 7.1 39.6 7.4zM19 14.6V20l-.9-5.3c-.1-.5-.3-.9-.7-1.3L17 13l-.3.5c-.5 1-.7 2-.7 3.1V19l-.8-2.3c-.3-1.1-.3-2.3 0-3.4l.6-2.3.8-4H18v4.4c0 .4.1.7.3 1.1l.5 1C18.9 13.8 19 14.2 19 14.6z"/><g><path fill="#689f38" d="M13.7 3.3C13.1 2.4 10.6 2 10.6 2s.8 1.5 1.5 2.5c.4.5 1 .7 1.5.4C14 4.5 14.1 3.8 13.7 3.3zM16.2 2.3C16.9 1.4 19.4 1 19.4 1s-.8 1.5-1.5 2.5c-.4.5-1 .7-1.5.4C15.9 3.5 15.9 2.8 16.2 2.3z"/></g><path fill="#6d4c41" d="M20,39.3c0,0,1.8-0.3,3.6-0.2c1.8,0.1,3.4,0.9,4.4,0.7c0,0-1.6,2.4-4,2.2S20.8,40.9,20,39.3z"/><g><path fill="#490c0c" d="M35 29.9c0 0-1-2.9-3.9-2.9-2.3 0-3.1 2.9-3.1 2.9s.9 2.1 3.1 2.1C34 32 35 29.9 35 29.9zM20 29.9c0 0-1-2.9-3.9-2.9-2.3 0-3.1 2.9-3.1 2.9s.9 2.1 3.1 2.1C19 32 20 29.9 20 29.9z"/></g><g><path fill="#424242" d="M34.3 29.5c0 .7-.3 1.4-.7 1.9C33 31.7 32.2 32 31.1 32c-.5 0-.9-.1-1.2-.3-.7-.5-1.1-1.3-1.1-2.3 0-.7.3-1.3.7-1.8 0 0 0 0 0 0 .4-.4 1-.7 1.7-.7 1.4 0 2.3.6 2.9 1.3C34.2 28.7 34.3 29.1 34.3 29.5zM19.3 29.5c0 .7-.3 1.4-.7 1.9C18 31.7 17.2 32 16.1 32c-.5 0-.9-.1-1.2-.3-.7-.5-1.1-1.3-1.1-2.3 0-.7.3-1.3.7-1.8 0 0 0 0 0 0 .4-.4 1-.7 1.7-.7 1.4 0 2.3.6 2.9 1.3C19.2 28.7 19.3 29.1 19.3 29.5z"/></g><g><path fill="#e0e0e0" d="M31 28A1 1 0 1 0 31 30 1 1 0 1 0 31 28zM16 28A1 1 0 1 0 16 30 1 1 0 1 0 16 28z"/></g></svg>