<svg xmlns="http://www.w3.org/2000/svg"  viewBox="0 0 48 48" width="1600px" height="1600px"><path fill="#6a1b9a" d="M34,38.238V26H14v12.238c0,1.065-0.575,2.034-1.484,2.589C9.067,42.933,6,46,6,46h36c0,0-3.067-3.067-6.516-5.173C34.575,40.272,34,39.304,34,38.238z"/><path fill="#ffb74d" d="M24,12c-11.71,0-12,0-12,0c0,3.71,0,20.639,0,20.639c0,0.865,0.373,1.688,1.024,2.258l6.127,5.361C19.699,40.736,20.401,41,21.127,41h5.746c0.727,0,1.429-0.264,1.976-0.742l6.127-5.361C35.627,34.327,36,33.504,36,32.639c0,0,0-16.929,0-20.639C36,12,35.71,12,24,12z"/><path fill="#6a1b9a" d="M24,2C12.29,2,12,12,12,12c0,3.71,0,20.639,0,20.639c0,0.865,0.373,1.688,1.024,2.258L15,36.625V28l9-4l9,4v8.625l1.976-1.729C35.627,34.327,36,33.504,36,32.639c0,0,0-16.929,0-20.639C36,12,35.71,2,24,2z"/><path fill="none" stroke="#fb8c00" stroke-miterlimit="10" stroke-width="2" d="M20,33.8c0,0,1.6-0.8,4-0.8s4,0.8,4,0.8"/><path fill="#6a1b9a" d="M36 32.639V25c0 0-1.552 1.195-2 1.667-.745.784-1 1.251-1 2.333v7.625l1.976-1.729C35.627 34.327 36 33.504 36 32.639zM12 32.639V25c0 0 1.552 1.195 2 1.667.745.784 1 1.251 1 2.333v7.625l-1.976-1.729C12.373 34.327 12 33.504 12 32.639z"/><path fill="#7b1fa2" d="M27,2.25V7h-6V2.25c-1.14,0.2-2.13,0.51-3,0.91V19h3v-9h6v9h3V3.16C29.13,2.76,28.14,2.45,27,2.25z"/><path fill="#8e24aa" d="M29,14c-4,4-5,6-5,6s-1-2-5-6c-3-3-8-6-12-12c0,0,1,11,3,21c2,4,5,7,5,7l9-6l9,6c0,0,3-3,5-7c2-10,3-21,3-21C37,8,32,11,29,14z"/><path fill="#eee" d="M22 22.917c0 0-1.343 1.083-3 1.083s-3-.902-3-1.083c0-.897.343-2.167 2-2.167S22 22.917 22 22.917zM26 22.917c0 0 1.343 1.083 3 1.083s3-.812 3-1.083c0-.897-.343-2.167-2-2.167C28.343 20.75 26 22.917 26 22.917z"/><g><path fill="#424242" d="M23 23c-3.375-1.333-4.063-4-6.531-4S14 22 14 22s.844-1 2.25-1C18.5 21 20.187 23 23 23zM25 23c3.375-1.333 4.063-4 6.531-4S34 22 34 22s-.844-1-2.25-1C29.5 21 27.812 23 25 23z"/></g><g><path fill="#424242" d="M18 23c0 .551.448 1 1 1s1-.449 1-1-.448-1-1-1S18 22.449 18 23M30 23c0 .551-.448 1-1 1s-1-.449-1-1 .448-1 1-1S30 22.449 30 23"/></g></svg>