<svg xmlns="http://www.w3.org/2000/svg"  viewBox="0 0 48 48" width="1600px" height="1600px"><path fill="#bf360c" d="M36 44L10 44 10.83 26.99 35.17 26.99z"/><path fill="#ffca28" d="M16 35L16 44 30 44 30 35 23 35z"/><path fill="#ffb74d" d="M10.83,26.99c0.85,4.06,2.42,6.35,2.53,6.51c1.57,2.19,3.38,3.81,5.02,4.97 c1.38,0.98,3,1.49,4.62,1.52c1.62-0.03,3.24-0.54,4.62-1.52c1.64-1.16,3.45-2.78,5.02-4.97c0.11-0.16,1.68-2.45,2.53-6.51 C35.64,24.74,10.36,24.74,10.83,26.99z"/><path fill="#64b5f6" d="M32.637 33.502c.112-.157 1.686-2.451 2.536-6.509-2.006-4.013-8.064-.869-7.747.241C30 30 32.637 33.502 32.637 33.502zM13.363 33.502c-.112-.157-1.686-2.451-2.536-6.509 2.006-4.013 8.064-.869 7.747.241C16 30 13.363 33.502 13.363 33.502z"/><path fill="#424242" d="M32.024,6.083C29.405,3.793,26.905,3,23,3s-6.405,0.793-9.024,3.083C12,4,11,2,11,2 c0.09,0.004-2,12-0.171,25.001C15.276,23.637,23,30,23,30s7.739-6.372,12.173-3.008C37.042,14,34.915,2.002,35,2 C35,2,34,4,32.024,6.083z"/><path fill="#212121" d="M23,24v6c0,0,1.235-1.017,3-2.023L24,24H23z"/><path fill="#616161" d="M23,24v6c0,0-1.235-1.017-3-2.023L22,24H23z"/><path fill="#b71c1c" d="M24,32c-0.75,0-1,1-1,1s-0.042-1-1-1s-3,1-3,1s2.2,2,4,2s4-2,4-2S24.75,32,24,32z"/><path fill="#efebe9" d="M26 24c0 0 1.463-3 4-3 1 0 2 0 2 0s-.463 3-3 3C27.39 24 27.979 24 26 24zM20 24c0 0-1.463-3-4-3-1 0-2 0-2 0s.463 3 3 3C18.61 24 18.021 24 20 24z"/><g><path fill="#ffca28" d="M24 23c3-2 5.828-9 8-9s3 5 3 5-.8-2-3-2C30.02 17 27 23 24 23zM21.999 23C19 21 16.172 14 14 14s-3 5-3 5 .8-2 3-2C15.98 17 19 23 21.999 23z"/></g></svg>