<svg xmlns="http://www.w3.org/2000/svg"  viewBox="0 0 48 48" width="1600px" height="1600px"><path fill="#263238" d="M9 23c0 0-1.625-1-2-2h4.75L9 23zM32.875 19L37 20c0 0 0 1-1 2v1L32.875 19z"/><path fill="#558b2f" d="M8.293,23.125l1.457-0.96C9.913,22.057,10.104,22,10.3,22H12l1,0.698v9.292l-1.812-0.001l-1.6-0.722 C9.23,31.104,9,30.747,9,30.354v-1.118c0-0.155-0.036-0.308-0.106-0.447l-0.789-1.578C8.036,27.072,8,26.919,8,26.764v-2.932 C8,23.567,8.105,23.313,8.293,23.125z"/><path fill="#33691e" d="M10.6,24h0.772L13,25.136v4.853l-1.38-0.001L11,29.709v-0.473c0-0.463-0.11-0.927-0.317-1.342 L10,26.528v-2.133L10.6,24z"/><path fill="#558b2f" d="M39.707,23.125l-1.457-0.96C38.087,22.057,37.896,22,37.7,22H36l-1,0.698v9.292l1.812-0.001 l1.6-0.722C38.77,31.104,39,30.747,39,30.354v-1.118c0-0.155,0.036-0.308,0.106-0.447l0.789-1.578 C39.964,27.072,40,26.919,40,26.764v-2.932C40,23.567,39.895,23.313,39.707,23.125z"/><path fill="#33691e" d="M37.4,24h-0.772L35,25.136v4.853l1.38-0.001l0.62-0.28v-0.473c0-0.463,0.11-0.927,0.317-1.342 L38,26.528v-2.133L37.4,24z"/><path fill="#7cb342" d="M24,10c9,0,10.996,4.096,10.996,7c0,0,1.015,6.724,1.004,8.375c-0.015,2.134,1,8.744,1,9.376 c0,1.138-0.9,2.346-2.382,5.814C33.186,43.917,32.456,46,30.481,46H24h-6.481c-1.975,0-2.704-2.083-4.137-5.435 C11.9,37.097,11,35.888,11,34.751c0-0.632,1.015-7.241,1-9.376C11.989,23.724,12,18,12,18C12,15.096,15,10,24,10z"/><path fill="#689f38" d="M14.375 28.268c-.287-.159-1.413-.786-2.464-1.356.057-.65.092-1.212.089-1.613-.011-1.634 0-3.34 0-3.34C12 21.155 12 15 12 15l6 2c-3 0-3 5.206-3 5.206v.866h.875l5.737 4.786L21 30h-3.062c-.607 0-1.198-.181-1.698-.522C15.611 29.051 14.76 28.482 14.375 28.268zM11 34.751c0-.4.406-3.193.701-5.732L13 30.667c.649.865 1 1.918 1 3v8.347l0 0c-.195-.454-.397-.93-.618-1.448C11.9 37.097 11 35.888 11 34.751z"/><path fill="#558b2f" d="M21,28l0-1l1,1h1v5c0,0-1.5-1-3-1v-2L21,28z"/><path fill="#efebe9" d="M18.375,28c0.695,0,1.543-0.006,2.625,0c0.001-0.012,0-0.487,0-0.5c0-1.381-1.119-2.5-2.5-2.5 s-2.917,0.5-3.5,1C15.375,26.625,15.875,28,18.375,28z"/><path fill="#689f38" d="M18.5 25A1.5 1.5 0 1 0 18.5 28A1.5 1.5 0 1 0 18.5 25Z"/><path fill="#263238" d="M18.5 26A0.5 0.5 0 1 0 18.5 27A0.5 0.5 0 1 0 18.5 26Z"/><path fill="#263238" d="M13,23h2v-1c6,2,7,6,7,6h-1c0,0-2-3-9-3l2-1L13,23z"/><path fill="#689f38" d="M15.988,38.75C15.988,38.75,16,44,19,44c2,0,3-2,5-2s3,2,5,2c3,0,3-5.25,3-5.25l-8.364,0.549 L15.988,38.75z"/><path fill="#eee" d="M18.223,40C16.815,40,16,39,16,37.778V36.25c0-1.222,0.963-2.222,2.223-2.222s1.11,1,5.777,1 s4.666-1,5.777-1c1.111,0,2.223,1,2.223,2.222v1.528C32,39,31.111,40,29.777,40c0,0-2.777-1-5.777-1S18.223,40,18.223,40z"/><path fill="#d7ccc8" d="M24 35.028c-.365 0-.691-.008-1-.019v4.171h2v-4.171C24.69 35.02 24.364 35.028 24 35.028zM18.223 34.028c-.077 0-.148.015-.223.022v5.13h2v-4.597C19.174 34.315 18.898 34.028 18.223 34.028zM29.777 34.028c-.608 0-.888.299-1.777.571V39h2v-4.948C29.926 34.043 29.852 34.028 29.777 34.028z"/><path fill="#9ccc65" d="M29,41c-2,0-2-1-5-1s-3,1-5,1s-3-1.057-3-2.465V37c0,0,0.716,2.126,2.778,2.047C20,39,21,38,24,38 s4,1,5,1c2.236,0,3-2,3-2v1.535C32,39.943,31,41,29,41z"/><path fill="#689f38" d="M33.625 28.268c.287-.159 1.413-.786 2.464-1.356C36.032 26.262 36 25.7 36 25.299 36 23 35 17 35 17h-5c3 0 3 5.206 3 5.206v.866h-.875l-5.737 4.786L27 30h3.062c.607 0 1.198-.181 1.698-.522C32.389 29.051 33.24 28.482 33.625 28.268zM37 34.751c0-.4-.406-3.193-.701-5.732L35 30.667c-.649.865-1 1.918-1 3v8.347l0 0c.195-.454.397-.93.618-1.448C36.1 37.097 37 35.888 37 34.751z"/><path fill="#558b2f" d="M27,28l0-1l-1,1h-1v3.125V33c0,0,1.5-1,3-1v-2L27,28z"/><path fill="#9ccc65" d="M26 28L25 30 26 31 25 33 23 33 22 31 23 30 22 28 24 27z"/><path fill="#efebe9" d="M33,26c-0.583-0.5-2.119-1-3.5-1S27,26.119,27,27.5c0,0.013-0.001,0.488,0,0.5 c1.082-0.006,1.93,0,2.625,0C32.125,28,32.625,26.625,33,26z"/><path fill="#689f38" d="M29.5 25A1.5 1.5 0 1 0 29.5 28A1.5 1.5 0 1 0 29.5 25Z"/><path fill="#263238" d="M29.5 26A0.5 0.5 0 1 0 29.5 27A0.5 0.5 0 1 0 29.5 26Z"/><path fill="#263238" d="M35,23h-2v-1c-6,2-7,6-7,6h1c0,0,2-3,9-3l-2-1L35,23z"/><path fill="#689f38" d="M25 25L24 26 23 23 23 27 22 28 26 28 25 27z"/><path fill="#263238" d="M23,17c0,0-2,2-3,5c4-1,7.561-4.987,7.561-4.987L26,21c0,0,4-2,5-4c0,3,5,4,5,4l0.996-1 c1,0,2.004,1,2.004,1c0-2-1.255-4.501-2.004-5c2,0,3.004-2,3.004-2c-2,0-3.125-1-3.125-1c3.125,0,4.062-2.392,4.121-3.375 C41.019,9.249,41,9,41,9s-0.888,1.002-2,1c-0.446-0.001-0.917-0.116-1.75-0.625C35,8,35,8,35,8l2-1c0,0-2.625-1-4-1 c-0.559,0-1.375,0-2,1c0-2-1-3-1-3l-1,2c0,0-1-4-11-4l3,3c0,0-1-1-6-1c0,0,2,1.375,2,2c-3,0-5-1-5-1s0.125,2.125,1.125,3 c0,0-1.245,0.246-2.125,1c-0.875,0.75-2,1-3,1c0.125,1.375,1,3,1,3s-1.438,1.348-1.875,3.053C7.046,16.359,7,16.677,7,17 c0.097-0.145,0.201-0.269,0.311-0.375C8.051,15.905,9,16,9,16s0.334,3.674-1.625,4.823C7.259,20.891,7.134,20.951,7,21 c0.181,0.181,0.394,0.329,0.622,0.45C8.657,22,10,22,10,22h2c0,0,0-5,3-5c-1,1-1,2-1,2l4-2c0,0-1,2-1,3C20,19,23,17,23,17z"/></svg>