<svg xmlns="http://www.w3.org/2000/svg"  viewBox="0 0 48 48" width="1600px" height="1600px"><path fill="#BF360C" d="M15,28c0,2.8-1.1,6-3,6s-4-3.2-4-6s1.6-4,3.5-4S15,25.2,15,28z M33,28c0,2.8,1.1,6,3,6s4-3.2,4-6s-1.6-4-3.5-4S33,25.2,33,28z"/><path fill="#FF6E40" d="M37,27.4C37,36.5,30.1,46,24,46s-13-9.5-13-18.6s5.8-16.5,13-16.5S37,18.3,37,27.4z"/><path fill="#FFEA00" d="M27,29l7-2c0,0-1.5,4-4,4S27,29,27,29z M21,29l-7-2c0,0,1.5,4,4,4S21,29,21,29z"/><path fill="#DD2C00" d="M7.1,19c0-1.6,0.8-2.6,1-4c0.2-0.9-0.7-4.2-2-4c3.9,0,4.4,2,4.9,3c0-1.6,2.6-6.7,1-10c4.4,2.3,3.3,4,5.3,5.7c1.3,1.3,0.8-1.7,1.1-3.1C19,4.3,21.5,2.5,24.1,2c-1.3,1.6-2.2,5.7,0,7c1.6-5.2,6.1-6.8,9-7c-1.6,0.8-3.1,3.4-3.7,5c-0.2,0.6-0.2,2,0.7,2c1.1,0,3-1.3,3-3c2.4,2.7-0.6,5.2,1,6c1.5,0.6,3.2-6.3,3-8c3.6,5.6-1.8,11.3,1,12c1.2,0.3,1.9-3.1,1-5c2.8,2.8,2.5,10.6-0.4,13.1c-0.9,0.8-1.6,1.7-1.6,2.9c-2.9-1.7-1.9-3.7-1.9-5.4C35,17.3,34,16.9,31.1,15c0.5,1.6-0.9,2.3,0,5c-0.7-0.9-2.4-1.7-3.1-2.7C26.8,16.1,27,15,26.1,13c-0.5,2.5-4.4,2-4,7c-2.5-2-1.8-4.9-2-6c-1.8,1.9-3.1,2.9-2,6c-2-0.5-2.8-1.4-3-3c-6.6,7-0.2,5.8-4,11C11.1,23.9,7.1,22.3,7.1,19z"/></svg>