<svg xmlns="http://www.w3.org/2000/svg"  viewBox="0 0 48 48" width="1600px" height="1600px"><path fill="#B71C1C" d="M38.1,18.8c-0.2-1.5-0.5-7.8-2-9.8c-5.3-4.2-12-4-12-4s-6.7-0.2-12,4c-1.4,2-1.9,8.3-2,9.8l0.5,9.2v0.2c0,0,1.9,8.3,2.7,9.7c0.9,1.8,3.6,5.2,5.8,6.5c0.9,0.5,3.3,0.6,5,0.6c1.9,0,4.2-0.2,5-0.6c2.2-1.1,4.8-4.6,5.8-6.5c0.8-1.4,2.7-9.7,2.7-9.7v-0.2L38.1,18.8z"/><path fill="#FFC107" d="M34.9,29c-0.5,0.6-3.4,6.2-3.4,6.2s-0.5,2.2,0,4.2c0.5,2-0.5,2.2-0.5,2.2l-1.2,1.4l-2.2-0.9h-6.7l-2.2,0.9l-1.2-1.4c0,0-0.9-0.2-0.5-2.2c0.5-2,0-4.2,0-4.2s-3.4-5.5-3.9-6.2c-0.5-0.6-0.8-2.8-0.8-2.8l1.2-3.5l-0.3-10.6c0,0,0.9-1.4,2.2-2.3c1.1-0.8,4.2-1.7,4.2-1.7l1.1,7.8c0,0,0.3,1.7,0.3,1.8c0,0.2,1.1,0.5,1.1,0.5h4.1c0,0,1.1-0.3,1.1-0.5c0-0.2,0.3-1.8,0.3-1.8l1.1-7.8c0,0,3.1,0.8,4.2,1.7c0.9,0.9,2,2.3,2,2.3l-0.3,10.5l1.2,3.5C35.7,26.2,35.4,28.4,34.9,29z"/><path fill="#E8B006" d="M34.3,27l-0.6,0.3c-1.2,0.7-1.9,1.1-2.4,1.3C30.9,29,30.3,29,30.1,29L27,29.2l0,0.4l0-0.4c-0.4,0-0.9-0.1-1.2-0.6c-0.1-0.1-0.3-0.4-0.7-1c-0.2-0.2-0.7-0.3-1.1-0.3s-0.8,0-1.1,0.3c-0.4,0.6-0.6,0.8-0.7,1c-0.3,0.4-0.8,0.6-1.2,0.6c0,0,0,0,0,0L17.8,29c-0.1,0-0.7,0-1.3-0.4c-0.4-0.2-1.1-0.6-2.3-1.3l-0.7-0.4c-0.2-0.1-0.4-0.3-0.4-0.6c-0.1-0.4,0.2-0.8,0.3-0.9l1.3-1c0.1-0.1,0.6-0.3,1.1-0.1c0.2,0.1,0.4,0.1,0.7,0.2c1.2,0.4,3.5,1.3,5.5,1.4l3.7,0c2.1-0.1,4.3-1,5.5-1.4c0.3-0.1,0.5-0.2,0.7-0.2c0.4-0.2,1,0,1.1,0.1l1.3,1c0.1,0.1,0.4,0.4,0.3,0.9C34.8,26.6,34.6,26.8,34.3,27z"/><path fill="#81D4FA" d="M25.6 27.2c0 0 .6.9.8 1.1.2.3.6.3.6.3l3.1-.2c0 0 .6 0 .9-.3.5-.2 2.2-1.2 3-1.7.3-.2 0-.5 0-.5L32.8 25c0 0-.2-.2-.5 0-.9.3-3.7 1.5-6.4 1.7C25.1 26.8 25.6 27.2 25.6 27.2zM22.4 27.2c0 0-.6.9-.8 1.1-.2.3-.6.3-.6.3l-3.1-.2c0 0-.6 0-.9-.3-.5-.2-2.2-1.2-3-1.7-.3-.2 0-.5 0-.5l1.2-.9c0 0 .2-.2.5 0 .9.3 3.7 1.5 6.4 1.7C22.9 26.8 22.4 27.2 22.4 27.2z"/><path fill="#E1F5FE" d="M27.6 27.7l2.6 0 2.5-1.5L32 25.1c-1 .4-3 1.2-5.1 1.5L27.6 27.7zM21.1 26.6C19 26.3 17 25.5 16 25.1l-.7 1.1 2.5 1.5 2.6 0L21.1 26.6z"/><path fill="#851414" d="M37.3 28.1h.8c.3 0 .6-.3.6-.6l.3-8c0-.3-.3-.6-.6-.6h-.3L37.3 28.1zM9.9 18.8H9.6c-.3 0-.6.3-.6.6l.3 8c0 .3.3.6.6.6h.8L9.9 18.8z"/></svg>