<svg xmlns="http://www.w3.org/2000/svg"  viewBox="0 0 48 48" width="1600px" height="1600px"><path fill="#6e0b40" d="M13 34H35V44H13z"/><path fill="#ff9800" d="M24 36L17 36 17 44 31 44 31 36z"/><path fill="#ffb74d" d="M24,9l-10,5c0,3.503,0.008,20.151,0.008,20.151c0,0.817,0.339,1.594,0.931,2.132l7.099,4.994 c1.144,0.966,2.782,0.966,3.925,0l7.099-4.994c0.591-0.538,0.931-1.315,0.931-2.132c0,0,0.008-16.648,0.008-20.151L24,9z"/><path fill="#f06292" d="M25,33c-0.75,0-1,1-1,1s-0.042-1-1-1s-3,1-3,1s2.2,2,4,2s4-2,4-2S25.75,33,25,33z"/><path fill="#efebe9" d="M27 25c0 0 .634-3 3.171-3C32.396 22 33 23.333 33 23.333S32.073 25 30.463 25C28.854 25 28.979 25 27 25zM21 25c0 0-.634-3-3.171-3C15.604 22 15 23.333 15 23.333S15.927 25 17.537 25 19.021 25 21 25z"/><path fill="#7e57c2" d="M31 23.5c0 .83-.67 1.5-1.5 1.5S28 24.33 28 23.5c0-.24.05-.46.16-.66.4-.4.92-.72 1.61-.81h.03C30.49 22.17 31 22.77 31 23.5zM17 23.5c0 .83.67 1.5 1.5 1.5s1.5-.67 1.5-1.5c0-.24-.05-.46-.16-.66-.4-.4-.92-.72-1.61-.81H18.2C17.51 22.17 17 22.77 17 23.5z"/><path fill="#263238" d="M29.5 23A.5.5 0 1 0 29.5 24 .5.5 0 1 0 29.5 23zM18.5 23A.5.5 0 1 0 18.5 24 .5.5 0 1 0 18.5 23z"/><path fill="#424242" d="M27 25c0 0 .634-3 3.171-3C32.396 22 33 23.333 33 23.333S33 23 30 23C28.39 23 27 25 27 25zM21 25c0 0-.634-3-3.171-3C15.604 22 15 23.333 15 23.333S15 23 18 23C19.61 23 21 25 21 25z"/><g><path fill="#424242" d="M26 23c0 0 1.013-.536 1.364-.686.657-.282 1.803-.674 2.428-.814.379-.085.949-.187 1.541-.187C32.31 21.312 34 22.03 34 22.03V21c0 0-1-1-2-1-3 0-4.413 1.147-5.052 1.785C26.302 22.418 26 23 26 23zM22 23c0 0-1.013-.536-1.364-.686-.657-.282-1.803-.674-2.428-.814-.379-.085-.949-.187-1.541-.187C15.69 21.312 14 22.03 14 22.03V21c0 0 1-1 2-1 3 0 4.413 1.147 5.052 1.785C21.698 22.418 22 23 22 23z"/></g><path fill="#880e4f" d="M33,44c1.702,0,14,0,14,0c0-5-3-7-3-8c0-2,2-3,2-6c0-5-6-6-6-8s1-2.192,1-5c0-2.195-2-12-14.579-12 c0,0-0.421-2-3.632-2C16.213,3,7,8,7,16c0,2,1,2,1,4s-5,3-5,6s3,5,3,7c0,3-5,3-5,11h14c0,0,0-3.158,0-5c0-4-1-6-1-10c0-2,0-4,2-6 c5.701-5.701,10.421-12,10.421-12S32,14.707,32,21c0,1.967,0,1.957,0,2c0,2.236,2,5,2,8c0,3-1,5-1,8S33,44,33,44z"/><g><path fill="#c51162" d="M43,44c0.038-1.177-0.104-2.348-0.479-3.453c-0.368-1.125-0.972-2.105-1.711-3.198 c-0.171-0.313-0.405-0.531-0.526-1.188c-0.021-0.219,0.003-0.254,0.007-0.37c0.011-0.099,0.013-0.199,0.033-0.296 c0.04-0.194,0.076-0.389,0.142-0.568c0.242-0.741,0.64-1.3,0.962-1.836c0.673-1.039,1.062-2.108,1.047-3.307 c0.015-1.174-0.424-2.311-1.201-3.244c-0.77-0.945-1.805-1.683-2.835-2.454c-0.505-0.398-1.055-0.782-1.426-1.397 c-0.204-0.306-0.2-0.733-0.163-1.034c0.034-0.329,0.097-0.656,0.198-0.97c0.205-0.628,0.518-1.182,0.681-1.796 C37.904,18.279,37.979,17.64,38,17c0.022,0.639-0.01,1.286-0.146,1.919c-0.125,0.637-0.407,1.233-0.558,1.835 c-0.075,0.302-0.112,0.61-0.124,0.919c-0.008,0.33,0.001,0.58,0.174,0.816c0.324,0.471,0.871,0.824,1.391,1.173 c1.062,0.692,2.192,1.376,3.119,2.365c0.935,0.968,1.579,2.317,1.651,3.714c0.128,1.376-0.315,2.839-0.972,3.981 c-0.305,0.575-0.612,1.106-0.73,1.6c-0.039,0.124-0.048,0.246-0.068,0.367c-0.01,0.06-0.003,0.122-0.007,0.182 c-0.001,0.043-0.005,0.168-0.001,0.108c-0.012-0.019,0.159,0.293,0.333,0.511c0.757,0.978,1.597,2.145,2.105,3.437 C44.699,41.22,44.959,42.62,45,44H43z"/><path fill="#c51162" d="M39 44c.038-1.177-.104-2.348-.479-3.453-.368-1.125-.972-2.105-1.711-3.198-.171-.313-.405-.531-.526-1.188-.021-.219.003-.254.007-.37.011-.099.013-.199.033-.296.04-.194.076-.389.142-.568.242-.741.64-1.3.962-1.836.673-1.039 1.062-2.108 1.047-3.307.015-1.174-.424-2.311-1.201-3.244-.77-.945-1.805-1.683-2.835-2.454-.505-.398-1.055-.782-1.426-1.397-.204-.306-.2-.733-.163-1.034.034-.329.097-.656.198-.97.205-.628.518-1.182.681-1.796C33.904 18.279 33.979 17.64 34 17c.022.639-.01 1.286-.146 1.919-.125.637-.407 1.233-.558 1.835-.075.302-.112.61-.124.919-.008.33.001.58.174.816.324.471.871.824 1.391 1.173 1.062.692 2.192 1.376 3.119 2.365.935.968 1.579 2.317 1.651 3.714.128 1.376-.315 2.839-.972 3.981-.305.575-.612 1.106-.73 1.6-.039.124-.048.246-.068.367-.01.06-.003.122-.007.182-.001.043-.005.168-.001.108-.012-.019.159.293.333.511.757.978 1.597 2.145 2.105 3.437C40.699 41.22 40.959 42.62 41 44H39zM10 16c.014.681.189 1.343.533 1.926.346.581.575 1.274.589 1.968.014.169-.022.371-.06.548-.074.167-.132.352-.248.49-.196.309-.462.545-.72.775-.527.453-1.09.838-1.623 1.247-1.047.785-2.117 1.765-2.086 2.968.004 1.245.64 2.402 1.401 3.476.379.547.796 1.085 1.174 1.705.368.591.74 1.406.628 2.283-.072.869-.58 1.612-1.052 2.145-.479.551-.968 1.01-1.382 1.496-.847.958-1.433 2.032-1.762 3.226C5.06 41.444 4.983 42.721 5 44H3c.068-1.427.24-2.877.724-4.277.472-1.397 1.312-2.707 2.33-3.717.988-1.022 2.163-1.798 2.294-2.778.104-.483-.066-1.007-.368-1.574-.294-.559-.673-1.121-1.032-1.711-.718-1.16-1.402-2.543-1.313-4.049.034-.784.428-1.501.915-2.026.492-.533 1.063-.939 1.63-1.322.568-.382 1.149-.73 1.676-1.13.505-.399 1.038-.872 1.016-1.518.025-.668-.141-1.312-.451-1.918C10.109 17.371 9.97 16.676 10 16z"/><path fill="#c51162" d="M14,16c0.014,0.681,0.189,1.343,0.533,1.926c0.346,0.581,0.575,1.274,0.589,1.968 c0.014,0.169-0.022,0.371-0.06,0.548c-0.074,0.167-0.132,0.352-0.248,0.49c-0.196,0.309-0.462,0.545-0.72,0.775 c-0.527,0.453-1.09,0.838-1.623,1.247c-1.047,0.785-2.117,1.765-2.086,2.968c0.004,1.245,0.64,2.402,1.401,3.476 c0.379,0.547,0.796,1.085,1.174,1.705c0.368,0.591,0.74,1.406,0.628,2.283c-0.072,0.869-0.58,1.612-1.052,2.145 c-0.479,0.551-0.968,1.01-1.382,1.496c-0.847,0.958-1.433,2.032-1.762,3.226C9.06,41.444,8.983,42.721,9,44H7 c0.068-1.427,0.24-2.877,0.724-4.277c0.472-1.397,1.312-2.707,2.33-3.717c0.988-1.022,2.163-1.798,2.294-2.778 c0.104-0.483-0.066-1.007-0.368-1.574c-0.294-0.559-0.673-1.121-1.032-1.711c-0.718-1.16-1.402-2.543-1.313-4.049 c0.034-0.784,0.428-1.501,0.915-2.026c0.492-0.533,1.063-0.939,1.63-1.322c0.568-0.382,1.149-0.73,1.676-1.13 c0.505-0.399,1.038-0.872,1.016-1.518c0.025-0.668-0.141-1.312-0.451-1.918C14.109,17.371,13.97,16.676,14,16z"/></g></svg>