<svg xmlns="http://www.w3.org/2000/svg"  viewBox="0 0 48 48" width="1600px" height="1600px"><path fill="#ffa726" d="M34 22.8c0 0 .3-2.8 3-2.8 1 0 1 2.7 1 3.5 0 1-1 2.5-1 3v.8c0 1-1.5 2.8-3 2.8V22.8zM14 22.8c0 0-.3-2.8-3-2.8-1 0-1 2.7-1 3.5 0 1 1 2.5 1 3v.8c0 1 1.5 2.8 3 2.8V22.8z"/><path fill="#ffa726" d="M34,38.2V26H14v12.2c0,1.1-0.6,2-1.5,2.6C9.1,42.9,6,46,6,46h36c0,0-3.1-3.1-6.5-5.2 C34.6,40.3,34,39.3,34,38.2z"/><path fill="#424242" d="M35.5,40.8C34,44,24,44,24,44s-10,0-11.5-3.2c-1.8,1.1-3.4,2.4-4.6,3.4C10,45,11,46,11,46h13h13 c0,0,1-1,3.1-1.8C38.9,43.2,37.2,41.9,35.5,40.8z"/><path fill="#ffb74d" d="M24,4C12.3,4,13,14,13,14c0,3.7,0,13,0,13v6.6c0,0.9,0.4,1.7,1,2.3l6.1,5.4c0.5,0.5,1.2,0.7,2,0.7 H24h1.9c0.7,0,1.4-0.3,2-0.7l6.1-5.4c0.7-0.6,1-1.4,1-2.3V26c0,0,0-8.3,0-12C35,14,35.7,4,24,4z"/><path fill="#fb8c00" d="M20.4,34.7l-0.9-1.8c0.1,0,1.8-0.9,4.4-0.9c2.6,0,4.4,0.9,4.4,0.9l-0.9,1.8c0,0-1.4-0.7-3.6-0.7 C21.9,34,20.5,34.7,20.4,34.7z"/><path fill="#ffac3e" d="M35 13.3V24c0 0-1-1-4-1V9.2c0-2.2-2-4.4-2-4.4C34.2 6.7 34.9 11.5 35 13.3zM13 13.3V24c0 0 1-1 4-1V9.2c0-2.2 2-4.4 2-4.4C13.8 6.7 13.1 11.5 13 13.3z"/><path fill="#424242" d="M35,4c-4.1,0-5.6-2-11-2s-6.9,2-11,2c-2,0-5-1-5-1c0,12,3,17,3,17c0.1,0,0.3,0,0.4,0 c0.9,0.2,1.6,1,1.6,2v4v4v3.6c0,0.9,0.4,1.7,1,2.3l2,1.7V30c0-1.1-0.3-1.5-1-2.3V18c0-1.9-1-1-1-4c0-1.1,0.3-2.3,0.5-3.1 c0.2-0.7,1-1,1.6-0.7c1.5,0.7,4.5,1.9,7.9,1.9s6.3-1.1,7.9-1.9c0.7-0.3,1.4,0,1.6,0.7c0.3,0.9,0.5,2.1,0.5,3.1c0,3-1,2.1-1,4v9.7 c-0.7,0.8-1,1.3-1,2.3v7.6l2-1.7c0.7-0.6,1-1.4,1-2.3V30v-4v-4c0-1,0.7-1.8,1.6-2c0.1,0,0.3,0,0.4,0c0,0,3-5,3-17C40,3,37,4,35,4z"/><path fill="#eee" d="M22 23.9c0 0-1.3.1-3 .1s-3-.9-3-1.1c0-.9.3-2.2 2-2.2S22 23.9 22 23.9zM26 23.9c0 0 1.3.1 3 .1s3-.8 3-1.1c0-.9-.3-2.2-2-2.2S26 23.9 26 23.9z"/><g><path fill="#424242" d="M23 24c-3-1-4-5-6-5-3 0-3 3.8-3 3.8s1-1.8 2-1.8C18 21 19 24 23 24zM25 24c3-1 4-5 6-5 3 0 3 3.8 3 3.8S33 21 32 21C30 21 29 24 25 24z"/></g><g><path fill="#424242" d="M18 23c0 .6.4 1 1 1s1-.4 1-1-.4-1-1-1S18 22.4 18 23M30 23c0 .6-.4 1-1 1s-1-.4-1-1 .4-1 1-1S30 22.4 30 23"/></g></svg>