<svg xmlns="http://www.w3.org/2000/svg"  viewBox="0 0 48 48" width="1600px" height="1600px"><path fill="#8a470c" d="M36 23.8c0 0 1-3.8 3-3.8 1 0 1 2 1 5 0 2-2 6-4 6V23.8zM12 23.8c0 0-1-3.8-3-3.8-1 0-1 2-1 5 0 2 2 6 4 6V23.8z"/><path fill="#c16e14" d="M24,2c-7.2,0-13,5.8-13,13c0,3.7,0,20.6,0,20.6c0,0.9,0.4,1.7,1,2.3l6.1,6.4c0.5,0.5,1.2,0.7,2,0.7 H24h3.9c0.7,0,1.4-0.3,2-0.7l6.1-6.4c0.7-0.6,1-1.4,1-2.3c0,0,0-16.9,0-20.6C37,7.8,31.2,2,24,2z"/><path fill="#a0530e" d="M37 35.6V27c0 0-1.6 1.2-2 1.7-.7.8-1 1.3-1 2.3v8.9l2-2.1C36.6 37.3 37 36.5 37 35.6zM11 35.6V27c0 0 1.6 1.2 2 1.7.7.8 1 1.3 1 2.3v8.9l-2-2.1C11.4 37.3 11 36.5 11 35.6zM17 4.1c0 0-2 1.9-2 4.2V22h4l-4 2c-3 0-4 1-4 1V15C11 10.4 13.4 6.4 17 4.1zM31 4.1c0 0 2 1.9 2 4.2V22h-3l3 2c3 0 4 1 4 1V15C37 10.4 34.6 6.4 31 4.1z"/><path fill="#efebe9" d="M29.6 25c-.7 0-1.5 0-2.6 0 0 0 0-.5 0-.5 0-1.4 1.1-2.5 2.5-2.5s2.9 1.5 3.5 2C32.6 24.6 32.1 25 29.6 25zM18.4 25c.7 0 1.5 0 2.6 0 0 0 0-.5 0-.5 0-1.4-1.1-2.5-2.5-2.5s-2.9 1.5-3.5 2C15.4 24.6 15.9 25 18.4 25z"/><path fill="#6d4c41" d="M29.5 22A1.5 1.5 0 1 0 29.5 25 1.5 1.5 0 1 0 29.5 22zM18.5 22A1.5 1.5 0 1 0 18.5 25 1.5 1.5 0 1 0 18.5 22z"/><g><path fill="#263238" d="M29.5 23A.5.5 0 1 0 29.5 24 .5.5 0 1 0 29.5 23zM18.5 23A.5.5 0 1 0 18.5 24 .5.5 0 1 0 18.5 23z"/></g><path fill="#a0530e" d="M20.5,37.8l-1.1-1.7c0.1,0,1.9-1.2,4.5-1.2s4.5,1.1,4.5,1.2l-1.1,1.7c0,0-1.4-0.8-3.5-0.8 C21.9,37,20.5,37.8,20.5,37.8z"/><g><path fill="#424242" d="M23 25c-3.4-1.3-3-5-6.5-5C14 20 14 23 14 23s.8-1 2.3-1C19 22 20.2 25 23 25zM25 25c3.4-1.3 3-5 6.5-5 2.5 0 2.5 3 2.5 3s-.8-1-2.3-1C29 22 27.8 25 25 25z"/></g><path fill="#424242" d="M27.8,32.1L27.6,32c0,0,0,0,0,0c-1.7,0.1-2.4,1-3.6,1s-1.8-0.9-3.6-1c0,0,0,0,0,0l-0.2,0.1 c-3.2,1.1-5.2,4.2-5.2,7.5c0,0,0,0,0,0.1c0,0.9,0.3,1.7,0.9,2.3l2.2,2.3c0.6,0.5,1.3,0.7,2,0.7h7.7c0.7,0,1.4-0.3,2-0.7L32,42 c0.6-0.7,1-1.5,1-2.5C33,36.2,30.9,33.2,27.8,32.1z M28,43c-3,0-2-3-4-3s-1,3-4,3c-2,0-3-2-3-5s4-4,7-4s7,1,7,4S30,43,28,43z"/></svg>