<svg xmlns="http://www.w3.org/2000/svg"  viewBox="0 0 48 48" width="1600px" height="1600px"><path fill="#ffb74d" d="M24,4C12.3,4,13,14,13,14c0,3.7,0,13,0,13v6.6c0,0.9,0.4,1.7,1,2.3l6.1,5.4c0.5,0.5,1.2,0.7,2,0.7 H24h1.9c0.7,0,1.4-0.3,2-0.7l6.1-5.4c0.7-0.6,1-1.4,1-2.3V26c0,0,0-8.3,0-12C35,14,35.7,4,24,4z"/><path fill="#fb8c00" d="M28.6,34.9c0,0-1.9-0.9-4.6-0.9c-2.7,0-4.5,0.9-4.6,0.9l-0.9-1.8c0.1,0,2.2-1.1,5.4-1.1 s5.4,1.1,5.4,1.1L28.6,34.9z"/><path fill="#ffac3e" d="M35 33.6V26c0 0-1.6 1.2-2 1.7-.7.8-1 1.3-1 2.3v7.6l2-1.7C34.6 35.3 35 34.5 35 33.6zM13 33.6V26c0 0 1.6 1.2 2 1.7.7.8 1 1.3 1 2.3v7.6l-2-1.7C13.4 35.3 13 34.5 13 33.6z"/><path fill="#b71c1c" d="M36,23c0-2.8-2.2-5-5-5c-3.2,0-5.7,2.6-7,4.3c-1.3-1.6-3.8-4.3-7-4.3c-2.8,0-5,2.2-5,5s2.2,5,5,5 c0.6,0,1.3-0.1,2-0.3l0,17L8,42c0-4,0-18.8,0-23.9C8,16,8.3,14,9,11.9C11.9,4.1,18,1,24,1c7,0,12.1,3.1,15,10.9c0.8,2,1,4.1,1,6.1 c0,5.1,0,19.9,0,23.9l-11,2.8l0-17c0.7,0.2,1.4,0.3,2,0.3C33.8,28,36,25.8,36,23z"/><path fill="#fafafa" d="M26 24c0 0 1.3 0 3 0s3-.6 3-.7c0-.6-.3-1.3-2-1.3S26 24 26 24zM22 24c0 0-1.3 0-3 0s-3-.6-3-.7c0-.6.3-1.3 2-1.3S22 24 22 24z"/><path fill="#424242" d="M25 24c0 0 .5-1.3 2-2 2-1 3-2 4-2 2 0 3 2 3 2s-1.6-.8-2.5-.8C30 22 27 24 26 24S25 24 25 24zM23 24c0 0-.5-1.3-2-2-2-1-3-2-4-2-2 0-3 2-3 2s1.6-.8 2.5-.8C18 22 21 24 22 24S23 24 23 24z"/><path fill="#d83232" d="M27 13.2c0 0 3.6-1 3-5.2 0 0 2.3-1.5 0-4 0 0 4 1 4 5 0 2-2 6-7 6V13.2zM21 13.2c0 0-3.6-1-3-5.2 0 0-2.3-1.5 0-4 0 0-4 1-4 5 0 2 2 6 7 6V13.2z"/><g><path fill="#ea4949" d="M32 8c0 1.7-1.5 5.1-5 6v-.8c0 0 3.6-1 3-5.2 0 0 2.3-1.5 0-4C31 4.8 32 6 32 8zM16 8c0 1.7 1.5 5.1 5 6v-.8c0 0-3.6-1-3-5.2 0 0-2.3-1.5 0-4C17 4.8 16 6 16 8z"/><path fill="#ea4949" d="M20,12l4-2l4,2c0,6-4,9-4,9S20,18,20,12z"/></g><path fill="#d83232" d="M24,10l4,2c0,6-4,9-4,9V10z"/><path fill="#ba68c8" d="M37,41c-4,2-6,2-6,2l2-3l-3,2l0-12l3,2l-2-3c1.2,0,2.4-0.4,3.3-1L34,30c0,0,2-3.6,2.2-4 c0.5-0.9,0.8-1.9,0.8-3c0-1.8-0.8-3.4-2-4.5c0.9-0.7,2,0.1,2,0.1s-1-3-6-1.7l1-1c-5,0-8,5-8,5s-3-5-8-5l1,1c-5-1.3-6,1.7-6,1.7 s1.1-0.8,2-0.1c-1.2,1.1-2,2.7-2,4.5c0,1.1,0.3,2.1,0.8,3c0.2,0.4,2.2,4,2.2,4l-0.3-2c0.9,0.6,2.1,1,3.3,1l-2,3l3-2l0,12l-3-2l2,3 c0,0-2,0-6-2c-2-1-3-1-3-1v3l12,3l0-19.6c-1.1,0.4-2.2,0.6-3,0.6c-2.2,0-4-1.8-4-4s1.8-4,4-4c4,0,7,5,7,5s3-5,7-5c2.2,0,4,1.8,4,4 s-1.8,4-4,4c-0.8,0-1.9-0.2-3-0.6L28,46l12-3v-3C40,40,39,40,37,41z"/></svg>