<svg xmlns="http://www.w3.org/2000/svg"  viewBox="0 0 48 48" width="1600px" height="1600px"><path fill="#a31616" d="M13 28H35V44H13z"/><path fill="#1565c0" d="M24 36L17 36 17 44 31 44 31 36z"/><path fill="#1976d2" d="M23.562,12.175l-8.822,0.529C14.293,12.883,14,13.316,14,13.798v15.903 c0,3.321,1.62,6.434,4.341,8.338l3.003,2.102c1.595,1.116,3.717,1.116,5.312,0l3.003-2.102C32.38,36.134,34,33.022,34,29.701 V13.798c0-0.482-0.293-0.915-0.741-1.094l-8.822-0.529C24.157,12.063,23.843,12.063,23.562,12.175z"/><path fill="#bf360c" d="M25,33c-0.75,0-1,1-1,1s-0.042-1-1-1s-3,1-3,1s2.2,2,4,2s4-2,4-2S25.75,33,25,33z"/><path fill="#fff8e1" d="M27 25c0 0 .634-3 3.171-3C32.396 22 33 23.333 33 23.333S32.073 25 30.463 25C28.854 25 28.979 25 27 25zM21 25c0 0-.634-3-3.171-3C15.604 22 15 23.333 15 23.333S15.927 25 17.537 25 19.021 25 21 25z"/><path fill="#424242" d="M22 24c-2.7-1.25-4.139-4-6.114-4s-2.886 3.062-2.886 3.062S14 21.578 16 21.578C17.8 21.578 19.75 24 22 24zM26 24c2.7-1.25 4.025-4 6-4s2.999 3.062 2.999 3.062S34 21.578 32 21.578C30.2 21.578 28.25 24 26 24z"/><path fill="#c62828" d="M41,29c0-4,1-6,1-11c0-6-5-16-14-16c-3,0-4,2-4,2s-1-2-4-2C11,2,6,12,6,18c0,5,1,7,1,11 c0,7.76-4,6-4,15h11c0,0,0-24.29,0.01-24.67C14.07,15.93,15,14,17,14s4.16,1,7,1s5-1,7-1s2.93,1.93,2.99,5.33C34,19.71,34,44,34,44 h11C45,35,41,36.76,41,29z"/><path fill="#fafafa" d="M24.211,12h-0.421C21.811,12,20,13.385,20,15.692c0,1.615,0.632,2.077,0.632,2.077 c0.063,0.069,0.126,0.138,0.211,0.208v0.485c0,0.767,0.862,1.052,1.158,1.128v0.628C22,20.65,22.35,21,22.783,21h2.435 C25.65,21,26,20.65,26,20.217V19.59c0.295-0.076,1.158-0.362,1.158-1.128v-0.485c0.084-0.069,0.147-0.138,0.211-0.208 c0,0,0.632-0.692,0.632-2.077C28,13.385,26.189,12,24.211,12z M21.853,16.985c0.168-0.6,0.674-0.9,1.242-0.669 c0.463,0.185,0.632,0.854,0.484,1.292c-0.189,0.692-0.758,0.969-1.432,0.762C21.895,18.277,21.579,17.862,21.853,16.985z M24.442,19.915c-0.232,0-0.4-0.438-0.442-0.623c0,0.231-0.168,0.623-0.442,0.623c-0.168,0-0.295-0.115-0.295-0.323 c0-0.438,0.463-1.292,0.737-1.362c0.274,0.115,0.737,0.923,0.737,1.362C24.737,19.8,24.611,19.915,24.442,19.915z M25.832,18.369 C25.179,18.6,24.611,18.3,24.4,17.608c-0.126-0.485,0.042-1.154,0.505-1.292c0.526-0.185,1.074,0.069,1.221,0.669 C26.4,17.862,26.126,18.254,25.832,18.369z"/></svg>