<svg xmlns="http://www.w3.org/2000/svg"  viewBox="0 0 48 48" width="1600px" height="1600px"><path fill="#455A64" d="M39.1,12.3c-0.3-0.8-1-1.8-1.6-2.8c-0.8-1.1-1.8-2.1-2.9-2.9c-2.8-2.3-5.9-3.4-9.3-3.6c-2.6-0.2-4.7,0.2-6.5,0.5c-1.3,0.3-2.4,0.6-3.6,1.3c-0.7,0.5-1.3,1-2.1,1.9c-0.8,0.8-1.5,1.6-2,1.8c-1.5,1-2.4,2.3-2.8,3.9c-0.7,2.6-0.5,6,0.5,10.1c0.2,0.5,0.5,1.1,1,1.8c0.7,0.8,1,1.3,1.3,1.6c-0.2,0-0.2,0.2-0.5,0.2l-0.5,0.2c-0.5,0.2-0.7,0.5-0.7,1l0.2,0.6l0.2,0.5l-0.3,0.2v0.3c0.2,0.8,0.3,1.3,0.8,1.8c0.2,0.5,0.5,0.8,0.7,0.8h0.7c0.2-0.2,0.5-0.3,0.5-0.3c0.3-0.3,0.7-0.3,1-0.2l0.5,0.2l0.7,0.5c0.3,0,0.5-0.2,0.8-0.3c0.2-0.2,0.3-0.3,0.3-0.3l-0.5-0.2h-0.5c-0.5,0-0.7-0.2-0.7-0.3l1-0.8l1-0.8c0.7-0.3,1.5-0.6,2.3-0.6c0.5,0.2,0.7,0.3,0.7,0.6c-0.3,0.2-0.5,0.5-0.3,1l0.2,0.6c0.2,0.2,0.2,0.3,0.2,0.5c-0.5-0.2-0.5,0.2-0.3,1.1c0.2,0.5,0.3,1.1,0.7,1.8c0,1.8,0.2,5.3,0.5,9.8l0.3,0.3l0.5,0.3c0.5,0.3,0.8,0.3,1,0c0.2-0.3,0.2-2.4,0.2-5.9c0-3.6-0.2-5.4-0.2-5.7l-0.3-0.3c0.3-0.2,0.7-0.2,1-0.5c-0.2,1.6,0.2,6.1,0.5,12.9c0,0.2,0.2,0.2,0.7,0.2h0.8c0.2-0.6,0.4-2.5,0.5-5.8v-4.4c0-1.3,0-2.3-0.2-2.8h0.7c-0.2,2.1-0.2,4.7-0.2,7.8c-0.2,3.4,0,5.3,0.2,5.1h0.8c0.5,0.2,0.7-1.7,0.8-5.5c0.2-1.5,0.2-2.9,0.2-4.5c0-1.5,0-2.6-0.2-3.4l0.8-0.2c0.7,0.3,1,0.6,1,0.6v0.2l-0.7,0.2l-0.3,0.2c0,0.2,0,0.8-0.2,2.1l-0.2,4.4c-0.2,4.1,0,6.1,0.2,5.9l1.8-0.3c0.2-0.2,0.3-1.6,0.5-4.5c0.2-2.4,0.2-4.5,0.2-6.3c0.5-0.5,0.8-1.3,1.1-2.6l0.2-1.3c0-0.3,0-0.6-0.2-0.6l-0.2-0.2l0.2-0.3l1-0.3l1-0.3c0.8-0.2,1.5,0.2,2,0.6c0.2,0.3,0.3,0.6,0.2,1.1l-0.2,0.3c0,0.2,0,0.2-0.2,0.2c-0.2,0.5,0,0.8,0.5,0.8c0.5,0.2,0.8,0.2,1.3-0.2c0.2-0.3,0.7-0.6,1.3-1c0.5-0.3,0.8-0.8,1-1.1l0.2-1.1c0-0.5-0.2-0.6-0.5-0.8C38,27,38,26.9,38,26.9v-0.3c0.2-0.3,0.3-0.6,0.2-1l0.7-3.1c0.5-1.5,0.7-2.6,0.8-3.6C40.3,16,40.1,13.7,39.1,12.3z M20.1,24.5h-1c-0.2,0.2-0.5,0.2-1.3,0l-2.1-0.3c-2.1-0.3-3.3-0.6-3.3-0.8c-0.5-0.2-0.8-0.5-1.1-1c-0.3-0.5-0.5-0.8-0.3-1.1c-0.5-0.6-0.7-1.3-0.7-2.4l0.2-1.1c0.2-0.3,0.2-0.3,0.2-0.3c-0.2-0.3,0.2-0.2,1,0.2c1,0.3,1.8,0.8,2.6,1.3c0.5,0.2,2,1,4.1,2.4c0.5,0.3,1.3,0.6,2.1,1l2.3,1c0.2,0.2,0.2,0.2-0.2,0.3c-0.2,0.2-0.7,0.3-1.1,0.5L20.1,24.5z M22.9,28.3l-0.2,1l-0.2,0.2L22,29.2l-0.3-0.6l-0.3-0.6v-0.5l0.2-0.3l0.3-0.3l0.2-0.5l0.5-1.1v-0.2l0.2-0.2l0.2-0.2l0.3-0.2l0.2-0.3l0.2-0.2v2.9h0.3L22.9,28.3z M26.4,27.9l-0.3,0.6l-0.3,0.6l-0.3,0.3l-0.2,0.2l-0.2-1.5l-1-1.5v-2.3l0.2-0.5l0.2,0.3l0.3,0.2l0.2,0.2l0.2,0.2v0.2l0.5,1.3l0.3,0.3l0.3,0.3l0.2,0.3C26.6,27.4,26.6,27.7,26.4,27.9z M37.3,21.2c-0.2,0.6-0.3,1.1-0.7,1.3c-0.2,0.3-0.5,0.6-0.8,0.8c-0.2,0.3-1.3,0.6-3.3,0.8l-2.3,0.3c-0.7,0.2-1.1,0.2-1.3,0c-0.2,0.2-0.5,0-1-0.2L26.6,24c-1.3-0.3-1.8-0.6-1.3-0.8l2.4-0.8c1-0.3,1.6-0.8,2.1-1.1l2.1-1.3c1-0.6,1.6-1,2-1.1c0.7-0.3,1.6-0.6,2.8-1c0-0.3,0.3-0.5,0.7-0.5c0.2-0.2,0.3,0,0.3,0.2c0.2,0,0.2,0.2,0.2,0.3v1H38C37.8,19.7,37.7,20.6,37.3,21.2z"/></svg>