<svg xmlns="http://www.w3.org/2000/svg"  viewBox="0 0 48 48" width="1600px" height="1600px"><path fill="#7b1fa2" d="M34 23.7c0 0 1-4.7 3-4.7.6 0 1 2 1 4 0 1-1 2.7-1 5 0 1.7-3 1-3 0C34 28 34 23.7 34 23.7zM14 23.7c0 0-1-4.7-3-4.7-.6 0-1 2-1 4 0 1 1 2.7 1 5 0 1.7 3 1 3 0C14 28 14 23.7 14 23.7zM34 38.2V26H14v12.2c0 .5 5 6.8 10 6.8S34 38.8 34 38.2z"/><path fill="#bdbdbd" d="M32,46H17c0,0-5-1-6.2-4c0.6-0.4,1.2-0.8,1.8-1.2c0.1,0,0.1-0.1,0.2-0.1c0.8-0.6,1.3-1.5,1.3-2.5 C17,42,24,45,24,45s7-3,10-6.8c0,1,0.5,1.9,1.3,2.5c0,0,0.1,0.1,0.2,0.1c0.6,0.4,1.2,0.8,1.8,1.2C36,45,32,46,32,46z"/><path fill="#546e7a" d="M10.8 42c1.2 1 6.2 4 6.2 4H6C6 46 8.1 43.9 10.8 42zM42 46H32c0 0 4.2-3 5.3-4C39.9 43.9 42 46 42 46z"/><path fill="#ab47bc" d="M24,5c-11.7,0-11,9-11,9c0,3.7,0,13,0,13v5.8c0,1.4,0.6,2.8,1.7,3.7l6.8,5c0.4,0.3,0.8,0.5,1.3,0.5 H24h1.3c0.5,0,1-0.2,1.3-0.5l6.8-5c1.1-0.9,1.7-2.3,1.7-3.7V26c0,0,0-8.3,0-12C35,14,35.7,5,24,5z"/><path fill="#7b1fa2" d="M20.5,34.7l-0.9-1.8c0.1,0,1.8-0.9,4.4-0.9c2.6,0,4.4,0.9,4.4,0.9l-0.9,1.8c0,0-1.4-0.7-3.6-0.7 C21.9,34,20.5,34.7,20.5,34.7z"/><path fill="#8e24aa" d="M35 13.3V24c0 0-1-1.8-4-1.8L29 21l2-1 0-10.8c0-1.2-.5-2.3-1.1-3.2 4.2 1.8 4.9 5.4 5.1 7.1C35 13.2 35 13.2 35 13.3zM18.1 6.3c-.5.8-1.1 2-1.1 3.2V20l2 1-2 1.2c-3 0-4 2-4 2V13.5c0 0 0-.1 0-.1C13.1 11.7 13.9 8 18.1 6.3z"/><path fill="#eee" d="M26 23c0 0 1.3 0 3 0s3-.6 3-.7c0-.6-.3-1.3-2-1.3S26 23 26 23zM22 23c0 0-1.3 0-3 0s-3-.6-3-.7c0-.6.3-1.3 2-1.3S22 23 22 23z"/><g><path fill="#1a237e" d="M25 23c0 0 .5-1.3 2-2 2-1 3-2 4-2 2 0 3 2 3 2s-1.6-.8-2.5-.8C30 21 27 23 26 23S25 23 25 23zM23 23c0 0-.5-1.3-2-2-2-1-3-2-4-2-2 0-3 2-3 2s1.6-.8 2.5-.8C18 21 21 23 22 23S23 23 23 23z"/></g><g><path fill="#8e24aa" d="M35 26v6.8c0 1.4-.6 2.8-1.7 3.7l-1.3 1V30c0-1.1.3-1.5 1-2.3C33.5 27.2 35 26 35 26zM16 30v7.5l-1.3-1c-1.1-1-1.7-2.3-1.7-3.7V26c0 0 1.6 1.2 2 1.7C15.8 28.5 16 28.9 16 30z"/></g><path fill="#1a237e" d="M24,2C9,2,11,13,11,17v2c0.8,0,1.5,0.8,1.9,1.7c0,0,0,0,0.1,0V18c0-1.9,1.5-1.3,2-5v-1 c0-0.3,0.1-0.5,0.3-0.7c0.5-0.6,1.6-0.4,1.7,0.4c0.1,0.6,0.4,1.3,0.9,1.9c0.8,1.1,2.2,1.6,3.6,1.4l0.1,0c-1.4-0.2-2.5-1.5-2.5-3v0 c0-1.3,1.1-2.3,2.3-1.9c2.1,0.8,1.3,2.9,3.7,2.9c3,0,4-2,8-2v2c0.5,3.7,2,3.1,2,5c0,1,0,2.8,0,2.8c0,0,0,0,0,0 c0.5-0.9,1.1-1.7,2-1.7l0,0v-2C37,13,39,2,24,2z"/></svg>