<svg xmlns="http://www.w3.org/2000/svg"  viewBox="0 0 48 48" width="1600px" height="1600px"><path fill="#424242" d="M24,44C12.972,44,4,35.028,4,24S12.972,4,24,4s20,8.972,20,20S35.028,44,24,44z M24,6 C14.075,6,6,14.075,6,24s8.075,18,18,18s18-8.075,18-18S33.925,6,24,6z"/><path fill="#424242" d="M38.34 14.87l-4.07 4.58h-.01l-.09.11L24 31 9.67 14.87c.71-1.13 1.56-2.17 2.52-3.09L20 18c0 0 1.12-2.81 2.09-4.82C22.86 11.56 23.71 11 25 11c2 0 2.98.2 3 1 0 0-.35 0-1 0-1.11 0-1.06 1.17-.9 1.56C26.6 14.79 28 18 28 18l7.81-6.22C36.77 12.7 37.62 13.74 38.34 14.87zM39.02 31.97c-.75 1.41-1.69 2.7-2.79 3.83l-6.83-8.27 2.67-3.15L39.02 31.97zM40.93 25.47c-.17 2.08-.72 4.05-1.58 5.84l-6.81-7.5 2.76-3.26L40.93 25.47zM41 24c0 .2 0 .39-.01.59l-5.21-4.6 3.28-3.88C40.3 18.46 41 21.15 41 24z"/><path fill="#424242" d="M33.86 37.85C31.08 39.83 27.68 41 24 41s-7.08-1.17-9.86-3.15l6.5-9.42L24 32l3.36-3.57L33.86 37.85zM18.6 27.53l-6.84 8.26c-1.1-1.13-2.03-2.42-2.78-3.82l6.95-7.59L18.6 27.53zM15.46 23.81l-6.81 7.5c-.86-1.79-1.41-3.76-1.58-5.84l5.63-4.92L15.46 23.81zM12.22 19.99l-5.21 4.6C7 24.39 7 24.2 7 24c0-2.85.7-5.54 1.94-7.89L12.22 19.99zM34.27 19.45L34.17 19.56 34.07 19.47z"/></svg>