<svg xmlns="http://www.w3.org/2000/svg"  viewBox="0 0 48 48" width="1600px" height="1600px"><path fill="#FF3D00" d="M24,3C15.7,3,9,7.9,9,19.5S15.7,45,24,45s15-13.9,15-25.5S32.3,3,24,3z"/><path fill="#37474F" d="M36 12c0 0-.6 7.2-11.2 13 .6 6.1 7.5 8.6 7.5 8.6l1.1-1.1C44.2 21.8 36 12 36 12zM14.5 32.4l1.1 1.1c0 0 6.9-2.4 7.5-8.6C12.6 19.2 12 12 12 12S3.8 21.8 14.5 32.4z"/><path fill="#37474F" d="M25.1,25.6L34,6.4c-0.5-0.4-1.1-0.9-1.6-1.2l-8.4,18l-8.4-18c-0.6,0.4-1.1,0.8-1.6,1.2l8.9,19.2L16,40.5c0.5,0.6,1,1.1,1.5,1.6L24,28L30.5,42c0.5-0.5,1-1,1.5-1.6L25.1,25.6z"/><path fill="#37474F" d="M13.4,17.9l-0.9-1.8c0,0,3.8-1.9,3.4-5l-0.2-1.5l1.4,0.4c4,1,5.9-1.5,5.9-1.6l1.6,1.2c-0.1,0.1-2.3,3.2-6.8,2.6C17.6,15.9,13.6,17.8,13.4,17.9z"/><path fill="#37474F" d="M34.6,17.9c-0.2-0.1-4.2-2-4.6-5.7c-4.5,0.5-6.7-2.5-6.8-2.6l1.6-1.2c0.1,0.1,2,2.6,5.9,1.6l1.4-0.4L32,11.1c-0.4,3.1,3.4,5,3.4,5L34.6,17.9z"/><path fill="#37474F" d="M25,44.9c-0.3,0-0.7,0.1-1,0.1s-0.7,0-1-0.1V3c0.3,0,0.7,0,1,0s0.7,0,1,0V44.9z"/><path fill="#37474F" d="M23,41.3c0,0-1.3-3.9-3.8-3.3l-0.4-2c3.5-0.7,5.5,2.7,6.2,4.7L23,41.3z"/><path fill="#37474F" d="M25,41.3L23,40.7c0.6-1.9,2.7-5.4,6.2-4.7l-0.4,2C26.2,37.4,25,41.3,25,41.3z"/><path fill="#FFF" d="M27,26c0,0,8.7-5,9.3-10c1,3.1,1.7,8.8-4.3,15C27.4,28.2,27,26,27,26z M16,31c-6-6.2-5.3-11.9-4.3-15c0.7,5,9.3,10,9.3,10S20.6,28.2,16,31z"/></svg>