<svg xmlns="http://www.w3.org/2000/svg"  viewBox="0 0 48 48" width="1600px" height="1600px"><path fill="#90a4ae" d="M13 31H35V44H13z"/><path fill="#a0530e" d="M24 36L17 36 17 44 31 44 31 36z"/><path fill="#c16e14" d="M23.6,12.2l-8.8,4.5c-0.4,0.2-0.7,0.6-0.7,1.1v11.9c0,3.3,1.6,6.4,4.3,8.3l3,2.1 c1.6,1.1,3.7,1.1,5.3,0l3-2.1c2.7-1.9,4.3-5,4.3-8.3V17.8c0-0.5-0.3-0.9-0.7-1.1l-8.8-4.5C24.2,12.1,23.8,12.1,23.6,12.2z"/><path fill="#a0530e" d="M25,33c-0.8,0-1,1-1,1s0-1-1-1s-3,1-3,1s2.2,2,4,2s4-2,4-2S25.8,33,25,33z"/><path fill="#efebe9" d="M27 25c0 0 .6-3 3.2-3 2.2 0 2.8 1.3 2.8 1.3S32.1 25 30.5 25C28.9 25 29 25 27 25zM21 25c0 0-.6-3-3.2-3-2.2 0-2.8 1.3-2.8 1.3s.9 1.6 2.5 1.6S19 25 21 25z"/><path fill="#18ffff" d="M31 23.5c0 .8-.7 1.5-1.5 1.5S28 24.3 28 23.5c0-.2 2.4-1.2 2.6-1C30.9 22.8 31 23.1 31 23.5zM17 23.5c0 .8.7 1.5 1.5 1.5s1.5-.7 1.5-1.5c0-.2-2.4-1.3-2.6-1.1C17.2 22.7 17 23.1 17 23.5z"/><path fill="#424242" d="M27,25c0,0,0.6-3,3.2-3c2.2,0,2.8,1.3,2.8,1.3s0-0.3-3-0.3C28.4,23,27,25,27,25z"/><path fill="#424242" d="M25 23c2.7-1.3 4-4 6-4s3 3.1 3 3.1-1-1.5-3-1.5C29.2 20.6 27.3 23 25 23zM21 25c0 0-.6-3-3.2-3-2.2 0-2.8 1.3-2.8 1.3s0-.3 3-.3C19.6 23 21 25 21 25z"/><path fill="#424242" d="M23,23c-2.7-1.3-4-4-6-4s-3,3.1-3,3.1s1-1.5,3-1.5C18.8,20.6,20.8,23,23,23z"/><path fill="#cfd8dc" d="M33,44c1.7,0,14,0,14,0c0-5-3-7-3-8c0-2,2-3,2-6c0-5-6-6-6-8s1-2.2,1-5c0-2.2-2-12-14.6-12 c0,0-0.4-2-3.6-2C16.2,3,7,8,7,16c0,2,1,2,1,4s-5,3-5,6s3,5,3,7c0,3-5,3-5,11h14c0,0,0-3.2,0-5c0-3-0.5-6.2-0.5-6.2S14,31.3,14,31 c0-2,0-14,0-14c4-3,7,1,10,1s6-4,10-1c0,0,0,11,0,14c0,0.4-0.5,1.8-0.5,1.8S33,36,33,39S33,44,33,44z"/><path fill="#424242" d="M24,13c-1.7,0-3-1.6-3-3.5S22.3,6,24,6s3,1.6,3,3.5S25.7,13,24,13z M24,8c-0.5,0-1,0.7-1,1.5 s0.5,1.5,1,1.5s1-0.7,1-1.5S24.5,8,24,8z"/><g><path fill="#424242" d="M24,11c-7,0-12,5.8-12,12.4v2.8c0,2.4,0.9,4.8,2.5,6.6C14.2,31.9,14,31,14,30l0,0v-5.7 C14,19,18,14,24,14s10,4.3,10,10v6l0,0c0,1-0.2,1.9-0.5,2.8c1.6-1.8,2.5-4.2,2.5-6.6V23C36,16.3,30.7,11,24,11z"/><path fill="#424242" d="M28 13l1-5c0 0 8 3.1 8 11 0 0-.9-6.2-6-8l-1 3L28 13zM20 13l-1-5c0 0-8 3.1-8 11 0 0 .9-6.2 6-8l1 3L20 13z"/></g></svg>