<svg xmlns="http://www.w3.org/2000/svg"  viewBox="0 0 48 48" width="1600px" height="1600px"><path fill="#a3a3cd" d="M12,19.417c0,0-0.451-1.583-1.417-2.375S8.133,16.833,8.197,18c0.064,1.167-0.129,2.542-0.193,3.042 c-0.064,0.5,0.58,2.208,0.451,2.625s-0.064,1.958,1.417,1.75C11.356,25.208,12,19.417,12,19.417z"/><path fill="#6b6aaf" d="M9.479,17.75c0,0,1.041,0.208,1.699,2.375c-0.273,2.083-0.438,0.917-0.438,0.917 S10.082,18.25,9.479,17.75z"/><path fill="#6b6aaf" d="M10.63,19c0,0-1.315,1-1.315,2s1.315,3,1.315,3l0.356-2.833L10.63,19z"/><path fill="#a3a3cd" d="M38.127,25.417c1.482,0.208,1.546-1.333,1.417-1.75s0.515-2.125,0.451-2.625 S39.738,19.167,39.802,18s-1.419-1.75-2.385-0.958S36,19.417,36,19.417S36.644,25.208,38.127,25.417z"/><path fill="#6b6aaf" d="M37.259,21.042c0,0-0.164,1.166-0.438-0.917c0.657-2.167,1.699-2.375,1.699-2.375 C37.918,18.25,37.259,21.042,37.259,21.042z"/><path fill="#6b6aaf" d="M37.37,19c0,0,1.315,1,1.315,2s-1.315,3-1.315,3l-0.356-2.833L37.37,19z"/><path fill="#a3a3cd" d="M30.317,46h-12.69c-2.159,0-4.069-1.4-4.72-3.459l-2.657-8.415 c-0.166-0.524-0.237-1.074-0.211-1.623L11,12c0-5,5-10,13.167-10C31,2,37,6,37,12l0.961,19.868 c0.026,0.529-0.039,1.058-0.191,1.565l-2.712,9.04C34.43,44.566,32.503,46,30.317,46z"/><path fill="#8a8ac1" d="M19.469 17.906L17.469 17.906 13 10 15 10zM22.688 16.656L20.688 16.656 17 10 19 10zM28.219 17.906L30.219 17.906 34.688 10 32.688 10zM25 16.656L27 16.656 30.688 10 28.688 10z"/><path fill="#6b6aaf" d="M25.5 17L26.5 16 31.5 15 35.5 18 34.5 19 29.5 20z"/><path fill="#6b6aaf" d="M24.375,12.917c0,0,1.25,2.708,2.208,3.167c0.156,0.969-0.426,0.635-0.426,0.635 S24.354,16.104,24.375,12.917z"/><path fill="#6b6aaf" d="M25.729,17.167c-1.781-1.406-3.865,0.24-3.865,0.24s-0.115-0.135-0.365-0.698 c2.281-2,4.917-0.146,4.917-0.146L25.729,17.167z"/><path fill="#6b6aaf" d="M22.375 17L21.375 16 16.375 15 12.375 18 13.375 19 18.375 20z"/><path fill="#6b6aaf" d="M23.5,12.917c0,0-1.25,2.708-2.208,3.167c-0.156,0.969,0.426,0.635,0.426,0.635 S23.521,16.104,23.5,12.917z"/><path fill="#263238" d="M32.247,14.447c1.052,0.871,1.992,1.979,3.253,3.553l-3.813-2.083L32.247,14.447z"/><path fill="#263238" d="M25.422,16.094l1.828,1.469l5.167-0.75l0.854-0.354c-0.583-2.438-1.599-2.553-3.162-2.084 C28.391,14.828,27.078,15.344,25.422,16.094z"/><path fill="#fff" d="M27.219,17.563C27.535,16.694,28.294,16,29.294,16H30c0.918,0,2.194,0.289,2.771,0.583 C32.253,17.242,31.409,18,29.479,18C28.6,18,28.083,17.896,27.219,17.563z"/><path fill="#eba272" d="M30,16h-0.706c-0.142,0-0.278,0.019-0.41,0.046c-0.053,0.011-0.103,0.027-0.155,0.042 c-0.075,0.021-0.148,0.046-0.219,0.076c-0.056,0.023-0.112,0.048-0.165,0.076c-0.074,0.039-0.145,0.083-0.214,0.13 c-0.034,0.023-0.07,0.043-0.102,0.068c-0.009,0.007-0.017,0.016-0.026,0.023C28.003,16.474,28,16.486,28,16.5 c0,0.828,0.672,1.5,1.5,1.5s1.5-0.672,1.5-1.5c0-0.147-0.036-0.285-0.077-0.419C30.602,16.034,30.284,16,30,16z"/><path fill="#263238" d="M29.5 16A.5.5 0 1 0 29.5 17 .5.5 0 1 0 29.5 16zM15.675 14.447c-1.052.871-1.992 1.979-3.253 3.553l3.813-2.083L15.675 14.447z"/><path fill="#263238" d="M17.813,14.375c-1.563-0.469-2.579-0.354-3.162,2.084l0.854,0.354l5.167,0.75l1.828-1.469 C20.844,15.344,19.531,14.828,17.813,14.375z"/><path fill="#fff" d="M18.469,18c-1.93,0-2.774-0.758-3.292-1.417C15.754,16.289,17.03,16,17.948,16h0.706 c1,0,1.759,0.694,2.075,1.563C19.865,17.896,19.348,18,18.469,18z"/><path fill="#eba272" d="M18,16h0.706c0.142,0,0.278,0.019,0.41,0.046c0.053,0.011,0.103,0.027,0.155,0.042 c0.075,0.021,0.148,0.046,0.219,0.076c0.056,0.023,0.112,0.048,0.165,0.076c0.074,0.039,0.145,0.083,0.214,0.13 c0.034,0.023,0.07,0.043,0.102,0.068c0.009,0.007,0.017,0.016,0.026,0.023C19.997,16.474,20,16.486,20,16.5 c0,0.828-0.672,1.5-1.5,1.5S17,17.328,17,16.5c0-0.147,0.036-0.285,0.077-0.419C17.398,16.034,17.716,16,18,16z"/><path fill="#263238" d="M18.5 16A0.5 0.5 0 1 0 18.5 17A0.5 0.5 0 1 0 18.5 16Z"/><path fill="#6b6aaf" d="M27 24L23.969 25 21 24 21 22 23.969 23 27 22z"/><path fill="#8a8ac1" d="M19 30L17 30 12 21 14 21zM23 30L21 30 16 21 18 21zM29 30L31 30 36 21 34 21zM25 30L27 30 32 21 30 21z"/><path fill="#6b6aaf" d="M17 30c4.662-1.303 9.333-1.281 14 0M30.735 30.965c-4.511-1.238-9.042-1.238-13.466-.002l-.538-1.926c4.778-1.335 9.668-1.336 14.534-.002L30.735 30.965zM19 22L19 24 14.625 27.828 13.719 31.922 13.609 26.953zM34.391 26.953L34.281 31.922 33.375 27.828 29 24 29 22z"/><path fill="#8a8ac1" d="M10.502 22.621l-.463 9.882c-.026.549.046 1.098.211 1.623l2.657 8.415c.025.079.064.15.092.227V27l-1-2-1.375-2.938L10.502 22.621zM35.058 42.473l2.712-9.04c.152-.507.217-1.036.191-1.565l-.443-9.153-.143-.652L36 25l-1 2v15.621C35.017 42.571 35.043 42.524 35.058 42.473z"/><path fill="#8a8ac1" d="M12.908,42.541C13.558,44.6,15.468,46,17.627,46h12.69c2.186,0,4.113-1.434,4.741-3.527l0.182-0.606 c-0.734,0.878-2.133,2.319-3.692,2.716c-2.24,0.57-3.827-2.358-7.537-2.331c0-0.001,0-0.001,0-0.002 c-0.043-0.002-0.082,0.002-0.124,0.001c-0.043,0.001-0.081-0.003-0.124-0.001c0,0.001,0,0.001,0,0.002 c-3.71-0.026-5.297,2.902-7.537,2.331c-1.397-0.356-2.664-1.548-3.441-2.425L12.908,42.541z"/><g><path fill="#6b6aaf" d="M23 32H25V46H23zM33 45.192V33h-2v12.944C31.726 45.843 32.402 45.579 33 45.192zM27 32H29V46H27zM17 45.949V33h-2v12.228C15.6 45.605 16.276 45.857 17 45.949zM19 32H21V46H19z"/></g></svg>