<svg xmlns="http://www.w3.org/2000/svg"  viewBox="0 0 48 48" width="1600px" height="1600px"><path fill="#FFE082" d="M28,46c4.6,0,11.8-0.5,15-3.1c-4.8-1.8-5-18.1-5-18.1l-13-1.7v-0.3L24,23l-1-0.1v0.3l-13,1.7c0,0-0.3,16.3-5,18.1c3.2,2.6,10.4,3,15,3.1l0,0h0.4c0.1,0,0.2,0,0.3,0h6.5c0.1,0,0.2,0,0.3,0L28,46L28,46z"/><path fill="#607D8B" d="M5,15.9c0,0,0.6,0.2,1.3,0.5s1.6,0.8,2.4,1.3c0.4,0.3,0.8,0.5,1.2,0.8c0.4,0.2,0.7,0.5,1,0.7s0.6,0.4,0.8,0.5s0.3,0.2,0.3,0.2s-0.1,0.1-0.4,0.2c-0.1,0-0.3,0.1-0.4,0.1c-0.2,0-0.4,0.1-0.6,0.1c-0.2,0-0.5,0-0.7,0s-0.5-0.1-0.8-0.2c-0.5-0.2-1-0.4-1.5-0.7c-0.9-0.6-1.7-1.4-2.1-2.2C5.1,16.5,5,15.9,5,15.9z M41.7,16.4c-0.7,0.3-1.6,0.8-2.4,1.3c-0.4,0.3-0.8,0.5-1.2,0.8c-0.4,0.2-0.7,0.5-1,0.7s-0.6,0.4-0.8,0.5S36,19.9,36,19.9s0.1,0.1,0.4,0.2c0.1,0,0.3,0.1,0.4,0.1c0.2,0,0.4,0.1,0.6,0.1c0.2,0,0.5,0,0.7,0s0.5-0.1,0.8-0.2c0.5-0.2,1-0.4,1.5-0.7c0.9-0.6,1.7-1.4,2.1-2.2c0.4-0.7,0.5-1.3,0.5-1.3S42.4,16.1,41.7,16.4z"/><path fill="#90A4AE" d="M3,8.9c0,0,0.1,0,0.2,0c0.1,0,0.3,0,0.6,0.2c0.4,0.2,0.9,0.8,1.3,1.4c0.4,0.6,0.9,1.4,1.3,2.2s0.9,1.7,1.3,2.5c0.2,0.4,0.5,0.8,0.7,1.2c0.3,0.4,0.5,0.7,0.8,1S9.7,18,10,18.3c0.3,0.2,0.6,0.5,0.9,0.7c0.3,0.2,0.6,0.3,0.8,0.5c0.3,0.1,0.5,0.2,0.7,0.3c0.4,0.1,0.7,0.2,0.7,0.2s-0.2,0.1-0.7,0.2c-0.2,0-0.5,0.1-0.8,0c-0.3,0-0.7-0.1-1.1-0.2c-0.2-0.1-0.4-0.1-0.6-0.2c-0.2-0.1-0.4-0.2-0.6-0.3c-0.4-0.2-0.9-0.5-1.2-0.9c-0.8-0.7-1.4-1.6-2-2.5c-0.5-0.9-0.9-1.9-1.2-2.8c-0.3-0.9-0.5-1.7-0.7-2.4C4,10.2,3.8,9.6,3.6,9.3C3.4,9.2,3.3,9.1,3.2,9C3.1,8.9,3,8.9,3,8.9z M44.8,8.9c-0.1,0-0.3,0-0.6,0.2c-0.4,0.2-0.9,0.8-1.3,1.4c-0.4,0.6-0.9,1.4-1.3,2.2c-0.4,0.8-0.9,1.7-1.3,2.5c-0.2,0.4-0.5,0.8-0.7,1.2c-0.3,0.4-0.5,0.7-0.8,1S38.3,18,38,18.3c-0.3,0.2-0.6,0.5-0.9,0.7c-0.3,0.2-0.6,0.3-0.8,0.5c-0.3,0.1-0.5,0.2-0.7,0.3c-0.4,0.1-0.7,0.2-0.7,0.2s0.2,0.1,0.7,0.2c0.2,0,0.5,0.1,0.8,0c0.3,0,0.7-0.1,1.1-0.2c0.2-0.1,0.4-0.1,0.6-0.2c0.2-0.1,0.4-0.2,0.6-0.3c0.4-0.2,0.9-0.5,1.2-0.9c0.8-0.7,1.4-1.6,2-2.5c0.5-0.9,0.9-1.9,1.2-2.8c0.3-0.9,0.5-1.7,0.7-2.4c0.2-0.7,0.4-1.3,0.6-1.6C44.5,9.1,44.6,9,44.7,9C44.9,8.9,45,8.9,45,8.9S44.9,8.9,44.8,8.9z"/><path fill="#B0BEC5" d="M4,5.1c0,0,0.1,0,0.2-0.1c0.1,0,0.4,0,0.7,0.1c0.3,0.1,0.6,0.4,0.8,0.6C6,6,6.3,6.3,6.5,6.7c1.1,1.6,1.9,3.8,2.6,5.9c0.7,2.1,1.3,4.2,2,5.5c0.1,0.2,0.2,0.3,0.3,0.5s0.2,0.3,0.3,0.4s0.2,0.2,0.3,0.3c0.1,0.1,0.2,0.2,0.3,0.3C12.7,20,13,20,13,20.1c0,0-0.3,0.2-0.9,0.2c-0.3,0-0.7,0-1-0.2c-0.4-0.1-0.8-0.4-1.2-0.7c-0.8-0.6-1.5-1.5-2.1-2.5s-1.1-2.1-1.4-3.2C5.6,11.4,5.2,9.1,5,7.5C4.9,7.1,4.8,6.7,4.8,6.4C4.7,6.1,4.6,5.8,4.5,5.6C4.4,5.4,4.3,5.3,4.2,5.2C4.1,5.1,4,5.1,4,5.1z M43.8,5c-0.1,0-0.4,0-0.7,0.1s-0.6,0.4-0.8,0.6c-0.3,0.3-0.6,0.6-0.8,1c-1.1,1.6-1.9,3.8-2.6,5.9c-0.7,2.1-1.3,4.2-2,5.5c-0.1,0.2-0.2,0.3-0.3,0.5s-0.2,0.3-0.3,0.4s-0.2,0.2-0.3,0.3c-0.1,0.1-0.2,0.2-0.3,0.3C35.3,20,35,20,35,20.1c0,0,0.3,0.2,0.9,0.2c0.3,0,0.7,0,1-0.2c0.4-0.1,0.8-0.4,1.2-0.7c0.8-0.6,1.5-1.5,2.1-2.5s1.1-2.1,1.4-3.2c0.7-2.2,1.1-4.5,1.3-6.2C43,7.1,43,6.7,43.1,6.4c0.1-0.3,0.2-0.6,0.3-0.8c0.1-0.2,0.2-0.3,0.3-0.4C43.9,5.1,44,5.1,44,5.1S43.9,5,43.8,5z"/><path fill="#CFD8DC" d="M13.9,19.1c0,0-0.1,0-0.2,0.1c-0.2,0-0.4,0.1-0.7,0.1c-0.2,0-0.3,0-0.5,0s-0.4-0.1-0.6-0.1c-0.4-0.1-0.9-0.3-1.4-0.6c-0.5-0.3-1-0.8-1.3-1.3c-0.4-0.5-0.7-1.1-1-1.7c-0.8-1.3-1.2-2.6-1.4-4C6.3,9,6.4,6.4,6.2,4.6c0-0.5-0.1-0.9-0.2-1.2S5.8,2.8,5.7,2.6C5.5,2.4,5.4,2.3,5.2,2.2C5.1,2.1,5,2.1,5,2.1s0.1,0,0.2-0.1C5.4,2,5.7,2,6,2.1s0.7,0.4,1,0.7s0.6,0.8,0.8,1.3c1,1.9,1.4,4.6,1.9,7.1c0.1,0.6,0.2,1.2,0.3,1.8s0.2,1.2,0.4,1.7c0.1,0.5,0.3,1,0.5,1.5c0.2,0.5,0.4,0.8,0.6,1.2c0.2,0.3,0.5,0.6,0.7,0.9c0.1,0.1,0.3,0.2,0.4,0.3c0.1,0.1,0.3,0.2,0.4,0.2c0.2,0.1,0.5,0.2,0.6,0.3C13.8,19.1,13.9,19.1,13.9,19.1z M34.4,19.2c0.2,0,0.4,0.1,0.7,0.1c0.2,0,0.3,0,0.5,0s0.4-0.1,0.6-0.1c0.4-0.1,0.9-0.3,1.4-0.6c0.5-0.3,1-0.8,1.3-1.3c0.4-0.5,0.7-1.1,1-1.7c0.6-1.2,0.9-2.6,1.2-3.9c0.5-2.7,0.4-5.3,0.6-7.1c0-0.5,0.1-0.9,0.2-1.2c0.1-0.3,0.2-0.6,0.4-0.8c0.2-0.2,0.3-0.3,0.5-0.4C42.9,2.1,43,2.1,43,2.1s-0.1,0-0.2-0.1c-0.2,0-0.5,0-0.8,0.1s-0.7,0.4-1,0.7s-0.6,0.8-0.8,1.3c-1,1.9-1.4,4.6-1.9,7.1c-0.1,0.6-0.2,1.2-0.3,1.8s-0.2,1.2-0.4,1.7c-0.1,0.5-0.3,1-0.5,1.5c-0.2,0.5-0.4,0.8-0.6,1.2c-0.2,0.3-0.5,0.6-0.7,0.9c-0.1,0.1-0.3,0.2-0.4,0.3c-0.1,0.1-0.3,0.2-0.4,0.2c-0.2,0.1-0.5,0.2-0.6,0.3c-0.1,0.1-0.2,0.1-0.2,0.1S34.2,19.1,34.4,19.2z"/><path fill="#FFA726" d="M36,27.3c0,9.1-6.4,18.6-12,18.6s-12-9.5-12-18.6s5.4-16.5,12-16.5S36,18.2,36,27.3z"/><path fill="#9FA8DA" d="M24,6.8c-4.2,6.2-14,3-14,18h28C38,9.8,28.2,13,24,6.8z"/><path fill="#7986CB" d="M37.7,20.8H10.3c-0.2,1.2-0.3,2.5-0.3,4h10c0,2.2,1.8,4,4,4s4-1.8,4-4h10C38,23.3,37.9,22,37.7,20.8z"/><path fill="#FFECB3" d="M16.7,41.2c-0.6,1.4-1.5,3.4-2.2,4.5c-0.8-0.1-1.5-0.2-2.3-0.3c1.2-1.3,2.4-4.2,3.2-6.3C15.8,39.8,16.2,40.5,16.7,41.2z M31.4,41.1c0.6,1.5,1.4,3.6,2.1,4.7c0.8-0.1,1.5-0.2,2.3-0.3c-1.1-1.3-2.3-4.3-3.1-6.4C32.3,39.7,31.9,40.4,31.4,41.1z M12,24.8c0,3.2-0.4,15.4-4.7,19.3l0,0c0.6,0.3,1.3,0.5,2.1,0.7c4.2-4.9,4.6-16.8,4.6-20H12z M34,24.8c0,3.2,0.4,15.2,4.6,20c0.7-0.2,1.4-0.4,2.1-0.7l0,0C36.4,40.3,36,28,36,24.8H34z"/><path fill="#784719" d="M29.5,30.8c-2.4,0-2.5-2-2.5-2l6-1.9C33,26.9,31.9,30.8,29.5,30.8z M18.5,30.8c2.4,0,2.5-2,2.5-2l-6-1.9C15,26.9,16.1,30.8,18.5,30.8z"/></svg>