<svg xmlns="http://www.w3.org/2000/svg"  viewBox="0 0 48 48" width="1600px" height="1600px"><path fill="#37474F" d="M24,2C15.7,2,9,6.9,9,18.5S15.7,46,24,46s15-15.9,15-27.5S32.3,2,24,2z"/><path fill="#FF3D00" d="M34.7,31.3C31.8,30.1,26.3,33,24,33h-0.1v0c-2.3,0-7.8-2.9-10.7-1.7c-0.9,0.4-1.5,1.9-0.7,3.8c2.6,6,6.7,10.8,11.3,10.9v-0.1L24,46c4.6,0,8.7-4.9,11.3-10.9C36.1,33.3,35.5,31.7,34.7,31.3z"/><path fill="#ECEFF1" d="M14.4,26.2c-0.5-0.7-1.5-0.8-1.5-0.8l-0.2-1.1c0,0,0,0-0.8-2.6c-0.8-2.9-1-6.2,0.3-8.2c0.7-1.1,1.7-1.5,1.7-1.5s-1.2,1.5-0.7,2.8c0.3,1.1,1.7,1.1,2.2,0.8c0.3-0.3,1-0.7,1-0.7s-0.7,1.6,0.2,4.4c0.5,2,1.5,3.1,2.5,3.3c1.5,0.3,3.2-3.3,3.2-3.3s0.2,4.2,0.2,5.1c0,0-1.5,0.8-2.2,1.8c-0.5,0.8-1.7,2.5-2.7,2.9c-1-0.7-1.3-1.5-2-1.8c-0.7,0-1.7,0.5-1.7,0.5S14.9,26.8,14.4,26.2z M35.3,24.4l-0.2,1.1c0,0-1,0.2-1.5,0.8c-0.5,0.5,0.3,1.8,0.3,1.8s-1-0.5-1.7-0.5c-0.7,0.3-1,1-2,1.8c-1-0.7-2.2-2.1-2.7-2.9c-0.7-1-2.2-1.8-2.2-1.8c0.2-0.8,0.2-5.1,0.2-5.1s1.5,3.6,3.2,3.3c1.2-0.3,2-1.5,2.5-3.3c1-3.1,0.3-4.7,0.3-4.7s0.7,0.3,1,0.5c0.5,0.3,1.7,0.3,2.2-0.8c0.5-1.1-0.7-2.8-0.7-2.8s0.8,0.3,1.7,1.5c1.2,2,1.2,5.2,0.2,8.3C35.3,24.4,35.3,24.4,35.3,24.4z"/><path fill="#FFF3E0" d="M32,31l-2,4l-1.8-3.1c0,0,0,0,0,0c0.9-0.3,1.8-0.5,2.7-0.7l0,0C31.3,31.1,31.6,31.1,32,31z M26,37l2-5h-0.1c-1.5,0.5-2.8,0.9-3.7,1L26,37z M34.7,31.3c-0.6-0.2-1.2-0.3-1.9-0.3c-0.2,0-0.5,0-0.6,0l1.7,3l1.4-2.1C35.2,31.7,35,31.5,34.7,31.3z M16,31l2,4l1.8-3.1c0,0,0,0,0,0c-0.9-0.3-1.8-0.5-2.7-0.7l0,0C16.7,31.1,16.4,31.1,16,31z M23.8,33c-0.9-0.1-2.2-0.5-3.7-1H20l2,5L23.8,33z M12.6,31.9L14,34l1.7-3c-0.1,0-0.3,0-0.6,0c-0.7,0-1.3,0.1-1.9,0.3C13,31.5,12.8,31.7,12.6,31.9z M28,42.9c1.5-0.9,3-2.2,4.3-3.8L30,36L28,42.9z M20,42.9L18,36l-2,3.4C17.2,40.9,18.5,42.1,20,42.9z M20,42.9c1.3,0.7,2.6,1.1,4,1.1l-2-6L20,42.9z M26,38l-2,6c1.4,0,2.7-0.4,4-1.1L26,38z"/></svg>