<svg xmlns="http://www.w3.org/2000/svg"  viewBox="0 0 48 48" width="1600px" height="1600px" baseProfile="basic"><path fill="#212121" d="M10,6h28c2.209,0,4,1.791,4,4v28c0,2.209-1.791,4-4,4H10c-2.209,0-4-1.791-4-4V10	C6,7.791,7.791,6,10,6z"/><circle cx="21" cy="20" r="5" fill="#fff"/><circle cx="17.5" cy="10.5" r="2.5" fill="#fff"/><circle cx="11.5" cy="16.5" r="2.5" fill="#fff"/><rect width="1" height="5.664" x="18.438" y="11.168" fill="#fff" transform="rotate(-22.038 18.937 14)"/><rect width="1.001" height="6.088" x="14.625" y="14.831" fill="#fff" transform="rotate(-70.822 15.125 17.875)"/><polygon fill="#fff" points="12.625,33 10.375,33 7,39 9.25,39"/><polygon fill="#fff" points="10.375,33 12.625,33 16,39 13.75,39"/><polygon fill="#fff" points="17.75,33 20,33 24.25,39 22,39"/><rect width="4.125" height="1.375" x="9.375" y="36.625" fill="#fff"/><rect width="2" height="6" x="17" y="33" fill="#fff"/><rect width="2" height="6" x="23" y="33" fill="#fff"/><rect width="2" height="6" x="29" y="33" fill="#fff"/><rect width="6.875" height="1.5" x="26.5" y="33" fill="#fff"/><rect width="6" height="2" x="35" y="35" fill="#fff" transform="rotate(-90 38 36)"/><rect width="6" height="2" x="35" y="35" fill="#fff"/></svg>