<svg xmlns="http://www.w3.org/2000/svg"  viewBox="0 0 48 48" width="1600px" height="1600px"><path fill="#2196F3" d="M6,10c0-2.209,1.791-4,4-4h28c2.209,0,4,1.791,4,4v28c0,2.209-1.791,4-4,4H10c-2.209,0-4-1.791-4-4V10z"/><path fill="#FFF" d="M27 17H34V19H27zM21.512 23.428c.585-.285 1.903-.934 1.903-2.857 0-3.617-3.952-3.57-4.683-3.57H12v14h7.025C19.61 31 24 30.835 24 26.999 24 24.524 22.39 23.714 21.512 23.428zM15 19.428h2.928c.292 0 2.195.104 2.195 1.572 0 1.467-1.463 1.714-1.902 1.714H15V19.428zM18.336 28.571h-3.367v-3.856h3.367c.731 0 2.341.237 2.341 2C20.677 28.476 18.628 28.571 18.336 28.571zM32.438 28.395c-.465.289-.929.436-1.549.436-2.326 0-2.789-1.961-2.789-2.83H36c0-.869 0-1.511-.155-2.236C35.689 23.04 34.63 20 30.734 20 25.289 20 25 24.778 25 25.5c0 .723.156 1.593.467 2.171.309.724.619 1.304 1.084 1.736.464.435 1.083.866 1.703 1.157C29.028 30.855 29.803 31 30.578 31c1.238 0 2.324-.288 3.253-.868.931-.579 1.55-1.448 2.014-2.606h-2.633C33.057 27.816 32.902 28.104 32.438 28.395zM30.734 22.027c1.518 0 2.168 1.592 2.322 2.314H28.1C28.1 24.198 28.471 22.027 30.734 22.027z"/></svg>