<svg xmlns="http://www.w3.org/2000/svg"  viewBox="0 0 48 48" width="1600px" height="1600px"><path fill="#ff8c34" d="M35,42H13c-3.85,0-7-3.15-7-7V13c0-3.85,3.15-7,7-7h22c3.85,0,7,3.15,7,7v22C42,38.85,38.85,42,35,42	z"/><path fill="#ff8034" d="M42,12.562v22c0,3.85-3.15,7-7,7h-4.58C28.07,29.592,17.83,19.092,6,16.352v-3.79c0-3.85,3.15-7,7-7	h22C38.85,5.562,42,8.712,42,12.562z"/><path fill="#ff7534" d="M42,13v22c0,1.95-0.81,3.73-2.12,5C38.49,23.16,25.5,9.6,8.92,7.33C10.07,6.49,11.48,6,13,6h22	C38.85,6,42,9.15,42,13z"/><path fill="#ff7034" d="M42,13v9.86C38.29,15.88,32.71,10.03,25.93,6H35C38.85,6,42,9.15,42,13z"/><circle cx="14.5" cy="33.5" r="2.5" fill="#fff"/><circle cx="10.5" cy="37.5" r="1.5" fill="#fff"/><path fill="#ff8c34" d="M41.97,35.45c-0.01,0.35-0.06,0.69-0.13,1.02l-4.89,0.49l-0.54,4.9c-0.33,0.06-0.68,0.11-1.03,0.12	l0.55-4.92L26.55,38l-0.1-1L41.97,35.45z"/><path fill="#ff8c34" d="M42,16.562v-1h-3v-5.92l2.51,0.36c-0.15-0.39-0.34-0.75-0.56-1.1l-1.51-0.21l0.69-0.86	c-0.21-0.25-0.46-0.49-0.73-0.69l-1.11,1.38l-4.46-0.75l2.96-1.97c-0.47-0.13-0.96-0.21-1.47-0.22l-2.97,1.98h-3.68l-2.67-2h-1.67	l3.23,2.42l-6.31,2.28l1.34-4.7h-1.04l-1.2,4.22l-2.42-4.22h-1.15l2.95,5.16l-7.51,1.67l2.05-6.83h-1.04l-2,6.67l-4.26-3.2	c-0.18,0.29-0.33,0.59-0.46,0.91l4.65,3.49l5.96,6.96l0.76-0.66l-5.46-6.36l8.19-1.82c0.01,0,0.01-0.01,0.02-0.01	c0.01-0.01,0.03-0.01,0.04-0.01l5.86-2.11l-6.38,6.28l0.7,0.72l7.97-7.86h3.01l-2.1,7H27.5v1h1.93l-0.41,1.36l0.96,0.28l0.49-1.64	h2.85l7.27,5.95l-9.95-2.93l-0.28,0.96l9.52,2.8l-7.36,1.73l-2.69-2.38l-0.66,0.74l2.16,1.92l-0.94,0.22l0.22,0.98l1.63-0.39	l4.78,4.25l-8.47-0.85l-0.1,1l9.77,0.98l3.51,4.91c0.13-0.45,0.22-0.91,0.24-1.39l-2.4-3.36l2.43,0.3v-1.01l-2.74-0.34l2.74-5.47	v-2.81l-7.1-5.81H42z M38.34,30.252l-4.91-4.37l8.05-1.89L38.34,30.252z M30.77,15.562l2.08-6.93L38,9.482v6.08H30.77z"/><circle cx="24" cy="24" r="9" fill="#fff"/></svg>