<svg xmlns="http://www.w3.org/2000/svg"  viewBox="0 0 48 48" width="1600px" height="1600px"><path fill="#f50057" d="M9,33.286V15.713c0-0.632,0.764-0.949,1.211-0.502L16,21V3.711c0-0.632,0.764-0.948,1.21-0.501	l21.204,21.204C38.789,24.789,39,25.298,39,25.828v7.457c0,1.095-0.449,2.142-1.241,2.897l-8.39,7.99	C28.811,44.704,28.07,45,27.3,45h-6.6c-0.77,0-1.511-0.296-2.069-0.828l-8.39-7.99C9.449,35.427,9,34.38,9,33.286z"/><path fill="#ffd600" d="M27.106,25.394L24,28.5l-3.106-3.106c-0.503-0.503-1.31-0.53-1.845-0.061l-2.707,2.369	C16.124,27.891,16,28.165,16,28.454v2.218c0,0.53,0.211,1.039,0.586,1.414l6.564,6.564c0.47,0.47,1.231,0.47,1.701,0l6.564-6.564	C31.789,31.711,32,31.202,32,30.672v-2.218c0-0.288-0.124-0.563-0.341-0.753l-2.707-2.369	C28.416,24.864,27.609,24.891,27.106,25.394z"/></svg>