<svg xmlns="http://www.w3.org/2000/svg"  viewBox="0 0 48 48" width="1600px" height="1600px"><path fill="#8bc34a" d="M43.667,22.774l-16.51-16.51c-1.777-1.777-4.685-1.777-6.463,0L4.333,22.626c-1.777,1.777-1.777,4.685,0,6.463l9.681,9.68C15.791,40.546,17.116,42,19.629,42h8.891c2.513,0,3.838-1.454,5.616-3.232l9.531-9.531C45.444,27.46,45.444,24.552,43.667,22.774z M19.436,33.101h-0.811c-0.266,0-0.637-0.154-0.825-0.342l-1.607-1.607c-0.188-0.188-0.188-0.495,0-0.683l7.388-7.388c0.188-0.188,0.495-0.188,0.683,0l2.496,2.496c0.188,0.188,0.188,0.495,0,0.683l-6.5,6.5C20.073,32.947,19.702,33.101,19.436,33.101z M26.784,36.022l-1.63,1.63c-0.188,0.188-0.559,0.342-0.825,0.342h-0.811c-0.266,0-0.637-0.154-0.825-0.342l-1.607-1.607c-0.188-0.188-0.188-0.495,0-0.683l2.519-2.519c0.188-0.188,0.495-0.188,0.683,0l2.496,2.496C26.972,35.527,26.972,35.834,26.784,36.022z M26.813,16.488L15.401,27.899c-0.188,0.188-0.559,0.342-0.825,0.342h-0.811c-0.266,0-0.637-0.154-0.825-0.342l-1.607-1.607c-0.188-0.188-0.188-0.495,0-0.683l12.301-12.3c0.188-0.188,0.495-0.188,0.683,0l2.496,2.496C27,15.992,27,16.3,26.813,16.488z"/></svg>