<svg xmlns="http://www.w3.org/2000/svg"  viewBox="0 0 48 48" width="1600px" height="1600px"><path fill="#ff4081" d="M35.317,5H14c-1.657,0-3,1.343-3,3l0,32.897c0,0.744,0.357,1.476,1.006,1.84	C12.322,42.914,12.662,43,13,43c0.565,0,1.118-0.24,1.505-0.683L24.407,31h7.592c0.95,0,1.769-0.669,1.96-1.6l4.296-20.793	C38.639,6.745,37.218,5,35.317,5z M23.499,27c-0.576,0-1.125,0.249-1.504,0.683L15,35.677V10c0-0.552,0.448-1,1-1h16.825	c0.633,0,1.107,0.58,0.98,1.2l-1.023,5c-0.095,0.465-0.505,0.8-0.98,0.8l-8.818,0c-0.554,0-1.003,0.451-1,1.005l0.011,2	c0.003,0.55,0.45,0.995,1,0.995h7.58c0.633,0,1.107,0.58,0.98,1.2l-1.023,5c-0.095,0.465-0.505,0.8-0.98,0.8H23.499z"/></svg>