<svg xmlns="http://www.w3.org/2000/svg"  viewBox="0 0 48 48" width="1600px" height="1600px"><path fill="#2196F3" d="M42,37c0,2.762-2.238,5-5,5H11c-2.761,0-5-2.238-5-5V11c0-2.762,2.239-5,5-5h26c2.762,0,5,2.238,5,5V37z"/><path fill="#0D47A1" d="M21.878,35.606c1.171,1.171,3.071,1.171,4.243,0l8.485-8.485c1.171-1.172,1.171-3.071,0-4.242l-8.485-8.486c-1.171-1.17-3.071-1.171-4.243,0l-8.485,8.486c-1.172,1.172-1.171,3.071,0,4.242L21.878,35.606z"/><path fill="#0D47A1" d="M16,13c3.313,0,6,2.687,6,6s-2.687,6-6,6s-6-2.687-6-6S12.687,13,16,13 M16,11c-4.411,0-8,3.589-8,8s3.589,8,8,8s8-3.589,8-8S20.411,11,16,11L16,11z"/><path fill="#0D47A1" d="M42,14.852L24.322,29.906c-0.111,0.09-0.218,0.12-0.312,0.12c-0.193,0-0.332-0.128-0.332-0.128L14,22c0.627-0.235,3.651-4.199,4-5c1.201,1.576,5.519,7.863,5.565,7.919c0.079,0.093,0.224,0.208,0.408,0.208c0.137,0,0.295-0.065,0.462-0.253l13.498-18.78C37.63,6.037,37.319,6,37,6h-1.463L24.006,22.043c-1.401-2.023-3.59-5.172-4.416-6.256l-2.065-2.709l-1.36,3.123c-0.315,0.616-2.388,3.322-3.118,4.02L10.04,21.35l2.696,2.199l9.661,7.885c0.261,0.219,0.821,0.593,1.614,0.593c0.571,0,1.115-0.196,1.572-0.567L42,17.479V14.852z"/><path fill="#E3F2FD" d="M42,11c0-2.442-1.753-4.469-4.067-4.906l-13.498,18.78c-0.389,0.438-0.732,0.206-0.87,0.045C23.519,24.863,19.201,18.576,18,17c-0.349,0.801-3.373,4.765-4,5l9.678,7.898c0,0,0.305,0.282,0.644,0.008L42,14.852V11z"/><path fill="#558B2F" d="M16 13A6 6 0 1 0 16 25A6 6 0 1 0 16 13Z"/><path fill="#8BC34A" d="M20.561,15.097c-2.156-2.518-5.944-2.813-8.461-0.656c-2.519,2.154-2.813,5.94-0.658,8.461c2.153,2.516,5.943,2.812,8.459,0.657C22.418,21.406,22.713,17.617,20.561,15.097z M21.019,17.658c0.007-0.005,0.018-0.011,0.026-0.017c0.081,0.307,0.131,0.619,0.155,0.936c-0.096-0.032-0.188-0.089-0.259-0.173C20.758,18.175,20.792,17.844,21.019,17.658z M19.872,16.25c0.157-0.125,0.363-0.146,0.538-0.073c0.118,0.188,0.222,0.383,0.314,0.579c-0.021,0.123-0.081,0.232-0.183,0.317c-0.228,0.188-0.561,0.15-0.746-0.078C19.611,16.772,19.646,16.437,19.872,16.25z M19.446,18.45c-0.185-0.224-0.149-0.557,0.077-0.74c0.226-0.186,0.557-0.154,0.745,0.074c0.182,0.227,0.149,0.558-0.077,0.743C19.962,18.711,19.631,18.678,19.446,18.45z M19.841,19.982c-0.229,0.186-0.561,0.15-0.746-0.077c-0.185-0.229-0.148-0.561,0.077-0.743c0.226-0.187,0.56-0.147,0.745,0.08C20.101,19.463,20.068,19.799,19.841,19.982z M18.727,14.846c0.096-0.08,0.215-0.118,0.331-0.118c0.183,0.134,0.356,0.277,0.521,0.437c0.033,0.185-0.028,0.378-0.185,0.504c-0.227,0.184-0.56,0.146-0.744-0.079C18.466,15.365,18.5,15.028,18.727,14.846z M19.122,16.377c0.183,0.224,0.149,0.556-0.078,0.74c-0.228,0.188-0.56,0.154-0.745-0.074c-0.185-0.228-0.15-0.558,0.077-0.743C18.604,16.115,18.937,16.149,19.122,16.377z M13.467,18.643c-0.185-0.227-0.153-0.561,0.075-0.742c0.227-0.185,0.56-0.154,0.745,0.072c0.185,0.229,0.148,0.561-0.077,0.745C13.983,18.902,13.652,18.869,13.467,18.643z M13.86,20.171c-0.229,0.186-0.559,0.152-0.745-0.077c-0.185-0.227-0.151-0.558,0.077-0.743c0.227-0.184,0.56-0.147,0.745,0.078C14.121,19.652,14.088,19.987,13.86,20.171z M13.892,16.441c0.227-0.186,0.56-0.147,0.744,0.077c0.186,0.229,0.151,0.561-0.074,0.745c-0.229,0.185-0.562,0.151-0.746-0.078C13.63,16.959,13.666,16.627,13.892,16.441z M14.338,20.76c0.226-0.185,0.559-0.154,0.743,0.074c0.185,0.228,0.153,0.559-0.076,0.744c-0.226,0.184-0.56,0.153-0.744-0.073C14.078,21.275,14.111,20.944,14.338,20.76z M14.612,20.048c-0.185-0.228-0.151-0.561,0.076-0.742c0.228-0.185,0.561-0.152,0.744,0.076c0.185,0.229,0.151,0.56-0.077,0.745C15.128,20.31,14.796,20.274,14.612,20.048z M14.962,18.594c-0.183-0.228-0.151-0.559,0.076-0.744c0.226-0.183,0.56-0.15,0.743,0.074c0.186,0.228,0.152,0.561-0.076,0.744C15.48,18.853,15.145,18.823,14.962,18.594z M15.388,16.396c0.228-0.185,0.56-0.15,0.744,0.076c0.185,0.229,0.15,0.561-0.076,0.745c-0.228,0.185-0.563,0.146-0.745-0.076C15.127,16.912,15.161,16.577,15.388,16.396z M15.834,20.711c0.226-0.185,0.558-0.149,0.743,0.077c0.185,0.225,0.152,0.56-0.077,0.744c-0.227,0.185-0.559,0.15-0.745-0.077C15.573,21.228,15.607,20.896,15.834,20.711z M16.106,20c-0.185-0.225-0.149-0.557,0.077-0.744c0.227-0.185,0.559-0.151,0.745,0.078c0.185,0.227,0.148,0.558-0.075,0.744C16.625,20.261,16.291,20.229,16.106,20z M16.457,18.545c-0.185-0.228-0.151-0.559,0.076-0.744c0.229-0.184,0.56-0.147,0.744,0.079c0.186,0.227,0.152,0.558-0.076,0.742C16.975,18.81,16.641,18.773,16.457,18.545z M16.884,16.349c0.227-0.185,0.56-0.153,0.743,0.074c0.185,0.229,0.152,0.561-0.075,0.745s-0.561,0.15-0.746-0.074C16.621,16.865,16.655,16.535,16.884,16.349z M17.329,20.664c0.227-0.188,0.558-0.149,0.745,0.078c0.184,0.224,0.148,0.559-0.078,0.743c-0.227,0.187-0.559,0.147-0.744-0.076C17.067,21.181,17.102,20.846,17.329,20.664z M17.601,19.955c-0.185-0.229-0.148-0.561,0.078-0.745c0.225-0.185,0.56-0.149,0.745,0.075c0.185,0.227,0.15,0.558-0.077,0.743C18.119,20.217,17.787,20.182,17.601,19.955z M17.95,18.499c-0.185-0.227-0.148-0.56,0.077-0.742c0.229-0.186,0.56-0.153,0.745,0.076c0.185,0.228,0.151,0.558-0.077,0.744C18.469,18.76,18.135,18.728,17.95,18.499z M18.262,14.245c-0.004,0.007-0.007,0.01-0.011,0.013c-0.228,0.186-0.56,0.154-0.745-0.074c-0.064-0.079-0.102-0.175-0.115-0.271C17.691,13.999,17.98,14.11,18.262,14.245z M17.232,14.892c0.227-0.185,0.56-0.147,0.744,0.077c0.185,0.227,0.148,0.56-0.077,0.749c-0.227,0.18-0.561,0.146-0.745-0.082C16.972,15.411,17.005,15.078,17.232,14.892z M15.926,13.717c0.339-0.003,0.679,0.029,1.013,0.093c0.032,0.18-0.032,0.374-0.184,0.497c-0.228,0.186-0.56,0.15-0.744-0.076C15.889,14.08,15.863,13.886,15.926,13.717z M15.737,14.941c0.227-0.185,0.56-0.15,0.745,0.076c0.183,0.225,0.148,0.561-0.078,0.741c-0.225,0.185-0.558,0.152-0.744-0.074C15.475,15.458,15.512,15.127,15.737,14.941z M15.411,13.741c0.087,0.213,0.034,0.462-0.152,0.615c-0.227,0.182-0.56,0.147-0.744-0.08c-0.077-0.096-0.115-0.209-0.116-0.326C14.731,13.846,15.07,13.777,15.411,13.741z M14.241,14.99c0.229-0.186,0.56-0.154,0.745,0.074c0.185,0.227,0.149,0.558-0.076,0.743c-0.229,0.185-0.56,0.15-0.745-0.074C13.98,15.507,14.015,15.175,14.241,14.99z M13.943,14.112c-0.027,0.112-0.085,0.214-0.178,0.29c-0.159,0.126-0.364,0.147-0.538,0.077C13.458,14.337,13.697,14.214,13.943,14.112z M12.748,15.037c0.228-0.187,0.56-0.152,0.744,0.076c0.184,0.227,0.15,0.558-0.078,0.743c-0.227,0.185-0.56,0.146-0.745-0.076C12.484,15.556,12.521,15.22,12.748,15.037z M12.397,16.491c0.227-0.187,0.559-0.15,0.744,0.073c0.186,0.228,0.149,0.561-0.076,0.744c-0.226,0.186-0.56,0.153-0.745-0.074C12.136,17.008,12.169,16.676,12.397,16.491z M11.972,18.687c-0.185-0.225-0.152-0.556,0.076-0.744c0.226-0.181,0.56-0.146,0.744,0.081c0.184,0.223,0.15,0.559-0.075,0.742C12.488,18.951,12.154,18.914,11.972,18.687z M12.365,20.217c-0.227,0.187-0.56,0.154-0.745-0.073c-0.185-0.228-0.15-0.558,0.076-0.744c0.229-0.183,0.561-0.152,0.744,0.074C12.626,19.7,12.594,20.034,12.365,20.217z M12.103,15.393c0.036,0.186-0.027,0.385-0.184,0.511c-0.094,0.076-0.206,0.115-0.319,0.117C11.749,15.802,11.916,15.589,12.103,15.393z M11.348,16.437c0.112,0.021,0.22,0.079,0.3,0.178c0.182,0.227,0.148,0.561-0.078,0.743c-0.185,0.153-0.441,0.153-0.629,0.024C11.042,17.057,11.177,16.737,11.348,16.437z M10.807,17.883c0.179-0.026,0.367,0.035,0.49,0.186c0.184,0.225,0.148,0.561-0.077,0.746c-0.154,0.123-0.357,0.146-0.526,0.078C10.699,18.553,10.736,18.213,10.807,17.883z M10.871,20.269c-0.006,0.003-0.011,0.006-0.016,0.009c-0.077-0.304-0.127-0.612-0.148-0.919c0.089,0.03,0.175,0.086,0.24,0.164C11.131,19.75,11.096,20.083,10.871,20.269z M12.017,21.677c-0.157,0.123-0.361,0.146-0.533,0.075c-0.12-0.192-0.226-0.39-0.318-0.592c0.024-0.117,0.084-0.229,0.182-0.309c0.227-0.185,0.56-0.147,0.745,0.08C12.276,21.154,12.243,21.491,12.017,21.677z M13.16,23.079c-0.103,0.085-0.228,0.123-0.35,0.115c-0.174-0.129-0.342-0.27-0.501-0.421c-0.036-0.188,0.026-0.383,0.183-0.515c0.227-0.183,0.56-0.148,0.745,0.078C13.421,22.563,13.389,22.898,13.16,23.079z M12.768,21.551c-0.186-0.227-0.148-0.559,0.076-0.743c0.226-0.186,0.557-0.153,0.742,0.075c0.186,0.229,0.151,0.559-0.076,0.745C13.283,21.811,12.952,21.778,12.768,21.551z M13.614,23.69c0.007-0.006,0.015-0.016,0.025-0.021c0.225-0.188,0.56-0.154,0.744,0.073c0.068,0.085,0.108,0.188,0.116,0.289C14.196,23.946,13.899,23.834,13.614,23.69z M14.656,23.035c-0.226,0.185-0.56,0.148-0.744-0.079c-0.185-0.227-0.149-0.561,0.076-0.746c0.227-0.184,0.56-0.146,0.745,0.078C14.916,22.517,14.882,22.85,14.656,23.035z M15.951,24.238c-0.336,0-0.67-0.033-0.999-0.094c-0.04-0.193,0.022-0.395,0.182-0.522c0.229-0.188,0.56-0.152,0.745,0.076C16.006,23.853,16.026,24.063,15.951,24.238z M16.152,22.986c-0.227,0.185-0.561,0.15-0.745-0.076c-0.185-0.225-0.15-0.561,0.077-0.745c0.226-0.185,0.56-0.149,0.743,0.078C16.412,22.47,16.378,22.802,16.152,22.986z M16.486,24.211c-0.103-0.216-0.05-0.481,0.143-0.64c0.227-0.186,0.56-0.147,0.743,0.076c0.087,0.107,0.125,0.238,0.116,0.361C17.159,24.112,16.825,24.178,16.486,24.211z M17.646,22.938c-0.224,0.186-0.557,0.152-0.745-0.074c-0.185-0.227-0.149-0.561,0.077-0.743c0.229-0.187,0.56-0.153,0.745,0.073C17.908,22.421,17.872,22.753,17.646,22.938z M17.938,23.853c0.02-0.125,0.081-0.246,0.188-0.328c0.168-0.139,0.395-0.152,0.577-0.059C18.456,23.616,18.198,23.743,17.938,23.853z M19.143,22.891c-0.229,0.186-0.562,0.15-0.746-0.076c-0.182-0.228-0.149-0.561,0.078-0.744c0.226-0.186,0.559-0.15,0.744,0.074C19.401,22.371,19.368,22.706,19.143,22.891z M19.491,21.437c-0.228,0.186-0.56,0.15-0.744-0.074c-0.185-0.227-0.149-0.561,0.075-0.746c0.229-0.186,0.562-0.15,0.745,0.076C19.753,20.92,19.718,21.252,19.491,21.437z M19.792,22.573c-0.053-0.196,0.008-0.414,0.176-0.552c0.104-0.085,0.232-0.12,0.355-0.118C20.17,22.142,19.99,22.366,19.792,22.573z M20.571,21.499c-0.125-0.019-0.245-0.082-0.33-0.186c-0.185-0.228-0.149-0.561,0.077-0.744c0.193-0.159,0.465-0.152,0.653-0.014C20.872,20.883,20.737,21.195,20.571,21.499z M20.593,19.859c-0.186-0.228-0.151-0.56,0.076-0.744c0.159-0.134,0.371-0.15,0.547-0.071c-0.004,0.331-0.041,0.669-0.109,0.995C20.921,20.078,20.72,20.015,20.593,19.859z"/></svg>