<svg xmlns="http://www.w3.org/2000/svg"  viewBox="0 0 48 48" width="1600px" height="1600px"><path fill="#039be5" d="M36.706,6H24H11.294C8.37,6,6,8.37,6,11.294V24v12.706C6,39.63,8.37,42,11.294,42H24h12.706C39.63,42,42,39.63,42,36.706V24V11.294C42,8.37,39.63,6,36.706,6z"/><path fill="#0288d1" d="M6,24v12.706C6,39.63,8.37,42,11.294,42H24h12.706C39.63,42,42,39.63,42,36.706V24H6z"/><path fill="#fff" d="M29.295 16.059H33.001000000000005V26.648000000000003H29.295zM25.863 24.561c-.627-.701-1.499-1.095-2.618-1.18.995-.271 1.718-.668 2.175-1.198.455-.523.681-1.233.681-2.127 0-.707-.155-1.333-.454-1.874-.307-.537-.749-.967-1.329-1.29-.508-.279-1.111-.476-1.814-.592-.707-.113-1.943-.169-3.718-.169h-4.315v15.737h4.446c1.786 0 3.074-.063 3.862-.182.787-.124 1.447-.332 1.981-.617.661-.349 1.165-.845 1.517-1.483.354-.64.53-1.378.53-2.221C26.807 26.198 26.492 25.26 25.863 24.561zM18.455 19.62h.921c1.065 0 1.78.12 2.149.359.364.24.55.655.55 1.247 0 .569-.198.969-.589 1.204-.396.231-1.118.347-2.175.347h-.856L18.455 19.62 18.455 19.62zM22.109 28.645c-.419.257-1.141.384-2.154.384h-1.499V25.59h1.564c1.041 0 1.76.131 2.143.392.389.262.58.724.58 1.387C22.741 27.963 22.532 28.389 22.109 28.645z"/><path fill="#e3f2fd" d="M31.148 27.706c-1.17 0-2.118.947-2.118 2.117s.948 2.118 2.118 2.118c1.169 0 2.117-.948 2.117-2.118C33.265 28.653 32.317 27.706 31.148 27.706zM25.187 24H14.471v7.869h4.446c1.786 0 3.074-.063 3.862-.182.787-.124 1.447-.332 1.981-.617.661-.349 1.165-.845 1.517-1.483.354-.64.53-1.378.53-2.221 0-1.167-.314-2.105-.944-2.804C25.665 24.34 25.434 24.16 25.187 24zM22.109 28.645c-.419.257-1.141.384-2.154.384h-1.499V25.59h1.564c1.041 0 1.76.131 2.143.392.389.262.58.724.58 1.387C22.741 27.963 22.532 28.389 22.109 28.645zM29.295 24H33.001000000000005V26.647H29.295z"/></svg>