<svg xmlns="http://www.w3.org/2000/svg"  viewBox="0 0 48 48" width="1600px" height="1600px"><path fill="#f50057" d="M6,10c0-2.2,1.8-4,4-4h28c2.2,0,4,1.8,4,4v28c0,2.2-1.8,4-4,4H10c-2.2,0-4-1.8-4-4V10z"/><path fill="#b71c1c" d="M19.5,38c-0.062,0-0.125-0.012-0.186-0.036c-5.178-2.07-6.256-6.169-6.299-6.343 c-0.067-0.268,0.095-0.537,0.362-0.605c0.266-0.063,0.539,0.095,0.607,0.361c0.039,0.154,1.018,3.786,5.701,5.659 c0.256,0.103,0.381,0.394,0.279,0.649C19.886,37.881,19.698,38,19.5,38z"/><path fill="#b71c1c" d="M31.5,15c-0.162,0-0.32-0.078-0.417-0.223c-1.89-2.835-3.79-3.821-3.809-3.831 c-0.246-0.124-0.345-0.425-0.221-0.671c0.125-0.246,0.422-0.346,0.669-0.223c0.086,0.043,2.142,1.095,4.192,4.17 c0.153,0.229,0.091,0.54-0.139,0.693C31.692,14.973,31.596,15,31.5,15z"/><path fill="#ffd54f" d="M25.957,35.086c-1.919,0-3.697-0.736-5.596-2.317c-1.926-1.604-3.267-3.652-4.22-5.258 c-0.161-0.271-0.333-0.548-0.506-0.828c-0.447-0.722-0.91-1.467-1.267-2.226c-0.21-0.446-0.314-0.983-0.319-1.644 c-0.003-0.513,0.181-0.982,0.519-1.321c0.289-0.29,0.667-0.464,1.075-0.496c-0.433-0.618-0.607-1.271-0.503-1.891 c0.094-0.56,0.405-1.04,0.898-1.39c0.394-0.279,0.844-0.427,1.302-0.427c0.045,0,0.091,0.001,0.136,0.004 c-0.504-1.067-0.243-2.19,0.704-2.837c0.391-0.267,0.836-0.408,1.287-0.408c0.77,0,1.495,0.407,1.987,1.119l0.164,0.236 c0.062-0.194,0.157-0.375,0.283-0.534c0.319-0.403,0.808-0.635,1.342-0.635c0.166,0,0.334,0.021,0.502,0.065 c0.432,0.113,1.04,0.343,1.486,0.8c0.668,0.685,1.434,1.489,2.077,2.39c0.577,0.807,1.111,1.649,1.626,2.464 c0.247,0.389,0.493,0.777,0.745,1.163c0.025-0.09,0.053-0.18,0.085-0.269c0.179-0.497,0.376-1.025,0.655-1.528 c0.425-0.766,1.156-1.204,2.005-1.204c0.089,0,0.18,0.005,0.273,0.015c0.841,0.089,1.433,0.631,1.758,1.61 c0.445,1.343,0.497,2.813,0.539,3.995L35,23.963c-0.01,2.358-0.325,4.054-1.05,5.712c-1.333,3.048-3.554,4.785-6.789,5.312 C26.758,35.053,26.353,35.086,25.957,35.086L25.957,35.086z"/><path fill="#212121" d="M19.465,15.048c0.429,0,0.852,0.236,1.166,0.688c1.46,2.105,2.913,4.215,4.373,6.321 c0.137,0.197,0.279,0.486,0.509,0.486c0.067,0,0.142-0.025,0.226-0.084c0.344-0.241,0.023-0.559-0.122-0.808 c-0.889-1.523-1.794-3.036-2.68-4.561c-0.16-0.275-0.305-0.575-0.377-0.882c-0.13-0.551,0.187-0.974,0.683-0.974 c0.079,0,0.163,0.011,0.25,0.033c0.366,0.095,0.767,0.268,1.024,0.531c0.701,0.718,1.396,1.457,1.978,2.271 c0.862,1.205,1.62,2.485,2.433,3.726c0.175,0.266,0.371,0.531,0.607,0.741c0.138,0.123,0.276,0.183,0.402,0.183 c0.192,0,0.357-0.139,0.455-0.404c0.134-0.366,0.182-0.763,0.314-1.13c0.169-0.471,0.347-0.946,0.589-1.382 c0.243-0.439,0.631-0.689,1.13-0.689c0.054,0,0.11,0.003,0.167,0.009c0.554,0.059,0.768,0.49,0.914,0.93 C33.931,21.344,33.957,22.829,34,24c-0.009,1.984-0.239,3.611-0.967,5.274C31.84,32.002,29.9,33.528,27,34 c-0.357,0.058-0.705,0.086-1.043,0.086c-1.88,0-3.479-0.856-4.957-2.086c-1.675-1.394-2.904-3.154-4-5 c-0.563-0.948-1.259-1.973-1.729-2.97c-0.172-0.364-0.221-0.813-0.223-1.223c-0.003-0.495,0.324-0.815,0.733-0.815 c0.14,0,0.29,0.038,0.439,0.119c0.309,0.168,0.594,0.428,0.812,0.708c1.015,1.304,2.002,2.629,3.001,3.945 c0.084,0.111,0.159,0.257,0.274,0.31c0.084,0.039,0.208,0.07,0.307,0.07c0.058,0,0.108-0.011,0.136-0.037 c0.103-0.095,0.144-0.313,0.125-0.468c-0.017-0.138-0.145-0.265-0.234-0.39c-1.387-1.935-2.776-3.867-4.163-5.802 c-0.536-0.748-0.483-1.475,0.137-1.914c0.23-0.163,0.477-0.243,0.723-0.243c0.429,0,0.857,0.241,1.2,0.705 c1.125,1.519,2.248,3.039,3.372,4.559c0.058,0.079,0.114,0.16,0.176,0.236c0.132,0.161,0.257,0.404,0.456,0.404 c0.059,0,0.125-0.022,0.2-0.073c0.348-0.24,0.073-0.523-0.082-0.759c-0.669-1.018-1.345-2.031-2.018-3.045 c-0.705-1.061-1.41-2.122-2.114-3.184c-0.475-0.718-0.391-1.434,0.214-1.848C18.972,15.124,19.22,15.048,19.465,15.048 M19.465,13.048L19.465,13.048c-0.653,0-1.293,0.202-1.852,0.584c-0.993,0.679-1.472,1.745-1.379,2.858 c-0.271,0.101-0.531,0.238-0.775,0.411c-0.706,0.5-1.169,1.224-1.306,2.04c-0.065,0.39-0.076,0.913,0.11,1.511 c-0.144,0.098-0.28,0.21-0.405,0.336c-0.526,0.53-0.814,1.251-0.809,2.032c0.005,0.808,0.14,1.483,0.414,2.064 c0.382,0.811,0.86,1.582,1.322,2.328c0.17,0.275,0.339,0.546,0.496,0.811c0.995,1.675,2.398,3.817,4.44,5.516 c2.061,1.715,4.101,2.549,6.237,2.549c0.449,0,0.908-0.038,1.364-0.112c3.546-0.577,6.085-2.562,7.544-5.898 c0.784-1.791,1.123-3.606,1.134-6.067V23.97l-0.002-0.041l-0.008-0.226c-0.044-1.246-0.098-2.796-0.589-4.276 c-0.572-1.725-1.731-2.198-2.602-2.29c-0.129-0.014-0.255-0.02-0.378-0.02c-1.224,0-2.273,0.626-2.879,1.718 c-0.021,0.039-0.042,0.077-0.063,0.116c-0.431-0.678-0.879-1.368-1.361-2.043c-0.685-0.958-1.481-1.795-2.174-2.504 c-0.608-0.623-1.396-0.925-1.951-1.07c-0.249-0.065-0.503-0.098-0.753-0.098c-0.627,0-1.217,0.205-1.688,0.576 C20.953,13.318,20.228,13.048,19.465,13.048L19.465,13.048L19.465,13.048z"/><path fill="#ffa726" d="M23.5,28.999c-0.076,0-0.152-0.017-0.224-0.053c-0.246-0.124-0.346-0.424-0.223-0.67 c0.043-0.087,1.095-2.143,4.17-4.192c0.23-0.153,0.54-0.091,0.693,0.139s0.091,0.54-0.139,0.693 c-2.835,1.89-3.821,3.79-3.831,3.809C23.858,28.898,23.682,28.999,23.5,28.999z"/><g><path fill="#ffa726" d="M29.499,29.999c-0.183,0-0.359-0.101-0.446-0.275c-0.044-0.089-1.081-2.222-0.027-5.382 c0.087-0.261,0.369-0.404,0.632-0.316c0.262,0.088,0.403,0.371,0.316,0.633c-0.915,2.745-0.035,4.602-0.026,4.62 c0.121,0.247,0.02,0.547-0.228,0.669C29.649,29.982,29.574,29.999,29.499,29.999z"/></g></svg>