<svg xmlns="http://www.w3.org/2000/svg"  viewBox="0 0 48 48" width="1600px" height="1600px"><path fill="#ffea00" d="M10,8.01L11,24l-1,15.99C7.57,38.17,6,35.27,6,32V16C6,12.73,7.57,9.83,10,8.01z"/><path fill="#ffd600" d="M14,6.2L15,24l-1,17.8c-1.48-0.3-2.84-0.93-4-1.81V8.01C11.16,7.13,12.52,6.5,14,6.2z"/><path fill="#ffca28" d="M18,6l1,19l-1,17h-2c-0.69,0-1.36-0.07-2-0.2V6.2C14.64,6.07,15.31,6,16,6H18z"/><polygon fill="#ffb300" points="22,6 23,25 22,42 18,42 18,6"/><polygon fill="#ffa000" points="26,6 27,24 26,42 22,42 22,6"/><polygon fill="#ff8f00" points="30,6 31,24 30,42 26,42 26,6"/><path fill="#ff6f00" d="M34,6.2L35,24l-1,17.8c-0.64,0.13-1.31,0.2-2,0.2h-2V6h2C32.69,6,33.36,6.07,34,6.2z"/><path fill="#ff5252" d="M38,8.01L39,24l-1,15.99c-1.16,0.88-2.52,1.51-4,1.81V6.2C35.48,6.5,36.84,7.13,38,8.01z"/><path fill="#fff" d="M30,37H18c-3.309,0-6-2.691-6-6V19c0-3.309,2.691-6,6-6h12c3.309,0,6,2.691,6,6v12 C36,34.309,33.309,37,30,37z M18,15c-2.206,0-4,1.794-4,4v12c0,2.206,1.794,4,4,4h12c2.206,0,4-1.794,4-4V19c0-2.206-1.794-4-4-4 H18z"/><path fill="#fff" d="M23.999,15c-0.209,0-0.419-0.065-0.599-0.2c-0.442-0.331-0.532-0.958-0.2-1.4l3-4 c0.331-0.441,0.958-0.531,1.399-0.2c0.442,0.331,0.532,0.958,0.2,1.4l-3,4C24.604,14.862,24.304,15,23.999,15z"/><path fill="#fff" d="M24.001,15c-0.305,0-0.604-0.138-0.801-0.4l-3-4c-0.332-0.442-0.242-1.069,0.2-1.4 c0.44-0.333,1.068-0.242,1.399,0.2l3,4c0.332,0.442,0.242,1.069-0.2,1.4C24.42,14.935,24.21,15,24.001,15z"/><path fill="#fff" d="M24,28c-0.215,0-0.427-0.069-0.603-0.202C23.147,27.609,23,27.314,23,27v-2.674l-5.726,1.636 c-0.526,0.152-1.083-0.154-1.236-0.687c-0.151-0.531,0.156-1.084,0.688-1.236l7-2c0.301-0.086,0.626-0.026,0.877,0.163 C24.853,22.391,25,22.686,25,23v2.674l5.726-1.636c0.528-0.15,1.084,0.155,1.236,0.687c0.151,0.531-0.156,1.084-0.688,1.236l-7,2 C24.185,27.987,24.092,28,24,28z"/><path fill="#ff4081" d="M42,16v16c0,3.27-1.57,6.17-4,7.99V8.01C40.43,9.83,42,12.73,42,16z"/></svg>