<svg xmlns="http://www.w3.org/2000/svg"  viewBox="0 0 48 48" width="1600px" height="1600px"><path fill="#FFCC80" d="M6,18v19c0,2.762,2.239,5,5,5h26c2.762,0,5-2.238,5-5V18H6z"/><path fill="#795548" d="M42,18v-7c0-2.762-2.238-5-5-5H11c-2.761,0-5,2.238-5,5v7H42z"/><path fill="#37474F" d="M24 17A8 8 0 1 0 24 33A8 8 0 1 0 24 17Z"/><path fill="#FFF3E0" d="M24,34c-4.962,0-9-4.037-9-9c0-4.962,4.038-9,9-9c4.963,0,9,4.038,9,9C33,29.963,28.963,34,24,34z M24,18c-3.86,0-7,3.14-7,7c0,3.859,3.14,7,7,7c3.859,0,7-3.141,7-7C31,21.14,27.859,18,24,18z"/><path fill="#546E7A" d="M24 20A5 5 0 1 0 24 30A5 5 0 1 0 24 20Z"/><path fill="#BBDEFB" d="M22 21A2 2 0 1 0 22 25A2 2 0 1 0 22 21Z"/><path fill="#F44336" d="M8,7.022V18h2V6.101C9.256,6.252,8.584,6.581,8,7.022z"/><path fill="#FFEB3B" d="M11,6c-0.343,0-0.677,0.035-1,0.101V18h2V6H11z"/><path fill="#8BC34A" d="M12 6H14V18H12z"/><path fill="#2196F3" d="M14 6H16V18H14z"/><path fill="#3E2723" d="M32 9H38V15H32zM16 17.5c0 .828-.671 1.5-1.5 1.5h-5C8.671 19 8 18.328 8 17.5l0 0C8 16.672 8.671 16 9.5 16h5C15.329 16 16 16.672 16 17.5L16 17.5z"/></svg>