<svg xmlns="http://www.w3.org/2000/svg"  viewBox="0 0 48 48" width="1600px" height="1600px" baseProfile="basic"><path fill="#29b6f6" d="M24,44C12.972,44,4,35.028,4,24S12.972,4,24,4s20,8.972,20,20S35.028,44,24,44z"/><path fill="#fff" d="M32.227,15L13,15c-1.105,0-2,0.895-2,2v13c0,1.657,1.343,3,3,3h14c1.657,0,3-1.343,3-3v-2h1.5	c3.656,0,6.607-3.019,6.497-6.7C38.89,17.743,35.787,15,32.227,15z M32.5,24.5H31v-6h1.5c1.657,0,3,1.343,3,3v0	C35.5,23.157,34.157,24.5,32.5,24.5z"/><path fill="#ef5350" d="M23.538,19c-1.084,0-2.022,0.605-2.538,1.498C20.484,19.605,19.546,19,18.462,19	c-1.636,0-2.962,1.363-2.962,3.043C15.5,25.522,21,29,21,29s5.5-3.478,5.5-6.957C26.5,20.363,25.174,19,23.538,19z"/></svg>