<svg xmlns="http://www.w3.org/2000/svg"  viewBox="0 0 48 48" width="1600px" height="1600px"><path fill="#7c4dff" d="M38,10v14c0,7.72-6.28,14-14,14c-7.72,0-14-6.28-14-14c0-7.72,6.28-14,14-14H38 M43,5H24	C13.507,5,5,13.507,5,24v0c0,10.493,8.507,19,19,19h0c10.493,0,19-8.507,19-19V5L43,5z"/><path fill="#7c4dff" d="M24,33c-5.27,0-7.852-3.56-8.461-6.608c-0.217-1.083,0.485-2.137,1.569-2.353	c1.087-0.218,2.137,0.486,2.353,1.569C19.665,26.628,20.516,29,24,29s4.335-2.372,4.539-3.392c0.217-1.083,1.271-1.788,2.353-1.569	c1.083,0.216,1.786,1.27,1.569,2.353C31.852,29.44,29.27,33,24,33z"/></svg>