<svg xmlns="http://www.w3.org/2000/svg"  viewBox="0 0 48 48" width="1600px" height="1600px" clip-rule="evenodd"><path fill="#2196f3" fill-rule="evenodd" d="M28.493,24c0,8.283,3.919,15,8.754,15 C42.081,39,46,32.283,46,24c0-8.285-3.919-15-8.754-15C32.412,9,28.493,15.715,28.493,24" clip-rule="evenodd"/><path fill="#00838f" fill-rule="evenodd" d="M28.493,24.038c0,6.891,2.693,12.694,6.361,14.451 C38.462,36.124,41,30.551,41,24.041c0-6.513-2.54-12.089-6.151-14.452C31.184,11.349,28.493,17.149,28.493,24.038" clip-rule="evenodd"/><path fill="#89be36" fill-rule="evenodd" d="M26.12,24c0,8.837,2.883,16,6.44,16 C36.117,40,39,32.837,39,24c0-8.837-2.883-16-6.44-16C29.004,8,26.12,15.163,26.12,24" clip-rule="evenodd"/><path fill="#689f38" fill-rule="evenodd" d="M29.222,9.833 c-1.839,2.611-3.102,7.972-3.102,14.167c0,6.194,1.262,11.555,3.102,14.166C31.454,35.678,33,30.276,33,24 C33,17.724,31.454,12.321,29.222,9.833" clip-rule="evenodd"/><path fill="#ffa726" fill-rule="evenodd" d="M23.946,24.001C23.946,33.39,25.524,41,27.472,41 S31,33.39,31,24.001C31,14.612,29.421,7,27.472,7S23.946,14.612,23.946,24.001" clip-rule="evenodd"/><path fill="#6a1b9a" fill-rule="evenodd" d="M2,24c0,8.285,3.918,15,8.754,15 c4.834,0,8.753-6.715,8.753-15c0-8.284-3.919-15-8.753-15C5.918,9,2,15.717,2,24" clip-rule="evenodd"/><path fill="#44334f" fill-rule="evenodd" d="M19.544,24.041c0-6.891-2.714-12.694-6.409-14.451 c-3.636,2.366-6.192,7.939-6.192,14.449c0,6.514,2.559,12.089,6.198,14.452C16.833,36.73,19.544,30.93,19.544,24.041" clip-rule="evenodd"/><path fill="#ad1457" fill-rule="evenodd" d="M9,23.999C9,32.837,11.869,40,15.408,40 c3.539,0,6.409-7.163,6.409-16.001C21.817,15.163,18.948,8,15.408,8C11.869,8,9,15.163,9,23.999" clip-rule="evenodd"/><path fill="#880e4f" fill-rule="evenodd" d="M18.783,38.166 c1.842-2.611,3.106-7.972,3.106-14.167c0-6.194-1.264-11.555-3.106-14.166C16.548,12.322,15,17.724,15,24 S16.548,35.679,18.783,38.166" clip-rule="evenodd"/><path fill="#e65100" fill-rule="evenodd" d="M17,23.999C17,33.388,18.563,41,20.491,41 c1.928,0,3.49-7.612,3.49-17.001C23.981,14.611,22.419,7,20.491,7C18.563,7,17,14.611,17,23.999" clip-rule="evenodd"/></svg>