<svg xmlns="http://www.w3.org/2000/svg"  viewBox="0 0 48 48" width="1600px" height="1600px"><path fill="#3F51B5" d="M37,8c1.7,0,3,1.3,3,3v26c0,1.7-1.3,3-3,3H11c-1.7,0-3-1.3-3-3V11c0-1.7,1.3-3,3-3H37 M37,6H11c-2.8,0-5,2.2-5,5v26c0,2.8,2.2,5,5,5h26c2.8,0,5-2.2,5-5V11C42,8.2,39.8,6,37,6L37,6z"/><path fill="#3F51B5" d="M16 14A2 2 0 1 0 16 18 2 2 0 1 0 16 14zM22.5 13A2.5 2.5 0 1 0 22.5 18 2.5 2.5 0 1 0 22.5 13zM30 12A3 3 0 1 0 30 18 3 3 0 1 0 30 12zM35 36v-8.5c0-3-2.5-5.5-5.5-5.5S24 24.5 24 27.5V36H35z"/><path fill="#3F51B5" d="M27,32v-7.2c0-2.1-1.8-3.8-4-3.8c-2.2,0-4,1.7-4,3.8V32H27z"/><path fill="#3F51B5" d="M20,29v-5.3c0-2.1-1.6-3.8-3.5-3.8c-1.9,0-3.5,1.7-3.5,3.8V29H20z"/></svg>