<svg xmlns="http://www.w3.org/2000/svg"  viewBox="0 0 48 48" width="1600px" height="1600px"><path fill="#FF9800" d="M42,37c0,2.8-2.2,5-5,5H11c-2.8,0-5-2.2-5-5V11c0-2.8,2.2-5,5-5h26c2.8,0,5,2.2,5,5V37z"/><path fill="#FFF" d="M26.9,30.4c1.5-0.3,2.9-0.9,4.1-1.7c1-0.6,1.3-1.9,0.7-2.9c-0.6-1-1.9-1.3-2.9-0.7c-2.9,1.8-6.7,1.8-9.6,0c-1-0.6-2.3-0.3-2.9,0.7c-0.6,1-0.3,2.3,0.7,2.9c1.3,0.8,2.7,1.4,4.1,1.7l-4,4c-0.8,0.8-0.8,2.1,0,3c0.4,0.4,0.9,0.6,1.5,0.6c0.5,0,1.1-0.2,1.5-0.6l3.9-3.9l3.9,3.9c0.8,0.8,2.1,0.8,3,0c0.8-0.8,0.8-2.1,0-3C30.9,34.4,26.9,30.4,26.9,30.4z M24,10c-3.9,0-7,3.1-7,7c0,3.9,3.1,7,7,7c3.9,0,7-3.1,7-7C31,13.1,27.9,10,24,10z M24,20c-1.7,0-3-1.3-3-3c0-1.7,1.3-3,3-3c1.7,0,3,1.3,3,3C27,18.7,25.7,20,24,20z"/></svg>