<svg xmlns="http://www.w3.org/2000/svg"  viewBox="0 0 48 48" width="1600px" height="1600px"><path fill="#ad1457" d="M6,10c0-2.209,1.791-4,4-4h28c2.209,0,4,1.791,4,4v28c0,2.209-1.791,4-4,4H10c-2.209,0-4-1.791-4-4 V10z"/><path fill="#fafafa" d="M26.682,32L21,32v-2c0-1.105,0.895-2,2-2l3.777,0c2.61,0,4.945-1.903,5.199-4.5 C32.267,20.52,29.922,18,27,18H14v0c0-2.209,1.791-4,4-4h9c5.167,0,9.331,4.377,8.979,9.617C35.659,28.395,31.471,32,26.682,32z"/><path fill="#fafafa" d="M18,36L18,36c-2.209,0-4-1.791-4-4v-7c0-2.209,1.791-4,4-4h9c1.105,0,2,0.895,2,2v0 c0,1.105-0.895,2-2,2h-7c-1.105,0-2,0.895-2,2V36z"/></svg>