<svg xmlns="http://www.w3.org/2000/svg"  viewBox="0 0 48 48" width="1600px" height="1600px"><path fill="#29b6f6" d="M24 4A20 20 0 1 0 24 44A20 20 0 1 0 24 4Z"/><path fill="#fff" d="M24.146,38.789C21.142,38.789,13,28.82,13,22.706c0-6.339,5-11.496,11.146-11.496 C30.131,11.211,35,16.367,35,22.706C35,29.019,26.678,38.789,24.146,38.789z"/><path fill="#e53935" d="M24,27.865c-3.555,0-6.447-2.892-6.447-6.447s2.892-6.447,6.447-6.447s6.447,2.892,6.447,6.447 S27.555,27.865,24,27.865z"/><path fill="#fff" d="M21.702,21.06c-1.629,0-2.955-1.325-2.955-2.955s1.325-2.955,2.955-2.955 c1.629,0,2.955,1.325,2.955,2.955S23.331,21.06,21.702,21.06z"/></svg>