<svg xmlns="http://www.w3.org/2000/svg"  viewBox="0 0 48 48" width="1600px" height="1600px"><path fill="#01579B" d="M34 10A14 14 0 1 0 34 38A14 14 0 1 0 34 10Z"/><path fill="#01579B" d="M14 10A14 14 0 1 0 14 38A14 14 0 1 0 14 10Z"/><path fill="#F44336" d="M24,14.2c-2.5,2.5-4,6-4,9.8s1.5,7.3,4,9.8c2.5-2.5,4-6,4-9.8S26.5,16.7,24,14.2z"/><path fill="#FFF" d="M24.1,33.7c-1,1.1-2.2,2-3.5,2.7c-2.8-1.7-5.1-4.2-6.6-7.1c-1.5,2.9-3.8,5.4-6.6,7.1c-1.3-0.7-2.5-1.6-3.5-2.7C8.7,31.5,12,26.6,12,21c0-3.2,0-7.3,0-10.8c0.7-0.1,1.3-0.2,2-0.2s1.3,0.1,2,0.2V21C16,26.6,19.3,31.5,24.1,33.7z M36,21V10.2c-0.7-0.1-1.3-0.2-2-0.2s-1.3,0.1-2,0.2c0,3.6,0,7.6,0,10.8c0,5.6-3.3,10.5-8.1,12.7c1,1.1,2.2,2,3.5,2.7c2.8-1.7,5.1-4.2,6.6-7.1c1.5,2.9,3.8,5.4,6.6,7.1c1.3-0.7,2.5-1.6,3.5-2.7C39.3,31.5,36,26.6,36,21z"/></svg>