<svg xmlns="http://www.w3.org/2000/svg"  viewBox="0 0 48 48" width="1600px" height="1600px" baseProfile="basic"><path fill="#f1001a" d="M30.635,29.813c5.037-2.749,7.917-8.471,7.046-14.002C36.609,8.999,30.965,4.097,24.046,4.038	C18.941,3.994,8.265,4.063,8.037,4.08v20.098c1.41,0.094,1.497,0.142,2.525,1.369c2.267-1.309,4.835-2.826,6.938-4.04	c-0.084-0.14-0.42-0.381-0.633-0.664c-0.365-0.487-0.065-0.814,0.14-1.258c-0.625-0.125-0.828-0.043-1.242,0.094	c-0.403,0.133-0.647,0.415-1.031,0.609c-0.451,0.228-1.28,0.339-1.664-0.117c-0.399-0.474-0.072-0.607,0.258-0.984	c0.662-0.758,1.486-1.525,2.156-2.277c0.951-1.068,2.133-1.368,3.451-0.901c0.349,0.124,0.502,0.28,0.502,0.28	s0.575-0.56,0.754-0.754c1.938-2.1,4.376-4.08,7.318-5.024c0.521-0.167,1.065-0.308,1.607-0.353c1.059-0.086,1.653,0.5,1.568,1.554	c-0.046,0.566-0.191,1.134-0.369,1.676c-0.937,2.861-2.64,5-4.967,7.083c-0.244,0.218-0.742,0.716-0.742,0.716	s0.206,0.364,0.354,0.699c0.498,1.126,0.442,2.296-0.442,3.223c-0.874,0.916-1.861,1.726-2.813,2.566	c-0.333,0.294-0.798,0.437-1.087,0.059c-0.202-0.265-0.275-0.756-0.185-1.086c0.135-0.496,0.475-0.933,0.708-1.406	c0.278-0.563,0.238-1.092-0.247-1.626c-1.012,0.885-1.673-0.221-2.09-0.657c-2.449,2.588-4.489,5.334-6.93,7.913	c1.687-0.361,2.769-0.208,3.845,1.055c1.051,1.234,0.97,3.153,0.362,4.455c0.326-0.205,0.735-0.291,1.172-0.169	c0.511,0.143,0.914,0.575,1.021,1.095c0.065,0.316,0.025,0.616-0.088,0.878c2.962-2.021,6.563-0.001,6.542,3.565	c0.588-0.688,1.46-1.125,2.435-1.125c1.769,0,3.204,1.434,3.204,3.204c0,0.064-0.006,0.126-0.01,0.188c0,0,5.847,0.003,7.443,0.003	c-1.392-2.41-6.623-11.47-7.952-13.774C30.179,30.066,30.406,29.938,30.635,29.813z"/><circle cx="25.495" cy="15.478" r="1.498" fill="#f1001a"/></svg>