<svg xmlns="http://www.w3.org/2000/svg"  viewBox="0 0 48 48" width="1600px" height="1600px"><path fill="#ffee58" d="M24 4A20 20 0 1 0 24 44A20 20 0 1 0 24 4Z"/><path fill="#fff" d="M24.164,37c-0.067,0-0.133-0.002-0.199-0.005l0,0C23.923,36.998,23.88,37,23.835,37 c-1.54,0-2.529-0.716-3.485-1.408c-0.66-0.478-1.283-0.929-2.017-1.054c-0.358-0.061-0.714-0.091-1.059-0.091 c-0.62,0-1.11,0.098-1.468,0.169c-0.217,0.044-0.405,0.081-0.547,0.081c-0.149,0-0.31-0.033-0.38-0.278 c-0.061-0.212-0.105-0.418-0.147-0.617c-0.109-0.512-0.187-0.828-0.396-0.86c-2.443-0.387-3.142-0.913-3.298-1.288 c-0.022-0.053-0.035-0.107-0.038-0.16c-0.008-0.143,0.092-0.271,0.23-0.294c3.755-0.634,5.439-4.566,5.51-4.733 c0.002-0.005,0.004-0.009,0.006-0.014c0.23-0.477,0.275-0.892,0.134-1.231c-0.258-0.622-1.002-0.886-1.558-1.066 c-0.136-0.044-0.265-0.086-0.367-0.127c-1.11-0.45-1.202-0.911-1.159-1.147c0.074-0.401,0.597-0.68,1.02-0.68 c0.116,0,0.218,0.021,0.304,0.062c0.499,0.24,0.853,0.351,1.241,0.351c0.537,0,0.771-0.231,0.799-0.262 c-0.014-0.26-0.031-0.532-0.048-0.813c-0.112-1.819-0.251-4.079,0.311-5.369c1.683-3.867,5.254-4.167,6.308-4.167 c0.027,0,0.462-0.005,0.462-0.005h0.063c1.057,0,4.634,0.301,6.319,4.17c0.562,1.291,0.423,3.553,0.311,5.37l-0.005,0.079 c-0.015,0.253-0.031,0.499-0.043,0.734c0.027,0.028,0.242,0.24,0.729,0.26h0.001c0.37-0.015,0.711-0.109,1.177-0.333 c0.136-0.065,0.288-0.079,0.392-0.079c0.158,0,0.318,0.031,0.451,0.088l0.008,0.004c0.377,0.137,0.624,0.408,0.629,0.691 c0.005,0.266-0.194,0.667-1.168,1.061c-0.101,0.041-0.23,0.083-0.367,0.127c-0.557,0.181-1.313,0.428-1.571,1.05 c-0.141,0.34-0.096,0.753,0.134,1.231c0.002,0.005,0.004,0.009,0.006,0.014c0.07,0.167,1.753,4.098,5.51,4.732 c0.139,0.024,0.238,0.15,0.23,0.294c-0.003,0.054-0.016,0.108-0.038,0.161c-0.155,0.371-0.854,0.898-3.297,1.285 c-0.2,0.031-0.277,0.298-0.396,0.857c-0.043,0.203-0.087,0.403-0.148,0.613c-0.052,0.182-0.163,0.268-0.35,0.268h-0.03 c-0.129,0-0.314-0.024-0.547-0.071c-0.414-0.083-0.877-0.159-1.468-0.159c-0.344,0-0.701,0.031-1.059,0.091 c-0.733,0.125-1.356,0.576-2.014,1.053C26.693,36.284,25.704,37,24.164,37z"/></svg>