<svg xmlns="http://www.w3.org/2000/svg"  viewBox="0 0 48 48" width="1600px" height="1600px"><path fill="#d50000" d="M9,30c0,1.75,2,13,14,13c6.75,0,9-6,9-9c0-8.5-12-11.5-12-15.5c0-3,3-5,3-8.5c0-2.75-0.5-3.5-0.5-3.5	C21.25,11.25,11,15.25,11,21c0,6.25,9,8.75,9,11.5c0,1-0.75,1.5-2,1.5s-5.5-0.75-8.5-9C9,27,9,30,9,30z"/><path fill="#ff8f00" d="M22,18c0-2,3-4.75,3-8.5c0-2-0.5-3.5-1.5-4.5c1.75,0,8,2.5,8,7c0,3-1.75,6,0.5,6s1.75-3.75,1.5-5	c1.5,0.75,4.5,4,2.5,8c2.75,2,7,14.5-5.5,20.5c2.25-2.75,3.5-4.75,3.5-8.5C34,24.5,22,22.5,22,18z"/></svg>