<svg xmlns="http://www.w3.org/2000/svg"  viewBox="0 0 48 48" width="1600px" height="1600px"><path fill="#8bc34a" d="M11.5,45c-0.8,0-1.5-0.7-1.5-1.5c0-5.6,1.4-19.5,14.2-27.8c0.7-0.4,1.6-0.3,2.1,0.4s0.3,1.6-0.4,2.1 C14.2,25.7,13,38.4,13,43.5C13,44.3,12.3,45,11.5,45z"/><path fill="#03a9f4" d="M25,12c2.8,0,5,2.2,5,5s-2.2,5-5,5s-5-2.2-5-5S22.2,12,25,12z M25,3c-7.7,0-14,6.3-14,14 c0,1.7,0.3,3.4,0.9,4.9c0.2,0.5,0.8,0.9,1.4,0.9c0.8,0,1.5-0.7,1.5-1.5c0-0.2,0-0.4-0.1-0.5C14.2,19.6,14,18.3,14,17 c0-6.1,4.9-11,11-11s11,4.9,11,11s-4.9,11-11,11c-1.4,0-2.7-0.3-3.9-0.8c-0.2-0.1-0.4-0.1-0.5-0.1c-0.8,0-1.5,0.7-1.5,1.5 c0,0.6,0.4,1.2,0.9,1.4c1.6,0.6,3.3,1,5,1c7.7,0,14-6.3,14-14S32.7,3,25,3z"/></svg>