<svg xmlns="http://www.w3.org/2000/svg"  viewBox="0 0 48 48" width="1600px" height="1600px"><path fill="#0288D1" d="M42,37c0,2.762-2.238,5-5,5H11c-2.761,0-5-2.238-5-5V11c0-2.762,2.239-5,5-5h26c2.762,0,5,2.238,5,5V37z"/><path fill="#FFF" d="M31.893,24.633c-0.736-0.803-1.721-1.331-2.947-1.592l-0.682-0.105c0.854-0.36,1.521-0.919,2.006-1.684C30.756,20.49,31,19.624,31,18.646C31,14,24.904,14,23.446,14H17v20h8.059c1.381,0,2.512-0.127,3.406-0.376c0.897-0.252,1.721-0.673,2.468-1.261c0.63-0.496,1.134-1.114,1.505-1.866C32.813,29.744,33,28.869,33,27.875C33,26.516,32.63,25.436,31.893,24.633z M22,18h1.822c0,0,2.181-0.063,2.181,2s-2.118,2-2.118,2H22V18z M24.957,30c-0.496,0.021-1.39,0.008-2.688,0.008H22V25h3.043C25.572,25.014,28,24.92,28,27.46S25.453,29.982,24.957,30z"/></svg>