<svg xmlns="http://www.w3.org/2000/svg"  viewBox="0 0 48 48" width="1600px" height="1600px"><path fill="#1de9b6" d="M34,42H14c-4.418,0-8-3.582-8-8V14c0-4.418,3.582-8,8-8h20c4.418,0,8,3.582,8,8v20 C42,38.418,38.418,42,34,42z"/><path fill="#fff" d="M36,27c0-3.79-2.63-6.96-6.16-7.79C29.94,19.79,30,20.39,30,21c0,0.12,0,0.23-0.01,0.34 C32.32,22.16,34,24.39,34,27c0,1.48-0.52,2.3-1.07,3.16c-0.48,0.75-1.07,1.67-0.97,2.84H28c-2.01,0-3.78-0.99-4.87-2.5 c-0.66,0.22-1.36,0.37-2.08,0.45C22.42,33.37,25.02,35,28,35h8C31.38,32.12,36,32,36,27z"/><path fill="#fff" d="M20,13c4.418,0,8,3.582,8,8s-3.582,8-8,8c-1.94,0-7,0-8,0c4.618-2.882,0-3,0-8 C12,16.582,15.582,13,20,13z M19.731,17.954l-0.8,1.622l-1.79,0.26c-0.246,0.036-0.344,0.338-0.166,0.512l1.295,1.262 l-0.306,1.783c-0.042,0.245,0.215,0.432,0.435,0.316L20,22.867l1.601,0.842c0.22,0.116,0.477-0.071,0.435-0.316L21.73,21.61 l1.295-1.262c0.178-0.174,0.08-0.476-0.166-0.512l-1.79-0.26l-0.8-1.622C20.159,17.731,19.841,17.731,19.731,17.954z"/></svg>