<svg xmlns="http://www.w3.org/2000/svg"  viewBox="0 0 48 48" width="1600px" height="1600px"><path fill="#006064" d="M42,37c0,2.762-2.238,5-5,5H11c-2.761,0-5-2.238-5-5V11c0-2.762,2.239-5,5-5h26c2.762,0,5,2.238,5,5V37z"/><path fill="#FFF" d="M16.647,30h-4.038c-0.243,0-0.425-0.11-0.526-0.273c-0.107-0.173-0.113-0.397,0-0.615l4.291-7.524c0.004-0.01,0.004-0.013,0-0.023l-2.73-4.696c-0.115-0.222-0.131-0.442-0.024-0.615C13.721,16.087,13.926,16,14.169,16h4.039c0.619,0,0.923,0.398,1.123,0.755c0,0,2.761,4.783,2.777,4.81c-0.163,0.287-4.359,7.659-4.359,7.659C17.543,29.595,17.251,30,16.647,30z"/><path fill="#CDDC39" d="M35.914,11.881l-8.94,15.808c-0.005,0.011-0.005,0.019,0,0.026l5.692,10.404c0.112,0.224,0.117,0.45,0.009,0.623C32.571,38.908,32.384,39,32.139,39h-4.033c-0.617,0-0.928-0.41-1.127-0.771c0,0-5.724-10.498-5.739-10.525c0.286-0.506,8.984-15.934,8.984-15.934C30.44,11.382,30.704,11,31.305,11h4.082c0.242,0,0.434,0.091,0.536,0.259C36.029,11.431,36.025,11.656,35.914,11.881z"/></svg>