<svg xmlns="http://www.w3.org/2000/svg"  viewBox="0 0 48 48" width="1600px" height="1600px"><path fill="#ffeb3b" d="M34,42H14c-4.411,0-8-3.589-8-8V14c0-4.411,3.589-8,8-8h20c4.411,0,8,3.589,8,8v20 C42,38.411,38.411,42,34,42z"/><path fill="#212121" d="M24,24c0,2.237-1.752,4.05-3.913,4.05s-3.913-1.813-3.913-4.05s1.752-4.05,3.913-4.05 S24,21.763,24,24z M20.087,21.764c-1.081,0-1.957,1.001-1.957,2.236s0.876,2.236,1.957,2.236s1.957-1.001,1.957-2.236 S21.168,21.764,20.087,21.764z"/><path fill="#212121" d="M39,24c0,2.237-1.752,4.05-3.913,4.05s-3.913-1.813-3.913-4.05s1.752-4.05,3.913-4.05 S39,21.763,39,24z M35.087,21.764c-1.081,0-1.957,1.001-1.957,2.236s0.876,2.236,1.957,2.236c1.081,0,1.957-1.001,1.957-2.236 S36.168,21.764,35.087,21.764z"/><polygon fill="#212121" points="27.261,25.957 27.261,20.087 25.304,20.087 25.304,27.913 30.522,27.913 30.522,25.957"/><polygon fill="#212121" points="16.174,20.087 13.565,24.652 13.565,27.913 11.609,27.913 11.609,24.652 9,20.087 10.957,20.087 12.587,22.696 14.217,20.087"/></svg>