<svg xmlns="http://www.w3.org/2000/svg"  viewBox="0 0 48 48" width="1600px" height="1600px"><path fill="#ff3d00" d="M43.102,33.9c-0.399,2.1-2.095,3.7-4.19,4C35.621,38.4,30.135,39,23.95,39	c-6.085,0-11.571-0.6-14.963-1.1c-2.095-0.3-3.791-1.9-4.19-4C4.399,31.6,4,28.2,4,24s0.399-7.6,0.798-9.9	c0.399-2.1,2.095-3.7,4.19-4C12.279,9.6,17.766,9,23.95,9s11.571,0.6,14.963,1.1c2.095,0.3,3.791,1.9,4.19,4	C43.501,16.4,44,19.8,44,24C43.9,28.2,43.501,31.6,43.102,33.9z"/><path fill="#fff" d="M34,21c-0.33,0.17-0.67,0.33-1,0.5c-1.33,0.67-2.67,1.33-4,2c-1.67,0.83-3.34,1.66-5,2.5 c-1.66-0.84-3.33-1.67-5-2.5c-1.67-0.83-3.34-1.66-5-2.5c3.33-1.33,6.67-2.67,10-4C27.33,18.33,30.67,19.67,34,21z"/><path fill="#fff" d="M29,23v0.5c-1.67,0.83-3.34,1.66-5,2.5c-1.66-0.84-3.33-1.67-5-2.5V23H29z"/><path fill="#fff" d="M24.89,27.79L29,25.74c0,1.753,0,3.507,0,5.26c-3.333,0-6.667,0-10,0c0-1.753,0-3.507,0-5.26	l4.11,2.05L24,28.24L24.89,27.79z"/><path fill="none" stroke="#fff" stroke-miterlimit="10" stroke-width="2" d="M33,21c0,0.17,0,0.33,0,0.5c0,0.75,0,1.49,0,2.24	c0,1.09,0,2.17,0,3.26"/></svg>