<svg xmlns="http://www.w3.org/2000/svg"  viewBox="0 0 48 48" width="1600px" height="1600px"><path fill="#ffa726" d="M34,38.2V26H14v12.2c0,1.1-0.6,2-1.5,2.6C9.1,42.9,6,46,6,46h36c0,0-3.1-3.1-6.5-5.2 C34.6,40.3,34,39.3,34,38.2z"/><path fill="#f57f17" d="M10.6,42.1C8,44,6,46,6,46h36c0,0-2-2-4.6-3.9c-4.7,1.5-9,3.9-13.4,3.9S15.3,43.5,10.6,42.1z"/><path fill="#ffa726" d="M34 22.8c0 0 .3-2.8 3-2.8 1 0 1 2.7 1 3.5 0 1-1 2.5-1 3v.8c0 1-1.5 2.8-3 2.8V22.8zM14 22.8c0 0-.3-2.8-3-2.8-1 0-1 2.7-1 3.5 0 1 1 2.5 1 3v.8c0 1 1.5 2.8 3 2.8V22.8z"/><path fill="#ffb74d" d="M24,5c-11.7,0-11,9-11,9c0,3.7,0,19.6,0,19.6c0,0.9,0.4,1.7,1,2.3l6.1,5.4c0.5,0.5,1.2,0.7,2,0.7 h3.7c0.7,0,1.4-0.3,2-0.7l6.1-5.4c0.7-0.6,1-1.4,1-2.3c0,0,0-15.9,0-19.6C35,14,35.7,5,24,5z"/><path fill="#fb8c00" d="M20.4,34.7l-0.9-1.8c0.1,0,1.8-0.9,4.4-0.9c2.6,0,4.4,0.9,4.4,0.9l-0.9,1.8c0,0-1.4-0.7-3.6-0.7 C21.9,34,20.5,34.7,20.4,34.7z"/><path fill="#ffac3e" d="M35 24c0 0-2-1-5-1V9.2c0-1.3-.3-2.6-.6-3.4 4.6 1.7 5.5 5.6 5.6 7.3C35 13.2 35 24 35 24zM13 24c0 0 2-1 5-1V9.2c0-1.3.3-2.6.6-3.4-4.6 1.7-5.5 5.6-5.6 7.3C13 13.2 13 24 13 24z"/><path fill="#eee" d="M26 22.9c0 0 1.3 1.1 3 1.1s3-.9 3-2c0 0-1.3-1-3-1C28 21 26 22.9 26 22.9zM22 22.9c0 0-1.3 1.1-3 1.1s-3-.9-3-2c0 0 1.3-1 3-1C20 21 22 22.9 22 22.9z"/><path fill="#00acc1" d="M18 23c0 .6.4 1 1 1s1-.4 1-1-.4-1-1-1S18 22.4 18 23M30 23c0 .6-.4 1-1 1s-1-.4-1-1 .4-1 1-1S30 22.4 30 23"/><path fill="#ffe082" d="M35,7c0-0.6,1-1,1-1c-3-3-7.5-4-11-4c-7,0-9.8,3.5-10.6,6.1C14.3,8,14.1,8,14,8c-2,0-3,5.6-3,9v3 c0.8,0,1.6,0.4,2,0.8v12.9c0,0.9,0.4,1.7,1,2.3l3,2.6v-6.4c0-0.7-0.2-1.3-0.7-1.9L15.4,29c-0.3-0.4-0.4-0.8-0.4-1.3V14.3 c0-1,0.7-1.8,1.7-2C19.1,12,21.7,14,25,14c4.1,0,6.6,2.7,8,5.7v8.1c0,0.5-0.2,0.9-0.4,1.2l-0.9,1.1c-0.4,0.5-0.7,1.2-0.7,1.9v6.4 l3-2.6c0.7-0.6,1-1.4,1-2.3v-8.2c0.2,0.5,0.5,1,0.7,1.5c0.6,1.1,1.4,2.1,2.3,3V17C38,11,35,8.2,35,7z"/><g><path fill="#ffe082" d="M23 23c-3.4-1.3-4.1-4-6.5-4S14 22 14 22s.8-1 2.3-1C18.5 21 20.2 23 23 23zM25 23c3.4-1.3 4.1-4 6.5-4s2.5 3 2.5 3-.8-1-2.3-1C29.5 21 27.8 23 25 23z"/></g><path fill="#fbc02d" d="M37.4,42.1l-8.8,3.7c-0.4,0.2-0.8,0.2-1.1,0.2h-6.8c-0.4,0-0.8-0.1-1.1-0.2l-8.8-3.7 c0.5-0.4,1-0.7,1.5-1l7.3,3.1c2.9,1.2,6.1,1.2,9,0l7.3-3.1C36.4,41.4,36.9,41.7,37.4,42.1z"/></svg>