<svg xmlns="http://www.w3.org/2000/svg"  viewBox="0 0 48 48" width="1600px" height="1600px"><path fill="#ffa726" d="M35 21.8c0 0 .3-2.8 3-2.8 1 0 1 2.7 1 3.5 0 1-1 2.5-1 3v.8c0 1-1.5 2.8-3 2.8V21.8zM13 21.8c0 0-.3-2.8-3-2.8-1 0-1 2.7-1 3.5 0 1 1 2.5 1 3v.8c0 1 1.5 2.8 3 2.8C13 29 13 21.8 13 21.8zM34 38.2V32H14v6.2c0 1.1-.6 2-1.5 2.6L23 46h2l10.5-5.2C34.6 40.3 34 39.3 34 38.2z"/><path fill="#42a5f5" d="M24,46c0,0-10.6-5.7-11.5-5.2C9.1,42.9,6,46,6,46h36c0,0-3.1-3.1-6.5-5.2C34.6,40.3,24,46,24,46z"/><path fill="#ffb74d" d="M24,12c-11.7,0-12,0-12,0c0,3.7,0,20.6,0,20.6c0,0.9,0.4,1.7,1,2.3l6.1,5.4c0.5,0.5,1.2,0.7,2,0.7 h5.7c0.7,0,1.4-0.3,2-0.7l6.1-5.4c0.7-0.6,1-1.4,1-2.3c0,0,0-16.9,0-20.6C36,12,35.7,12,24,12z"/><path fill="#64b5f6" d="M24,2C12.3,2,12,12,12,12c0,3.7,0,20.6,0,20.6c0,0.9,0.4,1.7,1,2.3l2,1.7L14,28c3,0,9-4,10-4 s7,4,10,4l-1,8.6l2-1.7c0.7-0.6,1-1.4,1-2.3c0,0,0-16.9,0-20.6C36,12,35.7,2,24,2z"/><path fill="#fb8c00" d="M20.4,34.7l-0.9-1.8c0.1,0,1.8-0.9,4.4-0.9c2.6,0,4.4,0.9,4.4,0.9l-0.9,1.8c0,0-1.4-0.7-3.6-0.7 C21.9,34,20.5,34.7,20.4,34.7z"/><path fill="#42a5f5" d="M36 32.6V25c0 0-1.6 1.2-2 1.7-.7.8-1 1.3-1 2.3v7.6l2-1.7C35.6 34.3 36 33.5 36 32.6zM12 32.6V25c0 0 1.6 1.2 2 1.7.7.8 1 1.3 1 2.3v7.6l-2-1.7C12.4 34.3 12 33.5 12 32.6zM36 16.6c0 3.2 0 6.4 0 6.4s-1-1-4-1V6.2c0-.8-.3-1.6-.6-2.3 4.1 2.6 4.5 7.2 4.6 8 0 0 0 0 0 0 0 0 0 0 0 0C36 13.2 36 14.9 36 16.6zM16.6 3.9C16.3 4.6 16 5.4 16 6.2V22c-3 0-4 1-4 1s0-3.2 0-6.4c0-1.7 0-3.4 0-4.7 0 0 0 0 0 0C12.1 11.1 12.5 6.6 16.6 3.9zM24 12.8A.7.7 0 1 0 24 14.2.7.7 0 1 0 24 12.8z"/><path fill="#42a5f5" d="M27.9,11.3c-0.3-0.5-0.9-0.7-1.9-0.5c-0.2,0-0.3,0.1-0.5,0.1C25.2,9.7,24.7,9,24,9s-1.2,0.7-1.5,1.8 c-0.2,0-0.3-0.1-0.5-0.1c-0.9-0.1-1.6,0-1.9,0.5c-0.3,0.6,0,1.4,0.8,2.3c-0.8,0.9-1.1,1.7-0.8,2.2c0.2,0.4,0.7,0.6,1.3,0.6 c0.2,0,0.4,0,0.6,0c0.2,0,0.3-0.1,0.5-0.1c0.3,1.1,0.9,1.8,1.5,1.8s1.2-0.7,1.5-1.8c0.2,0,0.3,0.1,0.5,0.1c0.2,0,0.4,0,0.6,0 c0.6,0,1.1-0.2,1.3-0.6c0.3-0.6,0-1.4-0.8-2.3C27.9,12.6,28.2,11.8,27.9,11.3z M26.1,11.2c0.2,0,0.4,0,0.5,0c0.4,0,0.7,0.1,0.9,0.3 c0.2,0.3-0.1,1-0.7,1.7c-0.3-0.2-0.6-0.5-0.9-0.7c0-0.4-0.1-0.8-0.2-1.2C25.8,11.3,25.9,11.2,26.1,11.2z M24.7,14.7 c-0.2,0.1-0.5,0.3-0.7,0.4c-0.2-0.1-0.5-0.2-0.7-0.4c-0.2-0.1-0.5-0.3-0.7-0.4c0-0.3,0-0.5,0-0.8c0-0.3,0-0.5,0-0.8 c0.2-0.1,0.4-0.3,0.7-0.4c0.2-0.1,0.5-0.3,0.7-0.4c0.2,0.1,0.5,0.2,0.7,0.4c0.2,0.1,0.5,0.3,0.7,0.4c0,0.3,0,0.5,0,0.8 c0,0.3,0,0.5,0,0.8C25.2,14.4,24.9,14.6,24.7,14.7z M25.3,14.9c0,0.2-0.1,0.5-0.1,0.7c-0.2-0.1-0.4-0.1-0.6-0.2 c0.1-0.1,0.3-0.1,0.4-0.2C25.1,15.1,25.2,15,25.3,14.9z M23.5,15.3c-0.2,0.1-0.4,0.2-0.6,0.2c0-0.2-0.1-0.4-0.1-0.7 c0.1,0.1,0.2,0.2,0.4,0.2C23.2,15.2,23.3,15.3,23.5,15.3z M22.1,13.9c-0.2-0.1-0.4-0.3-0.5-0.4c0.2-0.1,0.3-0.3,0.5-0.4 c0,0.1,0,0.3,0,0.4C22.1,13.6,22.1,13.8,22.1,13.9z M22.7,12.1c0-0.2,0.1-0.5,0.1-0.7c0.2,0.1,0.4,0.1,0.6,0.2 c-0.1,0.1-0.3,0.1-0.4,0.2C22.9,11.9,22.8,12,22.7,12.1z M24.5,11.7c0.2-0.1,0.4-0.2,0.6-0.2c0,0.2,0.1,0.4,0.1,0.7 c-0.1-0.1-0.2-0.2-0.4-0.2C24.8,11.8,24.7,11.7,24.5,11.7z M25.9,13.1c0.2,0.1,0.4,0.3,0.5,0.4c-0.2,0.1-0.3,0.3-0.5,0.4 c0-0.1,0-0.3,0-0.4C25.9,13.4,25.9,13.2,25.9,13.1z M24,9.5c0.4,0,0.8,0.5,1.1,1.5c-0.3,0.1-0.7,0.3-1.1,0.4 c-0.4-0.2-0.7-0.3-1.1-0.4C23.2,10,23.6,9.5,24,9.5z M20.5,11.5c0.1-0.2,0.4-0.3,0.9-0.3c0.2,0,0.3,0,0.5,0c0.1,0,0.3,0.1,0.4,0.1 c-0.1,0.4-0.1,0.7-0.2,1.2c-0.3,0.2-0.6,0.5-0.9,0.7C20.6,12.5,20.3,11.8,20.5,11.5z M21.9,15.8c-0.7,0.1-1.2,0-1.4-0.3 c-0.2-0.3,0.1-1,0.7-1.7c0.3,0.2,0.6,0.5,0.9,0.7c0,0.4,0.1,0.8,0.2,1.2C22.2,15.7,22.1,15.8,21.9,15.8z M24,17.5 c-0.4,0-0.8-0.5-1.1-1.5c0.3-0.1,0.7-0.3,1.1-0.4c0.4,0.2,0.7,0.3,1.1,0.4C24.8,17,24.4,17.5,24,17.5z M27.5,15.5 c-0.2,0.3-0.7,0.4-1.4,0.3c-0.1,0-0.3-0.1-0.4-0.1c0.1-0.4,0.1-0.7,0.2-1.2c0.3-0.2,0.6-0.5,0.9-0.7C27.4,14.5,27.7,15.2,27.5,15.5 z"/><path fill="#ffb74d" d="M25.2 21.2c1-1.6 3.8-4.9 8.2-5.2.4 0 .8.2 1 .6.3.7.7 2 .7 4.4 0 1.8-.4 2.9-.7 3.5-.2.3-.6.5-.9.5-4.1-.1-6.7-1.6-7.9-2.4C25 22.3 24.9 21.7 25.2 21.2zM22.8 21.2c-1-1.6-3.8-4.9-8.2-5.2-.4 0-.8.2-1 .6-.3.7-.7 2-.7 4.4 0 1.8.4 2.9.7 3.5.2.3.6.5.9.5 4.1-.1 6.7-1.6 7.9-2.4C23 22.3 23.1 21.7 22.8 21.2z"/><g><path fill="#eee" d="M21 21.9c0 0-1.3 1.1-3 1.1s-3-.9-3-1.1c0-.9.3-2.2 2-2.2S21 21.9 21 21.9zM27 21.9c0 0 1.3 1.1 3 1.1s3-.8 3-1.1c0-.9-.3-2.2-2-2.2C29.3 19.8 27 21.9 27 21.9z"/></g><g><path fill="#424242" d="M22 22c-3.4-1.3-4.1-4-6.5-4S13 21 13 21s.8-1 2.3-1C17.5 20 19.2 22 22 22zM26 22c3.4-1.3 4.1-4 6.5-4s2.5 3 2.5 3-.8-1-2.3-1C30.5 20 28.8 22 26 22z"/></g><g><path fill="#90caf9" d="M17 22c0 .6.4 1 1 1s1-.4 1-1-.4-1-1-1S17 21.4 17 22M31 22c0 .6-.4 1-1 1s-1-.4-1-1 .4-1 1-1S31 21.4 31 22"/></g></svg>