<svg xmlns="http://www.w3.org/2000/svg"  viewBox="0 0 48 48" width="1600px" height="1600px"><path fill="#37474F" d="M24,9C10.7,9,0,15.7,0,24s10.7,15,24,15c13.3,0,24-6.7,24-15C48,15.8,37.3,9,24,9z"/><path fill="#FFEB3B" d="M24,11C12.1,11,2,16.9,2,24c0,7,10.1,13,22,13s22-5.9,22-13S35.9,11,24,11z M41,29.5c-1.3,1.1-3,2.7-5,3.5c3.3-4.8-3.1-7.2-6-2c-1.1-4.2-4.9-1.3-6,4c-1.1-5.3-4.9-8.2-6-4c-2.9-5.2-9.3-2.8-6,2c-2-0.8-3.7-2.4-5-3.6c-1.8-1.7-2.9-3.7-3-5.6c0.1-4.2,4.9-8.2,12-9.8c-5,6.6,3.1,11.3,4.5,5.4l0.6-5.9l1.4,1.5l1.5,0l1.5,0l1.4-1.5l0.6,5.9c1.4,5.8,9.5,1.2,4.5-5.4c7.1,1.7,11.9,5.7,12,9.9C43.9,25.8,42.8,27.8,41,29.5z"/></svg>