<svg xmlns="http://www.w3.org/2000/svg"  viewBox="0 0 48 48" width="1600px" height="1600px"><path fill="#424242" d="M33.024 6.083C30.405 3.793 27.905 3 24 3s-6.405.793-9.024 3.083C13 4 11 2 11 2s0 3 0 16c0 11 3 15 3.135 15.003 0 0 4.96-.003 9.865-.003s9.865.003 9.865.003C34 33 37 29 37 18c0-13 0-16 0-16S35 4 33.024 6.083zM17 35v8.49c.31.15.62.28.93.39C19.82 44.61 21.86 45 24 45s4.18-.39 6.07-1.12c.31-.11.62-.24.93-.39V35h-7H17z"/><path fill="#ffb74d" d="M23,22.99L14,16v16.468c0,0.333,0.076,0.667,0.237,0.958c1.258,2.278,3.092,3.945,4.831,5.123 c2.89,1.958,6.711,1.939,9.556-0.083c1.632-1.16,3.449-2.779,5.012-4.966C33.877,33.165,34,32.754,34,32.34V16l-9,6.99H23z"/><path fill="#616161" d="M22 22H26V24H22z"/><path fill="#e1bee7" d="M36 21c0-5.203-1.053-5.426-1.053-5.426-6.818 0-9.947 5.429-9.947 7.661S28.154 28 31.095 28 36 25.162 36 21zM12 21c0-5.203 1.053-5.426 1.053-5.426 6.818 0 9.947 5.429 9.947 7.661S19.846 28 16.905 28 12 25.162 12 21z"/><path fill="#616161" d="M35.931 21.116c0-5.203-.983-5.542-.983-5.542S36.965 13.923 38 12c0 0 0 2 0 8 0 4.976-4.731 7.408-4.731 7.408C34.936 26.392 35.931 24.132 35.931 21.116zM12.069 21.116c0-5.203.983-5.542.983-5.542S11.035 13.923 10 12c0 0 0 2 0 8 0 4.976 4.731 7.408 4.731 7.408C13.064 26.392 12.069 24.132 12.069 21.116z"/><path fill="#880e4f" d="M25,32c-0.75,0-1,1-1,1s-0.042-1-1-1s-3,1-3,1s2.2,2,4,2s4-2,4-2S25.75,32,25,32z"/><path fill="#f3e5f5" d="M27 24c0 0 .634-3 3.171-3C32.396 21 33 22.333 33 22.333S32.073 24 30.463 24C28.854 24 28.979 24 27 24zM21 24c0 0-.634-3-3.171-3C15.604 21 15 22.333 15 22.333S15.927 24 17.537 24 19.021 24 21 24z"/><g><path fill="#90caf9" d="M29.5 21A1.5 1.5 0 1 0 29.5 24 1.5 1.5 0 1 0 29.5 21zM18.5 21A1.5 1.5 0 1 0 18.5 24 1.5 1.5 0 1 0 18.5 21z"/></g><g><path fill="#263238" d="M29.5 22A.5.5 0 1 0 29.5 23 .5.5 0 1 0 29.5 22zM18.5 22A.5.5 0 1 0 18.5 23 .5.5 0 1 0 18.5 22z"/></g><g><path fill="#424242" d="M22 23c-2.7-1.25-4.139-4-6.114-4s-2.886 3.062-2.886 3.062S14 20.578 16 20.578C17.8 20.578 19.75 23 22 23zM26 23c2.7-1.25 4.025-4 6-4s2.999 3.062 2.999 3.062S34 20.578 32 20.578C30.2 20.578 28.25 23 26 23z"/></g></svg>