<svg xmlns="http://www.w3.org/2000/svg"  viewBox="0 0 48 48" width="1600px" height="1600px"><path fill="#90a4ae" d="M39 29.5L36 31V19l3.6 1.4c.8.3 1.4 1.2 1.2 2.1l-.7 5.4C40 28.6 39.6 29.2 39 29.5zM9.8 29.5l3 1.5V19l-3.6 1.4c-.8.3-1.4 1.2-1.2 2.1l.7 5.4C8.8 28.6 9.2 29.2 9.8 29.5z"/><path fill="#c16e14" d="M24,3c-7.2,0-13,5.8-13,13c0,3.7,0,19.6,0,19.6c0,0.9,0.4,1.7,1,2.3l6.1,6.4c0.5,0.5,1.2,0.7,2,0.7 H24h3.9c0.7,0,1.4-0.3,2-0.7l6.1-6.4c0.7-0.6,1-1.4,1-2.3c0,0,0-15.9,0-19.6C37,8.8,31.2,3,24,3z"/><path fill="#a0530e" d="M37 35.6V27c0 0-1.6 1.2-2 1.7-.7.8-1 1.3-1 2.3v8.6l2-1.7C36.6 37.3 37 36.5 37 35.6zM17 5.1c0 0-2 1.9-2 4.2V22h4l-4 2c-3 0-4 1-4 1v-9C11 11.4 13.4 7.4 17 5.1zM20.5 37.8l-1.1-1.7c.1 0 1.9-1.2 4.5-1.2s4.5 1.1 4.5 1.2l-1.1 1.7c0 0-1.4-.8-3.5-.8C21.9 37 20.5 37.8 20.5 37.8z"/><path fill="#d67d25" d="M20,32c0,0.5,0.5,1,1,1c1.5,0,2,1,3,1s1.5-1,3-1c0.5,0,1-0.5,1-1c0-0.5-0.3-1-1.5-1 c-0.5,0-1.8,1-2.5,1c-0.6,0-2-1-2.5-1C20.3,31,20,31.5,20,32z"/><path fill="#424242" d="M24,2c-7.2,0-14,4-14,14c0,5,1,7,1,7c0-2,2-4,2-4s0-2,0-4c0-3,1-4,3-4c2.3,0,5.4,1,8,1 C25,10,25,4,24,2z"/><path fill="#cfd8dc" d="M24,23v2.1c0,0.6,0.3,1.2,0.8,1.6c1,0.8,3,2,6.2,3.3h3c0,0-2,2-1.4,6l1.4,3.9l2-2.1 c0.7-0.6,1-1.4,1-2.3c0,0,0.6-9.9,0.9-15.9C38,18.1,37,17,35,17C30,17,29,22,24,23z"/><path fill="#efebe9" d="M21,25c0,0-0.6-3-3.2-3c-2.2,0-2.8,1.3-2.8,1.3s0.9,1.6,2.5,1.6S19,25,21,25z"/><path fill="#8d6e63" d="M18.5 22A1.5 1.5 0 1 0 18.5 25A1.5 1.5 0 1 0 18.5 22Z"/><path fill="#212121" d="M18.5 23A0.5 0.5 0 1 0 18.5 24A0.5 0.5 0 1 0 18.5 23Z"/><path fill="#424242" d="M13,23.4c0,0,1.8-0.8,2.7-0.8c3.6,0,5.3,2.4,5.3,2.4h1c0,0-1.8-4-6.3-4c-0.9,0-2.7,1.6-2.7,1.6"/><path fill="#b0bec5" d="M24,2v23.1c0,0.6,0.3,1.2,0.8,1.6c1,0.8,3,2,6.2,3.3h3c0,0-2,2-1.4,6c-0.6,3-1.9,5-2.6,5 c0,0-3-2-6-2s-6,2-6,2c-1,0-3-4-3-9c-3-2-4-8-4-8c0,6,0,11.6,0,11.6c0,0.9,0.4,1.7,1,2.3l6.1,6.4c0.5,0.5,1.2,0.7,2,0.7H24h3.9 c0.7,0,1.4-0.3,2-0.7l6.1-6.4c0.7-0.6,1-1.4,1-2.3c0,0,1-15.9,1-19.6C38,6,31.3,2,24,2z"/><path fill="#212121" d="M33,20c1,0,2,1,2,2c0,1.9-2,4-5,4c-2.5,0-5-1-5-1C29.8,23,31.4,20,33,20z"/><path fill="#90a4ae" d="M28 44c0 .4-.2.7-.5 1h-6.9c-.3-.3-.5-.6-.5-1 0-1.1 1.8-2 4-2S28 42.9 28 44zM24 14A4 4 0 1 0 24 22 4 4 0 1 0 24 14z"/><g><path fill="#f4511e" d="M32 24c0 1-.8 1.9-1.8 2-.1 0-.1 0-.2 0-1.1 0-2-.9-2-2 0-.2 0-.5.1-.7.7-.5 1.3-.9 1.8-1.3H30C31.1 22 32 22.9 32 24zM24 16A2 2 0 1 0 24 20 2 2 0 1 0 24 16z"/></g></svg>