<svg xmlns="http://www.w3.org/2000/svg"  viewBox="0 0 48 48" width="1600px" height="1600px"><path fill="#2e7d32" d="M31,1c-7.891,0-12.863,1.946-19.797,7.757c-0.189,0.158-0.363,0.336-0.508,0.535 C7.045,14.312,3,27.813,3,33.066C3,41.829,16.6,45,24,45s21-3.645,21-11.934C45,14,31,1,31,1z"/><path fill="#1b5e20" d="M33,9c-7.891,0-18,0-18,0S3,22,3,33.066C3,41.829,16.6,45,24,45s21-3.645,21-11.934C45,22,33,9,33,9 z"/><path fill="#ffa726" d="M14 22.75c0 0-.307-2.75-2.997-2.75-1.003 0-.999 2.731-.999 3.5 0 1 .999 2.487.999 3v.75c0 1 1.499 2.75 2.997 2.75V22.75zM34 22.75c0 0 .306-2.75 2.985-2.75 1.015 0 .995 2.731.995 3.5 0 1-.995 2.487-.995 3v.75c0 1-1.492 2.75-2.985 2.75V22.75z"/><path fill="#ffb74d" d="M24,7c-11.71,0-11,8.987-11,8.987c0,3.705,0,12.982,0,12.982v6.629c0,0.864,0.373,1.686,1.024,2.255 l8.175,6.45c1.02,0.929,2.58,0.929,3.6,0l8.175-6.45C34.627,37.284,35,36.462,35,35.598V27.97c0,0,0-8.278,0-11.983 C35,15.987,35.71,7,24,7z"/><path fill="#ffac3e" d="M35 35.639V28c0 0-1.552 1.195-2 1.667-.745.784-1 1.251-1 2.333v7.411l1.976-1.515C34.627 37.327 35 36.504 35 35.639zM13 35.639V28c0 0 1.552 1.195 2 1.667.745.784 1 1.251 1 2.333v7.411l-1.976-1.515C13.373 37.327 13 36.504 13 35.639zM13 12v12h4v-9.764c0-1.37.774-2.623 2-3.236v-1L13 12zM35 12v12h-4v-9.764c0-1.37-.774-2.623-2-3.236v-1L35 12z"/><g><path fill="#ff8f00" d="M27 30c-.951 0-1.675.576-2.174.812-.524.249-1.129.248-1.653 0C22.675 30.576 21.95 30 21 30c-.994 0-2 3-6 4 0 0 1 1 2 1 2.319 0 4.638-1.195 5.571-1.738C22.872 33.088 23.212 33 23.56 33l.774 0c.453 0 .794.088 1.094.262C26.362 33.805 28.681 35 31 35c1 0 2-1 2-1C29 33 27.994 30 27 30zM30.222 36c-1.4 0-1.667 2-3.222 2-1.295 0-.667-3-2.222-3-.237 0-1.241.002-1.556 0-1.556 0-.667 3-2.222 3s-1.822-2-3.222-2H17c0 7.03 7 10 7 10s7-2.97 7-10H30.222zM36 16c0 1.65-.17 3.12-.37 4.29v.01C35.25 20.48 35 21.01 35 21.01s-.631-3.532-1-5.01c-1-4-2-4-11-4-3 0-4-1-4-1s-4 1-5 5c-.369 1.475-1 5-1 5s-.25-.49-.52-.64C12.23 19.37 12 17.93 12 16c0-4.25 2.21-8 6-8 0 0 2.28-4 5.92-4 4.75 0 9.39 2.11 9.39 2.11C29.1 8.74 36 7.76 36 16z"/></g><path fill="#388e3c" d="M30.409,19c-1.409,0-4.135,1.853-5.607,2.778c-0.491,0.308-1.113,0.308-1.604,0 C21.726,20.853,19,19,17.591,19c-1.999,0-3.872,3.16-4.485,4.412c-0.155,0.317-0.14,0.695,0.036,0.999 C13.776,25.501,16,28,17.987,28c1.013,0,3.708-0.954,4.892-1.679c0.7-0.428,1.542-0.428,2.242,0C26.305,27.046,29,28,30.013,28 c1.987,0,4.211-2.518,4.844-3.608c0.176-0.304,0.192-0.682,0.036-0.999C34.281,22.14,32.408,19,30.409,19z"/><g><path fill="#eee" d="M26 24.408c0 0 .634-2.408 3.171-2.408S32 24.239 32 24.239 31.073 25 29.463 25 27.61 24.408 26 24.408zM22 24.408c0 0-.634-2.408-3.171-2.408S16 24.239 16 24.239 16.927 25 18.537 25 20.39 24.408 22 24.408z"/></g></svg>