<svg xmlns="http://www.w3.org/2000/svg"  viewBox="0 0 48 48" width="1600px" height="1600px"><path fill="#ffa726" d="M34 22.8c0 0 .3-2.8 3-2.8 1 0 1 2.7 1 3.5 0 1-1 2.5-1 3v.8c0 1-1.5 2.8-3 2.8V22.8zM14 22.8c0 0-.3-2.8-3-2.8-1 0-1 2.7-1 3.5 0 1 1 2.5 1 3v.8c0 1 1.5 2.8 3 2.8V22.8z"/><path fill="#2e7d32" d="M34,38.2V26H14v12.2c0,1.1-0.6,2-1.5,2.6C9.1,42.9,6,46,6,46h36c0,0-3.1-3.1-6.5-5.2 C34.6,40.3,34,39.3,34,38.2z"/><path fill="#ffb74d" d="M24,5c-11.7,0-11,9-11,9c0,3.7,0,13,0,13v6.6c0,0.9,0.4,1.7,1,2.3l6.1,5.4c0.5,0.5,1.2,0.7,2,0.7H24 h1.9c0.7,0,1.4-0.3,2-0.7l6.1-5.4c0.7-0.6,1-1.4,1-2.3V26c0,0,0-8.3,0-12C35,14,35.7,5,24,5z"/><path fill="#fb8c00" d="M20.4,34.7l-0.9-1.8c0.1,0,1.8-0.9,4.4-0.9c2.6,0,4.4,0.9,4.4,0.9l-0.9,1.8c0,0-1.4-0.7-3.6-0.7 C21.9,34,20.5,34.7,20.4,34.7z"/><path fill="#ffac3e" d="M35 33.6V26c0 0-1.6 1.2-2 1.7-.7.8-1 1.3-1 2.3v7.6l2-1.7C34.6 35.3 35 34.5 35 33.6zM13 33.6V26c0 0 1.6 1.2 2 1.7.7.8 1 1.3 1 2.3v7.6l-2-1.7C13.4 35.3 13 34.5 13 33.6zM35 13.3V24c0 0-1-1-4-1V9.2c0-2.2-2-4.4-2-4.4C34.2 6.7 34.9 11.5 35 13.3zM13 13.3V24c0 0 1-1 4-1V9.2c0-2.2 2-4.4 2-4.4C13.8 6.7 13.1 11.5 13 13.3z"/><path fill="#2e7d32" d="M24,30c-0.4,0-0.9-0.1-1.3-0.2l-6-2c-2.1-0.7-3.2-3-2.5-5.1c0.7-2.1,3-3.2,5.1-2.5l4.7,1.6l4.7-1.6 c2.1-0.7,4.4,0.4,5.1,2.5c0.7,2.1-0.4,4.4-2.5,5.1l-6,2C24.9,29.9,24.4,30,24,30z"/><path fill="#eee" d="M23 25c0 0-1.3 0-3 0s-3-.6-3-.7c0-.6.3-1.3 2-1.3S23 25 23 25zM25 25c0 0 1.3 0 3 0s3-.6 3-.7c0-.6-.3-1.3-2-1.3S25 25 25 25z"/><path fill="#388e3c" d="M24,30v-5l-1.7-0.5L21,29.2C22.2,29.7,23.4,30,24,30z"/><path fill="#1b5e20" d="M24,30v-5l1.7-0.5l1.4,4.7C25.9,29.7,24.6,30,24,30z"/><g><path fill="#4e342e" d="M13,20.8c-0.4-0.3-1.2-0.8-2-0.8v-3c0-3.4,1-9,3-9c1,0,1,2,1,2c0,1.2,0,3,0,3c-0.5,3.7-2,3.1-2,5 V20.8z"/><path fill="#4e342e" d="M24,2c-9,0-11,5.8-11,8c0,0,2,2.8,2,3c0,2,2,4,4,4c3,0,4-1,4-1c-0.6,0-1-0.4-1-1s0.4-1,1-1 c1.5,0,2.7-0.2,5.5-1.5S34,10,34,8C34,5,31,2,24,2z"/><path fill="#4e342e" d="M37,17v3c-0.8,0-1.6,0.4-2,0.8c0,0,0-1.8,0-2.8c0-1.9-1.5-1.3-2-5c0,0,0-1.8,0-3c0,0,0-2,1-2 C36,8,37,13.6,37,17z"/></g></svg>