<svg xmlns="http://www.w3.org/2000/svg"  viewBox="0 0 48 48" width="1600px" height="1600px"><path fill="#263238" d="M46 12c0 1.88-.25 3.41-.62 4.66C44.5 18.5 43.014 18.176 42.5 16c-.172-.73-.59-1.41-.74-1.99C41.75 14 41.75 14 41.75 14 40.88 10.72 37 10 37 10l-3-3c0 0 2-2 5-2C43 5 46 7 46 12zM15 7l-3 3c-2.94.79-5.65 3.14-5.95 6.05C6.02 16.36 6 16.68 6 17c0 0-3 .5-3.63.53v-.01C2.14 16.48 2 15.31 2 14c0-7 3.76-9 7-9C14 5 15 7 15 7z"/><path fill="#f44336" d="M15,7c0.518,0,1,0.5,1,1c0,1-2,3-3,3c-0.494,0-1-0.482-1-1C12,9,13.939,7,15,7z"/><path fill="#26c6da" d="M34 7c-.518 0-1 .5-1 1 0 1 2 3 3 3 .494 0 1-.482 1-1C37 9 35.061 7 34 7zM45.38 16.66C44.25 20.38 42 21.5 42 21.5s0-.5 0-1c0 0-.99.99-1.99 1.49C40.12 21.78 42 18.42 42 16c0-.75-.09-1.41-.24-1.99C41.9 14.13 43 15.12 43 17c.62-.67.5-3 .5-3 1 .78 1 3.5 1 3.5C45 17 45 16 45 16 45.13 16.13 45.25 16.37 45.38 16.66z"/><path fill="#f44336" d="M5.98,23L6,24c0,0-2.64-1.98-3.63-6.47v-0.01c0.06-0.97,0.63-2,0.63-2S3,16.5,3.5,17 C3.47,14.2,5,13,5,13c-0.19,0.75-0.5,2.5,0.5,4c0-0.5,0.55-0.99,0.55-0.99v0.04C6.02,16.36,6,16.68,6,17c0,5,2,8,2,8 C6.75,24.03,5.98,23,5.98,23z"/><path fill="#263238" d="M23.943,7.5C23.943,7.5,25.5,6,28,6s4.988,1.458,6,2.5s4,3.5,4,8.5c0,2-0.014,3.292-0.5,4.5 s-1.65,3.208-2.5,4c0,0,1-2.935,1-5c0-2,0-5-2.5-7c-1.769-1.415-3-1.5-4.5-1.5c-1,0-4.312,1.208-5,3c0,0-3.117-2-5-2 c-3,0-6,2-6,8.5c0,2,0.5,3.5,0.5,3.5S11,21.899,11,18.5c0-7,4.191-10.871,6.538-11.618S23.012,6.625,23.943,7.5z"/><path fill="#263238" d="M33.53,27.82C33.7,27.53,35,24.05,35,21c0-5-2.5-8-5.5-8C27,13,24,16,24,16c-0.38-0.44-3.5-2-5-2 c-3,0-5,2.5-5,7c0,4,1.2,4.54,1.45,4.98C15.7,26.41,15,28,15,29c0,1.5,1,2,2,2c0.85,0,0.97-0.5,1.47-0.5s1.29,1,1.11,1.37 c-0.19,0.38-0.25,1.36-0.25,1.36l0.73,0.37c0,0,0.1-0.02,0.14-0.37c0.03-0.24,0.23-0.3,0.23-0.3c-0.12,0.16-0.12,1.34-0.12,1.34 c0.43,0.31,0.95,0.33,0.95,0.33c0.28-0.33,0.2-1.26,0.57-1.85l0.24,0.06c-0.15,0.35-0.35,1.88-0.35,1.88 c0.21,0.37,1.36,0.46,1.36,0.46c0.18-0.25,0.27-0.94,0.27-1.3c0-0.35,0.04-1.35,0.04-1.35l0.42,0.01c0,0,0.13,0.71,0.09,1.28 c-0.06,0.73,0.33,1.7,0.33,1.7c0.92,0.05,1.23-0.31,1.23-0.31s-0.21-2.03-0.21-2.78l0.4-0.03c-0.16,1,0.29,2.63,0.29,2.63 c0.79-0.04,1.56-0.5,1.56-0.5s-0.32-0.88-0.42-1.34c-0.16-0.75,0.13-1.15,0.13-1.15c0.08,0.54,0.58,1.82,0.58,1.82 c0.54,0.05,1.02-0.39,1.02-0.39l-0.19-0.96l0.37-0.11C29,31,29.5,30.5,29.5,30.5c2.25,0,3.5,0.5,3.5,0.5l1-1.5 C34,29.5,33.36,28.12,33.53,27.82z M21.37,24.28c-0.6,0.63-1.11,1.72-1.11,1.72c-0.42-0.68-1.63-0.41-3.45-2.05 c-0.48-0.44-0.75-0.92-0.81-1.78s0.41-1.33,1.04-1.58c0.43-0.18,1.25-0.07,1.67,0.4c0.43,0.47,0.33,0.77,0.45,1.05 c0.12,0.28,0.25,0.21,0.38,0.58c0.12,0.37,0.21,0.65,0.43,0.65c0.2,0,0.12-0.65,0.03-0.87c-0.08-0.23-0.36-0.3-0.53-0.78 c-0.17-0.49,0.1-0.99,0.54-1.3c0.43-0.3,0.94-0.32,1.64-0.32c0.84,0,1.35,0.76,1.35,1.56C23,22.56,21.97,23.64,21.37,24.28z M25.9,30c-0.37-0.31-1-1.18-1.26-1.46C24.31,29.18,23.01,30,23.01,30c-0.12-1.99,1.39-4,1.39-4s0.37,0.59,1.13,1.61 C26.29,28.62,25.9,30,25.9,30z M30.46,24.4c0,0-0.86-0.79-0.9-0.95c-0.04-0.17-0.16-0.56-0.39-0.67c-0.23-0.11-0.39,0-0.39,0.1 c0,0.1,0.18,0.23,0.18,0.34s0.11,0.51,0.24,0.65c0.13,0.15,0.88,0.95,0.88,0.95s-0.67,0.96-1.22,1.18 c-1.36-1.55-2.12-2.34-2.87-3.94C27.4,20.23,29.16,19,29.16,19s0.84,1.2,1.28,1.79c1.04,1.35,1.45,1.57,1.56,1.83L30.46,24.4z"/><path fill="#263238" d="M19.118,31.224c0.363,0.168-0.038,1.355,0.1,2.264c0.138,0.909,0.665,0.965,0.748,1.313 c0.083,0.348,0.031,1.205-0.275,1.199c-0.324-0.007-1.636-1.609-1.636-1.996c0-0.387-0.16-2.266,0.073-2.58 C18.343,31.131,18.745,31.051,19.118,31.224z"/><path fill="#263238" d="M20.092 35.21c0 0-.207 1.091 0 1.956.207.865.889 1.692 1.075 1.768.186.075.703.094 1.033 0s1.55-.132 1.922-.094c.372.038 1.431.158 1.866.161.447.003.883-.01 1.131-.556.248-.545.765-1.185.827-1.692s.083-1.598 0-1.655c-.083-.056-.642-.094-.642-.094-.193.336-.366.872-.366.872s-.034-.194-.242-.377c-.212-.001-.901 0-.901 0-.135.092-.162.303-.184.615-.021.29-.093.574-.137.667l-.059-.003c-.021-.169.092-.814-.073-.965-.165-.15-.941-.132-.941-.132s-.139.573-.211 1.043c0 0-.221-.986-.397-.986-.434 0-.832.005-.832.005s-.021.135-.041.529c-.021.395-.112.635-.112.635-.051 0-.126 0-.126 0-.092-.153-.142-.556-.231-.775-.124-.301-.31-.523-.388-.541l-.207-.002c-.197.112-.356.444-.356 1.051l-.207-.019c0 0 .083-1.222-.145-1.335C20.919 35.172 20.092 35.21 20.092 35.21zM24.364 40.828c0 0-.132-.324.175-.486.307-.162.592-.486.395-.672s-1.557-.278-1.842 0c-.285.278.175.44.241.602.066.162.219.602.219.927S24 41.5 24 41.5 24.386 41.337 24.364 40.828z"/><path fill="#263238" d="M24 47c0 0 .427-.704.745-.9.33-.203 2.142-1.479 2.466-2.026.298-.502.462-1.958-.153-2.458S26.049 41 25.553 41c-.603 0-1.105.64-1.224.78-.119.14-.417.38-.695.14-.278-.24-.694-.92-1.35-.92C21 41 20.5 42 20.5 43s.226 1.4 1 2S23.015 45.5 24 47zM29.695 31.157c0 0 .094 1.684-.477 2.29-.571.606-1.305 1.137-1.21 1.813.115.814.169 1.084.612 1.103.444.019.598-.444.697-.72.189-.525 1.431-1.583 1.557-2.142.127-.559.178-2.15.051-2.282-.127-.133-.214-.37-.626-.37C29.889 30.849 29.656 30.896 29.695 31.157z"/><g><path fill="#f44336" d="M30.546,41.673c0,0,0,0.314,0.176,0.781c0.176,0.466,0.417,0.401,0.549,0.238 c0.132-0.163,0.373-0.449,0.373-0.449s0.263-0.321-0.209-0.451C30.963,41.663,30.546,41.673,30.546,41.673z"/><path fill="#f44336" d="M30.129 39.766c0 0-.121-1.084-1.142-.672-1.021.412-.944 1.041-.922 1.214.022.173.121.472.714.702 0 0-.88.04-.769.718s.966 1.138 1.175 1.192c.209.054.758.217.944-.173.187-.39.238-.791.147-1.095-.092-.304.051-.336.435-.26s.988.065 1.186-.336c.198-.401.132-1.106-.362-1.539-.494-.434-1.021-.173-1.109-.043C30.337 39.603 30.129 39.766 30.129 39.766zM17.871 39.766c0 0 .121-1.084 1.142-.672 1.021.412.944 1.041.922 1.214-.022.173-.121.472-.714.702 0 0 .88.04.769.718s-.966 1.138-1.175 1.192c-.209.054-.758.217-.944-.173-.187-.39-.238-.791-.147-1.095.092-.304-.051-.336-.435-.26s-.988.065-1.186-.336c-.198-.401-.132-1.106.362-1.539.494-.434 1.021-.173 1.109-.043C17.663 39.603 17.871 39.766 17.871 39.766z"/><path fill="#f44336" d="M17.454,41.673c0,0,0,0.314-0.176,0.781c-0.176,0.466-0.417,0.401-0.549,0.238 c-0.132-0.163-0.373-0.449-0.373-0.449s-0.263-0.321,0.209-0.451C17.037,41.663,17.454,41.673,17.454,41.673z"/></g><g><path fill="#f44336" d="M24.174 34.224c0 0 .061.662.23 1.036 0 0 .608 0 .824-.194 0 0-.128-.813-.088-.979C25.139 34.087 24.517 34.001 24.174 34.224zM25.883 34.049c0 0 .099.659.157.783 0 0 .828-.145 1.208-.391 0 0-.257-.531-.257-.663C26.99 33.777 26.296 33.722 25.883 34.049zM27.757 33.213l.111.432c0 0 .329.085.733-.276l-.133-.446C28.469 32.922 27.938 32.991 27.757 33.213zM23.11 34.136c0 0 .011.522-.151.821 0 0-.84-.103-1.033-.301 0 0 .022-.488.086-.671C22.012 33.985 22.711 33.883 23.11 34.136zM21.308 33.823c0 0-.053.408-.128.609 0 0-.675-.128-.747-.241 0 0 0-.435.064-.529C20.497 33.663 21.02 33.593 21.308 33.823zM20.082 32.992c0 0-.043.296-.105.399l-.475-.21c0 0-.028-.233.029-.359C19.531 32.823 19.835 32.823 20.082 32.992zM23.165 35.917c0 0-.063.711-.11.876 0 0 .324.101.865-.13 0 0-.124-.676-.206-.751L23.165 35.917zM24.537 35.877c0 0-.097.577-.088.773 0 0 .297.073.767-.037 0 0 .038-.547-.025-.649C25.191 35.964 24.992 35.822 24.537 35.877zM25.875 35.722c0 0-.124.277-.082.824 0 0 .666.002.963-.296.109-.109-.083-.563-.083-.563L25.875 35.722zM27.424 35.182c0 0-.277.662-.277.892 0 0 .592-.11.724-.285 0 0 .031-.428 0-.53C27.871 35.259 27.667 35.151 27.424 35.182zM21.941 35.722c0 0-.285.428-.246.922 0 0 .306.096.708.135 0 0-.073-.712-.37-1.057H21.941zM20.247 35.4c0 0 .675.035.745.098.071.063.141.658.11.906 0 0-.75.016-.917-.212L20.247 35.4z"/></g></svg>