<svg xmlns="http://www.w3.org/2000/svg"  viewBox="0 0 48 48" width="1600px" height="1600px"><path fill="#b71c1c" d="M25,36v9.815L24,46c-2.5,0-4.87-0.54-7-1.51V36H25z"/><path fill="#b71c1c" d="M25 36v9.815L24 46c-2.5 0-4.87-.54-7-1.51V36H25zM19 11.538c0 0-.36-7.538-7.92-7.538C4.36 4 2 14.769 2 14.769l.68.462C2.68 15.231 5 12 9 12s3.96 6 3.96 6L19 11.538z"/><path fill="#b71c1c" d="M25,34l-10.865,0.003C12.374,29.71,11,22.938,11,18.647C11,16.539,11,13,11,11 c0-1.162,2.257-2.256,3-3c3-3,5.61-4,10-4c0.339,0,0.673,0.01,1,0.031C25,10,25,34,25,34z"/><path fill="#424242" d="M31 36v8.49c-.31.15-.62.28-.93.39C28.18 45.61 26.14 46 24 46V36H31zM29 11.538c0 0 .36-7.538 7.92-7.538C43.64 4 46 14.769 46 14.769l-.68.462C45.32 15.231 43 12 39 12s-3.96 6-3.96 6L29 11.538z"/><path fill="#424242" d="M37,18.651c0,4.241-1.407,11.063-3.135,15.353c0,0-4.96-0.003-9.865-0.003V4c4.387,0,7,1,10,4 c0.961,0.961,3,2.654,3,3C37,12,37,17.349,37,18.651z"/><path fill="#e0e0e0" d="M24,17l-10-1c0,3.503,0.008,17.151,0.008,17.151c0,0.817,0.339,1.594,0.931,2.132l7.099,5.994 c1.144,0.966,2.782,0.966,3.925,0l7.099-5.994c0.591-0.538,0.931-1.315,0.931-2.132c0,0,0.008-13.648,0.008-17.151L24,17z"/><path fill="#bdbdbd" d="M2.5 12.616A2.5 2.692 0 1 0 2.5 18 2.5 2.692 0 1 0 2.5 12.616zM45.5 12.616A2.5 2.692 0 1 0 45.5 18 2.5 2.692 0 1 0 45.5 12.616z"/><g><path fill="#90caf9" d="M28.5 22A1.5 1.5 0 1 0 28.5 25 1.5 1.5 0 1 0 28.5 22zM19.5 22A1.5 1.5 0 1 0 19.5 25 1.5 1.5 0 1 0 19.5 22z"/></g><path fill="#424242" d="M26.202,32c-1.122,0-2.161,0.75-2.161,0.75S23.002,32,21.88,32C20.758,32,19,32,17,31 c0,0,2.335,5.086,5.42,6.703c0,0,0.45,0.297,1.589,0.297c1.139,0,1.589-0.297,1.589-0.297C28.684,36.086,31,31,31,31 C29,32,27.324,32,26.202,32z"/><path fill="#fafafa" d="M29,32.75c0,0-1.347,1.61-2.389,2.317c-0.513,0.347-1.104,0.66-1.738,0.82 C24.595,35.96,24.299,36,24.004,36c-0.295,0-0.591-0.04-0.869-0.113c-0.634-0.16-1.225-0.473-1.738-0.82 C20.354,34.36,19,32.75,19,32.75S22,34,24,34S29,32.75,29,32.75z"/><path fill="#424242" d="M30.67,19C29,19,24,23.79,24,23.79S19,19,17.33,19C15.06,19,14,23.89,14,23.89S15.11,28,16.78,28 c3.89,0,7.22-2.48,7.22-2.48S27.33,28,31.22,28c1.67,0,2.78-4.11,2.78-4.11S32.94,19,30.67,19z M18,26c-1.33,0-2-2-2-2s0-1,1.25-2 c0,0,4.75,0.5,4.75,2.25C22,25.5,19.33,26,18,26z M30,26c-1.33,0-4-0.5-4-1.75C26,22.5,30.75,22,30.75,22C32,23,32,24,32,24 S31.33,26,30,26z"/></svg>