<svg xmlns="http://www.w3.org/2000/svg"  viewBox="0 0 48 48" width="1600px" height="1600px"><path fill="#ff8f00" d="M47 18.3c0-.1 0-.2 0-.3-1 1-2.1 2.2-4 3 0 0 3-2 3-9 0 0-2 4-3.6 5 0 0 3.2-4 .6-11 0 4.1-1.6 7.2-2 8 .5-1.7 1.8-9.3-3-13 1 2 .7 5.9 0 8-1.2 3.4-2 4-2 4 0 2 0 18 0 18s3.5 0 4 0c1 0 2.5 0 4-1-.6-1.1-1.7-1.9-2-2 0 0 4-1.3 4-3.5-1 .5-2.9.5-3 .5C43.2 24.9 46.8 22.4 47 18.3zM1 18.3c0-.1 0-.2 0-.3 1 1 2.1 2.2 4 3 0 0-3-2-3-9 0 0 2 4 3.6 5 0 0-3.2-4-.6-11 0 4.1 1.6 7.2 2 8-.5-1.7-1.8-9.3 3-13-1 2-.7 5.9 0 8 1.2 3.4 2 4 2 4 0 2 0 18 0 18s-3.5 0-4 0c-1 0-2.5 0-4-1 .6-1.1 1.7-1.9 2-2 0 0-4-1.3-4-3.5C3 24.9 4.9 25 5 25 4.9 24.9 1.2 22.4 1 18.3z"/><path fill="#ffa726" d="M36 25.8c0 0 .3-2.8 3-2.8 1 0 1 2.7 1 3.5 0 1-1 2.5-1 3v.8c0 1-1.5 2.8-3 2.8V25.8zM12 25.8c0 0-.3-2.8-3-2.8-1 0-1 2.7-1 3.5 0 1 1 2.5 1 3v.8c0 1 1.5 2.8 3 2.8C12 33 12 25.8 12 25.8z"/><path fill="#ffb74d" d="M24,8c-11.7,0-11,9-11,9c0,3.7,0,19.6,0,19.6c0,0.9,0.4,1.7,1,2.3l6.1,6.4c0.5,0.5,1.2,0.7,2,0.7 h3.7c0.7,0,1.4-0.3,2-0.7l6.1-6.4c0.7-0.6,1-1.4,1-2.3c0,0,0-15.9,0-19.6C35,17,35.7,8,24,8z"/><path fill="#ffd54f" d="M24,5c-8,0-13,4-13,13.6c0,2,0,9.2,0,13.6v5.1c0,2.5,2.1,5.2,4,6.6v-1V31c0,0-1-1-1-2c8,1,7,4,10,6 c3-2,2-5,10-6c0,1-1,2-1,2v12v1c1.9-1.5,4-4.2,4-6.6v-5.1c0-4.5,0-11.6,0-13.6C37,9,32,5,24,5z"/><path fill="#ffc107" d="M24,26v9c-1.8-1.2-2.2-2.8-3.9-4C20.1,31,22,30,24,26z"/><path fill="#fb8c00" d="M20.4,38.7l-0.9-1.8c0.1,0,1.8-0.9,4.4-0.9c2.6,0,4.4,0.9,4.4,0.9l-0.9,1.8c0,0-1.4-0.7-3.6-0.7 C21.9,38,20.5,38.7,20.4,38.7z"/><g><path fill="#efebe9" d="M26 27c0 0 1.5-3 4-3 2.2 0 3 0 3 0s0 4-3.5 4C27 28 26 27 26 27zM22 27c0 0-1.5-3-4-3-2.2 0-3 0-3 0s0 4 3.5 4C21 28 22 27 22 27z"/></g><g><path fill="#ffe57f" d="M24,26v9c1.8-1.2,2.2-2.8,3.9-4C27.9,31,26,30,24,26z"/><path fill="#ffe57f" d="M35.2,20c-1.1,0-4.7,1.3-7.5,2.4c-2.4,0.9-5.1,0.9-7.4,0c-2.8-1.1-6.4-2.4-7.5-2.4 C10,20,10,22.3,10,23.9c0,0,2.4,0.2,4.7,0.8c1.3,0.3,3.5,1,5.5,1.7c2.5,0.8,5.2,0.8,7.7,0c2-0.7,4.2-1.4,5.5-1.7 c2.3-0.6,4.7-0.8,4.7-0.8C38,22.3,38,20,35.2,20z"/></g></svg>