<svg xmlns="http://www.w3.org/2000/svg"  viewBox="0 0 48 48" width="1600px" height="1600px"><path fill="#ffb74d" d="M34,18l-10-4l-10,4c0,0.785,0,2.232,0.001,4.001L14,22v16.468c0,0.333,0.076,0.667,0.237,0.958 c1.258,2.278,3.091,3.945,4.831,5.123c2.89,1.958,6.711,1.939,9.556-0.083c1.632-1.16,3.449-2.779,5.012-4.966 C33.877,39.165,34,38.754,34,38.34V22l-0.001,0.001C34,20.232,34,18.785,34,18z"/><path fill="#ff5252" d="M25,37c-0.75,0-1,1-1,1s-0.042-1-1-1s-3,1-3,1s2.2,2,4,2s4-2,4-2S25.75,37,25,37z"/><path fill="#424242" d="M44,20c0,0-2,2-4.58,2c0,0,5.58-4,5.58-10c-1,3-5,4-5,4s5.29-8.83,2-15c-5,12-18,12-18,12S11,13,6,1 C2.71,7.17,8,16,8,16s-4-1-5-4c0,6,5.58,10,5.58,10C6,22,4,20,4,20c0,4,4,5,4,5s-2,2-4,1c2,3,5,3,5,3s-3,2-3,6c2-2,3-2,3-2 s-1,3,0,7c1-4,3-4,3-4c0.04,0,0.81,7.06,2,8V31h10h10v13c1.19-0.94,1.96-8,2-8c0,0,2,0,3,4c1-4,0-7,0-7s1,0,3,2c0-4-3-6-3-6 s3,0,5-3c-2,1-4-1-4-1S44,24,44,20z"/><path fill="#ff8f00" d="M29,30c-2.42,0-4-1-4-1c0-7,17-14,17-28c-0.75,2.31-3.29,4.85-5.58,6.68 c-1.81,1.44-4.27,1.68-6.36,0.7C28.55,7.67,26.53,7,24,7s-4.55,0.67-6.06,1.38c-2.09,0.98-4.55,0.74-6.36-0.7 C9.29,5.85,6.75,3.31,6,1c0,14,17,21,17,28c0,0-1.58,1-4,1c-6,0-6-6-6-6s-1,1-1,3s2,4,2,4c6,1,7,2,10,4c3-2,4-3,10-4c0,0,2-2,2-4 s-1-3-1-3S35,30,29,30z"/><path fill="#ffa000" d="M25,29h-1v6c1.19-0.793,2.065-1.429,3.062-1.97C25,30,25,29,25,29z"/><path fill="#f57f17" d="M23,29h1v6c-1.19-0.793-2.065-1.429-3.062-1.97C23,30,23,29,23,29z"/><path fill="#ffb300" d="M26 28.092c0 0 1.364-5.589 6.914-3.703 0 0 .712 2.792-1.954 4.25C29.023 29.698 26 28.092 26 28.092zM22 28.092c0 0-1.364-5.589-6.914-3.703 0 0-.712 2.792 1.954 4.25C18.977 29.698 22 28.092 22 28.092z"/><g><path fill="#424242" d="M25.98 7.15C25.79 14.14 24 24 24 24s-1.79-9.86-1.98-16.85C22.64 7.05 23.3 7 24 7S25.36 7.05 25.98 7.15zM32.5 8.96c-1.52 6.45-5.22 11.66-5.49 12.02.09-.38 1.45-6.06 2.32-12.92.26.1.5.21.73.32C30.84 8.74 31.67 8.94 32.5 8.96zM20.99 20.98c-.27-.36-3.97-5.57-5.49-12.02.83-.02 1.66-.22 2.44-.58.23-.11.47-.22.73-.32C19.54 14.92 20.9 20.6 20.99 20.98z"/></g></svg>