<svg xmlns="http://www.w3.org/2000/svg"  viewBox="0 0 48 48" width="1600px" height="1600px"><path fill="#a4a4a4" d="M33.692 26.125c0 0 2.689-4.125 3.976-4.125.53 0 .265 1.629.265 2.475C37.934 25.321 37 26.436 37 27v3c0 1.1-1.692 3-3.308 3V26.125zM14.308 26.125c0 0-2.689-4.125-3.976-4.125-.53 0-.265 1.629-.265 2.475C10.066 25.321 11 26.436 11 27v3c0 1.1 1.692 3 3.308 3V26.125z"/><path fill="#388e3c" d="M13,25c-5-7-5-15-5-15c3,0,8-8,16-8s13,8,16,8c0,0,0,8-5,15H13z"/><path fill="#e0e0e0" d="M35,17c0-0.14-0.01-0.27-0.02-0.4c-0.21-1.69-1.66-3.86-3.98-4.45c-0.39-0.1-0.8-0.15-1.24-0.15 C27,12,24,15,24,15s-3-3-5.76-3c-0.44,0-0.85,0.05-1.24,0.15c-2.32,0.59-3.77,2.76-3.98,4.45C13.01,16.73,13,16.86,13,17 c0,2,1,3,1,3l-1,1c0,0,0,2,0,5v3c0,0,0.28,0.48,0.58,1.06C20.44,43.61,20.51,46,20.51,46H24h3.49c0,0,0.07-2.39,6.93-15.94 C34.72,29.48,35,29,35,29v-3c0-3,0-5,0-5l-1-1C34,20,35,19,35,17z"/><path fill="#bdbdbd" d="M35 29v6c.003.532-.227 1.117-.597 1.511-1.133 1.207-3.623 3.892-4.367 4.974C28.938 43.078 27.487 46 27.487 46 27.487 41.824 34.733 29.457 35 29zM13 29c0 1.594 0 6 0 6-.002.532.228 1.116.598 1.51 1.133 1.204 3.621 3.883 4.365 4.964 1.097 1.594 2.549 4.516 2.549 4.516C20.511 41.814 13.267 29.457 13 29zM34 20l1 1c0 0 0 2 0 5 0 0-1.53-1-4-1l-3.43 1.88h-1.25L30 22h1v-9.85c2.32.59 3.77 2.76 3.98 4.45C34.99 16.73 35 16.86 35 17 35 19 34 20 34 20zM14 20l-1 1c0 0 0 2 0 5 0 0 1.53-1 4-1l3.43 1.88h1.25L18 22h-1v-9.85c-2.32.59-3.77 2.76-3.98 4.45C13.01 16.73 13 16.86 13 17 13 19 14 20 14 20z"/><path d="M25.872 26.708c0 0 1.11 1.292 2.606 1.292 1.616 0 2.943-1 3.522-2.5 0 0-1.375-.5-3.474-.5C27.778 25.812 25.872 26.708 25.872 26.708zM22.202 26.708c0 0-1.123 1.292-2.637 1.292-1.636 0-2.979-1-3.565-2.5 0 0 1.392-.5 3.516-.5C20.273 25.812 22.202 26.708 22.202 26.708z"/><path fill="#fbc02d" d="M30.842 26c0 0-.869 1.25-2.316 1.25-1.448 0-2.027-.75-2.027-.75s.521-.45 1.077-.61c.29-.08.614-.14.95-.14.243 0 .533.03.834.08C30.089 25.96 30.842 26 30.842 26zM17.172 26c0 0 .879 1.25 2.344 1.25 1.465 0 2.051-.75 2.051-.75s-.527-.45-1.09-.61c-.293-.08-.621-.14-.961-.14-.246 0-.539.03-.844.08C17.934 25.96 17.172 26 17.172 26z"/><path fill="#b71c1c" d="M29.429 26.15c0 .45-.429.82-.95.82-.533 0-.95-.37-.95-.82 0-.09.012-.18.046-.26.29-.08.614-.14.95-.14.243 0 .533.03.834.08C29.406 25.93 29.429 26.04 29.429 26.15zM18.602 26.15c0 .45.434.82.961.82.539 0 .961-.37.961-.82 0-.09-.012-.18-.047-.26-.293-.08-.621-.14-.961-.14-.246 0-.539.03-.844.08C18.625 25.93 18.602 26.04 18.602 26.15zM26.185 35.778c-1.115 0-2.148.778-2.148.778s-1.033-.778-2.148-.778c-1.115 0-3.493.153-6.839-3.111 0 0 4.309 7.348 7.376 9.025 0 0 .447.308 1.58.308 1.133 0 1.58-.308 1.58-.308 3.067-1.677 7.356-9.025 7.356-9.025C29.597 35.931 27.3 35.778 26.185 35.778z"/><path fill="#ffe082" d="M30,36c0,0-1.617,2.04-2.87,3.1c-0.616,0.52-1.325,0.99-2.087,1.23C24.71,40.44,24.355,40.5,24,40.5 s-0.71-0.06-1.043-0.17c-0.762-0.24-1.471-0.71-2.087-1.23C19.617,38.04,18,36,18,36s3.913,1.5,6,1.5S30,36,30,36z"/><g><path fill="#bdbdbd" d="M26.82,31.774C25.34,30.666,25,28.395,25,28.395C25,26.765,25,26,25,26h-2c0,0,0,0.765,0,2.395 c0,0-0.34,2.271-1.82,3.379C20.99,31.937,21,32.198,21,32.198c0,0.608,2.75,1.63,3,1.63s3-1.021,3-1.63 C27,32.198,27.01,31.937,26.82,31.774z"/><path fill="#bdbdbd" d="M26.82,31.774C25.34,30.666,25,28.395,25,28.395C25,26.765,25,26,25,26h-2c0,0,0,0.765,0,2.395 c0,0-0.34,2.271-1.82,3.379C20.99,31.937,21,32.198,21,32.198c0,0.608,2.75,1.63,3,1.63s3-1.021,3-1.63 C27,32.198,27.01,31.937,26.82,31.774z"/></g><g><path fill="#388e3c" d="M25 27c3.375-2 4.063-6 6.531-6S34 24 34 24s-.844-1-2.25-1S27.812 27 25 27zM22.963 27c-3.361-2-4.046-6-6.505-6S14 24 14 24s.84-1 2.241-1S20.162 27 22.963 27z"/></g><path fill="#eee" d="M26.5,31.654c-0.28,0-0.5,0.239-0.5,0.543c0,0.304-0.22,0.543-0.5,0.543S25,32.502,25,32.198L25,26 h-2l0,6.198c0,0.304-0.22,0.543-0.5,0.543S22,32.502,22,32.198c0-0.304-0.22-0.543-0.5-0.543S21,31.893,21,32.198 c0,0.141,0.04,0.261,0.12,0.348c0,0,1.11,1.238,1.46,1.695c0.28,0.38,1.05,1.575,1.05,1.575C23.72,35.924,23.85,36,24,36 s0.28-0.076,0.37-0.185c0,0,0.77-1.195,1.05-1.575c0.35-0.456,1.46-1.695,1.46-1.695c0.08-0.087,0.12-0.206,0.12-0.348 C27,31.893,26.78,31.654,26.5,31.654z"/><path fill="#bdbdbd" d="M22.963,27c0.537,0,1.074,0,1.074,0s0.537,0,1.074,0c1.611,0,3.676-4,3.676-4 s-2.334,2.452-2.871,2.194s0.806-5.417,0.806-5.417S25.145,25.001,24,25c-1.085,0-2.648-5.222-2.648-5.222s1.343,5.159,0.806,5.417 S19.191,23,19.191,23S21.352,27,22.963,27z"/><g><path fill="#ffecb3" d="M23 37.41v2.93c-.01 0-.03-.01-.04-.01-.72-.22-1.37-.65-1.96-1.13v-2.23C21.67 37.15 22.37 37.32 23 37.41zM27 36.97v2.23c-.59.48-1.24.91-1.96 1.13-.01 0-.03.01-.04.01v-2.93C25.63 37.32 26.33 37.15 27 36.97z"/></g></svg>