<svg xmlns="http://www.w3.org/2000/svg"  viewBox="0 0 48 48" width="1600px" height="1600px"><path fill="#263238" d="M36.904,24.629c0,0,0.116-2.787-0.174-6.039c-0.29-3.252-2.548-8.768-12.913-8.768S11.31,19.345,11.136,21.551c-0.174,2.206,2.779,6.039,2.779,6.039l-1.332,3.252l1.216,1.219l1.506-0.116c0,0-0.116,1.277,0,1.626c0.116,0.348,0.637,2.555,0.695,3.31c0.058,0.755,1.737,2.555,2.432,3.426c0.695,0.871,1.1,1.742,1.1,1.742h9.207c0,0,2.722-5.11,3.474-6.794c0.753-1.684,0.926-3.542,0.926-3.542l1.332,0.523l1.39-1.916l-1.216-1.394l0.058-0.755L36.904,24.629z M20.643,27.507c-1.216,0.755-2.546,1.609-5.036,2.386c-0.387-0.832,0.798-2.303,0.798-2.303s-1.621-1.568-1.853-1.974c-0.232-0.406-0.637-0.987-0.637-0.987s-0.058-1.452,0.347-1.974c0.232,0.987,0.33,1.746,0.388,1.92c0,0,0.802-0.435,1.671-0.435c0.869,0,2.805,1.128,3.674,1.128c0.869,0,1.563-1.8,1.563-1.8s0.405,0.987,0.405,1.51C21.964,25.5,21.859,26.752,20.643,27.507z M25.728,30.725c-0.116,0.697-0.869,2.555-1.042,2.381c-0.174-0.174-1.332-2.032-1.506-2.555c-0.174-0.523-0.232-2.206-0.232-2.206c0.347,0.406,1.679,2.323,1.679,2.323l1.448-2.206C26.076,28.461,25.844,30.029,25.728,30.725z M34.125,26.313c-0.347,0.465-1.506,1.277-1.563,1.568c-0.058,0.29-0.405,1.568-0.405,1.568s-0.695-0.232-1.563-0.406c-0.869-0.174-2.374-0.581-3.243-1.219c-0.628-0.462-1.216-1.916-1.274-2.555c0,0,1.274,0.813,1.737,0.639c0.463-0.174,4.922-1.452,4.922-1.452s0.753,0.755,1.042,0.697c0.463-0.465,0.926-2.497,0.926-2.497s0.463,0.987,0.405,1.684C35.08,24.686,34.472,25.848,34.125,26.313z"/><path fill="#f44336" d="M15.157 30.693L15.676 33.099 16 33.066 16.357 34.952 16.778 34.952 16.811 35.894 17.394 35.959 17.556 36.902 18.075 37.227 18.269 38.527 18.691 37.064 19.761 37.487 20.085 39.567 20.474 39.502 20.603 37.845 21.446 38.007 21.544 39.762 22.127 39.697 22.289 38.332 23.877 38.462 24.591 40.087 24.882 40.055 25.239 38.267 26.763 38.3 26.827 39.957 27.152 39.892 27.703 38.072 28.708 37.942 28.87 39.177 29.097 39.015 29.291 37.129 29.745 37.064 30.069 37.747 30.231 36.382 30.782 36.382 30.815 35.602 31.366 35.537 31.398 34.692 31.949 34.041 32.241 32.871 32.695 32.156 32.824 31.116 33.408 30.368 32.857 30.466 32.371 31.181 32.144 30.953 32.046 32.026 31.593 31.766 31.171 33.489 30.847 33.586 30.134 32.514 29.875 34.887 29.291 35.049 28.643 33.521 28.448 35.439 26.795 35.504 26.438 33.521 25.92 33.619 25.822 34.919 23.521 34.887 23.456 33.651 23.132 33.749 22.678 36.349 20.83 36.154 20.83 34.074 20.539 34.139 20.085 35.602 18.464 35.082 18.821 33.424 17.945 34.562 17.362 34.301 17.394 33.521 16.876 33.814 16.811 32.611 16.292 32.936 16.195 31.669 15.644 31.636zM20.832 29.914c0-.308-.513-.576-.513-.576.164-1.47.923-1.625.923-2.314-.072 0-.649-.028-1.251.442-.602.47-1.343.925-1.384 1.234.661.005 1.476-.603 1.476-.603s-.607 2.31.185 2.31C20.684 30.407 20.832 30.222 20.832 29.914z"/><path fill="#4caf50" d="M22.736 2c0 0 1.369 2.704 2.027 3.124.09-.518.12-1.31-.135-1.823 3.995 2.793 6.658 4.988 7.616 5.648-.15-.482-.661-1.627-1.127-2.214 2.579 1.05 4.646 4.957 4.646 4.957l.002-1.715c0 0 2.115 3.421 2.032 6.168-.035 1.165-.332 4.828-.894 8.483.025-2.921-.36-7.326-2.036-8.947-.584.551-.838 1.621-.838 1.621l-2.515-3.002-.097 2.918c0 0-3.555-4.539-4.573-4.839-.31.741-.31 1.779-.31 1.779L24.27 12.32c0 0-4.196 2.349-5.333 4.168-.407-.272-.22-1.598-.22-1.598s-2.934 1.887-4.104 4.761c-.187-1.003-.22-2.415-.22-2.415s-3.205 2.091-2.756 6.551c-1.263-2.096-1.437-4.983-1.437-4.983l.683.337c0 0-.56-2.755.085-5.22.449-1.717 1.78-3.027 1.78-3.027l.017 2.21c0 0 .895-3.526 2.272-4.727-.113 1.478-.085 2.364-.085 2.364s1.945-4.564 6.517-6.952c-.113 1.554.845 2.133.845 2.133S21.882 3.571 22.736 2zM24.368 44.316c.557 0 1.03.67 1.03.67l4.203-2.512c0 0 .863 1.144.863 2.819s-.139 2.344-.139 2.344-1.614.112-4.62-1.926c-.195.279-.278.865-1.058.865s-1.141-.698-1.141-.698S19.748 48 19.052 48c-.891-.781-1.197-3.293-.891-5.303 1.753-.167 4.815 2.484 5.177 2.484C23.422 45.07 23.867 44.316 24.368 44.316z"/></svg>