<svg xmlns="http://www.w3.org/2000/svg"  viewBox="0 0 48 48" width="1600px" height="1600px"><path fill="#F4AB19" d="M24,48c6.7,0,16-10,16-10s-4-2.7-4-19H24V48z"/><path fill="#C48506" d="M24,48C17.3,48,8,38,8,38s4-2.7,4-19h12V48z"/><path fill="#FFC107" d="M24,6v42c4.4-9.3,12-20.8,12-30C36,11.4,30.6,6,24,6z"/><path fill="#E29D03" d="M24,6v42c-4.4-9.3-12-20.8-12-30C12,11.4,17.4,6,24,6z"/><path fill="#C48506" d="M23 1L22 6 24 14 26 6 25 1z"/><path fill="#4E342E" d="M26,28c1.4-3.2,7-5,7-5s-1.6,6-3,6S26,28,26,28z M22,28c-1.4-3.2-7-5-7-5s1.6,6,3,6S22,28,22,28z"/><path fill="#C48506" d="M24 0A1 1 0 1 0 24 2A1 1 0 1 0 24 0Z"/></svg>