<svg xmlns="http://www.w3.org/2000/svg"  viewBox="0 0 48 48" width="1600px" height="1600px"><path fill="#ffa726" d="M35 22.8c0 0 1-3.8 3-3.8 1 0 1 2 1 5 0 2-2 6-4 6V22.8zM11 22.8c0 0-1-3.8-3-3.8-1 0-1 2-1 5 0 2 2 6 4 6V22.8z"/><path fill="#ffb74d" d="M23,2c-7.2,0-13,5.8-13,13c0,3.7,0,19.6,0,19.6c0,0.9,0.4,1.7,1,2.3l6.1,6.4c0.5,0.5,1.2,0.7,2,0.7 H23h3.9c0.7,0,1.4-0.3,2-0.7l6.1-6.4c0.7-0.6,1-1.4,1-2.3c0,0,0-15.9,0-19.6C36,7.8,30.2,2,23,2z"/><path fill="#ffac3e" d="M36 34.6V26c0 0-1.6 1.2-2 1.7-.7.8-1 1.3-1 2.3v8.9l2-2.1C35.6 36.3 36 35.5 36 34.6zM10 34.6V26c0 0 1.6 1.2 2 1.7.7.8 1 1.3 1 2.3v8.9l-2-2.1C10.4 36.3 10 35.5 10 34.6zM16 4.1c0 0-2 1.9-2 4.2V21h4l-4 2c-3 0-4 1-4 1v-9C10 10.4 12.4 6.4 16 4.1zM30 4.1c0 0 2 1.9 2 4.2V21h-3l3 2c3 0 4 1 4 1v-9C36 10.4 33.6 6.4 30 4.1z"/><path fill="#ffac3e" d="M15.3 23.8c-.6.5-1.1 1-1.6 1.6-.3.3-.5.5-.8.8S12.3 26.7 12 27c0-1 1.4-3.4 2-4C14.6 22.4 15.9 23.3 15.3 23.8zM32 23c.6.6 2 3 2 4-.3-.3-.6-.5-.9-.8-.3-.3-.6-.5-.8-.8-.6-.5-1.1-1.1-1.6-1.6C30.1 23.3 31.4 22.4 32 23z"/><path fill="#efebe9" d="M28.6 24c-.7 0-1.5 0-2.6 0v-.5c0-1.4 1.1-2.5 2.5-2.5s2.9 1.5 3.5 2C31.6 23.6 31.1 24 28.6 24zM17.4 24c.7 0 1.5 0 2.6 0v-.5c0-1.4-1.1-2.5-2.5-2.5s-2.9 1.5-3.5 2C14.4 23.6 14.9 24 17.4 24z"/><g><path fill="#1976d2" d="M28.5 21A1.5 1.5 0 1 0 28.5 24 1.5 1.5 0 1 0 28.5 21zM17.5 21A1.5 1.5 0 1 0 17.5 24 1.5 1.5 0 1 0 17.5 21z"/></g><g><path fill="#263238" d="M28.5 22A.5.5 0 1 0 28.5 23 .5.5 0 1 0 28.5 22zM17.5 22A.5.5 0 1 0 17.5 23 .5.5 0 1 0 17.5 22z"/></g><g><path fill="#424242" d="M12 22.4c0 0 1.8-.8 2.7-.8 3.6 0 5.4 2.4 5.4 2.4H21c0 0-1.8-4-6.3-4-.9 0-2.7 1.6-2.7 1.6M34 22.4c0 0-1.8-.8-2.7-.8-3.6 0-5.4 2.4-5.4 2.4H25c0 0 1.8-4 6.3-4 .9 0 2.7 1.6 2.7 1.6"/></g><path fill="#fb8c00" d="M19.5,36.8l-1.1-1.7c0.1,0,1.9-1.2,4.5-1.2s4.5,1.1,4.5,1.2l-1.1,1.7c0,0-1.4-0.8-3.5-0.8 C20.9,36,19.5,36.8,19.5,36.8z"/><path fill="#ffa726" d="M19,31c0,0.5,0.5,1,1,1c1.5,0,2,1,3,1s1.5-1,3-1c0.5,0,1-0.5,1-1s-0.2-1-1.5-1c-0.5,0-1.8,1-2.5,1 c-0.6,0-2-1-2.5-1C19.2,30,19,30.5,19,31z"/></svg>