<svg xmlns="http://www.w3.org/2000/svg"  viewBox="0 0 48 48" width="1600px" height="1600px"><path fill="#212121" d="M34 26H39V31H34z"/><path fill="#ffa726" d="M34,22.8c0,0,0.3-2.8,3-2.8c1,0,1,2.7,1,3.5c0,1-1,2.5-1,3v0.8c0,1-1.5,2.8-3,2.8V22.8z"/><path fill="#424242" d="M34,38.2V26H14v12.2c0,1.1-0.6,2-1.5,2.6C9.1,42.9,6,46,6,46h36c0,0-3.1-3.1-6.5-5.2 C34.6,40.3,34,39.3,34,38.2z"/><path fill="#ffb74d" d="M24,5c-11.7,0-11,9-11,9c0,3.7,0,13,0,13v6.6c0,0.9,0.4,1.7,1,2.3l6.1,5.4c0.5,0.5,1.2,0.7,2,0.7H24 h1.9c0.7,0,1.4-0.3,2-0.7l6.1-5.4c0.7-0.6,1-1.4,1-2.3V26c0,0,0-8.3,0-12C35,14,35.7,5,24,5z"/><path fill="#fb8c00" d="M20.4,34.7l-0.9-1.8c0.1,0,1.8-0.9,4.4-0.9c2.6,0,4.4,0.9,4.4,0.9l-0.9,1.8c0,0-1.4-0.7-3.6-0.7 C21.9,34,20.5,34.7,20.4,34.7z"/><path fill="#1565c0" d="M18.8,23.5c-0.1-0.1-0.3-0.2-0.4-0.3v-0.1C18.4,23.2,18.5,23.4,18.8,23.5z"/><path fill="#ffac3e" d="M35 33.6V22c0 0-1.6 1.2-2 1.7-.7.8-1 1.3-1 2.3v11.6l2-1.7C34.6 35.3 35 34.5 35 33.6zM13 33.6V24c0 0 1.6 1.2 2 1.7.7.8 1 1.3 1 2.3v9.6l-2-1.7C13.4 35.3 13 34.5 13 33.6zM19 11c0 1.2 0 3 0 3-.5 3.7-3 4.1-3 6v4h-3V13.4c0-.9.3-2.7 1.4-4.4H18C19 9 19 11 19 11z"/><path fill="#424242" d="M31,19c2,3-5,3-5,3l-2-4l-2,4c0,0-7,0-5-3c0,0-4,0.8-4,4.6c0,2.4,1.9,4.5,5,6.4c0,0-1.4-2,0-2h2.5 c0.3,0,0.6-0.2,0.8-0.4l0.9-1.2L24,29l1.8-2.7l0.9,1.2c0.2,0.3,0.5,0.4,0.8,0.4H30c1.4,0,0,2,0,2c3.1-1.9,5-4,5-6.4 C35,19.8,31,19,31,19z"/><path fill="#212121" d="M31,19c2,3-5,3-5,3l-2-4v11l1.8-2.7l0.9,1.2c0.2,0.3,0.5,0.4,0.8,0.4H30c1.4,0,0,2,0,2 c3.1-1.9,5-4,5-6.4C35,19.8,31,19,31,19z"/><path fill="#eee" d="M26 24c0 .6.8 1 2.5 1s2.5-1 2.5-1c0-.6-.8-1-2.5-1S26 24 26 24zM17 24c0 0 .8 1 2.5 1s2.5-.4 2.5-1c0 0-.8-1-2.5-1S17 23.4 17 24z"/><g><path fill="#424242" d="M23,2c-4.6,0-6.8,2.8-7.6,5.1C15.1,7.8,16,9,16,9v1l1.4,1.4c0.4,0.4,0.9,0.7,1.4,0.9l6,2.2 c0.8,0.3,1.5,0.8,2.1,1.4L39,30c0,0,0-10,0-12C39,12,35,2,23,2z"/><path fill="#424242" d="M16,9c0,1.2,0,3,0,3c-0.5,3.7-3,4.1-3,6v13c-0.2-0.1-3-2-3-2s0-10,0-12c0-1.7,0.5-4.2,1.4-6.3 c0.2-0.4,0.3-0.7,0.5-1.1c0.4-0.8,0.9-1.5,1.5-2C13.9,7.3,14.4,7,15,7C16,7,16,9,16,9z"/></g><g><path fill="#1565c0" d="M42 46c0 0-3.1-3.1-6.5-5.2L31 46H42zM12.5 40.8C9.1 42.9 6 46 6 46h11L12.5 40.8zM36 8.5C31.5 7.2 24.6 6.2 15.9 8 22 5.3 28.3 4.9 32.8 5.1 34.1 6 35.2 7.2 36 8.5zM39 18c0 0-8-7-23-9 11.4-.7 18.7 2.3 22.3 4.3C38.8 14.9 39 16.6 39 18zM24.8 14.5c.8.3 1.5.8 2.1 1.4L39 30c0 0 0-2 0-4C39 20 24.8 14.5 24.8 14.5zM10 19c0 0 0-2 0-2l0 0c0-.6.1-1.3.2-2 0 0 1.7-4.9 5.8-6C12.3 13.2 10 19 10 19zM15.9 8c-1.1.1-2.6.8-4 1.6.4-.8.9-1.5 1.5-2C14.4 7.7 15.3 7.8 15.9 8z"/></g></svg>