<svg xmlns="http://www.w3.org/2000/svg"  viewBox="0 0 48 48" width="1600px" height="1600px"><path fill="#ffa726" d="M34 22.8c0 0 .3-2.8 3-2.8 1 0 1 2.7 1 3.5 0 1-1 2.5-1 3v.8c0 1-1.5 2.8-3 2.8V22.8zM14 22.8c0 0-.3-2.8-3-2.8-1 0-1 2.7-1 3.5 0 1 1 2.5 1 3v.8c0 1 1.5 2.8 3 2.8V22.8zM34 38.2V32H14v6.2c0 1.1-.6 2-1.5 2.6L23 46h2l10.5-5.2C34.6 40.3 34 39.3 34 38.2z"/><path fill="#d84315" d="M24,46c0,0-10.6-5.7-11.5-5.2C9.1,42.9,6,46,6,46h36c0,0-3.1-3.1-6.5-5.2C34.6,40.3,24,46,24,46z"/><path fill="#ffb74d" d="M24,5c-11.7,0-11,9-11,9c0,3.7,0,19.6,0,19.6c0,0.9,0.4,1.7,1,2.3l6.1,5.4c0.5,0.5,1.2,0.7,2,0.7 h3.7c0.7,0,1.4-0.3,2-0.7l6.1-5.4c0.7-0.6,1-1.4,1-2.3c0,0,0-15.9,0-19.6C35,14,35.7,5,24,5z"/><path fill="#fb8c00" d="M20.4,34.7l-0.9-1.8c0.1,0,1.8-0.9,4.4-0.9c2.6,0,4.4,0.9,4.4,0.9l-0.9,1.8c0,0-1.4-0.7-3.6-0.7 C21.9,34,20.5,34.7,20.4,34.7z"/><path fill="#ffac3e" d="M35 33.6V26c0 0-1.6 1.2-2 1.7-.7.8-1 1.3-1 2.3v7.6l2-1.7C34.6 35.3 35 34.5 35 33.6zM13 33.6V26c0 0 1.6 1.2 2 1.7.7.8 1 1.3 1 2.3v7.6l-2-1.7C13.4 35.3 13 34.5 13 33.6zM35 13.3V24c0 0-1-1-4-1V9.2c0-2.2-2-4.4-2-4.4C34.2 6.7 34.9 11.5 35 13.3zM13 13.3V24c0 0 1-1 4-1l1-3 1-1V9.2c0-2.2 0-4.4 0-4.4C13.8 6.7 13.1 11.5 13 13.3z"/><path fill="#eee" d="M22 22.9c0 0-1.3 1.1-3 1.1s-3-.9-3-1.1c0-.9.3-2.2 2-2.2S22 22.9 22 22.9zM26 22.9c0 0 1.3 1.1 3 1.1s3-.8 3-1.1c0-.9-.3-2.2-2-2.2S26 22.9 26 22.9z"/><g><path fill="#424242" d="M23 23c-3.4-1.3-4.1-4-6.5-4S14 22 14 22s.8-1 2.3-1C18.5 21 20.2 23 23 23zM25 23c3.4-1.3 4.1-4 6.5-4s2.5 3 2.5 3-.8-1-2.3-1C29.5 21 27.8 23 25 23z"/></g><g><path fill="#1565c0" d="M18 23c0 .6.4 1 1 1s1-.4 1-1-.4-1-1-1S18 22.4 18 23M30 23c0 .6-.4 1-1 1s-1-.4-1-1 .4-1 1-1S30 22.4 30 23"/></g><g><path fill="#424242" d="M37 17v3c-.8 0-1.6.4-2 .8 0 0 0-1.8 0-2.8 0-2.3-2-1-2-8 0 0 0-2 1-2C36 8 37 13.6 37 17zM13 20.8c-.4-.3-1.2-.8-2-.8v-3c0-3.4 1-9 3-9 1 0 1 2 1 2 0 7-2 5.7-2 8V20.8z"/><path fill="#424242" d="M17.4,16c-1.4,0-2.6-1.2-2.6-2.6v-2.5L13,10c0-2.2,2-7,8-7c2,0,3.9-2,6-2c4.3,0,7,4,7,7 c0,2-2.7,3.2-5.5,4.5s-3.5,1.3-5,1.3c-0.8,0-1.5,0.5-1.5,1.5s0,1.5,0,2.5c0,1.3-1,2.3-2.3,2.3h-0.3c-1.4,0-2.5-1.1-2.5-2.5 c0,0,0.3,0.5,1,0.5c0.6,0,1-0.4,1-1s-0.4-1-1-1H17.4z"/></g></svg>