<svg xmlns="http://www.w3.org/2000/svg"  viewBox="0 0 48 48" width="1600px" height="1600px"><path fill="#ffc107" d="M45,18c0,0-4.5-8.5-5-12c0,7.5,2,12,2,12l-1.8,1.2C39.8,19.1,39.4,19,39,19H9 c-0.4,0-0.8,0.1-1.2,0.2L6,18c0,0,2-4.5,2-12C7.5,9.5,3,18,3,18l3,3.8c0,0.1,0,0.1,0,0.2c0,1.6,1.3,3,3,3h30c1.7,0,3-1.4,3-3 c0-0.1,0-0.1,0-0.2L45,18z"/><path fill="#ffb74d" d="M39,20c0,10.9-8,25-15,25S9,30.9,9,20S15.7,3,24,3S39,9.1,39,20z"/><path fill="#784719" d="M30.5,24c-2.4,0-2.5-2-2.5-2l6-1.9C34,20.1,32.9,24,30.5,24z M17.5,24c2.4,0,2.5-2,2.5-2l-6-1.9 C14,20.1,15.1,24,17.5,24z"/><path fill="#d50000" d="M24,3C15.7,3,9,9.1,9,20s8,25,15,25s15-14.1,15-25S32.3,3,24,3z M26.4,21.3l8.9-3 c0.8-0.3,1.6,0.3,1.7,1.2c0,0.2,0,0.3,0,0.5c0,3.2-5.1,6.6-5.1,6.6c-2.1-1.3-4-2.9-5.5-3.9C25.8,22.3,25.8,21.5,26.4,21.3z M11,19.5c0-0.8,0.9-1.4,1.7-1.2l8.9,3c0.6,0.2,0.6,1,0.1,1.4c-1.5,1-3.4,2.7-5.5,3.9c0,0-5.1-3.4-5.1-6.6C11,19.8,11,19.7,11,19.5 z M24,43c-4.3,0-10.6-8.8-12.5-18l4.5,4c0,0,6.5-5,8-5s8,5,8,5l4.5-4C34.6,34.2,28.3,43,24,43z"/><path fill="#ff9100" d="M28.6,35.9c0,0-2.2-0.9-4.6-0.9c-2.5,0-4.6,0.9-4.6,0.9l-0.8-1.8c0.1,0,2.5-1.1,5.4-1.1 s5.3,1,5.4,1.1L28.6,35.9z"/></svg>