<svg xmlns="http://www.w3.org/2000/svg"  viewBox="0 0 48 48" width="1600px" height="1600px"><path fill="#3e2723" d="M15 28H33V42H15z"/><path fill="#ff9800" d="M29,35.7v2.985c0,0-0.75,3.315-5,3.315s-5-3.315-5-3.315V35.7c1.75,1.208,3.5,1.985,5,1.985 S27.25,36.908,29,35.7z"/><path fill="#ffb74d" d="M23.2,15L16,19.008v13.711c0,0.277,0.061,0.555,0.19,0.798c1.006,1.896,2.473,3.284,3.865,4.265 c2.312,1.63,5.369,1.615,7.645-0.069c1.306-0.966,2.759-2.313,4.01-4.134C31.902,33.3,32,32.957,32,32.613V19.008L24.8,15H23.2z"/><path fill="#bdbdbd" d="M23.185 41v2C21.694 44.714 19 46 19 46s-1-.714-1-4 1-4 1-4S21.025 39.029 23.185 41zM24.82 41v2c1.491 1.714 4.18 3 4.18 3s1-.714 1-4-1-4-1-4S26.981 39.029 24.82 41z"/><path fill="#757575" d="M23.185,43h1.635c0,0,0.18-0.267,0.18-1s-0.18-1-0.18-1h-1.635c0,0-0.164,0.283-0.164,1 S23.185,43,23.185,43z"/><path fill="#757575" d="M28 42c0-.552-.448-1-1-1-1 0-3 1-3 1s2 1 3 1C27.552 43 28 42.552 28 42zM20 42c0-.552.448-1 1-1 1 0 3 1 3 1s-2 1-3 1C20.448 43 20 42.552 20 42z"/><path fill="#efebe9" d="M26 27c0 0 .634-3 3.171-3C31.396 24 32 25.333 32 25.333S31.073 27 29.463 27 27.979 27 26 27zM22 27c0 0-.634-3-3.171-3C16.604 24 16 25.333 16 25.333S16.927 27 18.537 27 20.021 27 22 27z"/><path fill="#039be5" d="M30 25.5c0 .83-.67 1.5-1.5 1.5S27 26.33 27 25.5c0-.24.05-.46.16-.66.4-.4.92-.72 1.61-.81h.03C29.49 24.17 30 24.77 30 25.5zM18 25.5c0 .83.67 1.5 1.5 1.5s1.5-.67 1.5-1.5c0-.24-.05-.46-.16-.66-.4-.4-.92-.72-1.61-.81H19.2C18.51 24.17 18 24.77 18 25.5z"/><path fill="#263238" d="M28.5 25A.5.5 0 1 0 28.5 26 .5.5 0 1 0 28.5 25zM19.5 25A.5.5 0 1 0 19.5 26 .5.5 0 1 0 19.5 25z"/><path fill="#424242" d="M26 27c0 0 .634-3 3.171-3C31.396 24 32 25.333 32 25.333S32 25 29 25C27.39 25 26 27 26 27zM22 27c0 0-.634-3-3.171-3C16.604 24 16 25.333 16 25.333S16 25 19 25C20.61 25 22 27 22 27z"/><g><path fill="#424242" d="M25 25c0 0 1.013-.536 1.364-.686.657-.282 1.79-.641 2.72-.88.46-.107 1.249-.121 1.249-.121.885 0 1.667.717 1.667.717V22h-1c-1 0-1.629-.023-2.233.112-1.211.309-2.18 1.035-2.819 1.673C25.302 24.418 25 25 25 25zM23 25c0 0-1.013-.536-1.364-.686-.657-.282-1.79-.641-2.72-.88-.46-.107-1.249-.121-1.249-.121C16.781 23.312 16 24.03 16 24.03V22h1c1 0 1.629-.023 2.233.112 1.211.309 2.18 1.035 2.819 1.673C22.698 24.418 23 25 23 25z"/></g><path fill="#5d4037" d="M37,31c0-2,1-4,1-6c0-6-6-11-12-11c0,0-1.785-2-2.951-2C15,12,10,20,10,24c0,2,1,3,1,4c0,2-4,4-4,7 c0,0.222,0.009,0.441,0.027,0.657C7.321,39.29,11.529,42,15.174,42H16c0,0,0-14.679,0-15c0-7.229,10-11,10-11s6,5.014,6,11 c0,1.871,0,3.959,0,4c0,3.377,0,11,0,11h4.073c2.715,0,4.918-2.196,4.927-4.91L41,37C41,34,37,32.953,37,31z"/><path fill="#424242" d="M24 13A14 4 0 1 0 24 21A14 4 0 1 0 24 13Z"/><path fill="#424242" d="M30.879,2c1.151,0,2.064,0.969,1.997,2.117L32.35,13.05l-0.23,3.98C30.11,17.62,27.22,18,24,18 s-6.11-0.38-8.12-0.97l-0.23-3.98l-0.525-8.933C15.057,2.969,15.97,2,17.121,2H30.879z"/><path fill="#616161" d="M32.3,13.98l-0.18,3.05C30.11,17.62,27.22,18,24,18s-6.11-0.38-8.12-0.97l-0.18-3.05 c0.06,0.01,0.12,0.03,0.18,0.05C17.89,14.62,20.78,15,24,15s6.11-0.38,8.12-0.97C32.18,14.01,32.24,13.99,32.3,13.98z"/><path fill="#424242" d="M25,33c-0.8,0-1,1-1,1s0-1-1-1s-2,1-2,1s1.2,2,3,2s3-2,3-2S25.8,33,25,33z"/></svg>