<svg xmlns="http://www.w3.org/2000/svg"  viewBox="0 0 48 48" width="1600px" height="1600px"><path fill="#bbdefb" d="M40,39c-0.128,2.06,0,3.858-3.136,6H9.135C6,42.858,6.128,41.06,6,39c-1.055,0-1.155,0-2.054,0 C6,34.604,6.182,34.06,6.054,32C4.999,32,5.055,32,4,32c2-5,5.841-7.396,7-11.634C12.166,16.104,17.125,14,23,14 c5.875,0,10.872,2.14,12,6.366C36.133,24.612,40,27,42,32c-1.155,0-2.054,0-2.054,0c-0.128,2.06,0.045,2.705,1.321,5.374L42,39 C42,39,41.027,39,40,39z"/><path fill="#1a237e" d="M32.999,32.31c-0.01,0.54-0.229,1-0.6,1.31C32.047,33.89,31.628,34,31.123,34 c-0.79,0-1.79-0.27-3.048-0.6c-1.552-0.42-3.314-0.89-4.924-0.89c-1.8,0-3.752,0.48-5.324,0.86c-2.076,0.51-3.457,0.85-4.286,0.15 C13.19,33.23,13,32.79,13,32.28C13,29.8,17.209,28,23,28c3.409,0,7.705,0.9,9.295,2.61C32.895,31.25,33.009,31.89,32.999,32.31z"/><path fill="#4fc3f7" d="M35 26L30 25 29 27 26 25 23 41 20 25 17 27 16 25 11 26 16 15 30 15z"/><path fill="#bbdefb" d="M27 28L27 31 30 28zM29 34L29 31 26 34zM17 34L17 31 20 34zM30 29L30 32 33 29zM19 28L19 31 16 28zM16 29L16 31 13 29zM30.814 21.635l-5.856-1.308.969-.424c.233-.148.302-.457.154-.69l-.687-.838 5.856 1.308-.969.424c-.233.148-.302.457-.154.69L30.814 21.635zM21.125 20.321l-5.839 1.382.687-.805c.145-.235.072-.543-.163-.688l-.984-.453 5.839-1.382-.687.805c-.145.235-.072.543.163.688L21.125 20.321z"/><g><path fill="#212121" d="M18 22.023A1 .977 0 1 0 18 23.977 1 .977 0 1 0 18 22.023zM28 22.023A1 .977 0 1 0 28 23.977 1 .977 0 1 0 28 22.023z"/></g><path fill="#fbc02d" d="M27,5l-1,6l-2.976-9L20,11l-1-6l-4.513,10.995C14.487,15.995,17,17,23,17s8.51-1.002,8.51-1.002L27,5 z"/><g><path fill="#841717" d="M23 9L21 11 21 14 23 16 25 14 25 11zM29.565 11.272L31.272 12.754 31.101 15 29.416 13.501zM16.423 11.278L16.605 13.507 14.899 14.99 14.753 12.753z"/></g></svg>