<svg xmlns="http://www.w3.org/2000/svg"  viewBox="0 0 48 48" width="1600px" height="1600px"><path fill="#fbc02d" d="M44,23c0,2,0,7-3,7c-1.5,0-2.5-0.5-3-1v15H10V29c-0.5,0.5-1.5,1-3,1c-2.956,0-3-5-3-7c0-8,7-18,20-18 S44,15,44,23z"/><path fill="#821616" d="M30,24c0,0-0.72,5.06-4.01,6.57c-0.02,0.01-0.04,0.02-0.06,0.03c-0.03,0.01-0.06,0.03-0.09,0.04 C25.94,30.44,26,30.22,26,30c0-1.1-1.34-2-3-2c-1.24,0-2.3,0.5-2.75,1.21c-0.11-0.11-0.2-0.22-0.29-0.34C18.41,26.81,18,24,18,24 s2.69,2,6,2S30,24,30,24z"/><path fill="#e57373" d="M26,30c0,0.22-0.06,0.44-0.16,0.64C25.29,30.86,24.68,31,24,31c-1.55,0-2.72-0.67-3.59-1.6 c-0.06-0.06-0.11-0.12-0.16-0.19C20.7,28.5,21.76,28,23,28C24.66,28,26,28.9,26,30z"/><path fill="#f9a825" d="M41 30v14h-3V29C38.5 29.5 39.5 30 41 30zM10 29v15H7V30C8.5 30 9.5 29.5 10 29z"/><path fill="#ffa000" d="M24,16.01C12.54,16.29,13.553,26.08,14.598,29c0.637,1.77,1.964,3,3.134,3 c3.134,0,3.677-5.08,4.179-8c0.198-1.23,1.16-1.72,2.089-1.84c0.93,0.12,1.891,0.61,2.089,1.84c0.501,2.92,1.045,8,4.179,8 c1.17,0,2.497-1.23,3.134-3C34.447,26.08,35.46,16.29,24,16.01z"/><g><path fill="#212121" d="M16.54 18.55c-1 .94-1.64 2.07-2.03 3.23C12.48 21.14 11 19.24 11 17c0-2.29 1.55-4.23 3.65-4.81C14.23 12.86 14 13.66 14 14.5 14 16.29 15.03 17.83 16.54 18.55zM36.99 17.25c-.1 2.14-1.54 3.92-3.5 4.53-.8-2.38-2.64-4.59-6.44-5.42.22-1.83 1.45-3.35 3.1-4.01C30.05 12.72 30 13.1 30 13.5c0 2.49 2.01 4.5 4.5 4.5C35.42 18 36.28 17.73 36.99 17.25zM24 20A4 2 0 1 0 24 24 4 2 0 1 0 24 20z"/></g><g><path fill="#fafafa" d="M20.95 16.36c-1.94.42-3.37 1.21-4.41 2.19C15.03 17.83 14 16.29 14 14.5c0-.84.23-1.64.65-2.31C15.08 12.06 15.53 12 16 12 18.54 12 20.64 13.9 20.95 16.36zM37 17c0 .08 0 .17-.01.25C36.28 17.73 35.42 18 34.5 18c-2.49 0-4.5-2.01-4.5-4.5 0-.4.05-.78.15-1.15C30.72 12.13 31.35 12 32 12 34.76 12 37 14.24 37 17z"/></g></svg>