<svg xmlns="http://www.w3.org/2000/svg"  viewBox="0 0 48 48" width="1600px" height="1600px"><path fill="#9575cd" d="M41.8,33.7c1.4,1.3,2.2,3.2,2.2,5.1c0,0.6-0.1,1.1-0.2,1.6c-0.2,0.8-1.4,2.9-1.8,3.5c-5,0-30,0-38,0 c-0.5-0.7-1.6-2.7-1.8-3.5C2.1,39.9,2,39.4,2,38.8c0-2.1,0.9-4,2.5-5.4C3.5,31.8,3,30,3,28c0-5.7,3.3-10.1,8.2-10.6c0-0.3,0-0.7,0-1 C11.1,9,16,5,22.1,5C27.9,5,32.6,8.5,33,15.4c0.2,0,0.3,0,0.5,0c6.1,0,10.5,4.8,10.5,11.5C44,29.3,43.2,31.7,41.8,33.7z"/><path fill="#311b92" d="M31.5 25A1.5 1.5 0 1 0 31.5 28A1.5 1.5 0 1 0 31.5 25Z"/><path fill="#311b92" d="M34.1,26.2l-5-0.2c-0.6,0-1-0.5-1-1c0-0.6,0.5-1,1-1l5,0.2L34.1,26.2z"/><path fill="#311b92" d="M14.5 25A1.5 1.5 0 1 0 14.5 28A1.5 1.5 0 1 0 14.5 25Z" transform="rotate(-13.409 14.5 26.5)"/><path fill="#311b92" d="M11.9 26.6c-.5 0-.9-.4-1-.9-.1-.5.3-1 .9-1.1l5-.6c.5-.1 1 .3 1.1.9.1.5-.3 1-.9 1.1l-5 .6C12 26.6 11.9 26.6 11.9 26.6zM25.3 31.9c.4-.5 1-.9 1.7-.9.5 0 1-.5 1-1s-.5-1-1-1c-1.5 0-2.8.8-3.5 2-.1.1-.1.2-.1.3-.1 0-.2-.1-.3-.1 0 0 0 0 0 0-.9-.2-2-.3-3.3-.1-3 .5-5 2.1-4.7 3.7.2 1.1 1.3 1.9 3 2.1.5-.9 1.4-1.6 2.7-1.9 1.2-.2 2.3.1 3.1.7.1 0 .1-.1.2-.1.1.1.1.2.2.2.4.5.9.8 1.5 1.1.1 0 .3.1.4.1.4 0 .8-.2.9-.6.2-.5 0-1.1-.5-1.3-.7-.3-1.2-1.1-1.4-1.8 0-.1 0-.2 0-.3 0-.1 0-.2 0-.3C25.1 32.4 25.2 32.1 25.3 31.9z"/><path fill="#e57373" d="M23.8,35.8c-0.1,0-0.1,0.1-0.2,0.1c0,0,0,0-0.1,0h0c-0.8,0.5-1.8,0.8-2.9,1c-0.5,0.1-1,0.1-1.5,0.1 c-0.4,0-0.8,0-1.1-0.1h0v0c0.5-0.9,1.4-1.6,2.7-1.9C21.9,34.9,23,35.1,23.8,35.8z"/><path fill="#fdd835" d="M23.5,12H28l-3.5,2.9l1.4,4.5L22,16.6l-3.9,2.8l1.5-4.4L16,12h4.4L22,7.4L23.5,12z"/></svg>