<svg xmlns="http://www.w3.org/2000/svg"  viewBox="0 0 48 48" width="1600px" height="1600px"><path fill="#880e4f" d="M13,25v9.7h22V25H13z M24,28c-0.89,0-1.61-0.14-2.17-0.37C22.37,27.24,23.14,27,24,27 s1.63,0.24,2.17,0.63C25.61,27.86,24.89,28,24,28z"/><path fill="#ffcdd2" d="M13,18c0,5.49,3.38,11.5,8,13.39c0.95,0.39,1.96,0.61,3,0.61s2.05-0.22,3-0.61 c4.62-1.89,8-7.9,8-13.39C35,11.37,13,11.37,13,18z M24,27c0.86,0,1.63,0.24,2.17,0.63C25.61,27.86,24.89,28,24,28 s-1.61-0.14-2.17-0.37C22.37,27.24,23.14,27,24,27z"/><path fill="#ffcdd2" d="M21 30H27V34H21z"/><path fill="#f06292" d="M32 40L32 44 16 44 16 40 21 34 27 34z"/><path fill="#f06292" d="M42,26c0,4,0,18,0,18H32V21c0,0,0-3-8-3s-8,3-8,3v23H6c0,0,0-14,0-18C6,12.28,15,6,24,6 C34,6,42,12.28,42,26z"/><path fill="#ffcdd2" d="M32 41H36V44H32zM12 41H16V44H12z"/><path fill="#6a1b9a" d="M32 41.99V40c2.09 0 2-1 4-1v2C36 41 36.1 41.86 32 41.99zM16 40v1.99C11.9 41.86 12 41 12 41v-2C14 39 14 40 16 40zM27 34h-6l-2.62 3.14C19.09 37.68 20 38 21 38c1.2 0 2.27-.46 3-1.19.73.73 1.8 1.19 3 1.19 1 0 1.91-.32 2.62-.86L27 34z"/><g><path fill="#ec407a" d="M36 39c-2 0-1.91 1-4 1l-4.6-5.52C27.82 33.61 28.92 33 31 33 36 33 36 35 36 39zM20.6 34.48L16 40c-2 0-2-1-4-1 0-4 0-6 5-6C19.08 33 20.18 33.61 20.6 34.48z"/></g><path fill="#fbc02d" d="M9.092,14c0,0,6.793-2,14.908-2c8.014,0,15.157,2,15.157,2s-0.782-2-1.407-2.5 c-1.617-1.294-5.513-0.736-7.75-1.5c-3.995-1.364-6-6-6-6s-2.107,4.636-6,6c-2.226,0.78-6.129,0.204-7.75,1.5 C9.625,12,9.092,14,9.092,14z"/><path fill="#4db6ac" d="M24 2A1.5 1.5 0 1 0 24 5A1.5 1.5 0 1 0 24 2Z"/><g><path fill="#212121" d="M19 22A1 1 0 1 0 19 24 1 1 0 1 0 19 22zM29 22A1 1 0 1 0 29 24 1 1 0 1 0 29 22zM28 25.42c0 .67-.49 1.67-1.83 2.21C25.63 27.24 24.86 27 24 27s-1.63.24-2.17.63C20.49 27.09 20 26.09 20 25.42c0-.92 1.777.002 4 0C26.21 25.418 28 24.5 28 25.42z"/></g><path fill="#e57373" d="M26.17,27.63C25.61,27.86,24.89,28,24,28s-1.61-0.14-2.17-0.37C22.37,27.24,23.14,27,24,27 S25.63,27.24,26.17,27.63z"/></svg>