<svg xmlns="http://www.w3.org/2000/svg"  viewBox="0 0 48 48" width="1600px" height="1600px"><path fill="#00897b" d="M43,7H5C3.9,7,3,7.9,3,9v27c0,1.1,0.9,2,2,2h5v8l9-8h24c1.1,0,2-0.9,2-2V9C45,7.9,44.1,7,43,7z"/><path fill="#a7ffeb" d="M11.73 20L9.27 20 10.5 17zM15 28L6 28 8.45 22 12.55 22zM40.62 20h-6.23c.57-1.78 1.75-3 3.11-3S40.04 18.22 40.62 20zM41 22.5c0 3.04-1.57 5.5-3.5 5.5S34 25.54 34 22.5c0-.17 0-.34.02-.5h6.96C41 22.16 41 22.33 41 22.5zM23 22.5c0 3.04-1.566 5.5-3.5 5.5S16 25.54 16 22.5c0-.17.009-.34.018-.5h6.965C22.991 22.16 23 22.33 23 22.5zM16 17H23V20H16zM25 17H32V20H25zM27 22H30V28H27z"/></svg>