<svg xmlns="http://www.w3.org/2000/svg"  viewBox="0 0 48 48" width="1600px" height="1600px"><circle cx="24" cy="24" r="20" fill="#ff8a65"/><path fill="#fff" d="M31.35,21.04C30.67,17.59,27.64,15,24,15c-2.89,0-5.4,1.64-6.65,4.04C14.34,19.36,12,21.91,12,25	c0,3.31,2.69,6,6,6h7v-2h-7c-2.21,0-4-1.79-4-4c0-2.05,1.53-3.76,3.57-3.98l1.06-0.11l0.49-0.95C20.08,18.14,21.95,17,24,17	c2.62,0,4.89,1.86,5.39,4.42l0.3,1.5l1.52,0.11C32.78,23.14,34,24.45,34,26c0,0.19-0.02,0.39-0.06,0.57l1.81,1	C35.91,27.07,36,26.55,36,26C36,23.36,33.95,21.22,31.35,21.04z"/><polygon fill="#fff" points="36,30 27,35 27,31.67 31,30 27,28.33 27,25"/></svg>