<svg xmlns="http://www.w3.org/2000/svg"  viewBox="0 0 48 48" width="1600px" height="1600px"><circle cx="24" cy="24" r="20" fill="#ffa000"/><path fill="#fff" d="M32.18,30.39l-1.85,1.84c-0.38,0.37-0.96,0.43-1.4,0.14l-1.98-1.32l-0.47,2.33	c-0.1,0.52-0.56,0.9-1.09,0.9h-2.61c-0.53,0-0.99-0.37-1.09-0.89l-0.47-2.34l-1.98,1.32c-0.44,0.29-1.02,0.23-1.4-0.14l-1.85-1.84	c-0.37-0.38-0.44-0.97-0.14-1.41L17.17,27l-2.34-0.47c-0.51-0.1-0.89-0.55-0.89-1.08v-2.62c0-0.53,0.38-0.98,0.89-1.08l2.34-0.47	l-1.32-1.99c-0.3-0.43-0.23-1.02,0.14-1.4l1.85-1.85c0.38-0.38,0.96-0.43,1.4-0.13l1.98,1.32l0.47-2.34	c0.1-0.51,0.55-0.89,1.09-0.89h2.61c0.37,0,0.7,0.18,0.91,0.47v5.08h-0.02C25.6,19.2,24.82,19,24,19c-2.76,0-5,2.24-5,5s2.24,5,5,5	c1.95,0,3.84-1.32,4.67-2.95l0,0l3.81,3.35C32.55,29.75,32.44,30.12,32.18,30.39z"/><circle cx="24" cy="24" r="2" fill="#fff"/></svg>