<svg xmlns="http://www.w3.org/2000/svg"  viewBox="0 0 48 48" width="1600px" height="1600px"><circle cx="24" cy="24" r="20" fill="#669df6"/><path fill="#317be4" d="M42,27v5.73C38.76,39.4,31.92,44,24,44C12.95,44,4,35.05,4,24c0-2.09,0.32-4.1,0.92-6H33	C37.97,18,42,22.03,42,27z"/><polygon fill="#fff" points="27,14 26,13 22,13 21,14 15,14 15,16 18,16 30,16 33,16 33,14"/><path fill="#fff" d="M16,18v14c0,1.1,0.9,2,2,2h12c1.1,0,2-0.9,2-2V18H16z M24,21c1.1,0,2,0.9,2,2s-0.9,2-2,2s-2-0.9-2-2	S22.9,21,24,21z M28,31h-8v-2c0-1.33,2.67-2,4-2s4,0.67,4,2V31z"/></svg>