<svg xmlns="http://www.w3.org/2000/svg"  viewBox="0 0 48 48" width="1600px" height="1600px"><circle cx="24" cy="24" r="20" fill="#669df6"/><path fill="#317be4" d="M42,27v5.73C38.76,39.4,31.92,44,24,44C12.95,44,4,35.05,4,24c0-2.09,0.32-4.1,0.92-6H33	C37.97,18,42,22.03,42,27z"/><rect width="1" height="2" x="29" y="15" fill="#fff"/><path fill="#fff" d="M34,17v14c0,1.1-0.9,2-2,2l-1-1l-1,1h-3c-1.1,0-2-0.9-2-2V17c0-1.1,0.9-2,2-2v3c0,0.55,0.45,1,1,1h2	v2c0,0.55,0.45,1,1,1s1-0.45,1-1v-6C33.1,15,34,15.9,34,17z"/><path fill="#fff" d="M21,33h-5c-1.105,0-2-0.895-2-2V17c0-1.105,0.895-2,2-2h5c1.105,0,2,0.895,2,2v14	C23,32.105,22.105,33,21,33z"/><path fill="#317be4" d="M20,29h-3c-0.552,0-1-0.447-1-1v-4c0-0.553,0.448-1,1-1h2v-2h-2c-0.552,0-1-0.447-1-1s0.448-1,1-1h3	c0.552,0,1,0.447,1,1v4c0,0.553-0.448,1-1,1h-2v2h2c0.552,0,1,0.447,1,1S20.552,29,20,29z"/><path fill="#317be4" d="M32,30v3h-2v-2h-2c-0.55,0-1-0.45-1-1v-4c0-0.55,0.45-1,1-1h3c0.55,0,1,0.45,1,1s-0.45,1-1,1h-2v2h2	C31.55,29,32,29.45,32,30z"/></svg>