<svg xmlns="http://www.w3.org/2000/svg"  viewBox="0 0 48 48" width="1600px" height="1600px"><circle cx="24" cy="24" r="20" fill="#669df6"/><path fill="#317be4" d="M42,27v5.73C38.76,39.4,31.92,44,24,44C12.95,44,4,35.05,4,24c0-2.09,0.32-4.1,0.92-6H33	C37.97,18,42,22.03,42,27z"/><path fill="#fff" d="M30,15v8.08C29.67,23.02,29.34,23,29,23c-1.08,0-2.09,0.23-3,0.66V15c0-1.1,0.9-2,2-2S30,13.9,30,15z"/><path fill="#fff" d="M24,22v3.06c-1.24,1.26-2,3-2,4.94c-1.1,0-2-0.9-2-2v-6c0-1.1,0.9-2,2-2S24,20.9,24,22z"/><path fill="#fff" d="M16,30c-1.104,0-2-0.896-2-2v-1c0-1.104,0.896-2,2-2s2,0.896,2,2v1C18,29.104,17.104,30,16,30z"/><path fill="#fff" d="M35,34.6l-1.8-1.8C33.7,32,34,31,34,30c0-2.8-2.2-5-5-5s-5,2.2-5,5s2.2,5,5,5c1,0,2-0.3,2.8-0.8	l1.8,1.8L35,34.6z M29,33c-1.7,0-3-1.3-3-3s1.3-3,3-3s3,1.3,3,3S30.7,33,29,33z"/></svg>