<svg xmlns="http://www.w3.org/2000/svg"  viewBox="0 0 48 48" width="1600px" height="1600px"><path fill="#455a64" d="M24 4A20 20 0 1 0 24 44A20 20 0 1 0 24 4Z"/><path fill="#cfd8dc" d="M40.078,24c0-2.301-2.366-4.309-6.098-5.596c0.714-3.783,0.108-6.775-1.94-7.928c-2.05-1.148-5.024-0.16-8.039,2.332c-3.014-2.494-5.989-3.481-8.038-2.332c-2.051,1.152-2.657,4.145-1.941,7.928c-3.73,1.287-6.098,3.295-6.098,5.596s2.367,4.305,6.098,5.594c-0.716,3.785-0.109,6.777,1.941,7.93c2.05,1.149,5.024,0.16,8.038-2.332c3.015,2.492,5.989,3.482,8.039,2.332c2.049-1.152,2.654-4.145,1.939-7.93C37.71,28.305,40.078,26.301,40.078,24z M31.309,11.707c1.362,0.762,1.861,3.09,1.288,6.27c-1.373-0.375-2.892-0.662-4.515-0.844c-0.974-1.273-1.988-2.406-3.011-3.371C27.621,11.688,29.947,10.943,31.309,11.707z M17.673,27.549c0.359,0.604,0.733,1.182,1.114,1.744c-1.107-0.17-2.14-0.382-3.078-0.644c0.238-0.918,0.561-1.894,0.964-2.91C16.986,26.34,17.313,26.941,17.673,27.549z M15.709,19.35c0.938-0.26,1.971-0.475,3.079-0.643c-0.381,0.561-0.756,1.137-1.115,1.743c-0.36,0.606-0.687,1.213-1,1.815C16.27,21.246,15.945,20.27,15.709,19.35z M17.426,24c0.437-0.924,0.937-1.871,1.512-2.84c0.575-0.969,1.17-1.859,1.775-2.691c1.043-0.094,2.14-0.148,3.288-0.148c1.147,0,2.244,0.054,3.286,0.148c0.607,0.832,1.201,1.727,1.776,2.691c0.572,0.969,1.075,1.916,1.512,2.84c-0.436,0.926-0.936,1.875-1.512,2.838c-0.575,0.969-1.17,1.861-1.775,2.693c-1.042,0.093-2.138,0.145-3.287,0.145c-1.15,0-2.246-0.051-3.29-0.145c-0.604-0.828-1.201-1.725-1.773-2.693C18.364,25.871,17.862,24.922,17.426,24z M30.33,27.547c0.359-0.602,0.687-1.203,0.999-1.805c0.402,1.012,0.727,1.988,0.962,2.906c-0.937,0.262-1.969,0.476-3.077,0.644C29.596,28.729,29.97,28.152,30.33,27.547z M30.33,20.453c-0.36-0.607-0.735-1.186-1.116-1.747c1.107,0.168,2.141,0.383,3.078,0.643c-0.236,0.92-0.561,1.896-0.963,2.912C31.017,21.66,30.69,21.055,30.33,20.453z M26.11,16.969c-0.688-0.039-1.39-0.066-2.109-0.066s-1.422,0.027-2.113,0.066C22.591,16.121,23.3,15.36,24,14.703C24.7,15.359,25.408,16.121,26.11,16.969z M16.693,11.707c1.361-0.763,3.687-0.019,6.236,2.055c-1.024,0.965-2.036,2.098-3.011,3.371c-1.623,0.182-3.141,0.469-4.515,0.844C14.83,14.797,15.331,12.469,16.693,11.707z M9.386,24c0-1.527,1.825-3.113,4.948-4.223c0.35,1.347,0.852,2.765,1.503,4.223c-0.648,1.456-1.153,2.875-1.503,4.219C11.211,27.109,9.386,25.527,9.386,24z M16.693,36.292c-1.362-0.763-1.863-3.089-1.289-6.271c1.374,0.377,2.892,0.662,4.515,0.846c0.974,1.273,1.987,2.406,3.011,3.373C20.38,36.313,18.055,37.055,16.693,36.292z M24,33.297c-0.7-0.656-1.41-1.418-2.113-2.266c0.69,0.039,1.394,0.066,2.114,0.066s1.422-0.027,2.112-0.066C25.41,31.879,24.7,32.641,24,33.297z M31.309,36.292c-1.361,0.766-3.688,0.02-6.237-2.052c1.025-0.967,2.037-2.1,3.012-3.373c1.624-0.184,3.141-0.469,4.514-0.846C33.17,33.203,32.671,35.531,31.309,36.292z M33.668,28.219c-0.351-1.344-0.854-2.762-1.503-4.219c0.648-1.458,1.153-2.875,1.503-4.223c3.123,1.109,4.948,2.695,4.948,4.223S36.791,27.113,33.668,28.219z"/><path fill="#ffeb3b" d="M24.001 22A2 2 0 1 0 24.001 26A2 2 0 1 0 24.001 22Z"/></svg>