<svg xmlns="http://www.w3.org/2000/svg"  viewBox="0 0 48 48" width="1600px" height="1600px"><path fill="#43a047" d="M39.25,8.25l-12,12L8.1,39.4c-0.36-0.4-0.69-0.83-0.96-1.3C6.41,36.9,6,35.5,6,34V14	c0-4.42,3.58-8,8-8h19.5c1.64,0,3.17,0.47,4.47,1.27C38.43,7.56,38.86,7.88,39.25,8.25z"/><path fill="#cfd8dc" d="M42,14.5V34c0,4.42-3.58,8-8,8H14c-1.64,0-3.16-0.49-4.42-1.34c-0.54-0.35-1.04-0.78-1.48-1.26	l19.15-19.15l12-12c0.48,0.44,0.91,0.93,1.27,1.47C41.46,11.08,42,12.73,42,14.5z"/><path fill="#eceff1" d="M20,14.048h-5.048v1.835h2.446c-0.202,0.422-0.491,0.789-0.844,1.087l0.001,0.001h-0.001	c-0.558,0.467-1.277,0.747-2.06,0.747c-1.361,0-2.524-0.846-2.992-2.041c-0.142-0.364-0.22-0.759-0.22-1.172	c0-0.666,0.202-1.283,0.549-1.796l0.061-0.079c0.58-0.811,1.529-1.337,2.603-1.337c0.858,0,1.637,0.335,2.212,0.886l1.532-1.712	C17.257,9.56,15.939,9,14.494,9c-1.9,0-3.575,0.964-4.566,2.428c-0.594,0.88-0.941,1.939-0.941,3.079	c0,0.904,0.217,1.757,0.604,2.51c0.913,1.779,2.765,2.997,4.903,2.997c1.466,0,2.799-0.573,3.787-1.509l-0.001-0.001	C19.34,17.504,20,16.081,20,14.508V14.048z"/><path fill="#eceff1" d="M40.52,9.72l-11.8,11.8L9.58,40.66c-0.54-0.35-1.04-0.78-1.48-1.26c-0.36-0.4-0.69-0.83-0.96-1.3	l19.13-19.13l11.7-11.7c0.46,0.29,0.89,0.61,1.28,0.98C39.73,8.69,40.16,9.18,40.52,9.72z"/><path fill="#ffb300" d="M42,14.5c0,4.69-3.81,8.5-8.5,8.5c-1.77,0-3.42-0.54-4.78-1.48c-0.54-0.36-1.03-0.79-1.47-1.27	c-0.37-0.39-0.69-0.82-0.98-1.28c-0.8-1.3-1.27-2.83-1.27-4.47C25,9.81,28.81,6,33.5,6c1.64,0,3.17,0.47,4.47,1.27	c0.46,0.29,0.89,0.61,1.28,0.98c0.48,0.44,0.91,0.93,1.27,1.47C41.46,11.08,42,12.73,42,14.5z"/><path fill="#ffb300" d="M42,27.46v6.8c0,4.42-3.58,8-8,8H22V31.22c0-0.84,0.34-1.64,0.96-2.21c0.75-0.69,1.95-1.61,3.56-2.4	c1.8-0.89,4.14-1.61,6.98-1.61s5.18,0.72,6.98,1.61C41.04,26.88,41.54,27.17,42,27.46z"/><path fill="#f57c00" d="M40.48,26.61L33.5,34l-6.98-7.39c1.8-0.89,4.14-1.61,6.98-1.61S38.68,25.72,40.48,26.61z"/></svg>