<svg xmlns="http://www.w3.org/2000/svg"  viewBox="0 0 48 48" width="1600px" height="1600px" baseProfile="basic"><path fill="#f5f5f5" d="M33,6H15c-4.967,0-9,4.033-9,9v18c0,4.967,4.033,9,9,9h18c4.967,0,9-4.033,9-9V15	C42,10.033,37.967,6,33,6z"/><circle cx="18.5" cy="18.5" r="8.5" fill="#1976d2"/><path fill="#4caf50" d="M37,18.5c0,0.829-0.672,1.5-1.5,1.5S34,19.329,34,18.5s0.672-1.5,1.5-1.5S37,17.671,37,18.5z"/><path fill="#ff3d00" d="M34,25c0,1.657-1.343,3-3,3s-3-1.343-3-3s1.343-3,3-3S34,23.343,34,25z"/><path fill="#ffc107" d="M35,34.5c0,2.486-2.014,4.5-4.5,4.5S26,36.986,26,34.5s2.014-4.5,4.5-4.5S35,32.015,35,34.5z"/></svg>