<svg xmlns="http://www.w3.org/2000/svg"  viewBox="0 0 48 48" width="1600px" height="1600px"><path fill="#ad1457" d="M40.19,29.37c-0.54,1-1.25,2.47-1.81,4.2c-0.26,0.82-1.02,1.37-1.88,1.39	c-0.77,0.02-1.52,0.05-2.24,0.09c1.65-2.84,3.02-5.84,4.1-8.99c0.47,0.27,0.87,0.53,1.21,0.76C40.41,27.4,40.67,28.49,40.19,29.37z"/><path fill="#ad1457" d="M46.98,16.64c-0.22,1.24-0.76,3.99-1.36,5.91c-0.22,0.68-1.05,0.92-1.61,0.48	c-1.14-0.89-2.5-1.67-4.17-2.3c0.55-2.48,0.91-5.04,1.06-7.64c2.81,0.95,4.73,1.99,5.62,2.53C46.88,15.83,47.06,16.24,46.98,16.64z"/><path fill="#b91e4e" d="M38.36,26.06c-1.08,3.15-2.45,6.15-4.1,8.99c-3.16,0.18-5.77,0.6-7.92,1.14	c2.8-3.78,5.02-8.02,6.5-12.59C35.22,24.38,37.05,25.28,38.36,26.06z"/><path fill="#b91e4e" d="M40.9,13.09c-0.15,2.6-0.51,5.16-1.06,7.64c-1.64-0.62-3.56-1.09-5.85-1.38	c0.56-2.51,0.89-5.1,0.98-7.76C37.25,11.98,39.23,12.52,40.9,13.09z"/><path fill="#c52844" d="M32.84,23.6c-1.48,4.57-3.7,8.81-6.5,12.59c-5.05,1.26-7.56,3.21-8.72,4.48	c-0.48,0.52-1.34,0.41-1.66-0.22l-0.64-1.27c3.31-2.77,6.14-6.08,8.36-9.81c0.69-0.15,1.4-0.29,2.15-0.41	c-0.56-0.16-1.12-0.3-1.67-0.41c1.13-2.01,2.08-4.14,2.83-6.35C29.22,22.55,31.17,23.05,32.84,23.6z"/><path fill="#c52844" d="M34.97,11.59c-0.09,2.66-0.42,5.25-0.98,7.76c-1.79-0.24-3.8-0.37-6.06-0.37	c0.62-2.56,0.98-5.22,1.06-7.96C31.16,11.07,33.16,11.28,34.97,11.59z"/><path fill="#d1333b" d="M23.68,29.37c-2.22,3.73-5.05,7.04-8.36,9.81l-2.25-4.44c-0.23-0.45-0.09-1.01,0.35-1.28	C15.98,31.87,19.22,30.34,23.68,29.37z"/><path fill="#d1333b" d="M26.99,22.2c-0.75,2.21-1.7,4.34-2.83,6.35c-2.38-0.49-4.72-0.52-6.9-0.29	c1.43-2.04,2.62-4.25,3.54-6.6C23.07,21.71,25.13,21.91,26.99,22.2z"/><path fill="#d1333b" d="M28.99,11.02c-0.08,2.74-0.44,5.4-1.06,7.96h-0.08c-2.52,0-4.53,0.13-6.25,0.38	c0.81-2.62,1.28-5.39,1.38-8.26c2.49-0.21,4.21-0.1,4.87-0.1C28.24,11,28.62,11.01,28.99,11.02z"/><path fill="#dc3d31" d="M20.8,21.66c-0.92,2.35-2.11,4.56-3.54,6.6c-4.16,0.42-7.73,1.79-9.8,2.73	c-0.43,0.2-0.88,0.23-1.3,0.12c3.32-2.38,6.05-5.53,7.93-9.18C16.5,21.69,18.74,21.62,20.8,21.66z"/><path fill="#dc3d31" d="M22.98,11.1c-0.1,2.87-0.57,5.64-1.38,8.26c-2.91,0.42-5.01,1.21-7.4,2.36	c1.5-2.94,2.45-6.2,2.71-9.65C19.23,11.51,21.28,11.23,22.98,11.1z"/><path fill="#e84728" d="M14.2,21.72c-0.17,0.08-0.35,0.16-0.53,0.25c0.14-0.01,0.28-0.03,0.42-0.04	c-1.88,3.65-4.61,6.8-7.93,9.18c-0.62-0.14-1.15-0.56-1.41-1.18c-0.46-1.11-1.05-2.54-1.66-4c3.76-2.85,6.47-7,7.47-11.78	c2.26-0.95,4.4-1.61,6.35-2.08C16.65,15.52,15.7,18.78,14.2,21.72z"/><path fill="#f4511e" d="M10.56,14.15c-1,4.78-3.71,8.93-7.47,11.78c-0.69-1.65-1.39-3.32-1.92-4.52	c-0.39-0.87-0.09-1.87,0.69-2.43C4.87,16.86,7.8,15.3,10.56,14.15z"/></svg>