<svg xmlns="http://www.w3.org/2000/svg"  viewBox="0 0 48 48" width="1600px" height="1600px"><circle cx="15.5" cy="16.5" r="12.5" fill="#1976d2"/><path fill="#4caf50" d="M44,17.5c0,1.381-1.12,2.5-2.5,2.5S39,18.881,39,17.5c0-1.381,1.12-2.5,2.5-2.5S44,16.119,44,17.5z"/><path fill="#ff3d00" d="M39,25c0,2.761-2.238,5-5,5c-2.762,0-5-2.239-5-5c0-2.761,2.238-5,5-5C36.762,20,39,22.239,39,25z"/><path fill="#ffc107" d="M40,38c0,3.314-2.686,6-6,6s-6-2.686-6-6c0-3.314,2.686-6,6-6C37.314,32,40,34.687,40,38z"/></svg>