<svg xmlns="http://www.w3.org/2000/svg"  viewBox="0 0 48 48" width="1600px" height="1600px"><path fill="#CFD8DC" d="M39,6H9C7.343,6,6,7.343,6,9v33l8.556-7H39c1.656,0,3-1.344,3-3V9C42,7.343,40.656,6,39,6z"/><path fill="#42A5F5" d="M12,9h24c1.656,0,3,1.343,3,3v30L27,32H12c-1.657,0-3-1.344-3-3V12C9,10.343,10.343,9,12,9z"/><path fill="#BBDEFB" d="M31 19c0 1.104-.896 2-2 2s-2-.896-2-2 .896-2 2-2S31 17.896 31 19M33 24.667c0 0-1.107-2.667-4-2.667s-4 2.667-4 2.667V26h8V24.667z"/><g><path fill="#E3F2FD" d="M24 17c0 1.656-1.343 3-3 3s-3-1.344-3-3 1.343-3 3-3S24 15.344 24 17M27 24.334c0 0-1.66-3.334-6-3.334s-6 3.334-6 3.334V26h12V24.334z"/></g></svg>