<svg xmlns="http://www.w3.org/2000/svg"  viewBox="0 0 48 48" width="1600px" height="1600px"><path fill="#f9a825" d="M24.5,12L24.5,12c-1.381,0-2.5-1.119-2.5-2.5v-3C22,5.119,23.119,4,24.5,4h0 C25.881,4,27,5.119,27,6.5v3C27,10.881,25.881,12,24.5,12z"/><path fill="#f9a825" d="M24.5,33L24.5,33c-1.381,0-2.5-1.119-2.5-2.5v-13c0-1.381,1.119-2.5,2.5-2.5h0 c1.381,0,2.5,1.119,2.5,2.5v13C27,31.881,25.881,33,24.5,33z"/><path fill="#f9a825" d="M24.5,44L24.5,44c-1.381,0-2.5-1.119-2.5-2.5v-3c0-1.381,1.119-2.5,2.5-2.5h0 c1.381,0,2.5,1.119,2.5,2.5v3C27,42.881,25.881,44,24.5,44z"/><path fill="#e53935" d="M15.5,36L15.5,36c-1.381,0-2.5-1.119-2.5-2.5v-3c0-1.381,1.119-2.5,2.5-2.5h0 c1.381,0,2.5,1.119,2.5,2.5v3C18,34.881,16.881,36,15.5,36z"/><path fill="#43a047" d="M33.5,20L33.5,20c-1.381,0-2.5-1.119-2.5-2.5v-3c0-1.381,1.119-2.5,2.5-2.5h0 c1.381,0,2.5,1.119,2.5,2.5v3C36,18.881,34.881,20,33.5,20z"/><path fill="#e53935" d="M15.5,25L15.5,25c-1.381,0-2.5-1.119-2.5-2.5v-9c0-1.381,1.119-2.5,2.5-2.5h0 c1.381,0,2.5,1.119,2.5,2.5v9C18,23.881,16.881,25,15.5,25z"/><path fill="#43a047" d="M33.5,37L33.5,37c-1.381,0-2.5-1.119-2.5-2.5v-9c0-1.381,1.119-2.5,2.5-2.5h0 c1.381,0,2.5,1.119,2.5,2.5v9C36,35.881,34.881,37,33.5,37z"/><path fill="#1565c0" d="M6.5,28L6.5,28C5.119,28,4,26.881,4,25.5v-3C4,21.119,5.119,20,6.5,20h0C7.881,20,9,21.119,9,22.5v3 C9,26.881,7.881,28,6.5,28z"/><path fill="#1e88e5" d="M42.5,28L42.5,28c-1.381,0-2.5-1.119-2.5-2.5v-3c0-1.381,1.119-2.5,2.5-2.5h0 c1.381,0,2.5,1.119,2.5,2.5v3C45,26.881,43.881,28,42.5,28z"/></svg>