<svg xmlns="http://www.w3.org/2000/svg"  viewBox="0 0 48 48" width="1600px" height="1600px"><path fill="#de5245" d="M12,44c-1.7,0-3-1.3-3-3V7c0-1.7,1.3-3,3-3h16l11,11v26c0,1.7-1.3,3-3,3H12z"/><path fill="#b3433a" d="M39,15l-10.1-0.9l10.1,10V15z"/><path fill="#eea6a0" d="M39,15h-8c-1.7,0-3-1.3-3-3V4L39,15z"/><path fill="#fff" d="M24,18c-3.7,0-6.8,3-6.8,6.8c0,4.6,5.2,6.3,6.3,13.4c0.1,0.5,0.1,0.8,0.5,0.8s0.4-0.3,0.5-0.8	c1.1-7.2,6.3-8.8,6.3-13.4C30.8,21,27.7,18,24,18z"/><path fill="#de5245" d="M24,23c-1.1,0-2,0.9-2,2s0.9,2,2,2s2-0.9,2-2S25.1,23,24,23z"/></svg>