<svg xmlns="http://www.w3.org/2000/svg"  viewBox="0 0 48 48" width="1600px" height="1600px" baseProfile="basic"><path fill="#669df6" d="M39.715,32.01H23.99c-3.803,0-5.933,2.662-5.933,5.495c0,2.615,1.806,5.495,5.933,5.495h15.725V32.01	z"/><ellipse cx="39.5" cy="37.505" fill="#1a73e8" rx="5.5" ry="5.495"/><path fill="#669df6" d="M23.551,18H7.813c-3.806,0-5.938,2.664-5.938,5.5c0,2.617,1.808,5.5,5.938,5.5h15.739V18z"/><circle cx="23.5" cy="23.5" r="5.5" fill="#1a73e8"/><path fill="#669df6" d="M39.711,4H23.972c-3.806,0-5.938,2.664-5.938,5.5c0,2.617,1.808,5.5,5.938,5.5h15.739V4z"/><circle cx="39.5" cy="9.5" r="5.5" fill="#1a73e8"/></svg>