<svg xmlns="http://www.w3.org/2000/svg"  viewBox="0 0 48 48" width="1600px" height="1600px"><path fill="#e0e0e0" d="M35.67,42.84H17.617c-1.839,0-3.33-1.491-3.33-3.33V9.33c0-1.839,1.491-3.33,3.33-3.33H35.67	C37.509,6,39,7.491,39,9.33v30.18C39,41.349,37.509,42.84,35.67,42.84z"/><path fill="#ccc" d="M35.422,43H17.865c-1.976,0-3.578-1.622-3.578-3.623V9.623c0-0.376,0.056-0.738,0.161-1.078	c0.055-0.18,0.285-0.874,0.887-1.484C16.304,6.08,17.556,6.009,17.865,6c1.963,0,3.927,0,5.89,0	c2.601,2.486,5.394,5.024,8.388,7.582c2.323,1.985,4.614,3.851,6.857,5.604c0,6.41,0,13.78,0,20.19	c-0.007,0.263-0.066,1.514-1.074,2.535C36.917,42.933,35.682,42.993,35.422,43z"/><path fill="none" stroke="#bdbdbd" stroke-miterlimit="10" stroke-width=".25" d="M39,11c-5,0-10,0-15,0"/><path fill="none" stroke="#bdbdbd" stroke-miterlimit="10" stroke-width=".25" d="M39,15c-5,0-10,0-15,0"/><path fill="none" stroke="#bdbdbd" stroke-miterlimit="10" stroke-width=".25" d="M39,19c-5,0-10,0-15,0"/><path fill="none" stroke="#bdbdbd" stroke-miterlimit="10" stroke-width=".25" d="M39,23c-5,0-10,0-15,0"/><path fill="none" stroke="#bdbdbd" stroke-miterlimit="10" stroke-width=".25" d="M39,27c-5,0-10,0-15,0"/><path fill="none" stroke="#bdbdbd" stroke-miterlimit="10" stroke-width=".25" d="M39,31c-5,0-10,0-15,0"/><path fill="none" stroke="#bdbdbd" stroke-miterlimit="10" stroke-width=".25" d="M39,35c-5,0-10,0-15,0"/><path fill="none" stroke="#bdbdbd" stroke-miterlimit="10" stroke-width=".25" d="M39,39c-5,0-10,0-15,0"/><path fill="none" stroke="#1e88e5" stroke-miterlimit="10" d="M21.183,26.226c0,0,1.072-1.072,3.216,1.072	s2.144,8.575,4.287,9.647c3.953,1.976,3.216-13.934,6.431-13.934"/><circle cx="35.921" cy="22.742" r="1.34" fill="#1e88e5"/><path fill="#673ab7" d="M23.985,5.261v37.826c0,1.458-1.237,2.497-2.442,2.037c-2.765-1.061-5.54-2.133-8.316-3.194	c-0.215-0.086-0.42-0.161-0.635-0.247c-0.323-0.075-1.033-0.289-1.635-0.986C9.86,39.442,10,37.716,10.022,37.48	c-0.043-14.299-0.011-24.706,0-26.003c0.011-0.289,0.021-1.361,0.506-2.283c0.118-0.214,0.258-0.439,0.43-0.654	c0.333-0.429,0.689-0.707,0.968-0.879c0.43-0.204,0.871-0.397,1.302-0.6c2.743-1.254,5.476-2.519,8.219-3.784	c0.065-0.043,0.828-0.536,1.614-0.096C23.705,3.546,24.082,4.382,23.985,5.261z"/><path fill="#512da8" d="M13.216,7.061v34.867c-0.214-0.086-0.418-0.161-0.632-0.247c-0.322-0.075-1.029-0.289-1.629-0.986	c-1.093-1.254-0.954-2.98-0.932-3.216c-0.043-14.299-0.011-24.706,0-26.003c0.011-0.289,0.021-1.361,0.504-2.283	c0.118-0.214,0.257-0.439,0.429-0.654c0.332-0.429,0.686-0.707,0.965-0.879C12.347,7.458,12.787,7.265,13.216,7.061z"/><path fill="#8e24aa" d="M35,6v12c-1-0.6-2-1.19-3-1.79c-1,0.6-2,1.19-3,1.79V6H35z"/><path fill="#7b1fa2" d="M35,15.11V18c-1-0.6-2-1.19-3-1.79c-1,0.6-2,1.19-3,1.79V9.78C31,11.56,33,13.33,35,15.11z"/></svg>