<svg xmlns="http://www.w3.org/2000/svg"  viewBox="0 0 48 48" width="1600px" height="1600px"><path fill="#cfd8dc" d="M24 4A20 20 0 1 0 24 44A20 20 0 1 0 24 4Z"/><path fill="#1e88e5" d="M43.949,22.994c-0.261-0.023-0.52-0.059-0.813-0.111C39.451,22.227,28.086,6.808,20.38,6.092c-4.006-0.372-6.162,0.5-6.328,0.575c-2.203,1.268-4.141,2.937-5.713,4.917C9.027,11.279,10.068,11,12.571,11C20.466,11,33.594,27,43,27c0.164,0,0.442-0.028,0.762-0.07C43.903,25.971,44,24.998,44,24C44,23.661,43.966,23.33,43.949,22.994z"/><path fill="#1e88e5" d="M38.286 32c-8.421 0-18.25-13-28.571-13-3.454 0-4.869 2.205-5.637 3.468C4.039 22.976 4 23.483 4 24c0 2.152.349 4.22.978 6.163C5.723 29.094 7.288 28 9.714 28c9.342 0 14.828 8 24.762 8 3.579 0 5.325-1.031 6.935-2.181.001 0 .001-.001.001-.001.975-1.725 1.704-3.604 2.132-5.597C42.947 29.266 42.08 32 38.286 32zM38.426 37.83C37.378 38.298 34.151 40 29.714 40c-5.263 0-8.048-3-11.429-3C14.625 37 14 41 14 41c0 .102.005.204.006.306C16.949 43.009 20.355 44 24 44 29.675 44 34.786 41.626 38.426 37.83z"/></svg>