<svg xmlns="http://www.w3.org/2000/svg"  viewBox="0 0 48 48" width="1600px" height="1600px"><path fill="#de5245" d="M37,45H11c-1.7,0-3-1.3-3-3V6c0-1.7,1.3-3,3-3h19l10,10v29C40,43.7,38.7,45,37,45z"/><path fill="#eea6a0" d="M40,13H30V3L40,13z"/><path fill="#b3433a" d="M30,13l10,10V13H30z"/><path fill="#fff" d="M20.5 32c-3 0-5.5-2.5-5.5-5.5 0-3 2.5-5.5 5.5-5.5s5.5 2.5 5.5 5.5C26 29.5 23.5 32 20.5 32zM20.5 23c-1.9 0-3.5 1.6-3.5 3.5s1.6 3.5 3.5 3.5 3.5-1.6 3.5-3.5S22.4 23 20.5 23zM27.6 29c-.6 1.8-1.9 3.3-3.6 4.1V38h9v-9H27.6z"/></svg>