<svg xmlns="http://www.w3.org/2000/svg"  viewBox="0 0 48 48" width="1600px" height="1600px"><path fill="#00897b" d="M24,0C12.954,0,4,8.955,4,20.003s8.954,20.003,20,20.003V48c0.952,0,20-9.9,20-27.997 C44,8.955,35.046,0,24,0z"/><path fill="#00796b" d="M43.67,24.11c-1.43,8.65-7.13,15.09-12.03,19.09L16.22,27.78c-4.3-4.3-4.3-11.26,0-15.56 c4.3-4.3,11.26-4.3,15.56,0L43.67,24.11z"/><path fill="#fff" d="M24,26c-3.309,0-6-2.691-6-6s2.691-6,6-6c2.708,0,6,2.691,6,6S27.309,26,24,26z M24,16.5 c-1.953,0-3.5,1.5-3.5,3.5s1.479,3.5,3.5,3.5c2.206,0,3.5-1.294,3.5-3.5S26.206,16.5,24,16.5z"/><path fill="#fff" d="M24,31c-5.963,0-11-5.038-11-11S18.037,9,24,9s11,5.038,11,11c0,3.757-1.346,6-3.6,6 c-1.27,0-3.4-0.779-3.4-6v-5h2v5c0,2.505,0.523,4,1.4,4c1.105,0,1.6-2.009,1.6-4c0-4.878-4.121-9-9-9s-9,4.122-9,9s4.121,9,9,9 c2.463,0,4.083-0.795,4.099-0.804l0.895,1.789C28.91,30.027,26.93,31,24,31z"/></svg>