<svg xmlns="http://www.w3.org/2000/svg"  viewBox="0 0 48 48" width="1600px" height="1600px"><path fill="#CFD8DC" d="M39,8H9c-1.657,0-3,1.343-3,3v23c0,1.656,1.343,3,3,3h3l0,7l8.556-7H39c1.656,0,3-1.344,3-3V11C42,9.343,40.656,8,39,8z"/><path fill="#B0BEC5" d="M42,32.002c0,2.481-2.016,4.499-4.499,4.499H20.997L16.499,29H42V32.002z"/><path fill="#FFF" d="M16 29L12 22 12 19 20 19 20 22z"/><path fill="#4CAF50" d="M20 22L16 21 12.003 22 12.003 5 20 5z"/><path fill="#37474F" d="M14.286 26L16 29 17.714 26z"/><path fill="#388E3C" d="M16 5L16 21 20 22 20 5z"/><path fill="#90A4AE" d="M16,29l5,8h18c1.656,0,3-1.344,3-3v-5H16z"/></svg>