<svg xmlns="http://www.w3.org/2000/svg"  viewBox="0 0 48 48" width="1600px" height="1600px"><path fill="#03A9F4" d="M42,37c0,1.104-0.896,2-2,2H8c-1.104,0-2-0.896-2-2V15c0-1.104,0.896-2,2-2h32c1.104,0,2,0.896,2,2V37z"/><path fill="#03A9F4" d="M33,16c0,1.104-0.896,2-2,2H17c-1.104,0-2-0.896-2-2v-5c0-1.104,0.896-2,2-2h14c1.104,0,2,0.896,2,2V16z"/><path fill="#FFF" d="M37 16A2 2 0 1 0 37 20A2 2 0 1 0 37 16Z"/><path fill="#B3E5FC" d="M24 16A10 10 0 1 0 24 36A10 10 0 1 0 24 16Z"/><path fill="#01579B" d="M24 18A8 8 0 1 0 24 34A8 8 0 1 0 24 18Z"/><path fill="#0277BD" d="M20,30c0,1.173,0.259,2.284,0.712,3.287C21.716,33.741,22.827,34,24,34c4.418,0,8-3.582,8-8c0-1.173-0.259-2.284-0.713-3.287C30.283,22.259,29.174,22,28,22C23.582,22,20,25.582,20,30z"/></svg>