<svg xmlns="http://www.w3.org/2000/svg"  viewBox="0 0 48 48" width="1600px" height="1600px"><path fill="#4fc3f7" d="M44.945,21.453L26.547,3.055c-1.404-1.404-3.689-1.404-5.094,0L3.055,21.453	c-1.404,1.404-1.404,3.689,0,5.094l18.398,18.398c0.702,0.702,1.625,1.053,2.547,1.053s1.845-0.351,2.547-1.053l18.398-18.398	C46.349,25.143,46.349,22.857,44.945,21.453z M24,29l-5-5l5-5l5,5L24,29z"/><path fill="#2979ff" d="M33.246,9.754L24,19l5,5l-5,5l9.246,9.246l11.699-11.699c1.404-1.404,1.404-3.689,0-5.094	L33.246,9.754z"/><path fill="#2962ff" d="M14.754,38.246l6.699,6.699c0.702,0.702,1.625,1.053,2.547,1.053s1.845-0.351,2.547-1.053	l6.699-6.699L24,29L14.754,38.246z"/></svg>