<svg xmlns="http://www.w3.org/2000/svg"  viewBox="0 0 48 48" width="1600px" height="1600px"><path fill="#e0e0e0" d="M44.971,28C45.62,26.989,46,25.79,46,24.5c0-3.59-2.91-6.5-6.5-6.5c-0.517,0-1.018,0.067-1.5,0.181V15c0-4.418-3.582-8-8-8c-1.65,0-3.183,0.5-4.457,1.356C24.451,5.239,21.49,3,18,3c-4.418,0-8,3.582-8,8v3.14c-3.978,0.71-7,4.178-7,8.36c0,2.099,0.765,4.017,2.026,5.5H44.971z"/><path fill="#97968d" d="M38 23L43 28 38 28z"/><path fill="#424242" d="M37.5,25h-27C9.672,25,9,24.328,9,23.5v0c0-0.828,0.672-1.5,1.5-1.5h27c0.828,0,1.5,0.672,1.5,1.5v0C39,24.328,38.328,25,37.5,25z"/><path fill="#2979ff" d="M18,45h17c1.657,0,3-1.343,3-3V24H11v14L18,45z"/><path fill="#9ac0ff" d="M18 45L11 38 18 38z"/><path fill="#2f5cae" d="M18 38L25 45 18 45z"/><path fill="#fff" d="M15 27H34V29H15zM15 32H34V34H15z"/></svg>