<svg xmlns="http://www.w3.org/2000/svg"  viewBox="0 0 48 48" width="1600px" height="1600px"><path fill="#880e4f" d="M10.185,3.56C9.516,3.18,8.983,3,8.209,3C6.884,3,6,3.875,6,5.406v37.188C6,44.125,6.884,45,8.209,45	c0.773,0,1.307-0.18,1.976-0.56l32.213-18.163C43.287,25.773,44,25.094,44,24s-0.713-1.775-1.603-2.279L10.185,3.56z"/><rect width="28" height="13" x="12" y="8" fill="#d81b60"/><polygon fill="#ff1744" points="40,27.629 40,21 12,21 12,34 28.701,34"/><rect width="3" height="2" x="34" y="11" fill="#fff"/><rect width="3" height="2" x="15" y="11" fill="#fff"/><rect width="3" height="2" x="15" y="17" fill="#fff"/><rect width="3" height="2" x="15" y="23" fill="#fff"/><rect width="3" height="2" x="15" y="29" fill="#fff"/><rect width="3" height="2" x="34" y="17" fill="#fff"/><rect width="3" height="2" x="34" y="23" fill="#fff"/></svg>