<svg xmlns="http://www.w3.org/2000/svg"  viewBox="0 0 48 48" width="1600px" height="1600px" baseProfile="basic"><path fill="#00bfa5" d="M43,21c0,0,0,0.12-0.01,0.35c0,0.16-0.01,0.36-0.03,0.61c-0.1,1.26-0.44,3.65-1.52,6.56	c-1.67,4.46-5.09,10.13-12.17,14.75c-1.54,1.01-3.25,1.97-5.15,2.85V40H24C13.55,40,5,31.45,5,21S13.55,2,24,2S43,10.55,43,21z"/><path fill="#009688" d="M42.96,21.96c-0.1,1.26-0.44,3.65-1.52,6.56c-1.67,4.46-5.09,10.13-12.17,14.75L13.64,27.64	l-0.28-0.28C13.11,27.04,13,26.59,13,26v-4.88L20.12,14H29c1.1,0,2,0.9,2,2v3l5-4L42.96,21.96z"/><path fill="#fff" d="M36,20.25V27l-5-4v3c0,1.1-0.9,2-2,2H15c-0.59,0-1.04-0.11-1.36-0.36l-0.28-0.28	C13.11,27.04,13,26.59,13,26v-5.75H36z"/><path fill="#eceff1" d="M36,15v6H13v-5c0-1.38,0.62-2,2-2h14c1.1,0,2,0.9,2,2v3L36,15z"/></svg>