<svg xmlns="http://www.w3.org/2000/svg"  viewBox="0 0 48 48" width="1600px" height="1600px"><path fill="#ffa000" d="M38.75,5.33c-4.04,0.2-8.09,0.38-12.13,0.58c-0.36,0.01-0.98,0.07-1.64,0.37	c-0.81,0.36-1.31,0.89-1.54,1.19l-6.95,6.95l2.88,2.89h0.01C20.83,15.88,22.81,15,25,15c2.15,0,4.1,0.85,5.54,2.22l3.57-3.57	c-0.84-0.84-0.84-2.22,0-3.06c0.84-0.85,2.22-0.85,3.06,0l4.21-4.21C40.32,5.32,38.97,5.32,38.75,5.33z M33,23v-1h-0.06	C32.98,22.33,33,22.66,33,23z M28.57,26.51c0.42-0.43,0.77-0.95,1.02-1.51h-2.53L28.57,26.51z M25,18c-1.36,0-2.6,0.54-3.5,1.43	l3.41,3.42L25,22.94V22h4.9c-0.21-1.04-0.74-1.96-1.49-2.65C27.52,18.51,26.32,18,25,18z"/><polygon fill="#4675cd" points="24.91,22.85 25,22.76 25,22.94"/><path fill="#4675cd" d="M27.06,25h2.53c-0.25,0.56-0.6,1.08-1.02,1.51L27.06,25z"/><path fill="#4675cd" d="M28.41,19.35c0.75,0.69,1.28,1.61,1.49,2.65h-4.14L28.41,19.35z"/><path fill="#4675cd" d="M33,22v1c0-0.34-0.02-0.67-0.06-1H33z"/><path fill="#dc3f0f" d="M25,18c1.32,0,2.52,0.51,3.41,1.35L25.76,22H25v0.76l-0.09,0.09l-3.41-3.42	C22.4,18.54,23.64,18,25,18z"/><path fill="#dc3f0f" d="M41.38,6.38l-4.21,4.21c-0.84-0.85-2.22-0.85-3.06,0c-0.84,0.84-0.84,2.22,0,3.06l-3.57,3.57	C29.1,15.85,27.15,15,25,15c-2.19,0-4.17,0.88-5.62,2.31h-0.01l-2.88-2.89l6.95-6.95c0.23-0.3,0.73-0.83,1.54-1.19	c0.66-0.3,1.28-0.36,1.64-0.37c4.04-0.2,8.09-0.38,12.13-0.58C38.97,5.32,40.32,5.32,41.38,6.38z"/><path fill="#eebf2f" d="M19.37,17.31C17.91,18.76,17,20.78,17,23c0,2.15,0.85,4.1,2.22,5.54l-7.34,7.34L5,29	c-0.11-0.11-0.64-0.66-0.64-1.53C4.35,26.57,4.9,26,5,25.9l11.49-11.48L19.37,17.31z"/><path fill="#eebf2f" d="M24.91,22.85l-3.56,3.56C20.51,25.52,20,24.32,20,23c0-1.39,0.57-2.66,1.49-3.57c0,0,0,0,0.01,0	L24.91,22.85z"/><path fill="#73ac57" d="M25,28c-1.44,0-2.74-0.61-3.65-1.59l3.56-3.56L25,22.94V25h2.06l1.51,1.51	C27.66,27.43,26.39,28,25,28z"/><path fill="#73ac57" d="M33.34,31.28L21.86,42.76c-0.16,0.13-0.71,0.55-1.54,0.55c-0.83,0.01-1.41-0.43-1.56-0.55l-6.88-6.88	l7.34-7.34C20.68,30.06,22.73,31,25,31c2.22,0,4.24-0.91,5.69-2.37L33.34,31.28z"/><path fill="#fafafa" d="M29.59,25c-0.25,0.56-0.6,1.08-1.02,1.51C27.66,27.43,26.39,28,25,28c-1.44,0-2.74-0.61-3.65-1.59	C20.51,25.52,20,24.32,20,23c0-1.39,0.57-2.66,1.49-3.57c0,0,0,0,0.01,0C22.4,18.54,23.64,18,25,18c1.32,0,2.52,0.51,3.41,1.35	c0.75,0.69,1.28,1.61,1.49,2.65H25v3H29.59z"/><path fill="#4675cd" d="M41.41,6.41l-0.03-0.03l-4.21,4.21c0.85,0.84,0.85,2.22,0,3.06c-0.84,0.85-2.22,0.85-3.06,0l-5.7,5.7	C27.52,18.51,26.32,18,25,18c-1.36,0-2.6,0.54-3.5,1.43c-0.01,0-0.01,0-0.01,0C20.57,20.34,20,21.61,20,23	c0,1.32,0.51,2.52,1.35,3.41C22.26,27.39,23.56,28,25,28c1.39,0,2.66-0.57,3.57-1.49c0.42-0.43,0.77-0.95,1.02-1.51H25v-3h4.9H33v1	c0,0.69-0.09,1.36-0.25,2c-0.36,1.39-1.09,2.64-2.06,3.63l2.65,2.65c2.09-2.08,4.29-4.27,6.88-6.87c0.34-0.31,0.92-0.9,1.27-1.85	c0.2-0.56,0.26-1.07,0.27-1.44c0.23-4.07,0.45-8.15,0.68-12.23C42.43,8.64,42.4,7.42,41.41,6.41z"/><path fill="#fafafa" d="M33,23c0,0.69-0.09,1.36-0.25,2c-0.36,1.39-1.09,2.64-2.06,3.63C29.24,30.09,27.22,31,25,31	c-2.27,0-4.32-0.94-5.78-2.46C17.85,27.1,17,25.15,17,23c0-2.22,0.91-4.24,2.37-5.69h0.01C20.83,15.88,22.81,15,25,15	c2.15,0,4.1,0.85,5.54,2.22l-2.13,2.13C27.52,18.51,26.32,18,25,18c-1.36,0-2.6,0.54-3.5,1.43c-0.01,0-0.01,0-0.01,0	C20.57,20.34,20,21.61,20,23c0,1.32,0.51,2.52,1.35,3.41C22.26,27.39,23.56,28,25,28c1.39,0,2.66-0.57,3.57-1.49	c0.42-0.43,0.77-0.95,1.02-1.51H25v-3h7.94C32.98,22.33,33,22.66,33,23z"/><path fill="#fafafa" d="M33,22v1c0-0.34-0.02-0.67-0.06-1H33z"/></svg>