<svg xmlns="http://www.w3.org/2000/svg"  viewBox="0 0 48 48" width="1600px" height="1600px"><path fill="#D32F2F" d="M28.143,8.058L37.9,15.51l-2.238,18.03l-19.717,5.851L11.858,26.59L9.347,10.671L28.143,8.058 M28.941,5L6,8.184l3.014,19.083L14.038,43l24.279-7.198L41,14.205L28.941,5L28.941,5z"/><path fill="#D32F2F" d="M29.277,16.547l-5.021-5.354L8.843,13.375l1.009,12.217l5.19,15.734l21.605-6.862l2.848-19.749L29.277,16.547z M13.331,33.508l-1.344-4.307l7.853-1.529l2.107,3.827L13.331,33.508z M21.279,24.703c-0.097,0.289-2.107-3.445-2.107-3.445l-7.279,1.437l-1.533-3.535l14.176-2.398l5.074,6.126C29.607,22.887,21.373,24.414,21.279,24.703z"/></svg>