<svg xmlns="http://www.w3.org/2000/svg"  viewBox="0 0 48 48" width="1600px" height="1600px"><path fill="#1E88E5" d="M35,40c0,1.104-0.896,2-2,2H15c-1.104,0-2-0.896-2-2V7c0-1.104,0.896-2,2-2h18c1.104,0,2,0.896,2,2V40z"/><path fill="#283593" d="M16 8.001H32V28H16z"/><path fill="#ECEFF1" d="M24 29A1 1 0 1 0 24 31 1 1 0 1 0 24 29zM33 37c0 1.104-.896 2-2 2H17c-1.104 0-2-.896-2-2v-3c0-1.104.896-2 2-2h14c1.104 0 2 .896 2 2V37z"/><g><path fill="#9FA8DA" d="M15 35H33V36H15z"/><path fill="#9FA8DA" d="M20 32H21V39H20zM27 32H28V39H27z"/></g></svg>