<svg xmlns="http://www.w3.org/2000/svg"  viewBox="0 0 48 48" width="1600px" height="1600px"><path fill="#2979ff" d="M40,4H24C12.954,4,4,12.954,4,24s8.954,20,20,20s20-8.954,20-20V8C44,5.791,42.209,4,40,4z"/><path fill="#1565c0" d="M35.798,19.62L31,24.414v0.998l4.798,4.794C36.242,30.648,37,30.335,37,29.708v-9.591	C37,19.491,36.242,19.177,35.798,19.62z"/><path fill="#eceff1" d="M35.798,18.207L31,23.001v0.998l4.798,4.794C36.242,29.236,37,28.922,37,28.295v-9.591	C37,18.078,36.242,17.764,35.798,18.207z"/><polygon fill="#bdbdbd" points="33,21.003 31,23.001 31,23.999 33,25.997"/><path fill="#1565c0" d="M29,32H17c-1.657,0-3-1.343-3-3v-9c0-1.657,1.343-3,3-3h12c1.657,0,3,1.343,3,3v9	C32,30.657,30.657,32,29,32z"/><path fill="#fff" d="M29,31H17c-1.657,0-3-1.343-3-3v-9c0-1.657,1.343-3,3-3h12c1.657,0,3,1.343,3,3v9	C32,29.657,30.657,31,29,31z"/></svg>