<svg xmlns="http://www.w3.org/2000/svg"  viewBox="0 0 48 48" width="1600px" height="1600px"><path fill="#448aff" d="M4,11h40v16H4V11z"/><path fill="#1565c0" d="M42,41H24V27h20v12C44,40.1,43.1,41,42,41z"/><path fill="#e0e0e0" d="M24,41H6c-1.1,0-2-0.9-2-2V27h20V41z"/><path fill="#9e9e9e" d="M44,11H4V9c0-1.1,0.9-2,2-2h36c1.1,0,2,0.9,2,2V11z"/><path fill="#fff" d="M8 9c0 .6-.4 1-1 1S6 9.6 6 9s.4-1 1-1S8 8.4 8 9zM11 9c0 .6-.4 1-1 1S9 9.6 9 9s.4-1 1-1S11 8.4 11 9z"/><path fill="#9e9e9e" d="M7 29H21V30H7zM7 32H21V33H7zM7 35H21V36H7zM7 38H16V39H7z"/></svg>