<svg xmlns="http://www.w3.org/2000/svg"  viewBox="0 0 48 48" width="1600px" height="1600px" baseProfile="basic"><circle cx="36" cy="15" r="7" fill="#1a73e8"/><circle cx="36" cy="31" r="9" fill="#34a853"/><path fill="#fbbc04" d="M3,40L23,8h13v5L19,40"/><path fill="#1a73e8" d="M36,40H23V8h13V40z"/><path fill="#0d652d" d="M36,40c-4.971,0-9-4.029-9-9	s4.029-9,9-9V40z"/><path fill="#174ea6" d="M36,22c-3.867,0-7-3.135-7-7	s3.133-7,7-7V22z"/><path fill="#ea4335" d="M4,14c0-3.313,2.687-6,6-6s6,2.687,6,6	s-2.687,6-6,6S4,17.313,4,14z"/></svg>