<svg xmlns="http://www.w3.org/2000/svg"  viewBox="0 0 48 48" width="1600px" height="1600px"><path fill="#388E3C" d="M41 42L7 42 12 37 36 37z"/><path fill="#388E3C" d="M19 32.875H29V37.875H19z"/><path fill="#4CAF50" d="M42,33c0,1.104-0.896,2-2,2H8c-1.104,0-2-0.896-2-2V8c0-1.104,0.896-2,2-2h32c1.104,0,2,0.896,2,2V33z"/><path fill="#1B5E20" d="M9 9H39V31.875H9z"/><g><path fill="#66BB6A" d="M15.551 11.893H18.551000000000002V22.893H15.551z" transform="rotate(44.992 17.051 17.394)"/><path fill="#66BB6A" d="M15.55 17.55H18.55V28.55H15.55z" transform="rotate(-45.017 17.048 23.049)"/><path fill="#66BB6A" d="M29.55 11.893H32.55V22.893H29.55z" transform="rotate(134.999 31.05 17.393)"/><path fill="#66BB6A" d="M29.55 17.55H32.55V28.55H29.55z" transform="rotate(-134.983 31.051 23.05)"/></g></svg>