<svg xmlns="http://www.w3.org/2000/svg"  viewBox="0 0 48 48" width="1600px" height="1600px"><path fill="#f44336" d="M37,24h-6.936C26.715,24,24,21.285,24,17.936V0.573c0-0.219,0.26-0.333,0.421-0.184L37,12V24z"/><path fill="#ad1457" d="M37,24h-6.936c-1.436,0-2.755-0.499-3.794-1.333L37,12V24z"/><path fill="#8bc34a" d="M11,24h6.936C21.285,24,24,26.715,24,30.064v17.362c0,0.219-0.26,0.333-0.421,0.184L11,36V24z"/><path fill="#009688" d="M11,24h6.936c1.436,0,2.755,0.499,3.794,1.333L11,36V24z"/><path fill="#ffc107" d="M24,11v6.936C24,21.285,21.285,24,17.936,24H0.573c-0.219,0-0.333-0.26-0.184-0.421L12,11H24z"/><path fill="#ff9800" d="M24,11v6.936c0,1.436-0.499,2.755-1.333,3.794L12,11H24z"/><path fill="#448aff" d="M24,37v-6.936C24,26.715,26.715,24,30.064,24h17.362c0.219,0,0.333,0.26,0.184,0.421L36,37H24z"/><path fill="#1565c0" d="M24,37v-6.936c0-1.436,0.499-2.755,1.333-3.794L36,37H24z"/></svg>