<svg xmlns="http://www.w3.org/2000/svg"  viewBox="0 0 48 48" width="1600px" height="1600px"><circle cx="24" cy="25" r="20" fill="#ffca28"/><path fill="#fff" d="M24.005,15c-3.262-0.002-6.155,1.574-7.983,3.996h-0.019v0.026c-1.251,1.669-2.002,3.733-2.003,5.974	C13.997,30.509,18.481,34.997,23.995,35S33.997,30.518,34,25.005S29.519,15.003,24.005,15z M16,24.996	c0-0.616,0.077-1.214,0.21-1.791L18,24.997l2.999,3.001v1c-0.001,1.105,0.894,2,1.999,2.001l-0.001,1.931	C19.057,32.434,15.998,29.068,16,24.996z M29.893,30.392c-0.259-0.804-1.004-1.39-1.894-1.39h-1l0.001-3c0-0.552-0.448-1-1-1L21,25	l0.001-2h1c0.552,0,1-0.448,1-1l0.001-2l2,0.001c1.105,0.001,2-0.894,2.001-1.999v-0.411c2.927,1.191,4.998,4.063,4.997,7.413	C31.999,27.081,31.196,28.969,29.893,30.392z"/></svg>