<svg xmlns="http://www.w3.org/2000/svg"  viewBox="0 0 48 48" width="1600px" height="1600px"><circle cx="24" cy="24" r="20" fill="#669df6"/><path fill="#317be4" d="M42,27v5.73C38.76,39.4,31.92,44,24,44C12.95,44,4,35.05,4,24c0-2.09,0.32-4.1,0.92-6H33	C37.97,18,42,22.03,42,27z"/><rect width="5" height="2" x="18" y="18" fill="#fff"/><path fill="#fff" d="M30.07,31.48l-3.78-3.77l1.42-1.42l2.22,2.23l2.46-2.95C32.03,25.21,31.54,25,31,25h-4	c-1.1,0-2,0.9-2,2v4c0,1.1,0.9,2,2,2h4c1.1,0,2-0.9,2-2v-3.04L30.07,31.48z"/><path fill="#fff" d="M19,34c-0.552,0-1-0.447-1-1V16h-4c-0.552,0-1-0.448-1-1s0.448-1,1-1h5c0.552,0,1,0.448,1,1v18	C20,33.553,19.552,34,19,34z"/><path fill="#fff" d="M33,17.96V21c0,1.1-0.9,2-2,2h-4c-1.1,0-2-0.9-2-2v-4c0-1.1,0.9-2,2-2h4c0.54,0,1.03,0.21,1.39,0.57	l-2.46,2.95l-2.22-2.23l-1.42,1.42l3.78,3.77L33,17.96z"/><rect width="5" height="2" x="18" y="28" fill="#fff"/></svg>