<svg xmlns="http://www.w3.org/2000/svg"  viewBox="0 0 48 48" width="1600px" height="1600px"><path fill="#2196f3" d="M8,38c0,1.657,1.343,3,3,3h13.975L8,24.025V38z"/><path fill="#1e88e5" d="M8,16v8.025L24.975,41H38c1.657,0,3-1.343,3-3V16H8z"/><path fill="#81acea" d="M14.75,19.12c0,2.7-2.18,4.88-4.88,4.88C7.18,24,5,21.82,5,19.12V19h9.74 C14.75,19.04,14.75,19.08,14.75,19.12z"/><path fill="#3f51b5" d="M24.5,19v0.12c0,2.7-2.18,4.88-4.88,4.88c-2.69,0-4.87-2.18-4.87-4.88c0-0.04,0-0.08,0.01-0.12H24.5 z"/><path fill="#81acea" d="M34.25,19.12c0,2.7-2.18,4.88-4.88,4.88c-2.69,0-4.87-2.18-4.87-4.88V19h9.74 C34.25,19.04,34.25,19.08,34.25,19.12z"/><path fill="#3f51b5" d="M44,19v0.12c0,2.7-2.18,4.88-4.88,4.88c-2.69,0-4.87-2.18-4.87-4.88c0-0.04,0-0.08,0.01-0.12H44z"/><path fill="#82b1ff" d="M9.562,7c-0.918,0-1.718,0.625-1.94,1.516L5.01,18.98C5,18.99,5,18.99,5,19h9.766l1.5-12H9.562z"/><polygon fill="#5c6bc0" points="16.266,7 14.766,19 24.5,19 24.5,7"/><path fill="#5c6bc0" d="M44,19c0-0.01,0-0.01-0.01-0.02L41.378,8.516C41.156,7.625,40.356,7,39.438,7h-6.703l1.5,12H44z"/><polygon fill="#82b1ff" points="32.735,7 24.5,7 24.5,19 34.235,19"/><path fill="#ededed" d="M33.649,38.299c-2.563,0-4.649-2.086-4.649-4.649S31.086,29,33.649,29 c1.072,0,2.119,0.374,2.947,1.054l-1.269,1.547C34.85,31.207,34.269,31,33.649,31C32.188,31,31,32.188,31,33.649 s1.188,2.649,2.649,2.649c1.107,0,2.058-0.683,2.453-1.649h-2.1v-2h4.296v1C38.298,36.213,36.213,38.299,33.649,38.299z"/></svg>