<svg xmlns="http://www.w3.org/2000/svg"  viewBox="0 0 48 48" width="1600px" height="1600px"><path fill="#e91e63" d="M37.766,27.133c-0.28,1.467-0.767,2.856-1.421,4.15c0.389-0.111,0.792-0.189,1.216-0.189	c2.467,0,4.468,2,4.468,4.468s-2,4.468-4.468,4.468s-4.468-2-4.468-4.468c0-0.79,0.217-1.524,0.581-2.164	C35.749,30.825,37,27.562,37,24c0-8.284-6.716-15-15-15S7,15.716,7,24c0,8.284,6.716,15,15,15c2.234,0,4.346-0.502,6.25-1.377	C28.094,36.939,28,36.231,28,35.5c0-0.88,0.134-1.726,0.359-2.534C26.562,34.242,24.372,35,22,35c-6.075,0-11-4.925-11-11	s4.925-11,11-11s11,4.925,11,11c0,2.254-0.684,4.344-1.847,6.088c-1.263,1.473-2.031,3.38-2.031,5.473	c0,4.661,3.778,8.439,8.439,8.439C42.222,44,46,40.222,46,35.561C46,30.97,42.331,27.242,37.766,27.133z"/><path fill="none" stroke="#e91e63" stroke-linecap="round" stroke-miterlimit="10" d="M28.953,42.157	c-2.159,0.827-4.503,1.281-6.953,1.281C11.265,43.438,2.563,34.735,2.563,24S11.265,4.563,22,4.563	c10.574,0,19.176,8.444,19.432,18.957c0.004,0.16,0.008,1.374-0.103,2.252"/><path fill="#37474f" d="M3.564,6.393l2.828-2.828l37.972,37.971l-2.828,2.828L3.564,6.393z"/></svg>