<svg xmlns="http://www.w3.org/2000/svg"  viewBox="0 0 48 48" width="1600px" height="1600px"><circle cx="24" cy="24" r="20" fill="#ffa000"/><path fill="#fff" d="M24,14c-5.514,0-10,4.486-10,10s4.486,10,10,10s10-4.486,10-10S29.514,14,24,14z M29.13,30.13	l-0.545-0.545C28.211,29.211,27.702,29,27.172,29h-6.343c-0.53,0-1.039,0.211-1.414,0.586L18.87,30.13C17.118,28.662,16,26.46,16,24	c0-4.411,3.589-8,8-8s8,3.589,8,8C32,26.46,30.882,28.662,29.13,30.13z"/><path fill="#fff" d="M22.211,24.106l3.894-5.553c0.321-0.457,0.951-0.568,1.408-0.247c0.373,0.261,0.515,0.73,0.381,1.142	l-2.106,6.447c-0.347,1.062-1.488,1.641-2.55,1.294c-1.062-0.347-1.641-1.488-1.294-2.55C22.007,24.447,22.102,24.263,22.211,24.106	z"/><circle cx="18.5" cy="23.5" r="1.25" fill="#fff"/><circle cx="21.5" cy="19.5" r="1.25" fill="#fff"/><circle cx="29.5" cy="23.5" r="1.25" fill="#fff"/></svg>