<svg xmlns="http://www.w3.org/2000/svg"  viewBox="0 0 48 48" width="1600px" height="1600px"><path fill="#e0e0e0" d="M24,4C12.95,4,4,12.95,4,24s8.95,20,20,20s20-8.95,20-20S35.05,4,24,4z M28.14,30h-8.22l-2.54-7.8 l6.65-4.82l6.65,4.82L28.14,30z"/><path fill="#43a047" d="M21.779,31.773c-0.997,0-1.52,0.691-1.147,1.774l2.571,7.471 c0.263,0.012,0.531,0.024,0.797,0.024c6.613,0,12.345-3.766,15.172-9.27H21.779z"/><path fill="#fdd835" d="M30.661,28.593c-0.32,0.944,0.167,1.661,1.313,1.655l7.901-0.041 c0.096-0.245,0.193-0.495,0.278-0.747c2.12-6.264,0.39-12.901-3.918-17.343L30.661,28.593z"/><path fill="#1e88e5" d="M15.915,24.248c-0.304-0.949-1.122-1.237-2.04-0.551l-6.331,4.728 c0.069,0.254,0.139,0.513,0.22,0.766c2.018,6.298,7.353,10.608,13.457,11.62L15.915,24.248z"/><path fill="#8e24aa" d="M21.118,16.431c0.798-0.598,0.803-1.464-0.146-2.108l-6.537-4.438 c-0.218,0.148-0.439,0.299-0.652,0.458C8.49,14.308,6.16,20.759,7.198,26.859L21.118,16.431z"/><path fill="#e53935" d="M30.373,19.001c0.807,0.586,1.636,0.334,1.97-0.762l2.308-7.557 c-0.206-0.164-0.415-0.331-0.631-0.487c-5.352-3.884-12.203-4.204-17.724-1.41L30.373,19.001z"/></svg>