<svg xmlns="http://www.w3.org/2000/svg"  viewBox="0 0 48 48" width="1600px" height="1600px"><path fill="#1b5e20" d="M10.185,3.56C9.516,3.18,8.983,3,8.209,3C6.884,3,6,3.875,6,5.406v37.188 C6,44.125,6.884,45,8.209,45c0.773,0,1.307-0.18,1.976-0.56l22.123-12.474L35,28l4.418-0.043l2.98-1.68 C43.287,25.773,44,25.094,44,24s-0.713-1.775-1.603-2.279L10.185,3.56z"/><rect width="13" height="3" x="18" y="26" fill="#43a047"/><path fill="#43a047" d="M39.42,27.96l-7.11,4.01L27.56,27H19.6c-4.15,0-7.5-3.36-7.5-7.5c0-2.07,0.84-3.94,2.19-5.3 c1.36-1.36,3.23-2.2,5.31-2.2h11.12c3.4,0,6.31,2.44,6.9,5.78L39.42,27.96z"/><path fill="#00e676" d="M14.959,33.883L21.539,27H30.5c4.142,0,7.5-3.358,7.5-7.5v0c0-4.142-3.358-7.5-7.5-7.5H18.372 c-3.396,0-6.302,2.438-6.893,5.782l-2.325,13.16C8.568,34.255,12.635,36.314,14.959,33.883z"/><rect width="7" height="2" x="15" y="18.5" fill="#f1f8e9"/><rect width="7" height="2" x="15" y="18.5" fill="#f1f8e9" transform="rotate(90 18.5 19.5)"/><circle cx="28.25" cy="19.5" r="1.25" fill="#f1f8e9"/><circle cx="33.25" cy="19.5" r="1.25" fill="#f1f8e9"/><circle cx="30.75" cy="17" r="1.25" fill="#f1f8e9"/><circle cx="30.75" cy="22" r="1.25" fill="#f1f8e9"/></svg>