<svg xmlns="http://www.w3.org/2000/svg"  viewBox="0 0 48 48" width="1600px" height="1600px"><path fill="#3e4ca6" d="M37.764 24.009L47 24.009 42.379 16 33.143 16z"/><path fill="#9fa8da" d="M37.764 24.009L47 24.009 42.379 16z"/><path fill="#4762fe" d="M1 24L10.236 24 14.852 16 5.615 16z"/><path fill="#536dfe" d="M10.236 24L14.852 16 5.615 16z"/><path fill="#8c9eff" d="M10.231 8L5.615 16 14.852 16 19.467 8z"/><path fill="#6d83fe" d="M10.231 8L5.615 16 14.852 16z"/><path fill="#303f9f" d="M10.236 24L1 24 5.621 32.009 14.857 32.009z"/><path fill="#212a82" d="M19.467 40L14.857 32.009 5.621 32.009 10.231 40z"/><path fill="#3f51b5" d="M10.236 24L1 24 5.621 32.009z"/><path fill="#ad1457" d="M10.231 40L19.467 40 24.044 32 14.808 32z"/><path fill="#880e4f" d="M19.467 40L14.857 32.009 10.231 40z"/><path fill="#d81b60" d="M19.385 24L14.808 32 24.044 32 28.621 24z"/><path fill="#822343" d="M19.385 24L14.808 32 24.044 32z"/><path fill="#c2185b" d="M19.385 24L14.808 32 24.044 32z"/><path fill="#f1729d" d="M28.533 8.009L33.143 16 37.764 16 37.769 8.009z"/><path fill="#31398b" d="M33.143 16L42.379 16 37.769 8.009z"/><path fill="#ec407a" d="M23.961 16L19.385 24 28.621 24 33.198 16z"/><path fill="#f06292" d="M28.533 8.009L23.961 16 33.198 16z"/><path fill="#e91e63" d="M23.961 16L19.385 24 28.621 24z"/><path fill="#5c6bc0" d="M28.533 40L37.769 40 42.39 32 33.154 32z"/><path fill="#7986cb" d="M37.764 24.009L33.154 32 42.39 32 47 24.009z"/><path fill="#6472c3" d="M37.769 40L42.39 32 33.154 32z"/><path fill="#8692d0" d="M37.764 24.009L42.39 32 47 24.009z"/></svg>