<svg xmlns="http://www.w3.org/2000/svg"  viewBox="0 0 48 48" width="1600px" height="1600px"><circle cx="24" cy="24" r="20" fill="#ff8a65"/><path fill="#fff" d="M27.56,22.97l-1.29,1.3l-3.53-3.53l1.29-1.3c0.39-0.39,1.02-0.39,1.41,0l2.12,2.12	C27.95,21.95,27.95,22.58,27.56,22.97z"/><path fill="#fff" d="M24.27,26.27l-5.3,5.29l-2,2c-0.39,0.39-1.02,0.39-1.41,0l-2.12-2.12c-0.39-0.39-0.39-1.02,0-1.41	l2-2l5.29-5.3l0.01,0.01L24.27,26.27z"/><polygon fill="#fff" points="31,29.503 31.692,27.751 33.306,27 31.692,26.249 31,24.497 30.308,26.249 28.694,27 30.308,27.751"/><polygon fill="#fff" points="20,18.5 20.75,16.75 22.5,16 20.75,15.25 20,13.5 19.25,15.25 17.5,16 19.25,16.75"/><polygon fill="#fff" points="31,18.503 31.808,16.751 33.694,16 31.808,15.249 31,13.497 30.192,15.249 28.306,16 30.192,16.751"/></svg>