<svg xmlns="http://www.w3.org/2000/svg"  viewBox="0 0 48 48" width="1600px" height="1600px"><circle cx="24" cy="24" r="20" fill="#669df6"/><path fill="#317be4" d="M42,27v5.73C38.76,39.4,31.92,44,24,44C12.95,44,4,35.05,4,24c0-2.09,0.32-4.1,0.92-6H33	C37.97,18,42,22.03,42,27z"/><path fill="#fff" d="M31,16H15c-1.11,0-2,0.89-2,2v12c0,1.1,0.89,2,2,2h10v-3h-9l3.5-4.5l2.5,3.01L25.5,23l1.5,2h6v-7	C33,16.89,32.1,16,31,16z"/><path fill="#fff" d="M35,35h-6c-1.105,0-2-0.895-2-2v-4c0-1.105,0.895-2,2-2h6c1.105,0,2,0.895,2,2v4	C37,34.105,36.105,35,35,35z"/><polygon fill="#317be4" points="29,33 30.999,30.429 32.429,32 34.429,29.572 37,33"/></svg>