<svg xmlns="http://www.w3.org/2000/svg"  viewBox="0 0 48 48" width="1600px" height="1600px"><circle cx="24" cy="24" r="20" fill="#669df6"/><path fill="#317be4" d="M42,27v5.73C38.76,39.4,31.92,44,24,44C12.95,44,4,35.05,4,24c0-2.09,0.32-4.1,0.92-6H33	C37.97,18,42,22.03,42,27z"/><path fill="#fff" d="M19.947,28.217c-0.458,0.644-0.835,0.965-1.643,0.965c-0.744,0-1.313-0.247-1.704-0.743	c-0.391-0.495-0.592-1.219-0.6-2.175V21h2l-0.01,5.197c0,0.837,0.194,1.256,0.853,1.256c0.629,0,0.922-0.253,1.158-0.758L20,21h2	v8.034h-2.002L19.947,28.217z"/><path fill="#fff" d="M27.978,23.119c-0.225-0.038-0.673-0.058-0.844-0.058c-0.626,0-1.036,0.269-1.231,0.808L26,29h-2v-8	h1.811l0.046,1.086C26.189,21.362,26.649,21,27.236,21c0.183,0,0.604,0.032,0.764,0.095L27.978,23.119z"/><path fill="#fff" d="M32,29.004h-2V18h2V29.004z"/><polygon fill="#fff" points="9.386,29 8,27.498 11.228,24 8,20.502 9.386,19 14,24"/><polygon fill="#fff" points="38.614,29 34,24 38.614,19 40,20.502 36.772,24 40,27.498"/></svg>