<svg xmlns="http://www.w3.org/2000/svg"  viewBox="0 0 48 48" width="1600px" height="1600px"><circle cx="24" cy="24" r="20" fill="#669df6"/><path fill="#317be4" d="M42,27v5.73C38.76,39.4,31.92,44,24,44C12.95,44,4,35.05,4,24c0-2.09,0.32-4.1,0.92-6H33	C37.97,18,42,22.03,42,27z"/><path fill="#fff" d="M22.976,24l9.976-6.234C32.835,16.773,32,16,30.976,16h-16c-1.024,0-1.859,0.773-1.976,1.766	L22.976,24z"/><path fill="#fff" d="M33,19.75v5.79C32.41,25.2,31.73,25,31,25c-2.21,0-4,1.79-4,4c0,1.2,0.53,2.27,1.36,3H15	c-1.1,0-2-0.9-2-2V19.75L23,26L33,19.75z"/><circle cx="31" cy="29" r="2" fill="#fff"/><path fill="#fff" d="M35,36h-8v-1c0-1.33,2.665-2,4-2s4,0.67,4,2V36z"/></svg>