<svg xmlns="http://www.w3.org/2000/svg"  viewBox="0 0 48 48" width="1600px" height="1600px"><circle cx="24" cy="24" r="20" fill="#669df6"/><path fill="#317be4" d="M42,27v5.73C38.76,39.4,31.92,44,24,44C12.95,44,4,35.05,4,24c0-2.09,0.32-4.1,0.92-6H33	C37.97,18,42,22.03,42,27z"/><path fill="#fff" d="M32.99,24.57L31,23.77l-7,2.8V32h-9c-1.1,0-2-0.9-2-2V17.77c0.12-1,0.95-1.77,1.98-1.77H17v-4h4v2h-2	v6h2v-4h9.98c1.02,0,1.85,0.77,1.97,1.77L32.99,24.57z"/><polygon fill="#fff" points="36,27.92 36,30.07 31,28.08 26,30.08 26,27.92 31,25.92"/><polygon fill="#fff" points="36,31.92 36,34.08 31,32.08 26,34.08 26,31.92 31,29.92"/><polygon fill="#fff" points="33.58,35.27 30,36.8 30,34.63 31,34.23"/></svg>