<svg xmlns="http://www.w3.org/2000/svg"  viewBox="0 0 48 48" width="1600px" height="1600px" baseProfile="basic"><path fill="#ff3d00" d="M29.103,2.631c4.217-2.198,9.438-0.597,11.658,3.577c2.22,4.173,0.6,9.337-3.617,11.534l-3.468,1.823	c2.987,0.109,5.836,1.75,7.328,4.555c2.22,4.173,0.604,9.337-3.617,11.534L18.897,45.37c-4.217,2.198-9.438,0.597-11.658-3.577	s-0.6-9.337,3.617-11.534l3.468-1.823c-2.987-0.109-5.836-1.75-7.328-4.555c-2.22-4.173-0.6-9.337,3.617-11.534	C10.612,12.346,29.103,2.631,29.103,2.631z M19.122,17.12l11.192,6.91l-11.192,6.877C19.122,30.907,19.122,17.12,19.122,17.12z"/><path fill="#fff" d="M19.122,17.12v13.787l11.192-6.877L19.122,17.12z"/></svg>