<svg xmlns="http://www.w3.org/2000/svg"  viewBox="0 0 48 48" width="1600px" height="1600px"><path fill="#0D47A1" d="M24 11A24 13 0 1 0 24 37A24 13 0 1 0 24 11Z"/><path fill="#0D47A1" d="M24,14c9.4,0,17,4.5,17,10s-7.6,10-17,10S7,29.5,7,24S14.6,14,24,14 M24,13c-9.9,0-18,4.9-18,11s8.1,11,18,11s18-4.9,18-11S33.9,13,24,13L24,13z"/><path fill="#E53935" d="M41,24c0,0.7-0.1,1.3-0.3,2h-2.2l-0.8-6.5l1.1-0.5C40.2,20.5,41,22.2,41,24z M11.9,17h4.4H17l0.2,0.7l2.1,6.1l0.2-5.8l0-1h1h10.4l0,0H32h4.1c-1.7-1-3.8-1.8-6.1-2.3V15h-3v1h-6v-1h-3v-0.3C15.7,15.2,13.6,16,11.9,17z M7,23.3l2.5-3.9l-0.4-0.2C8,20.4,7.2,21.8,7,23.3z M32.9,32H32l-0.1-0.9l-0.6-9.1H30l0.1,0.9l0.1,2.6l0.1,2.1h-1.1h-3.5V30v2h-1h-8.9H15l-0.3-1.8L14.4,29h-4L10,29.7c3.1,2.6,8.2,4.3,14,4.3c3.8,0,7.3-0.8,10.2-2H32.9z"/><path fill="#FFF" d="M44,30H32.9l-1-12h6.7l-3.4,1.5h1.4l1,7.5h5.7L44,30z M24.8,22.9v-2h6.5L31.1,18H20.5l-0.4,10.8H20L16.3,18H8.9l3.2,1.4h-1.5L4,30h4.8l1-2h5.4l0.4,2h9.1v-4.4h4.5l-0.1-2.6H24.8z M11,25.6l2.4-4.7h0.2l1.1,4.7H11z M38.9,32c-3.7,2.4-9,4-14.9,4c-6.1,0-11.5-1.6-15.2-4.2L9,31.4l0.5-0.9C12.8,33.2,18.1,35,24,35c4.8,0,9.1-1.1,12.3-3H38.9z M24,12C13,12,4,17.4,4,24c0,1.1,0.3,2.1,0.7,3l1.4-2.2C6,24.6,6,24.3,6,24c0-4.9,5.3-9.1,12.5-10.5c0.2,0,0.3-0.1,0.5-0.1c0,0,0,0,0,0V14h1v-0.7c0.7-0.1,1.3-0.2,2-0.2V15h1v-2c0.3,0,0.7,0,1,0s0.7,0,1,0v2h1v-1.9c0.7,0,1.3,0.1,2,0.2V14h1v-0.6C36.5,14.8,42,19,42,24c0,0.7-0.1,1.3-0.3,2h1.6h0.4c0.2-0.6,0.3-1.3,0.3-2C44,17.4,35,12,24,12z"/></svg>