<svg xmlns="http://www.w3.org/2000/svg"  viewBox="0 0 48 48" width="1600px" height="1600px"><path fill="#9c824a" d="M40.263,6.643L40.22,6.491l-0.136-0.079C36.007,4.059,28.222,3,23.996,3C19.768,3,11.981,4.059,7.908,6.412L7.772,6.491L7.729,6.643C2.828,23.907,8.394,37.14,23.822,44.913L23.996,45l0.174-0.087C39.613,37.133,45.179,23.9,40.263,6.643z"/><path fill="#023474" d="M13.506 13.783c.241 0 .345 0 .551-.039-.05-.204-.101-.486-.206-.93C13.696 13.258 13.61 13.501 13.506 13.783zM24.632 13.22c.105 0 .19-.042.19-.205 0-.039-.016-.12-.05-.239-.07-.286-.225-.243-.295-.243-.206 0-.411.243-.411.807 0 .042 0 .081 0 .124.275-.124.566-.205.566-.205S24.632 13.22 24.632 13.22zM24.306 14.512c.12.282.326.482.671.525.431 0 .69-.205 1.055-.525l.446.563v-.687c0 0-.016-.363-.016-.687C26.064 13.864 24.667 14.389 24.306 14.512z"/><path fill="#023474" d="M39.228,7.453L39.175,7.27L39,7.199C32.397,4.52,27.513,4.177,23.996,4.177c-3.519,0-8.406,0.344-15.009,3.022L8.812,7.271L8.759,7.453c-4.616,16.28,0.734,29.143,15.066,36.218l0.171,0.084l0.171-0.084C38.497,36.596,43.846,23.734,39.228,7.453z M33.086,16.167c0,0-0.101-0.162-0.101-0.201c-0.241,0.162-0.555,0.32-0.966,0.32c-0.691,0-1.21-0.282-1.451-0.807c0.016,0.12,0.07,0.525,0.085,0.687H28.74c0.07-0.444,0.07-1.211,0.051-1.779l-0.051-1.211c-0.019-0.32-0.175-0.32-0.26-0.282c-0.085,0-0.155,0-0.225,0.081c-0.05,0.039-0.085,0.162-0.085,0.243c0,0,0.035,1.169,0.035,1.13c0.015,0.563,0.07,1.292,0.19,1.817h-1.986c0.019-0.124,0.054-0.567,0.054-0.729c-0.485,0.528-1.036,0.768-1.777,0.767c-0.83,0-1.676-0.363-2.107-1.169c-0.241,0.768-1.156,1.169-2.017,1.169c-0.52,0-1.106-0.12-1.571-0.363l0.035-1.694c0.586,0.644,1.121,0.887,1.517,0.887c0.19,0,0.4-0.042,0.415-0.162c0-0.081,0-0.119-0.26-0.281l-0.741-0.367c-0.415-0.201-0.881-0.525-0.861-1.25c-0.14,0-0.33,0.039-0.5,0.243c-0.225,0.201-0.33,0.563-0.365,1.088c-0.031,0.448-0.066,1.254,0.019,1.86h-3.763l-0.031-0.282c-0.019-0.243-0.089-0.606-0.159-0.891c-0.31,0.042-0.981,0.042-1.241,0.042c-0.12,0.363-0.24,0.849-0.275,1.13h-1.882c0,0,0.14-0.243,0.209-0.405c0.535-1.169,1.086-2.828,1.482-3.916c0.225-0.687,0.225-1.011,0.209-1.173c-0.019-0.12-0.054-0.243-0.07-0.282l2.413-0.363l0.846,3.797c0.124,0.482,0.276,1.088,0.415,1.536c0.035-0.324,0.05-0.687,0.07-1.011v-0.081l0.035-0.648c0.035-0.606,0.016-1.292-0.105-1.775l1.707-0.081c0.035,0.081,0.07,0.282,0.089,0.324c0.551-0.525,0.997-0.525,1.412-0.448l-0.016,0.367c0.101-0.081,0.206-0.162,0.326-0.243c0.45-0.243,0.966-0.282,1.242-0.282c0.52,0,0.881,0.077,1.141,0.201l-0.035,1.292c-0.345-0.201-0.776-0.363-1.086-0.363c-0.225,0-0.396,0.081-0.415,0.162c0,0.039,0.019,0.077,0.19,0.159h0.035l0.726,0.366c0.241,0.081,0.446,0.239,0.601,0.401c0.019-0.645,0.225-1.211,0.64-1.613c0.396-0.405,1.001-0.648,1.587-0.648c0.431,0,0.846,0.12,1.172,0.324c0.415,0.324,0.64,0.768,0.726,1.169c-0.016-0.282-0.12-1.088-0.19-1.374l1.587,0.081l0.07,0.162c0.019,0.042,0.035,0.081,0.054,0.124c0.31-0.204,0.656-0.324,1.032-0.324c0.846,0,1.401,0.563,1.432,1.413l0.054,1.335v0.039c0.155-0.401,0.5-0.768,1.051-1.011c0.365-0.158,0.691-0.239,0.985-0.282c-0.07-0.162-0.225-0.243-0.47-0.243c-0.31,0-0.566,0.081-0.912,0.286l-0.415,0.239l-0.105-1.451c0.4-0.124,1.055-0.162,1.311-0.162c1.556,0,2.262,0.563,2.367,1.856l0.066,0.81c0.054,0.606,0.12,1.007,0.26,1.331l0.07,0.162v-0.039c0-0.524-0.035-1.011-0.086-1.455l-0.279-2.546c-0.066-0.525-0.171-1.292-0.326-1.817l1.827,0.324l0.501,3.958c0.054,0.563,0.155,1.292,0.31,1.817h-3.553V16.167z"/><path fill="#023474" d="M32.675,14.47c0,0-0.019-0.162-0.035-0.363c-0.52,0.162-0.57,0.405-0.586,0.567c0.016,0.158,0.085,0.401,0.411,0.401c0.089-0.039,0.175-0.039,0.24-0.081c-0.015-0.12-0.015-0.239-0.031-0.363L32.675,14.47L32.675,14.47z"/><path fill="#fff" d="M36.895,6.558l-0.05-0.197l-0.19-0.071c-3.607-1.357-7.851-2.09-12.291-2.126l-0.729-0.001v0.001C19.192,4.2,14.948,4.934,11.34,6.29l-0.19,0.07L11.1,6.557c-4.346,17.219-0.37,28.973,12.512,36.97l0.384,0.228l0.391-0.228C37.267,35.532,41.241,23.778,36.895,6.558z M33.086,16.167c0,0-0.006-0.01-0.016-0.026c-0.028-0.047-0.085-0.146-0.085-0.175c-0.241,0.162-0.555,0.32-0.966,0.32c-0.432,0-0.785-0.122-1.057-0.333c-0.163-0.126-0.304-0.277-0.394-0.474c0.016,0.12,0.07,0.525,0.085,0.687H28.74c0.035-0.222,0.052-0.525,0.059-0.843c0.003-0.159,0.003-0.322,0.002-0.48c-0.001-0.08-0.003-0.151-0.005-0.228s-0.003-0.157-0.005-0.228l-0.051-1.211c-0.019-0.32-0.175-0.32-0.26-0.282c-0.085,0-0.155,0-0.225,0.081c-0.05,0.039-0.085,0.162-0.085,0.243c0,0,0.014,0.457,0.024,0.79c0.002,0.067,0.004,0.128,0.006,0.181c0.003,0.104,0.005,0.17,0.005,0.16c0.002,0.07,0.006,0.149,0.01,0.224c0.022,0.524,0.075,1.134,0.181,1.593H26.41c0.005-0.031,0.011-0.082,0.017-0.143c0.018-0.185,0.038-0.464,0.038-0.586c-0.485,0.528-1.036,0.768-1.777,0.767c-0.692,0-1.38-0.27-1.844-0.821c-0.093-0.11-0.191-0.214-0.263-0.349c-0.045,0.144-0.12,0.271-0.208,0.389c-0.38,0.512-1.11,0.781-1.809,0.781c-0.52,0-1.106-0.12-1.571-0.363l0,0l0,0l0.035-1.694c0.586,0.644,1.121,0.887,1.517,0.887c0.19,0,0.4-0.042,0.415-0.162c0-0.041,0-0.07-0.032-0.11c-0.033-0.04-0.098-0.09-0.228-0.171l-0.741-0.367c-0.38-0.184-0.786-0.487-0.839-1.092c-0.005-0.055-0.024-0.097-0.023-0.158c-0.14,0-0.33,0.039-0.5,0.243c-0.113,0.1-0.195,0.241-0.254,0.422s-0.094,0.403-0.111,0.666c-0.016,0.224-0.032,0.538-0.034,0.871s0.011,0.687,0.053,0.989l0,0l0,0h-3.763l-0.031-0.282c-0.005-0.061-0.02-0.142-0.03-0.215c-0.017-0.121-0.036-0.237-0.063-0.369c-0.021-0.105-0.042-0.212-0.066-0.308c-0.31,0.042-0.981,0.042-1.241,0.042c-0.09,0.272-0.18,0.613-0.235,0.886c-0.018,0.091-0.032,0.174-0.041,0.245h-1.882c0,0,0.009-0.015,0.023-0.041c0.043-0.076,0.134-0.243,0.187-0.365c0.268-0.584,0.539-1.292,0.793-1.988c0.254-0.697,0.491-1.384,0.689-1.928c0.169-0.515,0.211-0.826,0.215-1.018c0.001-0.064-0.002-0.115-0.005-0.155c-0.005-0.03-0.012-0.057-0.018-0.085c-0.019-0.087-0.04-0.167-0.052-0.196l0,0l0,0l2.413-0.363l0.507,2.278l0.338,1.519c0.124,0.482,0.276,1.088,0.415,1.536c0.018-0.162,0.03-0.334,0.041-0.505c0.011-0.172,0.019-0.344,0.029-0.506v-0.081l0,0l0.035-0.648c0.009-0.151,0.014-0.308,0.015-0.465c0.002-0.314-0.012-0.63-0.048-0.914c-0.018-0.142-0.042-0.275-0.072-0.396l1.707-0.081c0.035,0.081,0.07,0.282,0.089,0.324c0.276-0.263,0.525-0.394,0.757-0.45s0.448-0.037,0.655,0.002l-0.016,0.367c0.101-0.081,0.206-0.162,0.326-0.243c0.45-0.243,0.966-0.282,1.242-0.282c0.52,0,0.881,0.077,1.141,0.201l0,0l0,0l-0.035,1.292c-0.345-0.201-0.776-0.363-1.086-0.363c-0.225,0-0.396,0.081-0.415,0.162c0,0.027,0.03,0.06,0.095,0.102c0.028,0.018,0.044,0.033,0.095,0.057h0.035l0.435,0.22l0.29,0.146c0.241,0.081,0.446,0.239,0.601,0.401c0.01-0.322,0.066-0.625,0.172-0.897s0.261-0.515,0.468-0.715c0.396-0.405,1.001-0.648,1.587-0.648c0.431,0,0.846,0.12,1.172,0.324c0.104,0.081,0.196,0.169,0.276,0.263c0.242,0.28,0.385,0.605,0.449,0.906c-0.012-0.211-0.074-0.717-0.133-1.078c-0.02-0.12-0.04-0.224-0.057-0.295l0,0l0,0l1.587,0.081l0.07,0.162c0.019,0.042,0.035,0.081,0.054,0.124c0.31-0.204,0.656-0.324,1.032-0.324c0.564,0,0.98,0.267,1.216,0.685c0.118,0.209,0.205,0.444,0.215,0.728l0.054,1.335l0,0v0.039c0.155-0.401,0.5-0.768,1.051-1.011c0.365-0.158,0.69-0.239,0.985-0.282c-0.07-0.162-0.225-0.243-0.469-0.243c-0.31,0-0.566,0.081-0.912,0.286l-0.415,0.239l-0.06-0.829l-0.045-0.622l0,0l0,0c0.4-0.124,1.055-0.162,1.311-0.162c1.232,0,1.924,0.36,2.214,1.149c0.076,0.208,0.131,0.438,0.153,0.708l0.066,0.81c0.041,0.454,0.088,0.793,0.168,1.072c0.027,0.092,0.057,0.178,0.092,0.259l0.07,0.162v-0.039c0-0.437-0.028-0.841-0.065-1.222c-0.007-0.076-0.012-0.158-0.021-0.232l-0.14-1.273l-0.14-1.273c-0.049-0.394-0.121-0.924-0.219-1.386c-0.033-0.154-0.068-0.3-0.107-0.432l1.827,0.324l0.334,2.639l0.167,1.319c0.007,0.07,0.017,0.149,0.025,0.224c0.058,0.524,0.15,1.134,0.286,1.593L33.086,16.167L33.086,16.167z"/><path fill="#9c824a" d="M13.897,21.029h-0.023h-0.101v0.018c-0.51,0.067-0.939,0.546-1.131,1.217c-0.057-0.014-0.111-0.038-0.172-0.038c-0.458,0-0.83,0.409-0.83,0.918c0,0.509,0.372,0.918,0.83,0.918c0.082,0,0.157-0.027,0.232-0.052c0.213,0.583,0.607,0.987,1.072,1.045v0.017h3.538c0.279-1.343,0.966-2.77,2.681-4.043H13.897z"/><path fill="#9c824a" d="M23.935,32.91c-3.638,0-6.597-2.945-6.597-6.564s2.959-6.564,6.597-6.564c3.639,0,6.6,2.945,6.6,6.564S27.573,32.91,23.935,32.91z"/><path fill="#fff" d="M23.934,19.906c3.577,0,6.475,2.882,6.475,6.439c0,3.558-2.898,6.439-6.475,6.439c-3.573,0-6.471-2.882-6.471-6.439C17.463,22.792,20.361,19.906,23.934,19.906 M23.934,19.656c-3.706,0-6.721,3.001-6.721,6.689s3.015,6.689,6.721,6.689c3.708,0,6.725-3.001,6.725-6.689S27.642,19.656,23.934,19.656L23.934,19.656z"/><path fill="#fff" d="M29.33,26.404c0,2.953-2.406,5.346-5.376,5.346c-2.966,0-5.372-2.393-5.372-5.346l0,0c0-2.953,2.406-5.346,5.372-5.346C26.924,21.058,29.33,23.451,29.33,26.404L29.33,26.404L29.33,26.404z"/><path fill="#9c824a" d="M28.978,26.346c0,2.77-2.258,5.012-5.044,5.012c-2.782,0-5.04-2.242-5.04-5.012l0,0c0-2.77,2.258-5.012,5.04-5.012C26.72,21.334,28.978,23.575,28.978,26.346L28.978,26.346L28.978,26.346z"/><path fill="#ef0107" d="M23.267,28.18c-0.22-0.092-0.421-0.218-0.636-0.397l-0.095,0.115l-0.08-0.126l-2.634,1.702l0.109,0.133c0.864,1.053,1.958,1.67,3.252,1.836l0.171,0.022l0.008-3.144l0.001-0.102L23.267,28.18z"/><path fill="#db0007" d="M25.409 27.784l-.08.125-.093-.117c-.211.167-.4.299-.637.395l-.096.039.005 3.248.171-.022c1.294-.166 2.388-.784 3.252-1.837l.109-.132L25.409 27.784zM26.01 26.666h-.008l2.565 1.651c.252-.622.431-1.27.407-2.006L26.01 26.666z"/><path fill="#fff" d="M26.014,26.654c0.012-0.046,0.008-0.089,0.027-0.224l2.925-0.378c0.012,0.135,0.004,0.185,0,0.247L26.014,26.654L26.014,26.654z"/><path fill="#9c824a" d="M28.027,20.986l12.799,0.012l-0.489,2.967l-9.932,0.486C30.013,22.977,29.117,21.901,28.027,20.986L28.027,20.986z"/><path fill="#9c824a" d="M30.343,24.204h3.534c-0.116,0.401-0.198,0.768-0.718,0.949c-0.826,0.293-2.491,0.525-2.491,0.525C30.599,25.196,30.498,24.706,30.343,24.204L30.343,24.204z"/><path fill="#fff" d="M22.01 11.885c-.171-.039-.431-.12-.846-.12-.326 0-.757.081-1.086.243-.38.243-.656.563-.671.93-.035.563.26.806.691 1.007.291.162.57.324.741.405.225.12.431.243.415.525-.019.282-.279.486-.71.486-.361 0-.877-.243-1.242-.567l-.016.849c.31.162.811.243 1.276.243.791 0 1.777-.363 1.792-1.254.019-.687-.465-.93-.756-1.088-.295-.123-.59-.285-.725-.324-.14-.081-.415-.162-.396-.486.031-.282.361-.405.706-.405.291 0 .586.081.811.204M14.922 10.391l-1.831.243c.035.243-.035.725-.225 1.293-.376 1.088-.997 2.905-1.482 3.959h1.141c.066-.366.151-.687.326-1.13l1.692-.042c.066.324.19.849.206 1.173h1.536c-.19-.448-.431-1.374-.586-2.022L14.922 10.391 14.922 10.391zM13.09 14.065l.83-2.381.501 2.342M19.302 11.885l-.035.81c-.275-.042-.621.039-.896.32-.241.243-.396.606-.431 1.254-.035.525-.051 1.131-.019 1.617h-1.292c.085-.486.12-1.05.136-1.578l.035-.644c.035-.525.035-1.05-.05-1.536l1.141-.039c.051.162.085.444.066.725C18.456 12.047 18.941 11.885 19.302 11.885M35.573 10.635l-1.176-.204c.12.529.155.891.225 1.416l.276 2.543c.054.525.105 1.011.089 1.497h1.276c-.124-.486-.175-.972-.225-1.497M30.308 15.886c-.066-.486-.101-.972-.12-1.497l-.05-1.331c-.035-.729-.45-1.13-1.141-1.13-.376 0-.826.12-1.207.606-.016-.123-.07-.444-.14-.606l-1.032-.042c.085.486.12.968.136 1.493l.019 1.011c.016.525 0 1.011-.035 1.497h1.292c-.066-.486-.101-.972-.12-1.497l-.035-1.13c-.016-.405.295-.687.605-.687.361 0 .535.243.551.606l.054 1.211c.016.525.016 1.011-.019 1.497M34.347 15.886c-.155-.405-.24-.891-.275-1.416l-.07-.806c-.07-.968-.481-1.617-2.072-1.617-.275 0-.671.042-.997.12l.05.729c.326-.201.656-.363 1.071-.363.431 0 .791.201.826.806-.415.042-.795.12-1.226.324-.481.201-.982.606-.931 1.25.05.729.605 1.053 1.296 1.053.535 0 .896-.243 1.102-.486.035.162.089.282.14.405L34.347 15.886 34.347 15.886 34.347 15.886zM32.465 15.361c-.38 0-.69-.204-.706-.648 0-.444.275-.806 1.156-.93l.051.687c.019.243.019.405.054.606C32.896 15.238 32.69 15.319 32.465 15.361M25.548 12.008c-.295-.204-.64-.286-1.001-.286-.846 0-1.967.606-1.932 2.141.016 1.574 1.226 2.06 2.072 2.06.741 0 1.191-.282 1.552-.644l-.26-.367c-.19.162-.5.405-1.001.405-.535-.039-.877-.405-1.067-.968l2.343-.849C26.184 12.734 25.909 12.29 25.548 12.008L25.548 12.008zM24.737 13.501l-.931.363c-.019-.162-.035-.324-.035-.525 0-.93.516-1.092.69-1.092.276-.039.516.123.605.448C25.168 13.058 25.133 13.382 24.737 13.501"/><path fill="#db0007" d="M24.772,12.776c0.035,0.12,0.05,0.201,0.05,0.239c0,0.162-0.085,0.205-0.19,0.205v0.039c0,0-0.291,0.081-0.566,0.205c0-0.042,0-0.081,0-0.124c0-0.563,0.206-0.807,0.411-0.807C24.547,12.533,24.702,12.49,24.772,12.776z M24.003,19.557c1.399,0.014,2.697,0.441,3.774,1.171l9.961,0.011c0.226-4.364-0.314-9.182-1.637-14.489l-0.052-0.205L35.85,5.976c-3.393-1.173-7.599-1.819-11.843-1.819l-0.002,7.358c0.179-0.044,0.36-0.075,0.542-0.075c0.431,0,0.846,0.12,1.172,0.324c0.415,0.324,0.64,0.768,0.726,1.169c-0.016-0.282-0.12-1.088-0.19-1.374l1.587,0.081l0.07,0.162c0.019,0.042,0.035,0.081,0.054,0.124c0.31-0.204,0.656-0.324,1.032-0.324c0.846,0,1.401,0.563,1.432,1.413l0.054,1.335v0.039c0.155-0.401,0.5-0.768,1.051-1.011c0.365-0.158,0.691-0.239,0.985-0.282c-0.07-0.162-0.225-0.243-0.47-0.243c-0.31,0-0.566,0.081-0.912,0.286l-0.415,0.239l-0.105-1.451c0.4-0.124,1.055-0.162,1.311-0.162c1.556,0,2.262,0.563,2.367,1.856l0.066,0.81c0.054,0.606,0.12,1.007,0.26,1.331l0.07,0.162v-0.039c0-0.524-0.035-1.011-0.086-1.455l-0.279-2.546c-0.066-0.525-0.171-1.292-0.326-1.817l1.827,0.324l0.501,3.958c0.054,0.563,0.155,1.292,0.31,1.817h-3.554c0,0-0.101-0.162-0.101-0.201c-0.241,0.162-0.555,0.32-0.966,0.32c-0.691,0-1.21-0.282-1.451-0.807c0.016,0.12,0.07,0.525,0.085,0.687h-1.913c0.07-0.444,0.07-1.211,0.051-1.779l-0.051-1.211c-0.019-0.32-0.175-0.32-0.26-0.282c-0.085,0-0.155,0-0.225,0.081c-0.05,0.039-0.085,0.162-0.085,0.243c0,0,0.035,1.169,0.035,1.13c0.015,0.563,0.07,1.292,0.19,1.817h-1.986c0.019-0.124,0.054-0.567,0.054-0.729c-0.485,0.528-1.036,0.768-1.777,0.767c-0.23,0-0.459-0.035-0.683-0.093L24.003,19.557z M24.978,15.037c0.431,0,0.69-0.205,1.055-0.525l0.446,0.563v-0.687c0,0-0.016-0.363-0.016-0.687c-0.4,0.162-1.796,0.687-2.157,0.81C24.427,14.794,24.632,14.995,24.978,15.037z M34.075,24.562c-0.11,0.32-0.278,0.608-0.682,0.758c-0.796,0.297-2.353,0.582-2.646,0.634c0.008,0.13,0.02,0.26,0.02,0.393c0,3.732-3.022,6.756-6.767,6.791l-0.003,10.619c7.572-4.77,11.997-11.166,13.343-19.354L34.075,24.562z M32.64,14.107c-0.52,0.162-0.57,0.405-0.586,0.567c0.016,0.158,0.085,0.401,0.411,0.401c0.089-0.039,0.175-0.039,0.24-0.081c-0.015-0.12-0.015-0.239-0.031-0.363V14.47C32.675,14.47,32.655,14.308,32.64,14.107z"/><path fill="#9c824a" d="M18.413,30.355c-1.73,1.181-4.14,2.002-6.898,2.404l-0.563-0.849c2.363-0.88,4.644-2.192,6.413-4.036C17.634,29.054,18.041,29.838,18.413,30.355L18.413,30.355z"/><path fill="#ef0107" d="M18.576 30.546l-.022.015c-1.35.921-3.118 1.634-5.173 2.102 2.29 4.377 5.817 8.064 10.622 11.092l.001-10.619c-.024 0-.047.003-.071.003C21.759 33.14 19.828 32.122 18.576 30.546zM14.056 13.744l-.206-.93-.345.969C13.506 13.783 13.889 13.806 14.056 13.744z"/><path fill="#ef0107" d="M21.191,12.613c-0.225,0-0.396,0.081-0.415,0.162c0,0.039,0.019,0.077,0.19,0.159h0.035l0.726,0.366c0.241,0.081,0.446,0.239,0.601,0.401c0.019-0.645,0.225-1.211,0.64-1.613c0.272-0.278,0.644-0.472,1.039-0.571l0.001-7.36c-4.246,0-8.451,0.646-11.839,1.819L11.97,6.045L11.919,6.25c-2.456,9.849-2.251,18.031,0.633,24.704c0.58-0.276,1.129-0.575,1.651-0.894c0.124-0.077,0.247-0.153,0.37-0.234c0.443-0.287,0.871-0.585,1.269-0.904c0.017-0.013,0.034-0.024,0.05-0.037c0.462-0.374,0.894-0.769,1.293-1.185l0.047-0.049c-0.083-0.423-0.131-0.858-0.131-1.306c0-0.349,0.036-0.688,0.088-1.023h-3.417l-0.25-0.017v-0.051c-0.392-0.127-0.732-0.457-0.957-0.927c-0.03-0.001-0.055-0.014-0.084-0.017c-0.004,0-0.008,0.001-0.012,0.001c-0.06,0-0.112-0.027-0.169-0.037c-0.056-0.015-0.117-0.015-0.17-0.037c-0.428-0.155-0.741-0.58-0.741-1.094c0-0.645,0.485-1.168,1.08-1.168c0.002,0,0.003,0,0.005,0c0.175-0.46,0.459-0.807,0.797-1.004c0.048-0.03,0.098-0.051,0.148-0.072c0.035-0.015,0.068-0.039,0.104-0.051l0.25-0.069h0.124h6.095h0.036c1.108-0.771,2.452-1.228,3.905-1.228c0.025,0,0.048,0.005,0.072,0.005V16.11c-0.58-0.151-1.108-0.494-1.419-1.075c-0.241,0.768-1.156,1.169-2.017,1.169c-0.52,0-1.106-0.12-1.571-0.363l0.035-1.694c0.586,0.644,1.121,0.887,1.517,0.887c0.19,0,0.4-0.042,0.415-0.162c0-0.081,0-0.119-0.26-0.281l-0.741-0.367c-0.415-0.201-0.881-0.525-0.861-1.25c-0.14,0-0.33,0.039-0.5,0.243c-0.225,0.201-0.33,0.563-0.365,1.088c-0.031,0.448-0.066,1.254,0.019,1.86h-3.763l-0.031-0.282c-0.019-0.243-0.089-0.606-0.159-0.891c-0.31,0.042-0.981,0.042-1.241,0.042c-0.12,0.363-0.24,0.849-0.275,1.13h-1.882c0,0,0.14-0.243,0.209-0.405c0.535-1.169,1.086-2.828,1.482-3.916c0.225-0.687,0.225-1.011,0.209-1.173c-0.019-0.12-0.054-0.243-0.07-0.282l2.413-0.363l0.846,3.797c0.124,0.482,0.276,1.088,0.415,1.536c0.035-0.324,0.05-0.687,0.07-1.011v-0.081l0.035-0.648c0.035-0.606,0.016-1.292-0.105-1.775l1.707-0.081c0.035,0.081,0.07,0.282,0.089,0.324c0.551-0.525,0.997-0.525,1.412-0.448l-0.016,0.367c0.101-0.081,0.206-0.162,0.326-0.243c0.45-0.243,0.966-0.282,1.242-0.282c0.52,0,0.881,0.077,1.141,0.201l-0.035,1.292C21.932,12.775,21.501,12.613,21.191,12.613z"/><path fill="#fff" d="M26.037,26.346c0.004,1.154-0.939,2.091-2.099,2.095c-1.164,0-2.107-0.937-2.107-2.091v-0.004c0-1.154,0.939-2.091,2.103-2.091c1.16-0.004,2.103,0.934,2.103,2.087C26.037,26.346,26.037,26.346,26.037,26.346L26.037,26.346z"/><path fill="#9c824a" d="M25.789,26.346c0,1.019-0.827,1.844-1.851,1.844s-1.854-0.822-1.858-1.84v-0.004c0-1.019,0.83-1.844,1.854-1.844s1.855,0.822,1.855,1.84V26.346L25.789,26.346z"/><path fill="#fff" d="M24.888,26.346c0,0.521-0.427,0.945-0.954,0.949c-0.524,0-0.951-0.424-0.951-0.949l0,0c0-0.525,0.427-0.945,0.951-0.949C24.462,25.397,24.888,25.821,24.888,26.346L24.888,26.346L24.888,26.346z"/><path fill="#9c824a" d="M24.625,26.346c0,0.378-0.307,0.687-0.691,0.687c-0.38,0-0.691-0.305-0.691-0.687l0,0c0-0.378,0.31-0.687,0.691-0.687C24.314,25.659,24.625,25.964,24.625,26.346L24.625,26.346L24.625,26.346z"/><path fill="#fff" d="M23.209 21.218H24.644V24.548000000000002H23.209z"/><path fill="#9c824a" d="M23.434 20.74H24.423000000000002V24.973H23.434z"/><path fill="#fff" d="M27.934 23.097L28.718 24.293 25.909 26.107 25.129 24.91zM21.921 26.616L22.689 27.82 19.86 29.602 19.092 28.394z"/><path fill="#9c824a" d="M22.402 26.546L22.933 27.38 19.341 29.645 18.809 28.811z"/><path fill="#fff" d="M19.216 24.019L20.004 22.827 22.805 24.648 22.017 25.844z"/><path fill="#9c824a" d="M18.956 23.61L19.5 22.784 23.057 25.103 22.514 25.929z"/><path fill="#fff" d="M25.195 27.816L25.982 26.62 28.784 28.445 27.996 29.641z"/><path fill="#9c824a" d="M24.935 27.407L25.478 26.581 29.036 28.9 28.493 29.722zM28.458 23.024L28.997 23.849 25.428 26.157 24.888 25.327z"/><path fill="#fff" d="M23.209 28.256H24.644V31.586H23.209z"/><path fill="#9c824a" d="M23.434 27.844H24.423000000000002V32.073H23.434z"/></svg>