<svg xmlns="http://www.w3.org/2000/svg"  viewBox="0 0 48 48" width="1600px" height="1600px"><path d="M43.8,23.6C38.9,18.3,38.3,13,42.1,8l0.1-0.2l-1.9-2.6l-0.2,0.1c-3.3,1.2-7.2,0.8-9.9-1.2L30,4l-0.2,0.1c-4,2.8-7.8,2.8-11.7,0L18,4l-0.2,0.1c-3,2.2-7.3,2.3-9.9,1.2L7.8,5.2l-2,2.7L5.9,8c3.8,5.1,3.3,10.2-1.7,15.6L4,23.8l2,2C5.8,35.2,10.9,40.7,21,41.5L24,44l3.1-2.5c2.2-0.1,6.3-0.7,9.7-3.3c3.6-2.8,5.4-6.9,5.3-12.4l2-2L43.8,23.6z"/><path fill="#0D47A1" d="M39.1,25.9H9c-0.4,3.5,0.4,6.3,2.2,8.5c2.1,2.5,5.7,4,10.2,4.4l5.2,0c4.4-0.2,7.9-1.7,10.1-4.2C38.6,32.3,39.4,29.4,39.1,25.9z M28.5,32.1c0,1.2-0.5,2.3-1.3,3.1c-0.8,0.8-2,1.3-3.1,1.3c0,0,0,0,0,0c-2.5,0-4.4-2-4.4-4.4c0-1.2,0.5-2.3,1.3-3.1c0.8-0.8,2-1.3,3.1-1.3c0,0,0,0,0,0c1.2,0,2.3,0.5,3.1,1.3C28.1,29.9,28.5,31,28.5,32.1L28.5,32.1z"/><path fill="#FFC107" d="M29 23.2l-1.1 0 0 .9 1.1 0C29.4 24 29.5 23.4 29 23.2zM28.9 21.8h-1.1v.7h1.1C29.2 22.4 29.4 21.9 28.9 21.8z"/><path fill="#C62828" d="M35.2,35.9c-1.2,0.9-2.7,1.7-4.4,2.1h-0.1V25.9h4.5V35.9z M17.3,38V25.9h-4.5v10C14.1,36.8,15.6,37.5,17.3,38L17.3,38z M24.1,36.5C24.1,36.5,24.1,36.5,24.1,36.5c-0.8,0-1.6-0.2-2.3-0.6v2.8l4.5,0v-2.7C25.6,36.3,24.9,36.5,24.1,36.5z M24.1,27.7C24.1,27.7,24.1,27.7,24.1,27.7c0.8,0,1.5,0.2,2.2,0.6v-2.5h-4.5v2.5C22.5,28,23.2,27.7,24.1,27.7z"/><path fill="#FFC107" d="M21.2,29.6c-0.3,1.2-0.3,2.5,0.5,3.3c-0.3,0.4-0.6,0.5-1.2,0.6c-0.2-0.4-0.3-0.9-0.3-1.4C20.2,31.2,20.5,30.3,21.2,29.6z M21.6,35.1c2.2-0.2,3.5-0.9,4-2.1c-0.1-0.5-0.4-0.8-0.6-0.9c-0.2-0.1-0.4,0-0.7,0.1c-0.1,0.3-0.5,1-1.1,1.2c-0.1,0-0.2,0.1-0.4,0.1c-0.2,0-0.5-0.1-0.7-0.2c0,0,0,0-0.1-0.1c-0.4,0.5-0.8,0.7-1.3,0.8C21,34.5,21.3,34.8,21.6,35.1z M23.3,28.4c-0.5,0.1-1,0.3-1.4,0.6c-0.5,1.9-0.6,3.2,0.5,3.9c0.2,0.1,0.4,0.1,0.6,0.1c0.3-0.1,0.6-0.5,0.7-0.7c-0.5-0.4-1.1-1.1-0.2-2.4C23.2,29.2,23.2,28.7,23.3,28.4z M27.9,31.4c-0.1-0.7-0.5-1.4-1.1-2c-0.7-0.7-1.7-1.1-2.7-1.1c-0.4,0.3-0.4,0.7,0,1.2C25.6,29.2,27,30.3,27.9,31.4z M27.9,32.4c-0.6-1-2.1-2.8-3.8-2.4c-0.8,0.9-0.4,1.3,0,1.7c0.5-0.3,0.9-0.2,1.2-0.1c0.4,0.2,0.7,0.5,0.9,1.1c0.3-0.1,0.6,0,0.9,0.1c0.3,0.1,0.5,0.3,0.7,0.5C27.8,33.1,27.9,32.8,27.9,32.4z M24.1,36c1,0,2-0.4,2.7-1.1c0.3-0.3,0.5-0.5,0.6-0.9c-0.1-0.3-0.3-0.5-0.6-0.6c-0.2-0.1-0.4-0.1-0.6-0.1c-0.6,1.2-1.8,2-3.8,2.3C22.9,35.8,23.5,36,24.1,36C24.1,36,24.1,36,24.1,36z"/><path fill="#FFC107" d="M42.6,23.8L42.6,23.8c-4.6-5-5.1-11.1-1.6-15.9L41,7.9L40,6.4l-0.1,0c-3.3,1.1-7.3,0.6-9.7-1.2l-0.1-0.1L30,5.3c-3.8,2.7-8.2,2.7-11.9,0L18,5.2l-0.1,0.1c-2.8,2-7.2,2.2-9.6,1.2l-0.1,0L7,7.9l0.1,0.1c5.3,7.3,0.1,13.9-1.6,15.8l-0.1,0.1l1.6,1.7c-0.3,4.3,0.7,7.8,3,10.4c2.5,2.8,6.4,4.4,11.3,4.7l2.6,2.2l2.6-2.2c1.7,0,7.5-0.5,11.3-4.6c2.4-2.6,3.4-6.1,3-10.5L42.6,23.8z M9.4,20.1C11.2,16,11,12,8.9,8.5L8.6,8l0.6,0.1c3.5,0.5,6.1,0.1,8.6-1.2L18,6.8l0.1,0.1c3.9,2.2,7.8,2.2,11.8,0l0.1-0.1l0.1,0.1c2.1,1.3,4.4,1.7,8.5,1.3l0.5,0L39,8.6c-2.1,3.5-2.2,7.6-0.4,11.5l0.2,0.4l-29.4,0L9.4,20.1z M29.2,24.9l-2.2,0l0-3.9l2.1,0c1.1,0.2,1.2,1.3,0.6,1.8C30.8,23.7,29.9,24.8,29.2,24.9z M23,23.6c0.2,0.3,0.5,0.5,0.8,0.5c0.3,0,0.5-0.2,0.6-0.5l0,0l0.8,0.4l0,0c-0.2,0.6-0.8,1-1.4,1c-0.1,0-0.2,0-0.3,0c-0.5-0.1-1-0.4-1.3-0.8c-0.4-0.6-0.4-1.5-0.1-2.4c0.3-0.6,0.8-0.9,1.5-0.9c0,0,0,0,0,0c0.7,0,1.3,0.4,1.6,0.9l0,0l-0.8,0.4l0,0c-0.2-0.3-0.5-0.4-0.7-0.4c0,0,0,0,0,0c-0.3,0-0.5,0.2-0.7,0.4C22.7,22.8,22.8,23.3,23,23.6z M19.5,22.4v0.8h-1.2v1.6h-0.8v-1.6v-0.8V21h0.8v0h2.1v0.8h-2v0.6H19.5z M37.1,34.9c-2.3,2.6-5.9,4.1-10.5,4.4l-5.2,0c-4.8-0.3-8.4-1.9-10.7-4.6c-2-2.3-2.7-5.4-2.3-9.1l0-0.3h31.1l0,0.3C40,29.4,39.1,32.5,37.1,34.9z"/><path fill="#FFF" d="M23.7,20V9.1c-1.9,0-3.9-0.6-5.8-1.7c-2.4,1.3-5,1.7-8.2,1.3c1.8,3.4,2,7.3,0.4,11.2L23.7,20z"/><path fill="#FFEB3B" d="M38.2,8.8c-3.7,0.3-6.1-0.1-8.2-1.3c-1.9,1.1-3.9,1.6-5.8,1.7V20l13.5,0C36.2,16.2,36.4,12.2,38.2,8.8z"/><path fill="#FF1744" d="M36.2,20l-1.6,0V8.8c0.5,0,1,0.1,1.6,0.1V20z M27.1,8.7C26.5,8.8,26,9,25.5,9V20l1.6,0V8.7z M33.2,8.6c-0.6-0.1-1.1-0.3-1.6-0.4V20l1.6,0V8.6z M30.1,7.5C30.1,7.5,30.1,7.5,30.1,7.5C29.5,7.7,29,8,28.5,8.2V20l1.6,0V7.5z M23.7,12.1h-4.2V8.2c-0.5-0.2-1-0.5-1.5-0.8c-0.9,0.5-1.8,0.8-2.8,1.1v3.5h-4.2c0.3,1.4,0.3,2.8,0.1,4.3h4.1V20l4.3,0v-3.6h4.2V12.1z"/></svg>