<svg xmlns="http://www.w3.org/2000/svg"  viewBox="0 0 48 48" width="1600px" height="1600px"><path fill="#0d47a1" d="M24.18,43.15C8.1,34.522,7.723,13.742,7.754,10.784c1.191-0.874,5.828-4.258,8.387-6.124 C18.196,6.632,21.022,7.75,24,7.75c2.975,0,5.799-1.116,7.853-3.084c5.35,3.907,7.484,5.464,8.393,6.082 C40.28,13.567,39.979,34.493,24.18,43.15z"/><path fill="#ffca28" d="M16.09,5.626C18.234,7.466,21.049,8.5,24,8.5c2.948,0,5.76-1.032,7.904-2.868l5.264,3.843 c1.088,0.794,1.82,1.328,2.33,1.687c-0.014,3.88-0.843,22.898-15.321,31.132C9.387,34.064,8.521,15.05,8.503,11.165 C9.365,10.534,11.415,9.036,16.09,5.626 M16.223,3.672c-4.475,3.265-9.218,6.726-9.211,6.728c0,0-1.061,24.15,17.172,33.6 c17.854-9.444,16.806-33.568,16.804-33.6h0c-0.011,0-4.748-3.458-9.217-6.722C29.907,5.708,27.119,7,24,7 C20.878,7,18.088,5.705,16.223,3.672L16.223,3.672z M40.988,10.4L40.988,10.4L40.988,10.4L40.988,10.4z"/><polygon fill="#ffca28" points="13.208,24.781 13.425,25.467 14.145,25.462 13.559,25.88 13.787,26.562 13.208,26.135 12.63,26.562 12.857,25.88 12.272,25.462 12.991,25.467"/><polygon fill="#ffca28" points="11.042,14.5 11.259,15.186 11.978,15.18 11.393,15.598 11.62,16.281 11.042,15.854 10.463,16.281 10.691,15.598 10.105,15.18 10.825,15.186"/><polygon fill="#ffca28" points="13.861,14.5 14.078,15.186 14.797,15.18 14.212,15.598 14.439,16.281 13.861,15.854 13.282,16.281 13.51,15.598 12.925,15.18 13.644,15.186"/><polygon fill="#ffca28" points="16.68,14.5 16.897,15.186 17.616,15.18 17.031,15.598 17.259,16.281 16.68,15.854 16.101,16.281 16.329,15.598 15.744,15.18 16.463,15.186"/><polygon fill="#ffca28" points="19.499,14.5 19.716,15.186 20.435,15.18 19.85,15.598 20.078,16.281 19.499,15.854 18.92,16.281 19.148,15.598 18.563,15.18 19.282,15.186"/><polygon fill="#ffca28" points="22.318,14.5 22.535,15.186 23.254,15.18 22.669,15.598 22.897,16.281 22.318,15.854 21.74,16.281 21.967,15.598 21.382,15.18 22.101,15.186"/><polygon fill="#ffca28" points="25.137,14.5 25.354,15.186 26.073,15.18 25.488,15.598 25.716,16.281 25.137,15.854 24.559,16.281 24.786,15.598 24.201,15.18 24.92,15.186"/><polygon fill="#ffca28" points="27.956,14.5 28.173,15.186 28.893,15.18 28.307,15.598 28.535,16.281 27.956,15.854 27.378,16.281 27.605,15.598 27.02,15.18 27.739,15.186"/><polygon fill="#ffca28" points="30.776,14.5 30.993,15.186 31.712,15.18 31.127,15.598 31.354,16.281 30.776,15.854 30.197,16.281 30.424,15.598 29.839,15.18 30.559,15.186"/><polygon fill="#ffca28" points="33.595,14.5 33.812,15.186 34.531,15.18 33.946,15.598 34.173,16.281 33.595,15.854 33.016,16.281 33.244,15.598 32.658,15.18 33.378,15.186"/><polygon fill="#ffca28" points="36.414,14.5 36.631,15.186 37.35,15.18 36.765,15.598 36.992,16.281 36.414,15.854 35.835,16.281 36.063,15.598 35.478,15.18 36.197,15.186"/><polygon fill="#ffca28" points="10.625,12.1 10.842,12.786 11.561,12.78 10.976,13.198 11.204,13.881 10.625,13.454 10.046,13.881 10.274,13.198 9.689,12.78 10.408,12.786"/><polygon fill="#ffca28" points="13.532,12.12 13.749,12.806 14.468,12.8 13.883,13.218 14.111,13.901 13.532,13.474 12.953,13.901 13.181,13.218 12.596,12.8 13.315,12.806"/><polygon fill="#ffca28" points="16.439,12.12 16.656,12.806 17.375,12.8 16.79,13.218 17.018,13.901 16.439,13.474 15.861,13.901 16.088,13.218 15.503,12.8 16.222,12.806"/><polygon fill="#ffca28" points="19.346,12.208 19.563,12.894 20.282,12.889 19.697,13.307 19.925,13.989 19.346,13.562 18.768,13.989 18.995,13.307 18.41,12.889 19.129,12.894"/><polygon fill="#ffca28" points="22.253,12.208 22.47,12.894 23.19,12.889 22.604,13.307 22.832,13.989 22.253,13.562 21.675,13.989 21.902,13.307 21.317,12.889 22.036,12.894"/><polygon fill="#ffca28" points="25.16,12.208 25.377,12.894 26.097,12.889 25.512,13.307 25.739,13.989 25.16,13.562 24.582,13.989 24.809,13.307 24.224,12.889 24.943,12.894"/><polygon fill="#ffca28" points="28.068,12.208 28.285,12.894 29.004,12.889 28.419,13.307 28.646,13.989 28.068,13.562 27.489,13.989 27.716,13.307 27.131,12.889 27.851,12.894"/><polygon fill="#ffca28" points="30.975,12.12 31.192,12.806 31.911,12.8 31.326,13.218 31.553,13.901 30.975,13.474 30.396,13.901 30.624,13.218 30.038,12.8 30.758,12.806"/><polygon fill="#ffca28" points="33.882,12.12 34.099,12.806 34.818,12.8 34.233,13.218 34.46,13.901 33.882,13.474 33.303,13.901 33.531,13.218 32.946,12.8 33.665,12.806"/><polygon fill="#ffca28" points="12.819,9.7 13.036,10.386 13.755,10.38 13.17,10.798 13.398,11.481 12.819,11.054 12.241,11.481 12.468,10.798 11.883,10.38 12.602,10.386"/><polygon fill="#ffca28" points="15.948,9.8 16.165,10.486 16.884,10.48 16.299,10.898 16.526,11.581 15.948,11.154 15.369,11.581 15.597,10.898 15.012,10.48 15.731,10.486"/><polygon fill="#ffca28" points="15.864,7.425 16.081,8.111 16.801,8.105 16.216,8.523 16.443,9.206 15.864,8.779 15.286,9.206 15.513,8.523 14.928,8.105 15.647,8.111"/><polygon fill="#ffca28" points="31.656,7.425 31.873,8.111 32.592,8.105 32.007,8.523 32.235,9.206 31.656,8.779 31.078,9.206 31.305,8.523 30.72,8.105 31.439,8.111"/><polygon fill="#ffca28" points="19.076,9.85 19.293,10.536 20.013,10.53 19.427,10.948 19.655,11.631 19.076,11.204 18.498,11.631 18.725,10.948 18.14,10.53 18.859,10.536"/><polygon fill="#ffca28" points="22.205,9.958 22.422,10.644 23.141,10.639 22.556,11.057 22.784,11.739 22.205,11.312 21.626,11.739 21.854,11.057 21.269,10.639 21.988,10.644"/><polygon fill="#ffca28" points="25.334,9.958 25.551,10.644 26.27,10.639 25.685,11.057 25.912,11.739 25.334,11.312 24.755,11.739 24.983,11.057 24.398,10.639 25.117,10.644"/><polygon fill="#ffca28" points="28.462,9.85 28.679,10.536 29.399,10.53 28.813,10.948 29.041,11.631 28.462,11.204 27.884,11.631 28.111,10.948 27.526,10.53 28.245,10.536"/><polygon fill="#ffca28" points="31.591,9.8 31.808,10.486 32.527,10.48 31.942,10.898 32.17,11.581 31.591,11.154 31.012,11.581 31.24,10.898 30.655,10.48 31.374,10.486"/><polygon fill="#ffca28" points="34.72,9.7 34.937,10.386 35.656,10.38 35.071,10.798 35.298,11.481 34.72,11.054 34.141,11.481 34.369,10.798 33.783,10.38 34.503,10.386"/><polygon fill="#ffca28" points="36.789,12.1 37.006,12.786 37.725,12.78 37.14,13.198 37.367,13.881 36.789,13.454 36.21,13.881 36.438,13.198 35.853,12.78 36.572,12.786"/><polygon fill="#ffca28" points="14.125,27.073 14.342,27.759 15.061,27.753 14.476,28.171 14.704,28.854 14.125,28.427 13.546,28.854 13.774,28.171 13.189,27.753 13.908,27.759"/><polygon fill="#ffca28" points="17.322,27.073 17.539,27.759 18.259,27.753 17.673,28.171 17.901,28.854 17.322,28.427 16.744,28.854 16.971,28.171 16.386,27.753 17.105,27.759"/><polygon fill="#ffca28" points="30.167,27.073 30.384,27.759 31.103,27.753 30.518,28.171 30.745,28.854 30.167,28.427 29.588,28.854 29.816,28.171 29.23,27.753 29.95,27.759"/><polygon fill="#ffca28" points="33.364,27.073 33.581,27.759 34.3,27.753 33.715,28.171 33.943,28.854 33.364,28.427 32.785,28.854 33.013,28.171 32.428,27.753 33.147,27.759"/><polygon fill="#ffca28" points="32.01,29.323 32.227,30.009 32.946,30.003 32.361,30.421 32.588,31.104 32.01,30.677 31.431,31.104 31.659,30.421 31.074,30.003 31.793,30.009"/><polygon fill="#ffca28" points="28.697,29.1 28.914,29.786 29.634,29.78 29.048,30.198 29.276,30.881 28.697,30.454 28.119,30.881 28.346,30.198 27.761,29.78 28.48,29.786"/><polygon fill="#ffca28" points="25.406,28.7 25.623,29.386 26.342,29.38 25.757,29.798 25.984,30.481 25.406,30.054 24.827,30.481 25.055,29.798 24.469,29.38 25.189,29.386"/><polygon fill="#ffca28" points="20.52,26.9 20.737,27.586 21.456,27.58 20.871,27.998 21.098,28.681 20.52,28.254 19.941,28.681 20.169,27.998 19.583,27.58 20.303,27.586"/><polygon fill="#ffca28" points="23.771,26.75 23.988,27.436 24.707,27.43 24.122,27.848 24.349,28.531 23.771,28.104 23.192,28.531 23.419,27.848 22.834,27.43 23.554,27.436"/><polygon fill="#ffca28" points="23.771,30.75 23.988,31.436 24.707,31.43 24.122,31.848 24.349,32.531 23.771,32.104 23.192,32.531 23.419,31.848 22.834,31.43 23.554,31.436"/><polygon fill="#ffca28" points="23.771,34.5 23.988,35.186 24.707,35.18 24.122,35.598 24.349,36.281 23.771,35.854 23.192,36.281 23.419,35.598 22.834,35.18 23.554,35.186"/><polygon fill="#ffca28" points="23.771,38.313 23.988,38.998 24.707,38.993 24.122,39.411 24.349,40.093 23.771,39.666 23.192,40.093 23.419,39.411 22.834,38.993 23.554,38.998"/><polygon fill="#ffca28" points="27.004,26.9 27.221,27.586 27.94,27.58 27.355,27.998 27.582,28.681 27.004,28.254 26.425,28.681 26.652,27.998 26.067,27.58 26.787,27.586"/><polygon fill="#ffca28" points="15.936,24.781 16.153,25.467 16.872,25.462 16.287,25.88 16.515,26.562 15.936,26.135 15.358,26.562 15.585,25.88 15,25.462 15.719,25.467"/><polygon fill="#ffca28" points="19.036,24.781 19.253,25.467 19.972,25.462 19.387,25.88 19.615,26.562 19.036,26.135 18.458,26.562 18.685,25.88 18.1,25.462 18.819,25.467"/><polygon fill="#ffca28" points="22.249,24.781 22.465,25.467 23.185,25.462 22.6,25.88 22.827,26.562 22.249,26.135 21.67,26.562 21.897,25.88 21.312,25.462 22.032,25.467"/><polygon fill="#ffca28" points="34.314,24.781 34.097,25.467 33.378,25.462 33.963,25.88 33.735,26.562 34.314,26.135 34.892,26.562 34.665,25.88 35.25,25.462 34.531,25.467"/><polygon fill="#ffca28" points="31.586,24.781 31.369,25.467 30.65,25.462 31.235,25.88 31.007,26.562 31.586,26.135 32.165,26.562 31.937,25.88 32.522,25.462 31.803,25.467"/><polygon fill="#ffca28" points="28.486,24.781 28.269,25.467 27.55,25.462 28.135,25.88 27.907,26.562 28.486,26.135 29.065,26.562 28.837,25.88 29.422,25.462 28.703,25.467"/><polygon fill="#ffca28" points="25.274,24.781 25.057,25.467 24.337,25.462 24.923,25.88 24.695,26.562 25.274,26.135 25.852,26.562 25.625,25.88 26.21,25.462 25.491,25.467"/><polygon fill="#ffca28" points="15.533,29.323 15.316,30.009 14.597,30.003 15.182,30.421 14.955,31.104 15.533,30.677 16.112,31.104 15.884,30.421 16.469,30.003 15.75,30.009"/><polygon fill="#ffca28" points="18.846,29.1 18.629,29.786 17.91,29.78 18.495,30.198 18.267,30.881 18.846,30.454 19.424,30.881 19.197,30.198 19.782,29.78 19.063,29.786"/><polygon fill="#ffca28" points="22.137,28.7 21.92,29.386 21.201,29.38 21.786,29.798 21.559,30.481 22.137,30.054 22.716,30.481 22.488,29.798 23.074,29.38 22.354,29.386"/><polygon fill="#ffca28" points="21.95,32.783 21.733,33.469 21.014,33.464 21.599,33.882 21.371,34.564 21.95,34.137 22.529,34.564 22.301,33.882 22.886,33.464 22.167,33.469"/><polygon fill="#ffca28" points="22.096,36.513 21.879,37.198 21.16,37.193 21.745,37.611 21.517,38.293 22.096,37.866 22.674,38.293 22.447,37.611 23.032,37.193 22.313,37.198"/><polygon fill="#ffca28" points="25.429,36.513 25.212,37.198 24.493,37.193 25.078,37.611 24.85,38.293 25.429,37.866 26.008,38.293 25.78,37.611 26.365,37.193 25.646,37.198"/><polygon fill="#ffca28" points="25.554,32.783 25.337,33.469 24.618,33.464 25.203,33.882 24.975,34.564 25.554,34.137 26.133,34.564 25.905,33.882 26.49,33.464 25.771,33.469"/><polygon fill="#ffca28" points="16.908,31.136 16.691,31.821 15.972,31.816 16.557,32.234 16.33,32.916 16.908,32.489 17.487,32.916 17.259,32.234 17.844,31.816 17.125,31.821"/><polygon fill="#ffca28" points="20.296,30.95 20.079,31.636 19.36,31.63 19.945,32.048 19.717,32.731 20.296,32.304 20.874,32.731 20.647,32.048 21.232,31.63 20.513,31.636"/><polygon fill="#ffca28" points="18.346,33.198 18.129,33.884 17.41,33.878 17.995,34.296 17.767,34.979 18.346,34.552 18.924,34.979 18.697,34.296 19.282,33.878 18.563,33.884"/><polygon fill="#ffca28" points="29.179,33.198 28.962,33.884 28.243,33.878 28.828,34.296 28.6,34.979 29.179,34.552 29.758,34.979 29.53,34.296 30.115,33.878 29.396,33.884"/><polygon fill="#ffca28" points="27.387,34.886 27.17,35.571 26.451,35.566 27.036,35.984 26.809,36.666 27.387,36.239 27.966,36.666 27.738,35.984 28.324,35.566 27.604,35.571"/><polygon fill="#ffca28" points="20.117,34.886 19.9,35.571 19.18,35.566 19.766,35.984 19.538,36.666 20.117,36.239 20.695,36.666 20.468,35.984 21.053,35.566 20.334,35.571"/><polygon fill="#ffca28" points="30.614,31.136 30.831,31.821 31.55,31.816 30.965,32.234 31.192,32.916 30.614,32.489 30.035,32.916 30.263,32.234 29.678,31.816 30.397,31.821"/><polygon fill="#ffca28" points="27.226,30.95 27.443,31.636 28.162,31.63 27.577,32.048 27.805,32.731 27.226,32.304 26.648,32.731 26.875,32.048 26.29,31.63 27.009,31.636"/><path fill="#ffca28" d="M25.017,17.1v1.6h0.433v3.692h-0.408v1.6l3.973,0.007l1.102-1.1v-2.007l-0.492-0.469l0.492-0.469	V18.2l-1.1-1.1H25.017z M28.367,19.141c0.012,0.404-0.101,0.531-0.444,0.526H27.2V18.7h0.706	C28.219,18.703,28.344,18.813,28.367,19.141z M27.2,22.392v-1.125h0.706c0.313,0.028,0.469,0.155,0.461,0.499	c0.009,0.432-0.101,0.609-0.475,0.626H27.2z"/><path fill="#ffca28" d="M16.467,20v-1.9l-1.1-1.1H12.5l-1.1,1.1v4.8l1.1,1.1h2.867l1.1-1.1v-1.5h-1.9v0.491	c-0.018,0.263-0.15,0.382-0.364,0.4h-0.469c-0.28,0.01-0.422-0.104-0.434-0.479v-2.749c-0.019-0.235,0.052-0.339,0.388-0.363h0.547	c0.312,0.003,0.335,0.175,0.332,0.378V20H16.467z"/><polygon fill="#ffca28" points="36.05,17.1 33.267,17.1 33.267,18.7 33.775,18.7 33.775,22.392 32.883,22.392 32.883,21.3 30.983,21.3 30.983,22.9 32.083,24 34.575,24 35.675,22.9 35.675,18.7 36.05,18.7"/><path fill="#ffca28" d="M23.729,22.392L22.293,18.7h0.341v-1.6h-3.7v1.6h0.382l-1.437,3.692h-0.504v1.6h2.583v-1.6h-0.163	L19.948,22h1.712l0.152,0.392h-0.188v1.6h2.583v-1.6H23.729z M20.435,20.75l0.37-0.95l0.37,0.95H20.435z"/></svg>