<svg xmlns="http://www.w3.org/2000/svg"  viewBox="0 0 48 48" width="1600px" height="1600px"><path fill="#fff" d="M24,34c5.523,0,10-4.477,10-10c0-5.523-4.477-10-10-10c-5.523,0-10,4.477-10,10C14,29.523,18.477,34,24,34L24,34z"/><path fill="#ff5722" d="M37 31c.628.628.818 1.597.417 2.389C34.356 39.436 27 39 27 39l-3-3-3 3c0 0-7.356.436-10.417-5.611C10.182 32.597 10.372 31.628 11 31l-4-4v6c1.375 0 1.688 1 1.688 1S11.125 42.125 20 43c2.331.23 4 3 4 3s1.669-2.77 4-3c8.875-.875 11.313-9 11.313-9s.313-1 1.688-1v-6L37 31zM24 2c-1.657 0-3 1.343-3 3s1.343 3 3 3 3-1.343 3-3S25.657 2 24 2zM24 6c-.552 0-1-.448-1-1 0-.552.448-1 1-1s1 .448 1 1C25 5.552 24.552 6 24 6z"/><path fill="#ff5722" d="M28 10L25 11 23.001 11 20 10 20 8 23.001 7 25 7 28 8zM10 5l-5 5 4.409 4.409c.878.878 2.303.878 3.181 0l1.819-1.819c.878-.878.878-2.303 0-3.181L10 5z"/><path fill="#ff5722" d="M28.857 32.998H41.818V35.998H28.857z" transform="rotate(43.995 35.338 34.5)"/><path fill="#ff5722" d="M38,5l5,5l-4.409,4.409c-0.878,0.878-2.303,0.878-3.181,0l-1.819-1.819c-0.878-0.878-0.878-2.303,0-3.181L38,5z"/><path fill="#ff5722" d="M11.162 28.018H14.162V40.979H11.162z" transform="rotate(46.005 12.662 34.497)"/><path fill="#ff5722" d="M32.392 9.68H35.392V18.320999999999998H32.392z" transform="rotate(46.005 33.89 14)"/><path fill="#ff5722" d="M9.788 12.501H18.429000000000002V15.501H9.788z" transform="rotate(43.995 14.108 14)"/><path fill="#37474f" d="M24,35c-1.484,0-2.925-0.291-4.282-0.865c-1.31-0.554-2.486-1.347-3.496-2.357c-1.01-1.01-1.803-2.186-2.357-3.496C13.291,26.925,13,25.484,13,24c0-1.484,0.291-2.925,0.865-4.282c0.554-1.31,1.347-2.486,2.357-3.496c1.01-1.01,2.186-1.803,3.496-2.357C21.075,13.291,22.516,13,24,13c1.484,0,2.925,0.291,4.282,0.865c1.31,0.554,2.486,1.347,3.496,2.357c1.01,1.01,1.803,2.186,2.357,3.496C34.709,21.075,35,22.516,35,24c0,1.484-0.291,2.925-0.865,4.282c-0.554,1.31-1.347,2.486-2.357,3.496c-1.01,1.01-2.186,1.803-3.496,2.357C26.925,34.709,25.484,35,24,35z M24,15.997c-4.413,0-8.003,3.59-8.003,8.003c0,4.413,3.59,8.003,8.003,8.003c4.413,0,8.003-3.59,8.003-8.003C32.003,19.587,28.413,15.997,24,15.997z"/><path fill="#37474f" d="M24,13c-6.075,0-11,4.925-11,11c0,6.075,4.925,11,11,11s11-4.925,11-11C35,17.925,30.075,13,24,13z M24,32c-4.418,0-8-3.582-8-8s3.582-8,8-8s8,3.582,8,8S28.418,32,24,32z"/><path fill="#b0bec5" d="M24,11c-7.18,0-13,5.82-13,13s5.82,13,13,13s13-5.82,13-13S31.18,11,24,11z M24,35c-6.075,0-11-4.925-11-11s4.925-11,11-11s11,4.925,11,11S30.075,35,24,35z"/><path fill="#b0bec5" d="M25 13h-2c-.55 0-1-.45-1-1v-1c0-.55.45-1 1-1h2c.55 0 1 .45 1 1v1C26 12.55 25.55 13 25 13zM25 38h-2c-.55 0-1-.45-1-1v-1c0-.55.45-1 1-1h2c.55 0 1 .45 1 1v1C26 37.55 25.55 38 25 38zM13 23v2c0 .55-.45 1-1 1h-1c-.55 0-1-.45-1-1v-2c0-.55.45-1 1-1h1C12.55 22 13 22.45 13 23zM38 23v2c0 .55-.45 1-1 1h-1c-.55 0-1-.45-1-1v-2c0-.55.45-1 1-1h1C37.55 22 38 22.45 38 23z"/><path fill="#37474f" d="M29.093,17.44l-2.717,1.458V18.18c-0.002-0.024-0.004-0.053-0.004-0.087c-0.004-0.366-0.377-0.432-0.665-0.429c-0.101,0.008-0.203,0.016-0.304,0.027c-0.016,0.003-0.025,0.005-0.025,0.005l0.002-0.002c-3.674,0.396-7.021,2.794-7.021,2.794l3.379,8.481c1.01-0.745,1.656-1.06,1.656-1.06c0.47-0.241,1.155-0.539,1.155-0.539s0,1.392,0,1.471c0,1.879,1.044,1.252,1.779,0.885c0.099-0.05,5.216-2.678,5.216-2.678L29.093,17.44L29.093,17.44z"/><path fill="#37474f" d="M25.673 22.414H35.086V22.562H25.673z" transform="rotate(75.67 30.38 22.486)"/><path fill="#fff" d="M26.359 22.301c-.044-.18-.225-.292-.497-.292-.325 0-.822.07-.827.071-1.112.195-2.875.582-5.192 1.935l.369.926c0 0 3.878-2.288 5.804-2.126.223.038.323.068.343.182C26.369 23.032 26.372 22.315 26.359 22.301L26.359 22.301zM26.383 20.565c-.018-.203-.302-.249-.545-.25-.564.038-1.428.153-1.856.504v.845c.416-.271 1.069-.394 1.588-.45l0 .001c0 0 .004-.001.01-.002.064-.007.126-.013.185-.018.22-.009.551.023.586.291C26.352 21.486 26.384 20.569 26.383 20.565L26.383 20.565zM26.377 18.946c-.001.022-.002.034-.004.029-.007-.276-.32-.347-.614-.353-.492.03-1.192.117-1.776.359v.87c.51-.176.99-.275 1.384-.331l-.002.005c0 0 1.004-.212 1.018.345C26.389 19.902 26.376 18.946 26.377 18.946L26.377 18.946zM26.357 24.894c0-.003-.001-.005-.001-.008C26.356 24.894 26.356 24.897 26.357 24.894z"/><path fill="#fff" d="M26.211,23.853c-0.451-0.133-1.931-0.227-5.732,1.956l0.33,0.827c0,0,4.162-2.422,5.429-1.903c0.042,0.027,0.117,0.085,0.118,0.153c-0.002-0.088,0-0.827-0.002-0.861C26.354,23.901,26.244,23.873,26.211,23.853L26.211,23.853z"/><path fill="#ff5722" d="M23.983,17.937c-3.084,0.731-5.624,2.551-5.624,2.551l1.485,3.726c0,0,2.957-1.79,5.24-2.141L23.983,17.937L23.983,17.937z"/><path fill="#ffeb3b" d="M23.684,20.745c0,1.002-0.812,1.814-1.814,1.814c-1.002,0-1.814-0.812-1.814-1.814c0-1.002,0.812-1.814,1.814-1.814C22.872,18.931,23.684,19.743,23.684,20.745z"/><path fill="#2196f3" d="M21.502,19.665c-0.004,0.017-0.012,0.029-0.002,0.046l0.017,0c0.006,0.006-0.002,0.013-0.003,0.019c0.009,0.009,0.014-0.006,0.022-0.005c0.011,0.016-0.006,0.02-0.01,0.034c-0.003-0.003-0.009-0.003-0.014-0.003c0.02,0.02-0.029,0.055,0.005,0.08c0.029-0.002,0,0.041,0.033,0.036c0.001,0.028,0.038,0.018,0.053,0.024c0.005-0.004,0.002-0.01,0.003-0.015l0.026-0.002c0-0.004,0.005-0.007,0.007-0.01l0.012,0.005c0.006-0.014,0.015-0.035,0.034-0.026l0.002-0.003c0.008,0.026,0.028-0.003,0.041,0.01c0.009-0.006,0.019-0.008,0.026-0.005c0.004-0.006-0.004-0.016-0.012-0.019c0.002-0.008,0.008-0.015,0.012-0.022c0.012,0.017,0.028,0,0.041,0.012c-0.007-0.014,0.011-0.019,0.017-0.029c0.012,0.007,0.012,0.039,0.036,0.027c0,0.003,0.004,0.005,0.002,0.009c0.01,0.004,0.031,0.005,0.029-0.012c-0.001-0.003,0.003-0.004,0.005-0.007c0.02,0.025,0.042-0.035,0.046,0.01c0.013-0.002,0.021,0.005,0.031-0.007c-0.02-0.032,0.038-0.027,0.009-0.053c0.002-0.018,0.025-0.021,0.02-0.041c0.009-0.002,0.014-0.017,0.019-0.024c0.003-0.009-0.007-0.021,0-0.031c0.02-0.009,0.017,0.02,0.021,0.031c0.004-0.002,0.007-0.007,0.012-0.005l-0.002,0.019c0.018,0.001,0.004,0.023,0.012,0.032c0.013,0.021,0.014,0.041,0.014,0.064c0.019,0.008,0.026,0.043,0.051,0.02c0.011,0.005,0.012,0.019,0.014,0.031c-0.009,0.007-0.033-0.015-0.031,0.009l0.014,0.008c-0.029,0.018-0.018,0.061-0.06,0.06c-0.009,0.015-0.016,0.035-0.036,0.04c-0.002,0.013,0.007,0.045-0.016,0.044c-0.003,0-0.006-0.001-0.008,0.002l0.015,0.012c-0.031-0.012-0.03,0.031-0.063,0.019c-0.02,0.027-0.07,0.004-0.074,0.048c0.001,0.011-0.01,0.006-0.017,0.007c-0.006-0.006,0.003-0.019-0.009-0.024c-0.012,0-0.019,0.013-0.029,0.015l0.002,0.002c-0.001,0.012-0.023,0.012-0.014,0.024l0.017-0.007c-0.014,0.011,0,0.032-0.015,0.046c0.009,0.028-0.025,0.032-0.024,0.057c-0.005,0.014-0.019,0.007-0.029,0.012c-0.004,0.006-0.001,0.014,0.003,0.019c0.004-0.016,0.029-0.006,0.031-0.024c0.03-0.007,0.01-0.035,0.031-0.05c0.009-0.017,0.01-0.038,0.012-0.058c0.019-0.014,0.017,0.018,0.034,0.008c0.039,0.005,0.014-0.052,0.055-0.041c0.01-0.017,0.036,0.005,0.041-0.019c0.016-0.002,0.026-0.018,0.043-0.02c-0.014,0.012-0.02,0.031-0.01,0.048c0.023,0.012-0.005,0.045,0.024,0.053v0.007c-0.008-0.001-0.018-0.015-0.026-0.004c0.002,0.009,0.002,0.024-0.005,0.033c0.009,0.003,0.012-0.013,0.017-0.017c0.009,0.014,0.015-0.001,0.026,0c0.026-0.025-0.029-0.037-0.012-0.057c0.001-0.019-0.024-0.024-0.016-0.043c0.027-0.013,0.047-0.034,0.067-0.058C22.061,20,22.055,19.995,22.06,19.99l0.007-0.008c-0.004-0.003-0.012-0.01-0.002-0.014c0.005-0.009,0.018-0.002,0.021-0.002c-0.004-0.015,0.015-0.01,0.017-0.02c0.025-0.001,0.056,0.026,0.075-0.004c0.017,0.006,0.038-0.003,0.055,0.002c-0.008,0.014-0.025,0.029-0.022,0.05c-0.015,0.01-0.007,0.059-0.038,0.039c-0.013,0.003-0.016,0.002-0.024,0.009c0.002-0.006-0.004-0.01-0.007-0.014l-0.005,0.017c-0.019,0.002-0.042-0.001-0.055-0.019l-0.008,0.004c0.005,0.008,0.012,0.018,0.022,0.017c-0.014,0.008,0.006,0.015,0.01,0.022c0.005-0.004,0.018-0.001,0.016-0.012c0.015,0.003,0.03,0.005,0.039-0.007l0.007-0.008c0.008,0.018-0.018,0.027-0.012,0.046c-0.033,0.019,0.002,0.052-0.01,0.076c0.008,0.006,0.017-0.003,0.02-0.01c-0.017-0.015,0.013-0.032-0.008-0.045c0.011-0.02,0.016-0.051,0.034-0.065l0.007,0.007c0.003-0.006,0.005-0.013,0.007-0.019c0.011-0.007,0.014,0.018,0.022,0.002c0.002-0.01-0.001-0.018-0.007-0.029l0.009,0.003c-0.005-0.015,0.008-0.033,0.017-0.041c-0.002,0.022,0.012,0.007,0.022,0.017l0.005-0.01c0.007,0,0.005,0.011,0.014,0.007c0.004-0.002,0.002-0.008,0.002-0.012c0.008-0.001,0.013,0.002,0.017,0.008c0.002-0.005,0.007-0.002,0.01-0.003c0.003,0.014,0.014,0.004,0.021,0.005c0.006,0.005-0.002,0.022,0.012,0.017l0.012-0.019c0.005,0.007-0.001,0.03,0.017,0.031l0.015-0.01l0.002,0.015l0.014-0.005c-0.003,0.009,0.005,0.02,0.012,0.029c0.012-0.005-0.004-0.034,0.015-0.024c0.007,0.018,0.015-0.006,0.026,0.002l-0.005,0.014l0.022,0.005c-0.003,0.008-0.011,0.013-0.019,0.012c-0.017,0.024,0.023,0.03,0.002,0.055c-0.003,0.008-0.013,0.013-0.009,0.024c0.004,0.006,0.011,0.011,0.016,0.005c-0.002-0.035,0.042-0.021,0.044-0.053c0.006-0.004,0.016-0.001,0.024-0.002l0.002-0.014c0.018-0.004,0.036,0.023,0.055,0.009c0.004,0.006,0.001,0.015,0.01,0.019c0.009-0.005,0.017,0.009,0.029,0.005l0.007-0.014c0.012,0.023,0.037,0.013,0.057,0.009c0.015-0.009,0.033-0.01,0.053-0.016c0.002,0.005,0.007,0.01,0.012,0.012c0.034-0.015,0.037,0.043,0.075,0.026c-0.001,0.008,0,0.015,0.007,0.019c0.008,0.002,0.025-0.006,0.021,0.01c0.004,0.013,0.023,0.014,0.029,0.026c0.042,0.014,0.071,0.084,0.122,0.048l0.04,0.007c0.011,0.028,0.014,0.058,0.032,0.082c-0.002,0.012-0.007,0.023-0.005,0.036c0.002,0.004,0.008,0.002,0.012,0.002c-0.004,0.013,0.01,0.045-0.012,0.046c-0.003,0.008,0.005,0.009,0.009,0.012c-0.031,0.021,0.013,0.056-0.019,0.076c-0.014,0.014-0.023,0.044-0.043,0.043c0.001-0.003-0.003-0.005-0.005-0.007c-0.003,0.004-0.009,0.001-0.012,0.007c-0.001,0.012,0.025,0.005,0.012,0.022c-0.024,0.005-0.015,0.053-0.045,0.033c-0.015,0.013-0.031,0.028-0.048,0.024c0,0.005,0.007,0.008,0.004,0.015c-0.006,0.008-0.009-0.005-0.016-0.003c-0.008,0.009,0.004,0.016,0.004,0.024c-0.012,0.018-0.028,0.035-0.028,0.058c-0.019,0.007-0.03,0.043-0.048,0.031l0.007-0.022c-0.007-0.001-0.011-0.005-0.012-0.012c0-0.002,0-0.005-0.003-0.007c-0.01,0.008-0.008,0.014-0.024,0.01c-0.005,0.002-0.006,0.01-0.002,0.014l0.017,0.007c-0.007,0.011-0.017,0.017-0.017,0.032c0.007,0.005,0.016,0.008,0.014,0.019c-0.005,0-0.011-0.001-0.014,0.005c0,0.012,0.008,0.017,0.017,0.016c-0.011,0.024,0.001,0.047-0.01,0.069l0.01,0.046c-0.019,0.018-0.022,0.045-0.017,0.071c-0.025,0.012,0.008,0.035-0.01,0.052c-0.005,0-0.008-0.006-0.012-0.009c-0.011,0.014-0.006,0.035-0.021,0.048l0.002,0.077c-0.026-0.002-0.022,0.035-0.041,0.043c0.013,0.025-0.021,0.02-0.024,0.041c-0.002-0.01-0.015-0.003-0.016,0.004c-0.02,0.021-0.007,0.047,0,0.07c-0.023,0.015-0.064-0.019-0.068,0.026c0.022,0.006,0,0.026,0.003,0.032c-0.008-0.006-0.005-0.018-0.012-0.022c-0.006,0.019-0.034,0.004-0.053,0.012c-0.006-0.006,0.002-0.019-0.007-0.022c-0.009,0.005-0.003,0.015-0.005,0.022l-0.029,0.005l0.012-0.015c-0.016-0.003-0.036,0.018-0.053,0c-0.004,0.002-0.008,0.006-0.012,0.01c0.006,0.008,0.02,0.004,0.02,0.017c-0.007,0.019-0.028-0.009-0.029,0.014c-0.005,0.008-0.018,0.006-0.024,0.003c0.001,0.006,0,0.022-0.012,0.021l-0.019-0.012c-0.021,0.028-0.052,0.03-0.076,0.055c-0.034-0.009-0.012,0.034-0.039,0.039c-0.004,0.016-0.023,0.003-0.036,0.017c0.026,0.006-0.008,0.023,0.005,0.033c-0.002,0.006-0.004,0.008-0.009,0.01c-0.003-0.001-0.006,0.002-0.005,0.005c-0.001,0.005,0,0.009,0.005,0.012c0.005-0.001,0.008-0.008,0.014-0.005c-0.005,0.015-0.013,0.037-0.002,0.053c-0.012,0.01-0.008,0.03-0.01,0.045c0.018,0.009-0.007,0.021,0.005,0.034l-0.017-0.012c-0.016,0.011,0.012,0.016,0.002,0.031l-0.057,0.062c-0.01,0.03-0.013,0.064-0.039,0.084c0.009,0.019-0.014,0.013-0.019,0.024c-0.014,0.013-0.026,0.027-0.031,0.044l-0.01-0.024l0.012,0.002c0.003-0.004,0.003-0.009,0.003-0.014c0.006,0.001,0.02-0.002,0.019-0.012c-0.016-0.023,0.02-0.015,0.014-0.034c0.028,0,0-0.018,0.012-0.031l0.005,0.005c-0.003,0.001-0.002,0.004-0.002,0.007c0.001,0.003,0.004,0.002,0.007,0.002c0-0.01,0.011-0.022,0-0.031l-0.022,0.017c0.003-0.014-0.011-0.021-0.016-0.031c-0.005,0.001-0.009,0.006-0.012,0.009c0.004,0.015,0.014,0.031,0.004,0.043c-0.02,0.011,0.01,0.024-0.007,0.036c-0.025-0.012-0.021,0.02-0.038,0.029c-0.005,0.019,0.022,0.032,0.002,0.046c0.023,0.039-0.027,0.05-0.043,0.076l-0.019-0.008c0.014-0.008-0.001-0.03,0.014-0.036c-0.003-0.024,0.026-0.013,0.034-0.031c-0.001-0.011,0.003-0.026-0.003-0.033c-0.015,0.009-0.007,0.038-0.033,0.04c-0.013-0.009-0.024-0.023-0.027-0.038c-0.007-0.008-0.014,0.006-0.021-0.002c-0.007-0.01-0.008-0.022-0.019-0.029c-0.012,0.02-0.023-0.007-0.034-0.005c-0.006-0.011-0.021-0.016-0.019-0.031c-0.007-0.004-0.019,0.006-0.019,0.014c0.001,0.007-0.002,0.013-0.008,0.017H21.87c-0.008-0.011,0.008-0.018,0.002-0.031c-0.009-0.003-0.019-0.027-0.028-0.007l-0.036-0.036c-0.005,0.009-0.009,0.027-0.024,0.024h-0.01c0.023-0.013-0.009-0.052,0.031-0.044c0-0.024,0.027-0.026,0.034-0.048c0.005-0.003,0.013-0.002,0.017-0.009c-0.016-0.013,0.007-0.015,0.009-0.027c0.007,0.004,0.014,0.012,0.019,0c-0.003-0.004-0.009-0.007-0.007-0.014c0.027-0.013,0.046-0.045,0.075-0.053c0.012-0.017,0.027-0.008,0.036-0.029c-0.004-0.004-0.01-0.001-0.012-0.007c0.024-0.025-0.016-0.042-0.003-0.072c-0.008-0.005-0.013-0.022-0.026-0.012c-0.011,0.005-0.006,0.016-0.007,0.024c-0.009-0.001-0.028-0.006-0.017-0.019c0.017-0.015-0.005-0.038,0.019-0.05c0.004-0.015-0.01-0.022-0.005-0.036c-0.024-0.038-0.071,0.036-0.071-0.027c-0.005-0.004-0.01-0.011-0.005-0.017l0.005-0.004c-0.034-0.013,0.008-0.044-0.024-0.06c-0.016,0-0.033-0.023-0.038,0.004c-0.024,0.009-0.056-0.028-0.063,0.003c-0.007-0.003-0.013-0.006-0.021-0.005l0.007-0.012l-0.012-0.01l0.014-0.014l-0.009-0.007c0.017-0.01-0.003-0.019,0.007-0.031c-0.009-0.014,0-0.042-0.022-0.053l0.02-0.017l-0.012-0.007c0-0.02,0.029-0.037,0.012-0.054c-0.009-0.025,0.029-0.05-0.005-0.065c0.008-0.007,0.005-0.024-0.007-0.024c-0.04,0.014-0.029-0.028-0.041-0.046c0.017-0.004,0.006-0.027,0.009-0.036c-0.011-0.001-0.008,0.011-0.012,0.017c-0.031-0.006-0.063,0.001-0.092,0.005c-0.001-0.03-0.016-0.055-0.024-0.082l0.007,0c0.002-0.023-0.014-0.042-0.005-0.065c-0.012-0.009-0.034-0.008-0.038-0.019c-0.009-0.014-0.015,0.003-0.024-0.002l-0.022,0.014c-0.022-0.001-0.008-0.052-0.033-0.024c-0.009,0.001-0.019-0.018-0.029-0.005c-0.015-0.009-0.015-0.019-0.024-0.033c-0.013,0.024-0.034-0.028-0.046,0.007c-0.008-0.014-0.05,0.011-0.041-0.022c-0.007-0.006-0.014,0.002-0.021,0.003c0.008-0.021-0.022-0.007-0.017-0.027l-0.007,0c0.009-0.022-0.017-0.003-0.012-0.024l-0.007-0.007l0.012-0.009c-0.006-0.013-0.019-0.023-0.017-0.039c0.016-0.005,0.009-0.018,0.009-0.029l-0.019-0.016c-0.008,0.006-0.002,0.024-0.017,0.016c-0.006-0.013-0.011,0.006-0.019,0.003c-0.021-0.006-0.033,0.007-0.045,0.024c0.002,0.006-0.005,0.008-0.008,0.012c-0.021-0.007-0.027,0.02-0.038,0.029c-0.005-0.006-0.01-0.009-0.017-0.01c-0.009,0.004-0.003,0.014-0.005,0.022L21.047,20.7c-0.007-0.029-0.038-0.005-0.055-0.012c-0.011,0.009-0.033-0.005-0.039,0.014c-0.013,0.002-0.024-0.015-0.036-0.002c-0.01-0.028,0.011-0.042,0-0.069c0.02-0.008-0.009-0.022,0.012-0.031l-0.009-0.01c-0.017,0.006-0.009,0.03-0.024,0.034c-0.013,0.032-0.044,0.009-0.067,0.019c-0.008-0.012-0.015-0.015-0.022-0.029l-0.055,0.003c-0.005-0.012,0.018-0.016,0.009-0.027c-0.009-0.008-0.031-0.01-0.019-0.028c0.001-0.004-0.004-0.006-0.007-0.005H20.73c0-0.013-0.014-0.021-0.024-0.024h-0.003c-0.002-0.011,0.011-0.007,0.015-0.015c-0.02-0.003-0.02-0.01-0.029-0.026c0.008-0.004,0.01-0.002,0.019-0.002c-0.019-0.018,0.015-0.032,0.015-0.051c0.009-0.005,0.022-0.001,0.031-0.009c-0.005-0.014-0.025-0.024-0.007-0.039c0.011-0.015-0.003-0.041,0.012-0.055c0.014,0.015,0.02-0.007,0.028-0.014c0.017-0.005,0.031-0.038,0.048-0.022c0.02-0.005,0.044-0.007,0.056-0.026l0.021-0.005c-0.001,0.007,0.002,0.012,0.007,0.017c0.012-0.055,0.016-0.111,0.024-0.167c0.032-0.018-0.014-0.018,0-0.041c-0.002-0.007-0.015-0.006-0.007-0.015c0.002-0.007-0.007-0.009-0.012-0.012c-0.007-0.001-0.018,0.004-0.019-0.007c0.006-0.021-0.016-0.063,0.019-0.065c0.013-0.002,0.023,0.001,0.036,0.008c-0.007-0.004,0.006-0.026-0.012-0.024c0.002-0.015-0.017-0.001-0.021-0.012l-0.012,0.014c0.002-0.022-0.017-0.053,0.012-0.062c0.027-0.011,0.075,0.014,0.086-0.022c0.012-0.005,0.011,0.013,0.017,0.019c0.01-0.006,0.008-0.025,0.024-0.026c0.012,0.007,0.029,0.013,0.033,0.029l-0.004,0.031c0.032-0.023,0.034,0.056,0.067,0.019l0.021,0.007c-0.006-0.02,0.018-0.018,0.029-0.014c0.001-0.04,0.045-0.009,0.048-0.048c0.006,0.005-0.002,0.016,0.007,0.019c0.031-0.006-0.001-0.055,0.036-0.048c0.005,0.002,0.009,0.005,0.015,0.005c0.004-0.009,0.002-0.024,0.002-0.031c-0.014,0.022-0.029,0-0.05,0.007c-0.001-0.015-0.007-0.027-0.015-0.039c0.005-0.015,0.027-0.023,0.022-0.043c-0.017-0.011-0.037-0.003-0.05-0.024l-0.003-0.002c0.013-0.006,0.033,0.013,0.041-0.01c0.007-0.001,0.012,0.007,0.014,0.012c0.001,0.002-0.001,0.004-0.002,0.005c0.009,0.012,0.021-0.004,0.031,0.005c0.027-0.016,0.027,0.029,0.053,0.017c-0.001-0.008-0.014-0.01-0.01-0.02c0.02-0.004,0.034-0.01,0.053-0.009c0.002-0.013,0.018-0.009,0.024-0.01c-0.008-0.02,0.025-0.008,0.015-0.026c0.007,0.001,0.02,0.015,0.024,0c-0.005-0.003-0.002-0.008-0.003-0.012l0.012-0.012c0-0.009-0.011-0.006-0.012-0.015C21.468,19.675,21.485,19.656,21.502,19.665L21.502,19.665z"/><path fill="#37474f" d="M23.03 31.984L18.377 20.475 18.377 19.991 17.53 19.097 17.563 20.322 17.895 20.72 22.368 32.084z"/><path fill="#008ecb" d="M22.139 19.879c-.006.006-.012.014-.021.015-.005-.009.006-.02.014-.024C22.134 19.873 22.148 19.873 22.139 19.879zM22.103 19.896c.003.009.006.024-.002.031h-.005l.002-.031H22.103zM22.132 19.934c-.008.002-.017.008-.024.003 0-.016.022-.008.029-.022C22.143 19.92 22.135 19.929 22.132 19.934zM22.168 19.927c0 .009-.01.013-.014.019-.005.001-.01 0-.012-.004C22.151 19.939 22.155 19.911 22.168 19.927L22.168 19.927zM22.089 19.93c.006.01-.007.015-.015.021C22.072 19.944 22.077 19.927 22.089 19.93zM22.066 19.946c.003.011-.01.015-.015.022h-.007c-.005-.009.006-.02.015-.024C22.06 19.944 22.064 19.943 22.066 19.946L22.066 19.946zM22.094 20.009c-.007.001-.012.006-.02.007-.011-.017.015-.023-.002-.036l.014-.01C22.086 19.983 22.073 20.005 22.094 20.009L22.094 20.009zM22.056 19.985c.005.027-.025.038-.041.053-.005-.012.013-.019.012-.032C22.028 19.994 22.04 19.973 22.056 19.985L22.056 19.985zM22.488 20.056c0 .005-.001.009-.005.012-.008.003-.012-.005-.019-.003C22.467 20.06 22.483 20.038 22.488 20.056zM22.084 20.085c-.004-.012-.027-.021-.012-.034h.012V20.085zM22.497 20.07c.004.012-.006.018-.014.022h-.005C22.474 20.08 22.488 20.07 22.497 20.07zM22.516 21.359v.007c-.008 0-.018.008-.024-.002C22.489 21.348 22.516 21.343 22.516 21.359zM22.277 21.648c-.002.005-.01.006-.014.002-.004-.015-.004-.035.01-.046C22.289 21.614 22.272 21.632 22.277 21.648zM22.06 21.948c-.004.017-.022.027-.034.041C22.028 21.971 22.043 21.953 22.06 21.948z"/><path fill="#fff" d="M17.377 31.29c-.006.006-.013.012-.022.019-.008.006-.014.011-.016.014-.033.041-.012.121.063.238.075.118.175.226.301.327.104.083.2.135.286.155.087.02.149.006.187-.042.055-.071-.032-.209-.261-.413-.037-.033-.066-.058-.086-.076-.213-.191-.34-.363-.381-.516-.041-.152-.002-.303.116-.452.124-.155.291-.229.501-.223.21.006.422.095.636.265.248.198.441.418.579.662.016.028.026.044.03.047.008.006.017.009.028.009.011 0 .032-.004.062-.011l.02.043-.564.311-.02-.046c.004-.001.009-.003.014-.006.005-.003.01-.007.015-.012.046-.058.03-.16-.049-.305-.079-.145-.194-.278-.346-.399-.105-.084-.202-.133-.291-.148-.089-.015-.156.007-.203.065-.085.107-.004.268.244.482.018.016.032.029.042.038.208.179.336.347.386.504.049.156.019.303-.09.44-.113.142-.268.208-.463.198-.195-.01-.395-.096-.598-.259-.127-.101-.243-.229-.35-.383-.106-.154-.163-.235-.17-.24-.019-.015-.035-.023-.047-.025-.012-.001-.028.002-.047.011l-.021-.045.494-.271L17.377 31.29 17.377 31.29zM17.629 29.981c-.06.053-.129.08-.206.079-.077-.001-.14-.028-.188-.082-.047-.053-.066-.118-.057-.193.009-.076.044-.14.104-.193.06-.053.127-.079.202-.079.075.001.136.028.184.082.05.056.071.121.063.195C17.725 29.863 17.69 29.927 17.629 29.981L17.629 29.981zM15.313 28.462c-.005 0-.011.001-.017.003-.006.002-.011.004-.015.006-.045.028-.058.102-.04.223.019.12.063.239.134.355.099.162.22.267.361.315.141.048.279.031.413-.051.134-.082.212-.193.232-.334.021-.141-.018-.292-.116-.453-.057-.093-.114-.167-.172-.222-.058-.055-.129-.104-.213-.148-.023-.012-.04-.018-.051-.019-.011-.001-.024.003-.036.01-.006.004-.013.009-.02.015-.007.007-.015.013-.024.02l-.041-.02.338-.608.044.029c-.005.022-.009.039-.01.052-.001.013-.001.022.003.027.005.008.028.025.069.051.227.137.408.316.544.538.182.298.249.583.199.855-.05.271-.205.487-.466.647-.254.155-.513.196-.778.122-.265-.074-.483-.252-.654-.532-.091-.149-.157-.312-.199-.489-.041-.178-.063-.267-.064-.269-.009-.013-.021-.022-.034-.028-.013-.006-.034-.01-.061-.014L14.631 28.5l.676-.086L15.313 28.462 15.313 28.462zM15.953 27.421c-.075.029-.148.03-.22.003-.072-.027-.121-.075-.148-.142-.026-.066-.021-.133.014-.201.035-.068.089-.116.164-.146.075-.029.147-.031.217-.004.07.026.118.073.144.14.027.07.024.138-.008.205C16.083 27.342 16.029 27.391 15.953 27.421L15.953 27.421zM14.307 25.193c-.005-.001-.011-.002-.017-.003-.006-.001-.012 0-.016.001-.052.01-.09.075-.115.195-.024.12-.024.246.003.379.037.187.113.327.229.421.116.094.251.126.405.095.154-.031.266-.108.334-.233.069-.125.084-.28.048-.465-.021-.107-.049-.196-.084-.267-.035-.071-.085-.142-.148-.213-.017-.019-.031-.03-.042-.035-.01-.005-.023-.006-.037-.003-.007.001-.015.004-.024.008-.009.004-.018.007-.029.01L14.78 25.05l.528-.453.031.042c-.013.018-.022.034-.028.045-.006.012-.008.02-.007.026.002.01.017.034.047.072.165.207.273.438.323.693.068.343.031.633-.11.871-.141.237-.361.386-.662.445-.292.057-.549.006-.772-.156-.222-.161-.366-.403-.429-.726-.034-.171-.039-.347-.017-.527.023-.181.034-.272.033-.275-.004-.015-.012-.028-.022-.038-.01-.01-.028-.022-.053-.034l.01-.043.664.154L14.307 25.193 14.307 25.193zM14.13 23.856c-.098-.102-.142-.232-.134-.389.008-.158.066-.283.174-.375.108-.091.244-.133.41-.124.167.009.298.064.395.165.096.101.14.231.132.389-.009.161-.066.287-.172.378s-.243.132-.411.123C14.358 24.014 14.227 23.958 14.13 23.856L14.13 23.856zM15.31 22.786c-.182-.207-.417-.318-.706-.333-.29-.015-.535.07-.736.255-.201.186-.309.43-.325.735-.016.303.066.557.246.763.18.206.415.316.705.332.289.015.535-.07.737-.256.203-.186.312-.43.328-.732C15.575 23.248 15.492 22.993 15.31 22.786L15.31 22.786zM14.454 20.873c.047-.146.095-.241.144-.286.049-.044.113-.054.19-.029.074.024.12.071.135.14.016.069.003.169-.04.299l-.133.411-.426-.137L14.454 20.873 14.454 20.873zM15.837 21.667l-.047-.015c-.02.031-.039.05-.056.056-.016.006-.041.004-.074-.007l-.536-.173.111-.343.567-.119c.008-.002.02-.005.036-.009.038-.01.065-.013.081-.008.014.004.024.013.031.025.007.012.01.028.011.047l.047.017.219-.677-.047-.015c-.019.03-.045.054-.08.072-.035.018-.099.035-.192.053l-.516.11c0-.158-.037-.289-.111-.393-.074-.104-.183-.179-.327-.225-.185-.06-.348-.048-.489.035-.141.083-.245.23-.313.441l-.377 1.167.047.015c.02-.029.037-.047.053-.052.016-.005.041-.003.075.009l1.556.502c.035.011.057.024.067.037.01.014.013.038.011.073l.047.015L15.837 21.667 15.837 21.667zM16.407 20.2l-.043-.024c.009-.034.01-.058.003-.073-.007-.015-.026-.032-.058-.049l-1.43-.792c-.032-.017-.056-.025-.072-.023-.016.002-.037.016-.062.041l-.044-.024.325-.587.043.024c-.009.036-.01.063-.003.079.007.016.026.033.056.05l1.43.792c.03.016.053.023.071.021.018-.003.039-.018.065-.045l.044.024L16.407 20.2 16.407 20.2zM17.087 18.796c.028.024.05.036.068.036.017 0 .041-.01.07-.032l.038.032-.387.454-.038-.032c.016-.031.021-.055.018-.071-.004-.016-.019-.036-.047-.06l-1.245-1.06c-.028-.024-.05-.036-.066-.037-.017-.001-.04.008-.069.028l-.038-.032.503-.59.038.032c-.009.021-.012.04-.011.056.001.016.006.028.017.036.011.01.036.014.076.015.01 0 .018 0 .026.001l1.165.019-.717-.611c-.027-.023-.049-.034-.067-.035-.018 0-.042.01-.072.03l-.038-.032.395-.464.038.032c-.016.033-.022.059-.018.077.003.017.018.038.045.06l1.245 1.06c.026.022.048.033.066.034.018.001.042-.01.072-.031l.038.032-.416.488L17.736 18.2c.009-.02.014-.038.013-.054-.001-.016-.006-.028-.017-.037-.012-.01-.043-.016-.092-.018-.003 0-.007.001-.01.001l-1.392-.02L17.087 18.796 17.087 18.796zM18.497 15.707l.754 1.078c.021.03.039.047.055.053.016.005.04.002.073-.011l.028.041-.55.385-.029-.041c.023-.028.035-.051.034-.068-.001-.017-.01-.039-.029-.066l-.754-1.078-.432.302c-.026.018-.041.036-.045.054-.004.018.001.044.016.08l-.035.025-.381-.545.036-.025c.029.027.052.042.07.044.017.002.039-.006.066-.025l1.278-.895c.027-.019.042-.036.045-.053.004-.017-.003-.043-.019-.079l.041-.029.381.545-.041.028c-.028-.027-.05-.041-.068-.044-.018-.002-.04.005-.065.024L18.497 15.707 18.497 15.707zM20.101 16.404l-.017-.047c.029-.019.046-.037.05-.053.005-.016.001-.041-.012-.075l-.563-1.534c-.013-.035-.026-.056-.04-.065-.014-.009-.038-.013-.074-.01l-.017-.047.63-.231.017.046c-.031.022-.049.041-.054.058-.005.017-.002.042.01.075l.189.515.822-.302-.189-.515c-.012-.033-.026-.055-.041-.064-.016-.009-.042-.012-.078-.009l-.017-.047.63-.231.017.046c-.029.021-.045.039-.05.056-.005.016-.001.041.012.076l.564 1.534c.012.034.026.056.04.065.014.009.038.012.073.008l.017.047-.63.231-.017-.047c.03-.021.048-.04.054-.057.006-.017.003-.041-.009-.073l-.22-.599-.822.302.22.599c.012.032.025.052.04.062.015.01.041.012.079.009l.017.047L20.101 16.404zM22.361 15.682l-.008-.049c.032-.014.052-.028.06-.042.008-.015.009-.04.003-.076l-.247-1.616c-.005-.036-.014-.06-.026-.071-.012-.012-.035-.02-.07-.024l-.008-.049.663-.101.007.049c-.034.015-.056.03-.064.046-.009.016-.01.041-.005.075l.247 1.616c.005.034.014.057.027.069.013.012.038.02.075.024l.008.049L22.361 15.682 22.361 15.682zM24.228 13.937l.282.868-.593-.017L24.228 13.937zM25.288 15.567l.001-.05c-.038-.017-.066-.052-.082-.105-.001-.003-.002-.004-.002-.006l-.519-1.582c-.008-.027-.014-.051-.02-.073-.005-.022-.008-.037-.008-.044.001-.019.005-.033.012-.042.007-.009.021-.014.04-.016l.001-.05-.883-.025-.001.05c.019.003.033.009.04.018.008.009.011.024.011.043 0 .008-.004.023-.01.043-.007.02-.015.044-.024.072l-.507 1.392c-.003.006-.007.016-.012.029-.043.125-.094.203-.154.236l-.001.05.602.017.001-.05c-.024-.008-.042-.019-.053-.034-.011-.015-.016-.034-.016-.057 0-.01.002-.02.004-.03.003-.01.007-.022.012-.034l.079-.21.822.023.065.215c.008.023.013.042.016.055.002.013.004.024.003.032 0 .018-.006.033-.016.043-.011.01-.027.018-.049.023l-.002.05L25.288 15.567 25.288 15.567zM25.926 15.581c-.01.035-.012.06-.005.076.007.016.026.033.058.051l-.014.048-.572-.168.014-.048c.035.001.059-.003.072-.013.013-.01.025-.032.035-.067l.46-1.569c.01-.035.012-.06.007-.076-.006-.016-.023-.033-.053-.052l.014-.048.744.218-.014.048c-.023.001-.041.005-.055.012-.014.007-.023.017-.027.03-.004.014.002.039.017.075.004.009.007.017.01.024l.458 1.072.265-.904c.01-.034.011-.059.004-.075-.007-.017-.026-.034-.057-.054l.014-.048.584.171-.014.048c-.037-.001-.062.004-.077.014-.015.01-.027.032-.037.066l-.46 1.569c-.009.033-.011.057-.004.074.007.017.026.035.057.054l-.014.048-.615-.18.014-.048c.022 0 .04-.004.054-.011.014-.007.023-.017.026-.03.004-.015-.003-.046-.022-.092-.001-.003-.003-.006-.005-.009l-.55-1.279L25.926 15.581 25.926 15.581zM29.563 15.898c.005-.007.012-.014.019-.021.007-.008.012-.013.014-.016.028-.045-.004-.122-.094-.228-.09-.107-.204-.201-.341-.284-.114-.068-.216-.107-.304-.115-.089-.009-.149.014-.18.066-.045.078.059.203.313.375.041.028.073.049.095.063.236.161.385.315.445.461.061.146.042.3-.055.463-.102.17-.258.266-.467.288-.209.022-.431-.038-.665-.179-.272-.163-.492-.356-.662-.579-.02-.026-.032-.04-.036-.042-.008-.005-.018-.007-.029-.005-.011.001-.031.008-.06.019l-.025-.04.518-.383.026.043c-.004.002-.008.005-.013.008-.004.004-.009.008-.014.014-.038.063-.009.162.089.296.098.133.23.25.396.35.116.069.218.105.308.108.09.002.154-.028.192-.092.07-.117-.032-.266-.305-.446-.02-.013-.036-.024-.046-.032-.23-.15-.379-.3-.449-.448-.07-.148-.059-.298.031-.448.093-.156.238-.242.433-.257.195-.016.404.043.628.177.139.083.271.195.397.334.126.139.193.211.201.216.021.012.037.019.049.018.012 0 .027-.006.045-.016l.026.041-.454.335L29.563 15.898 29.563 15.898zM31.826 17.754c.097.12.151.212.162.278.011.066-.016.124-.079.176-.061.049-.124.062-.191.037-.067-.025-.143-.091-.23-.197l-.239-.295.347-.282L31.826 17.754 31.826 17.754zM30.441 18.522l.039-.031c-.015-.034-.021-.06-.017-.077.004-.017.019-.037.046-.058l.437-.355.261.321c.103.127.189.218.256.273.067.055.136.093.207.112.085.024.175.025.269.001.094-.024.181-.069.263-.135.151-.123.23-.266.237-.429.007-.163-.059-.33-.199-.501l-.708-.871-.039.031c.014.033.019.057.015.073-.004.016-.02.036-.048.058l-1.269 1.032c-.028.023-.051.035-.067.036-.017.001-.039-.009-.067-.03l-.038.031L30.441 18.522 30.441 18.522zM32.97 19.461l-.632.659-.265-.531L32.97 19.461 32.97 19.461zM32.033 21.165l.044-.022c-.003-.042.015-.082.054-.122.002-.002.003-.004.004-.004l1.149-1.205c.02-.019.038-.037.055-.052.017-.015.028-.024.035-.028.017-.009.032-.012.043-.009.011.003.022.012.033.028l.044-.022-.395-.791-.044.022c.007.019.008.033.003.044-.005.011-.016.021-.033.03-.008.004-.022.007-.043.011-.021.004-.046.008-.075.013l-1.466.211c-.007.001-.017.002-.031.003-.13.022-.224.013-.281-.024l-.044.022.269.539.044-.022c-.004-.025-.003-.046.005-.063.008-.017.022-.03.043-.041.009-.004.018-.008.029-.01.01-.002.022-.004.035-.005l.223-.03.368.736-.159.158c-.017.018-.031.031-.041.039-.01.009-.019.015-.027.018-.017.008-.032.01-.046.006-.014-.005-.028-.015-.043-.032l-.044.022L32.033 21.165 32.033 21.165zM34.101 22.275c.037-.008.061-.019.073-.033.012-.014.018-.039.019-.075l.049-.01.14.663-.049.01c-.017-.032-.033-.053-.05-.061-.017-.008-.043-.009-.078-.001l-.952.201c-.274.058-.497.026-.668-.096-.171-.122-.287-.332-.35-.63-.063-.3-.04-.539.07-.716.11-.177.31-.296.598-.357l.924-.195c.036-.008.061-.019.072-.033.012-.014.018-.039.019-.075l.049-.01.138.657-.049.01c-.014-.031-.029-.05-.045-.057-.016-.007-.043-.007-.081.001l-.831.175c-.172.036-.287.092-.342.167-.056.075-.068.187-.037.335.031.145.086.241.167.289.081.048.206.054.375.019L34.101 22.275 34.101 22.275zM32.861 25.237c-.002.031.003.054.014.067.011.013.036.025.074.035l-.002.05-.645-.031.002-.05c.039-.007.065-.016.077-.027.012-.012.019-.034.021-.066l.08-1.671.05.003c.007.034.017.057.03.067.013.01.038.017.074.018l1.633.078c.036.002.061-.002.075-.011.014-.009.026-.031.038-.064l.05.002-.032.67-.05-.002c-.008-.037-.019-.061-.032-.072-.013-.012-.037-.018-.073-.02l-1.331-.064L32.861 25.237 32.861 25.237zM32.302 25.619l.048.011c0 .035.006.059.017.072.011.013.034.023.069.032l1.591.375c.035.008.061.009.076.002.015-.007.031-.025.049-.056l.048.011-.154.653-.048-.011c-.001-.038-.007-.063-.018-.077-.011-.014-.034-.025-.068-.033l-1.591-.375c-.033-.008-.058-.008-.074-.001-.016.007-.033.028-.051.061l-.048-.011L32.302 25.619 32.302 25.619zM32.726 28.513c.007.004.015.01.023.016.008.006.014.01.018.012.048.021.12-.019.214-.122.094-.102.174-.227.238-.375.053-.122.079-.227.076-.316-.003-.089-.032-.146-.088-.171-.083-.035-.194.084-.332.358-.022.044-.039.079-.051.103-.13.255-.264.422-.401.5-.137.079-.292.08-.466.004-.182-.08-.297-.222-.344-.426-.048-.205-.017-.432.093-.683.127-.29.291-.533.491-.73.023-.023.036-.037.038-.041.004-.009.004-.019.001-.029-.003-.011-.012-.03-.027-.057l.037-.03.445.466-.039.031c-.003-.004-.006-.008-.01-.011-.004-.004-.009-.008-.016-.012-.068-.03-.162.012-.282.126-.12.114-.219.259-.297.437-.054.123-.077.23-.068.319.009.089.047.149.115.179.125.055.26-.065.404-.359.011-.022.019-.038.026-.05.12-.247.249-.414.388-.502.139-.088.288-.097.449-.026.166.073.27.205.31.397.04.192.008.407-.096.645-.065.148-.159.294-.281.436-.122.142-.185.218-.189.226-.01.022-.014.039-.012.052.002.012.009.026.022.042l-.038.031-.389-.408L32.726 28.513 32.726 28.513zM31.738 30.221l-1.046-.797c-.029-.022-.052-.033-.068-.033-.017 0-.039.011-.066.033l-.039-.03.407-.533.04.03c-.014.034-.018.059-.012.075.006.016.022.034.048.054l1.046.797.319-.419c.019-.025.028-.047.026-.065-.002-.018-.015-.042-.04-.071l.026-.035.529.403-.026.034c-.036-.017-.062-.024-.079-.02-.017.003-.036.018-.056.044l-.946 1.241c-.02.026-.029.047-.027.064.002.017.016.04.042.07l-.03.039-.529-.403.03-.04c.034.017.06.024.078.021.018-.003.036-.017.055-.042L31.738 30.221 31.738 30.221zM30.466 31.7l-.786-.463.456-.38L30.466 31.7zM28.592 31.181l.032.038c.04-.013.083-.005.131.024.003.001.004.002.005.003l1.437.841c.024.015.045.029.063.042.018.013.03.022.035.028.012.015.019.028.019.04 0 .012-.006.025-.02.039l.032.038.679-.566-.032-.038c-.016.011-.03.015-.042.013-.012-.002-.024-.01-.037-.025-.005-.007-.012-.02-.021-.039-.009-.02-.019-.043-.03-.07l-.542-1.378c-.002-.006-.006-.016-.01-.029-.051-.121-.064-.214-.041-.278l-.032-.038-.463.386.032.038c.023-.01.044-.013.062-.009.018.004.035.015.05.033.006.007.012.016.017.025.005.009.009.021.013.033l.08.21-.631.527-.19-.118c-.022-.012-.037-.023-.048-.03-.01-.008-.018-.015-.024-.022-.012-.014-.017-.028-.016-.043.001-.015.008-.031.021-.05l-.032-.038L28.592 31.181 28.592 31.181zM20.907 34.022l.013-.048c.037.001.064-.004.078-.015.014-.01.026-.032.035-.064l.307-1.098-.175.013c-.034.003-.059.011-.075.023-.016.012-.032.034-.049.064l-.048-.013.159-.571.048.013c-.001.036 0 .06.005.072.004.012.015.021.031.025.01.003.018.005.024.005.006 0 .012 0 .018-.001l.17-.021.02-.071c.009-.033.011-.058.004-.074-.007-.016-.026-.034-.059-.053l.013-.048.646.18-.013.048c-.037-.001-.063.004-.077.014-.014.01-.026.032-.036.066l-.435 1.559c-.01.035-.011.06-.004.076.007.016.027.032.059.05l-.013.048L20.907 34.022 20.907 34.022zM23.403 33.377c-.07.043-.166.06-.286.05-.111-.009-.197-.042-.259-.097-.062-.055-.089-.124-.082-.207.007-.083.044-.146.112-.19.068-.044.157-.061.267-.052.118.01.21.042.276.097.066.054.095.122.089.204C23.512 33.269 23.473 33.334 23.403 33.377L23.403 33.377zM22.243 34.337c.018-.02.034-.033.046-.04.012-.007.024-.01.036-.009.001 0 .073.029.215.087.142.058.277.092.407.103.308.026.564-.049.768-.226.203-.176.319-.422.345-.737.024-.286-.041-.524-.195-.714-.154-.19-.368-.297-.643-.32-.261-.022-.471.023-.631.133-.16.11-.249.271-.267.482-.015.183.038.34.16.473.122.133.282.208.48.224.109.009.217-.003.324-.037.108-.033.211-.087.309-.16-.015.169-.081.299-.196.392-.115.093-.261.132-.438.117-.117-.01-.23-.047-.337-.111-.009-.005-.016-.01-.021-.012-.031-.017-.051-.031-.06-.043-.009-.011-.012-.025-.011-.042.001-.01.002-.019.004-.028.002-.009.005-.021.009-.036l-.037-.028-.31.501L22.243 34.337 22.243 34.337zM24.797 34.449l-.005-.05c.035-.013.057-.027.067-.042.01-.015.012-.039.009-.072l-.116-1.134-.158.076c-.031.015-.051.031-.061.049-.01.017-.018.043-.022.077l-.05.005-.06-.589.049-.005c.012.034.022.056.031.065.009.01.021.014.038.012.011-.001.019-.002.025-.004.006-.002.012-.004.017-.007l.15-.082-.007-.073c-.004-.035-.011-.058-.024-.071-.012-.013-.037-.022-.074-.028l-.005-.05.667-.068.005.049c-.035.013-.057.027-.067.041-.01.014-.013.039-.009.075l.165 1.61c.004.036.012.06.024.072.012.012.037.02.073.025l.005.049L24.797 34.449 24.797 34.449zM26.299 32.805c.045-.121.127-.199.247-.235.122-.037.236-.017.34.059.104.076.18.196.229.359.049.163.051.305.006.425-.045.12-.129.198-.253.235-.12.036-.232.016-.335-.059-.103-.075-.179-.195-.228-.358C26.257 33.068 26.255 32.926 26.299 32.805L26.299 32.805zM26.273 34.003c.212.125.452.148.72.068.27-.081.46-.232.57-.454.11-.222.122-.477.036-.766-.086-.289-.236-.496-.45-.623-.214-.126-.456-.149-.726-.069-.267.08-.456.231-.564.454-.109.222-.12.478-.034.767C25.911 33.67 26.061 33.878 26.273 34.003L26.273 34.003zM19.469 32.106L19.851 32.3 20.154 31.997 20.087 32.42 20.468 32.614 20.045 32.682 19.978 33.105 19.784 32.723 19.361 32.79 19.664 32.488zM28.908 31.907L28.526 32.101 28.223 31.798 28.29 32.221 27.909 32.416 28.332 32.483 28.399 32.906 28.593 32.524 29.016 32.591 28.713 32.289zM31.027 25.319l-4.638 2.428v.162c-.008.131-.022.25-.331.437-1.023.458-1.309.499-1.378.658.129.204.373.298.715.181.217 0 5.23-2.613 5.868-2.946L31.027 25.319z"/><g><path fill="#fff" d="M34.646 12.646L39 9 35.354 13.354z"/></g><g><path fill="#fff" d="M12.646 13.354L9 9 13.354 12.646z"/></g><g><path fill="#fff" d="M12,37c0,0,0.29,0.298,0.86,0.732c0.284,0.217,0.636,0.472,1.064,0.724c0.422,0.26,0.917,0.521,1.462,0.785c0.544,0.266,1.154,0.515,1.813,0.728c0.657,0.219,1.364,0.403,2.102,0.559c0.366,0.089,0.744,0.154,1.13,0.203c0.384,0.059,0.771,0.118,1.168,0.146c0.78,0.096,1.612,0.101,2.384,0.123c0.824-0.022,1.656-0.028,2.423-0.124c0.39-0.027,0.777-0.088,1.162-0.146c0.386-0.05,0.764-0.114,1.13-0.203c0.738-0.155,1.445-0.341,2.102-0.559c0.659-0.213,1.269-0.462,1.813-0.728c0.545-0.264,1.04-0.526,1.462-0.785c0.428-0.252,0.78-0.507,1.064-0.724C35.71,37.298,36,37,36,37s-0.221,0.355-0.732,0.877c-0.515,0.511-1.297,1.227-2.39,1.86c-0.541,0.323-1.153,0.634-1.821,0.914c-0.665,0.285-1.387,0.55-2.157,0.734c-0.381,0.11-0.774,0.194-1.175,0.264c-0.399,0.081-0.804,0.157-1.224,0.189c-0.844,0.113-1.662,0.13-2.485,0.162c-0.875-0.032-1.692-0.051-2.524-0.163c-0.414-0.032-0.819-0.109-1.219-0.19c-0.401-0.07-0.794-0.154-1.175-0.264c-0.769-0.183-1.491-0.45-2.157-0.734c-0.668-0.28-1.279-0.591-1.821-0.913c-0.548-0.311-1.018-0.651-1.411-0.977c-0.4-0.317-0.723-0.624-0.979-0.882C12.221,37.355,12,37,12,37z"/></g><path fill="#fff" d="M26.257,27.135c-0.062-0.142-0.258-0.161-0.598-0.112c-0.017,0.003-0.031,0.004-0.042,0.004c-0.036,0.014-0.073,0.029-0.114,0.044c-0.422,0.148-0.65,0.255-0.775,0.342v0.722c0.15-0.112,0.383-0.202,0.623-0.308C26.31,27.432,26.282,27.469,26.257,27.135z"/><g><path fill="#fff" d="M26.551 24.76c1.141-.798 3.352-1.865 3.801-2.079l-.228-.892c-2.382 1.166-3.256 1.712-3.578 1.956L26.551 24.76zM26.542 22.725c.391-.222 1.436-.798 3.376-1.746l-.236-.924-3.145 1.592L26.542 22.725zM26.56 26.677c1.063-.657 3.75-1.994 4.242-2.238l-.217-.848c-1.721.785-3.463 1.775-4.03 2.102L26.56 26.677zM26.533 20.629L29.445 19.128 29.215 18.228 26.528 19.613zM26.35 25.813c-.001-.088-.001-.147-.001-.147-.009-.051-.031-.094-.061-.115-.327-.109-1.637-.285-5.19 1.81l.354.887c0 0 3.609-2.376 4.791-1.848.056.037.105.096.113.188v0c0 .043 0 .065 0 .056C26.355 26.645 26.351 25.812 26.35 25.813z"/></g></svg>