<svg xmlns="http://www.w3.org/2000/svg"  viewBox="0 0 48 48" width="1600px" height="1600px" clip-rule="evenodd" baseProfile="basic"><path fill="#b71c1c" d="M24,47c-9.374,0-17-7.626-17-17s7.626-17,17-17c4.533,0,8.803,1.766,12.021,4.973l-2.822,2.834	C30.734,18.352,27.468,17,24,17c-7.168,0-13,5.832-13,13s5.832,13,13,13s13-5.832,13-13c0-0.604-0.037-1.187-0.111-1.73L38,28.118	V26h2.616l0.235,1.73C40.95,28.452,41,29.216,41,30C41,39.374,33.374,47,24,47z"/><path fill="#fbc02d" d="M25.9,16.7C21.622,14.445,19,12.867,19,9c0-2.757,2.243-5,5-5s5,2.243,5,5h4c0-4.963-4.037-9-9-9	s-9,4.037-9,9c0,6.478,4.801,9.007,9.036,11.238C28.31,22.49,32,24.436,32,30c0,4.41-3.59,8-8,8s-8-3.59-8-8	c0-1.45,0.39-2.82,1.08-4h-4.39C12.24,27.25,12,28.6,12,30c0,6.62,5.38,12,12,12s12-5.38,12-12C36,22.021,30.4,19.071,25.9,16.7z"/><rect width="8" height="4" x="31" y="26" fill="#b71c1c" fill-rule="evenodd" clip-rule="evenodd"/></svg>