<svg xmlns="http://www.w3.org/2000/svg"  viewBox="0 0 48 48" width="1600px" height="1600px"><path d="M45,25.803c0-2.075-1.712-3.763-3.817-3.763c-0.006,0-0.011,0.002-0.017,0.002c2.397-1.231,2.3-5.041,2.298-5.083l-0.003-0.073l-0.06-0.043c-0.078-0.055-0.162-0.112-0.252-0.174c-0.254-0.173-0.573-0.393-0.959-0.718l0.013-0.85c0.303,0.229,0.873,0.232,1.207-0.119c0.152-0.16,0.238-0.407,0.226-0.662c-0.014-0.287-0.146-0.586-0.364-0.797c-1.232-1.188-2.326-2.375-2.326-2.375c-0.113-0.176-0.29-0.304-0.392-0.347c-0.151-0.071-0.687-0.313-1.095,0.3c-0.306,0.46-0.317,1.061-0.273,1.421c0-0.001-0.001-0.001-0.001-0.002c-0.931-1.304-3.726-4.7-8.486-6.552c-0.328-2.058-1.531-2.466-2.137-2.466c-0.978,0-1.958,0.521-2.949,1.285c-0.01-0.001-0.022,0-0.032-0.001L25.53,4.665C25.099,3.726,24.555,3,24.093,3c-0.364,0-1.007,0.482-1.715,1.785c-0.021,0.002-0.043,0.001-0.063,0.003c-0.988-0.764-1.97-1.285-2.947-1.285c-0.605,0-1.811,0.409-2.135,2.459C12.615,7.753,9.855,11,8.845,12.386c0.02-0.365-0.023-0.881-0.292-1.283c-0.405-0.613-0.939-0.371-1.095-0.3c-0.099,0.044-0.279,0.171-0.39,0.348c0,0-1.114,1.211-2.341,2.403c-0.173,0.17-0.364,0.48-0.38,0.768c-0.015,0.255,0.089,0.511,0.239,0.671c0.335,0.353,0.921,0.339,1.221,0.109l0.017,0.777C5.4,16.243,5.06,16.476,4.788,16.662c-0.094,0.064-0.181,0.124-0.261,0.182l-0.06,0.043L4.464,16.96c-0.002,0.042-0.105,3.86,2.302,5.087C4.685,22.074,3,23.749,3,25.811c0,2.078,1.712,3.769,3.817,3.769c0.224,0,0.44-0.029,0.654-0.065c-0.163,0.123-0.32,0.255-0.459,0.405c-0.461,0.5-0.985,1.372-0.86,2.688c0.173,1.791,2.739,5.679,6.925,8.024c1.568,0.881,3.187,1.553,4.845,2.033c0.371,0.91,1.024,1.882,2.26,1.882c0.999,0,1.623-0.484,1.975-0.903C22.387,44.123,22.955,45,24.062,45c1.124,0,1.679-0.888,1.922-1.452c0.31,0.456,0.918,0.999,2.008,0.999c1.271,0,1.924-1.034,2.291-1.967c1.559-0.475,3.083-1.118,4.561-1.948c4.186-2.344,6.754-6.232,6.928-8.024c0.125-1.315-0.398-2.187-0.859-2.687c-0.144-0.156-0.307-0.295-0.477-0.421c0.242,0.048,0.492,0.075,0.748,0.075C43.288,29.573,45,27.882,45,25.803z M4.766,17.042c0.061-0.043,0.126-0.087,0.194-0.134c0.744-0.509,1.99-1.361,4.032-4.215c1.283-1.801,6.152-7.676,14.969-7.676c8.809,0,13.688,5.876,14.974,7.676c2.05,2.868,3.297,3.716,4.042,4.223c0.065,0.044,0.126,0.086,0.185,0.126c0.002,0.57-0.092,4.304-2.762,4.978c-1.663,0.414-3.346-0.536-5.144-2.905c-0.068-0.089-0.156-0.212-0.264-0.364c-0.511-0.717-1.467-2.051-2.853-3.355v-0.019L31.96,15.22c-0.151-0.134-0.343-0.302-0.544-0.466c0.001,0,0.001,0.001,0.002,0.001c-1.851-1.544-4.336-2.889-7.457-2.889c-2.899,0-5.245,1.162-7.048,2.564c-0.372,0.272-0.958,0.76-1.078,0.886l-0.041,0.043v0.024l0,0c-1.396,1.31-2.356,2.653-2.868,3.374c-0.106,0.149-0.192,0.27-0.259,0.358c-1.801,2.369-3.484,3.319-5.143,2.905C4.852,21.346,4.764,17.611,4.766,17.042z M31.835,15.523l-0.012,16.361l-6.703,4.252c-0.389,0.041-0.779,0.082-1.159,0.082c-0.38,0-0.77-0.041-1.159-0.082l-6.703-4.252V15.511c0.442-0.408,0.928-0.809,1.456-1.186c-0.137,0.098-0.267,0.199-0.398,0.3h13.579c0.159,0.101,0.333,0.236,0.501,0.374c-0.276-0.231-0.565-0.456-0.87-0.674H17.555c1.695-1.211,3.83-2.158,6.407-2.158c5.969,0,9.592,5.086,10.782,6.757c0.111,0.155,0.201,0.281,0.27,0.372c1.561,2.057,3.058,3.081,4.549,3.114c-1.293,0.603-2.196,1.892-2.196,3.394c0,1.27,0.643,2.389,1.62,3.073c-0.157-0.027-0.314-0.056-0.469-0.056c-1.425,0-2.061,0.718-2.441,1.146l-0.054,0.061c-2.885,3.24-6.648,5.422-10.19,6.014l6.295-3.993l0.012-16.232C32.038,15.719,31.94,15.621,31.835,15.523z M25.831,36.041c-0.239,0.04-0.475,0.07-0.711,0.095C25.357,36.111,25.593,36.081,25.831,36.041z M22.802,36.136c-0.236-0.025-0.472-0.055-0.711-0.094C22.33,36.082,22.566,36.111,22.802,36.136z M22.091,36.042c-3.544-0.591-7.305-2.773-10.187-6.014l-0.051-0.057c-0.381-0.43-1.018-1.15-2.449-1.15c-0.121,0-0.245,0.027-0.368,0.044c0.963-0.685,1.597-1.795,1.597-3.054c0-1.515-0.915-2.815-2.222-3.414c1.473-0.055,2.954-1.067,4.5-3.101c0.068-0.089,0.156-0.213,0.264-0.365c0.479-0.673,1.358-1.9,2.62-3.126v16.243L22.091,36.042z M6.817,29.28c-1.937,0-3.513-1.556-3.513-3.47c0-1.913,1.576-3.47,3.513-3.47s3.513,1.557,3.513,3.47C10.33,27.724,8.754,29.28,6.817,29.28z M40.687,30.122c0.42,0.455,0.896,1.251,0.782,2.457c-0.168,1.728-2.678,5.497-6.776,7.792c-3.376,1.898-6.986,2.86-10.732,2.86c-3.745,0-7.356-0.962-10.734-2.86c-4.098-2.295-6.606-6.063-6.773-7.791c-0.115-1.206,0.362-2.002,0.782-2.458c0.569-0.617,1.4-1.001,2.167-1.001c1.294,0,1.874,0.656,2.22,1.047l0.051,0.058c3.451,3.881,8.159,6.293,12.285,6.293c4.124,0,8.833-2.411,12.289-6.292l0.055-0.061c0.346-0.39,0.926-1.044,2.213-1.044C39.286,29.121,40.117,29.504,40.687,30.122z M37.67,25.803c0-1.91,1.576-3.464,3.513-3.464s3.513,1.554,3.513,3.464c0,1.913-1.576,3.47-3.513,3.47S37.67,27.717,37.67,25.803z"/><path fill="#ffe500" d="M44.696,25.803c0,1.913-1.576,3.47-3.513,3.47s-3.513-1.557-3.513-3.47c0-1.91,1.576-3.464,3.513-3.464S44.696,23.894,44.696,25.803z M6.817,29.28c1.937,0,3.513-1.556,3.513-3.47c0-1.913-1.576-3.47-3.513-3.47s-3.513,1.557-3.513,3.47C3.304,27.724,4.88,29.28,6.817,29.28z M13.228,40.37c3.378,1.898,6.989,2.86,10.734,2.86c3.746,0,7.357-0.962,10.732-2.86c4.098-2.294,6.608-6.063,6.776-7.792c0.115-1.206-0.362-2.002-0.782-2.457c-0.57-0.618-1.401-1.001-2.17-1.001c-1.287,0-1.866,0.654-2.213,1.044l-0.055,0.061c-3.456,3.881-8.165,6.292-12.289,6.292c-4.127,0-8.834-2.411-12.285-6.293l-0.051-0.058c-0.347-0.392-0.927-1.047-2.22-1.047c-0.767,0-1.598,0.384-2.167,1.001c-0.42,0.455-0.897,1.251-0.782,2.458C6.622,34.307,9.129,38.076,13.228,40.37z M38.935,12.693c-1.286-1.801-6.165-7.676-14.974-7.676c-8.816,0-13.686,5.876-14.969,7.676c-2.042,2.854-3.287,3.706-4.032,4.215c-0.068,0.047-0.133,0.091-0.194,0.134c-0.002,0.569,0.085,4.304,2.759,4.979c1.659,0.414,3.343-0.536,5.143-2.905c0.067-0.088,0.153-0.209,0.259-0.358c1.212-1.704,4.901-6.891,11.034-6.891c6.127,0,9.818,5.181,11.031,6.884c0.108,0.152,0.196,0.275,0.264,0.364c1.798,2.369,3.481,3.319,5.144,2.905c2.67-0.674,2.763-4.408,2.762-4.978c-0.058-0.041-0.12-0.082-0.185-0.126C42.232,16.409,40.985,15.562,38.935,12.693z M30.34,5.844c-1.427-0.472-2.506-0.839-4.263-0.993c0.81-0.555,1.529-1.025,2.356-1.025c0.435,0,0.806,0.164,0.892,0.464c0.08,0.273-0.138,0.392-0.216,0.373c-0.081-0.021-0.139-0.044-0.119-0.118c0.021-0.078-0.04-0.277-0.317-0.277c-0.281,0-0.387,0.257-0.387,0.433s0.283,0.471,0.805,0.471c0.511,0,0.773-0.336,0.753-0.647C30.091,4.881,30.234,5.242,30.34,5.844 M24.028,3.995c-0.045,0.269-0.359,0.527-0.676,0.527l0,0c-0.318,0-0.413-0.051-0.413-0.051l0,0c-0.048,0.074-0.091,0.131-0.141,0.211l0,0c0.288-0.011,0.957-0.029,1.225-0.029l0,0c0.267,0,1.009,0.038,1.169,0.049l0,0c-0.258-0.597-0.755-1.423-1.099-1.423l0,0c-0.012,0-0.027-0.001-0.045-0.001l0,0c-0.08,0-0.359,0.238-0.508,0.448C23.344,4.001,24.028,3.995,24.028,3.995z M41.839,15.691l0.003-0.779c-1.347-1.221-1.981-2.447-1.981-2.447s0.495-0.184,0.716-0.462c0.11-0.155,0.152-0.366,0.133-0.507c-0.043-0.266-0.253-0.4-0.324-0.431c-0.155-0.066-0.443-0.215-0.763,0.22c-0.341,0.471-0.251,1.365-0.204,1.57C39.419,12.855,40.047,13.933,41.839,15.691 M17.588,5.844c1.427-0.472,2.506-0.839,4.263-0.993c-0.81-0.555-1.529-1.025-2.356-1.025c-0.435,0-0.806,0.164-0.892,0.464c-0.08,0.273,0.138,0.392,0.216,0.373c0.081-0.021,0.139-0.044,0.119-0.118c-0.021-0.078,0.04-0.277,0.317-0.277c0.281,0,0.387,0.257,0.387,0.433s-0.283,0.471-0.805,0.471c-0.511,0-0.773-0.336-0.753-0.647C17.838,4.881,17.694,5.242,17.588,5.844 M29.837,42.795c-0.787,0.206-1.349,0.38-2.674,0.539c0,0,0.042,0.132,0.331,0.122c0.11-0.007,0.125-0.034,0.163-0.041c0.085-0.015,0.208,0.07,0.196,0.212c-0.013,0.1-0.098,0.224-0.392,0.224s-0.637-0.236-0.81-0.457c0,0-0.176,0.041-0.359,0.049c0,0,0.566,0.781,1.679,0.781C29.192,44.223,29.647,43.141,29.837,42.795 M6.09,15.691l-0.003-0.779c1.347-1.221,1.981-2.447,1.981-2.447s-0.495-0.184-0.716-0.462c-0.11-0.155-0.152-0.366-0.133-0.507c0.043-0.266,0.253-0.4,0.324-0.431c0.155-0.066,0.443-0.215,0.763,0.22c0.341,0.471,0.251,1.365,0.204,1.57C8.51,12.855,7.882,13.933,6.09,15.691 M7.58,12.607c-0.182,0.313-0.64,1.068-1.798,2.14c-0.192,0.178-0.672,0.329-0.945,0.028c-0.102-0.117-0.169-0.281-0.159-0.472c0.013-0.22,0.147-0.477,0.282-0.59c0.233-0.195,1.229-1.187,1.936-1.967c0.02,0.142,0.144,0.38,0.144,0.38C7.137,12.259,7.257,12.45,7.58,12.607 M25.107,43.399c-0.203,0.287-0.339,0.272-0.579,0.272c-0.124,0-0.303,0.099-0.301,0.281c0.005,0.143,0.124,0.26,0.319,0.26c0.443,0,0.782-0.606,0.872-0.864c0,0,0.26-0.011,0.335-0.018c0,0-0.465,1.371-1.674,1.371c-1.211,0-1.705-1.355-1.705-1.355s1.021,0.061,1.603,0.061C24.56,43.408,24.931,43.402,25.107,43.399 M18.345,42.795c0.787,0.206,1.349,0.38,2.674,0.539c0,0-0.042,0.132-0.331,0.122c-0.11-0.007-0.125-0.034-0.163-0.041c-0.085-0.015-0.208,0.07-0.196,0.212c0.013,0.1,0.098,0.224,0.392,0.224s0.637-0.236,0.81-0.457c0,0,0.176,0.041,0.359,0.049c0,0-0.566,0.781-1.679,0.781C18.989,44.223,18.534,43.141,18.345,42.795 M40.349,12.607c0.182,0.313,0.64,1.068,1.798,2.14c0.192,0.178,0.672,0.329,0.945,0.028c0.102-0.117,0.169-0.281,0.159-0.472c-0.013-0.22-0.147-0.477-0.282-0.59c-0.233-0.195-1.229-1.187-1.936-1.967c-0.02,0.142-0.144,0.38-0.144,0.38C40.791,12.259,40.672,12.45,40.349,12.607 M25.12,36.136l6.703-4.252l0.012-16.361c0.053,0.049,0.102,0.098,0.152,0.146l0,0c-0.43-0.408-0.901-0.812-1.417-1.195h-0.01c0.232,0.172,0.462,0.344,0.676,0.524c-0.168-0.137-0.342-0.273-0.501-0.374H17.163c-0.376,0.288-0.736,0.583-1.064,0.886v16.373l6.703,4.252c0.389,0.041,0.779,0.082,1.159,0.082C24.342,36.219,24.731,36.177,25.12,36.136z M24.904,36.452c-0.315,0.027-0.633,0.067-0.943,0.067s-0.627-0.04-0.942-0.067l0.943,0.598L24.904,36.452z"/><path fill="#da020e" d="M31.999,15.682c-0.052-0.05-0.111-0.098-0.164-0.147v-0.011C31.892,15.576,31.945,15.629,31.999,15.682z M22.802,36.136l-6.703-4.252V15.511c0.152-0.14,0.315-0.278,0.478-0.415v-0.028h0.032c0.021-0.018,0.041-0.036,0.063-0.054v0.054h14.592v-0.047c0.018,0.015,0.034,0.031,0.052,0.047h0.045v0.04c0.165,0.141,0.321,0.283,0.475,0.426l-0.012,16.349l-6.703,4.252c-0.389,0.041-0.779,0.082-1.159,0.082C23.581,36.219,23.191,36.177,22.802,36.136z M23.406,24.235c0,0,0.124,0.464,0.394,0.89c0.267-0.436,0.379-0.89,0.379-0.89H23.406z M24.194,23.169c0.126,0.065,0.288-0.022,0.328-0.243c0.022-0.132,0.065-0.404,0.005-0.428c-0.055-0.024-0.254,0.135-0.348,0.276C24.089,22.918,24.065,23.099,24.194,23.169z M23.333,22.773c-0.091-0.142-0.279-0.3-0.336-0.276c-0.059,0.024-0.022,0.296-0.002,0.428c0.031,0.223,0.199,0.309,0.328,0.243C23.45,23.099,23.428,22.918,23.333,22.773z M19.117,17.885l1.132,0.275l0.611-1.681v-0.426L19.117,17.885z M18.534,17.974l0.338,0.902h9.575v-0.518h-1.068v-0.435h0.873v-1.919h-0.805l-0.275-0.528l-0.269,0.528h-0.807v1.919h0.877v0.435h-2.102v-0.435h0.874v-1.919H24.94l-0.272-0.528l-0.275,0.528H23.59v1.919h0.878v0.435h-2.145v-0.435h0.876v-1.919h-0.807l-0.27-0.528l-0.277,0.528h-0.804v1.919h0.879v0.435l-1.697,0.005L18.534,17.974z M16.671,19.037v0.507h0.995v0.161h12.605v-0.161h0.988v-0.507H16.671z M16.671,31.576l5.894,3.739c0-0.003,0.001-0.006,0.001-0.008c0.045-0.252,0.045-0.406,0.029-0.627c-0.015-0.226-0.225-0.539-0.516-0.913c-0.288-0.376-0.288-0.719-0.168-1.59c0.121-0.87,0.092-1.425,0.092-1.425s-0.304,0.012-0.744,0c-0.438-0.016-0.802-0.268-0.833-1.318c-0.03-1.047-0.055-3.548-0.128-3.81c-0.07-0.259-0.354-0.307-0.474-0.342c-0.124-0.031-0.13-0.208-0.01-0.271c0.317-0.152,0.697-0.536,0.556-0.775c-0.142-0.239-0.7-0.19-1.074-0.009c-0.375,0.179-0.77,0.571-0.871,0.678c-0.098,0.106-0.183,0.106-0.173-0.008c0.013-0.122-0.069-0.694-0.117-0.893c-0.054-0.2-0.235-0.578-0.296-0.678c-0.06-0.101,0-0.139,0.102-0.101c0.098,0.04,0.323,0.132,0.535,0.188c0.213,0.063,0.416-0.04,0.513-0.236c0.101-0.203,0.299-0.63,0.4-0.821c0.099-0.189,0.26-0.146,0.392-0.118c0.131,0.031,0.253,0.111,0.373,0.158c0.12,0.049,0.221,0.04,0.264-0.021c0.041-0.058,0.091-0.079,0.164-0.229c0.071-0.149,0.159-0.078,0.17-0.019c0.362,2.15,1.306,2.248,1.306,2.248c-0.142,0.358-0.474,0.929-0.553,1.073c-0.085,0.135-0.117,0.326-0.138,0.475c-0.016,0.148,0.052,1.568,0.153,2.088c0.102,0.521,0.425,0.318,0.529,0.159c0.097-0.159,0.413-0.82,0.413-0.82s0.078-0.18,0.078-0.329c0-0.151-0.262-0.477-0.322-0.579c-0.063-0.103-0.284-0.302-0.284-0.802c0-0.499,0.455-0.844,0.619-0.975c0.162-0.131,0.162-0.313,0.14-0.422c-0.071-0.386-0.486-1.197-0.685-1.508c-0.204-0.31-0.599-0.898-0.599-0.898h0.82l0.528-1.082l0.574,1.087l0.6,0.005l0.619-1.068l0.485,1.068h0.804c-0.484,0.448-0.681,1.126-0.681,1.578v0.493c0,0.209-0.107,0.556-0.107,0.556s0.698,0.525,0.805,0.616c0.045,0.035,0.094,0.056,0.061,0.147c-0.055,0.153-0.529,0.365-0.578,0.404c-0.107,0.094-0.135,0.151-0.107,0.243c0.034,0.089,0.123,0.106,0.304,0.042c0.183-0.058,0.563-0.255,0.882-0.39c0.317-0.136,0.743-0.102,0.743-0.102v-0.603H25.96v-1.915l-0.212-0.337l0.529-0.931l0.532,0.937l-0.21,0.332v1h0.612v-1L27,22.585l0.531-0.93l0.529,0.93l-0.209,0.332v1h0.616v-1l-0.218-0.332l0.533-0.93l0.531,0.93l-0.212,0.332l0.01,1.912h-1.21v0.884c0.275,0.255,0.534,0.831,0.534,1.17c0,0.347-0.229,0.494-0.229,0.494c0.077,0.273,0.062,0.386,0.029,0.633c-0.029,0.251-0.347,0.643-0.347,0.643v4.57c0,0.31-0.728,0.28-0.728,0.015v-4.482c-0.412-0.445-1.534-0.795-1.534-0.795c-0.412,0.406-0.665,1.112-0.665,1.112c0.179,0.123,0.457,0,0.562-0.12c0.103-0.12,0.314-0.151,0.437-0.075c0.12,0.075,0.149,0.104,0.108,0.28c-0.047,0.186-0.122,0.483-0.122,0.69c0,0.213,0.242,0.165,0.423,0.181c0.366,0.032,0.426,0.435,0.395,0.66c-0.03,0.226-0.137,0.707-0.137,1.005c0,0.296,0.016,0.594,0.046,0.764c0.032,0.163,0.091,0.344,0.074,0.555c-0.018,0.284-0.195,0.329-0.379,0.147c-0.181-0.179-2.716-2.848-2.716-2.848c-0.169,0.543,0.533,1.468,0.759,1.754c0.228,0.286,0.213,0.496,0.014,0.691c-0.195,0.193-0.576,0.297-0.65,0.479c-0.077,0.176,0.182,0.72,0.715,1.393c0.483,0.612-0.414,1.038-1.093,1.212l0.56,0.355l7.29-4.625l0.008-11.035H16.671V31.576z M27.164,27.291v-0.615c0,0-0.166-0.253-0.576-0.253c-0.409,0-0.654,0.122-0.654,0.223C25.934,26.813,26.301,27.291,27.164,27.291z M12.485,12.805l0.638,1.211l0.621-0.659L12.485,12.805z M6.837,28.853c-1.703,0-3.081-1.361-3.081-3.042c0-1.68,1.379-3.042,3.081-3.042s3.083,1.362,3.083,3.042C9.92,27.491,8.538,28.853,6.837,28.853z M8.332,23.835c-0.133,0.149-0.389,0.258-0.654,0.33c0,0-0.126,0.071-0.199,0.186c-0.114,0.178-0.51,1.125-0.526,1.674c-0.007,0.188,0.157,0.344,0.41,0.307c0.253-0.036,0.699-0.023,1.411-0.684c0.158-0.143,0.696-0.765,0.522-1.175c-0.139-0.326-0.378-0.597-0.642-0.836c0,0-0.134-0.107-0.185-0.148C8.47,23.49,8.462,23.683,8.332,23.835z M5.744,23.376c0,0.085,0.071,0.272,0.399,0.373C6.472,23.853,6.937,24,7.314,24c0.375,0,0.942-0.12,0.942-0.478c0-0.11-0.028-0.184-0.127-0.248c-0.385-0.242-0.846-0.328-1.32-0.328c-0.312,0-0.615,0.052-0.899,0.145C5.808,23.125,5.744,23.295,5.744,23.376z M4.797,27.305c-0.032-0.149-0.125-1.036-0.021-1.703c0.025-0.182-0.272-0.405-0.329-0.499c-0.051-0.094-0.114-0.165-0.16-0.236c-0.06-0.096-0.128,0.017-0.128,0.017c-0.074,0.252-0.116,0.517-0.116,0.794c0,0.713,0.273,1.391,0.657,1.764C4.784,27.515,4.825,27.452,4.797,27.305z M4.952,25.06c0.095-0.363,0.465-1.01,0.551-1.114c0.082-0.103,0.055-0.235,0.055-0.299c-0.001-0.064-0.036-0.163-0.036-0.228c0-0.12-0.071-0.116-0.122-0.094c-0.413,0.189-0.734,0.551-0.961,0.942c-0.053,0.088-0.053,0.295-0.016,0.367c0.055,0.101,0.217,0.445,0.353,0.516C4.911,25.226,4.936,25.141,4.952,25.06z M6.924,28.036c-0.16-0.427-0.254-1.123-0.223-1.823c0.032-0.774,0.353-1.426,0.447-1.698c0.095-0.271-0.063-0.302-0.21-0.336c-0.147-0.026-0.343-0.065-0.44-0.096C6.312,24.028,6.255,24,6.094,23.954C5.939,23.913,5.727,23.93,5.632,24.1c-0.096,0.167-0.69,1.017-0.69,2.445c0,0.439,0.129,1.306,0.471,1.49c0.331,0.186,0.889,0.377,1.395,0.377c0.018,0,0.041-0.002,0.06-0.002C7.029,28.416,7.029,28.312,6.924,28.036z M9.579,25.678c0-0.185-0.036-0.356-0.055-0.452c-0.017-0.114-0.111-0.129-0.15-0.046c-0.04,0.074-0.235,0.491-0.685,0.854c-0.451,0.37-0.942,0.567-1.63,0.58c-0.082,0.003-0.124,0.129-0.124,0.243s0.073,0.977,0.359,1.301c0.073,0.08,0.143,0.191,0.304,0.141C8.73,27.936,9.579,26.921,9.579,25.678z M44.274,25.799c0,1.685-1.379,3.042-3.083,3.042c-1.701,0-3.08-1.357-3.08-3.042c0-1.676,1.379-3.038,3.08-3.038C42.895,22.761,44.274,24.123,44.274,25.799z M39.774,23.511c0,0.356,0.565,0.478,0.945,0.478c0.377,0,0.84-0.149,1.169-0.249c0.33-0.102,0.4-0.291,0.4-0.374c0-0.084-0.062-0.252-0.167-0.284c-0.286-0.093-0.585-0.146-0.9-0.146c-0.475,0-0.93,0.085-1.32,0.329C39.802,23.325,39.774,23.403,39.774,23.511z M39.256,25.64c0.712,0.657,1.157,0.649,1.41,0.683c0.253,0.036,0.415-0.12,0.41-0.309c-0.017-0.553-0.41-1.499-0.528-1.672c-0.074-0.115-0.199-0.189-0.199-0.189c-0.264-0.069-0.519-0.184-0.65-0.331c-0.132-0.146-0.142-0.34-0.142-0.34c-0.051,0.038-0.182,0.148-0.182,0.148c-0.264,0.233-0.504,0.509-0.64,0.835C38.561,24.875,39.099,25.496,39.256,25.64z M40.742,28.146c0.284-0.322,0.355-1.182,0.355-1.298c0-0.117-0.039-0.239-0.123-0.243c-0.692-0.014-1.179-0.215-1.633-0.581c-0.448-0.365-0.646-0.781-0.685-0.857c-0.044-0.084-0.13-0.065-0.152,0.049c-0.015,0.099-0.051,0.268-0.051,0.451c0,1.242,0.847,2.257,1.984,2.621C40.594,28.341,40.667,28.229,40.742,28.146z M43.088,26.536c0-1.425-0.594-2.28-0.688-2.449c-0.096-0.165-0.307-0.185-0.463-0.145c-0.161,0.045-0.22,0.073-0.402,0.128c-0.097,0.031-0.292,0.073-0.44,0.102c-0.149,0.031-0.308,0.064-0.213,0.335c0.098,0.273,0.414,0.919,0.447,1.696c0.032,0.698-0.065,1.397-0.22,1.821c-0.107,0.275-0.104,0.383,0.053,0.379h0.059c0.509,0,1.067-0.193,1.398-0.376C42.958,27.839,43.088,26.973,43.088,26.536z M43.255,25.141c0.138-0.073,0.3-0.417,0.353-0.519c0.038-0.07,0.036-0.276-0.014-0.366c-0.229-0.395-0.548-0.751-0.964-0.94c-0.05-0.022-0.12-0.024-0.12,0.091c0,0.066-0.037,0.168-0.037,0.231c-0.001,0.064-0.028,0.197,0.057,0.297c0.084,0.103,0.456,0.754,0.552,1.115C43.097,25.128,43.117,25.215,43.255,25.141z M43.987,25.666c0-0.276-0.038-0.542-0.117-0.797c0,0-0.065-0.111-0.126-0.012c-0.044,0.068-0.107,0.141-0.161,0.235c-0.055,0.095-0.353,0.318-0.328,0.499c0.104,0.667,0.011,1.557-0.017,1.702c-0.034,0.146,0.011,0.215,0.092,0.136C43.71,27.057,43.987,26.382,43.987,25.666z M39.073,17.125c0.289-0.252,0.285-0.576,0.036-0.848l-0.21-0.229L38,16.85l0.159,0.176C38.432,17.322,38.792,17.381,39.073,17.125z M40.335,30.395c0.358,0.389,0.768,1.075,0.666,2.127c-0.136,1.437-2.446,5.156-6.556,7.465c-3.314,1.861-6.852,2.801-10.52,2.801c-3.664,0-7.202-0.94-10.516-2.801c-4.111-2.31-6.418-6.028-6.559-7.465c-0.098-1.052,0.309-1.738,0.672-2.127c0.482-0.524,1.208-0.863,1.849-0.863c1.097,0,1.558,0.523,1.92,0.929c3.558,4,8.389,6.474,12.634,6.474c4.246,0,9.083-2.473,12.638-6.474c0.359-0.406,0.819-0.929,1.921-0.929C39.123,29.533,39.851,29.872,40.335,30.395z M16.281,38.652l1.13-2.008l-0.859-0.469l-1.059,1.89c-0.32,0.568-0.649,0.928-1.189,0.623c-0.532-0.297-0.409-0.727-0.082-1.314l1.062-1.892l-0.856-0.469l-1.122,2c-0.618,1.101,0.16,1.783,0.768,2.114C14.723,39.48,15.668,39.744,16.281,38.652z M21.715,37.91l-0.832-0.217l-0.653,2.411l-1.223-2.907l-0.761-0.202l-0.927,3.413l0.828,0.217l0.659-2.431l1.241,2.932l0.744,0.198L21.715,37.91z M23.731,38.124l-0.938-0.051l-0.188,3.528l0.939,0.049L23.731,38.124z M26.579,38.29l0.987-0.135l-0.068-0.467l-2.918,0.407l0.065,0.46l1.002-0.14l0.433,3.036l0.931-0.128L26.579,38.29z M31.613,40.104l-0.145-0.448l-1.299,0.412l-0.357-1.084l1.063-0.339l-0.147-0.451l-1.064,0.34l-0.303-0.927l1.088-0.352l-0.147-0.446l-1.991,0.639l1.107,3.358L31.613,40.104z M35.108,36.145c-0.591-1.024-1.568-1.048-2.665-0.423l-1.212,0.69l1.794,3.072l1.207-0.689C35.481,38.084,35.599,37.008,35.108,36.145z M32.645,36.15l-0.359,0.205l1.317,2.247l0.334-0.192c0.7-0.396,0.792-0.969,0.338-1.755C33.962,36.098,33.485,35.674,32.645,36.15z M5.214,17.288L5.21,17.257l0.03-0.024c0.703-0.476,2.015-1.368,4.101-4.293c1.254-1.758,6.022-7.498,14.62-7.498c8.6,0,13.364,5.74,14.619,7.498c2.104,2.944,3.359,3.795,4.109,4.308l0.024,0.018v0.035c-0.029,0.875-0.293,3.768-2.422,4.303c-1.473,0.37-3.006-0.531-4.817-2.917c-1.368-1.922-5.152-7.25-11.514-7.25c-6.359,0-10.146,5.328-11.513,7.25c-1.806,2.386-3.342,3.287-4.817,2.917C5.508,21.073,5.243,18.165,5.214,17.288z M35.967,17.406l0.628,0.688l1.058-0.937l0.305,0.34l-0.67,1.492l0.802,0.633l0.544-1.606c0.007,0.009,0.552,0.275,1.157-0.262c0.506-0.449,0.337-1.065-0.192-1.643l-0.975-1.07L35.967,17.406z M36.727,12.694l-2.739,2.271l1.479,1.743l0.369-0.303l-0.875-1.031l0.89-0.73l0.714,0.839l0.369-0.304l-0.718-0.843l0.753-0.626l0.736,0.865l0.365-0.3L36.727,12.694z M33.616,10.412l0.75,0.67l-2.08,2.278l0.702,0.623l2.077-2.278l0.741,0.659l0.318-0.346l-2.189-1.95L33.616,10.412z M29.853,10.802l-0.473,0.2c0.104,0.359,0.349,0.73,0.889,1.052c0.668,0.397,1.396,0.329,1.737-0.228c0.248-0.389,0.25-0.713-0.048-1.292c-0.077-0.164-0.177-0.282-0.245-0.431c-0.132-0.242-0.253-0.44-0.14-0.628c0.125-0.203,0.414-0.22,0.677-0.062c0.275,0.164,0.388,0.435,0.446,0.62l0.431-0.183c-0.132-0.349-0.328-0.663-0.776-0.924c-0.765-0.455-1.388-0.335-1.647,0.091c-0.263,0.429-0.188,0.786,0.01,1.151c0,0,0.123,0.208,0.194,0.349c0.173,0.286,0.375,0.646,0.233,0.871c-0.172,0.284-0.467,0.346-0.755,0.169C30.016,11.329,29.93,11.062,29.853,10.802z M26.763,10.438l2.18,0.737l0.155-0.446l-1.287-0.439l0,0l0.379-1.077l1.054,0.359l0.157-0.448l-1.055-0.358l0.321-0.923l1.086,0.367l0.152-0.446l-1.978-0.672L26.763,10.438z M22.761,10.29l0.942,0.02l0.03-1.619l1.404,0.025l-0.027,1.616l0.94,0.014l0.061-3.532L25.171,6.8l0,0l-0.027,1.44l-1.402-0.02l0.021-1.445l-0.94-0.017L22.761,10.29z M18.821,9.232c0.146,0.622,0.709,1.767,2.487,1.393c0.494-0.093,0.761-0.287,1.019-0.531l-0.324-0.367c-0.122,0.134-0.304,0.329-0.714,0.413c-0.861,0.179-1.372-0.508-1.5-1.101c-0.189-0.879,0.329-1.485,0.915-1.61c0.419-0.091,0.672,0.021,0.833,0.083h0.005l0.109-0.45c-0.282-0.112-0.621-0.186-1.148-0.075C19.338,7.23,18.569,8.08,18.821,9.232z M14.169,9.985l1.897,3l0.722-0.449L15.436,10.4l3.023,1.108l0.653-0.404l-1.901-2.999L16.483,8.56l1.344,2.114l-2.992-1.102L14.169,9.985z M11.687,12.403l1.715,3.366l0.419-0.442l-0.466-0.895l0.828-0.879l0.939,0.393l0.69-0.729L12.3,11.756L11.687,12.403z M7.614,17.023l2.741,2.272l0.416-0.488l-1.937-1.61l2.597,0.835l0.273-0.32l-1.238-2.449l1.946,1.61l0.607-0.71l-2.741-2.272l-0.666,0.783l1.244,2.54l-2.668-0.863L7.614,17.023z"/></svg>