<svg xmlns="http://www.w3.org/2000/svg"  viewBox="0 0 48 48" width="1600px" height="1600px"><path d="M22.183,6.964l-2.541-1.908l3.177-0.049L23.846,2l1.028,3.007l3.177,0.049L25.51,6.964L26.445,10l-2.598-1.828L21.246,10L22.183,6.964z M31.763,10l2.6-1.828L36.964,10l-0.937-3.036l2.542-1.908l-3.178-0.049L34.363,2l-1.029,3.007l-3.176,0.049L32.7,6.964L31.763,10z M38.787,29.153c-0.074,0.022,0.056,0.087-0.018,0.132c0.018,0.317,0.096,0.502,0.103,0.808h-0.018c0.018,0.274,0.128,0.634,0.159,0.917c0.074,0.144,0.107,0.329,0.129,0.47c0.139,0,0,0.142,0.063,0.209c0.15,0.349,0.215,0.697,0.387,1.025c0.085,0.153,0.194,0.295,0.258,0.459c0.492,0.698,1.21,1.278,1.466,2.174c-0.097,0.041-0.085-0.066-0.171-0.066c-0.6-0.515-1.414-0.589-2.058-1.017h-0.063c0.011-0.087-0.085-0.064-0.118-0.119c-0.063-0.055-0.13-0.119-0.215-0.174c-0.727-0.449-1.007-1.268-1.403-1.977c-0.011-0.013-0.011-0.025-0.023-0.013c0.065,0.516,0.13,1.071,0.141,1.629h0.022c0.042,0.427,0.117,0.938,0.237,1.374l0.052,0.066c-0.02,0.111,0.065,0.242,0.13,0.338c-0.011,0.253,0.126,0.44,0.226,0.657c-0.033,0.109,0.074,0.121,0.094,0.208c0.043,0.034,0,0.153,0.087,0.153c0,0.24,0.235,0.349,0.256,0.557c0.129,0.066,0.076,0.196,0.141,0.317c-0.174-0.034-0.27-0.196-0.452-0.251c-0.481-0.318-0.953-0.776-1.403-1.169c-0.063-0.176-0.258-0.219-0.289-0.406c-0.085-0.087-0.149-0.206-0.247-0.272c-0.374-0.634-0.726-1.255-0.877-2.02c-0.063-0.429-0.193-0.853-0.256-1.301c-0.098-0.098-0.022-0.285-0.067-0.404c-0.052-0.265-0.137-0.547-0.201-0.8c-0.021,0.907-0.172,1.62-0.117,2.514c-0.098,0.078-0.163-0.087-0.237-0.109c-0.183-0.329-0.418-0.601-0.6-0.929c-0.226-0.438-0.43-0.842-0.557-1.365c-0.109-0.534-0.226-0.919-0.3-1.486c-0.042-0.559-0.172-0.95-0.194-1.508c0.022-0.066-0.052-0.141-0.063-0.228c-0.023,0.185-0.119,0.34-0.15,0.513c-0.141,0.217-0.141,0.459-0.354,0.6c0.011,0.121-0.141,0.053-0.192,0.053c-0.076-0.14-0.181-0.151-0.259-0.261c-0.037-0.052-0.064-0.114-0.096-0.171l-0.009,4.881c-0.301,5.736-7.94,8.323-8.017,8.348l-0.05,0.017l-0.05-0.017c-0.077-0.025-7.715-2.612-8.018-8.34l-0.008-4.319c-0.105,0.018-0.059-0.148-0.174-0.158c-0.17-0.404-0.439-0.777-0.567-1.214c-0.107,1.016-0.011,2.009-0.13,3.015c-0.085,0.089-0.011,0.196-0.063,0.274l-0.011,0.119h-0.022c-0.054,0.274-0.17,0.57-0.289,0.821c-0.022,0.099-0.118,0.196-0.118,0.329c-0.141,0.304-0.289,0.523-0.407,0.851h-0.032l-0.376,0.546c0.033,0.077-0.063,0.066-0.085,0.119c-0.137,0.298-0.278,0.525-0.492,0.755c-0.022-0.272,0-0.623-0.033-0.896c0.033-0.435,0-0.994-0.074-1.474c-0.108,0.689-0.353,1.321-0.492,2.008c-0.074,0.187-0.182,0.374-0.204,0.592c-0.139,0.251-0.204,0.511-0.385,0.731v0.077c-0.119,0.053-0.141,0.251-0.237,0.327c-0.118-0.01-0.022,0.176-0.15,0.176c-0.311,0.568-0.975,0.895-1.51,1.235c-0.279,0.249-0.611,0.458-0.772,0.83c-0.094,0.011-0.052-0.121-0.094-0.174c0.03-0.328,0.053-0.721,0.28-0.962c0.307-0.502,0.64-1.114,0.833-1.703c-0.041-0.098,0.076-0.132,0.076-0.242c0.116-0.207,0.106-0.491,0.161-0.743c0.118-0.294,0.074-0.655,0.181-0.983c0.065-0.512,0.15-0.984,0.224-1.529h-0.054c-0.159,0.447-0.427,0.973-0.653,1.388c-0.32,0.285-0.631,0.721-1.038,0.853c-0.363,0.207-0.759,0.272-1.018,0.623c-0.17,0.087-0.224,0.251-0.352,0.37v0.043c-0.085,0.043-0.129,0.187-0.237,0.196c-0.054-0.47,0.127-0.851,0.244-1.232c0.067-0.066,0.089-0.176,0.13-0.264c0.078-0.13,0.215-0.217,0.27-0.37c0.106,0.01,0.052-0.11,0.148-0.121c0.3-0.534,0.537-1.169,0.696-1.782c0.163-0.393,0.215-0.938,0.3-1.374c0.076-0.163,0.056-0.329,0.141-0.513c0.033-0.208,0.096-0.374,0.074-0.593c-0.065,0.034-0.022,0.1-0.033,0.154c-0.148,0.064-0.106,0.23-0.222,0.329c-0.033,0.162-0.141,0.251-0.205,0.393C8.63,29.984,8.31,30.15,7.998,30.335c-0.333,0.053-0.601,0.206-0.966,0.219v0.019c-0.267-0.019-0.504,0.155-0.707,0.285H6.283c0.098-0.447,0.365-0.819,0.687-1.136c0.246-0.286,0.418-0.655,0.544-1.025c0.098-0.374,0.27-0.744,0.292-1.106c0.096-0.317,0.148-0.708,0.289-1.016c0.094-0.261,0.118-0.601,0.224-0.861c-0.031-0.198,0.139-0.34,0.117-0.547c0.096-0.23,0.12-0.514,0.185-0.765c-0.215,0.087-0.387,0.251-0.644,0.306c-0.248-0.021-0.58,0.043-0.77-0.108c-0.044-0.374,0.437-0.506,0.515-0.789c0.256-0.525,0.533-1.037,0.651-1.627c0.237-0.6,0.3-1.288,0.504-1.933l-0.009-0.068c0.074-0.041-0.042-0.106,0.054-0.174c0.031-0.217,0.106-0.534,0.192-0.796c-0.107-0.034-0.185,0.076-0.277,0.087c-0.215,0-0.42,0.176-0.646,0.057c-0.094-0.068-0.072-0.177-0.021-0.264c0.085-0.012-0.022-0.153,0.108-0.14c0.28-0.559,0.559-1.106,0.676-1.752c0.354-1.112,0.492-2.294,1.22-3.255c0-0.132,0.15-0.174,0.174-0.306c0.363-0.555,0.813-1.004,1.359-1.355c0.459-0.37,1.244-0.336,1.788-0.076c0.078,0.064,0.215,0.043,0.259,0.163c0.116,0.057,0.222,0.132,0.342,0.208c0.117,0.221,0.385,0.394,0.482,0.657c0.127,0.066,0.065,0.174,0.15,0.261c0.515,0.974,0.74,2.024,1.244,3.005c0.222,0.363,0.278,0.799,0.557,1.137c0.031,0.121,0.106,0.251,0.17,0.338c0.054,0.045,0.021,0.164,0.127,0.164c0.022,0.143,0.152,0.285,0.195,0.427c0.085,0.1,0.094,0.219,0.201,0.274c0,0.153,0.141,0.185,0.183,0.317c0.235,0.304,0.546,0.708,0.792,0.993c0.181,0.251,0.342,0.404,0.557,0.591c0.011,0.014,0.027,0.024,0.039,0.037h1.646c0.052-0.347,0.318-0.531,0.534-0.773c0.215-0.151,0.472-0.242,0.687-0.336c-0.053-0.132-0.42-0.1-0.205-0.317c0.192-0.154,0.366-0.317,0.588-0.417c0.27-0.206,0.591-0.087,0.913-0.206c0.098-0.132,0.289-0.317,0.183-0.502c-0.033-0.155-0.226-0.079-0.333-0.123v-0.021c-0.074-0.023-0.236-0.023-0.277-0.055c-0.226-0.011-0.485-0.021-0.666-0.112c-0.192-0.032-0.396,0.034-0.566-0.098c-0.193,0.034-0.3-0.119-0.451-0.174c-0.052-0.077-0.244-0.098-0.244-0.23c-0.099-0.098-0.184-0.194-0.215-0.359c-0.008-0.041,0.033-0.094,0.039-0.138c0.07-0.043,0.261,0.006,0.261,0.006c0.3,0.185,0.685,0.34,1.072,0.253c0.183-0.034,0.47,0.011,0.665-0.045l-0.022-0.012c-0.363-0.044-0.685-0.151-1.063-0.151c-0.181-0.045-0.485,0.01-0.648-0.068c-0.082-0.019-0.3-0.041-0.3-0.041c-0.45,0.011-1-0.013-1.472-0.155c-0.076-0.087-0.246-0.087-0.291-0.174c-0.202-0.11-0.437-0.274-0.448-0.525l0.074-0.066c0.451,0.429,1.177,0.34,1.767,0.383c0,0,0.217-0.012,0.342-0.018c-0.122,0.011-0.338-0.033-0.338-0.033c-0.018-0.036-0.094-0.039-0.109-0.081c-0.387-0.393-0.622-1.016-0.407-1.574c0.106-0.206,0.256-0.38,0.407-0.502c0.148-0.107,0.427-0.128,0.533-0.325c0.396-0.449,0.955-0.615,1.533-0.766c1.522-0.219,2.914,0.555,4.276,0.94c0.417,0.197,1.059,0.185,1.477,0.012c0,0,0.129-0.034,0.172-0.087c0.171,0.283-0.02,0.653-0.183,0.917c-0.159,0.173-0.266,0.37-0.524,0.445l-0.054,0.045c0.224,0.087,0.289,0.383,0.45,0.525c0.032,0.196,0.15,0.349,0.17,0.555c0.042,0.098,0.065,0.253,0.12,0.362c-0.044,0.053,0.007,0.121,0,0.185L27.66,16.98c0.011,0.13,0.148,0.209,0.204,0.338c0.139,0.383,0.267,0.81,0.278,1.234c-0.041,0.045,0.02,0.045,0.02,0.079c-0.053,0.14,0.024,0.317-0.117,0.38c-0.108-0.076-0.289-0.01-0.418-0.108c0.033,0.219,0.13,0.359,0.163,0.589c0.063,0.219,0.096,0.47,0.116,0.687l-0.02,0.025l-0.022,0.511h-0.011c0.013,0.025-0.002,0.043-0.011,0.063h1.557c0.322-0.335,0.621-0.689,0.83-1.101c0.089,0.011,0.044-0.107,0.096-0.13c0.129-0.066,0.129-0.285,0.226-0.349c0.181-0.306,0.376-0.611,0.515-0.951c0.096-0.118,0.17-0.238,0.192-0.415c0.054-0.098,0.097-0.217,0.171-0.306c0.056-0.142,0.078-0.283,0.183-0.416c0.247-0.589,0.419-1.126,0.58-1.725c0.085-0.065,0.022-0.185,0.096-0.252l0.224-0.764c0.311-0.646,0.633-1.367,1.103-1.869c0.042-0.021,0.117-0.011,0.117-0.087c0.109-0.057,0.195-0.151,0.322-0.164c0.333-0.174,0.72-0.285,1.116-0.24c0.246,0.054,0.512,0.087,0.716,0.228c0.215,0.217,0.6,0.328,0.77,0.591c0.656,0.513,1.103,1.234,1.418,2.031c-0.023,0.11,0.085,0.144,0.116,0.219c0.032,0.295,0.235,0.491,0.269,0.787c0.085,0.174,0.137,0.349,0.201,0.534c0.109,0.352,0.183,0.744,0.42,1.016c0.041,0.21,0.192,0.502,0.329,0.68c0.141,0.132,0.279,0.251,0.474,0.283c0.029,0.044,0.063,0.11,0.029,0.163c-0.182,0.177-0.459,0.196-0.696,0.276c0.01,0.151,0.033,0.358,0.055,0.479c0.03,0.623,0.266,1.28,0.374,1.869c0.085,0.01,0.011,0.121,0.074,0.14c0.074,0.582,0.354,1.084,0.45,1.684c0.098,0.242,0.291,0.491,0.506,0.634c0.105,0.142,0.351,0.155,0.524,0.174c0,0.174-0.182,0.286-0.322,0.352c-0.331,0.164-0.75,0.14-1.09,0.121l-0.033,0.032c0.02,0.436,0.118,0.906,0.118,1.342l0.041,0.034c0.044,0.514,0.161,0.961,0.248,1.454c0,0.034-0.011,0.087,0.03,0.087c0.044,0.24,0.096,0.449,0.13,0.655c0.096,0.164,0.085,0.404,0.172,0.58c0.127,0.578,0.32,1.159,0.696,1.596c0.109,0.263,0.407,0.327,0.546,0.557c0.118,0.034,0.226,0.121,0.267,0.219c-0.3,0.098-0.566-0.121-0.898-0.066c-0.546-0.198-1.135-0.361-1.565-0.776C39.196,29.821,39.024,29.448,38.787,29.153z M22.578,16.478c-0.226-0.272-0.556-0.457-0.92-0.544c-0.141-0.034-0.353-0.023-0.461,0.087c-0.097,0.021-0.193,0.133-0.302,0.11c-0.042-0.076-0.128-0.163-0.191-0.253c-0.078-0.072-0.211-0.053-0.231-0.004c-0.102,0.143-0.027,0.243-0.031,0.396c-0.004,0.022-0.032,0.033-0.07,0.037c0.026-0.001,0.054-0.003,0.066-0.004l1.122,0.011l0.244,0.015C22.116,16.351,22.26,16.364,22.578,16.478z M10.639,10l2.597-1.828l2.6,1.828l-0.935-3.035l2.541-1.908l-3.177-0.049L13.236,2L12.21,5.007l-3.179,0.05l2.543,1.908L10.639,10z"/><path d="M13.712,36.503c0.241,0.214,0.548,0.395,0.842,0.544c0.178,0.219,0.454,0.283,0.679,0.442c0.4,0.227,0.816,0.433,1.255,0.612c0.326,0.072,0.633,0.228,0.951,0.34c0.174,0.038,0.33,0.132,0.5,0.132c0.292,0.159,0.67,0.151,0.957,0.308c0.655,0.149,1.342,0.345,2.034,0.409c0.874,0.125,1.69,0.102,2.547,0.212c0.477-0.024,0.989,0.04,1.488-0.032c0.331,0.007,0.67-0.087,0.986-0.093c0.102-0.034,0.195,0.045,0.294-0.018c0.648-0.091,1.225-0.155,1.851-0.272c0.833-0.159,1.674-0.389,2.484-0.608c0.363-0.174,0.748-0.261,1.096-0.472c0.13-0.031,0.254-0.077,0.378-0.117c0.107-0.039,0.207-0.079,0.315-0.118c0.57-0.321,1.189-0.582,1.72-0.981c0.133-0.01,0.226-0.119,0.35-0.159c0.422-0.119,1.003-0.321,1.371-0.039c0.239,0.047,0.224,0.283,0.261,0.479c-0.044,0.293-0.1,0.596-0.092,0.914c-0.03,0.143-0.015,0.291-0.015,0.44l0.022,0.33c0.107,0.015-0.007,0.079,0.011,0.134c0.051,0.243,0.081,0.481,0.181,0.715c0.056,0.095-0.037,0.189,0.094,0.238c0.702-0.166,1.42,0.038,2.097,0.187c0.217,0.112,0.448,0.205,0.665,0.285c0.1-0.007,0.132,0.087,0.224,0.102c0.7,0.33,1.357,0.777,1.919,1.329c0.085,0.125,0.261,0.276,0.201,0.416c-0.411-0.204-0.842-0.242-1.298-0.329c-0.153,0.07-0.298-0.025-0.439,0.087c-0.256-0.032-0.492,0.124-0.74,0.147c-0.263,0.102-0.511,0.235-0.755,0.37v0.041c0.4,0.401,0.84,0.736,1.174,1.193c0.13,0.159,0.298,0.323,0.423,0.498V44.2c0.229,0.219,0.346,0.519,0.555,0.74h0.022c-0.007,0.085,0.085,0.132,0.118,0.204c0.159,0.276,0.33,0.559,0.392,0.85c-0.117,0.045-0.156-0.132-0.256-0.166c-0.148-0.045-0.293-0.204-0.431-0.259c-0.195-0.141-0.417-0.243-0.611-0.385c-1.234-0.685-2.791-0.819-4.194-0.574c-0.68,0.077-1.398,0.119-2.082,0.109c-0.302-0.025-0.616-0.062-0.85-0.268c-0.139-0.187-0.224-0.408-0.276-0.614c-0.039-0.181-0.078-0.377-0.141-0.551c-0.054-0.031,0.024-0.079-0.031-0.102c-0.161,0.015-0.291,0.149-0.454,0.156c-0.202,0.136-0.418,0.166-0.648,0.263c-0.565,0.194-1.112,0.344-1.69,0.518c-0.183-0.038-0.276,0.143-0.463,0.08c-0.116,0.079-0.268,0.056-0.394,0.094c-0.617,0.204-1.296,0.14-1.951,0.276c-0.085-0.01-0.152-0.032-0.246,0.007c-0.601-0.032-1.196,0.072-1.783-0.024c-0.146-0.015-0.23,0.057-0.378-0.007c-0.192,0.015-0.341-0.039-0.515,0.024c-0.087-0.047-0.241-0.024-0.355-0.056c-0.263,0.04-0.533-0.117-0.803-0.048c-0.054-0.07-0.217-0.04-0.292-0.077c-0.063-0.034-0.122-0.015-0.185-0.007c-0.411-0.079-0.772-0.094-1.174-0.204c-0.933-0.158-1.727-0.396-2.621-0.67c-0.047-0.062-0.132,0.017-0.156-0.062c-0.378-0.136-0.803-0.223-1.189-0.355c-0.353-0.125-0.718-0.259-1.079-0.355c-0.085,0.285-0.154,0.591-0.232,0.891c-0.052,0.166,0.008,0.36-0.115,0.511c-0.092,0.085-0.132,0.236-0.277,0.217c-0.185,0.151-0.48,0.176-0.703,0.159c-0.84,0.056-1.574-0.125-2.343-0.196c-0.071,0.015-0.17-0.08-0.248-0.03c-0.122-0.079-0.254-0.007-0.37-0.057c-0.115-0.007-0.215,0.057-0.307-0.015c-0.178,0.015-0.341-0.023-0.504,0.022c-0.198-0.03-0.448,0.064-0.646,0.072c-0.357,0.072-0.694,0.125-1.02,0.251c-0.207,0.01-0.378,0.134-0.563,0.183c-0.13,0.053-0.215,0.132-0.339,0.155c0,0.079-0.061-0.008-0.083,0.049c-0.108,0.062-0.231,0.102-0.333,0.164c-0.215,0.111-0.385,0.274-0.594,0.424c-0.046,0.007-0.054-0.024-0.076-0.047c0-0.194,0.083-0.4,0.217-0.567c0.205-0.393,0.57-0.785,0.831-1.118c-0.007-0.077,0.092-0.077,0.1-0.149c0.426-0.567,0.981-1.046,1.451-1.51c-0.27-0.313-0.725-0.353-1.066-0.512c-0.089-0.047-0.237-0.024-0.339-0.085c-0.161,0-0.331-0.034-0.477-0.019c-0.124-0.015-0.28-0.015-0.409,0c-0.1,0.057-0.178,0.049-0.3,0.072c-0.231,0.079-0.463,0.166-0.677,0.253c-0.056,0.025-0.1,0.039-0.163,0.032c-0.015-0.062,0.085-0.151,0.129-0.213c0.033-0.125,0.2-0.181,0.27-0.276c0.117-0.102,0.233-0.211,0.315-0.337c0.163-0.062,0.248-0.221,0.396-0.29c0.044-0.087,0.1-0.102,0.178-0.134c0.183-0.109,0.356-0.268,0.548-0.355c0.129-0.006,0.215-0.117,0.339-0.14c0.061-0.04,0.168-0.065,0.239-0.119c0.224-0.164,0.507-0.172,0.741-0.306c0.163-0.032,0.315-0.072,0.477-0.112c0.109-0.062,0.248-0.039,0.378-0.055c0.217-0.04,0.433-0.04,0.655-0.04c0.17-0.079,0.385,0.072,0.587,0.017c0.054,0.07,0.18,0.031,0.246,0.038c0.108-0.127,0.092-0.289,0.185-0.439c0.078-0.438,0.233-0.857,0.226-1.322L11.9,37.498c0.048-0.039-0.008-0.071,0.017-0.118c0.122-0.338,0.092-0.723,0.237-1.038c0.256-0.196,0.625-0.149,0.927-0.117C13.29,36.292,13.512,36.386,13.712,36.503"/><path fill="#b2b2b2" d="M11.97,41.358c0.276,0.102,0.579,0.181,0.872,0.266c0.392,0.159,0.825,0.387,1.242,0.542c0.315,0.127,0.624,0.292,0.962,0.37c0.039,0.064,0.141,0.034,0.187,0.094c0.053-0.016,0.1,0.03,0.152,0.049c-0.037,0.132-0.082,0.266-0.13,0.4c0.015,0.156-0.085,0.258-0.092,0.424c-0.015,0.01-0.008,0.033-0.008,0.048c-0.233-0.268-0.611-0.332-0.918-0.457c-0.765-0.125-1.522-0.227-2.26-0.457c-0.007-0.068-0.092-0.023-0.139-0.053c-0.2-0.151-0.502-0.3-0.579-0.582c-0.039-0.087-0.139-0.181-0.076-0.292c0.083-0.104,0.083-0.3,0.239-0.3c0.054-0.077,0.191-0.023,0.268-0.077C11.785,41.366,11.878,41.381,11.97,41.358 M36.392,41.617c0,0.166,0.1,0.3-0.07,0.402c-0.063,0.109-0.017,0.204-0.102,0.313c-0.139,0.215-0.368,0.348-0.602,0.449c-0.137,0.127-0.322,0.181-0.507,0.212c-0.115,0.041-0.278,0.079-0.426,0.094C34,43.253,33.22,43.212,32.595,43.6c-0.1,0-0.161,0.076-0.239,0.117l-0.03-0.041c-0.026-0.195-0.1-0.385-0.107-0.612c0.215-0.064,0.353-0.206,0.57-0.268c0.13-0.087,0.293-0.189,0.456-0.234c0.354-0.245,0.777-0.365,1.125-0.6c0.078-0.008,0.137-0.094,0.215-0.11c0.304-0.079,0.485-0.29,0.811-0.306c0.263-0.109,0.548-0.181,0.824-0.117L36.392,41.617"/><path fill="#5cbfeb" d="M27.483,39.183c-0.404,0.06-0.806,0.114-1.237,0.174c-0.1,0.064-0.193-0.015-0.294,0.018c-0.316,0.006-0.655,0.1-0.986,0.093c-0.5,0.072-1.011,0.008-1.488,0.032c-0.857-0.109-1.673-0.087-2.547-0.212c-0.431-0.04-0.856-0.132-1.276-0.231c-1.821-1.318-3.597-3.266-3.736-5.895l-0.003-1.394h15.49l-0.003,1.386C31.26,35.877,29.368,37.863,27.483,39.183z M31.414,27.616l0.013-6.503h-15.53l0.012,6.503H31.414z"/><path fill="#fff" d="M23.565,39.501l-5.775-7.732h2.136l5.706,7.641c-0.22,0.029-0.444,0.064-0.666,0.059C24.496,39.536,24.017,39.487,23.565,39.501z M22.368,41.895c-0.067-0.007-0.133,0.026-0.204,0.102c-0.067,0.071-0.126,0.163-0.176,0.272c-0.05,0.108-0.079,0.204-0.087,0.291c-0.006,0.052,0.003,0.098,0.026,0.132c0.022,0.034,0.053,0.053,0.092,0.056c0.048,0.006,0.1-0.015,0.155-0.06c0.05-0.045,0.1-0.102,0.144-0.174c0.044-0.072,0.081-0.147,0.111-0.227s0.046-0.144,0.052-0.201c0.008-0.058-0.002-0.105-0.022-0.138C22.438,41.917,22.408,41.898,22.368,41.895z M28.882,38.054l-4.75-6.286h-2.066l5.496,7.361C28.011,38.81,28.458,38.451,28.882,38.054z M16.933,40.524c0.004-0.042,0-0.077-0.011-0.11c-0.015-0.03-0.037-0.054-0.074-0.072c-0.04-0.018-0.096-0.011-0.165,0.015c-0.039,0.02-0.076,0.042-0.109,0.076c-0.033,0.03-0.078,0.089-0.141,0.172l-0.23,0.315c0.01,0.053,0.021,0.092,0.033,0.121c0.015,0.026,0.037,0.048,0.072,0.06c0.063,0.03,0.137,0.019,0.217-0.026c0.081-0.045,0.155-0.113,0.226-0.196c0.07-0.083,0.118-0.163,0.148-0.234C16.918,40.605,16.929,40.566,16.933,40.524z M20.324,41.383c0.07-0.051,0.133-0.104,0.196-0.159c0.061-0.055,0.113-0.107,0.156-0.159c0.041-0.052,0.064-0.096,0.074-0.132c0.015-0.062,0.004-0.1-0.035-0.11c-0.052-0.013-0.128,0.036-0.228,0.145c-0.104,0.112-0.226,0.291-0.37,0.536l0.004,0.007C20.187,41.475,20.256,41.43,20.324,41.383z M18.17,40.947c0.035-0.087,0.022-0.143-0.039-0.17c-0.042-0.019-0.092-0.013-0.15,0.015c-0.055,0.028-0.109,0.072-0.163,0.132c-0.052,0.061-0.095,0.128-0.126,0.204l-0.011,0.028c0.121,0.025,0.222,0.014,0.307-0.028C18.074,41.09,18.134,41.03,18.17,40.947z M39.716,44.41c-0.448-0.551-0.933-1.101-1.514-1.597c-0.099-0.117-0.23-0.249-0.363-0.368v-0.047c0.109-0.127,0.264-0.23,0.425-0.261c0.755-0.457,1.703-0.608,2.576-0.417c-0.022-0.04-0.061-0.071-0.1-0.087c-0.348-0.353-0.789-0.598-1.198-0.84c-0.539-0.245-1.072-0.536-1.649-0.7c-0.533-0.033-1.049-0.167-1.58-0.063c0.131,0.228,0.185,0.479,0.285,0.717c0.052,0.127,0.13,0.259,0.115,0.383c0.048,0.31-0.03,0.606-0.137,0.899c-0.048,0.306-0.333,0.479-0.504,0.73c-0.548,0.473-1.225,0.527-1.927,0.621c-0.494,0.136-1.089,0.127-1.498,0.442c-0.161,0.023-0.146,0.204-0.185,0.321c0.132,0.221,0.392,0.238,0.601,0.34c0.441,0.04,0.965-0.017,1.42-0.024c0.092-0.047,0.192,0.017,0.277-0.039c0.092,0.024,0.178-0.038,0.248-0.015c0.137-0.049,0.292-0.03,0.422-0.049c0.718-0.087,1.359-0.087,2.107-0.038c0.933,0.134,1.789,0.506,2.609,0.959c0.085,0.011,0.117,0.166,0.217,0.121c-0.1-0.151-0.216-0.307-0.294-0.473C39.968,44.718,39.838,44.591,39.716,44.41z M34.507,39.503c-0.059-0.147-0.048-0.298,0.035-0.449c-0.011-0.002-0.032,0.004-0.063,0.015c-0.078,0.034-0.132,0.089-0.165,0.174c-0.033,0.079-0.045,0.174-0.033,0.281c0.013,0.108,0.041,0.217,0.085,0.333c0.029,0.073,0.07,0.134,0.118,0.176c0.05,0.041,0.1,0.049,0.157,0.026c0.028-0.012,0.054-0.039,0.076-0.083c0.023-0.047,0.041-0.106,0.052-0.181C34.646,39.73,34.557,39.633,34.507,39.503z M14.707,43.56c-0.153-0.109-0.341-0.164-0.517-0.236c-0.078,0.04-0.17,0.008-0.248-0.024c-0.524-0.095-1.001-0.212-1.525-0.336c-0.557-0.072-1.25-0.332-1.398-0.937c-0.092-0.087-0.044-0.236-0.115-0.34c-0.046-0.534,0.208-1.093,0.37-1.565c0.015-0.102,0.078-0.181,0.124-0.274c-0.024-0.026-0.032,0.015-0.056,0c-0.268-0.095-0.531-0.087-0.823-0.108c-0.826,0.045-1.666,0.289-2.391,0.698c-0.226,0.109-0.47,0.26-0.687,0.407c-0.276,0.102-0.463,0.347-0.716,0.498l-0.011,0.038c0.279-0.087,0.566-0.077,0.859-0.117c0.115,0.07,0.229,0.023,0.346,0.07c0.061-0.079,0.1,0.07,0.163,0c0.124,0.062,0.283,0.062,0.407,0.104c0.156,0.061,0.324,0.14,0.472,0.154c0.008,0.049,0.069,0.015,0.085,0.072c0.239,0.062,0.429,0.245,0.655,0.34c0.062,0.03,0.123,0.075,0.093,0.147l-0.509,0.442L9.27,42.639C9.187,42.733,9.109,42.79,9,42.869c-0.03,0.117-0.178,0.149-0.222,0.276L8.77,43.137c-0.031,0.045-0.085,0.094-0.139,0.14c-0.048,0.134-0.209,0.238-0.279,0.37c-0.215,0.174-0.315,0.441-0.556,0.596c-0.176,0.285-0.463,0.49-0.555,0.794c0.078,0,0.115-0.117,0.202-0.1c0.339-0.211,0.716-0.377,1.087-0.513c0.077-0.094,0.192-0.023,0.277-0.087c0.348-0.147,0.74-0.242,1.111-0.281c0.177-0.048,0.324-0.024,0.503-0.055c0.376,0.048,0.748-0.025,1.155,0.055c0.048-0.102,0.155,0,0.209,0c0.842,0.079,1.719,0.322,2.582,0.228c0.131-0.041,0.216-0.023,0.357-0.049c0.124-0.052,0.307-0.094,0.346-0.251c0.015-0.156-0.117-0.258-0.208-0.368C14.793,43.639,14.763,43.577,14.707,43.56z M30.97,35.107l-2.493-3.338h-2.138l3.715,4.974C30.423,36.241,30.737,35.697,30.97,35.107z M35.41,41.272c-1.289,0.487-2.453,1.242-3.717,1.793c-0.533,0.281-1.104,0.41-1.674,0.604c-1.151,0.293-2.323,0.506-3.519,0.623c-1.557,0.11-3.1,0.023-4.666-0.141c-0.515-0.047-0.996-0.149-1.495-0.268c-0.137,0.015-0.278-0.062-0.409-0.079c-0.709-0.149-1.386-0.368-2.083-0.566c-0.484-0.156-0.962-0.321-1.458-0.48c-0.639-0.187-1.257-0.385-1.883-0.651c-0.376-0.174-0.731-0.308-1.118-0.465c-0.353-0.102-0.672-0.323-1.048-0.386l-0.017-0.031c-0.07,0.07-0.1-0.056-0.178-0.024c-0.292-0.102-0.585-0.134-0.87-0.008c-0.063-0.017-0.031-0.094-0.024-0.134c0.054-0.236,0.139-0.432,0.209-0.659c0.078-0.064,0.085-0.151,0.115-0.228c0.363-0.889,0.577-1.819,0.603-2.826c0.03-0.102,0-0.227,0.059-0.321c-0.022-0.11,0.039-0.221,0.015-0.34c0.07-0.04,0.117-0.242,0.272-0.242c0.117-0.008,0.261-0.027,0.37,0.007c0.107-0.034,0.185,0.053,0.279,0.076c0.6,0.277,1.133,0.67,1.71,1.042c0.068-0.019,0.085,0.068,0.146,0.068c0.394,0.246,0.857,0.404,1.266,0.646c0.076-0.007,0.124,0.094,0.205,0.055c0.411,0.198,0.859,0.3,1.259,0.496c0.039-0.015,0.1,0,0.139,0.03c0.324,0.095,0.65,0.206,0.987,0.238c0.017,0.061,0.056-0.007,0.094,0.031c0.146,0.049,0.316,0.064,0.446,0.143c0.226,0.015,0.448,0.068,0.641,0.172c0.133-0.047,0.256,0.031,0.378,0.047c0.263,0,0.526,0.07,0.788,0.079c0.037,0.07,0.092-0.01,0.13,0.03l0.371,0.057v0.007c0.248,0.023,0.479,0.038,0.733,0.064c0.263,0.03,0.563,0.008,0.825,0.015c0.178,0.007,0.432,0.038,0.626,0c0.439,0.045,0.916,0,1.372-0.049c0.092,0.064,0.17-0.045,0.27-0.008c0.339,0.008,0.624-0.087,0.94-0.07c0.039-0.079,0.132-0.024,0.187-0.057c0.215-0.047,0.492-0.038,0.692-0.117c0.256-0.017,0.496-0.096,0.748-0.118c0.031,0.041,0.055,0.007,0.078-0.007c0.416-0.079,0.762-0.11,1.166-0.196c0.053-0.031,0.107-0.07,0.167-0.038c0.318-0.176,0.703-0.19,1.044-0.325c0.346-0.125,0.692-0.274,1.048-0.378c0.178-0.095,0.387-0.151,0.563-0.242c0.45-0.213,0.903-0.441,1.32-0.71c0.07-0.007,0.1-0.087,0.185-0.077c0.209-0.159,0.463-0.236,0.679-0.402c0.409-0.174,1.025-0.457,1.42-0.047c0.015,0.221,0,0.41-0.009,0.636c-0.039,0.015,0,0.049,0,0.072c-0.007,0.064-0.03,0.156-0.022,0.228h-0.008c-0.024,0.149,0.008,0.338,0.008,0.487c0.015,0.424,0.022,0.757,0.177,1.125c0.022,0.087,0.03,0.174,0.07,0.277c0.008,0.102,0.122,0.177,0.108,0.304c0.107,0.143,0.076,0.337,0.2,0.472c-0.039,0.071,0.061,0.102,0.039,0.19c0.124,0.196,0.139,0.422,0.169,0.653c-0.008,0.023-0.03,0.038-0.037,0.045C36.219,41.059,35.741,41.2,35.41,41.272z M21.179,41.311c0.048,0.058,0.113,0.096,0.198,0.111c0.072,0.015,0.139-0.004,0.198-0.053c0.059-0.048,0.095-0.131,0.111-0.25c-0.056,0.03-0.111,0.039-0.157,0.032c-0.024-0.006-0.046-0.011-0.065-0.025c-0.018-0.007-0.035-0.019-0.052-0.034c-0.015-0.013-0.033-0.028-0.054-0.045C21.309,41.151,21.25,41.238,21.179,41.311z M14.258,38.852c0.076-0.061,0.133-0.11,0.172-0.149c0.037-0.036,0.061-0.066,0.065-0.091c0.006-0.022-0.008-0.06-0.039-0.111c-0.032-0.051-0.078-0.098-0.144-0.145c-0.067-0.049-0.148-0.079-0.244-0.102c-0.137-0.03-0.255-0.019-0.361,0.026c-0.102,0.049-0.187,0.113-0.246,0.194c-0.061,0.083-0.096,0.162-0.115,0.236c-0.018,0.098-0.015,0.19,0.004,0.279c0.022,0.09,0.063,0.185,0.128,0.283c0.039,0.061,0.08,0.12,0.117,0.174c0.039,0.057,0.07,0.106,0.096,0.151c0.026,0.046,0.045,0.092,0.056,0.14c0.011,0.043,0.011,0.09,0.004,0.132c-0.011,0.058-0.039,0.114-0.081,0.158c-0.044,0.049-0.096,0.083-0.163,0.106c-0.063,0.019-0.127,0.023-0.194,0.007c-0.198-0.039-0.283-0.189-0.252-0.44c0.005-0.051,0.005-0.089,0-0.115s-0.027-0.042-0.065-0.049c-0.009,0.01-0.041,0.046-0.096,0.1c-0.055,0.057-0.092,0.1-0.115,0.127c-0.024,0.026-0.037,0.049-0.041,0.068c-0.002,0.019,0.009,0.053,0.037,0.11c0.026,0.057,0.081,0.113,0.159,0.176c0.081,0.06,0.193,0.104,0.337,0.136c0.106,0.021,0.218,0.015,0.337-0.021c0.118-0.036,0.222-0.094,0.311-0.181c0.089-0.084,0.144-0.183,0.168-0.299c0.019-0.099,0.013-0.189-0.017-0.268c-0.034-0.085-0.082-0.177-0.146-0.277c-0.035-0.049-0.07-0.1-0.106-0.153c-0.037-0.052-0.07-0.105-0.096-0.156c-0.029-0.051-0.052-0.104-0.067-0.158s-0.018-0.108-0.008-0.156c0.011-0.061,0.037-0.11,0.074-0.148c0.035-0.037,0.077-0.06,0.124-0.075c0.046-0.013,0.089-0.016,0.131-0.006c0.032,0.006,0.063,0.021,0.096,0.045c0.032,0.023,0.059,0.051,0.078,0.081c0.033,0.052,0.052,0.096,0.056,0.132c0.004,0.038,0.004,0.083,0.004,0.138c-0.004,0.055,0.003,0.087,0.018,0.096L14.258,38.852z M16.549,41.26c0.092-0.013,0.185-0.041,0.282-0.091c0.096-0.049,0.182-0.113,0.258-0.192c0.078-0.08,0.135-0.166,0.176-0.264c0.048-0.115,0.059-0.219,0.033-0.313c-0.026-0.094-0.082-0.163-0.167-0.199c-0.063-0.026-0.132-0.036-0.205-0.028c-0.072,0.007-0.159,0.041-0.257,0.096l-0.004-0.008l0.144-0.202l-0.318-0.076c-0.057,0.057-0.127,0.119-0.212,0.187c-0.085,0.066-0.17,0.127-0.259,0.181c-0.067,0.045-0.125,0.074-0.182,0.1l0.002-0.006c-0.035,0.017-0.076,0.039-0.127,0.066c-0.052,0.026-0.102,0.046-0.148,0.062c-0.048,0.013-0.085,0.015-0.118,0.006c-0.059-0.019-0.074-0.076-0.044-0.162c0.011-0.031,0.039-0.085,0.085-0.161c0.046-0.076,0.102-0.159,0.163-0.249c0.063-0.093,0.117-0.168,0.159-0.223c0.041-0.058,0.067-0.096,0.082-0.119l-0.396-0.045l-0.37,0.532c-0.021,0.032-0.061,0.068-0.114,0.107c-0.055,0.039-0.111,0.072-0.167,0.092c-0.056,0.023-0.097,0.03-0.124,0.023c-0.069-0.025-0.087-0.087-0.057-0.183c0.011-0.029,0.037-0.084,0.083-0.161c0.048-0.079,0.087-0.143,0.122-0.192l0.291-0.416l-0.385-0.047c-0.118,0.149-0.215,0.286-0.292,0.416c-0.078,0.127-0.132,0.236-0.158,0.321c-0.039,0.118-0.042,0.213-0.017,0.281c0.028,0.069,0.074,0.116,0.144,0.14c0.141,0.048,0.338-0.01,0.592-0.166l0.004,0.008c-0.026,0.068-0.037,0.13-0.03,0.185c0.004,0.057,0.022,0.102,0.052,0.136c0.026,0.037,0.063,0.062,0.108,0.075c0.07,0.023,0.155,0.019,0.259-0.017c0.102-0.036,0.218-0.087,0.356-0.153l0.002-0.005c0.031-0.012,0.064-0.025,0.102-0.043c0.044-0.023,0.082-0.042,0.113-0.063c0.032-0.021,0.07-0.043,0.117-0.072l0.004,0.01c-0.274,0.374-0.532,0.763-0.774,1.167l0.359,0.083c0.061-0.106,0.12-0.2,0.174-0.283c0.052-0.081,0.133-0.196,0.237-0.347c0.008,0.015,0.015,0.028,0.022,0.043c0.006,0.014,0.017,0.028,0.03,0.045c0.011,0.017,0.03,0.033,0.048,0.047c0.018,0.015,0.044,0.028,0.078,0.042C16.375,41.26,16.456,41.268,16.549,41.26z M20.559,42.518c0.047-0.007,0.087-0.026,0.224-0.132l0.042-0.159c-0.127,0.099-0.154,0.117-0.176,0.134c-0.026,0.017-0.052,0.032-0.089,0.043c-0.037,0.011-0.072,0.011-0.108,0.004c-0.07-0.019-0.122-0.068-0.156-0.143c0.067-0.06,0.13-0.125,0.187-0.189c0.057-0.064,0.106-0.131,0.148-0.198c0.042-0.068,0.068-0.127,0.079-0.172c0.013-0.051,0.013-0.094,0.002-0.13c-0.009-0.036-0.035-0.058-0.07-0.066c-0.054-0.017-0.113-0.003-0.18,0.038c-0.068,0.042-0.129,0.099-0.185,0.174c-0.055,0.076-0.094,0.161-0.117,0.251c-0.024,0.089-0.021,0.179,0.009,0.27c-0.056,0.043-0.108,0.076-0.153,0.098c-0.047,0.023-0.093,0.028-0.141,0.015c-0.042-0.01-0.068-0.034-0.083-0.075c-0.015-0.038-0.015-0.085-0.002-0.14c0.024-0.102,0.094-0.245,0.198-0.429l0.229-0.136c0.05-0.028,0.107-0.066,0.176-0.115c0.068-0.051,0.135-0.106,0.202-0.163c0.067-0.059,0.126-0.123,0.178-0.189c0.056-0.067,0.089-0.131,0.106-0.198c0.015-0.061,0.017-0.115,0.004-0.159c-0.011-0.047-0.035-0.068-0.074-0.068l-0.494,0.01c-0.067,0.06-0.147,0.148-0.237,0.267c-0.092,0.117-0.185,0.25-0.277,0.393c-0.092,0.144-0.174,0.281-0.241,0.408c-0.024,0.046-0.029,0.079-0.047,0.121c-0.139,0.073-0.178,0.09-0.241,0.121c-0.063,0.03-0.115,0.049-0.152,0.061c-0.041,0.007-0.074,0.007-0.104-0.004c-0.026-0.012-0.044-0.03-0.056-0.056c-0.011-0.03-0.011-0.064,0.004-0.11c0.015-0.036,0.039-0.081,0.074-0.132c0.037-0.051,0.078-0.105,0.126-0.162c0.048-0.059,0.076-0.094,0.085-0.104l0.248-0.304l-0.124-0.041c-0.191,0.177-0.361,0.247-0.516,0.208c0.077-0.091,0.127-0.166,0.146-0.221c0.028-0.077,0.009-0.128-0.061-0.153c-0.067-0.026-0.128-0.023-0.185,0.011c-0.056,0.031-0.104,0.072-0.137,0.122c-0.035,0.047-0.059,0.083-0.067,0.105c-0.026,0.076-0.008,0.144,0.057,0.208c-0.058,0.056-0.169,0.075-0.284,0.127c-0.133,0.054-0.236,0.087-0.306,0.103c-0.07,0.011-0.139,0.004-0.207-0.024c-0.07-0.032-0.122-0.081-0.15-0.151c-0.03-0.07-0.033-0.145-0.013-0.232c0.094,0.015,0.192,0.019,0.292,0.022c0.1,0,0.196-0.015,0.289-0.045c0.093-0.034,0.156-0.091,0.191-0.174c0.015-0.038,0.021-0.079,0.018-0.125c-0.004-0.041-0.02-0.087-0.053-0.128c-0.032-0.042-0.078-0.076-0.144-0.102c-0.07-0.032-0.152-0.043-0.241-0.038c-0.085,0.007-0.178,0.034-0.268,0.077c-0.092,0.043-0.176,0.104-0.25,0.179c-0.06,0.061-0.101,0.132-0.139,0.204c-0.1,0.043-0.188,0.08-0.261,0.102c-0.078,0.022-0.139,0.041-0.189,0.053c-0.046,0.012-0.07,0.019-0.074,0.023c0,0.007-0.004,0.025-0.004,0.053c0.004,0.028,0.004,0.041,0.011,0.043c0.013,0.006,0.067-0.003,0.163-0.028c0.096-0.026,0.193-0.058,0.295-0.097c-0.022,0.094-0.025,0.184,0.008,0.265c0.044,0.108,0.122,0.187,0.233,0.234c0.07,0.032,0.141,0.049,0.211,0.053c0.072,0.004,0.15-0.003,0.235-0.022c0.083-0.019,0.18-0.053,0.291-0.096l0,0l0.144-0.058c0.187-0.09,0.233-0.092,0.317-0.168c0.089,0.018,0.168,0.021,0.241,0.006l0.004,0.007c-0.089,0.064-0.17,0.136-0.241,0.214c-0.071,0.077-0.119,0.149-0.143,0.217c-0.028,0.076-0.028,0.143-0.008,0.206c0.02,0.062,0.061,0.103,0.117,0.122c0.046,0.018,0.1,0.021,0.163,0.015c0.059-0.008,0.131-0.026,0.211-0.054c0.078-0.026,0.166-0.063,0.381-0.171c-0.005,0.018-0.019,0.042-0.023,0.059c-0.018,0.072-0.026,0.14-0.015,0.204c0.011,0.067,0.03,0.119,0.067,0.162c0.033,0.042,0.08,0.07,0.133,0.083c0.052,0.015,0.108,0.019,0.163,0.011c0.056-0.008,0.118-0.031,0.193-0.068c0.078-0.036,0.159-0.087,0.248-0.149c0.034,0.051,0.067,0.087,0.096,0.112c0.028,0.026,0.063,0.041,0.104,0.053C20.465,42.523,20.511,42.526,20.559,42.518z M23.081,42.61c-0.039,0.032-0.08,0.068-0.127,0.104c-0.042,0.04-0.082,0.066-0.113,0.087c-0.033,0.019-0.059,0.026-0.081,0.024c-0.065-0.01-0.093-0.056-0.082-0.145c0.004-0.042,0.022-0.11,0.056-0.201c0.032-0.094,0.059-0.17,0.085-0.227l0.167-0.411l-0.082-0.008l-0.307,0.134c-0.03-0.119-0.113-0.181-0.244-0.194c-0.07-0.007-0.148,0.007-0.237,0.045c-0.089,0.038-0.174,0.094-0.265,0.166c-0.089,0.072-0.161,0.159-0.217,0.257c-0.027,0.048-0.032,0.104-0.049,0.155l0.009-0.051c-0.181,0.146-0.242,0.19-0.289,0.221c-0.048,0.029-0.093,0.04-0.137,0.031c-0.026-0.004-0.04-0.019-0.05-0.042c-0.008-0.023-0.01-0.047-0.006-0.076c0.006-0.031,0.015-0.068,0.03-0.107c0.015-0.044,0.026-0.072,0.037-0.091c0.008-0.017,0.02-0.047,0.041-0.087c0.018-0.04,0.037-0.074,0.05-0.1l0.217-0.427l-0.015-0.003l-0.374,0.011c-0.072,0.127-0.142,0.261-0.21,0.397c-0.069,0.14-0.115,0.277-0.137,0.415c-0.018,0.111-0.011,0.198,0.026,0.264c0.035,0.064,0.082,0.1,0.137,0.112c0.046,0.009,0.118-0.011,0.22-0.059c0.098-0.044,0.207-0.116,0.411-0.281c-0.002,0.014-0.011,0.025-0.012,0.039c-0.011,0.121,0.009,0.223,0.065,0.305c0.056,0.084,0.118,0.127,0.196,0.134c0.07,0.007,0.135-0.006,0.2-0.04c0.067-0.034,0.126-0.079,0.182-0.13c0.057-0.055,0.111-0.115,0.167-0.183l0.004,0.003c-0.011,0.079-0.015,0.151-0.004,0.215s0.031,0.114,0.063,0.149c0.03,0.036,0.072,0.055,0.122,0.061c0.037,0.004,0.083-0.004,0.129-0.025c0.05-0.015,0.096-0.041,0.139-0.072c0.042-0.026,0.094-0.064,0.144-0.105c0.054-0.043,0.094-0.076,0.124-0.102L23.081,42.61z M25.345,41.171c0.015-0.015,0.026-0.028,0.031-0.034c0.003-0.01,0.005-0.017,0.007-0.02c0-0.019-0.013-0.036-0.035-0.051c-0.026-0.016-0.044-0.02-0.059-0.02c-0.011,0-0.033,0.011-0.07,0.034c-0.041,0.022-0.08,0.038-0.122,0.034c-0.052,0-0.106-0.012-0.172-0.034c-0.065-0.025-0.12-0.038-0.168-0.038c-0.072,0-0.144,0.021-0.219,0.059c-0.071,0.042-0.137,0.094-0.2,0.163c-0.061,0.064-0.108,0.136-0.146,0.211c-0.039,0.076-0.055,0.146-0.055,0.208c-0.002,0.071,0.017,0.134,0.046,0.187c0.035,0.051,0.07,0.077,0.104,0.077c0.029,0,0.065-0.019,0.103-0.06c0.037-0.042,0.058-0.077,0.059-0.109c0-0.015-0.013-0.034-0.041-0.059c-0.032-0.025-0.054-0.043-0.07-0.068c-0.019-0.023-0.026-0.059-0.026-0.104c0-0.064,0.026-0.125,0.078-0.181c0.05-0.06,0.115-0.091,0.195-0.091c0.02,0,0.039,0.004,0.057,0.008c0.02,0.007,0.043,0.015,0.074,0.024c0.028,0.01,0.058,0.019,0.089,0.026c0.03,0.009,0.056,0.013,0.082,0.013c0.024,0,0.059-0.004,0.103-0.011s0.091-0.023,0.141-0.045l0.006,0.005c-0.087,0.082-0.153,0.149-0.207,0.206c-0.05,0.055-0.096,0.113-0.135,0.174s-0.074,0.13-0.102,0.208c-0.03,0.078-0.057,0.174-0.085,0.287c-0.009,0.049-0.022,0.117-0.035,0.204c-0.015,0.089-0.029,0.169-0.046,0.242c-0.015,0.074-0.035,0.14-0.061,0.197c-0.026,0.06-0.059,0.111-0.102,0.151c-0.018,0.018-0.042,0.039-0.074,0.056c-0.032,0.019-0.065,0.026-0.106,0.026c-0.072,0-0.126-0.031-0.155-0.091c-0.033-0.061-0.048-0.122-0.048-0.191c0-0.051-0.002-0.089-0.007-0.111c-0.006-0.019-0.022-0.028-0.056-0.028c-0.013,0-0.024,0.006-0.037,0.013c-0.015,0.008-0.033,0.019-0.057,0.042c-0.024,0.02-0.047,0.038-0.065,0.049c-0.052,0.045-0.078,0.087-0.078,0.129c0,0.034,0.018,0.075,0.054,0.124c0.035,0.049,0.089,0.089,0.163,0.125c0.074,0.034,0.165,0.053,0.276,0.053c0.111,0.002,0.209-0.019,0.3-0.063c0.089-0.039,0.159-0.09,0.216-0.149c0.065-0.068,0.12-0.14,0.163-0.219c0.043-0.079,0.078-0.162,0.102-0.256c0.027-0.092,0.048-0.188,0.066-0.289c0.015-0.1,0.037-0.229,0.059-0.389c0.026-0.153,0.056-0.274,0.089-0.357s0.078-0.155,0.132-0.212C25.315,41.207,25.33,41.188,25.345,41.171z M26.758,42.697l-0.013-0.163c-0.057,0.077-0.113,0.148-0.172,0.206c-0.061,0.064-0.107,0.094-0.141,0.098c-0.048,0.004-0.078-0.026-0.082-0.083c-0.002-0.026,0.003-0.065,0.018-0.117c0.011-0.051,0.032-0.125,0.058-0.219c0.028-0.099,0.048-0.181,0.063-0.253s0.02-0.131,0.017-0.174c-0.002-0.038-0.013-0.072-0.03-0.102c-0.015-0.028-0.036-0.049-0.067-0.064c-0.029-0.015-0.059-0.021-0.092-0.019c-0.063,0.006-0.132,0.038-0.202,0.094c-0.069,0.056-0.132,0.118-0.185,0.185c-0.055,0.064-0.117,0.144-0.187,0.238l-0.007-0.004c0.007-0.064,0.022-0.138,0.042-0.219c0.018-0.083,0.042-0.17,0.07-0.261l-0.346,0.091c-0.059,0.162-0.102,0.317-0.133,0.47c-0.03,0.147-0.041,0.3-0.03,0.458c0.008,0.089,0.018,0.191,0.039,0.302l0.311-0.1c-0.006-0.09-0.009-0.17-0.009-0.242c0-0.074,0.007-0.167,0.018-0.272c0.2-0.291,0.33-0.438,0.389-0.442c0.024-0.002,0.041,0.013,0.041,0.045c0,0.019-0.015,0.091-0.048,0.21s-0.058,0.217-0.076,0.297c-0.017,0.08-0.024,0.143-0.021,0.196c0.008,0.092,0.034,0.156,0.078,0.196c0.048,0.034,0.1,0.051,0.155,0.047c0.089-0.006,0.182-0.047,0.276-0.127C26.588,42.892,26.677,42.801,26.758,42.697z M33.166,39.214c0.074,0.023,0.148,0.017,0.226-0.019c0.07-0.03,0.117-0.079,0.139-0.153c0.024-0.072,0.007-0.162-0.042-0.27c-0.032,0.055-0.07,0.091-0.115,0.113c-0.022,0.01-0.045,0.015-0.067,0.017c-0.021,0.002-0.041,0.002-0.063,0c-0.018-0.002-0.043-0.005-0.067-0.01C33.191,39.006,33.189,39.112,33.166,39.214z M28.536,41.275c0-0.083,0.007-0.151,0.022-0.204c0.015-0.052,0.037-0.105,0.073-0.153c-0.011-0.013-0.028-0.025-0.05-0.036c-0.02-0.011-0.035-0.015-0.044-0.011c-0.023,0.003-0.061,0.029-0.118,0.068c-0.055,0.041-0.108,0.102-0.155,0.177c-0.033,0.056-0.059,0.115-0.074,0.179c-0.017,0.062-0.026,0.145-0.03,0.243c0,0.097,0.006,0.219,0.018,0.361c0.018,0.136,0.022,0.266,0.015,0.394c-0.007,0.129-0.037,0.234-0.085,0.319c-0.019,0.028-0.043,0.054-0.074,0.081c-0.033,0.03-0.063,0.045-0.093,0.055c-0.1,0.023-0.163-0.025-0.189-0.136c-0.004-0.017-0.007-0.055-0.011-0.115s-0.007-0.094-0.011-0.106c-0.004-0.019-0.015-0.03-0.026-0.038c-0.017-0.006-0.032-0.006-0.048-0.003c-0.015,0.005-0.055,0.032-0.111,0.085c-0.059,0.055-0.098,0.096-0.118,0.13c-0.015,0.025-0.018,0.053-0.011,0.091c0.02,0.083,0.071,0.147,0.152,0.196s0.185,0.059,0.311,0.031c0.126-0.03,0.233-0.079,0.33-0.151c0.095-0.076,0.168-0.155,0.222-0.242c0.046-0.076,0.082-0.155,0.106-0.234c0.024-0.083,0.039-0.178,0.042-0.283c0.004-0.105,0-0.226-0.017-0.355C28.543,41.473,28.536,41.362,28.536,41.275z M29.062,41.217c0.007-0.07,0.004-0.147-0.015-0.236c-0.015-0.066-0.043-0.128-0.082-0.185c-0.044-0.057-0.095-0.106-0.156-0.14c-0.063-0.038-0.137-0.061-0.226-0.069c-0.085-0.012-0.185-0.004-0.296,0.022c-0.167,0.04-0.309,0.1-0.421,0.188c-0.115,0.083-0.208,0.185-0.278,0.302c-0.057,0.09-0.096,0.181-0.111,0.264c-0.018,0.087-0.018,0.166,0,0.242c0.014,0.068,0.046,0.125,0.092,0.174c0.05,0.049,0.098,0.063,0.141,0.056c0.023-0.007,0.067-0.034,0.132-0.083c0.063-0.051,0.092-0.087,0.087-0.11c-0.004-0.023-0.011-0.038-0.02-0.041c-0.011-0.004-0.028-0.012-0.054-0.015c-0.024-0.004-0.048-0.013-0.07-0.025c-0.039-0.028-0.067-0.072-0.082-0.134c-0.017-0.083,0-0.172,0.044-0.272c0.048-0.1,0.118-0.192,0.218-0.272c0.1-0.079,0.215-0.136,0.342-0.166c0.072-0.015,0.138-0.019,0.201-0.008c0.067,0.012,0.122,0.042,0.171,0.087c0.044,0.043,0.078,0.104,0.094,0.177c0.032,0.136,0.009,0.277-0.067,0.424c-0.011,0.025-0.024,0.048-0.031,0.068c-0.011,0.017-0.015,0.033-0.011,0.048c0,0.012,0.007,0.023,0.022,0.031c0.045,0.03,0.084,0.041,0.126,0.032c0.022-0.005,0.052-0.025,0.085-0.058c0.037-0.033,0.067-0.068,0.089-0.104C29.026,41.351,29.051,41.287,29.062,41.217z M35.284,39.628l-0.063-0.153c-0.011,0.044-0.022,0.077-0.03,0.102c-0.007,0.022-0.015,0.042-0.024,0.058c-0.009,0.02-0.021,0.036-0.035,0.051c-0.017,0.015-0.037,0.028-0.063,0.038c-0.059,0.026-0.12,0.026-0.181-0.002c0-0.141-0.013-0.266-0.03-0.375c-0.018-0.109-0.044-0.204-0.076-0.284c-0.02-0.045-0.035-0.077-0.05-0.098c-0.017-0.019-0.048-0.031-0.093-0.031c-0.044-0.004-0.111,0.015-0.2,0.051c-0.07,0.033-0.142,0.08-0.213,0.148c-0.07,0.07-0.127,0.149-0.172,0.243c-0.047,0.093-0.07,0.201-0.076,0.314c-0.008,0.093,0.019,0.191,0.05,0.288c-0.03,0.094-0.06,0.165-0.078,0.214c-0.024,0.049-0.059,0.083-0.1,0.102c-0.023,0.011-0.044,0.008-0.063-0.005c-0.021-0.015-0.035-0.034-0.047-0.063c-0.013-0.028-0.024-0.064-0.031-0.105c-0.011-0.046-0.017-0.076-0.02-0.094c-0.004-0.022-0.007-0.053-0.013-0.096c-0.004-0.045-0.007-0.081-0.011-0.111l-0.048-0.479l-0.015,0.007l-0.305,0.217c0.008,0.148,0.021,0.297,0.039,0.451c0.014,0.128,0.049,0.242,0.09,0.352l-0.046-0.105c-0.052,0.138-0.1,0.238-0.137,0.304c-0.035,0.068-0.082,0.115-0.141,0.143c-0.048,0.019-0.096,0.016-0.143-0.02c-0.046-0.034-0.087-0.087-0.116-0.157c-0.032-0.067-0.056-0.136-0.074-0.2c0.032-0.098,0.061-0.201,0.085-0.312c0.028-0.112,0.044-0.223,0.052-0.332c0.011-0.111,0.008-0.221-0.009-0.334c-0.015-0.115-0.046-0.223-0.09-0.329c-0.03-0.072-0.065-0.121-0.1-0.154c-0.037-0.032-0.07-0.032-0.1,0l-0.277,0.276c-0.008,0.046-0.009,0.133-0.009,0.257c0,0.126,0.005,0.268,0.018,0.43c0.013,0.159,0.035,0.317,0.065,0.472c0.026,0.139,0.064,0.254,0.108,0.361c-0.05,0.132-0.095,0.231-0.133,0.292c-0.037,0.064-0.089,0.109-0.155,0.14c-0.07,0.03-0.141,0.034-0.211,0.011c-0.07-0.026-0.129-0.076-0.174-0.147c0.07-0.064,0.144-0.132,0.211-0.206c0.068-0.074,0.124-0.157,0.163-0.245c0.041-0.091,0.042-0.177,0.008-0.261c-0.018-0.039-0.042-0.07-0.078-0.1c-0.033-0.026-0.078-0.042-0.127-0.045c-0.052-0.006-0.109,0.007-0.172,0.038c-0.072,0.031-0.135,0.083-0.189,0.155c-0.056,0.07-0.1,0.154-0.13,0.253c-0.03,0.098-0.044,0.202-0.041,0.31c0.004,0.079,0.027,0.148,0.049,0.218c-0.03,0.084-0.042,0.119-0.049,0.141s-0.015,0.041-0.024,0.06c-0.007,0.019-0.02,0.036-0.035,0.049c-0.015,0.015-0.035,0.031-0.063,0.042c-0.057,0.025-0.12,0.025-0.182-0.004c0-0.14-0.013-0.265-0.03-0.376c-0.018-0.108-0.044-0.202-0.078-0.281c-0.018-0.045-0.033-0.079-0.048-0.1c-0.017-0.019-0.048-0.031-0.094-0.031c-0.046-0.002-0.113,0.017-0.198,0.051c-0.074,0.032-0.144,0.083-0.213,0.151c-0.07,0.068-0.127,0.149-0.172,0.242c-0.046,0.095-0.07,0.2-0.076,0.317c-0.003,0.071,0.023,0.146,0.041,0.221l-0.002-0.007c-0.048,0.102-0.067,0.141-0.099,0.204c-0.032,0.064-0.057,0.111-0.083,0.143c-0.026,0.031-0.052,0.053-0.08,0.062c-0.027,0.01-0.053,0.007-0.079-0.007c-0.026-0.015-0.048-0.043-0.063-0.089c-0.011-0.037-0.018-0.087-0.022-0.149c-0.004-0.064-0.004-0.13-0.004-0.21c0.002-0.075,0.002-0.118,0.002-0.13l0.008-0.398l-0.12,0.049c-0.039,0.256-0.13,0.422-0.276,0.487c0.004-0.119-0.001-0.208-0.02-0.265c-0.026-0.075-0.074-0.104-0.142-0.081c-0.068,0.025-0.113,0.066-0.139,0.129c-0.024,0.062-0.037,0.123-0.033,0.181c0,0.061,0.008,0.104,0.015,0.127c0.026,0.076,0.083,0.117,0.172,0.123c-0.013,0.087-0.05,0.191-0.109,0.314l0.039,0.115l0.032-0.007c0.089-0.19,0.141-0.34,0.159-0.452c0.077-0.043,0.141-0.093,0.189-0.149l0.007,0.003c-0.029,0.11-0.048,0.215-0.055,0.319c-0.008,0.106,0,0.194,0.022,0.261c0.024,0.077,0.067,0.132,0.118,0.166c0.056,0.032,0.111,0.042,0.17,0.021c0.044-0.015,0.089-0.045,0.131-0.09c0.043-0.048,0.089-0.106,0.132-0.177c0.046-0.07,0.094-0.156,0.177-0.331c0.035,0.076,0.073,0.143,0.127,0.185c0.057,0.049,0.12,0.076,0.185,0.083c0.063,0.008,0.122,0,0.176-0.023c0.089-0.038,0.159-0.098,0.213-0.183c0.052-0.085,0.091-0.183,0.109-0.298c0.059,0.01,0.105,0.012,0.139,0.01c0.037-0.002,0.068-0.011,0.102-0.024c0.042-0.017,0.076-0.043,0.102-0.074c0.028-0.033,0.05-0.073,0.084-0.167c0.054,0.092,0.12,0.162,0.206,0.194c0.109,0.04,0.218,0.034,0.331-0.017c0.067-0.032,0.128-0.071,0.178-0.122c0.056-0.051,0.1-0.114,0.145-0.191c0.042-0.073,0.084-0.169,0.128-0.279c0.039,0.066,0.081,0.121,0.128,0.152c0.067,0.045,0.126,0.064,0.181,0.06c0.055-0.004,0.103-0.015,0.142-0.032c0.065-0.032,0.135-0.091,0.202-0.181c0.068-0.09,0.139-0.22,0.209-0.388c0.001,0.003,0.001,0.008,0.003,0.011c0.044,0.104,0.098,0.174,0.163,0.206c0.065,0.034,0.122,0.039,0.174,0.017c0.044-0.017,0.092-0.076,0.153-0.172c0.06-0.095,0.113-0.215,0.159-0.359l-0.006-0.015c0.031,0.055,0.061,0.113,0.101,0.147c0.059,0.049,0.12,0.075,0.185,0.083c0.063,0.008,0.122,0,0.176-0.023c0.089-0.036,0.161-0.098,0.213-0.181c0.055-0.084,0.092-0.185,0.113-0.298c0.057,0.01,0.102,0.013,0.139,0.01c0.033-0.002,0.067-0.01,0.1-0.025c0.041-0.015,0.076-0.041,0.104-0.072C35.245,39.719,35.265,39.677,35.284,39.628z M30.798,41.151c-0.059-0.149-0.049-0.298,0.033-0.449c-0.011-0.003-0.033,0.004-0.063,0.016c-0.077,0.034-0.129,0.09-0.163,0.169c-0.033,0.083-0.044,0.177-0.033,0.285c0.013,0.107,0.041,0.219,0.085,0.33c0.031,0.076,0.07,0.134,0.12,0.177c0.05,0.041,0.102,0.051,0.158,0.028c0.029-0.014,0.053-0.04,0.076-0.087c0.024-0.047,0.039-0.104,0.052-0.179C30.936,41.377,30.85,41.279,30.798,41.151z M32.802,39.641c0.003-0.095,0.002-0.187-0.009-0.276c-0.011-0.091-0.029-0.17-0.059-0.232c-0.034-0.078-0.067-0.108-0.1-0.092c-0.019,0.009-0.033,0.056-0.037,0.147c-0.004,0.091,0.003,0.215,0.022,0.374s0.05,0.344,0.099,0.551l0.007,0.004c0.016-0.053,0.035-0.121,0.05-0.204C32.789,39.829,32.798,39.739,32.802,39.641z M31.967,40.365c-0.037-0.085-0.089-0.113-0.148-0.087c-0.044,0.019-0.074,0.06-0.092,0.121c-0.017,0.06-0.022,0.132-0.015,0.211c0.008,0.081,0.03,0.158,0.061,0.235l0.013,0.03c0.098-0.075,0.161-0.158,0.192-0.249C32.006,40.535,32,40.447,31.967,40.365z"/><path fill="#ffce65" d="M23.926,8.036c0.005-0.199,0.002-0.895,0-1.368l2.034,2.799L23.926,8.036z M26.618,20.268c-0.148-0.018-0.226-0.151-0.342-0.206c0.054,0.066,0.031,0.187,0.129,0.206c0.053,0.187,0.137,0.347,0.214,0.512h0.498c-0.105-0.198-0.241-0.37-0.425-0.455C26.672,20.293,26.607,20.336,26.618,20.268z M27.336,18.926c-0.053-0.285-0.376-0.24-0.6-0.285c0.3,0.472,0.493,1.137,0.289,1.695c0.148,0.109,0.342,0.274,0.537,0.317c-0.033-0.068,0.043-0.043,0.063-0.087c-0.02-0.23,0.044-0.417,0.022-0.646c-0.022-0.023-0.042-0.098-0.011-0.121C27.55,19.505,27.477,19.2,27.336,18.926z M22.097,15.168c0.224,0.153,0.577,0.166,0.815,0.046c0.148-0.046,0.141-0.208,0.17-0.329c-0.053-0.141-0.235-0.109-0.374-0.132l-0.034,0.276c-0.107,0.031-0.182,0.151-0.322,0.108c-0.052-0.066-0.17-0.087-0.17-0.198c0.022-0.021,0.011-0.098,0.065-0.064c0.009,0,0.021,0.011,0.009,0.023l0.119,0.01c0.032,0,0.044-0.044,0.044-0.076c-0.141-0.185-0.418-0.099-0.569-0.021C21.839,14.994,21.978,15.058,22.097,15.168z M24.26,19.91c-0.043,0.317-0.161,0.59-0.257,0.87h0.455C24.472,20.451,24.317,20.256,24.26,19.91z M23.64,20.434c-0.202,0.164-0.439,0.208-0.685,0.338c-0.039-0.001-0.057,0.006-0.087,0.008h1.047c0.086-0.242,0.156-0.52,0.208-0.795C23.962,20.128,23.864,20.359,23.64,20.434z M25.355,6.996l-1.303-0.424l2.036,2.802L25.355,6.996z M21.604,9.375l2.037-2.802l-1.303,0.424L21.604,9.375z M22.836,5.165l-2.489,0.039l3.294,1.071L22.836,5.165z M23.768,2.717l-0.804,2.355l0.804,1.108V2.717z M24.101,6.423l1.304,0.424l1.991-1.494L24.101,6.423z M23.592,6.423l-3.294-1.07l1.991,1.494L23.592,6.423z M27.345,5.203l-2.488-0.039l-0.805,1.109L27.345,5.203z M23.769,8.033c0.004-0.145,0.002-0.813-0.001-1.369l-2.037,2.802L23.769,8.033z M23.925,2.717v3.464l0.805-1.109L23.925,2.717z M26.49,20.78c-0.114-0.252-0.244-0.441-0.387-0.729c-0.17-0.153-0.214-0.458-0.461-0.557c0.097,0.455,0.074,0.969-0.225,1.286H26.49z M35.872,6.996L34.57,6.573l2.036,2.801L35.872,6.996z M33.548,24.17c0.078,0.043,0.078,0.143,0.15,0.164c0.12-0.208,0.246-0.468,0.246-0.733c0.097-0.261,0.097-0.578,0.056-0.874c-0.087-0.24-0.056-0.534-0.172-0.808c-0.106-0.906-0.343-1.682-0.482-2.6c-0.13,0.097-0.117,0.317-0.214,0.457c0.042,0.154-0.235,0.242-0.076,0.362c0.033,0.11,0.033,0.229,0.044,0.34c0.129,0.283,0.105,0.687,0.246,1.004c0.011,0.14,0.011,0.272,0.042,0.404c0.074,0.502,0.237,0.917,0.214,1.463c-0.011,0-0.022-0.01-0.033-0.01c0.022-0.394-0.17-0.68-0.181-1.05c-0.141-0.612-0.322-1.171-0.428-1.826c-0.024-0.055,0-0.199-0.098-0.206c-0.085,0.131-0.215,0.25-0.354,0.37c0.161,0.895,0.332,1.54,0.494,2.458C33.111,23.481,33.346,23.833,33.548,24.17z M35.426,21.09c0.063,0.753,0.47,1.255,0.899,1.791c0.159-0.053,0.096-0.272,0.202-0.393c0.032-0.098,0-0.132,0.076-0.208c-0.011-0.261,0.076-0.447,0.085-0.689c-0.13-0.677-0.256-1.211-0.385-1.901c-0.063-0.197-0.096-0.427-0.172-0.612c-0.065-0.427-0.183-0.808-0.3-1.223c-0.096-0.185-0.043-0.295-0.15-0.48c0.022-0.317-0.17-0.502-0.234-0.787c-0.033-0.153-0.088-0.349-0.129-0.447c-0.022-0.242-0.15-0.438-0.236-0.644c-0.074,0.054-0.022,0.162-0.118,0.187c0.033,0.118-0.094,0.141-0.105,0.228c-0.141,0.087,0.031,0.196,0.011,0.329c0.031,0.108,0.042,0.206,0.094,0.294c-0.052,0.283,0.141,0.426,0.141,0.664c0.022,0.177,0.107,0.306,0.085,0.483c0.085,0.196,0.096,0.404,0.181,0.6c0.044,0.251,0.096,0.427,0.174,0.623c0.074,0.611,0.351,1.408,0.403,2.118c-0.117-0.034-0.03-0.283-0.117-0.393c-0.105-0.317-0.181-0.698-0.279-1.05c-0.072-0.24-0.117-0.502-0.148-0.742c-0.118-0.24-0.085-0.47-0.192-0.7c-0.056-0.294-0.141-0.611-0.237-0.906c-0.02-0.306-0.159-0.514-0.214-0.797c-0.011-0.089-0.031-0.208-0.096-0.219c-0.008,0.261-0.17,0.47-0.278,0.689c0.15,0.721,0.418,1.331,0.515,2.052c0.085,0.066,0.031,0.296,0.096,0.397c0.055,0.325,0.226,0.589,0.237,0.927c0.074,0.153,0.021,0.317,0.126,0.447C35.339,20.816,35.382,20.99,35.426,21.09z M36.479,9.467l-2.035-2.8c0.003,0.473,0.005,1.168,0,1.369L36.479,9.467z M34.826,23.341c0.019,0.096,0.106,0.121,0.137,0.196c0.13,0.087,0.096-0.089,0.15-0.121c0.087-0.317,0.215-0.669,0.183-1.017c0.17-0.347-0.054-0.776-0.063-1.146l-0.055-0.077c0.044-0.262-0.107-0.413-0.118-0.644c0-0.053-0.062-0.045-0.031-0.132c-0.074-0.206-0.065-0.381-0.159-0.6h-0.024c-0.008-0.099,0.024-0.261-0.072-0.327c0.042-0.143-0.088-0.296-0.065-0.449c-0.173-0.557-0.332-1.191-0.461-1.801c-0.076,0.251-0.161,0.534-0.28,0.808c0.107,0.142,0.013,0.372,0.128,0.502c0,0.285,0.161,0.591,0.161,0.897c0.129,0.459,0.192,0.917,0.344,1.354c0.074,0.447,0.117,0.864,0.204,1.312l-0.023,0.023c-0.085-0.253-0.096-0.362-0.139-0.634c-0.022-0.196-0.107-0.24-0.107-0.449c-0.074-0.078-0.021-0.231-0.087-0.317c-0.019-0.238-0.137-0.48-0.171-0.733c-0.042-0.151-0.053-0.327-0.139-0.457c0.032-0.285-0.098-0.515-0.15-0.732c-0.076-0.163-0.107-0.46-0.181-0.58c-0.097,0.263-0.085,0.603-0.269,0.84c-0.064,0.242,0.106,0.471,0.099,0.721c0.159,0.613,0.213,1.246,0.352,1.857c0.052,0.121,0.045,0.253,0.063,0.374C34.255,22.465,34.429,23.024,34.826,23.341z M31.752,21.368c0.059-0.161,0.045-0.316,0.001-0.474L31.752,21.368z M39.386,21.254c-0.063-0.45-0.191-0.799-0.278-1.257c-0.029-0.132-0.074-0.23-0.063-0.37c-0.044-0.264-0.118-0.524-0.174-0.808c-0.104-0.034-0.256-0.045-0.341-0.057c0.054,0.164,0.096,0.294,0.128,0.449c0.141,0.502,0.15,1.057,0.354,1.616c0.022,0.294,0.085,0.479,0.159,0.744c0.067,0.283,0.141,0.623,0.174,0.917L39.26,22.4c-0.096-0.557-0.28-0.916-0.355-1.486c-0.161-0.404-0.222-0.895-0.331-1.333c-0.021-0.14-0.106-0.207-0.076-0.317c-0.094-0.128-0.085-0.294-0.159-0.436c0.033-0.194-0.237-0.274-0.367-0.393c-0.117-0.187-0.3-0.317-0.427-0.469c0.12,0.427,0.172,0.721,0.311,1.125c-0.032,0.11,0.065,0.185,0.022,0.272c0.074,0.178,0.085,0.363,0.128,0.547c0.044,0.132,0.067,0.253,0.129,0.359c0.032,0.1,0.085,0.212,0.063,0.342c0.13,0.523,0.311,1.025,0.441,1.573c0.052,0.064,0,0.187,0.085,0.23c0.011,0.151,0.097,0.228,0.173,0.36c-0.032,0.164,0.15,0.194,0.127,0.349c0.074,0.064,0.085,0.153,0.172,0.196c0.054,0.207,0.246,0.349,0.354,0.468c0.118,0.023,0.096,0.21,0.256,0.166c0.085,0.107,0.279,0.162,0.44,0.13c0.193,0.01,0.363-0.032,0.504-0.164c-0.204-0.045-0.344-0.164-0.482-0.306c0-0.064-0.119-0.11-0.107-0.185c-0.118-0.045-0.107-0.219-0.161-0.283c-0.109-0.087-0.043-0.274-0.15-0.351c-0.141-0.449-0.3-0.895-0.418-1.365C39.441,21.364,39.43,21.3,39.386,21.254z M38.072,21.069c-0.259-0.689-0.322-1.586-0.548-2.329c-0.065-0.03,0.011-0.119-0.065-0.13c-0.021-0.24-0.117-0.523-0.172-0.764c0-0.349-0.298-0.436-0.492-0.678c-0.117-0.228-0.354-0.459-0.385-0.753h-0.033c0.056,0.098,0.033,0.273,0.118,0.37c0.063,0.285,0.107,0.602,0.215,0.899c0.086,0.021,0,0.053,0.023,0.108c0.085,0.262,0.226,0.534,0.215,0.81c0.137,0.196,0.074,0.438,0.171,0.623c0.128,0.6,0.333,1.299,0.374,1.933c-0.106-0.306-0.171-0.645-0.256-0.981c-0.087-0.23-0.033-0.483-0.193-0.657c-0.011-0.143-0.022-0.253-0.085-0.329c0.063-0.032-0.024-0.087-0.033-0.11c0.041-0.076-0.011-0.185-0.044-0.251c-0.117-0.273-0.128-0.59-0.244-0.863c0.011-0.262-0.109-0.449-0.172-0.667c0.009-0.153-0.076-0.274-0.087-0.404c-0.074-0.164-0.085-0.285-0.126-0.449c-0.033-0.174-0.14-0.35-0.205-0.491c-0.311-0.415-0.407-0.885-0.566-1.353c-0.109-0.219-0.183-0.524-0.398-0.702c-0.063-0.019-0.118-0.076-0.171-0.053c0.052,0.087,0.108,0.164,0.148,0.251c0.023,0.338,0.085,0.58,0.096,0.908c0.056,0.098,0.045,0.217,0.141,0.283c0.192,0.589,0.396,1.19,0.566,1.78c-0.019,0.251,0.194,0.383,0.151,0.625c0.063,0.151,0.074,0.404,0.193,0.555c0.13,0.657,0.311,1.312,0.43,1.958c0.128,0.48,0.171,1.025,0.385,1.429c0.215,0.404,0.534,0.744,0.835,1.061l0.085-0.121c0.132-0.457,0.172-0.883,0.132-1.387C38.005,21.144,38.102,21.144,38.072,21.069z M31.747,23.474c0.033,0.174,0.057,0.351,0.086,0.524c0.183,0.349,0.441,0.677,0.761,0.915c0.13-0.206,0.172-0.468,0.257-0.676c0-0.317,0-0.721-0.052-1.016c-0.011-0.098-0.064-0.23-0.076-0.317c-0.053-0.381-0.138-0.884-0.235-1.246c0.097-0.121-0.055-0.164-0.022-0.297c-0.011-0.085-0.085-0.174-0.074-0.27c-0.033-0.043-0.054,0-0.078,0.012c0.033,0.043-0.019,0.075-0.041,0.098c-0.044,0.108-0.181,0.207-0.246,0.317c0.009,0.425,0.128,0.927,0.195,1.387c-0.044,0.294,0.093,0.546,0.063,0.842h-0.022c-0.137-0.502-0.203-1.004-0.3-1.499c-0.031-0.128-0.02-0.338-0.117-0.436c-0.019,0.082-0.06,0.145-0.097,0.21L31.747,23.474z M37.862,5.203l-2.489-0.039l-0.805,1.109L37.862,5.203z M34.618,6.423l1.303,0.424l1.991-1.494L34.618,6.423z M33.351,5.165l-2.487,0.039l3.294,1.07L33.351,5.165z M28.232,23.446c-0.422,0.623-0.352,1.539,0.094,2.135l0.102,0.038l-0.615,0.914c0.318,0.068,0.774,0.266,1.057,0.004c0.191-0.166,0.47-0.245,0.742-0.181l-0.07,0.14c-0.329-0.041-0.583,0.117-0.815,0.294c-0.47,0.111-0.84-0.149-1.299-0.149c-0.444-0.058-0.729,0.178-1.118,0.225c-0.485,0.049-0.841-0.274-1.335-0.17c-0.335,0.079-0.639,0.276-1.024,0.19c-0.306-0.108-0.601-0.262-0.977-0.211c-0.3,0.04-0.566,0.134-0.863,0.179c-0.588,0.032-1.089-0.404-1.669-0.134c-0.3,0.183-0.777,0.202-1.129,0.089c-0.259-0.049-0.474-0.242-0.762-0.177l-0.606,0.143l-0.068-0.138l0.77-0.176c0.25,0.007,0.432,0.143,0.659,0.19c0.207,0.055,0.433,0.102,0.67,0.062c-0.287-0.281-0.589-0.57-0.891-0.859l-1.793-0.78l0.028-0.068l1.805,0.689c0.159,0.021,0.327,0.04,0.487,0.064l-0.028-0.04l-0.959-0.865c0.241-0.672,1.099-1.291,1.957-1.446c0.194-0.04,0.42-0.053,0.633-0.038l0.22,0.166c0.015-0.177,0.008-0.362,0.008-0.54c-0.103-0.049-0.256-0.076-0.37-0.026c-0.096,0.042-0.182,0.117-0.304,0.094c-0.187-0.012-0.315-0.132-0.47-0.2c0.133,0.013,0.352,0.061,0.494-0.011c0.106-0.113,0.235-0.223,0.426-0.196l0.224,0.039l0.008-0.07l0.074-0.004l0.026,1.155v0.012c0.167,0.023,0.315,0.076,0.454,0.151l0.18,0.629c-0.183-0.104-0.392-0.168-0.618-0.183v0.113c0.244,0.026,0.466,0.091,0.657,0.204l0.22,0.806c-0.248-0.147-0.533-0.227-0.853-0.247l0.007,0.604l0.042,0.007l2.403,0.034c0.017-0.048,0.009-0.102,0.009-0.153c-0.501-0.314-1.227-0.119-1.705,0.098l0.474-1.304c0.392-0.113,0.813-0.177,1.255-0.196l0.007-0.094c-0.4-0.223-0.963-0.076-1.333,0.094l0.37-1.042c0.306-0.091,0.633-0.138,0.974-0.155c0.004-0.026,0.022-0.048,0.004-0.072c-0.279-0.174-0.672-0.062-0.94,0.053l0.256-0.725c0.215-0.064,0.448-0.108,0.7-0.11c0.007-0.125,0.018-0.255,0.007-0.387c-0.111-0.055-0.278-0.059-0.39-0.006c-0.076,0.041-0.154,0.093-0.265,0.083c-0.191-0.01-0.326-0.132-0.489-0.208c0.148,0.026,0.33,0.051,0.481,0.012c0.109-0.102,0.23-0.234,0.415-0.221c0.089,0.006,0.163,0.043,0.251,0.048l0.013-0.087h0.067c0,0.253,0.011,0.501,0.008,0.758c0.27,0.01,0.526,0.038,0.756,0.111l0.211,0.734c-0.266-0.125-0.657-0.219-0.944-0.068c-0.022,0.019-0.007,0.051-0.015,0.076c0.404,0.007,0.785,0.041,1.129,0.162l0.294,1.042c-0.387-0.176-0.99-0.329-1.39-0.072c-0.026,0.012-0.011,0.042-0.015,0.064c0.482,0.004,0.948,0.062,1.366,0.204l0.363,1.304c-0.479-0.217-1.194-0.4-1.707-0.112L24.256,25.9l1.86,0.03l0.013-0.034l0.026-3.141h0.074v0.061c0.152-0.02,0.35-0.083,0.489,0.011c0.085,0.056,0.141,0.17,0.263,0.185c0.139,0.011,0.274-0.006,0.398-0.03c-0.193,0.091-0.383,0.261-0.633,0.187c-0.096-0.049-0.185-0.108-0.309-0.108c-0.063,0.015-0.133,0.019-0.195,0.049l0.009,0.385c0.122,0.053,0.27,0.081,0.413,0.111C27.19,23.724,27.791,23.652,28.232,23.446z M20.609,24.622l0.126-0.627c0.2-0.132,0.437-0.197,0.7-0.212v-0.242c-0.329-0.018-0.581,0.125-0.81,0.306c-0.611,0.546-0.927,1.189-0.989,1.913l0.659,0.092l1.118,0.015v-0.595c-0.369,0.021-0.692,0.141-0.987,0.296l0.159-0.793c0.235-0.162,0.52-0.26,0.84-0.276v-0.117C21.118,24.395,20.849,24.493,20.609,24.622z M26.255,23.538l0.044,1.754C26.582,24.765,26.522,24.051,26.255,23.538z M27.838,25.377c-0.431-0.212-1.092-0.255-1.545-0.049l0.015,0.604l1.458,0.019l0.548-0.374L27.838,25.377z M34.284,2.716l-0.806,2.356l0.806,1.109V2.716z M34.109,6.423l-3.294-1.071l1.991,1.495L34.109,6.423z M32.121,9.373l2.036-2.8l-1.303,0.424L32.121,9.373z M22.098,19.8l-0.031,0.023c-0.065-0.089-0.161,0.012-0.226-0.023c-0.127,0.098-0.28,0.064-0.407,0.185c-0.354,0.091-0.579,0.438-0.772,0.733c0.03,0.021,0.062,0.042,0.094,0.062h1.302c0-0.004-0.003-0.004-0.002-0.008c0.042-0.206,0.161-0.479,0.246-0.666c-0.085,0.043-0.182,0.057-0.204,0.144c-0.022,0-0.031,0-0.042-0.011c-0.183,0.098-0.441,0.141-0.633,0.217c0.322-0.206,0.75-0.36,1.029-0.644L22.098,19.8z M34.442,2.717v3.464l0.805-1.109L34.442,2.717z M34.284,6.665l-2.037,2.802l2.039-1.434c0.005-0.143,0.003-0.813,0-1.37L34.284,6.665L34.284,6.665z M31.717,20.599c0.085,0.13,0.246,0.206,0.258,0.383c0.054-0.079,0.215-0.132,0.237-0.253c0.011-0.055,0.085-0.143,0.041-0.185c0.044-0.143,0.118-0.276,0.096-0.46c0.011-0.174-0.159-0.349-0.063-0.502c0.182,0.121,0.182,0.404,0.244,0.6c0.291-0.217,0.407-0.578,0.537-0.906c0.085-0.325-0.074-0.534-0.106-0.829c0.202,0.02,0.244,0.315,0.287,0.504c0.226-0.317,0.355-0.734,0.311-1.138c0.011-0.175-0.117-0.315-0.085-0.458c0.193,0.032,0.193,0.262,0.237,0.436h0.042c0.031-0.021,0.042-0.076,0.054-0.13c0.159-0.317,0.266-0.71,0.202-1.114c0.024-0.174-0.311-0.285-0.106-0.404l0.032,0.053c0.127,0.023,0.105,0.143,0.183,0.208c0.02,0.089,0.042,0.23,0.127,0.23c0.215-0.361,0.385-0.863,0.235-1.291c-0.011-0.108-0.17-0.217-0.097-0.336c0.13,0.023,0.215,0.174,0.247,0.317c0.042,0.064,0.011,0.196,0.076,0.217c0.267-0.393,0.181-0.984,0.129-1.463c-0.078-0.098-0.226-0.185-0.195-0.351c0.065-0.098,0.117-0.23,0.28-0.174c0.17,0.064,0.396,0.153,0.503,0.329c0.054-0.013,0.063,0.043,0.074,0.076c0.472,0.546,0.504,1.322,0.825,1.922l0.042-0.468c0.074-0.132,0.042-0.36,0.17-0.46l0.021,0.013c-0.063,0.391-0.085,0.938,0.109,1.299c0.085,0.141,0.096,0.349,0.246,0.436c0.063,0.153,0.171,0.317,0.332,0.394c0.012-0.242-0.074-0.513,0.031-0.719c0.033-0.013,0.067,0,0.085,0.03c-0.085,0.155,0.033,0.294,0.033,0.46c0.096,0.249,0.141,0.555,0.344,0.733c0.074,0.227,0.278,0.317,0.396,0.512c0.108,0,0.096,0.153,0.204,0.13c0.129,0.132,0.289,0.198,0.437,0.274c0.311,0.13,0.622,0.164,0.944,0.032c-0.074-0.076-0.226-0.053-0.289-0.174c-0.267-0.053-0.376-0.359-0.515-0.557c-0.148-0.36-0.311-0.744-0.448-1.093c0-0.163-0.14-0.228-0.129-0.393c-0.076-0.141-0.141-0.351-0.193-0.536c-0.085-0.121-0.054-0.327-0.174-0.438c0.033-0.174-0.159-0.228-0.126-0.404c-0.089-0.019-0.065-0.162-0.12-0.205c-0.159-0.372-0.372-0.667-0.578-0.995c-0.094,0.011-0.074-0.11-0.116-0.166c-0.163-0.106-0.204-0.292-0.385-0.391c-0.559-0.47-1.103-0.961-1.919-0.908c-0.235,0.087-0.472,0.155-0.676,0.264c-0.289,0.194-0.589,0.468-0.737,0.774c-0.078,0.11-0.099,0.261-0.183,0.36c0.02,0.176-0.183,0.217-0.161,0.404c-0.107,0.141-0.15,0.308-0.192,0.493c-0.31,0.676-0.463,1.484-0.772,2.152l-0.031,0.011c-0.022,0.196-0.107,0.295-0.192,0.457c-0.13,0.352-0.235,0.721-0.419,1.031c-0.118,0.14-0.181,0.37-0.289,0.523c-0.161,0.272-0.311,0.589-0.483,0.863c-0.271,0.392-0.569,0.778-0.868,1.165h1.999c-0.016-0.049-0.031-0.098-0.046-0.149C31.686,20.61,31.697,20.585,31.717,20.599z M22.605,28.692c0.144,0,0.263,0.018,0.356,0.058c0.092,0.039,0.177,0.098,0.251,0.177c0.011,0.076,0.015,0.175,0.018,0.302h0.13c0.003-0.111,0.015-0.228,0.033-0.357c0.009-0.079,0.023-0.147,0.041-0.202l-0.009-0.021c-0.157-0.058-0.298-0.098-0.417-0.123c-0.118-0.023-0.255-0.034-0.407-0.034c-0.439,0-0.778,0.113-1.018,0.34c-0.241,0.228-0.361,0.519-0.361,0.88c0,0.209,0.041,0.404,0.124,0.581c0.052,0.119,0.13,0.228,0.226,0.329c0.102,0.104,0.222,0.183,0.367,0.247c0.181,0.074,0.389,0.113,0.625,0.113c0.167,0,0.306-0.015,0.418-0.043c0.109-0.026,0.233-0.079,0.374-0.153l0.078-0.174l-0.041-0.038c-0.12,0.064-0.231,0.107-0.333,0.133s-0.209,0.041-0.322,0.041c-0.174,0-0.322-0.026-0.442-0.081c-0.091-0.043-0.18-0.107-0.265-0.199c-0.088-0.088-0.159-0.2-0.213-0.337c-0.054-0.138-0.08-0.297-0.08-0.48c0-0.304,0.078-0.538,0.237-0.708C22.133,28.775,22.342,28.692,22.605,28.692z M20.765,30.406c-0.074,0-0.133,0.026-0.185,0.076c-0.052,0.052-0.076,0.117-0.076,0.191s0.024,0.138,0.076,0.189c0.052,0.053,0.115,0.079,0.185,0.079c0.074,0,0.133-0.026,0.185-0.079c0.052-0.051,0.078-0.115,0.078-0.189c0-0.073-0.026-0.138-0.076-0.191C20.9,30.432,20.839,30.406,20.765,30.406z M23.926,30.406c-0.074,0-0.135,0.026-0.187,0.076c-0.05,0.052-0.076,0.117-0.076,0.191s0.026,0.138,0.078,0.189c0.052,0.053,0.111,0.079,0.185,0.079c0.071,0,0.133-0.026,0.185-0.079c0.052-0.051,0.076-0.115,0.076-0.189c0-0.073-0.024-0.138-0.076-0.191C24.06,30.432,24,30.406,23.926,30.406z M19.446,28.513c-0.037,0.093-0.067,0.17-0.093,0.232c-0.03,0.06-0.104,0.223-0.226,0.487l-0.222,0.472c-0.058,0.124-0.143,0.298-0.256,0.521l-0.533-1.118l-0.118-0.257l-0.144-0.338c-0.118,0.006-0.233,0.01-0.348,0.01c-0.087,0-0.246-0.003-0.476-0.01v0.146c0.059,0.002,0.126,0.01,0.198,0.023c0.028,0.003,0.048,0.009,0.056,0.019c0.011,0.007,0.018,0.018,0.022,0.037c0.011,0.032,0.018,0.14,0.02,0.317c0.004,0.177,0.006,0.381,0.006,0.615c0,0.257-0.002,0.44-0.006,0.544c-0.005,0.219-0.011,0.362-0.02,0.427c-0.003,0.028-0.007,0.049-0.018,0.064c-0.008,0.011-0.021,0.018-0.034,0.023c-0.022,0.011-0.096,0.021-0.224,0.028V30.9c0.102-0.007,0.237-0.011,0.41-0.012c0.129,0,0.255,0.004,0.381,0.011v-0.145c-0.113-0.006-0.182-0.014-0.204-0.021c-0.026-0.008-0.042-0.019-0.052-0.03c-0.009-0.012-0.015-0.03-0.022-0.057c-0.004-0.025-0.008-0.134-0.011-0.325c-0.004-0.194-0.004-0.36-0.004-0.502v-0.836l0.439,0.915c0.067,0.14,0.165,0.351,0.294,0.636c0.074,0.166,0.133,0.299,0.174,0.393h0.115c0.031-0.074,0.074-0.17,0.127-0.293c0.089-0.198,0.159-0.349,0.209-0.453l0.185-0.398l0.387-0.8v1.241c0,0.242-0.004,0.383-0.011,0.422c-0.009,0.044-0.024,0.072-0.042,0.083c-0.021,0.013-0.098,0.021-0.237,0.025V30.9l0.522-0.011l0.533,0.011v-0.145c-0.122-0.008-0.193-0.014-0.209-0.021c-0.017-0.003-0.032-0.012-0.039-0.019c-0.007-0.011-0.015-0.024-0.018-0.039c-0.007-0.032-0.014-0.123-0.024-0.266c0-0.026,0-0.111,0-0.256v-0.598l0.008-0.482c0.002-0.049,0.002-0.121,0.002-0.215c0-0.079,0.015-0.132,0.044-0.158c0.032-0.031,0.102-0.044,0.215-0.042h0.022v-0.145l-0.496,0.011C19.685,28.524,19.591,28.52,19.446,28.513z M13.421,25.461c0.119-0.35,0.119-0.753,0.204-1.125c0.161-0.493-0.215-0.809-0.322-1.19c-0.033-0.034,0.022-0.132-0.052-0.132c-0.141,0.634-0.195,1.269-0.3,1.857c-0.045,0.108,0.007,0.261-0.067,0.35c-0.051,0.47-0.171,0.862-0.256,1.353c0,0.34-0.172,0.743-0.152,1.083c-0.008,0.011-0.021,0.032-0.041,0.019c0,0.056,0.009,0.121-0.033,0.166c0,0.426-0.204,0.732-0.182,1.114l-0.055,0.064l-0.052,0.537l-0.033,0.021l-0.041,0.329c0.03,0.109-0.107,0.162-0.022,0.261c-0.085,0.461-0.204,0.865-0.3,1.303c-0.054,0.208-0.045,0.457-0.161,0.611l-0.032-0.022c0.053-0.143,0.011-0.294,0.074-0.404c0.022-0.34,0.152-0.611,0.17-0.928h0.011c0.033-0.383,0.151-0.634,0.163-1.016c0.052-0.416,0.204-0.876,0.215-1.314c0.052-0.227,0.032-0.534,0.17-0.74c0.032-0.11,0.021-0.297,0.063-0.427c0.011-0.057-0.031-0.164,0.044-0.208c0.118-0.797,0.289-1.616,0.374-2.435c0.056-0.121,0.063-0.298,0.096-0.438c0.076-0.536,0.15-1.091,0.173-1.671c-0.011,0.045-0.011,0.121-0.076,0.121c-0.13,0.393-0.642,0.58-0.631,1.027c-0.076,0.174-0.096,0.436-0.15,0.623c-0.022,0.076,0,0.208-0.063,0.228c-0.011,0.185-0.011,0.394-0.078,0.559c-0.011,0.326-0.182,0.578-0.137,0.906c-0.13,0.24-0.121,0.568-0.215,0.817c0.022,0.023,0.022,0.057-0.011,0.068c-0.011,0.271-0.096,0.534-0.096,0.819c-0.194,0.589-0.15,1.298-0.354,1.868c-0.076,0.163,0,0.404-0.12,0.534c-0.008,0.372-0.159,0.666-0.159,1.014c0.033,0.079-0.119,0.112-0.03,0.187c-0.067,0.36-0.121,0.732-0.208,1.061c0.087,0.187-0.104,0.393-0.074,0.643c-0.085,0.328-0.148,0.668-0.204,0.986c-0.052,0.393-0.126,0.819-0.289,1.178c-0.074,0.338-0.204,0.655-0.363,0.951c-0.192,0.338-0.515,0.643-0.622,1.047c0.041-0.021,0.161-0.032,0.193-0.13c0.503-0.23,0.944-0.501,1.372-0.875c0-0.119,0.139-0.064,0.106-0.185c0.192-0.174,0.345-0.37,0.43-0.589c0.096-0.076,0.107-0.208,0.192-0.285c0.277-0.447,0.396-0.96,0.578-1.429c0.022-0.121,0.108-0.253,0.078-0.362c-0.022-0.042,0.042-0.023,0.052-0.066c0.076-0.206,0.044-0.47,0.15-0.655c0.011-0.359,0.15-0.644,0.205-0.993c0.096-0.755,0.222-1.442,0.287-2.186l0.032-0.032c0.085-1.025,0.344-1.944,0.43-2.962C13.335,26.029,13.443,25.833,13.421,25.461z M14.481,24.183c-0.105,0.654-0.15,1.321-0.257,1.986c0.042,0.077-0.085,0.121-0.011,0.185c-0.108,0.383-0.108,0.799-0.148,1.17C14.02,27.623,14.031,27.71,14,27.797c-0.044,0.438-0.024,0.81-0.117,1.193c0.041,0.261-0.089,0.435-0.044,0.698c0.02,0.043-0.096,0.076-0.022,0.098l-0.042,0.053c-0.011,0.504-0.171,0.919-0.194,1.378c-0.063,0.023-0.032-0.064-0.032-0.076c0.011-0.011,0.024-0.055,0.032-0.079c0.044-0.719,0.12-1.473,0.183-2.205c0.076-0.523,0.161-0.973,0.182-1.507l0.024-0.011c0-0.491,0.182-1.027,0.17-1.508c0.022-0.055,0.052-0.142,0.022-0.187c0.074-0.283,0.063-0.609,0.094-0.851c0.109-0.086-0.074-0.228,0.065-0.294c-0.096-0.415,0.076-0.733,0-1.168c-0.215,0.132-0.235,0.436-0.436,0.602c-0.024,0.054-0.013,0.109-0.044,0.13c0.021,0.273-0.096,0.47-0.085,0.744c-0.045,0.153-0.011,0.274-0.078,0.416c-0.052,0.568-0.16,1.059-0.256,1.616c-0.023,0.23-0.011,0.481-0.107,0.655c-0.106,0.778-0.267,1.586-0.258,2.394c-0.127,1.148-0.031,2.435,0.011,3.606l0.076-0.122c0.009-0.098,0.17-0.143,0.15-0.251c0.376-0.613,0.779-1.244,0.986-1.988c0.063-0.187,0.085-0.427,0.128-0.591c0.106-0.906,0.159-1.791,0.15-2.743c0.063-0.03,0.032-0.129,0.085-0.14c0.01-0.985,0.214-1.946,0.266-2.896C14.676,24.629,14.653,24.357,14.481,24.183z M25.864,28.509l-0.803,0.013l-0.594-0.01v0.143c0.108,0.007,0.17,0.013,0.196,0.019c0.022,0.006,0.041,0.011,0.048,0.017c0.008,0.008,0.011,0.015,0.015,0.03c0.007,0.036,0.017,0.099,0.017,0.185c0.011,0.302,0.017,0.46,0.017,0.478v0.708c0,0.061-0.003,0.159-0.009,0.299c-0.005,0.136-0.009,0.219-0.013,0.245c-0.007,0.046-0.015,0.076-0.022,0.087c-0.008,0.012-0.015,0.015-0.026,0.019c-0.02,0.01-0.094,0.015-0.222,0.017V30.9c0.204-0.007,0.355-0.011,0.45-0.011l0.657,0.011v-0.134c-0.155-0.011-0.244-0.021-0.265-0.028c-0.018-0.008-0.035-0.019-0.042-0.031c-0.011-0.018-0.018-0.083-0.026-0.191c-0.005-0.107-0.009-0.298-0.009-0.566v-0.19c0.065,0,0.109-0.004,0.135-0.004c0.177,0,0.307,0.008,0.392,0.025c0.031,0.008,0.052,0.017,0.059,0.032c0.015,0.03,0.026,0.117,0.03,0.256h0.133c0-0.298,0.003-0.547,0.01-0.739h-0.145c-0.003,0.102-0.011,0.166-0.018,0.196c-0.008,0.02-0.018,0.032-0.033,0.038c-0.036,0.013-0.129,0.022-0.274,0.022c-0.05,0-0.146-0.004-0.291-0.01v-0.24c0-0.294,0.007-0.502,0.018-0.616c0.032-0.003,0.091-0.003,0.176-0.007c0.089-0.003,0.141-0.007,0.159-0.007c0.1,0,0.185,0.007,0.256,0.022c0.074,0.012,0.12,0.025,0.141,0.038c0.008,0.004,0.011,0.012,0.015,0.019c0.006,0.008,0.009,0.039,0.011,0.09c0.005,0.096,0.009,0.155,0.009,0.183h0.135c0.004-0.073,0.007-0.163,0.017-0.262c0.009-0.098,0.018-0.182,0.031-0.25l-0.015-0.023C26.084,28.514,25.977,28.509,25.864,28.509z M17.577,19.8l-0.011-0.066c-0.492-0.633-0.953-1.342-1.296-2.118c-0.109-0.262-0.3-0.436-0.333-0.742c-0.246-0.374-0.289-0.819-0.568-1.182c0-0.219-0.127-0.393-0.194-0.568c-0.018-0.089-0.052-0.187-0.085-0.24c-0.482-1.137-1.081-2.62-2.536-2.645c-0.237,0.012-0.463,0.119-0.666,0.176c-0.246,0.141-0.448,0.261-0.651,0.427c-0.011,0.087-0.107,0.098-0.118,0.151c-0.268,0.209-0.418,0.494-0.611,0.755c-0.067,0.053-0.107,0.185-0.159,0.242c-0.237,0.468-0.452,0.982-0.613,1.484c-0.054,0.077-0.094,0.209-0.13,0.317c-0.235,0.612-0.287,1.333-0.577,1.935c-0.085,0.447-0.311,0.863-0.535,1.225c-0.076,0.007-0.044,0.074-0.056,0.128c0.205,0.034,0.441-0.041,0.622-0.128c0.503-0.31,0.977-0.887,1.309-1.39c0.096-0.404,0.32-0.733,0.256-1.235c0-0.043-0.009-0.132,0.065-0.121c0.096,0.132,0.056,0.34,0.107,0.491c0.033-0.053,0.107-0.087,0.118-0.163c0.257-0.263,0.374-0.678,0.322-1.103c0.009-0.091-0.161-0.198,0-0.242c0.126,0.208,0.148,0.468,0.159,0.744c0.056-0.045,0.148-0.012,0.204-0.077c0.065-0.01,0-0.1,0.065-0.076c-0.011-0.123,0.098-0.155,0.098-0.263c0-0.657,0.093-1.268,0.385-1.804c0.085-0.076,0.139-0.163,0.224-0.261c0.127-0.185,0.3-0.034,0.45,0.01c0.063,0.089-0.011,0.187,0.063,0.262c-0.107,0.208-0.277,0.329-0.396,0.515c-0.032,0.361-0.011,0.765,0.204,0.993c0.096-0.043,0.096-0.164,0.13-0.262c0.085-0.055,0.118-0.185,0.235-0.141v0.055c-0.15,0.121-0.15,0.362-0.215,0.525c0.087,0.032-0.065,0.064,0.024,0.11c0,0.196,0.085,0.393,0.127,0.589c0.085,0.153,0.191,0.306,0.276,0.457c0.089-0.119,0.089-0.249,0.248-0.304l0.042,0.087c-0.139,0.025,0.013,0.153-0.096,0.176c-0.127,0.351-0.042,0.721,0.127,1.004c0.098,0.11,0.172,0.294,0.322,0.294c0.042-0.162,0.056-0.413,0.248-0.445c0.02,0.087-0.044,0.251-0.076,0.37c0.02,0.317,0.085,0.634,0.258,0.863c0.022,0.176,0.181,0.274,0.32,0.349c0.013-0.119,0.117-0.219,0.117-0.338c0.056-0.011,0.089-0.11,0.141-0.021c-0.031,0.121-0.096,0.228-0.085,0.37c0.011,0,0.022,0,0.034,0.023l-0.034,0.032c0,0.263,0.182,0.504,0.322,0.7c0.052,0.24,0.322,0.37,0.482,0.525l0.107-0.264l0.063,0.023c-0.027,0.285-0.005,0.546,0.112,0.773h2.54C18.153,20.47,17.869,20.143,17.577,19.8z M15.606,20.78h0.045l-0.035-0.115C15.616,20.701,15.608,20.742,15.606,20.78z M15.541,27.481c0.007-0.223,0.025-0.437,0.04-0.652l-0.005-2.472c-0.12,0.186-0.306,0.377-0.506,0.502c-0.044,0.404-0.067,0.785-0.13,1.169c-0.033,0.644,0.044,1.168,0.233,1.748c0.098,0.044,0.067,0.199,0.152,0.263c0.033,0.077,0.074,0.184,0.127,0.219c0.021,0.074,0.061,0.164,0.13,0.211L15.58,27.29C15.568,27.353,15.559,27.419,15.541,27.481z M39.034,31.906l-0.247-1.029c0-0.119-0.096-0.25-0.063-0.338c-0.085-0.514-0.138-0.906-0.203-1.454c0-0.076-0.107-0.163-0.022-0.228c-0.182-1.475-0.482-3.036-0.546-4.588l-0.021-0.013c-0.076-0.391-0.065-0.863-0.15-1.244c-0.269-0.272-0.506-0.557-0.737-0.851c0.011,0.153,0.096,0.404,0.074,0.568c0.031,0.112,0.053,0.274,0.042,0.404c0.138,0.557,0.085,1.289,0.235,1.859c-0.041,0.076,0.022,0.14,0.022,0.197c0.033,0.052-0.011,0.162-0.011,0.238l0.033,0.057c0.074,0.862,0.137,1.683,0.244,2.533l0.042,0.068c0.065,0.818,0.12,1.55,0.151,2.337c-0.022,0.052,0.094,0.098,0,0.119c-0.01,0.187,0.074,0.251,0.032,0.449h-0.054l-0.009-0.317c-0.076-0.23-0.089-0.548-0.097-0.787c-0.085-0.766-0.14-1.54-0.205-2.307c-0.054-0.021-0.043-0.053-0.021-0.096L37.481,27.1c0.009-0.032,0.02-0.109-0.022-0.143c0.01-0.304-0.074-0.523-0.086-0.819c-0.087-0.566-0.109-1.189-0.226-1.735c-0.074-0.395-0.128-0.754-0.159-1.15c-0.087-0.261-0.032-0.532-0.141-0.774c-0.043,0.296-0.246,0.536-0.354,0.808c-0.107,0.077-0.181-0.14-0.278-0.064c0.139,0.97,0.224,2.02,0.352,3.015c0.055,0.077-0.012,0.164,0.066,0.228c0.085,0.372,0.032,0.821,0.097,1.193c0.117,0.393,0.074,0.852,0.159,1.299c0.067,0.274,0.022,0.57,0.13,0.851c0.054,1.093,0.365,2.044,0.92,2.907c0.109,0.306,0.334,0.511,0.557,0.776c0.118,0.053,0.161,0.151,0.27,0.208c0.04,0.022,0.018,0.13,0.103,0.087c0.118,0.219,0.377,0.274,0.559,0.427c0.471,0.262,0.984,0.362,1.436,0.655c-0.172-0.404-0.581-0.689-0.825-1.014C39.493,33.306,39.26,32.616,39.034,31.906z M34.449,27.253c-0.041-1.083-0.202-2.155-0.309-3.281c-0.15,0.23-0.159,0.46-0.385,0.615c-0.087,0.053-0.128-0.034-0.183-0.079v0.23c-0.011,0.055,0.085,0.066,0.011,0.099c0.096,0.12-0.011,0.294,0.044,0.415c0.052,0.064,0.011,0.132,0.041,0.187c0.076,0.414,0,0.927,0.107,1.299c0.044,0.372,0.022,0.81,0.118,1.203c0.063,0.655,0.14,1.178,0.192,1.846h0.009c0.013,0.153,0.067,0.404,0.044,0.579h-0.02c-0.389-2.088-0.44-4.108-0.751-6.095c-0.13-0.132-0.256-0.306-0.345-0.516c0.024,0.153,0,0.436-0.03,0.634c-0.011,0.109-0.056,0.229-0.031,0.317c-0.109,0.118-0.056,0.272-0.183,0.391c0.074,0.876,0.141,1.609,0.244,2.492c0.033,0.242,0.089,0.45,0.099,0.689c0.128,0.383,0.076,0.776,0.194,1.116c0.137,0.351,0.096,0.721,0.233,1.091c0.119,0.34,0.174,0.744,0.333,1.061c0.085,0.174,0.128,0.328,0.257,0.468c0.085,0.173,0.213,0.328,0.322,0.449c0.074-0.175-0.031-0.362-0.024-0.536c0.078-0.262,0.044-0.566,0.098-0.84c0.023-0.055,0.023-0.144,0-0.209c0.043-0.197,0.032-0.382,0.054-0.578c-0.042-0.087,0.054-0.196-0.042-0.263l0.042-0.021c-0.107-0.023,0.042-0.098,0.011-0.143c0.063-0.917-0.096-1.737-0.118-2.578L34.449,27.253z M37.739,35.982c-0.042-0.056,0.032-0.166-0.066-0.185c-0.052-0.276-0.202-0.495-0.267-0.746c-0.13-0.577-0.235-1.104-0.258-1.703c-0.094-0.055-0.009-0.123-0.031-0.198c-0.097-0.447-0.119-0.927-0.171-1.367h0.011c-0.088-0.938-0.205-1.952-0.303-2.937l-0.018-0.021c-0.033-0.025,0-0.044,0.011-0.055c-0.044-0.144-0.023-0.284-0.044-0.427c-0.193-1.104-0.267-2.382-0.43-3.561l0.023-0.023c-0.097-0.174-0.085-0.415-0.108-0.623h0.023l-0.054-0.351h0.009c-0.074-0.087,0.01-0.162-0.063-0.251l-0.055-0.589l-0.03-0.043c-0.011-0.208-0.226-0.372-0.322-0.524c-0.031,0.381-0.085,0.679-0.215,1.027c0.14,0.677,0.17,1.378,0.226,2.054c0.096,0.264,0.022,0.6,0.127,0.83c0.076,1.378,0.279,2.741,0.42,4.119c-0.013,0.34,0.073,0.654,0.096,1.016c0,0.371,0.063,0.657,0.063,1.038c-0.141-0.634-0.215-1.257-0.289-1.956c-0.065-0.253-0.011-0.578-0.096-0.819c-0.078-0.698-0.13-1.397-0.237-2.131l0.033-0.021c-0.076-0.623-0.182-1.31-0.215-1.88h0.022c0-0.099-0.011-0.217-0.044-0.272c-0.096-0.471-0.063-1.114-0.214-1.597c-0.041,0.034-0.119,0.066-0.106,0.132c-0.042-0.011-0.098,0.011-0.13-0.011c-0.29-0.207-0.609-0.47-0.727-0.785c0.041,0.37,0.052,0.611,0.085,0.981c0.139,0.547,0.096,1.159,0.182,1.684l-0.032,0.034c0.109,0.294,0.065,0.687,0.117,1.014c0,0.032,0.078,0.066,0.011,0.1c0.043,0.708,0.237,1.288,0.183,2.031c0.096,0.963,0.364,1.878,0.512,2.83c-0.011,0.513,0.226,0.84,0.248,1.334c0.063,0.162,0.074,0.336,0.148,0.48c-0.041,0.217,0.194,0.283,0.151,0.502c0.063,0.053,0.063,0.176,0.148,0.219c-0.063,0.044,0.055,0.11,0.055,0.163c0.04,0.121,0.118,0.198,0.181,0.296c0.011,0.164,0.139,0.229,0.203,0.361c0.032,0.032,0.108,0.053,0.085,0.13c0.463,0.47,0.859,1.039,1.481,1.356c0.02-0.112-0.132-0.176-0.132-0.297C37.835,36.254,37.878,36.078,37.739,35.982z M41.145,30.376c-0.074-0.021-0.042-0.121-0.127-0.14c-0.291-0.253-0.376-0.689-0.568-0.996l0.032-0.053c-0.128-0.11-0.042-0.328-0.161-0.415c0.051-0.132-0.108-0.208-0.052-0.329c-0.077-0.121-0.098-0.317-0.152-0.436c-0.02-0.176-0.085-0.349-0.117-0.547c-0.194-1.014-0.42-2.02-0.524-3.091c0.019-0.329-0.151-0.502-0.344-0.689c-0.044-0.153-0.129-0.285-0.226-0.383c-0.02-0.11-0.119-0.208-0.161-0.294l0.024,0.098h-0.013l0.02,0.064c0.045,0.483,0.174,0.919,0.195,1.378c0.085,0.185,0.053,0.436,0.127,0.634c0.085,1.103,0.494,2.175,0.547,3.266c-0.279-1.091-0.45-2.109-0.644-3.254c-0.021-0.045-0.074-0.066-0.031-0.098l-0.021-0.034c-0.044-0.306-0.118-0.612-0.181-0.918c-0.033-0.166-0.033-0.351-0.109-0.513c0.011-0.196-0.054-0.392-0.085-0.591c-0.043-0.393-0.098-0.787-0.257-1.092c0.011,0.155-0.011,0.351-0.042,0.502c-0.096,0.121-0.107,0.34-0.194,0.515c-0.107,0.009,0.013,0.153-0.096,0.141c0.141,0.646,0.141,1.333,0.248,1.956c0.128,1.08,0.215,1.924,0.407,3.005c0.044,0.71,0.526,1.189,0.922,1.66c0.107,0.111,0.244,0.111,0.298,0.251c0.365,0.23,0.783,0.495,1.212,0.557c0.097,0.011,0.148,0.043,0.245,0.032C41.297,30.466,41.199,30.466,41.145,30.376z M30.02,30.406c-0.074,0-0.135,0.026-0.186,0.076c-0.052,0.052-0.078,0.117-0.078,0.191s0.026,0.138,0.078,0.189c0.052,0.053,0.115,0.079,0.185,0.079c0.074,0,0.133-0.026,0.185-0.079c0.052-0.051,0.078-0.115,0.078-0.189c0-0.073-0.026-0.138-0.076-0.191C30.157,30.432,30.094,30.406,30.02,30.406z M29.135,30.687c-0.102,0.028-0.209,0.039-0.322,0.039c-0.174,0-0.323-0.028-0.442-0.083c-0.091-0.04-0.18-0.106-0.269-0.194c-0.085-0.089-0.156-0.202-0.211-0.34c-0.052-0.136-0.078-0.297-0.078-0.48c0-0.302,0.078-0.538,0.233-0.708c0.159-0.168,0.371-0.253,0.63-0.253c0.148,0,0.267,0.019,0.359,0.06c0.092,0.038,0.177,0.098,0.251,0.177c0.007,0.076,0.015,0.176,0.018,0.299h0.129c0.004-0.105,0.015-0.226,0.03-0.355c0.013-0.081,0.026-0.147,0.042-0.202l-0.005-0.02c-0.159-0.058-0.298-0.1-0.417-0.123c-0.122-0.02-0.256-0.032-0.407-0.032c-0.439,0-0.777,0.112-1.018,0.34c-0.241,0.226-0.361,0.519-0.361,0.876c0,0.212,0.039,0.404,0.12,0.583c0.056,0.119,0.133,0.23,0.23,0.33c0.1,0.1,0.222,0.181,0.365,0.244c0.183,0.076,0.391,0.115,0.628,0.115c0.167,0,0.306-0.015,0.418-0.042c0.109-0.03,0.233-0.079,0.374-0.154l0.076-0.172l-0.042-0.039C29.346,30.615,29.235,30.662,29.135,30.687z M29.272,26.679c-0.215,0.031-0.352,0.207-0.533,0.287c-0.459,0.087-0.816-0.155-1.262-0.159c-0.378-0.045-0.65,0.113-0.959,0.196c-0.378,0.119-0.715-0.064-1.048-0.136c-0.289-0.076-0.572,0.025-0.818,0.112c-0.291,0.134-0.711,0.119-0.977-0.043c-0.445-0.217-0.985-0.026-1.429,0.068c-0.292,0.064-0.559-0.034-0.811-0.108c-0.329-0.13-0.796-0.127-1.098,0.051c-0.276,0.136-0.672,0.117-0.97,0.032c-0.232-0.054-0.424-0.187-0.683-0.194l-0.759,0.17l0.078,0.183l0.726-0.162c0.392,0.138,0.778,0.292,1.248,0.264c0.337-0.009,0.574-0.21,0.894-0.247c0.345,0.005,0.617,0.149,0.935,0.204c0.444,0.087,0.807-0.105,1.212-0.159c0.301-0.053,0.531,0.064,0.772,0.155c0.48,0.209,0.937-0.064,1.377-0.155c0.235-0.015,0.418,0.072,0.62,0.129c0.35,0.132,0.809,0.053,1.131-0.083c0.648-0.279,1.203,0.2,1.871,0.074c0.28-0.063,0.446-0.388,0.783-0.297l0.089-0.181C29.546,26.64,29.387,26.651,29.272,26.679z M31.952,24.587l0.054,0.119c0.088,0.621,0.183,1.212,0.217,1.844h0.007c0.013,0.309,0.055,0.623,0.022,0.963c-0.118-0.578-0.15-1.148-0.224-1.725c-0.085-0.274-0.065-0.623-0.139-0.885c-0.055-0.077,0.03-0.153-0.055-0.209c0.055,0.132-0.097,0.219-0.063,0.351c-0.014,0.023-0.019,0.055-0.027,0.084l-0.005,2.639c0.118,0.222,0.268,0.423,0.428,0.61c0.032-0.1,0.056-0.198,0.148-0.253c0.024-0.11,0.088-0.237,0.141-0.338c0.042-0.209,0.107-0.394,0.118-0.621c0.193-0.689,0.065-1.389-0.033-1.99C32.297,25.011,32.145,24.784,31.952,24.587z M26.688,30.406c-0.074,0-0.133,0.026-0.186,0.076c-0.052,0.052-0.076,0.117-0.076,0.191s0.024,0.138,0.076,0.189c0.052,0.053,0.115,0.079,0.185,0.079c0.074,0,0.133-0.026,0.185-0.079c0.052-0.051,0.078-0.115,0.078-0.189c0-0.073-0.026-0.138-0.076-0.191C26.823,30.432,26.762,30.406,26.688,30.406z M12.227,5.165L9.736,5.203l3.294,1.071L12.227,5.165z M13.159,8.033c0.005-0.142,0.003-0.812-0.001-1.37l-2.034,2.802L13.159,8.033z M13.315,2.716v3.465l0.807-1.109L13.315,2.716z M10.996,9.375l2.034-2.801l-1.302,0.424L10.996,9.375z M13.157,2.718l-0.803,2.354l0.803,1.108V2.718z M15.351,9.467l-2.035-2.799c0.004,0.518,0.006,1.172,0,1.368L15.351,9.467z M19.923,16.676c0.418,0.1,1.029,0.032,1.436,0.087c0.32,0.087,0.727,0.02,1.016,0.153c0.418-0.01,0.707,0.175,1.081,0.196c-0.159-0.032-0.277-0.163-0.396-0.249c-0.148-0.187-0.33-0.132-0.501-0.208c-0.987-0.155-1.833-0.253-2.831-0.177c-0.182,0-0.417-0.032-0.587-0.032c-0.237-0.066-0.42-0.074-0.642-0.162c0.277,0.24,0.622,0.376,0.977,0.376C19.588,16.708,19.793,16.697,19.923,16.676z M19.739,15.19c-0.052-0.11,0.033-0.253,0-0.351c0.054-0.108,0.085-0.249,0.183-0.37c0.004-0.015,0.054-0.055,0.054-0.055c0.256-0.187,0.633-0.251,0.77-0.602c0.042-0.062,0.096-0.104,0.141-0.13c0.107-0.108,0.277-0.158,0.407-0.24c0.526-0.219,1.157-0.296,1.747-0.24c0.278,0.01,0.567,0.142,0.878,0.153c0.074,0.14,0.289,0.021,0.374,0.153c0.407,0.098,0.762,0.315,1.168,0.415c0.139,0.13,0.311,0.098,0.492,0.174c0.516,0.13,1.19,0.447,1.736,0.111c-0.02,0.359-0.291,0.729-0.62,0.872c-0.463,0.121-0.955,0-1.414-0.132l-0.183-0.011c0.215,0.143,0.512,0.198,0.803,0.285c0.342,0.077,0.716,0.153,0.975,0.394c0.181,0.338,0.342,0.721,0.385,1.103c-0.192,0.034-0.396-0.023-0.548,0.056c-0.008,0.074,0.109,0.053,0.118,0.119c0.181,0.174,0.387,0.415,0.483,0.666c0.117,0.34,0.235,0.676,0.195,1.08c0.052,0.034-0.011,0.079,0,0.111c-0.259,0-0.441-0.132-0.622-0.251c-0.311,0.032-0.237-0.306-0.407-0.461c-0.174-0.294-0.376-0.557-0.633-0.751c0.022,0.251,0.322,0.413,0.396,0.664c0.074,0.164,0.28,0.294,0.257,0.525c-0.215,0-0.331-0.162-0.512-0.196c-0.13-0.077-0.268-0.196-0.409-0.132c0.173,0.274,0.526,0.328,0.665,0.657c0.042,0.087,0.118,0.144,0.127,0.263c0.13,0.185,0.109,0.458,0.172,0.689l-0.085,0.37c-0.13-0.011-0.182-0.098-0.3-0.143c-0.118-0.096-0.193-0.121-0.289-0.227l-0.089-0.025c-0.202-0.24-0.482-0.404-0.683-0.664c-0.15-0.089-0.195-0.251-0.342-0.317c-0.033,0.098,0.107,0.13,0.085,0.24c0.044,0.11,0.181,0.219,0.172,0.363c0.085,0.106,0.096,0.249,0.085,0.391c0.054,0.317,0,0.734-0.258,0.919c-0.02,0.045-0.051,0.08-0.082,0.116h-0.56l-0.002-0.052h0.013c0.021-0.427-0.215-0.744-0.237-1.189c-0.054-0.087-0.117,0-0.159,0.021c-0.129,0.304-0.365,0.602-0.611,0.787c-0.139,0.033-0.246,0.163-0.376,0.151c-0.289,0.187-0.589,0.166-0.953,0.219c-0.042-0.119,0.065-0.238,0.106-0.349c0.098-0.292,0.279-0.534,0.517-0.742v-0.034c-0.194-0.032-0.387,0.054-0.601-0.011c-0.17-0.021-0.354-0.053-0.47-0.174c0.054-0.011,0.042-0.066,0.063-0.11c0.302-0.13,0.546-0.294,0.912-0.285c0.202-0.076,0.45-0.141,0.557-0.372c0.021-0.119,0.063-0.271-0.011-0.393c0.074,0.012,0.118,0.121,0.215,0.121c0.063,0.185,0.193,0.37,0.193,0.557c0.126-0.108,0.074-0.372,0.052-0.523c-0.018-0.023-0.031-0.045-0.052-0.045v-0.023c0.215,0.079,0.374,0.34,0.461,0.591c0.096-0.187-0.056-0.393-0.15-0.557c0.15-0.053,0.256,0.132,0.396,0.196c0.063,0.034,0.074,0.208,0.137,0.166c0.033-0.091-0.041-0.209-0.085-0.285c-0.127-0.164-0.33-0.285-0.544-0.329c-0.333-0.098-0.729-0.251-1.159-0.285c-0.589-0.087-1.2-0.076-1.714-0.263c-0.181-0.108-0.258-0.261-0.374-0.391c0.933,0.566,1.992,0.043,2.976,0.206c0.248-0.032,0.516,0.176,0.752,0.176c0,0.066,0.074,0.023,0.117,0.034v0.042c0.183,0.045,0.451,0.143,0.591,0.338c0.052,0.025,0.052-0.03,0.063-0.062v-0.057c-0.418-0.315-0.674-0.525-1.125-0.732c-0.03-0.098-0.17-0.064-0.233-0.141c-0.258-0.164-0.633-0.338-0.87-0.568c-0.159-0.087-0.342-0.219-0.502-0.352c-0.257-0.194-0.622-0.393-0.987-0.404c-0.159-0.007-0.257,0.057-0.385,0.123c-0.215,0.009-0.237-0.349-0.492-0.263l-0.011-0.004c-0.13,0.056-0.289,0.025-0.356,0.2c-0.042,0.023-0.042,0.066-0.042,0.066c-0.042,0.096-0.042,0.251,0,0.349c-0.127-0.023-0.139-0.187-0.256-0.242C19.849,15.669,19.676,15.484,19.739,15.19z M24.863,19.222l-0.099-0.12l-0.032,0.066c0.032,0.425,0.191,0.753,0.148,1.18C24.99,20.03,24.904,19.571,24.863,19.222z M25.666,18.447c-0.056,0.043,0.02,0.108,0.041,0.153c0.322,0.219,0.472,0.623,0.783,0.874C26.307,19.057,26.018,18.709,25.666,18.447z M20.393,14.501l0.17-0.098c0.237-0.009,0.472,0.198,0.568,0.394c0.065,0.185,0.074,0.359,0.032,0.544c-0.011,0.166,0.163,0.025,0.237,0.068c0.107-0.043,0.266-0.011,0.385,0.055c0.119-0.032,0.152,0.096,0.256,0.076c0.121,0.054,0.259,0.153,0.344,0.175c-0.267-0.219-0.577-0.46-0.974-0.46c-0.078-0.064-0.011-0.185-0.054-0.292c0.032-0.077-0.096-0.187,0.009-0.209c0.085,0.045,0.204,0.077,0.291,0.077c0.021,0.009,0.021,0.043,0,0.054c0.106,0.174,0.202,0.363,0.383,0.469c0.078-0.019,0.121,0.045,0.183,0.068c1.105-0.109,1.329,1.07,2.122,1.495c0.032,0.011,0.096,0.034,0.096,0.089c0.472,0.263,1.029,0.557,1.587,0.393c0.074-0.141-0.141-0.23-0.108-0.36c0.633,0.162,1.159,0.559,1.586,1.038c-0.032-0.055-0.042-0.13-0.076-0.163c-0.171-0.351-0.578-0.593-0.868-0.821c0.096-0.022,0.194,0,0.291-0.043c0.063-0.185-0.109-0.306-0.129-0.47c-0.15-0.198-0.311-0.338-0.45-0.47l0.02-0.034c0.109,0.045,0.194-0.018,0.28-0.032c0.117-0.087,0.226,0.021,0.322,0.066l0.406,0.272c-0.085-0.174-0.215-0.219-0.352-0.338c-0.333-0.074-0.407-0.448-0.644-0.589c-0.3-0.176-0.47-0.383-0.846-0.372v0.043c0.236,0.122,0.579,0.209,0.729,0.415c0.105-0.021,0.105,0.143,0.215,0.143c0.009,0.098,0.159,0.153,0.042,0.24c-0.3,0-0.675-0.045-0.987-0.132c0,0.034-0.009,0.066,0.011,0.087c0.15,0,0.286,0.045,0.385,0.121c0.269,0.155,0.535,0.34,0.707,0.612c0.087,0.066,0.087,0.173,0.161,0.264c-0.17,0.087-0.344,0.13-0.535,0.064c-0.15-0.043-0.386-0.098-0.524-0.208c-0.13,0-0.248-0.141-0.389-0.185c-0.104,0-0.213-0.068-0.287-0.068c0.009,0.087,0.117,0.087,0.159,0.132c0.141,0.132,0.311,0.174,0.438,0.329c0.118,0.011,0.078,0.141,0.194,0.153c0.009,0.054,0.097,0.089,0.042,0.141c-0.255,0.045-0.547,0.045-0.803-0.053c-0.965-0.306-1.329-1.28-2.11-1.771l0.215-0.075c0.148-0.121,0.213-0.317,0.159-0.495c0.194,0.09,0.429,0.177,0.566,0.351c0.024-0.011,0.056,0.011,0.067-0.023c-0.342-0.393-0.792-0.612-1.329-0.667c0.385-0.107,0.696-0.36,1.125-0.338v-0.045c-0.226-0.041-0.45-0.021-0.655,0.023c-0.074,0.023-0.201,0.087-0.287,0.068c-0.398,0.129-0.816,0.317-1.212,0.393c-0.226-0.068-0.482-0.187-0.609-0.361c0.02-0.155,0.15-0.285,0.28-0.394c0.063-0.099,0.213-0.045,0.233-0.185c-0.085,0.033-0.17,0.076-0.247,0.098c-0.011,0.034-0.054,0.021-0.072,0.021c-0.13,0.1-0.237,0.198-0.356,0.317c0.032,0.297-0.311,0.111-0.418,0.317C20.371,14.446,20.349,14.491,20.393,14.501z M20.169,15.19c0.011,0,0.02-0.011,0.033,0.011c0.108-0.253,0.426-0.077,0.577-0.143c-0.011-0.076,0.074-0.11,0.042-0.185c-0.054-0.11-0.15-0.121-0.258-0.13c-0.107,0.021-0.159,0.096-0.235,0.153C20.276,15.005,20.18,15.048,20.169,15.19z M14.746,6.996l-1.305-0.424l2.037,2.802L14.746,6.996z M16.736,5.203l-2.487-0.039l-0.806,1.108L16.736,5.203z M13.49,6.423l1.305,0.424l1.991-1.495L13.49,6.423z M14.319,20.313c-0.022-0.359,0.13-0.742,0.13-1.059c-0.141-0.13-0.279-0.304-0.407-0.483c-0.074,0.404-0.237,0.83-0.3,1.269c-0.085,0.612-0.3,1.344-0.365,1.967c0.031,0.197,0.042,0.382,0.042,0.61c0.063,0.055,0.053,0.187,0.096,0.242c0.032,0.262,0.141,0.514,0.258,0.7c0.128-0.111,0.226-0.242,0.311-0.396c0.053-0.238,0.311-0.423,0.258-0.698c0.126-0.261,0.17-0.557,0.204-0.884c0.074-0.153,0-0.251,0.052-0.406c0.181-0.36,0.141-0.765,0.27-1.168c-0.023-0.274-0.215-0.404-0.215-0.71c-0.107,0.196-0.044,0.525-0.161,0.71c-0.085,0.416-0.128,0.733-0.257,1.114c0.044,0.209-0.118,0.296-0.096,0.495c-0.053,0.272-0.151,0.523-0.226,0.797c-0.085-0.076,0.063-0.23,0.031-0.328c0.141-0.449,0.128-0.876,0.268-1.289l-0.042-0.023l0.042-0.032C14.245,20.585,14.245,20.455,14.319,20.313z M9.155,28.607c0.044-0.066,0.109-0.196,0.085-0.262c0.056-0.087,0.098-0.196,0.13-0.306c0.097-0.208,0.206-0.427,0.215-0.68c0.118-0.325,0.203-0.665,0.27-1.014c0.092-0.119,0.085-0.285,0.137-0.427c0.118-0.5,0.266-1.006,0.355-1.518c0.008-0.011,0.02-0.033,0.03-0.021l0.022-0.177c0.139-0.317,0.182-0.753,0.224-1.114c0.098-0.151,0.076-0.37,0.172-0.525c-0.14-0.425-0.107-0.861-0.181-1.276c-0.023,0.053-0.119,0.163-0.067,0.229c-0.076,0.066-0.011,0.194-0.109,0.24c-0.104,0.351-0.182,0.721-0.267,1.125c-0.116,0.144-0.074,0.395-0.181,0.569c-0.045,0.132-0.033,0.349-0.13,0.425c0.011,0.219-0.137,0.506-0.127,0.725c-0.15,0.423-0.15,0.729-0.331,1.144c-0.033,0.132-0.085,0.34-0.065,0.472c-0.13,0.262-0.161,0.566-0.311,0.851c-0.074,0.293-0.15,0.602-0.235,0.908c-0.076,0.053-0.085,0.196-0.15,0.227c0.032-0.272,0.096-0.532,0.17-0.785c0.055,0,0.031-0.064,0.042-0.099c0.067-0.132,0.056-0.294,0.151-0.393C8.982,26.77,9.09,26.651,9.056,26.51c0.118-0.077,0.011-0.349,0.141-0.436c0.108-0.516,0.267-1.052,0.376-1.574c0.128-0.285,0.159-0.6,0.267-0.885c-0.02-0.121,0.105-0.197,0.042-0.272l0.022-0.023c-0.011-0.187,0.137-0.393,0.074-0.525l0.056-0.034c0.052-0.328,0.191-0.698,0.233-1.004c-0.213,0.6-0.535,1.148-0.855,1.693c-0.163,0.24-0.355,0.458-0.461,0.721c-0.076,0.317-0.161,0.634-0.257,0.951c-0.053,0.327-0.129,0.61-0.226,0.906c-0.011,0.142-0.107,0.286-0.063,0.404c-0.118,0.153-0.107,0.317-0.161,0.504H8.221c0,0.11-0.041,0.217-0.061,0.295c-0.087,0.525-0.291,0.993-0.432,1.508c-0.074,0.062-0.008,0.194-0.094,0.24c0.021,0.107-0.076,0.14-0.087,0.239c-0.192,0.448-0.631,0.776-0.866,1.203c0.352-0.166,0.803-0.087,1.144-0.317C8.525,29.919,8.897,29.209,9.155,28.607z M12.982,6.423l-3.294-1.07l1.992,1.494L12.982,6.423z M9.714,32.734c0.096-0.14,0.226-0.336,0.33-0.48c0.024-0.109,0.118-0.196,0.118-0.328c0.141-0.185,0.215-0.426,0.322-0.634c0.192-0.555,0.45-1.288,0.57-1.933c0.126-0.84,0.363-1.552,0.396-2.371c0.117-0.076,0.031-0.23,0.085-0.349c0.074-0.36,0.148-0.829,0.233-1.191c0.034-0.491,0.206-0.929,0.27-1.452c0.063-0.199,0.085-0.493,0.126-0.712c0-0.173-0.137-0.294-0.126-0.479c-0.152-0.208-0.076-0.536-0.152-0.766c-0.021,0.187-0.108,0.525-0.137,0.734c-0.098,0.359-0.172,0.708-0.226,1.08c0,0.207-0.098,0.338-0.074,0.536c0.007,0.066-0.089,0.11-0.011,0.153c-0.141,0.263-0.085,0.589-0.204,0.885c0,0.165-0.065,0.35-0.056,0.514c-0.126,0.119-0.074,0.361-0.137,0.491c0.018,0.032,0.018,0.066,0,0.1c0,0.206-0.174,0.359-0.109,0.555c-0.042,0.132-0.054,0.242-0.106,0.372c0.106,0.066-0.107,0.098,0,0.164c-0.097,0.207-0.108,0.536-0.195,0.787c0.013,0.185-0.105,0.315-0.065,0.458c-0.085,0.274-0.137,0.503-0.215,0.786c-0.052,0.296-0.148,0.47-0.182,0.744c-0.031,0.011-0.031,0.109-0.085,0.076c0.011-0.053-0.02-0.119,0.022-0.163c0.042-0.349,0.159-0.6,0.204-0.929c-0.033-0.185,0.139-0.317,0.063-0.459c0.096-0.123,0.108-0.308,0.13-0.482c0.141-0.098-0.042-0.262,0.108-0.338c0.009-0.307,0.181-0.534,0.15-0.851c0.053-0.112,0.011-0.208,0.096-0.299c0-0.053,0-0.106-0.031-0.151c0.063-0.208,0.201-0.427,0.129-0.634c0.103-0.426,0.244-0.981,0.298-1.518c-0.054-0.064,0.105-0.121,0.011-0.176c0.054-0.119,0.054-0.285,0.054-0.415c0.063-0.055,0.041-0.153,0.063-0.219c0.022-0.141,0.074-0.36,0.056-0.511c0.063-0.011,0.018-0.077,0.032-0.121c0.128-0.176,0.085-0.469,0.15-0.667c0.042-0.273,0.141-0.515,0.131-0.834c-0.215,0.264-0.409,0.504-0.633,0.777l-0.011,0.076c-0.148,0.098-0.085,0.34-0.172,0.495l0.024,0.064c-0.045,0.109-0.121,0.228-0.089,0.393c-0.085,0.24-0.137,0.457-0.204,0.721c0,0.272-0.148,0.502-0.17,0.767c-0.031,0.064-0.063,0.173-0.085,0.227c-0.056,0.275-0.096,0.57-0.204,0.819c-0.065,0.079,0.011,0.21-0.065,0.285c-0.15,0.482-0.246,0.961-0.354,1.454c-0.148,0.504-0.278,1.006-0.333,1.518c-0.052,0.055-0.052,0.153-0.052,0.21c-0.033,0.436-0.182,0.754-0.215,1.167c-0.096,0.188-0.13,0.381-0.17,0.592H8.996c-0.011,0.162-0.118,0.325-0.098,0.479c-0.117,0.25-0.181,0.525-0.298,0.752c-0.033,0.123-0.085,0.219-0.163,0.317c-0.094,0.144-0.148,0.265-0.246,0.373c-0.213,0.383-0.62,0.723-0.62,1.138c0.13-0.121,0.237-0.253,0.407-0.306c0.085-0.079,0.17-0.109,0.257-0.174c0.29-0.144,0.686-0.242,0.912-0.495C9.37,33.193,9.585,32.964,9.714,32.734z M15.412,20.642c0.067-0.155-0.17-0.283-0.278-0.393c0.041-0.087-0.052-0.087-0.095-0.108c-0.097,0.283-0.141,0.655-0.182,0.949h-0.011c-0.141,0.799-0.463,1.705-0.257,2.535c0.117,0.174,0.065,0.427,0.215,0.589c0.106,0.068,0.128,0.242,0.202,0.306c0.045,0.079,0.085-0.032,0.13-0.021c0.074-0.119,0.161-0.217,0.192-0.329c0.152-0.043,0.141-0.217,0.226-0.304c0.013-0.026,0.016-0.067,0.022-0.103l-0.005-2.657c-0.018,0.107-0.038,0.215-0.061,0.311c0.042,0.383-0.215,0.568-0.141,0.961l-0.054,0.034c-0.021,0.272-0.159,0.545-0.182,0.838l-0.02,0.013c0.032-0.393,0.128-0.7,0.17-1.093c0.032-0.053-0.096-0.144,0.02-0.185C15.36,21.616,15.412,21.057,15.412,20.642z M11.458,17.88c-0.031,0.219-0.128,0.457-0.213,0.676c-0.085,0.296-0.15,0.581-0.235,0.853c-0.096,0.251-0.182,0.557-0.259,0.831c0.067,0.646,0.024,1.42,0.248,2.042c0.076-0.163,0.289-0.229,0.331-0.438c0.024-0.021,0.065,0,0.076-0.021c0.096-0.164,0.204-0.285,0.311-0.459c0.085-0.043,0.096-0.187,0.129-0.262c0.128-0.144,0.17-0.383,0.222-0.557c0.089-0.098,0.078-0.349,0.152-0.481c0.03-0.119,0.03-0.317,0.118-0.404c0.085-0.447,0.277-0.906,0.331-1.367c0.17-0.24,0.183-0.621,0.3-0.895h0.011c0.011-0.198,0.127-0.372,0.096-0.569c-0.128-0.174-0.268-0.351-0.342-0.525c-0.023,0.174-0.054,0.372-0.076,0.536c-0.074,0.098-0.065,0.208-0.117,0.327c-0.067,0.374-0.226,0.721-0.311,1.038c0.018,0.066-0.13,0.066-0.033,0.13c-0.041,0.207-0.129,0.33-0.181,0.536c-0.054,0.045,0.011,0.153-0.065,0.185c-0.074,0.285-0.161,0.515-0.235,0.766h-0.022c0,0.087-0.042,0.162-0.096,0.219l-0.02-0.034c-0.023-0.032-0.011-0.098,0.042-0.087c0.108-0.416,0.202-0.797,0.342-1.212c0.117-0.317,0.17-0.559,0.257-0.876c0.118-0.37,0.267-0.754,0.3-1.126c0.065-0.197,0.074-0.381,0.085-0.578h0.022c0.011-0.23,0.022-0.36,0.031-0.58c-0.224-0.131-0.3-0.338-0.385-0.58c-0.117-0.416,0-0.929,0.287-1.212c-0.008-0.022-0.008-0.077-0.062-0.053c-0.063,0.066-0.17,0.066-0.139,0.187c-0.127,0.042-0.161,0.238-0.226,0.359c-0.009,0.461-0.159,0.906-0.054,1.344c-0.096,0.196-0.011,0.381-0.096,0.559C11.792,16.709,11.653,17.321,11.458,17.88z M8.813,23.907c0.013-0.076,0.117-0.121,0.15-0.174c0.483-0.623,0.922-1.378,1.125-2.152c0.118-0.109,0.065-0.317,0.192-0.406c0.022-0.306,0.204-0.545,0.226-0.851c0.141-0.381,0.226-0.831,0.353-1.201c0.074-0.174,0.106-0.393,0.161-0.57c-0.022-0.076,0.096-0.119,0.054-0.174c0.202-0.764,0.513-1.552,0.738-2.307c-0.118,0.166-0.459,0.045-0.452,0.306c-0.008,0.329-0.318,0.416-0.481,0.625c-0.085,0.404-0.192,0.84-0.342,1.232c-0.065,0.329-0.183,0.57-0.246,0.899c-0.118,0.14-0.074,0.359-0.192,0.491c-0.127,0.547-0.353,1.082-0.503,1.627c-0.173,0.457-0.311,0.993-0.568,1.356c0.12-0.24,0.15-0.502,0.237-0.766c0.364-0.829,0.59-1.627,0.846-2.513c0.226-0.721,0.439-1.418,0.611-2.139c-0.118,0.325-0.268,0.664-0.451,0.959c-0.182,0.351-0.448,0.515-0.726,0.8c-0.174,0.062-0.109,0.347-0.226,0.502c-0.365,1.351-0.59,2.643-1.062,3.964c-0.126,0.143-0.137,0.415-0.32,0.536C7.87,24.017,7.87,24.138,7.763,24.17c-0.011,0.153-0.182,0.1-0.224,0.209l0.009,0.01C8.052,24.661,8.526,24.16,8.813,23.907z M13.25,18.958c0.074-0.425,0.182-0.698,0.148-1.168c-0.074-0.194-0.159-0.338-0.215-0.557c-0.213,0.502-0.244,1.059-0.459,1.574c-0.074,0.196-0.108,0.425-0.195,0.6c0.042,0.11-0.085,0.153-0.054,0.272c-0.106,0.34-0.202,0.602-0.213,0.951c-0.042,0.023-0.042,0.054-0.031,0.087c-0.183,0.513-0.085,1.278-0.033,1.846c0.119,0.109,0,0.351,0.15,0.46c0.194-0.077,0.213-0.317,0.398-0.47c0.119-0.23,0.246-0.482,0.332-0.721c0.13-0.21,0.183-0.415,0.215-0.646c0.009-0.066,0.065-0.174,0.096-0.217c0-0.329,0.15-0.472,0.17-0.764c0.02-0.066,0-0.123,0.054-0.187c-0.054-0.197,0.141-0.349,0.076-0.566c0.065-0.198,0.117-0.449,0.161-0.657h0.021c-0.032-0.144,0.053-0.219,0.02-0.317c0.044-0.064,0.022-0.207,0.022-0.242c-0.022-0.053-0.108-0.053-0.159-0.087c-0.065-0.011-0.119-0.11-0.163-0.119c-0.032,0.164-0.043,0.372-0.108,0.534c-0.041,0.242-0.126,0.513-0.182,0.755c-0.224,0.513-0.289,1.103-0.461,1.637c-0.085,0.056-0.042,0.219-0.15,0.23c0.096-0.36,0.226-0.787,0.291-1.146c0.096-0.045-0.031-0.143,0.065-0.164c-0.065-0.054,0.063-0.066-0.011-0.1l0.032-0.032C13.109,19.46,13.176,19.223,13.25,18.958z"/></svg>