<svg xmlns="http://www.w3.org/2000/svg"  viewBox="0 0 48 48" width="1600px" height="1600px"><path fill="#283593" d="M7,14c0.555,0.021,2.57-2.677,3-3c3.133,4.289,3.686,5.949,10.908,12.464C20.473,20.495,15.674,11.737,13,9c1.305-1.319,3.242-4.102,4-5c0.802,2.309,4.041,11.557,7,17l0,0c2.262-4.289,6.036-15.351,6-17c1.293,1.197,3.49,3.791,4.916,5.031c-2.785,2.144-6.988,11.959-8.728,16.577C25.975,26.284,26,28.047,26,28.047c1.56,1.197,7.043,7.046,8,7.953c-2.927-13.177,1.216-22.031,4-25c0.446,0.47,1.574,1.546,3,3c-1.479,1.979-3.88,6.613-4,12c-0.174,7.752,0.912,11.949,3,15c-0.934,1.145-1.676,1.431-3,3c-2.095-1.924-11-10.415-11-10.415V39c0.067,0.342-0.337,3.546,1,5h-6c0.981-1.326,0.977-4.215,1-5.113v-9.32c-1.159-1.112-6.76-6.312-7.27-6.845l0,0C15.339,25.856,15.35,35.66,11,43c-0.357-0.514-4.073-3.885-4-4c1.337-2.095,3.955-7.596,4-12C11.082,18.958,8.293,15.967,7,14L7,14z"/></svg>