<svg xmlns="http://www.w3.org/2000/svg"  viewBox="0 0 48 48" width="1600px" height="1600px"><path fill="#1565C0" d="M39,43H9c-2.2,0-4-1.8-4-4V9c0-2.2,1.8-4,4-4h30c2.2,0,4,1.8,4,4v30C43,41.2,41.2,43,39,43"/><path fill="#8BC34A" d="M39,5H9.7C13,5.2,24.4,6.5,33.4,15.6c7.1,7.1,9.1,14.5,9.6,19V9C43,6.8,41.2,5,39,5z"/><path fill="#FFF" d="M34.2,14.9C28.9,9.6,22.4,6.6,17.1,5H9C8.6,5,8.3,5.1,7.9,5.2c0.8,0.1,1.8,0.2,3,0.5l-1,1c0,0,0,0,0,0L6.6,10c0,0,0,0,0,0c0.1,0.3,0.1,0.6,0.2,0.9l3.3-3.3c0,0.1,0,0.1,0,0.2c0,0,0,0.1,0,0.1c0.1,0.4,0.2,0.8,0.2,1.2c0,0,0,0,0,0l2.9-2.9c0.8,0.2,1.6,0.4,2.5,0.7l-4.8,4.8c0,0,0,0,0,0l-3.3,3.3c0.1,0.3,0.2,0.6,0.3,0.8l3.3-3.3c0.1,0.4,0.3,0.9,0.4,1.3L18,7.5c0.8,0.3,1.5,0.5,2.3,0.9L12.6,16c0,0,0,0,0,0l-3.3,3.3c0.1,0.3,0.2,0.5,0.3,0.8l3.3-3.3c0.2,0.4,0.3,0.8,0.5,1.2l8.8-8.8c-0.7-0.3-1.3-0.6-1.9-0.8c1.3,0.5,2.7,1.2,4.1,1.9L14.6,20l0,0l-3.3,3.3c0.1,0.2,0.3,0.5,0.4,0.7l3.3-3.3c0.2,0.4,0.4,0.7,0.7,1.1l10.5-10.5c0.6,0.4,1.3,0.8,1.9,1.2L17,23.6c0,0,0,0,0,0l-3.3,3.3c0.2,0.2,0.3,0.4,0.5,0.6l3.3-3.3c0.3,0.3,0.5,0.6,0.8,0.9l11.5-11.5c0.6,0.5,1.2,0.9,1.7,1.4L19.8,26.8l0,0l-3.3,3.3c0.2,0.2,0.4,0.3,0.6,0.5l3.3-3.3c0.3,0.3,0.6,0.6,0.9,0.8l11.6-11.6c0.5,0.5,1,1.1,1.5,1.7L23.1,29.5l0,0l-3.3,3.3c0.2,0.2,0.4,0.3,0.6,0.5l3.3-3.3c0.3,0.2,0.7,0.5,1,0.7l11-11c0.5,0.6,0.9,1.3,1.3,1.9L26.7,31.9c0,0,0,0,0,0l-3.3,3.3c0.2,0.1,0.5,0.3,0.7,0.4l3.3-3.3c0.4,0.2,0.7,0.4,1.1,0.6l9.5-9.5c0.4,0.7,0.7,1.4,1.1,2.1l-8.4,8.4c0,0,0,0,0,0l-3.3,3.3c0.3,0.1,0.5,0.2,0.8,0.3l3.3-3.3c0.4,0.2,0.8,0.3,1.2,0.5l7.3-7.3c-0.3-0.6,0.4,0.9,0.8,2.3L35,35.6c0,0,0,0,0,0l-3.3,3.3c0.3,0.1,0.6,0.2,0.9,0.3l3.3-3.3c0.4,0.1,0.9,0.3,1.3,0.4l4.2-4.2c0.2,0.9,0.4,1.7,0.6,2.6l-2.3,2.3c0,0,0,0,0,0l-3.3,3.3c0.3,0.1,0.6,0.1,0.9,0.2l3.3-3.3c0.5,0.1,1,0.2,1.5,0.3l0.3-0.3c0.2,1.1,0.3,2.2,0.4,3.1c0.1-0.3,0.1-0.6,0.1-1v-9C41.5,25.1,38.8,19.5,34.2,14.9z"/></svg>