<svg xmlns="http://www.w3.org/2000/svg"  viewBox="0 0 48 48" width="1600px" height="1600px"><path fill="#8c9eff" d="M38,42H10c-2.209,0-4-1.791-4-4V10c0-2.209,1.791-4,4-4h28c2.209,0,4,1.791,4,4v28	C42,40.209,40.209,42,38,42z"/><path fill="#fff" d="M37,24h-3c0-5.514-4.486-10-10-10v-3C31.168,11,37,16.832,37,24z"/><path fill="#f0f2f9" d="M33.782,21.922c-1.147-5.395-6.466-8.844-11.861-7.704l-0.623-2.934	c7.001-1.495,13.927,3.001,15.418,10.013L33.782,21.922z"/><path fill="#e2e4f4" d="M33.202,19.919c-1.087-2.44-3.058-4.312-5.552-5.27c-2.494-0.957-5.211-0.886-7.65,0.201l-1.221-2.74	c3.174-1.413,6.707-1.505,9.946-0.261c3.242,1.244,5.805,3.677,7.217,6.849L33.202,19.919z"/><path fill="#d3d7ee" d="M32.09,18.122c-3.24-4.46-9.508-5.454-13.968-2.212l-1.764-2.428	c5.801-4.212,13.946-2.923,18.159,2.876L32.09,18.122z"/><path fill="#c5cae9" d="M16.687,17.18l-2.193-2.045c2.367-2.54,5.583-4.006,9.054-4.127c3.481-0.106,6.78,1.117,9.319,3.485	l-2.047,2.193c-1.952-1.822-4.502-2.762-7.168-2.681C20.981,14.1,18.509,15.227,16.687,17.18z"/><path fill="#fff" d="M24,37c-7.168,0-13-5.832-13-13h3c0,5.514,4.486,10,10,10V37z"/><path fill="#f0f2f9" d="M23.997,37.002c-6.005,0-11.415-4.194-12.713-10.299l2.934-0.625	c1.147,5.395,6.465,8.842,11.861,7.704l0.623,2.934C25.796,36.909,24.89,37.002,23.997,37.002z"/><path fill="#e2e4f4" d="M23.938,37.021c-1.574,0-3.15-0.29-4.663-0.871c-3.242-1.244-5.805-3.677-7.217-6.849l2.74-1.221	c1.087,2.44,3.058,4.312,5.552,5.27c2.492,0.955,5.21,0.884,7.65-0.201l1.221,2.74C27.529,36.644,25.735,37.021,23.938,37.021z"/><path fill="#d3d7ee" d="M24.018,36.995c-4.024,0-7.994-1.856-10.535-5.354l2.428-1.764c3.241,4.461,9.508,5.454,13.968,2.212	l1.764,2.428C29.34,36.189,26.666,36.995,24.018,36.995z"/><path fill="#c5cae9" d="M23.989,37c-3.301,0-6.43-1.23-8.855-3.493l2.047-2.193c1.953,1.822,4.52,2.769,7.168,2.681	c2.67-0.094,5.143-1.221,6.965-3.174l2.193,2.045c-2.367,2.54-5.583,4.006-9.054,4.127C24.298,36.997,24.144,37,23.989,37z"/><circle cx="24" cy="24" r="7" fill="#fff"/><path fill="#fff" d="M24,37c-1.667,0-3.292-0.312-4.829-0.927c-0.769-0.308-1.143-1.181-0.835-1.95	c0.308-0.769,1.179-1.142,1.95-0.835C21.467,33.761,22.716,34,24,34c5.514,0,10-4.486,10-10c0-0.828,0.672-1.5,1.5-1.5	S37,23.172,37,24C37,31.168,31.168,37,24,37z"/><path fill="#fff" d="M12.5,25.5c-0.828,0-1.5-0.672-1.5-1.5c0-7.168,5.832-13,13-13c1.667,0,3.292,0.312,4.829,0.927	c0.769,0.308,1.143,1.181,0.835,1.95s-1.177,1.144-1.95,0.835C26.533,14.239,25.284,14,24,14c-5.514,0-10,4.486-10,10	C14,24.828,13.328,25.5,12.5,25.5z"/></svg>