<svg xmlns="http://www.w3.org/2000/svg" xmlns:xlink="http://www.w3.org/1999/xlink" viewBox="0 0 48 48" width="1600px" height="1600px"><path fill="#f48fb1" d="M30,5c-5,0-5.5,5-5.5,7.5c1,0,4.5,0.5,4.5,0.5L30,5z"/><circle cx="19" cy="5" r="5" fill="#f8bbd0"/><path fill="#f8bbd0" d="M14,5c0,2,0,8,2,11c1.5-0.5,7-3,7-3c0.75-2,1-5.5,1-8C21.5,5,14,5,14,5z"/><path fill="#fff9c4" d="M22,8.5C22,5.462,21.5,3,19.5,3S17,5.462,17,8.5s1.645,7.5,2.75,7.5S22,11.538,22,8.5z"/><circle cx="31" cy="38" r="3" fill="#fff9c4"/><path fill="#f48fb1" d="M34,38h-6v-7c0,0,0.25,0,0.91,0H30c0.66,0.33,1.32,0.88,1.91,1.58C33.11,33.99,34,35.99,34,38z"/><circle cx="17" cy="38" r="3" fill="#fff9c4"/><path fill="#f48fb1" d="M20,31v7h-6c0-2.01,0.89-4.01,2.09-5.42c0.59-0.7,1.25-1.25,1.91-1.58h1.09C19.75,31,20,31,20,31z"/><path fill="#f8bbd0" d="M32,38.5c0,2.08-0.57,3.99-1.52,5.56C30.12,44.65,29.47,45,28.77,45h-9.54	c-0.7,0-1.35-0.35-1.71-0.94C16.57,42.49,16,40.58,16,38.5c0-0.17,0-0.33,0.01-0.5c0.08-1.7,0.53-3.28,1.26-4.63	c0.49-0.91,1.11-1.71,1.82-2.37c1.36-1.26,3.06-2,4.91-2s3.55,0.74,4.91,2c0.71,0.66,1.33,1.46,1.82,2.37	c0.73,1.35,1.18,2.93,1.26,4.63C32,38.17,32,38.33,32,38.5z"/><path fill="#fce4ec" d="M24,41.5c0,0.918-0.213,1.77-0.58,2.479C23.086,44.622,22.396,45,21.672,45h-2.343	c-0.724,0-1.415-0.378-1.748-1.021C17.213,43.27,17,42.418,17,41.5c0-2.49,1.57-4.5,3.5-4.5S24,39.01,24,41.5z"/><path fill="#fce4ec" d="M31,41.5c0,0.918-0.213,1.77-0.58,2.479C30.086,44.622,29.396,45,28.672,45h-2.343	c-0.724,0-1.415-0.378-1.748-1.021C24.213,43.27,24,42.418,24,41.5c0-2.49,1.57-4.5,3.5-4.5S31,39.01,31,41.5z"/><path fill="#f06292" d="M19.09,31c-0.71,0.66-1.33,1.46-1.82,2.37c-0.42-0.24-0.82-0.51-1.18-0.79	c0.59-0.7,1.25-1.25,1.91-1.58H19.09z"/><path fill="#f06292" d="M31.91,32.58c-0.36,0.28-0.76,0.55-1.18,0.79c-0.49-0.91-1.11-1.71-1.82-2.37H30	C30.66,31.33,31.32,31.88,31.91,32.58z"/><path fill="#f48fb1" d="M30.73,33.37c-0.82,0.48-1.74,0.85-2.73,1.11C26.76,34.83,25.41,35,24,35s-2.76-0.17-4-0.52	c-0.99-0.26-1.91-0.63-2.73-1.11c0.49-0.91,1.11-1.71,1.82-2.37c1.36-1.26,3.06-2,4.91-2s3.55,0.74,4.91,2	C29.62,31.66,30.24,32.46,30.73,33.37z"/><path fill="#f8bbd0" d="M37,24c0,5.8-5.82,9-13,9s-13-3.2-13-9s5.82-12,13-12c0.68,0,1.35,0.06,2.01,0.16	c3.05,0.5,5.74,2.09,7.69,4.19C35.75,18.55,37,21.32,37,24z"/><circle cx="21" cy="23" r="1" fill="#263238"/><circle cx="27" cy="23" r="1" fill="#263238"/><path fill="#263238" d="M25,25.1c0-0.6-0.448-0.6-1-0.6s-1,0-1,0.6c0,0.3,0.5,0.9,1,0.9S25,25.4,25,25.1z"/><path fill="#263238" d="M27.5,21h-1c-0.276,0-0.5-0.224-0.5-0.5s0.224-0.5,0.5-0.5h1c0.276,0,0.5,0.224,0.5,0.5	S27.776,21,27.5,21z"/><polygon fill="#263238" points="18,19 20,17.5 22.5,21.5"/><path fill="#263238" d="M22.803,27.827c-0.195,0-0.396-0.024-0.597-0.085c-0.496-0.15-0.895-0.503-1.153-1.019	c-0.124-0.247-0.023-0.547,0.224-0.671c0.248-0.124,0.547-0.022,0.671,0.224c0.135,0.271,0.313,0.437,0.545,0.508	c0.331,0.1,0.733,0.001,1.008-0.104V25.5c0-0.276,0.224-0.5,0.5-0.5s0.5,0.224,0.5,0.5V27c0,0.18-0.096,0.345-0.252,0.435	C24.163,27.483,23.534,27.827,22.803,27.827z"/><path fill="#263238" d="M25.197,27.827c-0.731,0-1.36-0.344-1.445-0.393C23.596,27.345,23.5,27.18,23.5,27v-1.5	c0-0.276,0.224-0.5,0.5-0.5s0.5,0.224,0.5,0.5v1.181c0.273,0.104,0.677,0.203,1.008,0.104c0.231-0.071,0.41-0.237,0.545-0.508	c0.124-0.246,0.423-0.348,0.671-0.224c0.247,0.124,0.347,0.424,0.224,0.671c-0.258,0.516-0.657,0.868-1.153,1.019	C25.594,27.803,25.392,27.827,25.197,27.827z"/><defs><rect id="eHUa0UQNJrReABhngWgjia" width="221.5" height="76.75" x="-81.25" y="84"/></defs><clipPath id="eHUa0UQNJrReABhngWgjib"><use overflow="visible" xlink:href="#eHUa0UQNJrReABhngWgjia"/></clipPath><path fill="#f48fb1" d="M33.7,16.35C32.95,16.76,32.03,17,31,17c-2.95,0-4.93-1.93-4.99-4.84	C29.06,12.66,31.75,14.25,33.7,16.35z"/><path fill="#f8bbd0" d="M36,10.5c0-3-2.5-5.5-6-5.5c-2.761,0-4,1.962-4,5c0,3,2,5,5,5S36,13,36,10.5z"/></svg>