<svg xmlns="http://www.w3.org/2000/svg" xmlns:xlink="http://www.w3.org/1999/xlink" viewBox="0 0 48 48" width="1600px" height="1600px"><circle cx="10" cy="13" r="7" fill="#29b6f6"/><circle cx="38" cy="13" r="7" fill="#29b6f6"/><circle cx="37.5" cy="14.5" r="3.5" fill="#e1f5fe"/><circle cx="10.5" cy="14.5" r="3.5" fill="#e1f5fe"/><circle cx="32" cy="38" r="3" fill="#039be5"/><path fill="#039be5" d="M35,38c0-3-2-6-4-7c-1.5,0-2,0-2,0v7H35z"/><circle cx="16" cy="38" r="3" fill="#039be5"/><path fill="#039be5" d="M13,38c0-3,2-6,4-7c1.5,0,2,0,2,0v7H13z"/><path fill="#29b6f6" d="M32,38.5c0,2.08-0.57,3.99-1.52,5.56C30.12,44.65,29.47,45,28.77,45h-9.54	c-0.7,0-1.35-0.35-1.71-0.94C16.57,42.49,16,40.58,16,38.5c0-1.83,0.44-3.55,1.2-5c1.41-2.7,3.92-4.5,6.8-4.5s5.39,1.8,6.8,4.5	C31.56,34.95,32,36.67,32,38.5z"/><path fill="#e1f5fe" d="M29,35c0,3.31-2.24,6-5,6s-5-2.69-5-6c0-0.25,0.01-0.5,0.05-0.74C19.34,31.3,21.45,29,24,29	s4.66,2.3,4.95,5.26C28.99,34.5,29,34.75,29,35z"/><path fill="#039be5" d="M30.8,33.5c-0.58,0.3-1.2,0.55-1.85,0.76C28.66,31.3,26.55,29,24,29C26.88,29,29.39,30.8,30.8,33.5z"/><path fill="#039be5" d="M24,29c-2.55,0-4.66,2.3-4.95,5.26c-0.65-0.21-1.27-0.46-1.85-0.76C18.61,30.8,21.12,29,24,29z"/><path fill="#81d4fa" d="M28.95,34.26C27.47,34.75,25.81,35,24,35s-3.47-0.25-4.95-0.74C19.34,31.3,21.45,29,24,29	S28.66,31.3,28.95,34.26z"/><path fill="#29b6f6" d="M38,23c0-6.075-4-13-14-13s-14,6.925-14,13s5.716,10,14,10S38,29.075,38,23z"/><path fill="#3949ab" d="M27,25c0-2.209-1.343-5-3-5s-3,2.791-3,5s1.343,3,3,3S27,27.209,27,25z"/><path fill="#263238" d="M16,24.5c-0.245,0-0.459-0.18-0.495-0.43c-0.039-0.273,0.151-0.526,0.424-0.565l3.5-0.5	c0.27-0.037,0.527,0.15,0.566,0.425c0.039,0.273-0.151,0.526-0.424,0.565l-3.5,0.5C16.047,24.498,16.023,24.5,16,24.5z"/><path fill="#263238" d="M32,24.5c-0.023,0-0.047-0.002-0.071-0.005l-3.5-0.5c-0.273-0.039-0.463-0.292-0.424-0.565	s0.292-0.458,0.566-0.425l3.5,0.5c0.273,0.039,0.463,0.292,0.424,0.565C32.459,24.32,32.246,24.5,32,24.5z"/><path fill="#263238" d="M24,30c-1.5,0-2.258-0.551-2.854-1.146c-0.195-0.195-0.195-0.512,0-0.707s0.512-0.195,0.707,0	C22.303,28.597,22.806,29,24,29s1.697-0.403,2.146-0.854c0.195-0.195,0.512-0.195,0.707,0s0.195,0.512,0,0.707	C26.258,29.449,25.5,30,24,30z"/><path fill="#81d4fa" d="M24,41.5c0,0.918-0.213,1.77-0.58,2.479C23.086,44.622,22.396,45,21.672,45h-2.343	c-0.724,0-1.415-0.378-1.748-1.021C17.213,43.27,17,42.418,17,41.5c0-2.49,1.57-4.5,3.5-4.5S24,39.01,24,41.5z"/><path fill="#81d4fa" d="M31,41.5c0,0.918-0.213,1.77-0.58,2.479C30.086,44.622,29.396,45,28.672,45h-2.343	c-0.724,0-1.415-0.378-1.748-1.021C24.213,43.27,24,42.418,24,41.5c0-2.49,1.57-4.5,3.5-4.5S31,39.01,31,41.5z"/><defs><rect id="NOjn~hq3BdUPUd8gGGq0ta" width="221.5" height="76.75" x="44.75" y="84"/></defs><clipPath id="NOjn~hq3BdUPUd8gGGq0tb"><use overflow="visible" xlink:href="#NOjn~hq3BdUPUd8gGGq0ta"/></clipPath></svg>