<svg xmlns="http://www.w3.org/2000/svg" xmlns:xlink="http://www.w3.org/1999/xlink" viewBox="0 0 48 48" width="1600px" height="1600px"><path fill="#b71c1c" d="M33.36,24.762c-0.089,0.585-0.005,1.2,0.298,1.76c0.738,1.366,2.442,1.875,3.809,1.143	c0.089-0.585,0.005-1.2-0.298-1.76C36.43,24.54,34.727,24.03,33.36,24.762z"/><path fill="#cfd8dc" d="M31.799,44c0.715-1.481-0.179-3.168,0.201-5c0.349-1.688,2-3.499,2-5.385C34,24.439,29.523,17,24,17	s-10,7.439-10,16.615c0,1.886,1.651,3.697,2,5.385c0.379,1.832-0.515,3.519,0.201,5H31.799z"/><g opacity=".39"><defs><rect id="mkpIP6AT161CplVxS893aa" width="48" height="48" x="27.5" y="112" opacity=".39"/></defs><clipPath id="mkpIP6AT161CplVxS893ab"><use overflow="visible" xlink:href="#mkpIP6AT161CplVxS893aa"/></clipPath></g><path fill="#cfd8dc" d="M20.5,37h-4c-1.933,0-3.5,1.567-3.5,3.5v0c0,1.933,1.567,3.5,3.5,3.5h4c1.933,0,3.5-1.567,3.5-3.5v0	C24,38.567,22.433,37,20.5,37z"/><path fill="#cfd8dc" d="M31.5,37h-4c-1.933,0-3.5,1.567-3.5,3.5v0c0,1.933,1.567,3.5,3.5,3.5h4c1.933,0,3.5-1.567,3.5-3.5v0	C35,38.567,33.433,37,31.5,37z"/><circle cx="20.5" cy="41.5" r="2.5" fill="#6d4c41"/><circle cx="27.5" cy="41.5" r="2.5" fill="#6d4c41"/><circle cx="28" cy="35" r="3" fill="#eceff1"/><ellipse cx="31.5" cy="33.5" fill="#eceff1" rx="3.5" ry="4.5"/><circle cx="20" cy="35" r="3" fill="#eceff1"/><ellipse cx="16.5" cy="33.5" fill="#eceff1" rx="3.5" ry="4.5"/><circle cx="22.5" cy="36.5" r="1.5" fill="#6d4c41"/><path fill="#d32f2f" d="M32,23c0,0,0,0.02,0,0.09V25c-0.19,0.13-0.42,0.27-0.69,0.4c-1.64,0.86-4.66,1.86-7.42,2.59	C21.04,28.75,18.47,29.24,18,29c-0.75-0.38-1.94-1.9-2.37-3.06c-0.13-0.37-0.19-0.7-0.13-0.94c0.31-1.24,0.5-2,0.5-2H32z"/><path fill="#d32f2f" d="M34,24.5c0,0.76-0.56,1.39-1.3,1.48C32.64,26,32.57,26,32.5,26c-0.28,0-0.54-0.08-0.76-0.21	c-0.17-0.1-0.32-0.23-0.43-0.39c-0.2-0.25-0.31-0.56-0.31-0.9c0-0.65,0.42-1.21,1-1.41c0.16-0.06,0.32-0.09,0.5-0.09	C33.33,23,34,23.67,34,24.5z"/><path fill="#d32f2f" d="M32.91,25.05c-0.26,0.531-0.365,1.143-0.244,1.768c0.295,1.524,1.766,2.521,3.29,2.233	c0.26-0.531,0.365-1.143,0.244-1.768C35.905,25.759,34.434,24.762,32.91,25.05z"/><defs><rect id="mkpIP6AT161CplVxS893ac" width="221.5" height="76.75" x="-207.25" y="84"/></defs><clipPath id="mkpIP6AT161CplVxS893ad"><use overflow="visible" xlink:href="#mkpIP6AT161CplVxS893ac"/></clipPath><path fill="#b71c1c" d="M34,24.5c0,0.76-0.56,1.39-1.3,1.48c-0.33-0.02-0.65-0.09-0.96-0.19c-0.17-0.1-0.32-0.23-0.43-0.39	c-1.64,0.86-4.66,1.86-7.42,2.59c-1.08-0.03-2.01-0.65-2.51-1.55C20.84,26.79,20.2,27,19.5,27c-1.14,0-2.15-0.55-2.78-1.4	c-0.35,0.16-0.71,0.28-1.09,0.34c-0.13-0.37-0.19-0.7-0.13-0.94c0.31-1.24,0.5-2,0.5-2h16c0,0,0,0.02,0,0.09	c0.16-0.06,0.32-0.09,0.5-0.09C33.33,23,34,23.67,34,24.5z"/><circle cx="24" cy="23" r="3" fill="#cfd8dc"/><circle cx="14.5" cy="5.5" r="2.5" fill="#eceff1"/><circle cx="33.5" cy="5.5" r="2.5" fill="#eceff1"/><circle cx="28.5" cy="21.5" r="3.5" fill="#cfd8dc"/><circle cx="19.5" cy="21.5" r="3.5" fill="#cfd8dc"/><ellipse cx="24" cy="15" fill="#eceff1" rx="10" ry="7"/><circle cx="15" cy="20" r="4" fill="#cfd8dc"/><circle cx="13.5" cy="14.5" r="3.5" fill="#cfd8dc"/><circle cx="15.5" cy="9.5" r="3.5" fill="#cfd8dc"/><circle cx="20.5" cy="6.5" r="4.5" fill="#cfd8dc"/><circle cx="33" cy="20" r="4" fill="#cfd8dc"/><circle cx="34.5" cy="14.5" r="3.5" fill="#cfd8dc"/><circle cx="32.5" cy="9.5" r="3.5" fill="#cfd8dc"/><circle cx="27.5" cy="6.5" r="4.5" fill="#cfd8dc"/><circle cx="25.5" cy="36.5" r="1.5" fill="#6d4c41"/><circle cx="21" cy="15" r="1" fill="#263238"/><circle cx="27" cy="15" r="1" fill="#263238"/><path fill="#263238" d="M22.803,19.827c-0.195,0-0.396-0.024-0.597-0.085c-0.496-0.15-0.895-0.503-1.153-1.019	c-0.124-0.247-0.023-0.547,0.224-0.671c0.248-0.125,0.547-0.022,0.671,0.224c0.135,0.271,0.313,0.437,0.545,0.508	c0.331,0.101,0.734,0.002,1.008-0.104V17.5c0-0.276,0.224-0.5,0.5-0.5s0.5,0.224,0.5,0.5V19c0,0.18-0.096,0.345-0.252,0.435	C24.163,19.483,23.534,19.827,22.803,19.827z"/><path fill="#263238" d="M25.197,19.827c-0.731,0-1.36-0.344-1.445-0.393C23.596,19.345,23.5,19.18,23.5,19v-1.5	c0-0.276,0.224-0.5,0.5-0.5s0.5,0.224,0.5,0.5v1.181c0.274,0.105,0.677,0.204,1.008,0.104c0.231-0.071,0.41-0.237,0.545-0.508	c0.124-0.246,0.423-0.349,0.671-0.224c0.247,0.124,0.347,0.424,0.224,0.671c-0.258,0.516-0.657,0.868-1.153,1.019	C25.594,19.803,25.392,19.827,25.197,19.827z"/><path fill="#263238" d="M20.5,13.5c-0.184,0-0.36-0.102-0.448-0.276c-0.124-0.247-0.023-0.547,0.224-0.671l1-0.5	c0.248-0.124,0.547-0.022,0.671,0.224c0.124,0.247,0.023,0.547-0.224,0.671l-1,0.5C20.652,13.483,20.576,13.5,20.5,13.5z"/><path fill="#263238" d="M27.5,13.5c-0.075,0-0.151-0.017-0.223-0.053l-1-0.5c-0.247-0.124-0.347-0.424-0.224-0.671	c0.124-0.246,0.423-0.348,0.671-0.224l1,0.5c0.247,0.124,0.347,0.424,0.224,0.671C27.859,13.398,27.683,13.5,27.5,13.5z"/><path fill="#263238" d="M25,16.6c0-0.6-0.448-0.6-1-0.6s-1,0-1,0.6c0,0.3,0.5,0.9,1,0.9S25,16.9,25,16.6z"/></svg>