<svg xmlns="http://www.w3.org/2000/svg" xmlns:xlink="http://www.w3.org/1999/xlink" viewBox="0 0 48 48" width="1600px" height="1600px"><circle cx="30" cy="39" r="3" fill="#3949ab"/><path fill="#3949ab" d="M33,39h-6v-7c0,0,0.36,0,1.37,0H29c0.67,0.34,1.34,0.9,1.93,1.61C32.12,35.02,33,37.01,33,39z"/><circle cx="18" cy="39" r="3" fill="#3949ab"/><path fill="#3949ab" d="M21,32v7h-6c0-1.82,0.74-3.65,1.77-5.02c0.66-0.89,1.45-1.59,2.23-1.98h0.63C20.64,32,21,32,21,32z"/><path fill="#5c6bc0" d="M30,38.5c0,0.17,0,0.34-0.01,0.5c-0.06,1.89-0.47,3.62-1.13,5.06C28.59,44.65,28.1,45,27.58,45h-7.16	c-0.52,0-1.01-0.35-1.28-0.94c-0.66-1.44-1.07-3.17-1.13-5.06C18,38.84,18,38.67,18,38.5c0-1.22,0.15-2.39,0.41-3.46	c0.28-1.14,0.7-2.17,1.22-3.04c1.09-1.85,2.65-3,4.37-3s3.28,1.15,4.37,3c0.47,0.78,0.85,1.69,1.13,2.69	C29.82,35.86,30,37.15,30,38.5z"/><g opacity=".39"><defs><rect id="FEqv02t1DzqTAwx9hkVN~a" width="48" height="48" x="90.5" y="112" opacity=".39"/></defs><clipPath id="FEqv02t1DzqTAwx9hkVN~b"><use overflow="visible" xlink:href="#FEqv02t1DzqTAwx9hkVN~a"/></clipPath></g><circle cx="22" cy="38" r="1" fill="#ffd54f"/><path fill="#9fa8da" d="M24,41.938c0,0.804-0.183,1.549-0.498,2.169C23.217,44.669,22.625,45,22.004,45h-2.008	c-0.621,0-1.213-0.331-1.498-0.894C18.183,43.486,18,42.741,18,41.938C18,39.759,19.346,38,21,38S24,39.759,24,41.938z"/><path fill="#9fa8da" d="M30,41.938c0,0.804-0.183,1.549-0.498,2.169C29.217,44.669,28.625,45,28.004,45h-2.008	c-0.621,0-1.213-0.331-1.498-0.894C24.183,43.486,24,42.741,24,41.938C24,39.759,25.346,38,27,38S30,39.759,30,41.938z"/><path fill="#303f9f" d="M19.63,32c-0.52,0.87-0.94,1.9-1.22,3.04c-0.54-0.32-1.09-0.67-1.64-1.06	c0.66-0.89,1.45-1.59,2.23-1.98H19.63z"/><path fill="#303f9f" d="M30.93,33.61c-0.48,0.38-0.96,0.74-1.43,1.08c-0.28-1-0.66-1.91-1.13-2.69H29	C29.67,32.34,30.34,32.9,30.93,33.61z"/><path fill="#3949ab" d="M29.5,34.69c-0.53,0.37-1.05,0.7-1.56,0.98c-0.32,0.19-0.63,0.35-0.94,0.5	c-0.29,0.14-0.57,0.26-0.84,0.37C25.36,36.84,24.63,37,24,37c-0.85,0-1.88-0.24-3-0.68c-0.82-0.33-1.69-0.76-2.59-1.28	c0.28-1.14,0.7-2.17,1.22-3.04c1.09-1.85,2.65-3,4.37-3s3.28,1.15,4.37,3C28.84,32.78,29.22,33.69,29.5,34.69z"/><path fill="#d32f2f" d="M23,12c-1-1-4.5-4-8.5-4S6,11,6,17c0,9,12.5,18,18,18s18-11,18-21c0-6.5-4-10-8.75-10	C27.5,4,24.5,9,23,12z"/><ellipse cx="24" cy="27.5" fill="#ffd54f" rx="4" ry="2.5"/><path fill="#263238" d="M25.5,28h-3c-0.276,0-0.5-0.224-0.5-0.5s0.224-0.5,0.5-0.5h3c0.276,0,0.5,0.224,0.5,0.5	S25.776,28,25.5,28z"/><circle cx="21" cy="24" r="1" fill="#263238"/><circle cx="27" cy="24" r="1" fill="#263238"/><circle cx="17" cy="36.25" r="1" fill="#ffb300"/><path fill="#ffd54f" d="M28,36c0,0.55-0.45,1-1,1c-0.35,0-0.66-0.18-0.84-0.46c0.27-0.11,0.55-0.23,0.84-0.37	c0.31-0.15,0.62-0.31,0.94-0.5C27.98,35.77,28,35.88,28,36z"/><path fill="#ffb300" d="M27.94,35.67c-0.32,0.19-0.63,0.35-0.94,0.5c-0.29,0.14-0.57,0.26-0.84,0.37	C26.06,36.38,26,36.2,26,36c0-0.55,0.45-1,1-1C27.43,35,27.81,35.28,27.94,35.67z"/><circle cx="31" cy="38" r="1" fill="#ffb300"/><path fill="#263238" d="M21.5,22h-2c-0.276,0-0.5-0.224-0.5-0.5s0.224-0.5,0.5-0.5h2c0.276,0,0.5,0.224,0.5,0.5	S21.776,22,21.5,22z"/><path fill="#263238" d="M28.5,22h-2c-0.276,0-0.5-0.224-0.5-0.5s0.224-0.5,0.5-0.5h2c0.276,0,0.5,0.224,0.5,0.5	S28.776,22,28.5,22z"/><defs><rect id="FEqv02t1DzqTAwx9hkVN~c" width="221.5" height="76.75" x="-144.25" y="84"/></defs><clipPath id="FEqv02t1DzqTAwx9hkVN~d"><use overflow="visible" xlink:href="#FEqv02t1DzqTAwx9hkVN~c"/></clipPath></svg>