<svg xmlns="http://www.w3.org/2000/svg" xmlns:xlink="http://www.w3.org/1999/xlink" viewBox="0 0 48 48" width="1600px" height="1600px"><circle cx="33" cy="38" r="3" fill="#ce93d8"/><path fill="#ce93d8" d="M36,38h-6v-7c0,0,0.27,0,1.01,0H32c0.47,0.23,0.93,0.57,1.37,1c0.57,0.54,1.09,1.23,1.52,2	C35.56,35.2,36,36.6,36,38z"/><circle cx="15" cy="38" r="3" fill="#ce93d8"/><path fill="#ce93d8" d="M18,31v7h-6c0-1.4,0.44-2.8,1.11-4c0.43-0.77,0.95-1.46,1.52-2c0.44-0.43,0.9-0.77,1.37-1h0.99	C17.73,31,18,31,18,31z"/><path fill="#e1bee7" d="M33,37.69c0,2.33-0.64,4.49-1.71,6.25C30.88,44.6,30.15,45,29.37,45H18.63	c-0.78,0-1.51-0.4-1.92-1.06C15.64,42.18,15,40.02,15,37.69c0-1.29,0.19-2.54,0.55-3.69c0.22-0.7,0.5-1.37,0.83-2	c1.59-3,4.41-5,7.62-5s6.03,2,7.62,5c0.33,0.63,0.61,1.3,0.83,2C32.81,35.15,33,36.4,33,37.69z"/><path fill="#f3e5f5" d="M24,41.062c0,1.033-0.244,1.991-0.663,2.789C22.956,44.575,22.167,45,21.339,45h-2.678	c-0.828,0-1.617-0.425-1.998-1.149C16.244,43.054,16,42.096,16,41.062C16,38.261,17.794,36,20,36S24,38.261,24,41.062z"/><path fill="#f3e5f5" d="M32,41.062c0,1.033-0.244,1.991-0.663,2.789C30.956,44.575,30.167,45,29.339,45h-2.678	c-0.828,0-1.617-0.425-1.998-1.149C24.244,43.054,24,42.096,24,41.062C24,38.261,25.794,36,28,36S32,38.261,32,41.062z"/><path fill="#29b6f6" d="M37,19c0,0.2-0.01,0.4-0.02,0.59c-0.07,1.6-0.46,2.88-0.93,4.04C35.17,25.78,34,27.5,34,30	c-1.13,1.12-10,1-10,1s-8.5,0-10-1c0-2.5-1.17-4.22-2.05-6.37c-0.47-1.16-0.86-2.44-0.93-4.04C11.01,19.4,11,19.2,11,19h24	C36.25,19,37,19,37,19z"/><path fill="#29b6f6" d="M17.74,12.12c-0.33,0.19-0.7,0.29-1.08,0.31c-1.39,0.09-2.99-0.91-3.97-2.6	c-0.97-1.68-1.03-3.56-0.27-4.72c0.21-0.33,0.48-0.59,0.82-0.79c1.54-0.89,3.8,0.13,5.04,2.29C19.52,8.76,19.28,11.23,17.74,12.12z"/><ellipse cx="32.414" cy="8.218" fill="#29b6f6" rx="4.5" ry="3.224" transform="rotate(-60 32.414 8.22)"/><path fill="#039be5" d="M16.66,12.43c-1.39,0.09-2.99-0.91-3.97-2.6c-0.97-1.68-1.03-3.56-0.27-4.72	c1.38-0.09,2.98,0.91,3.95,2.6C17.34,9.4,17.41,11.28,16.66,12.43z"/><path fill="#039be5" d="M31.24,12.43c1.39,0.09,2.99-0.91,3.97-2.6c0.97-1.68,1.03-3.56,0.27-4.72	c-1.38-0.09-2.98,0.91-3.95,2.6C30.56,9.4,30.49,11.28,31.24,12.43z"/><path fill="#29b6f6" d="M37,19c0,0.2-0.01,0.4-0.02,0.59c-0.04,0.59-0.13,1.15-0.27,1.69c-0.18,0.68-0.45,1.33-0.78,1.94	c-0.01,0.02-0.02,0.03-0.04,0.05c0,0.01,0,0.01,0,0.01C33.88,26.85,29.31,29,24,29s-9.88-2.15-11.89-5.72	c-0.02-0.02-0.03-0.04-0.04-0.06c-0.33-0.61-0.6-1.26-0.78-1.94c-0.14-0.54-0.23-1.1-0.27-1.69C11.01,19.4,11,19.2,11,19	c0-0.78,0.1-1.55,0.27-2.31c0.17-0.7,0.41-1.38,0.71-2.04C13.93,10.38,18.58,7,24,7s10.07,3.38,12.02,7.65	c0.3,0.66,0.54,1.34,0.71,2.04C36.9,17.45,37,18.22,37,19z"/><path fill="#f06292" d="M27.5,13c-2,0-2.75,0.75-3.5,1.5c-0.75-0.75-1.5-1.5-3.5-1.5S17,14.5,17,17.5c0,5,7,7.5,7,7.5	s7-2.5,7-7.5C31,14.5,29.5,13,27.5,13z"/><path fill="#263238" d="M25.5,20c-0.075,0-0.151-0.017-0.223-0.053c-0.247-0.124-0.347-0.424-0.224-0.671l1-2	c0.124-0.247,0.423-0.349,0.671-0.224c0.247,0.124,0.347,0.424,0.224,0.671l-1,2C25.859,19.898,25.683,20,25.5,20z"/><path fill="#263238" d="M22.5,20c-0.184,0-0.36-0.102-0.448-0.276l-1-2c-0.124-0.247-0.023-0.547,0.224-0.671	c0.248-0.125,0.547-0.023,0.671,0.224l1,2c0.124,0.247,0.023,0.547-0.224,0.671C22.652,19.983,22.576,20,22.5,20z"/><path fill="#e1f5fe" d="M13,19c0,1.4-0.43,3.17-0.89,4.28c-0.06,0.13-0.11,0.24-0.16,0.35c-0.47-1.16-0.86-2.44-0.93-4.04	C11.01,19.4,11,19.2,11,19c0-0.78,0.1-1.55,0.27-2.31c0.17-0.7,0.41-1.38,0.71-2.04C12.59,15.51,13,17.14,13,19z"/><path fill="#3949ab" d="M24,2L24,2c-2.209,0-4,1.791-4,4v5h8V6C28,3.791,26.209,2,24,2z"/><path fill="#263238" d="M12,19c0,0.92-0.27,1.74-0.71,2.28C11.1,20.56,11,19.8,11,19c0-0.78,0.1-1.55,0.27-2.31	C11.72,17.23,12,18.07,12,19z"/><path fill="#e1f5fe" d="M37,19c0,0.2-0.01,0.4-0.02,0.59c-0.07,1.6-0.46,2.88-0.93,4.04c-0.05-0.11-0.1-0.22-0.16-0.35	c0,0,0,0,0-0.01C35.43,22.16,35,20.4,35,19c0-1.86,0.41-3.49,1.02-4.35c0.3,0.66,0.54,1.34,0.71,2.04C36.9,17.45,37,18.22,37,19z"/><path fill="#263238" d="M37,19c0,0.8-0.1,1.56-0.29,2.28C36.27,20.74,36,19.92,36,19c0-0.93,0.28-1.77,0.73-2.31	C36.9,17.45,37,18.22,37,19z"/><path fill="#81d4fa" d="M34,32H14c-0.552,0-1-0.448-1-1v0c0-0.552,0.448-1,1-1h20c0.552,0,1,0.448,1,1v0	C35,31.552,34.552,32,34,32z"/><defs><rect id="9JWKzWsVGiAXLHtjN9wSTa" width="221.5" height="76.75" x="-18.25" y="84"/></defs><clipPath id="9JWKzWsVGiAXLHtjN9wSTb"><use overflow="visible" xlink:href="#9JWKzWsVGiAXLHtjN9wSTa"/></clipPath><path fill="#ba68c8" d="M16.38,32c-0.33,0.63-0.61,1.3-0.83,2h-2.44c0.43-0.77,0.95-1.46,1.52-2H16.38z"/><path fill="#ba68c8" d="M34.89,34h-2.44c-0.22-0.7-0.5-1.37-0.83-2h1.75C33.94,32.54,34.46,33.23,34.89,34z"/><path fill="#ce93d8" d="M32.45,34h-16.9c0.22-0.7,0.5-1.37,0.83-2h15.24C31.95,32.63,32.23,33.3,32.45,34z"/></svg>