<svg xmlns="http://www.w3.org/2000/svg" xmlns:xlink="http://www.w3.org/1999/xlink" viewBox="0 0 48 48" width="1600px" height="1600px"><circle cx="33" cy="37" r="3" fill="#eceff1"/><path fill="#fbc02d" d="M36,37h-6v-9c0,0,0.5,0,2,0c0.42,0.27,0.84,0.65,1.23,1.12C34.75,30.9,36,33.95,36,37z"/><circle cx="15" cy="37" r="3" fill="#eceff1"/><path fill="#fbc02d" d="M18,28v9h-6c0-3.05,1.25-6.1,2.77-7.88c0.39-0.47,0.81-0.85,1.23-1.12C17.5,28,18,28,18,28z"/><path fill="#fdd835" d="M33,36.69c0,0.1,0,0.21-0.01,0.31c-0.05,2.21-0.68,4.26-1.7,5.94C30.88,43.6,30.15,44,29.37,44H18.63	c-0.78,0-1.51-0.4-1.92-1.06c-1.02-1.68-1.65-3.73-1.7-5.94C15,36.9,15,36.79,15,36.69c0-2.36,0.65-4.55,1.74-6.32	c0.37-0.6,0.79-1.15,1.26-1.64c1.59-1.7,3.7-2.73,6-2.73s4.41,1.03,6,2.73c0.47,0.49,0.89,1.04,1.26,1.64	C32.35,32.14,33,34.33,33,36.69z"/><ellipse cx="15.03" cy="14.537" fill="#263238" rx="10.466" ry="5.42" transform="rotate(-60 15.03 14.538)"/><ellipse cx="33.03" cy="14.537" fill="#263238" rx="5.42" ry="10.466" transform="rotate(-30 33.028 14.539)"/><g opacity=".39"><defs><rect id="ltnYWj~4F0glwJ1npGml3a" width="48" height="48" x="-35.5" y="112" opacity=".39"/></defs><clipPath id="ltnYWj~4F0glwJ1npGml3b"><use overflow="visible" xlink:href="#ltnYWj~4F0glwJ1npGml3a"/></clipPath></g><path fill="#fff176" d="M24,40.062c0,1.033-0.244,1.991-0.663,2.789C22.956,43.575,22.167,44,21.339,44h-2.678	c-0.828,0-1.617-0.425-1.998-1.149C16.244,42.054,16,41.096,16,40.062C16,37.261,17.794,35,20,35S24,37.261,24,40.062z"/><path fill="#fff176" d="M32,40.062c0,1.033-0.244,1.991-0.663,2.789C30.956,43.575,30.167,44,29.339,44h-2.678	c-0.828,0-1.617-0.425-1.998-1.149C24.244,42.054,24,41.096,24,40.062C24,37.261,25.794,35,28,35S32,37.261,32,40.062z"/><circle cx="26" cy="34" r="1" fill="#f57f17"/><circle cx="22" cy="33" r="1" fill="#f57f17"/><path fill="#f57f17" d="M22.5,28v5c0,0.28-0.22,0.5-0.5,0.5s-0.5-0.22-0.5-0.5v-5c0-0.28,0.22-0.5,0.5-0.5 S22.5,27.72,22.5,28z"/><path fill="#f57f17" d="M26.5,28v6c0,0.28-0.22,0.5-0.5,0.5s-0.5-0.22-0.5-0.5v-6c0-0.28,0.22-0.5,0.5-0.5 S26.5,27.72,26.5,28z"/><path fill="#f9a825" d="M18,28v0.73c-0.47,0.49-0.89,1.04-1.26,1.64c-0.72-0.36-1.39-0.79-1.97-1.25	c0.39-0.47,0.81-0.85,1.23-1.12C17.5,28,18,28,18,28z"/><path fill="#f9a825" d="M33.23,29.12c-0.58,0.46-1.25,0.89-1.97,1.25c-0.37-0.6-0.79-1.15-1.26-1.64V28c0,0,0.5,0,2,0	C32.42,28.27,32.84,28.65,33.23,29.12z"/><path fill="#fbc02d" d="M31.26,30.37c-0.4,0.21-0.82,0.39-1.26,0.56c-1.07,0.41-2.25,0.72-3.5,0.89V28	c0-0.28-0.22-0.5-0.5-0.5s-0.5,0.22-0.5,0.5v3.94C25.01,31.98,24.51,32,24,32s-1.01-0.02-1.5-0.06V28c0-0.28-0.22-0.5-0.5-0.5	s-0.5,0.22-0.5,0.5v3.82c-1.25-0.17-2.43-0.48-3.5-0.89c-0.44-0.17-0.86-0.35-1.26-0.56c0.37-0.6,0.79-1.15,1.26-1.64	c1.59-1.7,3.7-2.73,6-2.73s4.41,1.03,6,2.73C30.47,29.22,30.89,29.77,31.26,30.37z"/><path fill="#e65100" d="M22.5,28v3.94c-0.34-0.03-0.67-0.07-1-0.12V28c0-0.28,0.22-0.5,0.5-0.5S22.5,27.72,22.5,28z"/><path fill="#e65100" d="M26.5,28v3.82c-0.33,0.05-0.66,0.09-1,0.12V28c0-0.28,0.22-0.5,0.5-0.5S26.5,27.72,26.5,28z"/><ellipse cx="24" cy="22" fill="#fdd835" rx="14" ry="8"/><ellipse cx="24" cy="15" fill="#fdd835" rx="13" ry="12"/><path fill="#cfd8dc" d="M34,20c0-4.694-4.477-10-10-10s-10,5.306-10,10s4.477,7,10,7S34,24.694,34,20z"/><path fill="#eceff1" d="M32,20.412C32,15.993,28.418,11,24,11s-8,4.993-8,9.412S19.582,27,24,27S32,24.83,32,20.412z"/><path fill="#263238" d="M23,19.4c0,0.6,0.448,0.6,1,0.6s1,0,1-0.6c0-0.3-0.5-0.9-1-0.9S23,19.1,23,19.4z"/><circle cx="21" cy="18" r="1" fill="#263238"/><circle cx="27" cy="18" r="1" fill="#263238"/><path fill="#e57373" d="M26.99,20.58C26.97,21.92,26.31,23,25.5,23c-0.71,0-1.3-0.82-1.46-1.92L26.99,20.58z"/><path fill="#263238" d="M21.499,22c-0.24,0-0.452-0.174-0.492-0.418c-0.045-0.272,0.14-0.53,0.411-0.575l6.005-1.001	c0.257-0.041,0.528,0.143,0.571,0.417c0.043,0.272-0.144,0.528-0.417,0.571l-5.995,0.999C21.554,21.998,21.526,22,21.499,22z"/></svg>