<svg xmlns="http://www.w3.org/2000/svg" xmlns:xlink="http://www.w3.org/1999/xlink" viewBox="0 0 48 48" width="1600px" height="1600px"><path fill="#7e4d2d" d="M6.002,34.25c-0.872,0-1.737-0.379-2.33-1.108c-1.045-1.286-0.85-3.175,0.437-4.22l4-3.25	c1.283-1.045,3.175-0.85,4.22,0.437s0.85,3.175-0.437,4.22l-4,3.25C7.336,34.03,6.667,34.25,6.002,34.25z"/><path fill="#7e4d2d" d="M41.998,35c-0.657,0-1.319-0.215-1.872-0.657l-5-4c-1.294-1.035-1.504-2.923-0.469-4.217	c1.036-1.293,2.925-1.503,4.217-0.469l5,4c1.294,1.035,1.504,2.923,0.469,4.217C43.75,34.614,42.878,35,41.998,35z"/><path fill="#7e4d2d" d="M14.497,43c-1.284,0-2.236-1.189-1.951-2.441C13.082,38.206,13.842,35,14,35c0.25,0,7,3,7,3	l-2.417,4.029C18.221,42.631,17.57,43,16.868,43H14.497z"/><path fill="#7e4d2d" d="M27,38l2.126,3.543C29.668,42.447,30.645,43,31.699,43h1.65c1.329,0,2.288-1.272,1.923-2.549L34,36	L27,38z"/><g opacity=".39"><defs><rect id="wYN20Wyk2jl~7iIDCFw0Wa" width="48" height="48" x="-98.5" y="112" opacity=".39"/></defs><clipPath id="wYN20Wyk2jl~7iIDCFw0Wb"><use overflow="visible" xlink:href="#wYN20Wyk2jl~7iIDCFw0Wa"/></clipPath></g><path fill="#c88e66" d="M41,27c0-7.732-7.611-16-17-16S7,19.268,7,27s7.611,12,17,12S41,34.732,41,27z"/><circle cx="19" cy="23" r="2" fill="#263238"/><circle cx="29" cy="23" r="2" fill="#263238"/><path fill="#263238" d="M30.75,20H27.5c-0.276,0-0.5-0.224-0.5-0.5s0.224-0.5,0.5-0.5h3.25c0.276,0,0.5,0.224,0.5,0.5	S31.026,20,30.75,20z"/><path fill="#263238" d="M21.999,21c-0.219,0-0.439-0.071-0.624-0.219l-5-4c-0.431-0.346-0.501-0.975-0.156-1.406	c0.346-0.43,0.975-0.502,1.406-0.156l5,4c0.431,0.346,0.501,0.975,0.156,1.406C22.583,20.871,22.293,21,21.999,21z"/><path fill="#593625" d="M14.5,27.5l20,1c0,0-0.5,2.5-2,3.5c-2.791,1.861-14.25,1-16-0.5S14.5,27.5,14.5,27.5z"/><path fill="#eceff1" d="M21,28v1.153c0,0.489,0.353,0.906,0.836,0.986l4,0.667C26.445,30.908,27,30.437,27,29.82v-1.57L21,28	z"/><path fill="#593625" d="M25.93,33.539c-4.1,0-8.586-0.657-9.755-1.659c-1.881-1.612-2.161-4.22-2.172-4.33	c-0.015-0.145,0.034-0.289,0.135-0.395s0.227-0.173,0.388-0.154l20,1c0.145,0.007,0.279,0.077,0.369,0.191	c0.089,0.115,0.124,0.263,0.096,0.405c-0.022,0.11-0.56,2.716-2.213,3.818C31.598,33.202,28.862,33.539,25.93,33.539z M15.104,28.031c0.181,0.775,0.638,2.16,1.722,3.089c1.525,1.308,12.718,2.25,15.397,0.464c0.9-0.601,1.406-1.874,1.636-2.615	L15.104,28.031z"/></svg>