<svg xmlns="http://www.w3.org/2000/svg"  viewBox="0 0 48 48" width="1600px" height="1600px"><path fill="#263238" d="M27.957,2.026c-0.762,0.26-2.948,0.97-4.093,0.97c-0.717,0-1.256-0.24-1.776-0.473C21.509,2.267,20.911,2,19.864,2c-1.939,0.612-12,16.718-12,18.95c0,2.156,1.933,4.047,4.136,4.047l23.864-0.06c2.206,0,4-1.789,4-3.987C39.864,18.308,30.306,2.786,27.957,2.026z"/><path fill="#cfd8dc" d="M28.136,1c-2.188,0-2.813,0.997-4,0.997c-0.042,0-0.09-0.004-0.136-0.006c-0.046,0.002-0.094,0.006-0.136,0.006c-1.188,0-1.813-0.997-4-0.997s-13,17.207-13,19.95S9.25,25.997,12,25.997l12-0.03l12,0.03c2.75,0,5.136-2.304,5.136-5.047S30.323,1,28.136,1z M36,21.997l-12-0.03l-12,0.03c-0.476,0-0.959-0.377-1.097-0.808c1.021-2.724,7.149-13.405,9.805-15.995c0.048,0.021,0.101,0.044,0.158,0.07c0.654,0.292,1.643,0.732,2.998,0.732c0.042,0,0.092-0.008,0.136-0.009c0.044,0.001,0.094,0.009,0.136,0.009c1.355,0,2.343-0.44,2.998-0.732c0.057-0.026,0.11-0.049,0.158-0.07c2.656,2.589,8.784,13.271,9.805,15.995C36.959,21.619,36.476,21.997,36,21.997z"/><path fill="#37474f" d="M11 25.997H37V46.997H11z"/><path fill="#4caf50" d="M24,20.997h-0.014h-13c0,13.75,4.639,22.5,11.014,26h1.986H24h1.986c6.375-3.5,11.014-12.25,11.014-26H24z"/><path fill="#ffeb3b" d="M18.5 22.997A2.5 2 0 1 0 18.5 26.997A2.5 2 0 1 0 18.5 22.997Z"/><path fill="#1b5e20" d="M33,24.997c0,0-2.119,2-3.5,2s-2.5-0.833-2.5-2s1.119-2,2.5-2S33,24.997,33,24.997z"/><path fill="#37474f" d="M24 16.997A11 4 0 1 0 24 24.997A11 4 0 1 0 24 16.997Z"/><path fill="#37474f" d="M19 23.997A1 1 0 1 0 19 25.997A1 1 0 1 0 19 23.997Z"/><path fill="#263238" d="M21.638 39.998L23.999 39.997 23.999 39.997 24 39.997 24.001 39.997 24.001 39.997 26.362 39.998 28.254 41.574 31 36.997 17 36.997 19.746 41.574z"/><path fill="#ff1744" d="M37.017,20.997c-0.409-1.016-1.364-2.875-2.557-5H13.54c-1.193,2.125-2.148,3.984-2.557,5H37.017z"/><path fill="#ffc107" d="M24 14.997A2 2 0 1 0 24 18.997A2 2 0 1 0 24 14.997Z"/><path fill="#2e7d32" d="M29.334,44.473c-0.49,0.478-0.999,0.924-1.532,1.327l-2.164-1.804h-3.275l-2.163,1.803c-0.527-0.403-1.043-0.836-1.537-1.324l2.975-2.479h4.725L29.334,44.473z M32.013,32.705l-5.372-4.478c-0.18-0.149-0.406-0.231-0.641-0.231h-4c-0.234,0-0.46,0.082-0.64,0.231l-5.373,4.479L13,30.315v2.563l2.375,1.9c0.183,0.146,0.404,0.219,0.625,0.219c0.228,0,0.455-0.077,0.64-0.231l5.722-4.77h3.275l5.722,4.769c0.186,0.154,0.413,0.231,0.641,0.231c0.221,0,0.442-0.073,0.625-0.219l2.375-1.9v-2.562L32.013,32.705z M25.65,32.237c-0.181-0.156-0.412-0.241-0.65-0.241h-2c-0.239,0-0.47,0.085-0.651,0.241l-6.358,5.449L13,35.022v2.655l2.36,2.088c0.186,0.154,0.413,0.231,0.64,0.231c0.232,0,0.464-0.08,0.651-0.241l6.719-5.759h1.26l6.72,5.76c0.187,0.161,0.419,0.241,0.65,0.241c0.228,0,0.455-0.077,0.641-0.231L35,37.713v-2.642l-2.991,2.616L25.65,32.237z"/><path fill="#b0bec5" d="M13,20.997v26H9H6c0,0,3-10.75,3-17v-5l1.903-3.808l0.083-0.192H13z M39,29.997v-5l-2-4h-2v26h4h3C42,46.997,39,36.247,39,29.997z"/></svg>