<svg xmlns="http://www.w3.org/2000/svg"  viewBox="0 0 48 48" width="1600px" height="1600px"><path fill="#BF360C" d="M40,22c0-4.6-4-19-4-19c-6.2,0-7.7,16.7-7.9,21h-8.1C19.7,19.7,18.2,3,12,3c0,0-4,14.4-4,19c0,2.3,3,3.1,6.1,3.2c0,0.1-0.1,0.3-0.1,0.4v17.8c0,0.9,0.7,1.6,1.6,1.6h16.8c0.9,0,1.6-0.7,1.6-1.6V25.6c0-0.1,0-0.3-0.1-0.4C37,25.1,40,24.3,40,22z"/><path fill="#F4511E" d="M36 3H24 12c0 0 4.1 12.2-4 19v4.6C8 27.4 8.6 28 9.4 28H19v5h10v-5h9.6c.8 0 1.4-.6 1.4-1.4V22C31.9 15.2 36 3 36 3zM19 35H29V45H19z"/><path fill="#5D4037" d="M36.4,17.3c-0.5-1.1-0.8-2.2-1.1-3.3l-11.6,1l-11.1-0.9c-0.3,1.3-0.7,2.6-1.4,3.9c1.5,3,10.3,3,10.3,3H23h0.5H25C25,21,35.9,21.4,36.4,17.3z"/><path fill="#FFC107" d="M34,17.5c0,0.8-1.6,1.5-3.5,1.5S27,18.3,27,17.5s1.6-1.5,3.5-1.5S34,16.7,34,17.5z M17.5,16c-1.9,0-3.5,0.7-3.5,1.5s1.6,1.5,3.5,1.5s3.5-0.7,3.5-1.5S19.4,16,17.5,16z"/><path fill="#FFECB3" d="M32,17.5c0,0.8-0.7,1.5-1.5,1.5S29,18.3,29,17.5s0.7-1.5,1.5-1.5S32,16.7,32,17.5z M17.5,16c-0.8,0-1.5,0.7-1.5,1.5s0.7,1.5,1.5,1.5s1.5-0.7,1.5-1.5S18.3,16,17.5,16z"/><path fill="#FF8A65" d="M27 29L21 29 22 18 26 18z"/></svg>