<svg xmlns="http://www.w3.org/2000/svg"  viewBox="0 0 48 48" width="1600px" height="1600px"><path fill="#01579b" d="M41,15H24H7c-0.55,0-2,0.875-2,6s1.45,6,2,6h6v6l7,12h8l7-12v-6h6c0.55,0,2-0.875,2-6S41.55,15,41,15z"/><path fill="#0288d1" d="M39,17.5C39,8.94,34,2,24,2S9,8.94,9,17.5S8.716,27,17,27h1c0,0,2,0.083,2,2s0,15.625,0,15.625C20,45.384,20.616,46,21.375,46h5.25C27.384,46,28,45.384,28,44.625V29c0-1.917,2-2,2-2h1C39.284,27,39,26.06,39,17.5z"/><path fill="#29b6f6" d="M24,28L24,28c-1.1,0-2-0.9-2-2v-6c0-1.1,0.9-2,2-2h0c1.1,0,2,0.9,2,2v6C26,27.1,25.1,28,24,28z"/><path fill="#c5cae9" d="M37,13H24H11c-2.761,0-3,2.239-3,5s0.083,3.25,3,4c0,0,4.708,1,10.171,1c0.671,0,1.001-0.259,1.288-0.689l0.502-0.753c0.247-0.371,0.643-0.556,1.038-0.556s0.792,0.185,1.038,0.556l0.502,0.753C25.828,22.741,26.157,23,26.829,23C32.292,23,37,22,37,22c2.917-0.75,3-1.239,3-4S39.761,13,37,13z"/><path fill="#e8eaf6" d="M17.621,13l-8.404,8.403c-1.091-0.542-1.207-1.282-1.216-3.026L13.379,13H17.621z M23.414,13h-2.828l-9.096,9.096c0.495,0.092,1.344,0.24,2.439,0.389L23.414,13z"/><path fill="#212121" d="M30.896 33.354L27.987 30 24 30 19.944 30 17.098 33.343 13 27 13 30.605 16.902 36.657 20 33.019 20 32 20.868 32 24 32 27.075 32 28 32 28 33.066 31.104 36.646 35 30.605 35 27z"/></svg>