<svg xmlns="http://www.w3.org/2000/svg"  viewBox="0 0 48 48" width="1600px" height="1600px"><path fill="#01579B" d="M40,12c-1-2.9-2.9-3-4-3H24H12c-1.1,0-3,0.1-4,3L3.1,24.3C3.1,25.2,24,25,24,25s20.9,0.2,20.9-0.7L40,12z"/><path fill="#0277BD" d="M40,12c-1-2.9-2.9-3-4-3H24h-5c-0.6,2-3.9,3-7,3c-1.7,0-2,2-3,3.6S7.1,16.9,6,17l-2.9,7.3C3.1,25.2,24,25,24,25s20.9,0.2,20.9-0.7L40,12z"/><path fill="#039BE5" d="M43,23H5c-1.1,0-2,0.9-2,2v12c0,1.1,0.9,2,2,2h38c1.1,0,2-0.9,2-2V25C45,23.9,44.1,23,43,23z"/><path fill="#0288D1" d="M10,23c0,0,8.9,9,14,9s14-9,14-9"/><path fill="#FBC02D" d="M43,26v10c0,0.5-0.5,1-1,1H25c5-0.8,17-12,17-12C42.5,25,43,25.5,43,26z M5,26v10c0,0.5,0.5,1,1,1h17C18,36.2,6,25,6,25C5.5,25,5,25.5,5,26z"/><path fill="#FFFDE7" d="M35,32c0-1.1,0.9-2,2-2s2,0.9,2,2c0,1.1-0.9,2-2,2S35,33.1,35,32z M13,32c0-1.1-0.9-2-2-2s-2,0.9-2,2c0,1.1,0.9,2,2,2S13,33.1,13,32z"/><path fill="#01579B" d="M41,28.6V35h-8C36,32.9,39,30.4,41,28.6 M42,25c0,0-12,11.2-17,12h17c0.6,0,1-0.5,1-1V26C43,25.5,42.5,25,42,25L42,25z M7,28.6c2,1.8,5,4.3,8,6.4H7V28.6 M6,25c-0.5,0-1,0.5-1,1v10c0,0.5,0.4,1,1,1h17C18,36.2,6,25,6,25L6,25z"/></svg>