<svg xmlns="http://www.w3.org/2000/svg"  viewBox="0 0 48 48" width="1600px" height="1600px"><path fill="#F4511E" d="M43,26v-9h-3c0,0-1.8-14-16-14S8,17,8,17H5v9h0c0,0-1,17,19,17C44,43,43,26,43,26z"/><path fill="#FF8A65" d="M44,25h-3c-0.5,0-1-0.5-1-1v-7c0-0.5,0.5-1,1-1h3c0.5,0,1,0.5,1,1v7C45,24.5,44.5,25,44,25z M8,24v-7c0-0.5-0.4-1-1-1H4c-0.5,0-1,0.5-1,1v7c0,0.5,0.5,1,1,1h3C7.6,25,8,24.5,8,24z"/><path fill="#9FA8DA" d="M7,25v6H4v-6H7z M41,25v6h3v-6H41z M27,42v-3c0-1.7-1.3-3-3-3s-3,1.3-3,3v3c0,1.7,1.3,3,3,3S27,43.7,27,42z M25,39v3c0,0.6-0.4,1-1,1s-1-0.4-1-1v-3c0-0.6,0.4-1,1-1S25,38.4,25,39z"/><path fill="#C5CAE9" d="M24 31A2 2 0 1 0 24 35A2 2 0 1 0 24 31Z"/><path fill="#C5CAE9" d="M24,39L24,39c-0.6,0-1-0.5-1-1v-4c0-0.5,0.4-1,1-1h0c0.5,0,1,0.5,1,1v4C25,38.5,24.6,39,24,39z"/><path fill="#263238" d="M37,20l2,6h2v4l-2,1l-1-4h-4l-1,6h-4l-3-7h-2h0h-2l-3,7h-4l-1-6h-4l-1,4l-2-1l0-4h2l2-6h3l1,6h4l3-7h2h2l3,7h4l1-6H37z M34,10l-2-1l-3,3h-5h-5l-3-3l-2,1l-1,3l3,2h6l1-2h1h1l1,2h6l3-2L34,10z"/><path fill="#FFF" d="M19,12h1c0,1.1-0.9,2-2,2s-2-0.9-2-2c0-0.8,0.5-1.5,1.2-1.8L19,12z M29,12h-1c0,1.1,0.9,2,2,2s2-0.9,2-2c0-0.8-0.5-1.5-1.2-1.8L29,12z"/><path fill="#FFC107" d="M18,11l1,1c0,0.6-0.4,1-1,1s-1-0.4-1-1S17.4,11,18,11z M30,11l-1,1c0,0.6,0.4,1,1,1s1-0.4,1-1S30.6,11,30,11z"/><path fill="#7986CB" d="M7,27H4v-2h3V27z M44,25h-3v2h3V25z"/></svg>