<svg xmlns="http://www.w3.org/2000/svg"  viewBox="0 0 48 48" width="1600px" height="1600px"><path fill="#dd2c00" d="M22.75 21.357L24.194 21.357 25.01 20 23.565 20zM14.75 29c-1.228 0-2.757.13-4.5.625C7.624 30.371 6 31.013 4.625 31.013c-.625 0-1.12-.197-1.694-.601C2.25 29.875 1.961 28.818 2 27.625c.007-.228.026-.46.056-.694.435-2.383 1.722-4.676 3.811-7.219 1.166-1.323 2.248-2.459 3.677-2.914 1.095-.286.968.394.836.52-.755 0-1.108.635-1.13 1.14C9.235 18.839 9.419 19 9.651 19 10.375 19 11 18 11 17.25 11 17 11 16 9.75 16c-1.221 0-2.361.606-3.419 1.267-2.458 1.739-4.425 4.148-5.538 6.786-.642 1.591-1.222 3.871-.352 5.726C1.055 30.954 2.25 32 4 32c1.875 0 2.924-.518 3.875-.75C8.826 31.017 13.401 29.036 15 32c0 0 .625-1 2.25-1 .875 0 2.602.142 3.75 1C20.618 31.415 18.75 29 14.75 29zM30 25.502c0-1.281-.626-1.498-1.048-1.498-1.141 0-2.325 1.052-2.941 2.531-.324.76-.511 1.594-.636 2.469.373-.449 1.155-1.269 2.019-1.672 0 0 .067-.682.667-1.534.201-.313.582-.796 1.022-.794.056 0 .112.008.169.025.184.064.274.306.274.656 0 .496-.18 1.027-.527 1.757-.438.916-1.294 1.834-1.972 2.466-.446.395-1.051.855-1.651.855C24.25 30.762 24 29.875 24 28.75c0-1.625 1.32-4.197 2.763-6.441 1.066-1.493 2.147-3.014 3.487-4.176.53-.46 1.625-1.414 2.5-1.414.152 0 .296.024.433.076C32.209 17.406 30 19.01 30 21c0 .756.59 1 .875 1C32.119 22 34 20.205 34 17.5v-.423c0 0 .125-.073.5-.073.625 0 1.383.314 1.383.314.799.276 2.312 1.282 3.144 1.75.384-.448.775-.882 1.177-1.293-.548-.292-1.518-.807-2.204-1.15-.88-.44-1.734-.622-2.375-.622-1.25 0-1.917.503-1.917.503-.289-.329-.684-.503-1.083-.503-1.125 0-2.046.564-2.625.886-1.56.868-2.954 2.273-4.552 4.307-1.611 2.185-2.611 4.071-3.143 5.935-.183.559-.309 1.236-.304 1.911.006.84.216 1.677.771 2.284.446.487.968.663 1.479.673.465.009.921-.12 1.301-.279 1.729-.888 3.468-2.805 4.242-5.007C29.897 26.347 30 25.925 30 25.502zM33.5 17.5c0 2.442-1.724 4-2.624 4-.004 0-.376-.028-.376-.5 0-1.754 2.126-3.265 3-3.812V17.5zM45.755 17.561L45.755 17.561c-.683.405-1.389.7-2.151.846-.356.313-.643.583-.648.588-.258.27-.544.61-.846.999 1.587-.027 3.127-.945 4.062-1.832C47.38 17.066 48 16 48 16S47.094 16.768 45.755 17.561z"/><path fill="#dd2c00" d="M42.347 29.125C42.604 28.654 45 24 45 24h-1.536c-.013.022-.143.268-.264.499 0 0-.13-.498-.797-.498-.291 0-.603.089-.845.232-1.651 1.008-2.759 2.911-3.71 4.463 0 0-1.099 1.804-1.599 1.804C36 30.5 36 30.229 36 30c0-.75.48-2.166.872-3.05.798-.577 1.708-1.333 2.535-2.161 1.477-1.473 2.978-3.094 3.592-3.88-.188.033-.387.043-.583.057-1.755 2.008-4.261 4.569-5.065 4.977.38-.953 2.832-5.5 4.919-7.675 0 0 1.73-1.642 2.119-1.647.043-.005.178.01.178.139 0 .089-.016.191-.039.298.153-.065.308-.148.463-.23.002-.026.008-.051.009-.077.003-.109-.003-.217-.02-.323-.034-.211-.18-.371-.371-.408-.065-.013-.13-.019-.196-.02-.566-.005-1.142.417-1.631.766L42.76 16.78c-2.806 2.294-5.542 5.783-7.614 10.298-.132.105-.579.218-.756.2.2-.43.444-.991.568-1.604C34.979 25.492 35 25.307 35 25.126c0-.39-.09-.756-.427-1.009C34.41 24.033 34.231 24 34.053 24c-.251.001-.499.071-.692.162-1.474.634-2.575 2.2-3.37 3.49-.427.819-.854 1.697-.972 2.702-.011.1-.017.196-.019.288-.016.625.161 1.039.537 1.26.444.235 1.003-.009 1.223-.127 1.493-.815 2.536-2.449 3.358-3.942l.027-.054c.147-.009.476-.032.745-.105.005 0-.891 1.577-.891 2.952 0 .413.068.748.269 1.01.199.256.448.368.724.365.706-.007 1.591-.748 2.275-1.643-.175 1.278.343 1.639.85 1.643.085.001.171-.014.252-.031.649-.183 1.373-.907 1.708-1.278C40.047 30.818 40 31.091 40 31.25c0 .375.25.748.75.748.625 0 1.422-.694 1.625-.873C43.474 30.152 44.67 28.581 45 28h-.512c-.238.375-1.176 1.537-1.863 2.107C42.436 30.265 42.2 30.5 42 30.5c-.116 0-.211-.125-.153-.306C41.936 29.911 42.143 29.498 42.347 29.125zM30.921 30.281L30.921 30.281c-.08-.122-.106-.256-.108-.4-.015-.887.906-2.477 1.556-3.343h.001c.273.618.89 1.016 1.262 1.184C33.17 28.79 31.583 31.078 30.921 30.281zM33.893 27.244c-.044.032-.822-.24-.973-.987-.128-.643.3-1.145.713-1.399.177-.145.445-.195.641-.122.182.127.231.353.231.597 0 .15-.019.303-.036.444 0 0-.003.027-.004.032C34.336 26.312 34.138 26.805 33.893 27.244zM41.299 28.155c-.3.52-.616 1.033-.965 1.518-.073.101-.294.393-.407.494-.159.143-.402.302-.655.245-.076-.017-.123-.128-.136-.206-.012-.563.231-1.085.467-1.594l.06-.133c.678-1.182 1.369-2.486 2.527-3.452.195-.147.407-.27.63-.174.043.042.085.111.099.183C42.346 26.139 41.502 27.764 41.299 28.155zM19.625 26.107C19.436 26.265 19.2 26.5 19 26.5c-.116 0-.211-.125-.153-.306.089-.283.296-.696.5-1.069C19.604 24.654 22 20 22 20h-1.536c-.013.022-.143.268-.264.499 0 0-.13-.498-.797-.498-.291 0-.603.089-.845.232-1.651 1.008-2.759 2.911-3.71 4.463 0 0-.143.233-.349.531-.302.417-.685.793-.931 1.024 0 0-1.169 1.109-1.672.292-.184-.343-.127-.845-.024-1.174.586-1.756 1.511-3.35 2.659-4.312.324-.266.676-.343.851-.23.167.104.145.421.04.597-.267-.009-.482.077-.656.266-.252.279-.392.55-.392.81 0 .429.201.5.377.5.534 0 1.247-1.19 1.245-2.015.002-.36-.192-.668-.451-.826-.191-.12-.431-.158-.672-.158-.518 0-1.034.353-1.225.499-.409.312-.847.76-1.169 1.135-.362.421-.882.871-1.306 1.138C10.876 22.962 10.546 23 10.546 23S11 22.125 11 21.125c0-.5-.094-.734-.391-.962l0 0c-.888-.614-2.673.56-4.103 2.573-1.307 1.806-1.872 3.905-1.258 4.875.914 1.142 2.611-.519 3.332-1.408l.093-.104c.491-.555.87-1.223 1.237-1.865 0 0 .337-.587.353-.614.179-.011.449-.064.742-.19C11.002 23.445 10 25.125 10 26.375c0 .291.042 1.273 1.021 1.593 1.246.22 2.354-.593 3.247-1.611-.175 1.278.343 1.639.85 1.643.085.001.171-.014.252-.031.649-.183 1.373-.907 1.708-1.278C17.047 26.818 17 27.091 17 27.25c0 .375.25.748.75.748.625 0 1.422-.694 1.625-.873C20.474 26.152 21.67 24.581 22 24h-.512C21.25 24.375 20.311 25.537 19.625 26.107zM9.029 24.795c-.388.546-.873 1.233-1.48 1.562-.18.063-.428.104-.555-.063-.268-.339-.13-.808-.018-1.187l.04-.135c.144-.41.325-.799.525-1.171.25-.462.729-1.209.831-1.326.001.005.003.005.004.014.312.632.898.925 1.335 1.061.003 0 .023.006.023.006C9.735 23.568 9.029 24.795 9.029 24.795zM10.027 23c-.527 0-1.02-.408-1.113-.742-.128-.65.399-1.16.631-1.345.139-.102.327-.172.497-.172.392 0 .445.415.445.66C10.486 22.085 10.14 22.799 10.027 23zM17.334 25.672c-.073.101-.294.393-.407.494-.159.143-.402.302-.655.245-.076-.017-.123-.128-.136-.206-.012-.563.231-1.085.467-1.594l.06-.133c.678-1.182 1.369-2.486 2.527-3.452.195-.147.407-.27.63-.174.043.042.085.111.099.183-.574 1.102-1.418 2.728-1.621 3.118C17.999 24.675 17.683 25.188 17.334 25.672z"/></svg>