<svg xmlns="http://www.w3.org/2000/svg"  viewBox="0 0 48 48" width="1600px" height="1600px"><path fill="#fff" d="M24 5A19 19 0 1 0 24 43A19 19 0 1 0 24 5Z"/><path fill="#c68632" d="M24,6c9.925,0,18,8.075,18,18s-8.075,18-18,18S6,33.925,6,24S14.075,6,24,6 M24,4 C12.954,4,4,12.954,4,24s8.954,20,20,20s20-8.954,20-20S35.046,4,24,4L24,4z"/><path fill="#c62828" d="M24.01,39C15.691,39.007,9.007,32.302,9,23.944C8.993,15.792,15.741,9.05,23.863,9 C32.051,8.95,38.955,15.473,39,23.895C39.044,32.298,32.356,38.993,24.01,39z"/><path fill="#000001" d="M36.999,22.472L36.509,22.2l-1.986-1.006l-1.758,0.815l-0.015-0.008c0-0.001,0.001-0.001,0.001-0.002 h-0.005l-1.992-1l-1.642,1.077l0.004-0.004l-1.892-0.95c0,0-0.849,0.001-1.724,0.376c-0.619,0.265-1.106,0.642-1.106,0.642 l0.005-0.004l-1.892-0.95c0,0-1.382,0.063-3.257,1.688C17.579,24.323,17,25.5,17,25.5c0-1.5,0.908-2.908,1.156-3.25 c1.178-1.626,2.304-2.971,3.862-4.087l1.469,0.719C23.632,18.951,23.797,19,24,19c1.25,0,2-0.761,2-1.75 c0-0.488-0.237-0.815-0.573-1.014l0.003-0.003l-0.061-0.031c-0.034-0.018-0.067-0.036-0.103-0.052l-1.861-0.93 C23.405,15.22,18,16,15,20s-3.11,7.792-3.11,7.792l2.006,1.003c0,0,0.001,0,0.001,0.001l0.018,0.009l0.001-0.003 C14.165,28.925,14.478,29,14.875,29c1.09,0,2.148-0.522,2.961-1.048l1.913,0.958l0.005-0.005c0.114,0.051,0.236,0.089,0.37,0.095 c0.736,0.035,1.356-0.467,1.903-0.954c0.07-0.063,0.138-0.128,0.204-0.194l0.063,0.038l1.978,0.987 c0.005,0.003,0.011,0.005,0.017,0.009l0.094,0.047l0.006-0.006C24.495,28.969,24.612,29,24.75,29c0.624,0,1.284-0.349,1.851-0.753 l1.044,0.524l0.302,0.152l0.005-0.005C28.069,28.968,28.206,29,28.375,29c0.496,0,1.169-0.441,1.744-0.897l1.273,0.639l0.302,0.152 l0.003-0.003c0.129,0.066,0.272,0.107,0.428,0.107c0.74,0.002,1.356-0.467,1.903-0.954c0.874-0.779,1.57-1.707,2.107-2.754 c0.076-0.148,0.151-0.293,0.151-0.293s1.854-0.328,2.455-1.614L36.999,22.472z"/><path fill="#000001" d="M33.085,19.044c0,0-1.744-0.874-1.744-0.874l-1.591,1.697l1.699,0.851 c0.232,0.098,0.506,0.157,0.801,0.157c0.828,0,1.5-0.448,1.5-1C33.75,19.529,33.486,19.224,33.085,19.044z"/><path fill="#fff" d="M36.509,22.2c-0.552,0.475-1.394,0.8-1.758,0.799c0,0,0.25-0.375,0.25-0.875 C35,21.625,34.75,21,33.648,21c-1.522,0-2.866,1.923-3.407,2.625c-0.099,0.128-0.469,0.559-0.809,0.962 C28.597,25.461,28.012,26,27.625,26c-0.086,0-0.158-0.105-0.125-0.25c0.063-0.279,0.34-0.707,0.436-0.833 c0.806-1.057,2.008-2.861,2.814-3.917h-1.625c-1.375,2-2.331,3.269-3.5,4.25C25.354,25.477,24.75,26,24.375,26 C24.125,26,24,25.809,24,25.5c0-1.25,1.088-2.693,2-3.25c0,0-0.25,0.25-0.25,0.625c0,0.41,0.25,0.5,0.5,0.5 c0.099,0,0.21-0.001,0.332-0.038c0.73-0.217,1.213-1.023,1.081-1.801C27.431,21.146,27.125,21,26.625,21 c-1,0-1.888,0.834-2.375,1.25c-0.538,0.459-1.125,0.75-1.5,0.75c0,0,0.25-0.375,0.25-0.875s-0.25-1.123-1.353-1.123 c-1.522,0-3.031,1.91-3.572,2.611C17.704,24.094,16.5,25.5,15.75,25.5c-0.5,0-0.75-0.375-0.75-1c0-1.5,0.908-2.908,1.156-3.25 c1.468-2.027,2.844-3.625,5.094-4.875c0,0-0.25,0.375-0.25,0.75C21,17.639,21.375,18,22,18c1.25,0,2-0.761,2-1.75 c0-0.875-0.75-1.25-1.5-1.25c-2.375,0-4.575,1.558-5.25,2c-1.869,1.225-3.5,2.875-4.701,4.601c-0.597,0.906-1.109,1.849-1.37,2.899 C11.111,24.773,11,25.375,11,26c0,0.768,0.25,2,1.875,2c1.875,0,3.677-1.543,4.25-2c0,0-0.125,0.25-0.125,0.625 c0.005,0.685,0.455,1.343,1.125,1.375c0.736,0.035,1.356-0.467,1.903-0.954c0.874-0.779,1.57-1.707,2.107-2.754 C22.211,24.145,22.286,24,22.286,24h0.464c-0.5,0.75-1,1.625-1,2.75c0,0.541,0.25,1.25,1,1.25c1.5,0,3.25-2,3.25-2 s-0.5,0.5-0.5,1.125c0,0.5,0.25,0.875,0.875,0.875c0.75,0,1.911-1.009,2.512-1.551c0.048-0.043,0.096-0.089,0.145-0.136 C29.014,26.403,29,26.504,29,26.623c0.005,0.685,0.454,1.373,1.125,1.375c0.74,0.002,1.356-0.467,1.903-0.954 c0.874-0.779,1.57-1.707,2.107-2.754c0.076-0.148,0.151-0.293,0.151-0.293s1.609-0.169,2.713-1.527L36.509,22.2z M19.375,26 C19.125,26,19,25.625,19,25.375c0-1.25,1.5-2.75,2-3v0.5c0,0.25,0.001,0.573,0.167,0.738c0.085,0.084,0.208,0.137,0.208,0.137 C21.375,24,20.125,26,19.375,26z M31.375,25.998c-0.25,0-0.375-0.375-0.375-0.625c0-1.25,1.5-2.75,2-3v0.5 c0,0.25,0.001,0.573,0.167,0.738c0.085,0.084,0.208,0.137,0.208,0.137C33.375,23.998,32.125,25.998,31.375,25.998z"/><path fill="#fff" d="M30.5 18A1.5 1 0 1 0 30.5 20A1.5 1 0 1 0 30.5 18Z"/></svg>