<svg xmlns="http://www.w3.org/2000/svg"  viewBox="0 0 48 48" width="1600px" height="1600px" baseProfile="basic"><polygon fill="#26a69a" points="12.849,41.968 14.651,41.968 17.107,35.247 19.18,40.692 16.796,40.692 16.796,41.968 21.421,41.968 18.167,33.676 16.111,33.676 12.849,41.968"/><polygon fill="#26a69a" points="20.065,33.668 20.065,35.055 22.688,35.055 22.688,41.968 24.506,41.968 24.506,35.047 27.153,35.047 27.153,33.668"/><polygon fill="#26a69a" points="27.783,33.652 27.783,41.968 33.5,41.968 33.5,40.565 29.625,40.565 29.625,38.3 33.094,38.3 33.094,36.905 29.617,36.905 29.617,35.031 33.333,35.031 33.333,33.652"/><polygon fill="#26a69a" points="33.763,33.7 35.645,33.7 37.925,40.334 39.751,35.007 37.646,35.007 37.646,33.7 42,33.7 38.882,41.968 36.921,41.968 33.763,33.7"/><path fill="#8bc34a" d="M6,6h36v26H6V6z"/><path fill="#26a69a" d="M6,33.676h2.639c0.12,0.12,4.585-0.558,4.545,4.042c0.104,4.665-4.784,4.274-4.784,4.274H6V33.676z M8.281,35.111H7.746v5.478h0.439c1.005,0.016,3.277-0.199,3.182-2.934C11.334,35.175,9.285,35.079,8.281,35.111L8.281,35.111z"/></svg>