<svg xmlns="http://www.w3.org/2000/svg"  viewBox="0 0 48 48" width="1600px" height="1600px"><path fill="#f44336" d="M32.5,7c-3.968,0-7.692,1.938-10.5,4.507v6.556C23.849,14.209,28.025,11,32.5,11c5.238,0,9.5,4.262,9.5,9.5S37.738,30,32.5,30c-1.991,0-3.949-0.653-5.571-1.807c-2.554-1.818-3.101-4.449-4.979-6.494c-1.753-1.91-4.141-3.179-6.704-3.568C14.669,18.043,14.084,18,13.5,18C7.159,18,2,23.159,2,29.5S7.159,41,13.5,41c2.763,0,5.377-1.057,7.5-2.775v-6.242c-1.559,3-4.688,5.018-7.5,5.018C9.364,37,6,33.636,6,29.5S9.364,22,13.5,22c1.644,0,3.264,0.547,4.565,1.553c2.16,1.669,2.93,4.496,4.828,6.42c1.834,1.859,4.201,3.166,6.752,3.72C30.583,33.897,31.541,34,32.5,34C39.944,34,46,27.944,46,20.5S39.944,7,32.5,7z"/></svg>