<svg xmlns="http://www.w3.org/2000/svg"  viewBox="0 0 48 48" width="1600px" height="1600px"><path fill="#0D47A1" d="M21.2,15c0-0.3-0.2-0.4-0.4-0.4c-1.2,0-2.9,3.1-2.9,5C19.8,18.5,21.2,16.2,21.2,15z M14.8,31.4c0,0.9,0.4,1.5,1.3,1.5c2.5,0,4-3.9,4.5-7.3C18,26.8,14.8,29,14.8,31.4z M31.2,15.2c0-0.3-0.1-0.6-0.4-0.6c-0.8,0-2.2,1.8-2.2,4.1C30.3,17.2,31.2,16,31.2,15.2z M24,4C13,4,4,13,4,24s9,20,20,20c11,0,20-9,20-20S35,4,24,4z M24,42c-9.9,0-18-8-18-18c0-9.9,8.1-18,18-18c9.9,0,18,8.1,18,18C42,33.9,33.9,42,24,42z M31.3,9.8c-1.4-0.4-2.5-0.7-3.9-0.7c-3.1,0-3.2,1.7-4.6,1.7c-0.8,0-1.3-0.6-1.3-1.3c0-1.2,1.4-2.2,3.7-2.2c2.1,0,3.7,0.5,4.1,0.7l0.1-0.1C28.8,7.7,26.8,7,24,7c-6.1,0-12.3,3.1-14.3,9.7c-0.4,1.4-0.7,2.5-0.7,3.9c0,3.1,1.7,3.2,1.7,4.6c0,0.7-0.6,1.3-1.3,1.3c-1.2,0-2.2-1.4-2.2-3.7c0-2.1,0.5-3.7,0.6-4.1l-0.1-0.1C7.7,19.3,7,21.2,7,24c0,6.1,3.1,12.3,9.7,14.3c1.4,0.4,2.5,0.7,3.9,0.7c3.1,0,3.2-1.8,4.6-1.8c0.7,0,1.3,0.6,1.3,1.3c0,1.2-1.4,2.1-3.7,2.1c-2.1,0-3.8-0.5-4.1-0.6l-0.1,0.2c0.6,0.3,2.6,0.8,5.4,0.8c6.1,0,12.3-3.1,14.3-9.7c0.4-1.3,0.7-2.5,0.7-3.8c0-3.1-1.7-3.2-1.7-4.6c0-0.8,0.5-1.3,1.3-1.3c1.2,0,2.2,1.4,2.2,3.7c0,2.1-0.5,3.7-0.6,4.1l0.2,0.1c0.2-0.6,0.8-2.6,0.8-5.4C41,18,37.9,11.8,31.3,9.8z M29.9,34.6c-3.9,0-5.9-3.3-5.9-6.2c0-4.1,2.8-5.9,4-6.5c-0.2-0.2-0.4-0.4-0.6-0.7c-1.4,1-2.6,1.8-5.2,3.3c-0.1,1.8-0.3,3.8-0.7,5.1c-1,2.9-2.9,5-5.5,5c-2.2,0-3.3-1.6-3.3-3.3c0-1.2,0.7-2.8,2-4c1.6-1.5,3.4-2.4,5.9-3.7c0.1-0.3,0.1-0.7,0.2-1.1c-0.6,0.6-1.5,0.8-2.3,0.8c-1.2,0-2.1-1-2.4-2.1c-1.6-0.1-2.8-1.2-2.8-3c0-1.3,0.5-2.4,1.4-2.4c0.3,0,0.4,0.3,0.4,0.5c0,0.2-0.3,1-0.3,1.7c0,0.7,0.3,1.7,1.2,1.7c0-2.9,2.1-6.7,4.7-6.7c1.7,0,1.9,1.2,1.9,1.8c0,2.7-2.7,5.6-4.8,6.3c0.1,0.2,0.3,0.9,1,0.9c0.8,0,1.9-0.8,2.4-1.4c0.2-1.2,1.1-2.9,2.2-2.9c0.4,0,0.7,0.3,0.7,0.7c0,0.8-0.9,1.9-1.6,2.6c-0.1,0.6-0.2,1.2-0.2,1.7c2-1.2,3-1.8,4.5-2.9c-0.1-0.4-0.1-0.9-0.1-1.3c0-2.6,1.8-5.6,4.1-5.6c1.3,0,2,0.9,2,1.9c0,1.9-1.6,3.6-3.9,5.4c0.2,0.4,0.4,0.8,0.9,1.1c0.1-0.1,0.8-0.2,1.4-0.2c0.7,0,1.6,0.2,1.6,0.9c0,0.8-1.1,1-1.9,1c-0.4,0.1-1.2-0.1-1.2-0.1c-1.2,0.3-3.6,1.8-3.6,5.4c0,2.4,1.5,4.7,3.9,4.7c1.8,0,3.3-1.3,3.3-3.4c0-1.3-0.6-2.8-1.9-2.8c-0.7,0-1.3,0.5-1.3,1.2c-0.1,1.1,0.8,1.2,0.8,2c0,0.5-0.4,0.7-0.8,0.7c-1.1,0-2-1.1-2-2.5c0-1.7,1.5-3.1,3.4-3.1c2.5,0,3.8,2.1,3.8,4.5C35.3,32,33.1,34.6,29.9,34.6z"/></svg>