<svg xmlns="http://www.w3.org/2000/svg"  viewBox="0 0 48 48" width="1600px" height="1600px"><path fill="#FF3D00" d="M6,10c0-2.209,1.791-4,4-4h28c2.209,0,4,1.791,4,4v28c0,2.209-1.791,4-4,4H10c-2.209,0-4-1.791-4-4V10z"/><path d="M39.307,18.498c-0.834-0.957-2.074-1.442-3.685-1.442h-0.106c-1.525,0-2.82,0.42-3.868,1.252c-0.851-0.851-2.173-1.299-3.833-1.299c-1.357,0-2.518,0.294-3.519,0.895c-0.714-0.595-1.732-0.948-2.833-0.948c-1.683,0-3.124,0.255-4.348,1.27c-0.062-0.086-0.13-0.168-0.204-0.246c-0.38-0.399-1.084-0.872-2.29-0.872c-2.249,0-3.231,1.439-3.554,1.913c-1.011,1.459-3.458,6.476-3.388,9.133c0,1.982,1.578,3.388,3.841,3.401c0.081,0.005,0.19,0.007,0.299,0.007c1.253,0,2.32-0.271,3.141-0.793c0.792,0.547,1.791,0.841,2.896,0.841c1.36,0,2.582-0.339,3.493-0.95c0.821,0.617,1.899,0.949,3.128,0.949c1.599,0,3.068-0.533,4.258-1.524c0.809,0.983,2.115,1.524,3.769,1.524c1.57,0,3.86-0.34,5.609-3.279c0.85-1.493,1.586-3.351,1.932-4.863C40.244,22.556,40.766,20.165,39.307,18.498z"/><path fill="#FFEB3B" d="M42,23.885v-4.533c-0.223-0.743-0.592-1.488-1.188-2.171c-0.843-0.968-2.431-2.125-5.189-2.125h-0.106c-1.402,0-2.672,0.283-3.793,0.844c-1.081-0.586-2.404-0.891-3.908-0.891c-1.231,0-2.369,0.205-3.396,0.611c-0.884-0.434-1.897-0.665-2.957-0.665c-1.231,0-2.731,0.109-4.182,0.806c-0.66-0.372-1.531-0.654-2.659-0.654c-1.509,0-3.637,0.483-5.207,2.787C8.567,19.116,6.738,22.643,6,25.719v4.223c0.745,2.135,2.8,3.578,5.459,3.611c0.104,0.006,0.232,0.008,0.36,0.008c1.147,0,2.184-0.182,3.099-0.541c0.891,0.388,1.888,0.589,2.938,0.589c1.253,0,2.423-0.227,3.447-0.663c0.944,0.436,2.02,0.662,3.174,0.662c1.474,0,2.873-0.352,4.121-1.026c1.079,0.669,2.415,1.026,3.905,1.026c3.182,0,5.647-1.432,7.328-4.256c0.969-1.702,1.77-3.724,2.162-5.441C41.996,23.902,41.998,23.893,42,23.885z M40.045,23.465c-0.346,1.513-1.082,3.37-1.932,4.863c-1.749,2.939-4.039,3.279-5.609,3.279c-1.653,0-2.96-0.541-3.769-1.524c-1.189,0.991-2.659,1.524-4.258,1.524c-1.229,0-2.307-0.332-3.128-0.949c-0.912,0.611-2.133,0.95-3.493,0.95c-1.105,0-2.104-0.294-2.896-0.841c-0.821,0.521-1.888,0.793-3.141,0.793c-0.109,0-0.218-0.002-0.299-0.007c-2.264-0.014-3.842-1.419-3.841-3.401c-0.07-2.657,2.376-7.674,3.388-9.133c0.323-0.474,1.305-1.913,3.554-1.913c1.206,0,1.909,0.473,2.29,0.872c0.074,0.078,0.142,0.16,0.204,0.246c1.224-1.015,2.665-1.27,4.348-1.27c1.102,0,2.12,0.354,2.833,0.948c1.001-0.601,2.162-0.895,3.519-0.895c1.66,0,2.982,0.448,3.833,1.299c1.048-0.832,2.343-1.252,3.868-1.252h0.106c1.61,0,2.851,0.485,3.685,1.442C40.766,20.165,40.244,22.556,40.045,23.465z"/><path fill="#FFF" d="M11.554 29.68c-1.022 0-1.939-.451-1.939-1.575-.051-1.99 2.044-6.575 3.068-8.052.486-.712 1.026-1.071 1.938-1.071.866 0 1.081.406 1.022.864 0 1.324-2.259 5.35-3.014 6.934 1.776-.254 2.207.307 2.153.919C14.622 29.377 13.006 29.732 11.554 29.68zM18.391 25.248c-.104.309-.32.92-.483 1.588.593-.109 1.022-.21 1.776-.21.81 0 1.401.354 1.401 1.02 0 1.631-1.941 2.089-3.229 2.089-1.458 0-2.694-.765-2.694-2.242 0-1.783.969-4.431 1.939-6.169 1.131-2.189 2.317-2.494 4.36-2.494.862 0 1.941.405 1.941 1.171 0 1.125-1.028 1.531-1.992 1.585-.435.046-1.081.046-1.458.046 0 0-.319.459-.644 1.277 1.777-.206 2.583.155 2.258 1.172C21.138 25.4 19.9 25.5 18.391 25.248z"/><path fill="#FFF" d="M29.379 25.4c-.541 2.396-2.316 4.332-4.901 4.332-1.777 0-2.852-.918-2.852-2.593 0-1.224.645-3.115 1.126-4.232 1.081-2.341 2.208-4.022 5.062-4.022 1.727 0 3.07.61 2.854 2.137-.156 1.12-.749 1.734-1.775 1.834-.321 0-1.563 0-1.129-1.117.106-.361.215-.668-.435-.668-.483 0-.802.307-1.021.614-.536.712-1.668 3.515-1.83 4.637-.163.819.214.964.593.964.645 0 1.347-.657 1.614-1.676 0 0-1.237-.052-.913-1.018.321-1.024.966-1.225 1.992-1.277C29.756 23.259 29.541 24.637 29.379 25.4zM35.482 18.928c-2.902-.046-3.82 1.783-4.736 4.034-.536 1.217-1.129 3.105-1.129 4.43 0 1.884 1.452 2.341 2.748 2.341 1.236 0 2.688-.252 3.932-2.341.695-1.224 1.394-2.908 1.719-4.331C38.283 21.835 38.876 18.928 35.482 18.928zM33.765 26.674c-.215.359-.487.609-.864.609s-.535-.25-.535-.504c-.057-.765 1.451-4.638 1.992-5.303.215-.307.481-.352.754-.352.432 0 .482.307.482.504C35.543 22.495 34.196 25.961 33.765 26.674z"/></svg>