<svg xmlns="http://www.w3.org/2000/svg"  viewBox="0 0 48 48" width="1600px" height="1600px"><path fill="#e53935" d="M7.001,10.227c0.111,18.43,5.827,30.126,16.996,34.772h0.006	c11.168-4.646,16.885-16.343,16.996-34.772C32.527,4.894,25.147,3,24,3S15.473,4.894,7.001,10.227z"/><path fill="#cfd8dc" d="M24,4.001c0.866,0.068,7.564,1.566,15.993,6.777C39.778,28.231,34.4,39.374,24,43.913	C13.6,39.374,8.222,28.231,8.007,10.778C16.436,5.567,23.134,4.069,24,4.001 M24,2c-1.165,0-8.852,1.81-18,7.678	c0,25.323,10.329,33.213,17.613,36.244C23.738,45.974,23.869,46,24,46c0.131,0,0.262-0.026,0.387-0.078	C31.671,42.891,42,35.001,42,9.678C32.852,3.81,25.165,2,24,2L24,2z"/><path fill="#fff" d="M21.195,35.943c-0.521,0.413-1.076,0.57-1.401,1.03c0.05-0.728,0.547-1.659,0.891-1.749	C21.302,35.062,21.461,35.732,21.195,35.943z M27.645,35.723c-0.017,0.475,0.616,1.082,0.892,1.181	c-0.349-0.499-0.138-1.141-0.312-1.361C28.058,35.332,27.645,35.371,27.645,35.723z M23.645,36.416	c-0.493,0.35-0.53,1.027-0.523,1.584c0.151-0.459,0.883-0.767,1.043-1.051C24.321,36.674,24.014,36.154,23.645,36.416z M20.894,20.481c0,0.498,1.764,0.559,2.386,0.563c1.329,0.007,4.475-0.269,6.651-2.568c-1.67,1.426-4.11,2.078-7.078,2.05	C22.06,20.518,20.901,20.176,20.894,20.481z M33.578,25.97c-0.18-0.595-0.524-0.946-0.839-1.05	c-1.021-0.339-1.874-0.103-3.324-0.145c-1.077-0.032-2.383-0.469-2.432-2.107c-0.407,1.126,0.477,2.008,1.044,2.186	c0.502,0.158,0.463,0.607,0.44,0.666c-0.118,0.305-0.662,0.347-1.215,0.096c-0.648-0.294-1.159-1.113-1.42-1.632	c0.367,1.334,1.256,2.097,2.344,2.448c0.433,0.14,1.434,0.183,2.507-0.107c-0.904-0.072-1.31-0.129-1.634-0.427	c-0.196-0.18-0.158-0.579-0.043-0.697c0.094-0.096,0.375,0.054,0.862,0.024c1.157-0.072,2.004,0.11,2.392,0.449	c0.385,0.336,0.591,0.714,0.601,1.249c0.027,1.437-1.064,3.3-1.971,4.733c-0.719,1.284-1.367,1.788-2.651,2.338	c-1.006,0.431-2.129,0.607-3.399,0.68h-0.51c-1.335,0-2.559-0.281-3.248-1.55c-0.71-1.306-0.684-3.092-0.436-4.555	c-0.257,0.054-0.636,0.748-1.899,0.744c-0.609-0.002-1.092-0.4-1.089-0.836c0.005-0.531,0.721-1.038,1.202-1.027	c0.413,0,0.662,0.396,0.67,0.592c0.003,0.08-0.176,0.313-0.519,0.313c-0.319-0.017-0.425-0.246-0.538-0.422	c-0.39,1.093,1.394,1.315,1.991,0.302c0.342-0.581,0.293-1.346-0.143-1.757c-0.606-0.574-2.283-0.272-2.708,0.756	c-0.153,0.356-0.219,0.691-0.43,1.074c-0.102,0.184-0.501,0.818-0.567,0.89c0.611,0.036,1.238,0.382,1.253,1.018	c0.011,0.482-0.311,0.626-0.306,1.187c0.006,0.655,0.646,0.954,1.047,1.319c0.524,0.478,0.733,0.845,0.712,1.184	c-0.062,1.04,1.026,0.759,1.868,1.175c1.055,0.522,0.064,1.578,2.219,1.017c0.651-0.169,1.333,0.428,2.132,0.384	c0.676-0.037,1.491-0.922,2.276-1.265c0.961-0.421,1.941-0.167,2.574-0.92c0.448-0.569,0.418-1.289,1.032-2.435	c0.547-1.021,1.01-0.913,1.334-1.74c0.196-0.5,0.428-1.549,0.532-1.979c0.121-0.497,0.583-0.666,0.567-1.306	C33.846,26.586,33.678,26.299,33.578,25.97z M18.66,33.196c-0.435,0.003-1.237,0.927-1.354,1.589	c0.383-0.452,1.37-0.515,1.623-0.763C19.182,33.775,19.096,33.194,18.66,33.196z M14.257,17.311c0.302-0.667,0.883-1.37,1.491-1.793	c-0.19,0.016-0.502,0.244-0.66,0.244c-0.362,0-0.2-1.163,0.057-1.192c0.084-0.009,0.092,0.068,0.196,0.064	c0.236-0.009,0.421-0.284,0.425-0.467c0.007-0.357-0.453-1.014-0.774-1.136c0.243,0.3,0.487,0.676,0.248,0.885	c-0.121,0.106-0.299-0.14-0.464-0.113c-0.378,0.061-0.309,1.449-0.425,1.456c-0.175,0.011-0.534-1.429-0.386-1.585	c0.081-0.086,0.223,0.013,0.287-0.036c0.087-0.067-0.084-0.532-0.375-0.826c-0.313-0.317-0.761-0.427-1.04-0.321	c0.292,0.026,0.784,0.216,0.784,0.431c0.001,0.342-0.339,0.222-0.291,1.051c0.032,0.553,0.297,0.806,0.428,1.143	c0.065,0.171,0.102,0.317,0.048,0.418c-0.045,0.085-0.262-0.032-0.481-0.174c-0.264-0.17-0.564-0.417-0.603-0.794	c-0.02-0.193-0.288-0.518-0.619-0.682c-0.374-0.187-0.835-0.252-1.105-0.071c0.502-0.031,1.013,0.153,1.109,0.505	c0.05,0.186,0.005,0.657,0.06,0.761c0.089,0.171,0.306,0.092,0.489,0.313c0.184,0.221,0.255,0.417,0.462,0.594	C13.788,16.559,14.522,16.217,14.257,17.311z M16.988,29.732c-0.6-0.014-1.425,1.385-1.437,1.922	c0.436-0.537,1.097-0.572,1.597-0.851C17.603,30.549,17.649,29.747,16.988,29.732z M31.897,32.373	c0.337,0.023,0.672-0.011,0.996-0.196c-0.489,0.013-0.836-0.377-1.067-0.377C31.432,31.802,31.447,32.341,31.897,32.373z M33.626,28.172c-0.19,0.091-0.117,0.336,0.113,0.334c0.362-0.003,0.493-0.243,0.707-0.28	C34.062,28.194,33.743,28.116,33.626,28.172z M26.327,11.636c-0.536-0.452-1.589-1.51-2.14-2.006	c0.21,0.437,1.113,2.187,1.559,2.187C25.954,11.816,26.14,11.726,26.327,11.636z M21.211,30.187	c-0.387,0.041-0.123-0.742-0.399-0.96c-0.137,0.919-0.077,1.805,0.107,2.686c0.038-1.09,0.939-0.273,1.88-0.306	c0.29-0.01,0.613-0.219,0.972-0.156c0.062,0.011,0.314,0.15,0.424,0.007c0.624-0.812,0.956-0.787,1.749-0.156	c-0.28-0.765-1.418-1.005-2.04-0.546c-0.329,0.281-0.624,0.22-1.033,0.18c-0.246-0.024-0.408,0.021-0.412-0.135	c-0.003-0.13,0.228-0.318,0.343-0.355c0.557-0.178,1.132-0.466,1.365-1.044c0.124-0.269,0.085-0.575,0.192-0.662	c0.168-0.137,0.527-0.036,0.961,0.201c-0.186-0.24-0.567-0.439-0.941-0.451c-0.565-0.018-1.026,0.365-1.024,0.43	c0.004,0.106,0.202,0.114,0.199,0.244c0,0.26-1.302,1.158-1.385,1.046c-0.099-0.135,0.708-0.911,0.685-1.413	c-0.01-0.203-0.483-0.142-0.516-0.315c-0.061-0.316,0.537-0.503,0.95-0.565c-0.765-0.037-1.58,0.131-1.625,0.71	c-0.039,0.503,0.371,0.348,0.346,0.528C21.951,29.575,21.663,30.138,21.211,30.187z M35,17.167	c-0.213-0.383-0.493-0.875-0.711-0.822c-0.074,0.542-0.179,1.14-0.685,1.648c0.061-0.436,0.111-0.811-0.006-1.123	c-0.211,0.095-0.498,0.357-1.147,0.414c0.199-0.132,0.528-0.431,0.45-0.58c-0.194-0.369-1.371-0.227-1.703,0.043	c-0.024-0.215-0.061-0.423-0.1-0.616c-0.247,0.02-0.869,0.031-0.901,0.369c-0.027,0.285,0.43,0.543,0.728,0.596	c0.421,0.093,0.563,0.172,0.699,0.586c0.049-0.196,0.139-0.269,0.132-0.421c0.262,0.39,0.445,0.966,0.595,1.368	c0.222,0.004,0.377-0.059,0.53-0.276c0.088-0.125,0.095-0.351,0.153-0.413c0.036,0.304,0.027,0.498-0.052,0.789	c0.084-0.022,0.18-0.099,0.278-0.189c0.009,0.715-0.417,1.408-1.192,1.517c0.567-0.915-0.126-0.842-1.615-0.923	c0.086-0.077,0.253-0.094,0.44-0.159c0.256-0.088,0.498-0.219,0.515-0.41c0.012-0.132-0.27-0.285-0.495-0.436	c-0.418-0.28-0.645-0.433-1.002-0.287c-0.388-0.346-0.849-0.368-1.195-0.222c-0.122,0.011-0.258-0.002-0.363,0.063	c-0.252,0.155-0.465,0.401-0.997,0.73c-1.666,1.031-3.709,1.381-5.253,1.458c-0.4,0.02-0.808-0.001-1.222,0.011	c-0.499,0.014-0.885,0.133-0.907,0.325c-0.016,0.141,0.089,0.257,0.192,0.35c1.96,1.76,5.443,1.416,8.002,0.15	c-3.62,2.614-8.174,0.871-9.009,0.414c-0.289-0.158-0.449-0.154-0.583-0.046c-0.137,0.11-0.166,0.295-0.058,0.605	c0.18,0.519,0.328,0.793,0.454,1.05c0.608,1.235,1.623,2.307,2.816,2.67c-2.24-0.507-3.553-2.362-4.144-4.339	c-0.042,0.931,0.254,1.896,0.637,2.646c0.749,1.462,1.347,1.669,1.774,2.347c-0.976-0.219-1.908-0.016-2.346,0.529	c-0.443,0.55-0.574,1.57-0.999,2.006c-0.187-0.54-0.492-1.141-0.688-1.829c-0.709-2.49-0.755-4.954,0.223-7.018	c0.88-1.856,1.869-3.537,4.884-4.205c-0.839,0.717-2.47,2.089-2.447,2.812c0.028,0.885,0.873-0.331,1.021-0.461	c0.77,2.573,6.702,1.206,8.338-0.276c-0.183-0.069-0.836-0.494-0.924-1.087c-0.144-0.978,0.906-1.187,1.527-1.267	c-0.923-0.515-1.807,0.18-1.958,0.823c-3.085-2.069-7.671-1.099-9.847,1.689c-2.696,3.453-2.067,7.817-0.46,10.359	c-1.339-1.109-2.117-2.913-2.392-3.66c-0.187-0.506-0.261-0.814-0.341-0.792c-0.13,0.035-0.275,0.544-0.275,0.749	c-0.839-1.248,0.873-4.81,1.573-6.059c-0.441,0.134-0.999,0.635-1.295,0.982c0.068-2.216,2.767-4.236,3.65-5.008	c-0.461,0.044-0.923,0.188-1.385,0.367c1.326-2.154,6.062-2.015,8.011-1.929c-0.764-0.257-1.382-0.373-1.967-0.483	c1.596-0.028,3.657,0.035,4.79-0.675c0.319,0.398,1.006,1.127,1.618,1.178C27.249,11.54,25.986,9.495,25.803,8	c0.572,1.448,2.704,4.489,4.619,4.81c0.319,0.053,0.504-0.048,0.883,0.082c0.306,0.104,0.651,0.362,0.686,0.579	c0.077,0.48-0.009,1.427,1.001,1.388c0.05,0.642,0.443,0.583,0.969,0.548c0.056,0.224,0.041,0.284,0.209,0.463	C34.482,16.2,34.966,16.704,35,17.167z M31.547,13.999c-0.112-0.088-0.428-0.193-0.849-0.408c0.161,0.601,0.574,0.992,0.963,1.015	C31.703,14.376,31.63,14.065,31.547,13.999z M24.971,23.863c-1.595,0-4.127-0.416-5.177-1.854c-0.054-0.074-0.546-0.745-0.652-0.397	C19.008,22.052,21,24.391,24.971,23.863z M30.88,24.429c-0.43-1.51-2.404-2.533-3.717-2.471c1.086,0.396,2.1,0.902,2.152,1.313	c0.054,0.427-0.939,0.946-1.778,0.413c0.587,0.848,1.73,0.902,1.78,0.83c0.046-0.068-0.116-0.32-0.045-0.452	C29.447,23.734,30.703,24.194,30.88,24.429z M33.982,26.007c0.156-0.062,0.255-0.259,0.333-0.427	c-0.26,0.209-0.446,0.088-0.522,0.255C33.729,25.978,33.891,26.044,33.982,26.007z"/></svg>