<svg xmlns="http://www.w3.org/2000/svg"  viewBox="0 0 48 48" width="1600px" height="1600px" clip-rule="evenodd" baseProfile="basic"><path fill="#1c1c1c" d="M24.146,45.987c-0.141,0-0.281-0.029-0.412-0.089c-5.777-2.614-10.788-6.969-14.11-12.262	c-3.25-5.177-4.958-11.183-5.376-18.901c-0.141-2.595-0.134-5.88,0.021-10.04c0.018-0.473,0.364-0.868,0.83-0.948	c12.66-2.186,25.438-2.186,38.098,0c0.466,0.08,0.812,0.476,0.83,0.948c0.155,4.156,0.162,7.44,0.021,10.04	c-0.42,7.721-2.128,13.727-5.377,18.901c-3.322,5.294-8.333,9.648-14.11,12.262C24.428,45.958,24.287,45.987,24.146,45.987z M6.238,5.583c-0.125,3.715-0.123,6.681,0.006,9.044c0.399,7.366,2.012,13.068,5.074,17.947c3.036,4.837,7.58,8.84,12.828,11.312	c5.248-2.471,9.792-6.474,12.828-11.312c3.062-4.877,4.674-10.579,5.075-17.947c0.128-2.367,0.13-5.333,0.006-9.044	C30.141,3.614,18.152,3.614,6.238,5.583z"/><path fill="#1c1c1c" fill-rule="evenodd" d="M24.091,25.948c0,0,0.189,1.113,0.158,1.233	c-0.1,0.385-1.271,6.569-1.347,7.313c-0.043,0.423-0.029,0.524,0.083,0.899c0.316,1.059,1.859,4.311,1.859,4.311l-0.018,0.849	c-0.374-0.566-2.409-4.309-3.209-6.382C21.523,33.925,23.669,26.927,24.091,25.948z" clip-rule="evenodd"/><path fill="#1c1c1c" fill-rule="evenodd" d="M21.124,20.194c0,0,0.812,1.976,0.842,2.2	c0.029,0.216,0.024,0.274-0.052,0.48c-0.186,0.495-2.222,4.383-2.442,4.795c-0.108,0.203-0.21,0.336-0.414,0.543	c-0.466,0.474-1.357,1.371-1.909,1.872c-0.2,0.182-0.254,0.338-0.295,0.574c-0.066,0.379-0.131,1.026-0.149,1.36	c-0.016,0.294,0.032,0.431,0.195,0.722c0.973,1.736,4.219,5.731,5.144,6.569c0.067,0.061,0.116,0.102,0.258,0.196	c0.136,0.091,0.579,0.379,0.579,0.379c0.018,0.012,0.033,0.029,0.044,0.047l0,0l0.16,0.283c0,0-0.015-0.007-0.042-0.021	l-0.069-0.034c-0.056-0.028-0.129-0.065-0.214-0.107l-0.206-0.103c-0.316-0.159-0.693-0.35-0.891-0.456	c-0.082-0.044-0.158-0.096-0.229-0.155c-1.083-0.901-4.402-4.788-5.379-6.412c-0.243-0.405-0.268-0.537-0.236-0.92	c0.061-0.714,0.156-1.612,0.239-2.005c0.05-0.237,0.102-0.377,0.284-0.586c0.611-0.704,1.356-1.633,2.082-2.587l0.255-0.337	c1.101-1.463,2.114-2.927,2.493-3.673c0.087-0.17,0.094-0.229,0.096-0.389c0.005-0.465-0.143-1.37-0.182-1.599	c-0.006-0.036-0.008-0.072-0.005-0.108l0,0L21.124,20.194z" clip-rule="evenodd"/><path fill="#1c1c1c" fill-rule="evenodd" d="M30.183,19.322l0.281,0.122	c0.083,0.036,0.159,0.089,0.221,0.154c1.721,1.797,3.097,3.661,3.372,4.152c0.053,0.094,0.089,0.189,0.102,0.297	c0.309,2.621,0.044,5.398-0.588,7.814c-0.057,0.218-0.121,0.33-0.331,0.487c-0.674,0.508-1.681,1.317-2.682,2.142l-0.316,0.261	c-1.206,0.999-2.351,1.978-2.837,2.428c-0.122,0.113-1.164,1.899-1.164,1.899c-0.227-0.495-0.721-1.704-0.89-2.192	c-0.055-0.159-0.065-0.243-0.007-0.456c0.277-1.013,1.584-3.957,1.838-4.489l0,0l0,0.218c0,0.032-0.005,0.063-0.015,0.093	c-0.115,0.348-0.989,3.959-0.96,4.179c0.063,0.47,0.343,1.331,0.343,1.331s0.2-0.871,0.355-1.106	c0.076-0.115,4.738-4.304,5.414-4.852c0.176-0.143,0.242-0.238,0.281-0.508c0.194-1.333,0.563-3.399,0.446-5.14	c-0.022-0.329-0.04-0.785-0.225-1.058c-0.424-0.628-0.932-1.222-1.701-1.985c-0.11-0.109-0.185-0.249-0.213-0.402	C30.684,21.514,30.183,19.322,30.183,19.322L30.183,19.322z" clip-rule="evenodd"/><path fill="#1c1c1c" fill-rule="evenodd" d="M15.632,22.095c0.107-0.034,0.221-0.039,0.33-0.012	c0.491,0.118,1.529,0.373,2.314,0.574c0.11,0.028,0.248,0.131,0.306,0.229l0,0l0.171,0.285c0.06,0.1,0.064,0.222,0.011,0.326	c-0.143,0.277-1.277,2.626-1.446,2.896c-0.112,0.178-0.174,0.257-0.372,0.328c-0.772,0.272-1.516,0.264-2.086,0.449	c-0.117,0.038-0.156,0.108-0.133,0.238c0.041,0.236,0.172,1.035,0.223,1.269c0.019,0.086,0.088,0.155,0.215,0.13	c0.337-0.064,0.974-0.202,0.974-0.202s-0.264,0.245-0.423,0.389c-0.029,0.027-0.063,0.047-0.1,0.059	c-0.244,0.082-0.841,0.249-1.027,0.29c-0.145,0.031-0.238-0.026-0.275-0.19c0,0-0.254-1.084-0.346-1.453	c-0.015-0.056-0.029-0.105-0.047-0.16c-0.069-0.213-0.234-0.633-0.328-0.852c-0.011-0.025-0.016-0.053-0.016-0.081	c0.003-0.251,0.049-0.811,0.049-0.811s0.549,0.515,0.815,0.701c0.06,0.042,0.096,0.051,0.169,0.032	c0.365-0.094,1.204-0.372,1.665-0.544c0.105-0.039,0.197-0.106,0.269-0.192c0.477-0.576,1.074-1.472,1.419-2.148	c0.048-0.093,0.057-0.2,0.027-0.3l0,0l-0.074-0.245c-0.022-0.072-0.097-0.153-0.167-0.179c-0.812-0.309-1.452-0.539-2.204-0.795l0,0	L15.632,22.095z" clip-rule="evenodd"/><path fill="#1c1c1c" fill-rule="evenodd" d="M31.692,15.118c0.179-0.066,0.374-0.061,0.55,0.013	c1.361,0.572,3.65,1.917,4.922,2.865c0.123,0.092,0.172,0.155,0.204,0.303c0.299,1.36,0.412,3.462,0.224,5.232	c-0.014,0.127-0.039,0.203-0.105,0.339c-0.806,1.65-1.493,3.245-2.447,4.443c0,0-0.051-0.548-0.047-0.938	c0-0.044-0.035-0.794,0-0.82c0.177-0.138,0.389,0.015,0.527-0.105c0.067-0.058,0.104-0.102,0.139-0.158	c0.389-0.629,1.084-1.946,1.365-2.739c0.068-0.193,0.096-0.398,0.079-0.603c-0.09-1.104-0.263-2.635-0.521-3.633	c-0.044-0.17-0.156-0.314-0.313-0.394c-0.223-0.114-0.659-0.314-1.653-0.713c-0.138-0.055-0.267-0.132-0.38-0.227	c-0.652-0.548-1.671-1.37-2.305-1.843c-0.185-0.138-0.422-0.189-0.648-0.138c-0.462,0.105-1.05,0.251-1.381,0.341	c-0.112,0.03-0.157,0.033-0.273,0.02c-0.06-0.007-0.139-0.015-0.221-0.022l-0.124-0.011c-0.145-0.012-0.28-0.023-0.333-0.027	L28.926,16.3C30.004,15.793,31.042,15.356,31.692,15.118z" clip-rule="evenodd"/><path fill="#1c1c1c" fill-rule="evenodd" d="M17.067,23.763c-0.337,0.556-0.74,1.146-1.045,1.514	c-0.04,0.048-0.093,0.085-0.153,0.108c-0.333,0.125-0.889,0.313-1.298,0.438l0,0L17.067,23.763z" clip-rule="evenodd"/><path fill="#1c1c1c" fill-rule="evenodd" d="M12.961,23.063l-0.117,1.875l-0.877-1.043	C12.09,23.627,12.961,23.063,12.961,23.063z" clip-rule="evenodd"/><path fill="#1c1c1c" fill-rule="evenodd" d="M16.489,15.531l-0.185,0.228c-0.01,0.01-0.02,0.02-0.031,0.03	c-0.163,0.12-0.848,0.645-1.033,0.793c-0.053,0.042-0.073,0.078-0.086,0.144c-0.042,0.232-0.111,0.674-0.131,0.919	c-0.006,0.072-0.037,0.107-0.11,0.137c-0.318,0.129-0.695,0.266-0.999,0.388c-0.065,0.026-0.083,0.036-0.122,0.065	c-0.03,0.024-0.435,0.385-0.435,0.385s0.88-0.217,1.203-0.29c0.077-0.017,0.11-0.013,0.181,0.021	c0.067,0.031,0.178,0.075,0.236,0.096c0.09,0.033,0.137,0.032,0.237,0.01c0.364-0.081,1.158,0.016,1.484-0.069	c0.169-0.044,0.262-0.09,0.405-0.19c0.156-0.108,0.551-0.405,0.551-0.405s-0.007,0.052-0.013,0.081	c-0.004,0.025-0.013,0.039-0.029,0.059c-0.08,0.097-0.221,0.254-0.291,0.326c-0.16,0.166-0.256,0.225-0.457,0.309	c-0.925,0.386-2.688,0.743-3.874,1.154c-0.078,0.027-0.111,0.049-0.169,0.108c-0.063,0.064-0.146,0.156-0.146,0.156	s0.967,0.07,1.262,0.104c0.096,0.011,0.164,0.042,0.237,0.105c0.243,0.209,1.046,1.036,1.286,1.324c0,0-2.283,0.38-3.341,0.643	c-0.131,0.032-0.196,0.115-0.225,0.22c-0.088,0.308-0.294,1.297-0.294,1.297s-0.073-0.024-0.176-0.083	c-0.07-0.04-0.106-0.074-0.183-0.156c-0.25-0.265-0.661-0.771-0.859-1.065c-0.058-0.087-0.083-0.197-0.01-0.286	c0.214-0.264,0.645-0.746,0.883-0.994c0.025-0.027,0.058-0.074,0.092-0.141c0.08-0.159,0.185-0.562,0.222-0.707l0.012-0.047l0,0	l0.002-0.006c0,0-0.002,0.001-0.006,0.004l-0.043,0.027c-0.059,0.037-0.154,0.097-0.195,0.123c-0.061,0.039-0.078,0.056-0.103,0.109	c-0.039,0.081-0.106,0.208-0.157,0.297c-0.017,0.029-0.062,0.074-0.086,0.093c-0.303,0.232-0.638,0.481-0.877,0.649	c-0.016,0.011-0.037,0.006-0.051-0.007c-0.03-0.03-0.158-0.175-0.18-0.209c-0.019-0.029-0.028-0.055-0.028-0.09	c0-0.06,0.005-0.167,0.011-0.246c0.007-0.094,0.034-0.138,0.148-0.256c0.127-0.132,0.266-0.271,0.412-0.414	c0.358-0.301,1.261-1.035,2.874-2.187c0.03-0.022,0.058-0.047,0.08-0.078c0.17-0.229,0.651-0.853,0.769-1.002	c0.017-0.021,0.035-0.04,0.057-0.057c0.19-0.15,0.284-0.215,0.477-0.337C15.132,16.331,16.002,15.815,16.489,15.531L16.489,15.531z" clip-rule="evenodd"/><path fill="#1c1c1c" fill-rule="evenodd" d="M26.319,15.02c0.068-0.012,0.137-0.002,0.199,0.027l0,0	l0.471,0.226c0.046,0.022,0.08,0.064,0.092,0.115c0.064,0.27,0.142,0.627,0.195,0.931c0.021,0.126-0.002,0.255-0.066,0.366	c-0.195,0.339-0.595,0.949-0.819,1.277c-0.05,0.074-0.056,0.163-0.04,0.25c0.102,0.562,0.525,2.524,0.525,2.524l0,0l-0.267-0.243	c-0.053-0.049-0.088-0.101-0.111-0.168c-0.19-0.555-0.819-1.494-0.983-2.059c-0.026-0.093-0.006-0.192,0.055-0.266	c0.278-0.338,0.683-0.878,0.919-1.22c0.066-0.096,0.088-0.202,0.049-0.282c-0.054-0.112-0.146-0.281-0.234-0.435	c-0.024-0.043-0.063-0.074-0.11-0.09l0,0l-0.32-0.103c-0.056-0.018-0.116-0.017-0.171,0.003c-0.696,0.253-1.358,0.397-1.931,0.635	c-0.084,0.035-0.118,0.038-0.22,0.022c-0.166-0.025-0.649-0.111-0.886-0.156c-0.043-0.008-0.064-0.056-0.042-0.094l0,0l0.281-0.488	c0.038-0.066,0.101-0.113,0.175-0.129C23.986,15.458,25.182,15.221,26.319,15.02z" clip-rule="evenodd"/><path fill="#1c1c1c" fill-rule="evenodd" d="M16.792,17.025c0.063-0.005,0.122,0.029,0.146,0.084	c0.082,0.185,0.06,0.391-0.02,0.568c-0.031,0.072-0.127,0.142-0.205,0.158l0,0l-0.656,0.14c-0.04,0.008-0.076-0.022-0.073-0.061l0,0	l0.061-0.742c0.005-0.05,0.045-0.09,0.098-0.094l0,0L16.792,17.025z" clip-rule="evenodd"/><path fill="#1c1c1c" fill-rule="evenodd" d="M21.448,13.852c0.052,0,0.085,0.056,0.059,0.101l0,0l-1.1,1.896	c-0.061,0.112-0.164,0.195-0.285,0.231l0,0l-1.777,0.417c-0.239,0.073-0.442,0.112-0.691,0.131c-0.457,0.034-1.669,0.06-1.669,0.06	l1.425-1.474c0.053-0.065,0.122-0.128,0.196-0.167c0.656-0.345,1.823-0.864,2.64-1.138c0.077-0.026,0.181-0.042,0.262-0.043l0,0	L21.448,13.852z" clip-rule="evenodd"/><path fill="#1c1c1c" fill-rule="evenodd" d="M20.345,11.651c1.264-0.541,4.754-1.051,7.944-0.377	c0.167,0.013,1.416,0.497,1.57,0.563c0.964,0.406,1.942,1.194,3.844,2.283c0.084,0.048,0.163,0.104,0.235,0.168	c0.504,0.444,1.78,1.752,1.78,1.752l0,0L35.32,15.96c-0.056-0.011-0.108-0.033-0.155-0.064c-0.805-0.542-1.981-1.246-2.966-1.743	c-0.117-0.059-0.243-0.096-0.374-0.11c-0.479-0.051-1.127-0.096-1.551-0.113c-0.209-0.009-0.351-0.044-0.556-0.148	c-0.391-0.198-0.982-0.382-1.453-0.563c-0.202-0.077-0.716-0.261-0.914-0.258c-0.81,0.012-4.336,0.047-4.336,0.047	c1.299-0.255,4.672-0.573,5.975-0.642l0,0l-0.53-0.177c-0.102-0.034-0.209-0.052-0.317-0.055c-0.283-0.007-0.912-0.019-1.729-0.02	l-0.279,0c-1.237,0.002-2.829,0.033-4.297,0.143c-0.128,0.01-0.253,0.04-0.371,0.093c-0.593,0.261-2.039,1.046-3.489,1.852	l-0.322,0.179c-0.375,0.209-0.746,0.417-1.098,0.615c0,0,0.181-0.233,0.216-0.278c0.031-0.039,0.04-0.047,0.082-0.074	c0.058-0.038,0.257-0.169,0.458-0.303l0.149-0.099c0.12-0.08,0.228-0.152,0.289-0.194c0.03-0.02,0.049-0.035,0.087-0.063	c0.437-0.33,1.126-0.911,1.537-1.271c0.093-0.081,0.172-0.176,0.237-0.281c0.133-0.215,0.278-0.448,0.367-0.578	C20.053,11.744,20.183,11.665,20.345,11.651z" clip-rule="evenodd"/><path fill="#1c1c1c" fill-rule="evenodd" d="M36.746,6.325c1.24,0.121,2.478,0.26,3.715,0.416l0,0V7.19	c-0.535-0.068-1.07-0.132-1.606-0.193l0,0v2.334c-0.163-0.019-0.326-0.037-0.489-0.055l0,0V6.942	c-0.539-0.059-1.08-0.115-1.619-0.168l0,0V6.325z" clip-rule="evenodd"/><path fill="#1c1c1c" fill-rule="evenodd" d="M16.154,5.959v0.448c-1.02,0.063-2.039,0.138-3.057,0.225l0,0	v0.685c0.906-0.078,1.812-0.145,2.719-0.203l0,0v0.449c-0.907,0.058-1.813,0.126-2.719,0.203l0,0v0.752	c1.018-0.087,2.038-0.162,3.057-0.225l0,0v0.448c-1.179,0.073-2.358,0.162-3.536,0.266l0,0V6.225	C13.796,6.12,14.975,6.032,16.154,5.959L16.154,5.959z" clip-rule="evenodd"/><path fill="#1c1c1c" fill-rule="evenodd" d="M27.271,5.751c1.181,0.028,2.361,0.073,3.541,0.133l0,0v0.448	c-1.02-0.052-2.041-0.093-3.062-0.121l0,0v0.685c0.908,0.025,1.816,0.06,2.723,0.104l0,0V7.45c-0.907-0.044-1.815-0.079-2.723-0.104	l0,0v0.752c1.021,0.028,2.042,0.069,3.062,0.121l0,0v0.448c-1.18-0.06-2.36-0.105-3.541-0.133l0,0V5.751z" clip-rule="evenodd"/><path fill="#1c1c1c" fill-rule="evenodd" d="M21.128,5.748v2.013c0,0.637-0.334,0.777-1.007,0.798	c-0.586,0.018-1.172,0.04-1.759,0.066c-0.625,0.028-1.007-0.091-1.007-0.721l0,0V5.891l0,0l0.479-0.025v2.098	c0,0.128,0.109,0.231,0.254,0.225c0.768-0.036,1.537-0.065,2.305-0.087c0.146-0.004,0.243-0.116,0.243-0.243l0,0V5.761	C20.8,5.756,20.963,5.752,21.128,5.748L21.128,5.748z" clip-rule="evenodd"/><path fill="#1c1c1c" fill-rule="evenodd" d="M34.854,6.155c-0.612-0.051-1.223-0.097-1.835-0.139	c-0.697-0.047-1.006,0.081-1.006,0.705v1.243c0,0.661,0.34,0.79,1.006,0.835c0.612,0.042,1.223,0.088,1.835,0.138	c0.66,0.054,1.005-0.058,1.005-0.683V7.012C35.859,6.375,35.459,6.205,34.854,6.155z M35.38,8.279c0,0.127-0.127,0.244-0.254,0.233	c-0.793-0.067-1.586-0.127-2.38-0.18c-0.146-0.01-0.255-0.144-0.255-0.271V6.685c0-0.146,0.109-0.248,0.255-0.238	c0.794,0.052,1.587,0.112,2.38,0.179c0.127,0.011,0.254,0.131,0.254,0.276V8.279z" clip-rule="evenodd"/><path fill="#1c1c1c" fill-rule="evenodd" d="M23.245,5.716c0.88-0.006,1.76-0.003,2.64,0.009l0,0v0.448	c-0.94-0.012-1.881-0.015-2.822-0.007c-0.127,0.001-0.255,0.112-0.255,0.239l0,0V7.8c0,0.128,0.127,0.254,0.255,0.252	c0.844-0.007,1.687-0.006,2.531,0.004l0,0V7.304c-0.49-0.005-0.979-0.008-1.469-0.008l0,0V6.847c0.649,0,1.299,0.005,1.948,0.015	l0,0v1.649c-0.912-0.014-1.824-0.017-2.737-0.012c-0.668,0.005-1.007-0.111-1.007-0.76l0,0V6.526	C22.328,5.92,22.632,5.721,23.245,5.716z" clip-rule="evenodd"/><path fill="#1c1c1c" d="M10.653,6.415c-0.941,0.099-1.881,0.207-2.82,0.326v2.783c0.163-0.021,0.326-0.041,0.489-0.061V8.602	c0.776-0.095,1.554-0.183,2.331-0.265c0.562-0.059,0.876-0.294,0.876-0.877V7.146C11.529,6.576,11.215,6.357,10.653,6.415z M11.051,7.623c0,0.121-0.127,0.237-0.253,0.251C9.972,7.959,9.146,8.052,8.321,8.153V7.129c0.825-0.101,1.65-0.194,2.476-0.28	c0.126-0.013,0.253,0.083,0.253,0.211V7.623z"/></svg>