<svg xmlns="http://www.w3.org/2000/svg"  viewBox="0 0 48 48" width="1600px" height="1600px"><path fill="#00a950" d="M45.091,27.365c-0.177-0.61-0.285-1.254-0.357-1.906c-0.139-1.308-0.086-2.659,0.1-3.999	c0.158-1.347,0.494-2.676,0.854-4.001l0.652-1.977c0.298-0.746,0.678-1.865,0.882-2.524c0,0-0.802,0.389-1.343,0.551	c0,0-0.602,0.175-0.904,0.253c-0.605,0.154-1.216,0.273-1.83,0.345c-1.22,0.141-2.478,0.089-3.559-0.383	c-1.08-0.468-1.888-1.388-2.318-2.494c-0.445-1.102-0.601-2.332-0.632-3.557V5.98l-0.925,1.448c-0.939,1.47-2.007,2.848-3.178,4.122	c-0.206-0.098-0.431-0.155-0.675-0.155c-0.276,0-0.524,0.065-0.738,0.138c-0.037-0.004-0.081-0.015-0.102-0.024	c-0.928-0.449-2.089-0.696-3.27-0.696c-1.158,0-2.307,0.235-3.319,0.677c-2.514,1.091-3.996,3.457-4.385,5.376	c-0.545,0.363-0.84,0.888-0.838,1.423c-1.53,0.115-3.074,0.077-4.598-0.137c-2.732-0.386-5.5-1.238-7.873-2.476l-1.973-1.029	l0.52,2.143c0.335,1.382,0.417,3.051,0.332,4.612c-0.086,1.587-0.352,3.172-0.751,4.731c-0.445,1.544-0.969,3.082-1.682,4.543	c-0.315,0.751-0.752,1.441-1.123,2.168c-0.409,0.705-0.863,1.385-1.294,2.082l-0.246,0.398h0.441	c1.029,0.094,2.085,0.378,3.087,0.723c1.008,0.351,1.983,0.793,2.927,1.291c0.937,0.513,1.846,1.075,2.709,1.703	c0.87,0.62,1.688,1.308,2.486,2.016l0.335,0.297l0.348-0.319c2.117-1.938,4.538-3.632,7.036-5.101	c2.512-1.464,5.16-2.686,7.894-3.635c2.738-0.938,5.567-1.59,8.429-1.895c2.861-0.315,5.75-0.257,8.591,0.11l2.071,0.103	L45.76,28.97C45.523,28.621,45.243,27.953,45.091,27.365z"/><path fill="#fff" d="M44.74,17.15l0.67-2.04c0.06-0.14,0.12-0.31,0.19-0.48c-0.14,0.04-0.27,0.08-0.38,0.1	c-0.67,0.17-1.33,0.3-1.96,0.37c-0.43,0.05-0.85,0.08-1.25,0.08c-1.06,0-2.01-0.18-2.82-0.54c-1.29-0.56-2.31-1.64-2.85-3.03	c-0.29-0.72-0.48-1.52-0.6-2.43c-0.78,1.11-1.61,2.14-2.48,3.09l0.273,1.162c0.588-0.608,1.155-1.25,1.707-1.922	c0.05,0.16,0.11,0.32,0.18,0.47c0.63,1.64,1.83,2.91,3.37,3.58c0.94,0.41,2.02,0.62,3.22,0.62c0.44,0,0.9-0.03,1.37-0.09	c0.22-0.02,0.45-0.05,0.69-0.09l-0.28,0.83c-0.39,1.41-0.76,2.87-0.94,4.4c-0.22,1.55-0.25,3.05-0.1,4.44	c0.09,0.85,0.23,1.58,0.42,2.25c0.04,0.14,0.08,0.28,0.12,0.42c-1.1-0.09-2.22-0.14-3.3-0.14c-1.35,0-2.69,0.07-4,0.22	c-2.92,0.31-5.91,0.98-8.85,1.99c-2.85,0.99-5.63,2.26-8.26,3.8c-2.4,1.41-4.54,2.91-6.39,4.48c-0.58-0.48-1.12-0.91-1.65-1.28	c-0.88-0.64-1.83-1.24-2.91-1.83c-1.13-0.6-2.19-1.06-3.23-1.42c-0.31-0.11-0.62-0.21-0.92-0.3l0.01-0.01	c0.17-0.33,0.3-0.57,0.43-0.8c0.28-0.5,0.56-1.02,0.81-1.6c0.63-1.29,1.2-2.82,1.76-4.76c0.46-1.81,0.73-3.54,0.82-5.18	c0.05-0.88,0.06-2.03-0.06-3.24c2.1,0.89,4.41,1.53,6.78,1.86c1.1,0.16,2.22,0.24,3.31,0.24c0.865,0,1.719-0.052,2.563-0.148	L19.58,19.28c0,0-1.29,0.09-1.94,0.09c-1.05,0-2.12-0.08-3.17-0.23c-2.92-0.41-5.75-1.3-8.2-2.58l-0.01-0.01	c0.42,1.74,0.42,3.63,0.35,4.91c-0.08,1.57-0.34,3.23-0.78,4.95c-0.55,1.88-1.1,3.37-1.72,4.65c-0.23,0.54-0.5,1.03-0.76,1.5	c-0.14,0.25-0.27,0.49-0.42,0.79c-0.23,0.39-0.47,0.77-0.71,1.15c0.66,0.14,1.38,0.33,2.16,0.6c0.99,0.35,1.99,0.79,3.07,1.36	c1.04,0.57,1.96,1.15,2.81,1.77c0.84,0.59,1.61,1.24,2.24,1.78c1.94-1.73,4.25-3.39,6.89-4.94c2.57-1.5,5.29-2.75,8.07-3.72	c2.88-0.98,5.79-1.64,8.64-1.94c1.27-0.14,2.58-0.21,3.89-0.21c1.62,0,3.28,0.11,4.86,0.32h0.07c-0.3-0.45-0.62-1.21-0.79-1.88	c-0.18-0.61-0.3-1.28-0.39-2.08c-0.14-1.3-0.11-2.73,0.1-4.22C44.01,19.89,44.37,18.5,44.74,17.15z"/><path fill="#00853e" d="M28.797,20.302c-2.286,1.235-5.634,0.75-7.17-0.819c-0.112-0.115,0.001-0.263,0.156-0.234	c0.454,0.085,2.789,0.91,6.372-0.871c2.415-1.2,3.616-3.951,3.73-4.332c0.049-0.163,0.195-0.205,0.258-0.06	C32.555,14.94,32.869,18.101,28.797,20.302z"/><path fill="#ffd000" d="M20.806,18.854c0.252,0.074,0.278,0.303-0.009,0.301c-0.246-0.002-0.479-0.162-0.562-0.408	c-0.114-0.321,0.1-0.607,0.376-0.794c0.301-0.202,0.363-0.363,0.383-0.476c0.29-1.798,1.617-4.036,3.835-5.041	c1.969-0.899,4.26-0.753,5.755,0.002c0.202,0.104,0.593,0.182,0.792,0.098c0.332-0.128,0.645-0.191,0.876,0.052	c0.239,0.244,0.252,0.651-0.008,0.863c-0.076,0.063-0.236,0.015-0.148-0.273c0.01-0.049-0.013-0.106-0.07-0.124	c-0.049-0.018-0.107,0.013-0.125,0.061c0,0-0.449,1.052-0.749,1.523c-0.285,0.496-0.634,0.949-0.991,1.385	c-0.738,0.856-1.644,1.568-2.642,2.074c-1.007,0.53-2.16,0.859-3.286,0.93c-1.143,0.102-3.387-0.374-3.387-0.374	c-0.049-0.01-0.099,0.029-0.117,0.078C20.717,18.786,20.749,18.836,20.806,18.854z"/><path fill="#fff" d="M16.546,24.272L17,22.202c0,0-1.351-0.311-2.337-0.161s-3.711,0.569-4.287,3.24	s3.812,2.416,2.293,4.65c-1.072,1.577-3.456,0.735-3.799,0.359L8,32.884c0,0,2.863,0.614,5.134-0.984	c2.271-1.598,2.538-3.583,2.215-4.527c-0.476-1.395-2.847-2.146-2.348-3.186C13.5,23.146,15.416,23.157,16.546,24.272z"/><path fill="#fff" d="M15.918,25.163c0,0,1.804-0.583,3.104-0.958s2.748-0.375,2.958,1.229	c0.21,1.604-1.217,3.959-3.304,4.792c0,0-0.585,0.219-0.774,0.278c-0.19,0.059-0.138-0.071,0.028-0.212s1.468-1.238,1.995-3.543	c0.236-1.016,0.047-1.711-0.48-1.672s-0.732,0.383-1.141,2.516l-0.928,4.75L15,33.843c0,0,1.203-5.883,1.337-6.633	S16.67,25.538,15.918,25.163z"/><path fill="#fff" d="M30.277,20.156c0.745-0.277,2.33-2.465,2.492-3.392l1.077-0.929l-0.271,3.095l2.17-0.666	c0.016,0.699-0.686,1.331-1.34,1.547L33.4,20.16l-0.766,6.206L30.128,27l0.973-6.123l-0.989,0.333L30.277,20.156z"/><path fill="#fff" d="M39.678,22.526L40,22.834c0,0-1.144,2.862-3.765,3.147s-2.499-2.588-1.821-3.956	s1.655-3.014,3.943-3.352c1.932-0.285,1.91,1.494,1.177,2.428c-0.733,0.935-1.855,1.619-2.765,1.813	c-0.455,0.148-0.239-0.086,0.175-0.374c0.414-0.288,1.129-1.386,1.248-1.843s0.314-1.152-0.082-1.152s-0.934,0.818-1.254,1.77	c-0.32,0.953-0.982,2.797,0.232,3.123C38.361,24.778,39.678,22.526,39.678,22.526z"/><path fill="#fff" d="M22.425,23c0,0,0.454,0.44,0.396,1.368S22,30,22,30l2.242-1.156c0,0,0.425-2.621,0.542-3.5	s0.454-1.791,1.773-1.872l0.396-2.068c0,0-1.487,0.008-2.498,2.108c-0.249-0.602-0.923-0.887-0.923-0.887L22.425,23z"/><polygon fill="#fff" points="27.663,21.294 30,20.284 28.868,27.144 26.489,28"/></svg>