<svg xmlns="http://www.w3.org/2000/svg"  viewBox="0 0 48 48" width="1600px" height="1600px" baseProfile="basic"><path fill="#0288d1" d="M34,42H14c-4.418,0-8-3.582-8-8V14c0-4.418,3.582-8,8-8h20c4.418,0,8,3.582,8,8v20	C42,38.418,38.418,42,34,42z"/><path fill="#ff9800" d="M32.961,21.202C32.986,20.971,33,20.737,33,20.5c0-3.59-2.91-6.5-6.5-6.5	c-2.898,0-5.352,1.898-6.19,4.518C19.781,18.196,19.165,18,18.5,18c-1.832,0-3.318,1.412-3.47,3.205	C12.707,21.849,11,23.972,11,26.5c0,3.038,2.462,5.5,5.5,5.5H31v-0.025C31.165,31.99,31.331,32,31.5,32c3.038,0,5.5-2.462,5.5-5.5	C37,23.969,35.288,21.843,32.961,21.202z"/><path fill="#212121" d="M27.276,22.5H26v-2.7c0-0.166-0.134-0.3-0.3-0.3h-1.4c-0.166,0-0.3,0.134-0.3,0.3v2.7h-1.276	c-0.267,0-0.401,0.323-0.212,0.512l2.134,2.134c0.195,0.195,0.512,0.195,0.707,0l2.134-2.134C27.677,22.823,27.543,22.5,27.276,22.5	z"/><path fill="#212121" d="M29.5,25.5h-3.086l-0.707,0.707c-0.391,0.391-1.024,0.391-1.414,0L23.586,25.5H20.5	c-0.276,0-0.5,0.224-0.5,0.5v2c0,0.276,0.224,0.5,0.5,0.5h9c0.276,0,0.5-0.224,0.5-0.5v-2C30,25.724,29.776,25.5,29.5,25.5z M27,27.75c-0.276,0-0.5-0.224-0.5-0.5c0-0.276,0.224-0.5,0.5-0.5s0.5,0.224,0.5,0.5C27.5,27.526,27.276,27.75,27,27.75z M28.5,27.75c-0.276,0-0.5-0.224-0.5-0.5c0-0.276,0.224-0.5,0.5-0.5s0.5,0.224,0.5,0.5C29,27.526,28.776,27.75,28.5,27.75z"/></svg>