<svg xmlns="http://www.w3.org/2000/svg"  viewBox="0 0 48 48" width="1600px" height="1600px" clip-rule="evenodd" baseProfile="basic"><path fill="#ff4081" d="M11.07,44.521h-0.022c-0.864,0-1.731-0.078-2.577-0.229c-0.53-0.095-0.97-0.467-1.15-0.975	l-0.04-0.113c-0.179-0.504-0.075-1.065,0.271-1.472c0.83-0.979,1.422-2.155,1.713-3.403c0.115-0.486-0.167-1.127-0.754-1.72	C4.957,33.03,3,28.381,3,23.521C3,12.834,12.421,4.14,24,4.14s21,8.694,21,19.381s-9.421,19.381-21,19.381	c-1.754,0-3.501-0.201-5.193-0.597C16.441,43.758,13.788,44.521,11.07,44.521z M24,7.14c-9.925,0-18,7.349-18,16.381	c0,4.063,1.648,7.961,4.641,10.977c1.342,1.355,1.903,3.002,1.543,4.519c-0.201,0.865-0.51,1.708-0.914,2.502	c2.084-0.036,4.114-0.638,5.884-1.746c0.69-0.43,1.525-0.574,2.331-0.39c1.475,0.345,2.991,0.519,4.516,0.519	c9.925,0,18-7.349,18-16.381S33.925,7.14,24,7.14z"/><path fill="#ff4081" fill-rule="evenodd" d="M32.686,28.572c-0.527,0.96-1.731,1.311-2.691,0.784	c-0.072-0.04-0.142-0.084-0.209-0.132l-4.328-3.134l0.476,5.388c0.084,1.068-0.713,2.002-1.782,2.086	c-1.068,0.084-2.002-0.713-2.086-1.782c-0.008-0.101-0.008-0.203,0-0.305l0.476-5.388l-4.328,3.134	c-0.888,0.638-2.125,0.435-2.763-0.453c-0.638-0.888-0.435-2.125,0.453-2.763c0.096-0.069,0.198-0.129,0.304-0.18l4.904-2.308	L16.2,21.208c-0.99-0.464-1.417-1.643-0.953-2.633c0.464-0.99,1.643-1.417,2.633-0.953c0.121,0.057,0.236,0.126,0.344,0.206	l4.32,3.2l-0.48-5.492c-0.097-1.069,0.691-2.015,1.76-2.112s2.015,0.691,2.112,1.76c0.011,0.117,0.011,0.235,0,0.352l-0.48,5.492	l4.32-3.2c0.878-0.652,2.118-0.469,2.77,0.409s0.469,2.118-0.409,2.77c-0.105,0.078-0.217,0.145-0.335,0.201l-4.888,2.312	l4.88,2.306C32.828,26.314,33.234,27.57,32.686,28.572z" clip-rule="evenodd"/></svg>