<svg xmlns="http://www.w3.org/2000/svg"  viewBox="0 0 48 48" width="1600px" height="1600px"><path fill="#7cb342" d="M32.984,23.655c0.097,2.502-0.836,5.035-2.817,6.901c-3.415,3.216-8.941,3.21-12.348-0.015	c-3.696-3.498-3.757-9.331-0.182-12.905c1.328-1.328,2.967-2.152,4.682-2.476c0.495-0.094,0.827-0.562,0.782-1.063l-0.726-7.987	c-0.051-0.56-0.556-0.984-1.113-0.903C11.586,6.604,4.267,15.282,5.059,25.513c0.695,8.976,7.823,16.375,16.771,17.367	C33.295,44.15,43,35.208,43,24c0-0.511-0.027-1.016-0.073-1.515c-0.052-0.572-0.566-0.989-1.135-0.911l-7.947,1.084	C33.347,22.725,32.964,23.153,32.984,23.655z"/><circle cx="24" cy="24" r="6" fill="#7cb342"/><path fill="#7cb342" d="M35.352,5h4.984c0.891,0,1.337,1.077,0.707,1.707l-10.59,10.59c-0.812,0.812-2.128-0.161-1.591-1.175	l5.607-10.59C34.642,5.205,34.982,5,35.352,5z"/><path fill="#fb8c00" d="M29.456,8.163l-2.722,6.738c-0.158,0.39-0.601,0.578-0.991,0.421	c-0.305-0.123-0.487-0.424-0.476-0.735l0.278-7.262c0.043-1.12,0.986-1.994,2.106-1.951c1.12,0.043,1.994,0.986,1.951,2.106	C29.593,7.719,29.539,7.954,29.456,8.163z"/><path fill="#fb8c00" d="M39.9,18.429L33,20.711c-0.399,0.132-0.83-0.085-0.962-0.484c-0.103-0.313,0.008-0.645,0.253-0.838	l5.718-4.485c0.882-0.692,2.158-0.538,2.85,0.344c0.692,0.882,0.538,2.158-0.344,2.851C40.328,18.246,40.114,18.357,39.9,18.429z"/></svg>