<svg xmlns="http://www.w3.org/2000/svg"  viewBox="0 0 48 48" width="1600px" height="1600px"><path fill="#29B6F6" d="M29.4,8.4c1.1-0.7,5.3-3.3,8.8-3.3c6.6,0,3.5,7.7,3.5,7.7l0.2,0.2C45.7,3.3,38.4,4,38.4,4c-4.1,0-9.3,3.4-10.4,4.2c-1-0.1-2-0.2-3.1-0.2C9.7,8,7.4,19.6,7.1,23C7,23.5,7,23.8,7,23.8c0,0,0,0,0,0C7,23.9,7,24,7,24c0-0.1,0-0.2,0-0.3c6.1-8.7,14.5-12.2,14.5-12.2v0.6C9,20.6,6,33.2,5.3,35.7C4.5,38.3,5,44,10.3,44s10.4-4.2,10.4-4.2S21.9,40,25,40c13.2,0,16.7-12,16.7-12H30c0,0-1.2,4-5.4,4c-5.8,0-5.6-6-5.6-6h23c0.4-5.5-1.1-9.3-3.3-11.9C36.9,11.5,34,9.3,29.4,8.4z M20,39.6c0,0-7.8,4.9-11.4,1.5c-1.9-3.4,1.2-8.2,1.2-8.2S12.2,37.8,20,39.6z M18.8,10.3C18.8,10.3,18.7,10.3,18.8,10.3L18.8,10.3L18.8,10.3z M19,21c0,0-0.1-5,5.5-5c5.4,0,5.5,5,5.5,5H19z"/></svg>