<svg xmlns="http://www.w3.org/2000/svg"  viewBox="0 0 48 48" width="1600px" height="1600px"><path fill="#ff1744" d="M24,45C12.42,45,3,35.579,3,24c0-11.58,9.42-21,21-21c11.579,0,21,9.42,21,21	C45,35.579,35.579,45,24,45z M24,5C13.523,5,5,13.524,5,24s8.523,19,19,19s19-8.523,19-19S34.477,5,24,5z"/><path fill="#ff1744" d="M29,42c-8.822,0-16-8.075-16-18c0-9.925,7.178-18,16-18s16,8.075,16,18C45,33.925,37.822,42,29,42z M29,8c-7.72,0-14,7.178-14,16s6.28,16,14,16s14-7.178,14-16S36.72,8,29,8z"/><path fill="#ff1744" d="M27.873,10.667c3.791,2.327,6.425,7.382,6.425,13.26c0,5.78-2.548,10.762-6.237,13.14	c5.175-1.383,8.535-6.682,8.535-13.163C36.596,17.259,33.337,11.873,27.873,10.667z"/></svg>