<svg xmlns="http://www.w3.org/2000/svg"  viewBox="0 0 48 48" width="1600px" height="1600px"><path fill="#c62828" d="M24,4C12.96,4,4,12.96,4,24c0,11.05,8.96,20,20,20s20-8.96,20-20C44,12.96,35.04,4,24,4z M24,38.98c-8.81,0-14.98-6.79-14.98-14.98c0-8.18,6.79-14.98,14.98-14.98c8.18,0,15.02,6.68,15.02,14.86C39.02,32.07,32.81,38.98,24,38.98z"/><path fill="#c62828" d="M35.59,31.129c0,0-4.197,7.217-13.375,6.246c-8.894-0.951-10.6-8.423-10.688-8.894c1.912,3.52,4.756,6.217,11.58,6.217c7.129,0,9.806-5.354,9.806-5.354L35.59,31.129z"/><path fill="#c62828" d="M36.482,30.236l-3.569-1.775c0,0-3.569,5.344-9.806,5.344c-6.903,0-8.796-3.354-8.903-3.559c3.412,3.402,8.09,3.059,11.58,1.775c7.815-2.863,7.129-9.806,7.129-9.806h4.462C37.375,22.215,38.267,27.569,36.482,30.236z"/><path fill="#c62828" d="M32.021,21.323c0,0,0.392,7.227-6.236,9.806c-3.491,1.363-6.884,0.098-7.129,0c0,0,2.628,0.471,4.452,0c3.569-0.892,5.256-2.491,6.236-4.452c2.677-5.354-0.883-8.913-0.883-8.913l4.452-3.569c0,0,4.256,3.677,4.462,7.129H32.021z"/></svg>