<svg xmlns="http://www.w3.org/2000/svg"  viewBox="0 0 48 48" width="1600px" height="1600px"><path fill="#475f8a" d="M19.03,44.977c-0.002,0.008-0.002,0.016-0.002,0.023c-0.098,0-0.196,0-0.293,0c0.001-0.008,0.001-0.017,0.002-0.025C18.834,44.975,18.932,44.976,19.03,44.977z"/><path fill="#485f8b" d="M28.956,45c0.001-0.009,0.001-0.017,0.002-0.026c0.098,0.001,0.196,0.002,0.294,0.002C29.25,44.985,29.25,44.992,29.25,45C29.152,45,29.054,45,28.956,45z"/><path fill="#fefefe" d="M18.689,44.392c-0.556-0.441-1.462-1.35-1.925-1.892H15c-0.83-0.054-1.521-0.207-2.148-0.468c-0.521-0.219-0.998-0.525-1.458-0.938c-0.566-0.508-1.035-0.594-1.872-0.594c-0.208,0.01-0.572,0.014-0.955,0.014c-0.751,0-1.575-0.014-1.575-0.014L6.5,40.491l0.001-0.951c0.006-1.755,0.011-3.142-0.801-4.317c-0.538-0.777-0.817-1.611-1-2.251c-0.229-0.798-0.216-1.715-0.205-2.524L4.5,29.242c-0.678-0.563-1.719-1.641-1.927-1.981L2.38,26.944l0.246-0.276c2.361-2.654,5.174-3.142,5.292-3.161L8.5,23.411l0.002,1.732c0.001,0.597,0.003,1.104-0.002,1.859c-0.005,0.793-0.003,1.764-0.001,2.694L8.5,31.499c0,0-0.506,0.001-0.509,0.001c-0.168,0-0.245-0.019-1.491-0.967c0.002,0.881,0.215,1.401,0.872,2.133C7.595,32.915,8.491,33.5,9,33.5c0.337,0,1.581-0.873,2.661-1.868l0.144-0.132l0.215-0.007c0.212,0,0.504,0,3.328,2.73l0.369,0.357L15.35,34.94c-0.016,0.016-1.614,1.596-1.855,3.137c0.006,1.169,0.937,2.331,1.544,2.43l0.731-0.003C15.62,40.134,15.5,39.638,15.5,39v-0.677l0.647,0.199C16.179,38.532,19.375,39.5,23,39.5h0.719l-0.25,0.674c-0.644,1.732-3.252,3.655-4.204,4.25l-0.299,0.188L18.689,44.392z"/><path fill="#1a237e" d="M8,24c0,1.25,0.008,1.825,0,3c-0.008,1.178,0,2.75,0,4h0c-0.074,0-2-1.479-2-1.479v1C6,31.568,6.287,32.206,7,33c0.278,0.31,1.292,1,2,1s2.463-1.505,3-2c0.005-0.004,0.011-0.006,0.02-0.006c0.302,0,2.98,2.59,2.98,2.59S13.271,36.271,13,38c0,1.458,1.063,2.854,1.958,3c0.917,0,1.708,0,1.708,0S16,40.417,16,39c0,0,3.25,1,7,1c-0.542,1.458-2.833,3.271-4,4c-0.604-0.479-1.646-1.542-2-2c-0.792,0-1.146,0-2,0c-0.674-0.045-1.33-0.169-1.956-0.43c-0.489-0.204-0.922-0.495-1.317-0.848C11.023,40.09,10.391,40,9.521,40c-0.226,0.01-0.581,0.014-0.955,0.014C7.819,40.014,7,40,7,40c0-1.984,0.089-3.647-0.888-5.061c-0.45-0.651-0.718-1.36-0.931-2.105C4.933,31.966,4.998,30.907,5,30c0.001-0.356,0-0.641,0-1c-0.64-0.478-1.828-1.719-2-2C5.266,24.453,7.94,24.01,8,24 M9,22.826l-1.159,0.186c-0.125,0.02-3.101,0.526-5.588,3.323L1.76,26.889l0.386,0.632c0.232,0.38,1.161,1.344,1.853,1.95l0,0.526l-0.004,0.445c-0.011,0.843-0.024,1.799,0.224,2.666c0.193,0.676,0.49,1.559,1.069,2.398c0.723,1.046,0.718,2.364,0.712,4.032L6,40v0.983L6.983,41c0,0,0.828,0.014,1.583,0.014c0.392,0,0.764-0.004,1.001-0.015c0.706,0.001,1.051,0.071,1.492,0.467c0.504,0.452,1.027,0.788,1.599,1.027c0.678,0.283,1.422,0.448,2.275,0.505L14.967,43H15h1.537c0.508,0.567,1.309,1.361,1.842,1.784l0.553,0.439l0.598-0.374c0.036-0.022,3.573-2.253,4.407-4.5L24.438,39H23c-3.558,0-6.675-0.946-6.706-0.956L15,37.646V39c0,0.374,0.038,0.707,0.1,1h-0.028c-0.314-0.117-1.035-0.904-1.071-1.922c0.215-1.121,1.292-2.381,1.698-2.78l0.732-0.719l-0.736-0.714c-2.969-2.871-3.265-2.871-3.675-2.871h-0.39l-0.307,0.27c-0.881,0.812-1.984,1.621-2.361,1.734c-0.316-0.033-1.018-0.449-1.219-0.666C7.549,32.114,7.4,31.924,7.29,31.737C7.682,32,7.785,32,8,32h1l0-1l-0.001-1.352C8.997,28.733,8.995,27.784,9,27.007c0.005-0.757,0.004-1.266,0.002-1.865L9,24V22.826L9,22.826z"/><path fill="#fefefe" d="M28.735,44.424c-0.951-0.595-3.56-2.518-4.204-4.25l-0.25-0.674H25c3.633,0,6.821-0.968,6.853-0.978l0.647-0.199V39c0,0.636-0.119,1.131-0.268,1.5h0.81c0.527-0.092,1.458-1.254,1.458-2.5c-0.235-1.464-1.833-3.044-1.85-3.06l-0.367-0.359l0.369-0.357c2.824-2.73,3.115-2.73,3.328-2.73h0.196l0.164,0.14C37.419,32.627,38.663,33.5,39,33.5c0.509,0,1.405-0.585,1.627-0.834c0.658-0.731,0.871-1.252,0.873-2.133C40.229,31.5,40.176,31.5,40,31.5h-0.5l0.001-1.848c0.001-0.917,0.003-1.87-0.002-2.649c-0.005-0.755-0.003-1.263-0.002-1.859l0.002-1.732l0.581,0.096c0.119,0.02,2.932,0.507,5.292,3.161l0.246,0.276l-0.193,0.316c-0.208,0.341-1.249,1.419-1.927,1.981l0.004,1.205c0.011,0.81,0.023,1.727-0.205,2.524c-0.183,0.64-0.462,1.474-1,2.251c-0.812,1.176-0.807,2.563-0.8,4.317l0.001,0.951L41.008,40.5c0,0-0.824,0.014-1.575,0.014c-0.383,0-0.747-0.004-0.978-0.015c-0.814,0.001-1.283,0.087-1.849,0.595c-0.46,0.413-0.937,0.72-1.457,0.938c-0.628,0.262-1.32,0.415-2.116,0.468L31.236,42.5c-0.463,0.542-1.369,1.45-1.925,1.892l-0.277,0.22L28.735,44.424z"/><path fill="#1a237e" d="M40,24c0.06,0.01,2.734,0.453,5,3c-0.172,0.281-1.36,1.522-2,2c0,0.359-0.001,0.644,0,1c0.002,0.907,0.067,1.966-0.181,2.834c-0.213,0.744-0.481,1.453-0.931,2.105C40.911,36.353,41,38.016,41,40c0,0-0.819,0.014-1.566,0.014c-0.373,0-0.729-0.003-0.955-0.014c-0.869,0-1.502,0.09-2.206,0.722c-0.394,0.354-0.827,0.644-1.317,0.848C34.33,41.831,33.674,41.955,33,42c-0.854,0-1.208,0-2,0c-0.354,0.458-1.396,1.521-2,2c-1.167-0.729-3.458-2.542-4-4c3.75,0,7-1,7-1c0,1.417-0.667,2-0.667,2s0.792,0,1.708,0C33.938,40.854,35,39.458,35,38c-0.271-1.729-2-3.417-2-3.417s2.678-2.59,2.98-2.59c0.009,0,0.015,0.002,0.02,0.006c0.537,0.495,2.292,2,3,2s1.722-0.69,2-1c0.713-0.794,1-1.432,1-2.479v-1c0,0-1.925,1.479-2,1.479h0c0-1.25,0.008-2.822,0-4C39.992,25.825,40,25.25,40,24 M39,22.826V24l-0.002,1.142c-0.002,0.599-0.003,1.108,0.002,1.865c0.005,0.791,0.003,1.761,0.002,2.69L39,31v1l1,0c0.002,0,0.004,0,0.006,0c0.21,0,0.316-0.003,0.704-0.263c-0.111,0.186-0.259,0.377-0.455,0.595c-0.2,0.217-0.902,0.633-1.218,0.666c-0.376-0.113-1.48-0.922-2.36-1.733L36.391,31l-0.41-0.006c-0.004,0-0.008,0-0.013,0c-0.403,0-0.724,0.029-3.663,2.871l-0.74,0.716l0.737,0.719c0.405,0.398,1.482,1.658,1.697,2.779c-0.035,1.018-0.757,1.805-1.071,1.922H32.9c0.062-0.293,0.1-0.626,0.1-1v-1.352l-1.293,0.396C31.675,38.054,28.544,39,25,39h-1.438l0.501,1.348c0.835,2.247,4.372,4.478,4.407,4.5l0.598,0.374l0.553-0.439c0.532-0.422,1.334-1.216,1.842-1.784H33h0.033l0.033-0.002c0.853-0.057,1.597-0.222,2.275-0.505c0.573-0.239,1.096-0.575,1.599-1.027C37.381,41.07,37.727,41,38.479,41c0.191,0.01,0.563,0.014,0.955,0.014c0.755,0,1.583-0.014,1.583-0.014L42,40.983L42,40l-0.001-0.461c-0.006-1.668-0.011-2.986,0.712-4.032c0.58-0.839,0.876-1.722,1.069-2.398c0.248-0.867,0.235-1.823,0.224-2.666L44,29.998l0-0.526c0.693-0.606,1.621-1.571,1.853-1.95l0.386-0.632l-0.493-0.554c-2.488-2.796-5.463-3.302-5.588-3.323L39,22.826L39,22.826z"/><path fill="#fefefe" d="M43.704 17.598c-.005.042-.036.059-.058.081-.349.354-.698.707-1.048 1.06-.341.344-.685.686-1.024 1.033-.061.063-.092.068-.16.004-1.255-1.185-2.514-2.367-3.772-3.549-1.409-1.324-2.82-2.647-4.229-3.971-1.255-1.179-2.51-2.359-3.764-3.538-.635-.597-1.269-1.194-1.907-1.787-.071-.066-.062-.096.001-.158.613-.609 1.224-1.219 1.831-1.833.07-.07.107-.075.182-.007 1.273 1.16 2.548 2.317 3.823 3.474 1.977 1.795 3.955 3.589 5.933 5.384 1.378 1.25 2.755 2.501 4.133 3.752C43.665 17.561 43.686 17.581 43.704 17.598zM6.542 19.83c-.035 0-.047-.025-.064-.041-.544-.55-1.088-1.101-1.632-1.652-.152-.154-.297-.313-.455-.461-.073-.068-.056-.101.008-.158 1.012-.915 2.022-1.831 3.032-2.748 2.415-2.192 4.829-4.383 7.244-6.575 1.194-1.083 2.388-2.166 3.58-3.252.073-.066.108-.069.18.003.607.615 1.218 1.226 1.832 1.833.075.074.065.104-.007.172-1.216 1.138-2.428 2.279-3.642 3.419-1.866 1.754-3.733 3.507-5.599 5.26-1.466 1.377-2.932 2.754-4.398 4.131C6.595 19.786 6.566 19.809 6.542 19.83zM8.918 5.537c1.868.02 3.2 1.466 3.366 3.017.026.248.028.495-.001.743-.01.09-.046.162-.112.222-.996.901-1.992 1.803-2.987 2.705-.083.076-.175.108-.288.108-1.688.003-3.116-1.247-3.347-2.93-.26-1.897 1.09-3.631 2.992-3.842C8.666 5.548 8.792 5.545 8.918 5.537zM35.717 8.954c.002-1.719 1.298-3.18 2.952-3.375 1.764-.209 3.326.868 3.747 2.583.452 1.841-.758 3.735-2.619 4.101-.224.044-.45.068-.679.071-.108.002-.199-.033-.277-.105-.98-.889-1.959-1.779-2.941-2.666-.115-.104-.168-.225-.171-.375C35.727 9.095 35.72 9.001 35.717 8.954z"/><path fill="#b5bed0" d="M36.881,16.486c-0.022,0.01-0.021,0.031-0.026,0.05c-0.03-0.033-0.04-0.075-0.053-0.121C36.852,16.418,36.86,16.459,36.881,16.486z"/><path fill="#1a237e" d="M38.993,23.994c0,8.308-6.723,15.028-15.059,15c-8.477-0.028-15.109-7.04-14.924-15.33c0.179-8.026,6.831-14.821,15.319-14.655C32.369,9.167,38.974,15.749,38.993,23.994z"/><path fill="#03235f" d="M8.946 7.455c.795.006 1.456.683 1.453 1.488-.003.858-.671 1.489-1.568 1.482C8.058 10.419 7.418 9.73 7.425 8.91 7.432 8.091 8.104 7.448 8.946 7.455zM39.112 7.455c.859.019 1.508.68 1.487 1.514-.022.858-.69 1.48-1.564 1.456-.795-.021-1.43-.71-1.41-1.528C37.645 8.097 38.326 7.437 39.112 7.455z"/><path fill="#fefefe" d="M15.997,23.994c0.02-4.402,3.58-7.992,8.004-7.994c4.371-0.002,7.904,3.526,7.997,7.819c0.097,4.481-3.535,8.189-8.021,8.181C19.66,31.993,16.02,28.49,15.997,23.994z"/><path fill="#1a237e" d="M30,19h-6h-6c0,0,0.955,2.597,1,4c0,0-0.009,2.088,0,3c0.004,0.374,0.016,0.749,0.124,1.112c0.298,1.004,0.763,1.772,1.744,2.057c0.531,0.154,1.083,0.226,1.612,0.392c0.567,0.179,1.13,0.358,1.503,0.869c0.007,0.01,0.012,0.007,0.017,0.011c0.006-0.004,0.01-0.002,0.017-0.011c0.373-0.511,0.936-0.69,1.503-0.869c0.529-0.167,1.081-0.238,1.612-0.392c0.981-0.285,1.446-1.053,1.744-2.057C28.984,26.749,28.996,26.374,29,26v-3C29.045,21.597,30,19,30,19z"/><path fill="#fff" d="M19.999,23c0,0.183-0.008,2.117,0,2.99c0.003,0.318,0.012,0.601,0.082,0.838c0.289,0.974,0.635,1.257,1.064,1.382c0.224,0.065,0.453,0.113,0.681,0.162c0.307,0.066,0.625,0.134,0.953,0.237c0.379,0.119,0.812,0.256,1.22,0.507c0.408-0.251,0.841-0.388,1.22-0.507c0.328-0.103,0.646-0.171,0.953-0.237c0.228-0.049,0.457-0.097,0.681-0.162c0.43-0.125,0.775-0.408,1.064-1.382c0.07-0.237,0.079-0.52,0.082-0.838L28,23H19.999z"/><path fill="#fefefe" d="M24.949 35.123c-.187.024-.301.177-.3.401 0 .087.016.171.049.251.064.152.178.227.334.222.155-.005.282-.099.331-.249.034-.104.029-.21.003-.315C25.311 35.21 25.158 35.096 24.949 35.123zM32.517 31.842c-.17.184-.345.363-.512.55-.088.098-.123.216-.052.34.077.133.177.237.345.242.083.002.156-.03.216-.08.18-.15.354-.306.532-.458.038-.032.038-.055.006-.09-.148-.166-.294-.332-.439-.5C32.58 31.808 32.556 31.8 32.517 31.842zM11.621 24.288c.279-.003 1.397.046 1.676.05.071.001.09-.021.088-.09-.005-.156-.004-.313 0-.469.006-.26-.113-.438-.348-.544-.353-.159-.715-.176-1.084-.066-.263.078-.391.237-.402.51-.008.177-.001.354-.005.531C11.545 24.265 11.559 24.288 11.621 24.288zM27.279 34.908c-.088-.159-.206-.209-.356-.164-.159.048-.23.157-.217.34.004.053.012.106.019.159.05.378.16.737.344 1.072.105.191.339.227.476.077.075-.082.078-.187.093-.294-.015-.091-.029-.189-.048-.286C27.528 35.496 27.436 35.19 27.279 34.908z"/><path fill="#fefefe" d="M37.67,20.995c-0.367-1.771-1.051-3.41-2.087-4.897c-1.153-1.656-2.618-2.983-4.317-4.056c-2.152-1.36-4.508-2.036-7.054-2.042c-1.044-0.002-2.076,0.115-3.1,0.316c-1.265,0.249-2.474,0.658-3.616,1.26c-1.691,0.891-3.121,2.103-4.332,3.574c-2.09,2.538-3.098,5.471-3.163,8.742c-0.018,0.895,0.072,1.783,0.241,2.662c0.274,1.429,0.73,2.793,1.422,4.077c0.683,1.267,1.614,2.34,2.599,3.373c1.064,1.115,2.321,1.961,3.702,2.63c2.395,1.16,4.918,1.562,7.557,1.278c1.166-0.126,2.301-0.388,3.396-0.809c1.854-0.714,3.515-1.731,4.893-3.179c0.707-0.743,1.393-1.501,1.951-2.369c1.459-2.271,2.239-4.742,2.237-7.449C37.999,23.07,37.911,22.16,37.67,20.995z M35.448,18.37c0.074-0.036,0.098-0.01,0.124,0.056c0.26,0.665,0.522,1.329,0.785,1.992c0.023,0.058,0.031,0.093-0.043,0.118c-0.113,0.038-0.223,0.085-0.332,0.134c-0.059,0.027-0.085,0.011-0.108-0.047c-0.081-0.211-0.169-0.418-0.248-0.63c-0.027-0.074-0.054-0.089-0.131-0.058c-0.653,0.261-1.308,0.516-1.963,0.774c-0.031,0.012-0.061,0.024-0.089,0.035c-0.045,0.005-0.045-0.032-0.055-0.056c-0.056-0.137-0.104-0.277-0.167-0.41c-0.039-0.083-0.005-0.102,0.064-0.128c0.559-0.218,1.117-0.44,1.675-0.661c0.111-0.044,0.221-0.089,0.333-0.13c0.055-0.02,0.065-0.044,0.042-0.1c-0.085-0.209-0.161-0.421-0.248-0.629c-0.034-0.08-0.019-0.112,0.064-0.138C35.253,18.459,35.352,18.418,35.448,18.37z M33.485,18.467c-0.089-0.281-0.181-0.562-0.268-0.844c-0.027-0.086-0.049-0.175-0.059-0.264c-0.046-0.377,0.229-0.723,0.637-0.815c0.207-0.047,0.406-0.024,0.583,0.086c0.44,0.273,0.666,0.678,0.707,1.129c-0.008,0.336-0.111,0.563-0.326,0.738c-0.059,0.048-0.097,0.064-0.137-0.019c-0.026-0.055-0.062-0.107-0.101-0.155c-0.111-0.137-0.153-0.255-0.055-0.441c0.147-0.278-0.023-0.637-0.316-0.771c-0.117-0.054-0.224-0.039-0.321,0.043c-0.093,0.079-0.108,0.182-0.072,0.292c0.098,0.296,0.205,0.589,0.297,0.887c0.137,0.441-0.049,0.852-0.454,1.018c-0.217,0.089-0.435,0.079-0.648-0.016c-0.474-0.21-0.886-0.869-0.863-1.386c0.013-0.284,0.16-0.494,0.385-0.657c0.04-0.029,0.061-0.018,0.084,0.02c0.078,0.125,0.156,0.252,0.241,0.373c0.038,0.053,0.004,0.08-0.02,0.117c-0.222,0.35-0.079,0.832,0.295,1.005c0.117,0.054,0.231,0.059,0.335-0.027C33.515,18.695,33.523,18.586,33.485,18.467z M31.416,14.984c0.294-0.156,0.588-0.312,0.882-0.468c0.043-0.023,0.085-0.051,0.137-0.05c0.045,0,0.076,0.025,0.107,0.054c0.117,0.11,0.233,0.221,0.353,0.327c0.05,0.044,0.063,0.081,0.035,0.147c-0.377,0.874-0.752,1.749-1.124,2.626c-0.03,0.07-0.051,0.067-0.1,0.021c-0.119-0.113-0.24-0.226-0.364-0.333c-0.05-0.044-0.053-0.082-0.024-0.139c0.064-0.128,0.118-0.262,0.184-0.39c0.032-0.062,0.026-0.101-0.027-0.147c-0.206-0.183-0.411-0.368-0.612-0.556c-0.062-0.059-0.121-0.06-0.189-0.023c-0.119,0.065-0.24,0.128-0.356,0.197c-0.054,0.032-0.088,0.035-0.137-0.013c-0.108-0.107-0.222-0.209-0.338-0.307c-0.067-0.056-0.066-0.083,0.013-0.124C30.378,15.534,30.897,15.259,31.416,14.984z M27.846,13.961c0.087-0.359,0.237-0.693,0.466-0.984c0.438-0.557,1.177-0.643,1.802-0.22c0.391,0.265,0.588,0.632,0.596,1.247c0.006,0.498-0.501,1.249-1.072,1.442c-0.777,0.262-1.708-0.319-1.814-1.13C27.808,14.195,27.818,14.076,27.846,13.961z M25.438,11.925c0.323-0.401,0.748-0.542,1.243-0.443c0.459,0.092,0.806,0.34,0.97,0.799c0.047,0.13,0.044,0.267,0.06,0.401c0.008,0.061-0.024,0.057-0.065,0.048c-0.157-0.033-0.314-0.066-0.471-0.096c-0.058-0.011-0.075-0.041-0.081-0.1c-0.028-0.266-0.178-0.435-0.434-0.508c-0.266-0.075-0.499-0.024-0.675,0.2c-0.297,0.378-0.381,0.805-0.262,1.267c0.066,0.255,0.254,0.386,0.507,0.426c0.254,0.04,0.472-0.034,0.602-0.264c0.066-0.117,0.136-0.14,0.254-0.102c0.102,0.032,0.207,0.057,0.313,0.068c0.098,0.01,0.088,0.052,0.062,0.121c-0.163,0.436-0.602,0.725-1.104,0.724c-0.714-0.025-1.376-0.479-1.299-1.428C25.089,12.633,25.176,12.25,25.438,11.925z M20.951,11.67c0.418-0.346,0.899-0.424,1.412-0.246c0.289,0.1,0.44,0.329,0.522,0.613c0.015,0.052-0.006,0.065-0.048,0.073c-0.146,0.025-0.292,0.049-0.437,0.078c-0.061,0.012-0.077-0.032-0.104-0.066c-0.244-0.311-0.568-0.362-0.89-0.142c-0.128,0.088-0.173,0.193-0.141,0.327c0.028,0.115,0.13,0.194,0.278,0.206c0.238,0.02,0.476,0.033,0.713,0.053c0.131,0.011,0.263,0.022,0.391,0.052c0.267,0.062,0.439,0.229,0.511,0.496c0.121,0.445-0.025,0.796-0.427,1.022c-0.252,0.142-0.52,0.224-0.819,0.216c-0.137,0.004-0.278-0.018-0.419-0.053c-0.345-0.086-0.536-0.315-0.619-0.649c-0.013-0.053-0.009-0.085,0.055-0.095c0.138-0.02,0.276-0.042,0.413-0.071c0.066-0.014,0.086,0.028,0.115,0.067c0.257,0.341,0.69,0.397,1.023,0.132c0.086-0.068,0.17-0.149,0.134-0.269c-0.039-0.132-0.127-0.236-0.274-0.253c-0.322-0.038-0.646-0.065-0.969-0.1c-0.314-0.034-0.542-0.182-0.634-0.499C20.641,12.224,20.669,11.904,20.951,11.67z M18.009,12.621c0.591-0.245,1.181-0.494,1.77-0.745c0.066-0.028,0.098-0.027,0.125,0.049c0.044,0.123,0.101,0.242,0.154,0.367c0.006,0.058-0.052,0.054-0.083,0.068c-0.392,0.168-0.785,0.337-1.181,0.497c-0.098,0.04-0.108,0.081-0.064,0.168c0.053,0.106,0.098,0.217,0.137,0.329c0.026,0.076,0.061,0.076,0.127,0.048c0.358-0.154,0.72-0.299,1.077-0.456c0.092-0.041,0.127-0.021,0.156,0.068c0.031,0.093,0.07,0.185,0.117,0.271c0.044,0.082,0.013,0.111-0.061,0.141c-0.361,0.149-0.719,0.304-1.08,0.451c-0.08,0.032-0.093,0.063-0.055,0.141c0.069,0.144,0.13,0.293,0.186,0.443c0.034,0.091,0.068,0.116,0.167,0.073c0.41-0.18,0.825-0.348,1.236-0.524c0.075-0.032,0.113-0.031,0.14,0.057c0.028,0.094,0.071,0.184,0.116,0.271c0.042,0.081,0.036,0.12-0.06,0.159c-0.502,0.205-1.001,0.419-1.501,0.629c-0.106,0.045-0.215,0.084-0.317,0.135c-0.068,0.034-0.091,0.011-0.116-0.05c-0.344-0.822-0.689-1.643-1.036-2.463C17.936,12.685,17.935,12.652,18.009,12.621z M15.671,14.127c0.597-0.409,1.194-0.819,1.789-1.23c0.049-0.034,0.073-0.032,0.106,0.018c0.067,0.104,0.136,0.206,0.211,0.304c0.044,0.058,0.021,0.081-0.028,0.114c-0.184,0.125-0.362,0.257-0.548,0.378c-0.076,0.049-0.073,0.085-0.025,0.153c0.399,0.575,0.794,1.152,1.19,1.728c0.021,0.03,0.041,0.062,0.06,0.091c-0.006,0.035-0.035,0.048-0.057,0.063c-0.111,0.078-0.227,0.149-0.334,0.232c-0.074,0.058-0.114,0.055-0.17-0.028c-0.39-0.575-0.788-1.145-1.177-1.721c-0.063-0.094-0.104-0.1-0.193-0.034c-0.167,0.126-0.346,0.237-0.517,0.359c-0.055,0.039-0.087,0.04-0.125-0.021c-0.063-0.101-0.132-0.199-0.204-0.293C15.605,14.185,15.622,14.161,15.671,14.127z M14.434,15.398c0.109-0.106,0.213-0.218,0.321-0.325c0.038-0.038,0.08-0.073,0.13-0.068c0.078-0.001,0.138,0.029,0.197,0.056c0.819,0.373,1.637,0.747,2.456,1.118c0.065,0.029,0.071,0.051,0.022,0.1c-0.122,0.122-0.243,0.246-0.361,0.373c-0.035,0.039-0.062,0.039-0.104,0.016c-0.12-0.063-0.243-0.121-0.363-0.184c-0.049-0.026-0.082-0.028-0.128,0.013c-0.212,0.195-0.426,0.388-0.646,0.575c-0.068,0.058-0.069,0.104-0.028,0.175c0.063,0.11,0.118,0.225,0.173,0.34c0.044,0.091,0.035,0.173-0.046,0.244c-0.096,0.084-0.19,0.17-0.279,0.261c-0.054,0.055-0.075,0.048-0.108-0.02c-0.267-0.542-0.538-1.081-0.807-1.622c-0.15-0.301-0.297-0.604-0.449-0.904C14.382,15.485,14.384,15.446,14.434,15.398z M12.444,18.096c0.394-0.611,0.786-1.224,1.178-1.837c0.019-0.03,0.031-0.067,0.081-0.035c0.117,0.077,0.235,0.15,0.353,0.226c0.016,0.01,0.038,0.019,0.03,0.047c-0.012,0.019-0.025,0.04-0.038,0.061c-0.115,0.18-0.226,0.363-0.345,0.54c-0.051,0.076-0.052,0.115,0.033,0.169c0.584,0.368,1.163,0.745,1.748,1.112c0.104,0.065,0.123,0.112,0.044,0.21c-0.074,0.092-0.136,0.196-0.193,0.3c-0.042,0.077-0.076,0.08-0.149,0.033c-0.587-0.379-1.178-0.752-1.764-1.133c-0.088-0.057-0.129-0.06-0.185,0.038c-0.105,0.181-0.228,0.352-0.337,0.53c-0.043,0.07-0.077,0.077-0.143,0.029c-0.093-0.068-0.191-0.129-0.291-0.186C12.412,18.171,12.412,18.145,12.444,18.096z M12.216,18.833c0.239-0.21,0.517-0.229,0.812-0.159c0.055,0.013,0.076,0.038,0.05,0.095c-0.03,0.067-0.059,0.136-0.08,0.206c-0.047,0.152-0.121,0.241-0.302,0.267c-0.313,0.046-0.55,0.473-0.455,0.763c0.035,0.105,0.099,0.18,0.211,0.202c0.112,0.022,0.202-0.019,0.269-0.11c0.186-0.251,0.371-0.504,0.558-0.754c0.125-0.167,0.269-0.311,0.484-0.359c0.417-0.093,0.916,0.245,0.975,0.667c0.08,0.575-0.115,1.054-0.536,1.44c-0.243,0.223-0.536,0.222-0.838,0.14c-0.045-0.012-0.059-0.029-0.039-0.077c0.058-0.14,0.113-0.282,0.166-0.424c0.019-0.052,0.059-0.045,0.1-0.048c0.394-0.034,0.664-0.335,0.654-0.727c-0.004-0.149-0.093-0.306-0.208-0.338c-0.14-0.039-0.252,0.024-0.335,0.132c-0.18,0.235-0.352,0.477-0.531,0.712c-0.333,0.435-0.833,0.473-1.232,0.096c-0.181-0.171-0.236-0.388-0.229-0.57C11.714,19.487,11.886,19.123,12.216,18.833z M11.032,24.809c0.008-0.428-0.028-0.858,0.017-1.284c0.062-0.593,0.356-0.897,0.943-1.007c0.468-0.088,0.919-0.038,1.342,0.189c0.366,0.196,0.56,0.505,0.559,0.919c0,0.407-0.022,0.814-0.028,1.221c-0.001,0.091-0.032,0.109-0.114,0.106c-0.436-0.016-0.872-0.028-1.307-0.042c0,0,0,0.001,0,0.002c-0.44-0.014-0.88-0.028-1.32-0.043C11.08,24.869,11.03,24.884,11.032,24.809z M11.618,27.844c-0.061,0.013-0.079-0.007-0.091-0.062c-0.136-0.634-0.275-1.268-0.413-1.902c-0.01-0.043-0.017-0.079,0.045-0.091c0.129-0.026,0.258-0.055,0.385-0.087c0.073-0.018,0.071,0.033,0.081,0.076c0.091,0.417,0.187,0.833,0.27,1.252c0.023,0.113,0.06,0.138,0.167,0.105c0.113-0.036,0.232-0.055,0.349-0.077c0.063-0.012,0.076-0.034,0.061-0.1c-0.086-0.38-0.163-0.763-0.248-1.143c-0.021-0.094-0.009-0.142,0.098-0.155c0.114-0.014,0.225-0.047,0.343-0.072c0.075-0.002,0.055,0.069,0.064,0.107c0.087,0.38,0.172,0.761,0.25,1.143c0.016,0.08,0.046,0.089,0.115,0.073c0.168-0.039,0.337-0.077,0.507-0.109c0.075-0.014,0.098-0.037,0.079-0.12c-0.1-0.445-0.19-0.892-0.289-1.337c-0.017-0.076-0.013-0.113,0.074-0.126c0.11-0.016,0.218-0.043,0.325-0.072c0.059-0.016,0.09-0.008,0.104,0.058c0.14,0.655,0.281,1.309,0.425,1.963c0.015,0.068-0.006,0.093-0.072,0.107C13.37,27.463,12.494,27.653,11.618,27.844z M12.643,30.418c-0.037-0.001-0.04-0.037-0.05-0.06c-0.297-0.662-0.592-1.326-0.889-1.988c-0.023-0.051-0.021-0.078,0.036-0.101c0.114-0.047,0.227-0.097,0.337-0.153c0.064-0.033,0.086-0.004,0.109,0.048c0.088,0.199,0.186,0.394,0.265,0.596c0.04,0.103,0.081,0.099,0.168,0.059c0.633-0.287,1.269-0.566,1.902-0.854c0.095-0.043,0.134-0.027,0.169,0.067c0.046,0.123,0.1,0.243,0.16,0.359c0.037,0.071,0.014,0.097-0.051,0.126c-0.646,0.287-1.291,0.578-1.938,0.863c-0.085,0.038-0.109,0.067-0.064,0.158c0.093,0.187,0.168,0.383,0.259,0.571c0.04,0.084,0.024,0.122-0.062,0.153c-0.096,0.034-0.188,0.083-0.281,0.126C12.69,30.398,12.667,30.408,12.643,30.418z M13.164,31.229c-0.073-0.119-0.145-0.24-0.227-0.353c-0.056-0.076-0.051-0.114,0.034-0.167c0.468-0.292,0.932-0.59,1.397-0.886c0.278-0.177,0.557-0.352,0.833-0.531c0.065-0.042,0.1-0.046,0.141,0.029c0.068,0.122,0.149,0.237,0.224,0.355c0.013,0.021,0.026,0.041,0.037,0.058c0.004,0.044-0.03,0.051-0.052,0.065c-0.76,0.484-1.521,0.967-2.28,1.452C13.22,31.282,13.195,31.279,13.164,31.229z M15.629,33.939c-0.044,0.049-0.075,0.061-0.125,0.005c-0.094-0.104-0.193-0.203-0.294-0.3c-0.075-0.072-0.085-0.15-0.058-0.247c0.164-0.585,0.324-1.171,0.485-1.757c0.017-0.062,0.029-0.125,0.043-0.187c-0.008-0.004-0.015-0.008-0.023-0.013c-0.084,0.088-0.168,0.175-0.251,0.265c-0.316,0.341-0.632,0.682-0.945,1.026c-0.049,0.054-0.077,0.069-0.13,0.002c-0.092-0.116-0.192-0.226-0.295-0.332c-0.053-0.055-0.044-0.09,0.006-0.141c0.485-0.499,0.968-0.999,1.451-1.5c0.123-0.127,0.247-0.254,0.368-0.383c0.048-0.051,0.086-0.086,0.138-0.004c0.019,0.03,0.053,0.051,0.084,0.072c0.217,0.149,0.29,0.36,0.22,0.604c-0.157,0.548-0.323,1.094-0.464,1.647c-0.019,0.075-0.038,0.151-0.065,0.259c0.11-0.111,0.198-0.199,0.284-0.288c0.339-0.348,0.68-0.694,1.016-1.045c0.062-0.065,0.095-0.061,0.15,0.006c0.081,0.099,0.17,0.191,0.26,0.28c0.049,0.049,0.046,0.078-0.003,0.128c-0.542,0.552-1.082,1.107-1.622,1.662C15.782,33.778,15.703,33.856,15.629,33.939z M19.454,34.064c-0.316,0.563-0.635,1.124-0.949,1.688c-0.039,0.07-0.071,0.083-0.139,0.04c-0.118-0.074-0.238-0.147-0.364-0.207c-0.089-0.043-0.083-0.083-0.039-0.159c0.274-0.468,0.543-0.939,0.814-1.41c0.065-0.114,0.13-0.228,0.152-0.361c0.007-0.045,0.009-0.089,0-0.135c-0.039-0.211-0.24-0.386-0.513-0.437c-0.214-0.04-0.359,0.073-0.459,0.242c-0.254,0.427-0.5,0.86-0.749,1.291c-0.06,0.103-0.122,0.205-0.179,0.31c-0.03,0.056-0.06,0.064-0.115,0.029c-0.115-0.071-0.232-0.141-0.354-0.201c-0.091-0.045-0.1-0.093-0.05-0.179c0.279-0.479,0.553-0.962,0.831-1.442c0.049-0.085,0.101-0.17,0.161-0.248c0.242-0.314,0.561-0.437,0.948-0.352c0.383,0.084,0.697,0.288,0.933,0.603c0.125,0.166,0.179,0.337,0.177,0.528C19.564,33.807,19.524,33.94,19.454,34.064z M21.706,34.78c-0.161,0.721-0.327,1.441-0.485,2.163c-0.02,0.093-0.06,0.099-0.133,0.081c-0.104-0.026-0.207-0.052-0.312-0.07c-0.071-0.012-0.081-0.037-0.065-0.107c0.116-0.508,0.223-1.019,0.342-1.526c0.02-0.088-0.009-0.106-0.078-0.121c-0.136-0.03-0.271-0.067-0.408-0.093c-0.068-0.013-0.079-0.044-0.064-0.101c0.016-0.06,0.035-0.119,0.04-0.18c0.006-0.069,0.041-0.082,0.099-0.071c0.273,0.067,0.492-0.024,0.673-0.229c0.057-0.064,0.131-0.053,0.206-0.033C21.754,34.554,21.757,34.554,21.706,34.78z M23.66,35.429c-0.463,0.475-0.759,1.038-0.867,1.695c-0.016,0.097-0.047,0.149-0.158,0.128c-0.08-0.015-0.164-0.022-0.245-0.017c-0.131,0.008-0.145-0.058-0.131-0.164c0.042-0.325,0.179-0.613,0.34-0.891c0.187-0.324,0.41-0.625,0.656-0.941c-0.281-0.023-0.538-0.043-0.795-0.064c-0.119-0.009-0.238-0.021-0.357-0.026c-0.053-0.002-0.078-0.015-0.063-0.072c0.005-0.02,0.006-0.041,0.009-0.061c0.013-0.106-0.01-0.26,0.049-0.304c0.068-0.051,0.209-0.009,0.318-0.001c0.443,0.032,0.885,0.069,1.328,0.096c0.109,0.007,0.138,0.044,0.127,0.148C23.853,35.138,23.79,35.295,23.66,35.429z M15.002,23.798c0.107-4.818,4.1-8.896,9.195-8.796c4.826,0.095,8.79,4.046,8.802,8.994c0,4.987-4.036,9.02-9.039,9.004C18.872,32.983,14.892,28.774,15.002,23.798z M25.884,36.729c-0.168,0.542-0.806,0.77-1.284,0.462c-0.149-0.096-0.226-0.245-0.278-0.41c-0.016-0.051,0.006-0.055,0.043-0.059c0.131-0.014,0.262-0.027,0.392-0.044c0.05-0.007,0.062,0.024,0.079,0.058c0.052,0.105,0.135,0.169,0.254,0.164c0.132-0.006,0.238-0.066,0.298-0.188c0.069-0.14,0.077-0.291,0.082-0.453c-0.109,0.037-0.209,0.072-0.309,0.105c-0.498,0.163-0.895-0.06-0.996-0.572c-0.071-0.358-0.032-0.694,0.287-0.933c0.466-0.348,1.109-0.176,1.336,0.353C26.001,35.706,26.045,36.212,25.884,36.729z M28.109,36.198c-0.036,0.349-0.295,0.629-0.607,0.701c-0.34,0.078-0.681-0.063-0.885-0.37c-0.272-0.408-0.403-0.859-0.412-1.582c-0.004-0.381,0.516-0.788,1.089-0.618c0.156,0.046,0.286,0.134,0.376,0.266C28.001,35.077,28.169,35.61,28.109,36.198z M31.415,34.558c-0.409,0.243-0.802,0.516-1.234,0.719c-0.12,0.056-0.25,0.079-0.39,0.077c-0.213,0.009-0.41-0.062-0.58-0.193c-0.504-0.389-0.786-0.898-0.8-1.541c-0.008-0.371,0.151-0.664,0.46-0.862c0.353-0.226,0.717-0.435,1.074-0.656c0.062-0.039,0.083-0.016,0.113,0.033c0.46,0.764,0.92,1.528,1.382,2.291C31.475,34.485,31.472,34.524,31.415,34.558z M33.72,32.424c-0.261,0.221-0.481,0.485-0.726,0.722c-0.1,0.097-0.191,0.205-0.306,0.286c-0.269,0.19-0.55,0.195-0.837,0.046c-0.272-0.142-0.407-0.371-0.418-0.659c0.002-0.034,0-0.051,0.004-0.067c0.028-0.116,0.013-0.164-0.131-0.133c-0.159,0.035-0.301-0.048-0.414-0.153c-0.2-0.185-0.403-0.364-0.642-0.496c-0.039-0.022-0.058-0.043-0.014-0.082c0.135-0.12,0.27-0.241,0.403-0.364c0.044-0.041,0.071-0.018,0.104,0.01c0.143,0.118,0.295,0.223,0.425,0.357c0.037,0.038,0.079,0.072,0.123,0.103c0.146,0.102,0.245,0.105,0.38-0.007c0.177-0.147,0.346-0.305,0.522-0.453c0.064-0.054,0.009-0.075-0.018-0.103c-0.209-0.221-0.419-0.441-0.63-0.661c-0.111-0.115-0.111-0.115,0.005-0.216c0.087-0.076,0.176-0.149,0.26-0.227c0.048-0.045,0.077-0.046,0.128,0.003c0.6,0.587,1.204,1.17,1.805,1.756c0.06,0.059,0.174,0.107,0.162,0.184C33.894,32.329,33.783,32.371,33.72,32.424z M35.271,30.026c-0.058,0.104-0.118,0.208-0.166,0.316c-0.035,0.078-0.08,0.097-0.162,0.084c-0.617-0.096-1.235-0.188-1.853-0.281c-0.305-0.046-0.609-0.092-0.914-0.138c-0.036-0.005-0.074-0.003-0.112-0.032c0.09-0.171,0.182-0.34,0.269-0.511c0.026-0.052,0.06-0.056,0.11-0.046c0.129,0.027,0.259,0.046,0.387,0.075c0.102,0.023,0.161-0.014,0.207-0.105c0.119-0.234,0.242-0.466,0.369-0.696c0.034-0.062,0.045-0.102-0.016-0.156c-0.094-0.085-0.174-0.186-0.266-0.275c-0.074-0.071-0.086-0.141-0.035-0.23c0.082-0.142,0.158-0.287,0.244-0.443c0.163,0.177,0.321,0.348,0.478,0.519c0.472,0.515,0.945,1.031,1.417,1.547C35.382,29.82,35.382,29.826,35.271,30.026z M36.494,26.602c-0.016,0.098-0.056,0.104-0.141,0.083c-0.57-0.145-1.141-0.289-1.714-0.424c-0.441-0.104-0.767,0.243-0.652,0.684c0.047,0.179,0.175,0.277,0.341,0.322c0.405,0.109,0.813,0.21,1.22,0.313c0.191,0.049,0.383,0.099,0.575,0.143c0.065,0.015,0.078,0.043,0.061,0.104c-0.04,0.146-0.081,0.293-0.112,0.442c-0.014,0.07-0.042,0.074-0.101,0.059c-0.586-0.148-1.175-0.286-1.759-0.442c-0.375-0.1-0.664-0.309-0.75-0.717c-0.018-0.084-0.019-0.171-0.023-0.214c0.01-0.353,0.085-0.644,0.247-0.91c0.221-0.363,0.529-0.496,0.944-0.412c0.638,0.129,1.267,0.297,1.9,0.446c0.063,0.015,0.089,0.031,0.066,0.106C36.553,26.32,36.518,26.461,36.494,26.602z M36.365,24.824c-0.126,0.105-0.272,0.166-0.433,0.197c-0.068,0.013-0.09-0.005-0.084-0.072c0.005-0.049,0.005-0.099,0-0.148c-0.021-0.211,0.017-0.364,0.215-0.516c0.394-0.303,0.263-0.944-0.218-1.151c-0.376-0.162-0.763-0.161-1.138,0.014c-0.291,0.136-0.427,0.414-0.394,0.769c0.026,0.278,0.213,0.49,0.502,0.577c0.083,0.025,0.119,0.018,0.114-0.082c-0.008-0.148,0.002-0.297-0.004-0.444c-0.003-0.079,0.025-0.099,0.099-0.094c0.127,0.008,0.293-0.04,0.371,0.023c0.082,0.067,0.023,0.239,0.026,0.365c0.004,0.239-0.001,0.478,0.003,0.716c0.001,0.07-0.021,0.092-0.091,0.092c-0.449-0.003-0.898-0.003-1.346,0c-0.071,0-0.097-0.024-0.089-0.093c0.011-0.092-0.041-0.211,0.023-0.272c0.06-0.057,0.174-0.055,0.286-0.085c-0.187-0.189-0.319-0.39-0.383-0.629c-0.137-0.516,0.06-1.055,0.522-1.327c0.529-0.311,1.093-0.375,1.667-0.122c0.546,0.242,0.839,0.779,0.781,1.397C36.761,24.288,36.642,24.594,36.365,24.824z"/><path fill="#fefefe" d="M29.803 32.883c-.026-.043-.046-.072-.103-.036-.159.102-.325.193-.482.299-.15.101-.219.251-.221.474.054.437.266.826.664 1.102.143.099.308.088.459.007.181-.096.355-.206.534-.306.052-.029.046-.054.021-.095C30.384 33.847 30.093 33.365 29.803 32.883zM31.762 16.199c.156-.334.309-.659.461-.984-.008-.007-.017-.014-.025-.021-.297.167-.593.335-.891.502-.045.025-.05.045-.009.081C31.451 15.914 31.602 16.053 31.762 16.199zM28.8 14.862c.247.134.493.148.731-.021.342-.243.523-.585.577-.993.039-.295-.118-.573-.384-.715-.284-.152-.537-.127-.788.083-.324.271-.492.619-.509 1.059C28.423 14.537 28.561 14.732 28.8 14.862zM33.785 29.069c-.056.105-.112.21-.168.315-.116.22-.116.22.132.266.277.051.554.102.83.153.005-.011.009-.021.014-.032-.26-.245-.521-.49-.783-.736C33.795 29.055 33.789 29.062 33.785 29.069zM16.126 16.194c-.344-.17-.669-.331-.995-.492-.005.007-.009.014-.014.022.166.31.331.62.503.94C15.791 16.504 15.954 16.353 16.126 16.194zM8.126 8.935c.003-.426.368-.785.791-.78.421.005.79.381.782.794C9.691 9.368 9.33 9.727 8.915 9.73 8.486 9.733 8.123 9.367 8.126 8.935zM39.891 8.947c-.002.431-.361.789-.786.783-.42-.006-.786-.376-.784-.794.002-.417.376-.784.795-.781C39.546 8.157 39.893 8.512 39.891 8.947z"/><g><path fill="#f44336" d="M28 23h-1v5.158c.363-.149.662-.47.918-1.33.07-.237.079-.519.082-.836V23zM22 23h-1v5.158c.048.02.096.037.146.052.224.065.453.113.681.162.056.012.116.031.173.043V23zM26 28.414V23h-1v5.683c.073-.024.15-.053.22-.075C25.488 28.524 25.745 28.47 26 28.414zM23 28.683c.323.105.667.227 1 .432h0V23h-1V28.683z"/></g><path fill="#1a237e" d="M12.988,8.992c0,2.213-1.791,4.003-4.011,3.996c-2.258-0.007-4.025-1.875-3.975-4.084C5.049,6.766,6.82,4.956,9.082,5.001C11.223,5.043,12.983,6.796,12.988,8.992z"/><path fill="#fefefe" d="M11.988,8.993c0,1.659-1.343,3.001-3.007,2.995c-1.693-0.006-3.017-1.406-2.98-3.061c0.036-1.603,1.364-2.96,3.059-2.926C10.665,6.032,11.984,7.347,11.988,8.993z"/><path fill="#1a237e" d="M9.988 8.994c0 .551-.446.996-.998.994C8.428 9.986 7.988 9.521 8 8.972 8.012 8.44 8.453 7.989 9.016 8 9.549 8.011 9.986 8.447 9.988 8.994zM43 8.992c0 2.213-1.791 4.003-4.011 3.996-2.258-.007-4.025-1.875-3.975-4.084.048-2.138 1.819-3.948 4.081-3.904C41.236 5.043 42.995 6.796 43 8.992z"/><path fill="#fefefe" d="M42,8.993c0,1.659-1.343,3.001-3.007,2.995c-1.693-0.006-3.017-1.406-2.98-3.061c0.036-1.603,1.364-2.96,3.059-2.926C40.677,6.032,41.996,7.347,42,8.993z"/><path fill="#1a237e" d="M40,8.994c0,0.551-0.446,0.996-0.998,0.994C38.44,9.986,38,9.521,38.013,8.972C38.024,8.44,38.465,7.989,39.028,8C39.561,8.011,39.999,8.447,40,8.994z"/><g><path fill="#fff" d="M3.703 17.996L10.774 10.767 17.972 4.679 20.293 7 13.646 13.646 6.023 20.315z"/><path fill="#1a237e" d="M17.944,5.358L19.586,7l-6.269,6.269l-7.271,6.362l-1.639-1.639l6.692-6.843L17.944,5.358 M18,4l-7.583,6.417L3,18l3,3l8-7l7-7L18,4L18,4z"/></g><g><path fill="#fff" d="M34.739 14.201L27.703 7.004 30.023 4.685 37.671 11.376 44.293 18 41.972 20.321z"/><path fill="#1a237e" d="M30.046,5.369l7.271,6.362L43.586,18l-1.642,1.642l-6.845-5.792l-6.692-6.843L30.046,5.369 M30,4l-3,3l7.417,7.583L42,21l3-3l-7-7L30,4L30,4z"/></g></svg>