<svg xmlns="http://www.w3.org/2000/svg"  viewBox="0 0 48 48" width="1600px" height="1600px"><path fill="#dd9f05" d="M30,6c-1.875-0.063-2,2-2,2s-0.125,1-1,1s-1-1-1-1c0-2.313-0.938-3-2-3s-1.375,0.375-2,1c-1,0-1,1-1,1h2v1c0,0-0.125,1-1,1s-1-1-1-1s-0.125-2.063-2-2S7,12,7,12s1.125,2,5,2s5-1,5-1s1.375,2,5,2c-1,0.375-2,2-2,2s0.688,3,4,3h1c3.313,0,4-3,4-3s-1-1.625-2-2c3.625,0,5-2,5-2s1.125,1,5,1s5-2,5-2S31.875,6.063,30,6z"/><path fill="#ffc107" d="M39.5,17c-1.933,0-3.5,1.567-3.5,3.5s1.567,3.5,3.5,3.5s3.5-1.567,3.5-3.5S41.433,17,39.5,17z M39.5,22c-0.828,0-1.5-0.672-1.5-1.5s0.672-1.5,1.5-1.5s1.5,0.672,1.5,1.5S40.328,22,39.5,22z"/><path fill="#ffc107" d="M38.245 30L33.781 23.969 31 16.973 32.755 16 37.125 22.031 40 29.027zM26 40c0 0-4.938.438-7-1-.125 1.063 1 4 1 4 0 1.313 0 3 0 3S25 44.25 26 40zM15 21c.28 0-2 2.5-2 7-2.063-1.125-3-2-3-2l-3-1C7 25 8.187 21 15 21z"/><path fill="#ffc107" d="M35.304,22.067c-0.531,0.038-1.178,0.077-1.897,0.167c-0.362,0.04-0.747,0.082-1.153,0.127c-0.211,0.008-0.383,0.097-0.534,0.233c-0.159,0.122-0.345,0.204-0.525,0.308c-2.906,1.594-6.781,3.719-10.656,5.844c-2.288,1.255-4.571,2.507-6.659,3.652C11.661,32.824,10,31.128,10,29c0-2.188,1.208-4.125,1.208-4.125L9,25c0,0-2,1.188-2,5c0,3.559,1.922,4.325-0.434,8.14C6.195,38.676,6,39,6,39s0.503,0.014,1.357-0.029C12.646,39.205,14.921,44,18.792,44c1.943,0,2.185,0,2.208,0l1.042-2.458c0,0-4.414,0.112-6-1.792c-1.667-2-0.042-3.938-0.042-3.938s0.001-0.012,0.002-0.016c2.035-1.116,4.244-2.327,6.46-3.543c3.875-2.125,7.75-4.25,10.656-5.844c0.184-0.096,0.354-0.208,0.542-0.277c0.196-0.054,0.364-0.151,0.484-0.325c0.256-0.318,0.499-0.62,0.727-0.904c0.462-0.558,0.844-1.083,1.161-1.51C36.664,22.537,37,22,37,22S36.367,21.994,35.304,22.067z"/><path fill="#ffc107" d="M24.5 18A10.5 10.5 0 1 0 24.5 39A10.5 10.5 0 1 0 24.5 18Z"/><g><path fill="#dd9f05" d="M28.95 38c.599-.281 1.166-.615 1.697-1H18.353c.531.385 1.098.719 1.697 1H28.95zM15.568 34c.214.347.444.682.696 1h16.472c.252-.318.482-.653.696-1H15.568zM14 28.5c0 .169.017.333.025.5h20.949C34.983 28.833 35 28.669 35 28.5s-.017-.333-.025-.5H14.025C14.017 28.167 14 28.331 14 28.5zM14.312 31c.083.34.183.674.298 1H34.39c.116-.326.215-.66.298-1H14.312zM18.353 20h12.294c-.531-.385-1.098-.719-1.697-1h-8.9C19.451 19.281 18.884 19.615 18.353 20zM16.264 22c-.252.318-.482.653-.696 1h17.864c-.214-.347-.444-.682-.696-1H16.264zM14.61 25c-.116.326-.215.66-.298 1h20.376c-.083-.34-.183-.674-.298-1H14.61z"/></g><path fill="#6d4c41" d="M32,31.271c-0.017,0.144-0.105,0.269-0.193,0.385c-0.731,0.969-1.828,1.911-2.775,2.67c-0.779,0.624-1.7,1.298-1.785,2.293c-0.037,0.435,0.069,0.955-0.261,1.241c-0.28,0.242-0.316,0.227-0.568-0.044c-0.251-0.272-0.336-0.656-0.378-1.023c-0.083-0.739-0.029-1.494,0.16-2.213c0.198-0.755,0.547-1.517,0.403-2.284c-0.135-0.723-1.124-1.45-1.061-2.183c0.023-0.271,0.125-0.575-0.037-0.793c-0.169-0.227-0.507-0.205-0.781-0.277C24.229,28.911,24.448,28.25,24,28c-0.897-0.501-2.8,0.078-3.395-0.759C20.279,26.783,20.474,25.301,20,25c-0.488-0.31-0.066,1.257-0.583,1c-0.616-0.306-1.917-1.667-1.167-2.333c0.514-0.457,0.417-0.979,0.417-1.667c-0.188-0.5-1.506-0.33-2.278-0.167c1.776-2.158,4.399-3.585,7.359-3.794c0.128-0.009-0.352,0.545,0.984,1.944c0.163,0.171,0.284,0.441,0.167,0.645c-0.188,0.33-0.69,0.076-0.954-0.197c-0.264-0.273-0.765-0.527-0.954-0.198c-0.075,0.131-0.044,0.296-0.003,0.442c0.121,0.425,0.314,0.83,0.568,1.191c0.132,0.188,0.316,0.382,0.546,0.374c0.297-0.01,0.465-0.332,0.683-0.534c0.546-0.509,1.619-0.076,1.66,0.669c0.014,0.252-0.076,0.512-0.259,0.686c-0.139,0.133-0.321,0.209-0.488,0.304C24.751,23.904,24.648,23.969,25,25c-0.139,0.243-0.481,0.304-0.745,0.209S24.193,25.203,24,25c-0.3,0.048-1,1.146-1,1.615c0,0.304,0.881,0.255,1.155,0.385C25.043,27.422,24.604,28,26.453,28c0.795,0,1.685-0.012,2.442,0.229c1.26,0.401,2.228,1.393,2.924,2.517C31.919,30.907,32.022,31.083,32,31.271z M25.659,18.067c-0.208,0.277-0.64,0.902-0.659,0.995c-0.025,0.121,0.052,0.239,0.132,0.334c0.286,0.345,0.448,0.631,0.851,0.825c0.226,0.109,0.507,0.186,0.717,0.049c0.106-0.07,0.174-0.183,0.239-0.292c0.161-0.273,0.695-1.497,0.631-1.516C26.955,18.274,26.317,18.14,25.659,18.067z"/><path fill="#c18706" d="M36.004,18.002c-0.001-0.549,0.437-0.996,0.985-1.002c0.205,0.004,1.775,0.015,2.927,1.155c0.66,0.652,1.007,1.522,1.062,2.568C40.869,21.445,40.252,22,39.5,22c-0.198,0-0.386-0.04-0.559-0.11C38.992,21.493,39,21.153,39,21c0-1.846-1.528-1.997-1.997-2C36.453,18.997,36.006,18.552,36.004,18.002z M39.5,24c-0.468,0-0.912-0.095-1.32-0.262C37.99,23.899,37.757,24,37.469,24c-0.686,0-1.355-0.11-2.009-1.44c-0.943-1.923-2.83-3.285-2.91-3.342c-0.45-0.322-1.072-0.216-1.393,0.231c-0.322,0.448-0.219,1.072,0.229,1.395c0.016,0.012,1.562,1.135,2.279,2.597c1.126,2.294,2.71,2.56,3.804,2.56c1.392,0,2.442-0.789,3.022-2.16C40.175,23.934,39.847,24,39.5,24z M12.013,40.492c-2.844-1.379-3.803-4.724-3.996-5.522c0.173-0.787,0.954-1.44,1.778-2.131c1.033-0.866,2.205-1.848,2.204-3.34c0-1.871-0.71-2.762-1.517-3.172C10.239,27.121,10,28.219,10,29.501c0.001,0.559-0.723,1.164-1.488,1.806c-0.397,0.333-0.832,0.696-1.228,1.112c-0.208-1.045-0.264-1.928-0.279-2.42L7,30c0-0.028,0.002-0.053,0.003-0.081C6.998,29.72,7,29.594,7,29.583c0-0.045,0.007-0.126,0.021-0.22c0.096-1.533,0.526-2.582,0.963-3.266C5.569,26.57,5,28.696,5,29.553c-0.003,0.117-0.074,2.894,1.037,5.732c0.601,2.886,3.132,7.808,8.682,7.808c0.326,0,0.674-0.038,1.021-0.074C14.536,42.3,13.364,41.319,12.013,40.492z M14.151,30.915c0.027-0.053,0.068-0.094,0.102-0.141C14.092,30.041,14,29.283,14,28.502c-0.624,0.294-1.248,0.755-1.628,1.5c-0.719,1.408-0.268,3.249,1.214,5.554c1.253,1.948,1.889,3.061,2.157,3.781c0.085,0.137,0.183,0.275,0.299,0.414c0.448,0.538,1.124,0.911,1.861,1.175c0.508-2.217-1.6-4.905-2.654-6.48C14.19,32.863,13.801,31.61,14.151,30.915z"/><g><path fill="#ffc107" d="M30,6c-1.875-0.063-2,2-2,2s-0.125,1-1,1s-1-1-1-1c0-2.313-0.938-3-2-3s-1.375,0.375-2,1c-1,0-1,1-1,1h2v1c0,0-0.125,1-1,1s-1-1-1-1s-0.125-2.063-2-2c-0.719,0.024-2.654,0.914-4.764,2C14.943,8,17.14,8,19,8c0,2.583,3,3,3,3s2,0,5,0s3-3,3-3h4.764C32.654,6.914,30.719,6.024,30,6z"/><path fill="#ffc107" d="M27,11c0,2.485-1.119,6-2.5,6S22,13.485,22,11s1.119-3,2.5-3S27,8.515,27,11z"/><path fill="#ffc107" d="M21.724 19.447L21.276 18.553 23.091 17.646 24.025 14.842 24.975 15.158 23.909 18.354z"/><path fill="#ffc107" d="M23 18H24V20H23zM27.276 19.447L27.724 18.553 25.909 17.646 24.975 14.842 24.025 15.158 25.091 18.354z"/><path fill="#ffc107" d="M25 18H26V20H25zM25 2.014c0 0-.279-.032-.685 0H24l-.02.04C22.795 2.236 21 3.006 21 6.014c0 0 .032-2 2-2h6.503c.958 0 1.876-.382 2.552-1.062L33 2 25 2.014z"/></g></svg>