<svg xmlns="http://www.w3.org/2000/svg"  viewBox="0 0 48 48" width="1600px" height="1600px"><path fill="#303f9f" d="M12.833 37L17.87 33.223 9.392 27.659 1.556 11.007 5.017 4.085 11.612 16.334 24 25.625 36.386 16.334 42.993 4.068 46.607 11.009 38.612 27.653 30.137 32.95 35.184 36.987 24 45.375z"/><path fill="#e8eaf6" d="M42.985,5.136l3.063,5.882l-7.824,16.288l-7.754,4.846L29.274,32.9l1.102,0.881l3.992,3.194L24,44.75L13.667,37l3.933-2.95l1.139-0.855l-1.191-0.781l-7.764-5.095L2.111,11.013L5.033,5.17l6.087,11.304l0.104,0.194L11.4,16.8l12,9l0.6,0.45l0.6-0.45l11.998-9l0.176-0.132l0.104-0.194L42.985,5.136 M43,3l-7.002,13L24,25l-12-9L5,3l-4,8l8,17l8,5.25L12,37l12,9l12-9l-5-4l8-5l8.166-17L43,3L43,3z"/><path fill="#303f9f" d="M12.833 37L17.87 33.223 9.392 27.659 1.556 11.007 2.188 9.742 11.713 16.409 24 25.625 36.298 16.4 45.842 9.721 46.601 11.022 38.612 27.653 30.137 32.95 35.184 36.987 24 45.375z"/><path fill="#e8eaf6" d="M45.683,10.442l0.352,0.603l-7.811,16.26l-7.754,4.846L29.274,32.9l1.102,0.881l3.992,3.194L24,44.75L13.667,37l3.933-2.95l1.139-0.855l-1.191-0.781l-7.764-5.095L2.111,11.013l0.265-0.529L11.4,16.8l12,9l0.6,0.45l0.6-0.45l11.971-8.981L45.683,10.442 M46,9l-10.002,7L24,25l-12-9L2,9l-1,2l8,17l8,5.25L12,37l12,9l12-9l-5-4l8-5l8.166-17L46,9L46,9z"/><path fill="#303f9f" d="M12.833 37L17.87 33.223 9.392 27.659 5.066 18.467 23.999 31.608 43.018 18.481 38.612 27.653 30.137 32.95 35.184 36.987 24 45.375z"/><path fill="#e8eaf6" d="M6.313,19.941L23.43,31.822l0.569,0.395l0.57-0.393l17.183-11.86l-3.527,7.342l-7.754,4.846L29.274,32.9l1.102,0.881l3.992,3.194L24,44.75L13.667,37l3.933-2.95l1.139-0.855l-1.191-0.781l-7.764-5.095L6.313,19.941 M3.82,16.994L9,28l8,5.25L12,37l12,9l12-9l-5-4l8-5l5.284-11L24,31L3.82,16.994L3.82,16.994z"/><path fill="#e8eaf6" d="M24 25L26.125 31 33.273 31 27.47 35.737 29.524 42 24 38.813 18.476 42 20.476 35.792 14.727 31 21.875 31z"/><path fill="#303f9f" d="M24 32A2 2 0 1 0 24 36A2 2 0 1 0 24 32Z"/></svg>