<svg xmlns="http://www.w3.org/2000/svg"  viewBox="0 0 48 48" width="1600px" height="1600px"><path fill="#37474f" d="M38,34H10c-1.1,0-2-0.9-2-2V4c0-1.1,0.9-2,2-2h28c1.1,0,2,0.9,2,2v28C40,33.1,39.1,34,38,34z"/><path fill="#ffea00" d="M38,4v28H10V4H38 M38,3H10C9.45,3,9,3.45,9,4v28c0,0.55,0.45,1,1,1h28c0.55,0,1-0.45,1-1V4C39,3.45,38.55,3,38,3L38,3z"/><path fill="#37474f" d="M38,46H10c-1.1,0-2-0.9-2-2v-7c0-1.1,0.9-2,2-2h28c1.1,0,2,0.9,2,2v7C40,45.1,39.1,46,38,46z"/><path fill="#ffea00" d="M38,37v7H10v-7H38 M38,36H10c-0.55,0-1,0.45-1,1v7c0,0.55,0.45,1,1,1h28c0.55,0,1-0.45,1-1v-7C39,36.45,38.55,36,38,36L38,36z"/><path fill="#fff" d="M24 23.669L17.805 27.244 19.975 20.506 13.731 15.5 21.555 15.5 24 8.386 26.445 15.5 34.34 15.5 27.998 20.479 30.222 27.26z"/><path fill="#ffea00" d="M24,13l1.375,4H30l-3.755,2.948L27.574,24L24,21.938L20.426,24l1.294-4.017L18,17h4.625L24,13 M24,3.772l-2.837,8.253L20.484,14H18H9.463l6.661,5.341l2.107,1.69l-0.66,2.05l-2.387,7.409l6.741-3.89L24,25.401l2.075,1.197l6.795,3.921l-2.445-7.455l-0.674-2.055l2.102-1.65L38.68,14H30h-2.484l-0.679-1.975L24,3.772L24,3.772z"/><path fill="#fff" d="M24 13L25.375 17 30 17 26.245 19.948 27.574 24 24 21.938 20.426 24 21.72 19.983 18 17 22.625 17z"/><path fill="#37474f" d="M24,13l1.375,4H30l-3.755,2.948L27.574,24L24,21.938L20.426,24l1.294-4.017L18,17h4.625L24,13 M24,9.924l-0.946,2.751L21.911,16H18h-2.846l2.22,1.78l3.182,2.552l-1.083,3.361l-0.796,2.47l2.247-1.297L24,23.092l3.074,1.774l2.265,1.307l-0.815-2.485l-1.111-3.387l3.204-2.515L32.893,16H30h-3.911l-1.143-3.325L24,9.924L24,9.924z"/><path fill="#fff" d="M12 38L12 42 13 43 14 43 15 42 15 38 14 38 14 42 13 42 13 38zM19 39l-1-1h-1l-1 1v1l1 1h1v1h-1-1l1 1c0 0 .875 0 1 0s1-1 1-1v-1l-1-1h-1v-1h1H19zM23 43h1l-1-5h-1l-1 5h1l.167-1h.667L23 43zM22.333 41l.167-1 .167 1H22.333zM28 39l-1-1h-2v5h1v-1.5l1 .5v1h1v-1.458L27 41l1-.458V39zM27 40h-1v-1h1V40zM29 38L29 43 30 43 30 41 30.5 43 31 41 31 43 32 43 32 38 31 38 30.542 40 30 38zM33 38c.063 0 1 3 1 3v2h1v-2l1-3h-1l-.5 1.594L34 38H33z"/></svg>