<svg xmlns="http://www.w3.org/2000/svg"  viewBox="0 0 48 48" width="1600px" height="1600px"><path fill="#6d4c41" d="M43.5,36H42v-2c0,0,2-1.9,2-5s-3-3-3-3s-5.6,2.6-6.5,8L32,30H19l-3,5H9v1H5v8.4L6.6,46h3.8l0.6-0.6 V46h3v-0.6l0.6,0.6h3.8l0.6-0.6V46h24v-3.8l1.5-4.9l0.4-1.3H43.5z"/><path fill="#c18706" d="M24 29h-1l-4 8c0 0 2 3 5 3s5-3 5-3l-4-8H24zM40 40h-2.4c-.6 0-1.1-.3-1.3-.8l-4.4-8.9c-.1-.2-.3-.3-.4-.3H28v-1h3.4c.6 0 1.1.3 1.3.8l4.4 8.9c.1.2.3.3.4.3H40V40z"/><path fill="#dd9f05" d="M43.5,6C44.2,5.2,45,4.1,45,3c0-0.5-0.2-0.8-0.5-1c0,0-1.9-0.3-7.5,4c-5.6,4.3-5,7-5,7 c0,1.2,1,1.4,1,3c0,1.6-1.5,3-3,3s-6,0-6,0s-4.5,0-6,0s-3-1.4-3-3c0-1.6,1-1.8,1-3c0,0,0.6-2.7-5-7C5.4,1.7,3.5,2,3.5,2 C3.2,2.2,3,2.5,3,3c0,1.1,0.8,2.2,1.5,3C4.2,6,4,6.4,4.1,6.7c0.1,0.3,1.4,1,1.7,1.1C5.6,7.7,5.3,8.3,5.3,8.5c0,0.4,1.3,1.7,1.5,1.6 c-0.1,0-0.3,0.1-0.4,0.1c-0.1,0.1-0.2,0.2-0.2,0.4c0,0.1,0.1,0.2,0.2,0.2c0.2,0.2,0.5,0.3,0.7,0.5c-0.3-0.2-0.8,0.1-0.8,0.5 c0,0.1,0.1,0.3,0.1,0.4c0.1,0.3,0.3,0.5,0.6,0.6c-0.4,0-0.9,0.3-0.9,0.7c0,0.3,0.2,0.5,0.4,0.6c0.2,0.1,0.4,0.2,0.7,0.3 c-0.2,0-0.5,0.1-0.7,0.3c-0.2,0.2-0.3,0.4-0.3,0.7c0.1,0.4,0.6,0.6,1,0.6c-0.3,0.1-0.7,0.3-0.7,0.6c-0.1,0.3,0.1,0.6,0.4,0.7 s0.6,0.1,0.9,0c-0.4,0.2-0.6,0.6-0.5,1S7.6,18.9,8,19c0,0.3,0,0.8,0.2,0.9c0.3,0.3,0.8,0.3,1.1,0.2c-0.1,0.2-0.2,0.4-0.2,0.7 c-0.1,0.3,0,0.5,0.2,0.7c0.3,0.3,0.7,0.2,1-0.1c-0.2,0.1-0.2,0.8,0,1c0.2,0.2,0.8,0.1,1,0.1c-0.1,0.2-0.2,0.7-0.1,0.9 c0,0.1,0.1,0.2,0.2,0.3c0.2,0.3,0.7-0.1,0.9-0.2c0,0.2,0,0.5,0.1,0.7c0.1,0.6,1,0.2,1.4,0.1c0,0.4-0.1,0.8,0.1,1.1 c0.3,0.3,0.8,0.2,1.1-0.1c0,0.2-0.1,0.8,0.3,0.8c0.1,0,0.2,0,0.2,0c0.4-0.1,0.7-0.2,1-0.4c0.1,0.3,0.1,0.8,0.4,0.9 c0.2,0.1,0.5,0,0.7-0.1c0.2-0.2,0.4-0.4,0.6-0.6l6,2l6-2c0.1,0.2,0.4,0.5,0.6,0.6c0.2,0.2,0.5,0.3,0.7,0.1c0.3-0.2,0.3-0.6,0.4-0.9 c0.3,0.2,0.7,0.3,1,0.4c0.1,0,0.2,0,0.2,0c0.3-0.1,0.2-0.6,0.3-0.8c0.3,0.3,0.8,0.4,1.1,0.1c0.3-0.3,0.1-0.8,0.1-1.1 c0.4,0.1,1.3,0.5,1.4-0.1c0.1-0.2,0-0.5,0.1-0.7c0.2,0.1,0.7,0.5,0.9,0.2c0.1-0.1,0.1-0.2,0.2-0.3c0.1-0.2-0.1-0.6-0.1-0.9 c0.3,0,0.8,0.1,1-0.1c0.2-0.2,0.2-0.9,0-1c0.3,0.2,0.7,0.3,1,0.1c0.2-0.2,0.2-0.5,0.2-0.7c-0.1-0.2-0.1-0.5-0.2-0.7 c0.3,0,0.8,0.1,1.1-0.2C40,19.8,40,19.3,40,19c0.4-0.1,0.7-0.4,0.8-0.7s-0.1-0.8-0.5-1c0.3,0.1,0.6,0.1,0.9,0s0.5-0.4,0.4-0.7 c-0.1-0.3-0.4-0.5-0.7-0.6c0.4-0.1,0.9-0.2,1-0.6c0.1-0.2-0.1-0.5-0.3-0.7c-0.2-0.2-0.4-0.2-0.7-0.3c0.2-0.1,0.5-0.1,0.7-0.3 c0.2-0.1,0.4-0.4,0.4-0.6c0-0.4-0.4-0.7-0.9-0.7c0.2-0.2,0.4-0.4,0.6-0.6c0.1-0.1,0.1-0.2,0.1-0.4c0-0.4-0.4-0.6-0.8-0.5 c0.3-0.1,0.5-0.3,0.7-0.5c0.1-0.1,0.1-0.1,0.2-0.2c0-0.1,0-0.3-0.2-0.4c-0.1-0.1-0.3-0.1-0.4-0.1c0.1,0,1.4-1.2,1.5-1.6 c0-0.2-0.3-0.7-0.5-0.6c0.3-0.2,1.6-0.8,1.7-1.1C44,6.4,43.8,6,43.5,6z"/><path fill="#c18706" d="M29,20c0,0,0.4,0.2,0.7,0.6c0.4,0.4,0.7,1,1,1.6c0.3,0.6,0.4,1.3,0.4,1.8c0,0.5-0.1,0.9-0.1,0.9 s-0.4-0.2-0.7-0.6c-0.4-0.4-0.7-1-1-1.6c-0.3-0.6-0.4-1.3-0.4-1.8C28.9,20.4,29,20,29,20z"/><path fill="#dd9f05" d="M20,12c0,0,0-2,2-2c0,0,0.5-1,2-1c0,0,3,0.5,3,2h-1v1c0.5,1.4,2,3.9,2,6v1h-8v-1c0-2.5,2-3.8,2-5 c0-1.1,0-1,0-1H20z"/><path fill="#ffc107" d="M27,11c0-1.5-3-2-3-2c-1.5,0-2,1-2,1l1,1l-1,1c0,0,0,0.1,0,1c0,0.5-0.4,1-0.8,1.6 c0.2,0.2,0.4,0.4,0.8,0.4c0.6,0,1-0.4,1-1c0,0.6,0.4,1,1,1s1-0.4,1-1c0,0.6,0.4,1,1,1c0.5,0,0.8-0.3,1-0.8c-0.4-0.9-0.8-1.6-1-2.2 C26,12,26,11,27,11z"/><path fill="#dd9f05" d="M9 34h25v1H9V34zM35 34h6v1h-6V34z"/><path fill="#c18706" d="M11.7 38c0 0-1.5-.6-1.7-3v-1c.2-2.4 1.7-3 1.7-3l1.3 1 3-4h-5c0 0 0 .5 0 1.6-1.2.6-2 1.6-2.5 2.8-.1.3-.2.5-.3.8-.2.5-.3.9-.8 1.1 0 0-.3.2-.3.2.3.2.6.3.8.5.4.5.5 1.2.7 1.7.2.5.5 1 .9 1.5.4.5.9.9 1.5 1.2 0 1 0 1.6 0 1.6h5l-3-4L11.7 38zM18 30l-2 4h1l3-4H18zM30 30l2 4h-1l-3-4H30zM19 20c0 0 .1.4.1.9 0 .5-.1 1.2-.4 1.8-.2.6-.6 1.2-1 1.6C17.4 24.8 17 25 17 25s-.1-.4-.1-.9c0-.5.1-1.2.4-1.8.2-.6.6-1.2 1-1.6C18.6 20.2 19 20 19 20zM17 20c0 0 0 .4-.1.9-.1.5-.4 1.1-.8 1.6-.4.5-.9.9-1.3 1.2C14.4 23.9 14 24 14 24s0-.4.1-.9c.1-.5.4-1.1.8-1.6.4-.5.9-.9 1.3-1.2C16.6 20.1 17 20 17 20zM16 19c0 0-.2.4-.6.8-.4.4-.9.9-1.6 1.3-.6.4-1.3.6-1.9.8C11.4 22 11 22 11 22s.2-.4.6-.8c.4-.4.9-.9 1.6-1.3.6-.4 1.3-.6 1.9-.8C15.6 19 16 19 16 19zM14 18c0 0-.3.3-.7.6-.4.3-1 .5-1.7.7-.6.1-1.3.1-1.8 0C9.4 19.2 9 19 9 19s.3-.3.7-.6c.4-.3 1-.5 1.7-.7.6-.1 1.3-.1 1.8 0C13.6 17.8 14 18 14 18zM8 16c0 0 .4-.3.9-.4.6-.2 1.3-.3 2.1-.3.8 0 1.5.1 2.1.3C13.6 15.7 14 16 14 16s-.4.3-.9.4c-.6.2-1.3.3-2.1.3-.8 0-1.5-.1-2.1-.3C8.4 16.3 8 16 8 16zM14 14c0 0-.5.1-1.1.1-.6 0-1.4-.1-2.2-.4-.8-.2-1.5-.6-2-1C8.3 12.4 8 12 8 12s.5-.1 1.1-.1c.6 0 1.4.1 2.2.4.8.2 1.5.6 2 1C13.7 13.6 14 14 14 14zM14 12c0 0-.6-.1-1.5-.4-.9-.3-1.9-.8-2.9-1.4-1-.6-1.9-1.4-2.6-2C6.4 7.5 6 7 6 7s.6.1 1.5.4c.9.3 1.9.8 2.9 1.4 1 .6 1.9 1.4 2.6 2C13.6 11.5 14 12 14 12zM31 20c0 0 .4.1.8.4.4.3.9.7 1.3 1.2.4.5.6 1.1.8 1.6C34 23.6 34 24 34 24s-.4-.1-.8-.4c-.4-.3-.9-.7-1.3-1.2-.4-.5-.6-1.1-.8-1.6C31 20.4 31 20 31 20zM32 19c0 0 .4 0 1 .1.6.1 1.3.4 1.9.8.6.4 1.2.9 1.6 1.3C36.8 21.6 37 22 37 22s-.4 0-1-.1c-.6-.1-1.3-.4-1.9-.8-.6-.4-1.2-.9-1.6-1.3C32.2 19.4 32 19 32 19zM34 18c0 0 .4-.2.9-.3.5-.1 1.2-.1 1.8 0 .6.1 1.2.4 1.7.7C38.7 18.7 39 19 39 19s-.4.2-.9.3c-.5.1-1.2.1-1.8 0-.6-.1-1.2-.4-1.7-.7C34.3 18.3 34 18 34 18zM40 16c0 0-.4.3-.9.4-.6.2-1.3.3-2.1.3-.8 0-1.5-.1-2.1-.3C34.4 16.3 34 16 34 16s.4-.3.9-.4c.6-.2 1.3-.3 2.1-.3.8 0 1.5.1 2.1.3C39.6 15.8 40 16 40 16zM34 14c0 0 .3-.4.8-.7.5-.4 1.2-.7 2-1 .8-.3 1.5-.4 2.2-.4.6 0 1.1.1 1.1.1s-.3.4-.8.7c-.5.4-1.2.7-2 1-.8.3-1.5.4-2.2.4C34.5 14.1 34 14 34 14zM34 12c0 0 .4-.5 1-1.1.6-.6 1.6-1.4 2.6-2 1-.6 2.1-1.1 2.9-1.4C41.4 7.1 42 7 42 7s-.4.5-1 1.1c-.6.6-1.6 1.4-2.6 2-1 .6-2.1 1.1-2.9 1.4C34.6 11.9 34 12 34 12z"/><path fill="#ffc107" d="M16.5 35c-.3 0-.5-.2-.5-.5v-1c0-.3.2-.5.5-.5s.5.2.5.5v1C17 34.8 16.8 35 16.5 35zM15.5 35c-.3 0-.5-.2-.5-.5v-1c0-.3.2-.5.5-.5.3 0 .5.2.5.5v1C16 34.8 15.8 35 15.5 35zM17.5 35c.3 0 .5-.2.5-.5v-1c0-.3-.2-.5-.5-.5S17 33.2 17 33.5v1C17 34.8 17.2 35 17.5 35zM31.5 35c-.3 0-.5-.2-.5-.5v-1c0-.3.2-.5.5-.5s.5.2.5.5v1C32 34.8 31.8 35 31.5 35zM30.5 35c-.3 0-.5-.2-.5-.5v-1c0-.3.2-.5.5-.5s.5.2.5.5v1C31 34.8 30.8 35 30.5 35zM32.5 35c.3 0 .5-.2.5-.5v-1c0-.3-.2-.5-.5-.5S32 33.2 32 33.5v1C32 34.8 32.2 35 32.5 35z"/><path fill="#c18706" d="M25,10c0,0-1.2,1-1.5,1S23,10.8,23,10.5s0.2-0.5,0.5-0.5S25,10,25,10z"/><path fill="#ffc107" d="M43 34.5c0 .8-.7 1.5-1.5 1.5S40 35.3 40 34.5s.7-1.5 1.5-1.5S43 33.7 43 34.5zM17 18.8c-1.1-.4-2-1.5-2-2.8 0-1.6 1-1.8 1-3 0 0 .6-2.7-5-7-.5 0-1.5.1-.7 1.3.2.3.5.7.7 1 .9.9 1.9 2 1.9 3.3 0 2.1 0 2.8 0 5.5 0 1.6 1.6 3.5 4 3.9V18.8zM37 6c-5.6 4.3-5 7-5 7 0 1.2 1 1.4 1 3 0 1.3-.9 2.4-2 2.8v2.1c2.4-.4 4-2.3 4-3.9 0-2.6 0-3.3 0-5.5 0-1.3 1-2.4 1.9-3.3.3-.3.5-.7.7-1C38.5 6.1 37.5 6 37 6zM18 18v12l6 3 6-3V18H18z"/><path fill="#dd9f05" d="M18,22h12v1H18V22z"/><path fill="#dd9f05" d="M25 32.5l1-.5V22h-1V32.5zM28 31l1-.5V22h-1V31zM19 30.5l1 .5v-9h-1V30.5zM22 32l1 .5V22h-1V32z"/><path fill="#c18706" d="M32.8,42l-0.7-0.7c0.9-0.8,1.1-2.1,1.4-4.3c0.1-0.8,0.3-1.7,0.5-2.7l1,0.2c-0.2,1-0.3,1.9-0.5,2.7 C34.2,39.5,33.9,41,32.8,42z"/><path fill="#dd9f05" d="M41.5,35c-0.2,0-0.3-0.1-0.4-0.2c-0.1-0.2-0.1-0.5,0.2-0.7c0.1,0,1.8-1.2,1.8-5.1 c0-0.9-0.2-1.5-0.7-1.8c-0.8-0.5-2.3,0-2.8,0.2c0,0-3.4,1.9-4.5,7.1c-0.1,0.3-0.3,0.4-0.6,0.4c-0.3-0.1-0.4-0.3-0.4-0.6 c1.1-5.6,4.8-7.7,5-7.8c0.1-0.1,2.3-1.1,3.8-0.2c0.8,0.5,1.2,1.4,1.2,2.6c0,4.5-2.1,5.9-2.2,5.9C41.7,35,41.6,35,41.5,35z"/><path fill="#dd9f05" d="M34.5,33c-0.8,0-1.5,0.7-1.5,1.5s0.7,1.5,1.5,1.5s1.5-0.7,1.5-1.5S35.3,33,34.5,33z M34.5,35 c-0.3,0-0.5-0.2-0.5-0.5s0.2-0.5,0.5-0.5s0.5,0.2,0.5,0.5S34.8,35,34.5,35z"/><path fill="#ffc107" d="M34.7,35c0.3-0.1,0.4-0.4,0.2-0.7l-2.2-4.5C32.5,29.3,32,29,31.4,29H30v1h1.4c0.2,0,0.4,0.1,0.4,0.3 l2.2,4.4C34.2,35,34.5,35.1,34.7,35z"/><path fill="#dd9f05" d="M30,29h1v1h-1V29z"/><path fill="#ffc107" d="M8 37H6v7l1 1h3l1-1v-7H9v7H8V37zM14 38l1-1h3l1 1v2h-2v-2h-1v2l3 2v2l-1 1h-3l-1-1v-2h2v2h1v-2l-3-2V38zM22 37v8h2v-4l1 4h2v-8h-2v4l-1-4H22zM33 37l1.5 8h2l1.5-8h-2l-.5 4L35 37H33zM31 45h2l-1.5-8h-2L28 45h2l.1-1h.8L31 45zM30.2 43l.3-2.9.3 2.9H30.2zM12 44h1v1h-1V44zM20 44h1v1h-1V44zM41.5 37L41 40l-.5-3h-2l1.5 5v3h2v-3l1.5-5H41.5z"/></svg>