<svg xmlns="http://www.w3.org/2000/svg"  viewBox="0 0 48 48" width="1600px" height="1600px"><rect width="32" height="41" x="8" y="4" fill="#333"/><polygon fill="#eee" points="39,10 23.999,14 9,10 9,45 39,45"/><polygon points="24,12.938 20.375,12.875 20.375,16.938 21.813,21.625 24,21.625 26.188,21.625 27.625,16.938 27.625,12.875"/><path fill="#333" d="M26.046,16.053l-1.621-0.112c-0.703-0.048-1.239-0.663-1.19-1.366v0	c0.048-0.703,0.663-1.239,1.366-1.19l1.621,0.112c0.703,0.048,1.239,0.663,1.19,1.366v0C27.364,15.566,26.749,16.101,26.046,16.053z"/><path fill="#9e9e9e" d="M16.5,4.438c-0.693,0.063-1.093,0.483-1.313,1.125L12.5,10l3.313,18.625l3.313,10.313l0.313-2.625	l-3-8.813l-1.75-9.688l2.25,4.563c1.969-4.411,4.127-7.727,6.563-9.438c-4.12-2.053-7.224-6.274-7.224-6.274S16.365,5.21,16.5,4.438	z"/><path fill="#9e9e9e" d="M31.5,4.438c0.693,0.063,1.093,0.483,1.313,1.125L35.5,10l-3.313,18.625l-3.313,10.313l-0.313-2.625	l3-8.813l1.75-9.688l-2.25,4.563c-1.969-4.411-4.127-7.727-6.563-9.438c4.12-2.053,7.224-6.274,7.224-6.274S31.635,5.21,31.5,4.438z"/><polygon points="25.456,21.348 24,21.348 22.544,21.348 16.544,45 24,45 31.456,45"/><path fill="#eee" d="M15.188,5.563l1.916,2.67C17.391,8.633,17.723,9,18.092,9.327l2.848,2.524	c0.411,0.364,0.451,0.991,0.091,1.405l-0.82,0.943c-1.106,1.272-1.932,2.763-2.423,4.376l-0.934,3.063l-4.408-11.334L15.188,5.563z"/><path fill="#eee" d="M32.813,5.563l-1.916,2.67C30.609,8.633,30.277,9,29.908,9.327l-2.848,2.524	c-0.411,0.364-0.451,0.991-0.091,1.405l0.82,0.943c1.106,1.272,1.932,2.763,2.423,4.376l0.934,3.063l4.408-11.334L32.813,5.563z"/><polygon fill="#1a1a1a" points="12.75,9 15.563,23.688 20.625,45 8.063,45 8,9.688"/><path fill="#9e9e9e" d="M15.542,34.188c0,0-0.063,0.5,0.438,1.438s2.563,4.125,2.563,4.125l2.938-3.714	c0.249-0.315,0.464-0.656,0.64-1.017l0.646-1.325c0.225-0.461,0.385-0.951,0.477-1.456l0.925-5.114l2.156-2.323l0.5,2.375	l0.552-0.545c0.151-0.168,0.252-0.375,0.294-0.596l0.316-1.671c0.038-0.199,0.03-0.404-0.021-0.6l-0.234-0.89l0.056-1.298	c0.004-0.09-0.027-0.178-0.086-0.245l-2.239-2.544c-0.253-0.288-0.655-0.395-1.018-0.271l-2.15,0.733l1.313-1.75l2.313,0.125	c0,0,0.938,0.25,1.438,0.375s1.375-0.344,1.375-0.344l0.544-0.597l-0.356-0.809l-1.063,0.059c-0.352,0.019-0.703-0.054-1.017-0.214	l-0.946-0.481c-0.107-0.055-0.224-0.089-0.343-0.103l-2.406-0.266c-0.341-0.038-0.678,0.102-0.892,0.37l-4.147,5.197L16.855,27	l-0.406,3.813L15.542,34.188z"/><path fill="#eee" d="M15.931,34.126l1.167,1.996c0.46,0.786,1.463,1.061,2.259,0.619l0.28-0.156	c0.727-0.404,1.298-1.038,1.623-1.803l0.095-0.224c0.298-0.701,0.452-1.455,0.452-2.216v-1.942l0.63-2.361	c0.848-0.246,1.436-0.886,1.679-2.046l-1.312-0.735c1.782-0.164,3.248-0.94,4.408-2.309c0.291,0.508,0.453,1.129,0.577,1.784	c0.141-0.598,0.053-1.363-0.42-2.414l-0.331-0.694c-0.123-0.259-0.352-0.453-0.628-0.532l-0.789-0.225	c-0.162-0.046-0.332-0.051-0.496-0.014l-3.07,0.698c-0.095,0.022-0.193,0.029-0.29,0.022l-1.375-0.095	c0.9-0.035,1.696-0.209,2.309-0.63c1-0.503,1.948-0.898,2.728-0.944c0.448-0.253,2.322,1.515,2.322,1.515s-0.702-1.174-1.43-1.883	c-0.192-0.187-1.223-1.28-1.591-1.07s-3.184,1.228-3.184,1.228l-1.312,0.21c1.028-0.883,1.99-2.036,2.886-3.463	c0.703,0.32,1.531,0.524,2.519,0.577c0.745,0.333,1.711,1.139,3.091,0.636c0.16-0.058,0.456-0.273,0.529-0.426	c0.076-0.158,0.08-0.542,0.002-0.699c-0.129-0.26-0.769-0.239-1.448-0.216c-0.335,0.011-0.667-0.064-0.965-0.215l-0.956-0.486	c-0.107-0.055-0.224-0.089-0.343-0.103l-2.412-0.267c-0.338-0.037-0.671,0.099-0.885,0.362l-4.172,5.123l-0.311,0.752l-1.089,9.234	c-0.013,0.107-0.031,0.213-0.054,0.319L15.931,34.126z"/><path fill="#333" d="M31.456,45H28l-3.533-14.707c-0.298-1.241-0.068-2.55,0.635-3.615l1.233-1.866L31.456,45z"/><polygon fill="#1a1a1a" points="35.25,9 32.438,23.688 27.375,45 39.938,45 40,9.688"/></svg>