<svg xmlns="http://www.w3.org/2000/svg"  viewBox="0 0 48 48" width="1600px" height="1600px"><path fill="#FFF" d="M8.5,36.3c1,3,4.1,6.3,7.2,7.5c2.4,1,5,1.4,7.6,1.1c2-0.2,3.8-0.7,5.4-1.5c3.3-1.7,5.6-4.3,7-7.9c0.6-1.6,1-3.4,1.1-5.5c0.1-1.6,0.1-3-0.2-4.3c-0.2-0.9-0.4-1.6-0.8-2.2c-0.5-0.7-1.3-1.2-2.6-1.6l-1.7-0.5l1.3-3.7c0.7-1.9,1.3-3.8,1.9-5.7c0.5-1.5,1-3.2,1.2-4.9c0.1-1.1-0.1-1.9-0.6-2.6c-0.4-0.4-0.9-0.7-1.5-0.8c-0.5,0-0.9,0.1-1.3,0.5c-0.2,0.2-0.4,0.4-0.6,0.6c-1.1,1.4-1.9,2.9-2.5,4.2c-1,2-1.8,4.3-2.8,7.2c-0.1,0.5-0.3,0.9-0.5,1.3l-0.7,1.9l-1.1-0.9c-0.3-0.2-0.4-0.5-0.5-0.7l-0.6-1.9c-1-2.8-2-5.8-3.3-8.5c-0.6-1.2-1.3-2.5-2.2-3.7c-0.4-0.6-0.7-0.8-1.1-0.9c-0.8-0.2-1.9,0.1-2.4,1.3C14.1,5.2,14,6,14.2,6.9c0.3,1.5,0.6,2.7,1,3.8c0.7,2.2,1.4,4.4,2.2,6.6l2,6.1l-2.7-1.7c-0.4-0.3-0.9-0.4-1.3-0.4c-0.1,0-0.2,0-0.2,0c-0.9,0.1-1.7,0.5-2.5,1.4c-0.8,0.9-0.9,1.7-0.5,2.8l1,2.5l-2,0.6c-1.7,0.5-2.7,1.6-2.9,3.3C7.9,33.3,8,34.7,8.5,36.3z"/><path fill="#455A64" d="M11.7,27.5c-0.2-0.5-0.4-1-0.6-1.5c-0.5-1.4-0.3-2.7,0.7-3.8c0.8-0.9,1.8-1.6,3.1-1.7c0.8-0.1,1.5,0.1,2.1,0.5c0.1,0.1,0.2,0.1,0.4,0.2c-0.1-0.3-0.2-0.5-0.3-0.8c-1-3.1-2.1-6.2-3.1-9.3c-0.4-1.3-0.7-2.6-1-3.9C13,6,13.1,4.9,13.5,3.9c0.8-1.7,2.3-2.1,3.5-1.9c0.8,0.2,1.3,0.7,1.7,1.3c0.9,1.2,1.6,2.5,2.3,3.9c1.4,2.8,2.4,5.8,3.4,8.8c0.2,0.6,0.4,1.1,0.6,1.7c0,0.1,0.1,0.1,0.2,0.2c0.2-0.6,0.5-1.2,0.7-1.9c0.8-2.5,1.7-5,2.9-7.3c0.7-1.5,1.5-3.1,2.6-4.4C31.5,4,31.8,3.8,32,3.6c1.4-1.3,3.3-0.9,4.2,0.3c0.8,1,1,2.1,0.9,3.3c-0.2,1.7-0.7,3.4-1.2,5.1C35,15,34,17.7,33.1,20.4c0,0.1-0.1,0.2-0.1,0.3c0.2,0.1,0.4,0.1,0.6,0.2c1.2,0.4,2.4,0.9,3.1,2c0.5,0.8,0.8,1.7,1,2.6c0.3,1.5,0.3,3,0.2,4.5c-0.1,2-0.5,4-1.2,5.8c-1.5,3.7-3.9,6.6-7.5,8.4c-1.8,0.9-3.8,1.5-5.8,1.6c-2.8,0.3-5.5-0.1-8.1-1.2c-3.4-1.4-6.8-4.9-7.8-8.1c-0.5-1.6-0.7-3.1-0.5-4.8c0.3-2.1,1.6-3.5,3.6-4.1C11,27.6,11.4,27.6,11.7,27.5z M11.2,33.1c0.1,0.2,0.3,0.3,0.4,0.5c0.5,0.6,0.9,1.2,1.4,1.8c0.6,0.7,1.2,1.4,2,1.7c0.7,0.3,1.3,0.3,2,0c0.6-0.3,0.7-0.7,0.6-1.3c-0.1-0.2-0.2-0.4-0.3-0.6c-0.7-1.4-1.6-2.7-2.7-3.8c-0.6-0.6-1.1-1.2-1.8-1.7c-0.6-0.5-1.2-0.5-1.8-0.1c-0.9,0.6-1.5,1.4-1.8,2.5c-0.3,1.1-0.1,2.2,0.3,3.2c1,2.7,2.7,4.9,5.1,6.4c3.6,2.3,7.5,2.8,11.5,1.5c4.6-1.5,7.5-4.8,9.1-9.3c0.7-1.9,0.8-4,0.8-6c0-1-0.1-2-0.4-2.9c-0.3-0.8-0.8-1.5-1.6-1.9c-0.5-0.2-0.9-0.4-1.4-0.6c-3.1-1.1-6.3-1.4-9.5-1.7c-0.7,0-1.3,0-2,0.2c-0.5,0.2-0.9,0.5-0.9,1.1c-0.1,1.2,0.3,2.2,1.3,2.9c0.7,0.5,1.6,0.8,2.5,1c2,0.4,4.1,0.4,6.2,0.4c0.5,0,0.9,0,1.4,0.1c0.5,0.1,0.6,0.5,0.7,1c0.1,0.4-0.2,0.6-0.5,0.7c-0.6,0.3-1.1,0.5-1.7,0.7c-2.4,0.9-4.2,2.5-5.5,4.7c-0.9,1.6-1.2,3.3-0.5,5.1c0.2,0.4,0.3,0.8,0.4,1.3c0.1,0.4,0.2,0.9,0.1,1.4c-1-0.2-1.6-0.7-2.1-1.5c-0.4-0.8-0.6-1.7-0.7-2.6c-0.1-0.5-0.1-1-0.1-1.5c-0.6,0.4-1.3,0.3-2,0.2c0,0.2,0.1,0.3,0.1,0.4c0.3,1.2-0.2,2.3-1.2,3c-0.8,0.6-1.8,0.6-2.7,0.4c-1.6-0.4-2.8-1.4-3.8-2.7c-0.5-0.7-1-1.5-1.1-2.3C10.7,34,10.7,33.6,11.2,33.1z M23.2,19.2c0,0,0-0.1,0-0.1c-0.9-2.7-1.8-5.5-2.8-8.2c-0.6-1.7-1.3-3.5-2-5.2c-0.2-0.5-0.5-1-1-1.4C16.5,3.7,15.5,4,15.2,5c-0.1,0.4-0.2,0.8-0.1,1.2c0,1.2,0.3,2.3,0.7,3.4c1.2,3.3,2.3,6.6,3.5,9.9c0,0,0,0,0,0C20.5,18.7,21.9,19.2,23.2,19.2z M30.8,20.3c0-0.1,0.1-0.1,0.1-0.2c1.4-3.8,2.7-7.6,3.9-11.5c0.2-0.8,0.4-1.5,0.3-2.4c-0.1-0.8-0.6-1.2-1.2-1.3c-0.5,0-1,0.2-1.3,0.6c-0.6,0.7-1,1.5-1.3,2.3c-1.6,3.8-2.8,7.7-4.1,11.6c0,0,0,0.1,0,0.2C28.3,19.8,29.5,20,30.8,20.3z M21.7,32.3c0-0.2,0-0.4-0.1-0.6c-0.3-0.7-0.5-1.4-0.8-2.2c-0.8-1.9-1.8-3.8-3.1-5.5c-0.4-0.5-0.9-1-1.5-1.3c-1.3-0.6-3.2,0.6-3.1,2.1c0,0,0,0.1,0,0.1c0.2,0.5,0.3,1.1,0.5,1.6c1.1,2.2,2.6,4.1,4.3,5.9c0.5,0.5,1.1,1,1.8,1.3C20.7,34.1,21.7,33.4,21.7,32.3z M23.6,31.3c0.8-1.2,1.9-2,3.1-2.9c-1.6-0.1-3.1-0.3-4.5-0.8C22.6,28.8,23.1,30,23.6,31.3z"/></svg>