<svg xmlns="http://www.w3.org/2000/svg"  viewBox="0 0 48 48" width="1600px" height="1600px"><path fill="#009688" d="M24,4C12.954,4,4,12.954,4,24c0,11.046,8.954,20,20,20s20-8.954,20-20C44,12.954,35.046,4,24,4z M24,40c-8.837,0-16-7.163-16-16S15.163,8,24,8s16,7.163,16,16S32.837,40,24,40z"/><path fill="#009688" d="M24 44h20l-8.281-4.688C40.119 35.913 21 41 24 44zM21 19c0 1.7-1.3 3-3 3s-3-1.3-3-3 1.3-3 3-3S21 17.3 21 19zM33 19c0 1.7-1.3 3-3 3s-3-1.3-3-3 1.3-3 3-3S33 17.3 33 19zM33 26c0 5-4 9-9 9s-9-4-9-9H33z"/></svg>