<svg xmlns="http://www.w3.org/2000/svg"  viewBox="0 0 48 48" width="1600px" height="1600px"><path fill="#37474f" d="M18.555,13.774c-0.871,0.422-1.467,1.043-1.877,1.97c0.984-0.49,1.914-0.869,2.794-1.117 c0.084-0.023,0.171-0.025,0.255-0.004c0.663,0.163,1.45,0.19,1.878,0.12c0.177-0.193,0.323-0.401,0.404-0.61 c0.032-0.082,0.049-0.171,0.067-0.258C20.739,13.7,19.573,13.552,18.555,13.774z"/><path fill="#37474f" d="M19.621,15.625c-1.026,0.301-2.125,0.778-3.326,1.441c-0.028,0.33-0.031,0.642-0.001,0.93 c0.706-0.393,1.434-0.717,2.181-0.928c0.083-0.023,0.171-0.025,0.255-0.004c0.48,0.117,1.218,0.045,1.726-0.083 c0.237-0.166,0.466-0.448,0.683-0.926c0.025-0.091,0.031-0.186,0.041-0.28C20.641,15.786,20.062,15.72,19.621,15.625z"/><path fill="#37474f" d="M18.629,18.064c-0.709,0.211-1.403,0.528-2.071,0.922c0.172,0.396,0.42,0.748,0.755,1.057 c0.249-0.336,0.461-0.677,0.587-0.92c0,0,1.449,0.073,1.876-0.131c0.12-0.057,0.525-0.525,0.538-0.915 c0.002-0.016-0.001-0.033,0.001-0.05C19.758,18.125,19.128,18.156,18.629,18.064z"/><path fill="#37474f" d="M29.847,32.281c-0.127,0.01-0.304,0.087-0.471,0.195c-0.056,0.025-0.103,0.066-0.147,0.113	c-0.111,0.09-0.213,0.187-0.27,0.286c-0.47,0.505-1.019,1.375-1.423,2.223c-0.418-0.984-0.506-1.245-0.769-2.345	c-0.158-0.384-1.002-0.579-1.294-0.074c-0.001,0.002,0.001,0.007,0,0.01c-0.048,0.065-0.084,0.148-0.102,0.252	c-0.344,1.891-0.448,3.679-0.241,5.351c0.001,0.455,0.35,0.379,1.007,0.335c0.398-0.027,0.053-1.276,0.053-1.487	c0-0.972,0.058-1.665,0.162-2.351c0.227,0.573,0.463,1.213,0.681,1.716c0.012,0.027,0.035,0.041,0.055,0.06	c0.049,0.113,0.148,0.216,0.346,0.296c0.278,0.113,0.4,0.097,0.722-0.585c0.272-0.575,0.5-0.978,0.727-1.319	c-0.063,1.164-0.034,2.286,0.132,3.352c0.016,0.459,0.579,0.432,1.232,0.353c0.183-0.114-0.091-1.016-0.109-1.228	c-0.141-1.723-0.014-2.867,0.234-4.319C30.904,32.674,30.155,32.256,29.847,32.281z"/><path fill="#37474f" d="M16.587,32.235c-0.648-0.116-1.255-0.155-1.29,0.67c-0.088,0.763-0.107,1.679-0.094,2.666	c-0.515-1.217-0.837-2.219-1.488-3.251c-0.021-0.033-0.045-0.048-0.067-0.077c-0.027-0.034-0.052-0.068-0.084-0.096	c-0.127-0.123-0.26-0.176-0.39-0.175c-0.368-0.049-0.756,0.164-0.753,0.671c-0.065,1.995-0.088,3.848-0.006,5.34	c0.002,0.455,0.313,0.477,0.969,0.419c0.186-0.107,0.178-0.447,0.166-0.706c-0.014-0.316,0.011-0.931,0-1.142	c-0.021-0.397,0.005-0.979,0.047-1.569c0.557,1.186,1.24,2.538,1.713,3.147c0.199,0.47,1.186,0.443,1.159-0.006	c-0.131-2.156-0.011-4.995,0.135-5.263C16.73,32.637,16.763,32.358,16.587,32.235z"/><path fill="#37474f" d="M5.322,32.459c0.021-0.168,0.136-0.286,0.16-0.453c0.034-0.51-1.393-0.799-1.393-0.102	c-0.058,0.847-0.078,1.81-0.076,2.841H2.397c0.015-0.923,0.068-1.771,0.201-2.574c0.026-0.159,0.17-0.343,0.201-0.492	c0.034-0.51-1.392-0.799-1.392-0.102c-0.075,0.969-0.097,2.039-0.087,3.168H1.287c-0.344,0.017-0.316,0.682-0.023,0.699	c0.021,0.003,0.042,0.006,0.063,0.009c0.01,0.5,0.025,1.01,0.046,1.531c0.001,0.455,0.29,0.483,0.946,0.425	c0.186-0.107,0.188-0.052,0.138-0.306c-0.034-0.175-0.05-0.523-0.055-0.734c-0.006-0.264-0.006-0.511-0.008-0.761	c0.599,0.082,1.161,0.164,1.629,0.304c0.008,0.457,0.018,0.923,0.032,1.4c0.001,0.455,0.283,0.605,0.911,0.408	c0.205-0.064,0.292-0.123,0.189-0.361c-0.121-0.28-0.088-0.442-0.086-0.653C5.086,35.182,5.144,33.88,5.322,32.459z"/><path fill="#37474f" d="M10.579,37.192c-0.034-0.147-0.067-0.283-0.1-0.422c0.306-0.122,0.364-0.719,0.08-0.802	c-0.091-0.039-0.199-0.067-0.298-0.101c-0.306-1.251-0.536-2.215-0.613-3.363c-0.068-0.298-0.156-0.496-0.251-0.621	c-0.028-0.043-0.063-0.072-0.1-0.102c-0.003-0.003-0.007-0.005-0.01-0.008c-0.032-0.025-0.06-0.059-0.097-0.072	c-0.246-0.085-0.675,0.347-0.802,0.642c-0.516,0.702-1.719,3.553-1.811,4.676c-0.046,0.565-0.201,0.819,0.47,0.94	c0.512,0.092,0.417-0.51,0.476-0.713c0.082-0.278,0.164-0.541,0.246-0.795c0.421-0.026,0.99,0.095,1.599,0.206	c0.119,0.497,0.227,0.925,0.303,1.188c0.127,0.436,0.452,0.449,1.087,0.276C11.081,38.033,10.627,37.398,10.579,37.192z M8.126,35.426c0.197-0.522,0.403-1,0.626-1.456c0.106,0.478,0.234,1.049,0.364,1.618C8.819,35.535,8.486,35.481,8.126,35.426z"/><path fill="#37474f" d="M20.489,32.871c-0.706-0.383-1.306-0.729-2.029-0.516c-0.438,0.129-0.48,0.669-0.049,0.934	l-0.032,4.984c0.001,0.409,0.317,0.441,0.855,0.402c0.567-0.006,1.078-0.161,1.46-0.441c0.832-0.61,1.575-1.27,1.685-2.304	C22.497,34.837,22.125,33.758,20.489,32.871z M20.421,36.997c-0.261,0.213-0.527,0.341-0.805,0.417l0.153-3.561	c0.102,0.052,0.196,0.091,0.307,0.153c0.444,0.364,0.957,0.73,1.1,1.41C21.307,36.034,20.88,36.621,20.421,36.997z"/><path fill="#37474f" d="M46.655,36.138c-0.798-0.094-1.604,0.107-2.452,0.322l0.136-1.166	c0.515-0.096,0.99-0.091,1.972-0.231c0.292-0.012,0.33-0.734-0.013-0.756c-0.641-0.141-1.211-0.178-1.829-0.123l0.205-1.757	c0.468-0.038,0.976-0.023,1.81-0.141c0.516,0.069,0.657-1.031,0.069-1.031c-0.851,0-1.481,0.037-2.342,0.307	c-0.179-0.001-0.356,0.059-0.476,0.183c-0.357,0.239-0.5,0.794-0.189,0.871l-0.161,1.757c-0.358,0.152-0.367,0.751-0.091,0.998	l-0.146,1.593c0.001,0.455-0.117,0.94,0.309,0.791c0.005-0.002,0.015-0.012,0.021-0.014c0.815-0.232,1.795-0.384,3.108-0.57	C47.102,37.238,47.239,36.206,46.655,36.138z"/><path fill="#37474f" d="M39.744,32.218c-0.706-0.383-1.306-0.729-2.029-0.516c-0.438,0.129-0.48,0.669-0.049,0.934	l-0.032,4.984c0.001,0.409,0.317,0.441,0.855,0.402c0.567-0.006,1.079-0.161,1.461-0.441c0.832-0.61,1.575-1.27,1.685-2.304	C41.751,34.184,41.379,33.105,39.744,32.218z M39.675,36.344c-0.319,0.261-0.646,0.387-0.993,0.452l0.307-3.614	c0.113,0.057,0.218,0.102,0.343,0.171c0.444,0.364,0.957,0.73,1.1,1.41C40.561,35.381,40.134,35.968,39.675,36.344z"/><path fill="#37474f" d="M28.755,13.774c-1.017-0.222-2.184-0.075-3.521,0.1c0.018,0.088,0.036,0.176,0.067,0.258	c0.08,0.209,0.226,0.417,0.403,0.61c0.428,0.071,1.216,0.043,1.879-0.119c0.084-0.021,0.171-0.019,0.255,0.004	c0.879,0.248,1.812,0.633,2.798,1.126C30.227,14.821,29.63,14.198,28.755,13.774z"/><path fill="#37474f" d="M36.479,30.037l-0.056-2.848c-1.026,0.332-1.969,0.49-2.843,0.466 c-1.053,0.123-1.734-0.055-2.678-0.302c-0.27-0.071-0.569-0.149-0.917-0.23c-0.679-0.159-1.826,0.519-2.663,1.012 c-0.442,0.261-0.859,0.507-1.22,0.652c-1.013,0.407-1.822-0.07-1.911-0.126c-0.606-0.454-0.938-1.002-1.004-1.618 c-0.079-0.727,0.209-1.477,0.855-2.229c0.481-0.56,1.363-1.012,2.48-1.586c1.19-0.611,2.672-1.372,3.935-2.44 c1.156-0.977,1.609-2.314,1.387-4.086c-0.438-1.867-1.31-3.042-2.81-3.735c-1.206-0.289-2.544-0.114-3.96,0.071l-0.234,0.03 c-0.758,0.101-1.433-0.353-1.714-1.151c-0.29-0.821-0.062-1.659,0.555-2.036c1.307-0.799,3.586-1.206,5.151-1.246l0.078-0.002 l0.076,0.017c2.87,0.622,8.249,2.888,10.885,5.524c3.826,3.825,5.34,10.522,6.146,15.226l-1.281,0.22 c-0.776-4.529-2.221-10.963-5.784-14.527c-2.404-2.404-7.498-4.558-10.165-5.155c-1.404,0.047-3.405,0.427-4.429,1.053 c-0.036,0.022-0.098,0.239-0.007,0.495c0.042,0.12,0.143,0.308,0.321,0.294l0.234-0.03c1.565-0.203,3.044-0.395,4.501-0.029 l0.108,0.038c2.511,1.132,3.261,3.234,3.606,4.716c0.29,2.278-0.329,4.042-1.825,5.307c-1.377,1.165-2.932,1.963-4.181,2.604 c-0.912,0.468-1.772,0.91-2.087,1.276c-0.397,0.462-0.587,0.892-0.549,1.243c0.027,0.252,0.177,0.482,0.444,0.685 c-0.009-0.01,0.122,0.061,0.342,0.06c0.104,0,0.225-0.017,0.354-0.068c0.268-0.107,0.644-0.329,1.042-0.564 c1.083-0.639,2.429-1.435,3.618-1.159c0.361,0.084,0.671,0.166,0.951,0.239c0.897,0.234,1.391,0.363,2.29,0.264 c1.036,0.018,2.081-0.208,3.292-0.694l0.873-0.349l0.092,4.696L36.479,30.037z"/><path fill="#37474f" d="M10.831,30.037l-1.3-0.025l0.092-4.696l0.873,0.349c1.212,0.485,2.267,0.718,3.207,0.69 c0.983,0.104,1.478-0.025,2.375-0.26c0.28-0.073,0.591-0.154,0.952-0.239c1.188-0.275,2.535,0.52,3.618,1.159 c0.398,0.235,0.774,0.457,1.042,0.564c0.404,0.162,0.737-0.019,0.74-0.021c0.223-0.171,0.373-0.402,0.4-0.655 c0.038-0.351-0.152-0.78-0.549-1.243c-0.315-0.366-1.176-0.809-2.087-1.276c-1.25-0.642-2.804-1.44-4.181-2.604 c-1.496-1.265-2.114-3.028-1.837-5.24c0.357-1.549,1.107-3.65,3.618-4.783l0.108-0.038c1.457-0.366,2.936-0.174,4.501,0.029 l0.233,0.03c0.185,0.017,0.279-0.175,0.322-0.295c0.09-0.255,0.028-0.472-0.008-0.495c-1.023-0.625-3.024-1.005-4.428-1.052 c-2.667,0.598-7.761,2.751-10.165,5.155C4.794,18.656,3.35,25.09,2.573,29.619l-1.281-0.22c0.807-4.704,2.321-11.401,6.146-15.226 c2.636-2.636,8.015-4.902,10.885-5.524l0.076-0.017l0.078,0.002c1.565,0.04,3.845,0.447,5.151,1.246 c0.617,0.377,0.845,1.215,0.556,2.036c-0.281,0.798-0.947,1.258-1.715,1.151l-0.234-0.03c-1.417-0.185-2.756-0.359-3.96-0.071 c-1.5,0.694-2.372,1.869-2.822,3.802c-0.21,1.706,0.243,3.042,1.399,4.02c1.263,1.068,2.745,1.829,3.935,2.44 c1.117,0.574,1.999,1.026,2.48,1.586c0.646,0.752,0.934,1.502,0.855,2.229c-0.067,0.616-0.398,1.164-0.958,1.585 c-0.136,0.088-0.944,0.563-1.958,0.158c-0.361-0.145-0.778-0.391-1.22-0.652c-0.837-0.494-1.982-1.171-2.663-1.012 c-0.349,0.081-0.647,0.159-0.918,0.23c-0.944,0.247-1.626,0.423-2.763,0.298c-0.813,0.027-1.734-0.13-2.757-0.462L10.831,30.037z"/><path fill="#37474f" d="M35.988,38.022c-0.105-0.13-0.204-0.261-0.266-0.463c-0.07-0.228-0.129-0.425-0.193-0.638	c0.002,0,0.004,0,0.006,0c0.452-0.006,0.448-0.811,0.107-0.852c-0.12-0.029-0.255-0.043-0.385-0.062	c-0.342-1.172-0.593-2.166-0.739-3.236c-0.089-0.292-0.19-0.485-0.294-0.603c-0.031-0.04-0.068-0.067-0.106-0.094	c-0.004-0.002-0.007-0.005-0.011-0.007c-0.034-0.022-0.064-0.055-0.102-0.065c-0.251-0.068-0.649,0.393-0.756,0.696	c-0.466,0.736-1.469,3.663-1.483,4.79c-0.007,0.567-0.143,0.831,0.534,0.905c0.517,0.056,0.38-0.538,0.426-0.744	c0.047-0.213,0.095-0.416,0.143-0.616c0.4-0.125,1.009-0.098,1.661-0.087c0.151,0.482,0.287,0.897,0.381,1.152	c0.157,0.427,0.488,0.434,1.103,0.2C36.163,38.144,36.151,38.224,35.988,38.022z M33.16,35.937c0.172-0.591,0.359-1.13,0.566-1.642	c0.143,0.483,0.316,1.063,0.49,1.637C33.9,35.929,33.544,35.931,33.16,35.937z"/><path fill="#37474f" d="M26.857,16.982c0.508,0.128,1.245,0.2,1.723,0.082c0.083-0.021,0.171-0.019,0.255,0.004	c0.748,0.211,1.476,0.534,2.18,0.934c0.031-0.289,0.028-0.603,0-0.936c-1.201-0.664-2.3-1.141-3.326-1.442	c-0.441,0.095-1.021,0.161-1.558,0.15c0.011,0.094,0.017,0.19,0.041,0.281C26.39,16.535,26.62,16.817,26.857,16.982z"/><path fill="#37474f" d="M27.534,18.992c0.427,0.204,1.876,0.131,1.876,0.131c0.126,0.244,0.338,0.584,0.587,0.92	c0.336-0.306,0.58-0.657,0.752-1.05c-0.667-0.397-1.359-0.717-2.068-0.928c-0.498,0.092-1.128,0.061-1.686-0.037	c0.001,0.016-0.001,0.033,0.001,0.049C27.009,18.466,27.414,18.935,27.534,18.992z"/></svg>