<svg xmlns="http://www.w3.org/2000/svg"  viewBox="0 0 48 48" width="1600px" height="1600px"><polygon fill="#fdd835" points="24,2.837 24.708,5.017 27,5.017 25.146,6.364 25.854,8.544 24,7.197 22.146,8.544 22.854,6.364 21,5.017 23.292,5.017"/><polygon fill="#fdd835" points="24,38.822 24.708,41.001 27,41.001 25.146,42.349 25.854,44.528 24,43.181 22.146,44.528 22.854,42.349 21,41.001 23.292,41.001"/><polygon fill="#fdd835" points="14.719,36.822 15.427,39.001 17.719,39.001 15.865,40.349 16.573,42.528 14.719,41.181 12.865,42.528 13.573,40.349 11.719,39.001 14.011,39.001"/><polygon fill="#fdd835" points="32.719,36.822 33.427,39.001 35.719,39.001 33.865,40.349 34.573,42.528 32.719,41.181 30.865,42.528 31.573,40.349 29.719,39.001 32.011,39.001"/><polygon fill="#fdd835" points="14.719,5.822 15.427,8.002 17.719,8.002 15.865,9.349 16.573,11.528 14.719,10.181 12.865,11.528 13.573,9.349 11.719,8.002 14.011,8.002"/><polygon fill="#fdd835" points="32.719,5.822 33.427,8.002 35.719,8.002 33.865,9.349 34.573,11.528 32.719,10.181 30.865,11.528 31.573,9.349 29.719,8.002 32.011,8.002"/><polygon fill="#fdd835" points="8,11.822 8.708,14.002 11,14.002 9.146,15.349 9.854,17.528 8,16.181 6.146,17.528 6.854,15.349 5,14.002 7.292,14.002"/><polygon fill="#fdd835" points="39,11.822 39.708,14.002 42,14.002 40.146,15.349 40.854,17.528 39,16.181 37.146,17.528 37.854,15.349 36,14.002 38.292,14.002"/><polygon fill="#fdd835" points="8,29.822 8.708,32.001 11,32.001 9.146,33.349 9.854,35.528 8,34.181 6.146,35.528 6.854,33.349 5,32.001 7.292,32.001"/><polygon fill="#fdd835" points="39,29.822 39.708,32.001 42,32.001 40.146,33.349 40.854,35.528 39,34.181 37.146,35.528 37.854,33.349 36,32.001 38.292,32.001"/><polygon fill="#fdd835" points="6,20.822 6.708,23.002 9,23.002 7.146,24.349 7.854,26.528 6,25.181 4.146,26.528 4.854,24.349 3,23.002 5.292,23.002"/><polygon fill="#fdd835" points="42,20.822 42.708,23.002 45,23.002 43.146,24.349 43.854,26.528 42,25.181 40.146,26.528 40.854,24.349 39,23.002 41.292,23.002"/><path fill="#64b5f6" d="M18.783,17.906c0,0.015-0.004,0.028-0.012,0.041c-0.008,0.012-0.023,0.021-0.045,0.029 c-0.021,0.007-0.05,0.014-0.086,0.018S18.559,18,18.504,18c-0.054,0-0.099-0.002-0.134-0.006s-0.064-0.011-0.085-0.018 c-0.021-0.007-0.036-0.017-0.044-0.029c-0.009-0.012-0.014-0.025-0.014-0.041v-2.354h-0.004l-0.838,2.352 c-0.006,0.019-0.016,0.035-0.029,0.048c-0.013,0.013-0.032,0.023-0.055,0.03s-0.053,0.012-0.088,0.015 C17.176,17.999,17.133,18,17.083,18c-0.051,0-0.094-0.001-0.13-0.005s-0.065-0.01-0.088-0.018c-0.023-0.008-0.041-0.018-0.055-0.03 c-0.013-0.012-0.022-0.026-0.027-0.042l-0.809-2.352h-0.004v2.354c0,0.015-0.004,0.028-0.012,0.041 c-0.008,0.012-0.023,0.021-0.046,0.029s-0.051,0.014-0.086,0.018S15.745,18,15.69,18c-0.054,0-0.098-0.002-0.134-0.006 c-0.036-0.004-0.064-0.011-0.086-0.018s-0.037-0.017-0.044-0.029c-0.008-0.012-0.013-0.025-0.013-0.041V15.33 c0-0.076,0.021-0.134,0.061-0.174c0.04-0.041,0.094-0.061,0.161-0.061h0.384c0.068,0,0.127,0.005,0.176,0.017 c0.049,0.011,0.092,0.03,0.127,0.056c0.036,0.026,0.066,0.06,0.089,0.103c0.024,0.042,0.045,0.095,0.063,0.158l0.625,1.723h0.009 l0.648-1.719c0.02-0.063,0.041-0.115,0.063-0.159c0.023-0.043,0.05-0.078,0.081-0.105c0.031-0.027,0.067-0.046,0.108-0.057 c0.042-0.011,0.09-0.017,0.146-0.017h0.396c0.04,0,0.075,0.005,0.104,0.016c0.029,0.01,0.053,0.026,0.071,0.046 s0.033,0.044,0.042,0.074c0.01,0.029,0.015,0.062,0.015,0.1V17.906z"/><path fill="#64b5f6" d="M21.782,17.768c0.018,0.054,0.029,0.096,0.034,0.127s-0.001,0.055-0.018,0.071 c-0.016,0.016-0.045,0.025-0.087,0.029C21.669,17.999,21.612,18,21.539,18c-0.076,0-0.135-0.001-0.177-0.003 c-0.042-0.002-0.075-0.007-0.098-0.014c-0.022-0.007-0.038-0.016-0.047-0.028c-0.009-0.012-0.016-0.028-0.022-0.047L21,17.328 h-1.086l-0.184,0.565c-0.006,0.021-0.014,0.038-0.023,0.052s-0.025,0.025-0.047,0.034s-0.052,0.014-0.091,0.017 C19.529,17.999,19.478,18,19.413,18c-0.068,0-0.122-0.002-0.161-0.006c-0.039-0.004-0.065-0.016-0.081-0.033 c-0.015-0.017-0.02-0.041-0.016-0.072s0.016-0.073,0.034-0.125l0.892-2.566c0.009-0.025,0.02-0.045,0.031-0.061 c0.012-0.016,0.031-0.028,0.057-0.036c0.026-0.008,0.062-0.013,0.108-0.016c0.046-0.002,0.107-0.003,0.183-0.003 c0.088,0,0.158,0.001,0.21,0.003c0.052,0.002,0.093,0.008,0.122,0.016c0.029,0.008,0.05,0.021,0.063,0.037s0.023,0.039,0.032,0.067 L21.782,17.768z M20.455,15.647h-0.002l-0.409,1.229h0.82L20.455,15.647z"/><path fill="#64b5f6" d="M24.59,16.498c0,0.266-0.035,0.492-0.104,0.681s-0.168,0.342-0.298,0.462 c-0.129,0.119-0.287,0.207-0.473,0.262c-0.186,0.056-0.406,0.084-0.663,0.084h-0.691c-0.049,0-0.09-0.015-0.124-0.043 c-0.033-0.029-0.05-0.077-0.05-0.142V15.28c0-0.065,0.017-0.113,0.05-0.142c0.034-0.029,0.075-0.043,0.124-0.043h0.742 c0.258,0,0.477,0.03,0.656,0.09c0.179,0.061,0.331,0.15,0.454,0.269c0.123,0.118,0.216,0.265,0.28,0.439S24.59,16.269,24.59,16.498 z M23.982,16.519c0-0.137-0.016-0.265-0.048-0.382c-0.032-0.118-0.083-0.22-0.154-0.306s-0.162-0.154-0.273-0.202 c-0.111-0.049-0.256-0.073-0.437-0.073h-0.297v1.967h0.306c0.161,0,0.296-0.021,0.407-0.063c0.11-0.042,0.202-0.105,0.276-0.189 s0.129-0.189,0.166-0.314S23.982,16.685,23.982,16.519z"/><path fill="#64b5f6" d="M26.787,17.757c0,0.043-0.002,0.079-0.005,0.108c-0.004,0.029-0.009,0.052-0.017,0.07 c-0.007,0.018-0.017,0.031-0.028,0.039s-0.023,0.012-0.037,0.012h-1.453c-0.049,0-0.09-0.015-0.124-0.043 c-0.033-0.029-0.05-0.077-0.05-0.142V15.28c0-0.065,0.017-0.113,0.05-0.142c0.034-0.029,0.075-0.043,0.124-0.043h1.444 c0.014,0,0.025,0.004,0.036,0.011c0.01,0.007,0.019,0.021,0.027,0.039c0.007,0.019,0.013,0.042,0.017,0.071 c0.003,0.029,0.005,0.066,0.005,0.111c0,0.042-0.002,0.077-0.005,0.106c-0.004,0.029-0.009,0.053-0.017,0.071 c-0.008,0.018-0.017,0.031-0.027,0.039c-0.011,0.008-0.022,0.012-0.036,0.012h-1.032v0.706h0.874c0.014,0,0.026,0.004,0.037,0.012 c0.011,0.008,0.021,0.021,0.028,0.038s0.013,0.041,0.017,0.069c0.004,0.029,0.006,0.064,0.006,0.106 c0,0.043-0.002,0.079-0.006,0.107c-0.003,0.028-0.009,0.051-0.017,0.068s-0.017,0.029-0.028,0.037 c-0.011,0.008-0.023,0.011-0.037,0.011h-0.874v0.816H26.7c0.013,0,0.025,0.004,0.037,0.012c0.011,0.008,0.021,0.021,0.028,0.039 c0.008,0.018,0.013,0.042,0.017,0.071C26.785,17.677,26.787,17.713,26.787,17.757z"/><path fill="#64b5f6" d="M28.93,17.906c0,0.015-0.005,0.028-0.015,0.041c-0.01,0.012-0.026,0.021-0.048,0.029 c-0.022,0.007-0.052,0.014-0.089,0.018C28.741,17.998,28.693,18,28.635,18c-0.057,0-0.104-0.002-0.142-0.006 s-0.068-0.011-0.09-0.018c-0.022-0.007-0.039-0.017-0.048-0.029c-0.01-0.012-0.015-0.025-0.015-0.041v-2.731 c0-0.015,0.005-0.028,0.015-0.041c0.01-0.012,0.026-0.021,0.049-0.029s0.053-0.014,0.09-0.018s0.084-0.007,0.141-0.007 c0.058,0,0.105,0.002,0.143,0.007c0.037,0.004,0.067,0.011,0.089,0.018c0.022,0.007,0.038,0.017,0.048,0.029 c0.01,0.012,0.015,0.025,0.015,0.041V17.906z"/><path fill="#64b5f6" d="M31.945,17.781c0,0.034-0.006,0.065-0.018,0.092c-0.012,0.026-0.028,0.049-0.048,0.067 c-0.02,0.018-0.044,0.031-0.071,0.039c-0.028,0.008-0.056,0.012-0.084,0.012h-0.25c-0.052,0-0.098-0.005-0.135-0.016 c-0.038-0.01-0.073-0.029-0.105-0.057c-0.032-0.027-0.063-0.064-0.093-0.111c-0.03-0.047-0.063-0.108-0.101-0.183l-0.72-1.352 c-0.042-0.081-0.084-0.167-0.127-0.26c-0.043-0.093-0.082-0.184-0.116-0.271h-0.004c0.006,0.107,0.01,0.214,0.013,0.321 c0.003,0.106,0.004,0.216,0.004,0.33v1.513c0,0.015-0.004,0.028-0.012,0.04s-0.022,0.022-0.042,0.03s-0.047,0.015-0.082,0.019 S29.875,18,29.822,18c-0.052,0-0.095-0.002-0.13-0.006c-0.034-0.004-0.061-0.011-0.08-0.019c-0.02-0.008-0.033-0.019-0.041-0.03 c-0.007-0.012-0.011-0.025-0.011-0.04v-2.6c0-0.07,0.021-0.123,0.062-0.158c0.041-0.035,0.091-0.052,0.151-0.052h0.315 c0.057,0,0.104,0.005,0.143,0.015c0.039,0.01,0.073,0.025,0.104,0.048c0.031,0.022,0.06,0.053,0.086,0.093s0.054,0.088,0.083,0.146 l0.563,1.057c0.033,0.064,0.065,0.127,0.097,0.189c0.032,0.062,0.063,0.124,0.093,0.186c0.03,0.062,0.059,0.123,0.087,0.182 s0.056,0.119,0.083,0.179h0.002c-0.004-0.104-0.008-0.213-0.01-0.326c-0.002-0.113-0.003-0.222-0.003-0.324v-1.357 c0-0.015,0.004-0.028,0.013-0.04c0.009-0.012,0.024-0.022,0.045-0.031c0.021-0.009,0.048-0.015,0.083-0.019 s0.078-0.005,0.132-0.005c0.051,0,0.093,0.001,0.127,0.005s0.061,0.01,0.079,0.019c0.019,0.009,0.032,0.02,0.04,0.031 c0.007,0.012,0.011,0.025,0.011,0.04V17.781z"/><g><path fill="#1565c0" d="M21.447,31.777c0,0.188-0.008,0.345-0.024,0.471c-0.016,0.126-0.04,0.229-0.072,0.306 c-0.033,0.078-0.073,0.134-0.122,0.17c-0.048,0.036-0.102,0.053-0.16,0.053h-6.312c-0.213,0-0.393-0.063-0.538-0.189 C14.073,32.461,14,32.256,14,31.971V21.019c0-0.285,0.073-0.491,0.219-0.617c0.146-0.126,0.325-0.189,0.538-0.189h6.273 c0.058,0,0.109,0.016,0.155,0.048c0.045,0.033,0.084,0.089,0.116,0.17c0.032,0.081,0.057,0.185,0.072,0.311 c0.017,0.126,0.024,0.286,0.024,0.48c0,0.181-0.008,0.335-0.024,0.461c-0.016,0.126-0.04,0.228-0.072,0.306 s-0.071,0.134-0.116,0.17c-0.046,0.036-0.098,0.053-0.155,0.053h-4.486v3.068h3.797c0.058,0,0.111,0.018,0.16,0.054 c0.048,0.036,0.089,0.09,0.121,0.165c0.032,0.074,0.057,0.175,0.072,0.301c0.017,0.126,0.024,0.28,0.024,0.461 c0,0.188-0.008,0.343-0.024,0.466c-0.016,0.123-0.04,0.222-0.072,0.296s-0.073,0.128-0.121,0.16 c-0.049,0.032-0.103,0.048-0.16,0.048h-3.797v3.544h4.524c0.059,0,0.112,0.018,0.16,0.053c0.049,0.036,0.089,0.092,0.122,0.17 c0.032,0.078,0.057,0.18,0.072,0.306C21.439,31.432,21.447,31.589,21.447,31.777z"/><path fill="#1565c0" d="M33.954,28.097c0,0.771-0.114,1.46-0.34,2.068c-0.228,0.608-0.561,1.123-1.001,1.544 c-0.439,0.421-0.983,0.741-1.631,0.961C30.335,32.89,29.591,33,28.749,33c-0.79,0-1.498-0.099-2.126-0.296 s-1.159-0.497-1.593-0.898c-0.434-0.401-0.766-0.901-0.995-1.5s-0.345-1.299-0.345-2.102v-7.642c0-0.064,0.02-0.123,0.059-0.175 c0.038-0.052,0.108-0.094,0.208-0.126c0.101-0.032,0.231-0.058,0.394-0.078c0.162-0.019,0.369-0.029,0.621-0.029 c0.246,0,0.45,0.01,0.612,0.029c0.161,0.02,0.291,0.045,0.389,0.078c0.097,0.033,0.166,0.075,0.208,0.126s0.063,0.11,0.063,0.175 v7.418c0,0.499,0.062,0.93,0.185,1.296s0.299,0.668,0.529,0.908c0.229,0.239,0.505,0.419,0.825,0.539 c0.32,0.12,0.678,0.18,1.073,0.18c0.4,0,0.76-0.062,1.077-0.185c0.317-0.123,0.586-0.302,0.806-0.539 c0.221-0.236,0.391-0.528,0.51-0.874c0.12-0.346,0.18-0.74,0.18-1.18v-7.564c0-0.064,0.02-0.123,0.059-0.175 s0.106-0.094,0.204-0.126c0.097-0.032,0.229-0.058,0.394-0.078c0.165-0.019,0.37-0.029,0.616-0.029s0.448,0.01,0.606,0.029 c0.159,0.02,0.287,0.045,0.384,0.078c0.098,0.033,0.165,0.075,0.204,0.126s0.059,0.11,0.059,0.175V28.097z"/></g></svg>