<svg xmlns="http://www.w3.org/2000/svg"  viewBox="0 0 48 48" width="1600px" height="1600px"><path fill="#7CB342" d="M22.3,9.7c-4.9,0-7.4,0.8-7.4,0.8s2.6,0.5,4.4,1.3C12.5,12.7,9.2,17,9.2,17s2.5-0.5,3.4-0.3C10.2,18,9.1,20,9.1,20s1.8-0.8,2.5-0.9c-1.3,2.3-1.6,6-1.6,6s-0.3,3.9,0.1,4.8c0.8,0.2,3.2-2.5,4.2-2.6c4.6,0,19.4,0,19.4,0h1c0,0,2.3,3.9,3.4,3.5c0.6-0.9,0.1-5.8,0.1-5.8S38.7,9.7,22.3,9.7z"/><path fill="#689F38" d="M20.9,8.9c0,0,1.1-2.9,4.4-2.9c5,0,5.1,4.8,5.1,4.8s-2.2-2.9-5.8-2.9C22.6,7.8,20.9,8.9,20.9,8.9z M24,25c3.9,0,7-3.1,7-7s-3.1-7-7-7s-7,3.1-7,7S20.2,25,24,25z"/><path fill="#FFF" d="M24 11A6 6 0 1 0 24 23A6 6 0 1 0 24 11Z"/><path fill="#0091EA" d="M24,15c-0.4,0-0.8,0.1-1.2,0.2c0.7,0.3,1.2,1,1.2,1.8c0,1.1-0.9,2-2,2c-0.8,0-1.5-0.5-1.8-1.2C20.1,18.2,20,18.6,20,19c0,2.2,1.8,4,4,4s4-1.8,4-4S26.2,15,24,15z"/><path fill="#558B2F" d="M34,24H14c-0.5,0-1,0.4-1,1v2c4.6-0.9,13.5-0.7,22,0v-2C35,24.4,34.6,24,34,24z M17.7,27.7c0,0.4-0.1,1.3-0.1,1.4s-0.1,0.5-0.4,0.5S15,29,15,26.3c0-0.5,0.1-1.1,0.1-1.1l2.4-0.1H18C17.9,25.1,17.8,27.3,17.7,27.7z M23.5,28.6c0,0.5,0.2,0.8-2.2,0.8c-2.5,0-2.5-0.1-2.5-2s0.2-2.3,0.2-2.3h4.4c0,0.3,0.1,1.3,0.1,2.4S23.5,27.6,23.5,28.6z M28.9,27.7c0,0.3-0.1,0.7-0.8,0.7c-0.9,0-0.7,0.1-1.3,0.1s-2.1,0-2.2-0.8s-0.2-2.4-0.2-2.7h4.4c0,0.2,0.1,0.9,0.1,1.6C28.9,27,28.9,27.5,28.9,27.7z M30.9,29.7c-0.5,0-0.5-1.9-0.6-2.8c-0.1-0.8-0.2-1.7-0.3-1.9h1.5c0.7,0,1.3,0.1,1.4,0.1C32.9,26,32.4,29.7,30.9,29.7z"/><path fill="#FFF" d="M24 26L9.6 27 9.6 41 24 41.5z"/><path fill="#CFD8DC" d="M24 26L38.5 27 38.5 41 24 41.5z"/><path fill="#90A4AE" d="M9.1,32.1h1.1v5.5L9.1,35V32.1z M38,32.1v6.3l1.1-3.4v-2.9C39.1,32.1,38,32.1,38,32.1z M32.1,33.5c-1.3,1-2.6,1.8-3.9,2.5c1.5,0.5,7.5,2.6,9.8,4.3c0.1,1.3-0.7,1.4-0.7,1.4S28,42,23.9,42s-13-0.3-13-0.3l-0.5-1.4c0,0,5-3,9.3-4.4c-1.5-0.8-2.9-1.7-3.7-2.4c-1.5-1.3-4.4-4.1-4.4-4.1l-0.1-1.7c0,0,2.6,2.8,5.1,4.9s6.9,3.9,7.3,4c4.2-1.2,7-3.5,8.6-4.8c1.6-1.4,4.4-4.1,4.4-4.1l0.5,1C37.3,28.7,34.4,31.7,32.1,33.5z M27.1,36.5c-1.2,0.6-2.3,1-3.3,1.3c-0.6-0.1-1.7-0.6-2.9-1.2c-1.1,0.4-6,2.3-8.5,4c0,0,6.6,0.3,11.7,0.3s11.8-0.2,11.8-0.2s-2.8-1.7-4.2-2.3C30.6,37.8,28.1,36.8,27.1,36.5z M38.1,26.3c0,0-4.9-0.3-5.1-0.3s0.5,1,0.5,1s1.8,0.2,2.6,0.2C38,27.2,38.1,26.3,38.1,26.3z M14.5,27l-0.4-1l-4.9,0.4l2.6,0.9L14.5,27z"/><path fill="#FFF9C4" d="M43,19.7c0,2.7-0.5,5.1-4.9,5.2c0-0.8-0.1-3.8-1.5-7c0.3,0,0.7,0.1,1,0c1.1-0.1,1.5-0.1,1.6-1.2c0.1-1.2,0.3-1.8,1.3-1.8C41.6,15,43,17.4,43,19.7z M11.6,19.1C10.9,19.3,9.1,20,9.1,20s0.5-0.9,1.6-2c-0.1,0-0.2,0-0.3,0c-1.1-0.1-1.5-0.1-1.6-1.2S8.5,15,7.5,15s-2.4,2.4-2.4,4.7c0,2.7,0.5,5.1,4.9,5.3C10.1,24.2,10.4,21.1,11.6,19.1z M14.1,25c-0.1,0.4,0,1,0.2,2.4c0.5,2.2,2.3,3.1,3,3.1c0.8,0,0.9-0.7,0.9-1.2c0.5,0.8,1.9,0.9,2.8,0.9c3.5,0,3.4-0.8,3.5-1.2c0,0,0.6,0.3,2.1,0.3c3,0,3.1-0.7,3.1-0.7s0.3,2,1.2,2c1.9,0,2.7-3.2,2.7-3.2L34,25H14.1z"/><path fill="#263238" d="M24,17c0,1.1-0.9,2-2,2c0,1.1,0.9,2,2,2s2-0.9,2-2S25.1,17,24,17z"/><path fill="#8BC34A" d="M3.2,38C3.1,38.3,3,38.7,3,39c0,1.9,2.8,5,5.7,5c0.4,0,3.3-0.5,3.3-3.4c0-3.5-2.1-6.6-3.4-6.6C8.4,34,5,34,3.2,38z M39.4,34c-1.3,0-3.4,3.2-3.4,6.6c0,2.9,2.9,3.4,3.3,3.4c2.9,0,5.7-3.1,5.7-5c0-0.3-0.1-0.6-0.2-1C43.1,34,39.7,34,39.4,34z M6.4,26.3c0,0-2.5,0.7-2.5,2.9c0,2.6,2.7,3.8,4.2,3.8c1.4,0,1.8-0.8,1.8-0.8s2.1-3,0.7-5.5c-0.4-0.8-1.2-0.9-1.9-0.9C7.6,25.9,6.4,26.3,6.4,26.3z M39.1,25.9c-0.7,0-1.4,0.1-1.9,0.9c-1.4,2.5,0.7,5.5,0.7,5.5s0.5,0.8,1.8,0.8c1.5,0,4.2-1.2,4.2-3.8c0-2.2-2.5-2.9-2.5-2.9S40.3,25.9,39.1,25.9z"/><path fill="#689F38" d="M4.3,40.4c0-1.9,2.3-4,4.2-4c1.8,0,2.8,3.6,2.8,4.5c0,1.6-1.6,2.5-2.8,2.5C6.9,43.4,4.3,41.2,4.3,40.4z M39.6,43.4c-1.1,0-2.8-0.9-2.8-2.5c0-0.8,1-4.5,2.8-4.5c1.9,0,4.2,2.1,4.2,4C43.8,41.2,41.2,43.4,39.6,43.4z"/><path fill="#1B5E20" d="M6.7,33.5c-0.5,0.2-0.4,1.1-0.2,1.7c0.1,0.4,0.5,0.6,0.9,0.5l0.5-0.1c0.4-0.1,0.6-0.6,0.4-0.9C7.8,34,7.2,33.3,6.7,33.5z M4.2,35.1c-0.4,0.3,0,1,0.3,1.5C4.7,37,5.1,37,5.4,36.8l0.4-0.3c0.3-0.2,0.4-0.7,0-0.9C5.3,35.3,4.6,34.8,4.2,35.1z M3.1,37.4c-0.2,0.3,0.1,0.8,0.5,1.1c0.2,0.2,0.5,0.2,0.7,0l0.2-0.3c0.2-0.2,0.2-0.6-0.1-0.7C4,37.3,3.3,37.1,3.1,37.4z M39.8,34.6c-0.2,0.3-0.1,0.8,0.4,0.9l0.5,0.1c0.4,0.1,0.8-0.1,0.9-0.5c0.2-0.6,0.3-1.5-0.2-1.7C40.9,33.3,40.2,34,39.8,34.6z M42.2,35.6c-0.3,0.2-0.3,0.7,0,0.9l0.4,0.3c0.3,0.2,0.7,0.1,0.9-0.1c0.3-0.5,0.7-1.2,0.3-1.5C43.5,34.8,42.8,35.3,42.2,35.6z M43.6,37.5c-0.3,0.1-0.3,0.5-0.1,0.7l0.2,0.3c0.2,0.2,0.5,0.2,0.7,0c0.3-0.3,0.7-0.8,0.5-1.1C44.7,37.1,44.1,37.3,43.6,37.5z M10.9,32.4c-0.2,0.3-0.8,0.2-1.2,0.1c0,0,0,0,0,0c0.2-0.2,0.3-0.3,0.3-0.3s0.2-0.3,0.4-0.8C10.7,31.8,11.1,32.1,10.9,32.4z M6.9,26.2C7,26,7.1,25.8,7.1,25.8c0.4-0.6,1-1.3,1.5-1.1C9,24.8,9,25.3,9,25.9c0,0-0.1,0-0.1,0C8.1,25.9,7.4,26,6.9,26.2z M12.4,30.4c-0.1,0.5-0.9,0.5-1.5,0.4c-0.1,0-0.1,0-0.2-0.1c0.2-0.5,0.3-1,0.4-1.6c0,0,0.1,0,0.1,0C11.8,29.5,12.5,30,12.4,30.4z M39,25.9c-0.1-0.5,0-1,0.3-1.2c0.5-0.2,1.1,0.5,1.5,1.1c0.1,0.1,0.1,0.2,0.2,0.4C40.7,26.1,39.9,25.9,39,25.9C39.1,25.9,39,25.9,39,25.9z M12.7,27.4c0.1,0.5-0.8,0.8-1.4,1c-0.1,0-0.1,0-0.2,0c0-0.6-0.2-1.1-0.4-1.7c0,0,0,0,0-0.1c0.1-0.1,0.3-0.2,0.4-0.1C11.8,26.7,12.7,26.9,12.7,27.4z M37,30.9c-0.6,0.1-1.4,0-1.5-0.4c-0.1-0.5,0.6-0.9,1.2-1.2c0,0,0.1,0,0.1,0c0.1,0.6,0.2,1.2,0.4,1.6C37.1,30.9,37.1,30.9,37,30.9z M38.2,32.5C38.2,32.5,38.2,32.5,38.2,32.5c-0.5,0.1-1.1,0.3-1.2-0.1c-0.1-0.3,0.2-0.7,0.5-1c0.2,0.5,0.4,0.8,0.4,0.8S38,32.4,38.2,32.5z M36.6,28.4c-0.6-0.2-1.5-0.5-1.4-1c0.1-0.5,1-0.8,1.7-0.9c0.2,0,0.3,0,0.4,0.1c0,0,0,0,0,0.1c-0.3,0.5-0.4,1.1-0.4,1.7C36.7,28.4,36.6,28.4,36.6,28.4z"/><path fill="#9E9D24" d="M8.8 23.9c0 0-2.1-.3-2.5-1.5.1-1.9.8-3.5 2.3-4 .2.2.4.4 1.1.4 0 0-.3.4-.5 1.1.2-.3.7-1 1.5-1.9-.1 0-.2 0-.3 0-1.1-.1-1.5-.1-1.6-1.2C8.7 15.7 8.5 15 7.5 15s-2.4 2.4-2.4 4.7c0 2.7.5 5.1 4.9 5.3 0-.2 0-.5.1-.9L9.3 24c0 0-.2-.7-.2-2.1 0-.8.3-1.6.7-2.2C9.5 19.9 9.2 20 9.1 20c-.2.6-.4 1.3-.4 2.1C8.7 23.9 8.8 23.9 8.8 23.9zM5.9 20.8c-.1-3.9 1.4-4.6 1.8-4.6.4 0 .3.7.4 1 0 .2.2.6.2.6C6.6 18.7 6.2 20.2 5.9 20.8zM40.6 15c-1 0-1.2.7-1.3 1.8-.1 1.2-.5 1.1-1.6 1.2-.3 0-.7 0-1 0 .1.3.3.6.4.9h.7c0 0 1.2 1.5 1.2 3S38.8 24 38.8 24h-.7c0 .4 0 .7 0 .9 4.4-.2 4.9-2.6 4.9-5.2C43 17.4 41.6 15 40.6 15zM39.4 23.9c0 0 .1 0 .1-1.8 0-1.8-1-3.3-1-3.3.7-.1.9-.3 1.1-.4 1.5.5 2.1 2.1 2.3 4C41.3 23.6 39.4 23.9 39.4 23.9zM39.8 17.7c.1.1.2-.3.2-.6 0-.2 0-1 .4-1 .4 0 1.8.7 1.8 4.6C41.9 20.2 41.6 18.6 39.8 17.7zM31 29.4c-.5 0-.5-2-.6-2.8-.1-.6-.2-1.2-.3-1.6H29c0 .3.1.8.1 1.3 0 .5 0 .9 0 1.2 0 .4-.1.7-.8.7-.9 0-.7.1-1.3.1s-2.1 0-2.2-.8c-.1-.7-.2-2-.2-2.5h-1.1c0 .4.1 1.3.1 2.2 0 1.2 0 .2-.1 1.2-.1.5.2.8-2.2.8-2.5 0-2.5-.1-2.5-2 0-1.4.1-2 .2-2.2h-1c0 .4-.2 2.2-.2 2.6 0 .5-.1 1.3-.1 1.4s-.1.5-.4.5c-.4 0-2.2-.6-2.2-3.3 0-.3 0-.9.1-1.2H15h-.9c-.1.4 0 1 .2 2.4.4 2.2 2.3 3.1 3 3.1s.8-.8.9-1.2c.5.8 1.9.9 2.8.9 3.5 0 3.4-.8 3.5-1.2 0 0 .6.3 2.1.3 3 0 3.1-.7 3.1-.7s.3 2 1.2 2c1.9 0 2.7-3.2 2.7-3.2L34 25h-1.1C32.9 26.1 32.4 29.7 31 29.4zM11.4 19.5c0-.1.1-.2.2-.4h-.1L11.4 19.5z"/><path fill="#9E9D24" d="M9.1,20C9.1,20,9.1,20,9.1,20c0.1-0.1,0.1-0.1,0.1-0.1C9.1,19.9,9.1,20,9.1,20z"/></svg>