<svg xmlns="http://www.w3.org/2000/svg"  viewBox="0 0 48 48" width="1600px" height="1600px"><path fill="#1976D2" d="M46,30.5c0-3.9-2.6-7.1-6.1-8.1C40,21.9,40,21.5,40,21c0-6.6-5.4-12-12-12c-4.9,0-9.2,3-11,7.2C16,15.5,14.8,15,13.5,15c-3,0-5.5,2.5-5.5,5.5c0,0.6,0.1,1.2,0.3,1.8c-3.6,1-6.3,4.3-6.3,8.2c0,4.7,3.8,8.5,8.5,8.5c0.1,0,0.2,0,0.3,0c0.1,0,0.1,0,0.2,0h27c0.2,0,0.5,0,0.7-0.1C42.8,38.3,46,34.8,46,30.5z"/><path fill="#FFF" d="M30,34V19c0-0.5,0.5-1,1-1h2c0.5,0,1,0.5,1,1v15c0,0.5-0.5,1-1,1h-2C30.5,35,30,34.5,30,34z M19,35h2c0.5,0,1-0.5,1-1v-9c0-0.5-0.5-1-1-1h-2c-0.5,0-1,0.5-1,1v9C18,34.5,18.5,35,19,35z M13,35h2c0.6,0,1-0.5,1-1v-7c0-0.5-0.4-1-1-1h-2c-0.6,0-1,0.5-1,1v7C12,34.5,12.4,35,13,35z M25,35h2c0.5,0,1-0.5,1-1V22c0-0.5-0.5-1-1-1h-2c-0.5,0-1,0.5-1,1v12C24,34.5,24.5,35,25,35z"/></svg>