<svg xmlns="http://www.w3.org/2000/svg"  viewBox="0 0 48 48" width="1600px" height="1600px" baseProfile="basic"><path fill="#e30613" d="M9,18C9,9.708,15.708,3,24,3s15,6.708,15,15s-6.708,15-15,15	C15.708,33.047,9,26.292,9,18z M24,28.016c5.543,0,10.016-4.472,10.016-10.016S29.543,7.984,24,7.984S13.984,12.457,13.984,18	S18.457,28.016,24,28.016z M28.984,18c0,2.748-2.236,4.984-4.984,4.984S19.016,20.748,19.016,18s2.236-4.984,4.984-4.984	S28.984,15.252,28.984,18z"/><path fill="#e30613" d="M11.624,35.347v1.765h1.161v1.068h-1.161v2.926c0,0.557,0.139,0.697,0.697,0.697	c0.186,0,0.325,0,0.511-0.046v1.254c-0.325,0.046-0.65,0.046-0.975,0.046c-1.207,0-1.858-0.372-1.858-1.44v-3.437H9.023v-1.068	h0.975v-1.765L11.624,35.347z M18.636,41.477c0,0.372,0.046,0.464,0.418,0.464h0.046v1.068c-0.186,0.093-0.418,0.139-0.65,0.139	c-0.743,0-1.115-0.232-1.254-0.743c-0.372,0.464-1.068,0.789-2.043,0.789c-1.207,0-1.997-0.604-1.997-1.765	c-0.046-0.464,0.139-0.929,0.511-1.254c0.372-0.325,0.929-0.464,1.904-0.604c1.068-0.139,1.486-0.186,1.486-0.743	c0-0.65-0.464-0.789-1.022-0.789c-0.65,0-1.022,0.279-1.068,0.882h-1.625c0.046-1.3,1.115-1.95,2.74-1.95	c1.718,0,2.554,0.557,2.554,1.672L18.636,41.477z M15.711,42.08c0.882,0,1.3-0.464,1.3-1.347V40.13	c-0.139,0.139-0.418,0.232-0.975,0.279c-0.836,0.093-1.3,0.279-1.3,0.929C14.735,41.802,15.014,42.08,15.711,42.08L15.711,42.08z M23.28,37.018v1.486c-0.186-0.046-0.372-0.046-0.557-0.046c-1.161,0-1.579,0.789-1.579,1.904v2.647h-1.625v-5.898h1.533v1.068	c0.325-0.743,1.068-1.254,1.858-1.254C23.048,36.972,23.141,36.972,23.28,37.018L23.28,37.018z M27.553,37.901v-0.789h1.533v5.526	c0,1.533-0.882,2.601-3.019,2.601c-1.347,0-2.508-0.697-2.601-1.904h1.625c0.139,0.557,0.557,0.789,1.207,0.789	c0.836,0,1.3-0.511,1.3-1.44v-0.789c-0.372,0.604-1.068,0.975-1.765,0.929c-1.672,0-2.508-1.207-2.508-2.972	c0-1.486,0.882-2.926,2.508-2.926C26.485,36.926,27.181,37.297,27.553,37.901L27.553,37.901z M26.16,41.616	c0.882,0,1.393-0.697,1.393-1.625c0-0.836-0.232-1.811-1.393-1.811c-0.836,0-1.3,0.697-1.3,1.672	C24.859,40.826,25.231,41.616,26.16,41.616z M35.401,40.176v0.325h-4.226c0.046,1.022,0.511,1.486,1.44,1.486	c0.604,0,1.161-0.372,1.3-0.743h1.44c-0.418,1.347-1.347,1.997-2.74,1.997c-1.858,0-3.019-1.3-3.019-3.065	c0-1.811,1.207-3.111,3.019-3.111C34.379,36.972,35.401,38.412,35.401,40.176L35.401,40.176z M33.776,39.433	c-0.139-0.882-0.557-1.254-1.3-1.254c-0.697-0.046-1.3,0.464-1.347,1.161v0.093H33.776z M37.816,35.347v1.765h1.161v1.068h-1.161	v2.926c0,0.557,0.139,0.697,0.697,0.697c0.186,0,0.325,0,0.511-0.046v1.254c-0.325,0.046-0.65,0.046-0.975,0.046	c-1.207,0-1.858-0.372-1.858-1.44v-3.437h-0.975v-1.068h0.975v-1.765L37.816,35.347z"/></svg>