<svg xmlns="http://www.w3.org/2000/svg"  viewBox="0 0 48 48" width="1600px" height="1600px"><path fill="#ffc107" d="M44,24c0,11.044-8.956,20-20,20S4,35.044,4,24S12.956,4,24,4S44,12.956,44,24z"/><path fill="#fff8e1" d="M17,34V14h8.199c2.41,0,4.234,0.465,5.48,1.395s1.867,2.293,1.867,4.086c0,0.98-0.25,1.844-0.746,2.59c-0.5,0.746-1.195,1.293-2.086,1.641c1.016,0.258,1.816,0.773,2.402,1.555C32.703,26.043,33,26.992,33,28.121c0,1.922-0.609,3.379-1.828,4.367S28.219,33.98,25.965,34H17z M21,22h4.363c2.063-0.035,3.098-0.824,3.098-2.445c0-0.906-0.262-1.559-0.785-1.957S26.328,17,25.199,17H21V22z M21,25v6h4.844C26.805,31,29,30.531,29,28.391S27.883,25.027,26,25H21z"/><path fill="#fff8e1" d="M20 11h3v5h-3V11zM25 11h3v5h-3V11zM20 32h3v5h-3V32zM25 32h3v5h-3V32z"/></svg>