<svg xmlns="http://www.w3.org/2000/svg"  viewBox="0 0 48 48" width="1600px" height="1600px"><path fill="#80deea" d="M44,24c0,6.98-3.57,13.13-9,16.7c-0.64,0.43-1.31,0.81-2,1.16C30.3,43.23,27.24,44,24,44 c-2.74,0-5.35-0.55-7.73-1.55c-0.62-0.26-1.23-0.55-1.81-0.88C8.23,38.19,4,31.59,4,24C4,12.95,12.95,4,24,4S44,12.95,44,24z"/><path fill="#00838f" d="M24 6A18 18 0 1 0 24 42A18 18 0 1 0 24 6Z"/><path fill="#fff" d="M25,35h-2.38C19,35,19,33.82,19,33.38c0-0.74,0.36-1.28,0.8-1.65c0.16-0.1,0.33-0.2,0.49-0.29 C21.28,31.8,22.36,32,23.5,32c4.69,0,8.5-3.36,8.5-7.5c0-1.26-0.36-2.45-0.98-3.5h3.83L36,18.01h-0.35c-0.49,0.63-1.24,1-2.04,1 h-3.73c0.53-0.59,1.06-1.17,1.21-1.34c0.32-0.34,0.67-0.72,1.06-1.15c1.05-1.13,2.85-2.9,2.85-4.9c0-1.74-0.88-2.5-1.74-3.06 C32.76,8.24,32.25,8,31.38,8C29,8,28,10,28,12h0.5c0-0.5,0.5-2.5,2.62-2.5c1.5,0,2.26,1.12,2.26,2.29c0,1.46-0.88,2.86-1.88,3.98 c-0.76,0.86-1.49,1.61-1.97,2.11c-0.35,0.37-0.58,0.6-0.74,0.76C27.34,17.62,25.5,17,23.5,17c-4.69,0-8.5,3.36-8.5,7.5 c0,2.37,1.25,4.48,3.2,5.86C16.67,31.37,15,32.94,15,35c0,1.39,0.7,2.3,1.85,2.89c-0.89,0.94-1.85,2.21-2.39,3.68 c0.58,0.33,1.19,0.62,1.81,0.88c0.53-1.63,1.79-3.01,2.72-3.86C20.73,38.94,22.85,39,25,39c6.82,0,7.94,1.35,8,2.86 c0.69-0.35,1.36-0.73,2-1.16V40C35,35.59,29.94,35,25,35z M22.91,19.02c0.37-0.04,0.74-0.02,1.09,0.04 c2.01,0.38,3.68,2.38,3.96,4.96c0.03,0.29,0.04,0.57,0.04,0.86c-0.05,2.65-1.68,4.86-3.91,5.1C23.72,30.02,23.35,30,23,29.94 c-2.01-0.38-3.68-2.38-3.96-4.96C19,24.65,18.99,24.32,19,24C19.1,21.4,20.72,19.26,22.91,19.02z"/></svg>