<svg xmlns="http://www.w3.org/2000/svg"  viewBox="0 0 48 48" width="1600px" height="1600px" baseProfile="basic"><circle cx="24" cy="24" r="20" fill="#1565c0"/><path fill="#fff" d="M12,27h7c0,1.491,0.515,2,2,2h7c0.84,0,2.157-0.287,2.707-1.316l6.178-1.798L37,27.564	c-1.074,0.407-1.979,0.648-3.612,3.327C31.138,34.218,30.783,34,28.058,34H19C14.92,34,12,31,12,27L12,27z"/><path fill="#fff" d="M19.172,16.034C22.759,20.517,19,25,19,25h-6L19.172,16.034z"/><path fill="#fff" d="M21,27h7c0,0,8.207-5.448-1.655-11.724C23.655,14.379,20,14,20,14S26,21,21,27z"/><path fill="#fff" d="M25,12L25,12c-0.552,0-1,0.448-1,1v17h2V13C26,12.448,25.552,12,25,12z"/></svg>