<svg xmlns="http://www.w3.org/2000/svg"  viewBox="0 0 48 48" width="1600px" height="1600px"><polygon fill="#4db6ac" points="24,44 2,22.5 10,5 38,5 46,22.5"/><path fill="#fff" d="M38,22c0-1.436-4.711-2.635-11-2.929V16h8v-6H13v6h8v3.071C14.711,19.365,10,20.564,10,22	s4.711,2.635,11,2.929V36h6V24.929C33.289,24.635,38,23.436,38,22z M24,24c-6.627,0-12-1.007-12-2.25c0-1.048,3.827-1.926,9-2.176	v3.346c0.96,0.06,1.96,0.08,3,0.08s2.04-0.02,3-0.08v-3.346c5.173,0.25,9,1.128,9,2.176C36,22.993,30.627,24,24,24z"/></svg>