<svg xmlns="http://www.w3.org/2000/svg"  viewBox="0 0 48 48" width="1600px" height="1600px"><path fill="#263238" d="M38.193,7H44L31.92,18.98c-2.111,2.079-4.956,3.245-7.92,3.245s-5.808-1.166-7.92-3.245L4,7h5.807	l9.179,9.084c1.338,1.319,3.14,2.059,5.019,2.059c1.879,0,3.681-0.74,5.019-2.059L38.193,7z"/><path fill="#263238" d="M29.024,31.916c-1.338-1.319-3.14-2.059-5.019-2.059c-1.879,0-3.681,0.74-5.019,2.059L9.807,41H4	l12.08-11.98c2.111-2.079,4.956-3.245,7.92-3.245s5.808,1.166,7.92,3.245L44,41h-5.807L29.024,31.916z"/></svg>