<svg xmlns="http://www.w3.org/2000/svg" enable-background="new 0 0 512 512" viewBox="0 0 512 512"><rect width="512" height="341.326" y="83.923" fill="#0052b4"/><polygon fill="#d80027" points="512 108.546 59.699 258.293 512 408.038 512 428.077 0 258.293 512 88.508"/><polyline fill="#f0f0f0" points="512 374.201 512 408.038 59.699 258.293 512 108.546 512 142.384"/><path fill="#a2001d" d="M493.301,253.493h-29.275c7.612-9.139,7.141-22.736-1.432-31.31c9.084-9.082,9.084-23.81,0-32.895  l-0.546,0.549c9.082-9.082,9.63-24.359,0.546-33.441L331.019,287.971c9.084,9.085,23.552,8.976,32.634-0.108l2.532-2.314  l63.003-5.728v27.097h21.37v-29.04l32.056-2.913L493.301,253.493z"/><polygon fill="#ffda44" points="333.03 316.084 311.652 305.399 333.03 294.714 471.938 294.714 471.938 316.084"/></svg>