<svg xmlns="http://www.w3.org/2000/svg" enable-background="new 0 0 512 512" viewBox="0 0 512 512"><rect width="512" height="341.337" y="85.331" fill="#ffda44"/><rect width="170.663" height="341.337" y="85.331" fill="#0052b4"/><rect width="170.663" height="341.337" x="341.337" y="85.331" fill="#d80027"/><path fill="#d80027" d="M256,315.356c0-27.234,0-59.362,0-59.362h44.522v22.261c0,3.868-7.421,18.038-25.735,29.682   C267.849,312.348,260.669,313.766,256,315.356z"/><rect width="44.522" height="44.522" x="211.478" y="211.473" fill="#d80027"/><path fill="#ff9811" d="M278.261,196.632c0-8.196-6.645-14.84-14.84-14.84c-2.707,0-5.236,0.736-7.421,2.001  c-2.185-1.266-4.714-2.001-7.421-2.001c-8.195,0-14.84,6.644-14.84,14.84h-37.101v74.202c0,27.624,21.938,43.599,39.14,51.88  c-1.288,2.198-2.039,4.75-2.039,7.483c0,8.196,6.645,14.84,14.84,14.84c2.707,0,5.236-0.736,7.421-2.001  c2.185,1.266,4.714,2.001,7.421,2.001c8.195,0,14.84-6.644,14.84-14.84c0-2.733-0.751-5.284-2.04-7.483  c17.203-8.281,39.141-24.257,39.141-51.88v-74.202L278.261,196.632L278.261,196.632z M293.101,270.835  c0,3.868,0,15.635-18.314,27.279c-6.936,4.411-14.118,7.27-18.787,8.861c-4.669-1.591-11.849-4.45-18.787-8.861  c-18.314-11.644-18.314-23.411-18.314-27.278v-51.941h74.203v51.941H293.101z"/></svg>