<svg xmlns="http://www.w3.org/2000/svg" enable-background="new 0 0 512 512" viewBox="0 0 512 512"><rect width="512" height="341.326" y="85.337"/><path fill="#0052b4" d="M88.751,221.865c-2.239,11.029-3.417,22.443-3.417,34.134c0,11.69,1.179,23.105,3.417,34.134  L256,300.519l167.249-10.388c2.239-11.029,3.417-22.443,3.417-34.134s-1.179-23.105-3.417-34.134"/><path fill="#f0f0f0" d="M423.249,290.131H88.751c15.813,77.9,84.683,136.534,167.249,136.534  S407.436,368.031,423.249,290.131z"/><polygon fill="#ffda44" points="330.203 221.865 181.797 221.865 212.117 207.603 195.971 178.238 228.894 184.536 233.068 151.276 256 175.738 278.933 151.276 283.105 184.536 316.029 178.238 299.884 207.604"/><polygon fill="#a2001d" points="255.997 426.661 0 85.335 0 426.661"/><polygon fill="#a2001d" points="512 426.661 512 85.335 256.003 426.661"/></svg>