<svg xmlns="http://www.w3.org/2000/svg" enable-background="new 0 0 512 512" viewBox="0 0 512 512"><rect width="512" height="341.326" y="85.337" fill="#d80027"/><rect width="512" height="113.775" y="85.337" fill="#338af3"/><rect width="512" height="113.775" y="312.888" fill="#6da544"/><path fill="#f0f0f0" d="M259.2,297.6c-22.975,0-41.6-18.625-41.6-41.6s18.625-41.6,41.6-41.6c7.164,0,13.904,1.811,19.789,5   c-9.232-9.027-21.857-14.6-35.789-14.6c-28.277,0-51.2,22.923-51.2,51.2s22.923,51.2,51.2,51.2c13.932,0,26.557-5.573,35.789-14.6   C273.104,295.789,266.364,297.6,259.2,297.6z"/><polygon fill="#f0f0f0" points="291.2 227.2 296.71 242.697 311.565 235.635 304.503 250.489 320 256 304.503 261.511 311.565 276.365 296.71 269.303 291.2 284.8 285.69 269.303 270.835 276.365 277.897 261.511 262.4 256 277.897 250.489 270.835 235.635 285.69 242.697"/></svg>