<svg xmlns="http://www.w3.org/2000/svg" enable-background="new 0 0 512 512" viewBox="0 0 512 512"><rect width="512" height="341.326" y="85.337" fill="#f0f0f0"/><rect width="236.31" height="341.326" y="85.337" fill="#0052b4"/><path fill="#d80027" d="M171.382,144.696v27.826c0,13.831,11.213,25.043,25.043,25.043s25.043-11.213,25.043-25.043v-27.826  H171.382z"/><path fill="#f0f0f0" d="M196.425,182.725c-5.626,0-10.203-4.577-10.203-10.203v-12.986h20.405v12.986  C206.629,178.148,202.052,182.725,196.425,182.725z"/><path fill="#ffda44" d="M295.672,263.421H251.15c0-8.195-6.645-14.84-14.84-14.84c-8.195,0-14.84,6.645-14.84,14.84h-44.522   c0,8.196,7.139,14.84,15.334,14.84h-0.494c0,8.196,6.644,14.84,14.84,14.84c0,8.196,6.644,14.84,14.84,14.84h29.682   c8.195,0,14.84-6.644,14.84-14.84c8.195,0,14.84-6.644,14.84-14.84h-0.494C288.533,278.261,295.672,271.617,295.672,263.421z"/><polygon fill="#ffda44" points="301.771 239.672 297.875 245.909 302.601 251.541 295.465 249.765 291.567 256 291.054 248.664 283.918 246.884 290.738 244.129 290.226 236.792 294.953 242.428"/><polygon fill="#ffda44" points="279.036 220.595 277.508 227.789 283.876 231.466 276.561 232.236 275.033 239.429 272.041 232.711 264.727 233.479 270.194 228.557 267.203 221.84 273.57 225.517"/><polygon fill="#ffda44" points="251.148 210.445 252.172 217.728 259.414 219.005 252.806 222.23 253.828 229.512 248.72 224.221 242.109 227.446 245.562 220.951 240.453 215.662 247.697 216.939"/><polygon fill="#ffda44" points="221.47 210.445 224.924 216.939 232.166 215.661 227.058 220.952 230.509 227.446 223.901 224.221 218.791 229.511 219.815 222.23 213.206 219.007 220.447 217.728"/><polygon fill="#ffda44" points="193.584 220.595 199.049 225.517 205.417 221.84 202.427 228.56 207.891 233.48 200.577 232.711 197.585 239.429 196.059 232.235 188.744 231.467 195.112 227.79"/><polygon fill="#ffda44" points="170.849 239.672 177.668 242.428 182.393 236.793 181.884 244.132 188.701 246.886 181.564 248.665 181.05 256 177.155 249.765 170.02 251.542 174.747 245.909"/></svg>