<svg xmlns="http://www.w3.org/2000/svg" enable-background="new 0 0 512 512" viewBox="0 0 512 512"><rect width="512" height="341.337" y="85.333" fill="#d80027"/><polygon fill="#496e2d" points="301.255 255.996 512 115.499 512 85.33 466.745 85.33 256 225.826 45.255 85.33 0 85.33 0 115.499 210.745 255.996 0 396.493 0 426.662 45.255 426.662 256 286.166 466.745 426.662 512 426.662 512 396.493"/><polygon fill="#f0f0f0" points="278.261 233.735 278.261 202.254 278.261 85.33 233.739 85.33 233.739 202.254 233.74 233.735 233.74 233.735 202.258 233.735 0 233.735 0 278.257 202.258 278.257 233.739 278.257 233.739 309.738 233.739 426.662 278.261 426.662 278.261 309.739 278.261 278.258 278.261 278.257 309.743 278.257 512 278.257 512 233.735 309.742 233.735 278.262 233.735"/></svg>