<svg xmlns="http://www.w3.org/2000/svg" enable-background="new 0 0 509.85 509.85" viewBox="0 0 509.85 509.85"><rect width="509.85" height="339.904" y="84.975" fill="#f0f0f0"/><rect width="509.85" height="169.946" y="84.975" fill="#f0f0f0"/><rect width="509.85" height="31.866" y="154.015" fill="#d80027"/><polygon fill="#0052b4" points="379.051 199.5 509.85 232.199 509.85 199.5"/><polygon fill="#0052b4" points="288.176 199.5 509.85 254.918 509.85 239.246 350.861 199.5"/><polygon fill="#0052b4" points="450.804 254.918 288.176 214.257 288.176 254.918"/><polygon fill="#f0f0f0" points="288.176 199.5 509.85 254.918 509.85 239.246 350.861 199.5"/><polygon fill="#d80027" points="288.176 199.5 509.85 254.918 509.85 239.246 350.861 199.5"/><polygon fill="#0052b4" points="99.957 199.499 0 224.487 0 199.499"/><polygon fill="#0052b4" points="221.674 206.546 221.674 254.917 28.205 254.917"/><polygon fill="#d80027" points="158.988 199.5 0 239.246 0 254.918 0 254.918 221.674 199.5"/><polygon fill="#0052b4" points="130.799 140.389 0 107.69 0 140.389"/><polygon fill="#0052b4" points="221.674 140.389 0 84.971 0 100.642 158.989 140.389"/><polygon fill="#0052b4" points="59.046 84.971 221.674 125.631 221.674 84.971"/><polygon fill="#f0f0f0" points="221.674 140.389 0 84.971 0 100.642 158.989 140.389"/><polygon fill="#d80027" points="221.674 140.389 0 84.971 0 100.642 158.989 140.389"/><polygon fill="#0052b4" points="409.893 140.39 509.85 115.401 509.85 140.39"/><polygon fill="#0052b4" points="288.176 133.342 288.176 84.973 481.645 84.973"/><polygon fill="#d80027" points="350.862 140.389 509.85 100.643 509.85 84.971 509.85 84.971 288.176 140.389"/><rect width="31.855" height="169.946" x="238.998" y="84.975" fill="#d80027"/><path fill="#0052b4" d="M509.85 270.693v22.234c-4.411.743-12.802 5.497-19.053 9.055-10.906 6.196-21.214 12.048-31.068 12.048-9.864 0-20.161-5.852-31.079-12.048-6.805-3.868-16.127-9.155-20.128-9.155-4.001 0-13.323 5.287-20.128 9.155-10.906 6.196-21.214 12.048-31.068 12.048s-20.161-5.852-31.079-12.048c-6.805-3.868-16.127-9.155-20.128-9.155-3.99 0-13.312 5.287-20.117 9.155-10.917 6.196-21.225 12.048-31.079 12.048s-20.161-5.852-31.079-12.048c-6.805-3.868-16.127-9.155-20.117-9.155-4.001 0-13.323 5.287-20.128 9.155-10.917 6.196-21.225 12.048-31.079 12.048-9.853 0-20.161-5.852-31.068-12.048-6.805-3.868-16.127-9.155-20.128-9.155s-13.323 5.287-20.128 9.155c-10.917 6.196-21.214 12.048-31.079 12.048-9.853 0-20.161-5.852-31.068-12.048C12.802 298.425 4.411 293.67 0 292.927v-22.234c9.521.388 19.485 6.041 30.004 12.015 6.805 3.857 16.127 9.155 20.117 9.155 4.001 0 13.323-5.298 20.128-9.155 10.917-6.196 21.225-12.048 31.079-12.048s20.161 5.852 31.068 12.048c6.805 3.857 16.127 9.155 20.128 9.155 4.001 0 13.323-5.298 20.128-9.155 10.917-6.196 21.214-12.048 31.079-12.048 9.853 0 20.161 5.852 31.068 12.048 6.805 3.857 16.127 9.155 20.128 9.155s13.323-5.298 20.128-9.155c10.906-6.196 21.214-12.048 31.068-12.048 9.864 0 20.161 5.852 31.079 12.048 6.805 3.857 16.127 9.155 20.128 9.155s13.323-5.298 20.128-9.155c10.906-6.196 21.214-12.048 31.068-12.048 9.853 0 20.161 5.852 31.079 12.048 6.805 3.857 16.127 9.155 20.128 9.155 3.99 0 13.312-5.298 20.117-9.155C490.365 276.734 500.329 271.081 509.85 270.693zM509.85 326.112v22.234c-4.411.743-12.802 5.497-19.053 9.055-10.906 6.196-21.214 12.048-31.068 12.048-9.864 0-20.161-5.852-31.079-12.048-6.805-3.868-16.127-9.155-20.128-9.155-4.001 0-13.323 5.287-20.128 9.155-10.906 6.196-21.214 12.048-31.068 12.048s-20.161-5.852-31.079-12.048c-6.805-3.868-16.127-9.155-20.128-9.155-3.99 0-13.312 5.287-20.117 9.155-10.917 6.196-21.225 12.048-31.079 12.048s-20.161-5.852-31.079-12.048c-6.805-3.868-16.127-9.155-20.117-9.155-4.001 0-13.323 5.287-20.128 9.155-10.917 6.196-21.225 12.048-31.079 12.048-9.853 0-20.161-5.852-31.068-12.048-6.805-3.868-16.127-9.155-20.128-9.155s-13.323 5.287-20.128 9.155c-10.917 6.196-21.214 12.048-31.079 12.048-9.853 0-20.161-5.852-31.068-12.048-6.251-3.558-14.642-8.313-19.053-9.055v-22.234c9.521.388 19.485 6.041 30.004 12.015 6.805 3.857 16.127 9.155 20.117 9.155 4.001 0 13.323-5.298 20.128-9.155 10.917-6.196 21.225-12.048 31.079-12.048s20.161 5.852 31.068 12.048c6.805 3.857 16.127 9.155 20.128 9.155 4.001 0 13.323-5.298 20.128-9.155 10.917-6.196 21.214-12.048 31.079-12.048 9.853 0 20.161 5.852 31.068 12.048 6.805 3.857 16.127 9.155 20.128 9.155s13.323-5.298 20.128-9.155c10.906-6.196 21.214-12.048 31.068-12.048 9.864 0 20.161 5.852 31.079 12.048 6.805 3.857 16.127 9.155 20.128 9.155s13.323-5.298 20.128-9.155c10.906-6.196 21.214-12.048 31.068-12.048 9.853 0 20.161 5.852 31.079 12.048 6.805 3.857 16.127 9.155 20.128 9.155 3.99 0 13.312-5.298 20.117-9.155C490.365 332.152 500.329 326.499 509.85 326.112zM509.85 381.53v22.234c-4.411.743-12.802 5.497-19.053 9.055-10.906 6.196-21.214 12.048-31.068 12.048-9.864 0-20.161-5.852-31.079-12.048-6.805-3.868-16.127-9.155-20.128-9.155-4.001 0-13.323 5.287-20.128 9.155-10.906 6.196-21.214 12.048-31.068 12.048s-20.161-5.852-31.079-12.048c-6.805-3.868-16.127-9.155-20.128-9.155-3.99 0-13.312 5.287-20.117 9.155-10.917 6.196-21.225 12.048-31.079 12.048s-20.161-5.852-31.079-12.048c-6.805-3.868-16.127-9.155-20.117-9.155-4.001 0-13.323 5.287-20.128 9.155-10.917 6.196-21.225 12.048-31.079 12.048-9.853 0-20.161-5.852-31.068-12.048-6.805-3.868-16.127-9.155-20.128-9.155s-13.323 5.287-20.128 9.155c-10.917 6.196-21.214 12.048-31.079 12.048-9.853 0-20.161-5.852-31.068-12.048-6.251-3.558-14.642-8.313-19.053-9.055V381.53c9.521.388 19.485 6.041 30.004 12.015 6.805 3.857 16.127 9.155 20.117 9.155 4.001 0 13.323-5.298 20.128-9.155 10.917-6.196 21.225-12.048 31.079-12.048s20.161 5.852 31.068 12.048c6.805 3.857 16.127 9.155 20.128 9.155 4.001 0 13.323-5.298 20.128-9.155 10.917-6.196 21.214-12.048 31.079-12.048 9.853 0 20.161 5.852 31.068 12.048 6.805 3.857 16.127 9.155 20.128 9.155s13.323-5.298 20.128-9.155c10.906-6.196 21.214-12.048 31.068-12.048 9.864 0 20.161 5.852 31.079 12.048 6.805 3.857 16.127 9.155 20.128 9.155s13.323-5.298 20.128-9.155c10.906-6.196 21.214-12.048 31.068-12.048 9.853 0 20.161 5.852 31.079 12.048 6.805 3.857 16.127 9.155 20.128 9.155 3.99 0 13.312-5.298 20.117-9.155C490.365 387.571 500.329 381.918 509.85 381.53z"/><polygon fill="#ffda44" points="306.463 388.055 325.423 353.57 286.756 360.965 281.857 321.905 254.925 350.633 227.994 321.905 223.093 360.965 184.428 353.57 203.389 388.054 167.781 404.804 203.388 421.551 201.564 424.871 308.285 424.871 306.461 421.552 342.069 404.804"/></svg>