<svg xmlns="http://www.w3.org/2000/svg" enable-background="new 0 0 512 512" viewBox="0 0 512 512"><rect width="512" height="341.337" y="85.333" fill="#f0f0f0"/><polygon points="85.334 85.33 256 255.996 256 85.33"/><polygon points="0 426.662 85.334 426.662 256 255.996 0 255.996"/><polygon points="426.666 426.662 256 255.996 256 426.662"/><polygon points="426.666 85.33 256 255.996 512 255.996 512 85.33"/><polygon fill="#ffda44" points="196.638 204.054 256 211.475 315.362 204.054 315.362 168.436 291.617 180.309 256 144.692 220.383 180.309 196.638 168.436"/><path fill="#d80027" d="M256,345.04c-32.732,0-59.362-26.63-59.362-59.362v-59.36l22.261-22.262h74.203l22.261,22.262v59.36  C315.362,318.41,288.732,345.04,256,345.04z"/><path fill="#f0f0f0" d="M256,322.779c-20.458,0-37.101-16.643-37.101-37.101v-59.361h74.203v59.361  C293.101,306.135,276.458,322.779,256,322.779z"/><rect width="22.261" height="22.261" x="196.641" y="204.05" fill="#ffda44"/><rect width="22.261" height="22.261" x="293.098" y="204.05" fill="#ffda44"/><rect width="22.261" height="22.261" x="293.098" y="252.29" fill="#ffda44"/><rect width="22.261" height="22.261" x="196.641" y="252.29" fill="#ffda44"/><path fill="#ffda44" d="M256 322.779c-3.877 0-7.615-.6-11.13-1.709v22.908c3.608.688 7.325 1.062 11.13 1.062s7.522-.374 11.13-1.062V321.07C263.615 322.179 259.877 322.779 256 322.779zM219.395 291.7l-17.766 17.766c3.081 7.013 7.474 13.319 12.876 18.606l15.733-15.733C224.624 306.913 220.713 299.74 219.395 291.7zM310.371 309.467L292.605 291.7c-1.319 8.038-5.229 15.212-10.843 20.638l15.733 15.733C302.896 322.785 307.29 316.48 310.371 309.467z"/><path fill="#0052b4" d="M248.579 238.683v12.367c0 4.098 3.322 7.421 7.421 7.421 4.098 0 7.421-3.322 7.421-7.421v-12.367H248.579zM248.579 288.151v12.367c0 4.098 3.322 7.421 7.421 7.421 4.098 0 7.421-3.322 7.421-7.421v-12.367H248.579zM270.84 263.417v12.368c0 4.097 3.322 7.421 7.421 7.421s7.421-3.324 7.421-7.421v-12.368L270.84 263.417 270.84 263.417zM248.579 263.417v12.368c0 4.097 3.322 7.421 7.421 7.421 4.098 0 7.421-3.324 7.421-7.421v-12.368L248.579 263.417 248.579 263.417zM226.318 263.417v12.368c0 4.097 3.322 7.421 7.421 7.421s7.421-3.324 7.421-7.421v-12.368L226.318 263.417 226.318 263.417z"/></svg>