<svg xmlns="http://www.w3.org/2000/svg" enable-background="new 0 0 512 512" viewBox="0 0 512 512"><rect width="512" height="341.326" y="85.337" fill="#f0f0f0"/><rect width="512" height="113.775" y="85.337" fill="#d80027"/><rect width="512" height="113.775" y="312.888" fill="#0052b4"/><polygon fill="#338af3" points="300.522 204.059 270.84 204.059 275.788 166.957 295.575 152.116 315.362 166.957 315.362 196.638"/><polygon fill="#338af3" points="211.478 204.059 241.16 204.059 236.212 166.957 216.425 152.116 196.638 166.957 196.638 196.638"/><polygon fill="#0052b4" points="275.788 204.059 236.212 204.059 236.212 166.957 256 152.116 275.788 166.957"/><path fill="#f0f0f0" d="M196.638,196.638v81.623c0,19.436,9.389,36.719,23.868,47.555l10.388-2.6l13.109,13.188  c3.876,0.798,7.887,1.219,11.996,1.219c4.087,0,8.077-0.415,11.934-1.205l14.964-12.459l8.595,1.834  c14.474-10.834,23.868-28.101,23.868-47.531v-81.623L196.638,196.638L196.638,196.638z"/><rect width="23.745" height="23.745" x="196.641" y="196.641" fill="#d80027"/><rect width="23.745" height="23.745" x="244.124" y="196.641" fill="#d80027"/><rect width="23.745" height="23.745" x="291.617" y="196.641" fill="#d80027"/><rect width="23.745" height="23.745" x="220.383" y="220.383" fill="#d80027"/><rect width="23.745" height="23.745" x="267.876" y="220.383" fill="#d80027"/><rect width="23.745" height="23.745" x="196.641" y="244.124" fill="#d80027"/><rect width="23.745" height="23.745" x="220.383" y="267.865" fill="#d80027"/><rect width="23.745" height="23.745" x="244.124" y="244.124" fill="#d80027"/><rect width="23.745" height="23.745" x="291.617" y="244.124" fill="#d80027"/><rect width="23.745" height="23.745" x="267.876" y="267.865" fill="#d80027"/><rect width="23.745" height="23.745" x="244.124" y="291.617" fill="#d80027"/><path fill="#d80027" d="M220.383 291.613h-22.212c2.038 8.826 6.042 16.904 11.536 23.745h10.676V291.613zM291.617 315.357h10.677c5.493-6.842 9.498-14.919 11.536-23.745h-22.213V315.357zM220.383 315.357v10.361c6.906 5.196 14.976 8.923 23.745 10.71v-21.071H220.383zM267.873 315.357v21.071c8.769-1.786 16.839-5.514 23.745-10.71v-10.361H267.873z"/></svg>