<svg xmlns="http://www.w3.org/2000/svg" enable-background="new 0 0 512 512" viewBox="0 0 512 512"><rect width="512" height="341.337" y="85.331" fill="#0052b4"/><polygon fill="#ffda44" points="256 159.994 261.107 175.709 277.63 175.709 264.262 185.422 269.368 201.137 256 191.425 242.632 201.137 247.738 185.422 234.37 175.709 250.893 175.709"/><polygon fill="#ffda44" points="188.118 188.112 202.841 195.613 214.525 183.93 211.939 200.25 226.662 207.752 210.342 210.337 207.757 226.658 200.255 211.935 183.936 214.519 195.62 202.835"/><polygon fill="#ffda44" points="160 255.994 175.715 250.888 175.716 234.365 185.427 247.733 201.143 242.627 191.43 255.994 201.143 269.362 185.427 264.257 175.716 277.624 175.716 261.101"/><polygon fill="#ffda44" points="188.118 323.877 195.618 309.153 183.936 297.47 200.257 300.055 207.757 285.332 210.342 301.653 226.662 304.237 211.94 311.739 214.525 328.058 202.841 316.375"/><polygon fill="#ffda44" points="256 351.994 250.893 336.279 234.37 336.279 247.739 326.567 242.632 310.852 256 320.564 269.368 310.852 264.262 326.567 277.63 336.279 261.106 336.279"/><polygon fill="#ffda44" points="323.882 323.877 309.159 316.376 297.475 328.06 300.061 311.738 285.338 304.237 301.657 301.653 304.243 285.332 311.745 300.055 328.064 297.47 316.38 309.154"/><polygon fill="#ffda44" points="352 255.994 336.285 261.101 336.285 277.624 326.573 264.255 310.857 269.362 320.57 255.994 310.857 242.627 326.573 247.732 336.284 234.365 336.285 250.889"/><polygon fill="#ffda44" points="323.882 188.112 316.381 202.835 328.065 214.519 311.743 211.933 304.243 226.657 301.657 210.337 285.338 207.752 300.061 200.25 297.475 183.93 309.159 195.614"/></svg>