<svg xmlns="http://www.w3.org/2000/svg" enable-background="new 0 0 512 512" viewBox="0 0 512 512"><rect width="512" height="341.326" y="85.338" fill="#f0f0f0"/><rect width="512" height="42.663" y="128.001" fill="#d80027"/><rect width="512" height="42.663" y="170.664" fill="#0052b4"/><rect width="512" height="42.663" y="256.001" fill="#d80027"/><rect width="512" height="42.663" y="298.664" fill="#0052b4"/><rect width="512" height="42.663" y="384.001" fill="#d80027"/><rect width="256" height="170.663" y="85.338" fill="#f0f0f0"/><polygon fill="#d80027" points="144 85.336 112 85.336 112 154.67 0 154.67 0 186.67 112 186.67 112 256.003 144 256.003 144 186.67 256 186.67 256 154.67 144 154.67"/><polygon fill="#0052b4" points="196.892 200.351 256 233.188 256 200.351"/><polygon fill="#0052b4" points="155.826 200.351 256 256.003 256 240.266 184.153 200.351"/><polygon fill="#0052b4" points="229.317 256.003 155.826 215.171 155.826 256.003"/><polygon fill="#f0f0f0" points="155.826 200.351 256 256.003 256 240.266 184.153 200.351"/><polygon fill="#d80027" points="155.826 200.351 256 256.003 256 240.266 184.153 200.351"/><polygon fill="#0052b4" points="45.171 200.35 0 225.445 0 200.35"/><polygon fill="#0052b4" points="100.174 207.427 100.174 256.002 12.745 256.002"/><polygon fill="#d80027" points="71.846 200.351 0 240.266 0 256.003 0 256.003 100.174 200.351"/><polygon fill="#0052b4" points="59.108 140.988 0 108.151 0 140.988"/><polygon fill="#0052b4" points="100.174 140.988 0 85.336 0 101.073 71.847 140.988"/><polygon fill="#0052b4" points="26.683 85.336 100.174 126.169 100.174 85.336"/><polygon fill="#f0f0f0" points="100.174 140.988 0 85.336 0 101.073 71.847 140.988"/><polygon fill="#d80027" points="100.174 140.988 0 85.336 0 101.073 71.847 140.988"/><polygon fill="#0052b4" points="210.829 140.989 256 115.895 256 140.989"/><polygon fill="#0052b4" points="155.826 133.912 155.826 85.337 243.255 85.337"/><polygon fill="#d80027" points="184.154 140.988 256 101.074 256 85.336 256 85.336 155.826 140.988"/></svg>