<svg xmlns="http://www.w3.org/2000/svg" enable-background="new 0 0 512 512" viewBox="0 0 512 512"><rect width="512" height="341.326" y="85.337" fill="#f0f0f0"/><rect width="512" height="113.775" y="85.337" fill="#6da544"/><rect width="512" height="113.775" y="312.888" fill="#d80027"/><path fill="#d80027" d="M300.345,220.383h-17.863c0.148,1.963,0.232,3.944,0.232,5.936c0,13.207-3.301,26.01-9.057,35.122   c-1.775,2.812-4.759,6.78-8.753,9.456v-50.514h-17.809v50.514c-3.994-2.677-6.977-6.646-8.753-9.456   c-5.756-9.113-9.056-21.915-9.056-35.122c0-1.992,0.085-3.974,0.232-5.936h-17.863c-0.115,1.953-0.177,3.932-0.177,5.936   c0.001,36.617,19.557,65.299,44.523,65.299s44.522-28.682,44.522-65.299C300.522,224.315,300.459,222.336,300.345,220.383z"/><rect width="22.261" height="24.421" x="44.522" y="184.275" fill="#f0f0f0"/><rect width="22.261" height="24.421" y="184.275" fill="#f0f0f0"/><rect width="22.261" height="24.421" x="89.043" y="184.275" fill="#f0f0f0"/><rect width="22.261" height="24.421" x="133.565" y="184.275" fill="#f0f0f0"/><rect width="22.261" height="24.421" x="178.087" y="184.275" fill="#f0f0f0"/><rect width="22.261" height="24.421" x="222.609" y="184.275" fill="#f0f0f0"/><rect width="22.261" height="24.421" x="267.13" y="184.275" fill="#f0f0f0"/><rect width="22.261" height="24.421" x="311.652" y="184.275" fill="#f0f0f0"/><rect width="22.261" height="24.421" x="356.174" y="184.275" fill="#f0f0f0"/><rect width="22.261" height="24.421" x="400.696" y="184.275" fill="#f0f0f0"/><rect width="22.261" height="24.421" x="445.217" y="184.275" fill="#f0f0f0"/><rect width="22.261" height="24.421" x="489.739" y="184.275" fill="#f0f0f0"/><rect width="22.261" height="25.534" x="44.522" y="302.191" fill="#f0f0f0"/><rect width="22.261" height="25.534" y="302.191" fill="#f0f0f0"/><rect width="22.261" height="25.534" x="89.043" y="302.191" fill="#f0f0f0"/><rect width="22.261" height="25.534" x="133.565" y="302.191" fill="#f0f0f0"/><rect width="22.261" height="25.534" x="178.087" y="302.191" fill="#f0f0f0"/><rect width="22.261" height="25.534" x="222.609" y="302.191" fill="#f0f0f0"/><rect width="22.261" height="25.534" x="267.13" y="302.191" fill="#f0f0f0"/><rect width="22.261" height="25.534" x="311.652" y="302.191" fill="#f0f0f0"/><rect width="22.261" height="25.534" x="356.174" y="302.191" fill="#f0f0f0"/><rect width="22.261" height="25.534" x="400.696" y="302.191" fill="#f0f0f0"/><rect width="22.261" height="25.534" x="445.217" y="302.191" fill="#f0f0f0"/><rect width="22.261" height="25.534" x="489.739" y="302.191" fill="#f0f0f0"/></svg>