<svg xmlns="http://www.w3.org/2000/svg" enable-background="new 0 0 512 512" viewBox="0 0 512 512"><rect width="512" height="341.337" y="85.334" fill="#f0f0f0"/><rect width="512" height="341.337" y="85.334" fill="#f0f0f0"/><polygon fill="#d80027" points="301.255 255.997 512 115.499 512 85.329 466.745 85.329 256 225.826 45.255 85.329 0 85.329 0 115.499 210.745 255.997 0 396.494 0 426.663 45.255 426.663 256 286.167 466.745 426.663 512 426.663 512 396.494"/><polygon fill="#ffda44" points="233.739 166.953 256 172.518 278.261 166.953 278.261 148.031 269.357 152.484 256 139.127 242.643 152.484 233.739 148.031"/><path fill="#d80027" d="M233.739,166.953v13.914c0,17.04,22.261,22.261,22.261,22.261s22.261-5.221,22.261-22.261v-13.914  H233.739z"/></svg>