<svg xmlns="http://www.w3.org/2000/svg" enable-background="new 0 0 512 512" viewBox="0 0 512 512"><rect width="512" height="341.337" y="85.331" fill="#f0f0f0"/><rect width="512" height="90.579" y="85.331"/><rect width="512" height="90.568" y="336.089" fill="#496e2d"/><rect width="512" height="114.799" y="198.606" fill="#a2001d"/><polygon fill="#f0f0f0" points="323.265 139.803 297.682 127.994 256 222.376 214.318 127.994 188.735 139.803 240.484 255.994 188.735 372.186 214.318 383.994 256 289.613 297.682 383.994 323.265 372.186 271.516 255.994"/><path fill="#f0f0f0" d="M273.376,150.931C263.472,140.115,256,133.898,256,133.898s-7.472,6.216-17.376,17.032v210.127   C248.528,371.873,256,378.091,256,378.091s7.472-6.216,17.376-17.033V150.931z"/><path fill="#a2001d" d="M209.04 191.226v129.535c10.465 18.542 23.274 33.742 32.872 43.818V147.408C232.313 157.484 219.504 172.683 209.04 191.226zM302.96 191.226c-10.465-18.543-23.274-33.742-32.872-43.818V364.58c9.599-10.077 22.407-25.276 32.872-43.818V191.226z"/><path d="M302.96 191.226v129.535c10.594-18.774 18.784-40.973 18.784-64.767S313.554 210.001 302.96 191.226zM209.04 191.226v129.535c-10.594-18.774-18.784-40.973-18.784-64.767S198.446 210.001 209.04 191.226z"/></svg>