<svg xmlns="http://www.w3.org/2000/svg" enable-background="new 0 0 512 512" viewBox="0 0 512 512"><rect width="512" height="341.337" y="85.331" fill="#d80027"/><circle cx="256" cy="255.994" r="170.663" fill="#d80027"/><polygon fill="#ffda44" points="339.465 255.994 305.361 272.036 323.522 305.067 286.487 297.982 281.796 335.391 256 307.879 230.205 335.391 225.512 297.982 188.479 305.065 206.64 272.034 172.535 255.994 206.641 239.954 188.479 206.921 225.51 214.008 230.206 176.598 256 204.111 281.797 176.598 286.487 214.008 323.523 206.921 305.362 239.955"/><circle cx="256" cy="255.994" r="51.942" fill="#d80027"/><path fill="#ffda44" d="M230.029 255.994c-1.251 0-2.487.063-3.705.186.045 7.195 2.648 13.779 6.947 18.894 2.294-6.172 5.718-11.799 10.035-16.614C239.18 256.873 234.706 255.994 230.029 255.994zM246.017 283.95c3.12 1.114 6.48 1.726 9.983 1.726s6.863-.611 9.983-1.726c-1.701-6.675-5.212-12.633-9.983-17.316C251.229 271.317 247.718 277.275 246.017 283.95zM281.702 241.159c-5.132-8.871-14.717-14.845-25.702-14.845s-20.571 5.974-25.704 14.845c9.356.048 18.129 2.591 25.704 6.984C263.574 243.75 272.346 241.207 281.702 241.159zM268.695 258.46c4.319 4.815 7.742 10.443 10.035 16.614 4.299-5.116 6.902-11.7 6.947-18.894-1.22-.121-2.455-.186-3.705-.186C277.295 255.994 272.82 256.873 268.695 258.46z"/></svg>