<svg xmlns="http://www.w3.org/2000/svg" enable-background="new 0 0 512 512" viewBox="0 0 512 512"><rect width="512" height="341.337" y="85.331" fill="#0052b4"/><polygon fill="#f0f0f0" points="512 233.734 512 278.255 278.261 278.255 278.261 426.657 233.739 426.657 233.739 278.255 0 278.255 0 233.734 233.739 233.734 233.739 85.331 278.261 85.331 278.261 233.734"/><path fill="#f0f0f0" d="M386.607 175.885c0-2.268 1.845-4.114 4.115-4.114h8.816c13.936 0 25.274-11.337 25.274-25.273 0-13.935-11.337-25.273-25.274-25.273h-8.372c-2.733-2.052-6.399-3.318-10.443-3.318-8.436 0-15.273 5.471-15.273 12.219 0 6.683 6.707 12.104 15.029 12.209l-.003.049h19.062c2.27 0 4.115 1.845 4.115 4.115s-1.845 4.114-4.115 4.114h-8.816c-13.936 0-25.273 11.337-25.273 25.273 0 13.935 11.336 25.273 25.273 25.273h34.09V180h-34.09C388.452 179.999 386.607 178.154 386.607 175.885zM108.346 175.885c0-2.268 1.845-4.114 4.115-4.114h8.816c13.936 0 25.274-11.337 25.274-25.273 0-13.935-11.337-25.273-25.274-25.273h-8.372c-2.733-2.052-6.399-3.318-10.443-3.318-8.436 0-15.273 5.471-15.273 12.219 0 6.683 6.707 12.104 15.029 12.209l-.003.049h19.062c2.27 0 4.115 1.845 4.115 4.115s-1.845 4.114-4.115 4.114h-8.816c-13.936 0-25.273 11.337-25.273 25.273 0 13.935 11.336 25.273 25.273 25.273h34.09V180h-34.09C110.191 179.999 108.346 178.154 108.346 175.885zM386.607 368.809c0-2.268 1.845-4.114 4.115-4.114h8.816c13.936 0 25.274-11.337 25.274-25.273 0-13.935-11.337-25.273-25.274-25.273h-8.372c-2.733-2.052-6.399-3.318-10.443-3.318-8.436 0-15.273 5.471-15.273 12.219 0 6.683 6.707 12.104 15.029 12.209l-.003.049h19.062c2.27 0 4.115 1.845 4.115 4.115s-1.845 4.114-4.115 4.114h-8.816c-13.936 0-25.273 11.337-25.273 25.273 0 13.935 11.336 25.273 25.273 25.273h34.09v-21.159h-34.09C388.452 372.923 386.607 371.079 386.607 368.809zM108.346 368.809c0-2.268 1.845-4.114 4.115-4.114h8.816c13.936 0 25.274-11.337 25.274-25.273 0-13.935-11.337-25.273-25.274-25.273h-8.372c-2.733-2.052-6.399-3.318-10.443-3.318-8.436 0-15.273 5.471-15.273 12.219 0 6.683 6.707 12.104 15.029 12.209l-.003.049h19.062c2.27 0 4.115 1.845 4.115 4.115s-1.845 4.114-4.115 4.114h-8.816c-13.936 0-25.273 11.337-25.273 25.273 0 13.935 11.336 25.273 25.273 25.273h34.09v-21.159h-34.09C110.191 372.923 108.346 371.079 108.346 368.809z"/></svg>