<svg xmlns="http://www.w3.org/2000/svg" enable-background="new 0 0 512 512" viewBox="0 0 512 512"><rect width="512" height="341.337" y="85.331" fill="#338af3"/><polygon fill="#f0f0f0" points="255.999 159.53 263.366 182.204 287.209 182.204 267.921 196.22 275.288 218.893 255.999 204.88 236.711 218.893 244.079 196.22 224.791 182.204 248.633 182.204"/><polygon fill="#f0f0f0" points="159.536 255.996 182.21 248.628 182.21 224.786 196.225 244.074 218.899 236.706 204.886 255.996 218.899 275.282 196.225 267.915 182.21 287.203 182.21 263.362"/><polygon fill="#f0f0f0" points="256.001 352.459 248.634 329.785 224.791 329.785 244.079 315.769 236.712 293.095 256.001 307.109 275.288 293.095 267.921 315.769 287.209 329.785 263.367 329.785"/><polygon fill="#f0f0f0" points="352.464 255.993 329.79 263.361 329.79 287.203 315.775 267.915 293.101 275.282 307.114 255.993 293.101 236.706 315.775 244.074 329.79 224.786 329.79 248.627"/></svg>