<svg xmlns="http://www.w3.org/2000/svg" enable-background="new 0 0 512 512" viewBox="0 0 512 512"><rect width="512" height="341.326" y="85.337" fill="#f0f0f0"/><rect width="512" height="103.88" y="322.783" fill="#ffda44"/><rect width="512" height="104.515" y="85.337" fill="#496e2d"/><rect width="512" height="89.656" y="210.877"/><polygon fill="#a2001d" points="256 256.006 0 426.668 0 85.331"/><polygon fill="#ffda44" points="83.477 195.132 98.584 241.63 147.478 241.63 107.924 270.369 123.031 316.868 83.477 288.13 43.922 316.868 59.032 270.369 19.478 241.63 68.37 241.63"/><rect width="88.42" height="40.578" x="39.268" y="256" fill="#f0f0f0"/><polygon points="144.443 209.479 130.096 195.132 83.478 241.75 36.861 195.132 22.514 209.479 69.172 256.056 22.514 302.714 36.861 316.868 83.478 270.334 130.096 316.868 144.443 302.714 97.784 256.056"/></svg>