<svg xmlns="http://www.w3.org/2000/svg" enable-background="new 0 0 512 512" viewBox="0 0 512 512"><rect width="512" height="341.337" y="85.331" fill="#338af3"/><path fill="#f3f3f3" d="M251.469,348.064c-3.906-0.189-7.137-2.727-8.402-6.173l0,0c-2.236,2.916-6.078,4.384-9.864,3.408  l0,0c-3.792-0.976-6.443-4.114-6.992-7.753l0,0c-2.784,2.405-6.841,3.061-10.349,1.341l0,0c-3.515-1.726-5.48-5.336-5.278-9.008l0,0  c-3.206,1.802-7.313,1.625-10.406-0.768l0,0c-3.086-2.393-4.29-6.318-3.357-9.876l0,0c-3.502,1.122-7.483,0.126-10.034-2.841l0,0  c-2.551-2.961-2.942-7.049-1.317-10.342l0,0c-3.653,0.39-7.357-1.386-9.259-4.799l0,0c-1.909-3.414-1.468-7.502,0.794-10.406l0,0  c-3.66-0.353-6.934-2.84-8.106-6.569l0,0c-1.178-3.729,0.082-7.647,2.885-10.034l0,0c-3.515-1.084-6.211-4.183-6.607-8.07l0,0  c-0.397-3.887,1.618-7.457,4.837-9.234l0,0c-3.219-1.763-5.247-5.335-4.863-9.215l0,0c0,0,0,0,0.006,0l0,0  c0.384-3.892,3.08-6.998,6.588-8.094l0,0c-2.803-2.381-4.075-6.293-2.91-10.022l0,0c1.165-3.735,4.434-6.23,8.094-6.595l0,0  c-2.262-2.897-2.715-6.985-0.819-10.406l0,0c1.896-3.414,5.6-5.197,9.259-4.812l0,0c-1.637-3.295-1.253-7.382,1.291-10.356l0,0  c2.538-2.966,6.519-3.968,10.027-2.859l0,0c-0.945-3.552,0.252-7.483,3.338-9.883l0,0c3.08-2.4,7.187-2.583,10.392-0.794l0,0  c-0.208-3.672,1.751-7.282,5.259-9.013l0,0c3.502-1.726,7.565-1.083,10.355,1.322l0,0c0.535-3.641,3.188-6.79,6.973-7.772l0,0l0,0  l0,0c3.779-0.983,7.622,0.472,9.864,3.383l0,0c1.267-3.445,4.491-5.99,8.397-6.185l0,0c3.899-0.201,7.363,1.99,8.976,5.285l0,0  c1.928-3.124,5.593-4.976,9.454-4.39l0,0c3.867,0.58,6.834,3.426,7.753,6.985l0,0c2.52-2.684,6.488-3.748,10.153-2.4l0,0  c3.672,1.355,6.003,4.743,6.18,8.421l0,0c3.004-2.116,7.111-2.362,10.43-0.296l0,0c3.319,2.059,4.913,5.846,4.346,9.48l0,0  c3.37-1.468,7.439-0.882,10.273,1.802l0,0c2.835,2.689,3.641,6.715,2.356,10.16l0,0c3.596-0.762,7.464,0.623,9.706,3.83l0,0l0,0l0,0  c2.243,3.2,2.224,7.306,0.277,10.425l0,0c3.672-0.026,7.18,2.117,8.736,5.7l0,0c1.549,3.591,0.699,7.615-1.839,10.28l0,0  c3.61,0.718,6.614,3.521,7.407,7.351l0,0c0.787,3.83-0.857,7.59-3.874,9.688l0,0c3.377,1.43,5.757,4.775,5.763,8.68l0,0  c0,0.043,0,0.082,0,0.126l0,0c0,0.026,0,0.057,0,0.082l0,0c0,3.905-2.369,7.256-5.744,8.698l0,0c3.023,2.085,4.68,5.846,3.892,9.675  l0,0c-0.781,3.83-3.779,6.639-7.388,7.369l0,0c2.544,2.658,3.408,6.676,1.864,10.273l0,0l0,0l0,0  c-1.544,3.591-5.052,5.739-8.731,5.719l0,0c1.952,3.118,1.985,7.225-0.252,10.43l0,0c-2.236,3.207-6.097,4.605-9.693,3.849l0,0  c1.291,3.439,0.492,7.471-2.336,10.167l0,0l0,0l0,0c-2.835,2.69-6.898,3.281-10.267,1.826l0,0c0.573,3.629-1.014,7.421-4.328,9.492  l0,0c-3.314,2.072-7.42,1.832-10.43-0.277l0,0c-0.17,3.679-2.488,7.073-6.154,8.434l0,0c0,0,0,0-0.007,0l0,0  c-3.666,1.355-7.634,0.296-10.16-2.381l0,0c-0.907,3.565-3.868,6.418-7.735,7.01l0,0l0,0l0,0c-3.861,0.585-7.533-1.253-9.466-4.378  l0,0c-1.537,3.169-4.787,5.323-8.49,5.323l0,0C251.784,348.077,251.627,348.071,251.469,348.064z"/><circle cx="256.033" cy="256.84" r="62.987" fill="#338af3"/><path fill="#bdbcc1" d="M269.823,235.464c3.094-2.295,5.109-5.964,5.109-10.113v-6.299c0-6.958-5.64-12.597-12.597-12.597  h-12.597c-6.958,0-12.597,5.64-12.597,12.597v6.299c0,4.149,2.015,7.818,5.109,10.113l-11.408,115.862c0,0,6.299,6.3,25.195,6.3  c18.896,0,25.195-6.3,25.195-6.3L269.823,235.464z"/><polygon fill="#f0f0f0" points="256.034 206.455 266.978 240.137 302.396 240.137 273.744 260.955 284.688 294.638 256.034 273.822 227.383 294.638 238.327 260.955 209.675 240.137 245.091 240.137"/></svg>