<svg xmlns="http://www.w3.org/2000/svg" enable-background="new 0 0 512 512" viewBox="0 0 512 512"><rect width="512" height="341.337" y="85.331" fill="#f0f0f0"/><polygon fill="#d80027" points="234.16 221.076 248.163 240.372 270.84 233.018 256.816 252.298 270.818 271.595 248.147 264.213 234.122 283.493 234.136 259.652 211.467 252.271 234.145 244.917"/><path fill="#d80027" d="M195.943,300.516c-26.637,0-48.232-21.594-48.232-48.232s21.594-48.232,48.232-48.232   c8.306,0,16.12,2.1,22.943,5.797c-10.704-10.467-25.342-16.927-41.494-16.927c-32.785,0-59.362,26.577-59.362,59.362   s26.577,59.362,59.362,59.362c16.152,0,30.79-6.461,41.494-16.927C212.064,298.416,204.249,300.516,195.943,300.516z"/><rect width="512" height="22.261" y="140.984" fill="#d80027"/><rect width="512" height="22.261" y="341.331" fill="#d80027"/></svg>