<svg xmlns="http://www.w3.org/2000/svg" enable-background="new 0 0 512 512" viewBox="0 0 512 512"><rect width="512" height="341.337" y="85.334" fill="#d80027"/><polygon fill="#f0f0f0" points="512 295.883 202.195 295.883 202.195 426.666 183.652 426.666 140.978 426.666 122.435 426.666 122.435 295.883 0 295.883 0 277.329 0 234.666 0 216.111 122.435 216.111 122.435 85.329 140.978 85.329 183.652 85.329 202.195 85.329 202.195 216.111 512 216.111 512 234.666 512 277.329"/><polygon fill="#2e52b2" points="512 234.666 512 277.329 183.652 277.329 183.652 426.666 140.978 426.666 140.978 277.329 0 277.329 0 234.666 140.978 234.666 140.978 85.329 183.652 85.329 183.652 234.666"/></svg>