<svg xmlns="http://www.w3.org/2000/svg" enable-background="new 0 0 512 512" viewBox="0 0 512 512"><rect width="512" height="341.337" y="85.331" fill="#0052b4"/><path fill="#f0f0f0" d="M329.244,264.191c0.628-3.878,0.959-7.855,0.959-11.906  C330.203,256.336,329.872,260.313,329.244,264.191l30.641-11.906l-30.641-11.906l-16.829-6.54l-27.343-10.625l-10.625-27.343  c17.916,5.872,32.095,20.05,37.967,37.967l16.829,6.54c-5.087-31.398-29.94-56.251-61.336-61.338L256,148.4l-11.906,30.641  c-31.397,5.087-56.251,29.94-61.336,61.338l-30.641,11.906l30.641,11.906c5.085,31.397,29.94,56.251,61.336,61.336L256,356.168  l11.906-30.641C299.304,320.442,324.157,295.588,329.244,264.191z M273.605,234.68L256,252.285h62.91l-45.305,17.605L256,252.285  v62.911l-17.605-45.305L256,252.285h-62.91l45.304-17.604L256,252.285v-62.91L273.605,234.68z M237.554,195.871l-10.625,27.343  l-27.342,10.625C205.459,215.921,219.637,201.745,237.554,195.871z M199.586,270.731l27.342,10.625l10.625,27.342  C219.637,302.825,205.46,288.647,199.586,270.731z M274.446,308.697l10.625-27.342l27.342-10.625  C306.54,288.647,292.362,302.825,274.446,308.697z"/><polygon fill="#0052b4" points="318.91 252.285 256 252.285 273.605 269.89"/><polygon fill="#0052b4" points="193.09 252.285 256 252.285 238.395 234.68"/><polygon fill="#0052b4" points="256 315.195 256 252.285 238.395 269.89"/><polygon fill="#0052b4" points="256 252.285 273.605 234.68 256 189.374"/><rect width="14.84" height="29.682" x="248.576" y="103.875" fill="#f0f0f0"/><rect width="29.682" height="14.84" x="107.598" y="244.864" fill="#f0f0f0"/><rect width="14.84" height="29.682" x="248.576" y="371.005" fill="#f0f0f0"/><rect width="29.682" height="14.84" x="374.728" y="244.864" fill="#f0f0f0"/></svg>