<svg xmlns="http://www.w3.org/2000/svg" enable-background="new 0 0 512 512" viewBox="0 0 512 512"><rect width="512" height="341.326" y="85.337" fill="#f0f0f0"/><rect width="512" height="113.775" y="85.337" fill="#d80027"/><rect width="512" height="113.775" y="312.888" fill="#0052b4"/><path fill="#6da544" d="M289.579,216.738l-12.592,12.592c5.37,5.372,8.693,12.792,8.693,20.988  c0,16.392-13.289,29.68-29.68,29.68c-16.392,0-29.68-13.289-29.68-29.68c0-8.195,3.322-15.616,8.693-20.988l-12.592-12.592  c-8.594,8.594-13.91,20.466-13.91,33.579c0,26.228,21.261,47.489,47.489,47.489s47.489-21.261,47.489-47.489  C303.489,237.205,298.173,225.332,289.579,216.738z"/><polygon fill="#ffda44" points="256 232.51 260.421 246.115 274.725 246.115 263.152 254.523 267.573 268.127 256 259.719 244.427 268.127 248.848 254.523 237.275 246.115 251.579 246.115"/></svg>