<svg xmlns="http://www.w3.org/2000/svg" enable-background="new 0 0 512 512" viewBox="0 0 512 512"><rect width="512" height="341.337" y="85.333" fill="#f0f0f0"/><path d="M115.71,117.564c-13.831,0-25.452,9.46-28.747,22.261l28.747,7.421l28.747-7.421  C141.162,127.022,129.54,117.564,115.71,117.564z"/><path d="M86.029,184.346l37.101,7.421v-15.776c10.429-2.686,18.639-10.897,21.324-21.326l-28.744-7.421H78.609l7.421,22.261V184.346  z"/><path fill="#acabb1" d="M144.456,139.824H78.609v14.84v14.84h7.421v-14.84h58.426c0.611-2.372,0.937-4.858,0.937-7.421  C145.391,144.682,145.066,142.196,144.456,139.824z"/><path d="M403.71,117.564c-13.831,0-25.452,9.46-28.747,22.261l28.747,7.421l28.747-7.421  C429.162,127.022,417.54,117.564,403.71,117.564z"/><path d="M374.029,184.346l37.101,7.421v-15.776c10.429-2.686,18.639-10.897,21.324-21.326l-28.744-7.421h-37.101l7.421,22.261  L374.029,184.346L374.029,184.346z"/><path fill="#acabb1" d="M432.456,139.824h-65.848v14.84v14.84h7.421v-14.84h58.426c0.611-2.372,0.937-4.858,0.937-7.421  C433.391,144.682,433.066,142.196,432.456,139.824z"/><path d="M403.71,320.226c-13.831,0-25.452,9.46-28.747,22.261l28.747,7.421l28.747-7.421  C429.162,329.685,417.54,320.226,403.71,320.226z"/><path d="M374.029,387.009l37.101,7.421v-15.776c10.429-2.686,18.639-10.897,21.324-21.326l-28.744-7.421h-37.101l7.421,22.261  L374.029,387.009L374.029,387.009z"/><path fill="#acabb1" d="M432.456,342.487h-65.848v14.84v14.84h7.421v-14.84h58.426c0.611-2.372,0.937-4.858,0.937-7.421  C433.391,347.345,433.066,344.859,432.456,342.487z"/><path d="M115.71,320.226c-13.831,0-25.452,9.46-28.747,22.261l28.747,7.421l28.747-7.421  C141.162,329.685,129.54,320.226,115.71,320.226z"/><path d="M86.029,387.009l37.101,7.421v-15.776c10.429-2.686,18.639-10.897,21.324-21.326l-28.744-7.421H78.609l7.421,22.261V387.009  z"/><path fill="#acabb1" d="M144.456,342.487H78.609v14.84v14.84h7.421v-14.84h58.426c0.611-2.372,0.937-4.858,0.937-7.421  C145.391,347.345,145.066,344.859,144.456,342.487z"/><polygon fill="#d80027" points="288 85.33 224 85.33 224 223.996 0 223.996 0 287.996 224 287.996 224 426.662 288 426.662 288 287.996 512 287.996 512 223.996 288 223.996"/></svg>