<svg xmlns="http://www.w3.org/2000/svg" enable-background="new 0 0 512 512" viewBox="0 0 512 512"><rect width="512" height="341.337" y="85.333" fill="#ffda44"/><polyline fill="#d80027" points="0 85.33 512 85.33 512 426.662"/><path fill="#ff9811" d="M300.611,300.621c-7.011,2.754-15.156,2.462-22.223-1.505c-12.486-7.008-16.944-22.871-9.934-35.359  l-2.128-1.193c21.38-5.156,37.199-24.562,36.922-47.464c-0.173-14.238-6.535-26.976-16.486-35.692l-15.582,15.963  c5.891,4.695,9.71,11.896,9.808,19.998c0.174,14.319-11.335,26.111-25.653,26.285l0.029,2.439  c-15.155-15.937-39.87-19.932-59.565-8.242c-12.243,7.269-20.093,19.147-22.667,32.124l21.616,5.513  c1.121-7.45,5.447-14.357,12.414-18.494c12.314-7.309,28.28-3.239,35.59,9.076l2.098-1.244  c-6.225,21.092,2.671,44.494,22.644,55.706c12.417,6.969,26.627,7.828,39.154,3.568L300.611,300.621z M255.511,256.491  L255.511,256.491L255.511,256.491L255.511,256.491z"/><path fill="#ffeacf" d="M319.191,200.915l-12.062,43.047l-36.194-6.684l-23.297-48.023L184.7,211.589l-4.964-13.986  l-16.466-2.029l12.407,34.966l43.313-11.077l12.309,34.686l-29.941,44.187l50.81,43.337l-9.631,11.292l6.476,15.277l24.078-28.229  l-31.249-31.97l23.885-28.002l53.238,3.837l12.127-65.673l14.594,2.695l9.993-13.247L319.191,200.915z M255.987,257.156v0.001  V257.156L255.987,257.156z"/></svg>