<svg xmlns="http://www.w3.org/2000/svg" enable-background="new 0 0 512 512" viewBox="0 0 512 512"><rect width="512" height="341.337" y="85.333" fill="#d80027"/><rect width="489.739" height="319.076" x="11.13" y="96.464" fill="#0052b4"/><polygon fill="#d80027" points="131.2 255.996 256 177.554 380.8 255.996 256 334.439"/><polygon fill="#d80027" points="250.435 85.33 250.435 250.431 0 250.431 0 261.561 250.435 261.561 250.435 426.662 261.565 426.662 261.565 261.561 512 261.561 512 250.431 261.565 250.431 261.565 85.33"/><polygon fill="#f0f0f0" points="152.116 255.996 256 190.702 359.884 255.996 256 321.292"/><polygon fill="#6da544" points="325.02 277.901 312.654 285.681 196.641 285.681 197.287 284.39 211.478 255.996 226.315 270.833 256 270.833 270.837 248.572 285.685 255.996 300.522 241.159"/><polygon fill="#ffda44" points="256 211.474 259.684 222.812 271.604 222.812 261.96 229.817 265.645 241.156 256 234.148 246.355 241.156 250.04 229.817 240.396 222.812 252.316 222.812"/></svg>