<svg xmlns="http://www.w3.org/2000/svg" enable-background="new 0 0 512 512" viewBox="0 0 512 512"><rect width="512" height="341.326" y="85.337" fill="#f0f0f0"/><rect width="512" height="113.775" y="199.112" fill="#0052b4"/><rect width="512" height="113.775" y="312.888" fill="#d80027"/><path fill="#f0f0f0" d="M233.606,196.639v14.837c0,34.081-44.522,44.522-44.522,44.522s-44.522-10.44-44.522-44.522v-14.837  l-0.145-44.188l89.043-0.266L233.606,196.639z"/><path fill="#0052b4" d="M233.606,196.639v14.837c0,34.081-44.522,44.522-44.522,44.522s-44.522-10.44-44.522-44.522v-14.837  l-0.145-44.188l89.043-0.266L233.606,196.639z"/><path fill="#f0f0f0" d="M233.606,196.639v14.837c0,34.081-44.522,44.522-44.522,44.522s-44.522-10.44-44.522-44.522v-14.837  l14.848,14.837l29.674-22.261l29.685,22.261L233.606,196.639z"/></svg>