<svg xmlns="http://www.w3.org/2000/svg" enable-background="new 0 0 512 512" viewBox="0 0 512 512"><rect width="512" height="341.337" y="85.331" fill="#fff"/><path fill="#d80027" d="M318.33,255.994c0,15.583-27.906,54.539-62.33,54.539s-62.33-38.957-62.33-54.539  c0-34.424,27.906-62.33,62.33-62.33S318.33,221.57,318.33,255.994z"/><path fill="#0052b4" d="M318.33,255.994c0,34.424-27.906,62.33-62.33,62.33s-62.33-27.906-62.33-62.33"/><rect width="23.374" height="15.582" x="324.205" y="300.55" transform="rotate(-45.001 335.89 308.347)"/><rect width="23.374" height="15.582" x="296.657" y="328.085" transform="rotate(-45.001 308.341 335.882)"/><rect width="23.374" height="15.582" x="357.26" y="333.586" transform="rotate(-45.001 368.945 341.383)"/><rect width="23.374" height="15.582" x="329.712" y="361.143" transform="rotate(-45.001 341.397 368.94)"/><rect width="23.374" height="15.582" x="340.732" y="317.068" transform="rotate(-45.001 352.417 324.865)"/><rect width="23.374" height="15.582" x="313.185" y="344.614" transform="rotate(-45.001 324.869 352.41)"/><rect width="62.33" height="15.582" x="307.483" y="165.555" transform="rotate(-134.999 338.65 173.348)"/><rect width="23.374" height="15.581" x="296.656" y="168.315" transform="rotate(-134.999 308.344 176.107)"/><rect width="23.374" height="15.581" x="324.193" y="195.864" transform="rotate(-134.999 335.88 203.657)"/><rect width="23.374" height="15.582" x="329.693" y="135.257" transform="rotate(-134.999 341.38 143.05)"/><rect width="23.374" height="15.582" x="357.252" y="162.807" transform="rotate(-134.999 368.94 170.6)"/><rect width="62.33" height="15.582" x="125.671" y="347.369" transform="rotate(45.001 156.84 355.16)"/><rect width="23.374" height="15.581" x="175.435" y="344.62" transform="rotate(45.001 187.126 352.41)"/><rect width="23.374" height="15.582" x="147.898" y="317.072" transform="rotate(45.001 159.59 324.863)"/><rect width="62.33" height="15.582" x="158.724" y="314.322" transform="rotate(45.001 189.894 322.113)"/><rect width="62.33" height="15.582" x="125.672" y="149.023" transform="rotate(134.999 156.838 156.815)"/><rect width="62.33" height="15.582" x="142.182" y="165.56" transform="rotate(134.999 173.348 173.351)"/><rect width="62.33" height="15.581" x="158.712" y="182.089" transform="rotate(134.999 189.878 189.88)"/></svg>