<svg xmlns="http://www.w3.org/2000/svg" enable-background="new 0 0 512 512" viewBox="0 0 512 512"><rect width="512" height="341.326" y="85.337" fill="#f0f0f0"/><polygon points="114.024 256.001 0 141.926 0 370.096"/><polygon fill="#ffda44" points="161.192 256 0 94.7 0 141.926 114.024 256.001 0 370.096 0 417.234"/><path fill="#6da544" d="M509.833,289.391L509.833,289.391c0.058-0.44,0.804-0.878,2.167-1.318V256v-33.391h-2.167H222.602  L85.33,85.337H0V94.7L161.192,256L0,417.234v9.429h85.33l137.272-137.272H509.833z"/><polygon fill="#0052b4" points="503.181 322.783 236.433 322.783 132.552 426.663 512 426.663 512 322.783"/><polygon fill="#d80027" points="503.181 189.217 512 189.217 512 85.337 132.552 85.337 236.433 189.217"/></svg>