<svg xmlns="http://www.w3.org/2000/svg" enable-background="new 0 0 512 512" viewBox="0 0 512 512"><rect width="512" height="341.337" y="85.331" fill="#ffda44"/><rect width="467.478" height="296.815" x="22.261" y="107.592" fill="#d80027"/><polygon fill="#0052b4" points="370.111 404.4 489.739 404.4 489.739 334.137 256 263.873 311.983 355.35"/><polygon fill="#0052b4" points="489.739 167.017 256 263.873 489.739 263.873"/><polygon fill="#0052b4" points="320.76 107.589 256 263.873 412.284 107.589"/><polygon fill="#0052b4" points="191.24 107.589 256 263.873 256 107.589"/><polygon fill="#0052b4" points="22.261 107.589 22.261 167.017 256 263.873 99.715 107.589"/><polygon fill="#0052b4" points="22.261 263.873 22.261 334.136 256 263.873"/><path fill="#ffda44" d="M258.469,266.281l48.717,33.919c8.681-12.468,12.605-28.247,9.716-44.383  c-5.779-32.272-36.625-53.748-68.896-47.969c-32.272,5.779-53.748,36.625-47.969,68.896c2.889,16.136,12.045,29.572,24.514,38.253  L258.469,266.281z"/><polygon fill="#f0f0f0" points="492.208 404.299 24.73 404.299 258.469 266.281"/><path fill="#ffda44" d="M281.971,351.718c0,14.344-11.628,18.551-25.971,18.551c-14.343,0-25.971-4.207-25.971-18.551  s11.628-25.971,25.971-25.971C270.343,325.748,281.971,337.375,281.971,351.718z"/><path fill="#0052b4" d="M281.971,351.718c0,14.344-11.628,25.971-25.971,25.971c-14.343,0-25.971-11.628-25.971-25.971"/></svg>