<svg xmlns="http://www.w3.org/2000/svg" enable-background="new 0 0 512 512" viewBox="0 0 512 512"><rect width="512" height="341.337" y="85.333" fill="#338af3"/><polygon fill="#ffda44" points="321.691 333.909 325.375 345.247 337.296 345.247 327.652 352.253 331.336 363.591 321.691 356.584 312.047 363.591 315.731 352.253 306.087 345.247 318.008 345.247"/><polygon fill="#ffda44" points="416.628 259.706 420.312 271.044 432.232 271.044 422.588 278.05 426.272 289.387 416.628 282.381 406.984 289.387 410.668 278.05 401.023 271.044 412.944 271.044"/><polygon fill="#ffda44" points="440.416 148.402 444.1 159.739 456.021 159.739 446.377 166.746 450.061 178.083 440.416 171.076 430.772 178.083 434.456 166.746 424.812 159.739 436.732 159.739"/><polygon fill="#ffda44" points="446.309 230.025 449.992 241.363 461.913 241.363 452.27 248.369 455.954 259.706 446.309 252.699 436.665 259.706 440.349 248.369 430.704 241.363 442.625 241.363"/><polygon fill="#ffda44" points="338.785 307.245 349.408 312.657 357.836 304.228 355.971 316.001 366.593 321.413 354.818 323.278 352.954 335.052 347.542 324.43 335.768 326.296 344.198 317.867"/><polygon fill="#ffda44" points="338.785 262.723 349.408 268.135 357.836 259.706 355.971 271.48 366.593 276.891 354.818 278.757 352.954 290.53 347.542 279.909 335.768 281.774 344.198 273.345"/><polygon fill="#ffda44" points="375.886 291.262 386.509 296.673 394.938 288.244 393.074 300.018 403.694 305.43 391.919 307.295 390.055 319.069 384.644 308.447 372.87 310.313 381.299 301.884"/><polygon fill="#ffda44" points="375.886 195.941 386.509 201.352 394.938 192.923 393.074 204.697 403.694 210.109 391.919 211.974 390.055 223.748 384.644 213.126 372.87 214.992 381.299 206.562"/><polygon fill="#ffda44" points="411.844 194.798 422.467 200.209 430.896 191.781 429.031 203.554 439.652 208.966 427.877 210.831 426.013 222.605 420.602 211.983 408.828 213.848 417.257 205.419"/><rect width="256" height="170.663" y="85.333" fill="#f0f0f0"/><polygon fill="#d80027" points="144 85.33 112 85.33 112 154.663 0 154.663 0 186.663 112 186.663 112 255.996 144 255.996 144 186.663 256 186.663 256 154.663 144 154.663"/><polygon fill="#0052b4" points="196.892 200.344 256 233.182 256 200.344"/><polygon fill="#0052b4" points="155.826 200.344 256 255.996 256 240.259 184.153 200.344"/><polygon fill="#0052b4" points="229.317 255.996 155.826 215.164 155.826 255.996"/><polygon fill="#f0f0f0" points="155.826 200.344 256 255.996 256 240.259 184.153 200.344"/><polygon fill="#d80027" points="155.826 200.344 256 255.996 256 240.259 184.153 200.344"/><polygon fill="#0052b4" points="45.171 200.343 0 225.439 0 200.343"/><polygon fill="#0052b4" points="100.174 207.421 100.174 255.996 12.745 255.996"/><polygon fill="#d80027" points="71.846 200.344 0 240.259 0 255.996 0 255.996 100.174 200.344"/><polygon fill="#0052b4" points="59.108 140.982 0 108.144 0 140.982"/><polygon fill="#0052b4" points="100.174 140.982 0 85.33 0 101.067 71.847 140.982"/><polygon fill="#0052b4" points="26.683 85.33 100.174 126.162 100.174 85.33"/><polygon fill="#f0f0f0" points="100.174 140.982 0 85.33 0 101.067 71.847 140.982"/><polygon fill="#d80027" points="100.174 140.982 0 85.33 0 101.067 71.847 140.982"/><polygon fill="#0052b4" points="210.829 140.983 256 115.888 256 140.983"/><polygon fill="#0052b4" points="155.826 133.906 155.826 85.331 243.255 85.331"/><polygon fill="#d80027" points="184.154 140.982 256 101.067 256 85.33 256 85.33 155.826 140.982"/></svg>