<svg xmlns="http://www.w3.org/2000/svg" enable-background="new 0 0 512 512" viewBox="0 0 512 512"><rect width="512" height="341.337" y="85.331" fill="#338af3"/><path fill="#f0f0f0" d="M256.248,197.043c-32.628,0-59.077,26.449-59.077,59.077s26.449,59.077,59.077,59.077   c32.627,0,59.077-26.449,59.077-59.077C315.325,223.492,288.874,197.043,256.248,197.043z M241.478,256.12   c0-8.156,6.613-14.769,14.769-14.769c8.156,0,14.769,6.613,14.769,14.769c0,8.158-6.613,14.769-14.769,14.769   C248.091,270.889,241.478,264.277,241.478,256.12z M271.56,230.855c-2.292-1.392-4.792-2.473-7.437-3.204v-15.127   c6.662,1.195,12.804,3.876,18.076,7.692L271.56,230.855z M249.355,227.398c-2.771,0.662-5.389,1.715-7.796,3.098l-10.689-10.689   c5.404-3.783,11.685-6.397,18.483-7.46v15.051H249.355z M241.559,281.744c2.406,1.381,5.024,2.434,7.795,3.098v15.049   c-6.798-1.062-13.079-3.676-18.483-7.46L241.559,281.744z M264.124,284.589c2.646-0.73,5.144-1.812,7.436-3.204l10.638,10.638   c-5.271,3.817-11.414,6.497-18.075,7.692V284.589z M281.87,270.808c1.301-2.264,2.317-4.714,2.985-7.304h15.075   c-1.11,6.609-3.68,12.719-7.372,17.991L281.87,270.808z M284.856,248.735c-0.667-2.59-1.684-5.039-2.985-7.303l10.689-10.689   c3.692,5.272,6.262,11.382,7.372,17.991H284.856z M220.345,230.168l10.638,10.638c-1.479,2.434-2.616,5.099-3.344,7.928h-15.075   C213.714,241.884,216.435,235.57,220.345,230.168z M212.565,263.504h15.075c0.728,2.829,1.865,5.494,3.344,7.928l-10.638,10.638   C216.435,276.67,213.714,270.356,212.565,263.504z"/><path fill="#f0f0f0" d="M352.248,256.12c0-26.259-10.547-50.052-27.631-67.385L308.952,204.4   c13.075,13.323,21.143,31.578,21.143,51.72c0,40.784-33.063,73.846-73.846,73.846c-40.785,0-73.846-33.062-73.846-73.846   c0-20.393,8.265-38.854,21.629-52.217l-15.665-15.665c-17.372,17.372-28.118,41.373-28.118,67.882   c0,43.931,29.509,80.969,69.787,92.377c-4.415,8.389-3.743,18.951,2.564,26.822c8.285-6.64,16.864-13.515,24.141-19.346   c7.277,5.831,15.855,12.705,24.141,19.346c6.371-7.95,6.998-18.646,2.434-27.075C323.153,336.558,352.248,299.739,352.248,256.12z"/></svg>