<svg xmlns="http://www.w3.org/2000/svg" enable-background="new 0 0 512 512" viewBox="0 0 512 512"><rect width="512" height="341.326" y="85.337" fill="#f0f0f0"/><rect width="512" height="170.663" y="256" fill="#496e2d"/><path fill="#d80027" d="M377.332,199.376c-6.62-18.777-24.511-32.239-45.554-32.239h-41.4  c-26.674,0-48.299,21.624-48.299,48.299c0,8.715,2.32,17.091,6.358,24.15c-15.373-0.126-29.601,0.106-38.557,0  c0-18.627,0-42.357,0-47.322l1.902-1.902c8.539-8.539,5.691-22.77,5.691-22.77s-14.229-2.846-22.767,5.693l-9.952,9.952h-11.099  c-24.452,0-44.274,19.822-44.274,44.274h32.199v36.224c0,5.298,1.069,10.346,2.999,14.943l-11.048,9.207h-16.1v-16.1h-16.1v32.199  h72.448v32.199h-16.1v16.1h32.199v-32.199l14.758-17.71h34.883l14.758,17.71v16.1h-16.1v16.1h64.398v-88.548  c0-13.338,10.812-24.15,24.15-24.15c0.343,0,0.682,0.012,1.022,0.026c-0.667-2.581-1.022-5.287-1.022-8.076  C346.726,214.288,360.289,200.209,377.332,199.376z M290.377,336.184v-33.809h1.342l14.758,17.71v16.1h-16.1V336.184z"/></svg>