<svg xmlns="http://www.w3.org/2000/svg" enable-background="new 0 0 512 512" viewBox="0 0 512 512"><rect width="512" height="341.337" y="85.331" fill="#496e2d"/><path fill="#ff9811" d="M490.668,195.476h-48c0-8.836-7.164-16-16-16s-16,7.164-16,16h-48c0,8.836,7.697,16,16.533,16h-0.533  c0,8.836,7.162,16,16,16c0,8.836,7.162,16,16,16h32c8.836,0,16-7.164,16-16c8.836,0,16-7.164,16-16h-0.533  C482.972,211.476,490.668,204.312,490.668,195.476z"/><rect width="56.888" height="170.663" x="341.337" y="255.994" fill="#d80027"/><rect width="56.888" height="170.663" x="455.112" y="255.994" fill="#ff9811"/><rect width="56.888" height="170.663" x="398.225" y="255.994"/></svg>