<svg xmlns="http://www.w3.org/2000/svg" enable-background="new 0 0 512 512" viewBox="0 0 512 512"><rect width="512" height="341.337" y="85.333"/><rect width="512" height="48.868" y="134.196" fill="#ffda44"/><rect width="512" height="48.868" y="329.668" fill="#ffda44"/><rect width="512" height="48.868" y="85.333" fill="#6da544"/><rect width="512" height="48.868" y="183.069" fill="#d80027"/><rect width="512" height="48.868" y="280.806" fill="#d80027"/><rect width="512" height="48.128" y="378.542" fill="#6da544"/><polygon fill="#f0f0f0" points="276.992 255.996 106.329 426.659 0 426.659 0 85.333 106.329 85.333"/><polygon points="256 255.996 85.334 426.662 106.321 426.662 276.988 255.996 106.321 85.33 85.334 85.33"/><polygon fill="#d80027" points="102.465 202.57 115.724 243.382 158.641 243.382 123.923 268.608 137.183 309.422 102.465 284.198 67.745 309.422 81.007 268.608 46.289 243.382 89.204 243.382"/><path fill="#ffda44" d="M138.94,259.335l-34.559-12.243c0,0-2.553-23.955-2.708-24.766  c-1.173-6.18-6.603-10.851-13.123-10.851c-7.376,0-13.357,5.98-13.357,13.357c0,1.223,0.178,2.402,0.486,3.528l-9.689,9.755  c0,0,11.509,0,17.229,0c0,17.882-13.344,17.882-13.344,35.691l7.402,17.809h44.522l7.422-17.809h-0.004  c0.744-1.709,1.194-3.47,1.381-5.231C136.995,265.986,138.94,259.335,138.94,259.335z"/></svg>