<svg xmlns="http://www.w3.org/2000/svg"  viewBox="0 0 48 48" width="1600px" height="1600px"><path fill="#455A64" d="M25.5,20.1c0.2-1.1,1-2.2,1-2.2h4.8c-1.8,4.7-5.9,6.2-8.2,13.1h3.9c1-5.4,8.1-9.4,8.1-15H24.9c0,0-1.6,3-1.6,4.1L25.5,20.1L25.5,20.1z M7.4,16C3.3,16,0,21.5,0,26c0,1.4,0.6,5,3.9,5C8,31,11,25.4,11,21.2C11,17.1,8.6,16,7.4,16z M3.1,29.5c-0.5,0-0.6-0.8-0.6-1.4c0-2.2,3.3-10.7,5.1-10.7c0.1,0,0.6,0.2,0.6,1.5C8.2,23.2,4.4,29.5,3.1,29.5z M18.7,16c-4.1,0-7.4,5.5-7.4,10c0,1.4,0.6,5,3.9,5c4.1,0,7.1-5.6,7.1-9.8C22.3,17.1,19.9,16,18.7,16z M14.4,29.5c-0.5,0-0.6-0.8-0.6-1.4c0-2.2,3.3-10.7,5.1-10.7c0.1,0,0.6,0.2,0.6,1.5C19.5,23.2,15.7,29.5,14.4,29.5z M48,16c0,0,0,1.3-1.1,2.2h-2.6c-0.4,0-0.9,0.4-1.1,0.8h-7.4c0.5-1.3,0.7-3,0.7-3H48z M42.4,20c-0.2,0.3-0.6,0.6-1,0.6c-0.7,0-1.1,0.1-1.3,0.5c-0.2,0.4-1.1,1.9-1.4,2.4c-0.3,0.5-0.9,1.4-1.9,1.4S32,25,32,25l0.8-1h3.5c0,0,0.8,0,1.1-0.5c0.4-0.5,1.2-2.4,1.2-2.4h-2.3c0,0-0.3,0.3-0.3,0.8s0.2,1.2,0.2,1.2s-1.1-1.2-1.1-2c0-0.5,0.1-0.9,0.2-1.1H42.4z"/></svg>