<svg xmlns="http://www.w3.org/2000/svg"  viewBox="0 0 48 48" width="1600px" height="1600px" clip-rule="evenodd"><path fill="#00a6f6" fill-rule="evenodd" d="M3.961,21.961l-2-3l2-7c4.951,1.284,10.12,1.263,15-0.016	l0.5,1.016h7.5c1.74,0,4.5,2.285,4.5,2.285v-3.5l7.5,5.215l2-4h6v19l-5,6l-6-4l-1,3h-5v-2.188c0,0-2,2.188-4.5,2.188h-11l-1.5-1.5	v1.5h-5l-7-6L3.961,21.961z" clip-rule="evenodd"/><polygon fill="#dff4ff" fill-rule="evenodd" points="32.961,29.961 36.961,29.961 36.961,22.961 45.961,29.961 45.961,14.961 41.961,14.961 41.961,21.961 32.961,14.961" clip-rule="evenodd"/><path fill="#dff4ff" fill-rule="evenodd" d="M23.961,18.961v6.5c0,0,5,0.164,5-3.214	C28.961,18.591,23.961,18.961,23.961,18.961z M19.961,29.461V14.689h6c0,0,6.939,0.272,6.72,7.272s-6.72,7.5-6.72,7.5H19.961z" clip-rule="evenodd"/><path fill="#dff4ff" fill-rule="evenodd" d="M11.461,18.961l-4,11h-4.5l4-11.5l-3-0.5l1-4	c0,0,3.558,1,6.365,1c4,0,6.635-1,6.635-1l1,4c-0.994,0.199-2.094,0.373-3.398,0.5l4.033,11.5h-8.635l-1.5-4h4.5L11.461,18.961z" clip-rule="evenodd"/></svg>