<svg xmlns="http://www.w3.org/2000/svg"  viewBox="0 0 48 48" width="1600px" height="1600px"><path fill="#33691E" d="M24,24H4V4h20V24z M44,24H24v20h20V24z"/><path fill="#FFF" d="M7,8h5.2c1.8,0,3.3,1.4,3.3,3.2c0,1.2-0.7,2.5-1.9,2.8v0c1.5,0.2,2.4,1.4,2.4,2.7c0,2.7-2,3.3-4.3,3.3H7V8z M9,13h2.5c0.9,0,1.7-0.4,1.7-1.5c0-0.9-0.5-1.5-1.7-1.5H9V13z M9,18.2h2.8c1.3,0,2-0.4,2-1.5c0-1.2-0.8-1.6-2-1.6H9V18.2z M26,28h5.2c1.8,0,3.3,1.4,3.3,3.2c0,1.2-0.7,2.5-1.9,2.8v0c1.5,0.2,2.4,1.4,2.4,2.7c0,2.7-2,3.3-4.3,3.3H26V28z M28,33h2.5c0.9,0,1.7-0.4,1.7-1.5c0-0.9-0.5-1.5-1.7-1.5H28V33z M28,38.2h2.8c1.3,0,2-0.4,2-1.5c0-1.2-0.8-1.6-2-1.6H28V38.2z M17,12h2v1.3h0c0.4-0.9,1-1.3,2-1.3v2c-1.2,0-2,0.5-2,2.2V20h-2V12z M42,38.5c0,0.8,0.2,1.1,0.2,1.3h-1.6c-0.1-0.2-0.2-0.5-0.2-0.7c-0.6,0.6-1.3,0.9-2.1,0.9c-1.2,0-2.4-0.9-2.4-2.4c0-1.5,1.2-2.2,2.1-2.4l0.6-0.2c0.6-0.1,1.3-0.3,1.7-0.5v-0.2c0-0.8-0.5-1-1.2-1c-0.9,0-1.2,0.3-1.2,1.1l-1.5-0.1c0-1.8,1.3-2.5,2.7-2.5c1.4,0,2.8,0.3,2.8,2.5L42,38.5L42,38.5z M39.5,36.5l-0.6,0.2c-0.4,0.1-0.8,0.3-0.8,0.8c0,0.5,0.4,0.8,0.8,0.8c0.5,0,1.2-0.3,1.2-1.1v-0.9C40,36.2,39.7,36.4,39.5,36.5z"/></svg>