<svg xmlns="http://www.w3.org/2000/svg"  viewBox="0 0 48 48" width="1600px" height="1600px"><path fill="#d7ccc8" d="M6.978,18.386c0,0-4.887,3.162-6.372,6.324c1.773,0.719,4.072,1.629,4.072,1.629L5.138,32l10.703-6	v-7.902L6.978,18.386z"/><path fill="#d7ccc8" d="M41.469,18.386c0,0,4.887,3.162,6.372,6.324c-1.773,0.719-4.072,1.629-4.072,1.629L42.83,32	l-10.223-6v-7.902L41.469,18.386z"/><path fill="#ffecb3" d="M3.986,14.994l5.866,9.482c9.871-3.912,19.443-3.928,28.697,0.144l5.467-9.626	C33.04,3.444,12.008,5.265,3.986,14.994z"/><polygon fill="#d50000" points="13.238,18.631 11.992,19.27 12.695,20.963 12.089,21.199 8.845,13.854 9.565,13.361 10.172,14.767 11.417,14.128 10.555,11.796 8.546,13.175 8.543,13.17 7.297,14.032 11.002,22.432 13.973,21.027"/><polygon fill="#d50000" points="17.294,19.238 15.921,19.685 14.869,15.898 16.56,15.31 16.336,14.543 14.651,15.113 13.685,11.637 15.538,10.934 15.282,9.784 11.96,11.221 14.835,20.899 17.518,20.196"/><polygon fill="#d50000" points="17.039,9.433 18.668,20.005 19.753,19.813 19.434,16.14 20.935,19.589 21.893,19.494 21.542,8.698 20.233,8.826 20.52,14.447 18.604,9.114"/><polygon fill="#d50000" points="27.195,8.794 22.34,8.762 22.277,9.752 23.842,9.742 23.873,19.43 25.279,19.43 25.432,9.731 27.099,9.72"/><path fill="#d50000" d="M28.632,8.954l-1.82,10.572l0.99,0.16l0.798-3.098l0.096,3.29l1.182,0.096v-4.791	c0,0,1.884-0.926,2.076-3.417C32.146,9.273,28.632,8.954,28.632,8.954z M30.421,12.755c-0.479,1.565-1.469,1.629-1.469,1.629	l0.798-3.737C30.165,10.774,30.9,11.19,30.421,12.755z"/><polygon fill="#d50000" points="34.509,10.487 30.613,20.196 31.73,20.452 34.317,14.735 33.902,20.867 35.052,21.25 36.106,10.998"/><polygon fill="#d50000" points="32.561,17.769 34.669,18.503 34.285,19.43 31.89,18.567"/><polygon fill="#d50000" points="38.853,12.244 35.595,21.442 38.182,22.655 38.725,21.793 37.288,20.963 40.13,13.074"/><path fill="#388e3c" d="M35.067,41H13.055c-4.423,0-8.008-3.585-8.008-8.008v0c0-4.423,3.585-8.008,8.008-8.008h22.012	c4.423,0,8.008,3.585,8.008,8.008v0C43.075,37.415,39.49,41,35.067,41z"/><polygon fill="#fafafa" points="16.879,28.839 17.55,28.839 17.55,34.109 16.879,34.109 16.879,35.163 17.55,35.163 17.55,37.367 16.879,37.367 16.879,38.421 22.82,38.421 22.82,37.367 20.584,37.367 20.584,35.163 22.82,35.163 22.82,34.109 20.584,34.109 20.584,28.839 22.82,28.839 22.82,27.785 16.879,27.785"/><path fill="#fafafa" d="M10.667,26.907v1.043c0.194,0.059,0.416,0.132,0.653,0.218l-0.02,6.61 c-0.227,0.094-0.441,0.177-0.633,0.248v1.064c0.151-0.051,0.37-0.128,0.63-0.227l-0.008,2.526h3.066v-4.065 c1.148-0.78,2.096-1.784,2.066-2.975C16.349,28.55,11.286,27.077,10.667,26.907z M14.356,33.064V29.74 c0.609,0.484,1.037,1.036,1.052,1.635C15.423,31.965,14.99,32.542,14.356,33.064z"/><path fill="#fafafa" d="M30.147,31.35c-0.073-2.799-5.135-4.273-5.754-4.443v1.043c0.14,0.043,0.298,0.095,0.462,0.151 l-0.02,6.754c-0.155,0.062-0.305,0.12-0.442,0.17v1.064c0.111-0.037,0.265-0.092,0.438-0.155l-0.007,2.454h3.066v-2.51l1.389,2.526 h1.725l-2.514-4.377C29.444,33.295,30.173,32.394,30.147,31.35z M27.89,33.212v-3.616c0.709,0.518,1.227,1.12,1.244,1.779 C29.15,32.022,28.624,32.652,27.89,33.212z"/><polygon fill="#fafafa" points="38.765,28.201 36.992,28.201 34.605,31.107 34.605,28.169 31.603,28.137 31.603,34.761 31.147,35.315 31.195,36.393 31.603,36.393 31.603,38.421 34.605,38.421 34.605,33.674 37.208,38.405 38.693,38.405 35.279,32.282"/><path fill="#fafafa" d="M8.415,32.273c-0.45,0-0.814,0.365-0.814,0.814c0,0.45,0.365,0.814,0.814,0.814 c0.45,0,0.814-0.365,0.814-0.814C9.23,32.637,8.865,32.273,8.415,32.273z"/><circle cx="39.292" cy="33.087" r=".814" fill="#fafafa"/></svg>