<svg xmlns="http://www.w3.org/2000/svg"  viewBox="0 0 48 48" width="1600px" height="1600px"><path fill="#F4511E" d="M5.006 22.071c.031.275-.27.146-.698.032-1.062-.18-2.248-.122-3.118.58-.68.549-1.033 1.389-1.145 2.236-.108.818-.02 1.685.279 2.456.202.521.525.999 1.027 1.271C1.881 28.934 2.507 29 3.101 29c1.258 0 2.098-.719 2.139-.749v.5H7V19H5.009L5.006 22.071zM2.25 27.219c-.676-.762-.487-2.912.274-3.513.646-.509 1.617-.294 2.49-.013l.007 3.487C5.021 27.179 2.847 27.891 2.25 27.219zM9 22.75H10.875V29H9zM9 20H10.875V21.75H9zM24.919 22.399c-.725-.499-2.382-.556-3.11-.042-.334.141-.832.52-.832.52l-.005-.476V19.01L19 19v9.997h1.961V24.59c1.142-1.663 3.055-1.18 3.236 0v4.404l1.787-.006v-4.382C25.948 23.808 25.643 22.897 24.919 22.399zM33.855 22h-2.923l-.002-3h-1.92l.002 3h-.897c-.077.007-.095.067-.095.141v1.732c-.003.054.016.112.065.115h.926c0 .143-.002 1.529-.002 2.3 0 .796-.065 1.578.628 2.173.505.434 1.161.482 1.809.523.708.045 1.45.005 2.15-.099 0 0 .453-.795-.027-1.363-.72.114-1.705.084-1.988-.05-.357-.168-.652-.589-.652-.973 0-.002.002-2.511.002-2.511h2.901c.077-.009.141-.024.141-.13l-.009-1.713C33.966 22.045 33.937 22.001 33.855 22zM15.853 25.022c-1.563-.122-2.328-.373-2.353-1.005-.018-.445 1.324-.743 2.533-.047.578 0 1.041 0 1.62 0 .169-.201.187-.444.099-.685-.073-.201-.216-.373-.379-.519-.366-.329-.835-.54-1.328-.654-.099-.023-.962-.175-2.116-.043-.588.068-1.196.178-1.667.518-.611.442-.897 1.273-.64 1.964.258.694.954 1.117 1.673 1.312 1.656.535 2.63.703 2.623 1.217-.009.63-1.891.858-2.623.065h-1.578c-.06.285-.117.581.063.838.118.168.293.293.473.401 1.114.671 2.329.671 3.6.523C18.879 28.566 18.547 25.317 15.853 25.022zM46.033 16.527c-.336.56-.71 1.12-1.094 1.68 3.696 3.706.077 7.235-2.698 10.79C46.964 25.104 50.305 21.104 46.033 16.527zM42.913 16.687c.442-.524.902-1.031 1.354-1.52-10.761-5.599-25.814 1.075-33.705 4.053C19.585 16.083 34.84 12.145 42.913 16.687zM37.656 25.498c-.211.254-.48.656-.72.542V22h-1.92v6.848c.384.201 1.546.192 1.997 0L41.156 22h-1.363L37.656 25.498zM40.532 20.998h1.238c1.421-2.009 3.197-4.231 4.138-6.204C44.084 16.607 42.241 18.953 40.532 20.998z"/></svg>