<svg xmlns="http://www.w3.org/2000/svg"  viewBox="0 0 48 48" width="1600px" height="1600px"><path fill="#1976D2" d="M2,38v1v1H0v-1v-1c0-12.3,9.6-22.9,21.9-23.9c0.5-0.1,1,0.4,1.1,0.9c0,0.6-0.4,1-0.9,1.1C10.8,17.1,2,26.7,2,38z M33.4,15.9c-0.5-0.2-1.1,0-1.3,0.5c-0.2,0.5,0,1.1,0.5,1.3C40.7,21.2,46,29.2,46,38v1v1h2v-1v-1C48,28.4,42.3,19.7,33.4,15.9z M13.5,29c-0.2,0-0.3,0.1-0.4,0.3C13,29.8,13,30.1,13,30.7c0,0.2,0.1,0.3,0.3,0.3c1.4,0,23,0,25.4,0c0.4,0,0.4,0,0.2-0.4c-0.2-0.4-0.1-0.7-0.2-1c-0.1-0.2-0.2-0.3-0.3-0.4c-0.2-0.2-0.4-0.2-0.6,0c-0.1,0.1-0.2,0.2-0.3,0.3c-0.1,0.1-0.2,0.1-0.3,0C37,29.1,36.7,29,36.3,29C36.3,29,19.8,29,13.5,29z M33.5,26.5c-0.1-0.3-0.3-0.5-0.6-0.5l-14.2,0c-0.2,0-0.3,0.1-0.4,0.2c-0.1,0.3-0.3,0.5-0.5,0.7c-0.1,0.1-0.3,0.3-0.5,0.2c-0.2-0.1-0.2-0.4-0.1-0.6c0-0.1,0.1-0.1,0.1-0.2c0.2-0.4,0.2-0.4-0.2-0.4h-3.9C13,26,13,26,13,26.2c0.1,0.4,0.2,0.9,0.2,1.3c0,0.5,0,0.5,0.5,0.5h20.1c0.2,0,0.3-0.1,0.2-0.3C33.7,27.3,33.6,26.9,33.5,26.5z M22.4,19c-0.2,0-0.4,0.3-0.4,0.4c-0.2,0.8-0.4,0.9-0.8,1.7c0,0.1-0.1,0.2-0.1,0.3c-0.1,0.3-0.1,0.4,0.2,0.4c0.3,0,0.6,0.1,0.9,0.1h7.6c0.1,0,0.3,0.1,0.3-0.2c0-0.7,0.1-2.2,0-2.6c-0.1-0.2-0.1-0.3-0.3-0.3c-0.9,0-3.4,0-4.3,0c-0.2,0-0.3,0.1-0.3,0.3c0,0.3,0,0.5,0,0.8c0,0.3,0,0.2,0,0.7c0,0.2-0.9,0.2-1.2,0.2c-0.3,0-0.4-0.1-0.4-0.3c-0.3-0.8-0.2-0.6-0.6-1.3C22.8,19.2,22.6,19,22.4,19z M21.4,23c-0.2,0-0.3,0-0.2,0.2c0,0.6,0,0.5-0.1,1.1C21,24.9,21,25,21.6,25h8.7c0.4,0,0.3-0.4,0.3-0.4s0-0.4-0.1-0.9c-0.2-0.6-0.2-0.6-0.7-0.6H21.4z M29.6,15.5c0-0.4-0.2-0.5-0.5-0.5c-0.5,0-1,0-1.5,0c0,0,0,0,0,0c-0.5,0-1,0-1.6,0c-0.4,0-0.5,0.1-0.6,0.6c0,0.3,0,0.6-0.2,0.8c-0.3,0.3-0.3,0.6-0.1,0.9c0.3,0.6,0.5,0.6,0.8,0.6c0.9,0.1,1.9,0.1,2.8,0.1c0.7,0,0.9-0.4,1.1-0.5c0.3-0.4,0.3-0.7,0.1-1.1C29.7,16.1,29.5,15.8,29.6,15.5z M29.3,14c0.8,0,0.8,0,0.5-0.7c-0.7-1.4-1.4-2.7-2.1-4.1c0-0.1-0.1-0.2-0.2-0.2c-0.8,1.7-1.6,3.3-2.5,4.9c0.3,0.1,0.5,0.1,0.8,0.1C27,14,28.1,14,29.3,14z M14,24.7c-0.1,0.2,0,0.3,0.1,0.3C14.6,25,15,25,15.5,25c0.4,0,0.8,0,1.3,0c0.3,0,0.3,0,0.2-0.4c-0.2-0.5-0.4-1-0.6-1.5c-0.1-0.3-0.2-0.5-0.4-0.8c-0.3-0.4-0.8-0.4-1,0.1C14.6,23.1,14.3,23.9,14,24.7z M10.1,31c0.2,0,0.5,0,0.8,0c0.1,0,0.2-0.1,0.1-0.2c-0.2-0.5-0.4-1.1-0.8-1.6c-0.2-0.3-0.5-0.2-0.7,0.1c-0.2,0.5-0.4,1-0.5,1.4c0,0.1,0,0.2,0.2,0.3C9.5,31,9.7,31,10.1,31z M19.5,25c0.1,0,0.2,0,0.3,0c0.2,0,0.2-0.1,0.2-0.4c-0.2-0.8-0.3-1.6-0.5-2.3c0-0.1,0-0.2-0.1-0.2c-0.1,0-0.1,0.1-0.1,0.2c-0.1,0.6-0.2,1.3-0.2,1.9C19,25,19,25,19.5,25z M35.1,28c0.3,0,0.6,0.1,0.9,0c0.2,0,0.4,0,0.6,0c0.4,0,0.4,0,0.3-0.4c0-0.2-0.1-0.3-0.1-0.5c-0.1-0.2-0.6-2.4-0.7-2.9c0-0.1,0-0.2-0.1-0.2c-0.1,0-0.1,0.1-0.1,0.2c-0.1,0.4-0.8,3.1-0.9,3.5C34.9,27.9,35,27.9,35.1,28z M32.1,25c0.1,0,0.3,0,0.4,0c0.2,0,0.3-0.1,0.4-0.3c0.1-0.3,0.1-0.6,0-0.9c-0.1-0.2-0.2-0.6-0.2-0.6c0,0,0,0,0,0c0-0.1-0.7-2-0.8-2.2c0,0.1-0.9,2.6-1,2.6c-0.1,0.1,0,0.3,0,0.4C31.2,25,31.2,25,32.1,25z M28,7.8c0-0.2,0-0.4,0-0.6c-0.1-0.3-0.2-0.1-0.3-0.1c-0.2,0.1-0.5,0.3-0.7,0.4c0,0,0,0.1,0,0.1c0.2,0.1,0.5,0.3,0.7,0.4C27.8,8,27.9,8,28,7.8z M10,27.9c0-0.2,0-0.5,0-0.7C10,27,9.8,27,9.8,27c-0.3,0.1-0.5,0.2-0.8,0.3c0,0,0,0.1,0,0.1c0.2,0.1,0.5,0.3,0.7,0.4C9.8,28,9.9,28.1,10,27.9z M16,20.9c0-0.2,0-0.5,0-0.7c0-0.2-0.1-0.1-0.2-0.1c-0.3,0.1-0.5,0.2-0.8,0.3c0,0,0,0.1,0,0.1c0.2,0.1,0.5,0.3,0.7,0.4C15.8,21,15.9,21.1,16,20.9z M22.8,17c-0.3,0.1-0.5,0.2-0.8,0.3c0,0,0,0.1,0,0.1c0.2,0.1,0.5,0.3,0.7,0.4c0.1,0,0.2,0.1,0.3-0.1c0-0.2,0-0.5,0-0.7C23,17,22.8,17,22.8,17z M36,22.9c0-0.2,0-0.5,0-0.7c0-0.2-0.1-0.1-0.2-0.1c-0.3,0.1-0.5,0.2-0.8,0.3c0,0,0,0.1,0,0.1c0.2,0.1,0.5,0.3,0.7,0.4C35.8,23,35.9,23.1,36,22.9z M31.7,19.9c0.1,0,0.2,0.1,0.3-0.1c0-0.2,0-0.5,0-0.7c0-0.2-0.1-0.1-0.2-0.1c-0.3,0.1-0.5,0.2-0.8,0.3c0,0,0,0.1,0,0.1C31.2,19.7,31.5,19.8,31.7,19.9z M40.7,33.9c0.4,0,0.4-0.1,0.2-0.4c-0.2-0.4-0.5-0.7-0.7-1C40,32.2,39.7,32,39.3,32c-1,0-2.1,0-3.1,0c-4.3,0-16.7,0-18.8,0c-3.1,0-5.8,0-8.9,0c-0.1,0-0.3,0-0.4,0.2c-0.3,0.5-0.7,0.9-1,1.4c-0.2,0.3-0.2,0.3,0.2,0.3C8.3,34,9,34,10,34c3.5,0,8.1,0,11.7,0c0.8-0.6,1.7-1,2.8-1c1.1,0,2,0.4,2.8,1h11.3C39.3,34,39.9,34,40.7,33.9z M40.4,36.7c-0.1-0.4-0.2-1-0.2-1.4c0-0.3-0.1-0.3-0.3-0.3H28.2c0.4,0.6,0.6,1.3,0.7,2c0,0,0,0,0,0h11.2C40.4,37,40.5,36.9,40.4,36.7z M7.8,35.3c0,0.4-0.2,1-0.2,1.4c0,0.3,0,0.3,0.3,0.3h12.3c0.1-0.7,0.3-1.4,0.7-2H8.1C7.8,35,7.7,35,7.8,35.3z M40.8,38.3c0-0.2-0.1-0.3-0.3-0.3H29v2l11.7,0c0.3,0,0.3-0.1,0.2-0.3C40.9,39.3,40.8,38.7,40.8,38.3z M7.2,38.3c-0.1,0.4-0.1,1-0.2,1.4c0,0.2,0,0.3,0.2,0.3L20,40v-2H7.5C7.3,38,7.2,38.1,7.2,38.3z"/></svg>