<svg xmlns="http://www.w3.org/2000/svg"  viewBox="0 0 48 48" width="1600px" height="1600px"><path fill="#263238" d="M4.566,41.297c-0.352,0.19-0.949,0.027-1.22,0.163c-0.271,0.136-0.705,0.244-1.03,0.271	c-0.197,0.016-0.58,0.023-0.854,0.025c0.185-0.666,0.397-1.219,0.501-1.245c0.217-0.054,1.339-0.458,1.748-0.474	c0.691-0.027,0.854-1.247-0.339-0.962c-1.401,0.334-1.247,0.488-1.599,0.515c-0.352,0.027-0.705,0.407-0.759,0.732	c-0.033,0.195-0.202,0.859-0.349,1.464c-0.191,0.065-0.372,0.216-0.396,0.569c-0.018,0.264,0.05,0.441,0.159,0.554	c-0.073,0.658-0.132,2.512-0.308,2.889c-0.19,0.407-0.163,0.976,0.136,1.003c0.298,0.027,0.623-0.759,0.623-0.759	c0-0.732,0.298-1.328,0.244-2.25c-0.013-0.224,0.018-0.531,0.074-0.865c0.035-0.022,0.07-0.042,0.102-0.07	c0.407-0.352,0.678,0.081,1.491-0.434c0.813-0.515,0.664-0.108,1.26-0.352c0.596-0.244,0.529-0.203,0.786-0.285	C5.491,41.579,4.918,41.107,4.566,41.297z"/><path fill="#263238" d="M11.734,43.262c-0.172-0.039-0.664,0.122-1.098-0.068c-0.434-0.19-0.745-0.149-0.989-0.203	c-0.155-0.034-0.29-0.217-0.402-0.363c0.28-0.19,0.505-0.441,0.659-0.518c0.705-0.271,1.138-0.705,1.206-0.867	c0.068-0.163,0.447-0.407,0.203-0.718c-0.244-0.312-1.179-0.461-1.748-0.447c-0.383,0.009-0.998,0.346-1.364,0.568	c-0.002-0.018-0.002-0.035-0.004-0.053c-0.041-0.312-0.623-0.312-0.8,0.122c0,0-0.149,0.339-0.149,0.718	c0,0.38-0.461,1.803-0.474,2.087c-0.014,0.285-0.325,1.26-0.366,1.694c-0.041,0.434-0.203,0.989-0.054,1.477	c0.149,0.488,0.773,0.38,0.718-0.407c-0.054-0.786,0.081-1.044,0.149-1.288c0.068-0.244,0.027-0.745,0.244-1.193	c0.055-0.114,0.11-0.267,0.165-0.441c0.225-0.016,0.562-0.024,0.811,0.062c0.393,0.136,0.989,0.325,1.532,0.285	c0.542-0.041,1.003,0.366,1.599,0.203C12.167,43.75,12.384,43.412,11.734,43.262z M7.892,42.388c0.06-0.242,0.118-0.473,0.169-0.657	c0.028-0.102,0.047-0.182,0.067-0.265c0.32-0.077,0.881-0.307,1.14-0.453c0.312-0.176,0.583-0.38,1.111-0.271	c0.529,0.108-0.163,0.569-0.542,0.773c-0.38,0.203-0.623,0.447-1.071,0.691C8.451,42.377,8.087,42.392,7.892,42.388z"/><path fill="#263238" d="M15.721,40.348c-0.012,0.253,0.036,0.705-0.09,1.03c-0.126,0.325-0.379,1.247-0.434,1.518	c-0.054,0.271-0.217,0.452-0.181,0.867c0.036,0.416,0.126,0.687,0.434,0.651c0.307-0.036,0.271-0.813,0.271-0.94	s0.036-0.452,0.199-0.723s0.488-1.066,0.488-1.482s0.199-0.56,0.054-1.012C16.317,39.806,15.739,39.969,15.721,40.348z"/><path fill="#263238" d="M22.808,40.186c-0.383,0.014-0.885,0.217-1.301,0.235s-0.904,0.108-1.084,0.524	c-0.181,0.416-0.434,0.831-0.506,1.337c-0.072,0.506-0.145,0.976-0.307,1.355s-0.199,0.777,0.289,0.94s1.066-0.199,1.879-0.416	c0.813-0.217,1.41-0.379,1.644-0.669c0.235-0.289,0.181-0.831-0.199-0.596c-0.379,0.235-1.879,0.488-2.187,0.705	c-0.307,0.217-0.542,0.126-0.542-0.036c0-0.163,0.054-0.813,0.47-0.849c0.416-0.036,0.849-0.253,1.283-0.289	c0.434-0.036,1.048-0.325,1.482-0.343c0.434-0.018,0.687-0.361,0.108-0.416c-0.578-0.054-1.12-0.054-1.59,0	c-0.47,0.054-0.741,0.126-0.994,0.217c-0.253,0.09-0.524-0.325-0.036-0.56c0.488-0.235,0.795-0.235,1.012-0.235	c0.217,0,0.614-0.054,0.777-0.253C23.169,40.638,23.295,40.168,22.808,40.186z"/><path fill="#263238" d="M27.341,44.157c0,0-0.041-0.529,0.108-0.786s0.163-0.488,0.203-0.84	c0.041-0.352,0.285-0.203,0.501-0.041c0.217,0.163,1.694,1.301,2.019,1.491s0.813,0.136,0.867-0.569	c0.054-0.705,0.447-1.748,0.474-2.25c0.027-0.501,0.339-1.193,0.515-1.369c0.176-0.176,0.258-0.163,0.325-0.488	c0.068-0.325-0.325-0.529-0.569-0.122c-0.244,0.407-0.529,1.111-0.732,1.654c-0.203,0.542-0.569,1.369-0.732,1.681	s0,0.447-0.339,0.285c-0.339-0.163-1.315-0.678-1.721-1.504c-0.407-0.827-1.003-0.705-1.152-0.258	c-0.149,0.447-0.258,0.813-0.271,1.084s-0.136,0.745-0.203,1.437c-0.068,0.691-0.041,0.759,0.122,0.867	C26.921,44.537,27.328,44.55,27.341,44.157z"/><path fill="#263238" d="M40.364,41.88c-0.122-0.298-0.095-0.651-0.366-0.922c-0.271-0.271-0.976-0.867-1.355-0.881	c-0.379-0.014-0.623,0.108-0.881,0.014c-0.257-0.095-0.786-0.149-1.138-0.054c0,0-0.217-0.257-0.488-0.19	c-0.271,0.068-0.163,1.044-0.352,1.315c-0.19,0.271-0.583,1.03-0.583,1.369c0,0.339-0.257,0.813-0.42,0.962	c-0.163,0.149,0.027,1.03,0.285,1.274c0.257,0.244,0.894-0.014,0.759-0.393c-0.136-0.38-0.068-0.461,0.176-0.515	c0.244-0.054,1.342-0.325,1.884-0.339c0.542-0.014,1.328-0.393,1.775-0.664C40.107,42.585,40.486,42.178,40.364,41.88z M39.687,42.151c-0.258,0.325-0.447,0.379-0.922,0.447c-0.474,0.068-0.623,0.244-1.057,0.339c-0.434,0.095-0.556,0.014-0.678-0.095	c-0.122-0.108-0.434-0.136-0.637-0.014c-0.203,0.122-0.312,0.217-0.38,0.041c-0.068-0.176,0.014-0.678,0.203-1.044	c0.19-0.366,0.312-0.786,0.325-0.989c0.014-0.203,0.122-0.325,0.339-0.203c0,0,1.247,0.325,1.64,0.176	c0.393-0.149,0.827,0.312,1.084,0.556C39.863,41.609,39.944,41.826,39.687,42.151z"/><path fill="#263238" d="M46.638,40.023c0,0-0.61,0.244-0.84,0.339c-0.23,0.095-0.881,0.501-1.328,0.854	c-0.447,0.352-0.745,0.529-0.895,0.813c-0.149,0.285,0.515,0.745,0.773,0.718s1.044-0.108,1.328-0.081s0.786-0.041,1.003-0.068	c0.217-0.027,0.285,0.271,0.027,0.366c-0.258,0.095-0.827,0.366-1.26,0.583c-0.434,0.217-1.193,0.122-1.396,0.596	c-0.203,0.474,0.244,0.488,0.623,0.325c0.379-0.163,2.033-0.759,2.602-1.193c0.569-0.434,0.989-0.827,0.529-1.003	c-0.461-0.176-2.101-0.339-2.765-0.23c-0.664,0.108-0.258-0.298-0.054-0.42c0.203-0.122,0.949-0.623,1.382-0.691	c0.434-0.068,0.705-0.176,0.881-0.379C47.424,40.348,47.315,39.684,46.638,40.023z"/><path fill="#26c6da" d="M41.78,41.921c-0.203,0.109-0.285,0.786,0.366,0.895c0.651,0.108,0.379-0.583,0.298-0.718	C42.363,41.961,41.956,41.826,41.78,41.921z"/><path fill="#ffca28" d="M32.999,41.988c-0.169,0.068-0.488,0.366-0.203,0.745c0.285,0.379,0.434,0.529,0.705,0.122	C33.772,42.449,33.609,41.744,32.999,41.988z"/><path fill="#f44336" d="M25.059,42.273c-0.454,0.232-0.149,1.274,0.501,0.922C26.211,42.842,25.723,41.934,25.059,42.273z"/><path fill="#26c6da" d="M17.796,42.165c-0.196,0.184-0.434,0.569-0.041,0.922s0.583,0.203,0.759,0.027	c0.176-0.176,0.095-0.583-0.068-0.813C18.284,42.07,18.013,41.961,17.796,42.165z"/><path fill="#ffca28" d="M13.271,42.192c-0.515,0.285-0.054,1.206,0.501,0.881C14.328,42.747,13.903,41.842,13.271,42.192z"/><path fill="#f44336" d="M5.778,42.571c-0.284-0.24-0.759-0.325-1.03,0.108c-0.271,0.434,0.068,0.922,0.61,0.813	C5.9,43.384,6.212,42.937,5.778,42.571z"/><path fill="#ffb300" d="M33.769,10.772C35.005,10.743,36,9.765,36,8.556c0-1.227-1.023-2.222-2.286-2.222	c-0.115,0-0.225,0.017-0.335,0.033c0.208-0.335,0.335-0.724,0.335-1.144C33.714,3.995,32.691,3,31.429,3	c-1.157,0-2.103,0.839-2.255,1.923C28.04,3.762,26.147,3,24,3s-4.04,0.762-5.174,1.923C18.675,3.839,17.728,3,16.571,3	c-1.262,0-2.286,0.995-2.286,2.222c0,0.42,0.127,0.809,0.335,1.144c-0.11-0.016-0.221-0.033-0.335-0.033	C13.023,6.333,12,7.328,12,8.556c0,1.209,0.995,2.188,2.231,2.217C12.896,12.131,12,14.606,12,17.444	c0,2.838,0.896,5.314,2.231,6.672C12.995,24.146,12,25.124,12,26.333c0,1.227,1.023,2.222,2.286,2.222	c0.115,0,0.225-0.017,0.335-0.033c-0.208,0.335-0.335,0.724-0.335,1.144c0,1.227,1.023,2.222,2.286,2.222	c0.85,0,1.584-0.457,1.977-1.127C19.633,32.098,21.666,33,24,33s4.367-0.902,5.451-2.238c0.394,0.67,1.127,1.127,1.977,1.127	c1.262,0,2.286-0.995,2.286-2.222c0-0.42-0.127-0.809-0.335-1.144c0.11,0.016,0.221,0.033,0.335,0.033	c1.262,0,2.286-0.995,2.286-2.222c0-1.209-0.995-2.188-2.231-2.217C35.104,22.758,36,20.282,36,17.444	C36,14.606,35.104,12.131,33.769,10.772z M32,28H16V7h16V28z"/><circle cx="24" cy="16" r="2" fill="#ffb300"/><circle cx="24" cy="16" r="1" fill="#0097a7"/></svg>