<svg xmlns="http://www.w3.org/2000/svg"  viewBox="0 0 48 48" width="1600px" height="1600px"><circle cx="26.5" cy="24.5" r="15.5" fill="#263238"/><path fill="#cfd8dc" d="M40,27c-0.93,6.94-9.5,14.75-20,9.5c0.88-0.73,1.67-1.63,2.27-2.45c0.43-0.58,0.77-1.13,0.97-1.54	c0.01-0.01,0.01-0.01,0.01-0.01C22.5,32.25,21.5,31.75,21,31c0,0,11-10.5,17-14C40,20.5,40.5,23.25,40,27z"/><path fill="#b0bec5" d="M29.5,33c-0.98,0.98-3.62,1.71-7.23,1.05c0.43-0.58,0.77-1.13,0.97-1.54	c0.01-0.01,0.01-0.01,0.01-0.01C25,33,28,33.5,29.5,33z"/><path fill="#c62828" d="M26.5,6C16.283,6,8,14.283,8,24.5C8,34.717,16.283,43,26.5,43S45,34.717,45,24.5	C45,14.283,36.717,6,26.5,6z M26.5,37.25c-7.042,0-12.75-5.708-12.75-12.75s5.708-12.75,12.75-12.75s12.75,5.708,12.75,12.75	S33.542,37.25,26.5,37.25z"/><path fill="#eceff1" d="M34,16c-4,3-16.5,13-16.5,13c-0.25-0.5-0.5-1.5-0.5-2.25c-1.26,0-3.21,2.28-4.99,3.01	C11.66,29.91,11.32,30,11,30c0,0.25,0.35,0.87,0.75,1.25s-0.5,1-1.5,0.25c-0.34-0.26-1-1.25-2-1.5c-1.25,0-2.47-0.37-3-0.5	C4.5,29.25,1.5,31,4,28.25c0.5-0.5,0-0.75,0-0.75c-0.5-0.25-1.25,0-1.75,0.25s-1.1,0.13-0.25-1c0.31-0.4,0.65-0.68,0.95-0.88	c0.44-0.28,0.8-0.37,0.8-0.37c-0.75-0.75-1.5-1-2.25-1.25c-0.47-0.16-0.25-0.75,0.75-0.75c2.5,0,5.5,2.25,7,2.25	c0.19-0.19,0.41-0.43,0.65-0.69c0.98-1.11,2.2-2.66,2.6-3.06c0.35-0.35,0.94-1.43,1.61-2.31c0.29-0.38,0.59-0.72,0.89-0.94	c-0.75-1-1.5-2.25-1.5-3.25c0-2,2.11-3.43,2.75-4.5C17,9.75,16.5,6.25,21,5c2-1.75,3.25-2.25,4-1s1.25,1,2.25,0.5	s0.5,0.75-0.25,1.25c-0.44,0.29-1.15,0.33-1.6,0.57c-0.31,0.16-0.5,0.42-0.4,0.93c0.75,1,0,2.25,0.5,3.5	c0.42,1.04,2.25,2.25,2.25,4.25c0.62-0.08,1.31-0.11,2.02-0.07C31.33,14.98,32.96,15.31,34,16z"/><ellipse cx="21" cy="16.5" fill="#263238" rx="1" ry="1.5"/><path fill="#eceff1" d="M47.25,24c-0.75,0-2.75,0-3.25,0.5s1.1,1.1,1.5,1.5c0.5,0.5,0.25,1-1,0.75	c-1.1-0.22-2.25-1.25-3-1.25c-0.63,0-1.62,1.07-2.97,0.79c-0.25-0.04-0.51-0.13-0.78-0.29c-0.5,0.5-1.53,1.09-2,1.25	c-0.75,0.25-2.25,0-1.25-1.5c0.39-0.59,0.75-1,0.75-1.5c-0.75-0.5-1.75-1.25-2.25-2c1.25-1.5,6-3.25,6-3.25	c0.5,0.25,1.118,1.474,1.75,1c1-0.75,2.75-1.75,4-2s1.25,0.5,0.75,1c-0.64,0.64-2.25,1.75-2.25,3c0.19,0.05,0.44,0.09,0.71,0.15	c1.11,0.2,2.69,0.4,3.29,0.6C48,23,48,24,47.25,24z"/><ellipse cx="19.5" cy="10" fill="#263238" rx=".5" ry="1"/><ellipse cx="22.5" cy="10" fill="#263238" rx=".5" ry="1"/><path fill="#263238" d="M20,13c0.25,0.25,1.5,0.5,2,0C21.75,13.75,20.75,14.75,20,13z"/><path fill="#cfd8dc" d="M20,19.028c0.25,0.25,1.5,0.5,2,0C21.75,19.778,20.75,20.778,20,19.028z"/><path fill="#cfd8dc" d="M29.77,14.93C29.19,16.54,27.68,17.95,26,19c0.75-0.75,1.75-2.75,1.75-4 C28.37,14.92,29.06,14.89,29.77,14.93z"/><path fill="#cfd8dc" d="M16.5,20c-0.69,0.17-1.63-0.01-2.39-0.31c0.29-0.38,0.59-0.72,0.89-0.94C15.5,19.5,16.5,20,16.5,20z"/><path fill="#cfd8dc" d="M25,7.25c-0.5-0.75-1-1-1.5-1.25c0.89,0,1.46,0.13,1.9,0.32C25.09,6.48,24.9,6.74,25,7.25z"/><path fill="#cfd8dc" d="M12.01,29.76C11.66,29.91,11.32,30,11,30c0-0.75,0.5-1.25,1-1.5 C11.84,28.82,11.89,29.36,12.01,29.76z"/><path fill="#cfd8dc" d="M4.5,26.5c-0.45-0.3-1.07-0.51-1.55-0.63c0.44-0.28,0.8-0.37,0.8-0.37C4.25,26,4.5,26.5,4.5,26.5z"/><path fill="#cfd8dc" d="M11,25.5c-0.5,0.25-1,0.25-1.75,0.25c0.19-0.19,0.41-0.43,0.65-0.69C10.23,25.28,10.67,25.5,11,25.5 z"/><g><path fill="#cfd8dc" d="M35.25,24.25c0-0.5,0-2-0.75-3c-0.75,0.25-1.5,1-1.5,1S34.25,23.75,35.25,24.25z"/><path fill="#cfd8dc" d="M39.5,25.25c-0.34,0.17-0.79,0.57-0.97,1.04c-0.25-0.04-0.51-0.13-0.78-0.29 C38.25,25.5,39,25.25,39.5,25.25z"/><path fill="#cfd8dc" d="M44.25,23c-0.75,0-1-0.5-1-1c0.19,0.05,0.44,0.09,0.71,0.15C43.97,22.43,44.11,22.72,44.25,23z"/></g><path fill="#263238" d="M21.75,7.5c0,0,0.25-0.25,0.75-0.5c0.75,0.25,1,1.25,1,1.25L23,8.5C22.75,8,22.5,7.75,21.75,7.5z"/><path fill="#263238" d="M19,8.5h-0.5C18.25,8,18.75,7.25,19.25,7c0.25,0.25,0.5,0.5,0.5,0.5S19,7.75,19,8.5z"/><rect width="6.8" height="31.61" x="23.19" y="8.815" fill="#c62828" transform="rotate(53.143 26.591 24.622)"/></svg>