<svg xmlns="http://www.w3.org/2000/svg"  viewBox="0 0 48 48" width="1600px" height="1600px"><path fill="#ffca28" d="M39.708,5.045c-5.793-1.129-11.39-2.017-16.075-2.041V3c-0.032,0-0.066,0.002-0.097,0.002 C23.503,3.002,23.469,3,23.437,3v0.004C18.795,3.028,13.25,3.916,7.512,5.045C6.77,19.616,5.942,36.905,23.535,45.373 C40.159,36.052,40.672,23.823,39.708,5.045z"/><path fill="#d50000" d="M7.512,5.045c-0.261,5.124-0.528,10.583-0.006,15.878h15.819l0.157,24.423 c0.019,0.009,0.036,0.019,0.054,0.028C35.03,38.928,38.82,31.319,39.747,20.89H23.421V3.005C18.782,3.031,13.244,3.918,7.512,5.045 z"/><path fill="#fafafa" d="M11.249,9.664c0,0-1.142,0.294-1.175,1.207c0.587-0.196,1.305-0.131,1.305-0.131L11.249,9.664z"/><path fill="#fafafa" d="M11.379,7.217c0,0,0.881-0.131,1.207,0.326c0.326-0.522,0.62-0.783,0.62-0.783 S11.901,6.042,11.379,7.217z"/><path fill="#fafafa" d="M14.479,5.879c0,0,0.522-0.033,0.718,0.848c0.489-0.033,1.044-0.033,1.044-0.033 S16.046,5.487,14.479,5.879z"/><path fill="#fafafa" d="M11.483,16.002c0,0-1.081-0.665-1.724,0.187c0,0,0.769,0.153,1.041,0.554 C11.065,16.203,11.483,16.002,11.483,16.002z"/><path fill="#fafafa" d="M9.911,18.23c0,0-0.783,0.392-0.424,1.436c0.359-0.522,1.077-0.587,1.077-0.587L9.911,18.23z"/><path fill="#fafafa" d="M10.596,20.857c0,0-0.783,1.338,0.033,1.86l0.489-0.783L10.596,20.857z"/><path fill="#fafafa" d="M15.524,25.915c0,0-1.436-0.392-2.186,0.261l1.566,0.424L15.524,25.915z"/><path fill="#fafafa" d="M13.272,28.559c0,0-0.914,0.881-0.359,1.73c0.098-0.751,1.11-1.077,1.11-1.077L13.272,28.559z"/><path fill="#fafafa" d="M15.295,31.039c0,0-0.653,1.11,0.294,1.795c-0.065-0.816,0.653-1.534,0.653-1.534L15.295,31.039z"/><path fill="#fafafa" d="M22.148,35.738c0,0-1.371,0.946-0.718,1.925c0.359-0.555,1.305-1.012,1.305-1.012L22.148,35.738z"/><path fill="#fafafa" d="M23.16,37.566c0,0-1.044,0.848-0.326,1.827c0.131-0.587,1.077-1.175,1.077-1.175L23.16,37.566z"/><path fill="#fafafa" d="M25.15,38.969c0,0-0.489,0.881,0.424,1.632c-0.098-1.044,0.62-1.566,0.62-1.566L25.15,38.969z"/><path fill="#212121" d="M23.553,45.937l-0.234-0.113C5.376,37.188,6.283,19.351,7.012,5.02l0.02-0.39l0.383-0.076 c4.626-0.91,10.527-1.954,15.522-2.044V2.505l0.5-0.004L23.584,3l-0.015-0.499l0.515-0.015l0.002,0.023 c5.052,0.084,11.032,1.132,15.717,2.045l0.384,0.075l0.02,0.391c0.98,19.099,0.364,31.375-16.427,40.79L23.553,45.937z M7.991,5.461C7.25,20.065,6.567,36.497,23.519,44.809c15.951-9.052,16.637-20.944,15.71-39.348 C34.504,4.548,28.556,3.53,23.63,3.505l-0.14,0l-0.051,0C18.561,3.529,12.67,4.547,7.991,5.461z"/><path fill="#212121" d="M20.092,10.083l1.11,1.876c0,0,2.839-0.049,2.464-1.664C23.29,8.68,20.092,10.083,20.092,10.083z"/><path fill="#a1887f" d="M19.798,13.548c0,0-1.746-1.164-2.66-1.36c-1.158-0.903-0.604-3.046-0.604-3.046 s1.403-2.355-1.012-2.649c-0.848-0.196-0.979,0.984-0.979,0.984s-0.751-1.11-1.827-0.653c-1.077,0.457-0.131,2.056-0.131,2.056 s-1.436-0.163-1.468,1.24c-0.033,1.403,1.24,1.468,1.24,1.468s0.62-1.077,1.468-0.033c0.848,1.044-0.718,1.142-0.718,1.142 s0.522,0.848,1.436,0.816c0.914-0.033,1.24,0.751,0.359,0.848c0.783,1.501,2.774,1.561,2.774,1.561l-1.044,0.364l2.023,1.436 l-0.522,0.653c0,0-1.403,0.163-2.415-0.326c-1.012-0.489-1.827,0.261-1.827,0.261s-0.196-1.632-0.979-1.893 c-0.392-1.273-2.741-0.62-2.382,0.914c-0.914,0.196-1.028,1.953,0.538,2.279c-0.816,1.175-0.571,2.029,0.147,2.453 c0.718,0.424,1.436,0.033,1.697-0.751c0.261-0.783,1.632,0.131,0.718,0.881c1.24,0.196,1.501-0.131,1.991-0.457 c0.489-0.326,1.697-0.098,0.489,0.751c1.468,0.457,2.186,0.359,2.709-0.196c0.522-0.555,1.338-0.065,0.228,0.62 c1.795,0.228,2.806,0.131,3.459-0.587c-0.163,0.718,0.881,1.371,0.881,1.371s-3.459-0.392-3.785,1.468 c-0.326,1.86,0.718,2.121,0.816,2.578c0.098,0.457-0.62,0.522-1.142,0.359c-0.522-0.163-1.697-0.457-2.382-0.294 c0.751-1.534,0.326-2.806-1.436-2.089c-0.718,0.261-0.751,1.24-0.751,1.24s-1.403,0.261-1.207,1.893 c0.196,1.632,1.436,1.534,1.436,1.534s-0.392,1.175,0.783,1.207c1.175,0.033,1.012-1.436,1.632-1.305s0.326,1.664,0.326,1.664 s2.219,0.294,3.524,0.163c-0.033,0.522,0.098,0.816,0.098,0.816s0.751-1.599,3.198-1.664c1.012,1.273,0.848,1.403,1.925,1.664 c1.077,0.261,1.599,1.077,0.718,1.24c-0.881,0.163-1.468,1.86-1.468,1.86s-1.305-1.632-2.676-1.338 c-1.371,0.294-0.946,2.284-0.033,2.48c-0.098,1.044,1.403,1.338,2.186,1.273c-0.065,0.914,1.11,0.941,1.534,0.223 s0.392-0.81,0.392-0.81s0.963,1.088,2.415-1.599c0.946-0.196,0.392-1.827,0.392-1.827s2.023-0.424,1.012-2.089 c-1.012-1.664-1.24-4.177-1.24-4.177s0.522,0.326,0.587-0.783c1.305,0.326,1.795,0.62,2.643,1.762s-0.163,1.697,0.816,2.839 c-0.163,0.718-0.392,1.11-0.392,1.11s2.284-0.881,1.762-3.524c1.468-0.914,3.263-2.872,1.077-5.776 c-2.186-2.904-4.503-6.592-3.655-9.725s2.937-2.513,3.394-2.154c0.457,0.359,0.946,2.806-0.163,3.655 c-1.11,0.848-1.044,2.023-0.979,2.774c0.065,0.751-0.065,1.436-0.065,1.436s0.685-0.294,0.914-1.11 c0.065,1.24,0.62,2.023,0.62,2.023l0.914-1.501l0.62,0.196c0,0,0.033-2.447-0.685-3.557c0.816-2.382,1.86-4.83-0.848-6.2 c-2.709-1.371-5.221,3.557-5.417,4.275c-0.196,0.718-0.979,4.634,1.566,7.897c2.545,3.263,3.753,4.601,3.002,5.319 c-0.751,0.718-2.741-0.228-3.883-1.142c-0.163-1.142-0.228-2.186-1.273-2.774c0.163-1.338-1.044-3.133-1.958-4.014 c1.012-1.207,0.816-2.252,0.718-3.263c0.424,0.098,0.914,0.359,0.914,0.359l-0.196-3.1c0,0,1.371-0.326,0.783-1.795 c0,0-0.261-3.002-0.555-3.688c0.751-0.033-1.925-1.664-1.925-1.664l0.326-1.077c0,0-1.925-0.033-2.545-0.555 c-0.065,0.914-1.795,1.403-1.86,0.457c-0.457-0.033-1.044,0-1.044,0s0.457,0.653-0.326,1.11c-0.783,0.457-1.664,1.012-1.795,1.632 c-0.881,0.098-0.979,0.751-0.979,0.751s-1.11,0.065-0.489,1.077s1.697,1.338,2.35,0.489c0.685-0.163,1.436-0.359,1.697,0.783 c0.261,1.142-2.35,0.881-2.35,0.881s0.131,0.685,1.11,0.685S19.798,13.548,19.798,13.548z"/><path fill="#212121" d="M21.332,8.261l0.489,0.196l0.653-0.196c0,0,0.098,0.489,0.685,0.326s0.261-0.685,0.261-0.685 s1.24-0.522,1.599,0.685c0.359,1.207-0.62,1.501-0.62,1.501s0.326,1.795-1.142,2.089c-1.468,0.294-2.284-0.587-2.284-0.587 s0.228,1.012-0.489,1.827c1.142,0.424,2.056-0.424,2.056-0.424s1.893,0,2.774-1.468c1.566,0.685,1.697-0.685,0.914-2.089 c0.751-0.228,0.751-0.359,0.751-0.359s-0.718-0.587-0.326-1.436c-0.946,0.098-1.24-0.783-1.24-1.207 c-1.044,0.653-1.762,0.522-1.86,0.033C22.866,7.412,21.332,8.261,21.332,8.261z"/><path fill="#212121" d="M26.619,5.813c0,0,1.664-0.555,1.925-1.044c0.261,1.175,0.163,1.534,0.163,1.534 s1.24,0.751,2.252,0.489c0.587,0.946-1.044,0.914-1.044,0.914s0.914,1.088,0.685,2.513c0.31,0.925,0.196,2.611-0.653,3.198 c-0.196,1.599,0.049,3.03,0.049,3.03l-0.865-0.386c0,0,0.555,1.142,0.294,1.925c-0.261,0.783-0.424,1.012,0.033,1.501 c-0.522,1.044,0.489,1.273,0.718,2.154c0.228,0.881,0.196,1.501,0.196,1.501s1.73,0.979,1.468,2.806c0,0,2.317,0.718,2.937,2.447 c0.196,0.555,0.751,0,0.751-0.392c0.62,0.163,0.967-0.26,0.816-1.501c-0.133-1.091-1.26-3.072-2.513-4.705 c-0.971-1.265-2.643-4.204-2.219-6.456s2.023-4.503,3.916-4.047c1.893,0.457,0.718,3.617,0.718,3.617s0.326-2.964-0.848-3.03 c-1.175-0.065-2.774,1.305-2.872,3.622c-0.098,2.317,1.468,4.928,2.219,5.711c0.751,0.783,2.186,2.35,2.676,3.426 c0.489,1.077,0.033,1.991,0.033,1.991s1.012,1.534-0.555,2.578c0.228,0.881-1.207,1.077-1.632,0.816 c0.228,1.044-0.196,2.382-0.979,2.709c0.359-1.468,0.392-2.252-0.196-3.002c-0.587-0.751-0.93-0.805-0.93,0.011 c-0.751-1.273-1.436-2.17-2.937-2.268c-0.555-1.273-2.007-1.3-2.007-1.3s1.077-1.925-0.261-2.806 c0.587-1.338-1.468-3.035-1.468-3.035s-0.033-1.86-0.489-2.545c-0.457-0.685-1.207-0.163-1.207-0.163s1.664-1.566,1.925-2.447 c0.326,0.946,0.163,1.338,0.163,1.664c0,0.326,0.457,1.142,0.457,1.142l1.012-1.697l-0.881,0.098c0,0,1.86-2.48,0.914-3.851 c0.979-1.273-0.131-2.415-0.131-2.415l0.783-1.697C29.034,8.424,26.847,6.564,26.619,5.813z"/><path fill="#212121" d="M34.222,9.659c0,0,1.689-0.123,2.545,0.685c1.158,1.093,0.979,3.693-0.294,5.488 c0.653,1.175,0.489,1.762,0.489,1.762l-0.424-0.228c0,0,0.228,1.11,0,1.795c-0.228,0.685-0.326,1.534-0.326,1.534l1.077-1.403 l0.587,0.228c0,0,0.294-2.741-0.555-3.655c0.587-1.24,1.86-3.981,0.261-5.678C36.964,9.436,35.299,9.071,34.222,9.659z"/><path fill="#212121" d="M28.838,26.96c0,0,1.534,1.11,1.501,2.741c1.501,0.653,1.305,3.198,1.305,3.198 s1.305,0.685-1.175,1.86c1.012,0.751,0.326,1.73-1.436,1.468c-0.718-0.228,0.685-1.273,0.228-2.089 c1.24-0.163,1.175-1.501,0.359-1.991c-0.816-0.489-0.294-1.697-0.294-1.697l-0.914-0.424c0,0,0.946-0.359,0.783-1.077 S28.773,27.743,28.838,26.96z"/><path fill="#212121" d="M22.409,35.02c0,0-0.62,1.697,1.893,1.305c-0.261,1.468,0.326,1.762,1.468,1.305 c-0.359,1.24,1.273,0.326,1.762-1.012c0.033,1.273,0.718,1.534,1.795-0.098c-0.783,2.377-1.86,1.985-2.154,1.501 c-0.326,1.305-1.795,1.762-2.317,0.457c-1.012,0.424-2.48-0.163-1.893-1.305C21.92,36.684,21.463,36.325,22.409,35.02z"/><path fill="#212121" d="M23.812,24.088c0,0-2.382-0.359-2.741,0.946c-0.359,1.305,1.273,2.023,0.131,3.524 s-1.207,2.382-1.207,2.382s0.196-0.587,1.338-0.685c1.142-0.098-0.098,1.012-0.228,1.632c-0.131,0.62,0.294,1.73,0.294,1.73 s0.457-0.848,1.175-1.207c0.718-0.359,1.468-0.163,2.186-0.783c-1.273-2.252-0.131-4.079-0.131-4.079s-0.62-1.468-0.359-2.382 C24.53,24.251,23.812,24.088,23.812,24.088z"/><path fill="#212121" d="M18.689,30.81l-1.012,1.142c1.476,0.303,2.896,0.371,4.242,0.131 C21.92,32.083,19.407,31.855,18.689,30.81z"/><path fill="#212121" d="M15.882,29.505c0,0-0.392,1.175-1.436,1.012s-1.24-2.284-1.24-2.284s0.098-0.979,1.11-1.273 c1.012-0.294,1.632,0.946,1.632,0.946s-1.077-0.653-1.697-0.326c-0.62,0.326-0.62,0.62-0.555,1.175S14.806,30.093,15.882,29.505z"/><path fill="#212121" d="M15.132,26.046c0,0,2.056-0.359,1.566,1.827c1.305-1.24,0.783-1.827,0.359-2.284 C16.633,25.132,15.393,25.361,15.132,26.046z"/><path fill="#212121" d="M23.421,17.855c0,0-2.284,2.252-1.73,3.72c-0.979,0.489-1.305-1.012-1.305-1.012 s-1.468,0.914-3.165,0.424c-1.697-0.489-2.252,0.033-2.252,0.033l0.359-0.946c0,0-3.59,1.207-4.079,0.62s0.653-1.534,0.653-1.534 s-1.599,0.555-1.534,1.468c0.065,0.914,0.848,1.795,1.827,1.566s1.077-1.338,1.86-0.979s-0.424,0.979-0.424,0.979 s1.371,0.196,1.795-0.131c0.424-0.326,1.468-0.522,1.142,0.098s-0.718,0.424-0.718,0.424s1.175,0.718,2.186,0.098 c1.012-0.62,1.893-0.653,1.175,0.359c1.501,0.261,2.872,0.033,3.492-1.077c0.62-1.11,0.914-0.522,0.914-0.522L23.421,17.855z"/><path fill="#212121" d="M11.363,15.848c0,0-0.751,1.599,0.326,1.925C10.645,18.035,9.617,16.626,11.363,15.848z"/><path fill="#212121" d="M15.246,6.477c0.734,0.147,1.501,1.093,0.636,2.241c0.228,0.914-0.555,2.056-0.555,2.056 s1.371,0.816,1.11,1.86c1.077,0.326,1.893,2.219,1.893,2.219s1.012-0.946,1.599-1.175c-0.326-0.62-1.468-1.599-2.676-1.599 c0.424-1.566-0.653-1.925-0.653-1.925s0.424-0.653,0.131-1.175C17.318,8.033,17.074,6.183,15.246,6.477z"/><path fill="#212121" d="M16.209,15.962c0,0,1.158,1.838,2.464,1.741c-0.131-0.914,0.669-1.969,0.669-1.969 s-0.718-0.424-1.566,0.065C16.927,16.289,16.209,15.962,16.209,15.962z"/><path fill="#ef9a9a" d="M18.624,10.181c0,0-0.41,0.591,0.522,1.224c0.865,0.587,2.385-0.003,2.872-0.277 s0.559-0.92-0.294-0.555c-0.852,0.365-2.747,0.775-2.717-0.199C19.038,9.4,18.624,10.181,18.624,10.181z"/></svg>