<svg xmlns="http://www.w3.org/2000/svg"  viewBox="0 0 48 48" width="1600px" height="1600px"><path fill="#2196F3" d="M33 31A3 3 0 1 0 33 37A3 3 0 1 0 33 31Z"/><path fill="#B0BEC5" d="M33,25c-5,0-9,4-9,9c0,5,4,9,9,9s9-4,9-9C42,29,38,25,33,25z M33,39c-2.8,0-5-2.2-5-5s2.2-5,5-5c2.8,0,5,2.2,5,5S35.8,39,33,39z M22,37h-7v-4h7V37z M23.9,33c0,0.3,0.1,0.7,0.1,1c0,5-4,9-9,9s-9-4-9-9s4-9,9-9c3.9,0,7.2,2.5,8.5,6H19c-0.9-1.2-2.3-2-4-2c-2.8,0-5,2.2-5,5c0,2.8,2.2,5,5,5s5-2.2,5-5c0-0.3,0-0.7-0.1-1H23.9z"/><path fill="#455A64" d="M39,15c0,1.7-1.3,3-3,3c-1.7,0-3-1.3-3-3s1.3-3,3-3C37.7,12,39,13.3,39,15z M45,15c0,5-4,9-9,9s-9-4-9-9c0-5,4-9,9-9S45,10,45,15z M41,15c0-2.8-2.2-5-5-5c-2.8,0-5,2.2-5,5s2.2,5,5,5C38.8,20,41,17.8,41,15z M7,6H3v18h4V6z M14,6h-4v18h4V6z M12,13H5v4h7V13z M28,19.5c0,2.5-2,4.5-5,4.5h-3h-1h-3V6h7c3,0,5,2,5,4.5S26.8,15,25,15C26.7,15,28,17,28,19.5z M20,10v3h2.5c0.8,0,1.5-0.7,1.5-1.5S23.3,10,22.5,10H20z M24,18.5c0-0.8-0.7-1.5-1.5-1.5H20v3h2.5C23.3,20,24,19.3,24,18.5z"/></svg>