<svg xmlns="http://www.w3.org/2000/svg"  viewBox="0 0 48 48" width="1600px" height="1600px" clip-rule="evenodd"><path fill="#616161" fill-rule="evenodd" d="M26.386,24.141c0.623-0.044,1.639-0.755,2.026-1.186 c-0.152,0.517-0.152,2.156,0,2.675C27.981,25.004,27.01,24.249,26.386,24.141 M22.848,18.943c0.776,0,1.401,0.755,1.401,1.618 c0,0.861-0.625,1.619-1.401,1.619H20.17v-3.237L22.848,18.943L22.848,18.943z M22.848,26.211c0.776,0,1.401,0.756,1.401,1.619 c0,0.908-0.625,1.661-1.401,1.661H20.17v-3.279L22.848,26.211L22.848,26.211z M38.206,34.086c5.393,0,9.794-4.487,9.794-9.945 c0-5.544-4.401-9.836-9.794-9.836c-5.457,0-8.219,3.968-8.886,5.587c0-2.395-2.396-5.263-5.179-5.263h-8.995V34h8.369 c3.409,0,5.805-2.914,5.805-5.459C30.075,30.116,32.749,34.086,38.206,34.086 M14,34H8.805v-7.508h-3.41V34H0V14.628h5.394v7.225 h3.41v-7.225H14V34z M38.206,30.082c-3.264,0-5.919-2.666-5.919-5.941c0-3.263,2.655-5.918,5.919-5.918 c3.263,0,5.918,2.655,5.918,5.918C44.124,27.417,41.469,30.082,38.206,30.082z M38.206,20.223c-2.161,0-3.919,1.758-3.919,3.918 c0,2.173,1.758,3.941,3.919,3.941c2.16,0,3.918-1.768,3.918-3.941C42.124,21.98,40.366,20.223,38.206,20.223z" clip-rule="evenodd"/></svg>