<svg xmlns="http://www.w3.org/2000/svg"  viewBox="0 0 48 48" width="1600px" height="1600px"><path fill="#fee35f" d="M24.5,4.5h-16v23c0,7,7,15,16,19c9-4,16-12,16-19v-23H24.5z"/><path fill="#212121" d="M24.5,47.047l-0.203-0.09C14.854,42.76,8,34.577,8,27.5V4h33v23.5 c0,7.077-6.854,15.26-16.297,19.457L24.5,47.047z M9,5v22.5c0,6.543,6.649,14.443,15.5,18.452C33.352,41.944,40,34.043,40,27.5V5 H9z"/><rect width="2" height="17.5" x="28" y="4.5" fill="#212121"/><path fill="#212121" d="M23,22v23.782c0.494,0.25,0.993,0.492,1.5,0.718c0.169-0.075,0.332-0.161,0.5-0.239V22h1V4.5h-1.5 H24V22H23z"/><rect width="2" height="17.5" x="32" y="4.5" fill="#212121"/><rect width="2" height="17.5" x="36" y="4.5" fill="#212121"/><path fill="#212121" d="M11,22v13.215c0.581,0.936,1.248,1.858,2,2.754V22H11z"/><path fill="#212121" d="M19,22v21.385c0.648,0.451,1.313,0.886,2,1.295V22H19z"/><path fill="#212121" d="M15,22v18.103c0.633,0.614,1.297,1.211,2,1.784V22H15z"/><rect width="32.106" height="1" x="8.383" y="22" fill="#212121"/><g><path fill="#b0bec5" d="M31.794,15.932c0,0-1.704-2.071-2.794-3.161s-1.015-2.265-2.475-2.996 C26.42,8.21,25.742,7.949,24.751,8.94c-1.983-0.209-2.035,0.313-2.035,0.313s-1.565-0.73-1.983,0.626 c-1.461,0.522-3.913,3.496-3.913,3.496l0.887,0.157c0,0-0.887,1.565-1.096,2.609c-1.513-0.783-2.765-1.409-2.765-1.409 s-0.47-3.026-2.4-4.174c-0.417,0.365-0.052,1.2-0.052,1.2l-1.044-0.104l0.678,1.513l-0.73,0.104c0,0,1.096,2.035,1.617,3.757 c-0.835,0.783,1.617,2.348,1.617,2.348l-0.574,0.73c0,0,2.661,2.452,3.652,2.661l-1.931,2.139c0,0-1.826-0.47-2.765,0.991 c-0.939,1.461,0.417,1.722,0.887,1.565c1.096,0.73,2.087-0.157,2.087-0.157s4.018-0.313,6.783-2.609 c0.574,1.513,1.461,1.565,1.461,1.565s0.574,2.765-0.313,2.87c-0.887,0.104-2.713-0.939-3.704-0.73 c-0.991,0.209-1.148,1.357-1.148,1.357l0.522,0.157c0,0-0.261,1.304,0.73,1.044c0.313,0.835,1.409,0,1.409,0l0.783,0.73 c0,0-0.522,0.887,1.044,0.887s2.974-0.104,2.974-0.104s0.678,0.574,2.191-0.522c0.052,1.565,0.104,2.348-1.304,2.765 c-1.409,0.417-3.391,0.365-3.809,1.357c-0.417,0.991,1.044,1.931,2.244,1.304c1.826,0.574,2.4-0.522,2.4-0.522 s1.304,0.417,2.191-0.417c0.887-0.835,1.617,0,2.4-1.304c1.252,0.104,1.774-1.983,1.774-1.983s0.157,2.244,1.148,1.252 c1.096,1.2,3.287,0.522,2.244,0c-1.044-0.522-1.774-3.704-1.774-4.852s-0.209-3.078-1.617-4.591s-0.313-3.078-2.244-4.226 s-3.861-3.391-3.861-3.391s1.984,0.742,3.965,0.678C32.994,17.966,32.368,16.505,31.794,15.932z"/></g><g><path fill="#fafafa" d="M28.846,15.984c0,0-0.522-1.461-1.174-1.931c-0.652-0.47-3.183-1.044-3.183-1.044l-0.965,1.2 c0,0-0.078,1.748,0.73,2.296c0.809,0.548,1.07,0.183,1.07,0.183s-0.704-0.835-0.417-1.774 C25.194,13.975,27.568,14.601,28.846,15.984z"/></g><g><path fill="#212121" d="M27.516,16.488c0,0,1.983,0.913,1.67,1.296c-0.878-0.278-2.226-0.913-2.226-0.913 s-1.948,0.07-2.678-1.044c-0.73-1.113-0.626-2.4,0.487-2.4c1.113,0,0.974,0.557,0.974,0.557s0.557-0.278,1.217,0.07 s1.878,1.913,1.878,1.913l1.53,0.696l-1.044-1.391c0,0-1.635-1.983-2.157-2.052s-1.183-0.243-0.835-0.661 c-0.626-0.626-1.357-1.009-1.357-1.009s-0.8,0.243-1.113,0.104c-0.313-0.139,0.209-0.765,0.209-0.765s-0.522-0.73-0.939-0.904 c-0.417-0.174-1.635,0.591-1.044,1.113c0.591,0.522,0.522,0.487,0.209,1.009c-0.313,0.522-1.322,2.087-0.417,3.652 c0-1.252,0.8-1.183,0.87-0.243c0.07,0.939,0.904,2.296,1.322,2.609c0.209-0.835,0.939,0,0.939,0s0.8-0.07,1.391,0.487 c0.591,0.557,0.765,3.2,0.765,3.2s0.73-2.157,1.704-1.183c0.974,0.974,1.461,3.2,1.565,4.139c0.383-0.8,0.313-1.844,0.73-1.217 c0.417,0.626,2.226,5.044,0.87,6.922c0.591,1.53-0.104,2.748-0.765,2.783c0.87,0.626-0.8,1.183-1.739,1.009 c0.626,0.87,0.07,1.148-0.87,1.391c-0.939,0.243-2.852,0.591-4.035,0.696c-1.183,0.104-0.557,1.322-0.557,1.322 s0.696,0.383,1.322-0.278c0.626,0.661,1.6-0.278,1.6-0.278s0.904,0.696,2.191-0.591c1.391,0.278,2.435-1.217,2.435-1.217 s1.635,0.557,1.878-1.6c0.661-0.174,0.522-1.113,0.139-1.391s-0.383-1.113,0.139-1.67c0.278,1.287,0.87,1.704,0.87,1.704 s-0.174,1.67,2.226,2.365c-0.939-1.183-1.844-2.157-1.148-2.887c-0.417-0.661-0.487-1.635-0.417-2.052 c0.07-0.417-0.035-1.739-0.487-2.817c-0.452-1.078-1.809-3.27-1.809-3.27s-0.183-2.983-4.531-5.174 c0.209-0.278,1.574-0.6,1.574-0.6S28.872,16.766,27.516,16.488z"/></g><g><path fill="#212121" d="M27.481,32.071c0,0-0.035-0.835-1.148-1.322c0.313-1.357-0.035-3.096-0.87-3.131 c-0.835-0.035-1.391,2.087-1.009,2.922c-0.87-0.035-0.626-0.278-1.044-0.522s-0.835,0.452-0.835,0.452s-2.122-1.217-2.817-0.87 s0.07,1.53,0.348,1.635c0.278,0.104,1.496-0.07,1.496-0.07s0.626,1.565,1.67,1.287c1.044-0.278,2.052-0.278,2.052-0.278 s0.417,0.383,0.904,0.209C26.716,32.21,27.481,32.071,27.481,32.071z"/></g><g><path fill="#212121" d="M26.82,28.141c0,0-0.278-0.939-0.87-1.357c-0.591-0.417-0.661,0.417-0.661,0.417 s-0.417-0.835-0.835-0.765c-0.417,0.07,0.07,0.87-1.009,1.217c0.139-1.148-1.357-2.504-1.357-2.504s1.009,0.035,0.835-0.487 c-0.174-0.522,0.974-0.8,0.939-1.322c-0.035-0.522,0.313-1.67-0.661-1.426c-0.974,0.243-1.357,0.87-1.113,1.53 s-0.174,1.217-0.904,1.635c-0.73,0.417-1.635,0.591-1.635,0.591s-0.348,0.661-1.357,0.765c-0.035,0.626-1.391,0.383-1.391,0.383 s-0.904,0.696-1.739,0.487c-0.835-0.209,0-1.426,1.113-1.217c0.626-0.87,1.357-0.939,1.704-1.009 c0.348-0.07-0.139-0.835,1.426-1.078s1.809-1.6,1.217-2.191c-0.591-0.591-0.139-1.461,0.696-0.87 c0.835,0.591,1.53,0.383,2.017-0.243c0.487-0.626,1.217-0.243,1.078,0.487c-0.139,0.73,0.522,1.148,0.383,2.122 c-0.139,0.974-0.209,1.183,0.87,1.844C26.646,25.81,27.307,27.201,26.82,28.141z"/></g><g><path fill="#212121" d="M16.629,17.079c0,0-0.278,1.6,0.313,2.331c0.278-0.696,0.626-0.835,0.626-0.835s0.174,2.226,0,2.887 c-0.174,0.661-0.487,1.113-0.487,1.113s-0.174-1.496-0.904-0.835c-0.87-0.557-1.113-0.765-1.357-1.739 c-0.243-0.974-1.148-1.357-1.148-2.157s-1.113-0.591-0.696-1.322c0.417-0.73-0.348-1.496-0.209-2.017s0.73-1.113,0.73-1.113 s0.104,1.113,0.8,1.426c0.696,0.313-0.035,0.661,0.904,1.391C16.142,16.94,16.629,17.079,16.629,17.079z"/></g><g><path fill="#fafafa" d="M14.055,19.166c0,0-0.47-0.626-1.2-1.226c-0.73-0.6-0.548-0.809-0.47-1.487 c0.078-0.678-0.496-1.617-0.939-2.661c-0.444-1.043,0.678-1.33,0.522-1.904c-0.107-0.394,0.077-0.631,0.205-0.746 c-0.216-0.222-0.456-0.423-0.727-0.584c-0.417,0.365-0.052,1.2-0.052,1.2l-1.044-0.104l0.678,1.513l-0.73,0.104 c0,0,1.096,2.035,1.617,3.757c-0.835,0.783,1.617,2.348,1.617,2.348l-0.574,0.73c0,0,1.803,1.659,2.993,2.36 c-0.381-0.403-1.686-1.8-1.975-2.334C13.637,19.506,14.055,19.166,14.055,19.166z"/><polygon fill="#fafafa" points="10.505,8.418 10.481,8.366 10.371,8.418"/></g><g><path fill="#fafafa" d="M27.151,27.671c0,0-0.991,2.452-0.104,3.444c0.887,0.991,0.678,2.191,0.417,2.609 c-0.261,0.417-0.73,0.991-1.931,1.252c1.617,0.47,2.661-1.096,2.765-1.357c0.104-0.261,0.261-1.304,0.052-2.244 s-0.887-2.139-0.887-2.139S27.829,28.506,27.151,27.671z"/></g><g><path fill="#fafafa" d="M20.606,9.964c0,0-2.882,1.428-3.787,3.411c0.244,0.132,0.659,0.26,0.659,0.26s-0.989,1.819-0.862,3 c0.734-1.66,1.5-3.415,2.202-4.181c-0.606,0.128-0.798,0.223-0.798,0.223S19.681,10.507,20.606,9.964z"/></g></svg>