<svg xmlns="http://www.w3.org/2000/svg"  viewBox="0 0 48 48" width="1600px" height="1600px"><path fill="#37474f" d="M24,4C13,4,4,13,4,24s9,20,20,20s20-9,20-20S35,4,24,4z M24,33.5c-5.2,0-9.5-4.2-9.5-9.5 s4.2-9.5,9.5-9.5s9.5,4.2,9.5,9.5S29.2,33.5,24,33.5z"/><path fill="#fff" d="M34.5,24c0,5.8-4.7,10.5-10.5,10.5S13.5,29.8,13.5,24S18.2,13.5,24,13.5S34.5,18.2,34.5,24z"/><path d="M23.4 21.8C23.4 21.8 23.4 21.9 23.4 21.8 23.4 21.9 23.4 21.8 23.4 21.8 23.4 21.8 23.4 21.7 23.4 21.8 23.4 21.7 23.4 21.8 23.4 21.8zM22.4 18.9C22.4 18.8 22.4 18.8 22.4 18.9 22.4 18.8 22.4 18.8 22.4 18.9 22.5 18.9 22.5 18.9 22.4 18.9 22.4 18.9 22.4 18.9 22.4 18.9z"/><path d="M25.4,30.6l0-8.8c0,0,0.3-0.1,0.4-0.2c0.1-0.1,0.1-0.3,0.1-0.4c0-0.1-0.3-1.9-0.3-2c0-0.2-0.1-0.3-0.4-0.4 c-0.1-0.1-0.8-0.4-0.8-0.4l0-0.2l-0.1,0l0-0.2c0.2-0.2,0.2-0.5,0.2-0.5c0.1-0.1,0.1-0.2,0.1-0.4c0-0.1,0-0.1,0-0.1 c0-0.3,0.1-0.9-0.4-0.9c0,0,0-0.1-0.1-0.1c-1-0.1-0.9,0.6-0.9,1c0,0-0.1,0-0.1,0.1c0,0.1,0,0.3,0.2,0.4l0.1,0.6 c0.3,0.1,0.3,0.2,0.3,0.2l-0.1,0l0.2,0.4l0.3-0.3c0,0,0.2,0.1,0.3,0.1c0.2,0.6,0.1,1.7,0,2.1h0c-0.1-0.7-0.9-2.4-1.2-2.5 c0,0-0.2,0.1-0.3,0.2c0.1-0.4,0-0.5,0-0.6c0,0-0.1-0.1-0.2-0.2v0l0,0c0,0,0.1,0,0.1,0c0.1,0,0.1-0.2,0-0.2c0,0-0.1,0-0.1,0l0-0.3 c0,0,0,0-0.1,0l0-0.1c0,0,0.1,0,0.1,0l0.1-0.9c0,0-0.1-0.1-0.1-0.1s-0.1,0-0.1,0l-0.1,0.9c0,0,0,0,0.1,0l0,0.1c0,0-0.1,0-0.1,0 l0,0.4h0c-0.1,0-0.1,0-0.2,0.1c0,0.1-0.1,0.3-0.1,0.4c0,0.4,0,0.8,0.4,0.8c0.1,0,0.2-0.1,0.3-0.1c0,0.1,0,0.3,0,0.4 c-0.1,0.1-0.2,0.2-0.3,0.1c-0.3,0-0.4-0.2-0.3-0.4c0,0-0.1,0-0.1,0.1c-0.1,0.6-0.3,1.9-0.3,2.5c0,0.4,0.4,0.7,0.5,0.7 c0.1,0,0.2,0,0.2,0L22,31.2c0,0,0.2,0.5,0.4,0.5c0.4,0,0.7-0.4,0.7-0.4s0.8-5.6,0.9-6.2h0c0,1.2,0.3,1.8,0.2,2.2 c-0.1,0.4,0.1,3.3,0.2,4c0,0,0.8,0.1,1,0.1c0.7,0.1,1.1,0,1.1-0.2C26.5,31.1,25.9,31.1,25.4,30.6z M23.5,21.9l-0.2,0 c0,0-0.1,0-0.1-0.1c0.1-0.2,0-0.4-0.1-0.6l0.3,0C23.5,21.4,23.6,21.6,23.5,21.9z M24.8,19.6v-0.2c0,0,0.4,0.1,0.4,0.3 C25.2,19.7,24.9,19.7,24.8,19.6z"/><path fill="#90a4ae" d="M29.6,10.8c-5.3-5-12.7-4.7-13-4.7c-0.1,0-0.7,0-1.7,0.1c-1.5,0.8-2.9,1.7-4.1,2.8 c2.9-0.7,5.8-0.8,5.8-0.8c0.1,0,6.9-0.3,11.5,4.1c2.6,2.5,4.9,6.1,5.2,10.5c0,0.4,0.1,0.7,0.1,1.1c0,0,0,0,0,0c0,0,0,0,0,0 c0,5.2-4.2,9.5-9.5,9.5c6.7,0,11.6-3.7,11.6-9.4C35.6,18.4,32.9,13.9,29.6,10.8z"/><path fill="#90a4ae" d="M38.3,23c2.1-7-1.6-13.5-1.7-13.7c0-0.1-0.3-0.6-0.8-1.4c-1.4-1-2.8-1.8-4.4-2.4 c2,2.2,3.3,4.8,3.3,4.8c0,0.1,3.4,6,1.6,12.1c-1,3.5-3.2,7.1-7,9.5c-0.3,0.2-0.6,0.4-0.9,0.6c0,0,0,0,0,0c0,0,0,0,0,0 C23.7,34.8,18,33,15.6,28.3c3.1,6,8.6,8.6,13.7,6C34.2,31.8,37,27.3,38.3,23z"/><path fill="#90a4ae" d="M31.8,36c7.1-1.6,11-7.9,11.2-8.2c0-0.1,0.4-0.6,0.9-1.4c0.2-1.7,0.2-3.3,0-5c-1,2.8-2.6,5.2-2.6,5.3 c0,0.1-3.6,5.9-9.8,7.2c-3.5,0.8-7.8,0.7-11.7-1.5c-0.3-0.2-0.6-0.3-0.9-0.6c0,0,0,0,0,0h0c-4.3-2.9-5.5-8.8-2.6-13.1 c-3.8,5.6-3.4,11.7,1.4,14.9C22.2,36.7,27.4,37,31.8,36z"/><path fill="#90a4ae" d="M17.6,36.8c4.9,5.3,12.4,5.5,12.7,5.5c0.1,0,0.7,0,1.7,0c1.5-0.7,3-1.5,4.3-2.5 c-2.9,0.6-5.8,0.4-5.9,0.4c-0.1,0-6.9-0.2-11.2-4.8c-2.5-2.6-4.5-6.3-4.6-10.8c0-0.4,0-0.7,0-1.1c0,0,0,0,0,0 c0.3-5.2,4.8-9.2,10-8.9c-6.7-0.4-11.8,3-12.1,8.7C12.1,28.9,14.5,33.5,17.6,36.8z"/><path fill="#90a4ae" d="M9.7,25.2c-2,7,1.8,13.5,1.9,13.7c0,0.1,0.3,0.6,0.8,1.4c1.4,1,2.8,1.7,4.4,2.3 c-2-2.2-3.4-4.7-3.4-4.8c0-0.1-3.4-6-1.7-12.1c1-3.5,3.1-7.2,6.9-9.6c0.3-0.2,0.6-0.4,0.9-0.6c0,0,0,0,0,0 c4.6-2.4,10.4-0.7,12.8,3.9c-3.1-6-8.7-8.5-13.7-5.8C13.7,16.4,11,20.9,9.7,25.2z"/><path fill="#90a4ae" d="M16.2,12c-7.1,1.6-11,7.9-11.2,8.2c0,0.1-0.4,0.6-0.9,1.4c-0.2,1.7-0.2,3.3,0,5 c1-2.8,2.6-5.2,2.6-5.3c0-0.1,3.6-5.9,9.8-7.2c3.5-0.8,7.8-0.7,11.7,1.5c0.3,0.2,0.6,0.3,0.9,0.6c0,0,0,0,0,0h0 c4.3,2.9,5.5,8.8,2.6,13.1c3.8-5.6,3.4-11.7-1.4-14.9C25.8,11.3,20.6,11,16.2,12z"/><path fill="#90a4ae" d="M24,35c-6.1,0-11-4.9-11-11s4.9-11,11-11s11,4.9,11,11S30.1,35,24,35z M24,15c-5,0-9,4-9,9 c0,5,4,9,9,9c5,0,9-4,9-9C33,19,29,15,24,15z"/></svg>