<svg xmlns="http://www.w3.org/2000/svg"  viewBox="0 0 48 48" width="1600px" height="1600px" baseProfile="basic"><circle cx="24" cy="24" r="20" fill="#d50000"/><path fill="#fff" d="M30.001,32.72c0.014-4.797-2.458-8.908-5.97-10.606c-3.522,1.677-6.018,5.774-6.033,10.571 c-0.012,3.92,1.638,7.382,4.158,9.444c1.043,0.853,2.584,0.858,3.632,0.011C28.32,40.093,29.989,36.64,30.001,32.72z"/><path fill="#fff" d="M36.54,35.72c0.61,0.96,1.02,1.95,1.2,2.93c0.04,0.2-0.05,0.41-0.23,0.52 c-2.21,1.36-5.56,1.61-9.02,0.62c0.07-0.11,0.14-0.21,0.2-0.32C31.38,38.82,34.08,37.53,36.54,35.72z"/><path fill="#fff" d="M10.43,26.51C7.9,27.07,6.41,28.78,6,29.31c-0.53-0.82-0.97-1.64-1.33-2.45 c-0.12-0.27,0.02-0.59,0.3-0.68c1.49-0.5,3.14-0.85,4.89-1.01C10.02,25.64,10.2,26.09,10.43,26.51z"/><path fill="#fff" d="M19.28,39.46c0.08,0.14,0.16,0.27,0.25,0.4c-3.4,0.91-6.65,0.64-8.81-0.69 c-0.17-0.11-0.27-0.32-0.23-0.52c0.17-0.94,0.57-1.89,1.14-2.81C14.04,37.59,16.66,38.82,19.28,39.46z"/><path fill="#fff" d="M40.39,30.69c-1.14,1.43-2.49,2.75-4.01,3.91c-2.54,1.94-5.35,3.31-8.13,3.95l-0.21,0.05l-0.11,0.19 c-0.13,0.23-0.27,0.46-0.42,0.68c-0.13-0.04-0.27-0.09-0.4-0.14c-0.07-0.02-0.15-0.03-0.23-0.02c-1,0.13-1.97,0.17-2.88,0.09 c-0.86,0.08-1.77,0.05-2.71-0.07c-0.07-0.01-0.15,0-0.22,0.03c-0.18,0.07-0.37,0.13-0.55,0.2c-0.17-0.25-0.33-0.5-0.48-0.77 l-0.1-0.2l-0.22-0.05c-2.77-0.64-5.57-2-8.1-3.94c-1.83-1.4-3.45-3.07-4.71-4.83c0.53-0.62,2.04-2.13,4.4-2.4l0.85-0.1l-0.51-0.69 c-0.36-0.5-0.65-1.13-0.87-1.81c0.02-0.09,0.03-0.19,0-0.29C10.28,22.64,10,20.62,10,18.5c0-3.91,0.94-7.49,2.47-10.21 c0.15-0.25,0.48-0.33,0.72-0.16c1.92,1.31,3.79,3.07,5.43,5.17c0.27,0.34,0.8,0.21,0.89-0.21c0.74-3.86,2.25-6.99,4.16-8.69 c0.19-0.16,0.47-0.16,0.66,0c1.92,1.7,3.43,4.84,4.17,8.7c0.08,0.43,0.62,0.54,0.89,0.2c1.66-2.13,3.54-3.91,5.46-5.2 c0.25-0.17,0.58-0.09,0.72,0.17C37.08,10.99,38,14.58,38,18.5c0,1.35-0.11,2.66-0.32,3.91c-0.37,1.16-1.01,3.07-1.64,4.65 l-0.22,0.54l0.56,0.14C38.58,28.29,39.93,30.02,40.39,30.69z"/><path fill="#fff" d="M43.33,26.86c-0.51,1.14-1.18,2.3-2.01,3.43c-0.38-0.62-1.75-2.55-4.16-3.37 c0.22-0.59,0.45-1.2,0.67-1.79c1.86,0.16,3.63,0.52,5.2,1.05C43.31,26.27,43.45,26.59,43.33,26.86z"/><ellipse cx="24" cy="42" fill="#2b2875" rx="2" ry="1"/><g><path fill="#2b2875" d="M13.5,23.25c0,0,3.5-1.75-1.5-12c3,3.5,3.5,8,3.5,8S16,23,13.5,23.25z"/><path fill="#2b2875" d="M35.041,23.25c0,0-3.5-1.75,1.5-12c-3,3.5-3.5,8-3.5,8S32.541,23,35.041,23.25z"/><path fill="#2b2875" d="M21.5,31.875l-5-3c0,0-2-1.625-1.75-3.75c1.5,1.75,1,1.625,3.125,3.25S21,29.75,21.5,31.875z"/><path fill="#2b2875" d="M26.728,31.875l5-3c0,0,2-1.625,1.75-3.75c-1.5,1.75-1,1.625-3.125,3.25S27.228,29.75,26.728,31.875 z"/><path fill="#d50000" d="M23.375,33.983l-0.794,3.718c-0.22,1.03-0.331,2.08-0.331,3.133v1.291h3.375v-1.458 c0-0.943-0.089-1.883-0.265-2.809l-0.735-3.853C24.568,33.434,24.563,33,23.99,33h0C23.425,33,23.442,33.422,23.375,33.983z"/><ellipse cx="24" cy="42" fill="#2b2875" rx="2" ry="1"/><path fill="#d50000" d="M20,33c-0.02-0.026-0.978-0.879-2.7-0.628C13,33,12.949,28.735,13,27l0,0 c-0.042,1.436,0.695,2.786,1.453,3.493c1.092,1.018,2.579,0.897,2.747,0.885c1.524-0.159,2.299,0.911,2.332,0.956L20,33z"/><path fill="#d50000" d="M27.992,33c0.02-0.026,0.978-0.879,2.7-0.628c4.3,0.628,4.351-3.637,4.3-5.372l0,0 c0.042,1.436-0.695,2.786-1.453,3.493c-1.092,1.018-2.579,0.897-2.747,0.885c-1.524-0.159-2.299,0.911-2.332,0.956L27.992,33z"/><path fill="#2b2875" d="M20.875,28.375V25.25c0,0,0.411,0.536,0.875,2.625C22,29,20.875,28.375,20.875,28.375z"/><path fill="#2b2875" d="M26.911,28.375V25.25c0,0-0.411,0.536-0.875,2.625C25.786,29,26.911,28.375,26.911,28.375z"/><path fill="#d50000" d="M28.75,34.25c0,0,0.915-0.64,2.666-0.512c0.701,0.051,1.417-0.098,1.985-0.513 C34.769,32.227,35.75,31,35.75,31s-0.875,3.25-3.125,3.375S28.75,34.25,28.75,34.25z"/><path fill="#d50000" d="M19.125,34.25c0,0-0.915-0.64-2.666-0.512c-0.701,0.051-1.417-0.098-1.985-0.513 C13.106,32.227,12.125,31,12.125,31S13,34.25,15.25,34.375S19.125,34.25,19.125,34.25z"/><path fill="none" stroke="#2b2875" stroke-miterlimit="10" stroke-width=".5" d="M14.875,19.125c0,0,0.122-2.288-2-2.125 c-1.625,0.125-1,3.125,0.125,3.125s0.5-1.375,0.5-1.375"/><path fill="none" stroke="#2b2875" stroke-miterlimit="10" stroke-width=".5" d="M33.376,19.125c0,0-0.118-2.288,1.924-2.125 c1.563,0.125,0.962,3.125-0.12,3.125s-0.481-1.375-0.481-1.375"/><path fill="#d50000" d="M24,28.375c-1.216,0-1.87-0.563-1.999-1.723c-0.133-1.2,0.23-2.197,1.082-2.963 C24.221,22.665,24.003,20.028,24,20l0,0c0.016,0.128,0.749,2.862-0.583,4.061c-0.735,0.661-1.035,1.491-0.919,2.537 c0.101,0.907,0.536,1.277,1.501,1.277c0.379,0,0.683-0.135,0.903-0.4c0.287-0.347,0.408-0.913,0.309-1.442 c-0.062-0.33-0.295-0.604-0.623-0.73c-0.309-0.12-0.627-0.081-0.876,0.105c-0.227,0.17-0.337,0.405-0.337,0.718 c0,0.271,0.625,0.875,0.625,0V26c1,1,0.431,1,0,1c-1,0-1.125-0.564-1.125-0.875c0-0.468,0.186-0.854,0.538-1.118 c0.384-0.288,0.892-0.353,1.357-0.171c0.489,0.189,0.838,0.603,0.933,1.104c0.128,0.68-0.031,1.39-0.415,1.854 C24.972,28.174,24.527,28.375,24,28.375z"/></g></svg>