<svg xmlns="http://www.w3.org/2000/svg"  viewBox="0 0 48 48" width="1600px" height="1600px"><circle cx="24" cy="24" r="20" fill="#efebe9"/><circle cx="24" cy="24" r="17" fill="#d7ccc8"/><circle cx="24" cy="24" r="15" fill="#efebe9"/><rect width="9" height="3" x="12" y="11" fill="#f50057"/><path fill="#f50057" d="M21.386,18.545C20.44,18.781,19.315,19,17.5,19c-2.158,0-3.807-0.637-5.512-2.129l-1.976,2.258 C12.251,21.088,14.63,22,17.5,22c2.146,0,3.536-0.275,4.614-0.545L21.386,18.545z"/><path fill="#f57c00" d="M27.953,22.646l-1.26-0.504c-1.82-0.728-3.193-3.046-3.193-5.393c0-3.446,2.916-6.25,6.5-6.25	c3.794,0,7,2.977,7,6.5c0,1.509-0.575,3.696-2.189,5.311l-2.121-2.121C33.595,19.284,34,17.936,34,17c0-1.864-1.869-3.5-4-3.5	c-2.162,0-3.5,1.687-3.5,3.25c0,0.562,0.144,1.088,0.352,1.52l2.068-3.964l2.66,1.389L27.953,22.646z"/><path fill="#64dd17" d="M21,27v-3h-2.5v-1h-3v1H11v3h4h0.5v0.032C15.336,27.011,15.169,27,15,27c-2.206,0-4,1.794-4,4	c0,2.28,1.612,4,3.75,4c0.396,0,0.774-0.06,1.128-0.17c-0.174,0.546-0.41,1.13-0.72,1.749l2.684,1.342	c1.663-3.327,1.904-6.589,0.658-8.778V27H21z M15.5,31c0,0.607-0.294,1-0.75,1S14,31.607,14,31c0-0.683,0.597-1,1-1	c0.083,0,0.278,0,0.5,0.161V31z"/><rect width="3" height="10" x="23" y="25" fill="#039be5"/><path fill="#039be5" d="M35,28v-1.5V25h-1v-1h-3v1h-3v3h3v1.758c-1.698,0.109-4.5,1.303-4.5,3.992	c0,2.208,1.542,3.75,3.75,3.75c2.068,0,3.75-1.683,3.75-3.75v-0.626c0.462,0.131,0.928,0.299,1.409,0.505l1.182-2.758	c-0.875-0.375-1.729-0.651-2.591-0.836V28H35z M31,33.75c0,0.421-0.33,0.75-0.75,0.75c-0.625,0-0.75-0.287-0.75-0.75	c0-0.478,0.926-0.872,1.5-0.975V33.75z"/><polygon fill="#039be5" points="38,26.5 37,25.5 38,24.5 36.5,23 35,24.5 36,25.5 35,26.5 36.5,28"/></svg>