<svg xmlns="http://www.w3.org/2000/svg"  viewBox="0 0 48 48" width="1600px" height="1600px" baseProfile="basic"><path fill="#f57c14" d="M-97.795-43.352c-1.294-0.012-2.495,0.525-3.335,1.376s-1.388,2.041-1.388,3.335v4.314h3.58v-1.889 v-2.355c0-0.513,0.117-0.956,0.326-1.294c0.222-0.338,0.49-0.536,0.805-0.548c0.315,0,0.595,0.21,0.805,0.548 c0.21,0.338,0.326,0.77,0.326,1.294v4.233h3.58v-4.314c0-1.294-0.536-2.495-1.388-3.335C-95.299-42.815-96.5-43.363-97.795-43.352 M-89.224-44.518c0.35-0.35,0.583-0.863,0.583-1.411c0-0.548-0.222-1.049-0.583-1.399c-0.35-0.35-0.863-0.583-1.411-0.583 c-0.548,0-1.049,0.222-1.399,0.583c-0.35,0.35-0.583,0.851-0.583,1.399c0,0.548,0.222,1.049,0.583,1.411l0.431,0.431 c0.735,0.735,0.793,0.921,0.082,1.621l-0.396,0.396c-0.326,0.326-0.536,0.77-0.536,1.283v6.437h3.615v-6.437 c0-0.501-0.21-0.956-0.536-1.283l-0.396-0.396c-0.688-0.688-0.641-0.898,0.082-1.632L-89.224-44.518z M-82.811-37.137 c-0.222,0.396-0.49,0.63-0.805,0.63c-0.315,0-0.583-0.233-0.805-0.63c-0.21-0.396-0.326-0.898-0.326-1.493s0.117-1.108,0.326-1.493 c0.222-0.396,0.49-0.63,0.805-0.63c0.315,0,0.583,0.233,0.805,0.63c0.152,0.303,0.257,0.653,0.315,1.061h3.591 c-0.105-1.131-0.606-2.134-1.364-2.904c-0.84-0.84-2.041-1.388-3.335-1.388c-1.294,0-2.495,0.525-3.335,1.388 c-0.84,0.84-1.388,2.041-1.388,3.335s0.536,2.495,1.388,3.335c0.653,0.653,1.796,1.388,3.335,1.388c1.154,0,2.227-0.42,3.067-1.131 c0.595-0.501,1.481-1.528,1.632-3.148h-3.591C-82.543-37.79-82.647-37.428-82.811-37.137 M-69.436-34.956 c0-0.117-0.047-0.233-0.093-0.326l-1.959-2.962l1.364-2.46c0.501-0.863,0.222-1.947-0.641-2.449s-1.947-0.222-2.449,0.641 l-1.621,2.904v-1.936c0-0.991-0.805-1.796-1.796-1.796s-1.796,0.805-1.796,1.796v7.241h3.58v-2.834l1.889,2.834h2.88 C-69.727-34.326-69.436-34.618-69.436-34.956" transform="translate(95.574 61.68) scale(.92213)"/><path fill="#4ac3cb" d="M-61.926-37.58c0,2.181-1.061,3.591-3.615,3.591h-0.093c-0.898,0-1.819-0.233-2.414-0.606 c-1.003-0.653-1.679-1.726-1.003-2.857c0.606-1.049,2.787-1.236,3.102,0.583c0.105,0.641,0.443,0.56,0.443-0.023v-4.349 c0-1.294,0.805-2.099,1.796-2.099c0.991,0,1.784,0.805,1.784,1.784L-61.926-37.58z M-63.71-43.923c0.979,0,1.772-0.793,1.772-1.772 c0-0.979-0.793-1.772-1.772-1.772c-0.98,0-1.772,0.793-1.772,1.772C-65.483-44.716-64.69-43.923-63.71-43.923 M-57.46-34.326 v-4.816c0-0.35,0.222-0.945,0.63-1.084c0.408-0.163,0.793,0.023,1.236,0.187c1.481,0.571,2.635-0.175,2.822-1.154 c0.175-0.968-0.466-1.901-1.423-2.087c-1.201-0.222-2.029,0.152-3.008,0.898c-0.07,0.058-0.257,0.222-0.315,0.268 c-0.233-0.723-0.91-1.248-1.702-1.248c-0.991,0-1.784,0.805-1.784,1.784v7.241L-57.46-34.326z M-54.405-34.233 c0.979,0,1.772-0.793,1.772-1.772c0-0.979-0.793-1.772-1.772-1.772c-0.979,0-1.772,0.793-1.772,1.772 C-56.178-35.026-55.385-34.233-54.405-34.233" transform="translate(95.574 61.68) scale(.92213)"/></svg>