<svg xmlns="http://www.w3.org/2000/svg"  viewBox="0 0 48 48" width="1600px" height="1600px"><path fill="#388E3C" d="M48,41c-1.9,1.2-8.8,4.9-9,5c-5-5.6-1.9-20.3-9.2-20.8c-0.3,0-0.6,0.1-0.6,0.1c2,1.8,3.3,2.1,3.3,6.7c0,1.9-0.8,4.8-0.8,4.8s-1.5,0.5-3.6,0.5s-3-0.2-3.1-0.2c0-0.4-0.2-2.8-0.2-3.5c0,0,2.9-2.4,2.9-3.8c0,0-3.5,4.2-7.2,4.2c-1,0-4.8-5.4-5-5.8c-1-1.5-1.9-1.7-2.1-2.2c-0.2,0-11.9,2.7-12.6,2.7c-0.2,0-0.8,0-1-0.8c-0.2-0.8,0.8-1.2,1.1-1.3c0.2,0,11.2-2.4,11.6-2.5c-0.6-1.2,0.5-1.4,1.6-1.6c0.8-0.1,1.3-1.2,2.2,0.8c0,0,3.1-0.7,3.4-0.7c1.2-0.3,1.7,0,1.9,0.6c0.2,0.5-0.3,1-0.7,1.1c-0.3,0.1-3.2,0.7-4.6,1c-0.3,1.1,2.2,3.6,4.4,5.6c2.4,0,4.8-4.1,4.8-5c0-2.8-3.7-1.3-3.7-3c0-0.5,0.2-0.7,0.3-0.9c-0.6-0.2-1.1-0.3-1.6-0.5c1.6-2,0.7-3.5,0.9-4.2c0.1-0.1,1-0.4,4-0.4c3.9,0,3.5,0.6,5.1,4.6c0.4-0.2,0.7-0.4,1.1-0.6c-0.5,3.5-2.9,0.7-2.9,3.1C38.9,24.1,39.1,33.8,48,41z"/><path fill="#388E3C" d="M30 15.6c-.1.6.3.7 1.1 2-.1.3-.2.6-.7.7-1.4-1.8-1.4-2-4-2-4.2 0-5.7.8-6.2 1 .4-1.4 2.2-1.8 3.8-2.8 1.3-.9 2.1-2.1 3.3-3.3.5.2 1.1 2.2 2.7 2 0 .6 0 1.8 0 1.8C42.4 11.4 45.4 4.6 47 2 45.1 12.3 34.3 15.2 30 15.6zM34.7 44.9c-.2.1-3.3 1.7-9 .9 0-.4-.6-4.6-.6-4.9.2-.2 2.9-1.6 7.1-1.7C32.4 39.2 34.5 44.2 34.7 44.9zM21.3 30.3c-.2-.6-2-5.1-2.1-5.2.4-.1.8-.2 1.1-.3.1.1 2.4 3.8 2.7 4.3C22.5 29.5 21.9 29.9 21.3 30.3zM31.7 37.6c.2.2.2.6.2.8-.9.3-4.7 1.1-5.3 1.2l-.2-1.2C26.7 38.2 31.1 37.6 31.7 37.6zM25.1 37.9c.2 0 .5 0 .7 0 .1.7.2 1.3.3 2-.2.1-.8.2-1 .3C25 39.8 24.9 38.4 25.1 37.9zM17.4 21.9c.2-.1.3-.1.5-.1.4-.1.7-.2 1.1-.2.3 0 .9.6 1.2.8-.8.2-1.5.3-2.3.5C17.9 22.7 17.5 22.1 17.4 21.9z"/></svg>