<svg xmlns="http://www.w3.org/2000/svg"  viewBox="0 0 48 48" width="1600px" height="1600px"><path fill="#009688" d="M46.764,6.454c-1.021,0.53-7.049,3.73-13.002,15.282c0,0-1.92,4.215-3.06,5.773C29.957,25.744,28.077,22,24,22c-4.792,0-10.6,4.275-14.87,12.817L8,37c-2.958,1.208-8,1-8,1s1.429,3.004,7.923,3.004C12.625,41.004,18.875,39,25,39c3.284,0,5.315,0.723,6,0.908c1.211,0.328,1.412-0.328,1.412-0.328s3.764-7.271,3.588-7.649c-0.177-0.378-0.555-0.404-0.555-0.404C33.449,31.217,31.678,31.031,30,31c-4.599-0.084-7.883,0.994-13.979,3.497C15.018,34.909,13.5,35.53,12,36c2.185-1.175,8.037-5.35,12.14-6.292c4.103-0.942,6.86-0.673,6.86-0.673s0.829-1.819,1.367-2.693c0.538-0.874,1.295-2.119,2.304-2.724c1.009-0.605,2.959-1.496,3.649-2.337C39.009,20.441,40.512,19.481,41,16c0,0,1-5.583,6.559-9.773L48,6C48,6,47.786,5.924,46.764,6.454z"/></svg>