<svg xmlns="http://www.w3.org/2000/svg"  viewBox="0 0 48 48" width="1600px" height="1600px"><path fill="#388E3C" d="M6,10c0-2.2,1.8-4,4-4h28c2.2,0,4,1.8,4,4v28c0,2.2-1.8,4-4,4H10c-2.2,0-4-1.8-4-4V10z"/><path fill="#263238" d="M30,19c-0.4,0-0.8,0.1-1.2,0.2c0.1-0.5,0.2-1,0.2-1.5c0-3.7-2.5-6.6-6-6.6c-1.3,0-2.1,0.5-3,1h-4v18l4-1v-5.5c0.7,0.3,1.9,0.4,2.7,0.4c0.1,0,0.2,0,0.3,0v14l4-1v-5.5c0.7,0.3,1.9,0.4,2.7,0.4c3.5,0,6.3-2.7,6.3-6.3C36,22,33.5,19,30,19z M21.2,21c-0.4,0-0.9-0.1-1.2-0.4v-6.2c0.4-0.2,0.8-0.4,1.2-0.4c1.5,0,2.8,1.6,2.8,3.5c0,1-0.3,1.9-0.8,2.5H23v0.2C22.5,20.7,21.9,21,21.2,21z M28.2,29c-0.4,0-0.9-0.1-1.2-0.4v-6.2c0.4-0.2,0.8-0.4,1.2-0.4c1.5,0,2.8,1.6,2.8,3.5S29.8,29,28.2,29z"/><path fill="#FFF" d="M22,10c-1.3,0-2.1,0.5-3,1h-4v18l4-1v-5.5c0.7,0.3,1.9,0.4,2.7,0.4c3.5,0,6.3-2.7,6.3-6.3C28,13,25.5,10,22,10z M20.2,20c-0.4,0-0.9-0.1-1.2-0.4v-6.2c0.4-0.2,0.8-0.4,1.2-0.4c1.5,0,2.8,1.6,2.8,3.5C23,18.4,21.8,20,20.2,20z M35,24.6c0,3.7-2.8,6.3-6.3,6.3c-0.8,0-2-0.1-2.7-0.4V36l-4,1V23.9c0.2,0,0.5,0,0.7,0c1.2,0,2.4-0.3,3.3-0.9v4.6c0.4,0.2,0.8,0.4,1.2,0.4c1.5,0,2.8-1.6,2.8-3.5c0-1.6-0.9-2.9-2-3.4c0.6-0.9,0.9-2,1-3.1c0,0,0,0,0,0C32.5,18,35,21,35,24.6z"/></svg>