<svg xmlns="http://www.w3.org/2000/svg"  viewBox="0 0 48 48" width="1600px" height="1600px"><path fill="#7986cb" d="M40,15C21.1,34.3,13,42.5,4,41c14.7-7.5,33-29,33-29S39.5,12.7,40,15z M8,15 c18.9,19.3,27,27.5,36,26c-14.7-7.5-33-29-33-29S8.5,12.7,8,15z"/><path fill="#bcaaa4" d="M26,40h-4c-1.1,0-5-5-5-7v-4c0-1.1,0.9-2,2-2h10c1.1,0,2,0.9,2,2v4C31,35.1,27.1,40,26,40z"/><path fill="#3949ab" d="M41,18c-0.6,0-1-0.4-1-1c0-2.8-2.2-5-5-5c-0.6,0-1-0.4-1-1s0.4-1,1-1c1.3,0,2.5,0.4,3.6,1l4.7-4.7 c0.1-0.1,0.1-0.1,0.2-0.2C43.6,6.1,43.8,6,43.9,6c0.1,0,0.3,0,0.4,0.1c0.1,0,0.2,0.1,0.3,0.2c0.1,0.1,0.2,0.2,0.2,0.3 C44.9,6.6,45,6.8,45,6.9c0,0.1,0,0.3-0.1,0.4c0,0.1-0.1,0.2-0.1,0.2L41,13.3c0.7,1.1,1,2.3,1,3.7C42,17.6,41.6,18,41,18z M7,18 c-0.6,0-1-0.4-1-1c0-1.3,0.4-2.6,1-3.7L3.2,7.6C3.1,7.5,3.1,7.4,3.1,7.3C3,7.2,3,7,3,6.9c0-0.1,0.1-0.3,0.1-0.4 c0.1-0.1,0.1-0.2,0.2-0.3c0.1-0.1,0.2-0.1,0.3-0.2C3.8,6,4,6,4.1,6c0.1,0,0.3,0.1,0.4,0.1c0,0,0,0,0,0c0,0,0,0,0,0 c0.1,0,0.1,0.1,0.2,0.2L9.4,11c1.1-0.6,2.3-1,3.6-1c0.6,0,1,0.4,1,1s-0.4,1-1,1c-2.8,0-5,2.2-5,5C8,17.6,7.6,18,7,18z"/><path fill="#5c6bc0" d="M4,5c1.1,0,2,0.9,2,2c0,1.1-0.9,2-2,2S2,8.1,2,7C2,5.9,2.9,5,4,5z M44,5c-1.1,0-2,0.9-2,2 c0,1.1,0.9,2,2,2s2-0.9,2-2C46,5.9,45.1,5,44,5z"/><path fill="#d7ccc8" d="M34,19.5c0-4.7-4.9-7.5-9-7.5h-2c-4.1,0-9,2.8-9,7.5c0,1.6,0.5,3,1.3,4.2C15.1,24.1,15,24.5,15,25 c0,2.7,1.5,4.5,4,4.9V34c0,1.1,0.9,2,2,2v2h2v-2h1.9v2h2v-2H27c1.1,0,2-0.9,2-2v-4.1c2.5-0.4,4-2.2,4-4.9c0-0.5-0.1-0.9-0.3-1.3 C33.5,22.5,34,21.1,34,19.5z"/><path fill="#ff3d00" d="M34,41c0,1.4,1,3,1,3s-3-1.9-3-6s-1-4.7-1-7c0-0.5,0-1.1,0.1-1.9c1.2-0.9,1.9-2.3,1.9-4.1 c0-0.5-0.1-0.9-0.3-1.3c0.6-0.8,0.9-1.7,1.2-2.7H34c0,0,2,6.6,2,10S34,39.6,34,41z M14,19v2c0,0,1.3,1,10,1s10-1,10-1v-2 c0,0-2.9-4-10-4S14,19,14,19z"/><path fill="#795548" d="M28,28h-1.3c-1,0-1.8-0.8-1.8-1.8v-0.6c0-0.6,0.2-1.7,1.1-1.7s4.9-0.1,4.9,1C31,27.6,29.1,28,28,28z M20,28h1.3c1,0,1.8-0.8,1.8-1.8v-0.6c0-0.6-0.2-1.7-1.1-1.7s-5,0-5,1.1C17,27.6,18.9,28,20,28z M24.1,28c-1.1,0-1.9,2.8-1.9,3.9 c0,1.1,0.9,0,1.9,0s1.9,1.1,1.9,0C26,30.8,25.1,28,24.1,28z"/><path fill="#efebe9" d="M23,36h-2v-2h2V36z M26.9,34h-2v2h2V34z"/><path fill="#dd2c00" d="M14,20c0,0,0.3-0.2,0.8-0.5s1.2-0.6,2.2-1c0.9-0.3,2-0.6,3.3-0.8c1.2-0.2,2.5-0.3,3.8-0.2 c0.6,0,1.3,0,1.9,0.1c0.6,0.1,1.3,0.2,1.9,0.3c0.6,0.1,1.2,0.2,1.7,0.4c0.5,0.1,1,0.3,1.5,0.4c0.9,0.3,1.7,0.6,2.2,0.9 C33.7,19.8,34,20,34,20s-0.3,0-0.9,0c-0.6,0-1.4-0.1-2.3-0.1c-0.5,0-1-0.1-1.5-0.1s-1.1,0-1.7-0.1c-0.6-0.1-1.2,0-1.8-0.1 c-0.6,0-1.2,0-1.8-0.1c-0.6,0-1.2,0-1.8,0c-0.6,0-1.2,0-1.8,0c-0.6,0-1.1,0-1.7,0.1c-0.5,0-1,0.1-1.5,0.1s-0.9,0.1-1.3,0.1 c-0.4,0-0.7,0.1-1,0.1C14.3,19.9,14,20,14,20z M34.4,43.2c-0.3-0.6-0.6-1.4-0.7-2.5C32.7,31.4,34,21,34,21s-0.1,0.1-0.2,0.3 c-0.2,0.9-0.6,1.7-1.1,2.4C32.9,24,33,24.5,33,25c0,1.9-0.7,3.3-2,4.1v3.7c0.5,1.4,1,3.1,1,5.2c0,4.1,3,6,3,6S34.7,43.7,34.4,43.2z"/><path fill="#ffc107" d="M20,19.5c0,0.8-0.7,1.5-1.5,1.5S17,20.3,17,19.5s0.7-1.5,1.5-1.5S20,18.7,20,19.5z M18.5,17 c-0.3,0-0.5,0.2-0.5,0.5s0.2,0.5,0.5,0.5s0.5-0.2,0.5-0.5S18.8,17,18.5,17z M18.5,16c-0.3,0-0.5,0.2-0.5,0.5s0.2,0.5,0.5,0.5 s0.5-0.2,0.5-0.5S18.8,16,18.5,16z"/></svg>