<svg xmlns="http://www.w3.org/2000/svg"  viewBox="0 0 48 48" width="1600px" height="1600px" clip-rule="evenodd"><path fill="#37474F" fill-rule="evenodd" d="M21.4,26.7c-0.7-0.8-1.3-1.6-1.7-2c-0.5,0.6-1.7,2.5-2.2,3.5c0.3,0.1,0.7,0.1,1,0.1l0.1,0.7h-0.2c-0.2,0-1.4-0.1-2.1-0.1c-0.6,0-1.2,0-1.7,0.1l0.2-0.7c0.3,0,0.6-0.1,0.9-0.2c0.6-0.4,2.9-3.4,3.5-4.2c-0.5-0.6-1.1-1.4-1.7-2.2c-0.6-0.8-1.2-1.5-1.5-1.8c-0.3-0.1-0.6-0.1-0.9-0.2L14.9,19c0.7,0.1,1.6,0.1,2.3,0.1c0.8,0,1.7,0,2.5-0.1l-0.2,0.7c-0.3,0-0.7,0.1-1,0.1c0.4,0.6,1.4,2,1.8,2.6c0.5-0.6,1.4-1.9,1.8-2.6l-0.2,0c-0.2,0-0.4-0.1-0.6-0.1L21.2,19c0.7,0.1,1.4,0.1,2.1,0.1c0.5,0,1.1,0,1.6-0.1l-0.1,0.7c-0.3,0.1-0.6,0.1-1,0.2L23.8,20c-0.5,0.4-0.9,0.9-1.3,1.4c-0.6,0.7-1.3,1.4-1.5,1.8c1.5,2,2.9,4.1,4.5,6.1l-1.1,0.2C23.2,28.7,22.3,27.7,21.4,26.7z M39,23v0.8c0,1.3,0,3.6-0.1,4.3c-0.5,0.1-0.9,0.1-1.4,0.2L37.4,29c0.9-0.1,1.8-0.1,2.6-0.1c0.8,0,1.7,0,2.6,0.1l-0.1-0.7c-0.5,0-0.9-0.1-1.4-0.2c0-0.8-0.1-2.6-0.1-3.4v-0.2c0.3,0,0.6,0,1-0.1c0.9,1,3.7,4.3,4.7,4.7l1.2-0.2c-1.2-1.3-2.9-3.7-3.9-5.3c1-0.6,2-1.7,2-2.6c0-0.8-0.5-1.4-1.3-1.7c-1-0.4-2.7-0.4-4-0.4l-3.3,0l0.1,0.7c0.5,0,1,0.1,1.4,0.1C39,20.5,39,22.6,39,23z M41,23.8v-0.2c0-0.9,0-2.9,0.1-3.7c2.1,0.1,2.7,1,2.7,1.7c0,1.2-0.9,1.8-1.4,2C41.9,23.7,41.4,23.8,41,23.8z M32.2,28.3L32,29c0.8-0.1,1.7-0.1,2.5-0.1c0.8,0,1.8,0,2.6,0.1L37,28.3c-0.4-0.1-0.8-0.1-1.2-0.2c-0.6-1.2-1.4-3.4-1.8-4.4c-0.5-1.3-1.1-3.1-1.4-3.9c0.3-0.1,0.6-0.1,0.9-0.1l0.1-0.7c-0.9,0.1-1.8,0.1-2.7,0.1c-0.7,0-1.4,0-2.1-0.1l0,0.7c0.3,0,0.7,0.1,1,0.1c-0.5,1.3-2.7,7.2-3.2,8.3c-0.4,0.1-0.8,0.1-1.2,0.2L25.5,29c0.6-0.1,1.2-0.1,1.8-0.1c0.8,0,1.6,0,2.4,0.1l-0.1-0.7c-0.4,0-0.7-0.1-1.1-0.2c0.2-1,0.7-2.9,0.9-3.4c0.6-0.1,2.2-0.1,2.8-0.2c0.5,1.2,0.9,2.4,1.3,3.6C33,28.2,32.6,28.3,32.2,28.3z M31.9,23.7l-2.3,0c0.2-0.6,0.8-2.1,1.2-3.2C31.1,21.4,31.6,22.9,31.9,23.7z M12.1,24v-0.8c0-1.5,0-2.8,0-3.3c0.5-0.1,0.9-0.1,1.4-0.2l0.2-0.7c-0.8,0.1-1.6,0.1-2.3,0.1c-0.9,0-2,0-2.9-0.1l0.2,0.7c0.5,0,0.9,0.1,1.4,0.2c0,0.7,0.1,2.8,0.1,3.2v0.8c0,1.2,0,3.4-0.1,4.2c-0.5,0.1-0.9,0.1-1.4,0.2L8.4,29c0.8,0,1.6-0.1,2.3-0.1c0.9,0,2,0,2.9,0.1l-0.2-0.7c-0.5,0-0.9-0.1-1.4-0.2C12.1,27.6,12.1,25.6,12.1,24z M4,23.7v-0.6c0-1,0-2.6,0-3.3c0.5,0,1.1,0.1,1.5,0.3c0.6,0.3,1,0.9,1,1.7c0,1.5-0.9,2.2-2.1,2.5L4.4,25c2-0.3,4.3-1.3,4.3-3.7c0-0.4-0.2-1.3-1.4-1.8c-0.7-0.3-2-0.4-3.4-0.4l-3.3,0l0.1,0.7c0.5,0,1,0.1,1.4,0.2C2,20.5,2,22.7,2,23v0.5c0,1.2,0,3.7-0.1,4.5c-0.5,0.1-0.9,0.1-1.4,0.2L0.4,29c0.9-0.1,1.8-0.1,2.7-0.1c0.9,0,1.9,0,2.8,0.1l-0.2-0.7c-0.6-0.1-1.1-0.1-1.7-0.2C4,27.4,4,24.7,4,23.7z" clip-rule="evenodd"/></svg>