<svg xmlns="http://www.w3.org/2000/svg"  viewBox="0 0 48 48" width="1600px" height="1600px" baseProfile="basic"><path fill="#9fa8da" d="M24,45.37C8.15,37.74,7.2,22.96,7.7,9.44c1.83-0.64,3.7-2.06,4.16-5.13C16.23,3.56,20.43,3.02,24,3	c3.57,0.02,7.77,0.56,12.14,1.31c0.46,3.07,2.33,4.49,4.16,5.13C40.8,22.96,39.85,37.75,24,45.37z"/><path fill="#212121" d="M24,45.786l-0.163-0.078C7.651,37.916,6.827,22.895,7.325,9.426l0.01-0.256l0.241-0.084	c2.233-0.781,3.55-2.407,3.913-4.832l0.04-0.268l0.268-0.046c5.125-0.879,9.002-1.297,12.201-1.315	c3.203,0.018,7.08,0.436,12.205,1.315l0.268,0.046l0.04,0.268c0.363,2.425,1.68,4.05,3.913,4.832l0.241,0.084l0.01,0.256	c0.498,13.474-0.326,28.5-16.513,36.282L24,45.786z M8.065,9.705C7.598,22.826,8.478,37.384,24,44.954	c15.522-7.56,16.402-22.123,15.935-35.249c-1.638-0.634-3.569-2.024-4.121-5.07c-4.953-0.842-8.713-1.242-11.815-1.26	c-3.099,0.018-6.858,0.418-11.812,1.26C11.635,7.681,9.703,9.071,8.065,9.705z"/><path fill="#546e7a" d="M14.894,11.259c0.147-0.091,0.099-0.199,0.026-0.309c-0.022-0.18-0.243-0.634-0.277-0.638	c0.004-0.079,0.009-0.158,0.014-0.237c0.61-0.088,0.61-0.088,0.59,0.513c0,0,0.009,0.166,0.042,0.301	c0.04,0.162-0.083,0.263-0.056,0.429C15.133,11.343,14.989,11.414,14.894,11.259z"/><path fill="#212121" d="M19.049,27.236c0.389-0.209,0.713-0.506,1.054-0.78c0.249-0.2,0.298-0.42,0.157-0.728	c-0.273-0.597-0.527-1.205-0.745-1.823c-0.132-0.374-0.448-0.424-0.737-0.543c-1.553-0.639-2.852-1.606-3.724-3.054	c-0.911-1.513-1.012-3.173-0.712-4.878c0.149-0.849,0.368-1.678,0.807-2.427c0.168-0.287-0.05-0.37-0.211-0.467	c-0.727-0.442-1.535-0.626-2.372-0.7c-0.32-0.028-0.642-0.022-0.964-0.026c-0.087-0.001-0.214-0.016-0.252,0.032	c-0.081,0.103-0.092,0.331-0.268,0.244c-0.131-0.065-0.127-0.278-0.112-0.442c0.057-0.003,0.114-0.006,0.17-0.009	c0.393-0.276,0.844-0.4,1.306-0.494c0.157-0.001,0.315-0.001,0.472-0.004c0.662-0.014,1.328-0.107,1.975,0.123	c0.095,0.154,0.197,0.031,0.297,0.007c0.062-0.324,0.076-1.278-0.534-1.19c-0.019-0.021-0.038-0.041-0.058-0.062	c1.36-0.791,2.839-0.87,4.328-0.603c1.008,0.181,1.4,1.01,1.582,1.939c0.028,0.142,0.06,0.298,0.032,0.435	c-0.194,0.936,0.536,1.269,1.097,1.716c0.136,0.108,0.281,0.057,0.419,0.026c0.883-0.2,1.764-0.406,2.647-0.608	c0.318-0.073,0.578-0.265,0.859-0.411c1.065-0.556,2.214-0.771,3.391-0.901c1.771-0.196,3.546-0.382,5.215-1.074	c0.362-0.15,0.715-0.323,1.072-0.486c0.347,0.097-0.027,0.237,0.021,0.351c-0.073,0.01-0.141,0.028-0.18,0.099l0.003-0.004	c-0.066,0.028-0.133,0.055-0.199,0.083c-0.051,0.019-0.102,0.037-0.153,0.056c-0.206,0.073-0.413,0.141-0.617,0.219	c-1.312,0.499-2.656,0.828-4.06,0.984c-1.368,0.152-2.772,0.24-4.04,0.854c-0.66,0.32-1.328,0.584-2.043,0.734	c-0.455,0.096-0.914,0.181-1.365,0.292c-0.137,0.034-0.384-0.015-0.373,0.207c0.01,0.209,0.235,0.166,0.387,0.188	c0.105,0.21,0.215,0.414,0.424,0.544c0.07,0.044,0.132,0.148,0.222,0.078c0.091-0.071,0.032-0.16-0.031-0.224	c-0.284-0.287-0.093-0.39,0.178-0.403c0.281-0.014,0.544-0.092,0.816-0.142c0.843-0.156,1.68-0.322,2.551-0.148	c0.309,0.062,0.736,0.171,0.964-0.095c0.336-0.393,0.75-0.363,1.175-0.417c0.849-0.109,1.722-0.073,2.544-0.35	c0.549-0.185,1.101-0.36,1.642-0.578c0.949-0.382,1.869-0.779,2.588-1.537c0.103-0.109,0.237-0.169,0.395-0.147	c0.208,0.033,0.337-0.16,0.527-0.189c0.13,0.183,0.024,0.332-0.061,0.483c-0.326,0.58-0.829,0.975-1.383,1.313	c-0.816,0.499-1.707,0.825-2.618,1.101c-0.106,0.032-0.263,0.025-0.266,0.176c-0.003,0.142,0.152,0.155,0.252,0.204	c0.275,0.135,0.505,0.107,0.759-0.102c0.737-0.608,1.639-0.874,2.534-1.148c0.208-0.064,0.27,0.007,0.217,0.213	c-0.136,0.524-0.641,0.948-1.207,0.989c-0.254,0.018-0.488,0.083-0.701,0.221c-0.102,0.066-0.202,0.148-0.161,0.281	c0.049,0.16,0.194,0.156,0.328,0.141c0.284-0.032,0.543-0.203,0.921-0.162c-0.712,0.803-1.566,1.269-2.485,1.648	c-0.903,0.372-1.858,0.538-2.816,0.728c0.659,0.342,1.374,0.271,2.17,0.318c-0.63,0.47-1.286,0.597-1.919,0.761	c-0.735,0.19-1.491,0.281-2.246,0.362c-0.144,0.015-0.328,0.006-0.363,0.175c-0.036,0.176,0.161,0.212,0.271,0.298	c1.357,1.07,3.013,1.245,4.626,1.551c0.215,0.041,0.429,0.082,0.734,0.141c-0.752,0.431-1.543,0.491-2.323,0.731	c0.32,0.362,0.703,0.46,1.079,0.531c1.129,0.213,2.269,0.319,3.422,0.293c0.245-0.006,0.631-0.207,0.71,0.287	c0.005,0.032,0.184,0.035,0.353,0.064c-0.578,0.622-1.283,0.71-2.011,0.746c-0.72,0.036-1.415-0.153-2.157-0.265	c0.065,0.293,0.279,0.362,0.462,0.449c0.912,0.431,1.848,0.808,2.803,1.127c0.416,0.139,0.637,0.37,0.706,0.815	c-0.316,0.005-0.591-0.25-0.944-0.131c0.165,0.22,0.398,0.34,0.605,0.479c0.31,0.209,0.196,0.326-0.068,0.418	c-0.496,0.172-1.005,0.163-1.517,0.095c-0.055-0.007-0.111-0.001-0.208-0.001c0.158,0.381,0.403,0.669,0.617,0.971	c0.692,0.975,1.786,2.129,3.09,3.48c0.174,0.168-0.047,0.927-0.318,1.131c-0.055,0.041-0.95-0.753-0.962-0.671	c-0.114,0.755-0.332,0.224-0.536,0.05c-0.177-0.151-0.359-0.304-0.561-0.416c-0.23-0.128-0.492-0.169-0.653,0.108	c-0.166,0.285,0.037,0.464,0.242,0.618c0.078,0.058,0.174,0.092,0.273,0.142c-0.485,0.263-0.909,0.181-1.346-0.233	c-0.095-0.09-0.145-0.303-0.333-0.207c-0.168,0.086-0.219,0.268-0.218,0.452c0.001,0.116,0.03,0.232,0.031,0.348	c0.003,0.256-0.044,0.316-0.353,0.488c-0.117-0.388-0.122-0.807-0.338-1.163c-0.06-0.098-0.107-0.243-0.246-0.197	c-0.098,0.032-0.198,0.113-0.222,0.247c-0.048,0.272-0.118,0.537-0.415,0.76c0.215-0.595-0.146-0.872-0.52-1.166	c-0.141-0.11-0.223-0.305-0.309-0.472c-0.232-0.452-0.237-0.458-0.626-0.102c-0.038,0.035-0.04,0.11-0.106,0.134	c-0.07-0.54,0.136-1.057-0.137-1.597c-0.165,0.243-0.027,0.468-0.11,0.713c-0.57-0.6-1.083-1.208-1.414-1.952	c-0.181,0.098-0.095,0.271-0.22,0.403c-0.154-0.415-0.278-0.822-0.471-1.201c-0.183-0.359-0.472-0.526-0.849-0.492	c-0.395,0.036-0.718,0.202-0.858,0.631c-0.14,0.426-0.525,0.688-0.77,1.048c-0.289,0.424-0.281,0.797,0.103,1.146	c0.223,0.202,0.049,0.559,0.321,0.726c0.045,0.174,0.046,0.364,0.191,0.5c-0.201,0.21-0.362,0.234-0.531-0.056	c-0.099-0.169-0.266-0.302-0.416-0.436c-0.111-0.1-0.202-0.09-0.243,0.084c-0.084,0.363-0.343,0.633-0.522,0.946	c-0.288-0.076-0.242-0.325-0.275-0.533c-0.009-0.137-0.079-0.349-0.018-0.4c0.293-0.242,0.058-0.383-0.066-0.552	c0.113-0.019,0.226-0.038,0.357-0.059c-0.027,0.239,0.069,0.462-0.025,0.697c-0.051,0.128-0.018,0.141,0.206,0.049	c0.317-0.414,0.293-0.866,0.146-1.331c0.013-0.027,0.027-0.055,0.04-0.082c0.249-0.214,0.233-0.441-0.052-0.564	c-0.185-0.08-0.142-0.18-0.143-0.302c0.028-0.14,0.057-0.281,0.085-0.421c0.003-0.061,0.006-0.123,0.009-0.184	c0.253-0.374-0.045-0.655-0.163-0.966c0.198-0.343,0.15-0.608-0.188-0.857c-0.214-0.157-0.357-0.445-0.195-0.696	c0.159-0.248,0.39-0.045,0.585,0.035c0.088,0.036,0.197,0.142,0.27,0.023c0.08-0.13-0.047-0.21-0.141-0.277	c-0.47-0.339-0.949-0.667-1.411-1.017c-0.686-0.52-1.267-1.15-1.818-1.809c-0.328-0.392-0.556-0.836-0.696-1.334	c0.286,0.192,0.572,0.385,0.858,0.577c0.022,0.122,0.101,0.196,0.193,0.277c1.559,1.356,3.264,2.489,5.182,3.264	c1.677,0.678,3.38,1.288,5.238,1.19c0.448-0.108,0.889-0.121,1.331,0.049c0.402,0.155,0.829,0.154,1.253,0.131	c0.149-0.008,0.319-0.131,0.169-0.227c-0.321-0.205-0.452-0.607-0.911-0.687c-0.989-0.171-1.95-0.489-2.865-0.897	c-2.331-1.038-4.145-2.768-5.906-4.551c-0.227-0.23-0.395-0.489-0.746-0.37c-0.285,0.096-0.631-0.037-0.863,0.235	c-0.19,0.222-0.462,0.237-0.687,0.159c-0.378-0.131-0.707-0.211-1.032,0.112c-0.102,0.101-0.271,0.078-0.418,0.023	c-0.53-0.199-1.07-0.332-1.644-0.33c-0.146,0.001-0.373-0.007-0.399-0.255c0.597,0.05,0.749-0.094,0.791-0.752	c0.039-0.042-0.064-0.26,0.129-0.107c0.173,0.137,0.255,0.371,0.475,0.461c0.515,0.454,0.574,0.458,1.058-0.036	c0.181-0.185,0.356-0.167,0.548-0.047c0.148,0.092,0.282,0.21,0.437,0.285c0.182,0.088,0.438,0.111,0.473-0.121	c0.058-0.388,0.234-0.297,0.468-0.207c0.107,0.041,0.243,0.041,0.309-0.085c0.062-0.118-0.042-0.189-0.113-0.256	c-0.168-0.159-0.298-0.364-0.533-0.441c-0.211-0.221-0.434-0.432-0.631-0.665c-1.17-1.39-2.502-2.585-4.117-3.441	c-0.623-0.33-0.61-0.315-0.164-0.837c0.634-0.741,0.526-2.158-0.637-2.489c-0.235-0.067-0.486-0.101-0.684-0.267	c-0.132-0.087-0.249-0.153-0.436-0.112c-0.323,0.071-0.659,0.076-0.989,0.113c-0.72,0.081-0.833,0.298-0.509,0.975	c-0.002,0.218,0.128,0.379,0.232,0.555c0.294,0.498,0.3,1.3,0.023,1.643c-0.172-0.026-0.266,0.038-0.389,0.185	c-0.282,0.336-0.405,0.772-0.44,1.132c-0.077,0.801-0.384,1.547-0.353,2.386c0.056,1.551,0.238,3.025,1.274,4.251	c0.367,0.435,0.651,0.975,1.235,1.193c0.135,0.21,0.317,0.383,0.54,0.475c0.702,0.29,1.31,0.789,2.076,0.941	c0.077,0.015,0.142,0.094,0.212,0.143c-0.169,0.156-0.217,0.304-0.077,0.532c0.142,0.231,0.202,0.512,0.312,0.765	c0.2,0.455,0.277,0.97,0.648,1.365c0.189-0.272,0.146-0.554,0.167-0.824c0.198-0.053,0.377,0.065,0.588,0.105	c-0.031-0.536-0.186-1.015-0.162-1.512c0.138-0.006,0.25,0.039,0.353,0.137c0.326,0.309,0.664,0.605,0.989,0.916	c0.268,0.257,0.553,0.505,0.64,0.893c-1.224,0.221-2.25,0.833-3.188,1.619c-0.195,0.158-0.389,0.316-0.583,0.474	c-0.021-0.079-0.042-0.158-0.063-0.236c-0.037-0.124-0.073-0.247-0.11-0.371c-0.004-0.038,0.049-0.113-0.056-0.082	c-0.062-0.017-0.124-0.033-0.187-0.05C19.146,27.291,19.097,27.264,19.049,27.236z M23.774,15.172	c0.296,0.495,0.46,0.613,0.825,0.613C24.356,15.515,24.087,15.319,23.774,15.172z"/><path fill="#e0e0e0" d="M26.089,30.057c-0.145-0.136-0.146-0.326-0.191-0.5c0.617,0.435,1.214,0.897,1.878,1.264	c0.509,0.281,0.998,0.598,1.562,0.769c0.185,0.056,0.34,0.166,0.473,0.306c0.349,0.367,0.793,0.491,1.276,0.454	c0.227-0.017,0.379,0.042,0.543,0.191c0.315,0.285,0.661,0.534,1.086,0.635c0.338,0.08,0.58,0.331,0.882,0.475	c0.158,0.076,0.161,0.178,0.066,0.317c-0.469,0.686-0.91,1.389-1.465,2.016c-0.638,0.721-1.248,1.468-1.931,2.147	c-1.767,1.755-3.737,3.256-5.817,4.617c-0.204,0.133-0.397,0.267-0.679,0.103c-1.609-0.93-3.117-2.004-4.56-3.168	c-1.822-1.47-3.296-3.255-4.615-5.175c-0.726-1.057-1.538-2.057-2.099-3.221c-0.076-0.157-0.173-0.284-0.363-0.256	c-0.36,0.053-0.544-0.13-0.64-0.447c-0.008-0.027-0.027-0.052-0.04-0.078c-0.122-0.23-0.381-0.494-0.335-0.682	c0.08-0.327,0.444-0.015,0.681-0.123c0.298-0.137,0.598-0.234,0.687-0.604c0.064-0.267,0.226-0.429,0.523-0.441	c0.144-0.006,0.285-0.062,0.428-0.089c0.729-0.139,0.73-0.138,0.753-0.885c0.005-0.163-0.014-0.347,0.182-0.404	c0.758-0.221,1.511-0.493,2.325-0.356c-0.073,0.082-0.145,0.164-0.218,0.246c-0.533-0.046-1.04,0.14-1.564,0.179	c-0.311,0.023-0.446,0.149-0.445,0.495c0.004,0.722-0.016,0.743-0.726,0.883c-0.488,0.096-0.909,0.241-1.173,0.709	c-0.14,0.248-0.401,0.409-0.679,0.438c-0.443,0.047-0.351,0.241-0.204,0.508c0.083,0.151,0.174,0.212,0.347,0.186	c0.244-0.037,0.49-0.084,0.739-0.029c0.247,0.394,0.431,0.426,0.791,0.152c0.104-0.079,0.174-0.221,0.371-0.133	c0.45,0.201,0.933,0.228,1.418,0.161c0.211-0.029,0.289,0.038,0.291,0.253c0.006,0.578-0.077,1.149-0.199,1.705	c-0.185,0.843,0.035,1.72,0.688,2.135c0.323,0.206,0.416,0.43,0.378,0.791c-0.043,0.412-0.049,0.836,0.287,1.229	c0.066-0.431,0.042-0.843,0.198-1.169c0.336-0.707,0.033-1.13-0.506-1.509c-0.107-0.075-0.202-0.167-0.305-0.249	c-0.173-0.138-0.254-0.313-0.233-0.537c0.074-0.772,0.329-1.467,0.869-2.04c0.101-0.107,0.225-0.258,0.367-0.195	c0.465,0.205,0.929,0.215,1.408,0.086c0.026-0.007,0.071-0.004,0.084,0.013c0.293,0.357,0.6,0.097,0.904,0.025	c0.213-0.05,0.427-0.106,0.644-0.126c0.679-0.063,0.966,0.258,0.807,0.92c-0.095,0.395-0.259,0.774-0.364,1.168	c-0.139,0.521-0.311,1.02-0.114,1.596c0.255,0.747,0.28,1.502-0.33,2.157c-0.128,0.138-0.199,0.367-0.146,0.621	c0.089,0.425,0.151,0.863,0.046,1.366c0.365-0.202,0.466-0.45,0.485-0.777c0.039-0.634,0.06-0.637,0.559-0.326	c0.042,0.026,0.091,0.085,0.16,0.017c-0.007-0.034-0.013-0.074-0.026-0.113c-0.023-0.069-0.047-0.138-0.078-0.203	c-0.285-0.592-0.435-1.18,0.004-1.773c0.112-0.152,0.108-0.338,0.035-0.504c-0.488-1.108-0.322-2.011,0.521-2.845	c0.244-0.241,0.515-0.441,0.808-0.619c1.075-0.652,2.005-0.623,3.018,0.098c0.543,0.386,1.005,0.856,1.452,1.349	c0.194,0.215,0.244,0.403,0.139,0.667c-0.163,0.412-0.254,0.849-0.204,1.288c0.076,0.669,0.155,1.326-0.234,1.936	c-0.034,0.054-0.012,0.143-0.015,0.216c-0.021,0.468,0.202,0.833,0.523,1.218c-0.008-0.214-0.036-0.372-0.057-0.538	c-0.055-0.443-0.202-0.935,0.332-1.228c0.05,0.661,0.56,1.074,1.109,0.899c-0.747-0.586-0.747-0.586-0.847-0.89	c0.029-0.186,0.003-0.35-0.054-0.544c-0.225-0.758-0.149-1.527,0.084-2.277c0.099-0.317,0.433-0.446,0.639-0.677	c0.075-0.084,0.387,0.225,0.596,0.316c0.442,0.193,0.917,0.492,1.41,0.264c0.499-0.23,0.989-0.204,1.501-0.159	c0.283,0.025,0.574,0.034,0.845-0.202c-0.461-0.185-0.869-0.393-1.251-0.647c-0.073-0.115-0.168-0.219-0.308-0.217	c-0.807,0.01-1.426-0.375-2.086-0.807C28.192,31.227,27.04,30.811,26.089,30.057z"/><path fill="#455a64" d="M34.733,10.633c0.051-0.019,0.102-0.037,0.153-0.056c0.122,0.104,0.177,0.049,0.199-0.083	c0,0-0.003,0.004-0.003,0.004c0.074-0.007,0.14-0.031,0.18-0.099c-0.048-0.115,0.326-0.254-0.021-0.351	c0.263-0.175,0.533-0.34,0.786-0.528c0.19-0.141,0.253-0.066,0.274,0.124c0.04,0.371-0.074,0.712-0.213,1.047	c-0.158-0.021-0.292,0.038-0.395,0.147c-0.719,0.758-1.639,1.155-2.588,1.537c-0.541,0.218-1.093,0.394-1.642,0.578	c-0.821,0.277-1.694,0.241-2.544,0.35c-0.424,0.054-0.838,0.025-1.175,0.417c-0.228,0.266-0.654,0.157-0.964,0.095	c-0.871-0.175-1.708-0.009-2.551,0.148c-0.271,0.05-0.535,0.128-0.816,0.142c-0.271,0.014-0.462,0.116-0.178,0.403	c0.063,0.064,0.122,0.153,0.031,0.224c-0.09,0.07-0.151-0.034-0.222-0.078c-0.209-0.13-0.319-0.334-0.424-0.544	c0.202-0.15,0.429-0.244,0.674-0.289c0.772-0.142,1.515-0.399,2.287-0.554c0.7-0.141,1.402-0.284,2.108-0.404	c1.362-0.233,2.723-0.462,4.042-0.898c0.648-0.214,1.267-0.501,1.926-0.691C34.054,11.161,34.497,11.049,34.733,10.633z"/><path fill="#212121" d="M16.483,27.169c0.073-0.082,0.145-0.164,0.218-0.246c0.469-0.212,0.915-0.115,1.352,0.098	c-0.053,0.028-0.107,0.056-0.16,0.084c-0.101-0.01-0.212,0.003-0.303-0.034c-0.656-0.268-1.155,0.138-1.044,1.064	c0.401-0.244,0.815-0.396,1.288-0.291c0.436,0.097,0.467,0.157,0.231,0.529c-0.412,0.648-0.412,1.284,0.002,1.869	c-0.385-0.057-0.403-0.378-0.433-0.653c-0.032-0.298-0.002-0.603,0.002-0.905c0.165-0.164,0.424-0.365,0.316-0.567	c-0.081-0.151-0.402-0.146-0.646-0.102c-0.459,0.082-0.767,0.325-0.919,0.853C16.231,28.107,16.277,27.493,16.483,27.169z"/><path fill="#212121" d="M12.358,10.511c0.747-0.165,1.494-0.331,2.241-0.496c0.019,0.021,0.038,0.041,0.057,0.062	c-0.005,0.079-0.009,0.158-0.014,0.237c-0.78,0.004-1.522,0.257-2.287,0.356C12.357,10.616,12.358,10.564,12.358,10.511z"/><path fill="#212121" d="M12.358,10.511c-0.001,0.053-0.002,0.105-0.002,0.158c-0.099,0.073-0.218,0.068-0.331,0.094	c-0.537,0.12-0.82,0.404-0.885,0.872c-0.057,0.003-0.114,0.006-0.17,0.009c-0.031-0.549,0.345-0.786,0.767-0.967	C11.932,10.592,12.15,10.564,12.358,10.511z"/><path fill="#263238" d="M17.893,27.104c0.053-0.028,0.107-0.056,0.16-0.084c0.326,0.1,0.614,0.375,0.996,0.215	c0.049,0.028,0.097,0.055,0.146,0.083C18.689,27.68,18.295,27.368,17.893,27.104z"/><path fill="#455a64" d="M21.399,24.02c-0.024,0.497,0.131,0.975,0.162,1.512c-0.211-0.04-0.39-0.158-0.588-0.105	c-0.124-0.289-0.319-0.569-0.353-0.868c-0.034-0.302-0.414-0.462-0.299-0.755c0.136-0.346-0.126-0.179-0.228-0.221	c-0.039-0.048-0.078-0.041-0.117,0.001c-0.018,0.003-0.035,0.006-0.053,0.007c-0.07-0.049-0.135-0.127-0.212-0.143	c-0.766-0.152-1.373-0.651-2.076-0.941c-0.223-0.092-0.405-0.265-0.54-0.476c-0.127-0.318-0.4-0.525-0.616-0.767	c-0.91-1.021-1.357-2.206-1.405-3.567c-0.039-1.104,0.13-2.173,0.463-3.217c0.08-0.25,0.081-0.554,0.332-0.734l0.022,0.023	l-0.024-0.022c0.024-0.294-0.023-0.58-0.099-0.863c0.277-0.343,0.271-1.145-0.023-1.644c-0.104-0.176-0.234-0.337-0.232-0.555	c0.18-0.439,0.547-0.573,0.979-0.63c0.34-0.045,0.675-0.126,0.956-0.346c0.198,0.167,0.449,0.2,0.684,0.267	c1.163,0.331,1.271,1.749,0.637,2.489c-0.446,0.521-0.459,0.506,0.164,0.837c1.615,0.856,2.947,2.051,4.117,3.441	c0.196,0.233,0.42,0.444,0.631,0.666c-0.124,0.422-0.443,0.605-0.851,0.568c-0.262-0.024-0.564-0.332-0.731-0.144	c-0.305,0.343-0.701,0.349-1.065,0.483c-0.22-0.09-0.301-0.324-0.475-0.461c-0.193-0.153-0.091,0.065-0.129,0.107	c-0.471,0.08-0.938,0.29-1.473-0.04c0.125,0.442,0.466,0.561,0.682,0.792c0.026,0.249,0.253,0.256,0.399,0.255	c0.574-0.002,1.114,0.131,1.644,0.33c0.147,0.055,0.316,0.079,0.418-0.023c0.325-0.323,0.654-0.243,1.032-0.112	c0.224,0.078,0.496,0.063,0.687-0.159c0.233-0.272,0.579-0.139,0.863-0.235c0.351-0.118,0.519,0.14,0.746,0.37	c1.761,1.783,3.575,3.513,5.906,4.551c0.915,0.408,1.877,0.725,2.865,0.897c0.459,0.08,0.59,0.482,0.911,0.687	c0.15,0.096-0.02,0.219-0.169,0.227c-0.424,0.023-0.85,0.024-1.253-0.131c-0.442-0.17-0.883-0.157-1.331-0.049	c-0.186-0.276-0.509-0.134-0.754-0.246c-0.489-0.224-1.072-0.193-1.515-0.549c0.258-0.131,0.474,0.035,0.701,0.104	c0.16,0.049,0.309,0.132,0.549-0.048c-3.28-0.957-6.169-2.503-8.769-4.691c-0.026,0.321,0.244,0.393,0.233,0.601	c-0.332,0.251-0.696,0.166-1.058,0.098c-0.286-0.192-0.572-0.385-0.858-0.577c0.14,0.498,0.368,0.942,0.696,1.334	c0.551,0.659,1.131,1.289,1.818,1.809c0.462,0.35,0.941,0.677,1.411,1.017c0.094,0.068,0.221,0.147,0.141,0.277	c-0.073,0.119-0.182,0.013-0.27-0.023c-0.195-0.08-0.426-0.282-0.585-0.035c-0.161,0.251-0.018,0.539,0.195,0.696	c0.338,0.249,0.386,0.514,0.188,0.857c-0.462-0.47-0.932-0.927-1.327-1.466c-0.34-0.465-0.835-0.784-1.446-0.809	C21.518,23.665,21.258,23.689,21.399,24.02z M17.971,10.988c-0.02-0.33-0.211-0.527-0.501-0.653	c-0.307-0.134-0.624-0.15-0.932-0.036c-0.102,0.037-0.151,0.179-0.108,0.305c0.032,0.094,0.112,0.146,0.206,0.114	c0.456-0.155,0.749,0.046,0.979,0.42c0.051,0.083,0.142,0.161,0.259,0.116C17.997,11.205,17.964,11.087,17.971,10.988z"/><path fill="#455a64" d="M17.635,28.684c-0.003,0.302-0.034,0.607-0.002,0.905c0.03,0.275,0.048,0.597,0.433,0.653	c0,0-0.002-0.001-0.002-0.001c0.049,0.449,0.242,0.25,0.425,0.094c-0.016,0.174,0.409,0.301,0.039,0.506	c0.46,0.144,0.482,0.116,0.507-0.326c0.012-0.219-0.203-0.477-0.028-0.625c0.215-0.181,0.406,0.127,0.617,0.191	c0.632,0.192,1.273,0.18,1.913,0.154c0.419-0.017,0.716,0.087,0.826,0.523c0.023,0.092,0.057,0.153,0.168,0.166	c0.486,0.054,0.874-0.278,0.842-0.75c-0.011-0.16,0.043-0.254,0.166-0.322c0.115-0.064,0.228-0.051,0.313,0.058	c0.066,0.085,0.139,0.15,0.253,0.151c0.033,0.208-0.013,0.456,0.275,0.533c0.03,0.048,0.05,0.125,0.091,0.139	c0.668,0.222,1.3,0.508,1.91,0.867c0.259,0.153,0.558,0.454,0.848,0.378c0.626-0.164,0.977,0.225,1.388,0.527	c0.782,0.574,1.596,1.017,2.618,0.726c0.179-0.051,0.335-0.109,0.353-0.325c0.383,0.254,0.79,0.462,1.251,0.647	c-0.271,0.236-0.562,0.227-0.845,0.202c-0.512-0.045-1.001-0.072-1.501,0.159c-0.493,0.227-0.968-0.071-1.41-0.264	c-0.208-0.091-0.52-0.4-0.596-0.316c-0.207,0.231-0.541,0.36-0.639,0.677c-0.233,0.75-0.308,1.519-0.084,2.277	c0.057,0.194,0.083,0.357,0.054,0.544c-0.087-0.003-0.175-0.006-0.262-0.009c-0.534,0.292-0.388,0.784-0.332,1.228	c0.021,0.166,0.049,0.324,0.057,0.538c-0.321-0.385-0.544-0.75-0.523-1.218c0.003-0.073-0.019-0.163,0.015-0.216	c0.39-0.61,0.31-1.267,0.234-1.936c-0.05-0.439,0.041-0.876,0.204-1.288c0.105-0.264,0.055-0.453-0.139-0.667	c-0.446-0.493-0.908-0.962-1.452-1.349c-1.013-0.72-1.942-0.749-3.018-0.098c-0.293,0.178-0.564,0.377-0.808,0.619	c-0.844,0.834-1.009,1.738-0.521,2.845c0.073,0.165,0.077,0.352-0.035,0.504c-0.439,0.593-0.288,1.181-0.004,1.773	c0.031,0.065,0.055,0.135,0.078,0.203c0.013,0.038,0.018,0.079,0.026,0.113c-0.069,0.068-0.119,0.009-0.16-0.017	c-0.499-0.311-0.52-0.308-0.559,0.326c-0.02,0.327-0.121,0.575-0.485,0.777c0.105-0.503,0.043-0.941-0.046-1.366	c-0.053-0.255,0.017-0.484,0.146-0.621c0.61-0.654,0.585-1.41,0.33-2.157c-0.197-0.576-0.025-1.075,0.114-1.596	c0.105-0.394,0.268-0.772,0.364-1.168c0.16-0.663-0.128-0.983-0.807-0.92c-0.217,0.02-0.431,0.076-0.644,0.126	c-0.304,0.072-0.611,0.332-0.904-0.025c-0.014-0.017-0.058-0.019-0.084-0.013c-0.479,0.128-0.943,0.119-1.408-0.086	c-0.142-0.063-0.266,0.088-0.367,0.195c-0.541,0.573-0.795,1.268-0.869,2.04c-0.022,0.224,0.06,0.398,0.233,0.537	c0.102,0.082,0.197,0.174,0.305,0.249c0.54,0.379,0.843,0.802,0.506,1.509c-0.155,0.326-0.131,0.738-0.198,1.169	c-0.337-0.394-0.33-0.817-0.287-1.229c0.038-0.361-0.055-0.585-0.378-0.791c-0.652-0.416-0.873-1.293-0.688-2.135	c0.122-0.556,0.205-1.128,0.199-1.705c-0.002-0.214-0.08-0.282-0.291-0.253c-0.485,0.067-0.968,0.04-1.418-0.161	c-0.197-0.088-0.266,0.053-0.371,0.133c-0.359,0.274-0.543,0.242-0.791-0.152c0.799,0.063,1.246-0.449,1.671-1.009	c0.167-0.221,0.412-0.187,0.641-0.113c0.581,0.186,1.074,0.069,1.505-0.372C16.875,28.757,17.251,28.695,17.635,28.684z"/><path fill="#546e7a" d="M30.088,24.528c0.443,0.357,1.026,0.326,1.515,0.549c0.244,0.112,0.567-0.031,0.754,0.246	c-1.858,0.097-3.561-0.512-5.238-1.19c-1.918-0.776-3.623-1.908-5.182-3.264c-0.092-0.08-0.171-0.155-0.193-0.277	c0.362,0.068,0.725,0.153,1.058-0.098c0.233,0.09,0.43,0.225,0.616,0.399c0.8,0.75,1.73,1.319,2.662,1.887	c0.745,0.454,1.535,0.824,2.336,1.15C28.96,24.151,29.483,24.464,30.088,24.528z"/><path fill="#546e7a" d="M31.587,32.906c-0.018,0.217-0.173,0.275-0.353,0.325c-1.022,0.29-1.837-0.152-2.618-0.726	c-0.41-0.302-0.762-0.691-1.388-0.527c-0.29,0.076-0.589-0.225-0.848-0.378c-0.61-0.36-1.242-0.645-1.91-0.867	c-0.041-0.014-0.061-0.091-0.091-0.139c0.179-0.313,0.437-0.583,0.522-0.946c0.04-0.174,0.131-0.184,0.243-0.084	c0.149,0.135,0.317,0.267,0.416,0.436c0.169,0.29,0.33,0.266,0.531,0.056c0.951,0.754,2.103,1.17,3.104,1.825	c0.66,0.432,1.279,0.816,2.086,0.807C31.418,32.687,31.514,32.791,31.587,32.906z"/><path fill="#546e7a" d="M24.104,30.061c-0.114-0.001-0.187-0.066-0.253-0.151c-0.085-0.109-0.198-0.122-0.313-0.058	c-0.123,0.068-0.177,0.162-0.166,0.322c0.033,0.472-0.356,0.804-0.842,0.75c-0.111-0.012-0.145-0.074-0.168-0.166	c-0.11-0.435-0.406-0.54-0.826-0.523c-0.64,0.026-1.281,0.039-1.913-0.154c-0.211-0.064-0.401-0.372-0.617-0.191	c-0.175,0.147,0.04,0.406,0.028,0.625c-0.024,0.442-0.046,0.47-0.507,0.326c0.37-0.205-0.055-0.332-0.039-0.506	c-0.151-0.452-0.141-0.879,0.197-1.253c0.257-0.285,0.518-0.567,0.777-0.851c-0.008,0.334-0.021,0.675,0.134,0.981	c0.132,0.261,0.457,0.155,0.647,0.283c0.534,0.358,0.972,0.199,1.347-0.218c0.248-0.275,0.461-0.286,0.731-0.068	c0.051,0.041,0.132,0.044,0.199,0.064c-0.039,0.488,0.151,0.891,0.487,1.309c0.056-0.315,0.091-0.581,0.153-0.84	c0.115-0.476,0.399-0.697,0.793-0.642l0.033-0.001l0.031,0.01c0.124,0.169,0.359,0.309,0.066,0.552	C24.024,29.713,24.094,29.924,24.104,30.061z"/><path fill="#546e7a" d="M34.733,10.633c-0.236,0.416-0.679,0.528-1.075,0.642c-0.659,0.19-1.278,0.477-1.926,0.691	c-1.319,0.435-2.68,0.665-4.042,0.898c-0.706,0.121-1.407,0.263-2.108,0.404c-0.772,0.155-1.515,0.412-2.287,0.554	c-0.245,0.045-0.472,0.139-0.674,0.289c-0.152-0.022-0.377,0.022-0.387-0.188c-0.01-0.222,0.237-0.173,0.373-0.207	c0.452-0.111,0.91-0.196,1.365-0.292c0.715-0.151,1.382-0.414,2.043-0.734c1.268-0.614,2.672-0.702,4.04-0.854	c1.403-0.156,2.748-0.485,4.06-0.984C34.32,10.775,34.527,10.706,34.733,10.633z"/><path fill="#37474f" d="M15.869,13.745c-0.251,0.179-0.253,0.484-0.332,0.734c-0.333,1.044-0.502,2.113-0.463,3.217	c0.048,1.362,0.495,2.546,1.405,3.567c0.216,0.242,0.489,0.449,0.616,0.767c-0.584-0.217-0.868-0.758-1.235-1.192	c-1.036-1.226-1.218-2.7-1.274-4.251c-0.03-0.839,0.276-1.585,0.353-2.386c0.035-0.36,0.158-0.796,0.44-1.132	c0.123-0.147,0.217-0.21,0.389-0.185c0.075,0.283,0.123,0.569,0.099,0.863L15.869,13.745z"/><path fill="#fbc02d" d="M17.893,27.104c0.402,0.264,0.797,0.576,1.302,0.214c0.062,0.017,0.124,0.033,0.186,0.05	c0.019,0.027,0.037,0.055,0.056,0.082c0.037,0.124,0.073,0.247,0.11,0.371c-0.027,0.041-0.054,0.083-0.081,0.124l-0.023,0.02	c-0.022,0.018-0.043,0.037-0.065,0.055l-0.022,0.002l-0.007,0.021c-0.091,0.045-0.182,0.09-0.273,0.135	c-0.44,0.066-0.968,0.873-0.885,1.331c0.041,0.226,0.065,0.458,0.067,0.688c0.001,0.214-0.117,0.075-0.193,0.044	c0,0,0.002,0.001,0.002,0.001c-0.413-0.585-0.414-1.222-0.002-1.869c0.237-0.372,0.205-0.432-0.231-0.529	c-0.473-0.105-0.887,0.047-1.288,0.291c-0.11-0.926,0.388-1.332,1.044-1.064C17.68,27.107,17.791,27.094,17.893,27.104z"/><path fill="#546e7a" d="M21.399,24.02c-0.14-0.331,0.119-0.355,0.31-0.348c0.611,0.025,1.105,0.344,1.446,0.809	c0.395,0.539,0.865,0.996,1.327,1.466c0.118,0.311,0.417,0.592,0.164,0.966c-0.392-0.307-0.662-0.753-1.126-0.976	c-0.042,0.007-0.084,0.014-0.126,0.02c0,0-0.012,0.007-0.012,0.007c-0.087-0.388-0.372-0.636-0.64-0.893	c-0.324-0.311-0.662-0.608-0.989-0.916C21.649,24.059,21.536,24.014,21.399,24.02z"/><path fill="#e0e0e0" d="M22.522,29.274c-0.067-0.021-0.149-0.024-0.199-0.065c-0.27-0.219-0.483-0.208-0.731,0.068	c-0.375,0.417-0.813,0.576-1.347,0.218c-0.19-0.127-0.515-0.022-0.647-0.283c-0.155-0.306-0.142-0.646-0.134-0.981	c0.048-0.058,0.096-0.115,0.144-0.172l0.001,0c0.194-0.158,0.389-0.316,0.583-0.474c-0.016,0.417,0.12,0.803,0.25,1.188	c0.186,0.553,0.476,0.635,0.953,0.285c0.56-0.41,0.56-0.41,1.133-0.027C22.527,29.112,22.524,29.193,22.522,29.274z"/><path fill="#fbc02d" d="M24.02,29.11l-0.031-0.01c0,0-0.033,0.001-0.033,0.001c-0.155-0.331-0.346-0.275-0.571-0.066	c-0.271,0.251-0.381,0.583-0.468,0.964c-0.371-0.647-0.175-1.303,0.417-1.535c0.343,0.27,0.623,0.218,0.841-0.163	c0.028-0.05,0.063-0.099,0.103-0.138c0.119-0.117,0.224-0.308,0.427-0.203c0.199,0.103,0.055,0.279,0.041,0.425	c-0.013,0.027-0.027,0.055-0.04,0.082c-0.097,0.053-0.294,0.127-0.216,0.215c0.327,0.368,0.01,0.75,0.07,1.116	c-0.224,0.092-0.257,0.079-0.206-0.049c0.093-0.235-0.002-0.458,0.025-0.697C24.246,29.072,24.133,29.091,24.02,29.11z"/><path fill="#546e7a" d="M21.033,18.317c0.364-0.135,0.761-0.14,1.065-0.483c0.166-0.187,0.469,0.121,0.731,0.144	c0.408,0.037,0.727-0.146,0.851-0.568c0.236,0.076,0.366,0.282,0.533,0.44c0.07,0.067,0.175,0.138,0.113,0.256	c-0.067,0.126-0.202,0.127-0.309,0.085c-0.234-0.09-0.41-0.181-0.468,0.207c-0.035,0.232-0.291,0.209-0.473,0.121	c-0.155-0.075-0.289-0.193-0.437-0.285c-0.192-0.12-0.366-0.138-0.548,0.047C21.607,18.775,21.548,18.771,21.033,18.317z"/><path fill="#e0e0e0" d="M11.14,11.634c0.065-0.468,0.347-0.752,0.885-0.872c0.113-0.025,0.232-0.02,0.331-0.094	c0.765-0.099,1.507-0.352,2.287-0.356c0.034,0.003,0.129-0.015,0.212,0.097c0.115,0.204,0.213,0.564,0.213,0.564	s0.018,0.339-0.148,0.339c-0.767,0-1.548-0.157-2.473-0.172C11.985,11.235,11.533,11.358,11.14,11.634z"/><path fill="#546e7a" d="M19.922,23.59c0.018-0.001,0.036-0.004,0.054-0.007c0.039,0,0.078-0.001,0.117-0.001	c0.102,0.043,0.364-0.125,0.228,0.221c-0.115,0.293,0.265,0.453,0.299,0.755c0.034,0.299,0.229,0.58,0.353,0.868	c-0.021,0.27,0.022,0.553-0.167,0.824c-0.371-0.395-0.448-0.911-0.648-1.365c-0.111-0.253-0.17-0.533-0.312-0.765	C19.706,23.894,19.754,23.746,19.922,23.59z"/><path fill="#546e7a" d="M17.448,9.709c-0.281,0.22-0.616,0.301-0.956,0.346c-0.432,0.057-0.799,0.192-0.979,0.63	c-0.324-0.677-0.211-0.894,0.509-0.975c0.33-0.037,0.667-0.042,0.989-0.113C17.2,9.557,17.316,9.622,17.448,9.709z"/><path fill="#37474f" d="M19.638,18.715c-0.216-0.23-0.557-0.349-0.682-0.792c0.535,0.329,1.002,0.12,1.473,0.04	C20.387,18.62,20.235,18.765,19.638,18.715z"/><path fill="#263238" d="M24.745,28.385c0.014-0.146,0.158-0.322-0.041-0.425c-0.202-0.105-0.308,0.086-0.427,0.203	c-0.041,0.04-0.075,0.089-0.103,0.138c-0.218,0.381-0.498,0.433-0.841,0.163c-0.002-0.046-0.004-0.093-0.006-0.139	c0.512,0.158,0.624,0.104,0.946-0.4c0.088-0.137,0.062-0.356,0.277-0.406c0,0.122-0.043,0.222,0.142,0.302	C24.978,27.944,24.995,28.171,24.745,28.385z"/><path fill="#263238" d="M23.518,25.938c0.464,0.223,0.735,0.669,1.126,0.976c-0.003,0.061-0.006,0.123-0.009,0.184	c-0.416-0.35-0.899-0.619-1.257-1.039C23.425,26.019,23.472,25.978,23.518,25.938z"/><path fill="#263238" d="M24.559,29.797c-0.059-0.366,0.257-0.748-0.07-1.116c-0.078-0.088,0.119-0.162,0.216-0.215	C24.852,28.932,24.875,29.383,24.559,29.797z"/><path fill="#455a64" d="M23.774,15.172c0.312,0.147,0.582,0.343,0.825,0.613C24.234,15.785,24.07,15.667,23.774,15.172z"/><path fill="#37474f" d="M35.085,10.494c-0.023,0.132-0.077,0.188-0.199,0.083C34.952,10.55,35.019,10.522,35.085,10.494z"/><path fill="#263238" d="M19.437,27.451c-0.019-0.028-0.037-0.055-0.056-0.082C19.486,27.338,19.433,27.413,19.437,27.451z"/><path fill="#263238" d="M19.466,27.946c0.027-0.041,0.054-0.083,0.081-0.124c0.021,0.079,0.042,0.158,0.063,0.237	c0,0-0.001,0.001-0.001,0C19.561,28.021,19.513,27.984,19.466,27.946z"/><path fill="#37474f" d="M35.262,10.399c-0.04,0.069-0.106,0.092-0.18,0.099C35.121,10.427,35.189,10.409,35.262,10.399z"/><path fill="#546e7a" d="M17.635,28.684c-0.384,0.011-0.76,0.073-1.039,0.358c-0.431,0.441-0.924,0.558-1.505,0.372	c-0.229-0.073-0.473-0.108-0.641,0.113c-0.425,0.561-0.872,1.073-1.671,1.009c-0.249-0.055-0.495-0.008-0.739,0.029	c-0.173,0.026-0.263-0.035-0.347-0.186c-0.147-0.267-0.24-0.461,0.204-0.508c0.278-0.029,0.539-0.191,0.679-0.438	c0.264-0.468,0.684-0.613,1.173-0.709c0.71-0.14,0.729-0.161,0.726-0.883c-0.002-0.346,0.134-0.473,0.445-0.495	c0.524-0.038,1.03-0.225,1.564-0.179c-0.206,0.324-0.252,0.939-0.098,1.699c0.152-0.528,0.46-0.77,0.919-0.853	c0.244-0.044,0.566-0.048,0.646,0.102C18.059,28.319,17.8,28.52,17.635,28.684z"/><path fill="#37474f" d="M27.555,36.822c0.087,0.003,0.175,0.006,0.262,0.009c0.1,0.305,0.1,0.305,0.847,0.89	C28.115,37.896,27.606,37.482,27.555,36.822z"/><path fill="#212121" d="M30.088,24.528c-0.605-0.064-1.127-0.377-1.672-0.598c-0.802-0.326-1.591-0.695-2.336-1.15	c-0.932-0.568-1.862-1.137-2.662-1.887c-0.186-0.174-0.383-0.308-0.616-0.399c0.011-0.208-0.259-0.28-0.233-0.601	c2.6,2.188,5.488,3.734,8.769,4.691c-0.24,0.18-0.389,0.098-0.549,0.048C30.562,24.563,30.345,24.397,30.088,24.528z"/><path fill="#212121" d="M17.971,10.988c-0.007,0.098,0.026,0.217-0.098,0.265c-0.117,0.045-0.208-0.033-0.259-0.116	c-0.23-0.374-0.523-0.575-0.979-0.42c-0.094,0.032-0.175-0.02-0.206-0.114c-0.043-0.126,0.006-0.268,0.108-0.305	c0.309-0.113,0.625-0.097,0.932,0.036C17.76,10.46,17.951,10.657,17.971,10.988z"/><path fill="#212121" d="M20.093,23.582c-0.039,0-0.078,0.001-0.117,0.001C20.014,23.54,20.053,23.534,20.093,23.582z"/><polygon fill="#37474f" points="15.867,13.747 15.891,13.769 15.869,13.745"/><path fill="#212121" d="M19.466,27.946c0.047,0.038,0.095,0.075,0.142,0.113c-0.048,0.057-0.096,0.115-0.144,0.172	c-0.259,0.284-0.52,0.566-0.777,0.851c-0.338,0.374-0.348,0.801-0.197,1.253c-0.183,0.156-0.376,0.355-0.425-0.094	c0.076,0.031,0.194,0.169,0.193-0.044c-0.001-0.23-0.025-0.462-0.067-0.688c-0.084-0.458,0.444-1.265,0.884-1.331	c0.148,0.071,0.227,0.001,0.274-0.135l0.007-0.021c0,0,0.022-0.002,0.022-0.002c0.022-0.018,0.043-0.037,0.065-0.055L19.466,27.946z"/><path fill="#212121" d="M23.328,28.325c0.002,0.046,0.004,0.093,0.006,0.139c-0.591,0.232-0.788,0.888-0.417,1.535	c0.087-0.381,0.197-0.713,0.468-0.964c0.225-0.209,0.416-0.265,0.571,0.066c-0.395-0.055-0.679,0.166-0.793,0.642	c-0.062,0.259-0.097,0.525-0.153,0.84c-0.337-0.418-0.526-0.821-0.487-1.309c0.002-0.081,0.005-0.162,0.007-0.243	C22.706,28.695,22.809,28.274,23.328,28.325z"/><path fill="#212121" d="M23.518,25.938c-0.046,0.04-0.093,0.081-0.139,0.121c-0.006-0.024-0.016-0.047-0.016-0.071	c0-0.01,0.019-0.02,0.03-0.03C23.434,25.952,23.476,25.945,23.518,25.938z"/><path fill="#263238" d="M19.349,28.044c-0.047,0.135-0.126,0.206-0.274,0.135C19.167,28.134,19.258,28.089,19.349,28.044z"/></svg>