<svg xmlns="http://www.w3.org/2000/svg"  viewBox="0 0 48 48" width="1600px" height="1600px"><path fill="#1e88e5" d="M38,44h-8c-0.553,0-1-0.447-1-1V30c0-1.103-0.897-2-2-2h-6v15c0,0.553-0.447,1-1,1h-8 c-0.553,0-1-0.447-1-1v-5c0-0.379,0.214-0.725,0.553-0.895L13,36.382V11.618l-1.447-0.724C11.214,10.725,11,10.379,11,10V5 c0-0.553,0.447-1,1-1h17c2.542,0,8,5.458,8,8v7c0,1.638-1.735,3.507-3.058,4.693C35.31,24.396,37,25.725,37,28v8.382l1.447,0.724 C38.786,37.275,39,37.621,39,38v5C39,43.553,38.553,44,38,44z M31,42h6v-3.382l-1.447-0.724C35.214,37.725,35,37.379,35,37v-9 c0-2.176-3.213-3.022-3.245-3.03c-0.373-0.096-0.659-0.396-0.734-0.773c-0.075-0.378,0.071-0.765,0.379-0.996 C33.131,21.899,35,19.924,35,19v-7c0-1.458-4.542-6-6-6H13v3.382l1.447,0.724C14.786,10.275,15,10.621,15,11v26 c0,0.379-0.214,0.725-0.553,0.895L13,38.618V42h6V27c0-0.553,0.447-1,1-1h7c2.206,0,4,1.794,4,4V42z M26,22h-6c-0.553,0-1-0.447-1-1 V11c0-0.553,0.447-1,1-1h6c2.757,0,5,2.243,5,5v2C31,19.757,28.757,22,26,22z M21,20h5c1.654,0,3-1.346,3-3v-2c0-1.654-1.346-3-3-3 h-5V20z"/></svg>