<svg xmlns="http://www.w3.org/2000/svg"  viewBox="0 0 48 48" width="1600px" height="1600px"><path fill="#1d7452" d="M39.708,5.045c-5.793-1.129-11.39-2.017-16.075-2.041V3c-0.032,0-0.066,0.002-0.097,0.002 C23.503,3.002,23.469,3,23.437,3v0.004C18.795,3.028,13.25,3.916,7.512,5.045C6.77,19.616,5.942,36.905,23.535,45.373 C40.159,36.052,40.672,23.823,39.708,5.045z"/><path fill="#212121" d="M23.553,45.937l-0.234-0.113C5.376,37.188,6.283,19.351,7.013,5.02l0.02-0.39l0.383-0.076 c4.627-0.91,10.527-1.954,15.522-2.044V2.505l0.5-0.004L23.585,3L23.57,2.501l0.515-0.015l0.002,0.023 c5.051,0.084,11.031,1.132,15.717,2.045l0.384,0.075l0.02,0.391c0.98,19.099,0.364,31.375-16.428,40.79L23.553,45.937z M7.991,5.461C7.25,20.065,6.566,36.497,23.518,44.809c15.951-9.052,16.639-20.944,15.711-39.348 C34.504,4.548,28.556,3.529,23.63,3.505l-0.139,0l-0.051,0C18.562,3.529,12.671,4.547,7.991,5.461z"/><path fill="#fafafa" d="M33.021,23.294c0,0,0.383-3.383-1.532-5.808s-3.279-4.428-1.771-6.415 c0.598-0.67,0.025-1.187-0.814-0.79c-0.701,0.332-1.9,1.51-1.755,2.992c0.255,2.617,2.681,6.894,2.809,8.043 c0.128,1.149-1.468-1.851-6.702,0.447c-5.234,2.298-2.824,8.572,1.213,8.745c3.835,0.164,5.553-1.915,5.553-1.915 s-1.213,5.489-6.702,5.489c-5.489,0-5.106-7.66-3.447-10.085c1.66-2.426,6.191-8.106,5.745-11.809 c-0.447-3.702-2.681-5.681-5.489-4.915c-2.489-1.468-5.106,1.596-4.851,2.426c-1.596,0.957-2.17,2.681-1.787,3.383 c0.383,0.702,1.979,0.255,1.979,0.255s-1.149,1.021-0.128,1.979c1.021,0.957,3.638-1.277,4.851-2.809 c0.67-0.144,1.468-0.83,1.468-0.83s-0.064,2.426-1.085,3.83c-1.021,1.404-7.787,9.319-6.766,14.936 c1.021,5.617,4.532,9.192,10.915,8.809c6.383-0.383,9.786-8.248,9.702-10.947C34.298,24.188,33.021,23.294,33.021,23.294z M25.202,26.326c-2.074-0.207-0.67-1.867,0.271-2.106c0.941-0.239,1.931-0.606,3.543,0.511 C29.016,24.73,27.277,26.533,25.202,26.326z"/><path fill="#b0bec5" d="M29.407,23.302c0,0-1.867-2.394-5.146-0.862c-3.279,1.532-1.269,4.404-0.551,4.452 c0.718,0.048,1.053-0.431,1.053-0.431s-2.13-2.13-0.263-2.777s3.949-0.479,4.404-0.072C29.359,24.02,29.407,23.302,29.407,23.302z"/><path fill="#b0bec5" d="M15.907,9.539c0,0,1.364,0.311,2.202-0.67c0.838-0.981,2.011-0.455,2.011-0.455 s3.423-0.551,2.681,3.16c-0.383-0.168-1.197-0.598-1.197-0.598L20.551,12.1l-0.598-0.096c0,0-1.173,2.394-2.92,2.824 c-1.747,0.431-1.939-0.096-1.939-0.096s-0.598-1.005,0.766-1.699c-0.814-0.191-1.364-0.67-1.077-1.508s0.91-0.622,1.46-0.383 c0.551,0.239,1.915,0,2.824-0.694C16.362,10.855,16.027,9.993,15.907,9.539z"/><path fill="#212121" d="M16.242,9.922c0,0,0.91,0.287,1.915-0.383c1.005-0.67,1.173-0.718,1.58-0.479 s0.191,1.005-0.551,1.316c-0.742,0.311-2.848,0.12-2.848,0.12l0.622-0.287L16.242,9.922z"/><ellipse cx="18.48" cy="9.982" fill="#ff1744" rx=".539" ry=".394"/><path fill="#212121" d="M19.09,11.813c0,0-1.316,0.479-1.58,1.005c-1.364,0.096-2.298,0.574-2.298,0.574 s-0.678,1.053-0.032,1.221c0.646,0.168,1.748-0.511,2.162-0.862C17.814,13.352,19.09,11.813,19.09,11.813z"/><path fill="#212121" d="M16.003,13.823c0,0-1.077,0.742-1.628,0.67s-1.053,0.048-1.053,1.053s-1.245,1.029-1.316,2.106 c0.431-0.622,1.388-0.814,1.388-0.814s-0.048,0.886,0.574,1.197c-0.096-0.838,0.072-1.364,0.359-1.747s-0.622-1.029,0.311-1.269 s1.245-0.455,1.58-0.814C16.553,13.847,16.338,13.488,16.003,13.823z"/><path fill="#212121" d="M21.34,13.672c0,0,1.356-0.511,1.604-1.931c0.239-1.375-0.646-2.106-1.46-2.394 s-1.005,0.335-0.598,0.694c0.407,0.359,0.694,0.766,0.287,1.005c-0.407,0.239-1.269,0.096-1.269,0.096s-0.311,1.029-0.646,1.532 s-1.628,1.723-2.513,2.082c-0.886,0.359-1.787,0.016-1.787,0.016s0.231,0.918,1.237,0.846s3.327-1.508,4.093-2.944 c0.742-0.263,1.053-0.551,1.053-0.551S21.484,13.121,21.34,13.672z"/><path fill="#212121" d="M29.646,23.805c0,0-0.383,0.742-0.766,1.005c-0.527-0.335-1.221-1.029-2.92-0.694 c-1.699,0.335-1.843,2.059-0.646,2.202c-1.173,0.598-2.011-0.383-1.867-1.508c0.144-1.125,1.005-1.987,1.891-2.035 c0.886-0.048,1.34-0.934,2.25-0.263C28.497,23.182,29.383,23.326,29.646,23.805z"/><path fill="#b0bec5" d="M23.614,12.004c0,0,0.191,2.154-1.029,3.638s-6.463,8.904-6.75,11.059s-0.072,4.883,0.934,5.84 c1.005,0.957,2.537,0.431,1.915-0.383c-0.622-0.814-0.622-7.564,0.527-9.191c1.149-1.628,4.668-6.343,5.051-7.923 c0.383-1.58,0.455-2.298,0.359-2.944S23.662,11.214,23.614,12.004z"/><path fill="#b0bec5" d="M22.705,27.677c-0.744-0.181,0.332,1.529,2.37,1.484c1.541-0.034,2.537-0.258,4.691-2.46 s2.681-3.878,2.418-5.17c-0.263-1.293-2.657-5.051-2.657-5.051s2.441,3.207,1.293,6.559s-3.208,5.293-5.745,5.117 C23.614,28.055,22.705,27.677,22.705,27.677z"/><path fill="#b0bec5" d="M31.322,27.874c0,0,0.263,3.59-2.896,6.032s-2.25,2.394-0.479,2.226s4.955-3.973,4.955-3.973 s1.221-1.436,1.197-3.806s-0.718-4.069-0.91-3.734C32.997,24.954,31.322,27.874,31.322,27.874z"/><path fill="#b0bec5" d="M27.66,37.041c0,0-4.476,1.221-8.066-1.628c-3.59-2.848-2.513,0.934-2.513,0.934 s8.138,2.729,9.191,2.059S27.66,37.041,27.66,37.041z"/><path fill="#b0bec5" d="M14.423,26.198c0,0,0.862-0.383,0.67,1.005s-0.335,4.237,0.79,5.864 c1.125,1.628,0.096,2.25-0.407,1.723s-1.652-3.614-1.532-5.17C14.064,28.065,14.423,26.198,14.423,26.198z"/><path fill="#212121" d="M29.867,10.86c-0.002-0.01-0.005-0.028-0.005-0.028s-1.58,0.646-1.58,1.987 c0,1.34,1.173,2.92,1.795,3.614c0.622,0.694,2.896,3.806,2.681,6.247c-0.215,2.441-1.053,4.492-2.465,5.641 c-0.128,0.191-0.271,0.271-0.271,0.271s-0.024,0.104-0.075,0.274c-0.117,0.3-0.228,0.555-0.228,0.555s2.154-0.949,2.729-2.242 c0.574-1.293,1.245-1.221,1.173,0.311c-0.072,1.532-0.622,3.59-0.886,4.021s-0.67,0.168-0.574-0.957 c-0.91,2.729-2.154,4.524-4.715,5.625c-2.561,1.101-5.122,0.742-6.415,0.383c-1.293-0.359,0.072,0.551,0.646,0.67 s2.465,0.551,4.62,0.12c0.67-0.263,0.646,0.12,0.048,0.383c-0.598,0.263-5.577,0.862-8.258-1.58 c-1.587-1.445-1.704-0.642-1.537,0.254c1.843,1.993,4.542,3.06,8.175,2.842c6.383-0.383,9.786-8.248,9.702-10.947 c-0.128-4.117-1.404-5.011-1.404-5.011s0.383-3.383-1.532-5.808s-3.279-4.428-1.771-6.415 C29.783,10.998,29.828,10.928,29.867,10.86z"/><path fill="#212121" d="M24.572,10.233c0.215,0.622,0.287,3.207-0.287,4.38c-0.574,1.173-1.723,3.16-2.968,4.715 c-1.245,1.556-4.189,5.673-3.926,8.689c0.263,3.016,1.053,4.907,3.16,5.745s4.596,1.037,6.056-0.543 c-0.058-0.005-0.17,0.165-0.231,0.156c-0.832,0.424-1.833,0.705-3.056,0.705c-5.489,0-5.106-7.66-3.447-10.085 c1.66-2.426,6.191-8.106,5.745-11.809c-0.163-1.349-0.565-2.466-1.144-3.308l-0.021-0.011C24.452,8.868,24.356,9.61,24.572,10.233 z"/><g><path fill="#212121" d="M22.824,28.347c0,0,2.537,1.843,5.673-0.503c1.891-1.412,2.561-3.351,2.801-4.093 c0.239-0.742,0.718-0.383,0.574,0.383c-0.144,0.766-0.862,2.896-3.279,4.5s-5.146,1.101-6.056,0.144 C21.929,28.138,22.465,28.084,22.824,28.347z"/></g></svg>