<svg xmlns="http://www.w3.org/2000/svg"  viewBox="0 0 48 48" width="1600px" height="1600px" baseProfile="basic"><path fill="#e53935" d="M29.471,20.594c0,0,1.765-2.547,5.987-2.547c2.402,0,5.07,1.436,6.587,2.747	c1.53,1.322,2.203,3.377,1.818,5.361c-0.598,3.083-2.898,11.163-3.308,12.324c-0.296,0.837-3.593,5.603-12.797,5.603	c-6.574,0-8.677-2.364-10.342-4.027c-0.894-0.893-2.717-2.626-3.155-3.765c-0.621-1.612,0.876-5.691,0.876-5.691l-4.821,0.088	c0,0-2.016,0.088-3.155-0.963c-0.764-0.704-2.433-2.273-3.451-3.232c-0.833-0.784-1.435-1.794-1.647-2.918	c-0.081-0.43-0.119-0.899-0.073-1.38c0.175-1.839,0.789-2.451,1.402-3.152c0.614-0.7,1.753-1.313,2.542-1.313	s6.561,0.005,6.561,0.005s-2.968-4.557-3.318-5.17c-0.351-0.613-0.276-2.912,1.139-4.64c1.35-1.649,2.365-2.034,3.961-2.261	c1.27-0.181,9.166,0.022,12.276,0.119c0.828,0.026,1.604,0.388,2.159,1.003l3.078,3.416c0,0,0.729,1.79-0.353,3.067	c-0.964,1.138-1.756,1.43-2.457,1.43s-3.326,0.056-3.326,0.056L29.471,20.594z"/><path fill="#ffd600" d="M27.012,30.338l1.938-7.055c0,0,1.412-4.167,6.073-4.096c4.379,0.066,4.167,3.178,3.955,4.237	c-0.152,0.762-2.613,10.805-2.613,10.805s-2.33,6.356-12.076,6.144c-7.442-0.162-9.119-3-9.496-4.333	c-0.089-0.314-0.112-0.64-0.084-0.965l0.044-0.502c0.048-0.558,0.145-1.11,0.29-1.651l1.561-5.85L6.15,27.117	c0,0-3.619-0.67-3.683-4.258c-0.068-3.813,3.144-4.543,3.638-4.543s7.449,0.024,7.449,0.024s-3.46-5.226-3.814-5.932	c-0.353-0.706,0.015-3.026,1.412-4.59c1.285-1.439,2.542-1.766,3.249-1.766c0.706,0,11.723,0.071,12.429,0.141	c0.706,0.071,1.201,1.059,1.059,1.907s-0.565,2.542-3.107,2.613c-2.542,0.071-3.955,0-3.955,0s5.72,8.686,6.073,9.251	c0.353,0.565,1.201,2.048,0.847,3.602s-1.836,6.709-1.836,6.709h-4.378l2.119,1.907l-1.695,3.249l3.602-1.977l2.542,1.836	L27.82,32.04l3.39-1.695L27.012,30.338z"/></svg>