<svg xmlns="http://www.w3.org/2000/svg"  viewBox="0 0 48 48" width="1600px" height="1600px"><path fill="#e92a2d" d="M10.72,18.482c0.164,0.233,0.279,0.488,0.345,0.767l0.175-0.063l-0.392-2.42 c-0.078,0.058-0.159,0.101-0.243,0.13c-0.084,0.029-0.149,0.045-0.196,0.047c-0.047,0.003-0.099,0.004-0.158,0.004H6.746 c-0.012,0-0.068,0-0.17,0c-0.008,0-0.04-0.002-0.096-0.007c-0.057-0.005-0.1-0.014-0.131-0.028 c-0.078-0.042-0.142-0.091-0.193-0.147l-0.421,2.42l0.175,0.042c0.035-0.158,0.111-0.349,0.228-0.572 c0.097-0.186,0.195-0.328,0.292-0.426c0.195-0.186,0.376-0.317,0.544-0.394c0.167-0.077,0.368-0.115,0.602-0.115v4.975 c0,0.199-0.008,0.348-0.023,0.445c-0.016,0.097-0.064,0.193-0.146,0.285c-0.136,0.153-0.28,0.23-0.432,0.23 c-0.035,0-0.062,0.002-0.082,0.007v0.265h3.203v-0.272c-0.125,0-0.228-0.017-0.31-0.052C9.703,23.571,9.628,23.502,9.56,23.4 c-0.068-0.102-0.113-0.218-0.134-0.348c-0.022-0.13-0.032-0.276-0.032-0.439c0-0.037,0-0.083,0-0.139l-0.006-4.751 c0.28,0,0.527,0.062,0.739,0.185C10.339,18.03,10.537,18.222,10.72,18.482z"/><path fill="#e92a2d" d="M24.315 23.93v-.272c-.092-.018-.167-.048-.225-.087-.058-.039-.103-.096-.136-.171-.033-.074-.056-.152-.069-.233-.014-.081-.02-.18-.02-.296l.006-4.667 2.683 3.762c.156.218.261.39.315.516.082.181.122.374.122.578 0 .307-.095.497-.286.571-.051.019-.101.028-.152.028v.272h1.765v-.272c-.082-.009-.157-.036-.225-.08-.068-.044-.121-.103-.158-.178-.037-.074-.061-.161-.073-.261-.012-.1-.018-.187-.018-.261v-4.641c0-.13.009-.273.026-.428.018-.156.061-.287.132-.394.058-.088.123-.144.193-.167.047-.009.093-.019.14-.028v-.272h-1.765v.272c.095.014.174.038.239.073.065.035.121.091.168.167.047.077.077.148.089.213.012.065.018.16.018.286 0 .019 0 .047 0 .084v1.576l-1.175-1.758c-.039-.06-.066-.109-.082-.147-.035-.079-.053-.151-.053-.216 0-.046.014-.092.041-.136.027-.044.056-.079.085-.105.029-.026.063-.038.102-.038v-.272h-3.343v.272c.144.023.257.088.339.195.039.051.066.144.082.279.016.135.023.276.023.425 0 .06 0 .119 0 .174v4.271c0 .237-.018.449-.053.637-.034.18-.089.301-.165.364-.016-.011-.032-.022-.048-.036-.047-.039-.095-.108-.146-.206-.016-.032-.037-.077-.064-.132l-1.52-5.442c-.023-.084-.037-.13-.041-.139-.012-.046-.018-.088-.018-.125 0-.037.008-.074.023-.111.035-.079.099-.118.193-.118v-.307h-2.589v.265c.027.009.054.021.079.035.025.014.051.043.076.087.025.044.038.099.038.164 0 .047-.008.098-.023.153-.016.056-.033.112-.053.167l-1.619 4.959c-.047.153-.096.273-.146.359-.012.02-.025.041-.04.061-.042-.101-.087-.218-.134-.357-.21-.622-.36-1.024-.45-1.205-.168-.334-.328-.635-.482-.902-.154-.267-.334-.556-.541-.868.031 0 .144-.067.339-.202.257-.181.466-.379.625-.592.222-.302.333-.625.333-.969 0-.037-.004-.097-.012-.181-.035-.316-.172-.557-.412-.725-.24-.167-.587-.251-1.043-.251h-4.091v.272c.082 0 .152.017.21.052.058.035.11.099.155.192.045.093.075.262.091.509.004.079.006.19.006.334l-.012 4.564c0 .158-.012.286-.035.383-.023.098-.074.184-.152.258-.058.056-.108.094-.149.115-.041.021-.095.031-.161.031v.272h2.788v-.272c-.109-.028-.177-.049-.205-.063-.059-.032-.119-.095-.181-.188-.047-.07-.079-.152-.096-.248-.018-.095-.026-.217-.026-.366v-1.967l.31-.174c.117.191.235.384.354.579.119.195.217.374.295.537.265.567.427.928.485 1.081.086.228.129.404.129.53 0 .093-.023.156-.07.188-.086.06-.181.098-.286.112v.251h1.881 1.065.875v-.258c-.074-.014-.14-.041-.199-.08-.058-.039-.111-.101-.158-.185-.02-.037-.029-.105-.029-.202 0-.2.025-.383.076-.551l.412-1.417c.133 0 .301.022.506.066.205.044.36.094.465.15.269.144.513.362.731.654.203.269.318.513.345.731.008.046.012.111.012.195 0 .251-.078.432-.234.543-.051.032-.127.06-.228.084v.271h2.522.505H24.315zM14.36 19.424c-.226.233-.487.409-.783.53l-.205.077V18.28c0-.116.015-.217.044-.303.029-.086.081-.148.155-.185.132-.065.275-.098.427-.098.222 0 .405.06.549.181.167.139.251.33.251.572C14.799 18.796 14.653 19.122 14.36 19.424zM19.719 20.646c-.159-.098-.307-.17-.443-.216-.136-.046-.239-.072-.309-.077-.07-.005-.128-.007-.175-.007l.558-1.96.654 2.47C19.931 20.79 19.836 20.72 19.719 20.646zM38.974 23.944c.082.009.156.026.222.049l.199.07.76-2.671-.199-.119c-.066.307-.222.625-.468.956-.218.298-.446.528-.684.69-.16.107-.336.193-.529.258-.193.065-.381.098-.564.098-.168 0-.316-.029-.444-.087-.128-.058-.228-.145-.298-.262-.07-.116-.115-.228-.134-.335-.019-.107-.029-.237-.029-.391 0-.028 0-.065 0-.112 0-.046 0-.102 0-.167v-1.995h.748c.086 0 .191.031.315.094.125.063.236.145.333.248.097.102.185.242.263.419.062.144.101.263.117.356L38.804 21l-.392-2.657-.175.063c0 .023 0 .058 0 .105 0 .2-.066.37-.198.509-.066.065-.135.111-.207.136-.072.026-.147.038-.224.038h-.821v-.76c0-.144.016-.27.05-.377.033-.107.091-.198.172-.272.125-.112.318-.167.579-.167.234 0 .471.046.713.139.242.093.45.23.625.412.304.321.501.711.59 1.172l.193-.174-.427-2.358c-.066.031-.119.051-.158.06-.008 0-.06.009-.158.026-.187.036-.353.053-.497.053-.051 0-.086 0-.105 0h-3.857v.272c.086 0 .152.008.199.024.047.016.094.056.14.119.047.063.075.126.085.188.01.063.015.155.015.276 0 .014 0 .039 0 .077v4.952c0 .144-.009.262-.026.352-.017.091-.058.18-.12.269-.047.06-.087.101-.12.122-.033.021-.108.043-.225.066v.265h4.261C38.806 23.93 38.892 23.934 38.974 23.944z"/><path fill="#e92a2d" d="M33.914 20.81c0-.144.009-.262.026-.355.018-.093.057-.179.12-.258.117-.158.255-.237.415-.237v-.237h-2.8v.258c.019 0 .051 0 .093 0 .113 0 .214.051.304.153.047.056.079.114.097.174.018.06.026.169.026.327v1.663c0 .274-.051.492-.152.654-.121.19-.308.285-.561.285-.569 0-1.029-.339-1.379-1.018-.3-.577-.45-1.216-.45-1.918 0-.056.001-.102.003-.139.002-.037.005-.077.009-.119.054-.683.205-1.241.45-1.674.296-.521.699-.781 1.21-.781.327 0 .699.114 1.116.343.167.094.335.259.503.497.218.308.36.574.427.799l.146-.091-.239-2.399c-.07.065-.138.13-.205.195-.086.056-.197.084-.333.084-.121 0-.253-.018-.397-.056-.28-.07-.53-.12-.748-.15-.218-.03-.452-.045-.701-.045-.46 0-.882.069-1.268.206-.386.137-.725.355-1.017.652-.218.227-.395.481-.533.762v3.525c.096.225.209.437.34.637.358.544.797.921 1.315 1.13.417.167.976.251 1.677.251h2.922v-.265c-.093-.028-.165-.059-.213-.094-.049-.035-.093-.094-.131-.178-.039-.083-.063-.165-.07-.244 0-.088 0-.176 0-.265V20.81zM.449 25.523c.039-.009.089-.013.148-.013.437.07.865.14 1.284.21.419.07.796.105 1.132.105.419 0 1.238-.093 1.698-.28.561-.227.96-.548 1.301-.962.414-.507.634-1.116.634-1.828 0-.54-.121-1.076-.42-1.531-.127-.194-.295-.355-.485-.488-.345-.241-.741-.393-1.137-.532-.452-.159-.901-.325-1.351-.493-.316-.118-.641-.18-.887-.432-.361-.37-.262-.973.068-1.328.154-.165.422-.293.638-.344.784-.185 1.342.18 2.064.879.17.165.35.536.35.536l.401-2.252c-.046.029-.238.155-.321.219-.154.119-.413-.035-.567-.091-.207-.075-.418-.139-.632-.191-.43-.103-.872-.153-1.315-.153-.347 0-.726.025-1.064.104-.248.058-.513.183-.732.31-.712.411-1.053 1.14-1.206 1.918-.094.476-.067.969.128 1.417.278.637.771 1.179 1.418 1.446 0 0 2.206.735 2.206.735.159.053.344.209.441.343.35.484.181 1.289-.251 1.666-.676.592-1.893.374-2.56-.128-.366-.275-.559-.689-.715-1.107-.009-.024-.175-.483-.166-.483-.002 0-.328 0-.328 0L0 25.825c.051-.047.258-.179.311-.223C.364 25.558.41 25.532.449 25.523zM45.951 21.713c-.197-.342-.427-.713-.691-1.112.04 0 .184-.086.433-.259.329-.232.595-.485.799-.759.284-.387.426-.801.426-1.242 0-.047-.005-.125-.015-.232-.045-.405-.22-.715-.527-.929-.306-.214-.751-.322-1.334-.322h-5.23v.349c.105 0 .194.022.269.067.075.045.141.127.198.246.057.119.096.336.116.652.005.101.008.244.008.429l-.015 5.851c0 .202-.015.366-.045.491-.03.125-.095.235-.194.331-.075.072-.138.121-.19.147-.052.027-.121.04-.205.04v.349h3.564V25.46c-.139-.036-.227-.063-.261-.08-.075-.042-.152-.122-.232-.241-.06-.09-.101-.195-.123-.318-.022-.122-.034-.279-.034-.469V21.83l.396-.223c.149.244.3.492.452.742.152.25.278.48.377.688.339.727.545 1.189.62 1.386.109.292.164.519.164.68 0 .119-.03.2-.09.242-.11.078-.232.125-.366.143v.322h3.765v-.304c-.14-.03-.257-.068-.351-.116-.129-.065-.294-.39-.493-.974-.269-.798-.461-1.313-.575-1.545C46.353 22.441 46.147 22.056 45.951 21.713zM43.952 20.033c-.289.298-.623.525-1.001.68l-.261.098v-2.244c0-.149.019-.279.056-.389.037-.11.103-.189.198-.237.169-.083.351-.125.545-.125.284 0 .518.078.702.232.214.179.321.423.321.733C44.512 19.228 44.326 19.645 43.952 20.033zM12.656 25.199c-.078.058-.159.102-.242.131-.084.029-.149.045-.196.048-.047.003-.099.004-.158.004H8.553c-.012 0-.068 0-.169 0-.008 0-.04-.002-.096-.007-.057-.005-.1-.014-.132-.028-.078-.042-.142-.091-.193-.148l-.421 2.44.175.042c.035-.159.111-.352.228-.577.097-.188.195-.331.292-.429.195-.187.376-.32.544-.397.167-.077.368-.116.602-.116v5.015c0 .201-.008.351-.023.449-.016.098-.064.194-.146.288-.136.154-.281.231-.433.231-.035 0-.062.002-.082.007v.267h3.203v-.274c-.125 0-.228-.017-.31-.053-.082-.035-.157-.104-.225-.207-.068-.103-.113-.22-.134-.351-.021-.131-.032-.279-.032-.442 0-.037 0-.084 0-.14l-.006-4.79c.281 0 .527.062.739.186.212.124.41.318.593.58.164.234.279.492.345.773l.175-.064L12.656 25.199z"/><path fill="#e92a2d" d="M16.529 25.949c.07.014.123.025.159.034.098.032.164.075.2.129.051.082.087.17.109.266.021.095.032.266.032.511v.627h-1.755v-.647c0-.313.061-.563.182-.75.043-.064.102-.108.176-.133.074-.025.135-.038.182-.038v-.266h-2.829v.266c.09.014.164.035.223.065.059.03.112.082.158.157.047.075.076.149.088.221.012.073.018.184.018.334 0 .018 0 .05 0 .095l.012 4.457c0 .15-.02.308-.059.473-.039.166-.078.269-.117.31-.074.073-.126.117-.156.133-.029.016-.083.033-.161.051v.259h2.806v-.266c-.161 0-.294-.07-.399-.211-.055-.077-.089-.152-.103-.224-.014-.073-.021-.172-.021-.299v-3.293h1.743v3.306c0 .109-.009.205-.026.289-.018.084-.05.16-.097.228-.098.136-.229.204-.393.204v.266h2.847v-.266c-.149 0-.266-.05-.352-.15-.043-.054-.075-.137-.097-.248-.022-.111-.032-.233-.032-.364l-.012-4.629c0-.15.009-.279.026-.388.018-.109.054-.209.109-.3.055-.091.125-.15.211-.177.051-.009.104-.021.159-.034v-.265h-2.829V25.949zM19.671 25.949c.11.018.194.04.252.065.059.025.104.063.135.112.059.091.096.193.112.306.016.114.023.268.023.463v4.602c0 .113-.009.211-.026.293-.018.082-.052.156-.103.225-.106.15-.237.225-.393.225v.266h2.847v-.266c-.074 0-.141-.017-.2-.051-.059-.034-.11-.076-.153-.126-.043-.05-.075-.131-.097-.242-.022-.111-.032-.233-.032-.364v-4.582c0-.168.007-.305.021-.412.014-.107.048-.203.103-.289.039-.064.08-.11.123-.14.043-.03.125-.058.247-.085v-.265h-2.859V25.949zM28.121 31.988c-.037-.073-.062-.158-.073-.255-.012-.098-.018-.183-.018-.255v-4.534c0-.127.009-.267.026-.419.018-.152.062-.28.132-.385.059-.086.123-.141.194-.163.047-.009.094-.018.141-.027v-.266H26.75v.266c.095.014.175.038.241.072.065.034.122.089.169.164.047.075.077.144.089.208.012.064.018.157.018.279 0 .018 0 .045 0 .082v1.54l-1.18-1.717c-.039-.059-.067-.107-.082-.143-.035-.077-.053-.148-.053-.211 0-.045.014-.09.041-.133.027-.043.056-.077.085-.102.029-.025.064-.038.103-.038v-.266h-3.358v.266c.145.023.258.086.341.191.039.05.066.141.082.272.016.132.023.27.023.415 0 .059 0 .116 0 .17v4.173c0 .231-.018.439-.053.623-.035.184-.094.305-.176.364-.047.032-.084.051-.112.058-.027.007-.078.015-.153.024v.265h1.708V32.24c-.093-.018-.168-.047-.226-.085-.058-.039-.103-.094-.136-.167-.033-.073-.056-.149-.07-.228-.014-.079-.02-.176-.02-.289l.006-4.56 2.695 3.675c.156.213.262.381.316.504.082.177.123.365.123.565 0 .3-.096.486-.288.558-.051.018-.102.027-.153.027v.265h1.773V32.24c-.082-.009-.157-.035-.226-.078C28.211 32.118 28.158 32.06 28.121 31.988zM38.92 28.457l-1.409-.525c-.246-.091-.429-.209-.546-.354-.094-.118-.141-.252-.141-.402 0-.1.014-.195.041-.286.016-.055.041-.118.076-.191.055-.118.139-.206.252-.262.113-.057.247-.085.399-.085.176 0 .36.036.552.109.192.073.362.168.511.286.184.145.354.388.511.729.066.141.106.245.117.313l.211-.075-.2-2.215c-.039.023-.094.059-.164.109-.094.055-.184.095-.27.123-.012.004-.033.007-.065.007-.266-.059-.524-.118-.775-.177-.251-.059-.478-.088-.681-.088-.156 0-.305.016-.446.048-.579.136-1.047.388-1.403.756-.399.414-.599.918-.599 1.513 0 .432.113.8.34 1.104.207.277.497.486.869.627l1.55.593c.141.054.253.144.338.269.084.125.126.271.126.44 0 .073-.004.129-.012.17-.047.273-.176.484-.387.634-.211.15-.466.225-.763.225-.27 0-.547-.068-.831-.204-.284-.136-.529-.332-.737-.586-.145-.177-.272-.418-.382-.722-.086-.236-.135-.422-.147-.559l-.211.027.229 2.821c.043-.036.087-.072.132-.106.045-.034.084-.054.118-.061.033-.007.075-.01.126-.01.372.054.736.109 1.092.163.356.054.677.082.963.082.356 0 .73-.073 1.121-.218.477-.177.861-.427 1.15-.75.352-.395.528-.87.528-1.424 0-.463-.105-.852-.314-1.165C39.583 28.825 39.292 28.598 38.92 28.457z"/><path fill="#e92a2d" d="M34.247 31.969c-.039-.084-.063-.165-.07-.244 0-.088 0-.176 0-.265v-2.075c0-.144.009-.262.026-.355.018-.093.057-.179.12-.258.117-.158.255-.237.415-.237v-.237h-2.8v.258c.019 0 .051 0 .093 0 .113 0 .214.051.304.153.047.056.079.114.097.174.018.06.026.169.026.327v1.663c0 .274-.051.492-.152.654-.121.19-.308.285-.561.285-.569 0-1.029-.339-1.379-1.018-.3-.577-.45-1.216-.45-1.918 0-.056.001-.102.003-.139.002-.037.005-.077.009-.119.054-.684.205-1.242.45-1.674.296-.521.699-.781 1.21-.781.327 0 .699.114 1.116.343.167.093.335.259.503.497.218.308.36.574.427.798l.146-.091-.239-2.399c-.07.065-.138.13-.205.195-.086.056-.197.084-.333.084-.121 0-.253-.019-.397-.056-.28-.07-.53-.12-.748-.15-.218-.03-.452-.045-.701-.045-.46 0-.882.069-1.268.206-.386.137-.725.355-1.017.652-.218.227-.395.481-.533.762v3.525c.096.225.209.437.34.637.358.544.797.921 1.315 1.13.417.167.976.251 1.677.251h2.922v-.265c-.093-.028-.165-.059-.213-.094C34.329 32.112 34.285 32.053 34.247 31.969zM0 27.081H7V27.718H0zM40 27.081H48V27.718H40zM0 15.304H46.98V15.881H0z"/></svg>