<svg xmlns="http://www.w3.org/2000/svg"  viewBox="0 0 48 48" width="1600px" height="1600px" baseProfile="basic"><path fill="#71c674" d="M31,43H17v-3c0-2.209,1.791-4,4-4h6c2.209,0,4,1.791,4,4V43z"/><ellipse cx="24" cy="16.5" fill="#71c674" rx="10" ry="16.5"/><path fill="#c8e6c9" d="M38,16h-7c-1.657,0-3,1.343-3,3v26h-8V19c0-1.657-1.343-3-3-3h-7c0-7.73,6.27-16,14-16S38,8.27,38,16	z"/><rect width="4" height="8" x="22" y="39" fill="#71c674"/><rect width="2" height="14" x="23" y="25" fill="#43a047"/><rect width="4" height="2" x="22" y="45" fill="#43a047"/><ellipse cx="24" cy="39" fill="#71c674" rx="2" ry="4"/><ellipse cx="24" cy="17" fill="#71c674" rx="3" ry="12"/><ellipse cx="24" cy="13" fill="#fff" rx="2" ry="5"/><rect width="4" height="2" x="22" y="39" fill="#c8e6c9"/><rect width="6" height="2" x="21" y="32" fill="#c8e6c9"/></svg>