<svg xmlns="http://www.w3.org/2000/svg"  viewBox="0 0 48 48" width="1600px" height="1600px"><path fill="#2e7d32" d="M29,34c-4.411,0-8-3.589-8-8V15h5v11c0,1.654,1.346,3,3,3s3-1.346,3-3V15h5v11 C37,30.411,33.411,34,29,34z"/><path fill="#2e7d32" d="M40,34c-4.411,0-8-3.589-8-8V15h5v11c0,1.654,1.346,3,3,3s3-1.346,3-3V15h5v11 C48,30.411,44.411,34,40,34z"/><path fill="#2e7d32" d="M16.5,34h-6C5.262,34,1,29.738,1,24.5S5.262,15,10.5,15H17v5h-6.5C8.019,20,6,22.019,6,24.5 S8.019,29,10.5,29h6c2.481,0,4.5-2.019,4.5-4.5h5C26,29.738,21.738,34,16.5,34z"/><path fill="#2e7d32" d="M9.975,23.57H9.169V23h2.306v0.57h-0.819V26H9.975V23.57z"/><path fill="#2e7d32" d="M12.52,23v1.153h1.117V23h0.677v3h-0.677v-1.255H12.52V26h-0.681v-3H12.52z"/><path fill="#2e7d32" d="M16.695,24.731h-1.104v0.712h1.233V26H14.91v-3h1.852v0.556h-1.171v0.623h1.104V24.731z"/></svg>