<svg xmlns="http://www.w3.org/2000/svg"  viewBox="0 0 48 48" width="1600px" height="1600px"><path fill="#37474F" d="M35.5 17c1 .5 1.7 1.6 1.8 2.7.1 1.3.1 2.9.1 4.2.7-.4 1.2-.8 2-.9.7-.1 1.4-.1 2 .3.5.4.7 1.2.7 1.8 0 1.3-.1 2.1-.1 3.4 0 .4.3.8.7 1 .2.1.7 0 .6.5-.7 0-1.5 0-2.1-.4-.3-.2-.5-.5-.6-.9-.1-1.1.1-1.8 0-2.9-.1-.7-.3-1.4-.9-1.7-.5-.3-1-.1-1.5 0-.3.1-.6.1-.8.4-.1 1.2-.1 2.4-.1 3.7 0 .4-.1.8.2 1.1.3.3.7.1 1 .3.1.1.1.2-.1.3-1.2.1-2.5-.1-3.7.1 0-.1 0-.3 0-.4.3-.1.6-.1.9-.1.2-.3.4-.6.4-1 0-2.7 0-5.7 0-8.4C35.9 19 35.9 18 35.5 17zM20.4 23.1c0 2 .1 4-.1 6-.1.5-.8.6-1.2.6 0 .1 0 .2 0 .3 1.3 0 2.6 0 3.9 0 0-.5-.6-.4-.9-.5s-.4-.4-.3-.6c0-1.9 0-3.7 0-5.6 0-1.8-.1-3.6.4-5.3-.5.3-1 .7-1.2 1.2C20.3 20.4 20.4 21.8 20.4 23.1zM16.5 20.7c.3.6 1.4.3 1.5-.3.2-.7-.6-1.2-1.2-.9C16.3 19.7 16.2 20.3 16.5 20.7zM1 23.8V28c0 .5.1 1 .4 1.5C1.6 29.8 2 30 2.4 30c.7.1 1.4-.1 2-.4.2-.1.5-.4.4-.6-.6 0-1.2.4-1.8.2-.5-.3-.6-.9-.6-1.4 0-1.3 0-2.7 0-4 .7 0 1.3 0 2 0 .4-.1.3-.7 0-.7C3.4 23 3 23 2.3 23c0-.6.1-1.5-.1-2-.8.8-1.5 1.9-2.2 2.7C.3 23.8.6 23.8 1 23.8zM33.3 30.1c-.2-.8-.9-1.4-1.6-1.5-1-.2-1.9-.5-2.8-.8-.3-.1-.5-.2-.7-.4.2-.4.8-.4 1.2-.3.9.2 2 0 2.8-.4.6-.3.9-1 .9-1.6 0-.7-.4-1.1-.8-1.7 0-.5.5-1 .9-1.3 0-.1 0-.3 0-.4 0-.4-.6-.3-1-.1-.4.4-.3 1.2-.2 1.7-.7-.2-1.5-.4-2.2-.3s-1.5.4-2.1.9c-.5.5-.5 1.2-.3 1.9.1.5.6.9 1.1 1-.6.1-1 .5-1.1 1.1 0 .5.4.8.9.9 1.2.2 2.4.4 3.5.9.4.2.8.4 1 .9.2.6-.2 1.3-.8 1.5-.8.4-1.7.5-2.6.3-.5-.1-.9-.5-1.1-.9s0-.8.1-1.1c.3-.7 1.4-.8 1.9-.2.2.3-.1.7-.4.7-.2 0-.4-.1-.7-.2.1.6.9.8 1.4.6.4-.3.6-1 .2-1.4-.3-.4-.9-.5-1.3-.6-.8-.1-1.6.2-2.1.8-.3.4-.5.9-.4 1.4.2.7.8 1.1 1.4 1.3.8.2 1.7.4 2.5.2s1.6-.4 2.1-1C33.4 31.5 33.5 30.8 33.3 30.1zM28.9 24.7c0-.5.2-1.1.8-1.2.5-.2 1-.2 1.5 0 .6.3.6.9.6 1.5s-.1 1.3-.7 1.6c-.6.3-1.4.3-1.9-.2C28.8 25.9 28.9 25.4 28.9 24.7zM9.5 23.8c-.2.8.2 1.6.3 2.4-.4.7-.7 1.6-1.2 2.3-.2-.3-.3-.7-.3-1-.3-1.1-.7-2.6-1.1-3.7 0 0 .1-.1.2-.2.2 0 .5 0 .7-.1 0-.2 0-.5-.2-.5-1 0-1.9 0-2.9 0-.1.2-.1.4.1.5.3 0 .6.1.8.4.2.4.4 1.1.5 1.5.5 1.4.9 2.9 1.5 4.2C8 29.7 8 30 8.2 30c.7-1 1.2-2.1 1.7-3.1 0-.1.1-.2.3-.2.4 1 .7 2 1.1 3 .1.1.1.3.3.3.2-.3.3-.7.5-1 .7-1.7 1.2-3.7 1.9-5.3.4-.1 1.1-.1.9-.6-.8 0-1.6 0-2.4 0 0 .1-.1.2-.2.3.2.2.5.3.8.4-.3 1.5-.7 3.3-1.2 4.7-.5-.7-.8-1.5-1.1-2.2-.4-.8.4-1.6.2-2.4-.1-.3-.4-.6-.7-.7C9.9 22.9 9.6 23.4 9.5 23.8"/><path fill="#37474F" d="M10.2 23.7c.3.5.2 1.1-.1 1.6-.1-.4-.2-.8-.2-1.2C9.8 23.7 10 23.6 10.2 23.7zM16 24c.4.1.5.2.6.7.1.6 0 1.1.1 1.7 0 1 .1 2.1-.2 3.1-.4.1-1.1 0-1.1.6h3.4c.7-.8-.5.6.2-.2-.2-.4-.7-.1-1-.5-.1-.2 0-.4 0-.5 0-1.5 0-3 0-4.5 0-.4 0-.9 0-1.3-.6.2-.7.3-1.3.5C16.4 23.7 16.1 23.7 16 24zM24.5 20.7c.3.6 1.4.3 1.5-.3.2-.7-.6-1.2-1.2-.9C24.3 19.7 24.3 20.3 24.5 20.7zM24 23.9c.4.1.5.2.6.7.1.6 0 1.1.1 1.7 0 1 .1 2.1-.2 3.1-.4.1-1.1 0-1.1.6h3.4c.7-.8-.5.6.2-.2-.2-.4-.7-.1-1-.5-.1-.2 0-.4 0-.5 0-1.5 0-3 0-4.5 0-.4 0-.9 0-1.3-.6.2-.7.3-1.3.5C24.5 23.6 24.2 23.6 24 23.9zM44 23.8V28c0 .5.1 1 .4 1.5.2.3.6.5 1 .5.7.1 1.4-.1 2-.4.2-.1.5-.4.4-.6-.6 0-1.2.4-1.8.2-.5-.3-.6-.9-.6-1.4 0-1.3 0-2.7 0-4 .7 0 1.3 0 2 0 .4-.1.3-.7 0-.7C46.4 23 46 23 45.3 23c0-.6.1-1.5-.1-2-.8.8-1.5 1.9-2.2 2.7C43.3 23.8 43.6 23.8 44 23.8z"/></svg>