<svg xmlns="http://www.w3.org/2000/svg"  viewBox="0 0 48 48" width="1600px" height="1600px"><path fill="#546e7a" d="M6.432,33.546C9.577,35.72,13.387,37,17.5,37c1.851,0,3.635-0.275,5.331-0.757C15.862,33.118,11,26.133,11,18c0-4.408,1.443-8.469,3.859-11.775C8.415,9.546,4,16.251,4,24c0,3.92,1.144,7.565,3.093,10.651C6.862,34.29,6.641,33.922,6.432,33.546z"/><path fill="#263238" d="M6.136,15.033C4.775,17.729,4,20.772,4,24c0,3.232,0.785,6.275,2.146,8.977c0.106,0.192,0.204,0.383,0.286,0.569c-0.21-13.06,3.942-19.922,5.511-21.603C9.853,12.571,7.909,13.779,6.136,15.033z"/><path fill="#fdd835" d="M33.546,6.432C35.72,9.577,37,13.387,37,17.5C37,28.27,28.27,37,17.5,37c-4.113,0-7.923-1.28-11.068-3.454C9.868,39.734,16.409,44,24,44c11.053,0,20-8.947,20-20C44,16.409,39.734,9.868,33.546,6.432z"/><path fill="#546e7a" d="M36.243,22.831C36.725,21.135,37,19.351,37,17.5c0-4.113-1.28-7.923-3.454-11.068c0.055,0.031,0.108,0.066,0.162,0.097c-0.056-0.036-0.109-0.074-0.165-0.11C30.707,4.876,27.456,4,24,4C16.251,4,9.546,8.415,6.225,14.859C9.531,12.443,13.592,11,18,11C26.133,11,33.118,15.862,36.243,22.831z"/><path fill="#263238" d="M36.26,22.768C36.73,21.09,37,19.328,37,17.5c0-4.108-1.278-7.914-3.447-11.057c-0.005-0.003-0.01-0.009-0.015-0.011C30.705,4.883,27.458,4,24,4c-0.215,0-0.426,0.016-0.639,0.023C30.719,4.917,36.708,17.692,36.26,22.768z"/></svg>