<svg xmlns="http://www.w3.org/2000/svg"  viewBox="0 0 48 48" width="1600px" height="1600px"><path fill="#FFC107" d="M31,26H17c-1.1,0-2-0.9-2-2v0c0-1.1,0.9-2,2-2h14c1.1,0,2,0.9,2,2v0C33,25.1,32.1,26,31,26z"/><path fill="#BDBDBD" d="M24,9c8.3,0,15,6.7,15,15s-6.7,15-15,15S9,32.3,9,24S15.7,9,24,9 M24,5C13.5,5,5,13.5,5,24s8.5,19,19,19s19-8.5,19-19S34.5,5,24,5L24,5z"/><path fill="#BDBDBD" d="M46 15l-29 0c-1.1 0-2 .9-2 2v0c0 1.1.9 2 2 2l29 0c1.1 0 2-.9 2-2v0C48 15.9 47.1 15 46 15zM31 29H2c-1.1 0-2 .9-2 2v0c0 1.1.9 2 2 2h29c1.1 0 2-.9 2-2v0C33 29.9 32.1 29 31 29z"/></svg>