<svg xmlns="http://www.w3.org/2000/svg"  viewBox="0 0 48 48" width="1600px" height="1600px"><path fill="#D32F2F" d="M12.001 23.001c0 2.222-1.778 3.999-4 3.999-2.222 0-4-1.777-4-3.999S5.779 19 8 19C10.223 19.148 12.001 20.928 12.001 23.001zM21.001 37c0 2.223-1.778 4-4 4-2.222 0-4-1.777-4-4s1.778-4 4-4C19.223 33 21.001 34.777 21.001 37zM37.001 37c0 2.223-1.804 4-4.056 4s-4.055-1.777-4.055-4 1.803-4 4.055-4S37.001 34.777 37.001 37zM44.001 23c0 2.223-1.778 4-3.999 4-2.223 0-4.001-1.777-4.001-4 0-2.221 1.778-4 4.001-4C42.223 19 44.001 20.926 44.001 23zM35.001 10c0 2.222-1.778 4-4 4s-4-1.778-4-4c0-2.223 1.778-4 4-4S35.001 7.777 35.001 10zM20.001 10c0 2.222-1.778 4-4 4s-4-1.778-4-4c0-2.223 1.778-4 4-4S20.001 7.777 20.001 10zM31.001 25.004c0 3.298-2.7 5.996-6 5.996-3.3 0-6-2.698-6-5.996 0-3.299 2.7-5.998 6-5.998C28.301 18.855 31.001 21.705 31.001 25.004z"/><path fill="#D32F2F" d="M14.208,13.578c0,0,4.238,2.084,4.823,3.253c0.73,1.315,1.049,4.483,0.464,5.798c-0.73,1.754,8.008-3.337,6.108-3.629c-2.777-0.292-4.672-1.585-5.403-2.754c-0.73-1.169-0.219-5.847-0.219-5.847L14.208,13.578z"/></svg>