<svg xmlns="http://www.w3.org/2000/svg"  viewBox="0 0 48 48" width="1600px" height="1600px"><path fill="#bdbdbd" d="M41,25h-2V9c0-1.1-0.9-2-2-2H11C9.9,7,9,7.9,9,9v16H7V9c0-2.2,1.8-4,4-4h26c2.2,0,4,1.8,4,4V25z"/><path fill="#0277bd" d="M25,20c0-2.8,2.2-5,5-5s5,2.2,5,5s-2.2,5-5,5S25,22.8,25,20z M43.8,21.6c0.1-0.2,0.2-0.3,0.2-0.6 c0-0.6-0.4-1-1-1c-0.2,0-0.4,0.1-0.6,0.2l-0.1,0.1C41.4,21.2,36.2,26,31,26h-3.7C26,26,25,27.1,25,28.3v11.1c0,2,1.6,3.6,3.6,3.6 h1.3c3.9,0,7.2-3.2,7.2-7.2c0,0,0.1-3.6-1.4-6C38.8,28.5,43.3,23.6,43.8,21.6z"/><path fill="#01579b" d="M25,30.7v4.1c1.9-0.6,6.2-2.5,6-6.8C28.5,30.4,26.3,30.8,25,30.7z"/><path fill="#fb8c00" d="M18,15c2.8,0,5,2.2,5,5s-2.2,5-5,5s-5-2.2-5-5S15.2,15,18,15z M31,28c0-0.6-0.4-1-1-1 c-0.4,0-0.8,0.3-0.9,0.6c-1.1,2-3.3,3.2-6.8-1.1v0.1c-0.4-0.4-1-0.6-1.6-0.6H17c-5.2,0-10.4-4.8-11.3-5.7l-0.1-0.1 C5.4,20.1,5.2,20,5,20c-0.6,0-1,0.4-1,1c0,0.2,0.1,0.4,0.2,0.6c0.5,2,5,7,8.2,8.2c-1.5,2.5-1.4,6-1.4,6c0,3.9,3.2,7.2,7.2,7.2h1.3 c2,0,3.6-1.6,3.6-3.6v-7.6c2,0.9,6.4,1.3,7.8-3.3C30.9,28.4,31,28.2,31,28z"/></svg>