<svg xmlns="http://www.w3.org/2000/svg"  viewBox="0 0 48 48" width="1600px" height="1600px"><path fill="#CFD8DC" d="M6,10c0-2.209,1.791-4,4-4h28c2.209,0,4,1.791,4,4v28c0,2.209-1.791,4-4,4H10c-2.209,0-4-1.791-4-4V10z"/><path fill="#B0BEC5" d="M10 11H38V13H10zM10 15H38V17H10zM10 19H38V21H10zM10 23H38V25H10zM10 27H38V29H10zM10 31H38V33H10zM10 35H38V37H10z"/><path fill="#37474F" d="M31,12.592c0,0.176-0.132,0.323-0.307,0.344c-1.199,0.142-4.348,0.74-4.693,1.684v18.658c0.346,1.734,4.627,1.72,4.662,1.721c0.186,0.005,0.336,0.157,0.336,0.347v1.247c0,0.189-0.152,0.346-0.346,0.346H17.346c-0.191,0-0.346-0.156-0.346-0.346v-1.247c0-0.189,0.152-0.344,0.342-0.347c0.036,0,4.658,0.076,4.658-1.721V14.619c0-0.793-3.173-1.462-4.704-1.686C17.125,12.909,17,12.764,17,12.592v-1.245C17,11.154,17.155,11,17.346,11h13.307C30.846,11,31,11.154,31,11.347V12.592z"/></svg>