<svg xmlns="http://www.w3.org/2000/svg"  viewBox="0 0 48 48" width="1600px" height="1600px"><path fill="#ef5350" d="M23.982,15C19.002,15,15,19.029,15,24c0,4.971,4.002,9,8.982,9S33,28.971,33,24 C33,19.029,28.963,15,23.982,15z M24,29c-2.761,0-5-2.239-5-5s2.239-5,5-5s5,2.239,5,5S26.761,29,24,29z"/><path fill="#ef5350" d="M24,5C17.943,5,7.132,5,6.625,5C5.728,5,5,5.728,5,6.625S5,20.844,5,24c0,10.493,8.507,19,19,19 s19-8.507,19-19S34.493,5,24,5z M24,37c-7.18,0-13-5.82-13-13s5.82-13,13-13s13,5.82,13,13S31.18,37,24,37z"/></svg>