<svg xmlns="http://www.w3.org/2000/svg"  viewBox="0 0 48 48" width="1600px" height="1600px"><path fill="#1565C0" d="M31.355,28.43l-3.551-3.557l-3.467,3.474l-3.552,3.557l-0.695,0.698c-1.15,1.151-3.024,1.154-4.182-0.006c-1.148-1.15-1.153-3.01-0.014-4.166l-3.555-3.557l0-0.001c-2.053,2.067-2.745,4.979-2.075,7.611c-2.123,0.501-3.704,2.411-3.704,4.692c0,2.662,2.156,4.822,4.816,4.822c2.289-0.003,4.204-1.597,4.695-3.74c2.625,0.653,5.519-0.046,7.571-2.1l0.696-0.698l3.552-3.56L31.355,28.43L31.355,28.43z"/><path fill="#FF9800" d="M42.52,10.822C42.521,8.159,40.365,6,37.704,6c-2.435,0-4.447,1.809-4.772,4.157c-2.709-0.795-5.758-0.122-7.896,2.018l-0.694,0.692l-3.555,3.56l-3.476,3.475l0.001,0.001l3.554,3.557l3.474-3.475l3.553-3.556l0.694-0.695c1.159-1.157,3.024-1.157,4.173-0.005c1.15,1.148,1.152,3.014,0.008,4.169l0.003,0.003l3.552,3.556c2.115-2.128,2.792-5.152,2.016-7.852C40.698,15.294,42.52,13.272,42.52,10.822z"/><path fill="#F44336" d="M38.424,32.405c0.637-2.617-0.068-5.497-2.111-7.541l-0.697-0.7l-3.553-3.557l-3.462-3.473L28.6,17.136l-3.553,3.556l-0.001,0.001l3.464,3.472l3.553,3.559l0.695,0.695c1.158,1.161,1.156,3.028,0.006,4.181c-1.148,1.149-3.009,1.151-4.163,0.008l-3.552,3.56l-0.001,0.001c2.163,2.155,5.251,2.813,7.979,1.975C33.471,40.345,35.417,42,37.746,42c2.658,0,4.816-2.157,4.816-4.821C42.564,34.747,40.765,32.734,38.424,32.405z"/><path fill="#4CAF50" d="M20.078,31.197L20.078,31.197l3.552-3.557l0.001-0.001l-3.473-3.474l-3.554-3.557l-0.696-0.695c-1.15-1.151-1.152-3.029,0.005-4.186c1.151-1.15,3.013-1.153,4.167-0.011l3.554-3.558c-2.025-2.021-4.864-2.729-7.458-2.119C15.804,7.749,13.817,6.002,11.423,6c-2.66,0-4.815,2.159-4.815,4.822c0,2.298,1.603,4.218,3.75,4.705c-0.814,2.723-0.15,5.794,1.998,7.944l0.693,0.694l3.555,3.557L20.078,31.197z"/></svg>