<svg xmlns="http://www.w3.org/2000/svg"  viewBox="0 0 48 48" width="1600px" height="1600px" baseProfile="basic"><path fill="#673ab7" d="M42,37c0,2.762-2.238,5-5,5H11c-2.761,0-5-2.238-5-5V11c0-2.762,2.239-5,5-5h26c2.762,0,5,2.238,5,5 V37z"/><path fill="#fff" d="M26,35h-1c-0.552,0-1-0.448-1-1v-3h-1c-5.514,0-10-4.486-10-10v-1c0-2.757,2.243-5,5-5h12 c2.757,0,5,2.243,5,5v6c0,1.597-0.421,3.156-1.219,4.508C32.195,33.275,29.211,35,26,35z M26,33h0.01H26z M18,17 c-1.654,0-3,1.346-3,3v1c0,4.411,3.589,8,8,8h2c0.552,0,1,0.448,1,1v3c2.497,0,4.816-1.34,6.052-3.498 C32.674,28.448,33,27.24,33,26v-6c0-1.654-1.346-3-3-3H18z"/></svg>