<svg xmlns="http://www.w3.org/2000/svg"  viewBox="0 0 48 48" width="1600px" height="1600px"><path fill="#37474F" d="M32.9,12c3.1,0,6.6,1.5,8.2,2.3l2.5,20.6C41,34,37,33,33,33c-3.6,0-7.2,1.7-9,2.7c-1.8-1-5.4-2.7-9-2.7c-4,0-8,1-10.6,1.9l2.5-20.6C8.5,13.5,12,12,15.1,12c4,0,7.7,2.6,7.7,2.6l1.2,0.8l1.2-0.8C25.2,14.6,29,12,32.9,12 M32.9,10c-4.7,0-8.9,3-8.9,3s-4.2-3-8.9-3S5,13,5,13L2,38c0,0,6.4-3,13-3c4.3,0,9,3,9,3s4.7-3,9-3c6.6,0,13,3,13,3l-3-25C43,13,37.6,10,32.9,10L32.9,10z M31,14.2c-2.5,0.6-4.6,2-4.6,2L24,17.9l-2.3-1.7c0,0-3.3-2.3-6.6-2.3c-2.2,0-4.8,1-6.4,1.7l-2,16.5C9.1,31.5,12,31,15,31c3.4,0,6.8,1.4,9,2.4c2.1-1.1,5.5-2.4,8.9-2.4L31,14.2z"/></svg>