<svg xmlns="http://www.w3.org/2000/svg"  viewBox="0 0 48 48" width="1600px" height="1600px" baseProfile="basic"><rect width="48" height="20" y="14" fill="#d32f2f"/><path fill="#fafafa" d="M40.383,18.916v-2.915h-8.111l-1.334,9.737l-1.32-9.737h-2.925l0.328,2.598	c-0.338-0.666-1.535-2.598-4.171-2.598c-0.017-0.001-2.929,0-2.929,0l-0.011,14.193l-2.132-14.193l-3.831-0.002l-2.205,14.706	l0.001-14.704H8.078l-1.322,8.26l-1.287-8.26H1.802v15.988H4.69v-7.706l1.314,7.706h1.535l1.295-7.706v7.706h5.567l0.338-2.46h2.241	l0.337,2.46l5.466,0.003h0.004v-0.003h0.003h0.003V26.8l0.67-0.098l1.387,5.291h0.003h2.82h0.003l-0.001-0.003h0.005h0.003	l-1.82-6.201c0.923-0.682,1.964-2.415,1.687-4.073v-0.001c0.003,0.022,1.718,10.285,1.718,10.285l3.362-0.01l2.298-14.492v14.492	h5.452v-2.875h-2.588v-3.667h2.588v-2.919h-2.588v-3.612H40.383z M15.079,26.994l0.793-6.835l0.823,6.835H15.079z M23.474,23.838	c-0.222,0.108-0.454,0.162-0.68,0.162v-5.143c0.004,0,0.008-0.001,0.014-0.001c0.226-0.001,1.912,0.068,1.912,2.544	C24.72,22.695,24.147,23.511,23.474,23.838"/><polygon fill="#fafafa" points="46.201,29.112 46.201,29.112 43.746,29.112 43.746,15.999 40.883,15.999 40.883,31.987 46.201,31.987"/></svg>