<svg xmlns="http://www.w3.org/2000/svg"  viewBox="0 0 48 48" width="1600px" height="1600px"><path fill="#d0d0d0" d="M32.163,6.369C31.523,6.049,31,6.372,31,7.088v28.45l11.674,5.837C43.959,42.017,45,41.567,45,40.37V12.974c0-0.115-0.065-0.22-0.167-0.271L32.163,6.369z"/><path fill="#a1a1a1" d="M17,28.537L30.319,6.895c0.375-0.609,1.205-0.846,1.844-0.526l12.684,6.342c0.082,0.041,0.111,0.144,0.063,0.222L31,35.537L17,28.537z"/><path fill="gray" d="M4.938,6.756C3.872,6.223,3.511,6.618,4.136,7.633L17,28.537l14,7L17.03,12.836c-0.02-0.032-0.048-0.058-0.082-0.075L4.938,6.756z"/><path fill="#575757" d="M17,40.37c0,1.192-0.872,1.731-1.938,1.198L4.163,36.119C3.523,35.799,3,34.952,3,34.237V7.521c0-0.954,0.698-1.385,1.551-0.958l12.374,6.187C16.971,12.773,17,12.82,17,12.871V40.37z"/></svg>