<svg xmlns="http://www.w3.org/2000/svg"  viewBox="0 0 48 48" width="1600px" height="1600px"><path fill="#2979FF" d="M24 4c0 0 6 2.1 6 7.4 0 3.8-1.9 6.6-1.9 6.6s-5.3-2.3-6-6.9C21.5 6.8 24 4 24 4zM27 24c0 0 1.1-4.8 3.6-7 3-2.7 8.4-1.9 8.4-1.9s.5 3-2.7 6.2C33 24.5 27 24 27 24zM14 15.6c0 0 4-1.3 7.1-.1C25.8 17.1 27 24 27 24s-2.8.1-5.7-.3C17.1 22.9 14.5 19.6 14 15.6zM24 32.9c0 0 3.6-5.9 9.1-5.9 4.2 0 6.9 2 6.9 2s-2.5 6-7.9 6S24 32.9 24 32.9zM9 26.8c0 0 2.8-2.2 6-1.8 7.5.9 9 6.9 9 6.9s-2.8 2-6.9 2C10.6 34 9 26.8 9 26.8z"/><path fill="#2979FF" d="M8,44v-2c4.7,0,8.6-1.6,11.6-4.7C24,32.7,26.3,25,26,16l2-0.1c0.4,9.5-2.2,17.8-6.9,22.7C17.7,42.2,13.3,44,8,44z"/></svg>