<svg xmlns="http://www.w3.org/2000/svg"  viewBox="0 0 48 48" width="1600px" height="1600px"><path fill="#767676" d="M9.691,14.851c0,0,3.766,0.83,5.777-0.128c0.798-0.383-0.223-0.67-0.191-1.085	s0.255-0.638,1.021-0.957c0.766-0.319,1.691-0.383,1.628,0.255c-0.064,0.638-0.064,0.989,0.734,0.862s4.628-1.628,5.266-2.234	c0.638-0.606,2.33,3.862,2.33,3.862l-3.734,5.394l-8.649,2.138l-6.702-3.16L9.691,14.851z"/><path fill="#767676" d="M31.638,17.404c0-3.607-1.495-6.861-3.893-9.19c-0.601,0.115-1.104,0.162-1.306,0.174	c-0.407,0.024-0.862-0.407-0.814-0.694s-0.455-0.622-1.34-0.407c-0.886,0.215-0.942,0.576-0.942,0.576l-0.04,0.075	c-0.053,0.099-0.032,0.096-0.032,0.096s0.546,0.367,0.535,0.665c-0.054,0.072-0.132,0.15-0.262,0.24	c-0.648,0.443-1.721,0.607-2.285,0.665c-0.209,0.021-0.36,0.177-0.403,0.375c-0.051,0.075-0.087,0.162-0.09,0.26	c-0.013,0.403,0.048,1.031,0.437,1.637c0.15,0.234,0.477,0.295,0.698,0.126c0.741-0.569,1.412-0.914,1.906-0.091	c0.183,0.305,0.242,0.607,0.183,0.857c-0.196,0.352-0.709,0.534-1.602,0.308c-0.272-0.069-0.545,0.103-0.604,0.368	c-0.047,0.066-0.083,0.141-0.091,0.228c-0.084,0.95,0.081,2.359,0.416,3.284c-1.208,0.236-3.985,0.631-5.188,1.265	c-0.099,0.052-0.153,0.15-0.163,0.253c-0.1,0.123-0.105,0.311,0.017,0.427c0.26,0.249,0.483,0.608,0.419,0.947	c-0.149,0.285-0.536,0.54-1.359,0.676c-1.287,0.212-1.485-0.246-1.307-0.752c0.076-0.151,0.172-0.3,0.283-0.431	c0.043-0.051,0.064-0.11,0.07-0.169c0.001-0.001,0.001-0.001,0.002-0.002c0.164-0.194,0.041-0.494-0.21-0.528	c-1.273-0.174-3.487-0.145-4.655,0.112c0,0-0.087-1.288,0.393-2.56c0.166-0.394,0.328-0.656,0.63-0.997	c0.234-0.234,0.581,0.133,0.793,0.416c0.132,0.175,0.427,0.082,0.608-0.04c0.234-0.158,0.516-0.429,0.666-0.841	c0.184-0.367,0.265-0.868,0.049-1.55c-0.066-0.207-0.729-0.525-0.939-0.47c-0.529,0.138-0.811,0.302-0.646-0.28	c0.029-0.06,0.051-0.116,0.097-0.185c0.498-0.755,0.957-1.424,1.224-2.101c0.111-0.251,0.204-0.503,0.255-0.759	c0.039-0.195-0.506-0.577-0.822-0.532c-0.153,0.045-0.135-0.054-0.12-0.123c0.033-0.059,0.076-0.124,0.132-0.196	c0.47-0.596,0.913-0.62,1.122-0.451c0.111,0.089,0.27,0.085,0.379-0.006c0.431-0.36,0.651-0.709,0.751-0.995	c0.234-0.475,0.142-0.823-0.015-0.815l-0.638-0.223c0,0-2.076,1.529-3.225,2.127C10.48,8.274,10.139,8.322,9.82,8.346	C9.422,8.742,9.043,9.157,8.678,9.584c-0.711,0.921-1.299,1.942-1.743,3.036c-0.763,1.804-1.129,3.816-0.97,5.934	c0.48,6.413,5.86,11.589,12.286,11.832c5.519,0.208,10.294-3.077,12.301-7.818C31.249,20.987,31.638,19.242,31.638,17.404z"/><path fill="#bebebe" d="M44.895,20.915h-0.01c-0.031-0.306-0.079-0.606-0.122-0.908c-0.034-0.237-0.066-0.474-0.108-0.707	c-0.066-0.366-0.14-0.729-0.224-1.089c-0.038-0.162-0.082-0.32-0.124-0.481c-0.206-0.792-0.45-1.569-0.744-2.322	c-0.006-0.016-0.012-0.033-0.018-0.05c-0.163-0.416-0.341-0.824-0.529-1.227c-0.022-0.047-0.045-0.093-0.067-0.14	c-0.589-1.234-1.293-2.403-2.101-3.491l-0.733,0.273c-0.39-0.526-0.906-1.126-1.46-1.724c0.099-0.39-0.14-0.931-0.648-1.334	c-0.365-0.289-0.764-0.418-1.099-0.41c-0.822-0.756-1.564-1.348-1.963-1.509c-0.219,0.027-0.698,0.123-1.298,0.259	c1.258,0.754,0.609,1.473,0.412,1.52c-0.232,0.055-1.053,0.112-1.695-1.211c-1.295,0.328-2.698,0.732-3.331,1.036	c-0.827,0.397-1.851,0.597-2.545,0.692C27.441,9.672,28,11.519,28,13.5C28,19.299,23.299,24,17.5,24S7,19.299,7,13.5	c0-1.3,0.247-2.54,0.68-3.69c-0.087,0.113-0.175,0.225-0.263,0.338c-0.228,0.293-0.455,0.587-0.667,0.892	c-0.163,0.235-0.314,0.478-0.468,0.72c-0.188,0.295-0.372,0.592-0.545,0.897c-0.147,0.258-0.285,0.522-0.421,0.787	C5.16,13.748,5.011,14.057,4.87,14.37c-0.125,0.276-0.246,0.555-0.359,0.837c-0.127,0.318-0.242,0.642-0.354,0.968	c-0.099,0.288-0.2,0.576-0.287,0.87c-0.1,0.34-0.182,0.687-0.266,1.034c-0.07,0.29-0.148,0.578-0.205,0.872	c-0.079,0.403-0.132,0.815-0.187,1.226c-0.033,0.246-0.081,0.488-0.106,0.737l0,0C3.038,21.601,3,22.296,3,23	c0,11.598,9.402,21,21,21s21-9.402,21-21C45,22.296,44.962,21.601,44.895,20.915z"/><path fill="#e1e1e1" d="M33.811,6.018c-0.056,0.012-0.106,0.023-0.164,0.036c1.258,0.754,0.609,1.473,0.412,1.52	c-0.232,0.055-1.053,0.112-1.695-1.211c-1.295,0.328-2.698,0.732-3.331,1.036c-0.827,0.397-1.851,0.597-2.545,0.692	C27.441,9.672,28,11.519,28,13.5C28,19.299,23.299,24,17.5,24S7,19.299,7,13.5c0-1.294,0.245-2.529,0.674-3.674	c-3.017,3.808-4.637,8.773-4.04,14.13c0.984,8.827,8.123,15.959,16.953,16.924C32.186,42.149,42,33.098,42,21.755	C42,15.245,38.758,9.501,33.811,6.018z"/><path fill="#efefef" d="M30.713,6.812c-0.166,0.049-0.327,0.098-0.482,0.146c-0.015,0.005-0.03,0.009-0.045,0.014	c-0.135,0.043-0.263,0.085-0.386,0.127c-0.026,0.009-0.053,0.018-0.079,0.027c-0.11,0.038-0.211,0.076-0.307,0.112	c-0.026,0.01-0.055,0.02-0.079,0.03c-0.114,0.045-0.217,0.089-0.304,0.13c-0.827,0.397-1.851,0.597-2.545,0.692	C27.441,9.672,28,11.519,28,13.5C28,19.299,23.299,24,17.5,24S7,19.299,7,13.5c0-1.289,0.243-2.518,0.668-3.658	C7.604,9.92,7.544,9.993,7.492,10.056c-2.327,3.183-3.549,7.223-3.036,11.575c0.88,7.465,6.938,13.472,14.411,14.273	C28.694,36.956,37,29.283,37,19.67C37,14.443,34.534,9.801,30.713,6.812z"/><path fill="#f5f5f5" d="M27.107,7.991c-0.601,0.115-1.104,0.162-1.306,0.174c-0.407,0.024-0.862-0.407-0.814-0.694	s-0.455-0.622-1.34-0.407c-0.886,0.215-1.029,0.838-1.029,0.838s1.197,0.192,0.287,0.814c-0.648,0.443-1.721,0.607-2.285,0.665	c-0.24,0.025-0.413,0.223-0.421,0.464c-0.013,0.403,0.048,1.031,0.437,1.637c0.15,0.234,0.477,0.295,0.698,0.126	c0.741-0.569,1.412-0.914,1.906-0.091c0.522,0.869,0.096,1.738-1.491,1.336c-0.292-0.074-0.596,0.125-0.622,0.425	c-0.088,0.998,0.092,2.517,0.462,3.433c-1.143,0.233-4.067,0.634-5.306,1.287c-0.187,0.098-0.226,0.363-0.073,0.509	c0.531,0.508,0.923,1.475-1.012,1.794c-1.813,0.299-1.481-0.73-0.952-1.355c0.164-0.194,0.041-0.494-0.21-0.528	c-1.273-0.174-3.487-0.145-4.655,0.112c0,0-0.168-2.37,1.149-3.854c0.234-0.234,0.58,0.133,0.793,0.416	c0.132,0.175,0.373,0.208,0.554,0.086c0.432-0.291,1.045-0.95,0.643-2.219c-0.066-0.207-0.294-0.301-0.504-0.246	c-0.622,0.163-1.519,0.059-0.912-0.861c0.641-0.972,1.229-1.801,1.408-2.688c0.039-0.195-0.148-0.355-0.346-0.33	c-0.465,0.058-0.874-0.079-0.392-0.692c0.47-0.597,0.913-0.62,1.122-0.451c0.111,0.089,0.27,0.085,0.379-0.007	c1.004-0.84,0.903-1.65,0.662-1.638l-1.589,0.181c0,0-1.125,1.125-2.274,1.723c-0.232,0.1-0.573,0.149-0.892,0.173	C8.784,8.519,8.405,8.933,8.039,9.36c-1.856,2.403-2.89,5.473-2.641,8.798c0.48,6.413,5.86,11.589,12.287,11.832	C24.991,30.266,31,24.425,31,17.181C31,13.574,29.505,10.32,27.107,7.991z"/><path fill="#404040" d="M32.814,34.471c0,0-0.335,0.646-0.144,0.934c0.622,0,1.436,0,1.436,0s0.311,1.293-0.191,2.705	c0.311-0.239,0.551-0.574,0.551-0.574s0.359-1.915,0.263-2.992C34.178,34.566,32.814,34.471,32.814,34.471z"/><path fill="#767676" d="M42.652,30.306c-0.455,0.383-1.077,1.34-1.077,1.34l1.34-0.886 C42.915,30.761,43.106,29.923,42.652,30.306z"/><path fill="#767676" d="M41.359,32.699c0,0,0.407-0.287,0.694-0.431c-0.168,0.933-0.886,1.316-0.886,1.316 s0,0.144,0.024,0.742c1.317-0.957,1.46-2.992,1.46-2.992l-1.364,0.91L41.359,32.699z"/><path fill="#404040" d="M35.579,28.748l-0.578,0.12c-0.117-0.603-0.519-2.628-0.781-3.488l0.581-0.401l-0.048-0.215	l-2.035,0.79l0.036,0.156l0.771-0.093c0.027,0.102,0.06,0.226,0.097,0.372c-0.238,0.567-0.985,2.331-1.403,3.152	c-0.176-0.866-0.441-2.115-0.633-2.743l0.581-0.401l-0.048-0.215l-2.035,0.79l0.036,0.156l0.771-0.093	c0.171,0.647,0.596,2.294,0.793,3.469L31.119,30.4l0.064,0.202l1.852-0.677l-0.075-0.154l-0.595,0.103	c-0.018-0.093-0.042-0.215-0.072-0.364c0.519-0.962,1.147-2.396,1.422-3.156c0.202,0.799,0.466,1.911,0.608,2.765l-0.564,0.319	l0.071,0.2l1.828-0.738L35.579,28.748z"/><path fill="#404040" d="M18.5,31.638l-0.638-0.447c0,0,0.048,0.941-0.782,1.867C17.638,32.755,18.5,31.638,18.5,31.638z"/><path fill="#404040" d="M20.72,34.769l-1.124-0.012l-0.18-0.662l0.537-0.067c0.068-0.009,0.117-0.071,0.108-0.14 s-0.063-0.127-0.14-0.108l-0.572,0.073l-0.158-0.578l0.613-0.06c0.069-0.006,0.119-0.067,0.112-0.136 c-0.006-0.069-0.069-0.128-0.136-0.112l-0.656,0.064l-0.114-0.419l0.067-0.172l0.693-0.054c0.068-0.006,0.12-0.065,0.115-0.135 c-0.007-0.068-0.074-0.122-0.135-0.115l-0.572,0.045l0.23-0.59l-0.223-0.239l-0.339,0.88l-1.017,0.425 c-0.057,0.023-0.088,0.084-0.074,0.144l0.341,1.467c-0.001,0.013-0.008,0.025-0.005,0.039c0.002,0.007,0.013,0.006,0.016,0.012 l0.189,0.811c0.014,0.058,0.065,0.097,0.122,0.097c0.008,0,0.017-0.001,0.025-0.003l1.058-0.22l1.213,0.016 c0.001,0,0.001,0,0.002,0c0.068,0,0.124-0.055,0.125-0.123C20.844,34.826,20.788,34.77,20.72,34.769z M18.023,32.846l0.699-0.292 l-0.047,0.122l0.124,0.448l-0.633,0.339L18.023,32.846z M18.318,34.112l-0.092-0.396l0.642-0.345l0.15,0.542L18.318,34.112z M18.374,34.355l0.71-0.202l0.179,0.647l-0.75,0.154L18.374,34.355z"/><path fill="#404040" d="M16.694,34.131l-0.232-0.418l0.411-0.226l0.516,0.272c0.063,0.033,0.137,0.009,0.169-0.052 c0.032-0.062,0.009-0.137-0.052-0.169l-0.575-0.304c-0.037-0.02-0.08-0.021-0.119,0.001l-0.497,0.273 c-0.035-0.016-0.074-0.021-0.109-0.001c-0.036,0.02-0.052,0.055-0.057,0.093l-0.288,0.158l-0.088-0.013l1.201-1.651 c0.041-0.056,0.028-0.134-0.027-0.174c-0.054-0.041-0.133-0.029-0.174,0.027l-0.69,0.947l-0.588-0.259l0.78-1.186 c0.038-0.058,0.021-0.135-0.036-0.173c-0.056-0.038-0.135-0.022-0.173,0.036l-0.861,1.309c-0.021,0.03-0.025,0.068-0.016,0.104 c0.011,0.035,0.036,0.064,0.069,0.079l0.674,0.297l-0.484,0.665c-0.026,0.035-0.031,0.081-0.015,0.122 c0.018,0.04,0.054,0.068,0.098,0.075l0.335,0.048c0.006,0.001,0.012,0.001,0.018,0.001c0.021,0,0.042-0.005,0.061-0.016l0.3-0.165 l0.223,0.4l0.172,1.001c0.011,0.061,0.063,0.104,0.123,0.104c0.007,0,0.014-0.001,0.021-0.002c0.067-0.012,0.113-0.076,0.102-0.145 l-0.176-1.021C16.706,34.156,16.701,34.143,16.694,34.131z"/><path fill="#404040" d="M17.121,34.201c-0.058-0.04-0.135-0.029-0.175,0.028c-0.04,0.056-0.027,0.134,0.028,0.175 l0.75,0.543c0.022,0.016,0.048,0.023,0.073,0.023c0.039,0,0.077-0.018,0.102-0.052c0.04-0.056,0.027-0.134-0.028-0.175 L17.121,34.201z"/><path fill="#404040" d="M16.006,34.402c-0.003-0.001-0.007-0.001-0.011-0.001c-0.064,0-0.119,0.049-0.124,0.114 l-0.064,0.719c-0.007,0.068,0.044,0.129,0.113,0.135c0.003,0.001,0.007,0.001,0.011,0.001c0.064,0,0.119-0.049,0.124-0.114 l0.064-0.719C16.126,34.469,16.075,34.408,16.006,34.402z"/><path fill="#404040" d="M22.869,41.015c0,0,0.001,0.013,0.002,0.021c-0.069-0.162-0.224-0.358-0.529-0.592	c-0.89-0.686-2.033-1.064-3.306-1.095l-0.038-0.001c-0.013,0-0.026-0.001-0.039-0.001c-0.342,0-0.625,0.153-0.668,0.365	c-0.021,0.106,0,0.306,0.387,0.452c0.367,0.14,0.637,0.149,0.807,0.032c0.156-0.107,0.161-0.274,0.161-0.293	c0-0.068-0.043-0.129-0.125-0.123c-0.066,0-0.122,0.054-0.125,0.12c0,0.006-0.004,0.059-0.056,0.092	c-0.044,0.029-0.192,0.084-0.573-0.063c-0.179-0.067-0.236-0.139-0.23-0.168c0.012-0.061,0.186-0.16,0.453-0.164l0.04,0.001	c1.202,0.028,2.324,0.398,3.16,1.042c0.372,0.286,0.542,0.539,0.455,0.676c-0.151,0.241-1.028,0.282-1.822-0.12	c-0.042-0.021-0.091-0.017-0.13,0.01c-0.038,0.027-0.057,0.073-0.05,0.12c0.015,0.1-0.042,0.2-0.155,0.273	c-0.242,0.158-0.761,0.194-1.428-0.223c-0.086-0.053-0.129-0.122-0.122-0.194c0.008-0.073,0.065-0.138,0.15-0.169	c0.186-0.063,0.439,0.035,0.681,0.271c0.049,0.05,0.128,0.048,0.177-0.001c0.048-0.05,0.047-0.129-0.002-0.177	c-0.451-0.442-0.808-0.378-0.94-0.328c-0.176,0.063-0.296,0.208-0.313,0.378c-0.015,0.147,0.063,0.282,0.19,0.383	c-0.004-0.001-0.008-0.002-0.012-0.003c0.007,0.005,0.013,0.007,0.02,0.012c0.016,0.012,0.022,0.03,0.04,0.04	c0.124,0.078,0.243,0.138,0.358,0.19c1.174,0.607,1.965,0.203,1.592-0.281c0.122,0.052,0.247,0.094,0.371,0.13	C22.626,42.182,23.356,41.686,22.869,41.015z"/><path fill="#404040" d="M17.607,24.522l-0.282,0.603l-1.038,0.205l-0.023-0.313c0.606-0.367,1.02-0.98,0.99-1.664	c-0.045-1.044-1.006-1.754-2.169-1.704s-2.088,1.03-2.043,2.074c0.036,0.842,0.652,1.42,1.497,1.588l0.077,0.295l-1.048,0.143	l-0.463-0.479l-0.112,0.128l0.399,0.941L15,26.111l-0.167-0.935c-0.678-0.098-1.191-0.648-1.226-1.465	c-0.04-0.929,0.602-1.794,1.419-1.829c0.817-0.035,1.498,0.604,1.538,1.533c0.026,0.59-0.234,1.131-0.636,1.457l0.018,0.119h-0.001	l0.145,0.939l1.594-0.304l0.072-1.02L17.607,24.522z"/><path fill="#404040" d="M7.943,32.859c-0.174-0.253-0.333-0.581-0.471-0.923c0.002-0.012,0.012-0.019,0.013-0.032	c0.005-0.053-0.029-0.093-0.075-0.115c-0.056-0.149-0.099-0.295-0.143-0.444c0.029-0.001,0.058-0.008,0.082-0.028	c0.051-0.046,0.055-0.125,0.009-0.177c-0.047-0.052-0.113-0.11-0.19-0.166c-0.032-0.149-0.055-0.292-0.068-0.425	c0.092,0.017,0.183,0.038,0.278,0.049c0.005,0.001,0.01,0.001,0.015,0.001c0.063,0,0.116-0.047,0.124-0.11	c0.009-0.068-0.04-0.131-0.109-0.139c-0.12-0.014-0.236-0.039-0.353-0.063c-0.15-0.731-0.87-1.334-1.424-1.734	c-0.304-0.219-0.476-0.162-0.566-0.077c-0.189,0.175-0.134,0.622,0.001,0.987c-0.044-0.028-0.074-0.048-0.076-0.049	c-0.057-0.041-0.135-0.026-0.174,0.031c-0.039,0.057-0.025,0.135,0.031,0.174c0.016,0.011,0.169,0.114,0.408,0.247	c0.292,0.594,0.75,2.561,0.754,2.583c0.017,0.066,0.078,0.108,0.15,0.094c0.067-0.016,0.109-0.083,0.094-0.15	c-0.018-0.075-0.36-1.548-0.654-2.346c0.338,0.164,0.765,0.337,1.239,0.452c0.007,0.097,0.033,0.211,0.051,0.318	c-0.18-0.079-0.37-0.116-0.511-0.039C6.262,30.842,6.144,31,6.25,31.386c0.015,0.056,0.065,0.092,0.12,0.092	c0.011,0,0.021-0.001,0.033-0.005c0.066-0.018,0.105-0.087,0.087-0.153c-0.046-0.171-0.043-0.294,0.008-0.322	c0.081-0.039,0.271,0.027,0.444,0.133c0.063,0.263,0.153,0.533,0.256,0.8c-0.004,0.001-0.003,0.009-0.008,0.01	c-0.143,0.021-0.446-0.131-0.549-0.326c-0.031-0.062-0.107-0.084-0.168-0.053c-0.062,0.031-0.085,0.107-0.053,0.168	c0.133,0.255,0.476,0.464,0.736,0.464c0.028,0,0.056-0.003,0.082-0.008c0.022-0.004,0.034-0.022,0.054-0.03	c0.134,0.314,0.282,0.613,0.444,0.848c0.024,0.035,0.063,0.054,0.103,0.054c0.024,0,0.05-0.007,0.071-0.022	C7.969,32.994,7.982,32.916,7.943,32.859z M5.426,29.642c-0.21-0.343-0.295-0.887-0.19-0.983c0.018-0.013,0.09-0.019,0.25,0.098	c0.731,0.527,1.143,1.007,1.285,1.462c-0.531-0.145-1.002-0.361-1.325-0.535C5.439,29.672,5.432,29.652,5.426,29.642z"/><path fill="#404040" d="M6.555,21.737v-0.299l-0.41-0.131c-0.018-0.175-0.116-0.903-0.549-1.052	c-0.422-0.145-0.632,0.106-0.611-0.625c-0.058,0-0.16-0.015-0.16-0.015c-0.077,0.363-0.095,0.757,0.187,0.961	c0.247,0.179,0.783-0.103,0.883,0.651l-1.181-0.376L4.569,20.66l-0.016,0.479l0.601,0.18c-0.077,0.436-0.183,1.278,0.06,1.652	c0.144,0.112,0.179,0.159,0.371-0.108c0.215-0.299,0.245-0.191,0.261-0.032c0.016,0.16-0.016,0.878-0.463,0.782	s-0.638-0.415-0.734-2.186c-0.048,1.612-0.016,2.505,0.702,2.697c0.718,0.192,0.83-0.846,0.638-1.771	c-0.192-0.926-0.456,0.164-0.584,0.211c-0.107,0.04-0.106-0.69-0.075-1.192L6.555,21.737z"/><path fill="#404040" d="M7.186,15.228c-0.072-0.153,0.342-0.514,0.342-0.514l0.009-0.82l-0.559,0.559 c0,0-0.442,0.009-0.676,0.036c0.37-0.387,0.342-0.91-0.081-0.505c-0.424,0.406-0.55,0.946-0.55,0.946l1.162-0.099l0.568-0.604 v0.261c0,0-0.18,0.207-0.351,0.397c-0.189,0.73,0.37,0.694,0.37,0.694l0.487-0.46l0.045-0.306L7.52,15.291 C7.519,15.291,7.258,15.381,7.186,15.228z M5.96,14.507c0,0,0.171-0.351,0.315-0.378s0.162,0.117-0.099,0.36 C6.095,14.498,5.96,14.507,5.96,14.507z"/><path fill="#404040" d="M8.42,12.948l-0.73,1.874c0,0,0.892-0.577,1.09-1.28C8.979,12.84,8.42,12.948,8.42,12.948z M8.555,13.588C8.429,13.957,8.051,14.3,8.051,14.3l0.414-1.009C8.465,13.291,8.682,13.219,8.555,13.588z"/><path fill="#404040" d="M11.34,7.185c-0.053-0.045-0.132-0.039-0.176,0.014c-0.041,0.047-0.648,0.76-1.148,1.411	C9.939,8.626,9.795,8.656,9.643,8.691c0.11-0.15,0.245-0.296,0.308-0.359C10,8.283,10,8.204,9.952,8.155	c-0.049-0.049-0.128-0.049-0.177,0C9.758,8.171,9.384,8.547,9.269,8.838C9.251,8.882,9.26,8.933,9.292,8.968	C9.315,8.995,9.35,9.009,9.385,9.009c0.011,0,0.022-0.001,0.033-0.004c0.106-0.029,0.244-0.061,0.371-0.089	C9.588,9.19,9.427,9.433,9.375,9.57C9.358,9.616,9.369,9.667,9.403,9.702c0.034,0.034,0.087,0.045,0.132,0.03	C9.6,9.708,9.678,9.691,9.751,9.681l-0.195,0.34c-0.034,0.06-0.014,0.136,0.046,0.17c0.02,0.011,0.041,0.017,0.063,0.017	c0.043,0,0.085-0.022,0.108-0.063l0.315-0.55c0.022-0.039,0.022-0.087-0.001-0.126c-0.023-0.039-0.068-0.07-0.111-0.061	c-0.008,0-0.113,0.004-0.242,0.022c0.107-0.169,0.271-0.392,0.453-0.63c0.007-0.008,0.012-0.013,0.017-0.022	c0.402-0.524,0.897-1.12,1.151-1.417C11.398,7.309,11.393,7.23,11.34,7.185z"/><path fill="#404040" d="M30.723,16.252l-1.087,0.294l0.066,0.132l0.163-0.008c0.176,0.036,0.292,0.099,0.287,0.219	l-0.219,2.669l-1.087-1.187l0.273-1.242c0.031-0.156,0.128-0.255,0.269-0.316l0.175-0.075l-0.072-0.156l-1.153,0.294l0.078,0.144	l0.239-0.015c0.149,0.082,0.232,0.184,0.194,0.321l-0.17,0.862l-0.701-0.765c-0.081-0.095-0.061-0.177,0.016-0.251l0.235-0.115	l-0.084-0.144l-1.305,0.323l0.108,0.144l0.304-0.016c0.052,0.021,0.104,0.051,0.155,0.101l1.157,1.307l-0.245,1.242l-1.88-2.242	c-0.022-0.033-0.017-0.071-0.002-0.112l0.355-0.197L26.68,17.31l-1.503,0.406l0.072,0.108l0.283,0.004	c0.156,0.021,0.291,0.071,0.389,0.176l2.316,2.761l0.09-0.03l0.393-1.786l1.199,1.354l0.096-0.054l0.402-3.418	c0.013-0.175,0.124-0.293,0.283-0.384l0.083-0.042L30.723,16.252z"/><path fill="#404040" d="M40.64,13.838c-0.455-0.539-0.73,0.012-0.634,0.718s1.065,1.58,1.065,1.58	c-0.215,1.496-1.879,0.132-2.442-0.862c0.491,1.604,2.082,2.729,2.561,1.843C41.669,16.231,41.094,14.376,40.64,13.838z M40.4,14.747c-0.203-0.443,0.12-0.467,0.299-0.156s0.239,0.407,0.335,0.814C41.035,15.406,40.604,15.19,40.4,14.747z"/><path fill="#404040" d="M37.6,8.895c-0.275-0.18-0.73-0.778-0.73-0.778l-0.44,0.377c-0.324-0.3-0.672-0.574-0.864-0.677	c-0.215-0.096-0.778,0.12-0.73,0.12c0,0-0.694,0.227-0.371,1.089c0.323,0.862,1.017,1.484,1.017,1.484s0.706,0.694,1.221-0.335	c0.467-0.251,0.658-0.491,0.395-0.934C37,9.076,36.811,8.862,36.595,8.649c0.048-0.054,0.113-0.127,0.18-0.21	C37.085,8.955,37.384,9.063,37.6,8.895z M35.972,10.283c-0.347-0.299-1.041-1.424-1.245-1.699c-0.203-0.275,0.024-0.443,0.024-0.443	s1.484,1.723,1.735,2.13C36.427,10.367,36.319,10.582,35.972,10.283z M36.81,9.457c0.168,0.287,0.156,0.395-0.072,0.503	c-0.239-0.515-1.699-1.987-1.699-1.987s0.144-0.156,0.407,0.048C35.709,8.225,36.642,9.17,36.81,9.457z"/><path fill="#404040" d="M25.911,9.389c-0.054,0.153-0.369,0.234-0.369,0.234l-0.394,0.112l-0.165-0.274l0.081-0.171 l-0.523-0.045l-0.189,0.189l0.279,0.045l0.137,0.364l-0.746,0.212c-0.209-0.124-0.499,0.001-0.499,0.001s-0.018,0.108,0.054,0.099 s0.216,0.126,0.216,0.126s0.144,0.261,0.297,0.595c0.153,0.333,0.523,0.189,0.523,0.189s-0.251-0.539-0.438-0.857l1.727-0.522 c0.261,1.289-0.27,1.874-0.667,2.577c1.541-1.081,1.198-2.46,1.198-2.46s0.009-0.099,0.054-0.189 C26.407,9.524,26.19,9.461,25.911,9.389z"/><path fill="#404040" d="M28.056,11.461l-0.351-0.703l0.054-0.216l-0.138,0.008c0.124-0.178,0.23-0.377,0.282-0.62 c-0.126-0.108-0.541-0.117-0.541-0.117l0.09,0.117c0,0-0.081,0.856-0.793,1.433c0.201-0.108,0.495-0.291,0.755-0.558l0.381,0.693 c0,0-0.036-0.009-0.054,0.144c0.144,0.153,0.351,0.135,0.351,0.135L28.056,11.461z"/><g><path fill="#404040" d="M42.592,23.709c0.01,0.001,0.021,0.001,0.03,0.001c0.269,0,0.501-0.338,0.546-0.805l0,0 c0.047-0.485-0.131-0.872-0.413-0.899c-0.009-0.001-0.02,0.007-0.03,0.008l-0.017-0.109l-0.18-0.09l0.048,0.239 c-0.08,0.039-0.157,0.1-0.22,0.198c-0.094,0.147-0.156,0.346-0.176,0.559C42.132,23.295,42.31,23.682,42.592,23.709z M42.566,22.386c0.052-0.082,0.112-0.131,0.158-0.131c0.002,0,0.005,0,0.007,0c0.1,0.01,0.223,0.259,0.188,0.626 c-0.035,0.36-0.197,0.579-0.298,0.579c-0.002,0-0.004,0-0.007,0c-0.1-0.01-0.223-0.258-0.188-0.626 C42.444,22.663,42.495,22.499,42.566,22.386z"/><path fill="#404040" d="M43.672,24.429c0,0-0.036-2.289-0.216-3.109c-0.18-0.009-0.424-0.045-0.424-0.045v0.189l0.27,0.225 c0,0,0.099,0.825,0.168,1.772c-0.191,0.2-0.778,0.811-0.988,0.976c-0.252,0.198-0.667,0.144-0.667,0.144 c0.144,0.261,0.442,0.288,0.442,0.288s0.153-0.18,0.252-0.234c0.069-0.042,0.147-0.106,0.227-0.176 c0.007,0.233,0.043,1.359,0.043,1.545c0.081-0.234,0.18-0.55,0.162-0.865c-0.013-0.226-0.017-0.638-0.018-0.856 c0.23-0.228,0.449-0.482,0.561-0.617c0.05,0.754,0.076,1.552,0.016,2.058C43.609,25.249,43.672,24.429,43.672,24.429z"/></g><path fill="#404040" d="M10.085,37.953c0,0-0.443-0.263-0.586-0.527c-0.144-0.263,0.203-0.359,0.61,0.084	s0.73,0.766,0.395,0.766c0.108,0.084,0.191,0.191,0.191,0.191s0.515,0.096,0.778,0.371c0.263,0.275,0.79,0.778,0.79,0.778	s0.18,0.275-0.275,0.132c0.072,0.096,0.144,0.191,0.144,0.191s0.91,0.227,0.251-0.467c-0.658-0.694-1.185-0.934-1.532-1.065	c0,0,0.096-0.335-0.156-0.586c-0.251-0.251-0.574-0.586-1.173-0.826c-0.598-0.239-0.215,0.323-0.108,0.467	c0.108,0.144,0.658,0.563,0.658,0.563L10.085,37.953z"/><path fill="#767676" d="M31.364,41.83c-0.11,0-0.228-0.03-0.275-0.13c-0.084-0.178,0.133-0.35,0.332-0.48	c0.597-0.391,1.106-0.464,1.3-0.332c0.051,0.033,0.079,0.087,0.077,0.146c0,0.005,0,0.01-0.001,0.015l0.221-0.082l0.447-0.55	c0.043-0.054,0.121-0.063,0.176-0.018c0.054,0.043,0.062,0.122,0.018,0.176l-0.469,0.576c-0.014,0.017-0.032,0.03-0.053,0.038	l-0.847,0.315c-0.063,0.021-0.129-0.006-0.157-0.064c-0.027-0.059-0.005-0.129,0.052-0.161c0.115-0.065,0.229-0.145,0.301-0.203	c-0.13-0.006-0.354,0.041-0.642,0.187c0.112,0.016,0.139,0.064,0.152,0.09c0.016,0.029,0.043,0.106-0.037,0.192	c-0.125,0.137-0.227,0.2-0.414,0.26C31.5,41.818,31.434,41.83,31.364,41.83z M31.361,41.58c0.021,0.002,0.074-0.003,0.108-0.014	c0.05-0.017,0.091-0.031,0.125-0.049c-0.033-0.008-0.063-0.029-0.08-0.06C31.437,41.512,31.39,41.552,31.361,41.58z"/><path fill="#767676" d="M33.651,40.954c-0.025,0-0.051-0.008-0.073-0.023c-0.056-0.04-0.068-0.118-0.028-0.175	c0.085-0.118,0.276-0.397,0.402-0.618c-0.204,0.055-0.438,0.146-0.514,0.27c-0.024,0.041-0.028,0.08-0.011,0.128	c0.022,0.065-0.012,0.137-0.076,0.16c-0.066,0.024-0.137-0.012-0.16-0.076c-0.042-0.119-0.03-0.237,0.033-0.342	c0.204-0.334,0.903-0.434,0.934-0.438c0.035-0.007,0.086,0.011,0.113,0.045c0.027,0.033,0.036,0.079,0.021,0.12	c-0.096,0.275-0.521,0.872-0.54,0.897C33.729,40.936,33.69,40.954,33.651,40.954z"/><g><path fill="#bebebe" d="M3.875,26.167c0.139,0.09,0.395,0.255,0.606,0.104c0.233-0.167,0.163-0.498-0.005-1.172 c-0.052-0.208-0.031-0.317,0.003-0.348c0.063-0.058,0.291-0.041,0.496,0.035c0.132,0.051,0.5,0.308,0.614,0.579 c0.051,0.119,0.03,0.192,0.011,0.236c-0.26,0.595-0.117,1.41,0.333,1.898c0.46,0.499,1.972,0.875,3.159,0.777 c0.029-0.003,0.071-0.006,0.103-0.009c-0.024,0.457-0.059,0.894-0.103,1.266c-0.116,0.974,0.383,2.159,1.091,2.59 c0.351,0.214,0.713,0.216,1.021,0.009c0.421-0.286,0.764-0.386,1.008-0.305c0.252,0.084,0.462,0.369,0.626,0.849 c0.23,0.675,0.112,0.896,0.051,0.96c-0.094,0.097-0.307,0.107-0.572,0.028l-0.146-0.045c-0.521-0.164-1.307-0.409-1.754-0.028 c-0.244,0.206-0.335,0.548-0.271,1.017c0.054,0.392,0.248,0.839,0.507,1.297c-0.966-0.297-1.612-0.818-1.649-1.005 c-0.117-0.585-0.517-0.913-1.314-1.387c-0.347-0.207-0.609-0.22-0.777-0.041c-0.143,0.15-0.144,0.378-0.086,0.608 c-0.468-0.396-1.033-0.972-1.402-1.381l-0.028,0.025c0.283,0.54,0.593,1.063,0.92,1.574c0.382,0.338,0.767,0.629,1.036,0.701 c0.1,0.026,0.207-0.011,0.268-0.096c0.061-0.084,0.063-0.198,0.005-0.284c-0.211-0.315-0.312-0.601-0.333-0.747 c0.034,0.014,0.081,0.036,0.141,0.071c0.765,0.454,1.006,0.69,1.079,1.055c0.097,0.484,1.134,1.249,2.521,1.519 c0.591,0.867,1.348,1.714,1.903,2.263c-0.2,0.048-0.341,0.152-0.407,0.311c-0.098,0.229-0.057,0.61,0.691,1.117 c0.943,0.638,1.642,0.882,2.077,0.737c0.093-0.031,0.174-0.08,0.24-0.145c0.123,0.086,0.254,0.18,0.391,0.277 c0.69,0.492,1.54,1.099,2.258,1.402c0.193,0.475,1.196,0.886,2.356,1.212C21.67,43.879,22.82,44,24,44 c0.141,0,0.278-0.018,0.419-0.021c-3.9-0.583-5.683-1.371-5.766-1.654c0.013-0.113-0.053-0.221-0.159-0.261 c-0.684-0.259-1.565-0.889-2.274-1.395c-0.22-0.157-0.426-0.304-0.61-0.43c-0.065-0.044-0.146-0.057-0.221-0.029 c-0.074,0.024-0.133,0.083-0.157,0.157c-0.021,0.066-0.053,0.089-0.094,0.103c-0.196,0.071-0.738-0.069-1.635-0.678 c-0.42-0.284-0.511-0.475-0.519-0.499c0.021-0.021,0.178-0.085,0.551-0.006c0.111,0.02,0.225-0.032,0.275-0.135 c0.05-0.103,0.024-0.227-0.063-0.301c-0.458-0.391-1.328-1.297-2.035-2.249c0.205,0.013,0.413,0.02,0.627,0.007 c1.916-0.12,3.958,0.082,4.203,0.176c0.091,0.035,0.15,0.085,0.176,0.148c0.037,0.095,0.012,0.244-0.072,0.421 c-0.131,0.274-0.104,0.584,0.075,0.849c0.289,0.429,0.92,0.665,1.753,0.665c0.091,0,0.184-0.003,0.279-0.008 c0.761-0.046,2.063-0.213,2.231-0.818c0.038-0.137,0.046-0.405-0.333-0.667c-0.283-0.195-0.443-0.389-0.43-0.518 c0.014-0.127,0.211-0.279,0.526-0.409c0.737-0.302,2.497-0.82,4.258-1.076c0.516,0.929,1.364,1.495,1.902,1.845 c0.151,0.099,0.323,0.251,0.284,0.42c-0.061,0.258-0.55,0.582-1.182,0.654c-0.164,0.019-0.341,0.032-0.523,0.046 c-0.985,0.077-2.336,0.184-2.259,1.297c0.028,0.407,0.227,0.723,0.572,0.91c0.582,0.316,1.538,0.212,2.383-0.254 c1.143-0.632,1.491-0.473,1.842,0.123c0.393,0.667,0.118,1.221-0.081,1.42c-0.057,0.057-0.083,0.138-0.07,0.217 c0.014,0.079,0.063,0.147,0.136,0.184c0.054,0.028,0.557,0.255,1.517-0.11c0.324-0.122,0.449-0.105,0.465-0.114 c0.001,0.031-0.015,0.134-0.119,0.298c-0.206,0.329-1.041,0.607-1.643,0.315c-0.063-0.029-0.134-0.032-0.199-0.008 c-0.064,0.025-0.115,0.076-0.142,0.141c-0.14,0.35-0.512,0.748-0.756,0.985c0.264-0.04,0.531-0.071,0.792-0.121 c0.118-0.144,0.232-0.299,0.321-0.456c0.78,0.238,1.734-0.088,2.051-0.589c0.226-0.358,0.258-0.669,0.09-0.874 c-0.271-0.333-0.848-0.117-1.037-0.044c-0.349,0.132-0.614,0.169-0.799,0.171c0.198-0.396,0.301-0.998-0.093-1.668 c-0.626-1.063-1.458-0.892-2.516-0.307c-0.692,0.381-1.475,0.484-1.902,0.253c-0.193-0.105-0.296-0.271-0.313-0.507 c-0.039-0.574,0.722-0.679,1.8-0.763c0.188-0.015,0.371-0.029,0.541-0.049c0.698-0.079,1.476-0.461,1.611-1.035 c0.048-0.205,0.047-0.601-0.498-0.955c-0.602-0.391-1.231-0.848-1.645-1.492c0.353-0.04,0.702-0.071,1.038-0.082 c2.5-0.08,4.501-0.497,5.49-1.142c0.332-0.217,0.548-0.411,0.521-0.66c-0.026-0.255-0.278-0.353-0.502-0.438 c-0.15-0.059-0.339-0.131-0.399-0.227c-0.033-0.054-0.033-0.146,0.001-0.259c0.114-0.381,0.606-0.942,1.23-1.222 c0.753-0.337,1.953-0.518,2.279-0.245c0.032,0.026,0.105,0.088,0.057,0.293c-0.155,0.649-0.2,1.104,0.055,1.362 c0.236,0.239,0.618,0.189,0.962,0.113c0.506-0.116,2.103-1.028,3.694-2.278c0.071,0.36,0.076,0.767-0.036,1.251 c-0.266,1.145-0.611,1.553-0.854,1.694c-0.193,0.111-0.364,0.085-0.522,0.038c-0.19-0.059-0.444-0.008-0.714,0.139 c-0.473,0.259-0.848,0.735-1.002,1.276c-0.146,0.514-0.016,0.98,0.333,1.189c0.134,0.078,0.414,0.184,0.839,0.029 c-1.165,1.85-2.506,3.654-4.693,5.388c-0.334,0.265-0.638,0.501-0.919,0.716c0.746-0.326,1.463-0.702,2.161-1.109 c2.065-1.853,3.309-3.769,4.489-5.729c0.065-0.107,0.04-0.247-0.059-0.325c-0.1-0.078-0.238-0.071-0.33,0.018 c-0.618,0.604-1.048,0.694-1.231,0.583c-0.146-0.087-0.19-0.338-0.109-0.623c0.176-0.614,0.627-0.901,0.762-0.975 c0.192-0.105,0.306-0.104,0.331-0.099c0.219,0.065,0.552,0.127,0.916-0.084c0.484-0.282,0.841-0.94,1.09-2.014 c0.159-0.683,0.117-1.235-0.019-1.711c0.774-0.64,1.524-1.351,2.121-2.08c-0.003,0.459,0.098,0.736,0.304,0.828 c0.315,0.14,0.616-0.18,0.846-0.477c0.908-1.178,0.659-2.127,0.501-2.494c0.147-0.195,0.44-0.591,0.738-1.024 c0.03-0.327,0.035-0.661,0.05-0.992c-0.48,0.79-1.269,1.823-1.279,1.836c-0.063,0.083-0.067,0.197-0.013,0.286 c0.021,0.035,0.529,0.887-0.394,2.083c-0.106,0.138-0.184,0.217-0.234,0.261c-0.035-0.217-0.005-0.703,0.08-1.164 c0.021-0.116-0.067-0.193-0.178-0.238c-0.108-0.045-0.262,0.033-0.327,0.132c-0.587,0.884-1.469,1.764-2.397,2.544 c-0.145-0.318-0.322-0.604-0.493-0.875c-0.291-0.461-0.542-0.859-0.575-1.33c-0.032-0.472,0.079-0.819,0.333-1.035 c0.26-0.22,0.619-0.26,0.86-0.204c0.254,0.059,0.489-0.001,0.672-0.169c0.309-0.283,0.434-0.85,0.335-1.516 c-0.095-0.636-0.359-1.383-0.819-1.572c-0.206-0.085-0.431-0.049-0.631,0.1c-0.173,0.13-0.31,0.35-0.455,0.581 c-0.18,0.289-0.384,0.615-0.59,0.627c-0.004,0-0.009,0-0.013,0c-0.153,0-0.368-0.163-0.607-0.462 c-0.387-0.483-0.676-1.249-0.912-2.061c1.691-0.964,2.641-1.893,3.2-2.444c0.115-0.114,0.215-0.212,0.303-0.293 c0.116-0.106,0.333-0.276,0.491-0.213c0.154,0.062,0.328,0.366,0.367,0.908c0.046,0.646,0.232,1.05,0.555,1.202 c0.269,0.125,0.577,0.062,0.925-0.186c0.278-0.199,0.446-0.482,0.485-0.819c0.058-0.502-0.182-0.988-0.347-1.177 c-0.137-0.155-0.543-0.703-0.066-1.232c0.24-0.266,0.597-0.381,0.898-0.43c-0.048-0.16-0.091-0.322-0.142-0.481 c-0.373,0.069-0.81,0.225-1.127,0.577c-0.599,0.665-0.342,1.437,0.061,1.896c0.099,0.112,0.265,0.458,0.227,0.79 c-0.023,0.198-0.114,0.352-0.279,0.47c-0.181,0.129-0.335,0.179-0.421,0.141c-0.106-0.05-0.233-0.283-0.27-0.785 c-0.05-0.698-0.299-1.185-0.681-1.337c-0.215-0.085-0.566-0.1-1.014,0.309c-0.092,0.084-0.196,0.187-0.316,0.306 c-0.529,0.522-1.417,1.395-2.985,2.306c-0.101-0.383-0.192-0.765-0.277-1.123c-0.231-0.98-0.415-1.754-0.678-2.12 c-0.198-0.275-0.423-0.414-0.668-0.414h-0.001c-0.435,0-0.753,0.444-0.963,0.738c-0.04,0.055-0.075,0.105-0.107,0.145 c-0.099,0.123-0.434,0.334-0.778,0.286c-0.352-0.047-0.645-0.339-0.871-0.867c-0.241-0.563-0.274-1.004-0.096-1.274 c0.214-0.325,0.663-0.335,0.927-0.311c0.197,0.016,0.418,0.036,0.576-0.134c0.159-0.173,0.18-0.451,0.078-1.063 c-0.077-0.459-0.438-1.003-0.904-1.575c0.979-0.376,1.978-0.842,2.675-1.366c0.289-0.186,0.582-0.229,0.825-0.119 c0.215,0.096,0.366,0.298,0.405,0.54c0.063,0.392,0.351,0.657,0.788,0.728c0.533,0.088,1.28-0.143,1.531-0.624 c0.154-0.295,0.087-0.626-0.186-0.909c-0.349-0.361-0.344-0.495-0.347-0.495c0.032-0.04,0.194-0.074,0.256-0.087 c0.042-0.009,0.079-0.017,0.107-0.025l0.141-0.038c0.531-0.143,1.047-0.293,1.381-0.443c-0.051-0.07-0.096-0.146-0.148-0.215 l-0.733,0.273c-0.052-0.07-0.122-0.15-0.178-0.223c-0.186,0.054-0.353,0.099-0.453,0.126l-0.222,0.057 c-0.186,0.04-0.532,0.112-0.628,0.423c-0.082,0.267,0.065,0.583,0.463,0.995c0.178,0.185,0.123,0.29,0.103,0.329 c-0.126,0.239-0.633,0.421-1.009,0.362c-0.332-0.054-0.364-0.25-0.374-0.314c-0.066-0.409-0.326-0.751-0.695-0.916 c-0.4-0.18-0.861-0.124-1.314,0.165c-0.707,0.531-1.738,1.001-2.729,1.373c-0.226-0.259-0.465-0.521-0.702-0.781 c-0.53-0.58-1.03-1.127-1.242-1.503c-0.068-0.122-0.173-0.345-0.098-0.466c0.099-0.158,0.515-0.241,1.047-0.215 c0.409,0.026,0.601-0.144,0.697-0.287c0.175-0.261,0.149-0.65-0.075-1.123c-0.226-0.477-0.552-0.797-0.895-0.88 c-0.235-0.056-0.463-0.003-0.664,0.15c-0.407,0.314-0.666,0.407-1.127,0.142c-0.291-0.169-0.509-0.592-0.644-0.934 c-0.128,0.05-0.246,0.099-0.342,0.145c-0.04,0.019-0.083,0.034-0.123,0.052c0.155,0.39,0.432,0.922,0.86,1.17 c0.765,0.443,1.27,0.14,1.682-0.178c0.08-0.062,0.158-0.083,0.242-0.061c0.189,0.045,0.404,0.278,0.561,0.607 c0.163,0.345,0.161,0.555,0.11,0.631c-0.045,0.066-0.182,0.067-0.255,0.066c-0.782-0.042-1.287,0.11-1.498,0.45 c-0.161,0.259-0.132,0.587,0.087,0.975c0.239,0.426,0.759,0.994,1.309,1.596c0.183,0.2,0.376,0.411,0.565,0.626 c-1.03,0.358-1.946,0.596-2.31,0.666c-0.978,0.187-1.245,0.076-1.318-0.008c-0.06-0.069-0.021-0.221,0.007-0.306 c0.161-0.485,0.098-0.897-0.181-1.162c-0.292-0.277-0.933-0.492-2.318,0.052c-0.918,0.361-1.407,0.808-1.454,1.329 c-0.037,0.422,0.24,0.751,0.489,0.904c0.102,0.063,0.245,0.12,0.397,0.178c0.137,0.052,0.423,0.162,0.458,0.22 c0,0.001-0.021,0.116-0.386,0.363c-0.904,0.611-3.541,0.748-4.492,0.779c0.039,0.126,0.079,0.251,0.123,0.362 c-0.149,0.03-0.33,0.064-0.531,0.1c0.194,0.784,0.468,1.681,0.816,2.297c0.125,0.22,0.247,0.519,0.124,0.695 c-0.163,0.235-0.766,0.318-1.471,0.204c-0.56-0.093-1.099,0.07-1.475,0.445c-0.389,0.387-0.558,0.948-0.464,1.541 c0.121,0.758,0.534,1.619,1.186,1.834c0.294,0.097,0.758,0.1,1.295-0.426c0.344-0.336,0.739-0.444,1.146-0.307 c0.56,0.188,1.038,0.812,1.138,1.481c0.056,0.38,0.029,0.95-0.003,1.558c-2.179,0.104-5.007,0.982-5.63,1.294 c-0.448,0.224-0.69,0.498-0.721,0.815c-0.019,0.2,0.045,0.505,0.457,0.818c0.079,0.062,0.207,0.187,0.167,0.343 c-0.056,0.222-0.427,0.509-1.3,0.648c-1.143,0.184-1.543,0.034-1.68-0.121c-0.106-0.122-0.113-0.339-0.021-0.645 c0.125-0.413,0.1-0.769-0.077-1.055c-0.277-0.452-0.838-0.598-1.235-0.668c-0.438-0.075-1.908,0.021-3.591,0.16 c0.037-1.121,0.01-2.296-0.136-2.879c-0.16-0.64-0.476-0.885-0.713-0.979c-0.303-0.12-0.661-0.065-1.006,0.159 c-0.076,0.05-0.184,0.101-0.257,0.057c-0.139-0.077-0.27-0.433-0.251-1.052C7.376,22.309,7.634,22.059,7.713,22 c0.074-0.057,0.125-0.058,0.134-0.056l0.085,0.036c0.306,0.134,0.941,0.409,1.369,0.095c0.267-0.195,0.373-0.563,0.318-1.093 c-0.08-0.766,0.007-1.671,0.11-2.369c0.21-0.052,0.421-0.106,0.641-0.175c0.08-0.025,0.143-0.05,0.219-0.075 c-0.456,0.037-0.878,0.09-1.21,0.163c0,0-0.024-0.427,0.039-1.02c-0.03,0.139-0.079,0.377-0.131,0.69 c-0.639,0.13-1.259,0.186-1.951,0.167c-0.166-0.004-0.381-0.036-0.462-0.16c-0.13-0.2,0.047-0.632,0.145-0.87 c0.116-0.291,0.145-0.734-0.069-1.021c-0.109-0.146-0.327-0.314-0.728-0.278c-0.973,0.089-1.035,0.911-1.121,2.05 c-0.021,0.271-0.127,0.324-0.162,0.342C4.664,18.568,4,18.3,3.609,18.059c-0.041,0.169-0.093,0.333-0.13,0.503 c0.256,0.143,0.79,0.405,1.266,0.405c0.149,0,0.293-0.026,0.42-0.09c0.18-0.091,0.4-0.295,0.435-0.751 c0.105-1.388,0.229-1.549,0.668-1.589c0.211-0.016,0.264,0.055,0.281,0.078c0.086,0.116,0.073,0.371-0.014,0.587 C6.421,17.48,6.183,18.06,6.456,18.48c0.159,0.245,0.451,0.375,0.867,0.387c0.67,0.02,1.274-0.031,1.886-0.143 c-0.094,0.698-0.164,1.558-0.086,2.313c0.035,0.332-0.006,0.558-0.115,0.638c-0.198,0.146-0.69-0.069-0.874-0.15l-0.109-0.046 c-0.174-0.064-0.382-0.031-0.57,0.096c-0.212,0.142-0.57,0.518-0.598,1.439c-0.023,0.784,0.151,1.303,0.505,1.502 c0.134,0.075,0.411,0.163,0.774-0.072c0.119-0.077,0.35-0.191,0.552-0.114c0.183,0.072,0.325,0.292,0.411,0.635 c0.129,0.518,0.158,1.669,0.119,2.8C9.145,27.771,9.073,27.777,9,27.783c-1.123,0.1-2.412-0.311-2.699-0.623 c-0.318-0.345-0.424-0.941-0.241-1.358c0.085-0.196,0.082-0.414-0.009-0.631c-0.182-0.431-0.675-0.768-0.899-0.853 c-0.156-0.058-0.686-0.227-1.005,0.06c-0.198,0.177-0.25,0.46-0.154,0.842c0.026,0.107,0.081,0.327,0.113,0.5 c-0.232-0.159-0.642-0.517-1.016-0.945c0.023,0.272,0.053,0.542,0.086,0.811C3.454,25.853,3.713,26.063,3.875,26.167z M37.837,24.135c0.365,0.456,0.733,0.676,1.039,0.648c0.465-0.026,0.741-0.47,0.986-0.861c0.113-0.183,0.231-0.372,0.331-0.446 c0.082-0.061,0.12-0.045,0.141-0.038c0.178,0.073,0.418,0.535,0.515,1.184c0.082,0.553-0.031,0.938-0.179,1.073 c-0.061,0.057-0.13,0.072-0.219,0.051c-0.337-0.079-0.881-0.048-1.299,0.309c-0.263,0.224-0.563,0.656-0.508,1.452 c0.041,0.596,0.337,1.065,0.649,1.562c0.187,0.297,0.374,0.601,0.512,0.94c-1.588,1.268-3.206,2.202-3.649,2.303 c-0.406,0.093-0.487,0.032-0.495,0.023c-0.033-0.034-0.093-0.188,0.076-0.895c0.101-0.42-0.066-0.663-0.224-0.794 c-0.599-0.497-2.122-0.132-2.804,0.173c-0.698,0.313-1.331,0.958-1.505,1.534c-0.098,0.326-0.023,0.545,0.056,0.671 c0.148,0.234,0.423,0.34,0.643,0.426c0.034,0.013,0.077,0.029,0.116,0.046c-0.046,0.039-0.117,0.094-0.229,0.167 c-0.915,0.597-2.822,0.983-5.232,1.061c-0.409,0.013-0.838,0.056-1.269,0.11c-0.12-0.29-0.199-0.612-0.22-0.976 c-0.026-0.448,0.114-0.833,0.418-1.145c0.512-0.523,1.392-0.747,1.837-0.721c0.456,0.018,0.919-0.021,1.239-0.377 c0.304-0.339,0.397-0.896,0.285-1.702c-0.093-0.668-0.341-1.07-0.737-1.195c-0.694-0.218-1.489,0.533-1.8,0.867 c-0.055,0.06-0.555,0.58-1.143,0.584c-0.002,0-0.005,0-0.007,0c-0.303,0-0.591-0.141-0.856-0.419 c-0.558-0.584-0.541-1.934-0.482-3.128c0.011,0,0.022,0,0.034,0c2.147,0.022,4.552-0.612,5.336-1.089 c0.554-0.337,0.82-0.682,0.817-1.052c-0.003-0.336-0.235-0.642-0.693-0.91c-0.299-0.175-0.294-0.34-0.292-0.395 c0.01-0.357,0.546-0.87,1.334-1.273c0.799-0.409,1.729-0.516,2.075-0.234c0.046,0.037,0.184,0.149,0.09,0.487 c-0.122,0.443-0.078,0.782,0.133,1.008c0.321,0.343,0.864,0.241,0.954,0.222c1.308-0.436,2.364-0.911,3.255-1.386 C37.113,22.827,37.418,23.612,37.837,24.135z M22.374,22.619c-0.588-0.197-1.174-0.047-1.655,0.423 c-0.288,0.283-0.554,0.387-0.788,0.309c-0.43-0.142-0.752-0.831-0.849-1.438c-0.068-0.432,0.049-0.835,0.322-1.107 c0.266-0.265,0.635-0.372,1.042-0.307c0.351,0.058,1.536,0.2,1.961-0.411c0.219-0.313,0.185-0.726-0.099-1.227 c-0.299-0.528-0.545-1.304-0.727-2.016c1.066-0.037,3.666-0.194,4.653-0.862c0.302-0.204,0.644-0.482,0.604-0.828 c-0.041-0.355-0.432-0.504-0.777-0.636c-0.119-0.045-0.233-0.087-0.313-0.136c-0.103-0.063-0.271-0.226-0.253-0.434 c0.027-0.303,0.442-0.634,1.14-0.907c1.28-0.505,1.693-0.246,1.79-0.155c0.175,0.166,0.107,0.473,0.051,0.641 c-0.138,0.412-0.026,0.659,0.092,0.793c0.338,0.386,1.095,0.302,1.788,0.17c0.396-0.075,1.428-0.345,2.565-0.751 c0.461,0.552,0.843,1.09,0.907,1.472c0.084,0.5,0.054,0.624,0.074,0.624h0.001c-0.026,0.009-0.122,0-0.192-0.006 c-0.383-0.032-1.047,0.019-1.387,0.534c-0.279,0.424-0.262,1.011,0.054,1.747c0.373,0.873,0.893,1.115,1.263,1.166 c0.569,0.081,1.059-0.248,1.236-0.47c0.036-0.045,0.077-0.103,0.123-0.166c0.132-0.185,0.379-0.529,0.558-0.529 c0.099,0,0.207,0.129,0.262,0.206c0.206,0.286,0.396,1.09,0.598,1.943c0.094,0.398,0.197,0.824,0.311,1.251 c-0.88,0.476-1.933,0.955-3.245,1.393c-0.085,0.017-0.351,0.038-0.46-0.082c-0.081-0.087-0.087-0.276-0.016-0.532 c0.157-0.568-0.093-0.875-0.256-1.009c-0.578-0.471-1.754-0.267-2.62,0.176c-0.476,0.244-1.583,0.898-1.605,1.705 c-0.007,0.235,0.081,0.572,0.539,0.84c0.287,0.168,0.445,0.339,0.446,0.482c0.002,0.17-0.209,0.396-0.577,0.62 c-0.697,0.425-2.932,1.018-4.92,1.018c-0.055-0.001-0.109-0.001-0.164-0.001c0.033-0.62,0.058-1.202-0.004-1.622 C23.719,23.642,23.113,22.868,22.374,22.619z M9.589,29.593c0.045-0.377,0.082-0.857,0.107-1.366 c1.194-0.099,3.105-0.243,3.526-0.172c0.474,0.084,0.768,0.227,0.896,0.438c0.099,0.159,0.106,0.378,0.024,0.648 c-0.146,0.48-0.104,0.857,0.122,1.117c0.221,0.252,0.598,0.376,1.162,0.376c0.278,0,0.602-0.029,0.973-0.089 c1.314-0.21,1.634-0.729,1.707-1.021c0.078-0.313-0.052-0.635-0.35-0.862c-0.179-0.136-0.271-0.27-0.262-0.374 c0.012-0.128,0.175-0.279,0.446-0.415c0.575-0.288,3.308-1.128,5.381-1.239c-0.065,1.328-0.073,2.735,0.621,3.462 c0.367,0.384,0.759,0.563,1.229,0.573c0.78-0.006,1.391-0.621,1.505-0.744c0.489-0.525,1.009-0.816,1.283-0.73 c0.244,0.077,0.348,0.471,0.392,0.787c0.09,0.644,0.036,1.08-0.161,1.299c-0.174,0.194-0.471,0.227-0.851,0.212 c-0.523-0.003-1.561,0.203-2.211,0.871c-0.406,0.416-0.595,0.929-0.561,1.523c0.022,0.377,0.108,0.706,0.222,1.012 c-1.761,0.271-3.494,0.785-4.231,1.088c-0.518,0.213-0.799,0.487-0.834,0.818c-0.036,0.334,0.181,0.664,0.644,0.983 c0.107,0.074,0.13,0.122,0.134,0.122c-0.043,0.111-0.547,0.378-1.778,0.451c-1.16,0.072-1.507-0.316-1.588-0.437 c-0.078-0.116-0.092-0.242-0.039-0.354c0.149-0.313,0.178-0.589,0.085-0.821c-0.077-0.195-0.236-0.344-0.46-0.43 c-0.363-0.14-2.527-0.33-4.414-0.207c-0.345,0.021-0.667-0.007-0.976-0.055c-0.358-0.549-0.632-1.086-0.691-1.518 c-0.027-0.197-0.032-0.457,0.098-0.566c0.24-0.201,0.918,0.011,1.282,0.123l0.151,0.047c0.464,0.14,0.845,0.08,1.076-0.16 c0.276-0.287,0.297-0.78,0.062-1.469c-0.219-0.644-0.527-1.023-0.94-1.161c-0.412-0.137-0.885-0.018-1.447,0.365 c-0.051,0.035-0.207,0.143-0.479-0.021C9.956,31.4,9.485,30.464,9.589,29.593z"/><path fill="#bebebe" d="M21.213,15.091l-0.017,0.003c0.06,0.437,0.148,0.862,0.262,1.234 C21.301,15.638,21.215,15.103,21.213,15.091z"/></g><path fill="#767676" d="M25.116,43.687c-0.133,0-0.256-0.007-0.365-0.021c-0.306-0.042-0.464-0.135-0.481-0.286	c-0.051-0.421,1.125-0.575,1.26-0.591c0.326-0.04,0.639-0.044,0.883-0.011c0.306,0.042,0.464,0.135,0.481,0.286	c0.019,0.15-0.112,0.278-0.4,0.391c-0.228,0.09-0.532,0.161-0.86,0.2C25.453,43.676,25.278,43.687,25.116,43.687z M24.528,43.348	c0.095,0.063,0.488,0.128,1.075,0.059c0.585-0.07,0.953-0.229,1.031-0.313c-0.095-0.063-0.488-0.128-1.076-0.058	C24.974,43.107,24.605,43.265,24.528,43.348z M26.648,43.077L26.648,43.077L26.648,43.077L26.648,43.077z"/></svg>