<svg xmlns="http://www.w3.org/2000/svg"  viewBox="0 0 48 48" width="1600px" height="1600px"><path fill="#1b1b1b" d="M43.426,10.333c-1.612,0-1.544-0.333-4.641-0.333v1.189h0.398c0.808,0.079,3.399,0.591,2.473,2.862	L32.91,34.306l-5.669-11.405l4.801-8.572c0.454-0.694,2.204-3.064,4.958-3.14V10c-2.956,0-3.343,0.333-4.963,0.333	C30.288,10.333,30.361,10,27,10v1.189c0.723,0.065,4.09,0.605,2.862,2.93c-0.093,0.176-0.152,0.32-0.196,0.45l-3.404,6.362	l-3.405-6.851c-0.29-0.773-0.528-2.926,2.219-2.885c-0.016-0.002-0.031-0.003-0.047-0.005h0.366V10c-3.582,0-3.71,0.333-5.673,0.333	c-2.12,0-1.137-0.333-5.21-0.333v1.189h0.209c0.535,0.027,2.453,0.335,4,3.183l5.182,10.969l-4.909,9.174L9.819,14.144	c-0.165-0.609-0.45-2.99,2.473-2.949c-0.017-0.002-0.034-0.003-0.051-0.005H13V10c-3.843,0-4.346,0.333-6.452,0.333	C4.274,10.333,4.37,10,0,10v1.189h0.87L0.42,11.21c0,0,3.375-0.206,5.122,3.67c0.042,0.094,0.087,0.161,0.131,0.245L16.601,40	l1.053,0.016l7.15-12.764L30.826,40l0.098-0.006L30.923,40l0.982,0.016l11.813-25.837c0.438-0.836,1.765-2.918,4.168-2.989H48V10	C45.276,10,44.919,10.333,43.426,10.333z"/></svg>