<svg xmlns="http://www.w3.org/2000/svg"  viewBox="0 0 48 48" width="1600px" height="1600px"><path fill="#03A9F4" d="M6.632,16.6c-0.028,0-0.052,0.016-0.071,0.035c-1.949,2.739-3.122,4.595-4.34,6.847l-0.123,0.246l-0.035,0.08c-0.105,0.217-0.077,0.456,0.068,0.688c0.72,1.126,4.76,2.438,13.782,2.438c6.725,0,13.872-1.084,13.872-3.092c0-1.939-7.058-3.096-13.872-3.096c-2.265,0-4.505,0.314-5.153,0.418c0.618-0.949,3.177-4.393,3.204-4.425c0.012-0.019,0.021-0.033,0.021-0.053c0-0.015-0.005-0.027-0.01-0.041c-0.019-0.025-0.049-0.047-0.081-0.047H6.632 M9.261,23.843c0-0.417,2.53-1.001,6.653-1.001c4.121,0,6.646,0.584,6.646,1.001c0,0.421-2.526,1.006-6.646,1.006C11.791,24.849,9.261,24.264,9.261,23.843"/><path fill="#03A9F4" d="M11.737,33.951c0,0,33.537,1.363,34.253-10.338c0.58-9.495-23.241-8.59-23.263-8.59c-0.022,0-0.184,0.014-0.184,0.146c0,0.115,0.084,0.153,0.171,0.153c6.604,0,17.352,2.621,17.002,8.297c-0.281,4.621-8.668,10.031-27.969,10.031c-0.113,0-0.191,0.078-0.191,0.148C11.557,33.873,11.599,33.938,11.737,33.951"/></svg>