<svg xmlns="http://www.w3.org/2000/svg"  viewBox="0 0 48 48" width="1600px" height="1600px" clip-rule="evenodd"><path fill="#f36c00" fill-rule="evenodd" d="M33.568 16L28.568 16 32.784 10 37.784 10zM39.568 16L34.568 16 38.784 10 43.784 10z" clip-rule="evenodd"/><path fill="#ff9000" fill-rule="evenodd" d="M29.351 22L24.351 22 28.568 16 33.568 16zM35.351 22L30.351 22 34.568 16 39.568 16z" clip-rule="evenodd"/><path fill="#ffa100" fill-rule="evenodd" d="M25.135 28L20.135 28 24.351 22 29.351 22zM31.135 28L26.135 28 30.351 22 35.351 22z" clip-rule="evenodd"/><path fill="#237f2d" fill-rule="evenodd" d="M12.143 36L15 40 11 41 7.333 36zM18.143 36L21 40 17 41 13.333 36z" clip-rule="evenodd"/><path fill="#008390" fill-rule="evenodd" d="M18.143 36L13.333 36 9.667 31 14.571 31z" clip-rule="evenodd"/><path fill="#fdc200" fill-rule="evenodd" d="M20.919 34L15.919 34 20.135 28 25.135 28zM26.919 34L21.919 34 26.135 28 31.135 28z" clip-rule="evenodd"/><path fill="#feda0f" fill-rule="evenodd" d="M16 41L11 41 15.919 34 20.919 34zM22 41L17 41 21.919 34 26.919 34z" clip-rule="evenodd"/><path fill="#dc4100" fill-rule="evenodd" d="M37.784 10L32.784 10 37 4 42 4zM43.784 10L38.784 10 43 4 48 4z" clip-rule="evenodd"/><path fill="#008390" fill-rule="evenodd" d="M12.143 36L7.333 36 3.667 31 8.571 31z" clip-rule="evenodd"/><path fill="#0075c0" fill-rule="evenodd" d="M8.571 31L3.667 31 0 26 5 26zM14.571 31L9.667 31 6 26 11 26z" clip-rule="evenodd"/><path fill="none" fill-rule="evenodd" d="M-1 -1H49V49H-1z" clip-rule="evenodd"/></svg>