<svg xmlns="http://www.w3.org/2000/svg"  viewBox="0 0 48 48" width="1600px" height="1600px"><path fill="#673ab7" d="M24 20A4 4 0 1 0 24 28A4 4 0 1 0 24 20Z"/><path fill="#673ab7" d="M36,24c0-6.617-5.383-12-12-12s-12,5.383-12,12c0,5.579,3.833,10.268,9,11.605v-2.066c-4.052-1.277-7-5.07-7-9.539c0-5.514,4.486-10,10-10s10,4.486,10,10c0,4.469-2.948,8.261-7,9.539v2.066C32.167,34.268,36,29.579,36,24z"/><path fill="#673ab7" d="M32,24c0-4.411-3.589-8-8-8s-8,3.589-8,8c0,3.35,2.072,6.221,5,7.411v-2.223c-1.79-1.039-3-2.973-3-5.188c0-3.309,2.691-6,6-6s6,2.691,6,6c0,2.215-1.21,4.149-3,5.188v2.223C29.928,30.221,32,27.35,32,24z"/><path fill="#673ab7" d="M40,24c0-8.822-7.178-16-16-16S8,15.178,8,24c0,7.796,5.608,14.299,13,15.708v-2.04C14.718,36.29,10,30.689,10,24c0-7.72,6.28-14,14-14s14,6.28,14,14c0,6.689-4.718,12.29-11,13.668v2.04C34.392,38.299,40,31.796,40,24z"/><path fill="#673ab7" d="M24,4C12.972,4,4,12.972,4,24c0,10.006,7.394,18.295,17,19.75v-2.021C12.501,40.294,6,32.901,6,24c0-9.925,8.075-18,18-18s18,8.075,18,18c0,8.901-6.501,16.294-15,17.729v2.021c9.606-1.455,17-9.744,17-19.75C44,12.972,35.028,4,24,4z"/></svg>