<svg xmlns="http://www.w3.org/2000/svg"  viewBox="0 0 48 48" width="1600px" height="1600px" baseProfile="basic"><path fill="#52bea0" d="M27.494,35.998c0,0-9.373,0-10.97,0s-3.761-1.13-4.894-3.397c-0.455-0.909-5.719-14.21-6.21-15.252	c-0.412-0.876-1.017-1.766-1.953-2.194c-0.61-0.279-3.478-0.161-3.478-0.161v-1.98h12.014c0,0,3.655,0.139,5.137,3.826	c0.947,2.355,5.299,13.44,5.765,14.422C24.403,34.419,27.494,35.998,27.494,35.998z"/><path fill="#facc59" d="M20.47,35.998c0,0,9.373,0,10.97,0c1.598,0,3.761-1.13,4.894-3.397	c0.455-0.909,5.719-14.21,6.21-15.252c0.412-0.876,1.017-1.766,1.953-2.194c0.61-0.279,3.478-0.161,3.478-0.161v-1.98H35.962	c0,0-3.655,0.139-5.137,3.826c-0.947,2.355-5.693,14.187-6.194,15.151C23.29,34.568,20.47,35.998,20.47,35.998z"/><path fill="#ff9800" d="M20.516,35.985c0.783-0.51,2.288-1.284,3.476-3.063c1.08,1.659,2.986,3.063,2.986,3.063	L20.516,35.985z"/></svg>