<svg xmlns="http://www.w3.org/2000/svg"  viewBox="0 0 48 48" width="1600px" height="1600px"><path fill="#C5CAE9" d="M30.5,41.6c-10.7,0-19.4-8.7-19.4-19.4c0-8.4,5.3-15.5,12.8-18.2C12.9,4.1,4,13,4,24s9,20,20,20c3.6,0,7-1,10-2.7C32.9,41.5,31.7,41.6,30.5,41.6z"/><path fill="#9FA8DA" d="M37.8,36.4c-0.1-0.1-0.6-0.3-1.2-0.4c-0.5-0.1-4.3-0.9-5.5-1.2c1.4,0.2,5,0.5,5,0.5l0.1-0.1c0,0-0.3-0.4-0.5-0.5s-0.4-0.3-0.8-0.3c-0.4-0.1-4-1.2-3.4-1s3.2,0.4,3.2,0.3c0-0.1-0.3-0.4-0.4-0.5c-0.1-0.1-0.9-0.3-1.2-0.4c-0.3-0.1-2.9-1.1-2.9-1.1s1.2,0.1,1.3,0c0-0.2,0-0.4-0.3-0.5c-0.2-0.1-1.5-0.8-1.5-0.8H31c0,0,0.1-0.2,0-0.3c-0.5-0.4-2.1-1.4-2.1-1.4l0.9,0.1v-0.3l-1-1.1l0.2-0.2c0,0-0.1-0.9-0.1-1c1.8-0.4,3.5-1.9,5.2-2.8c0.5-0.3,1.8-0.6,1.8-0.6l-0.1-0.4c0,0,0.1,0,0.3,0l1.6-2.8l-3.2-1.2l-0.1,0.1c0,0-0.1-0.1-0.2-0.2c-0.2,0.3-1.3,0.9-1.7,1s-3.6,0-5.7,0.7l-0.4-1H26l0.2-1.5c0,0,0-0.1-0.2-0.1c-0.1,0-0.7,0.6-0.7,0.6l1-2.2c0,0,0-0.3-0.2-0.3c-0.3,0-1.3,1-1.3,1l1.1-1.7c0,0,0.1-0.9-0.3-0.7c-0.2,0.1-1.1,0.8-1.1,0.8l2.7-3.5c0,0,0.2-0.7-0.2-0.6c-0.3,0-2.4,2-2.4,2l2.9-3.2c0,0,0.3-0.8,0-0.7c-0.7,0.2-3.7,2.6-3.7,2.6s4.4-4.1,4.5-4.3C28.4,6.7,28.4,6,28.1,6c-0.9,0-11.5,7.6-11.5,11.1c0,1,4.4,1.4,4.4,4.1c0,0.2,0,0.5,0,0.6c-2,0.5-5,2.2-5,4.6c0,0.8,0.2,1.2,0.5,1.4c0,1.3,1.6,2.1,2.1,2.1c0,0-0.4-0.5-0.4-1.2s2.6-1.7,2.6-1.7H23c0,0,0.6,0,0.6,1.9s-1.7,2.9-1.7,4.4c0,1.6,10.3,3.3,12.6,3.5s3.7,0,3.7,0S37.9,36.5,37.8,36.4z"/><path fill="#7986CB" d="M30.5,41.6c1.2,0,2.4-0.1,3.5-0.3c-0.2,0.1-0.4,0.2-0.6,0.3c-2,0.7-4.1,1.1-6.4,1.1C16.2,42.7,7.5,34,7.5,23.2c0-9.5,6.7-17.4,15.7-19.1c0.2,0,0.4,0,0.7,0c-7.5,2.7-12.8,9.8-12.8,18.2C11.1,33,19.8,41.6,30.5,41.6z M18.9,27.9L18.9,27.9c0.8-0.5,1.9-0.9,1.9-0.9s0.2,0,2.2,0s5.9-0.8,5.9-0.8c1.8-0.4,3.5-1.9,5.2-2.8c0.5-0.3,1.8-0.6,1.8-0.6l-0.1-0.4c0,0,0.1,0,0.3,0l1.6-2.8c0,0-4.9,2.8-10.4,3.6S18.9,27.9,18.9,27.9z M26,19l0.2-1.5c0,0,0-0.1-0.2-0.1c-0.1,0-0.7,0.6-0.7,0.6l1-2.2c0,0,0-0.3-0.2-0.3c-0.3,0-1.3,1-1.3,1l1.1-1.7c0,0,0.1-0.9-0.3-0.7c-0.2,0.1-1.1,0.8-1.1,0.8l2.7-3.5c0,0,0.2-0.7-0.2-0.6c-0.3,0-2.4,2-2.4,2l2.9-3.2c0,0,0.3-0.8,0-0.7c-0.7,0.2-3.7,2.6-3.7,2.6s4.4-4.1,4.5-4.3C28.4,6.7,28.4,6,28.1,6c-0.5,0-4.4,2.6-7.5,5.4l-0.2,0.8C20.4,12.2,18.8,18.7,26,19z M31.1,34.8c1.4,0.2,5,0.5,5,0.5l0.1-0.1c0,0-0.3-0.4-0.5-0.5c-0.2-0.1-0.4-0.3-0.8-0.3c-0.3-0.1-2.4-0.7-3.2-0.9c0.8,0.2,3,0.3,3,0.2c0-0.1-0.3-0.4-0.4-0.5c-0.1-0.1-0.7-0.3-1.1-0.4c-0.1,0-0.1,0-0.1,0c-0.3-0.1-2.9-1.1-2.9-1.1s0,0,0.1,0c0.1,0,0.2,0,0.3,0c0.2,0,0.5,0,0.7,0c0.1,0,0.2,0,0.2,0c0-0.2,0-0.4-0.3-0.5c-0.2-0.1-1.5-0.8-1.5-0.8H31c0,0,0.1-0.2,0-0.3c-0.1-0.1-0.3-0.2-0.5-0.4c-0.2-0.1-0.5-0.3-0.7-0.5c-0.1-0.1-0.2-0.1-0.3-0.2c-0.3-0.2-0.5-0.3-0.5-0.3h0l0,0l0.9,0.1v-0.3l-1-1.1c0,0-7.5,4.6-1.5,8.2c2.9,0.6,6,1.1,7.2,1.2c2.3,0.2,3.7,0,3.7,0s-0.3-0.3-0.4-0.4c-0.1-0.1-0.6-0.3-1.2-0.4C36.1,35.9,32.3,35.1,31.1,34.8z"/><path fill="#3949AB" d="M17.6 25.9A0.5 0.5 0 1 0 17.6 26.9A0.5 0.5 0 1 0 17.6 25.9Z"/><path fill="#5C6BC0" d="M42.6,19.3c0,0,0.6-0.2,0.7-0.2c0.1,0,0.8-1.5,0.8-1.6c0-0.2-0.8-0.5-1.6-0.5c-0.3,0.1-1,0.3-1,0.3s0.5-1,0.4-1.2c-0.1-0.1-1.3-0.4-1.6-0.2c-0.2,0.1-0.9,0.5-0.8,0.4c0.1-0.4,0.1-0.9,0.1-0.9s-0.3-0.1-0.6-0.1s-0.6,0.1-0.6,0.1l-4,3.1l3.3,1.1l-1.9,2.8c1.1,0.1,5.2,0.4,5.3,0.4s1-0.7,1-0.8c0-0.1-0.6-0.6-0.6-0.6s1.1-0.1,1.2-0.1c0.1,0,1-0.9,1-1.1C43.7,19.9,42.6,19.3,42.6,19.3z"/></svg>