<svg xmlns="http://www.w3.org/2000/svg"  viewBox="0 0 48 48" width="1600px" height="1600px"><path fill="#9FA8DA" d="M41.6,31.2c-3.4-2.3-6.1-5.1-8.4-8.4c-1.2-1.7-6.8-9-10.8-5.9c-0.3,0.2-0.5,0.4-0.7,0.6c-2.2-0.8-4.7-0.1-6.7,0.5c0.3-0.1,1.9,2.1,2.2,2.3c1.7,1.6,4.7,2.8,6.8,1.8c-0.5,2.7,0.8,5.3,3,7c0.7,0.6,3,1.6,3.8,2c1.7,1,3.3,2.4,4.8,3.7c0.4,0.4,1.5,0.3,2.1,0.1c0.8-0.3,3.4-1.7,4.1-2.4C42.1,32.1,42.1,31.5,41.6,31.2z"/><path fill="#5C6BC0" d="M36.1 10.5C36 10.2 36 10 36 10s0 .2-.1.4c-.1.3-.2.7-.5 1.1-.7 1.1-1.8 1.8-3.1 2.1C30.7 14.1 29.2 15 24 15c-1.1 0-2.2-.1-3.2-.3 0 0 0 0 0 0-.1-.1-.3-.2-.4-.3-.1-.1-.1-.1-.2-.2-.1-.1-.2-.3-.3-.4-.1-.2-.1-.4-.2-.6-.1-.4-.2-1-.1-1.6.1-1.1.4-2.3.8-3.2C20.7 7.6 21 7.1 21 7.1s-.5.4-1.1 1.2c-.6.7-1.4 1.8-1.9 3.1-.3.6-.4 1.4-.5 2.1 0 .2 0 .4 0 .6-.9-.3-1.8-.6-2.6-1-.1-.1-.1-.1-.2-.2-.1-.1-.2-.2-.4-.4-.1-.1-.2-.2-.3-.4-.1-.1-.2-.3-.3-.5-.1-.2-.2-.4-.3-.7-.1-.2-.1-.5-.2-.8-.1-.3 0-.6-.1-.9 0-.3 0-.6.1-.9.1-.3.1-.6.2-.9C13.7 6.6 14 6 14.2 5.6 14.6 4.6 15 4.1 15 4.1s-.5.4-1.2 1.3c-.3.4-.7.9-1.1 1.5-.2.3-.3.6-.5.9-.2.3-.3.7-.4 1-.1.4-.2.7-.2 1.1 0 .3-.1.7-.1 1-1.7-1.2-3-2.5-3.7-3.6-.7-1.1-1-2.4-.5-3.7.2-.5.4-.9.5-1.2C7.9 2.1 8 2 8 2S7.9 2.1 7.7 2.3c-.2.2-.5.5-.9 1-2.1 3.3.7 7.3 3.1 9.6 1.9 1.9 4.3 3.3 6.8 4.1.3.1.6.2.9.2 1.7-.3 3.5-.3 5.1.7 1 0 2.1 0 3.1-.1 3.6-.3 9.2-1.8 10.2-6C36.1 11.2 36.1 10.8 36.1 10.5zM25.6 27.7c2 9.5 4.5 18.3-.7 18.3-12.1 0-12.1-1.6-13.9-3 1.8.1 5.6-1.4 6-2.9-1.9.5-6.8-.6-8-2 3.3-.5 7.1-4.5 6.8-5.2 0 0-1.5.7-2.9.1 1.6-2 3.7-7.3 6-11.5 1.6.9 3.5 1.3 5.1.5C23.6 24.1 24.3 26.1 25.6 27.7zM38.2 34.7c.5-.2 1.2-.6 1.8-1l-6-3.7L38.2 34.7z"/><path fill="#303F9F" d="M27,20.1c0,0-0.7,4.8,4,6C31.3,22.6,29.1,20.6,27,20.1z M29,24.1c-0.6,0-1-0.4-1-1c0-0.6,0.4-1,1-1s1,0.4,1,1C30,23.6,29.6,24.1,29,24.1z"/><path fill="#7986CB" d="M24,22.1c-2.1,1.1-5.1-0.2-6.8-1.8C16.9,20,15.3,17.9,15,18C17.5,17.1,22.3,18.4,24,22.1 M28.5,29.9c-0.6-0.3-1.2-0.6-1.5-0.9c-2.2-1.7-3.5-4.3-3-7l0,0l0,0c0,0-9.8,9.3,1,23.9C30.8,45.6,34,44,34,44c-0.7-4.6-2.6-9-5-13L28.5,29.9z"/><path fill="#3949AB" d="M28.5,29.9c-0.6-0.3-1.2-0.6-1.5-0.9c-2.2-1.7-3.5-4.3-3-7c-0.5,0.3-1.2,0.4-1.8,0.4c-1.1,0-2.3-0.4-3.3-0.9c-0.3,0.6-0.6,1.2-0.9,1.8c1.2,0.6,2.5,1.1,4,1.2c0.3,2.3,1.7,4.4,3.8,6.2c4.4,3.7,7.4,9.8,8.2,13.4c-0.7-4.6-2.6-9-5-13L28.5,29.9z"/></svg>