<svg xmlns="http://www.w3.org/2000/svg"  viewBox="0 0 48 48" width="1600px" height="1600px"><path fill="#3f51b5" d="M32,19c-4.375,0-4,12-4,12h-4h-4c0,0,0.417-12-4-12c4.667-3.25,8,3,8,3S27.333,15.75,32,19z M40.978,15.964c-0.005-0.967,0.136-1.913,0.361-2.825C42.515,13.103,44,12,44,12s1.875-4.875,2-7c-0.109,0.061-0.21,0.131-0.316,0.196c0.144-0.164,0.231-0.255,0.234-0.258l-0.406,0.365c-1.143,0.732-2.115,1.669-2.91,2.615L42.21,8.27c-0.133,0.142-3.255,3.522-3.232,7.706c0.012,2.104,1.054,4.15,2.063,6.128c0.979,1.921,1.992,3.908,2.003,5.85C43.053,29.665,41.583,32,39,32s-3.947-2.28-3.956-4.003c-0.021-3.83,0.365-6.815,0.647-8.995c0.163-1.259,0.291-2.254,0.287-3.01c-0.026-4.745-3.288-6.982-6.038-6.967C27.877,9.105,23.965,9.625,24,16l1.978,0.047c-0.016-2.875,3.608-3.003,3.984-3.022c0.163-0.001,4.255,0.977,3.745,5.721c-0.51,4.744-0.685,5.299-0.663,9.263c0.012,2.279,0.663,4.061,1.932,5.297c1.679,1.633,3.84,1.672,4.071,1.671c0.023,0,0.022,0,0.041,0c0.26-0.001,2.421-0.064,4.081-1.715c1.256-1.249,1.887-3.038,1.874-5.317c-0.013-2.417-1.136-4.618-2.221-6.747C41.878,19.343,40.987,17.594,40.978,15.964z M18.06,9.025c-2.75-0.015-6.012,2.222-6.038,6.967c-0.004,0.756,0.124,1.751,0.287,3.01c0.282,2.18,0.668,5.166,0.647,8.995C12.947,29.72,11.333,32,9,32s-4.053-2.335-4.044-4.047c0.011-1.942,1.023-3.929,2.003-5.85c1.009-1.978,2.051-4.023,2.063-6.128C9.045,11.791,5.923,8.411,5.79,8.27L5.398,7.917c-0.795-0.946-1.766-1.883-2.91-2.615L2.082,4.937c0.003,0.004,0.09,0.095,0.234,0.258C2.21,5.131,2.109,5.061,2,5c0.125,2.125,2,7,2,7s1.485,1.103,2.661,1.14c0.225,0.911,0.366,1.858,0.361,2.825c-0.009,1.63-0.9,3.379-1.845,5.231c-1.085,2.129-2.207,4.33-2.221,6.747c-0.013,2.279,0.618,4.068,1.874,5.317c1.661,1.651,3.822,1.714,4.081,1.715c0.019,0,0.018,0.001,0.041,0c0.23,0.001,2.392-0.038,4.071-1.671c1.269-1.235,1.92-3.017,1.932-5.297c0.022-3.963-0.153-4.518-0.663-9.263c-0.51-4.744,3.582-5.722,3.745-5.721c0.376,0.019,3.999,0.147,3.984,3.022L24,16C24.035,9.625,20.123,9.105,18.06,9.025z"/><path fill="#5c6bc0" d="M18,38c0,2,6,6,6,6s6-4.25,6-6s-6-6-6-6S18,36,18,38z"/><path fill="#e8eaf6" d="M23,21.5c0,0.828-0.672,1.5-1.5,1.5S20,22.328,20,21.5s0.672-1.5,1.5-1.5S23,20.672,23,21.5z M26.5,20c-0.828,0-1.5,0.672-1.5,1.5s0.672,1.5,1.5,1.5s1.5-0.672,1.5-1.5S27.328,20,26.5,20z"/><path fill="#7986cb" d="M24,17c0,0-0.334-0.625-0.572-1.563C23.163,14.5,23.004,13.25,23,12c0.001-1.25,0.158-2.5,0.426-3.438C23.664,7.625,24,7,24,7s0.336,0.625,0.574,1.563C24.841,9.5,24.999,10.75,25,12c-0.003,1.25-0.162,2.5-0.428,3.438C24.334,16.375,24,17,24,17z"/><path fill="#9fa8da" d="M40.041,6.218C40.014,6.076,40,6,40,6s-0.023,0.074-0.067,0.212c-0.049,0.133-0.096,0.352-0.198,0.587c-0.068,0.177-0.169,0.374-0.285,0.58c-0.052,0.085-0.103,0.168-0.157,0.257c-0.002,0.003-0.006,0.007-0.008,0.01c-0.215,0.271-0.466,0.542-0.798,0.768c-0.316,0.243-0.745,0.402-1.179,0.58c-0.46,0.151-0.963,0.266-1.503,0.379c-1.083,0.205-2.303,0.327-3.546,0.511c-1.245,0.186-2.523,0.414-3.716,0.85c-0.46,0.15-0.891,0.365-1.302,0.601C28.413,8.997,30.664,6.612,35,5c-2.87,0-5.273,0.831-7.098,2.34c-0.064-0.262-0.143-0.513-0.215-0.742c-0.243-0.645-0.547-1.143-0.828-1.525c-0.246-0.4-0.525-0.61-0.676-0.802C26.019,4.094,25.932,4,25.932,4s0.022,0.126,0.062,0.363c0.027,0.233,0.129,0.594,0.149,1.015c0.048,0.415,0.055,0.917,0.012,1.455c-0.047,0.268-0.191,1.386-0.26,1.692c-0.235,1.239-1.051,2.826-1.515,4.755c-0.212,0.866-0.349,1.788-0.398,2.72h-0.019c-0.103-1.91-0.494-3.619-1.158-5.082c-0.329-0.901-0.639-1.706-0.769-2.393c-0.069-0.306-0.214-1.424-0.26-1.692c-0.043-0.538-0.036-1.041,0.012-1.455c0.021-0.421,0.123-0.782,0.149-1.015C21.978,4.126,22,4,22,4s-0.087,0.094-0.25,0.271c-0.152,0.192-0.43,0.402-0.676,0.802c-0.281,0.382-0.585,0.88-0.828,1.525c-0.068,0.216-0.142,0.451-0.205,0.697C18.222,5.815,15.84,5,13,5c4.225,1.571,6.475,3.876,7.672,6.157c-0.275-0.149-0.562-0.281-0.858-0.39c-1.143-0.454-2.372-0.691-3.561-0.88c-1.187-0.19-2.351-0.311-3.369-0.528c-0.513-0.111-0.978-0.239-1.405-0.395c-0.413-0.172-0.78-0.362-1.087-0.594c-0.293-0.241-0.54-0.506-0.724-0.784C9.599,7.476,9.543,7.373,9.488,7.27c-0.022-0.043-0.05-0.089-0.07-0.131c-0.012-0.024-0.02-0.046-0.031-0.07C9.338,6.965,9.293,6.862,9.254,6.767C9.172,6.533,9.11,6.346,9.067,6.214c0-0.001-0.001-0.002-0.001-0.003C9.023,6.074,9,6,9,6S8.985,6.073,8.957,6.209C8.939,6.347,8.868,6.54,8.86,6.803C8.82,7.336,8.857,8.165,9.392,9.042c0.278,0.412,0.645,0.855,1.12,1.165c0.461,0.33,0.982,0.619,1.533,0.811c1.097,0.43,2.265,0.649,3.388,0.844c0.55,0.092,1.101,0.184,1.642,0.275c0.521,0.11,1.038,0.183,1.498,0.325c0.453,0.148,0.898,0.275,1.257,0.477c0.366,0.195,0.686,0.416,0.942,0.679c0.13,0.13,0.249,0.264,0.343,0.409c0.112,0.136,0.206,0.277,0.275,0.423c0.167,0.28,0.262,0.559,0.362,0.788c0.072,0.223,0.129,0.395,0.17,0.524c0.017,0.203,0.047,0.402,0.053,0.609c0.003,0.064,0.004,0.135,0.007,0.201C21.808,20.285,20,22.641,20,30c0,7.732,4,14,4,14s4-6.268,4-14c0-7.495-1.874-9.568-1.989-13.616c0.006-0.165,0.017-0.339,0.029-0.516c0.041-0.132,0.111-0.355,0.218-0.662c0.098-0.24,0.214-0.525,0.389-0.813c0.166-0.292,0.41-0.571,0.681-0.836c0.299-0.246,0.632-0.477,1.042-0.659c0.399-0.191,0.867-0.323,1.362-0.457c0.492-0.139,1.042-0.205,1.595-0.312c0.571-0.088,1.15-0.178,1.73-0.267c1.179-0.189,2.398-0.406,3.543-0.815c1.136-0.382,2.224-1.034,2.846-1.9c0.315-0.424,0.496-0.874,0.59-1.271c0.099-0.395,0.104-0.751,0.093-1.034C40.134,6.563,40.056,6.364,40.041,6.218z"/></svg>