<svg xmlns="http://www.w3.org/2000/svg"  viewBox="0 0 48 48" width="1600px" height="1600px"><path fill="#283593" d="M11.676,23.408c-4.835,0.962-7.677-3.405-7.677-3.405c0,5.44,1.88,7.922,3.691,9.054C5.375,30.961,3,31.879,3,31.879c5.08,4.081,9.993,0.999,9.993,0.999c7.547-3.06,10.993-15.874,10.993-15.874S17.966,22.315,11.676,23.408z"/><path fill="#3f51b5" d="M23.986 17.005c0 0-15.24 1.249-14.99-5.996 0 0-1.874 1.874-1.999 4.997-.125 3.123 2.17 6.383 2.998 6.995 6.079 4.497 11.992-3.997 11.992-3.997-.625 4.122-5.746 9.869-9.912 13.717-.688.936-1.273 1.948-1.739 2.957C9.87 36.686 9.533 37.7 9.319 38.623c-.217.922-.306 1.756-.329 2.37-.028.295-.005.559-.009.725.01.176.015.27.015.27s.091-.023.262-.067c.157-.054.416-.111.689-.226.579-.206 1.348-.543 2.162-1.026.817-.482 1.682-1.108 2.504-1.856.822-.748 2.692-2.882 3.378-3.82C24.111 28.372 23.986 17.005 23.986 17.005zM37.009 31.747l1.741-2.765.197 3.262L37.009 31.747zM34.875 32.441l1.104-4.459-2.894 3.567L34.875 32.441zM38.521 23.636l.456 4.361 2.455-3.634L38.521 23.636zM35.507 21.707l.472 5.291 2.47-4.703L35.507 21.707z"/><path fill="#7986cb" d="M19.976,11.995C13.855,10.871,13.98,4,13.98,4c-7.17,10.218-0.167,21.653,7.995,14.99c0.798,5.831-4.811,16.414-4.997,16.989c-1.624,4.247,0.84,8.632,0.893,8.772c0.069,0.145,0.107,0.223,0.107,0.223s0.076-0.04,0.219-0.114c0.126-0.08,0.346-0.185,0.559-0.343c0.464-0.301,1.058-0.753,1.644-1.339c0.589-0.585,1.173-1.3,1.675-2.109c0.503-0.809,0.935-1.705,1.246-2.642c0.273-0.794,0.435-1.618,0.534-2.43l0.12-0.017c0,0,0.874-10.618,0.999-10.993C25.097,24.612,26.097,13.119,19.976,11.995z"/><path fill="#9fa8da" d="M44.848,15.88c-0.625-1.624-7.87-2.873-7.87-2.873S35.895,8.26,26.984,9.01s-6.995-5.996-6.995-5.996s-2.998,1.166-2.998,6.995c0,1.207,0.306,1.79,0.78,2.197c-2.769,0.502-4.777,1.79-4.777,1.79c2.757,3.811,5.999,4.935,8.994,5.007c0.53,2.64,1.215,6.417,1.088,12.17c-0.066,0.879-0.086,1.684-0.074,2.396c-0.006,0.145-0.008,0.277-0.014,0.424c0.009,0.003,0.017,0.004,0.025,0.007c0.063,1.859,0.308,2.991,0.308,2.991s0.583,6.662,6.662,7.995c0,0-2.367-6.634-0.999-8.994c0.75-0.874,3.373-0.375,5.996,0s1.999,2.998,1.999,2.998s5.122-3.623,3.997-5.996c-1.124-2.373-6.371-1.999-8.994-1.999s-2.998-3.373-2.998-4.997c0-1.624,1.624-4.997,3.997-4.997s3.498,3.997,7.995,3.997s2.998-6.995,2.998-6.995S45.472,17.504,44.848,15.88z M16.991,14.643c0.996-0.611,5.235-1.594,6.995,1.834C23.986,16.478,19.369,18.549,16.991,14.643z"/><path fill="#283593" d="M28.983,12.008c0,0,3.445,1.999,3.997,1.999c0.552,0,0.999-0.447,0.999-0.999c0-0.552-0.447-0.999-0.999-0.999C32.429,12.008,28.983,12.008,28.983,12.008z"/><path fill="#3f51b5" d="M40.934,13.882l-0.013,0.036c0,0,2.803,2.838,3.053,4.087c0,0,1.499-0.5,0.874-2.124C44.549,15.103,42.775,14.421,40.934,13.882z"/></svg>