<svg xmlns="http://www.w3.org/2000/svg"  viewBox="0 2 48 48" width="1600px" height="1600px"><path fill="#283593" d="M26,47c0,0-2.417-6.667-1-9L10,27.129C8.25,32.295,1,35,1,35c3.511,2.82,6.94,2.222,8.727,1.582c-0.025,0.063-0.062,0.123-0.086,0.186c-0.368,0.976-0.61,1.959-0.721,2.871c-0.117,0.907-0.107,1.74-0.053,2.357c0.008,0.295,0.066,0.564,0.083,0.731C8.982,42.905,9,43,9,43s0.096-0.014,0.275-0.041c0.163-0.038,0.437-0.07,0.718-0.158c0.601-0.149,1.392-0.41,2.212-0.815c0.826-0.401,1.678-0.949,2.482-1.614c0.101-0.084,0.19-0.187,0.288-0.275c-0.013,0.627,0.005,1.241,0.088,1.809c0.12,0.864,0.342,1.632,0.552,2.192c0.083,0.271,0.208,0.508,0.267,0.659C15.959,44.916,16,45,16,45s0.088-0.033,0.253-0.094c0.147-0.069,0.401-0.154,0.648-0.293c0.538-0.261,1.229-0.664,1.911-1.207c0.522-0.409,1.026-0.92,1.505-1.473C20.844,43.707,22.246,46.177,26,47z"/><path fill="#3f51b5" d="M36.657 26.221c-.056.016-.128.052-.153.046-.034.001-.047-.004-.08.003-.085.023-.133.036-.133.036l1.084 1.681c0 0 .031-.039.086-.108.044-.05.098-.111.159-.18.068-.076.092-.13.146-.206.185-.286.377-.652.559-1.02C38.687 25.738 39 25 39 25s-.693.412-1.394.778C37.257 25.96 36.904 26.13 36.657 26.221zM33.8 25.096c-.053.014-.117.043-.138.032-.033 0-.038-.009-.078.001-.08.019-.125.03-.125.03l1.082 1.682c0 0 .029-.037.079-.103.04-.047.089-.103.145-.168.067-.074.093-.129.141-.2.173-.274.346-.623.507-.972C35.732 24.7 36 24 36 24s-.652.38-1.311.708C34.361 24.872 34.029 25.021 33.8 25.096zM43.813 21.308L39.248 18.832 38 23 40.977 20.767 40 25zM36 21L39.248 18.832 36.752 17.168zM28 41c0 0-3.25-4-1-7 1.97-2.627-4.878-6.661-4.922-6.792C22.027 27.072 11 22.129 11 22.129c-1.75 5.167-8 6.926-8 6.926 3.917 2.546 6.329 2.123 7.66 1.343-.342.88-.563 1.77-.676 2.586-.117.82-.122 1.568-.085 2.12.002.264.049.504.061.653C9.986 35.915 10 36 10 36s.084-.017.242-.048c.144-.041.384-.081.633-.172.53-.159 1.228-.427 1.954-.826.73-.396 1.492-.92 2.2-1.557.336-.301.661-.63.971-.975-.205.522-.381 1.052-.474 1.595-.155.801-.19 1.604-.136 2.334.063.734.196 1.387.337 1.868.052.231.153.443.196.574C15.973 38.928 16 39 16 39s.074-.022.212-.062c.13-.045.361-.091.577-.188.469-.175 1.072-.46 1.697-.851.616-.395 1.238-.905 1.786-1.509.27-.286.515-.599.742-.928C21.322 36.773 22.661 40.487 28 41z"/><path fill="#7986cb" d="M45.875,14.042C43.731,12.612,35,12,35,12c-0.078-0.8-0.5-2.417-5-3c-2.825-0.366-5.218-0.339-7.232-0.087C17.466,5.28,11,7.941,11,7.941c0.586,0.81,1.201,1.509,1.831,2.125C8.613,9.696,5,12,5,12c2.262,3.127,5.107,4.39,7.711,4.785C10.658,21.398,5,23,5,23c3.016,1.96,5.138,2.157,6.565,1.79c-0.084,0.283-0.18,0.573-0.242,0.843c-0.217,0.922-0.307,1.757-0.329,2.372c-0.028,0.295-0.005,0.56-0.009,0.726C10.995,28.906,11,29,11,29s0.091-0.023,0.262-0.067c0.157-0.054,0.416-0.111,0.689-0.227c0.579-0.206,1.349-0.543,2.163-1.027c0.818-0.482,1.684-1.108,2.505-1.857c0.045-0.041,0.087-0.091,0.133-0.133c-0.318,0.964-0.554,1.914-0.681,2.777c-0.15,0.985-0.177,1.862-0.153,2.502c-0.005,0.31,0.038,0.581,0.046,0.753C15.988,31.903,16,32,16,32s0.09-0.036,0.26-0.104c0.155-0.076,0.413-0.17,0.681-0.326c0.571-0.29,1.325-0.74,2.113-1.349c0.791-0.607,1.62-1.37,2.395-2.254c-0.019,0.066-0.046,0.134-0.065,0.2c-0.315,1.146-0.499,2.27-0.573,3.274c-0.077,1.002-0.04,1.887,0.03,2.529c0.017,0.312,0.08,0.581,0.102,0.754C20.981,34.904,21,35,21,35s0.088-0.044,0.252-0.126c0.149-0.09,0.401-0.205,0.657-0.383c0.549-0.339,1.27-0.853,2.013-1.531c0.556-0.503,1.127-1.096,1.676-1.759C25.481,33.106,25.939,35.745,29,37c0,0-0.667-5.083,2-7s5,2,5,2l3.697-3.072c0.456-0.456,0.324-1.224-0.26-1.497C36.66,26.133,30,24.854,30,20c3.083-4,7.313-1.25,12,2c0,0,0.438,0,1,0c2.125-0.375,1.357-3.887,2.875-4.958C48,15.542,46.625,14.542,45.875,14.042z"/><path fill="#9fa8da" d="M45.875,14.042C43.731,12.612,35,12,35,12c-0.078-0.8-0.5-2.417-5-3c-7.004-0.908-11.392,0.58-13.767,1.997C10.762,8.305,5,12,5,12c3.692,5.103,8.937,5.254,12.147,4.74c-0.044,0.097-0.1,0.192-0.142,0.288c-0.407,0.948-0.687,1.904-0.851,2.778c-0.167,0.872-0.215,1.663-0.208,2.247c-0.013,0.28,0.022,0.532,0.026,0.69C15.991,22.911,16,23,16,23s0.088-0.02,0.252-0.058c0.15-0.047,0.4-0.096,0.661-0.199c0.554-0.182,1.288-0.484,2.058-0.925c0.773-0.439,1.587-1.014,2.352-1.706c0.309-0.279,0.604-0.586,0.896-0.898c-0.085,0.19-0.185,0.378-0.262,0.569c-0.403,1.001-0.677,2.003-0.834,2.914c-0.161,0.909-0.2,1.728-0.187,2.33c-0.01,0.289,0.028,0.548,0.034,0.71C20.989,25.908,21,26,21,26s0.089-0.026,0.255-0.073c0.152-0.057,0.405-0.121,0.669-0.242c0.56-0.219,1.302-0.571,2.079-1.069c0.749-0.476,1.533-1.09,2.275-1.808C25.446,18.209,27.339,12.79,43,16c-10.768,1.243-11.625,2.25-13,4c3.083-4,7.313-1.25,12,2c0,0,0.438,0,1,0c2.125-0.375,1.357-3.887,2.875-4.958C48,15.542,46.625,14.542,45.875,14.042z M9,12.647c0.997-0.611,5.239-1.595,7,1.836C16,14.483,11.38,16.555,9,12.647z"/><path fill="#3f51b5" d="M45.875,14.042c-0.592-0.395-1.702-0.722-2.99-0.991c2.076,1.583,2.99,3.991,2.99,3.991C48,15.542,46.625,14.542,45.875,14.042z"/><path fill="#283593" d="M27,11c0,0,3.448,2,4,2s1-0.448,1-1s-0.448-1-1-1S27,11,27,11z"/></svg>