<svg xmlns="http://www.w3.org/2000/svg"  viewBox="0 0 48 48" width="1600px" height="1600px"><path fill="#5c6bc0" d="M15,29c0,0-5.5-1.375-11-8c3.625-7.25,13-9,13-9L15,29z M35,39.001c0,0,1.875,3.999,9,3.999c-0.625-4.125-3-6.999-3-6.999s2-3.5,2-7c-3.063,0-7.625,3.5-8,6S35,39.001,35,39.001z"/><path fill="#3f51b5" d="M24.833,20.001c0.242-0.121,2.437,5.083,1.879,6.129c-0.558,1.046-4.879,0.871-4.879,0.871S20.057,22.39,24.833,20.001z"/><path fill="#303f9f" d="M16.015,20.371c-1.926,1.106-4.329,3.004-6.112,6.075c-0.516-0.354-1.061-0.761-1.619-1.209c2.4-4.067,5.748-6.226,8.017-7.287L16.015,20.371z M16.543,15.883l0.266-2.259c-2.939,1.042-8.447,3.587-11.592,8.753c0.494,0.529,0.983,1.015,1.466,1.467C9.18,19.471,13.666,17.051,16.543,15.883z"/><path fill="#9fa8da" d="M34.833,39.001c-2.75,0.875-10-1-10-1s-13,0.5-13-15C11.833,5.126,31,5,31,5s9.458-0.124,9.833,3.001c-2.75,0.625-5,4-5,4s2.75-2,6-2c0,5.375-8,7-8,7s-11.125,0.625-11,8s12.167,10,12.167,10l1.833,2L34.833,39.001z"/><path fill="#7986cb" d="M41.833,10.001c0,0.751-0.168,1.422-0.437,2.032c-2.348,0.167-4.372,1.575-4.393,1.59c-0.351,0.251-0.76,0.374-1.167,0.374c-0.505,0-1.007-0.189-1.391-0.562c-0.694-0.672-0.812-1.74-0.276-2.544c0.248-0.372,2.318-3.363,5.233-4.524c0.792,0.411,1.348,0.938,1.431,1.634c-2.75,0.625-5,4-5,4S38.583,10.001,41.833,10.001z M17.838,29.723c0.363,0.171,0.704,0.277,0.995,0.277c3.306,0,2-9,2-9s-0.25,6.917-2,7c-0.576,0.027-1.206-0.274-1.793-0.727c-0.146-0.113-0.29-0.236-0.429-0.366c-0.005-0.005-0.01-0.009-0.015-0.014c-0.279-0.261-0.54-0.55-0.772-0.846c-0.007-0.009-0.014-0.018-0.021-0.028c-0.103-0.132-0.198-0.265-0.288-0.398c-0.014-0.021-0.029-0.042-0.043-0.063c-0.185-0.28-0.336-0.555-0.445-0.809c-0.014-0.032-0.025-0.063-0.037-0.094c-0.036-0.092-0.066-0.18-0.09-0.264c-0.009-0.032-0.019-0.064-0.026-0.095c-0.025-0.106-0.041-0.207-0.041-0.295c0-0.092,0.031-0.203,0.076-0.325c0.007-0.018,0.012-0.036,0.02-0.055c0.049-0.12,0.118-0.252,0.201-0.392c0.015-0.025,0.03-0.05,0.045-0.075c0.089-0.146,0.191-0.298,0.307-0.458c0.012-0.016,0.025-0.033,0.037-0.05c0.122-0.166,0.253-0.338,0.394-0.513c0.004-0.005,0.008-0.01,0.012-0.015c0.143-0.177,0.295-0.357,0.45-0.536c0.021-0.024,0.041-0.048,0.062-0.072c0.151-0.173,0.305-0.346,0.458-0.515c0.021-0.023,0.042-0.046,0.063-0.068c0.156-0.171,0.312-0.338,0.462-0.497c0.007-0.007,0.013-0.014,0.02-0.021c0.147-0.155,0.287-0.3,0.421-0.437c0.198-0.204,0.38-0.387,0.529-0.536c1.539-2.689,3.849-4.581,5.17-5.516c0.25,2.793,1.798,4.512,2.711,5.301c1.229-0.637,2.038-1.031,3.059-1.353l0.011-0.029c0,0-0.038-0.009-0.11-0.025c-0.043-0.005-0.135-0.008-0.265-0.067c-3.133-1.413-5.299-6.08-2.886-12.093C20.452,6.974,11,10.961,11,23c0,21.083,21.25,17.167,24,16.001l1.833-2C36.833,37.001,21.871,38.253,17.838,29.723z"/><path fill="#283593" d="M29.833,8.501c0,0.828,0.672,1.5,1.5,1.5s1.5-1.095,1.5-3c0,0-0.672,0-1.5,0S29.833,7.672,29.833,8.501z"/></svg>