<svg xmlns="http://www.w3.org/2000/svg"  viewBox="0 0 48 48" width="1600px" height="1600px"><path fill="#5C6BC0" d="M26,9.5c0,3-0.9,5.5-2,5.5s-2-2.5-2-5.5S24,4,24,4S26,6.5,26,9.5z M4,18c0,0,1.7,2.7,4.6,3.7s5.6,1,5.9-0.1c0.4-1-1.7-2.7-4.6-3.7S4,18,4,18z M44,18c0,0-3-1-5.9,0s-4.9,2.7-4.5,3.7s3,1,5.9,0S44,18,44,18z M36,42c0,0,0.2-3.2-1.5-5.6c-1.8-2.5-3.9-4-4.8-3.3c-0.9,0.6-0.2,3.2,1.5,5.6C32.9,41.2,36,42,36,42z M16.8,38.7c1.8-2.5,2.4-5,1.5-5.6s-3.1,0.9-4.8,3.3S12,42,12,42S15.1,41.2,16.8,38.7z"/><path fill="#3949AB" d="M23,14l1-10l1,10H23z M13.9,20.4L4,18l9.3,4.3L13.9,20.4z M34.9,22.3L44,18l-9.7,2.4L34.9,22.3z M29.4,34.4L36,42l-5-8.7L29.4,34.4z M17,33.3L12,42l6.6-7.6L17,33.3z"/><path fill="#C5CAE9" d="M44.5,23.2c-0.9-2.5-2.5-1.8-4.4-0.6c-1.4,0.9-3.3-0.3-3.8-1.9s0.2-3.6,1.9-3.8c2.2-0.2,4-0.7,3.1-3.2c0,0-1.9-2.8-5.3-5.4C32.7,5.8,29,5,29,5c-2.7,0-2.5,1.8-2,4c0.4,1.6-1.3,3-3,3s-3.4-1.4-3-3c0.5-2.2,0.7-4-2-4c0,0-3.7,0.8-7,3.3c-3.3,2.6-5.3,5.4-5.3,5.4c-0.9,2.5,0.9,3,3.1,3.2c1.6,0.2,2.4,2.2,1.9,3.8s-2.4,2.7-3.8,1.9c-1.9-1.2-3.6-1.9-4.4,0.6c0,0-0.6,3.6,1,8.3c1.7,4.7,3.9,7,3.9,7c2.2,1.5,3.1-0.1,3.9-2.1c0.6-1.5,2.8-1.7,4.2-0.7s2,3.1,0.7,4.2c-1.7,1.5-2.8,2.9-0.7,4.4c0,0,1.3,0.7,7.4,0.8c6.1,0,7.4-0.8,7.4-0.8c2.2-1.5,1-2.9-0.7-4.4c-1.2-1.1-0.6-3.2,0.7-4.2c1.4-1,3.6-0.8,4.2,0.7c0.8,2.1,1.7,3.7,3.9,2.1c0,0,2.3-2.3,3.9-7C45.2,26.8,44.5,23.2,44.5,23.2z"/><path fill="#7986CB" d="M44.5,23.2c-0.9-2.5-2.5-1.8-4.4-0.6c-1.4,0.9-3.3-0.3-3.8-1.9s0.2-3.6,1.9-3.8c2.2-0.2,4-0.7,3.1-3.2c0,0-3.7-2.2-7.3-2.8C32.6,7.7,29,5,29,5c-2.7,0-2.5,1.8-2,4c0.4,1.6-1.3,3-3,3s-3.4-1.4-3-3c0.5-2.2,0.7-4-2-4c0,0-3.6,2.7-4.9,5.9c-3.7,0.6-7.3,2.8-7.3,2.8c-0.9,2.5,0.9,3,3.1,3.2c1.6,0.2,2.4,2.2,1.9,3.8S9.4,23.4,8,22.6c-1.9-1.2-3.6-1.9-4.4,0.6c0,0,0.7,4.4,4.5,6.8c-1.4,3.8,0.4,8.5,0.4,8.5c2.2,1.5,3.1-0.1,3.9-2.1c0.6-1.5,2.8-1.7,4.2-0.7s2,3.1,0.7,4.2c-1.7,1.5-2.8,2.9-0.7,4.4c0,0,3.6,0.1,7.4-3.3c3.8,3.3,7.4,3.3,7.4,3.3c2.2-1.5,1-2.9-0.7-4.4c-1.2-1.1-0.6-3.2,0.7-4.2c1.4-1,3.6-0.8,4.2,0.7c0.8,2.1,1.7,3.7,3.9,2.1c0,0,1.9-4.7,0.4-8.5C43.9,27.6,44.5,23.2,44.5,23.2z"/><path fill="#5C6BC0" d="M40.1,30c0.4-0.2,0.7-0.5,1-0.8l-15.4-4.1l9.4-14c-0.3-0.1-0.7-0.2-1-0.2c-0.1-0.4-0.3-0.7-0.5-1l-9.4,13.7L14.7,9.9c-0.2,0.4-0.4,0.7-0.5,1.1c-0.3,0.1-0.7,0.1-1,0.2l9.3,14.1L7,29.2c0.3,0.3,0.7,0.5,1,0.8c-0.1,0.4-0.2,0.7-0.3,1.1l15.3-3.9l0,14.6c0.3-0.2,0.6-0.5,1-0.8c0.3,0.3,0.7,0.6,1,0.8l0-14.8l15.3,4.1C40.3,30.7,40.2,30.4,40.1,30z"/><path fill="#303F9F" d="M23,33.2c0-1.6,0.5-2.8,1-2.8s1,1.3,1,2.8c0,1.6-1,2.8-1,2.8S23,34.8,23,33.2z M34.2,28.8c0,0-0.9-1.4-2.4-1.9c-1.5-0.5-2.9-0.5-3,0s0.9,1.4,2.4,1.9S34.2,28.8,34.2,28.8z M13.7,28.8c0,0,1.5,0.5,3,0s2.5-1.4,2.3-1.9s-1.5-0.5-3,0C14.6,27.5,13.7,28.8,13.7,28.8z M17.8,16.5c0,0-0.1,1.6,0.8,2.9s2,2,2.5,1.7s0.1-1.6-0.8-2.9C19.4,17,17.8,16.5,17.8,16.5z M27.7,18.3c-0.9,1.3-1.3,2.6-0.8,2.9s1.6-0.4,2.5-1.7c0.9-1.3,0.8-2.9,0.8-2.9S28.6,17,27.7,18.3z"/><path fill="#E8EAF6" d="M13.5,26.2c0.4,1.3,1.3,0.9,2.3,0.3c0.7-0.4,1.7,0.1,2,1c0.3,0.8-0.1,1.9-1,2c-1.1,0.1-2,0.3-1.6,1.6c0,0,1,1.4,2.7,2.8c1.7,1.3,3.6,1.7,3.6,1.7c1.4,0,1.3-0.9,1-2c-0.2-0.8,0.7-1.5,1.5-1.5s1.7,0.7,1.5,1.5c-0.3,1.1-0.3,2,1,2c0,0,1.9-0.4,3.6-1.7s2.7-2.8,2.7-2.8c0.4-1.3-0.5-1.5-1.6-1.6c-0.8-0.1-1.2-1.2-1-2s1.2-1.4,2-1c1,0.6,1.8,1,2.3-0.3c0,0,0.3-1.8-0.5-4.2c-0.9-2.4-2-3.6-2-3.6c-1.1-0.8-1.6,0-2,1.1c-0.3,0.8-1.4,0.9-2.1,0.4s-1-1.6-0.4-2.1c0.8-0.8,1.5-1.5,0.3-2.3c0,0-0.7-0.4-3.8-0.4s-3.8,0.4-3.8,0.4c-1.1,0.8-0.5,1.5,0.3,2.3c0.6,0.6,0.3,1.7-0.4,2.1c-0.7,0.5-1.8,0.4-2.1-0.4c-0.4-1.1-0.9-1.9-2-1.1c0,0-1.2,1.2-2,3.6C13.1,24.3,13.5,26.2,13.5,26.2z"/><path fill="#C5CAE9" d="M32.2,22.7c0.7-2-0.2-4.4-0.2-4.4c-1.1-0.8-1.6,0-2,1.1c-0.3,0.8-1.4,0.9-2.1,0.4s-1-1.6-0.4-2.1c0.8-0.8,1.5-1.5,0.3-2.3c0,0-1.9,0-3.8,1.7c-1.9-1.7-3.8-1.7-3.8-1.7c-1.1,0.8-0.5,1.5,0.3,2.3c0.6,0.6,0.3,1.7-0.4,2.1c-0.7,0.5-1.8,0.4-2.1-0.4c-0.4-1.1-0.9-1.9-2-1.1c0,0-1,2.4-0.2,4.4c-2,1.2-2.3,3.5-2.3,3.5c0.4,1.3,1.3,0.9,2.3,0.3c0.7-0.4,1.7,0.1,2,1c0.3,0.8-0.1,1.9-1,2c-1.1,0.1-2,0.3-1.6,1.6c0,0,1.9,1.1,3.8,1.4c0.7,1.7,2.5,3,2.5,3c1.4,0,1.3-0.9,1-2C22.3,32.7,23.2,32,24,32s1.7,0.7,1.5,1.5c-0.3,1.1-0.3,2,1,2c0,0,1.9-1.4,2.5-3c1.9-0.3,3.8-1.4,3.8-1.4c0.4-1.3-0.5-1.5-1.6-1.6c-0.8-0.1-1.2-1.2-1-2c0.3-0.8,1.2-1.4,2-1c1,0.6,1.8,1,2.3-0.3C34.5,26.2,34.2,23.9,32.2,22.7z M24,27c-1.1,0-2-0.9-2-2s0.9-2,2-2s2,0.9,2,2S25.1,27,24,27z"/></svg>