<svg xmlns="http://www.w3.org/2000/svg"  viewBox="0 0 48 48" width="1600px" height="1600px"><path fill="#2196f3" d="M44,24c0,11.044-8.956,20-20,20S4,35.044,4,24S12.956,4,24,4S44,12.956,44,24z"/><path fill="#fff" d="M31.684 23.867l-2.48 1.441L22.43 13.652c-.27-.465-.113-1.063.355-1.336l.793-.461c.465-.27 1.063-.113 1.332.355L31.684 23.867zM29.48 25.789l2.48-1.441 1.438 2.469-2.48 1.441L29.48 25.789zM13.84 28.152l5.988-10.246 2.555 1.492-5.988 10.246L13.84 28.152zM12.285 33.375l1.234-4.676 2.555 1.496-3.469 3.367c-.059.063-.156.074-.23.031C12.297 33.547 12.262 33.461 12.285 33.375M20.035 17.547l.863-1.469c.27-.469.871-.625 1.336-.352l.867.508c.465.273.621.871.348 1.336l-.859 1.473L20.035 17.547zM33.023 27.578c-.402.23-1.004.586-1.359.797-.664.395-.152 1.559 0 1.809.859 1.441 1.746 1.238 2.414 2.258.367.559.266.805.379.992.047.066.191.133.246.055 1.031-1.426.73-3.879-.02-4.973C34.336 28.004 33.703 27.191 33.023 27.578M36.637 25.41h-3.563l-1.555-2.855h5.117V25.41zM28.617 25.41h-9.293l1.586-2.855h6.121L28.617 25.41zM14.945 25.41h-3.617v-2.855h5.309L14.945 25.41z"/></svg>