<svg xmlns="http://www.w3.org/2000/svg"  viewBox="0 0 48 48" width="1600px" height="1600px"><path fill="#424242" d="M34,42H14c-4.411,0-8-3.589-8-8V14c0-4.411,3.589-8,8-8h20c4.411,0,8,3.589,8,8v20	C42,38.411,38.411,42,34,42z"/><path fill="#f50057" d="M24,38c-7.72,0-14-6.28-14-14s6.28-14,14-14s14,6.28,14,14S31.72,38,24,38z M24,13	c-6.065,0-11,4.935-11,11s4.935,11,11,11s11-4.935,11-11S30.065,13,24,13z"/><path fill="#d4e157" d="M24,34c-5.514,0-10-4.486-10-10s4.486-10,10-10s10,4.486,10,10S29.514,34,24,34z M24,17	c-3.859,0-7,3.14-7,7s3.141,7,7,7s7-3.14,7-7S27.859,17,24,17z"/><path fill="#26c6da" d="M24,30c-3.309,0-6-2.691-6-6s2.691-6,6-6s6,2.691,6,6S27.309,30,24,30z M24,21c-1.654,0-3,1.346-3,3	s1.346,3,3,3s3-1.346,3-3S25.654,21,24,21z"/><path fill="#00897b" d="M26.9,18.74C26.04,18.27,25.05,18,24,18l1,1.5L24,21c0.75,0,1.45,0.29,1.98,0.75	C26.6,21.2,27,20.39,27,19.5C27,19.24,26.97,18.98,26.9,18.74z"/><path fill="#26c6da" d="M25.5,19.5c0,0.828-0.672,1.5-1.5,1.5v-3C24.828,18,25.5,18.672,25.5,19.5z"/><path fill="#9e9d24" d="M26.78,14.4C25.9,14.14,24.97,14,24,14l1,1.5L24,17c0.81,0,1.6,0.14,2.32,0.4	c0.42-0.52,0.68-1.19,0.68-1.9C27,15.11,26.92,14.74,26.78,14.4z"/><path fill="#d4e157" d="M25.5,15.5c0,0.828-0.672,1.5-1.5,1.5v-3C24.828,14,25.5,14.672,25.5,15.5z"/><path fill="#c2185b" d="M26.73,10.26C25.85,10.09,24.93,10,24,10l1,1.5L24,13c0.83,0,1.64,0.09,2.42,0.27	c0.36-0.5,0.58-1.11,0.58-1.77C27,11.06,26.9,10.64,26.73,10.26z"/><path fill="#f50057" d="M25.5,11.5c0,0.828-0.672,1.5-1.5,1.5v-3C24.828,10,25.5,10.672,25.5,11.5z"/></svg>