<svg xmlns="http://www.w3.org/2000/svg"  viewBox="0 0 48 48" width="1600px" height="1600px"><path fill="#4b4b4b" d="M8.653 17.61c-.559.684-1.453 1.224-2.348 1.146-.111-.924.327-1.908.84-2.514C7.703 15.539 8.681 15.038 9.473 15 9.566 15.963 9.203 16.907 8.653 17.61M9.369 19.235c-1.304 0-2.237.706-2.846.706-.619 0-1.542-.697-2.609-.697-1.304 0-2.581.812-3.255 1.996-1.384 2.367-.36 5.872.978 7.799C2.293 29.993 3.084 31 4.151 31c.978-.037 1.309-.588 2.49-.588C7.831 30.412 8.183 31 9.25 31s1.714-.97 2.369-1.925c.748-1.082 1.052-2.138 1.07-2.193-.018-.018-2.066-.798-2.085-3.147-.018-1.963 1.615-2.9 1.689-2.955-.923-1.357-2.45-1.546-2.805-1.546H9.369zM22.688 17H17.25v13.999h2.265v-4.666h3.099c2.844 0 4.887-1.937 4.887-4.666S25.495 17 22.688 17zM22.137 24.466h-2.622v-5.6h2.622c1.952 0 3.099 1.031 3.099 2.8S24.098 24.466 22.137 24.466zM32.752 20.5c-2.39 0-4.156 1.324-4.222 3.144h2.027c.167-.865.995-1.432 2.13-1.432 1.376 0 2.154.621 2.154 1.766l.001.79-2.814.147C29.414 25.068 28 26.105 28 27.907c0 1.82 1.46 3.028 3.552 3.028 1.413 0 2.725-.693 3.319-1.793h.046v1.685H37v-6.992C37.001 21.806 35.327 20.5 32.752 20.5zM34.834 27.014c0 1.316-1.153 2.253-2.678 2.253-1.199 0-1.962-.559-1.962-1.414 0-.883.734-1.396 2.139-1.478l2.508-.184L34.834 27.014zM45.691 20.5l-2.675 8.588H42.97L40.294 20.5H37.92l3.848 10.584-.206.644c-.348 1.091-.91 1.511-1.914 1.511-.172 0-.497-.017-.647-.036v1.745C39.152 34.982 39.68 35 39.844 35c2.215 0 3.256-.839 4.167-3.385L48 20.5H45.691z"/></svg>