<svg xmlns="http://www.w3.org/2000/svg"  viewBox="0 0 48 48" width="1600px" height="1600px"><path fill="#455A64" d="M42,37c0,2.762-2.238,5-5,5H11c-2.762,0-5-2.238-5-5V11c0-2.762,2.238-5,5-5h26c2.762,0,5,2.238,5,5V37z"/><path fill="#80D8FF" d="M15.869 18.839c.397-.458 1.033-.764 1.589-.839.08.61-.158 1.22-.476 1.603-.397.456-.954.762-1.589.762C15.234 19.831 15.473 19.296 15.869 18.839zM19.285 26.54c-.477.612-1.111 1.452-1.827 1.452-.714 0-.873-.459-1.747-.382-.953 0-1.111.457-1.826.382-.795 0-1.351-.688-1.748-1.374-1.191-1.754-1.35-3.891-.555-5.034.555-.764 1.35-1.22 2.144-1.22s1.351.456 1.985.456c.636 0 1.033-.456 1.986-.456.714 0 1.43.381 1.985.992-1.747.914-1.431 3.278.317 3.966C19.683 25.856 19.523 26.084 19.285 26.54zM25.521 18v1.839h2.196V21h-2.196v4.279c0 .961.254 1.52 1.184 1.52.422 0 .675 0 .844-.08l.085 1.121C27.38 27.919 26.873 28 26.281 28c-.676 0-1.267-.24-1.689-.641C24.17 26.879 24 26.24 24 25.279V21h-1.268v-1.161H24v-1.439L25.521 18zM30.604 20l1.69 4.479c.254.722.508 1.361.676 2.08h.084c.17-.639.423-1.279.677-2.08L35.338 20h1.604l-3.294 8h-1.437L29 20H30.604z"/></svg>