<svg xmlns="http://www.w3.org/2000/svg"  viewBox="0 0 48 48" width="1600px" height="1600px"><path fill="#cfd8dc" d="M42,37c0,2.762-2.238,5-5,5H11c-2.762,0-5-2.238-5-5V11c0-2.762,2.238-5,5-5h26c2.762,0,5,2.238,5,5	V37z"/><path fill="#1f212b" d="M32,38H16c-1.105,0-2-0.895-2-2V12c0-1.105,0.895-2,2-2h16c1.105,0,2,0.895,2,2v24	C34,37.105,33.105,38,32,38z"/><path fill="#757575" d="M30,18H18c-0.552,0-1-0.448-1-1v-4c0-0.552,0.448-1,1-1h12c0.552,0,1,0.448,1,1v4	C31,17.552,30.552,18,30,18z"/><circle cx="18" cy="22" r="2" fill="#e0e0e0"/><circle cx="24" cy="22" r="2" fill="#e0e0e0"/><circle cx="30" cy="22" r="2" fill="#ffab40"/><circle cx="18" cy="28" r="2" fill="#e0e0e0"/><circle cx="24" cy="28" r="2" fill="#e0e0e0"/><circle cx="30" cy="28" r="2" fill="#ffab40"/><circle cx="30" cy="34" r="2" fill="#ffab40"/><path fill="#e0e0e0" d="M24,36h-6c-1.105,0-2-0.895-2-2v0c0-1.105,0.895-2,2-2h6c1.105,0,2,0.895,2,2v0	C26,35.105,25.105,36,24,36z"/></svg>