<svg xmlns="http://www.w3.org/2000/svg"  viewBox="0 0 48 48" width="1600px" height="1600px"><path fill="#eceff1" d="M6,10c0-2.209,1.791-4,4-4h28c2.209,0,4,1.791,4,4v28c0,2.209-1.791,4-4,4H10c-2.209,0-4-1.791-4-4	V10z"/><path fill="#66bb6a" d="M40,24c0,8.84-7.16,16-16,16S8,32.84,8,24c0-5.99,3.28-11.2,8.15-13.95C18.47,8.75,21.15,8,24,8	s5.53,0.75,7.85,2.05C36.72,12.8,40,18.01,40,24z"/><circle cx="24" cy="24" r="11" fill="#a5d6a7"/><circle cx="24" cy="24" r="10" fill="#81c784"/><path fill="#00b8d4" d="M31.85,10.05l-2.46,4.36C27.8,13.51,25.96,13,24,13s-3.8,0.51-5.39,1.41l-2.46-4.36	C18.47,8.75,21.15,8,24,8S29.53,8.75,31.85,10.05z"/><path fill="#2979ff" d="M28.9,15.29L24,24l-4.9-8.71C20.55,14.47,22.22,14,24,14S27.45,14.47,28.9,15.29z"/><circle cx="24" cy="24" r="4" fill="#eceff1"/><circle cx="24" cy="24" r="3" fill="#2979ff"/><path fill="#00b0ff" d="M29.39,14.41l-0.49,0.88C27.45,14.47,25.78,14,24,14s-3.45,0.47-4.9,1.29l-0.49-0.88	C20.2,13.51,22.04,13,24,13S27.8,13.51,29.39,14.41z"/></svg>