<svg xmlns="http://www.w3.org/2000/svg"  viewBox="0 0 48 48" width="1600px" height="1600px"><path fill="#e28b20" d="M37,42H10c-2.761,0-5-2.239-5-5V10c0-2.761,2.239-5,5-5h27c2.761,0,5,2.239,5,5v27	C42,39.761,39.761,42,37,42z"/><path fill="#ed5d40" d="M37,42H24V5h13c2.761,0,5,2.239,5,5v27C42,39.761,39.761,42,37,42z"/><path fill="#f5f5f5" d="M39.81,6.11L39.8,6.12l-0.07,0.06c0.7,0.68,1.26,1.5,1.65,2.41c0.01-0.01,0.02-0.02,0.03-0.03	c0.02-0.02,0.03-0.03,0.05-0.05C41.07,7.6,40.51,6.79,39.81,6.11z M20.35,16.78c-2.04,0.27-3.98,0.27-6.11,2.4	c-3.5,3.5-3.94,8.75,0.44,13.45c3.09,2.88,6.41,3.68,9.32,2.9V22.35l-1.63-1.63l1.37-1.37L24,19.61v-7.38	C22.98,13.91,22.87,16.47,20.35,16.78z M23.92,27.18l-1.38,1.38l-4.05-4.06l1.37-1.37L23.92,27.18z"/><path fill="#e0e0e0" d="M36.55,20.68c0,4.16-5.55,2.5-6.01,6.29c-0.28,2.04-0.28,3.98-2.4,6.11c-1.2,1.2-2.61,2.04-4.14,2.45	V22.35l2.42,2.43l1.38-1.38L24,19.61v-7.38c0.51-0.85,1.25-1.47,2.64-1.47c1.7,0-0.92,3.98,2.06,5.08c0.23,0.08,0.49,0.01,0.67-0.15	c3.522-3.258,7.045-6.516,10.568-9.773c0.29,0.204,0.696,0.539,1.07,1.044c0.371,0.501,0.573,0.981,0.685,1.317	C38.453,11.417,34.9,14.87,31.66,18c-0.18,0.17-0.25,0.44-0.16,0.67C32.63,21.57,36.55,18.99,36.55,20.68z"/></svg>