<svg xmlns="http://www.w3.org/2000/svg"  viewBox="0 0 48 48" width="1600px" height="1600px"><path fill="#F5F5F5" d="M33,6H15c-4.967,0-9,4.033-9,9v18c0,4.967,4.033,9,9,9h18c4.967,0,9-4.033,9-9V15C42,10.033,37.967,6,33,6z"/><path fill="#1976D2" d="M16,13h-0.747l-0.093,0.183c-0.373,0.55-2.083,3.026-5.16,3.484l0.093,0.917c2.424-0.367,3.881-1.741,4.907-2.841v4.464c0.32-0.258,0.648-0.492,1-0.685V13z"/><path fill="#00B8D4" d="M16,18.521c-0.352,0.192-0.68,0.427-1,0.685v5.764c0.31-0.229,0.636-0.432,1-0.586V18.521z"/><path fill="#00BFA5" d="M16,24.384c-0.364,0.154-0.69,0.358-1,0.586v4.922c0.336-0.187,0.664-0.355,1-0.493V24.384z"/><path fill="#00E676" d="M16,33.724v-4.325c-0.336,0.138-0.664,0.306-1,0.493v4.039C15.301,33.796,15.63,33.708,16,33.724z"/><path fill="#AEEA00" d="M15,33.931V35h1v-1.276C15.63,33.708,15.301,33.796,15,33.931z"/><path fill="#1976D2" d="M22.266,17.401c1.13-2.292,3.013-3.484,5.745-3.484c1.875,0,3.341,0.575,4.447,1.668c0.342-0.086,0.683-0.168,1.025-0.248C32.146,13.795,30.296,13,28.01,13c-3.014,0-5.274,1.375-6.593,4.034c-0.157,0.305-0.277,0.612-0.398,0.919c0.347-0.018,0.694-0.03,1.041-0.064C22.13,17.726,22.19,17.56,22.266,17.401z"/><path fill="#00B8D4" d="M21.041 22.167c.167-1.702.494-3.039 1.02-4.278-.347.034-.694.046-1.041.064-.533 1.35-.768 2.721-.921 4.214-.022.317-.015.641-.024.962.309-.11.621-.21.933-.305C21.023 22.601 21.019 22.396 21.041 22.167zM34.603 17.034c-.319-.642-.695-1.206-1.121-1.697-.342.08-.683.163-1.025.248.506.5.943 1.097 1.298 1.816.383.8.662 1.643.873 2.577.312-.105.621-.224.93-.345C35.346 18.751 35.038 17.88 34.603 17.034z"/><path fill="#00BFA5" d="M21.009,22.824c-0.313,0.095-0.624,0.195-0.933,0.305c-0.044,1.551,0.073,3.119,0.338,4.603c0.271-0.111,0.548-0.206,0.824-0.302C20.983,26.029,20.895,24.518,21.009,22.824z"/><path fill="#00E676" d="M21.889 29.867c-.296-.768-.497-1.587-.651-2.437-.277.095-.553.191-.824.302.156.872.35 1.722.627 2.502.402 1.011.965 1.886 1.648 2.609.372-.083.747-.161 1.11-.253C22.976 31.897 22.313 30.982 21.889 29.867zM35.984 24.995c-.314.079-.629.157-.945.223-.071 1.515-.316 2.894-.748 4.172.344-.086.698-.162 1.051-.24C35.751 27.773 35.94 26.392 35.984 24.995z"/><path fill="#AEEA00" d="M34.291,29.39c-0.054,0.159-0.099,0.322-0.159,0.477c-0.942,2.475-3.014,4.033-5.557,4.125h-1.129c-1.398-0.05-2.644-0.557-3.648-1.402c-0.362,0.092-0.738,0.171-1.11,0.253c1.236,1.309,2.876,2.098,4.757,2.157h1.129c2.92-0.092,5.275-1.924,6.405-4.766c0.141-0.361,0.254-0.722,0.361-1.084C34.989,29.228,34.634,29.303,34.291,29.39z"/><path fill="#00BFA5" d="M35.922,22.167c-0.046-0.848-0.162-1.696-0.364-2.534c-0.308,0.121-0.617,0.24-0.93,0.345c0.152,0.672,0.273,1.384,0.352,2.189c0.102,1.091,0.104,2.09,0.059,3.051c0.316-0.067,0.631-0.145,0.945-0.223C36.014,24.06,35.987,23.119,35.922,22.167z"/></svg>