<svg xmlns="http://www.w3.org/2000/svg"  viewBox="0 0 48 48" width="1600px" height="1600px"><path fill="#FFB74D" d="M24.449 22.978c-.157-.18-.317-.357-.449-.55-.132.193-.292.371-.449.55C23.7 22.988 23.848 23 24 23S24.3 22.988 24.449 22.978zM23.293 14.808c.27.27.5.563.707.866.208-.303.438-.596.707-.866l4.949-4.95c.102-.101.218-.172.322-.264C29.77 6.471 27.177 4 24 4s-5.77 2.471-5.979 5.594c.105.092.222.163.323.264L23.293 14.808z"/><path fill="#64B5F6" d="M23.551 25.021c.157.181.317.357.449.551.132-.192.292-.37.449-.551C24.3 25.012 24.152 25 24 25S23.7 25.012 23.551 25.021zM24.707 33.191c-.27-.27-.5-.562-.707-.865-.208.305-.438.597-.707.865l-4.95 4.951c-.101.1-.217.172-.323.264C18.23 41.529 20.823 44 24 44s5.77-2.471 5.979-5.594c-.104-.092-.222-.164-.322-.264L24.707 33.191z"/><path fill="#F48FB1" d="M14.808 24.707c.27-.27.562-.5.866-.707-.303-.208-.596-.438-.866-.707l-4.95-4.95c-.101-.101-.172-.217-.264-.323C6.471 18.23 4 20.823 4 24s2.471 5.77 5.594 5.979c.092-.104.163-.222.264-.322L14.808 24.707zM22.978 23.551c-.18.157-.357.317-.55.449.193.132.371.292.55.449C22.988 24.3 23 24.152 23 24S22.988 23.7 22.978 23.551z"/><path fill="#8BC34A" d="M25 24c0 .152.012.3.021.449.181-.157.357-.317.551-.449-.192-.132-.37-.292-.551-.449C25.012 23.7 25 23.848 25 24zM44 24c0-3.177-2.471-5.77-5.594-5.979-.092.105-.164.222-.264.323l-4.951 4.95c-.27.27-.563.5-.865.707.305.208.597.438.865.707l4.951 4.949c.1.102.172.218.264.323C41.529 29.77 44 27.177 44 24z"/><path fill="#C0CA33" d="M30 17c0 .378-.039.747-.105 1.106C30.253 18.039 30.621 18 31 18h7c.137 0 .271.012.406.021 2.05-2.357 1.979-5.92-.264-8.163-2.244-2.242-5.807-2.314-8.164-.264C29.988 9.729 30 9.863 30 10V17zM25.021 23.551c.018-.223.045-.442.084-.657-.215.041-.435.067-.656.084.09.103.16.217.258.315S24.919 23.461 25.021 23.551z"/><path fill="#F9A825" d="M24.707,14.808c-0.27,0.27-0.5,0.563-0.707,0.866c1.389,2.033,1.389,4.722,0,6.754c0.132,0.193,0.292,0.371,0.449,0.55c0.223-0.017,0.441-0.043,0.656-0.084c0.453-2.425,2.362-4.335,4.787-4.787C29.961,17.747,30,17.378,30,17v-7c0-0.137-0.012-0.271-0.021-0.406c-0.104,0.092-0.222,0.163-0.322,0.264L24.707,14.808z"/><path fill="#689F38" d="M31,18c-0.379,0-0.747,0.039-1.105,0.106c-0.453,2.425-2.362,4.335-4.787,4.787c-0.041,0.215-0.067,0.435-0.084,0.657c0.18,0.157,0.356,0.317,0.55,0.449c2.032-1.389,4.723-1.389,6.754,0c0.304-0.208,0.597-0.438,0.866-0.707l4.949-4.95c0.101-0.101,0.172-0.217,0.265-0.323C38.271,18.012,38.137,18,38,18H31z"/><path fill="#827717" d="M29.895,18.106c-2.426,0.452-4.336,2.362-4.787,4.787C27.531,22.441,29.441,20.532,29.895,18.106z"/><path fill="#BA68C8" d="M18 31c0-.379.039-.747.106-1.105C17.747 29.961 17.378 30 17 30h-7c-.137 0-.271-.012-.406-.021-2.05 2.357-1.979 5.922.264 8.164 2.242 2.241 5.805 2.313 8.163.264C18.012 38.271 18 38.137 18 38V31zM22.978 24.449c-.017.223-.043.441-.084.656.215-.039.435-.066.657-.084-.09-.103-.16-.217-.258-.314S23.081 24.539 22.978 24.449z"/><path fill="#5C6BC0" d="M23.293,33.191c0.27-0.27,0.5-0.562,0.707-0.865c-1.389-2.031-1.389-4.721,0-6.754c-0.132-0.192-0.292-0.37-0.449-0.551c-0.223,0.018-0.442,0.045-0.657,0.084c-0.452,2.426-2.362,4.336-4.787,4.787C18.039,30.253,18,30.621,18,31v7c0,0.137,0.012,0.271,0.021,0.406c0.105-0.092,0.222-0.164,0.323-0.264L23.293,33.191z"/><path fill="#D81B60" d="M17,30c0.378,0,0.747-0.039,1.106-0.105c0.452-2.426,2.362-4.336,4.787-4.787c0.041-0.215,0.067-0.436,0.084-0.657c-0.18-0.157-0.357-0.317-0.55-0.449c-2.032,1.39-4.721,1.39-6.754,0c-0.304,0.208-0.596,0.438-0.866,0.707l-4.95,4.949c-0.101,0.102-0.172,0.218-0.264,0.323C9.729,29.988,9.863,30,10,30H17z"/><path fill="#880E4F" d="M18.106,29.895c2.425-0.453,4.335-2.362,4.787-4.787C20.468,25.559,18.559,27.469,18.106,29.895z"/><path fill="#FF5252" d="M23.551 22.978c-.223-.017-.442-.043-.657-.084.041.215.067.435.084.657.103-.09.217-.16.315-.258S23.461 23.081 23.551 22.978zM17 18c.378 0 .747.039 1.106.106C18.039 17.747 18 17.378 18 17v-7c0-.137.012-.271.021-.406-2.357-2.05-5.92-1.979-8.163.264-2.243 2.243-2.314 5.805-.264 8.163C9.729 18.012 9.863 18 10 18H17z"/><path fill="#EF6C00" d="M18,17c0,0.378,0.039,0.747,0.106,1.106c2.425,0.452,4.335,2.362,4.787,4.787c0.215,0.041,0.435,0.067,0.657,0.084c0.157-0.18,0.317-0.357,0.449-0.55c-1.389-2.032-1.389-4.721,0-6.754c-0.208-0.303-0.438-0.596-0.707-0.866l-4.95-4.95c-0.101-0.101-0.217-0.172-0.323-0.264C18.012,9.729,18,9.863,18,10V17z"/><path fill="#F44336" d="M14.808,23.293c0.27,0.27,0.563,0.5,0.866,0.707c2.032-1.389,4.721-1.389,6.754,0c0.193-0.132,0.371-0.292,0.55-0.449c-0.017-0.223-0.043-0.442-0.084-0.657c-2.425-0.452-4.335-2.362-4.787-4.787C17.747,18.039,17.378,18,17,18h-7c-0.137,0-0.271,0.012-0.406,0.021c0.092,0.105,0.163,0.222,0.264,0.323L14.808,23.293z"/><path fill="#DD2C00" d="M18.106,18.106c0.452,2.425,2.362,4.335,4.787,4.787C22.441,20.468,20.532,18.559,18.106,18.106z"/><path fill="#E65100" d="M24,15.673c-1.389,2.033-1.389,4.722,0,6.754C25.389,20.395,25.389,17.706,24,15.673z"/><path fill="#B71C1C" d="M15.673,24c2.033,1.389,4.722,1.389,6.754,0C20.395,22.611,17.706,22.611,15.673,24z"/><path fill="#00ACC1" d="M31 30c-.379 0-.747-.039-1.105-.105C29.961 30.253 30 30.621 30 31v7c0 .137-.012.271-.021.406 2.357 2.05 5.922 1.979 8.164-.264 2.241-2.244 2.313-5.807.264-8.164C38.271 29.988 38.137 30 38 30H31zM24.449 25.021c.223.018.441.045.656.084-.039-.215-.066-.435-.084-.656-.103.09-.217.16-.314.258S24.539 24.919 24.449 25.021z"/><path fill="#0277BD" d="M30,31c0-0.379-0.039-0.747-0.105-1.105c-2.426-0.453-4.336-2.362-4.787-4.787c-0.215-0.041-0.436-0.067-0.657-0.084c-0.157,0.18-0.317,0.356-0.449,0.55c1.39,2.032,1.39,4.723,0,6.754c0.208,0.305,0.438,0.597,0.707,0.866l4.949,4.949c0.102,0.101,0.218,0.172,0.323,0.265C29.988,38.271,30,38.137,30,38V31z"/><path fill="#00796B" d="M33.191,24.707c-0.27-0.27-0.562-0.5-0.865-0.707c-2.032,1.389-4.721,1.389-6.754,0c-0.192,0.132-0.37,0.292-0.551,0.449c0.018,0.223,0.045,0.441,0.084,0.656c2.426,0.453,4.336,2.362,4.787,4.787C30.253,29.961,30.621,30,31,30h7c0.137,0,0.271-0.012,0.406-0.021c-0.092-0.104-0.164-0.222-0.264-0.322L33.191,24.707z"/><path fill="#006064" d="M29.895,29.895c-0.453-2.426-2.362-4.336-4.787-4.787C25.559,27.531,27.469,29.441,29.895,29.895z"/><path fill="#1B5E20" d="M25.572,24c2.033,1.389,4.722,1.389,6.754,0C30.295,22.611,27.605,22.611,25.572,24z"/><path fill="#0D47A1" d="M24,32.326c1.389-2.031,1.389-4.721,0-6.754C22.611,27.605,22.611,30.295,24,32.326z"/></svg>