<svg xmlns="http://www.w3.org/2000/svg"  viewBox="0 0 48 48" width="1600px" height="1600px"><path fill="#90a4ae" d="M44,24c0,11.044-8.956,20-20,20S4,35.044,4,24S12.956,4,24,4S44,12.956,44,24z"/><path fill="#cfd8dc" d="M41,24c0,9.391-7.609,17-17,17S7,33.391,7,24S14.609,7,24,7S41,14.609,41,24z"/><path fill="#37474f" d="M35.031,12.969c-6.301,0.051-12.582,4.715-15.73,7.867c-3.168,0-7.918,1.582-9.5,4.75c1.555,0,5.215,0,7.918,0l-1.586,3.164l3.117,3.168l3.168-1.582c0,2.699,0,6.359,0,7.918c3.168-1.586,4.75-6.336,4.75-9.5c3.148-3.152,7.813-9.434,7.863-15.73l0.055-0.055C35.066,12.969,35.051,12.969,35.031,12.969z M28.75,20.832c-0.875,0-1.582-0.707-1.582-1.582s0.707-1.582,1.582-1.582s1.582,0.707,1.582,1.582S29.625,20.832,28.75,20.832z"/><path fill="#37474f" d="M18.312,32.57l-0.301-0.305c0,0-1.133,0.93-3.184,0.93l-0.02-0.004v-0.02c0-2.051,0.93-3.184,0.93-3.184l-0.305-0.305c0,0-2.508,0.977-2.512,5.391l-0.008,0.008c0.004,0,0.008,0,0.008,0C17.34,35.078,18.312,32.57,18.312,32.57z"/></svg>