<svg xmlns="http://www.w3.org/2000/svg"  viewBox="0 0 48 48" width="1600px" height="1600px"><path fill="#212121" d="M34,42H14c-4.411,0-8-3.589-8-8V14c0-4.411,3.589-8,8-8h20c4.411,0,8,3.589,8,8v20	C42,38.411,38.411,42,34,42z"/><circle cx="10" cy="24" r="2" fill="#fdce01"/><circle cx="38" cy="24" r="2" fill="#fdce01"/><rect width="4" height="2" x="10" y="23" fill="#fdce01"/><rect width="2" height="5" x="10" y="30" fill="#fff"/><rect width="5" height="2" x="9.5" y="14.5" fill="#fff" transform="rotate(90 12 15.5)"/><rect width="3" height="2" x="16.5" y="13.5" fill="#fff" transform="rotate(90 18 14.5)"/><rect width="5" height="2" x="21.5" y="14.5" fill="#fff" transform="rotate(90 24 15.5)"/><rect width="3" height="2" x="28.5" y="13.5" fill="#fff" transform="rotate(90 30 14.5)"/><rect width="5" height="2" x="33.5" y="14.5" fill="#fff" transform="rotate(90 36 15.5)"/><rect width="3" height="2" x="14.5" y="32.5" fill="#fff" transform="rotate(90 16 33.5)"/><rect width="2" height="5" x="20" y="30" fill="#fff"/><rect width="3" height="2" x="24.5" y="32.5" fill="#fff" transform="rotate(90 26 33.5)"/><rect width="2" height="5" x="30" y="30" fill="#fff"/><rect width="3" height="2" x="34.5" y="32.5" fill="#fff" transform="rotate(90 36 33.5)"/><rect width="4" height="2" x="16" y="23" fill="#fdce01"/><rect width="4" height="2" x="22" y="23" fill="#fdce01"/><rect width="4" height="2" x="28" y="23" fill="#fdce01"/><rect width="4" height="2" x="34" y="23" fill="#fdce01"/></svg>