<svg xmlns="http://www.w3.org/2000/svg"  viewBox="0 0 48 48" width="1600px" height="1600px"><path fill="#eceff1" d="M16,42h16c5.523,0,10-4.477,10-10V16c0-5.523-4.477-10-10-10H16C10.477,6,6,10.477,6,16v16	C6,37.523,10.477,42,16,42z"/><path fill="#ffc107" d="M12.783,17.974c-0.421-0.001-0.763,0.34-0.763,0.761c-0.001,0.421,0.34,0.763,0.761,0.763	c0.001,0,0.002,0,0.002,0c0.421,0.001,0.763-0.34,0.763-0.761c0.001-0.421-0.34-0.763-0.761-0.763	C12.785,17.974,12.784,17.974,12.783,17.974z"/><path fill="#ff5722" d="M15.982,21.81l1.444-0.61c0.68-1.22,1.835-1.927,3.332-1.927c0.34,0,0.659,0.043,0.962,0.113	l1.372-0.579c-0.676-0.333-1.451-0.526-2.334-0.526C18.368,18.281,16.663,19.594,15.982,21.81z M13.297,22.944v-1.569h-1.024v2.002	L13.297,22.944z"/><path fill="#f44336" d="M13.297,25.733v-2.789l-1.024,0.433v2.788L13.297,25.733z M16.742,24.148	c0-1.169,0.246-2.163,0.684-2.948l-1.444,0.61c-0.214,0.696-0.333,1.476-0.333,2.338c0,0.201,0.028,0.382,0.04,0.574l1.062-0.449	C16.75,24.23,16.742,24.192,16.742,24.148z M30.421,18.5c-0.279,0.086-0.537,0.195-0.774,0.327L30.421,18.5z M23.092,18.807	l-1.372,0.579c1.027,0.237,1.828,0.863,2.35,1.796l1.022-0.432C24.624,19.878,23.941,19.226,23.092,18.807z"/><path fill="#e91e63" d="M13.297,28.521v-2.788l-1.024,0.432v2.788L13.297,28.521z M30.421,18.5l-0.774,0.327	c-0.983,0.547-1.577,1.464-1.577,2.58c0,0.302,0.046,0.571,0.117,0.825l1.032-0.436c-0.034-0.132-0.056-0.27-0.056-0.42	c0-1.227,1.117-2.117,2.734-2.117c0.796,0,1.467,0.213,1.958,0.579l1.048-0.443c-0.694-0.684-1.735-1.113-2.974-1.113	C31.381,18.281,30.876,18.36,30.421,18.5z M16.75,24.274l-1.062,0.449c0.059,0.959,0.26,1.811,0.597,2.536l1.004-0.424	C16.954,26.121,16.766,25.26,16.75,24.274z M25.092,20.751l-1.022,0.432c0.381,0.682,0.603,1.532,0.658,2.51l1.061-0.448	C25.695,22.297,25.467,21.452,25.092,20.751z"/><path fill="#9c27b0" d="M25.609,26.108c0.146-0.602,0.242-1.247,0.242-1.96c0-0.316-0.033-0.609-0.063-0.904l-1.061,0.448 c0.009,0.153,0.03,0.296,0.03,0.456c0,0.968-0.177,1.809-0.481,2.523L25.609,26.108z M17.29,26.834l-1.004,0.424 c0.408,0.879,1.008,1.568,1.777,2.038l1.258-0.531C18.42,28.427,17.727,27.764,17.29,26.834z M13.297,28.521l-1.024,0.432v0.836 h1.024V28.521z M29.22,21.795l-1.032,0.436c0.245,0.866,0.915,1.471,2.129,1.889l1.6-0.676l-0.338-0.085 C30.122,22.995,29.406,22.527,29.22,21.795z M34.719,21.273h1.078c-0.05-0.731-0.379-1.373-0.893-1.879l-1.048,0.443 C34.328,20.189,34.635,20.684,34.719,21.273z"/><path fill="#3f51b5" d="M25.609,26.108l-1.333,0.563c-0.629,1.476-1.85,2.36-3.519,2.36c-0.528,0-1.001-0.103-1.437-0.267 l-1.258,0.531c0.752,0.459,1.648,0.728,2.695,0.728C23.3,30.023,25.019,28.541,25.609,26.108z M28.828,26.859H27.75 c0.026,0.368,0.127,0.705,0.264,1.021l0.989-0.418C28.919,27.273,28.853,27.074,28.828,26.859z M32.695,23.641l-0.779-0.196 l-1.6,0.676c0.234,0.081,0.487,0.156,0.762,0.224l1.289,0.328c0.714,0.176,1.257,0.399,1.659,0.669l1.205-0.509 C34.703,24.318,33.878,23.934,32.695,23.641z"/><path fill="#03a9f4" d="M29.003,27.463l-0.989,0.418c0.377,0.87,1.139,1.531,2.166,1.873l1.692-0.714 C30.493,29.007,29.415,28.396,29.003,27.463z M35.914,27.333c0.035-0.193,0.063-0.39,0.063-0.598c0-0.784-0.234-1.404-0.745-1.902 l-1.205,0.509c0.579,0.39,0.856,0.883,0.856,1.51c0,0.393-0.131,0.75-0.348,1.063L35.914,27.333z"/><path fill="#009688" d="M35.914,27.333l-1.379,0.583c-0.472,0.682-1.394,1.132-2.55,1.132c-0.039,0-0.074-0.006-0.112-0.007	l-1.692,0.714c0.514,0.171,1.086,0.269,1.71,0.269C34.098,30.023,35.615,28.964,35.914,27.333z"/><path fill="#37474f" d="M3.564,6.393l2.828-2.828l37.972,37.971l-2.828,2.828L3.564,6.393z"/></svg>