<svg xmlns="http://www.w3.org/2000/svg"  viewBox="0 0 48 48" width="1600px" height="1600px"><path fill="#303f9f" d="M34,42H14c-4.411,0-8-3.589-8-8V14c0-4.411,3.589-8,8-8h20c4.411,0,8,3.589,8,8v20 C42,38.411,38.411,42,34,42z"/><path fill="#1e88e5" d="M26,26.496c0-1.46,1.73-2.82,2.98-3.95l4.85,3.61c1.56,1.16,1.56,3.52,0,4.68l-1.92,1.43 C28.94,30.996,26,28.886,26,26.496z"/><path fill="#26a69a" d="M14.17,26.156l7.05-5.24c0.51-0.38,1.07-0.64,1.66-0.78c-1.98,1.81-2.14,4-2.14,6.36 c0,3.77,1.96,7.12,6.54,9.21l-0.5,0.37c-1.66,1.23-3.9,1.23-5.56,0l-7.05-5.24C12.61,29.676,12.61,27.316,14.17,26.156z"/><path fill="#00b8d4" d="M20,26.496c0-2.36,0.9-4.55,2.88-6.36c1.32-0.33,2.75-0.07,3.9,0.78l2.2,1.63 c-1.25,1.13-1.98,2.49-1.98,3.95c0,2.39,1.94,4.5,4.91,5.77l-4.63,3.44C22.7,33.616,20,30.266,20,26.496z"/><path fill="#ff6e40" d="M22,21.5c0,1.46-1.73,2.82-2.98,3.95l-4.85-3.61c-1.56-1.16-1.56-3.52,0-4.68l1.92-1.43 C19.06,17,22,19.11,22,21.5z"/><path fill="#ba68c8" d="M33.83,21.84l-7.05,5.24c-0.51,0.38-1.07,0.64-1.66,0.78c1.98-1.81,2.14-4,2.14-6.36 c0-3.77-1.96-7.12-6.54-9.21l0.5-0.37c1.66-1.23,3.9-1.23,5.56,0l7.05,5.24C35.39,18.32,35.39,20.68,33.83,21.84z"/><path fill="#ff80ab" d="M28,21.5c0,2.36-0.9,4.55-2.88,6.36c-1.32,0.33-2.75,0.07-3.9-0.78l-2.2-1.63 C20.27,24.32,21,22.96,21,21.5c0-2.39-1.94-4.5-4.91-5.77l4.63-3.44C25.3,14.38,28,17.73,28,21.5z"/></svg>