<svg xmlns="http://www.w3.org/2000/svg"  viewBox="0 0 48 48" width="1600px" height="1600px" baseProfile="basic"><circle cx="24" cy="24" r="20" fill="#0d47a1"/><path fill="#ea80fc" d="M4.271,27.142c0.162-0.046,0.318-0.118,0.445-0.248c6.234-6.388,10.877-3.546,14.975-1.037	c0.739,0.452,1.437,0.88,2.112,1.228c0.377,0.194,0.845,0.443,1.381,0.728c3.02,1.602,8.073,4.283,11.574,5.158	c0.081,0.021,0.163,0.03,0.243,0.03c0.448,0,0.855-0.303,0.969-0.758c0.135-0.535-0.191-1.078-0.728-1.212	c-3.264-0.816-8.182-3.426-11.121-4.985c-0.544-0.289-1.019-0.541-1.402-0.738c-0.61-0.314-1.277-0.724-1.984-1.156	c-3.884-2.377-9.683-5.927-16.696,0.611C4.069,25.569,4.147,26.362,4.271,27.142z"/><path fill="#4dd0e1" d="M5.492,31.567c1.543-0.059,3.648-1.17,6.631-2.754c8.257-4.383,20.736-11.01,31.156-0.185	c0.04,0.042,0.092,0.061,0.136,0.094c0.186-0.765,0.335-1.543,0.429-2.34c-11.289-10.675-24.615-3.609-32.66,0.663	c-2.506,1.332-5.097,2.711-5.974,2.52c-0.14-0.031-0.279-0.028-0.41-0.002C4.998,30.247,5.226,30.916,5.492,31.567z"/><path fill="#9575cd" d="M16.385,42.49c2.042-0.618,3.844-1.705,5.35-2.627c0.707-0.433,1.374-0.842,1.983-1.156	c0.387-0.199,0.868-0.454,1.418-0.746c2.936-1.557,7.848-4.163,11.105-4.978c0.536-0.134,0.862-0.677,0.728-1.212	c-0.134-0.537-0.68-0.862-1.212-0.728c-3.495,0.873-8.542,3.551-11.558,5.15c-0.542,0.288-1.016,0.539-1.397,0.735	c-0.676,0.348-1.374,0.775-2.112,1.228c-2.19,1.341-4.54,2.764-7.202,2.834C14.41,41.563,15.372,42.073,16.385,42.49z"/><path fill="#bbdefb" d="M40.775,34.868c0.893-1.376,1.617-2.868,2.154-4.45c-7.759-5.069-15.518-4.171-23.276,1.864 c-0.121,0.094-0.24,0.177-0.36,0.267c0.692,0.424,1.393,0.907,2.1,1.472C28.389,39.62,36.51,37.334,40.775,34.868z"/><path fill="#bbdefb" d="M5.352,31.186c0.459,1.19,1.027,2.322,1.695,3.39c2.45,1.163,6.807,2.02,12.244-2.027 C12.746,28.544,7.008,30.472,5.352,31.186z"/><path fill="#b2ebf2" d="M5.452,31.458c4.333-0.937,8.367-3.924,12.269-6.828c4.238-3.152,8.24-6.131,12.098-6.131	c5.781,0,9.995,5.054,13.354,9.998c0.066,0.097,0.151,0.17,0.24,0.235c0.214-0.879,0.391-1.772,0.484-2.693	c-3.509-4.915-7.92-9.541-14.079-9.541c-4.521,0-8.781,3.17-13.292,6.526c-3.801,2.829-7.732,5.754-11.719,6.536	c-0.003,0-0.004,0.002-0.007,0.003C4.988,30.21,5.204,30.841,5.452,31.458z"/></svg>