<svg xmlns="http://www.w3.org/2000/svg"  viewBox="0 0 48 48" width="1600px" height="1600px"><path fill="#c62828" d="M4 24.128c0 2.921.368 5.022 1.194 6.812.127.274.398.436.682.436.105 0 .212-.022.314-.069.376-.174.54-.619.367-.996-.443-.96-.736-2.044-.898-3.347-.743-1.709-1.245-3.543-1.485-5.461C4.061 22.37 4 23.247 4 24.128zM7.516 35.096c-.085.405.174.803.58.888C8.147 35.995 8.2 36 8.251 36c.347 0 .659-.242.733-.596.221-1.051.331-1.967.375-2.811-.536-.577-1.037-1.185-1.503-1.822C7.933 32.021 7.882 33.359 7.516 35.096zM36.666 34.475c-.057 1.238-.147 2.549-.287 3.951-.042.412.259.78.671.821.025.003.051.004.076.004.38 0 .707-.289.745-.675.2-2.001.306-3.836.346-5.516C37.725 33.557 37.208 34.03 36.666 34.475zM9.911 37.645c-.127.395.09.817.484.944.077.024.154.036.23.036.317 0 .611-.202.714-.52.359-1.114.622-2.108.817-3.016-.454-.335-.894-.685-1.318-1.056C10.65 35.079 10.357 36.26 9.911 37.645zM32.407 41.035c-.119.396.106.814.503.934C32.981 41.99 33.054 42 33.125 42c.322 0 .621-.209.718-.535.546-1.821.891-3.777 1.093-5.732-.527.345-1.07.667-1.63.962C33.108 38.187 32.819 39.659 32.407 41.035zM28.334 42.63c-.135.392.073.819.464.954.081.028.164.041.245.041.311 0 .602-.195.709-.505.599-1.737 1.058-3.562 1.391-5.456-.533.204-1.074.39-1.628.549C29.212 39.739 28.822 41.216 28.334 42.63zM15.255 41.181c-.176.375-.016.822.359.998.103.048.212.071.319.071.281 0 .551-.159.679-.431.608-1.291 1.067-2.534 1.418-3.727-.482-.151-.95-.333-1.416-.518C16.282 38.73 15.843 39.932 15.255 41.181zM18.183 42.314c-.171.377-.005.822.372.993.101.046.206.067.31.067.285 0 .558-.163.683-.439.656-1.441 1.158-2.834 1.543-4.171-.501-.073-.999-.156-1.488-.265C19.244 39.725 18.781 41 18.183 42.314zM24.907 42.969c-.155.384.03.821.414.977C25.414 43.982 25.509 44 25.602 44c.297 0 .578-.177.696-.469.714-1.767 1.184-3.471 1.495-4.901-.526.101-1.058.185-1.598.244C25.902 40.114 25.491 41.525 24.907 42.969zM23.112 40.539c-.396-.132-.818.082-.949.474l-.667 2c-.131.393.082.818.474.949C22.05 43.988 22.13 44 22.208 44c.314 0 .607-.199.711-.513l.667-2C23.717 41.094 23.505 40.669 23.112 40.539zM14.536 35.643c-.367-.083-.718.129-.848.47-.013.035-.036.064-.045.102l-.025.105c-.275 1.111-1.18 3.379-1.189 3.402-.154.384.033.821.418.975.091.037.186.054.278.054.297 0 .579-.178.696-.471.037-.093.869-2.181 1.204-3.424.015-.057.035-.122.049-.175l.034-.145C15.196 36.131 14.94 35.731 14.536 35.643zM41.571 30.597c-.016-.414-.349-.743-.778-.721-.009 0-.017.006-.026.006-.401.03-.71.367-.695.771.003.067.003.139.006.206.029.838.047 1.715.047 2.64 0 .414.336.75.75.75s.75-.336.75-.75C41.625 32.481 41.605 31.512 41.571 30.597z"/><path fill="#c2185b" d="M43.818 21.558c-.131-1.03-.332-2.039-.613-3.019-.259.898-.577 1.769-.953 2.611.156.973.247 1.966.247 2.978v.122c0 .358.257.644.593.718C43.145 24.98 43.194 25 43.25 25c.414 0 .75-.336.75-.75v-.122C44 23.257 43.926 22.402 43.818 21.558zM5.746 21.146c-.372-.833-.688-1.695-.945-2.584-.018.038-.045.069-.057.111-.259.927-.447 1.872-.571 2.829.24 1.917.742 3.752 1.485 5.461C5.552 26.12 5.5 25.186 5.5 24.128 5.5 23.125 5.589 22.129 5.746 21.146zM39.831 26.944c.036.389.363.681.746.681.023 0 .047-.001.07-.003.413-.038.716-.404.677-.816-.114-1.224-.249-2.281-.387-3.204-.392.626-.813 1.231-1.27 1.807C39.725 25.892 39.78 26.401 39.831 26.944zM9.085 28.211c-.094-.699-.186-1.418-.251-2.195-.57-.664-1.098-1.362-1.579-2.097-.001.069-.006.137-.006.205 0 1.689.177 3.009.349 4.286.108.802.208 1.564.257 2.36.466.638.967 1.245 1.503 1.822C9.447 30.951 9.273 29.603 9.085 28.211zM38.081 27.197c-.452.449-.925.876-1.419 1.28.09 1.718.109 3.717.003 5.997.542-.444 1.059-.918 1.551-1.415C38.272 30.813 38.207 28.861 38.081 27.197zM12.544 29.38c-.581-.407-1.134-.847-1.668-1.312.24 1.708.418 3.425-.039 5.965.424.371.864.721 1.318 1.056C12.671 32.689 12.685 30.925 12.544 29.38zM35.142 29.609c-.481.323-.979.623-1.489.905.027 1.971-.068 4.096-.346 6.182.56-.295 1.103-.617 1.63-.962C35.155 33.63 35.204 31.535 35.142 29.609zM14.25 32.752C14.25 33.166 14.586 33.5 15 33.5c0 0 .001 0 .002 0 .414-.001.749-.337.748-.752-.001-.572-.009-1.076-.019-1.553-.518-.236-1.027-.487-1.52-.764C14.233 31.096 14.247 31.856 14.25 32.752zM30.228 31.998c-.081 2.154-.318 4.23-.713 6.214.554-.159 1.095-.345 1.628-.549.35-1.995.551-4.072.603-6.221C31.252 31.65 30.742 31.829 30.228 31.998zM17.503 31.9c-.053 1.714-.295 3.617-.888 5.675.466.185.934.368 1.416.518.612-2.083.879-4.007.958-5.751C18.486 32.211 17.99 32.067 17.503 31.9zM20.648 32.697c-.125 1.758-.43 3.708-1.045 5.802.489.11.986.192 1.488.265.609-2.113.917-4.08 1.049-5.859C21.635 32.859 21.141 32.781 20.648 32.697zM27.669 34.001c-.427-.029-.768.291-.793.704-.002.026-.116 1.773-.682 4.168.54-.059 1.072-.143 1.598-.244.475-2.188.575-3.732.581-3.836C28.398 34.381 28.083 34.026 27.669 34.001zM23.771 32.988c-.099 1.491-.29 3.089-.631 4.735-.084.406.177.802.583.886.051.011.102.016.153.016.348 0 .66-.244.733-.598.368-1.78.573-3.5.675-5.092C24.858 32.962 24.434 33 24 33 23.923 33 23.848 32.989 23.771 32.988z"/><path fill="#d81b60" d="M42.253 21.15c.376-.842.695-1.713.953-2.611-.299-1.043-.673-2.056-1.129-3.025-.276.585-.579 1.154-.908 1.706C41.666 18.473 42.034 19.787 42.253 21.15zM5.667 18.153c-.358-.101-.714.085-.867.409.257.889.573 1.751.945 2.584.112-.698.253-1.39.442-2.069C6.3 18.678 6.066 18.264 5.667 18.153zM39.956 19.023c-.364.482-.748.945-1.153 1.392.179.721.557 2.424.864 4.994.457-.577.878-1.182 1.27-1.807-.317-2.124-.649-3.462-.774-3.922C40.102 19.456 40.024 19.242 39.956 19.023zM9.205 20.424c-.408-.45-.796-.917-1.162-1.403-.496 1.569-.766 3.219-.786 4.899.48.735 1.008 1.433 1.579 2.097C8.785 25.428 8.75 24.81 8.75 24.125 8.75 22.865 8.908 21.623 9.205 20.424zM36.04 22.943c.242 1.288.498 3.137.623 5.534.493-.404.966-.831 1.419-1.28-.18-2.387-.481-4.17-.732-5.335C36.928 22.241 36.492 22.601 36.04 22.943zM12 24.125c0-.375.023-.744.056-1.111-.47-.351-.923-.721-1.36-1.111-.119.725-.196 1.463-.196 2.221 0 1.313.161 2.434.316 3.517.02.142.041.284.06.426.533.465 1.087.905 1.668 1.312-.062-.679-.153-1.317-.243-1.95C12.146 26.351 12 25.331 12 24.125zM33.206 24.744c.237 1.536.417 3.549.447 5.77.51-.281 1.008-.581 1.489-.905-.071-2.205-.282-4.178-.547-5.668C34.143 24.225 33.682 24.496 33.206 24.744zM15.277 24.976c-.522-.254-1.031-.529-1.526-.825.002.952.08 1.646.172 2.446.104.909.227 1.989.288 3.833.493.278 1.002.529 1.52.764-.05-2.407-.196-3.705-.318-4.769C15.354 25.913 15.305 25.464 15.277 24.976zM31.75 28.979c-.038-1.361-.131-2.493-.242-3.449-.476.193-.957.374-1.45.531.089.84.162 1.813.194 2.96.028 1.009.015 1.999-.022 2.977.514-.168 1.023-.348 1.518-.556C31.766 30.63 31.773 29.811 31.75 28.979zM18.688 26.393c-.005-.046-.01-.087-.015-.133-.53-.146-1.049-.316-1.561-.504.028.264.052.517.085.805.166 1.47.369 3.267.305 5.338.487.167.983.312 1.486.442C19.094 30.019 18.872 28.014 18.688 26.393zM22.018 26.9c-.518-.051-1.026-.138-1.532-.227.167 1.56.334 3.608.162 6.025.493.083.987.162 1.492.209C22.317 30.53 22.18 28.495 22.018 26.9zM27.125 30.878c.002.413.337.747.75.747.001 0 .002 0 .003 0 .415-.002.749-.339.747-.753-.007-1.406-.124-2.965-.293-4.355-.487.108-.983.186-1.482.258C27.002 28.034 27.118 29.486 27.125 30.878zM25.222 26.938C24.816 26.963 24.413 27 24 27c-.096 0-.189-.013-.285-.014.131 1.525.215 3.618.057 6.003C23.848 32.989 23.923 33 24 33c.434 0 .858-.038 1.284-.065C25.436 30.56 25.354 28.484 25.222 26.938z"/><path fill="#ec407a" d="M38.985 13.214c.885 1.233 1.618 2.577 2.184 4.005.329-.552.632-1.121.908-1.706-.584-1.241-1.302-2.406-2.118-3.495C39.649 12.429 39.326 12.829 38.985 13.214zM6.119 15.104l-.031.061c-.185.37-.004.757.366.943.093.047.194.068.295.068.299 0 .603-.188.742-.464.445-.883.959-1.713 1.522-2.498-.34-.385-.662-.783-.972-1.194C7.324 12.979 6.673 14.004 6.119 15.104zM36.626 15.504c.926 1.374 1.641 2.915 2.092 4.583.018.064.048.182.084.328.405-.447.789-.91 1.153-1.392-.516-1.639-1.26-3.16-2.205-4.525C37.386 14.844 37.017 15.186 36.626 15.504zM11.378 15.507c-.39-.318-.76-.66-1.125-1.006-.955 1.387-1.701 2.91-2.21 4.519.367.486.754.953 1.162 1.403C9.639 18.667 10.375 17.002 11.378 15.507zM35.217 16.559c-.414.281-.848.534-1.283.784.761 1.14 1.345 2.412 1.701 3.797.1.363.249.971.405 1.803.452-.342.888-.702 1.31-1.08-.109-.503-.208-.903-.283-1.175C36.683 19.197 36.047 17.811 35.217 16.559zM12.782 16.557c-1.049 1.58-1.767 3.396-2.086 5.346.437.39.89.76 1.36 1.111.189-2.088.899-4.026 2.005-5.675C13.627 17.09 13.194 16.838 12.782 16.557zM33.922 21.258c-.133-.393-.561-.602-.952-.468-.392.134-.602.56-.468.952.203.595.375 1.237.513 1.909.067.326.13.699.191 1.093.476-.248.936-.519 1.389-.803-.036-.204-.073-.407-.111-.592C34.334 22.616 34.145 21.912 33.922 21.258zM17.062 18.738c-.485-.18-.961-.374-1.427-.589-1.183 1.691-1.885 3.75-1.885 5.976 0 .009.001.017.001.026.496.297 1.004.571 1.526.825-.016-.266-.027-.541-.027-.851C15.25 22.098 15.931 20.234 17.062 18.738zM29.235 19.284c-.592.16-1.193.295-1.805.401.925.704 1.643 1.675 1.984 2.806.086.273.418 1.446.642 3.57.493-.157.975-.338 1.45-.531-.228-1.953-.54-3.102-.664-3.496C30.527 20.985 29.962 20.057 29.235 19.284zM24 20.25c-2.068 0-3.75 1.738-3.75 3.875 0 .448.067 1.036.151 1.781.027.239.056.498.085.766.506.09 1.013.176 1.532.227-.042-.416-.086-.809-.126-1.163-.079-.698-.142-1.249-.142-1.612 0-1.31 1.009-2.375 2.25-2.375 1.016 0 1.634.444 2.204 1.585.155.31.435 1.688.646 3.438.499-.071.995-.15 1.482-.258-.219-1.808-.524-3.329-.786-3.852C27.028 21.628 26.097 20.25 24 20.25z"/><path fill="#ec407a" d="M23.98 23.514c-.406.08-.671.474-.591.88.005.024.189 1.001.326 2.591C23.811 26.987 23.904 27 24 27c.413 0 .816-.037 1.222-.062-.143-1.674-.341-2.728-.362-2.833C24.782 23.7 24.39 23.434 23.98 23.514zM19.599 19.537c-.047-.037-.101-.053-.153-.078-.082-.035-.176-.056-.267-.069-.236-.014-.475.07-.634.269C17.549 20.919 17 22.505 17 24.125c0 .475.051 1.034.113 1.632.512.188 1.03.357 1.561.504-.094-.837-.174-1.567-.174-2.136 0-1.302.422-2.524 1.222-3.535C19.979 20.266 19.923 19.794 19.599 19.537z"/><path fill="#e040fb" d="M38.985 13.214c.34-.386.664-.785.974-1.196-.971-1.297-2.092-2.474-3.348-3.503-.401.326-.817.634-1.243.929C36.747 10.527 37.965 11.794 38.985 13.214zM12.626 9.441c-.424-.294-.839-.601-1.239-.927-1.241 1.018-2.362 2.194-3.344 3.506.31.41.632.809.972 1.194C10.045 11.776 11.263 10.511 12.626 9.441zM36.626 15.504c.39-.318.759-.66 1.124-1.006-1.092-1.578-2.443-2.944-3.979-4.057-.493.277-1.001.527-1.519.762C33.972 12.32 35.465 13.781 36.626 15.504zM31.15 12.566c-.35-.221-.813-.117-1.035.234-.221.35-.116.813.234 1.035 1.444.912 2.65 2.109 3.584 3.509.436-.25.869-.503 1.283-.784C34.166 14.972 32.796 13.605 31.15 12.566zM12.782 16.557c.413.28.845.533 1.279.782 1.466-2.186 3.623-3.857 6.148-4.709-.811-.156-1.604-.36-2.377-.61C15.793 13.082 14.052 14.645 12.782 16.557zM32.018 17.661C30.06 15.175 27.137 13.75 24 13.75c-3.453 0-6.506 1.742-8.365 4.399.466.215.942.41 1.427.589 1.601-2.116 4.111-3.488 6.938-3.488 2.675 0 5.167 1.217 6.839 3.339.043.054.099.09.153.129.266.194.63.208.901-.004.153-.121.241-.29.27-.468C32.196 18.045 32.154 17.833 32.018 17.661z"/><path fill="#e040fb" d="M24 17c-.768 0-1.523.126-2.24.373l-.142.05c-.389.142-.59.572-.448.961.142.39.574.59.961.448l.112-.04C22.808 18.599 23.398 18.5 24 18.5c1.252 0 2.456.444 3.431 1.185.612-.106 1.213-.241 1.805-.401C27.909 17.873 26.027 17 24 17zM15.312 10.561c-.241-.335-.709-.411-1.047-.17-.018.013-.035.027-.052.04-1.558 1.133-2.889 2.515-3.959 4.07.365.346.734.688 1.125 1.006 1.004-1.497 2.271-2.823 3.764-3.899.187-.135.284-.339.3-.552C15.454 10.885 15.419 10.71 15.312 10.561z"/><path fill="#d500f9" d="M26.763 4.936c-.076.407.194.798.601.874 3.008.556 5.723 1.841 8.005 3.635.426-.295.842-.603 1.243-.929-2.531-2.073-5.582-3.553-8.975-4.181C27.229 4.254 26.837 4.528 26.763 4.936zM23.76 5.504c.414-.005.746-.345.74-.76-.005-.411-.34-.74-.75-.74-.003 0-.006 0-.01 0-4.597.059-8.914 1.688-12.354 4.51.4.325.815.632 1.239.927C15.753 6.983 19.633 5.557 23.76 5.504zM24 7.25c-2.126 0-4.199.396-6.161 1.178-.385.153-.572.59-.419.975.154.385.59.571.975.419C20.179 9.11 22.064 8.75 24 8.75c3.002 0 5.849.891 8.253 2.453.518-.235 1.026-.485 1.519-.762C30.99 8.426 27.6 7.25 24 7.25z"/><path fill="#d500f9" d="M24,12c1.037,0,2.065,0.133,3.058,0.397c0.403,0.107,0.812-0.132,0.917-0.533 s-0.132-0.811-0.533-0.917C26.325,10.65,25.167,10.5,24,10.5c-2.223,0-4.317,0.555-6.169,1.52c0.773,0.251,1.566,0.455,2.377,0.61 C21.402,12.227,22.674,12,24,12z"/></svg>