<svg xmlns="http://www.w3.org/2000/svg"  viewBox="0 0 48 48" width="1600px" height="1600px"><path fill="#424242" d="M34,42H14c-4.411,0-8-3.589-8-8V14c0-4.411,3.589-8,8-8h20c4.411,0,8,3.589,8,8v20 C42,38.411,38.411,42,34,42z"/><path fill="#00838f" d="M24,38c-7.72,0-14-6.28-14-14s6.28-14,14-14s14,6.28,14,14S31.72,38,24,38z M24,12 c-6.617,0-12,5.383-12,12s5.383,12,12,12s12-5.383,12-12S30.617,12,24,12z"/><path fill="#00838f" d="M33.016,33.58C30.723,31.94,27.437,31,24,31c-3.438,0-6.724,0.94-9.016,2.58l-1.164-1.627 C16.444,30.077,20.154,29,24,29c3.9,0,7.516,1.049,10.18,2.953L33.016,33.58z"/><path fill="#00838f" d="M24,19c-3.846,0-7.556-1.077-10.18-2.953l1.164-1.627C17.276,16.06,20.563,17,24,17 c3.437,0,6.723-0.94,9.016-2.58l1.164,1.627C31.516,17.951,27.9,19,24,19z"/><path fill="#00838f" d="M24,38c-3.925,0-7-6.149-7-14s3.075-14,7-14s7,6.149,7,14S27.925,38,24,38z M24,12 c-2.365,0-5,4.928-5,12s2.635,12,5,12s5-4.928,5-12S26.365,12,24,12z"/><rect width="26" height="2" x="11" y="23" fill="#00838f"/><rect width="2" height="26" x="23" y="11" fill="#00838f"/><path fill="#eee" d="M11.476,21H12v2.069c0,0.713,0.862,1.07,1.366,0.566L16,21h2.524C19.891,21,21,19.891,21,18.524 v-4.048C21,13.109,19.891,12,18.524,12h-7.048C10.109,12,9,13.109,9,14.476v4.048C9,19.891,10.109,21,11.476,21z"/><path fill="#26c6da" d="M36.524,36H36v2.069c0,0.713-0.862,1.07-1.366,0.566L32,36h-2.524C28.109,36,27,34.891,27,33.524 v-4.048C27,28.109,28.109,27,29.476,27h7.048C37.891,27,39,28.109,39,29.476v4.048C39,34.891,37.891,36,36.524,36z"/></svg>