<svg xmlns="http://www.w3.org/2000/svg"  viewBox="0 0 48 48" width="1600px" height="1600px"><path fill="#37474f" d="M18.125,7L18,15H5c0,0,0-2.567,0-4.5S6.567,7,8.5,7S18.125,7,18.125,7z"/><path fill="#00e676" d="M30.009,5.627l1.85-3.117c0.282-0.475,0.125-1.089-0.349-1.371c-0.475-0.283-1.088-0.125-1.371,0.349	l-1.945,3.276C26.889,4.276,25.478,4,24,4s-2.889,0.276-4.195,0.765L17.86,1.489c-0.282-0.474-0.895-0.632-1.371-0.349	c-0.475,0.282-0.631,0.896-0.349,1.371l1.85,3.117c-3.301,1.92-5.608,5.362-5.94,9.373H35.95	C35.618,10.989,33.311,7.547,30.009,5.627z"/><circle cx="19" cy="10" r="1" fill="#fff"/><circle cx="29" cy="10" r="1" fill="#fff"/><path fill="#448aff" d="M39.5,14c-0.494,0-30.14,0-31,0C6.567,14,5,12.433,5,10.5c0,0.001,0,25.067,0,27S6.567,41,8.5,41	C9.36,41,43,41,43,41s0-21.567,0-23.5S41.433,14,39.5,14z"/><path fill="#37474f" d="M39.5,21c-0.342,0-0.871,0-1.5,0v25.875c0.629,0,1.158,0,1.5,0c1.933,0,3.5-1.567,3.5-3.5	S43,17.5,43,17.5C43,19.433,41.433,21,39.5,21z"/><path fill="#37474f" d="M33.768,44.061l-7.444-15.819C27.335,27.515,28,26.337,28,25c0-1.858-1.28-3.411-3-3.858V19	c0-0.552-0.448-1-1-1s-1,0.448-1,1v2.142c-1.72,0.447-3,2-3,3.858c0,1.337,0.665,2.515,1.676,3.242l-7.44,15.811	c-0.424,0.901-0.201,2.025,0.62,2.588c1.047,0.718,2.437,0.309,2.954-0.79l4.643-9.866c0.616-1.309,2.479-1.309,3.095,0l4.643,9.866	C30.531,46.576,31.25,47,32.001,47c0.411,0,0.832-0.128,1.203-0.402C33.982,46.024,34.18,44.936,33.768,44.061z M24,23	c1.103,0,2,0.897,2,2s-0.897,2-2,2s-2-0.897-2-2S22.897,23,24,23z"/></svg>