<svg xmlns="http://www.w3.org/2000/svg"  viewBox="0 0 48 48" width="1600px" height="1600px"><path fill="#009688" d="M35.7,34.7c-7.7,0-13.2-8.9-13.4-9.3l-0.6-1l0.6-1C22.5,22.9,28,14,35.7,14C41.4,14,46,18.6,46,24.3 S41.4,34.7,35.7,34.7z M26.4,24.3c1.5,2,5.1,6.3,9.2,6.3c3.5,0,6.3-2.8,6.3-6.3c0-3.5-2.8-6.3-6.3-6.3C31.5,18,27.9,22.3,26.4,24.3 z"/><path fill="#009688" d="M12.3,34.7C6.6,34.7,2,30,2,24.3S6.6,14,12.3,14c7.9,0,13.2,8.9,13.4,9.3l0.6,1l-0.6,1 C25.5,25.7,20,34.7,12.3,34.7z M12.3,18C8.8,18,6,20.8,6,24.3c0,3.5,2.8,6.3,6.3,6.3c4.2,0,7.8-4.3,9.3-6.3 C20.2,22.3,16.6,18,12.3,18z"/><path fill="#009688" d="M10 23h6v2h-6V23zM32 23h6v2h-6V23z"/><path fill="#009688" d="M34,21h2v6h-2V21z"/></svg>