<svg xmlns="http://www.w3.org/2000/svg"  viewBox="0 0 48 48" width="1600px" height="1600px"><path fill="#2196F3" d="M36,32.7L35,39c0,2.2-5.1,4-11,4s-11-1.8-11-4l-1-6.3c-0.1-0.4,0.3-0.8,0.8-0.6C15.8,33.4,20,34,24,34s8.2-0.6,11.2-1.9C35.6,31.9,36.1,32.3,36,32.7z M41,10c0,0.2,0,0.3-0.1,0.5L38,27c0,2.8-6.2,5-13.9,5C16.4,32,10,29.8,10,27L7.1,10.5C7,10.3,7,10.2,7,10c0-2.8,7.6-5,17-5S41,7.2,41,10z M29,23c0-2.8-2.2-5-5-5s-5,2.2-5,5s2.2,5,5,5S29,25.8,29,23z M35.8,10c0-1.7-5.3-3-11.8-3s-11.8,1.3-11.8,3s5.3,3,11.8,3S35.8,11.7,35.8,10z M24,25c1.1,0,2-0.9,2-2s-0.9-2-2-2s-2,0.9-2,2S22.9,25,24,25z"/></svg>