<svg xmlns="http://www.w3.org/2000/svg"  viewBox="0 0 48 48" width="1600px" height="1600px" baseProfile="basic"><path fill="#3f51b5" d="M24,44C12.972,44,4,35.028,4,24S12.972,4,24,4s20,8.972,20,20S35.028,44,24,44z"/><polygon fill="none" stroke="#fff" stroke-linecap="round" stroke-linejoin="round" stroke-miterlimit="10" points="21.5,22.5 34.5,15.568 34.5,32 21.5,38.5"/><line x1="24.965" x2="31.111" y1="24.643" y2="21.57" fill="none" stroke="#fff" stroke-linecap="round" stroke-linejoin="round" stroke-miterlimit="10"/><line x1="24.965" x2="31.111" y1="28.597" y2="25.524" fill="none" stroke="#fff" stroke-linecap="round" stroke-linejoin="round" stroke-miterlimit="10"/><line x1="24.965" x2="31.111" y1="32.551" y2="29.478" fill="none" stroke="#fff" stroke-linecap="round" stroke-linejoin="round" stroke-miterlimit="10"/><polyline fill="none" stroke="#fff" stroke-linecap="round" stroke-linejoin="round" stroke-miterlimit="10" points="27.815,19.133 13.5,11.5 13.5,27.932 21.5,31.932"/><line x1="24.107" x2="16.889" y1="21.11" y2="17.502" fill="none" stroke="#fff" stroke-linecap="round" stroke-linejoin="round" stroke-miterlimit="10"/><line x1="21.5" x2="16.889" y1="23.761" y2="21.456" fill="none" stroke="#fff" stroke-linecap="round" stroke-linejoin="round" stroke-miterlimit="10"/><line x1="21.5" x2="16.889" y1="27.715" y2="25.41" fill="none" stroke="#fff" stroke-linecap="round" stroke-linejoin="round" stroke-miterlimit="10"/></svg>