<svg xmlns="http://www.w3.org/2000/svg"  viewBox="0 0 48 48" width="1600px" height="1600px"><path fill="#455a64" d="M42,5h-8l-3,3H16c0,0-1,0.45-1,1s1,1,1,1v1c0,0-1,0.45-1,1s1,1,1,1l-2,2h-1l-1-1v-4c0-0.552-0.448-1-1-1H9c-0.552,0-1,0.448-1,1l0,8l2,2v1h3.414l2,2H17l0-6h6l0,2h-4v4h6l0-6h6l0,2h-4v4h3l1-1h2v-5h6v2h-4v4h8l1-1l0-15L42,5z"/><path fill="#455a64" d="M40,24h-5v7h4v2h-6V23h-1.333l-1,1H27l0,7h4v2h-6l0-9h-6l0,7h4v2h-6l0-9h-2l-2-2h-3v7l-1,1l0,7l-1,1H5c-0.552,0-1,0.448-1,1l0,2c0,0.552,0.448,1,1,1h9l1-1h2v2h2v-4h2v2h14l3-3h4l2-2l0-8L40,24z"/></svg>