<svg xmlns="http://www.w3.org/2000/svg"  viewBox="0 0 48 48" width="1600px" height="1600px" baseProfile="basic"><path fill="#bdbdbd" d="M44.696,15.901c-1.075-2.149-4.289-1.729-7.768-0.447c-4.252-3.825-16.588-14.37-21.027-12.15	c-2.149,1.075-1.729,4.289-0.447,7.768c-3.825,4.252-14.37,16.588-12.15,21.027c1.075,2.149,4.289,1.729,7.768,0.447	c4.252,3.825,16.588,14.37,21.027,12.15c2.149-1.075,1.729-4.289,0.447-7.768C36.371,32.675,46.915,20.34,44.696,15.901z M31.384,34.152c-1.155-2.489-2.518-4.858-3.476-6.434c-0.611,0.642-1.376,1.134-2.239,1.415c2.383,4.042,3.113,8.365,0.13,8.365	c-2.718,0-9.025-4.103-11.952-6.113c2.489-1.155,4.858-2.518,6.434-3.476c-0.642-0.611-1.134-1.376-1.415-2.239	c-4.042,2.383-8.365,3.113-8.365,0.13c0-2.718,4.103-9.025,6.113-11.952c1.155,2.489,2.518,4.858,3.476,6.434	c0.611-0.642,1.376-1.134,2.239-1.415c-2.383-4.042-3.113-8.365-0.13-8.365c2.718,0,9.025,4.103,11.952,6.113	c-2.489,1.155-4.858,2.518-6.434,3.476c0.642,0.611,1.134,1.376,1.415,2.239c4.042-2.383,8.365-3.113,8.365-0.13	C37.498,24.918,33.395,31.225,31.384,34.152z"/><circle cx="24" cy="24" r="6" fill="#ed2224"/><circle cx="26" cy="22" r="1" fill="#fff"/></svg>