<svg xmlns="http://www.w3.org/2000/svg"  viewBox="0 0 48 48" width="1600px" height="1600px"><path fill="#03A9F4" d="M10.938 6A4.5 4.5 0 1 0 10.938 15 4.5 4.5 0 1 0 10.938 6zM36.938 6A4.5 4.5 0 1 0 36.938 15 4.5 4.5 0 1 0 36.938 6z"/><path fill="#03A9F4" d="M36.938 6A4.5 4.5 0 1 0 36.938 15 4.5 4.5 0 1 0 36.938 6zM23.938 6A4.5 4.5 0 1 0 23.938 15 4.5 4.5 0 1 0 23.938 6zM36.938 19A4.5 4.5 0 1 0 36.938 28 4.5 4.5 0 1 0 36.938 19z"/><path fill="#03A9F4" d="M36.938 19A4.5 4.5 0 1 0 36.938 28 4.5 4.5 0 1 0 36.938 19zM36.938 32A4.5 4.5 0 1 0 36.938 41 4.5 4.5 0 1 0 36.938 32zM23.938 19A4.5 4.5 0 1 0 23.938 28 4.5 4.5 0 1 0 23.938 19z"/></svg>