<svg xmlns="http://www.w3.org/2000/svg"  viewBox="0 0 48 48" width="1600px" height="1600px"><path fill="#F57C00" d="M40.4,41H7.6C6.2,41,5,39.8,5,38.4V9.6C5,8.2,6.2,7,7.6,7h32.8C41.8,7,43,8.2,43,9.6v28.8C43,39.8,41.8,41,40.4,41z"/><path fill="#FF9800" d="M40.4,7H7.6C6.2,7,5,8.2,5,9.6V20c0,0,7.4,4,19,4s19-4,19-4V9.6C43,8.2,41.8,7,40.4,7z"/><path fill="#FFF" d="M40.9,28.5l-10.2,2.3c0,0,0.1,5.7-5.6,5.7c-3.4,0-4.8-2.8-6-8.2c-1-4.4-1.8-9.1-1.8-11.3c0-3.4,3.4-4.8,5.3-4.8c3.4,0,4.9,3.4,4.9,3.4l10.2-2.2c0,0-1.4-4-4-6.3H11.9C10,8.6,7,12.1,7,17.8c0,1.8,0.1,3.2,0.4,4.5c0.5,3.2,2,9.9,2.4,11.4c0.1,0.4,1.2,4.4,3.7,7.3H7.6c-0.2,0-0.3,0-0.5-0.1C7.3,41,7.4,41,7.6,41h29c1-1.1,4.2-5,4.2-10C40.9,29.5,40.9,28.5,40.9,28.5z"/><path fill="#EEE" d="M30.7,30.8c0,0,0.1,5.7-5.6,5.7c-3.4,0-4.8-2.8-6-8.2c-0.4-1.5-0.7-3.1-0.9-4.6c-5-0.6-8.7-1.8-11-2.7c0.1,0.5,0.1,0.9,0.2,1.4c0.5,3.2,2,9.9,2.4,11.4c0.1,0.4,1.2,4.4,3.7,7.3H7.6c-0.2,0-0.3,0-0.5-0.1C7.3,41,7.4,41,7.6,41h29c1-1.1,4.2-5,4.2-10c0-1.5,0-2.5,0-2.5L30.7,30.8z"/></svg>