<svg xmlns="http://www.w3.org/2000/svg"  viewBox="0 0 48 48" width="1600px" height="1600px"><path fill="#c5cae9" d="M10,27h2c0,0-1-1.146-1-2.469C11,21.125,15,21,15,21h7h4v-1h4v1h1c1.607-1.9,2.305-3.629,2.35-5h-1.343c-4.851,0-14,0.5-14,0.5c-0.001-0.001-0.001-0.001-0.002-0.002C18.003,16.499,18.002,16.499,18,16.5c-0.019-0.028-0.048-0.059-0.069-0.088c-0.25-0.294-0.483-0.553-0.699-0.779c-0.2-0.198-0.4-0.389-0.563-0.552c0.002-0.001,0.003-0.001,0.005-0.002C15.531,14.019,15.007,14,15.007,14c-7.745,0.773-12,3-12,3s-0.156,1.559,1,4c0.518,0.968-1.094,2.092-1,3c0.067,0.649,3.666,8.683,5.684,13.134c0.336,0.741,0.73,1.284,1.309,1.584V27z"/><path fill="#8bc34a" d="M31 31L31 38 27 38 27 31 23 31 23 29 35 29 35 31zM47 31.8c0 .4-.1.8-.3 1.2s-.5.7-.9 1c-.5.4-1.1.6-1.8.8S42.5 35 41.5 35H40v3h-4v-9h5.5c.9 0 1.6 0 2.2.1.6.1 1.1.2 1.6.4.5.2 1 .5 1.3.9C46.9 30.9 47 31.3 47 31.8zM43.4 31.9c0-.3-.1-.5-.3-.7S41.7 31 41.3 31C41 31 40 31 40 31v2c0 0 1.5 0 2 0 .906 0 1.2-.4 1.3-.6C43.3 32.4 43.4 32.1 43.4 31.9zM22 31L16 31 16 32 21 32 21 34 16 34 16 38 12 38 12 29 22 29z"/><path fill="#303f9f" d="M15.789 27c-.526 0-1.053 0-1.579-.102-.421-.102-.842-.204-1.158-.51-.316-.204-.632-.51-.737-.816C12.105 25.265 12 24.857 12 24.449c0-.408.105-.816.316-1.122.211-.306.526-.612.842-.816.316-.204.737-.306 1.158-.408S15.263 22 15.684 22c.421 0 .842 0 1.263.102s.737.204 1.053.306v1.327h-.316C17.579 23.633 16.664 23 15.789 23c-.526 0-.947.122-1.263.429-.316.306-.421.612-.421 1.02 0 1.239 1.158 1.551 1.684 1.551 1.068 0 1.789-.735 1.895-.837H18v1.327C17.631 26.688 16.964 27 15.789 27zM25 27h-2v-.538c-.4.2-.6.4-.9.5-.3 0-.6.1-1.1.1-.7 0-1.079-.1-1.479-.4S19 25.962 19 25.363V22h2v2.563c0 .563-.021 1.3.9 1.3.2 0 .4 0 .6-.1.2 0 .3-.1.5-.2V22h2V27zM30.1 27c-.2 0-.7 0-1.1 0-1.609 0-2-.9-2-1.5V23h-1v-1h1v-1h2v1h2v1h-2v2c0 .469.25 1 1 1 .469 0 1-.328 1-.328v1.1C31 26.772 30.4 27 30.1 27zM33.905 24.993c0 .395.149.988 1.905.988.863 0 1.81-.494 2-.691H38v1.185c-.405.185-1.298.494-2.381.494-1.143 0-2.095-.198-2.667-.593C32.286 25.981 32 25.389 32 24.598c0-.79.286-1.383.857-1.877.571-.494 1.429-.753 2.381-.753s1.619.259 2.095.654C37.81 23.018 38 23.512 38 24.302v.691H33.905zM36.286 24.006c0-.296-.238-.988-1.048-.988-.679 0-1.238.247-1.238.988H36.286z"/><path fill="#5c6bc0" d="M10,35.176c-2.811-6.219-4.409-9.92-4.896-11.19c0.039-0.062,0.079-0.124,0.113-0.176c0.45-0.695,1.381-2.131,0.583-3.697c-0.35-0.745-0.547-1.377-0.658-1.859c1.641-0.638,4.908-1.696,9.559-2.21c0.284,0.194,0.873,0.67,1.776,1.744c0.381,0.453,0.942,0.713,1.531,0.713c0.036,0,0.073-0.001,0.109-0.003C18.207,18.492,27.267,18,32.007,18H33l1-2h-1.993c-4.851,0-14,0.5-14,0.5c-2.074-2.467-3-2.5-3-2.5c-7.745,0.773-12,3-12,3s-0.156,1.559,1,4c0.518,0.968-1.094,2.092-1,3c0.067,0.649,3.666,8.683,5.684,13.134c0.337,0.744,0.726,1.297,1.309,1.597V35.176z"/><path fill="#9fa8da" d="M33.1,14.7c0.7,1.3,0,3.825-2.2,6.425l0,0c3.4-3.3,4.742-6.633,3.642-8.333c-0.645-1.089-2.026-1.831-4.417-1.792c-3.538,0.058-8.503,1.574-13.456,4.081c0.4,0.4,1.014,0.949,1.331,1.419c4.765-2.189,9.156-3.632,12-3.5C31.573,13.073,32.673,13.916,33.1,14.7z"/><path fill="#7986cb" d="M10,33.456c-3.713,0.54-6.582-0.003-7.5-1.656c-0.694-1.19-0.195-2.375,0.788-4.344c0.211-0.327,0.571-0.841,0.678-0.964l-0.646-1.56c0,0-0.328,0.475-0.666,1.011C1.605,27.632,0.983,29.208,1,30.5c0.007,0.545,0.117,1.039,0.375,1.469c1.112,1.946,4.478,2.456,8.625,1.567V33.456z"/></svg>