<svg xmlns="http://www.w3.org/2000/svg"  viewBox="0 0 48 48" width="1600px" height="1600px"><path fill="#039be5" d="M6 14L24 4 24 14 15 19z"/><path fill="#0277bd" d="M24 34L32.737 29.1 32.737 29.099 42 24 42 34 24 44zM24 14L24 4 42 14 33 19z"/><path fill="#039be5" d="M6 33L15 29 24 34 24 44z"/><path fill="#0277bd" d="M6 14L15 19 15 29 6 33z"/><path fill="#bdbdbd" d="M24 24L24 14 33 19 33 29z"/><path fill="#003469" d="M32.718 29.111L32.719 29.11 32.719 29.111z"/><path fill="#757575" d="M15 19L24 14 24 24 15 29z"/></svg>