<svg xmlns="http://www.w3.org/2000/svg"  viewBox="0 0 48 48" width="1600px" height="1600px"><path fill="#6d4c41" d="M24 4A20 20 0 1 0 24 44A20 20 0 1 0 24 4Z"/><path fill="#fff" d="M8,23l4-3l8,7l-5,2C15,29,8.086,22.666,8,23z"/><path fill="#fff" d="M13 28.557L15 30.278 21 27.722 21 38 13 33zM22 29.938L22 38 35 33 35 29.268 24.753 33.282z"/><path fill="#fff" d="M22 28.063L25 32 38 27 35 22zM13 18.5L13 19.5 18 24 18 21.625zM19 22L19 24 24 22 24 20zM19 25L24 23 27.25 24.5 22 27zM25 20L25 22.25 28 23.75 28 21.5zM29 22L35 19 35 21 29 24zM25 19L29 21 35 18 31 16zM21 13L25 15 29 13 25 11z"/><path fill="#fff" d="M30 14.469L30 13 38 16 36 20 36 17.469zM12 19L10 15 23 11 20 12.625 20 16.406 17 15 12 17z"/><path fill="#fff" d="M19 21L24 19 17 16 13 17.5zM21 14L21 16.487 24 18 24 15.513zM25 16L25 18 29 16 29 14z"/></svg>