<svg xmlns="http://www.w3.org/2000/svg"  viewBox="0 0 48 48" width="1600px" height="1600px"><path fill="#455A64" d="M27.313 14.186c-.171-.507 0-1.184 0-1.184h-6.287c0 0 .339.677.169 1.184 0 .508-5.434 20.813-5.434 20.813h4.246l1.188-4.398h5.778l1.018 4.398h5.777C33.939 34.999 27.313 14.693 27.313 14.186zM21.705 27.386l2.379-6.938 2.211 6.938H21.705zM27.821 13.002h6.458l3.567 14.892c0 0 3.906-13.2 4.076-13.708 0-.507-.51-1.184-.51-1.184H46c0 0-.34 1.015-.34 1.184 0 .339-5.438 16.754-5.438 16.754s-.51 1.353-.51 2.029c0 .68.678 1.862.678 1.862h-5.773c0 0 0-.846 0-1.183 0-.341-5.947-18.955-6.116-19.463C28.331 13.34 27.821 13.002 27.821 13.002z"/><path fill="#455A64" d="M15.082,13.002c1.697,0-7.987,0-7.987,0s0.17,0.677,0,1.353c-0.17,0.68-3.228,14.384-4.416,19.294C2.509,34.493,2,34.999,2,34.999s3.229,0,8.832,0c5.607,0,10.703-7.105,10.703-14.721C21.535,12.665,14.4,13.002,15.082,13.002z M10.832,31.784c-2.546,0-2.546,0-2.546,0l3.908-15.565c0,0,1.188,0,1.695,0c0.511,0,2.89,0.168,2.89,4.736S13.382,31.784,10.832,31.784z"/></svg>