<svg xmlns="http://www.w3.org/2000/svg"  viewBox="0 0 48 48" width="1600px" height="1600px"><path fill="#212121" d="M24,4C13,4,4,13,4,24s9,20,20,20s20-9,20-20S35,4,24,4z"/><path fill="#fff" d="M10.25,25.625c-0.012-0.279,0.5-6.375,9.875-8.25c0,0,10.698-0.832,11.786,7.897L33.375,42 c0,0-11.875,2.5-12.625,1.25s0.75-14.625,0.75-14.625S10.5,31.25,10.25,25.625z"/><rect width=".5" height="7.64" x="21.611" y="3.993" fill="#fff" transform="rotate(-3.533 21.865 7.81)"/><rect width=".5" height="40.452" x="24.625" y="3.961" fill="#fff" transform="rotate(-3.533 24.88 24.184)"/><rect width=".5" height="2.38" x="17.967" y="12.373" fill="#fff" transform="rotate(-3.533 18.21 13.552)"/><rect width=".5" height="5.01" x="19.863" y="9.37" fill="#fff" transform="rotate(-3.533 20.114 11.87)"/><rect width=".5" height="4.133" x="15.36" y="33.996" fill="#fff" transform="rotate(-3.533 15.615 36.055)"/><rect width=".5" height="27.928" x="16.339" y="5.598" fill="#fff" transform="rotate(-3.533 16.593 19.56)"/><rect width=".5" height="4.258" x="11.449" y="35.371" fill="#fff" transform="rotate(-3.533 11.708 37.502)"/><rect width=".5" height="6.011" x="10.946" y="26.369" fill="#fff" transform="rotate(-3.533 11.204 29.378)"/><rect width=".5" height="6.763" x="9.924" y="9.494" fill="#fff" transform="rotate(-3.533 10.177 12.874)"/><rect width=".5" height="8.266" x="12.312" y="14.992" fill="#fff" transform="rotate(-3.533 12.563 19.12)"/><rect width=".5" height="9.518" x="7.047" y="26.241" fill="#fff" transform="rotate(-3.533 7.298 30.982)"/><rect width=".5" height="8.516" x="6.281" y="14.367" fill="#fff" transform="rotate(-3.533 6.536 18.627)"/><rect width=".5" height="6.137" x="9.267" y="31.494" fill="#fff" transform="rotate(-3.533 9.528 34.574)"/><rect width=".5" height="17.158" x="8.362" y="11.359" fill="#fff" transform="rotate(-3.533 8.617 19.94)"/><rect width=".5" height="5.26" x="25.909" y="9.995" fill="#fff" transform="rotate(-3.533 26.172 12.625)"/><rect width=".5" height="9.017" x="27.654" y="3.991" fill="#fff" transform="rotate(-3.533 27.9 8.494)"/><rect width=".5" height="31.811" x="30.745" y="10.22" fill="#fff" transform="rotate(-3.533 30.998 26.118)"/><rect width=".5" height="8.266" x="31.708" y="5.242" fill="#fff" transform="rotate(-3.533 31.955 9.368)"/><rect width=".5" height="13.526" x="33.971" y="6.862" fill="#fff" transform="rotate(-3.533 34.225 13.619)"/><rect width=".5" height="18.41" x="36.176" y="7.732" fill="#fff" transform="rotate(-3.533 36.428 16.93)"/><rect width=".5" height="8.015" x="39.147" y="28.617" fill="#fff" transform="rotate(-3.533 39.384 32.604)"/><rect width=".5" height="7.389" x="38.339" y="15.868" fill="#fff" transform="rotate(-3.533 38.583 19.552)"/><rect width=".5" height="21.666" x="40.579" y="12.604" fill="#fff" transform="rotate(-3.533 40.83 23.428)"/><circle cx="17.923" cy="21.859" r=".742" fill="#212121"/><circle cx="14.404" cy="21.38" r=".646" fill="#212121"/><path fill="#212121" d="M24,3C12.42,3,3,12.421,3,24s9.42,21,21,21s21-9.421,21-21S35.58,3,24,3z M22.026,42.896 c0.78-4.999,0.275-11.096,0.054-13.234c1.277-0.349,2.166-0.684,2.284-0.731c0.514-0.201,0.769-0.78,0.568-1.295 c-0.201-0.515-0.78-0.772-1.295-0.568c-2.475,0.966-9.415,2.804-11.768-0.243c-0.718-0.929-0.854-1.962-0.404-3.069 c1.024-2.522,4.674-4.836,8.491-5.381c5.454-0.78,10.296,3.085,10.97,7.063c0.589,3.477,1.493,13.004,1.721,15.459 C30.05,42.232,27.115,43,24,43C23.333,43,22.675,42.964,22.026,42.896z M34.552,39.789c-0.319-3.376-1.106-11.443-1.655-14.685 c-0.829-4.895-6.455-9.678-13.225-8.71c-4.538,0.648-8.769,3.428-10.061,6.609c-0.716,1.763-0.477,3.554,0.674,5.044 c2.204,2.855,6.541,2.706,9.828,2.071c0.219,2.251,0.644,7.929-0.062,12.462C11.464,40.758,5,33.122,5,24C5,13.523,13.523,5,24,5 s19,8.523,19,19C43,30.574,39.642,36.377,34.552,39.789z"/></svg>