<svg xmlns="http://www.w3.org/2000/svg"  viewBox="0 0 48 48" width="1600px" height="1600px"><path fill="#039BE5" d="M24,46C13.5,46,5,37.6,5,27.4c0-8.1,5.3-15.3,13.2-17.7c1.7-0.6,3-4.3,3.3-5.4L22,2l1.3,1.9c1.1,1.7,3.2,5,4.6,5.2C36.6,10.9,43,18.6,43,27.4C43,37.6,34.5,46,24,46z"/><path fill="#FFF" d="M29.5,35.2c0.6,0,1.3,0,1.8,0.3c0.5,0.3,0.8,1,0.9,1.4c0.2,0.4,0,0.6-0.3,0.8c-0.3,0.2-0.3,0.1-0.6-0.4c-0.3-0.5-0.5-1-1.9-1c-1.4,0-1.8,0.5-2.5,1c-0.7,0.5-0.9,0.7-1.1,0.4c-0.2-0.3-0.2-0.6,0.3-1c0.4-0.4,1.1-1,1.8-1.3C28.5,35.1,28.9,35.2,29.5,35.2L29.5,35.2z M22.9,39.6c0.8,0.6,2,1.1,4.5,1.1s4.3-0.7,5.1-1.3c0.4-0.3,0.5,0,0.6,0.1c0,0.2,0.1,0.4-0.2,0.7c-0.2,0.2-2,1.4-4.2,1.6c-2.1,0.2-5,0.3-6.8-1.2c-0.3-0.3-0.2-0.7,0-0.8c0.2-0.2,0.4-0.3,0.6-0.3S22.8,39.5,22.9,39.6L22.9,39.6z M14,31.6c0-2.9,2.9-5.6,6.6-5.6c4.6,0,7.9,4.3,10.2,4.2c2,0,5.8-3.7,7.7-3.7c2,0,2.5,1.9,2.5,3.1c0,1.1-0.4,3.2-1.4,4.5c-1,1.3-1.5,1.8-2.7,1.7c-1.4-0.1-4.3-4.2-6.1-4.3c-2.3-0.1-7.3,4.5-11.2,4.5c-2.4,0-3.1-0.3-3.9-0.8C14.6,34.4,14,33.2,14,31.6L14,31.6z"/></svg>