<svg xmlns="http://www.w3.org/2000/svg"  viewBox="0 0 48 48" width="1600px" height="1600px"><circle cx="24" cy="24" r="20" fill="#9575cd"/><path fill="#5e35b1" d="M24,45C12.42,45,3,35.579,3,24S12.42,3,24,3s21,9.421,21,21S35.58,45,24,45z M24,5 C13.523,5,5,13.523,5,24s8.523,19,19,19s19-8.523,19-19S34.477,5,24,5z"/><path fill="#fff" d="M34.824,32.823c0,1.492-3.606,3.039-4.379,3.26c-2.21,0.635-3.951,0.926-6.217,0.926 c-1.395,0-2.228,0-5.228,0c3.319-0.422,7.589-1.244,10-2c0.883-0.277,0.593-0.964,0-1c-3.962-0.241-12.181-0.545-14.746-3.023 c-0.718-0.691-1.077-1.506-1.077-2.404c0-3.868,7.363-5.084,10.761-5.429c-4.061-1.381-7.639-4.365-7.639-6.037 c0-1.575,1.825-2.693,5.127-2.693c3.225,0,8.058-0.319,8.113-0.333c1.119-0.221,1.323-0.193,1.326-0.663 c-0.014-0.207-0.539-0.525-1.285-0.525c0,0-4.579,0.106-5.579,0.106c3.253-1.074,5.187-2.496,7.301-1.861 c1.202,0.359,2.058,1.202,2.266,2.266c0.207,1.036,0.041,1.879-0.47,2.5c-0.939,1.133-6.037,1.101-7.097,1.095 c-1.25-0.008,2,0-2,0c-1.731,0-3.833,0.143-3.051,1.507c0.077,0.134,1.051,1.128,2.418,1.943c1.81,1.091,7.615,2.874,7.684,2.901 c0.11,0.055,0.193,0.166,0.18,0.304c-0.014,0.124-0.111,0.235-0.249,0.262c-4.421,0.884-11.314,3.053-10.969,5.125 c0.29,1.699,3.44,2.5,8.869,2.293h0.29C31.909,31.345,34.824,31.456,34.824,32.823z"/></svg>