<svg xmlns="http://www.w3.org/2000/svg"  viewBox="0 0 48 48" width="1600px" height="1600px"><path fill="#455A64" d="M24 4A20 20 0 1 0 24 44A20 20 0 1 0 24 4Z"/><path fill="#FFF" d="M32.4,22H15.6c-0.9,0-1.6,0.7-1.6,1.6v8.8c0,0.9,0.7,1.6,1.6,1.6h16.8c0.9,0,1.6-0.7,1.6-1.6v-8.8C34,22.7,33.3,22,32.4,22z M17,32c0,0.5-0.5,1-1,1s-1-0.5-1-1v-8c0-0.5,0.5-1,1-1s1,0.5,1,1V32z M25,27.7V32h-2v-4.3c-0.6-0.3-1-1-1-1.7c0-1.1,0.9-2,2-2s2,0.9,2,2C26,26.7,25.6,27.4,25,27.7z M30,20h-2v-3c0-2.2-1.8-4-4-4c-2.2,0-4,1.8-4,4v3h-2v-3c0-3.3,2.7-6,6-6s6,2.7,6,6V20z"/></svg>