<svg xmlns="http://www.w3.org/2000/svg"  viewBox="0 0 48 48" width="1600px" height="1600px"><path fill="#212121" d="M35.604,6H12.396C8.864,6,6,8.864,6,12.396v23.208C6,39.136,8.864,42,12.396,42h23.208	C39.136,42,42,39.136,42,35.604V12.396C42,8.864,39.136,6,35.604,6z M35.5,39c-1.933,0-3.5-1.567-3.5-3.5s1.567-3.5,3.5-3.5	s3.5,1.567,3.5,3.5S37.433,39,35.5,39z"/><path fill="#4caf50" d="M10.5,21c-0.384,0-0.768-0.146-1.061-0.439c-0.586-0.585-0.586-1.536,0-2.121l9-9	c0.586-0.586,1.535-0.586,2.121,0c0.586,0.585,0.586,1.536,0,2.121l-9,9C11.268,20.854,10.884,21,10.5,21z"/><path fill="#ffca28" d="M10.5,30c-0.384,0-0.768-0.146-1.061-0.439c-0.586-0.586-0.586-1.535,0-2.121L27.46,9.418	c0.586-0.586,1.535-0.586,2.121,0c0.586,0.585,0.586,1.536,0,2.121L11.561,29.561C11.268,29.854,10.884,30,10.5,30z"/><path fill="#ff9800" d="M10.5,39c-0.384,0-0.768-0.146-1.061-0.439c-0.586-0.586-0.586-1.535,0-2.121L36.419,9.46	c0.586-0.586,1.535-0.586,2.121,0c0.586,0.585,0.586,1.536,0,2.121L11.561,38.561C11.268,38.854,10.884,39,10.5,39z"/><path fill="#e64a19" d="M19.5,39c-0.384,0-0.768-0.146-1.061-0.439c-0.586-0.586-0.586-1.535,0-2.121l18-18	c0.586-0.586,1.535-0.586,2.121,0c0.586,0.585,0.586,1.536,0,2.121l-18,18C20.268,38.854,19.884,39,19.5,39z"/></svg>