<svg xmlns="http://www.w3.org/2000/svg"  viewBox="0 0 48 48" width="1600px" height="1600px" baseProfile="basic"><path fill="#0277bd" d="M22.916,19.6c0.339-0.493,0.71-0.558,1.012-0.558c0.3,0,0.802,0.064,1.141,0.558	c4.418,6.017,13.579,21.891,14.426,22.755c1.255,1.28,2.977,0.483,3.976-0.969c0.986-1.43,1.259-2.434,1.259-3.504	c0-0.729-14.267-27.05-15.706-29.242C27.642,6.532,27.192,6,24.829,6H23.06c-2.359,0-2.7,0.532-4.081,2.638	C17.538,10.834,3.27,37.155,3.27,37.884c0,1.072,0.272,2.074,1.259,3.504c0.999,1.452,2.721,2.252,3.976,0.969	C9.352,41.493,18.5,25.62,22.916,19.605L22.916,19.6z"/></svg>