<svg xmlns="http://www.w3.org/2000/svg"  viewBox="0 0 48 48" width="1600px" height="1600px"><path fill="#455A64" d="M6,10c0-2.2,1.8-4,4-4h28c2.2,0,4,1.8,4,4v28c0,2.2-1.8,4-4,4H10c-2.2,0-4-1.8-4-4V10z"/><path fill="#FFF" d="M36,37h-9v-2l1.5-0.4c0.3-0.1,0.5-0.3,0.5-0.6v-8.6c0-0.3-0.2-0.5-0.5-0.6L27,24.3l1-2.3h6v12.3c0,0.3,0.2,0.5,0.5,0.6L36,35C36,35,36,37,36,37z M23,37H12v-2l2-0.3V25h-2v-3h2v-3c0,0,0.2-5,6.5-5c6,0,5.5,4,5.5,4l-4,1v-1c0,0-0.3-1-1.5-1C19,17,19,18.3,19,18.3V22h5l-1,3h-4v9.6l4,0.4C23,35,23,37,23,37z M31,17.7c0,0-2.4,1.3-2.4,1.3c0,0-0.6-0.6-0.6-0.6l0.7-2.6L27,14l0.3-0.8h2.2l1.2-2.2h0.7l1.2,2.2h2.1l0.3,0.7l-1.7,1.9l0.7,2.6L33.4,19L31,17.7z"/></svg>