<svg xmlns="http://www.w3.org/2000/svg"  viewBox="0 0 48 48" width="1600px" height="1600px"><path fill="#8bc34a" d="M28.211,4.419C26.841,4.107,25.472,4,24,4C12.947,4,4,12.947,4,24c0,1.472,0.21,3.051,0.526,4.42C8.63,17.684,16.948,8.63,28.211,4.419z M43.79,21.262c-0.21-1.789-0.736-3.47-1.369-5.049c-17.788,5.683-24.317,20.736-26.106,26.316c1.579,0.629,3.265,1.155,5.053,1.365C23.264,39.053,29.263,27.158,43.79,21.262z M43.79,26.841c-1.896,0.95-4.844,2.841-8.947,6.632c-4.634,4.42-6.842,8.104-7.792,10.317c2.632-0.424,5.16-1.369,7.368-2.738L44,44c0,0-1.896-7.052-2.841-9.79C42.528,32.002,43.367,29.473,43.79,26.841z M39.683,11.578c-1.262-1.579-2.632-2.841-4.313-4.001C29.999,9.156,14,15.369,7.577,35.472c1.16,1.579,2.422,3.055,4.001,4.211C18.42,18.844,34.21,12.947,39.683,11.578z"/></svg>