<svg xmlns="http://www.w3.org/2000/svg"  viewBox="0 0 48 48" width="1600px" height="1600px" baseProfile="basic"><path fill="#9ccc65" d="M41.5,14.015v4.822c-2.471,1.241-3.581,2.566-3.581,2.566v8.355	c-4.774-5.968-4.774-9.548-4.774-9.548S35.926,16.498,41.5,14.015z"/><path fill="#9ccc65" d="M41.5,10.578c-8.594,1.826-15.552,6.457-15.552,6.457s2.423,11.53,10.778,18.691h-5.968	C19.98,27.49,16.435,17.823,16.435,17.823S23.883,7.952,41.5,6.197V10.578z"/><path fill="#9ccc65" d="M24.79,35.726h-8.355c-1.194,0-5.968-3.581-7.161-7.161l4.774-3.581	C16.435,29.758,21.21,33.339,24.79,35.726z"/><polygon fill="#9ccc65" points="41.5,37.743 41.5,40.5 6.254,40.5 4.5,38.745 4.5,34.604 7.627,37.743"/></svg>