<svg xmlns="http://www.w3.org/2000/svg"  viewBox="0 0 48 48" width="1600px" height="1600px" baseProfile="basic"><path fill="#37474f" d="M24,8.5c8.31,0,15.1,6.56,15.48,14.77l4.94,2.37c0.06-0.54,0.08-1.09,0.08-1.64 c0-11.3-9.2-20.5-20.5-20.5S3.5,12.7,3.5,24S12.7,44.5,24,44.5c6.49,0,12.29-3.04,16.04-7.76c0.33-0.4,0.64-0.82,0.93-1.25 l-4.55-2.22c-1.03,1.38-2.29,2.58-3.71,3.54c-2.48,1.7-5.48,2.69-8.71,2.69c-8.55,0-15.5-6.95-15.5-15.5S15.45,8.5,24,8.5z"/><path fill="#37474f" d="M36.42,33.27l-6.71-3.29l1.52-3.16c0.82-1.86,0.87-3.94,0.13-5.83c-0.74-1.9-2.17-3.4-4.04-4.22 c-1.86-0.82-3.94-0.87-5.83-0.13c-1.9,0.74-3.4,2.17-4.18,3.96l-3.68,7.63l19.08,8.58l3.26,1.47l4.07-1.54 c0.33-0.4,0.64-0.82,0.93-1.25L36.42,33.27z M26.69,24.73l-1.54,3.2l-4.78-2.16l1.48-3.08c0.28-0.64,0.79-1.13,1.45-1.39 c0.65-0.25,1.37-0.24,2.01,0.05c0.64,0.28,1.13,0.79,1.39,1.45C26.95,23.45,26.94,24.17,26.69,24.73z"/></svg>