<svg xmlns="http://www.w3.org/2000/svg"  viewBox="0 0 48 48" width="1600px" height="1600px"><polygon fill="#e7a42b" points="8,5 42,5 38,39 25,43 11,39"/><polygon fill="#f2bf22" points="38.63,8 35.25,36.71 25,39.86 25,8"/><polygon fill="#faf9f8" points="25,21 26,23 25,25 15.79,25 16.64,12 25,12 26,14 25,16 21.03,16 20.7,21"/><polygon fill="#ebebeb" points="24.9,32.57 25,32.54 26,35 25,36.72 24.94,36.74 16.61,34.36 16.05,28 20.07,28 20.35,31.27"/><polygon fill="#fff" points="34.07,21 32.5,34.42 25,36.72 25,32.54 28.83,31.36 29.57,25 25,25 25,21"/><polygon fill="#fff" points="34.92,18 30.93,18 30.67,16 25,16 25,12 34.13,12 34.3,13.26"/></svg>