<svg xmlns="http://www.w3.org/2000/svg"  viewBox="0 0 48 48" width="1600px" height="1600px"><path fill="#f57c00" d="M14.125 35.188L4.438 27.563 9.25 18.625 23.062 24z"/><path fill="#1e88e5" d="M44 14.688L43.25 37.813 27.875 44 18.625 38 32.125 24z"/><path fill="#2962ff" d="M44 14.688L31.812 29.063 26.25 11 31.563 4.625z"/><path fill="#ab47bc" d="M34.688 19.625L23.25 37.188 7.25 43 9.813 34 13.125 22.875z"/><path fill="#e91e63" d="M13.125 22.875L4 19.813 9.813 4 22.313 5.5 34.688 19.625z"/><path fill="#000001" d="M11 11H36V36H11z"/><path fill="#fff" d="M14 31.5H23V33H14zM20.5 15.875L20.5 14 15.5 14 15.5 15.875 17 15.875 17 22.375 15.5 22.375 15.5 24.25 20.5 24.25 20.5 22.375 19.159 22.375 19.159 15.875zM25.375 24.5c-1.875 0-2.871-1.098-3.25-1.548l1.411-1.605c.255.282.964 1.028 1.839 1.028 1.125 0 1.375-1.125 1.375-1.75V14H29v6.625c0 .624 0 1.625-.75 2.625C27.725 23.95 26.5 24.5 25.375 24.5z"/></svg>