<svg xmlns="http://www.w3.org/2000/svg"  viewBox="0 0 48 48" width="1600px" height="1600px"><path fill="#455A64" d="M35.327,8.076c-1.454,0.338-2.145,1.236-2.672,1.23c0.682-1.26,1.831-2.366,2.947-3.969c1.107-1.603-1.048-3.229-2.823-1.772c-1.869,1.522-1.593,2.318-2.503,4.158c-0.296,1.068-0.817,1.139-1.259,0.195c-0.521-0.94-0.756-2.098-1.573-2.821c-1.309-1.147-2.802-0.3-2.002,0.986c0.792,1.301,1.151,2.664,1.469,4.801c0.458,3.191-0.876,6.762-2.62,8.452C21.137,12.81,17.04,7.967,14.144,6.479c-0.873-0.452-1.14-0.087-1.14,0.334c0.551,6.398,0.751,10.829,0.401,14.102c-0.158,1.452-3.567,6.861-3.397,8.125c0.171,1.264,1.178,3.196,1.851,4.196c-0.276-0.2-0.953,0.267-0.787,0.902c-1.217,0.692-1.114,1.791,0.133,2.072c0.326,0.84,0.382,1.244,1.279,1.643c-0.17,1.783-0.36,3.665-0.54,5.672c0.813,4.03,6.972-2.987,7.765-3.568c4.279-3.17,4.943,3.762,7.935,4.838c5.021,1.831,3.422-8.896-0.637-19.433c-0.466-6.769,1.738-8.704,3.904-9.598c1.138-0.375,1.994-0.424,3.541,0.031c2.665,0.776,3.253-2.285,0.876-2.662c-0.898-0.136-1.583-0.138-2.422-0.526c0.347-1.335,1.683-1.439,2.994-1.619C38.895,10.55,38.673,7.278,35.327,8.076z M12.156,33.343l0.028-0.03c0,0,0,0.002,0.001,0.002L12.156,33.343z M13.204,31.014c-0.329-0.869-0.767-0.974-1.006-1.771c0.484-0.531,0.812-1.589,1.297-2.449C13.387,28.351,13.353,29.41,13.204,31.014z M15.556,17.223c0.887-1.749,2.77-2.751,4.198-2.258c1.444,0.492,1.895,2.302,1.01,4.036c-0.881,1.749-2.754,2.749-4.195,2.257C15.137,20.766,14.688,18.956,15.556,17.223z"/><path fill="#F44336" d="M15.556,17.223c0.887-1.749,2.77-2.751,4.198-2.258c1.444,0.492,1.895,2.302,1.01,4.036c-0.881,1.749-2.754,2.749-4.195,2.257C15.137,20.766,14.688,18.956,15.556,17.223z"/><path fill="#FFF" d="M25.08 37.053c.284.524 2.651 3.76 2.438.768-.455-6.279-2.752-11.806-5.165-16.452-2.387 4.753-6.092 2.756-6.092 2.756-.145 5.505-.478 6.118-1.124 10.837C13.896 46.431 20.197 28.146 25.08 37.053zM17.358 19.124c.409-.449.532-1.157.282-1.594-.26-.422-.795-.414-1.202.034-.406.45-.53 1.171-.281 1.594C16.407 19.583 16.95 19.572 17.358 19.124z"/></svg>