<svg xmlns="http://www.w3.org/2000/svg"  viewBox="0 0 48 48" width="1600px" height="1600px"><path fill="#A1887F" d="M31.916,6c-9.229,0-10.507,8.563-13.905,12.089C14.65,21.567,6,24.118,6,32.127c0,1.854,0.842,3.821,2.986,5.883c1.131,1.104,2.706,1.613,4.55,1.613c4.744,0,11.316-3.412,16.963-9.254c7.839-8.126,10.915-17.871,6.885-21.774C35.466,6.743,33.642,6,31.916,6L31.916,6z"/><path fill="#6D4C41" d="M37.626,8.882c3.628,4.069,0.536,13.544-7.127,21.487c-5.646,5.842-12.219,9.254-16.963,9.254c-1.363,0-2.576-0.282-3.575-0.874c6.959,5.632,17.164,3.709,24.792-4.194C42.533,26.491,44.884,16.248,37.626,8.882z"/><path fill="#6D4C41" d="M25.277,17.705c-0.605,1.683-1.13,3.669-2.644,5.242c-1.456,1.516-3.979,2.609-5.531,3.38c-3.999,1.978-5.48,6.218-5.19,9.066c0.876-3.222,4.028-5.157,6.646-6.434c1.725-0.844,4.64-1.798,6.502-3.728c1.989-2.05,2.313-4.465,2.994-6.288c0.937-2.468,3.881-6.135,6.656-7.746C32.225,11.126,27.158,12.536,25.277,17.705z"/></svg>