<svg xmlns="http://www.w3.org/2000/svg"  viewBox="0 0 48 48" width="1600px" height="1600px" baseProfile="basic"><polygon fill="#212121" points="24,23 24,44 42,34.5 42,13.5"/><polygon fill="#fafafa" points="35.016,30.297 28,34 28,37 35.016,33.297"/><polygon fill="#f44336" points="6,13.5 6,16.5 24,26 24,23"/><polygon fill="#ff5722" points="6,16.5 6,19.5 24,29 24,26"/><polygon fill="#ff6f00" points="6,19.5 6,22.5 24,32 24,29"/><polygon fill="#ff8f00" points="6,22.5 6,25.5 24,35 24,32"/><polygon fill="#ff9800" points="6,25.5 6,28.5 24,38 24,35"/><polygon fill="#ffb300" points="6,28.5 6,31.5 24,41 24,38"/><polygon fill="#fbc02d" points="6,31.5 6,34.5 24,44 24,41"/><polygon fill="#ff1744" points="8.565,12.146 6,13.5 24,23 26.565,21.646"/><polygon fill="#f50057" points="11.13,10.793 8.565,12.146 26.565,21.646 29.13,20.293"/><polygon fill="#e91e63" points="13.694,9.439 11.13,10.793 29.13,20.293 31.694,18.939"/><polygon fill="#d81b60" points="16.259,8.085 13.694,9.439 31.694,18.939 34.259,17.586"/><polygon fill="#c51162" points="18.824,6.732 16.259,8.085 34.259,17.586 36.824,16.232"/><polygon fill="#ad1457" points="21.389,5.378 18.824,6.732 36.824,16.232 39.389,14.878"/><polygon fill="#8e24aa" points="24,4 21.389,5.378 39.389,14.878 42,13.5"/></svg>