<svg xmlns="http://www.w3.org/2000/svg"  viewBox="0 0 48 48" width="1600px" height="1600px"><path fill="#0277BD" d="M39,21.5C38.9,14.6,33.2,9,26.3,9c-5.2,0-9.7,3.1-11.7,7.6c-0.4-0.1-0.7-0.1-1.1-0.1c-3.2,0-5.8,2.5-6,5.7C4.8,23.7,3,26.7,3,30c0,5,4,9,9,9h24c5,0,9-4,9-9C45,26.1,42.5,22.8,39,21.5z"/><path fill="#FFF" d="M31.1,34c-2.8,0-5.4-2.5-8-4.9c-2.2-2-4.4-4.1-6.2-4.1c-1.7,0-3,1.3-3,3c0,1.6,1.4,3,3,3c1.4,0,2.7-0.6,3.9-1.9l2,2.1c-1.8,1.8-3.8,2.8-6,2.8c-3.3,0-5.9-2.7-5.9-6s2.7-6,5.9-6c2.8,0,5.5,2.5,8.1,4.9c2.2,2,4.4,4.1,6,4.1c1.7,0,3.1-1.3,3.1-3c0-1.7-1.3-3-3-3c-2,0-3.7,1.4-4.2,1.8l-2-2.1c0.1-0.1,2.6-2.7,6.2-2.7c3.3,0,5.9,2.7,5.9,6S34.3,34,31.1,34z"/></svg>