<svg xmlns="http://www.w3.org/2000/svg"  viewBox="0 0 48 48" width="1600px" height="1600px"><path fill="#eceff1" d="M16 26H32V38H16z"/><path fill="#ffcc80" d="M14,19c-1.938,0.375-8,4-8,4s-6-0.25-6,3c0,3.75,5,5,5,5s4.5,4,11,4s11.188-4,13-4c1.188,0,1,1,1,1c0,1.875-4.188,4-8,4s-3.938-1-6-1s-2,2-2,2s-0.063,5,14,5h4l15-18c-2.375-4.083-9-6-9-6s-1.5-6-3-6s-4,5-4,5H21c0,0-2.25-5-4-5S14,19,14,19z"/><path fill="#b0bec5" d="M27.959,33.853c0.016-0.009-0.162,0.08-0.403,0.177c-0.247,0.097-0.595,0.226-1.014,0.352c-0.837,0.257-1.961,0.499-3.085,0.625c-1.125,0.132-2.247,0.14-3.078,0.096C19.546,35.069,19,35,19,35s0.55-0.057,1.357-0.207c0.807-0.143,1.868-0.397,2.878-0.76c1.012-0.358,1.973-0.813,2.646-1.203c0.338-0.194,0.603-0.37,0.782-0.493c0.181-0.128,0.238-0.182,0.253-0.191c0.471-0.288,1.087-0.139,1.375,0.332C28.579,32.95,28.43,33.565,27.959,33.853z"/><path fill="#a1887f" d="M6.514,25.023l-0.597-0.025c-0.012,0-0.088-0.003-0.208-0.003c-0.369,0-1.654,0.026-2.708,0.355C2.766,25.424,2,25.687,2,26c0,2.094,3.45,3.051,3.485,3.06l0.477,0.119C5.962,29.179,6.514,27.9,6.514,25.023z"/><path fill="#fff" d="M13.752,24.906c-2.513-0.425-2.356-2.339-2.356-2.339l4.766,0.598C16.162,23.166,16.536,25.377,13.752,24.906z M25.194,26.807c-2.864-0.484-2.885-2.583-2.885-2.583l5.433,0.682C27.742,24.906,28.367,27.344,25.194,26.807z"/><path fill="#263238" d="M26.422,24.555c0.522,0,0.946,0.53,0.946,1.183c0,0.653-0.423,1.183-0.946,1.183s-0.946-0.53-0.946-1.183C25.476,25.084,25.899,24.555,26.422,24.555z M14.898,22.919c0.437,0,0.792,0.475,0.792,1.062c0,0.586-0.354,1.062-0.792,1.062s-0.792-0.475-0.792-1.062C14.106,23.394,14.461,22.919,14.898,22.919z"/><path fill="#37474f" d="M47.457,22.801C46.056,21.62,42.677,19.78,38,18c0,0,0.198,0.867,0.299,2.195c0.606,0.274,1.278,0.581,2.054,0.945c2.726,1.232,4.546,2.229,5.466,2.915C44.808,25.536,38.568,34.57,33.178,40h-4.982C28.068,40.621,28,41.277,28,42h6c6.188-6,13.619-17.035,13.619-17.035c0.278-0.313,0.401-0.705,0.379-1.09C47.974,23.474,47.791,23.082,47.457,22.801z"/><path fill="#37474f" d="M47.457,22.801c-1.297-1.093-4.306-2.753-8.457-4.406v-0.058C38.388,18.113,38,18,38,18s-1.5-6-3-6s-4,5-4,5H21c0,0-2.25-5-4-5s-3,7-3,7c-0.706,0.137-1.96,0.706-3.268,1.373L8,20c0,0,0.005,0.96,0.007,1.841C6.846,22.494,6,23,6,23s-0.107-0.004-0.292-0.004C4.507,22.996,0,23.183,0,26c0,3.75,5,5,5,5s4.5,4,11,4s11.188-4,13-4c1.188,0,1,1,1,1c0,1.875-4.188,4-8,4s-3.938-1-6-1s-2,2-2,2s-0.063,5,14,5h2h4c6.188-6,13.619-17.035,13.619-17.035c0.278-0.313,0.401-0.705,0.379-1.09C47.974,23.474,47.791,23.082,47.457,22.801z M11.396,22.567l4.766,0.598c0,0,0.374,2.211-2.41,1.741C11.239,24.482,11.396,22.567,11.396,22.567z M33.178,40H30h-1.804H28c-9.596,0-11.579-2.362-11.938-3c0.502,0.007,0.775,0.1,1.298,0.279C18.251,37.583,19.471,38,22,38c4.023,0,9.842-2.275,9.997-5.854c0.044-0.454,0.022-1.334-0.627-2.116C31.051,29.645,30.318,29,29,29c-1.092,0-2.207,0.549-3.749,1.309C22.945,31.445,19.788,33,16,33c-5.615,0-9.637-3.465-9.671-3.495l-0.367-0.326L5.485,29.06C5.45,29.051,2,28.094,2,26c0-0.313,0.766-0.576,1-0.65c1.054-0.329,2.339-0.355,2.708-0.355c0.121,0,0.196,0.002,0.208,0.003l0.597,0.025l0.513-0.306c0.386-0.231,0.789-0.466,1.198-0.701C8.584,25.249,9.533,26.718,12,27c4.382,0.501,6-3,6-3l1.029,0.154c0,0,1.504,4.954,5.971,4.846c4.945-0.12,5-4,5-4h7.775c0.185-0.691,0.311-1.358,0.401-2H30l-15.336-2.091l1.064-0.206l0.241-1.351c0.316-1.769,0.855-3.674,1.318-4.771c0.588,0.758,1.342,2.028,1.889,3.24L19.707,19H21h10h1.236l0.553-1.106c0.594-1.189,1.369-2.439,1.972-3.23c0.436,0.95,0.952,2.438,1.299,3.821l0.28,1.116l1.104,0.32c0.259,0.075,0.599,0.189,0.986,0.333c0.573,0.26,1.199,0.546,1.923,0.885c2.726,1.232,4.546,2.229,5.466,2.915C44.808,25.536,38.568,34.57,33.178,40z M22.31,24.224l5.433,0.682c0,0,0.625,2.437-2.548,1.901C22.33,26.324,22.31,24.224,22.31,24.224z"/><path fill="#6d4c41" d="M32,17c0,0-1.351-10-3.35-10c-2.277,0-3.74,3.214-3.74,3.214s-1.2-2.236-2.52-2.236C19.73,7.978,20,18,20,18s-2.728,1.415-2.728,2.278C17.272,20.955,20.315,21,24,21c9.917,0,10-1.692,10-2C34.001,18.632,32,17,32,17z"/><path fill="#40c4ff" d="M45.819,24.055C44.808,25.536,38.568,34.57,33.178,40H30h-1.72c0.859-2.945,3.68-4.96,7.72-9c3.249-3.249,3.06-7.913,2.569-10.682c0.537,0.244,1.116,0.509,1.784,0.822C43.079,22.372,44.899,23.369,45.819,24.055z M31.513,14.077C25.593,15.03,20.507,15.005,20.047,15c-0.025,0.509-0.039,0.986-0.047,1.402V18c0,0,8.583,0.583,12-1C32,17,31.827,15.72,31.513,14.077z"/><path fill="#1e88e5" d="M29.526,14.365c0.649-0.085,1.312-0.179,1.988-0.288C31.827,15.72,32,17,32,17c-0.492,0.228-1.1,0.407-1.766,0.553L29.526,14.365z M31.037,40c1.901-5.067,10.388-9.722,10.912-18.114c-0.495-0.238-1.021-0.486-1.596-0.746c-0.776-0.364-1.447-0.67-2.052-0.944c0.205,2.755-0.601,6.906-3.303,10.679C32.625,34.188,28.75,36.984,28.22,40H31.037z"/></svg>