<svg xmlns="http://www.w3.org/2000/svg"  viewBox="0 0 48 48" width="1600px" height="1600px"><path fill="#eceff1" d="M24 4A20 20 0 1 0 24 44A20 20 0 1 0 24 4Z"/><path fill="#212121" d="M38,24c0-5.206-2.34-9.866-6.026-12.984c-1.11-0.026-4.807-2.185-5.027-2.947 C25.095,7.378,23.092,7,21,7c-0.581,0-1.155,0.029-1.72,0.086C10.699,7.948,4,15.192,4,24c0,9.389,7.611,17,17,17 c4.782,0,9.103-1.974,12.192-5.152c0.017-1.285,2.163-3.994,3.096-4.404C37.385,29.196,38,26.67,38,24z"/><path fill="#00e5ff" d="M40.13,27.9c-0.03,0.04-0.05,0.08-0.07,0.13c0.02-0.03,0.03-0.06,0.04-0.09 C40.1,27.92,40.12,27.91,40.13,27.9z"/><path fill="#f06292" d="M41.06 34.44c-.23.38-.48.75-.74 1.11l-3.42-1.97-1.36-.78c.01-.01.02-.02.02-.03.23-.37.44-.75.63-1.14l.62.36 1.94 1.12L41.06 34.44zM42.82 30.79c-.16.42-.32.84-.5 1.24l-4.24-1.53-.46 1.25-1.21-.44.25-.67.11-.29.34-.91c.01-.03.02-.05.03-.08l.67-1.79 1.2.43-.46 1.25 2.16.78h.01L42.82 30.79zM41.254 27.338l.054.031-.146.706-.052-.01c-.134-.025-.247-.01-.342.041-.044.024-.081.058-.109.101l-.594-.175c.082-.223.212-.402.394-.532.232-.166.499-.221.788-.161L41.254 27.338zM43.286 28.014c.036.064.062.133.081.206l-.58.341c-.007-.041-.02-.076-.041-.105-.047-.065-.126-.109-.229-.128-.11-.02-.202-.009-.277.037-.078.047-.165.144-.265.287-.176.301-.358.532-.532.675l-.253-.706c.061-.066.134-.158.212-.274.167-.288.351-.505.544-.634.198-.134.442-.176.719-.125C42.954 27.643 43.163 27.786 43.286 28.014z"/><g><path fill="#00e5ff" d="M41.44 29.33c-.01.01-.01.01-.02.02-.2.15-.43.2-.71.15-.27-.05-.48-.2-.61-.44-.13-.23-.16-.51-.09-.83.01-.07.03-.14.05-.2l.6.18c-.03.04-.05.08-.06.14-.03.11-.01.2.04.27.05.08.12.12.23.14.09.02.16 0 .23-.06.03-.02.06-.05.09-.08L41.44 29.33zM36.9 33.58l-1.36-.78c.01-.01.02-.02.02-.03l1.3.13L36.9 33.58zM38.08 30.5l-1.42.14.11-.29.34-.91c.01-.03.02-.05.03-.08L38.08 30.5z"/></g><g><path fill="#9c27b0" d="M43.367 28.22c.049.181.05.388.002.616-.03.143-.076.276-.139.396-.078.147-.183.278-.309.389-.236.204-.528.271-.871.2l-.009-.002-.052-.03.147-.708.052.01c.18.032.317.019.407-.041.09-.061.152-.168.184-.322.012-.064.015-.12.006-.167L43.367 28.22zM38.751 33.106L36.805 31.986 36.859 32.904zM38.082 30.499L40.717 30.034 38.547 29.252 39.013 28.005 37.81 27.571 37.143 29.357z"/></g><g><path fill="#eceff1" d="M32.66 12.92l-1.09-.51v-1.39c0 0 .17 0 .4 0-.86-.73-1.78-1.37-2.77-1.91-.72-.4-1.47-.75-2.25-1.04-1.74-.42-3.6-.5-5.7-.5-.58 0-1.39-.3-1.96-.24-.54.29-.87.29-.87.29l.31.32c0 0-.54-.09-.89.09-.35.18-1.05.15-.83.6.23.46.19 1.23-.35 1.17 0 0 .48-.74-.32-1.29 0 0-4.26 2.22-5 3.29 0 0-.73-.3 0-.68.74-.39.99-.99-.82-.24-1.82.74-3.38 3.68-3.38 3.68l.48-.27c0 0-.83 1.59-2.04 2.87l-.16 1.05c0 0-.54.16-.76 1.9 0 0-.1.32.22-.01.13-.13.34-.27.51-.35.16-.06.38-.24.64-.72.23-.41.43-.76.68-.91.27-.16.62-.1.84.13.35.38 1 .97 1.12.38.17-.87 1.21-.64 1.33-.27.11.32-1.25.63.53.75.37.02 1 1.38-.29 1.49-1.29.12-1.75-.87-1.8-.29-.06.59.428.87-.687.612-.643-.149-.499-1.415-1.129-1.145-.448.199-1.367.278-1.953.8-.239.213-.153.785-.391.974-.09.38-.18.83-.24 1.39-.01.09-.02.18-.02.28-.01.03-.01.07-.01.1 0 .2-.01.42-.01.65V24c0 .3.02.62.06.96 0 0 .04 1.48 1.27 1.16 0 0 .22.12.39.44.17.32.63-.24.63.6 0 .59.27 1.7.52 2.26.1.22.14.46.11.7-.03.37.16.94.6 1.5.68.88 1.22 2.96 2.12 3.2.89.23 1.14.35 1.27-.44.13-.81.47-.17.49-.75.02-.57-.17-.95-.17-.95s1.34-.18 1.08-1.14c-.25-.96-.74-2.12.16-2.84.82-.65 1.81-1.44 1.38-2.36-.1-.19-.32-.3-.53-.26l-.49.07c-.54.09-.75-.2-.99-.69-.48-.97-1.19-2.51-1.19-3.04 0-.77 1.8 1.31 1.93 2.27.11.79 2.55.05 3.52-1.19.29-.37.18-.91-.22-1.16-.39-.26-.87-.5-1.08-.37-.39.24-1.42-.33-1.77-1.37-.35-1.04.29-.48.61-.27.3.19 2.3 1.37 4.08 1.31.31-.01.59.16.76.42.29.45.76 1.05 1.16.93.23-.07.45.09.49.32.16.79.49 1.79 1.45 2.69 0 0 .59.15.64-1.48 0-.2.12-.4.31-.49.44-.2 1.28-.63 1.97-1.19.3-.25.75-.2.99.12.22.29.42.68.45 1.16 0 0 .12.47.8.82.94.48-.04 1.77 1.87 2.96 0 0 .25-.88-.63-1.49-.89-.62 0-1.29 0-1.29S29 25.69 29 26.11s1.4-.5.95-1.65c-.44-1.13-1.37-.06-.77-1.58 0 0 2.94.04 2.82-2.8 0 0-.33-1.34-.97-2.15 0 0 .13-.96.48-.93.35.03 1.08.81 1.34 1.61.25.81.76.24.25-.62 0 0-.64-2.08.64-1.72C33.74 16.27 34.8 14.33 32.66 12.92zM13.39 17.12c.39.85.61.17.61 1.11 0 .93-1.23.93-1.74.46-.51-.46 1.13-.78 0-1.71C11.14 16.05 14 13.41 14 16.36 13.8 16.89 12.71 15.64 13.39 17.12zM35.245 17.624c0 0 .805.913-.306 1.686s-1.055.492-.75 1.569c0 0 .509.328.574-.094.065-.421.037-.89.621-1.007.583-.117.833-.749.389-2.154C35.329 16.22 35.245 17.624 35.245 17.624z"/><path fill="#eceff1" d="M26.044 27.149c0 0 1.128 1.203 1.737 2.24.609 1.037 1.511.56 1.128 0-.383-.56-1.308-1.825-2.661-2.385C26.247 27.004 25.875 26.963 26.044 27.149zM36.28 31.44c-.81 1.69-1.864 3.187-3.174 4.507l-.105.093L33 35c0 0 0-.82-1.5-.03-1.48.79-2.59 1.34-2.49.84.08-.52.4-.17.42-.95.02-.76-.04-1.79 1.65-2.19 1.69-.41.58-1.3 1.76-1.67 0 0 .11-.06.47.14.39.22.33-.87 1.49-.77 0 0-.2.52.14.79.34.26.68-1.25 1.06-1.16C36.34 30.08 36.36 30.75 36.28 31.44zM32.552 26.009l-1.876 1.533c0 0-.893-.104-.625.626.268.73.268.73.268.73s.834-.089 1.102 0c.268.089.834.355 1.132-.6s.536-1.911.417-2.133C32.85 25.943 32.552 26.009 32.552 26.009z"/></g><g><path fill="#f06292" d="M22.986 23.01L16.354 18.536 21.907 17.457 20.828 11.904 25.524 15.073 24.405 16.73 23.854 16.359 24.256 19.042 21.617 19.675 24.104 21.352zM27.391 10.481l-1.745-.353L24.9 11.233l1.276 1.86 1.632 2.174 0 .001.211.281.559-.829-.366-.649 1.305-1.934.739.097.559-.829L27.391 10.481zM27.57 13.236l-.324-.493-1.006-1.41 1.272.321.99.2L27.57 13.236zM31.375 10.576L28.888 8.898 30.971 8.494 30.566 6.411 33.053 8.089 32.587 8.78 31.758 8.221 31.938 9.146 31.012 9.326 31.841 9.885z"/></g><g><path fill="#00e5ff" d="M19.67 20.773L22.584 20.327 21.617 19.675 23.156 19.306 20.75 17.682 16.354 18.536zM27.246 12.743L27.57 13.236 27.808 15.268 26.176 13.093zM28.888 8.898L30.177 9.767 31.427 9.605 31.012 9.326 31.474 9.236 30.521 8.581z"/></g><g><path fill="#9c27b0" d="M30.816 11.405L30.629 11.681 28.129 12.407 28.502 11.854 27.617 11.675 27.391 10.481zM26.341 18.037L23.854 16.359 23.315 13.582 27.46 16.379zM32.587 8.78L31.758 8.221 31.521 7.055 33.053 8.089z"/></g></svg>