<svg xmlns="http://www.w3.org/2000/svg"  viewBox="0 0 48 48" width="1600px" height="1600px"><path fill="#424242" d="M33,29.996h-3v-7.824c-0.076-1.169-0.863-1.747-1.893-1.865c-1.169-0.134-2.165,0.409-2.431,1.514 c-0.119,0.493-0.17,1.014-0.175,1.523v6.652h-3c0,0,0.009-7.376,0-7.613c-0.054-1.362-0.701-1.99-1.807-2.083 c-1.161-0.097-2.36,0.633-2.596,1.813c-0.077,0.383-0.093,0.784-0.094,1.177C17.994,25.501,18,29.996,18,29.996h-3V18.039h3.002 v1.576c1.023-1.275,2.195-1.973,3.669-1.947c1.454,0.026,2.728,0.415,3.433,1.876c0.463-0.412,0.865-0.841,1.333-1.176 c1.941-1.389,5.149-0.726,6.108,1.281c0.247,0.518,0.444,1.127,0.455,1.698V29.996z"/><polygon fill="#424242" points="10,41 6,41 6,7 10,7 10,9 8,9 8,39 10,39"/><polygon fill="#424242" points="42,41 38,41 38,39 40,39 40,9 38,9 38,7 42,7"/></svg>