<svg xmlns="http://www.w3.org/2000/svg"  viewBox="0 0 48 48" width="1600px" height="1600px"><path fill="#7cb342" d="M12,29c0,1.1-0.9,2-2,2s-2-0.9-2-2v-9c0-1.1,0.9-2,2-2s2,0.9,2,2V29z M40,29c0,1.1-0.9,2-2,2	s-2-0.9-2-2v-9c0-1.1,0.9-2,2-2s2,0.9,2,2V29z M22,40c0,1.1-0.9,2-2,2s-2-0.9-2-2v-9c0-1.1,0.9-2,2-2s2,0.9,2,2V40z M30,40	c0,1.1-0.9,2-2,2s-2-0.9-2-2v-9c0-1.1,0.9-2,2-2s2,0.9,2,2V40z"/><path fill="#7cb342" d="M14,18v15c0,1.1,0.9,2,2,2h16c1.1,0,2-0.9,2-2V18H14z M24,8c-6,0-9.7,3.6-10,8h20	C33.7,11.6,30,8,24,8z M20,13.6c-0.6,0-1-0.4-1-1s0.4-1,1-1s1,0.4,1,1C21,13.1,20.6,13.6,20,13.6z M28,13.6c-0.6,0-1-0.4-1-1	s0.4-1,1-1s1,0.4,1,1C29,13.1,28.6,13.6,28,13.6z"/><path fill="#7cb342" d="M28.3,10.5c-0.2,0-0.4-0.1-0.6-0.2c-0.5-0.3-0.6-0.9-0.3-1.4l1.7-2.5c0.3-0.5,0.9-0.6,1.4-0.3	C31,6.4,31.1,7,30.8,7.5L29.1,10C29,10.3,28.7,10.5,28.3,10.5z M19.3,10.1c-0.3,0-0.7-0.2-0.8-0.5l-1.3-2.1C16.9,7,17,6.4,17.5,6.1	s1.1-0.2,1.4,0.3l1.3,2.1c0.3,0.5,0.2,1.1-0.3,1.4C19.7,10,19.5,10.1,19.3,10.1z"/><path fill="#37474f" d="M3.564,6.393l2.828-2.828l37.972,37.971l-2.828,2.828L3.564,6.393z"/></svg>