<svg xmlns="http://www.w3.org/2000/svg"  viewBox="0 0 48 48" width="1600px" height="1600px"><path fill="#eceff1" d="M20.1,16.2l0.1,2.3l-1.6,3l-2.5,4.9l-0.5,4.1l1.8,5.8l4.1,2.3h6.2l5.8-4.4l2.6-6.9l-6-7.3l-1.7-4.1	L20.1,16.2z"/><path fill="#263238" d="M34.3,21.9c-1.6-2.3-2.9-3.7-3.6-6.6s0.2-2.1-0.4-4.6C30,9.4,29.5,8.5,29,7.8	c-0.6-0.7-1.3-1.1-1.7-1.2c-0.9-0.5-3-1.3-5.6,0.1c-2.7,1.4-2.4,4.4-1.9,10.5c0,0.4-0.1,0.9-0.3,1.3c-0.4,0.9-1.1,1.7-1.7,2.4	c-0.7,1-1.4,2-1.9,3.1c-1.2,2.3-2.3,5.2-2,6.3c0.5-0.1,6.8,9.5,6.8,9.7c0.4-0.1,2.1-0.1,3.6-0.1c2.1-0.1,3.3-0.2,5,0.2	c0-0.3-0.1-0.6-0.1-0.9c0-0.6,0.1-1.1,0.2-1.8c0.1-0.5,0.2-1,0.3-1.6c-1,0.9-2.8,1.9-4.5,2.2c-1.5,0.3-4-0.2-5.2-1.7	c0.1,0,0.3,0,0.4-0.1c0.3-0.1,0.6-0.2,0.7-0.4c0.3-0.5,0.1-1-0.1-1.3s-1.7-1.4-2.4-2c-0.7-0.6-1.1-0.9-1.5-1.3c0,0-0.6-0.6-0.8-0.8	c-0.2-0.2-0.3-0.4-0.4-0.5c-0.2-0.5-0.3-1.1-0.2-1.9c0.1-1.1,0.5-2,1-3c0.2-0.4,0.7-1.2,0.7-1.2s-1.7,4.2-0.8,5.5	c0,0,0.1-1.3,0.5-2.6c0.3-0.9,0.8-2.2,1.4-2.9s2.1-3.3,2.2-4.9c0-0.7,0.1-1.4,0.1-1.9c-0.4-0.4,6.6-1.4,7-0.3c0.1,0.4,1.5,4,2.3,5.9	c0.4,0.9,0.9,1.7,1.2,2.7c0.3,1.1,0.5,2.6,0.5,4.1c0,0.3,0,0.8-0.1,1.3c0.2,0,4.1-4.2-0.5-7.7c0,0,2.8,1.3,2.9,3.9	c0.1,2.1-0.8,3.8-1,4.1c0.1,0,2.1,0.9,2.2,0.9c0.4,0,1.2-0.3,1.2-0.3c0.1-0.3,0.4-1.1,0.4-1.4C37.6,27.9,35.9,24.2,34.3,21.9z"/><path fill="#eceff1" d="M21.6,11.3c-0.718-0.001-1.3,0.894-1.301,1.999c0,1.105,0.581,2.001,1.299,2.001	c0.001,0,0.001,0,0.002,0c0.718,0.001,1.3-0.894,1.301-1.999s-0.581-2.001-1.299-2.001C21.601,11.3,21.601,11.3,21.6,11.3z M26.1,10.9c-0.939,0-1.7,1.03-1.7,2.3s0.761,2.3,1.7,2.3s1.7-1.03,1.7-2.3S27.039,10.9,26.1,10.9L26.1,10.9z"/><path fill="#212121" d="M20.938,13.612c0.083,0.658,0.461,1.151,0.845,1.103c0.384-0.048,0.627-0.621,0.544-1.278	c-0.083-0.658-0.461-1.151-0.845-1.103C21.098,12.382,20.855,12.955,20.938,13.612z"/><path fill="#212121" d="M26,12.3c-0.552,0-1,0.581-1.001,1.299c0,0.718,0.447,1.3,0.999,1.301c0,0,0.001,0,0.001,0	c0.552,0,1-0.581,1.001-1.299c0-0.718-0.447-1.3-0.999-1.301C26.001,12.3,26,12.3,26,12.3z"/><path fill="#ffc107" d="M39.3,35.6c-0.4-0.2-1.1-0.5-1.7-1.4c-0.3-0.5-0.2-1.9-0.7-2.5c-0.3-0.4-0.7-0.2-0.8-0.2	c-0.9,0.2-3,1.6-4.4,0c-0.2-0.2-0.5-0.5-1-0.5s-0.7,0.2-0.9,0.6s-0.2,0.7-0.2,1.7c0,0.8,0,1.7-0.1,2.4c-0.2,1.7-0.5,2.7-0.5,3.7	c0,1.1,0.3,1.8,0.7,2.1c0.3,0.3,0.8,0.5,1.9,0.5c1.1,0,1.8-0.4,2.5-1.1c0.5-0.5,0.9-0.7,2.3-1.7c1.1-0.7,2.8-1.6,3.1-1.9	c0.2-0.2,0.5-0.3,0.5-0.9C40,35.9,39.6,35.7,39.3,35.6z M19.2,35.9c-1-1.6-1.1-1.9-1.8-2.9c-0.6-1-1.9-2.9-2.7-2.9	c-0.6,0-0.9,0.3-1.3,0.7c-0.4,0.4-0.8,1.3-1.5,1.8c-0.6,0.5-2.3,0.4-2.7,1s0.4,1.5,0.4,3c0,0.6-0.5,1-0.6,1.4	c-0.1,0.5-0.2,0.8,0,1.2c0.4,0.6,0.9,0.8,4.3,1.5c1.8,0.4,3.5,1.4,4.6,1.5s3,0,3-2.7C21,37.9,20.1,37.5,19.2,35.9z M21.1,17.8	C20.5,17.4,20,17,20,16.4c0-0.6,0.4-0.8,1-1.3c0.1-0.1,1.2-1.1,2.3-1.1s2.4,0.7,2.9,0.9c0.9,0.2,1.8,0.4,1.7,1.1	c-0.1,1-0.2,1.2-1.2,1.7c-0.7,0.2-2,1.3-2.9,1.3c-0.4,0-1,0-1.4-0.1C22.1,18.8,21.6,18.3,21.1,17.8z"/><path fill="#634703" d="M20.9,17c0.2,0.2,0.5,0.4,0.8,0.5c0.2,0.1,0.5,0.2,0.5,0.2c0.4,0,0.7,0,0.9,0c0.5,0,1.2-0.2,1.9-0.6 c0.7-0.3,0.8-0.5,1.3-0.7c0.5-0.3,1-0.6,0.8-0.7s-0.4,0-1.1,0.4c-0.6,0.4-1.1,0.6-1.7,0.9c-0.3,0.1-0.7,0.3-1,0.3s-0.6,0-0.9,0 s-0.5-0.1-0.8-0.2c-0.2-0.1-0.3-0.2-0.4-0.2c-0.2-0.1-0.6-0.5-0.8-0.6c0,0-0.2,0-0.1,0.1C20.6,16.7,20.7,16.8,20.9,17z M23.9,14.8 c0.1,0.2,0.3,0.2,0.4,0.3c0.1,0.1,0.2,0.1,0.2,0.1c0.1-0.1,0-0.3-0.1-0.3C24.4,14.7,23.9,14.7,23.9,14.8z M22.3,15 c0,0.1,0.2,0.2,0.2,0.1c0.1-0.1,0.2-0.2,0.3-0.2c0.2-0.1,0.1-0.2-0.2-0.2C22.4,14.8,22.4,14.9,22.3,15z"/><path fill="#455a64" d="M32,32.7c0,0.1,0,0.2,0,0.3c0.2,0.4,0.7,0.5,1.1,0.5c0.6,0,1.2-0.4,1.5-0.8c0-0.1,0.1-0.2,0.2-0.3	c0.2-0.3,0.3-0.5,0.4-0.6c0,0-0.1-0.1-0.1-0.2c-0.1-0.2-0.4-0.4-0.8-0.5c-0.3-0.1-0.8-0.2-1-0.2c-0.9-0.1-1.4,0.2-1.7,0.5	c0,0,0.1,0,0.1,0.1c0.2,0.2,0.3,0.4,0.3,0.7C32.1,32.4,32,32.5,32,32.7z"/><path fill="#37474f" d="M3.564,6.393l2.828-2.828l37.972,37.971l-2.828,2.828L3.564,6.393z"/></svg>