<svg xmlns="http://www.w3.org/2000/svg"  viewBox="0 0 48 48" width="1600px" height="1600px"><path fill="#9ccc65" d="M17,44c-3.714,0-10-3.159-10-15h3c-0.094,1.08-0.016,2.078,0,3c0.125,7.625,4.35,10,7,10 c3.955,0,4-2.997,4-3.125C21,36.373,19.512,36,18.625,36C17.045,36,17,37.122,17,37.25c0,0.342,0.108,0.75,0.625,0.75 c0.212,0,0.332-0.06,0.38-0.099C18.054,37.396,18.481,37,19,37c0.552,0,1,0.447,1,1c0,0.983-0.888,2-2.375,2 C16.104,40,15,38.844,15,37.25c0-1.615,1.245-3.25,3.625-3.25C20.643,34,23,35.276,23,38.875C23,40.936,21.402,44,17,44z"/><path fill="#7cb342" d="M18 29.625L17 28c1-1.25 1-3.339 1-4h3.125C21.125 25.125 19.904 28.038 18 29.625zM28.001 29.375c-.309 0-.614-.143-.81-.412l-1-1.375c-.325-.446-.226-1.072.22-1.396.446-.325 1.072-.227 1.397.221l1 1.375c.325.446.226 1.072-.22 1.396C28.411 29.313 28.205 29.375 28.001 29.375zM30.875 22.5H27.25c0 2.875 4.437 5.222 4.75 5.5l2.204-.744C33.34 26.488 31.124 25 30.875 22.5z"/><path fill="#fff" d="M43.298,8.725c-2.197-1.506-5.678-0.59-7.776,2.047c-2.098,2.637-2.017,5.996,0.179,7.502 c2.197,1.506,5.678,0.59,7.776-2.047C45.576,13.591,45.495,10.232,43.298,8.725z"/><path fill="#e0e0e0" d="M38.152,19.988c-1.092,0-2.137-0.286-3.016-0.89c-1.123-0.77-1.859-1.975-2.071-3.393 c-0.277-1.846,0.333-3.87,1.675-5.557c2.414-3.033,6.509-4.042,9.124-2.25V7.9c1.124,0.77,1.859,1.976,2.072,3.395 c0.276,1.845-0.334,3.87-1.675,5.556C42.657,18.866,40.313,19.988,38.152,19.988z M40.815,8.99c-1.546,0-3.291,0.871-4.51,2.404 c-0.997,1.253-1.457,2.717-1.263,4.015c0.092,0.61,0.378,1.461,1.225,2.04c1.769,1.214,4.654,0.386,6.428-1.844 c0.997-1.253,1.457-2.716,1.263-4.015c-0.092-0.611-0.378-1.461-1.225-2.042C42.18,9.17,41.518,8.99,40.815,8.99z"/><path d="M42 12A1 1 0 1 0 42 14A1 1 0 1 0 42 12Z"/><path fill="#9ccc65" d="M23,25c5.875,0,7.999-1,7.999-1c0.5,0.5,1.5,1,3,1c4,0,8.001-3,8.001-4c0-1.375-2.625-6-6.25-6 C34.625,15,33,15,33,15l-7-3c0,0-3.874-2-7-2c-4,0-12,2.477-12,19h3c0.5-3.625,2.977-7,4-7C14,22,16,25,23,25z"/><path fill="#ff8a80" d="M4,32H2c-1.105,0-2-0.895-2-2v0c0-1.105,0.895-2,2-2h2V32z"/><path fill="#e0e0e0" d="M3 28H6V32H3zM40 28L39 32 44 31.112 44 28.805z"/><path fill="#ffd54f" d="M39 32L6 32 6 28 40 28z"/><path fill="#424242" d="M47.529,29.515L44,28.805v2.307l3.529-0.627C48.157,30.359,48.157,29.641,47.529,29.515z"/><path fill="#fff" d="M30,5c-2.804,0-5,3.294-5,7.5s2.196,7.5,5,7.5s5-3.294,5-7.5S32.804,5,30,5z"/><path fill="#e0e0e0" d="M30,21c-3.364,0-6-3.733-6-8.5S26.636,4,30,4s6,3.733,6,8.5S33.364,21,30,21z M30,6 c-2.168,0-4,2.977-4,6.5s1.832,6.5,4,6.5s4-2.977,4-6.5S32.168,6,30,6z"/><path d="M28.5 12A1.5 1.5 0 1 0 28.5 15A1.5 1.5 0 1 0 28.5 12Z"/><path fill="#7cb342" d="M16,28c-0.357-0.375-1-1-1-2c0-1.5,1.21-2.177,1.25-2.201C16.698,23.54,17,23.055,17,22.5 c0-0.828-0.672-1.5-1.5-1.5c-0.224,0-0.435,0.05-0.625,0.138C14.806,21.17,13,21.875,13,25.5c0,0.75,0.393,1.875,0.938,2.5H16z"/><path fill="#7cb342" d="M14.998 33c-.15 0-.302-.034-.445-.105C14.449 32.843 12 31.588 12 29c0-1.491 1.03-3 3-3v2c-.87 0-1 .627-1 1 0 1.342 1.438 2.101 1.453 2.108.488.252.685.854.435 1.343C15.712 32.799 15.361 33 14.998 33zM24.842 29.386c.026-.062.745-1.284 1.09-1.828-.796-1.134-.953-3.204-.931-3.933 0-.828-.672-1.5-1.5-1.5s-1.5.672-1.5 1.5C22 24.792 22.748 27.711 24.842 29.386z"/><path fill="#7cb342" d="M26 33c-.256 0-.512-.098-.708-.293-.685-.686-1.417-1.921-1.417-3.332C23.875 27.451 25.218 26 27 26c.552 0 1 .447 1 1s-.448 1-1 1c-.56 0-1.125.425-1.125 1.375 0 .856.523 1.609.832 1.918.39.391.39 1.024-.001 1.414C26.511 32.902 26.255 33 26 33zM34.5 32L34.5 32c-.375 0-.605-.449-.624-.483C33.706 31.208 33.377 31 33 31c-.552 0-1 .447-1 1 0 .804.666 2 2.5 2 1.457 0 2.225-1.137 2.449-1.809.021-.064.016-.127.024-.191H34.5zM36.972 28c-.008-.064-.002-.128-.024-.191C36.725 27.137 35.957 26 34.5 26c-1.834 0-2.5 1.196-2.5 2 0 .553.448 1 1 1 .377 0 .705-.208.876-.517C33.895 28.449 34.125 28 34.5 28H36.972z"/></svg>