<svg xmlns="http://www.w3.org/2000/svg"  viewBox="0 0 48 48" width="1600px" height="1600px"><polygon fill="#00acc1" points="21.196,12.276 14.392,8.842 6.922,12.569 13.912,16.078"/><polygon fill="#00acc1" points="24.317,13.85 31.451,17.453 24.049,21.169 17.049,17.654"/><polygon fill="#00acc1" points="33.846,8.893 41.176,12.569 34.619,15.86 27.47,12.254"/><polygon fill="#00acc1" points="30.69,7.31 24.091,4 17.564,7.258 24.364,10.687"/><polygon fill="#00acc1" points="25.532,35.725 25.532,44.73 33.525,40.74 33.518,31.732"/><polygon fill="#00acc1" points="33.514,28.587 33.505,19.674 25.532,23.637 25.532,32.554"/><polygon fill="#00acc1" points="43.111,26.918 43.111,35.957 36.292,39.359 36.287,30.361"/><polygon fill="#00acc1" points="43.111,23.756 43.111,14.898 36.279,18.294 36.285,27.225"/><path fill="#448aff" d="M22.71,23.637l-5.384-2.708v11.699c0,0-6.586-14.012-7.195-15.27 c-0.079-0.163-0.401-0.341-0.484-0.385C8.46,16.353,5,14.601,5,14.601v20.676l4.787,2.566V27.031c0,0,6.515,12.52,6.582,12.657 s0.718,1.455,1.418,1.919c0.929,0.618,4.919,3.016,4.919,3.016L22.71,23.637z"/></svg>