<svg xmlns="http://www.w3.org/2000/svg"  viewBox="0 0 48 48" width="1600px" height="1600px" baseProfile="basic"><polygon fill="none" points="26.055,24.519 18.71,37 33.401,37"/><path fill="none" d="M14.279,36.641l9.455-16.065l-4.653-7.907L4.762,37h9.366C14.178,36.88,14.212,36.756,14.279,36.641	C14.279,36.642,14.279,36.642,14.279,36.641z"/><path fill="#1de9b6" d="M14.262,39.569c-0.453-0.792-0.481-1.74-0.134-2.569H4.762l14.319-24.331l4.653,7.907l2.321-3.943	l-4.358-7.404c-0.551-0.937-1.528-1.496-2.615-1.497c0,0,0,0-0.001,0c-1.086,0-2.064,0.559-2.616,1.496L0.458,36.425	c-0.551,0.936-0.559,2.103-0.02,3.046S1.988,41,3.074,41h13.438C15.58,40.908,14.732,40.392,14.262,39.569z M2.182,37.44h0.01H2.182	z"/><path fill="#00bfa5" d="M47.65,36.641L33.478,12.562c-0.53-0.9-1.469-1.437-2.513-1.437c-1.044,0-1.984,0.537-2.514,1.437	l-2.396,4.071l2.321,3.943l2.589-4.398L43,37h-5c0.258,0.802,0.151,1.724-0.276,2.471C37.185,40.414,36.086,41,35,41l0,0	c0.001,0.013-0.001-0.013,0,0h10c1.043,0,2.149-0.525,2.667-1.431C48.186,38.664,48.179,37.542,47.65,36.641z"/><path fill="#00838f" d="M38,37c-0.068-0.21-0.182-0.381-0.296-0.575l-9.328-15.849l-2.321-3.943l-2.321,3.943l-9.455,16.065	c0,0,0,0.001,0,0.001c-0.067,0.113-0.101,0.238-0.151,0.358c-0.347,0.829-0.32,1.778,0.134,2.569c0.47,0.822,1.318,1.338,2.25,1.431	h18.576c1.086,0,2.096-0.586,2.635-1.529C38.151,38.724,38.258,37.802,38,37z M26.055,24.519L33.401,37H18.71L26.055,24.519z"/></svg>