<svg xmlns="http://www.w3.org/2000/svg"  viewBox="0 0 48 48" width="1600px" height="1600px"><path fill="#4caf50" d="M24,5C13.5,5,5,13.6,5,24.1c0,8.2,5.1,15.1,12.3,17.9l4.2-11.5C18.8,29.5,17,27,17,24 c0-3.9,3.1-7,7-7s7,3.1,7,7c0,3-1.8,5.5-4.5,6.5L30.7,42C37.9,39.2,43,32.3,43,24.1C43,13.6,34.5,5,24,5z"/><path fill="#2e7d32" d="M17.9,43.3l-0.9-0.4C9.2,40,4,32.4,4,24.1C4,13,13,4,24,4c11,0,20,9,20,20.1 c0,8.3-5.2,15.9-12.9,18.8l-0.9,0.4l-4.8-13.3l0.9-0.4c2.3-0.9,3.8-3.1,3.8-5.6c0-3.3-2.7-6-6-6s-6,2.7-6,6c0,2.5,1.5,4.7,3.8,5.6 l0.9,0.4L17.9,43.3z M24,6C14.1,6,6,14.1,6,24.1c0,7.1,4.3,13.7,10.7,16.5l3.5-9.6C17.6,29.7,16,27,16,24c0-4.4,3.6-8,8-8 s8,3.6,8,8c0,3-1.6,5.7-4.2,7l3.5,9.6C37.7,37.8,42,31.3,42,24.1C42,14.1,33.9,6,24,6z"/></svg>