<svg xmlns="http://www.w3.org/2000/svg"  viewBox="0 0 48 48" width="1600px" height="1600px"><path fill="#c62828" d="M44,24c0,0.33-0.01,0.66-0.03,0.99c-0.01,0.13-0.01,0.26-0.03,0.39C43.24,35.79,34.59,44,24,44	c-5.72,0-10.88-2.4-14.51-6.25c-0.03-0.02-0.05-0.05-0.07-0.07c-0.63-0.67-1.22-1.39-1.75-2.14l7.02-2.48	c0.67,0.7,1.43,1.32,2.25,1.85c0.06,0.04,0.11,0.07,0.17,0.1C19.1,36.27,21.47,37,24,37c5.74,0,10.61-3.73,12.33-8.88	c0.05-0.12,0.08-0.24,0.12-0.36c0.24-0.82,0.41-1.67,0.49-2.55l7.01-2.48C43.99,23.15,44,23.57,44,24z"/><path fill="#d32f2f" d="M24,4C12.95,4,4,12.95,4,24c0,0.41,0.01,0.82,0.04,1.23l7.02-2.47C11.68,16.16,17.24,11,24,11	c3.64,0,6.94,1.5,9.29,3.92l7.02-2.48C36.7,7.33,30.74,4,24,4z"/><path fill="#c62828" d="M14.19,25.4l-6.65,2.35c-0.17-0.71-0.31-1.44-0.41-2.19c-0.06-0.45-0.1-0.92-0.13-1.38l7.02-2.47	c-0.04,0.41-0.06,0.82-0.06,1.24v0.16C13.97,23.89,14.05,24.66,14.19,25.4z"/><path fill="#c62828" d="M45.09,14.5l-6.65,2.35c-0.38-0.72-0.83-1.4-1.35-2.03c-0.26-0.33-0.54-0.65-0.84-0.95l7.02-2.48	c0.23,0.32,0.45,0.65,0.66,0.98C44.36,13.05,44.75,13.76,45.09,14.5z"/><path fill="#e53935" d="M11.71,34.16l-7.02,2.48c-1.42-2.01-2.48-4.28-3.09-6.74l6.65-2.35C8.74,30.1,9.97,32.38,11.71,34.16	z"/><path fill="#e53935" d="M33.96,26.31c0.04-0.4,0.06-0.8,0.06-1.21c0-2.2-0.55-4.28-1.52-6.1l6.65-2.35	c1.03,2.2,1.67,4.63,1.82,7.18L33.96,26.31z"/><path fill="#ad213b" d="M16.94,34.91c0.06,0.04,0.11,0.07,0.17,0.1l-7.62,2.74c-0.03-0.02-0.05-0.05-0.07-0.07	c-0.63-0.67-1.22-1.39-1.75-2.14l7.02-2.48C15.36,33.76,16.12,34.38,16.94,34.91z"/><path fill="#ad213b" d="M44,24c0,0.33-0.01,0.66-0.03,0.99c-0.01,0.13-0.01,0.26-0.03,0.39l-7.61,2.74	c0.05-0.12,0.08-0.24,0.12-0.36c0.24-0.82,0.41-1.67,0.49-2.55l7.01-2.48C43.99,23.15,44,23.57,44,24z"/><path fill="#ad213b" d="M7,24.18l7.02-2.47c-0.04,0.41-0.06,0.82-0.06,1.24v0.16l-6.83,2.45C7.07,25.11,7.03,24.64,7,24.18z"/><path fill="#ad213b" d="M43.93,12.37l-6.84,2.45c-0.26-0.33-0.54-0.65-0.84-0.95l7.02-2.48	C43.5,11.71,43.72,12.04,43.93,12.37z"/></svg>