<svg xmlns="http://www.w3.org/2000/svg"  viewBox="0 0 48 48" width="1600px" height="1600px"><path fill="#ff9100" d="M24,4C12.955,4,4,12.954,4,24c0,7.393,4.022,13.833,9.987,17.295l4.506-7.783C15.212,31.608,13,28.066,13,24c0-6.075,4.925-11,11-11s11,4.925,11,11c0,4.066-2.212,7.608-5.493,9.512l4.506,7.783C39.978,37.833,44,31.393,44,24C44,12.954,35.045,4,24,4z"/><path fill="#1a237e" d="M30,24c0-3.314-2.687-6-6-6s-6,2.686-6,6c0,2.556,1.601,4.733,3.852,5.597l-2.56,13.822C20.805,43.785,22.376,44,24,44s3.195-0.215,4.707-0.58l-2.56-13.822C28.399,28.733,30,26.556,30,24z"/></svg>