<svg xmlns="http://www.w3.org/2000/svg"  viewBox="0 0 48 48" width="1600px" height="1600px"><path fill="#3949ab" d="M24.072,3.072c-11.046,0-20,8.954-20,20c0,11.046,8.954,20,20,20c11.046,0,20-8.954,20-20 C44.072,12.026,35.118,3.072,24.072,3.072z"/><path fill="#fff" d="M20.152 40.823c1.458-.54 2.692-2.374 2.615-3.597-.737.886-1.539 1.83-2.312 2.798C20.307 40.209 20.274 40.487 20.152 40.823zM20.3 36.959c-.207-.104-.422-.193-.62-.313-2.84-1.72-5.062-4.015-6.429-7.073-.571-1.277-.805-2.624-.601-4.034.198-1.371.763-2.596 1.531-3.711 1.196-1.736 2.473-3.415 3.705-5.125 1.538-2.136 2.864-4.383 3.503-6.972.162-.656.263-1.327.393-1.991-.226.6-.368 1.218-.574 1.812-.659 1.899-1.878 3.421-3.312 4.778-1.641 1.553-3.365 3.021-4.96 4.618-3.329 3.335-3.633 7.851-1.889 11.633 1.799 3.903 5.22 5.626 9.194 6.473C20.261 37.022 20.281 36.991 20.3 36.959z"/><path fill="#fff" d="M17.395,21.499c-1.005,1.694-1.327,3.55-1.081,5.492c0.318,2.513,1.441,4.662,3.087,6.551 c0.708,0.813,1.482,1.558,2.453,2.059c0.18,0.093,0.384,0.139,0.622,0.222c-0.043-0.762-0.361-1.311-0.671-1.861 c-0.581-1.031-1.203-2.041-1.747-3.092c-1.127-2.179-1.561-4.483-1.111-6.923c0.224-1.213,0.816-2.273,1.377-3.345 c0.822-1.571,1.458-3.218,1.76-4.961c0.34-1.964,0.596-3.946,0.813-5.928c0.135-1.229,0.13-2.474,0.188-3.711 C23.07,6.001,23.055,6,23.039,6c-0.132,1.143-0.241,2.29-0.399,3.429c-0.375,2.698-1.152,5.274-2.515,7.639 C19.259,18.571,18.28,20.008,17.395,21.499z"/><path fill="#fff" d="M36.995 22.187c-.916-1.655-2.189-3.018-3.683-4.141-1.88-1.414-3.819-2.749-5.76-4.078-1.084-.743-1.889-1.687-2.33-2.916-.346-.964-.619-1.955-.917-2.907C24.301 8.2 24.291 8.295 24.289 8.39c-.052 3.415-.529 6.776-1.2 10.119-.422 2.103-.82 4.218-1.081 6.346-.399 3.264.192 6.415 1.327 9.486.23.622.536.959 1.202 1.075.768.134 1.592.31 2.114.933.591.705 1.246.794 2.041.528.156-.052.321-.078.475-.134 3.784-1.354 6.549-3.842 8.129-7.549C38.299 26.845 38.257 24.468 36.995 22.187zM34.217 30.515c-1.244 1.754-2.868 3.107-4.486 4.281.682-1.097 1.493-2.234 2.133-3.461 1.904-3.648 1.561-7.168-.896-10.43-.983-1.304-2.159-2.462-3.257-3.679-.683-.757-1.397-1.485-2.067-2.252-.341-.391-.598-.848-.663-1.436.097.063.159.093.208.137 2.328 2.087 4.695 4.133 6.961 6.286.887.843 1.631 1.873 2.295 2.911C36.092 25.444 35.985 28.021 34.217 30.515zM23.44 38.402c.153.63.33 1.255.51 1.933.183-.638.385-1.221.514-1.82.134-.619.025-1.198-.524-1.653C23.517 37.308 23.295 37.799 23.44 38.402zM25.58 38.018c-.2-.25-.336-.55-.533-.882-.086 1.475 1.164 3.337 2.56 3.864.027-.467-.112-.739-.537-1.219C26.561 39.205 26.06 38.619 25.58 38.018z"/></svg>