<svg xmlns="http://www.w3.org/2000/svg"  viewBox="0 0 48 48" width="1600px" height="1600px"><path fill="#90caf9" d="M7.13,6.629l6.991-2.402c0.577-0.192,1.191-0.252,1.794-0.173l18.489,2.476C36.461,6.799,38,8.552,38,10.626v25.258c0,1.307-0.703,2.514-1.84,3.159l-5.265,3.353L7.13,6.629z"/><path fill="#1e88e5" d="M24.161,32.262l4.454,6.704L38,29.58V18.589c-0.261,0.161-0.511,0.342-0.733,0.564L24.161,32.262z"/><path fill="#e3f2fd" d="M35.213,6.726l-7.216,3.981l2.128,3.752l7.774-4.701C37.596,8.349,36.577,7.195,35.213,6.726z"/><path fill="#64b5f6" d="M29.11,42.02c-0.183,0-0.365-0.026-0.544-0.08l-20.77-6.154C6.739,35.472,6,34.482,6,33.38V10.083c0-1.305,1.059-2.366,2.359-2.366c0.089,0,0.178,0.006,0.268,0.016l19.899,2.743C29.953,10.696,31,11.917,31,13.377v26.745c0,0.514-0.201,0.994-0.565,1.352C30.08,41.82,29.598,42.02,29.11,42.02L29.11,42.02z"/><path fill="#1e88e5" d="M8.36,8.717c0.045,0,0.09,0.002,0.136,0.007l19.862,2.739C29.309,11.609,30,12.414,30,13.377v26.746c0,0.554-0.462,0.897-0.89,0.897c-0.086,0-0.173-0.013-0.26-0.039L8.081,34.827C7.444,34.638,7,34.043,7,33.379V10.083C7,9.33,7.61,8.717,8.36,8.717 M8.36,6.717C6.529,6.717,5,8.205,5,10.083v23.296c0,1.554,1.022,2.923,2.513,3.365l20.769,6.154c0.278,0.082,0.556,0.121,0.828,0.121c1.544,0,2.89-1.252,2.89-2.897V13.377c0-1.943-1.417-3.595-3.337-3.891L8.738,6.738C8.611,6.724,8.485,6.717,8.36,6.717L8.36,6.717z"/><path fill="#e3f2fd" d="M34,40.122V13.377c0-2.951-2.117-5.418-5.033-5.868L11.558,5.108L7.13,6.629l0.181,0.273C7.644,6.791,7.993,6.717,8.36,6.717c0.125,0,0.25,0.007,0.377,0.021l19.925,2.748C30.583,9.782,32,11.434,32,13.377v26.746c0,0.94-0.447,1.741-1.111,2.264l0.007,0.01l3.073-1.957C33.975,40.333,34,40.231,34,40.122z"/><path fill="#42a5f5" d="M11 33L11 11.088 9 10.812 9 33z"/><path fill="#1e88e5" d="M28.51,10.474L26,10.128V32.54c0,1.688-1.62,2.903-3.24,2.431L6,30.089v3.29c0,1.103,0.739,2.093,1.797,2.406l6.892,2.042L26,41.123v0.057l2.566,0.76c0.179,0.053,0.362,0.08,0.544,0.08c1.042,0,1.89-0.851,1.89-1.897v-2.751V13.377C31,11.917,29.953,10.696,28.51,10.474z"/><path fill="#42a5f5" d="M23 10.724L20 10.31 20 32.084 23 32.958zM19 31.793L19 10.172 17 9.896 17 31.21z"/><path fill="#1e88e5" d="M32,24.421l-9.86,9.862c-1.02,1.021-2.591,2.988-3.908,4.895c-0.145,0.21-0.284,0.415-0.421,0.618l7.4,2.193c1.228-0.97,2.2-1.82,2.507-2.127L32,35.581V24.421z"/><path fill="#1565c0" d="M32,24.421l-6,6.001v2.117c0,1.688-1.62,2.903-3.24,2.431L21.76,34.68c-1.005,1.084-2.365,2.813-3.528,4.498c-0.145,0.21-0.284,0.415-0.421,0.618l7.4,2.193c1.228-0.97,2.2-1.82,2.507-2.127L32,35.581V24.421z"/><path fill="#64b5f6" d="M34 33.581L34 22.421 32 24.421 32 35.581z"/><path fill="#cfd8dc" d="M42.43,19.57c0.759,0.759,0.759,1.991,0,2.751L26.305,38.448c-1.89,1.891-7.691,6.06-8.25,5.501c-0.58-0.58,3.61-6.361,5.5-8.252L39.68,19.569C40.439,18.81,41.671,18.81,42.43,19.57L42.43,19.57z"/><path fill="#90a4ae" d="M33.001 26.555H34.001V30.445H33.001z" transform="rotate(134.991 33.5 28.502)"/></svg>