<svg xmlns="http://www.w3.org/2000/svg"  viewBox="0 0 48 48" width="1600px" height="1600px"><polygon fill="#424242" points="29,4 17,12 24,31.524 40,22"/><polygon fill="#424242" points="4,30 8.66,16.404 36,33 28,45"/><polygon fill="#ffd600" points="44,27 28,45 29,35"/><polygon fill="#ffd600" points="8,16 40,22 24,33 4,30"/><polygon fill="#ffc400" points="8.254,16.048 8,16 4,30 23.847,32.977"/><path fill="#ffc400" d="M28,2L17,12l25,8v-7L28,2z M35,15c-1.105,0-2-0.895-2-2s0.895-2,2-2s2,0.895,2,2S36.105,15,35,15z"/><polygon fill="#ffd600" points="35.778,8.111 28,2 17,12 17.005,12.002"/></svg>