<svg xmlns="http://www.w3.org/2000/svg"  viewBox="0 0 48 48" width="1600px" height="1600px"><path fill="#212121" d="M18.869,20.92c0.357-0.075,0.724-0.128,1.091-0.16l0,0l0,0l2.853-0.271l-3.875-4.248 c-1.166-1.283-1.81-2.944-1.81-4.679h-3.205c0,2.534,0.942,4.967,2.651,6.84L18.869,20.92z"/><path fill="#212121" d="M28.877,27.143c-0.287,0.053-0.58,0.09-0.873,0.122l0,0l0,0l-3.088,0.293l3.865,4.237 c1.166,1.283,1.81,2.944,1.81,4.679h3.21c0-2.534-0.942-4.961-2.651-6.84L28.877,27.143z"/><path fill="#212121" d="M34.184,17.727c-0.527-2.619-2.582-4.525-5.233-4.86l-0.49-0.064 c-1.656-0.208-2.907-1.624-2.907-3.29V7.804c1.469-0.612,2.502-2.06,2.502-3.748C28.057,1.815,26.242,0,24.001,0 s-4.056,1.815-4.056,4.056c0,1.65,0.99,3.072,2.406,3.705v1.751c0,3.284,2.454,6.069,5.712,6.473l0.49,0.064 c1.528,0.192,2.289,1.32,2.491,2.31s-0.059,2.326-1.395,3.098c-0.655,0.378-1.363,0.607-2.113,0.676l-7.362,0.692 c-1.214,0.117-2.364,0.484-3.418,1.091c-2.316,1.341-3.471,3.897-2.938,6.516c0.527,2.619,2.582,4.525,5.233,4.86l0.49,0.064 c1.656,0.208,2.907,1.624,2.907,3.29v1.554c-1.464,0.612-2.491,2.06-2.491,3.742c0,2.241,1.815,4.056,4.056,4.056 s4.056-1.815,4.056-4.056c0-1.656-0.995-3.082-2.417-3.71v-1.586c0-3.284-2.454-6.069-5.712-6.473l-0.49-0.064 c-1.528-0.192-2.289-1.32-2.491-2.31c-0.202-0.99,0.059-2.326,1.395-3.098c0.655-0.378,1.363-0.607,2.113-0.676l7.362-0.692 c1.214-0.117,2.364-0.484,3.418-1.091C33.562,22.901,34.711,20.346,34.184,17.727z"/></svg>