<svg xmlns="http://www.w3.org/2000/svg"  viewBox="0 0 48 48" width="1600px" height="1600px" baseProfile="basic"><path fill="#37474f" d="M42.164,24L44,22.03l-2.185-1.574l1.416-2.29l-2.45-1.117l0.942-2.522l-2.621-0.618l0.432-2.658	l-2.691-0.095l-0.095-2.691l-2.658,0.432l-0.618-2.621l-2.522,0.942l-1.117-2.45l-2.29,1.416L25.97,4L24,5.836L22.03,4l-1.574,2.185	l-2.29-1.416l-1.117,2.45l-2.522-0.942l-0.618,2.621l-2.658-0.432l-0.095,2.691l-2.691,0.095l0.432,2.658l-2.621,0.618l0.942,2.522	l-2.45,1.117l1.416,2.29L4,22.03L5.836,24L4,25.97l2.185,1.574l-1.416,2.29l2.45,1.117l-0.942,2.522l2.621,0.618l-0.432,2.658	l2.691,0.095l0.095,2.691l2.658-0.432l0.618,2.621l2.522-0.942l1.117,2.45l2.29-1.416L22.03,44L24,42.164L25.97,44l1.574-2.185	l2.29,1.416l1.117-2.45l2.522,0.942l0.618-2.621l2.658,0.432l0.095-2.691l2.691-0.095l-0.432-2.658l2.621-0.618l-0.942-2.522	l2.45-1.117l-1.416-2.29L44,25.97L42.164,24z M24,7c0.552,0,1,0.448,1,1s-0.448,1-1,1s-1-0.448-1-1S23.448,7,24,7z M9,18	c0.552,0,1,0.448,1,1s-0.448,1-1,1s-1-0.448-1-1S8.448,18,9,18z M8.808,29C8.29,27.426,8,25.748,8,24	c0-0.704,0.061-1.392,0.149-2.072l2.707-1.45c0.55-0.294,0.824-0.895,0.738-1.478H13v10H8.808z M15,38c-0.552,0-1-0.448-1-1	s0.448-1,1-1s1,0.448,1,1S15.552,38,15,38z M33,38c-0.552,0-1-0.448-1-1s0.448-1,1-1s1,0.448,1,1S33.552,38,33,38z M35.444,35.171	l-3.112-0.497c-0.784-0.125-1.521,0.409-1.646,1.193l-0.459,2.877C28.313,39.552,26.209,40,24,40c-2.256,0-4.4-0.472-6.346-1.314	l-0.43-2.692c-0.125-0.784-0.862-1.318-1.646-1.193l-2.932,0.468c-0.691-0.696-1.319-1.456-1.873-2.27h13.178v-4H20v-3h2.872	c5.474,0,0.987,7,8.247,7h6.108C36.697,33.777,36.098,34.501,35.444,35.171z M20.238,22v-3h5.198c0.82,0,1.485,0.665,1.485,1.485	v0.03c0,0.82-0.665,1.485-1.485,1.485H20.238z M39.927,25.436h-2.611v1.232c0,1.37-0.854,2.332-1.844,2.332	c-2.547,0-1.855-3.537-4.953-5.08c2.312-0.381,4.084-2.43,4.084-4.92c0-2.761-2.172-5-4.851-5h-5.802h-8.168h-4.262	c2.272-2.832,5.483-4.876,9.166-5.652l2.297,2.297c0.561,0.561,1.471,0.561,2.032,0l2.297-2.297c4.64,0.978,8.54,3.962,10.744,8.007	l-1.167,2.178c-0.375,0.7-0.111,1.571,0.588,1.945l2.342,1.254C39.927,22.475,40,23.228,40,24C40,24.485,39.97,24.962,39.927,25.436	z M39,20c-0.552,0-1-0.448-1-1s0.448-1,1-1s1,0.448,1,1S39.552,20,39,20z"/></svg>