<svg xmlns="http://www.w3.org/2000/svg"  viewBox="0 0 48 48" width="1600px" height="1600px" clip-rule="evenodd"><path fill="#f06292" fill-rule="evenodd" d="M24.042,4.032C35.065,4.032,44,12.967,44,23.99	c0,11.022-8.935,19.958-19.958,19.958c-11.022,0-19.958-8.935-19.958-19.958C4.085,12.967,13.02,4.032,24.042,4.032L24.042,4.032z" clip-rule="evenodd"/><path fill="#fff" d="M36.561,12.574c-0.904-3.545-6.781-4.71-12.343-2.734c-3.31,1.176-6.894,3.022-9.471,5.432 c-3.064,2.866-3.552,5.36-3.351,6.402c0.71,3.677,5.749,6.081,7.82,7.865v0.011c-0.611,0.301-5.081,2.563-6.127,4.876 c-1.104,2.44,0.176,4.191,1.023,4.427c2.625,0.73,5.318-0.583,6.766-2.742c1.397-2.084,1.281-4.774,0.674-6.113 c0.837-0.221,1.814-0.32,3.054-0.175c3.501,0.409,4.188,2.595,4.056,3.51c-0.131,0.915-0.866,1.418-1.111,1.57 c-0.246,0.152-0.32,0.205-0.3,0.317c0.03,0.164,0.143,0.158,0.353,0.123c0.288-0.049,1.838-0.744,1.905-2.433 c0.084-2.144-1.97-4.542-5.608-4.48c-1.498,0.026-2.44,0.168-3.121,0.422c-0.05-0.057-0.102-0.114-0.154-0.171 c-2.249-2.4-6.407-4.097-6.231-7.323c0.064-1.173,0.472-4.261,7.989-8.007c6.158-3.069,11.088-2.224,11.94-0.353 c1.217,2.674-2.635,7.643-9.03,8.36c-2.437,0.273-3.72-0.671-4.039-1.023c-0.336-0.37-0.386-0.387-0.511-0.317 c-0.204,0.113-0.075,0.44,0,0.635c0.191,0.497,0.975,1.378,2.31,1.817c1.175,0.386,4.036,0.597,7.496-0.741 C34.424,20.229,37.45,16.059,36.561,12.574z M20.076,30.638c0.29,1.074,0.258,2.076-0.041,2.983c-0.033,0.101-0.07,0.2-0.11,0.299 c-0.04,0.098-0.083,0.196-0.129,0.292c-0.231,0.48-0.542,0.929-0.922,1.344c-1.16,1.265-2.78,1.743-3.474,1.34 c-0.75-0.435-0.374-2.218,0.97-3.64c1.446-1.529,3.527-2.512,3.527-2.512l-0.003-0.006C19.954,30.705,20.015,30.672,20.076,30.638z"/></svg>