<svg xmlns="http://www.w3.org/2000/svg"  viewBox="0 0 48 48" width="1600px" height="1600px"><path fill="#78909c" d="M6,11c0-2.209,1.791-4,4-4h27c2.209,0,4,1.791,4,4l0,27c0,2.209-1.791,4-4,4H10c-2.209,0-4-1.791-4-4L6,11z"/><path fill="#455a64" d="M41,11c0-2.209-1.791-4-4-4h-0.115l-7.306,6.745l-3.164-3.16l-1.414-1.412l-1.413,1.412l-3.002,3l-1.324,1.323l1.233,1.409l7.002,8l1.311,1.498l1.504-1.304L41,15.247V11z"/><path fill="#fff" d="M16.636 35.19c0-.479-.174-.854-.522-1.122-.348-.269-.96-.546-1.835-.833-.875-.288-1.591-.564-2.147-.833-1.807-.867-2.711-2.059-2.711-3.575 0-.755.225-1.42.676-1.998s1.087-1.027 1.911-1.347C12.832 25.161 13.758 25 14.787 25c1.002 0 1.902.175 2.697.524.796.349 1.413.847 1.854 1.492C19.779 27.662 20 28.171 20 29h-3.354c0-.555-.174-.756-.522-1.062-.348-.306-.819-.458-1.413-.458-.6 0-1.074.129-1.423.388-.348.26-.522.588-.522.987 0 .35.192.667.575.949.383.284 1.057.578 2.022.881.964.302 1.757.629 2.376.978C19.247 32.512 20 33.682 20 35.173c0 1.19-.46 2.127-1.379 2.807C17.699 38.66 16.438 39 14.835 39c-1.13 0-2.154-.199-3.071-.594-.916-.396-1.606-.939-2.069-1.629S9 34.898 9 34h3.372c0 .73.194 1.665.579 2.01.386.347 1.015.52 1.883.52.555 0 .995-.116 1.318-.351C16.475 35.945 16.636 35.614 16.636 35.19zM26.949 39c-1.475 0-2.67-.441-3.581-1.324C22.457 36.794 22 35.647 22 34.233v-.25c0-.987.181-1.856.546-2.611.364-.756.896-1.339 1.595-1.752.697-.413 1.527-.62 2.487-.62 1.351 0 2.417.421 3.199 1.261C30.609 31.102 31 32.273 31 33.777V35h-5.953c.107.54.341.91.702 1.218.36.31.83.464 1.404.464.946 0 1.687-.332 2.221-.999l1.369 1.623c-.374.518-.902.929-1.586 1.234C28.473 38.847 27.737 39 26.949 39zM26.611 31.317c-.876 0-1.398.518-1.563 1.683h3.021v-.168c.012-.481-.11-.854-.364-1.118C27.451 31.45 27.085 31.317 26.611 31.317z"/><path fill="#66bb6a" d="M22 15L25.002 12 29.525 16.518 42 5 44 10 29.002 23z"/></svg>