<svg xmlns="http://www.w3.org/2000/svg"  viewBox="0 0 48 48" width="1600px" height="1600px" clip-rule="evenodd" baseProfile="basic"><path fill="#ff4081" d="M8.447,41.703L7.145,7.032C7.104,5.887,7.984,4.918,9.127,4.848l23.108-1.445L34,4l2.295-0.851	l2.316-0.145c1.163-0.074,2.166,0.809,2.241,1.972c0.003,0.045,0.004,0.091,0.004,0.137v37.777	c-0.001,1.167-0.948,2.112-2.115,2.111c-0.031,0-0.062-0.001-0.092-0.002l-28.186-1.266c-1.098-0.049-1.974-0.932-2.016-2.031	V41.703z"/><path fill="#fff" fill-rule="evenodd" d="M36.293,3.149l-4.057,0.252l-0.197,4.761	c-0.007,0.174,0.128,0.32,0.302,0.328c0.073,0.003,0.144-0.019,0.202-0.063l1.848-1.403l1.562,1.231	c0.136,0.108,0.335,0.085,0.442-0.051c0.046-0.059,0.07-0.132,0.068-0.207l-0.168-4.847L36.293,3.149z M33.135,19.088	c-0.741,0.577-6.277,0.97-6.277,0.149c0.118-3.135-1.285-3.272-2.066-3.272c-0.739,0-1.987,0.223-1.987,1.903	c0,1.711,1.823,2.677,3.963,3.811c3.039,1.611,6.72,3.562,6.72,8.467c0,4.704-3.822,7.3-8.694,7.3c-5.029,0-9.425-2.035-8.929-9.089	c0.195-0.827,6.59-0.63,6.59,0c-0.08,2.911,0.584,3.767,2.26,3.767c1.287,0,1.871-0.71,1.871-1.903c0-1.808-1.898-2.875-4.084-4.101	c-2.959-1.661-6.441-3.616-6.441-8.104c0-4.477,3.079-7.463,8.576-7.463S33.135,13.494,33.135,19.088z" clip-rule="evenodd"/></svg>