<svg xmlns="http://www.w3.org/2000/svg"  viewBox="0 0 48 48" width="1600px" height="1600px"><path fill="#455a64" d="M24.072,4.072c-11.046,0-20,8.954-20,20c0,11.046,8.954,20,20,20c11.046,0,20-8.954,20-20 C44.072,13.026,35.118,4.072,24.072,4.072z M35.416,15.322c-0.971,0.034-1.673-0.538-1.673-1.408c0-0.723,0.453-1.191,0.448-1.374 c-0.019-0.547-0.86-0.569-1.089-0.557c-3.15,0.101-3.877,4.096-4.549,7.505l-0.262,1.424c1.814,0.262,3.102-0.06,3.821-0.52 c1.012-0.647-0.14-1.193-0.119-1.948c0.026-0.951,0.888-1.399,1.438-1.415c0.77-0.018,1.566,0.816,1.566,1.897 c0,1.321-2.133,3.22-5.69,3.144c-0.434-0.01-0.831-0.04-1.205-0.083l-0.706,3.803c-0.601,2.766-1.4,6.546-4.256,9.844 c-2.453,2.876-4.943,3.324-6.059,3.36c-2.086,0.071-3.992-1.212-4.041-2.675c-0.048-1.419,1.161-2.351,1.997-2.351 c1.221,0,1.928,0.888,1.959,1.807c0.028,0.775-0.383,1.017-0.654,1.163c-0.182,0.144-0.456,0.29-0.446,0.61 c0.007,0.137,0.156,0.451,0.619,0.436c0.882-0.03,1.775-0.254,2.446-0.737c2.032-1.67,2.782-4.403,3.807-9.701l0.215-1.283 c0.349-1.724,0.9-4.08,1.491-5.993c-1.433-1.064-2.26-2.337-4.187-2.852c-1.321-0.353-1.918-0.24-2.484,0.466 c-0.301,0.375-0.405,0.801-0.405,1.215c0,1.59,3.099,4.722,3.099,6.62c0,0.224-0.026,0.454-0.068,0.694 c-0.428,2.498-3.446,4.415-7.014,3.333c-3.045-0.927-3.713-3.079-3.346-4.252c0.322-1.03,1.291-1.377,2.104-1.132 c0.87,0.265,1.25,1.368,0.921,2.29c-0.03,0.083-0.042,0.114-0.134,0.306c-0.101,0.22-0.288,0.414-0.369,0.672 c-0.197,0.628,0.678,1.074,1.287,1.26c1.363,0.414,2.691-0.289,3.03-1.376c0.312-0.999-0.14-1.696-0.407-1.964 c0,0-2.527-3.272-2.527-5.082c0-0.395,0.037-0.808,0.169-1.23c0.245-0.781,0.758-1.612,1.505-2.162 c1.575-1.158,3.132-1.302,4.764-0.84c2.11,0.6,3.093,1.93,4.408,2.993c0.736-2.128,1.539-3.637,3.074-5.394 c1.384-1.603,3.247-2.762,5.378-2.836c2.13-0.068,3.676,0.892,3.73,2.4C37.025,14.042,36.715,15.28,35.416,15.322z"/></svg>