<svg xmlns="http://www.w3.org/2000/svg"  viewBox="0 0 48 48" width="1600px" height="1600px"><path fill="#ffca28" d="M0.5,38.5C0.5,38.5,9,21,27,18c7,9,16,19,16,19s4.5-0.5,4.5,2.5c-3,0-5,0-5,0 c-27-14-37.104-9.178-37-1H0.5z"/><path fill="#212121" d="M48,40h-5.622l-0.108-0.056C20.933,28.88,12.303,30.587,9.058,32.588 C7.024,33.842,5.967,35.884,6,38.493L6.006,39h-6.305l0.349-0.719c0.086-0.177,8.821-17.767,26.868-20.774l0.294-0.049l0.183,0.235 c6.393,8.219,14.559,17.387,15.813,18.789c0.727-0.045,2.757-0.056,3.929,0.994C47.709,37.989,48,38.67,48,39.5V40z M42.622,39 h4.32c-0.078-0.308-0.234-0.564-0.472-0.777c-1.079-0.967-3.392-0.728-3.416-0.726L42.8,37.524l-0.172-0.189 c-0.089-0.1-8.934-9.94-15.839-18.792C11.516,21.241,3.159,34.721,1.333,38h3.673c0.1-2.739,1.313-4.898,3.527-6.264 C14.433,28.099,26.538,30.677,42.622,39z"/><path fill="#212121" d="M22,37h-4.664l-0.132-0.097C16.578,36.444,1.912,25.559,6.053,17.276 c1.845-3.691,5.35-3.464,7.448-3.323C13.869,13.978,14.207,14,14.5,14v1c-0.313,0-0.672-0.023-1.065-0.049 c-2.082-0.137-4.939-0.325-6.488,2.772C3.373,24.872,16.227,34.907,17.667,36h3.262c-0.079-0.247-0.225-0.441-0.44-0.59 c-0.57-0.392-1.537-0.385-2.143-0.151l-0.363,0.14l-0.225-0.317c-2.958-4.176-0.814-9.544-0.721-9.771l0.926,0.379 c-0.02,0.049-1.92,4.828,0.412,8.516c0.834-0.201,1.922-0.141,2.68,0.381C21.486,34.882,22,35.454,22,36.5V37z"/><path fill="#ffe082" d="M43.5,6.5c-2.208,1.583-4,3-4,5c-1.625-0.625-2.844-0.844-4.906-0.859 c-2.25-0.017-3.469,0.234-5.094,0.859c0-2-1.625-3.375-4-5c-3,18,9,23,9,23S46.5,24.5,43.5,6.5z"/><path fill="#212121" d="M34.5,30.042l-0.192-0.08c-0.124-0.052-12.331-5.363-9.301-23.544l0.129-0.773l0.646,0.442 c1.995,1.365,3.808,2.761,4.157,4.721c1.496-0.514,2.701-0.697,4.658-0.667c1.843,0.014,3.055,0.188,4.464,0.668 c0.338-1.844,2.02-3.189,4.147-4.715l0.652-0.468l0.132,0.792c3.03,18.181-9.177,23.492-9.301,23.544L34.5,30.042z M25.87,7.368 c-2.288,15.72,7.099,20.856,8.63,21.583c1.531-0.727,10.911-5.858,8.632-21.565C41.315,8.728,40,9.945,40,11.5v0.728l-0.68-0.261 c-1.586-0.61-2.736-0.812-4.73-0.826c-2.264-0.032-3.451,0.266-4.91,0.826L29,12.228V11.5C29,9.975,27.905,8.822,25.87,7.368z"/><path fill="#212121" d="M21,16c-4,2-7.688,1.521-6.958-1.375C14.75,11.75,19,14,21,16z"/><polygon fill="#212121" points="15,26 14,23 12.688,24.406"/><polygon fill="#212121" points="15.375,22.375 19,24 17.5,21.344"/><polygon fill="#212121" points="18,21 23,24 21.344,19.531"/><polygon fill="#212121" points="36.719,29.875 35,32 38,31"/><polygon fill="#212121" points="38,32 36,34 39,33"/><polygon fill="#212121" points="25.375,15.844 28,17 25.625,17.375"/><polygon fill="#212121" points="25.938,18.594 27.906,19.094 26.188,19.688"/><polygon fill="#212121" points="44,15.844 41,17 43.75,17.375"/><polygon fill="#212121" points="43.438,18.594 41,19 43.188,19.688"/><path fill="#212121" d="M28.375,12.5c0,0-2.156-0.75-2.688-5.75c0.938,0.719,4.203,3.453,4.172,5.141 C28.734,12.328,28.375,12.5,28.375,12.5z"/><path fill="#212121" d="M40.637,12.5c0,0,2.156-0.75,2.688-5.75c-0.938,0.719-4.203,3.453-4.172,5.141 C40.277,12.328,40.637,12.5,40.637,12.5z"/><path fill="#212121" d="M11.438,30.969c0,0,2.938-0.844,5.25-0.375c0.25,1.563,0.375,3.25,1.719,4.281 c1.063-0.219,2.875-0.5,3.219,1.594c-1.313-0.031-3.906,0.063-3.906,0.063S13,33.344,11.438,30.969z"/><path fill="#212121" d="M31.813,20.854l-0.439-0.238c0.911-1.675,1.373-3.186,1.373-4.491c0-0.998-0.278-1.604-0.826-1.803 c-0.864-0.313-2.172,0.427-2.729,1.096l-0.385-0.32c0.653-0.783,2.157-1.656,3.283-1.245c0.527,0.19,1.156,0.74,1.156,2.272 C33.247,17.514,32.765,19.105,31.813,20.854z"/><rect width="9" height=".5" x="30.5" y="17.25" fill="#212121"/><rect width="5" height=".5" x="25" y="21.25" fill="#212121"/><rect width="5" height=".5" x="25" y="23.25" fill="#212121"/><rect width="5" height=".5" x="39" y="21.25" fill="#212121"/><rect width="5" height=".5" x="39" y="23.25" fill="#212121"/><polygon fill="#212121" points="31.607,20.813 31.602,20.313 37.497,20.25 37.503,20.75"/><path fill="#212121" d="M37.14,20.772c-0.038-0.105-0.919-2.598,0.219-4.217c0.607-0.866,1.665-1.306,3.142-1.306v0.5 c-1.305,0-2.224,0.367-2.732,1.093c-0.989,1.409-0.166,3.736-0.157,3.76L37.14,20.772z"/><rect width=".5" height="6.403" x="33.75" y="19.298" fill="#212121" transform="rotate(-51.341 33.998 22.5)"/><g><rect width="6.403" height=".5" x="31.798" y="22.25" fill="#212121" transform="rotate(-38.659 35 22.5)"/></g><g><polygon fill="#212121" points="33,11 35,15 36,11"/></g></svg>