<svg xmlns="http://www.w3.org/2000/svg"  viewBox="0 0 48 48" width="1600px" height="1600px"><path fill="#AFB42B" d="M6,25c0,0,4.208,2,18,2s18-2,18-2v-4H6V25z"/><path fill="#FFCC80" d="M40,25c1.688,0.625,2,2,2,2c0,4.188-1.311,5.678-2,6c-0.938,0.438-4,1-4,1l1-12h3V25z M8,25c-1.688,0.625-2,2-2,2c0,4.188,1.311,5.678,2,6c0.938,0.438,4,1,4,1l-1-12H8V25z"/><path fill="#FFE0B2" d="M24 11A15 17 0 1 0 24 45A15 17 0 1 0 24 11Z"/><path fill="#FFB74D" d="M24 36A4 3 0 1 0 24 42A4 3 0 1 0 24 36Z"/><path fill="#BCAAA4" d="M40,22l-2,9l-3,2l-7-2l-2-4h-2h-2l-2,4l-7,2l-3-2l-2-9c0,0,6.375-2,16-2S40,22,40,22z"/><path fill="#263238" d="M34,28.89c-0.58-0.294-1.214,0.078-2.369,0.101c-0.86,0.032-1.581,0.042-1.628-1.372c-0.047-1.416,0.502-2.588,1.362-2.619c0.859-0.031,1.644,1.09,1.749,2.503c0.029,0.39-0.012,0.673-0.104,0.884C33.809,28.288,33.992,28.856,34,28.89L34,28.89L34,28.89z M19,27.722c0.013,1.373-0.714,1.29-1.589,1.299c-0.089,0.003-0.172,0.004-0.256,0.004c-0.097,0.003-0.192,0.004-0.282,0.002c-0.85-0.002-1.391-0.04-1.872,0.219c0.011-0.03,0.222-0.501,0.985-0.693c-0.084-0.185-0.137-0.443-0.151-0.801c-0.053-1.373,0.794-2.743,1.669-2.752c0.874-0.008,1.484,1.103,1.497,2.476l0,0L19,27.722L19,27.722z"/><path fill="#FFF" d="M18,26.5c0,0.276-0.224,0.5-0.5,0.5S17,26.776,17,26.5s0.224-0.5,0.5-0.5S18,26.224,18,26.5z M31.5,26c-0.276,0-0.5,0.224-0.5,0.5s0.224,0.5,0.5,0.5s0.5-0.224,0.5-0.5S31.776,26,31.5,26z"/><path fill="#546E7A" d="M39.749,23.601C39.482,23.517,34.75,21,24,21S8.518,23.517,8.251,23.601l-0.876,0.274l1.736,7.734l3.719,2.479l7.867-2.248L22.618,28H24h1.382l1.921,3.841l7.867,2.248l3.719-2.479l1.736-7.734L39.749,23.601z M37.111,30.391l-2.281,1.521l-6.133-1.752L26.618,26H24h-2.618l-2.079,4.159l-6.133,1.752l-2.281-1.521l-1.155-5.124C11.78,24.743,15.125,23,24,23s12.22,1.743,14.267,2.267L37.111,30.391z"/><path fill="#D4E157" d="M8,19c0-8.837,7.163-16,16-16s16,7.163,16,16c0,0-8.163-2-17-2S8,19,8,19z"/><path fill="#D4E157" d="M43,17c0,0-4.785-4-19-4S5,17,5,17c0,5.216,1,8,1,8s3.806-4,18-4s18,4,18,4S43,21.964,43,17z"/><path fill="#BF360C" d="M40 34l-3 5c-.313.469-.782.811-1.323.966l-5.027 1.943c-.714.204-1.483.062-2.077-.384L24 39l-4.572 2.525c-.594.446-1.363.588-2.077.384l-5.027-1.943C11.782 39.811 11.313 39.469 11 39l-3-5 4 2h4l5.151-3.104C21.534 34.112 22.657 35 24 35c1.33 0 2.445-.872 2.838-2.07L32 36h4L40 34zM26.758 21.055C25.884 21.02 24.968 21 24 21c-9.94 0-14.782 1.961-16.793 3.136C6.487 25.261 3.653 29.768 3 32c4.033-5.768 11.585-9.073 15.104-10.364C16.947 22.483 14.861 24.097 13 26 16.688 23.447 25.217 21.409 26.758 21.055zM28.154 21.127C27.232 22.174 25.528 23.692 22 26c5.959-.179 12.358-3.645 12.942-3.968C33.126 21.63 30.888 21.298 28.154 21.127zM20 8L20 11 22 11 22 10 23 10 23 15 22 15 22 17 26 17 26 15 25 15 25 10 26 10 26 11 28 11 28 8z"/><path fill="#AFB42B" d="M39.531,15.253c-0.176-0.721-0.385-1.43-0.653-2.111c-1.35-0.464-2.834-1.073-5.878-1.509v5.88C31.164,17.331,27.378,17,24,17s-7.164,0.331-9,0.514v-5.853c-2.303,0.409-4.572,1.064-5.888,1.509c-0.263,0.672-0.469,1.371-0.643,2.083c1.164-0.432,2.661-0.876,4.531-1.255v6.001C15.775,19.416,19.371,19,24,19s8.225,0.416,11,0.999v-6.001C36.869,14.377,38.367,14.821,39.531,15.253z"/></svg>