<svg xmlns="http://www.w3.org/2000/svg"  viewBox="0 0 48 48" width="1600px" height="1600px" clip-rule="evenodd" baseProfile="basic"><path fill="#de3300" fill-rule="evenodd" d="M12.999,42.001V6.002	h25.029c2.191,0,3.971,1.78,3.971,3.971V38.03c0,2.191-1.78,3.971-3.971,3.971H12.999z" clip-rule="evenodd"/><path d="M5.998,38.03V9.973c0-2.191,1.78-3.971,3.971-3.971h3.031v35.999H9.969	C7.778,42.001,5.998,40.221,5.998,38.03z"/><path fill="#ffcb00" d="M21.997,39.002h12.001v-2.001H21.997V39.002z"/><path fill="#ffcb00" d="M20.998,41.002h2.999v-6.001h-2.999V41.002z"/><path fill="#ffcb00" d="M32.055,34.002h-0.048l-11.011-0.001l0.001-1.999h9.999	v-2.001h-10v-2h11.011l0.048,0.001c1.06,0.025,1.916,0.881,1.941,1.941v2.117C33.971,33.121,33.115,33.977,32.055,34.002z"/><path fill="#ffcb00" d="M20.997,27.002h13.001v-2.001H20.997V27.002z"/><path fill="#ffcb00" d="M20.995,20.002h13.001v-2.001H20.995V20.002z"/><path fill="#ffcb00" d="M32.055,13.002l-9.117-0.001	c-1.06-0.025-1.916-0.881-1.941-1.941V8.942c0.025-1.06,0.881-1.916,1.941-1.941l0.048-0.001l9.021,0.001l0.048,0.001	c1.06,0.025,1.916,0.881,1.941,1.941v2.117C33.971,12.121,33.115,12.977,32.055,13.002z M30.997,9.001l-7-0.001v2.001l7,0.001V9.001	z"/><path fill="#ffcb00" d="M27.997,19.001h-2v-2.999l-2-0.001v3h-3v-3.057	c0.025-1.06,0.881-1.916,1.941-1.941l0.048-0.001l3.021,0.001l0.048,0.001c1.06,0.025,1.916,0.881,1.941,1.941V19.001z"/><path fill="#ffcb00" d="M33.997,19.001h-3v-2.999l-2-0.001v3h-2v-3.057	c0.025-1.06,0.881-1.916,1.941-1.941l0.048-0.001l3.021,0.001l0.048,0.001c1.06,0.025,1.916,0.881,1.941,1.941V19.001z"/><path fill="#ffcb00" d="M28.997,26.001h-3v-2.999l-2-0.001v3h-3v-3.057	c0.025-1.06,0.881-1.916,1.941-1.941l0.048-0.001l4.021,0.001l0.048,0.001c1.06,0.025,1.916,0.881,1.941,1.941V26.001z"/><path fill="#ffcb00" d="M27.997,25.001l6-2v-2l-6,2V25.001z"/></svg>