<svg xmlns="http://www.w3.org/2000/svg"  viewBox="0 0 48 48" width="1600px" height="1600px" baseProfile="basic"><circle cx="24" cy="24" r="20" fill="#42a5f5"/><path fill="#034694" d="M21.24,21.5c-0.64,0.81-1.12,2.38-1.33,2.94c-0.79,2.14-1.7,4.56-4.13,4.56	c-2.43,0-3.34-2.42-4.13-4.56C11.34,23.62,11,22,10,19c1.5,0,0.86,0,1,0c2.43,0,2.69,2.42,3.49,4.56c0.3,0.82,0.86,2.31,1.29,2.68	c0.43-0.37,0.98-1.86,1.29-2.68c0.07-0.18,0.95-2.38,1.45-3.08C18.68,20.32,19,20,19.625,20C20.625,20,20.77,20.69,21.24,21.5z"/><path fill="#b3e5fc" d="M23.399,19.911C22.836,19.356,22.131,19,21.2,19c-1.21,0-2.05,0.61-2.68,1.48	c0.16-0.16,0.48-0.48,1.13-0.45c0.351,0.016,1.12,0.66,1.59,1.47c0.001,0.001,0.001,0.003,0.002,0.004	C21.619,20.968,22.414,20.044,23.399,19.911z"/><path fill="#fff" d="M38,29C37.98,28.99,38.02,29,38,29h-0.5c-3.5,0.125-3.34-2.42-4.14-4.56	c-0.3-0.83-0.61-2.565-1.29-2.68c-0.695,0.115-0.99,1.85-1.3,2.68c-0.8,2.14-1.7,4.56-4.14,4.56c-2.43,0-3.38-2.41-4.13-4.56	c-0.14-0.39-0.62-1.81-1.26-2.94c0.38-0.53,1.17-1.46,2.16-1.59c0.91,0.9,1.45,2.33,1.94,3.65c0.31,0.83,0.66,2.565,1.29,2.68	c0.62-0.115,0.99-1.85,1.3-2.68c0.8-2.14,1.7-4.56,4.14-4.56c2.43,0,3.54,3.51,3.93,5C36.28,25.07,36.79,27.13,38,29z"/></svg>