<svg xmlns="http://www.w3.org/2000/svg"  viewBox="0 0 48 48" width="1600px" height="1600px"><path fill="#e74c16" d="M37.183 34.974L27.401 40.452 15.987 40.48 6.59 14.148 32.678 7.371z"/><path fill="#f76418" d="M20.294 13.09L26.845 38.312 34.683 33.937 30.79 10.364z"/><path fill="#efedee" d="M17.593,18.264l-1.582,5.729l4.171,4.235l6.566-1.706l0.394,1.516 c-1.167,1.697-2.921,3.001-5.072,3.56c-3.981,1.034-8.024-0.808-9.957-4.226l-8.056,2.093l-1.152-4.433l8.056-2.093 c0.025-3.927,2.661-7.504,6.641-8.538c2.15-0.559,4.318-0.274,6.163,0.641l0.394,1.516L17.593,18.264z M1.152,30.219l1.796-0.467 L1.796,25.32L0,25.786L1.152,30.219z"/><path fill="#bbb8c2" d="M22.974 30.057c-3.981 1.034-8.024-.808-9.957-4.226l-8.056 2.093-.834-3.21L2.92 25.028l1.135 4.437 8.056-2.093c1.933 3.418 5.976 5.26 9.957 4.226 2.15-.559 3.905-1.862 5.072-3.56l-.088-.337C25.969 28.805 24.582 29.64 22.974 30.057zM18.499 16.723L18.11 18.13 24.159 16.558 23.841 15.335zM2.057 28.679L1.223 25.469 0 25.786 1.152 30.219 2.948 29.753 2.63 28.53z"/><path fill="#efedee" d="M21.253,24.058l-0.394-1.516c1.167-1.697,2.921-3.001,5.072-3.56 c3.981-1.034,8.024,0.808,9.957,4.226l8.056-2.093l1.152,4.433l-8.056,2.093c-0.025,3.927-2.661,7.504-6.641,8.538 c-2.15,0.559-4.318,0.274-6.163-0.641l-0.394-1.516l6.566-1.706l1.582-5.729l-4.171-4.235L21.253,24.058z M46.848,20.361 l-1.796,0.467l1.152,4.433L48,24.794L46.848,20.361z"/><g><path fill="#bbb8c2" d="M28.857 35.274c3.981-1.034 6.616-4.611 6.641-8.538l8.056-2.093-.834-3.21 1.207-.313 1.168 4.429-8.056 2.093c-.025 3.927-2.661 7.504-6.641 8.538-2.15.559-4.318.274-6.163-.641l-.088-.337C25.632 35.637 27.249 35.691 28.857 35.274zM26.278 21.447L27.301 22.486 21.253 24.058 20.935 22.835zM46.459 23.889L45.626 20.679 46.848 20.361 48 24.794 46.204 25.26 45.886 24.038z"/></g></svg>