<svg xmlns="http://www.w3.org/2000/svg"  viewBox="0 0 48 48" width="1600px" height="1600px"><polygon fill="#eceff1" points="24,4 7,14 7,34 24,44 41,34 41,14"/><polygon fill="#0277bd" points="23.5,24.5 23.5,33.5 15,29 15,19.5"/><polygon fill="#0277bd" points="24.5,24.5 24.5,33.5 33,29 33,19.5"/><polygon fill="#0277bd" points="24,23.5 15.5,18.5 24,14 32.5,18.5"/><g><polygon fill="#81d4fa" points="23.5,7 23.5,13 14.5,18 9.5,15"/><polygon fill="#81d4fa" points="23.5,41 23.5,35 14.5,30 9.5,33"/><polygon fill="#81d4fa" points="14,19 9,16 9,32 14,29"/><polygon fill="#81d4fa" points="24.5,7 24.5,13 33.5,18 38.5,15"/><polygon fill="#81d4fa" points="24.5,41 24.5,35 33.5,30 38.5,33"/><polygon fill="#81d4fa" points="34,19 39,16 39,32 34,29"/></g></svg>