<svg xmlns="http://www.w3.org/2000/svg"  viewBox="0 0 48 48" width="1600px" height="1600px" clip-rule="evenodd"><ellipse cx="24" cy="24.005" fill="#212121" fill-rule="evenodd" clip-rule="evenodd" rx="20" ry="19.992"/><path fill="#2a2f94" fill-rule="evenodd" d="M24.801,15.418c-1.818-3.614-4.66-5.927-7.819-7.839	c4.035-1.027,8.202-0.694,12.5,1l1.852,4L24.801,15.418z" clip-rule="evenodd"/><path fill="#4d008d" fill-rule="evenodd" d="M10.734,9.038c-3.12,3.458-5.02,8.037-5.02,13.055	c0,10.762,8.738,19.5,19.5,19.5c8.073,0,14.615-4.58,17.576-11.578C40.339,38.292,33.066,44,24,44C12.962,44,4,35.038,4,24	C4,18.05,6.604,12.704,10.734,9.038z" clip-rule="evenodd"/><path fill="#3541ff" fill-rule="evenodd" d="M23.934,4L24,4c11.038,0,20,8.962,20,20s-8.962,20-20,20	c-2.842,0-5.547-0.594-7.995-1.665c5.262-2.14,9.608-5.285,11.987-10.332c0,0-6.105,3.005-9.702,3.005	c-3.331,0-6.248-3.909-8.043-6.762c-0.323-0.518-0.355-1.166-0.087-1.714c0.269-0.548,0.8-0.919,1.408-0.983	c2.514-0.266,5.783-1.564,8.432-3.456c2.394-1.71,2.19-4.363,4.88-7c1.299-1.273,3.463-2.275,5.172-3.094	C28.367,9.064,26.529,6.483,23.934,4z" clip-rule="evenodd"/></svg>