<svg xmlns="http://www.w3.org/2000/svg"  viewBox="0 0 48 48" width="1600px" height="1600px"><path fill="#f57f17" d="M13,37l1.9,1.9C27.33,37.74,40,25.32,40,12l-1.98-0.85L32,13C32,13,31,36,13,37z"/><path fill="#e65100" d="M38.99,10.85C38.55,33.15,20.9,39,13,39v-2c10.7,0,23.29-8.19,23.97-25.53L38.99,10.85z"/><path fill="#0288d1" d="M45,9c0,10.06-9.3,21.16-19.73,26.6c6.9-3.8,13.46-11.27,13.72-24.75L45,9z"/><path fill="#9ccc65" d="M35,37l-1.9,1.9C20.67,37.74,8,25.32,8,12l1.98-0.85L16,13C16,13,17,36,35,37z"/><path fill="#689f38" d="M9.01,10.85C9.45,33.15,27.1,39,35,39v-2c-10.7,0-23.29-8.19-23.97-25.53L9.01,10.85z"/><path fill="#0288d1" d="M3,9c0,10.06,9.3,21.16,19.73,26.6c-6.9-3.8-13.46-11.27-13.72-24.75L3,9z"/></svg>