<svg xmlns="http://www.w3.org/2000/svg"  viewBox="0 0 48 48" width="1600px" height="1600px" baseProfile="basic"><path fill="#90a4ae" d="M36.149,25.242L18.579,9.055V7h-3.11c-0.065,0.003-2.192-0.003-2.192,2.182v25.836	c0,1.754,1.523,2.107,2.114,2.109h3.184v-2.08l2.649-2.43l3.9,8.918c0.367,0.92,1.264,1.403,2.153,1.447V43h3v-1.06l1.518-0.682	c0.528-0.234,0.924-0.654,1.116-1.185c0.203-0.559,0.156-1.179-0.117-1.715l-4.06-8.697l6.096-0.571l0.152-0.026	c1.292-0.317,1.699-1.125,1.828-1.579C37.023,26.727,36.774,25.856,36.149,25.242z"/><path fill="#e0e0e0" stroke="#37474f" stroke-miterlimit="10" stroke-width="2" d="M29.137,41.156l-4.482-10.248l-5.377,4.932	c-0.656,0.559-1.912,0.307-1.912-0.822V9.182c0-1.154,1.325-1.516,2.031-0.822l19.12,17.616c0.576,0.566,0.723,1.76-0.717,2.114	l-7.528,0.705l4.66,9.982c0.33,0.648,0.082,1.311-0.489,1.565l-3.574,1.606C30.298,42.152,29.418,41.884,29.137,41.156z"/></svg>