<svg xmlns="http://www.w3.org/2000/svg"  viewBox="0 0 48 48" width="1600px" height="1600px"><path fill="#37474F" d="M33 10A6 6 0 1 0 33 22 6 6 0 1 0 33 10zM15 10A6 6 0 1 0 15 22 6 6 0 1 0 15 10z"/><path fill="#37474F" d="M46.7,25l-15.3,3H16.7L1.4,25l4.3-7.9c1.1-1.9,3.1-3.1,5.3-3.1h26.2c2.2,0,4.2,1.2,5.3,3.1L46.7,25z"/><path fill="#37474F" d="M38 20A10 10 0 1 0 38 40 10 10 0 1 0 38 20zM10 20A10 10 0 1 0 10 40 10 10 0 1 0 10 20z"/><path fill="#37474F" d="M24 23A5 5 0 1 0 24 33A5 5 0 1 0 24 23Z"/><path fill="#546E7A" d="M24 26A2 2 0 1 0 24 30A2 2 0 1 0 24 26Z"/><g><path fill="#A0F" d="M38 23A7 7 0 1 0 38 37 7 7 0 1 0 38 23zM10 23A7 7 0 1 0 10 37 7 7 0 1 0 10 23z"/></g><g><path fill="#CE93D8" d="M41.7 27.7c-1-1.1-2.3-1.7-3.7-1.7s-2.8.6-3.7 1.7c-.4.4-.3 1 .1 1.4.4.4 1 .3 1.4-.1 1.2-1.3 3.3-1.3 4.5 0 .2.2.5.3.7.3.2 0 .5-.1.7-.3C42.1 28.7 42.1 28.1 41.7 27.7zM10 26c-1.4 0-2.8.6-3.7 1.7-.4.4-.3 1 .1 1.4.4.4 1 .3 1.4-.1 1.2-1.3 3.3-1.3 4.5 0 .2.2.5.3.7.3.2 0 .5-.1.7-.3.4-.4.4-1 .1-1.4C12.8 26.6 11.4 26 10 26z"/></g></svg>