<svg xmlns="http://www.w3.org/2000/svg"  viewBox="0 0 48 48" width="1600px" height="1600px"><path fill="#BF360C" d="M35,44c0,0-6-2-11-2s-11,2-11,2V32h22V44z"/><path fill="#FFA726" d="M14 28c0 2.209-1.791 4-4 4s-4-1.791-4-4 1.791-4 4-4S14 25.791 14 28M42 28c0 2.209-1.791 4-4 4s-4-1.791-4-4 1.791-4 4-4S42 25.791 42 28"/><path fill="#FFB74D" d="M38,18c0-12.725-28-8.284-28,0v9c0,8.284,6.269,15,14,15s14-6.716,14-15V18z"/><path fill="#784719" d="M32 26c0 1.105-.895 2-2 2s-2-.895-2-2 .895-2 2-2S32 24.895 32 26M20 26c0 1.105-.895 2-2 2s-2-.895-2-2 .895-2 2-2S20 24.895 20 26"/><path fill="#FF5722" d="M24,4C15.495,4,3,9,2.875,36L13,44V24l16.75-9l5.125,7L35,44l10-8c0-12-0.543-29-15-29l-2-3H24z"/><path fill="#FB8C00" d="M19,35h10c0,0-2,3-5,3S19,35,19,35z"/></svg>