<svg xmlns="http://www.w3.org/2000/svg"  viewBox="0 0 48 48" width="1600px" height="1600px"><path fill="#2196F3" d="M45,34V18c0-4.418-3.582-8-8-8H16c-4.418,0-8,3.582-8,8v16H45z"/><path fill="#FF3D00" d="M38 17H42V23H38z"/><path fill="#FF3D00" d="M30 17H40V19H30z"/><path fill="#FF3D00" d="M29 16A2 2 0 1 0 29 20A2 2 0 1 0 29 16Z"/><path fill="#DD2C00" d="M29 17A1 1 0 1 0 29 19A1 1 0 1 0 29 17Z"/><path fill="#FFCC80" d="M25 34H30V44H25z"/><path fill="#FFA726" d="M25 34H30V36H25z"/><path fill="#1976D2" d="M16,10c-4.411,0-8,3.589-8,8v14v2h2h12h2v-2V18C24,13.589,20.411,10,16,10L16,10z"/><path fill="#64B5F6" d="M16,12c-3.309,0-6,2.691-6,6v14h12V18C22,14.691,19.309,12,16,12z"/><path fill="#0D47A1" d="M20,20c0,0.552-0.448,1-1,1h-6c-0.552,0-1-0.448-1-1l0,0c0-0.552,0.448-1,1-1h6C19.552,19,20,19.448,20,20L20,20z"/></svg>