<svg xmlns="http://www.w3.org/2000/svg"  viewBox="0 0 48 48" width="1600px" height="1600px"><path fill="#0277BD" d="M14,10.6c0,0.6,0,3.4,0,3.4h4.5c0,0,0.5,0,0.5-0.6c0-0.6,0-3.4,0-3.4h-4.5C14.5,10,14,10,14,10.6z M14,16.6c0,0.6,0,15.4,0,15.4h4.5c0,0,0.5,0,0.5-0.6c0-0.1,0-15.4,0-15.4h-4.5C14.5,16,14,16,14,16.6z M8.5,10c0,0-0.5,0-0.5,0.6V16l-7.5,0c0,0-0.5,0-0.5,0.6V32h12.5c0,0,0.5,0,0.5-0.6c0-0.6,0-21.4,0-21.4H8.5z M8,28.4C8,29,7.5,29,7.5,29H5v-9.4C5,19,5.5,19,5.5,19H8V28.4z M34.5,16c0,0-0.5,0-0.5,0.6V32h8v2h-7.5c0,0-0.5,0-0.5,0.6c0,0.6,0,3.4,0,3.4h12.5c0,0,0.5,0,0.5-0.6c0-0.6,0-21.4,0-21.4L34.5,16z M42,28.4c0,0.6-0.5,0.6-0.5,0.6H39v-9.4c0-0.6,0.5-0.6,0.5-0.6H42L42,28.4L42,28.4z M20.5,16c0,0-0.5,0-0.5,0.6V32h8v2h-7.5c0,0-0.5,0-0.5,0.6c0,0.6,0,3.4,0,3.4h12.5c0,0,0.5,0,0.5-0.6c0-0.6,0-21.4,0-21.4H20.5z M28,28.4c0,0.6-0.5,0.6-0.5,0.6H25v-9.4c0-0.6,0.5-0.6,0.5-0.6H28V28.4z"/></svg>