<svg xmlns="http://www.w3.org/2000/svg"  viewBox="0 0 48 48" width="1600px" height="1600px"><path fill="#e64a19" d="M24,4C13,4,4,13,4,24c0,11,9,20,20,20c11,0,20-9,20-20C44,13,35,4,24,4z"/><path fill="#fff" d="M16,34c-3.3,0-6-2.7-6-6v-6h4v6c0,1.1,0.9,2,2,2s2-0.9,2-2v-6.1h4V28C22,31.3,19.3,34,16,34z"/><path fill="#fff" d="M20 25.1c-1.1 0-2-.9-2-2V18c0-3.3 2.7-6 6-6s6 2.7 6 6v3c0 1.1-.9 2-2 2s-2-.9-2-2v-3c0-1.1-.9-2-2-2-1.1 0-2 .9-2 2v5.1C22 24.2 21.1 25.1 20 25.1zM34 22v6c0 1.1-.9 2-2 2s-2-.9-2-2v-3.6c-.6.3-1.3.6-2 .6s-1.4-.2-2-.6V28c0 3.3 2.7 6 6 6s6-2.7 6-6v-6H34z"/></svg>