<svg xmlns="http://www.w3.org/2000/svg"  viewBox="0 0 48 48" width="1600px" height="1600px"><path fill="#fdd835" d="M47.909,23.5c0,9.113-7.43,16.5-16.595,16.5c-2.644,0-5.143-0.615-7.361-1.708 C21.74,39.379,19.23,40,16.595,40C7.43,40,0,32.613,0,23.5C0,14.387,7.43,7,16.595,7c2.645,0,5.136,0.612,7.355,1.702 C26.169,7.612,28.669,7,31.314,7C40.479,7,47.909,14.387,47.909,23.5z M44.633,23.5c0-7.314-5.963-13.243-13.319-13.243 c-1.401,0-2.751,0.215-4.019,0.614c2.544,2.116,4.362,4.848,5.267,8.122L29.125,19c-0.97-2.738-2.784-4.958-5.176-6.536 c-2.386,1.577-4.105,3.803-5.074,6.536l-3.437-0.008c0.903-3.265,2.663-6.022,5.197-8.136c-1.266-0.397-2.642-0.599-4.04-0.599 c-7.356,0-13.319,5.929-13.319,13.243s5.963,13.243,13.319,13.243c1.39,0,2.729-0.212,3.989-0.604 c-3.301-2.76-5.345-6.609-5.708-11.139H23v3h-4.125C20,31,21.671,32.964,24,34.5c2.338-1.537,4-3.5,5.125-6.5H25v-3h8.125 c-0.363,4.532-2.552,8.362-5.854,11.122c1.275,0.403,2.633,0.621,4.043,0.621C38.67,36.743,44.633,30.814,44.633,23.5z"/></svg>