<svg xmlns="http://www.w3.org/2000/svg"  viewBox="0 0 48 48" width="1600px" height="1600px" baseProfile="basic"><path fill="#e1e1e1" d="M36.872,42H11.128C8.296,42,6,39.704,6,36.872V11.128C6,8.296,8.296,6,11.128,6h25.745	C39.704,6,42,8.296,42,11.128v25.745C42,39.704,39.704,42,36.872,42z"/><path fill="#ed2224" d="M22.697,13.826c-0.551,0.2-2.355,0.701-2.756,1.603c0,0-1.145,3.05-2.444,6.516	c-1.27,0.239-2.609,0.515-3.854,0.787c1.367-3.599,2.633-6.921,2.842-7.453c0.451-1.152-0.501-1.553-1.102-0.551	c-0.236,0.393-1.747,4.322-3.266,8.347c-1.562,0.359-2.801,0.672-3.247,0.821c0,0-0.701,0.651-0.251,0.952	c0.434,0.289,0.605,0.45,2.223,1.622c-1.118,2.991-2.015,5.434-2.073,5.643c-0.15,0.551,0.551,2.154,1.202,0.351	c0.255-0.707,1.243-3.325,2.376-6.315c1.136-0.33,2.612-0.666,3.933-0.955c-1.229,3.281-2.325,6.212-2.451,6.569	c-0.301,0.852,0.451,1.303,1.052,1.854c0.601,0.551,0.751,1.052,1.202,0.05c0.224-0.497,1.826-4.86,3.422-9.232	c1.198-0.466,2.125-1.676,2.54-2.091c0.451-0.451,0.651-1.052-0.15-1.052c-0.362,0.023-0.804,0.072-1.294,0.138	c1.19-3.267,2.179-5.989,2.296-6.3C23.198,14.327,23.248,13.625,22.697,13.826z"/><path fill="#ed2224" d="M38.378,14.026c-0.651,0.15-1.954,0.451-2.555,1.303c-0.601,0.852-4.158,8.667-5.461,12.024	c0-1.453,1.202-11.723,1.303-12.325c0.1-0.601-0.15-1.052-0.751-0.902c-0.601,0.15-2.154,0.401-2.705,1.553	c-0.551,1.152-4.91,14.93-5.21,16.533c-0.301,1.603,1.052,1.202,1.303,0c0.251-1.202,3.808-12.375,3.808-12.375	s-0.451,8.216-0.501,9.569c-0.05,1.353,1.052,2.305,1.353,2.605c0.301,0.301,0.551,0.701,0.852-0.25	c0.301-0.952,5.461-12.775,5.461-12.775s-2.254,11.623-2.405,12.775c-0.15,1.152,2.054,3.657,2.305,2.054	c0.25-1.603,3.607-18.437,3.757-18.938C39.08,14.377,39.03,13.876,38.378,14.026z"/><path fill="#ed2224" d="M21.921,28.63c-0.426,0.476-0.476,0.225-0.476,0.225l-0.2-0.902c0,0,0.711-0.567,0.852-1.152	c0.326-1.353-1.253-2.229-1.929-0.726c-0.1,0.351-0.018,1.128,0.125,1.728c-1.879,1.252-1.253,3.231-0.401,3.282	c0.852,0.05,1.428-0.601,1.428-0.601s0.351,0.751,0.701,0.476c0.351-0.276-0.225-1.002-0.225-1.002s0.601-0.576,0.777-1.002	S22.347,28.154,21.921,28.63z M20.668,28.655c0,0,0.05,0.551,0.175,0.852C20.318,30.058,19.641,29.557,20.668,28.655z M20.969,26.977c0,0-0.451-1.002,0.2-0.952C21.821,26.075,21.194,26.827,20.969,26.977z"/></svg>